<svg width="194" height="194" version="1.1" xmlns="http://www.w3.org/2000/svg" xmlns:xlink="http://www.w3.org/1999/xlink"><path d="M144.14 76.82L144.14 76.82Q143.56 77.41 140.07 77.41L140.07 77.41L126.88 68.09Q125.71 67.12 125.91 65.77L125.91 65.77Q126.10 64.99 126.68 64.41L126.68 64.41Q137.16 65.96 138.71 66.74L138.71 66.74Q146.08 69.26 144.14 76.82ZM92.54 16.10L93.70 18.24L87.11 22.70L61.89 42.68L59.75 43.07L59.75 40.55Q72.17 24.83 73.72 22.50L73.72 22.50Q76.63 18.24 78.57 14.36L78.57 14.36Q78.57 8.92 79.73 8.34L79.73 8.34Q88.08 8.34 92.54 16.10L92.54 16.10ZM167.23 43.07L167.23 43.07L163.74 53.35Q163.35 54.90 163.35 56.26L163.35 56.26L163.35 108.45L163.93 137.93L163.93 138.13Q163.93 144.92 154.62 154.81L154.62 154.81Q150.35 154.81 145.69 148.41L145.69 148.41Q141.81 142.98 132.31 133.28L132.31 133.28L132.31 132.31Q134.05 132.31 142.98 135.02L142.98 135.02Q146.66 135.99 149.57 135.99L149.57 135.99L150.54 134.05Q154.04 101.85 152.87 85.55L152.87 85.55L140.07 100.49Q139.68 100.88 139.29 101.46L139.29 101.46L134.64 108.83L134.25 109.22Q132.11 111.55 124.94 106.70L124.94 106.70L122.03 104.18Q121.83 103.79 121.83 103.60L121.83 103.60Q121.83 100.88 126.68 99.13L126.68 99.13Q128.62 98.55 129.20 98.16L129.20 98.16L153.07 82.84L153.26 82.84L153.26 47.72Q153.26 45.20 149.96 43.07L149.96 43.07L129.79 45.98L127.85 45.98Q123.97 43.46 123.58 41.90L123.58 41.90Q141.43 39.19 149.57 34.34L149.57 34.34Q159.47 34.34 167.23 43.07ZM99.72 79.35L99.72 79.35Q99.13 80.51 97 80.12L97 80.12L96.03 79.93Q87.11 73.53 83.61 69.65L83.61 69.65Q83.42 64.80 95.45 69.65L95.45 69.65Q96.61 70.03 97.19 70.23L97.19 70.23Q99.72 72.75 99.72 79.35ZM53.16 29.10L53.16 29.10Q54.32 38.99 50.44 39.38L50.44 39.38Q49.47 39.58 48.31 38.99L48.31 38.99Q45.78 36.86 38.99 27.94L38.99 27.94Q37.44 25.80 36.28 24.25L36.28 24.25Q36.28 21.15 37.05 20.18L37.05 20.18Q48.31 23.09 53.16 29.10ZM119.31 50.63L119.31 50.63Q119.31 51.02 117.56 55.10L117.56 55.10Q115.24 60.33 115.24 93.51L115.24 93.51L116.40 125.13Q116.21 130.17 115.82 134.44L115.82 134.44Q114.85 144.92 106.89 150.54L106.89 150.54L103.98 149.19L88.46 132.70L102.63 133.28L104.18 130.56Q107.48 104.57 106.70 62.47L106.70 62.47Q106.70 58.20 106.51 51.99L106.51 51.99Q103.98 48.89 97.78 51.80L97.78 51.80Q93.51 53.74 92.15 53.74L92.15 53.74Q89.43 53.93 86.91 52.77L86.91 52.77L84.97 51.22Q84.39 50.63 84.20 50.05L84.20 50.05L98.36 45.78Q102.04 44.43 104.76 42.68L104.76 42.68Q114.46 43.26 119.31 50.63ZM105.34 88.08L105.73 90.02L86.91 113.30Q86.14 116.01 84.97 116.59L84.97 116.59Q78.96 116.59 73.14 111.55L73.14 111.55Q72.75 110.39 72.75 109.80L72.75 109.80Q72.75 107.67 78.38 106.12L78.38 106.12Q80.70 105.34 81.48 104.76L81.48 104.76L105.34 88.08ZM80.90 50.83L80.90 50.83Q80.90 52.38 79.73 53.54L79.73 53.54Q77.99 54.13 62.47 58.01L62.47 58.01L58.01 59.36Q63.24 62.66 64.60 64.21L64.60 64.21Q64.60 67.51 63.05 71.39L63.05 71.39Q67.90 70.62 71.20 71.39L71.20 71.39Q75.08 72.36 77.02 75.27L77.02 75.27Q76.82 76.63 72.94 77.79L72.94 77.79Q66.93 78.57 61.89 80.51L61.89 80.51L59.95 93.90L71.59 91.76Q75.66 91.57 77.99 92.73L77.99 92.73Q81.29 94.09 80.51 96.22L80.51 96.22Q80.32 97.00 79.15 97.58L79.15 97.58Q76.44 98.94 63.24 101.07L63.24 101.07L58.78 102.04L58.01 103.01Q52.96 129.59 35.89 145.31L35.89 145.31Q28.91 151.71 20.56 155.01L20.56 155.01L15.52 155.01L15.71 153.45Q39.77 136.58 47.34 110.97L47.34 110.97Q48.11 108.06 48.69 105.15L48.69 105.15Q45.78 105.34 33.76 109.80L33.76 109.80Q20.18 114.46 13.19 109.61L13.19 109.61Q11.25 107.86 11.25 105.92L11.25 105.92L12.80 104.76Q21.34 103.79 48.89 97.19L48.89 97.19Q49.47 97.19 49.86 97.00L49.86 97.00L51.99 82.84Q51.02 82.84 43.07 84.78L43.07 84.78Q36.47 86.33 33.17 82.64L33.17 82.64L33.17 81.67L52.38 75.27Q53.54 70.62 51.60 64.99L51.60 64.99Q51.02 63.24 50.25 61.50L50.25 61.50Q43.84 63.44 37.44 62.27L37.44 62.27Q33.76 61.50 31.43 59.75L31.43 59.75Q30.65 59.36 30.07 58.78L30.07 58.78Q30.26 57.81 48.89 53.74L48.89 53.74Q50.83 53.35 51.60 53.16L51.60 53.16L66.15 48.50Q76.24 46.17 80.90 50.83Z" stroke="#000" fill="black" /></svg>