<svg width="194" height="194" version="1.1" xmlns="http://www.w3.org/2000/svg" xmlns:xlink="http://www.w3.org/1999/xlink"><path d="M150.93 41.90L151.32 44.62L149.38 45.59Q135.22 43.65 108.83 47.14L108.83 47.14L106.51 47.34Q101.27 57.81 99.33 60.33L99.33 60.33Q98.36 61.69 97.19 62.66L97.19 62.66Q92.34 63.24 99.13 46.17L99.13 46.17L95.45 43.65Q94.87 42.87 94.87 41.90L94.87 41.90L100.69 40.74Q102.63 30.07 102.24 27.35L102.24 27.35Q102.04 25.22 101.46 23.47L101.46 23.47Q101.46 21.92 102.82 20.95L102.82 20.95Q109.61 20.95 115.82 27.94L115.82 27.94Q115.62 30.07 111.74 36.08L111.74 36.08L110.39 39.19L110.39 39.58Q112.91 39.58 127.26 37.05L127.26 37.05Q142.59 34.53 149.57 40.55L149.57 40.55Q150.16 41.13 150.93 41.90L150.93 41.90ZM172.85 130.95L172.85 130.95Q155.98 135.61 145.89 134.64L145.89 134.64L144.72 134.64Q134.25 133.08 112.71 107.09L112.71 107.09L91.37 80.90Q87.69 76.82 84.97 74.30L84.97 74.30Q85.36 72.75 86.72 72.75L86.72 72.75Q94.28 72.75 101.66 81.87L101.66 81.87Q108.45 90.40 110.58 92.34L110.58 92.34L122.61 73.14Q122.61 72.56 121.44 70.23L121.44 70.23Q116.98 71.00 105.73 75.08L105.73 75.08Q99.72 75.08 98.75 70.81L98.75 70.81L121.83 64.02Q123.58 63.44 125.13 62.66L125.13 62.66Q131.73 64.02 140.65 71.78L140.65 71.78Q140.65 73.53 138.52 74.50L138.52 74.50Q130.56 78.96 115.62 92.34L115.62 92.34L113.10 94.48Q129.40 112.33 145.31 118.53L145.31 118.53L167.23 126.10Q170.91 127.65 172.27 128.82L172.27 128.82Q172.85 129.40 172.85 130.95ZM77.79 43.65L77.79 43.65Q77.79 45.98 75.27 46.95L75.27 46.95Q70.03 46.95 70.03 51.22L70.03 51.22L70.81 59.95L70.42 61.89Q70.42 63.05 67.51 63.05L67.51 63.05Q64.99 60.33 63.44 51.80L63.44 51.80Q63.24 51.02 63.24 50.25L63.24 50.25L33.17 57.23Q22.50 55.48 21.34 48.89L21.34 48.89Q23.09 48.50 33.76 48.31L33.76 48.31Q36.08 48.31 38.02 47.92L38.02 47.92L61.30 44.62Q59.75 38.02 54.51 31.04L54.51 31.04Q54.32 26.38 66.15 30.65L66.15 30.65Q67.71 31.23 68.09 31.23L68.09 31.23L69.84 33.37L70.03 43.07L75.66 42.49Q77.02 42.68 77.79 43.65ZM104.76 108.83L104.76 108.83Q104.76 111.74 102.82 112.33L102.82 112.33L96.42 113.30L78.96 116.98Q69.84 118.34 64.41 115.43L64.41 115.43L62.27 114.07Q61.30 113.49 61.30 112.33L61.30 112.33Q63.24 110.97 71.39 110.39L71.39 110.39Q73.53 110.19 74.88 109.80L74.88 109.80L90.21 105.73Q99.72 104.18 104.76 108.83ZM134.64 179.06L134.64 179.06Q131.92 178.87 129.20 175.96L129.20 175.96L115.43 161.41L107.28 153.65L106.89 153.26Q105.34 151.32 105.34 149.77L105.34 149.77L105.73 148.80L106.31 148.22L122.61 154.81Q136.96 161.99 137.55 173.24L137.55 173.24Q137.55 177.32 134.64 179.06ZM78.18 80.51L78.96 81.67Q78.57 82.45 74.88 86.14L74.88 86.14Q73.72 87.11 73.14 88.08L73.14 88.08Q56.45 111.74 52.77 116.40L52.77 116.40Q26.77 148.99 5.63 148.99L5.63 148.99L5.63 148.41Q44.62 123.97 59.56 93.90L59.56 93.90Q59.75 93.51 59.95 93.31L59.95 93.31Q63.44 86.72 64.02 83.03L64.02 83.03Q64.21 81.09 62.08 81.09L62.08 81.09L53.54 81.87Q51.02 81.67 49.66 80.12L49.66 80.12L40.16 90.40L48.50 93.51Q50.05 94.48 50.83 95.84L50.83 95.84Q51.22 96.81 51.41 97.97L51.41 97.97L51.22 100.30Q50.83 100.88 50.25 101.27L50.25 101.27Q46.56 101.07 40.74 95.25L40.74 95.25Q38.80 93.51 37.83 92.73L37.83 92.73L26.58 102.04L35.70 105.73Q37.83 107.09 38.80 109.03L38.80 109.03Q39.77 110.58 39.77 112.52L39.77 112.52Q39.77 114.85 38.41 115.82L38.41 115.82Q34.34 114.27 26.58 107.28L26.58 107.28Q24.44 105.34 23.09 104.18L23.09 104.18Q20.76 106.31 16.68 106.31L16.68 106.31L16.68 105.73Q32.01 90.21 32.20 89.82L32.20 89.82Q42.68 78.38 45.01 70.62L45.01 70.62L45.20 64.80Q45.59 63.83 46.56 63.63L46.56 63.63Q49.28 63.24 53.54 67.71L53.54 67.71Q55.48 69.45 56.07 70.81L56.07 70.81Q57.04 73.14 53.74 75.66L53.74 75.66L51.60 77.79Q52.96 77.79 62.66 75.27L62.66 75.27Q68.09 73.91 70.42 74.88L70.42 74.88Q75.08 76.63 78.18 80.51L78.18 80.51ZM123.58 131.92L123.58 131.92Q123.58 133.86 122.03 134.25L122.03 134.25Q120.86 134.64 111.94 134.44L111.94 134.44Q111.16 134.44 110.58 134.64L110.58 134.64Q96.03 134.64 84.39 135.99L84.39 135.99Q90.02 139.29 89.05 148.80L89.05 148.80Q88.46 155.98 88.46 156.75L88.46 156.75L89.24 167.81L89.24 168.00Q89.24 183.14 81.87 192.06L81.87 192.06Q78.96 192.06 75.47 187.02L75.47 187.02Q74.11 185.08 73.14 184.11L73.14 184.11L62.86 173.63L63.24 171.50L76.44 172.66L76.63 172.66L78.38 170.33Q80.32 155.39 78.57 144.92L78.57 144.92Q77.99 140.65 76.63 136.96L76.63 136.96Q75.27 136.96 62.08 139.29L62.08 139.29Q47.14 142.01 42.87 135.99L42.87 135.99Q43.26 135.22 43.84 134.83L43.84 134.83Q48.11 133.67 72.17 130.76L72.17 130.76Q76.05 130.37 78.57 129.98L78.57 129.98L103.01 125.52Q104.76 125.13 106.51 125.13L106.51 125.13Q112.33 124.55 118.15 127.46L118.15 127.46Q121.64 129.20 123.58 131.92ZM36.67 178.48L36.67 178.48Q33.76 178.48 32.79 176.93L32.79 176.93Q29.88 171.11 38.99 161.99L38.99 161.99Q47.34 153.45 47.53 153.07L47.53 153.07Q49.08 151.32 49.66 149.77L49.66 149.77Q51.22 148.22 52.77 149.77L52.77 149.77Q53.35 150.35 53.54 151.32L53.54 151.32Q53.54 154.23 52.38 156.56L52.38 156.56Q48.31 174.02 36.67 178.48Z" stroke="#000" fill="black" /></svg>