<svg xmlns="http://www.w3.org/2000/svg" width="300" height="300" viewBox="0 0 300 300" version="1.1">
	<path d="M 62.890 113.167 C 58.553 116.757, 61.485 121.359, 68.851 122.525 C 78.889 124.114, 84.563 126.279, 83.443 128.093 C 83.148 128.569, 83.409 129.895, 84.021 131.040 C 86.679 136.006, 92.858 130.181, 91.498 123.991 C 91.143 122.376, 89.541 119.950, 87.938 118.601 C 82.693 114.188, 66.025 110.571, 62.890 113.167 M 70.229 154.725 C 68.046 155.508, 66 160.705, 66 165.469 C 66 167.981, 66.829 173.291, 67.842 177.268 C 70.341 187.078, 71.652 193.203, 73.030 201.500 C 74.517 210.452, 75.100 211.500, 78.596 211.500 C 83.226 211.500, 84.527 207.596, 83.053 198.116 C 81.363 187.243, 78.003 172.953, 76.404 169.836 C 75.653 168.371, 74.743 164.663, 74.382 161.595 C 73.714 155.913, 72.503 153.909, 70.229 154.725" stroke="none" fill="black" fill-rule="evenodd"/>
</svg>