<svg xmlns="http://www.w3.org/2000/svg" width="300" height="300" viewBox="0 0 300 300" version="1.1">
	<path d="M 109.418 77.267 C 107.601 79.215, 101.392 94.781, 98.954 103.500 C 98.043 106.756, 94.565 118.790, 92.451 126 C 91.726 128.475, 90.417 133.200, 89.543 136.500 C 88.670 139.800, 86.867 146.100, 85.538 150.500 C 80.928 165.763, 74.839 189.258, 70.118 210 C 66.992 223.737, 66.002 227.067, 64.249 229.742 C 62.793 231.965, 62.833 232.277, 64.821 234.265 C 67.609 237.053, 71.630 235.798, 74.244 231.322 C 75.862 228.552, 82.264 205.041, 88.084 180.500 C 89.127 176.100, 91.122 168.450, 92.517 163.500 C 96.074 150.873, 98.810 140.960, 101.624 130.500 C 104.665 119.196, 107.841 107.552, 109.125 103 C 109.668 101.075, 110.492 98.150, 110.956 96.500 C 112.172 92.173, 114.152 86.933, 115.671 84.024 C 119.327 77.019, 114.507 71.811, 109.418 77.267" stroke="none" fill="black" fill-rule="evenodd"/>
</svg>