<svg xmlns="http://www.w3.org/2000/svg" width="300" height="300" viewBox="0 0 300 300" version="1.1">
	<path d="M 75.688 127.792 C 71.732 132.164, 74.832 138.091, 82.533 140.876 C 84.604 141.625, 90.169 144.744, 94.899 147.808 C 103.110 153.126, 118.534 161.151, 126 163.990 C 127.925 164.722, 129.891 165.662, 130.368 166.078 C 130.845 166.495, 124.681 173.510, 116.669 181.668 C 101.159 197.460, 91.053 210.088, 91.020 213.715 C 90.970 219.295, 98.680 218.638, 103.066 212.687 C 104.358 210.934, 107.285 207.475, 109.570 205 C 111.855 202.525, 119.340 194.425, 126.204 187 C 133.067 179.575, 139.204 172.517, 139.842 171.316 C 142.812 165.716, 139.858 159.511, 132.809 156.543 C 114.494 148.831, 109.305 146.161, 96.746 137.984 C 93.311 135.747, 88.381 133.162, 85.791 132.238 C 82.538 131.079, 80.991 129.935, 80.791 128.540 C 80.404 125.856, 77.787 125.473, 75.688 127.792" stroke="none" fill="black" fill-rule="evenodd"/>
</svg>