<svg xmlns="http://www.w3.org/2000/svg" width="300" height="300" viewBox="0 0 300 300" version="1.1">
	<path d="M 66.948 97.601 C 59.378 100.142, 56.510 102.560, 57.623 105.460 C 58.439 107.586, 62.487 107.386, 69 104.897 C 73.473 103.188, 75.714 102.917, 81 103.446 C 91.487 104.497, 92 104.738, 92 108.622 C 92 114.284, 88.433 119.230, 80.836 124.105 C 71.486 130.105, 69.997 136.482, 75.255 148 C 76.635 151.025, 78.098 154.625, 78.505 156 C 79.627 159.792, 80.968 161, 84.055 161 C 86.006 161, 87.063 160.376, 87.513 158.958 C 88.275 156.557, 87.297 149.997, 85.521 145.602 C 84.832 143.896, 84.011 140.812, 83.696 138.748 C 83.160 135.222, 83.395 134.790, 87.612 131.570 C 95.543 125.514, 99.763 118.560, 100.649 110.086 C 101.210 104.713, 101.050 104.088, 98.338 101.052 C 95.771 98.180, 94.415 97.627, 86.962 96.415 C 75.942 94.624, 75.786 94.633, 66.948 97.601 M 76.247 196.153 C 74.579 197.821, 74.666 201.523, 76.415 203.272 C 78.508 205.365, 83.743 207.313, 85.482 206.645 C 87.791 205.759, 87.347 200.673, 84.750 198.248 C 81.837 195.530, 77.852 194.548, 76.247 196.153" stroke="none" fill="black" fill-rule="evenodd"/>
</svg>