<svg xmlns="http://www.w3.org/2000/svg" width="300" height="300" viewBox="0 0 300 300" version="1.1">
	<path d="M 45.250 159.948 C 43.581 162.652, 43.666 165.935, 45.422 166.609 C 47.179 167.283, 49.394 172.693, 51.589 181.668 C 52.736 186.360, 53.309 193.400, 53.417 204.141 C 53.579 220.283, 54.226 223.019, 57.872 222.985 C 61.236 222.953, 62.253 220.933, 65.469 207.889 C 69.124 193.067, 69.133 193.041, 73.052 184.371 C 77.966 173.502, 82.764 171.307, 88.382 177.359 C 91.730 180.966, 93.585 185.182, 97.025 197 C 102.619 216.219, 106.403 223.330, 110.757 222.806 C 114.812 222.318, 115.735 219.795, 113.886 214.260 C 113.012 211.642, 111.564 207.025, 110.670 204 C 103.493 179.725, 101.088 173.946, 96.072 168.924 C 87.641 160.485, 78.138 160.412, 70.145 168.725 C 67.750 171.216, 64.795 175.402, 63.579 178.027 L 61.368 182.799 60.020 176.724 C 59.279 173.383, 57.284 167.916, 55.586 164.575 C 52.949 159.384, 52.064 158.458, 49.500 158.212 C 47.361 158.006, 46.141 158.505, 45.250 159.948" stroke="none" fill="black" fill-rule="evenodd"/>
</svg>