<svg xmlns="http://www.w3.org/2000/svg" width="300" height="300" viewBox="0 0 300 300" version="1.1">
	<path d="M 83.500 54.027 C 74.843 56.402, 68.488 57.233, 62.602 56.760 C 54.425 56.104, 52.049 57.387, 53.543 61.653 C 54.272 63.734, 55.674 64.894, 58.755 65.964 C 62.538 67.278, 63.974 67.243, 72.735 65.627 C 90.283 62.390, 94.123 61.833, 95.430 62.335 C 97.440 63.106, 99 71.047, 99 80.501 C 99 85.240, 99.433 93.253, 99.963 98.308 C 100.856 106.831, 102.650 125.126, 104.992 149.601 C 105.524 155.157, 106.263 169.828, 106.634 182.204 L 107.308 204.705 93.904 205.421 C 67.716 206.820, 65.315 207.190, 61.994 210.335 C 58.631 213.519, 58.281 215.158, 60.558 217.048 C 61.819 218.095, 63.577 218.107, 69.808 217.110 C 82.370 215.100, 103.418 214.488, 107.995 215.998 C 113.045 217.665, 114.975 216.302, 114.854 211.153 C 114.807 209.144, 115.578 203.767, 116.567 199.204 C 118.207 191.639, 118.260 189.216, 117.171 171.704 C 115.875 150.879, 114.705 137.434, 112.499 118 C 110.295 98.595, 109.938 94.500, 109.136 79.498 C 108.501 67.614, 108.021 64.761, 105.965 60.644 C 104.632 57.976, 102.645 55.164, 101.548 54.396 C 99.357 52.861, 88.556 52.640, 83.500 54.027" stroke="none" fill="black" fill-rule="evenodd"/>
</svg>