<svg xmlns="http://www.w3.org/2000/svg" width="300" height="300" viewBox="0 0 300 300" version="1.1">
	<path d="M 86.546 83.742 C 85.724 85.882, 85.709 178.720, 86.530 180.048 C 87.377 181.420, 91.573 181.220, 92.790 179.750 C 94.652 177.501, 96.226 144.381, 95.772 117 C 95.267 86.540, 94.383 82.067, 88.857 82.015 C 87.953 82.007, 86.913 82.784, 86.546 83.742 M 85.482 219.660 C 84.667 220.476, 84.015 222.348, 84.033 223.821 C 84.100 229.172, 89.911 233.320, 101.168 236.053 C 108.279 237.779, 111 237.235, 111 234.085 C 111 231.591, 107.225 226.999, 105.177 227.003 C 102.346 227.008, 91 221.777, 91 220.467 C 91 218.563, 87.143 218, 85.482 219.660" stroke="none" fill="black" fill-rule="evenodd"/>
</svg>