<svg xmlns="http://www.w3.org/2000/svg" width="300" height="300" viewBox="0 0 300 300" version="1.1">
	<path d="M 47.655 71.829 C 45.489 74.222, 45.567 76.383, 48.113 84.645 C 50.843 93.505, 53.259 98.174, 57.599 102.978 C 61.432 107.220, 65.723 108.754, 68.941 107.031 C 72.050 105.368, 71.488 102.221, 67.681 99.974 C 65.229 98.528, 63.509 96.118, 61.101 90.758 C 55.537 78.373, 55 76.988, 55 75.038 C 55 72.876, 52.478 70, 50.584 70 C 49.883 70, 48.565 70.823, 47.655 71.829 M 71.905 74.177 C 70.223 77.320, 71.413 88.813, 73.918 93.618 C 75.052 95.794, 77.725 99.279, 79.857 101.361 C 83.056 104.484, 84.327 105.090, 87.117 104.823 C 92.146 104.343, 92.256 100.611, 87.393 95.455 C 83.344 91.162, 79.382 83.489, 78.379 78 C 77.263 71.894, 74.120 70.038, 71.905 74.177" stroke="none" fill="black" fill-rule="evenodd"/>
</svg>