<svg xmlns="http://www.w3.org/2000/svg" width="300" height="300" viewBox="0 0 300 300" version="1.1">
	<path d="M 71.500 142.876 C 65.450 143.255, 59.938 143.914, 59.250 144.341 C 57.635 145.345, 57.636 149.453, 59.252 150.794 C 60.032 151.441, 71.343 151.959, 89.264 152.166 C 116.241 152.479, 118.061 152.388, 118.596 150.701 C 119.411 148.130, 116.604 144.366, 113.311 143.615 C 108.766 142.578, 83.411 142.130, 71.500 142.876 M 72.500 171.491 C 71.950 171.712, 69.634 172.371, 67.353 172.957 C 63.032 174.066, 61.542 175.982, 62.545 179.141 C 63.096 180.878, 64.565 181, 85.002 181 C 97.029 181, 107.912 181.389, 109.185 181.864 C 114.376 183.801, 120.719 184.138, 122.296 182.562 C 125.859 178.998, 121.451 175.477, 110.070 172.796 C 105.657 171.756, 74.535 170.676, 72.500 171.491" stroke="none" fill="black" fill-rule="evenodd"/>
</svg>