<svg xmlns="http://www.w3.org/2000/svg" width="300" height="300" viewBox="0 0 300 300" version="1.1">
	<path d="M 72.369 49.536 C 69.527 50.782, 63.183 58.209, 60.393 63.556 C 57.012 70.035, 51.639 79.455, 47.305 86.500 C 41.540 95.872, 39 102.180, 39 107.128 C 39 111.083, 41.422 114, 44.706 114 C 47.628 114, 48.682 112.218, 49.215 106.374 C 49.566 102.528, 50.879 99.283, 54.475 93.374 C 60.690 83.163, 71 64.835, 71 63.999 C 71 63.641, 72.056 62.356, 73.347 61.144 L 75.694 58.939 78.189 62.719 C 79.561 64.799, 83.887 73.025, 87.803 81 C 96.474 98.663, 101.295 105.375, 105.619 105.801 C 107.491 105.986, 109.179 105.489, 109.986 104.517 C 111.449 102.754, 111.590 103.122, 104.625 90.514 C 102.494 86.656, 98.122 78.415, 94.908 72.200 C 87.059 57.021, 83.396 51.840, 78.800 49.421 C 77.314 48.640, 75.964 48.037, 75.800 48.082 C 75.635 48.126, 74.091 48.781, 72.369 49.536" stroke="none" fill="black" fill-rule="evenodd"/>
</svg>