<svg xmlns="http://www.w3.org/2000/svg" width="300" height="300" viewBox="0 0 300 300" version="1.1">
	<path d="M 62.200 119.200 C 60.300 121.100, 60.798 126.077, 63.275 129.946 C 64.526 131.901, 66.038 134.400, 66.634 135.500 C 67.331 136.785, 68.746 137.500, 70.596 137.500 C 77.015 137.500, 76.918 128.715, 70.421 121.623 C 67.006 117.896, 64.301 117.099, 62.200 119.200 M 34.166 156.597 C 31.094 158.748, 31.702 162.094, 35.500 163.939 C 37.916 165.112, 44.349 165.406, 68.543 165.448 C 95.674 165.495, 98.849 165.328, 101.293 163.727 C 104.437 161.668, 104.768 159.005, 102.171 156.655 C 100.550 155.188, 96.719 155, 68.394 155 C 40.755 155, 36.138 155.215, 34.166 156.597 M 69.953 191.623 C 67.869 197.106, 70.974 204.901, 76.350 207.681 C 78.029 208.549, 80.019 209.876, 80.773 210.630 C 82.701 212.558, 85.389 212.333, 87.435 210.072 C 89.793 207.466, 88.845 205.033, 83.580 200.181 C 81.192 197.979, 78.005 194.562, 76.500 192.589 C 73.252 188.330, 71.314 188.044, 69.953 191.623" stroke="none" fill="black" fill-rule="evenodd"/>
</svg>