<svg xmlns="http://www.w3.org/2000/svg" width="300" height="300" viewBox="0 0 300 300" version="1.1">
	<path d="M 63.639 58.939 C 57.862 61.259, 55.598 63.150, 52.207 68.489 C 47.329 76.169, 49.408 91.370, 56.236 97.942 C 58.696 100.310, 58.709 100.396, 56.873 102.367 C 55.843 103.473, 55 104.907, 55 105.554 C 55 107.685, 59.122 112.021, 63.055 114.028 C 74.262 119.746, 88.533 111.646, 96.362 95.123 C 101.970 83.287, 100.031 73.363, 90.599 65.635 C 81.308 58.022, 71.802 55.661, 63.639 58.939 M 67.371 67.486 C 63.934 68.931, 59.257 74.129, 58.430 77.421 C 57.957 79.308, 59.237 84.610, 63.679 99.159 C 64.001 100.212, 63.513 100.978, 62.343 101.258 C 60.927 101.597, 61.361 102.081, 64.218 103.349 C 71.258 106.475, 75.996 105.068, 82.438 97.937 C 92.927 86.326, 91.873 76.122, 79.528 69.775 C 73.392 66.620, 70.656 66.105, 67.371 67.486" stroke="none" fill="black" fill-rule="evenodd"/>
</svg>