<svg xmlns="http://www.w3.org/2000/svg" width="300" height="300" viewBox="0 0 300 300" version="1.1">
	<path d="M 54.329 146.775 C 53.685 147.185, 52.861 148.705, 52.498 150.152 C 51.944 152.358, 52.418 153.248, 55.419 155.642 C 57.388 157.214, 59 159.197, 59 160.050 C 59 162.129, 60.990 164, 63.200 164 C 67.827 164, 70.811 155.962, 67.701 151.877 C 64.544 147.730, 57.220 144.936, 54.329 146.775 M 51.668 192.815 C 49.223 195.517, 49.628 198.569, 52.750 200.965 C 54.263 202.125, 56.225 204.295, 57.112 205.787 C 58.840 208.696, 62.813 209.230, 65.588 206.927 C 68.671 204.369, 66.176 197.985, 60.655 194.306 C 55.824 191.087, 53.570 190.713, 51.668 192.815" stroke="none" fill="black" fill-rule="evenodd"/>
</svg>