<svg xmlns="http://www.w3.org/2000/svg" width="300" height="300" viewBox="0 0 300 300" version="1.1">
	<path d="M 58 131 C 56.900 132.100, 56 133.622, 56 134.383 C 56 135.143, 58.925 137.671, 62.500 140 C 66.075 142.329, 69 144.825, 69 145.546 C 69 147.259, 71.770 150, 73.500 150 C 75.935 150, 78 146.932, 78 143.313 C 78 140.502, 77.225 139.053, 74.250 136.301 C 70.197 132.552, 64.014 129, 61.540 129 C 60.693 129, 59.100 129.900, 58 131 M 79.203 180.197 C 78.465 180.935, 78 184.514, 78 189.464 C 78 200.806, 74.986 208.391, 64.145 224.328 C 57.611 233.932, 56.734 235.805, 57.444 238.635 C 57.971 240.733, 58.571 241.073, 61.284 240.811 C 64.012 240.547, 65.225 239.437, 69.275 233.500 C 83.594 212.506, 86.652 206.771, 88.037 198.303 C 89.096 191.832, 88.470 186.747, 86.152 183 C 85.301 181.625, 84.582 180.443, 84.553 180.374 C 84.157 179.430, 80.104 179.296, 79.203 180.197" stroke="none" fill="black" fill-rule="evenodd"/>
</svg>