<svg xmlns="http://www.w3.org/2000/svg" width="300" height="300" viewBox="0 0 300 300" version="1.1">
	<path d="M 72.500 134.326 C 61.157 138.765, 45.051 156, 42.908 165.994 C 41.710 171.581, 43.164 176.215, 46.306 176.820 C 48.634 177.269, 51 175.265, 51 172.844 C 51 166.545, 65.441 148.602, 73.500 144.887 C 82.594 140.696, 88.955 143.060, 101.869 155.429 C 111.377 164.537, 116.746 168.025, 124.932 170.415 C 132.478 172.617, 136.127 172.411, 143.829 169.344 C 152.386 165.937, 158.065 161.258, 164.138 152.610 C 169.504 144.969, 169.939 143.160, 167.040 140.536 C 164.966 138.659, 160 139.061, 160 141.106 C 160 142.759, 147.976 154.944, 143.500 157.826 C 140.168 159.971, 138.331 160.399, 132.500 160.390 C 123.332 160.375, 119.941 158.558, 107.402 146.939 C 95.745 136.137, 89.751 132.963, 81.221 133.076 C 78.075 133.118, 74.150 133.680, 72.500 134.326" stroke="none" fill="black" fill-rule="evenodd"/>
</svg>