<svg xmlns="http://www.w3.org/2000/svg" width="300" height="300" viewBox="0 0 300 300" version="1.1">
	<path d="M 92 94.581 C 82.973 99.709, 76.162 108.442, 73.641 118.120 C 71.266 127.237, 74.203 136.135, 81.326 141.408 C 85.619 144.586, 92.955 144.138, 100.610 140.231 L 106.719 137.113 107.278 160.307 C 107.729 179.035, 108.189 184.559, 109.668 189 C 111.313 193.940, 111.814 194.531, 114.585 194.801 C 119.536 195.284, 120.528 193.196, 119.141 185.213 C 118.499 181.521, 117.936 168.825, 117.889 157 C 117.787 131.093, 117.539 128.874, 114.365 125.449 C 111.345 122.190, 107.413 122.578, 103.229 126.547 C 97.157 132.307, 87.800 134.874, 85.033 131.539 C 83.208 129.341, 82.661 122.974, 83.900 118.371 C 85.680 111.762, 95.515 101.906, 100.200 102.036 C 102.965 102.112, 107.179 106.891, 109.486 112.567 C 111.448 117.394, 112.326 118.500, 114.199 118.500 C 117.085 118.500, 117.612 115.266, 115.995 107.475 C 114.680 101.140, 111.416 96.763, 105.914 93.956 C 100.812 91.353, 97.412 91.506, 92 94.581" stroke="none" fill="black" fill-rule="evenodd"/>
</svg>