<svg xmlns="http://www.w3.org/2000/svg" width="300" height="300" viewBox="0 0 300 300" version="1.1">
	<path d="M 82.500 107 C 80.586 109.115, 80.717 107.607, 78.050 158 C 75.800 200.523, 74.942 212.698, 73.870 217.349 C 72.854 221.759, 72.941 222.386, 74.834 224.279 C 76.616 226.060, 77.284 226.192, 79.478 225.192 C 80.887 224.550, 82.445 222.960, 82.940 221.658 C 83.435 220.357, 84.340 211.239, 84.952 201.396 C 85.565 191.553, 86.501 177.401, 87.033 169.948 C 87.565 162.494, 88 145.105, 88 131.305 C 88 109.348, 87.802 106.138, 86.418 105.607 C 84.329 104.805, 84.561 104.723, 82.500 107" stroke="none" fill="black" fill-rule="evenodd"/>
</svg>