<svg xmlns="http://www.w3.org/2000/svg" width="300" height="300" viewBox="0 0 300 300" version="1.1">
	<path d="M 181.262 45.250 C 178.266 48.481, 165.080 70.135, 160.557 79.250 C 158.442 83.513, 156.201 87, 155.578 87 C 151.378 87, 146.862 79.746, 142.458 65.923 C 140.981 61.290, 139.192 56.883, 138.481 56.130 C 136.561 54.095, 131.358 53.785, 129.546 55.596 C 127.485 57.658, 127.597 59.325, 129.938 61.444 C 131.005 62.409, 132.336 65.341, 132.898 67.959 C 135.476 79.982, 142.707 92.339, 149.348 96.074 C 154.231 98.820, 160.967 98.319, 164.562 94.942 C 165.903 93.682, 167 92.347, 167 91.976 C 167 91.604, 169.304 87.070, 172.119 81.900 C 174.935 76.730, 180.129 67.001, 183.662 60.280 C 189.939 48.342, 190.048 48.003, 188.428 45.530 C 186.378 42.402, 183.990 42.308, 181.262 45.250" stroke="none" fill="black" fill-rule="evenodd"/>
</svg>