<svg xmlns="http://www.w3.org/2000/svg" width="300" height="300" viewBox="0 0 300 300" version="1.1">
	<path d="M 142.607 49.582 C 140.743 54.439, 143.007 58.611, 148.299 60.072 C 152.236 61.159, 157.213 65.762, 160.116 71 C 161.183 72.925, 162.937 75.850, 164.013 77.500 C 165.089 79.150, 166.989 82.483, 168.235 84.907 C 171.367 91, 173.562 92.187, 176.063 89.139 C 177.128 87.841, 178 85.985, 178 85.016 C 178 80.354, 167.852 63.173, 161.044 56.310 C 159.303 54.555, 155.769 52.343, 153.190 51.394 C 150.610 50.446, 148.072 49.294, 147.550 48.835 C 145.997 47.470, 143.259 47.884, 142.607 49.582" stroke="none" fill="black" fill-rule="evenodd"/>
</svg>