<svg xmlns="http://www.w3.org/2000/svg" width="300" height="300" viewBox="0 0 300 300" version="1.1">
	<path d="M 108 104.665 C 105.280 105.734, 101.837 109.438, 99.786 113.500 C 98.676 115.700, 97.115 118.243, 96.317 119.152 C 95.442 120.149, 94.993 122.299, 95.184 124.576 C 95.469 127.975, 96.095 128.728, 101.500 132.164 C 110.228 137.713, 111.790 138.210, 119.245 137.803 C 125.786 137.446, 126.139 137.288, 130.938 132.561 C 136.789 126.798, 138.463 123.283, 137.586 118.607 C 136.876 114.820, 130.614 108.406, 126.775 107.533 C 125.524 107.249, 122.475 106.521, 120 105.916 C 113.751 104.387, 109.763 103.972, 108 104.665" stroke="none" fill="black" fill-rule="evenodd"/>
</svg>