<svg xmlns="http://www.w3.org/2000/svg" width="300" height="300" viewBox="0 0 300 300" version="1.1">
	<path d="M 72.250 129.134 C 70.222 131.188, 70.813 134.708, 73.548 136.859 C 74.949 137.961, 79.276 139.847, 83.162 141.050 C 87.049 142.253, 91.415 143.856, 92.864 144.612 C 96.346 146.429, 98.924 146.362, 99.663 144.436 C 100.975 141.016, 98.177 138.284, 88.576 133.614 C 77.656 128.302, 74.048 127.312, 72.250 129.134 M 132.579 130.564 C 131.215 131.928, 131.193 132.471, 132.412 134.814 C 134.562 138.945, 137.880 141.584, 145.270 145.041 C 153.412 148.849, 157.320 148.583, 156.813 144.256 C 156.475 141.371, 153.102 138.617, 142.404 132.491 C 135.495 128.535, 134.754 128.389, 132.579 130.564 M 205.991 131.511 C 203.048 135.057, 210.677 146.406, 217.833 149.127 C 221.378 150.474, 225.004 148.774, 224.988 145.771 C 224.972 142.877, 212.138 130, 209.268 130 C 208.155 130, 206.681 130.680, 205.991 131.511" stroke="none" fill="black" fill-rule="evenodd"/>
</svg>