<svg xmlns="http://www.w3.org/2000/svg" width="300" height="300" viewBox="0 0 300 300" version="1.1">
	<path d="M 155.997 163.503 C 154.295 165.555, 154.430 169.348, 156.301 172.019 C 158.922 175.761, 169.313 182.978, 172.095 182.989 C 175.583 183.004, 178.610 179.643, 177.404 177.096 C 176.002 174.139, 160.781 162, 158.475 162 C 157.798 162, 156.684 162.676, 155.997 163.503 M 96.170 169.525 C 95.146 171.773, 95.376 172.439, 98.260 175.578 C 102.418 180.106, 108.042 181.596, 111.229 179.016 C 114.650 176.246, 112.400 172.509, 105.467 169.443 C 98.556 166.387, 97.597 166.395, 96.170 169.525" stroke="none" fill="black" fill-rule="evenodd"/>
</svg>