<svg xmlns="http://www.w3.org/2000/svg" width="300" height="300" viewBox="0 0 300 300" version="1.1">
	<path d="M 54.442 42.094 C 54.134 42.592, 53.064 43, 52.063 43 C 49.310 43, 47.771 45.523, 47.326 50.766 C 46.747 57.592, 47.558 60, 50.436 60 C 51.754 60, 53.100 59.438, 53.425 58.750 C 53.751 58.063, 53.809 59.872, 53.553 62.771 C 52.951 69.615, 51.304 72.884, 47 75.781 C 41.414 79.542, 43.090 85.198, 49.327 83.633 C 52.568 82.819, 58.628 77.619, 60.458 74.081 C 64.167 66.909, 64.102 48.019, 60.354 43.850 C 58.551 41.844, 55.210 40.852, 54.442 42.094" stroke="none" fill="black" fill-rule="evenodd"/>
</svg>