<svg xmlns="http://www.w3.org/2000/svg" width="300" height="300" viewBox="0 0 300 300" version="1.1">
	<path d="M 44.196 46.298 C 42.438 48.111, 41 50.486, 41 51.575 C 41 54.980, 43.847 58, 47.057 58 C 50.319 58, 50.535 58.719, 48.836 63.929 C 44.946 75.856, 43.501 79.197, 41.849 80.081 C 39.082 81.562, 39.470 85.801, 42.500 87.182 C 48.979 90.134, 53.986 82.262, 59.464 60.509 C 62.684 47.725, 60.527 43, 51.474 43 C 48.170 43, 46.783 43.628, 44.196 46.298 M 78.263 44.116 C 75.131 45.020, 72 49.109, 72 52.295 C 72 54.707, 75.322 56.796, 80.338 57.538 L 85.175 58.253 84.502 61.877 C 83.361 68.014, 80.232 75.963, 76.934 81.103 C 74.605 84.732, 73.953 86.675, 74.427 88.565 C 74.971 90.733, 75.553 91.074, 78.251 90.811 C 80.717 90.570, 82.297 89.374, 85.270 85.500 C 91.055 77.962, 92.865 73.870, 93.741 66.345 C 95.874 48.025, 90.659 40.535, 78.263 44.116" stroke="none" fill="black" fill-rule="evenodd"/>
</svg>