<svg xmlns="http://www.w3.org/2000/svg" width="300" height="300" viewBox="0 0 300 300" version="1.1">
	<path d="M 215.500 71.068 C 208.900 72.132, 201.334 73.287, 198.686 73.635 C 192.769 74.412, 190.024 77.563, 191.824 81.513 C 193.338 84.836, 196.895 85.490, 205.342 83.999 C 215.185 82.261, 224.421 81.087, 224.853 81.519 C 225.050 81.717, 224.377 84.043, 223.356 86.689 C 221.660 91.086, 221.521 94.428, 221.740 125.500 C 221.871 144.200, 222.436 163.550, 222.995 168.500 C 223.554 173.450, 224.467 182.450, 225.025 188.500 C 226.961 209.499, 227.886 216.158, 229.062 217.575 C 230.667 219.509, 235.631 219.403, 236.393 217.418 C 237.436 214.699, 237.091 201.142, 235.555 184.500 C 232.151 147.634, 230.980 101.634, 233.125 89.082 C 234.643 80.203, 235.389 79, 239.380 79 C 242.558 79, 246 76.570, 246 74.326 C 246 69.545, 233.339 68.192, 215.500 71.068 M 172.526 72.950 C 171.687 74.573, 171 76.831, 171 77.969 C 171 79.106, 170.047 83.516, 168.882 87.768 C 166.435 96.699, 163.627 108.082, 161.056 119.500 C 160.065 123.900, 158.767 129.300, 158.171 131.500 C 157.121 135.376, 153.810 149.340, 152.007 157.500 C 150.572 163.995, 150.149 165.695, 145.519 183.596 C 143.087 193, 140.669 201.775, 140.145 203.096 C 139.622 204.418, 137.952 209.499, 136.434 214.387 L 133.675 223.274 131.437 218.871 C 128.414 212.923, 122.739 193.053, 118.050 172 C 116.887 166.775, 115.534 160.700, 115.046 158.500 C 114.557 156.300, 113.420 151.350, 112.519 147.500 C 111.618 143.650, 110.477 138.700, 109.984 136.500 C 106.923 122.844, 105.441 117.852, 100.886 105.864 C 98.094 98.514, 95.581 91.523, 95.303 90.329 C 95.025 89.135, 93.697 87.125, 92.354 85.862 C 90.439 84.063, 89.541 83.798, 88.205 84.634 C 85.594 86.269, 85.646 90.165, 88.358 96.106 C 92.221 104.566, 95.865 115.580, 98.580 127 C 99.953 132.775, 101.712 139.975, 102.490 143 C 103.268 146.025, 105.104 154.350, 106.571 161.500 C 114.341 199.389, 121.513 223.891, 126.603 229.941 C 131.156 235.351, 138.160 234.713, 141.975 228.541 C 147.045 220.337, 156.171 188.773, 167.575 140 C 169.054 133.675, 172.680 118.905, 175.632 107.178 C 181.211 85.017, 182.302 75.299, 179.608 71.750 C 177.542 69.028, 174.267 69.583, 172.526 72.950 M 231 225.041 C 224.675 225.424, 213.374 225.796, 205.888 225.868 C 192.353 225.999, 192.253 226.017, 188.500 229 C 186.424 230.650, 184.337 232, 183.862 232 C 182.542 232, 182.838 235.627, 184.250 236.746 C 185.064 237.391, 192.477 237.435, 205.500 236.873 C 216.500 236.399, 234.950 235.761, 246.500 235.456 C 271.770 234.788, 272 234.752, 272 231.410 C 272 224.502, 263.008 223.105, 231 225.041" stroke="none" fill="black" fill-rule="evenodd"/>
</svg>