<svg xmlns="http://www.w3.org/2000/svg" width="300" height="300" viewBox="0 0 300 300" version="1.1">
	<path d="M 128.333 80.615 C 126.803 82.950, 126.775 83.513, 128.078 85.865 C 128.880 87.314, 130.969 89.134, 132.720 89.910 C 134.486 90.692, 136.036 92.201, 136.201 93.301 C 136.720 96.744, 140.528 97.268, 143.973 94.369 C 149.595 89.638, 146.826 83.575, 137.440 80.063 C 130.489 77.463, 130.395 77.468, 128.333 80.615 M 82.536 164.960 C 80.006 167.756, 81.182 171.206, 85.211 172.807 C 87.020 173.526, 90.872 175.213, 93.772 176.557 C 99.648 179.280, 102.026 179.574, 103.800 177.800 C 106.970 174.630, 103.679 170.817, 93.283 165.612 C 87.042 162.487, 84.892 162.357, 82.536 164.960 M 185.193 165.782 C 183.925 165.987, 182.391 167.242, 181.785 168.573 C 180.477 171.443, 182.160 173.773, 188.410 177.743 C 190.561 179.110, 193.413 181.526, 194.749 183.114 C 198.956 188.113, 203.791 186.031, 202.609 179.729 C 201.948 176.207, 198.370 171.754, 193.500 168.395 C 189.777 165.827, 188.132 165.309, 185.193 165.782" stroke="none" fill="black" fill-rule="evenodd"/>
</svg>