<svg xmlns="http://www.w3.org/2000/svg" width="300" height="300" viewBox="0 0 300 300" version="1.1">
	<path d="M 138.329 28.482 C 136.400 29.833, 136.339 31.397, 136.007 88.185 C 135.819 120.258, 135.628 149.329, 135.582 152.787 C 135.523 157.357, 135.910 159.334, 137 160.022 C 139.213 161.420, 146.698 161.201, 149.800 159.648 C 155.949 156.569, 183.868 154.258, 224.292 153.482 C 238.030 153.218, 248.911 152.583, 250.042 151.978 C 252.799 150.502, 252.644 145.565, 249.777 143.557 C 244.446 139.822, 179.206 142.498, 149.086 147.687 L 145.673 148.275 146.563 121.888 C 147.052 107.374, 147.463 89.200, 147.476 81.500 C 147.508 62.830, 145.957 32.927, 144.845 30.773 C 143.360 27.894, 140.569 26.913, 138.329 28.482 M 187.500 113.094 C 169.900 113.507, 154.150 114.247, 152.500 114.737 C 150.716 115.268, 148.937 116.790, 148.110 118.492 C 146.821 121.148, 146.894 121.496, 149.110 123.305 C 151.413 125.183, 152.955 125.237, 191.432 124.782 C 218.041 124.468, 232.293 124.662, 234.148 125.362 C 236.532 126.262, 237.296 126.071, 239.466 124.032 C 242.845 120.857, 242.804 116.778, 239.365 114.073 C 236.401 111.741, 241.222 111.832, 187.500 113.094" stroke="none" fill="black" fill-rule="evenodd"/>
</svg>