<svg xmlns="http://www.w3.org/2000/svg" width="300" height="300" viewBox="0 0 300 300" version="1.1">
	<path d="M 38.711 11.767 C 37.770 12.807, 37 14.129, 37 14.706 C 37 15.283, 36.325 16.315, 35.500 17 C 33.922 18.309, 33.474 22.141, 34.750 23.417 C 35.163 23.830, 35.346 43.142, 35.158 66.334 C 34.970 89.525, 35.354 122.197, 36.012 138.937 C 37.099 166.587, 37.062 169.482, 35.604 170.547 C 33.324 172.215, 33.618 175.969, 36.346 180.018 C 37.861 182.268, 38.953 185.800, 39.430 190 C 39.836 193.575, 40.564 199.875, 41.047 204 C 42.822 219.150, 43.275 226, 42.500 226 C 42.064 226, 39.543 223.975, 36.897 221.500 C 31.483 216.436, 30.531 216.140, 28.980 219.038 C 27.287 222.202, 28.514 224.277, 36.029 230.956 L 43 237.151 43 248.710 C 43 255.068, 42.484 263.067, 41.854 266.487 C 39.997 276.565, 42.395 281.810, 47.909 279.728 C 50.063 278.915, 53.312 278.929, 60.170 279.782 C 65.301 280.420, 73.714 281.218, 78.864 281.555 C 85.481 281.988, 89.148 282.729, 91.364 284.080 C 95.135 286.380, 98.312 286.534, 100 284.500 C 101 283.295, 104.046 283, 115.479 283 C 129.120 283, 140.754 282.333, 169.795 279.885 C 177.108 279.268, 196.458 278.705, 212.795 278.632 C 244.379 278.492, 247.994 277.984, 248.845 273.566 C 249.048 272.510, 250.179 270.867, 251.357 269.914 C 253.325 268.323, 253.530 267.048, 253.862 254.341 C 254.249 239.574, 252.607 199.037, 250.953 182.500 C 250.023 173.207, 249.537 168.568, 246.970 144.500 C 243.811 114.867, 242.836 100.101, 242.119 71 C 241.679 53.125, 241.515 36.866, 241.755 34.868 C 241.995 32.871, 241.772 30.977, 241.259 30.660 C 239.532 29.593, 236.085 33.029, 235.442 36.460 C 234.636 40.754, 233.408 40.307, 228.568 33.960 C 224.429 28.534, 223.110 27.994, 221.253 30.967 C 220.351 32.411, 220.304 33.669, 221.074 35.696 C 221.652 37.215, 221.912 38.242, 221.652 37.979 C 220.950 37.267, 214 27.093, 213.998 26.774 C 213.998 26.623, 220.185 26.765, 227.748 27.089 C 235.312 27.412, 241.895 27.333, 242.377 26.912 C 243.869 25.609, 242.100 21.111, 239.398 19.341 C 237.385 18.022, 233.104 17.487, 219.664 16.874 C 210.224 16.444, 198.675 15.638, 194 15.084 C 173.799 12.687, 162.644 12.009, 132 11.314 C 97.130 10.523, 57.634 10.358, 49.500 10.970 C 46.750 11.177, 43.582 11.016, 42.461 10.612 C 41.046 10.102, 39.897 10.456, 38.711 11.767 M 60 17.741 C 60 19.410, 77.853 54.653, 86.219 69.500 C 98.437 91.182, 118.434 125.931, 125.526 137.805 C 128.362 142.551, 162.343 193.565, 170.954 206 C 174.953 211.775, 180.713 220.325, 183.754 225 C 186.796 229.675, 191.451 236.742, 194.099 240.704 C 196.746 244.667, 199.871 249.787, 201.042 252.083 C 202.936 255.795, 203.005 256.423, 201.670 257.758 C 198.485 260.944, 195.821 258.511, 185.256 242.766 C 179.622 234.370, 172.080 223.225, 168.495 218 C 142.599 180.258, 125.740 154.575, 116.966 139.500 C 116.005 137.850, 112.764 132.450, 109.763 127.500 C 104.243 118.395, 102.256 114.941, 94.226 100.500 C 91.780 96.100, 89.441 92.050, 89.029 91.500 C 88.617 90.950, 86.351 86.900, 83.993 82.500 C 81.634 78.100, 77.157 69.775, 74.043 64 C 70.929 58.225, 65.732 48.105, 62.494 41.511 C 57.425 31.187, 56.600 28.716, 56.554 23.721 L 56.500 17.921 52.500 18.533 C 46.144 19.507, 45.252 19.931, 44.622 22.283 C 44.295 23.502, 44.021 33.614, 44.014 44.753 L 44 65.005 47.972 68.594 C 50.157 70.568, 56.235 78.554, 61.477 86.342 C 66.720 94.129, 74.347 105.225, 78.425 111 C 82.503 116.775, 89.851 127.350, 94.752 134.500 C 133.267 190.685, 149.167 211.474, 172.673 236.383 C 177.803 241.819, 182 246.792, 182 247.433 C 182 249.206, 179.829 251, 177.685 251 C 171.656 251, 139.026 212.599, 113.500 175.464 C 110.750 171.464, 106.665 165.560, 104.421 162.345 C 102.178 159.130, 95.155 148.850, 88.815 139.500 C 82.475 130.150, 74.328 118.225, 70.712 113 C 67.096 107.775, 59.719 97.023, 54.319 89.107 L 44.500 74.715 44.226 98.607 C 43.959 121.891, 46.225 173.817, 47.742 179.178 C 48.159 180.651, 49.400 182.907, 50.500 184.191 C 51.600 185.475, 54.961 190.119, 57.969 194.513 C 60.977 198.906, 65.027 204.549, 66.969 207.053 C 73.098 214.958, 80.431 224.173, 82.345 226.376 C 83.360 227.544, 85.835 230.498, 87.845 232.941 C 93.638 239.979, 115.484 264.031, 120.820 269.244 L 125.675 273.989 142.087 272.964 C 151.114 272.400, 165.250 271.274, 173.500 270.462 C 182.579 269.569, 199.046 268.989, 215.219 268.993 C 237.914 268.999, 241.855 268.786, 241.391 267.577 C 241.091 266.795, 241.668 265.332, 242.673 264.327 C 244.398 262.602, 244.460 260.679, 243.789 230 C 243.398 212.125, 242.381 190.300, 241.529 181.500 C 238.650 151.759, 237.931 144.524, 237.011 136 C 236.507 131.325, 235.831 122.775, 235.509 117 C 234.747 103.315, 234.365 101.637, 231.749 100.474 C 230.496 99.917, 229.287 98.215, 228.923 96.500 C 228.337 93.730, 222.021 79.713, 210.619 55.878 C 208.088 50.586, 204.054 43.386, 201.657 39.878 C 195.999 31.601, 193.733 27.137, 194.361 25.502 C 194.938 23.998, 195.181 24.030, 165 21.661 C 153.725 20.775, 130.325 19.522, 113 18.876 C 95.675 18.230, 76.662 17.516, 70.750 17.288 C 64.838 17.061, 60 17.265, 60 17.741 M 205.061 28.750 C 206.386 30.262, 207.758 31.871, 208.109 32.324 C 208.460 32.777, 208.244 31.540, 207.629 29.574 C 206.854 27.097, 205.919 26, 204.581 26 C 202.791 26, 202.826 26.199, 205.061 28.750 M 140.386 28.437 C 139.174 31.596, 141.276 37.440, 149.333 53.310 C 157.152 68.710, 167.063 89.170, 176.794 110 C 179.236 115.225, 186.987 131.200, 194.019 145.500 C 206.188 170.245, 210.047 177.445, 223.495 200.500 C 226.703 206, 229.963 211.740, 230.740 213.255 C 233.494 218.631, 239 219.177, 239 214.076 C 239 212.567, 235.067 204.081, 230.127 194.933 C 225.247 185.895, 218.482 173.325, 215.094 167 C 206.594 151.132, 191.445 120.358, 171.775 79 C 157.407 48.792, 145.659 27.575, 143.081 27.180 C 141.872 26.995, 140.736 27.525, 140.386 28.437 M 81.667 28.667 C 80.181 30.152, 81.178 33.196, 84.313 36.747 C 89.438 42.554, 101.619 62.687, 111.994 82.500 C 114.874 88, 118.698 95.200, 120.492 98.500 C 122.286 101.800, 125.443 107.650, 127.507 111.500 C 131.764 119.438, 145.407 143.964, 148.090 148.500 C 149.066 150.150, 151.025 153.639, 152.444 156.254 C 153.863 158.869, 158.618 166.919, 163.012 174.142 C 167.405 181.366, 171 187.389, 171 187.527 C 171 187.665, 173.363 191.403, 176.250 195.833 C 179.137 200.264, 183.717 207.401, 186.428 211.694 C 192.362 221.094, 203.461 237.797, 207.897 244 C 209.666 246.475, 212.035 249.966, 213.160 251.757 C 215.541 255.547, 219.468 256.960, 221.626 254.803 C 223.579 252.850, 222.838 251.255, 212.889 236 C 208.405 229.125, 202.935 220.575, 200.733 217 C 198.531 213.425, 194.656 207.350, 192.122 203.500 C 189.587 199.650, 187.061 195.745, 186.507 194.823 C 184.989 192.294, 170.718 169.156, 169 166.437 C 166.493 162.470, 154.904 143.012, 149.835 134.258 C 144.747 125.472, 130.754 99.985, 121.969 83.500 C 119.037 78, 115.370 71.343, 113.820 68.706 C 112.269 66.069, 111 63.716, 111 63.475 C 111 63.032, 107.335 57.115, 99.245 44.500 C 91.775 32.850, 84.256 26.078, 81.667 28.667 M 121.309 36.636 C 120.964 37.536, 121.204 38.998, 121.843 39.886 C 122.482 40.774, 123.443 42.514, 123.979 43.753 C 126.819 50.324, 130.834 58.635, 149.364 96.303 C 169.149 136.523, 181.102 159.138, 191.071 175.211 C 193.782 179.582, 196 183.335, 196 183.552 C 196 183.768, 198.628 187.895, 201.840 192.723 C 207.840 201.739, 221.266 222.354, 224.327 227.250 C 226.435 230.622, 230.542 231.018, 231.518 227.943 C 232.256 225.617, 229.689 220.868, 209.117 186.500 C 201.874 174.400, 195.536 163.825, 195.032 163 C 192.666 159.122, 183.928 143.922, 181.235 139 C 169.939 118.353, 166.430 111.624, 159.072 96.500 C 154.524 87.150, 146.797 71.466, 141.901 61.646 C 137.005 51.826, 133 43.210, 133 42.499 C 133 40.588, 126.245 35, 123.934 35 C 122.836 35, 121.655 35.736, 121.309 36.636 M 179.011 38.487 C 178.332 39.305, 178.048 40.684, 178.381 41.550 C 178.830 42.721, 178.182 42.554, 175.861 40.901 C 173.529 39.240, 172.326 38.933, 171.118 39.689 C 168.271 41.471, 168.745 45.215, 172.551 51 C 176.330 56.744, 184.066 71.807, 189.036 83.100 C 190.634 86.730, 195.329 96.768, 199.470 105.406 C 203.612 114.043, 207 121.269, 207 121.463 C 207 121.657, 209.041 126.182, 211.535 131.520 C 214.029 136.857, 217.230 143.987, 218.650 147.362 C 220.069 150.738, 222.528 156.075, 224.115 159.221 C 225.702 162.368, 227 166.297, 227 167.952 C 227 170.333, 227.525 171.094, 229.513 171.593 C 233.403 172.569, 235.306 170.360, 234.729 165.539 C 234.259 161.609, 223.218 134.121, 215.232 117 C 213.052 112.325, 210.089 105.914, 208.649 102.753 C 207.208 99.592, 204.418 93.517, 202.448 89.253 C 200.478 84.989, 198.478 80.600, 198.003 79.500 C 197.528 78.400, 195.646 74.350, 193.820 70.500 C 189.703 61.819, 189.396 60.965, 191.340 63.589 C 193.211 66.115, 207.185 93.554, 211.919 104 C 220.464 122.851, 224.859 131.795, 225.895 132.435 C 228.057 133.771, 231 131.973, 231 129.316 C 231 123.643, 209.768 76.535, 196.442 52.641 C 189.319 39.868, 182.476 34.312, 179.011 38.487 M 183.564 51.293 C 183.940 52.279, 184.499 52.834, 184.807 52.526 C 185.115 52.219, 184.808 51.412, 184.124 50.733 C 183.136 49.753, 183.022 49.868, 183.564 51.293 M 221.839 57.500 C 222.930 60.250, 226.096 67.225, 228.875 73 L 233.929 83.500 233.964 78.710 C 234.004 73.322, 231.886 68.521, 225.720 60.023 C 220.008 52.151, 219.618 51.898, 221.839 57.500 M 48.321 122.606 C 47.455 124.864, 57.052 143.790, 66.641 158.735 C 68.489 161.614, 70 164.176, 70 164.428 C 70 164.680, 73.938 170.491, 78.750 177.340 C 87.248 189.435, 92.401 195.969, 104.900 210.500 C 113.986 221.063, 134.463 246.251, 136.534 249.412 C 137.538 250.944, 139.291 252.550, 140.430 252.981 C 142.839 253.892, 146 252.532, 146 250.584 C 146 248.021, 126.728 222.207, 114.790 208.778 C 94.627 186.099, 82.197 168.585, 61.506 133.699 C 55.902 124.250, 53.020 121, 50.246 121 C 49.526 121, 48.660 121.723, 48.321 122.606 M 55 156.522 C 55 162.171, 61.934 174.447, 75.435 192.698 C 88.621 210.523, 93.271 216.697, 119 250.540 C 128.636 263.215, 132.614 267.200, 135.239 266.808 C 139.771 266.130, 140.122 258.937, 135.722 256.906 C 134.500 256.342, 131.025 252.503, 128 248.374 C 124.975 244.245, 122.026 240.335, 121.447 239.684 C 120.868 239.033, 117.718 234.900, 114.447 230.500 C 111.176 226.100, 108.050 221.992, 107.500 221.370 C 106.277 219.988, 96.214 206.716, 83.781 190.086 C 78.677 183.258, 72.093 174.483, 69.152 170.586 C 66.211 166.689, 62.716 161.363, 61.385 158.750 C 58.617 153.314, 55 152.052, 55 156.522 M 50.591 204.500 C 50.917 208.350, 51.589 214.200, 52.084 217.500 C 52.580 220.800, 52.988 226.370, 52.992 229.877 L 53 236.254 71.893 255.127 L 90.786 274 102.393 274 C 108.777 274, 114 273.878, 114 273.730 C 114 273.581, 108.658 268.005, 102.129 261.338 C 95.600 254.672, 87.780 246.131, 84.751 242.359 C 81.722 238.586, 78.234 234.375, 77.001 233 C 75.768 231.625, 73.020 228.250, 70.896 225.500 C 62.890 215.136, 57.038 207.401, 55.007 204.500 C 49.664 196.867, 49.946 196.867, 50.591 204.500 M 52.627 257.336 C 52.265 262.376, 51.705 267.492, 51.380 268.705 C 50.645 271.453, 51.767 271.727, 66.250 272.334 L 77 272.785 66.250 261 C 60.338 254.518, 55.001 248.980, 54.392 248.693 C 53.646 248.342, 53.068 251.172, 52.627 257.336" stroke="none" fill="black" fill-rule="evenodd"/>
</svg>