<svg xmlns="http://www.w3.org/2000/svg" width="300" height="300" viewBox="0 0 300 300" version="1.1">
	<path d="M 253.919 42.712 C 251.960 44.795, 249.096 48.075, 247.554 50 C 243.040 55.636, 209.329 90.588, 169.500 130.930 C 127.355 173.617, 124.156 176.894, 118.080 183.613 C 115.649 186.301, 109.574 192.792, 104.580 198.037 C 99.586 203.282, 91.900 211.399, 87.500 216.075 C 49.160 256.814, 48.012 258.197, 48.004 263.643 C 47.999 267.268, 50.347 268.750, 52.243 266.319 C 52.934 265.432, 57.794 260.160, 63.043 254.603 C 68.292 249.046, 79.092 237.530, 87.043 229.012 C 94.994 220.494, 104.200 210.803, 107.500 207.476 C 110.800 204.149, 120.691 193.794, 129.480 184.464 C 138.270 175.134, 167.550 145.225, 194.548 118 C 258.192 53.821, 265.256 45.819, 262.359 41.196 C 260.488 38.211, 257.676 38.716, 253.919 42.712" stroke="none" fill="black" fill-rule="evenodd"/>
</svg>