<svg xmlns="http://www.w3.org/2000/svg" width="300" height="300" viewBox="0 0 300 300" version="1.1">
	<path d="M 212.500 168.067 C 188.711 169.570, 177.994 170.863, 176.441 172.416 C 173.107 175.751, 176.374 182.222, 180.578 180.608 C 181.630 180.205, 182 180.921, 182 183.365 C 182 185.181, 182.430 189.104, 182.957 192.083 C 185.983 209.222, 186.998 219.929, 187.614 241.216 C 188.142 259.443, 188.014 265.278, 187.062 266.425 C 185.450 268.367, 186.521 273.256, 189.061 275.555 C 190.644 276.988, 191.463 277.110, 193.444 276.208 C 198.330 273.981, 198.926 265.608, 196.484 233.500 C 194.187 203.309, 191.838 182.164, 190.547 180.077 C 190.181 179.485, 190.021 178.971, 190.191 178.935 C 190.361 178.900, 200.400 178.276, 212.500 177.550 C 240.267 175.884, 256.398 176.696, 258.623 179.872 C 259.443 181.042, 260.693 182, 261.402 182 C 263.603 182, 266 178.487, 266 175.260 C 266 172.573, 265.392 171.884, 261.250 169.878 C 257.016 167.827, 254.872 167.556, 241.500 167.380 C 233.250 167.272, 220.200 167.581, 212.500 168.067" stroke="none" fill="black" fill-rule="evenodd"/>
</svg>