<svg xmlns="http://www.w3.org/2000/svg" width="300" height="300" viewBox="0 0 300 300" version="1.1">
	<path d="M 195 150.970 C 188.675 151.399, 175.850 152.257, 166.500 152.879 C 157.150 153.500, 148.375 154.271, 147 154.593 C 145.625 154.915, 121.233 155.499, 92.797 155.892 C 44.039 156.565, 40.974 156.713, 39.003 158.498 C 37.853 159.538, 37.044 161.314, 37.206 162.445 C 37.498 164.489, 37.785 164.500, 90.500 164.493 C 123.708 164.489, 149.288 164.022, 159 163.243 C 193.914 160.443, 220.832 159.646, 239.638 160.856 C 249.614 161.498, 258.502 161.745, 259.388 161.405 C 261.255 160.688, 261.601 155.490, 259.854 154.410 C 254.759 151.261, 218.836 149.356, 195 150.970" stroke="none" fill="black" fill-rule="evenodd"/>
</svg>