<svg xmlns="http://www.w3.org/2000/svg" width="300" height="300" viewBox="0 0 300 300" version="1.1">
	<path d="M 115.596 25.894 C 114.039 27.615, 113.817 32.950, 113.168 84.334 C 112.775 115.434, 112.209 141.124, 111.910 141.423 C 111.069 142.264, 93.570 143.810, 71 145.037 C 37.204 146.874, 30.988 148.115, 29.634 153.291 C 28.544 157.458, 30.950 158.399, 39.460 157.134 C 43.652 156.510, 51.901 155.986, 57.791 155.969 C 70.400 155.933, 107.801 153.499, 110.076 152.566 C 111.469 151.995, 111.611 153.239, 111.297 163.210 C 111.101 169.419, 110.776 176.075, 110.575 178 C 110.374 179.925, 110.662 203.478, 111.215 230.340 C 111.949 266.010, 111.921 279.479, 111.110 280.290 C 109.443 281.957, 109.772 285.497, 111.831 288.040 C 114.079 290.816, 118.298 290.157, 120.165 286.738 C 121.100 285.027, 121.513 257.190, 121.920 168.500 C 122.519 37.688, 122.443 27.238, 120.868 25.341 C 119.327 23.485, 117.614 23.664, 115.596 25.894 M 142.631 27.512 C 141.199 28.944, 140.283 33.833, 140.197 40.500 C 140.176 42.150, 139.672 50.925, 139.077 60 C 136.787 94.924, 135.915 152.151, 137.178 184.500 C 138.169 209.869, 138.668 257.717, 138.075 270.380 C 137.761 277.069, 144.400 280.543, 148.595 275.884 C 150.379 273.903, 150.480 272.198, 150.188 249.134 C 150.017 235.585, 149.422 217.750, 148.867 209.500 C 148.311 201.250, 147.613 185.467, 147.316 174.427 L 146.777 154.353 156.892 153.014 C 164.659 151.986, 175.752 151.829, 204.675 152.338 C 238.900 152.940, 242.509 152.849, 244.171 151.345 C 246.480 149.255, 246.496 146.834, 244.218 144.021 C 242.466 141.857, 241.890 141.811, 210.468 141.288 C 181.339 140.804, 162.598 141.545, 150.250 143.668 L 147 144.227 147.022 127.363 C 147.034 118.089, 147.463 101.275, 147.976 90 C 149.617 53.889, 149.674 29.517, 148.121 27.646 C 146.420 25.596, 144.592 25.551, 142.631 27.512" stroke="none" fill="black" fill-rule="evenodd"/>
</svg>