<svg xmlns="http://www.w3.org/2000/svg" width="300" height="300" viewBox="0 0 300 300" version="1.1">
	<path d="M 131.728 60.416 C 126.771 62.566, 125.699 65.355, 124.803 78.433 C 123.263 100.925, 122.659 154.494, 123.918 156.848 C 125.308 159.444, 128.581 159.666, 129.847 157.250 C 130.351 156.287, 130.997 140.425, 131.283 122 C 131.870 84.089, 133.366 66.523, 135.920 67.555 C 136.789 67.905, 142 69.326, 147.500 70.711 C 156.650 73.015, 158.817 73.188, 173 72.744 C 183.751 72.407, 189.619 71.788, 192.154 70.721 C 196.343 68.957, 197.983 65.554, 195.729 63.301 C 194.458 62.029, 193.161 62.001, 186.377 63.095 C 182.044 63.793, 172.650 64.392, 165.500 64.425 C 154.847 64.473, 151.326 64.101, 146 62.362 C 136.678 59.320, 134.835 59.068, 131.728 60.416" stroke="none" fill="black" fill-rule="evenodd"/>
</svg>