<svg xmlns="http://www.w3.org/2000/svg" width="300" height="300" viewBox="0 0 300 300" version="1.1">
	<path d="M 182.523 35.974 C 178.596 40.314, 184.768 54.287, 195.585 65.544 C 201.204 71.392, 202.416 71.766, 204.684 68.350 C 205.908 66.505, 205.522 65.550, 200.658 58.405 C 197.698 54.057, 193.814 47.575, 192.026 44 C 188.788 37.524, 186.311 34, 185 34 C 184.620 34, 183.506 34.889, 182.523 35.974 M 197.960 36.075 C 194.923 41.749, 201.337 55.344, 211.565 64.912 C 217.193 70.177, 218.669 71.066, 221.347 70.806 C 226.491 70.307, 226.125 66.884, 220.264 60.680 C 217.572 57.831, 214.070 53.250, 212.481 50.500 C 207.176 41.318, 201.839 34, 200.447 34 C 199.690 34, 198.571 34.934, 197.960 36.075" stroke="none" fill="black" fill-rule="evenodd"/>
</svg>