<svg xmlns="http://www.w3.org/2000/svg" width="300" height="300" viewBox="0 0 300 300" version="1.1">
	<path d="M 137.200 130.200 C 135.723 131.677, 135.581 152.930, 136.935 169.828 C 137.449 176.248, 138.386 188.700, 139.016 197.500 C 139.646 206.300, 140.800 218.656, 141.581 224.958 C 142.361 231.261, 143 236.842, 143 237.362 C 143 237.951, 136.694 237.990, 126.250 237.464 C 117.037 237.001, 104.851 236.594, 99.168 236.561 C 90.053 236.507, 88.669 236.729, 87.418 238.441 C 85.793 240.665, 85.671 241.933, 86.896 243.866 C 88.347 246.156, 105.300 248.062, 126.220 248.288 L 145.940 248.500 148.720 245.716 C 151.398 243.035, 151.492 242.596, 151.279 233.716 C 151.157 228.647, 150.565 221.350, 149.962 217.500 C 148.404 207.542, 146.189 180.266, 144.139 145.798 C 143.347 132.468, 142.405 129, 139.578 129 C 138.930 129, 137.860 129.540, 137.200 130.200" stroke="none" fill="black" fill-rule="evenodd"/>
</svg>