<svg xmlns="http://www.w3.org/2000/svg" width="300" height="300" viewBox="0 0 300 300" version="1.1">
	<path d="M 202.612 58.661 C 201.175 60.097, 200 61.691, 200 62.202 C 200 63.683, 191.265 80.771, 186.164 89.270 C 183.599 93.543, 181.050 97.827, 180.500 98.789 C 179.950 99.751, 177.424 103.680, 174.886 107.519 C 172.349 111.359, 167.748 118.822, 164.663 124.105 C 161.578 129.388, 158.369 134.278, 157.533 134.972 C 156.697 135.666, 154.569 138.757, 152.805 141.841 C 147.666 150.822, 148.100 154.780, 155.947 170.547 C 159.492 177.671, 164.330 186.775, 166.697 190.779 C 169.064 194.782, 171 198.257, 171 198.500 C 171 198.743, 173.025 202.368, 175.500 206.554 C 177.975 210.740, 180 214.329, 180 214.529 C 180 214.809, 192.593 236.116, 200.482 249.186 C 201.042 250.113, 202.955 253.356, 204.734 256.392 C 208.242 262.381, 210.971 264.462, 214.038 263.488 C 215.527 263.015, 215.993 261.978, 215.972 259.183 C 215.939 254.926, 213.994 251.270, 195.575 220.848 C 188.466 209.107, 180.623 195.675, 178.147 191 C 175.671 186.325, 172.840 181.150, 171.857 179.500 C 166.906 171.193, 159 154.500, 159 152.356 C 159 149.331, 162.115 143.111, 165.799 138.778 C 167.332 136.975, 170.105 132.575, 171.960 129 C 173.816 125.425, 178.028 118.225, 181.321 113 C 194.734 91.721, 209 64.101, 209 59.413 C 209 58.675, 208.150 57.616, 207.112 57.060 C 205.609 56.255, 204.691 56.582, 202.612 58.661 M 239.284 58.250 C 238.149 59.487, 235.898 62.975, 234.283 66 C 227.508 78.690, 220.528 90.874, 216.888 96.364 C 214.750 99.589, 213 102.542, 213 102.925 C 213 103.309, 212.213 104.518, 211.250 105.612 C 210.287 106.707, 208.851 108.704, 208.058 110.051 C 207.266 111.398, 203.726 117.450, 200.192 123.500 C 196.659 129.550, 192.950 135.850, 191.951 137.500 C 183.189 151.969, 182.048 159.226, 187.350 166.748 C 191.091 172.054, 201.494 190.285, 207.750 202.500 C 221.715 229.763, 242.311 260, 246.916 260 C 251.966 260, 252.227 254.317, 247.506 247.149 C 242.387 239.377, 237.788 232.776, 235.904 230.500 C 234.994 229.400, 232.772 225.800, 230.967 222.500 C 229.162 219.200, 226.694 214.922, 225.483 212.992 C 224.272 211.063, 222.391 207.688, 221.303 205.492 C 215.683 194.145, 200.618 167.667, 195.871 160.790 C 194.842 159.300, 194 157.247, 194 156.228 C 194 154.056, 196.915 147.724, 201.471 140 C 203.255 136.975, 206.524 131.125, 208.734 127 C 214.112 116.962, 216.816 112.374, 220.522 107 C 224.450 101.303, 232.332 87.277, 238.505 75 C 241.132 69.775, 244.181 64.504, 245.280 63.287 C 247.170 61.194, 247.189 60.937, 245.616 58.537 C 243.566 55.409, 241.958 55.336, 239.284 58.250" stroke="none" fill="black" fill-rule="evenodd"/>
</svg>