<svg xmlns="http://www.w3.org/2000/svg" width="300" height="300" viewBox="0 0 300 300" version="1.1">
	<path d="M 103.642 93.501 C 101.852 95.291, 100.030 101.642, 97.044 116.500 C 95.828 122.550, 94.162 130.200, 93.342 133.500 C 92.521 136.800, 91.996 141.525, 92.175 144 C 92.467 148.043, 92.773 148.532, 95.187 148.810 C 98.465 149.189, 100.485 146.481, 102.643 138.813 C 103.466 135.891, 104.587 131.925, 105.136 130 C 107.576 121.434, 109.782 110.557, 110.630 102.905 C 111.548 94.617, 107.702 89.440, 103.642 93.501 M 74.627 97.250 C 73.847 98.487, 72.904 102.650, 72.531 106.500 C 72.159 110.350, 71.212 117.271, 70.427 121.881 C 67.890 136.782, 68.865 144, 73.416 144 C 75.443 144, 78 140.569, 78 137.851 C 78 136.480, 78.884 131.222, 79.965 126.166 C 81.045 121.109, 82.439 113.142, 83.062 108.459 C 84.050 101.032, 83.988 99.631, 82.574 97.473 C 80.502 94.311, 76.551 94.200, 74.627 97.250" stroke="none" fill="black" fill-rule="evenodd"/>
</svg>