<svg xmlns="http://www.w3.org/2000/svg" width="300" height="300" viewBox="0 0 300 300" version="1.1">
	<path d="M 59.500 34.150 C 54.860 36.504, 48.221 50.166, 44.555 64.904 C 42.602 72.756, 43.141 75, 46.980 75 C 49.602 75, 50.033 74.432, 52.470 67.750 C 55.859 58.459, 62.110 45.153, 63.710 43.826 C 65.603 42.254, 66.431 36.224, 64.991 34.489 C 63.578 32.787, 62.337 32.710, 59.500 34.150 M 72.275 35.250 C 70.908 37.012, 68.466 45.343, 67.071 53 C 65.680 60.642, 63.326 71.031, 61.842 76.084 C 60.337 81.210, 61.018 83.442, 64.201 83.811 C 66.331 84.058, 67.208 83.499, 68.444 81.107 C 71.532 75.136, 77.245 54.345, 78.567 44.268 C 79.097 40.225, 78.878 38.463, 77.603 36.518 C 75.805 33.772, 73.793 33.294, 72.275 35.250" stroke="none" fill="black" fill-rule="evenodd"/>
</svg>