<svg xmlns="http://www.w3.org/2000/svg" width="300" height="300" viewBox="0 0 300 300" version="1.1">
	<path d="M 126.993 141.302 C 123.964 142.511, 118.462 145.220, 114.766 147.323 C 108.035 151.152, 106.013 151.352, 105.985 148.191 C 105.961 145.591, 104.501 143.870, 102.854 144.502 C 100.958 145.230, 98.943 156.597, 100.139 159.815 C 100.613 161.088, 101 163.308, 101 164.749 C 101 168.214, 104.729 178.611, 107.547 183 C 110.644 187.825, 117.922 194.667, 121.315 195.942 C 124.744 197.231, 132.033 197.321, 135.185 196.113 C 139.421 194.490, 147.142 185.921, 150.140 179.514 C 153.844 171.599, 154.631 165.119, 152.756 157.973 C 150.508 149.403, 146.756 144.260, 140.691 141.437 C 134.432 138.522, 133.967 138.518, 126.993 141.302 M 131.500 151.128 C 129.850 151.574, 124.544 153.978, 119.709 156.470 C 114.874 158.961, 110.262 161, 109.459 161 C 105.155 161, 111.987 178.453, 118.785 184.825 C 124.753 190.419, 130.020 190.380, 135.462 184.701 C 143.126 176.702, 145.786 166.966, 142.593 158.604 C 140.041 151.922, 136.754 149.706, 131.500 151.128" stroke="none" fill="black" fill-rule="evenodd"/>
</svg>