<svg xmlns="http://www.w3.org/2000/svg" width="300" height="300" viewBox="0 0 300 300" version="1.1">
	<path d="M 146 108.552 C 143.525 109.332, 137.634 109.976, 132.909 109.985 C 114.914 110.017, 100.116 118.374, 103.787 126.433 C 105.210 129.554, 107.429 129.720, 109.760 126.879 C 113.224 122.657, 121.277 120, 130.612 120 C 135.889 120, 142.168 119.234, 147.001 118 C 153.779 116.269, 158 116.133, 158 117.646 C 158 117.883, 156.450 121.548, 154.557 125.789 C 152.663 130.030, 149.168 138, 146.790 143.500 C 140.025 159.148, 141.001 158.546, 134.096 151.326 C 130.669 147.742, 127.908 143.857, 127.515 142.067 C 126.796 138.795, 123.785 136.485, 121.422 137.392 C 117.224 139.002, 122.852 154.006, 131.220 163.512 L 135.192 168.025 131.872 173.263 C 125.676 183.034, 121.989 187.760, 117.739 191.375 C 113.651 194.853, 106.576 198, 102.845 198 C 100.583 198, 97.751 202.188, 98.570 204.321 C 98.908 205.203, 100.084 206.209, 101.183 206.558 C 104.308 207.550, 116.058 204.984, 120.707 202.294 C 126.075 199.189, 134.730 189.852, 139.463 182.062 C 141.488 178.728, 143.305 176, 143.501 176 C 143.697 176, 144.452 176.593, 145.179 177.319 C 151.383 183.511, 179.203 203.550, 187.683 207.935 C 191.083 209.694, 194.400 211.778, 195.055 212.566 C 197.875 215.964, 203.211 212.541, 202.065 208.069 C 201.683 206.578, 199.134 204.101, 195.471 201.663 C 182.845 193.257, 149.897 167.893, 149.214 166.053 C 149.056 165.629, 150.744 161.642, 152.964 157.193 C 155.184 152.744, 157.003 148.743, 157.006 148.302 C 157.010 147.861, 157.635 146.306, 158.397 144.847 C 159.158 143.387, 160.339 140.462, 161.021 138.347 C 161.703 136.231, 162.575 134.050, 162.958 133.500 C 163.342 132.950, 164.467 130.250, 165.459 127.500 C 166.451 124.750, 167.654 122.073, 168.131 121.550 C 169.530 120.020, 169.131 114.632, 167.439 112.217 C 163.859 107.106, 155.256 105.635, 146 108.552" stroke="none" fill="black" fill-rule="evenodd"/>
</svg>