<svg xmlns="http://www.w3.org/2000/svg" width="300" height="300" viewBox="0 0 300 300" version="1.1">
	<path d="M 191.500 93.954 C 189.850 94.380, 185.350 95.294, 181.500 95.985 C 177.650 96.676, 169.325 98.587, 163 100.232 C 156.675 101.877, 147.540 104.229, 142.699 105.458 L 133.899 107.694 132.500 104.347 C 131.731 102.506, 130.699 101, 130.206 101 C 128.495 101, 126 104.672, 126 107.189 C 126 109.473, 125.486 109.802, 120.750 110.539 C 117.862 110.989, 113.025 111.444, 110 111.552 C 106.975 111.659, 103.713 112.077, 102.750 112.480 C 100.399 113.466, 100.519 117.672, 102.934 118.965 C 105.320 120.242, 119.370 120.328, 123.680 119.092 L 126.847 118.184 127.673 125.842 C 128.848 136.720, 128.485 166.389, 127.090 173.500 C 123.169 193.495, 119.715 202.858, 110.120 219.500 C 104.821 228.690, 104.059 232.397, 107.079 234.286 C 111.027 236.756, 116.379 230.778, 125.528 213.677 C 129.012 207.164, 133.496 194.236, 136.025 183.410 C 139.665 167.835, 139.842 137.562, 136.401 119.377 C 135.866 116.546, 136.076 116.208, 138.655 115.758 C 140.220 115.484, 146.675 113.910, 153 112.260 C 159.325 110.610, 168.775 108.284, 174 107.091 C 179.225 105.898, 186.650 104.205, 190.500 103.328 C 197.868 101.650, 201 99.776, 201 97.045 C 201 93.355, 197.827 92.322, 191.500 93.954" stroke="none" fill="black" fill-rule="evenodd"/>
</svg>