<svg xmlns="http://www.w3.org/2000/svg" width="300" height="300" viewBox="0 0 300 300" version="1.1">
	<path d="M 184.356 91.463 C 181.096 93.746, 179.534 110.531, 180.410 133.853 C 180.795 144.109, 181.360 153.518, 181.666 154.761 C 182.101 156.530, 181.877 156.890, 180.640 156.415 C 179.583 156.010, 177.458 157.450, 174.248 160.745 C 171.603 163.461, 168.327 165.925, 166.969 166.221 C 155.144 168.798, 147.703 171.792, 139 177.476 C 133.592 181.009, 129.379 182.712, 128.420 181.753 C 127.621 180.955, 125.311 162.773, 123.432 142.500 C 121.591 122.645, 119.910 116.092, 116.135 114.072 C 114.599 113.250, 113.777 113.365, 112.569 114.573 C 110.848 116.294, 110.513 118.581, 111.860 119.414 C 113.084 120.170, 113.972 127.213, 115.086 145 C 117.052 176.390, 117.599 181.439, 119.444 185.285 C 121.885 190.369, 124.514 192, 130.271 192 C 135.317 192, 138.653 190.660, 148.170 184.811 C 151.288 182.895, 158.252 180.024, 163.644 178.432 C 171.718 176.047, 174.186 174.827, 177.622 171.518 L 181.795 167.500 182.949 183.500 C 183.584 192.300, 184.530 203.627, 185.052 208.670 C 186.313 220.868, 186.254 232.346, 184.922 233.678 C 184.329 234.271, 183.991 236.049, 184.172 237.628 C 184.416 239.762, 185.105 240.586, 186.852 240.833 C 190.957 241.414, 193.703 240.130, 194.987 237.031 C 196.331 233.786, 195.999 213.912, 194.083 183 C 192.910 164.070, 191.200 131.664, 190.166 108.763 C 189.625 96.783, 189.095 92.666, 187.945 91.517 C 186.619 90.190, 186.183 90.184, 184.356 91.463" stroke="none" fill="black" fill-rule="evenodd"/>
</svg>