<svg xmlns="http://www.w3.org/2000/svg" width="300" height="300" viewBox="0 0 300 300" version="1.1">
	<path d="M 192.851 106.519 C 189.086 108.564, 167.612 109.994, 140.500 110.003 C 127.850 110.008, 114.800 110.479, 111.500 111.051 C 108.200 111.623, 101.533 112.488, 96.684 112.974 C 85.291 114.115, 79.745 117.578, 83.011 121.513 C 84.592 123.418, 91.779 123.444, 103 121.586 C 107.675 120.812, 118.475 119.926, 127 119.617 L 142.500 119.055 142.514 128.277 C 142.528 137.197, 143.916 154.419, 146.039 172 C 148.330 190.974, 148.998 198.077, 149.637 210.299 C 150.283 222.647, 150.231 223.150, 148.153 224.605 C 145.183 226.686, 145.459 230.108, 148.861 233.367 C 152.500 236.854, 156.314 236.184, 158.739 231.633 C 161.181 227.049, 161.568 210.102, 159.603 193.840 C 158.716 186.503, 157.507 176, 156.917 170.500 C 156.327 165, 155.429 157.489, 154.922 153.808 C 154.415 150.128, 154 144.413, 154 141.108 C 154 137.803, 153.583 132.939, 153.073 130.299 C 152.563 127.660, 151.911 124.096, 151.624 122.381 L 151.102 119.262 169.801 118.546 C 184.543 117.981, 189.382 117.444, 192.666 116.009 C 197.947 113.699, 200.596 109.982, 199.036 107.067 C 197.745 104.655, 196.487 104.544, 192.851 106.519" stroke="none" fill="black" fill-rule="evenodd"/>
</svg>