<svg xmlns="http://www.w3.org/2000/svg" width="300" height="300" viewBox="0 0 300 300" version="1.1">
	<path d="M 107.303 49.250 C 106.178 50.487, 105.019 53.401, 104.727 55.724 C 103.668 64.169, 96.523 76.254, 83.263 92.029 C 82.583 92.838, 79.976 95.971, 77.470 98.991 C 74.964 102.011, 71.709 105.161, 70.237 105.991 C 66.413 108.147, 65.358 109.270, 64.549 112.047 C 64.155 113.396, 52.703 125.525, 39.099 139 C 12.542 165.305, 9 169.326, 9 173.170 C 9 176.663, 13.364 180.603, 15.910 179.410 C 16.978 178.909, 30.214 166.463, 45.323 151.750 L 72.793 125 74.131 133.750 C 75.845 144.963, 75.621 169.238, 73.585 192.983 C 71.729 214.622, 71.538 234.281, 73.122 240.571 C 74.268 245.120, 78.693 250, 81.672 250 C 85.789 250, 94 240.198, 94 235.285 C 94 232.239, 91.493 230.651, 87.838 231.382 L 84.682 232.014 85.591 210.757 C 86.091 199.066, 86.500 176, 86.500 159.500 C 86.500 131.291, 86.365 129.033, 84.234 121.679 L 81.967 113.858 86.343 108.679 C 99.623 92.963, 112.544 72.383, 116.363 60.862 C 119.583 51.147, 113.115 42.858, 107.303 49.250 M 217.815 74.906 C 211.389 77.022, 202.839 79.509, 198.815 80.434 C 194.792 81.359, 187.450 83.044, 182.500 84.178 C 177.550 85.313, 171.248 86.869, 168.496 87.636 C 165.744 88.404, 159.894 89.442, 155.496 89.944 C 142.981 91.373, 138 93.951, 138 99 C 138 102.261, 140.789 105.006, 144.079 104.984 C 145.410 104.974, 151.113 104.131, 156.750 103.109 L 167 101.251 166.969 103.876 C 166.930 107.161, 165.401 119.033, 163.923 127.518 L 162.802 133.960 158.250 130.828 C 152.416 126.814, 142.759 123.767, 138.440 124.577 C 134.253 125.363, 130.796 128.571, 131.193 131.303 C 131.415 132.838, 132.685 133.762, 135.807 134.663 C 139.902 135.845, 148.492 141.429, 155.904 147.728 L 159.308 150.621 157.613 159.060 C 154.624 173.944, 142.239 201.854, 136.198 207.321 C 134.255 209.080, 134.060 209.071, 130.109 207.055 L 126.027 204.973 124.013 206.987 C 121.434 209.566, 121.480 210.930, 124.283 215.102 C 125.728 217.254, 128.070 219.024, 130.668 219.930 C 134.326 221.204, 135.251 221.176, 139.201 219.667 C 141.638 218.737, 145.066 216.496, 146.819 214.687 C 152.759 208.558, 160.724 192.462, 166.211 175.500 C 169.057 166.700, 171.457 159.379, 171.544 159.232 C 171.631 159.085, 173.007 159.645, 174.601 160.476 C 176.337 161.381, 180.174 161.990, 184.161 161.994 C 190.343 162, 191.004 161.784, 193.355 158.989 C 195.510 156.429, 195.740 155.552, 194.895 153.127 C 193.564 149.310, 190.086 147.764, 186.162 149.245 C 183.518 150.243, 182.672 150.049, 178.964 147.595 C 175.038 144.997, 174.797 144.573, 175.302 141.157 C 175.599 139.146, 176.778 131.286, 177.922 123.692 C 179.065 116.097, 180.113 107.264, 180.251 104.063 L 180.500 98.243 200 93.022 C 210.725 90.150, 221.075 87.430, 223 86.978 C 224.925 86.525, 227.512 85.843, 228.750 85.461 L 231 84.767 230.980 132.133 C 230.953 198.609, 228.606 220.411, 220.682 227.836 C 218.663 229.727, 217.809 229.968, 216.192 229.103 C 214.156 228.013, 210.005 220.532, 209.994 217.934 C 209.981 214.418, 207.739 208.931, 205.918 207.956 C 200.800 205.217, 196.363 211.138, 197.441 219.268 C 199.009 231.089, 203.216 238.167, 211.285 242.558 C 218.786 246.641, 225.520 244.761, 232.729 236.571 C 237.318 231.357, 239.862 223.677, 242.689 206.500 C 244.300 196.717, 244.485 189.216, 244.365 138.696 C 244.247 88.658, 244.035 81.380, 242.589 77.595 C 239.614 69.803, 234.877 69.289, 217.815 74.906" stroke="none" fill="black" fill-rule="evenodd"/>
</svg>