<svg xmlns="http://www.w3.org/2000/svg" width="300" height="300" viewBox="0 0 300 300" version="1.1">
	<path d="M 172.500 47.569 C 168.650 48.328, 164.600 49.375, 163.500 49.896 C 162.400 50.416, 157.450 51.755, 152.500 52.872 C 147.550 53.989, 138.550 56.039, 132.500 57.429 C 108.323 62.980, 101.007 64.188, 88.323 64.723 C 77.698 65.170, 74.176 64.961, 70.135 63.639 C 67.379 62.738, 64.309 62.014, 63.312 62.032 C 58.952 62.108, 55.353 68.334, 57.229 72.554 C 58.690 75.840, 61.292 76.872, 71.193 78.093 C 87.550 80.111, 104.540 78.160, 138.393 70.378 C 146.702 68.468, 158 66.004, 163.500 64.903 C 169 63.801, 174.518 62.393, 175.763 61.774 C 177.008 61.155, 181.733 60.623, 186.263 60.593 C 193.153 60.547, 195.098 60.910, 198.157 62.813 C 204.063 66.487, 205.520 70.656, 205.383 83.500 C 205.270 94.231, 201.847 118.217, 200.116 120.415 C 199.646 121.012, 198.720 123.815, 198.057 126.644 L 196.851 131.788 191.676 132.357 C 188.829 132.670, 175.925 133.202, 163 133.539 C 150.075 133.877, 138.713 134.374, 137.750 134.644 C 136.015 135.131, 135.130 132.533, 136.793 131.833 C 137.229 131.650, 139.057 124.525, 140.856 116 C 144.788 97.365, 145.796 94.286, 148.175 93.664 C 149.407 93.342, 149.995 92.263, 149.985 90.344 C 149.964 86.475, 148.928 85.132, 145.450 84.462 C 140.768 83.560, 135.478 88.676, 130.984 98.454 C 128.949 102.879, 126.981 108.155, 126.611 110.177 C 126.240 112.200, 125.571 114, 125.124 114.177 C 124.677 114.355, 123.113 119.191, 121.648 124.924 C 120.183 130.658, 118.867 135.466, 118.723 135.611 C 118.398 135.936, 101.122 138.271, 78 141.115 C 68.375 142.299, 59.825 143.510, 59 143.807 C 58.175 144.103, 50.393 145.087, 41.707 145.993 C 28.642 147.356, 25.570 147.986, 23.918 149.637 C 21.535 152.020, 22.141 154.204, 25.713 156.109 C 29.226 157.983, 68.318 158.082, 70.179 156.221 C 70.850 155.550, 72.547 155.002, 73.950 155.005 C 75.353 155.007, 85.166 153.811, 95.758 152.346 C 106.350 150.881, 115.260 149.927, 115.559 150.225 C 115.857 150.524, 114.692 158.358, 112.971 167.634 C 111.249 176.910, 109.297 187.423, 108.633 190.997 C 107.581 196.657, 107.109 197.558, 104.963 197.997 C 100.908 198.825, 98 202.061, 98 205.744 C 98 208.409, 98.529 209.255, 100.750 210.146 C 102.263 210.753, 104.497 211.711, 105.716 212.275 C 107.235 212.979, 108.335 212.976, 109.216 212.266 C 109.922 211.697, 112.017 210.906, 113.871 210.509 C 115.949 210.065, 117.433 209.061, 117.738 207.894 C 118.010 206.852, 118.615 206, 119.081 206 C 120.907 206, 122.244 201.078, 127.358 175.519 C 130.276 160.935, 132.852 148.828, 133.082 148.613 C 133.492 148.231, 192.316 145.982, 192.669 146.335 C 192.984 146.651, 187.054 167.215, 184.887 173.319 C 183.738 176.554, 181.567 181.744, 180.062 184.851 C 175.208 194.871, 174.620 196.870, 175.778 199.413 C 177.111 202.337, 181.571 203.273, 185.211 201.391 C 187.971 199.964, 193.369 192.372, 197.577 184 C 199.676 179.826, 204.308 165.972, 208.495 151.349 L 210.257 145.198 215.878 144.502 C 226.093 143.236, 233 138.993, 233 133.986 C 233 132.101, 232.255 130.982, 230.453 130.161 C 227.132 128.648, 220.493 128.675, 218.032 130.212 C 216.964 130.879, 215.815 131.148, 215.478 130.811 C 215.141 130.474, 216.064 124.416, 217.529 117.349 C 221.183 99.728, 222.010 79.240, 219.482 68.928 C 217.814 62.120, 213.617 54.127, 211.663 54.038 C 211.203 54.017, 208.900 52.616, 206.544 50.924 C 204.188 49.232, 200.515 47.443, 198.380 46.948 C 192.847 45.664, 180.674 45.956, 172.500 47.569 M 277.964 208.341 C 275.446 210.648, 261.984 213.176, 250 213.592 C 176.933 216.133, 126.129 218.326, 124.500 219.009 C 123.400 219.470, 114.625 220.112, 105 220.436 C 75.534 221.426, 30.707 224.092, 26.853 225.083 C 22.499 226.204, 21.486 228.156, 23.800 230.966 C 25.358 232.857, 27.175 233.114, 45.500 234.028 C 56.500 234.577, 73.150 234.790, 82.500 234.501 C 130.983 233.002, 161.609 231.632, 162.527 230.921 C 163.092 230.483, 177.717 229.840, 195.027 229.491 C 241.182 228.560, 267.023 226.685, 275.348 223.663 C 284.509 220.338, 289 216.767, 289 212.809 C 289 211.040, 288.252 209.153, 287.250 208.392 C 284.972 206.663, 279.827 206.635, 277.964 208.341" stroke="none" fill="black" fill-rule="evenodd"/>
</svg>