<svg xmlns="http://www.w3.org/2000/svg" width="300" height="300" viewBox="0 0 300 300" version="1.1">
	<path d="M 132.434 11.892 C 131.370 12.776, 129.937 14.759, 129.250 16.297 C 126.892 21.575, 127.761 25.527, 134.078 38.238 C 139.192 48.529, 140.248 51.567, 140.736 57.393 C 141.372 64.976, 143.256 68, 147.345 68 C 151.606 68, 153.458 64.600, 153.846 56.063 C 154.202 48.208, 151.503 35.337, 148.495 30.549 C 147.787 29.422, 146.902 27.375, 146.528 26 C 145.537 22.357, 141.752 14.914, 139.908 12.983 C 137.543 10.507, 134.614 10.079, 132.434 11.892 M 186 77.110 C 172.094 81.139, 137.279 85.253, 106 86.562 C 86.317 87.387, 63.594 89.612, 61.071 90.962 C 56.062 93.643, 60.402 98.898, 69.908 101.662 C 74.489 102.994, 78.450 103.184, 91.823 102.710 L 108.145 102.132 107.497 108.316 C 107.105 112.056, 107.479 119.440, 108.443 127 C 113.465 166.372, 110.051 201.289, 98.961 224 C 90.498 241.330, 88.677 244.802, 86.783 247.221 C 84.976 249.530, 84.828 250.328, 85.812 252.486 C 87.232 255.604, 91.024 257.462, 94.294 256.641 C 102.118 254.677, 113.238 232.784, 119.984 206.062 C 121.656 199.441, 123.310 190.629, 123.661 186.479 C 124.012 182.329, 124.682 178.697, 125.150 178.408 C 126.261 177.721, 126.259 154.278, 125.148 153.591 C 124.679 153.302, 123.977 147.333, 123.588 140.328 C 122.830 126.683, 120.659 113.203, 118.551 109.054 C 115.047 102.158, 114.842 102.346, 126.726 101.603 C 141.623 100.671, 151.002 99.407, 168.783 95.933 C 186.853 92.403, 193.491 90.104, 197.812 85.880 C 201.450 82.322, 201.721 80.444, 199.056 77.250 C 196.842 74.595, 194.756 74.573, 186 77.110 M 182.855 97.695 C 178.649 100.304, 177.603 105.227, 178.388 118.716 C 178.766 125.197, 179.497 134.325, 180.014 139 C 183.892 174.106, 188.175 218.595, 188.681 229.043 C 189.638 248.790, 188.208 254, 181.829 254 C 178.928 254, 176.835 252.304, 170.600 244.900 C 168.315 242.186, 164.529 242.512, 162.073 245.635 C 159.600 248.778, 159.459 251.770, 161.548 256.768 C 163.704 261.929, 166.679 264.877, 172.500 267.623 C 181.423 271.830, 190.779 270.272, 198.715 263.255 C 204.322 258.298, 205.292 254.410, 205.140 237.500 C 204.957 217.165, 201.878 179.836, 200.026 175.500 C 198.536 172.010, 194.030 126.355, 193.957 114 C 193.859 97.405, 190.729 92.809, 182.855 97.695 M 224.306 124.644 C 223.650 124.911, 222.624 126.610, 222.026 128.421 C 220.758 132.265, 222.003 136.613, 224.967 138.689 C 225.997 139.411, 229.688 144.832, 233.170 150.736 C 236.651 156.640, 241.997 164.065, 245.049 167.235 C 250.020 172.400, 251.021 173, 254.664 173 C 260.346 173, 264 169.984, 264 165.295 C 264 161.474, 261.125 158, 257.962 158 C 256.094 158, 254.535 155.941, 249.742 147.149 C 242.865 134.532, 239.311 129.462, 235.500 126.829 C 231.809 124.280, 227.343 123.408, 224.306 124.644 M 73.307 130.810 C 71.335 132.029, 70 136.824, 70 142.687 C 70 153.411, 64.470 183.930, 62.097 186.303 C 61.615 186.785, 61.901 188.498, 62.746 190.192 C 64.115 192.937, 64.595 193.166, 67.878 192.642 C 72.895 191.841, 75.133 188.622, 78.846 176.870 C 83.383 162.510, 84.536 154.452, 83.205 146.419 C 81.546 136.406, 76.676 128.728, 73.307 130.810" stroke="none" fill="black" fill-rule="evenodd"/>
</svg>