<svg xmlns="http://www.w3.org/2000/svg" width="300" height="300" viewBox="0 0 300 300" version="1.1">
	<path d="M 128.571 12.571 C 127.559 13.584, 127 15.934, 127 19.177 C 127 24.358, 129.498 35.675, 131.058 37.564 C 131.541 38.150, 132.667 43.100, 133.560 48.564 C 135.643 61.311, 134.955 68.331, 130.746 77.250 L 127.500 84.129 103 83.690 C 83.001 83.332, 77.798 82.945, 74.677 81.582 C 70.033 79.553, 67.221 80.272, 66.359 83.707 C 64.551 90.909, 72.242 96.147, 87.500 98.104 C 100.303 99.746, 137.930 98.663, 154.500 96.176 C 161.650 95.102, 170.200 93.931, 173.500 93.572 C 176.800 93.213, 180.783 92.667, 182.351 92.358 C 185.091 91.819, 184.963 92.103, 179.065 99.648 C 173.595 106.646, 169.518 111.729, 166.500 115.313 C 165.950 115.966, 164.866 117.730, 164.090 119.233 C 163.315 120.736, 161.961 122.761, 161.082 123.733 C 160.203 124.705, 157.545 127.975, 155.176 131 C 152.806 134.025, 139.915 147.586, 126.530 161.136 C 102.128 185.836, 83.340 202.403, 75.301 206.309 C 72.936 207.458, 71 208.984, 71 209.699 C 71 210.415, 70.550 211, 70 211 C 68.415 211, 68.839 218.325, 70.566 220.791 C 71.427 222.021, 73.893 223.925, 76.045 225.023 C 81.647 227.881, 101.568 232.539, 116.606 234.508 C 123.698 235.436, 130.580 236.714, 131.901 237.348 C 135.193 238.928, 181.125 238.953, 183.095 237.376 C 183.868 236.758, 186.750 235.930, 189.500 235.537 C 196.725 234.503, 214.354 230.167, 218.742 228.343 C 227.874 224.550, 245.394 214.293, 250.471 209.768 C 253.523 207.048, 258.153 202.050, 260.760 198.662 C 264.684 193.563, 265.500 191.779, 265.500 188.301 C 265.500 183.439, 264.622 182.274, 260.306 181.411 C 257.609 180.872, 256.675 181.298, 253.587 184.478 C 251.614 186.510, 250 188.657, 250 189.251 C 250 190.892, 240.453 199.456, 236.230 201.603 C 234.179 202.646, 232.275 203.726, 232 204.002 C 231.231 204.773, 227.140 206.654, 220 209.518 C 216.425 210.952, 212.098 212.764, 210.384 213.546 C 200.758 217.935, 178.148 220.963, 155 220.963 C 135.698 220.963, 123.218 219.688, 104.922 215.848 L 94.344 213.627 100.422 208.623 C 125.602 187.891, 174.114 136.825, 179.712 125.158 C 180.593 123.320, 181.907 121.589, 182.631 121.311 C 183.355 121.033, 185.298 118.612, 186.948 115.930 C 190.778 109.705, 206.728 92, 208.506 92 C 210.475 92, 214 87.111, 214 84.381 C 214 83.089, 212.682 80.562, 211.070 78.766 L 208.141 75.500 195.927 75.694 C 188.954 75.804, 183.259 76.341, 182.656 76.944 C 182.075 77.525, 180.002 78.010, 178.050 78.023 C 176.097 78.036, 168.650 78.925, 161.500 80 C 154.350 81.075, 147.252 81.964, 145.727 81.977 C 143.085 81.999, 143.023 81.893, 144.409 79.750 C 147.244 75.369, 149.307 61.315, 148.698 50.541 C 147.889 36.238, 142.534 19.170, 136.987 13.216 C 134.574 10.627, 130.805 10.338, 128.571 12.571" stroke="none" fill="black" fill-rule="evenodd"/>
</svg>