<svg xmlns="http://www.w3.org/2000/svg" width="300" height="300" viewBox="0 0 300 300" version="1.1">
	<path d="M 160.938 27.282 C 158.926 28.851, 158.033 31.301, 157.415 36.945 C 156.769 42.839, 153.229 53.769, 150.877 57.129 C 149.865 58.574, 146.040 65.774, 142.377 73.129 C 138.714 80.483, 135.439 86.725, 135.099 87 C 134.759 87.275, 133.588 89.200, 132.498 91.279 C 131.407 93.357, 129.526 96.208, 128.318 97.614 C 122.965 103.844, 124.884 109.709, 131.915 108.607 C 137.516 107.730, 144.046 100.252, 152.969 84.500 C 154.838 81.200, 156.848 78.169, 157.434 77.765 C 158.020 77.361, 163.954 77.024, 170.619 77.015 C 177.284 77.007, 186.509 76.348, 191.119 75.552 C 202.890 73.519, 228.553 70.089, 234.398 69.769 C 240.546 69.431, 242.275 67.360, 239.828 63.261 C 236.844 58.261, 234.900 57.816, 218.845 58.455 C 210.785 58.775, 197.510 60.118, 189.345 61.439 C 181.180 62.760, 171.928 64.132, 168.784 64.488 L 163.068 65.135 166.607 57.475 C 170.559 48.920, 173.434 36.979, 172.579 32.667 C 171.518 27.318, 164.848 24.232, 160.938 27.282 M 96.073 30.635 C 94.933 32.084, 94 34.696, 94 36.439 C 94 40.262, 89.899 46.987, 83.518 53.630 C 80.945 56.309, 76.313 61.650, 73.225 65.500 C 70.138 69.350, 67.135 72.950, 66.552 73.500 C 65.969 74.050, 63.469 76.973, 60.996 79.997 C 58.523 83.020, 55.600 86.452, 54.500 87.624 C 53.400 88.796, 50.925 91.675, 49 94.021 C 47.075 96.367, 44.510 99.460, 43.299 100.893 C 38.590 106.471, 33.329 112.805, 29.500 117.510 C 27.300 120.213, 24.528 123.434, 23.339 124.669 C 18.788 129.395, 19.844 136, 25.150 136 C 26.402 136, 33.521 129.732, 44.079 119.335 L 61 102.670 61.003 128.085 C 61.006 151.898, 60.401 166.129, 57.988 199 C 55.795 228.864, 55.013 244.361, 54.795 262.222 C 54.583 279.634, 54.708 281.132, 56.584 283.644 C 59.613 287.701, 61.462 288.571, 64.697 287.462 C 68.061 286.307, 72.019 279.012, 72.737 272.641 C 73.166 268.835, 72.921 268.178, 70.475 266.576 L 67.732 264.778 68.420 247.639 C 68.799 238.213, 69.747 221.275, 70.527 210 C 73.856 161.917, 74.199 154.243, 74.120 129.773 C 74.045 106.649, 73.830 103.432, 71.995 97.984 L 69.952 91.922 72.978 88.211 C 74.641 86.170, 82.305 76.894, 90.008 67.599 C 102.284 52.785, 104.263 49.887, 106.039 44.137 C 108.392 36.521, 107.941 32.885, 104.288 30.012 C 100.847 27.306, 98.555 27.479, 96.073 30.635 M 197 117.534 C 191.225 118.258, 181.100 119.782, 174.500 120.920 C 167.900 122.058, 161.427 122.992, 160.116 122.995 C 155.938 123.004, 150.017 125.256, 147.469 127.804 C 144.416 130.857, 144.397 131.559, 147.319 133.473 C 152.370 136.783, 158.597 137.002, 176.500 134.501 C 194.643 131.967, 228.001 130.090, 227.998 131.603 C 227.997 132.096, 225.994 133.765, 223.547 135.311 C 217.129 139.365, 206.626 149.895, 195.960 162.966 C 193.507 165.972, 190.713 169.320, 189.750 170.405 C 188.787 171.489, 188 172.710, 188 173.117 C 188 173.524, 187.438 174.469, 186.750 175.217 C 185.377 176.711, 185.239 176.949, 179.033 188.500 C 176.669 192.900, 173.761 197.850, 172.572 199.500 C 171.382 201.150, 168.681 206.325, 166.570 211 C 157.616 230.832, 162.223 244.539, 179.687 250.018 C 191.418 253.699, 204.054 254.418, 234.769 253.152 C 270.367 251.685, 278.547 249.835, 285.759 241.622 C 292.276 234.199, 292.383 220.801, 285.953 217.475 C 281.630 215.240, 277.059 217.808, 277.010 222.500 C 276.957 227.588, 274.850 232.027, 271.703 233.681 C 264.785 237.319, 203.989 239.413, 188.047 236.562 C 182.167 235.511, 180.110 234.666, 178.297 232.559 C 175.376 229.163, 175.417 226.794, 178.512 220.145 C 183.176 210.128, 198.648 183.161, 203.268 177 C 210.074 167.923, 228.892 148.747, 234.182 145.499 C 235.974 144.398, 240.304 139.919, 243.805 135.546 C 249.277 128.709, 250.086 127.180, 249.578 124.642 C 248.101 117.256, 244.220 115.972, 223.782 116.108 C 214.827 116.168, 202.775 116.809, 197 117.534" stroke="none" fill="black" fill-rule="evenodd"/>
</svg>