<svg xmlns="http://www.w3.org/2000/svg" width="300" height="300" viewBox="0 0 300 300" version="1.1">
	<path d="M 109.319 29.060 C 105.287 29.895, 103.432 31.757, 102.527 35.876 C 101.928 38.603, 102.129 39.221, 103.752 39.645 C 105.852 40.195, 105.858 41.522, 103.798 50 C 101.353 60.059, 83.991 94.589, 78.285 100.740 C 76.516 102.647, 74.765 105.166, 74.393 106.339 C 73.805 108.189, 68.620 115.566, 66.900 117 C 66.570 117.275, 66.120 118.059, 65.900 118.742 C 65.188 120.952, 58.773 128.084, 46 140.862 C 28.646 158.223, 25.644 161, 24.232 161 C 23.555 161, 23 161.681, 23 162.514 C 23 163.346, 22.469 164.877, 21.821 165.915 C 20.874 167.431, 20.983 168.325, 22.373 170.447 C 25.929 175.874, 34.058 176.117, 37.907 170.912 C 39.091 169.310, 40.681 168, 41.441 168 C 42.201 168, 43.958 166.650, 45.347 165 C 46.735 163.350, 48.246 162, 48.705 162 C 49.794 162, 68 143.719, 68 142.625 C 68 142.165, 69.159 140.876, 70.575 139.763 C 71.991 138.649, 73.622 136.559, 74.201 135.119 L 75.252 132.500 76.025 135.196 C 76.450 136.679, 77.606 144.779, 78.594 153.196 C 79.582 161.613, 80.694 168.725, 81.066 169 C 81.438 169.275, 82.488 178.275, 83.400 189 C 84.312 199.725, 85.506 213.606, 86.054 219.847 C 87.122 232.031, 88.428 235.821, 92.265 237.874 C 98.295 241.101, 103.383 236.434, 103.261 227.787 C 103.112 217.214, 97.929 159.453, 96.978 157.764 C 96.440 156.809, 96 154.616, 96 152.892 C 96 148.342, 93.249 129.698, 91.315 121.146 L 89.652 113.793 92.987 107.646 C 94.821 104.266, 97.079 100.375, 98.003 99 C 98.928 97.625, 100.990 94.025, 102.585 91 C 104.180 87.975, 105.791 85.270, 106.165 84.989 C 106.853 84.472, 108.145 81.176, 112.606 68.567 C 113.955 64.754, 115.482 61.125, 115.998 60.503 C 118.994 56.892, 121.039 38.375, 118.948 33.786 C 117.395 30.376, 113.112 28.274, 109.319 29.060 M 198 33.831 C 198 34.288, 196.875 35.264, 195.500 36 C 193.237 37.211, 193 37.938, 193 43.683 C 193 47.172, 193.412 50.809, 193.915 51.764 C 194.754 53.357, 198 77.029, 198 81.558 C 198 82.825, 196.858 83.975, 194.750 84.830 C 192.963 85.555, 188.575 87.527, 185 89.214 C 175.899 93.508, 171.152 95.168, 160 97.958 C 157.525 98.577, 154.600 99.482, 153.500 99.969 C 150.910 101.116, 137.262 102.991, 131.209 103.032 C 125.490 103.070, 122.995 104.769, 123.015 108.610 C 123.034 112.083, 123.597 112.951, 127.500 115.523 C 130.176 117.286, 132.241 117.500, 146.596 117.500 C 157.197 117.500, 163.172 117.109, 164.096 116.356 C 164.868 115.726, 170.065 113.851, 175.644 112.189 C 181.223 110.528, 189.176 107.309, 193.316 105.036 L 200.844 100.905 201.471 106.702 C 201.816 109.891, 202.509 113.254, 203.011 114.176 C 203.514 115.098, 205.057 125.898, 206.440 138.176 C 213.997 205.240, 212.192 247.351, 201.117 262.342 C 197.708 266.956, 192.170 271.025, 189.349 270.989 C 188.500 270.978, 183 257.289, 183 255.185 C 183 254.572, 182.100 253.589, 181 253 C 179.900 252.411, 179 251.347, 179 250.634 C 179 248.682, 174.485 246.662, 171.689 247.363 C 170.010 247.785, 168.713 249.261, 167.619 251.995 C 166.161 255.637, 166.156 256.402, 167.558 260.254 C 168.409 262.589, 170.247 268.325, 171.643 273 C 173.040 277.675, 174.817 281.860, 175.591 282.300 C 176.366 282.740, 177 283.727, 177 284.493 C 177 287.104, 181.247 289, 187.097 289 C 194.189 289, 199.345 287.198, 206.864 282.093 C 212.181 278.482, 213.227 277.153, 217.333 268.791 C 224.460 254.276, 225.205 249.370, 225.727 213.507 C 226.005 194.383, 225.745 178.107, 225.049 171.007 C 222.499 145.027, 219.775 122.379, 218.973 120.500 C 218.504 119.400, 217.373 112.704, 216.461 105.620 C 215.086 94.952, 215.030 92.599, 216.133 91.918 C 223.086 87.620, 231.666 79.620, 235.054 74.275 C 240.432 65.789, 240.078 61.163, 233.868 58.779 C 231.749 57.967, 226.197 60.805, 225.478 63.068 C 224.915 64.842, 217.958 71, 216.516 71 C 216.134 71, 215.023 71.985, 214.049 73.188 C 212.295 75.353, 212.270 75.316, 211.547 69.527 C 211.145 66.310, 210.422 62.963, 209.940 62.089 C 209.458 61.215, 208.685 57.270, 208.222 53.323 C 207.505 47.198, 207.636 45.808, 209.120 43.841 C 211.175 41.117, 210.642 40.226, 204.377 35.916 C 200.115 32.983, 198 32.292, 198 33.831 M 170.500 163.109 C 166.650 163.562, 158.451 163.670, 152.280 163.349 C 137.283 162.567, 132.864 163.277, 131.250 166.727 C 128.436 172.740, 130.738 178.163, 136.725 179.629 C 138.251 180.002, 139.819 180.798, 140.209 181.396 C 141.183 182.892, 168.227 182.871, 170.106 181.373 C 170.873 180.762, 173.975 179.730, 177 179.080 C 188.619 176.583, 190.946 175.731, 192.463 173.415 C 194.546 170.238, 194.395 167.772, 191.927 164.635 C 190.060 162.260, 189.244 162.014, 183.677 162.142 C 180.280 162.220, 174.350 162.655, 170.500 163.109" stroke="none" fill="black" fill-rule="evenodd"/>
</svg>