<svg xmlns="http://www.w3.org/2000/svg" width="300" height="300" viewBox="0 0 300 300" version="1.1">
	<path d="M 141.203 18.284 C 139.993 19.572, 138.160 23.748, 137.130 27.563 C 135.468 33.721, 130.630 44.877, 126.533 52 C 125.742 53.375, 123.957 56.606, 122.566 59.179 C 121.176 61.753, 119.600 64.129, 119.065 64.460 C 118.529 64.791, 116.874 67.298, 115.387 70.031 C 113.899 72.764, 112.338 75, 111.917 75 C 111.496 75, 109.880 77.528, 108.326 80.619 C 106.772 83.709, 104.938 86.457, 104.250 86.726 C 103.563 86.994, 103 87.671, 103 88.230 C 103 89.675, 94.308 101.670, 89.788 106.463 C 87.694 108.683, 85.737 111.264, 85.439 112.199 C 85.141 113.133, 84.093 114.153, 83.109 114.465 C 82.125 114.778, 80.727 116.141, 80.002 117.496 C 79.277 118.850, 77.180 120.980, 75.341 122.229 C 73.502 123.478, 71.742 125.287, 71.431 126.250 C 71.120 127.212, 70.525 128, 70.109 128 C 69.694 128, 66.076 131.150, 62.070 135 C 58.065 138.850, 54.634 142, 54.448 142 C 53.724 142, 42 154.420, 42 155.187 C 42 155.634, 41.401 156, 40.669 156 C 39.937 156, 38.736 157.125, 38 158.500 C 37.264 159.875, 36.288 161, 35.831 161 C 35.374 161, 35 161.675, 35 162.500 C 35 163.325, 34.510 164, 33.910 164 C 32.742 164, 29.088 167.972, 29.033 169.303 C 29.015 169.745, 27.875 171.762, 26.500 173.785 C 23.339 178.437, 23.349 180.818, 26.540 184.260 C 31.403 189.504, 32.584 188.790, 53.474 168 C 63.974 157.550, 72.901 149, 73.311 149 C 73.721 149, 78.279 144.695, 83.439 139.432 C 90.973 131.751, 92.928 130.223, 93.361 131.682 C 93.657 132.682, 94.407 139.125, 95.028 146 C 95.648 152.875, 96.539 159.400, 97.007 160.500 C 97.476 161.600, 98.142 167.450, 98.488 173.500 C 99.914 198.428, 104.099 243.523, 105.015 243.833 C 105.557 244.017, 106 245.199, 106 246.461 C 106 249.823, 108.675 255.661, 110.545 256.379 C 113.437 257.489, 117.821 257.036, 119.391 255.466 C 122.735 252.122, 124.041 241.932, 121.577 238.414 C 120.637 237.071, 119.745 230.812, 118.945 219.941 C 118.279 210.899, 117.345 203.073, 116.867 202.550 C 116.390 202.028, 115.986 199.328, 115.969 196.550 C 115.952 193.773, 115.288 184.525, 114.494 176 C 113.700 167.475, 112.551 154.425, 111.941 147 C 111.330 139.575, 110.464 132.600, 110.017 131.500 C 109.569 130.400, 108.770 125.675, 108.240 121 C 107.279 112.520, 107.283 112.491, 110.158 108.784 C 111.742 106.741, 113.368 104.235, 113.770 103.215 C 114.171 102.195, 117.478 96.892, 121.117 91.431 C 133.222 73.262, 137 67.241, 137 66.116 C 137 65.502, 137.390 65, 137.866 65 C 138.342 65, 139.701 62.188, 140.885 58.750 C 142.070 55.313, 143.963 50.779, 145.092 48.675 C 148.863 41.653, 152 32.003, 152 27.428 C 152 22.397, 149.700 17, 147.556 17 C 146.790 17, 145.543 16.762, 144.784 16.471 C 144.025 16.179, 142.414 16.995, 141.203 18.284 M 181.797 35.408 C 179.213 37.919, 178.133 39.961, 177.700 43.158 C 177.067 47.837, 178.850 52, 181.488 52 C 183.901 52, 184.712 54.903, 186.515 70 C 188.020 82.601, 188.282 96.737, 188.517 177.947 C 188.738 254.081, 188.543 271.774, 187.466 273.447 C 185.723 276.153, 187.110 283.905, 189.651 285.657 C 190.668 286.358, 192.086 287.437, 192.803 288.055 C 194.817 289.791, 200.440 286.638, 203.176 282.238 L 205.500 278.500 205.784 226.650 L 206.069 174.800 208.784 175.590 C 210.278 176.025, 216.450 176.453, 222.500 176.541 C 228.550 176.630, 235.057 177.051, 236.961 177.477 C 241.599 178.515, 258.672 187.703, 259.377 189.540 C 260.129 191.499, 265.446 191.409, 268.535 189.385 C 270.477 188.113, 271 186.919, 271 183.758 C 271 180.225, 270.312 179.038, 265.250 173.833 C 262.087 170.581, 257.250 166.770, 254.500 165.365 C 251.750 163.960, 248.264 162.154, 246.753 161.352 C 240.821 158.203, 230.333 156.859, 219.613 157.872 C 214.051 158.398, 208.713 159.140, 207.750 159.521 C 206.122 160.166, 205.999 158.934, 205.987 141.857 C 205.969 117.227, 204.140 72.713, 203.119 72.040 C 202.668 71.743, 201.988 67.687, 201.607 63.026 C 200.552 50.094, 197.414 37, 195.370 37 C 194.617 37, 193.997 36.663, 193.994 36.250 C 193.986 35.290, 188.240 32, 186.572 32 C 185.876 32, 183.728 33.534, 181.797 35.408" stroke="none" fill="black" fill-rule="evenodd"/>
</svg>