<svg xmlns="http://www.w3.org/2000/svg" width="300" height="300" viewBox="0 0 300 300" version="1.1">
	<path d="M 227.500 25.265 C 224.603 26.748, 220.329 27.547, 212 28.163 C 205.675 28.632, 196.094 29.686, 190.710 30.507 C 185.325 31.328, 179.448 32, 177.648 32 C 174 32, 160.657 35.240, 154.500 37.621 C 149.130 39.698, 147 41.780, 147 44.955 C 147 51.023, 149.754 51.193, 181.153 47.055 C 193.444 45.436, 208.225 43.613, 214 43.004 C 226.494 41.688, 243.536 36.735, 245.003 33.994 C 246.674 30.873, 246.129 27.849, 243.448 25.365 C 240.208 22.361, 233.258 22.318, 227.500 25.265 M 103.689 29.250 C 102.362 31.038, 100.781 33.982, 100.175 35.794 C 99.044 39.175, 95.860 44.252, 93.072 47.116 C 92.208 48.005, 90.825 49.755, 90 51.005 C 87.774 54.378, 83.607 59.452, 82.750 59.833 C 82.338 60.017, 82 60.696, 82 61.344 C 82 61.991, 80.974 63.641, 79.721 65.010 C 78.467 66.380, 72.359 74.250, 66.146 82.500 C 59.933 90.750, 53.338 99.300, 51.489 101.500 C 48.518 105.036, 37.009 119.774, 30 129.019 C 28.625 130.833, 27.034 132.808, 26.464 133.408 C 22.713 137.359, 13 152.048, 13 153.768 C 13 156.215, 15.486 159, 17.671 159 C 18.512 159, 20.632 157.537, 22.381 155.750 C 26.399 151.645, 44.139 131.273, 50.027 124 C 52.477 120.975, 55.615 117.375, 57.002 116 C 58.388 114.625, 60.909 111.739, 62.603 109.586 L 65.684 105.673 66.344 116.086 C 66.983 126.170, 66.016 157.048, 63.999 191 C 62.839 210.528, 62.778 268.427, 63.910 275.312 C 65.799 286.797, 74.820 290.017, 79.043 280.715 C 81.520 275.257, 81.506 271.414, 79 269.268 C 77.067 267.613, 77 266.323, 77.007 230.528 C 77.015 190.421, 77.564 179.117, 79.394 181.378 C 81.168 183.570, 84.261 183.831, 91.719 182.421 C 99.270 180.993, 122.545 178.481, 138.274 177.397 L 148.048 176.722 145.967 181.578 C 144.822 184.248, 143.499 186.898, 143.028 187.467 C 141.597 189.191, 138 204.558, 138 208.949 C 138 218.868, 144.060 225.929, 159.122 233.562 C 164.970 236.525, 164.890 236.858, 156.323 245.106 C 148.752 252.395, 141.179 258, 138.903 258 C 135.590 258, 131.960 260.313, 131.329 262.826 C 129.941 268.354, 135.034 270.678, 144.684 268.923 C 149.905 267.974, 152.191 266.794, 159.364 261.348 C 167.404 255.244, 171.635 251.173, 176.721 244.652 L 178.942 241.804 192.221 244.913 C 199.524 246.622, 208.081 248.691, 211.235 249.511 C 221.244 252.110, 227.268 251.055, 229.041 246.393 C 231.085 241.015, 223.592 231.876, 219.338 234.559 C 218.074 235.356, 214.168 234.711, 203.579 231.959 C 195.836 229.946, 189.519 227.894, 189.542 227.400 C 189.565 226.905, 192.046 221.550, 195.054 215.500 C 198.063 209.450, 202.769 197.475, 205.512 188.890 L 210.500 173.279 221.500 172.522 C 227.550 172.105, 245.095 171.637, 260.488 171.482 L 288.476 171.201 289.753 168.070 C 290.921 165.207, 290.825 164.734, 288.619 162.528 C 283.549 157.458, 277.611 156.736, 244.454 157.155 L 214.201 157.537 214.691 154.514 C 215.312 150.688, 212.375 136.232, 210.620 134.477 C 209.260 133.117, 207.678 132.675, 204.911 132.882 C 203.033 133.021, 200.820 137.366, 201.595 139.388 C 201.893 140.164, 201.393 144.849, 200.483 149.799 L 198.829 158.799 194.665 159.363 C 192.374 159.674, 186.314 160.229, 181.198 160.597 L 171.895 161.266 172.568 158.383 C 172.938 156.797, 174.195 152.575, 175.362 149 C 176.974 144.058, 177.468 140.104, 177.423 132.500 C 177.338 118.278, 175.300 115.087, 166.266 115.032 C 161.883 115.005, 160.506 115.470, 157.800 117.887 C 155.009 120.381, 154.751 120.995, 155.907 122.387 C 156.643 123.274, 157.661 124, 158.170 124 C 158.679 124, 160.185 125.237, 161.517 126.750 C 163.611 129.129, 163.861 130.174, 163.368 134.500 C 162.668 140.647, 160.792 147.400, 157.327 156.250 C 154.747 162.838, 154.598 163, 151.092 163.005 C 139.912 163.019, 113.158 165.356, 104.824 167.046 C 92.237 169.598, 79.520 174.833, 78.609 177.837 C 78.332 178.752, 78.326 171.400, 78.597 161.500 C 79.427 131.165, 79.458 101.809, 78.667 95.500 L 77.915 89.500 88.490 75.530 C 94.306 67.846, 99.903 60.646, 100.928 59.530 C 104.264 55.895, 113.954 40.669, 115.056 37.331 C 116.916 31.694, 113.068 26.079, 107.301 26.014 C 106.641 26.006, 105.016 27.462, 103.689 29.250 M 255.771 52.750 C 253.902 54.877, 250 62.497, 250 64.022 C 250 64.628, 247.050 71.143, 243.445 78.501 C 237.285 91.073, 236.563 92.096, 231.452 95.488 C 225.269 99.592, 223.717 102.924, 226.536 106.040 C 228.903 108.655, 233.342 108.521, 239.500 105.647 C 246.141 102.548, 250.215 97.782, 257.914 84.108 C 267.256 67.517, 268.662 58.490, 262.763 52.993 C 260.125 50.536, 257.789 50.455, 255.771 52.750 M 170.039 72.189 C 166.668 75.807, 168.090 83.278, 172.402 84.609 C 173.556 84.965, 176.618 87.224, 179.207 89.628 C 183.280 93.411, 184.505 94, 188.302 94 C 191.401 94, 193.215 93.420, 194.477 92.026 C 196.150 90.177, 196.158 89.891, 194.609 87.526 C 193.699 86.137, 192.543 85, 192.041 85 C 191.539 85, 189.234 82.300, 186.919 79 C 184.604 75.700, 181.988 72.986, 181.105 72.968 C 180.222 72.951, 178.626 72.276, 177.559 71.468 C 174.835 69.408, 172.414 69.639, 170.039 72.189 M 132.390 76.729 C 130.490 78.048, 127.866 84.022, 127.774 87.233 C 127.668 90.972, 130.111 93, 134.722 93 C 137.280 93, 138.773 93.811, 141.107 96.469 C 146.186 102.254, 154.156 102.213, 155.616 96.394 C 156.123 94.374, 155.541 93.085, 152.807 90.173 C 150.910 88.153, 148.088 84.925, 146.537 83 C 144.986 81.075, 142.970 78.975, 142.057 78.333 C 139.839 76.772, 133.776 75.766, 132.390 76.729 M 178.615 174.399 C 162.620 175.667, 163.737 174.917, 158.867 187.678 C 150.108 210.629, 150.475 212.306, 165.885 219.772 C 174.673 224.030, 173.882 224.552, 180.687 210 C 187.521 195.386, 187.625 195.138, 191.391 184.597 C 194.629 175.536, 195.068 172.744, 193.191 173.149 C 192.811 173.231, 186.252 173.794, 178.615 174.399" stroke="none" fill="black" fill-rule="evenodd"/>
</svg>