<svg xmlns="http://www.w3.org/2000/svg" width="300" height="300" viewBox="0 0 300 300" version="1.1">
	<path d="M 102.223 14.557 C 101 15.413, 100 16.532, 100 17.043 C 100 18.930, 82.446 47.488, 77.591 53.500 C 76.703 54.600, 74.068 57.975, 71.735 61 C 69.403 64.025, 66.739 67.400, 65.816 68.500 C 64.892 69.600, 58.169 77.700, 50.876 86.500 C 43.583 95.300, 37.364 102.725, 37.058 103 C 36.751 103.275, 34.451 105.975, 31.946 109 C 18.090 125.734, 12.034 135.829, 12.013 142.231 C 12.002 145.411, 12.380 146.057, 14.577 146.609 C 18.476 147.587, 20.828 145.674, 28.676 135.136 C 32.622 129.836, 42.380 117.963, 50.359 108.752 C 61.162 96.281, 64.998 92.451, 65.383 93.752 C 65.667 94.713, 66.380 100.225, 66.968 106 C 67.556 111.775, 68.268 118.300, 68.551 120.500 C 68.834 122.700, 69.446 140.925, 69.913 161 C 70.852 201.454, 69.916 244.005, 67.543 268.653 C 66.688 277.537, 66.241 285.463, 66.549 286.267 C 67.451 288.617, 71.652 290.083, 74.444 289.021 C 78.424 287.508, 79.782 284.182, 81.598 271.500 C 84.192 253.378, 84.866 148.876, 82.549 123.963 C 80.759 104.714, 78.745 90.879, 76.735 84.016 L 75.421 79.532 83.075 69.516 C 92.447 57.252, 100.692 44.641, 104.989 36 C 106.766 32.425, 109.296 28.068, 110.610 26.317 C 116.610 18.325, 110.024 9.092, 102.223 14.557 M 184.985 25.895 C 182.354 28.661, 180.876 29.535, 179.890 28.911 C 175.800 26.321, 172.835 30.890, 174.900 36.600 C 176.156 40.074, 176.093 40.216, 166.556 55.300 C 161.270 63.660, 155.376 72.696, 153.458 75.380 C 144.867 87.403, 139.623 94.538, 139.039 95 C 137.672 96.081, 128.973 108.027, 122.293 118 C 118.424 123.775, 114.301 129.357, 113.129 130.405 C 111.181 132.148, 111 132.163, 111 130.584 C 111 129.634, 110.357 128.214, 109.571 127.429 C 104.867 122.725, 98.800 130.792, 100.446 139.562 C 101.411 144.708, 104.141 147, 109.304 147 C 116.521 147, 125.251 140.093, 133.557 127.814 C 138.180 120.980, 157.142 95.604, 158.451 94.500 C 160.368 92.884, 170.239 78.367, 177.490 66.500 C 181.187 60.450, 184.887 54.431, 185.711 53.125 L 187.210 50.749 196.355 59.694 C 223.626 86.370, 238.300 97.377, 258.500 106.310 C 263.450 108.500, 267.761 110.691, 268.081 111.181 C 268.400 111.670, 270.262 112.331, 272.218 112.648 C 280.065 113.921, 282.721 104.677, 276.087 99.187 C 275.214 98.465, 269.328 95.374, 263.007 92.318 C 252.860 87.412, 243.472 81.899, 242 79.981 C 241.725 79.622, 240.767 78.918, 239.871 78.415 C 236.960 76.780, 199.485 44.023, 196.500 40.504 C 195.950 39.855, 194.947 39.139, 194.272 38.912 C 193.480 38.647, 194.280 36.939, 196.522 34.109 C 200.676 28.865, 200.774 27.865, 197.455 24.545 C 193.589 20.680, 189.528 21.119, 184.985 25.895 M 165.500 109.472 C 157.499 111.223, 147.939 115.149, 146.632 117.221 C 144.658 120.350, 147.045 124.244, 152.261 126.406 C 156.917 128.336, 157.086 128.337, 162.747 126.490 C 167.482 124.945, 172.848 124.511, 193.073 124.037 C 214.179 123.543, 218.023 123.215, 220.323 121.708 C 226.366 117.749, 222.154 109.841, 213.361 108.636 C 205.080 107.501, 171.855 108.081, 165.500 109.472 M 223.500 159.467 C 218.550 160.199, 201.761 161.550, 186.192 162.471 C 158.554 164.105, 155.123 164.578, 148.080 167.726 C 144.948 169.127, 144.555 169.112, 143.415 167.553 C 141.348 164.726, 137.029 165.949, 134.775 170 C 132.952 173.277, 132.864 174.968, 133.400 196.500 C 133.714 209.150, 134.270 226.330, 134.635 234.678 L 135.298 249.856 132.096 253.057 C 128.748 256.406, 128.303 259.666, 131 261.084 C 138.682 265.124, 142.520 265.863, 146.037 263.980 C 147.122 263.400, 162.272 262.598, 181.221 262.118 C 199.525 261.655, 215.360 260.913, 216.411 260.469 C 218.042 259.781, 218.234 259.996, 217.726 261.942 C 217.059 264.492, 220.738 269, 223.487 269 C 226.030 269, 232.278 266.085, 234.843 263.702 C 246.703 252.681, 251.801 233.213, 252.707 195.487 C 253.237 173.394, 253.172 172.270, 251.075 167.396 C 247.521 159.134, 240.133 157.010, 223.500 159.467 M 222.500 175.036 C 220.300 175.503, 214.675 175.927, 210 175.978 C 205.325 176.029, 192.849 176.689, 182.276 177.445 C 164.073 178.746, 162.671 178.995, 155.897 182.117 L 148.743 185.415 149.418 195.214 C 151.069 219.188, 151.747 235.896, 151.266 240.750 L 150.746 246 177.623 246.223 C 192.405 246.346, 207.375 246.487, 210.890 246.537 C 216.287 246.613, 217.569 246.984, 219.140 248.924 C 221.277 251.564, 221.576 255.981, 219.750 257.943 C 219.063 258.682, 219.913 258.273, 221.640 257.036 C 223.367 255.799, 226.026 252.247, 227.549 249.143 C 233.905 236.188, 236.670 219.135, 237.221 189.500 L 237.500 174.500 232 174.344 C 228.975 174.258, 224.700 174.569, 222.500 175.036" stroke="none" fill="black" fill-rule="evenodd"/>
</svg>