<svg xmlns="http://www.w3.org/2000/svg" width="300" height="300" viewBox="0 0 300 300" version="1.1">
	<path d="M 116.799 29.720 C 115.314 30.076, 107 41.856, 107 43.603 C 107 46.043, 82.685 72.261, 70.500 82.960 C 67.200 85.858, 60.528 91.889, 55.674 96.364 C 45.098 106.114, 28.157 119, 25.917 119 C 23.785 119, 20.996 122.175, 21.015 124.579 C 21.069 131.287, 29.662 132.294, 37.500 126.510 C 39.150 125.293, 41.970 123.539, 43.767 122.614 C 45.564 121.688, 50.739 118.104, 55.267 114.648 L 63.500 108.366 63.500 131.433 C 63.500 192.086, 64.615 244.831, 65.931 246.417 C 68.022 248.936, 74.643 248.506, 76.205 245.750 C 79.026 240.775, 77.835 154.100, 74.431 116.634 L 72.899 99.767 89.849 82.832 C 106.415 66.280, 117.283 52.893, 121.188 44.228 C 124.703 36.427, 122.277 28.406, 116.799 29.720 M 181.594 31.229 C 179.919 32.477, 177.273 36.456, 175.348 40.623 C 172.509 46.767, 171.835 49.724, 170.861 60.313 L 169.715 72.774 165.607 74.080 C 158.669 76.286, 147.647 81.670, 144.750 84.267 C 137.435 90.826, 145.678 94.099, 160.500 90.520 C 169.335 88.387, 169 88.199, 169 95.277 C 169 103.161, 170.726 106, 175.522 106 C 179.885 106, 180.563 104.641, 181.452 94.124 C 181.841 89.517, 182.388 85.153, 182.667 84.425 C 182.946 83.698, 185.498 82.347, 188.337 81.422 C 191.177 80.498, 197.232 77.978, 201.793 75.822 C 210.823 71.554, 213.107 68.725, 211.094 64.306 C 209.405 60.601, 206.240 60.638, 195.612 64.485 C 190.176 66.452, 185.556 67.889, 185.344 67.677 C 184.736 67.070, 186.933 48.008, 188.216 42.758 C 188.917 39.888, 190.047 37.802, 191.079 37.475 C 193.441 36.725, 194.064 33.537, 192.333 31.065 C 190.418 28.330, 185.380 28.407, 181.594 31.229 M 226.441 111.478 C 214.406 114.097, 166.750 116.711, 133.954 116.551 C 125.480 116.510, 122.876 116.848, 120.704 118.273 C 115.442 121.724, 118.054 126.348, 126.663 128.822 C 131.467 130.203, 136.791 130.480, 156.750 130.386 C 170.088 130.323, 181 130.513, 181 130.807 C 181 131.102, 180.378 132.053, 179.619 132.921 C 178.192 134.552, 173.570 148.447, 172.426 154.543 C 171.836 157.688, 171.468 158, 168.347 158 C 157.555 158, 144.460 162.899, 139.282 168.874 C 133.319 175.755, 137.504 183.532, 144.527 178.621 C 147.286 176.692, 162.502 172, 165.998 172 L 168.893 172 168.413 196.750 C 167.850 225.727, 167.596 229.007, 165.826 230.129 C 165.097 230.591, 161.575 230.988, 158 231.010 C 142.422 231.109, 122.952 234.284, 114.726 238.067 C 111.476 239.562, 110.189 243.318, 112.127 245.653 C 113.324 247.095, 115.583 247.203, 131.989 246.604 C 142.170 246.232, 156.350 245.514, 163.500 245.009 C 170.650 244.504, 189.775 243.580, 206 242.956 C 222.225 242.333, 245.005 241.043, 256.622 240.091 C 275.563 238.538, 278.314 238.081, 283.258 235.662 C 291.075 231.838, 292.970 226.151, 288.227 220.750 C 286.055 218.277, 284.264 218.561, 280.347 222 C 278.468 223.650, 276.159 225.012, 275.215 225.027 C 274.272 225.042, 269.225 225.486, 264 226.014 C 258.775 226.541, 238.975 227.426, 220 227.980 C 201.025 228.534, 184.254 229.205, 182.731 229.472 L 179.963 229.957 180.475 220.729 C 181.976 193.662, 183.353 174.327, 183.933 172.158 C 184.518 169.972, 185.897 169.387, 197.043 166.595 C 210.162 163.308, 215.982 160.540, 217.686 156.775 C 220.012 151.636, 214.869 147.726, 209.378 150.457 C 207.795 151.245, 203.350 152.372, 199.500 152.962 C 195.650 153.552, 191.217 154.298, 189.648 154.620 C 186.958 155.171, 186.827 155.042, 187.346 152.352 C 187.648 150.783, 188.188 146.684, 188.547 143.241 C 189.083 138.094, 189.714 136.496, 192.099 134.244 C 193.695 132.739, 195 131.032, 195 130.452 C 195 129.836, 200.096 128.890, 207.250 128.178 C 225.203 126.391, 235.233 123.361, 238.464 118.748 C 240.426 115.947, 240.414 113.557, 238.429 111.571 C 236.577 109.720, 234.588 109.704, 226.441 111.478" stroke="none" fill="black" fill-rule="evenodd"/>
</svg>