<svg xmlns="http://www.w3.org/2000/svg" width="300" height="300" viewBox="0 0 300 300" version="1.1">
	<path d="M 203 36.230 C 201.858 37.457, 200.736 39.369, 200.508 40.480 C 199.083 47.420, 194.675 64.588, 193.978 65.914 C 193.520 66.786, 191.972 71.438, 190.540 76.250 C 188.101 84.442, 187.762 85.002, 185.218 85.036 C 183.723 85.055, 178.005 85.473, 172.511 85.963 C 167.017 86.454, 162.354 86.687, 162.149 86.482 C 161.944 86.277, 163.349 84.172, 165.272 81.805 C 174.932 69.907, 178.749 55.077, 172.950 51.973 C 168.618 49.655, 163.691 53.816, 158.881 63.853 C 157.129 67.509, 152.473 74.550, 148.534 79.500 C 130.291 102.423, 129.330 104.023, 131.362 108.099 C 132.020 109.419, 133.780 111.086, 135.274 111.802 C 137.746 112.987, 138.550 112.794, 144.245 109.643 C 147.685 107.740, 154.100 105.073, 158.500 103.717 C 166.444 101.269, 180.150 99.357, 181.919 100.450 C 182.442 100.773, 181.957 103.506, 180.799 106.760 C 179.676 109.917, 176.593 118.764, 173.949 126.421 C 171.305 134.077, 168.547 140.642, 167.821 141.009 C 167.094 141.376, 162.225 142.466, 157 143.430 C 141.613 146.270, 118.512 154.976, 114.909 159.292 C 113.895 160.506, 112.773 162.980, 112.414 164.790 C 111.085 171.498, 117.592 174.058, 125.539 169.954 C 136.002 164.549, 146.057 160.771, 153.375 159.493 C 157.801 158.721, 161.591 158.258, 161.798 158.465 C 162.006 158.672, 160.561 162.924, 158.588 167.914 C 156.614 172.904, 155 177.565, 155 178.271 C 155 178.977, 154.390 180.443, 153.644 181.527 C 152.898 182.612, 151.488 185.975, 150.509 189 C 149.531 192.025, 146.766 199.390, 144.365 205.367 C 141.964 211.344, 140 216.845, 140 217.590 C 140 219.405, 127.803 242.951, 123.531 249.386 C 121.663 252.199, 117.860 256.750, 115.079 259.500 C 109.677 264.843, 108.611 268.468, 111.571 271.429 C 118.244 278.101, 135.465 260.217, 148.877 232.687 C 155.767 218.544, 156.610 216.508, 163.494 197.410 L 167.131 187.320 169.936 189.910 C 171.479 191.334, 175.491 193.546, 178.852 194.824 C 182.455 196.195, 188.560 199.966, 193.731 204.016 C 209.310 216.217, 213.171 218.962, 234 232.641 C 259.624 249.470, 274.601 257.195, 281.815 257.304 C 293.450 257.479, 294.184 246.872, 282.703 244.467 C 278.675 243.624, 258.507 231.325, 246.017 222.096 C 240.801 218.242, 235.406 214.506, 234.027 213.794 C 231.832 212.661, 223.374 207.096, 213.605 200.358 C 211.897 199.181, 207.575 195.652, 204 192.516 C 196.427 185.875, 188.839 181.763, 180.643 179.857 C 173.161 178.118, 172.240 176.545, 174.499 169.364 C 177.280 160.522, 180.801 154, 182.792 154 C 185.861 154, 204.228 147.912, 210.101 144.948 C 217.448 141.240, 221.643 137.620, 224.044 132.914 C 227.774 125.603, 225.557 113, 220.541 113 C 217.224 113, 215 116.080, 215 120.676 C 215 125.835, 213.133 127.890, 204.964 131.726 C 199.193 134.436, 188.937 138, 186.909 138 C 186.125 138, 188.438 129.864, 193.307 115.500 C 198.131 101.268, 199.710 98, 201.767 98 C 202.778 98, 207.257 96.234, 211.719 94.076 C 218.148 90.967, 220.700 89.055, 224.013 84.865 C 227.588 80.342, 228.113 79.083, 227.639 76.164 C 226.949 71.909, 226.985 71.942, 222.246 71.306 C 218.686 70.829, 218.057 71.108, 215.386 74.348 C 212.187 78.229, 205 81.986, 205 79.778 C 205 78.056, 207.740 58.487, 209.568 47.156 C 210.397 42.017, 210.803 36.954, 210.470 35.906 C 209.638 33.284, 205.581 33.460, 203 36.230 M 113.697 44.576 C 112.261 46.012, 111.369 47.797, 111.681 48.610 C 112.962 51.949, 105.578 69, 102.851 69 C 102.383 69, 102 69.638, 102 70.417 C 102 71.196, 101.657 71.983, 101.237 72.167 C 100.818 72.350, 98.721 74.975, 96.578 78 C 94.435 81.025, 91.890 84.400, 90.923 85.500 C 89.955 86.600, 86.788 90.200, 83.883 93.500 C 80.978 96.800, 77.004 101.085, 75.051 103.021 C 71.743 106.301, 57.805 121.273, 46.211 134 C 43.456 137.025, 38.608 142.875, 35.440 147 C 27.586 157.224, 25.840 158.963, 23.405 158.983 C 20.386 159.008, 17.914 162.221, 17.281 166.945 C 16.638 171.737, 18.831 175, 22.695 175 C 28.688 175, 34.106 170.336, 51.206 150.458 C 55.444 145.531, 61.536 138.621, 64.743 135.101 L 70.574 128.703 70.595 147.101 C 70.654 199.145, 71.618 234.511, 73.059 237.477 C 76.119 243.776, 85 243.202, 85 236.705 C 85 234.869, 85.483 230.753, 86.074 227.558 C 86.839 223.418, 86.839 221.439, 86.074 220.674 C 85.353 219.953, 84.995 208.891, 84.984 187.050 C 84.975 169.148, 84.543 149.325, 84.024 143 C 83.504 136.675, 82.816 128.125, 82.495 124 L 81.910 116.500 88.587 109 C 97.685 98.781, 112.625 79.885, 117.785 72.071 C 125.651 60.159, 127.742 48.114, 122.677 43.884 C 119.632 41.342, 116.706 41.567, 113.697 44.576" stroke="none" fill="black" fill-rule="evenodd"/>
</svg>