<svg xmlns="http://www.w3.org/2000/svg" width="300" height="300" viewBox="0 0 300 300" version="1.1">
	<path d="M 151.041 18.250 C 148.286 21.051, 147.923 22, 148.414 25.124 C 149.351 31.087, 143.712 45.174, 133.416 62.588 C 130.987 66.696, 129 70.340, 129 70.684 C 129 71.029, 127.875 72.786, 126.500 74.589 C 125.125 76.392, 124 78.284, 124 78.794 C 124 80.355, 115.704 88.393, 112.186 90.240 C 109.324 91.743, 108.915 92.426, 109.186 95.240 C 109.472 98.207, 109.832 98.528, 113.184 98.806 C 123.971 99.704, 132.564 91.883, 144.010 70.750 L 146.041 67 152.661 67 C 156.833 67, 162.094 66.120, 166.890 64.621 C 177.350 61.351, 189.778 59.075, 203.075 57.994 C 212.596 57.220, 214.645 56.743, 216.687 54.824 C 219.753 51.944, 219.437 48.018, 216 46.288 C 208.932 42.730, 176.228 46.694, 157.247 53.409 L 152.993 54.914 154.631 51.746 C 157.736 45.742, 162.085 31.485, 162.674 25.382 C 163.192 20.017, 163.002 19.002, 161.132 17.132 C 158.095 14.095, 154.765 14.464, 151.041 18.250 M 87.725 54.548 C 86.323 55.950, 84.654 59.272, 84.017 61.931 C 82.821 66.913, 82.352 67.682, 72.908 80.130 C 61.503 95.164, 51.823 105.945, 28.250 129.872 C 12.959 145.393, 11 147.754, 11 150.671 C 11 153.313, 11.474 154.081, 13.407 154.566 C 14.731 154.898, 16.725 154.682, 17.839 154.086 C 22.125 151.793, 37.943 138.221, 47.665 128.497 L 57.830 118.330 58.366 124.915 C 58.941 131.999, 58.480 265.213, 57.868 268.442 C 57.427 270.770, 61.186 273.026, 64.196 272.238 C 65.312 271.947, 66.842 270.230, 67.596 268.424 C 69.972 262.738, 71.042 230.833, 70.579 179.500 C 70.204 137.859, 69.897 129.828, 68.535 126.028 C 66.506 120.367, 63.245 116.788, 60.817 117.558 C 58.113 118.416, 58.576 117.337, 62.905 112.691 C 65.052 110.386, 69.398 105.125, 72.562 101 C 75.726 96.875, 79.757 91.925, 81.521 90 C 89.055 81.777, 97.971 65.983, 97.990 60.827 C 98.001 57.959, 93.651 52, 91.547 52 C 90.846 52, 89.126 53.147, 87.725 54.548 M 217 89.706 C 216.175 90.007, 212.350 91.709, 208.500 93.487 C 196.624 98.974, 192.596 100.711, 190 101.467 C 188.625 101.868, 182.172 104.177, 175.660 106.598 C 169.148 109.019, 162.960 111, 161.910 111 C 160.466 111, 160 111.713, 160 113.922 C 160 116.336, 160.566 117.029, 163.250 117.901 C 170.180 120.154, 194.031 114.466, 207.884 107.258 C 211.396 105.431, 214.411 104.078, 214.584 104.251 C 214.758 104.425, 214.483 109.952, 213.974 116.533 C 213.464 123.115, 213.037 134.622, 213.024 142.105 L 213 155.711 204.750 157.446 C 200.213 158.401, 195.512 159.409, 194.304 159.686 C 192.205 160.167, 192.156 160.021, 193.173 156.345 C 194.596 151.201, 193.455 139.817, 190.949 134.151 C 186.626 124.379, 179.048 118.162, 175.163 121.200 C 169.962 125.266, 169.900 127.455, 174.823 133.109 C 179.077 137.994, 182 146.597, 182 154.232 C 182 156.976, 182.505 159.038, 183.250 159.341 C 185.496 160.252, 182.299 161.613, 173.680 163.414 C 169.181 164.355, 163.250 165.734, 160.500 166.480 C 157.750 167.225, 154.080 168.124, 152.344 168.477 L 149.187 169.118 151.011 163.809 C 156.589 147.574, 158.001 139.807, 157.978 125.460 C 157.955 110.573, 156.602 105.073, 151.884 100.678 C 148.818 97.821, 143.687 99.119, 141.626 103.274 C 140.083 106.385, 140.110 106.575, 142.400 108.605 C 146.361 112.116, 147.001 114.431, 146.983 125.184 C 146.964 136.259, 145.173 144.485, 138.038 166.253 C 136.168 171.960, 135.412 173.097, 133.162 173.593 C 125.261 175.334, 109.730 182.729, 107.282 185.915 C 105.244 188.567, 105.814 190.978, 108.750 192.115 C 111.415 193.148, 123.154 191.543, 128.424 189.426 C 130.039 188.777, 130.222 188.961, 129.563 190.576 C 129.131 191.634, 128.555 195.425, 128.283 199 C 127.853 204.630, 128.081 205.871, 129.986 208.275 C 135.125 214.760, 148.618 217.245, 179.500 217.391 C 192.150 217.451, 204.863 217.147, 207.750 216.716 L 213 215.931 213.005 220.216 C 213.016 229.524, 210.709 250.949, 208.830 259 C 207.739 263.675, 206.429 269.494, 205.919 271.931 C 204.699 277.766, 202.592 280.822, 199.237 281.618 C 189.977 283.818, 191.742 292.009, 201.473 291.993 C 208.479 291.982, 214.442 286.356, 217.947 276.449 C 222.688 263.049, 225.918 241.803, 225.967 223.685 C 226 211.902, 226.008 211.864, 228.890 209.439 C 232.098 206.740, 235.275 199.880, 234.388 197.568 C 233.736 195.870, 230.347 194.493, 227.750 194.871 C 226.155 195.103, 226 193.891, 226 181.162 L 226 167.198 229.500 165.133 C 232.896 163.129, 233.465 162.140, 233.028 159 C 232.700 156.644, 229.885 154, 227.704 154 C 225.756 154, 225.727 153.437, 226.220 125.251 C 226.511 108.577, 226.330 95.378, 225.789 93.824 C 225.211 92.167, 223.682 90.736, 221.778 90.073 C 220.086 89.483, 218.656 89.036, 218.601 89.079 C 218.545 89.122, 217.825 89.404, 217 89.706 M 207.500 170.694 C 205.850 170.910, 199.550 172.206, 193.500 173.572 C 187.450 174.939, 178.225 176.987, 173 178.123 C 167.775 179.259, 159.195 181.325, 153.934 182.714 L 144.368 185.239 142.025 192.628 C 140.737 196.691, 139.988 200.321, 140.361 200.694 C 141.047 201.380, 145.443 202.027, 163.500 204.100 C 174.924 205.411, 199.870 204.803, 207.750 203.021 L 213 201.834 213 185.917 C 213 173.770, 212.704 170.035, 211.750 170.150 C 211.063 170.232, 209.150 170.477, 207.500 170.694 M 178.500 180.184 C 176.351 181.442, 174.084 184.021, 174.032 185.265 C 173.942 187.421, 181.166 193.380, 186.500 195.549 C 199.810 200.962, 209.625 199.697, 207.452 192.848 C 206.808 190.820, 202.130 188, 199.408 188 C 198.477 188, 194.896 186.219, 191.449 184.042 C 184.143 179.428, 181.258 178.568, 178.500 180.184" stroke="none" fill="black" fill-rule="evenodd"/>
</svg>