<svg xmlns="http://www.w3.org/2000/svg" width="300" height="300" viewBox="0 0 300 300" version="1.1">
	<path d="M 87.672 34.623 C 85.566 36.001, 82.641 39.153, 81.172 41.628 C 79.702 44.103, 76.475 48.862, 74 52.205 C 71.525 55.548, 68.825 59.277, 68 60.493 C 67.175 61.709, 64.475 65.048, 62 67.913 C 59.525 70.778, 57.041 73.657, 56.479 74.311 C 55.918 74.965, 53.766 77.830, 51.698 80.677 C 49.629 83.525, 47.613 86, 47.218 86.177 C 46.823 86.355, 44.715 88.750, 42.534 91.500 C 40.353 94.250, 38.306 96.725, 37.986 97 C 37.667 97.275, 34.339 101.100, 30.592 105.500 C 26.845 109.900, 23.040 114.175, 22.136 115 C 21.233 115.825, 17.864 120.011, 14.651 124.302 C 10.052 130.444, 8.939 132.619, 9.416 134.523 C 10.300 138.044, 13.254 139.322, 16.913 137.767 C 19.614 136.619, 44.032 111.959, 53.250 101.070 L 57 96.640 57.194 110.070 C 57.472 129.318, 57.115 140.037, 55.499 161 C 51.707 210.162, 50.767 241.609, 52.932 246.837 C 55.383 252.752, 62.786 251.475, 64.821 244.785 C 65.370 242.978, 66.083 233.400, 66.405 223.500 C 66.727 213.600, 67.936 194.700, 69.092 181.500 C 70.635 163.880, 71.232 148.728, 71.337 124.500 C 71.475 92.875, 71.394 91.334, 69.401 87.518 L 67.322 83.535 77.937 70.018 C 90.872 53.544, 96.090 44.980, 96.779 39.094 C 97.191 35.583, 96.922 34.416, 95.456 33.344 C 93 31.548, 92.159 31.686, 87.672 34.623 M 225.250 50.603 C 221.885 54.442, 222.390 57.335, 227.250 62.046 C 232.595 67.228, 237.151 69.584, 247.795 72.670 C 261.278 76.579, 267 75.942, 267 70.533 C 267 67.266, 264.340 65.373, 255.026 62.009 C 247.466 59.280, 242.638 56.495, 238.788 52.645 C 236.766 50.623, 231.381 47.997, 229.300 48.018 C 228.310 48.028, 226.488 49.191, 225.250 50.603 M 174.500 56.122 C 172.850 56.645, 165.650 58.198, 158.500 59.573 C 151.350 60.949, 142.350 63.128, 138.500 64.417 C 129.627 67.386, 122.780 69, 119.051 69 C 115.071 69, 111.601 70.438, 109.096 73.127 C 106.272 76.158, 106.458 78.589, 109.750 81.667 C 112.390 84.136, 112.860 84.218, 121.500 83.703 C 126.450 83.408, 131.800 82.667, 133.389 82.056 C 134.977 81.444, 136.472 81.139, 136.711 81.377 C 136.949 81.615, 136.436 83.894, 135.572 86.440 C 133.606 92.230, 133.587 98.141, 135.500 109 C 136.323 113.675, 136.998 117.595, 136.999 117.711 C 137.004 118.519, 127.616 120.100, 117.500 120.995 C 98.744 122.654, 96 123.562, 96 128.105 C 96 130.018, 97.038 131.448, 99.836 133.386 C 105.131 137.056, 113.432 137.706, 127.217 135.532 C 133.111 134.602, 138.352 134.099, 138.863 134.415 C 139.374 134.731, 140.300 138.929, 140.920 143.745 C 141.541 148.560, 142.938 158.401, 144.024 165.613 C 145.111 172.825, 146 179.677, 146 180.840 C 146 182.961, 144.685 184.140, 129.093 196 C 119.489 203.305, 106.246 216.222, 104.999 219.502 C 104.450 220.947, 104 223.867, 104 225.989 C 104 230.241, 105.100 231.410, 114.822 237.487 C 124.047 243.254, 141.239 244.484, 149.977 240.002 C 160.544 234.581, 165.103 220.556, 162.928 200.164 C 162.303 194.299, 161.617 189.317, 161.405 189.093 C 161.192 188.868, 164.836 184.725, 169.502 179.885 C 174.167 175.045, 180.220 167.662, 182.951 163.477 L 187.918 155.869 189.508 159.672 C 190.382 161.765, 191.460 165.057, 191.904 166.988 C 192.348 168.920, 195.500 177.912, 198.908 186.971 C 203.222 198.436, 204.920 204.211, 204.496 205.971 C 204.160 207.362, 201.526 212.550, 198.643 217.500 C 195.760 222.450, 191.691 229.903, 189.602 234.062 C 186.127 240.977, 185.573 241.591, 183.128 241.232 C 181.340 240.970, 179.841 241.518, 178.601 242.889 C 176.945 244.718, 176.875 245.449, 177.948 249.719 C 179.533 256.023, 181.445 258, 185.959 258 C 188.788 258, 190.287 257.270, 192.634 254.750 C 197.644 249.368, 202.507 242.023, 207.696 232 C 210.401 226.775, 213.038 222.546, 213.557 222.602 C 214.076 222.658, 215.680 224.908, 217.122 227.602 C 221.449 235.686, 231.667 251.078, 237.256 257.930 C 247.975 271.073, 250.876 272.876, 255.777 269.443 C 257.639 268.140, 258 266.946, 258 262.098 C 258 256.014, 256.225 253, 252.642 253 C 250.142 253, 237.387 233.124, 228.003 214.606 L 222.989 204.711 226.745 198.286 C 236.479 181.630, 248.504 158.173, 252.780 147.500 C 253.661 145.300, 257.896 137.373, 262.191 129.886 C 266.486 122.398, 270 115.365, 270 114.258 C 270 111.517, 267.507 109.656, 264.758 110.346 C 259.451 111.678, 236.082 147.591, 221.874 176.250 C 218.942 182.162, 216.232 187, 215.850 187 C 215.468 187, 214.612 185.312, 213.947 183.250 C 213.283 181.188, 212.430 179.050, 212.052 178.500 C 211.675 177.950, 210.611 175.025, 209.688 172 C 208.766 168.975, 205.503 158.850, 202.437 149.500 C 199.372 140.150, 196.500 130.700, 196.055 128.500 C 195.610 126.300, 194.919 123.716, 194.519 122.759 C 193.937 121.363, 194.755 120.607, 198.646 118.947 C 205.339 116.091, 213.477 110.346, 215.084 107.342 C 216.218 105.224, 216.194 104.435, 214.928 102.171 C 212.924 98.590, 209.975 98.364, 204.261 101.356 C 198.319 104.467, 192.341 106.345, 190.558 105.661 C 189.811 105.374, 188.876 103.195, 188.480 100.820 C 188.085 98.444, 186.961 94.250, 185.982 91.500 C 183.329 84.040, 182.870 80.353, 184.434 79.054 C 186.662 77.206, 186.924 74.128, 185.052 71.815 C 183.438 69.823, 183.018 69.750, 180.106 70.956 C 175.837 72.724, 171.996 79.445, 171.392 86.203 C 171.104 89.425, 171.674 95.026, 172.847 100.500 C 173.909 105.450, 174.490 109.782, 174.138 110.127 C 173.512 110.742, 153.103 116, 151.343 116 C 149.631 116, 145.684 93.419, 146.269 86.970 C 146.655 82.712, 146.430 80.573, 145.497 79.640 C 144.407 78.550, 145.934 77.865, 154.340 75.675 C 179.446 69.135, 183.359 67.403, 184.649 62.262 C 185.166 60.204, 184.735 59.168, 182.596 57.329 C 179.652 54.797, 178.994 54.699, 174.500 56.122 M 170.500 127.038 C 167.200 128.100, 161.912 129.484, 158.750 130.115 C 155.588 130.745, 153 131.443, 153 131.666 C 153 131.889, 154.125 138.608, 155.500 146.597 C 156.875 154.586, 158.007 162.783, 158.015 164.811 C 158.044 171.680, 159.456 172.071, 164.514 166.608 C 170.493 160.151, 177.996 150.126, 179.187 147.002 C 179.711 145.628, 180.811 143.761, 181.633 142.853 C 182.963 141.384, 182.883 140.313, 180.906 133.101 C 179.685 128.646, 178.194 125.024, 177.593 125.054 C 176.992 125.083, 173.800 125.976, 170.500 127.038 M 146.499 199.501 C 145.398 200.602, 139.952 204.987, 134.396 209.245 C 128.841 213.504, 122.173 218.856, 119.579 221.139 C 115.479 224.748, 115.050 225.479, 116.299 226.727 C 118.237 228.666, 131.585 230.439, 137.527 229.548 C 144.148 228.555, 147.293 225.202, 148.827 217.500 C 149.594 213.654, 149.749 208.987, 149.261 204.500 L 148.500 197.500 146.499 199.501" stroke="none" fill="black" fill-rule="evenodd"/>
</svg>