<svg xmlns="http://www.w3.org/2000/svg" width="300" height="300" viewBox="0 0 300 300" version="1.1">
	<path d="M 174.687 17.805 C 173.209 19.347, 172 21.251, 172 22.035 C 172 22.819, 173.603 26.057, 175.561 29.230 C 178.751 34.398, 179.052 35.473, 178.442 39.539 C 177.901 43.144, 178.126 44.482, 179.536 46.039 C 183.926 50.891, 191.257 46.135, 192.536 37.607 C 193.285 32.614, 191.362 22.545, 189.338 20.866 C 188.602 20.255, 188 19.207, 188 18.538 C 188 17.869, 186.854 16.799, 185.453 16.161 C 181.183 14.215, 177.602 14.762, 174.687 17.805 M 109.018 27.740 C 106.660 28.665, 105.670 30.060, 102.088 37.500 C 99.052 43.806, 94.751 50.621, 90.623 55.667 C 87.078 59.998, 80.077 69.104, 74.218 77 C 70.750 81.675, 67.369 86.184, 66.706 87.020 C 66.043 87.856, 64.158 90.331, 62.517 92.520 C 50.937 107.970, 26.849 134.432, 20.693 138.466 C 18.479 139.916, 17.959 140.933, 18.198 143.342 C 18.447 145.852, 19.083 146.535, 21.832 147.242 C 27.584 148.723, 32.875 145.172, 48.706 129.207 C 61.774 116.029, 63.002 115.037, 63.026 117.646 C 63.040 119.216, 63.501 125, 64.051 130.500 C 67.978 169.779, 70.031 240.272, 68.081 268.864 C 66.982 284.981, 67.022 286.367, 68.647 288.163 C 71.044 290.811, 75.781 290.228, 78.091 287 C 80.104 284.188, 81.363 274.972, 83.018 250.936 C 83.853 238.807, 83.747 227.253, 82.537 198.580 C 80.816 157.781, 80.182 150.653, 75.933 124.343 C 74.320 114.357, 73.001 105.132, 73.003 103.843 C 73.006 101.449, 80.322 91.011, 95.270 72.073 C 109.096 54.556, 115.313 44.150, 116.542 36.465 C 117.050 33.284, 116.747 31.948, 115.016 29.747 C 112.855 27, 111.800 26.647, 109.018 27.740 M 198.500 51.589 C 193 52.350, 181.300 53.654, 172.500 54.488 C 163.700 55.321, 151.558 56.747, 145.518 57.657 C 136.028 59.085, 134.161 59.686, 131.768 62.078 C 128.350 65.496, 128.256 68.347, 131.455 71.545 C 134.325 74.416, 135.074 74.464, 147.261 72.547 C 152.342 71.747, 166.400 70.151, 178.500 68.999 C 190.600 67.848, 201.192 66.702, 202.037 66.453 C 204.313 65.783, 214.982 65.648, 215.615 66.282 C 215.916 66.583, 215.605 72.042, 214.924 78.414 C 213.857 88.400, 213.440 90, 211.903 90 C 210.923 90, 200.981 92.489, 189.810 95.532 C 178.640 98.575, 163.713 102.404, 156.640 104.041 C 149.567 105.678, 143.437 107.230, 143.017 107.489 C 142.598 107.748, 141.939 103.918, 141.552 98.976 C 140.660 87.577, 138.404 84.596, 134 89 C 132.630 90.370, 131.998 92.338, 131.995 95.250 C 131.993 97.588, 131.115 108.320, 130.044 119.101 C 126.744 152.341, 125.739 176.306, 126.219 210.286 C 126.721 245.823, 127.139 248.414, 133.187 253.504 C 140.473 259.634, 154.518 254.464, 167.856 240.740 C 177.763 230.547, 179.121 226.647, 174.026 223.019 C 170.337 220.392, 169.356 220.850, 161.578 228.836 C 156.170 234.388, 149.511 238.865, 144.341 240.425 C 142.405 241.010, 142.060 240.531, 140.995 235.788 C 139.346 228.444, 138.592 201.746, 139.471 181.822 L 140.207 165.145 147.353 163.973 C 171.470 160.018, 178.209 158.648, 184.277 156.463 C 193.252 153.232, 195.955 151.752, 199.292 148.240 C 201.116 146.321, 203.137 145.272, 205.119 145.216 C 212.088 145.018, 217.260 138.073, 222.492 121.889 C 227.988 104.888, 233.021 72.291, 231.606 62.857 C 230.345 54.449, 223.674 49.877, 213 50.109 C 210.525 50.162, 204 50.829, 198.500 51.589 M 199 108.050 C 184.078 113.577, 154.992 121.032, 147.968 121.131 L 142.144 121.213 141.821 135.856 C 141.643 143.910, 141.535 150.611, 141.579 150.747 C 141.624 150.883, 143.650 150.341, 146.080 149.542 C 148.511 148.744, 156.679 146.933, 164.230 145.519 C 180.192 142.531, 191.280 139.025, 194.581 135.923 C 196.328 134.283, 197.656 133.881, 199.870 134.324 C 202.209 134.792, 203.120 134.454, 204.237 132.708 C 207.260 127.981, 212.632 103.938, 210.634 104.081 C 210.010 104.125, 204.775 105.912, 199 108.050 M 223.500 149.886 C 216.608 152.240, 212.769 156.512, 198.176 178.067 C 193.124 185.530, 187.607 192.955, 185.917 194.567 L 182.843 197.500 181.172 195.416 C 180.252 194.269, 178.375 191.847, 177 190.032 C 172.744 184.416, 170.845 182.635, 162.038 176 C 160.213 174.625, 157.100 172.019, 155.119 170.209 C 149.080 164.688, 144 164.998, 144 170.886 C 144 173.887, 149.315 182.256, 154.353 187.185 C 156.217 189.008, 160.050 193.563, 162.873 197.307 C 167.521 203.471, 167.948 204.471, 167.400 207.903 C 166.871 211.209, 167.143 211.967, 169.532 213.846 C 171.038 215.031, 173.222 216.023, 174.385 216.052 C 175.619 216.082, 177.862 217.803, 179.772 220.186 C 185.026 226.742, 201.025 241.129, 209.063 246.524 C 213.141 249.261, 217.031 252.017, 217.709 252.650 C 220.050 254.832, 240.516 264.803, 245.932 266.399 C 252.658 268.382, 264.919 268.478, 269.451 266.585 C 273.403 264.934, 274.349 261.842, 272.131 257.821 C 270.473 254.816, 267.997 253.851, 263.999 254.650 C 257.613 255.927, 241.984 249.938, 229.632 241.481 C 226.033 239.016, 222.619 237, 222.044 237 C 221.470 237, 221 236.550, 221 236 C 221 235.450, 220.325 235, 219.500 235 C 218.675 235, 218 234.647, 218 234.216 C 218 233.784, 216.537 232.591, 214.750 231.564 C 212.963 230.538, 206.846 225.011, 201.157 219.283 L 190.814 208.868 197.727 202.063 C 201.530 198.320, 209.981 188.112, 216.508 179.379 C 223.034 170.646, 229.640 162.387, 231.187 161.027 C 232.969 159.461, 234 157.563, 234 155.849 C 234 152.961, 231.727 150, 229.510 150 C 228.770 150, 227.564 149.821, 226.832 149.601 C 226.099 149.382, 224.600 149.510, 223.500 149.886" stroke="none" fill="black" fill-rule="evenodd"/>
</svg>