<svg xmlns="http://www.w3.org/2000/svg" width="300" height="300" viewBox="0 0 300 300" version="1.1">
	<path d="M 180.291 29.772 C 177.620 33.056, 176.452 38.029, 174.953 52.500 C 174.327 58.550, 173.518 66.155, 173.157 69.399 L 172.500 75.299 166.500 77.014 C 163.200 77.958, 158.827 79.466, 156.782 80.365 C 149.599 83.524, 149.503 82.782, 155.600 71.250 C 158.726 65.338, 162.457 58.987, 163.892 57.138 C 169.341 50.113, 169.231 50.374, 167.473 48.616 C 165.062 46.205, 161.367 46.651, 156.603 49.929 C 151.073 53.734, 148.503 57.250, 141.928 70 C 138.951 75.775, 134.991 82.659, 133.129 85.298 C 130.959 88.373, 129.564 91.691, 129.243 94.540 C 128.300 102.905, 132.277 103.926, 146 98.840 C 157.636 94.528, 166.962 91.358, 170.250 90.598 L 173 89.962 173 97.324 C 173 101.373, 172.708 110.116, 172.351 116.752 L 171.702 128.818 168.101 129.275 C 166.121 129.526, 159.100 131.158, 152.500 132.902 C 143.714 135.222, 137.420 136.212, 129 136.596 C 113.162 137.319, 112.997 137.368, 113.015 141.269 C 113.035 145.351, 113.686 146.304, 117.958 148.494 C 124.209 151.699, 138.700 150.648, 161.500 145.336 C 165.350 144.439, 169.287 143.306, 170.250 142.818 C 171.841 142.010, 172 142.620, 172 149.536 C 172 154.258, 171.526 157.638, 170.750 158.449 C 170.063 159.167, 168.825 160.765, 168 162 C 167.175 163.235, 166.049 164.752, 165.497 165.373 C 164.945 165.993, 163.165 169.200, 161.540 172.500 C 156.121 183.506, 143.609 199.085, 124.031 219.204 C 116.354 227.094, 111.405 231.371, 109.059 232.146 C 104.232 233.739, 102.819 235.439, 103.186 239.211 C 103.626 243.733, 108.045 244.992, 115.313 242.665 C 121.897 240.557, 136.221 228.175, 147.436 214.896 C 151.801 209.728, 156.956 203.855, 158.892 201.845 C 160.828 199.835, 164.338 194.660, 166.693 190.345 L 170.975 182.500 171.078 198 C 171.512 263.015, 172.013 280.371, 173.521 282.673 C 175.758 286.087, 180.287 285.809, 182.932 282.096 C 184.813 279.454, 185 277.760, 185.002 263.346 C 185.003 254.631, 185.300 235.037, 185.661 219.805 L 186.319 192.110 188.382 193.555 C 189.517 194.350, 191.022 195, 191.727 195 C 192.433 195, 195.370 196.165, 198.255 197.590 C 201.140 199.014, 206.200 201.221, 209.500 202.494 C 212.800 203.768, 221.800 207.588, 229.500 210.984 C 254.570 222.042, 267.496 226, 278.533 226 C 285.224 226, 286.372 225.719, 288.545 223.545 C 289.895 222.195, 290.993 220.058, 290.985 218.795 C 290.956 214.477, 289.508 213.537, 282.797 213.482 C 274.322 213.413, 254.912 207.199, 234.500 198.020 C 232.300 197.031, 228.700 195.435, 226.500 194.474 C 224.300 193.513, 218.292 190.763, 213.148 188.363 C 208.005 185.964, 203.574 184, 203.302 184 C 203.030 184, 199.489 182.425, 195.432 180.500 C 191.376 178.575, 187.594 177, 187.028 177 C 186.359 177, 186 170.258, 186 157.707 L 186 138.413 189.750 137.312 C 204.655 132.938, 208.182 132, 209.737 131.999 C 212.622 131.998, 223.646 126.364, 224.349 124.532 C 225.461 121.636, 225.073 119.376, 223.171 117.655 C 221.201 115.872, 217.464 115.441, 216.566 116.893 C 216.263 117.384, 211.624 118.563, 206.257 119.514 C 200.891 120.465, 194.135 121.794, 191.244 122.468 L 185.989 123.695 186.633 105.097 C 186.987 94.869, 187.340 86.413, 187.416 86.306 C 187.493 86.199, 189.793 85.585, 192.528 84.942 C 195.262 84.299, 201.277 81.926, 205.892 79.668 C 212.803 76.287, 214.535 74.964, 215.701 72.174 C 216.968 69.142, 216.936 68.587, 215.403 66.893 C 213.131 64.382, 210.119 64.506, 203.220 67.395 C 200.074 68.713, 195.925 70.239, 194 70.787 C 192.075 71.335, 189.694 72.112, 188.708 72.515 C 187.017 73.205, 186.933 72.163, 187.208 53.873 C 187.369 43.218, 187.825 33.825, 188.222 33 C 189.095 31.186, 187.229 28.519, 184.496 27.674 C 183.072 27.234, 181.868 27.835, 180.291 29.772 M 101.996 36.642 C 101.169 36.867, 99.160 39.515, 97.531 42.526 C 95.903 45.537, 94.217 48, 93.785 48 C 93.353 48, 93 48.431, 93 48.959 C 93 49.486, 88.427 56.748, 82.837 65.096 C 74.133 78.097, 70.426 82.516, 57.007 95.888 C 48.389 104.474, 37.709 114.425, 33.274 118 C 24.946 124.712, 23.400 127.010, 25.087 130.162 C 27.685 135.016, 37.571 129.915, 56.646 113.878 L 66 106.013 66 109.444 C 66 111.332, 65.370 115.716, 64.600 119.188 C 63.682 123.325, 62.978 135.663, 62.555 155 C 62.201 171.225, 61.479 195.951, 60.950 209.946 C 60.422 223.941, 60.247 236.204, 60.562 237.197 C 61.311 239.556, 64.161 241.032, 66.690 240.371 C 69.478 239.642, 71.601 234.692, 72.886 225.929 C 74.391 215.662, 76.012 168.160, 76.005 134.485 C 76 108.526, 75.855 106.201, 74.029 102.794 L 72.059 99.117 78.279 91.736 C 84.056 84.882, 86.298 81.851, 95.461 68.500 C 107.418 51.077, 110.102 43.857, 106.605 38.520 C 104.942 35.981, 104.732 35.896, 101.996 36.642" stroke="none" fill="black" fill-rule="evenodd"/>
</svg>