<svg xmlns="http://www.w3.org/2000/svg" width="300" height="300" viewBox="0 0 300 300" version="1.1">
	<path d="M 169.743 25.084 C 168.777 25.647, 167.036 27.996, 165.876 30.304 C 162.956 36.111, 153.674 52.275, 149.111 59.500 C 133.498 84.221, 131.464 88.330, 132.392 93.277 C 132.743 95.149, 134.086 97.671, 135.375 98.883 C 138.979 102.269, 147.276 105, 153.957 105 L 159.893 105 155.460 113.972 C 152.427 120.113, 149.149 124.882, 145.074 129.086 C 135.650 138.807, 133.712 144.975, 138.646 149.548 C 140.101 150.896, 142.082 152, 143.047 152 C 144.012 152, 152.084 149.582, 160.985 146.626 C 176.023 141.632, 177.124 141.402, 176.548 143.376 C 176.208 144.544, 175.652 149.700, 175.313 154.833 L 174.696 164.167 170.927 166.546 C 165.803 169.781, 156.735 172.722, 147.867 174.025 C 126.583 177.154, 122.365 178.273, 121.492 181.024 C 120.692 183.546, 122.459 186.672, 125.249 187.668 C 129.358 189.136, 145.505 188.112, 156.838 185.665 L 167.972 183.262 167.340 185.881 C 166.993 187.321, 165.897 190.075, 164.905 192 C 163.913 193.925, 160.885 200, 158.175 205.500 C 150.683 220.708, 148.290 224.662, 138.659 237.750 C 133.253 245.096, 132.238 246, 129.392 246 C 125.094 246, 123.302 250.394, 125.477 255.599 C 127.167 259.643, 128.792 260.449, 133.482 259.569 C 140.450 258.262, 155.729 239.176, 168.113 216.308 C 170.439 212.014, 172.495 208.307, 172.683 208.071 C 172.871 207.835, 175.832 210.480, 179.262 213.948 C 184.871 219.619, 187.849 221.447, 208.815 232.085 C 221.638 238.591, 235.138 245.083, 238.815 246.510 C 242.492 247.937, 246.400 249.497, 247.500 249.976 C 260.074 255.452, 278.145 256.755, 285.975 252.750 C 291.587 249.879, 292.772 247.990, 291.169 244.472 L 289.946 241.788 280.223 242.424 C 267.326 243.269, 260.389 241.502, 241.609 232.590 C 210.285 217.726, 185.027 204.612, 181.279 201.267 L 177.059 197.500 180.515 189 C 182.416 184.325, 184.248 179.059, 184.588 177.298 C 185.147 174.393, 185.866 173.854, 192.352 171.477 C 207.245 166.019, 212.377 163.556, 215.623 160.310 C 219.829 156.104, 220.740 152.779, 218.587 149.493 C 216.481 146.279, 214.510 146.345, 210.618 149.762 C 208.888 151.281, 205.454 153.132, 202.986 153.876 C 200.519 154.620, 197.600 155.617, 196.500 156.093 C 195.400 156.569, 193.301 157.392, 191.835 157.922 L 189.170 158.886 188.533 150.193 C 188.183 145.412, 187.808 140.600, 187.698 139.500 C 187.539 137.898, 189.390 136.585, 197 132.902 C 211.495 125.886, 218.041 118.184, 213.429 113.571 C 211.164 111.307, 209.938 111.563, 202.852 115.781 C 199.358 117.861, 194.025 120.641, 191 121.960 C 187.975 123.278, 182.736 125.627, 179.357 127.179 C 175.978 128.730, 172.729 130, 172.136 130 C 171.542 130, 168.513 131.125, 165.404 132.500 C 157.882 135.827, 157.307 135.672, 160.758 131.250 C 162.367 129.188, 164.897 124.800, 166.380 121.500 C 169.224 115.169, 169.439 114.780, 172.321 110.707 C 173.739 108.703, 173.905 107.691, 173.071 106.133 C 171.239 102.710, 171.914 101.579, 177.291 99.053 C 180.156 97.706, 186.479 93.696, 191.341 90.141 C 201.764 82.521, 202.339 82.740, 201.665 94.066 C 201.125 103.139, 201.935 105, 206.428 105 C 211.397 105, 212.513 101.451, 212.444 85.870 C 212.398 75.754, 212.050 72.726, 210.694 70.655 C 209.762 69.234, 209 67.210, 209 66.158 C 209 63.598, 206.631 61.772, 203.829 62.173 C 202.177 62.410, 201.111 63.688, 199.960 66.811 C 198.627 70.430, 197.500 71.565, 192.936 73.888 C 189.946 75.409, 184.876 78.505, 181.670 80.767 C 172.708 87.089, 161.746 91.363, 154.302 91.438 C 145.206 91.529, 144.898 90.689, 150.401 80.827 C 152.957 76.247, 155.467 71.825, 155.977 71 C 159.681 65.019, 169.097 48.464, 171.536 43.646 C 173.166 40.427, 175.738 36.603, 177.250 35.150 C 180.500 32.026, 180.767 28.767, 178 26 C 175.830 23.830, 172.525 23.464, 169.743 25.084 M 109.748 31.081 C 108.784 31.642, 105.753 36.588, 103.013 42.071 C 98.143 51.814, 94.255 58.165, 92.750 58.833 C 92.338 59.017, 92 59.601, 92 60.132 C 92 61.260, 80.237 77.822, 75.647 83.158 C 73.916 85.169, 71.600 88.083, 70.500 89.633 C 69.400 91.183, 65.776 95.612, 62.446 99.476 C 59.116 103.339, 55.291 107.831, 53.946 109.457 C 52.601 111.083, 47.675 116.404, 43 121.281 C 32.891 131.826, 31.360 134.299, 32.878 137.631 C 34.801 141.853, 38.964 140.796, 46.693 134.124 C 53.739 128.041, 66.009 114.940, 74.436 104.500 C 77.100 101.200, 78.963 99.506, 78.577 100.736 C 77.537 104.045, 77.597 112.706, 78.851 140.500 C 79.472 154.250, 79.984 185.352, 79.990 209.615 C 80 253.015, 80.034 253.774, 82.116 256.420 C 84.813 259.849, 88.519 259.553, 91.401 255.678 C 93.392 253.003, 93.519 251.428, 93.860 225.178 C 94.603 168.047, 90.741 97.784, 86.599 93.062 C 85.410 91.706, 86.075 90.381, 91.650 83 C 98.222 74.299, 109 58.377, 109 57.370 C 109 57.061, 109.819 55.614, 110.819 54.154 C 113.348 50.466, 117 40.379, 117 37.085 C 117 35.518, 116.011 33.420, 114.686 32.174 C 112.049 29.698, 112.103 29.710, 109.748 31.081" stroke="none" fill="black" fill-rule="evenodd"/>
</svg>