<svg xmlns="http://www.w3.org/2000/svg" width="300" height="300" viewBox="0 0 300 300" version="1.1">
	<path d="M 177.301 13.672 L 174.500 17.344 174.235 48.422 C 174.089 65.515, 173.973 80.916, 173.976 82.646 C 173.980 84.377, 173.424 85.999, 172.741 86.252 C 169.063 87.612, 140.057 92.236, 138.633 91.689 C 135.816 90.608, 135.595 88.110, 137.342 77.090 C 140.422 57.650, 139.341 51.439, 133.249 53.581 C 130.188 54.658, 127.096 61.622, 123.961 74.500 C 119.827 91.484, 122.327 100.121, 132.935 105.501 C 137.084 107.605, 143.892 107.175, 163.500 103.574 C 170.650 102.260, 180.550 100.894, 185.500 100.538 C 200.362 99.468, 209.083 97.938, 214.846 95.389 C 217.850 94.061, 220.433 93.099, 220.586 93.253 C 220.739 93.406, 220.373 97.039, 219.771 101.326 C 218.745 108.634, 218.805 109.249, 220.721 111.166 C 222.309 112.753, 223.468 113.056, 225.906 112.521 C 231.938 111.196, 234.357 101.482, 235.874 72.500 C 236.728 56.171, 236.269 53.980, 232.009 54.029 C 229.079 54.064, 224.041 58.343, 222.250 62.319 C 221.563 63.845, 221 68.373, 221 72.380 C 221 77.956, 220.672 79.667, 219.601 79.667 C 218.832 79.667, 215.843 80.682, 212.958 81.923 C 208.952 83.646, 205.019 84.311, 196.300 84.741 L 184.886 85.303 185.383 82.901 C 187.310 73.584, 188.459 57.469, 188.478 39.500 C 188.502 16.737, 187.861 13.169, 183.385 11.130 C 180.120 9.642, 180.494 9.486, 177.301 13.672 M 104.174 13.314 C 102.978 14.587, 101.985 16.050, 101.966 16.564 C 101.947 17.079, 101.063 19.300, 100 21.500 C 98.937 23.700, 98.053 25.773, 98.034 26.107 C 97.955 27.518, 87.663 44.525, 80.859 54.486 C 68.989 71.865, 67.528 74.043, 61.395 83.500 C 58.184 88.450, 54.979 93.625, 54.271 95 C 53.564 96.375, 50.288 101.070, 46.992 105.433 C 43.697 109.796, 41 113.626, 41 113.943 C 41 114.261, 39.976 115.641, 38.723 117.010 C 35.434 120.607, 27.503 131.128, 26.153 133.684 C 23.546 138.621, 25.604 143, 30.531 143 C 33.097 143, 45.308 130.637, 53.726 119.517 C 57.896 114.008, 61.867 109.035, 62.550 108.466 C 63.233 107.897, 66.032 103.936, 68.769 99.664 C 72.410 93.981, 73.914 92.334, 74.373 93.530 C 75.395 96.193, 75.060 158.894, 73.911 180 C 73.327 190.725, 72.495 218.175, 72.062 241 C 71.629 263.825, 70.946 283.471, 70.545 284.658 C 69.684 287.202, 72.885 291, 75.889 291 C 82.783 291, 84.871 281.895, 84.947 251.510 C 84.976 239.966, 85.714 209.591, 86.587 184.010 C 88.298 133.878, 88.066 92.050, 86.041 85.586 C 85.367 83.434, 84.182 81.039, 83.408 80.265 C 81.494 78.351, 81.616 77.610, 84.392 74.310 C 88.445 69.495, 106.689 40.733, 110.331 33.418 C 116.104 21.826, 116.316 15.799, 111.059 12.694 C 107.341 10.498, 106.772 10.549, 104.174 13.314 M 199 126.702 C 167.713 127.136, 138.005 129.107, 131.744 131.162 C 122.455 134.212, 118.346 140.288, 122.829 144.345 C 125.120 146.418, 130.579 146.465, 143.525 144.521 C 148.943 143.708, 153.548 143.215, 153.760 143.426 C 153.971 143.637, 153.474 144.640, 152.655 145.655 C 144.984 155.168, 142 159.061, 142 159.556 C 142 159.877, 140.676 162.064, 139.058 164.416 C 134.980 170.343, 134.463 173.047, 136.831 176.059 L 138.776 178.531 134.888 180.191 L 131.001 181.851 130.338 179.209 C 129.620 176.348, 127.583 173.878, 124.637 172.295 C 121.873 170.810, 118.202 172.917, 117.312 176.500 C 116.366 180.309, 116.813 205.690, 118.035 217.500 C 118.547 222.450, 118.973 231.755, 118.983 238.179 C 118.996 247.445, 119.325 250.182, 120.571 251.429 C 124.482 255.339, 131.273 251.391, 132.576 244.449 C 132.965 242.373, 133.051 229.723, 132.767 216.337 C 132.483 202.952, 132.422 192, 132.632 192 C 134.447 192, 153.147 188.881, 154.543 188.345 C 156.044 187.769, 156.198 187.977, 155.461 189.576 C 154.069 192.601, 153.670 231.059, 154.980 235.928 C 157.217 244.233, 162.792 246.362, 168.185 240.969 C 170.619 238.535, 171.048 237.500, 170.358 235.719 C 169.886 234.498, 169.484 224.275, 169.464 213 C 169.430 192.951, 168.775 186, 166.921 186 C 166.414 186, 166 185.617, 166 185.149 C 166 184.681, 169.267 183.665, 173.261 182.892 L 180.522 181.486 180.581 190.993 C 180.639 200.270, 181.626 205.888, 188.495 236.050 C 189.816 241.852, 191.400 247.927, 192.015 249.550 C 194.782 256.850, 200.674 259.105, 204.986 254.515 L 207.320 252.031 204.128 234.265 C 202.373 224.494, 199.873 210.650, 198.573 203.500 C 197.273 196.350, 195.940 187.970, 195.611 184.878 L 195.013 179.256 210.256 177.519 C 218.640 176.563, 226.625 175.943, 228 176.141 L 230.500 176.500 230.452 189 C 230.352 215.130, 226.997 248.282, 223.847 254.259 C 223.199 255.489, 222.215 255.841, 220.573 255.429 C 218.068 254.800, 214 258.096, 214 260.754 C 214 264.626, 220.470 270.004, 225.118 269.996 C 231.261 269.987, 237.829 262.211, 240.574 251.698 C 243.877 239.051, 246 215.374, 246 191.190 L 246 167.456 242.927 163.728 C 239.594 159.684, 238.617 159.475, 230.060 160.975 C 224.381 161.970, 208.535 164.064, 188 166.531 C 181.417 167.323, 170.366 169.672, 162.152 172.026 C 154.261 174.288, 147.559 175.892, 147.258 175.592 C 146.958 175.291, 151.164 170.304, 156.606 164.510 C 162.048 158.716, 168.446 151.281, 170.824 147.988 L 175.148 142 188.448 142 C 198.334 142, 203.765 141.496, 209.611 140.035 C 219.567 137.547, 222.126 134.481, 218.531 129.347 C 216.582 126.566, 215.856 126.467, 199 126.702" stroke="none" fill="black" fill-rule="evenodd"/>
</svg>