<svg xmlns="http://www.w3.org/2000/svg" width="300" height="300" viewBox="0 0 300 300" version="1.1">
	<path d="M 79.225 12.989 C 78.206 14.083, 76.557 17.570, 75.561 20.739 C 72.691 29.867, 65.617 43.405, 56.090 58 C 52.020 64.235, 40.585 77.450, 28.400 90 C 23.861 94.675, 18.727 100.297, 16.990 102.493 C 15.254 104.689, 13.529 106.714, 13.157 106.993 C 12.785 107.272, 11.612 109.157, 10.549 111.183 C 8.297 115.476, 9.329 119.330, 12.987 120.286 C 15.395 120.916, 18.963 117.982, 37.132 100.433 L 47.764 90.164 48.362 94.832 C 51.077 116.028, 53 167.732, 53 219.557 L 53 261.888 55.329 264.596 C 57.187 266.756, 58.194 267.168, 60.316 266.636 C 61.778 266.269, 63.733 264.811, 64.659 263.398 C 71.049 253.645, 66.614 97.401, 59.415 78.640 C 59.126 77.887, 61.171 74.428, 63.959 70.953 C 70.131 63.264, 79.983 46.596, 84.175 36.755 C 88.012 27.748, 88.973 18.783, 86.596 14.186 C 84.690 10.500, 81.957 10.056, 79.225 12.989 M 201 16.401 C 193.519 18.186, 187.688 20.640, 180.148 25.178 C 176.654 27.280, 173.572 29, 173.300 29 C 173.027 29, 166.885 31.893, 159.652 35.430 C 152.418 38.966, 143.837 43.065, 140.582 44.538 C 137.328 46.012, 131.674 49.081, 128.018 51.359 C 113.414 60.459, 109.281 66.308, 113.832 71.436 C 115.557 73.378, 115.622 75.209, 114.930 102.500 C 114.526 118.450, 113.685 136.450, 113.061 142.500 C 110.477 167.577, 105.289 198.341, 99.908 220.500 C 98.963 224.392, 94.138 239.856, 89.768 253 C 88.579 256.575, 86.795 260.372, 85.804 261.439 C 81.591 265.967, 85.924 273.764, 91.871 272.354 C 95.551 271.482, 97.439 269.602, 99.537 264.720 C 100.534 262.399, 102.435 258.039, 103.761 255.032 C 105.087 252.025, 106.993 246.400, 107.996 242.532 C 108.999 238.664, 111.042 231.675, 112.536 227 C 117.166 212.511, 121.397 190.024, 125.988 155.500 C 126.500 151.650, 127.226 143.054, 127.601 136.398 L 128.283 124.295 147.392 123.704 C 171.031 122.973, 183.120 121.699, 203 117.843 C 219.167 114.708, 222.401 113.462, 223.520 109.938 C 223.889 108.774, 226.119 105.050, 228.476 101.661 C 234.340 93.230, 238.034 79.396, 236.124 73.020 C 232.904 62.272, 221.997 59.685, 198.500 64.095 C 192.450 65.230, 184.575 66.529, 181 66.981 C 172.538 68.051, 153.218 72.288, 145.144 74.844 C 141.649 75.951, 138.195 76.628, 137.469 76.350 C 135.556 75.616, 132.663 80.520, 133.363 83.309 C 134.808 89.067, 144.509 89.929, 161 85.765 C 173.386 82.638, 210.973 75.968, 216 76.005 C 221.961 76.049, 222.617 77.011, 221.241 83.694 C 220.583 86.887, 218.535 92.425, 216.690 96 L 213.334 102.500 204.417 103.258 C 199.513 103.675, 190.325 104.733, 184 105.609 C 177.675 106.485, 165.750 107.562, 157.500 108.004 C 143.072 108.775, 140.887 109.222, 130.750 113.479 C 129.125 114.162, 128.997 113.015, 128.953 97.357 C 128.928 88.086, 128.351 77.575, 127.673 74 L 126.439 67.500 129.970 65.285 C 135.884 61.575, 142.930 58.340, 167.589 48.009 C 172.588 45.914, 180.774 41.892, 185.779 39.071 C 197.314 32.568, 202.254 30.984, 213.779 30.090 C 224.160 29.285, 226.333 28.057, 226.333 22.992 C 226.333 17.631, 223.315 15.721, 214.310 15.383 C 210.015 15.221, 204.025 15.680, 201 16.401 M 212.273 135.449 C 193.190 139.789, 168.682 148.838, 160.500 154.566 C 152.944 159.854, 143 170.227, 143 172.819 C 143 174.844, 144.805 176, 147.970 176 C 150.143 176, 162.330 170.479, 166.433 167.636 C 169.286 165.658, 169.346 165.656, 168.617 167.551 C 166.379 173.368, 163 188.907, 163 193.381 L 163 198.543 154.250 200.769 C 149.438 201.993, 144.825 203.108, 144 203.247 C 142.778 203.453, 142.381 201.551, 141.861 193 C 141.279 183.449, 138.741 165.081, 137.405 160.749 C 136.459 157.682, 133.303 156.697, 131.191 158.809 C 128.199 161.801, 126.534 181.232, 127.424 202.785 C 129.312 248.562, 129.354 249.059, 131.441 250.583 C 133.914 252.388, 137.084 252.391, 139.547 250.589 C 141.613 249.078, 142.729 240.176, 142.913 223.725 C 142.997 216.201, 143.088 215.916, 145.750 214.891 C 147.262 214.309, 151.711 213.584, 155.635 213.280 L 162.770 212.729 163.467 220.114 C 163.850 224.176, 164.802 232.191, 165.582 237.924 C 166.362 243.657, 167 249.664, 167 251.273 C 167 258.138, 171.423 262.748, 176.688 261.371 C 179.674 260.591, 179.912 258.673, 178.421 247.405 C 177.700 241.957, 176.801 231.650, 176.425 224.500 L 175.739 211.500 184.120 209.633 C 188.729 208.607, 194.714 207.146, 197.420 206.387 C 200.126 205.628, 202.505 205.171, 202.706 205.373 C 202.907 205.574, 203.483 213.785, 203.984 223.619 C 206.145 265.951, 206.106 265.765, 212.416 264.582 C 219.262 263.297, 220.004 257.848, 217.990 223.650 C 217.434 214.218, 216.790 205.054, 216.558 203.287 C 216.150 200.167, 216.354 199.969, 223.561 196.503 C 232.946 191.989, 236.093 186.779, 232.965 180.934 C 231.781 178.722, 226.575 178.257, 225.300 180.250 C 224.860 180.938, 222.437 182.470, 219.916 183.657 L 215.331 185.813 214.281 168.157 C 213.560 156.041, 213.554 150.296, 214.261 149.851 C 216.403 148.502, 227.895 147.895, 231.732 148.928 C 236.279 150.152, 238.300 152.079, 240.462 157.254 C 242.546 162.243, 242.660 229.180, 240.611 244.681 C 239.026 256.666, 237.166 260.397, 230.973 264.008 C 227.387 266.100, 226.439 267.237, 226.191 269.747 C 225.955 272.144, 226.442 273.243, 228.272 274.443 C 230.469 275.882, 231.139 275.845, 236.548 273.983 C 243.958 271.434, 247.535 268.101, 251.043 260.477 C 255.945 249.824, 257.308 236.297, 257.391 197.500 C 257.466 162.010, 256.967 156.948, 252.555 148.443 C 250.159 143.825, 244.821 138.808, 240.065 136.705 C 234.245 134.130, 220.751 133.520, 212.273 135.449 M 189.008 157.355 C 182.654 159.752, 180.449 161.055, 180.248 162.529 C 180.101 163.613, 179.546 166.750, 179.014 169.500 C 177.837 175.595, 175.847 195.181, 176.354 195.687 C 176.555 195.888, 180.495 195.155, 185.110 194.058 C 189.724 192.961, 195.188 191.804, 197.250 191.486 L 201 190.909 201 183.251 C 201 174.699, 198.902 153.958, 198.050 154.075 C 197.747 154.117, 193.679 155.592, 189.008 157.355" stroke="none" fill="black" fill-rule="evenodd"/>
</svg>