<svg xmlns="http://www.w3.org/2000/svg" width="300" height="300" viewBox="0 0 300 300" version="1.1">
	<path d="M 207.500 28.975 C 205.621 29.655, 205.470 30.844, 205 48.599 L 204.500 67.500 201 67.743 C 196.612 68.049, 183.054 69.970, 180.853 70.599 C 179.382 71.019, 179.169 69.305, 178.853 54.454 C 178.539 39.684, 178.294 37.688, 176.650 36.486 C 175.306 35.503, 174.198 35.408, 172.596 36.138 C 168.184 38.149, 167.532 40.622, 167.166 56.750 C 166.863 70.118, 166.616 72.009, 165.160 72.073 C 164.247 72.113, 161.118 72.485, 158.207 72.899 L 152.913 73.653 153.707 66.576 C 154.780 57.001, 154.524 47.848, 153.109 45.204 C 151.390 41.992, 147.283 41.273, 144.805 43.750 C 143.125 45.431, 142.646 47.806, 141.905 58.132 C 140.637 75.811, 140.987 75, 134.630 75 C 125.110 75, 116.665 79.348, 117.205 83.971 C 117.496 86.466, 117.636 86.504, 127.489 86.789 C 132.983 86.948, 137.846 87.446, 138.297 87.897 C 138.747 88.347, 138.136 93.829, 136.941 100.080 C 133.345 118.873, 135.765 128.167, 145.500 132.963 C 150.076 135.217, 151.603 135.418, 163.500 135.334 L 176.500 135.243 176.197 144.371 C 176.030 149.392, 175.731 153.999, 175.533 154.608 C 175.334 155.218, 173.220 156.014, 170.836 156.378 C 156.792 158.518, 126.765 163.950, 119.543 165.657 C 111.247 167.617, 106.822 171.931, 108.977 175.957 C 110.769 179.305, 116.178 179.515, 128.888 176.731 C 143.906 173.441, 159.747 170.830, 168.250 170.241 L 175 169.774 175 179.862 L 175 189.950 172.509 189.003 C 167.738 187.189, 162.241 191.058, 157.161 199.804 C 155.148 203.271, 152.054 208.446, 150.286 211.304 C 148.518 214.162, 146.577 217.616, 145.973 218.980 C 145.369 220.343, 144.566 221.693, 144.187 221.980 C 143.809 222.266, 141.074 227.225, 138.108 233 C 135.143 238.775, 132.198 244.175, 131.565 245 C 130.932 245.825, 129.761 247.801, 128.962 249.391 C 128.164 250.982, 126.046 253.882, 124.255 255.837 C 120.499 259.937, 120.191 262.191, 123 265 C 129.562 271.562, 136.814 263.207, 159.016 223.500 C 166.213 210.629, 173.881 198, 174.499 198 C 174.675 198, 174.578 216.788, 174.283 239.750 C 173.839 274.276, 173.495 281.789, 172.293 283.168 C 170.083 285.703, 171.054 289.304, 174.250 290.423 C 178.289 291.838, 182.183 290.111, 184.248 285.989 C 185.844 282.805, 186.004 277.869, 186.073 229.500 C 186.114 200.350, 186.452 174.488, 186.824 172.028 L 187.500 167.556 196 166.204 C 213.688 163.390, 228.831 159.859, 235.536 156.985 C 239.607 155.240, 240 154.763, 240 151.571 C 240 145.864, 237.998 145.485, 223.215 148.398 C 216.222 149.776, 205.213 151.733, 198.750 152.749 L 187 154.594 187 144.422 L 187 134.250 190.052 133.640 C 191.731 133.304, 198.143 132.750, 204.302 132.408 C 218.995 131.592, 233.227 128.115, 237.114 124.390 C 240.647 121.006, 241.005 116.219, 237.932 113.438 C 235.969 111.662, 235.726 111.653, 233.182 113.265 C 227.392 116.934, 224.076 117.785, 213 118.449 C 206.675 118.828, 195.650 119.778, 188.500 120.560 C 174.715 122.067, 152.224 122.465, 150.427 121.235 C 149.837 120.831, 149.066 119.720, 148.714 118.766 C 147.942 116.672, 149.460 98.517, 151.004 91.374 L 152.113 86.247 159.153 85.554 C 163.025 85.172, 166.429 85.095, 166.716 85.383 C 167.004 85.670, 167.637 89.831, 168.123 94.628 C 169.364 106.869, 169.531 107, 183.945 107 C 191.553 107, 197.643 106.439, 201.540 105.380 C 204.818 104.488, 208.625 103.518, 210 103.223 C 211.375 102.929, 214.188 101.627, 216.250 100.331 C 219.139 98.516, 220 97.328, 220 95.156 C 220 91.916, 216.421 89.395, 213.066 90.273 C 210.586 90.921, 210.586 90.927, 212.869 84 L 214.681 78.500 222.591 75.846 C 230.587 73.163, 236 69.482, 236 66.726 C 236 65.899, 235.169 64.195, 234.153 62.941 C 232.363 60.729, 232.187 60.708, 228.366 62.237 C 226.198 63.104, 222.397 64.118, 219.919 64.489 L 215.412 65.165 215.456 49.833 C 215.501 34.038, 214.891 31.052, 211.227 29.149 C 210.277 28.655, 208.600 28.577, 207.500 28.975 M 93.419 41.282 C 91.175 44.702, 87.125 50.875, 84.419 55 C 81.714 59.125, 79.275 62.725, 79 63 C 78.725 63.275, 76.715 65.750, 74.534 68.500 C 72.353 71.250, 70.325 73.725, 70.028 74 C 69.731 74.275, 68.157 76.284, 66.530 78.464 C 64.902 80.645, 62.865 83.135, 62.003 83.997 C 61.140 84.860, 58.120 88.347, 55.291 91.746 C 52.463 95.145, 49.655 98.505, 49.051 99.213 C 46.284 102.461, 34.968 117.445, 30 124.441 C 26.975 128.700, 22.568 134.723, 20.206 137.824 C 14.640 145.133, 14.695 148.352, 20.396 148.819 C 23.884 149.105, 24.810 148.635, 29.263 144.319 C 31.997 141.669, 36.755 136.125, 39.835 132 C 48.147 120.869, 64.401 100.777, 66.862 98.589 C 68.045 97.539, 69.322 96.988, 69.699 97.366 C 70.565 98.232, 70.199 148.243, 68.977 196 C 68.463 216.075, 68.033 241.731, 68.022 253.013 C 68 273.314, 67.977 273.536, 65.750 274.521 C 63.782 275.391, 63.527 276.174, 63.718 280.765 C 63.981 287.076, 65.274 289.774, 68.653 291.058 C 74.307 293.208, 78.470 288.506, 80.075 278.158 C 81.153 271.210, 82.578 105.305, 81.614 98.900 C 81.150 95.811, 79.978 93.335, 78.047 91.359 L 75.171 88.418 80.358 81.959 C 85.775 75.215, 99 56.525, 99 55.615 C 99 55.325, 100.800 52.519, 103 49.379 C 108.998 40.817, 108.109 34.962, 100.821 35.032 C 97.866 35.060, 97.051 35.748, 93.419 41.282 M 198.500 81.125 C 196.300 81.543, 192.419 81.911, 189.875 81.942 C 187.331 81.974, 183.844 82.281, 182.125 82.625 C 179.100 83.230, 179 83.418, 179 88.518 C 179 91.824, 179.466 93.955, 180.250 94.239 C 181.616 94.734, 199.149 93.184, 199.824 92.509 C 200.298 92.035, 203.028 80.642, 202.708 80.474 C 202.594 80.414, 200.700 80.707, 198.500 81.125 M 190.250 192.624 C 188.343 193.452, 188.721 197.976, 190.750 198.604 C 196.484 200.379, 199.935 202.947, 207.732 211.240 C 220.668 224.999, 227.123 231.037, 241.500 242.820 C 248.650 248.680, 256.942 255.843, 259.927 258.737 C 265.772 264.406, 268.592 265.213, 271.464 262.040 C 275.332 257.766, 271.332 251.016, 258.926 240.886 C 243.775 228.513, 229.750 216.537, 224.963 211.883 C 217.085 204.224, 210.241 198.762, 204.728 195.736 C 200.012 193.147, 192.675 191.570, 190.250 192.624" stroke="none" fill="black" fill-rule="evenodd"/>
</svg>