<svg xmlns="http://www.w3.org/2000/svg" width="300" height="300" viewBox="0 0 300 300" version="1.1">
	<path d="M 198.752 22.750 C 194.007 28.078, 192.769 32.719, 191.938 48.297 C 191.491 56.659, 190.823 65.366, 190.452 67.647 C 189.690 72.328, 189.612 72.363, 176 74 C 171.875 74.496, 167.037 75.205, 165.250 75.576 L 162 76.250 162.019 68.875 C 162.030 64.819, 162.691 57, 163.488 51.500 C 166.095 33.501, 165.070 25.284, 160.326 26.162 C 159.264 26.359, 157.210 29.038, 155.417 32.568 C 152.262 38.779, 151.460 43.879, 149.419 70.750 C 148.804 78.843, 148.741 79, 146.146 79.012 C 144.691 79.018, 141.025 79.688, 138 80.499 C 134.975 81.310, 129.575 82.224, 126 82.529 C 110.690 83.837, 104 86.402, 104 90.966 C 104 93.468, 108.604 96.997, 111.885 97.010 C 115.207 97.023, 134.547 94.192, 142.750 92.493 L 149 91.198 149 94.599 C 149 97.150, 148.570 98, 147.278 98 C 142.954 98, 131.764 102.510, 127.915 105.805 C 124.497 108.730, 123.490 109.142, 122.138 108.168 C 117.946 105.146, 116.073 105.432, 113.407 109.501 C 112.021 111.617, 111.899 112.713, 112.762 115.305 C 113.346 117.062, 116.114 125.113, 118.912 133.196 C 121.711 141.278, 124 148.750, 124 149.800 C 124 152.344, 128.416 157, 130.830 157 C 134.187 157, 135.364 154.334, 135.171 147.164 C 135.072 143.475, 134.543 138.894, 133.996 136.985 C 133.448 135.075, 133 133.245, 133 132.917 C 133 131.677, 138.427 129.925, 144.105 129.331 L 150 128.715 150 138.666 C 150 150.189, 151.052 152.706, 155.410 151.612 C 159.122 150.680, 161 145.782, 161 137.032 L 161 130 166.250 129.993 C 169.137 129.989, 174.487 129.704, 178.138 129.359 L 184.776 128.732 183.805 134.116 C 183.271 137.077, 181.939 140.955, 180.845 142.734 C 178.194 147.046, 178.746 150.196, 182.376 151.467 C 185.032 152.398, 185.546 152.142, 189.125 148.109 C 192.793 143.976, 197 133.736, 197 128.940 C 197 127.613, 197.919 126.962, 200.250 126.637 C 208.057 125.546, 216.674 124.056, 218.748 123.437 C 220.835 122.816, 220.955 123.009, 220.414 126.134 C 219.484 131.504, 217.696 136.421, 213.503 145.133 C 210.570 151.226, 210.741 154.466, 214.051 155.516 C 217.500 156.611, 219.569 155.114, 224.416 148.020 C 228.017 142.751, 230.237 137.736, 233.595 127.285 C 240.821 104.801, 240.521 99.734, 231.657 94.539 C 227.612 92.168, 226.451 92, 214.162 92 L 201 92 201 89.565 C 201 83.656, 202.359 82.393, 210.166 81.049 C 214.200 80.354, 220.425 78.372, 224 76.643 C 229.283 74.088, 230.557 73.009, 230.804 70.876 C 231.203 67.434, 228.642 64.991, 224.679 65.035 C 222.930 65.054, 217.450 66.138, 212.500 67.443 L 203.500 69.818 203.198 67.058 C 203.031 65.539, 203.594 57.647, 204.448 49.519 C 206.447 30.482, 206.443 24.586, 204.429 22.571 C 202.387 20.530, 200.681 20.584, 198.752 22.750 M 87.846 48.516 C 86.022 50.449, 81.792 57.312, 78.446 63.766 C 71.746 76.686, 68.893 81.785, 66.102 85.822 C 65.084 87.295, 60.965 93.450, 56.949 99.500 C 52.933 105.550, 47.814 112.845, 45.574 115.712 C 43.333 118.579, 39.773 123.149, 37.662 125.868 C 35.552 128.587, 33.077 131.646, 32.162 132.666 C 31.248 133.686, 28.707 136.766, 26.515 139.510 C 24.323 142.255, 21.795 145.308, 20.897 146.296 C 20 147.284, 18.447 149.612, 17.446 151.470 C 15.204 155.633, 16.606 158, 21.315 158 C 23.868 158, 25.908 156.442, 33.442 148.738 C 44.751 137.175, 49.180 131.820, 60.500 116.029 L 69.500 103.475 69.140 164.987 C 68.687 242.450, 69.621 288.478, 71.688 290.545 C 74.090 292.948, 78.898 292.399, 79.961 289.602 C 81.135 286.516, 81.424 104.504, 80.262 100.577 C 79.786 98.969, 78.520 97.169, 77.449 96.577 C 76.377 95.984, 75.330 95.405, 75.122 95.289 C 74.914 95.173, 76.874 91.661, 79.477 87.485 C 86.466 76.271, 98 53.332, 98 50.645 C 98 48.033, 95.180 45, 92.753 45 C 91.878 45, 89.670 46.582, 87.846 48.516 M 175.500 87.053 C 170.550 88.058, 165.262 88.907, 163.750 88.940 C 161.285 88.994, 161 89.363, 161 92.500 C 161 94.644, 161.484 95.992, 162.250 95.979 C 163.172 95.964, 186.721 93.230, 187.645 93.031 C 187.725 93.014, 187.962 91.200, 188.171 89 C 188.622 84.277, 188.935 84.325, 175.500 87.053 M 202.828 105.724 C 199.413 106.084, 199.110 106.392, 198.479 110.123 C 198.106 112.330, 198.084 114.418, 198.430 114.763 C 198.776 115.109, 202.825 114.848, 207.428 114.182 C 216.373 112.889, 221 113.670, 221 116.475 C 221 117.314, 221.414 118, 221.921 118 C 222.816 118, 223.238 116.531, 224.577 108.750 L 225.223 105 215.861 105.168 C 210.713 105.261, 204.848 105.511, 202.828 105.724 M 174 107.689 C 161.972 108.250, 161 108.613, 161 112.545 L 161 116 173.375 116 L 185.750 116 186.375 112.875 C 187.459 107.456, 187.242 106.986, 183.750 107.193 C 181.963 107.299, 177.575 107.522, 174 107.689 M 143.270 112.054 C 140.943 112.513, 136.948 113.814, 134.393 114.944 C 131.837 116.075, 129.128 117, 128.373 117 C 126.641 117, 126.653 117.205, 128.620 121.329 L 130.239 124.725 134.370 122.475 C 136.641 121.238, 140.863 119.680, 143.750 119.013 C 148.816 117.843, 149 117.682, 149 114.400 C 149 112.530, 148.662 111.049, 148.250 111.110 C 147.838 111.170, 145.596 111.595, 143.270 112.054 M 203.587 150.859 C 203.296 151.331, 200.457 151.983, 197.278 152.308 C 194.100 152.634, 185.875 153.593, 179 154.441 C 172.125 155.289, 161.775 155.989, 156 155.997 C 143.780 156.013, 138.577 157.190, 136.464 160.415 C 134.068 164.071, 135.933 167.427, 141.552 169.573 C 145.837 171.209, 147.355 171.257, 159.368 170.129 C 199.102 166.400, 208.762 163.922, 211.289 156.814 C 212.530 153.323, 205.449 147.847, 203.587 150.859 M 183 182.032 C 176.125 182.416, 167.037 182.501, 162.805 182.221 C 155.326 181.726, 149 183.047, 149 185.102 C 149 185.575, 147.084 185.699, 144.742 185.378 C 140.579 184.808, 140.431 184.888, 138.151 188.945 C 135.821 193.091, 135.819 193.120, 136.345 221.797 C 136.939 254.215, 137.856 263.634, 140.642 265.953 C 141.664 266.804, 142.956 268.837, 143.514 270.471 C 144.108 272.212, 146.385 274.696, 149.014 276.471 C 153.103 279.232, 154.352 279.530, 163.117 279.840 C 170.423 280.097, 174.509 279.700, 180.117 278.186 C 184.178 277.089, 189.702 275.924, 192.394 275.596 C 206.893 273.827, 215.595 268.890, 213.295 263.736 C 212.568 262.105, 212.800 260.445, 214.201 257.279 C 217.013 250.921, 217.984 239.244, 217.992 211.673 L 218 186.846 215.077 183.923 C 212.279 181.125, 211.798 181.007, 203.827 181.167 C 199.247 181.259, 189.875 181.648, 183 182.032 M 196.848 194.486 C 196.581 194.753, 186.718 195.222, 174.931 195.528 C 163.144 195.834, 152.488 196.177, 151.250 196.292 C 149.022 196.498, 149 196.651, 149 212.083 C 149 220.654, 149.252 227.919, 149.560 228.227 C 149.868 228.535, 152.456 228.165, 155.310 227.405 C 158.165 226.646, 163.425 226.014, 167 226.001 C 170.575 225.989, 179.686 225.322, 187.247 224.520 C 194.808 223.717, 201.671 223.320, 202.497 223.637 C 203.793 224.135, 204 222.137, 204 209.107 L 204 194 200.667 194 C 198.833 194, 197.115 194.219, 196.848 194.486 M 201.495 234.032 C 196.068 237.402, 187.933 238.738, 168.250 239.493 L 149 240.231 149 252.536 L 149 264.841 155.250 265.504 C 162.255 266.248, 179.142 264.753, 189 262.516 C 192.575 261.705, 196.875 261.032, 198.556 261.021 L 201.612 261 202.783 252.250 C 204.350 240.549, 205.216 231.981, 204.822 232.083 C 204.645 232.128, 203.148 233.005, 201.495 234.032" stroke="none" fill="black" fill-rule="evenodd"/>
</svg>