<svg xmlns="http://www.w3.org/2000/svg" width="300" height="300" viewBox="0 0 300 300" version="1.1">
	<path d="M 99.180 11.309 C 97.987 12.578, 95.948 16.741, 94.648 20.559 C 92.258 27.579, 84.165 44.737, 79.346 53 C 74.483 61.339, 64.605 76.484, 62.715 78.500 C 61.684 79.600, 59.013 83.313, 56.781 86.750 C 54.548 90.187, 52.334 93, 51.861 93 C 51.387 93, 51 93.487, 51 94.082 C 51 94.954, 45.104 102.975, 42.974 105 C 42.685 105.275, 40.897 107.525, 39 110 C 37.103 112.475, 35.305 114.725, 35.003 115 C 34.702 115.275, 32.327 118.397, 29.727 121.938 C 24.800 128.648, 23.788 132.749, 26.503 135.003 C 29.987 137.894, 32.911 136.491, 40.820 128.138 C 53.988 114.229, 59.942 107.482, 66.216 99.355 L 72.281 91.500 71.631 115 C 71.273 127.925, 70.320 150.425, 69.512 165 C 68.667 180.249, 68.034 209.646, 68.021 234.239 C 68.001 274.196, 68.127 277.312, 69.947 282.101 C 71.017 284.919, 72.662 288.074, 73.602 289.112 C 75.319 291.009, 79.551 291.603, 81.600 290.235 C 84.990 287.971, 86.078 280.009, 83.468 276.559 C 81.468 273.915, 81.480 207.814, 83.488 167.500 C 84.282 151.550, 85.242 126.261, 85.621 111.301 C 86.244 86.724, 86.141 83.659, 84.553 79.499 L 82.794 74.895 87.784 66.697 C 90.528 62.189, 93.785 56.475, 95.021 54 C 96.257 51.525, 97.598 49.275, 98 49 C 99.115 48.238, 102.630 40.859, 103.397 37.670 C 103.772 36.113, 105.473 31.887, 107.178 28.279 C 108.883 24.671, 110.499 19.749, 110.771 17.342 C 111.184 13.671, 110.895 12.644, 108.979 10.982 C 105.925 8.333, 101.848 8.469, 99.180 11.309 M 174.242 24.353 C 173.001 25.580, 170.599 29.266, 168.906 32.542 C 163.575 42.856, 156.190 51.822, 129.740 80.095 C 123.272 87.009, 116.169 95.104, 113.956 98.083 C 111.743 101.062, 108.373 104.940, 106.466 106.699 C 104.560 108.458, 103 110.735, 103 111.758 C 103 117.641, 110.226 119.293, 116.483 114.841 C 118.461 113.434, 124.449 107.412, 129.790 101.461 C 136.548 93.929, 139.599 91.156, 139.827 92.339 C 140.007 93.274, 139.450 99.767, 138.589 106.769 C 137.729 113.771, 136.343 131.650, 135.509 146.500 C 134.676 161.350, 133.764 175.300, 133.484 177.500 C 132.205 187.532, 131.166 232.495, 132.185 233.723 C 133.462 235.262, 137.410 235.386, 140.055 233.970 C 142.698 232.556, 145 227.783, 145 223.716 C 145 219.626, 145.822 218.608, 147.800 220.249 C 149.921 222.009, 164.111 221.475, 178 219.112 C 184.325 218.035, 193.775 216.846, 199 216.468 C 208.778 215.760, 224.430 212.999, 229.198 211.141 C 233.291 209.545, 235.240 205.988, 233.988 202.396 C 232.266 197.456, 230.001 196.717, 221.712 198.390 C 217.745 199.190, 210.469 200.166, 205.543 200.558 C 197.422 201.204, 196.732 201.125, 198.149 199.709 C 199.972 197.885, 201.469 190.655, 203.055 176 C 203.680 170.225, 204.532 164.825, 204.949 164 C 205.365 163.175, 210.610 160.823, 216.603 158.773 C 228.838 154.588, 232 152.060, 232 146.463 C 232 143.675, 231.551 142.925, 229.582 142.431 C 226.804 141.734, 218.193 143.353, 210.375 146.043 L 205 147.892 205 136.996 L 205 126.101 210.750 124.967 C 213.912 124.343, 220.325 121.958, 225 119.666 C 232.367 116.055, 233.543 115.125, 233.823 112.685 C 234 111.137, 233.427 108.775, 232.550 107.435 C 230.615 104.482, 224.982 104.125, 219.218 106.590 C 214.636 108.548, 206.934 110.975, 205.250 110.989 C 204.326 110.997, 204 108.177, 204 100.188 L 204 89.377 219.146 87.208 C 227.847 85.962, 235.320 84.365, 236.707 83.457 C 239.897 81.366, 239.434 77.392, 235.676 74.599 C 233.188 72.750, 231.638 72.525, 222.676 72.706 C 214.692 72.868, 212.931 72.670, 214.500 71.786 C 217.871 69.887, 220.804 65.858, 221.495 62.177 C 222.284 57.968, 221.127 42.209, 219.849 39.760 C 218.514 37.203, 213.389 34.864, 210.634 35.556 C 205.936 36.735, 204.967 42.563, 207.567 53.994 C 208.720 59.064, 208.852 61.408, 208.067 62.875 C 206.152 66.453, 206.745 70.970, 209.250 71.897 C 211.397 72.692, 211.363 72.757, 208.500 73.309 C 205.810 73.827, 183.380 77.569, 169 79.897 C 160.754 81.232, 155.358 83.920, 153.317 87.710 C 151.670 90.769, 151.664 91.092, 153.226 92.655 C 156.199 95.628, 169.149 95.535, 186 92.420 L 188.500 91.957 188.500 103.714 L 188.500 115.470 181.500 117.153 C 177.650 118.079, 172.153 118.874, 169.284 118.918 C 159.991 119.064, 153.947 123.668, 155.408 129.489 C 156.830 135.155, 165.447 136.087, 181.868 132.351 C 185.370 131.554, 188.520 131.186, 188.868 131.534 C 189.215 131.881, 189.500 136.721, 189.500 142.287 L 189.500 152.409 186 153.315 C 178.366 155.290, 166.315 159.398, 163.015 161.150 C 161.098 162.167, 158.825 163, 157.965 163 C 153.841 163, 152.554 169.554, 156 173 C 159.059 176.059, 167.689 175.708, 177.023 172.147 C 181.135 170.578, 185.625 169.022, 187 168.690 L 189.500 168.087 188.796 182.099 C 188.023 197.476, 188.645 200.928, 192.225 201.125 C 193.476 201.193, 192.250 201.601, 189.500 202.030 C 186.750 202.459, 178.425 203.759, 171 204.918 C 152.272 207.842, 152.428 207.798, 148.880 211.112 L 145.707 214.076 146.315 199.288 C 146.650 191.155, 147.830 172.800, 148.939 158.500 C 150.980 132.167, 151.469 103.098, 150.117 88.500 L 149.375 80.500 157.511 71 C 165.677 61.464, 178 45.579, 178 44.588 C 178 44.297, 179.399 42.073, 181.110 39.647 C 183.034 36.917, 184.411 33.536, 184.722 30.778 C 185.169 26.811, 184.922 26.084, 182.477 24.161 C 179.048 21.464, 177.119 21.509, 174.242 24.353 M 256.200 229.200 C 255.540 229.860, 255 231.845, 255 233.612 C 255 238.129, 257.631 251.360, 259.301 255.246 C 260.071 257.035, 262.203 262.100, 264.039 266.500 C 270.238 281.358, 273.570 284.822, 278.533 281.570 C 282.356 279.066, 282.457 276.132, 279.055 266.379 C 277.352 261.496, 275.294 254.584, 274.483 251.020 C 273.671 247.450, 271.721 242.734, 270.142 240.520 C 268.565 238.309, 266.476 234.925, 265.498 233 C 264.521 231.075, 263.221 229.169, 262.610 228.765 C 260.904 227.636, 257.535 227.865, 256.200 229.200 M 210.073 242.635 C 208.357 244.816, 208.004 246.668, 208.022 253.385 C 208.046 262.400, 209.739 267.357, 215.105 274.132 C 218.955 278.994, 222.701 281, 227.927 281 C 235.387 281, 237.142 273.339, 230.333 270.495 C 226.400 268.852, 222.691 261.918, 221.014 253.075 C 219.770 246.517, 216.219 240, 213.888 240 C 212.930 240, 211.212 241.186, 210.073 242.635 M 133.674 247.469 C 132.734 248.408, 132 250.708, 132 252.710 C 132 254.672, 131.470 261.361, 130.822 267.574 C 129.099 284.106, 131.338 289.723, 138.557 286.978 C 141.074 286.022, 141.485 284.817, 144.360 270 C 146.569 258.618, 146.460 252.131, 144.011 249.194 C 141.473 246.149, 135.921 245.222, 133.674 247.469 M 159.975 254.750 C 158.243 256.945, 157.920 258.343, 158.373 261.676 C 159.040 266.577, 164.342 279.134, 167.659 283.668 C 171.698 289.189, 179 289.049, 179 283.450 C 179 280.201, 174.565 264.006, 172.406 259.372 C 168.837 251.712, 163.839 249.854, 159.975 254.750" stroke="none" fill="black" fill-rule="evenodd"/>
</svg>