<svg xmlns="http://www.w3.org/2000/svg" width="300" height="300" viewBox="0 0 300 300" version="1.1">
	<path d="M 106.217 29.673 C 105.511 29.957, 101.141 35.884, 96.505 42.844 C 87.789 55.933, 80.337 65.134, 61.500 86.068 C 47.402 101.736, 46 103.690, 46 107.675 C 46 110.373, 46.462 111.078, 48.577 111.609 C 52.339 112.553, 55.557 110.525, 64.088 101.833 L 71.676 94.102 72.338 137.715 C 72.702 161.702, 73 202.754, 73 228.942 C 73 281.186, 72.981 281.018, 78.807 280.985 C 86.458 280.941, 86.270 283.447, 85.071 197.512 C 83.675 97.446, 83.858 101.095, 79.549 87.500 C 79.067 85.977, 80.664 83.472, 86.243 77 C 93.879 68.142, 105.681 51.872, 110.310 43.822 C 115.540 34.727, 113.259 26.845, 106.217 29.673 M 150.452 33.077 C 150.086 33.670, 149.150 36.885, 148.371 40.223 C 146.797 46.969, 146.286 48.201, 137.674 65.974 C 130.789 80.185, 128.027 84.553, 121.705 91.236 C 119.241 93.841, 116.983 96.602, 116.688 97.371 C 115.735 99.854, 118.855 102.997, 122.307 103.032 C 124.063 103.049, 126.374 103.724, 127.441 104.532 C 129.933 106.416, 139.948 106.466, 144.377 104.616 L 147.689 103.232 146.912 106.866 C 143.576 122.469, 137.296 140.622, 134.463 142.850 C 133.155 143.880, 131.549 145.896, 130.895 147.331 C 129.251 150.940, 131.116 153, 136.030 153 C 139.302 153, 140.419 152.328, 144.276 148.038 C 148.884 142.913, 151.224 137.887, 155.001 125 C 156.211 120.875, 158.074 114.648, 159.142 111.161 C 164.601 93.343, 168.659 58.419, 166.013 52.030 C 165.258 50.210, 163.764 48.728, 162.317 48.365 C 160.025 47.789, 159.923 47.462, 160.528 42.620 C 161.071 38.279, 160.836 37.062, 159.012 34.743 C 156.775 31.899, 151.781 30.927, 150.452 33.077 M 212.768 45.250 C 210.652 46.888, 205.042 58.968, 204.314 63.453 C 203.585 67.946, 203.015 68.355, 194 70.864 C 186.018 73.086, 181.665 76.504, 180.400 81.543 C 179.695 84.353, 182.013 86.910, 185.318 86.968 C 187.053 86.999, 187.049 87.126, 185.223 89.750 C 178.269 99.743, 176.168 110.401, 180.152 115.467 C 182.209 118.082, 182.620 118.184, 189.402 117.761 C 193.306 117.519, 197.206 117.006, 198.068 116.623 C 199.718 115.889, 200.118 117.849, 203.150 141.500 C 203.784 146.450, 204.740 151.063, 205.274 151.750 C 205.808 152.438, 207.524 153, 209.087 153 C 213.936 153, 214.374 150.766, 213.687 129.533 L 213.071 110.500 217.785 108.297 C 226.281 104.327, 236.285 97.463, 237.207 94.970 C 238.432 91.657, 236.377 88, 233.289 88 C 231.984 88, 228.123 89.295, 224.708 90.877 C 221.294 92.459, 217.419 94.086, 216.097 94.493 C 213.717 95.225, 213.700 95.181, 214.338 89.866 C 214.693 86.915, 214.987 83.120, 214.991 81.434 C 214.999 78.664, 215.595 78.085, 221.168 75.434 C 232.017 70.274, 234.215 67.315, 230.020 63.518 C 228.297 61.959, 227.357 61.863, 222.770 62.773 C 219.872 63.348, 217.357 63.679, 217.183 63.509 C 217.009 63.339, 217.433 59.499, 218.125 54.977 C 219.305 47.268, 219.266 46.668, 217.501 45.377 C 215.190 43.688, 214.799 43.677, 212.768 45.250 M 151.628 67.858 C 150.703 68.881, 148.128 73.493, 145.905 78.108 C 143.683 82.724, 140.236 88.179, 138.247 90.232 C 136.258 92.284, 134.862 94.195, 135.145 94.479 C 135.962 95.295, 140.260 95.348, 143.074 94.577 C 144.864 94.086, 146.044 94.348, 146.947 95.436 C 148.995 97.904, 149.775 97.313, 150.493 92.750 C 150.862 90.412, 152.026 84.154, 153.081 78.843 C 155.216 68.100, 155.391 66, 154.155 66 C 153.690 66, 152.553 66.836, 151.628 67.858 M 198.250 82.662 C 197.563 82.940, 197 84.014, 197 85.049 C 197 86.085, 196.358 88.410, 195.574 90.216 C 193.978 93.892, 191.006 103.339, 191.340 103.673 C 191.626 103.959, 199.075 102.272, 199.448 101.837 C 200.194 100.967, 201.022 82.010, 200.310 82.079 C 199.865 82.122, 198.938 82.385, 198.250 82.662 M 174.362 146.250 C 171.023 150.979, 169.691 155.165, 168.709 164.015 L 167.613 173.890 163.056 175.479 C 160.550 176.353, 156.025 177.751, 153 178.586 C 149.975 179.420, 147.072 180.530, 146.550 181.052 C 146.028 181.573, 144.761 182, 143.734 182 C 140.306 182, 127.541 188.689, 124.159 192.257 C 121.875 194.668, 120.768 196.844, 120.659 199.141 C 120.519 202.096, 120.825 202.538, 123.206 202.812 C 124.767 202.992, 127.095 202.267, 128.706 201.098 C 131.364 199.171, 163.507 188, 166.395 188 C 168.203 188, 168.970 191.144, 168.986 198.629 C 168.999 204.503, 168.875 204.809, 165.995 206.002 C 162.357 207.509, 157.770 212.567, 154.863 218.278 C 152.915 222.105, 132.339 253.809, 131.030 255 C 130.728 255.275, 129.610 257.161, 128.545 259.191 C 127.480 261.220, 125.629 263.127, 124.432 263.428 C 121.509 264.161, 120.411 269.452, 122.515 272.664 C 126.270 278.394, 134.012 273.535, 143.223 259.667 C 145.575 256.125, 150.425 249.013, 154 243.864 C 157.575 238.714, 162.429 231.126, 164.786 227 L 169.072 219.500 168.697 251 C 168.464 270.588, 167.910 283.494, 167.232 285.129 C 164.937 290.663, 172.312 294.628, 176.433 290.074 C 179.370 286.828, 179.965 276.435, 179.901 229.500 L 179.839 184.500 187.669 181.820 C 191.976 180.346, 196.275 179.109, 197.221 179.070 C 199.652 178.971, 210.054 174.255, 212.354 172.209 C 213.411 171.269, 214.915 168.989, 215.696 167.143 C 216.968 164.137, 216.937 163.588, 215.403 161.893 C 213.185 159.442, 210.175 159.487, 207.488 162.012 C 206.310 163.118, 202.906 164.717, 199.923 165.565 C 195.398 166.851, 180.085 170.852, 179.250 170.966 C 178.519 171.066, 179.146 153.979, 179.980 151.071 C 180.658 148.705, 180.621 147.248, 179.857 146.328 C 178.467 144.653, 175.519 144.611, 174.362 146.250 M 185.607 210.582 C 184.553 213.328, 184.899 213.907, 189.250 216.688 C 191.588 218.182, 199.575 225.286, 207 232.473 C 214.425 239.661, 223.371 247.558, 226.881 250.021 C 230.391 252.484, 234.143 255.327, 235.220 256.339 C 238.110 259.053, 244.897 261.840, 247.171 261.245 C 250.618 260.344, 251.326 256.352, 248.827 251.906 C 247.620 249.758, 246.288 248, 245.867 248 C 245.447 248, 243.995 246.988, 242.640 245.750 C 241.285 244.512, 239.173 242.825, 237.946 242 C 235.573 240.405, 233.091 238.253, 226.230 231.842 C 209.555 216.262, 187.797 204.875, 185.607 210.582" stroke="none" fill="black" fill-rule="evenodd"/>
</svg>