<svg xmlns="http://www.w3.org/2000/svg" width="300" height="300" viewBox="0 0 300 300" version="1.1">
	<path d="M 144.564 29.942 C 141.563 32.660, 137.846 35.694, 136.304 36.684 C 134.762 37.674, 133.050 38.850, 132.500 39.298 C 131.950 39.746, 127.747 42.763, 123.160 46.003 C 111.042 54.563, 100.660 64.823, 98.742 70.135 C 97.947 72.335, 100.644 76, 103.057 76 C 104.879 76, 105.015 76.886, 105.235 90.250 C 105.365 98.088, 105.477 112.150, 105.485 121.500 L 105.500 138.500 108.354 138.826 C 111.656 139.204, 115.493 136.155, 116.434 132.405 C 116.938 130.397, 117.660 130, 120.809 130 C 122.883 130, 127.171 129.325, 130.339 128.500 C 133.506 127.675, 136.348 127, 136.655 127 C 136.961 127, 137.050 130.566, 136.852 134.924 C 136.362 145.708, 135.351 146.671, 118.890 152.036 C 107.418 155.775, 103.444 157.798, 97.193 163.081 C 96.474 163.689, 96.024 165.142, 96.193 166.310 C 96.896 171.166, 108.406 170.747, 122.958 165.335 C 131.437 162.182, 132.822 162.520, 129.548 166.944 C 128.147 168.839, 127 170.920, 127 171.569 C 127 173.035, 122.119 183.820, 112.323 204 C 108.185 212.525, 104.357 220.625, 103.816 222 C 102.400 225.599, 99.760 230.871, 96.970 235.671 C 94.590 239.766, 94.581 239.879, 96.428 241.921 C 99.169 244.950, 102.464 244.479, 106.961 240.416 C 109.947 237.718, 113.258 232.160, 120.354 217.931 C 128.192 202.213, 129.987 199.279, 131.012 200.515 C 132.901 202.791, 134.170 202.375, 140.575 197.380 C 147.653 191.861, 154.216 188.485, 156.307 189.288 C 158.343 190.069, 159.457 200.808, 158.657 211.937 C 157.431 228.999, 153.800 247.048, 148.687 261.500 C 144.586 273.092, 145.218 272.362, 141.779 269.468 C 138.551 266.751, 135.551 266.865, 133.250 269.792 C 131.383 272.167, 131.720 274.596, 134.533 279.052 C 141.875 290.682, 154.664 286.422, 160.686 270.339 C 163.790 262.049, 167.439 249.206, 170.160 237 C 172.138 228.124, 172.500 223.715, 172.500 208.493 C 172.500 190.921, 172.431 190.324, 169.641 183.753 C 167.025 177.590, 166.454 176.930, 162.902 175.974 C 157.465 174.510, 149.419 175.747, 143.317 178.985 L 138.134 181.735 140.110 176.722 C 141.197 173.964, 142.517 170.903, 143.043 169.920 C 143.569 168.936, 144 165.852, 144 163.066 C 144 159.183, 144.358 158, 145.532 158 C 146.374 158, 151.662 156.646, 157.282 154.990 C 170.304 151.155, 174.103 147.118, 169.020 142.518 C 167.228 140.897, 166.158 140.825, 157.770 141.767 C 152.671 142.340, 148.427 142.739, 148.337 142.654 C 148.247 142.569, 148.565 140.475, 149.043 138 C 149.522 135.525, 149.932 130.995, 149.956 127.933 L 150 122.365 155.750 120.509 C 158.912 119.489, 162.692 118.761, 164.150 118.892 C 171.549 119.557, 180.205 95.211, 182.034 68.587 C 183.401 48.682, 181.830 47.370, 162.795 52.510 C 157.683 53.890, 149.900 56.138, 145.500 57.505 C 141.100 58.872, 135.025 60.276, 132 60.624 C 128.975 60.973, 125.037 61.852, 123.250 62.578 C 119.092 64.267, 119.050 63.019, 123.179 60.466 C 140.862 49.530, 147.542 44.772, 153.750 38.685 C 160.529 32.039, 161.487 29.155, 157.777 26.557 C 153.780 23.757, 150.453 24.609, 144.564 29.942 M 86.808 34.250 C 85.471 36.038, 82.436 40.875, 80.063 45 C 73.857 55.789, 65.917 69.454, 60.019 79.500 C 55.569 87.081, 41.785 106.388, 38.959 109 C 38.095 109.799, 24.621 128.314, 23.308 130.508 C 19.634 136.643, 15.919 145.416, 16.189 147.314 C 16.422 148.953, 17.291 149.577, 19.662 149.807 C 23.117 150.142, 23.417 149.846, 32.739 136.875 C 35.357 133.231, 39.750 127.417, 42.500 123.955 C 45.250 120.493, 50.380 114.024, 53.900 109.580 L 60.301 101.500 59.411 171.500 C 58.328 256.772, 58.298 279.691, 59.263 283.183 C 60.505 287.675, 66.176 288.150, 68.780 283.980 C 70.378 281.422, 70.658 272.041, 72.126 172 C 73.149 102.313, 73.108 93.098, 71.760 89.916 C 70.088 85.971, 71.079 81.840, 74.347 79.127 C 75.256 78.373, 76 77.338, 76 76.829 C 76 76.320, 77.752 73.265, 79.894 70.040 C 85.618 61.422, 89.528 53.498, 92.427 44.636 C 95.316 35.806, 95.524 33.924, 93.800 32.200 C 91.755 30.155, 89.339 30.864, 86.808 34.250 M 222.866 55.307 C 221.967 55.991, 220.474 58.790, 219.549 61.526 C 209.790 90.374, 202.873 105.313, 191.562 121.973 C 182.689 135.044, 181.992 138.324, 188 138.746 C 192.390 139.054, 192.835 138.680, 202.782 126.366 C 210.668 116.602, 211.141 116.208, 215.733 115.562 C 223.088 114.529, 228.743 112.613, 239.500 107.511 C 242.250 106.207, 245.389 104.859, 246.476 104.515 C 248.375 103.914, 248.369 103.980, 246.345 106.194 C 244.276 108.457, 237.549 119.777, 233.786 127.327 C 232.737 129.432, 231.048 134.382, 230.032 138.327 C 229.016 142.272, 227.314 147.975, 226.250 151 C 225.185 154.025, 223.742 158.300, 223.042 160.500 C 222.342 162.700, 221.177 165.850, 220.453 167.500 C 219.729 169.150, 218.983 171.400, 218.795 172.500 C 218.310 175.350, 214.242 161.938, 213.085 153.673 C 211.651 143.429, 207.661 139.090, 203.872 143.653 C 202.267 145.586, 200.156 154.831, 200.064 160.329 C 199.992 164.633, 205.969 180.995, 210.902 190 C 211.354 190.825, 211.280 192.625, 210.738 194 C 210.195 195.375, 209.402 197.400, 208.975 198.500 C 206.354 205.257, 195.364 226.316, 192.897 229.308 C 189.955 232.878, 189.951 232.879, 186.996 231.190 C 183.208 229.026, 180.626 230.427, 180.184 234.888 C 179.934 237.404, 180.535 238.697, 183.040 241.037 C 191.799 249.220, 202.931 241.016, 215.016 217.470 C 217.971 211.711, 220.639 207.021, 220.945 207.047 C 221.250 207.072, 224.650 211.661, 228.500 217.244 C 239.130 232.659, 256.478 254.465, 265.970 264.345 C 278.293 277.171, 285.337 280.720, 290.033 276.470 C 292.466 274.268, 292.543 270.787, 290.250 266.657 C 288.135 262.848, 286.089 261.074, 283.759 261.032 C 282.801 261.014, 280.656 259.576, 278.993 257.835 C 265.979 244.218, 252.127 227.973, 249.763 223.557 C 249.191 222.488, 247.722 220.535, 246.499 219.216 C 245.276 217.897, 242.751 214.349, 240.888 211.333 C 239.024 208.316, 236.042 203.969, 234.260 201.674 C 232.478 199.378, 231.015 197.119, 231.010 196.654 C 231.004 196.189, 230.062 194.491, 228.915 192.880 L 226.829 189.951 228.888 184.726 C 234.658 170.084, 237.692 161.084, 242.448 144.500 C 243.868 139.550, 246.641 130.775, 248.611 125 C 254.443 107.907, 254.554 107.411, 252.910 105.767 C 252.115 104.972, 250.832 104.111, 250.060 103.853 C 249.223 103.574, 250.868 102.137, 254.137 100.292 C 261.650 96.052, 266.365 90.592, 265.498 87.137 C 264.164 81.820, 261.316 81.769, 251.702 86.892 C 239.853 93.207, 219.757 101.089, 220.471 99.142 C 224.444 88.322, 226.774 82.540, 229.156 77.590 C 233.287 69.008, 232.857 58.893, 228.211 55.363 C 226.075 53.741, 224.940 53.729, 222.866 55.307 M 163 66.620 C 162.175 66.874, 158.350 67.999, 154.500 69.120 C 150.650 70.241, 144.800 71.996, 141.500 73.021 C 133.027 75.653, 128.048 76.246, 123.328 75.185 L 119.235 74.265 118.603 81.883 C 118.255 86.072, 118.389 90.850, 118.899 92.500 C 119.410 94.150, 119.867 94.821, 119.914 93.991 C 120.036 91.844, 123.331 90.006, 132.500 86.969 C 151.944 80.528, 164.243 77.414, 165.983 78.490 C 166.904 79.059, 168 74.105, 168 69.375 C 168 65.956, 166.981 65.394, 163 66.620 M 163 90.708 C 162.175 91.011, 159.612 92.101, 157.305 93.129 C 154.998 94.158, 152.648 95, 152.083 95 C 151.519 95, 148.457 96.184, 145.279 97.630 C 140.584 99.767, 137.887 100.283, 130.907 100.380 C 124.944 100.463, 121.807 100.080, 120.657 99.128 C 119.134 97.866, 119 98.534, 119 107.378 C 119 118.315, 118.782 118.109, 127.212 115.134 C 130.121 114.108, 137.225 112.052, 143 110.565 C 148.775 109.078, 155.607 106.880, 158.183 105.681 C 162.497 103.672, 162.989 103.062, 164.433 97.934 C 166.698 89.891, 166.598 89.388, 163 90.708" stroke="none" fill="black" fill-rule="evenodd"/>
</svg>