<svg xmlns="http://www.w3.org/2000/svg" width="300" height="300" viewBox="0 0 300 300" version="1.1">
	<path d="M 189 11.240 C 181.501 15.968, 163.890 34.979, 161.297 41.144 C 158.590 47.584, 160.481 53.541, 167.773 61.542 C 170.373 64.394, 174.110 68.589, 176.078 70.864 C 181.768 77.442, 187 76.082, 187 68.025 C 187 66.317, 186.159 63.700, 185.131 62.210 C 179.057 53.403, 175 46.883, 175 45.928 C 175 44.033, 189.607 28.718, 196.392 23.500 C 202.754 18.608, 204.661 16.019, 204.127 13 C 203.349 8.599, 194.772 7.601, 189 11.240 M 237.500 13.927 C 235.300 14.909, 229.900 19.033, 225.500 23.092 C 208.552 38.725, 207.269 40.573, 208.973 46.898 C 210.214 51.510, 213.052 54.255, 219.512 57.094 C 225.545 59.746, 228.974 62.313, 230.448 65.280 C 233.090 70.602, 241 66.839, 241 60.260 C 241 56.880, 239.666 53.459, 237.592 51.521 C 234.837 48.946, 229.290 45.221, 227.250 44.576 C 226.012 44.185, 225 43.481, 225 43.011 C 225 42.542, 229.387 38.254, 234.750 33.483 C 245.651 23.786, 250 19.178, 250 17.327 C 250 15.380, 245.850 11.992, 243.561 12.071 C 242.428 12.109, 239.700 12.945, 237.500 13.927 M 85.795 14.750 C 84.962 15.713, 82.417 20.264, 80.141 24.865 C 77.864 29.465, 74.050 36.215, 71.665 39.865 C 69.280 43.514, 66.277 48.300, 64.993 50.500 C 59.341 60.176, 48.824 76.033, 37.467 92 C 28.569 104.510, 22 116.809, 22 120.959 C 22 127.586, 31.131 125.247, 35.830 117.417 C 37.299 114.971, 40.413 110.388, 42.751 107.234 C 45.089 104.080, 49.342 98.239, 52.204 94.253 C 55.827 89.205, 57.723 87.323, 58.453 88.052 C 59.145 88.744, 59.493 101.537, 59.479 125.800 C 59.452 175.157, 57.985 276.132, 57.268 278 C 55.450 282.740, 58.854 287.227, 63.942 286.799 C 69.615 286.321, 70.460 283.476, 70.713 264 C 70.831 254.925, 71.438 217.800, 72.062 181.500 C 72.894 133.105, 72.901 111.766, 72.090 101.500 C 69.437 67.933, 69.437 67.438, 72.127 63.790 C 73.461 61.981, 76.293 57.575, 78.420 54 C 80.547 50.425, 83.798 45.174, 85.644 42.331 C 87.490 39.487, 89 36.907, 89 36.596 C 89 36.285, 90.421 33.721, 92.157 30.900 C 95.967 24.706, 96.545 18.366, 93.595 15.105 C 91.277 12.544, 87.840 12.387, 85.795 14.750 M 139.568 22.250 C 133.791 29.940, 133.472 30.265, 122.346 39.798 C 114.582 46.451, 109 55.512, 109 61.463 C 109 68.597, 116.937 79.401, 125.485 83.902 C 129.996 86.277, 132.325 86.480, 136.872 84.895 C 143.985 82.415, 143.001 76.347, 134.922 72.871 C 129.529 70.551, 124 64.448, 124 60.815 C 124 57.863, 126.800 54.295, 133.730 48.416 C 137.248 45.431, 143.473 39.151, 147.563 34.460 C 153.530 27.617, 155 25.290, 155 22.688 C 155 17.855, 152.568 15, 148.450 15 C 145.352 15, 144.478 15.713, 139.568 22.250 M 210 85.514 C 209.175 85.746, 201.300 86.400, 192.500 86.969 C 154.570 89.419, 146.502 90.317, 136.077 93.254 C 132.531 94.253, 131.086 95.393, 128.791 99 C 127.217 101.475, 126.057 104.400, 126.214 105.500 C 126.462 107.231, 127.238 107.492, 132 107.441 C 135.025 107.409, 140.200 106.645, 143.500 105.742 C 146.800 104.840, 154.563 103.731, 160.750 103.278 C 174.258 102.289, 174.327 102.390, 167.124 112.593 C 162.925 118.541, 156.376 125.331, 145.652 134.855 C 142.294 137.837, 142.289 140.296, 145.635 142.927 C 148.955 145.539, 149.340 145.520, 155.966 142.436 C 159.697 140.699, 164.238 137.051, 170.268 130.946 C 175.128 126.026, 179.583 122, 180.168 122 C 182.539 122, 191.147 129.417, 192.481 132.609 C 194.364 137.115, 199.016 137.634, 202.350 133.709 C 206.844 128.419, 200.188 116.197, 189.974 110.987 C 186.135 109.028, 185.910 108.681, 186.549 105.695 C 186.926 103.938, 187.393 102.326, 187.587 102.113 C 188.195 101.448, 210.223 99.070, 216.110 99.034 C 219.196 99.015, 223.809 99.286, 226.360 99.636 C 230.970 100.268, 231 100.297, 231 104.135 C 231 109.294, 228.182 125.382, 226.295 130.998 C 224.426 136.559, 223.109 138.256, 221.220 137.531 C 219.723 136.956, 218.177 137.186, 195 141.425 C 187.575 142.783, 177.900 144.384, 173.500 144.983 C 163.473 146.349, 139.331 151.740, 136.007 153.357 C 133.144 154.749, 132.289 157.439, 134.040 159.548 C 134.995 160.699, 138.382 161.003, 150.372 161.015 C 158.693 161.024, 165.017 161.361, 164.427 161.765 C 161.953 163.459, 159.843 174.474, 157.379 198.551 C 155.844 213.551, 155.418 215.618, 153.834 215.738 C 152.843 215.812, 150.563 216.983, 148.766 218.339 C 146.970 219.696, 142.350 222.267, 138.500 224.052 C 134.650 225.838, 129.363 228.845, 126.750 230.735 L 122 234.170 122 227.668 L 122 221.165 126.750 219.413 C 129.363 218.450, 132.175 217.126, 133 216.473 C 133.825 215.819, 137.425 213.831, 141 212.054 C 152.566 206.305, 155.404 201.832, 150 197.866 C 147.717 196.191, 147.022 196.149, 142 197.380 C 138.975 198.121, 133.713 200.139, 130.306 201.864 C 126.899 203.589, 123.974 205.001, 123.806 205.001 C 123.638 205.002, 123.657 198.815, 123.849 191.251 C 124.264 174.876, 122.769 164.470, 119.625 161.842 C 116.663 159.367, 113.748 159.575, 111.043 162.455 C 108.960 164.671, 108.818 165.422, 109.579 170.205 C 110.847 178.178, 110.349 207.111, 108.576 228.490 C 107.709 238.935, 107 253.476, 107 260.805 C 107 272.164, 107.313 274.856, 109.120 279.057 C 111.438 284.446, 115.924 288, 120.408 288 C 124.105 288, 130.625 284.525, 136.127 279.623 C 138.671 277.355, 142.271 274.593, 144.127 273.484 C 148.037 271.147, 148.958 267.716, 146.425 264.918 C 143.141 261.288, 135.536 263.113, 125.500 269.938 L 122.500 271.979 121.850 269.739 C 121.023 266.892, 120.843 252.187, 121.600 249.364 C 122.013 247.828, 123.225 247.060, 125.915 246.630 C 127.973 246.300, 131.422 244.769, 133.578 243.226 C 135.735 241.683, 139.694 239.149, 142.375 237.595 C 145.056 236.041, 148.993 233.194, 151.125 231.268 L 155 227.767 155.035 241.134 C 155.077 257.175, 157.749 271.030, 161.933 276.906 C 166.248 282.966, 170.470 284.360, 175.942 281.530 C 179.766 279.553, 185.250 272.466, 185.250 269.502 C 185.250 264.414, 178.951 261.924, 175.039 265.465 C 173.229 267.103, 173.075 267.046, 171.596 264.186 C 168.803 258.784, 167.705 247.419, 168.342 230.500 C 168.673 221.700, 169.237 212.836, 169.594 210.801 C 170.163 207.571, 170.429 207.286, 171.694 208.551 C 174.384 211.241, 177.118 210.533, 193.566 202.889 C 195.802 201.850, 198.357 201, 199.244 201 C 201.462 201, 204 198.269, 204 195.883 C 204 192.669, 199.561 189, 195.673 189 C 189.713 189, 176.979 193.753, 174.097 197.053 L 171.500 200.026 171.500 183.763 C 171.500 170.238, 171.205 166.927, 169.750 164.096 C 168.787 162.224, 168 160.601, 168 160.489 C 168 160.377, 170.714 160.001, 174.031 159.655 C 188.666 158.125, 217.671 150.833, 221.687 147.674 C 223.076 146.582, 225.545 145.583, 227.174 145.455 C 231.265 145.133, 234.792 141.574, 238.028 134.500 C 242.518 124.686, 245.207 113.489, 245.361 103.965 C 245.490 95.981, 245.296 95.079, 242.731 91.715 C 240.998 89.443, 238.565 87.680, 236.231 87.005 C 232.376 85.890, 212.654 84.769, 210 85.514 M 112.391 95.792 C 108.733 98.165, 108.031 105.176, 110.890 110.790 C 113.590 116.092, 115.902 124.334, 117.120 133 C 117.700 137.125, 118.640 141.063, 119.209 141.750 C 120.973 143.879, 126.693 143.277, 128.443 140.777 C 132.686 134.720, 127.523 108.805, 120 98.398 C 118.357 96.125, 114.117 94.672, 112.391 95.792 M 218.925 153.282 C 214.715 156.538, 213.704 159.759, 214.375 167.781 C 215.463 180.796, 218.126 197.048, 220.719 206.500 C 222.077 211.450, 223.406 216.625, 223.671 218 C 224.839 224.046, 231.504 246.158, 234.221 253 C 239.242 265.644, 245.177 275.891, 250.196 280.586 C 254.584 284.691, 255.297 285, 260.380 285 C 265.097 285, 266.250 284.597, 268.790 282.056 C 272.020 278.827, 274.487 271.109, 273.392 267.661 C 271.623 262.085, 266.209 261.548, 262.379 266.569 C 259.925 269.787, 259.562 269.960, 258.692 268.319 C 258.161 267.319, 256.903 265.587, 255.896 264.470 C 252.822 261.062, 246.587 247.128, 242.710 235 C 233.258 205.435, 227.950 181.540, 227.383 166 C 227.047 156.803, 226.737 155.283, 224.889 153.750 C 222.427 151.708, 221.095 151.604, 218.925 153.282 M 199.046 213.799 C 198.246 214.076, 196.671 215.164, 195.546 216.216 C 193.811 217.837, 186.474 221.650, 176 226.373 C 170.738 228.745, 169.470 233.470, 173.116 237.116 C 177.754 241.754, 190.020 237.301, 201.120 226.949 C 204.440 223.853, 205.990 221.615, 205.968 219.949 C 205.915 215.835, 202.338 212.657, 199.046 213.799" stroke="none" fill="black" fill-rule="evenodd"/>
</svg>