<svg xmlns="http://www.w3.org/2000/svg" width="300" height="300" viewBox="0 0 300 300" version="1.1">
	<path d="M 149.966 16.894 C 149.123 17.227, 147.360 18.270, 146.049 19.212 C 142.993 21.405, 142.947 25.749, 145.752 47.500 C 146.886 56.300, 148.060 65.862, 148.360 68.750 L 148.906 74 145.578 74 C 143.748 74, 140.873 74.275, 139.189 74.612 C 136.535 75.143, 136.194 74.972, 136.625 73.325 C 137.263 70.884, 133.456 66, 130.916 66 C 127.897 66, 119.669 60.068, 116.445 55.568 C 108.131 43.964, 102.996 39, 99.306 39 C 95.682 39, 92 42.623, 92 46.188 C 92 49.020, 101.157 63.260, 106.884 69.335 C 108.873 71.445, 112.460 74.177, 114.855 75.406 L 119.210 77.642 111.855 78.937 C 102.670 80.554, 75.997 88.954, 69.348 92.324 C 63.189 95.445, 61.602 97.276, 62.377 100.368 C 63.270 103.923, 65.974 104.104, 78.837 101.469 C 88.831 99.422, 115.876 94.490, 131.073 91.943 C 151.869 88.458, 201.570 84.559, 217.250 85.183 C 229.673 85.677, 231.185 86.758, 228.050 92.902 C 225.399 98.098, 224.233 99.551, 215.212 108.900 C 211.204 113.054, 207.659 117.509, 207.335 118.800 C 205.997 124.131, 210.668 128.053, 216.587 126.568 C 218.010 126.210, 223.747 121.743, 229.337 116.639 C 237.583 109.110, 240.207 105.993, 243.250 100.111 C 251.136 84.864, 246.502 74.665, 229.721 70.341 C 224.615 69.024, 220.185 68.846, 205 69.346 C 194.825 69.681, 183.575 70.252, 180 70.615 L 173.500 71.276 180.062 64.388 C 192.192 51.655, 202 36.122, 202 29.644 C 202 25.445, 199.195 23, 194.377 23 C 190.047 23, 185.382 27.838, 180.736 37.147 C 178.717 41.191, 174.013 48.310, 170.283 52.967 L 163.500 61.434 163.267 55.967 C 162.831 45.712, 159.802 24.508, 158.318 21.320 C 156.782 18.018, 152.655 15.832, 149.966 16.894 M 35.975 91.750 C 30.994 96.231, 31.493 101.326, 38.273 115.197 C 41.311 121.414, 44.629 128.925, 45.646 131.889 C 47.847 138.303, 50.675 140.604, 54.718 139.270 C 59.344 137.744, 60.301 134.354, 58.513 125.817 C 56.789 117.585, 55.357 113.321, 52.361 107.500 C 51.229 105.300, 49.447 101.064, 48.401 98.086 C 47.073 94.304, 45.596 92.120, 43.500 90.840 C 39.649 88.488, 39.593 88.495, 35.975 91.750 M 149 118.498 C 143.775 119.274, 134.165 120.403, 127.645 121.005 C 116.297 122.054, 108 124.209, 108 126.109 C 108 127.329, 104.266 127.239, 103.500 126 C 102.714 124.728, 98.417 124.706, 96.071 125.962 C 95.083 126.491, 93.731 128.236, 93.066 129.841 C 91.719 133.093, 92.777 138.629, 95.964 144.994 C 96.929 146.922, 98.519 151.875, 99.498 156 C 101.652 165.073, 103.130 168.170, 106.615 170.912 C 108.483 172.381, 108.797 173, 107.674 173 C 105.101 173, 102 177.099, 102 180.500 C 102 183.587, 105.033 188, 107.156 188 C 107.748 188, 108.005 188.787, 107.725 189.750 C 107.446 190.713, 105.831 196.681, 104.136 203.013 C 100.622 216.147, 98.234 223.342, 95.014 230.500 C 93.778 233.250, 91.669 237.975, 90.328 241 C 88.988 244.025, 87.275 247.850, 86.522 249.500 C 84.222 254.540, 78.322 268.147, 75.588 274.720 C 74.164 278.141, 73 282.234, 73 283.815 C 73 289.184, 78.983 291.801, 83.702 288.496 C 89.113 284.706, 116.316 226.079, 119.892 210.500 C 120.523 207.750, 121.368 201.493, 121.770 196.596 L 122.500 187.692 131.047 185.425 C 135.748 184.179, 145.279 181.098, 152.227 178.579 C 159.176 176.061, 165.370 174, 165.992 174 C 168.482 174, 178.075 168.721, 179.975 166.304 C 181.089 164.889, 182 162.526, 182 161.054 C 182 158.116, 178.768 154, 176.461 154 C 174.361 154, 174.653 152.565, 177.424 149.273 C 187.251 137.594, 187.312 126.064, 177.579 120.049 C 172.887 117.149, 162.040 116.560, 149 118.498 M 145.500 135.540 C 140.550 136.248, 131.014 136.867, 124.309 136.914 C 117.604 136.961, 111.891 137.368, 111.613 137.817 C 111.335 138.267, 111.815 140.629, 112.678 143.067 C 114.670 148.691, 116.997 160.462, 116.999 164.921 C 116.999 166.803, 116.255 169.165, 115.345 170.171 C 113.142 172.606, 114.467 172.571, 124.020 169.941 C 145.159 164.124, 147.739 163.105, 147.349 160.733 C 146.916 158.091, 148.255 156.270, 153 153.055 C 158.881 149.069, 162.872 144.844, 165.495 139.827 C 166.873 137.192, 168 134.804, 168 134.518 C 168 133.608, 154.808 134.207, 145.500 135.540 M 153 179.729 C 150.776 180.575, 150.032 182.112, 150.015 185.897 C 150.007 187.765, 148.556 193.615, 146.791 198.897 C 143.692 208.172, 143.581 209.080, 143.541 225.500 C 143.498 243.129, 144.373 249.115, 148.915 262.272 C 152.771 273.442, 160.111 280.781, 171.351 284.703 C 182.422 288.567, 207.120 286.299, 229.273 279.385 C 244.759 274.552, 263.079 265.258, 267.036 260.227 C 270.652 255.630, 268.619 245.762, 263.345 242.306 C 260.006 240.118, 255.358 242.094, 254.484 246.073 C 254.136 247.656, 254.109 249.367, 254.423 249.875 C 255.153 251.057, 235.795 259.199, 224.409 262.498 C 210.084 266.650, 196.029 269.220, 187 269.341 C 171.377 269.549, 165.553 264.253, 161.886 246.500 C 159.618 235.522, 159.532 225.947, 161.524 206.085 C 163.202 189.346, 162.617 184.175, 158.670 180.879 C 156.394 178.978, 155.467 178.790, 153 179.729" stroke="none" fill="black" fill-rule="evenodd"/>
</svg>