<svg xmlns="http://www.w3.org/2000/svg" width="300" height="300" viewBox="0 0 300 300" version="1.1">
	<path d="M 172 59.094 C 145.228 60.005, 135.395 60.638, 133.925 61.546 C 133.325 61.917, 133.112 63.308, 133.449 64.652 C 136.857 78.231, 137.989 99.934, 136.085 115.178 C 135.582 119.205, 134.648 128.575, 134.009 136 C 132.731 150.862, 130.743 162.939, 128.364 170.286 C 126.592 175.761, 127.543 178, 131.637 178 C 137.565 178, 141.371 163.566, 144.161 130.500 C 145.832 110.689, 145.867 82.060, 144.229 75.104 C 143.530 72.136, 143.152 69.515, 143.388 69.278 C 143.625 69.042, 161.060 68.694, 182.133 68.505 C 220.098 68.165, 220.457 68.142, 221.398 66.033 C 222.982 62.484, 219.461 59.993, 211.393 58.954 C 203.888 57.987, 204.634 57.984, 172 59.094 M 79.091 63.649 C 76.858 65.213, 76.770 65.691, 77.379 72.987 L 78.020 80.677 73.973 81.890 C 71.747 82.557, 66.005 83.366, 61.213 83.688 C 56.421 84.010, 51.712 84.677, 50.750 85.172 C 48.270 86.445, 48.526 90.676, 51.169 92.090 C 53.320 93.242, 68.427 92.819, 75.750 91.402 L 79 90.773 79 99.911 C 79 108.465, 78.856 109.105, 76.750 109.914 C 71.285 112.014, 63.063 116.089, 62.521 116.966 C 62.153 117.562, 60.970 117.488, 59.393 116.769 C 54.436 114.511, 53.673 119.885, 57.390 130.872 C 59.644 137.534, 59.677 137.968, 57.982 138.506 C 55.494 139.295, 54.639 142.068, 56.355 143.784 C 57.157 144.586, 60.622 145.441, 64.249 145.732 L 70.713 146.251 71.258 172.375 C 71.558 186.744, 72.126 199.300, 72.519 200.278 C 73.595 202.948, 76.636 204.265, 78.912 203.047 C 80.744 202.067, 80.800 200.888, 80.263 174.728 L 79.703 147.432 89.101 146.119 C 94.271 145.397, 99.224 144.614, 100.109 144.380 C 101.768 143.942, 102.268 145.747, 105.056 162.250 C 107.958 179.426, 114.071 190.716, 122.500 194.466 C 134.544 199.825, 176.782 201.582, 197 197.566 C 200.575 196.856, 206.875 195.708, 211 195.015 C 228.497 192.077, 239.297 187.460, 240.242 182.513 C 241.104 178.003, 236.596 175.369, 233.079 178.328 C 227.553 182.978, 184.207 190.921, 164.046 190.979 C 147.477 191.026, 125.976 187.782, 122.114 184.652 C 117.613 181.005, 113.286 169.529, 110.524 153.912 C 108.530 142.636, 108.539 142.569, 112.175 140.930 C 116.665 138.907, 117.862 136.609, 115.680 134.198 C 114.290 132.663, 114.148 131.740, 114.972 129.575 C 116.574 125.361, 116.147 116.919, 114.104 112.421 C 110.435 104.343, 103.121 101.586, 92.520 104.286 L 86.750 105.755 87.367 100.628 C 87.705 97.807, 87.987 94.037, 87.991 92.250 L 88 89 95.250 88.952 C 105.810 88.882, 113.168 84.661, 110.395 80.264 C 109.441 78.752, 107.874 78.570, 98.268 78.855 L 87.236 79.181 86.829 71.982 C 86.512 66.367, 86.004 64.476, 84.520 63.391 C 82.127 61.641, 81.945 61.649, 79.091 63.649 M 178.500 79.205 C 169.583 80.266, 163.110 83.430, 160.500 88.004 C 159.019 90.599, 157.932 91.426, 156.313 91.193 C 154.872 90.985, 153.580 91.711, 152.524 93.324 C 151.035 95.595, 151.066 96.153, 152.960 101.135 C 154.081 104.086, 154.999 107.106, 154.999 107.846 C 155 108.586, 155.949 110.523, 157.108 112.152 C 158.690 114.373, 159.876 115.036, 161.858 114.806 C 164.134 114.542, 164.544 113.970, 164.815 110.668 C 165.073 107.530, 165.436 106.960, 166.815 107.520 C 167.742 107.897, 171.313 108.445, 174.750 108.739 C 178.188 109.033, 181 109.632, 181 110.069 C 181 110.506, 177.647 111.610, 173.548 112.521 C 160.391 115.449, 161.086 120, 174.691 120 C 181.698 120, 182 120.097, 182 122.352 C 182 124.576, 181.561 124.737, 173.879 125.330 C 165.125 126.005, 162.735 127.143, 163.202 130.412 C 163.653 133.569, 169.478 135.997, 176.608 135.998 L 182.715 136 183.358 142.147 C 183.711 145.527, 184 149.802, 184 151.647 L 184 155 178.750 155.011 C 171.421 155.026, 164.141 157.471, 160.278 161.215 C 156.516 164.861, 156.193 166.498, 158.946 167.971 C 160.475 168.789, 161.631 168.512, 164.332 166.678 C 167.734 164.370, 168.019 164.349, 189.465 164.806 C 208.696 165.215, 221.052 164.522, 231.631 162.441 C 234.203 161.935, 235.245 158.718, 233.576 156.435 C 232.504 154.968, 230.155 154.819, 213.182 155.140 L 194 155.502 194 152.402 C 194 150.697, 193.714 145.914, 193.364 141.773 L 192.727 134.245 196.217 133.094 C 198.136 132.460, 200.728 130.854, 201.978 129.523 C 204.403 126.942, 205.048 121.849, 203.036 121.179 C 202.335 120.945, 202.792 120.289, 204.118 119.629 C 206.979 118.202, 211.478 111.687, 212.915 106.888 C 215.280 98.995, 213.314 89.025, 208.376 83.870 C 204.144 79.453, 192.150 77.580, 178.500 79.205 M 167.174 91.314 C 165.846 92.729, 165 94.917, 165 96.939 C 165 100.114, 165.128 100.224, 168.125 99.625 C 169.844 99.281, 173.219 99, 175.625 99 L 180 99 180 94 L 180 89 174.674 89 C 170.400 89, 168.919 89.457, 167.174 91.314 M 190 91.375 C 190 97.965, 191.012 99.649, 195.845 101.101 C 200.040 102.362, 200.500 102.797, 200.500 105.500 C 200.500 108.300, 200.200 108.540, 196 109.100 L 191.500 109.700 196.549 109.850 C 201.410 109.994, 201.643 109.876, 202.799 106.679 C 204.704 101.411, 204.313 94.668, 201.927 91.635 C 200.189 89.425, 199.060 89, 194.927 89 C 190.407 89, 190 89.196, 190 91.375 M 92.500 113.953 C 89.200 114.948, 82.675 117.383, 78 119.363 C 73.325 121.343, 68.214 122.972, 66.643 122.982 C 64.641 122.995, 63.943 123.409, 64.311 124.368 C 64.600 125.121, 65.425 128.271, 66.145 131.368 C 67.552 137.418, 68.592 138.054, 73.453 135.839 C 75.406 134.950, 76.626 134.964, 78.685 135.902 C 81.141 137.021, 91.930 136.344, 101.537 134.467 C 103.943 133.997, 106 129.010, 106 123.647 C 106 119.516, 103.633 113, 102.133 113 C 101.600 113, 100.564 112.807, 99.832 112.571 C 99.099 112.335, 95.800 112.957, 92.500 113.953 M 193.750 118.689 C 191.700 119.225, 191.306 124, 193.311 124 C 194.866 124, 199 120.338, 199 118.961 C 199 117.980, 196.884 117.870, 193.750 118.689" stroke="none" fill="black" fill-rule="evenodd"/>
</svg>