<svg xmlns="http://www.w3.org/2000/svg" width="300" height="300" viewBox="0 0 300 300" version="1.1">
	<path d="M 86.750 11.172 C 81.524 13.062, 83.639 20.415, 92.452 31 C 97.907 37.551, 99.140 41.370, 98.323 49.184 C 97.827 53.925, 98.042 55.388, 99.460 56.956 C 101.148 58.821, 101.078 58.940, 97.409 60.474 C 84.582 65.833, 77.544 66.754, 66.500 64.516 C 64.153 64.041, 62.847 64.480, 60.500 66.536 C 57.737 68.955, 57.506 69.665, 57.572 75.514 C 57.613 79.155, 58.199 82.535, 58.944 83.433 C 60.746 85.604, 64.335 85.392, 66.511 82.988 C 68.041 81.298, 69.099 81.077, 73.118 81.610 C 80.815 82.631, 90.461 80.438, 104.446 74.488 L 108.392 72.809 102.521 79.150 C 99.293 82.638, 93.747 89.993, 90.198 95.496 C 86.648 100.998, 83.352 105.650, 82.872 105.833 C 82.392 106.017, 82 106.611, 82 107.153 C 82 108.427, 78.052 114.232, 65.441 131.500 C 59.817 139.200, 54.380 146.898, 53.358 148.606 C 35.512 178.439, 30.317 186.733, 27.869 189.294 C 22.966 194.425, 22.687 199.951, 27.163 203.280 C 30.383 205.675, 33.514 205.121, 37.973 201.369 C 41.177 198.674, 49.579 186.313, 63.546 163.750 C 67.887 156.738, 71.714 151, 72.051 151 C 73.622 151, 79.123 180.077, 81.510 201 C 83.332 216.960, 84.599 257.658, 83.572 267.203 C 82.880 273.635, 82.705 273.979, 79.244 275.703 C 77.261 276.691, 75.203 278.218, 74.672 279.095 C 72.053 283.418, 77.566 289, 84.454 289 C 90.391 289, 93.862 286.528, 96.838 280.179 L 99.500 274.500 99.457 245 C 99.419 219.332, 98.178 195.563, 96.421 186.854 L 95.887 184.208 108.193 183.549 C 119.407 182.948, 123.501 183.236, 138.795 185.699 C 145.031 186.703, 148.552 179.552, 144.041 175.041 C 138.624 169.624, 128.841 166.924, 111.679 166.109 L 98.858 165.500 101.728 161.233 C 105.504 155.618, 114.702 146.206, 118.158 144.419 C 119.666 143.638, 122.239 143, 123.874 143 C 125.535 143, 128.094 141.957, 129.673 140.637 C 131.228 139.337, 133.489 137.964, 134.699 137.586 C 141.727 135.387, 135.458 124.526, 128.327 126.545 C 126.772 126.985, 123.384 127.228, 120.798 127.084 C 114.177 126.717, 107.494 130.593, 97.242 140.750 C 92.661 145.287, 88.708 149, 88.457 149 C 88.206 149, 88 148.241, 88 147.314 C 88 146.387, 87.296 142.820, 86.435 139.389 L 84.871 133.150 96.094 116.325 C 109.855 95.697, 114.251 89.911, 124.127 79.426 C 133.732 69.229, 135.314 64.660, 131.783 57.316 C 129.752 53.093, 123.316 52.126, 113.555 54.576 C 111.154 55.178, 111.129 55.118, 112.167 51.356 C 113.788 45.486, 112.735 32.251, 110.269 27.500 C 107.914 22.963, 98.578 13.163, 95.525 12.023 C 91.141 10.386, 89.393 10.217, 86.750 11.172 M 222 60.853 C 215.125 64.089, 207.115 67.247, 204.201 67.869 C 201.286 68.491, 191.083 69, 181.528 69 C 164.295 69, 164.128 69.021, 161.077 71.589 C 158.761 73.537, 158 75.012, 158 77.550 C 158 84.704, 163.870 86.648, 182.674 85.722 C 193.897 85.170, 193.993 85.184, 193.524 87.332 C 185.313 124.991, 161.226 203.876, 153.038 219.926 C 151.917 222.123, 151 224.613, 151 225.460 C 151 226.307, 150.662 227.001, 150.250 227.002 C 149.838 227.004, 148.216 229.461, 146.648 232.464 C 145.079 235.466, 141.591 240.441, 138.898 243.520 C 133.525 249.659, 132.796 252.796, 136 256 C 141.719 261.719, 151.834 253.782, 163.381 234.517 C 168.683 225.671, 174.049 211.527, 182.922 183 C 191.222 156.318, 197.315 137.887, 198.955 134.500 C 202.383 127.420, 205.993 106.586, 205.997 93.861 L 206 84.223 209.311 83.601 C 211.133 83.260, 218.202 80.285, 225.021 76.990 C 231.839 73.696, 237.964 71, 238.632 71 C 240.107 71, 241.430 75.074, 243.179 85 C 244.186 90.719, 244.454 105.846, 244.305 148.698 C 244.081 213.156, 243.538 220.207, 237.811 233 C 235.371 238.449, 229.927 245.926, 228.369 245.969 C 227.746 245.986, 226.123 244.538, 224.761 242.750 C 221.882 238.973, 213.419 221.785, 212.442 217.734 C 211.280 212.913, 204.870 209.448, 201.400 211.765 C 197.122 214.622, 197.645 220.447, 203.484 235 C 212.189 256.695, 221.482 265.016, 233.500 261.878 C 241.110 259.890, 252.850 244.593, 256.986 231.276 C 259.866 222.002, 260.848 205.470, 261.578 154 C 262.150 113.649, 262.011 105.583, 260.532 93 C 257.004 63.005, 253.236 55.898, 240.524 55.267 C 234.962 54.990, 233.540 55.419, 222 60.853" stroke="none" fill="black" fill-rule="evenodd"/>
</svg>