<svg xmlns="http://www.w3.org/2000/svg" width="300" height="300" viewBox="0 0 300 300" version="1.1">
	<path d="M 74.461 10.448 C 72.211 12.698, 71.910 13.621, 72.551 16.309 C 73.927 22.076, 73.469 36.242, 71.705 42.500 C 70.774 45.800, 69.499 50.525, 68.870 53 C 67.708 57.572, 63.108 70.231, 59.967 77.500 C 57.176 83.957, 56.825 85.805, 57.980 87.962 C 59.470 90.746, 64.086 90.633, 66.662 87.750 C 72.238 81.509, 79.690 64.156, 84.161 47 C 90.334 23.312, 88.967 10.143, 80.149 8.380 C 77.740 7.898, 76.595 8.314, 74.461 10.448 M 171.322 10.146 C 170.720 10.891, 170.019 15.775, 169.765 21 C 169.282 30.951, 165.673 44.984, 160.763 56 C 159.415 59.025, 157.751 62.930, 157.065 64.678 C 156.379 66.425, 154.958 68.633, 153.909 69.583 C 152.859 70.533, 152 72.340, 152 73.598 C 152 75.900, 155.309 79, 157.765 79 C 159.982 79, 168.579 70.260, 170.456 66.098 C 172.917 60.640, 179.121 56.456, 186 55.617 C 191.342 54.966, 202.114 53.076, 212.677 50.937 C 215.524 50.361, 219.665 49.014, 221.878 47.945 C 224.092 46.875, 226.273 46, 226.724 46 C 227.175 46, 229.276 44.572, 231.393 42.828 C 236.162 38.897, 238.165 34.565, 236.834 31.064 C 235.045 26.358, 232.043 25.785, 228.788 29.529 C 224.094 34.928, 215.758 37.757, 198.079 39.952 C 189.047 41.074, 181.502 41.835, 181.311 41.645 C 181.121 41.454, 181.648 38.052, 182.482 34.084 C 184.669 23.689, 184.499 14.881, 182.057 12.065 C 179.694 9.342, 172.949 8.136, 171.322 10.146 M 125.500 39.057 C 123.300 39.512, 117.225 39.925, 112 39.975 C 96.770 40.120, 86.171 44.943, 86.055 51.781 C 86.023 53.679, 86.577 55.284, 87.369 55.588 C 88.617 56.067, 107.552 54.166, 122.601 52.051 C 129.698 51.053, 136.596 47.848, 137.453 45.149 C 137.782 44.112, 137.601 42.080, 137.050 40.632 C 135.956 37.753, 133.453 37.412, 125.500 39.057 M 110.523 56.392 C 106.340 59.739, 106.522 64.356, 111.231 74.270 C 115.113 82.445, 116.422 83.613, 120.545 82.578 C 124.105 81.685, 124.617 79.442, 122.481 74.106 C 121.462 71.561, 120.590 66.753, 120.532 63.360 C 120.373 53.995, 116.708 51.443, 110.523 56.392 M 212.827 54.657 C 208.893 55.739, 207.969 65.316, 210.959 74 C 214.233 83.506, 218.635 86.365, 223.110 81.890 C 224.850 80.150, 225.107 79.053, 224.572 75.640 C 223.897 71.325, 220.307 58.602, 219.031 56 C 218.263 54.433, 215.677 53.873, 212.827 54.657 M 121.577 100.217 C 120.585 100.772, 119.005 101.962, 118.064 102.863 C 117.124 103.763, 114.961 105.708, 113.258 107.185 C 110.620 109.474, 107.222 114.097, 101.248 123.524 C 100.559 124.611, 99.588 126.431, 99.091 127.569 C 95.881 134.916, 76.884 160.519, 63.229 175.902 C 59.528 180.071, 55.150 185.047, 53.500 186.961 C 47.821 193.547, 39.820 200.912, 36.975 202.172 C 31.549 204.573, 30.746 211.193, 35.655 213.059 C 41.304 215.206, 47.411 211.425, 61.027 197.349 C 66.267 191.932, 72.792 184.899, 75.527 181.720 C 80.437 176.013, 80.540 175.955, 83.684 177.164 C 89.333 179.337, 131.106 173.582, 138.885 169.559 C 143.409 167.220, 145 165.146, 145 161.589 C 145 156.665, 141.905 155.640, 134.456 158.098 C 126.930 160.580, 119.416 161.675, 104.157 162.511 L 91.813 163.187 97.157 155.488 C 100.095 151.254, 103.815 145.613, 105.422 142.952 C 107.723 139.141, 108.689 138.298, 109.968 138.983 C 112.635 140.410, 135.837 148, 137.533 148 C 139.972 148, 155.111 154.183, 158.890 156.722 C 162.595 159.212, 166.918 159.682, 168.800 157.800 C 171.406 155.194, 170.049 152.212, 163.750 146.703 C 157.304 141.065, 149.817 137.457, 138.500 134.536 C 129.915 132.319, 122.652 129.895, 121.550 128.877 C 121.028 128.395, 119.817 128, 118.859 128 C 117.901 128, 116.849 127.565, 116.521 127.034 C 115.862 125.967, 119.368 118.509, 121.005 117.497 C 121.573 117.146, 123.193 114.579, 124.605 111.793 C 128.419 104.266, 126.621 97.394, 121.577 100.217 M 237.862 105.138 C 235.864 107.136, 235.766 107.938, 236.362 117.388 C 236.713 122.950, 237.446 142.350, 237.991 160.500 C 238.537 178.650, 239.423 199.575, 239.962 207 C 240.500 214.425, 241.241 231.075, 241.608 244 C 242.434 273.031, 243.433 271.195, 226.307 272.121 C 217.081 272.620, 214.298 273.132, 212.161 274.720 C 208.766 277.244, 208.137 281.909, 210.859 284.373 C 212.590 285.939, 214.608 286.106, 228.319 285.822 L 243.821 285.500 247.661 282.442 C 254.388 277.084, 256 272.460, 255.998 258.538 C 255.996 251.917, 255.108 232.100, 254.023 214.500 C 252.939 196.900, 251.572 168.775, 250.986 152 C 249.470 108.614, 248.480 103, 242.345 103 C 241.055 103, 239.038 103.962, 237.862 105.138 M 188.296 136.671 C 186.787 138.974, 186.520 142.241, 186.355 160.421 C 186.061 192.785, 187.980 202, 195.014 202 C 196.591 202, 198.241 201.438, 198.679 200.750 C 199.489 199.479, 200.245 178.846, 200.409 153.500 C 200.490 140.988, 200.287 139.211, 198.500 136.781 C 195.723 133.006, 190.733 132.952, 188.296 136.671 M 80.975 200.027 C 79.419 201.692, 77.847 204.420, 77.481 206.089 C 76.775 209.302, 78.909 224.173, 81.989 237.500 C 83.006 241.900, 84.367 249.100, 85.013 253.500 C 87.284 268.960, 89.579 274, 94.347 274 C 95.161 274, 101.899 271.073, 109.321 267.496 C 116.842 263.871, 123.497 261.254, 124.356 261.583 C 128.261 263.082, 134.853 255.932, 142.779 241.603 C 150.550 227.555, 151.807 220.058, 147.368 214.238 C 142.539 207.907, 135.982 206.718, 121.284 209.506 C 116.918 210.334, 110.133 211.415, 106.205 211.908 C 101.525 212.496, 98.145 213.528, 96.397 214.902 C 94.930 216.056, 93.341 217, 92.865 217 C 92.389 217, 92 213.478, 92 209.174 C 92 202.287, 91.722 201.088, 89.686 199.174 C 86.544 196.223, 84.325 196.440, 80.975 200.027 M 121.500 223.735 C 116.550 224.583, 108.295 225.327, 103.156 225.388 L 93.812 225.500 94.342 229 C 94.634 230.925, 95.576 236.325, 96.435 241 C 97.294 245.675, 97.998 251.243, 97.999 253.372 C 98 256.325, 98.297 257.013, 99.250 256.267 C 99.938 255.729, 102.693 254.753, 105.373 254.099 C 110.054 252.956, 115.159 250.583, 123.315 245.757 C 126.409 243.926, 127.762 242.043, 130.478 235.782 C 132.320 231.537, 134.127 226.700, 134.493 225.032 C 135.287 221.419, 135.122 221.402, 121.500 223.735" stroke="none" fill="black" fill-rule="evenodd"/>
</svg>