<svg xmlns="http://www.w3.org/2000/svg" width="300" height="300" viewBox="0 0 300 300" version="1.1">
	<path d="M 80.783 11.205 C 78.539 12.897, 76.422 18.261, 75.537 24.500 C 74.773 29.887, 67.342 49.651, 65.265 51.821 C 64.569 52.548, 64 53.814, 64 54.633 C 64 55.453, 62.917 58.458, 61.593 61.312 C 60.268 64.165, 58.189 68.732, 56.972 71.460 C 55.755 74.187, 52.627 80.755, 50.022 86.053 C 41.326 103.739, 40.542 107.614, 45.161 110.086 C 48.655 111.956, 51.598 110.369, 54.332 105.140 C 55.734 102.458, 58.043 98.552, 59.462 96.461 C 62.743 91.626, 76.230 65.041, 79.019 57.910 C 80.183 54.934, 82.674 49.285, 84.555 45.355 C 90.653 32.612, 92.807 17.846, 89.228 13.311 C 87.027 10.522, 83.016 9.522, 80.783 11.205 M 177 53.580 C 164.815 55.865, 157.368 56.787, 141.500 57.976 C 126.736 59.082, 101 64.252, 101 66.111 C 101 66.558, 99.293 67.383, 97.207 67.944 C 93.584 68.920, 89 72.217, 89 73.848 C 89 74.271, 89.610 75.452, 90.355 76.471 C 91.661 78.256, 92.149 78.264, 103.605 76.691 C 110.147 75.793, 121.125 74.585, 128 74.007 C 158.352 71.455, 164.179 70.816, 175.500 68.800 C 189.593 66.291, 208.637 65.794, 209.939 67.902 C 210.963 69.558, 213.782 90.431, 214.651 102.785 C 215.011 107.892, 215.686 112.306, 216.152 112.594 C 217.264 113.281, 217.258 165.723, 216.146 166.410 C 215.676 166.700, 214.986 171.114, 214.613 176.219 C 212.671 202.791, 205.511 233.191, 197.446 249.107 C 194.307 255.302, 188.815 261, 185.984 261 C 182.943 261, 177.051 258.054, 175.670 255.844 C 175.037 254.830, 173.990 254, 173.343 254 C 172.696 254, 172.017 253.560, 171.833 253.023 C 171.122 250.936, 165.553 250.786, 163.241 252.791 C 159.398 256.124, 160.271 259.853, 166.505 266.743 C 181.146 282.921, 196.291 281.571, 208.779 262.973 C 218.974 247.791, 227.391 214.865, 231.142 175.500 C 232.757 158.544, 232.799 113.270, 231.211 101 C 228.772 82.154, 225.762 63.442, 224.715 60.617 C 224.128 59.032, 222.594 56.482, 221.306 54.952 L 218.965 52.170 201.733 52.172 C 191.153 52.173, 181.604 52.716, 177 53.580 M 109.921 103.482 C 105.545 105.862, 102.214 112.311, 96.886 128.722 C 94.069 137.400, 91.423 144.950, 91.007 145.500 C 90.225 146.533, 86.428 158.093, 81.153 175.500 C 68.845 216.114, 69.973 225.039, 88.500 233.643 C 93.062 235.761, 102.412 236.126, 106.099 234.330 C 107.419 233.686, 110.975 232.065, 114 230.728 C 117.025 229.391, 123.325 225.443, 128 221.954 C 132.675 218.466, 139.200 214.270, 142.500 212.630 C 145.800 210.991, 148.741 209.296, 149.035 208.863 C 149.329 208.431, 151.289 207.359, 153.390 206.482 C 155.491 205.604, 159.404 202.691, 162.086 200.009 L 166.962 195.133 168.481 200.248 C 169.316 203.061, 170 205.899, 170 206.555 C 170 209.241, 183.009 233.934, 184.980 234.989 C 187.715 236.453, 190.656 235.455, 192.671 232.379 C 194.720 229.252, 193.742 225.612, 187.038 211.422 C 184.420 205.879, 181.293 198.385, 180.089 194.769 C 177.314 186.429, 172.793 179.571, 169.047 178.019 C 165.397 176.508, 160.279 177.545, 159.516 179.951 C 158.250 183.937, 150.824 189.697, 141.500 193.925 C 138.750 195.172, 134.935 196.937, 133.022 197.846 C 128.862 199.825, 118.705 206.037, 118 207.035 C 117.725 207.424, 114.175 209.888, 110.111 212.510 C 101.186 218.268, 95.423 219.423, 92.117 216.117 C 88.102 212.102, 88.930 207.582, 101.205 166.500 C 104.491 155.500, 107.797 145.150, 108.550 143.500 C 109.303 141.850, 111.740 135.354, 113.966 129.065 C 116.191 122.776, 118.684 116.605, 119.506 115.351 C 120.328 114.096, 121 111.280, 121 109.092 C 121 102.852, 115.864 100.251, 109.921 103.482" stroke="none" fill="black" fill-rule="evenodd"/>
</svg>