<svg xmlns="http://www.w3.org/2000/svg" width="300" height="300" viewBox="0 0 300 300" version="1.1">
	<path d="M 231.859 15.688 C 227.056 18.676, 226.721 22.199, 228.179 54.354 C 229.054 73.653, 229.481 112.894, 229.443 170.500 C 229.392 247.855, 229.202 258.316, 227.724 264.860 C 225.774 273.492, 224.756 275, 220.878 275 C 214.443 275, 211.470 283.296, 216.681 286.710 C 220.312 289.090, 229.696 289.085, 233.333 286.702 C 237.914 283.700, 242.804 275.968, 244.528 269 C 247.028 258.896, 248.688 149.542, 247.063 102 C 245.427 54.124, 244.239 29.007, 243.469 26 C 242.546 22.394, 238.819 15, 237.925 15 C 237.506 15, 236.564 14.785, 235.832 14.523 C 235.099 14.260, 233.311 14.785, 231.859 15.688 M 131.572 50.054 C 122.141 51.515, 100 57.181, 100 58.133 C 100 58.610, 99.225 59, 98.278 59 C 94.985 59, 71.478 65.237, 67.888 67.063 C 62.983 69.558, 60.377 74.924, 62.208 78.758 C 63.390 81.233, 64.101 81.530, 69.509 81.809 C 75.012 82.092, 83.078 80.674, 85.500 78.997 C 87.546 77.581, 102.113 73.360, 120.475 68.862 C 122.662 68.327, 124.687 67.530, 124.975 67.092 C 125.264 66.654, 130.675 65.340, 137 64.172 C 145.889 62.530, 148.897 61.563, 150.250 59.913 C 152.557 57.099, 152.458 55.638, 149.750 52.525 C 147.080 49.457, 140.874 48.613, 131.572 50.054 M 107.041 79.233 C 101.643 80.035, 97 82.974, 97 85.591 C 97 86.274, 96.570 86.983, 96.045 87.167 C 95.519 87.350, 93.591 95.594, 91.760 105.487 L 88.430 123.473 78.465 127.640 C 72.984 129.932, 66.327 132.751, 63.672 133.904 C 61.017 135.057, 58.416 136, 57.893 136 C 57.371 136, 54.263 137.353, 50.987 139.007 C 42.915 143.081, 36.302 145.231, 34.043 144.514 C 32.781 144.113, 31.653 144.658, 30.585 146.182 C 28.338 149.390, 28.618 152.292, 31.427 154.931 C 33.629 157, 34.624 157.178, 42.177 156.856 C 48.759 156.574, 51.546 155.952, 55.500 153.880 C 58.250 152.439, 65.225 149.582, 71 147.531 C 76.775 145.481, 82.497 143.172, 83.715 142.401 C 86.712 140.505, 87.113 140.623, 86.589 143.250 C 86.342 144.488, 85.593 149.775, 84.925 155 C 84.257 160.225, 83.226 165.116, 82.633 165.870 C 82.041 166.623, 81.544 170.333, 81.528 174.115 L 81.500 180.990 75.610 180.995 C 69.557 181, 61.283 184.098, 60.270 186.739 C 60.004 187.432, 59.159 188, 58.393 188 C 57.542 188, 56.998 189.069, 56.994 190.750 C 56.989 192.757, 56.176 193.962, 53.985 195.209 C 48.460 198.353, 47.621 204.346, 51.606 212.210 C 53.040 215.039, 54.886 219.636, 55.708 222.427 C 56.531 225.217, 57.578 227.960, 58.035 228.522 C 58.493 229.084, 59.781 232.845, 60.899 236.878 C 62.017 240.912, 63.452 244.840, 64.088 245.606 C 65.468 247.269, 70.151 247.449, 71.700 245.900 C 72.500 245.100, 73.373 245.373, 74.900 246.900 C 77.434 249.434, 81.895 249.616, 86.300 247.364 C 96.104 242.352, 117.730 222.283, 120.518 215.610 C 123.587 208.266, 121.100 198.958, 114.744 193.996 C 111.335 191.336, 94.608 184, 91.950 184 C 89.878 184, 89.327 182.534, 91.007 181.496 C 93.965 179.667, 99.885 161.037, 102.105 146.571 C 102.828 141.857, 103.775 138, 104.210 138 C 104.644 138, 105 136.644, 105 134.988 C 105 132.433, 105.828 131.446, 110.452 128.488 C 113.451 126.569, 116.304 125, 116.792 125 C 117.280 125, 123.462 121.175, 130.529 116.500 C 137.596 111.825, 143.631 107.977, 143.939 107.948 C 145.364 107.817, 151 99.542, 151 97.580 C 151 94.894, 147.561 91, 145.188 91 C 144.235 91, 140.990 92.654, 137.977 94.675 C 130.204 99.892, 116.193 108.611, 111.606 111.086 L 107.713 113.187 108.252 110.344 C 108.549 108.780, 109.374 103.619, 110.086 98.875 C 111.313 90.704, 111.552 90.157, 114.632 88.499 C 118.470 86.432, 119.266 84.829, 118.046 81.622 C 116.957 78.757, 114.232 78.166, 107.041 79.233 M 170.560 116.131 C 165.089 120.435, 163.921 129.245, 164.877 159 C 165.656 183.256, 166.129 185.435, 171.743 190.637 C 177.483 195.957, 188 191.504, 188 183.754 C 188 180.310, 185.596 177, 183.095 177 C 181.449 177, 181.927 127.538, 183.603 124.500 C 185.254 121.508, 183.562 116.738, 180.323 115.250 C 176.409 113.452, 173.649 113.702, 170.560 116.131 M 67.211 198.538 C 66.501 199.342, 65.040 200, 63.962 200 C 62.224 200, 62.393 200.543, 65.458 204.808 C 68.105 208.493, 69.680 212.630, 72.200 222.517 C 74.009 229.612, 75.637 234.648, 75.818 233.708 C 75.999 232.769, 76.789 232, 77.573 232 C 78.358 232, 79 231.647, 79 231.216 C 79 230.784, 80.237 229.667, 81.750 228.733 C 83.263 227.799, 87.200 224.490, 90.500 221.381 C 93.800 218.271, 98.150 214.682, 100.166 213.404 C 106.250 209.549, 106.232 209.301, 99.500 204.250 C 97.232 202.549, 87.692 199.798, 79.374 198.448 C 68.679 196.712, 68.822 196.711, 67.211 198.538" stroke="none" fill="black" fill-rule="evenodd"/>
</svg>