<svg xmlns="http://www.w3.org/2000/svg" width="300" height="300" viewBox="0 0 300 300" version="1.1">
	<path d="M 225.535 29.550 C 223.870 30.808, 223.512 32.526, 223.197 40.768 C 222.878 49.117, 223.690 55.688, 228.913 87 C 232.262 107.075, 235.445 128.900, 235.988 135.500 C 236.531 142.100, 237.673 154.025, 238.527 162 C 241.780 192.404, 241.409 251.063, 237.844 270.114 C 236.927 275.014, 236.393 275.904, 233.647 277.114 C 231.191 278.196, 230.431 279.210, 230.188 281.733 C 229.436 289.519, 240.280 293.123, 246.008 286.992 C 253.316 279.169, 254.988 265.862, 254.991 215.500 C 254.994 166.178, 253.514 148.121, 245.854 104 C 244.182 94.375, 242.378 83.575, 241.843 80 C 241.308 76.425, 239.796 66.750, 238.482 58.500 C 237.168 50.250, 235.794 41.475, 235.428 39 C 234.628 33.582, 232.656 29.466, 230.455 28.621 C 228.227 27.766, 227.783 27.850, 225.535 29.550 M 60.296 38.526 C 58.634 39.743, 58.524 41.733, 58.827 65.170 C 59.099 86.220, 58.804 93.317, 57.077 107.175 C 54.328 129.244, 54.306 139.306, 57 142 C 59.540 144.540, 62.050 144.535, 65.290 141.986 C 67.543 140.214, 67.853 139.224, 67.870 133.736 C 67.881 130.306, 68.815 120.525, 69.945 112 C 71.075 103.475, 72.541 88.284, 73.201 78.242 L 74.402 59.984 78.451 58.088 C 80.678 57.045, 86.687 55.447, 91.803 54.536 C 104.118 52.344, 107.339 53.272, 110.287 59.863 C 112.067 63.842, 112.456 67.340, 113.028 84.504 C 113.737 105.789, 114.474 109.118, 119.217 112.439 C 120.442 113.298, 123.282 114, 125.527 114 C 130.684 114, 135.885 110.702, 146.250 100.860 C 155.115 92.442, 156.053 89.644, 151.009 86.664 C 148.210 85.011, 147.796 85.003, 144.555 86.541 C 142.650 87.445, 140.566 88.818, 139.924 89.592 C 139.281 90.366, 138.356 91, 137.868 91 C 137.381 91, 135.523 92.394, 133.741 94.098 C 128.125 99.467, 127.298 99.540, 126.656 94.726 C 126.346 92.402, 125.799 84.650, 125.441 77.500 C 124.177 52.302, 118.317 43.030, 102.531 41.251 C 97.166 40.646, 81.832 44.450, 76.781 47.638 L 72.968 50.045 71.984 47.458 C 71.443 46.034, 71 44.510, 71 44.071 C 71 42.738, 66.074 38.253, 64.020 37.715 C 62.960 37.438, 61.285 37.803, 60.296 38.526 M 179.125 88.349 C 176.002 92.112, 175.224 107.171, 177.412 121.535 C 181.936 151.242, 186.362 167.182, 191.742 173.136 C 196 177.849, 199.820 178.271, 203.641 174.450 C 206.676 171.415, 206.253 167.891, 202.431 164.348 C 200.938 162.964, 200 160.982, 200 159.208 C 200 157.619, 199.150 152.985, 198.111 148.910 C 195.702 139.460, 193.399 127.682, 191.970 117.500 C 190.609 107.811, 186.240 89.995, 184.799 88.257 C 183.429 86.607, 180.532 86.654, 179.125 88.349 M 98.211 124.560 C 94.234 129.385, 91.003 139.579, 90.302 149.513 L 89.732 157.595 76.616 164.491 C 69.402 168.284, 61.147 172.537, 58.270 173.943 C 51.864 177.075, 50.422 180.303, 54.099 183.282 C 57.207 185.800, 64.807 185.159, 71.225 181.837 C 73.709 180.552, 79.062 177.804, 83.121 175.731 L 90.500 171.962 90.807 177.117 C 91.063 181.419, 90.717 182.704, 88.711 184.886 C 87.390 186.324, 84.130 191.100, 81.469 195.500 C 78.807 199.900, 74.257 207.325, 71.358 212 C 62.540 226.221, 59 233.972, 59 239.059 C 59 241.556, 59.540 244.140, 60.200 244.800 C 62.132 246.732, 66.481 246.191, 68.652 243.750 C 71.386 240.675, 77 231.882, 77 230.674 C 77 230.133, 79.955 225.251, 83.568 219.825 C 87.180 214.399, 90.862 207.831, 91.750 205.230 L 93.365 200.500 96.544 218.506 C 98.292 228.409, 100.058 240.535, 100.468 245.453 C 101.278 255.187, 102.728 258.464, 106.659 259.450 C 110.393 260.388, 113.765 257.768, 114.608 253.275 C 115.350 249.321, 113.734 236.219, 109.558 212.337 C 106.438 194.496, 104.758 178.332, 105.176 170.188 L 105.500 163.876 112.916 159.839 C 116.995 157.619, 123.520 153.701, 127.416 151.131 C 133.015 147.438, 134.568 145.874, 134.822 143.669 C 135.473 138.033, 130.377 136.253, 124.261 139.982 C 122.480 141.068, 117.124 143.996, 112.360 146.489 L 103.697 151.021 104.315 141.615 C 104.687 135.953, 105.621 130.767, 106.661 128.585 C 108.166 125.430, 108.202 124.783, 106.945 123.588 C 103.697 120.501, 101.341 120.763, 98.211 124.560 M 117.182 186.509 C 114.551 189.607, 116.473 191.881, 125.684 196.562 C 126.335 196.892, 130.800 201.859, 135.607 207.599 C 150.318 225.166, 162.142 230.959, 169.923 224.411 C 173.563 221.348, 174.007 217.221, 170.990 214.491 C 169.260 212.926, 168.645 212.852, 166.567 213.964 C 165.240 214.674, 163.028 214.973, 161.651 214.627 C 160.274 214.282, 154.211 209.049, 148.177 202.999 C 142.143 196.950, 136.965 192, 136.670 192 C 136.374 192, 133.965 190.665, 131.316 189.032 C 125.425 185.402, 119.085 184.271, 117.182 186.509" stroke="none" fill="black" fill-rule="evenodd"/>
</svg>