<svg xmlns="http://www.w3.org/2000/svg" width="300" height="300" viewBox="0 0 300 300" version="1.1">
	<path d="M 100.716 15.250 C 95.850 19.836, 95.351 26.766, 99.701 29.331 C 101.957 30.660, 103.153 34.846, 101.929 37.133 C 100.736 39.361, 102.827 43.613, 105.649 44.696 C 108.131 45.648, 113.777 42.332, 115.566 38.872 C 118.799 32.621, 115.343 19.144, 109.478 15.125 C 105.532 12.422, 103.689 12.448, 100.716 15.250 M 210.981 36.645 C 207.929 37.474, 207.194 42.522, 206.563 67 C 206.215 80.475, 205.609 93.750, 205.216 96.500 L 204.500 101.500 196.032 105.746 C 182.923 112.318, 172.195 116.125, 164.116 117.069 C 156.079 118.009, 153 119.833, 153 123.655 C 153 126.508, 156.028 129.718, 159.555 130.603 C 166.922 132.452, 179.594 129.520, 194.772 122.454 C 197.672 121.104, 200.405 120, 200.845 120 C 201.693 120, 200.985 125.012, 196.610 150 C 191.649 178.334, 185.272 205.758, 178.394 228.343 C 173.624 244.005, 170.619 250.775, 166.431 255.291 C 163.820 258.107, 163.211 262.811, 165.200 264.800 C 165.860 265.460, 168.095 266, 170.167 266 C 175.021 266, 179.199 261.961, 184.193 252.441 C 191.658 238.209, 196.739 221.962, 202.468 194 C 203.877 187.125, 207.242 170.700, 209.946 157.500 C 212.649 144.300, 215.424 129.088, 216.111 123.695 C 216.798 118.302, 217.842 113.242, 218.430 112.449 C 219.485 111.029, 233.016 105.914, 242.214 103.459 C 246.407 102.339, 246.979 102.382, 247.388 103.850 C 248.712 108.602, 250.221 155.436, 249.745 177 C 248.947 213.197, 245.857 232.200, 239.892 237.598 C 238.060 239.256, 237.899 239.247, 236.516 237.419 C 235.717 236.364, 235.049 235.019, 235.032 234.430 C 234.962 232.081, 229.276 227, 226.718 227 C 224.091 227, 221 230.141, 221 232.811 C 221 235.662, 228.187 250.598, 230.594 252.750 C 233.637 255.470, 239.617 255.750, 244.559 253.405 C 249.555 251.034, 255.456 244.071, 257.817 237.759 C 264.248 220.571, 266.670 170.669, 263.417 122.358 C 261.544 94.539, 260.503 91.039, 253.214 88.067 C 248.389 86.100, 240.228 87.296, 230.697 91.368 C 226.188 93.294, 221.829 95.011, 221.008 95.185 C 219.709 95.459, 219.563 92.133, 219.873 69.394 C 220.190 46.249, 220.034 42.874, 218.501 39.644 C 216.799 36.058, 215.317 35.466, 210.981 36.645 M 137 47.966 C 132.402 48.970, 97.864 51.745, 76.944 52.791 L 60.388 53.618 50.444 58.559 C 41.802 62.853, 40.459 63.860, 40.184 66.250 C 39.931 68.443, 40.399 69.201, 42.499 70 C 46.200 71.407, 53.235 71.243, 59.856 69.595 C 63.281 68.743, 73.560 67.980, 86 67.654 C 110.435 67.016, 136.086 64.017, 141.725 61.140 C 148.151 57.862, 149.422 50.902, 144.114 48.061 C 141.918 46.886, 141.940 46.886, 137 47.966 M 109 87.446 C 96.861 88.999, 89.595 90.747, 75.069 95.611 C 66.868 98.357, 64.469 98.826, 63.847 97.802 C 61.842 94.499, 61.215 93.993, 58.435 93.437 C 56.248 93, 54.717 93.435, 52.611 95.091 C 49.884 97.237, 49.780 97.616, 50.329 103.420 C 51.315 113.842, 53.935 131.933, 56.495 146.010 C 57.870 153.568, 58.702 161.062, 58.384 163.021 C 57.940 165.759, 58.267 166.932, 59.885 168.396 C 62.988 171.204, 68.161 170.062, 81.586 163.607 C 90.037 159.543, 93.012 158.494, 92.491 159.759 C 90.910 163.605, 90.861 190.601, 92.394 213.681 C 94.263 241.829, 94.469 266.251, 92.890 272.524 L 91.779 276.933 88.545 274.467 C 84.558 271.426, 83.901 271.412, 81.174 274.314 C 78.525 277.134, 78.433 279.619, 80.840 283.270 C 87.095 292.756, 98.484 293.502, 103.802 284.774 C 108.370 277.278, 109.259 262.580, 107.235 228 C 106.768 220.025, 106.525 213.312, 106.695 213.082 C 107.540 211.936, 113.238 216.234, 119.606 222.821 C 130.805 234.405, 134.921 236.210, 140.365 231.927 C 144.897 228.363, 143.322 221.991, 136.951 218.116 C 135.402 217.175, 131.574 213.501, 128.443 209.952 C 122.199 202.875, 117.177 200.143, 110.250 200.054 L 106 200 105.980 194.750 C 105.969 191.863, 105.497 186.350, 104.930 182.500 C 104.363 178.650, 103.772 170.449, 103.618 164.275 L 103.337 153.051 109.918 150.888 C 122.814 146.649, 128 142.997, 128 138.155 C 128 135.096, 125.349 132, 122.728 132 C 121.841 132, 119.483 132.963, 117.489 134.139 C 115.495 135.316, 109.576 137.135, 104.336 138.183 C 94.690 140.111, 90.609 141.759, 79.154 148.349 C 72.777 152.018, 71.027 152.638, 70.969 151.250 C 70.952 150.838, 70.286 145.100, 69.490 138.500 C 68.693 131.900, 68.032 123.703, 68.021 120.285 C 68.003 114.960, 68.304 113.908, 70.125 112.933 C 80.375 107.447, 116 100.482, 116 103.964 C 116 104.494, 113.496 109.889, 110.436 115.952 C 104.042 128.618, 103.543 132.780, 108.223 134.415 C 110.114 135.076, 111.642 134.993, 113.223 134.142 C 115.893 132.705, 132.377 105.811, 134.089 100.098 C 135.447 95.565, 134.855 92.292, 132.104 89.120 C 129.541 86.164, 122.829 85.678, 109 87.446 M 57.552 207.121 C 53.994 211.349, 52.313 215.628, 49.351 228 C 45.353 244.701, 47.560 255, 55.139 255 C 58.653 255, 59.995 252.621, 60.690 245.164 C 60.980 242.049, 61.885 237.475, 62.701 235 C 63.518 232.525, 64.799 226.675, 65.548 222 C 66.298 217.325, 67.222 211.767, 67.602 209.650 C 68.379 205.325, 67.293 204.041, 62.839 204.015 C 61.075 204.005, 59.292 205.052, 57.552 207.121" stroke="none" fill="black" fill-rule="evenodd"/>
</svg>