<svg xmlns="http://www.w3.org/2000/svg" width="300" height="300" viewBox="0 0 300 300" version="1.1">
	<path d="M 148.500 18.590 C 141.900 19.312, 128.702 21.230, 119.170 22.852 C 105.006 25.263, 101.398 26.217, 99.420 28.075 C 96.477 30.840, 96.383 32.383, 99 35 C 101.758 37.758, 106.218 37.594, 127.601 33.950 C 155.615 29.176, 176 28.834, 176 33.138 C 176 34.780, 168.546 50.303, 166.931 52.025 C 157.106 62.500, 156.226 63.734, 156.725 66.341 C 157.004 67.804, 156.843 69.011, 156.367 69.025 C 155.890 69.039, 148.172 68.044, 139.215 66.815 C 123.996 64.726, 122.752 64.687, 120.215 66.218 C 118.363 67.336, 117.399 68.854, 117.182 70.994 C 116.761 75.146, 118.152 76.602, 123.261 77.359 C 125.592 77.704, 130.650 78.461, 134.500 79.041 C 138.350 79.621, 145.862 80.481, 151.193 80.953 C 164.661 82.146, 166.093 83.523, 156.500 86.057 C 154.300 86.639, 150.025 88.267, 147 89.677 C 143.975 91.086, 139.897 92.810, 137.939 93.509 C 135.980 94.207, 132.380 95.666, 129.939 96.752 C 127.497 97.838, 122.237 99.952, 118.250 101.450 C 112.090 103.765, 111 104.527, 111 106.516 C 111 109.621, 113.305 111.779, 117.454 112.557 C 121.585 113.332, 125.579 112.516, 132.351 109.514 C 155.851 99.098, 161.790 96.811, 171 94.637 C 176.775 93.273, 184.053 91.897, 187.174 91.579 C 192.208 91.066, 193.177 91.278, 195.775 93.464 C 197.599 94.999, 199.420 98.112, 200.602 101.714 C 202.292 106.867, 202.500 110.726, 202.500 137 C 202.500 165.683, 202.438 166.617, 200.249 170.713 C 199.011 173.029, 196.198 176.707, 193.999 178.884 C 189.739 183.101, 189.406 184.021, 191.035 187.066 C 191.793 188.482, 193.139 189, 196.058 189 C 199.333 189, 200.836 188.271, 204.478 184.914 C 210.623 179.249, 213.448 173.881, 215.361 164.230 C 217.253 154.682, 217.544 129.891, 215.903 118 C 215.334 113.875, 214.495 107.720, 214.040 104.321 C 212.608 93.642, 207.041 84.605, 199.528 80.764 C 196.118 79.020, 194.333 78.812, 186.912 79.293 C 178.305 79.850, 178.258 79.840, 176.170 77.016 C 175.016 75.456, 172.369 73.655, 170.286 73.014 C 168.204 72.373, 165.881 71.650, 165.124 71.407 C 164.235 71.122, 165.120 69.971, 167.624 68.157 C 178.424 60.334, 187.942 44.989, 188.190 35 C 188.428 25.436, 184.112 20.231, 174.201 18.126 C 167.909 16.789, 164.379 16.853, 148.500 18.590 M 95.359 89.480 C 93.621 90.750, 93.541 92.955, 93.861 130.904 C 94.165 166.918, 94.037 171.049, 92.600 171.600 C 90.784 172.297, 90.491 176.180, 92.035 179.066 C 92.785 180.467, 94.138 181, 96.946 181 C 102.552 181, 105.976 176.746, 106.064 169.673 C 106.099 166.828, 106.481 159.275, 106.912 152.889 C 107.369 146.115, 107.225 131.504, 106.566 117.813 C 105.464 94.895, 105.380 94.289, 102.966 91.875 C 99.625 88.534, 97.547 87.880, 95.359 89.480 M 147.529 106.750 C 146.126 108.263, 144.721 110.400, 144.408 111.500 C 141.620 121.282, 141.144 121.842, 133.620 124.196 C 124.893 126.926, 119.270 130.561, 115.616 135.832 C 112.614 140.164, 112.466 143.648, 115.212 145.369 C 116.565 146.217, 118.625 145.557, 125.043 142.221 C 129.509 139.899, 133.801 138, 134.581 138 C 136.330 138, 136.476 141.897, 134.750 142.497 C 125.373 145.755, 121.184 147.787, 116.950 151.134 C 111.160 155.711, 109.586 158.780, 111.052 162.637 C 112.008 165.150, 112.311 165.248, 117.514 164.711 C 121.479 164.302, 124.409 163.185, 128.215 160.635 C 131.097 158.703, 133.528 157.207, 133.617 157.311 C 133.706 157.415, 133.322 164.131, 132.765 172.235 C 131.864 185.334, 131.934 187.250, 133.399 189.485 C 134.418 191.041, 135.982 192, 137.500 192 C 142.167 192, 142.820 189.796, 147.829 157.121 L 148.500 152.742 157.500 150.065 C 168.557 146.776, 170.832 145.573, 172.048 142.374 C 174.385 136.226, 169.028 134.511, 156.692 137.459 L 150.885 138.846 151.192 135.741 C 151.487 132.770, 151.817 132.557, 158.800 130.847 C 162.814 129.863, 168.889 127.583, 172.300 125.779 C 177.613 122.969, 178.543 122.063, 178.799 119.445 C 179.034 117.042, 178.564 116.104, 176.594 115.051 C 174.423 113.888, 172.896 114.019, 165.062 116.039 C 160.096 117.319, 155.749 118.082, 155.401 117.734 C 155.053 117.387, 155.271 115.662, 155.884 113.902 C 157.447 109.418, 157.303 108.360, 154.811 106.039 C 151.909 103.335, 150.577 103.465, 147.529 106.750 M 169.500 192.120 C 161.702 193.860, 145.851 198.184, 122 205.079 C 109.427 208.714, 102.400 210.001, 92 210.576 C 86.225 210.896, 80.487 211.648, 79.250 212.248 C 76.627 213.519, 76.226 217.564, 78.426 220.559 C 79.739 222.345, 81 222.481, 94.176 222.262 C 105.751 222.069, 110.190 221.557, 117.307 219.591 C 122.151 218.253, 125.974 217.460, 125.802 217.829 C 125.630 218.198, 124.300 220.975, 122.846 224 C 118.785 232.450, 114.652 241.790, 111.564 249.500 C 102.050 273.249, 98.527 279, 93.491 279 C 88.421 279, 84.915 286.025, 88.501 289 C 90.909 291, 98.096 291.330, 102.105 289.627 C 104.088 288.784, 107.064 286.553, 108.718 284.668 C 116.066 276.299, 126.218 253.065, 132.603 230 C 135.542 219.385, 138.549 213.331, 141.180 212.731 C 142.456 212.441, 147.325 211.058, 152 209.658 C 164.363 205.956, 180.346 202.837, 185.139 203.192 C 188.338 203.429, 189.786 204.152, 191.400 206.320 C 193.309 208.884, 193.530 210.722, 193.831 226.479 C 194.084 239.712, 193.797 245.243, 192.621 249.836 C 190.682 257.403, 187.555 264.109, 184.354 267.563 C 182.180 269.909, 181.376 270.156, 177.780 269.581 C 173.712 268.930, 169.626 267.057, 165.186 263.806 C 162.755 262.026, 160.660 262.308, 157.750 264.807 C 154.972 267.193, 155.702 270.166, 160.231 274.902 C 166.231 281.178, 173.784 284.308, 181.713 283.804 C 190.357 283.256, 194.073 280.126, 200.318 268.138 C 204.923 259.299, 205.208 258.269, 206.753 244.927 C 208.146 232.887, 208.193 229.280, 207.094 218.732 C 205.592 204.312, 203.094 197.699, 197.555 193.474 C 194.364 191.040, 192.833 190.625, 186.184 190.387 C 181.210 190.209, 175.326 190.821, 169.500 192.120" stroke="none" fill="black" fill-rule="evenodd"/>
</svg>