<svg xmlns="http://www.w3.org/2000/svg" width="300" height="300" viewBox="0 0 300 300" version="1.1">
	<path d="M 139.241 10.468 C 136.348 11.815, 132.073 14.229, 129.741 15.833 C 120.978 21.861, 109.073 28.072, 88.052 37.583 C 80.928 40.805, 76 44.961, 76 47.744 C 76 50.181, 78.772 54, 80.541 54 C 81.326 54, 84.755 52.650, 88.161 51 C 91.568 49.350, 95.287 47.995, 96.427 47.988 C 97.567 47.981, 102.072 46.416, 106.439 44.510 C 110.805 42.604, 114.575 41.242, 114.817 41.484 C 115.059 41.726, 114.778 43.853, 114.192 46.212 C 113.607 48.570, 112.813 54.876, 112.429 60.226 C 111.876 67.920, 111.392 70.049, 110.115 70.418 C 107.044 71.305, 91.466 73.902, 82.500 75.021 C 72.025 76.328, 68.150 77.926, 64.006 82.646 C 60.169 87.016, 59.983 91.288, 63.530 93.611 C 65.956 95.201, 66.314 95.142, 72.280 92.162 C 77.076 89.766, 81.133 88.714, 90 87.565 C 96.325 86.746, 103.638 85.772, 106.250 85.402 L 111 84.728 111 124.343 L 111 163.957 108.574 162.852 C 106.099 161.724, 103.001 162.974, 94.693 168.454 L 91.885 170.305 92.540 167.403 C 92.900 165.806, 93.614 162.925, 94.128 161 C 94.641 159.075, 95.345 153, 95.692 147.500 L 96.322 137.500 100.411 134.466 C 103.038 132.516, 104.609 130.505, 104.804 128.841 C 105.223 125.281, 102.424 122.665, 98.943 123.361 C 96.373 123.875, 96.175 123.653, 95.561 119.559 C 95.202 117.167, 95.193 114.077, 95.541 112.692 C 96.338 109.517, 93.106 105.898, 90.160 106.668 C 85.482 107.892, 83.785 111.375, 83.244 120.860 L 82.732 129.831 78.616 131.308 C 76.352 132.120, 70.780 133.819, 66.233 135.084 C 54.433 138.365, 51.211 142.211, 56.135 147.135 C 58.059 149.059, 58.992 149.210, 65.547 148.656 C 69.549 148.317, 75.169 147.116, 78.036 145.986 L 83.249 143.931 82.616 155.716 C 81.498 176.525, 81.695 175.908, 74.667 180.500 C 67.346 185.283, 65.226 187.274, 63.988 190.531 C 61.921 195.968, 66.294 198.305, 73.433 195.579 C 77.527 194.015, 95.127 182.126, 106.750 173.073 L 112 168.983 112 182.316 L 112 195.649 106.393 202.074 C 103.310 205.609, 99.372 210.558, 97.643 213.074 C 95.914 215.589, 90.296 223.304, 85.158 230.217 C 77.761 240.169, 75.206 242.909, 72.891 243.372 C 69.387 244.073, 67.768 247.542, 68.202 253.418 C 68.533 257.897, 71.396 260.223, 75.334 259.214 C 78.498 258.403, 87.623 248.720, 96.394 236.865 C 100.612 231.164, 105.736 224.351, 107.782 221.724 L 111.500 216.947 111.770 238.690 C 111.980 255.564, 111.718 261.381, 110.599 264.662 C 108.839 269.830, 109.491 272.834, 112.540 273.599 C 116.036 274.477, 118.095 273.758, 120.210 270.923 C 123.662 266.295, 124.296 260.903, 124.902 231 L 125.500 201.500 128.155 206.016 C 132.201 212.898, 147.725 227.328, 155.075 231.038 C 160.592 233.823, 162.127 234.161, 167.647 233.810 C 172.544 233.498, 174.496 232.883, 176.468 231.030 C 181.618 226.192, 178.597 221, 170.631 221 C 165.430 221, 160.326 218.732, 155.256 214.168 C 135.914 196.754, 132.704 194.291, 128.175 193.385 L 125.304 192.811 124.652 177.746 C 124.293 169.461, 124 144.087, 124 121.360 L 124 80.038 126.750 79.380 C 130.493 78.484, 139.685 74.479, 150.500 69.032 L 159.500 64.500 159.802 59.813 C 160.203 53.596, 158.271 52.412, 151.972 55.015 C 142.308 59.008, 126.750 65, 126.046 65 C 125.172 65, 123.919 40.027, 124.652 37.224 C 124.927 36.172, 128.380 33.414, 132.326 31.094 C 143.855 24.317, 149.808 19.755, 152.514 15.620 L 154.400 12.741 151.644 10.370 C 148.172 7.384, 145.826 7.402, 139.241 10.468 M 243.572 45.250 C 240.928 58.020, 242.479 93.605, 248.050 148 C 251.587 182.535, 252.294 195.993, 251.698 217.500 C 250.992 243.015, 249.889 250.414, 245.259 260.702 C 243.286 265.086, 237.001 267.492, 229.768 266.632 C 211.930 264.511, 213.401 264.411, 212.210 267.826 C 209.977 274.234, 217.168 278.824, 230.794 279.687 C 249.759 280.888, 256.942 274.752, 262.031 253 C 264.342 243.126, 264.483 240.860, 264.400 215 C 264.306 185.467, 262.046 153.890, 257.350 116.500 C 255.968 105.500, 254.452 91.775, 253.981 86 C 252.986 73.804, 250.181 48.530, 249.458 45.250 C 249.107 43.660, 248.239 43, 246.500 43 C 244.752 43, 243.903 43.652, 243.572 45.250 M 144.578 94.919 C 143.160 96.399, 142 97.893, 142 98.239 C 142 98.585, 139.516 102.160, 136.481 106.184 C 127.377 118.251, 126.755 120.098, 126.672 135.330 C 126.609 146.736, 126.886 149.134, 128.737 153.235 C 132.803 162.242, 145.312 172, 152.793 172 C 158.633 172, 169 163.105, 169 158.096 C 169 155.737, 165.712 152, 163.638 152 C 162.888 152, 160.576 153.350, 158.500 155 C 156.424 156.650, 153.663 158, 152.365 158 C 147.731 158, 140.789 149.670, 140.531 143.799 C 140.496 143, 147.122 139.121, 154.519 135.611 C 160.525 132.761, 166 127.446, 166 124.465 C 166 122.230, 163.177 119, 161.224 119 C 160.609 119, 157.990 120.125, 155.404 121.500 C 152.818 122.875, 150.146 124, 149.465 124 C 148.785 124, 146.940 124.672, 145.364 125.494 C 140.496 128.033, 140.195 127.631, 141.552 120.411 C 142.398 115.909, 143.912 112.188, 146.333 108.661 C 150.739 102.245, 152.173 98.538, 151.417 95.525 C 150.544 92.046, 147.581 91.784, 144.578 94.919 M 204.463 113.040 C 201.685 114.089, 198.346 117.929, 196.621 122.057 C 194.182 127.892, 193.756 136.522, 194.929 156.326 C 195.925 173.150, 196.309 175.676, 198.539 180.076 C 200.966 184.867, 201.155 185, 205.498 185 C 209.493 185, 210.032 184.722, 210.627 182.349 C 210.993 180.891, 210.771 178.257, 210.134 176.495 C 207.112 168.137, 206.211 141.348, 208.486 127.500 C 209.300 122.550, 209.973 117.315, 209.983 115.867 C 210.002 112.964, 207.736 111.804, 204.463 113.040" stroke="none" fill="black" fill-rule="evenodd"/>
</svg>