<svg xmlns="http://www.w3.org/2000/svg" width="300" height="300" viewBox="0 0 300 300" version="1.1">
	<path d="M 113.952 18.051 C 112.385 19.729, 110.839 21.932, 110.517 22.946 C 110.163 24.062, 108.575 25.045, 106.495 25.435 C 100.350 26.588, 98.447 33.298, 104.015 34.180 C 105.750 34.455, 103.952 37.633, 91.267 56.711 C 67.498 92.462, 63.160 98.402, 50.191 112.949 C 44.500 119.332, 42.950 121.718, 43.191 123.723 C 43.575 126.920, 45.937 128.494, 49.095 127.658 C 50.418 127.309, 55.171 123.480, 59.657 119.150 L 67.814 111.278 68.297 114.389 C 68.563 116.100, 70.449 122, 72.488 127.500 C 74.527 133, 76.798 140.289, 77.534 143.698 C 79.452 152.570, 80.418 154, 84.500 154 C 89.029 154, 90.347 151.473, 89.795 143.847 C 89.277 136.680, 90.989 134.285, 95.425 135.972 C 96.913 136.537, 99.839 137, 101.926 137 C 105.399 137, 105.683 137.205, 105.262 139.412 C 104.918 141.212, 105.475 142.265, 107.458 143.564 C 110.006 145.234, 110.224 145.224, 112.807 143.314 C 116.182 140.819, 118.889 135.499, 118.952 131.239 C 119.024 126.377, 116.022 108.731, 114.891 107.369 C 113.572 105.780, 118.348 104.357, 127.827 103.515 C 131.857 103.157, 138.260 102.048, 142.055 101.052 L 148.955 99.241 149.596 102.662 C 149.968 104.645, 149.319 111.422, 148.051 118.791 C 144.806 137.648, 144.400 138.879, 141.213 139.560 C 139.721 139.878, 137.466 140.557, 136.203 141.069 C 132.208 142.688, 131.544 142.088, 134.192 139.250 C 141.891 131.001, 145.165 119.892, 141.303 115.125 C 139.249 112.590, 134.966 111.953, 132.687 113.845 C 131.961 114.448, 130.099 118.584, 128.548 123.037 C 126.919 127.719, 124.269 132.882, 122.268 135.278 C 119.449 138.652, 118.903 140.014, 119.325 142.617 L 119.844 145.813 111.672 148.297 C 107.177 149.663, 102.291 151.057, 100.812 151.394 C 99.334 151.731, 95.212 153.355, 91.651 155.003 C 88.090 156.652, 84.687 158, 84.088 158 C 83.490 158, 83 159.136, 83 160.525 C 83 162.315, 83.746 163.333, 85.565 164.025 C 91.974 166.461, 100.744 164.746, 127.495 155.825 C 136.835 152.710, 139.875 152.065, 141.231 152.912 C 144.033 154.662, 146.912 154.179, 149.579 151.512 C 152.621 148.470, 158.771 135.880, 159.579 131.041 C 159.904 129.093, 160.807 124.256, 161.585 120.292 C 165.543 100.132, 161.524 87.082, 151 85.922 C 147.929 85.583, 140.132 86.900, 137.727 88.164 C 136.752 88.676, 132.041 89.540, 127.258 90.083 C 119.295 90.988, 109.770 93.197, 106.012 95.010 C 105.180 95.411, 100 97.872, 94.500 100.479 C 89 103.087, 83.448 106.183, 82.161 107.360 L 79.823 109.500 77.416 106.500 C 76.093 104.850, 75.008 103.219, 75.005 102.876 C 75.002 102.533, 78.348 97.763, 82.440 92.276 L 89.879 82.300 96.452 81.687 C 100.067 81.349, 104.706 80.622, 106.762 80.070 C 117.103 77.295, 134.150 73.720, 139.289 73.247 C 145.867 72.643, 149.089 69.919, 148.274 65.652 C 147.536 61.795, 144.112 60.636, 135.293 61.258 C 126.350 61.890, 110.559 64.601, 104.080 66.618 C 101.650 67.375, 99.575 67.883, 99.469 67.747 C 99.290 67.516, 111.525 48.060, 115.125 42.851 L 116.750 40.500 121.664 45.093 C 125.977 49.124, 145.872 60, 148.933 60 C 149.466 60, 153.412 61.538, 157.702 63.418 C 170.544 69.045, 177 69.096, 177 63.570 C 177 60.340, 173.624 57.378, 166.500 54.356 C 141.162 43.609, 133.788 39.797, 127.500 34.197 C 122.521 29.762, 122.501 29.721, 122.847 24.307 C 123.110 20.180, 122.772 18.405, 121.442 16.935 C 119.009 14.248, 117.262 14.508, 113.952 18.051 M 240.313 49.597 C 237.766 52.144, 237.746 52.283, 238.452 62.817 C 238.844 68.673, 239.555 94.172, 240.032 119.482 C 240.575 148.313, 241.671 175.584, 242.965 192.500 C 244.101 207.350, 245.318 228.128, 245.669 238.673 C 246.221 255.274, 246.069 258.694, 244.537 264.173 C 242.892 270.052, 240.033 275.418, 237.548 277.290 C 235.672 278.703, 226.990 276.980, 220.747 273.955 C 211.355 269.406, 205 270.333, 205 276.254 C 205 279.615, 208.122 282.100, 218.500 286.999 C 237.351 295.897, 248.473 292.680, 254.796 276.500 C 259.774 263.763, 260.035 249.419, 256.181 200.500 C 253.846 170.849, 252.443 141.868, 250.883 91.016 C 250.239 69.997, 249.327 54.142, 248.648 52.121 C 247.016 47.270, 243.656 46.253, 240.313 49.597 M 197.615 104.465 C 196.285 106.495, 196.001 109.978, 196.008 124.215 C 196.015 142.177, 196.618 148.050, 200.086 164 C 203.661 180.438, 207.757 186.806, 212.962 184.020 C 215.560 182.630, 215.561 179.059, 212.965 168.500 C 210.778 159.608, 208.413 121.599, 209.448 112 C 210.231 104.741, 208.480 102, 203.058 102 C 200.093 102, 198.866 102.556, 197.615 104.465 M 97.890 113.295 C 96.025 114.557, 92.362 116.622, 89.750 117.884 C 84.047 120.639, 83.207 123.427, 88.373 122.458 C 91.020 121.961, 93.073 122.516, 97.916 125.036 C 101.309 126.802, 104.349 127.984, 104.671 127.662 C 104.993 127.340, 104.749 125.060, 104.128 122.595 C 103.508 120.131, 103 116.514, 103 114.557 C 103 110.378, 102.412 110.233, 97.890 113.295 M 122.994 170.886 C 118.246 172.422, 114.371 174.865, 110.434 178.801 C 107.130 182.105, 106.279 182.524, 105.204 181.374 C 101.910 177.847, 97.576 182.163, 94.281 192.252 C 90.660 203.340, 89.413 220.837, 90.725 242.122 C 91.908 261.295, 92.707 264, 97.194 264 C 99.297 264, 100.270 264.766, 101.523 267.408 C 104.559 273.805, 112.708 274.570, 123.790 269.496 C 126.788 268.123, 130.698 267, 132.477 267 C 134.635 267, 137.239 265.834, 140.296 263.500 C 142.817 261.575, 145.827 260, 146.985 260 C 149.094 260, 154 255.913, 154 254.156 C 154 253.642, 153.182 252.211, 152.181 250.976 C 150.493 248.891, 150.470 248.364, 151.856 243.615 C 153.795 236.970, 154.007 204.671, 152.182 194 C 150.527 184.325, 146.651 175.038, 143.210 172.503 C 141.157 170.990, 138.683 170.454, 133 170.291 C 128.875 170.172, 124.372 170.439, 122.994 170.886 M 127.410 184.444 C 119.961 185.859, 116.073 188.219, 112.059 193.760 C 110.318 196.163, 108.170 198, 107.101 198 C 106.063 198, 104.941 198.712, 104.607 199.582 C 103.843 201.574, 103.804 214, 104.562 214 C 105.783 214, 115.563 210.646, 116.554 209.888 C 117.133 209.444, 122.421 208.331, 128.304 207.415 L 139 205.749 138.963 202.625 C 138.900 197.231, 136.349 185.915, 134.893 184.573 C 133.784 183.549, 132.257 183.523, 127.410 184.444 M 134.500 219.498 C 133.950 219.685, 130.125 220.836, 126 222.056 C 121.875 223.276, 116.377 225.337, 113.783 226.637 C 111.189 227.937, 108.432 229, 107.656 229 C 104.876 229, 104.216 231.689, 103.829 244.602 L 103.436 257.705 106.104 258.886 C 108.266 259.843, 110.453 259.696, 117.636 258.111 C 130.900 255.184, 133.769 253.705, 135.920 248.687 C 138.610 242.410, 140 234.837, 140 226.451 C 140 219.367, 139.889 219.004, 137.750 219.079 C 136.512 219.122, 135.050 219.311, 134.500 219.498" stroke="none" fill="black" fill-rule="evenodd"/>
</svg>