<svg xmlns="http://www.w3.org/2000/svg" width="300" height="300" viewBox="0 0 300 300" version="1.1">
	<path d="M 128.604 11.250 C 125.561 15.999, 124.798 22.055, 125.527 35.663 C 126.296 50.016, 125.599 58.366, 123.686 57.729 C 123.041 57.514, 119.944 58.382, 116.804 59.658 C 113.664 60.934, 106.573 63.512, 101.047 65.388 L 91 68.799 90.957 63.649 C 90.850 50.879, 89.082 26.235, 88.088 23.675 C 86.308 19.086, 84.707 17.963, 81.923 19.351 C 80.612 20.005, 78.943 21.656, 78.213 23.020 C 76.869 25.534, 76.884 26.804, 78.650 60.166 L 79.268 71.832 75.384 72.910 C 73.248 73.504, 70.854 73.991, 70.064 73.994 C 66.444 74.008, 55.594 77.406, 53.964 79.036 C 49.962 83.038, 49.708 88.183, 53.442 89.616 C 54.262 89.931, 60.329 89.246, 66.925 88.094 C 73.520 86.942, 79.095 86, 79.313 86 C 79.531 86, 80.026 92.188, 80.413 99.750 C 80.800 107.313, 81.575 118.225, 82.134 124 C 82.694 129.775, 83.513 138.299, 83.954 142.942 C 84.822 152.091, 86.661 155, 91.576 155 C 95.101 155, 96.114 152.074, 95.368 144.045 L 94.713 137 98.819 137 C 103.499 137, 111.449 134.126, 116.768 130.511 C 118.758 129.159, 120.535 128.202, 120.718 128.384 C 120.900 128.566, 120.363 131.349, 119.524 134.568 C 117.574 142.055, 117.589 146.888, 119.569 149.077 C 121.023 150.683, 120.895 150.861, 117.819 151.490 C 114.216 152.228, 94.324 158.537, 81.500 163.009 C 77.100 164.543, 71.999 166.065, 70.164 166.392 C 68.329 166.718, 63.010 168.773, 58.344 170.960 C 53.678 173.146, 48.205 175.234, 46.180 175.598 C 41.483 176.444, 40 177.653, 40 180.637 C 40 182.252, 41.057 183.691, 43.250 185.066 C 47.147 187.508, 51.998 187.151, 64.615 183.495 C 72.166 181.307, 105.268 170.207, 109.168 168.555 C 110.697 167.908, 110.789 169.128, 110.275 183.205 C 109.612 201.375, 110.391 209.391, 113.082 212.082 C 115.920 214.920, 119.414 214.486, 122.411 210.923 C 125.053 207.784, 125.923 203, 123.853 203 C 122.312 203, 123.542 182.177, 125.537 174.521 C 126.341 171.431, 127 167.629, 127 166.073 C 127 162.906, 126.174 163.324, 143 157.988 C 159.832 152.650, 163 150.548, 163 144.721 C 163 140.129, 156.784 137.146, 154.058 140.430 C 153.406 141.216, 149.413 142.597, 145.186 143.499 C 140.959 144.401, 135.382 145.735, 132.794 146.463 L 128.089 147.788 130.095 142.644 C 134.095 132.385, 138.055 111.198, 139 95 C 140.471 69.783, 140.558 18.002, 139.135 14.581 C 136.782 8.923, 131.222 7.164, 128.604 11.250 M 216.188 66.562 C 212.629 70.593, 210.770 79.432, 210.101 95.500 C 209.735 104.300, 209.124 112.001, 208.743 112.613 C 208.363 113.225, 206.003 114.299, 203.500 115 C 200.997 115.701, 198.709 116.663, 198.415 117.137 C 198.122 117.612, 197.121 118.015, 196.191 118.034 C 191.762 118.123, 178.240 127.195, 177.370 130.661 C 177.063 131.885, 177.143 133.422, 177.547 134.077 C 178.732 135.993, 191.579 134.530, 199.369 131.591 C 203.147 130.166, 206.410 129, 206.619 129 C 209.910 129, 198.270 190.186, 189.306 220 C 184.062 237.444, 183.854 238.076, 181.888 242.521 C 180.244 246.236, 179.754 246.617, 177.117 246.230 C 170.950 245.325, 170.435 254.252, 176.439 257.962 C 185.128 263.332, 191 258.861, 196.088 243 C 197.058 239.975, 198.741 235.025, 199.827 232 C 206.565 213.238, 214.754 179.297, 218.044 156.500 C 219.234 148.250, 220.836 137.729, 221.604 133.119 C 222.372 128.509, 223 124.368, 223 123.916 C 223 122.824, 229.676 121.013, 233.730 121.006 C 239.389 120.996, 240.438 124.720, 242.886 153.500 C 247.422 206.845, 247.969 223.537, 245.391 229.980 C 244.507 232.191, 243.460 234, 243.066 234 C 241.815 234, 238.298 229.643, 236.204 225.500 C 235.093 223.300, 232.772 220.159, 231.047 218.520 C 228.058 215.680, 227.783 215.611, 225.205 217.053 C 221.926 218.888, 221.378 221.684, 223.424 226.148 C 227.274 234.551, 232.261 241.199, 236.946 244.176 C 242.162 247.489, 246.265 247.746, 250.710 245.035 C 260.063 239.332, 263.854 222.293, 261.067 198.474 C 260.554 194.088, 259.420 181.275, 258.547 170 C 255.837 134.993, 254.992 128.358, 252.404 121.756 C 247.907 110.280, 240.114 105.476, 229.842 107.847 C 227.095 108.481, 224.432 109, 223.924 109 C 223.389 109, 223 100.540, 223 88.934 C 223 77.015, 222.580 68.083, 221.965 66.934 C 220.742 64.649, 218.031 64.475, 216.188 66.562 M 116.500 73.213 C 112.100 75.433, 104.900 78.477, 100.500 79.977 L 92.500 82.704 92.858 89.602 C 93.055 93.396, 93.296 96.591, 93.394 96.703 C 93.492 96.814, 95.806 95.807, 98.536 94.463 C 104.537 91.510, 112.740 89.829, 119.500 90.167 L 124.500 90.417 124.801 84.672 C 124.967 81.512, 124.967 76.733, 124.801 74.052 L 124.500 69.177 116.500 73.213 M 110.500 104.829 C 107.200 106.354, 101.893 108.920, 98.706 110.531 L 92.911 113.460 93.206 118.461 C 93.463 122.826, 93.831 123.577, 96.106 124.373 C 99.379 125.518, 109.873 121.695, 118.167 116.336 C 123.771 112.716, 123.837 112.616, 124.167 107.336 L 124.500 101.997 120.500 102.027 C 118.294 102.043, 113.809 103.300, 110.500 104.829 M 131.161 164.547 C 129.699 167.754, 129.749 169.551, 131.430 174.261 C 133.675 180.552, 140.019 188.769, 145.596 192.611 C 150.531 196.009, 151.276 196.220, 156.907 195.813 C 161.894 195.452, 163.923 194.697, 168.658 191.439 C 177.674 185.234, 181 181.693, 181 178.301 C 181 176.155, 180.303 174.965, 178.470 173.984 C 175.782 172.545, 175.641 172.596, 162.582 179.730 C 158.087 182.186, 153.823 182.055, 150.855 179.369 C 149.878 178.484, 147.645 175.002, 145.893 171.630 C 142.019 164.172, 139.676 162, 135.508 162 C 133.063 162, 132.051 162.593, 131.161 164.547 M 78.598 181.810 C 77.437 184.055, 77.181 189.127, 77.323 207.060 L 77.500 229.500 80.620 236.084 C 86.216 247.895, 93.031 251.675, 110.500 252.657 C 128.917 253.693, 146.505 247.450, 157.839 235.853 C 167.786 225.676, 170.500 217.697, 165.585 213.080 C 162.421 210.108, 159.568 211.019, 157.003 215.823 C 154.093 221.270, 151.202 224.232, 144.238 228.897 C 134.379 235.500, 124.728 238.305, 111.500 238.411 C 101.542 238.492, 100.194 238.282, 97.273 236.199 C 92.680 232.922, 91.002 226.475, 90.992 212.068 C 90.978 190.665, 87.434 179, 80.944 179 C 80.453 179, 79.398 180.264, 78.598 181.810" stroke="none" fill="black" fill-rule="evenodd"/>
</svg>