<svg xmlns="http://www.w3.org/2000/svg" width="300" height="300" viewBox="0 0 300 300" version="1.1">
	<path d="M 244 80 C 242.625 80.440, 235.200 80.861, 227.500 80.935 C 219.800 81.008, 205.175 81.485, 195 81.995 C 184.825 82.505, 167.770 83.238, 157.099 83.623 C 139.536 84.258, 137.262 84.546, 133.099 86.661 C 129.083 88.702, 128.359 88.808, 127.390 87.499 C 125.955 85.561, 123.588 85.587, 121.952 87.558 C 120.895 88.832, 120.899 90.516, 121.976 96.808 C 124.155 109.532, 124.492 149.715, 122.591 170 C 119.898 198.744, 116.056 224.908, 111.432 246 C 106.697 267.598, 103.676 278.583, 100.908 284.265 L 98.586 289.031 100.702 291.147 C 108.852 299.297, 117.124 278.636, 126.383 227 C 129.092 211.890, 131 198.195, 131.008 193.795 C 131.013 191.433, 131.679 184.550, 132.489 178.500 C 134.255 165.304, 134.629 104.786, 132.972 100.426 C 132.407 98.939, 132.069 97.599, 132.222 97.448 C 133.693 95.993, 156.284 94.741, 195 93.967 C 235.046 93.167, 242.259 92.793, 246.967 91.269 C 253.957 89.007, 256.299 85.632, 253.667 81.615 C 251.875 78.880, 248.999 78.399, 244 80" stroke="none" fill="black" fill-rule="evenodd"/>
</svg>