<svg xmlns="http://www.w3.org/2000/svg" width="300" height="300" viewBox="0 0 300 300" version="1.1">
	<path d="M 172 50.089 C 169.525 50.567, 166.600 51.378, 165.500 51.891 C 163.236 52.946, 143.452 56.634, 134.750 57.622 C 131.588 57.981, 129 58.663, 129 59.138 C 129 59.612, 127.763 60.016, 126.250 60.035 C 124.737 60.054, 120.575 60.756, 117 61.594 C 113.425 62.432, 106.225 63.497, 101 63.961 L 91.500 64.805 87.250 69.499 C 84.912 72.081, 83 74.852, 83 75.656 C 83 78.357, 81.065 75.954, 79.972 71.895 C 77.488 62.670, 72.458 58.285, 69.306 62.596 C 66.611 66.283, 68.877 84.020, 72.508 87.651 C 73.329 88.471, 74 89.584, 74 90.124 C 74 91.663, 85.189 108.350, 87.198 109.807 C 88.189 110.525, 89 111.573, 89 112.134 C 89 113.034, 101.388 129.725, 105.365 134.183 C 106.191 135.109, 107.683 137.134, 108.680 138.683 C 109.678 140.232, 113.203 145.100, 116.513 149.500 C 119.824 153.900, 123.343 158.768, 124.333 160.317 C 125.323 161.866, 126.808 163.891, 127.632 164.817 C 130.428 167.958, 136 175.876, 136 176.709 C 136 177.945, 122.200 196.172, 119.413 198.616 C 118.086 199.780, 117 201.081, 117 201.507 C 117 202.613, 93.478 226, 92.366 226 C 91.858 226, 90.793 226.900, 90 228 C 88.169 230.541, 87.850 230.516, 83.405 227.500 C 78.504 224.174, 74.734 224.251, 71.994 227.734 C 69.397 231.036, 69.917 235.515, 73.176 237.911 C 81.942 244.355, 83.337 245, 88.400 244.952 C 93.567 244.903, 96.147 243.860, 104.110 238.601 C 109.455 235.072, 109.435 235.089, 125.250 219.871 C 132.262 213.123, 138 207.194, 138 206.695 C 138 206.196, 139.125 204.903, 140.500 203.821 C 141.875 202.740, 143 201.238, 143 200.484 C 143 199.730, 143.817 198.525, 144.816 197.807 C 145.815 197.088, 146.925 195.713, 147.284 194.750 C 148.244 192.178, 149.155 192.613, 152.617 197.289 C 156.757 202.883, 175.962 225.547, 180.447 230.133 C 182.401 232.131, 184 234.088, 184 234.482 C 184 235.695, 227.585 279, 228.806 279 C 229.438 279, 230.693 280.128, 231.596 281.506 C 233.818 284.898, 241.205 288, 247.059 288 C 251.221 288, 252.140 287.612, 253.932 285.096 C 256.093 282.060, 256.624 277.199, 255.117 274.236 C 254.631 273.281, 253.648 271.250, 252.933 269.723 C 251.260 266.149, 247.496 265.179, 243.716 267.348 L 240.820 269.010 222.110 250.255 C 201.255 229.351, 184.851 211.668, 183.822 208.983 C 183.449 208.010, 182.117 206.495, 180.862 205.616 C 179.606 204.737, 178.112 203.180, 177.540 202.157 C 176.968 201.134, 174.841 198.317, 172.814 195.898 C 170.786 193.479, 166.621 188.492, 163.557 184.816 L 157.986 178.131 161.493 172.147 C 163.422 168.856, 165 165.677, 165 165.082 C 165 164.487, 165.420 164, 165.933 164 C 166.446 164, 167.173 163.031, 167.548 161.848 C 167.924 160.664, 169.594 157.402, 171.259 154.598 C 176.179 146.314, 189.536 119.909, 191.542 114.500 C 192.563 111.750, 193.677 109.275, 194.019 109 C 194.360 108.725, 195.713 105.125, 197.024 101 C 198.335 96.875, 200.029 92.252, 200.789 90.726 C 202.942 86.402, 205.124 72.041, 204.393 67 C 203.312 59.545, 199.860 54.537, 193.426 51.088 C 189.207 48.827, 180.606 48.426, 172 50.089 M 169.500 68.624 C 165.100 69.398, 160.600 70.441, 159.500 70.944 C 156.869 72.146, 142.892 74.684, 131 76.120 C 125.775 76.751, 121.050 77.597, 120.500 78.001 C 119.950 78.404, 116.350 79.754, 112.500 81 C 108.650 82.246, 104.915 83.730, 104.201 84.296 C 103.486 84.863, 99.552 85.366, 95.458 85.413 C 91.364 85.461, 88.011 85.752, 88.007 86.060 C 88.003 86.368, 89.912 88.874, 92.250 91.629 C 94.587 94.384, 98.525 99.038, 101 101.970 C 103.475 104.902, 106.772 108.696, 108.326 110.400 C 109.881 112.105, 112.779 115.975, 114.766 119 C 119.100 125.596, 129.088 139.514, 131.989 143 C 133.134 144.375, 135.015 147.074, 136.171 148.997 C 137.326 150.921, 139.844 154.414, 141.767 156.761 C 145.648 161.497, 146.878 161.310, 149.553 155.580 C 150.343 153.886, 153.446 148, 156.447 142.500 C 159.448 137, 164.179 127.775, 166.960 122 C 169.741 116.225, 173.138 109.362, 174.508 106.749 C 175.879 104.137, 177 101.501, 177 100.892 C 177 100.284, 178.317 97.022, 179.928 93.643 C 183.148 86.886, 186.745 71.384, 185.715 68.701 C 184.922 66.633, 180.933 66.614, 169.500 68.624 M 131.135 90.619 C 129.233 92.768, 130.433 99.362, 133.752 105 C 135.209 107.475, 137.221 111.188, 138.224 113.250 C 139.226 115.313, 140.389 117, 140.808 117 C 141.226 117, 142.365 118.347, 143.338 119.994 C 144.310 121.641, 146.207 123.265, 147.553 123.603 C 148.899 123.940, 150 124.618, 150 125.108 C 150 125.599, 150.822 126, 151.826 126 C 154.378 126, 158.001 121.852, 157.996 118.936 C 157.993 116.786, 154.835 110.357, 153.115 109 C 152.766 108.725, 151.396 105.800, 150.069 102.500 C 148.743 99.200, 147.060 96.140, 146.329 95.700 C 145.598 95.260, 145 94.345, 145 93.666 C 145 89.993, 133.856 87.543, 131.135 90.619" stroke="none" fill="black" fill-rule="evenodd"/>
</svg>