<svg xmlns="http://www.w3.org/2000/svg" width="300" height="300" viewBox="0 0 300 300" version="1.1">
	<path d="M 212.858 34.668 C 210.051 35.415, 209.113 41.909, 210.550 50.654 C 212.510 62.592, 214.315 108.395, 213.507 125.674 L 212.797 140.848 205.648 141.393 C 201.717 141.692, 188.667 142.208, 176.650 142.539 L 154.799 143.141 155.610 126.820 C 156.672 105.470, 156.424 81.145, 155.061 73 C 154.464 69.425, 153.703 64.925, 153.371 63 C 152.729 59.278, 148.548 54, 146.241 54 C 143.667 54, 142.111 56.725, 141.888 61.626 C 141.765 64.310, 142.200 67.505, 142.853 68.726 C 145.679 74.007, 145.890 96.103, 143.473 133.668 L 142.819 143.836 134.659 144.399 C 130.172 144.709, 120.425 145.236, 113 145.571 L 99.500 146.178 99.500 118.839 C 99.500 84.204, 97.866 70.859, 92.295 60 C 91.589 58.625, 91.010 57.100, 91.006 56.610 C 90.995 55.039, 87.582 53.065, 84.821 53.032 C 79.967 52.974, 77.055 58.801, 80.250 62.179 C 86.645 68.939, 89.351 96.637, 87.099 132.271 C 86.655 139.295, 85.963 145.370, 85.563 145.771 C 85.162 146.172, 70.134 146.760, 52.167 147.078 C 23.470 147.586, 18.832 147.890, 14 149.578 C 9.939 150.997, 8.421 152.052, 8.199 153.608 C 7.574 157.989, 11.226 158.349, 50.133 157.745 L 86.118 157.186 85.634 159.843 C 85.367 161.304, 84.171 168.350, 82.975 175.500 C 79.373 197.031, 74.956 214.727, 69.494 229.500 C 62.547 248.291, 62.005 250.376, 63.362 253.112 C 64.215 254.832, 65.527 255.583, 68.050 255.797 C 72.423 256.168, 74.302 253.832, 78.745 242.500 C 87.874 219.219, 94.788 190.542, 97.032 166.652 C 97.489 161.786, 98.006 157.685, 98.181 157.540 C 98.357 157.395, 108.287 157.005, 120.250 156.674 L 142 156.072 141.993 161.286 C 141.990 164.154, 141.093 176.850, 140 189.500 C 137.856 214.321, 137.420 235.344, 138.965 239.407 C 140.551 243.579, 147.912 244.141, 149.512 240.212 C 149.896 239.270, 150.361 230.625, 150.546 221 C 150.731 211.375, 151.351 198.100, 151.925 191.500 C 152.499 184.900, 152.975 174.695, 152.984 168.821 C 152.996 160.973, 153.374 157.768, 154.413 156.730 C 155.457 155.686, 160.216 155.140, 172.663 154.638 C 181.923 154.264, 194.563 153.674, 200.750 153.327 L 212 152.695 211.986 165.098 C 211.973 176.343, 210.686 197.779, 208.059 230.500 C 207.530 237.100, 206.409 245.074, 205.568 248.221 C 203.806 254.819, 204.246 256.773, 207.684 257.636 C 213.696 259.145, 217.036 253.512, 219.030 238.500 C 219.542 234.650, 220.647 226.396, 221.487 220.157 C 222.689 211.226, 224.893 170.691, 224.984 155.840 C 225 153.209, 225.098 153.173, 233.750 152.581 C 245.604 151.771, 267.699 149.946, 272 149.422 C 275.393 149.008, 278 146.846, 278 144.445 C 278 143.800, 276.762 142.025, 275.250 140.501 L 272.500 137.729 257.500 138.357 C 249.250 138.702, 238.787 139.280, 234.250 139.641 L 226 140.296 225.996 116.898 C 225.992 92.160, 223.662 49.173, 221.989 42.960 C 221.084 39.599, 216.603 33.835, 215.114 34.116 C 214.776 34.180, 213.761 34.428, 212.858 34.668" stroke="none" fill="black" fill-rule="evenodd"/>
</svg>