<svg xmlns="http://www.w3.org/2000/svg" width="300" height="300" viewBox="0 0 300 300" version="1.1">
	<path d="M 240.899 29.914 C 238.935 30.967, 235.341 32.083, 232.914 32.395 C 228.813 32.922, 143.486 34.643, 86.815 35.342 C 68.413 35.569, 61.732 35.978, 60.565 36.946 C 58.795 38.415, 58.490 42.090, 60.012 43.612 C 61.368 44.968, 63.639 57.049, 66.195 76.500 C 68.642 95.124, 69.040 125.749, 67.098 146 C 66.439 152.875, 65.508 164.350, 65.029 171.500 C 63.031 201.348, 58.370 227.741, 47.492 270.816 C 46.694 273.976, 45.106 277.100, 43.575 278.518 C 39.052 282.710, 40.711 287, 46.855 287 C 49.561 287, 51.102 286.167, 53.962 283.160 C 57.111 279.850, 58.243 277.193, 62.164 263.910 C 69.965 237.483, 74.511 214.391, 76.025 193.500 C 76.543 186.350, 77.619 174.200, 78.415 166.500 C 81.669 135.029, 81.300 85.952, 77.678 68.500 C 76.879 64.650, 75.935 58.761, 75.581 55.413 L 74.937 49.325 135.219 48.636 C 203.048 47.861, 231.719 46.767, 240.486 44.619 C 250.451 42.178, 256.389 33.487, 250.777 29.557 C 247.839 27.499, 245.230 27.593, 240.899 29.914 M 224 65.025 C 219.325 67.730, 215.042 69.955, 214.482 69.971 C 211.550 70.054, 192.610 81.059, 186.797 86.057 C 183.110 89.228, 179.244 92.424, 178.205 93.161 C 172.596 97.140, 173.484 103, 179.697 103 C 182.905 103, 191.557 99.058, 193 96.939 C 193.275 96.535, 195.525 95.129, 198 93.814 L 202.500 91.423 202.160 103.962 C 201.973 110.858, 201.523 116.783, 201.160 117.130 C 200.516 117.745, 181.469 126.077, 175.500 128.355 C 165.946 132.001, 161.724 137.827, 165.561 142.067 C 168.466 145.278, 174.537 144.586, 184.650 139.894 C 189.518 137.635, 195.412 134.951, 197.750 133.929 L 202 132.071 202 140.044 C 202 147.664, 201.915 147.964, 200.074 146.814 C 196.613 144.652, 193.473 147.089, 191.456 153.501 C 190.478 156.609, 188.176 161.647, 186.339 164.697 C 184.503 167.747, 183 170.836, 183 171.562 C 183 172.288, 182.610 173.123, 182.134 173.417 C 181.658 173.711, 179.125 177.772, 176.504 182.441 C 170.784 192.633, 171.432 192.733, 159.049 179.753 C 150.511 170.803, 144.389 166, 141.520 166 C 140.217 166, 140 163.450, 140 148.116 L 140 130.232 145.750 128.031 C 158.086 123.309, 161.042 121.681, 161.646 119.276 C 162.354 116.455, 159.637 113, 156.711 113 C 155.623 113, 152.880 113.482, 150.616 114.071 C 148.352 114.661, 145.037 115.519, 143.250 115.978 L 140 116.813 139.989 107.156 C 139.983 101.845, 139.713 95.898, 139.389 93.940 L 138.800 90.381 148.822 85.729 C 154.335 83.170, 160.117 80.774, 161.672 80.404 C 165.727 79.439, 168 77.109, 168 73.916 C 168 67.834, 163.076 66.098, 154 68.980 C 145.368 71.721, 104.553 92.011, 103.084 94.292 C 102.202 95.662, 102.235 96.721, 103.222 98.792 C 105.035 102.594, 108.898 102.693, 118.792 99.191 L 127 96.287 127 108.983 C 127 121.618, 126.988 121.685, 124.453 122.839 C 123.052 123.478, 121.394 124, 120.769 124 C 120.143 124, 117.802 124.854, 115.566 125.898 C 113.330 126.943, 107.450 129.481, 102.500 131.540 C 88.620 137.313, 84.766 142.311, 90.635 146.927 C 93.893 149.490, 95.945 149.525, 101.305 147.109 C 103.612 146.069, 110 143.318, 115.500 140.996 C 121 138.674, 125.744 136.631, 126.043 136.456 C 126.342 136.281, 126.399 139.073, 126.171 142.661 C 125.775 148.872, 125.546 149.377, 121.390 153.208 C 116.257 157.940, 111.866 165.585, 108.300 176 C 106.888 180.125, 104.737 185.750, 103.521 188.500 C 102.306 191.250, 100.455 195.525, 99.409 198 C 95.514 207.218, 86.689 223.467, 81.431 231.101 C 78.444 235.437, 76 239.900, 76 241.017 C 76 243.893, 80.366 245.413, 83.841 243.747 C 92.918 239.397, 112.883 204.602, 121.567 178 C 122.375 175.525, 123.728 172.375, 124.575 171 C 126.001 168.684, 126.073 169.308, 125.557 179.500 C 125.250 185.550, 124.754 207.825, 124.454 229 C 123.802 275.030, 123.776 275.325, 120.333 276.894 C 118.001 277.957, 117.801 278.479, 118.300 282.200 C 119.074 287.973, 121.895 291.430, 126.131 291.797 C 130.723 292.195, 133.676 288.981, 134.966 282.181 C 136.181 275.775, 137.765 243.587, 138.654 207.250 C 139.021 192.262, 139.523 180, 139.769 180 C 140.016 180, 144.196 184.027, 149.058 188.950 C 153.920 193.872, 159.502 198.723, 161.462 199.728 L 165.026 201.557 158.695 211.028 C 155.213 216.238, 151.157 222.250, 149.682 224.390 C 146.257 229.357, 145.884 236.511, 149 237.500 C 152.540 238.624, 154.873 237.019, 160.424 229.645 C 176.695 208.025, 190.582 186.747, 198.696 171 C 200.479 167.541, 200.507 167.887, 201.111 200.500 C 201.447 218.650, 202.079 241.488, 202.516 251.250 C 203.207 266.712, 203.116 269, 201.810 269 C 200.985 269, 199.511 269.883, 198.534 270.962 C 196.829 272.847, 196.846 273.094, 198.959 277.212 C 204.887 288.762, 213.334 287.146, 215.927 273.965 C 216.833 269.358, 216.847 260.731, 215.983 237.222 C 215.363 220.325, 215 201.113, 215.177 194.529 L 215.500 182.558 225.918 194.529 C 231.648 201.113, 241.616 211.759, 248.069 218.186 C 257.600 227.680, 260.507 230.005, 263.564 230.578 C 268.409 231.487, 270.425 230.162, 270.800 225.823 C 271.079 222.591, 270.255 221.483, 258.973 209.924 C 252.303 203.091, 244.743 194.879, 242.173 191.676 C 234.911 182.625, 221.777 169.453, 218.138 167.571 L 214.848 165.870 215.552 146.185 C 215.939 135.358, 216.406 126.232, 216.590 125.906 C 216.775 125.579, 219.775 123.908, 223.258 122.194 C 229.708 119.019, 236.493 113.171, 237.534 109.892 C 238.349 107.325, 236.373 104.132, 233.528 103.418 C 231.822 102.989, 230.128 103.564, 227.753 105.375 C 224.949 107.513, 218.082 111, 216.674 111 C 215.950 111, 214.901 89.241, 215.509 86.822 C 215.971 84.980, 218.449 83.282, 226.184 79.509 C 240.485 72.534, 244 69.808, 244 65.694 C 244 61.251, 242.446 59.990, 237.050 60.054 C 233.477 60.096, 230.674 61.164, 224 65.025" stroke="none" fill="black" fill-rule="evenodd"/>
</svg>