<svg xmlns="http://www.w3.org/2000/svg" width="300" height="300" viewBox="0 0 300 300" version="1.1">
	<path d="M 202.816 27.140 C 201.029 27.794, 199.917 29.102, 199.489 31.050 C 199.135 32.660, 198.431 34.234, 197.923 34.548 C 197.415 34.861, 197 40.045, 197 46.067 C 197 57.596, 193.706 85.256, 191.973 88.272 C 191.414 89.246, 190.677 92.077, 190.336 94.562 C 189.623 99.770, 188.958 100.246, 180 101.951 C 176.425 102.631, 173.045 103.562, 172.489 104.018 C 171.933 104.475, 166.308 105.829, 159.989 107.028 C 153.670 108.227, 147.790 109.836, 146.921 110.604 C 146.053 111.372, 144.912 112, 144.387 112 C 143.179 112, 140.471 116.662, 139.633 120.185 C 138.028 126.934, 153.297 134.832, 156.092 128.698 C 157.006 126.692, 158.540 126.163, 168.003 124.589 C 173.977 123.596, 179.990 122.199, 181.365 121.486 C 183.130 120.570, 183.762 120.528, 183.515 121.344 C 183.322 121.980, 182.384 125.875, 181.430 130 C 180.476 134.125, 179.386 137.725, 179.008 138 C 178.630 138.275, 177.324 142.325, 176.107 147 C 174.890 151.675, 173.467 155.650, 172.947 155.833 C 172.426 156.017, 172 156.885, 172 157.762 C 172 160.374, 167.618 173.393, 166.258 174.821 C 165.566 175.548, 165 176.814, 165 177.634 C 165 179.910, 161.853 189.307, 160.524 191 C 159.876 191.825, 158.505 195.369, 157.477 198.875 C 156.449 202.381, 155.134 205.756, 154.554 206.375 C 153.974 206.994, 152.659 209.975, 151.632 213 C 150.605 216.025, 148.242 221.719, 146.382 225.654 C 144.522 229.589, 143 233.153, 143 233.575 C 143 233.997, 142.383 235.053, 141.629 235.921 C 140.875 236.790, 139.264 240.537, 138.048 244.250 C 136.832 247.963, 135.536 251.002, 135.168 251.004 C 134.801 251.006, 133.622 253.143, 132.549 255.754 C 131.476 258.364, 129.583 261.997, 128.342 263.826 C 127.102 265.655, 125.812 268.017, 125.476 269.076 C 125.140 270.134, 124.272 271, 123.548 271 C 120.429 271, 118.213 277.469, 119.584 282.575 C 120.160 284.719, 124.937 287, 128.853 287 C 132.321 287, 138 284.260, 138 282.586 C 138 281.752, 138.900 280.589, 140 280 C 141.100 279.411, 142 278.448, 142 277.860 C 142 277.271, 143.431 274.700, 145.181 272.145 C 148.846 266.793, 158.266 248.765, 161.098 241.683 C 162.157 239.034, 164.340 234.051, 165.948 230.611 C 167.557 227.171, 169.196 223.038, 169.590 221.428 C 169.985 219.818, 170.622 218.275, 171.006 218 C 171.389 217.725, 172.730 214.350, 173.985 210.500 C 175.240 206.650, 176.613 203.050, 177.036 202.500 C 177.460 201.950, 178.821 198.125, 180.062 194 C 181.303 189.875, 182.871 185.600, 183.547 184.500 C 184.223 183.400, 185.785 179.125, 187.019 175 C 188.252 170.875, 189.611 167.050, 190.038 166.500 C 190.465 165.950, 191.845 161.900, 193.104 157.500 C 194.363 153.100, 195.669 149.275, 196.005 149 C 196.342 148.725, 197.649 144.225, 198.910 139 C 200.170 133.775, 201.556 129.050, 201.990 128.500 C 202.423 127.950, 203.341 124.949, 204.030 121.831 C 204.719 118.713, 205.595 115.655, 205.978 115.036 C 206.757 113.774, 222.233 110.370, 231.666 109.385 C 242.031 108.303, 242.217 108.431, 247.435 120.250 C 249.550 125.042, 250.759 134.998, 252.080 158.500 C 253.707 187.445, 251.920 216.739, 248.255 221.209 C 247.672 221.919, 246.656 224.517, 245.997 226.983 C 245.209 229.928, 243.334 232.929, 240.530 235.733 C 236.643 239.620, 235.817 240, 231.252 240 C 226.771 240, 225.811 239.583, 222.173 236.052 C 219.717 233.669, 217.682 230.531, 217.036 228.135 C 216.449 225.952, 215.303 222.891, 214.490 221.333 C 213.677 219.775, 213.010 217.938, 213.006 217.250 C 212.995 215.027, 209.075 211.999, 206.250 212.032 C 201.628 212.085, 199.654 214.367, 199.585 219.739 C 199.524 224.485, 202.887 238, 204.129 238 C 204.489 238, 205.047 239.050, 205.369 240.334 C 206.620 245.319, 218.368 256.968, 222.167 256.990 C 223.083 256.996, 223.994 257.483, 224.191 258.074 C 224.388 258.665, 227.271 259.396, 230.598 259.697 C 235.877 260.176, 237.462 259.866, 243.073 257.257 C 247.283 255.300, 251.263 252.396, 254.612 248.840 C 259.333 243.827, 264 235.640, 264 232.373 C 264 231.618, 264.385 231, 264.855 231 C 265.890 231, 268.774 217.909, 269.655 209.219 C 270.005 205.764, 270.676 202.700, 271.146 202.410 C 272.261 201.721, 272.263 156, 271.149 156 C 270.680 156, 270.041 150.938, 269.728 144.750 C 269.149 133.304, 266.296 113.908, 265.057 113 C 264.682 112.725, 263.066 109.462, 261.465 105.750 C 259.865 102.037, 258.010 99, 257.345 99 C 256.679 99, 255.879 98.194, 255.566 97.208 C 255.253 96.223, 252.510 94.157, 249.470 92.618 C 244.872 90.289, 242.729 89.830, 236.721 89.886 C 228.587 89.962, 220.995 90.888, 219.500 91.987 C 218.950 92.392, 216.764 92.989, 214.643 93.316 L 210.786 93.909 211.329 90.704 C 211.628 88.942, 212.418 83.450, 213.084 78.500 C 213.751 73.550, 214.770 69.192, 215.350 68.816 C 216.011 68.387, 216.421 62.245, 216.452 52.316 C 216.494 38.508, 216.246 35.965, 214.500 32.287 C 213.168 29.481, 211.532 27.728, 209.601 27.037 C 206.263 25.843, 206.364 25.842, 202.816 27.140 M 16.150 60.340 C 12.823 63.882, 12.002 68.250, 11.984 82.493 C 11.969 95.251, 15.391 132.561, 16.938 136.500 C 17.370 137.600, 18.683 144.526, 19.856 151.890 C 21.028 159.255, 22.379 165.780, 22.856 166.390 C 23.334 167.001, 24.517 170.068, 25.486 173.207 C 27.449 179.571, 32.506 186.007, 35.525 185.986 C 39.903 185.956, 41.935 184.727, 43.014 181.457 C 44.291 177.588, 43.452 171.868, 40.956 167.422 C 39.207 164.308, 35.691 141.530, 34.408 125 C 34.044 120.325, 33.406 116.050, 32.988 115.500 C 32.571 114.950, 32.044 111.463, 31.817 107.750 L 31.405 101 35.953 100.983 C 38.454 100.973, 43.650 100.290, 47.500 99.465 C 51.350 98.640, 57.875 97.687, 62 97.346 C 66.125 97.005, 70.020 96.318, 70.656 95.818 C 71.292 95.319, 77.155 94.642, 83.686 94.314 C 95.364 93.727, 95.608 93.759, 98.518 96.262 C 101.254 98.616, 101.502 99.395, 101.816 106.653 C 102.188 115.239, 99.728 137.745, 98.097 140.668 C 97.535 141.676, 96.129 146.314, 94.972 150.977 C 93.815 155.639, 92.507 159.914, 92.065 160.477 C 91.622 161.039, 90.733 163.139, 90.088 165.143 C 89.205 167.886, 88.247 168.915, 86.208 169.311 C 80.189 170.479, 75.297 172.031, 71.539 173.963 C 69.360 175.083, 67.011 176, 66.318 176 C 65.626 176, 62.600 177.125, 59.594 178.500 C 56.588 179.875, 53.226 181, 52.123 181 C 51.020 181, 49.840 181.450, 49.500 182 C 49.160 182.550, 48.031 183, 46.991 183 C 44.507 183, 36.829 188.227, 33.499 192.183 C 30.339 195.940, 30.726 199.297, 34.733 202.870 C 37.020 204.910, 38.106 205.166, 42.537 204.708 C 47.445 204.202, 63 197.724, 63 196.187 C 63 195.790, 65.813 194.374, 69.250 193.040 C 72.688 191.707, 76.388 190.027, 77.473 189.308 C 80.257 187.462, 81.236 187.682, 80.504 189.989 C 79.718 192.465, 84.255 197, 87.519 197 C 89.916 197, 96.251 190.773, 99.556 185.169 C 101.100 182.552, 102.635 181.557, 107.011 180.339 C 114.459 178.266, 117.400 175.757, 117.400 171.477 C 117.400 167.656, 114.651 164, 111.778 164 C 110.428 164, 110.016 163.485, 110.376 162.250 C 110.657 161.287, 111.642 157.800, 112.564 154.500 C 113.487 151.200, 114.638 148.003, 115.122 147.396 C 116.423 145.765, 119.966 128.169, 119.984 123.250 C 119.993 120.912, 120.450 119, 121 119 C 122.243 119, 122.323 110.598, 121.103 108.236 C 120.609 107.281, 119.730 102.813, 119.148 98.306 C 117.676 86.887, 113.448 81.219, 103.500 77.326 C 97.780 75.088, 64.641 76.365, 58.500 79.060 C 57.400 79.543, 52.225 80.396, 47 80.956 C 41.775 81.516, 35.955 82.422, 34.066 82.970 C 32.178 83.518, 30.378 83.712, 30.066 83.402 C 29.755 83.091, 29.344 78.343, 29.154 72.851 C 28.898 65.441, 28.446 62.725, 27.404 62.325 C 26.632 62.028, 26 61.207, 26 60.500 C 26 57.302, 19.110 57.190, 16.150 60.340" stroke="none" fill="black" fill-rule="evenodd"/>
</svg>