<svg xmlns="http://www.w3.org/2000/svg" width="300" height="300" viewBox="0 0 300 300" version="1.1">
	<path d="M 215 11.396 C 209.009 14.550, 186.802 18.460, 151.500 22.577 C 132.508 24.792, 123.687 25.288, 100.884 25.426 C 76.413 25.575, 72.964 25.794, 70.590 27.349 C 67.199 29.571, 65.536 33.685, 66.856 36.584 C 67.799 38.653, 68.615 38.747, 91.666 39.421 C 118.488 40.207, 130.202 39.510, 184.192 33.917 C 196.206 32.673, 215.674 27.873, 221.117 24.814 C 226.138 21.992, 228.381 18.133, 227.044 14.617 C 225.361 10.189, 220.011 8.759, 215 11.396 M 63.674 40.496 C 61.091 42.386, 60.673 47.027, 62.500 53.547 C 63.725 57.919, 64.313 65.396, 64.712 81.698 C 65.286 105.116, 64.277 124.163, 60.911 153.500 C 59.838 162.850, 58.214 177.025, 57.303 185 C 56.328 193.540, 55.617 207.926, 55.573 220 C 55.501 240.232, 55.535 240.575, 58.188 246.235 C 62.108 254.599, 65.386 258.417, 72.850 263.313 C 85.490 271.604, 94.733 273.500, 122.500 273.500 C 153.201 273.500, 162.306 272.350, 217.500 261.500 C 226.850 259.662, 242.600 256.972, 252.500 255.522 C 279.948 251.501, 284.902 250.310, 286.223 247.410 C 287.675 244.222, 285.611 240.193, 282.067 239.298 C 279.542 238.661, 258.641 240.075, 240 242.145 C 234.775 242.725, 217 245.823, 200.500 249.030 C 154.656 257.939, 150.735 258.429, 125 258.463 C 101.050 258.495, 92.550 257.381, 83.567 253.032 C 78.237 250.452, 73.121 245.473, 71.205 241 C 67.808 233.071, 68.566 203.657, 73.073 168.500 C 76.732 139.961, 78.238 112.421, 77.750 83 C 77.375 60.425, 76.984 54.604, 75.569 50.500 C 72.678 42.113, 67.462 37.727, 63.674 40.496 M 164.065 50.265 C 162.725 50.944, 160.473 53.477, 159.061 55.893 C 157.649 58.309, 155.605 60.784, 154.520 61.393 C 151.829 62.902, 150.256 65.023, 149.621 68 C 149.327 69.375, 147.813 71.850, 146.256 73.500 C 144.698 75.150, 141.718 78.750, 139.634 81.500 C 130.169 93.984, 96.240 129.890, 93.827 129.976 C 93.456 129.989, 91.769 131.165, 90.077 132.589 C 84.305 137.445, 87.055 143, 95.230 143 C 99.109 143, 100.728 142.304, 105.913 138.406 C 116.501 130.447, 146.831 96.975, 156.928 82.105 C 159.209 78.747, 161.494 76, 162.007 76 C 162.520 76, 164.640 76.957, 166.720 78.126 C 176.619 83.692, 184.930 87.321, 201.707 93.401 C 211.720 97.031, 220.726 100, 221.720 100 C 222.713 100, 223.970 101.013, 224.513 102.250 C 225.377 104.220, 226.354 104.537, 232.352 104.798 C 240.950 105.172, 244 103.548, 244 98.596 C 244 93.931, 240.162 91.259, 226 86.062 C 219.675 83.741, 207.750 79.361, 199.500 76.330 C 191.250 73.298, 181.258 69.312, 177.295 67.472 L 170.090 64.126 171.642 61.016 C 173.359 57.574, 172.825 53.588, 170.267 50.750 C 168.408 48.687, 167.341 48.603, 164.065 50.265 M 191.306 109.532 C 178.914 111.799, 159.988 114.114, 147.196 114.929 C 135.036 115.703, 134.851 115.752, 131.446 119.053 C 127.525 122.853, 127.059 126.059, 130 129 C 131.685 130.685, 133.333 131, 140.470 131 C 145.128 131, 153.566 130.360, 159.220 129.577 C 164.874 128.794, 173.550 127.615, 178.500 126.956 C 190.183 125.402, 201.703 121.342, 204.264 117.875 C 205.925 115.627, 206.022 114.908, 204.939 112.875 C 203.519 110.211, 201.008 108.025, 199.500 108.140 C 198.950 108.182, 195.263 108.808, 191.306 109.532 M 186.500 144.978 C 165.876 148.721, 150.146 153.356, 142.239 158.021 C 140.083 159.294, 138.419 159.758, 138.215 159.145 C 137.143 155.930, 133.637 153, 130.862 153 C 123.157 153, 121.502 156.681, 124.638 166.845 C 127.476 176.045, 130.622 191.245, 131.533 200.158 C 132.176 206.447, 132.084 206.885, 129.877 208.066 C 124.443 210.974, 123.188 214.279, 126.327 217.418 C 130.531 221.622, 142.965 223.014, 167.500 222.029 C 188.463 221.186, 196.334 219.947, 203.167 216.414 C 204.853 215.542, 206.443 214.021, 206.702 213.033 C 207.104 211.495, 207.583 211.394, 210.050 212.325 C 215.444 214.361, 218.002 212.457, 223.117 202.597 C 228.508 192.205, 230.356 183.751, 230.123 170.542 C 229.917 158.836, 228.630 154.324, 224.185 149.720 C 217.560 142.857, 206.119 141.418, 186.500 144.978 M 183.500 161.639 C 166.280 164.818, 156.829 167.428, 149.250 171.099 C 142.235 174.496, 142.404 173.985, 144.485 185.500 C 145.280 189.900, 145.946 196.366, 145.965 199.868 L 146 206.236 168.750 205.753 C 182.650 205.458, 193.574 204.755, 196.830 203.945 C 201.227 202.852, 202.528 202.849, 204.257 203.928 C 207.108 205.709, 208.235 204.024, 210.966 193.903 C 213.706 183.747, 214.987 175.895, 214.994 169.205 C 214.999 164.911, 214.536 163.445, 212.545 161.455 C 210.390 159.299, 209.264 159.015, 203.295 159.119 C 199.558 159.185, 190.650 160.319, 183.500 161.639" stroke="none" fill="black" fill-rule="evenodd"/>
</svg>