<svg xmlns="http://www.w3.org/2000/svg" width="300" height="300" viewBox="0 0 300 300" version="1.1">
	<path d="M 218.500 8.937 C 216.594 9.708, 201.706 11.999, 163 17.478 C 140.400 20.676, 111.183 23.757, 93.563 24.800 C 84.339 25.346, 79.491 26.026, 79.229 26.812 C 78.665 28.504, 77 28.285, 77 26.519 C 77 24.092, 72.228 23.484, 69.877 25.611 C 68.155 27.169, 67.943 28.168, 68.524 31.980 C 68.903 34.466, 69.418 61.475, 69.670 92 C 70.249 162.465, 69.205 183.004, 62.756 228 C 61.423 237.304, 60.528 248.497, 60.517 256 C 60.500 268.250, 60.560 268.590, 63.512 273 C 65.169 275.475, 68.094 278.263, 70.012 279.195 C 78.441 283.290, 105.353 283.934, 150 281.110 C 159.075 280.536, 175.500 279.499, 186.500 278.806 C 197.500 278.113, 221.052 277.536, 238.838 277.523 L 271.175 277.500 273.088 275.139 C 274.139 273.841, 275 272.426, 275 271.994 C 275 270.065, 269.865 266.509, 266.816 266.326 C 264.992 266.217, 256.750 265.667, 248.500 265.104 C 229.727 263.822, 205.368 264.493, 170 267.267 C 142.205 269.447, 83.716 270.406, 77.933 268.777 C 76.522 268.379, 74.722 266.847, 73.933 265.372 C 71.386 260.605, 72.512 241.281, 77.627 202 C 79.793 185.369, 81.226 130.296, 80.820 79.250 C 80.627 54.912, 80.559 35, 80.669 35 C 80.780 35, 82.041 35.445, 83.473 35.990 C 86.808 37.258, 109.611 35.719, 136.500 32.412 C 196.764 25.001, 217.468 21.406, 222.650 17.453 C 226.478 14.533, 227.128 10.674, 224.066 9.035 C 221.835 7.841, 221.232 7.830, 218.500 8.937 M 139.555 53.728 C 138.012 55.843, 137.599 58.111, 137.555 64.726 L 137.500 73.059 130.500 72.279 C 126.650 71.851, 119.819 71.500, 115.321 71.500 C 108.576 71.500, 106.647 71.868, 104.321 73.599 C 100.921 76.129, 100.046 80.965, 102.605 83.085 C 104.297 84.487, 105.496 84.574, 127.250 84.868 L 137 85 137 89 C 137 92.698, 136.792 93, 134.247 93 C 132.733 93, 128.570 93.856, 124.997 94.902 C 112.364 98.599, 108.168 102.168, 111.977 105.977 C 113.614 107.614, 115.287 107.995, 120.750 107.976 C 124.463 107.963, 129.287 107.538, 131.472 107.031 C 133.656 106.525, 135.479 106.198, 135.521 106.305 C 135.564 106.412, 135.424 109.064, 135.210 112.198 L 134.821 117.895 129.660 118.875 C 126.822 119.414, 122.060 120.138, 119.077 120.485 C 116.094 120.831, 112.874 121.532, 111.920 122.043 C 110.357 122.879, 110.057 121.911, 108.879 112.235 C 107.819 103.527, 107.149 101.075, 105.331 99.250 C 104.099 98.013, 102.421 97, 101.601 97 C 99.337 97, 94.914 101.241, 94.823 103.500 C 94.779 104.600, 95.247 108.425, 95.864 112 C 96.480 115.575, 96.988 121.488, 96.992 125.139 C 96.997 128.912, 98.049 135.817, 99.429 141.130 C 101.497 149.093, 102.399 150.977, 105.501 153.820 C 108.022 156.130, 109.661 156.935, 110.822 156.433 C 112.926 155.523, 121.994 153.522, 128.250 152.587 L 133 151.877 133 160.420 C 133 168.920, 132.987 168.965, 130.250 169.588 C 128.738 169.932, 124.125 171.022, 120 172.009 C 115.875 172.996, 110.475 174.090, 108 174.439 C 98.095 175.836, 89.487 183.267, 92.946 187.435 C 93.955 188.650, 95.466 188.860, 99.868 188.394 C 106.154 187.730, 122.620 184.582, 127.993 183.017 C 129.915 182.458, 131.827 182, 132.243 182 C 132.660 182, 133 187.680, 133 194.622 C 133 208.813, 135.367 227.319, 137.629 230.810 C 139.761 234.103, 144.032 233.449, 145.895 229.545 C 147.061 227.103, 147.106 225.088, 146.153 217.932 C 145.519 213.170, 145 202.309, 145 193.796 L 145 178.319 150.750 177 C 157.729 175.399, 167.859 171.370, 170.250 169.245 C 172.260 167.459, 172.567 162.967, 170.800 161.200 C 169.180 159.580, 165.986 159.690, 161.613 161.517 C 159.615 162.352, 155.001 163.659, 151.358 164.423 L 144.735 165.811 145.367 159.759 C 145.715 156.430, 146 152.648, 146 151.353 C 146 149.136, 146.357 149, 152.179 149 C 160.096 149, 164.635 147.365, 165.873 144.065 C 166.403 142.654, 167.083 136.550, 167.384 130.500 C 167.685 124.450, 168.596 116.033, 169.409 111.795 C 170.911 103.960, 170.465 99.470, 167.872 96.345 C 165.816 93.869, 160.013 92, 154.378 92 L 149 92 149 88.130 C 149 84.398, 149.160 84.215, 153.492 83.002 C 158.375 81.635, 163 78.009, 163 75.548 C 163 74.696, 162.076 73.076, 160.947 71.947 C 159.237 70.237, 158.149 70.005, 154.447 70.560 L 150 71.227 150 64.581 C 150 55.655, 148.038 50.990, 144.301 51.031 C 142.443 51.052, 140.845 51.960, 139.555 53.728 M 197.927 61.282 C 194.950 63.588, 194.222 66.052, 195.238 70.383 C 196.283 74.835, 195.545 102.207, 194.224 108 C 193.610 110.693, 192.858 111.573, 190.963 111.817 C 182.488 112.906, 178 115.435, 178 119.122 C 178 121.811, 184.192 124.374, 188.662 123.536 C 191.896 122.929, 192 123.012, 192.009 126.205 C 192.027 132.508, 184.423 172.008, 180.899 183.918 C 179.855 187.449, 179 190.798, 179 191.362 C 179 192.411, 175.413 204.711, 171.941 215.570 C 169.732 222.478, 169.443 228.043, 171.200 229.800 C 173.220 231.820, 177.803 231.234, 179.403 228.750 C 180.808 226.568, 187.728 205.725, 191.770 191.500 C 195.854 177.128, 202.054 144.349, 203.489 129.542 C 204.446 119.665, 204.724 119.168, 211.091 115.954 C 214.310 114.329, 217.362 113, 217.874 113 C 218.387 113, 218.007 115.813, 217.032 119.250 C 213.905 130.265, 211.870 143.179, 211.320 155.500 C 210.139 181.952, 217.821 195.145, 236.972 199.554 C 246.990 201.860, 253.744 202.275, 260.506 200.999 C 270.924 199.033, 275.856 193.686, 273.874 186.506 C 272.378 181.088, 269.142 178.179, 265.247 178.750 C 262.771 179.114, 261.980 179.813, 261.482 182.081 C 261.136 183.660, 261.129 185.399, 261.467 185.946 C 262.443 187.526, 257.712 188.236, 248.770 187.851 C 238.963 187.428, 231.748 184.380, 228.327 179.215 C 222.511 170.432, 224.705 135.972, 232.490 113.834 C 234.786 107.306, 234.182 102.205, 230.817 99.704 C 228.265 97.807, 227.963 97.790, 224.665 99.354 C 222.758 100.260, 220.095 101, 218.748 101 C 217.400 101, 214.191 102.120, 211.616 103.489 L 206.934 105.979 207.610 91.680 C 208.157 80.098, 207.966 75.946, 206.607 69.834 C 205.215 63.578, 204.498 62.092, 202.417 61.144 C 199.443 59.789, 199.871 59.776, 197.927 61.282 M 148 110.369 L 148 116 151.439 116 C 154.753 116, 154.902 115.835, 155.559 111.454 C 155.934 108.953, 156.017 106.684, 155.744 106.411 C 155.471 106.138, 153.617 105.650, 151.624 105.326 L 148 104.738 148 110.369 M 149.750 128.716 C 147.226 129.099, 147 129.497, 147 133.566 L 147 138 151 138 L 155 138 155 133 C 155 129.587, 154.603 128.048, 153.750 128.150 C 153.063 128.232, 151.262 128.487, 149.750 128.716 M 121.750 133.353 L 112 135.424 112 139.819 C 112 143.631, 112.232 144.112, 113.750 143.446 C 114.713 143.024, 119.661 141.738, 124.748 140.589 L 133.995 138.500 133.998 134.750 C 133.999 132.340, 133.553 131.050, 132.750 131.141 C 132.063 131.218, 127.112 132.214, 121.750 133.353" stroke="none" fill="black" fill-rule="evenodd"/>
</svg>