<svg xmlns="http://www.w3.org/2000/svg" width="300" height="300" viewBox="0 0 300 300" version="1.1">
	<path d="M 190.500 14.540 C 186.650 15.354, 182.729 16.459, 181.787 16.995 C 180.845 17.532, 176.795 18.470, 172.787 19.081 C 168.779 19.692, 164.150 20.784, 162.500 21.508 C 160.850 22.232, 157.025 23.373, 154 24.043 C 150.975 24.713, 148.050 25.583, 147.500 25.976 C 146.950 26.368, 142.675 27.487, 138 28.462 C 133.325 29.438, 129.050 30.585, 128.500 31.011 C 126.965 32.203, 109.310 35, 103.324 35 C 100.396 35, 98 35.399, 98 35.886 C 98 36.374, 96.027 37.069, 93.616 37.430 C 89.720 38.015, 89.164 38.431, 88.616 41.169 C 87.341 47.543, 87.887 50.766, 90.601 52.901 C 92.032 54.027, 94.644 55.218, 96.405 55.548 C 100.302 56.279, 116.369 54.216, 116.833 52.926 C 117.017 52.417, 118.404 52, 119.917 52 C 123.544 52, 134.363 49.847, 135 48.999 C 135.749 48.001, 153.095 44.761, 153.817 45.484 C 154.161 45.828, 153.986 46.422, 153.429 46.804 C 152.872 47.187, 151.781 49.525, 151.005 52 C 149.695 56.178, 142.130 71.449, 138.031 78.189 C 136.044 81.457, 131.284 84.346, 126 85.492 C 124.075 85.910, 122.275 86.560, 122 86.937 C 121.725 87.314, 118.463 88.433, 114.750 89.423 C 111.037 90.412, 108 91.622, 108 92.111 C 108 92.600, 107.476 93, 106.836 93 C 105.156 93, 98 96.266, 98 97.032 C 98 97.389, 96.200 98.274, 94 99 C 91.800 99.726, 90 100.637, 90 101.024 C 90 101.411, 87.863 102.536, 85.250 103.522 C 82.638 104.509, 80.275 105.624, 80 106 C 79.725 106.376, 77.362 107.491, 74.750 108.478 C 72.138 109.464, 70 110.589, 70 110.976 C 70 111.363, 68.088 112.296, 65.750 113.048 C 63.413 113.800, 61.275 114.662, 61 114.963 C 60.297 115.732, 54.164 117.709, 50 118.507 C 48.075 118.876, 44.813 119.900, 42.750 120.782 C 39.698 122.086, 39 122.903, 39 125.169 C 39 126.959, 39.804 128.475, 41.250 129.411 C 44.704 131.648, 54.753 132.353, 64.607 131.050 C 73.892 129.821, 74.449 129.612, 95.500 119.457 C 115.931 109.601, 119.532 108.813, 114.601 115.279 C 113.170 117.154, 112 119.209, 112 119.844 C 112 120.480, 111.601 121, 111.114 121 C 110.627 121, 109.476 122.463, 108.557 124.250 C 107.104 127.075, 103.697 132.334, 101.267 135.500 C 100.845 136.050, 99.150 138.525, 97.500 141 C 95.850 143.475, 93.784 146.295, 92.910 147.267 C 92.035 148.239, 90.698 150.264, 89.938 151.767 C 89.179 153.270, 87.971 155.175, 87.255 156 C 86.540 156.825, 84.591 159.300, 82.925 161.500 C 77.741 168.347, 75.594 171.003, 72.750 174.087 C 71.237 175.727, 70 177.503, 70 178.034 C 70 178.566, 69.325 179, 68.500 179 C 67.675 179, 67 179.577, 67 180.281 C 67 181.908, 55.855 193, 54.221 193 C 53.549 193, 53 193.663, 53 194.474 C 53 195.285, 51.650 196.647, 50 197.500 C 48.350 198.353, 47 199.437, 47 199.909 C 47 200.381, 46.063 201.012, 44.919 201.311 C 43.242 201.750, 42.497 201.094, 41.082 197.934 C 39.091 193.488, 34.382 189.003, 31.702 189.001 C 28.698 188.999, 25.067 194.041, 25.032 198.264 C 25.014 200.334, 25.428 202.809, 25.952 203.764 C 26.475 204.719, 27.665 207.217, 28.596 209.315 C 29.527 211.413, 32.314 214.675, 34.788 216.565 C 40.911 221.240, 46.802 221.307, 55.984 216.805 C 61.122 214.285, 65.302 210.796, 75.750 200.302 C 83.037 192.983, 89 186.373, 89 185.612 C 89 184.852, 90.125 183.493, 91.500 182.592 C 92.875 181.691, 94 180.449, 94 179.832 C 94 179.215, 94.956 177.763, 96.124 176.605 C 97.293 175.447, 100.675 171.125, 103.641 167 C 106.607 162.875, 109.371 159.050, 109.782 158.500 C 115.038 151.472, 118 147.048, 118 146.223 C 118 145.668, 118.675 144.955, 119.500 144.638 C 120.325 144.322, 121.018 143.486, 121.041 142.781 C 121.063 142.077, 122.413 139.942, 124.041 138.038 C 125.668 136.134, 127 133.996, 127 133.288 C 127 132.579, 127.399 132, 127.886 132 C 128.373 132, 129.490 130.487, 130.368 128.638 C 132.308 124.548, 134.872 122.205, 135.826 123.648 C 136.683 124.943, 146.626 129.625, 150.532 130.572 C 152.165 130.968, 155.075 132.081, 157 133.047 C 158.925 134.012, 165.675 137.378, 172 140.527 C 184.067 146.535, 190.778 150.211, 192.568 151.794 C 193.156 152.314, 195.293 153.338, 197.318 154.070 C 199.343 154.803, 201 155.709, 201 156.084 C 201 156.766, 207.550 160.033, 216 163.564 C 218.475 164.598, 220.725 165.708, 221 166.029 C 221.275 166.351, 223.075 167.222, 225 167.965 C 229.984 169.890, 239.062 173.901, 242 175.476 C 243.375 176.213, 246.210 177.137, 248.299 177.529 C 250.389 177.920, 252.639 178.772, 253.299 179.420 C 253.960 180.069, 256.958 181.252, 259.963 182.050 C 264.742 183.319, 265.539 183.896, 266.333 186.665 C 267.742 191.579, 272.821 192.355, 280.098 188.767 C 285.200 186.251, 287.575 182.425, 286.555 178.364 C 285.580 174.477, 282.025 170.204, 278.844 169.095 C 277.280 168.550, 276 167.631, 276 167.052 C 276 166.473, 275.116 166, 274.035 166 C 271.829 166, 264.126 163.605, 259.349 161.433 C 257.616 160.645, 255.578 160, 254.821 160 C 254.064 160, 252.557 159.389, 251.473 158.642 C 250.388 157.896, 247.700 156.736, 245.500 156.064 C 240.933 154.671, 233.074 151.103, 218 143.578 C 203.853 136.516, 203.917 136.548, 200.500 134.717 C 198.850 133.834, 193.900 131.278, 189.500 129.038 C 185.100 126.798, 180.825 124.556, 180 124.057 C 176.349 121.847, 149.677 109.598, 146.208 108.539 C 143.652 107.758, 143.892 105.159, 146.858 101.500 C 147.749 100.400, 148.542 99.366, 148.620 99.202 C 148.698 99.039, 151.853 98.425, 155.631 97.840 C 159.409 97.254, 162.725 96.466, 163 96.088 C 163.275 95.710, 168 94.578, 173.500 93.573 C 179 92.568, 183.950 91.393, 184.500 90.962 C 185.050 90.531, 188.425 89.423, 192 88.500 C 195.575 87.577, 198.961 86.441, 199.525 85.975 C 200.088 85.510, 202.788 84.372, 205.525 83.447 C 208.261 82.522, 210.725 81.461, 211 81.090 C 211.275 80.720, 213.412 79.800, 215.750 79.048 C 218.088 78.296, 220 77.374, 220 77 C 220 76.626, 221.848 75.710, 224.106 74.965 C 226.365 74.220, 228.438 73.023, 228.713 72.305 C 228.989 71.587, 229.793 71, 230.500 71 C 233.902 71, 233.848 62.939, 230.424 59.514 C 228.238 57.329, 227.290 57.040, 224.174 57.613 C 222.153 57.985, 220.275 58.596, 220 58.971 C 219.725 59.347, 217.025 60.450, 214 61.422 C 210.975 62.395, 208.050 63.546, 207.500 63.980 C 206.950 64.414, 204.925 65.083, 203 65.467 C 199.108 66.242, 193.553 67.851, 190.500 69.087 C 189.400 69.532, 185.800 70.419, 182.500 71.059 C 179.200 71.699, 176.050 72.510, 175.500 72.861 C 174.950 73.212, 170.995 74.203, 166.712 75.062 L 158.924 76.624 159.587 73.562 C 159.953 71.878, 160.600 70.275, 161.026 70 C 161.452 69.725, 162.595 65.450, 163.567 60.500 C 164.538 55.550, 165.653 51.275, 166.045 51 C 166.437 50.725, 167.080 48.138, 167.473 45.250 C 168.110 40.569, 168.449 40, 170.594 40 C 171.917 40, 173 39.622, 173 39.159 C 173 38.697, 175.588 37.747, 178.750 37.048 C 181.912 36.349, 184.950 35.433, 185.500 35.012 C 186.050 34.591, 189.650 33.712, 193.500 33.058 C 210.039 30.252, 218.312 22.400, 211.486 15.987 C 208.293 12.987, 200.412 12.444, 190.500 14.540 M 131.200 183.200 C 130.540 183.860, 130 185.924, 130 187.787 C 130 190.632, 130.480 191.355, 133 192.306 C 134.650 192.929, 136 193.790, 136 194.219 C 136 194.649, 136.489 195, 137.087 195 C 137.684 195, 140.102 196.385, 142.459 198.078 C 144.843 199.790, 148.578 201.402, 150.873 201.710 C 153.143 202.014, 155 202.654, 155 203.132 C 155 204.349, 166.379 204.221, 167.610 202.990 C 168.873 201.727, 194.991 200.472, 201.062 201.382 C 207.024 202.276, 208.363 204.402, 206.957 210.745 C 206.377 213.360, 204.800 217.178, 203.451 219.229 C 202.103 221.279, 201 223.459, 201 224.073 C 201 224.686, 199.066 227.733, 196.701 230.844 C 194.337 233.955, 192.101 237.287, 191.732 238.250 C 191.364 239.213, 190.629 240, 190.099 240 C 189.569 240, 188.849 240.900, 188.500 242 C 188.151 243.100, 187.221 244, 186.433 244 C 185.645 244, 185 244.606, 185 245.346 C 185 246.087, 184.278 248.140, 183.395 249.909 C 182.513 251.678, 182.001 254.222, 182.257 255.563 L 182.723 258 165.111 258.009 C 155.425 258.013, 145.198 258.294, 142.384 258.632 L 137.269 259.247 136.574 255.373 C 135.774 250.911, 133.786 244.732, 132.916 244 C 132.590 243.725, 131.492 239.450, 130.478 234.500 C 129.463 229.550, 128.345 225.275, 127.992 225 C 127.640 224.725, 126.794 220.450, 126.113 215.500 C 125.432 210.550, 124.500 205.600, 124.043 204.500 C 123.586 203.400, 122.710 199.505, 122.098 195.844 C 120.167 184.300, 114.015 179.976, 107.500 185.586 C 104.565 188.113, 104.502 188.361, 104.613 197.067 C 104.676 201.961, 105.190 206.536, 105.758 207.233 C 106.325 207.930, 107.576 214.125, 108.539 221 C 109.502 227.875, 110.599 233.725, 110.977 234 C 111.354 234.275, 112.250 237.313, 112.968 240.750 C 113.686 244.188, 114.630 247, 115.066 247 C 115.502 247, 116.567 249.438, 117.433 252.418 C 118.299 255.398, 119.569 258.027, 120.254 258.260 C 120.939 258.492, 119.402 259.001, 116.838 259.389 C 111.334 260.224, 105.118 263.059, 101.555 266.361 C 98.275 269.401, 98.060 274.841, 101.110 277.595 C 103.101 279.394, 104.843 279.481, 132.360 279.160 C 148.387 278.973, 161.927 278.410, 162.450 277.910 C 162.972 277.409, 166.572 276.988, 170.450 276.973 C 181.164 276.932, 196.419 275.244, 196.815 274.056 C 197.008 273.475, 197.849 273, 198.682 273 C 201.481 273, 206 267.068, 206 263.394 C 206 261.467, 205.494 260, 204.829 260 C 204.185 260, 202.849 259.268, 201.861 258.374 C 199.555 256.287, 200.487 254.393, 207.457 247 C 210.309 243.975, 213.507 240.150, 214.564 238.500 C 215.620 236.850, 216.845 235.050, 217.285 234.500 C 220.512 230.470, 224.918 222.251, 225.492 219.191 C 225.872 217.163, 226.672 215.203, 227.268 214.834 C 227.894 214.447, 228.381 210.716, 228.421 206.009 C 228.477 199.246, 228.191 197.686, 226.744 196.877 C 225.785 196.340, 225 195.295, 225 194.554 C 225 193.414, 222.429 190.878, 216.276 185.951 C 211.471 182.102, 198.546 181.346, 173.311 183.439 C 154.944 184.962, 152.648 184.973, 147.879 183.557 C 141.646 181.706, 132.882 181.518, 131.200 183.200" stroke="none" fill="black" fill-rule="evenodd"/>
</svg>