<svg xmlns="http://www.w3.org/2000/svg" width="300" height="300" viewBox="0 0 300 300" version="1.1">
	<path d="M 252.250 16.511 C 250.596 17.689, 250.009 19.093, 250.035 21.807 C 250.080 26.437, 251.199 28.414, 257.750 35.434 C 260.637 38.529, 263 41.497, 263 42.030 C 263 42.564, 263.413 43, 263.918 43 C 264.424 43, 265.818 44.587, 267.016 46.527 C 270.277 51.802, 271.819 53, 275.349 53 C 279.131 53, 282.539 50.869, 283.278 48.044 C 283.751 46.236, 278.105 33.459, 276.203 32.032 C 275.813 31.739, 274.165 29.541, 272.540 27.147 C 266.251 17.881, 257.077 13.072, 252.250 16.511 M 199.400 25.765 C 198.732 26.211, 198.032 32.578, 197.617 41.976 C 196.627 64.381, 191.974 93.840, 188.541 99.427 C 187.840 100.567, 186.207 105.268, 184.911 109.873 C 183.203 115.944, 181.999 118.484, 180.528 119.113 C 174.886 121.528, 158.096 124.285, 144.945 124.956 C 133.720 125.529, 129.782 126.097, 127.734 127.439 C 122.052 131.162, 123.714 136.429, 131.778 140.258 C 135.934 142.231, 138.036 142.493, 149.323 142.441 C 156.610 142.408, 162.438 141.954, 162.823 141.390 C 163.692 140.118, 173.873 137.803, 175.145 138.589 C 175.719 138.944, 175.483 140.139, 174.563 141.544 C 173.713 142.842, 170.944 150.225, 168.411 157.952 L 163.805 172 160.152 172.014 C 154.526 172.035, 152.223 172.976, 151.586 175.515 C 150.752 178.835, 151.719 180.641, 155.072 182.030 C 158.364 183.394, 158.647 184.794, 156.548 189.349 C 155.749 191.082, 153.772 195.875, 152.153 200 C 149.652 206.374, 138.572 229.528, 133.252 239.500 C 132.371 241.150, 130.096 244.418, 128.195 246.762 L 124.739 251.024 121.861 248.012 C 118.425 244.416, 117.797 244.351, 113.960 247.188 C 111.826 248.766, 111 250.212, 111 252.372 C 111 256.517, 114.563 263.483, 117.751 265.572 C 121.880 268.278, 128.487 267.740, 133.382 264.299 C 137.692 261.270, 145.677 251.979, 148.011 247.278 C 148.770 245.750, 151.837 240.092, 154.826 234.705 C 157.816 229.318, 162.585 219.588, 165.424 213.084 C 173.339 194.947, 171.874 195.685, 182.500 204.494 C 191.822 212.222, 194.134 214.727, 214.919 239.624 C 228.842 256.300, 248.980 276.841, 256.406 281.941 C 262.193 285.916, 269.852 289, 273.934 289 C 277.994 289, 282.775 284.715, 283.596 280.342 C 284.143 277.425, 283.841 276.387, 281.875 274.421 C 279.713 272.259, 279.149 272.141, 275.823 273.162 C 272.210 274.271, 272.032 274.191, 263.828 267.764 C 256.076 261.692, 243.602 249.036, 235.828 239.355 C 219.863 219.473, 215.372 214.380, 202.460 201.512 C 191.368 190.458, 188.236 187.831, 182.741 184.974 C 179.358 183.216, 178.162 182.066, 178.605 181 C 178.949 180.175, 180.572 175.450, 182.213 170.500 C 183.853 165.550, 185.551 161.050, 185.985 160.500 C 186.419 159.950, 188.375 154.550, 190.332 148.500 C 196.189 130.392, 195.357 131.780, 202.010 129 C 205.300 127.625, 207.993 126.162, 207.996 125.750 C 207.998 125.338, 208.586 125, 209.303 125 C 211.838 125, 226.780 117.155, 235.744 111.118 C 240.741 107.753, 245.233 105, 245.727 105 C 247.323 105, 251.918 99.535, 253.048 96.293 C 254.402 92.408, 253.034 89.343, 249.313 87.929 C 247.171 87.115, 245.923 87.483, 241.756 90.157 C 232.765 95.926, 207.085 109, 204.744 109 C 204.204 109, 204.058 107.992, 204.417 106.750 C 210.340 86.268, 212.283 73.914, 212.243 57 C 212.212 43.935, 210.084 32.830, 206.591 27.498 C 204.988 25.051, 201.667 24.251, 199.400 25.765 M 53.513 76.077 C 48.161 77.406, 43.249 80.910, 42.426 83.986 L 41.753 86.500 40.742 83.500 C 39.301 79.222, 38.094 78, 35.312 78 C 30.029 78, 26.858 81.756, 25.564 89.548 C 24.633 95.161, 32.530 157.143, 35.506 167.574 C 37.628 175.010, 42.588 178.378, 46.935 175.333 C 49.486 173.546, 49.571 169.962, 47.522 150.500 C 43.120 108.688, 42 97.144, 42 93.600 C 42 89.782, 42.046 89.732, 43.957 91.461 C 45.726 93.062, 46.807 93.129, 55.207 92.161 C 67.929 90.695, 87.639 91.719, 88.622 93.896 C 89.923 96.781, 90.226 127.451, 89.077 140.039 C 87.985 152.005, 85.269 165.159, 83.751 165.833 C 83.338 166.017, 83 166.968, 83 167.948 C 83 171.097, 79.131 174.887, 75.207 175.583 C 66.954 177.045, 45.797 185.520, 37.836 190.552 C 30.530 195.170, 27.683 203.683, 32 208 C 35.725 211.725, 40.978 210.351, 52.814 202.553 C 61.588 196.773, 74.377 191.159, 81.360 190.023 C 86.158 189.242, 92.349 186.538, 95.837 183.699 C 96.658 183.030, 97.016 181.266, 96.766 179.120 C 96.502 176.856, 97.353 173.067, 99.186 168.345 C 103.109 158.242, 104.731 149.717, 106.126 131.861 C 107.898 109.180, 105.277 84.938, 100.571 80.487 C 96.496 76.633, 94.466 76.235, 75.964 75.660 C 65.030 75.321, 55.874 75.491, 53.513 76.077" stroke="none" fill="black" fill-rule="evenodd"/>
</svg>