<svg xmlns="http://www.w3.org/2000/svg" width="300" height="300" viewBox="0 0 300 300" version="1.1">
	<path d="M 162 12 C 159.316 14.684, 159.472 16.617, 162.935 23.590 C 164.549 26.841, 166.503 31.358, 167.276 33.628 L 168.682 37.756 159.591 38.946 C 146.042 40.720, 130.373 43.791, 122.658 46.186 C 115.286 48.475, 113.217 50.743, 114.357 55.288 C 114.859 57.285, 115.783 57.835, 119.484 58.343 C 124.721 59.061, 128.713 58.638, 146.500 55.482 C 159.534 53.169, 178.549 50.975, 202.112 49.065 C 209.048 48.503, 215.473 47.756, 216.389 47.404 C 218.636 46.542, 220.241 43.334, 219.536 41.114 C 218.468 37.748, 214.022 36.772, 197.344 36.240 L 181.187 35.726 178.580 26.328 C 177.146 21.160, 174.967 15.377, 173.737 13.478 C 171.845 10.558, 170.921 10.023, 167.750 10.012 C 165.321 10.004, 163.296 10.704, 162 12 M 132.145 71.611 C 130.060 73.072, 129.880 73.843, 130.226 79.861 C 130.435 83.513, 132.092 91.439, 133.909 97.477 C 136.420 105.825, 137.095 109.656, 136.727 113.477 C 136.135 119.614, 137.190 122.674, 140.400 124.136 C 142.412 125.053, 144.825 124.627, 154.170 121.707 C 167.430 117.563, 184.457 115.104, 187.738 116.860 C 191.974 119.127, 194.735 115.737, 193.598 109.663 C 193.055 106.761, 193.376 106.267, 197.480 103.673 C 210.562 95.406, 212.568 81.797, 201.620 75.600 C 194.387 71.506, 189.146 70.684, 173.725 71.226 C 158.043 71.776, 153.723 72.950, 148.395 78.107 L 145.289 81.112 143.983 77.806 C 141.126 70.576, 136.831 68.329, 132.145 71.611 M 164.749 85.746 C 155.665 86.050, 154.888 86.241, 153.384 88.536 C 152.496 89.891, 150.863 91, 149.755 91 C 147.951 91, 147.807 91.444, 148.380 95.250 C 150.241 107.603, 150.107 107.219, 152.370 106.687 C 161.797 104.471, 171.032 103, 175.511 103 C 179.963 103, 181.325 102.545, 183.739 100.250 C 185.331 98.737, 188.312 95.980, 190.365 94.123 C 195.106 89.833, 194.753 87.831, 188.991 86.330 C 184.508 85.163, 183.119 85.130, 164.749 85.746 M 37.058 92.430 C 36.205 93.457, 35.785 103.678, 35.565 128.680 C 35.355 152.631, 34.752 167.870, 33.632 177.500 C 31.433 196.406, 31.481 203.221, 33.829 205.345 C 36.562 207.818, 39.208 207.373, 42.007 203.969 C 44.167 201.342, 45.999 200.577, 55.258 198.442 C 61.167 197.079, 69.158 195.837, 73.015 195.682 C 77.675 195.494, 80.544 194.884, 81.564 193.865 C 84.687 190.742, 86.180 174.213, 86.428 140 C 86.558 122.125, 87.014 104.984, 87.443 101.910 C 88.185 96.582, 88.092 96.218, 85.476 94.160 C 82.287 91.651, 78.343 91.412, 73.506 93.433 C 71.620 94.221, 67.922 95.150, 65.288 95.497 C 56.618 96.640, 54.982 97.144, 52.124 99.549 L 49.295 101.929 48.043 97.748 C 47.354 95.448, 46.050 93.004, 45.145 92.315 C 42.913 90.617, 38.511 90.680, 37.058 92.430 M 49.400 132.449 C 49.343 147.764, 48.725 161.389, 47.699 169.961 C 46.813 177.364, 46.249 183.583, 46.446 183.780 C 46.643 183.977, 50.467 183.602, 54.944 182.948 C 59.421 182.293, 64.904 182.049, 67.129 182.405 L 71.176 183.052 70.838 146.027 C 70.453 103.798, 71.790 108.464, 60.500 109.968 C 56.405 110.513, 53.705 110.390, 51.995 109.582 L 49.490 108.398 49.400 132.449 M 202 134.112 C 191.275 135.719, 176.200 137.970, 168.500 139.114 C 149.356 141.959, 129.233 145.876, 125.280 147.527 C 121.268 149.204, 119.098 153.208, 120.975 155.470 C 121.866 156.544, 124.072 156.993, 128.372 156.978 C 140.446 156.935, 166.800 154.165, 183.500 151.183 C 204.996 147.346, 228.649 144.969, 231.755 146.335 C 234.234 147.424, 235.108 149.964, 238.091 164.737 C 241.062 179.450, 242.275 199.359, 241.520 221 C 240.403 253.044, 239.413 263.865, 237.015 270.251 C 233.960 278.386, 232.857 279.251, 226.538 278.462 C 220.735 277.736, 217.994 279.298, 218.007 283.321 C 218.019 287.195, 223.962 290.250, 231.486 290.250 C 240.261 290.250, 244.001 287.443, 248.659 277.362 C 252.689 268.640, 253.544 262.844, 255.109 233.656 C 256.388 209.777, 255.830 188.172, 253.476 170.500 C 250.238 146.193, 246.449 137.816, 236.518 133.009 C 231.045 130.359, 225.961 130.522, 202 134.112 M 108.472 145.765 C 107.907 146.169, 106.593 148.431, 105.552 150.792 C 103.773 154.824, 103.736 155.945, 104.931 169.292 C 105.631 177.106, 106.437 197.597, 106.724 214.827 L 107.244 246.154 109.548 247.204 C 113.958 249.213, 116.771 247.499, 118.519 241.740 C 121.150 233.069, 121.556 207.155, 119.525 177.411 C 117.575 148.845, 116.696 144.989, 112.136 145.015 C 110.686 145.024, 109.038 145.361, 108.472 145.765 M 172 178.010 C 154.864 181.464, 146.982 184.516, 142.827 189.305 C 141.305 191.059, 141.010 192.605, 141.359 197 C 141.799 202.538, 144.151 213.986, 146.417 221.620 C 147.139 224.050, 147.307 226.641, 146.828 227.935 C 145.891 230.468, 148.040 235.418, 150.483 236.355 C 152.470 237.118, 179.817 235.382, 186.771 234.052 C 195.962 232.294, 204.424 229.901, 206.750 228.403 C 209.579 226.581, 209.741 221.981, 207.062 219.557 C 205.543 218.181, 204.223 217.956, 200.943 218.510 C 198.643 218.898, 196.928 218.830, 197.131 218.358 C 197.334 217.886, 199.269 214.385, 201.432 210.579 C 206.716 201.276, 207.295 195.167, 203.606 187.627 C 201.315 182.945, 200.274 181.932, 195.733 179.964 C 189.855 177.416, 179.268 176.545, 172 178.010 M 173.500 192.628 C 171.300 192.844, 166.463 193.778, 162.750 194.703 C 155.061 196.619, 154.751 197.312, 157.511 206.409 C 158.330 209.109, 159 213.271, 159 215.659 L 159 220 170.250 219.978 L 181.500 219.956 185.628 211.228 C 190.080 201.813, 191.496 196.337, 190.063 194.070 C 189.119 192.576, 181.114 191.880, 173.500 192.628" stroke="none" fill="black" fill-rule="evenodd"/>
</svg>