<svg xmlns="http://www.w3.org/2000/svg" width="300" height="300" viewBox="0 0 300 300" version="1.1">
	<path d="M 180.806 9.940 C 178.160 10.782, 168.026 18.125, 163.677 22.352 C 162.461 23.533, 160.186 25.400, 158.622 26.500 C 157.058 27.600, 155.250 28.998, 154.603 29.607 C 152.914 31.199, 143.166 39.001, 138.644 42.382 C 136.523 43.967, 134.134 46.667, 133.334 48.382 C 132.534 50.097, 131.229 52.625, 130.432 54 C 128.868 56.701, 129.050 60.238, 131.588 76.500 C 132.360 81.450, 133.007 90.225, 133.025 96 C 133.076 112.225, 134.722 131.095, 136.444 135.214 C 138.881 141.043, 143.593 142.671, 147.475 139.024 C 149.516 137.106, 149.852 137.094, 158.783 138.623 C 167.184 140.060, 168.807 140.058, 177.368 138.599 C 182.527 137.719, 189.707 137, 193.325 137 C 202.628 137, 209.393 135.334, 212.432 132.295 C 213.844 130.883, 215 129.118, 215 128.372 C 215 127.627, 216.475 125.085, 218.278 122.724 C 221.847 118.047, 226.561 108.949, 228.099 103.768 C 230.366 96.136, 232.215 82.812, 232.301 73.500 C 232.380 64.859, 232.094 63.013, 230.198 59.920 C 226.618 54.081, 224.567 53.499, 207.602 53.509 C 191.541 53.518, 145.598 56.308, 142.879 57.440 C 141.833 57.876, 141.027 57.512, 140.606 56.414 C 140.247 55.479, 140.076 54.619, 140.226 54.503 C 140.377 54.387, 142.750 53.013, 145.500 51.450 C 152.916 47.234, 171.414 34.553, 179.132 28.394 C 182.996 25.312, 186.902 23, 188.247 23 C 189.541 23, 191.140 22.460, 191.800 21.800 C 193.374 20.226, 193.340 13.848, 191.747 11.668 C 190.258 9.633, 184.585 8.737, 180.806 9.940 M 198 65.685 C 196.075 65.886, 188.857 66.714, 181.960 67.525 C 175.062 68.336, 163.867 69, 157.082 69 L 144.744 69 145.326 72.750 C 145.646 74.813, 146.215 79.987, 146.592 84.250 C 147.343 92.759, 147.416 92.823, 153.839 90.557 C 163.826 87.033, 180.515 85, 199.453 85 L 218 85 218 75.636 L 218 66.272 213.360 65.636 C 208.694 64.996, 204.475 65.010, 198 65.685 M 65.542 76.041 C 59.515 77.088, 53.985 78.176, 53.252 78.457 C 52.520 78.738, 51.107 78.459, 50.111 77.837 C 49.103 77.208, 47.114 77.006, 45.617 77.381 C 40.705 78.614, 40.467 80.816, 42.379 107.302 C 43.412 121.611, 44.216 145.394, 44.346 165.500 C 44.551 197.027, 44.710 199.791, 46.533 203.500 L 48.500 207.500 55.149 207.793 C 63.862 208.178, 78.312 205.804, 84.251 203.012 C 86.850 201.790, 90.375 199.198, 92.084 197.251 C 94.613 194.371, 95.078 193.142, 94.581 190.655 C 94.021 187.854, 92.972 186.550, 90.612 185.720 C 90.110 185.544, 90.219 182.566, 90.862 178.872 C 92.293 170.656, 92.313 138.585, 90.895 126 C 90.307 120.775, 89.707 108.384, 89.562 98.463 C 89.399 87.302, 88.861 79.609, 88.150 78.281 C 86.005 74.272, 79.454 73.622, 65.542 76.041 M 67.500 89.589 C 64.750 90.388, 60.752 91.325, 58.616 91.671 L 54.732 92.299 55.387 99.900 C 55.747 104.080, 56.515 113.125, 57.095 120 C 57.674 126.875, 58.002 146, 57.824 162.500 L 57.500 192.500 66 191.837 C 70.675 191.472, 75.111 191.135, 75.859 191.087 C 76.987 191.015, 77.116 185.371, 76.619 157.750 C 75.673 105.208, 74.937 87.991, 73.638 88.067 C 73.012 88.105, 70.250 88.789, 67.500 89.589 M 196.500 98.535 C 178.515 100.176, 156.620 103.471, 151.500 105.306 L 147.500 106.740 147.683 114.375 C 147.813 119.780, 148.324 122.467, 149.433 123.576 C 150.295 124.438, 151 125.620, 151 126.203 C 151 126.862, 152.419 127.049, 154.750 126.698 C 178.836 123.068, 187.872 122.028, 195.500 122.009 L 204.500 121.987 206.478 118.744 C 210.582 112.013, 211.189 110.694, 212.506 105.664 C 213.249 102.824, 214.162 99.713, 214.536 98.750 C 215.327 96.710, 216.372 96.722, 196.500 98.535 M 182.500 151.110 C 178.650 151.580, 170.100 152.635, 163.500 153.455 C 156.900 154.275, 148.672 155.142, 145.214 155.381 C 140.393 155.715, 138.122 156.432, 135.464 158.459 C 130.903 161.939, 131.045 164.340, 136.006 167.623 C 139.911 170.207, 140.309 170.261, 151.756 169.749 C 158.215 169.460, 164.287 168.900, 165.250 168.505 C 166.862 167.843, 167 168.779, 167 180.393 C 167 187.327, 166.887 193.022, 166.750 193.048 C 166.613 193.074, 159.075 193.494, 150 193.981 C 130.341 195.035, 127 196.014, 127 200.719 C 127 202.667, 127.813 204.813, 129 206 C 130.857 207.857, 132.333 208, 149.657 208 L 168.315 208 167.708 228.354 C 167.347 240.455, 166.577 250.388, 165.807 252.854 L 164.513 257 135.322 257 C 118.994 257, 105.012 257.425, 103.593 257.965 C 100.740 259.049, 99.148 263.409, 100.693 265.905 C 101.236 266.782, 103.440 268.344, 105.590 269.376 C 109.290 271.150, 111.946 271.223, 155 270.722 C 197.895 270.222, 229.344 269.149, 263.236 267.029 C 279.827 265.991, 283.767 264.731, 287.056 259.410 C 289.676 255.170, 289.274 252.324, 285.754 250.199 C 283.191 248.652, 282.790 248.655, 279.754 250.246 C 277.151 251.610, 270.694 252.263, 247.500 253.508 C 214.554 255.276, 177.629 256.865, 177.237 256.531 C 177.092 256.408, 177.674 254.631, 178.530 252.583 C 180.058 248.925, 181.453 236.999, 182.602 217.778 L 183.182 208.056 186.841 207.485 C 201.840 205.143, 212.302 201.703, 215.049 198.211 C 217.402 195.219, 217.579 190.722, 215.429 188.571 C 213.521 186.663, 213.563 186.665, 209.651 188.388 C 206.439 189.802, 184.255 192.588, 183.357 191.690 C 183.085 191.418, 182.462 187.214, 181.971 182.348 C 181.481 177.482, 180.783 171.843, 180.420 169.818 C 179.769 166.185, 179.813 166.125, 183.630 165.341 C 188.584 164.323, 206.286 164.361, 211.506 165.400 C 214.890 166.074, 215.800 165.879, 217.374 164.139 C 219.679 161.593, 219.019 158.292, 215.503 154.776 C 211.380 150.653, 198.223 149.191, 182.500 151.110" stroke="none" fill="black" fill-rule="evenodd"/>
</svg>