<svg xmlns="http://www.w3.org/2000/svg" width="300" height="300" viewBox="0 0 300 300" version="1.1">
	<path d="M 201.132 23.594 C 182.687 27.630, 161.288 36.340, 148.693 44.937 C 146.049 46.742, 143.744 48.057, 143.570 47.859 C 143.396 47.662, 142.517 46.051, 141.617 44.280 C 139.476 40.069, 136.901 38.707, 133.517 39.993 C 129.676 41.454, 127.862 46.490, 129.169 52.064 C 130.973 59.755, 130.406 114.445, 128.114 153.857 C 126.951 173.853, 126 194.215, 126 199.107 C 126 206.042, 125.693 208, 124.607 208 C 121.271 208, 121.029 216.082, 124.288 218.677 C 125.547 219.680, 127.185 221.984, 127.929 223.797 C 128.673 225.611, 130.546 227.748, 132.091 228.547 C 136.384 230.767, 145.570 230.335, 152.219 227.600 L 157.939 225.248 155.282 229.874 C 148.462 241.747, 140.992 252.024, 134.785 258.073 C 131.053 261.710, 128 265.222, 128 265.878 C 128 266.534, 128.727 268.180, 129.615 269.535 C 130.908 271.509, 132.069 272, 135.439 272 C 143.925 272, 154.665 261.149, 167.305 239.807 L 173.846 228.762 176.340 233.631 C 179.649 240.088, 185.094 245.203, 206 261.490 C 233.791 283.142, 241.855 287.847, 254.074 289.540 C 259.568 290.302, 265.490 288.183, 266.466 285.107 C 267.551 281.688, 264.939 277.679, 261 276.719 C 259.075 276.250, 255.839 275.436, 253.809 274.911 C 249.970 273.917, 232 262.328, 232 260.846 C 232 260.381, 231.325 260, 230.500 260 C 229.675 260, 229 259.647, 229 259.216 C 229 258.784, 227.762 257.682, 226.250 256.765 C 224.738 255.849, 222.295 254.065, 220.822 252.800 C 219.349 251.535, 216.649 249.299, 214.822 247.831 C 193.359 230.590, 180 218.656, 180 216.724 C 180 215.955, 182.896 214.540, 194.976 209.403 C 197.437 208.356, 201.957 205.656, 205.020 203.403 C 209.109 200.396, 211.871 199.162, 215.409 198.763 C 221.482 198.079, 224.815 195.603, 227.994 189.415 L 230.500 184.537 230.364 139.019 C 230.222 91.370, 228.104 42.427, 225.895 35.727 C 223.981 29.923, 218.215 24.288, 212.950 23.074 C 210.502 22.510, 208.275 22.083, 208 22.125 C 207.725 22.167, 204.634 22.828, 201.132 23.594 M 193 41.372 C 186.125 43.705, 176.225 47.554, 171 49.925 C 157.919 55.861, 149.386 59, 146.330 59 C 143.974 59, 143.804 59.271, 144.375 62.125 C 144.719 63.844, 145 74.844, 145 86.570 L 145 107.890 150.429 105.489 C 153.415 104.168, 161.402 101.207, 168.179 98.908 C 193.027 90.479, 212 92.943, 212 104.600 C 212 109.458, 210.469 110.082, 200.316 109.362 C 187.347 108.441, 176.377 111.133, 158.199 119.696 C 154.405 121.484, 151.655 122.094, 148.525 121.846 L 144.153 121.498 143.811 133.999 C 143.486 145.883, 143.721 149.048, 144.720 146.250 C 145.390 144.374, 147.682 144.742, 149.856 147.075 C 152.005 149.383, 151.852 149.413, 167 143.691 C 170.575 142.341, 178.974 140.286, 185.665 139.126 C 192.356 137.965, 199.023 136.562, 200.480 136.008 C 204.056 134.648, 208.336 134.736, 209.800 136.200 C 210.460 136.860, 211 138.845, 211 140.611 C 211 146.722, 203.796 150.552, 182.171 155.937 C 175.752 157.536, 168.002 159.959, 164.950 161.321 C 156.297 165.183, 149.653 165.261, 145.646 161.548 C 144.191 160.199, 142.998 159.187, 142.995 159.298 C 142.779 168.696, 139.730 207.540, 139.016 209.993 C 137.565 214.981, 137.529 214.947, 142.750 213.531 C 154.579 210.324, 169.658 202.959, 174.397 198.075 C 176.540 195.866, 179.892 193.531, 181.846 192.886 C 185.042 191.831, 185.535 191.921, 186.769 193.778 L 188.140 195.843 192.820 193.626 C 195.394 192.406, 200.089 189.727, 203.254 187.671 C 208.099 184.524, 209.336 184.110, 211.089 185.048 C 212.234 185.661, 213.470 185.864, 213.836 185.500 C 215.832 183.509, 214.678 97.583, 212.059 53.211 C 211.393 41.921, 210.991 39.707, 209.388 38.493 C 206.879 36.594, 207.298 36.520, 193 41.372 M 34.481 83.021 C 30.676 87.226, 29.919 94.999, 31.026 118.500 C 33.048 161.429, 32.648 191.752, 30.026 194.374 C 28.239 196.161, 28.897 200.824, 31.250 203.057 C 33.150 204.859, 34.357 205.117, 39.014 204.712 C 42.084 204.445, 46.960 203.044, 50.014 201.551 C 53.031 200.076, 60 198, 65.500 196.938 C 71.038 195.868, 76.616 194.169, 78 193.129 C 80.378 191.343, 80.699 189.746, 79.936 183.500 C 79.869 182.950, 80.817 178.675, 82.044 174 C 84.095 166.182, 84.218 164.175, 83.573 149 C 81.706 105.053, 81.178 95.349, 80.554 93.500 C 79.717 91.017, 72.827 85.986, 70.340 86.041 C 67.697 86.100, 61.268 89.662, 52.168 96.109 L 44.251 101.717 43.686 96.609 C 42.982 90.240, 40.423 83.745, 38.028 82.250 C 36.565 81.336, 35.869 81.487, 34.481 83.021 M 65.151 104.313 C 62.916 107.014, 51.920 112, 48.199 112 L 44.718 112 45.348 124.750 C 46.767 153.480, 47.107 173.844, 46.263 179.611 L 45.369 185.722 50.435 184.373 C 53.221 183.631, 56.992 183.018, 58.816 183.012 C 64.007 182.993, 65.672 181.537, 67.045 175.814 C 68.426 170.057, 68.445 166.413, 67.291 128.592 C 66.621 106.644, 66.294 102.933, 65.151 104.313" stroke="none" fill="black" fill-rule="evenodd"/>
</svg>