<svg xmlns="http://www.w3.org/2000/svg" width="300" height="300" viewBox="0 0 300 300" version="1.1">
	<path d="M 171.571 26.338 C 169.106 28.803, 167.292 37.193, 168.440 40.812 C 168.934 42.368, 168.445 42.861, 165.901 43.370 C 164.168 43.716, 161.675 44, 160.361 44 C 159.047 44, 153.152 45.161, 147.261 46.581 C 136.913 49.074, 136.496 49.099, 134.987 47.331 C 130.872 42.509, 129.197 41.676, 126.155 42.936 C 124.563 43.595, 122.753 45.248, 122.133 46.607 C 120.899 49.316, 121.693 51.731, 126.464 59.777 C 127.859 62.129, 129 64.480, 129 65.002 C 129 65.523, 130.288 68.774, 131.863 72.225 C 133.438 75.676, 135.022 79.444, 135.382 80.598 C 135.743 81.752, 137.210 83.230, 138.642 83.883 C 140.762 84.849, 141.687 84.780, 143.623 83.511 C 146.507 81.622, 146.708 77.925, 144.413 68.968 C 143.540 65.561, 143.203 62.419, 143.663 61.985 C 144.581 61.121, 156.746 58.466, 164.230 57.496 L 168.960 56.883 168.341 68.192 C 168 74.411, 167.659 79.587, 167.583 79.694 C 167.507 79.801, 163.954 80.322, 159.688 80.852 C 149.977 82.057, 146.765 83.949, 147.191 88.213 C 147.689 93.196, 151.792 95.534, 159.699 95.339 L 166.234 95.179 165.560 100.339 C 165.190 103.178, 164.349 106, 163.693 106.611 C 163.037 107.223, 154.850 108.732, 145.500 109.965 C 117.868 113.609, 103.644 117.087, 101.216 120.794 C 99.684 123.131, 99.720 123.355, 101.911 125.129 C 103.339 126.285, 105.803 126.999, 108.361 126.997 C 115.029 126.992, 141.348 124.255, 156.500 121.990 C 171.241 119.787, 188.489 118.386, 216.255 117.136 C 230.841 116.480, 233.366 116.118, 235.755 114.342 C 239.761 111.365, 239.975 106.830, 236.236 104.168 C 233.096 101.932, 233.574 101.921, 192.247 105.197 C 184.407 105.818, 177.751 106.084, 177.454 105.788 C 177.158 105.491, 177.649 102.327, 178.546 98.756 C 180.096 92.587, 180.365 92.207, 183.954 91.132 C 186.032 90.509, 188.179 90, 188.725 90 C 189.271 90, 193.269 88.343, 197.609 86.317 C 202.099 84.222, 206.698 82.747, 208.278 82.896 C 214.034 83.436, 226.804 73.204, 232.485 63.500 C 234.790 59.563, 235.422 57.260, 235.456 52.665 C 235.495 47.466, 235.190 46.564, 232.654 44.381 L 229.808 41.930 206.456 42.215 L 183.104 42.500 182.444 36.329 C 182.081 32.935, 182.073 29.691, 182.426 29.120 C 182.779 28.549, 182.494 27.163, 181.793 26.041 C 179.990 23.153, 174.599 23.310, 171.571 26.338 M 183.689 56.750 C 183.453 57.163, 182.950 61.888, 182.570 67.250 L 181.879 77 184.380 77 C 185.755 77, 190.121 75.831, 194.080 74.403 C 198.656 72.752, 202.322 72.014, 204.140 72.378 C 205.722 72.694, 207 72.514, 207 71.975 C 207 71.439, 207.601 71, 208.335 71 C 210.346 71, 220 59.016, 220 56.520 C 220 55.692, 184.165 55.919, 183.689 56.750 M 45.312 86.333 C 44.108 86.932, 42.877 88.339, 42.575 89.461 C 42.274 90.582, 42.021 100.792, 42.014 112.148 C 42.006 124.413, 41.206 141.667, 40.043 154.648 C 36.209 197.476, 35.782 207.101, 37.626 209.139 C 40.790 212.636, 42.762 212.341, 55.670 206.442 C 64.273 202.510, 69.644 200.649, 72.762 200.520 C 76.580 200.360, 77.836 199.756, 80.591 196.749 C 87.383 189.337, 89.317 173.201, 88.829 128 C 88.508 98.280, 88.443 97.420, 86.261 94.361 C 82.689 89.353, 80.176 89.346, 70.231 94.317 C 65.429 96.717, 60.263 98.986, 58.750 99.359 C 56.071 100.020, 56 99.927, 56 95.742 C 56 91.761, 54.124 87.547, 51.558 85.765 C 50.165 84.798, 48.005 84.995, 45.312 86.333 M 68.122 110.626 C 65.164 111.932, 61.274 113, 59.478 113 L 56.212 113 55.523 122.250 C 55.144 127.338, 53.747 144.535, 52.417 160.467 C 51.088 176.399, 50 190.205, 50 191.147 C 50 193.117, 51.793 192.776, 61 189.054 C 73.593 183.963, 72.781 184.630, 73.470 178.804 C 73.815 175.887, 73.963 158.819, 73.799 140.876 L 73.500 108.252 68.122 110.626 M 190.500 128.977 C 187.750 129.423, 182.350 130.901, 178.500 132.260 C 172.557 134.360, 168.273 135.639, 153.750 139.651 C 152.496 139.998, 152 139.555, 152 138.090 C 152 136.966, 150.855 135.296, 149.455 134.378 C 147.300 132.967, 146.539 132.909, 144.500 134 C 139.006 136.941, 138.675 139.255, 137.863 180.500 C 137.028 222.890, 135.993 237.150, 133.576 239.567 C 130.041 243.102, 133.710 250, 139.126 250 C 141.615 250, 146 246.786, 146 244.961 C 146 244.432, 147.278 244, 148.841 244 C 150.404 244, 153.779 243.369, 156.341 242.598 C 158.903 241.827, 161 241.361, 161 241.563 C 161 241.765, 158.525 246.011, 155.500 251 C 152.475 255.989, 150 260.275, 150 260.525 C 150 261.801, 140.387 274.924, 137.420 277.699 C 133.886 281.005, 133.336 283.123, 134.926 287.304 C 136.045 290.248, 139.749 291.161, 143.666 289.458 C 148.952 287.160, 158.812 275.512, 166.064 263 C 167.817 259.975, 170.761 255.428, 172.604 252.895 C 174.448 250.363, 176.330 247.283, 176.785 246.052 C 177.563 243.948, 177.860 244.134, 181.736 249.157 C 187.340 256.422, 222.403 290.264, 225.566 291.462 C 230.706 293.408, 234.407 287.826, 231.943 281.844 C 231.144 279.902, 221.417 269.337, 208.746 256.647 L 186.927 234.795 193.091 231.879 C 196.481 230.276, 200.210 229.042, 201.378 229.138 C 205.839 229.502, 206.991 228.872, 209.410 224.743 C 214.747 215.638, 216.212 195.300, 213.500 168 C 212.708 160.025, 212.046 150.448, 212.030 146.718 C 212.013 142.988, 211.376 138.442, 210.613 136.617 C 207.859 130.026, 200.729 127.317, 190.500 128.977 M 184.500 144.892 C 180.100 146.424, 170.988 149.182, 164.250 151.022 L 152 154.366 152 160.792 L 152 167.217 154.750 166.512 C 159.448 165.307, 175.314 163.037, 179.169 163.018 C 181.187 163.008, 185.609 162.290, 188.996 161.422 C 192.383 160.555, 195.811 160.097, 196.614 160.405 C 197.842 160.877, 198.029 159.495, 197.787 151.733 C 197.506 142.688, 197.449 142.496, 195 142.303 C 193.625 142.195, 188.900 143.360, 184.500 144.892 M 187 174.438 C 176.078 177.295, 157.297 181.003, 153.750 181.001 L 151 181 151 189 C 151 193.400, 151.231 197, 151.514 197 C 151.796 197, 152.809 196.595, 153.764 196.100 C 157.579 194.122, 196.022 189.622, 197.392 190.992 C 199.464 193.064, 199.833 191.799, 199.361 184.250 C 198.737 174.268, 198.241 171.976, 196.731 172.107 C 196.054 172.166, 191.675 173.214, 187 174.438 M 198.045 199.445 C 196.520 201.283, 189.004 203.786, 179.731 205.545 C 175.754 206.299, 169.491 207.689, 165.813 208.634 C 159.643 210.220, 158.813 210.230, 155.063 208.757 C 152.205 207.634, 151 207.508, 150.999 208.330 C 150.999 208.974, 150.534 214.398, 149.966 220.384 C 149.399 226.370, 149.139 231.472, 149.389 231.722 C 149.639 231.972, 151.791 231.076, 154.171 229.731 C 156.552 228.387, 161.200 226.731, 164.500 226.052 C 178.897 223.089, 189.997 220.101, 194.814 217.891 L 200 215.512 200 206.756 C 200 201.940, 199.830 198, 199.622 198 C 199.415 198, 198.705 198.650, 198.045 199.445" stroke="none" fill="black" fill-rule="evenodd"/>
</svg>