<svg xmlns="http://www.w3.org/2000/svg" width="300" height="300" viewBox="0 0 300 300" version="1.1">
	<path d="M 179 15.227 C 156.846 19.172, 148.019 20.324, 139.355 20.401 C 130.325 20.481, 127.851 20.825, 126.314 22.216 C 124.214 24.117, 91.087 31.045, 75 32.949 C 69.775 33.567, 63.898 34.306, 61.939 34.592 L 58.379 35.112 58.805 26.194 C 59.209 17.742, 59.109 17.190, 56.893 15.638 C 51.981 12.197, 46.829 15.112, 45.646 22 C 44.315 29.757, 41.942 100.928, 40.511 176 C 39.678 219.725, 38.533 261.513, 37.968 268.862 C 36.837 283.562, 37.195 285, 41.988 285 C 45.988 285, 49.554 281.697, 50.855 276.788 C 52.665 269.957, 53.998 239.464, 54.029 204.139 C 54.058 171.520, 55.307 106.093, 56.615 68.659 C 57.069 55.661, 57.686 48.721, 58.404 48.534 C 59.007 48.377, 67.093 47.285, 76.373 46.106 C 85.653 44.927, 100.215 42.595, 108.732 40.923 C 117.249 39.252, 124.345 38.023, 124.502 38.192 C 124.658 38.361, 122.591 45.213, 119.907 53.418 C 114.370 70.346, 105.039 90.098, 99.082 97.500 C 89.704 109.152, 87.121 115.989, 90.829 119.345 C 94.818 122.955, 97.074 121.444, 110.012 106.500 C 113.173 102.849, 117.284 96.193, 120.514 89.500 C 128.439 73.074, 137 46.406, 137 38.144 L 137 35.412 151.250 33.145 C 159.088 31.899, 166.400 30.652, 167.500 30.374 C 168.615 30.093, 169.057 30.230, 168.500 30.684 C 164.160 34.224, 155.973 63.213, 153.378 84.232 C 152.045 95.022, 151.959 98.550, 152.915 103.125 C 154.773 112.017, 158.534 116.985, 166.599 121.201 C 181.663 129.074, 195.117 130.197, 211.498 124.950 C 222.114 121.549, 224.659 119.275, 223.540 114.184 C 222.445 109.197, 219.323 108.359, 209.129 110.313 C 204.288 111.241, 197.441 111.997, 193.914 111.992 C 183.512 111.980, 169.564 106.792, 166.987 101.976 C 164.374 97.093, 167.295 73.654, 172.966 54.012 C 177.015 39.990, 177.673 34.676, 175.730 31.710 L 174.206 29.385 184.353 27.555 C 206.905 23.488, 209.869 23.104, 219 23.065 C 233.267 23.003, 244.090 26.489, 246.118 31.798 C 247.407 35.176, 247.416 94.718, 246.139 181.500 C 245.375 233.472, 244.879 247.466, 243.503 255.963 C 240.881 272.153, 240.350 273.302, 235.073 274.202 C 232.637 274.617, 230.232 275.529, 229.728 276.228 C 229.080 277.128, 228.978 276.984, 229.379 275.738 C 230.840 271.202, 224.678 265.471, 220.886 267.839 C 219.275 268.845, 214.659 268.663, 196.697 266.881 C 175.883 264.817, 173.129 264.757, 152.500 265.925 C 140.400 266.611, 119.700 267.579, 106.500 268.077 C 83.462 268.947, 77.814 269.556, 68.662 272.154 C 60.968 274.338, 56.578 280.745, 60.530 284.025 C 62.173 285.389, 72.138 285.160, 107.500 282.946 C 130.052 281.535, 183.344 281.219, 204.500 282.372 C 217.784 283.096, 221.094 282.994, 224 281.770 C 227.432 280.324, 227.551 280.355, 230.092 283.340 C 232.334 285.973, 233.347 286.382, 237.592 286.368 C 250.328 286.325, 255.622 277.309, 259.534 249 C 263.077 223.358, 263.461 37.647, 259.991 28 C 258.234 23.116, 253.783 18.708, 247.505 15.634 C 232.276 8.177, 219.030 8.098, 179 15.227 M 163.500 152.094 C 131.348 158.345, 122.467 160.303, 120.536 161.568 C 118.426 162.951, 118.150 162.877, 116.610 160.528 C 115.699 159.137, 114.222 158, 113.328 158 C 110.656 158, 105.229 164.441, 103.951 169.127 C 102.447 174.647, 102.163 219.250, 103.606 223.454 C 104.551 226.210, 104.346 226.616, 100.560 229.497 C 95.755 233.152, 94.832 236.832, 97.939 239.939 C 100.722 242.722, 106.372 242.622, 118.141 239.583 C 123.288 238.253, 133.575 236.208, 141 235.037 C 164.922 231.266, 168.455 230.289, 173.981 225.921 C 182.154 219.460, 183.680 215.225, 185.112 195.020 C 187.353 163.407, 187.351 163.540, 185.623 159.920 C 182.251 152.854, 174.215 150.011, 163.500 152.094 M 149.500 170.578 C 140.700 172.474, 130.350 174.196, 126.500 174.404 L 119.500 174.781 119.500 197.809 C 119.500 210.474, 119.799 221.135, 120.165 221.500 C 120.531 221.865, 126.606 221.265, 133.665 220.166 C 140.724 219.067, 149.392 217.874, 152.926 217.514 C 160.521 216.742, 166.463 213.994, 167.454 210.795 C 167.845 209.533, 168.552 202.425, 169.025 195 C 169.497 187.575, 170.201 178.238, 170.587 174.250 L 171.290 167 168.395 167.065 C 166.803 167.100, 158.300 168.681, 149.500 170.578" stroke="none" fill="black" fill-rule="evenodd"/>
</svg>