<svg xmlns="http://www.w3.org/2000/svg" width="300" height="300" viewBox="0 0 300 300" version="1.1">
	<path d="M 215.651 35.272 C 212.084 38.578, 211.089 43.703, 210.778 60.371 L 210.500 75.234 201.500 74.594 C 190.768 73.832, 187.026 74.754, 183.010 79.150 C 179.672 82.805, 179.225 85.487, 181.531 88.034 C 182.872 89.516, 184.771 89.664, 196.879 89.228 L 210.696 88.731 211.335 91.116 C 212.883 96.902, 212.181 98.323, 205.017 103.892 C 195.749 111.098, 194.518 112.521, 190.175 121.044 C 188.127 125.062, 185.866 128.545, 185.149 128.784 C 184.090 129.137, 184.083 128.840, 185.113 127.191 C 186.893 124.341, 185.752 122.399, 177.043 113.449 C 167.883 104.036, 164.508 101.427, 160 100.275 C 156.532 99.389, 156.497 99.325, 156.206 93.340 L 155.912 87.300 161.959 85.095 C 169.134 82.479, 172.130 78.479, 169.956 74.417 C 168.293 71.311, 166.276 70.693, 163.696 72.500 C 162.519 73.325, 160.026 74, 158.157 74 L 154.759 74 155.169 54.966 L 155.578 35.932 153.202 35.336 C 150.026 34.539, 145.839 37.719, 144.306 42.094 C 143.602 44.105, 143.090 51.543, 143.056 60.250 L 143 75 129.223 75 C 117.820 75, 115.019 75.296, 112.973 76.719 C 106.843 80.981, 105.446 85.446, 109.099 89.099 C 110.758 90.758, 111.858 91.046, 114.349 90.473 C 116.082 90.075, 123.237 89.555, 130.250 89.319 L 143 88.889 143 93.461 C 143 97.658, 142.727 98.163, 139.664 99.623 C 135.946 101.396, 131.886 107.097, 125.601 119.370 C 118.270 133.684, 115.914 136.785, 109.718 140.274 C 100.622 145.397, 105.816 154.169, 116.118 151.083 C 118.946 150.236, 122.195 147.946, 125.944 144.158 C 131.556 138.489, 134.065 134.551, 140.376 121.500 L 143.761 114.500 144.368 119 C 144.701 121.475, 145.408 130.351, 145.939 138.725 C 146.911 154.069, 147.848 158, 150.535 158 C 152.299 158, 152.318 158.207, 150.853 161.423 C 149.968 163.366, 149.996 164.290, 150.975 165.470 C 153.084 168.011, 166.431 167.399, 183 164 C 190.975 162.364, 200.425 161.013, 204 160.998 C 212.573 160.960, 213.448 160.323, 213.118 154.359 C 212.978 151.821, 207.752 149.417, 200.349 148.484 C 193.385 147.606, 176.069 150.426, 163.267 154.522 L 156.033 156.837 157.615 153.778 C 158.999 151.101, 159.059 148.942, 158.098 136.463 C 157.494 128.622, 157 120.345, 157 118.068 C 157 114.271, 157.161 114.016, 158.955 114.976 C 160.030 115.551, 163.518 118.428, 166.705 121.369 C 173.406 127.551, 178.391 130.393, 181.231 129.650 C 183.170 129.143, 183.167 129.193, 181.114 131.378 C 176.717 136.059, 179.522 143.003, 185.807 142.996 C 191.679 142.990, 195.392 139.962, 200.603 130.927 C 203.194 126.434, 207.044 120.760, 209.157 118.318 C 211.271 115.876, 213.039 113.343, 213.086 112.689 C 213.133 112.035, 213.581 112.850, 214.080 114.500 C 214.580 116.150, 215.288 124.629, 215.654 133.341 C 216.278 148.187, 216.452 149.232, 218.410 149.956 C 221.791 151.207, 224.884 149.090, 226.255 144.587 C 227.030 142.044, 227.500 134.355, 227.500 124.238 L 227.500 107.975 230.559 111.238 C 233.931 114.834, 236.157 118.527, 238.446 124.319 C 239.700 127.491, 239.750 128.905, 238.743 132.670 C 237.602 136.937, 237.667 137.312, 239.853 139.082 C 241.916 140.752, 242.471 140.808, 244.848 139.579 C 246.318 138.818, 248.581 136.310, 249.877 134.005 C 253.428 127.687, 252.389 120.117, 246.612 110.213 C 243.233 104.418, 233.611 98, 228.304 98 C 226.141 98, 226 97.612, 226 91.658 L 226 85.317 229.750 84.174 C 240.809 80.803, 246.526 72.325, 239.772 69.312 C 238.145 68.586, 235.920 68.922, 231.044 70.630 L 224.500 72.923 223.859 67.211 C 222.817 57.941, 222.906 41.176, 224 40.500 C 225.639 39.487, 225.143 37.212, 222.811 35.039 C 220.009 32.428, 218.673 32.472, 215.651 35.272 M 53.038 92.988 C 48.878 94.062, 43.665 96.261, 41.259 97.957 C 38.884 99.631, 36.133 101, 35.145 101 C 34.157 101, 32.285 102.133, 30.984 103.517 L 28.619 106.034 29.889 129.857 C 30.588 142.960, 31.085 163.540, 30.994 175.590 C 30.793 202.236, 30.583 199.583, 33.086 202.086 C 34.894 203.894, 35.016 204.547, 34.002 206.995 C 32.212 211.318, 34.069 214, 38.854 214 C 43.028 214, 52.374 211.526, 55.500 209.593 C 56.600 208.913, 59.413 207.605, 61.750 206.686 L 66 205.016 66 207.353 C 66 210.379, 69.208 213.252, 72.117 212.830 C 73.460 212.636, 75.242 211.061, 76.449 209 C 78.238 205.948, 78.480 203.964, 78.347 193.500 C 78.264 186.900, 78.149 166.650, 78.093 148.500 C 77.989 114.927, 77.010 101.273, 74.418 97.264 C 70.636 91.415, 64.154 90.118, 53.038 92.988 M 56.356 106.446 C 54.627 107.199, 50.769 108.321, 47.783 108.941 L 42.353 110.068 42.713 121.284 C 42.911 127.453, 43.491 140.844, 44.002 151.043 C 44.843 167.811, 44.741 177.114, 43.546 192.750 C 43.163 197.753, 43.259 198, 45.574 198 C 47.718 198, 64.729 192.604, 65.725 191.609 C 65.936 191.397, 65.390 186.111, 64.511 179.862 C 63.213 170.626, 63.042 163.822, 63.600 143.500 C 63.978 129.750, 63.961 115.463, 63.564 111.750 C 62.768 104.321, 62.200 103.903, 56.356 106.446 M 195.500 177.092 C 177.827 179.205, 171.620 180.216, 159.340 182.981 C 152.103 184.611, 143.609 187.083, 140.466 188.473 C 136.940 190.032, 132.911 191, 129.947 191 C 124.364 191, 121.580 193.021, 122.567 196.355 C 123.863 200.733, 125.690 201.226, 138 200.521 C 145.442 200.095, 152.484 199.005, 157.957 197.431 C 162.608 196.094, 166.995 195, 167.707 195 C 168.697 195, 168.997 197.984, 168.989 207.750 C 168.983 214.762, 169.646 227.925, 170.461 237 C 174.260 279.290, 174.239 278.787, 172.342 281.998 C 168.819 287.962, 173.162 292.431, 180.652 290.551 C 185.493 289.336, 186.992 284.776, 186.996 271.249 C 187 258.084, 183.868 223.616, 181.469 210.422 C 180.661 205.979, 180 200.296, 180 197.794 L 180 193.243 187.435 192.137 C 191.524 191.529, 201.986 190.302, 210.685 189.409 C 219.383 188.517, 227.073 187.620, 227.773 187.416 C 229.559 186.896, 230.325 184.429, 229.598 181.534 C 228.373 176.655, 214.395 174.834, 195.500 177.092 M 197.046 216.445 C 194.876 219.059, 196.355 222.317, 201.500 226.256 C 204.250 228.362, 212.350 234.522, 219.500 239.945 C 231.522 249.065, 234.136 251.294, 239.425 256.944 C 243.818 261.636, 252 257.532, 252 250.636 C 252 247.819, 251.032 246.191, 246.750 241.804 C 239.413 234.289, 235.906 231.661, 224.777 225.341 C 216.045 220.382, 202.903 215, 199.527 215 C 198.822 215, 197.705 215.650, 197.046 216.445 M 144.368 225.088 C 140.638 226.169, 136.966 230.329, 128.822 242.695 C 121.702 253.507, 120.288 259.288, 123.883 262.883 C 125.047 264.047, 127.146 265, 128.548 265 C 131.303 265, 136 260.710, 136 258.193 C 136 257.360, 138.448 253.425, 141.440 249.450 C 144.432 245.475, 147.566 240.581, 148.404 238.575 C 149.462 236.044, 151.005 234.478, 153.446 233.458 C 157.352 231.826, 159.060 227.983, 156.989 225.487 C 155.613 223.829, 149.390 223.632, 144.368 225.088" stroke="none" fill="black" fill-rule="evenodd"/>
</svg>