<svg xmlns="http://www.w3.org/2000/svg" width="300" height="300" viewBox="0 0 300 300" version="1.1">
	<path d="M 184.913 20.282 C 181.545 22.868, 180.612 26.511, 180.186 38.750 L 179.759 51 177.004 51 C 175.489 51, 172.872 51.276, 171.189 51.612 L 168.127 52.225 168.710 41.173 C 169.390 28.296, 168.417 24.690, 163.833 23.092 C 161.246 22.190, 160.537 22.372, 158.428 24.481 C 156.088 26.821, 156 27.419, 156 40.935 L 156 54.962 153.250 55.568 C 151.738 55.902, 148.181 56.810, 145.346 57.587 C 142.511 58.364, 139.344 59, 138.308 59 C 135.767 59, 128.784 55.366, 127.741 53.501 C 126.595 51.455, 123.660 51.613, 121.655 53.829 C 119.434 56.283, 119.523 62.577, 122.043 81.313 C 124.995 103.262, 126.694 111.707, 128.715 114.485 C 130.484 116.915, 130.649 116.937, 147.075 116.969 C 159.834 116.993, 166.280 116.511, 175.075 114.874 C 181.359 113.704, 191.282 112.467, 197.126 112.124 L 207.753 111.500 208.789 114.250 C 209.609 116.424, 210.467 117, 212.882 117 C 220.418 117, 232.342 91.955, 232.403 76 C 232.415 72.975, 231.816 67.684, 231.073 64.241 C 229.982 59.182, 229.017 57.344, 226.037 54.652 C 222.642 51.586, 221.543 51.230, 212.140 50.161 C 206.523 49.523, 200.085 49, 197.831 49 L 193.735 49 194.203 36.020 C 194.648 23.716, 194.560 22.935, 192.522 21.020 C 190.102 18.747, 187.270 18.472, 184.913 20.282 M 193.832 68.875 L 193.500 75.749 198.500 74.269 C 204.784 72.410, 204.930 72.315, 206.047 69.376 C 207.142 66.498, 210.779 64.859, 213.227 66.141 C 218.315 68.807, 217.336 75.926, 211.169 81.104 C 207.172 84.458, 196.981 89, 193.449 89 C 191.667 89, 191.020 89.862, 190.119 93.443 C 188.458 100.039, 188.429 100, 195.032 100 C 202.763 100, 207.714 102.011, 208.591 105.508 C 209.238 108.085, 209.301 108.045, 211.210 103.824 C 217.843 89.165, 220.570 77.373, 219.121 69.619 C 218.637 67.028, 217.997 64.664, 217.700 64.366 C 216.479 63.146, 209.033 62.046, 201.832 62.024 L 194.164 62 193.832 68.875 M 173.500 64.350 L 168.500 65.507 168.204 72.254 L 167.909 79 171.704 78.986 C 179.680 78.958, 180 78.626, 180 70.383 C 180 66.323, 179.662 63.043, 179.250 63.096 C 178.838 63.149, 176.250 63.713, 173.500 64.350 M 142.750 68.743 L 135 69.084 135.011 72.292 C 135.017 74.056, 135.301 77.188, 135.642 79.250 L 136.262 83 144.549 83 C 156.118 83, 156 83.084, 156 74.893 L 156 68 153.250 68.201 C 151.738 68.312, 147.012 68.556, 142.750 68.743 M 38.578 92.750 C 34.768 96.536, 33.543 111.103, 33.517 152.952 L 33.500 179.404 37.758 182.397 L 42.017 185.391 46.758 182.945 C 51.041 180.737, 52.807 180.485, 65 180.349 C 72.425 180.266, 79.053 180.153, 79.730 180.099 C 82.702 179.860, 85.068 172.114, 85.650 160.714 C 86.439 145.255, 84.459 107.858, 82.505 101.305 C 79.845 92.388, 78.804 92, 57.532 92 C 47.523 92, 38.994 92.338, 38.578 92.750 M 171 92.882 C 167.691 93.466, 167.483 93.740, 167.186 97.883 C 166.889 102.035, 166.994 102.234, 169.186 101.647 C 170.459 101.306, 173.188 101.021, 175.250 101.014 L 179 101 179 96.500 C 179 91.558, 178.857 91.493, 171 92.882 M 137.700 99.651 C 138.017 102.868, 138.411 105.659, 138.575 105.854 C 138.740 106.049, 142.728 105.617, 147.437 104.894 L 156 103.581 156 99.914 L 156 96.248 150.750 95.618 C 147.863 95.272, 143.615 94.722, 141.312 94.395 L 137.124 93.802 137.700 99.651 M 48.882 104.664 C 47.751 104.966, 47.070 106.746, 46.620 110.578 C 45.653 118.800, 43.817 167.081, 44.412 168.631 C 44.809 169.666, 45.556 169.739, 47.641 168.946 C 49.279 168.324, 54.544 168.153, 60.927 168.515 C 67.140 168.868, 72.080 168.718, 72.907 168.152 C 74.101 167.334, 74.143 164.046, 73.182 146.344 C 72.560 134.880, 71.532 120.941, 70.897 115.368 L 69.745 105.237 65.233 104.618 C 60.335 103.947, 51.475 103.972, 48.882 104.664 M 188.500 124.686 C 177.635 126.087, 147.347 131.907, 132 135.542 C 126.775 136.779, 119.500 138.333, 115.834 138.993 C 109.704 140.098, 105 142.688, 105 144.957 C 105 146.878, 106.280 149, 107.438 149 C 109.435 149, 112.506 156.560, 113.531 164 C 115.036 174.919, 109.343 209.636, 103.038 227.995 C 101.998 231.023, 98.163 242.950, 94.514 254.500 C 90.866 266.050, 87.570 275.999, 87.190 276.610 C 86.811 277.220, 85.662 278.906, 84.638 280.355 C 83.281 282.276, 82.949 283.912, 83.412 286.384 C 84.545 292.421, 91.675 293.409, 95.700 288.087 C 97.708 285.431, 102.385 272.625, 109.974 249 C 113.950 236.625, 117.812 224.700, 118.556 222.500 C 122.913 209.631, 125.347 195.249, 125.750 180 C 126.176 163.834, 125.940 162.625, 120.256 151.927 C 120.088 151.612, 123 150.817, 126.726 150.160 C 130.452 149.503, 138.675 147.829, 145 146.440 C 177.534 139.294, 173.607 139.973, 197 137.448 C 205.540 136.526, 212.425 135.281, 213.750 134.418 C 216.814 132.424, 216.640 128.648, 213.365 126.073 C 211.077 124.273, 209.465 124.020, 201.115 124.150 C 195.827 124.232, 190.150 124.474, 188.500 124.686 M 190.500 167.685 C 187.162 168.691, 178.628 169.409, 164.829 169.846 C 144.759 170.481, 144.082 170.571, 141.579 172.924 C 138.637 175.690, 138.306 178.564, 140.557 181.777 C 142.049 183.908, 145.898 184.768, 147.367 183.300 C 147.752 182.914, 154.690 182.548, 162.784 182.485 C 179.753 182.354, 193.285 180.228, 204.750 175.894 C 207.748 174.760, 207.594 171.867, 204.364 168.636 C 201.329 165.602, 198.140 165.383, 190.500 167.685 M 190 195.563 C 187.696 196.435, 181.373 196.909, 171.500 196.951 C 148.918 197.047, 140.036 198.963, 136.394 204.521 C 134.894 206.810, 134.895 207.191, 136.408 209.500 C 137.853 211.706, 138.750 212, 144.035 212 L 150.024 212 149.419 216.250 C 149.086 218.588, 148.409 223.200, 147.914 226.500 C 146.456 236.231, 146.796 255.950, 148.523 261.764 C 150.328 267.843, 154.635 272.511, 159.891 274.085 C 163.272 275.099, 164.256 274.934, 169.089 272.547 C 172.065 271.077, 177.832 266.835, 181.904 263.121 C 188.489 257.115, 189.235 256.072, 188.640 253.702 C 188.268 252.220, 186.724 250.392, 185.163 249.584 C 182.475 248.194, 182.133 248.300, 177.155 252.068 C 170.832 256.853, 164.345 261, 163.180 261 C 159.602 261, 158.154 244.411, 160.316 228.185 C 161.321 220.634, 161.520 215.812, 160.911 213.691 C 160.410 211.943, 160 210.398, 160 210.257 C 160 210.115, 160.848 210, 161.885 210 C 162.922 210, 164.485 211.091, 165.358 212.424 C 166.232 213.757, 167.746 215.113, 168.723 215.436 C 169.701 215.760, 171.483 218.156, 172.685 220.762 C 173.887 223.368, 177.375 228.618, 180.435 232.428 C 184.176 237.086, 186 240.263, 186 242.122 C 186 245.177, 189.123 248, 192.504 248 C 193.700 248, 197.062 250.542, 200.531 254.070 C 203.814 257.408, 208.750 261.773, 211.500 263.770 C 214.250 265.768, 219.680 269.764, 223.567 272.652 C 236.412 282.194, 251.639 289, 260.142 289 C 263.105 289, 264.319 288.443, 265.592 286.500 C 267.090 284.213, 267.095 283.794, 265.647 281.584 C 264.727 280.180, 261.641 278.268, 258.282 277.020 C 244.298 271.826, 226.403 259.624, 210.289 244.294 L 206.919 241.088 209.360 237.222 C 211.856 233.268, 217 218.356, 217 215.074 C 217 214.072, 217.669 211.355, 218.487 209.036 C 221.248 201.211, 215.521 197.672, 210.739 204.250 C 208.578 207.224, 201.030 223.805, 200.978 225.694 C 200.966 226.137, 200.159 227.535, 199.186 228.799 L 197.417 231.098 193.337 226.745 C 191.093 224.351, 187.406 219.724, 185.143 216.462 L 181.029 210.532 185.764 209.452 C 194.641 207.427, 199 204.151, 199 199.506 C 199 197.063, 198.406 196.050, 196.453 195.161 C 195.052 194.522, 193.815 194.054, 193.703 194.119 C 193.591 194.185, 191.925 194.835, 190 195.563" stroke="none" fill="black" fill-rule="evenodd"/>
</svg>