<svg xmlns="http://www.w3.org/2000/svg" width="300" height="300" viewBox="0 0 300 300" version="1.1">
	<path d="M 192 11.862 C 192 12.337, 189.412 13.028, 186.250 13.398 C 179.735 14.161, 164.656 17.653, 162.156 18.978 C 160.360 19.930, 153.161 22.156, 146 23.975 C 143.525 24.603, 140.150 25.728, 138.500 26.475 C 135.492 27.836, 123.804 29.156, 99.446 30.887 C 89.261 31.610, 85.573 32.274, 82.665 33.907 C 80.616 35.058, 78.605 36, 78.198 36 C 77.790 36, 76.882 32.976, 76.181 29.280 C 75.480 25.584, 74.556 22.322, 74.128 22.030 C 73.700 21.739, 72.499 20.038, 71.459 18.250 C 70.175 16.041, 68.816 15, 67.219 15 C 62.921 15, 61.195 16.750, 60.073 22.246 C 59.365 25.711, 58.840 65.129, 58.531 138 C 58.273 198.775, 57.782 250.583, 57.440 253.130 C 56.969 256.634, 56.232 258.073, 54.409 259.049 C 51.031 260.856, 50.987 267.689, 54.330 271.114 C 55.611 272.426, 56.947 274.288, 57.298 275.250 C 57.780 276.570, 59.066 277, 62.537 277 C 68.798 277, 89.090 279.858, 91.236 281.042 C 93.375 282.222, 132.679 282.328, 133.404 281.156 C 133.691 280.692, 139.905 280.031, 147.213 279.688 C 164.522 278.876, 201.935 275.192, 204.500 274.048 C 206.968 272.947, 234.445 269.985, 242.115 269.994 C 248.200 270.001, 252.392 267.729, 253.974 263.568 C 254.923 261.071, 254.193 256, 252.883 256 C 252.398 256, 251.100 255.100, 250 254 C 248.485 252.485, 246.667 252, 242.500 252 C 237.611 252, 235.153 250.782, 238.075 249.808 C 240.529 248.990, 243.990 222.399, 243.997 204.309 C 243.998 199.254, 244.450 194.840, 245 194.500 C 245.601 194.129, 246 187.343, 246 177.500 C 246 167.657, 245.601 160.871, 245 160.500 C 244.440 160.154, 243.997 155.400, 243.994 149.691 C 243.991 144.086, 243.304 127.800, 242.468 113.500 C 241.632 99.200, 240.538 77.005, 240.037 64.178 C 239.536 51.351, 238.700 40.326, 238.178 39.678 C 237.657 39.030, 236.754 36.475, 236.170 34 C 234.399 26.483, 232.575 22, 231.290 22 C 230.619 22, 229.533 20.997, 228.877 19.771 C 227.071 16.396, 225.811 15.419, 221.472 14.030 C 219.288 13.331, 217.072 12.363, 216.550 11.879 C 215.321 10.742, 192 10.726, 192 11.862 M 192 31 C 192 31.550, 190.977 32, 189.727 32 C 186.700 32, 167.983 36.775, 166.594 37.901 C 165.992 38.389, 160.550 40.036, 154.500 41.562 C 148.450 43.087, 143.275 44.647, 143 45.028 C 142.436 45.811, 131.794 47.361, 115.500 49.035 C 103.803 50.236, 81.624 50.003, 78.817 48.649 C 77.279 47.908, 77.103 49.339, 76.780 65.169 C 76.585 74.701, 76.826 106.350, 77.314 135.500 C 78.139 184.749, 77.333 233.173, 75.348 253.592 L 74.756 259.685 83.128 260.336 C 87.733 260.695, 93.611 260.991, 96.191 260.994 C 98.771 260.997, 101.160 261.450, 101.500 262 C 102.247 263.209, 116.665 263.351, 117.404 262.156 C 117.690 261.692, 125.930 261.036, 135.713 260.700 C 152.121 260.135, 183.987 257.841, 195.251 256.414 C 197.962 256.070, 199.743 255.393, 199.398 254.835 C 199.066 254.298, 199.087 251.908, 199.444 249.526 C 199.965 246.048, 200.569 245.074, 202.503 244.589 C 205.148 243.925, 214 245.941, 214 247.207 C 214 247.643, 214.890 248, 215.977 248 C 222.037 248, 223.926 235.482, 224.654 190.500 C 225.076 164.497, 224.800 147.894, 223.582 125.912 C 222.681 109.638, 221.509 84.214, 220.978 69.414 C 220.394 53.115, 219.617 42.372, 219.007 42.169 C 218.453 41.984, 218 40.686, 218 39.285 C 218 37.658, 216.709 35.518, 214.429 33.368 C 210.894 30.035, 210.761 30, 201.429 30 C 195.810 30, 192 30.404, 192 31 M 152.400 49.709 C 149.608 51.716, 149.020 55.015, 149.642 65.185 C 150.253 75.159, 148.636 93, 147.122 93 C 146.753 93, 145.612 96.825, 144.587 101.500 C 143.562 106.175, 142.590 110, 142.427 110 C 142.264 110, 140.972 109.560, 139.557 109.022 C 137.384 108.196, 136.498 108.477, 133.867 110.827 L 130.752 113.611 133.894 120.127 L 137.037 126.643 135.268 131.571 C 134.296 134.282, 133.275 136.725, 133 137 C 132.725 137.275, 131.411 140.650, 130.079 144.500 C 128.747 148.350, 126.610 153.480, 125.329 155.899 C 124.048 158.318, 123 160.820, 123 161.458 C 123 162.096, 121.425 165.233, 119.500 168.430 C 117.575 171.627, 116 174.633, 116 175.111 C 116 176.280, 107.942 188.365, 103.292 194.171 L 99.550 198.843 98.525 195.767 C 97.961 194.076, 96.600 192.199, 95.500 191.596 C 94.400 190.993, 93.219 190.115, 92.876 189.645 C 91.921 188.337, 86.939 192.031, 85.872 194.837 C 84.830 197.576, 85.525 203.932, 87.490 209.648 C 88.399 212.293, 89.936 214.002, 92.907 215.671 C 97.306 218.142, 100 218.647, 100 217 C 100 216.450, 100.902 216, 102.004 216 C 103.106 216, 105.468 215.207, 107.254 214.238 C 110.729 212.352, 119.982 203.732, 120.027 202.339 C 120.041 201.878, 122.066 198.834, 124.527 195.576 C 126.987 192.317, 129 189.077, 129 188.375 C 129 187.674, 129.602 186.740, 130.338 186.300 C 131.074 185.860, 132.889 183.025, 134.371 180 C 135.853 176.975, 137.916 172.925, 138.956 171 C 139.996 169.075, 141.656 165.475, 142.646 163 C 143.635 160.525, 144.758 158.271, 145.140 157.992 C 145.522 157.712, 146.833 154.562, 148.053 150.992 C 149.273 147.421, 150.401 144.346, 150.560 144.158 C 150.719 143.971, 154.995 147.475, 160.060 151.946 C 165.126 156.416, 171.347 161.254, 173.885 162.696 C 176.423 164.138, 178.950 165.822, 179.500 166.439 C 180.050 167.056, 183.425 168.852, 187 170.430 C 190.575 172.009, 193.774 173.720, 194.110 174.232 C 194.445 174.745, 197.413 175.408, 200.705 175.707 C 206.051 176.192, 206.920 176.003, 208.845 173.936 C 213.280 169.176, 210.264 162.980, 201.659 159.173 C 197.142 157.175, 189.832 152.246, 189.167 150.750 C 188.983 150.337, 188.308 149.985, 187.667 149.967 C 187.025 149.948, 181.775 146.096, 176 141.406 C 170.225 136.716, 163.588 131.469, 161.250 129.747 C 158.912 128.024, 157 126.094, 157 125.457 C 157 124.173, 158.692 118.601, 160.024 115.500 C 161.324 112.472, 165.073 96.177, 165.713 90.771 C 166.024 88.147, 166.666 86, 167.139 86 C 168.711 86, 168.156 63.527, 166.506 60.364 C 165.685 58.789, 165.010 56.781, 165.006 55.903 C 164.990 51.638, 155.917 47.180, 152.400 49.709 M 150 225.883 C 150 226.369, 149.164 226.985, 148.141 227.253 C 145.455 227.955, 144.545 232.656, 146.513 235.660 C 149.565 240.318, 155.901 240.707, 157.882 236.359 C 159.632 232.519, 159.221 230.286, 156.260 227.540 C 153.589 225.063, 150 224.113, 150 225.883" stroke="none" fill="black" fill-rule="evenodd"/>
</svg>