<svg xmlns="http://www.w3.org/2000/svg" width="300" height="300" viewBox="0 0 300 300" version="1.1">
	<path d="M 219.500 14.117 C 208.865 17.546, 181.199 24.064, 173.235 25.016 C 168.981 25.525, 158.809 26.856, 150.631 27.972 C 131.881 30.533, 103.241 31.892, 87 30.993 C 73.336 30.237, 70.925 30.753, 68.954 34.860 L 67.687 37.500 66.746 33.757 C 65.659 29.435, 60.957 25, 57.462 25 C 55.026 25, 51 28.449, 51 30.535 C 51 31.172, 51.787 33.224, 52.750 35.096 C 54.331 38.170, 54.497 42.277, 54.465 77.500 C 54.445 98.950, 53.867 124.600, 53.179 134.500 C 52.491 144.400, 51.059 164.425, 49.995 179 C 48.082 205.234, 45.661 241.520, 44.444 262.205 C 44.011 269.548, 43.372 273.276, 42.407 274.077 C 38.481 277.336, 42.647 286, 48.140 286 C 54.970 286, 58.563 275.278, 60.036 250.500 C 60.592 241.150, 61.702 223.825, 62.502 212 C 67.373 140.008, 69.487 86.452, 68.582 58 C 68.153 44.507, 68.277 39.015, 68.987 40.172 C 70.106 41.997, 77.077 44.481, 83.696 45.415 C 89.258 46.199, 128 44.330, 145 42.457 C 168.679 39.848, 185.488 36.621, 219.191 28.215 C 225.071 26.748, 230.230 25.897, 230.656 26.323 C 231.083 26.749, 231.447 81.188, 231.466 147.299 C 231.494 248.128, 231.273 268.185, 230.090 271.750 C 229.314 274.087, 228.475 276, 228.224 276 C 227.973 276, 225.476 274.317, 222.674 272.261 C 216.766 267.924, 221.825 268.157, 171.500 269.901 C 144.158 270.848, 107.234 273.182, 76.489 275.906 C 61.120 277.268, 52.741 282.330, 56.641 287.898 C 57.877 289.663, 59.022 289.992, 63.317 289.819 C 66.167 289.704, 72.550 289.966, 77.500 290.401 C 84.126 290.984, 95.468 290.515, 120.500 288.626 C 139.200 287.214, 163.500 285.585, 174.500 285.005 C 185.500 284.425, 198.386 283.250, 203.135 282.393 L 211.770 280.835 217.950 285.384 C 225.551 290.980, 230.027 292.037, 234.953 289.399 C 239.936 286.731, 244.635 277.069, 246.090 266.500 C 247.490 256.325, 247.817 141.226, 246.633 75 C 245.941 36.266, 245.464 25.597, 244.263 22.013 C 241.024 12.344, 232.967 9.775, 219.500 14.117 M 154.637 50.143 C 153.613 50.739, 151.925 52.075, 150.887 53.113 C 149.849 54.151, 148.213 55.014, 147.250 55.032 C 143.890 55.093, 141.759 57.624, 142.443 60.740 C 142.919 62.909, 142.572 64.078, 141.038 65.466 C 139.917 66.480, 139 67.715, 139 68.210 C 139 70.735, 125.179 88.943, 112.973 102.500 C 93.882 123.702, 87.749 129.747, 85.836 129.247 C 82.006 128.245, 76 136.611, 76 142.948 C 76 144.527, 77.023 146.613, 78.461 147.963 C 83.699 152.884, 89.910 149.235, 108.178 130.500 C 117.797 120.636, 117.930 120.544, 117.965 123.727 C 118.011 127.973, 120.313 129.399, 131.341 132.019 C 139.125 133.867, 142.634 134.074, 161.662 133.805 C 182.581 133.508, 183.231 133.437, 184.997 131.254 C 186.969 128.817, 186.690 125.625, 184.260 122.812 C 182.016 120.214, 174.178 118.999, 159.701 119.006 C 152.440 119.009, 141.967 118.487, 136.427 117.846 C 129.087 116.997, 125.504 116.977, 123.224 117.772 C 120.472 118.731, 121.386 117.323, 130.797 106.107 C 136.684 99.091, 143.254 90.460, 145.399 86.926 C 147.543 83.392, 150.366 79.053, 151.673 77.285 L 154.048 74.071 168.274 81.339 C 182.273 88.492, 192.962 94.819, 195.742 97.599 C 196.520 98.377, 198.021 99.476, 199.078 100.042 C 200.135 100.607, 201 101.922, 201 102.964 C 201 107.666, 208.052 109.576, 214.020 106.490 C 220.280 103.252, 220.165 98.495, 213.675 92.255 C 209.207 87.958, 199.598 81, 198.133 81 C 197.644 81, 196.719 80.366, 196.076 79.592 C 195.434 78.818, 193.466 77.451, 191.704 76.555 C 189.942 75.659, 186.250 73.600, 183.500 71.980 C 180.750 70.359, 175.098 67.264, 170.941 65.102 C 163.398 61.178, 163.383 61.162, 163.807 57.523 C 164.135 54.719, 163.704 53.314, 161.942 51.439 C 159.459 48.796, 157.542 48.456, 154.637 50.143 M 167 147.497 C 163.425 148.216, 158.025 149.796, 155 151.006 C 151.975 152.216, 144.325 154.509, 138 156.102 C 124.170 159.584, 121.627 161.847, 125.781 166.977 C 129.632 171.733, 139.137 171.399, 153.695 165.997 C 157.995 164.401, 170.866 161, 172.605 161 C 173.454 161, 158.885 188.266, 154.367 195.132 C 151.967 198.780, 148.202 203.391, 146.001 205.380 C 143.801 207.368, 142 209.393, 142 209.880 C 142 210.368, 140.149 210.128, 137.886 209.349 C 132.678 207.554, 116.554 206.491, 112.176 207.653 C 107.992 208.764, 105.015 213.109, 106.890 215.368 C 108.580 217.404, 119.398 220.924, 127.487 222.069 C 135.305 223.177, 144.044 227, 153.260 233.346 C 158.522 236.969, 160.899 238, 163.991 238 C 167.401 238, 168.051 237.644, 168.594 235.481 C 169.803 230.664, 165.665 225.010, 155.541 217.646 C 153.678 216.291, 154.005 215.794, 162.309 207.378 C 169.856 199.728, 171.764 197.045, 176.434 187.517 C 185.662 168.690, 190 158.885, 190 156.854 C 190 153.400, 187.183 149.315, 183.643 147.635 C 179.621 145.726, 175.944 145.696, 167 147.497" stroke="none" fill="black" fill-rule="evenodd"/>
</svg>