<svg xmlns="http://www.w3.org/2000/svg" width="300" height="300" viewBox="0 0 300 300" version="1.1">
	<path d="M 198.510 54.512 C 194.116 56.430, 190.441 58, 190.344 58 C 190.247 58, 188.721 59.828, 186.951 62.061 C 184.156 65.591, 183.880 66.442, 184.846 68.561 C 186.430 72.037, 189.669 71.706, 200.119 67 C 205.005 64.800, 209.340 63.001, 209.751 63.001 C 210.163 63.002, 210.500 70.202, 210.500 79.002 C 210.500 87.801, 210.275 94.980, 210 94.954 C 209.725 94.928, 208.590 93.054, 207.478 90.790 C 202.623 80.905, 188.817 80.914, 186.335 90.803 C 185.517 94.062, 187.308 95.442, 192.586 95.620 C 195.072 95.703, 197.387 96.053, 197.731 96.397 C 198.075 96.741, 196.926 98.421, 195.178 100.130 C 186.581 108.536, 197.376 116.622, 207.009 108.993 L 210.806 105.985 211.166 115.743 C 211.639 128.584, 211.307 130.539, 208.431 131.849 C 207.124 132.445, 205.750 134.149, 205.376 135.637 C 204.830 137.814, 205.226 138.798, 207.404 140.671 C 210.416 143.262, 212.247 143.507, 216.785 141.925 C 223.973 139.419, 225.560 131.013, 223.473 106.500 C 222.677 97.150, 222.020 82.024, 222.013 72.886 C 222 56.277, 221.999 56.272, 219.364 53.636 C 215.456 49.728, 208.831 50.007, 198.510 54.512 M 158.500 55.489 C 157.950 55.670, 150.857 57.909, 142.738 60.463 C 130.926 64.178, 127.648 65.608, 126.329 67.621 C 124.746 70.036, 124.786 70.240, 127.325 72.780 L 129.969 75.424 144.735 71.179 C 152.856 68.844, 160.579 66.949, 161.898 66.967 C 164.285 67, 164.293 67.038, 163.654 75.250 C 163.301 79.787, 163.001 86.200, 162.988 89.500 C 162.965 95.258, 162.804 95.633, 159.004 98.788 C 155.268 101.890, 154.913 101.989, 152.702 100.540 C 150.073 98.818, 136.632 97.374, 132.614 98.382 C 130.577 98.893, 130 99.654, 130 101.828 C 130 105.902, 132.051 108.068, 137.130 109.358 C 139.604 109.986, 141.824 110.950, 142.064 111.500 C 142.304 112.050, 140.250 113.931, 137.500 115.681 C 129.363 120.857, 125 124.998, 125 127.545 C 125 134.041, 133.676 134.765, 141.193 128.895 C 143.562 127.045, 149.100 122.150, 153.500 118.016 L 161.500 110.500 161.833 115.500 C 162.404 124.087, 160.963 139, 159.562 139 C 156.977 139, 154.781 142.726, 155.483 145.921 C 156.783 151.842, 163.915 154.849, 168.704 151.495 C 173.290 148.283, 174.089 142.143, 175.147 102 C 176.056 67.519, 176 64.243, 174.442 61.308 C 172.072 56.842, 163.675 53.777, 158.500 55.489 M 71.907 99.510 C 69.483 100.890, 66.825 102.264, 66 102.563 C 65.175 102.862, 60.709 104.791, 56.075 106.849 C 44.985 111.773, 44.535 112.681, 43.089 133 C 41.200 159.547, 42.539 186.330, 45.963 190.455 C 47.597 192.425, 50.861 192.436, 53.023 190.479 C 54.510 189.133, 54.647 187.006, 54.214 171.984 C 53.944 162.649, 54.295 146.495, 54.994 136.087 C 56.388 115.321, 56.084 116.083, 63 115.996 C 64.375 115.978, 67.936 114.621, 70.914 112.979 C 73.892 111.338, 76.592 110.258, 76.914 110.580 C 77.786 111.452, 77.624 181.059, 76.742 184.206 C 76.138 186.362, 75.223 187.032, 72.242 187.499 C 57.294 189.844, 48.252 193.293, 45.996 197.508 C 44.845 199.658, 44.910 200.243, 46.491 201.990 C 49.005 204.769, 53.587 204.553, 65 201.119 C 70.502 199.464, 75.807 198.455, 77.605 198.723 C 81.670 199.327, 84.323 196.041, 87.071 186.994 C 91.258 173.207, 91.050 112.544, 86.782 102.830 C 83.983 96.462, 79.154 95.383, 71.907 99.510 M 175.750 147.080 C 173.416 148.440, 173.538 150.563, 176.053 152.325 C 178.037 153.714, 177.945 153.863, 173.301 156.720 C 170.657 158.346, 166.432 161.437, 163.911 163.589 C 151.794 173.929, 127.386 188.653, 120.631 189.695 C 116.320 190.361, 114 192.725, 114 196.455 C 114 200.832, 115.594 202, 121.568 202 C 125.482 202, 128.284 201.191, 133.118 198.666 C 145.508 192.194, 155.680 185.832, 163.656 179.567 C 166.503 177.330, 170.783 174.068, 173.166 172.317 C 178.509 168.392, 181.359 165.753, 183.400 162.839 L 184.970 160.597 187.735 163.196 C 189.256 164.625, 193.333 167.609, 196.797 169.827 C 202.732 173.629, 205.860 174.986, 223.848 181.563 L 231.195 184.249 233.248 182.196 C 235.065 180.380, 235.158 179.796, 234.059 177.144 C 232.275 172.835, 230.695 171.770, 219.200 167.132 C 213.535 164.846, 204.985 160.601, 200.200 157.698 C 190.644 151.902, 179.530 145.983, 178.291 146.030 C 177.856 146.047, 176.713 146.519, 175.750 147.080 M 172.400 185.203 C 164.035 193.886, 159.804 199.885, 156.964 207.092 C 154.684 212.877, 155.199 215.966, 158.764 217.874 C 161.163 219.158, 165.340 217.187, 165.852 214.529 C 166.490 211.215, 170.812 205.204, 177.988 197.649 C 181.797 193.640, 185.381 189.266, 185.954 187.930 C 186.527 186.593, 187.556 184.713, 188.242 183.750 C 190.193 181.013, 188.031 178.556, 183.363 178.203 C 179.648 177.922, 179.038 178.312, 172.400 185.203 M 190.484 204.148 C 188.511 205.880, 186.289 208.468, 185.544 209.898 C 184.800 211.329, 180.531 216.100, 176.059 220.500 C 168.626 227.812, 167.951 228.801, 168.213 232 C 168.468 235.113, 168.845 235.534, 171.617 235.803 C 174.149 236.050, 176.128 235, 182.147 230.216 C 190.625 223.479, 199 214.340, 199 211.826 C 199 210.887, 199.450 209.840, 200 209.500 C 201.651 208.479, 201.195 202.289, 199.418 201.607 C 196.287 200.405, 194.009 201.053, 190.484 204.148 M 204.169 232.993 C 201.897 234.639, 197.217 239.460, 193.769 243.706 C 174.564 267.360, 158.502 279.929, 145.274 281.654 C 138.691 282.513, 137 283.572, 137 286.835 C 137 290.952, 138.726 292, 145.506 292 C 160.476 292, 176.441 282.537, 192.744 264 C 216.533 236.952, 217.846 234.989, 214.429 231.571 C 212.065 229.208, 208.762 229.665, 204.169 232.993" stroke="none" fill="black" fill-rule="evenodd"/>
</svg>