<svg xmlns="http://www.w3.org/2000/svg" width="300" height="300" viewBox="0 0 300 300" version="1.1">
	<path d="M 226.500 36.019 C 204.651 36.715, 188.315 37.791, 152 40.928 C 140.175 41.949, 129.043 42.558, 127.263 42.281 C 122.480 41.536, 119.493 42.622, 118.137 45.599 C 117.144 47.778, 117.212 48.674, 118.518 50.667 C 119.391 51.999, 121.235 53.519, 122.617 54.045 C 126.513 55.526, 140.531 55.169, 163.500 53.003 C 175.050 51.915, 197.325 50.748, 213 50.412 C 242.945 49.769, 247.099 49.283, 251.369 45.924 C 256.055 42.238, 254.207 34.458, 248.816 35.175 C 248.092 35.271, 238.050 35.651, 226.500 36.019 M 98.051 46.439 C 96.536 48.263, 96.347 63.804, 97.451 95.632 C 98.278 119.479, 97.130 147.763, 93.905 183 C 93.326 189.325, 92.469 201.250, 92.001 209.500 C 90.647 233.349, 87.260 254.989, 82.686 269 C 80.740 274.963, 78.748 278.744, 74.399 284.735 C 73.366 286.158, 73.005 287.885, 73.407 289.485 C 73.946 291.634, 74.606 292, 77.941 292 C 81.284 292, 82.376 291.390, 85.554 287.750 C 95.460 276.401, 102.283 251.692, 103.998 220.955 C 104.475 212.405, 105.335 199.805, 105.909 192.955 C 106.482 186.105, 107.750 171.050, 108.726 159.500 C 111.183 130.412, 111.129 75.911, 108.628 61.500 C 106.596 49.788, 104.497 45, 101.395 45 C 100.212 45, 98.707 45.648, 98.051 46.439 M 217.916 67.789 C 209.162 75.173, 203.022 80.210, 199.106 83.216 C 197.123 84.740, 194.033 87.164, 192.241 88.605 C 184.037 95.197, 189.379 102.587, 198.110 96.724 C 203.813 92.895, 209.230 89.897, 209.663 90.330 C 209.890 90.556, 209.639 91.812, 209.107 93.121 C 208.574 94.429, 207.889 96.678, 207.584 98.117 C 206.999 100.872, 203.777 101.964, 196.154 101.989 C 189.441 102.011, 184.263 107.787, 185.178 114.233 C 185.475 116.321, 185.960 116.484, 191.340 116.298 C 197.179 116.096, 197.180 116.096, 195.615 118.298 C 194.755 119.509, 192.603 122.975, 190.834 126 C 189.065 129.025, 187.254 131.650, 186.809 131.833 C 186.364 132.017, 186 132.662, 186 133.268 C 186 134.763, 178.705 145.902, 177.690 145.957 C 176.342 146.029, 168.644 139.758, 164.854 135.500 C 161.558 131.797, 161.248 130.890, 160.680 123.280 L 160.067 115.059 164.247 113.933 C 168.251 112.855, 176 106.456, 176 104.228 C 176 103.675, 175.139 102.159, 174.087 100.861 C 172.296 98.650, 171.962 98.587, 168.837 99.864 C 167.002 100.615, 164.252 101.455, 162.728 101.731 L 159.955 102.234 160.605 96.705 C 161.175 91.852, 161.009 91.023, 159.247 89.922 C 157.278 88.693, 157.290 88.627, 159.870 86.474 C 161.317 85.267, 165.949 81.969, 170.165 79.146 C 174.380 76.322, 178.024 73.447, 178.262 72.756 C 179.012 70.576, 176.915 66.108, 174.829 65.446 C 171.246 64.309, 166.295 65.973, 161.203 70.027 C 158.459 72.212, 155.753 74, 155.190 74 C 154.627 74, 154.017 74.403, 153.833 74.896 C 153.650 75.389, 149 78.572, 143.500 81.970 C 130.730 89.859, 129.059 91.916, 132.571 95.429 C 134.936 97.793, 138.107 97.356, 146.569 93.500 C 155.434 89.460, 155.896 89.352, 153.634 91.852 C 152.712 92.870, 151.180 96.115, 150.229 99.061 C 148.362 104.848, 147.052 105.706, 139.779 105.900 C 131.894 106.112, 121 113.249, 121 118.204 C 121 122.102, 127.956 123.189, 135.500 120.471 C 137.700 119.679, 139.562 119.023, 139.638 119.015 C 139.954 118.981, 135.275 129.764, 133.570 133 C 132.556 134.925, 129.064 140.047, 125.810 144.383 C 121.066 150.703, 119.953 152.883, 120.197 155.383 C 120.464 158.133, 120.905 158.539, 123.942 158.828 C 127.114 159.130, 128.035 158.477, 135.668 150.529 C 140.225 145.784, 144.743 140.237, 145.709 138.201 L 147.466 134.500 148.175 138.500 C 148.565 140.700, 148.911 146.855, 148.942 152.179 C 148.986 159.587, 149.369 162.226, 150.571 163.429 C 154.337 167.194, 159.221 163.069, 160.969 154.647 L 162.142 149.001 166.769 152.185 C 172.433 156.082, 179.974 157.099, 184.780 154.614 C 187.886 153.008, 197.143 141.363, 203.553 131 L 206.955 125.500 206.977 138.816 C 206.990 146.293, 206.537 152.996, 205.945 154.104 C 203.260 159.120, 208.761 162.488, 214.337 159.241 C 220.333 155.750, 221.498 149.055, 219.602 129.005 C 218.547 117.852, 218.739 117.856, 227.109 129.148 C 233.034 137.140, 240.697 143.360, 250.143 147.845 C 257.456 151.318, 262.382 151.821, 265.777 149.443 C 270.527 146.117, 267.533 140.867, 259 137.561 C 253.457 135.413, 244.448 129.031, 236.500 121.622 C 229.943 115.509, 225.606 113, 221.599 113 C 217.435 113, 218.554 111.579, 225.195 108.434 C 235.906 103.362, 240.596 96.739, 236.429 92.571 C 234.469 90.612, 230.630 90.536, 229.060 92.427 C 228.409 93.212, 225.991 94.495, 223.688 95.278 L 219.500 96.702 219.514 89.663 L 219.528 82.625 225.769 77.715 C 232.670 72.288, 234.088 69.309, 231.587 65.493 C 228.931 61.439, 224.577 62.170, 217.916 67.789 M 41.073 104.635 C 39.071 107.180, 39 108.398, 39 140.317 C 39 173.901, 40.080 189.661, 42.663 193.787 C 43.775 195.564, 45.031 196.084, 48.297 196.118 C 50.609 196.142, 54.975 196.185, 58 196.214 C 64.696 196.277, 73.795 192.997, 78.580 188.795 C 86.292 182.024, 89.518 166.665, 89.459 137 C 89.437 125.725, 89.081 114.826, 88.669 112.779 C 88.242 110.657, 86.431 107.479, 84.457 105.385 L 80.993 101.713 68.161 102.233 C 61.103 102.520, 54.461 103.218, 53.400 103.786 C 51.985 104.543, 50.959 104.443, 49.545 103.409 C 46.597 101.254, 43.364 101.722, 41.073 104.635 M 64 115.172 C 60.975 115.687, 56.762 115.955, 54.639 115.768 L 50.777 115.426 51.502 149.963 C 51.901 168.958, 52.306 184.592, 52.402 184.705 C 52.498 184.818, 54.359 184.275, 56.538 183.499 C 58.717 182.723, 61.941 182.068, 63.703 182.044 C 69.417 181.966, 71.759 180.203, 72.900 175.121 C 74.041 170.037, 74.638 149.094, 74.250 127.750 C 73.965 112.083, 74.960 113.303, 64 115.172 M 180.547 162.948 C 178.615 165.082, 178.657 168.797, 180.869 192 C 181.472 198.325, 182.464 212.950, 183.073 224.500 C 183.683 236.050, 184.288 247.182, 184.419 249.237 C 184.693 253.561, 184.451 253.649, 170.424 254.284 L 162.349 254.649 163.752 248.576 C 165.865 239.431, 165.156 208.404, 162.750 204.738 C 159.756 200.174, 157.585 199.637, 154.072 202.592 L 151 205.178 151 228.366 C 151 256.891, 151.350 256, 140.155 256 C 134.126 256, 131.441 256.495, 127.962 258.250 C 119.970 262.280, 122.181 268.897, 131.591 269.111 C 135.933 269.211, 168.800 267.693, 199.500 265.975 C 210.500 265.360, 229.850 264.945, 242.500 265.053 C 269.873 265.288, 267.722 265.451, 268.473 263.085 C 269.754 259.050, 268.011 256.170, 263.153 254.296 C 259.027 252.703, 254.901 252.500, 226.739 252.500 C 200.700 252.500, 195.070 252.260, 195.489 251.168 C 195.770 250.436, 196 241.362, 196 231.004 L 196 212.171 203.750 211.506 C 213.605 210.661, 214.678 210.341, 215.272 208.066 C 217.050 201.271, 211.910 197.518, 201.715 198.167 L 195.061 198.591 194.596 194.545 C 194.340 192.320, 193.626 186, 193.009 180.500 C 191.567 167.632, 190.624 164.800, 187.088 162.711 C 183.411 160.539, 182.704 160.564, 180.547 162.948" stroke="none" fill="black" fill-rule="evenodd"/>
</svg>