<svg xmlns="http://www.w3.org/2000/svg" width="300" height="300" viewBox="0 0 300 300" version="1.1">
	<path d="M 232.500 31.610 C 228.650 32.406, 221.675 33.906, 217 34.944 C 212.325 35.982, 206.560 36.808, 204.189 36.779 C 199.011 36.717, 195.612 38.361, 194.110 41.657 C 191.494 47.399, 194.117 51, 200.914 51 L 205.170 51 201.711 55.750 C 199.808 58.362, 197.230 62.525, 195.981 65 C 194.733 67.475, 192.666 70.874, 191.388 72.553 C 189.918 74.483, 188.819 77.689, 188.397 81.276 C 187.760 86.701, 187.864 87.071, 190.819 89.831 C 194.086 92.883, 201.008 94.538, 205.639 93.376 L 208.082 92.763 205.932 98.131 C 204.750 101.084, 203.194 105.525, 202.474 108 C 201.755 110.475, 200.029 115.875, 198.638 120 C 189.359 147.519, 189.136 151.937, 197.027 151.985 C 200.906 152.008, 203.843 149.378, 204.580 145.221 C 205.175 141.863, 209.746 127.568, 214.884 113 C 215.951 109.975, 218.017 104.059, 219.476 99.853 L 222.128 92.205 226.757 91.040 C 229.303 90.398, 233.212 89.062, 235.443 88.070 C 237.674 87.077, 240.702 85.981, 242.171 85.633 C 246.678 84.567, 253.461 78.753, 253.822 75.647 C 254.556 69.347, 250.341 68.605, 236.836 72.657 C 231.966 74.119, 227.730 75.063, 227.421 74.755 C 227.113 74.447, 227.389 72.434, 228.034 70.282 C 228.710 68.024, 229.057 62.305, 228.853 56.753 C 228.524 47.800, 228.638 47.106, 230.500 46.698 C 238.545 44.936, 249.881 41.566, 251.750 40.381 C 254.534 38.615, 254.827 33.348, 252.250 31.392 C 249.987 29.674, 241.407 29.769, 232.500 31.610 M 145.500 44.044 C 141.100 44.459, 131.926 45.275, 125.114 45.857 C 114.686 46.747, 112.139 47.304, 108.995 49.385 C 104.740 52.200, 103.526 55.879, 105.786 59.105 C 107.140 61.037, 107.965 61.200, 114.179 60.755 C 121.043 60.264, 121.064 60.270, 119.564 62.381 C 118.736 63.546, 115.723 68.325, 112.868 73 C 110.013 77.675, 106.698 82.850, 105.501 84.500 C 102.427 88.738, 98.373 96.959, 97.611 100.500 C 96.566 105.355, 99.787 110.198, 105.113 111.782 C 109.113 112.972, 115.873 112.753, 119.628 111.313 C 122.087 110.369, 121.125 113.296, 114.635 126.500 C 103.578 148.994, 102.478 151.976, 104.137 154.947 C 106.096 158.454, 109.973 158.735, 113.654 155.638 C 116.323 153.392, 119.170 148.549, 123.434 139 C 124.294 137.075, 126.821 132.125, 129.050 128 C 132.127 122.305, 132.978 121.270, 132.586 123.702 C 132.302 125.462, 131.768 131.561, 131.400 137.253 C 130.813 146.341, 130.975 148.155, 132.731 152.124 C 136.015 159.550, 144.676 162.054, 154.230 158.340 C 160.384 155.948, 173.569 147.198, 180.250 141.072 C 185.052 136.669, 186 135.248, 186 132.456 C 186 127.243, 179.365 123.863, 175.821 127.271 C 170.835 132.065, 152.691 142.808, 147.135 144.257 L 144.770 144.873 145.536 134.186 C 147.253 110.222, 146.770 107, 141.460 107 C 137.353 107, 139.619 104.677, 147.073 101.244 C 150.949 99.460, 154.602 98, 155.192 98 C 156.693 98, 163.251 93.898, 164.718 92.042 C 167.671 88.304, 164.804 83, 159.830 83 C 158.448 83, 155.109 83.670, 152.409 84.489 C 149.709 85.308, 147.111 85.983, 146.636 85.989 C 146.162 85.995, 146.078 83.963, 146.452 81.473 C 147.250 76.149, 145.457 66.250, 143.241 63.750 C 141 61.222, 139.222 61.587, 137.144 65.003 C 135.412 67.852, 134.668 70.630, 131.954 84.394 C 130.587 91.327, 127.833 94.399, 121.674 95.861 C 119.378 96.406, 116.436 97.176, 115.136 97.572 C 111.262 98.753, 112.004 97.061, 124.430 76.373 C 127.692 70.943, 131.067 64.800, 131.930 62.723 C 133.772 58.293, 133.296 58.429, 151.500 57.105 C 166.611 56.006, 171.547 54.860, 174.200 51.839 C 175.993 49.796, 175.689 47.657, 173.193 44.750 C 171.947 43.299, 170.135 43.025, 162.595 43.144 C 157.593 43.223, 149.900 43.628, 145.500 44.044 M 219.250 49.031 C 218.012 49.529, 217 50.482, 217 51.151 C 217 51.819, 213.850 58.082, 210 65.069 C 206.150 72.055, 203 78.048, 203 78.386 C 203 79.170, 207.809 79.158, 210.761 78.367 C 212.154 77.993, 213.231 76.752, 213.567 75.131 C 215.937 63.683, 220.494 50.218, 222.491 48.765 C 223.890 47.747, 222.075 47.896, 219.250 49.031 M 226.206 93.102 C 221.673 94.813, 220.738 99.720, 221.277 118.974 C 221.895 141.042, 223.780 148.218, 230.649 154.661 C 238.796 162.301, 248.701 162.756, 267.202 156.341 C 283.614 150.649, 289 147.201, 289 142.383 C 289 139.360, 282.873 133, 279.961 133 C 277.153 133, 273.949 135.704, 274.636 137.494 C 274.957 138.330, 273.764 139.220, 271.319 139.969 C 269.218 140.613, 266.600 141.555, 265.500 142.063 C 256.435 146.248, 241.687 147.544, 238.571 144.429 C 237.707 143.564, 236.999 142.777, 236.999 142.679 C 236.998 142.580, 236.323 138.675, 235.500 134 C 234.653 129.194, 234.002 119.496, 234.001 111.684 C 234.001 104.086, 233.540 97.008, 232.977 95.957 C 231.503 93.202, 228.875 92.095, 226.206 93.102 M 36.223 101.671 C 35.521 101.954, 34.121 103.830, 33.113 105.842 C 31.562 108.936, 31.174 113.121, 30.595 133 C 30.219 145.925, 29.498 162.350, 28.993 169.500 C 28.488 176.650, 28.058 193.435, 28.037 206.800 C 28.007 226.679, 28.278 231.636, 29.526 234.050 C 31.138 237.168, 33.799 237.804, 38.203 236.123 C 39.466 235.641, 42.731 234.718, 45.458 234.072 C 48.185 233.425, 51.785 232.273, 53.458 231.511 C 61.009 228.071, 64.522 227, 68.254 227 C 71.520 227, 72.860 226.368, 75.475 223.595 C 78.470 220.420, 78.732 219.563, 79.344 210.941 C 80.154 199.518, 80.038 148.277, 79.150 126 C 78.534 110.556, 78.335 109.290, 76.033 106.215 C 72.655 101.705, 70.285 101.391, 62.855 104.467 C 59.360 105.915, 53.462 107.897, 49.750 108.872 C 43.479 110.520, 43 110.527, 43 108.972 C 43 108.052, 42.506 105.881, 41.902 104.149 C 40.851 101.132, 39.274 100.445, 36.223 101.671 M 60.268 120.022 C 57.941 121.056, 54.483 122.194, 52.584 122.550 C 50.684 122.907, 48.357 124.053, 47.410 125.099 C 46.464 126.145, 45.156 127, 44.503 127 C 43.003 127, 42 152.504, 42 190.660 L 42 218 44.395 218 C 45.712 218, 49.817 217.065, 53.517 215.922 C 57.216 214.779, 61.314 214.113, 62.622 214.441 L 65 215.038 65 166.519 C 65 139.834, 64.888 118.032, 64.750 118.071 C 64.612 118.109, 62.596 118.988, 60.268 120.022 M 193.981 174.351 C 186.945 177.848, 175.260 182.023, 166.684 184.104 C 157.018 186.450, 149 189.822, 149 191.541 C 149 192.254, 148.740 193.513, 148.423 194.341 C 148.105 195.168, 148.780 196.780, 149.923 197.923 C 153.906 201.906, 165.500 200.221, 186.421 192.615 C 191.877 190.631, 196.567 189.233, 196.842 189.509 C 198.344 191.010, 202.351 258.160, 201.367 265.337 L 200.755 269.801 197.823 268.568 C 195.402 267.550, 193.461 267.646, 186.695 269.117 C 182.188 270.097, 177.150 270.928, 175.500 270.962 C 173.850 270.997, 168.955 272.158, 164.621 273.542 C 160.288 274.925, 154.188 276.325, 151.065 276.651 L 145.388 277.244 145.759 261.872 C 145.963 253.417, 146.280 246.019, 146.464 245.432 C 146.840 244.228, 154.526 242.451, 163.500 241.493 C 171.542 240.635, 184.514 237.350, 189.770 234.841 C 194.970 232.358, 197.160 228.756, 195.814 224.897 C 194.699 221.699, 191.626 220.673, 187.072 221.979 C 182.144 223.393, 168.560 225.797, 158.763 226.989 C 153.957 227.574, 149.344 228.314, 148.513 228.634 C 147.252 229.117, 147 228.061, 147 222.307 C 147 209.398, 144.929 188.595, 143.411 186.250 C 141.632 183.503, 136.981 183.234, 134.779 185.750 C 132.468 188.390, 131.456 276.783, 133.677 282 C 136.276 288.108, 136.614 288.463, 141.605 290.350 C 147.646 292.632, 155.014 292.139, 166.500 288.684 C 170.900 287.360, 178.100 285.452, 182.500 284.444 C 186.900 283.436, 191.973 282.013, 193.773 281.283 C 196.102 280.337, 197.597 280.249, 198.957 280.977 C 203.746 283.540, 210.017 280.848, 213.035 274.932 C 216.075 268.972, 216.725 260.364, 215.837 237.784 C 215.048 217.729, 214.129 206.906, 211.573 187.561 C 210.368 178.444, 210 177.389, 207.114 174.811 C 203.315 171.416, 200.112 171.304, 193.981 174.351" stroke="none" fill="black" fill-rule="evenodd"/>
</svg>