<svg xmlns="http://www.w3.org/2000/svg" width="300" height="300" viewBox="0 0 300 300" version="1.1">
	<path d="M 225 14.067 C 218.433 15.086, 201.490 16.331, 185.500 16.969 C 157.371 18.093, 139.633 19.792, 128.511 22.429 C 124.341 23.417, 122.143 23.534, 121.274 22.813 C 120.588 22.243, 118.885 22.063, 117.491 22.413 C 115.714 22.859, 114.782 22.596, 114.375 21.534 C 114.055 20.700, 112.029 19.490, 109.874 18.844 C 106.174 17.736, 105.787 17.830, 102.977 20.522 C 101.340 22.091, 100 24.139, 100 25.075 C 100 26.010, 101.382 29.728, 103.070 33.337 C 105.207 37.903, 106.879 44.184, 108.568 53.994 C 111.705 72.211, 114.499 78, 120.155 78 C 121.987 78, 123 78.522, 123 79.465 C 123 82.178, 126.696 83.231, 132.127 82.066 C 134.877 81.476, 138.205 81.264, 139.523 81.595 C 140.840 81.926, 144.974 81.717, 148.709 81.132 C 166.485 78.345, 174.090 77.690, 175.248 78.848 C 177.166 80.766, 181.551 80.145, 184.341 77.560 C 187.930 74.233, 213.651 69.199, 217.953 70.980 C 222.172 72.728, 225.391 71.320, 231.263 65.158 C 238.282 57.793, 249.642 40.446, 252.192 33.201 C 255.670 23.320, 253.429 16.749, 245.444 13.412 C 241.390 11.718, 239.820 11.769, 225 14.067 M 218 30.595 C 211.675 31.325, 203.531 32.193, 199.903 32.524 L 193.305 33.127 192.153 42.505 C 191.519 47.663, 191 53.324, 191 55.085 L 191 58.288 199.250 57.465 C 203.787 57.013, 210.562 56.564, 214.304 56.467 C 218.047 56.370, 221.519 55.881, 222.020 55.380 C 222.521 54.879, 224.914 50.651, 227.337 45.985 C 229.761 41.318, 232.702 35.799, 233.872 33.720 C 235.042 31.640, 236 29.728, 236 29.470 C 236 28.784, 230.972 29.098, 218 30.595 M 165.507 38.750 C 165.854 41.362, 166.628 45.862, 167.228 48.750 C 168.225 53.550, 168.554 54, 171.076 54 C 172.592 54, 174.060 54.563, 174.338 55.250 C 174.615 55.938, 174.910 54.925, 174.992 53 C 175.075 51.075, 175.460 46.013, 175.848 41.750 L 176.553 34 170.715 34 L 164.877 34 165.507 38.750 M 141.500 36.075 C 131.875 37.360, 120.860 39.527, 121.368 40.035 C 121.626 40.293, 122.323 44.328, 122.918 49.002 C 123.512 53.676, 124.497 60.939, 125.105 65.143 L 126.211 72.786 128.856 71.506 C 133.030 69.484, 144.997 65.988, 150.771 65.101 C 153.669 64.656, 156.236 64.098, 156.473 63.860 C 156.711 63.622, 155.805 61.194, 154.460 58.464 C 152.243 53.964, 151.214 49.881, 149.490 38.750 C 149.171 36.688, 148.592 35.062, 148.205 35.137 C 147.817 35.212, 144.800 35.634, 141.500 36.075 M 63.500 94.065 C 61.850 94.556, 58.475 96.036, 56 97.354 C 51.594 99.700, 43 101.511, 43 100.093 C 43 99.699, 42.082 98.392, 40.961 97.189 C 38.303 94.335, 33.933 94.363, 31.285 97.250 C 29.319 99.394, 29.182 101.167, 28.361 135 C 27.888 154.525, 27.626 181.637, 27.781 195.250 C 27.976 212.460, 27.733 220, 26.983 220 C 25.063 220, 21 225.223, 21 227.691 C 21 229.011, 22.105 231.195, 23.455 232.545 C 27.895 236.986, 34.243 235.563, 53.124 225.897 L 60.749 221.994 61.354 225.022 C 62.079 228.644, 65.262 230.153, 69.247 228.764 C 72.744 227.545, 75.400 223.743, 76.766 218 C 77.365 215.485, 78.391 189.201, 79.094 158.403 L 80.352 103.305 78.079 99.628 C 74.480 93.804, 70.052 92.115, 63.500 94.065 M 199.736 98.088 C 198.765 98.653, 194.715 103.386, 190.736 108.605 C 186.756 113.825, 182.150 119.804, 180.500 121.893 C 178.850 123.982, 175.637 128.123, 173.360 131.096 C 171.083 134.068, 168.324 137.435, 167.230 138.579 C 166.137 139.722, 163.997 142.647, 162.477 145.079 C 160.023 149.003, 150.466 161.693, 148.979 163 C 147.302 164.475, 144 171.439, 144 173.500 C 144 176.117, 147.331 179, 150.354 179 C 153.529 179, 158.250 175.420, 163 169.411 C 167.286 163.988, 167.515 163.844, 167.818 166.372 C 167.992 167.832, 167.430 180.489, 166.568 194.497 C 163.975 236.625, 164.797 266.563, 168.691 271.799 C 171.483 275.553, 177.679 276.070, 180.643 272.797 C 184.846 268.155, 186.385 258.734, 183.308 256.483 C 181.944 255.486, 187.124 255.145, 210.058 254.722 C 249.107 254.003, 273.896 251.029, 284.290 245.818 C 290.288 242.812, 291.856 236.092, 287.513 232.012 C 285.152 229.794, 284.751 229.737, 279.609 230.888 C 269.935 233.053, 249.735 235.970, 239.750 236.643 L 230 237.301 230 221.759 C 230 206.478, 230.038 206.207, 232.250 205.642 C 236.364 204.592, 242.003 199.100, 241.968 196.177 C 241.910 191.312, 239.732 189.675, 234.044 190.222 L 229 190.706 229 186.993 C 229 184.950, 228.727 181.289, 228.394 178.856 L 227.787 174.432 233.144 172.709 C 242.914 169.565, 246.048 164.873, 241.899 159.599 C 239.851 156.995, 239.322 156.832, 234.830 157.428 C 232.160 157.782, 229.306 158.329, 228.488 158.643 C 227.274 159.109, 227.003 158.135, 227.015 153.357 C 227.024 150.136, 227.428 146.873, 227.913 146.106 C 228.491 145.194, 231.443 144.543, 236.464 144.221 C 243.092 143.795, 244.338 143.413, 245.654 141.405 C 249.148 136.073, 244.164 130, 236.296 130 C 231.818 130, 230 128.614, 230 125.200 C 230 121.681, 222.021 113.895, 218.307 113.790 C 210.983 113.581, 208.483 118.623, 212.280 125.942 L 214.679 130.566 204.089 132.294 C 198.265 133.245, 192.947 134.018, 192.271 134.012 C 191.195 134.001, 198.767 123.331, 207.166 113.022 C 211.059 108.244, 211.147 102.048, 207.365 99.073 C 204.466 96.792, 202.416 96.528, 199.736 98.088 M 124.835 102.578 C 123.012 103.533, 119.800 108.381, 114.462 118.231 C 110.209 126.079, 105.277 134.975, 103.502 138 C 98.953 145.751, 97.561 152.015, 99.407 156.432 C 102.378 163.541, 111.188 164.808, 122.297 159.722 C 125.434 158.286, 128 157.309, 128 157.552 C 128 157.794, 125.836 161.032, 123.191 164.746 C 111.182 181.611, 101.589 196.576, 99.844 201.169 C 96.442 210.123, 95.708 215.365, 97.318 219.218 C 98.857 222.901, 103.873 226, 108.296 226 C 113.530 226, 123.983 221.880, 129.685 217.569 C 132.876 215.157, 135.767 213.356, 136.109 213.567 C 136.823 214.009, 138.697 224.060, 138.886 228.471 C 139.054 232.361, 141.149 234.333, 145.114 234.333 C 151.064 234.333, 155.035 225.782, 153.489 216.297 C 151.232 202.445, 149.562 196.742, 146.940 193.936 C 143.710 190.478, 140.819 190.221, 137.158 193.067 C 133.082 196.236, 115.760 207, 114.735 207 C 112.745 207, 130.690 177.768, 147.578 153.500 C 160.574 134.826, 161.684 130.456, 153.897 128.642 C 151.811 128.156, 150.518 128.776, 147.381 131.768 C 145.229 133.821, 142.652 136.644, 141.653 138.042 C 140.035 140.307, 139.108 140.596, 133.168 140.689 C 129.493 140.746, 124.831 141.512, 122.782 142.396 C 120.737 143.278, 118.615 144, 118.066 144 C 117.517 144, 120.878 136.636, 125.534 127.636 C 135.479 108.412, 135.993 105.599, 130.117 102.560 C 127.881 101.404, 127.071 101.407, 124.835 102.578 M 58 112.500 C 55.190 114.004, 51.776 114.927, 48.911 114.955 L 44.322 115 43.663 142.750 C 43.300 158.012, 43.003 180.093, 43.002 191.817 L 43 213.135 45.250 212.432 C 46.488 212.045, 49.918 210.665, 52.874 209.365 C 55.830 208.064, 59.093 207, 60.124 207 C 61.898 207, 62.005 205.822, 62.085 185.250 C 62.132 173.287, 62.694 151.462, 63.335 136.749 C 64.107 119.030, 64.162 110.013, 63.500 110.044 C 62.950 110.070, 60.475 111.175, 58 112.500 M 199.215 149.488 C 191.909 150.724, 185.783 151.908, 185.604 152.118 C 185.424 152.328, 185.009 157.113, 184.680 162.750 C 184.137 172.090, 184.240 173, 185.842 173 C 186.809 173, 188.028 172.584, 188.550 172.076 C 189.072 171.568, 194.450 169.284, 200.500 167 C 206.550 164.716, 211.792 162.544, 212.149 162.174 C 213.173 161.112, 214.301 146.986, 213.351 147.120 C 212.883 147.186, 206.522 148.251, 199.215 149.488 M 201 183.992 C 194.105 186.262, 191.603 186.651, 187.750 186.053 L 183 185.317 183 193.577 C 183 198.120, 182.703 202.661, 182.341 203.668 C 181.978 204.676, 182.055 205.161, 182.511 204.746 C 182.967 204.332, 184.412 204.695, 185.722 205.553 C 187.977 207.031, 188.457 206.909, 194.822 203.240 C 198.517 201.109, 203.894 198.520, 206.771 197.485 C 211.942 195.626, 212 195.558, 212 191.427 C 212 186.461, 211.002 180.961, 210.125 181.097 C 209.781 181.150, 205.675 182.453, 201 183.992 M 204.610 216.189 C 196.686 219.621, 188.417 220.829, 185.078 219.042 C 183.841 218.380, 182.676 217.991, 182.489 218.178 C 182.302 218.365, 181.823 224.078, 181.426 230.873 C 180.733 242.713, 180.782 243.205, 182.602 242.664 C 187.629 241.167, 206.607 238, 210.551 238 L 215 238 215 228.625 C 215 217.900, 214.243 212.955, 212.625 213.102 C 212.006 213.158, 208.399 214.547, 204.610 216.189 M 123.896 242.286 C 118.613 246.309, 122.061 255.035, 131.309 261.044 C 137.779 265.247, 141.867 265.991, 144.429 263.429 C 146.802 261.055, 146.321 257.260, 143.250 254.127 C 141.738 252.584, 139.414 249.941, 138.088 248.254 C 135.578 245.062, 129.229 240.977, 126.864 241.032 C 126.114 241.049, 124.778 241.614, 123.896 242.286 M 97.039 247.189 C 89.766 254.995, 102.799 274, 115.425 274 C 118.752 274, 121 272.049, 121 269.161 C 121 268.627, 118.097 265.186, 114.550 261.514 C 111.002 257.842, 107.157 252.890, 106.004 250.508 C 103.110 244.531, 100.437 243.541, 97.039 247.189 M 63.704 247.425 C 60.845 249.594, 60.441 255.019, 62.904 258.151 C 65.695 261.699, 76.928 266.045, 85 266.699 C 90.695 267.161, 91.731 266.969, 93.369 265.153 C 96.421 261.767, 94.839 258.703, 87.754 254.280 C 75.053 246.351, 67.834 244.293, 63.704 247.425" stroke="none" fill="black" fill-rule="evenodd"/>
</svg>