<svg xmlns="http://www.w3.org/2000/svg" width="300" height="300" viewBox="0 0 300 300" version="1.1">
	<path d="M 205.168 12.859 C 198.694 17.629, 194.767 23.839, 192.108 33.507 C 190.899 37.903, 188.355 44.522, 186.455 48.216 C 181.525 57.798, 182.065 61, 188.611 61 C 192.785 61, 195.318 57.943, 200.500 46.655 C 203.912 39.222, 204.794 38.024, 206.500 38.498 C 207.600 38.804, 211.510 39.330, 215.188 39.667 C 220.812 40.182, 223.279 39.840, 230.688 37.514 C 248.305 31.985, 252.793 29.009, 251.469 23.734 C 250.496 19.855, 246.835 18.413, 241.211 19.693 C 225.324 23.307, 217.994 24.859, 214.149 25.420 L 209.798 26.056 212.399 21.402 C 218.226 10.975, 214.192 6.209, 205.168 12.859 M 158.452 13.406 C 154.376 15.182, 152.406 18.446, 150.952 25.840 C 149.985 30.753, 149.362 32, 147.874 32 C 146.848 32, 143.419 32.886, 140.254 33.969 C 130.667 37.249, 122.897 39.064, 114.724 39.930 C 108.435 40.596, 106.561 41.200, 104.926 43.085 C 102.130 46.310, 102.667 51.682, 106.037 54.187 C 108.469 55.994, 108.979 56.007, 118.407 54.490 C 123.815 53.619, 130.099 52.260, 132.370 51.468 C 134.642 50.677, 137.175 50.018, 138 50.005 C 138.825 49.991, 141.928 48.850, 144.895 47.469 C 147.863 46.088, 150.464 45.131, 150.676 45.342 C 150.887 45.554, 151.485 48.336, 152.004 51.525 C 153.247 59.161, 156.861 64.591, 161.564 65.890 C 168.937 67.926, 173.251 62.970, 169.137 57.192 C 168.004 55.601, 166.621 52.320, 166.063 49.900 C 164.678 43.890, 164.738 24.606, 166.157 19.870 C 167.218 16.328, 167.123 15.841, 165.004 14.004 C 162.314 11.670, 162.416 11.679, 158.452 13.406 M 206.500 68.004 C 191.911 68.746, 188.423 69.756, 186.935 73.671 C 186.369 75.160, 185.106 76.938, 184.129 77.622 C 181.209 79.667, 179.614 88.474, 180.902 95.434 C 181.506 98.697, 182 103.283, 182 105.625 C 182 107.966, 182.482 110.180, 183.070 110.543 C 185.734 112.189, 185.630 115.217, 182.813 118.033 C 179.470 121.376, 179.353 122.811, 182 128 C 183.100 130.156, 184 133.669, 184 135.805 C 184 142.759, 190.363 145.436, 195.045 140.452 C 197.084 138.282, 197.437 136.909, 197.422 131.202 C 197.412 127.516, 197.061 123.583, 196.641 122.463 C 195.949 120.616, 196.467 120.308, 202.189 119.165 C 210.562 117.492, 217.156 115.370, 224.793 111.891 C 229.687 109.662, 231.390 108.303, 232.452 105.776 C 234.011 102.069, 233 99.074, 229.917 98.268 C 228.425 97.878, 228.913 97.329, 232.252 95.638 C 238.164 92.642, 243 85.977, 243 80.823 C 243 78.612, 242.275 75.274, 241.389 73.407 C 240.082 70.652, 238.820 69.727, 234.707 68.506 C 229.434 66.940, 227.943 66.913, 206.500 68.004 M 108.228 76.002 C 104.558 79.422, 103.582 84.713, 104.926 93.908 C 107.391 110.767, 110.926 117.400, 117.444 117.400 C 120.801 117.400, 121.114 117.625, 120.708 119.749 C 119.501 126.061, 127.385 127.991, 138.467 124.096 C 141.708 122.957, 144.497 122.163, 144.665 122.332 C 144.834 122.501, 142.878 125.532, 140.320 129.069 C 136.198 134.767, 132.804 138.885, 121.500 151.906 C 114.345 160.147, 92.393 182.058, 90.776 182.571 C 88.463 183.305, 87.453 187.505, 88.852 190.574 C 89.780 192.611, 90.668 193, 94.389 193 C 99.631 193, 104.650 189.497, 117.571 176.820 L 125.641 168.901 124.491 177.701 C 123.538 184.986, 123.004 209.484, 122.555 266.481 C 122.503 273.096, 122.641 273.531, 125.191 274.758 C 126.671 275.470, 128.165 276.946, 128.512 278.037 C 130.233 283.462, 139.764 284.305, 156.518 280.516 C 180.388 275.118, 210.299 272.540, 249.330 272.517 C 276.703 272.501, 278.231 272.402, 279.580 270.559 C 282.637 266.380, 281.334 264.064, 273.500 259.754 C 269.725 257.677, 268.038 257.533, 243.454 257.182 C 228.813 256.973, 212.647 257.290, 206.536 257.905 C 200.557 258.506, 195.474 258.807, 195.240 258.573 C 195.006 258.339, 195.714 254.402, 196.814 249.824 C 197.913 245.246, 199.118 238.019, 199.491 233.764 L 200.168 226.028 205.993 222.923 C 209.196 221.216, 212.759 218.942, 213.909 217.870 C 216.538 215.421, 216.598 211.019, 214.039 208.272 C 211.945 206.025, 209.993 206.091, 204.349 208.599 C 202.616 209.370, 200.928 210, 200.599 210 C 200.269 210, 200 206.044, 200 201.209 L 200 192.418 206.338 190.730 C 214.466 188.564, 221.896 184.404, 223.048 181.374 C 224.194 178.360, 222.744 174.371, 220.211 173.567 C 219.164 173.235, 215.651 173.605, 212.404 174.390 C 200.681 177.223, 200.271 177.218, 199.518 174.216 C 199.146 172.733, 198.328 171.202, 197.700 170.814 C 197.072 170.426, 196.809 169.858, 197.115 169.552 C 197.944 168.723, 218.720 163, 220.900 163 C 223.437 163, 226.839 159.959, 227.055 157.500 C 227.375 153.849, 227.025 153.239, 223.750 151.739 C 220.957 150.459, 219.094 150.426, 210.500 151.504 C 205 152.194, 196.225 153.984, 191 155.482 C 185.775 156.980, 175.425 159.493, 168 161.066 C 148.909 165.112, 141.752 167.060, 139.815 168.735 C 138.286 170.058, 138.030 169.835, 137.065 166.347 C 136.479 164.231, 135.596 161.872, 135.101 161.103 C 134.448 160.091, 136.613 156.772, 142.974 149.032 C 147.799 143.161, 153.459 135.915, 155.552 132.929 C 157.645 129.943, 160.227 126.518, 161.290 125.317 C 162.743 123.676, 163.122 122.073, 162.816 118.863 C 162.509 115.647, 162.869 114.131, 164.272 112.728 C 165.406 111.594, 166.023 109.778, 165.846 108.091 C 165.651 106.231, 166.452 104.252, 168.278 102.082 C 171.916 97.758, 172.594 94.495, 170.849 89.711 C 169.668 86.470, 168.378 85.207, 163.825 82.831 C 155.495 78.486, 144.750 76.575, 135.550 77.804 C 131.458 78.351, 126.666 79.519, 124.901 80.399 C 120.722 82.484, 119 82.423, 119 80.189 C 119 77.591, 115.315 74, 112.650 74 C 111.400 74, 109.410 74.901, 108.228 76.002 M 201.613 84.745 L 194.725 85.098 195.363 91.196 C 195.713 94.549, 196 99.085, 196 101.276 L 196 105.258 200.826 104.618 C 203.480 104.265, 208.092 103.277, 211.076 102.421 C 214.059 101.566, 217.803 100.610, 219.396 100.298 C 222.602 99.669, 228.185 97.016, 226.321 97.006 C 224.372 96.996, 222 94.009, 222 91.563 C 222 90.302, 222.933 88.084, 224.073 86.635 L 226.145 84 217.323 84.196 C 212.470 84.304, 205.401 84.551, 201.613 84.745 M 32.744 90.397 C 29.680 92.722, 28.166 103.555, 26.857 132.500 C 25.170 169.786, 25.504 195.794, 27.700 198.221 C 28.586 199.200, 29.690 200, 30.155 200 C 30.620 200, 31.900 200.900, 33 202 C 36.321 205.321, 40.344 204.510, 50.218 198.528 C 59.013 193.201, 59.400 193.072, 64.904 193.648 C 71.862 194.375, 72.341 193.898, 74.968 183.626 C 77.384 174.180, 78.690 158.459, 79.558 128.389 C 80.299 102.718, 79.849 100.114, 74.080 96.706 C 69.869 94.219, 65.049 94.600, 56.276 98.116 C 42.581 103.604, 43.347 103.649, 42.694 97.324 C 42.384 94.320, 41.596 91.218, 40.943 90.431 C 39.462 88.646, 35.074 88.628, 32.744 90.397 M 119.431 92.209 C 122.590 106.988, 123.151 110.428, 122.748 112.539 C 122.204 115.383, 122.745 115.567, 125.654 113.530 C 126.808 112.722, 130.364 111.481, 133.556 110.773 C 138.581 109.658, 139.460 109.113, 140.100 106.717 C 140.910 103.692, 144.626 100.089, 147 100.028 C 147.825 100.007, 149.850 98.906, 151.500 97.582 L 154.500 95.174 152 94.623 C 150.625 94.320, 144.100 93.926, 137.500 93.749 C 128.448 93.505, 124.694 92.995, 122.221 91.672 C 118.941 89.918, 118.941 89.918, 119.431 92.209 M 55.500 115.074 C 52.200 116.681, 48.074 118.265, 46.332 118.594 L 43.164 119.192 42.590 127.346 C 42.275 131.831, 41.547 146.075, 40.972 159 C 40.397 171.925, 39.710 183.512, 39.445 184.748 L 38.963 186.997 44.231 184.533 C 47.129 183.178, 52.278 181.106, 55.674 179.929 L 61.847 177.788 62.299 147.644 C 62.547 131.065, 63.084 116.263, 63.492 114.750 C 64.442 111.226, 63.311 111.272, 55.500 115.074 M 185.897 171.437 C 185.656 171.677, 180.069 173.298, 173.480 175.040 C 158.189 179.082, 143.599 179.717, 139.937 176.500 C 137.854 174.669, 137.718 174.655, 138.330 176.332 C 138.699 177.339, 139 182.156, 139 187.036 L 139 195.909 141.299 193.610 C 142.830 192.079, 145.377 191.075, 148.920 190.605 C 151.847 190.217, 158.973 188.122, 164.756 185.950 C 170.540 183.777, 175.945 182, 176.770 182 C 181.392 182, 185.868 179.580, 187.886 175.990 C 189.048 173.921, 190 171.951, 190 171.614 C 190 170.917, 186.564 170.769, 185.897 171.437 M 176 197.927 C 169.023 200.814, 156.884 204.007, 152.899 204.003 C 148.711 203.999, 143.193 202.313, 140.896 200.335 C 139.432 199.075, 139.240 201.074, 138.703 223.227 C 138.176 244.978, 137.053 260.355, 135.418 268.227 L 134.851 270.953 139.176 269.089 C 144.456 266.814, 149.504 265.693, 167.181 262.871 C 182.984 260.348, 181.523 261.933, 182.597 246.135 L 183.302 235.769 180.901 236.495 C 179.580 236.893, 176.025 238.096, 173 239.167 C 159.622 243.905, 158.013 244.248, 155.007 243.003 C 150.477 241.126, 148.654 238.467, 148.829 233.989 C 149.009 229.408, 151.715 223.167, 154.185 221.636 C 156.406 220.260, 161 222.641, 161 225.169 C 161 226.176, 161.338 226.981, 161.750 226.959 C 162.162 226.936, 167 225.007, 172.500 222.673 L 182.500 218.428 182.783 207.214 C 183.099 194.665, 183.281 194.915, 176 197.927" stroke="none" fill="black" fill-rule="evenodd"/>
</svg>