<svg xmlns="http://www.w3.org/2000/svg" width="300" height="300" viewBox="0 0 300 300" version="1.1">
	<path d="M 191.578 7.750 C 189.295 10.019, 187.824 16.680, 187.294 27.158 L 186.704 38.816 174.102 39.385 C 145.548 40.675, 117.574 43.306, 113.750 45.060 C 110.358 46.616, 110.027 50.409, 113.138 52.074 C 115.322 53.243, 163.378 52.764, 180.250 51.405 L 188 50.781 188.015 59.641 C 188.032 70.314, 190.517 103.329, 191.879 111 C 192.417 114.025, 193.575 121, 194.453 126.500 C 196.444 138.978, 198.728 150.838, 200.519 158 C 201.275 161.025, 204.209 172.725, 207.039 184 C 209.869 195.275, 212.196 204.950, 212.210 205.500 C 212.224 206.050, 210.008 210.550, 207.285 215.500 C 204.563 220.450, 199.942 229, 197.017 234.500 C 187.163 253.025, 181.298 260.720, 172.866 266.184 C 169.076 268.639, 168 269.919, 168 271.968 C 168 282.368, 183.941 275.618, 194.880 260.586 C 199.743 253.904, 206.730 242.438, 211.993 232.500 C 214.323 228.100, 216.538 224.163, 216.915 223.750 C 217.291 223.338, 218.606 226.488, 219.835 230.750 C 232.871 275.937, 235.811 282, 244.683 282 C 249.302 282, 251.790 279.090, 255.931 268.841 C 257.785 264.254, 260.584 257.656, 262.151 254.180 C 265.377 247.023, 265.700 243.843, 263.429 241.571 C 259.310 237.453, 256.159 240.481, 249.071 255.365 C 246.225 261.341, 243.722 266.055, 243.509 265.842 C 243.094 265.427, 229.520 224.502, 226.480 214.500 L 224.656 208.500 236.577 185 C 243.134 172.075, 250.408 158.125, 252.742 154 C 257.193 146.132, 257.997 142.073, 255.513 140.011 C 251.389 136.588, 243.816 143.875, 236.520 158.286 C 233.954 163.354, 231.471 168.175, 231.002 169 C 230.533 169.825, 227.906 175.121, 225.164 180.768 L 220.180 191.037 218.621 186.768 C 216.904 182.067, 210.009 153.100, 207.607 140.500 C 201.955 110.848, 199.725 91.454, 197.775 55 L 197.534 50.500 212.242 50 C 228.273 49.455, 230.071 48.792, 231.509 42.894 C 232.597 38.431, 225.975 34.285, 221.863 36.854 C 220.759 37.543, 215.435 38, 208.514 38 L 197 38 197 24.434 C 197 16.973, 196.534 9.998, 195.965 8.934 C 194.904 6.952, 192.921 6.416, 191.578 7.750 M 226.223 11.557 C 221.725 14.707, 224.076 19.112, 232.145 22.654 C 233.599 23.292, 236.634 25.481, 238.888 27.518 C 243.443 31.633, 247.300 31.779, 248.537 27.883 C 249.589 24.570, 242.027 15.086, 235.790 11.897 C 231.284 9.593, 229.135 9.516, 226.223 11.557 M 94.667 44.667 C 93.450 45.883, 93.970 48.881, 96.957 57.871 C 99.306 64.941, 100.258 70.550, 101.584 85.136 C 105.030 123.025, 100.784 167.223, 88.917 217 C 87.803 221.675, 86.474 227.443, 85.963 229.817 C 85.453 232.191, 84.728 234.631, 84.352 235.240 C 83.976 235.848, 83.333 237.956, 82.923 239.923 C 81.420 247.142, 76.982 262.134, 75.502 264.997 C 74.664 266.617, 73.155 268.743, 72.149 269.721 C 69.193 272.597, 68.846 274.846, 71.023 277.023 C 73.843 279.843, 76.067 279.490, 80.756 275.477 C 85.010 271.836, 89.084 263.180, 92.513 250.498 C 93.331 247.474, 94.664 242.637, 95.475 239.750 C 97.213 233.564, 97.221 233.532, 100.420 220 C 104.642 202.141, 109.448 176.644, 110.788 165 C 111.443 159.303, 111.780 158.533, 113.518 158.765 C 123.299 160.073, 126.287 160.043, 133.384 158.567 C 137.720 157.665, 142.107 156.478, 143.134 155.929 C 144.865 155.002, 145 155.391, 145 161.291 C 145 164.789, 145.710 172.568, 146.579 178.576 C 147.491 184.884, 148.230 197.412, 148.329 208.226 C 148.497 226.604, 148.458 226.981, 146.250 228.533 C 144.007 230.109, 143.456 232.418, 144.607 235.418 C 145.391 237.462, 151.790 237.536, 154.647 235.535 C 155.798 234.729, 157.566 232.366, 158.577 230.285 C 160.187 226.969, 160.396 224.084, 160.263 207 C 160.112 187.554, 160.117 187.507, 162.056 189.861 C 163.149 191.188, 164 193.731, 164 195.668 C 164 201.773, 166.167 208.035, 169.506 211.575 C 172.166 214.395, 173.462 215, 176.845 215 C 180.102 215, 181.287 214.492, 182.560 212.549 C 184.609 209.421, 183.793 206.947, 180.003 204.797 C 177.980 203.649, 177 202.314, 177 200.706 C 177 196.621, 171.352 186.666, 167.947 184.750 C 164.023 182.541, 162.357 182.541, 161.117 184.750 C 159.705 187.265, 159.273 185.557, 158.017 172.500 C 157.435 166.450, 156.697 159.471, 156.377 156.992 L 155.794 152.484 161.147 150.835 C 164.091 149.928, 169.200 148.421, 172.500 147.485 C 181.813 144.845, 184.001 142.001, 179.886 137.886 C 178.072 136.072, 177.045 135.865, 172.636 136.423 C 169.811 136.780, 165.475 137.680, 163 138.423 C 155.330 140.723, 147.019 142.352, 146.353 141.686 C 146.003 141.336, 146.456 137.326, 147.359 132.775 C 148.262 128.224, 149.001 122.362, 149.001 119.750 L 149 115 156.341 115 C 168.411 115, 177 111.446, 177 106.452 C 177 103.348, 175.490 103, 162.035 103 C 148.618 103, 149.041 103.304, 149.014 93.636 C 148.991 85.735, 144.913 80.074, 139.199 80.014 C 136.164 79.982, 134.447 89.199, 137.144 91.039 C 137.579 91.335, 138.045 94.035, 138.180 97.039 C 138.516 104.532, 136.042 144.343, 135.189 145.164 C 133.507 146.785, 121.212 150, 116.697 150 L 111.725 150 112.350 141.750 C 114.016 119.783, 114.188 108.904, 113.109 93.851 C 111.569 72.378, 110.177 61.507, 108.263 56 C 105.792 48.890, 97.421 41.912, 94.667 44.667 M 38.750 79.217 C 36.659 81.833, 36.638 83.111, 38.515 93.500 C 40.082 102.171, 40.490 144.033, 39.103 153.778 C 38.230 159.909, 39.698 163, 43.484 163 C 47.984 163, 49.498 159.321, 51.471 143.595 C 52.817 132.865, 53.150 125.577, 52.727 116.061 C 52.224 104.766, 52.343 103.195, 53.665 103.702 C 54.497 104.021, 57.833 103.014, 61.078 101.463 C 64.322 99.912, 67.288 98.955, 67.669 99.336 C 68.050 99.716, 68.554 113.300, 68.790 129.522 L 69.219 159.016 64.745 160.995 C 62.284 162.083, 57.180 163.622, 53.404 164.413 C 44.102 166.363, 41.114 169.863, 44.557 174.777 C 45.838 176.607, 47.067 177, 51.510 177 C 56.903 177, 58.778 176.486, 66.740 172.821 C 69.072 171.748, 71.425 171.145, 71.969 171.481 C 74.019 172.748, 76.924 169.820, 78.927 164.467 C 80.858 159.305, 81 156.836, 81 128.430 C 81 95.850, 80.694 93.497, 75.778 88.264 C 73.480 85.818, 66.586 85.104, 63.236 86.965 C 62.281 87.496, 59.250 88.954, 56.500 90.205 C 53.750 91.456, 51.163 92.635, 50.750 92.823 C 50.337 93.012, 49.997 92.117, 49.994 90.833 C 49.985 86.880, 47.968 80.968, 45.935 78.935 C 43.406 76.406, 40.918 76.504, 38.750 79.217 M 127.117 186.250 C 122.778 192.022, 118.134 201.492, 115.470 210 C 114.523 213.025, 113.355 216.534, 112.874 217.797 C 111.405 221.658, 111.810 227.713, 113.582 228.393 C 118.062 230.112, 121.976 226.850, 123.654 220 C 123.990 218.625, 126.627 212.325, 129.513 206 C 136.807 190.012, 137.797 181.085, 132.282 181.015 C 131.613 181.007, 129.288 183.363, 127.117 186.250" stroke="none" fill="black" fill-rule="evenodd"/>
</svg>