<svg xmlns="http://www.w3.org/2000/svg" width="300" height="300" viewBox="0 0 300 300" version="1.1">
	<path d="M 204.500 10.960 C 201.200 11.365, 190.850 13.321, 181.500 15.306 C 172.150 17.291, 158.650 19.841, 151.500 20.972 C 137.361 23.208, 131.002 24.982, 103 34.503 C 92.825 37.962, 81.668 41.311, 78.206 41.945 C 74.744 42.578, 71.302 43.331, 70.556 43.617 C 69.658 43.962, 68.807 42.848, 68.036 40.319 C 66.013 33.687, 63.737 29, 62.539 29 C 58.350 29, 56.004 35.944, 57.134 45 C 57.511 48.025, 58.398 63.065, 59.104 78.423 C 60.567 110.233, 59.463 156.258, 55.979 208.736 C 53.799 241.571, 52.914 248.817, 50.932 250.042 C 48.697 251.423, 49.318 257.646, 51.974 260.473 C 54.969 263.660, 57.062 263.660, 60.849 260.473 C 66.139 256.023, 67.638 245.592, 70.689 192 C 72.500 160.196, 73.251 64.694, 71.756 56.364 L 71.013 52.229 76.756 51.557 C 88.077 50.232, 96.810 47.958, 117.098 41.053 C 132.462 35.824, 140.975 33.522, 150.598 31.996 C 157.694 30.870, 174.472 27.672, 187.883 24.888 C 213.738 19.522, 217.152 19.353, 220.715 23.265 C 225.310 28.312, 226.951 35.280, 229.951 62.500 C 233.176 91.752, 233.908 113.609, 234.155 188 C 234.407 263.659, 234.188 267.687, 229.451 274.667 C 226.229 279.415, 226.345 280.545, 230.475 284.675 C 234.016 288.216, 236.359 288.471, 239.823 285.695 C 241.806 284.105, 244.828 277.732, 245.921 272.836 C 248.858 259.680, 249.087 250.109, 248.038 184.588 C 246.845 110.133, 245.826 85.598, 242.967 62.500 C 239.088 31.168, 234.509 17.470, 226.399 12.939 C 222.743 10.897, 212.527 9.973, 204.500 10.960 M 130.843 46.925 C 128.620 48.724, 128.489 49.501, 128.291 62.142 L 128.083 75.463 120.488 77.124 C 116.311 78.038, 112.095 79.509, 111.118 80.393 C 110.142 81.277, 108.888 82, 108.332 82 C 107.117 82, 105 86.379, 105 88.892 C 105 91.179, 108.079 94, 110.575 94 C 111.630 94, 116.011 92.829, 120.310 91.397 C 124.609 89.965, 128.263 88.952, 128.430 89.147 C 128.597 89.341, 128.972 94.939, 129.265 101.587 L 129.796 113.674 124.981 114.908 C 122.332 115.587, 118.441 117.448, 116.333 119.043 C 114.225 120.639, 112.199 121.957, 111.832 121.972 C 111.464 121.987, 110.190 120.425, 109 118.500 C 107.395 115.904, 106.148 115.004, 104.168 115.015 C 98.511 115.048, 97.438 117.961, 99.405 127.942 C 101.977 140.987, 103.352 180.719, 101.890 199.759 C 100.667 215.696, 100.690 216.300, 102.562 217.670 C 105.378 219.730, 109.986 218.928, 112.152 216 C 113.328 214.409, 114.455 210.046, 115.250 204.005 L 116.500 194.510 122.500 192.835 C 131.544 190.310, 132 190.398, 132 194.653 C 132 202.153, 135.272 226.599, 136.629 229.236 C 138.281 232.446, 142.153 233.707, 145.574 232.148 C 148.534 230.800, 148.608 228.689, 146.508 205.500 C 145.711 196.700, 145.045 189.009, 145.029 188.408 C 145.013 187.808, 146.688 186.800, 148.750 186.168 C 154.739 184.332, 162.651 179.324, 165.537 175.541 C 170.327 169.260, 170.785 161.629, 166.471 159.989 C 163.077 158.699, 160.749 159.723, 158.186 163.635 C 156.646 165.986, 154.046 167.974, 150.408 169.583 C 147.402 170.912, 144.731 172, 144.471 172 C 144.212 172, 144 169.984, 144 167.519 C 144 163.433, 144.242 162.989, 146.750 162.480 C 159.922 159.806, 168.395 156.130, 171.454 151.762 C 173.772 148.452, 173.439 143.421, 170.777 141.557 C 167.862 139.515, 166.079 139.592, 163.564 141.870 C 162.429 142.899, 158.125 144.515, 154 145.462 C 149.875 146.409, 145.713 147.398, 144.750 147.659 C 143.151 148.094, 143 147.053, 143 135.606 L 143 123.077 146.750 122.099 C 172.335 115.427, 172.034 115.274, 176.425 137.127 C 180.423 157.028, 182.291 177.239, 182.400 201.794 L 182.500 224.088 179.250 226.926 C 173.172 232.232, 176.378 239, 184.970 239 C 189.428 239, 191.698 237.511, 193.939 233.119 C 200.620 220.023, 198.690 165.019, 190.356 131 C 187.545 119.527, 186.414 116.834, 182.411 112.076 C 175.211 103.520, 166.017 102.934, 143.750 109.610 C 142.151 110.089, 142 109.097, 142 98.138 L 142 86.142 147.750 85.015 C 156.294 83.341, 172.025 79.077, 175.874 77.392 C 177.729 76.579, 179.345 76.046, 179.463 76.207 C 179.581 76.368, 180.828 79.425, 182.234 83 C 183.704 86.738, 185.896 90.326, 187.395 91.445 C 189.981 93.376, 190.020 93.376, 192.750 91.345 C 194.262 90.220, 195.638 88.378, 195.806 87.251 C 196.124 85.124, 190.192 65.949, 186.944 58.607 C 182.985 49.656, 177.311 46.397, 169.500 48.588 C 166.775 49.353, 162 55.782, 162 58.686 C 162 61.322, 165.136 63, 170.065 63 C 173.758 63, 173.850 64.419, 170.250 65.853 C 165.437 67.770, 152.700 70.863, 146.750 71.558 L 141 72.230 140.937 69.365 C 140.760 61.284, 139.147 49.882, 137.984 48.480 C 135.397 45.364, 133.329 44.913, 130.843 46.925 M 122.543 130.051 C 118.717 131.666, 115.143 133.778, 114.601 134.744 C 113.598 136.531, 113.615 142.195, 114.639 147.357 L 115.206 150.214 122.049 149.827 C 125.813 149.615, 129.158 149.176, 129.481 148.852 C 129.805 148.528, 129.942 143.504, 129.785 137.688 L 129.500 127.114 122.543 130.051 M 116 170.393 C 116 178.618, 115.986 178.602, 121.884 177.045 C 123.873 176.520, 126.737 175.837, 128.250 175.526 C 130.847 174.993, 131 174.657, 131 169.481 L 131 164 125.082 164 C 121.827 164, 118.452 163.727, 117.582 163.393 C 116.225 162.872, 116 163.867, 116 170.393 M 198 258.062 C 187.218 259.206, 152.166 261.592, 109.500 264.086 C 78.636 265.890, 71.837 266.557, 68.500 268.108 C 62.637 270.832, 60.028 277.885, 63.571 281.429 C 65.415 283.272, 66.870 283.380, 70.623 281.953 C 72.138 281.377, 86.229 280.252, 101.938 279.453 C 180.528 275.453, 217.061 272.065, 221.109 268.401 C 223.678 266.077, 223.544 261.206, 220.847 258.867 C 218.472 256.807, 211.978 256.579, 198 258.062" stroke="none" fill="black" fill-rule="evenodd"/>
</svg>