<svg xmlns="http://www.w3.org/2000/svg" width="300" height="300" viewBox="0 0 300 300" version="1.1">
	<path d="M 181 22.393 C 181 23.159, 180.333 24.042, 179.519 24.355 C 178.280 24.830, 177.993 28.729, 177.769 48.163 L 177.500 71.402 167.500 73.163 C 162 74.131, 156.732 75.382, 155.794 75.943 C 154.855 76.504, 152.155 77.256, 149.794 77.616 C 145.561 78.260, 140.123 80.639, 138.845 82.405 C 138.485 82.902, 137.279 81.307, 136.164 78.860 C 134.292 74.750, 132.373 73.105, 127.698 71.602 C 124.797 70.669, 121 73.795, 121 77.115 C 121 78.702, 120.550 80, 120 80 C 119.450 80, 119 81.575, 119 83.500 C 119 85.425, 119.450 87, 120 87 C 120.550 87, 121.006 88.463, 121.013 90.250 C 121.020 92.037, 121.920 96.353, 123.013 99.839 C 124.106 103.326, 125 107.263, 125 108.589 C 125 109.915, 125.408 111, 125.906 111 C 126.405 111, 127.123 113.262, 127.504 116.026 C 127.884 118.790, 128.756 121.613, 129.442 122.299 C 130.128 122.985, 130.925 125.561, 131.214 128.023 C 131.503 130.485, 132.574 134.400, 133.594 136.722 C 135.250 140.493, 135.894 141.012, 139.625 141.571 C 146.484 142.600, 148 141.632, 148 136.226 C 148 130.708, 144.985 111.715, 143.996 111 C 143.615 110.725, 143.011 108.700, 142.652 106.500 C 142.294 104.300, 141.740 101.550, 141.420 100.389 C 140.907 98.523, 141.341 98.221, 145.170 97.787 C 147.551 97.517, 151.525 96.310, 154 95.106 C 158.812 92.764, 172.500 90.167, 173.701 91.368 C 174.099 91.766, 173.651 96.683, 172.705 102.296 C 171.760 107.908, 170.989 113.963, 170.993 115.750 C 170.997 117.537, 170.622 119, 170.160 119 C 169.698 119, 168.744 121.588, 168.040 124.750 C 167.336 127.912, 166.139 131.918, 165.380 133.651 C 164.621 135.384, 163.987 137.409, 163.972 138.151 C 163.956 138.893, 163.125 141.967, 162.125 144.982 L 160.307 150.464 147.432 152.682 C 140.350 153.902, 133.644 155.336, 132.528 155.869 C 131.413 156.402, 129.090 157.078, 127.367 157.371 C 125.643 157.664, 123.056 158.199, 121.617 158.560 C 119.463 159.101, 119 158.871, 119 157.263 C 119 154.496, 115.734 151.887, 112.143 151.785 C 109.562 151.712, 103.346 155.176, 101 157.995 C 100.725 158.326, 98.362 159.831, 95.750 161.340 C 93.138 162.849, 91 164.485, 91 164.975 C 91 165.465, 90.179 166.126, 89.176 166.444 C 88.173 166.762, 86.486 167.824, 85.426 168.803 C 84.367 169.782, 81.250 172.111, 78.500 173.979 C 75.750 175.846, 72.825 178.088, 72 178.960 C 71.175 179.833, 69.263 181.089, 67.750 181.752 L 65 182.957 65 166.179 C 65 156.950, 64.607 148.973, 64.126 148.450 C 63.645 147.928, 62.959 140.252, 62.601 131.393 C 61.854 112.892, 61.567 113.595, 70.638 111.748 C 73.862 111.092, 76.725 110.292, 77 109.971 C 77.275 109.649, 78.850 108.831, 80.500 108.152 C 82.150 107.474, 85.269 105.281, 87.431 103.280 C 90.906 100.063, 91.370 99.093, 91.431 94.906 C 91.511 89.444, 91.515 89.451, 87.374 88.565 C 85.215 88.103, 83.789 88.354, 82.767 89.376 C 81.953 90.190, 78.185 91.862, 74.393 93.090 C 70.602 94.319, 66.530 95.754, 65.345 96.280 C 61.326 98.063, 61 96.725, 61 78.441 C 61 67.480, 60.628 61, 60 61 C 59.444 61, 59 58.333, 59 55 C 59 51.667, 59.444 49, 60 49 C 60.570 49, 61 46.036, 61 42.108 C 61 35.500, 60.892 35.190, 58.370 34.557 C 56.414 34.066, 55.131 34.468, 53.370 36.123 C 52.066 37.347, 51 38.945, 51 39.674 C 51 40.403, 50.608 41, 50.130 41 C 49.651 41, 48.672 43.138, 47.954 45.750 C 47.236 48.362, 46.312 50.730, 45.900 51.012 C 44.253 52.140, 42.831 72.804, 43.510 85.750 L 44.205 99 41.102 99 C 39.396 99, 38 99.450, 38 100 C 38 100.589, 34.406 101.007, 29.250 101.016 C 22.032 101.030, 19.802 101.428, 16.516 103.289 C 11.405 106.184, 9.848 110.056, 12.568 113.108 C 16.043 117.007, 20.183 118, 32.968 118 L 45 118 45 120.800 C 45 122.340, 45.397 124.028, 45.882 124.550 C 46.821 125.562, 49 154.016, 49 165.270 C 49 169.090, 49.432 172, 50 172 C 50.603 172, 51 176.167, 51 182.500 C 51 188.275, 50.627 193, 50.171 193 C 49.303 193, 39.865 198.964, 39 200.059 C 38.725 200.407, 37.294 200.987, 35.820 201.348 C 34.346 201.708, 32.546 202.565, 31.820 203.252 C 31.094 203.938, 29.270 205.134, 27.767 205.910 C 26.264 206.685, 24.239 208.037, 23.267 208.913 C 22.295 209.789, 19.669 211.380, 17.431 212.449 C 10.614 215.706, 9.786 220.469, 15.431 223.958 C 18.203 225.670, 19.716 225.895, 24.866 225.356 C 28.240 225.004, 31 224.371, 31 223.950 C 31 223.529, 33.250 222.608, 36 221.903 C 38.750 221.199, 41 220.318, 41 219.947 C 41 219.576, 43.054 218.487, 45.564 217.529 C 48.074 216.570, 51.290 214.709, 52.710 213.393 C 54.130 212.077, 55.901 211, 56.646 211 C 57.391 211, 58 210.550, 58 210 C 58 209.450, 58.474 209, 59.054 209 C 59.634 209, 61.522 207.679, 63.249 206.065 C 64.977 204.450, 67.540 202.537, 68.945 201.815 C 70.350 201.092, 72.088 199.713, 72.807 198.750 C 73.525 197.787, 74.652 197, 75.310 197 C 75.968 197, 77.781 195.650, 79.338 194 C 80.895 192.350, 82.923 191, 83.844 191 C 84.765 191, 86.081 190.100, 86.768 189 C 87.455 187.900, 88.429 187, 88.932 187 C 89.435 187, 91.181 185.762, 92.812 184.250 C 94.443 182.738, 96.414 181.002, 97.193 180.393 C 97.972 179.784, 103.085 179.044, 108.555 178.749 C 117.951 178.241, 129.537 176.020, 133.122 174.039 C 135.305 172.833, 150.831 170.498, 151.594 171.261 C 152.514 172.181, 150.283 178.608, 145.941 187.543 C 143.791 191.967, 141.744 197.030, 141.391 198.793 C 141.039 200.557, 140.405 202, 139.984 202 C 139.562 202, 138.452 203.911, 137.518 206.247 C 136.583 208.583, 135.499 210.720, 135.108 210.997 C 134.717 211.274, 133.562 213.750, 132.540 216.500 C 131.519 219.250, 130.387 221.725, 130.026 222 C 129.021 222.763, 123.478 233.053, 121.944 237 C 121.196 238.925, 120.036 241.061, 119.366 241.748 C 117.480 243.678, 111 254.625, 111 255.880 C 111 256.495, 109.225 258.827, 107.056 261.062 C 104.887 263.297, 102.527 266.448, 101.812 268.063 C 101.097 269.678, 100.059 271.002, 99.506 271.004 C 98.953 271.007, 96.362 272.947, 93.750 275.316 C 90.339 278.409, 89 280.378, 89 282.300 C 89 290.591, 99.527 291.350, 108.410 283.700 C 113.371 279.426, 122 270.421, 122 269.517 C 122 268.958, 128.225 260.775, 130 259 C 130.275 258.725, 131.280 256.813, 132.234 254.750 C 133.187 252.688, 134.353 251, 134.824 251 C 135.295 251, 136.290 249.152, 137.035 246.894 C 137.780 244.635, 138.927 242.582, 139.583 242.330 C 140.239 242.078, 141.027 240.614, 141.335 239.076 C 141.642 237.538, 142.963 234.979, 144.268 233.390 C 145.574 231.800, 147.669 227.928, 148.923 224.785 C 150.178 221.642, 152.508 217.014, 154.102 214.500 C 155.696 211.987, 157 209.491, 157 208.954 C 157 207.936, 159.223 202.675, 163.951 192.500 C 165.485 189.200, 167.028 185.278, 167.380 183.785 C 168.091 180.772, 171 180.900, 171 183.944 C 171 185.958, 178.658 197, 180.055 197 C 180.575 197, 181 197.617, 181 198.371 C 181 199.126, 183.137 201.957, 185.750 204.663 C 188.363 207.369, 192.525 212.017, 195 214.992 C 197.475 217.966, 201.412 222.168, 203.750 224.327 C 206.088 226.487, 208 228.872, 208 229.627 C 208 230.382, 208.675 231, 209.500 231 C 210.325 231, 211 231.396, 211 231.879 C 211 233.113, 218.782 241, 219.999 241 C 220.550 241, 221 241.396, 221 241.879 C 221 242.984, 228.720 251, 229.783 251 C 230.215 251, 231.366 252.350, 232.341 254 C 233.316 255.650, 234.681 257, 235.376 257 C 236.071 257, 237.580 258.012, 238.729 259.250 C 239.878 260.488, 242.997 263.059, 245.659 264.964 C 248.322 266.869, 251.175 269.034, 252 269.774 C 255.772 273.159, 264.330 279, 265.517 279 C 266.241 279, 266.998 279.494, 267.199 280.098 C 267.400 280.701, 270.475 281.424, 274.033 281.703 C 279.496 282.131, 280.849 281.904, 282.750 280.238 C 285.532 277.799, 285.618 275.041, 283 272.230 C 281.900 271.050, 281 269.663, 281 269.149 C 281 268.635, 280.325 267.955, 279.500 267.638 C 278.675 267.322, 278 266.374, 278 265.531 C 278 264.577, 277.086 264, 275.571 264 C 274.236 264, 272.468 263.325, 271.643 262.500 C 270.818 261.675, 269.717 261, 269.197 261 C 268.676 261, 266.137 258.975, 263.554 256.500 C 260.971 254.025, 258.501 252, 258.066 252 C 257.630 252, 254.625 249.528, 251.387 246.507 C 248.149 243.486, 244.938 241.011, 244.250 241.007 C 243.563 241.003, 243 240.623, 243 240.163 C 243 238.678, 235.129 231, 233.607 231 C 232.797 231, 231.825 230.025, 231.447 228.834 C 230.798 226.787, 225.256 221, 223.946 221 C 223.612 221, 222.699 219.771, 221.919 218.268 C 220.318 215.186, 216.057 211.079, 214.411 211.032 C 213.811 211.014, 212.801 209.858, 212.164 208.462 C 211.528 207.065, 209.020 203.803, 206.590 201.212 C 200.628 194.853, 195.913 189.518, 193.500 186.400 C 192.400 184.978, 190.916 183.294, 190.202 182.658 C 188.518 181.155, 187.714 180.270, 183.923 175.741 C 182.193 173.674, 179.795 171.736, 178.594 171.434 C 177.393 171.133, 175.891 170.055, 175.256 169.039 C 173.910 166.884, 174.803 166.543, 184.500 165.508 C 187.800 165.156, 191.400 164.480, 192.500 164.006 C 193.600 163.533, 205.525 161.749, 219 160.044 C 244.727 156.787, 253.840 155.284, 255.500 154.024 C 256.050 153.606, 258.789 152.518, 261.587 151.606 C 269.642 148.980, 276 141.326, 276 134.256 C 276 130.430, 272.003 122.914, 269.475 121.985 C 264.896 120.304, 261 124.404, 261 130.905 C 261 132.938, 260.266 134.038, 258.250 135.024 C 254.415 136.900, 247.029 138.903, 243.750 138.956 C 242.238 138.980, 241 139.450, 241 140 C 241 140.550, 238.975 141, 236.500 141 C 234.025 141, 232 140.698, 232 140.329 C 232 139.959, 234.137 137.614, 236.750 135.116 C 239.363 132.619, 241.950 129.823, 242.500 128.904 C 247.088 121.233, 249.307 118, 249.984 118 C 250.420 118, 251.073 116.425, 251.434 114.500 C 251.795 112.575, 252.635 111, 253.300 111 C 253.966 111, 255.557 108.300, 256.837 105 C 258.116 101.700, 259.537 99, 259.994 99 C 260.450 99, 261.130 97.191, 261.503 94.980 C 261.877 92.769, 262.816 90.326, 263.591 89.552 C 267.246 85.897, 263.150 72.675, 258.043 71.638 C 256.644 71.354, 244.925 71.386, 232 71.709 C 219.075 72.032, 205.539 71.977, 201.920 71.587 L 195.341 70.877 195.361 55.189 C 195.377 42.305, 195.079 38.964, 193.696 36.500 C 192.769 34.850, 191.733 32.038, 191.394 30.250 C 191.055 28.462, 190.377 27, 189.889 27 C 189.400 27, 189 26.293, 189 25.429 C 189 24.564, 188.357 23.214, 187.571 22.429 C 185.717 20.575, 181 20.549, 181 22.393 M 191.648 94.250 C 191.301 97.138, 191.013 101.375, 191.009 103.667 C 191.004 105.958, 190.627 107.983, 190.171 108.167 C 189.714 108.350, 188.345 113.756, 187.128 120.181 C 185.911 126.606, 184.242 133.212, 183.419 134.862 C 182.596 136.513, 181.658 140.095, 181.335 142.823 L 180.747 147.783 185.624 147.248 C 188.306 146.953, 190.650 146.327, 190.833 145.856 C 191.017 145.385, 192.111 145, 193.266 145 C 194.420 145, 199.333 144.491, 204.182 143.869 C 211.870 142.883, 213 142.489, 213 140.789 C 213 139.717, 215.588 136.114, 218.750 132.782 C 221.912 129.451, 225.963 125.167, 227.750 123.262 C 229.537 121.358, 231 118.902, 231 117.804 C 231 116.707, 231.808 114.614, 232.794 113.154 C 233.781 111.694, 235.652 108.362, 236.952 105.750 C 238.251 103.138, 239.694 101, 240.157 101 C 240.621 101, 241.003 99.763, 241.006 98.250 C 241.010 96.737, 241.685 94.211, 242.506 92.636 C 244.350 89.100, 244.350 89, 242.500 89 C 241.675 89, 241 89.450, 241 90 C 241 90.606, 236.667 91, 230 91 C 223.333 91, 219 90.606, 219 90 C 219 89.383, 213.880 89, 205.639 89 L 192.279 89 191.648 94.250" stroke="none" fill="black" fill-rule="evenodd"/>
</svg>