<svg xmlns="http://www.w3.org/2000/svg" width="300" height="300" viewBox="0 0 300 300" version="1.1">
	<path d="M 171.306 50.413 C 168.827 52.544, 168.500 53.505, 168.503 58.663 C 168.504 61.873, 168.887 67.477, 169.355 71.116 C 170.314 78.588, 170.820 78.089, 160.815 79.532 L 156.130 80.208 155.431 76.354 C 154.642 72.001, 152.568 67.469, 150.889 66.431 C 150.270 66.049, 148.224 65.389, 146.342 64.964 C 143.383 64.297, 142.707 64.517, 141.350 66.589 C 139.443 69.499, 140.232 73.566, 142.837 74.247 C 144.633 74.717, 146.574 81.263, 145.453 83.075 C 145.194 83.495, 142.673 84.333, 139.851 84.938 C 131.429 86.745, 128 88.785, 128 91.991 C 128 97.006, 133.141 98.635, 141.828 96.373 C 144.829 95.591, 147.542 95.209, 147.857 95.524 C 148.172 95.838, 148.611 101.924, 148.833 109.048 C 149.211 121.173, 149.117 122, 147.368 122.001 C 144.645 122.001, 135.561 125.621, 130.904 128.561 C 127.886 130.466, 126.953 131.656, 127.187 133.302 C 127.446 135.120, 128.149 135.500, 131.251 135.500 C 134.954 135.500, 135.987 136.272, 133.959 137.525 C 131.862 138.821, 126.840 151.148, 126.308 156.305 C 125.826 160.973, 126.065 161.964, 128.293 164.555 C 130.569 167.202, 131.428 167.500, 136.781 167.500 L 142.737 167.500 142.266 171.500 C 142.006 173.700, 141.166 178.040, 140.397 181.144 C 139.629 184.249, 139 188.044, 139 189.579 C 139 192.909, 136.927 201.378, 133.267 213 C 131.280 219.310, 129.741 222.291, 127.295 224.571 C 123.556 228.055, 123.197 229.963, 125.829 232.345 C 128.601 234.854, 132.761 234.400, 135.860 231.250 C 140.641 226.392, 146.261 209.423, 150.348 187.500 C 151.169 183.100, 152.390 176.575, 153.062 173 C 153.734 169.425, 154.573 166.169, 154.927 165.765 C 155.281 165.361, 157.804 164.584, 160.535 164.038 C 163.266 163.493, 166.582 162.740, 167.905 162.366 L 170.310 161.686 169.608 197.093 C 169.222 216.567, 168.682 243.713, 168.409 257.418 C 168.135 271.122, 167.747 282.600, 167.547 282.923 C 166.670 284.342, 168.401 289.028, 170.546 291.043 C 173.467 293.788, 177.727 293.083, 178.456 289.735 C 179.324 285.749, 181 219.122, 181 188.623 C 181 165.735, 181.286 158.854, 182.250 158.573 C 182.938 158.373, 186.200 157.450, 189.500 156.523 C 192.800 155.595, 197.525 154.210, 200 153.444 C 217.101 148.152, 221.035 147, 222.016 147 C 223.190 147, 222.950 149.693, 220.436 164.704 C 219.138 172.452, 215.050 183.142, 211.739 187.444 C 210.299 189.315, 210.141 189.322, 207.562 187.633 C 202.615 184.391, 198.038 187.031, 199.374 192.354 C 200.181 195.569, 207.326 201, 210.749 201 C 222.886 201, 232.711 181.074, 235.516 150.772 C 236.493 140.215, 235.669 136.612, 231.562 133.480 L 228.208 130.921 210.854 136.517 C 201.309 139.595, 192.150 142.577, 190.500 143.144 C 188.850 143.712, 186.037 144.539, 184.250 144.983 L 181 145.789 181 134.909 L 181 124.029 187.046 120.977 C 190.371 119.298, 193.313 117.347, 193.584 116.641 C 193.877 115.878, 195.186 115.520, 196.811 115.759 C 200.252 116.264, 200.874 115.534, 209.806 100.500 C 219.979 83.377, 220.731 80.308, 216 75.230 C 214.133 73.226, 212.988 73.005, 204.711 73.053 C 199.645 73.082, 192.294 73.680, 188.375 74.382 L 181.249 75.658 180.625 69.682 C 180.281 66.396, 180 61.769, 180 59.400 C 180 53.564, 177.496 48.075, 174.806 48.015 C 174.424 48.007, 172.849 49.086, 171.306 50.413 M 78.342 82.205 C 74.045 86.920, 73.682 88.808, 73.589 106.942 L 73.500 124.414 70 125.218 C 68.075 125.660, 63.231 126.685, 59.237 127.496 C 47.905 129.798, 44.956 132.637, 48.557 137.777 C 49.836 139.604, 51.068 140, 55.476 140 C 58.425 140, 63.635 139.284, 67.053 138.408 C 71.564 137.252, 73.459 137.124, 73.963 137.940 C 74.345 138.559, 75.228 149.889, 75.924 163.119 C 76.620 176.349, 77.584 188.548, 78.066 190.229 C 78.548 191.910, 78.731 193.626, 78.473 194.044 C 77.028 196.382, 66.143 202.303, 59.340 204.452 C 53.160 206.405, 51.123 207.537, 49.869 209.720 C 47.801 213.319, 46.843 217.428, 47.608 219.421 C 48.356 221.370, 52.785 221.488, 54.921 219.617 C 55.790 218.856, 59.200 217.481, 62.500 216.561 C 72.461 213.785, 78.585 210.415, 89 201.978 C 91.475 199.974, 98.900 194.032, 105.500 188.776 C 117.663 179.089, 126.255 170.841, 127.284 167.865 C 128.099 165.507, 125.279 162, 122.570 162 C 121.257 162, 118.356 163.743, 115.876 166.021 C 113.469 168.233, 108.877 171.945, 105.671 174.271 C 102.466 176.597, 97.066 180.584, 93.671 183.132 L 87.500 187.764 86.741 169.132 C 86.323 158.884, 86.098 146.948, 86.241 142.606 L 86.500 134.711 94.101 132.520 C 105.677 129.184, 111.590 123.840, 109.020 119.038 C 107.626 116.432, 106.611 116.473, 97.595 119.500 C 85.402 123.593, 86.347 124.802, 85.678 104.250 C 85.360 94.487, 85.190 85.150, 85.300 83.500 C 85.469 80.970, 85.103 80.454, 82.967 80.205 C 81.329 80.013, 79.695 80.720, 78.342 82.205 M 191.217 86.070 C 180.244 87.495, 181 86.461, 181 100.051 L 181 111.968 184.540 110.280 C 187.396 108.918, 188.652 108.807, 191.040 109.709 C 193.151 110.506, 194 110.515, 194 109.740 C 194 109.142, 196.066 104.379, 198.590 99.154 C 205.732 84.375, 205.619 84.977, 201.225 85.127 C 199.176 85.197, 194.673 85.621, 191.217 86.070 M 163.112 91.081 C 160.698 91.555, 158.564 92.103, 158.368 92.299 C 158.172 92.495, 158.445 95.995, 158.975 100.078 C 159.505 104.160, 159.952 110.136, 159.969 113.357 C 159.993 117.950, 160.301 119.098, 161.396 118.678 C 162.164 118.384, 164.639 117.589, 166.896 116.913 L 171 115.683 170.991 108.092 C 170.979 97.734, 169.953 89.977, 168.611 90.110 C 168 90.170, 165.525 90.607, 163.112 91.081 M 164.250 130.092 L 158 132.073 157.940 137.286 C 157.908 140.154, 157.528 144.645, 157.096 147.266 L 156.312 152.032 159.906 151.421 C 161.883 151.086, 165.188 150.386, 167.250 149.867 L 171 148.923 171 138.461 C 171 132.708, 170.887 128.025, 170.750 128.056 C 170.613 128.087, 167.688 129.003, 164.250 130.092 M 146 136.768 C 146 138.290, 144.849 141.229, 143.443 143.299 C 142.036 145.369, 140.302 149.003, 139.588 151.375 L 138.290 155.688 141.395 155.057 C 144.071 154.512, 144.653 153.809, 145.607 149.963 C 147.495 142.354, 148.262 134, 147.072 134 C 146.482 134, 146 135.246, 146 136.768" stroke="none" fill="black" fill-rule="evenodd"/>
</svg>