<svg xmlns="http://www.w3.org/2000/svg" width="300" height="300" viewBox="0 0 300 300" version="1.1">
	<path d="M 194.500 21.228 C 191.750 21.757, 170.375 22.291, 147 22.417 C 123.625 22.542, 103.375 22.980, 102 23.391 C 94.181 25.725, 89.901 30.145, 92.317 33.389 C 93.888 35.499, 102.337 37, 112.636 37 C 120.164 37, 122.693 37.836, 120.070 39.457 C 118.566 40.386, 117.579 50.979, 118.875 52.275 C 120.442 53.842, 120.301 57.322, 118.330 65.750 C 117.121 70.920, 116.185 73.006, 115.067 73.023 C 109.313 73.105, 79.981 75.894, 79.093 76.442 C 78.421 76.858, 78 76.215, 78 74.775 C 78 73.247, 76.986 71.833, 75.090 70.712 C 71.972 68.870, 69.740 69.247, 66.623 72.142 C 64.845 73.794, 64.776 75.416, 65.302 103.192 C 65.608 119.312, 66.328 135.875, 66.903 140 C 68.593 152.138, 71.139 161.772, 73.257 164.046 C 74.661 165.552, 74.923 166.477, 74.163 167.237 C 72.517 168.883, 74.635 171.949, 78.548 173.585 C 84.501 176.072, 109.917 175.476, 127.592 172.435 C 147.180 169.065, 185.612 161.358, 186.949 160.532 C 188.546 159.545, 188.205 155.062, 186.395 153.252 C 182.880 149.738, 171.234 150.618, 127.500 157.703 C 118.336 159.188, 105.441 160.499, 97.319 160.772 L 83.137 161.248 82.560 157.874 C 81.025 148.899, 78.887 123.699, 78.329 107.997 L 77.707 90.495 80.103 89.324 C 81.422 88.680, 87.415 87.874, 93.422 87.534 C 99.429 87.193, 106.226 86.657, 108.527 86.341 L 112.711 85.768 111.292 92.134 C 108.307 105.515, 105.962 111.778, 103.365 113.300 C 101.419 114.440, 101.527 124.363, 103.503 126.003 C 105.602 127.744, 109.726 127.558, 111.862 125.624 C 112.850 124.730, 114.616 121.862, 115.785 119.249 C 118.210 113.835, 124.547 93.931, 125.552 88.574 C 126.157 85.348, 126.538 85, 129.465 85 C 131.248 85, 135.497 84.708, 138.907 84.352 L 145.108 83.704 144.490 88.602 C 142.827 101.793, 150.871 121.038, 160 125.709 C 162.598 127.038, 165.820 127.500, 172.500 127.500 C 180.837 127.500, 182.078 127.224, 189.354 123.750 C 193.673 121.688, 198.479 120, 200.032 120 C 203.784 120, 206 117.602, 206 113.544 C 206 111.077, 205.334 109.794, 203.394 108.523 C 200.122 106.379, 195.730 106.771, 182.709 110.369 C 169.820 113.931, 165.871 113.250, 161.711 106.747 C 159.647 103.521, 157.824 90.856, 158.672 85.633 L 159.262 82 173.381 82.031 C 181.146 82.048, 192.900 82.714, 199.500 83.510 C 206.100 84.307, 213.668 84.968, 216.319 84.979 L 221.137 85 220.512 93.250 C 218.668 117.548, 214.950 139.225, 210.862 149.509 C 208.865 154.530, 208.076 155.513, 205.990 155.579 C 201.455 155.723, 200.959 155.979, 199.920 158.711 C 198.432 162.623, 199.572 165.727, 203.180 167.593 C 207.096 169.618, 215.186 169.046, 217.945 166.550 C 221.613 163.231, 227.014 149.594, 231.629 132 C 234.181 122.272, 234.413 119.748, 234.785 97.664 C 235.184 74.002, 235.170 73.810, 232.919 71.414 C 230.489 68.827, 224.492 68.023, 223.771 70.187 C 223.294 71.618, 217.810 71.457, 198.643 69.451 C 191.022 68.653, 179.404 68, 172.826 68 C 160.876 68, 160.866 67.998, 161.584 65.750 C 163.661 59.253, 167.965 43.703, 168.551 40.581 L 169.223 37 176.039 37 C 189.306 37, 209.235 33.360, 214.930 29.897 C 218.337 27.825, 218.783 25.563, 216.443 22.223 C 215.048 20.230, 214.091 20.014, 207.193 20.134 C 202.962 20.207, 197.250 20.700, 194.500 21.228 M 128.595 39.110 C 130.300 40.999, 130.489 42.790, 130.399 56.207 L 130.299 71.193 135.899 70.544 C 148.478 69.085, 147.436 69.834, 150.333 60.163 C 151.761 55.398, 153.568 49.025, 154.350 46 C 155.132 42.975, 156.096 39.712, 156.493 38.750 C 157.161 37.128, 156.095 37, 141.952 37 L 126.690 37 128.595 39.110 M 132 173.642 C 131.175 173.867, 129.375 175.694, 128 177.700 C 125.665 181.109, 125.467 182.375, 125 196.925 L 124.500 212.500 114.500 212.457 C 109 212.434, 100.563 212.030, 95.751 211.560 C 87.052 210.710, 86.988 210.720, 84.501 213.404 C 80.414 217.815, 81.619 223, 86.732 223 C 88.015 223, 90.669 223.671, 92.631 224.490 C 94.593 225.310, 102.566 226.490, 110.349 227.113 C 118.132 227.736, 124.701 228.429, 124.947 228.653 C 125.460 229.121, 123.511 247.847, 121.780 259.080 L 120.612 266.661 97.556 267.897 C 84.875 268.577, 69.100 269.124, 62.500 269.114 C 48.057 269.091, 43.357 270.122, 41.742 273.668 C 38.682 280.382, 51.071 282.661, 82.086 281.090 C 93.915 280.490, 109.647 279.998, 117.046 279.995 C 131.436 279.991, 153.767 278.697, 220.500 274.004 C 243.600 272.379, 266.550 270.769, 271.500 270.427 C 286.154 269.414, 293.358 264.774, 290.004 258.508 C 288.361 255.438, 285.668 254.513, 282.176 255.821 C 280.704 256.372, 264.425 257.562, 246 258.465 C 213.466 260.060, 144.664 264.511, 136.418 265.555 L 132.336 266.072 134.129 259.012 C 135.115 255.129, 136.472 246.406, 137.144 239.627 L 138.367 227.301 149.942 226.168 C 163.643 224.828, 170.789 222.890, 174.953 219.386 C 178.580 216.334, 179.015 212.015, 176 209 C 173.503 206.503, 172.597 206.502, 169.210 208.991 C 166.557 210.939, 153.669 212.939, 143.480 212.983 L 139.460 213 140.601 196.826 C 141.294 187.013, 141.394 179.389, 140.856 177.439 C 139.808 173.646, 136.763 172.340, 132 173.642" stroke="none" fill="black" fill-rule="evenodd"/>
</svg>