<svg xmlns="http://www.w3.org/2000/svg" width="300" height="300" viewBox="0 0 300 300" version="1.1">
	<path d="M 200.799 60.104 C 200.549 60.853, 193.663 61.286, 179.409 61.448 C 155.773 61.717, 157.020 61.360, 150.025 69.853 C 146.759 73.818, 144.858 80.181, 145.191 86.030 C 145.471 90.960, 145.759 91.552, 148.303 92.442 C 152.090 93.768, 154.352 92.194, 155.079 87.727 C 155.839 83.053, 158.480 79.148, 161.709 77.920 C 163.229 77.342, 168.309 77.195, 173.907 77.567 C 180.657 78.015, 186.751 77.714, 194.470 76.551 C 200.503 75.642, 207.133 75.185, 209.203 75.534 C 216.872 76.830, 219.870 84.218, 218.531 98.515 L 217.830 105.998 211.102 105.373 C 204.252 104.736, 176.446 107.459, 174.500 108.957 C 173.950 109.381, 171.503 110.032, 169.061 110.405 C 164.159 111.155, 153.057 116.639, 152.900 118.389 C 152.712 120.492, 151.199 114.495, 151.100 111.250 C 151.045 109.463, 150.644 108, 150.208 108 C 149.773 108, 148.723 106.537, 147.876 104.750 C 144.284 97.173, 139.376 88.473, 137.750 86.800 C 134.583 83.542, 130.832 84.681, 129.019 89.451 C 127.612 93.151, 129.138 100.831, 132.402 106.477 C 133.680 108.690, 135.523 112.975, 136.496 116 C 137.469 119.025, 138.603 121.950, 139.016 122.500 C 139.805 123.552, 142.237 134.143, 141.771 134.498 C 141.622 134.612, 140.758 135.109, 139.852 135.603 C 138.946 136.096, 134.446 139.955, 129.852 144.178 C 119.308 153.872, 107.891 163.703, 97 172.467 C 92.325 176.229, 88.350 179.688, 88.167 180.154 C 87.983 180.619, 87.402 181, 86.875 181 C 86.348 181, 84.955 181.895, 83.781 182.989 C 82.606 184.084, 81.537 184.871, 81.405 184.739 C 81.273 184.607, 81.653 182.249, 82.249 179.499 C 82.857 176.696, 83.359 163.407, 83.391 149.250 L 83.449 124 92.204 124 C 102.351 124, 108.150 122.161, 109.864 118.399 C 111.590 114.610, 111.257 112.954, 108.250 110.368 C 104.987 107.561, 105.150 107.579, 101.153 109.573 C 98.605 110.845, 96.512 110.989, 90.250 110.323 L 82.500 109.500 81.977 93.500 C 81.542 80.210, 81.133 76.964, 79.561 74.335 C 76.587 69.359, 70.506 69.053, 67.445 73.725 C 66.064 75.832, 65.817 78.977, 65.924 93.120 L 66.051 110 63.592 110 C 62.240 110, 54.992 111.134, 47.487 112.520 C 34.500 114.919, 26 117.886, 26 120.020 C 26 120.559, 25.433 121, 24.741 121 C 21.060 121, 20.436 128.390, 23.789 132.250 C 25.897 134.676, 35.577 134.692, 38.248 132.275 C 39.981 130.707, 59.320 126.129, 64.600 126.037 C 66.537 126.003, 66.751 126.711, 67.350 135.154 C 69.153 160.547, 67.423 196.192, 64.160 200.890 C 63.247 202.205, 62.050 203.930, 61.500 204.724 C 59.088 208.204, 52.255 215, 51.167 215 C 49.808 215, 46.203 216.928, 44.289 218.679 C 42.660 220.168, 42.624 226.044, 44.220 229.703 C 45.548 232.745, 49.531 237, 51.052 237 C 52.252 237, 56 233.295, 56 232.108 C 56 231.618, 57.103 230.940, 58.450 230.602 C 59.798 230.264, 62.835 227.631, 65.200 224.751 C 71.236 217.401, 89.897 198.801, 100 190.066 C 104.675 186.024, 110.893 180.643, 113.817 178.108 C 122.053 170.971, 142.580 150.720, 143.715 148.614 C 144.572 147.025, 144.838 147.436, 145.407 151.229 C 146.295 157.148, 147.730 158.920, 152.230 159.650 C 155.644 160.204, 156.045 160.015, 157.067 157.377 C 157.893 155.242, 157.869 152.185, 156.971 145.521 C 156.306 140.583, 155.573 136.051, 155.342 135.449 C 155.111 134.848, 156.065 133.836, 157.461 133.200 C 158.858 132.563, 160 131.374, 160 130.557 C 160 129.739, 160.841 128.620, 161.869 128.070 C 164.816 126.493, 189.358 122.949, 201.908 122.288 L 213.315 121.687 212.633 124.094 C 212.259 125.417, 211.667 127.850, 211.319 129.500 C 210.970 131.150, 210.382 132.725, 210.012 133 C 209.641 133.275, 207.766 136.425, 205.844 140 C 201.015 148.984, 199.678 150.995, 198.509 151.032 C 196.926 151.081, 192.291 155.507, 191.627 157.604 C 191.296 158.647, 191.649 160.700, 192.411 162.167 C 194.025 165.276, 194.432 165.094, 181.500 167.055 C 177.100 167.723, 173.073 168.658, 172.550 169.134 C 170.890 170.647, 154.728 170.109, 152.559 168.468 C 150.208 166.690, 146.833 166.567, 145.200 168.200 C 141.656 171.744, 146.009 179.354, 153.054 181.926 C 158.851 184.043, 177.290 184.395, 188.239 182.598 C 193.596 181.719, 199.558 181, 201.489 181 C 203.420 181, 205 180.640, 205 180.200 C 205 179.760, 210.063 178.532, 216.250 177.470 C 224.977 175.972, 228.018 175.027, 229.812 173.253 C 232.578 170.518, 232.088 167.634, 228.268 164.168 C 225.825 161.951, 225.236 161.871, 216.349 162.537 C 211.161 162.926, 207 162.850, 207 162.366 C 207 161.886, 208.309 160.258, 209.909 158.748 C 216.681 152.356, 227.332 133.153, 231.918 119.065 C 241.038 91.052, 232.720 61, 215.846 61 C 214.281 61, 213 60.550, 213 60 C 213 58.615, 201.262 58.715, 200.799 60.104 M 144 211.623 C 130.189 213.285, 113.370 216.274, 111.032 217.484 C 107.659 219.228, 106.220 223.648, 108.335 225.764 C 109.538 226.966, 116.466 227.297, 148.644 227.689 C 212.042 228.460, 231.493 228.518, 251 227.996 C 261.175 227.723, 272.971 227.874, 277.214 228.332 C 284.662 229.135, 285.014 229.077, 287.464 226.627 C 292.855 221.236, 289.020 216.123, 277.532 213.386 C 271.736 212.005, 266.457 211.773, 247.500 212.068 C 219.349 212.506, 197.206 212.409, 169 211.724 C 157.175 211.437, 145.925 211.392, 144 211.623" stroke="none" fill="black" fill-rule="evenodd"/>
</svg>