<svg xmlns="http://www.w3.org/2000/svg" width="300" height="300" viewBox="0 0 300 300" version="1.1">
	<path d="M 131.723 40.200 L 129 44.400 129.047 63.950 C 129.075 76.081, 129.787 89.570, 130.921 99.494 C 132.721 115.241, 132.720 115.508, 130.818 116.840 C 129.457 117.793, 128.978 119.123, 129.194 121.346 L 129.500 124.500 136.500 124.801 C 144.134 125.129, 146.034 126.049, 144.041 128.451 C 143.340 129.295, 141.478 132.577, 139.903 135.743 C 138.328 138.909, 136.618 142.175, 136.103 143 C 135.588 143.825, 132.370 149.225, 128.952 155 C 120.336 169.559, 109.397 185.817, 105.373 190.042 C 99.479 196.231, 101.802 202.010, 109.596 200.548 C 112.204 200.059, 114.384 198.257, 119.086 192.706 C 122.444 188.743, 126.176 184.375, 127.381 183 C 128.586 181.625, 131.309 177.575, 133.434 174 L 137.296 167.500 142.184 167.849 C 146.152 168.132, 146.987 168.509, 146.622 169.849 C 146.374 170.757, 144.812 176.450, 143.150 182.500 C 135.432 210.604, 133.398 224.572, 136.519 228.021 C 138.766 230.504, 143.596 230.623, 144.879 228.226 C 145.401 227.251, 146.372 223.538, 147.037 219.976 C 148.588 211.664, 153.396 193.925, 157.104 182.840 C 158.697 178.077, 160 172.360, 160 170.135 C 160 166.239, 160.137 166.068, 163.750 165.468 C 165.813 165.126, 168.805 164.430, 170.399 163.923 C 174.700 162.554, 175 162.706, 175 166.252 C 175 170.631, 167.510 206.936, 165.003 214.709 C 163.901 218.124, 163 221.464, 163 222.131 C 163 225.344, 153.740 246.438, 149.820 252.154 C 147.521 255.507, 147.523 257.258, 149.829 259.345 C 152.558 261.815, 156.277 261.378, 159.160 258.250 C 162.036 255.130, 168.115 245.196, 171.794 237.607 C 179.107 222.521, 189 181.827, 189 166.834 C 189 157.527, 187.527 158.580, 207.500 153.598 L 220.500 150.356 221.190 155.928 C 221.868 161.407, 220.484 217.591, 219.574 221.500 C 219.318 222.600, 218.160 229.800, 217.001 237.500 C 213.355 261.719, 208.252 279.810, 206.354 275.250 C 205.623 273.495, 201.450 273.693, 199.571 275.571 C 198.678 276.465, 198 278.832, 198 281.056 C 198 286.491, 202.358 291.400, 207.182 291.400 C 211.981 291.400, 217.666 287.574, 220.183 282.649 C 223.046 277.047, 226.784 265.061, 227.995 257.605 C 234.595 216.941, 235 212.418, 235 179.320 C 235 145.487, 234.647 143.353, 228.346 139.035 C 223.950 136.023, 220.106 136.191, 205.500 140.032 C 198.900 141.768, 189.450 144.249, 184.500 145.544 C 179.550 146.839, 173.925 148.403, 172 149.018 C 170.075 149.633, 163.775 151.391, 158 152.923 C 152.225 154.456, 146.648 156.073, 145.607 156.517 C 143.659 157.347, 144.158 156.291, 154.728 137.215 C 157.333 132.515, 158.109 130.058, 157.806 127.465 C 157.584 125.559, 157.649 123.996, 157.951 123.990 C 158.253 123.985, 165.025 122.864, 173 121.500 C 180.975 120.136, 187.613 119.015, 187.750 119.010 C 187.887 119.004, 188 119.963, 188 121.140 C 188 122.317, 188.787 123.877, 189.750 124.608 C 194.490 128.206, 198.971 124.556, 201.783 114.805 C 205.458 102.063, 206.163 93.794, 205.823 67.420 L 205.500 42.341 202.027 39.170 C 198.659 36.095, 198.283 36.001, 189.527 36.024 C 184.562 36.037, 178.700 36.489, 176.500 37.028 C 174.300 37.567, 166.676 38.911, 159.558 40.015 C 152.439 41.119, 145.577 42.703, 144.308 43.534 C 142.076 44.996, 142 44.948, 142 42.080 C 142 39.009, 139.030 36, 136.001 36 C 135.146 36, 133.221 37.890, 131.723 40.200 M 180 50.086 C 176.425 50.539, 167.321 51.956, 159.770 53.234 C 152.070 54.538, 145.152 55.230, 144.020 54.812 C 142.067 54.089, 142 54.447, 142 65.532 C 142 71.840, 142.249 77, 142.553 77 C 142.857 77, 146.119 76.346, 149.803 75.546 C 156.439 74.105, 173.393 71.600, 184.009 70.492 C 187.038 70.175, 190.012 69.598, 190.616 69.208 C 191.221 68.819, 192.032 64.112, 192.418 58.750 L 193.121 49 189.810 49.131 C 187.990 49.204, 183.575 49.633, 180 50.086 M 61.312 84.250 C 58.599 87.248, 57.024 94.175, 56.891 103.693 C 56.832 107.987, 56.494 114.144, 56.141 117.376 L 55.500 123.252 46 126.246 C 30.005 131.288, 31 130.679, 31 135.421 C 31 137.720, 31.540 140.140, 32.200 140.800 C 34.109 142.709, 39.873 142.206, 48.310 139.397 C 52.609 137.965, 56.327 136.994, 56.572 137.239 C 57.120 137.786, 58.828 154.395, 59.993 170.500 C 60.470 177.100, 61.159 183.473, 61.524 184.663 C 62.081 186.478, 60.990 187.779, 54.763 192.727 C 50.679 195.973, 45.574 199.902, 43.419 201.460 C 34.178 208.138, 28.292 218.939, 31.066 224.124 C 32.468 226.743, 36.484 226.471, 38.740 223.604 C 39.777 222.286, 45.121 217.587, 50.616 213.163 C 64.057 202.341, 81.198 185.908, 92.057 173.435 C 102.966 160.903, 104.824 156.966, 101.429 153.571 C 98.511 150.654, 95.424 151.658, 91.651 156.750 C 89.716 159.363, 84.574 165.018, 80.225 169.318 L 72.318 177.137 71.659 161.909 C 71.297 153.534, 71 143.410, 71 139.412 L 71 132.142 76.275 131.047 C 82.770 129.698, 87.668 126.823, 89.200 123.460 C 90.192 121.283, 90.054 120.610, 88.244 118.799 C 86.278 116.834, 85.679 116.759, 79.814 117.752 C 76.341 118.340, 72.713 119.134, 71.750 119.517 C 70.167 120.148, 70.002 119.418, 70.017 111.857 C 70.027 107.261, 70.480 99.275, 71.024 94.110 C 71.741 87.298, 71.703 84.347, 70.884 83.360 C 69.079 81.186, 63.627 81.693, 61.312 84.250 M 187 83.167 C 184.658 84.142, 166.891 87.494, 150.112 90.125 L 142.723 91.284 143.287 100.734 C 143.597 105.932, 144.007 110.341, 144.199 110.532 C 144.927 111.260, 189.752 107.581, 190.611 106.723 C 190.925 106.409, 191.432 100.718, 191.738 94.076 C 192.340 81.018, 192.313 80.956, 187 83.167" stroke="none" fill="black" fill-rule="evenodd"/>
</svg>