<svg xmlns="http://www.w3.org/2000/svg" width="300" height="300" viewBox="0 0 300 300" version="1.1">
	<path d="M 133.837 42.673 C 132.923 42.915, 131.398 44.749, 130.449 46.748 C 128.892 50.029, 128.762 53.836, 129.112 85.829 L 129.500 121.275 125 122.620 C 122.525 123.359, 118.250 124.415, 115.500 124.965 C 112.750 125.515, 106.675 126.997, 102 128.259 C 94.926 130.168, 93.448 130.916, 93.189 132.713 C 92.328 138.687, 108.711 140.511, 123.980 136.141 C 133.293 133.475, 133.153 133.468, 131.975 136.565 C 131.427 138.007, 130.999 151.254, 130.997 166.815 C 130.996 182.042, 130.702 203.535, 130.344 214.579 C 129.725 233.691, 129.593 234.702, 127.597 235.579 C 124.694 236.854, 124.373 241.123, 127.002 243.502 C 129.736 245.976, 135.281 245.960, 138.033 243.470 C 142.790 239.165, 143.271 236.169, 143.766 207.710 L 144.233 180.920 152.366 189.300 C 157.527 194.617, 162.425 198.620, 165.768 200.251 C 168.665 201.665, 171.852 203.831, 172.851 205.065 C 175.073 207.808, 183.348 208.791, 189.736 207.071 C 196.107 205.356, 204.749 196.756, 211.676 185.239 C 214.879 179.913, 217.725 175.015, 218 174.353 C 218.277 173.686, 223.844 179.102, 230.500 186.513 C 250.812 209.130, 277.311 231, 284.403 231 C 287.836 231, 292 227.642, 292 224.874 C 292 222.937, 288.331 219, 286.526 219 C 282.532 219, 250.239 188.764, 233.256 169.124 L 225.149 159.747 227.209 155.124 C 228.343 152.581, 229.829 149.375, 230.512 148 C 231.697 145.615, 235.751 135.296, 241.905 119 C 243.463 114.875, 245.939 108.411, 247.408 104.635 C 250.648 96.304, 251.095 87.867, 248.449 84.944 C 245.786 82.001, 239.744 82.497, 228.425 86.586 C 216.389 90.934, 205.995 94.443, 200.139 96.134 C 190.917 98.797, 192.678 109, 202.359 109 C 204.541 109, 215.217 105.535, 227.269 100.915 C 233.430 98.553, 234.694 98.710, 233.201 101.653 C 232.313 103.401, 231.015 106.930, 226.998 118.511 C 226.042 121.267, 224.302 125.310, 223.130 127.496 C 221.959 129.682, 221.001 131.927, 221.003 132.485 C 221.008 134.144, 215.759 146, 215.020 146 C 214.645 146, 212.965 144.088, 211.285 141.750 C 209.606 139.412, 205.555 134.575, 202.284 131 C 199.012 127.425, 194.996 122.980, 193.359 121.122 C 191.036 118.486, 189.901 117.897, 188.193 118.439 C 184.827 119.507, 184.576 122.997, 187.373 129.879 C 189.729 135.678, 198.088 147.730, 205.664 156.253 C 209.201 160.232, 209.516 161.035, 208.133 162.550 C 207.656 163.072, 205.538 166.875, 203.427 171 C 197.783 182.025, 195.194 185.910, 189.598 191.750 C 185.889 195.622, 183.837 197, 181.784 197 C 180.139 197, 179 196.458, 179 195.674 C 179 194.263, 174.917 190, 173.566 190 C 173.123 190, 168.831 186.260, 164.027 181.688 C 157.961 175.916, 153.542 172.631, 149.565 170.938 L 143.839 168.500 144.378 163 C 144.674 159.975, 144.457 153, 143.895 147.500 C 143.333 142, 143.138 136.086, 143.462 134.357 C 144.107 130.911, 143.732 131.032, 171.500 125.344 C 180.393 123.522, 180.504 123.463, 180.804 120.375 C 181.365 114.613, 179.153 113.645, 167.047 114.355 C 161.246 114.695, 153.350 115.798, 149.500 116.807 L 142.500 118.640 142.221 104.647 C 142.032 95.141, 142.301 90.432, 143.060 89.963 C 143.674 89.583, 146.950 89.004, 150.338 88.675 C 153.727 88.346, 160.325 86.956, 165 85.585 C 176.239 82.288, 179.505 78.505, 175 74 C 172.379 71.379, 168.296 71.454, 154.250 74.385 L 143 76.733 143 62.443 C 143 48.529, 142.932 48.073, 140.411 45.077 C 137.866 42.052, 137.157 41.793, 133.837 42.673 M 55.581 85.507 C 52.115 89.246, 50.672 98.326, 51.508 111.125 C 52.325 123.622, 53.496 122.465, 38.500 123.980 C 29.687 124.870, 28.233 125.294, 26.250 127.551 C 23.433 130.757, 23.394 133.394, 26.124 136.124 C 28.023 138.023, 29 138.185, 35.374 137.660 C 39.293 137.337, 44.638 136.773, 47.250 136.406 L 52 135.740 51.974 149.120 C 51.960 156.479, 51.513 166.981, 50.980 172.458 C 49.905 183.518, 49.039 184.857, 40.500 188.653 C 29.734 193.440, 22.001 201.882, 23.373 207.349 C 24.195 210.623, 28.313 210.990, 31.436 208.068 C 32.571 207.005, 37.100 204.612, 41.500 202.750 C 52.356 198.156, 66.329 188.733, 85.619 172.997 C 93.585 166.498, 95.779 162.558, 93.357 159.099 C 90.578 155.132, 86.810 156.336, 78.436 163.868 C 74.236 167.645, 68.979 171.708, 66.754 172.895 L 62.709 175.054 63.326 166.277 C 63.665 161.450, 64.244 151.980, 64.614 145.233 C 65.280 133.067, 65.307 132.961, 67.893 132.341 C 75.288 130.568, 82 125.469, 82 121.622 C 82 117.374, 79.617 116.440, 73.610 118.334 C 64.449 121.221, 65 122.128, 65 104.156 C 65 89.101, 64.886 88.179, 62.718 85.656 C 59.881 82.353, 58.530 82.325, 55.581 85.507 M 111.251 175.688 C 110.083 176.685, 108.454 179.750, 107.632 182.500 C 105.108 190.934, 102.312 197.753, 100.105 200.852 C 98.947 202.478, 97.997 204.414, 97.993 205.154 C 97.990 205.894, 97.093 207.850, 96 209.500 C 93.527 213.234, 93.484 215.223, 95.829 217.345 C 98.641 219.890, 102.540 219.420, 104.917 216.250 C 106.050 214.738, 107.546 212.841, 108.239 212.035 C 110.582 209.312, 114.883 202.123, 117.655 196.295 C 120.996 189.273, 122.086 178.943, 119.735 176.592 C 117.216 174.073, 113.595 173.688, 111.251 175.688" stroke="none" fill="black" fill-rule="evenodd"/>
</svg>