<svg xmlns="http://www.w3.org/2000/svg" width="300" height="300" viewBox="0 0 300 300" version="1.1">
	<path d="M 175.302 10.501 C 170.628 13.775, 171.759 22.615, 178.587 36.172 C 182.462 43.868, 185.505 45.663, 189.123 42.388 C 191.391 40.336, 191.364 39.347, 188.663 25.205 C 186.652 14.683, 183.628 9, 180.038 9 C 178.612 9, 176.481 9.676, 175.302 10.501 M 190.500 46.068 C 163.368 49.818, 153.854 50.948, 132.222 52.989 C 123.006 53.858, 121.688 54.234, 119.472 56.625 C 116.590 59.734, 116.453 60.774, 118.529 63.739 C 120.809 66.994, 126.161 68.093, 134.425 67.003 C 138.316 66.490, 151.175 65.140, 163 64.003 C 189.671 61.439, 194.871 60.640, 213 56.324 C 228.674 52.592, 231.547 51.026, 230.483 46.788 C 229.740 43.829, 226.238 41.959, 221.703 42.099 C 219.941 42.154, 205.900 43.940, 190.500 46.068 M 76 60.500 C 75.315 61.325, 74.248 62.002, 73.628 62.004 C 70.539 62.014, 67.005 78.298, 66.991 92.582 C 66.987 97.487, 66.701 103.843, 66.357 106.707 L 65.732 111.914 60.116 113.040 C 44.228 116.228, 37.646 118.278, 35.349 120.758 C 32.487 123.846, 32.429 125.005, 34.977 128.244 C 37.650 131.642, 41.127 132.107, 48.393 130.039 C 51.752 129.082, 57.252 127.992, 60.617 127.615 L 66.733 126.931 67.339 131.715 C 67.672 134.347, 68.200 141.900, 68.512 148.500 C 69.404 167.382, 69.935 170.935, 72.200 173.200 C 73.828 174.828, 73.966 175.403, 72.887 176.070 C 71.151 177.143, 66.950 180.485, 61.126 185.425 C 58.582 187.583, 52.900 191.685, 48.500 194.539 C 39.444 200.414, 38.129 201.719, 34.997 207.944 L 32.761 212.388 34.918 214.135 C 36.859 215.706, 37.531 215.744, 41.617 214.515 C 44.115 213.763, 49.835 210.764, 54.329 207.851 C 61.643 203.109, 67.113 198.814, 86 182.980 C 89.025 180.444, 94.200 176.422, 97.500 174.042 C 106.061 167.866, 109.005 164.920, 108.968 162.563 C 108.921 159.531, 106.679 157.080, 103.392 156.469 C 101.056 156.034, 99.539 156.716, 95.500 160.017 C 88.992 165.336, 81.951 170.285, 81.515 169.846 C 81.326 169.656, 80.846 159.138, 80.449 146.474 L 79.727 123.448 84.646 122.187 C 99.648 118.342, 108.030 109.957, 102.171 104.655 C 99.941 102.637, 97.190 102.532, 95.079 104.386 C 94.210 105.148, 90.575 106.429, 87 107.231 L 80.500 108.690 80.790 88.298 C 81.028 71.530, 81.339 67.807, 82.540 67.346 C 84.579 66.564, 84.363 62.638, 82.171 60.655 C 79.898 58.598, 77.626 58.541, 76 60.500 M 184.500 80.632 C 166.154 82.590, 152.990 84.654, 150.679 85.936 C 146.358 88.331, 144.342 92.261, 145.797 95.453 C 147.716 99.665, 150.965 100.251, 162.377 98.445 C 167.945 97.564, 179.363 96.594, 187.750 96.288 C 200.815 95.812, 203 95.945, 203 97.216 C 203 99.670, 197.642 106.295, 190.990 112.066 C 187.545 115.054, 183.414 118.727, 181.810 120.226 C 178.492 123.328, 174.503 124.559, 164.500 125.569 C 160.650 125.958, 155.704 126.907, 153.510 127.679 C 150.602 128.701, 149.856 128.744, 150.760 127.840 C 152.619 125.981, 152.258 122.268, 149.908 119.089 C 148.044 116.568, 146.100 108.280, 143.523 91.862 C 142.820 87.388, 138.736 82.995, 135.954 83.722 C 132.163 84.714, 129.001 89.753, 128.987 94.827 C 128.976 98.912, 132.180 111.935, 135.252 120.293 C 137.096 125.311, 141.396 129, 145.401 129 C 149.029 129, 150.279 130.572, 147.500 131.638 C 145.325 132.473, 145.659 137.382, 148.037 139.534 C 153.124 144.137, 176.514 140.860, 191.234 133.482 C 199.872 129.152, 203.173 126.208, 202.849 123.120 C 202.628 121.021, 203.600 119.488, 207.326 116.053 C 212.610 111.183, 219 99.272, 219 94.293 C 219 90.235, 215.231 84.857, 210.987 82.858 C 207.608 81.268, 191.350 79.901, 184.500 80.632 M 178 146.141 C 163.957 150.664, 157.086 152.113, 147 152.680 C 141.225 153.005, 135.938 153.714, 135.250 154.258 C 133.031 156.011, 133.770 161.436, 136.588 164.076 C 139.031 166.365, 139.797 166.491, 150.338 166.347 C 156.477 166.263, 164.565 165.475, 168.312 164.597 C 172.059 163.719, 175.310 163, 175.536 163 C 175.763 163, 174.272 165.470, 172.224 168.488 C 170.176 171.506, 167.970 173.981, 167.321 173.988 C 165.181 174.010, 163 177.095, 163 180.102 C 163 181.730, 164.801 186.239, 167.001 190.122 C 169.202 194.006, 171.617 199.842, 172.367 203.092 L 173.732 209 170.116 209.009 C 168.127 209.013, 157.992 210.373, 147.593 212.029 C 121.964 216.112, 98.755 218.999, 91.500 219.005 C 84.310 219.012, 78.027 220.606, 76.314 222.857 C 74.265 225.549, 74.820 228.711, 77.750 231.049 C 80.357 233.129, 81.122 233.208, 92.500 232.572 C 113.446 231.403, 122.875 230.391, 148.734 226.536 C 162.613 224.467, 174.650 223.035, 175.484 223.355 C 177.882 224.276, 177.683 255.126, 175.248 260 C 171.503 267.497, 161.707 268.776, 150.418 263.242 L 144.825 260.500 142.912 262.861 C 140.111 266.319, 140.510 267.874, 145.406 272.564 C 152.999 279.840, 164.479 282.702, 174.384 279.790 C 179.715 278.222, 188.155 269.778, 189.746 264.419 C 191.493 258.534, 192.190 243.818, 191.286 231.911 L 190.481 221.321 206.491 219.642 C 234.059 216.750, 252.966 215.725, 268.540 216.279 C 277.347 216.593, 284.288 216.418, 285.290 215.858 C 287.651 214.537, 287.536 208.795, 285.104 206.594 C 284.056 205.646, 280.366 204.490, 276.854 204.009 C 264.542 202.325, 237.675 201.776, 223.500 202.920 C 206.509 204.291, 191.120 205.931, 188.750 206.624 C 187.486 206.993, 187 206.565, 187 205.082 C 187 202.452, 181.293 185.155, 179.523 182.420 C 178.286 180.509, 178.785 179.621, 185.710 171.420 C 197.032 158.013, 199.262 154.469, 198.515 151.069 C 197.045 144.376, 189.274 142.509, 178 146.141" stroke="none" fill="black" fill-rule="evenodd"/>
</svg>