<svg xmlns="http://www.w3.org/2000/svg" width="300" height="300" viewBox="0 0 300 300" version="1.1">
	<path d="M 149.903 13.086 C 147.877 14.845, 147.533 15.981, 147.709 20.336 C 148.018 27.938, 145.335 42.379, 142.413 48.847 C 136.929 60.985, 135.577 63.645, 132.838 67.680 C 131.277 69.979, 130 72.124, 130 72.446 C 130 73.402, 122.687 84.190, 120.212 86.884 C 116.997 90.383, 112 101.220, 112 104.693 C 112 106.292, 112.540 108.140, 113.200 108.800 C 114.527 110.127, 120.822 110.401, 122.690 109.213 C 124.292 108.194, 139.305 87.899, 143.641 80.890 L 147.112 75.279 151.806 76.195 C 157.032 77.215, 167.766 76.506, 178.743 74.416 C 182.727 73.657, 190.955 72.735, 197.028 72.366 C 203.101 71.997, 208.306 71.314, 208.594 70.848 C 208.882 70.381, 212.075 70, 215.690 70 C 223.142 70, 241.482 67.310, 244.500 65.774 C 249.209 63.377, 252 59.697, 252 55.884 C 252 49.334, 248.418 47.664, 240.376 50.466 C 238.108 51.257, 230.233 52.381, 222.876 52.964 C 195.519 55.134, 184.565 56.250, 183.053 57.021 C 182.199 57.457, 176.155 58.342, 169.621 58.988 C 163.088 59.633, 157.125 60.398, 156.371 60.688 C 154.463 61.420, 154.657 59.644, 157.061 54.365 C 161.826 43.907, 164.981 25.503, 163.026 19.579 C 161.747 15.703, 156.840 11, 154.076 11 C 153.103 11, 151.225 11.939, 149.903 13.086 M 59.241 77.250 C 54.284 82.541, 54.013 84.117, 54.006 107.667 L 54 129.833 44.781 131.998 C 39.710 133.188, 30.639 134.422, 24.623 134.739 C 12.718 135.367, 10 136.609, 10 141.418 C 10 145.516, 11.073 146.983, 15.563 149.029 C 22.390 152.139, 33.923 151.637, 51.886 147.450 L 54.272 146.894 53.747 164.697 C 53.458 174.489, 52.655 185.766, 51.963 189.758 C 50.796 196.488, 50.842 197.169, 52.602 199.126 C 53.646 200.286, 55.282 201.528, 56.237 201.885 C 57.487 202.352, 54.544 204.332, 45.737 208.947 C 38.961 212.498, 31.855 217.035, 29.815 219.114 C 23.793 225.249, 22.538 234.344, 27.540 235.599 C 29.240 236.026, 33.539 234.138, 43.679 228.511 C 72.142 212.716, 83.869 204.940, 94.194 195.017 C 100.874 188.596, 101.250 188.002, 100.622 184.862 C 99.628 179.891, 97.567 178.495, 91.794 178.885 C 90.856 178.948, 88.156 181.039, 85.794 183.530 C 82.238 187.282, 64.370 200, 62.656 200 C 62.379 200, 62.803 198.698, 63.597 197.106 C 66.037 192.215, 68.961 177.055, 69.652 165.713 C 70.014 159.781, 70.690 154.692, 71.155 154.404 C 71.620 154.117, 72 151.270, 72 148.077 L 72 142.272 76.360 141.674 C 83.321 140.720, 91.720 137.130, 95.640 133.432 C 98.897 130.361, 99.203 129.637, 98.658 126.281 C 98.302 124.087, 97.114 121.839, 95.776 120.827 C 93.608 119.187, 93.336 119.202, 90.045 121.140 C 88.145 122.259, 83.307 123.745, 79.295 124.443 L 72 125.712 72 106.915 C 72 95.462, 71.609 87.877, 71 87.500 C 70.450 87.160, 69.998 85.671, 69.996 84.191 C 69.994 82.711, 69.101 80.037, 68.011 78.250 C 65.632 74.349, 62.313 73.970, 59.241 77.250 M 211.559 112.131 C 203.892 112.592, 188.592 113.920, 177.559 115.080 C 166.527 116.241, 154.800 117.395, 151.500 117.644 C 142.779 118.303, 141.186 118.784, 139.926 121.138 C 138.164 124.431, 140.290 127.798, 145.620 130.156 C 151.213 132.630, 157.927 132.720, 180.500 130.622 C 189.300 129.804, 202.575 128.833, 210 128.464 L 223.500 127.793 215.287 136.146 C 205.516 146.085, 198.302 154.957, 192.231 164.500 C 189.782 168.350, 186.730 172.625, 185.448 174 C 182.813 176.827, 166 209.956, 166 212.320 C 166 213.166, 165.426 214.452, 164.724 215.179 C 164.022 215.905, 161.899 221, 160.005 226.500 C 157.217 234.598, 156.559 238.021, 156.542 244.500 C 156.510 256.693, 160.711 262.888, 172.567 268.133 C 179.181 271.058, 199.003 272.398, 215 271 C 227.423 269.914, 251.588 265.534, 253.500 264.022 C 254.050 263.587, 256.075 262.899, 258 262.492 C 266.317 260.737, 275.624 253.826, 277.939 247.685 C 278.522 246.137, 279 242.260, 279 239.071 C 279 234.140, 278.606 232.879, 276.364 230.636 C 273.718 227.990, 272.779 227.596, 270 227.959 C 267.422 228.297, 264.331 232.422, 263.565 236.545 C 263.161 238.720, 262.120 241.292, 261.251 242.261 C 259.426 244.294, 249.305 247.625, 242.011 248.593 C 239.255 248.959, 237 249.578, 237 249.971 C 237 251.382, 212.234 254.335, 200 254.383 C 180.221 254.459, 172.988 251.733, 173.012 244.211 C 173.026 239.925, 175.003 231.956, 177.294 226.957 C 178.165 225.056, 181.383 217.781, 184.446 210.791 C 195.761 184.967, 209.510 165.425, 232.127 143.019 C 244.755 130.508, 247.993 126.116, 247.991 121.500 C 247.990 117.702, 244.501 113.552, 240.101 112.112 C 236.353 110.886, 232.195 110.889, 211.559 112.131" stroke="none" fill="black" fill-rule="evenodd"/>
</svg>