<svg xmlns="http://www.w3.org/2000/svg" width="300" height="300" viewBox="0 0 300 300" version="1.1">
	<path d="M 157.126 37.874 C 156.095 38.905, 153.771 42.525, 151.963 45.919 C 150.154 49.312, 147.050 53.981, 145.064 56.294 C 143.079 58.607, 140.285 62.075, 138.855 64 C 137.425 65.925, 134.602 69.300, 132.580 71.500 C 110.278 95.772, 112.530 93.260, 106.575 100.507 C 103.867 103.803, 101.167 106.951, 100.575 107.503 C 98.446 109.487, 95.837 115.134, 96.387 116.567 C 97.272 118.874, 101.596 120.099, 104.750 118.938 C 106.262 118.381, 111.783 113.423, 117.017 107.921 L 126.534 97.918 126.251 119.209 C 126.095 130.919, 125.313 159.175, 124.512 182 C 121.762 260.462, 121.650 266.873, 123 268.500 C 124.829 270.704, 130.696 270.437, 131.950 268.094 C 133.388 265.407, 135.773 248.431, 136.459 236 C 138.273 203.138, 140.001 152.534, 140.234 125.500 C 140.460 99.137, 140.269 94.051, 138.955 91.500 L 137.409 88.500 144.043 80.500 C 155.017 67.265, 165.068 53.249, 166.077 49.773 C 167.314 45.510, 166.451 41.778, 163.486 38.579 C 160.638 35.506, 159.608 35.392, 157.126 37.874 M 268.750 46.115 C 265.110 48.831, 265.280 50.904, 269.611 56.577 C 271.597 59.179, 274.752 63.701, 276.623 66.625 C 280.852 73.236, 283.121 74.607, 287.103 72.957 C 292.341 70.788, 292.186 66.348, 286.455 54.375 C 283.787 48.800, 282.299 46.895, 279.621 45.625 C 275.106 43.482, 272.097 43.618, 268.750 46.115 M 210.615 57.250 C 208.694 60.270, 206.271 72.176, 204.968 85 C 204.010 94.426, 201.667 110.836, 200.437 116.732 C 200.126 118.221, 198.397 119.671, 195.236 121.094 C 192.631 122.265, 188.250 124.237, 185.500 125.474 C 182.750 126.712, 179.375 128.060, 178 128.469 C 175.182 129.309, 166.706 134.463, 163.155 137.497 C 160.302 139.933, 156 147.054, 156 149.338 C 156 152.359, 159.719 155, 163.974 155 C 167.331 155, 168.177 154.558, 169.420 152.154 C 170.504 150.058, 173.604 147.989, 181.196 144.295 C 195.686 137.244, 196 137.172, 196 140.909 C 196 147.506, 177.169 208.286, 171.031 221.500 C 167.191 229.766, 165.714 231.593, 160.873 234.064 C 156.446 236.323, 155.463 238.532, 157.500 241.641 C 158.673 243.430, 159.946 243.995, 162.773 243.978 C 171.006 243.930, 178.860 237.734, 183.482 227.643 C 188.197 217.348, 196.475 194.332, 201.068 178.750 C 202.324 174.488, 203.610 171.003, 203.926 171.007 C 205.222 171.022, 208.993 177.911, 210.999 183.929 C 212.177 187.464, 214.046 192.131, 215.152 194.298 C 223.079 209.837, 250.325 236.454, 265.851 243.827 C 277.698 249.453, 286.543 248.489, 289.932 241.203 C 291.364 238.122, 291.303 237.655, 289.133 235.153 C 287.211 232.937, 282.592 232.233, 281.506 233.991 C 280.816 235.107, 273.715 232.519, 273.167 230.952 C 272.983 230.428, 272.389 230, 271.846 230 C 269.596 230, 257.044 219.957, 247.546 210.560 C 237.294 200.414, 232.154 193.609, 227.847 184.477 C 226.556 181.740, 224.713 178.628, 223.750 177.561 C 222.787 176.495, 222 175.290, 222 174.883 C 222 174.476, 221.426 173.548, 220.725 172.821 C 220.024 172.095, 217.211 168.575, 214.475 165 C 211.739 161.425, 209.162 158.350, 208.750 158.167 C 207.581 157.647, 207.847 154.752, 209.887 145.789 C 210.925 141.230, 212.061 135.863, 212.411 133.861 C 212.919 130.963, 213.705 129.960, 216.274 128.934 C 218.049 128.226, 222.650 126.202, 226.500 124.436 C 230.350 122.671, 235.918 120.388, 238.873 119.363 C 244.830 117.297, 252.236 111.377, 254.612 106.783 C 255.877 104.338, 255.939 103.268, 254.957 100.897 C 253.365 97.053, 249.673 97.059, 244.430 100.915 C 240.920 103.497, 218.815 113, 216.321 113 C 215.766 113, 216.335 106.955, 217.661 98.750 C 218.928 90.912, 219.965 81.575, 219.967 78 C 219.973 67.027, 216.260 55, 212.868 55 C 212.416 55, 211.402 56.013, 210.615 57.250 M 60.500 70.675 C 56.485 71.484, 55.620 75.416, 55.044 95.474 L 54.500 114.449 45 116.789 C 39.775 118.076, 32.201 119.212, 28.169 119.314 C 22.200 119.466, 20.574 119.861, 19.419 121.441 C 15.890 126.269, 18.902 132.328, 25.442 133.555 C 28.406 134.111, 40.358 132.702, 52.118 130.409 L 54.736 129.899 55.388 140.700 C 55.995 150.769, 54.986 167.795, 53.496 172.601 C 53.078 173.950, 53.452 175.309, 54.541 176.399 C 55.475 177.332, 56.056 178.277, 55.834 178.500 C 55.045 179.289, 29.551 195.181, 26.755 196.627 C 23.248 198.440, 14.242 207.664, 13.406 210.298 C 13.020 211.512, 13.490 212.935, 14.665 214.109 C 16.455 215.899, 16.824 215.911, 22.934 214.360 C 29.443 212.708, 49.195 201.632, 59.500 193.856 C 62.250 191.781, 70.651 185.553, 78.169 180.015 C 92.306 169.603, 98.024 164.173, 97.967 161.215 C 97.919 158.763, 94.506 154.999, 92.340 155.008 C 91.328 155.013, 86.871 157.601, 82.436 160.758 C 78.001 163.916, 72.441 167.568, 70.080 168.874 C 66.158 171.042, 65.835 171.086, 66.341 169.374 C 68.187 163.141, 69.237 152.656, 69.311 139.735 L 69.395 124.971 72.947 124.062 C 74.901 123.562, 79.053 122.644, 82.173 122.021 C 88.639 120.732, 90.280 119.297, 89.822 115.334 C 89.331 111.083, 85.931 109.805, 76.596 110.361 L 68.691 110.832 69.309 93.005 C 69.896 76.082, 69.824 75.046, 67.891 72.589 C 65.929 70.094, 64.817 69.806, 60.500 70.675" stroke="none" fill="black" fill-rule="evenodd"/>
</svg>