<svg xmlns="http://www.w3.org/2000/svg" width="300" height="300" viewBox="0 0 300 300" version="1.1">
	<path d="M 218.286 10.701 C 214.470 11.440, 206.442 19.557, 203.927 25.221 C 201.938 29.698, 201.500 32.702, 201.041 45 L 200.500 59.500 197.765 55.293 C 195.414 51.678, 192.381 49, 190.637 49 C 190.365 49, 189.436 49.707, 188.571 50.571 C 184.685 54.458, 188.726 66.765, 196.599 75.019 C 201.625 80.288, 201.844 80.741, 201.305 84.763 C 200.947 87.435, 201.195 89.530, 201.982 90.479 C 202.981 91.682, 202.957 92.071, 201.863 92.456 C 196.716 94.269, 185.408 98.557, 173 103.400 C 165.025 106.512, 154.107 110.120, 148.738 111.416 L 138.977 113.774 141.179 110.137 C 142.391 108.137, 144.515 104.700, 145.901 102.500 C 152.578 91.896, 173.140 55.206, 173.642 53 C 173.954 51.625, 175.063 47.640, 176.105 44.145 C 177.147 40.649, 178 36.958, 178 35.942 C 178 31.004, 173.861 27, 168.756 27 C 167.573 27, 160.728 28.994, 153.544 31.431 C 146.361 33.868, 137.337 36.390, 133.492 37.036 C 125.278 38.417, 122.241 39.703, 120.338 42.606 C 117.389 47.108, 122.374 52.005, 129.899 51.997 C 132.345 51.995, 153.444 46.960, 157.250 45.471 C 159.902 44.433, 159.416 46.457, 155.363 53.332 C 153.363 56.724, 150.843 61.075, 149.762 63 C 148.681 64.925, 147.168 67.210, 146.399 68.079 C 145.629 68.947, 145 70.129, 145 70.706 C 145 73.801, 142.277 73.739, 134 70.454 C 118.160 64.168, 107 67.113, 107 77.578 C 107 80.530, 106.801 80.461, 119.552 81.910 C 125.081 82.538, 131.288 83.517, 133.347 84.085 L 137.090 85.119 135.215 88.309 C 134.184 90.064, 131.398 94.875, 129.025 99 C 121.661 111.802, 114.569 122.179, 107.558 130.412 C 98.506 141.039, 98.482 141.063, 92.625 144.563 C 88.339 147.125, 87.448 148.162, 87.180 150.902 C 86.391 158.979, 99.228 159.267, 109.540 151.402 C 114.126 147.903, 130.112 128.717, 134.470 121.480 C 137.685 116.141, 137.870 116.001, 138.177 118.673 C 138.553 121.950, 141.271 123.533, 149.472 125.253 C 158.261 127.097, 170.278 123.702, 190.057 113.788 C 199.030 109.290, 206.903 104.667, 208.030 103.235 C 210.249 100.414, 209.912 97.408, 207.112 95.044 C 205.517 93.697, 205.650 93.453, 208.869 91.812 L 212.352 90.036 216.731 93.268 C 219.140 95.046, 224.654 99.280, 228.985 102.677 C 249.890 119.076, 266.760 128.368, 275.774 128.451 C 280.477 128.494, 281.480 128.140, 283.585 125.694 C 286.600 122.192, 286.741 117.212, 283.927 113.635 C 281.845 110.988, 277.691 110.073, 276.500 112 C 276.160 112.550, 275.080 113, 274.101 113 C 272.167 113, 257.151 104.294, 254.483 101.626 C 253.582 100.725, 251.867 99.480, 250.672 98.861 C 247.939 97.444, 231.754 85.264, 226.714 80.830 L 222.927 77.500 226.844 72 C 234.342 61.472, 241.089 47.438, 242.106 40.254 C 242.624 36.600, 244.162 31.616, 245.524 29.179 C 248.513 23.830, 248.531 23.531, 246 21 C 242.974 17.974, 240.231 18.566, 235.578 23.250 C 230.976 27.884, 229.858 30.018, 224.969 43.500 C 221.843 52.123, 214.937 66.439, 212.927 68.465 C 212.313 69.084, 210.814 68.276, 208.754 66.215 L 205.538 63 208.662 63 C 212.220 63, 213 61.719, 213 55.876 C 213 50.842, 215.656 37.903, 217.781 32.583 C 219.596 28.039, 224.128 20.969, 226.473 19.022 C 228.519 17.324, 228.480 11.398, 226.418 10.607 C 224.742 9.964, 221.927 9.996, 218.286 10.701 M 50.765 74.867 C 46.850 79.520, 46.162 82.676, 45.462 99.177 L 44.796 114.854 37.648 116.034 C 29.530 117.374, 24.876 119.782, 23.172 123.522 C 21.491 127.211, 21.692 128.362, 24.470 130.972 C 26.739 133.103, 27.536 133.243, 34.220 132.682 C 38.224 132.346, 42.400 131.808, 43.500 131.486 C 45.472 130.908, 45.504 131.432, 45.764 169.297 L 46.028 207.695 41.324 211.597 C 34.470 217.285, 20.676 231.069, 18.726 234.180 C 16.699 237.414, 15.529 243.988, 16.379 247.373 C 17.134 250.382, 21.857 251.725, 25.816 250.057 C 27.292 249.435, 30.300 246.411, 32.500 243.337 C 37.252 236.696, 50.350 224.159, 64.373 212.831 C 81.914 198.659, 95.044 186.674, 95.643 184.288 C 96.277 181.759, 93.852 177.264, 91.330 176.296 C 89.365 175.542, 84.031 178.539, 79.202 183.111 C 76.869 185.320, 60.773 197.137, 60.577 196.784 C 60.491 196.628, 60.595 181.092, 60.809 162.259 L 61.198 128.019 65.942 126.610 C 76.276 123.541, 85.013 117.556, 84.986 113.563 C 84.936 105.931, 81.349 104.626, 71.961 108.822 C 68.408 110.410, 64.487 111.958, 63.250 112.261 L 61 112.813 60.836 98.156 C 60.746 90.095, 60.784 81.399, 60.921 78.831 C 61.124 75.019, 60.799 73.963, 59.150 73.081 C 55.827 71.302, 53.315 71.837, 50.765 74.867 M 175.500 136.108 C 168.350 136.603, 159.286 137.702, 155.357 138.549 C 147.999 140.135, 138 144.479, 138 146.089 C 138 148.024, 136.427 146.863, 135.155 143.987 C 131.440 135.595, 124.070 139.448, 121.597 151.077 C 120.691 155.336, 126.075 182.891, 128.561 186.715 C 129.352 187.933, 130 190.195, 130 191.742 C 130 196.165, 132.555 199, 136.541 199 L 139.968 199 137.750 203.250 C 136.014 206.576, 135.542 209.131, 135.581 215 C 135.634 223.173, 138.749 236.001, 142.147 242.048 C 144.925 246.991, 151.539 251.227, 155.750 250.761 C 159.765 250.317, 159.841 251.313, 156.077 255.077 C 153.843 257.311, 152.232 258, 149.245 258 C 144.955 258, 106.197 262.670, 102.071 263.684 C 97.367 264.839, 90.686 268.049, 89.366 269.785 C 87.266 272.550, 87.793 275.691, 90.750 278.030 C 93.221 279.985, 94.363 280.156, 102 279.717 C 106.675 279.448, 116.575 278.304, 124 277.175 C 140.733 274.629, 165.967 272.574, 217.044 269.596 C 249.880 267.681, 257.236 266.982, 260.412 265.475 C 267.222 262.243, 270.146 254.146, 266 250 C 263.505 247.505, 260.963 247.460, 257.885 249.857 C 255.825 251.461, 252.771 251.814, 235.500 252.437 C 224.500 252.835, 206.275 253.728, 195 254.423 C 183.725 255.117, 174.335 255.554, 174.133 255.393 C 173.932 255.232, 175.164 252.830, 176.871 250.054 C 181.935 241.825, 187.616 228.634, 194.122 210 C 196.767 202.423, 198.271 188.407, 196.708 185.904 C 195.183 183.463, 190.554 183.421, 188.250 185.829 C 182.256 192.092, 181.088 194.661, 172.487 220.500 C 170.474 226.550, 167.452 234.815, 165.772 238.866 L 162.717 246.232 161.407 243.116 C 160.686 241.402, 159.600 240, 158.992 240 C 157.226 240, 154.282 232.150, 152.888 223.725 C 151.862 217.522, 151.848 214.514, 152.819 208.848 C 154.608 198.420, 155.905 196.752, 163.843 194.671 C 172.611 192.373, 185.778 185.923, 189.346 182.177 C 191.277 180.151, 192.224 178.076, 192.291 175.727 C 192.373 172.821, 193.041 171.846, 196.444 169.664 C 201.594 166.361, 211.611 156.685, 214.093 152.616 C 216.963 147.908, 216.583 142.684, 213.084 138.766 L 210.168 135.500 199.334 135.353 C 193.375 135.272, 182.650 135.612, 175.500 136.108 M 176 153.078 C 170.225 153.512, 159.938 154.988, 153.139 156.359 C 146.341 157.731, 140.103 158.593, 139.276 158.276 C 138.021 157.794, 137.886 158.423, 138.456 162.100 C 138.831 164.520, 139.782 169.124, 140.569 172.331 C 141.356 175.538, 142 178.973, 142 179.965 C 142 181.651, 142.437 181.684, 148.750 180.481 C 155.554 179.184, 170.104 175.143, 175.317 173.101 C 177.542 172.230, 177.997 171.565, 177.480 169.935 C 176.951 168.270, 178.430 166.350, 185.162 159.966 L 193.500 152.061 190 152.175 C 188.075 152.238, 181.775 152.644, 176 153.078" stroke="none" fill="black" fill-rule="evenodd"/>
</svg>