<svg xmlns="http://www.w3.org/2000/svg" width="300" height="300" viewBox="0 0 300 300" version="1.1">
	<path d="M 99.815 16.319 C 95.242 19.795, 87.267 25.532, 82.094 29.068 C 67.010 39.378, 55.104 52.542, 54.947 59.083 C 54.775 66.286, 57.702 71, 62.347 71 C 64.018 71, 69.500 71.735, 74.528 72.633 C 82.429 74.044, 84.068 74.077, 86.586 72.876 C 92.266 70.165, 90.690 62.802, 84.048 61.013 C 81.893 60.433, 78.307 58.922, 76.079 57.657 L 72.028 55.356 75.264 52.934 C 77.044 51.602, 83.675 47.181, 90 43.111 C 96.325 39.040, 104.197 33.640, 107.492 31.110 C 110.788 28.580, 114.010 26.631, 114.652 26.778 C 116.385 27.176, 120 22.099, 120 19.266 C 120 17.911, 119.274 15.272, 118.386 13.401 C 116.918 10.307, 116.382 10, 112.451 10 C 108.690 10, 107.054 10.818, 99.815 16.319 M 192 40.027 C 188.140 40.707, 177.178 44.287, 163.931 49.195 C 158.165 51.332, 154 55.400, 154 58.896 C 154 65.360, 161.286 67.929, 168.790 64.113 C 173.916 61.505, 192.623 55.221, 197.581 54.441 L 201.661 53.799 201.081 58.140 C 200.425 63.040, 202.827 62.109, 182.270 65.438 C 168.175 67.720, 162.044 69.754, 161.003 72.493 C 160.518 73.767, 158.646 80.590, 156.842 87.655 L 153.563 100.500 153.531 127.500 L 153.500 154.500 156.500 160.500 C 160.372 168.244, 164.359 171, 171.688 171 C 177.905 171, 182.284 169.065, 189.434 163.156 L 194.308 159.128 198.404 162.559 C 207.075 169.823, 219.327 178.161, 224.304 180.185 C 231.170 182.978, 241.256 183.145, 245.665 180.540 C 251.527 177.075, 252.944 169.504, 248.300 166.461 C 245.833 164.844, 245.370 164.825, 242.909 166.237 C 239.243 168.341, 232.236 166.976, 226.367 163.015 C 223.910 161.357, 221.642 160, 221.328 160 C 221.013 160, 217.869 157.658, 214.340 154.795 C 208.136 149.761, 203 144.077, 203 142.244 C 203 141.755, 205.871 138.818, 209.381 135.718 C 214.043 131.600, 216.784 128.096, 219.556 122.711 C 222.018 117.928, 224.517 114.576, 226.675 113.161 C 228.504 111.962, 229.990 110.423, 229.978 109.741 C 229.940 107.635, 226.607 104.060, 224.500 103.867 C 219.813 103.436, 218.010 104.255, 213.740 108.750 C 211.258 111.362, 205.185 117.717, 200.243 122.870 L 191.258 132.240 187.730 131.076 C 183.290 129.611, 179.837 130.452, 177.027 133.683 C 174.429 136.672, 174.904 140.205, 178.097 141.630 C 180.121 142.533, 179.991 142.771, 175.687 146.042 C 173.185 147.944, 170.833 150.400, 170.461 151.500 C 169.109 155.491, 168.239 147.817, 168.118 130.829 L 168 114.159 170.907 113.520 C 172.505 113.169, 176.422 111.311, 179.611 109.391 C 182.799 107.471, 186.903 105.191, 188.731 104.323 C 190.558 103.456, 193.725 100.629, 195.767 98.040 C 198.622 94.421, 200.131 93.333, 202.300 93.333 C 208.524 93.333, 213.993 82.181, 216.513 64.352 C 218.102 53.110, 217.900 49.841, 215.293 44.671 C 212.714 39.556, 204.257 37.870, 192 40.027 M 98.414 44.553 C 96.302 49.607, 97.444 54.475, 101.463 57.540 C 107.752 62.336, 111.576 60.110, 110.441 52.312 C 109.609 46.595, 107.689 42.478, 105.455 41.621 C 101.790 40.215, 99.897 41.003, 98.414 44.553 M 131.049 51.952 C 129.328 53.635, 126.411 55.192, 124.265 55.574 C 120.635 56.220, 113.664 59.433, 111.408 61.500 C 110.808 62.050, 108.824 63.625, 107 65 C 105.176 66.375, 103.192 67.956, 102.592 68.514 C 101.991 69.072, 98.592 71.997, 95.038 75.014 C 86.540 82.229, 85.943 82.781, 73.687 94.783 C 59.271 108.900, 58.036 111.036, 62 115 C 66.316 119.316, 71.155 116.837, 88.286 101.529 L 98.967 91.986 100.484 95.615 C 101.318 97.611, 102 99.393, 102 99.575 C 102 99.757, 95.475 109.631, 87.500 121.517 C 73.037 143.074, 71.257 146.857, 74.200 149.800 C 74.860 150.460, 76.580 151, 78.022 151 C 80.062 151, 82.846 148.649, 90.564 140.406 C 96.020 134.580, 101.907 127.811, 103.647 125.364 L 106.810 120.915 107.532 125.187 C 108.250 129.438, 108.226 129.483, 102.377 134.665 C 92.683 143.254, 65.657 169.975, 63.770 172.836 C 61.267 176.632, 61.475 181.519, 64.223 183.443 C 69.672 187.260, 72.840 185.219, 94.076 164.206 L 110.960 147.500 111.597 151.772 C 112.669 158.965, 111.600 188.800, 110.220 190.180 C 109.260 191.140, 109 191.047, 109 189.745 C 109 188.632, 107.802 187.866, 105.340 187.404 C 99.615 186.330, 98.672 188.354, 99.487 199.964 C 100.468 213.921, 102.951 218.483, 109.467 218.298 C 117.009 218.084, 121.707 210.933, 125.179 194.382 C 128.903 176.623, 127.913 156.236, 121.953 128 C 116.184 100.668, 111.775 88.002, 107.455 86.344 C 105.623 85.641, 112.276 80.066, 125.769 71 C 138.453 62.477, 142.997 55.022, 138.171 50.655 C 135.632 48.357, 134.519 48.560, 131.049 51.952 M 196.745 78.588 C 195.629 79.704, 176.489 81.931, 172.898 81.362 C 169.363 80.802, 169.284 80.864, 168.659 84.646 C 168.309 86.766, 168.017 90.592, 168.011 93.150 L 168 97.800 173.750 94.994 C 189.702 87.211, 192.857 85.872, 194.541 86.173 C 195.951 86.425, 196.558 85.610, 197.200 82.599 C 198.024 78.733, 197.879 77.454, 196.745 78.588 M 164.500 185.550 C 159.304 188.157, 153 199.755, 153 206.710 C 153 209.492, 153.058 209.472, 141.369 210.800 C 127.416 212.386, 121.404 216.396, 123.426 222.768 C 124.596 226.453, 128.620 227.513, 140.644 227.302 L 151.929 227.104 152.397 230.302 C 153.356 236.855, 157.039 266.539, 157.020 267.559 C 157.007 268.225, 148.185 269.254, 133.250 270.332 C 94.138 273.156, 86.655 274.386, 85.669 278.159 C 84.472 282.735, 86.371 283.772, 100.840 286.449 C 109.738 288.096, 108.695 288.141, 150 284.288 C 163.278 283.049, 179.804 282.630, 218.500 282.553 C 264.801 282.460, 269.981 282.285, 274.720 280.655 C 280.208 278.767, 285 274.249, 285 270.962 C 285 269.926, 283.988 268.129, 282.750 266.969 C 280.383 264.750, 279.270 264.761, 271.070 267.081 C 267.508 268.089, 261.668 268.078, 241.287 267.028 C 218.319 265.844, 175.196 266.220, 171.505 267.636 C 170.611 267.980, 170.076 262.461, 169.403 245.943 L 168.500 223.789 174 224.397 C 193.196 226.518, 192.601 226.553, 196.048 223.105 C 198.561 220.593, 199.071 219.421, 198.553 217.354 C 197.594 213.533, 195.586 212, 191.540 212 C 189.558 212, 185.143 211.059, 181.728 209.908 C 177.969 208.642, 174.232 208.025, 172.259 208.345 C 169.012 208.872, 169 208.859, 169.024 204.687 C 169.037 202.384, 169.524 198.700, 170.106 196.500 C 172.066 189.095, 172.235 186.988, 170.992 185.491 C 169.453 183.636, 168.296 183.646, 164.500 185.550" stroke="none" fill="black" fill-rule="evenodd"/>
</svg>