<svg xmlns="http://www.w3.org/2000/svg" width="300" height="300" viewBox="0 0 300 300" version="1.1">
	<path d="M 183 39.653 C 165.848 41.655, 154.775 43.538, 145.088 46.097 C 138.812 47.756, 131.387 49.544, 128.588 50.071 C 122.579 51.201, 113.223 55.532, 110.750 58.328 C 109.787 59.416, 109 61.446, 109 62.840 L 109 65.374 106.195 62.687 C 101.217 57.917, 94.598 59.885, 94.602 66.133 C 94.606 71.167, 98.765 78.555, 105.556 85.591 C 111.977 92.242, 115.624 93.948, 119.574 92.148 C 122.897 90.634, 122.623 88.361, 118.411 82.497 C 115.172 77.986, 109.652 67.850, 110.257 67.521 C 110.820 67.214, 120.813 65.082, 124.500 64.482 C 126.700 64.124, 132.325 62.724, 137 61.372 C 153.030 56.736, 163.527 54.933, 183.500 53.384 C 199.936 52.109, 205.995 52.039, 217.500 52.988 C 225.200 53.624, 231.859 54.493, 232.298 54.920 C 232.738 55.347, 231.541 58.803, 229.639 62.598 C 225.018 71.819, 222.099 80.756, 221.342 87.999 C 220.627 94.844, 221.735 97, 225.967 97 C 229.554 97, 230.937 95.158, 234.978 85 C 236.837 80.325, 240.301 72.867, 242.674 68.427 C 248.434 57.653, 249.043 52.865, 245.366 47.276 C 240.661 40.125, 238.266 39.585, 210.500 39.402 C 197.300 39.315, 184.925 39.428, 183 39.653 M 58.788 71.996 C 53.492 77.771, 52.337 81.433, 50.600 97.964 L 49.500 108.428 38.500 111.830 C 21.518 117.083, 16.362 121.521, 20.831 127.039 C 22.461 129.052, 23.579 129.394, 28.128 129.270 C 31.083 129.190, 37.196 128.043, 41.713 126.723 L 49.926 124.322 50.433 128.411 C 51.621 137.989, 53.024 159.241, 53.079 168.500 C 53.126 176.343, 53.538 179.184, 54.988 181.670 L 56.838 184.841 51.169 189.835 C 42.090 197.834, 27.610 212.304, 26.250 214.736 C 24.734 217.448, 24.613 224.408, 26.035 227.066 C 28.275 231.251, 31.536 229.486, 43.261 217.743 C 49.442 211.552, 65.391 195.853, 78.703 182.856 C 93.703 168.211, 103.155 158.232, 103.561 156.613 C 104.526 152.769, 103.389 149.546, 100.528 148.015 C 98.199 146.769, 97.671 146.926, 93.751 150.030 C 91.413 151.881, 89.160 153.946, 88.745 154.618 C 86.555 158.162, 67.807 176.002, 66.275 175.998 C 65.849 175.997, 65.379 162.789, 65.231 146.646 L 64.961 117.296 72.942 113.648 C 77.331 111.642, 81.329 110, 81.826 110 C 82.324 110, 83.916 109.067, 85.365 107.927 C 90.140 104.171, 87.857 97, 81.886 97 C 80.535 97, 76.183 98.063, 72.215 99.363 L 65 101.726 65.001 98.613 C 65.002 96.901, 65.729 91.675, 66.616 87 C 69.399 72.334, 69.413 72.027, 67.366 70.477 C 64.472 68.285, 61.748 68.767, 58.788 71.996 M 199 81.705 C 188.738 83.955, 184.358 84.295, 158.328 84.863 L 129.155 85.500 126.532 87.967 C 123.221 91.082, 123.512 94.568, 127.322 97.401 C 129.902 99.320, 131.721 99.530, 148.572 99.845 C 158.707 100.035, 167 100.499, 167 100.876 C 167 101.780, 151.125 116.440, 143.500 122.578 C 130.413 133.114, 113.196 151.557, 111.554 156.799 C 110.557 159.984, 113.328 164, 116.523 164 C 118.203 164, 119.011 164.563, 119.033 165.750 C 119.103 169.520, 122.759 177.869, 127.393 184.838 L 132.252 192.148 129.626 197.338 C 125.132 206.222, 126.406 213, 132.571 213 C 135.767 213, 136.239 212.609, 138 208.500 C 139.061 206.025, 140.158 204, 140.439 204 C 141.561 204, 144.034 210.136, 143.354 211.236 C 141.608 214.061, 127.359 230.538, 124.339 233.224 C 121.281 235.943, 114.604 237.891, 110.313 237.315 C 107.476 236.935, 106.055 237.229, 105.084 238.399 C 102.885 241.048, 103.480 245.156, 106.431 247.694 C 109.990 250.756, 119.464 250.923, 125.434 248.029 C 130.793 245.432, 141.263 236.427, 147.500 229.050 C 150.250 225.798, 152.740 223.106, 153.034 223.068 C 153.328 223.031, 154.369 224.355, 155.348 226.011 C 158.373 231.134, 167.884 240.754, 170.595 241.434 C 174.064 242.305, 176.474 241.411, 177.888 238.728 C 178.807 236.984, 178.934 236.929, 178.475 238.478 C 178.152 239.566, 177.502 243.391, 177.030 246.978 C 176.559 250.565, 175.203 256.579, 174.018 260.343 C 171.995 266.765, 171.754 267.087, 170.102 265.593 C 167.559 263.291, 164.285 263.635, 162.477 266.394 C 160.428 269.522, 161.315 272.874, 165.460 277.669 C 168.253 280.900, 169.332 281.455, 172.824 281.455 C 177.246 281.455, 181.311 278.463, 184.992 272.500 C 187.212 268.904, 191.278 252.951, 193.148 240.500 C 194.495 231.531, 194.950 209.403, 194 199.052 L 193.500 193.604 196.831 192.912 C 198.663 192.531, 201.438 190.996, 202.999 189.501 C 204.816 187.760, 206.316 187.066, 207.169 187.573 C 210.312 189.440, 230.868 204.730, 234.786 208.114 C 238.992 211.747, 251.910 219.462, 261.205 223.892 C 268.349 227.297, 275.590 227.717, 281.567 225.073 C 284.266 223.879, 287.493 221.946, 288.738 220.777 C 291.540 218.144, 291.658 213.906, 288.996 211.496 C 287.177 209.850, 286.491 209.803, 281.580 210.981 C 272.343 213.197, 268.406 212.126, 255.776 203.964 C 243.207 195.841, 232.327 188.147, 226.907 183.549 C 220.872 178.428, 219.480 177.398, 217.650 176.696 C 216.474 176.245, 216.157 175.543, 216.695 174.583 C 218.381 171.574, 228.713 159.266, 234.091 153.859 C 240.607 147.308, 241.305 145.931, 239.933 142.323 C 237.378 135.604, 229.825 135.467, 223.065 142.017 C 220.799 144.213, 210.995 157.896, 200.150 174 C 196.631 179.225, 193.390 183.895, 192.949 184.377 C 192.507 184.860, 191.646 183.285, 191.035 180.877 C 190.424 178.470, 187.724 169.525, 185.035 161 C 182.346 152.475, 179.826 144.375, 179.434 143 C 178.249 138.843, 173.809 129.766, 170.717 125.177 L 167.804 120.854 174.688 113.677 C 178.474 109.730, 182.933 104.813, 184.597 102.751 C 187.147 99.591, 188.539 98.832, 193.450 97.925 C 199.704 96.768, 214.590 91.585, 216.711 89.825 C 219.388 87.603, 217.299 80, 214.010 80 C 213.545 80, 212.564 79.816, 211.832 79.591 C 211.099 79.367, 205.325 80.318, 199 81.705 M 156.884 130.325 C 154.895 132.071, 150.173 136.200, 146.391 139.500 C 142.608 142.800, 136.072 148.793, 131.866 152.817 L 124.219 160.133 126.737 162.817 C 128.122 164.293, 130.942 167.750, 133.005 170.500 C 135.067 173.250, 137.848 176.509, 139.184 177.743 L 141.613 179.985 147.295 173.078 C 152.945 166.211, 163.807 158, 167.242 158 C 169.043 158, 169.687 155.543, 168.137 154.585 C 167.222 154.019, 166.236 150.411, 163.472 137.500 C 161.142 126.616, 161.127 126.599, 156.884 130.325 M 168.814 168.786 C 167.443 170.279, 164.154 174.425, 161.504 178 C 158.855 181.575, 155.135 186.142, 153.239 188.149 L 149.791 191.798 152.287 195.472 L 154.783 199.145 160.574 193.823 C 163.759 190.895, 168.560 186.380, 171.245 183.788 L 176.125 179.076 174.423 173.011 C 173.487 169.675, 172.403 166.749, 172.014 166.508 C 171.624 166.268, 170.185 167.293, 168.814 168.786 M 173.500 198.233 C 171.300 201.065, 167.973 205.326, 166.106 207.703 C 162.927 211.753, 162.816 212.140, 164.356 213.841 C 165.260 214.840, 166 215.955, 166 216.319 C 166 217.623, 175.006 231, 175.885 231 C 176.379 231, 177.092 232.231, 177.470 233.736 C 178.120 236.327, 178.215 236.366, 179.266 234.489 C 181.366 230.737, 180.365 192.903, 178.170 193.043 C 177.802 193.066, 175.700 195.402, 173.500 198.233" stroke="none" fill="black" fill-rule="evenodd"/>
</svg>