<svg xmlns="http://www.w3.org/2000/svg" width="300" height="300" viewBox="0 0 300 300" version="1.1">
	<path d="M 235 11.050 C 227.575 12.068, 215.200 13.396, 207.500 14 C 195.370 14.953, 178.845 16.398, 127.500 20.998 C 121.450 21.540, 109.750 21.990, 101.500 21.998 C 90.162 22.009, 85.801 22.377, 83.636 23.506 C 80.326 25.233, 78 25.436, 78 24 C 78 22.462, 73.710 22.815, 71.223 24.557 C 68.597 26.396, 68.270 31, 70.402 36.128 C 73.812 44.330, 75.895 82.309, 74.124 104 C 71.276 138.884, 61.052 197.956, 53.008 226 C 51.825 230.125, 50.461 235.300, 49.979 237.500 C 48.657 243.523, 43.227 257.851, 40.126 263.500 C 38.616 266.250, 37.558 269.400, 37.775 270.500 C 38.726 275.332, 45.104 276.486, 49.310 272.589 C 52.150 269.956, 60.339 253.585, 61.920 247.378 C 62.463 245.245, 64.954 236.560, 67.454 228.079 C 69.954 219.597, 72 211.722, 72.001 210.579 C 72.001 209.435, 72.708 205.125, 73.572 201 C 76.693 186.089, 80.180 166.344, 80.989 159 C 81.444 154.875, 83.064 143.850, 84.589 134.500 C 87.171 118.676, 87.362 115.494, 87.344 88.500 C 87.327 62.685, 86.862 54.785, 84.393 38.390 L 83.774 34.280 113.637 33.692 C 142.685 33.120, 171.844 31.287, 220 27.005 C 251.161 24.235, 258.831 22.853, 261.750 19.485 C 264.483 16.331, 264.558 14.911, 262.149 11.935 C 259.661 8.863, 252.621 8.634, 235 11.050 M 132.500 57.364 C 127.550 58.570, 120.800 60.941, 117.500 62.632 C 108.501 67.244, 105.404 67.582, 102.548 64.261 C 100.387 61.748, 100.023 61.650, 97.633 62.929 C 93.529 65.125, 92.644 69.497, 94.555 78.131 C 95.452 82.184, 96.407 86.625, 96.679 88 C 97.416 91.738, 100.994 103.191, 102.200 105.674 C 103.684 108.729, 107.734 109.550, 110.220 107.301 C 111.884 105.795, 112.136 104.553, 111.779 99.621 L 111.353 93.737 123.927 94.385 C 130.842 94.741, 138.878 94.640, 141.785 94.160 C 145.354 93.571, 146.959 93.624, 146.726 94.322 C 146.258 95.726, 145.116 96.198, 133 99.991 C 114.314 105.840, 113.178 106.299, 112.023 108.458 C 110.397 111.496, 112.213 115.542, 116.108 117.556 C 119.914 119.524, 124.598 119.004, 131.662 115.831 C 134.323 114.635, 140.550 112.272, 145.500 110.578 C 153.466 107.854, 154.615 107.155, 155.501 104.500 C 156.052 102.850, 158.439 98.676, 160.806 95.225 C 171.806 79.183, 173.594 69.717, 167.040 62.211 C 160.572 54.803, 149.430 53.240, 132.500 57.364 M 138 69.561 C 125.922 72.616, 118.259 73.998, 113.399 73.999 L 108.299 74 109.109 79.126 C 109.555 81.946, 110.076 84.409, 110.267 84.600 C 110.457 84.791, 112.388 83.721, 114.557 82.224 C 118.365 79.593, 118.901 79.509, 130.199 79.750 C 143.132 80.027, 153.640 78.213, 155.739 75.342 C 160.308 69.093, 151.368 66.180, 138 69.561 M 239.655 71.829 C 235.948 75.925, 239.265 85.680, 244.982 87.494 C 246.097 87.848, 247.005 89.208, 247.188 90.798 C 247.448 93.049, 248.053 93.553, 250.815 93.818 C 254.914 94.212, 257 92.596, 257 89.027 C 257 82.459, 253.069 76.422, 246 72.132 C 241.749 69.552, 241.717 69.550, 239.655 71.829 M 199.975 89.565 C 199.439 90.976, 199.001 94.913, 199.001 98.315 C 199.002 101.717, 198.492 108.153, 197.868 112.618 L 196.734 120.737 190.088 122.341 C 186.433 123.223, 180.185 124.248, 176.204 124.618 C 169.627 125.229, 168.909 125.513, 168.355 127.722 C 167.488 131.175, 169.913 135.063, 174 136.777 C 176.501 137.825, 179.582 138.087, 184.794 137.696 C 191.295 137.207, 192.034 137.330, 191.591 138.824 C 191.318 139.746, 190.787 141.850, 190.412 143.500 C 190.036 145.150, 188.214 149.772, 186.364 153.772 C 184.514 157.771, 183 161.352, 183 161.728 C 183 163.776, 171.399 184.685, 169.382 186.272 C 166.098 188.854, 166.133 194.224, 169.455 197.545 C 172.453 200.544, 175.870 200.677, 179.361 197.930 C 182.021 195.838, 194 175.602, 194 173.200 C 194 172.486, 194.688 170.571, 195.528 168.945 L 197.056 165.990 205.778 174.554 C 219.826 188.348, 234.161 196, 245.954 196 C 252.209 196, 256.459 192.966, 255.509 189.180 C 254.673 185.848, 252.497 184.340, 247.535 183.658 C 242.822 183.009, 238.437 180.966, 231.500 176.186 C 226.403 172.673, 216.192 164.331, 212.398 160.579 C 211.242 159.435, 208.654 157.213, 206.648 155.639 C 204.642 154.066, 203 152.302, 203 151.720 C 203 151.138, 204.617 146.258, 206.594 140.877 L 210.188 131.094 214.844 129.458 C 223.387 126.458, 230.462 122.872, 234.387 119.555 C 237.943 116.550, 238.217 115.968, 237.605 112.708 C 236.730 108.043, 233.232 107.103, 227.340 109.950 C 220.228 113.386, 213.244 115.911, 212.609 115.276 C 212.274 114.941, 212 111.837, 212 108.379 C 212 101.729, 208.297 89.438, 205.821 87.868 C 203.339 86.294, 200.956 86.986, 199.975 89.565 M 140 124.727 C 137.088 125.832, 130.430 130.834, 124.500 136.371 L 118.500 141.973 117.686 137.961 C 116.671 132.959, 110.385 125.993, 106.905 126.015 C 101.803 126.048, 101.471 126.979, 102.932 137.183 C 104.808 150.287, 104.454 167.291, 102.012 181.500 C 98.684 200.860, 98.191 203.333, 96.992 206.679 C 95.378 211.186, 97.039 214, 101.313 214 C 105.929 214, 108.436 211.836, 110.831 205.784 C 112.946 200.438, 116.356 187.045, 117.585 179.250 L 118.256 175 123.646 175 C 128.179 175, 142.707 171.917, 145.078 170.452 C 145.470 170.210, 146.070 170.741, 146.413 171.633 C 147.150 173.554, 145.176 175.231, 139.254 177.718 C 136.918 178.698, 135.006 179.787, 135.004 180.137 C 135.002 180.487, 131.963 181.343, 128.250 182.039 C 120.841 183.429, 118 185.616, 118 189.931 C 118 199.639, 129.120 200.266, 142.162 191.295 L 147.288 187.768 146.575 198.134 C 146.183 203.835, 145.439 210.525, 144.923 213 C 142.824 223.061, 142.755 223.999, 143.993 225.492 C 145.827 227.702, 150.520 227.332, 153.391 224.750 C 159.183 219.544, 162.646 198.839, 161.545 176 C 160.538 155.110, 158.228 134.341, 156.551 131.098 C 154.155 126.465, 150.298 123.989, 145.615 124.079 C 143.352 124.122, 140.825 124.414, 140 124.727 M 131.216 148.555 C 120.116 158.396, 117.123 162, 120.050 162 C 120.627 162, 122.314 161.378, 123.800 160.618 C 125.285 159.858, 128.525 158.932, 131 158.560 C 133.475 158.188, 137.814 157.399, 140.643 156.807 L 145.786 155.730 145.292 149.615 C 145.021 146.252, 144.491 142.201, 144.115 140.612 L 143.431 137.725 131.216 148.555 M 174.588 210.499 C 172.370 212.893, 171 218.483, 171 225.140 C 171 227.914, 170.846 228, 165.887 228 C 160.466 228, 146.356 231.073, 139.878 233.665 C 136.050 235.197, 135.126 237.073, 136.855 239.800 C 138.065 241.707, 154.261 244.136, 163.500 243.795 L 171.500 243.500 171.257 249.068 C 171.123 252.130, 170.365 256.791, 169.573 259.425 C 168.618 262.598, 168.431 265.004, 169.021 266.554 C 169.718 268.388, 169.541 269.002, 168.205 269.394 C 164.589 270.455, 130.401 274.150, 116.791 274.951 C 102.125 275.814, 97.470 277.036, 96.416 280.299 C 95.452 283.280, 98.513 286.745, 102.711 287.426 C 108.872 288.427, 141.521 286.343, 170.500 283.100 C 205.620 279.170, 219.274 278.027, 231.500 277.993 C 250.712 277.940, 270.056 275.106, 275.314 271.575 C 281.038 267.730, 282.731 257.532, 278.061 255.032 C 275.462 253.642, 273.218 254.678, 271.457 258.083 C 270.466 260, 268.771 261.248, 266.244 261.922 C 262.566 262.904, 239.121 264.461, 211.500 265.558 C 203.800 265.864, 193.530 266.581, 188.678 267.151 C 179.592 268.220, 177.981 267.972, 179.727 265.774 C 181.487 263.559, 183.342 256.771, 184.439 248.533 L 185.500 240.565 193 238.478 C 205.480 235.004, 211.839 231.631, 213.528 227.587 C 215.670 222.461, 214.137 219, 209.725 219 C 207.896 219, 205.973 219.421, 205.450 219.935 C 204.392 220.977, 190.461 225, 187.912 225 C 186.665 225, 185.980 223.232, 184.992 217.455 C 184.086 212.154, 183.171 209.627, 181.917 208.955 C 179.041 207.416, 177.058 207.834, 174.588 210.499" stroke="none" fill="black" fill-rule="evenodd"/>
</svg>