<svg xmlns="http://www.w3.org/2000/svg" width="300" height="300" viewBox="0 0 300 300" version="1.1">
	<path d="M 183.613 22.587 C 179.907 26.293, 179.474 26.955, 174.596 36.365 C 171.275 42.771, 171.552 42.670, 155.500 43.320 C 143.964 43.788, 136.990 46.114, 137.015 49.486 C 137.052 54.356, 140.978 56, 152.565 56 C 157.204 56, 160.991 56.337, 160.980 56.750 C 160.945 58.126, 141.708 82.301, 134.960 89.450 C 131.301 93.327, 126.945 98.400, 125.281 100.723 L 122.256 104.946 121.752 101.223 C 120.998 95.662, 115.566 84.734, 111.284 80.165 C 110.303 79.118, 108.282 76.913, 106.793 75.266 L 104.086 72.270 111.293 68.385 C 117.411 65.087, 118.855 63.784, 120.851 59.760 C 122.868 55.695, 123.043 54.562, 122.082 51.805 C 120.103 46.129, 118.098 44.073, 111.228 40.675 C 105.800 37.990, 101.633 36.915, 89.667 35.113 C 76.358 33.108, 74.600 33.032, 72.551 34.375 C 66.344 38.441, 70.947 47.265, 79.297 47.308 C 85.045 47.338, 103.396 51.029, 105.876 52.654 L 108.296 54.240 105.467 56.370 C 103.911 57.542, 100.636 60.413, 98.188 62.750 C 95.740 65.088, 92.981 67, 92.057 67 C 91.133 67, 89.392 67.918, 88.189 69.039 C 84.175 72.778, 85.647 76.331, 93.319 81.424 C 99.534 85.549, 104.263 91.115, 107.022 97.552 C 110.173 104.902, 109.775 106.567, 104.557 107.881 C 97.718 109.604, 92.177 109.284, 89.273 107 C 87.874 105.900, 85.891 105, 84.865 105 C 83.431 105, 82.996 104.249, 82.982 101.750 C 82.972 99.963, 82.293 94.225, 81.472 89 C 80.651 83.775, 79.554 76.307, 79.034 72.405 C 77.310 59.473, 72.248 50.243, 67.776 51.877 C 63.502 53.439, 63.353 59.167, 66.933 84.107 C 70.118 106.297, 70.702 116.457, 72.358 178.502 C 72.665 189.981, 74.918 195.346, 79.625 195.804 C 85.791 196.404, 85.706 197.007, 85.196 156.171 L 84.733 119.144 88.617 120.528 C 96.679 123.402, 109.742 121.675, 117.274 116.740 C 119.767 115.107, 119.903 115.118, 120.506 117.017 C 120.929 118.351, 122.013 118.995, 123.817 118.985 C 127.307 118.965, 128.198 118.303, 131.208 113.496 C 132.587 111.293, 138.729 104.163, 144.857 97.651 C 150.986 91.140, 156 85.453, 156 85.015 C 156 84.577, 157.463 83.965, 159.250 83.655 C 161.037 83.345, 166.099 82.390, 170.498 81.534 C 174.897 80.677, 179.059 80.193, 179.748 80.457 C 181.490 81.125, 181.492 98.365, 179.750 99.745 C 179.063 100.290, 176.050 101.535, 173.056 102.512 C 169.935 103.531, 165.929 105.860, 163.667 107.969 C 159.851 111.529, 159.768 111.744, 161.118 114.574 C 163.005 118.529, 167.614 118.839, 177.715 115.688 C 188.732 112.252, 197.476 110.065, 205 108.863 C 213.991 107.427, 216.442 106.094, 216.761 102.469 C 217.200 97.458, 215.841 96.500, 208.287 96.500 C 204.554 96.500, 199.070 96.889, 196.099 97.365 C 191.045 98.174, 190.751 98.109, 191.515 96.365 C 191.964 95.339, 192.527 91.070, 192.766 86.878 L 193.200 79.257 196.965 78.129 C 202.540 76.458, 206 73.365, 206 70.050 C 206 65.375, 204.364 64.828, 193.869 65.997 C 183.394 67.163, 175.069 68.546, 170.310 69.911 L 167.131 70.823 170.642 65.935 C 177.439 56.474, 178.884 55.397, 185.730 54.684 C 189.156 54.327, 194.556 53.183, 197.730 52.141 C 200.903 51.099, 204.653 49.979, 206.062 49.652 C 207.470 49.324, 209.945 47.919, 211.562 46.529 C 213.178 45.140, 214.843 44.002, 215.263 44.001 C 215.683 44.001, 216.994 42.008, 218.176 39.574 C 220.220 35.367, 220.243 35.020, 218.640 32.574 C 216.402 29.158, 213.562 29.321, 210.825 33.023 C 209.233 35.176, 206.850 36.581, 202.545 37.903 C 196.347 39.807, 188 41.470, 188 40.801 C 188 40.596, 189.310 36.393, 190.912 31.464 C 193.571 23.277, 193.688 22.348, 192.257 20.750 C 189.904 18.122, 187.586 18.614, 183.613 22.587 M 187.556 122.055 C 181.417 125.650, 174.894 130.443, 166.186 137.756 C 164.709 138.997, 162.713 140.265, 161.750 140.573 C 160.787 140.882, 159.968 141.667, 159.929 142.317 C 159.889 142.968, 158.950 140.800, 157.841 137.500 C 154.229 126.750, 148.862 122.281, 144.637 126.506 C 141.992 129.150, 141.843 131.753, 143.946 138.562 C 146.645 147.300, 146.666 163.120, 144 180 C 141.494 195.866, 141.461 200.202, 143.829 202.345 C 146.291 204.574, 149.300 204.430, 151.519 201.979 C 154.338 198.864, 159.010 174.843, 159.695 159.943 L 160.272 147.386 163.065 147.796 C 164.806 148.052, 165.675 148.684, 165.372 149.474 C 165.104 150.172, 165.618 151.475, 166.514 152.371 C 168.756 154.613, 177.357 154.490, 188.489 152.058 C 193.378 150.989, 197.762 150.353, 198.233 150.644 C 198.703 150.935, 200.152 150.476, 201.451 149.624 C 203.598 148.217, 203.872 148.224, 204.438 149.698 C 205.490 152.440, 207.233 183.198, 206.630 188.384 C 206.243 191.714, 205.416 193.721, 204.031 194.691 C 200.641 197.066, 201.464 201.629, 205.684 203.850 C 210.826 206.557, 216.227 204.362, 218.566 198.614 C 221.568 191.242, 221.603 170.461, 218.649 150.848 C 214.827 125.484, 211.111 118.912, 200.251 118.308 C 195.045 118.019, 193.842 118.374, 187.556 122.055 M 192.571 134.500 L 187.648 138 192.920 138 C 196.711 138, 199.039 138.604, 201.211 140.150 L 204.230 142.300 203.495 139.900 C 201.805 134.380, 200.021 131, 198.798 131 C 198.081 131, 195.278 132.575, 192.571 134.500 M 188.503 158.998 C 186.428 160.646, 182.879 162.462, 180.615 163.033 C 174.951 164.461, 167.755 167.081, 166.250 168.263 C 164.362 169.746, 164.750 173.750, 167 176 C 169.245 178.245, 175.156 178.661, 181 176.985 C 182.925 176.433, 187.875 173.373, 192 170.186 C 197.570 165.882, 199.582 163.695, 199.817 161.690 C 200.523 155.676, 194.489 154.240, 188.503 158.998 M 135.174 212.314 C 133.401 214.202, 133 215.831, 133 221.142 L 133 227.654 126.635 228.827 C 123.134 229.472, 118.608 230, 116.578 230 C 110.914 230, 104.044 232.050, 102.967 234.061 C 101.201 237.361, 103.436 240.771, 108.206 242.057 C 111.689 242.996, 114.342 242.892, 122.256 241.503 C 127.621 240.561, 132.618 240.023, 133.359 240.307 C 134.171 240.619, 134.939 243.144, 135.292 246.662 C 135.614 249.873, 136.622 257.371, 137.532 263.324 C 138.441 269.278, 138.899 274.434, 138.551 274.783 C 138.202 275.132, 131.073 275.748, 122.708 276.153 C 114.344 276.558, 105.700 277.145, 103.500 277.457 C 101.300 277.770, 92.226 278.433, 83.335 278.932 C 74.445 279.430, 66.285 280.312, 65.203 280.891 C 60.725 283.288, 61.731 287.695, 67.367 290.370 C 71.276 292.225, 77.172 292.443, 85.066 291.023 C 97.601 288.769, 124.267 287.742, 187.500 287.080 L 254.500 286.378 262.795 283.542 C 271.980 280.401, 274.699 277.629, 272.763 273.380 C 271.412 270.415, 268.995 269.942, 263.279 271.526 C 258.214 272.929, 200.685 275.030, 167.879 275.011 L 150.258 275 149.668 270.250 C 149.344 267.637, 148.772 259.538, 148.398 252.250 L 147.718 239 151.609 239 C 153.749 239, 160.900 238.121, 167.500 237.047 C 177.896 235.356, 179.801 234.747, 181.750 232.492 C 184.611 229.182, 184.579 227.778, 181.563 224.306 C 179.400 221.816, 178.889 221.645, 177.014 222.789 C 175.127 223.941, 147.999 227.298, 147.161 226.484 C 146.974 226.303, 146.723 223.140, 146.603 219.455 C 146.432 214.212, 145.975 212.455, 144.501 211.377 C 141.668 209.306, 137.618 209.713, 135.174 212.314" stroke="none" fill="black" fill-rule="evenodd"/>
</svg>