<svg xmlns="http://www.w3.org/2000/svg" width="300" height="300" viewBox="0 0 300 300" version="1.1">
	<path d="M 114.476 12.893 C 112.342 14.484, 109.450 17.351, 108.048 19.264 C 101.600 28.065, 94.046 37.749, 91.641 40.302 C 90.188 41.842, 89 43.351, 89 43.654 C 89 43.958, 86.412 47.250, 83.250 50.970 C 80.088 54.690, 76.608 58.806, 75.518 60.117 C 67.074 70.269, 60.787 77.735, 59.616 79 C 58.852 79.825, 56.679 82.539, 54.788 85.030 C 52.897 87.522, 50.258 90.726, 48.925 92.151 C 44.785 96.575, 42 100.134, 42 101.002 C 42 101.459, 41.602 101.983, 41.115 102.167 C 39.899 102.625, 31 117.852, 31 119.476 C 31 120.196, 30.367 121.029, 29.594 121.325 C 27.537 122.115, 26.638 127.448, 28.154 129.874 C 28.855 130.998, 30.345 132.071, 31.465 132.260 C 35.890 133.006, 38.759 130.448, 53.633 112.500 C 56.824 108.650, 59.676 105.275, 59.973 105 C 60.269 104.725, 61.738 102.853, 63.238 100.840 C 64.737 98.827, 67.579 95.468, 69.552 93.376 C 71.526 91.283, 73.506 88.919, 73.952 88.121 C 74.955 86.329, 76.466 135.059, 76.289 163.500 C 76.150 185.837, 76.246 186.338, 81.169 188.876 C 83.579 190.118, 84.162 190.028, 87.169 187.950 C 89.001 186.684, 90.594 185.596, 90.709 185.532 C 90.823 185.468, 91.445 182.060, 92.091 177.958 C 92.996 172.209, 92.975 161.104, 92.002 129.500 C 91.308 106.950, 90.459 88.275, 90.115 88 C 89.772 87.725, 88.633 84.912, 87.583 81.750 C 86.534 78.588, 85.275 76, 84.787 76 C 84.298 76, 85.159 74.313, 86.699 72.251 C 88.240 70.189, 89.826 68.051, 90.224 67.501 C 90.623 66.950, 93.323 63.660, 96.224 60.190 C 103.817 51.107, 107.835 45.958, 113.500 38.046 C 116.250 34.205, 119.063 31.049, 119.750 31.031 C 120.438 31.014, 121 30.524, 121 29.941 C 121 29.359, 122.366 27.182, 124.036 25.104 C 128.227 19.889, 129.010 14.610, 125.981 11.983 C 122.785 9.212, 119.013 9.510, 114.476 12.893 M 165.455 18.326 C 162.213 19.576, 155.398 25.389, 153.905 28.178 C 153.411 29.100, 153.266 30.528, 153.581 31.351 C 154.064 32.610, 157.497 32.862, 175.203 32.936 C 186.779 32.985, 197.431 33.305, 198.875 33.647 C 202.355 34.471, 205 36.867, 205 39.195 C 205 43.162, 195.578 58.740, 190.643 62.932 C 186.780 66.212, 185.307 67.723, 183.610 70.147 C 182.240 72.102, 178.827 72.908, 157.435 76.322 C 155.509 76.630, 155.439 76.396, 156.391 72.831 C 157.239 69.652, 156.872 66.700, 154.203 55.255 C 152.439 47.690, 150.996 40.300, 150.998 38.833 C 150.999 37.367, 150.621 36.017, 150.157 35.833 C 149.693 35.650, 148.681 32.132, 147.907 28.016 C 146.631 21.227, 146.235 20.440, 143.652 19.539 C 141.085 18.643, 140.481 18.898, 137.515 22.135 C 133.188 26.857, 132.268 33.016, 134.466 42.555 C 136.097 49.632, 139.520 59.660, 140.931 61.488 C 141.360 62.045, 142.250 64.705, 142.908 67.401 C 143.566 70.097, 144.768 73.584, 145.578 75.151 C 146.959 77.822, 146.927 78, 145.060 78 C 143.965 78, 141.479 79.397, 139.535 81.104 C 135.024 85.064, 134.563 90.024, 138.538 91.835 C 143.466 94.081, 151.482 94.299, 161.896 92.469 C 167.466 91.491, 172.181 90.872, 172.373 91.095 C 172.566 91.318, 172.506 95.395, 172.241 100.155 L 171.759 108.809 167.403 109.462 C 165.007 109.822, 162.785 110.540, 162.464 111.058 C 162.144 111.576, 161.071 112, 160.080 112 C 159.089 112, 154.953 113.055, 150.889 114.344 C 146.825 115.634, 141.025 117.313, 138 118.076 C 131.519 119.711, 128.706 121.932, 129.168 125.051 C 129.714 128.747, 134.257 131.319, 141.118 131.815 C 146.978 132.239, 157.372 130.649, 159.500 129.004 C 160.895 127.925, 167 126.698, 167 127.497 C 167 128.398, 158.250 139.830, 154.767 143.479 C 153.203 145.118, 151.667 147.480, 151.353 148.729 C 151.040 149.978, 150.214 151, 149.518 151 C 148.822 151, 143.212 156.287, 137.051 162.750 C 124.651 175.755, 122.824 179.362, 127.113 182.367 C 130.104 184.462, 134.264 184.443, 138.750 182.314 C 140.703 181.387, 148.984 174.023, 157.151 165.949 L 172 151.268 172 160.912 C 172 169.318, 171.743 170.775, 170 172.268 C 167.304 174.576, 167.264 180.535, 169.934 181.965 C 172.385 183.276, 175.888 183.283, 179.614 181.985 C 181.728 181.248, 183.167 179.572, 184.868 175.863 C 186.987 171.244, 187.256 168.975, 187.678 152.128 C 187.940 141.674, 188.626 132.513, 189.241 131.250 C 190.067 129.556, 190.012 128.391, 189.018 126.534 C 187.319 123.359, 189.033 121, 193.039 121 C 194.576 121, 195.983 120.653, 196.167 120.229 C 196.350 119.805, 199.650 118.145, 203.500 116.539 C 211.018 113.403, 219.878 107.440, 222.428 103.799 C 227.037 97.219, 220.867 90.809, 213.861 94.898 C 209.249 97.589, 196.295 102.585, 191.827 103.396 C 188.797 103.945, 188.053 103.742, 187.574 102.234 C 186.495 98.834, 186.493 89.109, 187.571 88.030 C 188.160 87.441, 192.660 86.448, 197.571 85.823 C 204.639 84.924, 206.969 84.208, 208.750 82.388 C 211.330 79.750, 211.812 75, 209.500 75 C 208.675 75, 208 74.586, 208 74.079 C 208 73.573, 206.564 72.843, 204.808 72.458 L 201.616 71.757 206.308 67.323 C 208.889 64.885, 211 62.502, 211 62.028 C 211 61.554, 211.361 61.017, 211.801 60.833 C 212.242 60.650, 214.318 57.125, 216.415 53 C 220.938 44.101, 222.384 34.527, 219.621 31.764 C 218.730 30.873, 218 29.643, 218 29.033 C 218 28.422, 216.309 26.163, 214.242 24.012 C 208.851 18.401, 202.560 16.980, 183.540 17.076 C 174.613 17.121, 167.263 17.629, 165.455 18.326 M 196.378 135.993 C 192.774 137.433, 192.498 141.656, 195.700 146.374 C 197.240 148.643, 199.247 151.060, 200.160 151.744 C 201.074 152.428, 203.542 155.353, 205.645 158.244 C 211.164 165.828, 211.257 165.944, 214 168.700 C 216.725 171.437, 227.053 177, 229.410 177 C 230.217 177, 232.367 178.367, 234.188 180.037 C 238.534 184.022, 241.259 184.637, 244.407 182.343 C 246.467 180.842, 246.943 179.648, 246.969 175.911 C 246.996 171.926, 246.542 170.905, 243.527 168.161 C 241.616 166.422, 239.773 165, 239.430 165 C 238.107 165, 222 153.994, 222 153.090 C 222 152.565, 221.029 151.827, 219.842 151.450 C 218.656 151.073, 216.006 149.131, 213.954 147.133 C 201.785 135.286, 200.379 134.395, 196.378 135.993 M 155.500 174.855 C 152.310 175.884, 149 178.372, 149 179.741 C 149 180.433, 148.611 181, 148.137 181 C 147.662 181, 146.064 183.813, 144.585 187.250 C 143.107 190.688, 141.441 194.329, 140.883 195.342 C 140.325 196.355, 139.608 200.293, 139.289 204.092 C 138.971 207.891, 138.325 211, 137.855 211 C 137.385 211, 137 210.550, 137 210 C 137 209.417, 133.667 209, 129 209 C 124.333 209, 121 209.417, 121 210 C 121 210.550, 119.712 211, 118.138 211 C 112.180 211, 100.814 223.163, 100.614 229.753 C 100.506 233.302, 100.678 233.517, 103.859 233.822 C 106.145 234.040, 107.903 233.514, 109.359 232.177 C 114.994 227, 118.054 226.008, 128.388 226.004 L 138.277 226 137.672 242.750 C 136.834 265.978, 137.339 264.705, 128.648 265.513 C 124.717 265.879, 110.475 266.292, 97 266.431 C 74.458 266.664, 72.140 266.853, 68 268.796 C 59.939 272.579, 56.406 277.264, 59.377 280.234 C 60.874 281.731, 82.286 282.990, 106.352 282.997 C 122.083 283.001, 160.091 280.117, 162.901 278.706 C 166.493 276.902, 218.100 277.008, 220.288 278.824 C 222.408 280.584, 258.516 281.050, 262.091 279.364 C 263.416 278.739, 266.433 277.648, 268.796 276.939 C 274.212 275.313, 280 270.002, 280 266.656 C 280 263.459, 274.847 258.966, 272.026 259.703 C 270.912 259.995, 270 260.596, 270 261.039 C 270 263.410, 262.109 264.243, 245.585 263.617 C 218.892 262.605, 208.579 261.868, 207.550 260.897 C 206.301 259.718, 184.478 259.734, 182.236 260.915 C 180.502 261.828, 151.870 264.097, 151.086 263.383 C 150.722 263.051, 153.922 227.646, 154.338 227.406 C 154.427 227.355, 159.321 226.802, 165.212 226.179 C 177.071 224.925, 187.307 221.945, 190.750 218.744 C 195.572 214.259, 191.945 206.197, 185.651 207.409 C 183.918 207.743, 180.588 208.296, 178.250 208.638 C 175.912 208.980, 174 209.652, 174 210.130 C 174 210.609, 169.950 211, 165 211 L 156 211 156 206.832 C 156 196.393, 159.396 185, 162.508 185 C 165.704 185, 164.551 176.798, 161.187 175.600 C 160.259 175.269, 159.050 174.821, 158.500 174.604 C 157.950 174.388, 156.600 174.500, 155.500 174.855" stroke="none" fill="black" fill-rule="evenodd"/>
</svg>