<svg xmlns="http://www.w3.org/2000/svg" width="300" height="300" viewBox="0 0 300 300" version="1.1">
	<path d="M 139.302 34.501 C 136.585 36.404, 135.492 41.170, 137.080 44.191 C 137.747 45.461, 140.043 48.607, 142.182 51.182 C 145.051 54.635, 145.929 56.472, 145.526 58.182 C 144.885 60.905, 145.655 62.256, 148.792 63.908 C 150.838 64.986, 151.456 64.744, 154.542 61.658 C 158.392 57.808, 158.813 55.189, 156.478 49.601 C 154.770 45.514, 149.213 36.162, 147.357 34.250 C 145.712 32.556, 141.909 32.675, 139.302 34.501 M 165 67.566 C 160.325 68.318, 152.657 69.392, 147.961 69.953 C 143.265 70.513, 137.190 71.386, 134.461 71.893 C 131.732 72.400, 125.148 73.132, 119.829 73.520 C 108.190 74.370, 104 76.331, 104 80.929 C 104 84.727, 107.154 86.994, 112.473 87.019 C 119.801 87.055, 162.982 80.539, 170.500 78.263 C 178.521 75.835, 182.342 70.742, 178.800 67.200 C 177.359 65.759, 176.001 65.795, 165 67.566 M 219.500 69.712 C 209.749 70.197, 200.654 72.001, 198.329 73.910 C 196.148 75.701, 195.662 76.969, 195.882 80.301 C 196.045 82.783, 202.173 85.265, 205.249 84.095 C 206.539 83.605, 213.578 82.873, 220.892 82.468 L 234.190 81.733 232.670 84.616 C 231.834 86.202, 229.128 91.026, 226.655 95.335 C 222.760 102.124, 222.157 103.947, 222.133 108.997 C 222.107 114.447, 222.550 115.564, 228.975 126.248 C 236.422 138.632, 240 147.854, 240 154.665 C 240 160.696, 237.529 163, 231.061 163 C 226.725 163, 225.550 162.505, 221.442 158.950 C 216.199 154.412, 214.613 154.292, 211.691 158.209 L 209.671 160.918 212.449 164.927 C 218.387 173.494, 228.207 177.442, 237.665 175.065 C 248.083 172.446, 252 166.723, 252 154.119 C 252 142.842, 248.601 134.338, 237.269 117.262 C 230.009 106.322, 229.576 108.615, 241.785 93.314 C 248.857 84.451, 249.104 83.960, 248.807 79.328 C 248.522 74.868, 248.216 74.375, 244.500 72.386 C 240.285 70.129, 231.022 69.138, 219.500 69.712 M 65.625 77.862 C 62.832 80.948, 62 85.854, 62 99.224 L 62 111.962 59.250 112.569 C 51.604 114.258, 43.216 117.512, 40.864 119.701 C 37.829 122.527, 38.028 124.739, 41.621 128.114 C 43.873 130.230, 44.366 130.308, 48.277 129.175 C 50.600 128.501, 54.581 127.367, 57.124 126.654 L 61.748 125.358 62.416 140.429 C 62.784 148.718, 63.006 160.127, 62.910 165.781 C 62.744 175.592, 62.617 176.155, 60.118 178.093 C 54.267 182.633, 41.107 196.327, 39.980 199.049 C 38.589 202.407, 39.386 206.827, 41.532 207.651 C 44.684 208.860, 48.350 206.621, 57.768 197.733 C 63.148 192.655, 71.772 184.900, 76.932 180.500 C 86.950 171.958, 101.611 155.397, 102.582 151.528 C 104.240 144.925, 97.216 142.636, 92.313 148.181 C 89.170 151.736, 73.625 167.017, 73.472 166.702 C 73.419 166.591, 73.565 156.454, 73.799 144.176 C 74.093 128.667, 74.570 121.751, 75.361 121.522 C 75.988 121.340, 80.459 120.367, 85.297 119.360 C 91.346 118.101, 94.729 116.853, 96.126 115.366 C 98.063 113.304, 98.080 113.056, 96.503 110.005 L 94.849 106.807 86.174 107.228 C 81.403 107.459, 76.713 108.001, 75.750 108.431 C 74.125 109.158, 74 108.112, 74 93.807 C 74 83.157, 73.629 78.029, 72.800 77.200 C 71.023 75.423, 67.542 75.744, 65.625 77.862 M 196.807 89.088 C 193.305 91.048, 192.672 96.339, 193.838 113.913 C 195.906 145.109, 197.083 172.508, 198.067 212.433 C 199.411 266.937, 200.396 287.050, 201.855 289.750 C 203.597 292.976, 208.423 292.810, 210.625 289.450 C 212.129 287.154, 212.240 283.733, 211.733 255.200 C 211.151 222.454, 209.087 173.419, 206.422 129 C 204.430 95.791, 202.101 86.125, 196.807 89.088 M 147.500 98.074 C 127.897 101.308, 123.989 102.652, 121.156 107.141 C 117.731 112.564, 130.673 114.493, 147.443 111.058 C 153.354 109.847, 158.395 109.061, 158.644 109.311 C 159.686 110.353, 154.485 117.857, 149.433 122.602 C 146.445 125.408, 144 128.342, 144 129.123 C 144 130.029, 140.836 131.547, 135.250 133.321 C 130.438 134.849, 125.977 136.327, 125.338 136.604 C 124.547 136.947, 124.038 135.092, 123.746 130.804 C 123.510 127.337, 122.130 121.350, 120.680 117.500 C 119.229 113.650, 118.033 109.669, 118.021 108.654 C 117.991 106.056, 114.912 101.139, 113.056 100.726 C 109.601 99.957, 106.071 102.103, 105.470 105.338 C 104.803 108.929, 106.751 117.123, 110.025 124.500 C 111.246 127.250, 112.781 131.525, 113.436 134 C 114.197 136.871, 115.430 138.900, 116.841 139.605 C 118.786 140.578, 118.869 140.864, 117.527 141.978 C 115.697 143.497, 115.548 146.148, 117.200 147.800 C 119.234 149.834, 127.595 149.181, 134.270 146.466 C 142.738 143.022, 152.835 140.769, 156.652 141.473 C 162.736 142.594, 165.126 136.897, 160.250 132.895 L 157.500 130.637 163.663 124.498 C 169.947 118.239, 172.334 113.249, 172.191 106.673 C 172.111 103.003, 169.550 99.160, 166.383 97.955 C 163.452 96.841, 154.639 96.897, 147.500 98.074 M 123.018 154.740 C 120.545 155.710, 119.004 157.732, 118.387 160.815 C 117.648 164.510, 120.760 167, 126.116 167 L 129.787 167 128.776 170.985 C 128.086 173.701, 128.110 179.813, 128.851 190.183 C 129.448 198.550, 129.839 205.451, 129.719 205.519 C 129.598 205.586, 121.455 209.659, 111.621 214.571 C 91.945 224.398, 83.536 230.692, 84.165 235.121 C 84.357 236.476, 85.306 237.633, 86.395 237.841 C 89.339 238.403, 101.093 233.691, 117.272 225.464 C 127.304 220.363, 132.173 218.361, 132.443 219.226 C 133.580 222.854, 135 237.153, 135 244.969 C 135 257.371, 134.005 258.160, 123.539 254.051 C 117.526 251.691, 113.173 255.562, 116.364 260.433 C 118.635 263.898, 127.572 268, 132.852 268 C 138.581 268, 142.943 264.780, 145.989 258.302 C 147.985 254.054, 148.181 252.462, 147.682 244.500 C 147.048 234.384, 145.304 217.905, 144.429 213.773 C 143.887 211.217, 144.300 210.828, 151.051 207.543 C 161.026 202.688, 163.494 198.860, 158.777 195.557 C 155.748 193.435, 153.370 193.636, 147.500 196.511 L 142.500 198.959 141.761 196.230 C 141.354 194.728, 140.726 189.350, 140.365 184.278 C 139.616 173.749, 139.940 173.005, 146.548 170.082 C 155.722 166.024, 156.070 158.575, 147.226 155.561 C 142.718 154.025, 126.261 153.467, 123.018 154.740" stroke="none" fill="black" fill-rule="evenodd"/>
</svg>