<svg xmlns="http://www.w3.org/2000/svg" width="300" height="300" viewBox="0 0 300 300" version="1.1">
	<path d="M 188.500 29.017 C 177.323 30.172, 157.993 34.696, 155.816 36.666 C 154.658 37.715, 154 39.710, 154 42.176 C 154 47.422, 156.793 48.746, 164.996 47.389 L 170.896 46.413 169.092 49.957 C 168.100 51.906, 166.374 55.525, 165.256 58 C 164.138 60.475, 160.881 65.650, 158.017 69.500 C 151.937 77.675, 149.973 81.216, 148.905 85.935 C 147.868 90.515, 149.985 95.424, 153.864 97.429 C 157.383 99.250, 168.064 100.952, 176.142 100.980 L 181.783 101 180.025 108.750 C 177.873 118.230, 175.010 128.152, 174.036 129.500 C 173.639 130.050, 171.618 135.675, 169.544 142 C 165.167 155.354, 160.441 167.596, 158.502 170.604 C 157.756 171.761, 156.842 174.323, 156.472 176.298 C 155.905 179.323, 156.201 180.292, 158.354 182.445 C 161.508 185.599, 165.015 185.714, 167.655 182.750 C 171.479 178.457, 180.052 158.824, 183.483 146.500 C 184.249 143.750, 186.455 137.225, 188.385 132 L 191.896 122.500 191.948 129.540 C 192.077 146.915, 200.837 164.331, 211.973 169.350 C 215.810 171.080, 218.406 171.374, 229 171.280 C 247.076 171.118, 275.044 165.496, 282.274 160.570 C 285.089 158.652, 285.489 157.834, 285.410 154.143 C 285.336 150.644, 284.653 149.229, 281.458 145.957 C 279.333 143.780, 276.818 142, 275.870 142 C 274.281 142, 271.991 144.315, 269.500 148.439 C 267.824 151.213, 229.596 157.599, 221.968 156.379 C 215.102 155.281, 209.655 149.189, 207.668 140.388 C 204.896 128.110, 204.717 123.997, 206.525 114.158 C 207.924 106.546, 208.011 104.389, 206.997 102.494 C 205.489 99.678, 202.657 98.800, 199.254 100.094 C 196.539 101.126, 195.420 100.747, 196.417 99.134 C 197.045 98.117, 198.898 97.691, 218.795 93.984 C 237.391 90.519, 243.106 85.034, 236.411 77.077 C 233.401 73.499, 231.451 73.228, 228.520 75.981 C 226.875 77.526, 224.113 78.173, 215.956 78.923 C 210.205 79.451, 204.141 80.298, 202.480 80.806 L 199.460 81.729 199.792 71.614 C 199.975 66.051, 199.746 57.393, 199.282 52.374 L 198.439 43.248 204.970 42.631 C 208.561 42.292, 215.847 42.011, 221.161 42.007 C 230.718 42, 230.850 41.967, 233.411 38.923 C 236.462 35.298, 236.665 33.091, 234.194 30.439 C 232.548 28.672, 230.796 28.486, 214.444 28.345 C 204.575 28.260, 192.900 28.562, 188.500 29.017 M 100.500 33.716 C 98.850 33.945, 88.578 35.902, 77.672 38.066 C 65.258 40.529, 55.045 42, 50.357 42 C 41.600 42, 39.602 42.833, 38.112 47.108 C 36.600 51.445, 38.481 55.135, 43.012 56.721 C 47.710 58.365, 55.326 57.587, 79.500 52.993 C 90.500 50.903, 102.537 48.872, 106.250 48.480 L 113 47.767 113 55.812 C 113 64.746, 111.839 66.983, 107.179 67.024 C 105.705 67.036, 101.350 67.880, 97.500 68.898 C 93.650 69.916, 86.107 71.534, 80.738 72.494 L 70.977 74.240 68.916 71.620 C 66.319 68.319, 63.299 68.250, 61.837 71.458 C 60.977 73.346, 59.496 74.170, 55.459 75.008 C 51.021 75.930, 49.959 76.599, 48.648 79.300 C 46.761 83.189, 47.951 85.689, 52.792 88 C 54.742 88.931, 55.772 90.069, 55.508 91 C 53.961 96.468, 48.758 131.814, 47.879 142.832 C 46.602 158.845, 47.608 166.527, 51.766 172.500 C 58.332 181.932, 66.541 182.306, 88.500 174.172 C 92.900 172.542, 98.975 170.430, 102 169.478 C 105.025 168.527, 108.993 166.902, 110.818 165.868 L 114.136 163.987 119.070 169.386 C 124.601 175.438, 130.639 178.458, 135.205 177.455 C 140.981 176.186, 141.466 169.084, 136.022 165.500 C 131.973 162.834, 125.477 154.007, 121.673 146 C 119.974 142.425, 118.341 139.275, 118.042 139 C 117.049 138.084, 113.960 132.546, 112.454 128.980 C 111.636 127.044, 110.077 124.905, 108.989 124.225 C 106.148 122.451, 103.502 125.433, 102.094 131.996 C 100.833 137.875, 101.824 143.281, 105.162 148.732 C 107.565 152.657, 106.918 154, 102.622 154 C 98.241 154, 90.096 156.459, 81 160.527 C 70.136 165.386, 65.539 166.257, 62.734 163.987 C 60.624 162.279, 60.500 161.438, 60.500 148.839 C 60.500 141.503, 60.867 132.522, 61.315 128.883 L 62.131 122.266 67.566 121.705 C 70.556 121.397, 75.364 120.028, 78.251 118.665 C 81.138 117.301, 86.650 114.948, 90.500 113.436 C 94.350 111.923, 97.950 110.347, 98.500 109.932 C 99.050 109.518, 101.300 108.846, 103.500 108.440 C 109.705 107.294, 118.689 102.190, 119.878 99.136 C 128.024 78.220, 131.515 49.247, 126.882 41.004 C 123.701 35.344, 118.703 32.968, 110.364 33.150 C 106.589 33.232, 102.150 33.487, 100.500 33.716 M 180.914 54.745 C 175.051 66.380, 167.365 79.704, 165.293 81.821 C 162.697 84.475, 164.196 85, 174.361 85 L 184.721 85 185.352 79.750 C 185.699 76.862, 185.987 69.308, 185.991 62.961 C 185.998 53.628, 186.362 50.713, 187.892 47.711 C 189.653 44.258, 189.664 44, 188.057 44 C 186.862 44, 184.656 47.320, 180.914 54.745 M 102 83.104 C 92.377 85.899, 83.096 87.832, 75.632 88.597 C 68.313 89.347, 68.566 89.030, 66.508 100 C 66.146 101.925, 65.634 104.273, 65.368 105.217 C 64.867 107.003, 66.113 106.656, 81.500 100.733 C 87.759 98.324, 94.948 96.269, 101.697 94.961 C 107.180 93.899, 107.953 93.458, 108.413 91.130 C 109.895 83.619, 110.142 81.010, 109.361 81.109 C 108.888 81.168, 105.575 82.066, 102 83.104 M 148 195.709 C 143.828 197.243, 139 205.222, 139 210.583 C 139 212.832, 138.634 213, 133.750 213.005 C 122.440 213.014, 86.108 216.893, 83.190 218.402 C 78.671 220.739, 77.566 225.392, 80.829 228.345 C 82.981 230.293, 91.621 230.521, 108 229.064 C 113.775 228.550, 123.041 227.832, 128.591 227.468 L 138.683 226.807 139.351 240.800 C 139.995 254.302, 138.920 267.893, 136.956 271.070 C 136.298 272.137, 130.551 272.588, 110.806 273.124 C 96.888 273.502, 81.004 274.153, 75.509 274.571 C 66.494 275.255, 65.252 275.594, 62.810 278.036 C 59.465 281.381, 58.382 285.347, 59.901 288.683 C 60.904 290.884, 61.482 291.130, 64.278 290.548 C 71.577 289.027, 90.688 288.006, 129 287.088 C 151.275 286.555, 180.300 285.427, 193.500 284.581 C 206.700 283.735, 231.797 282.619, 249.271 282.101 C 277.491 281.265, 281.403 280.949, 284.271 279.281 C 286.802 277.808, 287.553 276.656, 287.746 273.951 C 287.881 272.053, 287.345 269.663, 286.556 268.641 C 285.211 266.900, 283.317 266.791, 256.810 266.922 C 240.111 267.005, 217.836 267.847, 202.500 268.976 C 188.200 270.029, 170.263 271.204, 162.639 271.586 C 149.249 272.258, 148.813 272.217, 149.781 270.391 C 151.653 266.861, 153 254.164, 153 240.058 L 153 226 180.364 226 C 208.445 226, 217.003 225.213, 220.180 222.337 C 223.796 219.065, 221.691 211.081, 217.179 210.952 C 207.144 210.667, 164.064 211.186, 159.357 211.650 L 153.215 212.254 152.513 209.060 C 152.010 206.769, 152.262 205.368, 153.406 204.104 C 157.386 199.706, 153.508 193.684, 148 195.709" stroke="none" fill="black" fill-rule="evenodd"/>
</svg>