<svg xmlns="http://www.w3.org/2000/svg" width="300" height="300" viewBox="0 0 300 300" version="1.1">
	<path d="M 186 29.044 C 180.775 29.457, 172.450 30.492, 167.500 31.343 C 162.550 32.194, 154 33.380, 148.500 33.980 C 135.573 35.388, 131 37.268, 131 41.173 C 131 45.886, 133.989 46.574, 148.298 45.153 C 155.009 44.487, 165.225 43.290, 171 42.493 C 180.632 41.163, 208 40.394, 208 41.453 C 208 41.702, 207.494 43.165, 206.875 44.703 C 206.257 46.241, 205.401 48.400, 204.973 49.500 C 204.545 50.600, 202.807 54.497, 201.111 58.160 C 198.722 63.318, 197.628 64.716, 196.261 64.358 C 191.839 63.202, 160.260 73.538, 143.596 81.596 C 141.999 82.368, 140.142 83, 139.469 83 C 136.999 83, 135.625 85.882, 136.832 88.530 C 137.850 90.764, 138.540 91, 144.058 91 C 148.194 91, 152.308 90.177, 156.829 88.445 C 164.695 85.432, 172.797 82.426, 186.500 77.440 C 192 75.438, 197.132 73.283, 197.904 72.650 C 198.676 72.018, 200.120 71.638, 201.114 71.806 C 203.943 72.285, 206.331 70.504, 208.448 66.336 C 209.519 64.226, 211.135 61.600, 212.038 60.500 C 212.941 59.400, 215.327 55.447, 217.340 51.716 C 221.734 43.570, 222.207 37.804, 218.832 33.514 C 214.502 28.008, 208.824 27.235, 186 29.044 M 126.667 49.667 C 126.300 50.033, 126 53.123, 126 56.533 C 126 59.943, 124.875 68.703, 123.500 76 C 122.125 83.297, 121 91.991, 121 95.319 C 121 100.992, 117.513 135.854, 116.460 140.715 C 116.145 142.168, 115.471 142.734, 114.500 142.361 C 113.570 142.005, 110.503 144.164, 106.260 148.162 C 100.203 153.869, 91.620 161, 90.809 161 C 90.639 161, 90.500 157.063, 90.500 152.250 C 90.500 147.438, 90.134 135.287, 89.686 125.250 C 88.990 109.657, 89.081 107, 90.311 107 C 92.363 107, 103.167 102.124, 105.250 100.258 C 107.529 98.216, 107.489 93.752, 105.171 91.655 C 102.779 89.490, 100.832 89.567, 96.500 92 C 90.840 95.179, 89.671 94.752, 90.346 89.750 C 90.662 87.412, 91.220 79.994, 91.588 73.265 C 92.348 59.323, 91.374 55, 87.472 55 C 85.573 55, 84.661 56.263, 82.078 62.468 C 79.619 68.375, 78.720 72.533, 77.779 82.354 L 76.590 94.771 68.459 95.197 C 58.316 95.730, 53.654 98.032, 53.191 102.737 C 52.693 107.802, 56.360 109.533, 67.207 109.357 L 76 109.214 76 114.343 C 76 117.165, 76.661 126.904, 77.469 135.986 C 79.162 155.015, 79.778 169, 78.923 169 C 77.002 169, 60.909 179.836, 57.860 183.183 C 52.168 189.429, 50.377 193.337, 51.787 196.433 C 53.209 199.552, 57.085 199.884, 59.711 197.111 C 60.695 196.071, 67.800 191.044, 75.500 185.938 C 92.694 174.536, 102.068 167.619, 109.391 160.925 C 116.207 154.696, 116.068 153.942, 112.438 177.500 C 108.368 203.909, 104.073 221.902, 96.804 243 C 93.341 253.052, 90.388 258.270, 85.550 262.890 C 81.585 266.677, 81.235 268.092, 83.664 270.521 C 86.751 273.609, 92.695 271.081, 98.461 264.229 C 101.815 260.243, 108.214 247.928, 110.271 241.500 C 116.521 221.971, 120.533 206.201, 121.877 195.875 C 122.334 192.369, 123.883 181.625, 125.320 172 C 126.757 162.375, 129.089 140.775, 130.502 124 C 131.915 107.225, 133.530 89.648, 134.091 84.941 C 135.953 69.319, 134.935 54.341, 131.733 50.250 C 130.684 48.910, 127.760 48.573, 126.667 49.667 M 181.031 93.956 C 179.873 95.582, 177.762 100.609, 176.341 105.127 C 173.463 114.269, 173.501 118.612, 176.638 139 C 179.725 159.064, 182.838 166.233, 188.715 166.808 C 193.386 167.265, 194.534 164.500, 192.478 157.746 C 190.122 150.004, 187.760 118.664, 188.516 105.194 C 189.184 93.305, 188.604 91, 184.946 91 C 183.950 91, 182.189 92.330, 181.031 93.956 M 223 101.535 C 216.951 105.621, 215.328 107.335, 211.674 113.500 C 209.718 116.800, 205.618 122.339, 202.563 125.809 C 195.499 133.832, 194.840 136.180, 198.562 140.065 L 201.374 143 214.987 143 C 229.655 143, 231 142.573, 231 137.914 C 231 132.790, 222.789 130.813, 213 133.579 L 210.500 134.285 213.106 131.393 C 214.540 129.802, 217.856 125.350, 220.477 121.500 C 223.097 117.650, 226.499 113.150, 228.036 111.500 C 231.132 108.176, 231.762 105.857, 230.684 101.750 C 229.800 98.384, 227.750 98.327, 223 101.535 M 140.753 111.390 C 139.793 112.119, 138.745 114.027, 138.424 115.631 C 137.667 119.417, 139.757 121.268, 147.189 123.394 C 151.293 124.567, 153.472 125.854, 155.007 128.010 C 157.087 130.931, 159.225 131.618, 162.418 130.393 C 163.563 129.954, 164 128.431, 164 124.875 C 164 120.592, 163.566 119.551, 160.603 116.732 C 158.734 114.955, 155.773 112.713, 154.022 111.750 C 150.280 109.694, 143.239 109.502, 140.753 111.390 M 164.338 130.999 C 163.149 131.478, 161.908 132.715, 161.581 133.746 C 160.637 136.718, 155.001 141.607, 148.731 144.891 C 141.385 148.739, 139.179 150.299, 137.309 152.970 C 134.967 156.313, 137.909 159.001, 143.905 158.996 C 149.016 158.992, 151.421 157.734, 160.487 150.326 C 169.652 142.836, 173.170 135.274, 169.171 131.655 C 167.113 129.792, 167.275 129.814, 164.338 130.999 M 166.254 166.250 C 163.545 169.668, 161.690 175.273, 162.720 176.924 C 165.681 181.665, 157.055 208.481, 149.287 218.684 C 147.592 220.911, 146.959 222.864, 147.182 225.184 C 147.462 228.102, 147.884 228.537, 150.695 228.809 C 155.094 229.235, 158.138 226.950, 163.188 219.430 L 167.500 213.010 173.125 213.005 C 176.219 213.002, 180.156 212.719, 181.875 212.375 L 185 211.750 184.985 219.125 C 184.976 223.181, 184.639 227.005, 184.235 227.623 C 183.294 229.061, 169.613 234, 166.570 234 C 165.298 234, 159.588 235.347, 153.879 236.994 C 148.171 238.640, 141.700 239.997, 139.500 240.009 C 134.234 240.037, 132.573 241.164, 133.333 244.193 C 134.181 247.567, 139.826 250.002, 146.784 249.992 C 152.631 249.984, 174.315 245.907, 179.232 243.892 C 184.046 241.919, 185 243.125, 185 251.178 C 185 259.967, 187.690 283.494, 189.109 287.120 C 190.496 290.662, 193.986 292.192, 197.107 290.626 C 199.883 289.234, 199.822 290.578, 198.540 258.958 L 197.708 238.417 202.104 237.105 C 209.221 234.981, 223.321 228.679, 225.233 226.767 C 228.552 223.448, 226.531 216.989, 222.179 217.007 C 221.255 217.011, 216.333 218.586, 211.241 220.507 C 197.930 225.528, 198 225.548, 198 216.709 L 198 209.419 207.051 206.986 C 216.716 204.389, 226.659 199.623, 228.423 196.741 C 229.782 194.523, 227.319 189.685, 224.560 189.154 C 223.531 188.956, 219.721 189.723, 216.094 190.860 C 212.467 191.996, 206.865 193.597, 203.644 194.418 L 197.787 195.911 198.030 185.206 C 198.164 179.317, 198.212 173.982, 198.137 173.348 C 197.952 171.793, 192.626 170.024, 190.111 170.681 C 186.805 171.546, 184.500 179.156, 184.503 189.189 L 184.506 197.878 178.763 199.325 C 173.074 200.758, 173.024 200.751, 173.497 198.636 C 177.146 182.319, 177.976 175.790, 176.928 171.630 C 176.155 168.557, 175.086 166.905, 173.365 166.120 C 170.142 164.652, 167.482 164.700, 166.254 166.250" stroke="none" fill="black" fill-rule="evenodd"/>
</svg>