<svg xmlns="http://www.w3.org/2000/svg" width="300" height="300" viewBox="0 0 300 300" version="1.1">
	<path d="M 185.500 30.060 C 178.900 31.091, 166.210 32.586, 157.301 33.382 C 140.252 34.906, 136.624 36.101, 135.695 40.500 C 135.305 42.344, 135.262 42.330, 135.136 40.323 C 135.061 39.125, 133.846 37.238, 132.436 36.128 C 129.196 33.580, 126.337 34.473, 123.250 38.998 C 121.115 42.128, 121 43.243, 121.008 60.898 C 121.017 79.289, 122.731 97.674, 124.981 103.498 C 126.690 107.921, 128.962 110, 132.088 110 C 135.652 110, 136.394 107.796, 136.125 97.998 L 135.920 90.497 148.439 88.725 C 155.324 87.751, 161.642 86.691, 162.479 86.370 C 163.782 85.870, 164 87.313, 164 96.424 C 164 104.029, 163.643 107.191, 162.750 107.512 C 161.597 107.927, 153.482 109.454, 138.506 112.074 C 130.499 113.474, 124.556 116.222, 122.394 119.522 C 120.798 121.957, 120.768 122.496, 122.092 124.865 C 124.469 129.116, 129.391 129.763, 140.292 127.256 C 145.356 126.091, 151.525 124.860, 154 124.521 C 156.475 124.182, 159.570 123.638, 160.878 123.312 L 163.256 122.719 162.531 137.215 C 161.397 159.904, 162.511 157.926, 148.965 161.306 C 133.692 165.118, 126.953 166.953, 124.304 168.021 C 122.287 168.836, 122.067 168.566, 121.600 164.704 C 121.321 162.392, 120.874 157.260, 120.608 153.301 C 120.342 149.341, 119.631 145.179, 119.027 144.051 C 117.441 141.087, 113.415 138.734, 111.157 139.450 C 107.354 140.657, 106.589 145.073, 107.709 159.347 L 108.741 172.500 105.199 175.582 C 100.976 179.257, 101.322 181.401, 106.486 183.559 L 110 185.027 110 218.546 C 110 246.545, 109.745 252.675, 108.451 255.771 C 105.722 262.303, 108.823 266.265, 115.377 264.620 C 119.880 263.490, 121.739 258.486, 123.500 242.750 C 124.076 237.609, 124.387 237, 126.437 237 C 127.698 237, 129.854 236.116, 131.227 235.036 C 132.600 233.956, 135.473 232.634, 137.612 232.098 C 139.750 231.562, 148.700 229.146, 157.500 226.728 C 166.300 224.310, 175.750 221.784, 178.500 221.115 C 186.443 219.183, 196.827 213.961, 200.068 210.269 L 203.048 206.876 208.515 218.188 C 211.522 224.410, 213.986 230.412, 213.991 231.527 C 214.016 237.028, 220.820 240.177, 224.193 236.250 C 228.360 231.398, 227.129 224.392, 218.598 204.427 C 215.091 196.217, 211.485 186.608, 210.585 183.073 C 208.783 175.988, 207.573 173.984, 205.128 174.032 C 200.578 174.121, 197.676 179.498, 197.576 188.025 C 197.516 193.152, 197.030 195.147, 195.307 197.338 C 191.912 201.653, 182.623 205.535, 171.134 207.439 C 168.020 207.955, 167.816 207.828, 168.407 205.748 C 170.129 199.700, 173.082 183.962, 173.657 177.782 C 174.329 170.548, 175.754 168, 179.126 168 C 180.217 168, 188.847 165.763, 198.305 163.030 C 221.819 156.233, 230.700 154.574, 233.554 156.444 C 234.747 157.225, 235.979 159.145, 236.292 160.710 C 240.013 179.315, 239.686 228.351, 235.697 250 C 233.486 261.998, 230.975 270.441, 227.922 276.145 C 227.001 277.866, 226.676 277.891, 223.343 276.499 C 218.638 274.533, 216.665 274.608, 214.655 276.829 C 210.571 281.341, 215.213 287.892, 223.984 289.996 C 228.484 291.076, 229.406 290.982, 233.434 289.032 C 241.631 285.064, 246.312 275.013, 249.981 253.500 C 254.352 227.875, 255.241 200.396, 252.527 174.825 C 250.866 159.171, 250.402 156.870, 247.902 151.876 C 242.037 140.161, 232.489 139.480, 199.500 148.428 C 190.700 150.815, 181.763 153.074, 179.640 153.450 L 175.780 154.132 176.362 146.316 C 176.682 142.017, 177.220 134.155, 177.558 128.845 L 178.172 119.190 181.336 118.646 C 183.076 118.346, 186.610 117.806, 189.190 117.446 C 195.158 116.612, 197.748 114.030, 196.416 110.241 C 195.135 106.600, 191.637 105.032, 184.750 105.015 L 179 105 179 93.500 C 179 82.872, 179.144 82, 180.898 82 C 184.312 82, 199.933 75.791, 202.497 73.415 C 205.522 70.612, 205.655 68.655, 203 66 C 200.471 63.471, 196.851 63.471, 189.500 66 C 179.096 69.580, 179.256 69.724, 179.776 57.250 C 180.022 51.337, 180.556 46.139, 180.963 45.698 C 181.869 44.718, 198.119 42.009, 203.128 42.004 C 209.332 41.997, 209.477 42.656, 208.059 64.294 C 206.712 84.837, 205.144 93.903, 201.953 99.583 C 200.223 102.663, 200.128 103.496, 201.242 105.819 C 202.314 108.057, 203.179 108.500, 206.471 108.500 C 210.067 108.500, 210.659 108.104, 213.188 104 C 220.046 92.873, 222.988 78.455, 222.981 56 C 222.977 40.230, 222.369 36.642, 219.159 33.432 C 213.282 27.555, 206.130 26.839, 185.500 30.060 M 136 59.980 C 136 68.058, 136.228 74.894, 136.506 75.173 C 137.070 75.737, 163.994 72.339, 164.721 71.613 C 164.974 71.359, 165.428 65.812, 165.728 59.285 L 166.275 47.418 156.388 47.768 C 149.962 47.995, 144.662 47.623, 141.250 46.705 L 136 45.293 136 59.980 M 59.337 69.182 C 58.147 69.757, 56.916 70.964, 56.601 71.864 C 56.286 72.764, 55.194 74.850, 54.174 76.500 C 52.458 79.276, 49.041 96.857, 47.417 111.257 L 46.768 117.014 36.881 120.086 C 30.354 122.113, 26.018 122.943, 24.123 122.527 C 20.383 121.706, 13.310 124.727, 12.576 127.459 C 9.800 137.790, 16.387 140.191, 36 136 C 41.147 134.900, 45.503 134, 45.679 134 C 45.856 134, 46.053 146.938, 46.117 162.750 C 46.181 178.563, 46.519 194.425, 46.867 198 L 47.500 204.500 39.907 209.602 C 35.730 212.409, 30.105 215.912, 27.407 217.388 C 18.840 222.072, 11 230.409, 11 234.833 C 11 236.837, 13.408 240, 14.934 240 C 15.369 240, 17.402 238.667, 19.451 237.039 C 21.501 235.410, 25.648 233.153, 28.667 232.023 C 34.910 229.688, 62.842 211.453, 71.179 204.271 C 74.225 201.647, 80.185 196.866, 84.423 193.646 C 92.630 187.411, 94.531 184.526, 93.031 180.581 C 91.174 175.696, 86.613 175.601, 81.500 180.339 C 78.607 183.019, 61.398 196, 60.737 196 C 59.826 196, 61.184 128.599, 62.119 127.412 C 62.590 126.813, 64.894 125.758, 67.238 125.066 C 73.732 123.149, 81.118 118.820, 82.042 116.390 C 83.311 113.053, 82.131 110.258, 79.219 109.702 C 76.731 109.226, 64.531 110.554, 63.066 111.459 C 62.679 111.699, 62.526 110.456, 62.727 108.697 C 63.644 100.681, 67.233 78.110, 68.157 74.553 C 69.034 71.179, 68.924 70.418, 67.400 69.303 C 65.302 67.769, 62.349 67.724, 59.337 69.182 M 149.500 175.647 C 144.550 177.003, 139.010 178.496, 137.190 178.964 C 135.369 179.433, 131.471 180.794, 128.526 181.989 L 123.172 184.162 123.622 195.831 C 123.870 202.249, 124.319 210.331, 124.620 213.791 C 125.134 219.688, 125.303 220.038, 127.334 219.393 C 128.525 219.015, 131.750 218.134, 134.500 217.435 C 137.250 216.737, 142.938 215.170, 147.139 213.953 L 154.778 211.740 156.358 203.620 C 157.636 197.054, 160 177.756, 160 173.894 C 160 172.754, 160.151 172.729, 149.500 175.647" stroke="none" fill="black" fill-rule="evenodd"/>
</svg>