<svg xmlns="http://www.w3.org/2000/svg" width="300" height="300" viewBox="0 0 300 300" version="1.1">
	<path d="M 178.898 16.285 C 175.167 18.793, 173.181 23.239, 172.993 29.500 C 172.882 33.203, 172.799 33.314, 171.880 31 C 169.546 25.129, 160.535 20, 152.552 20 C 145.640 20, 133.310 21.958, 130.266 23.539 C 128.315 24.552, 127.388 24.643, 127.120 23.847 C 125.486 18.999, 118.803 17.351, 115.514 20.984 C 112.920 23.850, 111.567 39.874, 112.771 53.474 C 113.791 64.998, 114.721 66.928, 119.430 67.288 C 124.573 67.680, 125.870 64.346, 126.631 48.784 C 127.100 39.175, 127.630 35.282, 128.400 35.784 C 129.005 36.178, 135.565 36.500, 142.977 36.500 C 154.402 36.500, 156.502 36.738, 156.765 38.064 C 157.107 39.787, 150.505 47, 148.587 47 C 148.313 47, 146.488 48.086, 144.531 49.414 C 142.574 50.742, 139.067 52.141, 136.737 52.523 C 128.703 53.840, 126.585 58.790, 132.077 63.411 C 135.661 66.427, 139.255 66.656, 151.500 64.648 C 159.744 63.296, 164.631 61.355, 167.012 58.486 C 168.096 57.180, 168.140 56.209, 167.226 53.787 C 166.182 51.022, 166.353 50.395, 169.037 47.139 C 170.667 45.162, 172.026 42.634, 172.057 41.522 C 172.088 40.410, 173.370 43.647, 174.906 48.716 C 176.442 53.785, 178.220 58.560, 178.857 59.328 C 180.376 61.157, 189.165 62.162, 207 62.546 C 222.601 62.881, 224.942 62.238, 225.047 57.595 C 225.077 56.284, 227.187 53.825, 230.685 51.025 C 238.607 44.684, 244.127 37.053, 244.742 31.594 C 246.315 17.640, 228.715 10.528, 208.450 16.929 C 201.354 19.170, 194 24.438, 194 27.279 C 194 30.878, 196.519 31.316, 213.029 30.591 C 226.278 30.009, 229 30.124, 229 31.268 C 229 33.298, 223.108 41.100, 218.406 45.297 C 214.640 48.658, 214.041 48.872, 210.913 47.975 C 206.019 46.572, 199.893 46.774, 195 48.500 C 192.662 49.325, 190.355 50, 189.874 50 C 189.393 50, 189 42.601, 189 33.557 C 189 17.698, 188.921 17.058, 186.777 15.557 C 183.837 13.497, 182.918 13.582, 178.898 16.285 M 48.167 57.711 C 44.380 61.020, 44.004 64.458, 45.379 83.236 C 46.083 92.860, 45.992 95.037, 44.869 95.336 C 43.529 95.694, 40.643 96.696, 26.500 101.719 C 22.650 103.086, 18.713 104.903, 17.750 105.757 C 15.447 107.800, 15.492 113.230, 17.829 115.345 C 20.093 117.395, 27.026 117.523, 31.349 115.595 C 33.082 114.822, 37.255 113.296, 40.622 112.203 L 46.744 110.218 47.345 117.359 C 47.676 121.286, 48.471 136.579, 49.113 151.342 L 50.279 178.184 40.803 187.842 C 26.709 202.206, 22.530 208.389, 22.706 214.616 C 22.835 219.159, 25.436 222, 29.466 222 C 33.409 222, 36.401 219.289, 39.192 213.189 C 40.753 209.777, 46.589 203.326, 60.621 189.500 C 81.952 168.482, 89.417 159.670, 88.567 156.507 C 88.270 155.403, 88.021 154.214, 88.014 153.864 C 88.006 153.514, 86.393 152.465, 84.429 151.533 C 80.961 149.887, 80.763 149.904, 77.524 152.124 C 75.690 153.380, 73.507 155.554, 72.672 156.954 C 71.837 158.354, 69.615 160.983, 67.733 162.795 L 64.312 166.090 63.656 151.045 C 63.295 142.770, 62.730 129.363, 62.399 121.250 L 61.798 106.500 65.305 104.185 C 69.893 101.157, 72.201 96.536, 70.734 93.316 C 69.476 90.554, 65.445 89.241, 62.971 90.786 C 61.411 91.760, 61.136 91.021, 60.122 83.114 C 59.505 78.302, 59 71.649, 59 68.330 C 59 63.701, 58.468 61.506, 56.715 58.905 C 53.765 54.528, 52.080 54.293, 48.167 57.711 M 215 72.082 C 202.079 73.499, 168.223 77.958, 150.500 80.577 C 141.150 81.958, 126.975 83.925, 119 84.947 C 111.025 85.969, 103.150 87.406, 101.500 88.141 C 95.030 91.022, 94.296 94.062, 99.349 97.043 L 102.698 99.019 103.973 114.068 C 106.449 143.293, 100.956 184.481, 90.379 216 C 88.441 221.775, 86.490 228.075, 86.044 230 C 84.769 235.496, 76.650 253.931, 70.033 266.358 C 66.715 272.589, 64 278.632, 64 279.787 C 64 282.035, 67.427 285, 70.026 285 C 73.996 285, 79.566 276.572, 91.502 252.500 C 101.673 231.988, 112.003 197.902, 114.036 178.145 C 114.582 172.840, 115.707 163.550, 116.537 157.500 C 117.367 151.450, 118.323 139.975, 118.662 132 C 119.199 119.346, 119.016 116.482, 117.227 109.500 C 116.100 105.100, 114.887 100.772, 114.533 99.883 C 113.973 98.479, 115.251 98.179, 124.194 97.608 C 129.862 97.247, 146.650 95.185, 161.500 93.026 C 176.350 90.867, 195.925 88.380, 205 87.500 C 236.111 84.483, 241 83.252, 241 78.429 C 241 77.043, 239.895 74.805, 238.545 73.455 C 236.387 71.296, 235.271 71.016, 229.295 71.130 C 225.558 71.201, 219.125 71.630, 215 72.082 M 162.500 104.124 C 157.550 105.210, 149.088 106.457, 143.697 106.894 C 136.338 107.491, 133.221 108.189, 131.197 109.693 C 127.799 112.219, 127.066 117.302, 129.680 120.217 C 131.329 122.056, 132.324 122.194, 140.251 121.688 L 149.003 121.130 148.484 124.815 C 147.328 133.026, 146.031 139.760, 144.698 144.476 L 143.291 149.452 136.895 151.243 C 133.378 152.228, 128.700 153.554, 126.500 154.190 C 122.343 155.391, 117 159.521, 117 161.532 C 117 163.821, 120.606 165.879, 125.835 166.572 C 130.664 167.213, 131.099 167.476, 130.505 169.389 C 128.280 176.550, 127.796 183.734, 127.642 211.829 C 127.477 241.958, 127.394 243.199, 125.485 244.235 C 122.361 245.932, 118.037 251.073, 115.410 256.217 C 112.454 262.003, 112.398 263.608, 115.105 265.056 C 118.365 266.801, 123.087 265.372, 128.303 261.061 C 130.922 258.897, 136.877 255.049, 141.538 252.508 C 146.198 249.968, 151.639 246.226, 153.627 244.194 L 157.243 240.500 156.587 252.500 C 156.226 259.100, 155.437 269.645, 154.833 275.933 C 153.740 287.302, 153.747 287.377, 156.054 289.245 C 158.333 291.090, 162.335 290.994, 164.334 289.045 C 165.925 287.494, 168.856 274.149, 170.424 261.318 C 171.518 252.360, 172.030 238.959, 172.100 217.460 C 172.196 187.543, 172.682 180.058, 174.352 182.760 C 174.773 183.442, 176.400 184, 177.966 184 C 180.916 184, 185.199 179.950, 193.014 169.770 C 196.394 165.366, 196.676 165.224, 203.255 164.613 C 206.976 164.267, 212.192 163.159, 214.847 162.150 L 219.674 160.316 218.937 163.908 C 218.532 165.884, 216.669 173.518, 214.797 180.874 C 211.402 194.208, 211.387 194.240, 209.696 191.659 C 208.763 190.235, 208 188.846, 208 188.571 C 208 188.297, 206.120 186.319, 203.823 184.176 C 199.226 179.888, 196.546 179.708, 194.786 183.569 C 193.914 185.484, 194.505 187.398, 198.371 195.188 C 200.917 200.318, 203 205.329, 203 206.323 C 203 207.318, 203.495 209.056, 204.099 210.185 C 205.509 212.819, 203.257 220.376, 197.748 231.500 C 192.452 242.197, 186.798 249.552, 181.988 252.006 C 175.873 255.126, 175.567 262.100, 181.479 263.584 C 185.055 264.482, 194.181 259.919, 199.257 254.697 C 203.873 249.947, 214 234.215, 214 231.793 C 214 227.621, 217.154 230.437, 230.473 246.500 C 239.651 257.568, 248.514 266.371, 262.293 278.106 C 273.148 287.350, 275.604 289, 278.508 289 C 283.983 289, 285.802 283.253, 282.102 277.641 C 281.065 276.068, 273.293 267.743, 264.830 259.141 C 250.209 244.278, 240.144 233.180, 233.500 224.597 C 231.850 222.465, 228.556 218.337, 226.180 215.424 L 221.859 210.126 225.346 199.313 C 227.265 193.366, 229.379 185.575, 230.046 182 C 230.713 178.425, 232.595 171.010, 234.229 165.522 C 235.863 160.034, 237.795 152.834, 238.523 149.522 C 239.251 146.210, 240.421 142.060, 241.124 140.300 C 242.253 137.469, 242.179 136.855, 240.473 134.971 C 237.784 131.999, 234.506 132.890, 226.276 138.832 C 222.549 141.522, 218.431 144.282, 217.125 144.964 C 215.818 145.646, 212.746 147.733, 210.298 149.602 C 207.850 151.471, 205.484 153, 205.040 153 C 204.597 153, 204.851 151.210, 205.604 149.023 C 208.655 140.169, 211.300 128.177, 211.387 122.809 C 211.507 115.382, 208.987 111.642, 203.553 111.184 C 197.566 110.679, 196 112.837, 196 121.593 C 196 135.271, 192.195 145.120, 178 168.188 L 173.501 175.500 172.928 168.138 C 172.444 161.916, 171.986 160.498, 169.965 158.974 L 167.575 157.170 171.296 156.472 C 178.556 155.110, 182.816 149.638, 180.898 144.138 C 179.570 140.329, 177.558 139.898, 170.823 141.982 C 167.789 142.921, 163.616 143.963, 161.549 144.298 C 158.029 144.870, 157.833 144.769, 158.456 142.704 C 160.315 136.541, 164 121.285, 164 119.752 C 164 118.789, 164.727 118, 165.615 118 C 168.478 118, 176.732 112.883, 177.860 110.409 C 179.713 106.341, 176.888 101.805, 172.668 102.074 C 172.026 102.115, 167.450 103.038, 162.500 104.124 M 156 161.125 C 151.325 162.693, 146.324 164.199, 144.886 164.473 C 142.677 164.893, 142.338 165.399, 142.696 167.735 C 143.875 175.401, 143.614 175.120, 148.893 174.420 C 152.612 173.927, 154.348 174.182, 156.397 175.524 C 157.863 176.485, 159.288 177.045, 159.564 176.769 C 159.840 176.493, 160.787 173.394, 161.668 169.884 C 162.550 166.373, 164.140 162.262, 165.203 160.750 C 167.576 157.374, 167.130 157.392, 156 161.125 M 146.522 191.047 C 142.853 193.390, 142.160 195.060, 142.070 201.776 L 142 207.051 145.250 205.418 C 149.718 203.173, 158 194.969, 158 192.788 C 158 191.476, 157.217 191, 155.059 191 C 153.441 191, 151.840 190.550, 151.500 190 C 150.677 188.669, 150.036 188.804, 146.522 191.047 M 151.591 218.179 C 148.342 220.281, 144.854 222, 143.841 222 C 142.227 222, 142 222.870, 142 229.068 L 142 236.136 145.250 233.867 C 147.037 232.619, 150.668 229.533, 153.318 227.010 C 157.724 222.815, 158.109 222.079, 157.818 218.391 L 157.500 214.359 151.591 218.179" stroke="none" fill="black" fill-rule="evenodd"/>
</svg>