<svg xmlns="http://www.w3.org/2000/svg" width="300" height="300" viewBox="0 0 300 300" version="1.1">
	<path d="M 188.888 9.500 C 184.867 11.685, 183.135 17.013, 181.577 31.994 L 180.486 42.489 175.493 43.648 C 172.747 44.286, 168.700 44.845, 166.500 44.891 C 161.116 45.003, 148.266 47.867, 144.250 49.850 C 141.478 51.219, 141 51.987, 141 55.072 C 141 60.046, 143.422 62.001, 149.579 61.997 C 153.623 61.994, 168.395 59.635, 177.580 57.525 C 179.538 57.075, 179.635 57.385, 179.217 62.774 C 178.974 65.923, 178.353 68.950, 177.839 69.500 C 177.325 70.050, 171.413 70.764, 164.702 71.087 C 148.584 71.863, 139 75.795, 139 81.632 C 139 86.348, 141.930 86.910, 158.500 85.371 C 172.799 84.043, 197.953 79.967, 204.629 77.895 C 208.939 76.558, 211.380 73.649, 210.646 70.724 C 209.617 66.625, 206.433 65.730, 198.668 67.358 L 191.841 68.789 192.493 63.645 C 193.541 55.370, 193.669 55.191, 199.807 53.464 C 215.989 48.910, 219.492 47.457, 223.224 43.750 C 227.586 39.418, 227.922 37.215, 224.686 34.174 C 222.216 31.854, 219.994 31.414, 218.450 32.938 C 217.216 34.157, 200.465 39, 197.483 39 C 195.287 39, 195.209 38.736, 195.657 32.750 C 195.914 29.313, 196.821 23.751, 197.673 20.391 C 198.941 15.385, 198.993 13.849, 197.961 11.891 C 195.741 7.680, 193.381 7.058, 188.888 9.500 M 58.500 70.724 C 51.963 72.330, 49.089 81.143, 47.403 104.750 L 46.742 114 43.875 114 C 42.298 114, 38.419 114.874, 35.254 115.942 C 32.089 117.010, 27.475 118.404, 25 119.039 C 19.254 120.516, 18 121.591, 18 125.041 C 18 129.567, 18.980 130.918, 23.065 132.018 C 27.174 133.124, 29.072 132.860, 38.415 129.884 C 41.668 128.848, 44.863 128, 45.514 128 C 46.296 128, 46.910 131.142, 47.322 137.250 C 47.664 142.338, 48.449 153.475, 49.065 162 C 50.507 181.947, 49.154 194.153, 45.305 195.907 C 38.727 198.904, 25.503 208.687, 21.944 213.190 C 17.678 218.587, 17.123 220.980, 19.571 223.429 C 23.008 226.866, 30.029 224.498, 38.574 217.021 C 41.729 214.259, 44.687 212, 45.146 212 C 47.102 212, 70.020 195.997, 75.989 190.464 C 79.570 187.143, 84.805 182.537, 87.623 180.226 C 94.243 174.799, 95.897 171.126, 93.345 167.524 C 91.775 165.309, 90.929 164.988, 87.672 165.375 C 85.567 165.626, 83.317 166.468, 82.672 167.247 C 81.449 168.726, 64.243 183.201, 62.500 184.218 C 61.843 184.602, 61.499 174.549, 61.496 154.880 L 61.493 124.958 64.496 124.040 C 80.449 119.165, 88 113.569, 88 106.619 C 88 101.492, 81.366 99.779, 78.252 104.101 C 76.883 106, 70.541 108.543, 64.899 109.453 L 61.298 110.035 61.684 102.267 C 62.227 91.359, 63.820 83.076, 66.143 79.081 C 69.880 72.657, 66.347 68.795, 58.500 70.724 M 219.727 74.177 C 214.690 76.904, 210.402 85.728, 208.812 96.636 L 207.641 104.670 200.570 105.831 C 196.682 106.470, 190.125 107.260, 186 107.586 C 176.213 108.360, 172.292 109.625, 170.312 112.646 C 168.799 114.956, 168.824 115.287, 170.699 117.799 C 173.769 121.910, 177.450 122.466, 193.841 121.292 C 201.904 120.714, 208.691 120.416, 208.925 120.629 C 209.945 121.559, 207.174 139.276, 205.880 140.095 C 205.121 140.576, 202.569 140.976, 200.208 140.985 C 195.357 141.002, 181.456 143.685, 178.770 145.123 C 177.307 145.906, 177 145.657, 177 143.688 C 177 142.378, 176.213 140.421, 175.250 139.339 C 173.265 137.108, 173.965 137, 156 142.323 C 149.675 144.197, 142.773 145.994, 140.662 146.317 C 137.325 146.826, 136.913 146.681, 137.512 145.201 C 138.121 143.698, 139.254 137.182, 140.626 127.306 C 140.892 125.393, 141.757 123.929, 142.785 123.655 C 151.967 121.204, 154.570 120.197, 156.621 118.298 C 158.963 116.130, 159.712 112.019, 158.393 108.582 C 157.641 106.623, 153.672 106.530, 150.715 108.402 C 149.497 109.173, 147.037 110.109, 145.250 110.481 C 142.316 111.093, 142.002 110.933, 142.024 108.829 C 142.038 107.548, 142.508 104.508, 143.069 102.073 C 143.943 98.281, 143.832 97.387, 142.295 95.851 C 141.226 94.782, 139.691 94.275, 138.500 94.597 C 135.923 95.294, 130.594 102.427, 129.048 107.250 C 127.992 110.542, 127.458 111, 124.672 111 C 121.183 111, 106.336 113.674, 104.901 114.561 C 104.406 114.867, 104 116.387, 104 117.938 C 104 121.499, 106.512 122.588, 117.908 123.967 C 122.533 124.526, 126.534 125.200, 126.799 125.465 C 127.347 126.014, 125.189 146.343, 124.351 148.528 C 123.800 149.963, 118.137 151.984, 114.636 151.994 C 111.762 152.003, 104.998 156.179, 105.015 157.934 C 105.056 162.102, 109.799 163.934, 120.659 163.976 C 126.432 163.999, 148.173 158.583, 153.278 155.851 C 154.310 155.299, 157.312 154.287, 159.949 153.603 C 164.290 152.477, 164.851 152.532, 165.880 154.180 C 166.593 155.321, 168.226 156.009, 170.258 156.024 C 172.041 156.037, 175.300 156.482, 177.500 157.013 C 180.455 157.727, 185.156 157.472, 195.500 156.038 C 203.200 154.971, 213.238 153.633, 217.806 153.065 C 230.451 151.494, 243.949 148.051, 246.170 145.830 C 248.660 143.340, 248.193 140.191, 245 137.931 C 242.737 136.329, 241.482 136.263, 231.741 137.239 C 225.824 137.831, 220.807 138.132, 220.592 137.908 C 220.377 137.684, 220.815 134.350, 221.564 130.500 C 222.313 126.650, 222.956 121.700, 222.993 119.500 C 223.057 115.674, 223.324 115.348, 229.167 112.001 C 234.937 108.695, 240.246 103.368, 242.939 98.183 C 243.916 96.301, 243.852 95.423, 242.598 93.509 C 239.927 89.433, 237.383 89.421, 232.908 93.465 C 229.449 96.589, 225.262 99, 223.295 99 C 221.854 99, 224.134 87.343, 226.436 82.941 C 229.485 77.108, 229.586 75.840, 227.171 73.655 C 224.907 71.606, 224.412 71.640, 219.727 74.177 M 216.243 160.157 C 215.559 160.841, 215 161.973, 215 162.674 C 215 165.011, 209.037 167.078, 192.418 170.502 C 183.357 172.369, 171.794 175, 166.722 176.349 C 151.016 180.525, 131.137 183.991, 122.855 183.996 C 119.751 183.998, 114.238 184.918, 110.605 186.040 C 104.496 187.927, 104 188.294, 104 190.918 C 104 192.478, 104.562 194.221, 105.250 194.790 C 107.752 196.861, 119.008 198.120, 128.678 197.410 C 137.748 196.744, 138.199 196.804, 137.670 198.605 C 137.364 199.647, 136.827 202.750, 136.477 205.500 C 136.127 208.250, 135.143 212.750, 134.291 215.500 C 132.899 219.992, 126.510 234.650, 123.904 239.327 C 122.656 241.569, 115.132 256.818, 112.170 263.110 C 108.816 270.235, 109.413 272.959, 114.608 274.225 C 118.442 275.159, 120.721 272.753, 127.463 260.650 C 144.548 229.985, 149.350 217.826, 150.714 201.780 L 151.285 195.059 156.893 193.473 C 159.977 192.601, 163.287 191.657, 164.250 191.376 C 166.364 190.759, 166.388 191.026, 164.595 195.216 C 161.209 203.132, 159.976 234.602, 162.599 246.137 C 164.422 254.152, 169.302 261.066, 177.079 266.652 C 186.067 273.109, 208.404 273.706, 230.185 268.072 C 256.956 261.147, 261.498 258.867, 262.649 251.775 C 263.361 247.386, 260.714 241.420, 257.706 240.633 C 254.944 239.911, 251 242.467, 251 244.978 C 251 246.434, 250.078 247.060, 247.250 247.522 C 243.274 248.171, 236.048 249.903, 227 252.374 C 217.478 254.975, 204.746 257.002, 197.929 257.001 C 192.745 257, 190.213 256.420, 185.929 254.250 C 178.041 250.255, 175.666 245.101, 175.189 230.949 C 174.586 213.056, 178.903 189.590, 183.313 186.785 C 183.966 186.370, 185.850 186.017, 187.500 186 C 190.545 185.969, 204.844 182.682, 208.500 181.172 C 223.294 175.064, 227.685 169.879, 224.115 162.732 C 222.365 159.231, 218.450 157.950, 216.243 160.157" stroke="none" fill="black" fill-rule="evenodd"/>
</svg>