<svg xmlns="http://www.w3.org/2000/svg" width="300" height="300" viewBox="0 0 300 300" version="1.1">
	<path d="M 151.750 10.392 C 149.205 12.324, 149.595 16.192, 152.994 22.735 C 154.653 25.930, 156.851 32.735, 157.924 38 C 158.989 43.225, 160.165 48.288, 160.537 49.250 C 160.910 50.212, 161.053 51.012, 160.857 51.026 C 160.661 51.040, 151.050 51.482, 139.500 52.008 C 119.891 52.901, 98.629 55.054, 94.760 56.538 C 92.976 57.223, 91.402 60.736, 92.423 61.756 C 93.444 62.777, 103.052 63.850, 111.858 63.927 L 120.217 64 119.585 66.516 C 118.906 69.221, 121.271 79.690, 123.562 84.120 C 125.791 88.430, 134.265 96.583, 139.082 99.052 C 146.781 102.998, 157 101.169, 157 95.844 C 157 92.639, 153.171 89.804, 149.833 90.537 C 145.569 91.473, 141.423 88.384, 135.915 80.166 C 133.212 76.133, 131 72.303, 131 71.656 C 131 71.009, 129.910 69.304, 128.578 67.868 L 126.156 65.256 139.328 64.707 C 146.573 64.406, 160.313 63.648, 169.861 63.024 C 179.410 62.400, 187.385 62.051, 187.583 62.250 C 187.927 62.594, 181.308 72.956, 180.078 74 C 179.754 74.275, 178.151 76.300, 176.515 78.500 C 171.701 84.976, 168.921 88.147, 162.482 94.509 C 155.566 101.341, 154.526 103.268, 156.257 106.040 C 157.868 108.620, 162.331 108.577, 166.598 105.940 C 171.620 102.835, 194.660 77.742, 196.524 73.345 C 197.506 71.031, 197.963 68.007, 197.673 65.750 C 197.198 62.061, 197.245 62, 200.572 62 C 205.104 62, 207.638 58.494, 205.886 54.649 C 203.781 50.029, 197.820 48.599, 183.653 49.317 L 171.391 49.939 170.134 37.219 C 168.767 23.374, 166.974 18.276, 161.382 12.320 C 158.061 8.784, 154.743 8.120, 151.750 10.392 M 153.500 111.708 C 124.517 112.463, 95.974 116.409, 84 121.318 C 75.534 124.788, 73.442 126.383, 72.517 130.074 C 71.663 133.478, 74.008 135.482, 77.744 134.542 C 80.841 133.763, 89.607 132.199, 108 129.142 C 133.582 124.891, 164.525 123.337, 190.500 124.997 C 199.850 125.594, 213.800 126.325, 221.500 126.622 C 234.762 127.132, 235.737 127.037, 240 124.830 C 243.363 123.089, 244.577 121.837, 244.804 119.876 C 245.406 114.688, 243.333 114, 227.088 114 C 218.964 114, 208.759 113.570, 204.409 113.045 C 196.368 112.074, 168.032 111.330, 153.500 111.708 M 149.018 133.740 C 147.288 134.419, 147.305 134.401, 139.547 143.510 C 136.273 147.355, 132.898 151.247, 132.047 152.160 C 131.196 153.073, 127.350 158.404, 123.500 164.008 C 119.650 169.611, 115.600 175.279, 114.500 176.602 C 112.383 179.148, 113.670 178.920, 78 183.060 C 56.678 185.535, 50.199 187.491, 44.250 193.247 C 41.123 196.273, 40.319 199.062, 41.607 202.418 C 42.408 204.505, 44.793 204.415, 50.123 202.096 C 52.530 201.049, 60.125 199.452, 67 198.548 C 73.875 197.644, 85.547 196.035, 92.937 194.972 C 100.327 193.910, 106.466 193.144, 106.578 193.270 C 106.690 193.397, 106.325 195.750, 105.765 198.500 C 105.044 202.042, 105.077 204.703, 105.879 207.626 C 107.184 212.384, 115.846 222.870, 120.750 225.627 C 122.537 226.632, 124 227.788, 124 228.195 C 124 229.495, 113.722 236.671, 107 240.063 C 100.433 243.377, 96.951 243.860, 85.421 243.054 C 78.898 242.598, 75.303 245.882, 77.077 250.678 C 78.384 254.212, 83.721 256.167, 93.608 256.735 C 101.239 257.173, 103.780 256.904, 109.278 255.074 C 115.509 253, 130.250 243.785, 136.185 238.253 L 138.871 235.750 147.685 239.287 C 162.150 245.092, 169.957 247.186, 177.138 247.190 C 191.071 247.196, 199.825 239.047, 191.644 233.686 C 189.808 232.484, 188.476 232.397, 184.781 233.243 C 179.377 234.479, 170.890 232.691, 159.507 227.917 C 148.920 223.477, 149.178 223.848, 153.221 218.849 C 155.156 216.457, 160.148 209.325, 164.315 203 C 175.967 185.312, 172.569 187.247, 194 186.094 C 211.451 185.155, 243.701 181.178, 252.500 178.881 C 258.603 177.288, 261 175.376, 261 172.099 C 261 168.802, 259.022 166.793, 255.772 166.787 C 252.907 166.783, 231.791 168.462, 204 170.904 C 192.175 171.943, 182.359 172.661, 182.186 172.499 C 182.013 172.337, 183.434 169.103, 185.343 165.311 C 187.253 161.520, 189.125 156.186, 189.504 153.459 C 189.883 150.731, 191.066 146.768, 192.133 144.651 C 194.268 140.411, 193.878 137.540, 190.953 135.975 C 188.294 134.552, 184.883 135.694, 182.401 138.840 C 181.247 140.303, 176.568 148.700, 172.003 157.500 C 167.439 166.300, 163.310 173.758, 162.829 174.073 C 161.737 174.789, 131.995 177.328, 131.422 176.755 C 130.787 176.120, 136.344 168.064, 145.609 156.188 C 150.195 150.309, 154.955 143.617, 156.187 141.315 C 158.380 137.219, 158.388 137.086, 156.559 135.065 C 154.734 133.049, 152.002 132.569, 149.018 133.740 M 135.029 190.400 L 122.558 191.500 120.562 196.327 C 118.576 201.131, 118.575 201.170, 120.533 204.766 C 121.648 206.814, 125.234 210.283, 128.812 212.773 L 135.124 217.167 137.620 214.334 C 140.980 210.521, 154 191.136, 154 189.947 C 154 188.854, 152.022 188.901, 135.029 190.400" stroke="none" fill="black" fill-rule="evenodd"/>
</svg>