<svg xmlns="http://www.w3.org/2000/svg" width="300" height="300" viewBox="0 0 300 300" version="1.1">
	<path d="M 202.312 18.250 C 198.949 21.967, 198.986 24.550, 202.621 39.339 C 204.535 47.128, 206.115 56.124, 206.132 59.331 C 206.155 63.718, 206.638 65.638, 208.081 67.081 C 210.834 69.834, 214.459 69.498, 217.045 66.250 C 219.105 63.664, 219.203 62.785, 218.683 51.500 C 217.870 33.831, 215.441 21.313, 212.254 18.359 C 209.035 15.376, 204.954 15.331, 202.312 18.250 M 79.750 46.572 C 76.777 48.185, 76.076 51.432, 78.500 52.362 C 80.427 53.101, 80.456 61.605, 78.567 72 C 76.704 82.254, 68.331 106.972, 61.800 121.500 L 56.406 133.500 47.953 135.611 C 43.304 136.772, 36.413 138.202, 32.640 138.790 C 27.965 139.518, 25.018 140.574, 23.390 142.103 C 17.787 147.367, 22 149.967, 37.351 150.723 L 48.810 151.288 47.357 155.394 C 44.567 163.280, 43.873 168.085, 45.022 171.566 C 46.501 176.047, 52.399 181.146, 59.022 183.670 C 62.035 184.818, 67.763 186.977, 71.750 188.467 C 75.737 189.957, 79 191.643, 79 192.213 C 79 193.171, 75.132 202.227, 70.122 213 C 66.317 221.181, 58.417 234.449, 55.479 237.592 C 53.188 240.044, 50.002 240.962, 45.792 240.385 C 40.858 239.709, 38.612 241.307, 39.173 245.095 C 39.722 248.799, 44.359 251.432, 50.275 251.399 C 63.020 251.328, 71.185 242.315, 85.669 212.335 L 92.996 197.169 101.248 200.204 C 105.787 201.874, 112.061 203.956, 115.191 204.833 C 120.454 206.306, 121.148 206.300, 124.404 204.747 C 129.132 202.493, 130.674 197.558, 127.685 194.250 C 126.566 193.013, 124.556 192, 123.216 192 C 121.295 192, 100.627 183.798, 99.146 182.448 C 98.951 182.271, 101.053 175.235, 103.817 166.813 C 106.581 158.391, 109.857 147.151, 111.097 141.836 L 113.352 132.172 122.320 128.336 C 133.068 123.739, 135.611 121.076, 133.811 116.309 C 132.241 112.152, 129.336 111.501, 123.037 113.894 C 120.266 114.947, 118 115.414, 118 114.933 C 118 114.452, 119.575 108.312, 121.500 101.289 C 125.388 87.103, 125.714 83.856, 123.471 81.614 C 120.485 78.628, 114.791 83.351, 112.897 90.382 C 111.670 94.940, 107.057 106.807, 103.413 114.780 C 102.086 117.683, 101 120.483, 101 121 C 101 121.744, 86.235 126.807, 75.736 129.664 C 74.115 130.105, 74.144 129.714, 76.092 124.822 C 77.258 121.895, 78.361 119.050, 78.543 118.500 C 78.726 117.950, 80.487 113.109, 82.457 107.742 C 88.573 91.080, 94.071 66.622, 94.156 55.700 C 94.187 51.616, 93.733 50.461, 91.105 47.950 C 87.654 44.651, 84.088 44.219, 79.750 46.572 M 248.500 73.014 C 233.072 79.322, 186.599 92.653, 173 94.672 C 167.225 95.530, 160.622 97.112, 158.327 98.189 C 154.497 99.987, 153.960 100.020, 151.777 98.590 C 149.634 97.186, 149.183 97.184, 147.200 98.573 C 144.021 100.799, 144.212 106.303, 147.585 109.676 C 149.971 112.062, 150.642 112.215, 156.335 111.668 C 183.801 109.028, 193.545 107.214, 213.855 100.958 C 222.116 98.413, 222.336 98.450, 220.464 102.069 C 219.591 103.757, 218.256 108.370, 217.498 112.319 C 215.976 120.239, 210.377 136.984, 206.092 146.424 L 203.335 152.500 198.752 145.455 C 196.231 141.580, 191.993 136.462, 189.334 134.081 C 180.025 125.745, 177 122.733, 177 121.799 C 177 119.551, 174.140 117.996, 171.706 118.922 C 166.327 120.967, 167.262 127.613, 174.201 136.666 C 176.915 140.207, 182.942 148.920, 187.593 156.027 C 194.386 166.406, 195.854 169.298, 195.055 170.724 C 194.508 171.701, 189.581 181.725, 184.107 193 C 172.778 216.335, 168.423 223.882, 159.156 236.250 C 152.582 245.021, 151.648 245.858, 150.500 244 C 149.481 242.351, 146.133 242.867, 144 245 C 141.295 247.705, 141.484 251.234, 144.527 254.850 C 149.837 261.160, 156.434 259.639, 165.246 250.072 C 174.084 240.478, 188.584 217.698, 197.779 198.963 L 206.386 181.425 212.975 188.963 C 216.599 193.108, 224.489 202.575, 230.509 210 C 254.466 239.550, 276.211 257.289, 285.043 254.486 C 288.243 253.471, 290.001 251.049, 289.985 247.679 C 289.966 243.715, 289.170 242.479, 286 241.489 C 277.775 238.920, 262.929 224.517, 242.205 199 C 234.388 189.375, 226.744 180.150, 225.218 178.500 C 223.692 176.850, 220.728 173.379, 218.631 170.787 L 214.819 166.073 219.852 154.287 C 225.066 142.078, 227.159 135.252, 231.466 116.419 C 234.556 102.906, 234.664 99.432, 232.046 97.797 C 230.306 96.710, 231.072 96.226, 239.021 93.388 C 255.929 87.351, 267 79.747, 267 74.170 C 267 70.814, 264.759 67.971, 262.179 68.054 C 261.255 68.084, 255.100 70.316, 248.500 73.014 M 89.639 141.120 C 86.965 142.184, 80.575 144.220, 75.438 145.645 L 66.100 148.236 63.056 157.312 C 59.680 167.378, 59.529 166.909, 67 169.605 C 69.475 170.498, 74.328 172.376, 77.785 173.779 C 81.537 175.302, 84.418 175.961, 84.934 175.415 C 85.409 174.912, 86.716 171.350, 87.838 167.500 C 88.960 163.650, 91.226 156, 92.872 150.500 C 94.519 145, 95.559 140.204, 95.183 139.843 C 94.807 139.481, 92.312 140.056, 89.639 141.120" stroke="none" fill="black" fill-rule="evenodd"/>
</svg>