<svg xmlns="http://www.w3.org/2000/svg" width="300" height="300" viewBox="0 0 300 300" version="1.1">
	<path d="M 183.378 18.984 C 181.002 19.944, 177 27.417, 177 30.895 C 177 33.414, 172.395 45.659, 170.567 48 C 169.923 48.825, 168.127 52.200, 166.575 55.500 C 165.023 58.800, 160.979 65.775, 157.588 71 C 154.197 76.225, 150.596 82.300, 149.587 84.500 C 148.577 86.700, 146.785 89.850, 145.606 91.500 C 141.984 96.566, 135.893 110.685, 134.279 117.756 C 133.616 120.661, 135.582 123, 138.688 123 C 142.742 123, 144.616 121.350, 148.026 114.776 C 149.816 111.324, 153.255 105.468, 155.667 101.762 C 158.080 98.057, 160.335 94.232, 160.679 93.262 C 161.023 92.293, 162.722 89.475, 164.453 87 C 169.303 80.069, 179 64.133, 179 63.094 C 179 62.584, 179.399 62.017, 179.887 61.833 C 181.219 61.333, 188.885 44.368, 190.159 39.101 C 190.771 36.571, 191.661 34.073, 192.136 33.550 C 192.611 33.028, 193 30.480, 193 27.889 C 193 23.856, 192.557 22.805, 189.923 20.589 C 186.561 17.760, 186.467 17.736, 183.378 18.984 M 222.878 29.295 C 220.407 30.955, 219.416 32.429, 219.186 34.786 C 218.914 37.583, 219.633 38.734, 224.638 43.504 C 227.809 46.527, 230.781 49, 231.242 49 C 232.221 49, 240.178 56.432, 254.377 70.606 C 267.065 83.272, 271.120 87.791, 272.933 91.289 C 275.437 96.118, 281.834 96.104, 284.369 91.264 C 285.477 89.151, 285.504 87.807, 284.516 84.060 C 283.284 79.390, 281.040 75, 279.885 75 C 279.537 75, 275.708 70.854, 271.376 65.787 C 264.260 57.464, 260.291 53.447, 242 36.058 C 233.024 27.525, 228.105 25.785, 222.878 29.295 M 68.250 33.674 C 67.013 34.538, 66 36.146, 66 37.248 C 66 41.759, 60.273 64.192, 57.510 70.500 C 56.788 72.150, 54.529 78.675, 52.491 85 C 46.886 102.391, 45.693 105.699, 44.380 107.495 C 43.607 108.552, 40.005 109.688, 34.338 110.664 C 22.133 112.766, 16.326 115.602, 12.736 121.215 C 10.679 124.432, 10.575 126.856, 12.392 129.250 C 13.942 131.292, 16.096 131.504, 17.815 129.785 C 18.501 129.099, 23.058 128.336, 28.277 128.035 L 37.524 127.500 35.740 133 C 34.759 136.025, 33.345 139.625, 32.598 141 C 30.409 145.032, 24 164.828, 24 167.559 C 24 172.443, 26.701 176.706, 32.152 180.426 C 41.336 186.692, 48.171 191, 48.932 191 C 49.333 191, 50.294 192.180, 51.066 193.623 C 52.385 196.088, 52.126 196.913, 46.748 207.373 C 43.602 213.493, 39.679 221.425, 38.032 225 C 33.158 235.579, 24.313 250.146, 19.946 254.786 C 14.854 260.198, 14.860 263.430, 19.966 266.272 C 22.206 267.519, 23.563 267.812, 23.800 267.101 C 24.002 266.495, 24.827 266, 25.633 266 C 28.710 266, 32.822 262.918, 36.835 257.603 C 39.126 254.568, 41 251.801, 41 251.453 C 41 251.105, 41.871 250.073, 42.936 249.160 C 45.213 247.208, 46.602 244.763, 57.592 223.354 L 65.881 207.208 70.190 211.757 C 72.561 214.259, 75.670 217.555, 77.100 219.080 C 80.136 222.318, 85.746 223.668, 90.862 222.390 C 93.968 221.613, 94.590 220.926, 95.739 217 C 97.445 211.168, 96.537 205, 93.971 205 C 92.952 205, 91.839 204.548, 91.498 203.996 C 91.157 203.444, 89.893 203.230, 88.689 203.519 C 86.978 203.931, 85.136 202.648, 80.250 197.643 C 76.813 194.122, 74 190.734, 74 190.116 C 74 189.497, 76.250 184.538, 79 179.096 C 81.750 173.654, 84 168.874, 84 168.475 C 84 167.589, 90.454 151.065, 92.999 145.434 C 95.796 139.248, 97.781 131.643, 99.851 119.188 C 102.030 106.078, 101.262 106.992, 116.398 99.500 L 126.500 94.500 126.802 90.355 C 127.070 86.680, 126.745 85.954, 123.923 83.945 C 121.199 82.006, 120.448 81.863, 118.700 82.955 C 117.577 83.657, 113.922 85.249, 110.579 86.493 C 107.236 87.737, 103.752 89.068, 102.837 89.451 C 101.413 90.047, 101.083 89.169, 100.534 83.323 C 100.181 79.571, 99.805 75.646, 99.697 74.602 C 99.431 72.036, 96.836 70.573, 93.871 71.317 C 90.458 72.174, 87.043 79.658, 86.313 87.879 C 85.671 95.117, 84.867 96.696, 81.041 98.222 C 79.169 98.969, 62.086 104, 61.421 104 C 61.084 104, 66.620 88.400, 67.099 88 C 69.326 86.140, 79 47.254, 79 40.163 C 79 32.734, 73.959 29.692, 68.250 33.674 M 77.500 116.965 C 75.300 118.008, 68.982 120.062, 63.459 121.529 L 53.418 124.196 48.637 139.848 C 46.007 148.457, 43.004 157.300, 41.962 159.500 C 39.374 164.966, 39.471 165.414, 43.723 167.593 C 45.770 168.642, 48.325 170.282, 49.399 171.239 C 50.473 172.195, 52.188 173.242, 53.208 173.566 C 54.229 173.890, 56.234 175.325, 57.664 176.755 L 60.265 179.356 62.090 175.928 C 63.095 174.043, 63.935 171.933, 63.958 171.240 C 63.981 170.546, 65.838 166.271, 68.084 161.740 C 72.840 152.143, 79.100 134.317, 80.984 125 C 81.708 121.425, 82.678 118.009, 83.141 117.408 C 83.944 116.366, 83.319 114.962, 82.083 115.034 C 81.763 115.053, 79.700 115.922, 77.500 116.965 M 255.988 117.001 C 253.507 117.422, 243.832 118.095, 234.488 118.498 C 225.145 118.900, 217.036 119.601, 216.469 120.055 C 215.903 120.509, 210.728 121.079, 204.969 121.320 C 194.533 121.759, 186.016 123.055, 168 126.948 C 154.186 129.934, 148.693 131.840, 145.265 134.839 C 140.938 138.624, 140.272 141.596, 143.080 144.585 C 145.036 146.667, 146.262 147, 151.970 147 C 158.561 147, 177.050 143.751, 180.103 142.056 C 180.985 141.567, 183.797 140.853, 186.353 140.470 L 191 139.773 190.994 145.136 C 190.983 155.050, 185.340 186.303, 182.984 189.500 C 182.579 190.050, 180.583 195.634, 178.549 201.908 C 169.754 229.039, 151.844 258.922, 141.915 263.035 C 137.542 264.847, 135.981 271.875, 139.427 274.235 C 141.462 275.628, 148.758 274.995, 153.175 273.041 C 158.863 270.524, 170.005 256.960, 177.146 243.858 C 182.018 234.917, 189.993 216.738, 190.006 214.542 C 190.010 213.969, 190.629 212.318, 191.383 210.873 C 194.810 204.305, 201.424 179.466, 203.597 165 C 203.969 162.525, 204.678 159.985, 205.172 159.355 C 205.666 158.725, 206.348 153.654, 206.688 148.086 C 207.250 138.860, 207.491 137.923, 209.402 137.526 C 210.556 137.286, 221.736 136.606, 234.247 136.015 C 246.758 135.423, 257.737 134.654, 258.645 134.306 C 260.163 133.723, 260.237 135.621, 259.562 157.987 C 259.159 171.360, 258.456 183.021, 258 183.900 C 257.543 184.780, 256.417 195.850, 255.497 208.500 C 253.753 232.486, 252.178 242.776, 248.917 251.493 C 246.639 257.582, 242.994 261.451, 240.335 260.604 C 239.326 260.283, 234.914 255.502, 230.531 249.981 C 221.069 238.063, 218.773 236.248, 215.425 238.040 C 211.345 240.224, 211.379 244.197, 215.541 251.639 C 217.577 255.281, 220.539 260.180, 222.122 262.526 C 223.705 264.871, 225 267.199, 225 267.699 C 225 269.461, 231.551 274.724, 235.770 276.352 C 241.807 278.682, 245.833 278.409, 252.071 275.250 C 257.078 272.714, 257.811 271.872, 261.500 264.424 C 269.134 249.012, 269.297 248.421, 271.466 228.329 C 275.196 193.769, 276.400 175.320, 276.449 152 C 276.497 129.035, 276.371 127.281, 274.446 124.003 C 271.904 119.676, 266.560 115.961, 263.102 116.118 C 261.671 116.182, 258.470 116.580, 255.988 117.001" stroke="none" fill="black" fill-rule="evenodd"/>
</svg>