<svg xmlns="http://www.w3.org/2000/svg" width="300" height="300" viewBox="0 0 300 300" version="1.1">
	<path d="M 119.333 24.576 C 117.172 26.738, 116.843 27.790, 117.289 31.115 C 117.888 35.585, 119.472 37.979, 121.872 38.044 C 122.771 38.068, 125.380 41.091, 127.697 44.794 L 131.894 51.500 120.197 53.220 C 113.764 54.166, 103.065 55.243, 96.421 55.614 C 83.210 56.351, 79.010 57.698, 75.616 62.286 C 72.983 65.847, 74.311 68.353, 79.101 68.860 C 82.640 69.234, 98.894 67.963, 122 65.505 C 156.886 61.795, 176.828 61.382, 214.500 63.592 C 224.890 64.202, 229.560 63.310, 230.633 60.513 C 231.688 57.764, 230.090 54.279, 227.263 53.161 C 223.221 51.564, 193.250 49, 178.626 49 C 171.682 49, 166 48.684, 166 48.298 C 166 47.911, 167.304 46.224, 168.897 44.548 C 170.490 42.871, 172.979 39.202, 174.427 36.393 C 176.587 32.203, 176.877 30.808, 176.044 28.617 C 173.858 22.865, 167.321 23.258, 163.986 29.341 C 160.467 35.760, 150.760 49.058, 148.845 50.083 C 144.898 52.195, 143.576 51.168, 140.049 43.249 C 135.103 32.144, 131.364 26.388, 127.575 24.046 C 123.310 21.411, 122.443 21.466, 119.333 24.576 M 163.554 70.727 C 159.662 71.717, 153.310 76.434, 144.500 84.876 C 133.499 95.417, 131.983 97.901, 132.717 104.186 C 133.373 109.814, 132.509 112.909, 130.767 111.167 C 128.827 109.227, 121.586 109.851, 115.665 112.470 C 112.593 113.828, 109.894 114.615, 109.665 114.220 C 109.437 113.824, 108.926 108.775, 108.530 103 C 108.068 96.256, 107.230 91.516, 106.189 89.749 C 101.736 82.193, 93.770 87.368, 95.385 96.767 C 95.738 98.820, 96.474 109.950, 97.021 121.500 C 97.567 133.050, 98.440 145.408, 98.961 148.963 C 99.482 152.517, 99.761 155.572, 99.581 155.752 C 99.034 156.299, 88.654 160.164, 86.250 160.716 C 83.579 161.330, 83.535 161.048, 85.550 156.226 C 88.660 148.783, 91.484 129.672, 90.329 123.894 C 89.599 120.244, 85.698 116, 83.073 116 C 79.490 116, 77.903 121.110, 76.905 135.867 C 76.398 143.365, 75.300 151.645, 74.465 154.267 C 72.701 159.811, 73.729 162.998, 77.285 163.004 C 79.275 163.007, 79.192 163.196, 76.457 164.863 C 72.490 167.282, 69.978 171.199, 70.677 173.873 C 71.385 176.581, 74.545 176.618, 86 174.054 C 94.791 172.086, 122.701 160.486, 126.146 157.368 C 127.531 156.114, 128.011 154.573, 127.799 152.051 C 127.520 148.740, 127.249 148.479, 123.792 148.192 C 121.753 148.023, 119.103 148.410, 117.903 149.052 C 116.703 149.694, 114.546 150.552, 113.111 150.957 L 110.500 151.695 110.297 140.598 L 110.094 129.500 118.643 125.500 C 123.345 123.300, 128.161 120.773, 129.346 119.884 L 131.500 118.268 131.671 131.384 C 131.764 138.598, 132.295 148.855, 132.849 154.178 C 133.576 161.158, 133.541 164.886, 132.723 167.552 C 131.661 171.011, 131.766 171.402, 134.350 173.624 C 135.883 174.944, 138.400 176, 140.010 176 C 146.051 176, 164.393 167.745, 165.654 164.459 C 166.095 163.310, 166.602 163.348, 168.638 164.682 C 170.703 166.036, 171.471 166.086, 173.497 165.001 C 174.821 164.293, 176.372 162.370, 176.945 160.729 C 178.724 155.624, 179.411 128.412, 178.076 115.918 C 176.363 99.885, 175.668 97.675, 171.662 95.517 C 168.435 93.780, 168.103 93.780, 162.407 95.534 C 152.485 98.589, 144.243 105.611, 145.721 109.750 C 146.315 111.416, 152.508 111.269, 157.500 109.471 C 164.645 106.897, 165 107.143, 165 114.655 C 165 121.171, 164.960 121.273, 163.066 119.560 C 161.399 118.051, 159.962 117.907, 152.668 118.514 C 142.949 119.324, 143.593 119.933, 142.520 108.928 L 141.879 102.356 148.731 95.928 C 152.499 92.393, 158.400 87.925, 161.843 86 C 173.984 79.212, 175.134 77.407, 170.364 72.636 C 167.712 69.984, 167.123 69.819, 163.554 70.727 M 200.152 85.043 C 196.111 86.046, 191.949 87.641, 190.902 88.588 C 188.763 90.524, 188.382 94.982, 190.200 96.800 C 191.861 98.461, 202.865 98.312, 207.826 96.561 C 211.858 95.139, 211.894 95.147, 211.061 97.311 C 208.936 102.832, 206.452 105.860, 203.576 106.435 C 201.482 106.854, 200.345 106.581, 199.749 105.515 C 199.282 104.682, 197.633 103.344, 196.084 102.543 C 193.474 101.194, 193.120 101.248, 191.257 103.293 C 189.130 105.627, 188.735 108.903, 187.345 135.715 C 186.679 148.575, 187.722 156.711, 191.038 164.500 C 193.095 169.331, 195.128 171.252, 201.018 173.923 C 206.630 176.469, 210.528 176.477, 219.973 173.966 C 230.754 171.099, 236.129 168.062, 238.376 163.568 C 240.222 159.878, 240.220 159.771, 238.278 157.158 C 235.805 153.831, 230.912 153.116, 228.244 155.691 C 227.213 156.686, 225.049 158.224, 223.435 159.109 C 219.727 161.142, 208.558 163.312, 205.993 162.498 C 202.024 161.238, 199.914 156.512, 199.187 147.258 C 198.501 138.514, 199.066 121.601, 200.078 120.589 C 200.372 120.295, 203.952 119.351, 208.034 118.493 C 218.382 116.316, 220.377 114.850, 219.715 109.911 C 219.327 107.020, 219.686 105.398, 221.114 103.582 C 223.686 100.312, 226.951 92.994, 226.978 90.437 C 226.990 89.302, 225.738 87.165, 224.195 85.687 C 221.671 83.268, 220.697 83.011, 214.445 83.110 C 210.625 83.170, 204.194 84.040, 200.152 85.043 M 163.397 126.728 C 162.131 128.763, 153.779 132.012, 149.832 132.005 C 145.863 131.998, 144 132.988, 144 135.107 C 144 137.392, 144.776 137.457, 148.696 135.502 C 152.152 133.778, 160.449 133.127, 163.750 134.321 C 165.754 135.046, 165.989 134.827, 165.900 132.317 C 165.845 130.768, 165.508 128.478, 165.150 127.228 C 164.550 125.131, 164.415 125.093, 163.397 126.728 M 161.500 144.900 C 159.300 145.230, 154.688 146.623, 151.250 147.995 L 145 150.490 145 155.745 C 145 161.895, 145.577 162.110, 153.761 158.999 C 159.772 156.715, 163.076 156.476, 164.800 158.200 C 165.733 159.133, 166 157.689, 166 151.700 C 166 147.465, 165.887 144.068, 165.750 144.150 C 165.613 144.233, 163.700 144.570, 161.500 144.900 M 109.083 187.244 C 104.638 190.059, 77.347 216.703, 74.970 220.548 C 71.131 226.759, 73.840 232.761, 79.191 229.898 C 82.643 228.050, 100.694 211.999, 109.624 202.836 C 118.198 194.039, 119.631 191.346, 117.420 188.189 C 115.408 185.317, 112.626 185.001, 109.083 187.244 M 174.635 187.073 C 173.186 188.212, 172 189.934, 172 190.898 C 172 193.013, 176.026 197, 178.161 197 C 179.601 197, 184.153 198.849, 188.372 201.149 C 194.764 204.633, 206.163 206.036, 210.316 203.850 C 213.176 202.345, 213.966 201.060, 213.985 197.880 C 214.001 195.172, 212.234 194.354, 202.315 192.473 C 200.564 192.141, 195.465 190.324, 190.986 188.435 C 181.574 184.465, 178.297 184.192, 174.635 187.073 M 141.618 205.271 C 139.353 207.620, 136.600 210.883, 135.500 212.521 C 134.400 214.160, 129.701 219.415, 125.058 224.201 C 118.593 230.864, 115.899 232.972, 113.558 233.201 C 110.916 233.459, 110.489 233.908, 110.416 236.500 C 110.370 238.150, 110.002 240.512, 109.599 241.750 C 107.982 246.710, 111.565 249.876, 116.622 247.954 C 118.652 247.182, 119.938 247.730, 124.843 251.461 C 130.996 256.140, 133.839 259, 132.338 259 C 131.839 259, 130.682 260.238, 129.767 261.750 C 126.779 266.687, 116.204 277.017, 112.593 278.526 C 110.652 279.337, 107.812 280.007, 106.282 280.015 C 102.853 280.034, 101.445 280.909, 100.675 283.500 C 99.486 287.503, 102.216 289.176, 109.936 289.176 C 115.712 289.176, 117.821 288.709, 121.336 286.649 C 127.214 283.204, 135.151 275.924, 139.525 269.966 L 143.151 265.026 147.326 267.483 C 151.545 269.966, 161.739 275.038, 170 278.763 C 188.068 286.912, 206.592 292, 218.193 292 C 225.399 292, 227 291.008, 227 286.544 C 227 283.038, 224.529 281.582, 217 280.653 C 214.525 280.347, 210.025 279.375, 207 278.493 C 203.975 277.610, 199.025 276.161, 196 275.272 C 192.975 274.383, 187.800 272.578, 184.500 271.260 C 177.174 268.334, 155.163 257.501, 152.749 255.633 C 151.133 254.383, 151.636 253.329, 159.249 242.011 C 163.787 235.265, 168.729 227.890, 170.231 225.622 C 173.757 220.300, 174.066 213.641, 170.867 211.929 C 167.683 210.225, 161.544 211.598, 154.348 215.622 C 150.857 217.575, 148 218.922, 148 218.615 C 148 218.309, 149.419 216.045, 151.154 213.584 C 154.481 208.863, 155.253 203.411, 152.813 201.863 C 149.589 199.819, 145.748 200.989, 141.618 205.271 M 149.500 229.597 C 147.850 230.319, 144.229 230.930, 141.453 230.955 C 136.952 230.995, 136.004 231.412, 132.686 234.810 L 128.966 238.619 131.233 240.646 C 132.480 241.761, 134.972 243.684, 136.772 244.920 L 140.044 247.167 142.025 244.834 C 143.115 243.550, 145.665 239.800, 147.692 236.500 C 149.719 233.200, 151.842 230.187, 152.410 229.804 C 154.427 228.445, 152.453 228.304, 149.500 229.597" stroke="none" fill="black" fill-rule="evenodd"/>
</svg>