<svg xmlns="http://www.w3.org/2000/svg" width="300" height="300" viewBox="0 0 300 300" version="1.1">
	<path d="M 191.500 48.120 C 147.176 50.014, 124.490 51.080, 108.500 52.019 C 99.150 52.568, 87.422 53.014, 82.439 53.009 C 74.621 53.001, 73.069 53.287, 71.133 55.091 C 68.389 57.647, 68.700 60.017, 72.009 61.767 C 74.510 63.090, 95.436 62.962, 133.500 61.391 L 147.500 60.813 141.388 67.157 C 138.027 70.645, 135.023 74.236, 134.714 75.135 C 133.825 77.716, 136.787 81.177, 139.335 80.535 C 141.325 80.033, 141.312 80.086, 139.168 81.184 C 137.374 82.103, 136.400 82.107, 134.948 81.199 C 133.379 80.219, 132.696 80.399, 130.912 82.260 C 126.631 86.726, 126 90.009, 126 107.821 C 126 129.135, 126.761 136.986, 128.902 137.750 C 129.781 138.064, 131.305 139.148, 132.289 140.160 C 134.597 142.534, 138.215 142.487, 144.761 139.999 C 147.874 138.816, 152.443 138, 155.952 138 C 159.213 138, 162.174 137.528, 162.530 136.951 C 162.976 136.230, 163.600 136.253, 164.534 137.028 C 166.890 138.983, 170.293 137.681, 172.449 134 C 174.343 130.767, 174.490 128.994, 174.367 110.767 C 174.200 85.919, 173.597 80.863, 170.338 76.990 C 167.074 73.111, 163.781 73.106, 151.794 76.961 C 146.731 78.589, 142.440 79.774, 142.260 79.594 C 142.080 79.414, 144.195 77.541, 146.961 75.432 C 153.114 70.740, 158 64.820, 158 62.059 C 158 60.097, 158.556 60, 169.750 59.998 C 176.213 59.997, 193.219 59.523, 207.543 58.944 C 233.534 57.894, 235.797 58.047, 240.095 61.145 C 242.458 62.848, 246.886 61.344, 248.237 58.379 C 250.026 54.453, 247.608 51.054, 241.500 48.910 C 235.841 46.924, 223.909 46.735, 191.500 48.120 M 203.813 75.520 C 203.527 75.806, 199.740 76.710, 195.397 77.528 C 189.044 78.725, 182.420 80.614, 181.914 81.371 C 181.562 81.900, 180.508 112.687, 180.541 121.500 C 180.598 137.025, 183.032 142.935, 191.055 147.028 C 197.311 150.220, 210.575 149.781, 223.859 145.942 C 229.679 144.261, 235.854 142.214, 237.582 141.394 C 243.130 138.762, 243.762 133.206, 238.863 130.147 C 237.174 129.092, 235.304 129.363, 227.176 131.840 C 206.799 138.052, 197.517 138.960, 193.671 135.118 C 191.759 133.208, 191.460 131.647, 191.163 122.016 L 190.825 111.082 193.663 110.405 C 198.113 109.344, 210.426 103.396, 211.933 101.581 C 212.963 100.340, 213.034 99.370, 212.226 97.596 C 211.286 95.535, 211.624 94.796, 215.028 91.472 C 220.642 85.990, 222.225 82.335, 220.461 78.924 C 219.698 77.449, 218.346 75.963, 217.455 75.621 C 215.498 74.870, 204.545 74.789, 203.813 75.520 M 91.999 83.002 C 91.079 85.223, 90.853 93.040, 91.128 113.079 L 91.500 140.154 84.683 143.063 C 80.934 144.663, 75.314 146.639, 72.194 147.454 C 65.975 149.078, 64 150.934, 64 155.156 C 64 161.780, 71.383 160.817, 92.671 151.417 C 117.913 140.270, 121.241 138.020, 119.180 133.496 C 117.754 130.366, 115.904 130.367, 108.192 133.500 C 104.808 134.875, 101.785 136, 101.474 136 C 101.163 136, 101.042 132.988, 101.204 129.306 L 101.500 122.613 107.478 120.301 C 115.003 117.391, 117.481 115.051, 116.629 111.658 C 115.775 108.255, 112.998 107.582, 107.507 109.446 C 104.990 110.301, 102.510 111, 101.997 111 C 101.484 111, 101.152 108.862, 101.259 106.250 C 101.772 93.787, 100.980 83.123, 99.429 81.571 C 96.806 78.949, 93.407 79.603, 91.999 83.002 M 153.500 87.730 C 149.860 89.281, 145.438 90.328, 142.256 90.393 L 137.012 90.500 137.006 96.367 C 137 101.995, 137.092 102.204, 139.250 101.526 C 143.630 100.149, 154.379 98.878, 156.707 99.463 C 158.006 99.789, 159.599 101.221, 160.248 102.645 C 161.279 104.908, 161.147 105.462, 159.203 107.037 C 157.978 108.028, 154.620 109.332, 151.739 109.935 C 148.857 110.537, 144.137 111.760, 141.250 112.652 C 136.883 114.001, 136 114.666, 136 116.603 L 136 118.933 139.625 116.794 C 142.204 115.272, 145.493 114.525, 151.024 114.205 C 157.873 113.808, 158.915 113.978, 159.781 115.627 C 161.478 118.861, 159.526 121.774, 154.803 123.057 C 152.436 123.701, 148.137 125.128, 145.249 126.230 C 142.361 127.332, 139.099 127.998, 137.999 127.710 C 136.900 127.423, 136 127.569, 136 128.035 C 136 129.759, 137.795 129.866, 143.575 128.486 C 151.721 126.541, 155.912 126.661, 160.438 128.969 L 164.299 130.937 163.633 115.219 C 162.678 92.684, 161.907 84.986, 160.612 85.087 C 160 85.135, 156.800 86.324, 153.500 87.730 M 197.368 89.095 L 191.236 91.002 191.179 95.102 C 191.127 98.858, 191.306 99.148, 193.311 98.560 C 194.515 98.208, 197.525 97.408, 200 96.782 C 204.464 95.655, 204.500 95.611, 204.500 91.323 C 204.500 88.945, 204.275 87.042, 204 87.094 C 203.725 87.145, 200.741 88.045, 197.368 89.095 M 73.611 111.532 C 71.666 113.477, 71.165 116.801, 70.713 130.772 C 70.321 142.892, 70.853 144.442, 75.195 143.827 C 79.311 143.243, 81.405 137.068, 81.837 124.233 C 82.247 112.080, 81.606 110, 77.449 110 C 76.181 110, 74.453 110.689, 73.611 111.532 M 167.901 150.355 C 166.453 151.074, 165.378 152.594, 165.192 154.185 C 164.942 156.329, 165.692 157.378, 169.192 159.778 C 175.456 164.072, 184.285 168.619, 190.806 170.909 C 195.556 172.577, 217.661 179, 218.650 179 C 218.817 179, 219.691 177.875, 220.592 176.500 C 222.108 174.186, 222.108 173.814, 220.595 171.505 C 218.731 168.659, 217.181 167.946, 200.067 162.053 C 185.493 157.035, 179.074 154.376, 176.998 152.498 C 174.186 149.953, 170.475 149.079, 167.901 150.355 M 118.444 152.276 C 113.820 155.852, 72.570 197.185, 70.567 200.250 C 68.891 202.814, 68.880 203.169, 70.408 205.500 C 71.309 206.875, 72.762 208, 73.638 208 C 77.715 208, 121.863 164.702, 124.796 157.826 C 125.897 155.245, 125.856 154.430, 124.523 152.395 C 122.588 149.441, 122.123 149.432, 118.444 152.276 M 136.444 171.742 C 134.764 173.809, 131.664 178.650, 129.556 182.500 C 126.213 188.605, 119.435 199.259, 116.872 202.437 C 116.401 203.022, 113.053 207.325, 109.432 212 C 105.812 216.675, 101.196 221.931, 99.175 223.679 C 96.095 226.343, 95.678 227.153, 96.601 228.679 C 97.266 229.778, 99.141 230.623, 101.331 230.809 C 104.467 231.076, 105.632 230.489, 109.919 226.479 L 114.878 221.840 116.867 225.739 C 117.961 227.883, 121.185 231.979, 124.031 234.840 L 129.206 240.043 125.443 244.771 C 119.484 252.260, 109.838 261.978, 105.750 264.610 C 101.517 267.336, 100.919 270.129, 104.091 272.351 C 105.934 273.642, 106.737 273.630, 110.841 272.255 C 114.529 271.018, 117.968 268.218, 127.333 258.823 L 139.167 246.953 143.833 250.765 C 163.253 266.625, 185.553 279.486, 209 288.351 C 222.275 293.369, 226.919 294.282, 229.750 292.427 C 233.850 289.742, 231.824 284.636, 226.180 283.430 C 221.611 282.454, 206.018 275.965, 194.500 270.247 C 180.549 263.322, 176.564 261.019, 165.614 253.556 C 152.925 244.909, 150.857 243.438, 147.559 240.713 L 144.617 238.283 148.157 232.892 C 152.731 225.923, 166.212 202.608, 168.491 197.723 C 171.689 190.871, 168.947 184.053, 163 184.071 C 161.625 184.075, 155.325 185.793, 149 187.888 C 142.675 189.983, 137.365 191.359, 137.199 190.946 C 137.034 190.533, 138.378 187.791, 140.185 184.853 C 142.848 180.526, 143.475 178.465, 143.486 174.005 C 143.498 169.247, 143.229 168.465, 141.500 168.242 C 140.207 168.076, 138.419 169.314, 136.444 171.742 M 147 198.445 C 141.775 200.229, 136.060 202.434, 134.300 203.345 C 132.539 204.255, 130.289 205.026, 129.300 205.057 C 126.782 205.137, 119.737 214.595, 120.471 216.908 C 121.086 218.846, 126.145 223.741, 132.224 228.281 L 135.948 231.062 141.673 222.281 C 151.240 207.608, 158.510 194.939, 157.270 195.101 C 156.847 195.156, 152.225 196.661, 147 198.445" stroke="none" fill="black" fill-rule="evenodd"/>
</svg>