<svg xmlns="http://www.w3.org/2000/svg" width="300" height="300" viewBox="0 0 300 300" version="1.1">
	<path d="M 165.662 9.990 C 162.855 13.326, 161.327 21.600, 162.432 27.487 L 163.091 31 150.850 31 C 138.929 31, 138.536 31.070, 135.805 33.687 C 132.826 36.541, 132.166 40.063, 134.280 41.818 C 135.104 42.502, 138.221 42.634, 143.030 42.190 C 147.139 41.811, 153.269 41.633, 156.653 41.795 C 163.650 42.131, 163.357 41.704, 164.541 53.250 L 165.233 60 160.866 60.021 C 158.465 60.033, 150.727 60.869, 143.671 61.878 C 129.860 63.854, 126.122 65.659, 127.415 69.731 C 128.779 74.031, 137.613 75.086, 153.901 72.894 C 158.422 72.285, 162.312 71.979, 162.545 72.212 C 162.779 72.445, 162.077 74.388, 160.985 76.530 C 159.893 78.671, 159 82.353, 159 84.711 L 159 89 155.028 89 C 150.789 89, 139.541 91.099, 129.146 93.830 C 119.775 96.292, 115.552 101.409, 119.571 105.429 C 121.687 107.544, 123.994 107.420, 135.602 104.567 C 141.046 103.229, 148.718 101.980, 152.650 101.790 L 159.801 101.446 160.490 109.722 C 161.097 117.009, 160.922 118.530, 159.026 122.446 C 157.357 125.894, 157.111 127.340, 157.933 128.875 C 158.920 130.719, 158.593 130.899, 153.247 131.460 C 150.086 131.792, 144.350 132.521, 140.500 133.079 C 136.650 133.638, 129.900 134.525, 125.500 135.051 C 116.382 136.141, 113 137.531, 113 140.190 C 113 141.209, 114.013 142.466, 115.250 142.984 C 118.073 144.164, 138.306 145.889, 143 145.350 C 157.323 143.704, 168.176 141.865, 187 137.893 C 203.157 134.485, 208 131.980, 208 127.034 C 208 123.705, 204.650 120, 201.641 120 C 200.387 120, 198.411 121.093, 197.249 122.428 C 195.811 124.082, 193.600 125.075, 190.319 125.540 C 187.668 125.915, 182.800 126.841, 179.500 127.596 C 176.200 128.352, 172.001 128.977, 170.168 128.985 L 166.837 129 168.809 125.750 C 171.558 121.221, 173.119 112.860, 172.383 106.604 L 171.763 101.325 182.497 100 C 191.218 98.924, 193.772 98.221, 196.116 96.249 C 199.269 93.596, 199.787 90.930, 197.579 88.722 C 196.447 87.589, 193.603 87.399, 183.579 87.785 L 171 88.270 171 85.631 C 171 84.180, 171.892 81.328, 172.982 79.294 C 174.721 76.051, 174.793 75.333, 173.572 73.470 C 172.204 71.381, 172.357 71.313, 182.340 69.581 C 195.348 67.323, 201.752 65.131, 204.115 62.126 C 206.366 59.265, 206.458 58.009, 204.603 55.472 C 203.252 53.625, 202.978 53.617, 196.353 55.236 C 192.584 56.158, 186.125 57.185, 182 57.520 L 174.500 58.128 174.826 50.064 L 175.152 42 178.826 41.996 C 183.604 41.991, 199.512 39.402, 204 37.900 C 208.050 36.544, 212.599 32.642, 213.313 29.911 C 213.907 27.641, 210.501 23, 208.242 23 C 207.355 23, 205.700 23.828, 204.564 24.840 C 202.063 27.070, 194.523 28.711, 182.596 29.621 L 173.693 30.300 174.248 20.216 C 174.730 11.477, 174.573 9.924, 173.073 8.566 C 170.516 6.252, 168.478 6.643, 165.662 9.990 M 79.625 75.518 C 78.329 76.814, 77.998 79.306, 77.992 87.821 C 77.983 99.120, 76.425 112.411, 72.990 130.500 C 71.841 136.550, 70.475 144.425, 69.954 148 C 69.433 151.575, 68.624 157.134, 68.157 160.354 C 65.923 175.735, 72.679 183.573, 85.931 180.975 C 88.994 180.374, 93.525 179.253, 96 178.484 C 102.980 176.315, 113.625 174, 116.619 174 C 118.109 174, 123.416 173.302, 128.414 172.449 C 137.714 170.861, 152.021 168.483, 157.652 167.589 L 160.805 167.089 160.316 175.295 C 159.816 183.694, 159.177 186.584, 155.794 195.750 C 154.116 200.296, 153.497 200.999, 151.178 200.996 C 149.705 200.994, 143.100 201.694, 136.500 202.553 C 129.900 203.411, 119.100 204.784, 112.500 205.605 C 86.037 208.893, 77 211.822, 77 217.113 C 77 220.582, 79.662 223.325, 82.408 222.685 C 97.064 219.265, 114.567 216.774, 140.276 214.448 L 147.051 213.835 145.190 217.168 C 144.167 219, 142.468 220.661, 141.415 220.858 C 138.285 221.442, 136.809 223.220, 137.304 225.810 C 137.789 228.349, 135.508 232.041, 125.494 244.925 C 116.541 256.445, 110.875 262.498, 108.937 262.613 C 106.010 262.786, 104.117 264.860, 103.400 268.680 C 102.411 273.952, 104.457 277, 108.985 277 C 112.278 277, 113.498 276.099, 121.566 267.707 C 130.007 258.927, 138.783 248.128, 142.876 241.483 C 143.887 239.842, 145.649 237.669, 146.793 236.653 C 148.840 234.834, 149.029 234.909, 159.186 241.558 C 178.925 254.479, 183.211 257.020, 197.013 263.979 C 209.049 270.047, 210.218 270.523, 222.740 274.440 C 228.922 276.374, 236.219 279.091, 238.957 280.478 C 246.485 284.293, 250 283.500, 250 277.987 C 250 272.611, 239.866 266.787, 218.784 260.046 C 204.076 255.343, 197.915 252.192, 179.500 239.952 C 174 236.297, 166.350 231.605, 162.500 229.526 C 158.650 227.448, 155.299 225.566, 155.054 225.344 C 154.481 224.827, 160.019 214.210, 161.431 213.118 C 162.019 212.664, 169.025 211.312, 177 210.115 C 215.540 204.328, 216.586 204.040, 219.651 198.349 C 221.328 195.235, 221.324 195.015, 219.545 193.050 C 217.232 190.494, 215.952 190.486, 211.261 193 C 209.152 194.131, 205.619 195, 203.134 195 C 200.717 195, 194.410 195.644, 189.119 196.431 C 174.015 198.678, 167.998 199.034, 168.011 197.678 C 168.017 197.030, 168.721 194.250, 169.575 191.500 C 170.682 187.939, 171.046 183.334, 170.841 175.500 C 170.645 168.027, 170.956 163.779, 171.811 162.250 C 172.748 160.577, 172.790 159.475, 171.974 157.952 C 169.967 154.202, 166.441 153.696, 154.500 155.444 C 111.208 161.783, 104.180 163.052, 92.585 166.631 C 86.582 168.484, 81.294 170, 80.835 170 C 80.376 170, 79.997 166.738, 79.993 162.750 C 79.987 155.400, 81.634 144.422, 85.058 129 C 87.535 117.845, 90 97.672, 90 88.556 C 90 82.653, 89.573 80.661, 87.716 77.898 C 85.125 74.044, 82.014 73.129, 79.625 75.518" stroke="none" fill="black" fill-rule="evenodd"/>
</svg>