<svg xmlns="http://www.w3.org/2000/svg" width="300" height="300" viewBox="0 0 300 300" version="1.1">
	<path d="M 85.219 15.800 C 82.940 17.554, 80 25.313, 80 29.576 C 80 30.817, 79.640 31.983, 79.201 32.167 C 78.761 32.350, 77.604 37.900, 76.629 44.500 C 75.654 51.100, 74.234 57.850, 73.474 59.500 C 72.715 61.150, 70.937 65.650, 69.523 69.500 C 68.110 73.350, 66.112 78.300, 65.083 80.500 C 64.053 82.700, 61.550 88.100, 59.519 92.500 C 57.488 96.900, 55.022 102.075, 54.039 104 C 53.055 105.925, 51.935 108.957, 51.548 110.739 C 51.162 112.520, 50.431 114.234, 49.923 114.548 C 49.415 114.861, 49 116.016, 49 117.114 C 49 119.042, 48.549 119.087, 35.750 118.435 C 24.146 117.844, 21.979 117.987, 18.305 119.592 C 13.757 121.578, 12.197 124.631, 14.005 128.009 C 14.584 129.091, 16.057 130.174, 17.279 130.415 C 18.500 130.657, 22.313 131.398, 25.750 132.064 C 29.188 132.729, 32 133.590, 32 133.977 C 32 134.364, 34.437 135.265, 37.415 135.979 L 42.829 137.278 42.259 140.889 C 41.946 142.875, 41.309 144.650, 40.845 144.833 C 39.630 145.313, 39.781 161, 41 161 C 41.550 161, 42.011 162.012, 42.024 163.250 C 42.058 166.489, 46.187 176.068, 49.319 180.174 C 50.794 182.107, 52 184.032, 52 184.452 C 52 184.872, 54.475 187.574, 57.500 190.458 C 60.525 193.341, 63 196.298, 63 197.029 C 63 198.741, 60.703 205.347, 59.881 206 C 59.534 206.275, 58.197 208.975, 56.909 212 C 55.621 215.025, 53.770 218.367, 52.795 219.426 C 51.820 220.486, 50.762 222.173, 50.444 223.176 C 50.126 224.179, 49.446 225, 48.933 225 C 47.728 225, 44 228.720, 44 229.922 C 44 231.781, 37.577 232.986, 32.219 232.131 C 22.520 230.584, 19 232.376, 19 238.860 C 19 242.215, 19.514 243.230, 22.169 245.120 C 29.094 250.051, 44.207 250.507, 51.493 246.004 C 55.681 243.416, 69 229.299, 69 227.448 C 69 226.706, 69.588 225.740, 70.306 225.300 C 71.024 224.860, 72.544 222.700, 73.684 220.500 C 74.823 218.300, 76.463 215.150, 77.327 213.500 C 78.191 211.850, 79.123 209.734, 79.399 208.798 C 79.839 207.303, 80.706 207.516, 86.523 210.548 C 90.221 212.476, 94.622 214, 96.489 214 C 98.329 214, 100.004 214.511, 100.212 215.136 C 100.601 216.302, 100.890 216.206, 107.500 212.721 C 111.120 210.812, 116 201.941, 116 197.270 C 116 195.471, 115.635 194, 115.189 194 C 114.742 194, 113.384 193.075, 112.171 191.945 L 109.965 189.889 106.732 192.100 C 104.955 193.315, 102.946 194.990, 102.268 195.822 C 101.180 197.156, 100.529 197.072, 96.713 195.110 C 94.335 193.887, 91.163 191.899, 89.664 190.693 L 86.937 188.500 88.940 184.596 C 90.041 182.448, 91.687 178.398, 92.599 175.596 C 93.510 172.793, 95.050 168.700, 96.021 166.500 C 96.993 164.300, 98.552 159.575, 99.487 156 C 100.423 152.425, 101.593 148.600, 102.088 147.500 C 102.583 146.400, 103.677 142.125, 104.518 138 C 106.055 130.459, 107.697 128, 111.191 128 C 112.186 128, 113 127.550, 113 127 C 113 126.450, 113.660 126, 114.466 126 C 115.936 126, 119.015 124.780, 128.687 120.367 C 131.540 119.065, 134.399 118, 135.040 118 C 135.681 118, 138.297 116.913, 140.853 115.585 C 143.409 114.256, 147.474 112.360, 149.887 111.371 C 152.299 110.382, 155.562 108.285, 157.137 106.710 C 159.969 103.877, 160.917 101, 159.019 101 C 158.480 101, 157.760 99.891, 157.420 98.536 C 157.079 97.181, 155.901 95.786, 154.802 95.437 C 151.946 94.531, 144.373 95.846, 143.013 97.485 C 142.380 98.247, 138.856 99.841, 135.181 101.026 C 131.506 102.211, 128.015 103.581, 127.423 104.070 C 125.886 105.337, 112.909 109.243, 112.291 108.624 C 111.666 107.999, 113.949 97.906, 115.033 96.500 C 115.457 95.950, 116.314 93.593, 116.938 91.262 C 117.756 88.200, 119.066 86.348, 121.655 84.588 C 123.626 83.249, 125.774 81.106, 126.427 79.826 C 127.456 77.810, 127.274 77.134, 125.060 74.750 C 122.496 71.989, 116.805 70.889, 115.554 72.913 C 115.243 73.415, 113.103 74.145, 110.796 74.534 C 101.937 76.031, 96.156 85.662, 92.956 104.255 C 92.316 107.970, 91.390 111.259, 90.896 111.564 C 90.403 111.869, 90 113.162, 90 114.437 C 90 116.559, 89.357 116.852, 82.459 117.878 C 78.312 118.495, 73.189 119, 71.076 119 L 67.234 119 68.657 114.750 C 69.440 112.413, 70.912 108.700, 71.928 106.500 C 77.771 93.850, 78.971 91.047, 80.449 86.602 C 81.344 83.908, 83.110 79.408, 84.372 76.602 C 85.635 73.796, 87.263 69.250, 87.989 66.500 C 88.716 63.750, 89.652 61.050, 90.070 60.500 C 91.355 58.807, 94.037 42.996, 94.682 33.310 C 95.416 22.283, 93.950 15.490, 90.645 14.603 C 87.742 13.824, 87.805 13.810, 85.219 15.800 M 191.250 52.676 C 188.912 52.918, 187 53.481, 187 53.929 C 187 54.376, 184.643 55.055, 181.762 55.437 C 172.265 56.697, 167.470 60.571, 169.349 65.466 C 170.064 67.332, 176.370 70, 180.063 70 C 181.613 70, 183.126 70.395, 183.425 70.879 C 183.724 71.362, 186.666 71.952, 189.963 72.191 C 196.952 72.696, 197.927 73.318, 195.661 75.823 C 194.747 76.832, 194 77.991, 194 78.399 C 194 78.806, 192.712 81.021, 191.137 83.320 C 189.562 85.619, 187.934 88.625, 187.518 90 C 187.102 91.375, 185.968 94.300, 184.998 96.500 C 184.027 98.700, 182.472 104.775, 181.541 110 C 180.610 115.225, 179.455 120.246, 178.974 121.157 C 178.493 122.068, 177.099 128.593, 175.877 135.657 C 174.655 142.721, 173.346 148.725, 172.968 149 C 172.590 149.275, 171.051 155.800, 169.547 163.500 C 168.043 171.200, 166.453 177.950, 166.014 178.500 C 165.307 179.386, 162.895 189.094, 161.295 197.500 C 160.981 199.150, 160.407 200.725, 160.020 201 C 159.633 201.275, 158.316 205.325, 157.093 210 C 155.870 214.675, 154.060 220.300, 153.070 222.500 C 152.081 224.700, 150.676 228.863, 149.947 231.750 C 149.218 234.637, 148.275 237, 147.851 237 C 147.427 237, 146.198 239.813, 145.120 243.250 C 143.352 248.884, 138.365 260.133, 135.920 264 C 135.398 264.825, 134.484 266.737, 133.888 268.249 C 133.293 269.761, 132.420 270.759, 131.949 270.468 C 131.477 270.177, 130.007 270.211, 128.681 270.544 C 125.240 271.408, 123.215 277.692, 124.995 281.988 C 126.827 286.410, 129.655 288, 135.688 288 C 142.736 288, 146.210 284.860, 151.883 273.361 C 159.506 257.908, 164 247.563, 164 245.466 C 164 244.660, 164.413 244, 164.917 244 C 165.421 244, 166.839 240.738, 168.069 236.750 C 169.298 232.762, 170.864 228.600, 171.549 227.500 C 172.234 226.400, 173.541 222.800, 174.453 219.500 C 175.365 216.200, 176.729 212.150, 177.484 210.500 C 178.239 208.850, 179.840 203.675, 181.042 199 C 182.244 194.325, 183.592 190.045, 184.038 189.489 C 184.483 188.933, 185.831 183.308, 187.032 176.989 C 188.233 170.670, 189.569 165.050, 190.001 164.500 C 190.433 163.950, 191.759 157.650, 192.949 150.500 C 194.138 143.350, 195.520 136.744, 196.020 135.821 C 196.520 134.897, 197.861 128.678, 199 122 C 200.139 115.322, 201.474 109.103, 201.967 108.179 C 202.459 107.256, 204 101.749, 205.390 95.943 C 206.781 90.136, 208.609 84.061, 209.453 82.443 C 210.297 80.824, 210.990 78.749, 210.994 77.832 C 211.008 73.975, 212.152 73, 216.664 73 C 220.176 73, 230.047 74.755, 229.987 75.369 C 229.980 75.441, 228.691 78.031, 227.122 81.125 C 224.096 87.089, 219.233 94.579, 215.227 99.444 C 213.894 101.063, 212.409 103.425, 211.926 104.694 C 211.444 105.962, 210.600 107, 210.050 107 C 209.500 107, 208.085 109.118, 206.906 111.706 C 204.439 117.121, 204.719 125.927, 207.455 128.950 C 210.987 132.853, 220.036 133.875, 233.432 131.882 C 244.311 130.264, 249.257 131.274, 254.606 136.205 C 257.023 138.432, 259 140.872, 259 141.627 C 259 142.382, 259.414 143, 259.920 143 C 260.960 143, 263.553 150.487, 264.595 156.500 C 264.977 158.700, 265.780 160.817, 266.380 161.205 C 267.897 162.184, 267.806 199.053, 266.279 202.185 C 265.658 203.458, 264.439 207.830, 263.569 211.899 C 262.688 216.020, 260.662 221.454, 258.994 224.164 C 257.347 226.840, 256 229.422, 256 229.900 C 256 231.324, 251.251 234, 248.722 234 C 246.307 234, 241 229.324, 241 227.195 C 241 226.538, 240.397 226, 239.661 226 C 238.924 226, 237.462 224.205, 236.411 222.011 C 235.247 219.581, 233.804 218.018, 232.719 218.011 C 231.739 218.005, 230.678 217.325, 230.362 216.500 C 230.045 215.675, 229.155 215, 228.384 215 C 226.290 215, 221.002 220.437, 220.985 222.608 C 220.977 223.649, 222.664 227.849, 224.735 231.943 C 228.613 239.608, 238.522 251, 241.313 251 C 242.149 251, 243.002 251.506, 243.208 252.125 C 243.435 252.805, 246.165 253.250, 250.114 253.250 C 255.329 253.250, 257.435 252.753, 260.572 250.782 C 262.732 249.425, 265.019 248.131, 265.653 247.907 C 267.340 247.311, 274.972 236.878, 275.643 234.250 C 275.958 233.012, 276.563 232, 276.986 232 C 278.052 232, 281.834 221.414, 282.614 216.250 C 282.967 213.912, 283.580 212, 283.976 212 C 285.352 212, 287.003 195.423, 287.001 181.613 C 287 167.985, 285.281 150, 283.980 150 C 283.617 150, 282.725 147.412, 281.999 144.250 C 281.272 141.088, 280.300 138.072, 279.839 137.550 C 279.378 137.028, 279 135.898, 279 135.041 C 279 134.183, 278.100 132.919, 277 132.232 C 275.900 131.545, 275 130.325, 275 129.521 C 275 128.718, 273.655 127.065, 272.010 125.849 C 270.366 124.634, 268.786 122.901, 268.500 122 C 268.214 121.098, 266.409 119.612, 264.490 118.697 C 262.570 117.781, 261 116.662, 261 116.209 C 261 115.756, 257.827 114.563, 253.950 113.557 C 248.648 112.182, 244.702 111.854, 238.040 112.233 L 229.181 112.739 231.201 109.119 C 232.313 107.129, 233.847 105.140, 234.611 104.700 C 235.375 104.260, 236 103.403, 236 102.795 C 236 102.186, 237.050 100.296, 238.333 98.594 C 239.616 96.892, 242.541 91.624, 244.833 86.887 C 248.086 80.164, 249 77.131, 249 73.068 C 249 68.287, 248.654 67.512, 244.750 63.556 C 240.153 58.898, 237.501 57.814, 226 55.892 C 221.875 55.203, 218.275 54.315, 218 53.919 C 217.379 53.025, 197.031 52.080, 191.250 52.676 M 78 137.051 C 75.525 137.491, 70.746 137.885, 67.381 137.926 L 61.262 138 60.642 141.750 C 59.282 149.979, 59.933 159.071, 62.244 164.108 C 63.478 166.799, 64.792 169, 65.163 169 C 65.533 169, 66.828 170.604, 68.040 172.565 L 70.243 176.129 71.967 173.294 C 72.916 171.735, 74.690 167.234, 75.910 163.291 C 77.130 159.349, 78.477 155.984, 78.904 155.812 C 79.757 155.469, 84 140.374, 84 137.682 C 84 136.757, 83.662 136.056, 83.250 136.125 C 82.838 136.194, 80.475 136.611, 78 137.051" stroke="none" fill="black" fill-rule="evenodd"/>
</svg>