<svg xmlns="http://www.w3.org/2000/svg" width="300" height="300" viewBox="0 0 300 300" version="1.1">
	<path d="M 93.632 41.816 C 92.734 45.014, 92 48.432, 92 49.410 C 92 50.389, 91.075 54.234, 89.945 57.956 L 87.890 64.722 77.852 65.413 C 72.331 65.793, 65.730 66.878, 63.183 67.824 C 57.772 69.833, 54.796 73.877, 56.620 76.741 C 57.827 78.637, 58.607 78.668, 74.326 77.434 L 83.152 76.741 78.951 85.121 C 69.613 103.743, 49.822 128.600, 40.397 133.544 C 35.907 135.899, 34.999 138.784, 37.916 141.424 C 39.398 142.765, 40.794 143.074, 43.274 142.608 C 47.531 141.810, 57.177 134.822, 63.070 128.267 C 67.378 123.476, 67.666 123.323, 68.558 125.355 C 69.375 127.215, 70.297 127.493, 75.500 127.448 C 78.800 127.419, 83.412 127.024, 85.750 126.570 L 90 125.744 89.994 131.122 C 89.990 134.080, 89.315 137.789, 88.494 139.364 C 87.672 140.940, 87 142.781, 87 143.456 C 87 144.131, 84.188 145.483, 80.750 146.461 C 67.303 150.286, 64.949 151.227, 63.893 153.200 C 63.057 154.763, 63.144 155.573, 64.271 156.700 C 66.372 158.801, 76.705 159.471, 84.453 158.009 C 88.103 157.320, 91.249 156.924, 91.444 157.128 C 92.179 157.899, 70.886 188.284, 62.101 199 C 60.974 200.375, 56.801 205.550, 52.826 210.500 C 48.852 215.450, 44.584 220.601, 43.340 221.947 C 40.468 225.055, 38.602 229.521, 39.355 231.482 C 40.288 233.914, 45.348 233.257, 49.600 230.152 C 54.069 226.889, 59.712 220.876, 69 209.477 L 75.500 201.500 75.816 210.500 C 76.161 220.323, 74.502 242.561, 72.848 250.272 C 71.607 256.059, 73.115 261, 76.121 261 C 77.155 261, 78 261.450, 78 262 C 78 262.550, 77.550 263, 77 263 C 75.534 263, 75.780 268.317, 77.346 270.458 C 78.492 272.025, 79.642 272.218, 85.096 271.754 C 92.365 271.136, 105.566 267.160, 113.933 263.067 C 114.721 262.682, 115.846 261.524, 116.433 260.496 C 117.020 259.467, 118.712 257.565, 120.194 256.271 C 121.675 254.976, 123.907 251.348, 125.154 248.208 C 127.267 242.885, 127.423 240.983, 127.460 220 C 127.500 197.442, 126.997 192.591, 123.173 178.665 C 121.371 172.104, 116.677 167, 112.445 167 C 111.079 167, 107.193 168.124, 103.812 169.498 C 100.430 170.872, 97.508 171.841, 97.318 171.651 C 97.128 171.461, 97.796 170.224, 98.803 168.903 C 99.809 167.581, 102.825 163.003, 105.504 158.730 C 110.073 151.441, 110.826 150.742, 117.652 147.459 C 125.258 143.801, 130 139.068, 130 135.134 C 130 132.179, 126.044 130.371, 123.066 131.965 C 120.879 133.135, 120.879 133.135, 122.582 129.841 C 124.513 126.107, 126.911 116.815, 126.964 112.861 C 127.016 109.008, 123.924 105.572, 121.188 106.440 C 119.826 106.873, 118.994 107.959, 118.985 109.317 C 118.955 113.586, 117.926 114.009, 109.201 113.336 C 102.030 112.783, 101 112.465, 101 110.802 C 101 107.136, 98.091 103, 95.513 103 C 92.152 103, 89 106.681, 89 110.606 C 89 113.675, 88.750 113.888, 83.951 114.917 C 78.525 116.081, 74 116.330, 74 115.466 C 74 115.172, 76.225 111.666, 78.945 107.675 C 83.516 100.968, 94 80.461, 94 78.227 C 94 77.692, 96.323 77.031, 99.163 76.758 L 104.326 76.262 116.913 88.925 C 133.510 105.623, 141.464 112, 145.696 112 C 149.508 112, 151.199 109.653, 149.889 106.182 C 149.408 104.907, 145.556 100.632, 141.329 96.682 C 127.074 83.361, 119.989 75.626, 121.286 74.802 C 121.954 74.378, 125.696 74.024, 129.602 74.015 C 135.321 74.003, 137.366 73.556, 140.102 71.718 C 143.744 69.271, 145.065 65.128, 142.801 63.251 C 141.530 62.197, 128.821 62.669, 107.082 64.577 C 99.052 65.282, 98.701 65.228, 99.441 63.408 C 101.029 59.503, 102.930 50.370, 102.961 46.500 C 102.999 41.732, 99.825 36, 97.146 36 C 95.705 36, 94.881 37.365, 93.632 41.816 M 220.441 53.451 C 219.176 54.396, 217.247 54.709, 214.904 54.348 C 211.832 53.874, 210.994 54.193, 209.154 56.532 C 207.213 58.998, 207 60.491, 207 71.594 C 207 78.372, 207.509 87.342, 208.132 91.527 C 208.974 97.191, 208.974 99.426, 208.132 100.268 C 206.607 101.793, 206.691 105.966, 208.250 106.138 C 213.771 106.750, 226.128 105.415, 233.979 103.358 C 243.472 100.872, 244.956 99.986, 244.985 96.785 C 244.993 95.842, 245.921 94.578, 247.046 93.975 C 250.473 92.141, 257.918 81.088, 259.582 75.364 C 262.907 63.929, 257.171 56.543, 242.500 53.369 C 234.214 51.576, 222.893 51.618, 220.441 53.451 M 160.250 58.496 C 158.604 60.366, 158.454 101.054, 160.087 102.687 C 160.870 103.470, 160.870 103.962, 160.087 104.446 C 159.489 104.816, 159 106.386, 159 107.937 C 159 113.287, 163.258 114.500, 173.249 111.993 C 188.344 108.206, 200 102.174, 200 98.149 C 200 96.090, 197.030 93, 195.053 93 C 194.274 93, 194.871 91.546, 196.562 89.330 C 200.263 84.477, 203.948 75.364, 203.973 71 C 204.001 66.070, 200.937 61.632, 195.782 59.137 C 191.865 57.240, 189.690 57.004, 176.434 57.038 C 164.825 57.068, 161.222 57.392, 160.250 58.496 M 220.620 63.670 C 218.847 64.167, 218.782 65.028, 219.462 78.848 C 219.859 86.907, 220.344 93.665, 220.541 93.866 C 220.737 94.067, 222.338 93.729, 224.098 93.116 C 225.858 92.502, 228.694 91.995, 230.399 91.989 C 236.023 91.970, 245.973 80.307, 247.500 71.945 C 248.082 68.757, 247.868 68.261, 245.427 67.149 C 243.929 66.466, 239.733 65.502, 236.102 65.006 C 232.471 64.509, 227.925 63.888, 226 63.624 C 224.075 63.360, 221.654 63.381, 220.620 63.670 M 171 83.066 C 171 90.998, 170.541 97.989, 169.948 99.098 C 168.785 101.271, 168.208 101.277, 178.543 99.007 C 183.546 97.909, 183.583 97.871, 183.180 94.417 C 182.879 91.839, 183.452 89.955, 185.385 87.165 C 186.822 85.092, 188.956 80.557, 190.128 77.087 C 192.787 69.214, 192.568 69.036, 180.250 69.015 L 171 69 171 83.066 M 193.996 114.996 C 180.955 115.653, 177.868 116.395, 174.217 119.750 C 172.575 121.259, 171.330 121.343, 170.500 120 C 170.160 119.450, 168.776 119, 167.425 119 C 165.606 119, 164.538 119.900, 163.316 122.464 C 161.481 126.311, 161.517 126.559, 167.024 148.500 C 168.543 154.550, 170.026 161.770, 170.321 164.544 C 170.798 169.034, 170.618 169.692, 168.678 170.544 C 167.405 171.103, 166.375 172.580, 166.198 174.101 C 165.790 177.614, 172.219 183.493, 175.379 182.498 C 178.499 181.515, 196.045 178.683, 196.290 179.123 C 196.406 179.331, 196.357 186.520, 196.182 195.100 L 195.864 210.701 169.682 211.252 C 141.723 211.840, 135.825 212.826, 134.455 217.141 C 132.779 222.424, 138.865 223.392, 171.750 223.073 L 196 222.838 195.994 228.169 C 195.990 231.101, 196.668 242.050, 197.500 252.500 C 200.377 288.624, 201.329 293.019, 206.273 292.985 C 211.076 292.952, 211.518 291.825, 211.251 280.281 C 211.115 274.351, 210.572 263.875, 210.046 257 C 209.520 250.125, 208.806 239.438, 208.460 233.250 L 207.831 222 213.166 221.994 C 216.100 221.991, 221.200 221.535, 224.500 220.980 C 227.800 220.426, 233.200 219.553, 236.500 219.041 C 255.651 216.070, 265.066 212.668, 266.990 208.025 C 269.399 202.208, 263.864 198.343, 259 202.445 C 258.175 203.141, 253.225 204.493, 248 205.450 C 242.775 206.406, 236.475 207.644, 234 208.200 C 231.525 208.756, 224.662 209.452, 218.750 209.747 L 208 210.283 208 200.788 C 208 195.566, 208.289 188.527, 208.642 185.147 L 209.285 179 216.174 179 C 221.815 179, 223.183 178.683, 223.728 177.250 C 224.094 176.287, 225.340 174.751, 226.496 173.835 C 227.653 172.920, 230.128 169.095, 231.998 165.335 L 235.396 158.500 235.448 143 C 235.499 127.900, 235.430 127.381, 232.788 122.887 C 230.062 118.250, 228.222 117.078, 220.500 115.058 C 216.240 113.943, 214.956 113.940, 193.996 114.996 M 101.620 132.176 C 101.253 136.122, 100.459 139.947, 99.854 140.676 C 99.024 141.676, 99.127 142, 100.273 142 C 101.660 142, 104.834 137.543, 109.287 129.346 C 110.229 127.611, 111 125.923, 111 125.596 C 111 125.268, 109.040 125, 106.644 125 L 102.287 125 101.620 132.176 M 212.201 134.294 C 210.354 147.074, 210.467 148, 213.875 148 C 215.456 148, 218.156 147.719, 219.875 147.375 L 223 146.750 223 138.566 C 223 129.234, 222.127 127.506, 216.951 126.604 L 213.403 125.985 212.201 134.294 M 175.544 131.447 C 176.869 140.279, 179.726 149.501, 181.126 149.462 C 181.882 149.442, 186.149 149.052, 190.610 148.596 L 198.719 147.766 199.339 139.633 C 199.680 135.160, 200.246 130.488, 200.596 129.250 L 201.233 127 188.055 127 L 174.877 127 175.544 131.447 M 214.750 159.735 C 210.089 160.103, 210 160.173, 210 163.508 C 210 166.575, 210.360 167.005, 213.694 167.926 C 215.725 168.487, 217.446 168.845, 217.518 168.723 C 217.590 168.600, 218.402 166.857, 219.324 164.849 C 221.123 160.931, 221.456 158.890, 220.250 159.180 C 219.838 159.279, 217.363 159.529, 214.750 159.735 M 186.250 161.732 C 182.130 162.103, 182 162.222, 182 165.625 C 182 168.490, 182.322 169.044, 183.750 168.640 C 184.713 168.367, 187.975 167.833, 191 167.451 C 196.616 166.743, 197.958 165.841, 197.985 162.750 C 198.001 160.922, 196.594 160.801, 186.250 161.732 M 101.523 183.463 C 96.003 185.792, 93.039 186.556, 91.898 185.945 C 90.088 184.977, 89.751 186.546, 88.394 202.250 L 87.724 210 94.813 210 C 102.394 210, 111.703 211.592, 113.750 213.239 C 115.402 214.568, 115.359 211.769, 113.496 196.500 C 111.947 183.797, 111.164 179.969, 110.133 180.049 C 109.785 180.076, 105.911 181.613, 101.523 183.463 M 91.374 222.694 C 88.278 223.104, 88.241 223.177, 87.559 230.304 C 86.418 242.239, 83.933 255.172, 82.304 257.658 C 81.461 258.946, 81.105 260, 81.515 260 C 81.924 260, 87.488 258.861, 93.880 257.469 C 100.271 256.077, 106.480 254.727, 107.677 254.469 C 111.648 253.611, 114.728 245.021, 115.382 232.983 L 115.952 222.467 105.226 222.374 C 99.327 222.322, 93.093 222.466, 91.374 222.694" stroke="none" fill="black" fill-rule="evenodd"/>
</svg>