<svg xmlns="http://www.w3.org/2000/svg" width="300" height="300" viewBox="0 0 300 300" version="1.1">
	<path d="M 110.393 38.750 C 109.795 39.712, 108.711 42.824, 107.985 45.665 C 106.672 50.804, 106.637 50.838, 101.083 52.368 C 98.012 53.213, 89.875 54.173, 83 54.500 C 76.125 54.827, 69.038 55.319, 67.250 55.593 C 63.752 56.129, 59 60.153, 59 62.581 C 59 65.386, 62.164 68.899, 65.759 70.086 C 69.961 71.472, 87.970 70.664, 97.658 68.654 L 103.817 67.377 103.281 72.938 C 102.987 75.997, 102.466 78.758, 102.123 79.074 C 101.075 80.041, 77.632 86.320, 75.517 86.201 C 72.631 86.038, 69 89.883, 69 93.102 C 69 97.108, 73.119 99.993, 78.885 100.026 C 81.423 100.040, 87.415 99.043, 92.201 97.810 C 96.986 96.577, 101.203 95.869, 101.571 96.238 C 101.940 96.606, 101.944 98.887, 101.581 101.306 C 101.068 104.727, 100.320 106.014, 98.211 107.102 C 96.720 107.871, 93.925 109.956, 92 111.736 C 86.161 117.135, 77.920 121, 72.246 121 C 66.030 121, 61.715 124.559, 62.201 129.286 C 63.020 137.259, 84.659 137.306, 92.660 129.351 C 95.574 126.453, 100.182 123, 101.135 123 C 101.611 123, 102 126.842, 102 131.539 C 102 145.679, 104.077 174.387, 105.197 175.738 C 106.880 177.765, 112.450 177.265, 114.595 174.894 C 116.395 172.904, 116.481 171.155, 116.163 143.144 L 115.826 113.500 119.085 111.592 C 123.608 108.943, 129.791 103.238, 133.164 98.600 C 136.354 94.213, 136.898 89.041, 134.429 86.571 C 131.896 84.039, 129.306 84.737, 126.007 88.842 C 124.309 90.954, 121.588 93.668, 119.960 94.871 L 117 97.060 117 93.722 C 117 90.904, 117.699 89.892, 121.500 87.213 C 124.758 84.917, 126 83.361, 126 81.577 C 126 78.929, 122.732 76, 119.777 76 C 118.244 76, 118 75.042, 118 69.020 L 118 62.041 122.140 59.928 C 127.381 57.255, 132 52.244, 132 49.232 C 132 46.830, 127.959 42, 125.950 42 C 125.322 42, 123.558 42.891, 122.029 43.979 L 119.249 45.959 118.630 42.089 C 118.283 39.920, 117.313 37.951, 116.424 37.609 C 113.647 36.544, 111.514 36.947, 110.393 38.750 M 200.500 53.260 C 190.491 55.070, 178.726 59.113, 163.275 66.052 C 158.274 68.298, 156.894 71.662, 159.402 75.491 C 162.232 79.810, 169.666 80.011, 178.708 76.011 C 181.626 74.720, 182.991 74.495, 182.971 75.306 C 182.920 77.421, 174.330 101.244, 170.612 109.581 C 164.602 123.058, 164.876 130, 171.416 130 C 174.540 130, 175.858 128.248, 182.800 114.864 C 190.893 99.263, 195.507 88.046, 197.553 79 C 198.486 74.875, 199.565 70.848, 199.951 70.051 C 200.643 68.624, 205.983 66.650, 206.839 67.506 C 208.740 69.406, 210.343 80.599, 210.745 94.768 C 211.141 108.745, 210.973 111.392, 209.550 113.564 C 207.091 117.317, 203.568 118.642, 200.464 116.981 C 198.666 116.019, 197.167 115.905, 195.223 116.585 C 192.914 117.392, 192.453 118.187, 192.190 121.812 C 191.922 125.513, 192.301 126.479, 195.012 129.011 C 200.836 134.451, 208.906 133.975, 217.209 127.702 C 224.847 121.931, 225.500 119.475, 225.500 96.500 C 225.500 78.623, 225.264 75.751, 223.279 69.441 C 218.725 54.964, 213.114 50.979, 200.500 53.260 M 158.251 145.537 C 157.016 146.402, 155.740 149.052, 155.027 152.234 C 153.948 157.049, 151.673 163.732, 148.470 171.500 C 141.824 187.616, 140.417 190.274, 138.020 191.245 C 136.634 191.806, 130.325 192.326, 124 192.400 C 115.195 192.502, 111.753 192.938, 109.311 194.261 C 103.678 197.312, 101.175 203.240, 104.391 205.910 C 105.156 206.545, 107.519 207.015, 109.641 206.954 C 116.214 206.766, 131 208.239, 131 209.082 C 131 209.936, 125.528 220.649, 120.058 230.500 C 118.226 233.800, 115.051 238.750, 113.002 241.500 C 110.953 244.250, 107.116 249.875, 104.475 254 C 101.835 258.125, 98.623 262.574, 97.337 263.886 C 94.394 266.892, 94.364 269.649, 97.250 272.056 C 101.915 275.948, 105.994 273.936, 114.267 263.662 C 123.789 251.836, 130.745 241.889, 134.487 234.750 C 136.433 231.037, 138.412 228, 138.885 228 C 139.358 228, 140.050 229.912, 140.424 232.250 C 141.397 238.336, 144.821 243.572, 152.685 251 C 165.349 262.961, 172.408 268.033, 186 274.935 C 215.188 289.758, 249.717 295.617, 256.257 286.858 C 258.052 284.453, 258.079 284.053, 256.635 281.261 C 254.929 277.962, 252.668 277.034, 246.285 277.014 C 235.615 276.979, 208.161 269.425, 196.500 263.315 C 190.385 260.112, 177.686 252.764, 177 252.033 C 176.725 251.740, 173.125 248.936, 169 245.802 C 156.567 236.355, 151.502 230.498, 149.472 223.223 C 148.509 219.770, 147.334 216.706, 146.861 216.414 C 145.579 215.622, 145.812 213.060, 147.586 208.414 C 149.135 204.357, 149.426 204.165, 160.125 200.131 C 166.149 197.859, 171.497 196, 172.009 196 C 172.522 196, 175.317 194.930, 178.220 193.623 C 181.124 192.315, 187.775 189.777, 193 187.982 C 208.385 182.696, 212.733 180.486, 214.971 176.816 C 217.039 173.424, 217.561 169.431, 216.214 167.313 C 215.799 166.659, 214.234 165.659, 212.736 165.090 C 210.363 164.188, 209.642 164.418, 207.124 166.879 C 205.479 168.487, 202.138 170.220, 199.367 170.903 C 192.380 172.626, 172.410 178.902, 166.262 181.308 C 163.382 182.435, 160.845 183.165, 160.627 182.929 C 160.408 182.693, 161.337 178.225, 162.691 173 C 165.606 161.758, 165.379 150.568, 162.153 146.467 C 160.475 144.334, 160.097 144.244, 158.251 145.537" stroke="none" fill="black" fill-rule="evenodd"/>
</svg>