<svg xmlns="http://www.w3.org/2000/svg" width="300" height="300" viewBox="0 0 300 300" version="1.1">
	<path d="M 85.116 11.784 C 84.591 12.764, 83.440 23.677, 82.558 36.034 C 81.677 48.390, 80.449 63.568, 79.830 69.763 L 78.704 81.025 72.102 80.449 C 58.848 79.293, 51.384 77.858, 46.129 75.455 C 43.175 74.105, 40.598 73, 40.402 73 C 40.206 73, 39.306 74.130, 38.401 75.510 C 36.839 77.894, 36.876 78.200, 39.128 81.579 C 40.433 83.536, 43.259 86.052, 45.409 87.170 C 49.786 89.446, 63.713 91.990, 71.829 91.996 C 77.098 92, 77.153 92.032, 76.657 94.750 C 76.381 96.263, 75.387 102, 74.448 107.500 C 71.764 123.218, 64.174 155.085, 62.509 157.626 C 61.679 158.893, 61 161.112, 61 162.557 C 61 164.002, 58.525 172.712, 55.500 181.912 C 52.475 191.113, 50 199.186, 50 199.852 C 50 202.623, 39.400 228.327, 33.920 238.844 C 27.676 250.828, 27.184 253.958, 31.206 256.110 C 34.837 258.054, 38.210 255.508, 43.831 246.583 C 50.043 236.721, 59.373 216.511, 61.504 208.304 C 63.113 202.107, 70.019 180.789, 70.651 180.068 C 70.860 179.831, 72.486 181.022, 74.265 182.715 C 80.403 188.557, 91.112 196, 93.379 196 C 96.214 196, 100 192.098, 100 189.176 C 100 187.968, 99.023 186.197, 97.829 185.240 C 94.616 182.665, 81.018 168.413, 78.441 164.920 C 76.317 162.041, 76.277 161.642, 77.602 156.697 C 80.322 146.556, 86.831 114.366, 87.956 105.500 C 88.583 100.550, 89.289 95.566, 89.524 94.424 C 89.913 92.531, 91.118 92.235, 103.225 91.061 C 125.594 88.893, 129 88.716, 129 89.725 C 129 90.251, 128.317 92.891, 127.481 95.591 C 122.392 112.041, 120.020 132.756, 119.304 167 C 118.641 198.724, 119.374 205.480, 124.612 215.952 C 131.513 229.745, 141.394 235.565, 164.821 239.634 C 178.805 242.063, 180.684 242.154, 204.500 241.562 C 244.909 240.558, 255.211 239.049, 264.624 232.759 C 270.380 228.912, 274 222.596, 274 216.399 C 274 205.595, 263.349 204.495, 260.451 215 C 258.219 223.089, 245.950 225.214, 200.500 225.386 C 175.180 225.482, 169.174 225.220, 162 223.707 C 145.150 220.154, 138.810 215.006, 135.270 202 C 133.763 196.468, 133.508 191.257, 133.551 167 C 133.610 134.223, 135.286 117.131, 140.163 99.555 C 142.793 90.077, 143.049 88.108, 142.076 84.859 C 139.677 76.851, 132.905 74.886, 116.232 77.359 C 110.329 78.234, 102.340 79.234, 98.479 79.582 L 91.457 80.213 93.661 60.857 C 96.008 40.234, 96.515 24.926, 95.060 18.653 C 93.461 11.766, 87.375 7.562, 85.116 11.784 M 199.280 50.029 C 196.995 50.939, 196.843 51.345, 194.976 61.500 C 192.336 75.861, 188.126 86.426, 176.159 108.710 L 169.603 120.920 160.433 120.318 C 149.569 119.604, 145.405 120.878, 144.455 125.207 C 144.123 126.716, 144.139 128.415, 144.489 128.983 C 145.726 130.984, 150.570 132.775, 156.620 133.466 L 162.739 134.166 160.402 139.010 C 152.762 154.848, 155.482 165.312, 169.336 173.382 C 173.001 175.517, 176 177.463, 176 177.708 C 176 177.952, 173.912 180.930, 171.360 184.326 C 164.453 193.515, 159.493 197.715, 153.484 199.462 C 147.813 201.110, 146.378 203.233, 148.018 207.547 C 149.825 212.301, 154.929 213.159, 163.048 210.074 C 170.109 207.391, 173.951 204.198, 182.389 194.004 L 189.703 185.167 195.602 188.543 C 210.918 197.307, 219.778 201.850, 222.791 202.484 C 229.040 203.800, 233.806 198.297, 231.968 191.888 C 230.886 188.117, 229.527 187.037, 225.838 187.015 C 223.289 187.001, 213.750 182, 203.839 175.482 L 199.178 172.416 204.545 164.021 C 207.497 159.404, 210.431 154.248, 211.065 152.563 C 211.700 150.878, 213.621 146.266, 215.335 142.313 L 218.450 135.126 223.475 134.487 C 236.569 132.822, 253.286 127.917, 256.752 124.724 C 261.441 120.401, 261.552 111.945, 256.938 110.480 C 254.457 109.693, 250 111.698, 250 113.602 C 250 114.297, 249.213 115.111, 248.250 115.412 C 245.625 116.232, 226.967 120, 225.531 120 C 224.716 120, 226.312 114.230, 230.117 103.418 C 233.327 94.297, 236.233 84.722, 236.576 82.140 C 237.146 77.840, 236.986 77.331, 234.676 76.094 C 227.760 72.393, 222.166 78.918, 215.361 98.626 C 213.960 102.682, 211.592 109.489, 210.098 113.751 L 207.383 121.500 196.191 121.783 C 190.036 121.938, 185 121.868, 185 121.627 C 185 121.385, 189.037 112.933, 193.970 102.844 C 203.177 84.017, 207.368 71.605, 208.606 59.500 C 209.126 54.420, 208.935 53.250, 207.360 51.868 C 204.812 49.633, 201.925 48.976, 199.280 50.029 M 175.449 139.500 C 174.652 141.425, 173.325 144.630, 172.500 146.622 C 170.512 151.424, 170.604 155.338, 172.750 157.245 C 173.713 158.100, 176.858 160.181, 179.740 161.868 L 184.981 164.937 186.985 162.786 C 189.409 160.184, 196.004 149.020, 198.377 143.500 C 199.323 141.300, 200.529 138.713, 201.057 137.750 C 201.948 136.125, 201.118 136, 189.457 136 L 176.898 136 175.449 139.500" stroke="none" fill="black" fill-rule="evenodd"/>
</svg>