<svg xmlns="http://www.w3.org/2000/svg" width="300" height="300" viewBox="0 0 300 300" version="1.1">
	<path d="M 185.646 19.628 C 182.658 22.398, 176.985 30.669, 171.900 39.668 C 162.201 56.830, 151 81.621, 151 85.924 C 151 86.974, 150.464 88.012, 149.809 88.230 C 149.108 88.464, 148.444 91.375, 148.193 95.314 C 147.832 100.980, 148.014 102, 149.384 102 C 150.273 102, 151 102.480, 151 103.066 C 151 105.211, 156.423 103.529, 157.660 101 C 158.333 99.625, 162.397 90.863, 166.692 81.529 C 170.986 72.195, 177.826 58.470, 181.890 51.029 C 192.171 32.209, 196.472 21.751, 195.036 19.068 C 193.475 16.150, 189.116 16.410, 185.646 19.628 M 85.083 38.763 C 83.122 40.724, 82.128 42.973, 81.658 46.513 C 80.866 52.477, 71.251 83.964, 64.257 103.500 C 56.829 124.248, 57.482 123, 54.045 123 C 48.950 123, 43.061 125.909, 42.340 128.781 C 41.503 132.118, 44.903 135, 49.678 135 C 52.802 135, 53.068 135.217, 52.441 137.250 C 52.059 138.488, 51.153 140.668, 50.428 142.095 C 47.825 147.217, 45 160.458, 45.022 167.438 C 45.056 178.306, 49.881 186.862, 60.959 195.696 C 64.272 198.338, 66.987 201.043, 66.992 201.706 C 67.007 203.950, 58.031 226.135, 53.787 234.343 C 50.633 240.443, 47.577 244.447, 41.669 250.221 C 34.798 256.937, 33.853 258.276, 34.412 260.507 C 35.273 263.936, 39.228 265.410, 43.651 263.950 C 53.832 260.590, 71.206 237.231, 79.129 216.250 C 80.428 212.813, 81.757 210, 82.083 210 C 82.410 210, 89.096 213.825, 96.942 218.500 C 107.183 224.602, 112.145 227, 114.532 227 C 120.487 227, 123.377 221.633, 120.545 215.835 C 118.520 211.689, 113.702 208.148, 98.945 199.964 L 87.390 193.555 94.291 172.527 C 98.086 160.962, 102.548 146.974, 104.205 141.443 L 107.219 131.387 114.219 129.583 C 122.122 127.547, 125 125.297, 125 121.155 C 125 117.374, 122.173 115, 117.671 115 C 115.652 115, 114.005 114.888, 114.011 114.750 C 114.017 114.612, 114.692 112.291, 115.511 109.591 C 117.609 102.673, 117.406 97.785, 114.885 94.580 C 111.401 90.152, 109.246 91.420, 102.295 101.989 C 98.863 107.208, 95.775 112.747, 95.434 114.299 C 94.673 117.765, 92.748 118.526, 82.644 119.351 C 76.579 119.846, 74.898 119.708, 75.267 118.746 C 78.185 111.138, 85.633 87.681, 88.521 77 C 90.529 69.575, 93.258 59.590, 94.586 54.812 C 97.675 43.694, 97.635 41.669, 94.260 38.540 C 90.743 35.279, 88.513 35.333, 85.083 38.763 M 221.477 38.394 C 219.045 42.106, 220.534 45.321, 227.881 52.225 C 235.347 59.241, 249.086 66.886, 262.758 71.633 C 268.083 73.482, 271.217 75.131, 271.584 76.277 C 273.317 81.697, 281.836 82.151, 284.517 76.966 C 289.024 68.252, 284.098 61.388, 269.962 56.684 C 259.677 53.262, 246.325 46.933, 243.214 44.006 C 239.486 40.498, 230.051 36, 226.422 36 C 223.964 36, 222.619 36.651, 221.477 38.394 M 207.205 93.377 C 206.110 95.234, 204.892 98.271, 204.500 100.127 C 203.490 104.900, 197.388 121.219, 193.517 129.500 C 191.717 133.350, 189.309 138.571, 188.165 141.101 C 187.021 143.632, 182.115 153.757, 177.263 163.601 C 172.410 173.446, 167.381 183.975, 166.086 187 C 164.792 190.025, 162.698 194.750, 161.432 197.500 C 153.458 214.829, 154.235 227.693, 163.490 231.560 C 168.578 233.686, 174.174 233.338, 187.525 230.062 C 202.555 226.375, 219.410 220.594, 237.754 212.835 C 254.912 205.577, 258.610 202.026, 254.563 196.689 C 252.216 193.592, 248.102 193.145, 241 195.213 C 237.425 196.255, 231.350 197.959, 227.500 199.001 C 223.650 200.043, 212.606 203.623, 202.958 206.956 C 187.602 212.262, 172.157 216.490, 171.292 215.625 C 170.881 215.215, 175.278 202.760, 178.783 194.405 C 183.562 183.011, 192.479 163.855, 202.012 144.500 C 211.155 125.938, 219 104.808, 219 98.745 C 219 94.527, 215.193 90, 211.647 90 C 209.925 90, 208.606 91.003, 207.205 93.377 M 78.871 135.744 L 69.243 136.069 66.643 143.285 C 60.755 159.630, 59.850 166.871, 62.865 173.509 C 64.534 177.183, 71.014 184, 72.838 184 C 73.615 184, 74.127 182.485, 82.475 155.500 C 85.028 147.250, 87.516 139.262, 88.006 137.750 C 88.495 136.238, 88.807 135.094, 88.698 135.209 C 88.589 135.324, 84.167 135.565, 78.871 135.744 M 244.174 156.314 C 240.351 160.384, 241.251 164.208, 250.364 182.610 C 259.271 200.597, 268.191 220.316, 273.088 232.846 C 277.397 243.871, 281.960 247.303, 286.920 243.250 C 290.557 240.277, 290.576 235.421, 286.991 224.920 C 281.768 209.618, 279.049 203.408, 261.413 166.500 C 258.642 160.700, 257.553 159.266, 253.615 156.227 C 249.920 153.375, 246.910 153.403, 244.174 156.314" stroke="none" fill="black" fill-rule="evenodd"/>
</svg>