<svg xmlns="http://www.w3.org/2000/svg" width="300" height="300" viewBox="0 0 300 300" version="1.1">
	<path d="M 159.263 23.769 C 158.033 25.271, 157.021 27.227, 157.013 28.115 C 156.996 30.181, 160.758 35, 162.388 35 C 163.914 35, 167.544 41.373, 168.445 45.633 C 169.245 49.418, 175.499 56.998, 177.828 57.005 C 180.931 57.014, 173.918 61.741, 161.500 68.009 C 147.420 75.116, 142.756 79.395, 143.676 84.362 C 144.605 89.376, 147.439 90.952, 155.575 90.978 C 160.405 90.993, 164.847 90.257, 169.575 88.658 C 173.384 87.370, 177.721 86.016, 179.214 85.648 L 181.927 84.980 179.329 90.154 C 176.898 94.993, 176.763 95.992, 177.251 105.540 L 177.772 115.751 172.492 116.372 C 169.589 116.713, 163.902 116.743, 159.856 116.439 C 155.599 116.119, 151.880 116.308, 151.028 116.889 C 150.090 117.529, 149.546 119.604, 149.528 122.613 C 149.511 125.497, 149.010 127.497, 148.241 127.753 C 147.549 127.984, 144.468 131.514, 141.394 135.598 C 138.321 139.681, 135.062 143.580, 134.152 144.261 C 129.726 147.577, 124 157.697, 124 162.203 C 124 165.838, 126.421 170.620, 128.945 171.970 C 131.398 173.283, 142.158 173.275, 164.500 171.944 C 174.247 171.364, 182.346 171.026, 182.497 171.194 C 182.934 171.680, 184.913 206.224, 186.060 233.382 C 187.316 263.111, 186.894 268.188, 182.871 271.772 C 179.830 274.482, 179.057 278.657, 181.200 280.800 C 181.860 281.460, 184.476 282, 187.013 282 C 192.327 282, 195.625 279.318, 198.694 272.500 C 200.320 268.890, 200.477 265.431, 200.313 237 C 200.213 219.675, 199.590 197.723, 198.930 188.219 C 198.270 178.714, 197.903 170.774, 198.115 170.576 C 198.327 170.377, 207.838 169.886, 219.250 169.485 L 240 168.756 240 176.829 C 240 186.136, 238.566 193.893, 235.856 199.250 C 233.931 203.056, 233.304 203.320, 226.899 203.031 C 223.776 202.890, 223.133 203.265, 222.060 205.855 C 220.434 209.781, 220.941 211.871, 224.087 214.217 C 229.998 218.626, 239.353 217.387, 246.088 211.302 C 251.177 206.704, 253.825 199.312, 255.111 186.109 C 256.390 172.978, 255.603 164.584, 252.687 160.255 C 248.722 154.369, 246.805 154, 220.228 154 L 196.258 154 195.610 147.750 C 195.254 144.313, 194.702 139.201, 194.384 136.391 L 193.805 131.283 205.808 130.788 C 219.365 130.230, 223.748 128.594, 225.481 123.447 C 226.027 121.826, 227.047 120.137, 227.748 119.694 C 237.856 113.303, 250.866 76.549, 245.772 68.775 C 243.063 64.640, 234.190 63.451, 216.543 64.858 C 208.269 65.518, 199.700 66.448, 197.500 66.924 C 195.300 67.400, 191.733 68.097, 189.574 68.473 L 185.648 69.157 194.812 60.132 C 203.155 51.914, 214.169 37.231, 219.361 27.404 C 221.175 23.970, 221.175 23.847, 219.361 22.473 C 216.737 20.486, 214.045 20.675, 210.018 23.130 C 206.007 25.575, 205.827 25.784, 198.416 36.630 C 195.361 41.101, 191.550 46.015, 189.948 47.550 C 187.164 50.217, 186.949 50.264, 185.120 48.609 C 184.068 47.656, 182.682 44.794, 182.041 42.248 C 177.750 25.207, 165.936 15.622, 159.263 23.769 M 83.166 62.919 C 81.954 65.074, 79.866 70.137, 78.524 74.169 C 73.685 88.715, 71.784 93.739, 65.531 108.500 C 62.037 116.750, 57.971 126.650, 56.496 130.500 C 55.022 134.350, 52.723 139.812, 51.388 142.637 L 48.962 147.774 35.231 148.190 C 23.746 148.538, 20.846 148.950, 17.500 150.706 C 11.614 153.795, 8.287 157.651, 9.656 159.795 C 10.548 161.190, 12.357 161.502, 19.623 161.510 C 24.505 161.515, 31.987 161.628, 36.250 161.760 L 44 162 44.006 169.250 C 44.009 173.238, 44.493 178.235, 45.081 180.355 C 46.411 185.141, 52.941 192.354, 59.161 195.907 L 63.862 198.592 59.533 206.046 C 52.954 217.374, 43.327 226, 37.262 226 C 33.979 226, 31 228.906, 31 232.108 C 31 234.584, 31.605 235.355, 34.497 236.563 C 45.806 241.288, 62.710 229.492, 76.643 207.154 C 76.762 206.963, 78.974 208.262, 81.558 210.040 C 89.974 215.830, 97.901 216.977, 101.560 212.934 C 103.660 210.613, 102.777 202, 100.439 202 C 99.647 202, 99 201.550, 99 201 C 99 200.450, 97.677 200, 96.059 200 C 94.441 200, 92.829 199.532, 92.475 198.959 C 92.121 198.387, 90.094 196.822, 87.971 195.482 L 84.110 193.044 87.448 185.772 C 90.902 178.247, 95.934 163.459, 99.008 151.801 C 99.979 148.117, 101.725 143.894, 102.887 142.416 C 105.214 139.458, 105.576 136.976, 103.921 135.321 C 103.328 134.728, 102.619 130.025, 102.346 124.871 C 101.458 108.112, 100.959 106, 97.885 106 C 93.256 106, 88.672 114.822, 87.493 126 C 85.900 141.112, 86.625 139.632, 79.698 141.903 C 76.289 143.021, 71.628 144.343, 69.339 144.841 L 65.178 145.747 66.511 141.969 C 67.244 139.891, 69.296 134.885, 71.070 130.845 C 72.844 126.805, 75.774 119.450, 77.580 114.500 C 79.386 109.550, 82.964 99.875, 85.530 93 C 92.202 75.128, 93.247 70.530, 91.927 64.847 C 91.132 61.419, 90.274 60.040, 88.673 59.610 C 85.453 58.746, 85.541 58.693, 83.166 62.919 M 215.500 79.656 C 213.300 79.832, 206.438 80.729, 200.250 81.650 L 189 83.324 189.001 90.412 C 189.002 94.310, 189.677 101.325, 190.500 106 C 191.323 110.675, 191.998 114.612, 191.999 114.750 C 192.001 115.263, 214.582 114.951, 216.596 114.410 C 219.179 113.716, 223.910 104.495, 227.933 92.312 C 230.407 84.818, 230.630 83.334, 229.421 82.390 C 228.640 81.779, 228 80.767, 228 80.140 C 228 79.033, 224.830 78.910, 215.500 79.656 M 156.049 136.613 C 154.703 139.150, 151.769 143.313, 149.528 145.863 C 147.287 148.413, 144.203 152.188, 142.676 154.250 L 139.898 158 142.199 157.993 C 143.465 157.990, 152.600 157.321, 162.500 156.507 C 172.400 155.693, 180.891 155.021, 181.368 155.013 C 182.200 155.001, 181.489 140.469, 180.376 134.750 L 179.841 132 169.169 132 L 158.497 132 156.049 136.613 M 77.500 157.537 C 75.300 158.218, 70.800 159.325, 67.500 159.996 C 64.200 160.668, 60.984 161.362, 60.354 161.538 C 59.723 161.714, 58.895 164.131, 58.512 166.910 C 57.553 173.883, 59.921 178.505, 66.373 182.254 C 69.054 183.812, 71.372 184.955, 71.525 184.793 C 72.977 183.266, 82.234 158.086, 81.764 156.943 C 81.619 156.589, 79.700 156.857, 77.500 157.537 M 167.500 183.871 C 161.931 187.352, 156.167 195.214, 154.597 201.469 C 153.944 204.072, 150.622 209.690, 148.963 211 C 148.614 211.275, 147.918 212.249, 147.415 213.164 C 143.597 220.111, 117.485 242.149, 108.515 245.994 C 104.829 247.574, 103.937 247.617, 100.436 246.386 C 95.990 244.822, 92.482 245.905, 91.449 249.160 C 90.483 252.205, 91.768 254.400, 96.246 257.355 C 100.066 259.877, 101.163 260.119, 107 259.728 C 127.542 258.353, 163.765 225.467, 171.540 201.133 C 172.908 196.851, 174.004 195, 175.170 195 C 177.668 195, 178.465 189.800, 176.538 186.073 C 175.664 184.383, 174.547 183, 174.056 183 C 173.565 183, 172.564 182.774, 171.832 182.498 C 171.099 182.222, 169.150 182.840, 167.500 183.871" stroke="none" fill="black" fill-rule="evenodd"/>
</svg>