<svg xmlns="http://www.w3.org/2000/svg" width="300" height="300" viewBox="0 0 300 300" version="1.1">
	<path d="M 181.291 18.452 C 179.111 20.933, 178.816 24.624, 180.480 28.608 C 182.415 33.241, 185.362 36.476, 193.750 43.178 C 197.188 45.925, 200 48.964, 200 49.931 C 200 51.891, 202.992 55, 204.878 55 C 205.550 55, 207.407 54.324, 209.005 53.498 C 212.886 51.490, 213.857 46.608, 211.402 41.436 C 209.311 37.029, 200.633 28.390, 193.424 23.539 C 190.632 21.661, 187.764 19.421, 187.051 18.562 C 185.467 16.652, 182.915 16.604, 181.291 18.452 M 72.274 57.521 C 69.235 59.649, 67.072 66.036, 64.480 80.527 C 62.220 93.167, 59.060 103.354, 55.073 110.853 C 54.007 112.859, 51.011 119.114, 48.415 124.752 C 43.837 134.699, 43.574 135.037, 39.598 136.073 C 29.232 138.775, 27.310 139.478, 24.500 141.596 C 15.455 148.412, 14.230 150.794, 18.373 153.509 C 20.329 154.790, 22.044 154.905, 28.123 154.160 C 32.180 153.663, 35.625 153.361, 35.778 153.489 C 35.931 153.618, 35.560 155.023, 34.954 156.611 C 34.348 158.200, 33.223 161.906, 32.455 164.847 C 31.175 169.748, 31.216 170.503, 32.945 173.892 C 34.956 177.835, 40.239 183.035, 48.754 189.455 C 51.639 191.631, 54 193.926, 54 194.556 C 54 196.795, 42.677 211.604, 35.925 218.197 C 31.155 222.854, 27.549 225.433, 24.086 226.663 C 17.564 228.979, 15.812 231.941, 18.695 235.770 C 20.493 238.157, 21.426 238.497, 26.125 238.475 C 29.733 238.458, 33.144 237.652, 36.500 236.023 C 42.819 232.956, 53.886 221.823, 60.976 211.401 L 66.432 203.382 70.922 205.892 C 79.912 210.916, 91.086 208.431, 91.806 201.247 C 92.172 197.597, 89.172 195, 84.589 195 C 81.797 195, 75.022 191.324, 75.007 189.801 C 75.003 189.417, 77.838 183.342, 81.307 176.301 C 84.777 169.261, 88.918 159.825, 90.511 155.333 C 93.402 147.179, 93.413 147.165, 97.453 146.558 C 102.818 145.751, 112.719 140.177, 114.756 136.817 C 116.085 134.624, 116.166 133.660, 115.199 131.538 C 113.331 127.439, 110.235 126.857, 105.008 129.623 C 96.894 133.916, 96.858 133.689, 102.501 114 C 106.713 99.304, 107.287 96.478, 106.536 94.115 C 104.771 88.553, 99.163 92.231, 93.858 102.430 C 92.122 105.768, 90.328 109.175, 89.873 110 C 89.417 110.825, 87.187 116.338, 84.917 122.250 L 80.789 133 75.144 133.009 C 72.040 133.013, 67.139 133.301, 64.252 133.648 L 59.005 134.278 63.599 123.889 C 70.813 107.574, 75.694 94.090, 77.435 85.662 C 79.166 77.279, 79.779 63.878, 78.598 60.249 C 77.531 56.974, 74.761 55.779, 72.274 57.521 M 245.500 63.603 C 243.300 63.814, 236.325 64.465, 230 65.048 C 209.787 66.911, 173.097 72.962, 153.335 77.692 C 142.795 80.215, 133.516 82.028, 132.715 81.721 C 131.914 81.414, 130.430 78.856, 129.417 76.038 C 128.403 73.220, 126.405 69.514, 124.975 67.801 C 122.833 65.235, 121.905 64.807, 119.688 65.363 C 117.243 65.977, 117.001 66.466, 117.006 70.769 C 117.013 76.577, 119.607 94.233, 121.154 99 C 122.647 103.602, 126.646 112.096, 128.238 114.046 C 130.217 116.470, 134.275 119, 136.184 119 C 137.140 119, 138.789 118.069, 139.849 116.931 C 142.004 114.619, 141.709 111.960, 138.859 108 C 137.114 105.576, 134 95.276, 134 91.929 C 134 90.495, 134.519 90.416, 137.948 91.332 C 142.985 92.676, 155.530 91.383, 183 86.688 C 212.549 81.638, 226.463 79.952, 244.011 79.297 C 263.311 78.576, 262.827 78.254, 261.090 90.669 C 259.754 100.219, 257.327 107.497, 254.118 111.577 C 250.227 116.524, 252.510 123, 258.146 123 C 260.821 123, 265.640 118.374, 268.878 112.698 C 272.691 106.014, 277.006 90.620, 276.978 83.804 C 276.942 75.127, 272.417 67.617, 265.688 65.068 C 262.453 63.842, 251.369 63.038, 245.500 63.603 M 167.222 105.819 C 165.725 107.453, 162.958 111.875, 161.074 115.645 C 156.987 123.823, 149.086 136, 147.867 136 C 147.390 136, 147 136.525, 147 137.166 C 147 137.807, 146.303 139.045, 145.451 139.916 C 144.599 140.787, 140.219 146.428, 135.717 152.451 C 131.215 158.474, 126.512 164.503, 125.266 165.847 C 122.564 168.762, 122.144 174.734, 124.575 175.667 C 129.458 177.541, 139.838 169.910, 148.267 158.250 C 150.412 155.282, 152.064 154, 153.741 154 C 155.063 154, 158.157 152.820, 160.617 151.379 C 163.077 149.937, 165.305 148.971, 165.567 149.233 C 165.829 149.495, 165.384 152.813, 164.578 156.605 C 163.772 160.397, 162.121 168.450, 160.910 174.500 C 157.985 189.114, 152.391 205.926, 144.868 222.715 C 136.683 240.979, 131.896 248.738, 124.310 256.032 C 117.670 262.416, 117.379 262.971, 119.035 266.066 C 119.785 267.467, 121.138 268, 123.945 268 C 129.169 268, 136.326 262.293, 143.079 252.744 C 154.621 236.421, 170.297 198.794, 172.968 181 C 173.587 176.875, 175.263 167.542, 176.691 160.260 C 179.820 144.310, 179.364 139.696, 174.371 136.783 C 171.936 135.362, 170.661 135.178, 168.621 135.954 C 167.180 136.502, 166 136.756, 166 136.519 C 166 136.282, 167.350 133.798, 169 131 C 170.650 128.202, 172 125.660, 172 125.351 C 172 125.043, 173.176 122.475, 174.612 119.645 C 178.979 111.045, 178.127 105.303, 172.222 103.531 C 170.468 103.005, 169.319 103.530, 167.222 105.819 M 237.016 133.122 C 234.550 133.592, 229.375 135.064, 225.516 136.394 C 221.657 137.723, 216.409 139.123, 213.853 139.504 C 202.563 141.186, 197.470 149.606, 205.296 153.653 C 209.242 155.693, 214.182 155.011, 228.148 150.496 C 234.096 148.573, 239.655 147, 240.501 147 C 242.506 147, 241.733 150.407, 237.848 158.702 C 234.694 165.436, 230.181 169.542, 226.882 168.679 C 223.671 167.840, 219.055 169.931, 218.405 172.521 C 216.959 178.285, 221.004 182.108, 229.209 182.730 C 239.677 183.523, 247.159 176.989, 252.936 162.009 C 257.323 150.633, 257.767 146.216, 255.081 140.668 C 251.957 134.214, 245.485 131.511, 237.016 133.122 M 64 149.612 C 58.225 150.302, 53.007 150.897, 52.404 150.934 C 51.386 150.995, 47 164.169, 47 167.164 C 47 168.455, 50.487 171.596, 58.103 177.164 L 61.747 179.829 66.296 169.664 C 70.906 159.363, 75.140 148.728, 74.726 148.487 C 74.602 148.415, 69.775 148.921, 64 149.612 M 201.229 162.669 C 196.082 164.740, 190.289 193.851, 192.009 209 C 192.861 216.499, 196.107 226.701, 199.505 232.558 C 202.589 237.873, 210.086 244.716, 215.324 246.995 C 223.718 250.648, 247.958 251.943, 265 249.650 C 275.555 248.229, 279.711 246.493, 285.241 241.196 C 294.378 232.442, 288.251 222.437, 277.982 229.341 C 270.040 234.681, 265.856 235.500, 246.500 235.500 C 234.471 235.500, 227.053 235.063, 224.137 234.181 C 217.596 232.203, 212.396 226.742, 209.208 218.500 C 206.536 211.593, 206.500 211.182, 206.500 187.714 C 206.500 167.659, 206.265 163.779, 205 162.979 C 203.356 161.939, 203.096 161.918, 201.229 162.669 M 113.989 178.250 C 110.951 183.233, 111.439 185.295, 116.606 189.321 C 123.818 194.940, 133.161 195.439, 146.714 190.929 C 156.744 187.591, 159.203 183.672, 154.614 178.337 L 152.227 175.563 146.776 177.282 C 139.233 179.659, 129.474 179.536, 124.500 177 C 118.831 174.110, 116.332 174.407, 113.989 178.250" stroke="none" fill="black" fill-rule="evenodd"/>
</svg>