<svg xmlns="http://www.w3.org/2000/svg" width="300" height="300" viewBox="0 0 300 300" version="1.1">
	<path d="M 227.103 29.114 C 213.232 37.068, 194.173 43.442, 179.500 45.033 C 161.508 46.985, 145.394 50.162, 140.017 52.817 C 135.255 55.169, 134.458 55.974, 134.192 58.704 C 133.748 63.254, 136.353 64.412, 142.651 62.464 C 145.318 61.639, 153.693 60.508, 161.261 59.950 C 168.830 59.392, 177.155 58.537, 179.761 58.050 C 182.366 57.563, 184.569 57.240, 184.655 57.333 C 184.782 57.469, 182.717 66.575, 181.385 71.750 C 181.205 72.448, 179.530 73, 177.593 73 C 173.769 73, 149.513 77.087, 138.500 79.587 C 134.650 80.461, 129.025 81.734, 126 82.415 C 118.337 84.141, 115.811 85.661, 116.189 88.317 C 116.408 89.852, 117.685 90.898, 120.500 91.849 C 124.890 93.332, 137.676 92.307, 149.500 89.525 C 157.818 87.568, 177.108 83.998, 179.358 83.999 C 180.782 84, 181.088 84.527, 180.667 86.250 C 180.364 87.487, 179.626 97.050, 179.027 107.500 C 178.428 117.950, 177.293 133.925, 176.504 143 C 175.715 152.075, 174.797 163.540, 174.464 168.479 C 173.416 184.014, 174.481 182.718, 162.143 183.478 C 156.289 183.839, 149.025 184.609, 146 185.189 C 142.975 185.770, 138.925 186.468, 137 186.741 C 130.209 187.704, 128.896 191.693, 134.250 195.094 C 137.298 197.030, 138.571 197.127, 154.750 196.665 L 172 196.172 172.002 200.836 C 172.004 206.144, 169.143 241.331, 168.430 244.750 C 168.017 246.738, 167.352 246.999, 162.731 246.994 C 145.513 246.976, 97.678 252.465, 95.426 254.717 C 93.579 256.563, 94.588 258.587, 98.076 260.031 C 101.412 261.413, 142.513 260.792, 159 259.110 C 164.854 258.513, 168.865 258.498, 169.450 259.070 C 170.671 260.265, 173.550 260.259, 175.764 259.057 C 178.860 257.376, 240.240 256.130, 265.600 257.234 C 291.509 258.362, 292 258.273, 292 252.445 C 292 248.820, 291.973 248.805, 283 247.082 C 266.318 243.879, 240.840 243.258, 203.737 245.148 C 191.218 245.786, 180.670 246.003, 180.297 245.631 C 179.925 245.258, 180.383 237.202, 181.315 227.727 C 182.247 218.252, 183.266 207.068, 183.579 202.873 L 184.148 195.246 193.324 194.556 C 215.053 192.922, 225.043 190.542, 229.833 185.859 C 233.509 182.265, 233.809 180.042, 230.966 177.469 C 228.988 175.679, 228.747 175.688, 222.216 177.787 C 213.844 180.478, 203.819 181.954, 193.750 181.980 L 186 182 186.066 175.750 C 186.102 172.313, 186.899 162.105, 187.838 153.066 C 189.819 133.981, 188.906 135.069, 202.330 135.800 L 210.160 136.227 209.517 138.863 C 207.268 148.081, 203.639 158.101, 201.498 161.003 C 198.527 165.030, 198.360 167.111, 200.829 169.345 C 203.634 171.883, 205.436 171.366, 209.512 166.855 C 213.645 162.281, 217.338 154.740, 221.518 142.342 L 224.268 134.185 228.884 132.959 C 234.444 131.481, 241.557 127.596, 242.314 125.623 C 243.944 121.377, 240.393 118.315, 235.171 119.462 L 232.386 120.074 232.984 114.787 C 233.313 111.879, 234.388 108.285, 235.374 106.799 C 239.444 100.665, 232.975 97.196, 227.823 102.750 C 226.420 104.263, 223.853 108.341, 222.119 111.814 C 220.385 115.286, 217.989 119.449, 216.795 121.064 C 214.769 123.804, 214.176 124, 207.927 124 C 204.243 124, 198.923 124.745, 196.104 125.656 C 193.284 126.566, 190.710 127.043, 190.382 126.715 C 189.811 126.144, 192.810 83.857, 193.469 83.198 C 194.405 82.261, 207.888 81.037, 217.500 81.016 C 226.678 80.996, 229.038 80.664, 231.750 79.011 C 235.302 76.845, 235.929 74.072, 233.430 71.573 C 230.856 68.999, 227.473 68.669, 210.261 69.316 L 193.856 69.933 194.548 66.717 C 194.929 64.947, 195.885 62.240, 196.672 60.700 C 197.459 59.160, 197.837 57.062, 197.512 56.038 C 197.040 54.552, 197.585 54.039, 200.211 53.497 C 205.328 52.441, 216.850 48.207, 223.891 44.794 C 235.257 39.285, 241.715 31.115, 237.800 27.200 C 235.871 25.271, 232.867 25.808, 227.103 29.114 M 64.317 72.640 C 63.076 74.532, 62.525 77.700, 62.368 83.835 C 62.142 92.658, 61.545 97.307, 59.969 102.500 C 59.468 104.150, 58.101 109.564, 56.932 114.531 L 54.805 123.562 46.653 125.377 C 35.040 127.962, 30.054 131.372, 31.683 135.615 C 32.206 136.980, 33.674 137.165, 41.151 136.807 C 46.018 136.574, 50 136.527, 50 136.701 C 50 136.876, 48.200 141.231, 46 146.381 C 42.781 153.916, 42 156.944, 42 161.898 C 42 167.870, 42.135 168.188, 46.554 172.606 C 49.058 175.111, 52.996 178.058, 55.304 179.155 C 60.026 181.401, 63.792 183.458, 64.531 184.198 C 66.235 185.902, 49.495 218.274, 41.761 228.230 C 38.102 232.941, 38.267 237.032, 42.173 238.397 C 44.193 239.104, 45.478 238.917, 47.442 237.630 C 50.257 235.785, 60.018 223.062, 63.619 216.542 C 66.624 211.102, 73.462 197.272, 75.136 193.250 C 76.600 189.731, 78.120 189.300, 82 191.303 C 83.375 192.013, 87.171 193.428, 90.435 194.448 C 95.728 196.102, 96.648 196.145, 98.935 194.841 C 101.067 193.627, 101.486 192.682, 101.418 189.245 C 101.315 184.091, 99.654 182.006, 95.628 181.978 C 93.907 181.966, 90.538 181.066, 88.141 179.978 C 85.743 178.890, 83.201 178, 82.492 178 C 81.550 178, 81.948 175.601, 83.970 169.095 C 85.493 164.198, 87.756 155.535, 89 149.845 C 90.244 144.155, 91.793 137.251, 92.443 134.502 L 93.624 129.505 103.413 126.974 C 113.673 124.322, 116.042 122.668, 115.281 118.689 C 114.494 114.573, 111.888 113.841, 103.961 115.508 C 100.061 116.329, 96.449 117, 95.935 117 C 95.393 117, 94.998 109.965, 94.994 100.250 C 94.988 82.343, 94.117 76.896, 90.896 74.640 C 88.508 72.967, 85.470 73.526, 84.323 75.849 C 83.875 76.757, 83.282 86.922, 83.004 98.437 L 82.500 119.375 74.750 121.069 C 70.200 122.063, 67 122.360, 67 121.787 C 67 121.250, 67.846 117.816, 68.880 114.155 C 74.535 94.142, 76.027 77.743, 72.662 72.607 C 70.388 69.136, 66.603 69.151, 64.317 72.640 M 144.803 112.750 C 142.928 114.926, 140.309 119.669, 139.090 123.096 C 138.218 125.548, 137.687 125.725, 129.453 126.306 C 118.637 127.069, 114.018 129.589, 114.007 134.731 C 113.998 138.935, 116.140 139.488, 129.132 138.637 L 139 137.990 139.006 141.245 C 139.021 150.225, 144.654 159, 150.404 159 C 156.077 159, 157.650 155.385, 153.773 151.258 C 152.023 149.396, 151.540 147.682, 151.523 143.271 L 151.500 137.655 156.278 136.424 C 163.178 134.646, 166 132.520, 166 129.099 C 166 125, 163.833 123.514, 159.872 124.895 C 158.128 125.503, 155.485 126, 153.998 126 C 151.357 126, 151.305 125.884, 151.772 121.016 C 152.520 113.239, 148.494 108.465, 144.803 112.750 M 75 134 C 73.625 134.440, 70.400 134.845, 67.833 134.900 C 63.195 134.999, 63.155 135.030, 61.475 139.750 C 60.546 142.363, 58.483 147.541, 56.892 151.259 C 53.560 159.047, 53.293 162.073, 55.750 164.217 C 57.395 165.652, 68.433 172, 69.284 172 C 69.499 172, 70.481 169.412, 71.467 166.250 C 72.453 163.088, 73.598 159.582, 74.012 158.461 C 74.921 156, 78.602 140.790, 79.388 136.250 C 79.988 132.782, 79.532 132.549, 75 134" stroke="none" fill="black" fill-rule="evenodd"/>
</svg>