<svg xmlns="http://www.w3.org/2000/svg" width="300" height="300" viewBox="0 0 300 300" version="1.1">
	<path d="M 191.481 11.591 C 186.383 17.156, 184.868 25.718, 183.016 59.414 C 182.377 71.024, 181.693 76.572, 180.833 77.103 C 179.227 78.096, 166.857 80.939, 160.985 81.665 C 158.014 82.032, 155.192 81.689, 152.735 80.663 L 149 79.102 149.011 72.301 C 149.017 68.560, 149.725 63.250, 150.585 60.500 C 155.778 43.890, 156.322 38.881, 153.245 36.014 C 152.056 34.906, 150.413 34, 149.593 34 C 146.918 34, 143.003 40.576, 140.587 49.124 C 133.155 75.425, 133.167 82.009, 140.657 89.393 C 144.601 93.282, 145.816 93.857, 152.513 95.002 C 161.113 96.473, 170.022 95.473, 183.500 91.524 C 187.900 90.235, 195.775 88.173, 201 86.943 C 214.277 83.816, 227.082 79.923, 229.781 78.192 C 231.036 77.387, 232.332 76.999, 232.662 77.329 C 232.992 77.658, 232.511 80.915, 231.594 84.567 C 229.654 92.289, 230.366 94, 235.524 94 C 240.809 94, 242.885 89.341, 245.109 72.500 C 246.125 64.800, 246.966 55.414, 246.978 51.643 C 246.990 47.872, 247.759 41.642, 248.686 37.800 C 249.927 32.659, 250.088 30.376, 249.295 29.157 C 247.137 25.839, 241.764 28.603, 237.761 35.090 C 235.275 39.119, 233.767 45.697, 233.106 55.388 L 232.500 64.277 224.500 67.019 C 220.100 68.528, 212.225 70.529, 207 71.467 C 201.775 72.404, 196.645 73.410, 195.601 73.701 C 193.896 74.175, 193.769 73.834, 194.369 70.365 C 196.698 56.894, 198.251 43.698, 198.943 31.500 C 199.489 21.859, 200.233 16.578, 201.333 14.540 C 202.799 11.824, 202.797 11.433, 201.310 9.790 C 198.722 6.930, 195.150 7.585, 191.481 11.591 M 63.483 63.261 C 61.288 65.149, 60.769 66.595, 60.341 72.011 C 59.629 81.037, 54.426 104.530, 48.996 123.242 C 47.777 127.445, 47.725 127.466, 35.186 128.873 C 26.537 129.843, 23 131.650, 23 135.098 C 23 138.503, 26.886 140, 35.723 140 C 40.275 140, 44 140.155, 44 140.343 C 44 140.532, 43.127 143.120, 42.059 146.093 C 33.719 169.330, 33 171.765, 33 176.787 C 33 181.795, 33.272 182.367, 37.808 186.904 C 41.162 190.257, 44.263 192.248, 48.058 193.484 C 51.051 194.458, 55.417 196.111, 57.760 197.157 L 62.021 199.059 60.461 202.075 C 54.703 213.211, 34.423 238, 31.072 238 C 29.459 238, 27.833 241.900, 28.530 244.095 C 29.739 247.903, 33.628 248.327, 39.254 245.265 C 45.120 242.073, 61.524 225.020, 67.159 216.257 C 74.179 205.340, 72.749 205.730, 80.850 212.526 C 95.494 224.812, 101.742 228.169, 106.911 226.528 C 109.239 225.789, 110.630 221.899, 109.340 219.735 C 108.395 218.148, 85.938 198.661, 82.332 196.298 C 79.931 194.725, 79.302 192.123, 80.917 190.450 C 83.886 187.376, 92.354 160.487, 95.581 143.885 L 97.256 135.271 107.378 132.488 C 112.945 130.958, 118.287 129.028, 119.250 128.198 C 121.563 126.205, 121.471 122.737, 119.048 120.544 C 117.297 118.959, 116.399 118.898, 110.298 119.947 C 106.559 120.591, 102.418 121.382, 101.096 121.706 C 98.825 122.262, 98.729 122.106, 99.374 118.897 C 99.749 117.029, 100.532 111.143, 101.113 105.817 C 102.227 95.614, 101.295 87.467, 98.360 81.750 C 96.963 79.028, 93.865 78.150, 91.361 79.765 C 89.296 81.098, 88.011 88.349, 88.006 98.709 C 88.003 104.324, 87.504 112.254, 86.898 116.330 L 85.795 123.742 77.148 124.408 C 72.391 124.775, 66.965 125.347, 65.089 125.679 C 62.033 126.220, 61.757 126.086, 62.446 124.392 C 64.831 118.523, 70.211 95.435, 72.500 81.242 C 74.265 70.304, 73.958 66.411, 71.071 63.082 C 68.748 60.404, 66.750 60.451, 63.483 63.261 M 222.500 105.171 C 200.121 108.456, 173.546 113.218, 139.250 120.088 C 134.676 121.005, 129 124.610, 129 126.599 C 129 127.272, 130.385 128.987, 132.077 130.411 C 136.617 134.231, 140.069 134.004, 170 127.920 C 175.225 126.858, 180.829 125.991, 182.453 125.994 L 185.406 126 181.884 129.750 C 179.947 131.813, 176.371 135.975, 173.937 139 C 168.728 145.474, 163.300 151.580, 156.798 158.277 C 151.242 164.001, 150.311 166.300, 152.314 169.357 C 153.769 171.577, 153.675 171.657, 146.933 173.952 C 143.158 175.237, 139.942 176.561, 139.785 176.894 C 139.628 177.227, 137.749 178.809, 135.609 180.408 L 131.718 183.317 132.562 179.408 C 134.018 172.668, 133.569 169.286, 130.927 167.087 C 127.665 164.371, 126.352 164.495, 123.016 167.830 C 118.570 172.276, 118.069 178.516, 119.868 207 C 122.587 250.040, 123.203 257.540, 124.110 258.632 C 125.805 260.675, 128.950 260.861, 131.185 259.051 C 133.971 256.795, 134.805 250.412, 134.913 230.500 C 134.983 217.544, 134.103 204.380, 132.529 194.857 C 132.162 192.633, 132.522 192.128, 134.796 191.673 C 136.283 191.376, 141.550 189.779, 146.500 188.124 C 155.779 185.022, 165.012 182.679, 165.608 183.275 C 165.794 183.461, 164.901 185.163, 163.622 187.057 C 159.450 193.236, 158.500 199.813, 158.500 222.500 C 158.500 241.374, 158.690 243.780, 160.373 246.262 C 162.480 249.370, 166.507 250.799, 168.905 249.291 C 170.259 248.439, 170.597 244.756, 171.145 224.894 C 171.500 212.027, 172.257 198.666, 172.826 195.201 C 173.875 188.821, 172.929 183, 170.843 183 C 170.315 183, 170.136 182.589, 170.446 182.087 C 170.757 181.585, 172.921 180.895, 175.255 180.553 C 179.434 179.942, 184.727 178.685, 204.500 173.606 C 232.436 166.431, 235.566 166.014, 240.918 168.752 C 246.911 171.818, 247.335 174.734, 247.423 213.500 L 247.500 247.500 244.704 252.923 C 241.468 259.200, 239.558 260.924, 235.789 260.968 C 232.803 261.003, 229 264.419, 229 267.066 C 229 270.763, 234.884 272.694, 242.613 271.535 C 249.319 270.530, 255.928 263.615, 259.094 254.293 C 261.261 247.909, 261.423 245.680, 261.766 217.300 C 262.121 187.946, 262.062 186.820, 259.668 177.098 C 257.305 167.502, 254.858 162.530, 250.633 158.740 C 248.179 156.538, 239.791 153.994, 235.068 154.018 C 230.321 154.043, 216.272 156.564, 208.088 158.860 C 187.601 164.608, 163.807 170.143, 163.016 169.344 C 162.732 169.058, 166.325 165.150, 171 160.662 C 175.675 156.173, 182.650 149.052, 186.500 144.838 C 192.304 138.485, 194.184 137.052, 197.500 136.457 C 202.482 135.563, 204 134.394, 204 131.450 C 204 129.053, 200.445 125.617, 196.668 124.362 C 194.966 123.797, 195.790 123.368, 200.500 122.365 C 203.800 121.662, 208.053 121.068, 209.952 121.044 C 216.190 120.965, 230.920 116.804, 233.533 114.382 C 236.618 111.523, 236.726 107.622, 233.777 105.557 C 231.371 103.871, 231.359 103.871, 222.500 105.171 M 67.829 138.922 C 63.060 139.240, 58.944 139.725, 58.683 140 C 58.423 140.275, 57.755 142.075, 57.200 144 C 56.644 145.925, 54.980 150.650, 53.501 154.500 C 49.464 165.011, 46.999 172.923, 47.008 175.339 C 47.017 177.941, 52.725 181.500, 58.556 182.540 C 60.725 182.927, 63.908 184.092, 65.629 185.129 L 68.758 187.014 70.263 182.757 C 77.078 163.484, 79 157.608, 79 156.050 C 79 155.061, 79.617 152.501, 80.372 150.363 C 81.127 148.224, 82.066 144.567, 82.460 142.237 L 83.176 138 79.838 138.172 C 78.002 138.267, 72.598 138.605, 67.829 138.922 M 193.308 181.250 C 192.186 182.488, 190.463 185.658, 189.481 188.295 C 187.880 192.591, 187.783 194.932, 188.547 210.795 C 189.015 220.533, 189.438 235.178, 189.486 243.341 C 189.563 256.343, 189.789 258.302, 191.312 259.155 C 194.189 260.765, 198.167 259.682, 200.401 256.681 C 202.241 254.209, 202.536 252.236, 202.790 240.681 C 202.949 233.431, 202.720 217.278, 202.279 204.785 C 201.540 183.797, 201.328 181.956, 199.489 180.567 C 196.768 178.510, 195.684 178.630, 193.308 181.250" stroke="none" fill="black" fill-rule="evenodd"/>
</svg>