<svg xmlns="http://www.w3.org/2000/svg" width="300" height="300" viewBox="0 0 300 300" version="1.1">
	<path d="M 224.128 50.567 C 221.724 51.856, 217.224 53.412, 214.128 54.025 C 196.600 57.493, 168.868 65.905, 165.795 68.686 C 163.497 70.765, 163.510 73.247, 165.829 75.345 C 168.289 77.571, 171.232 77.435, 181.817 74.602 L 190.778 72.204 191.602 90.352 C 192.055 100.333, 192.442 108.943, 192.463 109.485 C 192.504 110.575, 182.463 113.665, 174.145 115.122 C 171.200 115.638, 167.208 116.722, 165.273 117.530 C 160.773 119.411, 160.880 119.447, 162.025 116.435 C 162.561 115.024, 163 111.404, 163 108.389 C 163 103.857, 162.562 102.471, 160.465 100.374 C 158.134 98.043, 157.388 97.877, 151.215 98.310 C 144.863 98.756, 134.840 100.947, 128.737 103.223 C 125.670 104.367, 124.100 108.345, 125.706 110.905 C 127.119 113.157, 136.992 113.531, 142.797 111.553 C 145.305 110.699, 148.176 110, 149.178 110 C 154.100 110, 148.399 119.518, 138.669 127.543 C 132.199 132.879, 128 138.918, 128 142.883 C 128 143.963, 129.064 146.119, 130.363 147.673 C 137.830 156.604, 139.054 167.120, 134.091 179.698 C 130.638 188.449, 126.322 196, 124.772 196 C 124.143 196, 122.630 195.061, 121.409 193.914 C 119.588 192.204, 118.812 192.030, 117.094 192.950 C 114.452 194.363, 114.390 197.955, 116.951 201.210 L 118.902 203.690 115.201 207.186 C 113.165 209.109, 109.059 211.700, 106.076 212.944 C 99.845 215.542, 98 217.092, 98 219.729 C 98 222.743, 100.082 224, 105.078 224 C 112.229 224, 119.175 220.531, 127.613 212.746 L 130.725 209.874 136.757 211.437 C 140.074 212.297, 143.800 213, 145.037 213 C 146.273 213, 150.483 213.908, 154.392 215.017 C 158.301 216.127, 163.975 217.685, 167 218.481 C 170.025 219.276, 175.875 220.819, 180 221.909 C 194.367 225.706, 209.025 228.741, 231.500 232.575 C 246.504 235.134, 272.801 235.640, 281 233.528 C 289.642 231.301, 292 229.690, 292 226.012 C 292 222.028, 289.211 220.570, 284.235 221.951 C 270.905 225.654, 223.181 219.889, 183.500 209.783 C 171.112 206.628, 161.743 203.976, 159.013 202.851 C 157.645 202.288, 152.759 201.217, 148.155 200.472 C 143.550 199.726, 139.578 198.911, 139.326 198.659 C 139.075 198.408, 140.190 195.569, 141.805 192.351 C 147.692 180.619, 149.276 174.078, 148.843 163.289 C 148.554 156.111, 147.986 152.818, 146.724 151.017 C 145.776 149.663, 145 147.755, 145 146.777 C 145 145.800, 144.598 145, 144.107 145 C 143.616 145, 142.932 144.264, 142.587 143.365 C 141.696 141.044, 158.586 124.796, 160.052 126.563 C 162.623 129.661, 170.992 129.063, 187.500 124.602 C 191.639 123.484, 192.633 123.479, 193.270 124.573 C 193.694 125.299, 193.919 135.470, 193.770 147.174 L 193.500 168.454 183.500 170.700 C 178 171.935, 171.475 172.968, 169 172.995 C 163.496 173.055, 159.662 175.629, 160.157 178.931 C 160.412 180.629, 161.781 181.698, 165.500 183.106 C 171.819 185.498, 177.161 185.497, 186.833 183.101 C 191.050 182.057, 197.425 180.910, 201 180.552 C 211.893 179.462, 218.834 177.077, 223.199 172.926 C 226.750 169.548, 227.095 168.778, 226.812 164.864 C 226.543 161.134, 226.108 160.400, 223.658 159.543 C 221.108 158.651, 220.543 158.882, 218.158 161.783 C 215.610 164.882, 210.852 167, 206.436 167 C 204.502 167, 204.410 166.638, 205.106 161.750 C 205.518 158.863, 205.905 147.950, 205.967 137.500 L 206.080 118.500 214.786 114.500 C 223.173 110.646, 230.065 105.616, 232.057 101.893 C 233.186 99.785, 231.505 95.408, 229.232 94.536 C 228.409 94.220, 225.657 95.275, 223.118 96.880 C 220.578 98.486, 215.575 101.156, 212 102.814 L 205.500 105.828 204.808 102.164 C 204.427 100.149, 204.063 94, 203.998 88.500 C 203.934 83, 203.531 76.373, 203.103 73.774 C 202.335 69.112, 202.366 69.035, 205.412 68.114 C 207.110 67.600, 210.525 66.905, 213 66.570 C 225.508 64.876, 233.055 60.613, 234.626 54.353 C 236.117 48.415, 231.349 46.696, 224.128 50.567 M 79.426 57.523 C 78.340 60.122, 78.231 61.562, 79.009 63.017 C 82.276 69.122, 69.410 125.290, 63.595 130.307 C 62.443 131.301, 60.260 132.584, 58.744 133.157 C 53.964 134.965, 54.173 142, 59.006 142 C 60.608 142, 60.540 142.562, 58.261 148.205 C 53 161.231, 54.141 165.329, 64.321 169.956 C 73.184 173.984, 79.100 178.536, 78.333 180.737 C 77.995 181.707, 75.272 187.651, 72.282 193.947 C 66.020 207.131, 60.645 215.661, 58.085 216.473 C 55.624 217.254, 54.087 221.004, 55.103 223.750 C 56.902 228.612, 66.010 224.926, 72.173 216.841 C 74.899 213.265, 80.542 203.350, 84.790 194.671 L 87.153 189.842 92.849 195.921 C 95.981 199.265, 99.221 202, 100.049 202 C 102.739 202, 106 198.966, 106 196.464 C 106 192.873, 102.988 186, 101.415 186 C 100.662 186, 98.288 183.775, 96.138 181.056 L 92.230 176.111 95.467 166.306 C 98.781 156.265, 100.623 148.694, 103.814 132 L 105.630 122.500 111.926 119.305 C 121.522 114.434, 124.862 110.595, 122.847 106.750 C 121.872 104.889, 116.183 104.289, 114.450 105.864 C 113.928 106.338, 112.104 107.192, 110.398 107.760 L 107.297 108.792 108.174 104.146 C 109.736 95.863, 111.058 80.571, 110.452 77.795 C 109.817 74.889, 106.461 73.139, 104.768 74.832 C 102.969 76.631, 98.001 93.095, 97.965 97.380 C 97.932 101.229, 95.669 113.686, 94.863 114.453 C 94.205 115.078, 79.169 123, 78.640 123 C 78.355 123, 78.726 121.088, 79.465 118.750 C 84.715 102.142, 87.956 83.237, 88.196 67.821 C 88.377 56.206, 87.599 54, 83.327 54 C 81.493 54, 80.537 54.863, 79.426 57.523 M 84.049 134.178 C 79.951 136.280, 75.825 138, 74.881 138 C 73.737 138, 72.605 139.582, 71.483 142.750 C 70.558 145.363, 69.197 149.075, 68.459 151 C 66.148 157.024, 65.791 159, 67.014 159 C 67.645 159, 71.344 160.597, 75.233 162.548 C 79.757 164.819, 82.649 165.751, 83.265 165.135 C 84.711 163.689, 92.740 131.221, 91.812 130.573 C 91.640 130.454, 88.147 132.076, 84.049 134.178" stroke="none" fill="black" fill-rule="evenodd"/>
</svg>