<svg xmlns="http://www.w3.org/2000/svg" width="300" height="300" viewBox="0 0 300 300" version="1.1">
	<path d="M 215.429 42.971 C 212.640 43.393, 209.490 44.188, 208.429 44.737 C 207.368 45.287, 204.925 46.022, 203 46.371 C 201.075 46.720, 198.037 47.898, 196.250 48.988 C 192.192 51.463, 191.840 55.562, 195.399 58.905 L 197.799 61.159 206.649 58.169 C 211.517 56.524, 216.882 54.895, 218.571 54.549 L 221.643 53.920 222.836 72.710 C 224.273 95.326, 224.196 116.168, 222.642 124.970 C 221.560 131.100, 221.324 131.490, 218.150 132.393 C 210.258 134.640, 212.861 143, 221.452 143 C 226.239 143, 229.031 141.304, 231.910 136.645 C 236.037 129.968, 236.870 101.635, 234.171 59.766 C 233.057 42.495, 230.968 40.623, 215.429 42.971 M 172.500 44.669 C 170.300 45.532, 165.575 47.383, 162 48.781 C 158.425 50.180, 149.875 53.235, 143 55.570 C 130.629 59.771, 130.490 59.853, 129.566 63.438 C 128.828 66.300, 128.962 67.390, 130.202 68.630 C 132.890 71.318, 138.316 70.396, 154.064 64.574 C 162.434 61.480, 169.413 59.080, 169.573 59.240 C 169.733 59.400, 169.460 62.674, 168.965 66.515 C 168.470 70.357, 168.051 78.393, 168.033 84.372 C 168.005 93.495, 167.778 95.061, 166.622 94.101 C 164.799 92.588, 161.240 93.988, 158 97.491 C 156.625 98.978, 153.925 101.056, 152 102.108 C 143.641 106.677, 133.869 113.400, 130.673 116.781 C 127.059 120.603, 127.268 124.897, 131.158 126.753 C 134.586 128.388, 137.950 127.158, 143.603 122.203 C 145.926 120.166, 150.439 116.700, 153.631 114.500 C 156.823 112.300, 161.402 108.506, 163.805 106.068 L 168.174 101.637 167.837 118.568 C 167.652 127.881, 167.143 136.051, 166.707 136.724 C 166.143 137.595, 164.942 136.947, 162.540 134.474 C 158.794 130.616, 158.671 130.571, 155.934 132.035 C 150.812 134.776, 156.953 147.203, 164.792 149.959 C 168.661 151.320, 169.131 151.281, 171.721 149.395 C 174.307 147.512, 174.691 147.480, 177.248 148.936 C 178.760 149.796, 179.997 150.795, 179.998 151.155 C 179.999 151.516, 176.738 154.204, 172.750 157.130 C 168.762 160.056, 165.275 162.686, 165 162.975 C 162.490 165.612, 147.766 176.110, 141.822 179.500 C 129.549 186.500, 119.265 191.103, 116.938 190.638 C 115.486 190.347, 113.437 190.334, 112.386 190.609 C 109.718 191.307, 107.127 196.213, 107.738 199.410 C 108.850 205.226, 115.489 205.266, 128.665 199.537 C 143.192 193.222, 162.300 181.293, 172 172.486 C 173.925 170.738, 178.985 166.725, 183.245 163.569 L 190.990 157.831 194.245 159.822 C 205.469 166.689, 238.077 179.468, 247.084 180.530 C 253.091 181.239, 256 179.788, 256 176.084 C 256 174.196, 253.042 171, 251.296 171 C 250.720 171, 247.605 169.831, 244.374 168.402 C 241.143 166.973, 233.775 164.021, 228 161.843 C 210.306 155.170, 199.333 149.462, 198.602 146.550 C 197.864 143.609, 194.172 142.302, 191.159 143.915 C 189.768 144.659, 188.304 144.686, 186.500 144 C 185.054 143.450, 182.501 143, 180.828 143 C 178.320 143, 177.914 142.693, 178.514 141.250 C 179.763 138.248, 180.892 114.506, 180.950 90 C 180.990 73.494, 181.467 63.867, 182.554 57.652 C 183.958 49.625, 183.956 48.581, 182.528 46.402 C 181.662 45.081, 180.551 44, 180.059 44 C 179.566 44, 178.564 43.797, 177.832 43.550 C 177.099 43.302, 174.700 43.806, 172.500 44.669 M 199.188 83.027 C 196.382 84.738, 195.924 85.538, 196.188 88.273 C 196.431 90.788, 197.212 91.831, 199.728 93 C 203.540 94.771, 203.792 95.614, 200.797 96.565 C 198.179 97.395, 196.758 98.714, 195.056 101.896 C 193.979 103.908, 194.079 104.631, 195.748 106.875 C 198.407 110.451, 204.698 110.968, 209.493 108.005 C 213.873 105.298, 222 96.285, 222 94.135 C 222 93.229, 220.088 90.370, 217.750 87.784 C 211.388 80.743, 205.435 79.218, 199.188 83.027 M 133.357 83.992 C 132.178 84.467, 130.491 85.889, 129.607 87.151 C 125.432 93.111, 129.671 96.586, 139.890 95.580 C 146.146 94.963, 146.786 95.074, 147.251 96.853 C 147.532 97.925, 148.718 99.314, 149.887 99.940 C 151.681 100.900, 152.403 100.688, 154.507 98.584 C 159.042 94.049, 157.053 87.174, 150.401 84.394 C 146.737 82.863, 136.739 82.627, 133.357 83.992 M 62.365 92.250 C 59.640 95.342, 58 99.486, 58 103.281 C 58 107.741, 55.164 128.173, 53.438 136.143 C 52.647 139.797, 52 143.451, 52 144.263 C 52 145.180, 50.197 146.224, 47.250 147.014 C 42.083 148.400, 35 151.924, 35 153.107 C 35 153.514, 33.829 155.238, 32.399 156.938 C 27.807 162.395, 32.010 165.444, 40.060 162.494 C 48.443 159.423, 47.911 159.242, 46.437 164.666 C 45.715 167.325, 44.646 171.072, 44.062 172.993 C 42.509 178.101, 42.752 181.594, 44.963 185.928 C 46.736 189.402, 55.449 197, 57.661 197 C 58.153 197, 59.544 197.693, 60.753 198.540 C 62.887 200.035, 62.905 200.203, 61.367 204.290 C 56.703 216.673, 49.410 231.008, 46.377 233.750 C 45.008 234.987, 43.104 236, 42.144 236 C 38.122 236, 36.699 240.513, 39.829 243.345 C 43.920 247.048, 52.929 243.790, 58.141 236.723 C 61.605 232.026, 72.988 209.307, 72.995 207.076 C 72.999 206.014, 73.573 206.163, 75.250 207.657 C 81.503 213.230, 90.794 215.806, 93.800 212.800 C 96.205 210.395, 95.151 207.120, 91.160 204.601 C 89.048 203.267, 86.685 201.574, 85.910 200.837 C 85.134 200.100, 82.874 198.406, 80.887 197.073 L 77.274 194.649 78.704 189.574 C 79.491 186.783, 80.354 183.600, 80.622 182.500 C 80.891 181.400, 81.745 178.250, 82.520 175.500 C 85.166 166.117, 87 157.094, 87 153.454 C 87 150.667, 87.700 149.206, 90 147.187 C 93.311 144.282, 93.998 140.073, 91.500 138 C 90.671 137.312, 90.001 135.133, 90.001 133.128 C 90.003 127.703, 92.454 115.936, 94.340 112.300 C 96.704 107.742, 96.430 104.483, 93.488 102.169 C 88.794 98.477, 84.505 101.483, 81.706 110.428 C 79.653 116.986, 76.998 131.480, 76.999 136.120 C 77 139.544, 76.770 139.798, 72.750 140.814 C 62.271 143.461, 62.746 143.537, 63.347 139.293 C 63.642 137.207, 64.579 130.550, 65.429 124.500 C 66.278 118.450, 67.666 108.836, 68.513 103.135 C 69.679 95.288, 69.774 92.433, 68.904 91.385 C 67.216 89.350, 64.618 89.694, 62.365 92.250 M 70 154.104 C 68.625 154.593, 65.700 155.436, 63.500 155.976 L 59.500 156.959 56.834 167.616 C 53.725 180.041, 53.994 181.303, 60.610 185.299 C 65.876 188.480, 66.678 188.589, 67.429 186.222 C 70.047 177.975, 73.998 159.649, 73.999 155.750 C 74 152.807, 73.832 152.738, 70 154.104 M 194.097 175.289 C 192.775 175.923, 189.850 178.168, 187.597 180.277 C 185.343 182.386, 179.501 186.674, 174.614 189.805 C 169.727 192.937, 163.742 197.266, 161.314 199.424 C 157.644 202.686, 156.950 203.867, 157.200 206.424 C 157.475 209.239, 157.797 209.491, 161 209.396 C 163.272 209.329, 167.176 207.663, 172.127 204.646 C 176.321 202.091, 180.011 200, 180.327 200 C 181.615 200, 190.787 193.422, 194.833 189.597 C 199.669 185.023, 203.274 178.877, 202.422 176.656 C 202.114 175.854, 200.880 174.934, 199.681 174.612 C 196.983 173.889, 197.025 173.884, 194.097 175.289 M 192.236 201.979 C 190.440 202.405, 186.807 204.721, 184.162 207.127 C 181.517 209.532, 176.312 213.692, 172.595 216.371 C 165.216 221.690, 159.748 228.306, 160.208 231.358 C 160.368 232.426, 161.691 234.185, 163.146 235.268 C 166.510 237.769, 171.320 236.568, 171.829 233.100 C 172.024 231.773, 173.862 229.757, 176.329 228.168 C 186.537 221.589, 195.332 214.435, 197.570 210.888 C 200.356 206.476, 200.720 202.490, 198.418 201.607 C 196.637 200.923, 196.703 200.919, 192.236 201.979 M 210.117 224.062 C 206.698 226.919, 202.174 231.786, 200.063 234.878 C 196.212 240.520, 189.813 246.984, 180.500 254.642 C 172.139 261.516, 149.391 278.330, 144.552 281.212 C 140.618 283.555, 140 284.370, 140 287.221 C 140 291.785, 142.828 293.508, 147.822 291.987 C 156.408 289.371, 164.855 283.465, 191.513 261.441 C 201.349 253.314, 214 239.235, 214 236.414 C 214 235.892, 216.025 233.151, 218.500 230.321 C 224.249 223.750, 224.357 220.881, 218.907 219.513 C 216.793 218.982, 215.226 219.793, 210.117 224.062" stroke="none" fill="black" fill-rule="evenodd"/>
</svg>