<svg xmlns="http://www.w3.org/2000/svg" width="300" height="300" viewBox="0 0 300 300" version="1.1">
	<path d="M 172.500 24.321 C 167.806 26.557, 164.874 28.707, 154.119 37.797 C 151.710 39.834, 148.897 41.906, 147.869 42.403 C 146.841 42.899, 146 43.687, 146 44.153 C 146 44.619, 145.518 45, 144.929 45 C 144.339 45, 143.272 45.563, 142.557 46.250 C 141.842 46.938, 137.979 49.975, 133.973 53 C 123.107 61.205, 121.677 62.737, 122.492 65.306 C 123.728 69.202, 122.987 81.231, 120.847 92 C 118.079 105.931, 117.772 125.109, 120.243 129.662 C 124.561 137.613, 132.859 139.378, 141.165 134.110 C 145.689 131.242, 157 117.512, 157 114.890 C 157 114.151, 158.614 116.274, 160.587 119.608 C 164.274 125.841, 168.125 129, 172.038 129 C 175.469 129, 182.285 126.835, 184.386 125.077 C 189.610 120.709, 198.920 105.825, 208.296 86.851 C 213.908 75.494, 219.129 65.920, 219.898 65.576 C 220.666 65.231, 224.491 64.682, 228.398 64.356 C 234.713 63.827, 235.703 63.988, 237.335 65.803 C 240.045 68.819, 240.363 74.120, 238.629 87.368 C 236.804 101.313, 235.476 104, 230.411 104 C 226.445 104, 223.686 102.814, 220 99.524 C 216.496 96.397, 214.306 95.837, 212.529 97.614 C 209.968 100.175, 210.782 102.852, 215.750 108.193 C 222.071 114.990, 227.538 117.413, 234.569 116.535 C 240.224 115.828, 243.602 113.772, 247.038 108.946 C 249.680 105.237, 252.108 90.363, 252.336 76.500 C 252.484 67.451, 252.240 65.972, 249.772 60.946 C 246.651 54.591, 243.173 52.385, 234.729 51.407 C 224.755 50.251, 196.091 56.892, 190.943 61.552 C 188.051 64.168, 188.351 69.528, 191.504 71.594 C 193.763 73.075, 194.445 73.091, 198.504 71.754 C 203.123 70.234, 204.223 70.740, 201.396 73.086 C 200.514 73.819, 199.390 75.336, 198.898 76.459 C 198.407 77.582, 197.620 79.175, 197.150 80 C 196.680 80.825, 195.366 83.525, 194.231 86 C 189.851 95.551, 183.633 107.645, 181.459 110.846 C 179.607 113.572, 173.992 117.803, 173.601 116.768 C 173.546 116.621, 172.508 114.475, 171.295 112 C 165.388 99.947, 163.905 92.237, 166.389 86.500 C 168.031 82.708, 166.620 79, 163.536 79 C 160.344 79, 155.290 84.838, 153.874 90.160 C 152.961 93.588, 152.902 96.306, 153.650 100.433 C 154.657 105.985, 154.640 106.052, 152.084 106.684 C 150.663 107.036, 148.841 108.263, 148.035 109.412 C 145.165 113.504, 138.120 120.528, 135.133 122.278 L 132.097 124.056 130.887 120.018 C 129.511 115.424, 130.726 100.973, 134.150 81.205 C 135.226 74.993, 135.842 69.078, 135.520 68.061 C 135.047 66.573, 137.132 64.761, 146.216 58.767 C 152.422 54.672, 162.649 47.424, 168.941 42.661 C 175.234 37.897, 181.331 34, 182.491 34 C 185.342 34, 187 32.145, 187 28.955 C 187 22.927, 180.073 20.713, 172.500 24.321 M 50.608 64.496 C 48.433 66.142, 48.239 69.527, 49.948 76 C 51.909 83.427, 49.934 102.568, 44.870 125.222 C 43.920 129.469, 43.496 129.990, 40.657 130.402 C 20.479 133.325, 18.180 134.113, 12.204 140.148 C 5.138 147.285, 8.372 151.241, 18.284 147.584 C 22.287 146.107, 38.943 143.610, 39.705 144.372 C 39.903 144.569, 39.611 146.704, 39.058 149.115 C 37.004 158.058, 34.999 170.621, 35.005 174.500 C 35.021 184.504, 39.705 191.256, 51.083 197.678 C 59.301 202.316, 59.323 202.378, 55.904 211.020 C 54.276 215.134, 52.314 219.850, 51.544 221.500 C 50.774 223.150, 49.174 226.750, 47.988 229.500 C 44.842 236.796, 41.357 241.498, 36.919 244.435 C 34.260 246.195, 33 247.763, 33 249.314 C 33 257.381, 45.036 254.573, 52.870 244.678 C 56.798 239.717, 69 215.129, 69 212.174 C 69 211.276, 70.587 212.100, 73.250 214.381 C 89.336 228.157, 92.197 230.217, 95.945 230.719 C 99.244 231.162, 100.033 230.880, 101.422 228.759 C 104.131 224.625, 103.300 223.514, 85.513 207.500 C 81.236 203.650, 77.094 200.125, 76.308 199.666 C 74.693 198.724, 75.061 195.886, 77.951 187 C 80.885 177.976, 83.051 169.810, 83.918 164.500 C 84.367 161.750, 85.527 155.450, 86.496 150.500 C 87.465 145.550, 88.679 139.151, 89.193 136.281 L 90.129 131.062 95.815 129.322 C 106.049 126.190, 109.122 122.678, 105.125 118.681 C 103.221 116.776, 102.587 116.691, 97.771 117.690 C 94.872 118.291, 92.307 118.601, 92.072 118.380 C 91.836 118.158, 92.632 111.569, 93.841 103.738 C 96.448 86.851, 96.523 83.347, 94.391 78.020 C 92.458 73.187, 90.435 72.893, 86.607 76.888 C 83.525 80.106, 82.060 85.060, 82.024 92.389 C 82 97.222, 78.360 120.609, 77.386 122.185 C 77.109 122.633, 75.925 123, 74.755 123 C 73.585 123, 69.296 123.935, 65.224 125.077 C 61.153 126.220, 57.659 126.993, 57.462 126.795 C 57.264 126.597, 57.504 124.650, 57.996 122.468 C 62.713 101.536, 63.956 76.663, 60.650 69.333 C 59.632 67.076, 57.699 64.728, 56.353 64.115 C 53.285 62.717, 52.926 62.741, 50.608 64.496 M 227 134.996 C 217.185 135.684, 202.336 138.024, 191 140.669 C 187.425 141.503, 182.025 142.579, 179 143.060 C 162.512 145.679, 149.251 151.338, 144.257 157.885 C 141.016 162.135, 141.004 162.140, 140.078 159.705 C 139.081 157.082, 134.492 153, 132.539 153 C 131.885 153, 130.366 154.046, 129.165 155.324 C 127.362 157.243, 127.143 158.159, 127.909 160.574 C 128.715 163.118, 129.289 173.784, 131.473 226.848 C 131.940 238.182, 133.407 242.011, 137.273 241.985 C 143.496 241.942, 144.403 238.613, 143.579 218.819 L 142.881 202.026 146.042 202.658 C 149.629 203.376, 162.864 201.627, 174 198.963 C 178.125 197.977, 181.829 197.483, 182.231 197.866 C 182.633 198.249, 183.266 206.989, 183.639 217.289 C 184.055 228.819, 184.735 236.356, 185.408 236.901 C 186.008 237.387, 187.400 237.964, 188.500 238.182 C 190.499 238.579, 187.247 239.172, 162.118 242.989 C 141.317 246.148, 134.598 250.392, 141.635 255.927 C 144.961 258.544, 148.100 258.552, 165 255.989 C 197.046 251.130, 213.687 247.992, 223.571 244.946 C 227.717 243.669, 228 243.723, 228 245.800 C 228 250.880, 235.265 251.542, 241.019 246.985 C 250.024 239.853, 256.861 224.061, 259.564 204.146 C 261.018 193.432, 261.077 190.179, 260.003 179.646 C 259.322 172.966, 258.450 162.550, 258.066 156.500 C 257.682 150.450, 256.883 144.375, 256.290 143 C 254.651 139.198, 250.622 135.932, 246.347 134.940 C 242.215 133.981, 241.436 133.984, 227 134.996 M 64.500 138.540 C 59.550 139.870, 55.197 140.967, 54.828 140.979 C 53.655 141.016, 52.028 147.262, 49.986 159.566 C 47.160 176.599, 47.267 178.149, 51.528 181.890 C 55.467 185.349, 62.901 189.433, 63.736 188.597 C 64.252 188.082, 64.953 185.710, 68.352 173 C 72.819 156.295, 76.228 135.963, 74.547 136.061 C 73.971 136.094, 69.450 137.210, 64.500 138.540 M 219.500 149.046 C 212.676 149.693, 196.922 152.587, 196.465 153.277 C 196.384 153.400, 196.526 159.261, 196.781 166.303 L 197.245 179.105 200.372 178.470 C 204.757 177.581, 209.667 176.096, 215.519 173.891 C 222.084 171.418, 223.463 171.501, 225.836 174.519 C 230.531 180.487, 224.371 185.724, 206.833 190.671 C 201.700 192.120, 197.275 193.498, 197 193.735 C 196.725 193.971, 196.246 202.154, 195.936 211.919 C 195.449 227.234, 195.082 230.256, 193.268 233.924 L 191.164 238.176 193.332 237.636 C 194.524 237.339, 197.525 236.811, 200 236.464 C 202.475 236.117, 210.448 234.684, 217.718 233.280 C 230.107 230.888, 231.093 230.831, 233.433 232.364 C 234.806 233.264, 236.094 234, 236.294 234 C 236.619 234, 239.948 226.785, 242.061 221.500 C 245.415 213.112, 247.149 194.141, 245.946 179 C 245.488 173.225, 245.087 164.599, 245.056 159.832 C 244.977 147.594, 245.282 147.974, 235.643 148.144 C 231.164 148.223, 223.900 148.629, 219.500 149.046 M 176 157.469 C 172.975 158.185, 167.180 159.515, 163.122 160.425 C 153.986 162.474, 150.051 164.106, 147.595 166.862 C 146.547 168.038, 144.806 169, 143.726 169 C 141.850 169, 141.794 169.486, 142.484 179.750 C 142.881 185.662, 143.341 190.644, 143.506 190.819 C 143.671 190.995, 145.537 190.676, 147.653 190.110 C 149.769 189.545, 155.775 188.371, 161 187.503 C 173.151 185.483, 181.165 183.708, 182.750 182.687 C 183.644 182.111, 184 178.198, 184 168.941 C 184 159.210, 183.690 156.021, 182.750 156.084 C 182.063 156.130, 179.025 156.753, 176 157.469" stroke="none" fill="black" fill-rule="evenodd"/>
</svg>