<svg xmlns="http://www.w3.org/2000/svg" width="300" height="300" viewBox="0 0 300 300" version="1.1">
	<path d="M 124.655 20.829 C 122.804 22.874, 122.515 26.225, 123.956 28.919 C 124.878 30.640, 128 49.399, 128 53.211 C 128 54.797, 127.687 54.903, 125.876 53.934 C 123.541 52.684, 109.180 53.064, 88.105 54.935 C 74.047 56.183, 68 58.506, 68 62.661 C 68 68.385, 75.780 69.589, 97.233 67.185 C 109.373 65.825, 127.599 65.266, 128.558 66.224 C 128.858 66.525, 128.796 70.169, 128.420 74.322 C 127.750 81.712, 127.691 81.844, 125.618 80.519 C 124.003 79.487, 116.929 79.087, 95.860 78.833 C 69.824 78.519, 68.098 78.611, 66.110 80.405 C 63.664 82.614, 63.254 88.136, 65.404 89.920 C 66.793 91.073, 109.861 91.767, 121.572 90.824 C 127.327 90.361, 127.062 89.505, 124.813 101.293 C 124.029 105.406, 123.108 107.407, 121.636 108.195 C 120.476 108.816, 110.752 109.634, 99.532 110.055 C 84.551 110.616, 77.105 111.361, 70 113.008 C 59.261 115.498, 57.445 116.654, 58.386 120.400 C 59.164 123.502, 61.951 124.380, 71 124.374 C 79.935 124.368, 111.678 122.038, 116.152 121.061 L 119.805 120.262 118.726 123.357 C 118.132 125.060, 117.054 127.588, 116.329 128.976 C 115.605 130.364, 115.010 132.026, 115.006 132.669 C 115.003 133.312, 114.341 135.112, 113.535 136.669 C 112.729 138.226, 110.419 143.025, 108.400 147.333 C 106.382 151.641, 104.229 155.316, 103.615 155.500 C 103.002 155.683, 101.316 156.091, 99.869 156.406 C 96.125 157.221, 95.627 160.403, 98.676 164.026 C 101.490 167.371, 105.330 167.915, 109.802 165.602 C 113.887 163.490, 115.258 161.537, 121.812 148.500 C 129.373 133.462, 130.594 130.622, 132.388 123.910 C 133.184 120.934, 134.498 116.668, 135.310 114.429 C 138.109 106.704, 141.329 81.260, 141.311 67 C 141.291 50.566, 138.224 29.950, 134.928 24.085 C 132.012 18.898, 127.653 17.516, 124.655 20.829 M 191.069 22.417 C 189.367 24.467, 188.295 33.663, 186.921 57.967 C 186.053 73.343, 185.324 79.819, 184.354 80.789 C 182.763 82.380, 182.568 85.615, 184.009 86.506 C 184.666 86.912, 184.792 92.962, 184.369 103.815 C 183.700 120.972, 184.658 134.340, 187.607 149 C 189.251 157.177, 192.575 162, 196.565 162 C 200.603 162, 201.214 159.963, 200.065 150.327 C 199.486 145.472, 198.484 134.599, 197.837 126.164 C 196.859 113.405, 196.889 110.686, 198.015 109.991 C 199.307 109.192, 203.959 108.508, 224.767 106.052 C 241.194 104.114, 251 98.618, 251 91.349 C 251 88.329, 247.967 84, 245.850 84 C 244.951 84, 241 88.078, 241 89.006 C 241 89.351, 237.738 90.386, 233.750 91.304 C 227.268 92.797, 220.877 93.653, 203.123 95.405 L 197.745 95.936 198.289 91.885 C 198.587 89.658, 199.050 87.617, 199.316 87.350 C 199.583 87.084, 208.958 85.493, 220.150 83.815 C 244.094 80.225, 247.289 78.945, 246.804 73.135 L 246.500 69.500 240.500 69.548 C 234.757 69.593, 206.942 72.495, 202.250 73.538 C 200.224 73.988, 200 73.660, 200 70.240 L 200 66.442 209.250 65.124 C 214.338 64.399, 221.311 63.489, 224.746 63.101 C 234.834 61.964, 239.270 57.113, 235.492 51.348 C 234.221 49.407, 233.321 48.975, 231.665 49.507 C 230.474 49.890, 227.025 50.147, 224 50.078 C 220.975 50.009, 214.693 50.634, 210.040 51.466 C 205.387 52.299, 201.263 52.647, 200.876 52.240 C 200.489 51.833, 200.021 45.276, 199.836 37.669 C 199.537 25.355, 199.287 23.682, 197.559 22.419 C 195.085 20.610, 192.569 20.610, 191.069 22.417 M 135.131 163.561 C 134.023 164.969, 132.629 168.682, 132.033 171.811 C 131.436 174.940, 130.404 179.300, 129.739 181.500 C 128.282 186.318, 115.467 211.782, 113.257 214.250 C 111.928 215.735, 109.780 216.009, 99.095 216.058 C 78.208 216.153, 54.238 218.567, 48.581 221.145 C 45.694 222.461, 45.218 225.106, 47.524 227.020 C 48.676 227.976, 52.283 228.126, 62.274 227.635 C 69.548 227.277, 82.138 226.697, 90.250 226.347 C 106.678 225.637, 106.363 225.494, 103.500 232.346 C 101.614 236.860, 101.580 242.300, 103.418 245.800 C 106.596 251.855, 116.237 258.416, 128.761 263.046 L 132.021 264.251 129.761 266.403 C 121.253 274.499, 109.468 280.125, 99.266 280.959 C 94.397 281.357, 91.573 282.062, 90.960 283.031 C 86.518 290.054, 99.107 293.916, 113 289.793 C 122.226 287.055, 139.454 276.192, 144.802 269.740 C 145.838 268.491, 146.759 268.371, 149.302 269.152 C 151.061 269.693, 155.640 271.035, 159.478 272.134 C 163.316 273.234, 166.945 274.539, 167.542 275.035 C 168.140 275.531, 171.300 276.581, 174.564 277.368 C 177.829 278.156, 183.152 279.512, 186.394 280.383 C 195.363 282.791, 200 281.124, 200 275.493 C 200 273.141, 199.321 271.785, 197.569 270.637 C 194.614 268.701, 185.065 265.001, 183.021 265.001 C 182.208 265, 178.608 263.931, 175.021 262.624 C 171.435 261.317, 165.675 259.442, 162.223 258.457 L 155.945 256.667 158.380 254.083 C 161.955 250.289, 172.240 232.072, 174.290 225.900 C 174.746 224.528, 177.930 224.202, 196.661 223.608 C 219.772 222.875, 246.357 220.599, 251.702 218.896 C 256.218 217.458, 257.006 214.262, 253.572 211.309 C 250.345 208.533, 252.222 208.559, 225.352 210.923 C 194.003 213.681, 181 214.346, 181 213.193 C 181 212.657, 181.890 210.257, 182.978 207.859 C 184.066 205.462, 184.966 201.697, 184.978 199.493 C 184.990 197.290, 185.435 193.970, 185.967 192.116 C 187.170 187.922, 185.806 185, 182.645 185 C 178.941 185, 177.172 187.624, 169.500 204.500 C 168 207.800, 166.439 211.175, 166.033 212 C 165.441 213.200, 161.652 213.677, 147.114 214.384 C 137.116 214.870, 128.652 214.986, 128.306 214.640 C 127.961 214.294, 129.758 209.846, 132.299 204.756 C 140.194 188.945, 143.009 181.207, 143.639 173.582 C 144.158 167.299, 143.978 166.190, 142.040 163.750 C 139.322 160.330, 137.707 160.286, 135.131 163.561 M 133.146 225.953 L 120.791 226.500 118.396 230.985 C 115.559 236.294, 115.340 240.116, 117.750 242.210 C 120.413 244.524, 129.790 248.966, 136.500 251.093 L 142.500 252.995 144.798 250.248 C 148.581 245.726, 159 227.897, 159 225.947 C 159 224.982, 155.046 224.982, 133.146 225.953" stroke="none" fill="black" fill-rule="evenodd"/>
</svg>