<svg xmlns="http://www.w3.org/2000/svg" width="300" height="300" viewBox="0 0 300 300" version="1.1">
	<path d="M 190.520 22.977 C 187.939 25.830, 189.113 31.212, 193.479 36.539 C 195.445 38.939, 197.687 42.696, 198.460 44.887 C 200.098 49.529, 200.983 49.114, 185.500 50.951 C 150.738 55.075, 135.027 59.206, 135.007 64.227 C 134.993 67.668, 139.367 69.241, 147.876 68.854 L 155.777 68.495 153.491 70.782 C 150.764 73.509, 151.024 75.009, 155.740 83.740 L 159.121 90 155.666 90 C 151.916 90, 140.255 93.319, 135.613 95.708 C 132.203 97.462, 128 101.778, 128 103.524 C 128 104.201, 128.703 105.339, 129.563 106.052 C 130.853 107.123, 131.947 107.061, 135.813 105.702 C 143.113 103.137, 164.089 101.777, 206.599 101.112 C 248.232 100.460, 249 100.360, 249 95.569 C 249 90.549, 247.418 89.944, 232.981 89.438 C 225.566 89.178, 216.642 88.707, 213.149 88.392 L 206.799 87.819 209.217 85.160 C 214.499 79.352, 219.616 67.592, 218.609 63.579 C 218.074 61.445, 218.418 61.228, 223.265 60.646 C 226.144 60.300, 229.941 60.013, 231.703 60.009 C 238.637 59.990, 242.566 55.794, 240.050 51.093 C 238.982 49.098, 238.153 49, 222.265 49 C 209.303 49, 205.867 48.733, 206.800 47.800 C 208.508 46.092, 208.284 39.769, 206.337 34.770 C 204.550 30.179, 196.174 21, 193.772 21 C 192.968 21, 191.505 21.890, 190.520 22.977 M 185 63.073 C 179.225 63.498, 170.973 64.555, 166.662 65.422 C 162.351 66.290, 158.578 67, 158.277 67 C 157.975 67, 159.093 68.237, 160.761 69.750 C 164.237 72.903, 165.505 75.146, 168.506 83.457 L 170.657 89.414 179.979 89.119 C 185.106 88.957, 190.075 88.526, 191.021 88.162 C 191.967 87.798, 194.724 85.170, 197.148 82.321 C 201.185 77.576, 203.878 71.867, 205.436 64.750 C 206.036 62.008, 206.022 62, 200.769 62.151 C 197.871 62.234, 190.775 62.649, 185 63.073 M 72.878 72.228 C 72.222 73.454, 71.344 78.966, 70.927 84.478 C 69.941 97.509, 67.216 111.757, 63.082 125.500 C 62.586 127.150, 61.911 129.718, 61.582 131.206 C 61.096 133.405, 60.282 134.023, 57.242 134.502 C 50.846 135.511, 38.630 139.227, 37.283 140.574 C 35.667 142.190, 35.621 146.221, 37.200 147.800 C 38.650 149.250, 47.203 149.376, 51.940 148.017 C 53.825 147.477, 55.582 147.249, 55.845 147.511 C 56.107 147.774, 53.999 154.923, 51.161 163.399 C 48.322 171.875, 46.010 180.315, 46.022 182.155 C 46.053 186.745, 48.317 189.205, 56.500 193.538 C 60.350 195.576, 64.210 197.864, 65.079 198.622 C 65.947 199.380, 67.095 200, 67.629 200 C 68.163 200, 69.124 200.524, 69.765 201.165 C 71.043 202.443, 67.710 209.542, 56.700 229 C 49.273 242.125, 44.836 247, 40.316 247 C 37.597 247, 36.924 247.456, 36.368 249.671 C 35.483 253.198, 39.653 257, 44.406 257 C 51.297 257, 61.599 246.221, 69.254 231 C 73.829 221.904, 80.708 210.139, 81.500 210.058 C 82.050 210.001, 85.875 213.039, 90 216.810 C 102.024 227.802, 109.269 231.331, 112.720 227.880 C 113.337 227.263, 118.939 226.396, 125.170 225.953 C 131.402 225.509, 142.112 224.438, 148.970 223.573 C 155.829 222.708, 163.952 222, 167.023 222 L 172.605 222 174.850 236.750 C 176.085 244.863, 177.724 255.325, 178.493 260 C 181.631 279.085, 182.238 283.983, 181.715 285.983 C 181.362 287.331, 181.989 289.038, 183.465 290.755 C 185.463 293.077, 186.084 293.283, 188.192 292.322 C 190.822 291.124, 193 285.575, 193 280.070 C 193 278.312, 192.321 272.064, 191.490 266.187 C 189.485 251.992, 187.219 234.742, 186.505 228.238 C 186.188 225.344, 185.687 222.349, 185.394 221.583 C 184.972 220.485, 186.719 220.063, 193.680 219.581 C 198.531 219.246, 209.700 218.301, 218.500 217.482 C 227.300 216.663, 236.880 215.995, 239.790 215.997 C 247.082 216.001, 253 212.965, 253 209.220 C 253 204.331, 250.992 203.939, 231.295 204.982 C 221.508 205.501, 207.097 206.477, 199.272 207.151 C 191.446 207.825, 184.774 208.107, 184.444 207.777 C 184.114 207.448, 183.592 202.055, 183.284 195.795 L 182.723 184.412 196.112 183.105 C 203.475 182.386, 210.287 181.377, 211.250 180.864 C 213.599 179.610, 213.472 175.444, 211.032 173.735 C 209.157 172.422, 209.240 172.279, 212.782 170.715 C 221.983 166.652, 232.735 151.608, 235.917 138.344 C 236.988 133.880, 236.915 132.790, 235.319 129.428 C 234.296 127.273, 231.968 124.700, 230 123.548 C 226.668 121.598, 225.099 121.509, 197.363 121.680 L 168.226 121.859 159.707 124.708 L 151.187 127.558 148.538 125.279 C 145.466 122.636, 142.772 122.364, 140.986 124.517 C 139.103 126.786, 140.466 136.950, 144.071 147.521 C 145.755 152.459, 147.827 159.875, 148.676 164 C 150.434 172.545, 151.296 174, 154.599 174 C 158.273 174, 160.387 169.911, 159.702 164.130 L 159.132 159.323 174.316 158.177 C 195.501 156.578, 212.292 156.377, 212.739 157.717 C 212.937 158.312, 211.284 160.082, 209.064 161.649 C 204.445 164.912, 203.415 167.039, 205.010 170.019 C 206.098 172.052, 205.948 172.105, 199.815 171.853 C 190.687 171.477, 172.647 172.903, 164.311 174.659 C 160.357 175.492, 156.195 175.879, 155.061 175.519 C 150.431 174.050, 147.858 176.861, 149.623 181.461 C 150.752 184.402, 157.477 187, 163.960 187 L 170 187 170.073 192.750 C 170.113 195.912, 170.478 200.828, 170.884 203.674 L 171.622 208.848 168.561 209.413 C 166.877 209.724, 159.650 210.658, 152.500 211.489 C 145.350 212.320, 137.025 213.426, 134 213.948 C 108.947 218.265, 109.056 218.288, 96.048 206.084 L 86.595 197.216 90.715 185.858 C 97.316 167.658, 104 144.264, 104 139.359 C 104 137.747, 104.687 136.906, 106.250 136.605 C 117.456 134.445, 120.418 133.545, 122.662 131.614 C 126.969 127.910, 125.590 121, 120.544 121 C 119.328 121, 117.996 121.337, 117.584 121.749 C 117.172 122.161, 114.686 122.983, 112.060 123.574 L 107.285 124.649 107.683 120.075 C 107.901 117.559, 108.532 112.928, 109.084 109.785 C 110.545 101.463, 107.570 96.254, 102.163 97.668 C 99.462 98.374, 97.389 103.165, 96.612 110.500 C 96.263 113.800, 95.461 118.861, 94.830 121.747 C 93.775 126.572, 93.395 127.074, 90.092 127.991 C 88.116 128.540, 85.600 128.997, 84.500 129.006 C 83.400 129.016, 80.138 129.653, 77.250 130.421 C 71.231 132.024, 70.972 131.671, 73.474 125.270 C 76.490 117.552, 78.931 103.046, 79.602 88.849 C 80.264 74.827, 80.211 74.211, 78.145 72.145 C 75.429 69.429, 74.367 69.445, 72.878 72.228 M 173.148 134.766 C 161.255 135.996, 157.372 136.089, 155.912 135.177 C 154.875 134.530, 153.871 134, 153.681 134 C 153.490 134, 154.015 137.167, 154.846 141.039 C 156.062 146.706, 156.663 147.957, 157.928 147.459 C 162.257 145.756, 172.408 145.014, 191 145.041 C 206.895 145.064, 212.062 145.392, 214 146.500 C 215.375 147.286, 217.015 147.945, 217.644 147.965 C 218.964 148.005, 224.404 135.072, 223.463 134.128 C 222.141 132.802, 187.953 133.236, 173.148 134.766 M 83.839 141.463 C 81.276 142.169, 76.663 143.062, 73.589 143.446 C 70.515 143.830, 68 144.345, 68 144.590 C 68 145.012, 64.777 156.974, 62.905 163.500 C 62.432 165.150, 61.189 169.644, 60.144 173.487 L 58.244 180.474 66.372 184.819 C 70.842 187.208, 74.850 189.239, 75.279 189.332 C 76.744 189.649, 84.527 167.560, 88.940 150.562 C 91.997 138.783, 92.206 139.158, 83.839 141.463" stroke="none" fill="black" fill-rule="evenodd"/>
</svg>