<svg xmlns="http://www.w3.org/2000/svg" width="300" height="300" viewBox="0 0 300 300" version="1.1">
	<path d="M 196.243 11.750 C 192.001 17.911, 191.498 20.832, 191.554 39 C 191.583 48.625, 191.808 62.648, 192.054 70.162 C 192.299 77.676, 192.274 84.052, 191.999 84.330 C 191.199 85.137, 156.244 85.576, 155.456 84.788 C 154.716 84.050, 156.346 68.290, 158.080 59.413 C 160.039 49.386, 154.288 42.707, 148.047 47.761 C 146.246 49.219, 145.592 51.579, 144.236 61.511 C 143.335 68.105, 142.577 77.413, 142.549 82.194 C 142.501 90.753, 142.553 90.944, 145.896 94.393 C 150.241 98.876, 155.328 99.999, 171.299 100.003 C 196.877 100.008, 214.086 96.683, 228.193 89.009 L 233.886 85.912 232.943 89.199 C 231.357 94.729, 231.782 97.811, 234.365 99.504 C 238.256 102.053, 241.283 100.149, 243.801 93.568 C 246.725 85.928, 247.789 78.273, 248.479 59.934 C 249.037 45.104, 248.967 44.280, 247.008 42.507 C 245 40.690, 244.887 40.694, 242.226 42.665 C 237.198 46.389, 235 50.750, 235 57.001 C 235 60.139, 234.712 65.465, 234.359 68.837 C 233.775 74.423, 233.531 74.924, 231.609 74.474 C 230.449 74.203, 228.375 74.641, 227 75.448 C 222.253 78.232, 219.471 79.245, 211.678 81.027 L 203.855 82.816 204.678 78.658 C 205.130 76.371, 205.355 64.825, 205.178 53 C 204.918 35.569, 205.187 29.861, 206.601 22.838 C 208.243 14.687, 208.246 14.024, 206.650 11.588 C 204.218 7.876, 198.853 7.960, 196.243 11.750 M 76.350 55.257 C 74.158 56.235, 73.043 60.144, 73 67 C 72.988 68.925, 71.151 77.925, 68.919 87 C 66.687 96.075, 64.237 106.194, 63.475 109.488 C 60.629 121.792, 59.681 123.238, 52.745 125.861 C 43.141 129.493, 30.161 135.696, 28.326 137.531 C 27.061 138.796, 26.894 139.797, 27.609 141.830 C 29.027 145.862, 29.747 145.864, 47.872 141.873 C 50.276 141.343, 52.406 141.072, 52.604 141.270 C 52.802 141.469, 51.470 144.751, 49.643 148.565 C 39.680 169.371, 40.991 176.478, 57.259 189.829 C 61.241 193.098, 65.509 196.861, 66.741 198.191 C 68.953 200.578, 68.959 200.657, 67.172 204.055 C 58.940 219.714, 51.229 229.312, 43.862 233.070 C 41.738 234.154, 40 235.445, 40 235.939 C 40 236.432, 39.740 237.513, 39.423 238.341 C 38.524 240.683, 42.545 244.003, 46.250 243.978 C 54.634 243.921, 64.476 235.157, 74.553 218.775 C 77.691 213.674, 80.359 209.379, 80.481 209.231 C 80.604 209.084, 85.461 212.796, 91.276 217.481 C 97.090 222.167, 102.750 226, 103.853 226 C 107.089 226, 109 223.256, 109 218.609 C 109 215.324, 108.433 213.868, 106.500 212.187 C 105.125 210.991, 104 209.632, 104 209.167 C 104 208.702, 102.862 207.802, 101.471 207.169 C 96.864 205.070, 87.058 196.561, 87.446 195 C 87.651 194.175, 90.074 188.325, 92.829 182 C 103.479 157.554, 107.974 142.964, 108.766 130.269 C 109.275 122.116, 109.400 121.757, 112.047 120.834 C 116.924 119.134, 116.558 111.680, 111.535 110.420 C 110.068 110.051, 109 109.069, 109 108.087 C 109 105.415, 103.386 97.257, 101.033 96.511 C 97.443 95.371, 96.109 97.575, 95.792 105.171 L 95.500 112.168 86.500 115.072 C 81.550 116.669, 76.917 117.981, 76.205 117.988 C 74.591 118.003, 75.186 114.282, 78.998 100.500 C 83.303 84.935, 85.115 76.141, 85.692 68 C 86.159 61.424, 85.967 60.176, 84.136 57.873 C 81.667 54.766, 79.262 53.958, 76.350 55.257 M 232 106.946 C 230.075 107.339, 225.350 108.624, 221.500 109.800 C 217.650 110.977, 207.075 113.319, 198 115.005 C 188.925 116.691, 178.186 118.738, 174.135 119.554 C 170.084 120.370, 162.850 121.316, 158.059 121.656 C 150.794 122.172, 148.913 121.989, 146.723 120.554 C 143.645 118.537, 140.439 119.212, 139.702 122.033 C 139.343 123.402, 138.323 124.004, 136.344 124.014 C 131.555 124.037, 129.420 125.019, 127.652 128.012 C 126.025 130.766, 126.041 130.960, 128.048 132.830 C 130.147 134.785, 134.199 136, 138.625 136 L 141 136 140.980 149.750 C 140.969 157.313, 140.515 166.650, 139.971 170.500 C 138.578 180.358, 132.186 210.123, 127.300 229.500 C 125.914 235, 124.423 241.525, 123.988 244 C 123.552 246.475, 122.439 251.200, 121.514 254.500 C 120.589 257.800, 119.324 262.525, 118.703 265 C 118.081 267.475, 116.544 270.320, 115.287 271.323 C 110.498 275.139, 113.612 282, 120.134 282 C 123.288 282, 127.401 277.607, 129.960 271.508 C 132.785 264.772, 140.965 232.930, 143.688 218.070 L 144.500 213.641 151 213.551 C 154.575 213.502, 162 212.426, 167.500 211.161 C 193.267 205.234, 199.430 204.030, 200.176 204.776 C 200.618 205.218, 201.422 212.762, 201.962 221.540 C 202.502 230.318, 203.851 244.700, 204.960 253.500 C 207.385 272.742, 207.431 274.712, 205.500 276.643 C 203.636 278.507, 203.553 282.384, 205.345 283.872 C 206.085 284.486, 208.101 285.270, 209.824 285.615 C 212.496 286.149, 213.477 285.723, 216.479 282.721 C 219.776 279.424, 220 278.792, 220 272.774 C 220 269.239, 219.546 261.432, 218.991 255.424 C 218.436 249.416, 217.314 237.300, 216.497 228.500 C 215.680 219.700, 214.896 209.933, 214.756 206.795 L 214.500 201.090 221 199.607 C 224.575 198.792, 229.470 197.857, 231.877 197.530 C 238.924 196.573, 248.282 193.049, 251.250 190.234 C 254.903 186.770, 254.947 182.220, 251.364 178.636 C 248.019 175.291, 246.450 175.320, 243.151 178.785 C 240.576 181.489, 234.083 183.504, 221.500 185.501 C 219.300 185.851, 216.554 186.363, 215.399 186.639 C 213.399 187.118, 213.239 186.555, 212.079 174.974 C 211.409 168.282, 211.004 162.680, 211.180 162.525 C 211.356 162.370, 216.225 161.236, 222 160.005 C 227.775 158.773, 234.388 156.918, 236.695 155.883 C 239.002 154.847, 241.355 154, 241.922 154 C 242.490 154, 243.704 152.855, 244.622 151.455 C 246.052 149.272, 246.100 148.556, 244.961 146.428 C 243.122 142.990, 240.270 142.551, 231.798 144.399 C 212.371 148.638, 199.359 150.233, 184.606 150.182 C 167.976 150.125, 163.413 151.207, 159.987 156.018 C 157.598 159.373, 157.420 163.274, 159.575 165.062 C 160.841 166.113, 162.274 166.137, 166.885 165.185 C 170.040 164.533, 178.040 164, 184.663 164 L 196.707 164 197.331 171.250 C 197.674 175.238, 198.254 181.313, 198.620 184.750 C 199.257 190.738, 199.192 191, 197.066 191 C 194.886 191, 183.265 193.487, 161.500 198.612 C 155.450 200.036, 149.872 201.440, 149.105 201.732 C 147.401 202.381, 147.898 197.916, 151.023 184.500 C 152.603 177.714, 153.258 170.691, 153.683 155.953 L 154.246 136.405 168.373 134.133 C 220.152 125.807, 240 119.552, 240 111.563 C 240 109.259, 237.623 105.870, 236.179 106.115 C 235.805 106.178, 233.925 106.552, 232 106.946 M 85.500 129.249 C 81.100 130.912, 75.604 132.941, 73.287 133.758 C 69.841 134.973, 68.864 135.903, 67.917 138.872 C 67.280 140.867, 66.363 142.927, 65.879 143.450 C 65.396 143.972, 65 145.148, 65 146.062 C 65 146.975, 63.200 151.564, 61 156.259 C 56.766 165.294, 56.291 167.807, 58.158 171.295 C 59.513 173.826, 59.451 173.766, 68.437 181.338 L 75.366 187.176 77.239 183.526 C 84.193 169.970, 93.089 143.867, 95.565 129.750 C 96.364 125.194, 96.244 125.188, 85.500 129.249" stroke="none" fill="black" fill-rule="evenodd"/>
</svg>