<svg xmlns="http://www.w3.org/2000/svg" width="300" height="300" viewBox="0 0 300 300" version="1.1">
	<path d="M 239.574 12.353 C 235.614 16.551, 234.053 22.844, 233.287 37.686 L 232.709 48.872 226.605 49.412 C 223.247 49.709, 211.005 50.233, 199.401 50.575 L 178.302 51.197 177.660 45.849 C 176.608 37.089, 176.876 32.348, 178.500 31 C 180.860 29.042, 180.343 25.477, 177.512 24.187 C 174.551 22.838, 172.282 23.526, 169.297 26.677 C 166.398 29.736, 165.006 34.727, 164.312 44.547 L 163.743 52.593 149.622 54.408 C 119.899 58.228, 112.397 60.095, 107.250 64.954 C 104.806 67.261, 104.509 68.681, 105.985 71 C 107.287 73.045, 118.283 72.749, 137 70.164 C 144.975 69.063, 154.268 67.861, 157.651 67.494 L 163.803 66.826 164.511 70.052 C 164.901 71.826, 164.907 77.870, 164.524 83.482 C 163.926 92.258, 164.061 93.918, 165.486 95.343 C 167.255 97.112, 169.738 97.454, 171.711 96.200 C 174.223 94.604, 175.976 87.814, 176.621 77.183 L 177.289 66.192 180.276 65.595 C 181.919 65.266, 194.342 64.703, 207.882 64.343 L 232.500 63.689 232.178 71.701 C 231.826 80.472, 232.998 83, 237.416 83 C 241.134 83, 242.947 79.881, 244.192 71.341 L 245.353 63.373 257.448 61.723 C 271.085 59.862, 276.837 58.124, 281.743 54.382 C 290.924 47.380, 285.691 36.871, 276.221 43.291 C 272.473 45.832, 261.129 48.001, 251.591 48 L 247.500 47.999 247.652 33.250 C 247.735 25.137, 248.213 17.168, 248.713 15.541 C 249.397 13.315, 249.242 12.138, 248.089 10.791 C 245.799 8.116, 243.103 8.611, 239.574 12.353 M 67.995 50.004 C 65.977 51.754, 65.580 53.346, 64.861 62.556 C 64.408 68.356, 63.331 77.242, 62.467 82.301 C 61.603 87.361, 60.276 95.325, 59.517 100 C 57.702 111.179, 53.932 125, 52.698 125 C 52.159 125, 46.944 127.198, 41.109 129.885 C 35.274 132.572, 28.601 135.559, 26.280 136.524 C 21.289 138.597, 18.695 141.178, 19.162 143.604 C 19.840 147.121, 25.253 147.106, 41.140 143.543 L 46.780 142.279 45.891 145.381 C 45.401 147.088, 42.221 152.502, 38.824 157.412 C 29.563 170.798, 28.166 176.555, 32.003 185.507 C 34.401 191.102, 43.692 201.021, 53.756 208.729 C 59.066 212.796, 60.905 214.776, 60.437 215.920 C 60.082 216.789, 59.428 218.711, 58.983 220.191 C 57.150 226.285, 44.342 247.998, 34.068 262.428 C 30.181 267.888, 27 273.331, 27 274.523 C 27 277.669, 30.379 280.373, 33.373 279.621 C 38.685 278.288, 56.761 254.403, 67.383 234.681 C 73.510 223.305, 74.431 222.068, 75.878 223.278 C 76.770 224.024, 80.200 226.231, 83.500 228.182 C 86.800 230.134, 92.174 233.366, 95.441 235.365 C 102.198 239.499, 106.067 239.933, 109.104 236.896 C 110.715 235.285, 111.062 234.061, 110.585 231.675 C 110.242 229.961, 109.289 228.182, 108.468 227.722 C 107.294 227.065, 109.119 224.526, 117.009 215.844 C 122.528 209.770, 132.757 198.119, 139.740 189.952 C 146.723 181.785, 152.568 175.234, 152.729 175.395 C 152.890 175.556, 152.344 177.609, 151.515 179.957 C 148.371 188.869, 147.072 224.507, 149.060 247.328 C 150.481 263.634, 151.185 265.679, 155.818 266.966 C 161.930 268.664, 181.531 268.154, 196.529 265.907 C 205.372 264.583, 217.473 263.658, 229.500 263.387 C 247.271 262.987, 248.613 262.824, 250.250 260.869 C 253.051 257.523, 251.937 253.289, 247.854 251.759 C 246.377 251.206, 246.497 250.279, 249.025 242.757 C 252.901 231.221, 254.414 216.828, 253.676 198.500 C 252.789 176.481, 250.482 169.598, 242.136 164.063 C 235.433 159.618, 224.178 160.708, 196.500 168.481 C 182.009 172.550, 174.877 173.964, 168.750 173.983 C 163.236 173.999, 163 173.894, 163 171.429 C 163 170.014, 162.317 168.174, 161.482 167.339 C 160.124 165.981, 160.415 165.294, 164.232 160.840 C 171.182 152.729, 176.562 146, 182.976 137.399 L 189.017 129.298 202.258 128.612 C 218.669 127.763, 241.077 125.464, 252.684 123.440 C 262.699 121.693, 274.936 117.706, 276.149 115.793 C 277.628 113.461, 277.039 109.345, 274.956 107.460 C 273.150 105.826, 272.421 105.750, 268.706 106.807 C 253.012 111.273, 230.650 113.924, 208.205 113.979 L 199.909 114 204.978 107.750 C 207.766 104.313, 210.936 99.670, 212.023 97.434 C 215.166 90.970, 214.261 82, 210.465 82 C 209.057 82, 205 85.393, 205 86.571 C 205 86.886, 204.438 87.754, 203.750 88.500 C 203.063 89.246, 200.250 92.456, 197.500 95.633 C 194.750 98.810, 191.488 102.462, 190.250 103.750 C 189.013 105.037, 187.983 106.408, 187.962 106.795 C 187.942 107.183, 186.423 109.255, 184.587 111.400 L 181.249 115.300 160.374 117.037 C 148.893 117.992, 135.795 119.006, 131.266 119.291 C 123.308 119.791, 123.067 119.743, 124.087 117.837 C 125.357 115.465, 123.182 111.510, 120.063 110.520 C 118.422 109.999, 111.431 111.254, 102.888 113.604 C 101.547 113.973, 101.288 113.161, 101.348 108.774 C 101.435 102.429, 98.701 97, 95.419 97 C 90.897 97, 88.369 100.424, 86.936 108.495 C 85.725 115.305, 85.335 116.122, 83.045 116.637 C 81.645 116.951, 77.960 117.837, 74.856 118.604 C 71.751 119.372, 69.009 120, 68.762 120 C 68.515 120, 69.388 116.063, 70.701 111.250 C 74.302 98.060, 76.772 82.055, 77.557 66.835 L 78.261 53.170 75.676 50.585 C 72.566 47.476, 71.043 47.360, 67.995 50.004 M 107.014 125.163 C 102.897 126.253, 99.228 127.631, 98.860 128.226 C 98.493 128.821, 97.886 131.826, 97.511 134.904 C 97.137 137.982, 95.732 145.900, 94.390 152.500 C 93.048 159.100, 91.499 167.102, 90.948 170.281 C 89.812 176.837, 84.377 194.887, 81.175 202.739 L 79.038 207.979 82.769 210 C 87.906 212.782, 90.028 214.138, 93.269 216.708 C 94.801 217.923, 96.604 218.699, 97.277 218.434 C 97.950 218.168, 100.525 215.056, 103 211.518 C 105.475 207.980, 107.799 205.066, 108.165 205.043 C 108.530 205.019, 110.555 202.638, 112.665 199.752 C 114.774 196.865, 117.443 193.602, 118.595 192.502 C 119.747 191.401, 123.122 187.591, 126.095 184.035 C 129.068 180.479, 132.186 176.868, 133.026 176.009 C 133.865 175.151, 137.240 171.101, 140.526 167.010 C 143.811 162.918, 147.193 158.862, 148.039 157.996 C 148.886 157.130, 152.261 153.109, 155.539 149.060 C 158.818 145.011, 163.507 139.218, 165.960 136.187 L 170.420 130.675 164.960 131.304 C 161.957 131.650, 149.954 132.243, 138.288 132.620 C 115.318 133.364, 114 133.126, 114 128.238 C 114 126.853, 114.787 125.123, 115.750 124.392 C 118.186 122.543, 116.277 122.712, 107.014 125.163 M 76.500 132.531 C 64.041 135.381, 64.972 134.625, 60.850 145.247 C 58.796 150.541, 54.777 158.389, 51.919 162.686 C 45.259 172.703, 43.756 176.238, 44.900 179.202 C 45.861 181.694, 58.487 194.197, 63.749 197.868 L 66.998 200.135 68.101 197.317 C 71.021 189.855, 72.229 185.672, 76.911 166.806 C 83.211 141.422, 85.176 130.971, 83.630 131.079 C 83.008 131.123, 79.800 131.777, 76.500 132.531 M 220.570 177.122 C 218.409 177.629, 211.575 179.625, 205.385 181.557 C 193.635 185.225, 183.445 187.298, 171.332 188.484 L 164.164 189.187 163.358 197.843 C 162.358 208.593, 162.256 251.590, 163.229 252.563 C 163.622 252.955, 171.944 252.544, 181.722 251.648 C 191.500 250.753, 206.808 249.903, 215.740 249.760 L 231.979 249.500 233.594 245.500 C 236.401 238.547, 238.432 209.806, 237.310 192.930 C 236.777 184.916, 236.012 177.829, 235.611 177.180 C 234.760 175.802, 226.340 175.770, 220.570 177.122" stroke="none" fill="black" fill-rule="evenodd"/>
</svg>