<svg xmlns="http://www.w3.org/2000/svg" width="300" height="300" viewBox="0 0 300 300" version="1.1">
	<path d="M 189.614 15.401 C 188.726 17.272, 188.001 20.534, 188.003 22.651 C 188.007 27.152, 184.999 40.361, 180.750 54.500 C 176.498 68.649, 174.100 74, 172.013 74 C 169.395 74, 165.135 69.215, 164 65 C 161.159 54.450, 150.372 52.843, 150.639 63.009 C 150.866 71.659, 160.119 83, 166.950 83 C 169.792 83, 169.549 84.326, 165.314 91.904 C 157.355 106.146, 150.997 115, 148.729 115 C 146.421 115, 144.715 117.727, 145.376 120.360 C 146.106 123.271, 150.706 125.363, 154.360 124.446 C 158.895 123.307, 166.603 113.523, 175.446 97.677 L 179.254 90.854 182.377 93.797 C 184.095 95.415, 187.525 97.950, 190 99.429 C 192.475 100.908, 198.100 104.795, 202.500 108.067 C 214.381 116.901, 220.523 120.802, 230.160 125.634 C 247.752 134.454, 262 133.953, 262 124.514 C 262 120.544, 258.463 118.147, 255.191 119.898 C 251.994 121.609, 249.761 121.254, 241.329 117.698 C 234.741 114.920, 225.844 109.791, 216.500 103.386 C 215.400 102.632, 212.025 100.358, 209 98.332 C 205.975 96.307, 202.600 93.871, 201.500 92.920 C 199.463 91.159, 195.421 88.647, 188.818 85.040 C 186.793 83.934, 184.876 82.608, 184.558 82.094 C 184.241 81.580, 185.585 77.186, 187.547 72.330 C 191.369 62.866, 194.754 51.496, 196.087 43.649 C 196.540 40.982, 197.464 37.157, 198.141 35.149 C 198.817 33.142, 199.399 28.052, 199.435 23.839 C 199.493 16.953, 199.257 15.966, 197.097 14.089 C 193.653 11.095, 191.476 11.477, 189.614 15.401 M 212.571 44.250 C 212.286 46.038, 212.378 52.225, 212.776 58 L 213.500 68.500 216.625 68.804 C 220.424 69.174, 222.557 67.257, 223.957 62.216 C 225.423 56.938, 225.244 50.828, 223.502 46.658 C 221.854 42.715, 219.462 41, 215.611 41 C 213.541 41, 212.998 41.580, 212.571 44.250 M 80 75.977 C 78.825 76.718, 78.370 80.127, 77.902 91.712 C 77.573 99.845, 76.605 109.200, 75.751 112.500 C 74.896 115.800, 73.922 120.113, 73.584 122.085 L 72.971 125.670 63.236 127.310 C 57.881 128.212, 51.091 129.170, 48.148 129.440 C 42.903 129.920, 39 132.476, 39 135.431 C 39 137.733, 42.024 140.755, 44.904 141.331 C 47.821 141.914, 61.311 140.669, 65.746 139.408 C 67.955 138.779, 67.970 138.834, 66.622 142.634 C 65.868 144.760, 62.494 152.204, 59.125 159.176 C 55.756 166.148, 53 172.830, 53 174.025 C 53 179.922, 55.777 182.698, 70.178 191.197 C 72.751 192.716, 75.131 194.403, 75.467 194.946 C 76.669 196.892, 58.628 228.183, 53.556 232.948 C 49.985 236.302, 50.076 240.698, 53.745 242.093 C 58.900 244.053, 63.421 240.254, 74 225.074 C 74.825 223.890, 77.798 218.776, 80.608 213.711 C 83.417 208.645, 86.164 204.500, 86.711 204.500 C 88.168 204.500, 95.836 211.693, 100.878 217.790 C 103.284 220.699, 106.517 223.733, 108.063 224.533 C 115.689 228.476, 119.124 219.313, 112.750 212.028 C 107.436 205.955, 106 204.031, 106 202.989 C 106 202.445, 105.662 201.983, 105.250 201.963 C 104.112 201.906, 93 191.383, 93 190.362 C 93 189.872, 93.972 187.677, 95.161 185.485 C 101.050 174.623, 107.759 156.131, 113.621 134.600 C 115.563 127.469, 115.820 127.176, 122.500 124.481 C 128.606 122.018, 137.707 117.231, 139.973 115.291 C 142.037 113.524, 142.482 111.420, 141.393 108.582 C 140.628 106.587, 135.701 106.502, 132.715 108.431 C 130.233 110.034, 118.038 114.395, 117.561 113.851 C 117.392 113.658, 117.659 110.350, 118.154 106.500 C 119.965 92.426, 115.984 85.319, 109.379 90.839 C 106.441 93.294, 105.737 95.998, 105.075 107.365 L 104.500 117.229 96.115 119.646 C 91.503 120.976, 87.510 121.843, 87.240 121.574 C 86.971 121.305, 87.482 117.456, 88.375 113.022 C 89.326 108.307, 90 100.078, 90 93.203 C 90 81.586, 89.965 81.407, 87.056 78.223 C 83.985 74.860, 82.513 74.392, 80 75.977 M 186.974 123.561 C 185.899 126.069, 184.565 130.907, 184.009 134.311 C 181.433 150.104, 178.865 163.775, 177.872 166.983 C 167.771 199.611, 149.983 235.744, 139.591 244.743 C 135.037 248.686, 136.381 254, 141.932 254 C 146.007 254, 158.732 241.250, 163.887 232 C 167.275 225.922, 175 209.948, 175 209.021 C 175 207.288, 176.541 207.882, 179.076 210.592 C 183.457 215.276, 199.306 225.572, 210 230.682 C 235.878 243.046, 260.324 250.616, 277.813 251.681 C 287.168 252.251, 287.840 252.160, 289.970 250.030 C 294.370 245.630, 290.639 237.025, 285 238.567 C 276.727 240.829, 253.161 235.406, 232.500 226.486 C 230.850 225.773, 226.575 224.009, 223 222.564 C 219.425 221.119, 215.306 219.276, 213.846 218.469 C 212.386 217.661, 210.723 217, 210.151 217 C 207.229 217, 188.157 206.814, 182.468 202.215 L 179.641 199.930 181.233 195.215 C 182.108 192.622, 184.022 187.350, 185.486 183.500 C 192.523 164.996, 193.922 157.075, 193.969 135.450 C 194 121.365, 193.468 119, 190.264 119 C 189.530 119, 188.049 121.052, 186.974 123.561 M 95 132.545 C 92.525 133.280, 88.659 134.356, 86.410 134.936 C 82.505 135.943, 82.194 136.319, 79.536 143.246 C 78.006 147.235, 74.334 155.481, 71.377 161.570 C 68.419 167.658, 66 172.931, 66 173.286 C 66 173.641, 69.487 175.954, 73.750 178.426 C 79.776 181.921, 81.760 182.652, 82.670 181.710 C 85.418 178.867, 101 137.134, 101 132.618 C 101 130.761, 101.004 130.762, 95 132.545 M 222.183 145.498 C 221.532 146.926, 221 149.402, 221 151.002 C 221 152.770, 220.020 154.889, 218.500 156.409 C 215.636 159.273, 215.302 162.159, 217.571 164.429 C 219.563 166.420, 221.336 166.409, 225.619 164.377 C 230.810 161.913, 233.361 157.726, 232.695 152.761 C 231.608 144.657, 224.731 139.905, 222.183 145.498 M 138.655 161.829 C 136.366 164.359, 136.580 166.347, 139.518 169.839 C 143.800 174.928, 150.279 178.056, 157.854 178.691 C 165.380 179.322, 169 178.124, 169 175.004 C 169 171.733, 165.090 169, 160.411 169 C 156.972 169, 155.099 168.174, 150.212 164.500 C 143.693 159.600, 141.195 159.022, 138.655 161.829" stroke="none" fill="black" fill-rule="evenodd"/>
</svg>