<svg xmlns="http://www.w3.org/2000/svg" width="300" height="300" viewBox="0 0 300 300" version="1.1">
	<path d="M 141.474 26.249 C 136.900 28.751, 136.907 31.945, 141.500 38.503 C 143.425 41.251, 146.912 44.721, 149.250 46.213 C 159.206 52.567, 164.032 53.219, 166.182 48.500 C 167.117 46.448, 166.911 45.490, 164.898 42.535 C 163.579 40.598, 161.954 39.011, 161.287 39.007 C 160.619 39.003, 157.244 36.367, 153.787 33.149 C 145.964 25.868, 144.091 24.818, 141.474 26.249 M 158 54.063 C 137.220 56.650, 108.290 61.978, 98.229 65.072 C 94.780 66.132, 91.419 67, 90.760 67 C 90.102 67, 87.291 69.243, 84.515 71.985 L 79.467 76.970 76.157 72.735 C 74.336 70.406, 71.991 67.043, 70.945 65.262 C 69.207 62.302, 68.826 62.122, 66.522 63.172 C 62.477 65.015, 63.096 70.444, 68.717 82.437 C 71.814 89.043, 73.466 93.931, 73.524 96.665 C 73.627 101.451, 75.319 104.007, 78.372 103.985 C 83.469 103.948, 84.615 99.738, 82.777 87.807 L 82.054 83.113 86.277 81.054 C 91.020 78.741, 106.154 74.151, 113 72.950 C 115.475 72.516, 119.534 71.696, 122.019 71.128 C 135.599 68.024, 164.117 65.625, 188.166 65.564 C 201.732 65.529, 213.149 65.817, 213.536 66.203 C 215.702 68.367, 210.529 78.483, 201.668 89.412 C 196.941 95.241, 200.895 99.943, 208.036 96.985 C 211.836 95.411, 219.462 87.026, 224 79.434 C 226.974 74.458, 227.500 72.664, 227.500 67.499 C 227.500 62.501, 227.055 60.873, 225 58.346 C 223.625 56.655, 221.118 54.761, 219.429 54.136 C 215.873 52.821, 168.433 52.764, 158 54.063 M 125.214 84.422 C 120.831 87.521, 114 93.884, 114 94.867 C 114 95.300, 109.308 99.555, 103.573 104.322 L 93.145 112.990 90.102 111.245 C 87.140 109.547, 86.999 109.559, 84.842 111.715 C 82.753 113.803, 82.723 114.036, 84.313 115.793 C 85.241 116.819, 86 118.123, 86 118.693 C 86 119.627, 87.336 123.265, 95.659 145 C 97.028 148.575, 98.452 154.425, 98.824 158 C 99.570 165.172, 98.712 164.525, 108 164.923 C 111.165 165.059, 114.062 166.924, 112.250 167.659 C 111.563 167.938, 111 168.622, 111 169.179 C 111 169.736, 109.987 171.609, 108.750 173.341 C 107.513 175.074, 105.673 178.027, 104.663 179.904 C 103.653 181.781, 102.303 183.893, 101.663 184.598 C 101.023 185.304, 99.461 187.370, 98.191 189.190 C 92.750 196.991, 87.694 203.544, 82.660 209.322 C 76.641 216.231, 75 218.925, 75 221.899 C 75 224.384, 78.350 226.341, 81.107 225.466 C 84.047 224.533, 100.088 208.435, 104.380 202.110 C 107.599 197.367, 108.486 196.690, 111.769 196.464 C 141.046 194.450, 156.749 192.610, 175.748 188.966 C 187.596 186.693, 190.977 186.568, 197.829 188.150 C 202.247 189.170, 202.880 189.649, 203.429 192.394 C 204.478 197.638, 202.843 221.035, 200.802 230 C 199.738 234.675, 198.474 240.341, 197.994 242.590 C 196.580 249.211, 189.949 263.486, 185.593 269.287 C 177.562 279.980, 177.024 280.225, 167.982 277.305 C 162.755 275.617, 162.726 275.620, 160.867 277.916 C 159.840 279.184, 159 281.049, 159 282.060 C 159 285.670, 170.592 292, 177.205 292 C 181.804 292, 188.422 288.446, 191.613 284.263 C 207.561 263.354, 214.579 242.834, 217.097 209.754 C 218.753 187.998, 216.118 180.588, 205.352 176.729 C 198.458 174.258, 182.067 174.403, 169.347 177.047 C 163.931 178.173, 155.139 179.502, 149.808 180 C 144.477 180.498, 135.927 182.009, 130.808 183.358 C 125.689 184.707, 120.109 186.053, 118.409 186.349 L 115.319 186.886 119.659 178.238 C 122.047 173.481, 124 168.802, 124 167.840 C 124 165.534, 126.451 165.207, 148.500 164.570 C 158.400 164.284, 168.498 163.633, 170.941 163.124 C 175.478 162.179, 178.432 159.568, 177.553 157.279 C 177.267 156.533, 177.811 156, 178.857 156 C 181.773 156, 184.662 151.992, 187.508 144 C 194.600 124.080, 197.648 103.973, 194.597 97.223 C 191.052 89.381, 181.719 86.434, 170.219 89.527 C 161.166 91.962, 151.367 96.438, 150.194 98.674 C 148.676 101.569, 150.488 105, 153.534 105 C 154.962 105, 156.932 104.572, 157.910 104.048 C 158.889 103.524, 164.759 102.565, 170.954 101.916 C 183.946 100.556, 184.433 100.789, 183.447 107.880 C 182.516 114.579, 181.093 117.120, 178.924 115.959 C 175.903 114.343, 168.910 114.922, 160.047 117.522 C 149.608 120.585, 143.746 124.201, 144.188 127.305 C 144.479 129.352, 145.108 129.521, 153.500 129.813 C 161.327 130.085, 165.651 129.634, 176.880 127.375 C 178.800 126.989, 179.162 127.245, 178.754 128.698 C 178.004 131.372, 174.818 143.974, 173.867 148.034 L 173.039 151.567 147.954 151.857 C 124.578 152.127, 118.010 152.775, 111.893 155.411 C 110.586 155.975, 110.165 155.209, 109.634 151.302 C 109.275 148.661, 108.265 144.333, 107.389 141.685 C 106.513 139.037, 106.023 136.644, 106.300 136.367 C 106.577 136.089, 110.855 135.483, 115.805 135.018 C 125.095 134.147, 127.893 133.214, 131.750 129.701 C 137.506 124.458, 130.785 116.823, 124.559 121.532 C 123.165 122.586, 119.910 123, 113.009 123 C 107.676 123, 102.936 123.464, 102.358 124.042 C 101.634 124.766, 100.917 124.605, 100.015 123.518 C 99.300 122.657, 98.892 121.842, 99.107 121.707 C 108.222 116.030, 120 107.265, 125 102.440 C 128.575 98.990, 133.188 95.477, 135.250 94.634 C 139.861 92.750, 140.240 89.628, 136.411 85.077 C 133.266 81.338, 129.856 81.139, 125.214 84.422 M 162.564 237.579 C 160.671 239.472, 160.526 243.369, 162.283 245.179 C 162.989 245.905, 164.540 247.887, 165.731 249.581 C 169.155 254.455, 179.628 261, 184.001 261 C 188.072 261, 191 258.626, 191 255.326 C 191 253.215, 188.129 250, 186.243 250 C 185.638 250, 184.537 249.438, 183.797 248.750 C 183.056 248.063, 180.437 245.942, 177.975 244.037 C 175.514 242.132, 173.350 240.220, 173.167 239.787 C 172.983 239.354, 172.173 239, 171.367 239 C 170.561 239, 168.602 238.328, 167.014 237.507 C 164.436 236.174, 163.961 236.182, 162.564 237.579 M 105.591 243.168 C 103.141 245.275, 102.854 246.058, 103.482 248.916 C 104.900 255.375, 117.402 265.959, 121.918 264.526 C 124.636 263.663, 125.483 260.369, 123.673 257.701 C 122.851 256.490, 119.085 252.176, 115.304 248.114 L 108.428 240.728 105.591 243.168 M 135.352 244.807 C 134.463 246.232, 134.708 247.761, 136.509 252.021 C 139.452 258.984, 144.061 263.225, 148.229 262.807 C 151.564 262.473, 153.708 260.092, 152.659 257.886 C 150.983 254.361, 145.027 247.283, 142.026 245.250 C 138.007 242.528, 136.825 242.449, 135.352 244.807 M 77.217 250.250 C 74.284 253.819, 76.028 259.741, 81.821 265.889 C 86.839 271.214, 91.044 273.038, 93.536 270.970 C 95.227 269.566, 94.576 265.990, 92.397 264.716 C 91.659 264.285, 89.429 261.155, 87.440 257.762 C 82.609 249.520, 79.622 247.325, 77.217 250.250" stroke="none" fill="black" fill-rule="evenodd"/>
</svg>