<svg xmlns="http://www.w3.org/2000/svg" width="300" height="300" viewBox="0 0 300 300" version="1.1">
	<path d="M 132.229 9.518 C 129.020 13.160, 130.121 20.366, 134.434 23.945 C 135.295 24.660, 136 26.215, 136 27.400 C 136 30.861, 138.790 34, 141.866 34 C 148.829 34, 150.865 27.197, 146.372 18.943 C 141.056 9.174, 135.686 5.596, 132.229 9.518 M 236.826 39.508 C 236.534 39.799, 219.692 40.466, 199.398 40.991 C 143.776 42.428, 73.649 49.193, 66 53.858 C 64.075 55.032, 62.272 55.994, 61.994 55.996 C 61.716 55.998, 60.889 54.645, 60.156 52.990 C 58.182 48.532, 51.515 42, 48.939 42 C 43.432 42, 42.509 49.257, 47.095 56.488 C 48.797 59.172, 50.608 62.298, 51.119 63.434 C 53.767 69.316, 58.703 77.435, 60.197 78.366 C 61.341 79.078, 62.809 79.103, 64.697 78.444 C 66.899 77.674, 67.569 76.746, 67.822 74.113 C 67.999 72.271, 67.601 69.452, 66.938 67.849 C 66.274 66.247, 65.941 64.726, 66.197 64.470 C 67.029 63.637, 96.130 60.066, 110.500 59.033 C 118.200 58.479, 133.500 57.312, 144.500 56.439 C 163.545 54.927, 237.033 52.921, 239.824 53.837 C 241.410 54.357, 240.570 58.694, 238.422 61.079 C 237.640 61.947, 237 63.100, 237 63.642 C 237 64.183, 235.650 65.919, 234 67.500 C 230.801 70.565, 229.933 75.533, 232.200 77.800 C 234.578 80.178, 239.704 79.204, 242.991 75.750 C 251.443 66.868, 256.777 55.816, 255.475 49.887 C 254.550 45.676, 249.383 41.229, 244.542 40.480 C 242.319 40.136, 239.792 39.657, 238.928 39.416 C 238.063 39.175, 237.117 39.216, 236.826 39.508 M 213.500 74.975 C 210.979 75.555, 203.961 79.769, 193.474 87 C 192.277 87.825, 189.994 89.394, 188.399 90.487 C 186.805 91.580, 185.005 92.943, 184.400 93.516 C 183.795 94.088, 180.723 96.119, 177.573 98.028 C 174.423 99.938, 170.212 102.562, 168.215 103.861 C 166.218 105.159, 163.538 106.337, 162.259 106.477 C 159.220 106.811, 159.333 106.644, 157.501 113.542 C 155.728 120.219, 155.969 124.528, 159.175 143.500 C 161.418 156.775, 161.237 168.104, 158.479 187.164 C 157.657 192.849, 156.738 199.525, 156.438 202 C 155.332 211.121, 154.878 213.043, 153.963 212.477 C 153.041 211.907, 143.997 193.468, 144.003 192.169 C 144.004 191.801, 142.929 188.800, 141.612 185.500 C 134.601 167.926, 123.951 133.753, 124.003 129 C 124.023 127.235, 120.389 111.231, 118.684 105.573 C 118.033 103.413, 116.948 101.467, 116.273 101.247 C 114.073 100.532, 110.361 105.808, 109.101 111.440 C 108.023 116.257, 108.131 118.233, 109.964 127.223 C 112.676 140.530, 115.004 149.020, 121.141 168 C 126.610 184.910, 132.491 200.369, 134.636 203.473 C 135.386 204.557, 136 205.987, 136 206.649 C 136 208.189, 145.513 223.784, 148.259 226.746 C 149.964 228.585, 150.145 229.402, 149.260 231.246 C 148.666 232.486, 146.487 237.100, 144.419 241.500 C 142.351 245.900, 139.870 250.400, 138.904 251.500 C 135.929 254.889, 135.544 258.544, 137.913 260.913 C 140.769 263.769, 144.392 263.530, 147.961 260.250 C 150.766 257.672, 163.921 232.853, 164.066 229.866 C 164.103 229.115, 164.945 226.025, 165.937 223 L 167.743 217.500 169.311 221.228 C 171.415 226.230, 176.318 229.250, 181.338 228.636 C 186.280 228.032, 194.642 222.450, 203.308 213.972 C 210.139 207.287, 210.167 207.273, 211.276 209.707 C 213.304 214.157, 220.735 216.480, 224.208 213.750 C 226.916 211.621, 227.205 208.597, 224.934 206.159 C 220.566 201.471, 218.692 195.121, 218.527 184.455 C 218.441 178.930, 218.036 173.867, 217.627 173.205 C 215.609 169.941, 209.089 174.138, 206.486 180.375 C 205.482 182.780, 204.959 186.470, 205.107 190.100 C 205.324 195.409, 205.077 196.206, 202.436 198.725 C 199.157 201.851, 182.705 213.038, 182.171 212.505 C 181.649 211.983, 183.763 201.618, 186.455 191.500 C 192.852 167.457, 197.726 146.884, 198.941 138.796 C 199.462 135.333, 200.580 129.350, 201.427 125.500 C 204.433 111.824, 202.844 105, 196.655 105 C 193.187 105, 191.423 107.731, 190.196 115 C 187.415 131.480, 182.383 154.620, 178.779 167.500 C 177.702 171.350, 176.398 176.525, 175.882 179 C 175.365 181.475, 174.051 185.975, 172.961 189 C 171.227 193.814, 171.051 194.021, 171.552 190.658 C 174.209 172.844, 173.670 151.758, 169.991 129.500 C 167.509 114.479, 167.474 115.168, 170.750 114.358 C 176.556 112.923, 191.783 105.108, 198 100.372 C 204.197 95.651, 215.236 88.457, 221.899 84.797 C 225.243 82.959, 226.011 79.650, 223.750 76.815 C 222.217 74.892, 217.521 74.049, 213.500 74.975 M 122.843 75.922 C 121.381 76.392, 118.906 77.488, 117.343 78.357 C 115.779 79.226, 112.925 80.607, 111 81.426 C 109.075 82.244, 103.827 84.896, 99.339 87.317 C 94.850 89.739, 90.350 91.995, 89.339 92.331 C 88.327 92.667, 86.825 93.376, 86 93.907 C 85.175 94.438, 81.051 96.449, 76.836 98.377 C 68.329 102.268, 66.531 104.719, 69.652 108.168 C 71.195 109.873, 72.243 110.093, 76.282 109.557 C 83.209 108.638, 94.726 104.153, 110.680 96.160 C 118.358 92.314, 127.871 88.185, 131.820 86.986 C 138.455 84.971, 139 84.597, 139 82.058 C 139 80.546, 138.105 78.500, 137.010 77.509 C 134.760 75.473, 126.953 74.599, 122.843 75.922 M 213.543 97.366 C 208.976 101.933, 208.991 118.766, 213.577 134.390 C 214.887 138.850, 215.967 143.256, 215.979 144.181 C 216.018 147.307, 225.730 176.358, 229.458 184.500 C 230.213 186.150, 233.420 193.350, 236.584 200.500 C 257.695 248.208, 276.314 280, 283.143 280 C 290.329 280, 290.969 274.152, 284.668 266.062 C 282.286 263.003, 279.641 259.150, 278.791 257.500 C 275.365 250.851, 269.113 238.182, 266.700 233 C 265.292 229.975, 262.083 223.100, 259.570 217.722 C 257.056 212.344, 255 207.733, 255 207.475 C 255 207.217, 253.597 203.967, 251.882 200.253 C 244.722 184.746, 244 183.072, 244 181.966 C 244 181.330, 243.337 179.614, 242.527 178.154 C 238.092 170.161, 230.668 147.570, 226.539 129.500 C 225.030 122.900, 223.124 114.599, 222.302 111.052 C 221.473 107.477, 221.076 102.928, 221.409 100.841 C 221.901 97.766, 221.656 96.886, 220.071 96.038 C 217.233 94.519, 216.175 94.734, 213.543 97.366 M 99.286 105.285 C 96.463 106.545, 93.578 115.280, 91.948 127.500 C 90.251 140.226, 85.105 160.225, 78.826 178.500 C 77.692 181.800, 76.412 186.075, 75.982 188 C 75.551 189.925, 73.314 198.700, 71.010 207.500 C 67.600 220.529, 66.891 224.749, 67.192 230.227 C 67.526 236.291, 67.899 237.301, 70.978 240.477 C 73.902 243.494, 75.046 243.999, 78.946 243.996 C 83.995 243.992, 87.648 242.150, 93.006 236.907 C 99.806 230.252, 102.184 227.049, 106.894 218.209 L 108.114 215.918 111.134 218.459 C 114.593 221.370, 117.590 221.676, 120.777 219.443 C 123.616 217.455, 123.611 214.279, 120.764 211.249 C 118.714 209.067, 118.533 207.928, 118.577 197.510 C 118.622 186.964, 118.478 186.087, 116.563 185.265 C 112.979 183.727, 111.160 184.967, 108.423 190.815 C 103.344 201.668, 101.489 205.055, 99.359 207.360 C 98.182 208.635, 96.505 211.057, 95.633 212.743 C 93.583 216.707, 82.273 228.606, 81.392 227.725 C 81.021 227.354, 81.506 222.877, 82.470 217.775 C 84.119 209.042, 85.858 202.272, 91.657 182 C 97.822 160.451, 99.046 155.948, 100.932 147.895 C 102.039 143.162, 103.388 135.512, 103.928 130.895 C 104.469 126.278, 105.213 120.397, 105.581 117.826 C 106.903 108.605, 104.147 103.115, 99.286 105.285 M 59.352 109.007 C 58.171 109.476, 56.829 110.454, 56.371 111.180 C 55.912 111.906, 55.227 131.625, 54.847 155 C 54.285 189.646, 53.788 199.995, 52.161 211 C 49.754 227.287, 45.761 244.031, 42.557 251.274 C 39.049 259.208, 41.047 265.070, 46.550 262.988 C 50.644 261.439, 57.337 250.228, 59.081 242 C 59.488 240.075, 60.705 235.350, 61.783 231.500 C 64.121 223.158, 65.705 213.267, 66.988 199 C 68.219 185.313, 68.281 118.826, 67.065 115.815 C 66.551 114.542, 65.088 112.297, 63.815 110.827 C 61.985 108.714, 61.050 108.333, 59.352 109.007" stroke="none" fill="black" fill-rule="evenodd"/>
</svg>