<svg xmlns="http://www.w3.org/2000/svg" width="300" height="300" viewBox="0 0 300 300" version="1.1">
	<path d="M 82.905 27.285 C 79.164 29.806, 78.507 31.560, 79.440 36.533 C 80.667 43.070, 91.364 46.694, 114.757 48.499 C 119.848 48.892, 124.262 49.615, 124.566 50.107 C 124.870 50.598, 126.258 51, 127.652 51 C 131.260 51, 150.361 54.987, 150.982 55.869 C 151.267 56.275, 153.899 57.504, 156.832 58.600 L 162.164 60.594 157.332 64.853 C 154.674 67.196, 151.584 69.987, 150.465 71.056 C 149.345 72.125, 148.161 73, 147.832 73 C 146.918 73, 139 81.123, 139 82.061 C 139 82.515, 138.192 83.475, 137.204 84.193 C 135.160 85.680, 131 94.855, 131 97.876 C 131 98.979, 130.550 100.160, 130 100.500 C 129.450 100.840, 129 104.665, 129 109 C 129 113.335, 129.450 117.160, 130 117.500 C 130.550 117.840, 131 119.030, 131 120.145 C 131 122.550, 135.125 137.279, 136 138 C 136.334 138.275, 137.639 142.100, 138.901 146.500 C 140.162 150.900, 141.531 154.725, 141.943 155 C 142.355 155.275, 142.981 156.682, 143.334 158.127 C 143.905 160.462, 143.630 160.824, 140.863 161.377 C 139.151 161.720, 119.436 162, 97.051 162 C 64.219 162, 54.544 162.311, 46.998 163.607 C 41.853 164.491, 37.016 165.841, 36.250 166.607 C 35.484 167.373, 34.038 168, 33.037 168 C 30.919 168, 29.659 171.795, 30.571 175.427 C 31.039 177.291, 32.030 177.983, 34.840 178.409 C 43.514 179.722, 95.797 181.193, 121.994 180.861 L 150.489 180.500 151.936 188.500 C 152.732 192.900, 153.859 196.821, 154.442 197.213 C 155.946 198.227, 155.881 236.211, 154.371 238.093 C 153.750 238.867, 152.476 242.200, 151.540 245.500 C 150.543 249.016, 148.837 252.376, 147.419 253.616 C 146.089 254.780, 145 256.159, 145 256.679 C 145 257.200, 143.738 258.835, 142.195 260.313 C 140.062 262.356, 138.386 263, 135.195 263 C 132.888 263, 131 262.550, 131 262 C 131 261.450, 130.393 261, 129.650 261 C 128.908 261, 126.320 259.562, 123.900 257.805 C 115.920 252.011, 108.405 254.726, 108.746 263.280 C 108.926 267.795, 112.070 271.347, 120.803 276.903 C 128.572 281.845, 142.556 282.984, 149.547 279.242 C 152.527 277.648, 161.636 267.722, 162.437 265.197 C 162.821 263.989, 163.533 263, 164.021 263 C 164.994 263, 169 254.518, 169 252.456 C 169 251.747, 169.417 251.017, 169.927 250.833 C 170.436 250.650, 171.617 246.711, 172.552 242.079 C 175.297 228.470, 173.925 200.208, 170 189.500 C 169.596 188.400, 168.831 185.633, 168.299 183.352 L 167.332 179.204 174.416 178.617 C 178.312 178.294, 187.249 177.736, 194.276 177.378 C 201.302 177.019, 207.291 176.338, 207.585 175.863 C 207.878 175.388, 209.554 174.998, 211.309 174.995 C 216.296 174.988, 240.633 171.226, 242.671 170.147 C 243.677 169.615, 249.225 168.190, 255 166.981 C 260.775 165.772, 265.950 164.439, 266.500 164.019 C 267.050 163.599, 271.008 162.226, 275.295 160.969 C 283.958 158.427, 288.633 154.479, 287.587 150.586 C 287.279 149.439, 287.021 148.035, 287.014 147.466 C 286.984 145.227, 281.135 142.885, 277.264 143.563 C 272.720 144.360, 264.091 146.835, 261.948 147.957 C 261.094 148.404, 253.219 149.770, 244.448 150.991 C 235.676 152.213, 227.600 153.606, 226.500 154.086 C 224.106 155.133, 195.543 157.749, 176.581 158.659 C 169.111 159.017, 163 159.690, 163 160.155 C 163 160.620, 162.635 161, 162.189 161 C 161.743 161, 160.779 158.637, 160.046 155.750 C 159.314 152.863, 158.427 150.275, 158.075 150 C 157.723 149.725, 156.339 145.900, 155 141.500 C 153.661 137.100, 152.280 133.275, 151.932 133 C 151.259 132.469, 150.784 130.660, 148.384 119.500 C 146.184 109.270, 147.643 100.657, 152.500 95.205 C 157.931 89.109, 161.851 85.322, 164.539 83.576 C 169.679 80.236, 179.794 69.957, 180.429 67.428 C 180.764 66.093, 181.480 65, 182.019 65 C 182.559 65, 183 62.750, 183 60 C 183 57.250, 182.652 55, 182.227 55 C 181.802 55, 180.607 53.425, 179.570 51.500 C 178.533 49.575, 177.193 47.992, 176.593 47.983 C 175.992 47.973, 174.520 46.931, 173.322 45.667 C 172.124 44.402, 169.199 42.741, 166.822 41.976 C 164.445 41.210, 162.243 40.219, 161.929 39.773 C 161.200 38.737, 148.207 35, 145.337 35 C 144.143 35, 143.017 34.641, 142.833 34.202 C 142.650 33.763, 133.508 32.382, 122.517 31.133 C 111.526 29.885, 102.301 28.494, 102.017 28.043 C 101.628 27.426, 89.421 25, 86.706 25 C 86.481 25, 84.770 26.028, 82.905 27.285" stroke="none" fill="black" fill-rule="evenodd"/>
</svg>