<svg xmlns="http://www.w3.org/2000/svg" width="300" height="300" viewBox="0 0 300 300" version="1.1">
	<path d="M 129.566 24.328 C 125.511 27.293, 129.075 36.128, 137.437 43.835 C 142.445 48.451, 145.603 50, 150.008 50 C 152.871 50, 156 47.014, 156 44.282 C 156 42.304, 138.932 25.870, 135.302 24.353 C 131.373 22.711, 131.775 22.713, 129.566 24.328 M 188.500 45.424 C 175.663 47.871, 156.640 50.862, 143.500 52.499 C 128.211 54.404, 118.104 56.977, 97 64.336 C 80.656 70.036, 80.140 70.230, 70.205 74.413 C 66.743 75.870, 63.501 76.810, 63.001 76.501 C 62.501 76.191, 60.874 73.702, 59.387 70.969 C 55.076 63.050, 50.230 64.853, 51.311 73.974 C 52.102 80.658, 56.285 88.842, 62.992 96.828 C 69.389 104.444, 74.149 108, 77.948 108 C 83.525 108, 84.529 103.683, 80.250 98.101 C 78.737 96.127, 76.594 93.177, 75.486 91.544 L 73.472 88.576 81.486 85.681 C 104.139 77.497, 120.667 72.139, 129.584 70.088 C 135.038 68.834, 140.400 67.426, 141.500 66.960 C 142.600 66.494, 148.755 65.632, 155.179 65.044 C 161.602 64.456, 172.261 62.856, 178.865 61.488 C 191.674 58.834, 204.293 58.265, 208.439 60.154 C 214.204 62.781, 216.192 70.800, 213.592 80.946 C 211.955 87.338, 208.107 95.390, 205.107 98.707 C 200.271 104.051, 198.704 109.304, 201.200 111.800 C 201.860 112.460, 204.014 113, 205.988 113 C 208.960 113, 210.357 112.186, 214.139 108.250 C 220.802 101.314, 223.323 97.444, 227.006 88.500 C 229.819 81.668, 230.307 79.259, 230.349 72 C 230.392 64.686, 230.021 62.754, 227.693 58.155 C 226.205 55.215, 223.978 51.963, 222.744 50.928 C 216.225 45.461, 201.079 43.026, 188.500 45.424 M 168 101.938 C 163.325 102.926, 152.750 105.548, 144.500 107.763 C 127.748 112.261, 118.834 114.318, 108.500 116.071 C 95.140 118.337, 86.972 124.342, 89.874 129.765 C 91.386 132.589, 99.323 133.266, 109.335 131.424 C 138.126 126.128, 159.135 120.848, 168.500 116.554 C 170.150 115.797, 174.765 114.194, 178.756 112.990 C 184.603 111.227, 186.125 110.349, 186.596 108.473 C 187.446 105.085, 186.314 102.464, 183.434 101.152 C 180.175 99.667, 178.287 99.763, 168 101.938 M 131.960 131.750 C 129.090 134.319, 128.824 135.158, 127.917 144.500 C 127.383 150, 126.388 158.325, 125.706 163 L 124.467 171.500 116.484 172.182 C 112.093 172.558, 100.850 174.488, 91.500 176.472 C 82.150 178.455, 71.125 180.538, 67 181.099 C 57.354 182.412, 54 183.850, 54 186.673 C 54 189.669, 56.362 191.772, 60.782 192.711 C 67.602 194.159, 85.082 193.389, 96.500 191.137 C 102.550 189.945, 110.787 188.683, 114.805 188.333 L 122.109 187.697 121.305 193.099 C 120.862 196.069, 120.553 205.925, 120.618 215 C 120.735 231.214, 120.801 231.691, 124.422 242.500 C 129.039 256.278, 131.088 259.759, 139.775 268.572 C 146.692 275.591, 156.927 281.946, 167.084 285.530 C 175.181 288.387, 190.941 290.278, 201.500 289.661 C 218.977 288.639, 250.991 279.370, 255.104 274.140 C 257.424 271.191, 257.102 266.875, 254.333 263.816 C 252.180 261.436, 250.255 261.532, 239.500 264.553 C 215.679 271.246, 196.720 273.825, 184.450 272.042 C 168.600 269.739, 159.412 265.553, 150.298 256.484 C 139.296 245.535, 135.609 234.036, 135.557 210.500 C 135.539 202.250, 135.883 193.363, 136.323 190.750 C 137.080 186.251, 137.291 185.999, 140.311 185.977 C 150.156 185.904, 187.508 176.308, 197.363 171.319 C 207.190 166.344, 219 154.470, 219 149.565 C 219 146.616, 216.026 144, 212.674 144 C 210.482 144, 204.637 148.032, 201 152.053 C 199.770 153.413, 193.037 157.024, 188.145 158.948 C 181.235 161.665, 167.059 165.426, 154.101 167.980 C 141.210 170.521, 139.053 170.561, 139.607 168.250 C 141.083 162.091, 143.607 136.156, 142.911 134.298 C 142.221 132.457, 137.428 129, 135.565 129 C 135.272 129, 133.649 130.238, 131.960 131.750" stroke="none" fill="black" fill-rule="evenodd"/>
</svg>