<svg xmlns="http://www.w3.org/2000/svg" width="300" height="300" viewBox="0 0 300 300" version="1.1">
	<path d="M 139.557 54.223 C 136.625 58.408, 138.001 62.473, 146 73.261 C 149.745 78.312, 153.109 79.984, 155.513 77.989 C 157.823 76.072, 157.303 72.691, 153.422 64.402 C 148.061 52.951, 143.033 49.260, 139.557 54.223 M 205 72.674 C 202.525 72.853, 196.450 73.643, 191.500 74.431 C 186.550 75.218, 178.900 76.375, 174.500 77.002 C 170.100 77.628, 162.450 78.811, 157.500 79.630 C 152.550 80.449, 144.450 81.783, 139.500 82.594 C 127.292 84.593, 112.658 87.365, 97.889 90.473 C 89.786 92.178, 85.505 95.169, 86.169 98.661 C 86.645 101.162, 95.157 101.626, 103.948 99.632 C 107.552 98.814, 113.425 97.622, 117 96.984 C 120.575 96.345, 126.650 95.224, 130.500 94.492 C 140.477 92.595, 155.111 90.256, 165 88.978 C 169.675 88.373, 175.750 87.458, 178.500 86.945 C 188.015 85.168, 207.156 82.954, 214.122 82.826 C 226.279 82.601, 229.603 87.635, 224.565 98.640 C 221.360 105.640, 221.261 108.791, 224.213 109.883 C 227.433 111.074, 229.266 110.292, 231.688 106.694 C 240.616 93.431, 241.055 83.431, 233.006 76.658 C 227.854 72.323, 221.800 71.462, 205 72.674 M 69.034 89.459 C 66.717 92.251, 70.668 102.788, 77.604 112.311 C 80.499 116.285, 81.577 117.068, 83.804 116.811 C 87.993 116.328, 87.764 112.570, 82.923 102.349 C 76.906 89.644, 72.372 85.437, 69.034 89.459 M 168.206 91.466 C 167.015 92.979, 166.006 96.358, 165.593 100.216 C 164.286 112.415, 164.104 112.901, 160.643 113.431 C 158.915 113.696, 153.338 114.191, 148.250 114.531 L 139 115.150 139 111.525 C 139 107.565, 136.783 102.436, 134.771 101.742 C 132.605 100.994, 129.009 103.215, 128.830 105.411 C 128.737 106.560, 128.774 109.412, 128.913 111.750 L 129.165 116 121.333 116.009 C 106.132 116.026, 81 119.857, 81 122.158 C 81 122.621, 80.325 123, 79.500 123 C 78.514 123, 78 123.987, 78 125.880 L 78 128.760 89.250 128.357 C 101.960 127.903, 124.604 126.120, 127.250 125.365 C 128.806 124.920, 129 125.702, 129 132.433 L 129 140 123.750 140.001 C 120.862 140.002, 114.675 140.682, 110 141.512 C 105.325 142.342, 99.674 142.753, 97.443 142.426 C 94.429 141.984, 93.050 142.235, 92.081 143.403 C 89.886 146.048, 91.452 147.454, 99.132 149.732 C 105.487 151.618, 107.462 151.791, 113.500 150.992 C 117.350 150.482, 122.580 150.051, 125.121 150.033 L 129.742 150 130.406 154.999 C 130.894 158.678, 131.683 160.401, 133.393 161.522 C 137.389 164.140, 139 162.553, 139 156 C 139 149.083, 139.132 149, 150.170 149 L 158.176 149 157.534 152.797 C 157.011 155.893, 157.282 156.945, 159.005 158.505 C 161.834 161.065, 163.802 159.788, 167 153.317 L 169.500 148.258 177.806 147.619 C 186.759 146.930, 191.205 145.476, 194.750 142.079 C 197.180 139.749, 197.488 138.320, 196.049 136.045 C 195.281 134.831, 194.326 134.780, 190.314 135.735 C 187.666 136.365, 182.398 137.175, 178.607 137.535 C 172.164 138.147, 171.764 138.069, 172.496 136.345 C 172.926 135.330, 173.491 131.967, 173.750 128.871 L 174.223 123.241 178.751 122.621 C 181.241 122.279, 185.804 121.966, 188.890 121.924 C 195.604 121.833, 200.855 120.104, 202.656 117.392 C 203.768 115.717, 203.719 115.044, 202.343 113.079 C 200.800 110.876, 200.302 110.786, 193.106 111.407 C 188.923 111.768, 183.434 112.323, 180.909 112.639 L 176.319 113.215 176.790 102.618 C 177.301 91.133, 176.621 89, 172.450 89 C 171.182 89, 169.272 90.110, 168.206 91.466 M 147.750 124.745 L 139 125.078 139 132.684 L 139 140.289 145.750 139.652 C 149.463 139.301, 154.172 139.011, 156.215 139.007 C 160.680 138.999, 161.686 137.520, 162.617 129.605 L 163.275 124 159.888 124.206 C 158.024 124.319, 152.563 124.561, 147.750 124.745 M 186 162.063 C 172.029 163.327, 157.765 164.987, 153.419 165.855 C 151.175 166.303, 148.305 166.287, 147.041 165.819 C 145.656 165.307, 144.260 165.369, 143.530 165.975 C 142.012 167.235, 129.741 169.444, 116 170.931 C 99.624 172.702, 86.498 174.976, 80.522 177.077 C 77.513 178.134, 73.940 179, 72.584 179 C 69.677 179, 68.642 180.296, 69.469 182.901 C 70.346 185.664, 72.733 185.921, 84.185 184.485 C 89.858 183.774, 98.325 182.711, 103 182.124 C 118.227 180.210, 126.495 179.294, 126.760 179.492 C 127.713 180.205, 102.628 203.399, 91.061 212.500 C 78.366 222.489, 72.418 229.544, 73.398 233.449 C 74.485 237.782, 77.547 237.598, 83.636 232.833 C 90.235 227.670, 103.149 217.681, 108.598 213.524 C 115.845 207.996, 136.476 187.691, 139.754 182.861 C 143.457 177.406, 145.552 176, 149.979 176 C 151.690 176, 157.458 175.345, 162.795 174.544 C 168.133 173.744, 176.550 172.566, 181.500 171.928 C 192.634 170.492, 197.006 169.448, 199.491 167.630 C 201.152 166.416, 201.255 165.855, 200.232 163.610 C 199.416 161.819, 198.330 161.046, 196.771 161.147 C 195.522 161.228, 190.675 161.641, 186 162.063 M 174.160 176.240 C 171.634 178.766, 173.036 182.001, 179.735 189.102 C 183.440 193.029, 189.852 198.768, 193.985 201.855 C 198.118 204.942, 204.303 209.824, 207.729 212.705 C 211.155 215.585, 217.234 220.111, 221.237 222.762 C 225.240 225.413, 229.923 228.623, 231.644 229.895 C 234.997 232.374, 238.346 232.148, 239.411 229.371 C 240.480 226.586, 236.940 221.195, 231.161 216.808 C 223.372 210.894, 214.345 203.451, 210.073 199.421 C 208.109 197.568, 202.067 193.228, 196.648 189.776 C 191.228 186.324, 184.702 181.900, 182.147 179.946 C 175.754 175.056, 175.474 174.926, 174.160 176.240 M 147.856 231.669 C 146.953 231.909, 145.985 233.297, 145.707 234.753 C 145.308 236.839, 145.915 238.048, 148.567 240.450 C 156.062 247.240, 158.927 249.495, 159.938 249.400 C 160.522 249.345, 161.666 249.233, 162.481 249.150 C 164.500 248.946, 165.336 245.015, 164.070 241.685 C 163.498 240.180, 161.150 237.160, 158.852 234.974 C 154.810 231.129, 152.500 230.435, 147.856 231.669 M 144.404 270.506 C 143.039 272.589, 142.965 273.500, 143.962 275.907 C 145.630 279.936, 148.104 281.931, 158.871 287.933 C 165.656 291.715, 168.894 292.992, 170.606 292.563 C 173.060 291.947, 174.763 288.044, 173.483 285.972 C 172.713 284.727, 155.114 271.262, 151.645 269.265 C 148.371 267.379, 146.210 267.750, 144.404 270.506" stroke="none" fill="black" fill-rule="evenodd"/>
</svg>