<svg xmlns="http://www.w3.org/2000/svg" width="300" height="300" viewBox="0 0 300 300" version="1.1">
	<path d="M 159.655 35.829 C 155.868 40.013, 158.503 45.196, 165.382 47.095 C 167.421 47.658, 169 48.728, 169 49.547 C 169 51.222, 172.496 55, 174.045 55 C 174.620 55, 176.195 53.895, 177.545 52.545 C 180.422 49.669, 180.770 45.112, 178.417 41.129 C 174.818 35.036, 163.314 31.786, 159.655 35.829 M 215 54.540 C 214.175 54.710, 208.325 55.588, 202 56.492 C 195.675 57.396, 185.325 59.005, 178.999 60.068 C 172.674 61.130, 166.211 62, 164.636 62 C 160.426 62, 145.202 65.856, 141.072 67.968 C 139.107 68.973, 135.426 71.623, 132.891 73.858 L 128.283 77.921 124.916 73.211 C 119.041 64.991, 115.831 63.319, 112.655 66.829 C 109.259 70.581, 111.471 76.583, 122.392 93.250 C 128.504 102.576, 130.908 103.969, 134.345 100.171 C 136.645 97.630, 136.411 93.151, 133.698 87.793 L 131.397 83.246 135.448 82.240 C 137.677 81.686, 143.775 80.116, 149 78.751 C 165.481 74.443, 204.854 68.600, 224.750 67.509 C 230.938 67.170, 236 67.086, 236 67.322 C 236 68.765, 230.952 78.795, 229.704 79.831 C 228.055 81.199, 226.539 85.626, 226.906 88 C 227.214 89.991, 229.919 92, 232.290 92 C 237.571 92, 250.905 70.790, 250.969 62.289 C 250.992 59.218, 250.408 57.526, 248.811 56.039 C 246.797 54.162, 245.426 54.009, 231.561 54.116 C 223.278 54.180, 215.825 54.371, 215 54.540 M 59.823 68.668 C 58.156 72.435, 57.878 74.508, 58.378 79.418 C 59.044 85.952, 57.796 105.666, 55.921 118.211 C 54.778 125.857, 54.738 125.931, 51.134 127.094 C 46.808 128.491, 24.499 139.341, 22.440 141.050 C 20.597 142.579, 20.593 145.417, 22.431 146.943 C 23.553 147.874, 26.377 147.567, 35.459 145.530 C 41.837 144.100, 48.197 142.495, 49.593 141.965 C 50.988 141.434, 52.273 141, 52.448 141 C 52.943 141, 50.065 154.884, 48.303 161 C 43.788 176.665, 45.834 185.429, 56.465 195.965 C 59.966 199.436, 62.697 202.776, 62.533 203.388 C 59.720 213.857, 54.411 228.811, 51.096 235.606 C 49.148 239.599, 42.909 246, 40.965 246 C 39.890 246, 39.668 249.972, 40.607 252.418 C 41.572 254.932, 47.925 254.415, 52.258 251.471 C 55.983 248.940, 64 239.053, 64 236.991 C 64 236.389, 64.870 234.232, 65.934 232.198 C 68.566 227.166, 71.997 218.093, 72.015 216.117 C 72.024 215.227, 72.436 213.860, 72.931 213.078 C 73.638 211.961, 75.377 213.087, 81.037 218.328 C 86.256 223.160, 88.995 225, 90.967 225 C 94.400 225, 97 222.191, 97 218.481 C 97 215.652, 93.814 212.123, 81.728 201.565 L 77.955 198.270 79.406 192.701 C 80.203 189.638, 81.547 184.740, 82.391 181.816 C 83.890 176.624, 85.539 169.308, 90.016 148 C 91.230 142.225, 93.072 134.505, 94.111 130.845 C 95.150 127.184, 96 123.481, 96 122.616 C 96 121.751, 99.121 118.986, 102.936 116.473 C 110.440 111.529, 111.367 109.968, 109.298 105.750 C 107.797 102.692, 105.497 102.263, 102.364 104.458 C 100.327 105.884, 100.270 105.764, 99.692 98.869 C 99.226 93.308, 98.637 91.420, 96.898 89.911 C 94.272 87.634, 94.228 87.629, 92.506 89.351 C 91.095 90.763, 86.638 104.780, 85.544 111.250 C 85.130 113.698, 84.371 115, 83.359 115 C 82.506 115, 80.614 115.639, 79.154 116.419 C 77.694 117.200, 74.525 118.571, 72.111 119.467 L 67.723 121.095 68.366 111.297 C 70.643 76.644, 70.459 69.988, 67.112 66.129 C 64.190 62.760, 62.116 63.483, 59.823 68.668 M 211.904 83.282 C 209.310 85.261, 207.001 90.623, 206.986 94.700 C 206.963 101.230, 206.095 103, 202.919 103 C 199.743 103, 198 105.300, 198 109.489 C 198 111.717, 197.141 112.490, 192.267 114.645 C 178.316 120.815, 168 119.215, 168 110.881 C 168 109.644, 167.060 106.689, 165.911 104.316 C 163.612 99.566, 161.171 98.791, 157.223 101.557 C 155.461 102.791, 155.001 104.087, 155.006 107.807 C 155.017 117.769, 159.191 124.984, 167.405 129.239 C 179.469 135.489, 209 125.763, 209 115.539 C 209 114.335, 210.169 112.258, 211.597 110.924 C 216.314 106.522, 218.375 101.197, 218.412 93.324 C 218.437 87.677, 218.045 85.707, 216.567 84.074 C 214.406 81.686, 214.070 81.629, 211.904 83.282 M 148.324 87.700 C 138.925 96.072, 127.099 125.288, 129.399 134.453 C 129.930 136.568, 130.624 137, 133.496 137 C 137.614 137, 138.574 135.752, 142.915 124.759 C 147.122 114.105, 153.731 100.284, 154.989 99.507 C 155.562 99.153, 156.715 97.224, 157.552 95.220 C 158.963 91.843, 158.937 91.391, 157.188 89.039 C 154.855 85.899, 151 85.317, 148.324 87.700 M 182 89.797 C 177.711 91.232, 173 97.378, 173 101.538 C 173 102.258, 174.165 104.231, 175.589 105.923 C 177.889 108.656, 178.778 109, 183.554 109 C 188.142 109, 189.449 108.545, 192.465 105.896 C 194.409 104.189, 196 102.018, 196 101.071 C 196 98.429, 191.654 94.812, 189.482 95.645 C 188.084 96.182, 187.795 95.976, 188.258 94.771 C 189.344 91.940, 185.270 88.702, 182 89.797 M 208.500 129.182 C 203.550 130.289, 191.084 133.905, 180.799 137.218 C 164.234 142.554, 161.512 143.742, 156.967 147.621 C 154.145 150.029, 151.553 152, 151.206 152 C 150.859 152, 149.595 150.771, 148.397 149.268 C 146.484 146.869, 145.876 146.658, 143.394 147.530 C 141.275 148.275, 140.350 149.451, 139.692 152.233 C 138.939 155.419, 139.262 156.827, 141.983 162.221 C 143.725 165.674, 145.491 170.588, 145.909 173.141 L 146.667 177.781 143.083 178.367 C 132.086 180.163, 127.577 181.520, 120 185.312 C 116.803 186.912, 116.072 191.433, 118.776 192.880 C 120.738 193.930, 125.025 193.475, 140.500 190.571 C 144.900 189.745, 150.075 189.062, 152 189.053 C 153.925 189.044, 161.350 188.151, 168.500 187.068 C 181.924 185.036, 209.995 181.485, 220.446 180.498 C 229.759 179.619, 241.093 177.017, 243.628 175.177 C 246.931 172.778, 246.919 166.648, 243.606 164.477 C 241.271 162.947, 236 163.289, 236 164.970 C 236 165.635, 226.348 168, 223.637 168 C 223.071 168, 224.007 166.537, 225.718 164.750 C 231.494 158.716, 237.828 148.127, 239.122 142.344 C 240.285 137.149, 240.214 136.467, 238.096 132.475 C 236.838 130.104, 234.855 127.927, 233.660 127.607 C 229.370 126.456, 217.315 127.211, 208.500 129.182 M 79 130.407 C 74.500 132.843, 67.303 136, 66.247 136 C 64.761 136, 64 138.531, 64 143.472 C 64 145.842, 62.875 152.111, 61.500 157.403 C 60.072 162.901, 59 169.822, 59 173.551 C 59 179.726, 59.204 180.297, 62.800 184.151 L 66.599 188.224 68.269 182.862 C 70.137 176.864, 72.502 167.279, 76.499 149.500 C 77.983 142.900, 79.801 135.588, 80.538 133.250 C 81.275 130.912, 81.793 129.012, 81.689 129.027 C 81.585 129.041, 80.375 129.662, 79 130.407 M 208.378 142.709 L 202.257 144.250 201.547 156.710 C 201.156 163.563, 201.071 169.404, 201.357 169.690 C 201.643 169.977, 204.646 169.889, 208.030 169.497 C 212.474 168.981, 213.880 168.480, 213.091 167.691 C 211.046 165.646, 212.048 162.506, 216.183 158 C 220.075 153.760, 224.969 145.008, 224.990 142.250 C 225.004 140.516, 216.114 140.761, 208.378 142.709 M 184.500 149.548 C 176.273 152.417, 176.794 151.923, 179.016 154.747 C 180.107 156.135, 181 158.338, 181 159.645 C 181 160.951, 181.900 162.790, 183 163.732 C 184.245 164.798, 185 166.682, 185 168.722 C 185 172.106, 186.614 173.169, 187.651 170.468 C 187.974 169.625, 188.298 164.225, 188.369 158.468 C 188.441 152.710, 188.500 148.035, 188.500 148.077 C 188.500 148.119, 186.700 148.781, 184.500 149.548 M 169 155.488 C 167.625 156.267, 163.888 157.212, 160.695 157.588 C 155.881 158.154, 155.004 158.546, 155.561 159.885 C 157.192 163.813, 158.002 169.472, 157.395 172.706 C 156.750 176.147, 156.794 176.205, 159.618 175.643 C 161.203 175.327, 164.300 174.789, 166.500 174.447 C 174.224 173.247, 174.235 173.238, 171.909 170.091 C 169.024 166.189, 168.302 159.715, 170.394 156.521 C 172.301 153.611, 172.305 153.615, 169 155.488 M 201.500 195.431 C 193.073 196.851, 181.502 199.641, 174 202.063 C 170.975 203.039, 167.007 204.142, 165.183 204.513 C 163.358 204.885, 160.658 205.818, 159.183 206.588 C 157.707 207.358, 155.890 207.990, 155.145 207.994 C 154.399 207.997, 150.001 209.156, 145.370 210.568 C 137.548 212.954, 133 215.858, 133 218.466 C 133 220.790, 136.214 223.965, 139.480 224.867 C 143.403 225.950, 146.015 225.463, 158.500 221.321 C 172.155 216.791, 194 210.775, 194 211.544 C 194 211.761, 193.066 213.602, 191.924 215.635 C 189.201 220.483, 188.410 233.185, 190.001 246.500 C 190.659 252, 191.428 261.113, 191.712 266.750 L 192.227 277 188.363 276.978 C 186.239 276.966, 182.538 276.066, 180.141 274.978 C 171.458 271.038, 166.222 273.235, 166.978 280.500 C 167.281 283.412, 169.181 285.168, 175.491 288.363 C 180.213 290.753, 182.442 291.230, 189.468 291.354 C 196.478 291.476, 198.285 291.167, 200.663 289.435 C 206.909 284.890, 208.460 276.517, 206.002 260.619 C 205.397 256.704, 204.523 244.500, 204.060 233.500 C 203.598 222.500, 202.924 212.600, 202.563 211.500 C 201.958 209.658, 202.799 209.322, 213.221 207.250 C 219.444 206.012, 226.125 205, 228.068 205 C 232.350 205, 234 203.534, 234 199.729 C 234 194.648, 232.328 193.987, 219.821 194.126 C 213.595 194.195, 205.350 194.783, 201.500 195.431" stroke="none" fill="black" fill-rule="evenodd"/>
</svg>