<svg xmlns="http://www.w3.org/2000/svg" width="300" height="300" viewBox="0 0 300 300" version="1.1">
	<path d="M 146.174 20.477 C 140.415 28.124, 138.734 33.971, 138.225 48.130 L 137.771 60.760 133.136 61.543 C 130.586 61.973, 117.025 62.385, 103 62.457 C 80.148 62.576, 77.214 62.778, 74.750 64.410 C 71.374 66.644, 71.359 67.085, 74.530 70.853 C 79.226 76.434, 84.755 77.500, 109 77.500 C 120.825 77.500, 132.329 77.170, 134.565 76.768 L 138.630 76.036 140.823 90.675 C 142.030 98.727, 143.518 105.919, 144.131 106.658 C 144.744 107.396, 145.077 108.081, 144.872 108.180 C 144.668 108.280, 126.050 108.617, 103.500 108.930 C 60.635 109.526, 59.317 109.670, 56.988 114.023 C 55.312 117.154, 57.485 120.338, 60.839 119.667 C 62.302 119.374, 66.875 119.891, 71 120.817 C 84.254 123.791, 163.261 122.751, 180.283 119.378 L 183.065 118.827 180.600 121.487 C 177.006 125.364, 175.828 132.488, 176.612 145.598 L 177.283 156.821 171.891 157.349 C 143.263 160.153, 131.771 161.505, 115 164.045 C 104.275 165.669, 87.850 167.679, 78.500 168.512 C 59.551 170.201, 55.395 171.179, 54.445 174.173 C 53.293 177.803, 55.899 178.747, 72 180.530 C 90.584 182.588, 97.177 182.216, 125.711 177.494 C 148.764 173.679, 175.526 171.111, 176.951 172.577 C 177.445 173.084, 178.153 193.525, 178.526 218 C 179.390 274.696, 179.153 276.015, 168.095 275.985 C 158.704 275.959, 139.074 269.966, 134.034 265.586 C 133.190 264.853, 130.795 263.705, 128.712 263.036 C 123.810 261.462, 120 263.560, 120 267.832 C 120 272, 121.601 273.496, 132 279.049 C 145.443 286.226, 153.826 288.847, 165.858 289.636 C 181.803 290.681, 187.572 287.422, 191.571 275.112 C 193.168 270.193, 193.263 266.184, 192.656 229.112 C 192.291 206.775, 191.707 184.631, 191.358 179.903 L 190.725 171.306 194.612 170.648 C 196.751 170.287, 207.050 169.739, 217.500 169.432 C 241.937 168.713, 241.195 168.879, 240.808 164.216 C 240.542 161, 239.961 160.233, 236.500 158.518 C 232.909 156.739, 230.403 156.534, 212 156.518 L 191.500 156.500 190.808 153 C 189.572 146.756, 189.880 125.520, 191.225 124.175 C 192.192 123.208, 192.177 122.513, 191.156 120.878 C 190.444 119.738, 190.005 118.702, 190.181 118.576 C 190.356 118.450, 195.450 117.790, 201.500 117.109 C 224.344 114.540, 230 112.848, 230 108.585 C 230 107.285, 229.213 105.267, 228.250 104.100 C 226.508 101.987, 226.433 101.984, 212 103.448 C 200.093 104.656, 157.548 108, 154.089 108 C 153.523 108, 153.466 106.861, 153.949 105.176 C 154.395 103.624, 154.354 96.132, 153.860 88.529 C 153.365 80.927, 153.101 74.565, 153.273 74.393 C 153.445 74.221, 159.061 72.925, 165.753 71.512 C 182.524 67.971, 192.116 64.704, 201.500 59.337 C 216.394 50.819, 218.546 48.236, 214.758 43.420 C 212.205 40.174, 210.581 40.412, 198.404 45.816 C 189.220 49.892, 177.884 53.304, 161.631 56.883 L 152.761 58.836 153.175 43.668 C 153.493 31.997, 153.982 27.715, 155.294 25.096 C 157.429 20.837, 157.479 17.398, 155.418 16.607 C 151.728 15.191, 149.432 16.152, 146.174 20.477 M 145 218.793 C 115.218 232.962, 107.170 236, 99.415 236 C 94.474 236, 87.538 238.462, 84.819 241.181 C 81.518 244.482, 83.112 249, 87.578 249 C 88.776 249, 91.371 249.675, 93.346 250.500 C 97.984 252.438, 104.261 252.404, 111.068 250.404 C 124.146 246.562, 157.036 227.765, 157.822 223.685 C 158.011 222.704, 157.443 220.799, 156.560 219.451 C 154.635 216.513, 150.310 216.267, 145 218.793" stroke="none" fill="black" fill-rule="evenodd"/>
</svg>