<svg xmlns="http://www.w3.org/2000/svg" width="300" height="300" viewBox="0 0 300 300" version="1.1">
	<path d="M 187.335 29.281 C 183.969 33.768, 182.501 36.806, 181.550 41.250 C 181.151 43.115, 180.331 44, 179.001 44 C 177.923 44, 173.319 44.679, 168.770 45.509 C 164.222 46.339, 157.800 47.502, 154.500 48.092 C 151.200 48.683, 147.048 50.059, 145.272 51.151 L 142.045 53.135 139.295 47.530 C 135.524 39.840, 130.371 38.716, 126.777 44.800 C 124.414 48.801, 125.389 51.812, 135.314 71.155 C 140.014 80.315, 144.003 89.312, 144.180 91.148 C 144.583 95.350, 148.370 97.570, 152.473 96.010 C 153.934 95.455, 158.141 95, 161.822 95 C 165.502 95, 169.973 94.581, 171.757 94.070 C 174.935 93.158, 174.999 93.203, 174.946 96.320 C 174.875 100.459, 171.916 108.079, 170 109.057 C 169.175 109.478, 160.400 111.031, 150.500 112.509 C 127.093 116.003, 106.788 121.016, 103.044 124.227 C 101.937 125.177, 99.900 126.238, 98.519 126.585 C 96.199 127.167, 96.048 126.997, 96.542 124.358 C 98.303 114.941, 99.496 100.993, 98.777 98.219 C 97.112 91.792, 90.690 91.649, 87.143 97.959 C 85.965 100.056, 84.967 103.511, 84.926 105.636 C 84.885 107.761, 84.074 114.225, 83.123 120 L 81.395 130.500 76.448 131.654 C 67.755 133.682, 68.078 133.985, 70.153 125.750 C 72.279 117.312, 74.459 93.948, 74.483 79.331 C 74.499 69.932, 74.316 68.965, 72.076 66.581 C 69.166 63.483, 66.694 63.306, 64 66 C 62.191 67.809, 62 69.333, 62 81.928 C 62 97.924, 60.959 107.010, 57.350 122.500 C 54.073 136.564, 54.264 135.985, 52.773 136.395 C 52.073 136.587, 47 137.981, 41.500 139.492 C 28.411 143.087, 24.937 144.940, 22.411 149.672 C 21.273 151.805, 19.597 154.686, 18.687 156.075 C 17.189 158.360, 17.178 158.809, 18.573 160.800 C 20.824 164.014, 24.397 163.540, 28.956 159.421 C 32 156.671, 34.475 155.516, 39.640 154.435 C 43.337 153.662, 46.529 153.196, 46.734 153.400 C 46.938 153.605, 45.734 156.674, 44.058 160.222 C 38.576 171.824, 37.991 181.663, 42.389 188.305 C 44.500 191.494, 55.680 198.121, 61.250 199.485 C 62.762 199.856, 63.995 200.236, 63.989 200.329 C 63.983 200.423, 63.361 202.525, 62.607 205 C 59.453 215.350, 50.903 229.240, 42.536 237.607 C 41.666 238.477, 40.260 240.531, 39.412 242.171 C 38.017 244.867, 38.022 245.384, 39.458 247.576 C 42.590 252.356, 47.949 250.136, 56.923 240.343 C 63.002 233.709, 70.827 221.040, 74.581 211.754 C 75.636 209.143, 76.860 207.006, 77.300 207.004 C 78.454 206.998, 84.070 209.992, 87.080 212.217 C 90.349 214.634, 95.447 214.811, 97.898 212.592 C 102.904 208.062, 99.953 198, 93.618 198 C 90.679 198, 86 196.059, 86 194.839 C 86 194.378, 85.352 194, 84.559 194 C 82.021 194, 82.008 192.450, 84.483 184.653 C 85.816 180.454, 87.180 175.327, 87.514 173.259 C 87.849 171.192, 89.406 164.100, 90.975 157.500 C 92.544 150.900, 94.072 144.375, 94.370 143 C 94.824 140.910, 95.991 140.191, 101.492 138.616 C 105.111 137.579, 109.139 135.892, 110.444 134.866 C 112.138 133.533, 114.485 132.996, 118.658 132.987 C 121.871 132.980, 127.240 132.115, 130.589 131.065 C 138.522 128.577, 158.181 125.002, 163.965 124.994 C 168.555 124.988, 207.211 121.010, 222.295 118.991 C 246.723 115.722, 248.062 115.354, 249.863 111.402 C 251.437 107.947, 249.697 104.219, 245.826 102.755 C 244.905 102.406, 236.805 103.005, 227.826 104.085 C 213.369 105.824, 185.927 108.037, 185.246 107.519 C 185.107 107.413, 186.059 103.090, 187.363 97.913 L 189.733 88.500 193.617 87.900 C 195.753 87.571, 198.682 86.973, 200.126 86.573 C 202.519 85.910, 202.710 86.065, 202.278 88.325 C 201.770 90.981, 204.846 95, 207.386 95 C 210.215 95, 220.896 86.818, 224.689 81.745 C 234.209 69.014, 238.171 57.426, 235.019 51.536 C 232.197 46.263, 220.253 43.061, 203.250 43.020 L 195 43 195 39.783 C 195 38.014, 195.734 34.644, 196.632 32.295 C 198.548 27.276, 197.441 24.980, 193.128 25.031 C 191.225 25.053, 189.627 26.226, 187.335 29.281 M 163.048 61.097 C 155.099 62.733, 148.441 64.226, 148.250 64.416 C 148.060 64.606, 148.490 65.378, 149.206 66.131 C 150.792 67.800, 154.658 76.512, 155.428 80.151 L 155.988 82.801 165.244 79.912 C 170.335 78.323, 175.287 77.017, 176.250 77.011 C 177.675 77.002, 178 76.098, 178 72.140 C 178 69.466, 178.286 65.191, 178.636 62.640 C 178.986 60.088, 178.873 58.028, 178.386 58.062 C 177.899 58.096, 170.997 59.462, 163.048 61.097 M 193 62.875 C 193 65.556, 192.726 69.119, 192.391 70.793 L 191.783 73.836 195.847 72.923 C 198.083 72.421, 201.459 71.272, 203.350 70.370 C 207.830 68.234, 211.527 69.160, 212.837 72.748 C 213.390 74.262, 213.878 74.860, 213.921 74.079 C 213.964 73.297, 214.613 71.947, 215.363 71.079 C 216.113 70.210, 217.539 67.324, 218.532 64.663 C 220.071 60.541, 220.128 59.694, 218.919 58.929 C 218.139 58.435, 211.988 58.024, 205.250 58.015 L 193 58 193 62.875 M 196.500 125.668 C 187.509 126.774, 160.736 134.161, 158.550 136.140 C 158.027 136.613, 156.002 137.014, 154.050 137.032 C 152.097 137.049, 149.773 137.617, 148.884 138.294 C 145.956 140.523, 145 149.361, 144.990 174.299 C 144.979 203.248, 143.050 224.045, 139.991 228.210 C 137.419 231.709, 137.440 236.183, 140.037 238.534 C 143.014 241.228, 152.399 241.655, 160.488 239.466 C 164.085 238.492, 167.276 237.942, 167.577 238.244 C 167.879 238.546, 166.300 241.202, 164.067 244.146 C 161.835 247.091, 160.007 249.971, 160.004 250.548 C 160.002 251.124, 158.491 254.541, 156.648 258.142 C 154.804 261.742, 153.007 265.836, 152.655 267.239 C 152.303 268.643, 150.436 273.161, 148.507 277.280 C 144.514 285.807, 144.181 288.491, 146.934 289.965 C 153.286 293.364, 157.416 289.300, 166.563 270.651 C 177.372 248.610, 181 242.504, 181 246.351 C 181 247.400, 182.375 248.676, 184.428 249.535 C 186.372 250.347, 189.728 253.367, 192.178 256.509 C 194.555 259.557, 203.328 268.339, 211.673 276.025 C 224.160 287.526, 227.378 290, 229.852 290 C 233.389 290, 236 287.738, 236 284.675 C 236 281.252, 230.616 274.693, 214.466 258.437 C 198.530 242.398, 193.440 239.062, 186.900 240.370 L 183.946 240.961 186.702 237.507 C 188.862 234.800, 191.154 233.506, 197.297 231.524 C 201.676 230.112, 206.158 229.253, 207.452 229.577 C 210.574 230.361, 217.269 226.835, 220.035 222.950 C 224.269 217.005, 225.238 211.575, 225.737 191 C 226.224 170.898, 224.176 141.843, 221.824 135.500 C 221.213 133.850, 218.721 130.813, 216.288 128.750 C 212.146 125.239, 211.469 125.010, 205.682 125.150 C 202.282 125.232, 198.150 125.466, 196.500 125.668 M 189.500 141.035 C 185.848 141.780, 165.911 147.878, 161.750 149.522 C 160.410 150.052, 160 151.381, 160 155.193 L 160 160.173 175.750 159.337 C 184.412 158.876, 195.671 158.500, 200.769 158.500 L 210.038 158.500 209.386 151 C 208.449 140.232, 208.235 139.979, 200.215 140.110 C 196.522 140.170, 191.700 140.586, 189.500 141.035 M 72 147 C 70.625 147.440, 68.118 147.845, 66.428 147.900 C 63.762 147.987, 63.078 148.627, 61.243 152.750 C 58.956 157.889, 55.864 166.923, 54.031 173.826 C 52.597 179.224, 53.079 179.865, 61.692 184.019 C 68.548 187.325, 69.947 187.101, 69.985 182.688 C 69.993 181.691, 70.633 178.766, 71.406 176.188 C 74.639 165.406, 76.877 156.177, 77.454 151.250 C 78.123 145.534, 77.673 145.183, 72 147 M 207.500 170.199 C 205.092 170.883, 165.034 174.943, 160.250 174.988 C 159.330 174.997, 159 177.786, 159 185.567 C 159 195.170, 159.160 196.086, 160.750 195.596 C 165.148 194.240, 176.881 191.816, 185.282 190.527 C 190.352 189.749, 195.904 188.818, 197.619 188.457 C 200.100 187.936, 201.174 188.270, 202.869 190.090 C 204.041 191.348, 205 192.735, 205 193.173 C 205 195.076, 199.129 199.867, 195 201.334 C 188.969 203.477, 171.707 207.708, 165.500 208.565 C 158.416 209.543, 157.365 210.335, 156.681 215.209 C 156.350 217.569, 155.766 221.033, 155.383 222.906 L 154.688 226.313 158.094 225.605 C 165.046 224.162, 183.694 220.846, 189.500 220.021 C 199.134 218.651, 209.073 215.620, 210.132 213.729 C 211.528 211.234, 212.238 190.116, 211.301 178.924 L 210.500 169.347 207.500 170.199" stroke="none" fill="black" fill-rule="evenodd"/>
</svg>