<svg xmlns="http://www.w3.org/2000/svg" width="300" height="300" viewBox="0 0 300 300" version="1.1">
	<path d="M 137.635 10.073 C 133.255 13.517, 134.233 17.211, 141.640 25.207 C 144.410 28.197, 146 30.842, 146 32.457 C 146 35.471, 149.205 39, 151.943 39 C 158.188 39, 158.530 23.866, 152.432 17.360 C 151.844 16.733, 150.185 14.821, 148.746 13.110 C 146.660 10.631, 142.450 8, 140.570 8 C 140.405 8, 139.084 8.933, 137.635 10.073 M 203 39.156 C 198.325 39.618, 184.150 40.663, 171.500 41.479 C 131.144 44.083, 103.276 49.041, 93.085 55.431 C 91.113 56.668, 87.874 57.938, 85.886 58.255 C 82.501 58.794, 82.134 58.584, 80.082 54.932 C 75.999 47.667, 73.879 46.600, 70.249 49.983 C 67.304 52.727, 68.192 57.285, 73.761 67.999 C 79.147 78.362, 83.307 83, 87.218 83 C 91.853 83, 92.652 79.603, 89.574 72.975 L 87.032 67.500 92.766 66.916 C 95.920 66.595, 99.850 65.634, 101.500 64.780 C 110.290 60.230, 149.219 54.036, 169.474 53.964 C 174.988 53.945, 184 53.489, 189.500 52.953 C 195 52.416, 204.450 51.730, 210.500 51.427 C 228.386 50.535, 230.081 52.886, 222.448 67.997 C 219.883 73.074, 216.687 78.846, 215.345 80.824 C 213.645 83.328, 212.995 85.495, 213.202 87.960 C 213.477 91.232, 213.771 91.523, 217.075 91.800 C 220.453 92.083, 220.937 91.715, 225.822 85.146 C 232.195 76.576, 238.933 64.832, 240.537 59.500 C 242.269 53.740, 241.299 49.588, 237.137 44.948 C 231.403 38.557, 223.179 37.162, 203 39.156 M 152.500 70.578 C 137.501 72.242, 120.005 76.169, 116.628 78.631 C 111.573 82.314, 114.067 87.106, 121.961 88.880 C 125.475 89.670, 128.061 89.477, 134.447 87.952 C 146.630 85.041, 166.647 82.703, 173.784 83.356 C 179.168 83.849, 180.351 83.649, 182.034 81.966 C 184.651 79.349, 184.518 78.031, 181.250 74.203 C 179.131 71.720, 177.264 70.754, 173.114 69.991 C 166.981 68.863, 168.314 68.825, 152.500 70.578 M 148 104.505 C 143.875 105.258, 138.356 105.619, 135.736 105.307 C 130.104 104.635, 123.459 106.818, 120.031 110.467 L 117.761 112.883 114.829 110.715 C 112.118 108.711, 111.694 108.661, 109.212 110.055 C 104.495 112.702, 104.274 115.673, 107.975 126.672 C 109.793 132.078, 111.974 137.850, 112.822 139.500 C 113.670 141.150, 114.250 143.934, 114.111 145.687 C 113.900 148.344, 114.361 149.135, 116.879 150.437 C 121.506 152.830, 127.416 152.332, 140.517 148.444 C 147.108 146.489, 156.545 144.029, 161.488 142.979 C 171.067 140.943, 173.282 139.387, 172.844 135 C 172.693 133.485, 173.812 130.828, 175.682 128.258 C 181.939 119.665, 180.613 109.723, 172.671 105.674 C 167.771 103.176, 157.850 102.706, 148 104.505 M 135.250 117.748 C 126.862 117.915, 120 118.209, 120 118.400 C 120 118.592, 120.652 120.595, 121.448 122.852 C 122.244 125.109, 123.202 129.666, 123.577 132.978 C 123.952 136.290, 124.638 139, 125.103 139 C 125.568 139, 129.346 137.650, 133.500 136 C 137.654 134.350, 142.315 133, 143.859 133 C 145.403 133, 149.104 132.507, 152.083 131.905 C 156.682 130.975, 157.981 130.181, 160.684 126.642 C 162.436 124.350, 164.337 121.243, 164.910 119.738 L 165.950 117 158.225 117.222 C 153.976 117.344, 143.637 117.581, 135.250 117.748 M 163 168.001 C 148.026 170.025, 137.023 171.949, 129.500 173.860 C 125.100 174.977, 118.203 176.574, 114.173 177.408 C 106.916 178.910, 94.382 183.370, 92.550 185.102 C 90.862 186.698, 90 186.063, 90 183.223 C 90 177.588, 84.875 173.189, 80.586 175.143 C 75.347 177.530, 75.217 186.895, 80.104 210 C 81.209 215.225, 82.499 221.775, 82.972 224.555 C 83.907 230.056, 86.193 237.928, 88.908 245 C 90.360 248.782, 91.103 249.542, 93.568 249.761 C 99.113 250.253, 99.484 249.318, 98.300 237.828 C 97.715 232.148, 97.338 227.383, 97.463 227.239 C 97.804 226.845, 121.507 223.951, 129.610 223.314 L 136.720 222.755 137.816 230.127 C 138.419 234.182, 139.216 241.144, 139.587 245.598 L 140.262 253.696 129.881 254.867 C 124.171 255.512, 117.291 256.705, 114.591 257.519 C 111.891 258.334, 108.414 259, 106.864 259 C 105.007 259, 103.519 259.804, 102.500 261.359 C 100.616 264.234, 101.299 266.360, 104.588 267.858 C 109.464 270.080, 115.363 270.251, 131.810 268.648 C 140.989 267.753, 158.185 266.653, 170.021 266.202 C 188.197 265.511, 192.160 265.082, 195.513 263.442 C 200.461 261.023, 202.464 257.500, 200.492 254.686 C 199.256 252.921, 199.635 252.032, 204.360 245.614 C 209.504 238.628, 213.930 229.410, 215.938 221.500 C 216.496 219.300, 217.910 213.496, 219.079 208.602 C 224.426 186.213, 218.296 173.730, 199.902 169.546 C 191.503 167.636, 171.806 166.811, 163 168.001 M 167 179.537 C 166.175 179.705, 161.303 180.398, 156.174 181.077 C 147.457 182.231, 146.885 182.448, 147.410 184.406 C 147.720 185.558, 147.979 191.174, 147.986 196.886 L 148 207.272 152.750 206.577 C 155.363 206.195, 165.150 205.496, 174.500 205.024 C 190.893 204.196, 191.563 204.238, 193.250 206.193 C 195.349 208.626, 195.519 212.907, 193.621 215.503 C 192.434 217.127, 190.250 217.497, 177.871 218.172 C 169.967 218.603, 160.800 219.308, 157.500 219.740 L 151.500 220.526 151.795 231.513 C 151.957 237.556, 151.679 244.916, 151.176 247.868 L 150.261 253.236 154.770 252.618 C 157.250 252.278, 164.279 251.987, 170.390 251.972 L 181.500 251.943 185.556 248.222 C 195.024 239.533, 198.998 231.409, 204.491 209.516 C 208.166 194.872, 208.684 190.146, 206.967 186.938 C 205.608 184.400, 199.791 181.520, 193.201 180.123 C 188.494 179.126, 170.950 178.733, 167 179.537 M 136.500 184.790 C 134.850 184.973, 128.550 186.406, 122.500 187.974 C 116.450 189.541, 107.776 191.268, 103.225 191.810 C 98.674 192.352, 94.287 193.347, 93.475 194.021 C 91.563 195.608, 91.608 200.533, 93.629 210.716 C 95.113 218.190, 95.427 218.842, 97.114 217.939 C 103.282 214.638, 126.670 208, 132.133 208 C 134.625 208, 134.803 207.663, 135.444 201.750 C 135.816 198.313, 136.961 193.030, 137.988 190.011 C 139.015 186.992, 139.775 184.507, 139.677 184.489 C 139.580 184.471, 138.150 184.606, 136.500 184.790" stroke="none" fill="black" fill-rule="evenodd"/>
</svg>