<svg xmlns="http://www.w3.org/2000/svg" width="300" height="300" viewBox="0 0 300 300" version="1.1">
	<path d="M 120.034 30.771 C 118.409 32.087, 118.011 33.180, 118.483 35.021 C 119.645 39.545, 121.722 41.255, 127.085 42.102 C 134.297 43.243, 143.043 48.621, 145.249 53.273 C 147.188 57.364, 150.562 58.840, 153.895 57.056 C 156.482 55.672, 157.432 52.128, 156.526 47.243 C 155.639 42.464, 148.232 35.114, 140.720 31.561 C 133.937 28.352, 123.513 27.954, 120.034 30.771 M 143 73.605 C 133.403 74.425, 121.781 74.702, 112.485 74.332 C 103.087 73.957, 95.570 74.141, 92.389 74.823 C 84.993 76.409, 76.699 79.700, 74.178 82.049 L 71.984 84.093 69.524 81.296 C 68.170 79.758, 67.049 78.214, 67.032 77.864 C 66.978 76.777, 60.325 74, 57.773 74 C 54.830 74, 51 77.830, 51 80.774 C 51 81.977, 52.679 84.473, 54.819 86.453 C 56.920 88.397, 60.801 94.088, 63.444 99.101 C 70.663 112.791, 76.005 118, 82.828 118 C 89.124 118, 89.563 111.496, 83.665 105.598 C 81.805 103.738, 79.287 100.030, 78.070 97.358 C 76.853 94.686, 75.408 91.669, 74.859 90.653 C 74.310 89.637, 74.086 88.581, 74.359 88.307 C 74.633 88.033, 91.427 87.410, 111.679 86.921 C 131.930 86.433, 154.620 85.608, 162.101 85.089 C 170.979 84.472, 178.792 84.493, 184.601 85.150 C 189.495 85.704, 201.150 86.386, 210.500 86.665 C 219.850 86.945, 227.822 87.480, 228.216 87.853 C 229.363 88.941, 226.086 100.155, 223.431 104.229 C 222.094 106.279, 221 108.244, 221 108.595 C 221 108.945, 219.482 111.317, 217.627 113.866 C 213.130 120.043, 212.454 122.518, 214.440 125.549 C 217.411 130.083, 220.796 128.859, 226.863 121.054 C 232.744 113.490, 238.002 105.429, 240.597 100 C 242.772 95.449, 243.575 85.783, 242.073 82.248 C 239.475 76.136, 231.078 73, 220 74.004 C 215.587 74.404, 207.355 74.135, 200 73.352 C 184.825 71.735, 163.790 71.828, 143 73.605 M 170.794 119.307 C 167.407 123.109, 165.031 132.534, 165.015 142.231 C 165.001 150.463, 164.871 150.991, 162.750 151.467 C 156.406 152.892, 86.799 162.823, 78.815 163.442 C 74.358 163.788, 72.055 165.885, 71.348 170.240 C 70.957 172.655, 71.397 174.236, 73.049 176.335 C 75.089 178.928, 75.713 179.131, 80.389 178.717 C 93.576 177.550, 121.668 173.658, 142.953 170.049 C 155.852 167.862, 166.503 166.170, 166.622 166.289 C 166.741 166.408, 167.793 175.954, 168.960 187.503 C 171.675 214.385, 172.581 241.081, 171.124 251.278 C 169.485 262.748, 164.882 270.573, 158.304 273.075 C 153.852 274.767, 144.031 274.280, 137.593 272.048 C 130.889 269.723, 125.707 269.413, 124.260 271.250 C 121.812 274.359, 121.998 277.625, 124.772 280.220 C 130.550 285.625, 142.573 290, 151.646 290 C 166.880 290, 178.092 281.094, 183.155 264.969 C 186.681 253.740, 186.437 223.940, 182.537 189.235 C 180.975 175.339, 179.940 163.726, 180.238 163.429 C 180.535 163.131, 185.608 162.017, 191.511 160.953 C 207.041 158.152, 219.125 155.148, 221.730 153.441 C 226.361 150.407, 223.529 143, 217.739 143 C 216.307 143, 207.273 144.350, 197.662 146 C 188.052 147.650, 179.635 149, 178.957 149 C 178.015 149, 177.839 145.620, 178.211 134.654 C 178.719 119.698, 178.162 117, 174.564 117 C 173.621 117, 171.924 118.038, 170.794 119.307 M 130.500 208.104 C 121.080 213.170, 111.379 216.558, 96.835 219.861 C 87.885 221.894, 84 224.321, 84 227.878 C 84 230.850, 86.124 231.898, 94.515 233.065 C 104.147 234.405, 106.524 233.980, 121 228.330 C 133.498 223.451, 137.263 221.455, 143.750 216.266 C 147.295 213.430, 148 212.285, 148 209.362 C 148 201.601, 143.230 201.258, 130.500 208.104" stroke="none" fill="black" fill-rule="evenodd"/>
</svg>