<svg xmlns="http://www.w3.org/2000/svg" width="300" height="300" viewBox="0 0 300 300" version="1.1">
	<path d="M 201 9.642 C 191.198 10.403, 183.886 12.094, 156.500 19.927 C 135.537 25.923, 127.865 27.111, 115.199 26.321 C 106.511 25.780, 106.496 25.783, 103.625 28.825 C 101.440 31.139, 100.900 32.467, 101.375 34.357 C 102.394 38.417, 107.109 39.310, 124.373 38.715 C 140.349 38.164, 146.203 37.035, 176.500 28.660 C 196.628 23.096, 210.844 22.136, 215.528 26.024 C 216.437 26.777, 216.999 29.016, 216.997 31.872 C 216.995 37.131, 212.230 46.106, 206.454 51.732 C 204.629 53.510, 202.993 56.150, 202.818 57.601 C 202.546 59.855, 201.444 60.656, 195.209 63.124 C 186.407 66.608, 168.238 70.331, 147.122 72.976 C 132.527 74.804, 121.505 76.533, 118 77.544 C 116.735 77.909, 116.500 76.347, 116.500 67.578 C 116.500 57.614, 116.373 56.998, 113.466 52.859 C 111.797 50.483, 109.225 47.861, 107.749 47.033 C 105.271 45.642, 104.951 45.679, 103.561 47.513 C 102.734 48.606, 102.356 50.175, 102.723 51 C 105.341 56.891, 103.321 78.294, 99.682 83.216 C 97.921 85.599, 97.770 86.403, 98.784 88.026 C 99.796 89.647, 99.001 94.003, 94.051 113.959 C 90.779 127.151, 86.679 142.344, 84.940 147.722 C 83.202 153.100, 81.154 159.428, 80.390 161.785 C 79.625 164.142, 79 166.816, 79 167.728 C 79 169.348, 77.302 175.207, 70.395 197.415 C 68.528 203.418, 67 208.991, 67 209.799 C 67 210.607, 65.376 215.820, 63.391 221.384 C 60.959 228.204, 58.841 232.378, 56.891 234.194 C 53.416 237.431, 53.235 240.032, 56.250 243.407 C 59.583 247.137, 63.156 247.637, 66.383 244.823 C 70.226 241.472, 80.547 216.461, 82.924 204.738 C 83.397 202.407, 86.107 192.850, 88.946 183.500 C 91.785 174.150, 95.145 162.675, 96.412 158 C 97.680 153.325, 100.806 142.360, 103.359 133.633 C 105.911 124.907, 108 117.068, 108 116.214 C 108 114.598, 113.080 92.780, 113.608 92.129 C 114.048 91.586, 133.600 88.578, 156.500 85.530 C 182.136 82.118, 187.468 80.848, 198.847 75.444 C 208.020 71.087, 214 66.281, 214 63.265 C 214 62.427, 216.386 59.438, 219.302 56.621 C 229.653 46.622, 234.318 33.552, 231.059 23.677 C 229.322 18.417, 221.085 11.342, 215.737 10.520 C 208.820 9.456, 205.749 9.273, 201 9.642 M 194 117.709 C 187.705 120.024, 180.362 136.838, 178.427 153.371 C 177.947 157.467, 177.131 159.735, 175.727 160.871 C 167.273 167.713, 166.890 168.209, 167.199 171.899 C 167.477 175.224, 167.769 175.523, 171 175.795 L 174.500 176.091 174.523 198.295 C 174.544 219.102, 174.720 221.224, 177.323 232 C 180.634 245.707, 184.089 253.537, 190.434 261.707 C 196.693 269.767, 203.740 274.503, 212.515 276.547 C 231.401 280.947, 256.863 271.829, 268.007 256.676 C 271.547 251.862, 271.703 250.163, 268.927 246.635 C 266.099 243.040, 264.148 243.314, 259.107 248.014 C 245.667 260.547, 225.312 266.082, 211.570 260.940 C 206.080 258.886, 199.956 253.278, 197.311 247.881 C 194.640 242.431, 190.903 231.726, 189.442 225.336 C 187.629 217.405, 186.430 189.580, 187.438 178.824 L 188.129 171.443 193.014 170.282 C 201.038 168.376, 223.837 159.008, 227.068 156.290 C 228.720 154.899, 230.727 152.495, 231.527 150.947 C 232.888 148.316, 232.815 147.934, 230.402 145.066 C 227.292 141.370, 225.844 141.260, 221.683 144.408 C 218.432 146.867, 202.509 152.537, 195.750 153.642 C 191.332 154.365, 191.155 153.678, 193.527 145 C 197.809 129.328, 199.119 121.591, 197.882 119.280 C 196.604 116.892, 196.423 116.818, 194 117.709 M 112.006 122.231 C 108.696 127.674, 105.975 138.520, 104.074 153.850 C 103.410 159.202, 102.596 161.727, 101.081 163.139 C 98.966 165.109, 98.265 169.428, 99.896 170.436 C 100.423 170.761, 100.419 172.535, 99.885 174.745 C 94.281 197.958, 92.214 216.912, 93.875 229.859 C 98.407 265.201, 120.328 272.936, 149.193 249.379 C 167.019 234.831, 171 230.836, 171 227.496 C 171 223.788, 169.445 222, 166.220 222 C 164.165 222, 148.017 232.068, 144.163 235.752 C 138.098 241.551, 125.704 248, 120.626 248 C 116.273 248, 113.675 245.695, 110.649 239.149 C 108.702 234.937, 108.500 232.808, 108.500 216.500 C 108.500 200.356, 108.798 197.142, 111.390 185.332 L 114.280 172.164 119.890 171.171 C 122.975 170.625, 130.225 168.292, 136 165.986 C 141.775 163.680, 149.200 160.772, 152.500 159.522 C 158.104 157.401, 160.942 154.680, 160.985 151.385 C 161.010 149.500, 156.950 145, 155.224 145 C 153.802 145, 144.149 147.736, 129 152.433 C 126.525 153.200, 123.052 154.078, 121.281 154.383 C 118.225 154.909, 118.088 154.800, 118.568 152.219 C 119.668 146.300, 120.674 124.376, 119.937 122.386 C 119.208 120.420, 117.098 119, 114.904 119 C 114.390 119, 113.086 120.454, 112.006 122.231" stroke="none" fill="black" fill-rule="evenodd"/>
</svg>