<svg xmlns="http://www.w3.org/2000/svg" width="300" height="300" viewBox="0 0 300 300" version="1.1">
	<path d="M 135 11.134 C 127.712 12.623, 122.140 14.206, 110.690 18.043 C 104.195 20.219, 97.624 22, 96.088 22 C 88.467 22, 83.349 30.349, 88.075 35.075 C 90.028 37.028, 90.991 37.207, 96.884 36.710 C 100.737 36.386, 109.138 34.266, 117 31.636 C 124.425 29.151, 131.850 26.979, 133.500 26.809 C 136.921 26.457, 136.584 23.799, 136.205 48.117 C 136.001 61.187, 135.992 61.231, 133.750 60.637 C 132.512 60.309, 125.650 59.753, 118.500 59.402 C 107.926 58.882, 104.381 59.076, 99.500 60.445 C 90.177 63.058, 90.783 63.417, 89.455 54.500 C 87.701 42.717, 86.243 38.088, 82.473 32.332 C 79.840 28.312, 78.647 27.279, 77.101 27.684 C 75.981 27.977, 74.859 29.364, 74.530 30.864 C 74.209 32.327, 74.837 46.569, 75.926 62.512 C 77.190 81.007, 77.691 95.705, 77.311 103.116 C 76.984 109.505, 77.010 115.904, 77.370 117.337 C 78.665 122.496, 85.968 123.359, 88.132 118.609 C 88.959 116.795, 90.014 116.264, 92.848 116.233 C 94.857 116.211, 99.875 114.967, 104 113.469 C 111.722 110.665, 126.602 106.627, 133.285 105.522 C 136.432 105.002, 137.166 104.418, 137.638 102.062 C 138.118 99.660, 138.664 99.248, 141.212 99.364 C 146.472 99.602, 147.797 96.474, 149.418 80 C 151.463 59.204, 152.294 27.053, 150.926 21.621 C 149.678 16.664, 144.907 11.479, 141 10.833 C 139.625 10.606, 136.925 10.741, 135 11.134 M 218.500 42.792 C 216.666 45.275, 216.522 46.828, 216.768 61.500 C 217.084 80.307, 215.647 112.464, 213.403 136.810 C 212.153 150.369, 212.063 154.737, 212.986 156.965 C 214.976 161.770, 220.988 161.884, 222.922 157.155 C 223.519 155.695, 225.404 145.725, 227.111 135 C 229.919 117.358, 230.264 112.679, 230.722 85.901 C 231.163 60.177, 231.010 55.548, 229.556 50.546 C 226.849 41.233, 222.108 37.908, 218.500 42.792 M 116 74.184 C 111.875 74.692, 104.563 74.945, 99.750 74.746 L 91 74.384 91 88.192 C 91 95.786, 91.258 102, 91.574 102 C 91.889 102, 95.377 100.916, 99.324 99.592 C 113.841 94.719, 127.795 92.831, 133.435 94.975 L 136 95.950 136 84.475 L 136 73 129.750 73.130 C 126.313 73.201, 120.125 73.675, 116 74.184 M 191.406 77.232 C 188.783 78.403, 186 83.066, 186 86.292 C 186 91.506, 178.075 115.449, 172.419 127.326 C 169.235 134.010, 170.199 136.399, 176.239 136.800 C 180.444 137.079, 181.003 136.815, 184.263 133.005 C 189.256 127.173, 198.513 101.123, 199.708 89.544 C 200.625 80.658, 196.717 74.862, 191.406 77.232 M 255.376 78.086 C 251.200 79.297, 250.193 80.709, 248.360 87.934 C 247.129 92.783, 247.060 94.367, 248.025 95.530 C 249.726 97.580, 253.361 97.363, 255.419 95.090 C 257.390 92.912, 266.673 91, 275.275 91 C 279.940 91, 281.149 90.625, 282.443 88.777 C 285.936 83.791, 283.143 79.840, 274.874 78.066 C 268.995 76.806, 259.761 76.815, 255.376 78.086 M 258.063 106.647 C 256.023 109.241, 250 121.318, 250 122.816 C 250 123.261, 248.939 125.847, 247.642 128.563 C 246.346 131.278, 244.356 136.200, 243.221 139.500 C 240.806 146.523, 234.731 160.851, 232.010 165.944 C 230.965 167.900, 228.538 172.875, 226.617 177 C 224.696 181.125, 221.991 186.525, 220.605 189 C 219.219 191.475, 215.759 197.775, 212.916 203 C 205.672 216.312, 191.398 237.407, 186.860 241.508 C 184.765 243.401, 181.802 245.246, 180.275 245.609 C 174.643 246.948, 172.473 251.278, 175.035 256.066 C 175.833 257.557, 177.147 258, 180.771 258 C 187.623 258, 195.023 253.873, 202.184 246.058 C 213.989 233.175, 221.430 221.151, 238.734 187 C 254.945 155.008, 260.593 140.306, 263.515 122.500 C 265.677 109.328, 265.521 106.558, 262.541 105.201 C 260.395 104.223, 259.825 104.407, 258.063 106.647 M 147.025 111.804 C 145.664 112.021, 140.219 113.944, 134.925 116.078 C 123.094 120.849, 103.788 126.058, 85.383 129.446 C 77.747 130.852, 69.588 132.964, 67.250 134.140 C 63.413 136.070, 63 136.634, 63 139.939 C 63 141.953, 63.540 144.140, 64.200 144.800 C 66.012 146.612, 80.142 146.205, 90.498 144.042 C 95.446 143.008, 99.578 142.244, 99.679 142.345 C 99.779 142.446, 100.575 147.472, 101.447 153.514 C 103.237 165.921, 103.764 181.101, 102.550 185.322 C 102.030 187.133, 102.181 188.969, 102.971 190.445 C 104.233 192.804, 103.876 215.185, 102.449 223.223 C 101.860 226.536, 102.063 227.072, 104.296 228.089 C 108.089 229.817, 112.162 228.073, 114.275 223.815 C 116.875 218.577, 119 206.085, 119 196.034 L 119 187.243 125.610 185.583 C 137.898 182.496, 148.026 175.964, 147.968 171.161 C 147.898 165.313, 144.011 163.399, 137.905 166.207 C 134.231 167.897, 120.975 171.924, 118.894 171.983 C 118.560 171.992, 117.988 168.738, 117.622 164.750 C 117.256 160.762, 116.267 153.498, 115.423 148.606 C 114.579 143.714, 114.251 139.355, 114.694 138.920 C 115.137 138.485, 118.882 137.226, 123.016 136.122 C 131.964 133.733, 154.450 122.876, 155.360 120.505 C 157.431 115.108, 153.309 110.805, 147.025 111.804 M 63.182 170.700 C 58.722 175.204, 52.915 188.153, 49.951 200.204 C 45.814 217.023, 46.311 265.372, 50.671 270.189 C 52.787 272.527, 56.498 272.502, 58.864 270.136 C 60.547 268.453, 60.780 265.944, 61.256 244.386 C 61.712 223.706, 62.194 218.151, 64.853 203 C 66.543 193.375, 68.612 183.250, 69.452 180.500 C 71.614 173.418, 71.457 169.315, 68.972 167.985 C 67.244 167.060, 66.389 167.461, 63.182 170.700 M 71.223 205.557 C 70 206.413, 69 208.002, 69 209.089 C 69 212.059, 71.804 218.179, 74.458 221 C 75.751 222.375, 77.760 225.548, 78.921 228.050 C 84.799 240.718, 120.686 265.656, 147.196 275.495 C 150.663 276.782, 157.100 279.168, 161.500 280.796 C 165.900 282.425, 171.975 284.259, 175 284.871 C 199.442 289.816, 202.301 290.190, 219.500 290.694 C 241.285 291.333, 250.271 290.274, 256.527 286.329 C 261.496 283.196, 262.649 281.081, 261.032 278.061 C 259.200 274.637, 256.402 273.727, 252.738 275.365 C 247.359 277.770, 244.163 278.149, 229.530 278.124 C 214.529 278.097, 207.569 277.303, 188.270 273.416 C 174.023 270.546, 176.292 271.234, 158.500 264.390 C 143.730 258.708, 124.854 248.856, 113 240.640 C 101.341 232.560, 87.218 219.472, 82.076 211.983 C 79.298 207.935, 75.447 204, 74.266 204 C 73.815 204, 72.445 204.701, 71.223 205.557" stroke="none" fill="black" fill-rule="evenodd"/>
</svg>