<svg xmlns="http://www.w3.org/2000/svg" width="300" height="300" viewBox="0 0 300 300" version="1.1">
	<path d="M 216.500 31.699 C 204.504 34.499, 176.566 41.230, 173.255 42.118 C 168.388 43.424, 165.467 45.647, 164.088 49.096 C 163.261 51.164, 163.118 50.845, 163.063 46.815 C 162.956 38.866, 160.195 33.986, 155.821 34.015 C 152.937 34.034, 151.583 34.930, 150.552 37.500 C 150.111 38.600, 149.828 62, 149.925 89.500 C 150.157 155.928, 148.580 211.185, 146.354 214.582 C 145.237 216.288, 144.896 218.389, 145.242 221.452 L 145.739 225.865 123.620 226.183 C 103.885 226.466, 101.156 226.708, 98.314 228.428 C 91.270 232.690, 93.516 239.127, 102.723 241.060 C 108.814 242.339, 197.551 241.736, 251.025 240.053 C 274.164 239.324, 277.035 239.041, 281.727 237.022 C 289.678 233.602, 292.051 228.579, 287.849 224.069 C 285.915 221.992, 285.136 221.829, 280.099 222.446 C 273.363 223.271, 246.606 224.921, 239.215 224.967 C 234.252 224.998, 233.994 224.879, 234.990 223.019 C 235.573 221.929, 236.442 217.914, 236.922 214.097 C 238.390 202.400, 234.799 45.751, 232.894 38.416 C 231.274 32.181, 225.164 29.677, 216.500 31.699 M 62.027 36.971 C 57.046 42.303, 56.878 44.707, 57.078 107.407 C 57.266 166.260, 56.704 187.269, 54.805 192.250 C 53.864 194.719, 53.270 195, 48.989 195 C 45.785 195, 43.448 194.373, 41.861 193.088 L 39.500 191.176 39.840 157.303 C 40.148 126.661, 40.012 123.042, 38.414 119.352 C 36.761 115.537, 33.088 113, 29.218 113 C 27.050 113, 23.866 117.396, 24.513 119.495 C 26.385 125.562, 26.711 137.022, 25.726 162.074 C 24.522 192.682, 24.856 195.741, 30.213 203.135 C 35.005 209.750, 39.823 211.286, 57.426 211.812 C 85.661 212.655, 95.200 208.636, 102.041 193.013 C 104.332 187.783, 105.103 173.580, 104.599 145.897 C 103.952 110.374, 103.391 102.897, 101.246 101.250 C 98.558 99.186, 96.640 99.873, 93.863 103.892 C 89.669 109.963, 88.800 120.036, 90.057 148 C 91.088 170.921, 90.764 183.451, 89.035 187.500 C 88.566 188.600, 87.940 190.259, 87.646 191.188 C 86.955 193.365, 81.032 194.987, 73.750 194.994 C 69.803 194.998, 68.006 194.608, 68.020 193.750 C 68.030 193.063, 68.698 186.650, 69.504 179.500 C 71.881 158.404, 72.316 136.639, 71.082 100.433 C 70.244 75.856, 70.217 62.693, 70.985 53.182 C 71.905 41.801, 71.838 39.588, 70.499 36.999 C 68.502 33.137, 65.618 33.127, 62.027 36.971 M 198 52.012 C 173.288 58.240, 165.645 58.460, 163.694 53 C 162.918 50.829, 162.902 67.318, 163.655 93.185 L 164.310 115.694 170.405 113.724 C 174.887 112.276, 180.206 111.645, 190.500 111.341 C 204.436 110.930, 208.979 109.894, 212.820 106.254 C 213.546 105.566, 215.233 104.729, 216.570 104.393 L 219 103.783 219 75.392 C 219 59.776, 218.662 47.022, 218.250 47.049 C 217.838 47.076, 208.725 49.310, 198 52.012 M 216.088 121.666 C 211.839 124.596, 203.925 127.002, 198.568 126.993 C 193.774 126.984, 169.503 128.931, 166.250 129.586 C 164.089 130.020, 164 130.451, 164 140.519 C 164 146.284, 164.113 151, 164.250 150.999 C 164.387 150.999, 173.950 149.166, 185.500 146.925 C 212.883 141.614, 215.353 141.346, 218.422 143.357 L 220.876 144.965 220.301 132.232 C 219.985 125.230, 219.675 119.458, 219.613 119.407 C 219.551 119.355, 217.965 120.372, 216.088 121.666 M 218.750 154.083 C 217.787 155.137, 216.108 156, 215.017 156 C 213.927 156, 207.064 157.784, 199.767 159.964 C 183.541 164.812, 175.880 166.083, 168.728 165.112 L 163.248 164.368 162.740 189.934 C 162.354 209.342, 161.851 216.693, 160.653 220.453 C 159.784 223.178, 159.169 225.459, 159.287 225.523 C 159.404 225.587, 171.976 225.444, 187.224 225.205 C 213.466 224.795, 214.897 224.676, 213.992 222.985 C 212.372 219.958, 214.731 215.004, 218.115 214.327 L 221 213.750 221 182.875 C 221 165.894, 220.887 152.037, 220.750 152.083 C 220.613 152.129, 219.713 153.029, 218.750 154.083" stroke="none" fill="black" fill-rule="evenodd"/>
</svg>