<svg xmlns="http://www.w3.org/2000/svg" width="300" height="300" viewBox="0 0 300 300" version="1.1">
	<path d="M 221.277 40.159 C 216.938 42.843, 201.552 43.831, 155.925 44.355 C 128.797 44.667, 119.849 45.077, 118.239 46.083 C 114.708 48.288, 113.851 54.694, 116.750 57.206 C 120.036 60.052, 133.129 61.265, 152.210 60.491 C 161.995 60.095, 170 60.095, 170 60.492 C 170 61.198, 163.817 69.497, 160.282 73.536 C 159.302 74.656, 156.700 77.629, 154.500 80.142 C 152.300 82.655, 149.484 86.067, 148.242 87.724 C 147.001 89.381, 144.526 92.354, 142.742 94.330 C 140.959 96.307, 137.780 100.191, 135.677 102.962 C 131.809 108.059, 130.281 108.881, 128.318 106.918 C 127.023 105.623, 123.228 107.644, 122.535 109.998 C 118.803 122.678, 115.602 171.885, 115.543 217.500 C 115.519 235.650, 115.850 251.753, 116.278 253.285 C 117.690 258.340, 125.366 258.922, 127.910 254.168 C 128.511 253.044, 129.356 236.444, 129.936 214.370 C 130.482 193.542, 131.706 164.350, 132.656 149.500 L 134.383 122.500 150.636 105.789 C 159.576 96.599, 170.365 84.899, 174.612 79.789 C 178.860 74.680, 184.370 68.138, 186.858 65.250 L 191.381 60 197.441 59.996 C 205.531 59.991, 219.971 57.583, 223.807 55.600 C 227.288 53.800, 232 48.125, 232 45.733 C 232 44.153, 226.443 37.927, 225.173 38.083 C 224.803 38.128, 223.050 39.063, 221.277 40.159 M 54.305 45.011 C 51.955 45.957, 51.695 46.902, 50.052 60.500 C 48.586 72.634, 48.060 84.672, 46.996 130.500 C 46.460 153.600, 45.737 177.113, 45.391 182.750 L 44.761 193 37.536 193 C 26.170 193, 26.601 194.151, 26 162.147 C 25.454 133.046, 25.172 131.636, 19.660 130.425 C 15.842 129.587, 12.205 131.620, 11.670 134.893 C 11.435 136.327, 11.301 150.100, 11.372 165.500 C 11.495 192.401, 11.589 193.683, 13.762 198.171 C 17.860 206.633, 23.630 209.569, 37.923 210.464 C 42.400 210.744, 44.611 211.340, 45.222 212.433 C 45.758 213.390, 47.461 214, 49.596 214 C 52.386 214, 53.422 213.428, 54.718 211.168 C 55.948 209.026, 58.063 207.751, 63.409 205.931 C 67.295 204.608, 71.213 202.787, 72.116 201.884 C 73.019 200.981, 76.233 198.414, 79.257 196.180 L 84.755 192.118 85.421 198.309 C 86.678 210.006, 88.579 213.018, 94.684 212.985 C 100.553 212.953, 100.306 214.625, 100.888 170.832 C 101.752 105.675, 101.818 108.574, 99.394 105.323 C 96.923 102.011, 94.842 101.406, 91.171 102.935 C 87.209 104.585, 85.796 108.430, 85.268 119 C 85.007 124.225, 84.390 128.928, 83.897 129.450 C 83.403 129.973, 83 139.678, 83 151.018 L 83 171.637 79.750 175.279 C 76.741 178.651, 61.870 188, 59.514 188 C 58.834 188, 58.714 185.519, 59.165 180.750 C 59.542 176.762, 60.312 155.725, 60.875 134 C 61.439 112.275, 62.446 86.175, 63.113 76 C 64.463 55.435, 64.085 51.443, 60.371 47.029 C 57.600 43.736, 57.529 43.712, 54.305 45.011 M 242 98.870 C 242 100.241, 234.216 100.987, 210 101.940 C 186.654 102.858, 179.690 103.624, 162 107.222 C 151.564 109.344, 151.466 109.391, 145.889 114.960 C 138.755 122.082, 136.403 126.394, 137.881 129.639 C 139.497 133.185, 143.960 132.744, 149.942 128.446 C 152.663 126.492, 156.455 124.638, 158.369 124.328 L 161.849 123.763 161.674 174.131 C 161.473 232.197, 161.569 232.942, 169.250 232.985 C 170.762 232.993, 172.835 232.165, 173.854 231.146 C 175.565 229.435, 175.766 226.427, 176.440 192.306 C 177.075 160.202, 176.941 153.413, 175.425 140.867 C 173.651 126.178, 173.867 121.649, 176.389 120.681 C 177.163 120.384, 181.056 119.820, 185.042 119.427 L 192.289 118.713 191.559 121.607 C 189.408 130.130, 193.460 245.193, 196.157 252.192 C 198.050 257.105, 205.404 256.851, 208.118 251.779 C 209.519 249.161, 208.474 153.995, 206.886 139.500 C 206.343 134.550, 205.635 127.688, 205.313 124.250 L 204.726 118 217.113 117.981 C 223.926 117.970, 234 117.309, 239.500 116.512 C 245 115.715, 251.354 115.049, 253.619 115.032 C 257.607 115.001, 257.759 115.120, 258.375 118.750 C 260.602 131.864, 260.005 159.696, 256.991 183.250 C 256.446 187.512, 255.566 194.488, 255.035 198.750 C 252.241 221.189, 249.706 237.606, 248.903 238.450 C 248.406 238.973, 248 240.329, 248 241.464 C 248 244.570, 244.398 253.801, 241.443 258.265 C 239.064 261.860, 238.544 262.155, 235.664 261.543 C 226.321 259.558, 226.447 259.538, 224.663 263.297 C 223.749 265.225, 223 267.443, 223 268.227 C 223 271.442, 233.289 278, 238.334 278 C 249.708 278, 260.878 263.053, 265.459 241.702 C 269.032 225.051, 274.968 175.909, 274.989 162.809 C 274.995 159.129, 275.450 155.840, 276 155.500 C 277.245 154.730, 277.366 122, 276.124 122 C 275.642 122, 275.050 119.613, 274.808 116.696 C 274.189 109.230, 270.875 102.828, 266.779 101.185 C 264.975 100.461, 262.719 99.448, 261.764 98.935 C 259.572 97.755, 242 97.698, 242 98.870" stroke="none" fill="black" fill-rule="evenodd"/>
</svg>