<svg xmlns="http://www.w3.org/2000/svg" width="300" height="300" viewBox="0 0 300 300" version="1.1">
	<path d="M 161.500 11.038 C 150.891 11.824, 146.298 12.604, 111.500 19.531 C 99.400 21.939, 86.575 24.193, 83 24.540 C 75.407 25.275, 70.382 26.670, 67.281 28.903 C 64.095 31.197, 64.058 38.425, 67.224 40.120 C 70.977 42.129, 84.565 40.593, 113.500 34.891 C 158.533 26.017, 180.319 23.088, 184.925 25.289 C 187.277 26.412, 187.527 27.125, 187.808 33.509 C 188.315 45.039, 187.864 46.057, 180.724 49.500 C 175.249 52.140, 164.315 58.238, 160 61.059 C 158.197 62.238, 140.508 70.897, 133.500 74.031 C 127.773 76.592, 104.620 84.998, 101.250 85.738 C 99.777 86.062, 98.994 85.761, 98.983 84.867 C 98.902 78.482, 96.622 63.815, 94.930 58.792 C 92.900 52.768, 88.301 45.064, 86.708 45.021 C 86.273 45.010, 84.950 44.100, 83.770 43 C 81.079 40.493, 80.497 40.503, 77.896 43.104 C 75.536 45.464, 75.831 50.050, 78.533 53.037 C 83.205 58.198, 85.323 91.602, 82.554 116.428 C 81.076 129.674, 79.577 137.921, 71.968 174.643 C 70.926 179.672, 67.067 195.647, 63.393 210.143 C 55.992 239.346, 55.301 245.206, 58.918 248.135 C 63.847 252.126, 70 249.377, 70 243.183 C 70 241.446, 71.967 232.931, 74.372 224.262 C 76.776 215.593, 79.984 203.550, 81.502 197.500 C 83.019 191.450, 85.749 180.816, 87.569 173.870 C 91.589 158.523, 96.451 130.173, 98.118 112.356 L 99.349 99.211 108.924 97.981 C 114.854 97.220, 121.890 95.458, 127.405 93.355 C 138.837 88.994, 159.437 78.567, 172.878 70.338 C 183.101 64.078, 183.454 63.947, 184.954 65.839 C 187.275 68.763, 190.691 69.432, 193.594 67.531 C 196.771 65.449, 197.453 63.569, 200.628 48.163 C 204.470 29.516, 203.121 19.990, 195.802 14.099 C 190.803 10.075, 183.401 9.415, 161.500 11.038 M 170.904 91.282 C 170.026 91.952, 168.610 93.850, 167.759 95.500 C 165.662 99.562, 161 120.688, 161.001 126.120 C 161.002 128.529, 160.299 137.475, 159.438 146 C 156.737 172.775, 157.596 169.848, 151.676 172.458 C 143.402 176.105, 136.476 177.241, 130.308 175.960 C 125.028 174.864, 121.986 172.927, 122.015 170.679 C 122.047 168.240, 126.109 147.163, 128.163 138.783 C 130.438 129.500, 129.971 127, 125.962 127 C 121.295 127, 112.388 145.462, 108.944 162.273 C 106.397 174.707, 107.746 180.416, 114.440 185.522 C 123.230 192.226, 137.216 194.062, 149.750 190.157 L 156 188.210 156.167 217.105 C 156.258 232.997, 156.371 249.008, 156.417 252.685 L 156.500 259.369 151.500 260.731 C 148.750 261.480, 143.040 262.181, 138.812 262.288 C 129.719 262.519, 126.824 260.973, 123.250 253.980 C 119.577 246.791, 120.602 233.755, 125.624 223.783 C 128.271 218.528, 128.583 215.983, 126.800 214.200 C 123.607 211.007, 118.990 214.616, 113.335 224.728 C 108.478 233.414, 106.691 240.807, 107.225 250 C 108.177 266.384, 117.992 277.007, 133.657 278.608 C 141.658 279.426, 156.834 276.682, 171 271.855 C 177.325 269.701, 186.775 266.846, 192 265.512 C 216.184 259.337, 223.101 255.898, 235.558 243.857 L 242.616 237.035 243.844 244.342 C 244.519 248.361, 244.782 252.405, 244.428 253.327 C 242.724 257.768, 246.718 262, 252.613 262 C 259.766 262, 260.541 258.734, 258.581 236.865 C 257.774 227.864, 256.802 213.232, 256.422 204.349 C 255.751 188.678, 255.661 188.166, 253.381 187.128 C 251.435 186.241, 250.264 186.525, 246.565 188.779 C 240.404 192.532, 239.723 194.700, 240.144 209.199 C 240.448 219.693, 240.275 221.515, 238.944 221.771 C 238.089 221.937, 236.584 223.434, 235.601 225.098 C 233.485 228.680, 220.569 239.171, 214.658 242.109 C 207.762 245.536, 200.302 247.869, 189.632 249.935 C 184.060 251.015, 177.531 252.596, 175.124 253.449 C 172.718 254.302, 170.286 255, 169.720 255 C 168.668 255, 169.337 206.657, 170.634 188.909 L 171.262 180.318 177.008 177.159 C 183.396 173.647, 185 173.306, 185 175.461 C 185 177.787, 189.126 181, 192.112 181 C 196.047 181, 200.422 176.845, 203.976 169.732 C 206.073 165.535, 208.556 162.412, 211.695 160.022 C 218.081 155.161, 220.283 151.974, 219.476 148.759 C 218.783 146.001, 213.656 142.811, 211.342 143.699 C 210.358 144.077, 210.140 143.461, 210.510 141.355 C 212.328 131.017, 212.986 124.365, 212.992 116.264 C 212.997 111.185, 213.544 104.995, 214.209 102.509 C 215.236 98.669, 215.187 97.758, 213.882 96.453 C 210.120 92.692, 202.866 100.160, 201.067 109.646 C 200.535 112.451, 199.367 121.440, 198.471 129.623 C 196.763 145.227, 195.589 152.744, 194.725 153.608 C 193.957 154.376, 179.160 159.806, 175.859 160.531 C 173.159 161.124, 173 160.973, 173.009 157.829 C 173.020 153.228, 176.721 113.437, 178.132 102.738 C 179.187 94.740, 179.130 93.802, 177.489 91.988 C 175.451 89.736, 173.240 89.499, 170.904 91.282" stroke="none" fill="black" fill-rule="evenodd"/>
</svg>