<svg xmlns="http://www.w3.org/2000/svg" width="300" height="300" viewBox="0 0 300 300" version="1.1">
	<path d="M 139.924 10.584 L 137.500 13.168 137.500 37.998 C 137.500 51.654, 137.275 63.049, 137 63.320 C 136.725 63.590, 131.775 64.289, 126 64.872 C 120.225 65.454, 111.631 66.688, 106.903 67.612 C 97.306 69.489, 93.504 69.037, 92.690 65.924 C 91.785 62.461, 95.546 50.084, 98.413 47.091 C 103.018 42.284, 100.773 37, 94.127 37 C 89.832 37, 83.826 47.863, 81.950 59.022 C 80.318 68.735, 81.121 72.755, 85.548 77.046 C 88.828 80.226, 89.609 80.492, 96.706 80.850 C 101.070 81.071, 111.010 80.350, 119.919 79.167 C 136.378 76.981, 149.671 75.438, 164.500 73.991 C 175.921 72.877, 191.427 70.156, 196.116 68.444 C 199.147 67.337, 200.051 67.348, 201.709 68.509 C 202.797 69.271, 204.628 69.649, 205.777 69.348 C 209.602 68.348, 211.308 62.583, 212.211 47.611 C 212.930 35.671, 212.826 33.383, 211.466 31.307 C 209.373 28.113, 207.380 27.459, 204.478 29.012 C 200.104 31.353, 198.718 36.120, 199.508 46.107 C 200.190 54.724, 200.146 55, 198.091 55 C 196.924 55, 193.389 55.640, 190.235 56.423 C 182.607 58.316, 150.233 62.566, 149.445 61.779 C 149.104 61.438, 149.288 58.760, 149.853 55.829 C 150.419 52.898, 150.779 41.866, 150.653 31.314 C 150.450 14.176, 150.226 11.907, 148.558 10.064 C 146.034 7.275, 142.849 7.467, 139.924 10.584 M 165.866 89.316 C 164.967 90.556, 163.682 94.214, 163.011 97.445 C 162.341 100.676, 160.919 105.385, 159.852 107.910 C 156.184 116.593, 146.860 134.502, 145.431 135.610 C 141.008 139.042, 146.877 146.138, 152.401 144.038 C 155.772 142.756, 159.472 137.412, 165.419 125.238 C 170.973 113.867, 171.587 113.469, 180.411 115.520 C 186.460 116.926, 190.414 116.391, 199.500 112.937 C 202.800 111.682, 208.829 110.395, 212.897 110.078 C 218.301 109.656, 220.579 109.046, 221.351 107.815 C 222.806 105.494, 220.504 101.398, 216.669 99.485 C 211.724 97.018, 206.650 97.671, 192.467 102.599 C 190.248 103.369, 186.873 104.011, 184.967 104.024 C 183.060 104.037, 179.813 104.440, 177.750 104.919 C 175.688 105.398, 174 105.648, 174 105.475 C 174 105.303, 174.702 102.420, 175.561 99.070 C 177.072 93.171, 177.054 92.885, 174.992 89.989 C 172.368 86.304, 168.270 86.002, 165.866 89.316 M 102.203 92.256 C 98.928 96.201, 99.928 101.539, 105.162 108.052 C 106.907 110.223, 108.076 112.258, 107.760 112.573 C 107.444 112.889, 104.106 113.608, 100.343 114.171 C 96.579 114.733, 88.775 116.052, 83 117.101 C 77.225 118.151, 71.323 119.007, 69.885 119.005 C 66.053 118.998, 62 122.568, 62 125.950 C 62 130.599, 63.952 131.358, 74.278 130.726 C 79.350 130.416, 84.191 129.889, 85.035 129.556 C 87.159 128.719, 87.496 131.176, 87.274 145.875 C 87.087 158.276, 86.815 159.727, 80.968 179.500 C 79.332 185.033, 76.192 193.672, 74.062 198.500 C 73.577 199.600, 72.284 202.525, 71.189 205 C 70.094 207.475, 68.426 211.300, 67.482 213.500 C 66.539 215.700, 64.092 221.100, 62.046 225.500 C 55.732 239.073, 54.826 241.589, 55.169 244.594 C 55.650 248.817, 60.134 249.179, 64.251 245.327 C 67.227 242.543, 74.949 227.343, 86.517 201.500 C 88.653 196.727, 91.729 188.014, 93.623 181.373 L 95.370 175.246 100.972 174.661 C 104.613 174.280, 109.926 172.487, 116.152 169.538 C 121.421 167.042, 126.061 165, 126.464 165 C 127.217 165, 127.027 167.486, 124.440 191.500 C 121.539 218.435, 117.081 240.374, 112.936 248.120 C 111.770 250.298, 110 250.620, 110 248.655 C 110 246.854, 106.747 244, 104.694 244 C 99.560 244, 98.906 254.358, 103.683 260.035 C 105.795 262.545, 106.897 263, 110.866 263 C 119.309 263, 124.167 257.564, 128.743 243 C 132.876 229.844, 134.305 221.485, 137.036 194.500 C 137.648 188.450, 138.752 178.878, 139.488 173.229 C 140.944 162.061, 140.421 158.076, 136.912 153.616 C 135.321 151.593, 133.970 151, 130.950 151 C 126.155 151, 115.930 154.763, 106.159 160.124 C 102.122 162.339, 98.712 164.005, 98.582 163.826 C 98.452 163.647, 98.941 158.550, 99.668 152.500 C 101.076 140.786, 100.362 134.175, 97.327 130.813 C 95.297 128.565, 96.440 127, 100.112 127 C 101.758 127, 106.119 126.378, 109.803 125.617 C 113.486 124.857, 122.125 123.232, 129 122.008 C 135.875 120.783, 142.175 119.443, 143 119.031 C 143.884 118.590, 144.500 116.912, 144.500 114.947 C 144.500 112.213, 143.890 111.256, 141.113 109.634 C 138.002 107.817, 137.146 107.754, 130.613 108.854 C 126.701 109.512, 122.536 110.305, 121.357 110.614 C 119.566 111.085, 119.009 110.547, 117.968 107.339 C 117.283 105.227, 115.885 102.306, 114.861 100.846 C 113.838 99.386, 113 97.782, 113 97.283 C 113 96.783, 111.738 95.165, 110.195 93.687 C 107.191 90.809, 103.893 90.218, 102.203 92.256 M 193.664 130.263 C 190.809 133.741, 190.129 136.240, 189.395 145.963 C 188.979 151.476, 188.282 155.005, 187.607 155.014 C 186.998 155.021, 185.550 155.282, 184.389 155.594 C 182.491 156.103, 182.208 155.625, 181.572 150.835 C 181.184 147.906, 180.151 144.720, 179.278 143.755 C 177.239 141.502, 174.279 141.500, 173.632 143.750 C 168.936 160.097, 169.082 159.776, 165.809 160.917 C 164.070 161.523, 159.464 162.295, 155.574 162.633 C 146.981 163.380, 142.189 165.400, 141.381 168.617 C 139.856 174.694, 143.854 176.942, 154.500 175.994 C 158.900 175.602, 163.673 174.960, 165.106 174.568 L 167.711 173.856 166.443 182.178 C 165.745 186.755, 164.681 196.125, 164.079 203 C 160.638 242.266, 165.526 258.274, 183.714 267.307 C 190.152 270.504, 203.821 273.319, 213 273.340 C 220.823 273.357, 237.354 270.021, 244.508 266.982 C 249.619 264.810, 254.910 260.368, 256.093 257.255 C 257.372 253.892, 254.674 248.362, 251.455 247.747 C 248.690 247.218, 245 249.408, 245 251.578 C 245 254.155, 234.467 257.373, 220.745 258.988 C 210.019 260.250, 199.487 259.281, 190.668 256.222 C 178.601 252.036, 174.257 240.892, 175.379 217 C 176.203 199.470, 177.485 185.137, 178.966 176.901 L 180.153 170.302 184.576 169.290 L 189 168.277 188.976 178.889 C 188.963 184.725, 188.534 191.300, 188.022 193.500 C 186.591 199.658, 187.559 202, 191.536 202 C 197.718 202, 200.108 195.494, 201.822 174 L 202.500 165.500 211.795 164.128 C 216.907 163.374, 221.381 163.047, 221.736 163.403 C 222.092 163.759, 220.011 166.451, 217.112 169.387 C 212.808 173.745, 211.901 175.254, 212.170 177.612 C 212.843 183.506, 220.264 181.575, 229.252 173.168 C 238.143 164.851, 240.590 156.200, 235.250 151.964 C 232.681 149.926, 231.809 149.826, 222 150.433 C 216.225 150.790, 209.363 151.347, 206.750 151.670 L 202 152.258 202.024 146.879 C 202.037 143.920, 202.459 139.728, 202.961 137.561 C 203.463 135.395, 203.621 132.357, 203.312 130.811 C 202.819 128.347, 202.303 128.002, 199.125 128.013 C 196.597 128.022, 194.944 128.703, 193.664 130.263" stroke="none" fill="black" fill-rule="evenodd"/>
</svg>