<svg xmlns="http://www.w3.org/2000/svg" width="300" height="300" viewBox="0 0 300 300" version="1.1">
	<path d="M 193.446 11.903 C 189.740 17.502, 187.935 24.147, 187.170 35 L 186.500 44.500 180.500 45.339 C 171.951 46.535, 157.824 49.758, 153.847 51.420 C 151.984 52.198, 149.572 53.815, 148.488 55.013 C 146.521 57.187, 146.522 57.194, 148.869 59.095 C 151.810 61.476, 162.068 61.639, 175.959 59.524 C 181.162 58.733, 185.473 58.178, 185.540 58.292 C 185.825 58.776, 187.887 78.447, 187.675 78.659 C 187.449 78.884, 170.310 81.651, 155 83.934 C 150.875 84.549, 142.775 86.278, 137 87.776 C 127.283 90.297, 126.478 90.693, 126.199 93.086 C 125.712 97.283, 127.851 98.230, 135.148 97.046 C 138.642 96.479, 143.863 96.012, 146.750 96.008 C 151.088 96.001, 151.999 96.304, 151.994 97.750 C 151.983 101.337, 149.873 106.886, 145.408 115.073 C 140.406 124.244, 137 132.978, 137 136.633 C 137 139.705, 140.954 142.323, 143.930 141.221 C 145.199 140.752, 147.320 138.070, 148.889 134.951 C 150.397 131.953, 153.691 125.675, 156.210 121 C 161.034 112.044, 164.674 102.519, 165.191 97.500 C 165.534 94.173, 163.685 94.681, 185 92.062 C 189.675 91.487, 195.412 90.729, 197.750 90.377 L 202 89.737 202 97.173 C 202 103.690, 202.365 105.183, 204.952 109.263 C 213.529 122.788, 227.894 125.497, 244.864 116.790 C 251.823 113.219, 253.519 111.889, 254.157 109.505 C 254.726 107.376, 254.498 106.103, 253.314 104.794 C 251.112 102.361, 248.039 102.537, 241 105.500 C 234.675 108.162, 223.656 108.957, 220.024 107.013 C 216.369 105.057, 214 99.634, 214 93.222 L 214 87.181 220.750 86.147 C 224.463 85.579, 231.884 84.558, 237.242 83.880 C 244.959 82.903, 247.410 82.193, 249.034 80.463 C 250.811 78.572, 250.923 77.924, 249.871 75.616 C 249.203 74.151, 247.529 72.669, 246.151 72.323 C 244.773 71.977, 235.513 72.893, 225.573 74.358 C 215.633 75.823, 205.306 77.017, 202.625 77.011 L 197.750 77 198.375 73.875 C 198.719 72.156, 199 67.950, 199 64.529 L 199 58.307 213.063 57.706 C 229.070 57.021, 234.303 55.404, 234.759 51 C 235.242 46.343, 234.351 46.059, 217.676 45.559 C 209.027 45.300, 201.453 44.780, 200.843 44.403 C 199.543 43.600, 200.377 30.767, 202.137 24.500 C 204.048 17.692, 203.613 11.915, 201.032 9.825 C 197.740 7.159, 196.329 7.546, 193.446 11.903 M 60.896 61.325 C 59.225 63.105, 58.965 64.317, 59.460 68 C 61.518 83.303, 60.540 189.048, 58.227 201.412 C 57.610 204.705, 56.942 205.523, 53.997 206.586 C 48.623 208.525, 43.307 208.307, 41.055 206.055 C 36.775 201.775, 35.751 195.038, 35.343 168.500 C 34.876 138.059, 33.798 132.976, 27.821 133.015 C 22.982 133.047, 20.705 136.808, 22.040 142.565 C 22.542 144.729, 22.967 155.050, 22.984 165.500 C 23.047 202.814, 26.289 215.047, 37.459 220.120 C 42.529 222.423, 51.354 222.535, 57.715 220.376 C 67.695 216.989, 82.491 208.772, 88.874 203.072 L 92.268 200.040 91.788 212.525 C 91.253 226.391, 91.612 227.360, 97.086 226.818 C 99.120 226.617, 100.968 225.581, 102.114 224 C 105.810 218.900, 106.285 174.554, 103.102 131.843 C 101.863 115.223, 97.877 108.741, 91.753 113.390 C 88.995 115.483, 88.782 119.025, 89.939 143.500 C 90.536 156.150, 91.318 173.215, 91.676 181.421 L 92.327 196.343 89.941 194.671 C 86.662 192.375, 85.518 192.533, 77.500 196.398 C 73.650 198.254, 70.369 199.655, 70.210 199.512 C 70.050 199.369, 70.483 194.133, 71.171 187.876 C 72.013 180.233, 72.436 158.780, 72.462 122.500 C 72.497 72.889, 72.357 68.213, 70.738 64.965 C 69.670 62.823, 67.786 60.980, 65.957 60.290 C 63.311 59.291, 62.685 59.419, 60.896 61.325 M 181.770 128.966 C 179.119 131.052, 171.678 142.871, 170.485 146.893 C 168.997 151.906, 163.955 158.494, 160.785 159.567 C 156.502 161.017, 155.239 163.209, 156.900 166.312 C 158.017 168.400, 157.957 169.136, 156.488 171.377 C 155.543 172.820, 154.534 174, 154.246 174 C 153.521 174, 140.505 163.487, 134.804 158.297 C 129.687 153.638, 127.413 153.505, 126.335 157.802 C 125.325 161.825, 130.442 170.471, 138.800 178.865 L 146.133 186.230 143.816 188.862 C 142.542 190.309, 141.162 191.645, 140.750 191.830 C 139.357 192.455, 139.988 195.679, 141.829 197.345 C 144.725 199.966, 148.988 199.404, 152.575 195.928 L 155.745 192.855 163.048 198.972 C 167.065 202.337, 171.478 205.910, 172.855 206.913 L 175.358 208.736 169.784 217.118 C 161.404 229.720, 146.554 244.389, 141 245.551 C 135.283 246.747, 133.482 247.655, 132.357 249.911 C 130.534 253.567, 132.087 256.437, 136.108 256.842 C 149.031 258.147, 166.592 246.219, 179.958 227.060 C 183.434 222.077, 186.717 218, 187.252 218 C 187.787 218, 189.637 219.173, 191.363 220.607 C 202.423 229.799, 235.340 248.154, 254.006 255.538 C 262 258.700, 265.015 259.367, 273.087 259.757 C 283.476 260.258, 287.853 259.012, 290.037 254.931 C 292.697 249.960, 288.386 244.653, 283.717 247.151 C 282.640 247.728, 280.267 248.200, 278.445 248.200 C 274.342 248.200, 262.369 245.269, 259 243.440 C 257.625 242.693, 252.225 240.042, 247 237.549 C 238.058 233.281, 232.356 230.202, 218.375 222.092 C 212.897 218.915, 200.125 210.323, 199 209.059 C 198.725 208.750, 197.336 207.898, 195.913 207.167 L 193.326 205.836 197.413 197.853 C 201.725 189.430, 204.470 184.390, 212.327 170.465 C 218.462 159.591, 219.533 152.893, 215.824 148.582 C 213.629 146.030, 212.814 145.776, 206.914 145.810 C 200.711 145.846, 195.294 147.299, 188.289 150.805 C 186.524 151.689, 184.799 152.132, 184.456 151.789 C 183.514 150.848, 187.413 142.763, 189.855 140.595 C 193.438 137.413, 192.507 130.259, 188.249 128.250 C 184.827 126.634, 184.719 126.646, 181.770 128.966 M 199 159.673 C 198.175 159.957, 193.852 161.722, 189.392 163.595 C 184.933 165.468, 180.182 167, 178.833 167 C 177.485 167, 175.693 167.563, 174.852 168.250 C 173.204 169.596, 164.639 183.028, 165.176 183.424 C 165.354 183.556, 169.244 186.483, 173.819 189.929 C 178.395 193.376, 182.270 196.039, 182.431 195.848 C 182.592 195.656, 184.962 191.450, 187.697 186.500 C 195.977 171.518, 198.204 167.654, 200.654 164.018 C 203.946 159.131, 203.557 158.107, 199 159.673" stroke="none" fill="black" fill-rule="evenodd"/>
</svg>