<svg xmlns="http://www.w3.org/2000/svg" width="300" height="300" viewBox="0 0 300 300" version="1.1">
	<path d="M 217.222 13.577 C 211.200 16.577, 208.745 18.919, 203.505 26.654 C 197.521 35.487, 194.048 39.936, 188.262 46.176 C 182.311 52.595, 181.520 55.984, 185.383 58.516 C 187.550 59.935, 188.139 59.928, 191.867 58.437 C 197.015 56.377, 210.397 42.501, 219.480 29.804 C 227.924 17.999, 228.831 14.586, 224.185 12.099 C 222.696 11.302, 221.112 11.638, 217.222 13.577 M 156.348 19.693 C 153.725 20.205, 151.552 25.013, 152.538 28.120 C 154.389 33.951, 167.422 48.886, 173.344 51.961 C 175.818 53.246, 176.479 53.242, 178.829 51.928 C 181.457 50.457, 182.980 46.314, 181.335 45.113 C 180.371 44.410, 175.612 37.506, 173.160 33.254 C 167.685 23.761, 166.420 22.220, 162.811 20.657 C 160.708 19.746, 158.877 19.061, 158.743 19.136 C 158.609 19.211, 157.532 19.462, 156.348 19.693 M 245 53.514 C 238.718 55.184, 214.611 58.179, 189 60.471 C 152.941 63.697, 128.968 68.875, 125.675 74.148 C 124.100 76.671, 123.739 76.527, 121.581 72.521 C 118.730 67.227, 112.903 66.503, 111.622 71.283 C 109.913 77.657, 111.058 87.566, 115.018 100.680 C 117.228 107.997, 119.312 115.997, 119.649 118.456 C 120.435 124.189, 123.028 126.728, 126.759 125.416 C 128.243 124.894, 130.023 123.349, 130.714 121.983 C 132.567 118.321, 132.270 109.375, 130 100.500 C 127.359 90.173, 127.348 86, 129.963 86 C 131.043 86, 134.114 85.138, 136.787 84.084 C 143.741 81.343, 159.511 78.368, 173.903 77.082 C 180.725 76.472, 186.397 76.092, 186.507 76.237 C 187.112 77.030, 185 102.305, 184.015 106.060 C 183.375 108.502, 181.694 112.276, 180.281 114.447 C 178.099 117.797, 177.870 118.818, 178.767 121.193 C 179.348 122.732, 179.490 124.197, 179.082 124.449 C 178.675 124.701, 175.227 125.391, 171.421 125.983 C 156.034 128.376, 144.186 131.331, 138.500 134.194 C 130.122 138.413, 129.204 140.295, 133.455 144.545 C 136.402 147.493, 141.998 147.800, 152 145.563 C 155.575 144.764, 169.075 142.452, 182 140.425 C 204.693 136.867, 221.360 132.705, 225.524 129.557 C 226.611 128.736, 228.670 128.049, 230.100 128.032 C 233.529 127.990, 239.779 123.631, 244.789 117.787 C 247.012 115.195, 251.047 110.858, 253.757 108.148 C 259.243 102.662, 266.817 88.955, 269.514 79.629 C 272.754 68.426, 270.709 57.845, 264.554 53.965 C 261.610 52.109, 251.187 51.869, 245 53.514 M 50.054 60.152 C 49 61.885, 47.155 66.943, 45.955 71.392 C 43.778 79.459, 43.774 79.658, 44.476 146.490 L 45.181 213.500 39.840 215.713 C 36.903 216.930, 33.325 218.201, 31.890 218.536 L 29.279 219.147 28.565 206.614 C 28.173 199.722, 27.964 183.601, 28.102 170.791 C 28.371 145.897, 28.024 143.725, 23.606 142.616 C 17.217 141.012, 15.961 144.481, 14.957 166.500 C 14.506 176.400, 14.108 193.725, 14.072 205 C 14.013 223.639, 14.185 225.791, 15.960 228.701 C 20.713 236.497, 32.216 236.972, 47.500 230.005 C 49.700 229.002, 52.996 227.622, 54.824 226.939 C 56.652 226.255, 61.777 223.267, 66.212 220.298 L 74.277 214.900 73.571 219.200 C 72.173 227.726, 73.425 230, 79.517 230 C 88.176 230, 90.444 219.173, 89.679 181.500 C 89.017 148.899, 86.743 124.938, 83.869 120.289 C 82.751 118.480, 81.086 117.006, 80.168 117.014 C 76.592 117.043, 74.197 118.273, 73.122 120.632 C 71.758 123.626, 71.665 142.457, 72.960 153.715 C 73.479 158.233, 74.219 169.371, 74.603 178.465 C 75.155 191.535, 75.035 195, 74.031 195 C 73.332 195, 70.872 196.971, 68.564 199.379 C 66.257 201.787, 62.895 204.520, 61.094 205.451 L 57.819 207.145 58.613 204.822 C 59.050 203.545, 59.370 170.956, 59.326 132.401 C 59.250 67.605, 59.113 62.102, 57.507 59.651 C 55.187 56.110, 52.398 56.297, 50.054 60.152 M 249 67.983 C 238.611 70.217, 220.362 73.010, 212.250 73.606 C 207.162 73.981, 202.986 74.560, 202.969 74.893 C 202.952 75.227, 202.491 78.875, 201.943 83 C 201.396 87.125, 200.514 94.953, 199.984 100.396 C 199.038 110.101, 196.948 115.762, 192.337 121.106 C 191.084 122.557, 191.456 122.672, 196.226 122.303 C 199.127 122.078, 205.916 121.198, 211.313 120.347 C 216.710 119.496, 221.956 119.017, 222.970 119.282 C 225.231 119.873, 230.523 114.565, 238.207 104 C 249.172 88.924, 254.314 79.141, 255.643 70.829 C 256.321 66.594, 256.033 66.470, 249 67.983 M 220.741 76.748 C 219.251 78.304, 216.787 82.093, 215.266 85.170 C 213.745 88.246, 211.270 92.279, 209.767 94.132 C 199.915 106.273, 198.275 110.133, 201.571 113.429 C 202.436 114.293, 204.573 115, 206.321 115.001 C 209.010 115.001, 210.860 113.605, 218.324 105.940 C 227.232 96.793, 231.971 89.150, 231.990 83.898 C 232.003 80.516, 227.991 74.582, 225.441 74.210 C 224.285 74.041, 222.316 75.105, 220.741 76.748 M 148.174 91.314 C 144.518 95.206, 145.348 97.922, 152.250 104.651 C 158.941 111.174, 162.746 113, 169.649 113 C 179.278 113, 180.980 104.338, 171.692 102.600 C 168.792 102.058, 166.393 100.351, 161.628 95.444 C 154.682 88.290, 151.836 87.416, 148.174 91.314 M 196 156.008 C 189.635 156.872, 174.426 160.702, 171.817 162.098 C 170.839 162.621, 168.974 164.616, 167.673 166.530 L 165.308 170.010 163.542 166.092 C 161.932 162.523, 159.829 161.053, 156.276 161.014 C 155.602 161.006, 154.258 162.463, 153.288 164.250 C 151.752 167.080, 151.443 171.573, 150.897 199 C 150.552 216.325, 149.670 240.055, 148.936 251.734 L 147.601 272.969 149.775 275.910 C 150.971 277.527, 151.544 278.996, 151.049 279.175 C 150.553 279.354, 149.844 280.726, 149.472 282.225 C 148.923 284.438, 149.380 285.534, 151.909 288.063 C 154.811 290.965, 155.413 291.148, 160.761 290.756 C 166.783 290.315, 193.056 282.602, 198.913 279.556 C 202.574 277.651, 206.557 277.380, 214.500 278.495 C 220.930 279.397, 224.101 277.116, 226.674 269.737 C 228.268 265.164, 228.496 261.140, 228.465 238 C 228.425 208.036, 226.666 178.475, 224.381 169.370 C 221.320 157.174, 213.735 153.602, 196 156.008 M 186 174.638 C 178.677 176.688, 171.962 177.997, 169.786 177.796 L 166.072 177.454 165.786 199.085 L 165.500 220.717 169.534 218.986 C 171.753 218.035, 179.354 216.514, 186.426 215.607 C 201.063 213.729, 207.510 212.296, 208.912 210.606 C 209.535 209.856, 209.555 206.023, 208.970 199.967 C 208.466 194.760, 208.042 186.113, 208.027 180.750 L 208 171 203.250 171.069 C 200.637 171.107, 192.875 172.713, 186 174.638 M 208.798 226.092 C 207.862 226.617, 202.237 227.934, 196.298 229.021 C 183.907 231.287, 166.152 235.515, 165.254 236.413 C 164.919 236.747, 164.095 242.304, 163.423 248.761 C 162.751 255.217, 161.869 263.344, 161.463 266.821 L 160.726 273.142 164.613 272.455 C 166.751 272.076, 173.225 270.434, 179 268.805 C 184.775 267.175, 194.145 264.570, 199.822 263.016 C 205.499 261.462, 210.347 259.986, 210.596 259.737 C 210.845 259.489, 210.925 251.602, 210.774 242.212 C 210.521 226.472, 210.367 225.213, 208.798 226.092" stroke="none" fill="black" fill-rule="evenodd"/>
</svg>