<svg xmlns="http://www.w3.org/2000/svg" width="300" height="300" viewBox="0 0 300 300" version="1.1">
	<path d="M 182 39 C 179.525 40.645, 176.938 41.993, 176.250 41.996 C 175.563 41.998, 175 42.357, 175 42.792 C 175 43.228, 171.963 45.343, 168.250 47.493 C 164.537 49.643, 160.375 52.145, 159 53.054 C 157.625 53.963, 153.035 56.910, 148.799 59.603 C 144.564 62.297, 140.615 65.558, 140.024 66.852 C 139.147 68.773, 138.682 68.981, 137.488 67.990 C 135.439 66.290, 133.386 67.353, 131.436 71.125 C 129.876 74.140, 129.878 75.957, 131.471 98.806 C 133.105 122.258, 133.102 123.396, 131.377 126.599 C 129.623 129.855, 129.630 130.008, 131.633 132.719 C 132.920 134.462, 133.954 137.927, 134.402 142 C 134.795 145.575, 135.790 151.137, 136.614 154.361 C 137.438 157.584, 137.974 160.284, 137.806 160.361 C 131.142 163.396, 129.425 166.348, 132.706 169.134 C 134.909 171.005, 143.617 173, 149.578 173 L 154.004 173 149.860 180.750 C 143.557 192.535, 134.767 205.383, 132.250 206.487 C 131.012 207.030, 130 207.818, 130 208.237 C 130 208.657, 126.879 209, 123.065 209 C 119.251 209, 115.053 209.409, 113.738 209.910 L 111.345 210.819 111.382 188.660 C 111.423 164.536, 109.520 130.703, 107.789 124.785 C 106.285 119.642, 102.822 116.490, 100.212 117.887 C 96.626 119.805, 96.572 120.616, 97.563 157.250 L 98.313 185 96.155 185 C 94.845 185, 91.798 187.258, 88.395 190.750 C 85.314 193.912, 83.115 195.600, 83.508 194.500 C 85.440 189.092, 86.137 171.612, 85.681 140 C 85.174 104.857, 82.710 66.560, 80.808 64.269 C 79.310 62.464, 75.443 62.699, 73.424 64.719 C 71.557 66.586, 71.547 65.522, 73.965 124.500 C 74.483 137.150, 74.928 157.876, 74.954 170.559 C 75.003 195.228, 75.258 196.571, 80 197.179 C 82.300 197.474, 82.134 197.715, 77.935 200.184 C 72.237 203.534, 63.233 206.999, 60.225 206.999 C 56.110 207, 55.788 203.824, 56.156 166.833 C 56.490 133.167, 56.441 132.087, 54.450 129.411 C 51.207 125.052, 49.335 124.236, 47.283 126.288 C 45.806 127.766, 45.523 129.975, 45.495 140.272 C 45.477 146.997, 45.064 163.985, 44.577 178.022 C 43.450 210.482, 44.350 215.027, 52.760 219.376 C 57.099 221.620, 61.592 221.412, 69.962 218.580 C 81.295 214.746, 92.717 206.442, 97.691 198.421 C 98.677 196.831, 98.893 197.846, 98.941 204.316 C 98.974 208.614, 99.465 213, 100.033 214.062 C 100.602 215.125, 102.963 216.961, 105.280 218.143 C 109.242 220.164, 110.419 220.255, 124.965 219.654 C 133.474 219.303, 145.175 218.145, 150.968 217.081 C 161.400 215.164, 182.489 211.971, 184.591 211.990 C 185.341 211.997, 185.873 221.597, 186.295 242.750 C 187.044 280.297, 188.583 290.355, 193.779 291.659 C 197.016 292.472, 200.416 288.793, 199.564 285.399 C 197.209 276.018, 196.071 211.187, 198.250 210.601 C 200.707 209.941, 231.547 205.937, 233.934 205.968 C 237.757 206.018, 244.912 202.071, 246.474 199.051 C 249.284 193.617, 245.508 189.310, 240.698 192.463 C 238.269 194.053, 231.509 195.094, 211.282 196.988 C 205.112 197.566, 199.363 198.307, 198.507 198.636 C 197.129 199.164, 196.981 197.342, 197.225 182.867 L 197.500 166.500 208.467 166 L 219.434 165.500 223.169 160.148 C 227.521 153.911, 231.010 143.912, 234.210 128.500 C 236.176 119.032, 236.494 114.506, 236.497 96 C 236.500 75.116, 236.434 74.407, 234.182 71.250 C 232.026 68.227, 231.467 68.002, 226.182 68.035 C 223.057 68.054, 217.575 68.723, 214 69.522 C 210.425 70.320, 198.725 71.442, 188 72.014 C 167.028 73.135, 148.099 74.675, 143.890 75.604 C 141.833 76.058, 141.167 75.747, 140.746 74.136 C 140.279 72.352, 140.568 72.164, 143.021 72.654 C 145.214 73.093, 148.973 71.581, 160.165 65.760 C 183.047 53.859, 192.039 48.470, 194.718 45.053 C 197.784 41.144, 194.771 35.996, 189.421 36.004 C 187.815 36.007, 184.475 37.355, 182 39 M 218.500 81.174 C 216.300 81.565, 211.433 81.911, 207.684 81.942 C 197.888 82.025, 194.450 84.593, 198.591 88.733 C 199.734 89.877, 200.009 91.332, 199.568 93.912 C 199.231 95.885, 198.686 101.662, 198.358 106.750 L 197.761 116 208.299 116 C 214.095 116, 219.512 116.259, 220.337 116.576 C 222.411 117.372, 223.197 110.022, 222.807 93.482 L 222.500 80.463 218.500 81.174 M 161.258 84.749 L 143.016 85.045 143.561 100.273 C 143.861 108.648, 144.329 116.971, 144.602 118.769 L 145.098 122.039 153.299 121.475 C 162.387 120.851, 176.572 119.166, 179.187 118.399 C 181.896 117.606, 187 99.769, 187 91.094 L 187 84 183.250 84.226 C 181.188 84.350, 171.291 84.585, 161.258 84.749 M 209.010 128.394 L 198.520 129.500 197.728 135 C 197.291 138.025, 197.062 143.864, 197.217 147.975 L 197.500 155.450 205.273 155.641 L 213.045 155.832 214.986 152.027 C 217.874 146.366, 222.088 126.855, 220.359 127.144 C 219.887 127.223, 214.780 127.785, 209.010 128.394 M 168.500 132.155 C 165.200 132.580, 158.737 133.448, 154.137 134.083 L 145.774 135.239 146.412 140.369 C 146.763 143.191, 147.523 148.875, 148.101 153 L 149.152 160.500 155.423 160.171 L 161.693 159.843 168.506 145.915 C 172.254 138.254, 175.135 131.851, 174.910 131.684 C 174.684 131.518, 171.800 131.730, 168.500 132.155 M 184.816 141.750 C 184.188 143.262, 182.374 147.200, 180.784 150.500 C 177.911 156.465, 177.906 156.502, 180.048 156.833 C 181.234 157.016, 183.283 156.895, 184.602 156.564 C 186.897 155.988, 187 155.597, 187 147.481 C 187 142.816, 186.765 139, 186.479 139 C 186.192 139, 185.444 140.238, 184.816 141.750 M 176.282 169.362 C 172.167 170.259, 170.529 171.228, 168.532 173.944 C 167.139 175.839, 166 177.714, 166 178.112 C 166 179.003, 158.553 191.574, 153.661 198.941 C 151.674 201.933, 150.167 204.500, 150.311 204.645 C 150.694 205.027, 181.077 200.403, 184.750 199.403 C 185.682 199.149, 186 195.108, 186 183.531 C 186 165.808, 186.856 167.056, 176.282 169.362" stroke="none" fill="black" fill-rule="evenodd"/>
</svg>