<svg xmlns="http://www.w3.org/2000/svg" width="300" height="300" viewBox="0 0 300 300" version="1.1">
	<path d="M 144.353 9.465 C 139.702 12.723, 139 16.423, 139 37.690 L 139 57.577 124.750 58.799 C 106.207 60.388, 101.913 60.328, 99.223 58.443 C 97.249 57.061, 97 56.013, 97 49.093 C 97 37.918, 94.842 32.972, 90.664 34.575 C 88.437 35.430, 85.931 41.925, 85.335 48.390 C 84.219 60.499, 88.837 68.585, 98.629 71.672 C 103.508 73.210, 105.733 73.278, 119.298 72.299 C 127.659 71.696, 142.977 71.443, 153.338 71.736 C 180.012 72.492, 199.494 69.864, 202.430 65.113 C 202.808 64.501, 204.116 64, 205.337 64 C 206.557 64, 208.508 63.333, 209.672 62.517 C 212.414 60.597, 213.512 49.494, 212.497 33.958 C 211.800 23.286, 211.710 22.965, 209.235 22.344 C 206.083 21.553, 204.048 22.776, 201.621 26.919 C 199.508 30.526, 199.239 34.869, 200.406 46.500 L 201.209 54.500 195.768 56.250 C 191.325 57.679, 186.627 58, 170.163 58 C 159.074 58, 150.003 57.663, 150.006 57.250 C 150.009 56.837, 150.442 53.869, 150.969 50.654 C 151.496 47.438, 151.995 37.406, 152.079 28.360 C 152.213 13.893, 152.018 11.677, 150.460 9.956 C 148.343 7.616, 147.132 7.519, 144.353 9.465 M 182.500 94.424 C 172.671 96.468, 157.919 100.672, 142 105.966 C 138.975 106.972, 134.925 108.069, 133 108.403 C 131.075 108.738, 127.250 109.657, 124.500 110.445 C 109.878 114.637, 101.973 116.065, 97.029 115.409 C 93.041 114.880, 91.560 115.088, 90.136 116.377 C 88.414 117.936, 88.260 117.740, 87.083 112.481 C 85.702 106.311, 82.999 103.664, 79.116 104.680 C 76.915 105.256, 76.813 105.623, 77.392 110.896 C 80.658 140.620, 77.935 178.129, 69.834 215 C 68.686 220.225, 67.135 226.300, 66.388 228.500 C 64.194 234.955, 63.558 241.763, 64.988 243.486 C 66.677 245.521, 70.337 245.401, 72.228 243.250 C 75.408 239.633, 80.754 220.524, 83.908 201.500 C 87.320 180.923, 88.168 171.261, 88.717 146.731 C 89.192 125.543, 89.416 123.100, 90.780 124.231 C 93.389 126.394, 109.207 125.802, 119.500 123.156 C 124.450 121.883, 132.100 119.923, 136.500 118.800 C 143.921 116.905, 147.266 115.925, 163.500 110.886 C 183.617 104.642, 194.425 102.960, 201.753 104.934 L 206 106.077 206.073 115.789 C 206.697 198.581, 206.771 201.656, 208.352 210 C 209.238 214.675, 209.971 219.744, 209.982 221.264 C 210.008 225.183, 214.704 244.204, 216.492 247.631 C 217.314 249.209, 217.990 251.033, 217.994 251.683 C 217.997 252.334, 220.221 255.147, 222.935 257.933 C 227.442 262.561, 228.266 263, 232.432 263 C 236.232 263, 237.635 262.421, 240.828 259.537 C 244.605 256.124, 247 250.803, 247 245.823 C 247 243.502, 243.801 239, 242.152 239 C 240.298 239, 237.935 241.803, 236.674 245.500 C 233.918 253.579, 230.295 250.666, 226.101 237 C 220.064 217.330, 218.009 193.208, 218.132 143.500 C 218.185 121.887, 217.820 108.043, 217.130 105.500 C 215.663 100.099, 212.067 96.502, 206.299 94.666 C 198.163 92.075, 194 92.033, 182.500 94.424 M 161.106 136.372 C 158.008 140.105, 124.161 149.150, 119.698 147.438 C 117.683 146.664, 109.914 148.817, 107.750 150.748 C 105.334 152.905, 105.559 156.578, 108.223 158.443 C 111.022 160.404, 121.759 160.460, 131.500 158.564 C 135.350 157.815, 138.689 157.383, 138.921 157.605 C 139.152 157.826, 138.364 159.048, 137.171 160.318 C 135.977 161.589, 135 163.387, 135 164.314 C 135 165.610, 134.089 166, 131.065 166 C 123.728 166, 117 170.164, 117 174.706 C 117 177.646, 119.336 178.624, 122.700 177.091 C 124.250 176.385, 127.008 176.179, 129.637 176.573 L 134 177.227 134 185.877 L 134 194.527 129.250 195.723 C 126.638 196.381, 123.487 197.215, 122.250 197.576 C 120.207 198.173, 120 197.897, 120 194.580 C 120 189.827, 116.305 174.348, 114.252 170.500 C 111.548 165.433, 108.414 164.586, 105 168 C 102.577 170.423, 102.459 174.523, 104.595 182 C 105.459 185.025, 106.749 189.750, 107.461 192.500 C 108.173 195.250, 109.338 198.750, 110.051 200.277 C 111.041 202.401, 111.070 203.330, 110.173 204.227 C 108.654 205.746, 108.668 209.268, 110.200 210.800 C 112.008 212.608, 118.978 212.244, 125.500 210 C 128.697 208.900, 131.529 208, 131.792 208 C 132.734 208, 131.006 217.088, 129.517 219.968 C 127.693 223.494, 127.562 227.162, 129.200 228.800 C 130.953 230.553, 134.449 230.266, 136.305 228.216 C 138.688 225.583, 142.567 216.314, 144.034 209.750 C 145.032 205.280, 145.731 204, 147.172 204 C 149.244 204, 162.409 200.484, 163.986 199.509 C 164.544 199.164, 165 198.073, 165 197.085 C 165 196.096, 166.567 193.236, 168.481 190.728 C 173.214 184.531, 174.723 178.655, 173.086 172.808 C 171.190 166.037, 167.928 164.482, 155.810 164.572 C 146.779 164.639, 146.185 164.522, 147.083 162.845 C 147.806 161.494, 147.542 160.542, 146.023 159.023 C 144.910 157.910, 143.438 156.970, 142.750 156.934 C 141.195 156.852, 151.938 153.157, 154 153.065 C 156.408 152.958, 167.368 147.476, 168.917 145.605 C 170.950 143.149, 170.703 137.987, 168.476 136.358 C 166.087 134.612, 162.562 134.618, 161.106 136.372 M 145.607 178.582 C 145.273 179.452, 145 182.818, 145 186.063 L 145 191.962 149.750 191.316 C 152.363 190.960, 155.072 189.957, 155.770 189.085 C 157.758 186.605, 159.658 182.756, 160.379 179.750 L 161.038 177 153.626 177 C 147.790 177, 146.085 177.336, 145.607 178.582 M 177.554 215.535 C 176.207 216.554, 175.576 218.304, 175.503 221.227 C 175.359 226.964, 172.413 228.553, 158.441 230.433 C 135.739 233.487, 128.257 234.966, 120 238.031 C 115.325 239.767, 110.058 241.611, 108.295 242.128 C 106.533 242.645, 104.186 244.219, 103.080 245.626 C 101.295 247.895, 101.213 248.538, 102.352 251.341 C 104.305 256.148, 110.231 256.209, 121.895 251.542 C 126.799 249.580, 134.116 247.535, 138.155 246.998 C 162.564 243.752, 174.019 240.653, 179.077 235.928 C 182.612 232.626, 183 232.465, 183 234.304 C 183 235.021, 184.520 237.081, 186.378 238.882 C 188.912 241.338, 190.474 242.074, 192.628 241.828 C 195.102 241.545, 195.547 241.015, 195.837 238 C 196.022 236.075, 195.507 233.150, 194.692 231.500 C 188.358 218.674, 186.586 215.408, 185.613 214.765 C 183.791 213.563, 179.638 213.959, 177.554 215.535" stroke="none" fill="black" fill-rule="evenodd"/>
</svg>