<svg xmlns="http://www.w3.org/2000/svg" width="300" height="300" viewBox="0 0 300 300" version="1.1">
	<path d="M 149.712 9.428 C 146.671 11.721, 146.003 16.765, 145.929 37.993 C 145.863 56.987, 144.892 75.441, 143.907 76.426 C 143.029 77.304, 117.306 82.398, 113.500 82.448 C 109.579 82.499, 109.494 82.425, 109.187 78.698 C 109.014 76.607, 110.294 68.881, 112.030 61.528 C 114.834 49.652, 115.036 47.845, 113.836 45.330 C 112.008 41.497, 106.895 40.819, 105.319 44.201 C 103.742 47.585, 98.124 71.608, 97.392 78.097 C 96.360 87.240, 100.842 94.129, 108.793 95.621 C 112.192 96.259, 122.480 94.798, 138.050 91.468 C 141.653 90.697, 148.438 89.631, 153.129 89.098 C 165.422 87.701, 195.083 80.280, 197.381 78.027 C 198.642 76.791, 199.066 75.409, 198.668 73.841 C 197.642 69.798, 195.328 69.153, 187 70.589 C 175.429 72.585, 155.519 75.746, 155.337 75.616 C 155.247 75.552, 155.577 73.475, 156.070 71 C 156.563 68.525, 157.249 54.350, 157.593 39.500 C 158.260 10.770, 158.150 9.944, 153.500 8.642 C 152.400 8.333, 150.696 8.687, 149.712 9.428 M 205.748 39.750 C 202.561 43.320, 201.571 50.018, 201.800 66.461 C 201.922 75.239, 202.433 82.833, 202.936 83.336 C 204.353 84.753, 209.014 84.415, 210.652 82.777 C 211.462 81.966, 212.832 76.849, 213.696 71.402 C 215.002 63.173, 215.077 59.744, 214.137 51.107 C 213.516 45.390, 212.500 40.103, 211.881 39.357 C 210.327 37.485, 207.615 37.659, 205.748 39.750 M 169.105 116.914 C 168.338 117.400, 166.461 122.455, 164.933 128.149 C 162.125 138.614, 160.011 144.603, 156.071 153.250 C 153.824 158.180, 152.621 159.062, 151.638 156.500 C 151.322 155.675, 150.105 155, 148.935 155 C 146.856 155, 146.823 154.753, 147.461 144.250 C 147.821 138.338, 148.322 132.375, 148.575 131 C 149.147 127.891, 146.043 121.930, 143.330 120.926 C 141.896 120.396, 140.526 120.844, 138.651 122.455 C 136.528 124.279, 136.002 125.605, 136.011 129.116 C 136.018 131.527, 135.495 138.996, 134.850 145.713 L 133.678 157.925 128.089 159.021 C 125.015 159.624, 121.150 160.578, 119.500 161.142 C 117.850 161.706, 113.800 162.533, 110.500 162.978 C 107.200 163.424, 103.214 164.123, 101.643 164.530 L 98.786 165.271 99.446 153.885 C 100.812 130.332, 100.676 125.408, 98.595 123.107 C 96.180 120.436, 93.825 120.430, 91.418 123.091 C 89.758 124.925, 89.422 127.707, 88.674 145.841 C 88.205 157.203, 87.472 166.867, 87.045 167.316 C 86.176 168.228, 71.963 172.380, 62 174.632 C 58.425 175.440, 54.876 176.719, 54.113 177.473 C 52.228 179.338, 53.369 181.803, 56.724 183.115 C 60.303 184.513, 74.222 183.585, 79.500 181.595 C 81.700 180.766, 84.525 180.068, 85.778 180.044 C 87.975 180.002, 88.034 180.222, 87.433 186.250 C 86.561 195.013, 88.539 220.669, 90.437 225.202 C 91.613 228.010, 91.737 229.561, 90.952 231.625 C 89.624 235.118, 90.936 236.478, 97.250 238.154 C 103.139 239.717, 108.462 238.538, 118.299 233.489 C 122.115 231.531, 126.582 230, 128.481 230 C 132.541 230, 135.311 226.683, 137.551 219.140 C 139.290 213.284, 143.964 183.438, 144.699 173.500 C 145.046 168.795, 145.735 166.090, 146.799 165.250 C 149.200 163.354, 150.047 163.746, 149.075 166.303 C 146.866 172.112, 154.908 174.505, 158.978 169.250 C 165.245 161.156, 166.971 158.585, 169.527 153.534 C 171.877 148.890, 172.759 148, 175.014 148 C 179.076 148, 183.811 146.083, 191 141.527 C 196.737 137.892, 205.606 134.272, 206.525 135.191 C 206.706 135.373, 206.002 137.992, 204.960 141.011 C 201.886 149.915, 202.685 153, 208.064 153 C 210.999 153, 215.317 147.778, 216.548 142.741 C 216.918 141.223, 217.596 139.750, 218.053 139.467 C 219.548 138.543, 220.182 130.593, 219.007 127.500 C 216.162 120.015, 211.280 118.329, 203.141 122.022 C 200.743 123.110, 197.873 124, 196.763 124 C 194.087 124, 184.326 129.520, 180.265 133.329 C 178.486 134.998, 176.793 136.127, 176.504 135.838 C 176.215 135.549, 176.658 133.385, 177.489 131.030 C 179.544 125.208, 179.387 121.762, 176.927 118.635 C 174.838 115.979, 171.679 115.284, 169.105 116.914 M 185.203 155.256 C 184.630 155.946, 183.838 157.859, 183.443 159.506 C 183.047 161.153, 182.304 163.035, 181.791 163.689 C 180.918 164.800, 176.757 176.033, 169.823 196 C 163.269 214.872, 158.972 224.003, 152.190 233.474 C 147.548 239.957, 147.126 241.899, 149.829 244.345 C 153.009 247.223, 155.512 246.295, 161.237 240.111 C 166.671 234.241, 168.170 231.951, 174.129 220.407 C 176.967 214.910, 177.594 214.302, 180.543 214.191 C 182.365 214.122, 184.364 214.733, 185.059 215.571 C 186.526 217.338, 202.687 228, 203.900 228 C 204.356 228, 205.803 228.805, 207.115 229.790 C 208.427 230.774, 214.575 233.961, 220.778 236.870 C 235.699 243.870, 247.681 246.026, 257.098 243.406 C 257.977 243.162, 259.215 241.825, 259.848 240.435 C 260.848 238.239, 260.678 237.587, 258.545 235.454 C 256.912 233.821, 254.965 233, 252.727 233 C 241.869 233, 215.012 220.897, 196.608 207.710 C 190.367 203.238, 189.315 202.817, 185.460 203.252 L 181.204 203.731 183.472 197.616 C 184.719 194.252, 187.199 187.675, 188.982 183 C 191.647 176.013, 192.249 172.971, 192.362 165.907 C 192.458 159.922, 192.083 156.811, 191.128 155.657 C 189.500 153.692, 186.660 153.499, 185.203 155.256 M 125.500 171.202 C 123.300 171.724, 118.071 173.017, 113.880 174.076 C 109.689 175.134, 105.113 176, 103.711 176 C 98.350 176, 98 176.589, 98 185.607 C 98 190.223, 98.119 194, 98.265 194 C 98.633 194, 121.629 186.359, 126.352 184.667 C 131.241 182.916, 131.966 181.704, 131.985 175.250 C 132.001 169.554, 132.124 169.630, 125.500 171.202 M 126.110 196.136 C 124.795 196.633, 122.320 197.648, 120.610 198.392 C 108.511 203.654, 104.871 205.076, 102.070 205.636 C 100.198 206.010, 99.078 206.761, 99.347 207.462 C 99.598 208.116, 100.113 211.543, 100.492 215.078 C 100.900 218.889, 101.912 222.407, 102.978 223.724 L 104.776 225.945 110.879 223.883 C 114.236 222.750, 118.449 220.828, 120.242 219.613 C 122.034 218.397, 124.287 217.102, 125.250 216.733 C 126.213 216.364, 127.004 215.486, 127.008 214.781 C 127.013 214.077, 127.475 209.500, 128.035 204.610 C 128.595 199.721, 128.929 195.610, 128.777 195.477 C 128.625 195.343, 127.424 195.640, 126.110 196.136" stroke="none" fill="black" fill-rule="evenodd"/>
</svg>