<svg xmlns="http://www.w3.org/2000/svg" width="300" height="300" viewBox="0 0 300 300" version="1.1">
	<path d="M 140.073 11.635 C 138.140 14.092, 138 15.559, 138.002 33.385 C 138.004 43.898, 138.465 58.527, 139.026 65.893 C 139.588 73.259, 139.839 79.495, 139.582 79.751 C 139.326 80.007, 133.578 80.625, 126.808 81.124 C 120.039 81.623, 113.150 82.457, 111.500 82.978 C 109.850 83.499, 106.138 84.225, 103.250 84.591 L 98 85.258 98 81.288 C 98 79.104, 98.491 73.666, 99.092 69.203 C 100.631 57.765, 98.138 50.869, 93.047 52.485 C 88.973 53.778, 88.581 55.555, 86.391 82.620 L 85.734 90.739 89.299 94.620 L 92.864 98.500 100.682 98.327 C 104.982 98.232, 115.925 97.210, 125 96.056 C 174.423 89.771, 186.690 87.256, 196.871 81.322 C 201.527 78.608, 202.933 79.107, 203 83.500 C 203.095 89.705, 211.528 91.450, 214.016 85.779 C 215.126 83.251, 216.790 46.956, 216 42.521 C 215.294 38.557, 212.975 37.354, 209.118 38.951 C 207.403 39.661, 206 40.863, 206 41.621 C 206 42.380, 205.622 43, 205.161 43 C 203.203 43, 202 48.749, 202 58.110 C 202 67.086, 201.818 68.097, 200.250 67.853 C 199.287 67.703, 195.350 68.792, 191.500 70.271 C 187.644 71.754, 177.068 74.230, 167.954 75.786 L 151.408 78.609 152.364 72.054 C 153.302 65.628, 151.723 18.172, 150.412 13.372 C 149.841 11.282, 146.246 9, 143.526 9 C 142.766 9, 141.212 10.186, 140.073 11.635 M 154.802 99.354 C 153.848 100.079, 152.372 103.897, 151.431 108.072 C 150.510 112.157, 149.173 116.643, 148.461 118.041 C 147.748 119.438, 145.973 124.388, 144.515 129.041 C 143.057 133.693, 141.484 138.400, 141.018 139.500 C 140.552 140.600, 139.728 143.420, 139.188 145.766 C 138.363 149.343, 138.494 150.388, 139.998 152.245 C 142.586 155.442, 146.062 153.778, 150.728 147.108 C 156.272 139.183, 161.210 136.943, 175.293 135.961 C 181.457 135.532, 188.655 134.632, 191.288 133.962 C 193.922 133.292, 196.366 133.032, 196.719 133.386 C 197.072 133.739, 196.781 136.947, 196.072 140.514 C 194.313 149.367, 195.067 152, 199.364 152 C 203.442 152, 205.188 150.171, 207.957 143 C 212.644 130.857, 212.320 122.802, 207.017 119.669 C 203.090 117.350, 200.168 117.572, 193.371 120.710 C 188.300 123.050, 185.797 123.493, 175 123.960 C 168.125 124.257, 161.861 124.911, 161.080 125.414 C 159.960 126.135, 159.827 125.924, 160.453 124.414 C 160.889 123.361, 161.623 120.700, 162.083 118.500 C 162.543 116.300, 163.388 112.928, 163.960 111.007 C 165.533 105.722, 165.237 103.548, 162.548 100.646 C 159.872 97.759, 157.436 97.352, 154.802 99.354 M 94.396 124.201 C 93.007 126.886, 92.853 129.175, 93.437 138.411 C 93.821 144.466, 94.392 150.712, 94.708 152.291 L 95.282 155.162 87.391 154.491 C 78.041 153.696, 74.871 154.658, 70.260 159.692 C 66.367 163.942, 66.124 167.215, 69.455 170.545 C 72.444 173.535, 75.404 173.690, 77.318 170.956 C 78.589 169.142, 79.639 168.945, 86.625 169.206 L 94.500 169.500 94.814 177 C 95.241 187.221, 93.334 199.408, 90.401 205.196 C 87.795 210.338, 84.795 212.639, 74 217.776 C 67.143 221.038, 64 224.682, 64 229.369 C 64 234.727, 71.108 235.049, 80.445 230.114 C 96.579 221.586, 101.522 219.148, 105.018 217.994 C 112.497 215.526, 129.133 199.562, 134.043 190.141 C 136.497 185.433, 136.113 181.666, 133.009 180.005 C 129.846 178.312, 126.638 179.801, 123.754 184.303 C 119.789 190.490, 110.911 199.394, 106.218 201.891 C 104.113 203.011, 103.976 202.926, 104.460 200.802 C 106.597 191.414, 107.051 188.349, 107.631 179.402 L 108.285 169.305 113.088 168.074 C 121.584 165.897, 130.195 155.703, 127.349 151.192 C 125.444 148.171, 122.245 147.923, 119.118 150.554 C 117.503 151.913, 114.423 153.645, 112.272 154.404 L 108.362 155.784 106.782 140.332 C 105.056 123.450, 104.053 121, 98.871 121 C 96.710 121, 95.665 121.748, 94.396 124.201 M 171.290 150.250 C 169.549 152.529, 168.059 157.416, 166.984 164.376 C 166.400 168.157, 165.264 172.522, 164.461 174.076 C 163.657 175.630, 163 177.364, 163 177.931 C 163 179.696, 154.873 196.334, 152.376 199.682 C 151.071 201.432, 149.603 203.914, 149.115 205.198 C 147.833 208.570, 134.868 230.743, 128.621 240.248 C 126.448 243.554, 124.824 244.997, 123.273 244.998 C 121.976 244.999, 120.330 246.093, 119.333 247.615 C 117.798 249.957, 117.773 250.505, 119.090 252.852 C 120.837 255.964, 124.703 257.542, 128.341 256.629 C 133.904 255.233, 141.245 246.566, 150.896 230 C 157.594 218.504, 162.005 212, 163.103 212 C 163.651 212, 167.565 215.497, 171.800 219.771 C 176.035 224.045, 182.425 230.044, 186 233.102 C 192.805 238.924, 205.260 248, 206.444 248 C 206.823 248, 208.566 249.088, 210.317 250.419 C 216.309 254.972, 231.774 261.778, 239.105 263.088 C 247.697 264.624, 255.958 263.298, 259.802 259.768 C 266.015 254.062, 267.559 243.707, 262.594 241.050 C 259.559 239.426, 257.490 240.535, 254.034 245.638 C 251.797 248.940, 250.816 249.544, 247.266 249.805 C 244.550 250.004, 240.906 249.226, 236.729 247.555 C 233.217 246.150, 230.076 245, 229.750 245 C 228.861 245, 212.149 235.247, 209.128 232.965 C 195.837 222.927, 186.896 215.394, 176.697 205.640 C 175.052 204.067, 172.411 202.236, 170.830 201.570 L 167.954 200.361 171.450 193.372 C 175.159 185.958, 178.683 175.476, 179.138 170.500 C 179.559 165.896, 177.885 151.656, 176.758 150.250 C 176.206 149.563, 174.965 149, 174 149 C 173.035 149, 171.815 149.563, 171.290 150.250" stroke="none" fill="black" fill-rule="evenodd"/>
</svg>