<svg xmlns="http://www.w3.org/2000/svg" width="300" height="300" viewBox="0 0 300 300" version="1.1">
	<path d="M 154.901 13.180 C 153.472 13.667, 151.710 15.173, 150.986 16.527 C 149.284 19.706, 151.512 28.228, 156.628 38.115 C 161.950 48.398, 166.997 51.911, 174.660 50.668 C 182.353 49.419, 186.588 44.073, 183.553 39.441 C 181.995 37.063, 181.401 36.863, 177.597 37.433 C 172.241 38.236, 171.432 37.324, 167.068 25.576 C 162.707 13.832, 160.271 11.350, 154.901 13.180 M 210.343 14.750 C 209.406 16.262, 207.401 18.850, 205.887 20.500 C 204.372 22.150, 201.641 26.031, 199.817 29.125 C 193.930 39.110, 191.349 42.480, 185.488 47.837 C 175.382 57.073, 175.687 57, 147.352 57 C 123.372 57, 122.525 57.068, 119.351 59.242 C 117.551 60.476, 115.528 62.514, 114.854 63.772 C 111.552 69.942, 116.622 70.384, 191.500 70.451 C 248.600 70.503, 254.013 70.138, 259.439 65.869 C 264.017 62.268, 261.875 53.434, 255.815 50.924 C 253.518 49.972, 252.560 50.059, 250.506 51.404 C 249.128 52.307, 248 53.647, 248 54.381 C 248 56.310, 239.241 57, 214.735 57 L 193.764 57 202.660 47.694 C 215.945 33.798, 221.827 20.481, 217.443 14.223 C 215.332 11.209, 212.401 11.426, 210.343 14.750 M 47.365 52.750 C 45.697 55.209, 45.463 58.094, 45.149 80 C 44.955 93.475, 45.345 122.527, 46.015 144.559 C 47.219 184.143, 47.209 184.671, 45.183 189.059 C 43.392 192.936, 43.307 193.770, 44.511 195.630 C 45.830 197.670, 45.645 197.839, 40.195 199.568 C 37.063 200.563, 32.489 201.404, 30.031 201.438 C 22.874 201.537, 22.641 200.526, 22.360 168.202 C 22.120 140.544, 21.459 134.828, 18.199 132.250 C 17.329 131.563, 15.691 131.007, 14.559 131.015 C 9.711 131.051, 9.751 130.794, 9.389 164.643 C 9.005 200.592, 9.515 204.466, 15.543 211.372 C 19.542 215.953, 25.059 217.412, 34.500 216.385 C 40.141 215.771, 50.250 212.712, 52.525 210.932 C 53.088 210.490, 55.788 209.376, 58.525 208.456 C 61.261 207.535, 64.048 206.338, 64.718 205.795 C 65.388 205.253, 68.484 203.274, 71.598 201.399 L 77.259 197.990 76.575 204.940 C 75.963 211.143, 76.111 212.111, 77.945 213.945 C 80.557 216.557, 81.279 216.524, 84.628 213.643 C 87.322 211.327, 87.380 211.028, 88.110 195.893 C 88.518 187.427, 88.886 169.888, 88.926 156.917 C 88.967 143.764, 89.498 130.856, 90.125 127.732 C 91.511 120.830, 90.804 117.687, 87.528 116.195 C 84.263 114.707, 80.898 115.980, 78.526 119.601 C 75.970 123.501, 74.860 141.544, 75.655 166.250 C 76.227 184.050, 76.130 186, 74.670 186 C 73.779 186, 70.133 187.575, 66.568 189.500 C 58.815 193.686, 56.406 194.021, 57.563 190.750 C 58.789 187.283, 59.137 140.029, 58.276 93.713 C 57.434 48.354, 57.682 50.049, 51.865 50.015 C 50.099 50.005, 48.615 50.907, 47.365 52.750 M 222.813 104.250 C 220.409 106.588, 215.153 113.675, 211.132 120 C 207.111 126.325, 201.635 134.650, 198.964 138.500 C 193.937 145.744, 190 154.502, 190 158.441 C 190 159.685, 191.354 162.120, 193.009 163.852 C 196.448 167.451, 200.184 167.907, 207.215 165.586 C 211.177 164.278, 221.953 161.890, 229.800 160.581 C 231.615 160.278, 232.897 160.361, 232.650 160.765 C 220.625 180.435, 214.699 190.222, 210.399 197.517 C 207.476 202.476, 204.277 207.445, 203.292 208.560 C 202.306 209.675, 199.999 213.718, 198.165 217.544 C 196.331 221.370, 194.419 225.281, 193.915 226.236 C 193.412 227.191, 193 231.096, 193 234.914 C 193 241.221, 193.241 242.044, 195.635 243.927 C 200.480 247.739, 208.924 246.393, 223.500 239.488 C 226.250 238.185, 232.775 235.092, 238 232.615 C 243.225 230.138, 250.349 226.512, 253.830 224.556 C 257.312 222.600, 260.299 221, 260.469 221 C 260.639 221, 261.082 222.688, 261.455 224.750 C 262.472 230.377, 269.612 244.550, 272.624 246.919 C 275.890 249.488, 280.148 249.599, 282.345 247.171 C 284.663 244.609, 284.433 242.631, 281.003 235.623 C 279.355 232.255, 277.092 226.125, 275.975 222 C 270.942 203.416, 270 199.536, 270 197.387 C 270 190.191, 265.129 187.425, 260.533 192.011 C 257.937 194.602, 257.519 195.825, 257.181 201.805 L 256.795 208.639 246.147 212.971 C 240.291 215.354, 232.800 218.290, 229.500 219.496 C 226.200 220.701, 220.424 223.144, 216.664 224.925 C 212.904 226.705, 209.628 227.961, 209.382 227.716 C 208.868 227.201, 216.338 212.928, 219.420 208.537 C 220.564 206.908, 222.625 203.506, 224 200.978 C 225.375 198.450, 229.425 191.348, 233 185.196 C 243.157 167.718, 247.560 159.977, 250.958 153.621 C 252.686 150.387, 255.816 145.212, 257.913 142.121 C 268.323 126.771, 274.652 113.862, 273.385 110.561 C 272.465 108.165, 269.326 107.743, 267 109.703 C 264.588 111.736, 253.674 126.154, 246.966 136.167 C 241.646 144.110, 240.752 144.479, 223.025 146.053 C 216.164 146.662, 210.156 147.403, 209.675 147.701 C 208.316 148.540, 210.847 144.096, 215.483 137.500 C 217.802 134.200, 221.177 128.830, 222.982 125.566 C 224.788 122.302, 227.105 118.730, 228.132 117.627 C 229.160 116.525, 230 115.278, 230 114.856 C 230 114.434, 231.125 112.431, 232.500 110.405 C 235.585 105.859, 235.656 103.573, 232.777 101.557 C 229.353 99.158, 227.547 99.647, 222.813 104.250 M 142.282 109.750 C 139.075 112.912, 135.356 117.075, 134.017 119 C 132.678 120.925, 126.760 127.510, 120.866 133.633 C 108.234 146.757, 106.272 150.777, 109.556 156.810 C 112.488 162.198, 116.017 162.648, 137.750 160.399 C 141.337 160.028, 143 160.218, 143 160.999 C 143 162.357, 135.399 172.995, 130.770 178.118 C 127.233 182.031, 123.584 187.035, 115.178 199.500 C 112.210 203.900, 109.381 207.650, 108.891 207.833 C 108.401 208.017, 108 208.540, 108 208.995 C 108 209.451, 106.119 213.087, 103.820 217.075 C 100.523 222.793, 99.624 225.369, 99.570 229.257 C 99.509 233.576, 99.872 234.485, 102.500 236.589 C 106.291 239.623, 111.359 239.718, 121.468 236.945 C 130.228 234.542, 144.128 228.153, 148.697 224.431 L 151.893 221.826 153.579 227.663 C 158.555 244.897, 165.166 251.618, 172.658 247.062 C 178.151 243.721, 178.046 235.802, 172.489 234.408 C 170.077 233.803, 168.020 229.328, 168.006 224.657 C 168.003 223.643, 167.058 218.243, 165.907 212.657 C 164.756 207.071, 163.830 200.714, 163.848 198.531 C 163.943 187.093, 152.974 191.354, 151.477 203.337 C 150.834 208.484, 150.605 208.815, 145.654 211.788 C 139.890 215.248, 131.291 218.866, 126 220.057 C 124.075 220.490, 121.402 221.179, 120.061 221.589 C 117.631 222.329, 117.634 222.310, 120.938 216.416 C 122.762 213.162, 125.434 208.828, 126.877 206.785 C 137.783 191.339, 143.926 182.941, 147.777 178.212 C 150.239 175.190, 154.334 169.294, 156.877 165.109 C 159.421 160.924, 162.456 156.150, 163.622 154.500 C 164.789 152.850, 166.949 149.250, 168.422 146.500 C 169.896 143.750, 172.091 139.869, 173.300 137.875 C 174.510 135.882, 176.825 130.425, 178.445 125.749 C 181.101 118.081, 181.238 117.096, 179.845 115.702 C 175.269 111.126, 170.108 114.616, 164.545 126.047 C 160.645 134.060, 154.146 144.955, 153.178 145.104 C 150.919 145.452, 125.997 146.443, 125.999 146.186 C 125.999 146.013, 129.632 141.761, 134.071 136.737 C 143.275 126.320, 152 112.818, 152 108.992 C 152 106.507, 150.421 104, 148.856 104 C 148.447 104, 145.489 106.588, 142.282 109.750" stroke="none" fill="black" fill-rule="evenodd"/>
</svg>