<svg xmlns="http://www.w3.org/2000/svg" width="300" height="300" viewBox="0 0 300 300" version="1.1">
	<path d="M 167.996 10.505 C 167.192 11.473, 166.922 13.834, 167.238 17.121 C 168.108 26.181, 179.814 46.438, 185.221 48.240 C 186.029 48.510, 185.722 49.985, 184.229 53.001 L 182.067 57.372 166.784 61.142 C 149.103 65.503, 145.884 66.943, 143.367 71.617 C 141.225 75.595, 142.223 78.282, 146.052 78.846 C 148.681 79.233, 161.794 76.856, 175.750 73.462 C 180.838 72.225, 185 71.474, 185 71.793 C 185 72.111, 184.355 75.101, 183.567 78.436 C 182.779 81.771, 181.866 86.536, 181.539 89.025 C 180.968 93.374, 180.756 93.617, 176.088 95.275 C 173.417 96.224, 170.167 97.007, 168.866 97.016 C 167.565 97.025, 164.700 98.052, 162.500 99.298 C 159.262 101.132, 158.500 102.120, 158.500 104.488 C 158.500 107.086, 159.002 107.564, 163 108.771 C 165.706 109.588, 170.038 109.947, 173.865 109.671 L 180.230 109.212 179.555 114.298 C 179.184 117.096, 178.655 119.748, 178.381 120.193 C 178.107 120.637, 175.996 121.006, 173.691 121.012 C 168.966 121.026, 153.960 124.935, 149.220 127.386 C 147.504 128.274, 144.472 129, 142.484 129 C 134.551 129, 127.054 136.310, 131.340 139.867 C 133.826 141.930, 161.284 138.967, 173.449 135.323 C 175.122 134.822, 175.014 135.217, 172.684 138.120 C 168.836 142.912, 168.716 143.090, 166.523 147.250 C 165.435 149.313, 164.198 151, 163.773 151 C 163.348 151, 162.996 151.563, 162.990 152.250 C 162.985 152.938, 160.652 156.650, 157.805 160.500 C 152.545 167.614, 146.121 176.461, 142.500 181.574 C 141.400 183.128, 138.025 187.572, 135 191.450 C 131.975 195.328, 127.533 201.088, 125.128 204.250 C 122.724 207.413, 120.670 210, 120.564 210 C 120.458 210, 120.561 204.937, 120.794 198.750 C 121.418 182.114, 119.294 134.480, 117.647 128.178 C 115.884 121.433, 114.820 120.326, 111.296 121.565 C 106.279 123.329, 105.678 128.059, 106.924 156 C 107.524 169.475, 108.011 185.450, 108.006 191.500 L 107.996 202.500 102.748 204.118 C 99.862 205.008, 95.892 206.443, 93.927 207.307 L 90.355 208.879 90.427 193.689 C 90.467 185.335, 90.097 171.069, 89.605 161.987 C 88.973 150.336, 89.098 138.705, 90.030 122.487 C 92.279 83.367, 91.435 60.006, 87.637 56.208 C 85.467 54.038, 82.021 55.706, 80.334 59.743 C 79.225 62.397, 78.767 68.620, 78.519 84.396 C 78.336 96.003, 77.630 116.367, 76.950 129.650 C 75.982 148.544, 75.973 157.140, 76.908 169.150 C 78.661 191.667, 78.526 207.762, 76.565 209.928 C 75.704 210.879, 75 212.578, 75 213.704 C 75 215.196, 74.153 215.919, 71.875 216.375 C 61.355 218.479, 61.500 219.094, 61.500 172.500 C 61.500 136.829, 61.383 134.306, 59.585 131.335 C 57.269 127.509, 54.281 125.982, 51.280 127.092 C 48.293 128.197, 47.537 131.902, 49.029 138.121 C 49.963 142.015, 50.088 151.398, 49.538 176.454 C 48.624 218.116, 48.817 219.910, 54.893 226.273 C 59.074 230.651, 60.021 231.151, 65.125 231.676 C 72.364 232.420, 80.494 229.866, 95.863 222.019 L 107.226 216.218 106.692 219.509 C 105.772 225.181, 111.877 229.004, 116.480 225.638 C 117.504 224.889, 119.053 224.450, 119.921 224.661 C 123.005 225.411, 128.443 220.113, 149.445 195.896 C 153.927 190.729, 183.682 148.826, 191.778 136.282 C 194.111 132.666, 195 132.058, 198 132.028 C 203.486 131.972, 219.458 129.260, 231.333 126.368 C 243.611 123.378, 245.401 121.797, 243.019 116.045 C 242.325 114.370, 241.448 113, 241.069 113 C 240.126 113, 201.759 116.905, 195.250 117.664 C 192.363 118, 190 118.010, 190 117.686 C 190 116.779, 192.935 105.723, 193.235 105.500 C 193.381 105.392, 196.565 103.667, 200.312 101.668 C 213.739 94.502, 219.862 87.715, 216.373 83.860 C 213.852 81.074, 209.520 81.600, 202.865 85.500 C 199.580 87.425, 196.408 89, 195.815 89 C 194.194 89, 195.360 75.112, 197.293 71.388 C 198.541 68.984, 199.773 68.139, 202.704 67.674 C 204.792 67.343, 212.006 66.217, 218.735 65.171 C 225.464 64.126, 231.652 62.704, 232.485 62.012 C 234.805 60.087, 234.237 56.720, 231.219 54.503 C 227.694 51.914, 216.450 51.371, 205.697 53.270 L 197.893 54.649 208.331 44.574 C 219.795 33.510, 222.765 28.679, 223.706 19.563 C 224.345 13.365, 223.174 11, 219.463 11 C 217.014 11, 212.021 17, 208.228 24.500 C 207.116 26.700, 205.064 29.729, 203.668 31.231 C 202.273 32.733, 199.907 35.567, 198.410 37.529 C 193.742 43.649, 192.415 43.762, 189.671 38.271 C 188.360 35.647, 185.610 29.137, 183.561 23.804 C 181.512 18.471, 178.686 12.959, 177.281 11.554 C 174.410 8.682, 169.929 8.176, 167.996 10.505 M 202 168.677 C 188.280 170.896, 172.158 176.412, 167.379 180.522 C 165.795 181.883, 164.214 182.998, 163.864 182.999 C 162.564 183.001, 160 189.925, 160 193.433 C 160 198.416, 162.140 198.953, 167.307 195.263 C 169.613 193.616, 173.474 191.267, 175.888 190.043 C 180.265 187.824, 190.955 184.621, 191.653 185.320 C 191.856 185.522, 191.338 187.624, 190.503 189.991 C 189.668 192.357, 188.311 199.965, 187.486 206.897 C 186.661 213.828, 185.507 222.490, 184.921 226.145 L 183.855 232.790 174.177 234.467 C 168.855 235.389, 159.775 237.011, 154 238.070 C 148.225 239.130, 141.348 239.998, 138.718 239.998 C 136.088 239.999, 132.411 240.637, 130.548 241.415 C 124.629 243.889, 123.565 249.351, 128.750 250.652 C 132.625 251.625, 179.369 249.255, 189.200 247.588 C 198.369 246.033, 219.032 244.458, 247.742 243.126 C 262.276 242.451, 265.298 242.040, 266.992 240.508 C 270.695 237.156, 269.341 232.532, 264.227 231.065 C 260.269 229.930, 228.618 229.824, 211.500 230.888 C 204.350 231.333, 198.196 231.534, 197.824 231.335 C 197.452 231.136, 197.578 229.517, 198.105 227.737 C 200.121 220.926, 202.979 199.110, 202.989 190.457 L 203 181.415 207.737 180.148 C 213.643 178.568, 216 176.495, 216 172.880 C 216 168.511, 211.457 167.147, 202 168.677" stroke="none" fill="black" fill-rule="evenodd"/>
</svg>