<svg xmlns="http://www.w3.org/2000/svg" width="300" height="300" viewBox="0 0 300 300" version="1.1">
	<path d="M 151.486 35.133 C 147.511 37.973, 141.601 45.678, 140.160 49.899 C 139.522 51.769, 139 56.764, 139 61 L 139 68.701 123.250 69.343 C 114.588 69.696, 106.315 70.256, 104.868 70.586 C 100.245 71.643, 98.402 78.767, 102.084 81.347 C 103.799 82.547, 107.330 82.709, 121.968 82.257 L 139.768 81.707 140.413 89.103 C 140.767 93.172, 141.304 99.003, 141.605 102.063 L 142.153 107.626 123.827 108.898 C 113.747 109.597, 100.325 111.091, 94 112.217 C 87.675 113.344, 80.475 114.592, 78 114.990 C 71.944 115.966, 70.291 116.781, 69.688 119.087 C 68.317 124.329, 77.041 125.849, 98.500 124.108 C 106.750 123.439, 115.525 122.632, 118 122.316 C 121.718 121.841, 122.283 121.972, 121.250 123.070 C 119.135 125.320, 119.838 128.439, 123.862 134.665 C 127.786 140.736, 134.233 146.642, 139.297 148.805 C 145.740 151.557, 153 149.381, 153 144.697 C 153 143.020, 148.275 140, 145.651 140 C 144.855 140, 142.020 137.470, 139.352 134.378 C 131.923 125.770, 130.697 124.583, 128 123.391 C 125.283 122.190, 126.818 122.023, 159.500 119.979 C 178.657 118.781, 183 118.776, 183 119.952 C 183 122.116, 173.004 135.043, 165.522 142.553 C 159.895 148.203, 155.299 151.746, 150.125 154.423 C 145.855 156.633, 142.543 159.032, 142.258 160.120 C 141.878 161.573, 140.828 162.004, 137.633 162.020 C 129.099 162.060, 94.958 167.405, 91.239 169.283 C 89.733 170.044, 87.150 171.319, 85.500 172.117 C 81.913 173.851, 80.934 177.747, 83.596 179.694 C 86.108 181.531, 90.698 181.341, 110.316 178.590 C 119.767 177.265, 131.325 175.884, 136 175.523 L 144.500 174.865 144.549 184.366 L 144.597 193.867 137.549 194.414 C 133.672 194.715, 125.325 195.371, 119 195.873 C 106.232 196.887, 99.814 198.917, 98.203 202.455 C 95.521 208.339, 102.810 210.431, 122.955 209.556 C 130.955 209.209, 139.590 208.681, 142.144 208.383 L 146.788 207.841 147.214 216.171 C 147.449 220.752, 148.623 232.600, 149.824 242.500 C 151.024 252.400, 152.535 266.531, 153.181 273.901 C 154.190 285.404, 154.677 287.671, 156.620 289.901 C 158.762 292.361, 159.030 292.420, 161.620 291 C 163.126 290.175, 164.697 288.229, 165.112 286.675 C 165.961 283.499, 164.840 264.103, 161.930 231.599 C 160.852 219.553, 160.175 209.491, 160.428 209.239 C 160.680 208.987, 168.674 208.582, 178.193 208.338 C 202.744 207.710, 208.001 206.167, 207.999 199.595 C 207.997 195.898, 204.445 191.401, 200.805 190.487 C 198.890 190.007, 197.705 190.401, 196.197 192.019 C 194.299 194.056, 193.044 194.227, 176.770 194.657 L 159.372 195.117 158.072 185.648 C 157.357 180.440, 157.075 175.688, 157.445 175.089 C 157.879 174.387, 163.159 173.998, 172.309 173.994 C 186.031 173.988, 198.504 172.626, 213.861 169.456 C 225.818 166.988, 229.091 164.488, 226.838 159.543 C 225.033 155.582, 225.349 155.588, 200.500 159.038 C 196.650 159.572, 185.400 160.290, 175.500 160.633 L 157.500 161.257 165.192 156.187 C 169.422 153.398, 174.673 149.327, 176.861 147.139 C 181.810 142.190, 189.534 129.040, 191.130 122.847 L 192.328 118.194 199.914 117.082 C 204.106 116.467, 208.619 115.149, 210 114.136 C 212.873 112.029, 213.670 108.294, 211.792 105.741 C 210.604 104.125, 209.295 104.060, 195.500 104.927 C 187.250 105.445, 174.313 106.169, 166.750 106.537 L 153 107.205 153 95.284 L 153 83.363 162.181 81.735 C 167.746 80.749, 172.457 79.299, 174.141 78.054 C 175.669 76.924, 177.384 76, 177.953 76 C 179.639 76, 185 67.897, 185 65.350 C 185 64.057, 184.092 62.092, 182.983 60.983 C 181.125 59.125, 180.740 59.083, 178.104 60.446 C 176.530 61.260, 175.003 62.549, 174.711 63.311 C 173.842 65.575, 165.952 68.676, 159.162 69.423 L 152.825 70.119 153.162 58.810 C 153.474 48.387, 153.716 47.188, 156.250 43.518 C 159.473 38.852, 159.673 36.919, 157.171 34.655 C 154.889 32.589, 155.068 32.574, 151.486 35.133" stroke="none" fill="black" fill-rule="evenodd"/>
</svg>