<svg xmlns="http://www.w3.org/2000/svg" width="300" height="300" viewBox="0 0 300 300" version="1.1">
	<path d="M 89.923 60.592 C 88.897 61.829, 88.664 67.063, 88.883 84.037 L 89.164 105.889 81.836 109.445 C 77.805 111.400, 74.455 113, 74.390 113 C 74.326 113, 74.039 110.071, 73.751 106.490 C 73.155 99.057, 71.908 97, 67.999 97 C 64.009 97, 62.704 100.744, 63.992 108.500 C 65.276 116.229, 65.286 176.883, 64.006 188 C 63.468 192.675, 63.276 197.286, 63.580 198.248 C 64.378 200.770, 68.795 201.633, 70.775 199.654 C 73.577 196.852, 74.863 182.173, 74.951 152 L 75.034 123.500 80.695 121 C 83.808 119.625, 86.751 118.341, 87.235 118.148 C 88.206 117.758, 88.013 126.981, 85.992 177.500 C 84.875 205.422, 84.858 215.522, 85.898 234 C 87.073 254.859, 87.194 258.172, 86.979 263.410 C 86.796 267.842, 93.709 268.127, 95.786 263.773 C 96.845 261.554, 96.868 256.251, 95.909 235.273 C 94.985 215.056, 95.004 202.709, 95.995 178 C 96.689 160.675, 97.468 138.811, 97.725 129.413 L 98.192 112.326 103.346 110.504 C 106.181 109.502, 108.984 108.510, 109.576 108.301 C 112.581 107.236, 114.464 177.921, 111.607 184.500 L 110.304 187.500 106.831 183.750 C 102.963 179.573, 99.639 178.937, 97.971 182.053 C 97.080 183.719, 97.358 184.935, 99.440 188.488 C 102.674 194.005, 107.065 197.171, 111.666 197.302 C 114.556 197.384, 115.870 196.719, 118.509 193.839 C 123.626 188.255, 124.199 183.528, 123.519 152.500 C 122.356 99.463, 120.492 93.931, 105.453 98.868 C 101.881 100.041, 98.742 101, 98.479 101 C 98.216 101, 98 92.659, 98 82.465 C 98 67.087, 97.725 63.510, 96.385 61.465 C 94.534 58.640, 91.845 58.277, 89.923 60.592 M 209.072 62.688 C 206.045 62.927, 202.507 63.925, 201.072 64.944 C 198.889 66.496, 198.305 66.563, 197.211 65.386 C 196.501 64.624, 194.672 64, 193.146 64 C 189.515 64, 186.992 69.058, 187.020 76.284 C 187.051 84.685, 189.807 103.056, 191.401 105.489 C 193.178 108.201, 198.149 108.483, 208.135 106.436 C 220.654 103.870, 227.316 100.348, 226.827 96.554 C 226.671 95.335, 228.476 92.067, 231.267 88.516 C 237.427 80.681, 239.447 74.983, 237.601 70.652 C 236.862 68.919, 235.072 66.407, 233.623 65.070 C 231.325 62.951, 229.937 62.616, 222.744 62.450 C 218.210 62.344, 212.058 62.451, 209.072 62.688 M 138.655 66.829 C 136.825 68.851, 136.522 73.159, 137.898 77.601 C 138.392 79.195, 139.814 85.450, 141.058 91.500 C 142.303 97.550, 143.730 103.034, 144.230 103.686 C 144.785 104.410, 144.722 105.650, 144.069 106.870 C 142.164 110.430, 142.771 113.939, 145.507 115.185 C 147.656 116.164, 148.888 115.876, 154.147 113.164 C 157.521 111.424, 161.807 110, 163.673 110 C 169.187 110, 174 107.518, 174 104.673 C 174 103.302, 173.070 101.627, 171.866 100.827 C 169.928 99.540, 169.876 99.267, 171.302 97.841 C 173.723 95.420, 179.514 83.988, 180.706 79.277 C 182.138 73.613, 179.992 69.200, 174.570 66.657 C 169.523 64.291, 155.257 64.623, 150.169 67.224 C 146.977 68.856, 146.750 68.845, 144.731 66.964 C 142.111 64.523, 140.769 64.493, 138.655 66.829 M 198.780 85.798 C 199.037 92.784, 199.382 98.652, 199.545 98.838 C 199.709 99.023, 203.703 97.918, 208.421 96.382 C 214.823 94.297, 217 93.147, 217 91.853 C 217 90.899, 217.495 89.812, 218.100 89.438 C 219.995 88.267, 227 76.781, 227 74.845 C 227 73.217, 226.125 73, 219.549 73 C 215.451 73, 209.855 73.481, 207.113 74.069 C 203.700 74.801, 201.525 74.816, 200.219 74.117 C 198.377 73.131, 198.327 73.538, 198.780 85.798 M 155.081 76.368 C 149.051 77.641, 148.386 78.514, 149.843 83.241 C 150.396 85.034, 151.139 89.919, 151.495 94.098 C 152.140 101.668, 152.152 101.694, 154.821 101.217 C 158.516 100.557, 160.075 98.988, 163.162 92.819 C 169.202 80.752, 170.512 76.936, 168.952 75.949 C 167.085 74.768, 161.922 74.924, 155.081 76.368 M 193 120.027 C 174.631 121.418, 162.044 125.232, 158.630 130.442 C 157.708 131.849, 156.627 132.995, 156.227 132.989 C 155.827 132.982, 154.684 131.273, 153.687 129.190 C 151.573 124.773, 148.673 122.652, 145.936 123.520 C 142.431 124.633, 141.838 127.380, 144.033 132.342 C 145.135 134.833, 146.887 140.838, 147.927 145.686 C 149.667 153.794, 153.541 172.433, 154.589 177.735 C 155.213 180.893, 159.808 181.938, 161.919 179.401 C 163.230 177.825, 164.569 177.558, 169.750 177.839 L 176 178.178 176 189.089 L 176 200 171.250 200.050 C 168.637 200.077, 157.923 200.463, 147.441 200.907 C 130.094 201.643, 127.938 201.937, 123.441 204.180 C 119.206 206.292, 118.500 207.062, 118.500 209.572 C 118.500 213.074, 116.060 212.956, 150.848 211.136 C 164.239 210.436, 175.466 210.133, 175.797 210.463 C 176.127 210.794, 175.875 228.833, 175.237 250.550 C 174.599 272.267, 174.319 290.668, 174.616 291.441 C 176.050 295.179, 181.047 293.863, 182.785 289.288 C 184.377 285.098, 186.835 245.514, 186.943 222.329 L 187 210.159 189.750 209.591 C 191.262 209.279, 198.125 208.568, 205 208.012 C 237.506 205.379, 240.245 205.047, 243.824 203.297 C 246.830 201.827, 247.500 200.959, 247.500 198.530 C 247.500 194.999, 243.561 192.290, 241.235 194.220 C 240.496 194.833, 234.403 195.673, 227.696 196.087 C 220.988 196.501, 209.243 197.331, 201.595 197.931 C 193.947 198.531, 187.594 198.905, 187.478 198.761 C 187.361 198.618, 186.954 193.388, 186.572 187.139 L 185.879 175.778 189.689 176.309 C 191.785 176.600, 194.740 177.153, 196.256 177.537 C 199.607 178.386, 202 176.677, 202 173.434 C 202 171.909, 203.042 170.497, 205.041 169.317 C 211.356 165.586, 220.152 152.256, 224.528 139.784 C 227.610 130.999, 227.379 126.644, 223.645 123.136 C 219.218 118.977, 213.940 118.442, 193 120.027 M 189.250 130.723 L 186 131.127 186 138.153 L 186 145.180 194.391 144.481 C 202.103 143.838, 202.952 143.952, 204.891 145.891 C 206.051 147.051, 207 148.380, 207 148.845 C 207 150.864, 203.032 152.918, 197 154.021 C 193.425 154.674, 189.488 155.395, 188.250 155.624 C 186.283 155.986, 186 156.648, 186 160.891 L 186 165.744 190.134 166.406 C 194.956 167.176, 196.136 166.370, 202.256 158.127 C 206.599 152.278, 213.646 138.019, 214.633 133.086 L 215.250 130 203.875 130.160 C 197.619 130.248, 191.037 130.502, 189.250 130.723 M 166.998 136.230 C 161.774 137.917, 157.426 139.343, 157.336 139.399 C 157.245 139.454, 157.696 141.826, 158.337 144.669 C 159.434 149.538, 159.614 149.755, 161.442 148.419 C 162.509 147.638, 164.590 147, 166.066 147 C 167.542 147, 170.077 146.735, 171.699 146.410 C 174.429 145.864, 174.727 145.360, 175.693 139.660 C 176.267 136.272, 176.682 133.424, 176.616 133.331 C 176.550 133.238, 172.222 134.543, 166.998 136.230 M 164.933 157.718 L 161.367 158.099 162.375 163.299 C 162.930 166.160, 163.448 168.612, 163.525 168.750 C 163.603 168.887, 166.217 168.488, 169.333 167.862 L 175 166.724 175 161.862 C 175 156.464, 175.341 156.605, 164.933 157.718" stroke="none" fill="black" fill-rule="evenodd"/>
</svg>