<svg xmlns="http://www.w3.org/2000/svg" width="300" height="300" viewBox="0 0 300 300" version="1.1">
	<path d="M 144.508 9.635 C 141.803 12.340, 143.105 20.303, 147.057 25.220 C 149.650 28.447, 156 40.701, 156 42.478 C 156 42.765, 147.787 42.999, 137.750 42.999 C 127.713 42.998, 115.900 43.432, 111.500 43.964 C 107.100 44.496, 98.869 45.424, 93.209 46.028 L 82.919 47.124 80.058 44.062 C 76.725 40.494, 74.052 40.180, 71.455 43.050 C 69.820 44.857, 69.752 45.480, 70.887 48.300 C 72.515 52.342, 73.680 56.443, 76.060 66.500 C 80.809 86.572, 75.808 144.900, 64.914 196.500 C 60.754 216.203, 59.698 220.743, 57.886 226.709 C 56.849 230.124, 56 233.537, 56 234.294 C 56 235.051, 55.173 238.332, 54.161 241.585 C 53.150 244.838, 51.288 250.875, 50.024 255 C 48.760 259.125, 46.331 265.093, 44.625 268.262 C 41.053 274.901, 41.608 277.291, 46.841 277.813 C 52.067 278.333, 55.177 273.965, 61.177 257.674 C 63.964 250.106, 66.361 242.072, 67.644 236 C 67.934 234.625, 68.975 230.800, 69.956 227.500 C 77.257 202.957, 85.343 150.281, 87.993 110 C 89.381 88.911, 89.269 79.777, 87.477 67.849 C 86.640 62.274, 86.077 57.624, 86.227 57.516 C 88.063 56.200, 115.970 54.719, 151.500 54.053 C 217.190 52.822, 233.901 51.740, 238.438 48.422 C 240.841 46.664, 240.741 42.296, 238.240 39.795 C 236.399 37.955, 235.777 37.883, 230.865 38.949 C 226.629 39.868, 185.662 41.799, 167 41.959 L 163.500 41.989 163.432 35.745 C 163.364 29.560, 160.874 22.935, 156.576 17.500 C 155.706 16.400, 153.967 13.925, 152.713 12 C 150.102 7.995, 147.032 7.111, 144.508 9.635 M 138.750 79.080 C 137.336 79.903, 137.004 81.484, 137.020 87.300 C 137.031 91.260, 137.461 97.425, 137.977 101 C 138.492 104.575, 139.358 113.003, 139.901 119.730 C 140.886 131.935, 143.487 141, 146.003 141 C 148.883 141, 145.429 142.957, 140.794 143.951 C 135.914 144.997, 130.028 148.486, 127.282 151.959 C 125.451 154.275, 125.728 157, 127.795 157 C 130.658 157, 149.315 152.888, 151.342 151.810 C 152.355 151.272, 155.909 149.937, 159.238 148.844 C 164.176 147.223, 165.463 147.100, 166.217 148.178 C 167.746 150.366, 166.340 229.631, 164.553 242 C 162.406 256.859, 161.484 260.020, 158.570 262.525 C 155.550 265.119, 155.274 268.033, 157.829 270.345 C 161.741 273.885, 168.289 271.198, 171.680 264.662 C 174.127 259.944, 176.907 246.705, 177.647 236.250 L 178.302 227 181.407 227 C 186.373 227, 190.573 225.418, 195.411 221.724 C 200.383 217.927, 207.761 209.310, 210.376 204.245 L 212.057 200.990 216.278 205.762 C 226.354 217.150, 240.435 227.123, 251.850 230.956 C 257.149 232.736, 258.764 232.903, 261.601 231.967 C 266.402 230.382, 267.296 226.511, 263.596 223.329 C 262.107 222.048, 260.262 221, 259.497 221 C 257.595 221, 250.150 216.959, 242.693 211.879 C 235.700 207.116, 227.749 199.825, 221.718 192.646 C 217.826 188.014, 217.698 187.649, 218.913 184.646 C 223.750 172.692, 225.864 166.679, 230.571 151.500 C 231.725 147.776, 232.501 141.958, 232.616 136.164 C 232.780 127.931, 233.050 126.653, 234.901 125.357 C 236.338 124.350, 237 122.807, 237 120.462 C 237 115.379, 234.024 115.061, 222.727 118.937 C 217.652 120.678, 211.925 122.593, 210 123.193 C 208.075 123.792, 205.957 124.485, 205.294 124.731 C 204.372 125.074, 204.339 124.392, 205.154 121.840 C 206.414 117.890, 207.818 110.459, 208.617 103.500 C 209.127 99.064, 208.910 98.237, 206.694 96.168 C 201.333 91.163, 196.377 95.569, 194.973 106.586 C 194.192 112.713, 192.490 118.556, 188.587 128.500 C 187.939 130.150, 185.482 135.271, 183.128 139.881 L 178.846 148.261 176.520 143.240 C 174.661 139.228, 173.483 137.985, 170.660 137.053 C 167.252 135.928, 160.254 136.590, 155.811 138.457 C 153.768 139.316, 153.357 137.256, 152.530 122 C 151.743 107.474, 149.008 88.102, 147.235 84.500 C 144.235 78.403, 142.173 77.086, 138.750 79.080 M 173.179 95.572 C 172.452 96.395, 170.930 99.190, 169.796 101.784 C 167.833 106.273, 159.731 118.225, 155.765 122.483 C 154.604 123.728, 154.020 125.604, 154.204 127.488 C 154.466 130.154, 154.911 130.534, 158.075 130.800 C 161.363 131.076, 162.212 130.509, 168.620 123.763 C 180.149 111.626, 185.564 99.707, 181.429 95.571 C 179.455 93.598, 174.922 93.599, 173.179 95.572 M 105.193 117.063 C 103.303 120.088, 104.510 122.460, 109.912 126.341 C 112.560 128.244, 116.701 132.333, 119.113 135.430 C 124.356 142.158, 129.434 144.389, 133.855 141.908 C 137.297 139.976, 137.674 137.524, 134.872 135.295 C 133.631 134.308, 131.240 131.949, 129.558 130.053 C 127.876 128.157, 123.889 123.994, 120.699 120.803 C 115.468 115.571, 114.483 115, 110.689 115 C 107.522 115, 106.163 115.510, 105.193 117.063 M 220 132.980 C 219.175 133.454, 215.800 134.814, 212.500 136.001 C 198.574 141.013, 195.263 143.038, 190.960 149.172 C 188.712 152.378, 186.488 155, 186.018 155 C 185.548 155, 184.498 155.256, 183.684 155.568 C 182.855 155.886, 181.242 155.116, 180.017 153.818 L 177.829 151.500 178.627 163 C 179.065 169.325, 179.404 184.248, 179.379 196.162 L 179.334 217.824 181.818 216.879 C 188.991 214.152, 195.580 206.772, 200.722 195.705 L 202.950 190.910 198.413 185.340 C 190.372 175.468, 188.694 172.440, 189.956 170.082 C 191.740 166.748, 193.752 167.436, 203.048 174.556 L 208.596 178.806 212.772 166.153 C 220.115 143.900, 223.395 131.937, 222.119 132.059 C 221.778 132.091, 220.825 132.506, 220 132.980 M 116.452 149.765 C 114.280 151.288, 111.765 163.964, 110.950 177.500 C 110.486 185.200, 109.620 195.100, 109.025 199.500 C 107.365 211.791, 106.037 237.085, 106.847 241 C 107.417 243.756, 108.106 244.563, 110.088 244.797 C 114.837 245.358, 115.882 242.677, 118.039 224.396 C 119.136 215.103, 120.413 204.800, 120.878 201.500 L 121.722 195.500 122.012 204.500 C 122.171 209.450, 122.201 214.765, 122.079 216.311 C 121.551 222.970, 128.070 223.950, 136.869 218.535 C 143.325 214.562, 156 202.706, 156 200.641 C 156 199.878, 156.954 197.098, 158.120 194.462 C 161.775 186.200, 159.366 176.637, 152.961 173.984 C 149.120 172.393, 138.444 173.107, 134.199 175.240 C 132.383 176.152, 130.323 176.677, 129.621 176.408 C 128.919 176.139, 127.255 176.333, 125.922 176.839 L 123.500 177.760 123.500 165.961 C 123.500 154.849, 123.359 154.011, 121.076 151.581 C 118.465 148.802, 118.056 148.641, 116.452 149.765 M 137.750 186.658 L 134 188.214 134 196.607 C 134 201.223, 134.373 205, 134.829 205 C 135.285 205, 138.098 203.298, 141.079 201.218 L 146.500 197.436 146.798 191.218 L 147.095 185 144.298 185.052 C 142.759 185.080, 139.813 185.803, 137.750 186.658" stroke="none" fill="black" fill-rule="evenodd"/>
</svg>