<svg xmlns="http://www.w3.org/2000/svg" width="300" height="300" viewBox="0 0 300 300" version="1.1">
	<path d="M 135.189 32.039 C 130.814 36.115, 133.127 42.983, 142.923 55 C 144.940 57.475, 147.364 60.730, 148.308 62.234 C 150.307 65.417, 154.358 66.778, 156.513 64.989 C 160.096 62.015, 157.828 56.096, 145.531 36.336 C 143.899 33.714, 139.359 30, 137.784 30 C 137.560 30, 136.392 30.918, 135.189 32.039 M 192 67.703 C 180.265 68.137, 148.733 70.159, 133 71.487 C 123.925 72.253, 111.894 73.152, 106.265 73.485 C 96.918 74.037, 92.539 75.072, 86.250 78.214 C 82.190 80.242, 83.705 84.059, 89.077 85.338 C 93.280 86.338, 144.223 84.129, 161.162 82.212 L 176.824 80.439 175.412 83.170 C 173.762 86.361, 173.640 89.506, 174.940 95.307 C 181.905 126.391, 183.231 137.049, 180.735 141.902 C 179.429 144.441, 178.453 145.112, 173.283 147.025 C 167.076 149.321, 167.713 155.411, 174.302 156.767 C 181.986 158.348, 189.381 154.932, 192.500 148.359 C 193.988 145.224, 194.170 142.668, 193.731 131.090 C 193.421 122.901, 192.589 115.502, 191.636 112.473 C 190.766 109.708, 189.417 102.878, 188.636 97.294 C 187.856 91.710, 186.493 85.691, 185.609 83.917 C 184.724 82.144, 184 80.599, 184 80.484 C 184 80.370, 186.966 79.972, 190.592 79.601 C 199.966 78.640, 204.319 75.332, 201.973 70.950 C 200.509 68.213, 198.234 67.473, 192 67.703 M 130.555 94.893 C 129.700 96.547, 129 99.744, 129 101.997 C 129 104.250, 128.050 111.360, 126.890 117.797 C 123.927 134.228, 125.138 150.995, 129.609 155.466 C 131.456 157.313, 136.576 157.493, 137.658 155.750 C 138.084 155.063, 138.514 147.300, 138.613 138.500 C 138.711 129.700, 139.326 119.350, 139.979 115.500 C 143.056 97.354, 142.224 92.732, 135.782 92.193 C 132.571 91.924, 131.915 92.263, 130.555 94.893 M 108.736 101.128 C 107.885 101.604, 106.421 104.583, 105.484 107.747 C 101.501 121.198, 100.624 123.635, 98.859 126.154 C 97.837 127.614, 96.992 129.189, 96.982 129.654 C 96.972 130.119, 95.601 132.512, 93.935 134.970 C 91.864 138.028, 91 140.398, 91.203 142.470 C 91.462 145.112, 91.934 145.541, 94.887 145.824 C 97.734 146.096, 98.957 145.477, 102.553 141.948 C 108.146 136.459, 115.950 120.881, 116.688 113.734 C 117.592 104.974, 113.488 98.468, 108.736 101.128 M 210.397 106.554 C 209.433 110.396, 210.550 115.355, 213.347 119.653 C 214.724 121.769, 216.350 125.405, 216.959 127.733 C 218.562 133.852, 223.951 135.881, 225.514 130.955 C 226.377 128.238, 224.160 117.235, 221.832 112.670 C 217.673 104.517, 211.709 101.328, 210.397 106.554 M 145.988 162.282 C 143.597 164.208, 142.112 168.448, 141.402 175.379 L 140.745 181.794 134.122 182.427 C 120.236 183.754, 109.400 185.153, 106.806 185.953 C 104.376 186.703, 104.049 186.500, 103.474 183.882 C 102.661 180.181, 100.477 178, 97.584 178 C 91.591 178, 90.491 185.317, 94.422 199.043 C 95.754 203.694, 97.158 210.555, 97.542 214.288 C 98.426 222.871, 100.529 225.903, 104.602 224.471 C 106.279 223.881, 107.694 222.477, 108.107 220.991 C 109.079 217.500, 109.070 207.311, 108.091 202.250 L 107.269 198 112.513 198 C 115.398 198, 122.851 197.114, 129.076 196.030 C 135.301 194.947, 140.490 194.159, 140.608 194.280 C 140.726 194.401, 140.419 205.952, 139.926 219.950 C 139.072 244.202, 139.749 266.494, 141.834 282.769 C 142.845 290.657, 143.590 291.441, 149.775 291.118 C 151.419 291.033, 152.198 290.237, 152.582 288.250 C 152.874 286.738, 153.200 264.950, 153.307 239.833 C 153.413 214.716, 153.725 193.957, 154 193.702 C 154.680 193.071, 193.309 190.976, 193.873 191.539 C 194.119 191.786, 193.746 194.578, 193.044 197.744 C 191.377 205.260, 185.113 215.840, 180.512 218.914 C 177.520 220.912, 176.950 221.840, 177.199 224.300 C 177.364 225.935, 178.409 227.873, 179.520 228.606 C 181.263 229.756, 182.222 229.621, 186.520 227.621 C 197.210 222.646, 207.036 206.886, 207.795 193.500 C 208.184 186.626, 208.128 186.435, 204.668 182.874 C 202.700 180.849, 199.865 179.060, 198.246 178.823 C 196.652 178.589, 185.932 178.694, 174.424 179.056 C 162.916 179.418, 153.361 179.602, 153.191 179.464 C 153.021 179.327, 152.744 175.622, 152.576 171.231 C 152.408 166.839, 151.958 162.741, 151.576 162.123 C 150.673 160.662, 147.901 160.740, 145.988 162.282" stroke="none" fill="black" fill-rule="evenodd"/>
</svg>