<svg xmlns="http://www.w3.org/2000/svg" width="300" height="300" viewBox="0 0 300 300" version="1.1">
	<path d="M 147.452 9.646 C 146.104 11.101, 145.003 13.014, 145.008 13.896 C 145.022 17, 148.741 27.701, 151.354 32.160 C 152.807 34.641, 153.697 36.969, 153.332 37.335 C 152.966 37.701, 149.954 38, 146.640 38 C 143.325 38, 135.412 38.645, 129.056 39.433 C 122.700 40.221, 110.300 41.607, 101.500 42.513 C 72.320 45.516, 69.596 45.937, 67 47.853 C 63.726 50.269, 63.246 55.038, 65.851 59.276 C 70.503 66.844, 71.092 72.734, 71.158 112.329 C 71.227 153.703, 69.483 175.647, 63.434 209.500 C 62.648 213.900, 61.284 221.550, 60.404 226.500 C 57.674 241.856, 54.926 252.252, 51.914 258.623 C 49.585 263.549, 48.468 264.856, 46.199 265.310 C 44.480 265.654, 42.925 266.870, 42.217 268.424 C 41.217 270.619, 41.356 271.253, 43.216 272.987 C 50.341 279.625, 61.556 269.499, 67.013 251.500 C 70.157 241.126, 73.511 224.186, 77.407 199 C 82.711 164.706, 84.678 133.327, 83.091 108.289 C 82.491 98.822, 82 87.092, 82 82.220 C 82 73.385, 80.285 64.939, 77.452 59.819 C 76.636 58.344, 76.313 56.925, 76.734 56.666 C 77.155 56.407, 82.900 55.692, 89.500 55.078 C 109.461 53.220, 132.657 51.033, 148.500 49.514 C 200.586 44.520, 219.792 42.975, 229.595 42.989 C 236.312 42.998, 237.985 42.674, 239.425 41.083 C 241.735 38.530, 240.089 35.353, 235.452 33.415 C 230.934 31.528, 208.965 31.541, 192.208 33.441 C 185.219 34.234, 176.239 35.108, 172.254 35.383 C 165.050 35.880, 165.005 35.868, 164.366 33.191 C 164.013 31.711, 163.414 30.050, 163.034 29.500 C 161.791 27.698, 159.123 19.584, 158.431 15.500 C 157.662 10.964, 154.560 7, 151.778 7 C 150.748 7, 148.801 8.191, 147.452 9.646 M 132.073 73.635 C 130.282 75.911, 130 77.664, 130 86.516 L 130 96.763 125.635 97.862 C 123.234 98.466, 117.946 99.257, 113.885 99.619 C 104.012 100.499, 101 102.067, 101 106.326 C 101 108.127, 101.540 110.140, 102.200 110.800 C 103.877 112.477, 116.300 112.298, 123 110.500 C 126.025 109.688, 128.838 109.018, 129.250 109.012 C 129.662 109.005, 130 112.564, 130 116.921 C 130 124.746, 129.967 124.848, 127.250 125.454 C 122.916 126.421, 111.543 133.420, 111.171 135.350 C 110.986 136.310, 111.422 137.803, 112.139 138.667 C 113.447 140.243, 119.123 140.156, 127.641 138.430 C 130.779 137.794, 130.783 137.799, 131.208 142.647 C 131.442 145.316, 131.196 148.812, 130.661 150.415 C 129.848 152.855, 130.024 153.601, 131.743 154.993 C 134.044 156.856, 135.300 156.290, 115 162.535 C 101.930 166.557, 99.227 169.137, 104.482 172.580 C 106.413 173.845, 108.856 174.128, 115.482 173.853 C 120.167 173.659, 124 173.777, 124 174.115 C 124 174.453, 123.156 175.803, 122.124 177.115 C 121.093 178.427, 117.985 186.025, 115.218 194 C 110.395 207.906, 109.033 211.377, 104.035 222.500 C 102.800 225.250, 101.102 229.075, 100.262 231 C 99.422 232.925, 97.895 236.330, 96.867 238.566 C 94.692 243.301, 94.543 245.143, 96.200 246.800 C 101.276 251.876, 107.759 243.469, 119.951 216 C 124.881 204.895, 125.751 203.536, 127.753 203.820 C 128.993 203.996, 132.450 203.430, 135.436 202.562 C 138.422 201.694, 143.662 200.691, 147.080 200.334 C 152.431 199.775, 153.484 199.941, 154.648 201.533 C 157.997 206.113, 154.431 236.687, 148.587 253.500 C 147.273 257.280, 146.951 257.516, 142.736 257.799 C 139.096 258.043, 138.066 258.559, 137.134 260.606 C 135.740 263.665, 136.802 266.011, 140.902 268.930 C 144.618 271.577, 149.350 271.565, 153.663 268.899 C 158.207 266.091, 161.149 259.937, 164.986 245.209 C 166.406 239.761, 168.955 217.250, 168.980 209.932 C 169.007 202.233, 166.657 195.003, 162.983 191.483 C 160.071 188.694, 159.407 188.529, 149.673 188.168 C 140.344 187.823, 138.961 188.014, 134.214 190.304 C 128.690 192.969, 128.482 192.966, 129.906 190.236 C 131.002 188.135, 133.703 177.885, 134.483 172.861 C 135.093 168.936, 135.051 168.963, 146.500 165.155 C 161.037 160.321, 166.312 156.908, 165.289 152.997 C 164.980 151.814, 163.652 150.438, 162.339 149.939 C 159.752 148.955, 152.043 150.248, 146.376 152.616 C 144.554 153.377, 142.359 154, 141.497 154 C 140.172 154, 140.121 153.653, 141.167 151.750 C 141.847 150.512, 142.651 145.939, 142.952 141.586 L 143.500 133.672 152.865 130.387 C 158.015 128.581, 163.078 126.335, 164.115 125.396 C 166.758 123.004, 166.500 119.605, 163.555 118.029 C 160.874 116.595, 158.269 116.895, 147.750 119.849 L 141 121.745 141.100 116.623 C 141.256 108.587, 142.123 106.548, 145.540 106.185 C 149.482 105.766, 160.181 102.475, 163.967 100.517 C 169.320 97.749, 166.897 90.087, 161.092 91.424 C 159.666 91.753, 155.575 92.477, 152 93.033 C 148.425 93.589, 144.713 94.289, 143.750 94.589 C 142.242 95.059, 142 94.435, 142 90.082 C 142 85.184, 140.650 77.860, 138.898 73.250 C 137.747 70.220, 134.620 70.397, 132.073 73.635 M 199.348 81.995 C 197.136 82.887, 195.983 86.555, 194.474 97.500 C 192.809 109.569, 184.539 133.107, 177.784 145 C 172.136 154.946, 171.998 155.293, 173.164 156.697 C 173.758 157.414, 175.681 158, 177.435 158 C 181.073 158, 183.810 155.464, 188.969 147.317 C 192.515 141.715, 192.169 141.860, 205.500 140.402 C 208.800 140.042, 214.321 138.478, 217.769 136.927 C 223.703 134.259, 223.956 134.224, 222.519 136.277 C 221.683 137.469, 221 139.595, 221 141 C 221 142.405, 220.422 144.443, 219.715 145.527 C 219.008 146.612, 217.619 149.975, 216.630 153 C 215.640 156.025, 214.439 159.400, 213.960 160.500 C 213.481 161.600, 211.903 165.425, 210.452 169 C 209.001 172.575, 207.406 175.928, 206.907 176.450 C 206.408 176.973, 206 178.210, 206 179.200 C 206 180.190, 205.735 181, 205.410 181 C 203.864 181, 195 168.774, 195 166.641 C 195 164.531, 192.221 162, 189.904 162 C 185.170 162, 186.060 173.201, 191.551 182.744 C 199.779 197.043, 199.308 195.827, 197.968 199.287 C 194.718 207.679, 185.385 225.358, 182.306 228.956 C 178.587 233.301, 178.118 237.434, 181.132 239.319 C 185.715 242.187, 195.951 231.695, 203.538 216.352 L 207.577 208.185 213.538 215.843 C 226.279 232.207, 246.418 251.340, 258.500 258.558 C 266.950 263.606, 267.922 264.037, 273.030 265.006 C 278.655 266.072, 280.608 265.601, 282.099 262.815 C 283.592 260.025, 280.982 256.479, 276.296 254.933 C 268.176 252.253, 249.994 239.019, 240.476 228.860 C 227.917 215.456, 212.475 194.353, 213.922 192.572 C 216.629 189.240, 230.987 150.067, 230.994 145.993 C 230.997 144.065, 231.441 140.950, 231.980 139.071 C 233.161 134.951, 231.938 133.014, 228.128 132.970 C 225.876 132.944, 226.293 132.479, 231.043 129.720 C 239.824 124.619, 242.949 122.050, 243.619 119.382 C 244.287 116.721, 241.965 114.093, 238.894 114.032 C 238.010 114.014, 231.710 116.642, 224.894 119.872 C 212.109 125.930, 199.455 130.799, 198.652 129.971 C 198.401 129.712, 199.442 125.450, 200.966 120.500 C 206.568 102.302, 207.191 99.593, 207.292 92.990 C 207.367 88.164, 206.908 85.509, 205.675 83.627 C 203.858 80.853, 202.833 80.589, 199.348 81.995" stroke="none" fill="black" fill-rule="evenodd"/>
</svg>