<svg xmlns="http://www.w3.org/2000/svg" width="300" height="300" viewBox="0 0 300 300" version="1.1">
	<path d="M 146.189 10.039 C 143.582 12.467, 143.445 14.781, 145.609 19.782 C 146.494 21.827, 148.447 27.178, 149.949 31.674 L 152.680 39.847 144.090 40.508 C 139.365 40.871, 129.650 42.055, 122.500 43.139 C 115.350 44.223, 104.964 45.511, 99.420 46.001 C 93.876 46.492, 87.366 47.573, 84.952 48.404 C 81.107 49.729, 80.366 49.736, 78.954 48.458 C 76.573 46.303, 74.401 46.675, 72.073 49.635 C 69.348 53.099, 69.455 55.424, 72.444 57.667 C 74.242 59.016, 75.695 62.242, 77.944 69.880 C 80.904 79.933, 81 80.893, 81.014 100.380 C 81.029 122.534, 79.061 139.558, 72.446 174.500 C 68.287 196.471, 67.076 201.290, 60.760 221 C 55.891 236.198, 54.111 240.633, 47.409 254.274 C 43.268 262.703, 44.003 265.948, 50.063 265.985 C 53.819 266.007, 56.918 262.020, 63.262 249 C 68.789 237.658, 71.290 231.213, 76.259 215.500 C 80.221 202.973, 87.281 167.637, 89.046 151.500 C 89.528 147.100, 90.837 137.425, 91.956 130 C 95.401 107.141, 94.407 84.204, 89.170 65.750 L 87.255 59 90.851 59 C 92.829 59, 103.234 57.868, 113.973 56.485 C 124.713 55.102, 140.475 53.072, 149 51.973 C 157.525 50.874, 172.375 49.529, 182 48.984 C 201.110 47.901, 216.327 45.803, 218.570 43.942 C 220.598 42.259, 220.390 37.255, 218.250 36.241 C 216.412 35.371, 184.914 36.229, 171.904 37.504 L 164.309 38.248 163.108 32.142 C 162.447 28.783, 160.818 23.036, 159.489 19.370 C 155.610 8.677, 151.070 5.491, 146.189 10.039 M 133.859 73.692 C 131.158 75.368, 129.634 79.040, 128.402 86.836 C 128.025 89.220, 127.205 91.368, 126.579 91.608 C 125.954 91.848, 120.325 92.414, 114.072 92.866 C 101.652 93.764, 100 94.621, 100 100.168 C 100 105.841, 107.925 107.738, 122.493 105.553 L 127 104.877 126.994 109.689 C 126.991 112.335, 126.480 117.200, 125.859 120.500 C 124.625 127.061, 124.393 130.694, 125.064 132.991 C 125.413 134.186, 123.717 134.684, 116.553 135.491 C 107.885 136.469, 107.546 136.604, 105.663 139.833 C 103.180 144.090, 103.247 150.464, 105.948 167.233 C 107.077 174.237, 108 181.690, 108 183.795 C 108 190.371, 113.285 193.779, 117.450 189.888 C 117.972 189.399, 120.110 189, 122.200 189 L 126 189 126 196.453 L 126 203.906 122.250 204.947 C 120.188 205.520, 117.677 205.991, 116.671 205.994 C 115.664 205.997, 111.937 207.162, 108.387 208.582 C 103.497 210.538, 100.996 211.006, 98.072 210.512 C 94.773 209.955, 93.978 210.193, 92.606 212.152 C 90.319 215.417, 90.617 218.708, 93.455 221.545 C 96.808 224.899, 104.812 224.932, 112.780 221.627 C 115.926 220.323, 120.188 218.952, 122.250 218.582 L 126 217.909 126.008 223.205 C 126.022 233.352, 130.083 253.185, 132.774 256.250 C 134.862 258.629, 139.651 258.522, 140.965 256.066 C 142.385 253.413, 142.264 250.112, 140.500 243.339 C 139.601 239.887, 139 233.115, 139 226.436 L 139 215.293 145.792 214.171 C 155.305 212.600, 165.014 209.335, 167.714 206.799 C 170.631 204.058, 170.647 200.465, 167.750 198.591 C 165.780 197.316, 164.815 197.317, 160 198.598 C 156.975 199.402, 151.012 200.338, 146.750 200.678 L 139 201.296 139 194.188 L 139 187.080 142.750 185.995 C 144.813 185.398, 148.479 184.588, 150.897 184.194 C 155.586 183.432, 155.791 183.198, 158.494 175.500 C 159.459 172.750, 160.928 168.700, 161.758 166.500 C 163.791 161.109, 164.541 148.169, 163.077 143.734 C 161.248 138.192, 158.829 136.171, 151.898 134.393 C 147.276 133.208, 143.438 132.926, 138.074 133.378 L 130.647 134.004 132.698 131.752 C 135.776 128.371, 138.664 119.436, 139.450 110.857 L 140.151 103.213 146.325 101.042 C 156.774 97.367, 157.862 96.857, 160.536 94.379 C 163.179 91.929, 163.215 88.478, 160.615 86.765 C 158.793 85.565, 153.544 85.897, 149 87.500 C 142.388 89.833, 141.642 89.593, 142.330 85.357 C 142.655 83.353, 143.839 80.736, 144.960 79.542 C 147.411 76.934, 147.511 75.654, 145.429 73.571 C 143.391 71.534, 137.233 71.598, 133.859 73.692 M 211.573 93.159 C 209.413 94.298, 205.187 96.076, 202.181 97.110 C 199.176 98.143, 196.093 99.508, 195.330 100.141 C 194.225 101.058, 193.218 100.447, 190.393 97.146 C 187.792 94.107, 186.093 93, 184.029 93 C 180.386 93, 180.031 94.166, 181.119 102.549 C 182.823 115.671, 183.310 143.085, 182.079 156.500 C 180.846 169.920, 177.762 188.344, 173.540 207.500 C 172.207 213.550, 170.587 221.200, 169.941 224.500 C 169.295 227.800, 168.144 231.715, 167.383 233.200 C 166.622 234.686, 166 237.948, 166 240.450 C 166 245.702, 168.507 249, 172.500 249 C 177.801 249, 178.412 247.325, 186.552 210.500 C 187.889 204.450, 189.224 197.857, 189.518 195.849 C 190.043 192.268, 190.127 192.207, 193.846 192.706 C 196.454 193.056, 199.082 192.557, 202.264 191.107 C 204.809 189.948, 207.207 189, 207.595 189 C 207.983 189, 210.695 187.787, 213.622 186.305 C 216.549 184.823, 219.201 183.868, 219.516 184.182 C 219.830 184.497, 219.321 201.776, 218.384 222.582 C 216.707 259.832, 216.645 260.446, 214.340 262.751 C 211.354 265.737, 211.397 267.130, 214.589 270.923 C 216.667 273.393, 217.949 274, 221.089 274 C 229.678 274, 230.394 270.418, 232.496 217 C 234.867 156.715, 234.482 139.664, 230.064 109.416 C 227.884 94.489, 225.940 91.117, 219.500 91.100 C 217.300 91.093, 213.733 92.020, 211.573 93.159 M 212 105.989 C 210.075 107.036, 206.173 108.392, 203.329 109.001 C 196.538 110.456, 196 112.092, 196 131.263 L 196 146.227 200.750 145.515 C 203.363 145.123, 206.240 144.407, 207.145 143.922 C 208.050 143.438, 211.375 142.738, 214.535 142.367 L 220.280 141.692 219.622 131.596 C 218.819 119.281, 216.847 103.985, 216.070 104.042 C 215.756 104.065, 213.925 104.941, 212 105.989 M 127.362 147.267 L 116.225 148.255 116.739 152.378 C 117.367 157.416, 118.227 158.480, 120.643 157.205 C 124.689 155.070, 138.280 152.785, 144.556 153.184 C 150.520 153.564, 150.999 153.442, 150.985 151.547 C 150.976 150.421, 150.639 148.998, 150.235 148.385 C 149.091 146.649, 139.573 146.184, 127.362 147.267 M 212.500 156.120 C 209.200 157.217, 203.800 158.670, 200.500 159.349 L 194.500 160.584 193.868 169.542 C 193.521 174.469, 193.328 178.607, 193.440 178.738 C 193.681 179.021, 205.003 175.194, 213.643 171.908 C 219.687 169.609, 219.797 169.500, 220.393 165.146 C 221.367 158.046, 221.131 153.993, 219.750 154.063 C 219.063 154.098, 215.800 155.023, 212.500 156.120 M 129 167.899 L 119.500 169.564 119.617 173.316 C 119.681 175.379, 120.005 177.339, 120.337 177.670 C 120.668 178.001, 123.765 177.710, 127.219 177.024 C 130.674 176.337, 135.483 175.562, 137.907 175.303 C 144.732 174.572, 146.497 173.545, 147.708 169.600 L 148.813 166 143.656 166.117 C 140.820 166.182, 134.225 166.984, 129 167.899" stroke="none" fill="black" fill-rule="evenodd"/>
</svg>