<svg xmlns="http://www.w3.org/2000/svg" width="300" height="300" viewBox="0 0 300 300" version="1.1">
	<path d="M 145.250 9.522 C 142.485 11.478, 142.240 16.595, 144.667 21.710 C 146.626 25.838, 158.046 37.563, 161.032 38.510 C 163.416 39.267, 168 36.675, 168 34.571 C 168 33.810, 165.637 29.743, 162.750 25.534 C 159.863 21.325, 156.427 15.996, 155.115 13.691 C 153.804 11.386, 152.678 9.424, 152.613 9.331 C 152.549 9.238, 151.372 8.885, 149.998 8.547 C 148.445 8.164, 146.649 8.533, 145.250 9.522 M 233.637 35.778 C 232.521 37.584, 147.732 44.504, 101.500 46.562 C 86.122 47.247, 82 48.547, 82 52.716 C 82 55.833, 85.413 59.003, 88.750 58.986 C 90.263 58.978, 100.500 58.299, 111.500 57.476 C 122.500 56.654, 140.950 55.566, 152.500 55.058 C 195.814 53.156, 238.277 48.964, 241.222 46.299 C 243.306 44.413, 243.496 40.237, 241.610 37.753 C 240.066 35.719, 234.522 34.346, 233.637 35.778 M 71.815 51.750 C 70.547 54.823, 70.521 58.449, 71.530 92 C 73.096 144.061, 65.471 201.482, 51.943 239.500 C 44.567 260.231, 39.285 271.300, 35.821 273.288 C 29.928 276.670, 31.425 281, 38.488 281 C 44.861 281, 47.268 278.414, 54.476 263.821 C 62.356 247.870, 66.803 234.607, 71.851 212 C 78.239 183.400, 80.576 162.672, 82.002 122 C 82.853 97.707, 82.774 89.588, 81.555 76 C 79.679 55.088, 78.055 49, 74.353 49 C 73.582 49, 72.440 50.237, 71.815 51.750 M 162.827 64.738 C 158.830 68.028, 155.366 71.694, 152.017 76.176 C 146.025 84.199, 127.613 102.028, 113.476 113.500 C 110.765 115.700, 106.906 118.963, 104.902 120.750 C 102.898 122.537, 100.187 124.007, 98.879 124.015 C 95.946 124.034, 94.599 124.910, 93.523 127.500 C 92.441 130.105, 92.833 133.158, 94.467 134.850 C 96.237 136.682, 102.031 136.552, 105.816 134.595 C 108.867 133.018, 129.187 115.912, 131.872 112.662 C 133.585 110.588, 135.132 110.492, 134.359 112.508 C 134.040 113.337, 134.479 115.082, 135.333 116.385 C 136.653 118.400, 138.019 118.861, 144.470 119.465 C 151.056 120.082, 179.651 118.765, 188.575 117.434 C 194.734 116.515, 197.874 111.017, 194.287 107.430 C 192.719 105.862, 190.297 105.777, 165.537 106.421 L 138.500 107.124 145.595 99.812 C 149.497 95.790, 154.851 89.688, 157.492 86.250 C 160.134 82.813, 162.500 80, 162.751 80 C 163.001 80, 165.352 81.912, 167.974 84.250 C 173.890 89.523, 184.944 95.206, 202.500 102 C 206.900 103.703, 211.850 105.689, 213.500 106.415 C 215.150 107.140, 218.975 108.525, 222 109.493 C 225.025 110.460, 228.534 111.645, 229.797 112.126 C 233.417 113.503, 240.613 113.171, 241.946 111.565 C 242.601 110.776, 242.993 108.639, 242.818 106.815 C 242.513 103.636, 242.180 103.392, 234.692 100.876 C 230.397 99.432, 224.997 97.472, 222.692 96.519 C 213.890 92.882, 209.272 91.033, 202.500 88.433 C 188.814 83.178, 181.337 79.345, 171.134 72.353 C 170.933 72.215, 171.273 70.655, 171.890 68.886 C 172.820 66.218, 172.728 65.357, 171.351 63.835 C 169.048 61.291, 166.715 61.538, 162.827 64.738 M 206 128.098 C 197.677 129.320, 165.226 132.032, 159.130 132.015 C 151.738 131.994, 126.148 135.872, 123.026 137.487 C 120.892 138.590, 120.033 138.573, 117.758 137.381 C 114.323 135.582, 111.346 137.147, 110.451 141.224 C 109.566 145.253, 115.934 166.653, 119.237 170.750 C 120.662 172.517, 124.556 172.301, 126.512 170.345 C 128.496 168.361, 128.176 161.074, 125.787 153.836 L 124.247 149.172 132.874 147.518 C 137.618 146.608, 146.177 145.601, 151.894 145.281 L 162.288 144.698 161.580 151.883 C 160.624 161.589, 159.434 164.684, 156.439 165.256 C 154.820 165.566, 154 165.265, 154 164.361 C 154 163.613, 153.662 162.998, 153.250 162.996 C 152.838 162.993, 150.128 161.193, 147.230 158.996 C 141.394 154.571, 139.120 154.105, 136.655 156.829 C 133.296 160.540, 135.239 164.936, 141.380 167.518 L 144.348 168.765 139.924 169.488 C 133.085 170.606, 128.086 176.668, 132.582 178.393 C 136.060 179.728, 155.963 178.944, 165.091 177.112 C 170.266 176.073, 181.250 174.658, 189.500 173.967 C 205.333 172.640, 208.334 171.591, 207.841 167.554 C 207.673 166.184, 209.581 163.501, 213.569 159.500 C 220.080 152.967, 226 142.334, 226 137.174 C 226 128.024, 221.233 125.861, 206 128.098 M 198.351 141.628 C 197.519 141.969, 197.600 142.895, 198.642 144.984 C 199.887 147.480, 199.890 148.327, 198.666 151.257 C 197.887 153.121, 195.797 156.300, 194.022 158.323 C 191.586 161.096, 191.198 162, 192.439 162 C 194.248 162, 204 153.331, 204 151.723 C 204 151.172, 204.606 150.221, 205.347 149.610 C 206.087 149, 207.699 146.813, 208.928 144.750 L 211.163 141 205.332 141.079 C 202.124 141.122, 198.983 141.370, 198.351 141.628 M 186.500 142.668 C 184.300 142.851, 180.700 143.237, 178.500 143.525 L 174.500 144.050 174.460 149.775 C 174.437 153, 173.706 156.919, 172.786 158.750 C 171.670 160.972, 171.524 161.997, 172.327 161.989 C 173.925 161.975, 181.856 154.404, 185.411 149.500 C 187.006 147.300, 189.254 144.723, 190.406 143.772 C 191.558 142.822, 192.050 142.110, 191.500 142.190 C 190.950 142.271, 188.700 142.486, 186.500 142.668 M 168.110 191.047 C 157.742 192.037, 155.785 193.091, 153.941 198.680 C 153.077 201.295, 153.097 202.821, 154.024 205.059 C 155.433 208.460, 157.809 208.827, 161.739 206.250 C 163.837 204.874, 167.116 204.426, 177.062 204.153 C 189.624 203.809, 189.721 203.823, 190.344 206.153 C 191.138 209.116, 191.033 221.084, 190.162 227 L 189.500 231.500 177 231.500 C 170.125 231.500, 160.943 231.882, 156.596 232.350 L 148.691 233.200 149.269 224.281 C 149.587 219.376, 150.403 212.672, 151.082 209.382 C 152.564 202.205, 151.831 198.591, 148.443 196.371 C 144.897 194.047, 141.743 195.681, 140.209 200.636 C 139.012 204.501, 136.977 228.083, 134.999 261 C 133.720 282.302, 133.477 281.836, 145.679 281.470 C 155.404 281.179, 171.303 279.583, 184.743 277.550 C 190.377 276.697, 196.700 276, 198.793 276 C 203.335 276, 205 274.593, 205 270.753 C 205 268.680, 204.234 267.467, 202.177 266.287 C 199.549 264.778, 199.409 264.384, 200.147 260.583 C 205.312 233.989, 206.543 208.800, 203.033 201.500 C 200.661 196.566, 199.263 194.846, 195.785 192.583 C 192.426 190.397, 181.350 189.782, 168.110 191.047 M 180 244.138 C 176.975 244.605, 169.287 245.254, 162.916 245.581 C 156.545 245.909, 150.832 246.486, 150.221 246.863 C 149.287 247.441, 145.685 271.007, 146.418 271.748 C 146.552 271.884, 149.776 270.916, 153.581 269.596 C 157.786 268.137, 165.441 266.691, 173.095 265.908 L 185.690 264.620 186.845 255.947 C 188.310 244.945, 188.295 242.966, 186.750 243.145 C 186.063 243.225, 183.025 243.672, 180 244.138" stroke="none" fill="black" fill-rule="evenodd"/>
</svg>