<svg xmlns="http://www.w3.org/2000/svg" width="300" height="300" viewBox="0 0 300 300" version="1.1">
	<path d="M 146 35 C 143.424 37.576, 143.446 37.871, 147 48.837 C 150.471 59.544, 150.800 63.638, 148.250 64.361 C 146.040 64.988, 138.296 66.414, 125.500 68.551 C 112.670 70.694, 111 71.359, 111 74.324 C 111 79.119, 114.218 80.512, 125 80.383 L 134.786 80.267 133.393 83.601 C 129.888 91.990, 133.847 108.669, 139.867 110.877 C 142.007 111.661, 142.126 111.858, 140.500 111.929 C 129.079 112.423, 119.285 114.756, 111.884 118.745 C 111.545 118.928, 110.959 116.697, 110.581 113.789 C 109.251 103.548, 101.816 96.788, 94.051 98.759 L 90.308 99.709 89.702 75.605 C 89.045 49.468, 88.284 45, 84.490 45 C 82.589 45, 82.069 45.669, 81.578 48.750 C 80.178 57.525, 78 85.071, 78 94.006 C 78 105.127, 78.188 104.820, 68 110.286 L 61.500 113.772 59.703 111.386 C 58.715 110.074, 56.995 109, 55.882 109 C 50.944 109, 49.308 114.848, 50.964 126.572 C 51.580 130.933, 52.492 145.399, 52.991 158.720 C 53.519 172.825, 54.364 183.812, 55.014 185.027 C 55.893 186.668, 56.916 187.048, 59.815 186.806 L 63.500 186.500 64.310 180 C 64.756 176.425, 64.888 162.137, 64.604 148.250 L 64.088 123 67.094 123 C 68.747 123, 71.498 122.277, 73.207 121.393 L 76.315 119.786 75.620 130.143 C 75.238 135.839, 74.505 148.600, 73.991 158.500 C 73.477 168.400, 72.374 184.375, 71.541 194 C 70.524 205.737, 70.021 224.024, 70.013 249.527 C 69.999 290.896, 70.142 292, 75.534 292 C 81.352 292, 81.589 289.955, 83.004 227.500 C 83.503 205.500, 84.597 177.825, 85.435 166 C 86.274 154.175, 87.454 137.525, 88.057 129 C 88.661 120.475, 89.472 113.171, 89.859 112.769 C 90.246 112.367, 91.978 111.754, 93.708 111.408 C 96.686 110.813, 96.910 110.986, 97.905 114.640 C 99.119 119.096, 101.003 136.870, 100.994 143.789 C 100.991 146.380, 100.520 150.188, 99.947 152.250 C 99.076 155.388, 98.465 156.005, 96.203 156.032 C 89.953 156.105, 87.673 162.429, 92.706 165.727 C 96.118 167.962, 102.719 167.885, 106.254 165.569 C 112.073 161.757, 114.592 148.278, 112.682 131.179 C 111.914 124.300, 111.975 123.911, 113.682 124.748 C 114.695 125.245, 120.371 125.313, 126.500 124.903 C 132.550 124.497, 153.324 123.832, 172.665 123.423 L 207.830 122.681 208.467 127.590 C 209.250 133.617, 211.190 142.502, 218.493 173.500 C 220.924 183.816, 221.055 185.423, 219.679 188 C 210.278 205.606, 197.101 226.114, 191.337 232.110 C 189.429 234.096, 185.680 236.745, 183.008 237.996 C 177.348 240.647, 175.779 243.993, 178.688 247.208 C 180.076 248.741, 181.275 249.052, 184.079 248.603 C 193.254 247.136, 199.037 242.779, 208.105 230.500 C 213.674 222.958, 220.823 212.509, 224.499 206.540 L 226.321 203.580 228.034 208.540 C 230.097 214.515, 233.272 223.215, 235.136 228 C 238.588 236.860, 247.995 254.784, 249.495 255.360 C 252.315 256.442, 254.780 256.077, 256.540 254.318 C 258.998 251.859, 257.784 245.226, 253.458 237.492 C 249.518 230.446, 238.894 203.038, 236.537 193.840 L 235.031 187.958 239.628 179.229 C 245.138 168.766, 253.494 153.559, 255.821 149.759 C 257.989 146.219, 256.499 143.500, 252.391 143.500 C 249.852 143.500, 248.342 145.051, 240 156.220 L 230.500 168.941 228.776 163.220 C 227.828 160.074, 226.771 155.475, 226.427 153 C 226.083 150.525, 225.185 146.250, 224.432 143.500 C 223.679 140.750, 222.594 135.487, 222.021 131.804 C 221.448 128.122, 220.711 124.409, 220.383 123.554 C 219.870 122.220, 221.053 122, 228.745 122 C 236.414 122, 238.194 121.671, 241.102 119.718 C 245.146 117.002, 246.178 112.350, 243.299 109.814 C 241.783 108.480, 239.688 108.331, 230 108.865 L 218.500 109.500 216.253 96 C 214.489 85.400, 214.032 78.878, 214.127 65.635 C 214.252 48.154, 214.006 47.056, 209.972 47.015 C 206.394 46.979, 204.857 51.213, 202.536 67.500 C 202.223 69.700, 202.730 79.931, 203.664 90.236 C 204.598 100.540, 205.168 109.164, 204.931 109.399 C 204.694 109.635, 195.532 110.158, 184.572 110.562 L 164.644 111.296 167.353 108.398 C 172.152 103.262, 175.619 95.846, 176.966 87.828 C 178.322 79.763, 177.864 75.632, 175.299 72.785 C 173.886 71.217, 173.976 70.968, 176.357 69.883 C 179.277 68.553, 180.448 65.988, 179.501 63.002 C 178.642 60.296, 175.125 59.593, 169.006 60.905 C 160.266 62.780, 160.534 62.988, 160.233 54.071 C 159.941 45.438, 158.484 40.917, 154.448 36.121 C 151.413 32.513, 148.829 32.171, 146 35 M 231.665 66.226 C 226.742 69.811, 228.491 73.151, 238.075 78.470 C 253.675 87.128, 256.180 87.496, 256.808 81.226 C 257.119 78.115, 256.655 77.522, 248 69.970 C 245.291 67.606, 242.243 66.182, 237.415 65.024 C 235.097 64.469, 233.666 64.768, 231.665 66.226 M 162 74.127 C 160.625 74.677, 156.350 75.772, 152.500 76.560 C 140.115 79.097, 141.132 78.470, 141.655 83.245 C 142.301 89.139, 145.965 103.971, 147.305 106.117 C 148.173 107.507, 148.011 108.330, 146.551 109.944 C 144.719 111.968, 144.730 112, 147.256 112 C 148.950 112, 150.707 110.896, 152.426 108.750 C 153.858 106.963, 155.473 104.956, 156.015 104.292 C 156.557 103.628, 157 102.615, 157 102.042 C 157 101.469, 157.376 101, 157.836 101 C 159.581 101, 163.909 90.209, 164.933 83.308 C 166.596 72.100, 166.649 72.267, 162 74.127 M 146.500 149.106 C 144.300 150.274, 141.488 152.157, 140.250 153.290 C 139.012 154.422, 138 154.836, 138 154.209 C 138 153.583, 137.080 152.578, 135.956 151.976 C 134.230 151.053, 133.473 151.353, 131.087 153.907 C 128.417 156.765, 128.219 157.610, 127.504 169.216 C 127.088 175.972, 126.812 188.925, 126.891 198 C 126.971 207.075, 126.510 217.513, 125.867 221.196 C 124.845 227.055, 124.908 228.211, 126.373 230.446 C 127.293 231.851, 128.857 233, 129.849 233 C 132.125 233, 136 228.949, 136 226.569 C 136 225.135, 136.818 225.506, 140.003 228.384 C 143.400 231.453, 144.714 232, 148.682 232 C 157.937 232, 164.057 228.370, 178.750 214.165 C 187.469 205.736, 189.006 202.243, 185.250 199.392 C 182.417 197.241, 180.429 197.773, 176.429 201.750 C 172.980 205.180, 172.715 205.287, 173.323 203 C 175.427 195.080, 176.182 186.455, 175.802 174.685 C 175.315 159.630, 173.458 153.886, 167.763 149.831 C 163.078 146.495, 152.119 146.121, 146.500 149.106 M 150 161.465 C 148.625 162.254, 145.813 163.646, 143.750 164.558 C 140.004 166.215, 140 166.224, 139.999 172.359 L 139.998 178.500 150.249 178.201 C 155.887 178.036, 161.127 177.688, 161.892 177.428 C 162.977 177.058, 163.151 175.522, 162.681 170.482 C 161.858 161.670, 160.824 159.996, 156.215 160.015 C 154.172 160.023, 151.375 160.675, 150 161.465 M 150 191.014 C 139.741 192.416, 139.385 192.750, 138.613 201.670 C 138.241 205.977, 137.661 211.688, 137.325 214.362 C 136.740 219.007, 136.803 219.176, 138.730 218.144 C 140.361 217.271, 141.107 217.461, 142.619 219.131 C 144.117 220.786, 145.286 221.091, 148.494 220.664 C 150.753 220.363, 152.936 219.389, 153.500 218.431 C 154.050 217.497, 155.508 215.495, 156.741 213.983 C 159 211.211, 161.298 203.511, 162.481 194.750 L 163.123 190 159.311 190.131 C 157.215 190.203, 153.025 190.601, 150 191.014" stroke="none" fill="black" fill-rule="evenodd"/>
</svg>