<svg xmlns="http://www.w3.org/2000/svg" width="300" height="300" viewBox="0 0 300 300" version="1.1">
	<path d="M 178 26.725 C 176.625 26.974, 173.106 29.051, 170.179 31.339 C 162.156 37.613, 158.289 40.429, 149.296 46.545 C 144.783 49.613, 138.718 54.695, 135.816 57.837 L 130.541 63.549 130.831 83.525 C 131.105 102.443, 132.088 112.753, 135.596 133.500 C 137.587 145.268, 138.341 147, 141.479 147 C 143.981 147, 148 143.919, 148 142 C 148 141.355, 158.959 141, 178.878 141 C 205.104 141, 209.943 141.226, 211 142.500 C 212.558 144.377, 214.335 144.395, 217.865 142.570 C 222.802 140.017, 225.917 134.064, 228.965 121.360 C 232.945 104.769, 234.295 93.256, 233.820 79.952 C 233.375 67.513, 231.877 63.007, 226.520 58 C 224.008 55.653, 223.071 55.479, 211.172 55.153 C 195.658 54.728, 179.979 56.721, 153.500 62.485 C 151.781 62.859, 151.851 62.641, 154 60.931 C 155.375 59.838, 159.613 57.092, 163.418 54.829 C 169.026 51.494, 180.569 42.434, 186.643 36.598 C 189.279 34.065, 189.196 31.087, 186.418 28.511 C 183.737 26.027, 182.871 25.843, 178 26.725 M 80.035 30.250 C 78.348 32.038, 75.884 35.658, 74.559 38.296 C 73.234 40.933, 67.736 49.708, 62.341 57.796 C 47.603 79.890, 42.869 88.097, 43.206 90.975 C 43.547 93.889, 48.126 96.588, 50.487 95.267 C 53.309 93.688, 66.013 76.168, 83.909 49.176 C 85.235 47.178, 87.592 43.223, 89.148 40.387 C 91.633 35.859, 91.842 34.845, 90.866 32.045 C 89.887 29.236, 86.837 27, 83.986 27 C 83.499 27, 81.721 28.462, 80.035 30.250 M 98.923 58.173 C 97.034 58.817, 95.737 60.577, 94.060 64.776 C 92.802 67.924, 90.317 72.750, 88.538 75.500 C 86.759 78.250, 82.691 84.775, 79.499 90 C 69.245 106.785, 67.804 109, 67.133 109 C 66.771 109, 66.030 109.894, 65.487 110.986 C 62.958 116.075, 56.574 126, 55.830 126 C 55.374 126, 55 126.480, 55 127.067 C 55 127.653, 53.875 129.608, 52.500 131.411 C 51.125 133.214, 50 134.999, 50 135.378 C 50 135.758, 47.805 139.315, 45.121 143.284 C 42.438 147.253, 39.463 152.038, 38.509 153.917 C 37.556 155.796, 34.126 161.465, 30.888 166.515 C 24.511 176.457, 23.402 181.074, 26.934 182.965 C 32.036 185.695, 35.182 182.871, 48.751 163.382 L 59.500 147.944 60.130 160.222 C 60.477 166.975, 61.105 193.668, 61.525 219.540 L 62.290 266.580 59.645 268.313 C 55.959 270.728, 56.117 274.924, 60.062 279.417 C 63.898 283.787, 66.117 284.508, 69.826 282.590 C 73.281 280.803, 75.497 275.872, 76.519 267.697 C 77.758 257.778, 73.749 138.100, 72.026 133.567 C 71.124 131.195, 71.618 129.819, 76.115 122.185 C 78.928 117.408, 82.753 111.415, 84.615 108.866 C 86.477 106.317, 88 103.990, 88 103.695 C 88 103.400, 90.284 99.475, 93.077 94.973 C 107.956 70.983, 110.160 65.186, 106.228 60.395 C 103.987 57.665, 102.099 57.090, 98.923 58.173 M 200 70.100 C 186.171 71.001, 177.675 72.237, 165.126 75.174 C 156.844 77.112, 150.859 77.006, 146.750 74.849 C 145.129 73.997, 145 74.824, 145 86.072 C 145 97.250, 145.139 98.156, 146.750 97.478 C 147.713 97.073, 154.575 96.115, 162 95.350 C 175.941 93.913, 211.173 94.383, 215.650 96.066 C 218.471 97.127, 218.969 95.224, 218.986 83.315 C 219.003 72.350, 217.990 68.941, 214.775 69.143 C 213.524 69.221, 206.875 69.652, 200 70.100 M 186.500 109.021 C 161.119 109.737, 147.267 110.759, 146.518 111.972 C 145.802 113.130, 147.703 128.103, 148.691 129.091 C 149.210 129.610, 153.103 129.325, 158.040 128.406 C 175.047 125.240, 184.875 125.062, 207.088 127.515 L 213.676 128.243 214.909 120.371 C 215.587 116.042, 216.344 111.487, 216.590 110.250 C 216.986 108.260, 216.661 108.020, 213.769 108.172 C 211.971 108.266, 199.700 108.648, 186.500 109.021 M 153 160.554 C 152.175 160.732, 148.824 161.173, 145.553 161.535 C 140.623 162.081, 139.043 162.757, 136.303 165.497 C 129.949 171.851, 133.468 176.645, 143.719 175.599 C 146.898 175.275, 156.172 174.732, 164.327 174.394 L 179.154 173.778 177.234 177.639 C 176.178 179.763, 174.738 183.629, 174.033 186.231 C 173.328 188.833, 172.244 191.342, 171.625 191.806 C 171.006 192.270, 166 193.454, 160.500 194.436 C 148.925 196.505, 142.645 198.926, 141.030 201.944 C 139.047 205.649, 140.597 207.815, 145.800 208.612 C 152.015 209.564, 161.609 209.595, 166.162 208.679 L 169.824 207.942 170.477 215.721 C 171.108 223.245, 176.357 247.805, 178.046 251.137 C 178.776 252.578, 177.471 252.919, 167.188 253.979 C 160.760 254.641, 151.450 255.815, 146.500 256.588 C 141.550 257.360, 135.821 257.994, 133.769 257.996 C 130.650 257.999, 129.938 258.400, 129.426 260.439 C 128.702 263.323, 131.271 267.286, 135 269.038 C 140.220 271.490, 149.046 271.068, 187.500 266.524 C 216.317 263.119, 233.158 261.655, 252 260.919 C 266.025 260.370, 279.164 259.478, 281.197 258.936 C 286.016 257.652, 291 252.675, 291 249.146 C 291 246.646, 289.196 243.157, 286.441 240.328 C 283.519 237.328, 278.160 238.948, 277.334 243.080 L 276.750 246 257.026 246 C 242.651 246, 231.228 246.677, 214.901 248.495 C 202.581 249.867, 191.598 251.198, 190.496 251.452 C 188.697 251.867, 188.527 251.483, 188.829 247.680 C 189.014 245.350, 188.454 236.290, 187.583 227.545 C 185.449 206.109, 185.363 207.186, 189.250 206.602 C 191.037 206.334, 196.100 205.598, 200.500 204.967 C 213.955 203.037, 219.277 199.600, 217.497 193.989 C 216.406 190.553, 212.236 189.186, 205.500 190.056 C 197.429 191.099, 187 191.186, 187 190.210 C 187 188.157, 190.199 177.465, 191.160 176.307 C 191.960 175.344, 195.961 175, 206.379 175 C 225.101 175, 229.876 173.463, 229.968 167.405 C 230.031 163.254, 227.184 162.150, 213.575 161.045 C 202.056 160.109, 156.776 159.743, 153 160.554" stroke="none" fill="black" fill-rule="evenodd"/>
</svg>