<svg xmlns="http://www.w3.org/2000/svg" width="300" height="300" viewBox="0 0 300 300" version="1.1">
	<path d="M 189.636 13.148 C 187.536 14.880, 183.321 20.167, 180.270 24.898 C 167.620 44.513, 163.374 50.426, 155.260 59.726 C 150.569 65.102, 145.104 71.115, 143.115 73.088 C 141.127 75.062, 138.424 78.839, 137.109 81.481 C 134.051 87.623, 134.925 92.037, 140.010 96.133 C 144.636 99.861, 151.450 101.094, 167.500 101.111 C 178.209 101.122, 182.253 100.674, 190.448 98.570 C 202.612 95.446, 214.735 89.579, 221.798 83.398 C 224.711 80.848, 227.244 78.928, 227.426 79.131 C 227.608 79.334, 228.277 83.981, 228.913 89.459 C 230.150 100.125, 231.581 103, 235.655 103 C 236.945 103, 238.958 102.042, 240.128 100.872 C 242.428 98.572, 242.435 97.629, 240.469 55 C 239.764 39.708, 239.591 38.819, 237.022 37.232 C 234.405 35.616, 230.463 37.472, 226.492 42.191 C 223.866 45.313, 223.769 45.814, 224.260 53.687 C 224.759 61.682, 224.700 61.967, 222.200 63.605 C 220.784 64.532, 218.608 66.501, 217.364 67.979 C 209.222 77.655, 175.598 86.993, 158.687 84.274 L 153.874 83.500 162.847 73.226 C 167.782 67.576, 173.814 59.926, 176.252 56.226 C 178.690 52.527, 183.752 44.784, 187.501 39.019 C 191.251 33.255, 196.047 26.352, 198.159 23.679 C 202.685 17.954, 202.999 14.931, 199.365 12.073 C 195.799 9.268, 194.119 9.453, 189.636 13.148 M 71.181 26.120 C 63.572 28.796, 57.523 30.255, 52.726 30.570 C 43.789 31.157, 41 32.815, 41 37.538 C 41 46.125, 54.366 47.524, 74.500 41.046 C 88.442 36.559, 88.639 36.637, 87.554 46.229 C 86.627 54.418, 83.860 62.881, 80.124 68.952 C 78.406 71.745, 77 74.668, 77 75.448 C 77 77.188, 76.134 77.439, 63 79.500 C 46.182 82.140, 38 87.431, 38 95.668 C 38 100.734, 42.365 102.704, 46.559 99.532 C 49.532 97.283, 50.599 97.727, 48.287 100.250 C 45.060 103.772, 42.306 109.969, 40.063 118.753 C 33.895 142.913, 42.543 148.620, 72.423 140.111 C 87.832 135.723, 88.567 135.804, 90.436 142.095 C 93.492 152.387, 95.265 175.182, 94.667 196.500 C 93.851 225.574, 91.752 237.193, 86.212 243.320 C 83.442 246.383, 77.128 249.131, 71.533 249.709 C 65.113 250.371, 60.515 248.419, 55.549 242.923 C 51.006 237.894, 47.933 237.089, 45.035 240.170 C 43.372 241.937, 42.970 243.299, 43.368 245.805 C 44.562 253.333, 55.145 263.582, 64.343 266.120 C 72.962 268.499, 89.033 263.175, 97.336 255.189 C 105.553 247.287, 108.434 237.667, 110.118 212.500 C 111.923 185.523, 110.094 152.107, 106.039 137.965 C 104.101 131.209, 99.316 125.028, 94.310 122.813 C 88.426 120.210, 83.934 120.634, 66.583 125.429 C 59.478 127.392, 53.426 128.759, 53.133 128.466 C 52.277 127.611, 54.657 117.669, 57.047 112.113 C 58.762 108.125, 59.742 107, 61.501 107 C 67.051 107, 67.404 100.742, 62.016 97.862 C 60.099 96.838, 58.974 95.998, 59.516 95.996 C 60.057 95.994, 67.139 94.441, 75.253 92.545 C 90.007 89.097, 97 85.844, 97 82.428 C 97 80.025, 94.708 76, 93.339 76 C 91.531 76, 91.469 76.200, 96.004 67.331 C 100.868 57.818, 103 49.766, 103 40.912 C 103 33.073, 101.339 28.524, 97.097 24.744 C 92.521 20.667, 85.650 21.032, 71.181 26.120 M 178.143 108.533 C 173.582 112.371, 172.589 116.701, 172.542 132.964 L 172.500 147.427 160.500 151.282 C 153.900 153.402, 147.525 155.611, 146.334 156.192 C 143.075 157.781, 142.571 161.134, 145.255 163.373 C 147.244 165.031, 148.755 165.186, 158.500 164.729 C 164.550 164.445, 170.359 163.865, 171.408 163.439 C 173.149 162.733, 173.259 163.008, 172.669 166.582 C 172.313 168.737, 172.017 173.931, 172.011 178.125 C 172 185.725, 171.991 185.752, 169.117 186.327 C 167.531 186.644, 165.113 187.184, 163.744 187.528 C 161.710 188.038, 161.148 187.725, 160.669 185.816 C 160.346 184.531, 158.714 182.671, 157.041 181.683 C 155.369 180.695, 154 179.275, 154 178.527 C 154 177.779, 153.640 177.017, 153.199 176.833 C 152.758 176.650, 150.267 173.494, 147.662 169.821 C 141.602 161.275, 136.753 157, 133.120 157 C 127.538 157, 125.241 163.163, 128.750 168.727 C 133.310 175.958, 145.002 190.788, 146.651 191.432 C 148.277 192.067, 148.139 192.340, 145.500 193.699 C 138.012 197.554, 136.295 201.562, 140.073 206.365 C 142.705 209.712, 146.050 209.757, 156 206.579 C 160.125 205.262, 165.237 203.858, 167.359 203.460 C 170.832 202.809, 171.163 202.925, 170.662 204.618 C 170.356 205.653, 169.816 210.325, 169.461 215 C 168.719 224.784, 167.740 229.378, 164.815 236.802 C 162.396 242.941, 163.247 246.522, 167.373 247.557 C 174.875 249.440, 179.695 238.683, 184.861 208.529 L 186.569 198.558 194.034 196.820 C 198.141 195.864, 203.138 195.064, 205.140 195.041 C 212.410 194.959, 226.283 182.046, 231.689 170.327 C 237.033 158.745, 235.247 149.076, 226.721 143.434 C 222.978 140.957, 221.411 140.606, 212.507 140.246 C 205.906 139.979, 200.121 140.354, 195.511 141.349 C 191.667 142.178, 188.433 142.766, 188.323 142.656 C 188.213 142.546, 188.012 134.816, 187.875 125.478 C 187.738 116.140, 187.206 107.938, 186.691 107.250 C 185.183 105.236, 181.384 105.806, 178.143 108.533 M 206.500 154.767 C 204.300 154.913, 199.238 155.731, 195.250 156.585 L 188 158.136 188 170.068 C 188 178.948, 188.320 182, 189.250 181.999 C 189.938 181.998, 194.325 181.334, 199 180.522 C 206.802 179.169, 207.767 178.738, 210.753 175.274 C 214.978 170.373, 219 162.350, 219 158.823 C 219 156.592, 218.453 155.923, 216.250 155.459 C 212.007 154.565, 210.805 154.480, 206.500 154.767 M 255.762 187.073 C 254.807 187.630, 253.499 189.068, 252.856 190.269 C 250.199 195.235, 250.064 199.573, 252.077 215.438 C 253.664 227.948, 254.775 233.001, 257.242 238.926 C 261.922 250.168, 265.630 253.049, 270.777 249.443 C 273.390 247.614, 273.550 244.960, 271.558 236.500 C 270.781 233.200, 269.430 223.525, 268.556 215 C 266.126 191.286, 266.109 191.200, 263.390 188.481 C 260.747 185.838, 258.572 185.436, 255.762 187.073 M 231.399 234.932 C 227.258 236.883, 220.514 238.639, 210.399 240.402 C 202.205 241.830, 185.722 245.674, 173.771 248.944 C 161.820 252.215, 148.320 255.396, 143.771 256.014 C 131.241 257.716, 128.489 258.631, 127.165 261.538 C 125.310 265.608, 125.776 267.634, 129.235 270.544 C 132.376 273.187, 132.729 273.249, 141.485 272.670 C 151.340 272.019, 163.204 269.376, 184.051 263.186 C 191.504 260.973, 202.868 258.205, 209.305 257.035 C 223.740 254.412, 227.045 253.266, 235.416 247.979 C 244.339 242.343, 246.262 238.262, 242 234 C 239.426 231.426, 238.711 231.489, 231.399 234.932" stroke="none" fill="black" fill-rule="evenodd"/>
</svg>