<svg xmlns="http://www.w3.org/2000/svg" width="300" height="300" viewBox="0 0 300 300" version="1.1">
	<path d="M 176.818 31.387 C 173.857 33.560, 172.164 40.167, 171.168 53.441 C 170.418 63.438, 169.828 66.653, 168.572 67.571 C 165.801 69.597, 142.447 77.200, 134.916 78.528 C 132.945 78.876, 130.064 80.171, 128.514 81.407 C 126.232 83.227, 125.823 84.159, 126.363 86.312 C 126.792 88.021, 127.924 89.194, 129.535 89.598 C 131.873 90.185, 132 90.533, 131.448 94.863 C 130.510 102.217, 130.497 113.550, 131.394 142.500 C 132.570 180.473, 129.847 220, 126.055 220 C 125.132 220, 123.350 220.957, 122.094 222.127 C 120.111 223.974, 119.900 224.862, 120.485 228.877 C 121.773 237.713, 125.332 241.137, 131.593 239.566 C 134.559 238.822, 138.339 231.675, 139.827 224 C 142.267 211.408, 144.919 178.311, 144.974 159.750 C 144.988 154.938, 145.382 151, 145.850 151 C 147.777 151, 155.071 157.227, 161.234 164.133 C 178.842 183.863, 182 187.568, 181.998 188.497 C 181.994 190.142, 172.545 206.482, 167.552 213.480 C 162.434 220.652, 159.571 222.099, 154.574 220.038 C 149.248 217.843, 146.441 217.702, 144.607 219.536 C 141.800 222.343, 142.979 226.055, 147.738 229.391 C 151.534 232.052, 152.714 232.349, 159.039 232.231 C 169.784 232.032, 173.090 229.480, 184.112 212.876 C 187.625 207.582, 190.950 202.507, 191.500 201.597 C 192.347 200.195, 193.417 201.010, 198.500 206.931 C 204.986 214.486, 231.515 239.493, 249.116 254.644 C 261.122 264.979, 276.622 274.131, 282.398 274.294 C 287.508 274.439, 291 271.686, 291 267.512 C 291 263.594, 288.307 261.455, 284.558 262.396 C 280.293 263.467, 259.908 247.700, 238 226.385 C 203.372 192.694, 200 189.043, 200 185.243 C 200 183.679, 200.405 181.973, 200.899 181.450 C 202.028 180.257, 211.567 159.023, 213.657 153.051 C 214.514 150.605, 215.791 147.680, 216.496 146.551 C 217.200 145.423, 219.445 139.606, 221.483 133.624 C 224.952 123.446, 225.110 122.465, 223.954 118.336 C 222.532 113.257, 219.350 110.344, 214.161 109.370 C 210.368 108.659, 206.652 109.702, 189 116.433 C 177.306 120.892, 173.996 121.937, 174.024 121.163 C 174.038 120.798, 175.137 116.687, 176.466 112.027 C 177.796 107.367, 179.885 97.443, 181.110 89.974 L 183.337 76.394 192.583 73.127 C 209.486 67.154, 218.662 65.683, 221.054 68.565 C 222.131 69.863, 221.975 71.299, 220.135 77.013 C 218.358 82.532, 217.132 84.519, 213.956 87.035 C 204.030 94.896, 211.518 102.478, 221.831 95.008 C 226.913 91.326, 230.309 86.321, 232.968 78.592 C 235.566 71.042, 235.542 65.738, 232.891 61.019 C 228.093 52.483, 217.388 51.675, 197.287 58.331 L 184.207 62.662 183.609 59.081 C 183.281 57.112, 182.716 50.446, 182.355 44.268 C 181.863 35.865, 181.295 32.673, 180.099 31.594 C 178.812 30.434, 178.171 30.394, 176.818 31.387 M 87.817 43.043 C 86.891 43.583, 82.555 48.632, 78.181 54.262 C 73.807 59.893, 69.370 65.400, 68.320 66.500 C 61.521 73.625, 42 102.124, 42 104.925 C 42 107.250, 43.984 109, 46.620 109 C 49.003 109, 56.097 102.134, 62.634 93.500 C 64.716 90.750, 70.193 84.247, 74.804 79.049 C 86.212 66.189, 96 52.344, 96 49.067 C 96 43.671, 91.906 40.657, 87.817 43.043 M 165.500 82.069 C 163.850 82.474, 157.662 84.297, 151.750 86.119 L 141 89.433 141 95.054 C 141 98.145, 141.672 105.135, 142.494 110.587 C 143.316 116.039, 143.991 125.116, 143.994 130.758 L 144 141.015 147.139 138.258 C 148.866 136.741, 150.793 135.003, 151.422 134.396 C 152.051 133.788, 153.858 132.614, 155.437 131.787 C 157.857 130.519, 158.762 128.806, 161.192 120.891 C 162.778 115.726, 164.495 108.575, 165.007 105 C 165.520 101.425, 166.608 94.693, 167.426 90.039 C 168.243 85.386, 168.819 81.523, 168.706 81.455 C 168.593 81.387, 167.150 81.664, 165.500 82.069 M 90.977 87.023 C 89.890 88.110, 88.996 90.013, 88.990 91.250 C 88.975 94.741, 84.747 102.999, 79.887 109.029 C 77.462 112.038, 74.689 115.625, 73.725 117 C 72.761 118.375, 68.640 124.225, 64.566 130 C 60.493 135.775, 54.596 144.325, 51.461 149 C 48.327 153.675, 43.679 159.971, 41.131 162.991 C 38.584 166.012, 35.825 169.353, 35 170.416 C 34.175 171.480, 32.479 173.425, 31.230 174.740 C 29.982 176.054, 28.203 178.287, 27.276 179.701 C 26.349 181.116, 24.092 182.899, 22.260 183.665 C 17.137 185.805, 15.499 191.499, 19 195 C 22.024 198.024, 25.862 197.473, 31.498 193.205 C 36.305 189.564, 52.349 169.873, 65.009 152.079 L 71 143.657 70.985 149.079 C 70.976 152.060, 70.495 161.250, 69.916 169.500 C 68.605 188.170, 68.100 247.880, 69.234 250.250 C 69.825 251.487, 71.247 252, 74.086 252 C 80.777 252, 81.174 250.074, 82.121 213 C 83.120 173.875, 82.458 153.295, 79.847 142.358 L 77.904 134.216 83.330 125.858 C 86.315 121.261, 90.174 114.676, 91.905 111.225 C 95.446 104.168, 98.213 91.691, 96.965 88.409 C 95.785 85.304, 93.277 84.723, 90.977 87.023 M 203.500 123.929 C 200.750 124.954, 196.475 126.534, 194 127.442 C 191.525 128.349, 187.700 129.919, 185.500 130.931 C 183.300 131.942, 178.575 133.989, 175 135.480 C 171.425 136.971, 167.591 139.309, 166.480 140.676 C 164.971 142.532, 163.326 143.234, 159.980 143.451 C 157.516 143.611, 155.275 143.807, 155 143.887 C 154.725 143.967, 156.135 145.038, 158.134 146.266 C 169.277 153.116, 176.720 159.584, 185.854 170.355 C 187.652 172.475, 189.262 174.050, 189.432 173.855 C 189.603 173.660, 191.876 168.550, 194.484 162.500 C 199.621 150.582, 203.101 142.773, 206.067 136.500 C 210.366 127.412, 211.551 121.921, 209.191 122.033 C 208.811 122.051, 206.250 122.904, 203.500 123.929" stroke="none" fill="black" fill-rule="evenodd"/>
</svg>