<svg xmlns="http://www.w3.org/2000/svg" width="300" height="300" viewBox="0 0 300 300" version="1.1">
	<path d="M 220.017 10.740 C 219.202 11.060, 217.756 12.312, 216.804 13.522 C 211.489 20.279, 192.552 23.946, 159.079 24.701 C 135.195 25.239, 134.606 25.303, 132.329 27.580 C 129.532 30.377, 129.341 33.965, 131.825 37.033 C 133.386 38.960, 135.160 39.434, 144.075 40.304 C 149.809 40.863, 154.669 41.455, 154.875 41.618 C 155.081 41.782, 154.122 43.172, 152.744 44.708 C 151.366 46.244, 144.456 54.025, 137.389 62 C 125.003 75.978, 118.161 83.597, 115 86.931 C 108.503 93.783, 100.923 103.460, 100.391 105.579 C 98.895 111.539, 104.130 115.550, 109.642 112.669 C 112.851 110.992, 142.838 80.793, 153.501 68.500 C 157.317 64.100, 162.872 57.887, 165.844 54.694 C 170.840 49.327, 171.210 48.599, 170.734 45.057 C 170.231 41.303, 170.294 41.214, 173.860 40.624 C 177.949 39.948, 185.418 39.989, 182.833 40.673 C 178.248 41.887, 174.705 58.808, 175.227 77 C 175.377 82.225, 175.120 92.193, 174.655 99.151 L 173.810 111.803 162.655 114.804 C 156.520 116.455, 149.120 118.092, 146.211 118.442 C 143.302 118.793, 139.927 119.519, 138.711 120.057 C 133.920 122.174, 126.800 126.748, 123.611 129.757 C 120.171 133.001, 119 133.029, 119 129.867 C 119 127.669, 116.008 121.034, 114.121 119.050 C 112.229 117.059, 106.631 117.226, 104.521 119.337 C 102.513 121.344, 102.514 121.331, 103.983 138.500 C 105.093 151.469, 105.507 207.281, 104.637 226.790 C 104.385 232.449, 103.679 237.682, 103.068 238.418 C 101.744 240.014, 102.972 243.902, 105.449 245.958 C 108.223 248.260, 113.039 247.656, 115.594 244.685 C 118.274 241.570, 118.769 238.727, 120.327 217.534 L 121.500 201.585 125.254 200.807 C 134.855 198.818, 144.345 191.045, 150.780 179.899 L 153.672 174.890 159.529 180.945 C 163.364 184.910, 166.182 187, 167.693 187 L 170 187 170 206.392 L 170 225.783 167.508 226.409 C 165.223 226.982, 160.485 225.517, 157.176 223.213 C 155.770 222.234, 156.805 219.264, 164.696 201.635 C 167.632 195.074, 168.036 193.374, 167.129 191.385 C 165.383 187.552, 161.824 188.326, 156.262 193.750 C 153.583 196.362, 149.840 201.200, 147.945 204.500 C 144.568 210.381, 144.422 210.494, 140.579 210.179 C 136.582 209.853, 128.511 212.347, 126.251 214.607 C 123.034 217.823, 126.197 221.561, 131.321 220.599 C 133.856 220.124, 135.069 220.419, 136.338 221.821 C 137.921 223.570, 137.747 224.045, 133.144 230.585 C 127.429 238.703, 119.906 245.987, 114.265 248.865 C 110.194 250.942, 109 252.586, 109 256.114 C 109 260.530, 117.606 260.120, 126 255.304 C 128.475 253.884, 134.692 248.474, 139.817 243.282 L 149.133 233.842 153.817 236.105 C 156.917 237.602, 160.412 238.384, 164.157 238.417 L 169.814 238.467 170.396 241.983 C 171.596 249.234, 171.057 262.983, 169.479 265.392 C 167.300 268.718, 169.414 274.953, 173.363 276.845 C 181.154 280.579, 186 270.537, 186 250.658 L 186 241.415 190.719 240.153 C 194.548 239.129, 196.885 237.405, 203.102 231.018 L 210.766 223.146 213.633 226.176 C 215.210 227.842, 220.461 232.177, 225.303 235.808 L 234.107 242.410 233.434 246.455 C 233.064 248.680, 231.887 253.650, 230.818 257.500 C 227.968 267.770, 227.640 270.716, 228.985 273.964 C 230.541 277.720, 234.991 278.891, 238.634 276.504 C 242.003 274.297, 244.409 268.620, 247.587 255.387 C 249.024 249.399, 250.573 244.043, 251.029 243.484 C 251.484 242.925, 251.868 240, 251.882 236.984 C 251.896 233.968, 252.586 224.075, 253.417 215 C 256.133 185.313, 257.265 160.252, 256.772 140.708 C 256.094 113.823, 253.873 107.681, 242.684 101.759 C 235.936 98.187, 222.406 98.737, 204.055 103.329 C 196.111 105.317, 189.459 106.792, 189.274 106.607 C 189.088 106.421, 189.482 94.992, 190.148 81.208 L 191.360 56.147 195.874 60.120 C 208.126 70.905, 216.203 74.177, 235.438 76.148 C 248.989 77.536, 250.175 77.478, 251.751 75.344 C 253.209 73.368, 252.597 66.778, 250.899 66.161 C 250.385 65.974, 249.336 65.193, 248.568 64.426 C 247.801 63.658, 242.971 62.322, 237.836 61.457 C 220.585 58.551, 209.785 54.810, 197.273 47.409 C 194.572 45.811, 193.716 45.705, 192.023 46.758 C 190.320 47.818, 190 47.771, 190 46.463 C 190 45.608, 188.848 43.757, 187.439 42.348 C 186.031 40.940, 185.019 39.703, 185.189 39.599 C 185.360 39.495, 190 38.655, 195.500 37.731 C 201 36.807, 207.091 35.595, 209.035 35.038 C 217.982 32.473, 228 22.866, 228 16.850 C 228 12.192, 224.040 9.161, 220.017 10.740 M 57 17.598 C 53.425 18.369, 46.900 19.682, 42.500 20.517 C 32.075 22.493, 31.523 22.689, 27.995 25.658 C 24.102 28.933, 23.806 34.171, 27.380 36.513 C 30.507 38.562, 39.555 38.629, 45.683 36.648 C 51.976 34.614, 66.209 32, 70.988 32 C 76.935 32, 77.227 33.064, 74.984 46.580 C 73.896 53.136, 73.004 59.977, 73.003 61.781 C 73.001 63.586, 72.438 65.215, 71.750 65.401 C 71.063 65.587, 65.550 66.693, 59.500 67.859 C 51.355 69.428, 46.313 71.084, 40.075 74.239 C 28.065 80.313, 25.615 83.532, 29.990 87.491 C 32.917 90.140, 42.592 89.008, 58.764 84.124 C 66.059 81.921, 74.159 79.818, 76.764 79.451 C 84.649 78.339, 85.780 77.121, 85.729 69.801 C 85.697 65.155, 86.667 60.479, 89.421 52 C 95.508 33.257, 93.619 24.037, 82.554 18.483 C 76.772 15.581, 67.795 15.270, 57 17.598 M 33.244 97.250 C 29.016 101.615, 25.470 111.462, 23.972 123 C 22.898 131.265, 22.950 133.326, 24.375 138.854 C 27.187 149.769, 31.917 154, 41.309 154 C 47.662 154, 54.059 151.785, 62.267 146.742 C 66.245 144.298, 70.115 141.948, 70.866 141.519 C 72.923 140.344, 71.854 225.263, 69.630 239.720 C 67.614 252.823, 65.403 262.319, 63.523 265.956 C 59.976 272.814, 47.629 271.582, 38.500 263.460 C 34.194 259.629, 31.327 258.731, 28.222 260.240 C 22.279 263.128, 23.920 270.046, 32.347 277.622 C 40.639 285.077, 46.107 287.398, 55.500 287.449 C 62.513 287.487, 64.091 287.146, 68.292 284.680 C 77.216 279.441, 81.421 270.745, 85.195 249.725 C 86.986 239.751, 87.265 232.877, 87.700 188.037 C 88.217 134.703, 88.003 131.472, 83.708 127.746 C 78.475 123.208, 68.370 124.530, 58.500 131.044 C 56.850 132.132, 54.712 133.296, 53.750 133.628 C 52.788 133.961, 52 134.547, 52 134.931 C 52 136.167, 45.027 139, 41.985 139 C 38.595 139, 38.436 138.566, 37.527 126.840 C 36.835 117.919, 38.292 107.317, 40.920 102.137 C 42.585 98.856, 42.619 98.280, 41.261 96.250 C 39.188 93.150, 36.944 93.430, 33.244 97.250 M 218.500 115.540 C 214.650 116.284, 206.213 118.339, 199.750 120.108 L 188 123.324 187.993 128.412 C 187.989 131.210, 187.706 136.650, 187.364 140.500 C 186.850 146.297, 186.971 147.285, 188.072 146.250 C 188.812 145.553, 191.909 145, 195.070 145 L 200.740 145 206.288 136.250 C 215.563 121.622, 221.576 118.290, 226.718 124.927 C 229.764 128.859, 227.891 135.168, 220.846 144.707 C 218.731 147.571, 217 150.136, 217 150.406 C 217 150.677, 219.480 151.680, 222.511 152.635 C 231.037 155.323, 233.720 158.917, 230.997 164.005 C 229.467 166.864, 222.574 167.488, 214.604 165.489 L 207.875 163.802 200.412 171.835 C 196.307 176.253, 191.385 180.835, 189.474 182.016 C 184.648 184.999, 184.991 186.668, 190.447 186.750 C 195.316 186.824, 203.355 190.620, 207.113 194.620 L 209.328 196.978 214.914 190.833 C 217.986 187.454, 222.169 182.193, 224.210 179.143 C 228.776 172.318, 232.096 170.239, 234.535 172.678 C 235.663 173.806, 236.042 175.354, 235.702 177.448 C 234.688 183.698, 228.753 197.116, 224.367 203.073 L 219.862 209.193 227.436 216.597 C 235.240 224.226, 236.998 225.265, 237.002 222.250 C 237.004 221.287, 237.898 208.350, 238.991 193.500 C 241.150 164.145, 241.629 126.807, 239.925 120.670 C 238.134 114.218, 232.424 112.851, 218.500 115.540 M 162 130.540 C 157.325 131.780, 149.900 133.120, 145.500 133.518 C 139.313 134.077, 135.939 135.025, 130.614 137.702 C 126.827 139.605, 122.889 140.943, 121.864 140.675 C 119.857 140.150, 119.521 141.609, 120.664 145.881 C 121.273 148.153, 121.587 148.234, 127.597 147.673 C 131.477 147.311, 135.832 147.588, 138.946 148.396 L 144 149.707 144 147.003 C 144 140.157, 148.296 135, 153.998 135 C 156.840 135, 161 139.692, 161 142.896 C 161 144.329, 160.341 148.651, 159.535 152.500 L 158.070 159.500 162.372 164 C 164.738 166.475, 167.586 169.720, 168.700 171.211 L 170.726 173.922 171.398 156.711 C 171.768 147.245, 172.338 136.912, 172.664 133.750 C 173.353 127.088, 174.132 127.323, 162 130.540 M 186.630 156.250 C 186.299 157.488, 186.022 159.850, 186.014 161.500 L 186.002 164.500 189.521 160.546 L 193.040 156.592 190.770 155.331 C 187.655 153.601, 187.320 153.676, 186.630 156.250 M 121.369 161.818 C 121.704 163.843, 121.983 170.338, 121.989 176.250 C 121.996 183.037, 122.384 187, 123.043 187 C 125.386 187, 134.157 177.373, 137.003 171.678 L 140.043 165.595 136.271 164.163 C 134.197 163.376, 129.859 161.698, 126.630 160.434 L 120.760 158.136 121.369 161.818 M 185 212.500 C 185 221.025, 185.376 228, 185.835 228 C 186.953 228, 190.647 223.763, 195.727 216.654 L 199.904 210.809 192.903 203.904 C 189.053 200.107, 185.699 197, 185.451 197 C 185.203 197, 185 203.975, 185 212.500" stroke="none" fill="black" fill-rule="evenodd"/>
</svg>