<svg xmlns="http://www.w3.org/2000/svg" width="300" height="300" viewBox="0 0 300 300" version="1.1">
	<path d="M 178.366 8.765 C 176.974 9.667, 172 19.839, 172 21.783 C 172 22.558, 171.351 24.386, 170.559 25.846 C 169.766 27.306, 168.210 31.054, 167.101 34.175 C 165.991 37.297, 164.165 41.565, 163.042 43.660 C 161.919 45.756, 161 47.810, 161 48.224 C 161 48.639, 158.518 53.461, 155.485 58.940 C 152.452 64.418, 149.696 70.272, 149.360 71.948 C 148.037 78.563, 154.240 80.183, 159.365 74.561 C 161.089 72.670, 164.975 67.103, 168 62.190 L 173.500 53.258 182 52.710 C 188.689 52.279, 192.737 51.296, 201 48.097 C 206.775 45.860, 212.480 44.024, 213.679 44.015 C 218.556 43.981, 220.900 37.029, 217.171 33.655 C 213.937 30.728, 211.103 31.222, 186.119 39.068 C 179.605 41.114, 177.932 41.037, 179.724 38.774 C 180.280 38.073, 181.748 34.409, 182.988 30.631 C 184.228 26.852, 185.860 22.577, 186.615 21.131 C 188.795 16.953, 188.392 11.388, 185.777 9.557 C 183.410 7.899, 180.228 7.559, 178.366 8.765 M 108.467 28.765 C 107.899 29.169, 106.189 32.719, 104.667 36.654 C 103.144 40.589, 100.684 45.461, 99.199 47.482 C 94.795 53.476, 84.996 65.072, 78.903 71.500 C 67.464 83.569, 66.179 86.037, 69.571 89.429 C 72.704 92.561, 73.427 92.063, 93.346 73.039 C 107.261 59.749, 118.801 41.325, 117.651 34.238 C 116.846 29.278, 111.894 26.327, 108.467 28.765 M 109.750 82.080 C 108.787 82.641, 107.301 84.450, 106.447 86.102 C 105.159 88.592, 99.502 95.065, 89.863 105.074 C 88.962 106.009, 87.837 107.453, 87.363 108.283 C 86.888 109.112, 81.990 114.460, 76.478 120.166 C 66.644 130.347, 58.532 141.225, 57.346 145.824 C 57.016 147.102, 57.244 149.239, 57.852 150.574 C 58.715 152.469, 59.723 153, 62.453 153 C 65.287 153, 66.228 152.459, 67.426 150.144 C 68.238 148.573, 73.162 142.835, 78.368 137.394 L 87.832 127.500 87.336 132 C 87.063 134.475, 86.165 141, 85.340 146.500 C 84.291 153.498, 83.591 170.793, 83.010 204.112 C 82.552 230.299, 81.862 254.253, 81.476 257.344 C 80.616 264.227, 81.385 267.670, 83.965 268.489 C 93.046 271.371, 95.161 255.171, 95.516 180 C 95.637 154.425, 96.074 131.345, 96.488 128.711 C 97.074 124.974, 96.892 123.538, 95.660 122.177 C 94.194 120.557, 94.924 119.493, 105.869 107.311 C 119.602 92.027, 121.509 88.885, 119.461 84.924 C 117.464 81.064, 113.492 79.900, 109.750 82.080 M 171.342 81.957 C 164.798 83.517, 159.644 89.762, 160.202 95.457 C 160.443 97.920, 161.010 98.559, 163.174 98.809 C 164.645 98.979, 167.594 98.227, 169.728 97.139 C 174.716 94.594, 185.349 92.666, 189.932 93.476 C 197.226 94.765, 197 94.480, 197 102.386 L 197 109.637 187.730 109.681 C 178.051 109.726, 169.029 111.686, 163.371 114.972 L 160.243 116.789 159.621 112.255 C 159.280 109.761, 159 106.070, 159 104.052 C 159 99.159, 156.778 96.100, 154.309 97.594 C 151.229 99.456, 148.133 104.931, 147.402 109.806 C 146.915 113.049, 147.520 119.334, 149.390 130.483 C 150.868 139.292, 152.196 147.625, 152.341 149 C 152.887 154.156, 155.443 156.378, 161.775 157.203 C 163.981 157.491, 163.920 157.703, 159.775 164.127 C 152.072 176.068, 147.814 182.449, 145.415 185.648 L 143.054 188.795 132.580 181.914 C 120.274 173.831, 115.252 172.228, 111.493 175.184 C 108.193 177.780, 109.241 179.569, 116.027 182.925 C 119.525 184.655, 123.651 188.134, 128.302 193.272 L 135.308 201.013 133.404 204.713 C 132.357 206.748, 130.488 209.958, 129.250 211.846 C 126.798 215.587, 126.248 221.848, 128.200 223.800 C 129.766 225.366, 134.207 225.338, 136.140 223.750 C 136.978 223.063, 139.398 220.025, 141.520 217 C 143.641 213.975, 145.526 211.303, 145.709 211.062 C 145.892 210.822, 148.033 212.579, 150.467 214.967 C 154.737 219.159, 154.840 219.400, 153.413 221.905 C 142.296 241.422, 137.878 246.043, 129.653 246.763 C 122.345 247.403, 119.926 250.926, 124 255 C 126.723 257.723, 135.846 257.707, 141.883 254.967 C 147.319 252.501, 157.741 241.756, 161.494 234.750 C 163.041 231.863, 164.411 229.364, 164.539 229.198 C 164.667 229.032, 168.686 231.507, 173.470 234.698 C 178.254 237.889, 184.943 242.222, 188.334 244.326 C 195.480 248.760, 214.297 257.997, 216.202 258.006 C 216.916 258.010, 218.850 258.722, 220.500 259.590 C 224.872 261.890, 241.447 265.993, 249.138 266.679 C 255.497 267.246, 255.848 267.161, 257.498 264.643 C 259.613 261.416, 258.849 257.525, 255.780 255.882 C 254.572 255.236, 249.290 253.698, 244.042 252.464 C 229.968 249.157, 224.936 247.281, 208 239.030 C 195.138 232.764, 187.281 228.171, 181.002 223.250 C 178.371 221.187, 175.382 218.985, 174.359 218.356 C 172.683 217.324, 172.643 216.979, 173.949 214.856 C 183.155 199.893, 192.960 179.843, 192.981 175.939 C 193.023 168.101, 186.346 165.357, 175.139 168.607 C 172.969 169.236, 172.822 169.056, 173.335 166.396 C 173.642 164.803, 174.168 161.666, 174.505 159.424 C 175.094 155.499, 175.305 155.300, 180.209 154.043 C 187.472 152.182, 197.640 147.380, 198.375 145.465 C 199.372 142.868, 199.113 141.256, 197.429 139.571 C 196 138.143, 196.077 138, 198.274 138 C 202.429 138, 206.573 131.227, 208.063 122 C 211.429 101.152, 211.426 101.191, 210.076 95.786 C 208.449 89.277, 204.807 84.235, 200.400 82.394 C 196.793 80.887, 177.078 80.590, 171.342 81.957 M 186 122.662 C 184.075 122.850, 177.887 124.228, 172.250 125.725 L 162 128.446 162 136.679 L 162 144.911 166.126 143.456 C 168.395 142.655, 171.784 142, 173.657 142 C 175.530 142, 179.703 141.111, 182.930 140.024 C 186.157 138.937, 190.143 137.945, 191.788 137.819 C 194.595 137.605, 194.693 137.461, 193.386 135.466 C 192.191 133.642, 192.205 132.643, 193.486 128.420 C 195.662 121.247, 196.205 121.665, 186 122.662 M 173.983 182.392 C 164.505 186.566, 154 195.726, 154 199.818 C 154 200.853, 160.620 207.003, 161.723 206.992 C 162.474 206.985, 163.857 204.842, 170.729 193.044 C 178.109 180.372, 178.037 180.607, 173.983 182.392" stroke="none" fill="black" fill-rule="evenodd"/>
</svg>