<svg xmlns="http://www.w3.org/2000/svg" width="300" height="300" viewBox="0 0 300 300" version="1.1">
	<path d="M 194 12.618 C 179.965 14.209, 170.185 16.353, 166.745 18.592 C 164.089 20.320, 162.243 20.848, 160.439 20.395 C 158.563 19.924, 157.243 20.362, 155.445 22.052 C 153.315 24.053, 153.009 25.195, 153.068 30.924 C 153.105 34.541, 153.944 42.900, 154.931 49.500 C 156.697 61.301, 156.694 61.536, 154.778 63.656 C 153.165 65.439, 153.029 66.186, 153.991 67.984 C 156.329 72.352, 162.712 78, 165.312 78 C 168.104 78, 171 75.672, 171 73.429 C 171 72.632, 171.995 71.973, 173.250 71.938 C 174.488 71.904, 182.025 71.289, 190 70.571 C 197.975 69.853, 204.655 69.398, 204.844 69.560 C 205.033 69.722, 204.103 72.900, 202.777 76.623 C 199.922 84.641, 199.963 84.622, 183.247 85.621 C 177.025 85.993, 171.697 86.681, 171.408 87.149 C 171.119 87.617, 169.518 88, 167.851 88 C 162.108 88, 158.650 95.640, 163.250 98.164 C 168.026 100.785, 196.043 98.743, 207.702 94.925 C 210.899 93.878, 212.116 91.879, 212.524 87 C 212.640 85.625, 214.190 81.125, 215.970 77 C 220.490 66.527, 220.883 65.080, 223.040 51 C 226.235 30.139, 225.588 23.540, 219.845 18.402 C 215.060 14.121, 203.521 11.539, 194 12.618 M 188.814 27.020 C 185.687 27.511, 180.447 28.607, 177.170 29.456 C 173.893 30.305, 170.222 31, 169.012 31 C 166.975 31, 166.854 31.351, 167.380 35.750 C 167.692 38.362, 168.241 44.475, 168.599 49.334 C 169.220 57.753, 169.350 58.137, 171.375 57.510 C 172.544 57.148, 181.070 56.493, 190.322 56.054 C 199.574 55.615, 207.507 54.861, 207.950 54.378 C 208.973 53.264, 211 39.344, 211 33.434 C 211 29.469, 210.682 28.827, 208.250 27.880 C 204.361 26.366, 195.488 25.973, 188.814 27.020 M 97.439 33.877 C 95.005 36.234, 92 39.879, 92 40.473 C 92 41.379, 79.519 58.786, 71.298 69.346 C 60.927 82.669, 54 92.705, 54 94.408 C 54 96.313, 57.360 99, 59.742 99 C 61.138 99, 64.078 96.270, 68.630 90.750 C 72.371 86.213, 79.541 77.775, 84.563 72 C 94.722 60.319, 107 41.594, 107 37.783 C 107 32.717, 101.118 30.314, 97.439 33.877 M 97.500 79.744 C 96.950 80.160, 94.700 83.200, 92.500 86.500 C 90.300 89.800, 88.162 92.650, 87.750 92.833 C 87.338 93.017, 87 93.702, 87 94.356 C 87 95.010, 85.377 98.010, 83.393 101.023 C 81.409 104.035, 78.922 108.075, 77.867 110 C 74.618 115.927, 71.902 120.327, 68.915 124.500 C 67.340 126.700, 63.453 132.296, 60.276 136.936 C 53.719 146.512, 51.823 149.209, 40.058 165.681 C 35.415 172.181, 30.353 178.978, 28.808 180.785 C 25.358 184.821, 25.283 186.484, 28.459 188.565 C 32.623 191.294, 36.403 189.653, 42.058 182.663 C 44.800 179.273, 48.673 174.550, 50.664 172.166 C 55.298 166.621, 61.927 157.559, 64.869 152.750 C 66.131 150.688, 67.576 149, 68.082 149 C 68.921 149, 69.841 234.738, 69.231 256 C 68.684 275.016, 68.686 275.037, 71.088 277.594 C 72.332 278.917, 74.130 280, 75.085 280 C 76.654 280, 81.937 274.818, 82.044 273.173 C 82.068 272.803, 82.506 269.125, 83.016 265 C 83.607 260.227, 83.521 240.162, 82.780 209.814 C 81.884 173.165, 81.889 159.218, 82.799 149.555 C 83.801 138.932, 83.759 136.328, 82.529 132.759 C 81.220 128.960, 81.241 128.283, 82.734 126.018 C 85.630 121.625, 97 102.759, 97 102.347 C 97 102.130, 98.560 99.684, 100.467 96.912 C 104.684 90.781, 105.862 85.630, 103.864 82.058 C 102.419 79.474, 99.339 78.354, 97.500 79.744 M 212 116.143 C 208.975 117.190, 202.326 118.483, 197.225 119.018 C 192.124 119.553, 181.549 121.103, 173.725 122.462 C 145.643 127.341, 142.377 127.832, 133.500 128.502 C 121.934 129.376, 116 131.918, 116 136 C 116 139.473, 120.962 144, 124.767 144 C 126.204 144, 134.832 142.872, 143.940 141.493 C 153.048 140.115, 164.336 138.407, 169.025 137.699 L 177.551 136.412 177.525 182.183 L 177.500 227.954 180.225 230.679 C 182.554 233.009, 183.346 233.265, 185.682 232.443 C 189.198 231.207, 189.778 228.932, 189.900 215.904 C 189.955 210.076, 190.295 201.150, 190.656 196.070 C 191.234 187.916, 191.557 186.743, 193.406 186.077 C 221.543 175.925, 224 174.572, 224 169.236 C 224 166.124, 220.820 162, 218.421 162 C 217.596 162, 215.251 162.840, 213.210 163.867 C 209.405 165.781, 193.921 171, 192.046 171 C 191.370 171, 191 166.265, 191 157.626 C 191 148.294, 190.547 142.966, 189.500 140 C 188.675 137.662, 188 135.424, 188 135.027 C 188 134.353, 201.168 131.896, 212.500 130.457 C 218.593 129.683, 224.412 126.586, 225.897 123.327 C 227.426 119.971, 227.345 119.618, 224.364 116.636 C 221.322 113.594, 219.568 113.525, 212 116.143 M 131 168.785 C 129.067 169.448, 128.035 171.028, 128.015 173.349 C 128.007 174.366, 127.364 176.616, 126.587 178.349 C 121.327 190.082, 119.723 195.170, 117.083 208.500 C 113.488 226.654, 112.209 236.464, 111.805 248.982 L 111.500 258.464 114.324 259.822 C 121.182 263.120, 124.325 258.826, 125.904 244 C 126.969 233.999, 128.006 227.866, 133.546 198.836 C 137.784 176.623, 137.914 171.054, 134.238 169.164 C 133.282 168.672, 131.825 168.502, 131 168.785 M 134.200 212.200 C 131.777 214.623, 132.998 218.277, 138.508 225.096 C 142.144 229.596, 146.072 233.119, 150.062 235.457 C 153.387 237.406, 156.472 239, 156.919 239 C 157.365 239, 158.954 239.963, 160.450 241.139 C 166.345 245.777, 183.829 254.224, 196.335 258.477 C 228.416 269.386, 260.168 269.644, 278.103 259.140 C 288.696 252.936, 293.360 244.873, 289.030 240.250 C 286.073 237.093, 283.684 237.439, 279.831 241.581 C 271.880 250.127, 259.783 253.453, 239.500 252.669 C 219.477 251.895, 204.007 247.561, 182.500 236.700 C 175.900 233.367, 164.923 227.831, 158.107 224.398 C 151.291 220.965, 145.441 217.728, 145.107 217.205 C 144.378 216.062, 136.997 211, 136.060 211 C 135.697 211, 134.860 211.540, 134.200 212.200" stroke="none" fill="black" fill-rule="evenodd"/>
</svg>