<svg xmlns="http://www.w3.org/2000/svg" width="300" height="300" viewBox="0 0 300 300" version="1.1">
	<path d="M 164.575 38.891 C 162.917 41.284, 161.540 45.038, 160.998 48.641 C 160.513 51.864, 159.692 55.850, 159.172 57.500 C 156.370 66.402, 144.823 93.576, 137.770 107.863 C 130.873 121.837, 129.828 124.611, 130.615 126.863 C 131.351 128.970, 132.275 129.562, 135.214 129.807 C 138.380 130.072, 139.420 129.565, 142.696 126.160 C 144.788 123.985, 149.798 116.369, 153.828 109.235 L 161.157 96.265 166.166 97.733 C 170.561 99.022, 171.885 99.023, 176.962 97.744 L 182.748 96.287 180.874 101.618 C 179.843 104.551, 179 109.606, 179 112.853 C 179 116.100, 178.333 127.699, 177.519 138.628 C 174.629 177.406, 171.014 237.790, 170.373 258 C 169.924 272.158, 169.302 279.335, 168.361 281.200 C 166.555 284.783, 166.635 285.635, 169 288 C 171.189 290.189, 176.838 290.692, 180.032 288.983 C 181.077 288.424, 182.384 286.286, 182.935 284.233 C 183.834 280.889, 186.795 246.104, 188.582 217.892 L 189.254 207.285 198.877 206.648 C 204.170 206.297, 215.833 206.008, 224.795 206.005 C 240.760 206, 241.141 205.950, 243.545 203.545 C 246.585 200.506, 246.628 198.837, 243.750 195.509 C 240.698 191.980, 233.522 191.045, 209.271 191.020 L 190.042 191 190.649 178.250 C 190.983 171.238, 191.592 165.129, 192.002 164.676 C 192.412 164.223, 196.517 163.491, 201.124 163.049 C 205.731 162.607, 214 161.109, 219.500 159.720 C 225 158.331, 232.102 156.892, 235.283 156.521 C 243.181 155.602, 246.551 152.751, 245.618 147.779 C 244.659 142.665, 239.937 140.530, 231.610 141.445 C 220.447 142.673, 201.563 146.983, 196.947 149.358 L 192.394 151.700 192.742 145.600 C 192.934 142.245, 193.745 132.468, 194.545 123.873 C 195.345 115.277, 196 104.607, 196 100.161 L 196 92.077 200.250 90.994 C 226.552 84.292, 238.001 79.686, 241.136 74.544 C 243.470 70.717, 243.437 69.104, 240.963 66.134 C 238.738 63.464, 239.034 63.431, 225.500 67.890 C 220.550 69.521, 209.075 72.759, 200 75.087 C 182.828 79.491, 169.620 83.416, 166.934 84.914 C 165.819 85.536, 167.046 80.711, 171.184 68.196 C 177.960 47.702, 178.633 41.543, 174.545 37.455 C 170.905 33.814, 167.782 34.264, 164.575 38.891 M 88.904 41.278 C 88.026 41.950, 86.465 44.075, 85.434 46 C 83.657 49.321, 83.555 53.199, 83.426 122 C 83.352 161.875, 82.973 199.450, 82.584 205.500 C 80.626 235.964, 77.896 263.984, 76.372 269.250 C 76.093 270.212, 75.297 271, 74.602 271 C 72.692 271, 70.665 275.527, 71.351 278.260 C 73.118 285.301, 79.808 288.270, 83.932 283.843 C 90.627 276.656, 95.395 239.719, 96.646 185.340 L 97.317 156.180 100.203 155.757 C 101.790 155.524, 103.320 155.708, 103.603 156.167 C 105.070 158.540, 113.559 155.966, 114.548 152.848 C 115.496 149.861, 114.153 147.260, 109.179 142.458 C 105.123 138.543, 104.012 137.980, 100.835 138.239 L 97.170 138.537 96.582 98.018 C 95.951 54.542, 95.339 41, 94.006 41 C 93.543 41, 92.564 40.788, 91.832 40.528 C 91.099 40.269, 89.782 40.606, 88.904 41.278 M 57.883 94.219 C 57.275 95.355, 57.139 99.174, 57.542 103.804 C 58.427 113.975, 56.567 128.841, 53.345 137.348 L 50.751 144.195 52.838 146.283 C 54.630 148.075, 55.463 148.238, 58.713 147.435 C 62.030 146.616, 62.889 145.733, 65.636 140.325 C 69.434 132.847, 71.435 120.510, 70.803 108.472 C 70.433 101.424, 69.968 99.647, 67.724 96.705 C 64.517 92.501, 59.483 91.229, 57.883 94.219" stroke="none" fill="black" fill-rule="evenodd"/>
</svg>