<svg xmlns="http://www.w3.org/2000/svg" width="300" height="300" viewBox="0 0 300 300" version="1.1">
	<path d="M 153.750 46.080 C 150.622 47.902, 151.563 53.419, 156.350 61.320 C 158.743 65.269, 161.622 70.592, 162.749 73.149 C 165.102 78.488, 171.845 85.684, 174.950 86.170 C 176.902 86.475, 176.947 86.660, 175.547 88.644 C 174.338 90.359, 172.282 91.024, 165.268 91.970 C 132.979 96.326, 129.584 97.034, 128.588 99.630 C 127.460 102.570, 128.014 105.702, 129.974 107.477 C 131.652 108.995, 133.003 109.160, 138.974 108.571 C 145.987 107.880, 146 107.883, 146 110.380 C 146 111.756, 146.487 113.183, 147.083 113.551 C 150.103 115.418, 154 131.180, 154 141.527 C 154 144.656, 153.719 144.957, 150.250 145.545 C 148.188 145.894, 142.900 147.243, 138.500 148.542 C 134.100 149.841, 128.608 151.387, 126.295 151.978 C 121.272 153.262, 119 155.298, 119 158.515 C 119 164.526, 129.990 165.845, 142.645 161.352 C 148.065 159.428, 150.404 159.004, 151.203 159.803 C 152.924 161.524, 147.324 178.539, 137.975 200 C 135.698 205.225, 132.973 210.988, 131.918 212.807 C 129.589 216.823, 129.488 219.345, 131.571 221.429 C 135.137 224.994, 140.044 222.846, 143.892 216.036 C 146.616 211.215, 154 196.279, 154 195.590 C 154 195.205, 154.967 192.777, 156.148 190.195 C 158.968 184.032, 161.981 173.184, 164.806 159.023 L 165.500 155.546 174.500 153.820 C 179.450 152.872, 187.022 151.227, 191.327 150.167 C 198.338 148.439, 199.217 148.401, 199.754 149.802 C 200.437 151.580, 198.582 183.329, 196.530 205 C 195.038 220.753, 193.380 247.480, 192.368 272.084 C 191.734 287.506, 191.751 287.690, 194.058 289.840 C 198.121 293.624, 201.722 291.436, 204.487 283.500 C 205.851 279.584, 206.406 273.082, 207.047 253.500 C 207.498 239.750, 208.827 219.050, 210.002 207.500 C 211.176 195.950, 212.444 177.284, 212.819 166.020 L 213.500 145.540 221.217 143.756 C 225.461 142.775, 230.540 141.024, 232.503 139.866 C 239.078 135.986, 241.148 127.834, 236.488 124.169 C 233.323 121.680, 230.488 122.365, 228.245 126.162 C 227.297 127.768, 225.503 129.289, 224.260 129.541 C 223.017 129.794, 220.762 130.246, 219.250 130.547 C 217.738 130.849, 215.713 131.329, 214.750 131.615 C 213.226 132.068, 212.997 131.384, 212.981 126.317 C 212.970 123.118, 212.309 116, 211.512 110.500 C 210.715 105, 210.049 100.015, 210.032 99.423 C 209.997 98.243, 222.989 95.983, 229.750 95.993 C 237.781 96.006, 240.132 90.285, 234.164 85.255 C 230.869 82.478, 228.165 82.447, 212 85 C 205.125 86.086, 197.609 86.980, 195.299 86.987 L 191.098 87 200.974 77.124 C 208.386 69.711, 211.742 65.476, 214.425 60.149 C 219.905 49.267, 218.892 44.047, 211.568 45.421 C 207.799 46.128, 203.396 50.905, 201.002 56.884 C 199.446 60.767, 193.696 68.368, 187.121 75.231 L 182.588 79.962 180.264 77.779 C 178.986 76.578, 175.495 70.510, 172.507 64.294 C 168.951 56.898, 165.664 51.611, 162.996 48.996 C 158.828 44.910, 156.836 44.282, 153.750 46.080 M 81.667 53.825 C 80.179 55.379, 78.519 58.189, 77.980 60.069 C 77.392 62.120, 76.998 86.087, 76.995 119.993 C 76.989 185.385, 75.189 225.619, 69.996 276.412 C 69.137 284.822, 69.215 286.680, 70.515 288.662 C 72.190 291.220, 76.100 291.789, 77.813 289.725 C 79.132 288.136, 83.370 258.947, 85.468 237 C 88.063 209.853, 88.958 191.825, 88.979 166.211 L 89 141.922 91.250 144.057 C 94.104 146.765, 97.265 148, 101.343 148 C 107.167 148, 111.161 143.308, 108.469 139.627 C 106.750 137.276, 92.733 133.011, 90.617 134.194 C 89.139 135.021, 89 131.611, 89 94.621 C 89 59.156, 88.805 53.948, 87.429 52.571 C 85.303 50.446, 84.800 50.556, 81.667 53.825 M 180.500 102.618 C 173.350 103.920, 164.876 105.250, 161.669 105.575 C 156.327 106.115, 155.961 106.304, 157.303 107.832 C 161.795 112.950, 164.598 122.082, 165.666 135.084 L 166.207 141.669 170.853 140.907 C 173.409 140.488, 179.325 139.216, 184 138.080 C 188.675 136.944, 193.682 136.011, 195.128 136.007 C 200.062 135.994, 200.338 134.531, 198.594 117.644 C 197.717 109.160, 197 101.719, 197 101.109 C 197 99.693, 196.128 99.772, 180.500 102.618 M 48.544 107.344 C 46.968 108.496, 46.825 109.392, 47.541 113.594 C 48.791 120.927, 48.263 137.054, 46.529 144.531 C 45.429 149.275, 45.290 151.673, 46.035 153.065 C 47.360 155.541, 52.127 155.622, 54.315 153.204 C 56.957 150.285, 60.004 135.298, 60.071 124.886 C 60.137 114.788, 58.768 110.351, 54.708 107.508 C 52.057 105.651, 50.901 105.621, 48.544 107.344" stroke="none" fill="black" fill-rule="evenodd"/>
</svg>