<svg xmlns="http://www.w3.org/2000/svg" width="300" height="300" viewBox="0 0 300 300" version="1.1">
	<path d="M 60.604 12.250 C 56.213 19.104, 55.895 26.874, 57.770 81.500 C 58.468 101.850, 59.299 154.725, 59.615 199 C 59.932 243.275, 60.610 281.167, 61.122 283.205 C 62.301 287.897, 64.398 290, 67.897 290 C 72.142 290, 75.268 286.033, 75.144 280.805 C 75.087 278.437, 74.621 250.400, 74.107 218.500 C 73.593 186.600, 72.979 153.907, 72.744 145.850 L 72.315 131.200 76.379 132.634 C 78.614 133.422, 81.356 134.896, 82.472 135.909 C 87.768 140.716, 94.942 141.544, 97.498 137.644 C 99.382 134.768, 98.804 133.142, 93.500 126.394 C 88.835 120.458, 84.001 118, 76.993 118 L 72 118 71.971 110.750 C 71.955 106.763, 71.314 83.560, 70.546 59.190 C 69.372 21.900, 68.898 14.493, 67.553 12.440 C 65.553 9.388, 62.492 9.304, 60.604 12.250 M 187.884 20.005 C 186.995 20.524, 185.195 23.323, 183.884 26.225 C 181.653 31.161, 181.500 32.666, 181.500 49.666 C 181.500 59.658, 181.139 68.193, 180.699 68.634 C 180.258 69.075, 177.333 69.735, 174.199 70.101 C 171.064 70.467, 162.425 71.471, 155 72.332 C 141.493 73.898, 117.356 77.350, 111.264 78.587 C 105.199 79.819, 100.712 86.953, 104.250 89.740 C 107.067 91.959, 111.716 91.840, 131.626 89.042 C 143.107 87.428, 158.125 85.399, 165 84.532 C 171.875 83.666, 178.738 82.706, 180.250 82.399 L 183 81.841 183 89.355 C 183 93.488, 182.325 100.078, 181.500 104 C 180.497 108.769, 180.316 111.723, 180.955 112.916 C 181.789 114.475, 181.249 114.845, 176.705 115.828 C 173.842 116.447, 166.797 117.685, 161.050 118.578 C 155.302 119.471, 149.634 120.569, 148.455 121.017 C 142.596 123.245, 141.303 128.509, 145.750 132.036 C 148.273 134.038, 149.324 134.177, 158.500 133.728 C 169.964 133.167, 229.771 121.035, 233.671 118.480 C 237.006 116.294, 236.917 110.647, 233.512 108.416 C 231.317 106.978, 229.819 106.920, 220.762 107.930 C 215.118 108.559, 206.737 109.756, 202.137 110.590 C 197.537 111.424, 193.616 111.949, 193.423 111.757 C 193.231 111.564, 193.951 107.152, 195.023 101.953 C 196.096 96.754, 196.980 89.688, 196.987 86.250 L 197 80 202.508 80 C 210.412 80, 236.739 76.244, 241.739 74.404 C 249.375 71.592, 252.166 65.384, 247.686 61.174 C 245.137 58.780, 243.263 58.498, 239.797 59.987 C 238.534 60.529, 229.400 62.112, 219.500 63.504 C 209.600 64.896, 200.557 66.243, 199.403 66.498 C 197.387 66.943, 197.283 66.484, 196.672 54.447 C 196.082 42.801, 194.482 26.464, 193.420 21.250 C 192.938 18.881, 190.677 18.373, 187.884 20.005 M 32.087 84.913 C 30.132 86.868, 30 88.094, 30 104.300 C 30 115.089, 29.603 121.997, 28.946 122.654 C 27.362 124.238, 28.947 133.947, 31.149 136.149 C 33.580 138.580, 35.337 138.484, 38.448 135.750 C 42.025 132.605, 43.006 126.061, 42.967 105.614 C 42.937 90.509, 42.718 88.242, 41.099 86.302 C 38.325 82.979, 34.595 82.405, 32.087 84.913 M 239.500 149.706 C 230.100 150.451, 199.312 154.357, 185 156.621 C 176.475 157.969, 164.676 159.506, 158.780 160.038 C 152.774 160.579, 146.518 161.739, 144.552 162.677 C 141.272 164.241, 140.923 164.241, 139.193 162.675 C 136.789 160.499, 132.729 160.535, 130.733 162.750 C 128.324 165.423, 127.691 169.446, 128.851 174.718 C 129.429 177.348, 130.393 188.950, 130.993 200.500 C 131.593 212.050, 132.349 224.477, 132.673 228.116 C 133.259 234.700, 133.247 234.741, 130.160 236.565 C 126.985 238.440, 124.666 242.966, 125.614 245.437 C 125.905 246.196, 127.511 247.383, 129.182 248.075 C 131.810 249.164, 133.929 248.948, 144.860 246.479 C 160.096 243.038, 184.243 241.951, 200.253 243.986 C 215.303 245.899, 223 243.721, 223 237.550 C 223 233.288, 218.100 230.360, 208.805 229.068 C 188.691 226.273, 167.915 226.070, 151.750 228.510 L 147 229.227 146.983 216.364 C 146.967 204.816, 146.158 193.491, 144.371 179.812 C 143.792 175.382, 143.877 175.155, 145.906 175.686 C 147.087 175.994, 158.503 174.867, 171.276 173.180 C 207.453 168.403, 240.935 164.601, 241.535 165.202 C 242.478 166.145, 240.103 236.270, 238.968 241 C 237.368 247.666, 235.406 250.288, 232.986 248.993 C 228.831 246.769, 222.201 250.908, 223.477 254.929 C 224.523 258.224, 230.555 262.195, 235.330 262.734 C 238.447 263.085, 240.762 262.652, 243.655 261.176 C 255.281 255.245, 258 241.918, 258 190.862 C 258 167.732, 257.707 161.234, 256.536 158.433 C 253.637 151.493, 248.721 148.975, 239.500 149.706" stroke="none" fill="black" fill-rule="evenodd"/>
</svg>