<svg xmlns="http://www.w3.org/2000/svg" width="300" height="300" viewBox="0 0 300 300" version="1.1">
	<path d="M 197.223 15.557 C 196 16.413, 195 17.737, 195 18.499 C 195 20.899, 174.156 46.218, 159.619 61.476 C 156.170 65.097, 146.253 80.194, 144.352 84.718 C 141.233 92.141, 144.556 98, 151.885 98 C 156.605 98, 156.817 96.595, 148.864 118 C 146.410 124.604, 144 134.853, 144 138.684 C 144 140.383, 147.612 144, 149.309 144 C 153.325 144, 157.085 135.667, 166.388 106.144 C 171.007 91.487, 170.260 92.379, 181.069 88.605 L 184.638 87.359 186.916 95.617 C 189.620 105.416, 192.394 109.540, 198.775 113.242 C 212.436 121.169, 241.033 111.580, 230.949 102.454 C 229.280 100.943, 228.255 100.904, 220.551 102.050 C 205.940 104.224, 200.898 101.043, 199.471 88.751 C 198.652 81.693, 198.365 81.986, 209.459 78.560 C 218.311 75.825, 220 76.240, 220 81.147 C 220 83.362, 220.624 84.287, 222.632 85.050 C 226.427 86.493, 228.975 85.304, 230.642 81.314 C 231.933 78.225, 231.921 77.282, 230.539 73.161 C 229.680 70.597, 227.182 66.568, 224.988 64.207 C 222.795 61.845, 221 59.048, 221 57.992 C 221 54.985, 217.570 53.664, 213.544 55.120 C 210.588 56.189, 210.046 56.933, 209.317 60.920 L 208.482 65.494 202.618 66.226 C 199.393 66.629, 196.247 67.375, 195.627 67.885 C 195.007 68.394, 191.800 69.591, 188.500 70.544 C 185.200 71.498, 180.250 73.307, 177.500 74.564 C 171.155 77.466, 166.232 79.581, 162.666 80.937 L 159.862 82.003 162.121 78.752 C 164.115 75.882, 179.585 56.581, 191.797 41.727 C 197.632 34.630, 204.588 24.019, 205.293 21.140 C 205.703 19.463, 205.178 18.087, 203.481 16.390 C 200.664 13.573, 200.152 13.505, 197.223 15.557 M 78.783 25.750 C 77.944 26.712, 76.765 28.453, 76.164 29.619 C 74.107 33.604, 71.915 80.482, 71.003 140 C 70.502 172.725, 69.620 210.750, 69.044 224.500 C 68.469 238.250, 67.832 253.550, 67.629 258.500 C 67.381 264.561, 66.659 268.742, 65.419 271.304 C 63.301 275.681, 64.091 277.924, 68.276 279.416 C 71.429 280.540, 75.256 278.340, 77.417 274.160 C 80.462 268.271, 83.938 187.105, 83.998 120.500 C 84.017 99.340, 84.683 71.642, 85.500 58 C 87.362 26.929, 87.394 28.445, 84.811 26.039 C 82.131 23.542, 80.766 23.477, 78.783 25.750 M 46.751 92.689 C 44.130 93.374, 43.736 96.774, 45.439 104.002 C 46.281 107.576, 46.977 113.051, 46.985 116.169 C 47.003 123.136, 44.407 133.667, 41.879 136.881 C 37.805 142.060, 41.227 147.863, 47.140 145.801 C 55.375 142.931, 60.664 124.612, 58.098 107.850 C 56.616 98.167, 54.864 94.279, 51.387 92.957 C 50.003 92.431, 48.787 92.052, 48.685 92.116 C 48.583 92.180, 47.713 92.438, 46.751 92.689 M 89.250 112.522 C 85.911 114.883, 86.330 119.491, 90.486 126.136 C 94.381 132.362, 100.256 137, 104.248 137 C 105.700 137, 108.106 135.953, 109.594 134.673 C 111.750 132.818, 112.320 131.427, 112.400 127.827 C 112.520 122.396, 110.795 120, 106.763 120 C 104.553 120, 102.823 118.962, 100.136 116.025 C 95.879 111.371, 92.442 110.265, 89.250 112.522 M 168.991 133.866 C 165.807 136.525, 165.646 136.928, 166.783 139.424 C 168.222 142.581, 167.912 143.297, 161.594 151.433 C 159.067 154.687, 157 157.793, 157 158.334 C 157 158.875, 155.088 161.814, 152.750 164.864 C 150.412 167.914, 148.180 170.878, 147.790 171.449 C 147.374 172.059, 144.962 170.112, 141.960 166.744 C 139.144 163.585, 136.201 161, 135.420 161 C 134.639 161, 133.998 160.662, 133.996 160.250 C 133.994 159.838, 131.944 158.658, 129.441 157.628 C 123.911 155.354, 118.292 155.969, 115.708 159.132 C 113.067 162.364, 113.909 164.445, 118.008 164.817 C 121.921 165.172, 127.141 169.699, 134.362 179 C 138.046 183.744, 138.443 184.706, 137.251 186 C 136.491 186.825, 134.303 189.637, 132.389 192.250 C 130.475 194.863, 128.284 197, 127.522 197 C 125.623 197, 124.663 200.502, 125.918 202.847 C 128.643 207.939, 136.369 205.521, 143.138 197.458 L 146.775 193.124 155.138 200.650 C 159.737 204.789, 163.909 208.568, 164.410 209.047 C 165.680 210.265, 152.893 228.891, 147.006 234.397 C 143.698 237.492, 141.040 239.059, 138.364 239.491 C 131.083 240.667, 129.946 241.054, 127.975 243.025 C 125.412 245.588, 125.485 246.576, 128.455 249.545 C 131.449 252.540, 137.358 252.819, 145.846 250.366 C 150.735 248.954, 152.655 247.567, 160.038 240.116 C 164.734 235.377, 170.377 228.495, 172.578 224.821 L 176.580 218.142 186.540 225.022 C 196.709 232.045, 200.197 234.092, 212.500 240.251 C 228.658 248.340, 231.422 249.388, 259.500 258.073 C 263.350 259.263, 270.378 260.461, 275.119 260.735 L 283.737 261.232 287.869 257.500 C 292.392 253.413, 293.116 250.320, 290.171 247.655 C 288.140 245.817, 284.455 245.455, 283.500 247 C 282.355 248.853, 272.227 248.028, 263.819 245.397 C 250.310 241.169, 238.860 237.073, 233.228 234.453 C 230.328 233.104, 227.583 232, 227.127 232 C 224.721 232, 190.231 211.667, 184.719 206.999 C 184.289 206.635, 185.765 202.999, 187.999 198.919 C 208.250 161.923, 211.844 149.121, 204.144 141.415 C 201.694 138.962, 201.061 138.814, 195.500 139.384 C 192.200 139.722, 188.083 140.269, 186.351 140.598 C 183.484 141.144, 183.144 140.932, 182.551 138.234 C 180.953 130.959, 174.834 128.988, 168.991 133.866 M 187.500 153.647 C 185.850 153.839, 182.198 154.504, 179.384 155.125 C 174.653 156.170, 174.013 156.677, 170.884 161.863 C 169.023 164.947, 164.829 170.797, 161.565 174.864 L 155.631 182.257 160.103 186.379 C 169.791 195.308, 172.216 197.183, 173.005 196.358 C 175.709 193.534, 192.430 160.502, 193.562 155.750 C 194.264 152.800, 194.400 152.848, 187.500 153.647" stroke="none" fill="black" fill-rule="evenodd"/>
</svg>