<svg xmlns="http://www.w3.org/2000/svg" width="300" height="300" viewBox="0 0 300 300" version="1.1">
	<path d="M 110 18.745 C 103.529 21.189, 99.566 28.130, 103.982 29.285 C 105.837 29.770, 105.880 30.080, 104.653 34.152 C 103.209 38.940, 101.107 42.819, 93.237 55.212 C 90.343 59.770, 87.418 64.378, 86.737 65.451 C 74.024 85.494, 69.828 91.392, 63.554 98.034 C 58.916 102.945, 57.584 105.751, 58.614 108.436 C 59.551 110.878, 63.484 112.147, 66.528 110.990 C 72.693 108.646, 86.668 92.333, 98.464 73.712 L 103.349 66 109.200 66 C 112.705 66, 117.345 65.148, 120.775 63.873 C 123.924 62.704, 127.942 61.532, 129.704 61.269 L 132.908 60.792 132.321 64.646 C 131.998 66.766, 130.665 72.550, 129.359 77.500 C 128.053 82.450, 124.321 97.300, 121.064 110.500 C 117.808 123.700, 113.720 138.550, 111.980 143.500 C 108.683 152.876, 102.156 166, 100.790 166 C 100.355 166, 100 166.522, 100 167.161 C 100 169.090, 94.103 173.729, 90.814 174.387 C 87.426 175.065, 84 178.371, 84 180.962 C 84 190.280, 101.354 187.073, 111.401 175.899 C 120.226 166.083, 130.227 141.697, 135.556 117 C 137.040 110.125, 140.019 97.300, 142.176 88.500 C 148.542 62.537, 148.391 54.688, 141.426 49.376 C 138.353 47.032, 137.344 46.816, 131.257 47.197 C 127.115 47.457, 122.053 48.628, 118.176 50.224 C 114.698 51.656, 112.080 52.304, 112.358 51.664 C 112.636 51.024, 114.331 47.125, 116.124 43 C 120.177 33.680, 120.768 24.281, 117.500 21.135 C 115.182 18.903, 112.144 17.935, 110 18.745 M 196.500 48.072 C 191.550 49.137, 182.606 50.212, 176.625 50.461 C 167.434 50.844, 165.240 51.263, 162.457 53.170 C 156.638 57.157, 157.079 63.889, 163.330 66.486 C 167.541 68.235, 186.868 66.911, 200.269 63.955 C 212.239 61.315, 213.448 61.622, 212.712 67.108 C 211.867 73.407, 207.778 85, 206.401 85 C 205.721 85, 203.066 84.100, 200.500 83 C 194.727 80.525, 192.770 80.491, 190.655 82.829 C 186.872 87.009, 189.736 92.021, 198.416 96.413 C 209.404 101.973, 217.038 100.615, 221.729 92.268 C 224.992 86.463, 229 71.486, 229 65.100 C 229 58.468, 226.029 51.731, 221.718 48.589 C 217.894 45.802, 207.988 45.599, 196.500 48.072 M 175.645 77.064 C 168.756 82.484, 159.012 114.449, 159.003 131.662 C 158.999 140.022, 161.414 152.040, 164.416 158.597 C 167.987 166.396, 175.965 174.437, 182.869 177.194 C 187.723 179.132, 190.295 179.437, 201.500 179.400 C 217.016 179.349, 226.540 177.485, 236.619 172.524 C 249.126 166.368, 255.757 157.655, 253 150.999 C 252.180 149.019, 250.840 147.904, 248.722 147.439 C 246.031 146.848, 245.223 147.227, 242.390 150.411 C 236.439 157.099, 221.873 162.140, 204.326 163.585 C 190.615 164.714, 183.197 161.173, 178.275 151.150 C 175.582 145.667, 175.504 145.041, 175.626 130 C 175.750 114.619, 177.407 100.271, 180.677 86.246 C 182.346 79.082, 182.341 78.967, 180.268 77.035 C 178.184 75.094, 178.150 75.094, 175.645 77.064 M 78 103.231 C 76.625 103.961, 74.901 105.807, 74.170 107.333 C 73.023 109.723, 73.069 110.456, 74.498 112.637 C 76.891 116.289, 80.942 117.562, 94.808 119.019 C 105.771 120.171, 107.288 120.141, 108.683 118.745 C 111.039 116.390, 110.612 112.123, 107.757 109.475 C 102.691 104.778, 82.905 100.626, 78 103.231 M 223.751 206.714 C 220.995 207.395, 220.440 211.790, 222.591 215.901 C 225.278 221.035, 242.709 238.301, 247.856 240.927 C 253.965 244.043, 257.789 243.946, 260.667 240.601 C 264.526 236.114, 263.333 232.231, 257.122 229.062 C 255.026 227.993, 251.865 225.404, 250.098 223.309 C 239.778 211.072, 230.294 205.098, 223.751 206.714 M 69.500 208.216 C 64.209 211.271, 63.555 213.342, 58.829 242 C 58.240 245.575, 57.988 252.227, 58.270 256.783 C 59.149 270.981, 65.814 280.860, 72.845 278.384 C 76.267 277.180, 77.185 273.184, 75.277 267.800 C 73.011 261.405, 73.450 251.533, 76.881 231.761 C 80.128 213.050, 80.034 210.159, 76.114 208.061 C 73.612 206.722, 72.023 206.759, 69.500 208.216 M 156.174 217.314 C 151.930 221.833, 153.876 228.052, 161.716 235.025 C 175.296 247.103, 194.018 247.115, 189.018 235.042 C 188.089 232.800, 187.010 232.099, 183.677 231.573 C 180.240 231.031, 178.474 229.823, 173.703 224.746 C 164.184 214.618, 160.268 212.957, 156.174 217.314 M 124 222.791 C 118.234 226.680, 116.178 231.805, 116.076 242.540 C 115.896 261.575, 125.719 279.810, 139.874 286.717 C 145.005 289.221, 146.512 289.464, 157 289.481 C 168.016 289.499, 168.807 289.356, 175.780 286.088 C 187.554 280.570, 193.042 273.007, 193.197 262.087 C 193.302 254.687, 189.903 248, 186.036 248 C 182.315 248, 180.647 250.582, 179.937 257.440 C 179.373 262.891, 178.718 264.685, 176.411 267.093 C 171.021 272.719, 155.153 275.762, 147.620 272.615 C 140.244 269.533, 131.731 257.183, 128.427 244.771 C 126.503 237.543, 126.680 232.965, 129 230 C 131.286 227.077, 131.446 225.171, 129.608 222.750 C 127.990 220.619, 127.212 220.625, 124 222.791" stroke="none" fill="black" fill-rule="evenodd"/>
</svg>