<svg xmlns="http://www.w3.org/2000/svg" width="300" height="300" viewBox="0 0 300 300" version="1.1">
	<path d="M 45.960 25.731 C 45.112 25.915, 43.679 27.514, 42.774 29.283 C 41.286 32.192, 41.077 42.994, 40.593 142 C 40.299 202.225, 39.769 252.963, 39.416 254.750 C 39.062 256.538, 38.181 258, 37.458 258 C 35.405 258, 33 260.911, 33 263.397 C 33 266.720, 37.194 270.175, 41.371 270.294 C 48.135 270.485, 52.242 263.871, 54.028 249.910 C 54.619 245.284, 55.363 215.837, 55.682 184.472 L 56.260 127.444 62.380 133.833 C 65.746 137.347, 69.513 140.611, 70.750 141.086 C 73.918 142.303, 77.822 140.556, 78.567 137.588 C 80.764 128.835, 66.195 110.899, 60.020 114.755 C 58.924 115.440, 57.642 116, 57.172 116 C 56.701 116, 56.050 98.015, 55.723 76.033 C 55.147 37.183, 55.066 35.928, 52.848 31.093 C 50.622 26.240, 49.093 25.050, 45.960 25.731 M 196 29.660 C 185.887 30.318, 137.576 35.091, 131.570 36.025 C 127.599 36.642, 125.226 36.602, 124.384 35.904 C 122.570 34.398, 119.485 36.322, 117.576 40.148 C 115.396 44.517, 115.562 45.454, 119.029 48.371 C 123.484 52.119, 127.716 52.485, 144.956 50.609 C 153.505 49.679, 162.975 48.686, 166 48.402 L 171.500 47.886 168.774 49.660 C 165.154 52.016, 164.972 52.641, 164.003 66 C 162.494 86.814, 157.344 100.491, 144.507 117.777 C 141.761 121.475, 137.988 125.850, 136.123 127.500 C 129.603 133.267, 129 134.017, 129 136.345 C 129 137.635, 129.823 139.435, 130.829 140.345 C 132.949 142.264, 139.137 142.529, 142.316 140.838 C 145.966 138.895, 152 133.735, 152 132.556 C 152 131.946, 153.813 129.658, 156.030 127.473 C 162.117 121.472, 168.231 112.411, 172.208 103.500 C 180.114 85.782, 183.418 51.633, 177.448 49.342 C 173.804 47.943, 177.180 47.239, 192.750 46.147 C 215.589 44.546, 238.003 44.597, 237.992 46.250 C 237.987 46.938, 237.332 52.450, 236.535 58.500 C 235.738 64.550, 234.384 74.900, 233.528 81.500 C 229.309 113.993, 227.774 123.881, 226.279 128.185 C 224.739 132.618, 224.542 132.793, 222.603 131.435 C 219.744 129.432, 216.757 129.646, 214.189 132.039 C 210.839 135.160, 211.372 138.983, 215.750 143.243 C 221.080 148.429, 227.018 149.655, 232.459 146.692 C 242.747 141.090, 243.580 137.740, 252.575 65.775 C 255.217 44.641, 255.243 43.925, 253.542 39.470 C 252.307 36.236, 250.598 34.100, 247.723 32.196 L 243.653 29.500 222.576 29.401 C 210.984 29.346, 199.025 29.463, 196 29.660 M 19.837 87.673 C 17.091 88.400, 15.277 93.977, 14.689 103.500 C 14.383 108.450, 13.209 115.425, 12.079 119 C 10.950 122.575, 10.020 126.412, 10.013 127.527 C 9.992 130.872, 12.829 134, 15.882 134 C 21.154 134, 24.567 128.223, 28.003 113.485 C 32.368 94.765, 29.329 85.158, 19.837 87.673 M 175.500 170.961 C 151.450 171.765, 142.949 173.381, 138.310 178.029 C 135.745 180.600, 135.350 180.711, 133.783 179.298 C 130.929 176.725, 126.935 177.389, 123.736 180.970 C 121.989 182.924, 121.097 184.810, 121.464 185.767 C 123.215 190.330, 124.184 211.183, 123.792 235.883 C 123.416 259.591, 123.142 263.423, 121.745 264.444 C 119.787 265.876, 118.597 270.156, 119.429 272.776 C 120.379 275.768, 124.393 277, 133.195 277 C 137.651 277, 151.152 277.505, 163.198 278.122 C 194.440 279.722, 213.140 277.803, 219.130 272.382 C 220.412 271.222, 221.314 271.098, 222.774 271.879 C 227.404 274.357, 237.794 268.261, 242.166 260.500 C 247.807 250.485, 250.035 239.416, 253.539 204 C 255.840 180.747, 254.875 176.648, 246.166 172.695 C 241.897 170.758, 239.585 170.564, 219 170.418 C 206.625 170.330, 187.050 170.575, 175.500 170.961 M 194.917 187.413 C 194.688 187.640, 183.646 188.082, 170.381 188.394 C 157.115 188.707, 145.526 189.245, 144.628 189.589 C 143.730 189.934, 141.815 189.919, 140.371 189.557 C 137.913 188.940, 137.789 189.075, 138.401 191.699 C 138.760 193.240, 139.301 205.750, 139.603 219.500 C 140.016 238.335, 139.814 246.382, 138.781 252.131 C 137.440 259.595, 137.455 259.764, 139.455 259.813 C 193.326 261.127, 210 261.190, 210 260.078 C 210 256.057, 217.581 254.560, 220.745 257.957 C 222.546 259.889, 222.601 259.874, 225.125 256.707 C 228.438 252.553, 229.421 249.345, 232.445 232.821 C 236.058 213.086, 238.378 188.858, 236.755 187.827 C 235.498 187.029, 195.701 186.635, 194.917 187.413" stroke="none" fill="black" fill-rule="evenodd"/>
</svg>