<svg xmlns="http://www.w3.org/2000/svg" width="300" height="300" viewBox="0 0 300 300" version="1.1">
	<path d="M 185.120 28.832 C 184.011 30.389, 182.096 34.102, 180.865 37.082 C 178.797 42.087, 178.595 44.417, 178.215 67.651 L 177.803 92.802 170.151 94.809 C 165.943 95.913, 159.243 97.757, 155.263 98.908 C 151.282 100.059, 145.432 101.007, 142.263 101.016 C 135.350 101.034, 126.031 103.094, 122.554 105.372 C 121.167 106.282, 119.731 108.222, 119.364 109.684 C 118.826 111.828, 119.252 112.820, 121.560 114.806 C 124.281 117.146, 124.873 117.239, 133.462 116.674 C 138.433 116.347, 147.450 114.912, 153.500 113.485 C 168.071 110.049, 177.386 108.040, 177.573 108.294 C 177.656 108.407, 177.327 139.550, 176.842 177.500 C 176.045 239.712, 175.492 254.082, 173.422 266.223 C 172.860 269.520, 173.073 270.076, 175.280 271.082 C 178.615 272.601, 182.758 270.601, 185.293 266.248 C 188.193 261.268, 188.774 250.178, 190.142 173.768 L 191.391 104.035 203.945 99.877 C 217.155 95.502, 226.783 91.171, 228.858 88.671 C 229.539 87.850, 230.351 85.614, 230.661 83.702 C 231.097 81.013, 230.752 79.752, 229.135 78.135 C 226.894 75.894, 225.291 76.092, 221 79.141 C 218.630 80.826, 193.166 88.499, 192.420 87.754 C 192.227 87.560, 191.941 73.924, 191.784 57.451 C 191.609 38.979, 191.117 27.218, 190.500 26.765 C 188.650 25.406, 187.148 25.984, 185.120 28.832 M 234.525 30.792 C 231.536 31.460, 230.067 34.046, 230.032 38.702 C 229.971 46.751, 242.713 68.336, 251.323 74.768 C 258.454 80.095, 268.169 73.652, 264.902 65.762 C 264.130 63.900, 262.764 62.703, 261.011 62.352 C 258.170 61.784, 256.528 59.423, 247.964 43.594 C 242.242 33.016, 238.883 29.817, 234.525 30.792 M 64.576 38.916 C 63.623 39.969, 61.904 43.682, 60.757 47.166 C 58.896 52.817, 58.624 56.520, 58.240 81.500 C 57.771 112.032, 59.432 190.141, 61.026 212.500 C 62.476 232.840, 66.956 276.696, 68.153 282.280 C 69.349 287.853, 72.493 290.595, 76.528 289.582 C 80.139 288.676, 81.425 284.732, 80.141 278.500 C 78.329 269.700, 74.451 209.214, 73.366 172.811 L 72.684 149.929 75.407 150.965 C 77.160 151.631, 78.765 151.661, 79.908 151.049 C 81.292 150.309, 82.881 151.003, 87.092 154.189 C 93.767 159.238, 99.523 161.949, 103.628 161.978 C 107.192 162.003, 108.715 160.596, 109.014 157 C 109.375 152.646, 109.109 152.253, 103.750 149.224 C 100.862 147.592, 96.355 143.960, 93.733 141.152 C 88.240 135.272, 82.343 131, 79.718 131 C 78.719 131, 76.573 131.687, 74.950 132.526 L 72 134.051 71.991 103.276 C 71.987 86.349, 71.531 67.397, 70.979 61.161 C 70.176 52.082, 70.254 48.883, 71.373 45.115 C 72.495 41.336, 72.525 40.071, 71.525 38.704 C 69.875 36.447, 66.724 36.543, 64.576 38.916 M 37.228 111.039 C 34.233 112.242, 33.363 114.763, 35.038 117.382 C 35.864 118.674, 36.651 124.201, 37.055 131.552 C 37.856 146.124, 38.641 148, 43.937 148 C 47.376 148, 47.926 147.651, 48.902 144.851 C 50.226 141.053, 50.314 123.061, 49.036 117.550 C 47.588 111.303, 42.945 108.743, 37.228 111.039 M 143.836 143.755 C 142.921 143.952, 141.368 146.001, 140.385 148.307 C 138.928 151.728, 138.624 155.077, 138.733 166.500 C 138.868 180.628, 141.305 210.905, 142.598 214.536 C 144.582 220.104, 150.219 222.559, 155.066 219.965 C 157.284 218.778, 157.694 214.093, 155.750 212.152 C 154.859 211.261, 154.318 204.101, 153.867 187.202 C 153.353 167.962, 152.828 161.799, 151.077 154.466 C 148.906 145.371, 147.308 143.008, 143.836 143.755 M 219.709 147.250 C 218.344 149.588, 216.351 153.075, 215.279 155 C 214.206 156.925, 212.176 160.571, 210.766 163.103 C 204.121 175.038, 203.193 192.543, 208.597 204.003 C 214.958 217.492, 226.055 224.500, 241.053 224.500 C 247.755 224.500, 249.446 224.083, 256.053 220.800 C 261.291 218.197, 265.873 214.785, 271.500 209.294 C 281.257 199.774, 282.895 197.042, 280.986 193.473 C 278.169 188.210, 271.941 189.004, 265.731 195.418 C 253.007 208.559, 239.153 212.338, 228.803 205.488 C 218.658 198.775, 217.476 181.737, 225.582 159.060 C 229.525 148.030, 229.650 146.898, 227.171 144.655 C 224.269 142.029, 222.372 142.689, 219.709 147.250" stroke="none" fill="black" fill-rule="evenodd"/>
</svg>