<svg xmlns="http://www.w3.org/2000/svg" width="300" height="300" viewBox="0 0 300 300" version="1.1">
	<path d="M 83.460 11.127 C 80.920 12.361, 78.037 18.851, 77.338 24.909 C 77.047 27.434, 77.741 43.900, 78.881 61.500 C 82.718 120.766, 83.408 142.710, 83.336 203.313 L 83.266 263.125 81.133 264.619 C 78.196 266.676, 78.461 269.110, 81.991 272.491 C 84.701 275.087, 85.336 275.270, 88.741 274.429 C 94.951 272.895, 95.655 270.213, 97.062 242.748 C 97.813 228.082, 98.093 203.886, 97.794 179.498 C 97.402 147.568, 97.557 140, 98.605 140 C 99.317 140, 100.348 139.212, 100.895 138.250 C 101.780 136.692, 102.141 136.656, 104.195 137.927 C 109.457 141.185, 111.706 141.988, 115.589 141.994 C 118.983 141.999, 119.873 141.575, 120.816 139.504 C 122.324 136.195, 121.184 133.482, 116.129 128.350 C 110.638 122.774, 102.833 118.901, 99.193 119.945 L 96.457 120.729 94.132 75.771 C 92.853 51.044, 91.374 29.392, 90.845 27.656 C 90.316 25.920, 89.876 21.685, 89.867 18.245 C 89.854 13.182, 89.496 11.801, 87.991 10.995 C 85.847 9.848, 86.108 9.840, 83.460 11.127 M 174.244 28.526 C 169.267 32.046, 169.277 31.915, 170.086 85 C 170.501 112.225, 171.133 135.435, 171.492 136.578 C 172.034 138.308, 171.342 139.069, 167.352 141.122 C 159.393 145.217, 156.332 154.041, 162.347 155.551 C 163.621 155.871, 171.377 154.707, 179.582 152.964 C 191.462 150.441, 197.758 149.690, 210.500 149.277 C 228.437 148.696, 233.173 149.696, 234.979 154.444 C 235.510 155.842, 236.070 171.951, 236.223 190.243 C 236.549 229.365, 236.330 230.776, 228.828 237.857 C 223.711 242.686, 222.986 245.107, 225.557 248.777 C 227.756 251.918, 232.569 251.670, 238.054 248.134 C 247.055 242.333, 251.037 235.778, 253.049 223.453 C 254.530 214.374, 252.830 156.234, 250.930 151 C 248.788 145.099, 244.860 140.002, 240.472 137.431 C 234.119 133.708, 214.979 132.257, 197.625 134.182 L 184.749 135.611 185.475 118.056 C 185.945 106.669, 186.604 100.238, 187.350 99.754 C 190.415 97.764, 196.808 97.006, 211 96.949 C 228.424 96.879, 233.309 95.852, 233.833 92.148 C 234.403 88.117, 233.205 85.554, 229.791 83.503 C 226.974 81.811, 224.249 81.473, 210.875 81.161 C 196.995 80.837, 194.751 81.017, 190.781 82.773 L 186.313 84.749 185.667 61.125 C 185.077 39.510, 184.327 32.565, 182.236 29.329 C 180.896 27.255, 176.645 26.828, 174.244 28.526 M 49.465 80.020 C 44.812 81.750, 44.640 82.783, 45.766 102.275 C 46.752 119.344, 46.257 135.841, 44.477 145.290 C 43.924 148.225, 44.163 149.522, 45.536 151.040 C 49.857 155.815, 55.951 151.084, 58.134 141.260 C 59.996 132.878, 59.970 91.832, 58.099 86.528 C 56.017 80.623, 53.316 78.587, 49.465 80.020 M 143.573 148.570 C 142.709 149.433, 141.777 151.233, 141.502 152.570 C 141.226 153.906, 140.742 156.221, 140.428 157.713 C 139.945 160, 144.188 214.717, 145.627 224.758 C 146.294 229.415, 149.964 231.672, 154.090 229.963 C 155.783 229.261, 157.580 227.604, 158.084 226.279 C 160.846 219.015, 156.686 159.175, 152.869 151.250 C 151.173 147.729, 150.335 147, 147.982 147 C 146.421 147, 144.436 147.706, 143.573 148.570 M 157.500 235.002 C 144.854 236.903, 140.028 239.990, 141.366 245.321 C 142.505 249.860, 145.258 250.228, 180.777 250.599 C 212.817 250.934, 214.126 250.874, 216.027 248.973 C 219.463 245.537, 218 241.083, 212.500 238.236 C 206.506 235.132, 170.651 233.024, 157.500 235.002" stroke="none" fill="black" fill-rule="evenodd"/>
</svg>