<svg xmlns="http://www.w3.org/2000/svg" width="300" height="300" viewBox="0 0 300 300" version="1.1">
	<path d="M 198 44.385 C 179.669 57.332, 177.251 59.473, 173.237 66.307 C 170.755 70.531, 170.379 73.979, 172.200 75.800 C 174.695 78.295, 178.034 77.015, 184.339 71.150 C 187.797 67.933, 193.073 63.728, 196.064 61.807 C 202.036 57.970, 209.394 50.486, 210.442 47.183 C 210.810 46.024, 210.620 44.159, 210.020 43.038 C 208.399 40.009, 203.401 40.569, 198 44.385 M 106.500 49.506 C 87.590 52.369, 85.988 52.956, 86.056 57 C 86.179 64.316, 84.883 121.268, 84.369 131.161 L 83.710 143.821 79.105 144.998 C 76.572 145.645, 72.837 146.867, 70.804 147.715 C 68.771 148.562, 66.408 148.987, 65.554 148.659 C 63.056 147.700, 61.169 148.956, 60.495 152.025 C 59.578 156.196, 61.333 158.553, 66.414 159.976 C 70.154 161.023, 72.304 160.975, 79.205 159.689 C 83.767 158.839, 88.372 157.806, 89.437 157.393 C 91.112 156.744, 91.027 157.106, 88.803 160.071 C 87.388 161.957, 84.332 167.455, 82.011 172.290 C 78.139 180.353, 77.893 181.328, 79.038 184.092 C 80.137 186.745, 80.708 187.068, 83.833 186.802 C 86.912 186.540, 88.005 185.643, 92.121 180 C 94.728 176.425, 98.070 171.250, 99.547 168.500 C 103.488 161.164, 104.235 160.404, 105.131 162.825 C 106.609 166.820, 106.472 185.353, 104.947 187.753 C 103.228 190.458, 104.354 192.846, 108.250 194.760 C 111.548 196.381, 115.268 195.047, 117.669 191.383 C 118.971 189.395, 119.547 186.063, 119.837 178.838 C 120.055 173.427, 120.352 169, 120.497 169 C 120.642 169, 124.528 172.867, 129.131 177.592 C 133.734 182.318, 138.715 186.818, 140.200 187.592 C 144.688 189.932, 148.505 189.377, 151.375 185.967 C 153.543 183.390, 153.761 182.570, 152.825 180.516 C 152.187 179.115, 150.531 177.836, 148.886 177.475 C 146.957 177.051, 143.937 174.319, 139.450 168.940 C 131.553 159.472, 128.990 157.344, 123.808 155.948 C 120.338 155.014, 119.914 154.575, 120.189 152.200 C 120.466 149.803, 121.047 149.425, 125.500 148.738 C 134.734 147.314, 145.473 144.791, 148.750 143.275 C 151.310 142.091, 152 141.164, 152 138.909 C 152 133.583, 145.641 131.609, 133.824 133.265 C 132.298 133.479, 132.126 131.097, 131.891 106.500 C 131.749 91.650, 132.003 75.183, 132.457 69.906 C 133.918 52.895, 131.840 48.730, 121.704 48.366 C 118.292 48.243, 111.450 48.756, 106.500 49.506 M 210.320 58.250 C 206.109 61.284, 184.004 79.312, 181.500 81.755 C 177.487 85.670, 171.469 92.637, 170.250 94.777 C 168.433 97.968, 168.695 103.426, 170.750 105.204 C 174.249 108.231, 178.125 108.063, 187.500 104.475 C 188.801 103.977, 188.055 105.246, 185.366 108.105 C 183.093 110.522, 177.805 116.526, 173.616 121.447 C 164.483 132.177, 163.874 134.926, 169.535 139.896 C 172.835 142.794, 173.581 143, 180.785 142.999 L 188.500 142.999 188.547 149.249 C 188.574 152.687, 188.723 160.779, 188.879 167.232 C 189.134 177.777, 188.952 179.259, 187.081 181.886 C 184.521 185.481, 184.463 187.204, 186.829 189.345 C 191.038 193.154, 197.077 190.177, 200.633 182.542 C 202.548 178.428, 202.981 175.843, 202.983 168.500 C 202.985 159.566, 201.736 145.782, 200.467 140.724 C 199.890 138.424, 200.169 137.999, 202.653 137.402 C 204.219 137.025, 207.170 135.880, 209.210 134.858 C 211.251 133.836, 213.111 133, 213.344 133 C 213.577 133, 214.772 135.475, 216 138.500 C 218.064 143.586, 218.478 144, 221.494 144 C 226.267 144, 227.181 142.223, 226.995 133.303 C 226.906 129.011, 227.157 124.215, 227.553 122.644 C 227.950 121.073, 227.875 119.498, 227.387 119.144 C 226.899 118.790, 225.811 117.150, 224.969 115.500 C 222.250 110.173, 216.332 111.034, 212.500 117.314 C 211.563 118.851, 189.414 127.312, 187.786 126.756 C 187.031 126.498, 199.019 111.809, 205.832 104.642 C 210.874 99.339, 219.532 93, 221.735 93 C 225.872 93, 229.804 87.919, 227.967 84.946 C 226.760 82.993, 216.354 82.813, 212.105 84.671 C 210.122 85.538, 205.221 86.790, 201.214 87.453 L 193.929 88.657 197.714 84.584 C 199.796 82.344, 205.213 76.629, 209.750 71.884 C 218.468 62.768, 220.009 59.146, 216.066 57.035 C 213.590 55.710, 213.953 55.633, 210.320 58.250 M 110.500 63.138 C 107.750 63.634, 103.813 63.801, 101.750 63.508 L 98 62.976 98.015 72.738 C 98.026 79.281, 98.343 82.005, 98.978 81 C 99.691 79.873, 102.075 79.469, 108.576 79.377 C 114.723 79.289, 117.477 78.856, 118.097 77.877 C 118.577 77.120, 118.976 73.237, 118.985 69.250 C 119.002 61.130, 119.527 61.508, 110.500 63.138 M 98 94.901 C 98 97.540, 98.268 97.881, 99.750 97.128 C 100.713 96.640, 103.075 95.540, 105 94.684 L 108.500 93.128 104.832 93.064 C 102.814 93.029, 100.452 92.727, 99.582 92.393 C 98.348 91.920, 98 92.471, 98 94.901 M 113.500 105.594 C 109.940 107.155, 101.379 107.423, 100.500 106 C 99.238 103.958, 98 105.101, 98 108.308 L 98 111.615 103.250 111.463 C 108.577 111.309, 118 107.880, 118 106.095 C 118 104.394, 116.592 104.238, 113.500 105.594 M 114.028 123.549 C 109.870 126.485, 105.610 126.669, 101.390 124.096 L 98.280 122.200 97.623 130.749 C 97.261 135.451, 97.143 139.477, 97.361 139.694 C 98.279 140.612, 107.747 137.484, 110.624 135.312 C 113.200 133.369, 114.211 133.130, 116.374 133.952 L 119 134.950 119 127.975 C 119 124.139, 118.662 121.022, 118.250 121.049 C 117.838 121.076, 115.938 122.201, 114.028 123.549 M 213.653 148.831 C 210.971 151.794, 212.468 162.187, 216.487 168.500 C 220.326 174.532, 221.526 175.561, 225.791 176.473 C 229.882 177.348, 234.003 174.964, 233.993 171.727 C 233.990 170.502, 233.067 168.150, 231.942 166.500 C 230.818 164.850, 228.841 161.475, 227.549 159 C 225.026 154.168, 218.419 147, 216.488 147 C 215.840 147, 214.564 147.824, 213.653 148.831 M 167.209 153.566 C 161.076 157.862, 157.881 173.974, 161.549 182.108 C 164.819 189.360, 171.645 190.694, 178.024 185.326 C 182.889 181.233, 181.460 174.136, 175.750 174.032 C 173.541 173.992, 173.408 168.814, 175.420 161.256 C 177.300 154.195, 176.632 152, 172.606 152 C 170.867 152, 168.439 152.705, 167.209 153.566 M 94.409 213.960 C 90.699 215.482, 88.453 224.089, 87.374 240.918 C 86.672 251.857, 87.948 258.367, 91.127 260.068 C 94.056 261.636, 97.882 260.410, 98.413 257.735 C 103.921 230.001, 104.592 220.611, 101.377 216.301 C 99.064 213.199, 97.525 212.682, 94.409 213.960 M 214.750 219.080 C 209.818 221.953, 215.564 232.546, 226.500 240.743 C 230.350 243.628, 233.896 246.868, 234.379 247.942 C 234.863 249.016, 236.583 250.356, 238.202 250.920 C 240.747 251.808, 241.473 251.618, 243.572 249.519 C 246.663 246.428, 246.633 243.913, 243.434 238.135 C 241.649 234.912, 238.238 231.521, 232.233 227 C 220.502 218.169, 218.146 217.102, 214.750 219.080 M 157.039 226.189 C 152.806 230.732, 154.931 238.084, 162.858 246.328 C 168.389 252.082, 171.738 254, 176.250 254 C 182.647 254, 183.911 249.246, 179 243.653 C 177.350 241.774, 176 239.770, 176 239.201 C 176 238.632, 175.605 238.017, 175.122 237.833 C 173.761 237.317, 169 229.894, 169 228.289 C 169 223.832, 160.608 222.358, 157.039 226.189 M 126.834 241.178 C 123.894 244.324, 123.782 244.758, 124.341 250.744 C 125.448 262.598, 133.176 277.587, 140.846 282.757 C 157.614 294.059, 184.855 294.111, 195.632 282.862 C 198.164 280.220, 198.500 279.136, 198.500 273.622 C 198.500 267.714, 198.264 267.093, 194.157 262.187 C 189.146 256.203, 186.055 255.461, 183.346 259.594 C 181.774 261.994, 181.767 262.425, 183.255 265.344 C 186.665 272.037, 186.544 272.852, 181.823 274.994 C 173.158 278.927, 153.799 276.721, 147.656 271.102 C 143.590 267.383, 139.071 257.899, 137.543 249.877 C 136.195 242.801, 135.062 240.639, 131.788 238.887 C 130.264 238.071, 129.335 238.501, 126.834 241.178" stroke="none" fill="black" fill-rule="evenodd"/>
</svg>