<svg xmlns="http://www.w3.org/2000/svg" width="300" height="300" viewBox="0 0 300 300" version="1.1">
	<path d="M 235.315 31.064 C 233.039 31.922, 230.654 35.320, 231.637 36.304 C 232.716 37.383, 225.400 37.900, 202 38.399 C 173.028 39.016, 154.136 40.539, 120.144 44.998 C 104.305 47.076, 99.577 48.687, 98.623 52.334 C 98.144 54.165, 97.870 54.072, 95.150 51.161 C 91.961 47.746, 89.894 47.217, 88.116 49.360 C 87.340 50.296, 86.875 61.919, 86.627 86.610 C 86.317 117.542, 85.962 124.434, 84.060 136.500 C 82.845 144.200, 81.492 153.425, 81.053 157 C 80.321 162.950, 78.438 171.879, 75.966 181.120 C 75.433 183.112, 74.540 187.162, 73.981 190.120 C 73.421 193.079, 71.678 199.775, 70.106 205 C 68.535 210.225, 66.449 217.305, 65.471 220.734 C 64.493 224.163, 62.862 227.720, 61.847 228.639 C 58.994 231.221, 59.349 237.527, 62.462 239.567 C 64.493 240.898, 65.528 240.981, 68.380 240.040 C 70.281 239.412, 72.515 237.863, 73.345 236.597 C 75.809 232.836, 87.335 196.485, 88.933 187.436 C 89.413 184.721, 90.990 177.100, 92.439 170.500 C 93.887 163.900, 95.491 154.900, 96.002 150.500 C 96.513 146.100, 97.668 136.650, 98.569 129.500 C 100.332 115.508, 101.120 68.524, 99.704 61.789 L 98.924 58.078 102.032 59.161 C 103.742 59.757, 107.021 59.965, 109.320 59.623 C 122.462 57.669, 136.827 56.072, 146.452 55.495 L 157.405 54.839 145.332 66.833 C 138.692 73.429, 132.251 80.243, 131.018 81.975 C 128.806 85.081, 128.756 85.096, 127.331 83.062 C 125.513 80.467, 122.390 80.403, 121.035 82.934 C 120.466 83.998, 120 88.639, 120 93.247 C 120 100.066, 120.451 102.561, 122.424 106.651 C 123.758 109.415, 125.152 113.437, 125.523 115.588 C 125.894 117.740, 126.781 121.975, 127.494 125 C 128.208 128.025, 129.064 131.706, 129.397 133.180 C 130.198 136.723, 132.591 139, 135.515 139 C 138.774 139, 141 135.418, 141 130.171 C 141 126.488, 141.267 125.889, 142.667 126.426 C 143.584 126.778, 146.906 127.334, 150.049 127.663 C 154.884 128.168, 157.566 127.692, 167.484 124.569 C 173.930 122.538, 181.649 119.720, 184.636 118.306 C 187.623 116.891, 190.255 115.921, 190.484 116.150 C 190.713 116.379, 188.918 119.414, 186.496 122.895 C 184.074 126.375, 181.959 129.606, 181.796 130.074 C 181.633 130.543, 178.350 131.003, 174.500 131.097 C 169.059 131.230, 166.253 131.893, 161.899 134.073 C 154.314 137.872, 144.048 141.246, 141.835 140.667 C 139.483 140.052, 135 143.594, 135 146.066 C 135 148.828, 142.541 154, 146.567 154 C 148.364 154, 151.934 153.100, 154.500 152 C 157.066 150.900, 159.523 150, 159.960 150 C 160.782 150, 163.242 160.526, 166.854 179.500 C 171.041 201.502, 170.770 204.404, 164.734 202.221 C 159.911 200.477, 157.667 200.703, 156.180 203.083 C 154.514 205.750, 156.333 208.807, 161.477 211.986 C 169.079 216.684, 177.494 214.988, 181.165 208.016 C 184.598 201.496, 182.771 183.155, 175.869 154.833 C 173.109 143.511, 173.136 143.406, 179.182 141.857 C 182.987 140.881, 184.778 139.807, 185.922 137.812 C 186.780 136.318, 188.459 134.851, 189.653 134.551 C 192.275 133.893, 199.474 125.929, 202.115 120.765 C 203.166 118.710, 206.092 112.192, 208.617 106.280 C 212.596 96.965, 213.151 94.829, 212.773 90.280 C 212.237 83.813, 210.253 81.450, 203.734 79.514 C 199.187 78.163, 197.517 78.239, 182.616 80.468 C 159.703 83.896, 143.826 89.440, 140.056 95.328 C 139.161 96.727, 139.163 97.491, 140.065 98.578 C 141.646 100.483, 143.886 100.369, 149.123 98.119 C 152.209 96.793, 157.038 96.065, 165.500 95.650 C 172.100 95.327, 181.027 94.373, 185.338 93.531 C 189.649 92.689, 194.495 92, 196.107 92 C 198.797 92, 198.984 92.226, 198.381 94.750 C 198.020 96.263, 197.395 97.950, 196.992 98.500 C 196.590 99.050, 195.693 101.300, 194.999 103.500 C 193.189 109.239, 193.157 109.260, 189.671 107.106 C 186.089 104.892, 183.741 105.235, 167 110.419 C 150.668 115.477, 148.755 116, 146.585 116 C 145.383 116, 143.899 116.501, 143.287 117.113 C 141.959 118.441, 140 117.457, 140 115.462 C 140 114.681, 138.854 110.628, 137.453 106.456 C 136.053 102.283, 135.179 98.010, 135.513 96.960 C 135.846 95.910, 143.100 88.363, 151.633 80.189 C 165.618 66.791, 167.199 64.934, 167.681 61.342 C 168.064 58.488, 167.767 56.910, 166.633 55.776 C 165.217 54.360, 165.213 54.132, 166.591 53.604 C 167.437 53.279, 180.588 52.561, 195.815 52.008 C 229.015 50.803, 234.382 50.292, 239.184 47.878 C 245.331 44.789, 247.816 38.963, 244.718 34.904 C 242.628 32.165, 237.717 30.159, 235.315 31.064 M 52.704 151.500 C 50.183 153.425, 47.691 155, 47.166 155 C 45.043 155, 40 160.888, 40 163.366 C 40 168.558, 46.344 169.438, 53.054 165.177 C 62.875 158.942, 66.193 153.294, 62.171 149.655 C 59.517 147.253, 57.837 147.581, 52.704 151.500 M 189.257 163.960 C 187.672 166.498, 188.214 167.808, 195.070 178 C 204.977 192.729, 210.397 196.140, 213.912 189.857 C 216.283 185.619, 213.951 180.445, 206.131 172.589 C 195.775 162.185, 191.675 160.089, 189.257 163.960 M 132.329 172.695 C 122.995 181.817, 120.176 196.399, 126.475 202.974 C 130.197 206.859, 134.186 208.375, 138.536 207.559 C 144.490 206.442, 145.104 200.131, 139.467 197.988 C 138.094 197.465, 136.768 195.923, 136.387 194.404 C 135.513 190.922, 138.193 182.502, 141.963 176.890 C 144.545 173.045, 144.748 172.252, 143.592 170.500 C 141.138 166.779, 137.697 167.449, 132.329 172.695 M 231.388 220.980 C 228.841 222.009, 227.886 225.024, 229.288 227.608 C 229.853 228.649, 231.986 231.525, 234.027 234 C 236.069 236.475, 239.644 241.650, 241.972 245.500 C 247.447 254.554, 251.586 258.832, 255.599 259.585 C 259.954 260.402, 262.473 259.453, 263.824 256.488 C 264.804 254.337, 264.580 253.589, 262.110 250.757 C 260.548 248.966, 258.245 245.475, 256.994 243 C 254.529 238.125, 248.349 228.774, 245.361 225.398 C 243.073 222.814, 237.725 219.978, 235.300 220.063 C 234.310 220.098, 232.550 220.511, 231.388 220.980 M 173.750 233.080 C 171.255 234.533, 171.561 237.289, 175.205 246.201 C 178.764 254.906, 182.509 259.393, 188.500 262.129 C 193.614 264.465, 198.420 264.446, 203.653 262.070 C 208.480 259.879, 209.852 256.950, 207.637 253.569 C 206.313 251.548, 205.353 251.254, 200.448 251.368 C 195.204 251.490, 194.586 251.259, 192.048 248.223 C 190.541 246.420, 188.698 243.720, 187.951 242.223 C 186.217 238.744, 178.963 231.994, 177 232.032 C 176.175 232.048, 174.713 232.519, 173.750 233.080 M 101.743 240.084 C 100.777 240.647, 98.977 242.996, 97.743 245.304 C 95.749 249.034, 95.500 250.945, 95.500 262.500 C 95.500 274.943, 95.620 275.704, 98.305 280.272 C 103.131 288.482, 113.932 293.240, 119.484 289.602 C 122.202 287.822, 122.860 283.958, 120.744 282.203 C 120.054 281.630, 118.253 280.850, 116.741 280.471 C 115.230 280.092, 112.870 278.446, 111.497 276.814 C 109.228 274.118, 109.011 273.053, 109.117 265.173 C 109.181 260.403, 109.528 253.575, 109.889 250 C 110.692 242.024, 109.641 238.989, 106.089 239.030 C 104.665 239.047, 102.709 239.521, 101.743 240.084 M 139.082 264.368 C 134.199 272.268, 138.658 280.280, 151 285.789 C 160.512 290.034, 165.902 291, 180.067 291 C 195.325 291, 202.243 289.485, 206.523 285.204 C 209.726 282.001, 209.859 276.878, 206.811 274.039 C 204.083 271.497, 203.509 271.501, 199.865 274.096 C 197.411 275.843, 194.972 276.278, 185.211 276.707 C 163.891 277.645, 152.860 274.434, 148.058 265.890 C 146.178 262.545, 144.264 261, 142 261 C 141.540 261, 140.226 262.516, 139.082 264.368" stroke="none" fill="black" fill-rule="evenodd"/>
</svg>