<svg xmlns="http://www.w3.org/2000/svg" width="300" height="300" viewBox="0 0 300 300" version="1.1">
	<path d="M 73.273 41.706 C 71.609 44.245, 71.493 50.218, 71.389 138.456 C 71.278 231.727, 70.121 278.233, 67.817 281.921 C 66.123 284.635, 67.614 288.865, 70.523 289.595 C 74.056 290.482, 77.692 287.755, 78.969 283.259 C 81.870 273.054, 83.936 222.217, 83.978 160 C 84.002 124.600, 84.056 123.603, 85.752 126.933 C 89.329 133.958, 101.145 135.066, 101.798 128.438 C 102.042 125.960, 101.408 124.860, 98.298 122.368 C 96.209 120.694, 93.497 118.791, 92.271 118.138 C 89.511 116.670, 85.260 117.624, 84.671 119.845 C 84.125 121.902, 84.036 119.466, 83.112 77.500 C 82.595 53.981, 81.989 42.806, 81.147 41.250 C 79.429 38.075, 75.503 38.303, 73.273 41.706 M 194.500 47.460 C 182.066 48.786, 166.504 51.153, 158.711 52.903 C 151.127 54.606, 142.114 56, 138.683 56 C 133.670 56, 132.106 56.395, 130.722 58.011 C 128.393 60.732, 128.556 63.508, 131.189 65.961 C 133.013 67.661, 134.708 68, 141.375 68 C 145.773 68, 152.326 67.305, 155.936 66.456 C 159.546 65.607, 165.265 64.264, 168.644 63.472 C 176.271 61.683, 201.195 59.005, 210.237 59.002 L 216.974 59 214.858 63.750 C 213.694 66.362, 212.417 69.175, 212.020 70 C 211.623 70.825, 210.219 71.583, 208.899 71.685 C 207.580 71.786, 199.525 72.366, 191 72.974 C 182.475 73.582, 168.525 74.959, 160 76.033 C 151.475 77.108, 136.175 78.926, 126 80.073 C 109.532 81.930, 107.238 82.414, 105.118 84.485 C 103.314 86.245, 102.894 87.440, 103.387 89.405 C 104.025 91.947, 104.213 92, 112.657 92 C 122.066 92, 138.051 90.705, 156 88.489 C 162.325 87.709, 173.575 86.597, 181 86.019 C 188.425 85.440, 197.142 84.751, 200.370 84.486 L 206.240 84.006 204.610 86.253 C 202.174 89.611, 200.873 93.117, 201.205 95.434 C 201.425 96.973, 202.357 97.582, 204.859 97.822 C 208.871 98.205, 211.700 95.929, 216.571 88.399 L 219.871 83.298 227.185 82.743 C 236.712 82.020, 242.809 79.610, 243.656 76.233 C 244.833 71.547, 243.062 70.469, 234.690 70.777 C 227.853 71.028, 224.469 70.064, 226.903 68.560 C 227.418 68.242, 228.791 64.906, 229.954 61.147 C 232.360 53.375, 231.804 50.228, 227.530 47.428 C 223.663 44.894, 218.512 44.899, 194.500 47.460 M 165.500 102.012 C 162.750 102.461, 157.211 103.319, 153.191 103.919 C 144.010 105.289, 138.079 108.154, 138.015 111.250 C 138.007 111.662, 138.900 112.900, 140 114 C 141.700 115.700, 143.314 115.996, 150.750 115.976 C 155.563 115.963, 161.300 115.522, 163.500 114.997 C 165.700 114.471, 173.575 113.580, 181 113.017 C 193.428 112.073, 194.672 111.797, 196.667 109.537 C 198.822 107.095, 198.866 103.653, 196.758 102.350 C 195.174 101.371, 171.024 101.110, 165.500 102.012 M 44.903 110.250 C 44.849 110.938, 44.888 119.732, 44.990 129.793 C 45.146 145.328, 44.925 148.466, 43.522 150.607 C 39.280 157.081, 47.305 164.741, 52.414 159.095 C 55.591 155.585, 56.959 148.331, 57.123 134.134 C 57.262 122.023, 57.041 120, 55.173 116.339 C 54.014 114.067, 52.344 111.487, 51.461 110.604 C 49.563 108.705, 45.042 108.461, 44.903 110.250 M 199.247 121.850 C 196.800 122.556, 191 127.622, 191 129.053 C 191 129.539, 190.361 129.692, 189.581 129.393 C 187.563 128.618, 183.171 131.768, 181.345 135.299 C 180.272 137.375, 179.993 139.567, 180.441 142.401 C 181.378 148.323, 185.041 157.902, 186.902 159.300 C 187.781 159.960, 188.500 161.801, 188.500 163.392 C 188.500 168.344, 192.661 170.524, 201.826 170.374 C 212.264 170.204, 229 165.691, 229 163.047 C 229 162.561, 229.260 161.487, 229.577 160.659 C 229.895 159.832, 229.220 158.220, 228.077 157.077 C 226.935 155.935, 226.481 155, 227.070 155 C 229.152 155, 237.178 148.756, 239.088 145.650 C 245.900 134.570, 242.123 124.693, 230.085 122.112 C 224.596 120.934, 203.052 120.751, 199.247 121.850 M 131.500 132.529 C 123.159 134.066, 119.865 135.253, 118.126 137.348 C 114.879 141.261, 119.299 144.961, 127.250 144.985 L 132 145 131.912 151.250 C 131.864 154.688, 131.527 159.737, 131.162 162.471 L 130.500 167.442 126 168.214 C 117.987 169.589, 111.593 171.260, 107.250 173.114 C 103.867 174.559, 103 175.439, 103 177.429 C 103 178.878, 103.814 180.365, 104.934 180.965 C 107.974 182.591, 115.914 182.158, 122.839 179.987 C 126.326 178.894, 130.954 178, 133.125 178 C 139.786 178, 165.672 171.415, 173.197 167.806 C 180.094 164.499, 183 162.066, 183 159.601 C 183 156.439, 179.028 154.380, 176.027 155.985 C 171.033 158.658, 144.560 166, 139.917 166 C 139.469 166, 139.700 164.537, 140.430 162.750 C 141.161 160.963, 142.065 156.800, 142.439 153.500 C 143.500 144.134, 143.325 144.355, 150.273 143.637 C 157.127 142.929, 161.313 140.559, 161.827 137.095 C 162.418 133.102, 160.593 132.280, 150.942 132.189 C 145.969 132.142, 141.136 131.909, 140.200 131.671 C 139.265 131.433, 135.350 131.819, 131.500 132.529 M 193.697 135.348 C 193.402 136.115, 193.657 140.288, 194.261 144.621 C 194.866 148.954, 195.392 153.864, 195.430 155.531 L 195.500 158.563 202 158.238 C 205.575 158.060, 211.566 157.438, 215.314 156.856 C 221.680 155.867, 222.024 155.684, 220.564 154.070 C 217.952 151.184, 218.766 148.837, 224.084 143.922 C 227.915 140.382, 229.086 138.641, 228.834 136.862 L 228.500 134.500 211.366 134.227 C 197.451 134.005, 194.131 134.216, 193.697 135.348 M 190.768 175.102 C 187.948 177.206, 185 184.856, 185 190.068 C 185 192.519, 184.565 192.838, 180.365 193.468 C 172.188 194.694, 153.949 196.028, 137.500 196.603 C 120.066 197.212, 115.418 198.109, 114.487 201.042 C 113.573 203.921, 115.283 206.111, 119.614 207.606 C 126.504 209.984, 134.205 210.241, 151.027 208.652 C 160.087 207.796, 170.837 206.840, 174.915 206.526 C 178.993 206.212, 183.343 205.701, 184.582 205.390 C 186.682 204.863, 186.873 205.220, 187.415 210.662 C 187.735 213.873, 188.660 222.350, 189.472 229.500 C 192.925 259.918, 193.265 265.321, 192.112 271.454 C 191.496 274.728, 190.538 277.862, 189.983 278.417 C 189.428 278.972, 186.338 279.354, 183.117 279.264 C 177.308 279.103, 175.328 278.347, 161.590 271.043 L 156.969 268.586 154.741 270.814 C 152.673 272.882, 152.621 273.233, 154.007 275.701 C 155.912 279.094, 166.453 286.324, 174.323 289.636 C 179.363 291.757, 181.621 292.136, 187.455 291.839 C 197.895 291.307, 202.636 286.889, 205.004 275.483 C 206.393 268.792, 205.216 250.471, 201.899 227.151 C 200.854 219.808, 200 211.596, 200 208.901 L 200 204 203.750 203.982 C 205.813 203.972, 212.190 202.872, 217.922 201.537 C 229.853 198.759, 233.750 196.126, 232.617 191.610 C 231.773 188.249, 228.467 187.455, 221.202 188.867 C 218.066 189.477, 211.563 190.273, 206.750 190.635 L 198 191.295 198 186.207 C 198 183.408, 198.450 180.840, 199 180.500 C 200.510 179.567, 200.200 176.342, 198.429 174.571 C 196.336 172.478, 194.074 172.635, 190.768 175.102 M 139.250 230.960 C 134.680 235.261, 136.175 237.383, 148.327 243.841 C 159.211 249.625, 164 249.394, 164 243.085 C 164 240.561, 157.546 234.477, 152.206 231.967 C 145.297 228.719, 141.911 228.456, 139.250 230.960" stroke="none" fill="black" fill-rule="evenodd"/>
</svg>