<svg xmlns="http://www.w3.org/2000/svg" width="300" height="300" viewBox="0 0 300 300" version="1.1">
	<path d="M 73.077 43.750 C 72.385 45.813, 71.442 55.825, 70.982 66 C 70.522 76.175, 70.112 85.093, 70.072 85.817 C 70.027 86.648, 69.297 86.912, 68.098 86.531 C 63.870 85.189, 60.234 91.378, 54.016 110.500 C 53.301 112.700, 51.019 118.100, 48.945 122.500 C 44.714 131.477, 44.362 132.762, 45.449 135.250 C 46.294 137.182, 50.079 137.564, 52.983 136.009 C 56.362 134.201, 63.601 121.687, 66.581 112.502 L 69.500 103.504 69.792 111.234 C 69.952 115.486, 69.164 134.835, 68.041 154.232 C 66.918 173.629, 65.504 200.750, 64.900 214.500 C 64.269 228.836, 63.312 240.520, 62.655 241.892 C 60.758 245.854, 61.522 253.195, 64.044 255.236 C 68.931 259.194, 72.470 256.734, 74.455 248 C 76.035 241.049, 80.045 167.783, 80.016 146.397 C 80.007 139.740, 80.286 131.555, 80.636 128.208 L 81.272 122.122 83.774 125.811 C 91.360 137, 98.811 142.783, 103.393 141.041 C 109.274 138.805, 110.302 130.365, 105.006 127.800 C 103.471 127.057, 100.208 123.984, 97.755 120.972 C 92.404 114.403, 89.265 112.533, 84.805 113.257 L 81.500 113.793 81.500 79.147 C 81.500 42.062, 81.244 40, 76.633 40 C 74.869 40, 74.044 40.870, 73.077 43.750 M 160.500 59.841 C 154.450 62.494, 147.250 65.822, 144.500 67.238 C 141.750 68.654, 135.563 71.669, 130.750 73.937 C 122.249 77.943, 122 78.158, 122 81.495 C 122 87.818, 126.945 88.248, 138.500 82.932 C 140.700 81.920, 144.445 80.438, 146.822 79.638 C 150.790 78.303, 151.086 78.320, 150.447 79.842 C 147.966 85.747, 145.039 94.841, 145.021 96.701 C 145.009 97.911, 144.512 101.175, 143.916 103.955 L 142.833 109.008 132.798 114.004 C 127.279 116.752, 122.218 119, 121.551 119 C 119.506 119, 117.430 123.873, 118.650 125.808 C 120.890 129.359, 131.012 129.619, 139.544 126.345 C 141.182 125.716, 141.418 128.874, 140.381 137.506 C 139.882 141.653, 139.211 142.939, 136.469 145.006 C 134.649 146.378, 132.336 148.819, 131.329 150.431 C 127.161 157.109, 123.758 162.966, 119.378 171 C 110.617 187.072, 106.736 193.512, 102.506 199 C 100.174 202.025, 97.295 206.300, 96.107 208.500 L 93.947 212.500 96.529 214.750 C 99.557 217.388, 101.079 217.528, 104.954 215.524 C 108.603 213.637, 117.724 202.667, 122.109 194.892 C 123.974 191.584, 126.514 187.307, 127.754 185.388 C 128.994 183.469, 131.624 178.884, 133.598 175.199 C 135.572 171.515, 137.528 168.139, 137.945 167.699 C 138.361 167.258, 138.959 181.658, 139.272 199.699 C 139.752 227.339, 139.618 232.675, 138.421 233.610 C 133.838 237.192, 141.902 246.436, 147.937 244.520 C 149.084 244.156, 150.786 242.428, 151.721 240.679 C 153.211 237.890, 153.443 233.351, 153.610 203.684 C 153.714 185.084, 154.050 169.617, 154.356 169.310 C 154.662 169.004, 157.049 170.168, 159.659 171.897 C 168.270 177.601, 173.571 178.212, 176.342 173.819 C 177.923 171.314, 176.588 169.521, 167.399 161.809 C 162.608 157.789, 157.635 153.600, 156.347 152.500 C 154.023 150.515, 154.010 150.388, 154.662 135.156 C 155.276 120.820, 155.456 119.760, 157.409 119.015 C 165.883 115.786, 169.139 113.828, 174.063 109 C 180.402 102.785, 181.907 99.033, 179.523 95.394 C 177.358 92.091, 173.707 92.300, 170.822 95.893 C 168.093 99.293, 156.706 105.617, 156.176 104.027 C 155.570 102.211, 157.911 86.858, 159.828 80.067 L 161.645 73.633 169.690 70.930 C 174.242 69.400, 178.880 68.446, 180.373 68.731 C 184.364 69.494, 186.306 67.321, 185.697 62.777 C 184.461 53.565, 176.841 52.677, 160.500 59.841 M 221.583 67.710 C 217.813 69.686, 214.021 78.098, 214.015 84.500 C 214.006 93.137, 211.864 115.191, 210.300 122.750 C 209.096 128.565, 208.437 130, 206.968 130 C 204.424 130, 200.903 124.698, 200.259 119.898 C 199.860 116.916, 198.901 115.264, 196.517 113.445 C 192.478 110.365, 190.542 110.367, 187.455 113.455 C 184.275 116.634, 184.359 119.637, 187.839 127.272 C 191.813 135.988, 196.159 140, 201.627 140 L 205.874 140 205.340 143.750 C 205.046 145.813, 203.100 153.350, 201.016 160.500 C 198.933 167.650, 196.929 174.850, 196.563 176.500 C 194.558 185.543, 188.225 203.286, 185.140 208.500 C 181.382 214.853, 174.707 222, 172.533 222 C 170.460 222, 169.908 226.210, 171.634 228.845 C 173.018 230.957, 173.769 231.181, 178.082 230.766 C 184.941 230.107, 190.121 226.184, 195.469 217.597 C 199.932 210.431, 207.940 191.867, 208.070 188.385 C 208.109 187.348, 208.476 185.645, 208.886 184.601 C 209.544 182.924, 210.435 183.430, 216.511 188.937 C 222.158 194.054, 234.788 204.289, 246.366 213.130 C 247.540 214.026, 254.867 218.212, 262.649 222.433 C 276.244 229.805, 277.026 230.094, 282.616 229.803 C 287.666 229.540, 288.623 229.161, 289.870 226.931 C 291.938 223.234, 290.683 219.187, 287.235 218.432 C 283.770 217.673, 272.027 211.791, 265.500 207.544 C 262.750 205.755, 257.365 202.313, 253.533 199.896 C 247.513 196.097, 241.775 191.537, 227.431 179.150 C 224.939 176.998, 221.470 175.118, 213.271 171.477 C 213.005 171.359, 218.251 150.399, 220.468 142.724 C 224.537 128.635, 227.811 103.465, 228.042 84.500 C 228.143 76.250, 228.174 68.990, 228.113 68.367 C 227.928 66.512, 224.523 66.170, 221.583 67.710 M 231.750 103.228 C 229.882 103.866, 229.002 104.861, 229.006 106.333 C 229.018 111.074, 231.351 116.426, 235.250 120.655 C 238.639 124.332, 239.879 125.049, 242.424 124.800 C 245.094 124.540, 245.542 124.068, 245.815 121.224 C 246.123 118.030, 243.621 112.721, 240.036 108.961 C 239.191 108.075, 237.600 106.211, 236.500 104.819 C 234.790 102.656, 234.101 102.425, 231.750 103.228" stroke="none" fill="black" fill-rule="evenodd"/>
</svg>