<svg xmlns="http://www.w3.org/2000/svg" width="300" height="300" viewBox="0 0 300 300" version="1.1">
	<path d="M 174.142 32.588 C 173.514 33.966, 172.999 36.310, 172.997 37.797 C 172.994 41.528, 168.224 59.010, 166.485 61.664 C 165.341 63.410, 163.736 63.954, 158.281 64.446 C 154.552 64.783, 146.916 65.720, 141.313 66.529 C 135.711 67.338, 129.155 68, 126.745 68 C 120.898 68, 112.361 70.617, 111.581 72.649 C 110.706 74.931, 111.796 77.821, 113.973 78.985 C 115.941 80.039, 135.636 78.849, 146.500 77.021 C 153.845 75.785, 160 75.708, 160 76.851 C 160 77.997, 151.203 94.613, 148.443 98.680 C 146.405 101.682, 146.133 101.796, 144.790 100.212 C 143.992 99.270, 142.538 96.330, 141.559 93.678 C 138.916 86.516, 133.419 84.790, 130.895 90.331 C 130.001 92.293, 130.291 93.738, 132.526 98.463 C 134.020 101.622, 136.509 105.649, 138.055 107.410 L 140.867 110.612 135.696 117.556 C 132.852 121.375, 124.557 130.618, 117.263 138.096 C 104.311 151.373, 102.532 154.132, 105.200 156.800 C 108.775 160.375, 116.835 155.373, 129.545 141.692 L 136.904 133.770 137.557 136.635 C 137.915 138.211, 138.799 141.975, 139.520 145 C 140.241 148.025, 141.125 152.525, 141.485 155 C 142.509 162.035, 143.993 165.926, 146.080 167.043 C 148.956 168.582, 151.799 166.586, 152.568 162.488 C 153.199 159.125, 153.382 159, 157.668 159 C 160.389 159, 168.546 156.858, 178.701 153.478 C 187.824 150.440, 195.454 148.121, 195.656 148.323 C 195.859 148.525, 195.062 150.867, 193.885 153.527 C 192.248 157.229, 192 158.770, 192.829 160.099 C 193.802 161.656, 193.174 161.946, 186.707 162.927 C 179.126 164.078, 176.616 164.738, 157.882 170.511 C 150.109 172.906, 145.512 174.891, 143.992 176.508 C 141.803 178.838, 141.783 179.020, 143.436 181.542 C 145.059 184.019, 145.504 184.135, 151.825 183.716 C 155.496 183.472, 161.650 182.149, 165.500 180.774 C 169.350 179.399, 172.634 178.384, 172.797 178.518 C 172.960 178.651, 172.541 181.763, 171.864 185.433 C 170.611 192.238, 171.077 204.155, 174.174 244.500 C 175.617 263.298, 175.019 267.782, 170.704 270.513 C 166.908 272.916, 166.192 275.450, 168.567 278.074 C 170.764 280.501, 177.607 280.664, 180.886 278.367 C 185.699 274.996, 186.956 269.853, 186.960 253.500 C 186.963 245.250, 186.517 234.450, 185.971 229.500 C 184.399 215.262, 183.042 179.019, 183.988 176.531 C 184.615 174.882, 185.959 174.102, 189.020 173.613 C 191.317 173.246, 194.727 172.305, 196.598 171.524 C 199.384 170.360, 200 169.565, 200 167.134 C 200 164.807, 199.407 163.950, 197.250 163.162 L 194.500 162.158 197.719 162.079 C 200.490 162.011, 201.423 161.243, 204.418 156.561 C 212.809 143.443, 216.386 133.402, 215.822 124.546 C 215.418 118.193, 214.279 116.063, 210.528 114.640 C 208.962 114.046, 208.840 113.717, 209.935 113.040 C 210.890 112.450, 215.147 114.796, 223.761 120.658 C 230.606 125.316, 237.173 129.548, 238.353 130.062 C 239.534 130.575, 241.175 131.444, 242 131.993 C 245.792 134.517, 257.110 139, 259.689 139 C 263.370 139, 267 136.454, 267 133.872 C 267 131.366, 264.733 129.002, 262.321 128.994 C 261.320 128.990, 259.375 128.385, 258 127.649 C 251.710 124.280, 245.207 120.495, 242.018 118.346 C 240.103 117.056, 238.020 116, 237.390 116 C 236.760 116, 235.657 115.292, 234.939 114.427 C 234.221 113.562, 232.029 111.995, 230.067 110.946 C 228.105 109.897, 225.246 107.987, 223.713 106.702 L 220.926 104.366 224.797 99.933 C 228.996 95.126, 231 90.485, 231 85.573 C 231 82.072, 228.598 78, 226.532 78 C 224.480 78, 220.201 83.597, 218.879 88.010 C 218.233 90.166, 216.502 93.370, 215.033 95.130 L 212.361 98.330 206.931 94.341 C 192.974 84.091, 178.719 75.787, 176.525 76.629 C 170.623 78.893, 178.543 88.725, 195.500 100.185 C 203.750 105.761, 203.676 105.651, 201.076 108.419 C 199.819 109.757, 199.089 111.335, 199.454 111.926 C 199.856 112.577, 199.179 113, 197.735 113 C 196.425 113, 191.111 113.677, 185.926 114.505 C 152.897 119.780, 152.961 119.764, 149.254 123.237 C 146.470 125.845, 145.038 124.724, 147.027 121.493 C 147.837 120.176, 151.592 114.074, 155.371 107.933 C 159.150 101.791, 164.786 91.786, 167.895 85.699 C 172.695 76.301, 173.997 74.506, 176.524 73.803 C 178.161 73.348, 189.625 72.524, 202 71.974 C 214.375 71.423, 225.957 70.734, 227.738 70.443 C 233.609 69.484, 234.345 63.214, 228.854 60.939 C 225.069 59.372, 206.376 59.432, 190.788 61.063 C 184.286 61.743, 178.743 62.076, 178.470 61.803 C 178.197 61.530, 178.655 59.677, 179.487 57.686 C 181.242 53.486, 181.583 36.958, 179.977 33.957 C 179.414 32.906, 178.128 31.604, 177.119 31.064 C 175.635 30.269, 175.066 30.561, 174.142 32.588 M 70.385 51.765 C 69.772 52.169, 67.876 54.982, 66.172 58.016 L 63.074 63.531 62.052 108.516 C 61.490 133.257, 60.745 165.200, 60.397 179.500 C 59.634 210.896, 61.577 289.786, 63.162 291.695 C 64.845 293.723, 68.722 293.235, 70.443 290.777 C 71.818 288.815, 71.999 279.966, 71.992 215.027 C 71.984 144.381, 72.797 105.836, 75.057 69.594 C 75.913 55.884, 75.865 52.531, 74.806 51.859 C 73.193 50.836, 71.839 50.807, 70.385 51.765 M 41.223 102.557 C 39.322 103.888, 39 105.035, 39 110.473 C 39 114.466, 39.439 116.980, 40.178 117.226 C 41.445 117.648, 40.085 130.882, 37.828 140.091 C 36.498 145.519, 37.282 149.545, 39.946 150.971 C 42.967 152.588, 46.407 150.671, 48.237 146.350 C 51.193 139.372, 53.307 125.171, 52.691 116.432 C 52.034 107.101, 50.750 103.663, 47.343 102.110 C 44.198 100.678, 43.871 100.701, 41.223 102.557 M 189.500 126.168 C 171.475 128.475, 148.991 133.090, 149.026 134.475 C 149.041 135.039, 149.844 138.492, 150.810 142.148 L 152.568 148.796 158.534 146.926 C 185.162 138.577, 188.849 137.624, 194.730 137.564 L 200.959 137.500 202.091 132 C 202.713 128.975, 203.424 126.162, 203.670 125.750 C 204.223 124.824, 198.733 124.986, 189.500 126.168 M 77.400 126.765 C 73.668 129.257, 74.039 134.513, 78.151 137.393 C 81.589 139.801, 84.808 139.346, 88.179 135.975 C 90.626 133.528, 91.074 132.431, 90.523 130.235 C 90.148 128.742, 89.315 127.185, 88.671 126.775 C 87.161 125.815, 78.834 125.807, 77.400 126.765 M 200.750 201.544 C 197.243 202.664, 196 203.567, 196 204.995 C 196 207.461, 198.875 209, 203.482 209 C 207.543 209, 209.689 210.872, 216.091 220 C 218.212 223.025, 222.057 228.425, 224.636 232 C 230.288 239.837, 239.511 254.883, 240.421 257.750 C 240.782 258.888, 241.735 260.365, 242.539 261.032 C 243.342 261.699, 244 263.079, 244 264.099 C 244 265.119, 245.125 266.691, 246.500 267.592 C 248.816 269.109, 249.184 269.109, 251.500 267.592 C 255.661 264.866, 254.881 260.386, 247.755 246.057 C 244.320 239.150, 240.961 232.825, 240.290 232 C 239.619 231.175, 234.755 224.650, 229.480 217.500 C 224.206 210.350, 218.817 203.694, 217.505 202.710 C 214.211 200.239, 206.515 199.703, 200.750 201.544 M 139.087 209.067 C 133.320 214.834, 126.424 232.246, 125.390 243.647 C 124.819 249.952, 124.984 251.325, 126.516 253.017 C 129.931 256.791, 136.820 254.243, 135.619 249.650 C 135.117 247.731, 139.297 233.706, 141.029 231.500 C 142.520 229.600, 149 213.107, 149 211.212 C 149 208.966, 146.012 206, 143.748 206 C 142.871 206, 140.774 207.380, 139.087 209.067" stroke="none" fill="black" fill-rule="evenodd"/>
</svg>