<svg xmlns="http://www.w3.org/2000/svg" width="300" height="300" viewBox="0 0 300 300" version="1.1">
	<path d="M 160.820 10.750 C 158.950 12.946, 157.315 17.423, 156.667 22.121 C 156.392 24.112, 155.230 27.800, 154.084 30.316 C 152.938 32.832, 152 35.351, 152 35.913 C 152 37.489, 144.677 52.110, 141.675 56.528 C 140.204 58.693, 139 60.863, 139 61.351 C 139 61.839, 136.594 65.672, 133.654 69.869 C 130.714 74.066, 127.704 79.171, 126.966 81.214 C 125.761 84.549, 125.812 85.135, 127.467 86.964 C 130.589 90.414, 133.553 89.554, 137.735 83.987 C 139.806 81.229, 143.610 76.412, 146.188 73.281 C 148.767 70.150, 153.226 63.293, 156.098 58.044 C 158.970 52.795, 161.463 48.323, 161.637 48.107 C 161.811 47.891, 164.274 48.678, 167.110 49.857 C 174.724 53.021, 191.659 52.424, 211 48.309 C 224.767 45.380, 229.196 42.344, 227.501 37.002 C 226.506 33.869, 223.289 33.694, 207.579 35.922 C 195.134 37.686, 166 38.909, 166 37.667 C 166 37.484, 167.366 33.096, 169.036 27.917 C 172.138 18.298, 172.199 15.563, 169.409 11.250 C 167.633 8.503, 162.964 8.232, 160.820 10.750 M 80.750 29.392 C 79.787 30.123, 79 31.368, 79 32.160 C 79 32.952, 78.613 34.027, 78.140 34.550 C 75.379 37.598, 74.006 46.544, 73.156 67 C 71.888 97.550, 72.584 273.355, 73.984 275.970 C 75.063 277.986, 78.493 278.642, 80.600 277.235 C 81.205 276.831, 82.243 275.471, 82.905 274.214 C 85.072 270.099, 86.164 236.081, 85.828 183.084 C 85.648 154.514, 85.860 131.783, 86.300 132.569 C 86.740 133.356, 87.640 134, 88.301 134 C 88.963 134, 90.593 136.053, 91.924 138.563 C 96.396 146.993, 102.803 149.425, 105.905 143.872 C 107.279 141.413, 107.138 140.772, 103.701 133.872 C 99.421 125.279, 98.326 123.767, 95.157 122.078 C 91.946 120.368, 88.357 121.482, 86.507 124.763 C 85.099 127.259, 84.983 123.759, 85.191 85 C 85.317 61.625, 85.845 40.752, 86.365 38.617 C 87.126 35.494, 86.956 34.073, 85.498 31.367 C 83.476 27.611, 83.230 27.509, 80.750 29.392 M 188 67.913 C 181.422 68.654, 171.293 71.514, 169.550 73.123 C 169.027 73.605, 167.790 74, 166.800 74 C 165.810 74, 165 74.450, 165 75 C 165 75.550, 164.489 76, 163.865 76 C 161.895 76, 158 81, 158 83.528 C 158 85.001, 158.966 86.587, 160.459 87.565 C 163.366 89.470, 166.648 88.966, 175.500 85.256 C 181.428 82.772, 187.140 81.810, 206.330 80.061 C 216.863 79.101, 220 77.595, 220 73.500 C 220 68.894, 216.732 67.540, 205.159 67.354 C 199.297 67.259, 191.575 67.511, 188 67.913 M 56.679 83.960 C 55.102 85.556, 54.813 87.964, 54.515 102.015 C 54.306 111.883, 53.746 118.654, 53.086 119.314 C 50.064 122.336, 53.530 130, 57.918 130 C 63.403 130, 65.171 125.794, 67.391 107.463 C 69.114 93.235, 68.312 87.177, 64.286 84.011 C 61.165 81.555, 59.071 81.541, 56.679 83.960 M 206.952 92.828 C 204.450 93.747, 200.625 95.623, 198.452 96.996 C 188.913 103.021, 165.896 110.909, 147.215 114.555 C 139.672 116.027, 132.938 117.685, 132.250 118.238 C 130.151 119.928, 130.835 123.725, 133.635 125.927 C 138.337 129.626, 145.359 128.888, 169 122.209 C 176.688 120.037, 193.701 113.181, 203.390 108.350 L 210.280 104.915 209.550 137.768 C 209.065 159.631, 209.216 177.627, 210.004 191.561 C 210.654 203.077, 211.032 214.151, 210.843 216.168 L 210.500 219.837 202.462 214.575 C 198.042 211.681, 191.292 206.041, 187.462 202.041 C 183.633 198.041, 178.839 193.174, 176.810 191.225 L 173.119 187.683 178.269 184.591 C 184.192 181.036, 190 173.988, 190 170.357 C 190 163.273, 184.828 161.894, 179.612 167.587 C 176.719 170.745, 166.613 175.982, 163.386 175.995 C 161.727 176.002, 161 168.511, 161 151.396 C 161 137.810, 160.801 135.968, 159.250 135.170 C 158.287 134.675, 156.941 134.471, 156.259 134.716 C 153.499 135.705, 150.667 145.552, 149.466 158.326 C 148.830 165.097, 148.809 165.137, 146.803 163.326 C 145.690 162.322, 143.869 159.564, 142.756 157.198 C 140.535 152.480, 135.447 148, 132.309 148 C 131.207 148, 129.308 148.866, 128.088 149.924 C 125.069 152.542, 125.461 158.939, 128.741 160.565 C 129.974 161.176, 132.288 163.478, 133.884 165.681 C 139.264 173.109, 145.510 176.090, 148.800 172.800 C 149.733 171.867, 150 172.504, 150 175.670 C 150 179.683, 149.933 179.758, 145.250 180.994 C 142.637 181.684, 138.572 182.867, 136.215 183.624 C 133.858 184.381, 130.933 185.002, 129.715 185.004 C 127.394 185.008, 121.027 188.446, 119.765 190.376 C 118.415 192.442, 118.980 196.672, 120.829 198.345 C 123.222 200.510, 126.463 200.433, 135.243 198 C 139.212 196.900, 143.020 196, 143.704 196 C 144.468 196, 143.799 197.948, 141.974 201.044 C 140.338 203.818, 139 206.256, 139 206.461 C 139 206.812, 131.065 220.737, 129.006 224 C 128.485 224.825, 126.849 227.637, 125.371 230.250 C 123.892 232.862, 122.304 235, 121.841 235 C 121.378 235, 121 235.590, 121 236.311 C 121 237.033, 120.212 238.495, 119.249 239.561 C 113.738 245.662, 112 248.415, 112 251.042 C 112 254.189, 114.269 256, 118.211 256 C 124.298 256, 142.863 231.114, 149.796 213.660 L 151.719 208.821 152.336 213.660 C 152.675 216.322, 153.249 223.238, 153.610 229.029 L 154.266 239.558 151.633 240.757 C 146.385 243.149, 149.641 250, 156.026 250 C 157.671 250, 159.858 248.710, 162.054 246.446 L 165.500 242.892 165.500 229.196 C 165.500 221.663, 165.100 210.373, 164.612 204.106 C 163.935 195.425, 164.005 192.885, 164.903 193.440 C 166.657 194.524, 170.821 201.439, 171.608 204.574 C 172.622 208.616, 184.279 219.871, 194 226.195 C 198.675 229.236, 202.955 231.898, 203.510 232.112 C 204.066 232.325, 206.826 233.780, 209.643 235.345 C 214.619 238.109, 214.829 238.409, 216.992 245.845 C 219.005 252.768, 223.972 263.044, 227.238 267.046 C 231.999 272.878, 239.068 273.635, 244.471 268.891 C 248.905 264.998, 255.388 251.816, 254.411 248.682 C 252.259 241.781, 244.028 245.099, 239.470 254.704 C 236.965 259.983, 235.914 259.123, 231.281 248 C 228.006 240.135, 226.300 233.106, 224.502 220.064 C 221.595 198.975, 220.940 183.745, 221.120 141.490 C 221.316 95.564, 221.229 94.792, 215.528 92.195 C 212.378 90.760, 212.625 90.741, 206.952 92.828 M 172.455 148.455 C 169.424 151.485, 169.389 153.043, 172.241 157.998 C 175.166 163.079, 179.892 164.330, 181.392 160.421 C 182.277 158.114, 180.394 150.092, 178.467 147.964 C 176.171 145.427, 175.421 145.488, 172.455 148.455" stroke="none" fill="black" fill-rule="evenodd"/>
</svg>