<svg xmlns="http://www.w3.org/2000/svg" width="300" height="300" viewBox="0 0 300 300" version="1.1">
	<path d="M 116.508 32.561 C 113.637 35.695, 113.111 37.173, 112.123 44.879 C 111.505 49.695, 110.995 55.405, 110.989 57.568 C 110.983 59.730, 110.702 63.170, 110.364 65.211 C 109.758 68.880, 109.720 68.906, 107.050 67.526 C 105.564 66.757, 102.807 64.295, 100.924 62.054 C 91.925 51.345, 89.311 49, 86.391 49.015 C 82.289 49.037, 81.012 50.151, 80.340 54.295 C 79.774 57.780, 80.092 58.273, 88.125 66.385 C 94.762 73.087, 97.417 75.083, 100.918 76.005 C 104.204 76.870, 105.968 76.880, 107.801 76.045 C 110.189 74.957, 110.246 75.020, 109.633 78.086 C 109.285 79.826, 109 84.369, 109 88.181 L 109 95.112 104.250 97.140 C 93.257 101.832, 84.315 106.285, 81.355 108.543 L 78.191 110.956 78.195 104.228 C 78.198 97.058, 76.143 90.652, 73.515 89.644 C 71.332 88.806, 68.290 92.170, 67.136 96.697 C 64.594 106.662, 62.382 173.230, 64.293 182.238 C 65.179 186.412, 67.951 188.480, 71.475 187.596 C 74.586 186.815, 74.904 184.844, 75.658 161.734 C 76.285 142.503, 76.349 142.043, 78.024 144.734 C 81.740 150.701, 85.503 153.224, 90.811 153.304 C 96.789 153.394, 101 151.036, 101 147.599 C 101 144.228, 98.765 142.766, 94.762 143.517 C 90.589 144.300, 89.733 143.378, 87.513 135.713 C 85.665 129.335, 82.849 126, 79.311 126 C 75.822 126, 76.528 123.344, 80.214 122.607 C 81.982 122.254, 88.320 119.497, 94.299 116.482 C 100.277 113.467, 105.806 111, 106.584 111 C 108.386 111, 108.384 111.086, 106.082 139.678 C 105.026 152.780, 103.868 169.118, 103.508 175.984 C 102.913 187.314, 102.441 190.880, 100.443 199.162 C 99.609 202.618, 103.396 205.441, 107.489 204.413 C 112.470 203.163, 113.417 199.890, 115.965 175.126 C 118.313 152.312, 118.350 152.132, 120.389 153.560 C 125.951 157.456, 129.638 154.043, 133.413 141.500 C 134.903 136.550, 136.544 131.118, 137.061 129.429 C 138.461 124.850, 138.199 120.342, 136.429 118.571 C 130.908 113.051, 122.868 122.650, 121.079 136.898 C 120.577 140.896, 119.904 144.429, 119.583 144.750 C 118.693 145.640, 118.878 138.094, 120.171 120.790 L 121.344 105.079 125.422 103.360 C 132.830 100.236, 136.420 98.901, 143.750 96.546 L 151 94.217 150.991 104.859 C 150.973 127.198, 147.403 162.350, 144.356 170.195 C 141.893 176.535, 141.111 177.243, 137.352 176.538 C 134.840 176.067, 133.601 176.399, 132.038 177.962 C 127.806 182.194, 130.221 185.930, 138.530 188.008 C 143.128 189.157, 143.922 189.081, 147.780 187.112 C 155.304 183.274, 158.786 175.101, 161.509 154.890 C 162.353 148.626, 163.330 136.612, 163.679 128.194 L 164.314 112.887 167.188 112.312 C 170.353 111.679, 177.698 104.052, 178.599 100.462 C 179.083 98.533, 179.984 98.197, 185.826 97.768 C 190.779 97.404, 193.990 96.468, 198.276 94.137 C 201.452 92.410, 206.919 89.696, 210.425 88.107 L 216.798 85.217 215.972 88.098 C 215.194 90.809, 211.352 100.820, 208.525 107.500 C 207.827 109.150, 206.018 113.425, 204.504 117 C 202.991 120.575, 201.470 123.806, 201.126 124.180 C 200.782 124.553, 197.870 122.864, 194.656 120.425 C 191.442 117.986, 187.821 115.742, 186.609 115.438 C 183.489 114.655, 174.594 118.152, 174.176 120.326 C 173.719 122.699, 175.756 124.989, 178.372 125.046 C 179.549 125.072, 183.585 127.927, 187.402 131.433 L 194.304 137.773 191.934 141.636 C 186.646 150.257, 176.451 162, 174.254 162 C 173.802 162, 172.621 163.371, 171.631 165.047 C 169.952 167.890, 169.941 168.261, 171.474 170.601 C 173.858 174.238, 175.372 174.454, 180.513 171.886 C 185.525 169.383, 200.585 154.368, 202.967 149.499 C 203.774 147.850, 204.511 146.363, 204.605 146.195 C 204.700 146.027, 207.414 147.658, 210.638 149.819 C 222.683 157.893, 237.364 166, 239.938 166 C 243.345 166, 245 164.316, 245 160.848 C 245 157.425, 240.313 152.700, 231.151 146.886 C 220.315 140.009, 213.989 135.691, 212.991 134.489 C 212.380 133.753, 213.059 131.296, 214.942 127.430 C 225.032 106.718, 228.946 95.691, 228.983 87.875 C 229.017 80.759, 230.002 78.369, 233.615 76.646 C 238.346 74.390, 239.826 70.910, 237.539 67.419 C 235.962 65.013, 235.373 64.814, 231.420 65.356 C 229.014 65.686, 224.223 67.142, 220.773 68.591 C 213.820 71.512, 198.419 78.546, 195.856 79.971 C 194.952 80.473, 192.617 81.551, 190.667 82.366 C 187.410 83.727, 187.170 83.711, 187.716 82.174 C 188.043 81.253, 188.720 79.969, 189.220 79.320 C 190.658 77.453, 192.987 61.205, 192.321 57.686 C 191.149 51.490, 189.159 49.042, 185.273 49.015 C 181.663 48.990, 179.571 53.417, 178.922 62.454 C 178.375 70.083, 176.384 76.668, 171.047 88.500 C 170.055 90.700, 168.401 94.510, 167.372 96.967 L 165.500 101.435 164.779 95.663 C 163.658 86.687, 158.355 81, 151.107 81 C 148.089 81, 132.341 85.831, 126.169 88.650 C 124.337 89.486, 122.646 89.979, 122.412 89.745 C 122.178 89.511, 122.278 87.858, 122.636 86.072 C 123.080 83.848, 126.314 79.569, 132.893 72.499 C 143.976 60.587, 149 51.939, 149 44.771 C 149 37.359, 145.126 36.098, 139.756 41.762 C 138.328 43.268, 134.842 48.550, 132.009 53.500 C 129.177 58.450, 125.991 63.387, 124.930 64.472 C 123.009 66.435, 123 66.435, 123.016 64.472 C 123.046 60.724, 125.014 38.489, 125.588 35.404 C 125.988 33.256, 125.658 31.801, 124.511 30.654 C 122.028 28.171, 120.111 28.627, 116.508 32.561 M 228.250 191.496 C 226.692 193.266, 226.651 197.270, 228.144 201.929 C 231.754 213.191, 236.379 223.416, 240.577 229.413 C 241.314 230.465, 242.651 233.840, 243.549 236.913 C 246.419 246.735, 246.600 247, 250.443 247 C 255.248 247, 256.307 244.641, 255.771 235.128 C 255.396 228.488, 254.818 226.575, 251.306 220.358 C 249.087 216.430, 247.004 212.151, 246.677 210.849 C 246.350 209.546, 244.508 206.762, 242.583 204.661 C 240.659 202.560, 238.788 199.864, 238.426 198.670 C 237.362 195.161, 233.038 189.997, 231.199 190.038 C 230.265 190.059, 228.938 190.715, 228.250 191.496 M 174.493 207.088 C 171.568 208.547, 169 213.604, 169 217.907 C 169 222.823, 173.495 235.611, 176.714 239.853 C 181.113 245.650, 188.750 247.204, 191.115 242.784 C 192.469 240.255, 191.471 236.241, 189.384 235.823 C 187.053 235.357, 183.978 225.038, 183.177 215 L 182.500 206.500 179.500 206.294 C 177.850 206.180, 175.597 206.538, 174.493 207.088 M 79.541 236.250 C 78.794 238.037, 77.880 241.300, 77.509 243.500 C 77.137 245.700, 76.231 249.525, 75.494 252 C 71.250 266.256, 71.718 278.458, 76.632 281.678 C 78.582 282.956, 79.583 283.055, 81.541 282.163 C 83.656 281.200, 83.998 280.376, 83.987 276.271 C 83.980 273.647, 85.065 267.675, 86.397 263 C 87.729 258.325, 89.568 251.322, 90.483 247.439 C 92.054 240.774, 92.049 240.170, 90.389 236.689 C 88.809 233.377, 88.235 233, 84.764 233 C 81.347 233, 80.740 233.378, 79.541 236.250 M 122.051 239.662 C 119.073 243.448, 118.686 245.852, 119.205 257.327 C 119.540 264.714, 120.240 268.792, 121.762 272.218 C 128.342 287.023, 146.227 293.773, 171.755 291.088 C 206.064 287.478, 219.984 281.452, 219.996 270.200 C 220.003 264.425, 213.750 254.656, 209.338 253.549 C 203.850 252.171, 201.060 258.718, 205 263.727 C 206.100 265.126, 207 266.812, 207 267.474 C 207 272.238, 166.547 278.997, 150.822 276.861 C 136.573 274.926, 132 268.642, 132 250.999 C 132 245.427, 131.534 239.998, 130.965 238.934 C 129.401 236.012, 124.615 236.403, 122.051 239.662" stroke="none" fill="black" fill-rule="evenodd"/>
</svg>