<svg xmlns="http://www.w3.org/2000/svg" width="300" height="300" viewBox="0 0 300 300" version="1.1">
	<path d="M 137.455 34.455 C 136.105 35.805, 135 37.745, 135 38.767 C 135 40.759, 139.875 46, 141.728 46 C 142.343 46, 144.239 47.172, 145.941 48.604 C 149.626 51.705, 153.466 51.266, 155.158 47.552 C 156.450 44.717, 154.542 41.530, 148.039 35.654 C 143.297 31.370, 140.820 31.089, 137.455 34.455 M 197.849 37.750 C 196.460 39.263, 191.231 48.825, 186.229 59 C 181.227 69.175, 175.305 80.513, 173.067 84.195 C 167.243 93.782, 168.009 99.048, 175.023 97.645 C 177.259 97.198, 178.555 97.555, 180.021 99.021 C 181.109 100.109, 182 101.183, 182 101.406 C 182 102.318, 192.146 118.972, 193.037 119.523 C 195.675 121.153, 191.393 130.383, 183.072 141 C 179.082 146.091, 177.864 147.162, 173.179 149.701 C 170.008 151.419, 169.800 151.421, 168.557 149.734 C 167.842 148.763, 165.017 147.303, 162.280 146.491 C 159.544 145.678, 155.324 143.539, 152.902 141.736 C 150.481 139.934, 146.700 137.310, 144.500 135.904 C 142.300 134.499, 137.919 131.695, 134.765 129.674 C 131.611 127.653, 128.349 126, 127.515 126 C 125.230 126, 125.674 124.687, 129.055 121.447 C 130.735 119.838, 134.797 114.597, 138.081 109.802 C 141.380 104.986, 145.271 100.502, 146.776 99.783 C 152.694 96.955, 149.345 89.545, 142.150 89.545 C 136.615 89.545, 133.515 92.057, 127.325 101.558 C 119.744 113.193, 113.958 121, 112.916 121 C 112.398 121, 112 113.682, 112 104.156 L 112 87.313 120.407 85.661 C 135.694 82.657, 142 78.671, 142 72.011 C 142 70.025, 141.460 67.860, 140.800 67.200 C 139.005 65.405, 135.249 65.751, 133.089 67.911 C 131.310 69.690, 126.755 70.938, 116.159 72.547 L 111.818 73.207 112.159 54.853 L 112.500 36.500 109.745 36.183 C 108.230 36.009, 106.410 36.459, 105.700 37.183 C 103.391 39.537, 100.098 52.256, 99.026 62.961 C 98.450 68.714, 97.646 73.740, 97.239 74.130 C 96.833 74.519, 94.025 75.306, 91 75.879 C 87.975 76.451, 82.350 77.605, 78.500 78.442 C 74.650 79.280, 67.592 79.973, 62.815 79.983 C 53.678 80.001, 50.379 80.763, 47.655 83.488 C 45.281 85.861, 45.597 87.751, 48.923 91.077 C 51.772 93.926, 52.105 94, 62.058 94 C 69.120 94, 76.115 93.208, 84.734 91.432 C 91.589 90.020, 97.321 89.008, 97.472 89.182 C 97.622 89.357, 98.062 97.205, 98.448 106.623 L 99.151 123.746 94.325 126.191 C 91.671 127.536, 87.250 130.086, 84.500 131.858 C 81.750 133.630, 78.487 135.335, 77.250 135.648 C 76.012 135.961, 75 136.562, 75 136.984 C 75 137.405, 73.763 138.372, 72.250 139.133 C 58.438 146.076, 51 151.952, 51 155.922 C 51 158.512, 54.227 161, 57.587 161 C 62.263 161, 75.463 153.191, 92 140.641 L 98.500 135.708 99.192 139.604 C 101 149.774, 98.829 183.532, 96.427 182.610 C 94.385 181.827, 91 184.960, 91 187.634 C 91 191.479, 96.064 196, 100.372 196 C 103.178 196, 104.402 195.336, 106.365 192.750 C 110.730 186.999, 112.098 178.800, 112.221 157.644 C 112.283 147.115, 112.763 137.938, 113.289 137.250 C 113.815 136.563, 114.948 136, 115.807 136 C 118.084 136, 130.549 142.616, 137.500 147.514 C 140.800 149.839, 146.650 153.411, 150.500 155.451 C 156.265 158.506, 158.250 159.080, 161.750 158.703 C 164.088 158.451, 166 158.650, 166 159.144 C 166 159.639, 167.045 160.519, 168.322 161.101 C 170.070 161.897, 172.069 161.745, 176.398 160.487 C 181.265 159.072, 183.363 157.618, 190.002 151.058 C 194.320 146.792, 199.162 141.237, 200.763 138.713 L 203.673 134.124 209.316 141.031 C 215.510 148.613, 222.739 154.724, 233.576 161.540 C 244.973 168.707, 253 168.546, 253 161.151 C 253 158.633, 250.105 155, 248.099 155 C 244.645 155, 224.201 136.771, 215.706 126.117 L 210.616 119.734 212.308 116.786 C 213.239 115.165, 214 113.386, 214 112.833 C 214 112.281, 215.410 108.830, 217.132 105.164 C 221.156 96.604, 222.947 92.608, 227.916 81.107 C 230.947 74.092, 232.991 70.844, 235.987 68.279 C 240.419 64.485, 241.122 61.334, 238.278 58.011 C 236.065 55.427, 234.962 55.479, 229.116 58.441 C 223.066 61.507, 206.981 66.897, 200.899 67.898 L 196.297 68.654 200.342 60.577 C 202.566 56.135, 205.199 51.427, 206.193 50.115 C 208.708 46.796, 208.586 40.006, 205.961 37.189 C 203.240 34.268, 200.897 34.430, 197.849 37.750 M 214 78.939 C 211.433 80.442, 199.803 83.169, 193.054 83.850 C 187.214 84.439, 186.438 84.790, 184.814 87.575 L 183.020 90.651 186.077 90.202 C 189.804 89.655, 193.957 93.215, 197.053 99.609 C 200.490 106.710, 201.681 107.009, 204.066 101.374 C 206.724 95.095, 213.897 80.870, 215.222 79.250 C 216.411 77.797, 216.090 77.715, 214 78.939 M 66 112.731 C 62.075 113.284, 59.317 115.008, 58.106 117.667 C 56.460 121.279, 58.173 123.552, 64.247 125.817 C 68.793 127.513, 69.506 128.144, 69.548 130.504 C 69.591 132.944, 72.142 136, 74.135 136 C 74.550 136, 76.046 134.988, 77.462 133.750 C 82.325 129.498, 82.465 121.665, 77.758 117.243 C 74.781 114.446, 69.154 112.287, 66 112.731 M 215.228 198.230 C 211.424 200.063, 211.337 203.496, 214.987 207.757 C 216.750 209.815, 221.035 216.450, 224.509 222.500 C 227.983 228.550, 231.989 235.358, 233.412 237.630 C 234.836 239.901, 236 242.206, 236 242.753 C 236 245.779, 240.392 253.199, 242.704 254.078 C 246.979 255.703, 250 252.980, 250 247.503 C 250 243.572, 245.319 229.427, 243.050 226.500 C 242.623 225.950, 240.123 221.450, 237.493 216.500 C 231.199 204.655, 228.354 201.066, 223.513 198.867 C 218.917 196.779, 218.333 196.734, 215.228 198.230 M 159.442 205.765 C 157.156 207.353, 155.001 211.593, 155.017 214.473 C 155.042 219.100, 159.030 228.814, 163.695 235.614 C 168.861 243.143, 175.299 246.778, 180.970 245.368 C 183.538 244.729, 184.728 243.735, 185.474 241.604 C 186.387 238.998, 186.194 238.497, 183.547 236.604 C 181.930 235.447, 179.548 233.398, 178.254 232.051 C 174.853 228.510, 169 215.628, 169 211.683 C 169 209.685, 168.254 207.635, 167.171 206.655 C 165.278 204.942, 161.289 204.482, 159.442 205.765 M 69.679 229.250 C 66.674 235.218, 63.714 253.639, 64.245 263.061 C 64.795 272.824, 65.949 275.698, 69.698 276.639 C 74.020 277.724, 75.596 274.675, 76.317 263.826 C 76.659 258.697, 77.666 251.350, 78.556 247.500 C 81.563 234.488, 81.581 231.490, 78.666 228.575 C 75.039 224.948, 71.719 225.198, 69.679 229.250 M 112.252 237.250 C 106.453 248.970, 106.979 260.488, 113.808 271.341 C 118.538 278.857, 125.209 284.104, 134.332 287.486 C 148.060 292.575, 160.994 292.724, 179 288.001 C 183.125 286.919, 187.400 286.026, 188.500 286.016 C 191.239 285.992, 202.969 280.355, 205.845 277.680 C 209.362 274.410, 211 270.599, 211 265.685 C 211 259.757, 207.863 255.567, 204.128 256.504 C 201.106 257.262, 200.037 258.616, 200.015 261.711 C 199.982 266.534, 192.980 269.857, 174 274.059 C 166.711 275.672, 160.442 276.368, 153.500 276.333 C 144.546 276.289, 142.812 275.968, 136.920 273.260 C 125.683 268.096, 121.035 259.551, 120.968 243.934 C 120.934 235.981, 119.666 233, 116.317 233 C 115.005 233, 113.658 234.408, 112.252 237.250" stroke="none" fill="black" fill-rule="evenodd"/>
</svg>