<svg xmlns="http://www.w3.org/2000/svg" width="300" height="300" viewBox="0 0 300 300" version="1.1">
	<path d="M 146.184 18.043 C 143.230 20.795, 144.068 26.525, 148.551 34.223 C 150.383 37.371, 152.786 41.989, 153.890 44.485 C 154.995 46.981, 156.597 49.292, 157.451 49.620 C 160.305 50.715, 163.939 49.092, 164.608 46.424 C 166.012 40.834, 160.513 24.326, 155.224 18.250 C 152.786 15.449, 149.060 15.364, 146.184 18.043 M 67.436 24.772 C 60.430 30.635, 59.862 35.092, 59.440 87.500 C 58.985 143.972, 57.249 226.227, 56.047 248.246 C 55.544 257.457, 54.576 266.531, 53.896 268.412 C 52.841 271.328, 52.907 272.209, 54.342 274.400 C 56.091 277.069, 59.942 278.620, 62.439 277.662 C 63.234 277.357, 64.676 275.899, 65.644 274.421 C 67.787 271.149, 69.263 251.237, 70.898 203.500 C 71.501 185.900, 72.272 163.527, 72.611 153.783 L 73.227 136.066 76.064 137.533 C 80.057 139.598, 82.463 139.366, 85.674 136.604 C 88.122 134.498, 88.339 133.863, 87.466 131.354 C 86.919 129.784, 85.462 128.054, 84.227 127.509 C 82.992 126.964, 81.742 125.761, 81.448 124.837 C 81.155 123.912, 79.098 121.515, 76.879 119.509 L 72.843 115.863 73.277 75.682 C 73.543 51.062, 74.135 33.951, 74.807 31.500 C 76.681 24.657, 72.324 20.681, 67.436 24.772 M 248.200 48.200 C 246.045 50.355, 246.744 61.908, 249.371 67.551 C 253.348 76.091, 256.773 80.774, 262.151 85.025 C 268.370 89.941, 272.502 90.177, 274.969 85.756 C 276.398 83.195, 276.336 82.703, 274.035 78.363 C 272.679 75.805, 271.097 73.215, 270.520 72.606 C 267.664 69.594, 259.046 57.025, 257.420 53.500 C 256.406 51.300, 255.028 48.938, 254.359 48.250 C 252.818 46.666, 249.759 46.641, 248.200 48.200 M 152 51.638 C 148.211 51.912, 130.525 54.895, 107.103 59.209 C 98.546 60.785, 94.154 67.125, 98.750 71.267 C 101.760 73.979, 105.192 74.133, 115 71.995 C 120.225 70.856, 127.200 69.462, 130.500 68.896 C 133.800 68.331, 140.100 67.190, 144.500 66.361 C 148.900 65.532, 157.450 64.636, 163.500 64.370 C 177.494 63.755, 178.637 63.496, 179.346 60.783 C 180.284 57.197, 177.644 54.343, 172.300 53.167 C 166.300 51.846, 157.877 51.212, 152 51.638 M 211.414 63.765 C 209.744 64.894, 208 70.840, 208 75.399 C 208 81.811, 203.925 113.377, 202.944 114.564 C 202.099 115.585, 192.221 118.829, 183.206 121.045 C 172.134 123.767, 178.546 135.253, 190.267 133.693 C 192.595 133.383, 196.254 132.806, 198.397 132.410 C 202.186 131.711, 202.277 131.760, 201.664 134.204 C 201.317 135.586, 200.581 141.868, 200.030 148.163 C 199.478 154.459, 197.685 166.431, 196.046 174.768 C 194.406 183.105, 192.633 193.205, 192.105 197.213 C 191.577 201.221, 190.195 210.531, 189.034 217.903 C 186.729 232.541, 187.007 238.468, 190.188 242.512 C 192.631 245.617, 197.872 245.903, 200.436 243.071 C 201.854 241.504, 202.243 238.829, 202.507 228.821 C 202.736 220.145, 204.022 209.696, 206.852 193.500 C 209.062 180.850, 211.201 167.350, 211.605 163.500 C 212.319 156.686, 212.359 156.606, 213.112 160.500 C 213.537 162.700, 213.915 177.775, 213.951 194 C 214.023 225.799, 215.297 240.636, 218.953 252.245 C 221.671 260.875, 229.237 269.173, 236.081 271.032 C 242.603 272.803, 253.176 271.631, 262 268.160 C 288.129 257.883, 294.274 252.280, 289.915 242.712 C 288.717 240.082, 284.156 237, 281.463 237 C 279.173 237, 276 240.757, 276 243.469 C 276 245.162, 274.751 246.144, 270.250 247.990 C 267.087 249.287, 264.275 250.607, 264 250.924 C 261.512 253.791, 247.320 257.440, 241.626 256.677 C 236.528 255.993, 233.653 252.892, 231.477 245.734 C 227.629 233.071, 226.797 224.658, 226.013 190.500 C 225.510 168.616, 224.794 155.075, 224.002 152.500 C 222.347 147.113, 219.286 143, 216.932 143 C 215.869 143, 215.009 142.662, 215.020 142.250 C 215.071 140.342, 217.777 124.892, 218.117 124.572 C 219.154 123.594, 240.072 116.997, 244 116.408 C 249.498 115.584, 252 113.567, 252 109.956 C 252 108.452, 251.213 106.258, 250.250 105.080 C 248.548 102.997, 248.212 102.970, 238.054 104.083 C 232.309 104.712, 225.840 105.851, 223.678 106.613 C 221.517 107.376, 219.313 108, 218.781 108 C 218.182 108, 218.054 104.480, 218.447 98.750 C 219.368 85.299, 217.826 67.570, 215.513 65.014 C 213.521 62.813, 213.039 62.666, 211.414 63.765 M 126 82.658 C 125.175 82.981, 123.037 84.629, 121.250 86.319 C 116.200 91.094, 117.028 98, 122.650 98 C 123.888 98, 125.277 97.327, 125.737 96.505 C 126.454 95.224, 128.138 95.153, 137.537 96.008 C 143.567 96.557, 150.686 97.511, 153.358 98.129 L 158.215 99.251 155.358 101.695 C 147.077 108.777, 145.248 110.996, 144.829 114.469 C 144.546 116.809, 143.659 117.480, 138.500 119.256 C 135.200 120.393, 130.970 122.180, 129.100 123.228 C 125.298 125.360, 124.048 124.567, 124.010 120 C 123.957 113.689, 117.886 97.159, 114.306 93.579 C 109.666 88.938, 105.076 91.150, 104.256 98.421 C 103.874 101.812, 104.565 105.535, 107.004 113.225 C 111.142 126.272, 114.431 132.833, 117.400 133.962 C 118.680 134.448, 119.971 135.781, 120.270 136.923 C 121.098 140.091, 127.139 139.572, 135.250 135.638 C 138.963 133.837, 142 132.671, 142 133.045 C 142 133.420, 141.504 136.151, 140.898 139.114 C 140.169 142.677, 139.850 161.255, 139.955 194 C 140.111 242.821, 140.085 243.524, 138.057 245.240 C 135.779 247.167, 135.305 251.905, 137.200 253.800 C 139.166 255.766, 145.440 255.228, 148.486 252.832 C 153.658 248.764, 154.240 245.592, 154.127 222.080 L 154.024 200.647 156.972 205.294 C 160.361 210.638, 163.907 212.120, 167.931 209.872 C 170.951 208.185, 171.870 203.645, 169.693 201.162 C 168.892 200.248, 167.902 198.375, 167.494 197 C 167.085 195.625, 163.882 188.608, 160.375 181.407 L 154 168.314 153.912 153.907 C 153.864 145.983, 153.523 137.250, 153.154 134.500 C 152.492 129.573, 152.534 129.471, 155.991 127.475 C 158.683 125.922, 159.573 124.700, 159.813 122.225 C 159.989 120.417, 159.659 119, 159.063 119 C 156.057 119, 158.815 115.833, 165.521 111.585 C 173.350 106.625, 176.355 102.767, 176.215 97.852 C 176.062 92.475, 173.489 89.524, 165.817 85.929 C 158.564 82.530, 158.365 82.498, 143 82.285 C 134.475 82.167, 126.825 82.335, 126 82.658 M 33.566 94.250 L 31.021 96.500 30.760 125.500 L 30.500 154.500 35.500 154.500 L 40.500 154.500 41.889 149.500 C 42.877 145.940, 43.310 137.634, 43.389 120.667 L 43.500 96.835 40.694 94.417 C 37.245 91.445, 36.752 91.434, 33.566 94.250 M 110.411 170.008 C 107.063 172.159, 103.153 178.658, 100.578 186.354 C 99.161 190.588, 97.125 203.855, 95.327 220.570 C 94.689 226.508, 96.380 229, 101.048 229 C 104.636 229, 106.627 226.231, 107.921 219.441 C 108.439 216.724, 110.006 209.766, 111.403 203.979 C 112.799 198.193, 114.406 190.186, 114.974 186.185 C 115.610 181.695, 116.808 177.827, 118.102 176.076 C 119.818 173.755, 119.993 172.855, 119.064 171.120 C 118.440 169.954, 117.532 169, 117.047 169 C 116.561 169, 115.564 168.780, 114.832 168.512 C 114.099 168.244, 112.110 168.917, 110.411 170.008" stroke="none" fill="black" fill-rule="evenodd"/>
</svg>