<svg xmlns="http://www.w3.org/2000/svg" width="300" height="300" viewBox="0 0 300 300" version="1.1">
	<path d="M 195.917 14.281 C 193.271 17.989, 192 22.978, 192 29.649 C 192 33.216, 191.562 36, 191 36 C 189.773 36, 189.654 43.701, 190.874 44.167 C 191.354 44.350, 192.200 59.125, 192.753 77 C 193.687 107.227, 193.637 109.640, 192.028 111.500 C 189.034 114.962, 188.906 116.781, 191.513 118.832 L 193.935 120.737 194.775 189.118 C 195.451 244.105, 195.365 257.898, 194.335 259.532 C 192.688 262.148, 193.656 268.379, 196.046 270.542 C 198.744 272.984, 205.453 273.588, 208.402 271.656 C 213.106 268.574, 213.343 264.222, 212.632 193.750 C 212.272 158.138, 212.321 129.030, 212.739 129.066 C 214.756 129.243, 223.912 135.285, 233.095 142.500 C 238.695 146.900, 243.965 150.950, 244.807 151.500 C 245.649 152.050, 247.659 153.963, 249.273 155.750 C 250.887 157.537, 252.719 159, 253.345 159 C 253.971 159, 256.062 160.610, 257.992 162.577 C 263.907 168.608, 273.328 176.179, 276.718 177.626 C 283.626 180.575, 288.995 178.008, 289.006 171.750 C 289.011 168.920, 287.623 167.172, 278.256 158.212 C 260.654 141.375, 242.869 125.725, 237 121.909 C 228.044 116.086, 226.803 115.474, 220 113.530 C 216.425 112.508, 212.986 111.183, 212.357 110.586 C 210.980 109.277, 208.992 66.546, 208.997 38.364 C 209 18.918, 208.378 15.124, 204.816 12.865 C 202.253 11.240, 197.554 11.988, 195.917 14.281 M 101.769 27.705 C 97.753 30.257, 95.899 36.687, 95.270 50.250 C 94.971 56.713, 94.337 62, 93.863 62 C 93.388 62, 93 67.566, 93 74.368 L 93 86.736 87.250 88.339 C 84.088 89.221, 77.036 90.609, 71.579 91.423 C 53.222 94.162, 46.617 100.963, 54.993 108.500 C 56.784 110.111, 58.623 110.500, 64.457 110.500 C 68.440 110.500, 72.779 109.963, 74.099 109.308 C 76.284 108.222, 92.268 104, 94.190 104 C 94.636 104, 95.013 106.362, 95.029 109.250 C 95.044 112.138, 96.146 129.575, 97.477 148 L 99.897 181.500 96.699 184.220 C 89.159 190.633, 86.016 193.131, 77.622 199.385 C 72.739 203.023, 67.901 206, 66.872 206 C 65.842 206, 65 206.396, 65 206.880 C 65 207.364, 62.600 209.572, 59.666 211.787 C 55.192 215.165, 54.054 216.700, 52.603 221.312 C 50.651 227.517, 51.096 232.166, 54.239 238.414 C 58.238 246.364, 73.381 258.346, 82.700 260.934 C 95.223 264.411, 107.161 259.638, 112.254 249.117 C 116.499 240.347, 117.325 233.338, 116.798 210.535 L 116.327 190.118 122.733 183.809 C 129.616 177.031, 143 161.690, 143 160.579 C 143 160.208, 144.167 158.901, 145.593 157.674 C 150.322 153.606, 148.668 145.193, 142.839 143.668 C 140.736 143.118, 134.930 147.713, 128.552 154.976 C 122.109 162.314, 115 169.357, 115 168.403 C 115 167.855, 114.129 156.403, 113.065 142.953 C 112.001 129.504, 110.829 113.762, 110.461 107.972 L 109.791 97.444 116.646 95.089 C 120.416 93.795, 124.548 92.087, 125.828 91.294 C 127.108 90.500, 130.933 88.802, 134.328 87.519 C 143.744 83.959, 150.880 79.952, 151.548 77.849 C 151.878 76.808, 151.858 74.629, 151.502 73.009 C 150.980 70.633, 150.190 69.939, 147.411 69.417 C 145.517 69.062, 142.737 69.222, 141.233 69.773 C 139.730 70.324, 135.575 71.538, 132 72.472 C 128.425 73.405, 124.150 74.800, 122.500 75.571 C 119.636 76.911, 111.171 80, 110.365 80 C 110.025 80, 110.617 35.992, 111.036 30.185 C 111.242 27.332, 111.063 27.148, 107.427 26.495 C 105.581 26.163, 103.491 26.610, 101.769 27.705 M 96.134 208.250 C 94.283 210.313, 92.149 212, 91.392 212 C 90.636 212, 89.451 212.924, 88.758 214.053 C 88.066 215.183, 85.250 217.491, 82.500 219.184 C 79.750 220.876, 75.818 223.586, 73.763 225.205 C 70.131 228.065, 70.067 228.228, 71.483 230.966 C 74.565 236.928, 84.967 243, 92.096 243 C 98.050 243, 99.305 239.741, 99.799 223 C 100.018 215.575, 100.040 208.375, 99.849 207 C 99.502 204.518, 99.476 204.527, 96.134 208.250" stroke="none" fill="black" fill-rule="evenodd"/>
</svg>