<svg xmlns="http://www.w3.org/2000/svg" width="300" height="300" viewBox="0 0 300 300" version="1.1">
	<path d="M 113.287 35.510 C 110.035 38.668, 109.796 39.250, 110.900 41.312 C 112.700 44.677, 109.549 51.862, 100.116 65.900 C 95.829 72.280, 91.653 78.592, 90.837 79.928 C 89.572 81.996, 87.661 82.690, 77.926 84.618 C 71.642 85.863, 65.008 86.908, 63.184 86.941 C 61.361 86.973, 58.998 87.466, 57.934 88.035 C 55.843 89.155, 55.330 92.468, 57.081 93.550 C 59.553 95.078, 69.959 96.931, 76.250 96.964 L 83 97 83 100.040 C 83 105.164, 89.439 116, 92.483 116 C 93.107 116, 94.432 116.596, 95.428 117.323 C 97.016 118.485, 97.070 118.918, 95.869 120.862 C 93.403 124.852, 83.641 131.625, 76.396 134.371 C 68.315 137.434, 66.054 140.204, 68.631 143.884 C 70.495 146.545, 73.411 146.557, 81.193 143.935 C 91.126 140.589, 97.050 137.118, 103.657 130.773 C 107.076 127.490, 110.320 125.080, 110.865 125.416 C 111.409 125.753, 116.725 126.701, 122.678 127.522 C 128.630 128.343, 135.859 129.493, 138.743 130.077 C 146.395 131.627, 148.178 130.783, 147.803 125.791 C 147.528 122.117, 147.084 121.533, 142.917 119.356 C 140.397 118.040, 134.097 116.226, 128.917 115.325 C 123.738 114.425, 119.153 113.389, 118.729 113.023 C 118.305 112.657, 119.245 110.582, 120.818 108.410 C 122.391 106.239, 124.920 102.221, 126.438 99.481 C 127.957 96.742, 129.776 93.825, 130.481 93 C 131.186 92.175, 132.069 90.497, 132.443 89.271 C 133.181 86.846, 140.722 84.003, 146.432 83.996 C 150.332 83.992, 156 80.580, 156 78.237 C 156 77.251, 155.273 75.407, 154.384 74.138 C 152.893 72.009, 152.304 71.884, 146.755 72.528 C 142.479 73.025, 140.939 72.908, 141.423 72.125 C 142.471 70.428, 145 60.180, 145 57.626 C 145 54.306, 140.412 50.255, 138.205 51.627 C 135.673 53.201, 131.640 59.712, 128.992 66.500 C 125.351 75.836, 124.856 76.290, 116.235 78.213 C 104.261 80.883, 104.407 81.051, 110.653 71.773 C 117.578 61.485, 119.581 57.569, 122.122 49.339 C 124.504 41.628, 123.977 35.797, 120.689 33.494 C 117.745 31.433, 117.384 31.531, 113.287 35.510 M 215.881 48.453 C 215.399 48.934, 212.092 49.543, 191.500 52.944 C 184.350 54.125, 176.833 55.533, 174.795 56.072 C 169.736 57.412, 165 61.562, 165 64.655 C 165 70.674, 169.296 73.028, 175.530 70.423 C 177.586 69.564, 183.596 68.227, 188.885 67.452 C 194.173 66.678, 201.769 65.290, 205.764 64.369 C 209.759 63.448, 213.249 62.916, 213.520 63.186 C 214.115 63.782, 205.896 79.934, 202.753 84.345 C 201.516 86.080, 199.828 88.672, 199.002 90.105 C 195.693 95.845, 192.762 100, 192.022 100 C 191.593 100, 188.692 98.464, 185.575 96.588 C 182.416 94.685, 177.823 92.888, 175.195 92.527 C 169.366 91.725, 158.474 93.383, 156.481 95.376 C 153.401 98.456, 155.487 102, 160.380 102 C 164.481 102, 175.702 105.860, 180.287 108.847 L 184.073 111.314 181.305 114.407 C 171.602 125.247, 168.365 128.050, 163.796 129.568 C 160.219 130.756, 158.842 131.781, 158.387 133.594 C 157.358 137.692, 159.649 139.316, 165.592 138.703 C 172.812 137.957, 178.364 134.812, 186.681 126.754 C 194.521 119.157, 193.926 119.229, 201 125.030 C 211.259 133.444, 226.764 139.843, 230.573 137.235 C 233.305 135.364, 233.052 132.649, 229.837 129.332 C 228.061 127.499, 226.082 126, 225.439 126 C 222.909 126, 203.043 110.754, 203.011 108.789 C 203.005 108.398, 204.929 105.698, 207.286 102.789 C 214.279 94.160, 228.341 67.932, 230.358 59.758 C 231.303 55.925, 228.722 50.225, 225.483 48.994 C 222.816 47.980, 216.698 47.635, 215.881 48.453 M 107.500 93.067 C 103.650 94.105, 99.487 94.965, 98.250 94.977 C 96.400 94.996, 96 95.557, 96 98.132 C 96 100.436, 96.958 102.167, 99.624 104.681 C 103.928 108.741, 105.658 108.636, 108.050 104.171 C 109.031 102.339, 110.492 100.089, 111.296 99.171 C 113.328 96.849, 116.219 90.981, 115.276 91.090 C 114.849 91.140, 111.350 92.030, 107.500 93.067 M 185.485 143.890 C 182.193 145.480, 177.435 147.708, 174.912 148.841 C 169.702 151.182, 156.991 154.279, 154.294 153.865 C 153.307 153.714, 151.478 154.153, 150.230 154.841 C 148.981 155.529, 144.481 156.505, 140.230 157.010 C 123.891 158.951, 106.188 163.718, 102.344 167.212 C 99.208 170.063, 98.807 172.807, 101.178 175.178 C 102.729 176.729, 103.951 177.057, 106.354 176.568 C 115.902 174.624, 144.352 170.019, 144.695 170.361 C 144.916 170.582, 145.365 173.966, 145.693 177.882 C 146.171 183.582, 146.012 185.006, 144.895 185.030 C 139.526 185.147, 108.054 189.901, 106.246 190.868 C 103.294 192.448, 100.806 196.331, 101.532 198.224 C 103.155 202.453, 111.072 202.920, 133 200.080 C 140.975 199.048, 147.718 198.413, 147.984 198.669 C 148.619 199.280, 150.853 209.880, 150.936 212.670 C 150.994 214.629, 150.341 214.903, 144.250 215.482 C 140.537 215.834, 131.425 216.969, 124 218.002 C 116.575 219.036, 105.325 220.172, 99 220.526 C 86.096 221.249, 81.309 222.379, 78.750 225.305 C 76.343 228.058, 76.452 232.862, 78.943 233.783 C 81.845 234.857, 107.328 233.349, 123.917 231.123 C 131.938 230.046, 141.913 228.891, 146.084 228.556 L 153.668 227.947 155.311 238.223 C 159.728 265.855, 159.964 274.091, 156.410 276.689 C 152.434 279.597, 140.877 277.230, 131.500 271.588 C 128.750 269.933, 126.350 268.224, 126.167 267.789 C 125.983 267.355, 125.251 267, 124.539 267 C 123.827 267, 122.685 266.325, 122 265.500 C 118.886 261.747, 112.575 265.430, 113.175 270.651 C 113.432 272.884, 115.182 274.690, 121.500 279.243 C 132.114 286.891, 139.035 290.097, 147.500 291.287 C 159.737 293.006, 167.833 288.941, 171.271 279.352 C 174.011 271.707, 173.372 261.568, 168.451 234.580 C 167.657 230.224, 167.183 226.484, 167.397 226.269 C 167.984 225.683, 179.032 224.253, 192.457 223.026 C 208.951 221.519, 222.325 218.313, 227.886 214.534 C 234.150 210.276, 235.013 208.569, 232.282 205.837 L 230.091 203.647 219.796 205.817 C 206.568 208.606, 197.587 209.839, 181.566 211.065 C 174.452 211.609, 167.655 212.300, 166.461 212.599 C 164.544 213.080, 164.223 212.642, 163.698 208.822 C 163.372 206.445, 162.799 202.588, 162.425 200.250 L 161.744 196 167.622 195.991 C 170.855 195.986, 178.442 194.861, 184.482 193.491 C 190.522 192.121, 196.499 191, 197.764 191 C 199.029 191, 201.625 190.348, 203.532 189.551 C 206.511 188.306, 207 187.630, 207 184.751 C 207 178.046, 205.690 177.894, 179.061 181.515 C 168.920 182.894, 160.310 183.680, 159.929 183.261 C 159.548 182.843, 159.018 179.238, 158.752 175.250 C 158.340 169.090, 158.506 168, 159.855 168 C 163.039 168, 175.749 163.708, 185.869 159.215 C 191.572 156.683, 197.100 154.548, 198.154 154.470 C 201.128 154.251, 202.406 152.340, 202.291 148.286 C 202.077 140.742, 195.543 139.033, 185.485 143.890" stroke="none" fill="black" fill-rule="evenodd"/>
</svg>