<svg xmlns="http://www.w3.org/2000/svg" width="300" height="300" viewBox="0 0 300 300" version="1.1">
	<path d="M 253.272 14.312 C 250.745 16.025, 248 20.329, 248 22.578 C 248 23.765, 251.591 26, 253.499 26 C 256.569 26, 259.991 30.392, 260.032 34.385 C 260.076 38.728, 262.102 41, 265.932 41 C 270.217 41, 272 38.979, 272 34.121 C 272 26.472, 270.102 20.624, 266.188 16.212 C 261.836 11.306, 258.443 10.807, 253.272 14.312 M 115.500 27.953 C 112.750 28.394, 105.550 29.295, 99.500 29.955 C 78.313 32.267, 71.864 34.698, 70.696 40.811 C 70.417 42.270, 70.833 44.710, 71.620 46.232 C 73.189 49.266, 77.006 49.894, 82.601 48.038 C 85.647 47.027, 112.547 43.529, 124.500 42.589 C 128.350 42.287, 133.300 42.373, 135.500 42.781 C 139.379 43.501, 139.509 43.656, 139.815 47.915 C 140.257 54.078, 136.953 72.106, 135.902 69.265 C 134.525 65.541, 132.034 64.983, 123.414 66.469 C 119.061 67.220, 108.975 68.548, 101 69.421 C 93.025 70.295, 84.575 71.519, 82.221 72.143 C 79.868 72.766, 77.719 73.052, 77.445 72.778 C 77.171 72.504, 75.203 65.969, 73.071 58.256 C 70.939 50.543, 68.742 43.393, 68.189 42.366 C 64.932 36.321, 56.695 33.156, 52.977 36.520 C 50.167 39.064, 50.526 43.184, 54.040 48.715 C 57.723 54.514, 63.806 73.070, 64.950 82 C 66.297 92.510, 70.499 106.176, 73.010 108.209 L 75.222 110 72.757 110 C 69.668 110, 65 114.215, 65 117.003 C 65 118.483, 66.105 119.564, 68.747 120.668 C 74.011 122.867, 83.272 121.954, 95.320 118.046 C 102.230 115.805, 107.862 114.704, 114.320 114.332 C 121.072 113.943, 124.213 113.303, 126.197 111.911 C 127.816 110.775, 129.138 110.415, 129.506 111.009 C 129.843 111.554, 131.620 112, 133.455 112 C 136.035 112, 137.510 111.183, 139.953 108.401 C 143.243 104.653, 147.243 96.524, 148.992 90.030 C 151.311 81.417, 156.063 46.365, 155.435 42.500 C 154.569 37.169, 150.650 32.175, 145.566 29.926 C 140.766 27.803, 123.499 26.670, 115.500 27.953 M 192.708 36.164 C 185.012 42.450, 181.682 54.028, 181.574 74.879 L 181.500 89.258 170.500 91.541 C 156.164 94.517, 154.461 95.237, 153.199 98.860 C 151.866 102.684, 152.611 105.515, 155.440 107.369 C 157.429 108.672, 158.962 108.571, 169.585 106.438 C 176.138 105.123, 182.024 104.036, 182.665 104.023 C 183.395 104.009, 184.088 106.893, 184.521 111.750 C 186.713 136.294, 199.956 178.656, 214.891 208.901 C 217.151 213.477, 219 217.645, 219 218.163 C 219 220.211, 210.638 235.691, 204.517 244.975 C 195.916 258.018, 188.935 265.592, 184.752 266.420 C 177.838 267.787, 175.356 272.447, 179.392 276.483 C 182.193 279.284, 185.177 279.611, 191.384 277.797 C 198.981 275.578, 214.782 257.565, 224.001 240.615 L 228.290 232.729 229.953 236.115 C 235.439 247.280, 260.420 277.909, 270.351 285.646 C 272.765 287.526, 276.036 289.427, 277.620 289.868 C 281.661 290.995, 286.490 289.460, 289.043 286.238 C 290.924 283.863, 291.153 282.572, 290.767 276.500 C 290.112 266.190, 286.547 260.702, 281.711 262.557 C 279.598 263.368, 277.873 268.618, 278.652 271.869 L 279.282 274.500 276.391 272.011 C 272.143 268.353, 260.031 255.616, 260.015 254.789 C 260.007 254.398, 259.158 253.273, 258.129 252.289 C 255.562 249.835, 237.341 222.650, 236.512 220.038 C 236.041 218.553, 237.638 214.258, 241.911 205.522 C 245.249 198.697, 249.289 189.601, 250.889 185.307 C 252.489 181.013, 257.658 169.233, 262.375 159.129 C 270.383 141.979, 276.042 126.668, 275.968 122.355 C 275.918 119.409, 273.324 116.750, 270.500 116.750 C 269.072 116.750, 267.264 117.594, 266.483 118.625 C 264.571 121.150, 244.984 160.234, 244.993 161.507 C 244.999 162.441, 235.863 183.702, 232.534 190.500 C 231.726 192.150, 230.226 195.690, 229.202 198.367 L 227.339 203.234 224.188 196.867 C 212.506 173.271, 200.535 133.240, 196.639 104.753 C 196.193 101.489, 196.409 100.954, 198.313 100.604 C 199.516 100.383, 206.575 98.834, 214 97.161 C 221.425 95.489, 233.793 92.883, 241.484 91.371 C 252.342 89.237, 255.976 88.115, 257.734 86.356 C 260.628 83.463, 260.582 82.491, 257.405 79.314 C 254.860 76.769, 254.619 76.731, 245.155 77.382 C 226.609 78.657, 215.702 80.498, 196.250 85.639 L 194 86.233 194.006 70.367 C 194.012 52.847, 194.844 48.193, 198.901 43 C 202.642 38.210, 203.192 36.335, 201.386 34.529 C 199.140 32.283, 196.957 32.694, 192.708 36.164 M 135.466 74.299 C 133.155 79.565, 119.465 83.544, 94.218 86.287 C 86.914 87.080, 80.694 87.972, 80.398 88.269 C 79.329 89.338, 83.257 106.115, 84.468 105.651 C 103.120 98.493, 121.067 97.210, 126.503 102.645 C 128.396 104.539, 128.109 104.794, 131.371 98.300 C 133.610 93.842, 137.828 73.494, 136.739 72.405 C 136.570 72.237, 135.997 73.089, 135.466 74.299 M 102.445 123.959 C 97.340 126.026, 90 138.753, 90 145.538 C 90 147.789, 89.615 148, 85.500 148 C 83.025 148, 81 147.757, 81 147.460 C 81 147.163, 81.900 145.156, 83 143 C 86.550 136.041, 84.984 128.521, 79.586 126.614 C 77.098 125.734, 69.236 128.988, 68.676 131.129 C 68.439 132.036, 68.605 133.360, 69.044 134.071 C 71.130 137.446, 51.396 168.282, 38.812 181.309 C 32.904 187.425, 31.848 191.199, 35.394 193.523 C 37.147 194.671, 38.874 194.967, 41.045 194.490 C 44.860 193.652, 56.138 183.247, 63.796 173.500 C 66.820 169.650, 69.930 165.981, 70.705 165.348 C 71.481 164.714, 75.457 164.182, 79.542 164.166 C 83.627 164.150, 87.426 163.855, 87.985 163.510 C 88.650 163.098, 89 167.021, 89 174.902 L 89 186.923 85.250 187.901 C 83.188 188.438, 77.774 189.409, 73.221 190.059 C 63.976 191.376, 59.094 193.947, 57.561 198.306 C 56.742 200.636, 56.983 201.437, 59.152 203.606 C 62.036 206.491, 65.665 206.753, 81 205.182 C 85.675 204.703, 89.645 204.423, 89.822 204.561 C 89.999 204.698, 90.304 215.017, 90.501 227.493 C 90.818 247.620, 91.054 250.319, 92.595 251.446 C 94.134 252.571, 93.887 252.797, 90.416 253.437 C 79.436 255.461, 55.496 264.877, 49.250 269.629 C 45.198 272.712, 44.674 277.572, 48.250 278.901 C 49.487 279.361, 50.950 279.610, 51.500 279.455 C 52.050 279.299, 66 275.930, 82.500 271.968 C 146.027 256.712, 165 250.042, 170.278 241.106 C 172.336 237.623, 171.355 233.796, 167.937 231.966 C 166.128 230.998, 164.849 231.298, 160.045 233.816 C 152.350 237.850, 134.961 243.648, 126.513 244.998 C 122.743 245.600, 119.335 246.293, 118.940 246.537 C 118.545 246.781, 114.910 247.672, 110.861 248.516 C 106.812 249.361, 102.760 250.280, 101.855 250.560 C 100.345 251.026, 100.334 250.718, 101.722 246.784 C 102.709 243.986, 103.603 235.134, 104.299 221.265 L 105.364 200.030 119.432 195.524 C 135.352 190.425, 140 188.029, 140 184.919 C 140 181.768, 136.827 177, 134.730 177 C 133.143 177, 112.867 181.691, 106.217 183.596 L 103.934 184.250 104.217 172.490 L 104.500 160.729 114 158.466 C 119.225 157.222, 126.053 155.683, 129.173 155.047 C 135.413 153.775, 137.250 152.279, 137.250 148.473 C 137.250 143.876, 133.669 142, 124.896 142 C 120.607 142, 114.795 142.494, 111.980 143.098 C 109.165 143.701, 106.623 143.956, 106.331 143.664 C 106.038 143.372, 106.814 139.715, 108.054 135.538 C 110.001 128.977, 110.128 127.608, 108.985 125.472 C 107.615 122.913, 105.969 122.532, 102.445 123.959" stroke="none" fill="black" fill-rule="evenodd"/>
</svg>