<svg xmlns="http://www.w3.org/2000/svg" width="300" height="300" viewBox="0 0 300 300" version="1.1">
	<path d="M 111.437 12.441 C 106.242 17.942, 105.500 21.012, 105.500 37 C 105.500 50.562, 105.371 51.553, 103.500 52.313 C 102.400 52.759, 95.043 53.558, 87.151 54.088 C 71.934 55.109, 67.652 56.369, 66.443 60.181 C 65.534 63.042, 69.836 66.639, 74.901 67.253 C 78.682 67.711, 101.956 66.401, 105.654 65.522 C 107.615 65.056, 107.839 65.469, 108.154 70.132 C 108.346 72.970, 108.054 75.414, 107.500 75.612 C 106.950 75.809, 102 76.647, 96.500 77.475 C 63.920 82.380, 55.874 83.953, 53.039 85.972 C 48.851 88.955, 48.171 91.909, 51.123 94.309 C 53.901 96.568, 59.382 96.333, 79.500 93.094 C 95.730 90.482, 107.632 89.596, 108.463 90.940 C 109.539 92.681, 114.219 92.143, 116.480 90.019 C 118.586 88.040, 121.717 87.477, 170.292 80.338 C 176.228 79.465, 181.313 78.980, 181.592 79.258 C 181.870 79.537, 183.867 88.653, 186.028 99.516 C 194.580 142.494, 201.453 167.974, 213.095 199.849 L 216.875 210.199 211.146 221.849 C 202.323 239.790, 191.501 254.554, 182.646 260.728 C 177.760 264.136, 176.386 267.414, 178.496 270.635 C 183.369 278.071, 197.358 268.099, 214.921 244.670 C 217.737 240.913, 220.949 236.060, 222.059 233.885 C 223.863 230.349, 226 229.406, 226 232.146 C 226 234.065, 239.998 258.253, 245.062 265.084 C 251.948 274.372, 256.250 278, 260.380 278 C 264.174 278, 267 275.463, 267 272.057 C 267 268.853, 262.951 262, 261.057 262 C 258.104 262, 240.712 232.651, 234.983 218.001 L 232.833 212.502 236.829 204.001 C 249.204 177.678, 253 166.735, 253 157.389 C 253 153.672, 253.743 147.982, 254.652 144.745 C 256.262 139.004, 256.252 138.808, 254.235 136.791 L 252.168 134.723 249.370 136.923 C 244.648 140.638, 241.939 145.383, 240.989 151.603 C 239.517 161.246, 235.695 171.840, 228.451 186.354 L 225.030 193.209 223.934 190.354 C 220.857 182.335, 213.772 161, 213.024 157.500 C 212.554 155.300, 209.642 143.600, 206.552 131.500 C 203.463 119.400, 200.497 106.350, 199.962 102.500 C 199.426 98.650, 198.350 92.800, 197.570 89.500 C 196.789 86.200, 195.877 82.133, 195.543 80.462 L 194.934 77.423 207.217 75.604 C 226.360 72.768, 232 71.152, 235.750 67.428 C 239.920 63.286, 239.999 60.021, 235.985 57.650 C 233.206 56.009, 232.723 55.992, 229.831 57.434 C 228.105 58.295, 225.350 59, 223.710 59 C 221.239 59, 199.501 62.205, 193.894 63.396 C 192.586 63.674, 191.691 61.030, 189.059 49.119 C 187.283 41.078, 185.123 33.712, 184.260 32.750 C 181.276 29.424, 175.814 31.147, 174.718 35.761 C 174.287 37.578, 176.713 51.793, 179.465 63.574 C 179.907 65.464, 179.266 65.753, 172.225 66.835 C 138.839 71.967, 131.163 73, 126.411 73 L 121 73 121 68.183 L 121 63.365 126.750 61.565 C 143.423 56.346, 149.034 51.753, 145.439 46.266 C 143.599 43.458, 142.746 43.491, 129.500 46.883 C 125.100 48.010, 120.896 48.947, 120.158 48.966 C 119.080 48.993, 118.884 46.079, 119.158 34.103 C 119.444 21.636, 119.785 18.891, 121.250 17.274 C 122.213 16.212, 123 14.455, 123 13.371 C 123 8.043, 116.112 7.488, 111.437 12.441 M 219.969 19.222 C 215.184 21.131, 213.477 28.477, 217 32 C 219.178 34.178, 220.727 34.459, 222.918 33.072 C 224.903 31.815, 228.030 33.966, 237.628 43.189 C 246.632 51.842, 249.689 52.931, 252.581 48.516 C 254.123 46.163, 254.076 45.807, 251.696 41.766 C 247.034 33.849, 236.796 22.774, 231.346 19.750 C 227.899 17.838, 223.904 17.653, 219.969 19.222 M 97.241 93.986 C 96.558 95.079, 96 96.869, 96 97.964 C 96 103.683, 85.258 124.138, 78.380 131.517 C 77.346 132.626, 75.327 135.230, 73.894 137.303 C 70.932 141.586, 68.573 144.569, 58 157.399 C 43.668 174.790, 38.925 182.148, 38.777 187.215 C 38.581 193.918, 45.719 195.077, 49.769 189 C 51.052 187.075, 57.027 179.822, 63.047 172.883 C 69.067 165.944, 76.807 156.735, 80.247 152.419 L 86.500 144.571 86.841 148.536 C 87.029 150.716, 86.701 156.325, 86.112 161 C 85.522 165.675, 84.304 180.525, 83.404 194 C 80.705 234.402, 83.450 268, 89.449 268 C 90.302 268, 91 268.450, 91 269 C 91 270.499, 97.486 270.205, 103.589 268.431 C 113.425 265.572, 140.841 250.885, 144.487 246.522 C 145.044 245.855, 148.329 243.176, 151.786 240.568 C 162.763 232.290, 170 225.039, 170 222.321 C 170 219.262, 167.599 216.746, 164.696 216.763 C 163.488 216.770, 156.663 221.141, 149.530 226.477 C 142.396 231.813, 136.405 235.716, 136.217 235.152 C 136.029 234.588, 136.353 231.540, 136.938 228.379 C 137.522 225.219, 138 221.212, 138 219.475 C 138 216.474, 138.426 216.126, 146.535 212.513 C 157.660 207.556, 161.123 202.836, 157.965 196.934 C 156.464 194.130, 153.258 194.541, 145.954 198.477 C 142.404 200.390, 139.162 201.965, 138.750 201.977 C 138.338 201.990, 138 199.114, 138 195.587 L 138 189.175 145.050 186.481 C 157.383 181.768, 161.071 176.561, 155.293 172.016 C 152.310 169.669, 150.451 169.833, 143.340 173.073 C 141.013 174.133, 138.635 175, 138.055 175 C 136.116 175, 136.787 161.843, 138.888 158.656 C 139.920 157.092, 140.561 155.039, 140.315 154.095 C 139.950 152.699, 140.954 152.173, 145.683 151.283 C 159.121 148.753, 169.014 143.183, 168.985 138.161 C 168.952 132.546, 165.363 131.098, 158.337 133.867 C 153.239 135.877, 142.495 138.070, 128 140.061 C 118.306 141.393, 109.473 144.059, 103.140 147.567 C 100.742 148.895, 98.438 149.771, 98.019 149.512 C 97.601 149.253, 96.993 147.717, 96.670 146.099 C 96.346 144.480, 94.849 142.013, 93.342 140.617 L 90.603 138.077 93.609 134.288 C 100.350 125.793, 109 108.290, 109 103.145 C 109 95.227, 100.567 88.660, 97.241 93.986 M 140.934 102.674 C 139.640 106.077, 140.533 110.347, 143.681 115.820 C 145.784 119.476, 146.115 121.162, 145.833 126.779 C 145.510 133.225, 145.579 133.446, 148.223 134.393 C 154.546 136.655, 159 130.251, 159 118.896 C 159 112.705, 158.638 111.334, 155.983 107.475 C 152.157 101.914, 149.409 100, 145.253 100 C 142.593 100, 141.753 100.520, 140.934 102.674 M 121.500 156.185 C 117.650 157.287, 110.900 158.484, 106.500 158.844 L 98.500 159.500 97.848 167 C 97.490 171.125, 96.906 177.792, 96.550 181.815 L 95.905 189.130 98.708 187.058 C 100.436 185.780, 104.961 184.395, 110.506 183.447 C 115.453 182.601, 120.221 181.695, 121.103 181.433 C 122.361 181.061, 122.833 179.012, 123.291 171.938 C 123.746 164.920, 124.429 161.927, 126.367 158.458 C 127.738 156.006, 128.778 154.041, 128.680 154.090 C 128.581 154.140, 125.350 155.082, 121.500 156.185 M 95.487 199.365 C 95.141 202.189, 95.002 214.044, 95.179 225.709 C 95.461 244.323, 95.709 247.075, 97.212 248.209 C 98.154 248.919, 99.279 250.478, 99.712 251.674 L 100.500 253.848 107.500 250.910 C 122.044 244.806, 121.565 245.177, 122.810 239.042 C 123.428 235.994, 124.238 230.438, 124.610 226.695 L 125.287 219.890 122.394 220.669 C 117.730 221.924, 106.751 221.494, 103.500 219.929 C 101.479 218.957, 100.400 217.625, 100.194 215.851 C 99.764 212.147, 103.850 209.565, 112.500 208.071 C 116.350 207.407, 120.625 206.658, 122 206.408 C 124.356 205.980, 124.480 205.642, 124.161 200.536 L 123.822 195.117 121.161 196.165 C 117.386 197.651, 106.342 197.387, 100.808 195.679 L 96.115 194.230 95.487 199.365" stroke="none" fill="black" fill-rule="evenodd"/>
</svg>