<svg xmlns="http://www.w3.org/2000/svg" width="300" height="300" viewBox="0 0 300 300" version="1.1">
	<path d="M 98.190 40.862 C 96.931 41.660, 96.111 47.771, 94.234 70.319 C 93.565 78.351, 93.277 79.254, 91 80.447 C 86.859 82.616, 77.015 86.715, 67.911 90.063 C 60.083 92.942, 59.209 93.532, 58.054 96.726 C 56.907 99.898, 56.986 100.431, 58.884 102.329 C 62.046 105.490, 67.103 104.783, 81.145 99.217 C 87.940 96.524, 93.563 94.360, 93.639 94.410 C 93.813 94.522, 96.789 135.881, 97.337 145.810 L 97.742 153.120 86.621 161.445 C 80.504 166.024, 73.250 172.158, 70.500 175.075 C 67.750 177.993, 62.013 183.808, 57.750 187.997 C 51.318 194.319, 50 196.153, 50 198.781 C 50 202.101, 52.291 203.952, 58.135 205.350 C 59.584 205.697, 63.117 207.560, 65.985 209.490 C 68.854 211.421, 71.355 213, 71.543 213 C 71.732 213, 73.549 213.981, 75.581 215.181 C 81.180 218.484, 91.997 221.991, 96.602 221.996 C 102.123 222.002, 106.755 218.716, 109.941 212.533 C 112.299 207.958, 112.524 206.384, 112.799 192.533 C 112.986 183.161, 112.568 173.964, 111.691 168.110 L 110.283 158.719 113.391 155.858 C 115.540 153.881, 117.118 153.187, 118.500 153.612 C 123.114 155.031, 128.580 155.153, 134.353 153.965 C 137.734 153.270, 140.950 152.370, 141.500 151.966 C 142.050 151.562, 145.650 150.088, 149.500 148.689 C 153.350 147.291, 160.286 144.762, 164.913 143.070 C 169.541 141.378, 173.492 140.159, 173.695 140.362 C 174.098 140.765, 172.526 152.143, 170.807 161.262 C 169.943 165.851, 169.209 167.276, 167.203 168.262 C 162.951 170.352, 162.226 172.547, 164.863 175.354 L 167.159 177.798 164.036 187.649 C 162.318 193.067, 160.032 199.408, 158.956 201.739 C 157.880 204.071, 157 206.408, 157 206.934 C 157 207.460, 155.428 211.022, 153.507 214.850 C 149.809 222.219, 145.197 227, 141.788 227 C 140.656 227, 138.665 228.148, 137.365 229.552 C 134.629 232.503, 134.718 232.128, 135.975 235.435 C 136.839 237.707, 137.511 238, 141.853 238 C 153.236 238, 161.328 230.723, 168.307 214.208 C 170.796 208.318, 174.032 200.245, 175.497 196.268 L 178.161 189.035 182.302 192.268 C 184.579 194.045, 189.605 198.216, 193.471 201.535 C 208.024 214.030, 212.462 216.774, 235.500 227.517 C 245.481 232.172, 247.193 232.873, 258.500 236.945 C 261.800 238.133, 265.942 239.768, 267.705 240.578 C 272.340 242.708, 281.787 244.262, 285.670 243.534 C 287.614 243.169, 289.674 241.901, 290.588 240.507 C 291.938 238.446, 291.971 237.711, 290.817 235.303 C 289.696 232.964, 288.649 232.391, 284.487 231.839 C 279.409 231.167, 271.273 228.180, 260.500 223.035 C 257.200 221.459, 250.450 218.298, 245.500 216.011 C 222.936 205.586, 215.881 201.623, 208.811 195.401 C 204.244 191.382, 198.271 187.436, 192.510 184.633 C 181.005 179.035, 180.489 178.435, 181.881 172.278 C 184.554 160.447, 188 140.633, 188 137.091 C 188 133.673, 188.458 132.912, 191.750 130.865 C 193.813 129.582, 195.950 128.347, 196.500 128.121 C 197.050 127.895, 200.662 125.638, 204.528 123.105 C 208.393 120.572, 213.330 117.600, 215.498 116.500 C 217.667 115.400, 221.432 112.603, 223.865 110.283 C 228.042 106.301, 228.206 105.943, 226.809 103.838 C 224.081 99.730, 222.457 99.365, 217.791 101.810 C 210.611 105.572, 203.006 109.852, 196.791 113.627 C 193.542 115.601, 190.767 117.055, 190.626 116.858 C 190.484 116.661, 190.559 111.213, 190.792 104.750 C 191.196 93.548, 191.316 92.999, 193.358 92.976 C 194.536 92.963, 199.317 91.050, 203.983 88.726 C 213.819 83.826, 216.310 80.817, 214.042 76.579 C 213.283 75.160, 211.951 74.007, 211.081 74.015 C 210.211 74.023, 205.675 75.559, 201 77.428 L 192.500 80.825 191.883 66.570 C 191.543 58.730, 190.671 49.994, 189.944 47.157 C 188.695 42.283, 188.444 42, 185.389 42 C 182.616 42, 182.010 42.463, 181.138 45.250 C 179.963 49.004, 178 70.024, 178 78.850 L 178 84.857 172.250 86.063 C 163.289 87.942, 143.582 94.186, 142.765 95.404 C 141.382 97.467, 141.999 100.929, 143.934 101.965 C 147.105 103.662, 160.044 103.157, 168.068 101.024 C 172.155 99.936, 175.838 99.036, 176.250 99.024 C 177.219 98.993, 177.204 122.147, 176.235 123.603 C 175.831 124.209, 172.800 125.720, 169.500 126.959 C 153.435 132.996, 140.650 137.926, 132.060 141.398 C 128.519 142.829, 125.429 144, 125.194 144 C 124.959 144, 126.384 142.210, 128.360 140.023 C 131.269 136.804, 131.795 135.614, 131.122 133.773 C 130.665 132.523, 129.219 130.955, 127.909 130.290 C 125.001 128.813, 123.371 129.742, 115.175 137.551 C 112.054 140.525, 109.232 142.967, 108.905 142.979 C 108.578 142.991, 107.995 132.338, 107.610 119.307 C 107.224 106.275, 106.654 93.756, 106.343 91.486 L 105.777 87.359 115.366 82.693 C 126.347 77.350, 128.094 74.857, 123.948 70.445 C 121.016 67.323, 119.831 67.372, 112.327 70.922 C 105.255 74.267, 105 74.090, 105 65.839 C 105 57.680, 102.826 41.557, 101.619 40.765 C 100.197 39.832, 99.795 39.843, 98.190 40.862 M 92.500 173.799 C 87.010 178.047, 70.031 194.825, 70.032 196 C 70.033 197.126, 86.162 206.857, 90.780 208.518 C 96.570 210.600, 98.612 210.110, 100.126 206.276 C 102.127 201.208, 101.290 168.829, 99.165 169.078 C 98.799 169.120, 95.800 171.245, 92.500 173.799" stroke="none" fill="black" fill-rule="evenodd"/>
</svg>