<svg xmlns="http://www.w3.org/2000/svg" width="300" height="300" viewBox="0 0 300 300" version="1.1">
	<path d="M 77.808 26.750 C 76.396 28.262, 74.756 31.075, 74.164 33 C 72.214 39.331, 70.790 57.296, 71.428 67.500 L 72.053 77.500 62.776 81.676 C 57.674 83.973, 51.787 86.135, 49.694 86.482 C 42.813 87.621, 39.871 93.515, 43.557 98.777 C 44.832 100.598, 46.071 101, 50.400 101 C 55.582 101, 63.715 98.750, 69.678 95.667 L 72.681 94.113 73.341 121.219 C 73.703 136.127, 74 155.441, 74 164.138 L 74 179.951 65.750 188.274 C 61.213 192.852, 55.004 198.826, 51.952 201.549 C 45.300 207.486, 37.219 217.293, 35.378 221.665 C 33.793 225.425, 35.111 230.534, 37.850 231.251 C 40.494 231.942, 43.701 230.386, 45.596 227.493 C 46.539 226.055, 50.052 222.813, 53.405 220.289 C 56.757 217.765, 62.537 212.742, 66.250 209.127 L 73 202.554 72.983 211.527 C 72.957 225.274, 71.053 264.080, 70.220 267.850 L 69.479 271.200 64.183 265.600 C 58.265 259.343, 54.064 258.143, 51.944 262.105 C 49.969 265.796, 51.722 270.352, 57.631 276.881 C 64.174 284.112, 67.367 286, 73.050 286 C 76.411 286, 77.827 285.373, 80.497 282.703 C 82.310 280.890, 84.319 277.627, 84.960 275.453 C 85.724 272.865, 86.329 256.659, 86.712 228.521 L 87.297 185.542 92.566 178.521 C 100.522 167.919, 112.979 148.015, 113.158 145.618 C 113.686 138.561, 110.881 135.685, 105 137.251 C 103.296 137.705, 101.777 139.443, 100.227 142.709 C 98.978 145.344, 96.053 150.060, 93.727 153.188 C 91.402 156.317, 89.009 159.679, 88.409 160.659 C 87.601 161.981, 87.133 153.314, 86.602 127.154 C 86.208 107.746, 85.674 91.314, 85.415 90.638 C 85.140 89.922, 86.727 88.629, 89.222 87.537 C 102.851 81.569, 106.534 79.758, 107.213 78.689 C 108.504 76.658, 108.075 72.218, 106.429 70.571 C 104.302 68.445, 100.810 68.658, 92.500 71.422 L 85.500 73.751 84.650 71.625 C 83.289 68.222, 84.615 40.207, 86.408 34.500 C 88.356 28.298, 88.370 28.733, 86.133 26.153 C 83.614 23.249, 80.893 23.444, 77.808 26.750 M 198.500 37.574 C 187.082 39.831, 175.918 41.289, 164.500 42.015 C 143.382 43.358, 141.761 43.605, 139.129 45.888 C 136.259 48.377, 136.446 52.132, 139.585 55.076 C 142.105 57.439, 142.527 57.493, 156.335 57.205 C 170.018 56.920, 189.467 54.949, 199.216 52.859 C 201.811 52.303, 207.816 51.275, 212.562 50.573 L 221.191 49.297 220.557 52.399 C 220.209 54.104, 219.651 58.970, 219.317 63.211 L 218.710 70.922 214.406 70.332 C 211.507 69.935, 208.737 70.288, 205.921 71.415 C 203.621 72.335, 193.083 74.859, 182.502 77.025 C 171.921 79.190, 162.597 81.218, 161.782 81.530 C 160.607 81.981, 160.047 80.483, 159.079 74.299 C 157.131 61.861, 157.181 62, 154.703 62 C 150.298 62, 148.772 65.448, 147.988 77.174 L 147.266 87.988 143.071 92.539 C 137.932 98.114, 137.734 101.887, 142.500 103.441 C 144.150 103.980, 145.627 104.489, 145.781 104.575 C 145.936 104.660, 145.585 109.800, 145 115.997 C 144.190 124.590, 143.467 127.862, 141.954 129.785 C 140.142 132.089, 140.102 132.507, 141.490 134.625 C 142.850 136.700, 142.840 139.117, 141.395 157.721 C 139.041 188.021, 139.024 218.649, 141.356 227 C 144.818 239.400, 149.811 245, 157.408 245 C 163.256 245, 168.546 241.547, 180.153 230.153 C 188.442 222.016, 191.005 218.887, 191.003 216.903 C 190.999 213.466, 187.876 210, 184.783 210 C 182.325 210, 176.573 213.620, 171.828 218.153 C 170.477 219.444, 166.930 222.693, 163.946 225.372 L 158.520 230.245 156.788 226.273 C 152.429 216.277, 151.815 174.150, 155.548 141.250 L 156.144 136 164.462 136 C 173.289 136, 187.294 132.946, 196.433 129.029 C 202.629 126.373, 210.715 120.475, 211.485 118.049 C 212.031 116.327, 212.295 116.301, 215.090 117.695 C 219.222 119.756, 223.481 117.953, 225.924 113.107 C 229.317 106.377, 232.936 91.544, 234.003 80 C 234.587 73.675, 235.500 64.373, 236.033 59.330 C 237.389 46.470, 237.247 42.306, 235.352 39.414 C 231.143 32.991, 223.601 32.614, 198.500 37.574 M 216.433 82.916 C 214.586 84.663, 172.491 96.195, 162.413 97.715 L 159.326 98.181 158.207 110.801 C 157.591 117.742, 157.180 123.509, 157.294 123.616 C 157.756 124.053, 184.081 117.159, 191.785 114.583 C 196.341 113.059, 201.356 110.730, 202.929 109.406 C 206.351 106.527, 208.377 106.377, 210.824 108.824 C 212.589 110.589, 212.701 110.436, 214.308 104.074 C 216.214 96.527, 218.374 83.040, 217.772 82.439 C 217.549 82.216, 216.947 82.431, 216.433 82.916 M 234.750 135.303 C 232.688 135.880, 231 136.723, 231 137.176 C 231 137.629, 230.518 138, 229.929 138 C 229.339 138, 228.265 138.563, 227.540 139.250 C 226.816 139.938, 225.385 141.194, 224.362 142.041 C 223.338 142.889, 220.475 146.011, 218 148.978 C 211.423 156.864, 206.626 161.317, 196.146 169.266 C 191.001 173.169, 186.306 177.139, 185.713 178.088 C 184.760 179.613, 183.874 179.073, 178.120 173.459 C 170.192 165.723, 165.715 163.063, 163.235 164.615 C 159.358 167.043, 160.487 170.656, 169.091 183.345 C 179.369 198.504, 183.040 202.892, 200.500 220.889 C 226.293 247.476, 251.914 265.574, 270.558 270.376 C 281.907 273.300, 288.075 272.489, 289.537 267.882 C 290.997 263.284, 286.444 259.513, 277 257.497 C 273.594 256.769, 262.058 251.139, 255 246.759 C 240.060 237.488, 221.774 221.267, 201.275 199.104 L 189.810 186.707 193.230 185.532 C 198.846 183.601, 219.160 169.662, 224.031 164.398 C 226.523 161.704, 230.489 156.740, 232.844 153.367 C 235.199 149.993, 238.898 145.810, 241.063 144.070 C 243.228 142.329, 245 140.457, 245 139.907 C 245 138.652, 240.366 133.956, 239.295 134.126 C 238.858 134.196, 236.813 134.725, 234.750 135.303" stroke="none" fill="black" fill-rule="evenodd"/>
</svg>