<svg xmlns="http://www.w3.org/2000/svg" width="300" height="300" viewBox="0 0 300 300" version="1.1">
	<path d="M 210.500 26.452 C 208.850 27.208, 205.700 29.964, 203.500 32.575 C 201.300 35.187, 197.137 38.840, 194.250 40.693 C 189.992 43.425, 189 44.584, 189 46.831 C 189 50.115, 190.623 52, 193.450 52 C 196.900 51.999, 205.358 46.821, 212.481 40.350 C 220.016 33.504, 221.139 30.151, 217.014 26.810 C 214.383 24.680, 214.372 24.679, 210.500 26.452 M 168.250 27.220 C 166.240 28.190, 166.008 29.010, 166.079 34.903 C 166.208 45.763, 171.762 52.971, 180 52.970 C 183.962 52.969, 185.367 52.255, 186.280 49.779 C 187.043 47.710, 184.609 45, 181.988 45 C 179.506 45, 179.272 44.495, 178.019 36.421 C 176.593 27.234, 173.758 24.564, 168.250 27.220 M 144.657 35.055 C 141.610 37.452, 141.053 42.366, 143.468 45.559 C 144.276 46.626, 144.951 48.110, 144.968 48.856 C 144.986 49.602, 146.350 51.917, 148 54 C 149.650 56.083, 151 58.010, 151 58.283 C 151 58.555, 149.313 59.091, 147.250 59.474 C 145.188 59.857, 141.872 61.081, 139.883 62.195 C 135.709 64.531, 132.489 70.089, 134.276 71.876 C 135.676 73.276, 140.014 73.325, 143.553 71.980 C 150.261 69.430, 168.123 67.858, 199.500 67.059 C 217.650 66.596, 232.697 66.403, 232.938 66.630 C 233.659 67.310, 224.829 75.952, 220 79.292 C 214.018 83.430, 213 84.511, 213 86.729 C 213 93.873, 223.601 91.464, 235.405 81.637 C 242.339 75.865, 246.003 70.485, 245.986 66.100 C 245.963 60.058, 245.038 58.373, 240.497 56.105 C 236.168 53.944, 236.053 53.940, 202.328 54.982 C 183.722 55.556, 167.058 56.293, 165.297 56.620 C 162.095 57.213, 162.094 57.211, 163.225 54.214 C 164.157 51.745, 164.073 50.930, 162.750 49.607 C 161.866 48.723, 160.308 48, 159.287 48 C 157.998 48, 156.526 46.107, 154.466 41.800 C 152.835 38.389, 150.558 35.007, 149.407 34.282 C 147.595 33.142, 146.958 33.245, 144.657 35.055 M 74.205 38.253 C 73.594 38.990, 72.197 43.171, 71.102 47.546 C 69.380 54.421, 68.902 62.283, 67.577 105.500 C 66.733 133, 65.770 180.250, 65.435 210.500 C 64.825 265.759, 64.031 283.369, 62.062 285.338 C 60.639 286.761, 60.715 290.315, 62.200 291.800 C 64.296 293.896, 68.696 293.202, 70.874 290.433 C 75.076 285.091, 75.786 276.603, 77.060 216.500 C 77.724 185.150, 78.545 154.132, 78.884 147.571 L 79.500 135.642 82.312 140.821 C 84.832 145.460, 85.472 146, 88.455 146 C 91.966 146, 93 144.737, 93 140.452 C 93 134.573, 85.318 123, 81.416 123 C 79.005 123, 79 122.979, 79 111.750 C 79 105.563, 79.491 87.598, 80.092 71.829 C 80.995 48.124, 80.951 42.669, 79.835 40.341 C 78.312 37.164, 75.862 36.256, 74.205 38.253 M 119.607 64.582 C 117.528 70, 121.827 81.933, 128.790 90.068 C 131.659 93.420, 132.780 94.056, 135.366 93.804 C 140.589 93.295, 140.277 91.895, 129.615 68 C 129.002 66.625, 127.970 64.938, 127.321 64.250 C 125.621 62.447, 120.339 62.674, 119.607 64.582 M 159.465 83.952 C 158.346 84.405, 156.829 85.502, 156.093 86.388 C 155.357 87.275, 153.980 88, 153.033 88 C 150.331 88, 148 91.323, 148 95.174 C 148 97.108, 149.928 103.146, 152.286 108.595 C 156.418 118.142, 156.752 118.587, 161.536 120.898 C 166.411 123.253, 166.689 123.273, 177 122.025 C 190.616 120.377, 192 119.830, 192 116.092 C 192 114.025, 192.595 112.946, 193.976 112.508 C 196.900 111.580, 202.379 105.913, 203.898 102.246 C 205.642 98.036, 204.650 94.450, 200.631 90.431 C 196.822 86.622, 191.999 85.136, 179.526 83.928 C 168.470 82.858, 162.146 82.865, 159.465 83.952 M 159 94.430 C 159 94.804, 159.911 97.110, 161.025 99.555 C 162.139 102, 163.320 105.350, 163.650 107 C 164.246 109.982, 164.290 110, 171.090 110 C 176.760 110, 178.102 109.679, 178.936 108.120 C 179.489 107.086, 181.642 105.551, 183.721 104.709 C 185.799 103.866, 188.569 102.167, 189.876 100.932 L 192.252 98.688 189.876 97.480 C 188.569 96.816, 182.461 95.980, 176.302 95.622 C 170.143 95.264, 163.731 94.696, 162.052 94.360 C 160.373 94.025, 159 94.056, 159 94.430 M 52.656 112.750 C 51.835 114.370, 51.237 118.736, 51.201 123.372 C 51.138 131.642, 49.661 139.663, 47.366 144.200 C 44.486 149.894, 46.577 155, 51.788 155 C 57.247 155, 59.337 150.932, 62.456 134.230 C 64.651 122.473, 64.490 115.893, 61.927 112.635 C 59.040 108.964, 54.548 109.020, 52.656 112.750 M 173.875 127.458 C 173.623 127.711, 168.238 128.596, 161.910 129.425 C 149.862 131.005, 143.947 132.856, 140.355 136.171 C 138.962 137.457, 137.978 137.774, 137.546 137.075 C 136.487 135.361, 133.593 135.826, 131.722 138.011 C 129.635 140.450, 129.568 143.172, 131.398 151.294 C 132.167 154.708, 133.576 161.100, 134.530 165.500 C 137.842 180.778, 138.944 184.486, 140.514 185.634 C 142.683 187.220, 145.815 186.212, 147.711 183.319 C 149.159 181.109, 149.142 179.960, 147.507 169.768 C 146.525 163.643, 145.115 156.352, 144.373 153.566 C 141.884 144.221, 141.426 144.685, 155.250 142.573 C 172.039 140.008, 180.928 139.152, 191.500 139.085 C 202.850 139.012, 204.546 139.490, 206.079 143.190 C 208.001 147.832, 204.949 159.531, 200.441 164.798 C 196.579 169.310, 196.140 171.911, 198.829 174.345 C 201.551 176.809, 203.567 176.386, 207.940 172.435 C 213.267 167.623, 216.679 161.509, 218.556 153.413 C 221.183 142.087, 217.792 133.485, 208.914 128.956 C 205.601 127.266, 202.991 127, 189.707 127 C 181.251 127, 174.127 127.206, 173.875 127.458 M 167.241 143.986 C 166.558 145.079, 166 147.130, 166 148.544 C 166 152.026, 163.937 160, 163.036 160 C 161.960 160, 159.548 156.878, 158.227 153.778 C 156.943 150.762, 152.630 149.113, 150.137 150.685 C 147.439 152.387, 146.722 157.612, 148.634 161.641 C 150.299 165.149, 157.099 171, 159.511 171 C 160.269 171, 160.541 171.950, 160.238 173.535 C 159.941 175.088, 160.408 176.793, 161.442 177.936 C 163.054 179.717, 162.958 179.858, 159.315 181.036 C 153.840 182.807, 147.130 186.889, 145.891 189.203 C 145.036 190.800, 145.271 191.659, 147.089 193.594 C 149.696 196.370, 152.587 196.617, 157.654 194.500 C 159.629 193.675, 161.639 193, 162.122 193 C 163.575 193, 163.204 205.995, 161.750 206.033 C 154.362 206.226, 146.529 208.122, 143.466 210.458 C 134.923 216.974, 143.165 221.910, 157.852 219.072 L 162.204 218.231 161.537 221.366 C 161.171 223.090, 160.625 225.910, 160.324 227.633 C 159.659 231.436, 158.215 231.753, 137.500 232.649 C 122.949 233.279, 120 234.186, 120 238.033 C 120 241.808, 128.039 244.892, 138 244.936 C 143.718 244.962, 164.447 242.781, 174 241.149 C 186.159 239.071, 200.093 236.935, 211 235.478 C 219.220 234.379, 222.857 233.467, 223.750 232.279 C 225.492 229.964, 225.345 229.254, 222.545 226.455 C 220.313 224.222, 219.298 224, 211.339 224 C 203.287 224, 189.584 225.641, 177.674 228.031 C 169.957 229.580, 170.140 229.733, 171.852 223.162 L 173.373 217.323 178.969 216.167 C 182.046 215.532, 187.025 213.771, 190.032 212.256 C 195.030 209.737, 195.527 209.180, 195.808 205.784 C 196.076 202.561, 195.794 201.986, 193.685 201.457 C 192.348 201.122, 188.865 201.556, 185.946 202.424 C 183.026 203.291, 179.091 204, 177.202 204 C 174.128 204, 173.830 203.764, 174.370 201.750 C 174.701 200.512, 174.979 197.158, 174.986 194.295 C 175 189.217, 175.079 189.076, 178.250 188.491 C 180.037 188.161, 184.349 187.770, 187.832 187.623 C 195.463 187.299, 197.841 184.981, 194.718 180.913 C 192.527 178.059, 189.238 177, 182.566 177 C 178.955 177, 176 176.590, 176 176.090 C 176 175.589, 178.813 173.399, 182.250 171.224 C 185.688 169.048, 190.619 164.996, 193.209 162.220 C 200.630 154.266, 200.820 148.801, 193.697 148.192 C 190.421 147.913, 189.483 148.499, 183.298 154.692 L 176.500 161.500 176.196 155.024 C 175.959 149.960, 175.349 147.835, 173.396 145.274 C 170.521 141.506, 168.990 141.185, 167.241 143.986 M 216.933 249.248 C 215.966 251.370, 216.203 252.483, 218.500 256.623 C 225.550 269.328, 232.817 276, 239.604 276 C 247.369 276, 248.042 272.035, 241.250 266.308 C 238.637 264.105, 235.828 260.997, 235.007 259.401 C 232.133 253.814, 225.746 247.993, 221.786 247.352 C 218.510 246.821, 217.937 247.045, 216.933 249.248 M 182.557 253.223 C 180.503 256.154, 180.593 258.282, 182.966 262.933 C 184.210 265.372, 186.770 267.917, 189.939 269.867 C 195.825 273.489, 199.069 274.450, 202.500 273.589 C 206.848 272.498, 205.431 265, 200.877 265 C 199.930 265, 196.982 262.413, 194.327 259.250 C 186.707 250.173, 185.224 249.414, 182.557 253.223 M 108.571 255.571 C 105.656 258.487, 106.643 263.295, 111.515 269.913 C 118.210 279.007, 123.985 281.142, 127.371 275.774 C 128.134 274.564, 127.670 273.299, 125.438 270.509 C 123.822 268.489, 121.562 265.288, 120.416 263.396 C 117.717 258.941, 112.968 254, 111.384 254 C 110.702 254, 109.436 254.707, 108.571 255.571 M 149.458 257.424 C 148.019 259.620, 148.016 260.129, 149.420 262.845 C 153.545 270.821, 169 275.294, 169 268.512 C 169 266.652, 167.734 265.245, 163.750 262.677 C 160.863 260.815, 157.643 258.327, 156.595 257.146 C 154.090 254.324, 151.421 254.428, 149.458 257.424" stroke="none" fill="black" fill-rule="evenodd"/>
</svg>