<svg xmlns="http://www.w3.org/2000/svg" width="300" height="300" viewBox="0 0 300 300" version="1.1">
	<path d="M 174.750 9.893 C 173.218 11.447, 173 13.843, 173 29.143 C 173 48.499, 172.717 49.498, 167 50.289 C 150.459 52.578, 135.061 57.235, 132.386 60.758 C 126.913 67.967, 137.404 71.255, 152.500 67.062 C 156.350 65.993, 162.313 64.466, 165.750 63.670 L 172 62.223 172 78.589 C 172 94.473, 171.934 94.996, 169.750 96.373 C 168.512 97.153, 166.375 98.124, 165 98.531 C 163.625 98.937, 162.275 99.546, 162 99.885 C 161.725 100.223, 158.441 103.144, 154.703 106.376 C 148.095 112.088, 142.193 120.885, 143.523 123.037 C 144.941 125.332, 148.731 123.717, 153.971 118.584 C 157.012 115.605, 162.200 111.591, 165.500 109.664 L 171.500 106.160 172.176 110.330 C 172.548 112.623, 172.885 121.534, 172.926 130.132 L 173 145.764 164.750 148.349 C 158.471 150.317, 142.680 154, 140.520 154 C 140.374 154, 140.031 141.063, 139.758 125.250 C 139.226 94.461, 138.414 88.745, 134.499 88.244 C 130.543 87.738, 129.715 89.426, 128.896 99.657 C 128.463 105.071, 127.847 122.775, 127.527 139 C 127.207 155.225, 126.456 183.569, 125.858 201.986 C 124.852 232.965, 124.630 235.571, 122.885 236.793 C 118.633 239.771, 122.027 246, 127.902 246 C 135.358 246, 137.170 240.776, 138.959 214.121 C 139.490 206.213, 140.124 199.543, 140.368 199.298 C 140.613 199.054, 142.360 199.282, 144.252 199.804 C 146.924 200.542, 149.680 200.237, 156.596 198.439 C 161.493 197.166, 167.188 195.416, 169.250 194.549 C 171.313 193.682, 173.053 193.092, 173.118 193.237 C 173.183 193.381, 173.535 211.725, 173.901 234 C 174.488 269.790, 174.768 274.878, 176.308 277.750 C 177.813 280.556, 178.580 281, 181.919 281 C 184.654 281, 186.002 280.488, 186.524 279.250 C 187.323 277.355, 187.187 192.818, 186.380 189.462 C 185.997 187.869, 186.722 187.029, 189.695 185.623 C 197.825 181.775, 209.953 173.036, 210.569 170.580 C 212.185 164.144, 206.715 161.342, 201.500 165.935 C 198.889 168.234, 188.590 174, 187.093 174 C 186.267 174, 186.013 171.070, 186.215 163.878 L 186.500 153.755 200 148.416 C 207.425 145.480, 214.198 143.060, 215.050 143.039 C 219.390 142.930, 220.393 136.959, 216.500 134.408 C 214.532 133.119, 212.775 132.921, 208.250 133.481 C 205.087 133.873, 202.050 134.518, 201.500 134.916 C 200.950 135.314, 198.475 136.214, 196 136.916 C 193.525 137.618, 190.037 138.817, 188.250 139.580 L 185 140.968 184.993 127.734 C 184.989 120.455, 184.702 111.495, 184.355 107.821 L 183.724 101.142 187.612 100.453 C 189.750 100.073, 193.975 99.135, 197 98.368 C 200.025 97.601, 205.440 96.699, 209.033 96.363 C 215.219 95.786, 215.623 95.879, 216.638 98.127 C 219.096 103.571, 224.457 131.478, 226.026 147 C 226.499 151.675, 227.681 162.250, 228.654 170.500 C 231.090 191.173, 231.225 249.409, 228.850 255.500 C 227.654 258.568, 226.732 259.518, 224.895 259.579 C 220.730 259.716, 220.156 259.958, 219.750 261.750 C 218.838 265.771, 223.866 271, 228.643 271 C 231.667 271, 236.289 266.609, 238.547 261.591 C 241.897 254.142, 243.433 235.202, 242.569 212 C 240.549 157.793, 239.636 147.894, 234.367 123 C 229.264 98.895, 226.566 91.457, 221.174 86.635 C 219.428 85.073, 217.980 84.853, 212.294 85.282 C 208.557 85.565, 201.269 86.741, 196.098 87.898 C 190.927 89.054, 186.090 90, 185.348 90 C 184.280 90, 184 87.019, 184 75.636 L 184 61.273 193.587 60.771 C 201.605 60.352, 203.521 59.924, 205.288 58.156 C 207.031 56.414, 207.232 55.557, 206.433 53.272 C 205.618 50.938, 204.600 50.318, 199.983 49.346 C 196.967 48.712, 192.200 48.149, 189.389 48.096 L 184.279 48 183.644 42.750 C 183.294 39.862, 182.709 31.689, 182.342 24.588 C 181.794 13.971, 181.349 11.349, 179.838 9.838 C 177.607 7.607, 176.998 7.614, 174.750 9.893 M 221.367 16.772 C 217.047 20.272, 215.764 25.621, 218.571 28.429 C 220.619 30.476, 221.540 30.410, 223.727 28.063 C 225.501 26.159, 225.660 26.220, 232.904 31.563 C 240.840 37.417, 244.500 38.315, 247.394 35.118 C 249.875 32.376, 248.623 29.018, 243.177 23.800 C 234.414 15.406, 226.287 12.787, 221.367 16.772 M 79.860 43.750 C 77.747 48.004, 77.503 49.826, 77.531 61.196 L 77.563 73.892 69.031 77.049 C 58.773 80.845, 50.359 83.154, 47.110 83.065 C 42.526 82.939, 40.418 89.296, 43.557 93.777 C 46.296 97.688, 56.055 96.141, 73.988 88.952 C 77.022 87.736, 78.690 87.498, 79.135 88.218 C 79.496 88.803, 80.075 95.181, 80.420 102.391 C 80.764 109.601, 81.558 123.544, 82.183 133.375 L 83.320 151.250 68.398 165.875 C 60.191 173.919, 51.968 182.232, 50.124 184.349 C 48.280 186.465, 45.136 188.873, 43.136 189.698 C 36.567 192.410, 32.676 197.700, 35.101 200.622 C 36.746 202.604, 39.206 202.336, 45.406 199.500 C 48.412 198.125, 51.394 197, 52.032 197 C 54.322 197, 59.706 192.504, 72.250 180.118 L 85 167.529 85.250 190.014 C 85.697 230.204, 85.348 238.650, 83.043 243.410 C 81.014 247.602, 74.916 253.178, 74.281 251.422 C 72.831 247.412, 59.112 227.453, 57.606 227.163 C 54.366 226.539, 51 229.052, 51 232.096 C 51 235.832, 62.325 257.689, 66.403 261.824 C 72.649 268.157, 81.039 266.870, 89.140 258.335 C 93.806 253.419, 95.259 250.326, 97.518 240.500 C 99.233 233.041, 99.275 230.743, 98.140 206.500 C 97.470 192.200, 96.670 175.100, 96.362 168.500 L 95.802 156.500 107.822 143.289 C 114.432 136.022, 120.142 129.127, 120.511 127.966 C 121.601 124.532, 120.221 121.094, 117.477 120.405 C 114.390 119.630, 111.073 121.686, 107.301 126.711 C 105.760 128.763, 102.278 132.705, 99.562 135.471 L 94.623 140.500 92.822 121 C 91.831 110.275, 91.129 96.775, 91.260 91 L 91.500 80.500 94.857 78.824 C 102.117 75.199, 105.058 69.953, 101.492 66.993 C 100.065 65.809, 96.667 65.992, 91.412 67.535 C 89.471 68.105, 89.242 67.561, 88.161 59.824 C 87.521 55.246, 86.998 48.961, 86.999 45.857 C 87 41.633, 86.602 40.061, 85.418 39.607 C 82.700 38.564, 82.282 38.875, 79.860 43.750 M 169.672 160.661 C 169.309 161.025, 163.774 162.341, 157.374 163.586 C 149.203 165.176, 145.012 165.575, 143.303 164.925 C 141.965 164.416, 140.674 164, 140.435 164 C 140.196 164, 140 169.625, 140 176.500 C 140 188.797, 140.037 189, 142.250 188.999 C 146.329 188.997, 158.380 186.240, 165.500 183.680 L 172.500 181.163 172.784 170.581 C 173.010 162.161, 172.788 160, 171.700 160 C 170.949 160, 170.036 160.297, 169.672 160.661" stroke="none" fill="black" fill-rule="evenodd"/>
</svg>