<svg xmlns="http://www.w3.org/2000/svg" width="300" height="300" viewBox="0 0 300 300" version="1.1">
	<path d="M 230.977 12.549 C 215.273 19.153, 163.243 31.377, 145.230 32.695 C 135.668 33.394, 133 34.970, 133 39.918 C 133 42.649, 133.534 43.328, 136.750 44.688 C 144.015 47.762, 165.276 46.614, 188.500 41.895 C 201.194 39.316, 242.770 25.359, 245.750 22.677 C 248.761 19.967, 248.673 15.582, 245.545 12.455 C 242.465 9.374, 238.467 9.400, 230.977 12.549 M 72.430 31.965 C 71.291 32.426, 69.491 34.085, 68.430 35.651 C 66.713 38.185, 66.464 40.716, 66.178 58.559 L 65.857 78.618 51.178 83.237 C 43.105 85.777, 35.525 88.131, 34.332 88.469 C 25.781 90.890, 24.341 100.180, 32.097 102.884 C 35.842 104.190, 36.823 104.002, 53.325 98.833 C 60.378 96.624, 66.303 94.970, 66.490 95.158 C 66.798 95.466, 69.011 131.447, 70.633 162.500 L 71.259 174.500 66.880 177.990 C 64.471 179.910, 60.025 183.798, 57 186.631 C 53.975 189.464, 49.943 193.068, 48.039 194.641 C 46.136 196.213, 40.627 201.374, 35.797 206.108 C 28.565 213.198, 26.397 216.074, 23.508 222.414 C 19.349 231.540, 19.197 233.428, 22.451 235.560 C 24.870 237.145, 29 236.781, 29 234.983 C 29 233.186, 70.549 193.144, 71.404 194.117 C 71.999 194.794, 75.356 252.258, 75.212 259.288 C 75.136 263.021, 74.481 267.296, 73.757 268.788 C 72.570 271.235, 71.930 271.496, 67.201 271.456 C 62.781 271.419, 60.072 270.439, 49.923 265.206 C 43.303 261.793, 37.082 259, 36.098 259 C 33.747 259, 31 262.111, 31 264.773 C 31 268.078, 34.618 271.212, 46.500 278.200 C 59.512 285.852, 62.536 287, 69.681 287 C 79.150 287, 84.865 283.033, 89.129 273.500 C 92.145 266.757, 92.080 258.444, 88.698 219.101 C 87.214 201.832, 86 186.017, 86 183.958 C 86 180.463, 86.647 179.657, 95.708 171.857 C 111.358 158.385, 112 157.667, 112 153.623 C 112 150.925, 111.395 149.649, 109.536 148.432 C 106.319 146.324, 104.026 147.439, 93.254 156.351 C 88.834 160.008, 84.982 163, 84.694 163 C 84.406 163, 83.870 159.738, 83.503 155.750 C 82.527 145.140, 79.299 93.557, 79.587 93.167 C 79.722 92.984, 83.048 92.430, 86.978 91.937 C 101.018 90.174, 106.338 85.766, 102.424 79.140 L 100.661 76.157 89.943 76.722 L 79.224 77.288 78.492 61.678 C 78.090 53.093, 78.077 43.542, 78.462 40.454 C 79.037 35.857, 78.849 34.491, 77.427 32.919 C 75.504 30.794, 75.380 30.771, 72.430 31.965 M 257.500 42.128 C 256.400 42.674, 254.375 44.695, 253 46.620 C 251.625 48.545, 250.016 50.657, 249.425 51.314 C 248.833 51.971, 246.210 56.847, 243.595 62.151 C 240.980 67.455, 237.976 72.721, 236.920 73.855 C 235.864 74.989, 235 76.385, 235 76.958 C 235 77.531, 234.599 78, 234.108 78 C 232.550 78, 231.946 82.788, 233.167 85.467 C 235.515 90.620, 241.541 89.778, 245.734 83.711 C 246.954 81.945, 249.704 78.596, 251.844 76.268 C 255.895 71.863, 258.884 66.462, 263.986 54.332 C 267.555 45.845, 267.579 45.579, 265 43 C 262.831 40.831, 260.629 40.575, 257.500 42.128 M 182.422 53.513 C 178.940 58.078, 179.552 62.443, 184.725 69.934 C 191.317 79.481, 202.895 83.352, 212.351 79.169 C 217.515 76.885, 218.350 74.372, 215.361 70.106 C 213.948 68.088, 213.146 67.845, 209.525 68.342 C 206.497 68.757, 204.654 68.452, 202.913 67.249 C 198.922 64.491, 198.027 63.310, 195.361 57.279 C 192.510 50.831, 191.683 50.037, 187.801 50.015 C 185.879 50.004, 184.330 51.012, 182.422 53.513 M 128.189 64.039 C 123.467 68.438, 125.628 71.545, 142.338 84.382 C 155.578 94.553, 157.479 95.508, 162.575 94.552 C 168.707 93.401, 169.923 85.535, 164.146 84.379 C 162.481 84.046, 159.992 82.128, 158.006 79.648 C 154.779 75.618, 152.634 73.785, 141.742 65.750 C 135.897 61.438, 131.567 60.892, 128.189 64.039 M 225.314 108.389 C 221.471 111.623, 218.796 119.590, 218.088 129.908 L 217.500 138.472 214 139.092 C 212.075 139.433, 206 140.961, 200.500 142.486 C 176.993 149.006, 166.297 150.816, 147 151.541 C 139.025 151.841, 131.664 152.337, 130.643 152.644 C 125.007 154.339, 123.057 160.936, 127.110 164.595 C 129.017 166.318, 130.860 166.494, 146.360 166.440 C 158.348 166.398, 166.205 165.855, 172.500 164.634 C 177.450 163.673, 185.403 162.231, 190.174 161.429 C 194.945 160.627, 203.021 158.640, 208.120 157.014 C 213.220 155.389, 217.486 154.158, 217.600 154.279 C 217.877 154.572, 220.912 192.948, 222.008 210 C 222.485 217.425, 223.614 232.500, 224.518 243.500 C 226.134 263.162, 225.971 270.125, 223.834 272.700 C 223.198 273.466, 220.587 274, 217.478 274 C 213.149 274, 211.306 273.398, 207.220 270.648 C 200.604 266.196, 198.569 265.765, 195.512 268.169 C 190.494 272.116, 193.379 277.787, 204.111 285.075 C 213.280 291.302, 222.471 292.257, 231.166 287.887 C 235.675 285.622, 238.279 282.081, 240.555 275.121 C 242.661 268.684, 242.195 253.592, 238.965 223.500 C 235.605 192.209, 233.030 162.924, 233.015 155.821 L 233 149.142 238.750 147.503 C 247.273 145.074, 250.515 144.267, 261.195 141.914 C 271.730 139.594, 274.671 137.669, 273.611 133.790 C 271.367 125.575, 267.244 125.460, 235.250 132.722 C 233.053 133.221, 233.001 133.037, 233.044 124.867 C 233.068 120.265, 233.712 114.749, 234.474 112.609 C 235.643 109.330, 235.648 108.505, 234.502 107.359 C 232.431 105.288, 228.472 105.732, 225.314 108.389 M 181.500 206.946 C 170.717 207.430, 167.787 207.908, 164.316 209.751 C 157.154 213.555, 154.996 218.883, 159.113 222.595 C 160.965 224.265, 162.641 224.474, 172.685 224.288 C 185.974 224.041, 206.617 220.657, 209.225 218.296 C 211.997 215.788, 211.598 209.622, 208.535 207.615 C 205.928 205.907, 205.122 205.887, 181.500 206.946" stroke="none" fill="black" fill-rule="evenodd"/>
</svg>