<svg xmlns="http://www.w3.org/2000/svg" width="300" height="300" viewBox="0 0 300 300" version="1.1">
	<path d="M 123.300 40.250 C 121.599 42.038, 119.913 44.901, 119.554 46.613 C 118.930 49.589, 118.635 49.753, 112.804 50.363 C 109.450 50.713, 102.588 51, 97.553 51 C 87.610 51, 86 51.708, 86 56.078 C 86 60.893, 87.977 61.500, 103.656 61.500 L 118 61.500 118 65.750 L 118 70 112.750 70.024 C 105.210 70.058, 99.800 71.547, 97.490 74.224 L 95.480 76.553 93.439 74.146 C 90.889 71.138, 88.135 71.808, 85.632 76.045 L 83.832 79.093 89.351 90.143 C 94.221 99.894, 94.735 101.488, 93.724 103.706 C 92.773 105.793, 92.870 106.432, 94.296 107.475 C 96.326 108.959, 104.750 110.273, 106.258 109.341 C 107.791 108.393, 106.448 110.451, 100.075 118.819 C 90.748 131.065, 82.094 143.438, 82.046 144.595 C 82.021 145.197, 82.914 146.517, 84.030 147.527 C 85.618 148.964, 86.635 149.162, 88.699 148.432 C 91.202 147.548, 100.857 136.586, 112.200 121.750 C 115.039 118.038, 117.670 115, 118.047 115 C 118.675 115, 119.441 119.699, 122.040 139.500 C 123.332 149.339, 123.750 150.690, 125.738 151.453 C 126.950 151.918, 128.227 151.275, 129.856 149.381 C 132.075 146.801, 132.187 146.057, 131.711 137.068 C 131.433 131.805, 130.873 126.375, 130.468 125 C 129.810 122.766, 130.199 122.936, 134.116 126.595 C 140.311 132.381, 144.185 134.849, 149.701 136.522 C 158.646 139.236, 165 137.567, 165 132.502 C 165 129.574, 164.170 129.027, 158.757 128.387 C 153.467 127.761, 148.666 124.956, 141.811 118.488 C 138.890 115.732, 134.853 112.614, 132.839 111.559 C 130.262 110.209, 129.004 108.769, 128.589 106.696 C 127.619 101.844, 127.866 101.121, 131.053 99.472 C 135.288 97.282, 145.895 86.480, 147.456 82.766 C 150.323 75.949, 146.119 71.432, 135.509 69.930 C 131.721 69.393, 128.554 68.852, 128.471 68.727 C 128.389 68.602, 128.525 66.553, 128.773 64.172 L 129.225 59.845 135.862 60.376 C 139.513 60.668, 144.019 61.041, 145.876 61.204 C 150.648 61.622, 152.082 59.164, 149.674 54.694 C 147.489 50.637, 143.436 49, 135.572 49 C 130.690 49, 129.881 48.751, 130.397 47.407 C 131.897 43.499, 132.090 41.037, 131.050 39.093 C 129.455 36.113, 126.869 36.499, 123.300 40.250 M 217.141 51.339 L 214.782 52.403 215.392 76.951 C 215.727 90.453, 216.274 110.162, 216.608 120.750 C 217.304 142.785, 218.168 141.156, 207.314 138.264 L 200.800 136.529 198.874 138.908 C 197.180 140.999, 197.115 141.543, 198.337 143.394 C 200.133 146.114, 212.316 150.909, 217.563 150.960 C 220.824 150.992, 222.206 150.393, 224.563 147.926 L 227.500 144.852 227.262 123.720 C 227.132 112.097, 226.346 95.818, 225.516 87.544 C 224.686 79.270, 223.998 68.225, 223.988 63 C 223.978 57.775, 223.639 53.017, 223.235 52.427 C 222.012 50.641, 219.632 50.216, 217.141 51.339 M 176.533 77.534 C 172.482 81.956, 171 86.810, 171 95.654 C 171 100.844, 171.563 103.693, 173.250 107.038 C 175.241 110.987, 175.931 111.536, 179.244 111.810 C 182.396 112.071, 183.164 111.734, 184.098 109.684 C 184.989 107.728, 184.864 106.723, 183.464 104.585 C 182.042 102.415, 181.820 100.499, 182.262 94.211 C 182.561 89.970, 183.485 84.548, 184.316 82.163 C 185.731 78.100, 185.705 77.705, 183.913 75.913 C 181.259 73.259, 180.244 73.482, 176.533 77.534 M 96 78.319 C 96 78.664, 97.575 82.183, 99.500 86.139 C 101.425 90.094, 103 94.381, 103 95.665 C 103 97.229, 103.582 98, 104.764 98 C 106.347 98, 116.912 94.504, 117.487 93.790 C 117.615 93.630, 117.512 90.800, 117.256 87.500 L 116.792 81.500 108.499 81.500 C 101.747 81.500, 99.815 81.146, 98.103 79.595 C 96.946 78.547, 96 77.973, 96 78.319 M 128 84 C 128 85.650, 128.366 87, 128.813 87 C 129.260 87, 130.919 85.650, 132.500 84 L 135.374 81 131.687 81 C 128.257 81, 128 81.209, 128 84 M 184.500 152.258 C 168.961 157.674, 165.164 158.718, 163.898 157.923 C 162.015 156.741, 159.028 157.734, 156 160.549 C 153.062 163.280, 150.855 164.187, 137.500 168.156 C 126.499 171.425, 122.802 173.901, 124.646 176.764 C 125.573 178.205, 127.153 178.471, 133.932 178.330 C 138.424 178.237, 143.428 177.698, 145.050 177.132 L 148 176.104 148 185.433 L 148 194.763 143.557 195.881 C 141.114 196.497, 136.848 197, 134.077 197 C 128.607 197, 121.240 199.457, 119.256 201.942 C 118.573 202.799, 118.123 204.625, 118.256 206 L 118.500 208.500 129.500 208.449 C 135.550 208.421, 142.266 208.196, 144.425 207.949 L 148.350 207.500 149.521 213.841 C 150.364 218.406, 150.385 220.268, 149.596 220.490 C 148.993 220.660, 144.450 221.348, 139.500 222.020 C 134.550 222.691, 127.903 223.876, 124.728 224.653 C 121.554 225.430, 115.361 226.343, 110.966 226.682 C 101.940 227.378, 99.419 228.593, 100.424 231.761 C 101.338 234.639, 109.063 237.445, 115.967 237.406 C 119.010 237.389, 126.675 236.419, 133 235.252 C 139.325 234.084, 146.300 232.988, 148.500 232.815 C 152.118 232.531, 152.529 232.739, 152.807 235 C 152.976 236.375, 153.817 240.875, 154.676 245 C 155.534 249.125, 156.612 254.300, 157.070 256.500 C 157.529 258.700, 158.815 263.875, 159.929 268 C 161.042 272.125, 161.964 276.738, 161.976 278.250 C 161.999 280.938, 161.870 280.999, 156.250 280.964 C 151.055 280.932, 144.930 279.772, 136.500 277.223 C 130.724 275.477, 126.433 279.959, 129.459 284.578 C 131.873 288.262, 149.791 293, 161.308 293 C 167.269 293, 169.242 292.598, 171.328 290.957 C 175.361 287.784, 175.529 283.811, 172.220 269.896 C 170.598 263.078, 168.709 254.800, 168.021 251.500 C 167.333 248.200, 166.408 244.150, 165.966 242.500 C 165.524 240.850, 164.882 237.425, 164.540 234.889 L 163.919 230.278 173.710 228.534 C 179.094 227.574, 185.750 226.219, 188.500 225.523 C 191.250 224.826, 196.875 223.676, 201 222.967 C 210.483 221.338, 214.005 219.644, 213.985 216.724 C 213.957 212.635, 212.536 211.665, 206.841 211.846 C 203.903 211.939, 198.350 212.651, 194.500 213.429 C 190.650 214.206, 183.450 215.384, 178.500 216.047 C 173.550 216.711, 167.840 217.592, 165.811 218.007 C 161.513 218.884, 161.408 218.732, 160.441 210.183 L 159.768 204.232 163.134 203.220 C 166.348 202.253, 169.743 201.426, 180.193 199.062 C 182.774 198.478, 186.417 198, 188.288 198 C 190.314 198, 192.359 197.260, 193.345 196.171 C 197.302 191.799, 193.850 188, 185.921 188 C 180.192 188, 167.294 190.177, 162.720 191.916 L 160 192.950 160.005 182.725 L 160.011 172.500 171.255 168.610 C 177.440 166.470, 182.967 164.357, 183.539 163.913 C 184.110 163.469, 187.693 162.608, 191.500 162 C 195.307 161.392, 199.003 160.413, 199.711 159.825 C 201.573 158.280, 201.294 154.576, 199.171 152.655 C 197.089 150.771, 189.367 150.562, 184.500 152.258" stroke="none" fill="black" fill-rule="evenodd"/>
</svg>