<svg xmlns="http://www.w3.org/2000/svg" width="300" height="300" viewBox="0 0 300 300" version="1.1">
	<path d="M 173.991 11.250 C 169.669 17.773, 170.819 22.392, 179.016 31.437 C 182.485 35.264, 185.013 38.977, 185.032 40.270 C 185.077 43.445, 187.251 45.900, 190.612 46.572 C 195.047 47.459, 198.500 43.309, 198.500 37.091 C 198.500 32.863, 197.870 31.505, 192.750 24.703 C 189.588 20.501, 187 16.723, 187 16.307 C 187 14.758, 179.560 9, 177.559 9 C 176.416 9, 174.810 10.012, 173.991 11.250 M 83.678 38.953 C 77.674 42.797, 76.280 47.854, 75.181 69.793 L 74.500 83.392 65.311 84.946 C 54.470 86.779, 50.923 88.999, 50.780 94.040 C 50.668 97.963, 53.814 101, 57.988 101 C 59.510 101, 63.981 100.271, 67.925 99.381 C 71.868 98.490, 75.338 98.005, 75.636 98.303 C 75.934 98.601, 76.418 115.642, 76.712 136.172 L 77.248 173.500 66.374 183.608 C 52.565 196.443, 50.247 198.408, 40.500 205.542 C 36.100 208.762, 31.928 212.095, 31.230 212.949 C 26.430 218.811, 26.116 224.184, 30.458 226.163 C 32.529 227.106, 34.075 226.604, 41.680 222.521 C 52.500 216.710, 58.081 212.590, 68.832 202.476 L 77.156 194.645 76.600 201.573 C 76.295 205.383, 75.783 212.775, 75.463 218 C 74.354 236.108, 70.249 258.930, 67.012 264.978 C 65.886 267.082, 65.810 267.061, 61.882 263.512 C 59.689 261.531, 56.779 259.486, 55.415 258.968 C 50.776 257.204, 46.837 261.926, 49.205 266.412 C 51.135 270.070, 58.984 279.875, 61.255 281.466 C 66.431 285.091, 74.969 282.137, 79.729 275.074 C 86.363 265.229, 90.970 232.396, 90.991 194.807 L 91 179.114 96.358 172.807 C 99.304 169.338, 103.135 164.984, 104.870 163.130 C 110.905 156.687, 125.011 134.651, 125.005 131.679 C 124.997 127.054, 120.549 124.101, 116.698 126.162 C 113.837 127.693, 112.863 128.771, 110.174 133.383 C 108.929 135.519, 104.218 141.730, 99.705 147.186 L 91.500 157.106 90.874 147.803 C 90.530 142.686, 89.913 128.340, 89.502 115.922 L 88.756 93.344 92.004 91.999 C 97.242 89.829, 106.984 82.171, 108.040 79.394 C 109.339 75.978, 106.539 71, 103.319 71 C 102.081 71, 98.056 72.656, 94.373 74.680 L 87.677 78.361 88.349 66.930 C 88.718 60.644, 89.535 52.068, 90.164 47.873 C 90.793 43.678, 91.028 39.516, 90.686 38.623 C 89.887 36.542, 87.251 36.666, 83.678 38.953 M 215 48.921 C 208.675 50.445, 198.186 53.336, 191.692 55.346 C 185.197 57.356, 178.981 59, 177.878 59 C 175.788 59, 151.836 65.849, 144 68.687 C 141.525 69.583, 139.211 70.756, 138.857 71.293 C 138.504 71.831, 137.651 71.197, 136.962 69.885 C 136.272 68.573, 135.099 67.140, 134.354 66.700 C 133.609 66.260, 133 65.476, 133 64.958 C 133 63.291, 128.693 59, 127.020 59 C 120.756 59, 121.789 68.597, 129.963 86.361 C 131.700 90.134, 133.380 95.534, 133.698 98.361 C 134.015 101.187, 134.718 104.063, 135.260 104.750 C 136.334 106.113, 140.840 106.410, 142.600 105.235 C 146.192 102.836, 147.060 93.523, 144.582 83.969 C 143.802 80.963, 143.240 78.439, 143.332 78.361 C 143.424 78.283, 146.399 78.664, 149.943 79.208 C 158.044 80.451, 167.091 78.780, 189.269 71.944 C 197.942 69.271, 206.717 66.787, 208.769 66.425 C 210.821 66.062, 216.100 64.922, 220.500 63.890 C 228.855 61.931, 235.659 61.496, 237.697 62.792 C 239.059 63.658, 235.649 71.695, 227.748 86.240 C 222.598 95.722, 221.905 99.344, 224.934 100.965 C 228.846 103.058, 231.728 102.168, 235.345 97.750 C 241.074 90.751, 252.612 71.457, 253.970 66.606 C 255.252 62.030, 254.677 55, 253.022 55 C 252.534 55, 251.849 54.100, 251.500 53 C 251.151 51.900, 250.368 51, 249.761 51 C 249.154 51, 247.947 50.388, 247.079 49.641 C 244.889 47.756, 237.058 45.985, 231.307 46.075 C 228.663 46.116, 221.325 47.396, 215 48.921 M 204.984 89.027 C 195.619 94.473, 177.904 102.248, 166.354 105.980 C 159.285 108.264, 150.880 111.679, 147.678 113.567 C 144.476 115.455, 141.632 117, 141.357 117 C 141.082 117, 140.233 117.563, 139.470 118.250 C 138.707 118.938, 136.007 121.075, 133.470 123 C 126.038 128.640, 124.437 133.919, 129.249 136.923 C 131.154 138.113, 132.670 137.572, 144.207 131.582 C 155.059 125.949, 173.556 118.004, 175.836 117.998 C 176.633 117.996, 176.358 125.967, 174.956 143.500 C 173.590 160.583, 173.339 161.686, 170.694 162.283 C 158.355 165.068, 146.959 167, 142.869 167 C 132.882 167, 124 171.183, 124 175.885 C 124 182.051, 141.205 184.775, 159.140 181.450 C 163.738 180.597, 168.345 179.649, 169.379 179.342 C 171.118 178.825, 171.204 179.208, 170.543 184.499 C 170.151 187.643, 169.841 198.604, 169.856 208.857 C 169.904 242.597, 174.888 256.560, 191.155 268.535 C 202.544 276.920, 216.375 278.882, 239.872 275.446 C 261.300 272.313, 274.569 268.344, 278.635 263.851 C 281.623 260.549, 280.882 254.917, 276.881 250.516 C 270.933 243.973, 266.071 242.459, 262.867 246.153 C 260.758 248.585, 260.546 250.283, 262.009 253.016 C 262.884 254.652, 262.521 255.040, 259.259 255.951 C 254.015 257.416, 246.062 258.753, 235.387 259.965 C 209.279 262.929, 196.528 258.929, 190.052 245.743 C 188.366 242.309, 186.272 235.900, 185.398 231.500 C 183.592 222.400, 183.064 199.508, 184.327 185 L 185.154 175.500 198.827 170.686 C 222.182 162.464, 229.002 159.750, 233.521 156.884 C 238.501 153.727, 241.432 148.984, 240.435 145.700 C 239.529 142.718, 235.022 139.080, 232.179 139.036 C 229.770 138.999, 227 141.074, 227 142.915 C 227 143.497, 225.426 144.631, 223.501 145.435 C 218.313 147.603, 187.727 158.068, 187.471 157.763 C 187.350 157.618, 187.622 153, 188.077 147.500 C 189.524 129.985, 189.245 119.934, 187.250 117.683 C 185.866 116.121, 185.783 115.609, 186.852 115.237 C 190.413 113.995, 214.712 101.598, 216.250 100.238 C 218.861 97.928, 218.552 91.867, 215.686 89.174 C 212.796 86.460, 209.477 86.414, 204.984 89.027" stroke="none" fill="black" fill-rule="evenodd"/>
</svg>