<svg xmlns="http://www.w3.org/2000/svg" width="300" height="300" viewBox="0 0 300 300" version="1.1">
	<path d="M 161.039 10.189 C 159.471 11.872, 159 13.722, 159 18.202 C 159 21.406, 158.573 24.809, 158.050 25.764 C 156.053 29.413, 143.140 58.661, 142.096 61.899 C 139.399 70.263, 142.110 77.891, 148.772 80.683 C 150.822 81.542, 155.762 82.683, 159.749 83.218 C 165.884 84.041, 168.726 83.850, 178.249 81.971 C 184.437 80.750, 190.287 79.342, 191.250 78.841 C 193.775 77.526, 193.490 78.542, 188.703 87.943 C 185.350 94.527, 183.821 96.538, 181.742 97.094 C 180.276 97.486, 167.697 98.108, 153.789 98.476 C 139.880 98.845, 125.800 99.577, 122.500 100.104 C 115.144 101.278, 98.067 106.790, 96.296 108.562 C 94.588 110.269, 94.631 115.644, 96.357 116.307 C 97.103 116.593, 102.615 115.954, 108.607 114.887 C 119.762 112.899, 145.736 111.069, 163.408 111.025 L 173.316 111 161.356 122.750 C 154.777 129.213, 147.409 135.850, 144.981 137.500 C 142.554 139.150, 139.861 141.191, 138.998 142.036 C 138.135 142.880, 135.645 144.905, 133.464 146.536 C 131.284 148.166, 128.150 150.735, 126.500 152.245 C 124.850 153.755, 123.156 154.993, 122.735 154.995 C 122.314 154.998, 119.952 156.962, 117.485 159.359 C 112.223 164.473, 111.590 168.030, 115.488 170.584 C 117.828 172.117, 118.230 172.083, 122.238 170.015 C 124.582 168.805, 127.400 167.024, 128.500 166.057 C 129.600 165.091, 132.618 162.875, 135.206 161.132 C 137.794 159.390, 144.208 154.373, 149.460 149.982 C 154.712 145.592, 159.403 142, 159.886 142 C 161.081 142, 164.954 147.314, 168.816 154.250 L 172.017 160 168.724 160 C 166.061 160, 164.465 161.003, 160.375 165.250 C 157.594 168.137, 154.057 172.525, 152.515 175 C 150.266 178.612, 139.091 189.602, 134.392 192.824 C 132.063 194.422, 124 206.016, 124 207.769 C 124 210.081, 126.997 213, 129.372 213 C 130.314 213, 133.204 211.071, 135.793 208.714 C 138.382 206.357, 143.704 201.854, 147.619 198.707 C 156.511 191.563, 163.214 184.449, 165.820 179.392 C 166.922 177.251, 169.459 173.930, 171.456 172.012 C 175.832 167.808, 175.768 167.742, 180.085 181 C 186.246 199.920, 188.084 211.521, 188.244 232.500 C 188.367 248.673, 188.126 252.095, 186.627 255.500 L 184.866 259.500 182.356 254.250 C 179.651 248.591, 176.762 247.381, 173.571 250.571 C 170.628 253.515, 172.695 265.800, 177.070 271.362 C 178.840 273.612, 179.915 274, 184.376 274 C 188.978 274, 189.991 273.604, 192.795 270.711 C 194.549 268.902, 197.112 264.542, 198.492 261.021 C 200.822 255.075, 201 253.410, 200.997 237.560 C 200.995 224.619, 200.512 218.017, 198.997 210.215 C 197.899 204.558, 197 199.495, 197 198.965 C 197 196.881, 199.391 198.230, 204.824 203.379 C 209.577 207.882, 213.677 210.940, 223.385 217.222 C 247.814 233.028, 273.081 241.108, 281.280 235.736 C 285.447 233.006, 287.468 229.364, 286.286 226.716 C 285.380 224.683, 284.562 224.490, 276.399 224.376 C 269.342 224.278, 266.051 223.695, 260.500 221.559 C 249.531 217.340, 234.127 208.832, 221.799 200.185 C 215.585 195.826, 209.240 191.962, 207.700 191.598 L 204.901 190.937 210.700 186.089 C 217.426 180.467, 226.198 170.720, 234.301 159.868 C 238.681 154.002, 240 151.429, 240 148.753 C 240 142.679, 234.481 138.105, 230.362 140.765 C 229.737 141.169, 228.501 143.075, 227.617 145 C 226.732 146.925, 224.544 150.347, 222.754 152.605 C 220.964 154.863, 217.475 159.585, 215 163.099 C 210.664 169.254, 195.655 185, 194.124 185 C 193.714 185, 192.802 182.751, 192.097 180.002 C 191.393 177.254, 190.408 174.752, 189.908 174.443 C 189.409 174.135, 189 173.190, 189 172.344 C 189 169.866, 177.090 146.150, 172.419 139.328 L 168.135 133.071 180.008 121.696 L 191.881 110.321 212.691 109.680 C 234.833 108.998, 238.950 108.335, 242.660 104.850 C 245.488 102.193, 245.618 99.985, 243.128 96.910 C 241.347 94.710, 241.001 94.656, 236.052 95.799 C 229.547 97.300, 197 97.448, 197 95.976 C 197 95.413, 198.463 92.823, 200.250 90.222 C 205.370 82.770, 213.367 62.216, 214.808 52.805 C 216.399 42.414, 212.237 35.758, 203.311 34.419 C 200.712 34.030, 193.166 34.231, 186.543 34.867 C 179.919 35.503, 172.878 36.018, 170.896 36.011 L 167.291 36 170.044 27.750 C 173.203 18.285, 173.019 14.292, 169.254 10.527 C 166.150 7.423, 163.709 7.322, 161.039 10.189 M 75.750 38.080 C 71.402 40.613, 70.555 44.581, 70.176 64.212 C 69.758 85.801, 70.978 83.770, 57.748 84.907 C 49.227 85.640, 47 87.030, 47 91.620 C 47 96.280, 49.415 97.202, 60.659 96.836 L 71.002 96.500 71.001 129.893 L 71 163.286 66.836 166.893 C 62.104 170.992, 53.039 179.006, 47.940 183.597 C 43.990 187.154, 37.916 193.712, 33.232 199.478 C 29.638 203.901, 28.794 209.600, 31.574 210.667 C 35.620 212.219, 41.508 208.615, 53 197.553 C 59.325 191.464, 65.890 185.234, 67.589 183.708 L 70.678 180.934 70.206 214.217 C 69.946 232.523, 69.448 248.283, 69.099 249.240 C 68.559 250.717, 67.713 250.304, 63.482 246.499 C 57.159 240.812, 55.405 240.227, 52.999 243.001 C 50.714 245.636, 51.448 248.173, 56.251 254.242 C 64.070 264.121, 66.458 266.002, 71.132 265.968 C 76.996 265.925, 78.808 264.291, 81.079 256.993 C 82.699 251.790, 83 247.737, 83.002 231.161 C 83.004 220.347, 83.300 201.731, 83.660 189.790 L 84.316 168.080 89.153 162.102 C 94.886 155.018, 99 147.610, 99 144.374 C 99 143.011, 97.991 141.385, 96.567 140.452 C 93.463 138.418, 91.324 139.483, 87.541 144.940 C 85.994 147.173, 84.339 149, 83.864 149 C 83.103 149, 82.598 131.589, 82.524 102.773 L 82.500 93.546 88.219 92.277 C 98.368 90.026, 103.921 85.116, 101.738 80.324 C 100.641 77.917, 97.698 76.451, 96.030 77.481 C 95.487 77.817, 91.883 78.694, 88.021 79.430 L 81 80.768 80.993 68.134 C 80.990 61.185, 81.514 52.036, 82.159 47.801 C 83.097 41.634, 83.074 39.794, 82.043 38.551 C 80.569 36.776, 78.283 36.605, 75.750 38.080 M 174.326 48.293 L 161.151 49.260 157.985 56.342 C 156.243 60.237, 154.747 64.547, 154.659 65.920 C 154.521 68.080, 155.038 68.517, 158.500 69.170 C 165.522 70.495, 188.986 67.070, 192.217 64.249 C 193.162 63.424, 194.816 62.980, 195.893 63.262 C 197.993 63.811, 198.934 62.178, 200.942 54.500 C 202.899 47.019, 202.867 46.981, 194.750 47.163 C 190.762 47.252, 181.572 47.760, 174.326 48.293 M 173.495 195.375 C 172.948 195.994, 171.869 197.724, 171.097 199.220 C 170.325 200.716, 167.995 203.117, 165.918 204.557 C 163.841 205.996, 156.119 213.322, 148.758 220.837 C 129.100 240.904, 129.274 240.757, 127.682 238.580 C 126.959 237.591, 125.514 236.947, 124.471 237.148 C 121.833 237.656, 115.004 246.961, 115.038 250 C 115.076 253.371, 118.187 256.887, 121.764 257.603 C 127.611 258.772, 134.218 254.021, 153.031 235.116 C 175.077 212.964, 180 206.537, 180 199.911 C 180 196.162, 175.546 193.056, 173.495 195.375" stroke="none" fill="black" fill-rule="evenodd"/>
</svg>