<svg xmlns="http://www.w3.org/2000/svg" width="300" height="300" viewBox="0 0 300 300" version="1.1">
	<path d="M 217 22.188 C 211.844 24.358, 210.351 24.850, 204.500 26.307 C 195.777 28.479, 172.303 30.397, 163.115 29.688 L 155.191 29.077 153.596 32.440 C 151.820 36.181, 151.548 44.395, 152.997 50.500 C 154.634 57.393, 157.020 94.568, 157.265 116.973 L 157.500 138.447 147 140.110 C 141.225 141.025, 133.735 142.499, 130.356 143.387 C 126.976 144.274, 123.319 145, 122.228 145 C 116.531 145, 116.944 152.243, 122.781 154.682 C 127.655 156.718, 133.827 156.230, 174.500 150.588 C 184.950 149.139, 197.100 147.465, 201.500 146.869 C 215.860 144.923, 236.315 139.999, 240.704 137.430 C 248.385 132.935, 250.128 127.401, 245.364 122.636 C 241.673 118.946, 237.575 119.079, 235.864 122.945 C 234.743 125.477, 233.503 126.180, 227.030 127.955 C 222.889 129.091, 215.225 130.685, 210 131.496 C 170.264 137.665, 169.898 137.709, 170.455 136.256 C 170.755 135.475, 171 128.676, 171 121.147 L 171 107.457 182.250 104.765 C 188.438 103.284, 197.775 101.082, 203 99.872 C 213.858 97.355, 218.114 95.772, 219.941 93.571 C 221.816 91.312, 220.445 87.150, 217.590 86.433 C 213.731 85.465, 191.158 87.831, 182.500 90.112 C 168.886 93.698, 170.001 93.765, 169.991 89.367 C 169.987 87.240, 169.712 83.250, 169.382 80.500 L 168.781 75.500 174.640 75.398 C 182.216 75.266, 206.773 69.987, 214.497 66.830 C 221.620 63.919, 223.353 60.994, 220.519 56.669 C 218.401 53.437, 216.655 53.352, 205.124 55.922 C 200.381 56.979, 192 58.578, 186.500 59.475 C 181 60.372, 174.740 61.984, 172.589 63.058 C 170.437 64.132, 168.412 64.748, 168.089 64.426 C 167.765 64.104, 167.275 59.376, 167 53.919 L 166.500 43.996 175.500 43.998 C 184.747 44, 194.049 42.562, 208.249 38.936 C 224.112 34.886, 229.673 29.863, 225.965 22.934 C 224.816 20.788, 221.067 20.476, 217 22.188 M 82.039 29.189 C 79.676 31.725, 79.799 30.261, 79.992 53.683 L 80.142 71.867 76.321 72.928 C 74.220 73.511, 71.600 73.985, 70.500 73.981 C 67.164 73.968, 51.587 78.323, 50.237 79.646 C 49.542 80.327, 48.711 82.194, 48.391 83.794 C 47.919 86.154, 48.325 87.111, 50.539 88.852 C 54.538 91.998, 60.210 91.693, 75.186 87.528 C 78.994 86.469, 79.965 86.465, 80.365 87.508 C 80.635 88.213, 81.176 106.500, 81.567 128.145 L 82.277 167.500 74.888 174.382 C 62.088 186.305, 60.673 187.523, 53 193.214 C 40.449 202.523, 35 209.624, 35 216.671 C 35 219.781, 35.469 221.243, 36.606 221.679 C 39.438 222.766, 46.218 218.490, 57.500 208.503 C 79.267 189.233, 81.868 187, 82.554 187 C 83.691 187, 82.283 245.938, 80.976 253.046 C 79.588 260.593, 77.873 263.592, 75.661 262.341 C 74.844 261.878, 72.442 259.892, 70.323 257.927 C 62.722 250.878, 59.902 250.016, 56.250 253.623 C 53.318 256.518, 54.810 260.551, 61.479 267.754 C 70.887 277.916, 77.639 280.347, 84.626 276.086 C 88.015 274.020, 93.356 265.096, 95.128 258.538 C 95.845 255.887, 96.170 240.502, 96.075 213.732 L 95.931 172.964 104.216 162.864 C 114.545 150.272, 119.954 142.169, 119.980 139.250 C 120.005 136.487, 116.692 133, 114.043 133 C 112.966 133, 110.964 134.463, 109.593 136.250 C 108.222 138.037, 104.924 142.393, 102.264 145.929 C 99.604 149.465, 96.968 152.511, 96.406 152.698 C 95.741 152.920, 94.936 141.285, 94.098 119.356 C 93.391 100.831, 92.612 85.153, 92.368 84.517 C 91.923 83.357, 99.953 81, 104.354 81 C 108.017 81, 111.155 78.160, 110.807 75.161 C 110.382 71.499, 105.995 69.551, 98.290 69.603 C 90.685 69.654, 91.139 71.003, 90.567 46.605 C 90.134 28.100, 89.878 27.052, 85.789 27.015 C 84.848 27.007, 83.160 27.985, 82.039 29.189 M 217.516 154.722 C 215.324 156.154, 213.065 157.815, 212.495 158.413 C 210.442 160.567, 204.160 169.636, 200.075 176.344 C 195.204 184.342, 189.328 191, 187.141 191 C 186.295 191, 181.663 186.954, 176.848 182.008 C 172.032 177.062, 166.272 172.067, 164.046 170.907 C 160.994 169.316, 160 168.197, 160 166.349 C 160 162.627, 157.229 158, 155 158 C 152.507 158, 150.652 161.614, 148.054 171.534 C 146.409 177.816, 146.007 182.374, 146.035 194.438 C 146.091 218.677, 149.212 230.534, 156.898 235.711 C 164.208 240.635, 170.614 238.269, 183.468 225.897 L 193.500 216.242 199 221.204 C 206.246 227.740, 223.102 240.416, 228.897 243.685 C 231.429 245.113, 235.075 247.271, 237 248.480 C 244.136 252.962, 256.978 258.038, 265.063 259.572 C 271.977 260.883, 274.469 260.949, 279.709 259.960 C 288 258.396, 291 256.037, 291 251.082 C 291 248.698, 290.327 246.701, 289.171 245.655 C 286.782 243.493, 286.096 243.561, 283.231 246.250 C 279.696 249.568, 271.470 249.291, 261.895 245.531 C 257.828 243.934, 253.825 242.072, 253 241.393 C 252.175 240.714, 249.063 238.936, 246.084 237.443 C 237.395 233.087, 216.251 217.666, 206.617 208.657 L 197.733 200.351 202.518 195.428 C 208.888 188.874, 214.182 181.600, 218.199 173.881 C 220.015 170.393, 223.637 165.347, 226.250 162.668 C 228.863 159.989, 231 157.033, 231 156.099 C 231 151.368, 223.775 150.631, 217.516 154.722 M 160.341 198.130 C 161.093 218.877, 162.193 224.365, 165.413 223.416 C 170.299 221.974, 185.486 209.596, 184.442 207.906 C 184.134 207.408, 182.389 207, 180.563 207 C 176.421 207, 174.857 205.191, 175.157 200.745 C 175.353 197.826, 174.335 195.936, 168.640 188.643 C 164.929 183.889, 161.395 180, 160.788 180 C 160 180, 159.872 185.179, 160.341 198.130" stroke="none" fill="black" fill-rule="evenodd"/>
</svg>