<svg xmlns="http://www.w3.org/2000/svg" width="300" height="300" viewBox="0 0 300 300" version="1.1">
	<path d="M 116.763 28.250 C 115.873 28.938, 114.628 31.472, 113.998 33.882 C 111.398 43.824, 99.442 61, 95.123 61 C 92.284 61, 83.819 64.817, 81.763 67.024 C 79.326 69.640, 79.556 71.479, 82.567 73.452 C 84.534 74.741, 84.876 75.444, 84.032 76.461 C 83.427 77.191, 82.669 80.001, 82.349 82.705 C 81.894 86.546, 82.227 88.525, 83.874 91.753 C 86.555 97.008, 90.426 99.931, 101.567 105.113 C 106.480 107.399, 110.679 109.425, 110.898 109.616 C 111.696 110.312, 104.351 118.804, 98.608 123.825 C 90.985 130.490, 84.495 134.272, 79.513 134.954 C 76.381 135.383, 75.231 136.114, 74.154 138.363 C 72.907 140.965, 72.977 141.422, 74.921 143.363 C 76.631 145.072, 78.207 145.484, 82.780 145.423 C 93.164 145.282, 108.175 135.895, 118.787 122.905 C 122.741 118.066, 124.920 116.154, 125.980 116.595 C 130.669 118.547, 138.788 120.075, 141.635 119.541 C 151.167 117.752, 151.523 102.595, 142 103.981 C 141.175 104.102, 140.204 104.677, 139.842 105.260 C 138.906 106.768, 133 104.175, 133 102.256 C 133 101.430, 134.336 98.222, 135.970 95.127 C 139.138 89.124, 142.831 80.257, 146.226 70.500 C 147.375 67.200, 148.806 64.177, 149.407 63.782 C 150.008 63.388, 152.719 62.587, 155.432 62.004 C 158.144 61.420, 160.957 60.451, 161.682 59.849 C 163.659 58.208, 163.303 52.584, 161.096 50.587 C 159.441 49.089, 158.438 49.003, 153.437 49.927 C 148.155 50.903, 147.567 50.827, 146.284 48.995 C 145.516 47.898, 144.258 47, 143.490 47 C 140.986 47, 137.180 49.206, 136.732 50.916 C 136.253 52.749, 128.315 55, 122.328 55 L 118.809 55 121.948 49.438 C 126.235 41.842, 127.265 32.265, 124.132 29.132 C 121.721 26.721, 119.143 26.412, 116.763 28.250 M 208.500 58.699 C 201.594 59.326, 188.562 62.159, 187.087 63.355 C 186.016 64.223, 185.573 64.198, 185.254 63.250 C 184.698 61.599, 182.540 61.670, 179.095 63.451 C 177.306 64.376, 175.428 66.824, 173.915 70.201 C 171.889 74.726, 171.539 77.108, 171.521 86.500 C 171.504 95.529, 171.858 98.217, 173.500 101.500 C 175.244 104.989, 175.988 105.540, 179.320 105.815 C 185.609 106.332, 186.074 105.329, 185.433 92.630 C 185.124 86.508, 185.238 81.050, 185.686 80.500 C 187.108 78.756, 193.325 75.788, 198.500 74.382 C 202.562 73.279, 222.029 72.341, 221.989 73.250 C 221.854 76.379, 218.086 84.314, 214.967 88.040 C 212.641 90.818, 210.649 94.389, 210.330 96.352 L 209.772 99.793 201.136 101.469 C 181.874 105.207, 175.214 110.094, 181.427 115.931 C 183.637 118.007, 184.598 118.176, 192.177 117.818 C 199.084 117.492, 201.937 116.792, 208.946 113.704 C 218.001 109.714, 218.961 108.880, 218.985 104.977 C 218.995 103.308, 220.889 100.434, 224.587 96.477 C 231.208 89.393, 234.436 84.184, 236.120 77.860 C 237.187 73.854, 237.115 72.591, 235.595 68.610 C 234.627 66.075, 233.507 64, 233.106 64 C 232.705 64, 231.469 63.154, 230.358 62.119 C 229.248 61.085, 225.991 59.735, 223.121 59.119 C 217.988 58.019, 216.479 57.975, 208.500 58.699 M 127 68.449 C 119.836 70.535, 108.684 73.005, 106.446 73.003 C 104.254 73, 99.061 77.907, 96.978 81.950 C 95.826 84.186, 95.992 84.630, 98.885 87.045 C 102.268 89.870, 103.426 90.478, 112 93.932 C 115.025 95.151, 118.065 96.389, 118.755 96.683 C 119.527 97.012, 120.596 95.731, 121.530 93.359 C 122.365 91.237, 123.481 88.825, 124.009 88 C 126.659 83.864, 133.276 66.964, 132.205 67.070 C 131.817 67.108, 129.475 67.729, 127 68.449 M 192.500 133.865 C 190.300 134.867, 184.166 137.782, 178.870 140.343 C 173.573 142.904, 168.770 145, 168.195 145 C 167.621 145, 163.692 146.385, 159.465 148.078 C 151.043 151.450, 148.396 152.013, 127 154.988 C 119.025 156.097, 111.321 157.483, 109.880 158.069 C 104.657 160.194, 104.363 167.047, 109.412 168.967 C 111.757 169.858, 128.192 168.993, 138.621 167.430 L 143 166.773 143 175.147 L 143 183.521 131.750 186.855 C 125.563 188.689, 119.239 190.860, 117.698 191.681 C 116.157 192.502, 114.227 192.917, 113.409 192.603 C 111.234 191.769, 108 194.150, 108 196.586 C 108 203.071, 118.591 204.644, 134.913 200.584 C 140.640 199.159, 145.426 198.107, 145.549 198.246 C 145.671 198.386, 146.071 200.314, 146.437 202.531 L 147.102 206.561 135.301 209.356 C 128.810 210.892, 121.250 212.771, 118.500 213.529 C 112.264 215.249, 98.352 217.767, 90.749 218.551 C 82.323 219.420, 79.757 223.024, 83.922 228.139 C 85.761 230.397, 86.349 230.491, 97.400 230.301 C 106.733 230.141, 111.795 229.419, 123.727 226.547 C 137.336 223.271, 143.856 221.630, 148.169 220.395 C 149.895 219.900, 150.117 220.630, 152.915 236 C 153.465 239.025, 155.060 247.035, 156.458 253.801 C 159.259 267.353, 159.618 272.982, 157.800 274.800 C 154.265 278.335, 132.585 274.102, 115.759 266.592 C 110.100 264.066, 104.490 262, 103.292 262 C 101.131 262, 98 265.340, 98 267.646 C 98 272.011, 109.390 279.172, 128 286.506 C 137.086 290.086, 138.048 290.255, 150.077 290.375 C 162.190 290.495, 162.781 290.403, 166.080 287.887 C 172.469 283.015, 174.309 273.606, 171.590 259.708 C 170.815 255.744, 169.896 250.475, 169.549 248 C 169.202 245.525, 167.570 237.746, 165.922 230.714 C 164.274 223.682, 163.178 217.521, 163.486 217.022 C 163.795 216.523, 166.174 215.827, 168.773 215.474 C 171.373 215.121, 180.250 213.463, 188.500 211.790 C 197.138 210.037, 210.389 208.233, 219.743 207.535 C 232.888 206.554, 236.369 205.976, 237.993 204.506 C 240.841 201.929, 240.542 198.402, 237.295 196.273 C 231.459 192.447, 203.624 194.367, 176 200.500 C 168.025 202.271, 161.200 203.445, 160.832 203.110 C 160.465 202.774, 159.851 200.363, 159.469 197.750 C 158.884 193.755, 159.030 193, 160.390 193 C 161.279 193, 168.529 191.200, 176.500 189 C 184.471 186.800, 192.053 185, 193.349 185 C 197.012 185, 202.452 180.850, 202.810 177.780 C 203.040 175.817, 202.435 174.676, 200.488 173.400 C 197.995 171.767, 197.265 171.768, 186.678 173.421 C 180.530 174.381, 172.125 176.066, 168 177.166 C 156.100 180.339, 156.638 180.529, 155.597 172.787 C 154.552 165.019, 155.258 163.544, 160.419 162.707 C 164.611 162.027, 185.599 153.721, 192.891 149.857 C 195.856 148.286, 199.231 146.986, 200.391 146.968 C 202.946 146.930, 205.274 145.249, 206.837 142.316 C 208.574 139.054, 208.265 137.174, 205.545 134.455 C 202.568 131.477, 198.180 131.279, 192.500 133.865" stroke="none" fill="black" fill-rule="evenodd"/>
</svg>