<svg xmlns="http://www.w3.org/2000/svg" width="300" height="300" viewBox="0 0 300 300" version="1.1">
	<path d="M 241.186 8.925 C 237.701 9.795, 235.353 14.259, 236.567 17.710 C 237.416 20.125, 238.098 20.512, 241.650 20.592 C 243.964 20.644, 247.274 21.624, 249.244 22.842 C 253.548 25.502, 255.194 25.548, 257.435 23.072 C 259.678 20.594, 258.752 17.516, 254.733 14.085 C 249.420 9.550, 245.170 7.930, 241.186 8.925 M 194.355 12.205 C 191.461 15.400, 189.943 22.489, 190.972 28 C 191.434 30.475, 191.967 34.944, 192.156 37.932 L 192.500 43.364 179.500 45.102 C 166.422 46.850, 140.189 49.638, 130.040 50.359 C 125.892 50.654, 124.248 51.246, 123.200 52.826 C 122.043 54.568, 121.510 54.711, 119.906 53.709 C 118.479 52.818, 117.549 52.800, 116.247 53.638 C 114.767 54.589, 114.526 56.193, 114.668 64.130 C 114.760 69.284, 115.538 78.225, 116.397 84 C 122.155 122.730, 120.498 158.172, 110.342 213.500 C 109.248 219.461, 104.116 236.874, 102.576 239.853 C 101.709 241.529, 101 243.364, 101 243.931 C 101 245.552, 94.048 256, 92.969 256 C 92.436 256, 92 257.340, 92 258.977 C 92 263.207, 95.886 265.704, 99.888 264.046 C 104.246 262.241, 107.465 258.325, 111.924 249.404 C 121.010 231.224, 128.085 199.738, 130.215 168 C 132.493 134.063, 131.168 86.574, 127.522 71.500 C 125.052 61.287, 124.197 62, 138.920 62 C 146.228 62, 157.847 61.163, 165.670 60.072 C 173.276 59.012, 183.184 57.879, 187.686 57.554 L 195.872 56.964 196.486 61.732 C 197.588 70.280, 201.100 90.287, 203.205 100 C 204.337 105.225, 205.579 111.525, 205.966 114 C 206.353 116.475, 207.658 122.325, 208.867 127 C 210.075 131.675, 211.993 139.100, 213.128 143.500 C 214.263 147.900, 216.228 154.650, 217.495 158.500 C 218.763 162.350, 220.815 168.875, 222.058 173 C 223.300 177.125, 225.300 183.230, 226.502 186.566 L 228.688 192.632 226.094 197.597 C 224.667 200.328, 222.181 205.586, 220.569 209.281 C 218.958 212.977, 217.270 216, 216.819 216 C 216.369 216, 216.001 216.563, 216.002 217.250 C 216.006 219.736, 203.867 242.596, 200.475 246.489 C 196.533 251.015, 196.222 252.818, 198.831 256.040 C 201.465 259.292, 204.985 258.049, 210.161 252.040 C 215.272 246.107, 217.848 241.785, 227.020 223.750 C 230.866 216.188, 234.178 210, 234.380 210 C 234.582 210, 236.205 213.713, 237.988 218.250 C 239.771 222.787, 242.468 229.200, 243.983 232.500 C 245.497 235.800, 247.242 239.625, 247.861 241 C 248.479 242.375, 249.376 244.175, 249.853 245 C 250.330 245.825, 252.020 249.126, 253.610 252.336 C 255.199 255.545, 257.573 259.033, 258.885 260.086 C 262.339 262.859, 266.580 262.571, 268.643 259.423 C 270.105 257.191, 270.188 255.920, 269.264 249.950 C 268.150 242.754, 266.474 240, 263.208 240 C 261.795 240, 260.528 238.313, 258.515 233.750 C 256.998 230.313, 254.421 224.575, 252.788 221 C 251.155 217.425, 249.162 212.475, 248.359 210 C 247.556 207.525, 246.484 204.600, 245.977 203.500 C 242.069 195.028, 242.085 193.814, 246.230 184.609 C 250.058 176.107, 254.410 164.910, 258.127 154 C 259.158 150.975, 260.380 147.600, 260.843 146.500 C 261.307 145.400, 262.869 140.675, 264.315 136 C 265.762 131.325, 267.857 124.600, 268.972 121.056 C 271.492 113.047, 271.621 107.447, 269.314 106.156 C 267.366 105.066, 263 106.662, 263 108.465 C 263 109.094, 260.300 114.960, 257 121.500 C 253.700 128.040, 251 134.177, 251 135.137 C 251 136.097, 250.612 137.122, 250.137 137.415 C 249.663 137.709, 248.703 140.098, 248.005 142.724 C 247.307 145.351, 245.731 149.975, 244.502 153 C 243.273 156.025, 241.272 161.200, 240.055 164.500 C 235.610 176.559, 236.070 176.141, 234.028 169.973 C 232.210 164.483, 227.352 148.156, 223.920 136 C 222.085 129.499, 219.002 116.714, 215.038 99.170 C 213.879 94.039, 212.518 86.614, 212.013 82.670 C 211.508 78.727, 210.399 72.208, 209.548 68.185 C 208.696 64.161, 208 59.614, 208 58.080 C 208 55.320, 208.100 55.276, 217.250 54.011 C 227.957 52.530, 235.249 49.795, 237.452 46.433 C 242.352 38.954, 235.449 32.058, 228.785 37.775 C 226.490 39.744, 216.732 41.965, 210.289 41.984 C 205.104 42, 205.072 41.981, 204.094 38.250 C 203.553 36.188, 202.748 29.100, 202.305 22.500 C 201.510 10.647, 201.469 10.496, 198.967 10.205 C 197.327 10.013, 195.702 10.718, 194.355 12.205 M 64.496 50.005 C 61.966 52.800, 61.129 59.166, 61.060 76.128 C 61.017 86.598, 60.645 91.024, 59.750 91.703 C 57.017 93.775, 47.531 97, 44.171 97 C 41.668 97, 39.776 97.799, 37.805 99.687 C 34.354 102.993, 34.261 105.352, 37.455 108.545 C 40.172 111.263, 44.233 111.707, 50.007 109.917 C 51.928 109.321, 55.028 108.454, 56.895 107.990 L 60.291 107.145 59.604 121.323 C 59.226 129.120, 58.479 144.500, 57.944 155.500 L 56.970 175.500 40.655 191.583 C 23.742 208.255, 19.986 213.438, 20.015 220.066 C 20.053 228.957, 25.436 231.297, 30.218 224.500 C 31.766 222.300, 34.605 218.250, 36.527 215.500 C 38.450 212.750, 43.876 206.450, 48.585 201.500 L 57.148 192.500 56.546 217 C 56.214 230.475, 55.668 243.675, 55.332 246.333 L 54.720 251.165 48.451 244.951 C 43.095 239.643, 41.806 238.832, 39.606 239.384 C 36.504 240.163, 35.237 244.029, 36.892 247.663 C 38.581 251.369, 47.026 260.850, 50.618 263.071 C 55.149 265.874, 59.313 265.542, 63.276 262.062 C 66.207 259.489, 66.780 258.155, 67.895 251.312 C 68.624 246.837, 69.408 229.648, 69.730 211.067 L 70.292 178.634 73.396 174.445 C 85.941 157.514, 89.025 152.533, 88.968 149.300 C 88.918 146.474, 86.512 144, 83.814 144 C 80.984 144, 78.525 146.414, 74.135 153.500 L 71.038 158.500 71.142 140 C 71.198 129.825, 71.527 116.837, 71.873 111.137 L 72.500 100.774 81 96.953 C 90.684 92.600, 92.596 90.084, 89.643 85.577 C 87.618 82.488, 86.062 82.398, 78.657 84.946 L 73 86.892 73.054 78.196 C 73.084 73.413, 73.487 65.900, 73.950 61.500 C 74.780 53.609, 74.208 50.507, 71.600 48.765 C 69.576 47.414, 66.328 47.980, 64.496 50.005 M 149.827 80.743 C 146.573 81.470, 146.021 86.386, 146.674 108.837 C 147.371 132.812, 147.688 131.499, 140.639 133.896 C 134.926 135.840, 133 137.889, 133 142.022 C 133 148.530, 135.327 149.170, 147.776 146.088 C 152.024 145.036, 156.895 143.936, 158.600 143.643 L 161.701 143.110 159.845 149.801 C 158.179 155.812, 158.016 159.955, 158.245 190.497 C 158.524 227.749, 158.360 229, 153.281 228.255 C 151.295 227.963, 149.877 228.478, 148.511 229.988 C 146.730 231.956, 146.692 232.361, 148.063 234.804 C 151.085 240.188, 160.373 241.854, 165.385 237.912 C 170.773 233.674, 171.323 231.203, 171.810 209.052 C 172.230 189.987, 172.371 188.735, 173.890 190.552 C 181.030 199.085, 188.017 201.337, 191.927 196.365 C 195.349 192.016, 194.100 188, 189.326 188 C 187.763 188, 186.538 186.983, 185.412 184.750 C 182.695 179.365, 178.902 176.008, 174.792 175.351 L 171 174.744 170.983 161.122 C 170.968 148.967, 171.210 147.003, 173.233 142.889 C 174.855 139.591, 176.715 137.627, 179.768 135.991 C 184.110 133.663, 185.454 131.239, 184.833 126.852 C 184.374 123.609, 180.226 123.285, 172.986 125.925 C 169.839 127.072, 165.170 128.402, 162.610 128.880 L 157.956 129.750 158.527 126.625 C 158.841 124.906, 159.413 120.592, 159.799 117.038 L 160.500 110.576 172.500 108.884 C 186.841 106.861, 187.833 106.514, 188.656 103.235 C 189.523 99.781, 187.975 97.687, 183.905 96.807 C 179.522 95.860, 168.088 96.943, 165.500 98.550 C 164.400 99.233, 162.553 100.073, 161.396 100.417 C 159.434 101, 159.246 100.561, 158.633 93.964 C 157.775 84.734, 154.432 79.714, 149.827 80.743 M 144.259 176.398 C 143.221 177.717, 140.193 185.480, 137.530 193.648 C 134.867 201.817, 131.867 210.856, 130.863 213.736 C 128.663 220.049, 129.563 223.601, 133.619 224.619 C 137.537 225.603, 139.046 224.169, 142.238 216.429 C 143.810 212.618, 145.534 208.600, 146.070 207.500 C 148.799 201.890, 152.341 190.745, 153.291 184.778 C 154.250 178.755, 154.171 177.846, 152.526 176.028 C 150.066 173.310, 146.565 173.467, 144.259 176.398" stroke="none" fill="black" fill-rule="evenodd"/>
</svg>