<svg xmlns="http://www.w3.org/2000/svg" width="300" height="300" viewBox="0 0 300 300" version="1.1">
	<path d="M 174.940 10.250 C 173.088 12.200, 172.875 13.301, 173.348 18.500 C 173.649 21.800, 174.593 26.469, 175.447 28.876 C 176.301 31.282, 177 35.355, 177 37.926 C 177 40.497, 177.540 43.140, 178.200 43.800 C 180.154 45.754, 185.778 45.283, 186.965 43.066 C 189.505 38.320, 186.754 13.719, 183.240 9.750 C 181.106 7.341, 177.498 7.558, 174.940 10.250 M 192.500 48.517 C 183.221 50.501, 165.696 52, 151.769 52 C 135.103 52, 130.834 53.757, 130.618 60.707 L 130.500 64.500 155 64.159 C 195.341 63.596, 212.105 58.908, 207.772 49.399 C 206.862 47.402, 205.995 47.020, 202.589 47.117 C 200.340 47.181, 195.800 47.811, 192.500 48.517 M 93.312 54.250 C 91.826 56.555, 89.122 72.430, 89.061 79.211 L 89 85.923 84.750 87.041 C 73.600 89.974, 65.071 96.497, 66.500 100.999 C 67.029 102.666, 68.012 103, 72.389 103 C 75.279 103, 79.773 102.274, 82.376 101.388 C 84.979 100.501, 87.277 99.944, 87.484 100.151 C 87.690 100.357, 88.362 112.670, 88.976 127.513 C 89.591 142.356, 90.351 158.143, 90.666 162.595 L 91.239 170.691 77.309 184.595 C 67.568 194.318, 61.467 199.553, 57.022 202 C 48.838 206.506, 44.763 210.340, 45.180 213.141 C 45.644 216.265, 48.330 217.670, 51.185 216.282 C 52.458 215.662, 55.471 214.881, 57.880 214.545 C 63.985 213.694, 70.842 208.822, 82.184 197.274 L 91.868 187.414 92.576 194.957 C 92.965 199.106, 93.015 208.466, 92.686 215.757 C 91.830 234.708, 89.690 238.290, 80.278 236.524 C 78.238 236.142, 75.229 235.136, 73.591 234.289 C 70.714 232.801, 70.531 232.844, 68.188 235.568 L 65.762 238.388 69.714 242.075 C 75.174 247.168, 83.753 249.701, 89.987 248.061 C 95.668 246.567, 97.682 244.735, 100.499 238.500 C 104.132 230.458, 105.248 219.315, 104.072 202.811 C 103.512 194.940, 102.970 185.259, 102.868 181.299 L 102.683 174.097 108.092 166.801 C 115.280 157.104, 115.923 155.961, 115.965 152.807 C 116.009 149.417, 112.653 146.829, 109.635 147.925 C 108.461 148.352, 106.077 150.551, 104.339 152.812 L 101.177 156.923 100.629 152.212 C 100.327 149.620, 99.826 139.175, 99.515 129 C 99.205 118.825, 98.692 107.322, 98.376 103.438 L 97.800 96.376 101.766 95.188 C 103.947 94.535, 107.523 94, 109.711 94 C 116.926 94, 119.163 88.119, 113.388 84.335 C 111.482 83.086, 109.560 82.866, 104.854 83.357 L 98.780 83.992 99.137 69.746 C 99.333 61.911, 99.131 54.938, 98.688 54.250 C 98.245 53.563, 97.035 53, 96 53 C 94.965 53, 93.755 53.563, 93.312 54.250 M 150.869 80.510 C 149.421 81.296, 147.935 82.728, 147.565 83.692 C 147.017 85.120, 146.734 85.187, 146.034 84.055 C 145.562 83.292, 143.778 82.667, 142.070 82.667 C 138.688 82.667, 136.084 85.183, 136.033 88.500 C 135.999 90.639, 138.830 104.916, 139.504 106.006 C 139.726 106.365, 140.402 109.756, 141.006 113.541 C 141.611 117.326, 142.587 121.003, 143.175 121.711 C 144.458 123.257, 149.184 123.416, 150.637 121.963 C 151.353 121.247, 152.518 121.247, 154.402 121.963 C 160.439 124.258, 185.237 121.157, 187.325 117.846 C 188.899 115.351, 187.279 111.108, 184.485 110.407 C 181.280 109.602, 181.354 108.854, 184.900 106.232 C 187.940 103.984, 194 93.036, 194 89.791 C 194 87.038, 191.281 82.221, 189.055 81.030 C 186.562 79.695, 182.656 79.723, 178.034 81.108 C 175.131 81.978, 172.666 81.870, 166.561 80.608 C 157.150 78.662, 154.303 78.644, 150.869 80.510 M 155 92.917 C 155 93.566, 154.152 95.852, 153.116 97.997 C 151.799 100.722, 151.434 102.888, 151.905 105.188 C 152.494 108.069, 153.071 108.566, 156.539 109.182 C 158.717 109.568, 162.412 109.911, 164.750 109.942 C 168.368 109.991, 169 109.699, 169 107.978 C 169 106.845, 171.531 103.439, 174.750 100.237 L 180.500 94.519 172 93.849 C 167.325 93.480, 161.588 92.854, 159.250 92.458 C 156.244 91.948, 155 92.082, 155 92.917 M 197 134.685 C 194.522 135.094, 187.741 137.127, 181 139.481 C 172.852 142.327, 166.882 143.940, 156.711 146.045 C 149.050 147.630, 144.339 149.230, 140.461 151.566 L 135 154.854 135 152.474 C 135 148.970, 132.912 144.995, 131.089 145.032 C 127.021 145.113, 125.758 147.649, 124.779 157.708 C 123.348 172.414, 124.535 203.565, 126.943 214.486 C 128.988 223.762, 130.589 226.182, 134.078 225.269 C 137.790 224.299, 138.026 222.063, 137.077 196.877 C 136.308 176.466, 136.388 172.284, 137.581 170.581 C 138.362 169.467, 139 167.524, 139 166.263 C 139 163.544, 143.760 160.292, 149 159.431 C 162.105 157.279, 169.693 155.475, 178 152.536 C 192.378 147.450, 198.171 146.022, 205.143 145.843 C 213.156 145.637, 215.676 146.457, 217.374 149.821 C 219.531 154.096, 221.400 182.247, 220.596 198.353 C 218.613 238.053, 217.732 244.350, 213.198 251.250 C 210.544 255.289, 208.962 255.864, 207 253.500 C 204.074 249.974, 197.491 253.422, 198.170 258.125 C 198.703 261.821, 205.597 265.927, 211.337 265.967 C 215.885 265.998, 216.481 265.682, 221.337 260.671 C 228.487 253.290, 230.555 246.192, 232.511 222.322 C 235.175 189.808, 233.685 156.980, 229.071 146.500 C 226.770 141.275, 221.504 136.235, 217.052 134.998 C 213.592 134.037, 202.021 133.856, 197 134.685 M 152.537 172.959 C 150.085 175.669, 149.551 182.227, 150.976 192.121 C 151.640 196.729, 152.423 202.750, 152.715 205.500 C 153.255 210.594, 155.235 214, 157.655 214 C 158.395 214, 159.951 214.951, 161.114 216.114 C 163.069 218.069, 163.955 218.183, 172.864 217.631 C 178.164 217.302, 186.454 216.913, 191.286 216.766 C 200.577 216.485, 201.953 215.782, 201.985 211.307 C 202.004 208.595, 198.480 206, 194.777 206 C 191.468 206, 191.466 205.989, 193.967 201.322 C 195.049 199.304, 196.463 195.289, 197.110 192.401 C 198.192 187.565, 198.096 186.775, 195.892 182.394 C 192.220 175.091, 189.292 174, 173.373 174 C 162.599 174, 160.110 173.728, 159.638 172.500 C 158.821 170.371, 154.634 170.642, 152.537 172.959 M 162.463 187.124 C 164.155 194.241, 164.635 199.318, 164.006 203.462 C 163.397 207.475, 163.517 208.010, 164.901 207.447 C 168.117 206.137, 171.581 205.140, 175 204.541 C 177.765 204.056, 179.108 202.969, 181.395 199.361 C 183.108 196.660, 184.333 193.306, 184.395 191.148 L 184.500 187.500 176 186.826 C 171.325 186.456, 166.240 185.837, 164.699 185.450 C 162.131 184.806, 161.945 184.945, 162.463 187.124" stroke="none" fill="black" fill-rule="evenodd"/>
</svg>