<svg xmlns="http://www.w3.org/2000/svg" width="300" height="300" viewBox="0 0 300 300" version="1.1">
	<path d="M 155.455 22.455 C 152.132 25.777, 152.367 29.106, 156.362 35.352 C 160.400 41.663, 166.909 47.527, 172.875 50.225 C 177.239 52.199, 177.256 52.199, 179.875 50.208 C 183.534 47.425, 182.865 44.514, 177.477 39.770 C 175.002 37.592, 171.167 32.710, 168.954 28.922 C 163.445 19.489, 160.048 17.861, 155.455 22.455 M 214 22 C 212.625 23.076, 211.050 23.973, 210.500 23.994 C 208.912 24.056, 201.904 31.801, 195.565 40.500 C 188.001 50.878, 181.816 56.749, 175.505 59.540 C 169.323 62.274, 167.742 64.033, 168.171 67.697 C 168.461 70.163, 168.139 70.538, 165.500 70.817 C 163.850 70.992, 157.550 72.249, 151.500 73.610 C 145.450 74.972, 136.966 76.537, 132.648 77.087 C 121.527 78.505, 116.968 82.239, 121.633 86.110 C 124.071 88.134, 148.226 88.520, 159.250 86.712 C 164.063 85.923, 167.994 85.552, 167.987 85.888 C 167.973 86.537, 139.531 114.708, 134.479 119.076 C 132.841 120.493, 128.125 124.179, 124 127.266 C 119.875 130.354, 115.051 134.054, 113.280 135.489 L 110.061 138.098 112.518 133.799 C 115.550 128.495, 115.696 124.601, 112.935 122.667 C 108.621 119.645, 106.506 121.549, 97.006 137 C 93.794 142.225, 88.940 149.043, 86.221 152.151 L 81.275 157.802 80.136 149.651 C 79.510 145.168, 78.998 139.606, 78.999 137.291 C 78.999 134.977, 77.892 123.727, 76.538 112.291 C 75.184 100.856, 73.773 88.030, 73.404 83.790 C 72.752 76.317, 72.805 76.049, 75.116 75.102 C 92.022 68.169, 95.833 66.410, 97.795 64.639 C 100.799 61.927, 100.371 58.049, 96.850 56.082 C 94.426 54.728, 93.530 54.823, 86.350 57.193 C 82.032 58.619, 77.263 60.067, 75.750 60.411 L 73 61.038 72.820 52.269 C 72.596 41.344, 72.917 36.676, 73.938 36.014 C 75.642 34.908, 76.025 31.265, 74.564 30.053 C 72.280 28.157, 67.703 29.680, 63.901 33.599 L 60.500 37.105 60 51.695 L 59.500 66.284 51.500 68.703 C 41.501 71.725, 39.193 72.778, 35.750 75.889 C 32.671 78.672, 32.090 83, 34.525 85.021 C 36.716 86.839, 48.708 85.639, 54.442 83.026 C 59.849 80.563, 61.008 80.968, 60.977 85.309 C 60.947 89.294, 64.394 124.005, 67.450 150.500 L 69.757 170.500 61.629 178.373 C 24.731 214.110, 24.830 213.995, 24.638 221.093 C 24.525 225.297, 24.882 226.462, 26.652 227.659 C 28.673 229.025, 29.185 228.761, 35.090 223.307 C 38.547 220.113, 47.821 211.017, 55.698 203.093 C 63.575 195.169, 70.342 189.008, 70.735 189.402 C 72.030 190.697, 71.635 249.759, 70.323 251.074 C 68.543 252.858, 65.105 251.562, 56.938 246.025 C 52.861 243.261, 48.801 241, 47.916 241 C 47.030 241, 45.285 241.886, 44.037 242.968 C 40.613 245.937, 41.931 248.713, 50.773 257.161 C 59.316 265.323, 64.756 267.788, 71.729 266.657 C 76.814 265.831, 79.978 263.230, 82.971 257.414 L 85.500 252.500 85.272 221.500 C 85.147 204.450, 84.636 187.125, 84.137 183 C 83.494 177.684, 83.560 175.020, 84.365 173.851 C 84.989 172.944, 90.043 166.391, 95.595 159.290 C 101.147 152.188, 106.127 145.595, 106.662 144.640 C 107.534 143.082, 107.754 143.165, 108.796 145.451 C 111.015 150.321, 115.912 148.356, 138 133.734 C 147.167 127.665, 181.468 93.566, 182.186 89.806 C 182.448 88.438, 182.307 86.359, 181.873 85.186 C 181.187 83.331, 181.566 82.928, 184.792 82.080 C 194.140 79.625, 213.129 76.103, 228.933 73.895 C 241.477 72.142, 246.139 68.673, 244.535 62.284 L 243.890 59.713 232.265 60.408 C 225.872 60.790, 217.647 61.733, 213.987 62.503 C 210.328 63.272, 203.439 64.386, 198.680 64.978 C 193.920 65.569, 189.232 66.319, 188.263 66.643 C 187.293 66.967, 189.474 65.188, 193.109 62.690 C 200.189 57.823, 204.957 52.779, 210.774 44 C 212.778 40.975, 215.811 36.669, 217.513 34.430 C 219.215 32.192, 221.228 28.864, 221.985 27.036 C 223.271 23.931, 223.211 23.589, 221.070 21.856 C 218.200 19.532, 217.127 19.554, 214 22 M 195.643 86.099 C 193.986 88.464, 194.367 90.025, 198.790 99 C 200.400 102.268, 202.862 105.402, 204.856 106.722 C 208.325 109.019, 221.480 113.303, 228.500 114.422 C 230.700 114.773, 237.343 116.079, 243.263 117.326 C 251.661 119.094, 254.365 120.076, 255.569 121.796 C 257.764 124.929, 261.337 124.577, 264.411 120.923 C 267.645 117.080, 267.669 114.949, 264.520 111.206 C 261.423 107.525, 259.769 106.912, 242.500 103.044 C 214.614 96.798, 211.260 95.509, 204.321 88.369 C 199.578 83.489, 197.797 83.024, 195.643 86.099 M 229.500 146.724 C 227.850 146.957, 221.848 148.240, 216.161 149.574 C 210.475 150.908, 204.898 152, 203.767 152 C 201.439 152, 182.528 156.844, 170.500 160.521 C 166.100 161.866, 158.487 164.106, 153.583 165.499 C 141.393 168.962, 139.772 170.569, 144.250 174.754 C 145.761 176.166, 148.474 177.078, 152.512 177.530 L 158.525 178.205 158.145 189.290 C 157.665 203.328, 159.048 210.021, 163.141 213.465 C 166.965 216.683, 168.317 216.650, 171.460 213.260 C 174.029 210.489, 174.977 204.722, 173.058 203.536 C 171.039 202.288, 170.806 193.924, 172.519 184.172 L 174.256 174.285 179.466 172.642 C 182.331 171.739, 185.138 171, 185.702 171 C 186.325 171, 185.801 175.422, 184.370 182.250 C 183.073 188.438, 181.567 195.656, 181.024 198.291 C 180.032 203.103, 174.909 215.671, 172.334 219.609 C 171.136 221.440, 169.611 221.806, 160.728 222.390 C 155.102 222.760, 148.250 223.345, 145.500 223.691 C 140.830 224.278, 140.595 224.204, 141.940 222.578 C 143.691 220.461, 143.800 213.489, 142.316 198.500 C 141.240 187.631, 139.470 180.098, 134.329 164.500 C 128.964 148.223, 124.819 143.953, 119.153 148.867 C 116.223 151.409, 116.324 157.453, 119.419 164.808 C 122.792 172.821, 128.048 195.729, 128.988 206.510 C 129.911 217.110, 132.014 222.923, 135.237 223.787 C 136.724 224.185, 134.070 224.973, 127.500 226.083 C 115.123 228.174, 112.291 229.266, 110.808 232.522 C 109.800 234.733, 109.943 235.388, 111.847 237.292 C 113.821 239.267, 115.078 239.500, 123.777 239.496 C 129.124 239.494, 137.550 238.953, 142.500 238.293 C 160.170 235.941, 199.753 234.714, 239 235.302 C 260.175 235.620, 279.512 235.499, 281.972 235.034 C 289.759 233.560, 293.994 226.643, 289.618 222.547 C 288.880 221.856, 271.148 221.378, 237.500 221.140 C 209.450 220.942, 186.406 220.698, 186.291 220.598 C 186.177 220.498, 187.651 217.263, 189.569 213.409 C 193.510 205.488, 202.086 172.899, 201.305 168.813 C 200.886 166.622, 201.249 166.200, 204.036 165.643 C 205.804 165.289, 208.515 165, 210.062 165 C 211.608 165, 216.614 164.103, 221.187 163.007 C 225.759 161.911, 231.245 161.011, 233.378 161.007 L 237.256 161 236.655 164.750 C 234.550 177.883, 227.107 194.271, 219.693 202.094 C 215.716 206.290, 214.939 207.714, 215.193 210.333 C 215.462 213.113, 215.905 213.539, 218.816 213.818 C 223.191 214.238, 225.892 212.201, 237.148 199.991 C 241.795 194.950, 249.187 178.627, 251.106 169.165 C 252.607 161.765, 251.049 155.725, 246.542 151.475 C 243.463 148.571, 236.925 145.821, 233.884 146.150 C 233.123 146.232, 231.150 146.491, 229.500 146.724" stroke="none" fill="black" fill-rule="evenodd"/>
</svg>