<svg xmlns="http://www.w3.org/2000/svg" width="300" height="300" viewBox="0 0 300 300" version="1.1">
	<path d="M 145.313 9.786 C 144.659 10.201, 143.647 11.798, 143.063 13.335 C 138.449 25.469, 149.657 42.975, 162.050 42.993 C 167.306 43.001, 169 41.731, 169 37.785 C 169 35.669, 168.194 34.496, 165.750 33.057 C 159.611 29.442, 157.250 25.928, 154.966 17 C 153.193 10.072, 149.363 7.210, 145.313 9.786 M 182.667 9.667 C 182.300 10.033, 182 11.314, 182 12.513 C 182 13.712, 181.291 16.113, 180.425 17.850 C 178.664 21.381, 176.104 31.759, 173.482 46 C 172.520 51.225, 171.610 55.989, 171.460 56.587 C 171.311 57.185, 165.858 58.932, 159.344 60.469 C 145 63.854, 136.433 67.970, 135.684 71.836 C 134.918 75.785, 137.425 78, 142.659 78 C 146.548 78, 165.068 73.694, 167.413 72.245 C 167.949 71.913, 168.029 72.479, 167.602 73.586 C 167.196 74.639, 166.379 77.525, 165.786 80 C 165.193 82.475, 163.391 89, 161.780 94.500 C 160.170 100, 158.404 106.075, 157.857 108 C 157.309 109.925, 156.466 112.400, 155.984 113.500 C 155.501 114.600, 153.891 119.325, 152.405 124 C 150.919 128.675, 149.394 132.950, 149.017 133.500 C 148.639 134.050, 147.091 138.100, 145.577 142.500 C 144.062 146.900, 141.963 151.988, 140.912 153.807 C 139.860 155.626, 139 157.594, 139 158.181 C 139 159.662, 133.044 172.876, 124.883 189.500 C 117.667 204.200, 114.231 210.572, 99.535 236.500 C 94.435 245.500, 90.947 250, 89.074 250 C 84.388 250, 83.905 257.088, 88.451 259.160 C 95.010 262.148, 102.772 256.420, 111.207 242.364 C 113.473 238.589, 116.328 234.150, 117.552 232.500 C 118.775 230.850, 120.980 227.250, 122.452 224.500 C 123.923 221.750, 127.147 215.900, 129.616 211.500 C 132.085 207.100, 136.569 198.325, 139.579 192 C 142.589 185.675, 145.716 179.306, 146.526 177.846 C 147.337 176.386, 148 174.653, 148 173.996 C 148 173.338, 149.219 170.145, 150.708 166.900 C 152.972 161.968, 153.833 160.998, 155.958 160.987 C 163.640 160.947, 188.351 155.274, 198.504 151.221 C 204.803 148.706, 222.719 144.280, 230.099 143.416 C 235.127 142.827, 235.920 142.998, 237.866 145.087 C 241.806 149.315, 242.290 153.921, 242.328 187.500 C 242.366 220.498, 242.452 219.447, 237.570 245.778 C 235.458 257.165, 230.214 268.321, 225.931 270.536 C 222.789 272.161, 222.445 272.138, 217.197 269.963 C 212.106 267.853, 211.555 267.806, 209.117 269.278 C 204.686 271.952, 205.097 275.913, 210.303 280.712 C 218.464 288.234, 230.948 288.307, 238.637 280.878 C 242.458 277.186, 247.854 266.648, 250.352 258 C 252.213 251.554, 255.522 233.091, 256.978 221.026 C 258.242 210.550, 258.247 179.896, 256.989 162.500 C 255.548 142.593, 252.504 135.153, 244.025 130.815 C 240.241 128.879, 238.027 128.512, 230.500 128.570 C 225.090 128.613, 219.333 129.311, 216.068 130.320 C 213.081 131.244, 210.268 132, 209.818 132 C 209.367 132, 212.392 127.612, 216.540 122.250 C 228.125 107.271, 231.118 102.554, 231.216 99.115 C 231.392 92.907, 224.332 88.489, 215.999 89.594 L 211.075 90.248 218.217 75.985 C 226.370 59.702, 227.877 53.009, 224.151 49.637 C 222.416 48.066, 220.960 47.855, 214.798 48.277 C 210.784 48.553, 203.225 49.722, 198 50.876 C 192.775 52.030, 188.162 52.980, 187.750 52.987 C 186.504 53.009, 186.900 48.048, 189.009 37.182 C 191.761 23.011, 191.982 15.160, 189.727 11.711 C 188.050 9.148, 184.278 8.055, 182.667 9.667 M 62.598 17.545 C 59.433 20.710, 58.750 26.977, 59.129 49.390 L 59.500 71.279 54.500 72.645 C 34.361 78.145, 29.659 80.525, 28.310 85.901 C 27.842 87.766, 28.336 88.893, 30.404 90.671 C 31.893 91.952, 33.842 93, 34.735 93 C 36.300 93, 45.753 90.380, 54.907 87.410 C 57.330 86.623, 59.409 86.097, 59.527 86.240 C 59.645 86.383, 60.058 101.149, 60.444 119.053 L 61.147 151.605 48.911 163.053 C 36.050 175.084, 31.659 179.557, 27.853 184.500 C 26.582 186.150, 24.968 188.097, 24.265 188.828 C 22.281 190.890, 18 200.799, 18 203.330 C 18 209.277, 23.343 209.486, 28.757 203.750 C 30.964 201.412, 39.172 193.200, 46.999 185.500 L 61.229 171.500 60.618 202 C 60.283 218.775, 59.584 235.357, 59.066 238.849 C 58.016 245.922, 55.082 256, 54.071 256 C 53.711 256, 51.429 253.975, 49 251.500 C 43.970 246.374, 41.931 245.978, 38.460 249.449 C 35.487 252.422, 36.017 254.400, 41.930 262.405 C 49.039 272.028, 56.766 274.592, 62.959 269.381 C 67.223 265.793, 68.984 262.026, 71.317 251.500 C 73.121 243.361, 73.323 238.513, 73.433 200.804 L 73.555 159.108 80.617 150.804 C 97.702 130.715, 101.743 122.793, 97.066 118.560 C 95.243 116.910, 94.967 116.907, 92.270 118.500 C 90.696 119.429, 88.435 121.610, 87.245 123.345 C 84.090 127.944, 73.283 139.585, 72.711 139 C 72.442 138.725, 71.897 125.897, 71.499 110.493 L 70.776 82.485 78.923 79.154 C 88.269 75.333, 90.994 72.476, 89.151 68.431 C 88.527 67.063, 87.267 65.656, 86.351 65.304 C 84.835 64.723, 75.060 66.272, 71.409 67.673 C 70.095 68.178, 69.924 65.159, 70.052 43.596 C 70.203 17.924, 69.917 16, 65.949 16 C 64.956 16, 63.448 16.695, 62.598 17.545 M 195 65.564 C 189.225 66.897, 183.998 68.668, 183.385 69.500 C 182.772 70.331, 181.713 73.822, 181.032 77.256 C 180.351 80.690, 178.737 87.084, 177.445 91.465 C 176.154 95.846, 175.277 99.611, 175.497 99.830 C 176.309 100.642, 197.985 93.460, 197.992 92.377 C 197.997 91.760, 198.977 89.060, 200.172 86.377 C 201.367 83.695, 203.547 78.125, 205.017 74 C 206.486 69.875, 208.032 65.713, 208.451 64.750 C 209.453 62.451, 208.141 62.530, 195 65.564 M 207 105.475 C 195.198 108.713, 186.745 111.207, 178.500 113.882 L 169.500 116.803 166.917 124.151 C 160.606 142.110, 159.931 144.265, 160.457 144.790 C 161.157 145.490, 186.995 139.389, 192.860 137.139 C 196.937 135.575, 197.233 135.206, 197.414 131.466 C 197.541 128.856, 198.458 126.493, 200.054 124.667 C 201.399 123.128, 203.873 119.311, 205.551 116.184 C 207.229 113.058, 209.427 109.248, 210.436 107.719 C 211.445 106.189, 212.097 104.781, 211.885 104.589 C 211.673 104.397, 209.475 104.795, 207 105.475 M 203.912 193.164 C 201.916 196.894, 203.461 205.485, 207.165 211.258 C 208.979 214.084, 211.385 218.120, 212.512 220.227 C 216.838 228.316, 222.085 231.948, 227.485 230.593 C 231.996 229.461, 231.594 226.270, 225.452 214.452 C 217.593 199.331, 211.317 191, 207.785 191 C 206.025 191, 204.663 191.761, 203.912 193.164 M 163.988 199.282 C 161.616 201.193, 160 205.702, 160 210.410 C 160 215.869, 165.169 228.746, 168.567 231.750 C 171.661 234.486, 173.087 234.560, 176.076 232.139 L 178.374 230.279 176.184 222.889 C 174.979 218.825, 173.995 214.023, 173.997 212.218 C 174.001 208.340, 172.040 203.388, 169.260 200.250 C 167.004 197.705, 166.142 197.547, 163.988 199.282 M 140.615 202.465 C 139.498 204.170, 139 207.199, 139 212.291 C 139 216.340, 138.519 224.428, 137.932 230.265 C 136.694 242.562, 137.361 245, 141.963 245 C 148.237 245, 151.829 235.878, 152.228 218.937 C 152.494 207.624, 152.439 207.294, 149.699 203.687 C 146.353 199.283, 142.996 198.831, 140.615 202.465 M 184.488 202.655 C 178.831 208.312, 180.220 221.329, 187.153 227.635 C 195.029 234.799, 203.995 228.138, 196.527 220.670 C 195.185 219.328, 194.034 215.636, 192.490 207.725 C 191.944 204.921, 188.784 201, 187.071 201 C 186.561 201, 185.398 201.745, 184.488 202.655" stroke="none" fill="black" fill-rule="evenodd"/>
</svg>