<svg xmlns="http://www.w3.org/2000/svg" width="300" height="300" viewBox="0 0 300 300" version="1.1">
	<path d="M 126.958 46.105 C 123.465 48.363, 118.107 52.247, 115.053 54.736 C 111.999 57.225, 107.178 60.573, 104.340 62.176 C 101.502 63.778, 98.948 65.693, 98.665 66.430 C 97.805 68.672, 100.879 72, 103.807 71.997 C 107.357 71.993, 117.747 66.660, 126.663 60.266 C 130.602 57.441, 135.582 54.233, 137.730 53.138 C 143.515 50.187, 144.511 48.648, 143 45.001 C 141.897 42.336, 141.284 42, 137.534 42 C 134.286 42, 131.842 42.949, 126.958 46.105 M 168.631 48.250 C 167.852 49.487, 166.470 55.675, 165.560 62 C 162.984 79.900, 162.044 84.109, 159.359 89.742 C 156.229 96.310, 156.816 99, 161.379 99 C 164.758 99, 166.917 96.930, 170.241 90.500 C 172.783 85.585, 177 71.793, 177 68.396 C 177 65.387, 177.400 65.065, 185.423 61.619 C 195.499 57.290, 198.559 56.945, 197.538 60.250 C 194.557 69.896, 194.557 80.308, 197.536 86.069 C 199.356 89.590, 203.727 92, 208.291 92 C 212.136 92, 222.746 87.043, 225.563 83.931 C 227.270 82.044, 227.303 81.629, 225.935 79.182 C 223.893 75.526, 220.271 75.322, 213.981 78.510 C 206.451 82.325, 205.640 81.651, 206.441 72.240 C 208.360 49.688, 208.447 51.498, 205.327 49.028 C 201.611 46.086, 195.389 46.663, 184.623 50.946 C 180.291 52.670, 176.678 53.949, 176.594 53.790 C 176.510 53.630, 175.674 51.813, 174.737 49.750 C 172.799 45.487, 170.694 44.970, 168.631 48.250 M 136.500 66.732 C 135.400 67.006, 130.900 68.925, 126.500 70.996 C 122.100 73.067, 116.025 75.090, 113 75.492 C 109.975 75.894, 106.872 76.565, 106.105 76.983 C 105.258 77.443, 103.334 76.809, 101.215 75.371 C 99.293 74.067, 97.323 73, 96.836 73 C 95.098 73, 94.098 77.772, 95.086 81.348 C 95.620 83.284, 95.932 91.048, 95.779 98.602 L 95.500 112.336 92.500 113.217 C 86.705 114.917, 72 122.425, 72 123.683 C 72 124.382, 73.133 125.696, 74.518 126.603 C 77.399 128.491, 84.387 127.990, 90.442 125.460 C 93.736 124.083, 94 124.104, 94 125.737 C 94 129.189, 88.876 149.774, 87.437 152.102 C 86.325 153.902, 89.145 158, 91.495 158 C 92.681 158, 94.626 156.963, 95.817 155.695 C 98.482 152.858, 103.506 137.561, 104.453 129.402 C 104.838 126.084, 105.456 122.891, 105.827 122.306 C 106.197 121.721, 110.550 120.476, 115.500 119.539 C 120.450 118.602, 126.525 117.237, 129 116.506 C 131.475 115.775, 134.802 114.888, 136.394 114.534 L 139.288 113.890 138.646 127.195 C 138.293 134.513, 137.595 144.711, 137.095 149.857 C 136.258 158.464, 135.927 159.480, 132.966 162.535 C 130.457 165.124, 129.885 166.407, 130.374 168.355 C 131.117 171.315, 133.269 171.957, 137.872 170.591 C 144.836 168.523, 147.975 159.274, 149.950 135 C 151.444 116.639, 152.974 76.142, 152.303 72.727 C 151.228 67.256, 144.548 64.721, 136.500 66.732 M 139 77.753 C 137.288 78.326, 127.971 82.398, 123.500 84.526 C 121.850 85.312, 121.209 85.965, 122.076 85.977 C 125.342 86.024, 130.252 93.495, 131.544 100.384 C 132.220 103.984, 132.428 104.164, 135.255 103.599 C 136.902 103.270, 138.577 103, 138.977 103 C 140.071 103, 142.372 78.960, 141.366 78.041 C 140.890 77.606, 139.825 77.476, 139 77.753 M 111.250 87.262 L 107 88.284 107 99.142 C 107 105.114, 107.378 110, 107.841 110 C 108.304 110, 110.891 109.330, 113.591 108.511 C 116.291 107.692, 119.737 107.017, 121.250 107.011 C 122.763 107.005, 124 106.761, 124 106.468 C 124 104.766, 120.960 99.219, 119.138 97.595 C 116.576 95.312, 116.268 89.874, 118.571 87.571 C 120 86.143, 119.932 86.011, 117.821 86.120 C 116.545 86.186, 113.588 86.700, 111.250 87.262 M 188 101.434 C 184.425 102.664, 180.825 103.930, 180 104.249 C 171.963 107.353, 164.223 110, 163.183 110 C 162.482 110, 160.805 111.104, 159.455 112.454 C 157.333 114.576, 157.155 115.246, 158.138 117.402 C 158.763 118.774, 160.225 120.084, 161.387 120.312 C 162.615 120.554, 162.013 120.785, 159.950 120.864 C 154.084 121.089, 151.728 125.716, 156.250 128.131 C 158.057 129.097, 170.077 137.920, 171.966 139.667 C 172.222 139.904, 170.048 142.289, 167.135 144.967 C 161.617 150.041, 160.697 153.166, 164.095 155.295 C 166.612 156.872, 170.344 155.385, 176.539 150.339 L 182.275 145.666 189.387 149.265 C 197.740 153.492, 210.634 157.298, 217 157.416 C 220.990 157.491, 221.538 157.234, 221.832 155.152 C 222.178 152.714, 218.645 148, 216.473 148 C 215.431 148, 198.962 141.313, 191.829 137.994 L 189.157 136.751 192.624 130.625 C 199.915 117.744, 204 108.935, 204 106.095 C 204 102.709, 200.020 98.939, 196.615 99.100 C 195.452 99.155, 191.575 100.205, 188 101.434 M 184 114.237 C 176.044 117.742, 170.141 119.824, 167 120.232 C 164.748 120.525, 165.083 120.951, 170.385 124.529 C 173.622 126.713, 176.872 128.940, 177.607 129.478 C 179.355 130.755, 179.869 130.146, 184.972 120.750 C 189.243 112.885, 189.109 111.986, 184 114.237 M 122.707 120.771 C 119.548 124.262, 118.688 128.497, 120.448 131.900 C 122.188 135.264, 126.584 138, 130.250 138 C 135.397 138, 136.609 132.947, 132.342 129.280 C 130.719 127.885, 129.449 125.538, 129.079 123.248 C 128.374 118.887, 125.443 117.748, 122.707 120.771 M 167 170.163 C 152.734 175.813, 130.974 183.178, 120.121 186.030 C 116.063 187.096, 112.103 188.500, 111.321 189.149 C 109.010 191.067, 110.107 195.326, 113.190 196.403 C 116.190 197.452, 126.237 195.978, 136.953 192.916 C 140.502 191.902, 143.515 191.182, 143.648 191.315 C 144.364 192.030, 145.691 200.067, 145.145 200.376 C 144.790 200.576, 142.025 201.288, 139 201.957 C 135.975 202.626, 131.925 203.567, 130 204.047 C 128.075 204.528, 122.732 205.233, 118.127 205.614 C 108.229 206.434, 104.232 208.805, 105.336 213.202 C 106.565 218.099, 112.963 218.944, 126.477 215.992 C 133.675 214.420, 140.416 213.117, 144.574 212.494 C 148.614 211.889, 148.658 211.917, 149.824 215.808 C 151.955 222.920, 152.704 222.522, 133.750 224.355 C 100.036 227.615, 95.013 228.314, 91.968 230.166 C 89.778 231.498, 89 232.728, 89 234.863 C 89 238.768, 91.142 240.318, 95.731 239.735 C 100.315 239.153, 127.461 236.373, 142.380 234.958 C 148.363 234.390, 153.467 234.134, 153.721 234.388 C 153.975 234.642, 154.993 238.371, 155.983 242.675 C 156.973 246.979, 158.554 253.200, 159.497 256.500 C 161.854 264.752, 162.870 270.623, 162.940 276.401 L 163 281.302 153.750 280.661 C 139.897 279.702, 132.453 277.379, 127.057 272.331 C 123.833 269.315, 119.994 269.598, 118.319 272.975 C 117.254 275.121, 117.396 275.853, 119.380 278.475 C 122.841 283.047, 130.356 287.708, 138.340 290.234 C 147.825 293.236, 164.059 293.478, 168.181 290.681 C 175.930 285.420, 176.322 276.926, 169.942 252.500 C 167.644 243.700, 165.704 235.610, 165.632 234.522 C 165.526 232.938, 166.396 232.375, 170 231.694 C 184.521 228.951, 200.394 223.898, 206.814 219.976 C 209.422 218.383, 210.061 217.392, 209.814 215.327 C 209.255 210.654, 206.896 210.224, 198.262 213.217 C 193.993 214.697, 187.350 216.624, 183.500 217.499 C 179.650 218.374, 174.613 219.520, 172.307 220.045 C 170.001 220.570, 166.774 221, 165.137 221 C 162.623 221, 162.069 220.532, 161.579 218 C 159.692 208.228, 159.423 209.195, 164.186 208.629 C 166.559 208.347, 172.948 207.629, 178.384 207.034 C 183.820 206.439, 188.657 205.712, 189.134 205.417 C 190.691 204.455, 190.045 201.350, 187.883 199.405 C 185.996 197.706, 184.210 197.512, 171.367 197.607 L 156.966 197.715 156.414 195.107 C 156.110 193.673, 155.447 191.476, 154.940 190.224 C 154.178 188.341, 154.406 187.791, 156.260 187.035 C 157.492 186.532, 164.350 183.799, 171.500 180.960 C 188.467 174.225, 191.496 171.496, 187 167 C 184.117 164.117, 181.035 164.605, 167 170.163" stroke="none" fill="black" fill-rule="evenodd"/>
</svg>