<svg xmlns="http://www.w3.org/2000/svg" width="300" height="300" viewBox="0 0 300 300" version="1.1">
	<path d="M 217.976 15.331 C 217.688 15.633, 213.772 16.342, 209.274 16.906 C 204.776 17.470, 194.887 19.708, 187.298 21.879 C 172.093 26.229, 157.007 30, 154.813 30 C 152.127 30, 148.144 32.486, 146.575 35.143 C 144.527 38.609, 144.588 39.588, 147 42 C 150.840 45.840, 161.906 44.304, 189.380 36.117 C 197.588 33.671, 218.222 30, 223.762 30 C 225.929 30, 229.119 30.494, 230.851 31.098 C 235.796 32.822, 235.300 36.493, 226.807 61 C 225.187 65.675, 222.761 72.947, 221.416 77.159 C 220.071 81.372, 217.402 87.099, 215.485 89.885 C 210.317 97.399, 211.053 102, 217.423 102 C 219.808 102, 221.615 100.771, 225.973 96.185 C 230.873 91.030, 232.173 88.675, 237.431 75.435 C 249.429 45.223, 251.437 32.792, 245.715 24.146 C 242.220 18.865, 236.419 16.233, 226.500 15.429 C 222.100 15.072, 218.264 15.028, 217.976 15.331 M 126.264 18.933 C 125.033 19.959, 123.571 21.998, 123.014 23.464 C 121.473 27.516, 121.797 52.319, 123.516 62 C 126.094 76.511, 130.810 94.268, 132.797 96.944 C 135.793 100.979, 139.366 102.608, 142.682 101.449 C 146.548 100.097, 146.690 97.203, 143.525 84.320 C 139.080 66.230, 136.897 51.304, 136.895 39 C 136.892 25.813, 135.859 20.715, 132.749 18.537 C 129.956 16.580, 129.014 16.638, 126.264 18.933 M 58.844 31.908 C 52.984 36.518, 48 52.413, 48 66.491 C 48 69.368, 47.727 73.712, 47.394 76.145 L 46.787 80.570 35.004 86.251 C 22.634 92.216, 17 96.644, 17 100.403 C 17 103.221, 20.913 107, 23.833 107 C 25.045 107, 30.575 104.722, 36.123 101.938 C 41.671 99.154, 46.315 97.017, 46.444 97.188 C 46.572 97.360, 47.225 112.575, 47.893 131 C 48.561 149.425, 49.374 168.619, 49.698 173.652 L 50.289 182.805 43.894 189.228 C 40.377 192.761, 34.608 198.092, 31.074 201.076 C 22.827 208.038, 15.287 215.779, 13.481 219.139 C 11.688 222.477, 8.697 236.767, 9.405 238.613 C 10.022 240.221, 15.268 240.462, 17.986 239.008 C 19.005 238.462, 20.378 236.324, 21.035 234.258 C 22.234 230.490, 34.322 217.737, 45.688 208.248 L 50.781 203.997 51.525 223.748 C 52.344 245.524, 51.737 262.771, 49.977 267.709 C 48.815 270.969, 46.050 272.612, 42.586 272.101 C 38.287 271.467, 29.936 266.585, 26.040 262.428 C 21.448 257.528, 19.046 256.961, 16.134 260.087 C 14.556 261.780, 14.360 262.769, 15.095 265.330 C 15.593 267.066, 16 268.636, 16 268.818 C 16 269, 18.587 271.863, 21.750 275.181 C 33.882 287.910, 49.605 291.242, 57.987 282.859 C 65.640 275.206, 67.526 260.882, 65.473 226 C 64.680 212.525, 64.024 198.720, 64.016 195.322 L 64 189.145 74.250 176.993 C 91.620 156.400, 93.260 153.355, 89.033 149.530 C 85.839 146.639, 82.027 147.277, 78.559 151.283 C 76.876 153.226, 72.803 157.864, 69.506 161.590 L 63.512 168.365 62.853 164.433 C 61.878 158.615, 59.766 106.670, 60.160 98.187 L 60.500 90.875 67.500 87.908 C 71.350 86.277, 76.876 84.244, 79.779 83.391 C 85.789 81.627, 88.444 78.618, 87.459 74.691 C 86.328 70.185, 82.677 69.658, 72.500 72.530 C 67.550 73.927, 62.672 75.342, 61.660 75.675 C 59.922 76.247, 59.860 75.702, 60.544 65.890 C 60.943 60.176, 61.916 53.250, 62.707 50.500 C 65.043 42.381, 65.508 33.366, 63.685 31.542 C 61.752 29.610, 61.768 29.608, 58.844 31.908 M 199 46.703 C 190.282 50.429, 186.973 51.314, 179.500 51.918 C 170.127 52.675, 166.662 53.832, 165.618 56.554 C 164.429 59.652, 165.024 61.649, 167.978 64.479 C 172.057 68.387, 178.940 68.916, 189.843 66.159 C 198.916 63.865, 214.237 57.065, 217.732 53.782 C 220.899 50.807, 220.801 45.755, 217.535 43.615 C 213.862 41.208, 210.575 41.756, 199 46.703 M 183.500 73.038 C 180.200 74.100, 174.857 75.495, 171.626 76.139 C 168.396 76.782, 164.580 78.318, 163.147 79.550 C 160.874 81.505, 160.669 82.156, 161.544 84.644 C 163.874 91.270, 173.117 91.913, 187.671 86.461 C 194.677 83.837, 198.373 82.961, 200.784 83.352 C 202.630 83.652, 205.261 83.471, 206.631 82.950 C 208.766 82.138, 209.077 81.469, 208.810 78.252 C 208.550 75.099, 207.941 74.221, 205 72.752 C 200.375 70.441, 191.192 70.563, 183.500 73.038 M 243.073 111.565 C 241.189 112.383, 235.564 114.134, 230.573 115.457 C 220.483 118.132, 201.509 125.091, 199.888 126.712 C 199.314 127.286, 198.991 129.031, 199.172 130.589 C 199.569 134.014, 201.674 134.759, 211.347 134.900 C 216.972 134.982, 220.609 134.193, 231.738 130.475 C 239.187 127.986, 245.433 126.100, 245.618 126.284 C 245.802 126.469, 246.647 136.718, 247.496 149.060 C 248.344 161.402, 249.480 175.935, 250.019 181.356 C 250.559 186.777, 251 192.584, 251 194.261 C 251 197.151, 250.905 197.224, 249.171 195.655 C 246.374 193.123, 244.420 193.611, 237.693 198.520 C 234.287 201.006, 228.329 205.168, 224.452 207.770 C 216.740 212.946, 211.696 216.764, 205.982 221.750 C 203.934 223.537, 201.378 225, 200.303 225 C 198.509 225, 194 228.770, 194 230.270 C 194 230.623, 192.841 232.619, 191.425 234.706 C 187.396 240.642, 189.207 246.385, 195.479 247.562 C 199.803 248.373, 202.788 246.719, 211.953 238.433 C 216.052 234.727, 224.602 227.546, 230.953 222.475 C 237.304 217.405, 244.706 211.191, 247.403 208.666 L 252.305 204.076 251.690 222.288 C 251.351 232.305, 250.548 243.425, 249.906 247 C 248.816 253.063, 245.688 261, 244.387 261 C 244.073 261, 242.671 260.100, 241.273 259 C 237.171 255.774, 233.392 256.425, 231.115 260.750 C 229.723 263.392, 230.528 265.291, 234.664 269.136 C 241.713 275.688, 249.287 276.321, 255.487 270.877 C 267.107 260.675, 269.450 232.057, 263.989 167 C 260.299 123.041, 259.111 115.392, 255.485 112.250 C 252.468 109.635, 248.079 109.393, 243.073 111.565 M 159 125.108 C 155.425 126.147, 149.350 127.709, 145.500 128.578 C 141.650 129.447, 136.462 130.807, 133.971 131.600 C 131.480 132.393, 126.998 133.331, 124.012 133.685 C 117.561 134.449, 114 137.365, 114 141.883 C 114 148.999, 120.982 149.698, 141.500 144.637 L 154.500 141.430 155.041 162.465 C 155.488 179.854, 155.333 183.801, 154.146 185.239 C 152.753 186.926, 143.866 193, 142.790 193 C 142.496 193, 141.965 191.180, 141.609 188.955 C 140.360 181.148, 130.424 174, 120.821 174 C 117.015 174, 112 178.197, 112 181.382 C 112 184.087, 117.453 189, 120.455 189 C 124.659 189, 130 191.662, 130 193.758 C 130 194.781, 130.622 196.469, 131.383 197.509 C 132.650 199.242, 132.293 199.733, 127.133 203.350 C 124.035 205.522, 119.925 208.758, 118 210.541 C 116.075 212.324, 113.508 214.080, 112.297 214.444 C 109.588 215.257, 103 224.015, 103 226.802 C 103 230.188, 104.144 232.104, 106.760 233.099 C 111.446 234.880, 115.869 233.084, 122.874 226.555 C 126.518 223.158, 134.225 216.902, 140 212.653 C 145.775 208.404, 151.963 203.761, 153.750 202.336 L 157 199.744 156.997 215.622 C 156.993 234.018, 155.022 247.798, 151.687 252.743 C 149.612 255.820, 146 257.215, 146 254.940 C 146 254.327, 144.430 254.010, 142.281 254.190 C 139.435 254.427, 138.204 255.145, 137.031 257.252 C 135.622 259.785, 135.660 260.304, 137.500 263.752 C 141.822 271.851, 152.523 273.136, 159.929 266.445 C 165.985 260.974, 169.540 253.054, 171.127 241.500 C 172.534 231.251, 172.832 194.169, 171.584 184.500 C 171.230 181.750, 170.681 170.592, 170.364 159.705 L 169.790 139.911 172.491 136.013 C 174.917 132.513, 175.078 131.766, 174.067 128.704 C 173.006 125.488, 169.538 122.853, 166.703 123.109 C 166.041 123.168, 162.575 124.068, 159 125.108 M 205 171.930 C 196.074 172.713, 191.736 176.167, 192.785 181.656 C 193.674 186.308, 196.289 186.984, 214.128 187.179 C 223.193 187.278, 231.147 187.027, 231.805 186.621 C 233.747 185.420, 233.260 178.545, 231.093 176.584 C 227.411 173.252, 215.060 171.049, 205 171.930" stroke="none" fill="black" fill-rule="evenodd"/>
</svg>