<svg xmlns="http://www.w3.org/2000/svg" width="300" height="300" viewBox="0 0 300 300" version="1.1">
	<path d="M 183.645 24.065 C 180.839 26.272, 174.939 35.682, 173.325 40.526 C 172.387 43.338, 171.968 43.515, 163.423 44.705 C 158.515 45.388, 150.225 46.416, 145 46.989 C 139.775 47.562, 134.786 48.256, 133.913 48.531 C 132.637 48.933, 132.065 47.607, 130.993 41.766 C 130.261 37.770, 129.710 32.894, 129.770 30.930 C 129.860 28.009, 129.363 27.055, 127.036 25.680 C 125.471 24.756, 123.666 24, 123.024 24 C 121.290 24, 119.182 26.428, 118.476 29.238 C 117.884 31.599, 119.317 45.057, 120.486 48.102 C 120.921 49.236, 118.848 49.925, 110.769 51.331 C 81.341 56.454, 78 57.386, 78 60.471 C 78 65.277, 87.089 65.942, 107.177 62.605 C 115.800 61.172, 123.052 60, 123.292 60 C 123.533 60, 124.517 63.262, 125.479 67.250 C 126.441 71.237, 127.643 75.287, 128.149 76.250 C 129.522 78.857, 133.667 78.437, 135.595 75.496 C 136.972 73.393, 137.056 72.280, 136.118 68.553 C 135.503 66.112, 135 63.012, 135 61.666 C 135 58.695, 136.255 58.310, 150.264 56.975 C 155.878 56.440, 161.940 55.727, 163.735 55.390 C 165.531 55.053, 167 54.998, 167 55.267 C 167 55.966, 164.181 62.796, 161.924 67.566 C 160.866 69.802, 160 72.839, 160 74.316 C 160 76.862, 159.749 77, 155.106 77 C 152.414 77, 145.558 77.478, 139.870 78.061 C 131.404 78.930, 128.939 79.572, 126.277 81.602 C 121.696 85.096, 120.385 87.814, 122.338 89.767 C 123.690 91.119, 124.619 91.137, 130.186 89.917 C 139.597 87.855, 171.287 88.107, 176.110 90.282 C 180.344 92.191, 182.504 96.431, 181.521 100.905 C 180.869 103.874, 180.810 103.901, 178.887 102.109 C 173.761 97.334, 133.949 98.451, 123.737 103.656 C 121.157 104.972, 120.917 104.914, 120.093 102.782 C 116.546 93.599, 115.598 91.387, 114.850 90.550 C 114.382 90.027, 114 88.845, 114 87.922 C 114 85.239, 111.472 83.677, 109.145 84.922 C 104.405 87.459, 105.941 96.456, 113.967 113.179 C 117.273 120.065, 117.693 121.592, 116.470 122.277 C 115.661 122.729, 115 124.392, 115 125.972 C 115 129.975, 119.571 131.361, 130.973 130.816 C 140.489 130.361, 140.561 130.419, 137.986 136.500 C 137.520 137.600, 136.635 140.152, 136.019 142.170 C 135.402 144.189, 134.358 146.286, 133.699 146.831 C 132.160 148.102, 118.163 151, 113.562 151 C 111.625 151, 106.319 151.708, 101.770 152.574 C 97.222 153.439, 91.122 154.600, 88.215 155.152 C 81.908 156.351, 77.534 159.623, 78.584 162.357 C 79.181 163.913, 79.949 164.099, 83.397 163.522 C 85.654 163.144, 92.225 162.682, 98 162.495 C 103.775 162.308, 112.100 161.715, 116.500 161.177 C 120.900 160.640, 124.673 160.366, 124.885 160.568 C 126.202 161.829, 89.525 199.809, 80.419 206.614 C 77.642 208.689, 77.622 208.774, 79.319 211.364 C 81.411 214.557, 86.099 214.911, 90.229 212.187 C 95.525 208.695, 113.362 191.490, 121.261 182.256 C 129.271 172.891, 139 160.091, 139 158.918 C 139 158.574, 142.192 157.766, 146.093 157.122 C 154.101 155.799, 153.375 155.525, 172 166.897 C 184.382 174.457, 220.494 191.916, 227.622 193.789 C 233.363 195.297, 233.912 195.288, 236.431 193.637 C 238.542 192.254, 239.051 191.221, 238.809 188.819 C 238.531 186.073, 237.940 185.583, 233 184.005 C 226.482 181.924, 219.399 178.663, 192 165.131 C 180.725 159.562, 170.825 154.958, 170 154.900 C 166.023 154.622, 176.688 152.979, 186 152.437 C 203.476 151.418, 213 147.750, 213 142.039 C 213 140.485, 212.370 138.972, 211.600 138.677 C 210.830 138.381, 205.093 138.992, 198.850 140.034 C 192.608 141.077, 182.325 142.429, 176 143.041 C 169.675 143.652, 160.462 144.542, 155.526 145.019 C 150.591 145.496, 146.402 145.735, 146.218 145.551 C 146.034 145.367, 146.517 143.698, 147.293 141.841 C 148.068 139.985, 149.022 136.337, 149.413 133.733 L 150.123 129 158.311 129.006 C 162.815 129.009, 168.240 129.494, 170.366 130.085 C 172.493 130.675, 175.354 130.877, 176.724 130.533 C 178.797 130.013, 179.129 129.454, 178.700 127.209 C 178.285 125.042, 179.017 123.620, 182.412 119.991 C 189.785 112.109, 192.294 106.809, 192.294 99.120 C 192.294 92.204, 191.285 89.187, 187.625 85.164 C 185.229 82.531, 178.101 79, 175.180 79 C 174.118 79, 171.837 78.717, 170.109 78.372 C 167.809 77.912, 167.235 77.421, 167.967 76.540 C 168.516 75.878, 171.267 70.648, 174.080 64.918 C 176.893 59.188, 179.286 54.401, 179.399 54.281 C 179.512 54.160, 186.722 53.194, 195.421 52.134 C 208.384 50.555, 211.606 49.839, 213.276 48.168 C 215.236 46.208, 215.248 46.027, 213.578 43.479 L 211.841 40.828 198.920 41.542 C 191.814 41.935, 186 41.965, 186 41.609 C 186 41.253, 187.350 38.432, 189 35.340 C 192.361 29.042, 192.744 25.887, 190.429 23.571 C 188.335 21.478, 186.791 21.590, 183.645 24.065 M 127.137 110.148 C 124.047 111.037, 123.823 111.365, 124.387 114.183 C 124.724 115.870, 125 117.788, 125 118.446 C 125 119.457, 145.476 119.716, 170.163 119.019 C 170.992 118.995, 177 110.897, 177 109.803 C 177 108.663, 131.197 108.980, 127.137 110.148 M 155 184.129 C 147.575 185.691, 139.475 187.438, 137 188.013 C 134.525 188.587, 129.859 189.631, 126.631 190.332 C 118.358 192.128, 115.168 197.147, 120.490 199.994 C 122.826 201.245, 130.035 200.562, 146.075 197.572 C 147.462 197.314, 147.513 197.892, 146.505 202.389 L 145.360 207.500 136.930 208.597 C 124.385 210.229, 121.386 210.992, 119.087 213.134 C 116.602 215.448, 116.502 216.359, 118.512 218.369 C 120.889 220.746, 128.685 221.443, 137 220.022 C 148.233 218.102, 147.462 217.844, 147.798 223.628 L 148.096 228.755 139.298 229.474 C 126.058 230.556, 110.907 232.710, 107.229 234.033 C 103.477 235.383, 101.712 237.917, 103.034 240.054 C 103.783 241.265, 107.617 241.440, 126.582 241.130 C 151.765 240.720, 150.945 240.506, 151.002 247.500 C 151.020 249.700, 151.700 255.550, 152.514 260.500 C 154.610 273.261, 154.467 275.624, 151.408 278.683 C 148.982 281.109, 148.390 281.236, 142.158 280.663 C 138.496 280.326, 131.900 279.069, 127.500 277.868 C 116.031 274.740, 112.814 274.811, 111.602 278.220 C 110.400 281.600, 112.282 283.972, 118.473 286.882 C 124.606 289.765, 137.994 293, 143.792 293 C 151.929 293, 155.038 291.932, 159.524 287.596 C 166.371 280.980, 166.849 275.508, 162.932 248.582 C 162.191 243.486, 162.229 241.476, 163.078 240.952 C 163.711 240.560, 168.341 239.940, 173.365 239.572 C 184.193 238.781, 194.008 237.098, 195.750 235.734 C 197.523 234.346, 197.300 230.267, 195.393 229.200 C 194.510 228.706, 186.225 228.519, 176.982 228.786 L 160.178 229.271 159.464 223.560 C 159.067 220.383, 159.155 217.445, 159.661 216.939 C 160.481 216.119, 166.586 215.278, 185.794 213.338 C 192.650 212.646, 194.388 211.155, 192.909 207.235 C 191.212 202.741, 184.805 201.998, 169.904 204.570 C 164.900 205.433, 160.175 205.897, 159.403 205.601 C 157.296 204.793, 157.752 198.878, 160.144 196.003 C 161.763 194.056, 163.440 193.395, 167.757 193.003 C 171.313 192.680, 173.652 191.929, 174.294 190.905 C 175.842 188.436, 174.264 184.184, 171.236 182.663 C 168.815 181.447, 166.946 181.616, 155 184.129" stroke="none" fill="black" fill-rule="evenodd"/>
</svg>