<svg xmlns="http://www.w3.org/2000/svg" width="300" height="300" viewBox="0 0 300 300" version="1.1">
	<path d="M 194.001 13.499 C 191.766 16.524, 188.417 21.594, 186.558 24.766 C 184.555 28.183, 181.308 31.876, 178.589 33.829 C 175.837 35.805, 174 37.904, 174 39.071 C 174 40.142, 172.762 42.314, 171.250 43.899 C 169.738 45.483, 166.700 49.063, 164.500 51.855 C 162.300 54.647, 159.781 57.180, 158.902 57.485 C 158.023 57.789, 156.787 59.172, 156.155 60.558 C 155.524 61.944, 152.981 65.244, 150.504 67.893 C 145.385 73.364, 144.779 76.487, 148.505 78.184 C 150.717 79.192, 151.654 78.882, 156.505 75.541 C 159.527 73.459, 162 71.312, 162 70.770 C 162 69.356, 166.850 70.757, 170.189 73.135 C 172.149 74.530, 173 76.002, 173 77.997 C 173 81.649, 175.356 84, 179.015 84 C 182.683 84, 185 80.798, 185 75.728 C 185 71.146, 183.111 67.236, 178.354 61.970 L 174.821 58.060 176.834 55.280 C 177.941 53.751, 181.520 49.874, 184.788 46.666 C 190.723 40.837, 190.732 40.832, 194.614 41.910 C 196.751 42.503, 200.863 42.991, 203.750 42.994 C 206.637 42.997, 209 43.234, 209 43.520 C 209 46.701, 196.219 70.909, 186.766 85.632 C 182.982 91.525, 182.615 91.812, 179.502 91.307 C 176.530 90.824, 163.947 94.187, 148.399 99.619 C 143.185 101.440, 141.181 105.101, 143.478 108.607 C 147.109 114.148, 156.340 112.840, 172.250 104.529 C 176.317 102.405, 176.066 102.986, 168.796 112.500 C 168.376 113.050, 165.270 117.663, 161.894 122.751 C 154.717 133.566, 151.205 137.238, 145.305 140.095 C 141.558 141.908, 141 142.595, 141 145.389 C 141 151.326, 144.500 152.436, 152.316 148.978 C 154.830 147.867, 159.387 144.671, 162.443 141.878 C 168.251 136.570, 170.027 136.325, 165.182 141.500 C 163.638 143.150, 161.952 145.247, 161.437 146.161 C 160.429 147.947, 149.640 160.855, 141.500 170.013 C 126.428 186.969, 124.784 189.641, 127.655 192.512 C 130.908 195.765, 134.453 194.358, 142.807 186.500 L 150.779 179 157.140 178.965 C 162.557 178.935, 164.785 178.299, 172.173 174.675 C 178.344 171.648, 180.579 170.918, 179.923 172.145 C 179.415 173.093, 179 177.482, 179 181.899 C 179 189.187, 178.793 190.040, 176.766 191.125 C 175.517 191.794, 167.853 192.623, 159.389 193.005 C 145.976 193.611, 143.889 193.943, 141.123 195.913 C 137.673 198.369, 137.129 201.029, 139.647 203.128 C 141.842 204.955, 163.541 206.864, 170.846 205.871 C 174.004 205.442, 176.895 205.498, 177.396 205.997 C 178.512 207.112, 176.596 219.437, 173.957 228.116 C 172.889 231.627, 172.012 235.963, 172.008 237.750 C 172.003 239.537, 171.887 241, 171.750 241.001 C 171.613 241.001, 168.184 241.693, 164.131 242.539 C 158.543 243.705, 155.980 243.818, 153.528 243.009 C 148.349 241.300, 146.537 234.687, 149.217 227.277 C 150.576 223.519, 149.544 220.747, 146.568 220.162 C 144.093 219.676, 141.520 222.395, 138.576 228.613 C 133.547 239.235, 136.032 250.935, 144.202 255.103 C 147.125 256.594, 150.076 257, 157.995 257 C 168.326 257, 172.089 256.143, 191 249.485 C 194.575 248.226, 199.705 246.679, 202.401 246.046 C 205.097 245.413, 208.626 244.211, 210.244 243.374 C 211.862 242.537, 213.296 241.998, 213.431 242.176 C 213.566 242.354, 215.083 244.583, 216.803 247.130 C 220.139 252.069, 221.580 253, 225.882 253 C 231.391 253, 232.441 249.145, 228.545 243.229 C 226.822 240.613, 225.447 235.917, 223.940 227.500 C 221.397 213.307, 221.307 208.706, 223.507 205.348 C 225.002 203.068, 225.005 202.656, 223.546 200.430 C 220.313 195.496, 215.192 198.504, 211.855 207.297 C 210.071 211.996, 209.500 215.508, 209.500 221.779 L 209.500 230.058 205.500 231.078 C 203.300 231.639, 200.195 232.526, 198.601 233.049 C 197.006 233.572, 194.404 234, 192.819 234 C 191.233 234, 188.439 234.625, 186.610 235.390 L 183.284 236.779 186.158 229.140 C 188.292 223.466, 192 205.178, 192 200.326 C 192 200.147, 192.475 200, 193.055 200 C 193.635 200, 195.998 199.147, 198.305 198.104 C 200.612 197.061, 204.188 195.509, 206.250 194.655 C 209.715 193.220, 210 192.793, 210 189.030 C 210 185.609, 209.582 184.767, 207.387 183.767 C 205.209 182.774, 203.794 182.933, 198.887 184.720 L 193 186.864 192.829 179.682 C 192.568 168.723, 192.555 168.586, 191.690 167.248 C 190.785 165.851, 192.086 165.226, 201.500 162.535 C 212.631 159.353, 214.927 157.037, 211.445 152.500 C 209.263 149.657, 196.743 149.772, 189 152.706 C 185.975 153.853, 181.528 155.531, 179.117 156.436 C 176.707 157.341, 172.910 158.963, 170.679 160.041 C 168.449 161.118, 166.445 162, 166.226 162 C 165.705 162, 175.034 150.129, 181.552 142.500 C 187.921 135.043, 188.463 133.592, 186.263 129.869 C 184.078 126.170, 181.103 125.378, 177.121 127.437 C 174.176 128.961, 174.304 128.640, 179.802 120.769 C 184.953 113.394, 193.126 101.070, 201.532 88 C 203.124 85.525, 207.143 78.100, 210.463 71.500 C 221.557 49.447, 222.916 45.114, 220.984 37.939 C 219.638 32.943, 216.814 31.556, 206.059 30.607 C 201.966 30.246, 198.442 29.776, 198.229 29.562 C 198.015 29.348, 198.516 28.122, 199.341 26.837 C 200.167 25.552, 201.595 22.166, 202.515 19.314 C 204.102 14.397, 204.094 13.968, 202.379 11.064 C 201.383 9.379, 200.005 8, 199.316 8 C 198.627 8, 196.235 10.475, 194.001 13.499 M 87.381 52.745 C 84.907 55.989, 84.455 57.621, 84.012 64.927 C 83.529 72.892, 83.360 73.401, 81 74.031 C 79.625 74.398, 76.605 75.666, 74.290 76.849 C 71.974 78.032, 69.475 79, 68.736 79 C 67.997 79, 65.954 80.484, 64.196 82.298 C 60.879 85.720, 60.053 89.653, 62.200 91.800 C 63.650 93.250, 71.632 93.405, 72.500 92 C 72.840 91.450, 73.879 90.985, 74.809 90.966 C 75.739 90.947, 78.300 90.080, 80.500 89.038 L 84.500 87.144 86.669 110.822 C 87.862 123.845, 89.166 141.276, 89.566 149.557 L 90.294 164.615 83.397 169.534 C 76.012 174.801, 74.684 175.860, 66.075 183.350 C 49.654 197.637, 46.091 202.242, 47.406 207.481 C 47.754 208.866, 48.817 210.068, 49.769 210.151 C 55.742 210.671, 57.628 209.680, 65.999 201.618 C 70.674 197.116, 77.875 190.880, 82 187.762 L 89.500 182.092 89.788 196.296 C 90.103 211.795, 89.027 220.378, 85.652 229.288 L 83.459 235.077 81.272 233.038 C 78.405 230.368, 76.443 230.466, 73.481 233.428 C 71.324 235.585, 71.177 236.208, 72.158 239.024 C 72.765 240.766, 74.934 243.949, 76.976 246.096 C 84.550 254.058, 92.481 250.155, 98.045 235.727 C 100.759 228.688, 101.380 225.244, 102.587 210.537 C 103.372 200.974, 103.746 188.455, 103.439 182 L 102.893 170.500 109.433 165.650 C 124.175 154.717, 137 140.816, 137 135.771 C 137 129.183, 129.845 128.883, 124.794 135.260 C 121.455 139.477, 104.149 155, 102.788 155 C 102.355 155, 101.996 152.188, 101.992 148.750 C 101.987 145.313, 101.069 133.050, 99.952 121.500 C 98.835 109.950, 97.651 96.388, 97.320 91.362 C 96.638 80.983, 95.657 82.139, 107 79.954 C 110.575 79.266, 114.287 78.303, 115.250 77.816 C 117.378 76.738, 117.512 72.261, 115.497 69.598 C 114.199 67.883, 113.166 67.760, 104.978 68.341 L 95.899 68.985 96.079 60.106 C 96.177 55.223, 95.949 50.726, 95.570 50.113 C 94.108 47.747, 90.247 48.988, 87.381 52.745" stroke="none" fill="black" fill-rule="evenodd"/>
</svg>