<svg xmlns="http://www.w3.org/2000/svg" width="300" height="300" viewBox="0 0 300 300" version="1.1">
	<path d="M 191.053 26.947 C 189.982 28.018, 188.636 30.831, 188.062 33.197 C 184.678 47.160, 181.980 54.335, 174.037 70.500 C 165.080 88.729, 148.765 117.909, 146.878 119.076 C 145.165 120.134, 144.607 127.437, 146.146 128.647 C 148.676 130.636, 152.306 130.932, 154.957 129.366 C 157.565 127.826, 169.820 111.338, 176.042 101 C 177.862 97.975, 179.489 95.321, 179.658 95.101 C 179.826 94.882, 181.684 95.895, 183.786 97.351 C 185.888 98.808, 188.704 100, 190.043 100 C 191.383 100, 201.573 95.402, 212.689 89.783 C 223.805 84.164, 233.141 79.807, 233.435 80.102 C 233.730 80.397, 231.955 83.908, 229.491 87.905 C 226.929 92.061, 223.910 98.880, 222.439 103.836 C 214.279 131.320, 199.616 173.717, 197.558 175.776 C 196.874 176.460, 195.901 175.221, 188.311 164 C 178.696 149.787, 170.476 142.943, 163.128 143.032 C 156.568 143.111, 154.961 148.648, 160.455 152.241 C 162.355 153.483, 165.164 156.525, 166.696 159 C 169.794 164.003, 185.228 186.986, 188.315 191.193 L 190.292 193.886 186.466 201.943 C 184.361 206.374, 182.271 210, 181.820 210 C 181.369 210, 181 210.625, 181 211.390 C 181 213.162, 173.678 223.079, 167.814 229.250 C 163.569 233.718, 162.994 234, 158.150 234 C 152.098 234, 149 236.340, 149 240.911 C 149 244.661, 153.518 248.574, 158.898 249.483 C 169.405 251.258, 185.755 237.400, 197.155 217.058 L 201.462 209.372 207.893 217.436 C 215.909 227.486, 238.391 249.869, 247.024 256.395 C 256.962 263.907, 264.987 267.352, 271.165 266.758 C 276.944 266.203, 278.270 264.852, 277.592 260.205 C 277.150 257.179, 273.753 253.113, 271.600 253.033 C 271.104 253.015, 268.179 251.780, 265.100 250.288 C 260.929 248.269, 255.517 243.610, 243.894 232.038 C 230.279 218.483, 212.497 198.513, 210.018 193.995 C 209.486 193.026, 210.421 189.466, 212.645 183.995 C 220.754 164.047, 229.361 139.789, 235.059 120.828 C 244.042 90.932, 243.992 91.129, 244.653 83 C 245.186 76.440, 245.622 75.163, 248.131 72.806 C 251.536 69.609, 251.772 67.009, 248.895 64.405 C 245.101 60.972, 233.002 62.565, 220 68.209 C 213.222 71.151, 198.308 78.780, 193.920 81.551 C 190.636 83.624, 186 84.850, 186 83.646 C 186 83.451, 188.066 78.870, 190.592 73.466 C 196.698 60.399, 202.967 41.541, 202.985 36.184 C 203.016 27.070, 196.204 21.796, 191.053 26.947 M 133.500 40.038 C 128.037 41.599, 81.710 47.080, 69.500 47.610 C 55.699 48.209, 48.024 49.630, 46.282 51.907 C 44.085 54.779, 44.743 59.653, 47.635 61.927 C 50.741 64.370, 60.313 64.723, 73.901 62.894 C 78.422 62.285, 82.368 62.035, 82.670 62.337 C 82.972 62.639, 81.135 66.399, 78.587 70.693 C 76.039 74.987, 73.556 79.175, 73.069 80 C 70.623 84.145, 62.539 100.946, 57.453 112.456 C 53.701 120.945, 51.727 126.748, 51.727 129.285 C 51.727 141.765, 66.900 144.346, 91.453 136.042 C 104.907 131.492, 105.448 131.390, 104.617 133.554 C 103.527 136.396, 102.121 147.336, 101.025 161.500 C 98.138 198.836, 92.152 241.863, 87.975 255.312 C 84.558 266.312, 78.828 272, 71.164 272 C 64.248 272, 59.251 268.380, 55.287 260.500 C 51.913 253.792, 50.180 251.997, 47.095 252.015 C 42.990 252.040, 41.759 253.440, 41.271 258.643 C 40.640 265.380, 44.046 274.065, 49.683 280.092 C 60.679 291.848, 79.172 292.690, 91.359 281.989 C 100.263 274.171, 104.416 263.899, 108.448 239.712 C 110.868 225.195, 115.934 180.821, 117.968 156.312 C 118.571 149.058, 119.939 139.833, 121.008 135.812 C 123.364 126.953, 123.461 123.774, 121.500 119.642 C 117.892 112.037, 112.350 112.037, 88.762 119.640 C 79.006 122.785, 70.724 125.057, 70.357 124.690 C 68.916 123.250, 82.036 95.596, 94.761 73.250 C 101.055 62.198, 102.693 60, 104.637 60 C 108.879 60, 131.421 54.880, 135.963 52.884 C 141.926 50.265, 144 48.231, 144 45 C 144 39.979, 140.120 38.146, 133.500 40.038" stroke="none" fill="black" fill-rule="evenodd"/>
</svg>