<svg xmlns="http://www.w3.org/2000/svg" width="300" height="300" viewBox="0 0 300 300" version="1.1">
	<path d="M 88.174 22.314 C 86.858 23.715, 86 25.918, 86 27.894 C 86 30.882, 89.644 41.845, 92.144 46.382 C 92.715 47.417, 93.802 50.021, 94.559 52.168 C 96.170 56.733, 97.880 55.674, 79 61.808 C 65.703 66.129, 60.887 67.286, 49.103 68.993 C 41.046 70.159, 40.572 70.333, 37.250 73.323 C 34.297 75.982, 34.401 78.562, 37.546 80.622 C 39.627 81.985, 41.629 82.182, 48.495 81.698 C 55.440 81.207, 56.804 81.347, 56.362 82.500 C 55.551 84.611, 68.680 97.176, 75.551 100.864 C 78.823 102.621, 82.516 104.837, 83.757 105.789 L 86.014 107.519 78.834 115.332 C 74.885 119.630, 68.919 125.099, 65.577 127.486 C 62.235 129.874, 58.411 132.989, 57.079 134.410 C 54.915 136.719, 54.797 137.253, 55.970 139.443 C 57.687 142.652, 59.243 143.156, 63.222 141.790 C 70.689 139.228, 87.061 126.524, 93.288 118.462 C 95.605 115.462, 98.047 113.006, 98.716 113.004 C 99.853 113, 103.361 114.360, 110.500 117.571 C 125.544 124.337, 129.332 125.268, 131.800 122.800 C 134.936 119.664, 131.544 114.321, 124 110.515 C 104.803 100.829, 104.842 100.853, 105.558 99.171 C 107.077 95.600, 111.988 77.384, 111.994 75.297 C 112.003 72.028, 109.947 68.118, 107.873 67.460 C 104.976 66.540, 100.298 72.139, 98.432 78.758 C 97.542 81.916, 96.248 86.525, 95.557 89 C 94.693 92.095, 93.708 93.588, 92.401 93.782 C 91.355 93.937, 86.738 91.687, 82.139 88.782 C 77.541 85.877, 72.236 82.624, 70.351 81.554 L 66.924 79.608 70.212 78.436 C 72.020 77.792, 78.450 75.578, 84.500 73.517 C 109.606 64.965, 107.973 65.575, 115.158 62.083 C 121.343 59.078, 124 56.465, 124 53.390 C 124 50.767, 121.966 48, 120.038 48 C 119.431 48, 116.713 49.125, 114 50.500 C 111.287 51.875, 108.469 53, 107.740 53 C 106.922 53, 105.894 50.598, 105.062 46.750 C 104.320 43.313, 103.344 40.024, 102.894 39.443 C 102.443 38.861, 101.437 35.936, 100.656 32.943 C 97.989 22.709, 96.434 20, 93.225 20 C 91.511 20, 89.470 20.935, 88.174 22.314 M 206.330 47.620 C 204.839 49.895, 204.593 53.415, 204.465 74.370 C 204.315 98.674, 202.914 112.996, 200.489 115.009 C 199.681 115.680, 199.429 117.623, 199.764 120.600 C 200.056 123.191, 199.514 128.807, 198.509 133.595 C 197.021 140.684, 196.402 142.089, 194.620 142.412 C 190.702 143.122, 171.506 146.043, 170.898 146.021 C 170.392 146.003, 169.802 140.442, 168.677 125.083 C 168.523 122.983, 169.142 122.499, 173.392 121.400 C 177.851 120.247, 186.433 115.131, 188.235 112.551 C 189.665 110.504, 188.968 108.025, 186.509 106.414 C 184.145 104.865, 183.759 104.916, 178.984 107.413 C 176.216 108.861, 172.017 110.310, 169.654 110.634 L 165.357 111.223 164.040 102.361 C 163.315 97.488, 162.397 91.608, 161.999 89.295 C 161.186 84.571, 161.786 83.762, 170 78.517 C 174.230 75.816, 184.802 67.825, 193.250 60.942 C 196.030 58.677, 197 57.132, 197 54.967 C 197 51.210, 193.197 48.483, 189.318 49.456 C 186.951 50.051, 181.411 53.339, 180 54.988 C 177.765 57.599, 149.749 78.854, 142.500 83.438 C 135.784 87.684, 134.265 91.817, 138.419 94.539 C 140.666 96.011, 141.134 95.972, 145.016 93.992 C 147.314 92.820, 149.312 92.004, 149.457 92.180 C 149.826 92.630, 152.199 111.827, 152.364 115.698 C 152.439 117.456, 153.063 119.459, 153.750 120.148 C 154.438 120.836, 155 122.367, 155 123.548 C 155 124.730, 155.893 129.927, 156.984 135.098 C 158.076 140.269, 158.976 147.468, 158.984 151.095 C 158.997 156.412, 159.388 158.042, 161.004 159.504 C 162.734 161.069, 163.384 161.144, 165.754 160.053 C 167.264 159.357, 170.750 158.691, 173.500 158.573 C 176.250 158.454, 182.063 157.980, 186.419 157.518 C 193.978 156.716, 194.303 156.765, 193.586 158.589 C 193.172 159.640, 192.467 162.525, 192.019 165 C 190.178 175.166, 183.543 197.517, 178.363 211 C 174.666 220.622, 162.844 247.269, 161.504 249 C 160.865 249.825, 159.106 253.090, 157.595 256.256 C 156.084 259.421, 153.982 262.475, 152.924 263.041 C 150.566 264.303, 150.339 269.207, 152.553 271.044 C 156.966 274.706, 164.063 270.675, 168.978 261.716 C 174.538 251.581, 185 229.960, 185 228.604 C 185 227.787, 185.370 226.889, 185.822 226.610 C 186.274 226.331, 187.907 222.883, 189.451 218.949 L 192.257 211.795 201.378 220.758 C 206.395 225.688, 214.254 232.596, 218.843 236.111 C 223.432 239.625, 231.082 245.525, 235.843 249.223 C 244.318 255.804, 261.364 267.591, 265.672 269.849 C 266.867 270.475, 268.442 271.580, 269.172 272.305 C 272.080 275.193, 283.274 281, 285.931 281 C 289.299 281, 290.736 279.505, 291.175 275.543 C 291.463 272.948, 290.695 271.992, 284.500 267.234 C 280.650 264.277, 275.024 260.202, 271.998 258.179 C 265.839 254.061, 262.986 252.001, 251.589 243.441 C 247.238 240.174, 241.923 236.255, 239.778 234.733 C 237.634 233.211, 235.344 231.515, 234.689 230.964 C 232.710 229.297, 229.128 226.363, 224.773 222.841 C 222.502 221.003, 217.461 216.847, 213.572 213.605 C 209.682 210.362, 204.171 206.158, 201.325 204.263 L 196.151 200.817 197.599 196.158 C 200.250 187.627, 204.120 172.564, 204.992 167.380 C 205.465 164.565, 206.348 160.420, 206.954 158.170 C 208.193 153.568, 207.076 153.965, 224.500 151.930 C 230 151.287, 236.826 150.439, 239.668 150.045 C 244.008 149.443, 245.089 149.623, 246.409 151.164 C 250.510 155.955, 259.011 149.901, 262.979 139.365 C 265.410 132.907, 267.897 105.483, 267.965 84.385 C 267.995 74.723, 267.737 72.935, 265.984 70.707 C 263.167 67.126, 258.860 65.979, 247.408 65.759 C 237.414 65.568, 233.122 66.677, 230.292 70.184 C 226.871 74.423, 236.989 80, 248.101 80 L 254.127 80 253.530 100.750 C 252.865 123.826, 252.229 133.044, 251.194 134.620 C 250.019 136.407, 241.528 137.997, 232.807 138.062 C 228.238 138.096, 221.237 138.451, 217.250 138.851 C 210.982 139.479, 210.059 139.369, 210.443 138.039 C 210.686 137.192, 211.399 133.800, 212.025 130.500 L 213.164 124.500 225.832 122.217 C 243.674 119.002, 247.232 118.100, 249.237 116.285 C 251.412 114.317, 251.476 112.125, 249.443 109.223 C 248.046 107.228, 247.031 107, 239.550 107 C 234.965 107, 227.756 107.715, 223.529 108.589 C 219.303 109.463, 215.713 110.026, 215.551 109.839 C 215.389 109.653, 215.910 105, 216.708 99.500 C 217.753 92.305, 218.004 84.732, 217.600 72.500 C 216.956 52.954, 216.625 50.966, 213.436 47.525 C 210.451 44.304, 208.485 44.331, 206.330 47.620 M 77.733 139.460 C 76.761 140.814, 75.710 143.200, 75.398 144.762 C 74.785 147.826, 73.240 148.698, 60.734 153.035 C 57.013 154.325, 53.047 156.239, 51.921 157.288 C 49.945 159.129, 49.804 159.133, 47.878 157.390 C 44.942 154.733, 42.579 156.628, 42.188 161.954 C 41.948 165.215, 42.727 167.984, 45.538 173.852 C 51.092 185.449, 52.362 190.356, 50.873 194.474 C 49.551 198.130, 50.760 201, 53.622 201 C 54.380 201, 55 201.605, 55 202.345 C 55 204.559, 58.458 207.001, 61.579 206.990 C 63.185 206.985, 66.817 205.902, 69.649 204.583 L 74.798 202.186 74.320 210.343 C 74.057 214.829, 73.373 220.975, 72.799 224 C 70.780 234.645, 70.736 235.879, 72.323 237.466 C 74.420 239.563, 77.609 239.391, 79.943 237.057 C 81.743 235.257, 82.439 233.328, 84.925 223.250 C 85.983 218.959, 87.896 206.187, 88.257 201 C 88.477 197.825, 89.057 197.204, 94.496 194.316 C 102.146 190.254, 106.365 185.690, 105.698 182.199 C 105.336 180.308, 106.215 178.305, 109.060 174.537 C 113.942 168.071, 118.139 158.947, 118.758 153.454 C 119.122 150.227, 118.678 148.200, 116.925 145.080 C 113.174 138.407, 108.334 137.732, 91.833 141.580 C 89.575 142.106, 89.114 141.841, 88.833 139.851 C 88.546 137.827, 87.875 137.465, 84 137.249 C 80.207 137.037, 79.222 137.384, 77.733 139.460 M 99.500 153.680 C 98.400 153.927, 95.362 154.811, 92.750 155.644 L 88 157.161 88 168.789 L 88 180.416 92.346 176.151 C 94.736 173.806, 98.059 169.100, 99.732 165.693 C 102.755 159.535, 105 154.318, 105 153.453 C 105 152.927, 102.377 153.036, 99.500 153.680 M 70.500 163.462 C 68.850 164.195, 65.475 165.605, 63 166.594 C 60.525 167.584, 58.344 168.498, 58.153 168.626 C 57.963 168.755, 58.945 171.705, 60.336 175.182 C 61.727 178.660, 63.179 183.866, 63.562 186.752 C 63.944 189.639, 64.477 192, 64.745 192 C 65.012 192, 67.429 191.219, 70.116 190.265 L 75 188.531 75 175.265 C 75 167.969, 74.662 162.029, 74.250 162.064 C 73.838 162.099, 72.150 162.728, 70.500 163.462 M 119.713 205.765 C 116.374 209.454, 115.893 217.787, 118.471 227.261 C 119.060 229.424, 118.917 229.905, 117.811 229.481 C 117.035 229.183, 113.352 230.528, 109.627 232.470 C 105.902 234.411, 102.100 235.992, 101.177 235.982 C 99.281 235.961, 80.556 240.110, 68.500 243.222 C 58.159 245.892, 48.340 249.175, 44.280 251.319 C 38.980 254.119, 37.382 259.225, 40.829 262.345 C 43.410 264.681, 46.690 264.419, 56.198 261.116 C 60.764 259.530, 69 257.208, 74.500 255.955 C 80 254.703, 87.360 252.850, 90.855 251.839 C 94.351 250.828, 97.986 250, 98.933 250 C 101.657 250, 113.176 245.057, 116.750 242.355 C 118.537 241.004, 120 239.220, 120 238.390 C 120 237.561, 120.450 237.160, 121 237.500 C 121.550 237.840, 122 239.630, 122 241.477 C 122 246.792, 122.849 248, 126.584 248 C 132.158 248, 133.430 244.920, 132.619 233.387 C 132.251 228.149, 131.103 221.307, 130.067 218.182 C 129.031 215.057, 127.881 211.153, 127.512 209.506 C 126.258 203.925, 122.855 202.292, 119.713 205.765" stroke="none" fill="black" fill-rule="evenodd"/>
</svg>