<svg xmlns="http://www.w3.org/2000/svg" width="300" height="300" viewBox="0 0 300 300" version="1.1">
	<path d="M 100.206 20.419 C 98.555 22.299, 94.607 28.487, 91.434 34.169 C 88.261 39.851, 84.818 45.625, 83.784 47 C 82.749 48.375, 79.386 53.325, 76.310 58 C 73.234 62.675, 69.849 67.463, 68.787 68.641 C 67.489 70.080, 66.962 71.881, 67.178 74.141 C 67.484 77.334, 67.716 77.515, 71.861 77.813 C 75.872 78.101, 76.555 77.778, 80.361 73.799 C 82.638 71.419, 86.975 65.791, 90 61.292 L 95.500 53.111 99.500 53.806 C 101.700 54.188, 106.783 54.500, 110.796 54.500 C 118.068 54.500, 118.089 54.508, 117.503 57 C 117.179 58.375, 115.134 63.203, 112.957 67.729 C 110.781 72.256, 109 77.297, 109 78.933 C 109 82.270, 106.611 83.662, 93.481 87.978 C 85.603 90.567, 80.231 95.256, 76.036 103.202 C 73.651 107.721, 73.630 107.934, 75.380 109.868 C 77.626 112.349, 79.130 111.804, 84.404 106.593 C 88.023 103.017, 90.564 101.816, 104.523 97.087 C 117.302 92.757, 131.851 89.168, 137.224 89.020 C 141.715 88.896, 143.504 121.166, 142.630 186.500 C 141.985 234.739, 141.162 252.793, 139 266.132 C 137.719 274.037, 136.292 277.594, 135.341 275.250 C 134.531 273.254, 132.095 273.795, 129.555 276.535 C 126.731 279.582, 127.104 281.956, 131.239 287.250 C 133.845 290.586, 134.661 291, 138.632 291 C 144.498 291, 146.813 288.475, 150.260 278.315 C 154.078 267.066, 154.785 259.832, 156.110 218.500 C 157.240 183.250, 156.895 143.022, 155.150 106.500 C 154.378 90.350, 152.843 84.821, 147.886 80.346 C 143.332 76.234, 134.033 75.580, 122.517 78.561 L 119.535 79.334 121.246 76.917 C 124.833 71.852, 133 54.085, 132.996 51.355 C 132.991 47.488, 129.591 42.175, 126.327 40.934 C 124.379 40.194, 121.819 40.336, 116.880 41.459 C 110.845 42.832, 103 43.526, 103 42.688 C 103 41.613, 107.625 32.967, 109.628 30.296 C 112.600 26.335, 113.563 21.920, 112.065 19.122 C 111.209 17.522, 109.980 17, 107.068 17 C 103.925 17, 102.649 17.636, 100.206 20.419 M 243.563 40.264 C 242.747 41.509, 241.296 45.446, 240.338 49.014 C 238.791 54.771, 238.590 61.285, 238.548 106.969 L 238.500 158.437 228.772 162.189 C 223.422 164.253, 211.176 167.942, 201.560 170.387 C 184.537 174.716, 173.012 179.311, 170.326 182.839 C 167.715 186.269, 166.737 190.950, 167.995 193.987 C 169.723 198.160, 171.688 198.406, 176.882 195.100 C 186.020 189.283, 203.358 183.068, 210.594 183.015 C 212.793 182.999, 235.238 175.654, 238.250 173.965 C 240.390 172.764, 240.338 169.085, 238.940 222 C 237.820 264.394, 237.266 269.203, 232.853 274.885 C 230.509 277.902, 230.502 280.239, 232.829 282.345 C 236.934 286.060, 241.124 283.692, 245.319 275.284 C 249.711 266.482, 251.438 247.779, 252.622 196.199 L 253.318 165.898 257.909 163.290 C 266.800 158.241, 275 148.559, 275 143.111 C 275 137.957, 268.254 136.198, 265.940 140.750 C 264.276 144.023, 259.537 148.630, 255.847 150.562 C 253.530 151.775, 253.120 151.754, 252.597 150.393 C 252.269 149.537, 251.999 137.961, 251.997 124.668 C 251.996 111.376, 251.479 90.825, 250.848 79 C 249.467 53.097, 249.377 47.324, 250.298 43.822 C 251.612 38.822, 246.335 36.033, 243.563 40.264 M 201.250 80.491 C 198.696 82.333, 198.180 87.496, 200.265 90.348 C 202.131 92.900, 214.322 97, 220.045 97 C 225.979 97, 229.302 94.430, 228.811 90.221 C 228.481 87.398, 227.871 86.993, 217.126 82.463 C 208.862 78.980, 204.156 78.395, 201.250 80.491 M 59.185 92.684 C 57.010 93.554, 56.085 97.458, 57.070 101.617 C 59.025 109.875, 60.999 126.731, 60.970 134.924 C 60.901 154.966, 58.007 173.189, 48.409 214 C 46.534 221.975, 45 229.512, 45 230.750 C 45 232.312, 44.405 233, 43.057 233 C 40.477 233, 38 236.697, 38 240.548 C 38 247.363, 47.558 250.750, 52.298 245.614 C 54.543 243.180, 57.830 234.273, 60.459 223.500 C 68.110 192.139, 70.686 178.578, 74.072 151.815 C 74.676 147.038, 75.018 137.813, 74.832 131.315 C 74.503 119.798, 74.370 119.197, 69.576 107.500 C 66.871 100.900, 63.766 94.713, 62.676 93.750 C 61.586 92.787, 60.650 92.036, 60.597 92.079 C 60.544 92.122, 59.908 92.395, 59.185 92.684 M 113.384 97.363 C 112.770 98.060, 110.564 101.975, 108.482 106.065 C 104.925 113.050, 104.668 114.173, 104.227 124.622 L 103.758 135.744 98.129 136.317 C 89.187 137.227, 85.012 138.879, 80.228 143.398 C 76.501 146.920, 75.740 148.271, 75.631 151.559 C 75.511 155.162, 75.738 155.527, 78.276 155.819 C 79.802 155.994, 83.627 155.247, 86.776 154.158 C 89.924 153.070, 94.917 151.740, 97.872 151.204 L 103.243 150.229 102.529 162.193 C 101.750 175.242, 100.909 179.338, 98.451 182.054 C 96.659 184.034, 89.083 187.110, 81.565 188.910 C 76.119 190.214, 71 194.638, 71 198.042 C 71 200.546, 76.233 203, 81.574 203 C 87.372 203, 96.606 200.203, 103.307 196.417 C 106.713 194.492, 113.325 191.117, 118 188.915 C 131.140 182.726, 132.894 181.739, 137.088 178.172 C 141.413 174.493, 142.109 171.313, 139.171 168.655 C 137.099 166.779, 131.470 166.431, 130.430 168.113 C 129.583 169.484, 121.653 173.059, 117.250 174.054 C 115.463 174.459, 114.009 174.724, 114.020 174.645 C 114.030 174.565, 114.690 170.900, 115.485 166.500 C 116.280 162.100, 116.946 156.419, 116.965 153.875 C 116.998 149.505, 117.172 149.216, 120.125 148.625 C 121.844 148.281, 124.456 148, 125.929 148 C 129.107 148, 137.407 142.977, 138.929 140.133 C 140.545 137.113, 140.224 134.513, 137.984 132.486 C 136.030 130.717, 135.838 130.725, 131.734 132.723 C 129.405 133.857, 125.328 135.091, 122.672 135.465 L 117.845 136.146 118.664 120.823 C 119.566 103.960, 119.637 98.283, 118.953 97.660 C 117.607 96.436, 114.354 96.263, 113.384 97.363 M 195.415 128.255 C 193.977 131.272, 193.939 132.105, 195.131 134.613 C 197.208 138.986, 202.214 140.998, 211 140.991 C 229.046 140.976, 239.438 137.105, 237.534 131.107 C 236.501 127.854, 233.569 127.016, 227.300 128.181 C 221.480 129.264, 220.061 129.115, 199.785 125.295 C 197.458 124.856, 196.835 125.278, 195.415 128.255" stroke="none" fill="black" fill-rule="evenodd"/>
</svg>