<svg xmlns="http://www.w3.org/2000/svg" width="300" height="300" viewBox="0 0 300 300" version="1.1">
	<path d="M 153.455 11.455 C 151.524 13.385, 151 14.943, 151 18.755 C 151 21.420, 151.398 24.028, 151.885 24.550 C 153.089 25.844, 151.530 37.560, 149.128 45.258 C 146.473 53.770, 141.667 65.620, 136.257 77 C 123.697 103.416, 123.526 103.988, 127.424 106.542 C 132.892 110.125, 137.268 104.784, 150.079 78.898 L 156.315 66.297 166.022 63.592 C 177.619 60.361, 184.389 59.368, 201 58.459 C 208.248 58.062, 217.803 56.772, 223.742 55.387 C 229.375 54.074, 235.533 53, 237.427 53 C 247.350 53, 251.425 45.328, 243.500 41.567 C 239.100 39.479, 230.959 39.596, 217 41.949 C 210.675 43.015, 198.750 44.387, 190.500 44.999 C 175.214 46.133, 168.285 47.242, 164.788 49.114 C 163.710 49.690, 162.690 50.013, 162.520 49.831 C 162.351 49.649, 162.830 46.575, 163.585 43 C 164.340 39.425, 164.966 32.450, 164.975 27.500 C 164.993 18.230, 163.424 13.524, 159.222 10.250 C 156.982 8.505, 156.252 8.657, 153.455 11.455 M 76.018 21.784 C 72.647 24.514, 73.052 29.393, 77.536 40.087 C 83.817 55.065, 92.192 61.865, 97.345 56.171 C 99.577 53.705, 99.521 53.359, 95.445 44.354 C 88.869 29.828, 86.767 26.009, 83.686 22.998 C 80.130 19.520, 79.029 19.346, 76.018 21.784 M 110.964 58.386 C 109.673 59.608, 93.032 63.246, 75.500 66.140 C 72.200 66.685, 66.350 67.770, 62.500 68.552 C 58.650 69.334, 53.475 70.267, 51 70.626 C 40.356 72.169, 33.678 79.293, 37.997 84.497 C 39.563 86.384, 44.968 86.422, 53.188 84.604 C 56.660 83.837, 61.638 82.945, 64.250 82.623 L 69 82.038 69 85.076 C 69 88.646, 67.560 95.141, 64.914 103.500 C 62.618 110.752, 55.189 145.821, 53.938 155.311 C 52.708 164.638, 42.624 205.623, 37.652 221.500 C 35.101 229.650, 32.727 235.356, 31.291 236.795 C 28.419 239.673, 28.230 244.518, 30.934 245.965 C 35.743 248.538, 42.221 245.340, 45.656 238.698 C 49.309 231.635, 55.166 213.901, 59.016 198.248 C 62.730 183.151, 70 149.750, 70 147.785 C 70 147.353, 70.956 147, 72.124 147 C 73.292 147, 77.680 145.463, 81.874 143.586 C 88.980 140.404, 107.512 135.171, 108.418 136.090 C 109.124 136.808, 107.134 190.094, 106.012 200.500 C 105.419 206, 104.515 214.775, 104.002 220 C 102.698 233.285, 98.814 251.546, 94.377 265.250 C 92.659 270.558, 92.100 270.873, 89.500 268 C 85.747 263.853, 79 266.778, 79 272.551 C 79 275.114, 84.520 283.673, 87.044 285.024 C 89.892 286.548, 95.898 286.173, 99.118 284.271 C 104.367 281.170, 106.564 276.349, 111.312 257.500 C 119.620 224.517, 120.766 214.995, 121.887 169.606 C 122.917 127.915, 122.702 126.579, 114.477 123.438 L 109.931 121.702 95.215 125.470 C 87.122 127.542, 78.634 130.301, 76.353 131.600 L 72.206 133.964 74.173 125.232 C 80.303 98.025, 80.861 93.397, 79.103 84.316 L 78.293 80.131 85.396 78.952 C 95.862 77.215, 110.578 73.256, 115.052 70.973 C 120.451 68.219, 121.872 62.796, 118.255 58.750 C 116.376 56.649, 112.979 56.479, 110.964 58.386 M 232 88.558 C 224.025 90.399, 208.500 93.919, 197.500 96.380 C 164.448 103.773, 157.088 106.144, 154.613 110.197 C 153.213 112.491, 154.913 117.076, 157.500 117.981 C 158.626 118.375, 164.963 117.452, 172 115.868 C 178.875 114.321, 191.475 111.915, 200 110.520 C 208.525 109.126, 220.450 106.891, 226.500 105.554 C 232.550 104.216, 239.975 102.584, 243 101.925 C 256.083 99.078, 261.713 92.537, 255.811 87.039 C 252.876 84.304, 249.490 84.520, 232 88.558 M 198.041 112.959 C 194.957 116.043, 192.296 122.005, 190.950 128.848 C 190.269 132.312, 189.167 135.690, 188.501 136.356 C 187.836 137.021, 181.713 138.601, 174.896 139.866 C 159.128 142.793, 155.891 143.941, 154.026 147.263 C 152.618 149.772, 152.665 150.109, 154.707 152.152 C 157.985 155.430, 165.672 156.090, 176 153.982 C 180.675 153.027, 184.564 152.303, 184.643 152.373 C 184.721 152.443, 183.422 157.763, 181.756 164.197 L 178.726 175.893 173.668 176.978 C 170.886 177.574, 165.660 178.485, 162.055 179.001 C 153.511 180.225, 144.960 182.785, 142.703 184.795 C 140.213 187.012, 140.891 191.147, 144 192.712 C 146.902 194.173, 161.822 194.419, 167 193.091 C 168.925 192.598, 171.692 191.928, 173.148 191.604 L 175.796 191.013 175.285 209.257 C 174.812 226.152, 174.966 228.414, 177.362 239.865 C 180.699 255.815, 184.515 264.103, 191.837 271.304 C 201.084 280.399, 211.635 284.357, 230.137 285.670 C 246.881 286.859, 279.246 279.527, 285.342 273.165 C 288.785 269.571, 288.836 265.594, 285.468 263.387 C 283.086 261.826, 282.508 261.853, 275.718 263.840 C 265.317 266.883, 243.264 269.999, 232.104 270.003 C 218.041 270.008, 209.354 267.234, 202.513 260.556 C 198.457 256.596, 196.860 254.077, 195.184 248.996 C 191.348 237.364, 190 228.430, 190.008 214.685 C 190.014 203.702, 191.310 189.357, 192.394 188.273 C 193.728 186.939, 224.071 183, 233.014 183 C 238.985 183, 245.137 182.520, 246.685 181.933 C 251.004 180.297, 254 176.986, 254 173.849 C 254 168.655, 251.741 168.193, 230.500 169.045 C 220.050 169.464, 209.250 170.267, 206.500 170.830 C 203.750 171.393, 200.122 172.083, 198.437 172.364 L 195.375 172.875 196.022 168.188 C 196.378 165.609, 197.686 159.814, 198.928 155.309 C 201.061 147.576, 201.364 147.082, 204.344 146.476 C 206.080 146.123, 212.999 144.070, 219.720 141.913 C 226.441 139.756, 234.143 137.519, 236.834 136.942 C 242.582 135.709, 244.619 132.886, 242.642 128.893 C 240.729 125.032, 233.630 124.140, 225.221 126.703 C 221.525 127.829, 216.250 129.307, 213.500 129.987 C 210.750 130.666, 207.703 131.452, 206.728 131.733 C 205.220 132.169, 205.093 131.885, 205.877 129.823 C 206.384 128.491, 207.123 124.363, 207.521 120.650 C 208.156 114.718, 208.017 113.727, 206.372 112.481 C 203.724 110.476, 200.329 110.671, 198.041 112.959" stroke="none" fill="black" fill-rule="evenodd"/>
</svg>