<svg xmlns="http://www.w3.org/2000/svg" width="300" height="300" viewBox="0 0 300 300" version="1.1">
	<path d="M 148.025 9.975 C 145.741 12.259, 145.315 13.944, 144.609 23.500 C 144.324 27.350, 143.547 32.075, 142.881 34 C 140.219 41.704, 135.868 51.968, 131.549 60.737 C 126.878 70.222, 126.104 73.704, 128.200 75.800 C 130.130 77.730, 134.481 77.191, 136.664 74.750 C 139.076 72.055, 146.517 59.474, 150 52.204 C 152.066 47.891, 153.107 46.826, 156 46.066 C 163.129 44.193, 174.982 42.875, 192.586 41.998 C 218.742 40.695, 245.562 37.142, 249.736 34.427 C 253.489 31.986, 255.314 28.456, 254.048 26.090 C 251.813 21.913, 249.683 21.665, 235.133 23.888 C 223.392 25.681, 189.108 29.046, 165.250 30.746 L 158 31.263 158 22.266 C 158 14.679, 157.675 12.857, 155.927 10.635 C 153.461 7.499, 150.729 7.271, 148.025 9.975 M 76.154 24.811 C 71.119 30.581, 75.611 42.995, 86.191 52.553 C 88.245 54.409, 89.605 56.107, 89.213 56.327 C 88.515 56.717, 84.728 57.595, 64.500 62.056 C 59 63.269, 50.940 65.328, 46.589 66.631 C 42.238 67.934, 37.590 69, 36.262 69 C 33.083 69, 28 74.138, 28 77.352 C 28 80.489, 30.428 83, 33.461 83 C 36.155 83, 52.003 79.738, 60 77.537 C 63.025 76.705, 65.843 76.018, 66.262 76.012 C 67.406 75.994, 65.181 92.043, 61.825 108 C 57.902 126.658, 55.027 137.927, 48.045 162 C 46.848 166.125, 44.961 172.875, 43.850 177 C 37.745 199.676, 34.821 209.618, 31.031 220.589 C 28.282 228.546, 29.278 232, 34.320 232 C 38.352 232, 39.599 230.665, 43.665 222 C 48.995 210.640, 49.970 208.081, 52.550 198.689 C 54.892 190.162, 55.895 186.593, 60.893 169 C 65.423 153.055, 70.319 134.071, 71.124 129.336 C 71.606 126.496, 72.422 123.121, 72.937 121.836 C 73.811 119.655, 73.877 119.716, 73.937 122.750 C 73.988 125.401, 74.415 126.020, 76.250 126.111 C 81.266 126.357, 83.853 125.646, 91.535 121.909 C 95.954 119.759, 99.934 118, 100.378 118 C 100.822 118, 100.982 120.362, 100.733 123.250 C 100.154 129.971, 98.479 150.044, 95.914 181 C 94.797 194.475, 92.777 212.700, 91.425 221.500 C 90.072 230.300, 88.709 239.188, 88.395 241.250 C 87.758 245.438, 87.032 245.882, 85.317 243.137 C 84.677 242.112, 83.225 241.030, 82.089 240.733 C 79.278 239.998, 75 243.508, 75 246.549 C 75 250.468, 79.265 260.039, 82.618 263.646 C 88.976 270.485, 97.425 266.904, 100.663 255.998 C 101.794 252.187, 102.783 250.395, 103.457 250.936 C 104.031 251.397, 106.479 252.101, 108.898 252.500 C 112.984 253.174, 117.674 254.741, 122.500 257.044 C 123.600 257.569, 126.975 258.877, 130 259.950 C 133.025 261.023, 139.325 263.314, 144 265.039 C 148.675 266.765, 154.525 268.766, 157 269.486 C 159.475 270.206, 163.525 271.488, 166 272.334 C 175.968 275.742, 191.359 279.044, 207 281.131 C 222.253 283.166, 224.709 283.243, 239.500 282.154 C 260.172 280.632, 272.343 278.192, 275.930 274.851 C 278.489 272.466, 278.596 268.849, 276.171 266.655 C 273.879 264.581, 271.774 264.580, 263.831 266.650 C 258.729 267.979, 252.451 268.298, 231.500 268.292 C 207.056 268.286, 204.782 268.126, 193.500 265.630 C 173.158 261.129, 155.741 255.636, 130.230 245.674 L 124.961 243.616 128.755 239.558 C 132.666 235.376, 135.792 231.159, 137.858 227.277 C 138.509 226.054, 139.475 219.379, 140.004 212.443 C 140.534 205.508, 141.508 196.088, 142.170 191.511 C 143.554 181.938, 142.614 177.033, 138.553 172.652 C 135.559 169.421, 130.184 169.034, 127.621 171.866 C 126.044 173.609, 126.042 174.053, 127.584 178.596 C 128.827 182.255, 129.074 185.200, 128.581 190.480 C 128.221 194.341, 127.595 202.682, 127.190 209.015 C 126.339 222.315, 125.345 224.546, 116.576 232.840 C 111.359 237.774, 106.359 240.692, 105.166 239.500 C 104.860 239.194, 105.135 235.469, 105.776 231.222 C 108.700 211.860, 110.075 197.964, 112.482 163.500 C 113.902 143.150, 115.050 122.803, 115.032 118.285 C 115.002 110.543, 114.821 109.866, 111.896 106.535 C 107.216 101.204, 102.166 101.520, 88.611 107.993 C 82.649 110.840, 77.210 114.171, 75.954 115.743 C 74.283 117.836, 73.898 118.018, 74.359 116.500 C 75.487 112.785, 78.166 97.538, 78.665 92 C 79.213 85.901, 77.465 80.443, 73.898 77.120 L 71.787 75.153 75.563 74.110 C 77.640 73.537, 81.851 72.568, 84.920 71.959 C 87.989 71.349, 94.757 69.929, 99.960 68.804 C 105.163 67.679, 112.541 66.476, 116.355 66.129 C 124.010 65.435, 125.740 64.084, 124.631 59.667 C 123.263 54.215, 117.367 52.747, 103.333 54.362 L 96.165 55.186 96.716 51.079 C 97.183 47.603, 96.731 46.092, 93.773 41.236 C 91.851 38.081, 89.465 33.250, 88.470 30.500 C 87.475 27.750, 85.993 24.712, 85.176 23.750 C 83.007 21.196, 78.886 21.680, 76.154 24.811 M 221.500 50.850 C 217.743 53.158, 213.128 57.827, 207.200 65.320 C 203.228 70.341, 202.498 70.874, 201.881 69.209 C 201.008 66.846, 198.578 65.817, 195.625 66.558 C 193.865 67, 192.532 66.073, 189.145 62.057 C 184.576 56.638, 182.096 55.844, 178.223 58.557 C 176.519 59.750, 176 61.105, 176 64.361 C 176 67.867, 176.567 69.134, 179.250 71.624 C 184.850 76.820, 187.835 78.214, 192.559 77.839 C 195.316 77.619, 196.558 77.842, 195.954 78.446 C 195.429 78.971, 195 80.190, 195 81.155 C 195 82.403, 193.919 83.092, 191.250 83.541 C 189.188 83.889, 183.450 85.250, 178.500 86.566 C 173.550 87.882, 167.646 89.420, 165.381 89.983 C 159.217 91.515, 156 94.453, 156 98.550 C 156 101.122, 156.643 102.375, 158.628 103.676 C 161.120 105.309, 161.597 105.303, 167.878 103.568 C 171.520 102.562, 176.975 101.181, 180 100.499 C 183.025 99.817, 187.904 98.538, 190.842 97.656 L 196.185 96.053 192.457 100.276 C 188.795 104.425, 183.196 109.996, 159.733 132.836 C 153.260 139.136, 147.682 145.420, 147.335 146.800 C 146.468 150.254, 148.111 152.441, 151.850 152.813 C 154.453 153.072, 156.078 152.182, 161.249 147.661 C 164.687 144.655, 172.479 137.927, 178.565 132.711 L 189.630 123.227 190.716 134.863 C 191.313 141.264, 192.509 150.100, 193.374 154.500 C 194.240 158.900, 195.563 166.880, 196.316 172.233 C 197.592 181.318, 197.567 182.003, 195.934 182.521 C 194.972 182.826, 193.972 183.622, 193.713 184.288 C 192.876 186.437, 174.989 208.311, 169.007 214.500 C 165.817 217.800, 162.911 221.496, 162.548 222.712 C 161.653 225.717, 163.398 228.632, 166.569 229.428 C 171.764 230.732, 183.469 220.877, 192.391 207.687 C 194.926 203.940, 197 200.254, 197 199.496 C 197 198.738, 197.522 197.795, 198.160 197.401 C 199.031 196.863, 199.169 200.647, 198.713 212.592 C 198.011 230.943, 196.747 236.023, 192.603 237.131 C 186.299 238.817, 185.321 242.409, 190.077 246.411 C 195.822 251.245, 202.589 248.970, 207.528 240.543 C 210.831 234.906, 212.057 224.450, 211.921 203.074 C 211.819 187.155, 211.885 186.595, 214.063 184.953 C 216.249 183.303, 216.474 183.392, 222.405 188.220 C 231.432 195.569, 252.276 205.315, 261.899 206.686 C 266.772 207.380, 269 205.706, 269 201.348 C 269 197.903, 265.703 195.466, 251.500 188.416 C 236.945 181.190, 233.730 179.427, 229.523 176.362 L 226.605 174.237 232.808 167.468 C 240.481 159.094, 245 152.380, 245 149.352 C 245 146.076, 240.874 143.613, 236.699 144.397 C 233.148 145.063, 228.321 149.594, 223.593 156.698 C 222.057 159.008, 218.474 163.455, 215.633 166.582 L 210.466 172.267 208.126 159.884 C 206.839 153.073, 205.178 144.186, 204.434 140.135 C 202.944 132.020, 200.101 125.750, 196.324 122.249 L 193.859 119.965 201.555 111.733 C 209.579 103.149, 212.253 98.684, 211.377 95.333 C 210.916 93.569, 211.876 93.101, 220.073 91.090 C 229.666 88.738, 235.272 86.592, 238.250 84.135 C 240.259 82.476, 240.596 76.996, 238.800 75.200 C 237.312 73.712, 231.075 73.641, 227.318 75.069 C 225.771 75.657, 221.846 76.759, 218.595 77.517 L 212.686 78.896 216.726 74.698 C 218.948 72.389, 221.330 69.403, 222.018 68.063 C 222.707 66.723, 223.666 65.148, 224.150 64.563 C 227.956 59.964, 232 53.883, 232 52.760 C 232 48.851, 226.410 47.834, 221.500 50.850 M 133 133.725 C 132.175 133.905, 130.726 135.403, 129.781 137.054 C 128.014 140.138, 128.261 143.683, 130.953 153.880 C 131.479 155.871, 132.167 158.753, 132.482 160.285 C 132.844 162.044, 133.992 163.427, 135.593 164.036 C 141.901 166.434, 144.872 159.805, 143.236 146.986 C 141.945 136.875, 138.572 132.505, 133 133.725 M 179.887 160.902 C 177.474 163.599, 173.816 168.211, 171.758 171.152 C 169.701 174.094, 166.707 177.891, 165.105 179.592 C 163.504 181.293, 160.998 185.043, 159.537 187.927 C 157.046 192.842, 156.979 193.319, 158.463 195.584 C 161.381 200.038, 163.769 198.782, 175.668 186.534 C 189.682 172.109, 194.115 163.821, 190.965 157.934 C 189.031 154.320, 184.751 155.467, 179.887 160.902" stroke="none" fill="black" fill-rule="evenodd"/>
</svg>