<svg xmlns="http://www.w3.org/2000/svg" width="300" height="300" viewBox="0 0 300 300" version="1.1">
	<path d="M 170.783 10.750 C 167.997 13.945, 167 16.818, 166.991 21.684 C 166.978 28.458, 156.647 57.630, 150.268 68.904 C 148.215 72.532, 145.787 77.132, 144.872 79.127 C 143.957 81.121, 142.711 83.060, 142.104 83.436 C 140.417 84.478, 140.788 87.498, 142.829 89.345 C 148.977 94.909, 156.244 86.578, 168.469 59.955 L 173.311 49.411 195.139 49.217 C 217.441 49.019, 228.213 48.188, 245 45.371 C 261.112 42.667, 265.447 39.909, 262.973 33.934 C 261.546 30.491, 256.906 29.222, 251.815 30.884 C 249.992 31.479, 238.375 32.668, 226 33.526 C 203.026 35.120, 186.307 37.172, 181.538 38.985 C 176.234 41.002, 176.063 40.583, 178.616 31.801 C 181.882 20.569, 181.806 14.651, 178.354 11.452 C 175.231 8.558, 172.885 8.341, 170.783 10.750 M 70.016 14.707 C 67.552 17.840, 67.869 20.247, 71.503 26.004 C 77.517 35.531, 80.224 49.229, 77.501 56.357 C 76.539 58.878, 75.989 61.848, 76.279 62.958 C 76.715 64.626, 76.111 65.162, 72.789 66.057 C 65.378 68.052, 51.554 70.843, 45.500 71.567 C 40.377 72.179, 38.952 72.830, 35.750 76.024 C 31.490 80.274, 30.931 83.723, 34.046 86.542 C 35.904 88.223, 36.617 88.279, 41.796 87.151 C 49.096 85.561, 63.164 83.003, 64.616 83.001 C 65.394 83, 65.476 84.285, 64.887 87.250 C 64.422 89.588, 63.316 96, 62.430 101.500 C 60.810 111.545, 53.975 140.314, 51.941 145.646 C 51.342 147.216, 50.498 150.300, 50.065 152.500 C 49.632 154.700, 47.588 162.800, 45.524 170.500 C 43.459 178.200, 41.137 187.200, 40.364 190.500 C 37.836 201.289, 27.755 233.691, 25.760 237.437 C 25.193 238.502, 23.888 240.277, 22.859 241.382 C 21.661 242.668, 21.215 244.128, 21.617 245.445 C 22.700 248.991, 24.125 250, 28.050 250 C 32.798 250, 34.357 248.153, 41.120 234.520 C 44.726 227.250, 47.587 219.038, 51.545 204.598 C 54.545 193.651, 57 183.762, 57 182.620 C 57 181.479, 59.079 173.255, 61.619 164.343 C 66.212 148.233, 66.253 148.146, 68.685 149.070 C 72.802 150.635, 76.033 150.128, 81.378 147.076 C 88.554 142.978, 104.733 137.861, 105.358 139.491 C 106.386 142.169, 103.013 230.588, 101.597 238.071 C 99.101 251.267, 94.575 263, 91.979 263 C 91.443 263, 88.812 261.425, 86.133 259.500 C 80.898 255.739, 79.398 255.379, 76.896 257.286 C 73.396 259.951, 73.819 262.305, 78.929 268.621 C 84.698 275.751, 89.543 278.459, 95.177 277.703 C 100.377 277.006, 103.552 274.776, 106.928 269.452 C 109.883 264.793, 115.526 246.946, 117.114 237.242 C 117.631 234.084, 118.431 210.589, 118.892 185.032 C 119.821 133.527, 119.726 132.471, 113.692 127.394 C 110.869 125.019, 109.972 124.810, 104.531 125.264 C 98.673 125.752, 88.287 129.188, 80.844 133.101 C 78.833 134.158, 75.396 135.655, 73.207 136.427 L 69.225 137.832 70.596 132.666 C 74.862 116.590, 78.178 96.342, 77.845 88.404 L 77.500 80.167 83 79.097 C 86.025 78.509, 94.575 76.851, 102 75.412 C 115.865 72.726, 121.851 70.834, 123.200 68.711 C 124.845 66.122, 124.019 62.059, 121.515 60.418 C 119.473 59.080, 117.553 58.915, 110.765 59.491 C 106.219 59.878, 99.433 60.825, 95.685 61.597 C 91.936 62.369, 88.681 63, 88.451 63 C 88.220 63, 89.029 61.088, 90.247 58.750 C 95.330 48.998, 92.274 28.816, 83.994 17.450 C 79.729 11.596, 73.435 10.361, 70.016 14.707 M 247 74.622 C 245.625 74.869, 235.275 76.641, 224 78.559 C 212.725 80.477, 196.976 83.358, 189.002 84.961 C 176.532 87.468, 174.188 88.243, 172.252 90.494 C 171.013 91.934, 170 93.536, 170 94.056 C 170 95.791, 173.974 99, 176.124 99 C 177.293 99, 189.273 97.182, 202.748 94.959 C 222.456 91.708, 247.527 88, 249.795 88 C 251.006 88, 248.452 94.174, 245.245 99 C 243.235 102.025, 241.491 104.654, 241.370 104.842 C 241.248 105.031, 235.377 106.256, 228.324 107.564 C 210.103 110.945, 193.322 115.295, 186.236 118.474 C 182.886 119.978, 179.721 120.945, 179.202 120.625 C 178.683 120.304, 178.044 117.813, 177.782 115.088 C 176.900 105.900, 168.368 92.526, 163.802 93.174 C 161.743 93.466, 161.505 94.027, 161.545 98.500 C 161.570 101.250, 162.133 107.020, 162.795 111.322 C 165.511 128.952, 163.721 165.613, 158.931 190.500 C 157.872 196, 157.006 201.400, 157.006 202.500 C 157.006 205.744, 150.295 229.991, 143.444 251.500 C 136.554 273.132, 135.062 278.817, 135.024 283.595 C 134.975 289.876, 142.221 292.335, 145.798 287.250 C 150.070 281.178, 161.168 246.831, 167.367 220.500 C 175.182 187.303, 178.940 159.582, 178.990 134.750 L 179 130 184.965 130 C 191.129 130, 202.809 127.910, 221 123.552 C 226.775 122.168, 232.655 121.028, 234.068 121.018 C 238.805 120.985, 251.272 117.173, 253.311 115.134 C 254.635 113.809, 255.284 111.924, 255.198 109.646 C 255.098 106.996, 255.997 105.009, 259.003 101.233 C 261.168 98.514, 263.440 94.987, 264.053 93.395 C 265.493 89.649, 265.441 81.678, 263.959 79.306 C 261.747 75.763, 253.433 73.467, 247 74.622 M 196.783 151.750 C 194.261 154.641, 193.232 157.241, 192.528 162.500 C 192.159 165.250, 190.780 173.125, 189.463 180 C 183.449 211.386, 182.544 225.216, 185.496 240.644 C 190.145 264.943, 203.939 273, 240.892 273 C 254.433 273, 265.222 271.548, 268.732 269.253 C 273.070 266.416, 275.281 261.399, 274.792 255.500 C 274.265 249.152, 272.782 247, 268.934 247 C 265.937 247, 263 250.063, 263 253.187 C 263 256.824, 259.318 257.500, 239.500 257.500 C 224.135 257.500, 219.404 257.161, 214.768 255.727 C 207.753 253.558, 201.709 248.135, 200.027 242.500 C 198.540 237.521, 197.507 215.097, 198.426 207.744 C 199.256 201.104, 200.087 200.601, 213.863 198.401 C 232.451 195.433, 238.553 193.955, 244.777 190.915 C 251.732 187.517, 254.400 184.358, 254.400 179.520 C 254.400 176.303, 250.881 170.724, 248.109 169.546 C 245.892 168.603, 242 171.752, 242 174.488 C 242 177.790, 240.171 178.530, 228.500 179.950 C 219.139 181.090, 209.249 182.952, 204.392 184.491 C 202.303 185.153, 202.296 185.095, 203.605 178.330 C 205.527 168.395, 205.430 153.572, 203.429 151.571 C 201.363 149.506, 198.678 149.578, 196.783 151.750" stroke="none" fill="black" fill-rule="evenodd"/>
</svg>