<svg xmlns="http://www.w3.org/2000/svg" width="300" height="300" viewBox="0 0 300 300" version="1.1">
	<path d="M 190.766 32.341 L 188.240 34.682 187.536 74.091 C 187.149 95.766, 186.983 116.875, 187.166 121 L 187.500 128.500 183.500 131.011 C 178.276 134.291, 169.782 137.676, 163.391 139.026 C 156.704 140.438, 154.589 143.634, 157.638 147.717 C 159.978 150.851, 164.187 152.276, 168.749 151.478 C 171.903 150.926, 171.965 150.982, 170.870 153.386 C 169.883 155.553, 170.133 156.338, 172.871 159.659 C 174.592 161.747, 176 163.853, 176 164.338 C 176 164.823, 178.925 170.104, 182.500 176.074 C 186.075 182.044, 189 187.574, 189 188.364 C 189 189.153, 187.537 191.995, 185.750 194.678 C 183.963 197.362, 181.864 200.778, 181.086 202.269 C 178.938 206.389, 166.174 219.859, 162.731 221.639 C 160.829 222.623, 158.416 223.005, 156.288 222.659 C 154.416 222.356, 152.201 222.369, 151.366 222.690 C 149.468 223.418, 147.859 227.469, 148.649 229.528 C 149.617 232.050, 154.551 234, 159.961 234 C 171.668 234, 182.858 224.502, 199.065 200.807 C 199.375 200.353, 206.575 207.005, 215.065 215.589 C 235.878 236.634, 253.648 251.999, 270.023 263.106 C 281.099 270.618, 288.753 271.832, 291.199 266.463 C 292.170 264.331, 291.988 263.614, 289.915 261.393 C 288.587 259.970, 285.921 257.996, 283.992 257.006 C 276.576 253.202, 248.817 229.933, 233.949 215.058 C 218.439 199.541, 207 186.988, 207 185.486 C 207 184.629, 208.583 181.198, 219.223 159 C 226.222 144.397, 231 131.869, 231 128.121 C 231 125.393, 229.056 120.996, 226.635 118.250 C 223.564 114.766, 214.442 115.083, 206.250 118.958 L 200 121.915 200 106.600 L 200 91.285 206.147 90.642 C 209.527 90.289, 215.758 90, 219.992 90 C 226.180 90, 228.015 89.641, 229.345 88.171 C 231.391 85.910, 231.437 84.069, 229.516 81.326 C 227.736 78.785, 221.886 77.353, 209.599 76.450 L 200.698 75.795 201.361 60.424 C 202.143 42.297, 201.482 34.895, 198.829 32.047 C 196.335 29.369, 193.876 29.459, 190.766 32.341 M 100.636 35.636 C 99.186 37.086, 98 39.021, 98 39.936 C 98 40.851, 97.606 42.028, 97.125 42.550 C 96.643 43.072, 93.405 48.900, 89.929 55.500 C 76.619 80.772, 69.689 92.552, 58.280 109.304 C 55.959 112.712, 51.638 119.100, 48.679 123.500 C 45.719 127.900, 40.740 134.650, 37.614 138.500 C 34.489 142.350, 30.939 146.737, 29.727 148.250 C 28.356 149.960, 26.554 151, 24.961 151 C 21.501 151, 20 152.740, 20 156.751 C 20 159.654, 20.482 160.303, 23.604 161.608 C 28.556 163.677, 32.381 162.608, 37.796 157.639 C 44.003 151.944, 59.380 131.042, 73.212 109.500 C 86.491 88.817, 88.216 85.896, 94.668 73.164 L 99.399 63.827 101.386 66.664 C 105.426 72.431, 112.094 77.640, 122.163 82.895 C 127.848 85.862, 135.504 90.025, 139.174 92.145 C 142.845 94.265, 146.526 96, 147.353 96 C 149.628 96, 152 93.157, 152 90.431 C 152 88.132, 145.730 80, 143.957 80 C 143.511 80, 139.626 77.846, 135.323 75.213 C 131.021 72.580, 125.925 69.804, 124 69.044 C 122.075 68.284, 117.575 64.885, 114 61.490 C 110.425 58.096, 106.825 55.079, 106 54.784 C 104.762 54.343, 105.055 53.135, 107.673 47.874 C 111.886 39.412, 112.141 38.404, 110.813 35.488 C 109.222 31.997, 104.203 32.070, 100.636 35.636 M 114.821 106.496 C 108.398 107.195, 100.973 108.242, 98.321 108.823 C 95.670 109.404, 91.790 110.156, 89.700 110.494 C 84.653 111.311, 77.064 115.961, 76.378 118.657 C 75.577 121.807, 77.553 124.743, 80.981 125.496 C 82.768 125.888, 87.316 125.354, 92.240 124.174 C 96.783 123.085, 106.467 121.185, 113.761 119.952 C 127.651 117.603, 132 115.525, 132 111.236 C 132 109.355, 128.520 104.905, 127.211 105.113 C 126.820 105.175, 121.245 105.798, 114.821 106.496 M 204 135.207 C 198.775 138.025, 190.432 142.440, 185.460 145.018 L 176.421 149.705 179.118 151.253 C 180.602 152.105, 184.323 156.333, 187.389 160.651 C 190.454 164.968, 193.845 169.625, 194.924 171 L 196.888 173.500 199.339 168 C 202.499 160.912, 209.293 146.937, 210.521 145 C 212 142.666, 215.990 132.645, 215.995 131.250 C 216.003 129.168, 213.919 129.856, 204 135.207 M 108 151.595 C 104.425 152.365, 98.350 153.507, 94.500 154.133 C 87.523 155.267, 80.769 157.946, 79.431 160.112 C 78.998 160.813, 78.232 160.078, 77.444 158.205 C 75.448 153.458, 72.779 152.542, 69.894 155.613 L 67.513 158.148 67.740 192.255 C 67.916 218.478, 68.261 226.548, 69.234 227.166 C 71.421 228.554, 75.627 228.072, 77.219 226.250 C 80.844 222.099, 81.500 217.064, 81.500 193.377 L 81.500 170.253 88 169.002 C 91.575 168.313, 98.100 167.093, 102.500 166.290 C 106.900 165.487, 111.770 164.588, 113.321 164.291 L 116.142 163.752 115.569 186.126 C 114.708 219.689, 115.066 216.915, 111.526 217.456 C 109.862 217.710, 105.398 218.205, 101.607 218.554 C 85.005 220.085, 71.329 228.879, 77.537 234.031 C 78.762 235.048, 80.438 235.068, 85.787 234.130 C 89.479 233.482, 96.896 232.546, 102.270 232.050 C 110.033 231.333, 113.422 230.483, 118.770 227.911 C 129.756 222.629, 131.157 221.376, 130.804 217.143 C 130.594 214.629, 129.872 213.224, 128.473 212.609 C 126.464 211.726, 126.461 211.640, 128.206 203.109 C 129.449 197.029, 129.971 189.788, 129.983 178.462 C 129.999 163.800, 129.807 162.041, 127.750 157.962 C 126.266 155.019, 124.308 152.920, 122 151.798 C 117.848 149.779, 116.525 149.760, 108 151.595" stroke="none" fill="black" fill-rule="evenodd"/>
</svg>