<svg xmlns="http://www.w3.org/2000/svg" width="300" height="300" viewBox="0 0 300 300" version="1.1">
	<path d="M 97.039 59.189 C 95.918 60.392, 95 62.157, 95 63.110 C 95 65.329, 98.545 80.504, 101.105 89.244 C 102.192 92.953, 103.904 99.703, 104.910 104.244 C 109.001 122.705, 117.144 139.796, 123.273 142.781 C 129.033 145.587, 134.813 140.756, 131.995 135.491 C 131.262 134.121, 129.890 133, 128.947 133 C 127.804 133, 126.483 131.153, 124.985 127.464 C 123.750 124.419, 122.970 121.696, 123.253 121.413 C 123.536 121.130, 129.108 121.643, 135.634 122.553 C 148.521 124.350, 157.647 124.070, 173.831 121.380 C 178.963 120.527, 183.397 120.064, 183.684 120.351 C 183.972 120.638, 180.223 124.997, 175.353 130.036 C 170.484 135.076, 166.275 139.539, 166 139.955 C 165.081 141.344, 157.576 143.311, 153.766 143.162 C 151.695 143.081, 150 143.410, 150 143.894 C 150 145.089, 142.267 146.183, 132 146.439 C 123.227 146.658, 118.541 148.122, 116.597 151.250 C 114.937 153.923, 117.063 156.470, 121.111 156.656 C 122.975 156.741, 126.867 157.504, 129.760 158.352 C 133.822 159.541, 136.326 159.678, 140.760 158.952 C 143.917 158.435, 146.540 158.009, 146.589 158.006 C 146.917 157.984, 149.261 175.266, 149.368 178.498 L 149.500 182.495 135 184.149 C 127.025 185.059, 110.150 186.097, 97.500 186.455 C 77.198 187.030, 64.378 188.012, 57.317 189.534 C 52.953 190.474, 53.263 195.849, 57.805 198.013 C 63.852 200.894, 96.861 200.189, 130.500 196.460 C 137.650 195.668, 145.412 195.015, 147.750 195.010 L 152 195 151.992 199.250 C 151.988 201.588, 153.523 216.775, 155.403 233 C 157.283 249.225, 159.293 267.838, 159.870 274.363 C 161.095 288.226, 162.350 291, 167.401 291 C 174.154 291, 174.404 288.235, 170.957 251.733 C 169.854 240.055, 168.516 224.897, 167.984 218.049 C 167.451 211.202, 166.534 202.942, 165.945 199.696 C 165.356 196.449, 165.055 193.612, 165.276 193.391 C 165.497 193.170, 172.387 192.093, 180.589 190.996 C 214.124 186.514, 222.683 184.407, 227.687 179.403 C 230.195 176.896, 230.766 172.166, 228.800 170.200 C 227.419 168.819, 222 168.563, 222 169.879 C 222 171.084, 217.656 172.606, 210.500 173.908 C 194.260 176.862, 172.414 180, 168.084 180 C 162.334 180, 162.379 180.105, 161.362 164.323 L 160.707 154.147 167.603 152.075 C 171.397 150.935, 177.650 149.665, 181.500 149.252 C 188.493 148.501, 188.500 148.497, 188.814 145.240 C 189.074 142.541, 188.638 141.699, 186.278 140.345 L 183.428 138.709 188.827 133.604 C 194.940 127.826, 200.837 117.038, 203.009 107.663 C 205.189 98.254, 202.466 85.960, 195.587 74.156 C 193.696 70.910, 186.831 64, 185.497 64 C 184.894 64, 183.892 63.492, 183.270 62.870 C 182.649 62.249, 179.746 60.910, 176.820 59.896 C 155.314 52.440, 115.582 61.139, 111.433 74.212 C 110.819 76.147, 110.455 75.679, 108.923 70.987 C 107.938 67.969, 107.103 64.773, 107.066 63.885 C 106.964 61.390, 103.074 57, 100.966 57 C 99.928 57, 98.160 57.985, 97.039 59.189 M 150.500 69.648 C 138.299 71.549, 125.011 74.071, 122.500 74.964 C 120.850 75.551, 118.733 77.374, 117.797 79.015 C 116.860 80.657, 115.358 82, 114.459 82 C 112.386 82, 113.029 86.400, 117.122 100.218 C 118.705 105.563, 120 110.820, 120 111.899 C 120 113.658, 120.336 113.753, 123.250 112.824 C 125.037 112.254, 137.525 111.450, 151 111.037 C 174.074 110.330, 186 108.887, 186 106.804 C 186 106.334, 187.125 105.523, 188.500 105 C 190.705 104.161, 191 103.462, 191 99.062 C 191 87.271, 182.734 74.856, 172.798 71.727 C 167.180 69.957, 155.503 68.869, 150.500 69.648" stroke="none" fill="black" fill-rule="evenodd"/>
</svg>