<svg xmlns="http://www.w3.org/2000/svg" width="300" height="300" viewBox="0 0 300 300" version="1.1">
	<path d="M 185.500 45.175 C 175.245 50.594, 157.649 56.680, 142.500 60.047 C 131.499 62.492, 104.932 66, 97.412 66 C 88.255 66, 83.362 69.851, 86.477 74.606 C 88.638 77.903, 90.813 78.823, 98.255 79.585 C 104.528 80.228, 104.826 80.381, 105.401 83.253 C 105.730 84.901, 106 87.614, 106 89.282 C 106 91.892, 97.724 125.792, 94.960 134.505 C 94.436 136.157, 93.582 140.657, 93.064 144.505 C 92.545 148.352, 90.513 159.150, 88.547 168.500 C 81.858 200.316, 77.728 220.494, 77.288 223.500 C 76.590 228.267, 78.415 231.713, 82.060 232.513 C 89.371 234.119, 92.936 227.082, 97.461 202.106 C 100.953 182.837, 108.259 145.605, 108.646 145.107 C 108.814 144.892, 109.644 145.290, 110.490 145.992 C 113.890 148.814, 126.631 148.296, 180.712 143.140 L 187.924 142.453 187.316 144.976 C 186.981 146.364, 186.337 148.504, 185.886 149.731 C 185.434 150.958, 184.055 157.708, 182.821 164.731 C 180.857 175.915, 180.581 180.914, 180.598 205 C 180.618 232.122, 181.768 245.014, 186.597 272.250 C 187.062 274.873, 186.900 276, 186.059 276 C 182.595 276, 180.813 281.914, 183.030 286.055 C 184.407 288.630, 189.185 291, 192.996 291 C 196.906 291, 200.477 287.547, 201.912 282.378 C 203.402 277.012, 203.330 275.707, 200.498 256.778 C 196.879 232.591, 195.716 209.682, 197.019 188.205 C 197.610 178.467, 198.518 167.800, 199.039 164.500 C 199.559 161.200, 199.988 154.874, 199.992 150.441 C 199.997 145.568, 200.494 141.718, 201.250 140.702 C 201.947 139.765, 207.316 137.674, 213.378 135.978 C 232.866 130.525, 240.009 123.928, 233.967 116.962 L 231.935 114.619 224.217 116.934 C 195.237 125.628, 181.902 127.947, 137.828 131.953 C 125.908 133.036, 114.996 134.214, 113.578 134.570 C 112.160 134.926, 111.003 135.056, 111.006 134.858 C 111.010 134.661, 112.413 129.325, 114.124 123 C 118.938 105.203, 120.195 98.056, 119.548 92.164 C 118.962 86.826, 116.701 81.148, 114.610 79.765 C 114 79.361, 115.640 79.024, 118.257 79.015 C 124.645 78.995, 141.675 76.383, 150.962 74 C 166.891 69.912, 192.475 58.430, 196.228 53.685 C 198.616 50.665, 198.435 46.484, 195.811 44.039 C 192.967 41.389, 192.584 41.432, 185.500 45.175" stroke="none" fill="black" fill-rule="evenodd"/>
</svg>