<svg xmlns="http://www.w3.org/2000/svg" width="300" height="300" viewBox="0 0 300 300" version="1.1">
	<path d="M 114.571 58.571 C 113.707 59.436, 113 61.017, 113 62.085 C 113 63.153, 112.457 64.896, 111.794 65.958 C 110.817 67.523, 110.893 68.230, 112.195 69.694 C 114.370 72.140, 116.361 77.293, 117.915 84.500 C 118.627 87.800, 119.588 91.400, 120.050 92.500 C 120.513 93.600, 121.439 97.097, 122.110 100.272 C 123.111 105.017, 123.751 106.150, 125.704 106.641 C 127.191 107.014, 128.740 106.641, 129.841 105.644 C 131.271 104.350, 134.680 104, 148.050 103.776 C 163.639 103.514, 164.554 103.605, 165.523 105.500 C 166.171 106.767, 167.777 107.618, 169.903 107.823 C 172.862 108.108, 173.925 107.456, 178.880 102.323 C 185.607 95.353, 189.566 87.603, 191.133 78.337 C 192.168 72.220, 192.090 71.080, 190.393 67.513 C 187.327 61.067, 185.300 60.550, 163 60.526 C 152.275 60.515, 138.980 60.904, 133.456 61.391 L 123.412 62.277 121.683 59.639 C 119.733 56.662, 116.905 56.238, 114.571 58.571 M 133.095 71.081 C 129.022 71.574, 125.515 72.151, 125.302 72.365 C 125.088 72.579, 125.495 74.629, 126.207 76.920 C 127.461 80.961, 127.606 81.069, 131 80.499 C 132.925 80.175, 142.375 79.827, 152 79.726 C 167.111 79.567, 169.951 79.785, 172.801 81.323 C 174.617 82.303, 176.371 83.803, 176.698 84.656 C 177.433 86.571, 179.383 82.318, 180.247 76.914 C 181.265 70.550, 181.161 70.517, 159.788 70.343 C 149.180 70.257, 137.168 70.589, 133.095 71.081 M 140.500 90.675 C 123.648 92.100, 127.382 93.828, 148.090 94.187 C 165.458 94.487, 166.254 94.590, 168.001 96.750 C 169.002 97.987, 170.049 99, 170.329 99 C 171.097 99, 175 92.427, 175 91.132 C 175 90.059, 151.465 89.747, 140.500 90.675 M 124.500 113.973 C 99.123 114.573, 97.186 114.918, 90.750 119.982 C 88.096 122.069, 88 122.077, 88 120.195 C 88 117.104, 85.401 115.496, 82.524 116.807 C 74.580 120.426, 81.370 149.481, 89.436 146.386 C 91.751 145.498, 92.337 141.800, 91.087 135.971 C 90.481 133.145, 90.222 130.450, 90.512 129.981 C 90.801 129.513, 93.617 128.110, 96.769 126.864 C 101.927 124.824, 104.578 124.559, 123.300 124.211 L 144.100 123.824 143.800 130.080 L 143.500 136.336 136.333 138.054 C 127.903 140.075, 117.877 143.830, 114.885 146.087 C 113.310 147.274, 112.950 148.267, 113.483 149.947 C 114.163 152.088, 114.581 152.180, 121.350 151.675 C 125.283 151.381, 131.650 150.274, 135.500 149.214 C 143.188 147.099, 144 147.183, 144 150.090 C 144 152.376, 143.992 152.379, 133.628 153.966 C 129.298 154.629, 124.139 156.080, 122.162 157.190 C 119.852 158.488, 118.438 158.814, 118.201 158.104 C 116.973 154.418, 111.995 159.536, 112.008 164.473 C 112.019 169.053, 115.321 178.974, 119.375 186.609 C 121.369 190.363, 123 194.026, 123 194.749 C 123 195.471, 123.787 196.353, 124.750 196.708 C 125.713 197.063, 127.894 198.400, 129.598 199.679 C 131.302 200.959, 135.240 202.517, 138.348 203.141 L 144 204.276 144 207.999 L 144 211.722 137.750 212.381 C 118.074 214.453, 110.492 215.018, 101.500 215.081 C 96 215.120, 89.615 215.614, 87.312 216.179 C 82.658 217.320, 79.696 219.890, 80.861 221.774 C 82.558 224.520, 117.190 224.794, 138.177 222.228 L 144.855 221.411 145.464 229.956 C 146.209 240.386, 147.746 252.987, 149.496 263 C 150.217 267.125, 151.341 273.875, 151.993 278 C 153.774 289.261, 155.092 292.444, 158.121 292.801 C 162.584 293.327, 163.499 290.950, 162.206 282.192 C 158.496 257.048, 156 233.960, 156 224.781 L 156 220.285 162.250 219.573 C 165.688 219.182, 174.350 218.468, 181.500 217.986 C 197.680 216.897, 215.143 214.529, 217.908 213.049 C 220.236 211.804, 220.723 207.844, 218.750 206.210 C 217.941 205.540, 215.911 205.481, 213 206.044 C 210.525 206.522, 204.714 206.932, 200.086 206.956 C 195.459 206.980, 184.119 207.732, 174.887 208.626 C 165.655 209.521, 157.403 209.985, 156.551 209.658 C 155.555 209.276, 155 207.799, 155 205.531 L 155 202 163.965 202 C 171.906 202, 173.052 201.772, 174 200 C 174.740 198.617, 174.753 197.407, 174.040 196.075 C 173.192 194.490, 171.437 194.028, 164.072 193.452 L 155.133 192.752 154.476 186.622 C 154.115 183.251, 153.973 179.144, 154.160 177.496 L 154.500 174.500 162 174.399 C 172.286 174.260, 172 174.356, 172 171.039 C 172 167.844, 170.585 167.170, 159.555 165.109 C 152.291 163.752, 152.791 162.734, 160.500 163.187 C 165.120 163.458, 169.285 164.429, 172.750 166.043 C 177.821 168.405, 178 168.627, 178 172.553 C 178 175.415, 176.977 178.316, 174.544 182.358 C 171.565 187.303, 171.242 188.437, 172.204 190.549 C 173 192.296, 174.121 193, 176.105 193 C 178.346 193, 179.682 191.894, 182.945 187.337 C 185.176 184.222, 187.748 179.302, 188.662 176.404 C 190.218 171.468, 190.214 170.850, 188.609 166.646 C 187.637 164.100, 185.476 161.075, 183.619 159.659 C 179.352 156.404, 168.887 153.004, 163.085 152.986 C 155.387 152.963, 153.847 152.207, 154.196 148.619 C 154.498 145.521, 154.543 145.498, 160.876 145.199 C 164.714 145.018, 169.014 145.498, 171.676 146.405 C 182.839 150.209, 184.465 141.017, 173.444 136.412 C 171.485 135.594, 166.688 135, 162.032 135 L 154 135 154 129.482 L 154 123.964 178.250 124.232 L 202.500 124.500 202.820 127.844 C 203.209 131.897, 199.508 137.996, 195.069 140.618 C 191.616 142.658, 190.915 143.960, 191.685 146.904 C 192.083 148.425, 193.030 149, 195.137 149 C 201.523 149, 211.777 139.438, 214.034 131.379 C 215.156 127.369, 215.083 126.310, 213.402 122.274 C 209.850 113.745, 210.266 113.845, 177.389 113.611 C 161.500 113.498, 137.700 113.661, 124.500 113.973 M 139.750 163.662 C 140.438 163.940, 141.563 163.940, 142.250 163.662 C 142.938 163.385, 142.375 163.158, 141 163.158 C 139.625 163.158, 139.063 163.385, 139.750 163.662 M 133.813 164.683 C 134.534 164.972, 135.397 164.936, 135.729 164.604 C 136.061 164.272, 135.471 164.036, 134.417 164.079 C 133.252 164.127, 133.015 164.364, 133.813 164.683 M 123.813 165.683 C 124.534 165.972, 125.397 165.936, 125.729 165.604 C 126.061 165.272, 125.471 165.036, 124.417 165.079 C 123.252 165.127, 123.015 165.364, 123.813 165.683 M 132.502 175.182 C 129.203 175.721, 126.359 176.308, 126.181 176.485 C 126.004 176.662, 126.963 179.663, 128.312 183.154 C 129.661 186.644, 131.019 190.263, 131.330 191.195 C 131.930 192.996, 137.134 194.400, 141.119 193.837 C 143.436 193.509, 143.500 193.246, 143.500 184 C 143.500 173.050, 143.844 173.326, 132.502 175.182" stroke="none" fill="black" fill-rule="evenodd"/>
</svg>