<svg xmlns="http://www.w3.org/2000/svg" width="300" height="300" viewBox="0 0 300 300" version="1.1">
	<path d="M 191.500 24.604 C 187.545 25.590, 176.638 26.381, 159.500 26.926 C 121.722 28.127, 109.309 29.883, 104.169 34.757 C 102.654 36.194, 101 35.545, 101 33.514 C 101 31.971, 96.357 28, 94.554 28 C 93.907 28, 92.392 28.918, 91.189 30.039 C 88.441 32.598, 88.401 35.878, 90.935 50.407 C 91.999 56.508, 93.598 66.225, 94.488 72 C 96.774 86.843, 96.760 86.796, 99.584 88.647 C 102.049 90.262, 102.227 90.227, 104.818 87.636 C 107.247 85.206, 107.495 84.271, 107.442 77.726 C 107.410 73.752, 107.076 69.311, 106.700 67.858 L 106.016 65.217 110.183 66.274 C 113.166 67.031, 117.530 67.001, 125.537 66.166 C 131.689 65.525, 139.427 65, 142.731 65 C 146.035 65, 152.734 64.289, 157.619 63.420 C 162.504 62.551, 169.200 61.445, 172.500 60.963 C 179.711 59.910, 182.572 57.349, 180.824 53.514 C 178.844 49.168, 175.362 48.572, 159.680 49.895 C 151.881 50.553, 139.631 51.514, 132.457 52.031 C 118.651 53.026, 111.039 54.749, 107.899 57.591 C 106.848 58.543, 105.843 59.136, 105.667 58.911 C 105.491 58.685, 104.922 55.275, 104.402 51.334 L 103.457 44.168 111.479 43.501 C 115.890 43.134, 122.425 42.430, 126 41.937 C 129.575 41.443, 137.675 41.018, 144 40.991 C 155.795 40.941, 190.315 38.516, 195.264 37.390 C 197.340 36.918, 197.920 37.103, 197.592 38.131 C 197.352 38.884, 196.381 41.975, 195.435 45 C 193.787 50.269, 189.118 61.291, 186.752 65.500 C 181.414 74.992, 178.890 81.077, 179.497 82.990 C 180.437 85.951, 184.159 87.521, 186.839 86.086 C 188.861 85.004, 189.986 83.353, 200.268 66.374 C 210.964 48.713, 214.054 33.450, 208.250 26.954 C 204.856 23.156, 200.024 22.478, 191.500 24.604 M 111.840 85.220 C 108.341 86.386, 106.444 90.093, 107.928 92.865 C 110.402 97.489, 113.366 98.003, 138.211 98.125 C 162.328 98.242, 167.866 97.585, 171.843 94.137 C 174.072 92.203, 174.851 86.644, 173.048 85.530 C 171.511 84.580, 114.624 84.292, 111.840 85.220 M 154.913 108.282 C 152.849 109.867, 151 113.382, 151 115.723 C 151 116.743, 151.909 119.359, 153.019 121.538 C 154.941 125.308, 154.954 125.561, 153.269 126.795 C 151.335 128.212, 140.604 131.515, 134.925 132.442 C 132.824 132.785, 130.190 134.236, 128.534 135.965 C 125.998 138.612, 125.834 139.186, 126.890 141.735 C 127.855 144.065, 127.758 145.178, 126.342 148.016 C 124.983 150.741, 124.464 155.663, 123.868 171.482 C 123.454 182.492, 122.635 202.750, 122.049 216.500 C 120.687 248.457, 121.049 252.049, 126.146 257.146 C 130.673 261.673, 134.032 262.074, 141 258.918 C 146.036 256.638, 154.708 248.010, 155.621 244.373 C 155.949 243.068, 156.506 242.010, 156.858 242.022 C 157.791 242.053, 164.589 251.746, 167.769 257.579 C 169.271 260.334, 172.030 265.389, 173.899 268.812 C 177.457 275.328, 180.640 277.373, 183.513 274.989 C 189.169 270.295, 175.638 242.254, 159.423 225.065 C 152.077 217.278, 148.543 215.538, 146.300 218.603 C 144.602 220.922, 145.269 223.938, 148.589 228.955 L 151.099 232.747 148.299 235.779 C 146.760 237.447, 144.491 240.159, 143.257 241.805 C 142.023 243.452, 139.663 245.270, 138.012 245.846 C 135.234 246.814, 134.962 246.697, 134.352 244.265 C 133.633 241.401, 134.616 202.617, 135.615 194.440 C 136.215 189.532, 136.321 189.393, 139.140 189.807 C 143.093 190.387, 153.859 184.827, 160.550 178.750 C 163.427 176.137, 166.660 174, 167.735 174 C 168.810 174, 170.465 173.144, 171.411 172.098 C 173.773 169.488, 178 156.636, 178 152.064 C 178 150.005, 178.900 144.801, 180 140.500 C 182.847 129.368, 182.657 125.915, 178.981 121.979 C 176.163 118.963, 175.644 118.790, 171.201 119.379 L 166.440 120.011 165.104 115.487 C 163.843 111.216, 160.075 106.962, 157.615 107.032 C 157.002 107.049, 155.786 107.612, 154.913 108.282 M 221.500 111.086 C 217.650 111.517, 212.928 112.349, 211.007 112.935 C 209.085 113.521, 206.328 114, 204.880 114 C 203.202 114, 200.771 115.390, 198.178 117.833 L 194.108 121.665 194.568 130.583 C 194.820 135.487, 195.706 151.650, 196.536 166.500 C 197.366 181.350, 198.492 206.775, 199.038 223 C 199.585 239.225, 200.309 257.712, 200.648 264.081 C 201.038 271.409, 200.824 278.191, 200.065 282.546 C 198.978 288.788, 199.031 289.549, 200.624 290.715 C 202.861 292.350, 207.133 292.367, 209.268 290.750 C 210.280 289.983, 211.586 286.054, 212.648 280.582 C 214.287 272.134, 214.288 270.053, 212.661 241.082 C 211.717 224.262, 210.956 205.387, 210.972 199.137 C 211.008 184.657, 207.238 133.313, 205.964 130.933 C 204.342 127.903, 204.862 127.002, 208.250 126.964 C 210.037 126.945, 214.200 126.277, 217.500 125.480 C 224.144 123.876, 228.001 123.608, 227.999 124.750 C 227.998 125.162, 226.986 126.701, 225.749 128.169 C 224.512 129.637, 222.600 132.073, 221.500 133.581 C 220.400 135.090, 218.262 137.888, 216.750 139.800 C 215.238 141.711, 214 143.629, 214 144.061 C 214 144.990, 219.839 152.791, 224.911 158.637 C 229.296 163.691, 234.650 172.543, 235.539 176.206 C 236.105 178.543, 235.833 179.004, 233.543 179.579 C 229.708 180.541, 223.999 179.376, 220.738 176.964 C 217.223 174.365, 213.925 174.745, 212.343 177.931 C 210.718 181.201, 212.613 184.816, 217.723 188.198 C 228.258 195.169, 244.477 192.921, 248.533 183.927 C 250.154 180.331, 250.210 179.332, 249.047 174.697 C 248.329 171.839, 247.397 169.050, 246.976 168.500 C 246.554 167.950, 244.999 165.320, 243.519 162.655 C 242.040 159.990, 238.393 154.656, 235.415 150.801 C 232.437 146.947, 230 143.445, 230 143.018 C 230 142.592, 232.858 139.151, 236.352 135.372 C 239.846 131.592, 243.446 127.060, 244.352 125.300 C 249.970 114.391, 241.125 108.890, 221.500 111.086 M 88.898 114.491 C 83.529 117.287, 75.215 128.655, 67.129 144.251 C 59.419 159.123, 59.428 165.301, 67.165 169.456 C 70.353 171.168, 71.564 171.287, 76.867 170.411 L 82.926 169.408 80.254 172.954 C 78.785 174.904, 77.227 176.650, 76.791 176.833 C 76.356 177.017, 76 177.622, 76 178.179 C 76 178.735, 73.527 182.908, 70.504 187.451 C 63.746 197.607, 62.828 201.124, 66.041 204.543 C 68.696 207.370, 73.373 207.787, 78.349 205.641 C 84.665 202.916, 87.609 201.690, 93.076 199.509 L 98.652 197.285 96.860 203.392 C 94.375 211.856, 90.182 222.977, 87.957 227 C 87.501 227.825, 85.907 230.975, 84.415 234 C 82.924 237.025, 78.282 244.783, 74.102 251.241 C 67.585 261.306, 66.125 262.983, 63.872 262.991 C 60.115 263.004, 58.639 265.272, 59.280 270.049 C 60.010 275.494, 61.501 277, 66.160 277 C 69.507 277, 70.734 276.322, 74.618 272.326 C 79.472 267.331, 87.145 256.104, 93.869 244.160 C 96.141 240.124, 98 236.646, 98 236.432 C 98 236.219, 99.504 232.771, 101.343 228.772 C 106.839 216.813, 111.157 203.333, 112.523 193.869 C 113.809 184.960, 109.342 171.152, 105.390 171.819 C 102.687 172.276, 101.177 174.638, 100.438 179.568 C 99.861 183.410, 99.378 184.032, 95.879 185.432 C 93.726 186.293, 90.202 187.394, 88.046 187.878 L 84.127 188.759 86.710 184.629 C 88.130 182.358, 90.464 179.077, 91.896 177.337 C 93.328 175.598, 96.750 170.957, 99.500 167.023 C 102.250 163.090, 106.203 157.645, 108.284 154.923 C 114.623 146.631, 118.101 139.943, 118.699 134.897 C 119.242 130.308, 119.149 130.076, 116.505 129.412 C 114.198 128.833, 113.220 129.277, 110.563 132.109 C 108.814 133.974, 107.121 136.197, 106.800 137.048 C 106.313 138.343, 97.441 150.554, 94.957 153.349 C 94.542 153.816, 90.740 154.586, 86.509 155.061 C 82.278 155.535, 77.983 156.188, 76.964 156.511 C 75.329 157.030, 75.211 156.751, 75.964 154.126 C 76.894 150.883, 81.883 141.924, 88.007 132.500 C 97.163 118.412, 98.185 116.268, 96.802 114.054 C 95.202 111.493, 94.588 111.527, 88.898 114.491 M 160 138.206 C 149.651 142.885, 142.893 145, 138.285 145 C 135.928 145, 134 145.170, 134 145.378 C 134 145.586, 134.664 147.345, 135.475 149.286 L 136.950 152.817 143.725 150.508 C 147.451 149.238, 153.936 147.409, 158.135 146.444 L 165.771 144.688 166.389 140.181 C 166.729 137.702, 166.893 135.582, 166.753 135.470 C 166.614 135.358, 163.575 136.589, 160 138.206 M 163 157.938 C 162.175 158.420, 158.575 159.772, 155 160.942 C 151.425 162.112, 147.600 163.503, 146.500 164.033 C 145.400 164.563, 142.700 165.603, 140.500 166.344 C 136.512 167.688, 136.499 167.710, 136.197 173.443 L 135.894 179.193 143.924 174.856 C 148.340 172.471, 153.877 168.802, 156.227 166.704 C 158.577 164.606, 161.512 162.475, 162.750 161.969 C 164.040 161.442, 165 160.185, 165 159.025 C 165 156.733, 165.032 156.750, 163 157.938" stroke="none" fill="black" fill-rule="evenodd"/>
</svg>