<svg xmlns="http://www.w3.org/2000/svg" width="300" height="300" viewBox="0 0 300 300" version="1.1">
	<path d="M 171.743 31.084 C 169.137 32.602, 166.029 39.344, 164.455 46.896 C 162.627 55.659, 161.033 60.038, 155.995 70.130 C 151.235 79.665, 151.191 79.743, 144.676 90.520 C 138.956 99.982, 135.723 104.840, 133.504 107.311 C 132.609 108.308, 132.017 110.108, 132.189 111.311 C 132.693 114.853, 137.728 114.515, 159.525 109.476 C 170.511 106.936, 181.342 104.511, 183.594 104.087 L 187.688 103.317 185.930 107.942 C 183.435 114.509, 182.379 123.392, 178.850 167.500 C 176.330 199.002, 175.649 213.806, 175.309 244.500 C 174.920 279.671, 175.023 282.760, 176.694 285.989 C 178.990 290.424, 182.895 291.954, 186.274 289.740 L 188.703 288.149 189.365 253.324 C 189.729 234.171, 190.300 214.843, 190.635 210.373 L 191.243 202.247 201.871 201.615 C 222.554 200.386, 235.398 198.233, 248.631 193.778 C 254.525 191.793, 255.497 191.114, 256.178 188.502 C 256.819 186.043, 256.521 185.066, 254.518 183.063 L 252.077 180.622 239.515 182.360 C 232.607 183.317, 221.677 184.719, 215.227 185.476 C 208.777 186.234, 202.233 187.336, 200.685 187.927 C 199.137 188.517, 196.560 189, 194.960 189 C 192.345 189, 192.095 188.721, 192.490 186.250 C 192.733 184.737, 193.205 180.068, 193.539 175.873 L 194.148 168.246 199.824 167.067 C 202.946 166.419, 210.675 165.006, 217 163.928 C 233.343 161.143, 247.565 156.594, 249.589 153.504 C 251.940 149.917, 250.317 145.820, 245.978 144.386 C 243.388 143.530, 241.319 143.592, 237.053 144.653 C 233.999 145.413, 226.550 146.940, 220.500 148.045 C 214.450 149.151, 206.425 150.981, 202.668 152.112 C 198.910 153.243, 195.672 154.005, 195.472 153.805 C 195.272 153.606, 195.538 148.955, 196.062 143.471 C 196.586 137.987, 196.956 128.298, 196.884 121.940 C 196.783 113.031, 197.125 109.659, 198.376 107.239 C 199.269 105.512, 200 102.938, 200 101.518 C 200 100.099, 200.563 98.761, 201.250 98.545 C 201.938 98.329, 206.967 96.753, 212.427 95.041 C 224.718 91.188, 229.337 88.647, 231.563 84.514 C 233.521 80.877, 232.955 76.580, 230.387 75.595 C 229.491 75.251, 226.449 76.047, 223.629 77.365 C 216.661 80.618, 160.259 98.016, 156.720 98.003 C 156.290 98.001, 158.121 94.737, 160.789 90.750 C 165.939 83.052, 173.209 69.101, 176.814 60 C 181.307 48.655, 181.303 35.732, 176.804 31.830 C 174.386 29.733, 174.129 29.695, 171.743 31.084 M 83.090 88.900 C 80.665 89.884, 76.976 92.516, 74.893 94.749 C 71.129 98.784, 71.096 98.796, 69.668 96.655 C 65.432 90.305, 63.440 89.238, 58.363 90.601 C 56.388 91.131, 54.030 95.188, 52.524 100.645 C 51.787 103.317, 54.271 106.004, 56.854 105.328 C 60.635 104.339, 61.519 114.542, 61.318 156.849 L 61.135 195.197 58.403 199.140 L 55.671 203.082 57.685 205.791 C 60.696 209.842, 65.957 210.028, 69.180 206.198 C 71.119 203.894, 72.663 203.191, 76.619 202.811 C 79.754 202.509, 85.013 200.658, 90.756 197.833 L 99.901 193.335 100.201 197.418 C 100.488 201.330, 100.652 201.513, 104.157 201.805 C 109.583 202.257, 112.424 198.046, 114.498 186.479 C 116.290 176.487, 116.334 173.432, 114.967 154 C 114.445 146.575, 114.006 135.325, 113.991 129 C 113.953 112.155, 111.271 101.695, 104.715 92.828 C 100.615 87.283, 91.265 85.585, 83.090 88.900 M 80.121 104 C 76.717 106.200, 73.477 108, 72.921 108 C 72.331 108, 72.144 109.355, 72.471 111.250 C 74.265 121.634, 74.963 129.873, 74.980 140.882 L 75 153.263 78.750 152.715 C 80.813 152.414, 86.550 151.596, 91.500 150.898 L 100.500 149.629 100.193 134.064 C 99.550 101.435, 94.890 94.455, 80.121 104 M 92 164.015 C 86.775 165.570, 80.876 167.111, 78.890 167.440 C 75.293 168.036, 75.279 168.058, 74.640 174.166 C 74.288 177.536, 74 182.301, 74 184.755 C 74 189.122, 74.059 189.202, 76.750 188.533 C 81.836 187.269, 92.207 182.788, 97.123 179.733 L 102 176.701 102 168.851 C 102 164.533, 101.888 161.042, 101.750 161.094 C 101.612 161.146, 97.225 162.460, 92 164.015" stroke="none" fill="black" fill-rule="evenodd"/>
</svg>