<svg xmlns="http://www.w3.org/2000/svg" width="300" height="300" viewBox="0 0 300 300" version="1.1">
	<path d="M 171.500 31.591 C 158.784 33.354, 134.794 38.839, 127.414 41.671 C 126.591 41.987, 125.833 41.183, 125.427 39.565 C 125.066 38.125, 123.867 36.464, 122.763 35.873 C 121.147 35.008, 120.342 35.213, 118.628 36.925 C 115.459 40.090, 115.089 57.933, 117.851 74.398 C 118.967 81.054, 120.176 88.744, 120.537 91.487 C 121.449 98.415, 123.426 101.724, 127.774 103.603 C 131.047 105.017, 135.244 105.133, 162.304 104.560 C 196.519 103.836, 198.723 103.452, 198.093 98.329 C 198.014 97.685, 199.068 95.951, 200.436 94.475 C 203.171 91.523, 204.968 87.965, 210.522 74.500 C 215.990 61.243, 217.189 56.346, 216.685 49.324 C 215.924 38.712, 211.143 34.362, 197.230 31.626 C 187.588 29.730, 184.942 29.727, 171.500 31.591 M 169 44.533 C 164.875 45.336, 157.675 46.867, 153 47.935 C 148.325 49.002, 143.150 50.099, 141.500 50.373 C 139.850 50.646, 136.341 51.829, 133.702 53.003 L 128.904 55.136 129.202 60.818 L 129.500 66.500 164.636 66.763 L 199.773 67.025 201.320 63.157 C 202.171 61.030, 203.176 56.564, 203.553 53.232 L 204.239 47.175 200.869 45.383 C 196.355 42.983, 179.294 42.528, 169 44.533 M 157.642 78.749 L 130.784 79.033 131.357 82.267 C 131.672 84.045, 132.220 87.793, 132.573 90.596 L 133.217 95.691 137.358 94.096 C 140.810 92.766, 145.583 92.537, 166 92.723 L 190.500 92.946 192.739 88.223 C 193.970 85.625, 195.257 82.263, 195.597 80.750 L 196.217 78 190.358 78.233 C 187.136 78.361, 172.414 78.594, 157.642 78.749 M 215.659 122.620 C 210.710 125.302, 189.652 127.092, 151.500 128.074 C 108.181 129.188, 91.805 130.943, 87.576 134.924 C 82.818 139.402, 85.376 144.460, 92.075 143.821 L 95.827 143.464 96.427 148.482 C 97.168 154.690, 95.431 194.324, 94.059 202.500 C 93.506 205.800, 92.619 212.100, 92.089 216.500 C 88.975 242.372, 81.220 273.447, 75.794 281.800 C 72.376 287.061, 72.276 289.275, 75.381 290.936 C 79.882 293.345, 84.764 290.387, 88.480 283 C 95.810 268.429, 101.038 244.523, 106.959 198.500 C 109.500 178.748, 109.766 153.424, 107.500 147 C 106.675 144.662, 106 142.622, 106 142.468 C 106 141.559, 119.888 140.851, 154 140.018 C 190.915 139.118, 209.355 137.924, 217.098 135.935 C 224.755 133.968, 228.308 127.308, 224 123 C 221.628 120.628, 219.512 120.532, 215.659 122.620 M 158.161 158.547 C 157.522 159.948, 156.997 163.210, 156.994 165.797 C 156.982 175.523, 152.759 195.168, 147.706 209 C 142.384 223.569, 124.258 257.599, 116.013 268.500 C 111.142 274.941, 110.402 277.438, 112.440 280.549 C 114.947 284.374, 118.594 283.768, 123.257 278.750 C 127.454 274.234, 133 266.634, 133 265.399 C 133 264.991, 133.633 263.947, 134.407 263.079 C 135.181 262.210, 139.080 255.200, 143.072 247.500 C 147.064 239.800, 150.438 233.355, 150.571 233.177 C 150.818 232.846, 165.809 245.110, 176.500 254.390 C 179.800 257.255, 186.276 262.501, 190.892 266.049 C 218.001 286.889, 224.378 290.307, 229.250 286.608 C 230.213 285.877, 230.987 284.204, 230.971 282.890 C 230.936 280.074, 226.181 274.510, 222.927 273.477 C 220.166 272.601, 209.475 264.790, 194 252.344 C 177.621 239.170, 175.275 237.243, 168 230.986 C 164.425 227.911, 160.300 224.484, 158.833 223.369 L 156.167 221.343 158.152 216.922 C 162.306 207.669, 165.178 196.758, 167.512 181.357 C 168.286 176.247, 165.345 159.488, 163.317 157.460 C 161.171 155.314, 159.470 155.672, 158.161 158.547" stroke="none" fill="black" fill-rule="evenodd"/>
</svg>