<svg xmlns="http://www.w3.org/2000/svg" width="300" height="300" viewBox="0 0 300 300" version="1.1">
	<path d="M 178 32.050 C 170.025 33.054, 160.350 33.915, 156.500 33.965 C 150.608 34.042, 148.562 34.566, 143.577 37.278 C 138.599 39.986, 137.045 41.410, 135.333 44.833 C 135.242 45.017, 134.229 44.229, 133.083 43.083 C 130.879 40.879, 128.401 40.460, 126.117 41.906 C 124.262 43.082, 124.386 52.354, 126.350 59.210 C 129.096 68.799, 129.929 76.297, 130.105 93 C 130.200 102.075, 130.679 110.283, 131.169 111.240 C 132.415 113.674, 137.286 115.996, 141.200 116.021 C 146.804 116.057, 182.233 110.992, 187.134 109.454 C 189.683 108.654, 192.652 108, 193.731 108 C 196.104 108, 202.379 102.102, 204.623 97.762 C 210.328 86.730, 212.785 73.467, 213.221 51.341 C 213.488 37.778, 213.404 37.079, 211.214 34.739 C 206.446 29.641, 200.791 29.183, 178 32.050 M 181 44.116 C 177.975 44.593, 170.223 45.381, 163.772 45.867 C 153.543 46.638, 151.142 47.183, 144.980 50.126 C 136.984 53.945, 137.218 53.146, 140.111 66.682 C 141.346 72.465, 141.595 72.839, 143.966 72.479 C 145.360 72.268, 153.285 71.841, 161.579 71.532 C 175.538 71.011, 186.193 69.577, 195.108 67.019 C 198.641 66.006, 198.730 65.855, 199.358 59.845 C 199.711 56.469, 200 51.298, 200 48.353 L 200 43 193.250 43.125 C 189.537 43.193, 184.025 43.639, 181 44.116 M 189.507 81.557 C 181.645 84.061, 157.758 86.512, 148.055 85.810 L 142 85.372 142 93.686 C 142 103.382, 140.986 102.871, 155.500 100.487 C 160.450 99.674, 170.575 98.533, 178 97.952 C 187.929 97.175, 191.806 96.495, 192.658 95.382 C 193.863 93.809, 197.518 80.123, 196.869 79.617 C 196.666 79.459, 193.353 80.332, 189.507 81.557 M 63.500 94.634 C 56.921 96.266, 54.804 97.385, 53.926 99.694 L 52.976 102.192 51.176 99.969 C 49.918 98.415, 48.763 97.940, 47.340 98.392 C 43.002 99.769, 42.658 102.522, 41.898 142 C 41.501 162.625, 40.693 183.028, 40.101 187.340 C 39.032 195.136, 39.571 198.357, 42.086 199.195 C 42.892 199.464, 42.879 200.736, 42.036 203.865 C 40.392 209.971, 42.416 213, 48.138 213 C 53.640 213, 71.705 204.327, 75.435 199.895 C 76.924 198.125, 79.541 195.962, 81.250 195.088 C 82.959 194.215, 85.290 192.228, 86.429 190.674 C 88.441 187.928, 88.500 186.725, 88.500 148.174 C 88.500 94.939, 88.419 94.647, 73.646 94.319 C 69.166 94.220, 64.600 94.361, 63.500 94.634 M 60.897 106.234 L 54.294 107.197 53.652 118.349 C 53.298 124.482, 53.007 132.811, 53.005 136.857 C 53 143.485, 53.173 144.139, 54.750 143.460 C 57.937 142.088, 68.438 140.042, 72.401 140.021 L 76.302 140 75.656 130.250 C 75.301 124.888, 75.008 117.013, 75.005 112.750 L 75 105 71.250 105.136 C 69.188 105.210, 64.529 105.705, 60.897 106.234 M 138.781 120.250 C 137.900 120.938, 135.764 125.100, 134.034 129.500 C 132.304 133.900, 129.850 139.075, 128.580 141 C 126.163 144.662, 117.224 158.886, 115.500 161.813 C 112.076 167.625, 102.928 180.815, 101.497 182.002 C 100.559 182.781, 99.379 184.504, 98.874 185.831 C 97.608 189.162, 99.397 191, 103.907 191 C 107.001 191, 108.375 190.183, 112.780 185.723 C 115.646 182.820, 120.602 176.704, 123.792 172.131 C 129.459 164.006, 129.694 163.809, 134.046 163.519 C 136.822 163.334, 141.689 161.623, 146.963 158.979 C 151.618 156.645, 158.368 154.103, 161.963 153.330 C 185.660 148.238, 187.454 148.002, 204.318 147.753 L 221.443 147.500 222.883 150.473 C 225.831 156.559, 225.554 182.683, 222.024 231.500 C 219.886 261.075, 217.676 271.597, 212.521 276.752 C 210.271 279.001, 209.729 279.130, 207.101 278.042 C 203.714 276.639, 200.503 277.839, 199.542 280.867 C 197.815 286.308, 206.310 292.915, 213.338 291.596 C 218.476 290.632, 227.072 281.966, 229.408 275.394 C 234.831 260.137, 237.500 229.500, 237.500 182.500 C 237.500 150.589, 237.428 149.352, 235.311 145 C 232.338 138.887, 230.072 136.674, 225.107 135.035 C 217.863 132.644, 188.180 135.545, 158 141.592 C 153.600 142.474, 144.603 146.317, 141.250 148.747 C 139.463 150.042, 138 150.655, 138 150.110 C 138 149.564, 138.429 148.853, 138.953 148.529 C 139.477 148.205, 141.727 144.302, 143.953 139.854 C 148.764 130.242, 149.392 123.942, 145.847 120.867 C 143.341 118.694, 141.032 118.492, 138.781 120.250 M 182.769 152.703 C 179.884 155.891, 179 159.921, 179 169.881 C 179 175.245, 178.511 182.303, 177.914 185.566 C 176.140 195.251, 168.077 220.959, 164.134 229.500 C 163.119 231.700, 161.977 234.788, 161.597 236.362 C 161.217 237.936, 158.853 243.472, 156.344 248.663 C 151.658 258.362, 144.586 266.971, 141.256 267.032 C 136.901 267.111, 134.248 272.848, 137.200 275.800 C 137.862 276.462, 141.041 277, 144.287 277 C 150.146 277, 150.204 276.971, 156.672 270.759 C 163.882 263.836, 168.191 256.818, 174.172 242.257 C 189.290 205.452, 194.474 181.661, 191.768 161.500 L 190.427 151.500 187.412 151.201 C 185.481 151.010, 183.812 151.550, 182.769 152.703 M 69 153.468 C 66.525 154.177, 62.025 155.600, 59 156.629 L 53.500 158.500 52.767 171.500 C 51.897 186.923, 50.609 194.534, 48.515 196.628 C 46.026 199.117, 47.741 199.988, 52.275 198.537 C 60.192 196.003, 63.497 194.564, 67.800 191.781 C 70.165 190.252, 72.335 189, 72.622 189 C 73.916 189, 75.818 186.105, 76.469 183.143 C 77.545 178.240, 75.984 151.981, 74.622 152.089 C 74.005 152.139, 71.475 152.759, 69 153.468 M 157.364 158.170 C 154.561 159.527, 153.333 162.407, 152.491 169.597 C 151.618 177.052, 145.976 195.357, 140.344 209 C 134.292 223.663, 134.697 229.624, 141.690 228.822 C 144.201 228.534, 145.160 227.173, 150.703 216.018 C 158.577 200.172, 161.554 191.738, 164.708 176.336 L 167.236 163.998 164.567 160.499 C 161.750 156.806, 160.809 156.502, 157.364 158.170" stroke="none" fill="black" fill-rule="evenodd"/>
</svg>