<svg xmlns="http://www.w3.org/2000/svg" width="300" height="300" viewBox="0 0 300 300" version="1.1">
	<path d="M 162 28.144 C 155.587 29.206, 135.136 33.580, 129.884 35.013 C 127.895 35.556, 124.745 36.020, 122.884 36.044 C 121.023 36.068, 117.700 36.735, 115.500 37.526 C 111.995 38.786, 111.363 38.781, 110.392 37.486 C 109.783 36.672, 107.981 35.746, 106.388 35.428 C 102.774 34.705, 99.007 38.268, 98.814 42.594 C 98.681 45.565, 100.394 59.434, 101.870 67.335 C 102.322 69.755, 102.483 73.163, 102.227 74.907 C 101.937 76.886, 102.327 78.722, 103.264 79.789 C 104.091 80.730, 105.535 84.200, 106.473 87.500 C 107.411 90.800, 108.884 94.287, 109.745 95.250 C 111.351 97.046, 115.574 97.558, 117.687 96.214 C 119.983 94.754, 120.973 90.176, 120.054 85.260 C 119.565 82.643, 119.302 80.365, 119.468 80.198 C 119.635 80.032, 129.549 79.452, 141.499 78.909 C 153.449 78.367, 166.663 77.265, 170.863 76.462 C 175.063 75.658, 178.845 75, 179.267 75 C 180.727 75, 175.108 84.508, 172.471 86.500 C 171.015 87.600, 168.741 89.490, 167.417 90.699 C 165.523 92.430, 162.934 93.129, 155.255 93.981 C 149.890 94.576, 137.655 96.350, 128.066 97.923 C 109.389 100.987, 108 101.623, 108 107.119 C 108 111.421, 112.094 114.003, 118.885 113.985 C 124.319 113.970, 137.514 111.845, 153 108.490 C 157.125 107.596, 164.775 106.610, 170 106.299 C 175.225 105.988, 180.063 105.288, 180.750 104.744 C 181.438 104.200, 182 102.235, 182 100.378 C 182 98.357, 181.498 96.989, 180.750 96.973 C 180.063 96.958, 180.954 95.721, 182.730 94.223 C 193.588 85.070, 198.897 71.708, 199.705 51.500 L 200.225 38.500 196.443 34.625 C 190.694 28.734, 186.031 27.027, 176 27.139 C 171.325 27.191, 165.025 27.644, 162 28.144 M 161.012 43.143 C 157.993 43.643, 149.668 45.329, 142.512 46.889 C 135.355 48.450, 126.231 50.312, 122.235 51.027 L 114.971 52.326 115.553 55.913 C 115.873 57.886, 116.372 60.771, 116.663 62.323 L 117.191 65.147 126.846 64.590 C 132.156 64.284, 141.675 63.770, 148 63.448 C 160.966 62.788, 178.298 60.597, 182.151 59.133 C 184.081 58.399, 184.869 57.214, 185.345 54.329 C 186.496 47.362, 186.132 44.141, 184.066 43.035 C 181.765 41.804, 168.729 41.865, 161.012 43.143 M 138 118.794 C 135.653 119.130, 127.910 124.449, 127.156 126.244 C 126.281 128.326, 100.617 146.454, 87.870 153.994 C 80.204 158.528, 78.555 161.483, 79.907 168.269 C 80.480 171.146, 81.146 191.950, 81.386 214.500 C 81.687 242.642, 82.197 256.521, 83.012 258.756 C 84.998 264.200, 91.712 264.392, 94.457 259.083 C 95.608 256.856, 95.952 249.170, 96.194 220.229 L 96.495 184.151 99.373 183.575 C 100.955 183.259, 105.348 183, 109.134 183 C 118.188 183, 136.200 178.926, 164 170.591 C 168.675 169.189, 173.275 168.033, 174.223 168.021 C 175.170 168.009, 180.570 166.442, 186.223 164.539 C 191.875 162.635, 198.382 160.782, 200.683 160.422 L 204.865 159.766 205.586 163.605 C 207.232 172.379, 202.376 265.180, 199.869 272.860 C 198.810 276.103, 198.634 276.197, 194.760 275.578 C 188.902 274.641, 185.786 276.908, 186.193 281.810 C 186.471 285.148, 186.977 285.729, 191.500 287.896 C 197.577 290.808, 204.190 290.969, 207.893 288.294 C 209.327 287.258, 211.802 283.826, 213.393 280.668 C 216.079 275.335, 216.422 273.303, 218.190 252.212 C 219.264 239.409, 220.348 214.767, 220.676 195.732 C 221.207 164.958, 221.101 161.553, 219.486 157.323 C 217.189 151.308, 213.499 147.528, 208.451 146.016 C 204.902 144.954, 203.111 145.124, 193.951 147.397 C 178.225 151.300, 155.616 157.418, 145.500 160.510 C 140.550 162.023, 134.475 163.610, 132 164.037 C 124.791 165.282, 103.078 170.892, 100.687 172.127 C 99.484 172.748, 97.710 173.946, 96.744 174.789 C 94.498 176.748, 94.143 176.324, 93.382 170.773 L 92.756 166.204 105.128 158.933 C 119.369 150.562, 135 140.138, 135 139.011 C 135 138.587, 137.696 136.523, 140.992 134.423 C 145.870 131.315, 147.100 129.982, 147.613 127.247 C 148.614 121.914, 144.076 117.925, 138 118.794 M 149.341 197.096 C 142.843 198.181, 134.403 201.471, 130.496 204.442 C 128.338 206.083, 126.596 206.594, 124.306 206.258 C 119.864 205.606, 116 209.479, 116 214.584 C 116 219.068, 120.820 241.040, 122.163 242.681 C 123.366 244.150, 138.693 243.784, 144.591 242.145 C 146.842 241.520, 154.469 240.371, 161.541 239.591 C 175.087 238.098, 177 237.225, 177 232.531 C 177 228.384, 174.328 226.185, 168.388 225.443 L 162.789 224.743 165.326 222.622 C 169.198 219.383, 173 213.053, 173 209.847 C 173 203.859, 167.951 198.584, 160.741 197.038 C 158.079 196.467, 155.586 196.053, 155.201 196.117 C 154.815 196.181, 152.179 196.622, 149.341 197.096 M 148 213 C 146.625 213.440, 143.174 213.845, 140.332 213.900 C 132.079 214.059, 132.086 214.051, 132.719 222.825 C 133.024 227.046, 133.372 230.623, 133.493 230.773 C 133.614 230.924, 135.690 229.917, 138.107 228.535 C 140.523 227.154, 143.464 226.019, 144.642 226.012 C 146.081 226.004, 146.987 225.189, 147.404 223.526 C 147.746 222.166, 149.819 219.276, 152.012 217.105 C 154.206 214.933, 156 212.897, 156 212.578 C 156 211.773, 151.011 212.036, 148 213" stroke="none" fill="black" fill-rule="evenodd"/>
</svg>