<svg xmlns="http://www.w3.org/2000/svg" width="300" height="300" viewBox="0 0 300 300" version="1.1">
	<path d="M 137 34.526 C 127.925 35.855, 119.097 37.669, 117.382 38.557 C 114.358 40.124, 114.186 40.095, 111.677 37.586 C 108.515 34.424, 105.734 34.296, 103.039 37.189 C 100.321 40.106, 100.435 44.547, 103.483 54.440 C 104.848 58.873, 107.121 67, 108.532 72.500 C 109.944 78, 111.559 84.236, 112.122 86.358 C 113.018 89.738, 112.888 90.455, 111.073 92.147 C 108.508 94.536, 108.491 95.652, 110.956 99.696 C 112.365 102.007, 113.920 103.082, 116.572 103.580 C 121.275 104.462, 133.537 103.464, 147.500 101.063 C 168.653 97.426, 170.853 97.514, 165.098 101.769 C 163.503 102.949, 160.512 106.746, 158.452 110.207 C 154.137 117.460, 152.529 119, 149.269 119 C 145.967 119, 139.689 115.603, 136.876 112.293 C 134.113 109.044, 129.117 105, 127.865 105 C 125.873 105, 123 109.193, 123 112.100 C 123 114.287, 123.993 116.193, 126.373 118.573 C 129.079 121.279, 129.425 122.035, 128.123 122.399 C 124.593 123.383, 111.977 125.075, 102.258 125.868 C 93.516 126.580, 91.321 127.132, 87.279 129.631 C 81.988 132.902, 78.870 137.270, 80.595 138.995 C 82.082 140.482, 110.630 138.527, 123.500 136.056 C 129 135, 136.158 133.839, 139.407 133.477 C 142.655 133.114, 146.007 132.551, 146.855 132.225 C 147.947 131.806, 147.727 132.575, 146.100 134.860 C 144.576 136.999, 143.620 140.098, 143.261 144.059 C 142.767 149.511, 142.491 150.079, 140.110 150.562 C 138.674 150.854, 134.316 151.960, 130.424 153.021 C 126.532 154.081, 119.702 155.357, 115.246 155.855 C 106.199 156.868, 101.445 159.379, 100.355 163.722 C 99.631 166.608, 101.892 169, 105.345 169 C 106.980 169, 106.705 169.585, 103.690 172.512 C 101.701 174.444, 98.168 179.281, 95.839 183.262 C 92.530 188.916, 91.511 191.759, 91.181 196.252 C 90.699 202.820, 91.452 204.169, 97.238 207.122 C 100.517 208.794, 103.210 209.105, 114.805 209.150 C 122.337 209.180, 130.278 208.866, 132.452 208.453 L 136.404 207.702 132.988 212.101 C 125.442 221.818, 96.454 249.520, 87.993 255.101 C 78.290 261.501, 72.029 265.061, 67 267.039 C 60.567 269.569, 59.177 273.177, 63.117 277.117 C 66.010 280.010, 71.339 279.259, 81 274.598 C 93.081 268.769, 96.741 266.456, 106.720 258.347 C 115.764 250.998, 136.848 229.578, 142.707 221.786 C 144.243 219.744, 145.773 218.056, 146.107 218.036 C 146.736 217.999, 147.074 222.208, 149.476 259.900 C 150.721 279.454, 150.718 282.564, 149.451 284.373 C 147.561 287.072, 147.613 287.613, 150 290 C 153.025 293.025, 157.334 292.580, 160.411 288.923 C 162.742 286.154, 163 285.017, 163 277.540 C 163 272.971, 162.280 257.593, 161.400 243.367 C 160.521 229.140, 159.733 214.128, 159.650 210.007 L 159.500 202.514 167 200.852 C 171.125 199.939, 176.300 199.152, 178.500 199.104 C 180.700 199.056, 188.451 197.802, 195.725 196.317 C 202.999 194.832, 209.244 193.911, 209.603 194.270 C 209.962 194.629, 209.551 197.077, 208.690 199.711 C 207.828 202.345, 206.678 207.266, 206.134 210.647 C 204.196 222.681, 198.964 231, 193.332 231 C 192.013 231, 188.663 229.849, 185.888 228.443 C 181.626 226.284, 180.582 226.089, 179.171 227.193 C 173.368 231.732, 175.264 236.061, 185.399 241.413 C 191.017 244.380, 199.352 244.913, 203.800 242.589 C 210.820 238.922, 216.708 228.556, 219.431 215.070 C 220.368 210.434, 221.776 204.809, 222.561 202.570 C 224.582 196.805, 225.416 186.069, 224.103 182.702 C 223.430 180.974, 221.658 179.337, 219.471 178.423 C 216.315 177.105, 215.361 177.118, 210.715 178.543 C 202.422 181.086, 183.223 185.015, 174.442 185.965 C 170.010 186.445, 164.766 187.141, 162.789 187.512 C 158.324 188.349, 158.362 188.460, 157.489 171.985 L 156.826 159.470 169.163 157.241 C 175.948 156.016, 184.137 154.727, 187.360 154.378 C 192.502 153.820, 194.176 153.021, 201.038 147.850 C 205.338 144.610, 210.045 140.505, 211.498 138.729 C 212.950 136.953, 214.806 134.680, 215.622 133.677 C 217.915 130.859, 219 127.277, 219 122.524 C 219 118.898, 218.490 117.748, 215.923 115.589 C 213.122 113.232, 212.069 113.003, 204.173 113.031 C 199.403 113.048, 190.117 113.702, 183.537 114.485 C 176.957 115.267, 171.424 115.757, 171.240 115.573 C 171.056 115.390, 172.245 113.256, 173.881 110.832 C 177.486 105.489, 178.515 101.831, 177.136 99.254 C 176.251 97.600, 176.599 97.085, 179.551 95.677 C 181.448 94.772, 183 93.366, 183 92.551 C 183 91.736, 184.331 89.707, 185.959 88.042 C 191.409 82.467, 202.034 56.267, 201.978 48.541 C 201.939 43.080, 198.644 37.548, 193.873 34.932 C 189.766 32.679, 188.404 32.520, 171.500 32.322 C 156.879 32.150, 150.403 32.564, 137 34.526 M 157.500 45.073 C 152.550 45.580, 146.055 46.446, 143.066 46.997 C 140.078 47.549, 133.553 48.007, 128.566 48.015 C 116.978 48.035, 116.315 48.428, 118.040 54.270 L 119.362 58.747 122.431 57.467 C 124.420 56.638, 136.234 55.742, 156 54.920 C 175.259 54.120, 186.771 53.256, 187.235 52.576 C 188.394 50.878, 188.121 47.345, 186.742 46.201 C 184.895 44.668, 167.875 44.012, 157.500 45.073 M 147.733 68.494 C 134.112 69.157, 122.719 69.947, 122.418 70.249 C 122.116 70.551, 122.308 72.531, 122.845 74.649 C 123.382 76.767, 124.119 81.088, 124.483 84.250 C 125.265 91.049, 124.180 90.805, 141.350 88.053 C 148.033 86.982, 158.211 85.745, 163.969 85.303 L 174.439 84.500 177.252 80.299 C 178.800 77.989, 180.682 74.051, 181.435 71.549 L 182.804 67 177.652 67.144 C 174.818 67.223, 161.355 67.830, 147.733 68.494 M 196 126.673 C 194.075 126.867, 184.904 127.711, 175.620 128.548 C 166.336 129.384, 158.011 130.616, 157.120 131.285 C 155.918 132.186, 155.514 134.106, 155.556 138.722 C 155.586 142.144, 155.874 145.208, 156.196 145.530 C 156.518 145.851, 161.578 145.402, 167.440 144.532 C 175.916 143.273, 178.893 143.187, 181.979 144.112 C 185.794 145.255, 185.949 145.197, 191.180 140.663 C 197.294 135.364, 199.853 132.624, 202.305 128.750 C 204.255 125.669, 204.654 125.800, 196 126.673 M 129.823 166.723 C 122.862 168.518, 120.289 169.590, 120.655 170.544 C 120.935 171.274, 119.957 172.912, 118.482 174.185 C 117.007 175.458, 114.352 178.750, 112.584 181.500 C 105.577 192.393, 104 194.983, 104 195.599 C 104 195.952, 109.513 196.023, 116.250 195.757 C 130.984 195.173, 146.312 191.688, 145.591 189.085 C 145.350 188.213, 144.849 182.213, 144.478 175.750 C 143.689 162.023, 144.976 162.816, 129.823 166.723" stroke="none" fill="black" fill-rule="evenodd"/>
</svg>