<svg xmlns="http://www.w3.org/2000/svg" width="300" height="300" viewBox="0 0 300 300" version="1.1">
	<path d="M 75.629 20.029 C 72.636 23.586, 71.502 28.515, 72.473 33.750 C 73.497 39.274, 78.947 51.871, 80.749 52.879 C 82.075 53.621, 81.948 53.979, 79.904 55.267 C 73.503 59.303, 62.998 64.214, 56.853 66.044 C 49.804 68.143, 48 69.821, 48 74.279 C 48 79.501, 54.397 81.401, 63.500 78.882 C 65.700 78.273, 73.255 74.919, 80.288 71.428 L 93.076 65.080 92.528 68.290 C 90.919 77.727, 89.860 97.749, 89 135 C 87.816 186.248, 84.842 226.651, 80.900 245.033 C 79.676 250.739, 78.896 250.745, 77.021 245.065 C 75.334 239.951, 72.924 237.761, 69.439 238.175 C 65.245 238.673, 64.378 240.935, 65.788 247.696 C 67.985 258.227, 69.111 261.151, 72.324 264.656 C 79.318 272.288, 88.804 269.486, 92.883 258.583 C 96.752 248.242, 99.958 222.780, 102.111 185.292 C 102.960 170.511, 103.658 164.301, 104.415 164.798 C 121.468 175.999, 132.606 183.492, 133 184.030 C 133.275 184.406, 140.250 189.030, 148.500 194.308 C 156.750 199.585, 164.106 204.433, 164.847 205.082 C 166.638 206.649, 197.885 224.792, 205.500 228.686 C 220.522 236.368, 231.628 241.148, 243.097 244.868 C 273.244 254.646, 284.395 255.320, 289.074 247.647 C 291.399 243.834, 291.501 240.858, 289.455 236.546 C 286.381 230.068, 279.864 229.789, 278.483 236.076 C 277.915 238.664, 277.814 238.694, 272.702 237.787 C 254.620 234.578, 226.085 223.708, 204.976 211.987 C 200.037 209.244, 195.748 207, 195.445 207 C 195.143 207, 191.206 204.583, 186.698 201.630 C 182.189 198.676, 177.150 195.562, 175.500 194.710 C 172.406 193.112, 144.316 174.841, 142.454 173.216 C 141.879 172.714, 140.979 172.122, 140.454 171.901 C 138.849 171.226, 116 155.857, 116 155.453 C 116 155.245, 120.352 151.352, 125.671 146.802 C 143.612 131.456, 156.946 113.147, 156.982 103.807 C 156.996 100.078, 156.543 98.793, 154.777 97.557 C 149.795 94.067, 144.536 97.043, 141.626 105 C 140.721 107.475, 138.635 111.023, 136.990 112.886 C 135.346 114.748, 134 116.568, 134 116.932 C 134 118.552, 112.238 139.343, 105.886 143.792 L 103.689 145.331 104.312 119.416 C 104.654 105.162, 105.499 87.875, 106.190 81 C 108.178 61.214, 107.940 57.723, 104.300 53.266 C 101.377 49.686, 100.948 49.506, 95.612 49.616 L 90 49.732 90 45.014 C 90 39.304, 85.319 20.176, 83.468 18.326 C 81.303 16.160, 78.344 16.803, 75.629 20.029 M 242.500 47 C 240.850 47.420, 235 47.817, 229.500 47.882 C 220.698 47.987, 218.781 48.345, 213.500 50.866 C 210.200 52.441, 206.333 54.829, 204.906 56.173 L 202.312 58.615 201.209 54.492 C 200.443 51.626, 199.314 50.009, 197.506 49.185 C 193.907 47.545, 192.589 47.692, 190.533 49.963 C 188.892 51.777, 188.740 55.478, 188.531 98.713 C 188.406 124.446, 187.959 146.737, 187.536 148.250 C 187.113 149.762, 186.214 151, 185.538 151 C 184.863 151, 183.534 151.858, 182.585 152.906 C 181.127 154.517, 180.970 155.948, 181.570 162.156 C 182.157 168.225, 182.777 170.070, 185.140 172.785 C 186.713 174.591, 188 176.488, 188 177 C 188 178.576, 194.139 185.021, 197.099 186.551 C 200.960 188.548, 204.608 188.372, 218.500 185.522 C 237.120 181.701, 249.213 177.419, 254.081 172.925 C 257.418 169.845, 258.048 168.710, 257.472 166.821 C 255.885 161.622, 252.186 159.760, 247.949 162.028 C 246.176 162.976, 246.110 162.842, 247.090 160.278 C 252.355 146.495, 255.722 118.966, 256.674 81.909 C 257.305 57.387, 257.300 57.306, 254.955 53.133 C 252.950 49.565, 248.096 45.722, 246.096 46.118 C 245.768 46.183, 244.150 46.580, 242.500 47 M 214.548 65.180 C 209.056 66.532, 205.963 66.848, 204.548 66.203 C 202.507 65.273, 202.501 65.369, 202.781 92.635 C 202.935 107.686, 203.160 119.996, 203.281 119.990 C 203.401 119.985, 208.387 118.409, 214.360 116.487 C 226.807 112.483, 235.761 110.820, 238.126 112.075 C 240.249 113.201, 240.765 108.894, 241.640 82.750 L 242.301 63 232.401 63.111 C 226.309 63.179, 219.441 63.975, 214.548 65.180 M 231.316 126.463 C 229.565 127.225, 222.478 129.724, 215.566 132.017 C 203.024 136.179, 203 136.193, 202.983 139.343 C 202.957 144.036, 199.584 158.759, 197.169 164.718 L 195.054 169.936 198.981 171.113 C 203.207 172.379, 210.053 171.601, 224.993 168.157 L 232.487 166.429 232.162 162.665 C 231.984 160.594, 232.286 158.360, 232.834 157.700 C 233.769 156.574, 237.052 140.320, 238.481 129.750 C 239.087 125.261, 238.995 125.002, 236.811 125.039 C 235.540 125.061, 233.067 125.701, 231.316 126.463 M 49.500 140.496 C 41.547 143.369, 39.504 144.328, 32.500 148.473 C 26.213 152.194, 25.255 153.134, 24.439 156.386 C 22.637 163.565, 31.050 166.508, 38.610 161.343 C 42.216 158.879, 50.243 155.240, 55.892 153.508 C 58.283 152.775, 58.284 152.777, 57.586 158.944 C 57.202 162.337, 54.439 173.075, 51.446 182.807 C 48.452 192.538, 46.003 200.915, 46.002 201.422 C 45.999 203.069, 40.962 215.299, 36.807 223.750 C 33.735 229.997, 32.263 232, 30.742 232 C 27.015 232, 25 235.713, 25 242.580 C 25 248.168, 25.289 249.082, 27.635 250.927 C 32.317 254.610, 34.191 253.731, 42.277 244.055 C 47.264 238.088, 48.668 235.641, 53.209 225 C 59.036 211.345, 59.749 209.464, 61.355 203.500 C 62.095 200.750, 64.390 192.875, 66.454 186 C 74.065 160.647, 74.949 145.827, 69.194 140.055 C 66.617 137.471, 57.296 137.680, 49.500 140.496" stroke="none" fill="black" fill-rule="evenodd"/>
</svg>