<svg xmlns="http://www.w3.org/2000/svg" width="300" height="300" viewBox="0 0 300 300" version="1.1">
	<path d="M 204.500 9.791 C 196.904 11.403, 196.122 17.336, 194.371 86.629 L 193.685 113.758 185.592 116.905 C 174.778 121.110, 167.483 122.974, 161.785 122.988 C 157.959 122.998, 156.851 122.590, 155.905 120.823 C 154.315 117.851, 155.280 107.941, 158.409 95.108 C 162.912 76.638, 162.795 63.566, 158.104 61.056 C 155.335 59.574, 153.340 61.722, 151.654 68 C 150.841 71.025, 149.262 76.875, 148.144 81 C 143.154 99.408, 141.489 123.468, 144.752 130 C 149.257 139.018, 163.589 140.414, 182.750 133.699 L 193 130.108 193 171.929 C 193 194.930, 192.738 215.061, 192.417 216.664 C 191.848 219.511, 191.565 219.631, 180.167 221.874 C 173.750 223.137, 165.321 225.032, 161.436 226.085 C 157.551 227.138, 152.777 228, 150.826 228 L 147.280 228 146.721 222.589 C 145.982 215.421, 147.553 193.268, 149.419 184.553 C 150.754 178.318, 150.746 177.268, 149.339 174.303 C 147.515 170.458, 145.486 170.181, 142 173.300 C 137.362 177.449, 135.289 183.189, 133.443 197 C 131.767 209.536, 131.604 223.094, 133.051 229.701 C 134.127 234.616, 137.099 238.912, 140.789 240.887 C 144.228 242.728, 159.974 242.246, 167.145 240.081 C 175.625 237.521, 190.432 234.590, 207.500 232.093 C 226.844 229.264, 248.047 226.687, 248.333 227.131 C 248.463 227.334, 249.806 231.394, 251.316 236.154 C 254.871 247.358, 256.916 250, 262.037 250 C 267.162 250, 268.659 247.530, 267.106 241.634 C 263.507 227.969, 262.598 218.131, 262.474 191.500 C 262.352 165.346, 261.278 153.497, 258.734 150.250 C 256.330 147.181, 251.134 149.843, 248.125 155.684 C 247.370 157.150, 247 167.106, 247 185.934 L 247 214 241.750 214.003 C 238.863 214.004, 232.675 214.427, 228 214.942 C 223.325 215.457, 216.292 216.100, 212.371 216.371 L 205.241 216.863 206.206 213.182 C 206.736 211.157, 207.482 190.962, 207.863 168.305 C 208.244 145.648, 208.845 126.821, 209.199 126.468 C 209.963 125.703, 216.752 124.058, 219.281 124.024 C 220.261 124.011, 221.342 124.787, 221.683 125.750 C 222.877 129.115, 225.318 131, 228.481 131 C 232.130 131, 234.994 128.309, 236.996 123 C 237.721 121.075, 239.594 118.129, 241.158 116.452 C 242.721 114.776, 243.994 112.526, 243.986 111.452 C 243.961 107.808, 242.772 105, 241.255 105 C 240.033 105, 239.857 104.086, 240.341 100.250 C 240.670 97.638, 241.245 88.622, 241.619 80.216 C 241.994 71.810, 242.622 64.734, 243.016 64.490 C 243.410 64.247, 243.524 62.961, 243.270 61.633 C 242.959 60.003, 241.526 58.639, 238.868 57.440 C 235.034 55.711, 234.855 55.718, 232.214 57.675 C 228.060 60.755, 227.170 66.127, 227.080 88.689 L 227 108.877 222.750 109.401 C 220.412 109.689, 216.322 110.201, 213.659 110.537 L 208.818 111.150 209.659 86.325 C 210.122 72.671, 210.500 50.077, 210.500 36.115 C 210.500 11.624, 210.430 10.706, 208.500 10.048 C 207.400 9.673, 205.600 9.557, 204.500 9.791 M 80.625 17.861 C 78.336 20.392, 74.053 42.601, 74.023 52.096 C 74.011 56.274, 73.709 63.797, 73.353 68.814 L 72.705 77.935 66.536 79.988 C 63.143 81.117, 57.374 82.321, 53.715 82.662 C 41.826 83.772, 37.672 89.020, 43.406 95.686 C 45.562 98.192, 46.421 98.470, 51.656 98.360 C 55.235 98.284, 60.314 97.202, 64.763 95.567 C 68.757 94.099, 72.470 93.172, 73.013 93.508 C 73.612 93.879, 74 102.492, 74 115.452 C 74 133.983, 73.792 136.866, 72.418 137.393 C 71.548 137.727, 70.709 138, 70.552 138 C 70.396 138, 70.621 136.088, 71.052 133.750 C 72.195 127.558, 71.320 124.630, 67.873 123.104 C 65.539 122.071, 64.305 122.045, 62.043 122.982 C 59.534 124.021, 58.902 125.198, 57.022 132.335 C 48.170 165.928, 46.205 171.394, 33.652 197.364 C 27.702 209.673, 24.889 214.462, 23.238 215.094 C 20.384 216.186, 18.556 220.096, 19.375 223.356 C 21.075 230.130, 27.647 231.031, 33.188 225.250 C 40.803 217.305, 56.111 185.410, 64.604 159.792 C 68.350 148.492, 68.573 148.105, 70.993 148.683 C 72.372 149.012, 73.649 149.404, 73.830 149.554 C 74.779 150.338, 76.094 222.826, 75.535 243.485 C 74.998 263.322, 74.612 267.772, 73.303 269.218 C 71.908 270.759, 71.876 271.704, 73.033 277.157 C 73.756 280.561, 75.196 284.196, 76.234 285.234 C 78.731 287.731, 82.809 287.164, 85.165 283.994 C 87.963 280.227, 89.371 246.377, 88.552 202.500 L 87.900 167.500 94.200 173.637 C 103.351 182.551, 105.929 183.578, 109.891 179.887 C 112.794 177.182, 112.086 173.811, 107.606 169 C 105.813 167.075, 100.492 160.499, 95.782 154.387 L 87.218 143.273 86.859 116.085 L 86.500 88.897 92.500 86.453 C 95.800 85.109, 99.175 83.993, 100 83.973 C 100.825 83.953, 104.650 82.263, 108.500 80.218 C 114.575 76.992, 115.539 76.099, 115.797 73.469 C 116.009 71.302, 115.405 69.790, 113.680 68.169 L 111.267 65.902 100.288 69.451 C 94.250 71.403, 88.636 73, 87.812 73 C 84.907 73, 84.689 25.548, 87.573 20.882 C 88.461 19.445, 86.024 16, 84.120 16 C 83.124 16, 81.552 16.838, 80.625 17.861" stroke="none" fill="black" fill-rule="evenodd"/>
</svg>