<svg xmlns="http://www.w3.org/2000/svg" width="300" height="300" viewBox="0 0 300 300" version="1.1">
	<path d="M 91.199 30.250 C 90.679 32.142, 90.664 40.786, 91.164 50.938 C 91.637 60.529, 91.681 68.694, 91.262 69.083 C 90.843 69.471, 87.125 70.979, 83 72.434 C 78.875 73.889, 71.675 76.567, 67 78.387 C 62.325 80.206, 56.700 82.281, 54.500 82.996 C 47.309 85.336, 43.848 91.742, 47.829 95.345 C 50.078 97.381, 58.691 97.584, 61.527 95.668 C 63.922 94.051, 75.474 89.379, 83 86.985 C 86.025 86.022, 89.287 84.909, 90.250 84.510 C 91.841 83.852, 92 84.609, 92 92.870 C 92 101.370, 91.845 102.056, 89.586 103.536 C 87.073 105.182, 86.211 107.933, 83.958 121.500 C 82.970 127.445, 80.081 136.807, 73.929 154 C 73.240 155.925, 70.949 161.203, 68.838 165.729 C 66.727 170.256, 65 174.220, 65 174.539 C 65 174.858, 61.625 182.114, 57.500 190.663 C 53.375 199.213, 50 207.012, 50 207.993 C 50 208.975, 48.425 211.034, 46.500 212.569 C 42.676 215.618, 42.113 218.288, 44.557 221.777 C 46.598 224.692, 51.133 224.680, 54.389 221.750 C 57.080 219.330, 69.471 197.641, 74.243 187 C 75.846 183.425, 77.737 179.375, 78.446 178 C 80 174.987, 85.956 160.619, 88.810 153 L 90.870 147.500 90.922 153.500 C 90.950 156.800, 90.315 173.675, 89.510 191 C 88.706 208.325, 87.568 234.650, 86.982 249.500 C 86.226 268.649, 85.450 278.073, 84.314 281.911 C 82.380 288.445, 83.231 290.374, 88.237 290.804 C 92.738 291.190, 95.457 288.023, 96.917 280.689 C 97.485 277.835, 98.862 252.775, 99.975 225 C 101.089 197.225, 102.285 168.725, 102.633 161.667 L 103.266 148.833 107.383 153.235 C 115.936 162.379, 122.123 165.341, 126.041 162.168 C 129.963 158.992, 128.178 154.747, 117.735 142.410 C 112.656 136.409, 107.263 129.843, 105.750 127.817 L 103 124.133 103 101.092 L 103 78.051 105.880 76.562 C 111.016 73.906, 115 69.933, 115 67.468 C 115 63.799, 111.694 62.057, 106.814 63.153 C 104.571 63.657, 102.630 63.941, 102.500 63.785 C 102.371 63.628, 101.828 56.191, 101.294 47.258 C 100.248 29.742, 99.313 27, 94.392 27 C 92.650 27, 91.878 27.786, 91.199 30.250 M 201.313 27.786 C 198.856 29.348, 198 34.537, 198 47.874 C 198 57.354, 197.612 62.111, 196.750 63.208 C 195.832 64.376, 191.520 65.246, 180.500 66.485 C 172.250 67.413, 162.440 68.850, 158.699 69.678 C 151.131 71.353, 146.267 74.648, 147.318 77.388 C 149.166 82.203, 162.268 83.196, 183.684 80.144 L 195.869 78.407 195.477 80.953 C 195.262 82.354, 194.635 86.425, 194.084 90 C 193.533 93.575, 192.819 98.975, 192.497 102 C 192.176 105.025, 191.118 110.650, 190.147 114.500 L 188.382 121.500 177.941 123.664 C 167.979 125.728, 164.080 126.761, 145.267 132.317 C 138.007 134.461, 132 137.241, 132 138.458 C 132 140.703, 134.518 144.216, 137.073 145.538 C 141.586 147.871, 147.777 147.036, 166 141.634 C 174.525 139.107, 182.068 137.030, 182.762 137.020 C 184.705 136.989, 183.387 143.450, 177.872 161 C 167.870 192.828, 162.632 206.705, 154.948 221.731 C 150.615 230.204, 147.051 235.672, 143.347 239.526 C 140.406 242.587, 138 245.495, 138 245.990 C 138 246.484, 139.038 248.095, 140.306 249.569 C 143.093 252.810, 147.078 253.076, 150.844 250.274 C 153.422 248.355, 167 230.319, 167 228.813 C 167 228.401, 168.834 224.337, 171.075 219.782 C 176.036 209.699, 184.719 185.369, 188.252 171.653 L 189.500 166.806 198.619 178.153 C 203.634 184.394, 212.620 195.575, 218.586 203 C 231.485 219.051, 273.719 262, 276.604 262 C 279.957 262, 283 259.142, 283 255.991 C 283 250.426, 275.508 241.442, 252.893 219.891 C 250.359 217.476, 245.497 212.125, 242.089 208 C 238.681 203.875, 233.964 198.250, 231.606 195.500 C 219.725 181.640, 207 165.937, 207 165.134 C 207 164.637, 205.774 163.427, 204.276 162.445 C 201.346 160.525, 200.999 160.266, 196.600 156.697 L 193.700 154.345 195.306 147.423 C 196.189 143.615, 197.175 139.115, 197.497 137.421 C 198.083 134.346, 198.097 134.340, 209.792 132.246 C 216.231 131.093, 226.225 129.413, 232 128.513 C 246.711 126.219, 252.719 124.359, 254.578 121.521 C 255.983 119.377, 255.980 118.861, 254.539 116.076 C 253.102 113.297, 252.492 113.001, 248.224 113.008 C 242.724 113.018, 230.179 114.343, 214.185 116.604 C 207.962 117.484, 202.726 118.045, 202.550 117.852 C 202.375 117.658, 203.279 112.325, 204.561 106 C 205.842 99.675, 207.170 91.103, 207.512 86.952 C 207.853 82.800, 208.481 78.840, 208.907 78.151 C 209.332 77.462, 215.265 75.969, 222.090 74.832 C 235.227 72.643, 237 71.708, 237 66.964 C 237 62.529, 234.247 60.992, 226.421 61.060 C 222.615 61.092, 217.363 61.471, 214.750 61.901 L 210 62.683 210 51.500 C 210 39.760, 208.486 32.299, 205.414 28.905 C 203.512 26.803, 203.055 26.678, 201.313 27.786" stroke="none" fill="black" fill-rule="evenodd"/>
</svg>