<svg xmlns="http://www.w3.org/2000/svg" width="300" height="300" viewBox="0 0 300 300" version="1.1">
	<path d="M 88.487 13.638 C 86.145 16.748, 83.160 25.343, 83.066 29.250 C 83.030 30.762, 82.550 32, 82 32 C 81.369 32, 81 38.958, 81 50.875 C 81 76.120, 81.128 75.624, 74.258 77.050 C 71.227 77.679, 64.642 78.313, 59.624 78.457 C 47.108 78.818, 47.588 78.725, 44.803 81.307 C 41.772 84.116, 40.672 88.006, 41.954 91.380 C 43.519 95.495, 49.206 96.487, 63.500 95.138 C 70.100 94.515, 76.513 93.727, 77.750 93.386 C 79.929 92.786, 80 92.989, 80 99.816 C 80 106.249, 79.803 106.927, 77.750 107.576 C 75.529 108.278, 73.600 110.417, 71.343 114.682 C 70.707 115.885, 69.659 121.061, 69.014 126.184 C 67.844 135.473, 63.790 152.655, 61.963 156.069 C 61.433 157.059, 61 158.798, 61 159.934 C 61 161.070, 60.602 162, 60.117 162 C 59.631 162, 59.015 163.012, 58.748 164.250 C 57.209 171.391, 50.399 192.704, 49.300 193.821 C 48.585 194.548, 48 195.761, 48 196.516 C 48 197.271, 46.439 201.315, 44.531 205.502 C 41.401 212.370, 39.797 214.688, 33.637 221.243 C 32.245 222.725, 31.920 224.122, 32.352 226.782 C 33.009 230.828, 34.306 231.963, 38.300 231.985 C 46.531 232.030, 56.849 220.268, 63.477 203.286 C 65.577 197.904, 67.863 192.150, 68.556 190.500 C 69.249 188.850, 71.719 181.200, 74.044 173.500 C 76.369 165.800, 78.587 159.146, 78.972 158.714 C 79.357 158.281, 79.967 180.330, 80.327 207.711 C 80.748 239.724, 81.342 257.614, 81.991 257.830 C 82.563 258.021, 83 261.818, 83 266.605 C 83 274.567, 83.137 275.105, 85.426 276.148 C 88.636 277.611, 92.635 276.515, 94.221 273.738 C 95.232 271.970, 95.430 258.694, 95.165 210.500 L 94.830 149.500 97.915 152.437 C 99.612 154.052, 101 155.770, 101 156.254 C 101 156.738, 102.463 158.603, 104.250 160.397 C 106.037 162.191, 108.263 164.801, 109.197 166.197 C 111.546 169.711, 120.127 174, 124.807 174 C 127.532 174, 129.284 173.326, 130.826 171.686 C 134.026 168.279, 133.570 165.513, 129.277 162.293 C 124.116 158.422, 118 151.936, 118 150.334 C 118 149.600, 117.601 149, 117.114 149 C 116.627 149, 115.468 147.398, 114.539 145.441 C 113.610 143.483, 111.534 140.709, 109.925 139.276 C 108.316 137.842, 107 136.069, 107 135.335 C 107 134.601, 106.325 134, 105.500 134 C 104.675 134, 104 133.611, 104 133.136 C 104 132.661, 101.975 131.498, 99.500 130.553 L 95 128.835 95 108.026 L 95 87.217 99.139 85.561 C 107.750 82.115, 118 73.467, 118 69.646 C 118 65.818, 115.245 63, 111.502 63 C 109.641 63, 107.825 63.474, 107.467 64.053 C 106.796 65.139, 95.923 70.256, 95.399 69.733 C 95.238 69.571, 95.464 57.078, 95.901 41.970 C 96.589 18.185, 96.494 14.265, 95.193 12.750 C 93.068 10.275, 90.794 10.577, 88.487 13.638 M 208 46.019 C 199.475 47.065, 188.997 48.232, 184.716 48.612 C 180.434 48.991, 176.695 49.684, 176.407 50.151 C 176.118 50.618, 173.641 51, 170.901 51 C 159.005 51, 149.740 61.740, 156.127 68.127 C 157.975 69.975, 159.044 70.183, 164.268 69.709 C 167.575 69.410, 170.556 68.718, 170.893 68.172 C 171.231 67.627, 175.330 66.880, 180.003 66.513 C 184.676 66.145, 195.700 64.967, 204.500 63.893 C 213.300 62.820, 227.232 61.489, 235.461 60.937 C 243.689 60.384, 251.394 59.688, 252.583 59.390 C 257.672 58.113, 258.376 50.092, 253.703 46.619 C 251.230 44.780, 249.321 44.515, 237.203 44.328 C 228.544 44.194, 217.794 44.816, 208 46.019 M 234.500 100.045 C 229.550 101.088, 224.749 102.386, 223.831 102.929 C 222.151 103.922, 192.938 111.210, 185.500 112.490 C 183.300 112.869, 181.050 113.536, 180.500 113.972 C 179.950 114.409, 173.200 115.989, 165.500 117.484 C 142.925 121.867, 140.350 122.811, 134.359 128.896 C 130.930 132.379, 131.283 137.833, 135.027 139.206 C 137.726 140.196, 175.870 134.094, 179.858 132.034 C 180.761 131.567, 190.050 129.289, 200.500 126.970 C 210.950 124.651, 219.950 122.412, 220.500 121.995 C 221.906 120.927, 249.379 114.312, 255.912 113.467 C 266.530 112.095, 269.526 103.909, 261.020 99.510 C 257.039 97.451, 245.727 97.680, 234.500 100.045 M 201.225 130.260 C 199.184 132.433, 194 143.027, 194 145.026 C 194 146.123, 179.984 174.841, 174.232 185.529 C 172.152 189.395, 167.917 196.151, 164.822 200.543 C 155.447 213.846, 154 217.203, 154 225.649 C 154 232.918, 154.045 233.045, 158.088 237.088 C 161.613 240.613, 163.027 241.300, 168.338 242.068 C 181.853 244.024, 221.924 242.447, 222.833 239.925 C 223.017 239.416, 224.006 239, 225.032 239 C 231.043 239, 257.944 228.107, 258.047 225.631 C 258.073 225.009, 258.887 226.525, 259.856 229 C 262.202 234.991, 269.769 247.860, 272.624 250.715 C 273.943 252.034, 276.123 253, 277.780 253 C 281.019 253, 285.019 249.393, 285.255 246.260 C 285.423 244.040, 282.968 235.784, 281.908 235 C 281.536 234.725, 279.347 228.875, 277.045 222 C 274.743 215.125, 272.446 208.600, 271.942 207.500 C 270.779 204.960, 264 178.286, 264 176.247 C 264 172.647, 256.359 170.595, 252.958 173.282 C 250.820 174.971, 248 181.279, 248 184.373 C 248 187.614, 251.999 206.159, 252.988 207.500 C 253.393 208.050, 254.020 209.738, 254.381 211.250 C 254.909 213.462, 254.692 214, 253.269 213.998 C 251.165 213.996, 226.375 219.914, 223.500 221.105 C 219.354 222.821, 205.282 224, 188.928 224 C 170.484 224, 170.682 224.072, 173.238 218.297 C 173.919 216.759, 174.993 215.050, 175.626 214.500 C 176.258 213.950, 177.927 211.389, 179.335 208.809 C 180.743 206.229, 183.716 201.234, 185.942 197.709 C 188.168 194.184, 191.346 188.012, 193.003 183.993 C 194.660 179.974, 196.416 176.194, 196.904 175.593 C 197.392 174.992, 199.007 171.575, 200.492 168 C 201.978 164.425, 204.960 157.864, 207.118 153.420 C 212.083 143.200, 213.351 133.794, 210.240 130.250 C 207.714 127.372, 203.935 127.376, 201.225 130.260" stroke="none" fill="black" fill-rule="evenodd"/>
</svg>