<svg xmlns="http://www.w3.org/2000/svg" width="300" height="300" viewBox="0 0 300 300" version="1.1">
	<path d="M 122.161 10.306 C 121.565 11.024, 119.489 17.810, 117.547 25.385 C 115.606 32.961, 112.174 44.186, 109.922 50.330 C 107.670 56.473, 105.600 62.671, 105.322 64.103 C 104.884 66.357, 103.790 67.023, 97.158 69.072 C 92.946 70.374, 86.333 72.884, 82.463 74.651 C 78.592 76.418, 73.270 78.407, 70.635 79.070 C 66.985 79.990, 65.613 80.888, 64.867 82.849 C 62.520 89.024, 67.087 93.671, 74.505 92.654 C 76.953 92.319, 79.754 91.578, 80.728 91.009 C 84.428 88.846, 97 84.149, 97 84.930 C 97 88.433, 74.160 135.130, 65.254 149.835 C 62.811 153.870, 60.427 158.512, 59.957 160.150 C 58.231 166.169, 62.899 170.467, 68.890 168.377 C 70.527 167.806, 73.674 164.302, 77.329 158.983 C 84.027 149.236, 101.766 114.331, 110.934 92.860 C 117.763 76.868, 117.807 76.821, 128.500 74.048 C 134.272 72.552, 135.699 72.741, 136.312 75.084 C 137.481 79.555, 133.231 119.103, 131.382 120.951 C 131.122 121.211, 130.057 120.892, 129.017 120.242 C 126.006 118.362, 121.274 120.476, 120.488 124.053 C 119.567 128.248, 120.591 130.494, 125.239 134.472 C 129.822 138.395, 134.082 139.043, 138.901 136.551 C 142.405 134.739, 144.139 131.999, 146.209 125 C 149.214 114.843, 150.347 104.610, 150.424 86.923 L 150.500 69.346 147.643 65.215 C 143.606 59.377, 138.003 57.322, 130.329 58.863 C 122.886 60.357, 122.896 60.359, 123.965 57.750 C 124.473 56.513, 126.547 50.325, 128.574 44 C 134.419 25.766, 134.402 11.150, 128.532 9.573 C 125.248 8.691, 123.317 8.913, 122.161 10.306 M 173.794 62.549 C 169.451 64.906, 169.228 69.327, 172.873 80.766 C 174.578 86.120, 176.499 93.121, 177.140 96.325 C 178.199 101.616, 178.102 102.641, 176.081 107.518 C 173.418 113.942, 173.639 118.027, 176.731 119.559 C 178.776 120.573, 178.533 120.764, 173.806 121.855 C 167.612 123.285, 166 124.476, 166 127.622 C 166 133.622, 173.731 135.971, 187.267 134.085 C 212.327 130.593, 224.648 124.106, 221.082 116.281 C 220.086 114.094, 220.398 113.108, 223.626 108.244 C 230.938 97.228, 232.742 88.189, 229.023 81.210 C 226.064 75.660, 224.928 74.499, 218.962 70.935 C 214.202 68.091, 212.645 67.680, 206.849 67.742 C 199.386 67.821, 194.869 69.544, 190.229 74.080 L 187.174 77.067 186.533 73.784 C 185.265 67.279, 182.867 63.149, 179.723 62.053 C 178.061 61.474, 176.656 61.018, 176.601 61.040 C 176.545 61.062, 175.282 61.741, 173.794 62.549 M 193.460 83.708 L 190.421 84.095 190.460 96.298 C 190.495 107.062, 190.236 108.993, 188.263 112.684 C 187.033 114.985, 185.008 117.628, 183.763 118.557 C 181.803 120.020, 181.767 120.152, 183.500 119.539 C 185.048 118.992, 200.012 117.180, 204.250 117.027 C 204.662 117.012, 205 116.240, 205 115.310 C 205 114.381, 206.780 110.668, 208.957 107.060 C 211.133 103.452, 213.919 97.696, 215.149 94.269 L 217.385 88.039 215.018 85.519 C 212.837 83.198, 212.018 83.013, 204.576 83.160 C 200.134 83.248, 195.132 83.495, 193.460 83.708 M 155.271 140.250 C 154.339 141.448, 152.744 148.102, 150.957 158.247 C 150.498 160.858, 149.861 163.415, 149.544 163.929 C 149.226 164.444, 146.386 165.396, 143.233 166.046 C 136.575 167.418, 111.441 174.604, 108.500 175.977 C 107.400 176.490, 104.813 177.583, 102.750 178.404 C 99.584 179.665, 99 180.364, 99 182.892 C 99 187.464, 102.024 189, 111.028 189 C 115.958 189, 120.691 188.301, 124.556 187.002 C 127.825 185.904, 134.438 184.172, 139.250 183.154 L 148 181.304 148 184.066 C 148 185.820, 146.814 188.066, 144.750 190.219 C 141.654 193.449, 138.620 196.857, 123.582 214 C 108.944 230.687, 83.644 254.101, 76.083 257.958 C 73.853 259.095, 71.296 261.145, 70.400 262.513 C 68.893 264.812, 68.893 265.188, 70.408 267.500 C 71.840 269.686, 72.766 270, 77.773 269.996 C 84.342 269.992, 86.301 268.997, 98.517 259.458 C 108.140 251.944, 140.110 219.502, 144.608 212.686 L 147.786 207.871 148.530 222.686 C 149.389 239.763, 148.608 259.700, 146.818 266.392 C 145.741 270.419, 145.794 271.222, 147.231 272.659 C 149.797 275.226, 155.103 274.609, 157.621 271.451 C 161.576 266.491, 162.322 261.526, 162.923 236.174 L 163.500 211.847 167.500 214.936 C 185.903 229.146, 206.489 238.966, 237.500 248.328 C 256.081 253.937, 263.779 254.300, 268.004 249.765 C 270.628 246.948, 270.780 239.313, 268.250 237.392 C 265.933 235.633, 262.926 235.663, 260.345 237.471 C 258.479 238.778, 257.538 238.732, 251.873 237.056 C 228.514 230.147, 201.819 218.907, 177.750 205.847 L 163 197.844 163 187.505 L 163 177.167 171.750 175.138 C 176.563 174.022, 184.775 172.364, 190 171.455 C 195.225 170.545, 200.477 169.621, 201.671 169.401 C 205.047 168.780, 212.376 162.716, 213.453 159.653 C 215.389 154.148, 209.823 150.445, 203.987 153.356 C 202.175 154.260, 199.485 155, 198.009 155 C 195.616 155, 170.988 159.259, 165.250 160.665 C 163.035 161.208, 163 161.067, 163 151.680 C 163 144.343, 162.637 141.780, 161.429 140.571 C 159.540 138.683, 156.611 138.530, 155.271 140.250" stroke="none" fill="black" fill-rule="evenodd"/>
</svg>