<svg xmlns="http://www.w3.org/2000/svg" width="300" height="300" viewBox="0 0 300 300" version="1.1">
	<path d="M 103.714 12.429 C 100.526 15.617, 95.105 38.262, 95.035 48.685 C 94.973 57.883, 94.718 58.126, 80.856 62.218 C 74.060 64.223, 65.920 66.580, 62.768 67.455 C 59.615 68.330, 56.127 70.020, 55.018 71.211 C 49.988 76.610, 54.799 83, 63.892 83 C 67.116 83, 85.033 78.249, 92.094 75.522 C 93.514 74.973, 93.764 77.581, 94.390 99.523 L 95.092 124.140 91.751 127.579 C 86.512 132.974, 81.508 143.285, 75.997 160.048 C 70.679 176.222, 64.152 192.320, 55.744 210 C 50.017 222.041, 48.960 226.817, 51.464 229.321 C 53.531 231.388, 56.873 231.477, 59.640 229.540 C 66.112 225.006, 85.877 183.813, 92.893 160.235 C 95.555 151.289, 95.835 150.784, 96.350 154 C 97.167 159.109, 98.955 199.811, 99.569 227.264 L 100.099 251.029 97.422 256.995 C 94.875 262.670, 94.825 263.084, 96.395 265.480 C 97.424 267.051, 98.979 268, 100.523 268 C 103.884 268, 110.580 261.154, 111.951 256.315 C 114.539 247.184, 114.269 204.805, 111.358 163 L 110.696 153.500 115.020 159 C 123.103 169.280, 131.288 178.098, 134.098 179.551 C 139.010 182.091, 145.321 180.754, 148.235 176.558 C 150.573 173.190, 147.716 168, 143.522 168 C 141.897 168, 140.119 166.557, 137.672 163.250 C 135.739 160.637, 132.080 155.800, 129.541 152.500 C 127.003 149.200, 122.952 143.125, 120.541 139 C 118.130 134.875, 114.659 129.925, 112.828 128 L 109.500 124.500 109.180 96.802 L 108.860 69.105 114.180 66.414 C 120.141 63.399, 130.329 56.771, 133.750 53.683 C 136.369 51.318, 136.658 47.384, 134.443 44.223 C 132.172 40.980, 129.738 41.430, 119.405 47 C 114.304 49.750, 109.876 52, 109.565 52 C 108.685 52, 108.898 40.549, 110.040 26.485 C 110.612 19.442, 110.724 13.352, 110.290 12.952 C 108.447 11.255, 105.150 10.993, 103.714 12.429 M 182.355 34.992 C 178.977 36.356, 175.232 42.032, 171.375 51.638 C 166.977 62.593, 153.135 89.865, 150.777 92.223 C 147.312 95.688, 143 104.633, 143 108.356 C 143 112.917, 145.530 114.206, 152.066 112.976 C 158.265 111.810, 159.841 111.076, 160.481 109.059 C 160.788 108.094, 162.267 106.734, 163.769 106.037 C 169.603 103.332, 192.007 95.135, 202 92.049 C 219.182 86.744, 237.507 77.222, 240.856 71.858 C 242.540 69.163, 239.879 63, 237.032 63 C 235.894 63, 230.358 65.208, 224.731 67.907 C 219.104 70.606, 210.225 74.240, 205 75.983 C 199.775 77.725, 194.600 79.554, 193.500 80.047 C 192.400 80.539, 188.559 82.024, 184.965 83.346 C 181.370 84.667, 176.147 86.905, 173.359 88.318 L 168.288 90.888 173.619 81.239 C 181.703 66.609, 191 45.358, 191 41.511 C 191 39.066, 190.279 37.578, 188.365 36.073 C 185.446 33.776, 185.392 33.767, 182.355 34.992 M 218.171 90.465 C 213.693 94.510, 205.037 110.602, 202.552 119.500 C 201.630 122.800, 198.595 133.257, 195.806 142.738 L 190.736 159.976 187.967 155.610 C 182.638 147.205, 178.698 143.235, 172.207 139.727 C 164.860 135.755, 158.911 135.680, 156.391 139.526 C 154.842 141.891, 154.850 142.177, 156.523 144.026 C 157.506 145.112, 158.900 146, 159.620 146 C 162.476 146, 167.872 152.344, 172.959 161.683 C 175.901 167.082, 179.637 173.641, 181.262 176.257 L 184.217 181.014 180.698 190.757 C 178.762 196.116, 176.862 201.625, 176.475 203 C 175.177 207.614, 166.790 224.434, 162.370 231.287 C 159.962 235.020, 154.169 241.804, 149.496 246.363 C 142.424 253.262, 141 255.173, 141 257.769 C 141 261.042, 143.906 264, 147.122 264 C 149.678 264, 159.411 257.084, 166.202 250.443 C 175.357 241.489, 184.610 225.991, 193.481 204.750 C 195.031 201.037, 196.584 198, 196.930 198 C 197.277 198, 200.337 201.262, 203.731 205.250 C 232.400 238.937, 248.128 254.011, 268.950 267.755 C 275.402 272.014, 278.475 273.421, 281.950 273.710 C 287.238 274.150, 288.596 273.457, 289.498 269.863 C 290 267.865, 289.581 266.684, 287.731 264.873 C 283.235 260.472, 279.023 257, 278.180 257 C 277.720 257, 273.104 253.466, 267.922 249.147 C 259.289 241.952, 248.221 230.918, 234 215.329 C 230.975 212.013, 226.250 206.844, 223.500 203.842 C 220.750 200.840, 217.364 197.060, 215.977 195.442 C 205.358 183.062, 202 178.812, 202 177.752 C 202 177.081, 204.907 167.525, 208.461 156.516 C 212.014 145.507, 216.673 129.075, 218.814 120 C 220.955 110.925, 223.673 101.387, 224.853 98.805 C 227.407 93.220, 227.549 90.692, 225.429 88.571 C 223.220 86.363, 222.504 86.550, 218.171 90.465" stroke="none" fill="black" fill-rule="evenodd"/>
</svg>