<svg xmlns="http://www.w3.org/2000/svg" width="300" height="300" viewBox="0 0 300 300" version="1.1">
	<path d="M 66.835 13.673 C 63.604 14.529, 61.388 24.029, 59.812 43.782 C 58.685 57.897, 58.436 59.093, 56.546 59.447 C 42.317 62.106, 31.231 65.626, 28.507 68.350 C 25.380 71.477, 25.861 77.872, 29.400 80.235 C 31.508 81.642, 37.698 80.984, 44.576 78.621 C 48.384 77.313, 53.152 75.949, 55.172 75.590 L 58.844 74.939 59.191 88.719 C 59.498 100.948, 59.301 103.063, 57.436 107.500 C 56.280 110.250, 53.847 117.450, 52.031 123.500 C 50.214 129.550, 46.676 139.675, 44.168 146 C 35.895 166.867, 14.979 206, 12.100 206 C 11.582 206, 10.858 207.368, 10.491 209.041 C 9.674 212.763, 11.950 216.695, 15.225 217.217 C 19.959 217.971, 22.802 215.911, 29.763 206.680 C 38.502 195.091, 40.018 192.376, 49.687 171 C 54.040 161.375, 58.148 152.375, 58.814 151 C 59.775 149.018, 59.947 159.005, 59.648 199.220 C 59.313 244.065, 59.080 250.229, 57.635 252.435 C 55.723 255.353, 55.663 256.245, 57.043 261.216 C 58.415 266.156, 60.443 268, 64.503 268 C 72.911 268, 74.055 259.890, 74.325 198.427 L 74.500 158.353 81.500 163.705 C 90.183 170.344, 99.287 175, 103.583 175 C 108.110 175, 113 170.776, 113 166.866 C 113 163.144, 108.783 158.617, 106.108 159.466 C 104.853 159.864, 102.462 158.667, 98.743 155.778 C 95.715 153.425, 89.696 148.745, 85.369 145.379 C 73.067 135.808, 74.242 140.021, 73.846 104.072 L 73.500 72.644 76.006 71.974 C 81.898 70.398, 90.823 64.067, 93.069 59.872 C 94.306 57.560, 91.858 52.339, 89.264 51.755 C 88.294 51.537, 85.475 52.338, 83 53.536 C 80.525 54.734, 77.288 56.005, 75.806 56.362 L 73.112 57.010 72.806 35.967 C 72.553 18.584, 72.239 14.759, 71 13.977 C 70.175 13.457, 69.275 13.076, 69 13.131 C 68.725 13.187, 67.751 13.430, 66.835 13.673 M 238.999 23.039 C 234.829 23.710, 230.859 24.742, 206.623 31.460 C 197.262 34.055, 172.100 37.398, 150.782 38.880 C 140.716 39.580, 137.316 40.206, 134.475 41.882 C 132.501 43.047, 130.081 44, 129.098 44 C 125.920 44, 123.990 47.523, 122.488 56.067 C 121.270 62.995, 121.124 72.424, 121.634 110.966 C 122.421 170.387, 120.713 220.150, 116.891 249.108 C 115.420 260.254, 116.624 263.500, 122.232 263.500 C 125.527 263.500, 125.856 263.732, 125.361 265.700 C 124.415 269.465, 128.945 273.001, 134.705 272.994 C 137.342 272.991, 141.075 272.560, 143 272.037 C 144.925 271.513, 154.600 269.927, 164.500 268.512 C 188.615 265.066, 222.142 259.337, 230.592 257.218 C 236.100 255.837, 237.745 254.962, 238.973 252.759 C 240.880 249.335, 239.779 247.206, 234.821 244.734 C 231.824 243.240, 230.296 243.117, 224.890 243.931 C 188.774 249.372, 163.785 253.333, 155.500 254.931 C 150 255.992, 143.250 257.136, 140.500 257.474 C 134.426 258.221, 129.908 259.880, 128.302 261.953 C 127.486 263.006, 127.541 262.212, 128.473 259.465 C 130.249 254.231, 131.640 241.403, 133.186 216 C 134.836 188.882, 134.760 57.815, 133.091 53.611 C 132.460 52.023, 132.220 50.448, 132.557 50.111 C 132.894 49.775, 139.602 49.630, 147.463 49.789 C 157.172 49.984, 167.650 49.408, 180.129 47.991 C 199.516 45.789, 205.533 44.495, 226.500 38.021 C 240.833 33.596, 243.492 33.235, 244.396 35.590 C 244.732 36.464, 245.216 48.726, 245.473 62.840 C 245.730 76.953, 246.459 112.575, 247.093 142 C 248.382 201.826, 247.911 258.361, 246.075 264.250 C 245.153 267.206, 244.402 268, 242.524 268 C 237.449 268, 235.353 273.353, 239 277 C 241.299 279.299, 248.295 279.734, 252.459 277.837 C 255.738 276.343, 259.746 268.197, 261.014 260.449 C 262.297 252.613, 262.266 191.346, 260.955 144.683 C 259.640 97.845, 257.161 37.506, 256.380 33.293 C 255.579 28.971, 250.260 23.295, 246.500 22.750 C 244.850 22.510, 241.475 22.640, 238.999 23.039 M 194.390 61.765 C 191.365 63.766, 188.505 75.037, 186.256 93.816 L 185.500 100.131 179 102.657 C 175.425 104.046, 171.150 105.758, 169.500 106.462 C 167.850 107.166, 163.215 108.973, 159.200 110.477 C 150.094 113.890, 146 117.163, 146 121.032 C 146 124.669, 149.209 127, 154.217 127 C 156.292 127, 163.854 124.813, 171.022 122.140 C 178.190 119.467, 184.285 117.653, 184.566 118.107 C 184.848 118.562, 184.770 121.312, 184.394 124.217 C 183.866 128.299, 182.834 130.555, 179.855 134.139 C 177.735 136.690, 176 139.071, 176 139.429 C 176 139.788, 175.161 141.300, 174.135 142.790 C 173.109 144.281, 170.546 148.200, 168.440 151.500 C 165.216 156.552, 150.638 176.608, 145.906 182.502 C 145.133 183.465, 142.524 186.162, 140.109 188.496 C 136.426 192.055, 135.824 193.161, 136.375 195.357 C 137.317 199.110, 141.153 201.345, 145.147 200.468 C 150.891 199.206, 163.336 185.937, 177.370 166.108 L 184 156.741 184 189.812 C 184 210.780, 183.634 223.108, 183 223.500 C 181.512 224.420, 181.791 230.695, 183.463 233.928 C 185.974 238.784, 190.789 239.410, 194.535 235.368 L 196.975 232.735 197.237 197.836 L 197.500 162.937 201.672 165.719 C 212.325 172.821, 219.939 178.596, 219.968 179.595 C 220.027 181.623, 223.635 184, 226.654 184 C 229.973 184, 234.021 180.465, 234.235 177.380 C 234.569 172.577, 232.650 169.754, 223.825 162.061 C 218.090 157.063, 211.528 152.491, 206.230 149.805 L 197.780 145.521 198.163 128.821 C 198.374 119.636, 198.825 111.842, 199.166 111.500 C 199.507 111.159, 204.103 109.811, 209.379 108.505 C 220.380 105.781, 224.022 103.925, 226.457 99.803 C 228.609 96.161, 227.844 92.599, 224.432 90.363 C 222.036 88.793, 221.745 88.812, 219.191 90.701 C 217.704 91.800, 214.240 93.004, 211.493 93.377 C 208.747 93.749, 204.923 94.287, 202.996 94.573 L 199.492 95.093 199.606 79.296 C 199.671 70.283, 199.298 62.963, 198.737 62.250 C 197.635 60.847, 196.045 60.670, 194.390 61.765" stroke="none" fill="black" fill-rule="evenodd"/>
</svg>