<svg xmlns="http://www.w3.org/2000/svg" width="300" height="300" viewBox="0 0 300 300" version="1.1">
	<path d="M 157 11.137 C 147.375 12.168, 134.207 14.003, 127.737 15.215 C 117.806 17.075, 115.567 17.842, 113.362 20.144 C 111.361 22.233, 110.903 23.477, 111.403 25.469 C 112.421 29.525, 115.793 30.513, 123.730 29.080 C 134.857 27.072, 147.061 25.254, 154.479 24.501 L 161.458 23.792 156.028 29.379 C 153.041 32.452, 150.350 34.611, 150.049 34.176 C 149.151 32.883, 136.213 29, 132.800 29 C 126.054 29, 120.502 32.767, 122.494 35.991 C 122.837 36.546, 124.779 37.004, 126.809 37.009 C 130.551 37.019, 141 42.145, 141 43.971 C 141 45.313, 127.446 59, 126.116 59 C 125.502 59, 125 59.441, 125 59.980 C 125 61.481, 114.826 66.978, 112 67.004 C 105.195 67.067, 102.527 70.102, 105.410 74.502 C 107.327 77.429, 112.073 78.471, 119.350 77.562 C 126.148 76.713, 134.609 71.307, 145.545 60.828 L 153.590 53.118 165.576 58.915 C 172.168 62.103, 179.123 65.211, 181.031 65.821 C 182.939 66.431, 186.718 67.620, 189.428 68.465 C 198.627 71.331, 203.561 69.983, 202.827 64.805 C 202.494 62.461, 197.190 59.328, 182.500 52.799 C 177.903 50.755, 167.037 45.177, 164.181 43.394 C 163.845 43.185, 173.526 31.174, 180.750 22.838 C 185.201 17.702, 185.795 15.631, 183.637 12.789 C 182.279 11.002, 177.723 8.906, 175.685 9.131 C 175.033 9.203, 166.625 10.105, 157 11.137 M 190.064 82.544 C 187.075 83.272, 182.125 84.743, 179.064 85.813 C 176.004 86.883, 171.250 88.334, 168.500 89.038 C 161.637 90.793, 154.295 94.580, 152.976 97.045 C 152.373 98.171, 152.020 100.534, 152.190 102.296 L 152.500 105.500 159.757 105.514 L 167.014 105.528 176.174 114.687 L 185.334 123.847 179.745 129.304 C 173.103 135.788, 163.411 141.895, 157.741 143.169 C 155.496 143.674, 152.876 144.989, 151.919 146.093 C 150.892 147.278, 149.923 147.685, 149.554 147.087 C 148.677 145.669, 144 147.918, 144 149.759 C 144 152.101, 138.594 148.133, 127.880 137.929 L 118.261 128.767 122.630 121.679 C 125.034 117.781, 127 114.165, 127 113.642 C 127 113.120, 128.112 110.343, 129.471 107.470 C 134.915 95.963, 135.140 90.231, 130.338 85.428 C 127.935 83.026, 127.143 82.825, 121.598 83.211 C 117.976 83.463, 112.861 84.768, 109 86.425 C 105.425 87.960, 99.350 90.387, 95.500 91.820 C 91.650 93.252, 87.600 95.284, 86.500 96.336 C 85.400 97.388, 82.606 99.105, 80.291 100.153 C 77.976 101.200, 75.411 103.282, 74.591 104.779 C 70.299 112.616, 69.765 113.946, 70.327 115.409 C 71.179 117.629, 75.819 117.408, 79.842 114.955 L 83.184 112.917 89.689 118.709 C 93.267 121.894, 97.281 125.329, 98.609 126.342 L 101.023 128.183 97.840 132.342 C 92.817 138.906, 86.869 144.923, 82.175 148.190 C 78.120 151.012, 77.578 151.131, 73.497 150.104 C 68.386 148.817, 66.727 149.273, 65.039 152.428 C 63.435 155.425, 64.790 158.089, 69.355 160.911 C 74.442 164.054, 81.176 163.709, 88.528 159.929 C 94.788 156.709, 104.690 147.783, 108.138 142.250 C 109.252 140.463, 110.464 139.003, 110.832 139.006 C 111.199 139.010, 115.775 143.053, 121 147.991 C 127.207 153.857, 132.314 157.755, 135.733 159.235 L 140.966 161.500 140.983 172.250 C 140.998 182.006, 140.831 183, 139.170 183 C 138.164 183, 131.752 184.495, 124.920 186.323 C 107.581 190.962, 99.344 192.801, 93.251 193.394 C 86.931 194.010, 80.360 196.774, 76.011 200.646 C 71.594 204.578, 70.684 206.541, 72.072 209.135 C 73.110 211.074, 73.775 211.213, 79.357 210.652 C 82.736 210.312, 87.300 209.371, 89.500 208.561 C 91.700 207.751, 95.020 207.068, 96.878 207.044 C 98.736 207.020, 108.960 204.750, 119.597 202 C 130.235 199.250, 139.651 197, 140.521 197 C 142.687 197, 142.220 206.919, 140 208.076 C 139.175 208.506, 136.358 209.832, 133.741 211.023 C 130.859 212.333, 126.272 216.010, 122.112 220.344 C 93.913 249.719, 87.419 256.382, 79.156 264.415 C 74.017 269.412, 68.741 274.071, 67.431 274.769 C 66.122 275.467, 64.589 276.900, 64.025 277.953 C 59.935 285.595, 69.239 290.041, 77.538 284.410 C 88.313 277.098, 105.730 261.025, 119.696 245.506 C 128.114 236.153, 136.800 227.012, 139 225.194 L 143 221.887 143 245.944 C 143 265.303, 142.740 270, 141.669 270 C 139.651 270, 137.657 274.499, 138.387 277.405 C 139.050 280.048, 143.476 283, 146.776 283 C 148.977 283, 152.016 279.906, 154.633 275 C 156.286 271.902, 156.536 268.614, 156.811 246.369 L 157.123 221.238 160.311 221.961 C 164.981 223.018, 168.752 225.183, 176.549 231.284 C 180.376 234.279, 188.231 239.057, 194.004 241.903 C 199.777 244.749, 208.847 249.310, 214.161 252.039 C 219.474 254.767, 224.279 257, 224.838 257 C 225.397 257, 229.149 258.511, 233.177 260.359 C 252.003 268.993, 267.947 270.226, 273.750 263.497 C 276.623 260.166, 276.585 258.494, 273.568 255.477 C 271.252 253.161, 270.969 253.115, 267.633 254.509 C 264.951 255.629, 263 255.750, 259.315 255.025 C 250.045 253.200, 248.362 252.524, 224.500 241.045 C 216.800 237.342, 207.125 232.694, 203 230.717 C 198.875 228.741, 193.925 226.251, 192 225.184 C 181.043 219.112, 169.682 214.744, 163.569 214.253 L 157.158 213.739 156.474 205.532 C 156.098 201.019, 155.955 196.472, 156.156 195.428 C 156.574 193.259, 158.188 192.881, 177 190.541 C 200.740 187.589, 202.716 187.126, 205.445 183.883 C 208.797 179.899, 209.600 175.061, 207.563 171.121 C 206.675 169.405, 205.285 168, 204.474 168 C 202.578 168, 199 171.565, 199 173.455 C 199 175.229, 196.128 175.711, 181 176.475 C 174.675 176.794, 166.238 177.650, 162.250 178.378 L 155 179.701 154.983 176.100 C 154.973 174.120, 154.298 169.350, 153.483 165.500 C 151.098 154.244, 150.985 154.500, 158.332 154.500 C 167.585 154.500, 179.785 148.312, 190 138.437 L 197.500 131.186 205 135.848 C 209.125 138.412, 214.726 141.970, 217.446 143.755 C 224.662 148.490, 231.052 147.920, 230.968 142.550 C 230.951 141.423, 230.388 139.825, 229.718 139 C 228.429 137.412, 215.080 127.077, 209.314 123.202 C 205.202 120.439, 205.271 120.068, 212.186 107.781 C 216.882 99.437, 217.080 98.773, 216.796 92.356 L 216.500 85.650 212 83.353 C 206.795 80.697, 198.858 80.404, 190.064 82.544 M 187.026 97.611 C 182.365 98.988, 178.423 100.244, 178.265 100.402 C 178.107 100.560, 181.245 103.224, 185.239 106.323 L 192.500 111.957 194.741 109.229 C 195.973 107.728, 198.362 103.912, 200.049 100.750 L 203.117 95 199.309 95.053 C 197.214 95.082, 191.687 96.233, 187.026 97.611 M 110.500 98.837 C 108.300 99.786, 103.488 102.095, 99.807 103.968 L 93.114 107.373 97.307 110.360 C 99.613 112.003, 102.721 114.462, 104.214 115.826 C 106.480 117.896, 107.182 118.094, 108.471 117.024 C 110.044 115.719, 110.529 114.943, 115.120 106.384 C 119.269 98.652, 119.571 96.989, 116.817 97.056 C 115.543 97.087, 112.700 97.888, 110.500 98.837" stroke="none" fill="black" fill-rule="evenodd"/>
</svg>