<svg xmlns="http://www.w3.org/2000/svg" width="300" height="300" viewBox="0 0 300 300" version="1.1">
	<path d="M 239.500 23.621 C 238.400 23.890, 232.789 25.237, 227.031 26.614 C 221.274 27.991, 216.099 29.472, 215.531 29.906 C 214.964 30.339, 210.794 31.963, 206.264 33.515 C 198.394 36.211, 197.943 36.259, 196.098 34.588 C 194.555 33.193, 193.747 33.065, 192.083 33.955 C 190.937 34.569, 190 35.902, 190 36.919 C 190 37.935, 189.213 38.973, 188.250 39.226 C 187.287 39.478, 185.861 40.881, 185.081 42.342 C 183.860 44.630, 183.858 45.367, 185.070 47.630 C 185.844 49.077, 187.495 50.724, 188.739 51.291 C 190.969 52.307, 191 52.578, 191.006 70.911 C 191.015 94.826, 189.474 119.281, 186.337 145 C 184.963 156.275, 183.456 169.775, 182.990 175 C 182.524 180.225, 180.986 193.401, 179.571 204.280 C 176.348 229.072, 176.037 248.818, 178.829 251.345 C 181.292 253.574, 184.301 253.430, 186.520 250.977 C 187.975 249.371, 188.731 245.210, 190.204 230.727 C 191.223 220.702, 192.843 205.525, 193.804 197 L 195.550 181.500 197.353 188.800 C 199.667 198.166, 202.114 203.667, 208.199 213.188 L 213.113 220.876 210.557 227.267 C 209.150 230.781, 208 233.999, 208 234.417 C 208 235.913, 201.825 248.572, 199.301 252.250 C 197.886 254.313, 196.175 256, 195.499 256 C 194.823 256, 193.060 256.952, 191.580 258.115 C 188.060 260.884, 188.533 263.778, 193 266.797 C 196.902 269.434, 201.332 269.323, 205.674 266.478 C 210.354 263.412, 219.483 248.347, 222.181 239.240 C 222.875 236.898, 223.712 235.098, 224.042 235.240 C 224.372 235.383, 228.093 239.394, 232.310 244.154 C 243.922 257.260, 260.358 271.283, 267.754 274.397 C 275.538 277.673, 278.061 277.667, 281.364 274.364 C 283.970 271.757, 284.936 268, 283 268 C 282.450 268, 282 267.373, 282 266.607 C 282 265.064, 279.894 264, 276.842 264 C 272.321 264, 251.767 245.264, 237.216 227.878 C 233.247 223.136, 230 218.532, 230 217.648 C 230 216.763, 231.090 213.218, 232.422 209.770 C 233.755 206.321, 236.469 198.100, 238.454 191.500 C 240.439 184.900, 243.399 175.221, 245.031 169.990 C 246.664 164.760, 248.003 159.810, 248.008 158.990 C 248.012 158.171, 248.922 154.575, 250.031 151 C 254.921 135.230, 249.996 124.536, 239.445 128.018 C 235.467 129.331, 223.923 135.637, 217.500 140.006 C 212.486 143.416, 205.447 147.011, 201.654 148.099 L 198.751 148.932 199.395 144.080 C 202.904 117.626, 204.068 99.975, 203.913 75.525 L 203.749 49.551 213.125 45.852 C 225.310 41.044, 235.386 38.126, 241 37.778 L 245.500 37.500 246.126 50 C 246.888 65.212, 245.857 80.198, 243.702 85.250 C 241.974 89.300, 240.302 89.807, 234.331 88.095 C 231.999 87.426, 230.629 87.572, 229.087 88.652 C 223.146 92.813, 230.230 101.699, 240.233 102.632 C 249.327 103.481, 254.776 98.134, 259.005 84.210 C 260.958 77.779, 261.116 75.314, 260.822 55.834 C 260.515 35.477, 260.393 34.327, 258.153 30.726 C 256.863 28.650, 254.508 26.280, 252.921 25.459 C 249.758 23.823, 242.651 22.850, 239.500 23.621 M 67.481 27.020 L 64.588 30.039 63.348 50.770 C 62.666 62.171, 62.084 75.355, 62.054 80.066 L 62 88.631 50.537 89.826 C 37.378 91.198, 34.866 91.963, 31.462 95.636 C 28.250 99.101, 28.295 102.492, 31.579 104.644 C 34.277 106.412, 33.651 106.441, 57.250 103.451 L 61 102.976 61 109.055 C 61 113.937, 60.525 115.760, 58.584 118.317 C 56.264 121.374, 53.689 129.484, 52.017 139 C 51.240 143.429, 46.195 158.630, 43.555 164.500 C 42.813 166.150, 40.742 171.100, 38.952 175.500 C 37.162 179.900, 35.349 183.955, 34.924 184.512 C 34.498 185.069, 33.199 188.065, 32.037 191.171 C 30.875 194.277, 29.266 197.364, 28.462 198.031 C 27.658 198.699, 27 199.874, 27 200.643 C 27 202.605, 19.077 218.860, 16.301 222.594 C 12.101 228.243, 14.200 235, 20.154 235 C 22.993 235, 24.972 233.022, 30.663 224.500 C 34.632 218.557, 48 191.910, 48 189.943 C 48 189.380, 48.974 187.026, 50.164 184.710 C 51.354 182.395, 53.794 176.900, 55.587 172.500 L 58.846 164.500 58.282 197.500 C 57.912 219.148, 58.168 238.584, 59.025 254 C 59.743 266.925, 60.369 279.676, 60.415 282.336 C 60.486 286.356, 60.981 287.586, 63.348 289.623 C 65.327 291.325, 66.853 291.876, 68.348 291.429 C 73.442 289.905, 73.238 292.946, 73.064 221.001 C 72.951 174.652, 73.225 153.909, 73.945 154.150 C 75.707 154.740, 83.584 164.877, 85.929 169.572 C 88.666 175.052, 90.776 176.323, 94.809 174.917 C 98.291 173.703, 99.405 170.678, 98.382 165.221 C 97.669 161.424, 92.648 152.826, 88.745 148.719 C 86.623 146.487, 84.198 143.632, 76.788 134.646 L 73.610 130.791 73.893 116.730 C 74.048 108.996, 74.554 101.674, 75.016 100.459 C 75.576 98.986, 77.032 98.029, 79.385 97.588 C 83.866 96.747, 92.768 89.773, 93.602 86.449 C 94.342 83.500, 91.753 80, 88.830 80 C 87.807 80, 84.578 81.350, 81.654 83 C 78.730 84.650, 75.968 86, 75.514 86 C 74.736 86, 75.224 65.565, 76.657 38.153 C 77.182 28.131, 77.039 25.638, 75.902 24.918 C 73.290 23.264, 70.384 23.989, 67.481 27.020 M 112.946 29.750 C 112.393 31.262, 111.764 33.008, 111.548 33.629 C 111.332 34.249, 111.564 36.499, 112.064 38.629 C 112.563 40.758, 113.702 52.175, 114.595 64 C 117.066 96.711, 115.469 140.839, 110.485 177.575 C 107.804 197.342, 101.760 228.712, 99.999 232.002 C 98.792 234.257, 98.476 239.924, 99.399 242.748 C 100.536 246.227, 104.685 246.769, 107.630 243.824 C 109.979 241.475, 117.022 222.953, 116.981 219.236 C 116.970 218.281, 118.300 209.850, 119.936 200.500 C 121.573 191.150, 123.269 179.926, 123.706 175.558 L 124.500 167.615 129 166.435 C 135.982 164.604, 143.874 161.198, 147.443 158.476 C 149.228 157.114, 150.984 156, 151.344 156 C 151.705 156, 152 174.790, 152 197.756 L 152 239.512 149 240.840 C 146.396 241.992, 146 242.690, 146 246.124 C 146 253.289, 151.461 261, 156.535 261 C 158.764 261, 162.935 257.090, 165.025 253.041 C 166.658 249.877, 166.537 52.946, 164.896 43.608 C 163.818 37.474, 161.879 33.551, 159.468 32.626 C 158.024 32.072, 151.901 33.788, 151 35 C 149.958 36.400, 138.288 43.409, 133.342 45.604 C 130.505 46.863, 127.891 48.367, 127.533 48.947 C 127.175 49.526, 126.496 50, 126.024 50 C 124.961 50, 123 41.150, 123 36.355 C 123 31.162, 120.223 27, 116.760 27 C 114.605 27, 113.716 27.641, 112.946 29.750 M 149.500 50.689 C 144.564 54.464, 137.423 56.981, 131.619 56.990 L 125.738 57 126.339 60.703 C 126.670 62.740, 127.483 73.968, 128.147 85.653 C 128.852 98.078, 129.736 106.663, 130.276 106.329 C 130.784 106.015, 133.742 105.406, 136.850 104.976 C 142.807 104.151, 149.396 102.004, 151.050 100.350 C 151.659 99.741, 151.933 89.789, 151.768 74.262 C 151.502 49.336, 151.486 49.171, 149.500 50.689 M 148.960 117.688 C 147.563 118.359, 142.320 119.454, 137.309 120.121 L 128.197 121.334 127.557 132.417 C 127.206 138.513, 126.661 145.255, 126.346 147.399 L 125.774 151.298 129.278 150.730 C 133.447 150.053, 146.548 144.095, 149.789 141.402 C 151.966 139.593, 152.063 138.939, 151.789 127.985 L 151.500 116.469 148.960 117.688 M 224 152.184 C 211.413 159.870, 206.504 162, 201.374 162 C 199.347 162, 197.996 162.499, 197.989 163.250 C 197.983 163.938, 197.707 166.140, 197.375 168.146 C 196.808 171.572, 196.953 171.831, 199.784 172.453 C 201.441 172.817, 203.058 173.876, 203.377 174.807 C 204.564 178.270, 217.589 201.363, 218.526 201.668 C 219.379 201.945, 227.052 180.106, 227.014 177.510 C 227.002 176.631, 228.788 170.690, 235.060 150.750 C 236.055 147.588, 236.561 145.036, 236.184 145.081 C 235.808 145.126, 230.325 148.322, 224 152.184" stroke="none" fill="black" fill-rule="evenodd"/>
</svg>