<svg xmlns="http://www.w3.org/2000/svg" width="300" height="300" viewBox="0 0 300 300" version="1.1">
	<path d="M 86.571 29.571 C 85.707 30.436, 85 32.361, 85 33.849 C 85 35.337, 84.359 37.471, 83.575 38.590 C 81.917 40.956, 80.008 59.171, 80.003 72.667 L 80 81.834 74.750 83.001 C 71.862 83.642, 65.675 84.502, 61 84.912 C 50.928 85.794, 48.391 86.944, 47.493 91.032 C 46.658 94.832, 48.882 98.553, 52.389 99.223 C 53.770 99.487, 60.367 98.951, 67.050 98.032 C 76.898 96.678, 79.296 96.607, 79.699 97.659 C 79.973 98.373, 79.483 110.554, 78.609 124.729 C 77.735 138.903, 77.030 152.975, 77.043 156 C 77.055 159.025, 76.380 175.225, 75.541 192 C 74.703 208.775, 74.013 231.287, 74.008 242.028 C 74 260.679, 73.905 261.637, 71.881 263.370 C 70.169 264.836, 69.863 265.943, 70.291 269.130 C 70.582 271.301, 71.562 274.209, 72.469 275.593 C 73.859 277.714, 74.762 278.061, 78.217 277.805 C 81.853 277.534, 82.546 277.056, 84.347 273.575 C 87.073 268.306, 87.688 258.748, 88.584 207.787 L 89.317 166.074 92.232 167.787 C 95.292 169.585, 105.225 179.828, 108.297 184.353 C 112.513 190.564, 121.178 185.593, 119.052 178.182 C 116.982 170.962, 107.024 159.857, 96.435 152.958 L 89.775 148.619 90.367 141.059 C 90.693 136.902, 91.255 124.650, 91.618 113.833 L 92.277 94.166 96.889 92.477 C 109.786 87.753, 118.830 77.318, 115.623 70.862 C 113.933 67.460, 110.358 67.276, 107.852 70.461 C 106.096 72.693, 95.409 79, 93.382 79 C 93.011 79, 93.053 70.787, 93.474 60.750 C 94.432 37.953, 94.264 33.076, 92.421 30.250 C 90.699 27.610, 88.758 27.385, 86.571 29.571 M 215.018 38.740 C 209.397 40.946, 208.927 44.621, 208.010 93.500 C 207.556 117.700, 206.622 152.350, 205.934 170.500 C 204.687 203.399, 205.394 238.198, 208.030 273.593 C 209.182 289.073, 209.882 291, 214.353 291 C 220.785 291, 220.537 293.656, 220.133 229.016 L 219.765 170.347 225.109 170.225 C 230.086 170.111, 241.542 168.550, 257 165.877 C 264.231 164.627, 268 162.009, 268 158.236 C 268 156.908, 266.988 154.976, 265.750 153.944 C 262.803 151.485, 256.811 151.475, 241.500 153.904 C 234.900 154.950, 227.363 156.103, 224.750 156.465 L 220 157.123 220 147.189 L 220 137.256 236.933 136.532 C 252.177 135.880, 254.167 135.986, 256.881 137.589 C 259.356 139.051, 260.351 139.161, 262.447 138.206 C 264.558 137.244, 265 136.358, 265 133.090 C 265 125.542, 257.583 123, 235.557 123 L 221 123 221.006 117.750 C 221.009 114.862, 221.301 108.787, 221.654 104.250 L 222.296 96 227.554 96 C 230.446 96, 238.566 94.875, 245.599 93.500 C 260.290 90.628, 262.764 90.507, 265.441 92.532 C 268.161 94.589, 269.718 94.373, 272.545 91.545 C 275.584 88.507, 275.736 84.155, 272.917 80.903 C 270.961 78.646, 270.186 78.500, 260.167 78.500 C 253.678 78.500, 244.337 79.381, 236.317 80.750 C 229.066 81.988, 222.654 83, 222.067 83 C 220.772 83, 220.702 61.316, 221.959 49.500 C 222.669 42.827, 222.551 41.210, 221.250 39.750 C 219.676 37.985, 217.741 37.671, 215.018 38.740 M 171.378 45.546 C 169.971 47.693, 169.826 49.533, 170.454 57.296 C 170.863 62.358, 171.491 71.126, 171.849 76.780 L 172.500 87.060 168.500 88.016 C 166.300 88.541, 158.732 90.819, 151.683 93.077 C 144.410 95.407, 137.910 96.943, 136.657 96.629 C 133.825 95.918, 128 101.131, 128 104.376 C 128 106.863, 131.314 110.412, 134.549 111.389 C 137.078 112.152, 149.530 108.961, 159.551 104.980 C 163.677 103.341, 168.413 102, 170.076 102 L 173.100 102 172.800 107.678 L 172.500 113.357 167.500 114.551 C 162.545 115.735, 156.953 117.605, 141.500 123.248 C 128.747 127.904, 127.014 128.833, 125.976 131.564 C 123.147 139.004, 130.032 143.430, 138.349 139.518 C 140.082 138.703, 145.325 136.741, 150 135.158 C 154.675 133.575, 161.537 131.112, 165.250 129.684 L 172 127.090 171.968 134.795 C 171.950 139.297, 171.430 143.139, 170.718 144.037 C 168.564 146.754, 163.664 149.590, 157.038 151.955 C 149.285 154.723, 132.394 163.193, 129.250 165.890 C 124.339 170.104, 128.157 177.723, 134.651 176.669 C 137.196 176.256, 158.083 166.708, 168.131 161.365 C 168.478 161.180, 168.132 164.285, 167.363 168.264 C 166.593 172.244, 165.531 178.425, 165.002 182 C 164.474 185.575, 162.913 192.550, 161.533 197.500 C 160.154 202.450, 159.019 207.521, 159.012 208.768 C 158.998 211.389, 152.490 232.523, 150.780 235.500 C 150.149 236.600, 149.007 238.737, 148.243 240.250 C 147.479 241.762, 146.222 243, 145.450 243 C 144.678 243, 143.376 244.023, 142.557 245.272 C 137.216 253.424, 151.667 256.684, 158.206 248.803 C 159.713 246.986, 160.958 245.169, 160.973 244.765 C 160.988 244.361, 162.350 241.836, 164 239.154 C 165.650 236.473, 167 233.694, 167 232.980 C 167 232.266, 168.508 226.691, 170.352 220.591 C 177.272 197.693, 179.399 187.182, 184.505 150.643 C 188.612 121.253, 187.823 69.351, 183.034 53.845 C 179.876 43.622, 174.941 40.108, 171.378 45.546 M 66.302 119.012 C 62.781 120.430, 61.323 124.785, 60.617 136 C 59.337 156.298, 53.101 177.843, 42.235 199.500 C 39.751 204.450, 36.270 211.875, 34.498 216 C 32.727 220.125, 29.802 226.520, 27.998 230.211 C 24.845 236.665, 24.783 237.020, 26.383 239.461 C 27.531 241.214, 28.945 242, 30.946 242 C 36.248 242, 39.471 237.872, 48.377 219.672 C 67.270 181.065, 73.279 160.554, 73.426 134.174 C 73.493 122.089, 73.319 120.715, 71.559 119.424 C 69.358 117.810, 69.299 117.805, 66.302 119.012" stroke="none" fill="black" fill-rule="evenodd"/>
</svg>