<svg xmlns="http://www.w3.org/2000/svg" width="300" height="300" viewBox="0 0 300 300" version="1.1">
	<path d="M 136.515 9.564 C 134.647 10.976, 134.545 12.115, 134.789 28.782 C 135.155 53.734, 136.694 71.005, 138.756 73.283 C 141.055 75.823, 145.188 75.123, 146.708 71.936 C 147.380 70.526, 148.240 63.205, 148.618 55.667 L 149.306 41.961 151.903 41.459 C 160.766 39.744, 169.498 37.427, 176.256 34.998 C 180.522 33.465, 184.261 32.613, 184.565 33.105 C 185.657 34.872, 190.738 33.972, 193.354 31.548 C 196.492 28.639, 196.763 25, 194.024 22.522 C 190.006 18.886, 171.579 22.462, 153.783 30.332 L 148.099 32.846 147.591 28.673 C 147.311 26.378, 146.811 21.636, 146.479 18.136 C 146.147 14.636, 145.345 10.924, 144.697 9.886 C 143.288 7.631, 139.282 7.473, 136.515 9.564 M 146.500 75.144 C 129.575 78.218, 112.486 82.871, 108.349 85.533 C 106.498 86.724, 105.629 86.693, 102.123 85.316 C 98.813 84.016, 97.762 83.953, 96.524 84.980 C 94.566 86.605, 94.585 89.436, 96.574 92.473 C 97.440 93.794, 98.790 97.265, 99.574 100.187 C 101.218 106.314, 103.993 130.651, 103.699 136.366 C 103.454 141.116, 105.531 142.906, 109.610 141.462 C 113.072 140.236, 114.823 135.541, 114.924 127.215 C 114.995 121.321, 115.120 120.994, 116.934 121.965 C 119.646 123.416, 130.560 123.221, 143.500 121.489 C 149.550 120.679, 157.958 120.013, 162.185 120.008 C 172.279 119.997, 175 118.951, 175 115.081 C 175 109.921, 172.335 108.997, 157.527 109.024 C 150.362 109.037, 142.700 109.489, 140.500 110.028 C 138.300 110.568, 133.298 111.438, 129.385 111.963 C 125.472 112.487, 120.435 113.549, 118.190 114.322 L 114.110 115.728 113.494 110.114 C 113.156 107.026, 112.527 102.665, 112.097 100.422 L 111.316 96.343 115.908 95.075 C 118.434 94.377, 123.425 92.982, 127 91.975 C 146.897 86.371, 159.383 84.971, 171.998 86.930 C 182.658 88.586, 184 89.687, 184 96.775 C 184 103.823, 180.189 119.599, 176.503 127.813 L 173.760 133.927 170.730 132.360 C 168.268 131.087, 164.850 130.859, 152.503 131.147 C 143.427 131.358, 136.742 131.947, 135.904 132.609 C 135.132 133.219, 130.900 134.528, 126.500 135.518 C 116.635 137.737, 115 138.529, 115 141.086 C 115 144.516, 121.135 146.352, 130.261 145.654 C 137.898 145.070, 138.014 145.097, 137.504 147.280 C 137.218 148.501, 137.358 155.125, 137.815 162 C 138.272 168.875, 138.552 174.636, 138.438 174.802 C 138.323 174.968, 135.141 175.540, 131.365 176.073 C 97.283 180.889, 80.982 184.875, 76.323 189.534 C 74.777 191.080, 74.569 194.616, 75.974 195.484 C 76.971 196.100, 88.156 194.688, 112 190.934 C 123.683 189.095, 139.242 187.106, 139.625 187.403 C 139.694 187.456, 139.963 192.111, 140.223 197.746 C 140.612 206.189, 140.462 207.798, 139.367 206.890 C 137.273 205.152, 130.379 209.796, 121.918 218.644 C 117.838 222.910, 111.752 229.123, 108.393 232.450 C 102.073 238.711, 84.751 250.953, 78.542 253.547 C 75.687 254.740, 75 255.568, 75 257.813 C 75 266.607, 85.984 264.424, 104 252.050 C 112.381 246.294, 133.850 224.815, 137.601 218.432 L 140.500 213.500 140.839 217 C 141.025 218.925, 141.025 230.040, 140.839 241.701 C 140.595 256.939, 140.148 263.253, 139.250 264.151 C 137.572 265.828, 137.676 267.533, 139.571 269.429 C 141.808 271.665, 145.315 271.372, 147.688 268.750 C 151.233 264.833, 152 258.397, 152 232.557 C 152 219.051, 152.216 208, 152.480 208 C 152.744 208, 155.331 209.820, 158.230 212.045 C 163.452 216.052, 182.756 226.097, 203 235.340 C 208.775 237.976, 214.269 240.546, 215.209 241.050 C 216.149 241.553, 222.489 244.212, 229.298 246.957 C 251.957 256.094, 263.073 257.250, 263.836 250.549 C 264.223 247.144, 262.023 245.018, 258.059 244.967 C 256.651 244.949, 253.250 244.125, 250.500 243.136 C 245.543 241.352, 243.288 240.410, 235.434 236.846 C 233.198 235.830, 231.068 235, 230.700 235 C 230.333 235, 227.245 233.650, 223.839 232 C 220.432 230.350, 217.105 229, 216.445 229 C 215.785 229, 214.685 228.325, 214 227.500 C 213.315 226.675, 212.138 226, 211.384 226 C 210.630 226, 203.147 222.694, 194.756 218.653 C 171.116 207.267, 154.585 200, 152.328 200 C 151.462 200, 150.996 198.695, 150.989 196.250 C 150.983 194.188, 150.699 190.813, 150.358 188.750 C 149.744 185.034, 149.769 185, 153.119 185.001 C 161.068 185.003, 186.408 179.225, 193.155 175.872 C 197.302 173.812, 201 169.600, 201 166.938 C 201 165.952, 199.818 164.216, 198.374 163.080 L 195.748 161.014 192.559 163.814 C 190.061 166.007, 187.106 167.074, 178.935 168.732 C 164.355 171.691, 150.686 174.020, 150.280 173.614 C 150.092 173.425, 149.707 170.848, 149.426 167.886 C 149.144 164.924, 148.185 158.627, 147.295 153.893 C 146.405 149.159, 145.934 144.615, 146.249 143.794 C 146.695 142.630, 149.500 142.179, 159.021 141.740 C 165.732 141.431, 171.677 140.723, 172.234 140.166 C 172.916 139.484, 174.029 139.512, 175.652 140.251 C 179.111 141.827, 182.710 138.821, 186.843 130.904 C 196.316 112.757, 199.018 89.202, 192.459 81.954 C 186.742 75.637, 163.087 72.132, 146.500 75.144" stroke="none" fill="black" fill-rule="evenodd"/>
</svg>