<svg xmlns="http://www.w3.org/2000/svg" width="300" height="300" viewBox="0 0 300 300" version="1.1">
	<path d="M 197.887 21.570 C 195.350 24.561, 191.786 29.820, 189.968 33.255 C 187.030 38.805, 183.482 44.363, 175.450 56 C 174.122 57.925, 172.686 59.950, 172.260 60.500 C 169.219 64.427, 168.112 71.473, 169.987 74.976 C 171.440 77.691, 177.611 78.407, 183 76.486 C 185.475 75.603, 189.643 74.469, 192.262 73.964 C 197.571 72.942, 206.449 69.008, 210.321 65.962 C 212.835 63.985, 212.860 63.985, 213.479 65.933 C 214.751 69.941, 222.286 69.802, 223.590 65.748 C 225.715 59.140, 222.943 49.517, 217.649 45.124 C 214.817 42.773, 211.113 44.572, 209.088 49.281 C 207.019 54.094, 202.277 57.252, 193.781 59.475 C 190.876 60.235, 187.681 61.174, 186.681 61.562 C 185.477 62.028, 186.745 59.428, 190.424 53.884 C 193.483 49.273, 196.873 43.700, 197.956 41.500 C 199.040 39.300, 201.743 34.606, 203.963 31.069 C 206.183 27.532, 208 23.439, 208 21.974 C 208 19.401, 205.311 15.931, 203.421 16.065 C 202.915 16.101, 200.424 18.578, 197.887 21.570 M 87.571 37.571 C 86.707 38.436, 85.956 39.673, 85.902 40.321 C 85.848 40.970, 85.286 51.140, 84.652 62.923 L 83.500 84.346 78 85.495 C 70.120 87.142, 64.906 89.603, 61.750 93.166 C 58.541 96.789, 58.287 99.045, 60.829 101.345 C 63.562 103.819, 65.198 103.576, 80.165 98.476 L 83.830 97.228 84.516 103.136 C 85.072 107.933, 84.864 109.557, 83.410 111.772 C 82.424 113.272, 78.165 124.645, 73.946 137.044 C 69.726 149.444, 65.800 160.469, 65.222 161.544 C 64.643 162.620, 61.770 168.450, 58.838 174.500 C 55.906 180.550, 52.268 187.365, 50.754 189.645 C 49.239 191.925, 47.979 194.175, 47.954 194.645 C 47.862 196.371, 35.318 213.389, 33.440 214.337 C 32.373 214.875, 30.855 215.612, 30.067 215.975 C 25.740 217.965, 26.429 224.723, 31.127 226.376 C 35.161 227.794, 38.771 226.329, 44.427 220.980 C 53.425 212.471, 67.814 189.324, 75.498 171 C 76.997 167.425, 78.625 163.600, 79.115 162.500 C 79.606 161.400, 80.888 158.025, 81.964 155 L 83.921 149.500 83.447 157 C 81.670 185.134, 80.117 273.762, 81.366 275.782 C 82.412 277.476, 87.550 277.307, 89.337 275.520 C 90.151 274.706, 91.090 272.343, 91.423 270.270 C 92.595 262.977, 96 181.413, 96.023 160.081 L 96.046 138.500 107.403 150.250 C 113.649 156.713, 119.518 162, 120.445 162 C 124.024 162, 126 160.021, 126 156.438 C 126 151.135, 114.582 136.546, 101.250 124.814 L 96 120.194 96 106.175 L 96 92.155 99.250 91.076 C 101.037 90.482, 103.939 88.646, 105.697 86.997 C 108.597 84.276, 108.797 83.717, 107.848 80.992 C 106.506 77.145, 102.817 76.086, 98.873 78.416 L 96 80.113 96 61.007 C 96 45.837, 95.686 41.293, 94.474 38.950 C 92.782 35.678, 90.017 35.126, 87.571 37.571 M 202.809 79.722 C 201.329 80.640, 199.832 82.541, 199.482 83.946 C 199.132 85.351, 198.255 87.850, 197.533 89.500 C 191.341 103.653, 189.383 115.280, 192.498 119.394 C 193.812 121.131, 193.632 121.449, 190.337 123.215 C 188.360 124.275, 186.394 124.773, 185.968 124.321 C 185.542 123.869, 184.467 120.619, 183.579 117.098 C 180.698 105.678, 178.133 102.521, 173.676 104.906 C 170.781 106.455, 169 109.937, 169 114.047 C 169 115.924, 168.485 117, 167.588 117 C 166.811 117, 163.054 118.800, 159.238 121 C 155.422 123.200, 151.705 125, 150.979 125 C 150.252 125, 148.947 125.625, 148.079 126.389 C 146.398 127.867, 140 129.576, 140 128.546 C 140 128.209, 141.177 125.611, 142.616 122.772 C 153.846 100.610, 156.776 85.042, 150.275 82.079 C 148.897 81.452, 146.917 81.209, 145.874 81.540 C 143.379 82.332, 141 87.064, 141 91.235 C 141 94.418, 137.661 105.394, 136.052 107.500 C 135.632 108.050, 132.973 112.884, 130.144 118.241 C 123.780 130.293, 123.290 135.229, 127.973 140.129 C 132.095 144.443, 137.890 145.034, 146.258 141.995 C 153.690 139.296, 166.979 131.002, 170.416 126.917 C 172.849 124.026, 172.872 124.021, 173.574 126.233 C 173.963 127.459, 175.163 129.654, 176.240 131.111 C 177.732 133.129, 177.957 134.212, 177.184 135.656 C 175.996 137.875, 158.927 154.356, 154.042 158 C 148.649 162.023, 143.555 166.113, 143.007 166.858 C 142.728 167.239, 137.550 171.583, 131.500 176.512 C 113.788 190.943, 112 192.778, 112 196.520 C 112 202.443, 116.794 202.556, 125.305 196.836 C 143.074 184.893, 177.470 156.319, 184.840 147.378 L 187.915 143.648 195.207 146.396 C 199.218 147.908, 209.925 152.790, 219 157.246 C 245.377 170.197, 247.917 171.238, 251.497 170.567 C 255.858 169.748, 257.710 166.264, 255.858 162.363 C 254.799 160.132, 251.608 158.066, 241.399 153 C 234.193 149.425, 227.669 146.012, 226.899 145.415 C 224.043 143.199, 201.235 134, 198.599 134 C 196.195 134, 195.961 133.728, 196.660 131.750 C 197.097 130.512, 197.464 128.105, 197.477 126.401 C 197.500 123.363, 197.581 123.311, 201.638 123.768 C 204.066 124.042, 207.856 123.544, 210.808 122.564 C 216.022 120.832, 226.839 113.693, 233.095 107.855 L 236.690 104.500 238.479 109 C 241.232 115.930, 242.817 118, 245.368 118 C 249.529 118, 251.298 114.840, 250.513 108.809 C 248.655 94.534, 244.424 85.084, 239.863 85.022 C 238.963 85.010, 234.912 88.292, 230.863 92.315 C 226.813 96.338, 221.347 101.095, 218.717 102.886 C 213.400 106.505, 205.099 110.432, 204.349 109.683 C 204.083 109.416, 205.196 105.216, 206.823 100.349 C 211.796 85.473, 211.950 84.608, 210.261 81.120 C 208.566 77.619, 206.749 77.278, 202.809 79.722 M 197.043 158.060 C 194.218 160.293, 188.686 166.481, 184.750 171.810 C 180.814 177.140, 177.235 181.650, 176.797 181.833 C 176.359 182.017, 176 182.590, 176 183.107 C 176 183.625, 174.425 186.338, 172.500 189.136 C 168.213 195.369, 167.878 199.532, 171.529 201.195 C 175.511 203.010, 176.195 202.378, 196 178.619 C 199.575 174.330, 203.840 169.257, 205.477 167.346 C 207.701 164.750, 208.455 162.862, 208.455 159.885 C 208.455 152.819, 204.478 152.184, 197.043 158.060 M 204.937 177.722 C 204.078 177.916, 202.814 179.625, 202.129 181.519 C 201.444 183.414, 198.258 188.177, 195.050 192.104 C 188.164 200.532, 179.013 216.146, 178.267 220.741 C 177.620 224.726, 179.321 227, 182.948 227 C 185.849 227, 189.002 224.210, 192.434 218.606 C 196.424 212.091, 199.768 207.437, 205.358 200.623 C 210.808 193.979, 211 193.544, 211 187.807 C 211 179.724, 209.216 176.756, 204.937 177.722 M 225.785 203.750 C 224.947 204.713, 224.459 206.045, 224.701 206.711 C 225.396 208.625, 216.837 222.466, 210.514 229.653 C 209.956 230.287, 207.700 232.985, 205.500 235.648 C 192.683 251.165, 180.225 263.335, 167 273.260 C 154.137 282.913, 151.531 286.531, 154.969 289.969 C 157.316 292.316, 161.159 291.506, 166.305 287.581 C 168.166 286.162, 169.957 285, 170.284 285 C 170.612 285, 175.070 282.198, 180.190 278.773 C 196.155 268.096, 218.230 244.059, 233.344 220.896 C 238.076 213.643, 238.462 207.295, 234.365 204.073 C 231.145 201.540, 227.820 201.415, 225.785 203.750" stroke="none" fill="black" fill-rule="evenodd"/>
</svg>