<svg xmlns="http://www.w3.org/2000/svg" width="300" height="300" viewBox="0 0 300 300" version="1.1">
	<path d="M 189.411 24.451 C 186.783 25.571, 181.454 32.821, 179.084 38.500 C 178.289 40.404, 170.278 52.535, 164.652 60.355 C 158.445 68.981, 157.552 72.599, 161.392 73.562 C 164.920 74.448, 169.487 71.635, 173.714 65.973 C 176.799 61.842, 184.581 56.248, 185.695 57.362 C 185.863 57.530, 184.453 61.229, 182.562 65.583 L 179.124 73.500 173.180 74.087 C 165.455 74.850, 157.619 78.655, 157.165 81.865 C 156.679 85.299, 157.944 86.052, 165.620 86.899 C 170.454 87.433, 171.905 87.885, 170.500 88.422 C 157.655 93.322, 153 96.025, 153 98.584 C 153 100.634, 155.949 103, 158.505 103 C 160.314 103, 160.941 103.621, 161.184 105.649 C 161.911 111.736, 168.390 111.233, 173.044 104.729 C 178.128 97.623, 178.858 97, 182.097 97 C 184.528 97, 185.080 97.348, 184.607 98.582 C 184.273 99.452, 184 102.611, 184 105.603 C 184 110.309, 183.697 111.165, 181.750 111.948 C 180.512 112.446, 174.110 114.983, 167.523 117.585 C 147.356 125.552, 143.901 128.023, 147.447 131.941 C 148.813 133.451, 150.536 134, 153.905 133.999 C 157.999 133.999, 167.841 131.075, 170.500 129.068 C 171.826 128.068, 185.187 122.827, 185.447 123.205 C 185.559 123.367, 186.404 128.286, 187.325 134.136 C 189.963 150.886, 189.430 159.569, 185.600 162.278 C 184.247 163.235, 175.941 162.175, 174.315 160.838 C 172.579 159.410, 166.862 160.244, 165.704 162.095 C 163.537 165.558, 165.661 168.634, 171.737 170.828 C 181.779 174.455, 190.626 174.145, 195.346 170.001 C 200.874 165.147, 201.992 157.837, 199.981 139.692 C 199.421 134.636, 198.634 127.401, 198.231 123.613 L 197.500 116.725 201.272 112.958 C 204.761 109.474, 204.953 108.990, 203.826 106.517 C 202.604 103.836, 201.167 103.618, 196.819 105.452 C 195.468 106.022, 195.076 105.509, 194.819 102.830 C 194.642 100.999, 194.883 97.538, 195.354 95.140 C 196.397 89.819, 194.672 87.304, 190.862 88.593 C 188.736 89.312, 185.988 89.279, 185.203 88.524 C 185.039 88.367, 186.688 84.698, 188.865 80.370 C 194.110 69.946, 197 61.099, 197 55.466 C 197 49.914, 195.807 47.461, 191.974 45.130 L 189.076 43.368 193.106 37.200 C 197.515 30.452, 197.929 26.654, 194.500 24.430 C 192.859 23.366, 191.945 23.370, 189.411 24.451 M 132.348 47.907 C 129.225 51.554, 127.186 59.819, 126.477 71.706 L 125.773 83.502 117.636 85.869 C 113.161 87.171, 108.422 88.473, 107.105 88.762 L 104.711 89.288 105.426 72.379 C 106.106 56.316, 106.041 55.353, 104.129 53.149 C 102.052 50.754, 99.191 50.812, 97.214 53.289 C 96.211 54.545, 93.528 83.634, 93.802 90.277 C 94.005 95.180, 95.380 97.628, 98.980 99.490 C 102.928 101.531, 108.388 101.340, 115 98.930 C 126.601 94.700, 126 94.727, 126 98.433 C 126 101.678, 125.908 101.745, 119.750 102.932 C 99.618 106.816, 92.728 109.448, 90.010 114.291 C 87.033 119.597, 91.948 121.903, 101.691 119.772 L 104.882 119.074 103.391 123.787 C 102.571 126.379, 101.304 130.525, 100.575 133 C 95.898 148.891, 91.646 161.617, 89.887 164.993 C 88.089 168.441, 88.005 169.240, 89.181 171.704 C 90.682 174.850, 95.102 175.990, 97.638 173.885 C 101.923 170.330, 112.054 141.867, 114.849 125.536 L 116.554 115.572 120.955 114.298 C 123.376 113.597, 125.483 113.150, 125.637 113.304 C 125.791 113.458, 126.222 125.715, 126.594 140.542 C 126.966 155.369, 127.675 168.287, 128.170 169.250 C 129.324 171.493, 134.300 171.550, 136.128 169.341 C 137.235 168.002, 137.523 160.044, 137.617 128.091 C 137.681 106.316, 137.809 88.275, 137.900 88 C 138.741 85.469, 138.649 51.324, 137.796 49.452 C 136.342 46.259, 134.263 45.670, 132.348 47.907 M 168.677 141.150 C 159.333 143.452, 153.852 146.621, 154.234 149.500 C 154.472 151.292, 155.229 151.493, 161.500 151.434 C 169.725 151.356, 182.142 148.516, 185.246 146.002 C 187.156 144.456, 187.279 143.908, 186.235 141.617 C 185.206 139.357, 184.460 139.015, 180.771 139.111 C 178.422 139.172, 172.980 140.090, 168.677 141.150 M 150.447 163.765 C 148.518 165.112, 145 174.818, 145 178.796 C 145 180.955, 144.720 184.766, 144.377 187.265 C 143.810 191.403, 143.474 191.856, 140.627 192.327 C 138.907 192.611, 135.250 193.511, 132.500 194.326 C 129.750 195.141, 120.352 197.872, 111.615 200.394 C 102.878 202.916, 95.116 205.489, 94.365 206.112 C 92.453 207.699, 92.665 209.665, 95 212 C 97.451 214.451, 105.735 214.729, 112.215 212.577 C 118.723 210.416, 133.213 206.091, 138.805 204.641 L 143.784 203.349 144.511 228.558 C 144.911 242.422, 145.063 259.784, 144.848 267.139 C 144.512 278.634, 144.138 281.123, 142.182 284.875 C 140.032 289, 140.001 289.343, 141.609 291.120 C 145.235 295.128, 150.117 292.448, 153.697 284.486 C 155.339 280.833, 155.466 277.144, 155.221 240.342 L 154.953 200.184 159.226 199.511 C 163.416 198.852, 165.910 198.201, 180.955 193.841 C 191.395 190.816, 195.206 186.490, 191.608 181.750 C 190.053 179.701, 187.380 179.479, 185.604 181.250 C 184.915 181.938, 179.660 183.338, 173.926 184.361 C 168.192 185.385, 161.588 186.820, 159.250 187.551 L 155 188.879 155 176.546 C 155 166.223, 154.742 164.115, 153.418 163.607 C 151.516 162.877, 151.737 162.865, 150.447 163.765 M 125.641 219.250 C 122.765 222.137, 118.087 228.100, 115.245 232.500 C 112.402 236.900, 109.722 240.957, 109.288 241.516 C 108.855 242.074, 106.758 245.899, 104.629 250.016 C 97.749 263.316, 95.872 266.458, 93.414 268.790 C 90.606 271.454, 90.380 273.237, 92.571 275.429 C 95.485 278.342, 99.043 277.339, 103.934 272.228 C 106.445 269.603, 109.175 266.119, 110 264.487 C 110.825 262.854, 113.122 259.039, 115.104 256.009 C 117.087 252.979, 121.538 245.100, 124.996 238.500 C 128.453 231.900, 132.611 224.557, 134.236 222.183 C 137.066 218.045, 137.116 217.786, 135.439 215.933 C 132.805 213.022, 131.354 213.514, 125.641 219.250 M 162.362 225.500 C 161.382 228.052, 162.710 229.777, 167.191 231.777 C 169.561 232.835, 175.130 236.581, 179.567 240.101 C 192.387 250.270, 217.353 267.043, 222.692 269.073 C 225.667 270.204, 227.300 269.120, 228.463 265.240 C 229 263.449, 228.245 262.053, 224.820 258.507 C 222.444 256.046, 220.022 254.026, 219.439 254.017 C 218.855 254.007, 217.505 253.213, 216.439 252.250 C 213.236 249.359, 191.481 234.763, 184.561 230.862 C 173.386 224.563, 163.626 222.206, 162.362 225.500" stroke="none" fill="black" fill-rule="evenodd"/>
</svg>