<svg xmlns="http://www.w3.org/2000/svg" width="300" height="300" viewBox="0 0 300 300" version="1.1">
	<path d="M 120.082 20.368 C 118.251 23.330, 118 25.311, 118 36.807 L 118 49.877 113.750 50.424 C 98.917 52.333, 90.569 52.955, 87.141 52.407 C 83.960 51.898, 82.822 52.178, 81.110 53.890 C 78.249 56.751, 78.458 59.423, 81.750 62.046 C 84.378 64.139, 85.165 64.213, 99.500 63.718 C 107.750 63.433, 115.287 62.882, 116.250 62.493 C 117.758 61.884, 117.998 62.388, 117.985 66.143 C 117.976 68.539, 117.639 70.991, 117.235 71.591 C 116.543 72.617, 108.474 74.103, 96 75.501 C 84.253 76.818, 82.031 85.647, 92.980 87.497 C 95.191 87.870, 97 88.305, 97 88.463 C 97 88.621, 94.525 93.978, 91.500 100.367 C 85.260 113.546, 84.397 118.948, 88.250 120.704 C 92.574 122.674, 94.434 120.723, 101.469 106.835 C 105.185 99.501, 108.624 93.073, 109.112 92.550 C 109.600 92.028, 110 90.613, 110 89.407 C 110 87.415, 111.695 86, 114.082 86 C 114.587 86, 115 87.143, 115 88.540 C 115 91.729, 118.088 97.872, 121.013 100.500 C 123.038 102.320, 124.497 102.483, 137.220 102.313 C 152.633 102.108, 155 101.267, 155 96 C 155 89.991, 148.122 88.135, 134.250 90.400 L 129 91.258 129 87.723 C 129 84.218, 129.045 84.181, 134.230 83.468 C 144.908 82, 152 77.980, 152 73.397 C 152 69.224, 147 66.400, 144.333 69.067 C 143.746 69.654, 139.944 70.385, 135.883 70.693 L 128.500 71.251 128.846 66.138 C 129.230 60.452, 127.869 61.359, 141.213 57.904 C 147.642 56.240, 149.507 50.680, 144.531 48.016 C 142.770 47.074, 141.018 47.045, 137.066 47.892 C 134.225 48.502, 131.416 49, 130.822 49 C 130.072 49, 129.947 45.120, 130.412 36.250 C 131.028 24.518, 130.919 23.240, 129.055 20.250 C 126.291 15.816, 122.867 15.861, 120.082 20.368 M 190.830 39.919 C 189.426 41.023, 187.265 44.306, 186.027 47.213 C 184.788 50.121, 182.987 54.300, 182.024 56.500 C 180.493 59.997, 178.242 68.038, 176.565 76 C 176.162 77.914, 174.685 79.065, 170.269 80.909 C 159.835 85.266, 157.851 86.821, 158.195 90.365 L 158.500 93.500 165.631 93.500 C 172.672 93.500, 172.751 93.529, 171.881 95.815 C 171.396 97.088, 170.993 99.113, 170.985 100.315 C 170.976 101.517, 170.554 103.157, 170.046 103.960 C 169.243 105.229, 168.885 105.212, 167.311 103.831 C 159.466 96.945, 150.555 99.353, 155.932 106.905 C 157.070 108.502, 158 110.143, 158 110.551 C 158 110.960, 159.624 113.276, 161.610 115.699 L 165.220 120.105 163.704 125.802 C 158.594 145.016, 157.056 149.889, 155.046 153.250 C 153.812 155.312, 152.405 157, 151.920 157 C 150.394 157, 149.704 161.938, 151.011 163.513 C 152.673 165.516, 158.003 165.358, 160.635 163.228 C 165.321 159.436, 169.645 150.290, 173.627 135.750 C 174.643 132.038, 175.943 129, 176.515 129 C 177.087 129, 178.563 129.706, 179.795 130.569 C 181.027 131.432, 184.973 132.595, 188.563 133.154 C 194.060 134.010, 195.478 133.917, 197.545 132.562 C 200.025 130.938, 200.637 128.552, 199.169 126.239 C 198.729 125.546, 195.776 124.067, 192.608 122.953 C 189.440 121.840, 185.106 119.829, 182.977 118.486 L 179.107 116.042 180.426 111.771 C 182.278 105.774, 184.599 97.382, 186.040 91.469 L 187.266 86.439 195.383 83.224 C 199.847 81.457, 204.287 79.735, 205.250 79.398 C 206.863 78.834, 207 79.892, 207 92.904 C 207 111.515, 210.005 125.604, 217.288 141.141 C 221.323 149.748, 227.033 156.698, 231.657 158.630 C 236.870 160.808, 243.278 160.407, 245.718 157.750 C 248.787 154.407, 249.359 149.973, 247.070 147.250 C 244.883 144.648, 243.162 144.430, 240.449 146.414 C 236.506 149.297, 231.646 144.144, 226.857 132 C 220.625 116.195, 219.001 106.310, 218.999 84.178 C 218.998 69.996, 218.914 69.403, 216.517 66.616 C 214.383 64.134, 213.536 63.814, 210.442 64.316 C 208.465 64.636, 203.307 66.722, 198.980 68.950 C 194.653 71.177, 190.925 73, 190.695 73 C 189.501 73, 194.780 50.239, 196.680 47.195 C 197.471 45.927, 197.979 43.452, 197.809 41.695 C 197.426 37.739, 194.536 37.004, 190.830 39.919 M 106.698 105.794 C 103.423 109.211, 102 113.693, 102 120.583 C 102 125.073, 101.697 125.817, 99.453 126.839 C 98.052 127.478, 96.494 128, 95.991 128 C 94.460 128, 84.025 135.428, 84.012 136.527 C 84.005 137.093, 84.725 138.590, 85.612 139.856 C 87.068 141.936, 87.718 142.089, 92.362 141.454 C 95.188 141.068, 98.569 140.347, 99.877 139.852 L 102.253 138.953 101.811 147.370 C 101.509 153.134, 100.812 156.638, 99.600 158.488 C 98.562 160.072, 98.063 162.116, 98.394 163.432 C 98.895 165.431, 97.929 166.187, 89.541 170.350 C 79.416 175.377, 75.727 178.861, 76.202 182.945 C 76.492 185.432, 76.678 185.493, 83.204 185.232 C 87.891 185.044, 91.360 184.234, 94.731 182.541 C 97.383 181.209, 106.741 177.208, 115.526 173.649 C 137.736 164.652, 145.718 160.372, 149.167 155.610 C 153.204 150.038, 152.878 145.925, 148.308 144.771 C 146.778 144.385, 145.124 145.103, 142.828 147.154 C 139.072 150.507, 135.370 152.329, 122 157.408 C 111.139 161.534, 109.507 161.803, 110.850 159.250 C 111.356 158.287, 112.525 153.450, 113.448 148.500 C 115.888 135.414, 115.737 135.633, 123.642 133.718 C 135.499 130.844, 142 126.632, 142 121.824 C 142 118.146, 138.189 116.048, 134.741 117.829 C 126.768 121.946, 116.715 123.306, 115.607 120.418 C 115.273 119.548, 114.993 116.511, 114.985 113.668 C 114.969 108.008, 113.293 103.680, 110.942 103.227 C 110.113 103.068, 108.203 104.223, 106.698 105.794 M 146.452 166.765 C 145.875 167.169, 144.403 168.934, 143.179 170.686 C 141.416 173.212, 140.825 175.845, 140.329 183.397 L 139.703 192.922 135.602 193.414 C 133.346 193.685, 126.550 194.160, 120.500 194.469 C 100.397 195.498, 92 198.661, 92 205.206 C 92 206.904, 92.650 208.312, 93.602 208.677 C 94.483 209.016, 100.220 208.786, 106.352 208.168 C 112.483 207.549, 122.787 206.747, 129.250 206.386 L 141 205.728 141 210.364 L 141 215 137.194 215 C 130.857 215, 126.872 218.558, 117.598 232.500 C 108.997 245.430, 98.452 258.510, 92.875 263.165 C 84.078 270.509, 82.848 271.914, 83.183 274.238 C 83.357 275.445, 84.686 277.097, 86.136 277.908 C 88.614 279.294, 89.114 279.177, 94.499 275.941 C 97.649 274.049, 102.235 270.743, 104.691 268.596 C 109.967 263.984, 121.228 250.036, 129.819 237.472 C 133.194 232.537, 137.108 227.150, 138.517 225.500 L 141.080 222.500 140.758 251.839 C 140.467 278.242, 140.264 281.273, 138.730 282.131 C 137.792 282.656, 136.530 284.009, 135.927 285.137 C 135.028 286.817, 135.239 287.625, 137.089 289.594 C 140.217 292.924, 145.184 292.853, 147.869 289.439 C 151.539 284.774, 152.337 277.142, 152.420 245.878 C 152.495 218.096, 152.609 216.296, 154.252 216.900 C 155.215 217.255, 159.973 221.400, 164.826 226.112 C 174.096 235.113, 177.708 237.857, 198 251.318 C 214.599 262.329, 214.313 262.165, 223.500 265.968 C 237.977 271.961, 253.153 274.594, 258.066 271.965 C 260.269 270.786, 260.625 266.396, 258.718 263.913 C 257.942 262.903, 255.140 262.092, 251 261.681 C 242.248 260.811, 234.570 257.991, 218.500 249.743 C 212.039 246.427, 193.112 233.796, 185 227.388 C 169.400 215.064, 162.064 210.524, 156.129 209.522 C 149.360 208.378, 151.340 204, 158.626 204 C 164.551 204, 181.692 200.492, 187.034 198.187 C 193.411 195.435, 195.469 192.795, 195.118 187.817 C 194.943 185.321, 191.327 184.617, 187.649 186.362 C 185.871 187.206, 182.410 188.346, 179.958 188.895 C 172.256 190.620, 153.864 193.034, 152.911 192.445 C 152.410 192.135, 152 186.803, 152 180.596 C 152 170.932, 151.737 169.072, 150.171 167.655 C 148.109 165.789, 147.912 165.742, 146.452 166.765" stroke="none" fill="black" fill-rule="evenodd"/>
</svg>