<svg xmlns="http://www.w3.org/2000/svg" width="300" height="300" viewBox="0 0 300 300" version="1.1">
	<path d="M 156.046 16.730 C 151.847 18.383, 150.499 21.018, 150.571 27.434 C 150.633 32.921, 151.273 34.998, 155.428 43.204 C 158.060 48.401, 160.050 53.502, 159.851 54.538 C 159.464 56.546, 153.625 59.077, 140 63.144 C 135.875 64.376, 131.713 66.266, 130.750 67.345 C 128.148 70.261, 128.526 74.482, 131.605 76.904 L 134.211 78.953 132.185 84.227 C 130.650 88.225, 129.892 93.852, 129.052 107.500 C 127.986 124.831, 126.722 133.989, 120.152 172 C 111.686 220.976, 114.179 248.465, 127.929 257.731 C 132.936 261.105, 143.207 260.942, 150.242 257.377 C 157.394 253.753, 164.630 248.250, 171.112 241.504 L 176.599 235.795 179.295 239.870 C 182.670 244.970, 186.848 247.202, 192.274 246.805 C 195.532 246.566, 196.748 245.942, 197.872 243.931 C 199.761 240.550, 198.711 236.645, 195.524 235.193 C 194.136 234.560, 193 233.514, 193 232.868 C 193 232.222, 191.706 228.950, 190.125 225.597 C 186.110 217.083, 183.075 205.338, 182.026 194.249 C 181.110 184.563, 179.874 182.110, 175.872 182.032 C 173.671 181.989, 172.779 183.323, 169.545 191.500 C 166.365 199.540, 165.949 207.630, 168.322 215.244 L 169.801 219.989 165.960 224.812 C 159.520 232.901, 141.128 245.369, 137.165 244.333 C 133.468 243.366, 131.667 236.398, 131.210 221.290 C 130.758 206.361, 131.613 196.521, 135.578 171 C 139.077 148.479, 138.566 150, 142.642 150 C 144.557 150, 152.336 147.970, 159.928 145.489 C 173.818 140.949, 180.425 137.334, 183.552 132.560 C 185.701 129.281, 184.680 124.702, 181.412 122.953 C 179.154 121.744, 178.215 121.971, 171.437 125.369 C 167.321 127.431, 161.343 129.539, 158.152 130.053 C 154.961 130.567, 149.786 131.870, 146.652 132.948 L 140.954 134.908 141.618 128.204 C 143.204 112.200, 143.070 112.574, 147.512 111.853 C 155.155 110.612, 162.537 109.061, 168 107.547 C 171.025 106.709, 175.461 106.018, 177.857 106.012 C 181.627 106.002, 182.113 106.236, 181.466 107.750 C 178.767 114.060, 180.696 118, 186.483 118 C 190.683 118, 194.100 114.207, 196.589 106.781 C 199.193 99.009, 199.293 66.554, 196.732 59.920 C 193.480 51.493, 186.251 47.165, 178.500 49.004 C 173.201 50.260, 173 50.242, 173 48.512 C 173 47.693, 170.750 41.250, 168 34.193 C 165.250 27.136, 163 20.901, 163 20.336 C 163 19.064, 159.674 15.972, 158.421 16.079 C 157.915 16.122, 156.846 16.416, 156.046 16.730 M 67.067 31.515 C 63.490 39.085, 62.377 45.922, 61.411 66.250 C 61.026 74.362, 60.606 81, 60.477 81 C 60.349 81, 54.731 82.162, 47.992 83.582 C 35.607 86.193, 32.375 87.791, 31.982 91.500 C 31.587 95.218, 31.992 96.025, 35.250 98.011 C 39.118 100.369, 44.456 100.525, 52 98.500 C 61.685 95.900, 61 94.765, 61 113.417 C 61 122.446, 60.644 129.983, 60.210 130.167 C 58.347 130.952, 54.114 142.289, 52.056 152 C 45.441 183.225, 23.762 238.131, 15.586 244.367 C 11.274 247.655, 10.903 250.994, 14.455 254.545 C 20.645 260.735, 30.015 254.876, 37.393 240.202 C 40.510 234.002, 53.374 203.703, 56.499 195.199 L 57.859 191.500 57.930 197.336 C 58.011 204.109, 56.447 234.037, 54.555 261.889 C 53.128 282.890, 53.543 286.882, 57.364 288.927 C 59.335 289.982, 60.255 289.919, 62.907 288.548 C 64.655 287.644, 66.534 285.727, 67.081 284.288 C 69.166 278.802, 74 199.561, 74 170.858 C 74 161.153, 74.065 160.854, 75.750 162.805 C 76.713 163.920, 80.875 167.612, 85 171.010 C 89.125 174.408, 93.175 178.596, 94 180.316 C 96.597 185.732, 104.911 187.966, 108.345 184.171 C 111.416 180.777, 110.423 176.064, 105.241 169.441 C 101.260 164.353, 94.732 157.840, 90.520 154.753 C 89.959 154.342, 86.238 151.504, 82.250 148.446 L 75 142.886 75 118.090 L 75 93.294 83.391 90.621 C 94.342 87.132, 98.405 84.407, 98.809 80.280 C 99.052 77.789, 98.565 76.761, 96.498 75.407 C 94.008 73.775, 93.425 73.792, 84.689 75.754 C 79.635 76.889, 75.382 77.703, 75.237 77.563 C 75.093 77.423, 75.433 68.892, 75.994 58.606 C 76.555 48.320, 76.761 38.896, 76.452 37.663 C 76.142 36.430, 76.365 34.171, 76.946 32.642 C 77.528 31.112, 77.729 28.767, 77.393 27.431 C 76.900 25.467, 76.145 25, 73.464 25 C 70.360 25, 69.945 25.422, 67.067 31.515 M 226.106 48.901 C 222.830 51.961, 222.022 55.943, 224.294 57.829 C 225.005 58.419, 230.518 59.627, 236.544 60.513 C 255.471 63.296, 266.061 67.401, 268.092 72.742 C 269.752 77.108, 266.517 85.503, 261.907 88.793 C 259.821 90.282, 257.629 92.555, 257.036 93.845 C 256.083 95.914, 256.394 96.592, 259.674 99.595 C 261.718 101.468, 263.706 103, 264.091 103 C 264.476 103, 266.236 105.251, 268.001 108.002 C 271.435 113.352, 275.004 123.476, 274.994 127.839 C 274.987 131.463, 273.100 138, 272.061 138 C 271.596 138, 268.977 135.986, 266.239 133.525 C 259.473 127.441, 256.376 126.331, 253.055 128.799 C 249.373 131.535, 249.317 135.147, 252.877 140.321 C 258.602 148.643, 267.886 154.934, 274.500 154.974 C 283.137 155.027, 289.399 145.145, 289.375 131.500 C 289.356 120.614, 287.701 114.639, 281.909 104.537 L 276.989 95.956 279.406 91.185 C 283.741 82.632, 285.349 75.443, 284.067 70.353 C 282.186 62.882, 273.506 54.996, 262.858 51.085 C 255.145 48.252, 243.094 46, 235.648 46 C 229.925 46, 228.867 46.322, 226.106 48.901 M 169.500 69.175 C 164.550 71.413, 156.377 74.652, 151.337 76.372 C 142.394 79.425, 142.164 79.582, 141.768 82.919 C 141.203 87.682, 142.957 97.046, 144.527 97.649 C 145.243 97.924, 150.255 96.712, 155.665 94.956 C 165.619 91.725, 175.545 90.671, 181.168 92.248 L 183.835 92.997 183.357 81.248 C 182.766 66.724, 182.430 64.986, 180.231 65.053 C 179.279 65.082, 174.450 66.937, 169.500 69.175 M 228.455 67.455 C 227.105 68.805, 225.994 70.267, 225.987 70.705 C 225.634 91.806, 224.605 199.168, 224.647 210.500 C 224.711 228.236, 225.870 240.371, 229.564 262 C 232.499 279.189, 234.243 284.940, 237.423 287.928 C 240.558 290.873, 245.608 290.436, 248.155 287 C 249.963 284.561, 249.959 284.329, 247.996 277.500 C 245.464 268.689, 242.437 247.713, 241.059 229.443 C 239.696 211.348, 239.710 190.706, 241.115 148.339 C 241.954 123.032, 241.958 108.388, 241.128 91.839 C 240.020 69.757, 239.978 69.474, 237.448 67.250 C 234.141 64.343, 231.506 64.403, 228.455 67.455" stroke="none" fill="black" fill-rule="evenodd"/>
</svg>