<svg xmlns="http://www.w3.org/2000/svg" width="300" height="300" viewBox="0 0 300 300" version="1.1">
	<path d="M 193.788 10.898 L 190.545 13.795 190.829 23.304 C 191.037 30.288, 190.765 33.035, 189.806 33.649 C 189.088 34.109, 181.869 35.241, 173.765 36.164 C 162.094 37.493, 158.403 38.289, 156.015 39.989 C 152.046 42.816, 151.864 47.210, 155.615 49.667 C 157.987 51.222, 159.308 51.269, 169.865 50.173 C 176.264 49.509, 183.412 48.689, 185.750 48.351 L 190 47.737 190 53.743 C 190 64.885, 189.558 65.744, 183.134 67.081 C 180.035 67.726, 173.450 69.297, 168.500 70.572 C 163.550 71.847, 155.450 73.573, 150.500 74.406 C 138.552 76.419, 133.796 78.165, 132.096 81.163 C 130.208 84.493, 131.386 88.763, 134.597 90.226 C 137.322 91.468, 150.481 89.373, 171.398 84.368 C 176.842 83.066, 181.682 82, 182.154 82 C 183.299 82, 178.115 89.086, 171.546 96.500 C 168.622 99.800, 164.440 104.750, 162.253 107.500 C 160.066 110.250, 157.127 113.720, 155.722 115.210 C 154.318 116.701, 152.513 118.857, 151.712 120.001 C 150.515 121.710, 140.244 133.280, 134 139.953 C 122.022 152.755, 120.163 160, 128.858 160 C 132.410 160, 133.511 159.116, 146.612 145.750 C 154.294 137.912, 162.328 129.333, 164.464 126.685 C 167.176 123.322, 168.560 122.266, 169.050 123.185 C 169.436 123.908, 169.968 128.835, 170.231 134.134 C 170.790 145.406, 173.099 151.278, 178.840 156.036 C 188.485 164.029, 206.446 163.712, 225.177 155.219 C 232.837 151.746, 235.502 148.563, 234.515 144.067 C 233.994 141.698, 233.102 140.846, 230.346 140.085 C 228.276 139.513, 225.949 139.476, 224.669 139.993 C 215.061 143.875, 207.913 145.368, 198.620 145.432 C 189.032 145.498, 188.679 145.421, 186.724 142.816 C 185.272 140.883, 184.574 138.048, 184.230 132.684 L 183.752 125.236 189.452 123.104 C 192.587 121.931, 198.155 120.528, 201.826 119.985 C 212.843 118.358, 227.348 114.244, 228.729 112.356 C 230.827 109.487, 230.683 105.540, 228.398 103.255 C 226.723 101.580, 220.484 102.051, 205 105.023 C 199.775 106.025, 193.626 107.138, 191.335 107.496 L 187.171 108.147 187.730 103.823 C 188.135 100.691, 189.804 97.434, 193.789 92 C 196.814 87.875, 200.650 82.603, 202.312 80.285 C 205.198 76.262, 205.982 75.860, 219.597 71.417 C 236.488 65.906, 240 64.030, 240 60.515 C 240 57.554, 236.793 54, 234.122 54 C 233.089 54, 230.629 54.675, 228.654 55.500 C 226.680 56.325, 223.936 57, 222.558 57 L 220.052 57 223.026 51.956 C 224.662 49.182, 226 46.542, 226 46.091 C 226 45.639, 226.822 44.197, 227.827 42.885 C 228.831 41.573, 230.436 38.475, 231.392 36 C 232.348 33.525, 234.506 28.488, 236.187 24.806 C 239.897 16.682, 239.567 13, 235.130 13 C 233.003 13, 230.766 14.517, 226.149 19.092 C 222.767 22.442, 220 25.560, 220 26.021 C 220 27.030, 210.158 30, 206.814 30 C 204.539 30, 204.426 29.672, 204.210 22.419 C 203.981 14.739, 202.961 11.488, 200.087 9.282 C 197.834 7.552, 197.412 7.660, 193.788 10.898 M 76.581 32.509 C 75.201 33.890, 73.576 36.860, 72.970 39.111 C 72.146 42.172, 69.189 77.749, 69.021 86.628 C 69.010 87.249, 67.313 88.221, 65.250 88.788 C 63.188 89.355, 58.818 90.554, 55.539 91.452 C 48.881 93.275, 43 97.204, 43 99.828 C 43 100.778, 43.701 102.555, 44.557 103.777 C 45.804 105.558, 47.084 106, 50.992 106 C 53.675 106, 56.912 105.613, 58.185 105.140 C 59.458 104.667, 62.188 103.972, 64.250 103.595 L 68 102.909 68 108.214 L 68 113.519 64.750 113.510 C 61.812 113.501, 61.391 113.884, 60.361 117.500 C 59.734 119.700, 58.702 126.225, 58.067 132 C 57.433 137.775, 55.795 146.100, 54.428 150.500 C 53.061 154.900, 51.457 160.075, 50.864 162 C 50.271 163.925, 48.996 167.300, 48.031 169.500 C 47.067 171.700, 45.715 175.075, 45.027 177 C 39.523 192.405, 31.510 208.933, 26.162 215.912 C 21.594 221.872, 20.664 224.838, 22.489 227.623 C 27.503 235.275, 40.585 222.476, 50.761 199.963 C 54.051 192.683, 54.006 192.805, 62.049 169.500 L 67.916 152.500 67.958 217.275 L 68 282.050 70.722 283.084 C 74.302 284.445, 77.701 282.897, 79.114 279.262 C 79.805 277.487, 80.423 256.336, 80.844 220.060 L 81.500 163.619 85.132 166.810 C 87.130 168.564, 89.183 170, 89.696 170 C 90.208 170, 93.647 172.025, 97.338 174.500 C 104.342 179.197, 107.895 180.036, 110.007 177.492 C 111.604 175.567, 110.672 169.400, 108.404 166.894 C 106.217 164.477, 86.170 151.458, 83.250 150.559 C 81.038 149.877, 81 149.595, 81.005 133.683 C 81.008 124.782, 81.295 113.206, 81.642 107.958 L 82.274 98.416 91.770 95.061 C 106.066 90.009, 111.756 83.691, 105.628 79.676 C 103.430 78.236, 102.534 78.338, 93.465 81.061 C 88.080 82.677, 83.227 84, 82.680 84 C 81.305 84, 82.668 51.711, 84.468 41.635 C 85.557 35.542, 85.608 33.345, 84.696 31.885 C 83.059 29.263, 79.558 29.533, 76.581 32.509 M 207.037 43.886 C 205.174 44.405, 204.375 45.532, 203.757 48.508 C 202.340 55.327, 203.343 55.697, 207.258 49.799 C 212.103 42.500, 212.102 42.474, 207.037 43.886 M 204.500 173.957 C 201.750 174.329, 195 176.029, 189.500 177.735 C 172.214 183.096, 165.495 185, 163.858 185 C 162.986 185, 161.086 186.186, 159.636 187.636 C 158.186 189.086, 157 189.794, 157 189.208 C 157 187.373, 153.956 185, 151.603 185 C 150.363 185, 148.359 186.054, 147.149 187.341 C 144.995 189.635, 144.970 189.958, 145.972 203.091 C 146.535 210.466, 146.996 228.055, 146.998 242.179 C 147 264.187, 147.225 268.082, 148.571 269.429 C 150.664 271.521, 155.308 271.425, 157.263 269.250 C 159.137 267.166, 161 254.788, 161 244.428 L 161 237 166.928 237 C 178.418 237, 199.496 233.379, 205.645 230.348 C 209.953 228.225, 210.917 223.612, 207.760 220.229 C 205.180 217.465, 206.219 217.441, 179.500 220.905 C 170.700 222.047, 163.005 222.985, 162.400 222.990 C 161.707 222.996, 161.053 218.916, 160.629 211.935 C 160.259 205.849, 159.854 200.337, 159.728 199.685 C 159.579 198.912, 161.757 198.316, 166 197.970 C 172.080 197.474, 176.704 196.322, 196.293 190.422 C 207.533 187.036, 210.436 186.615, 211.736 188.181 C 213.099 189.824, 214.617 245.412, 213.567 255.219 C 212.851 261.905, 212.843 261.919, 210.044 261.359 C 208.300 261.010, 206.301 261.412, 204.763 262.419 C 202.219 264.086, 191.846 266.382, 179.500 268.011 C 171.022 269.130, 159.089 273.599, 154.998 277.189 C 151.637 280.138, 151.061 283.978, 153.657 286.128 C 156.133 288.178, 164.649 287.503, 173.409 284.562 C 177.607 283.153, 181.899 282, 182.946 282 C 186.747 282, 203.521 277.673, 206.749 275.860 C 211.194 273.364, 211.493 273.499, 209.068 276.904 C 207.931 278.502, 207 280.682, 207 281.749 C 207 284.574, 210.177 287, 213.876 287 C 217.299 287, 220.946 283.922, 223.606 278.789 C 228.169 269.983, 230.039 241.328, 228.109 209.790 C 226.539 184.142, 225.950 181.390, 221.043 176.750 C 216.782 172.721, 215.389 172.486, 204.500 173.957" stroke="none" fill="black" fill-rule="evenodd"/>
</svg>