<svg xmlns="http://www.w3.org/2000/svg" width="300" height="300" viewBox="0 0 300 300" version="1.1">
	<path d="M 73.809 29.678 C 69.286 30.871, 66.670 42.901, 65.434 68.193 L 64.765 81.886 61.733 82.943 C 60.066 83.524, 57.081 84.010, 55.101 84.022 C 50.390 84.051, 44.242 86.959, 40.520 90.919 C 37.681 93.940, 37.611 94.217, 39.054 96.795 C 40.438 99.268, 41.157 99.526, 47.417 99.799 C 51.724 99.987, 55.953 99.523, 58.811 98.549 C 61.311 97.697, 63.726 97, 64.178 97 C 64.630 97, 65 100.802, 65 105.448 C 65 113.198, 64.782 114.129, 62.367 116.698 C 59.367 119.891, 57 124.919, 57 128.099 C 57 134.454, 37.066 197.837, 26.420 225.333 C 24.539 230.191, 23 234.623, 23 235.182 C 23 236.859, 19.692 243.363, 17.783 245.439 C 15.387 248.044, 15.536 249.627, 18.455 252.545 C 25.038 259.129, 31.500 252.131, 40.196 229 C 42.367 223.225, 44.551 216.925, 45.048 215 C 45.546 213.075, 47.314 208.191, 48.977 204.146 C 50.639 200.102, 52 196.216, 52 195.511 C 52 194.806, 53.524 190.015, 55.387 184.865 C 57.251 179.714, 59.956 171.900, 61.400 167.500 L 64.025 159.500 63.595 215.022 C 63.279 255.847, 62.842 271.253, 61.943 273.227 C 60.620 276.129, 61.852 280.709, 64.728 283.585 C 67.111 285.969, 71.731 285.340, 73.678 282.368 C 75.882 279.005, 76.826 254.289, 76.928 197.293 L 77 157.086 81.656 162.063 C 87.052 167.832, 90.189 169.044, 93.040 166.464 C 96.121 163.676, 95.387 160.034, 90.016 151.458 C 84.268 142.281, 83.182 140.907, 80.477 139.394 C 78.782 138.447, 78.454 137.018, 78.175 129.394 C 77.996 124.502, 78.155 114.089, 78.528 106.253 L 79.208 92.007 85.320 88.753 C 92.421 84.974, 99 79.092, 99 76.522 C 99 74.402, 95.363 71, 93.097 71 C 92.219 71, 89.025 72.332, 86 73.961 C 82.975 75.589, 80.162 76.938, 79.750 76.960 C 78.570 77.023, 78.874 52.670, 80.176 42.897 C 81.797 30.715, 80.454 27.925, 73.809 29.678 M 161.500 32.093 C 158.750 32.571, 153.350 33.630, 149.500 34.445 C 145.650 35.260, 138.995 36.619, 134.711 37.466 C 122.944 39.791, 118.678 43.393, 121.014 49.033 C 122.452 52.504, 125.994 53.481, 133.671 52.522 L 139.134 51.839 137.438 55.120 C 136.117 57.675, 135.862 59.989, 136.285 65.587 L 136.829 72.774 131.006 73.919 C 127.804 74.549, 123.618 76.127, 121.704 77.426 L 118.224 79.788 117.052 77.597 C 114.938 73.647, 112.698 72.956, 109.195 75.173 C 103.946 78.497, 103.936 83.715, 109.107 118.500 C 111.568 135.048, 112.133 136.744, 115.464 137.580 C 118.808 138.420, 120.516 137.668, 122.642 134.424 C 124.325 131.854, 124.308 130.869, 122.230 111.174 C 121.036 99.862, 120.209 90.458, 120.391 90.276 C 121.417 89.250, 136.654 87.316, 137.599 88.092 C 138.227 88.608, 138.963 94.458, 139.317 101.747 C 139.658 108.761, 140.218 116.082, 140.561 118.016 C 141.148 121.319, 140.980 121.605, 137.772 122.766 C 135.894 123.445, 133.672 124, 132.834 124 C 130.328 124, 127.821 127.571, 128.175 130.636 C 128.447 132.991, 129.306 133.747, 133.448 135.281 C 138.283 137.070, 138.727 137.064, 152.730 135.034 C 161.598 133.748, 170.168 131.823, 175.208 129.983 C 182.486 127.327, 183.530 127.170, 185.006 128.505 C 185.914 129.327, 187.937 130, 189.500 130 C 196.259 130, 206.219 114.136, 208.962 99 C 209.410 96.525, 211 91.125, 212.494 87 C 214.702 80.905, 215.113 78.394, 214.687 73.601 C 213.672 62.179, 206.603 59.126, 188.094 62.113 C 183.367 62.876, 179.101 63.500, 178.614 63.500 C 178.127 63.500, 177.107 61.025, 176.348 58 C 174.272 49.723, 169.499 46.861, 164.090 50.650 C 161.893 52.189, 161.774 52.760, 162.313 59.195 C 162.957 66.873, 162.853 66.999, 154.607 68.546 C 151.049 69.213, 151 69.177, 150.976 65.861 C 150.940 60.972, 149.110 53.779, 147.428 51.921 C 146.107 50.461, 147.106 50.073, 158.236 47.719 C 164.981 46.292, 174.096 44.844, 178.492 44.499 C 183.658 44.094, 187.105 43.310, 188.242 42.281 C 190.886 39.889, 190.469 35.514, 187.365 33.073 C 185.107 31.297, 183.426 31.016, 175.615 31.112 C 170.602 31.173, 164.250 31.615, 161.500 32.093 M 262.557 44.223 C 260.538 47.105, 260.499 59.207, 262.452 77.155 C 265.691 106.935, 266.391 127.935, 266.445 197 C 266.496 261.857, 266.378 266.851, 264.670 271.750 C 263.663 274.637, 262.292 277, 261.623 277 C 260.955 277, 257.953 275.437, 254.954 273.526 C 248.786 269.596, 246.048 269.185, 243.655 271.829 C 240.811 274.972, 241.685 277.567, 247.250 282.491 C 258.116 292.108, 265.217 293.509, 272.005 287.376 C 279.574 280.538, 279.511 281.196, 279.422 210 C 279.338 142.342, 278.016 102.035, 274.930 73 C 272.881 53.721, 271.426 45.367, 269.747 43.250 C 268.173 41.266, 264.256 41.796, 262.557 44.223 M 185.505 77.369 L 178.510 78.500 177.355 86 C 175.319 99.212, 174.737 101.346, 170.879 109.750 C 166.601 119.069, 166.467 118.910, 176.504 116.388 C 182.472 114.890, 183.037 114.895, 184.603 116.460 C 185.994 117.851, 186.505 117.914, 187.550 116.821 C 189.351 114.940, 191.769 107.208, 193.033 99.291 C 193.629 95.556, 195.216 89.316, 196.559 85.425 C 197.901 81.533, 199 77.821, 199 77.175 C 199 75.765, 195.067 75.822, 185.505 77.369 M 157.665 82.507 C 155.006 83.238, 152.756 83.985, 152.665 84.168 C 152.574 84.351, 152.633 92.487, 152.795 102.250 L 153.089 120 155.523 120 C 157.774 120, 157.869 119.807, 156.786 117.430 C 155.879 115.439, 155.899 114.142, 156.876 111.680 C 161.432 100.198, 165.541 80.870, 163.379 81.089 C 162.896 81.139, 160.324 81.777, 157.665 82.507 M 219.262 103.250 C 214.684 108.004, 213.768 113.211, 214.182 132.128 C 214.507 146.957, 214.815 149.333, 217.447 157.342 C 220.613 166.979, 223.046 169.707, 227.477 168.595 C 230.677 167.792, 231.568 164.311, 230.083 158.415 C 228.563 152.378, 228.606 116.119, 230.142 109.258 C 231.188 104.584, 231.118 103.787, 229.503 102.004 C 226.786 99.001, 222.899 99.474, 219.262 103.250 M 149 148.107 C 145.425 149.163, 139.920 150.765, 136.766 151.667 C 130.687 153.406, 128.747 154.906, 127.152 159.100 C 125.665 163.012, 127.727 166.296, 132.401 167.457 C 135.561 168.243, 137.351 168.002, 142.376 166.115 C 152.835 162.189, 158.274 160.910, 164.647 160.879 C 169.797 160.854, 171.154 160.465, 173.018 158.481 C 176.067 155.235, 175.149 150.110, 171.090 147.712 C 167.232 145.433, 157.462 145.608, 149 148.107 M 170 171.563 C 168.075 172.291, 165.479 172.913, 164.232 172.944 C 162.984 172.975, 157.134 174.533, 151.232 176.407 C 145.329 178.281, 138.250 180.123, 135.500 180.502 C 122.371 182.309, 115.595 189.882, 122.325 195.228 C 126.027 198.168, 134.933 197.340, 147.750 192.862 L 153 191.028 152.945 194.264 C 152.916 196.044, 152.222 201.325, 151.405 206 C 150.587 210.675, 150.043 215.625, 150.195 217 C 150.348 218.375, 150.446 231.092, 150.414 245.261 C 150.356 270.395, 150.302 271.070, 148.177 273.049 C 145.449 275.591, 145.419 277.992, 148.073 281.365 C 150.597 284.574, 156.786 285.068, 159.172 282.250 C 162.411 278.427, 164.949 261.961, 164.983 244.554 L 165 235.608 168.250 238.675 C 173.467 243.600, 187.652 252.815, 192.037 254.129 C 195.636 255.207, 196.363 255.120, 198.785 253.320 C 204.058 249.401, 201.725 241, 195.363 241 C 194.095 241, 190.374 238.698, 186.879 235.750 C 179.718 229.710, 165.918 219.144, 164.624 218.710 C 164.142 218.548, 163.657 212.810, 163.545 205.958 C 163.433 199.106, 163.014 192.354, 162.614 190.954 C 161.933 188.574, 162.347 188.192, 168.970 185.084 C 178.877 180.436, 181.371 176.287, 176.811 172.039 C 175.608 170.918, 174.370 170.054, 174.061 170.119 C 173.753 170.185, 171.925 170.835, 170 171.563 M 136.198 211.625 C 133.152 214.025, 128 222.785, 128 225.564 C 128 227.315, 113.481 247.840, 108.920 252.538 C 104.432 257.161, 103.957 260.270, 107.394 262.523 C 111.110 264.957, 114.536 263.435, 122.616 255.760 C 130.928 247.865, 135.591 241.279, 141.689 228.829 C 144.024 224.060, 146.400 219.871, 146.968 219.520 C 148.562 218.535, 148.188 212.331, 146.429 210.571 C 144.106 208.249, 139.937 208.678, 136.198 211.625" stroke="none" fill="black" fill-rule="evenodd"/>
</svg>