<svg xmlns="http://www.w3.org/2000/svg" width="300" height="300" viewBox="0 0 300 300" version="1.1">
	<path d="M 193.336 11.750 C 190.154 14.642, 188.696 18.987, 187.461 29.250 C 187.081 32.413, 186.709 35.011, 186.635 35.024 C 186.561 35.037, 181.325 35.454, 175 35.951 C 153.486 37.641, 140.092 41.607, 137.028 47.196 C 135.651 49.708, 135.714 50.067, 137.949 52.446 C 140.730 55.406, 143.642 55.645, 151.856 53.584 C 159.921 51.561, 182.530 48.606, 184.412 49.328 C 185.620 49.791, 186 51.381, 186 55.969 L 186 62 179.890 62 C 174.958 62, 172.644 62.605, 167.890 65.139 C 164.650 66.866, 162 68.854, 162 69.558 C 162 75.383, 166.190 77.004, 181.200 76.983 C 197.637 76.960, 210.481 73.691, 215.111 68.352 C 217.965 65.063, 218.098 62.007, 215.502 59.411 C 213.249 57.158, 212.937 57.111, 209.156 58.445 C 206.969 59.217, 203.676 59.995, 201.840 60.174 C 198.590 60.491, 198.506 60.405, 198.737 57 C 198.867 55.075, 199.213 52.104, 199.505 50.397 L 200.035 47.295 208.268 46.692 C 221.798 45.700, 233.959 41.045, 237.622 35.454 C 239.101 33.196, 239.099 32.800, 237.592 30.500 C 235.565 27.407, 232.973 27.320, 221.869 29.972 C 217.327 31.057, 210.925 32.249, 207.642 32.620 C 202.316 33.223, 201.742 33.115, 202.315 31.621 C 202.669 30.700, 203.242 26.471, 203.589 22.223 C 204.159 15.255, 204.008 14.231, 202.038 11.750 C 200.837 10.238, 199.069 9, 198.108 9 C 197.147 9, 194.999 10.238, 193.336 11.750 M 90.583 31.508 C 87.128 34.963, 86.437 38.247, 83.763 63.917 L 81.429 86.333 76.464 88.025 C 73.734 88.955, 69.925 90.678, 68 91.854 C 66.075 93.030, 63.871 93.994, 63.103 93.996 C 62.335 93.998, 59.747 95.605, 57.353 97.567 C 47.443 105.688, 55.681 113.671, 68.223 108.100 C 70.575 107.056, 73.850 105.607, 75.500 104.882 C 77.150 104.157, 78.867 103.390, 79.315 103.177 C 79.763 102.964, 79.893 104.300, 79.604 106.145 C 79.314 107.990, 78.800 113.368, 78.462 118.097 C 77.865 126.432, 77.775 126.680, 75.511 126.247 C 72.101 125.595, 70.653 128.399, 63.457 149.588 C 59.985 159.811, 56.480 169.598, 55.668 171.337 C 54.855 173.077, 53.733 176.075, 53.174 178 C 51.976 182.127, 41.019 208.279, 38.206 213.725 C 37.134 215.801, 35.240 219.826, 33.996 222.668 C 32.752 225.510, 30.924 228.048, 29.934 228.307 C 28.004 228.812, 26.268 235.006, 27.498 236.997 C 30.156 241.298, 39.481 239.857, 43.555 234.516 C 46.682 230.417, 56 211.789, 56 209.637 C 56 208.802, 56.404 207.868, 56.898 207.563 C 57.938 206.920, 68.524 180.496, 72.926 167.554 C 74.574 162.709, 76.224 158.465, 76.592 158.122 C 76.961 157.780, 76.978 164.475, 76.630 173 C 76.283 181.525, 75.510 206.916, 74.913 229.424 L 73.828 270.347 71.414 272.246 C 69.628 273.651, 69.008 275.102, 69.032 277.823 C 69.102 285.888, 78.760 291.087, 83.759 285.750 C 88.210 280.999, 88.279 280.125, 89.052 219 C 89.458 186.825, 90.115 157.914, 90.511 154.752 L 91.230 149.005 97.526 155.806 C 104.665 163.516, 114.358 170, 118.746 170 C 120.365 170, 122.435 169.177, 123.345 168.171 C 126.526 164.656, 125.377 162.210, 116.250 153.077 C 111.438 148.260, 105.284 142.016, 102.577 139.201 C 99.753 136.266, 96.387 133.805, 94.683 133.430 L 91.714 132.778 92.366 122.639 C 92.725 117.063, 93.300 109.065, 93.644 104.866 L 94.268 97.232 98.217 95.929 C 100.388 95.212, 103.885 93.022, 105.987 91.063 C 109.484 87.802, 109.731 87.231, 108.896 84.328 C 107.831 80.626, 104.041 79.274, 99.535 80.987 C 97.988 81.575, 96.580 81.914, 96.407 81.740 C 96.233 81.566, 96.511 74.916, 97.024 66.962 C 98.491 44.234, 98.298 32.441, 96.429 30.571 C 94.307 28.450, 93.514 28.577, 90.583 31.508 M 211 83.011 C 190.968 84.043, 173.511 85.972, 164.500 88.150 C 152.590 91.027, 141.400 95.510, 138.179 98.694 C 136.639 100.215, 135 100.408, 135 99.068 C 135 97.286, 129.053 93.848, 127.062 94.480 C 122.337 95.980, 121.936 108.591, 126.161 122.825 C 128.272 129.935, 128.530 130.298, 132.762 132.112 C 139.799 135.129, 147.674 134.687, 181.500 129.377 C 187 128.514, 199.375 127.455, 209 127.023 C 225.782 126.272, 232 125.090, 232 122.654 C 232 122.091, 236.117 117.788, 241.149 113.092 C 255.008 100.160, 258.118 91.918, 251.600 85.400 L 248.200 82 236.350 82.158 C 229.832 82.245, 218.425 82.629, 211 83.011 M 214.709 96.748 C 203.344 96.966, 198.813 97.394, 198.543 98.276 C 198.337 98.949, 197.923 102.526, 197.624 106.225 L 197.080 112.951 210.186 112.725 L 223.292 112.500 229.896 105.667 C 238.774 96.481, 239.023 95.946, 234.300 96.223 C 232.210 96.345, 223.394 96.582, 214.709 96.748 M 180.500 98.655 C 173.481 100.139, 173.964 99.669, 175.553 103.474 C 176.349 105.378, 177 108.750, 177 110.968 C 177 114.576, 177.257 115, 179.441 115 C 182.486 115, 182.806 114.470, 184.079 107.308 C 184.647 104.114, 185.342 100.713, 185.623 99.750 C 186.145 97.964, 184.963 97.711, 180.500 98.655 M 156.500 104.038 C 153.200 105.029, 148.700 105.882, 146.500 105.934 C 144.300 105.985, 141.428 106.314, 140.119 106.665 C 137.786 107.289, 137.751 107.465, 138.410 115.358 C 138.779 119.789, 139.267 123.600, 139.493 123.826 C 139.719 124.053, 143.188 123.081, 147.202 121.667 C 151.216 120.253, 156.363 118.818, 158.639 118.479 L 162.778 117.862 162.639 109.932 C 162.563 105.571, 162.500 102.055, 162.500 102.120 C 162.500 102.184, 159.800 103.047, 156.500 104.038 M 196 145.971 C 194.625 146.411, 191.250 147.783, 188.500 149.019 C 185.750 150.256, 181.225 151.822, 178.445 152.498 C 172.083 154.047, 165.474 158.172, 163.101 162.075 L 161.274 165.079 160.751 161.178 C 159.636 152.869, 153.813 149.238, 149.405 154.103 C 147.632 156.059, 147.439 158.968, 146.621 196.022 C 146.138 217.921, 146.014 236.887, 146.346 238.169 C 147.404 242.258, 153.281 245.329, 159.925 245.267 C 163.133 245.237, 166.751 244.897, 167.964 244.511 C 170.015 243.861, 170.084 243.977, 168.933 246.155 C 168.252 247.445, 164.638 252.794, 160.902 258.042 C 153.430 268.537, 152 271.495, 152 276.458 C 152 279.893, 153.275 281, 157.230 281 C 159.915 281, 168.539 271.751, 175.180 261.750 C 178.010 257.488, 180.600 254, 180.935 254 C 181.269 254, 184.061 256.608, 187.139 259.795 C 193.432 266.314, 214.011 280.419, 221.261 283.184 C 230.484 286.702, 238 284.669, 238 278.655 C 238 275.967, 235.165 273, 232.596 273 C 229.743 273, 217.838 265.551, 203.724 254.935 C 196.451 249.464, 189.319 244.654, 187.876 244.244 C 185.657 243.615, 185.382 243.153, 186.094 241.250 C 186.570 239.977, 187.780 239, 188.879 239 C 189.947 239, 193.562 238.147, 196.911 237.105 L 203 235.210 203 238.626 C 203 243.058, 206.343 244.929, 210.894 243.044 C 216.816 240.591, 219.035 227.546, 217.024 207 C 216.351 200.125, 215.267 186.150, 214.615 175.944 C 213.472 158.059, 213.322 157.219, 210.465 152.693 C 207.689 148.297, 202.934 144.889, 199.849 145.086 C 199.107 145.133, 197.375 145.532, 196 145.971 M 194 162.048 C 192.075 163.075, 189.760 163.935, 188.856 163.958 C 187.952 163.981, 182.671 165.800, 177.121 168 C 165.875 172.458, 163.606 172.795, 161.984 170.250 C 161.096 168.856, 160.982 169.314, 161.424 172.500 C 161.729 174.700, 161.990 178.525, 162.004 181 C 162.019 183.475, 162.361 185.050, 162.765 184.500 C 164.530 182.099, 168.925 180.730, 177.407 179.942 C 182.408 179.478, 188.802 178.795, 191.615 178.425 C 194.998 177.981, 196.965 178.134, 197.424 178.877 C 197.806 179.495, 198.608 180, 199.208 180 C 200.445 180, 199.654 163.977, 198.299 161.587 C 197.628 160.405, 196.938 160.479, 194 162.048 M 198.725 188.745 C 197.749 189.827, 194.599 191.479, 191.725 192.416 C 186.312 194.181, 163.631 196.508, 161.953 195.471 C 161.386 195.121, 161 197.540, 161 201.441 C 161 207.976, 161.010 208, 163.833 208 C 165.390 208, 171.559 205.978, 177.539 203.506 C 191.002 197.943, 193.488 197.457, 198.250 199.454 L 202 201.027 201.926 198.263 C 201.885 196.744, 201.548 193.538, 201.176 191.139 C 200.515 186.877, 200.460 186.823, 198.725 188.745 M 201.516 210.974 C 201.185 211.510, 199.246 211.889, 197.207 211.817 C 195.116 211.744, 190.012 213.066, 185.500 214.851 C 175.299 218.885, 168.700 219.737, 163.732 217.661 L 160 216.102 160 218.911 C 160 220.457, 159.723 223.740, 159.385 226.209 L 158.770 230.696 164.135 229.941 C 167.086 229.526, 172.875 228.414, 177 227.470 C 186.910 225.202, 198.156 224.478, 200.873 225.932 C 202.965 227.052, 203 226.930, 203 218.535 C 203 210.219, 202.755 208.970, 201.516 210.974" stroke="none" fill="black" fill-rule="evenodd"/>
</svg>