<svg xmlns="http://www.w3.org/2000/svg" width="300" height="300" viewBox="0 0 300 300" version="1.1">
	<path d="M 166.725 18.752 C 163.677 22.119, 163 26.233, 163 41.385 L 163 56.640 153.750 57.819 C 142.139 59.299, 127.206 61.972, 124.250 63.099 C 120.202 64.643, 121.688 70.157, 126.905 72.949 C 130.606 74.930, 138.751 75.166, 149.301 73.598 C 165.063 71.257, 163.443 70.280, 164.960 83.038 C 166.502 96.002, 168.123 99, 173.592 99 C 176.871 99, 177.001 99.133, 176.269 101.750 C 175.846 103.263, 175.600 108.882, 175.721 114.238 L 175.943 123.976 173.221 124.585 C 171.725 124.920, 168.925 125.598, 167 126.091 C 165.075 126.585, 161.617 126.991, 159.315 126.994 C 153.913 127.002, 141.740 129.566, 138.049 131.474 C 131.391 134.918, 128.627 142.962, 133.361 145.119 C 135.170 145.943, 136.410 145.840, 138.656 144.678 C 140.438 143.756, 145.887 142.910, 152.544 142.521 C 162.174 141.959, 169.414 140.946, 175.250 139.345 C 176.884 138.897, 176.996 140.539, 176.942 164.183 L 176.883 189.500 174.107 184 C 164.620 165.209, 158 156.078, 153.823 156.022 C 151.501 155.991, 147.999 160.724, 148.004 163.885 C 148.006 165.323, 148.973 168.075, 150.152 170 C 156.209 179.883, 156.935 181.633, 155.581 183.092 C 152.426 186.493, 149.636 193.607, 141.640 218.634 C 138.808 227.499, 139.777 231, 145.064 231 C 149.105 231, 153.561 223.813, 160.842 205.553 L 164.809 195.606 166.388 199.387 C 167.257 201.467, 168.416 204.832, 168.964 206.865 C 170.290 211.791, 172.067 214.054, 174.769 214.258 C 176.976 214.424, 177 214.598, 177 230.213 C 177 244.667, 176.831 246.169, 175 248 C 171.108 251.892, 173.570 260.307, 178.947 261.488 C 187.001 263.257, 190.787 256.120, 191.726 237.392 C 192.269 226.565, 192.330 226.330, 194.142 228.142 C 195.179 229.179, 197.415 230, 199.201 230 C 201.784 230, 203.481 228.889, 207.987 224.250 C 213.934 218.127, 216.905 211.576, 220.573 196.500 C 222.674 187.860, 223.683 186.595, 224.462 191.620 C 225.694 199.563, 226.260 200.477, 230.154 200.804 C 235.389 201.243, 238 197.668, 238 190.064 C 238 185.058, 237.505 183.659, 233.750 178.062 C 231.412 174.578, 227.143 168.076, 224.263 163.614 C 217.156 152.605, 212.969 149, 207.288 149 C 203.972 149, 202.313 149.596, 200.455 151.455 C 199.105 152.805, 198 154.406, 198 155.014 C 198 155.622, 200.176 158.455, 202.836 161.310 C 205.496 164.164, 209.072 168.571, 210.783 171.102 C 213.822 175.600, 213.861 175.806, 212.505 180.102 C 210.946 185.041, 202.560 205.561, 201.008 208.236 C 200.453 209.191, 200 210.619, 200 211.410 C 200 212.200, 198.489 214.826, 196.643 217.245 C 194.796 219.664, 193.032 222.286, 192.722 223.072 C 192.412 223.857, 192.122 204.383, 192.079 179.795 L 192 135.091 195.750 134.495 C 197.813 134.168, 204 132.824, 209.500 131.510 C 215 130.195, 223.443 128.552, 228.262 127.858 C 235.833 126.767, 237.226 126.797, 238.508 128.079 C 241.285 130.857, 242.227 149.319, 241.717 191 C 241.217 231.892, 240.510 240.468, 236.136 258.710 C 233.912 267.985, 233.300 269.329, 231.596 268.675 C 230.936 268.422, 228.956 268.819, 227.198 269.559 C 224.510 270.689, 224.004 271.429, 224.022 274.202 C 224.034 276.016, 224.822 278.460, 225.772 279.633 C 231.334 286.499, 240.683 284.969, 246.455 276.248 C 251.323 268.891, 255.521 248.172, 257.115 223.634 C 258.465 202.852, 257.715 142.554, 255.982 132.500 C 252.425 111.876, 243.845 108.864, 210.133 116.404 C 204.285 117.712, 197.605 119.093, 195.289 119.473 C 190.503 120.257, 190.961 121.067, 188.963 108.297 C 187.447 98.615, 187.955 97.377, 193.783 96.540 C 200.288 95.607, 206.583 92.413, 209.527 88.553 C 212.466 84.700, 212.668 81.914, 210.171 79.655 C 207.932 77.628, 205.136 77.583, 202.559 79.532 C 201.491 80.339, 200.346 81, 200.015 81 C 199.683 81, 201.133 77.400, 203.237 73 C 205.340 68.600, 207.243 65, 207.465 65 C 210.047 65, 234.142 59.461, 236.210 58.392 C 241.115 55.855, 241.112 48.754, 236.206 46.888 C 234.329 46.175, 230.776 46.362, 223.725 47.546 C 218.304 48.457, 213.711 49.044, 213.519 48.851 C 213.327 48.658, 213.663 43.517, 214.265 37.426 C 215.287 27.089, 215.231 26.177, 213.430 23.708 C 211.482 21.038, 206.970 20.097, 204.289 21.800 C 202.378 23.014, 200 29.578, 200 33.636 C 200 39.281, 197.953 49.800, 196.655 50.826 C 195.697 51.583, 182.221 54, 178.959 54 C 178.389 54, 178 47.872, 178 38.901 C 178 20.811, 176.876 17, 171.541 17 C 169.733 17, 167.612 17.771, 166.725 18.752 M 78.155 21.999 C 76.505 23.649, 74.696 26.461, 74.135 28.249 C 72.887 32.222, 71.287 45.851, 70.385 60.202 L 69.712 70.905 66.707 71.952 C 65.054 72.529, 63.072 73, 62.303 73 C 61.534 73, 56.211 75.214, 50.474 77.920 C 41.517 82.145, 39.802 83.347, 38.333 86.428 C 36.680 89.894, 36.693 90.110, 38.702 92.758 C 41.458 96.390, 46.589 96.198, 55.367 92.135 C 58.928 90.486, 63.453 88.693, 65.421 88.149 L 69 87.161 69 94.081 C 69 98.027, 68.570 101, 68 101 C 67.450 101, 67 100.550, 67 100 C 67 99.450, 65.878 99, 64.506 99 C 61.400 99, 56.440 105.472, 54.999 111.404 C 52.389 122.152, 35.939 171.395, 32.630 178.368 C 31.693 180.342, 29.805 185.004, 28.434 188.729 C 23.578 201.920, 16.815 214.830, 14.449 215.423 C 11.654 216.125, 8.611 222.312, 9.438 225.610 C 10.262 228.893, 13.517 232, 16.132 232 C 19.570 232, 24.634 228.268, 27.913 223.318 C 34.841 212.858, 46.764 185.335, 55.991 158.500 C 62.886 138.449, 63.070 138, 64.407 138 C 65.073 138, 66.340 138.563, 67.223 139.250 C 68.658 140.367, 68.896 147.852, 69.468 209.810 C 69.821 247.930, 70.359 279.772, 70.665 280.568 C 71.330 282.303, 75.141 283.407, 77.680 282.601 C 82.533 281.061, 82.481 281.754, 82.779 214.189 L 83.057 150.877 87.279 154.111 C 89.600 155.890, 93.101 158.849, 95.057 160.687 C 104.411 169.476, 114.029 164.717, 107.142 154.707 C 104.531 150.911, 86.032 132.994, 83.871 132.167 C 82.881 131.788, 82.865 100.662, 83.849 88.374 L 84.500 80.248 88.932 76.874 C 95.388 71.959, 99.969 65.149, 100.164 60.175 C 100.504 51.499, 95.602 50.671, 88.759 58.250 L 84.019 63.500 84.611 56.500 C 84.937 52.650, 85.633 46.575, 86.158 43 C 86.683 39.425, 87.368 33.532, 87.680 29.904 C 88.195 23.911, 88.035 23.111, 85.935 21.154 C 82.877 18.305, 81.724 18.430, 78.155 21.999 M 185 68.442 L 178.500 69.500 178.204 76.250 L 177.909 83 181.431 83 C 183.987 83, 185.353 82.382, 186.409 80.750 C 187.990 78.304, 192.253 67.851, 191.787 67.562 C 191.629 67.464, 188.575 67.860, 185 68.442 M 67.112 124.279 C 65.634 129.368, 65.786 130.369, 67.844 129.097 C 68.664 128.590, 69.016 126.707, 68.815 123.901 L 68.500 119.500 67.112 124.279 M 116.228 133.399 C 115.447 135.113, 115.410 142.905, 116.097 160.649 C 117.095 186.429, 116.366 233.309, 114.923 236.093 C 113.825 238.212, 116.938 244.389, 119.329 244.836 C 122.862 245.495, 125.768 244.008, 127.290 240.761 C 130.201 234.552, 131.334 212.718, 130.712 174.837 C 130.106 137.950, 130.032 137.323, 125.750 132.834 C 123.106 130.063, 117.599 130.389, 116.228 133.399" stroke="none" fill="black" fill-rule="evenodd"/>
</svg>