<svg xmlns="http://www.w3.org/2000/svg" width="300" height="300" viewBox="0 0 300 300" version="1.1">
	<path d="M 86.223 13.709 C 81.863 15.332, 77.230 35.272, 76.195 56.868 L 75.500 71.385 69.500 73.762 C 66.200 75.069, 60.800 76.366, 57.500 76.644 C 50.115 77.267, 47.836 78.315, 45.585 82.125 C 44.001 84.807, 43.978 85.317, 45.348 87.408 C 48.069 91.561, 59.489 92.276, 68.431 88.854 C 71.516 87.673, 74.252 86.919, 74.511 87.178 C 74.770 87.437, 74.692 95.344, 74.337 104.748 C 73.750 120.277, 73.520 121.892, 71.830 122.334 C 70.756 122.615, 68.934 125.162, 67.520 128.359 C 64.608 134.944, 54.695 164.563, 52.066 174.536 C 51.045 178.406, 48.588 186.321, 46.605 192.124 C 44.622 197.927, 43 203.309, 43 204.084 C 43 204.858, 40.812 211.794, 38.137 219.496 C 35.463 227.198, 32.650 235.525, 31.887 238 C 30.645 242.030, 30.134 242.552, 27 243 C 23.577 243.489, 23.494 243.611, 23.205 248.555 C 22.957 252.796, 23.311 254.044, 25.407 256.305 C 28.044 259.150, 32.496 259.875, 35.957 258.023 C 40.050 255.832, 44.482 245.915, 52.056 222 C 54.930 212.925, 59.469 198.832, 62.141 190.681 C 64.813 182.531, 67 175.176, 67 174.337 C 67 173.499, 68.463 168.242, 70.250 162.656 L 73.500 152.500 73.807 205 C 74.120 258.642, 73.557 280, 71.830 280 C 70.174 280, 68 282.756, 68 284.856 C 68 287.465, 72.552 291, 75.912 291 C 79.776 291, 82.914 288.366, 85.086 283.300 C 86.897 279.073, 87 275.756, 87 221.346 C 87 173.957, 87.230 164.089, 88.309 165.179 C 90.833 167.725, 100.987 183.804, 102.921 188.315 C 106.453 196.555, 112.555 198.099, 115.680 191.544 C 117.111 188.544, 117.102 187.824, 115.576 183.230 C 114.658 180.464, 112.513 176.018, 110.811 173.351 C 109.108 170.683, 106.278 166.250, 104.521 163.500 C 102.763 160.750, 99.831 155.809, 98.004 152.519 C 96.178 149.230, 93.627 145.708, 92.336 144.692 C 86.669 140.234, 86.949 142.065, 87.235 111.358 L 87.500 82.890 94.500 80.408 C 98.350 79.043, 102.400 77.646, 103.500 77.305 C 109.827 75.343, 121 64.657, 121 60.569 C 121 54.761, 115.406 53.688, 110.215 58.501 C 108.780 59.832, 106.457 61.354, 105.053 61.884 C 103.649 62.414, 99.498 64.007, 95.829 65.424 C 92.161 66.841, 88.782 68, 88.322 68 C 87.357 68, 87.451 65.834, 89.639 37.657 C 91.210 17.429, 91.202 16.761, 89.379 15.024 C 88.346 14.039, 86.925 13.448, 86.223 13.709 M 162.250 32.220 C 161.012 32.817, 160 33.874, 160 34.569 C 160 35.265, 159.650 35.983, 159.222 36.167 C 158.793 36.350, 156.798 39.899, 154.788 44.053 C 150.985 51.909, 142.582 64.259, 135.778 71.989 C 131.976 76.309, 129 81.822, 129 84.545 C 129 85.261, 130.165 87.231, 131.589 88.923 C 133.843 91.602, 134.846 92.009, 139.339 92.070 C 145.178 92.150, 149.007 93.260, 147.230 94.358 C 146.604 94.745, 142.932 100.796, 139.070 107.804 C 132.231 120.216, 128 130.324, 128 134.252 C 128 137.344, 131.137 141.814, 134.197 143.081 C 139.660 145.345, 144.137 143.263, 158.359 131.849 L 164.219 127.146 167.955 131.073 C 171.026 134.302, 172.368 135, 175.501 135 C 180.375 135, 185.740 131.108, 186.184 127.250 C 186.415 125.243, 187.353 127.202, 189.657 134.500 C 195.354 152.545, 195.962 155.086, 194.677 155.472 C 191.784 156.339, 168.871 161.013, 163 161.934 C 143.909 164.929, 137.631 166.205, 134.270 167.772 C 127.828 170.774, 125.173 174.587, 127.064 178.120 C 129.028 181.789, 132.506 182.221, 142.895 180.089 C 148.178 179.005, 155.313 177.809, 158.750 177.430 L 165 176.742 164.965 180.121 C 164.801 195.878, 151.500 219.052, 135.145 232.073 C 130.882 235.468, 129.949 236.749, 130.196 238.871 C 130.634 242.634, 134.769 244.409, 139.886 243.031 C 146.741 241.185, 161.221 227.174, 166.183 217.585 L 168.209 213.670 172.073 221.085 C 174.342 225.439, 177.869 230.273, 180.616 232.796 C 185.100 236.913, 185.526 237.079, 190.877 236.796 C 196.005 236.524, 196.542 236.267, 197.460 233.646 C 198.515 230.633, 197.902 229.815, 190.756 224.701 C 188.411 223.022, 181 211.742, 181 209.850 C 181 209.383, 180.626 209, 180.169 209 C 179.712 209, 178.736 207.875, 178 206.500 C 177.264 205.125, 176.067 204, 175.339 204 C 174.305 204, 174.394 203.071, 175.744 199.750 C 177.588 195.217, 178.144 181.995, 176.723 176.488 L 175.945 173.475 187.937 170.342 C 200.896 166.956, 201.287 167.014, 202.501 172.506 C 203.294 176.094, 204.702 180.099, 207.069 185.500 C 208.033 187.700, 210.215 193.006, 211.917 197.291 C 213.619 201.576, 216.617 208.465, 218.579 212.600 C 222.186 220.199, 222.207 220.793, 219 224 C 218.281 224.719, 216.048 228.740, 213.169 234.500 C 211.795 237.250, 208.590 242.875, 206.047 247 C 197.201 261.348, 196.243 265.988, 201.954 266.833 C 206.350 267.483, 208.851 266.009, 212.179 260.805 C 214.006 257.950, 218.668 250.810, 222.539 244.940 L 229.579 234.267 232.755 240 C 236.558 246.865, 253.840 269.962, 257.358 272.883 C 260.935 275.851, 266.875 273.442, 266.968 268.985 C 267.022 266.412, 263.030 259.887, 257.214 253.043 C 251.212 245.981, 238.554 227.322, 237.490 223.968 C 237.032 222.526, 237.778 220.649, 239.981 217.704 C 241.710 215.392, 246.506 208.325, 250.638 202 C 254.770 195.675, 259.770 188.826, 261.749 186.780 C 264.964 183.456, 265.227 182.795, 264.217 180.578 C 262.641 177.118, 257.549 174.674, 253.500 175.434 C 250.806 175.939, 249.179 177.555, 244.098 184.773 C 236.394 195.715, 236.446 195.638, 232.922 201.299 C 231.313 203.884, 229.600 206, 229.117 206 C 228.633 206, 227.564 204.088, 226.742 201.750 C 225.920 199.412, 223.411 193, 221.168 187.500 C 215.109 172.647, 212.076 164, 212.925 164 C 213.340 164, 214.217 162.820, 214.874 161.377 C 216.349 158.140, 214.299 154.364, 210.557 153.425 C 208.619 152.939, 207.717 151.496, 206.011 146.159 C 204.840 142.497, 203.646 138.938, 203.358 138.250 C 203.034 137.478, 203.645 137, 204.957 137 C 207.274 137, 212.548 134.332, 217.941 130.431 C 219.833 129.062, 222.533 127.667, 223.941 127.331 C 225.348 126.995, 228.466 125.412, 230.870 123.813 C 233.273 122.214, 235.350 121.040, 235.485 121.203 C 235.620 121.366, 236.491 123.828, 237.420 126.673 C 239.420 132.797, 240.904 134.256, 244.690 133.822 L 247.500 133.500 247.203 124.500 C 246.953 116.913, 246.519 114.911, 244.439 111.750 C 241.166 106.775, 238.120 106.488, 232.090 110.585 C 230.135 111.913, 227.628 113.015, 226.518 113.033 C 225.408 113.051, 222.030 113.918, 219.011 114.960 C 215.992 116.002, 213.384 116.717, 213.215 116.549 C 212.720 116.054, 218.353 106.883, 226.198 95.409 C 239.049 76.616, 249 59.437, 249 56.046 C 249 53.492, 245.218 50, 242.452 50 C 240.710 50, 239.239 51.107, 237.468 53.750 C 236.085 55.813, 232.215 61.655, 228.867 66.734 C 222.557 76.304, 220.209 77.978, 213.076 77.994 L 210.651 78 212.664 75.750 C 215.307 72.795, 217.588 68.829, 224.476 55.214 C 230.649 43.009, 230.721 41, 224.985 41 C 221.460 41, 212.800 50.106, 208.550 58.283 C 206.927 61.404, 204.526 65.205, 203.213 66.729 C 201.900 68.253, 200.093 70.737, 199.198 72.250 C 198.302 73.763, 197.255 75, 196.872 75 C 196.489 75, 195.878 76.765, 195.513 78.921 C 195.035 81.754, 195.304 83.535, 196.485 85.337 C 198.353 88.188, 204.606 91, 209.077 91 L 212.113 91 210.353 93.980 C 209.385 95.619, 207.672 98.004, 206.546 99.279 C 204.245 101.888, 202.740 104.367, 199.282 111.250 C 197.969 113.863, 196.742 116, 196.554 116 C 196.158 116, 191.911 103.091, 189.563 94.751 C 188.673 91.589, 187.062 81.914, 185.983 73.251 C 183.380 52.359, 183.304 52.066, 180.196 50.885 C 176.168 49.353, 173.702 50.622, 171.323 55.451 C 170.126 57.882, 166.076 64.602, 162.323 70.385 L 155.500 80.899 152 80.328 C 150.075 80.014, 148.189 79.474, 147.808 79.129 C 147.428 78.783, 149.329 75.575, 152.033 72 C 154.737 68.425, 156.961 65.141, 156.975 64.702 C 156.989 64.263, 158.475 61.563, 160.278 58.702 C 164.696 51.690, 170 38.735, 170 34.955 C 170 33.723, 169.011 32.574, 167.435 31.975 C 166.024 31.439, 164.787 31.030, 164.685 31.068 C 164.583 31.105, 163.488 31.624, 162.250 32.220 M 166.543 85.595 C 163.266 91.412, 159.779 97.102, 158.793 98.239 C 157.807 99.376, 157 100.652, 157 101.074 C 157 101.497, 154.718 105.793, 151.929 110.622 C 146.710 119.659, 143.701 126, 144.631 126 C 144.922 126, 148.911 123.911, 153.497 121.358 C 161.230 117.052, 161.910 116.413, 162.885 112.544 C 165.325 102.853, 175 104.799, 175 114.982 C 175 116.570, 175.443 119.034, 175.984 120.458 C 176.782 122.556, 177.427 122.931, 179.391 122.438 C 180.723 122.104, 182.756 122.334, 183.907 122.950 C 186.320 124.242, 186.372 124.106, 184.926 120.315 C 184.336 118.767, 183.479 115.700, 183.022 113.500 C 182.566 111.300, 181.058 105.675, 179.671 101 C 178.285 96.325, 176.380 88.563, 175.438 83.750 C 174.497 78.938, 173.450 75.004, 173.113 75.009 C 172.776 75.015, 169.819 79.778, 166.543 85.595 M 239.707 144.016 C 235.029 147.695, 235.929 151.275, 243.250 158.117 C 249.839 164.275, 253.214 165.404, 255.608 162.250 C 257.711 159.479, 257.229 154.989, 254.434 151.325 C 247.450 142.168, 244.143 140.527, 239.707 144.016" stroke="none" fill="black" fill-rule="evenodd"/>
</svg>