<svg xmlns="http://www.w3.org/2000/svg" width="300" height="300" viewBox="0 0 300 300" version="1.1">
	<path d="M 88.344 12.820 C 87.179 13.576, 85.370 38.960, 84.348 68.893 L 83.686 88.285 63.442 87.582 L 43.198 86.879 41.599 89.162 C 39.497 92.163, 39.566 96.305, 41.750 98.243 C 43.886 100.138, 59.887 102, 74.039 102 L 84 102 84 104.592 C 84 106.018, 83.100 108.329, 82 109.727 C 80.737 111.332, 79.999 113.787, 79.997 116.385 C 79.993 123.047, 72.855 147.582, 68.618 155.500 C 67.735 157.150, 67.010 159.091, 67.006 159.814 C 67.003 160.537, 65.875 163.588, 64.500 166.594 C 63.125 169.600, 62 172.299, 62 172.592 C 62 173.274, 57.307 183.679, 55.432 187.154 C 54.645 188.614, 53.994 190.414, 53.987 191.154 C 53.980 191.894, 52.630 195.151, 50.987 198.391 C 49.344 201.631, 48 204.790, 48 205.410 C 48 207.839, 33.045 236.640, 30.597 238.924 C 28.612 240.777, 28 242.321, 28 245.474 C 28 250.570, 29.340 252, 34.116 252 C 37.240 252, 38.323 251.379, 40.916 248.106 C 42.612 245.964, 44 243.869, 44 243.450 C 44 243.032, 45.058 241.296, 46.350 239.594 C 47.643 237.892, 49.685 234.266, 50.888 231.537 C 52.092 228.807, 53.683 225.882, 54.425 225.037 C 55.646 223.644, 57.732 219.004, 62.981 206 C 66.879 196.346, 72.243 183.358, 73.512 180.500 C 74.246 178.850, 76.526 173.225, 78.580 168 C 80.634 162.775, 82.514 158.275, 82.757 158 C 83.352 157.328, 82.110 254.297, 81.389 264.750 C 80.881 272.117, 80.608 273, 78.839 273 C 76.294 273, 74 275.301, 74 277.852 C 74 281.135, 78.781 286, 82.007 286 C 86.419 286, 87.936 285.046, 90.019 280.963 C 93.723 273.703, 94.056 268.649, 94.557 212.184 C 94.828 181.622, 95.167 156.500, 95.310 156.357 C 95.453 156.214, 97.579 159.044, 100.035 162.646 C 102.491 166.248, 105.747 169.937, 107.270 170.842 C 109.774 172.330, 110.303 172.341, 112.770 170.960 C 114.272 170.120, 115.634 168.512, 115.797 167.386 C 116.237 164.359, 107.743 148.454, 101.734 141.053 L 96.500 134.607 96.190 116.509 L 95.881 98.410 100.907 96.139 C 111.547 91.330, 116.133 79.817, 108.941 75.968 C 107.211 75.043, 106.304 75.533, 102.501 79.445 C 100.067 81.950, 97.608 84, 97.037 84 C 96.381 84, 96 79.793, 96 72.555 C 96 59.757, 94.268 22.265, 93.446 17.262 C 92.901 13.945, 90.215 11.606, 88.344 12.820 M 155.721 26.382 C 153.015 28.890, 152.559 30.185, 148.461 47 C 145.174 60.483, 143.938 64.009, 139.578 72.323 C 134.450 82.101, 135.139 86.579, 141.656 85.822 C 144.853 85.451, 150.438 78.746, 154.656 70.216 C 157.105 65.262, 157.796 64.683, 165.693 60.966 C 174.378 56.878, 179.274 55.761, 177.117 58.359 C 172.456 63.976, 170.077 83.217, 173.567 87.074 C 175.742 89.477, 179.636 89.571, 180.829 87.250 C 181.613 85.724, 183.219 67.951, 183.196 61.055 C 183.191 59.710, 182.504 58.110, 181.668 57.499 C 180.337 56.526, 180.387 56.239, 182.074 55.186 C 184.682 53.557, 184.523 49.480, 181.777 47.557 C 179.023 45.627, 174.127 45.591, 167.150 47.448 C 161.829 48.864, 161.804 48.860, 162.420 46.686 C 166.371 32.744, 166.140 25.808, 161.687 24.614 C 158.540 23.770, 158.541 23.770, 155.721 26.382 M 212.308 25.082 C 208.944 26.326, 207.149 29.902, 206.058 37.533 C 204.320 49.677, 203.110 54.885, 200.521 61.356 C 199.134 64.822, 198 68.156, 198 68.765 C 198 69.375, 195.975 72.831, 193.500 76.447 C 188.858 83.227, 188.130 85.730, 190.200 87.800 C 194.538 92.138, 205.434 82.836, 211.570 69.555 C 214.806 62.550, 215.253 62.048, 218.760 61.461 C 220.817 61.116, 225.200 59.990, 228.500 58.959 C 241.812 54.796, 250.964 52.857, 260 52.284 C 270.075 51.646, 272.050 50.650, 271.253 46.615 C 270.549 43.051, 266.478 40.929, 258.761 40.105 C 247.883 38.942, 231.218 41.893, 222.183 46.580 C 220.757 47.320, 219.520 47.829, 219.433 47.712 C 219.346 47.596, 219.654 44.125, 220.117 40 C 221.089 31.349, 220.038 26.794, 216.721 25.283 C 215.460 24.708, 213.553 24.621, 212.308 25.082 M 242.333 68.202 C 241.788 68.916, 240.346 71.875, 239.131 74.778 C 236.268 81.613, 236.991 85.924, 241.778 90.573 C 245.766 94.446, 249.742 95.047, 252.345 92.171 C 254.109 90.222, 254.564 86.467, 253.143 85.588 C 252.672 85.297, 252.027 82.552, 251.711 79.488 C 250.780 70.469, 245.477 64.087, 242.333 68.202 M 182.740 105.540 C 177.830 110.093, 180.067 116.843, 186.727 117.574 C 190.057 117.940, 194 122.209, 194 125.449 C 194 129.500, 200.860 130.465, 203.443 126.777 C 206.800 121.984, 203.760 113.599, 196.275 107.011 C 190.764 102.160, 186.845 101.734, 182.740 105.540 M 217.500 130.565 C 213.100 131.294, 206.800 132.188, 203.500 132.551 C 200.200 132.914, 191.425 134.321, 184 135.678 C 176.575 137.035, 167.800 138.549, 164.500 139.042 C 147.276 141.616, 144.896 142.652, 147.374 146.494 C 150.941 152.023, 162.304 153.462, 178.500 150.435 C 191.270 148.049, 197 147.561, 197 148.860 C 197 149.487, 196.550 150, 196 150 C 195.450 150, 195 150.675, 195 151.500 C 195 152.325, 194.643 153, 194.207 153 C 192.875 153, 191 161.691, 191 167.870 L 191 173.711 184.250 174.348 C 180.537 174.699, 175.444 174.989, 172.932 174.993 C 158.930 175.015, 150.324 183.235, 158.614 188.667 C 161.159 190.334, 161.192 190.334, 183.669 188.369 L 190.839 187.743 191.426 192.121 C 193.755 209.503, 194.610 228.682, 193.384 236.088 L 192.791 239.676 171.145 239.812 C 137.591 240.022, 127.780 241.878, 125.667 248.413 C 123.995 253.583, 126.316 254.299, 142 253.451 C 149.425 253.049, 169.225 252.860, 186 253.031 C 202.775 253.202, 230.900 253.406, 248.500 253.486 C 269.654 253.581, 281.645 254.021, 283.878 254.782 C 288.607 256.394, 291 254.940, 291 250.455 C 291 241.961, 281.350 240.091, 237.231 240.039 L 204.962 240 205.731 237.250 C 206.154 235.738, 206.495 223.813, 206.489 210.750 L 206.477 187 210.588 187 C 221.112 187, 229.964 185.682, 231.966 183.817 C 234.359 181.588, 234.622 177.761, 232.503 176.002 C 231.268 174.978, 216.490 173.255, 207.179 173.051 C 204.901 173.001, 204.865 172.837, 205.246 164.250 C 205.460 159.438, 206.254 153.217, 207.012 150.427 L 208.389 145.354 218.445 143.125 C 237.549 138.891, 239 138.309, 239 134.878 C 239 133.845, 238.100 132.100, 237 131 C 234.642 128.642, 229.762 128.533, 217.500 130.565" stroke="none" fill="black" fill-rule="evenodd"/>
</svg>