<svg xmlns="http://www.w3.org/2000/svg" width="300" height="300" viewBox="0 0 300 300" version="1.1">
	<path d="M 213.248 17.706 C 209.134 18.498, 206.275 23.753, 204.926 33 C 204.244 37.675, 203.372 41.862, 202.988 42.305 C 202.073 43.360, 181.144 46.269, 179.369 45.588 C 178.378 45.208, 178 42.986, 178 37.543 C 178 28.919, 176.409 26, 171.706 26 C 166.015 26, 164.846 29.368, 165.994 42.465 L 166.429 47.429 157.964 49.169 C 153.309 50.126, 147.925 50.960, 146 51.022 C 144.075 51.085, 139.614 51.893, 136.087 52.818 C 128.664 54.765, 125.301 58.080, 126.382 62.384 C 127.340 66.205, 130.245 67.349, 135.822 66.103 C 147.165 63.569, 163.835 60.842, 166.052 61.156 C 167.973 61.429, 168.595 62.257, 169.065 65.164 C 169.781 69.596, 172.502 74, 174.523 74 C 177.099 74, 179.993 70.155, 180.167 66.500 C 180.258 64.575, 180.371 62.212, 180.417 61.250 C 180.520 59.070, 183.386 58.200, 193.194 57.372 L 200.888 56.722 199.359 61.611 C 196.758 69.930, 196.250 71.379, 194.555 75.323 C 193.651 77.426, 193.187 80.013, 193.523 81.071 C 194.174 83.125, 198.053 84.577, 200.439 83.662 C 203.298 82.565, 206.667 75.522, 211.099 61.377 L 213.018 55.255 222.759 54.096 C 228.117 53.458, 234.202 52.767, 236.281 52.559 C 241.414 52.047, 248.926 48.074, 250.774 44.894 C 252.650 41.666, 251.747 37.372, 249.010 36.503 C 247.917 36.156, 245.781 36.548, 244.262 37.373 C 242.743 38.198, 237.225 39.364, 232 39.965 C 226.775 40.566, 221.066 41.314, 219.314 41.628 L 216.129 42.198 217.552 36.849 C 218.336 33.907, 218.982 30.093, 218.988 28.372 C 218.995 26.652, 219.675 24.685, 220.500 24 C 222.590 22.265, 222.372 19.269, 220.066 18.035 C 218.096 16.981, 217.231 16.939, 213.248 17.706 M 92.650 54.455 C 89.007 57.586, 85.004 70.405, 84.989 78.988 C 84.983 82.570, 84.708 87.133, 84.378 89.128 C 83.781 92.735, 83.731 92.767, 75.639 94.786 C 71.163 95.903, 63.900 97.555, 59.500 98.457 C 49.244 100.560, 47 102.004, 47 106.500 C 47 109.056, 47.633 110.369, 49.435 111.550 C 51.670 113.014, 52.721 113.004, 62.185 111.430 C 67.858 110.486, 74.244 109.104, 76.376 108.357 C 82.861 106.086, 83 106.208, 83 114.139 C 83 120.334, 82.600 121.929, 79.977 126.192 C 78.314 128.894, 76.344 132.769, 75.597 134.802 C 74.520 137.738, 62.068 167.225, 57.989 176.500 C 57.505 177.600, 56.227 180.525, 55.148 183 C 49.640 195.639, 47.580 200.110, 44.208 206.750 C 42.183 210.738, 40.151 214, 39.692 214 C 38.404 214, 36.336 216.366, 35.601 218.682 C 34.702 221.515, 36.690 225.538, 39.659 226.890 C 46.027 229.792, 54.095 218.718, 67.267 189 C 69.617 183.699, 70.690 181.128, 76.455 167 C 82.157 153.027, 81.667 151.126, 82.497 190.460 C 82.914 210.238, 83.052 234.551, 82.803 244.490 C 82.352 262.480, 82.338 262.571, 79.675 265.234 C 76.359 268.550, 76.310 270.401, 79.455 273.545 C 84.266 278.357, 91.521 275.123, 93.750 267.173 C 94.163 265.703, 94.459 237.950, 94.409 205.500 L 94.317 146.500 97.781 149.500 C 99.686 151.150, 105.577 156.425, 110.873 161.222 C 116.168 166.019, 121.920 170.711, 123.656 171.649 C 126.626 173.253, 126.964 173.254, 129.406 171.654 C 131.272 170.431, 132 169.086, 132 166.862 C 132 164.361, 130.518 162.239, 124.250 155.760 C 115.963 147.195, 102.493 135.824, 97.697 133.343 L 94.773 131.831 95.164 118.472 C 95.378 111.124, 95.879 104.788, 96.276 104.391 C 96.673 103.994, 99.706 103.299, 103.016 102.846 C 111.939 101.626, 119 96.744, 119 91.793 C 119 88.155, 115.840 86.768, 111.525 88.513 C 109.861 89.186, 105.902 90.026, 102.726 90.380 L 96.951 91.023 97.455 83.262 C 99.152 57.129, 99.127 54.560, 97.168 53.337 C 95.638 52.382, 94.831 52.582, 92.650 54.455 M 172.500 85.523 C 170.850 86.341, 168.825 88.103, 168 89.439 C 161.924 99.275, 155.229 107.717, 145.876 117.335 C 139.904 123.476, 135.014 129.248, 135.009 130.163 C 135.003 131.344, 136.958 132.440, 141.750 133.940 C 149.577 136.392, 164.901 143.170, 164.960 144.207 C 164.982 144.596, 159.701 150.221, 153.225 156.707 C 140.984 168.966, 134.694 173.269, 127.237 174.485 C 122.486 175.260, 120.462 177.720, 121.423 181.549 C 122.683 186.571, 134.719 186.039, 144.409 180.534 C 152.439 175.971, 156.707 172.453, 167.421 161.566 C 172.327 156.580, 175.942 153.400, 175.453 154.500 C 174.964 155.600, 174.407 160.648, 174.214 165.717 L 173.864 174.935 170.182 175.502 C 164.433 176.387, 150.948 179.916, 148.099 181.281 C 142.708 183.865, 145.106 189.348, 152.034 190.278 C 155.914 190.798, 166.232 189.775, 170.838 188.412 C 172.841 187.820, 173.127 188.036, 172.838 189.922 C 172.492 192.173, 172.704 192.083, 152.272 198.634 C 143.532 201.436, 140.477 206.119, 145.223 209.443 C 148.279 211.584, 156.846 211.424, 162.207 209.126 C 164.612 208.095, 168.024 206.934, 169.790 206.546 L 173 205.841 173 214.762 L 173 223.683 169.134 224.842 C 167.008 225.479, 164.195 226.008, 162.884 226.017 C 161.573 226.027, 157.125 226.912, 153 227.986 C 148.875 229.059, 141 230.456, 135.500 231.091 C 123.213 232.509, 118 234.811, 118 238.820 C 118 240.349, 118.540 242.140, 119.200 242.800 C 122.062 245.662, 144.027 243.580, 166.285 238.335 C 170.016 237.456, 173.230 236.908, 173.426 237.118 C 173.761 237.478, 176.018 280.403, 176.006 286.179 C 175.998 289.693, 178.422 292, 182.122 292 C 184.607 292, 185.356 291.392, 186.631 288.340 C 187.937 285.216, 188.055 280.917, 187.442 258.967 L 186.724 233.253 193.612 232.072 C 197.400 231.422, 202.719 230.240, 205.432 229.445 C 208.144 228.650, 211.630 228, 213.178 228 C 216.623 228, 227.686 224.275, 230.717 222.095 C 233.693 219.954, 236.272 214.432, 235.472 211.913 C 235.117 210.794, 233.732 209.379, 232.394 208.770 C 230.297 207.814, 229.575 208.033, 227.146 210.360 C 225.151 212.271, 222.606 213.341, 218.415 214.028 C 210.284 215.361, 189.888 219.682, 187.750 220.524 C 186.161 221.151, 186 220.376, 186 212.107 L 186 203 190.532 203 C 194.307 203, 195.210 202.624, 195.937 200.750 C 197.144 197.639, 195.270 194.935, 190.220 192.500 C 186.885 190.892, 186.065 189.967, 186.036 187.778 C 186.003 185.302, 186.520 184.916, 191.750 183.506 C 201.926 180.764, 202.474 180.498, 203.857 177.613 C 204.891 175.455, 204.954 174.193, 204.118 172.359 C 202.597 169.020, 200.454 168.452, 195.096 169.966 C 186.834 172.300, 186.874 172.324, 186.813 165 C 186.782 161.425, 186.812 157.288, 186.879 155.806 L 187 153.112 191.750 155.152 C 194.363 156.273, 198.300 157.976, 200.500 158.935 C 204.120 160.513, 210.306 163.128, 218.500 166.544 C 233.290 172.710, 247.575 177.244, 256.250 178.525 C 265.475 179.888, 274 176.994, 274 172.500 C 274 171.675, 273.083 170.083, 271.962 168.962 C 270.374 167.374, 269.173 167.064, 266.525 167.561 C 260.904 168.616, 233.042 159.493, 211.500 149.545 C 208.750 148.275, 202.450 145.464, 197.500 143.299 C 192.550 141.133, 188.500 138.819, 188.500 138.156 C 188.500 137.492, 191.199 133.579, 194.498 129.461 C 197.797 125.343, 201.500 120.291, 202.727 118.236 C 207.476 110.282, 211 102.973, 211 101.076 C 211 97.515, 208.782 94.120, 205.772 93.070 C 202.191 91.822, 189.060 92.759, 183.624 94.651 C 178.362 96.482, 178.399 96.501, 178.808 92.215 C 179.057 89.600, 178.602 87.751, 177.335 86.233 C 175.616 84.174, 175.310 84.129, 172.500 85.523 M 186.500 106.213 C 184.300 106.741, 180.250 107.998, 177.500 109.007 C 174.750 110.016, 171.375 111.156, 170 111.541 C 168.625 111.926, 164.320 115.303, 160.434 119.045 L 153.368 125.850 156.934 126.819 C 158.895 127.353, 163.605 128.946, 167.401 130.360 C 174.154 132.876, 176 132.973, 176 130.808 C 176 130.218, 176.796 129.007, 177.768 128.117 C 180.587 125.539, 187.239 116.995, 191.290 110.750 C 194.855 105.254, 194.920 105.006, 192.760 105.126 C 191.517 105.196, 188.700 105.685, 186.500 106.213 M 177.500 151 C 176.718 152.266, 178.042 152.266, 180 151 C 181.293 150.165, 181.266 150.029, 179.809 150.015 C 178.879 150.007, 177.840 150.450, 177.500 151" stroke="none" fill="black" fill-rule="evenodd"/>
</svg>