<svg xmlns="http://www.w3.org/2000/svg" width="300" height="300" viewBox="0 0 300 300" version="1.1">
	<path d="M 196.364 30.226 C 194.102 31.262, 193.026 35.210, 193.018 42.500 C 193.011 48.782, 189.995 63.645, 186.728 73.500 C 182.672 85.737, 182.347 96.592, 185.924 100.411 C 188.036 102.666, 189.161 103, 194.656 103 C 199.900 103, 202.416 102.329, 209.582 99.018 C 216.254 95.936, 218.041 95.428, 217.496 96.768 C 215.444 101.815, 215.242 103.901, 216.617 105.863 C 217.964 107.787, 217.833 107.937, 214.272 108.545 C 209.904 109.292, 201.275 111.617, 195.467 113.614 C 193.248 114.376, 190.859 115, 190.157 115 C 189.454 115, 183.911 116.995, 177.839 119.433 C 170.037 122.566, 165.947 124.819, 163.899 127.114 C 156.531 135.366, 164.447 138.936, 178 133.473 C 188.239 129.345, 208.065 123, 210.722 123 C 211.672 123, 211.993 123.575, 211.607 124.582 C 211.273 125.452, 211 138.906, 211 154.481 L 211 182.798 199.743 191.295 C 184.613 202.716, 178 209.738, 178 214.383 C 178 218.103, 180.737 221, 184.252 221 C 185.246 221, 191.522 215.488, 198.200 208.750 C 207.771 199.094, 210.402 196.924, 210.624 198.500 C 211.510 204.803, 211.493 247.893, 210.604 247.004 C 209.231 245.631, 205.660 245.740, 204.200 247.200 C 202.297 249.103, 202.794 253.380, 205.475 258.176 C 210.571 267.294, 217.211 270.309, 222.377 265.852 C 226.046 262.688, 227.138 257.280, 225.875 248.528 C 224.929 241.968, 224.432 219.273, 223.692 148.794 L 223.390 120.087 233.746 117.602 C 245.832 114.701, 250.604 112.550, 253.379 108.752 C 254.964 106.584, 255.188 105.445, 254.444 103.356 C 252.875 98.952, 250.529 98.173, 246.228 100.626 C 242.644 102.669, 228.407 105.741, 227.363 104.696 C 227.084 104.417, 227.996 102.382, 229.390 100.175 C 230.784 97.967, 233.114 92.412, 234.568 87.830 C 236.022 83.249, 237.839 77.803, 238.606 75.730 C 240.479 70.664, 240.413 60.559, 238.487 57.621 C 237.655 56.351, 235.255 54.744, 233.154 54.051 C 229.602 52.879, 228.746 53.034, 220.917 56.267 C 212.371 59.797, 202.284 62.617, 201.392 61.725 C 201.122 61.456, 201.599 58.229, 202.451 54.556 C 204.632 45.150, 204.532 33.767, 202.250 31.807 C 199.459 29.410, 198.631 29.188, 196.364 30.226 M 77.085 35.398 C 76.396 36.228, 75.543 43.835, 74.983 54.148 C 74.465 63.691, 73.773 73.991, 73.447 77.036 L 72.853 82.572 66.677 83.770 C 53.161 86.392, 47 89.385, 47 93.330 C 47 99.084, 53.850 100.616, 65.490 97.465 C 69.086 96.492, 72.287 95.954, 72.604 96.270 C 72.920 96.587, 72.862 101.734, 72.475 107.708 L 71.770 118.572 68.635 118.232 C 66.017 117.949, 65.137 118.438, 63.298 121.196 C 62.087 123.013, 60.830 126.525, 60.506 129 C 59.934 133.359, 57.345 147.117, 54.391 161.500 C 51.852 173.859, 47.640 188.555, 43.501 199.500 C 42.045 203.350, 40.492 207.656, 40.049 209.068 C 39.606 210.481, 38.789 212.506, 38.233 213.568 C 37.676 214.631, 36.070 217.975, 34.663 221 C 33.256 224.025, 30.956 227.807, 29.552 229.406 C 26.520 232.858, 26.387 234.135, 28.829 236.345 C 36.263 243.073, 47.558 228.586, 56.776 200.500 C 61.873 184.969, 64.855 173.720, 68.227 157.302 C 69.307 152.042, 69.453 158.928, 69.191 202.788 C 68.933 246.078, 68.648 254.731, 67.441 256.065 C 66.649 256.941, 66 258.686, 66 259.943 C 66 263.598, 70.027 269.769, 73.297 271.123 C 76.060 272.267, 76.473 272.152, 78.645 269.626 L 81 266.888 81 216.503 C 81 170.081, 81.372 162.556, 83.495 165.993 C 83.844 166.556, 87.259 169.515, 91.085 172.568 C 97.067 177.341, 98.550 178.075, 101.669 177.809 C 106.419 177.404, 107.911 175.103, 105.959 171.196 C 104.644 168.566, 93.309 157.404, 85.441 150.993 L 82.383 148.500 83.108 137 C 83.506 130.675, 83.870 118.401, 83.916 109.725 C 84.012 91.780, 83.095 93.477, 94 91.057 C 104.539 88.718, 110.209 83.726, 107.395 79.264 C 105.409 76.115, 103.425 75.573, 99.868 77.207 C 98.016 78.057, 93.894 79.003, 90.708 79.309 L 84.916 79.864 85.550 74.182 C 85.898 71.057, 86.255 62.425, 86.342 55 C 86.475 43.624, 86.207 40.910, 84.636 37.750 C 82.645 33.744, 79.317 32.708, 77.085 35.398 M 134.808 56.851 C 133.327 58.946, 131.157 63.549, 129.986 67.080 C 128.815 70.611, 127.452 74.400, 126.956 75.500 C 126.461 76.600, 125.119 79.939, 123.975 82.919 C 122.832 85.900, 121.043 90.211, 120 92.500 C 118.957 94.789, 117.154 99.071, 115.993 102.017 C 114.832 104.963, 112.847 109.651, 111.581 112.436 C 104.243 128.580, 103.913 131.213, 108.747 135.016 C 112.221 137.748, 115.645 137.506, 122.405 134.048 C 125.580 132.425, 127.963 131.637, 127.703 132.298 C 127.442 132.959, 125.109 138.450, 122.519 144.500 C 115.966 159.803, 116.200 159.225, 115.452 162 C 115.081 163.375, 114.207 165.850, 113.511 167.500 C 110.705 174.143, 109.089 179.777, 108.466 185.084 C 107.882 190.062, 108.073 190.973, 110.221 193.471 C 112.147 195.710, 113.472 196.273, 116.815 196.273 C 122.115 196.273, 126.928 193.035, 135.675 183.588 L 142.170 176.573 144.089 179.037 C 145.263 180.544, 145.803 182.381, 145.480 183.771 C 144.101 189.697, 150.039 192.051, 154.675 187.416 C 156.996 185.095, 157.197 184.308, 156.650 179.689 C 156.315 176.860, 155.185 173.389, 154.139 171.974 C 153.093 170.560, 151.060 167.078, 149.620 164.237 C 145.088 155.293, 140.591 154.926, 136.418 163.161 C 134.071 167.793, 125.375 177.708, 124.461 176.795 C 123.962 176.295, 128.481 162.932, 131.067 157.261 C 132.130 154.929, 133 152.747, 133 152.412 C 133 152.077, 133.621 150.384, 134.380 148.651 C 135.140 146.918, 136.739 143.025, 137.934 140 C 139.129 136.975, 140.504 133.600, 140.989 132.500 C 143.234 127.405, 149 111.901, 149 110.960 C 149 110.380, 151.025 104.845, 153.500 98.659 C 155.975 92.473, 158 86.285, 158 84.906 C 158 79.495, 153.104 78.400, 148.363 82.750 C 145.506 85.371, 141.024 93.560, 140.979 96.239 C 140.957 97.576, 136.334 111.106, 135.809 111.372 C 130.766 113.921, 123.683 117.016, 123.442 116.776 C 123.267 116.600, 123.718 115.116, 124.446 113.478 C 125.173 111.840, 126.767 108.025, 127.988 105 C 129.209 101.975, 130.797 98.150, 131.517 96.500 C 132.236 94.850, 134.268 89.675, 136.031 85 C 137.795 80.325, 139.820 75.150, 140.532 73.500 C 143.153 67.424, 145.124 58.967, 144.434 56.756 C 142.852 51.686, 138.428 51.730, 134.808 56.851 M 218.577 71.656 C 214.184 73.497, 210.812 74.146, 205.520 74.166 L 198.386 74.194 196.693 79.897 C 195.762 83.033, 195 86.625, 195 87.879 C 195 89.918, 195.334 90.086, 198.164 89.464 C 199.905 89.082, 204.185 87.487, 207.676 85.921 C 211.166 84.355, 215.719 82.565, 217.792 81.944 C 221.176 80.930, 221.781 80.212, 223.713 74.907 C 224.896 71.658, 225.557 69.039, 225.182 69.087 C 224.807 69.135, 221.835 70.291, 218.577 71.656 M 249.500 150.026 C 247.300 151.140, 244.801 152.602, 243.946 153.276 C 239.164 157.044, 226 178.775, 226 182.900 C 226 183.990, 226.451 185.161, 227.003 185.502 C 227.673 185.916, 227.673 186.743, 227.003 187.995 C 225.426 190.941, 225.729 191.750, 230.250 196.660 C 234.244 200.997, 250.088 214, 251.379 214 C 251.704 214, 254.243 215.398, 257.020 217.108 C 275.192 228.289, 292 230.159, 292 221 C 292 217.689, 288.889 214.955, 285.986 215.714 C 283.745 216.300, 268.277 208.355, 256.634 200.638 C 252.160 197.673, 245.250 193.165, 241.279 190.621 L 234.057 185.995 241.083 175.584 C 244.947 169.857, 248.666 164.958, 249.347 164.697 C 250.028 164.436, 252.546 161.681, 254.942 158.575 C 258.970 153.354, 259.200 152.741, 257.981 150.464 C 256.379 147.472, 254.716 147.386, 249.500 150.026 M 180.772 173.754 C 178.040 174.129, 174 178.168, 174 180.524 C 174 181.214, 174.787 182.722, 175.750 183.876 C 177.159 185.565, 179.005 186.077, 185.216 186.503 C 192.523 187.005, 193.015 186.906, 194.493 184.651 C 198.334 178.790, 190.339 172.440, 180.772 173.754 M 142.477 202.765 C 140.600 204.113, 138 208.904, 138 211.014 C 138 215.669, 144.138 223.157, 148.899 224.310 C 152.787 225.251, 157.077 223.926, 158.213 221.431 C 159.774 218.006, 158.421 214.144, 155.393 213.384 C 153.585 212.930, 152.267 211.455, 150.974 208.439 C 148.736 203.219, 145.166 200.835, 142.477 202.765 M 118.190 212.560 C 117.470 213.375, 116.406 215.407, 115.825 217.074 C 112.958 225.297, 124.993 238.750, 131.907 235.050 C 134.553 233.634, 134.610 230.010, 132.034 227.039 C 130.953 225.793, 129.085 222.687, 127.883 220.136 C 125.466 215.007, 122.231 210.980, 120.576 211.038 C 119.984 211.059, 118.911 211.744, 118.190 212.560 M 89.849 222.670 C 88.941 222.911, 87.666 224.393, 87.015 225.964 C 85.320 230.056, 86.869 232.270, 94.359 236.458 C 101.781 240.609, 107.755 241.223, 109.743 238.040 C 111.957 234.495, 110.732 232.875, 100.636 225.996 C 95.013 222.164, 93.506 221.700, 89.849 222.670" stroke="none" fill="black" fill-rule="evenodd"/>
</svg>