<svg xmlns="http://www.w3.org/2000/svg" width="300" height="300" viewBox="0 0 300 300" version="1.1">
	<path d="M 180.842 23.672 C 179.930 23.913, 177.481 27.556, 175.401 31.765 C 172.187 38.271, 171.555 40.646, 171.190 47.598 L 170.761 55.777 167.130 56.399 C 165.134 56.742, 159.225 57.272, 154 57.577 C 139.522 58.424, 135.426 59.557, 133.949 63.123 C 132.363 66.953, 133.910 70.625, 137.738 72.117 C 140.392 73.151, 155.697 72.735, 165.750 71.356 C 168.491 70.980, 170 71.157, 170 71.855 C 170 72.450, 169.336 72.683, 168.525 72.371 C 166.636 71.646, 160.826 75.230, 157.517 79.162 C 156.105 80.840, 153.666 84.802, 152.096 87.966 C 147.828 96.567, 142.270 104.890, 137.910 109.207 C 133.055 114.013, 132.188 116.955, 134.903 119.413 C 141.088 125.010, 155 112.867, 165.721 92.513 L 169.942 84.500 169.971 100.081 C 170 115.456, 170.032 115.679, 172.381 116.936 C 173.729 117.658, 175.721 117.906, 176.973 117.509 C 179.267 116.780, 182.930 110.078, 182.989 106.500 C 183.017 104.815, 183.428 105.014, 185.593 107.762 C 188.427 111.358, 195.430 115, 199.511 115 C 204.506 115, 211 110.144, 211 106.409 C 211 104.947, 213.310 101.962, 217.638 97.833 C 221.290 94.350, 225.149 90.150, 226.215 88.500 L 228.153 85.500 227.755 96.500 C 227.534 102.607, 226.801 108.531, 226.107 109.817 C 225.072 111.738, 225.131 112.550, 226.452 114.567 C 229.945 119.898, 238.213 115.532, 239.417 107.721 C 241.276 95.657, 242.011 91.655, 242.450 91.216 C 243.228 90.439, 250.519 98.132, 252.315 101.626 C 253.880 104.669, 257.770 106.409, 260.588 105.328 C 264.944 103.656, 262.571 90.571, 256.879 84.879 C 254.718 82.718, 246.020 78, 244.198 78 C 243.290 78, 242.976 76.860, 243.190 74.344 C 243.467 71.076, 243.923 70.543, 247.495 69.312 C 252.951 67.431, 260 60.406, 260 56.848 C 260 54.119, 256.937 51, 254.258 51 C 253.544 51, 251.178 52.125, 249 53.500 C 246.822 54.875, 244.669 56, 244.215 56 C 243.762 56, 243.387 49.469, 243.383 41.487 C 243.377 32.167, 242.976 26.576, 242.260 25.860 C 240.433 24.033, 236.660 25.712, 234.114 29.485 C 231.130 33.907, 230.099 39.127, 230.044 50.100 L 230 58.699 220.036 59.352 C 213.726 59.766, 208.784 60.646, 206.561 61.753 C 203.383 63.334, 203.047 63.902, 203.025 67.727 C 202.990 73.679, 205.885 75.506, 214.006 74.657 L 219.940 74.037 218.810 76.518 C 218.188 77.883, 217.332 79, 216.907 79 C 216.483 79, 212.623 83.163, 208.329 88.250 C 204.035 93.338, 200.180 97.650, 199.761 97.833 C 199.342 98.017, 199 98.804, 199 99.583 C 199 100.362, 198.550 101, 198 101 C 197.450 101, 196.999 100.662, 196.997 100.250 C 196.996 99.838, 194.054 96.414, 190.460 92.642 L 183.925 85.784 184.213 77.256 L 184.500 68.728 191 66.614 C 199.547 63.834, 203.994 61.133, 206.747 57.048 C 212.280 48.837, 205.693 40.458, 199.495 47.824 C 197.067 50.709, 191.366 53, 186.615 53 C 184.387 53, 184.039 52.639, 184.444 50.750 C 184.709 49.513, 185.417 43.612, 186.017 37.639 C 187.001 27.850, 186.939 26.591, 185.399 24.889 C 184.459 23.850, 183.422 23.052, 183.095 23.116 C 182.768 23.180, 181.754 23.430, 180.842 23.672 M 87.490 31.765 C 86.934 32.169, 85.278 34.975, 83.809 38 C 80.994 43.798, 79.103 56.621, 78.900 71.289 C 78.735 83.214, 78.850 83.063, 67.966 85.683 C 62.760 86.936, 57.692 87.970, 56.705 87.981 C 55.717 87.991, 53.777 89.132, 52.392 90.517 C 49.133 93.776, 49.427 98.505, 53.057 101.202 C 55.572 103.071, 55.764 103.069, 65.010 101.051 C 70.178 99.923, 74.990 99, 75.703 99 C 76.589 99, 77 100.553, 77 103.906 C 77 108.366, 76.813 108.764, 74.942 108.275 C 71.606 107.402, 67.200 112.397, 66.452 117.900 C 66.108 120.430, 64.549 126.775, 62.987 132 C 58.961 145.471, 53.797 164.053, 53.261 167 C 52.555 170.886, 45.335 193.970, 39.813 210 C 37.065 217.975, 34.608 225.185, 34.351 226.023 C 34.039 227.045, 32.609 227.545, 30.003 227.545 C 25.259 227.545, 24.969 227.815, 24.293 232.854 C 23.565 238.282, 24.698 243.698, 27.056 246.056 C 29.411 248.411, 35.616 248.657, 38.673 246.517 C 41.162 244.773, 45.573 237.550, 46.566 233.591 C 46.949 232.065, 48.814 226.921, 50.709 222.158 C 52.605 217.396, 54.737 211.475, 55.448 209 C 56.159 206.525, 57.907 201.125, 59.332 197 C 62.403 188.112, 66.450 174.488, 68.095 167.500 C 69.558 161.283, 72.866 149.335, 74.047 146 C 74.571 144.520, 74.658 154.516, 74.260 170.500 C 73.889 185.350, 73.567 217.320, 73.543 241.544 C 73.503 282.068, 73.642 285.804, 75.273 288.294 C 76.617 290.345, 77.858 291, 80.401 291 C 86.614 291, 86.411 292.638, 87.131 236.612 C 87.492 208.500, 88.124 179.535, 88.535 172.245 L 89.283 158.991 93.965 163.371 C 101.798 170.698, 111.853 174.004, 115.429 170.429 C 118.656 167.201, 116.856 161.974, 111.668 159.513 C 109.850 158.650, 104.193 153.714, 99.096 148.544 L 89.829 139.144 90.165 116.943 L 90.500 94.742 93 93.121 C 98.114 89.805, 103.732 83.922, 105.475 80.055 C 107.159 76.322, 107.168 75.905, 105.614 73.533 C 102.954 69.474, 98.840 69.781, 94.820 74.339 C 92.424 77.056, 92.034 77.219, 92.043 75.500 C 92.049 74.400, 92.467 64.286, 92.972 53.025 C 93.919 31.870, 93.806 31.031, 90 31.031 C 89.175 31.031, 88.045 31.361, 87.490 31.765 M 225.503 75.003 C 226.500 76.105, 227.643 78.693, 228.043 80.753 C 228.713 84.208, 228.779 84.051, 228.885 78.750 C 228.997 73.165, 228.924 73, 226.345 73 C 223.752 73, 223.732 73.047, 225.503 75.003 M 209 136.155 C 201.575 137.181, 186.500 139.566, 175.500 141.454 C 164.500 143.342, 152.125 145.379, 148 145.979 C 143.875 146.580, 139.099 147.289, 137.387 147.555 C 131.325 148.498, 128.456 154.767, 132.016 159.293 C 133.877 161.659, 134.860 162.004, 139.823 162.029 C 142.945 162.044, 154.500 160.485, 165.500 158.564 C 184.409 155.261, 218.473 149.932, 220.377 149.978 C 220.860 149.990, 219.397 152.015, 217.127 154.478 C 214.857 156.940, 213 159.640, 213 160.478 C 213 162.614, 216.625 166, 218.913 166 C 221.017 166, 235.185 155.870, 239.323 151.407 C 242.775 147.684, 243.518 143.903, 241.546 140.090 C 238.168 133.557, 232.643 132.889, 209 136.155 M 182.526 158.950 C 181.687 160.573, 180.989 163.611, 180.976 165.700 C 180.963 167.790, 180.494 171.300, 179.935 173.500 C 179.375 175.700, 178.501 184.250, 177.993 192.500 C 177.484 200.750, 176.377 212.415, 175.534 218.422 C 174.120 228.494, 174.129 229.485, 175.655 231.172 C 177.810 233.553, 182.230 233.509, 184.424 231.084 C 186.750 228.514, 189.996 217.818, 190.015 212.661 C 190.024 210.372, 190.378 207.953, 190.803 207.285 C 191.227 206.617, 194.708 204.898, 198.537 203.465 C 202.367 202.033, 207.407 199.751, 209.738 198.395 C 214.527 195.609, 219 189.706, 219 186.172 C 219 183.338, 216.176 178.282, 214.162 177.509 C 212.388 176.828, 208 179.563, 208 181.349 C 208 183.176, 204.432 186.158, 198 189.705 L 192.500 192.738 192.874 187.619 C 193.315 181.584, 191.149 160.272, 189.839 157.750 C 188.355 154.894, 184.277 155.563, 182.526 158.950 M 141.228 180.801 C 133.854 187.726, 126.361 210.731, 123.970 233.791 C 123.119 241.993, 119.965 259.339, 118.451 264.145 C 117.166 268.219, 125.171 270.772, 128.190 267.250 C 130.483 264.575, 132.460 258.579, 135.034 246.500 C 136.323 240.450, 137.504 235.326, 137.658 235.114 C 137.813 234.902, 140.571 237.152, 143.788 240.114 C 151.898 247.581, 169.680 260.110, 174.500 261.752 C 176.700 262.502, 180.300 263.955, 182.500 264.982 C 193.567 270.145, 229.516 275.952, 250.595 275.982 C 263.405 276, 263.829 275.929, 270.095 272.750 C 275.607 269.953, 276.541 269.082, 276.794 266.500 C 276.956 264.850, 276.435 262.607, 275.637 261.516 C 274.216 259.575, 274.045 259.570, 267.678 261.266 C 259.677 263.398, 257.216 263.415, 239 261.460 C 201.764 257.465, 191.080 254.376, 164 239.779 C 155.033 234.946, 149 230.755, 145.742 227.097 C 144.226 225.394, 142.313 224, 141.492 224 C 139.578 224, 139.570 220.569, 141.463 211.500 C 143.228 203.046, 147.875 185.011, 148.583 183.865 C 149.296 182.711, 147.352 179.349, 145.579 178.669 C 144.747 178.349, 142.848 179.280, 141.228 180.801" stroke="none" fill="black" fill-rule="evenodd"/>
</svg>