<svg xmlns="http://www.w3.org/2000/svg" width="300" height="300" viewBox="0 0 300 300" version="1.1">
	<path d="M 170.442 26.280 C 166.094 28.686, 165.861 29.772, 166.453 44.860 L 167.017 59.221 163.259 58.723 C 158.431 58.084, 127.897 61.025, 126.250 62.287 C 124.662 63.504, 124.633 67.233, 126.200 68.800 C 126.860 69.460, 128.998 70.004, 130.950 70.008 C 132.903 70.013, 139.675 70.703, 146 71.542 C 152.406 72.392, 159.758 72.789, 162.597 72.438 L 167.693 71.808 168.391 82.612 C 168.776 88.554, 169.636 94.559, 170.302 95.958 C 171.959 99.430, 177.425 99.735, 187.609 96.921 C 191.949 95.722, 197.223 94.597, 199.328 94.421 C 204.312 94.004, 212.934 86.007, 212.974 81.764 C 212.988 80.260, 213.530 77.048, 214.178 74.626 L 215.355 70.223 221.928 69.626 C 225.542 69.297, 232.008 68.733, 236.296 68.372 C 244.988 67.640, 249 65.470, 249 61.500 C 249 60.123, 247.859 58.248, 246.252 56.983 C 243.635 54.925, 242.875 54.855, 230.365 55.525 L 217.227 56.229 218.070 51.865 C 220.036 41.684, 218.277 34.358, 213.322 32.101 C 211.163 31.117, 210.418 31.217, 208.768 32.710 C 205.459 35.705, 204.306 39.132, 203.659 47.897 C 203.319 52.515, 202.918 56.410, 202.770 56.552 C 202.621 56.694, 197.438 57.136, 191.250 57.534 L 180 58.257 179.998 45.879 C 179.997 36.065, 179.635 32.792, 178.248 30.085 C 176.248 26.177, 173.260 24.721, 170.442 26.280 M 84.941 38.703 C 79.801 43.028, 78.733 46.847, 78.213 62.750 C 77.957 70.588, 77.692 77.032, 77.624 77.071 C 77.556 77.110, 73.556 77.488, 68.736 77.910 C 61.569 78.537, 59.519 79.103, 57.486 81.013 C 54.327 83.981, 54.339 86.430, 57.527 89.618 C 59.896 91.987, 60.586 92.125, 68.530 91.823 L 77.005 91.500 77.002 101.691 C 77.001 107.499, 76.564 112.152, 75.986 112.509 C 72.949 114.385, 68.774 127.948, 67.008 141.674 C 65.527 153.178, 51.300 198.854, 44.792 213 C 43.653 215.475, 42.103 218.963, 41.347 220.750 C 40.356 223.095, 39.324 224, 37.642 224 C 32.656 224, 30.533 230.492, 33.105 237.872 C 35.197 243.872, 40.944 244.727, 45.738 239.750 C 47.460 237.963, 50.962 232, 53.520 226.500 C 56.079 221, 58.799 215.150, 59.565 213.500 C 60.795 210.853, 62.800 205.302, 68.416 189 C 69.268 186.525, 71.268 180.486, 72.860 175.580 L 75.755 166.660 76.410 190.080 C 76.770 202.961, 77.519 226.325, 78.074 242 C 78.629 257.675, 78.952 274.364, 78.792 279.087 C 78.455 289.009, 79.423 291, 84.587 291 C 90.954 291, 90.765 294.164, 89.576 207.500 C 89.053 169.441, 89.101 147.866, 89.706 148.500 C 90.230 149.050, 92.980 152.963, 95.816 157.195 C 100.010 163.455, 100.863 165.433, 100.390 167.798 C 99.288 173.309, 107.577 177.086, 112.777 173.443 C 114.607 172.162, 115 170.933, 115 166.497 C 115 157.046, 106.466 144.723, 94.755 137.262 L 88.963 133.572 89.231 111.619 L 89.500 89.666 96.500 88.256 C 100.350 87.481, 104.900 86.184, 106.611 85.375 C 111.941 82.855, 113.646 76.144, 109.961 72.189 C 107.454 69.498, 105.250 69.405, 103.086 71.901 C 102.020 73.130, 99.417 74.054, 95.719 74.516 L 90 75.230 89.995 64.865 C 89.993 58.923, 90.725 50.955, 91.712 46.193 C 93.218 38.930, 93.250 37.770, 91.967 36.958 C 89.652 35.494, 88.379 35.810, 84.941 38.703 M 190.750 70.786 L 181 71.072 181 77.536 C 181 83.576, 181.148 83.999, 183.250 83.989 C 185.782 83.977, 193.913 81.652, 196.770 80.123 C 198.339 79.283, 201.824 71.133, 200.819 70.653 C 200.644 70.569, 196.113 70.629, 190.750 70.786 M 227 104.587 C 214.183 107.654, 194.090 109.226, 161.500 109.715 C 129.881 110.188, 128.406 110.296, 126.250 112.279 C 123.761 114.568, 123.257 119.138, 125.306 120.839 C 127.287 122.483, 179.445 123.412, 198 122.133 C 213.327 121.077, 234.216 116.725, 237.654 113.872 C 239.087 112.683, 239.461 107.233, 238.235 105.404 C 236.976 103.527, 232.724 103.218, 227 104.587 M 134.273 135.725 C 130.888 140.926, 132.850 172.235, 137.447 186.364 C 138.187 188.639, 139.078 192.153, 139.427 194.174 C 139.856 196.653, 141.229 198.872, 143.654 201.001 C 146.310 203.333, 146.953 204.447, 146.123 205.277 C 145.505 205.895, 145 207.380, 145 208.578 C 145 212.782, 147.040 213.287, 162.070 212.807 L 176.127 212.359 175.497 214.868 C 175.150 216.249, 173.997 218.600, 172.934 220.093 C 171.870 221.587, 171 223.302, 171 223.904 C 171 224.507, 170.550 225, 170 225 C 169.450 225, 169 225.460, 169 226.021 C 169 227.306, 164.384 234.533, 161.017 238.519 C 157.650 242.505, 151.042 255.964, 150.346 260.254 C 149.711 264.171, 151.809 267.009, 155.321 266.985 C 158.306 266.964, 158.762 266.538, 164.948 258 C 179.659 237.693, 186 226.370, 186 220.408 C 186 219.023, 186.881 215.955, 187.959 213.591 C 189.844 209.453, 190.154 209.246, 196.209 208.093 C 214.867 204.540, 225.448 200.492, 227.656 196.063 C 229.106 193.154, 227.824 190.028, 224.861 189.253 C 223.189 188.816, 223.108 188.521, 224.275 187.123 C 226.930 183.943, 233.020 170.394, 234.668 164 C 238.244 150.130, 236.323 141.224, 228.662 136.161 L 224.636 133.500 194.068 133.500 C 165.998 133.500, 163.061 133.663, 158.122 135.494 C 152.887 137.434, 147 142.851, 147 145.728 C 147 148.606, 145.211 146.727, 144.640 143.250 C 143.800 138.130, 140.495 133, 138.038 133 C 136.942 133, 135.248 134.226, 134.273 135.725 M 196.819 146.742 L 189.139 147.082 189.539 150.291 C 189.759 152.056, 190.212 155.686, 190.547 158.358 L 191.155 163.216 197.740 162.511 C 201.361 162.123, 206.817 161.157, 209.863 160.363 C 215.062 159.009, 215.565 159.041, 218.064 160.889 L 220.726 162.857 221.863 159.063 C 223.657 153.074, 223.304 149.326, 220.777 147.557 C 218.533 145.984, 215.947 145.896, 196.819 146.742 M 163.441 147.901 C 158.983 148.446, 157.010 149.359, 151.363 153.493 C 150.437 154.171, 149.328 154.061, 147.863 153.147 C 145.735 151.818, 145.725 151.852, 146.417 157.972 C 147.323 165.974, 147.862 167.288, 149.879 166.409 C 150.771 166.021, 157.125 165.495, 164 165.240 L 176.500 164.776 176.561 155.888 L 176.623 147 172.561 147.141 C 170.328 147.218, 166.224 147.560, 163.441 147.901 M 212.500 172 C 210.300 173.018, 207.637 173.885, 206.582 173.926 C 205.527 173.967, 201.860 174.488, 198.433 175.085 L 192.202 176.170 191.502 180.834 C 191.118 183.399, 189.958 187.721, 188.925 190.439 C 187.892 193.157, 187.193 195.526, 187.371 195.704 C 187.548 195.882, 192.570 195.009, 198.529 193.764 C 209.002 191.576, 209.392 191.399, 210.161 188.500 C 210.599 186.850, 212.127 183.350, 213.557 180.721 C 216.370 175.549, 218.274 169.955, 217.180 170.074 C 216.806 170.115, 214.700 170.982, 212.500 172 M 160.161 179.335 L 149.823 180.333 150.485 184.750 C 150.849 187.179, 151.789 190.986, 152.574 193.209 C 154.528 198.748, 154.373 200.483, 151.750 202.407 C 149.906 203.760, 149.861 203.900, 151.500 203.181 C 152.600 202.698, 158.113 201.251, 163.750 199.965 C 170.377 198.453, 174 197.161, 174 196.310 C 174 195.585, 174.900 193.314, 176 191.261 C 177.198 189.026, 178 185.619, 178 182.765 L 178 178 174.250 178.168 C 172.188 178.261, 165.848 178.785, 160.161 179.335 M 191.832 219.679 L 189.525 222.135 194.166 226.317 C 196.718 228.618, 200.587 232.975, 202.762 236 C 206.716 241.499, 227.395 260.851, 234 265.234 C 241.193 270.008, 246.917 273, 248.857 273 C 251.457 273, 254 270.414, 254 267.770 C 254 265.837, 245.086 256.031, 243.280 255.977 C 242.128 255.943, 236.203 250.490, 220 234.555 C 205.960 220.746, 204.117 219.435, 196.319 217.707 C 194.863 217.384, 193.372 218.039, 191.832 219.679" stroke="none" fill="black" fill-rule="evenodd"/>
</svg>