<svg xmlns="http://www.w3.org/2000/svg" width="300" height="300" viewBox="0 0 300 300" version="1.1">
	<path d="M 206.948 16.389 C 203.553 18.696, 197.521 25.361, 191.606 33.341 L 188.759 37.182 186.936 34.402 C 185.933 32.873, 184.835 30.019, 184.496 28.061 C 183.633 23.069, 181.788 21.002, 177.584 20.320 C 173.247 19.616, 170 21.955, 170 25.782 C 170 29.656, 175.990 40.846, 179.702 43.906 C 185.105 48.359, 183.632 49.415, 170.224 50.697 C 160.351 51.641, 157.277 52.375, 150.750 55.352 C 144.215 58.332, 143 59.263, 143 61.288 C 143 67.047, 149.262 68.332, 163 65.394 C 169.258 64.056, 173.481 63.928, 188.500 64.621 C 198.400 65.078, 209.090 65.400, 212.257 65.337 C 221.825 65.145, 225.864 60.858, 222.258 54.723 L 220.364 51.500 210.932 51.794 C 205.744 51.955, 200.200 51.711, 198.611 51.251 L 195.722 50.416 200.377 44.958 C 206.603 37.659, 218 20.476, 218 18.389 C 218 16.315, 215.163 14.074, 212.482 14.032 C 211.372 14.014, 208.882 15.075, 206.948 16.389 M 86.505 46.590 C 83.446 49.890, 82.386 55.498, 81.056 75.420 C 80.472 84.176, 79.816 91.517, 79.600 91.733 C 79.384 91.950, 74.156 93.627, 67.982 95.462 C 55.574 99.149, 52.365 101.332, 53.383 105.391 C 54.084 108.184, 58.512 111, 62.204 111 C 63.470 111, 67.654 110.100, 71.500 109 C 75.346 107.900, 78.829 107, 79.240 107 C 79.650 107, 79.717 113.862, 79.388 122.250 C 78.858 135.764, 78.564 137.697, 76.810 139.229 C 75.721 140.180, 74.244 143.105, 73.528 145.729 C 71.995 151.349, 66.902 165.129, 64.026 171.443 C 62.912 173.889, 62 176.112, 62 176.382 C 62 176.653, 59.375 182.415, 56.166 189.187 C 52.957 195.959, 49.287 204.200, 48.010 207.500 C 46.733 210.800, 45.308 213.927, 44.844 214.450 C 44.380 214.972, 44 216.054, 44 216.853 C 44 217.652, 42.627 221.213, 40.948 224.766 C 36.871 233.395, 37.071 238.982, 41.500 240.175 C 47.121 241.690, 49.970 237.783, 60.587 214 C 62.674 209.325, 66.481 201, 69.047 195.500 C 71.614 190, 74.518 183.352, 75.501 180.728 C 76.484 178.103, 77.366 176.078, 77.460 176.228 C 77.554 176.377, 77.438 196.867, 77.202 221.760 L 76.772 267.019 74.377 267.620 C 72.964 267.975, 71.736 269.203, 71.381 270.617 C 70.147 275.535, 73.428 285.089, 77.010 287.005 C 80.050 288.632, 84.551 288.154, 86.503 285.997 C 88.976 283.264, 90.319 266.677, 89.521 248.713 C 89.184 241.130, 89.224 221.668, 89.610 205.465 L 90.312 176.003 95.753 182.017 C 101.265 188.108, 107.255 192.243, 112.235 193.397 C 115.220 194.089, 119 191.331, 119 188.462 C 119 186.473, 98.369 164.176, 93.553 160.960 L 89.869 158.500 90.453 142 C 90.774 132.925, 91.301 120.254, 91.624 113.842 L 92.210 102.185 96.548 101.092 C 98.934 100.492, 102.430 100, 104.318 100 C 110.470 100, 114.126 98.818, 115.189 96.484 C 116.532 93.538, 114.897 90.515, 110.820 88.407 C 107.756 86.822, 106.182 86.850, 96.110 88.664 L 92.721 89.275 93.378 80.388 C 93.739 75.499, 94.084 66.199, 94.145 59.720 C 94.239 49.721, 93.987 47.643, 92.473 45.970 C 90.149 43.402, 89.385 43.481, 86.505 46.590 M 166.635 71.750 C 165.195 74.007, 163.739 78.585, 162.980 83.250 C 161.724 90.956, 161.697 91.004, 158.109 91.972 C 156.124 92.507, 152.700 94.714, 150.500 96.877 L 146.500 100.810 144.500 96.655 C 142.976 93.489, 141.848 92.425, 139.763 92.185 C 136.321 91.789, 132.423 95.715, 131.728 100.278 C 131.057 104.679, 133.580 121.074, 137.093 135.146 C 138.692 141.551, 140 148.863, 140 151.396 C 140 154.667, 140.579 156.579, 142 158 C 144.488 160.488, 146.137 160.519, 149.083 158.134 C 152.421 155.431, 152.806 146.224, 150.160 132.331 C 146.980 115.627, 145.002 102.665, 145.550 102.117 C 145.823 101.844, 146.766 102.649, 147.647 103.906 C 149.257 106.205, 150.949 106.318, 156.632 104.508 C 158.649 103.865, 158.786 104.212, 159.163 110.882 C 159.452 115.996, 160.131 118.701, 161.630 120.718 C 164.319 124.335, 169.528 124.946, 173.180 122.073 C 176.967 119.094, 177.349 116.258, 174.367 113.276 C 172.196 111.105, 171.955 110.222, 172.554 106.636 C 172.934 104.361, 173.752 102.169, 174.372 101.765 C 176.086 100.649, 179 100.859, 179 102.099 C 179 103.858, 182.174 110.218, 184.819 113.761 C 186.158 115.554, 189.451 118.446, 192.137 120.186 L 197.021 123.351 193.261 124.763 C 191.192 125.540, 186.800 126.983, 183.500 127.969 C 160.058 134.972, 153.068 141.588, 164.509 145.943 C 167.881 147.226, 169.020 147.197, 174.799 145.681 C 181.565 143.907, 192.019 139.005, 199.750 133.981 C 202.263 132.348, 202.914 126.709, 200.750 125.309 C 200.005 124.827, 201.914 124.298, 205.481 124 C 210.824 123.553, 211.560 123.221, 212.375 120.890 C 213.883 116.577, 212.509 113.684, 208.035 111.750 C 205.808 110.787, 203.338 110, 202.545 110 C 199.800 110, 192.187 101.146, 193.663 99.670 C 194.743 98.591, 221.144 98.912, 225.259 100.055 C 232.282 102.005, 233.304 107.200, 230.098 124.650 C 228.504 133.329, 221.718 146.209, 216.131 151.160 C 210.331 156.299, 209.069 159.314, 211.565 162.072 C 214.822 165.671, 218.579 164.419, 228 156.592 C 236.111 149.855, 241.771 138.306, 244.467 123 C 247.891 103.548, 245.624 96.462, 233.692 89.323 L 227.500 85.619 212.500 85.487 C 204.156 85.414, 197.437 84.944, 197.357 84.428 C 197.279 83.918, 198.066 81.830, 199.107 79.790 C 201.508 75.084, 201.481 74.152, 198.880 71.896 C 197.354 70.573, 196.272 70.319, 195.017 70.991 C 192.992 72.075, 187 78.699, 187 79.855 C 187 81.868, 181.131 87, 178.828 87 L 176.334 87 177.809 80.133 C 178.620 76.356, 178.986 72.081, 178.623 70.633 C 178.032 68.281, 177.486 68, 173.495 68 C 169.426 68, 168.816 68.334, 166.635 71.750 M 164 157.594 C 152.186 158.583, 144 161.827, 144 165.519 C 144 169.423, 157.431 172.454, 168 170.936 C 171.025 170.502, 178.997 170.113, 185.716 170.073 L 197.933 170 196.032 173.250 C 194.986 175.037, 193.820 179.300, 193.439 182.723 C 192.940 187.212, 192.296 189.071, 191.124 189.396 C 185.619 190.923, 146.474 198.607, 137.636 199.896 C 129.933 201.019, 126.750 203.131, 127.203 206.822 C 127.648 210.460, 135.663 213.369, 143 212.556 C 149.174 211.872, 162.637 209.175, 180.500 205.045 C 187.100 203.519, 192.838 202.461, 193.250 202.694 C 193.662 202.927, 194 205.905, 194 209.310 C 194 212.716, 194.900 223.376, 196 233 C 197.100 242.624, 198 253.704, 198 257.623 C 198 268.873, 193.720 278, 188.445 278 C 187.232 278, 181.798 275.757, 176.370 273.015 C 170.941 270.274, 165.797 268.024, 164.939 268.015 C 163.271 267.999, 159 271.521, 159 272.913 C 159 275.192, 170.894 284.482, 179.433 288.871 C 190.355 294.486, 201.821 290.805, 207.184 279.963 C 211.886 270.455, 212.374 257.652, 209.104 229.500 C 208.530 224.550, 207.934 215.794, 207.780 210.043 L 207.500 199.586 211.593 198.872 C 218.754 197.623, 222.673 195.489, 223.239 192.532 C 223.980 188.655, 220.580 185.690, 216.250 186.438 C 214.463 186.747, 211.360 187.287, 209.355 187.638 L 205.710 188.277 206.537 181.888 C 206.992 178.375, 207.440 174.030, 207.533 172.233 C 207.625 170.436, 207.993 168.673, 208.351 168.316 C 210.066 166.601, 208.872 162.045, 206.209 160.149 C 203.754 158.401, 201.319 158.105, 185.959 157.690 C 176.357 157.430, 166.475 157.387, 164 157.594 M 147.500 231.863 C 141.123 234.764, 139.036 238.588, 141.899 242.124 C 143.503 244.104, 145.096 244.447, 156.599 245.288 C 173.440 246.520, 173.785 246.505, 176.058 244.447 C 180.975 239.997, 176.346 235.769, 162.810 232.347 C 151.775 229.558, 152.516 229.582, 147.500 231.863" stroke="none" fill="black" fill-rule="evenodd"/>
</svg>