<svg xmlns="http://www.w3.org/2000/svg" width="300" height="300" viewBox="0 0 300 300" version="1.1">
	<path d="M 155.313 13.750 C 151.310 17.265, 151.620 20.162, 156.860 28.188 C 159.523 32.267, 162.334 36.930, 163.108 38.552 C 164.239 40.924, 165.246 41.561, 168.259 41.810 C 171.514 42.080, 172.134 41.778, 173.002 39.495 C 174.654 35.148, 174.166 32.280, 170.553 25.105 C 166.790 17.632, 161.857 12, 159.076 12 C 158.103 12, 156.409 12.787, 155.313 13.750 M 86.371 19.750 C 82.889 24.902, 82.038 30.325, 81.359 51.701 L 80.686 72.902 72.593 76.034 C 68.142 77.757, 63.306 79.804, 61.846 80.583 C 60.386 81.362, 58.701 82, 58.103 82 C 54.906 82, 48.954 85.697, 47.847 88.369 C 46.739 91.043, 46.869 91.490, 49.374 93.645 C 53.108 96.857, 56.510 96.622, 66.768 92.443 C 71.571 90.487, 76.737 88.493, 78.250 88.013 L 81 87.140 81 96.160 C 81 104.006, 80.736 105.395, 78.974 106.840 C 77.851 107.759, 75.430 112.960, 73.546 118.500 C 70.243 128.213, 67.868 134.245, 64.098 142.500 C 59.914 151.660, 58.884 153.978, 54.547 164 C 52.048 169.775, 49.328 175.774, 48.502 177.331 C 47.676 178.888, 46.997 180.688, 46.994 181.331 C 46.990 181.974, 46.323 183.774, 45.511 185.331 C 44.699 186.888, 42.927 191.163, 41.574 194.831 C 35.185 212.148, 34.125 214.858, 32.557 217.889 C 30.385 222.090, 30.879 225.141, 33.981 226.682 C 37.624 228.492, 41.573 225.747, 45.033 219 C 48.397 212.440, 53 202.359, 53 201.549 C 53 200.945, 62.769 178.398, 66.020 171.500 C 67.056 169.300, 69.299 163.900, 71.003 159.500 C 73.703 152.530, 75.853 147.606, 80.296 138.212 C 82.136 134.324, 82.659 137.459, 83.854 159.500 C 85.912 197.490, 86.226 217.218, 85.080 236.500 C 83.764 258.656, 83.416 260.733, 80.890 261.535 C 78.290 262.360, 78.321 267.566, 80.934 268.965 C 84.256 270.743, 88.495 270.166, 90.897 267.609 C 92.133 266.294, 94.065 261.907, 95.192 257.859 C 96.960 251.506, 97.307 246.674, 97.729 222.500 C 98.167 197.425, 96.860 157.192, 95.363 149.648 L 94.796 146.796 99.414 149.503 C 104.545 152.509, 108.213 152.338, 109.995 149.009 C 111.337 146.501, 110.308 142.329, 107.937 140.669 C 105.614 139.042, 96.251 127.375, 94.399 123.800 C 93.341 121.758, 93 116.365, 93 101.686 L 93 82.272 97.750 80.594 C 108.068 76.950, 109.620 75.122, 106.474 70.320 C 104.881 67.889, 104.438 67.774, 98.891 68.354 L 93 68.969 93 44.185 C 93 19.321, 92.694 17, 89.415 17 C 88.763 17, 87.394 18.238, 86.371 19.750 M 128.558 48.492 C 118.044 52.237, 115.909 58.510, 124.358 60.828 C 128.309 61.912, 167.701 60.503, 176.179 58.974 C 179.655 58.347, 183.287 57.127, 184.250 56.262 C 186.315 54.407, 186.467 51.200, 184.608 48.750 C 183.403 47.162, 180.929 47.004, 157.890 47.044 C 138.720 47.077, 131.534 47.432, 128.558 48.492 M 208.315 59.062 C 205.134 60.264, 204 63.101, 204 69.853 C 204 76.185, 201.981 85.532, 199 93 C 197.108 97.740, 193.756 106.482, 189.989 116.500 C 188.748 119.800, 185.698 126.892, 183.211 132.260 C 179.292 140.717, 178.840 142.353, 179.823 144.510 C 181.409 147.992, 185.818 147.869, 189.183 144.250 C 190.590 142.738, 194.162 136.885, 197.120 131.244 L 202.500 120.989 208 119.415 C 219.599 116.096, 223.741 114.483, 235.176 108.832 C 241.667 105.625, 247.401 103, 247.918 103 C 249.732 103, 256 96.243, 256 94.287 C 256 91.906, 253.019 89, 250.576 89 C 249.604 89, 247.614 89.631, 246.154 90.401 C 244.694 91.172, 241.539 92.330, 239.143 92.974 C 236.746 93.618, 231.121 95.908, 226.643 98.064 C 222.164 100.219, 217.734 101.987, 216.797 101.991 C 215.860 101.996, 213.946 102.523, 212.543 103.162 C 211.140 103.802, 209.764 104.097, 209.486 103.819 C 209.208 103.541, 209.841 101.106, 210.892 98.407 C 217.673 80.998, 219.520 66.451, 215.511 62.015 C 212.679 58.882, 210.816 58.117, 208.315 59.062 M 128.714 79.928 C 127.315 81.591, 125.866 84.333, 125.496 86.020 C 124.343 91.269, 128.435 105.919, 132.664 111.683 C 133.949 113.434, 135 115.516, 135 116.311 C 135 120.088, 143.957 121.728, 149.144 118.899 C 150.440 118.193, 154.875 117.589, 159 117.557 C 163.125 117.526, 167.063 117.136, 167.750 116.691 C 169.480 115.571, 169.317 111.008, 167.475 108.972 C 166.081 107.432, 166.439 106.868, 171.604 102.455 C 178.742 96.357, 180.607 92.389, 178.597 87.578 C 177.811 85.696, 176.039 83.417, 174.661 82.514 C 168.990 78.798, 151.011 79.767, 140 84.383 C 138.962 84.818, 137.883 83.857, 136.500 81.268 C 133.949 76.491, 131.902 76.139, 128.714 79.928 M 151.500 95.483 C 147.650 96.821, 143.550 97.934, 142.389 97.958 C 140.409 97.997, 140.340 98.275, 141.289 102.418 C 142.234 106.551, 142.456 106.777, 144.715 105.918 C 146.043 105.413, 148.133 105, 149.359 105 C 151.431 105, 163 95.443, 163 93.732 C 163 92.363, 158.517 93.046, 151.500 95.483 M 242.524 108.385 C 239.585 111.324, 238.316 115.989, 237.461 127 C 236.803 135.476, 233.586 147.087, 226.935 165 C 225.199 169.675, 223.223 174.997, 222.542 176.826 L 221.306 180.152 218.283 175.326 C 216.621 172.672, 214.049 168.218, 212.569 165.429 C 209.994 160.577, 205.826 157, 202.749 157 C 200.666 157, 197.567 159.975, 195.531 163.928 C 193.834 167.221, 193.837 167.407, 195.604 168.700 C 196.615 169.439, 198.016 169.824, 198.718 169.555 C 199.473 169.265, 200.860 170.784, 202.122 173.283 C 203.293 175.602, 206.713 181.295, 209.722 185.933 L 215.194 194.367 210.922 203.933 C 202.623 222.515, 195.992 232.404, 191.111 233.476 C 185.413 234.727, 184.987 242.206, 190.535 243.598 C 199.515 245.852, 209.086 237.332, 218.403 218.793 L 224.286 207.087 227.421 211.293 C 229.145 213.607, 232.343 218.187, 234.528 221.472 C 240.515 230.472, 266.004 255.557, 276 262.287 C 280.675 265.434, 285.187 268.007, 286.027 268.004 C 288.999 267.996, 292 264.977, 292 261.997 C 292 259.604, 291.057 258.481, 286.522 255.471 C 279.599 250.876, 259.026 231.220, 251.791 222.289 C 246.881 216.228, 240.033 206.670, 233.119 196.228 C 230.739 192.634, 230.739 192.628, 232.522 187.566 C 233.503 184.780, 235.076 180.700, 236.018 178.500 C 244.157 159.481, 249.680 139.253, 251.954 120.127 C 252.915 112.047, 252.854 110.427, 251.511 108.377 C 249.489 105.291, 245.615 105.294, 242.524 108.385 M 134.338 130.311 C 128.749 132.065, 123.236 134.357, 122.088 135.405 C 119.431 137.829, 119.408 142.154, 122.038 144.535 C 124.175 146.469, 126.298 146.267, 137.250 143.088 C 139.313 142.490, 142.571 141.598, 144.492 141.107 L 147.984 140.214 145.751 143.357 C 144.523 145.086, 141.601 148.856, 139.259 151.736 C 134.750 157.279, 134.014 160.510, 136.399 164.285 C 137.757 166.435, 141.269 181.224, 142.425 189.663 C 142.739 191.952, 143.249 194.485, 143.558 195.290 C 143.954 196.322, 141.809 198.072, 136.310 201.203 C 132.015 203.649, 126.925 206.256, 125 206.996 C 117.421 209.908, 110.283 213.981, 105.750 217.980 C 101.813 221.453, 101 222.760, 101 225.616 C 101 230.035, 102.971 230.805, 107.477 228.146 C 109.398 227.013, 112.889 225.577, 115.235 224.955 C 120.143 223.655, 135.976 216.303, 141.840 212.601 C 145.211 210.473, 145.910 210.324, 146.410 211.626 C 146.734 212.472, 147 221.802, 147 232.359 C 147 253.175, 146.353 256, 141.584 256 C 139.087 256, 131.944 252.502, 122.559 246.683 C 119.291 244.658, 116.286 243, 115.880 243 C 114.205 243, 112 246.324, 112 248.849 C 112 252.144, 120.442 259.975, 129.511 265.093 C 134.759 268.055, 136.306 268.444, 142.822 268.444 C 150.128 268.444, 150.229 268.408, 153.893 264.472 C 161.080 256.753, 162.690 239.599, 158.886 211.279 L 157.648 202.058 164.427 195.846 C 171.208 189.632, 176 183.316, 176 180.591 C 176 178.614, 173.234 176, 171.141 176 C 170.197 176, 166.320 179.028, 162.527 182.730 L 155.629 189.460 154.320 182.980 C 153.600 179.416, 152.063 172.325, 150.905 167.222 L 148.800 157.943 155.844 150.527 C 160.865 145.241, 163.080 142.092, 163.554 139.562 C 165.860 127.270, 154.994 123.830, 134.338 130.311" stroke="none" fill="black" fill-rule="evenodd"/>
</svg>