<svg xmlns="http://www.w3.org/2000/svg" width="300" height="300" viewBox="0 0 300 300" version="1.1">
	<path d="M 108.295 28.202 C 104.933 32.441, 104.627 34.884, 103.942 63 C 103.513 80.557, 103.610 91.956, 104.194 92.688 C 105.360 94.149, 101.863 96.070, 93.846 98.375 C 86.613 100.454, 84.254 100.425, 83.642 98.250 C 82.017 92.478, 81.897 88.388, 83.037 77.527 C 84.210 66.336, 84.172 65.192, 82.539 62.700 C 80.536 59.643, 78.437 59.305, 75.261 61.529 C 72.200 63.674, 71.029 68.651, 70.327 82.510 C 69.230 104.163, 73.931 113, 86.545 113 C 89.100 113, 94.268 112.065, 98.030 110.922 C 105.455 108.667, 132.161 95.868, 138.294 91.625 C 140.381 90.181, 142.356 89, 142.682 89 C 143.009 89, 142.970 92.370, 142.597 96.490 C 141.785 105.453, 142.762 108, 147.012 108 C 152.153 108, 153.500 104.480, 153.500 91.047 C 153.500 84.696, 153.117 75, 152.649 69.500 C 151.939 61.164, 152.059 59.005, 153.372 56.525 C 154.704 54.008, 154.740 53.239, 153.608 51.525 C 151.387 48.161, 148.685 48.569, 144.169 52.952 C 140.642 56.374, 139.981 57.653, 139.876 61.249 C 139.682 67.903, 140.072 76.316, 140.670 78.375 C 141.032 79.624, 140.830 80.013, 140.066 79.541 C 139.435 79.151, 134.774 80.857, 129.709 83.333 C 121.605 87.295, 113.282 91, 112.484 91 C 112.335 91, 112.577 89.313, 113.022 87.250 C 114.692 79.517, 117 54.934, 116.998 44.903 C 116.997 37.002, 116.576 33.658, 115.248 31 C 113.400 27.300, 110.073 25.961, 108.295 28.202 M 195.482 49 C 192.337 50.191, 191.203 53.706, 190.555 64.287 C 190.225 69.669, 189.354 75.744, 188.621 77.787 C 187.887 79.829, 186.736 83.300, 186.064 85.500 C 185.392 87.700, 182.761 93.917, 180.217 99.315 C 174.905 110.587, 175.099 112.305, 181.736 112.802 C 185.314 113.070, 186.102 112.699, 188.723 109.519 C 191.519 106.128, 194.056 101.517, 197.091 94.312 C 197.829 92.558, 199.574 90.601, 200.967 89.962 C 205.099 88.068, 215.336 85.027, 217.624 85.013 C 218.793 85.006, 221.718 84.299, 224.124 83.441 C 229.219 81.626, 242.808 79.875, 245.776 80.652 C 247.720 81.160, 247.631 81.531, 243.913 88.424 C 241.765 92.406, 239.722 97.753, 239.372 100.306 C 238.772 104.681, 238.891 105.008, 241.433 105.975 C 243.128 106.619, 244.776 106.655, 245.866 106.072 C 248.370 104.732, 259.741 85.163, 260.524 80.847 C 260.982 78.322, 260.660 76.086, 259.482 73.603 C 258.072 70.631, 256.902 69.752, 252.707 68.506 C 244.762 66.146, 233.871 66.873, 222 70.554 C 217.151 72.058, 203.663 74.935, 203.245 74.555 C 203.105 74.428, 203.443 71.939, 203.995 69.025 C 205.505 61.063, 205.218 54.824, 203.228 52.367 C 200.814 49.388, 197.856 48.102, 195.482 49 M 137.108 110.370 C 135.476 112.336, 116.055 119, 111.957 119 C 111.019 119, 108.282 119.702, 105.876 120.561 C 103.469 121.420, 99.700 122.492, 97.500 122.943 C 86.238 125.254, 69.440 130.368, 68.279 131.839 C 65.145 135.806, 65 136.730, 67.095 139.393 C 69.686 142.688, 74.751 142.855, 84.582 139.969 C 99.752 135.517, 101.402 135.068, 101.661 135.327 C 101.934 135.600, 87.142 158.175, 84.784 161.084 C 79.571 167.517, 79.836 172.105, 85.481 173.152 C 87.771 173.577, 77.565 178.383, 72.353 179.335 C 69.422 179.869, 69.163 179.681, 68.583 176.592 C 67.289 169.694, 60.186 167.829, 57.869 173.778 C 56.561 177.137, 57.424 189.345, 60.066 204.849 C 61.130 211.092, 62.045 220.767, 62.100 226.349 C 62.155 231.932, 62.502 237.582, 62.872 238.905 C 64.389 244.327, 71.004 244.295, 72.900 238.857 C 74.767 233.502, 74.248 210.350, 72.003 198.785 C 70.905 193.128, 70.005 188.171, 70.003 187.769 C 70.001 187.367, 71.912 187.294, 74.250 187.607 C 77.056 187.982, 81.041 187.466, 85.980 186.088 C 90.094 184.939, 93.532 184, 93.620 184 C 93.709 184, 93.097 186.334, 92.261 189.186 C 91.063 193.272, 90.838 198.101, 91.202 211.948 C 91.733 232.204, 92.580 235.312, 97.701 235.809 C 103.211 236.344, 103.690 234.046, 104.121 205 L 104.500 179.500 111 176.292 C 114.575 174.527, 117.950 173.064, 118.500 173.040 C 119.600 172.993, 118.780 215.874, 117.563 222.010 C 117.180 223.942, 117.346 226.780, 117.932 228.321 C 118.869 230.786, 119.438 231.084, 122.688 230.810 C 126.170 230.518, 126.495 230.186, 128.400 225 C 130.151 220.232, 130.469 216.500, 130.789 196.966 L 131.159 174.431 128.493 171.765 L 125.827 169.099 129.663 167.485 C 139.220 163.465, 147.695 160.105, 149.859 159.479 L 152.218 158.796 151.569 182.148 C 150.989 203.027, 148.756 234.599, 147.419 240.839 C 147.143 242.125, 145.266 244.690, 143.248 246.539 C 139.952 249.558, 139.679 250.186, 140.558 252.700 C 142.540 258.373, 151.767 256.331, 156.505 249.172 C 160.528 243.093, 162.641 230.225, 164.006 203.500 C 166.445 155.759, 165.981 150.684, 158.855 147.158 C 152.296 143.913, 145.041 146.098, 114.820 160.424 C 108.396 163.469, 101.196 166.720, 98.820 167.649 C 96.444 168.578, 93.612 169.937, 92.527 170.669 C 89.683 172.588, 88.711 172.305, 90.750 170.152 C 91.712 169.136, 94.161 166.098, 96.192 163.402 C 110.939 143.823, 115.665 137.010, 117.076 133.301 C 117.557 132.036, 118.515 131, 119.206 131 C 120.608 131, 128.800 127.875, 136.696 124.327 C 144.813 120.680, 147.318 115.238, 142.811 111.039 C 140.253 108.655, 138.684 108.471, 137.108 110.370 M 202.369 111.560 C 200.787 113.975, 200.814 114.696, 202.856 124.310 C 206.062 139.408, 205.904 160.844, 202.469 176.767 C 199.632 189.915, 198.982 192.149, 194.694 203.500 C 191.491 211.977, 187.631 219.919, 183.514 226.500 C 182.138 228.700, 180.510 231.463, 179.896 232.640 C 179.282 233.817, 177.704 235.269, 176.390 235.868 C 174.692 236.642, 174 237.774, 174 239.779 C 174 243.533, 175.664 245, 179.923 245 C 185.371 245, 192.995 236.303, 200.179 221.892 C 203.303 215.626, 206.453 209.049, 207.179 207.275 L 208.500 204.050 213.768 210.473 C 219.152 217.039, 235.506 231.370, 240.644 234.024 C 242.215 234.836, 245.075 236.550, 247 237.834 C 252.385 241.424, 266.319 247.855, 273.559 250.091 C 281.199 252.451, 289.754 252.361, 291.294 249.905 C 293.025 247.145, 291.323 243.362, 287.763 242.054 C 285.968 241.395, 282.025 239.957, 279 238.860 C 262.352 232.819, 240.770 219.239, 227.574 206.500 C 223.010 202.094, 216.022 196.112, 214.342 195.171 C 212.127 193.932, 212.302 190.630, 215.164 179.626 C 216.988 172.609, 217.272 168.703, 217.245 151 C 217.202 123.474, 215.512 115.788, 208.503 111.250 C 204.209 108.470, 204.400 108.460, 202.369 111.560" stroke="none" fill="black" fill-rule="evenodd"/>
</svg>