<svg xmlns="http://www.w3.org/2000/svg" width="300" height="300" viewBox="0 0 300 300" version="1.1">
	<path d="M 114.770 30.381 C 108.634 33.434, 103.931 36.323, 92.460 44.088 C 90.238 45.592, 84.408 48.676, 79.506 50.941 C 70.789 54.968, 67 57.457, 67 59.155 C 67 59.620, 67.900 60.900, 69 62 C 71.653 64.653, 75.818 64.548, 85.749 61.575 C 94.393 58.988, 97.034 57.813, 101 54.789 C 107.273 50.006, 116.444 44.935, 123.163 42.534 C 133.554 38.820, 135.277 35.859, 130.411 30.077 C 126.991 26.013, 123.413 26.082, 114.770 30.381 M 173.818 57.750 C 171.328 60.428, 171.231 61.062, 170.120 82 C 167.590 129.672, 167.749 133.993, 172.163 137.279 C 175.356 139.655, 179.385 139.018, 181.069 135.870 C 181.740 134.617, 182.154 129.058, 182.090 122.132 C 181.997 111.884, 184.400 74.256, 185.198 73.475 C 185.364 73.312, 187.300 73.807, 189.500 74.574 C 191.835 75.389, 197.508 75.976, 203.128 75.985 C 214.352 76.002, 215.559 76.731, 214.523 82.863 C 214.158 85.025, 214.396 89.653, 215.053 93.147 C 218.590 111.965, 234.048 120.546, 249.969 112.530 C 253.314 110.846, 254.918 110.517, 256.095 111.272 C 258.426 112.766, 262.957 111.287, 263.916 108.720 C 264.836 106.256, 263.715 102.447, 261.275 99.752 C 259.103 97.352, 251.852 97.470, 244.420 100.028 C 237.473 102.418, 234.302 101.968, 230.560 98.063 C 227.185 94.540, 226.055 89.854, 226.024 79.266 C 226.002 71.613, 225.796 70.803, 223.106 67.793 L 220.213 64.555 203.926 63.878 C 194.969 63.506, 187.046 63.429, 186.320 63.708 C 185.502 64.021, 185 63.464, 185 62.242 C 185 59.326, 181.186 55, 178.615 55 C 177.382 55, 175.224 56.237, 173.818 57.750 M 112.633 62.634 C 103.607 64.320, 96.943 66.583, 89 70.657 C 85.425 72.490, 81.739 73.992, 80.809 73.995 C 79.879 73.998, 78.840 74.450, 78.500 75 C 77.216 77.078, 76 75.873, 76 72.523 C 76 69.896, 75.374 68.636, 73.440 67.369 C 67.120 63.228, 66.553 67.828, 64.982 136 C 63.883 183.630, 63.633 187.384, 59.949 211.500 C 57.279 228.985, 56.069 234, 54.525 234 C 52.700 234, 50 237.385, 50 239.674 C 50 242.723, 53.189 245, 57.461 245 C 63.496 245, 67.096 240.430, 69.766 229.380 C 72.468 218.195, 76 196.297, 76 190.728 L 76 186.500 83.750 186.500 C 90.153 186.500, 92.369 186.047, 96.500 183.896 C 104.631 179.660, 108.452 177.389, 117.207 171.585 L 125.500 166.087 126.806 170.294 C 127.638 172.973, 128.318 183.031, 128.678 198 C 129.257 222.107, 128.144 234.761, 124.698 243.204 L 123.401 246.384 121.118 242.690 C 118.215 237.993, 114.718 236.976, 111.586 239.919 C 109.627 241.760, 109.391 242.669, 110.003 246.014 C 111.280 253, 119.195 260.987, 124.849 260.996 C 128.786 261.003, 133.849 257.980, 136.157 254.246 C 139.989 248.046, 142.046 235.327, 142.666 214 C 143.549 183.621, 140.890 160.705, 135.862 155.353 C 132.614 151.896, 127.940 150.670, 123.039 151.990 C 120.789 152.595, 114.013 156.411, 107.981 160.469 C 94.124 169.791, 91.852 170.940, 89.818 169.657 C 88.664 168.929, 86.879 169.376, 83.140 171.332 C 80.333 172.799, 77.899 174, 77.730 174 C 77.561 174, 77.750 170.738, 78.149 166.750 C 78.549 162.762, 78.904 156.447, 78.938 152.715 C 78.999 146.072, 79.045 145.954, 81.168 147.090 C 83.586 148.384, 93.834 147.684, 96.737 146.027 C 97.707 145.473, 101.999 143.666, 106.276 142.010 C 112.198 139.718, 115.678 139, 120.871 139 C 126.336 139, 128.037 138.617, 129.435 137.072 C 134.165 131.845, 125.375 126.414, 113.583 127.277 C 106.861 127.769, 83.598 134.182, 81.550 136.107 C 81.027 136.598, 80.306 137, 79.947 137 C 79.589 137, 79.014 128.563, 78.670 118.250 C 78.326 107.938, 77.754 96.757, 77.398 93.405 L 76.750 87.310 79.914 87.774 C 82.823 88.201, 89.909 85.779, 98 81.592 C 102.803 79.107, 113.800 75.709, 115.246 76.264 C 116.823 76.869, 118 83.212, 118 91.101 L 118 95.923 113.750 97.021 C 111.412 97.625, 108.600 98.359, 107.500 98.653 C 100.598 100.496, 88.508 105.765, 86.443 107.830 C 83.048 111.225, 83.102 116.365, 86.555 118.628 C 88.985 120.220, 89.463 120.179, 96.305 117.796 C 100.262 116.417, 106.537 114.119, 110.250 112.690 C 117.619 109.851, 118.327 110.312, 114.996 115.774 C 111.508 121.495, 112.651 125, 118.005 125 C 122.139 125, 131 113.724, 131 108.462 C 131 107.579, 131.715 106.142, 132.590 105.267 C 133.713 104.144, 133.985 102.771, 133.518 100.589 C 133.154 98.890, 132.424 93, 131.896 87.500 C 130.530 73.276, 129.356 68.987, 125.832 65.338 C 121.924 61.291, 120.919 61.085, 112.633 62.634 M 221 140.844 C 216.728 142.898, 212.175 145.778, 209.500 148.120 C 208.400 149.083, 202.721 151.419, 196.880 153.311 C 191.039 155.203, 184.603 157.877, 182.576 159.254 C 175.201 164.266, 171.524 172.656, 175.750 174.830 C 176.713 175.325, 177.950 175.583, 178.500 175.404 C 179.492 175.082, 181.145 177.485, 188.537 190 C 190.649 193.575, 194.092 198.606, 196.188 201.179 C 198.285 203.753, 200 206.948, 200 208.280 C 200 212.607, 183.529 234, 180.198 234 C 177.426 234, 172.187 237.179, 171.664 239.177 C 171.315 240.511, 171.959 242.050, 173.519 243.610 C 178.749 248.840, 188.309 245.714, 197.633 235.728 C 202.436 230.583, 208.604 223.258, 209.901 221.160 C 210.283 220.543, 216.263 225.691, 224.031 233.326 C 242.609 251.582, 259.988 264.342, 269.863 266.975 C 274.301 268.158, 280.817 267.617, 284.500 265.759 C 291.130 262.415, 293.093 256.418, 288.536 253.432 C 286.279 251.953, 285.805 251.951, 282.883 253.409 C 277.490 256.099, 274.376 255.431, 266.121 249.816 C 259.719 245.462, 245.336 234.248, 241.396 230.539 C 240.788 229.968, 237.700 227.064, 234.532 224.086 C 231.364 221.108, 226.362 215.830, 223.415 212.357 L 218.058 206.042 221.648 197.771 C 223.622 193.222, 225.649 187.754, 226.153 185.620 C 226.656 183.487, 227.553 180.835, 228.146 179.727 C 230.358 175.594, 238 151.964, 238 149.257 C 238 146.397, 235.840 142.484, 233.046 140.282 C 230.886 138.580, 225.154 138.848, 221 140.844 M 219 156.967 C 215.773 159.448, 209.757 162.115, 198.238 166.169 C 193.144 167.962, 189.094 169.732, 189.238 170.102 C 189.382 170.472, 191.750 173.221, 194.500 176.210 C 197.250 179.199, 200.625 183.149, 202 184.988 C 208.137 193.196, 207.575 192.934, 209.513 188.476 C 210.464 186.289, 213.689 178.425, 216.680 171 C 219.672 163.575, 222.366 156.938, 222.667 156.250 C 223.458 154.443, 221.881 154.752, 219 156.967" stroke="none" fill="black" fill-rule="evenodd"/>
</svg>