<svg xmlns="http://www.w3.org/2000/svg" width="300" height="300" viewBox="0 0 300 300" version="1.1">
	<path d="M 182.348 8.004 C 179.931 8.969, 179.266 9.819, 170.899 22.634 C 167.619 27.658, 162.025 34.795, 158.468 38.496 C 154.911 42.196, 152 45.586, 152 46.030 C 152 53.718, 162.728 49.910, 172.268 38.837 L 176.775 33.606 180.963 34.988 L 185.150 36.370 180.015 40.935 C 176.314 44.226, 174.824 46.308, 174.677 48.393 C 174.506 50.829, 173.843 51.483, 170.487 52.525 C 160.319 55.681, 157.168 58.044, 159.061 61.091 C 160.198 62.921, 180.905 62.922, 189.329 61.092 C 192.535 60.395, 195.338 60.005, 195.558 60.225 C 195.778 60.445, 194.116 61.722, 191.864 63.062 C 189.612 64.403, 186.922 66.288, 185.885 67.250 C 184.556 68.484, 182.304 69.011, 178.250 69.036 C 173.081 69.068, 164.028 70.741, 159.964 72.417 C 158.802 72.895, 158.146 71.994, 157.269 68.715 C 156.612 66.260, 154.385 62.455, 152.132 59.940 C 148.210 55.562, 148.115 55.521, 145.334 57.034 C 140.317 59.764, 140.953 64.824, 147.161 71.559 C 151.351 76.105, 154.369 77.081, 157.023 74.750 C 157.806 74.063, 157.671 74.435, 156.723 75.579 C 154.195 78.629, 154.526 82.643, 157.466 84.570 C 159.764 86.075, 160.362 86.043, 166.216 84.097 C 169.672 82.949, 176.100 81.557, 180.500 81.004 C 188.198 80.037, 190.904 78.640, 191.050 75.559 C 191.078 74.976, 193.665 73.280, 196.800 71.789 C 208.316 66.312, 214.042 59.288, 211.930 53.229 C 210.269 48.465, 207.466 47.613, 196.043 48.400 C 190.519 48.780, 186 48.921, 186 48.712 C 186 48.503, 188.501 46.610, 191.558 44.505 C 194.615 42.399, 197.776 39.399, 198.584 37.838 C 199.882 35.328, 199.873 34.655, 198.509 32.017 C 196.564 28.257, 192.266 26, 187.050 26 C 184.822 26, 183 25.748, 183 25.440 C 183 25.132, 184.575 22.817, 186.500 20.296 C 189.835 15.928, 190.858 11.849, 189.235 9.385 C 188.131 7.710, 184.773 7.036, 182.348 8.004 M 96.189 47.272 C 93.943 49.978, 90.676 64.067, 89.440 76.377 C 88.729 83.459, 87.776 89.575, 87.323 89.968 C 86.870 90.361, 83.125 91.675, 79 92.888 C 69.378 95.718, 66.728 97.219, 65.520 100.526 C 64.685 102.814, 64.900 103.501, 66.982 105.186 C 69.703 107.390, 75.098 107.110, 81.506 104.433 C 87.908 101.758, 88.002 101.885, 87.985 113.250 C 87.972 122.152, 87.805 123.172, 86.710 121.009 C 84.701 117.038, 82.202 117.272, 80.393 121.601 C 78.902 125.170, 73.964 146.198, 71.845 158 C 70.201 167.159, 63.501 192.736, 61.891 196 C 61.484 196.825, 60.483 199.300, 59.667 201.500 C 56.641 209.663, 50.944 220.633, 47.510 224.910 C 44.305 228.902, 44.100 229.519, 45.348 231.410 C 53.740 244.128, 73.835 208.067, 82.371 164.972 C 83.185 160.862, 84.612 153.113, 85.543 147.750 C 86.474 142.387, 87.434 138, 87.677 138 C 87.919 138, 87.978 167.767, 87.809 204.149 L 87.500 270.297 89.798 271.323 C 91.656 272.152, 92.491 271.953, 94.163 270.282 C 97.298 267.146, 97.909 261.615, 97.956 235.912 C 97.980 222.939, 98.298 200.084, 98.662 185.123 L 99.323 157.921 102.534 161.033 C 105.077 163.498, 106.448 164.079, 109.123 163.823 C 112.194 163.529, 112.524 163.183, 112.763 160 C 112.966 157.299, 112.338 155.727, 110.013 153.114 C 108.356 151.252, 107 149.429, 107 149.062 C 107 148.695, 105.191 146.567, 102.980 144.334 L 98.959 140.274 99.230 118.995 C 99.485 98.901, 99.611 97.655, 101.500 96.608 C 102.600 95.999, 105.638 93.999, 108.250 92.165 C 112.286 89.331, 113 88.333, 113 85.523 C 113 81.151, 109.549 80.085, 104.789 82.987 C 102.980 84.090, 101.125 84.994, 100.666 84.996 C 99.682 85.001, 100.715 65.066, 102.133 56.665 C 102.947 51.849, 102.843 50.409, 101.536 48.415 C 99.789 45.748, 97.806 45.325, 96.189 47.272 M 187.048 83.829 C 179.525 91.737, 178.723 107.492, 185.327 117.630 C 191.185 126.622, 201.446 129.104, 218.238 125.590 C 221.943 124.815, 225.839 124.407, 226.895 124.683 C 229.848 125.455, 233.331 121.456, 232.520 118.225 C 231.161 112.810, 228.262 112.216, 212.599 114.141 C 197.874 115.951, 194.859 114.743, 192.949 106.274 C 192.291 103.358, 192.447 103, 194.369 103 C 199.020 103, 207.542 98.990, 211.250 95.056 C 215.389 90.665, 216.022 87.235, 213.171 84.655 C 210.716 82.433, 208.749 82.571, 207.186 85.074 C 205.787 87.315, 200.281 90, 197.087 90 C 195.438 90, 195.059 89.212, 194.805 85.259 C 194.396 78.896, 192.137 78.479, 187.048 83.829 M 145.571 87.338 C 143.992 88.917, 142.995 91.436, 142.504 95.088 C 141.912 99.485, 141.128 101.100, 138.321 103.697 C 135.500 106.306, 134.924 107.500, 135.183 110.197 C 135.445 112.929, 136.048 113.661, 138.671 114.435 C 141.036 115.132, 142.222 116.337, 143.338 119.178 C 146.063 126.116, 152.983 126.470, 163.647 120.217 C 168.709 117.249, 170.219 114.174, 167.954 111.445 C 166.617 109.834, 162.759 109.545, 160.184 110.862 C 159.258 111.336, 157.262 112.019, 155.750 112.381 C 153.450 112.931, 153 112.712, 153 111.045 C 153 109.849, 154.180 108.441, 155.948 107.527 C 161.866 104.466, 167.901 99.888, 168.498 98.005 C 169.218 95.739, 167.698 92.482, 165.533 91.651 C 164.695 91.330, 161.946 91.952, 159.422 93.033 C 153.021 95.777, 152.006 95.603, 151.968 91.750 C 151.938 88.681, 150.098 85, 148.594 85 C 148.217 85, 146.857 86.052, 145.571 87.338 M 165.174 128.314 C 163.978 129.587, 163 130.972, 163 131.391 C 163 131.810, 158.171 137.298, 152.268 143.586 C 141.023 155.567, 139.207 158.340, 141.107 160.629 C 143.465 163.470, 146.884 162.042, 155.547 154.601 C 163.905 147.421, 164.239 147.243, 166.830 148.595 C 168.298 149.361, 170.141 149.990, 170.924 149.994 C 171.943 149.998, 171.729 150.660, 170.174 152.314 C 167.467 155.197, 167.208 160.664, 169.750 161.272 C 171.923 161.792, 170.824 162.231, 163 163.972 C 149.513 166.972, 138.033 171.650, 138.007 174.156 C 138.003 174.517, 137.033 174.560, 135.850 174.251 C 131.019 172.987, 129.265 182.679, 133 190 C 134.100 192.156, 135 194.603, 135 195.437 C 135 196.271, 136.127 197.692, 137.505 198.595 C 139.610 199.975, 140.266 200.024, 141.617 198.903 C 142.501 198.170, 143.550 196.686, 143.950 195.607 C 144.642 193.736, 143.858 187.346, 142.509 183.866 C 141.999 182.551, 143.201 181.842, 148.688 180.226 C 161.507 176.451, 160.641 176.334, 162.004 182.017 C 162.665 184.771, 162.966 187.646, 162.674 188.407 C 162.382 189.168, 158.848 191.462, 154.821 193.505 C 145.465 198.250, 144.837 198.799, 145.199 201.914 C 145.485 204.374, 145.826 204.514, 152.217 204.795 C 157.294 205.018, 159.583 204.664, 161.595 203.346 L 164.258 201.601 162.731 204.553 C 161.892 206.176, 160.294 208.329, 159.181 209.336 C 155.712 212.475, 143 247.235, 143 253.580 C 143 255.241, 143.540 257.140, 144.200 257.800 C 145.943 259.543, 149.448 259.270, 151.259 257.250 C 152.769 255.566, 157.529 244.331, 163.864 227.500 L 166.875 219.500 166.937 224.614 C 167.095 237.457, 171.087 247.833, 178.680 255.134 C 187.443 263.561, 192.116 264.912, 212.500 264.912 C 232.742 264.913, 247.389 263.630, 250.514 261.583 C 254.023 259.283, 254.041 252.416, 250.548 248.646 C 249.199 247.191, 247.512 246.014, 246.798 246.032 C 245.100 246.073, 242 248.448, 242 249.707 C 242 250.802, 223.696 252, 206.965 252 C 194.261 252, 190.710 250.815, 185.632 244.883 C 179.190 237.358, 178.315 231.512, 180.599 211.293 C 181.165 206.283, 181.086 206.060, 178.520 205.416 C 177.053 205.047, 174.796 205.228, 173.504 205.816 C 171.495 206.732, 170.927 206.538, 169.578 204.478 C 168.710 203.154, 168 201.869, 168 201.623 C 168 201.377, 169.912 200.854, 172.250 200.461 C 178.148 199.469, 186.631 195.564, 188.141 193.146 C 189.069 191.660, 190.101 191.270, 192.068 191.664 C 194.199 192.090, 195.493 191.440, 198.495 188.438 C 200.563 186.370, 203.153 182.614, 204.251 180.089 C 205.348 177.565, 207.091 173.612, 208.123 171.305 C 210.410 166.194, 210.483 163.666, 208.434 160.540 C 206.214 157.152, 201.829 155.866, 196.176 156.946 C 193.604 157.437, 188.575 158.372, 185 159.023 C 181.425 159.674, 177.600 160.431, 176.500 160.705 C 175.400 160.979, 176.525 159.710, 179 157.885 C 187.161 151.867, 189.129 148.478, 186.891 144.296 C 185.132 141.010, 181.007 139, 176.024 139 L 171.949 139 173.474 136.050 C 175.490 132.152, 175.400 129.672, 173.171 127.655 C 170.626 125.352, 167.734 125.590, 165.174 128.314 M 190 170.637 C 186.452 171.155, 176.827 173.050, 174.750 173.639 C 173.297 174.051, 173 175.324, 173 181.147 L 173 188.159 176.250 187.517 C 178.037 187.164, 180.729 186.402, 182.232 185.824 C 183.735 185.245, 185.631 185.028, 186.446 185.341 C 188.598 186.167, 193.052 179.152, 194.441 172.750 C 195.062 169.891, 195.073 169.897, 190 170.637 M 203.525 203.972 C 200.889 206.886, 201.773 211.983, 206.307 220 C 209.316 225.319, 211.519 227.988, 213.884 229.177 C 220.637 232.574, 224.235 227.381, 220.192 220.071 C 219.106 218.107, 217.902 215.011, 217.516 213.191 C 216.675 209.219, 211.209 203.464, 207.628 202.780 C 205.977 202.464, 204.502 202.893, 203.525 203.972" stroke="none" fill="black" fill-rule="evenodd"/>
</svg>