<svg xmlns="http://www.w3.org/2000/svg" width="300" height="300" viewBox="0 0 300 300" version="1.1">
	<path d="M 187.250 25.944 C 186.012 26.976, 185 28.163, 185 28.582 C 185 29, 184.383 30.053, 183.628 30.921 C 181.364 33.528, 178.954 42.287, 177.654 52.637 L 176.428 62.396 168.964 65.286 C 145.378 74.417, 142.826 75.828, 141.062 80.705 C 139.016 86.363, 141.766 90.905, 147.275 90.968 C 148.801 90.986, 153.076 89.479, 156.775 87.619 C 163.815 84.080, 172.990 80.657, 173.655 81.322 C 174.218 81.885, 167.331 115.770, 165.699 120.468 C 164.941 122.651, 163.191 125.126, 161.809 125.968 C 149.674 133.370, 146.108 138.402, 148.093 145.324 C 149.832 151.386, 153.280 151.462, 161.064 145.611 C 177.432 133.307, 214.820 111.487, 216.557 113.224 C 217.375 114.041, 213.498 123.131, 205.603 138.910 C 199.292 151.521, 193.524 164.450, 187.531 179.416 L 185.963 183.332 176.232 173.919 C 170.879 168.742, 165.375 163.431, 164 162.117 C 156.586 155.032, 145.229 147.997, 141.220 148.007 C 137.834 148.015, 133.256 150.952, 131.573 154.196 C 129.875 157.469, 129.048 165.334, 130.187 167.370 C 131.649 169.981, 135.721 169.372, 137.674 166.250 C 138.621 164.738, 139.523 163.321, 139.679 163.101 C 140.504 161.946, 150.181 170.113, 163.745 183.409 L 178.990 198.353 175.399 204.926 C 169.553 215.629, 159.767 227.472, 153.213 231.777 C 151.117 233.153, 150.735 233.100, 148.648 231.139 C 147.396 229.963, 145.456 229, 144.339 229 C 141.659 229, 137.999 232.246, 138.004 234.617 C 138.014 239.720, 145.697 246.988, 151.090 246.996 C 159.572 247.009, 177.740 232.206, 186.165 218.419 C 189.247 213.375, 191.718 210.318, 192.388 210.720 C 193 211.087, 197.564 214.645, 202.532 218.627 C 216.813 230.075, 262.898 262.732, 269.410 266.018 C 277.154 269.925, 283.967 270.124, 287.545 266.545 C 290.169 263.922, 290.639 261.062, 288.961 257.928 C 288.152 256.416, 286.960 256.023, 283.569 256.151 C 278.994 256.325, 273.036 253.506, 268 248.786 C 266.625 247.498, 263.925 245.345, 262 244.003 C 254.242 238.596, 211.066 206.231, 204.909 201.208 L 198.318 195.832 205.055 179.666 C 208.760 170.775, 215.025 156.750, 218.976 148.500 C 229.150 127.257, 230.700 123.328, 233.032 112.858 C 235.340 102.497, 235.012 97.463, 231.804 94.021 C 230.262 92.365, 228.963 91.931, 226.623 92.291 C 221.812 93.031, 198.276 103.152, 190.175 107.965 C 186.193 110.331, 182.747 112.080, 182.518 111.851 C 182.290 111.623, 183.171 107.175, 184.478 101.968 C 185.785 96.761, 187.613 88.613, 188.542 83.862 L 190.229 75.223 197.365 73.105 C 201.289 71.940, 209.206 70.075, 214.958 68.960 C 220.710 67.845, 226.223 66.203, 227.208 65.312 C 229.947 62.833, 229.558 57.637, 226.511 56.006 C 223.309 54.292, 211.915 54.449, 201.500 56.350 C 197.100 57.153, 193.454 57.741, 193.397 57.655 C 193.118 57.233, 194.971 34.027, 195.533 30.912 C 196.631 24.832, 191.948 22.024, 187.250 25.944 M 76.910 32.609 C 75.415 34.410, 75.435 41.184, 76.951 46.825 C 81.037 62.021, 85.424 131.158, 84.812 170.714 C 84.538 188.497, 84.700 191.128, 86.163 192.591 C 88.665 195.093, 94.336 193.752, 95.916 190.285 C 97.674 186.426, 98.965 168.328, 98.984 147.267 L 99 129.034 104.250 126.407 C 107.138 124.962, 111.750 122.142, 114.500 120.140 C 117.250 118.138, 122.116 114.738, 125.314 112.584 C 136.820 104.835, 141.237 96.381, 135.777 92.557 C 132.628 90.350, 130.062 90.623, 127.616 93.424 C 125.913 95.374, 108.888 106, 107.466 106 C 107.258 106, 105.431 107.125, 103.405 108.500 C 101.379 109.875, 99.400 111, 99.008 111 C 98.615 111, 97.984 106.194, 97.604 100.319 C 96.942 90.074, 92.547 52.410, 91.392 47.071 C 90.342 42.221, 86.603 33.500, 85.052 32.282 C 82.839 30.545, 78.477 30.720, 76.910 32.609 M 56.241 119.986 C 54.457 122.843, 54.705 125.057, 57.094 127.600 C 58.814 129.431, 59.358 131.856, 60.138 141.165 C 61.706 159.890, 59.722 176.072, 53.417 195.985 C 51.450 202.198, 50.062 208.128, 50.333 209.165 C 50.698 210.562, 49.881 211.537, 47.163 212.942 C 42.413 215.397, 35.488 222.570, 33.668 226.920 C 32.698 229.239, 32.508 231.283, 33.077 233.267 C 35.138 240.455, 38.432 240.727, 44.815 234.235 C 51.933 226.994, 71.688 217.326, 90 212.120 C 118.387 204.050, 146 187.298, 146 178.146 C 146 174.791, 143.449 170.999, 141.193 171.002 C 140.262 171.003, 135.974 173.645, 131.664 176.874 C 119.230 186.190, 111.239 189.807, 89.444 195.982 C 81.274 198.297, 72.431 201.042, 69.794 202.081 C 67.157 203.120, 65 203.544, 65 203.022 C 65 202.501, 65.928 199.719, 67.063 196.841 C 69.991 189.412, 74.831 169.024, 76.058 158.944 C 76.785 152.978, 76.781 148.391, 76.046 143.787 C 74.678 135.222, 69.750 123.110, 66.469 120.250 C 63.172 117.375, 57.955 117.241, 56.241 119.986" stroke="none" fill="black" fill-rule="evenodd"/>
</svg>