<svg xmlns="http://www.w3.org/2000/svg" width="300" height="300" viewBox="0 0 300 300" version="1.1">
	<path d="M 104.213 10.694 C 101.210 12.148, 101 12.588, 101 17.425 C 101 20.271, 101.458 23.058, 102.017 23.617 C 103.763 25.363, 104.339 40.263, 103.060 50.628 C 99.819 76.898, 92.718 98.772, 84.465 107.907 C 80.067 112.775, 79.648 118.068, 83.462 120.567 C 89.201 124.327, 95.925 118.665, 104.327 103 C 110.354 91.761, 113.875 79.286, 115.053 65 C 116.614 46.050, 116.108 47.247, 122.779 46.741 C 125.926 46.503, 133 45.109, 138.500 43.644 C 147.949 41.128, 157.810 38.958, 166.257 37.538 C 171.935 36.584, 172.297 38.455, 170.899 61.505 C 169.523 84.179, 170.048 90.108, 173.982 96.310 C 180.829 107.108, 192.159 109.017, 211.228 102.587 C 219.487 99.802, 222.856 99.113, 225.868 99.595 C 229.039 100.102, 230.179 99.821, 231.890 98.110 C 234.705 95.295, 234.550 92.641, 231.387 89.478 C 226.031 84.122, 222.576 83.907, 208 88.023 C 202.225 89.653, 195.685 90.990, 193.466 90.994 C 190.008 90.999, 189.168 90.555, 187.592 87.887 C 185.894 85.012, 185.808 83.108, 186.474 63.106 C 187.260 39.486, 186.716 35.012, 182.356 29.249 C 178.930 24.720, 175.060 23, 168.300 23.001 C 162.608 23.001, 145.924 26.967, 141 29.489 C 139.625 30.193, 134.934 31.503, 130.575 32.399 C 126.216 33.295, 121.379 34.662, 119.825 35.437 L 117 36.847 117 32.473 C 117 27.730, 115.459 19.035, 113.894 14.941 C 113.356 13.533, 111.680 11.651, 110.170 10.760 C 107.673 9.284, 107.135 9.278, 104.213 10.694 M 168 134.374 C 130.679 148.943, 114.088 153.924, 108.902 152.116 C 104.824 150.694, 101.600 153.466, 101.600 158.393 C 101.600 166.691, 109.012 168.746, 124.045 164.616 C 129.245 163.187, 135.525 161.510, 138 160.889 C 143.012 159.633, 153.066 156.009, 166.250 150.709 C 171.063 148.774, 175 147.395, 175 147.645 C 175 148.789, 163.895 169.065, 160.680 173.791 C 158.700 176.700, 155.866 181.313, 154.381 184.041 C 152.897 186.768, 151.304 189, 150.841 189 C 150.378 189, 150 189.405, 150 189.900 C 150 190.826, 144.576 199.180, 141.135 203.556 L 139.193 206.025 127.846 193.969 C 121.606 187.338, 115.600 180.444, 114.500 178.649 C 109.877 171.102, 105.083 167.022, 100.821 167.006 C 98.380 166.997, 95.769 169.971, 96.542 171.879 C 96.904 172.771, 97.980 176.263, 98.935 179.640 C 100.791 186.207, 105.314 192.049, 121.771 209.138 C 126.022 213.551, 129.650 217.577, 129.834 218.083 C 130.379 219.585, 121.029 231.798, 113.477 239.450 C 110.689 242.275, 103.679 248.186, 100.965 250 C 99.731 250.825, 97.482 252.512, 95.967 253.750 C 92.754 256.373, 91.234 256.522, 87.489 254.579 C 83.967 252.751, 80.797 253.886, 79.533 257.428 C 77.305 263.669, 84.768 269.444, 94.072 268.680 C 100.998 268.111, 105.722 265.737, 115.359 257.985 C 125.337 249.958, 130.511 244.851, 136.883 236.743 L 142.157 230.032 147.987 233.991 C 151.193 236.169, 153.970 238.329, 154.158 238.791 C 154.724 240.186, 166.943 249.392, 176 255.249 C 187.268 262.535, 209.835 274.270, 218.531 277.366 C 228.144 280.788, 238.188 281.762, 241.498 279.593 C 244.463 277.650, 244.807 273.805, 242.244 271.250 C 241.279 270.288, 237.791 268.670, 234.494 267.657 C 225.167 264.788, 210.561 257.932, 196.940 250.027 C 183.752 242.373, 162.901 227.919, 160.146 224.521 C 159.241 223.404, 157.238 221.678, 155.696 220.687 C 151.735 218.139, 151.424 216.447, 154.234 212.740 C 159.080 206.347, 176.285 178.444, 182.385 167.084 C 196.293 141.183, 197.383 137.229, 192.077 131.923 C 187.892 127.738, 183.976 128.137, 168 134.374" stroke="none" fill="black" fill-rule="evenodd"/>
</svg>