<svg xmlns="http://www.w3.org/2000/svg" width="300" height="300" viewBox="0 0 300 300" version="1.1">
	<path d="M 202.500 28.757 C 201.400 28.955, 199.600 30.328, 198.500 31.809 C 196.660 34.284, 196.500 36.064, 196.500 54 C 196.500 83.642, 197.726 111.965, 199.079 113.596 C 201.491 116.502, 208.981 113.937, 209.015 110.193 C 209.026 109.047, 209.274 108.883, 209.786 109.687 C 211.025 111.637, 216.132 113.124, 219.424 112.494 C 221.116 112.170, 224.525 111.052, 227 110.008 C 229.475 108.965, 234.176 107.818, 237.447 107.459 C 242.334 106.923, 243.963 106.237, 246.593 103.607 C 248.354 101.846, 250.304 98.627, 250.927 96.453 C 252.551 90.786, 253.320 63.541, 252.246 49.727 C 251.389 38.717, 251.144 37.760, 248.457 34.955 C 243.624 29.911, 239.734 29.368, 230.984 32.517 C 217.861 37.240, 211.838 39.018, 210.907 38.442 C 210.408 38.134, 210 36.345, 210 34.467 C 210 31.729, 209.454 30.788, 207.250 29.724 C 205.738 28.994, 203.600 28.559, 202.500 28.757 M 133.550 32.250 C 131.315 34.213, 130.863 35.712, 130.006 44 C 128.671 56.896, 126.713 112.658, 127.456 116.616 C 128.141 120.271, 131.269 121.608, 135.431 120.026 C 137.873 119.098, 138 119.215, 138 122.402 C 138 130.450, 146.196 130.454, 163.777 122.414 C 166.680 121.086, 169.423 120, 169.872 120 C 171.795 120, 174.225 115.960, 173.762 113.535 C 173.456 111.936, 173.730 111, 174.504 111 C 177.026 111, 180.687 106.993, 181.978 102.818 C 183.629 97.481, 183.525 49.562, 181.844 40.773 C 180.940 36.046, 180.142 34.583, 177.277 32.398 C 174.089 29.966, 173.220 29.788, 166.653 30.217 C 159.301 30.697, 153.674 32.849, 147.317 37.614 C 145.566 38.926, 143.935 40, 143.692 40 C 143.449 40, 143.001 38.756, 142.697 37.236 C 142.091 34.205, 138.890 30, 137.188 30 C 136.596 30, 134.959 31.012, 133.550 32.250 M 164.680 44.202 C 162.579 44.640, 158.862 46.168, 156.421 47.599 C 153.028 49.588, 150.947 50.118, 147.582 49.850 C 143.242 49.505, 143.172 49.549, 142.601 53 C 142.283 54.925, 142.001 60.100, 141.976 64.500 C 141.910 76.106, 139.320 115.635, 138.524 117.183 C 138.152 117.907, 138.787 117.431, 139.935 116.125 C 141.205 114.681, 143.096 113.765, 144.762 113.789 C 146.268 113.810, 151.123 112.741, 155.552 111.414 C 159.980 110.086, 164.367 109, 165.302 109 C 166.409 109, 167 108.197, 167 106.691 C 167 105.421, 167.661 103.509, 168.468 102.441 C 169.276 101.374, 169.951 99.049, 169.968 97.275 C 169.999 94.181, 169.868 94.073, 166.750 94.624 C 164.963 94.939, 161.025 96.096, 158 97.193 C 149.531 100.266, 148.679 100.322, 145.728 98 C 142.319 95.319, 142.115 91.166, 145.250 88.271 C 147.805 85.911, 161.199 81.646, 163.791 82.366 C 164.731 82.628, 166.512 83.132, 167.750 83.488 C 169.821 84.083, 170 83.810, 170 80.067 C 170 77.830, 169.826 76, 169.614 76 C 169.401 76, 165.689 77.189, 161.364 78.643 C 151.941 81.810, 148.547 81.863, 145.382 78.889 C 142.312 76.005, 142.373 73.899, 145.623 70.649 C 148.316 67.956, 151.338 66.835, 161.105 64.905 C 164.189 64.295, 167.243 63.468, 167.894 63.066 C 168.704 62.565, 168.986 59.354, 168.788 52.870 L 168.500 43.406 164.680 44.202 M 77.542 45.954 C 76.082 47.567, 75.497 51.756, 74.192 69.929 L 72.612 91.950 65.056 93.514 C 53.245 95.958, 49.896 97.017, 46.841 99.276 C 43.359 101.850, 43.279 103.370, 46.455 106.545 C 49.386 109.477, 55.115 109.786, 64.500 107.520 C 67.800 106.723, 70.838 106.055, 71.250 106.036 C 72.194 105.991, 72.199 115.983, 71.266 136.500 C 70.557 152.085, 70.522 152.275, 69.926 143.836 C 69.269 134.532, 67.739 129.497, 65.282 128.555 C 61.480 127.096, 58.820 132.765, 57.095 146 C 55.831 155.699, 54.749 160.639, 50.419 176.500 C 46.949 189.209, 44.111 198.467, 41.368 206.021 C 40.066 209.608, 39 213.230, 39 214.071 C 39 214.912, 38.605 216.028, 38.123 216.550 C 37.641 217.073, 36.323 220.200, 35.194 223.500 C 30.535 237.122, 28.002 242.195, 23.831 246.259 C 18.769 251.191, 21.033 260, 27.363 260 C 32.451 260, 40.819 248.235, 45.931 233.895 C 46.989 230.928, 48.829 226.025, 50.021 223 C 52.564 216.543, 57.668 200.417, 61.413 187 C 62.871 181.775, 64.960 174.512, 66.055 170.860 C 67.149 167.208, 68.467 161.583, 68.983 158.360 C 69.672 154.061, 69.785 157.161, 69.407 170 C 69.124 179.625, 68.659 207.969, 68.373 232.986 C 68.080 258.698, 67.458 278.717, 66.943 279.035 C 64.920 280.285, 64.923 285.500, 66.946 288.750 C 70.317 294.162, 76.678 292.893, 79.663 286.214 C 81.061 283.088, 81.442 276.725, 82.072 246 C 82.484 225.925, 82.861 202.119, 82.910 193.098 L 83 176.696 88.926 182.348 C 94.962 188.105, 96.638 188.800, 100.066 186.965 C 103.860 184.934, 102.586 180.015, 96.152 171.855 C 92.935 167.775, 88.617 163.085, 86.557 161.432 L 82.810 158.426 83.953 133.463 C 85.243 105.309, 85.595 102, 87.295 101.999 C 89.247 101.998, 99.992 93.113, 101.171 90.525 C 103.826 84.698, 98.175 79.682, 93.620 83.823 C 92.454 84.883, 90.452 86.291, 89.171 86.952 L 86.843 88.155 87.124 67.674 C 87.431 45.364, 87.137 44, 82.033 44 C 80.535 44, 78.514 44.879, 77.542 45.954 M 233 45.706 C 230.525 46.536, 228.050 47.568, 227.500 47.999 C 225.660 49.442, 214.995 51.158, 211.980 50.496 L 209 49.841 209 55.254 C 209 58.231, 209.242 60.908, 209.537 61.204 C 209.832 61.499, 211.970 61.077, 214.287 60.265 C 220.225 58.186, 234.524 57.360, 236.479 58.983 C 238.595 60.739, 238.379 65.347, 236.084 67.424 C 233.347 69.901, 222.527 73.109, 215.500 73.527 C 209.676 73.874, 209.500 73.967, 209.500 76.692 C 209.500 79.271, 209.785 79.484, 213 79.307 C 217.529 79.056, 229.755 77.357, 233.106 76.512 C 234.885 76.064, 236.234 76.377, 237.356 77.499 C 238.881 79.024, 239 77.914, 239 62.130 C 239 52.774, 238.662 44.911, 238.250 44.658 C 237.838 44.404, 235.475 44.876, 233 45.706 M 236.266 86.392 C 232.301 90.575, 214.164 93.764, 211.200 90.800 C 210.267 89.867, 210 91.116, 210 96.422 C 210 101.859, 210.260 103.029, 211.283 102.181 C 212.692 101.011, 235.063 96.942, 236.221 97.645 C 236.617 97.885, 237.151 97.051, 237.406 95.791 C 238.041 92.662, 239.016 83.996, 238.731 84.017 C 238.604 84.027, 237.495 85.095, 236.266 86.392 M 170.500 127.199 C 166.489 129.482, 160.366 137.984, 154.206 149.821 C 151.208 155.583, 145.035 163.959, 137.491 172.500 C 134.091 176.350, 130.002 181.473, 128.404 183.884 C 122.196 193.257, 114.160 203.792, 111.599 205.918 C 109.712 207.484, 109.502 211.102, 111.200 212.800 C 113.393 214.993, 117.673 214.115, 121.867 210.611 C 125.851 207.282, 138.501 193.240, 142.569 187.630 L 144.638 184.778 143.382 193.139 C 140.763 210.578, 139.500 229.241, 139.501 250.500 C 139.501 270.866, 139.653 272.760, 141.549 276 C 143.123 278.690, 144.353 279.574, 146.864 279.818 C 151.276 280.248, 152.673 278.819, 154.108 272.410 C 155.084 268.045, 155.069 266.498, 154.032 264.559 C 152.096 260.942, 153.316 221.501, 155.921 203.500 C 158.227 187.569, 158.611 174.011, 156.807 172.207 C 155.882 171.282, 156.195 170.392, 158.197 168.257 C 159.617 166.740, 161.738 163.700, 162.910 161.500 C 168.248 151.476, 171.442 146.172, 174.627 142.044 C 179.124 136.216, 179.732 133.516, 177.489 129.349 C 175.599 125.841, 173.838 125.299, 170.500 127.199 M 193.934 140.912 C 191.302 143.544, 191.200 143.965, 192.185 148.104 C 193.248 152.572, 196.058 156, 198.656 156 C 201.115 156, 205 151.279, 204.996 148.295 C 204.991 144.582, 201.754 139.430, 198.967 138.702 C 197.353 138.280, 195.950 138.896, 193.934 140.912 M 205 159.213 C 193.396 161.441, 172.900 167.503, 169 169.859 C 162.470 173.804, 160.299 177.899, 163.200 180.800 C 165.218 182.818, 174.633 182.173, 182.704 179.463 C 186.860 178.068, 190.377 177.056, 190.519 177.213 C 190.662 177.371, 190.276 179.637, 189.662 182.250 L 188.545 187 181.111 187 C 170.667 187, 163.656 189.366, 161.336 193.675 C 157.780 200.278, 162.348 202.347, 178.250 201.335 L 188 200.714 188 207.211 L 188 213.708 182.255 217.354 C 176.150 221.229, 174.910 221.557, 172.089 220.048 C 170.025 218.943, 166 221.232, 166 223.510 C 166 229.381, 172.249 233.640, 179.311 232.581 C 181.864 232.198, 184.215 231.460, 184.536 230.942 C 186.214 228.227, 187 230.938, 187 239.439 L 187 248.877 182.250 249.558 C 175.485 250.528, 163.084 255.558, 159.166 258.923 C 152.949 264.262, 156.821 269.412, 166.500 268.678 C 169.250 268.469, 176.900 267.061, 183.500 265.549 C 190.100 264.037, 197.750 262.405, 200.500 261.923 C 218.381 258.789, 234.077 256.762, 244.263 256.271 C 254.723 255.767, 256.302 255.449, 258.513 253.400 C 262.224 249.961, 261.778 245.492, 257.500 243.252 C 254.457 241.658, 231.817 241.747, 220 243.400 C 214.225 244.207, 207.320 245.072, 204.656 245.322 L 199.812 245.776 200.447 237.638 C 201.721 221.313, 201.026 222.628, 210.830 218.008 C 222.824 212.357, 222.463 212.611, 222.825 209.561 C 223.534 203.587, 217.671 201.441, 209 204.500 C 203.230 206.536, 202.998 206.468, 203.015 202.750 C 203.036 198.453, 203.682 197.681, 209 195.608 C 214.532 193.452, 221 187.393, 221 184.368 C 221 180.681, 218.235 178.734, 214.096 179.507 C 212.118 179.877, 210.050 180.519, 209.500 180.934 C 205.848 183.692, 205 183.039, 205 177.469 C 205 173.234, 205.344 172, 206.525 172 C 209.150 172, 219.199 168.130, 221.143 166.370 C 223.295 164.423, 223.469 162.201, 221.656 159.816 C 219.644 157.169, 216.276 157.047, 205 159.213" stroke="none" fill="black" fill-rule="evenodd"/>
</svg>