<svg xmlns="http://www.w3.org/2000/svg" width="300" height="300" viewBox="0 0 300 300" version="1.1">
	<path d="M 158 19.675 C 150.409 22.294, 140.291 26.419, 138.368 27.678 C 136.560 28.863, 136 30.135, 136 33.056 C 136 35.160, 136.521 37.204, 137.157 37.597 C 139.233 38.880, 146.665 38.224, 150.083 36.457 L 153.423 34.730 151.674 37.115 C 150.712 38.427, 149.155 40.724, 148.213 42.221 C 146.735 44.569, 146.020 44.867, 143 44.394 C 140.310 43.973, 138.979 44.336, 137.250 45.962 C 134.805 48.261, 134.172 53.530, 136.250 54.291 C 137.104 54.603, 136.769 55.451, 135.193 56.967 C 133.668 58.432, 132.989 60.087, 133.193 61.843 C 133.456 64.117, 134.033 64.544, 137.198 64.807 C 139.461 64.995, 141.909 64.451, 143.507 63.403 C 146.108 61.700, 146.140 61.713, 151 66.500 C 155.829 71.257, 155.908 71.290, 158.441 69.631 C 162.229 67.149, 161.511 60.805, 156.838 55.466 C 155.107 53.489, 155.177 53.277, 159.329 47.966 C 164.858 40.891, 170.808 31.046, 171.093 28.500 C 171.498 24.892, 169.891 21.271, 167.376 20.125 C 164.832 18.966, 160.639 18.765, 158 19.675 M 105.500 28.025 C 101.100 29.533, 95.385 31.083, 92.799 31.470 C 84.782 32.671, 81.353 37.896, 85.331 42.853 C 86.643 44.489, 95.874 43.897, 103.500 41.688 C 106.250 40.892, 108.641 40.365, 108.814 40.517 C 109.253 40.905, 102.394 54.064, 100.486 56.495 C 98.975 58.422, 98.815 58.431, 95.879 56.745 C 90.518 53.668, 84.086 54.991, 80.341 59.940 C 78.584 62.262, 80.523 65, 83.924 65 C 85.494 65, 87.820 65.844, 89.094 66.875 L 91.410 68.750 87.388 70.802 C 82.139 73.480, 80.631 75.395, 81.391 78.420 C 82.554 83.057, 88.603 82.557, 97.500 77.090 C 101.028 74.922, 102.691 74.624, 111.596 74.566 C 122.642 74.494, 125 73.556, 125 69.238 C 125 65.669, 122.310 64.069, 116.250 64.032 C 113.362 64.014, 111 63.745, 111 63.433 C 111 63.122, 112.125 61.392, 113.500 59.589 C 114.875 57.786, 116 55.881, 116 55.356 C 116 54.830, 116.513 53.887, 117.140 53.260 C 118.776 51.624, 124.836 37.390, 125.576 33.445 C 126.088 30.717, 125.737 29.646, 123.646 27.555 C 120.352 24.262, 116.169 24.370, 105.500 28.025 M 201.135 47.556 C 199.241 49.963, 199.182 50.422, 200.520 52.332 C 203.222 56.190, 201.845 64.755, 195.670 82.500 C 194.331 86.350, 192.453 92.200, 191.498 95.500 C 190.543 98.800, 188.661 104.512, 187.315 108.193 C 185.380 113.484, 185.099 115.316, 185.969 116.943 C 188.778 122.191, 197.225 117.019, 200.025 108.336 C 200.706 106.226, 201.536 104.050, 201.871 103.500 C 202.206 102.950, 203.435 99.575, 204.602 96 C 206.719 89.521, 206.740 89.498, 211.113 88.831 C 213.526 88.464, 220.088 86.570, 225.695 84.623 C 231.302 82.676, 238.164 80.782, 240.945 80.413 L 246 79.742 245.989 83.121 C 245.975 87.423, 243.790 94.636, 240.541 101.106 C 237.307 107.544, 237.259 110.705, 240.374 112.124 C 243.732 113.655, 246.055 112.130, 250.445 105.517 C 259.276 92.213, 261.684 82.560, 258.083 74.899 C 254.310 66.873, 248.015 65.425, 232.239 68.956 C 218.472 72.037, 213.821 74.137, 211.097 78.500 L 209.849 80.500 210.518 78.500 C 214.660 66.111, 215.372 55.461, 212.456 49.500 C 210.773 46.059, 209.992 45.458, 206.865 45.196 C 203.918 44.950, 202.833 45.397, 201.135 47.556 M 157.887 75.963 C 156.449 76.398, 152.624 78.513, 149.387 80.662 C 146.149 82.812, 140.912 86.050, 137.750 87.859 C 133.365 90.366, 132 91.694, 132 93.451 C 132 98.627, 139.621 100.076, 148.191 96.531 C 149.689 95.911, 149.639 96.450, 147.755 101.238 L 145.627 106.645 142.157 104.957 C 138.626 103.240, 136.276 103.310, 132.250 105.252 C 128.859 106.889, 129.486 108.916, 135.159 114.661 L 140.317 119.884 137.050 126.256 C 133.641 132.901, 133.408 135.598, 136.095 137.290 C 138.803 138.995, 142.809 137.169, 146.184 132.692 L 149.411 128.412 154.396 131.766 C 158.146 134.290, 160.014 134.962, 161.935 134.480 C 168.860 132.742, 168.579 129.413, 160.886 122.048 C 154.785 116.205, 154.775 116.188, 156.309 113.347 C 157.154 111.781, 158.739 108.475, 159.831 106 C 170.163 82.591, 170.581 80.834, 166.686 77.174 C 164.272 74.907, 162.281 74.633, 157.887 75.963 M 101.500 91.169 C 99.850 91.724, 97.131 92.791, 95.458 93.538 C 93.785 94.285, 90.220 95.482, 87.537 96.198 C 82.541 97.531, 77 101.972, 77 104.643 C 77 105.462, 77.466 107.002, 78.035 108.066 C 79.423 110.659, 87.173 110.680, 93.123 108.107 C 95.530 107.066, 98.493 105.917, 99.708 105.553 L 101.915 104.892 100.330 109.696 C 98.072 116.536, 97.253 117.197, 92.745 115.814 C 89.949 114.956, 88.392 114.956, 86.510 115.814 C 82.967 117.428, 83.362 120.388, 87.644 124.313 L 91.288 127.652 88.618 132.208 C 87.150 134.713, 83.260 139.545, 79.974 142.945 C 73.657 149.482, 73.399 150.009, 75.035 153.066 C 77.422 157.526, 87.041 153.198, 95.397 143.903 L 99.789 139.019 105.586 142.509 C 110.415 145.418, 112.339 146, 117.120 146 C 124.934 146, 127.738 143.117, 124.965 137.934 C 124.293 136.679, 122.872 136, 120.915 136 C 117.146 136, 113.313 134.034, 109.729 130.263 L 106.959 127.348 109.044 122.424 C 115.983 106.038, 117 103.123, 117 99.612 C 117 94.930, 115.239 91.299, 112.628 90.598 C 109.547 89.772, 104.947 90.007, 101.500 91.169 M 213.650 105.290 C 211.729 107.870, 211.146 110.169, 210.683 117 C 209.605 132.887, 205.145 157.912, 200.523 174 C 193.093 199.862, 185.864 218.541, 178.763 230.223 C 176.027 234.724, 177.059 237.335, 181.759 237.807 C 188.891 238.521, 198.066 223.696, 207.477 196.252 L 210.648 187.005 213.145 190.752 C 220.656 202.026, 222.720 204.930, 226.346 209.334 C 230.750 214.682, 258.365 240.101, 267 246.755 C 270.025 249.086, 275.378 253.245, 278.895 255.996 C 285.359 261.054, 289.365 262.235, 291.800 259.800 C 294.997 256.603, 291.521 250.529, 281.973 242.624 C 280.063 241.043, 275.765 237.218, 272.422 234.124 C 269.079 231.031, 263.468 226.025, 259.954 223 C 252.835 216.872, 237.850 202.784, 225.121 190.250 C 219.243 184.462, 216.015 182, 214.304 182 C 212.456 182, 211.987 181.576, 212.369 180.250 C 215.015 171.056, 217.735 158.327, 219.474 147 C 220.361 141.225, 221.517 133.748, 222.043 130.385 C 224.154 116.896, 222.406 104.434, 218.185 102.873 C 216.458 102.234, 215.576 102.705, 213.650 105.290 M 124.904 153 C 121.276 153.990, 112.848 156.646, 106.175 158.900 C 99.502 161.155, 93.470 162.996, 92.771 162.991 C 92.072 162.987, 89.362 163.993, 86.750 165.228 C 82.568 167.204, 82 167.848, 82 170.614 C 82 175.177, 83.972 176.315, 90.998 175.807 C 97.708 175.321, 97.505 175.038, 96.373 183.297 C 95.787 187.568, 95.359 188.111, 89.932 191.461 C 83.787 195.254, 81.997 198.087, 84.126 200.652 C 85.031 201.743, 86.517 202.060, 89.098 201.714 L 92.778 201.220 91.771 204.860 C 91.218 206.862, 90.705 211.552, 90.632 215.281 C 90.491 222.516, 91.331 223.954, 95.715 223.985 C 99.061 224.008, 100.548 220.623, 104.510 203.957 C 105.849 198.327, 106.463 197.264, 108.910 196.340 C 111.742 195.271, 111.755 195.285, 112.313 199.883 C 113.846 212.531, 122.617 218.644, 135.500 216.044 C 138.800 215.378, 142.287 214.126, 143.250 213.261 C 145.747 211.019, 145.413 207.322, 142.445 204.354 C 140.306 202.216, 139.313 201.906, 136.361 202.460 C 128.912 203.858, 125 200.975, 125 194.089 C 125 191.695, 125.640 191.027, 129.257 189.646 C 135.698 187.186, 145.265 186.410, 146.772 188.225 C 148.861 190.742, 150.117 220.367, 148.924 239 C 147.772 257.003, 146.915 261.054, 143.355 265.327 C 140.615 268.616, 140.363 271.220, 142.571 273.429 C 145.742 276.599, 152.541 274.100, 155.981 268.500 C 160.613 260.958, 161.298 255.245, 161.379 223.500 C 161.466 189.370, 160.793 185.101, 154.338 178.841 C 151.031 175.634, 150.583 175.501, 143.196 175.526 C 138.963 175.540, 133.986 175.944, 132.136 176.424 C 128.885 177.266, 128.800 177.214, 129.630 174.898 C 130.103 173.579, 130.491 170.625, 130.495 168.333 L 130.500 164.165 136.500 162.489 C 144.606 160.225, 145.451 159.704, 145.807 156.746 C 146.494 151.037, 137.799 149.479, 124.904 153 M 114 169.213 L 108.500 171.105 108.454 177.553 C 108.428 181.099, 108.653 183.994, 108.954 183.986 C 112.231 183.904, 113.828 182.481, 114.365 179.163 C 114.690 177.148, 116.132 173.778, 117.567 171.672 C 119.003 169.567, 120.025 167.727, 119.839 167.582 C 119.653 167.438, 117.025 168.172, 114 169.213 M 68.666 192.191 C 67.443 194.129, 67.250 200.685, 67.464 233 L 67.720 271.500 70.143 271.795 C 75.786 272.484, 79.575 263.024, 80.474 246 C 81.257 231.177, 79.505 196.830, 77.781 193.215 C 75.995 189.470, 70.755 188.882, 68.666 192.191 M 109 228.912 C 105.975 229.857, 102.825 230.903, 102 231.239 C 101.175 231.574, 98.867 232.349, 96.871 232.962 C 90.514 234.912, 88.012 239.475, 91.128 243.436 C 93.498 246.449, 99.281 246.940, 103.950 244.526 C 105.518 243.715, 109.883 242.119, 113.651 240.980 C 117.418 239.841, 122.258 238.367, 124.407 237.704 C 129.596 236.105, 130.980 233.840, 128.966 230.241 C 127.557 227.724, 126.903 227.488, 120.966 227.348 C 117.229 227.259, 112.178 227.920, 109 228.912 M 113 262.007 C 108.875 262.435, 99.936 264.165, 93.135 265.853 C 76.266 270.038, 72.517 272.728, 76.958 277.455 C 80.382 281.100, 84.548 281.346, 95.624 278.555 C 109.107 275.158, 125.727 272.007, 130.179 272.003 C 136.185 271.998, 138.678 268.161, 135.250 264.199 C 133.109 261.724, 124.193 260.846, 113 262.007" stroke="none" fill="black" fill-rule="evenodd"/>
</svg>