<svg xmlns="http://www.w3.org/2000/svg" width="300" height="300" viewBox="0 0 300 300" version="1.1">
	<path d="M 77.822 39.980 C 76.348 40.425, 74.203 41.664, 73.055 42.734 C 71.906 43.805, 69.736 45.249, 68.233 45.945 C 60.022 49.746, 58.280 50.738, 55.384 53.259 C 53.506 54.895, 51.675 57.847, 50.889 60.509 C 50.160 62.979, 49.223 65, 48.807 65 C 48.392 65, 47.414 66.237, 46.634 67.750 C 44.879 71.156, 45.914 79.006, 49.556 89.911 C 52.002 97.233, 52.008 97.344, 50.094 99.127 C 45.714 103.208, 46.732 108.355, 52.198 109.772 C 55.141 110.534, 55.441 111.036, 56.713 117.327 C 58.667 126.997, 59.560 128.851, 62.633 129.623 C 66.831 130.676, 69.411 126.919, 68.546 121.012 C 68.183 118.530, 67.647 114.250, 67.353 111.500 L 66.821 106.500 75.491 102.120 C 84.640 97.497, 86.743 95.097, 85.608 90.574 C 85.056 88.375, 84.410 88, 81.169 88 C 79.083 88, 75.596 88.860, 73.420 89.911 C 71.245 90.962, 67.785 92.137, 65.732 92.522 C 62.680 93.095, 62 92.930, 62 91.615 C 62 90.731, 61.165 87.419, 60.144 84.254 C 59.123 81.089, 57.835 76.584, 57.281 74.242 C 56.297 70.083, 56.369 69.883, 60.387 65.636 C 63.452 62.395, 66.256 60.678, 71.390 58.894 C 75.935 57.315, 79.935 55.021, 83.140 52.157 C 88.595 47.283, 89.312 44.300, 85.811 41.039 C 83.485 38.871, 82.103 38.688, 77.822 39.980 M 120 52.035 C 109.820 54.708, 107.353 55.813, 105.603 58.482 C 102.603 63.061, 106.782 69.866, 110.983 67.243 C 112.077 66.559, 114.259 66, 115.830 66 C 117.401 66, 121.316 65.096, 124.528 63.990 C 132.232 61.340, 132.755 62.075, 131.370 73.600 L 130.757 78.699 124.348 79.880 C 120.823 80.529, 115.815 80.780, 113.220 80.437 C 104.589 79.295, 100.310 85.442, 105.164 92.008 C 107.520 95.195, 106.410 95.107, 124.250 93.517 L 129 93.094 129 102.953 C 129 112.208, 128.881 112.782, 127.066 112.307 C 126.002 112.029, 123.640 112.290, 121.816 112.888 C 117.817 114.197, 85.736 119.883, 81.785 119.982 C 79.868 120.030, 74 126.436, 74 128.481 C 74 133.151, 78.544 134.373, 88.688 132.433 C 98.405 130.573, 98.315 130.557, 95.451 133.647 C 92.098 137.265, 90.556 143.039, 90.465 152.318 L 90.388 160.135 84.944 162.467 C 81.950 163.750, 77.250 165.665, 74.500 166.724 C 70.094 168.420, 69.500 168.993, 69.500 171.545 C 69.500 173.630, 70.200 174.795, 72 175.706 C 75.278 177.364, 82.500 177.269, 87.462 175.501 C 89.641 174.725, 91.487 174.182, 91.565 174.295 C 92.059 175.010, 94.025 210.224, 94.014 218.161 L 94 227.822 89.250 230.061 C 83.533 232.757, 67.679 242.475, 63.500 245.846 C 57.086 251.018, 55.631 256.474, 59.816 259.656 C 62.675 261.829, 64.548 261.206, 74.042 254.919 C 82.620 249.238, 101.772 239, 103.820 239 C 104.322 239, 106.931 238.148, 109.617 237.106 C 112.302 236.064, 118.550 233.961, 123.500 232.433 C 148.721 224.647, 153.819 222.250, 161.623 214.507 C 166.288 209.880, 167 208.659, 167 205.287 C 167 198.432, 163.229 197.034, 158.437 202.113 C 152.902 207.981, 144.628 212.180, 131 216.039 C 127.425 217.052, 121.350 218.803, 117.500 219.932 C 113.650 221.060, 109.600 222.231, 108.500 222.533 C 106.562 223.065, 106.496 222.565, 106.359 206.291 C 106.281 197.056, 105.924 184.325, 105.565 178 L 104.913 166.500 111.707 164.115 C 122.256 160.412, 127.895 155.394, 126.488 150.961 C 125.423 147.608, 122.265 146.596, 119.183 148.620 C 117.707 149.589, 113.730 151.128, 110.344 152.038 L 104.189 153.694 103.594 150.722 C 102.583 145.664, 102.938 137.462, 104.225 136.175 C 105.192 135.208, 105.187 134.529, 104.202 132.952 C 102.785 130.683, 102.481 130.860, 110.805 129.119 C 113.722 128.509, 119.523 126.433, 123.696 124.505 C 127.868 122.577, 132.513 121, 134.018 121 C 137.600 121, 138.449 119.784, 140.302 112 C 143.792 97.339, 145.541 77.050, 144.400 64.459 C 143.817 58.020, 143.238 56.179, 141.016 53.692 C 138.765 51.173, 137.468 50.642, 132.918 50.379 C 129.738 50.196, 124.402 50.880, 120 52.035 M 178.110 54.396 C 173.482 56.961, 173.073 59.107, 173.043 81 C 173.010 105.002, 174.095 116.305, 176.970 121.941 C 178.773 125.475, 179.477 126, 182.413 126 C 184.441 126, 186.008 125.420, 186.344 124.546 C 186.651 123.747, 186.470 118.009, 185.942 111.796 C 185.414 105.583, 185.276 95.836, 185.635 90.137 L 186.288 79.773 192.894 75.506 C 201.325 70.060, 208.345 67.579, 211.119 69.064 C 212.226 69.656, 213.981 72.124, 215.020 74.548 C 218.596 82.888, 223.735 89.824, 227.922 91.960 C 236.670 96.423, 252.125 93.772, 252.822 87.690 C 253.332 83.248, 251.706 82.295, 242.276 81.510 C 234.342 80.849, 233.362 80.528, 230.760 77.743 C 229.196 76.069, 226.805 72.404, 225.448 69.599 C 222.314 63.125, 221.316 61.915, 216.882 59.208 C 210.891 55.551, 204.724 56.155, 194.541 61.395 L 186 65.790 186 62.030 C 186 59.740, 185.190 57.239, 183.927 55.635 C 181.566 52.632, 181.367 52.590, 178.110 54.396 M 221 124.370 C 217.975 125.647, 209.882 129.910, 203.016 133.843 C 196.150 137.776, 188.241 141.660, 185.442 142.474 C 174.332 145.704, 173.470 154, 184.244 154 C 188.777 154, 195.090 151.164, 216.500 139.507 C 219.800 137.711, 222.607 136.331, 222.737 136.441 C 223.087 136.736, 219.131 147.872, 217.032 152.500 C 216.035 154.700, 214.426 158.525, 213.458 161 C 210.361 168.917, 204.908 181.651, 200.565 191.106 L 198.909 194.712 194.177 190.079 C 191.575 187.531, 186.258 182.871, 182.362 179.723 C 176.775 175.209, 174.543 174, 171.794 174 C 167.698 174, 165.892 175.795, 164.028 181.718 C 162.953 185.134, 162.943 186.226, 163.973 187.468 C 165.561 189.381, 166.895 189.405, 168.934 187.560 C 170.350 186.278, 171.711 187.227, 181.263 196.147 C 187.168 201.662, 192 206.761, 192 207.479 C 192 209.222, 183.308 224.719, 180.210 228.500 C 176.277 233.299, 175.303 233.473, 171.428 230.071 C 167.424 226.556, 166.737 226.405, 164.571 228.571 C 162.508 230.635, 162.589 232.274, 164.987 236.974 C 167.741 242.373, 170.460 244, 176.725 244 C 181.866 244, 182.170 243.835, 188.279 237.750 C 191.729 234.313, 195.454 229.700, 196.556 227.500 C 197.658 225.300, 199.405 222.233, 200.437 220.685 L 202.315 217.870 208.408 223.751 C 219.321 234.285, 244.219 251.385, 259.500 258.840 C 265.825 261.926, 278.660 265.965, 282.203 265.985 C 288.698 266.021, 293.464 260.604, 290.996 255.992 C 290.035 254.197, 289.162 253.882, 286.162 254.244 C 277.755 255.261, 261.975 247.279, 235.500 228.620 C 224.308 220.733, 220.818 217.839, 213.356 210.263 L 208.197 205.025 212.441 196.763 C 214.775 192.218, 218.181 184.675, 220.011 180 C 221.841 175.325, 223.665 171.050, 224.065 170.500 C 224.465 169.950, 225.256 167.925, 225.823 166 C 226.390 164.075, 228.268 158.900, 229.996 154.500 C 238.879 131.886, 239.424 128.052, 234.328 124.043 C 230.988 121.416, 227.811 121.494, 221 124.370" stroke="none" fill="black" fill-rule="evenodd"/>
</svg>