<svg xmlns="http://www.w3.org/2000/svg" width="300" height="300" viewBox="0 0 300 300" version="1.1">
	<path d="M 186.704 10.065 C 184.336 11.497, 180.929 19.311, 174.958 37 C 167.229 59.898, 164.336 83.681, 167.425 98.926 C 172.961 126.248, 190.824 136.973, 223.500 132.595 C 239.763 130.416, 243.581 129.287, 246.527 125.786 C 249.533 122.213, 249.674 119.101, 246.961 116.189 C 244.631 113.687, 244.163 113.607, 240.345 115.059 C 230.157 118.932, 207.477 120.222, 198.167 117.457 C 186.869 114.102, 181.465 105.375, 180.867 89.520 L 180.500 79.770 194.070 75.090 C 201.533 72.516, 209.408 69.357, 211.570 68.069 C 213.731 66.782, 217.075 64.842, 219 63.758 C 224.401 60.718, 230.694 55.280, 231.243 53.178 C 231.516 52.136, 231.144 49.870, 230.418 48.142 C 228.756 44.190, 225.244 43.949, 220.628 47.470 C 217.143 50.129, 208.671 54.016, 196 58.771 C 192.975 59.906, 189.304 61.095, 187.843 61.413 C 186.381 61.731, 184.446 62.275, 183.542 62.622 C 181.565 63.381, 181.785 62.105, 186.087 47.844 C 187.689 42.533, 189 37.542, 189 36.752 C 189 35.963, 190.800 31.683, 193 27.242 C 197.134 18.894, 198.082 13.143, 195.655 11.128 C 193.606 9.428, 188.717 8.847, 186.704 10.065 M 97.371 29.741 C 96.703 30.190, 95.757 37.029, 95.053 46.500 C 94.002 60.625, 91.830 77.274, 90.398 82.185 C 90.126 83.119, 87.735 84.592, 85.037 85.488 C 82.359 86.377, 79.005 88.268, 77.584 89.689 C 72.090 95.182, 75.868 101.818, 83.877 100.743 L 87.712 100.229 88.303 110.864 C 89.063 124.541, 90.973 130.891, 95.529 134.891 C 102.561 141.066, 109.684 140.507, 126.510 132.461 C 133.105 129.308, 141.352 125.505, 144.837 124.012 C 155.210 119.566, 157.346 116.346, 152.883 111.883 C 151.194 110.194, 149.931 109.867, 146.633 110.263 C 143.013 110.698, 128.601 115.877, 113.676 122.106 C 111.022 123.214, 107.885 123.980, 106.704 123.810 C 103.631 123.366, 102.169 117.543, 102.077 105.373 L 102 95.246 106.750 93.241 C 109.362 92.139, 113.300 90.679, 115.500 89.997 C 126.842 86.482, 145.987 79.132, 151.217 76.285 C 156.513 73.403, 157.982 70.451, 156.136 66.398 C 154.402 62.593, 152.521 62.512, 144.007 65.876 C 139.659 67.594, 135.516 68.994, 134.801 68.986 C 134.085 68.979, 127.343 71.109, 119.818 73.721 C 112.293 76.332, 105.938 78.251, 105.697 77.985 C 105.456 77.718, 105.897 71.875, 106.677 65 C 108.622 47.877, 108.159 36.029, 105.401 32.322 C 103.312 29.513, 99.522 28.295, 97.371 29.741 M 192.556 141.587 C 189.184 144.959, 186.287 149.668, 185.178 153.580 C 183.542 159.351, 173.265 180, 172.029 180 C 171.463 180, 171 180.536, 171 181.192 C 171 182.209, 166.302 190.382, 161 198.587 C 152.980 210.999, 138.830 230.658, 131.689 239.309 C 129.960 241.404, 128.255 243.588, 127.900 244.162 C 126.962 245.680, 124.008 243.858, 119.730 239.123 C 116.179 235.192, 114.016 229.861, 114.006 225.011 C 113.986 216.244, 104.738 207.662, 100.200 212.200 C 98.494 213.906, 98.707 216.728, 101.001 222.761 C 102.100 225.654, 103 229.125, 103 230.473 C 103 235.773, 107.224 244.273, 112.630 249.855 C 115.584 252.904, 118 255.710, 118 256.089 C 118 257.545, 102.669 270.676, 96.798 274.250 C 92.469 276.885, 89.481 278, 86.747 278 C 82.283 278, 79.962 279.840, 79.690 283.596 C 79.561 285.366, 80.309 286.819, 82 288.084 C 84.204 289.734, 85.448 289.857, 92.505 289.128 C 99.671 288.388, 101.296 287.799, 108.005 283.513 C 112.127 280.879, 119.424 274.811, 124.221 270.027 L 132.942 261.329 139.721 262.759 C 156.367 266.271, 198.020 260.916, 209.853 253.742 C 216.205 249.891, 218.958 242.082, 215.171 238.655 C 212.659 236.381, 210.804 236.576, 207.438 239.469 C 205.858 240.827, 203.425 242.373, 202.032 242.904 C 196.698 244.940, 166.926 249.241, 154.584 249.759 L 141.669 250.301 144.551 246.400 C 146.136 244.255, 148.833 240.897, 150.544 238.938 C 152.255 236.979, 157.138 230.146, 161.394 223.755 C 165.651 217.364, 169.778 211.599, 170.566 210.945 C 171.355 210.290, 172 209.355, 172 208.866 C 172 208.376, 174.098 204.719, 176.661 200.738 C 179.225 196.757, 182.763 191.250, 184.523 188.500 C 192.565 175.937, 196.701 166.481, 197.911 157.893 C 198.561 153.277, 199.335 148.107, 199.629 146.404 C 200.519 141.260, 195.977 138.166, 192.556 141.587 M 206 166.729 C 201.594 168.406, 202.125 172.150, 207.600 178.003 C 212.270 182.996, 220.711 188.003, 224.446 187.996 C 227.770 187.990, 232.889 184.290, 233.624 181.362 C 234.474 177.974, 231.032 174.703, 227.539 175.580 C 225.814 176.013, 223.919 174.952, 219.486 171.073 C 213.746 166.050, 210.516 165.010, 206 166.729 M 74.466 171.783 C 71.962 173.897, 70.682 176.971, 67.505 188.500 C 63.528 202.932, 64.385 213.524, 69.930 218.467 C 71.955 220.272, 72.358 220.310, 74.818 218.933 C 77.352 217.515, 77.534 216.908, 78.112 207.966 C 78.571 200.869, 79.635 195.823, 82.362 187.804 C 86.363 176.040, 86.698 173.555, 84.571 171.429 C 82.628 169.485, 76.953 169.684, 74.466 171.783 M 126.610 177.250 C 124.303 179.326, 123.604 181.651, 123.889 186.310 C 124.058 189.067, 133.973 199.058, 138.590 201.123 C 143.511 203.324, 152.297 203.829, 154.458 202.035 C 156.310 200.498, 156.503 194.657, 154.750 193.220 C 154.063 192.657, 151.506 191.662, 149.070 191.011 C 144.230 189.716, 140.195 186.039, 137.589 180.546 C 134.828 174.728, 130.769 173.509, 126.610 177.250" stroke="none" fill="black" fill-rule="evenodd"/>
</svg>