<svg xmlns="http://www.w3.org/2000/svg" width="300" height="300" viewBox="0 0 300 300" version="1.1">
	<path d="M 190 31.089 C 187.525 31.567, 184.600 32.392, 183.500 32.921 C 182.400 33.451, 177.839 34.776, 173.364 35.865 C 168.890 36.955, 163.177 38.781, 160.669 39.923 C 158.161 41.065, 155.523 42.011, 154.805 42.025 C 153.255 42.054, 142.355 45.583, 139.500 46.980 C 138.400 47.518, 133.576 49.074, 128.780 50.438 C 123.983 51.802, 118.808 53.541, 117.280 54.303 C 115.751 55.065, 112.250 56.264, 109.500 56.968 C 106.750 57.672, 102.572 58.867, 100.215 59.624 C 97.858 60.381, 94.397 61, 92.524 61 C 90.651 61, 88.840 61.450, 88.500 62 C 88.160 62.550, 86.446 63.007, 84.691 63.015 C 80.976 63.033, 74.937 64.977, 72.616 66.904 C 70.409 68.735, 70.493 75.245, 72.750 77.227 C 73.713 78.072, 75.513 79.072, 76.750 79.449 C 79.308 80.229, 79.310 80.245, 78.047 94.500 C 77.555 100.053, 77.513 115.617, 77.953 129.500 L 78.746 154.500 75.373 157.347 C 71.139 160.921, 70.775 165.151, 74.492 167.587 C 75.863 168.485, 77.617 168.977, 78.389 168.681 C 79.857 168.118, 80.246 169.833, 81.526 182.500 C 81.860 185.800, 82.504 189.400, 82.959 190.500 C 83.413 191.600, 84.765 197.450, 85.963 203.500 C 87.952 213.542, 89.033 216.726, 93.892 226.850 C 96.204 231.666, 106.311 240.715, 110.759 241.950 C 120.255 244.587, 131.464 242.579, 144.794 235.851 C 159.337 228.512, 172.073 212.498, 172.382 201.162 C 172.526 195.875, 169.301 192.487, 165.063 193.474 C 161.904 194.210, 157 199.357, 157 201.937 C 157 202.984, 155.200 205.660, 153 207.882 C 150.800 210.104, 149 212.337, 149 212.844 C 149 213.352, 148.213 214.031, 147.250 214.354 C 145.541 214.928, 144.096 215.747, 139 219.031 C 132.647 223.124, 119.488 225.859, 115.030 224.013 C 111.894 222.713, 106.363 215.327, 105.302 211.020 C 104.960 209.634, 103.870 206.925, 102.880 205 C 100.976 201.298, 98.402 188.180, 97.342 176.774 C 96.993 173.013, 96.323 169.700, 95.853 169.409 C 95.384 169.119, 95 167.854, 95 166.597 C 95 164.530, 95.834 164.139, 103.750 162.495 C 108.563 161.496, 112.725 160.374, 113 160.003 C 113.275 159.632, 116.650 158.560, 120.500 157.621 C 128.513 155.666, 138.413 151.344, 151.500 144.088 L 156.500 141.316 157.715 143.408 C 158.383 144.559, 158.945 146.192, 158.965 147.039 C 158.984 147.885, 159.891 150.324, 160.979 152.459 C 162.068 154.594, 164.155 159.864, 165.619 164.170 C 167.082 168.477, 168.667 172, 169.140 172 C 169.613 172, 170 172.660, 170 173.466 C 170 175.038, 171.541 178.864, 176.120 188.664 C 177.704 192.055, 179 195.066, 179 195.356 C 179 195.995, 189.395 217.291, 191.761 221.500 C 192.689 223.150, 195.372 227.495, 197.724 231.155 C 200.076 234.816, 202 238.255, 202 238.798 C 202 239.342, 202.604 240.018, 203.342 240.301 C 204.081 240.585, 205.490 242.545, 206.475 244.658 C 207.459 246.771, 210.455 251.480, 213.132 255.122 C 215.810 258.765, 218 262.144, 218 262.632 C 218 263.120, 218.900 264.081, 220 264.768 C 221.100 265.455, 222 266.619, 222 267.356 C 222 269.897, 234.660 283.614, 238.636 285.381 C 240.761 286.325, 243.281 287.525, 244.236 288.048 C 246.939 289.530, 251.800 289.172, 254.785 287.273 C 258.218 285.090, 258.966 284.032, 258.985 281.333 C 258.993 280.142, 259.563 278.977, 260.250 278.746 C 261.204 278.425, 261.226 277.990, 260.344 276.913 C 259.708 276.136, 258.863 273.321, 258.466 270.658 C 257.586 264.744, 254.429 260.750, 250.635 260.750 C 247.880 260.750, 244 263.876, 244 266.096 C 244 266.744, 242.762 265.730, 241.250 263.841 C 239.738 261.953, 237.251 259.078, 235.725 257.454 C 234.199 255.829, 231.727 252.700, 230.232 250.500 C 228.737 248.300, 224.698 242.566, 221.257 237.758 C 217.816 232.950, 215 228.751, 215 228.428 C 215 228.104, 213.480 225.513, 211.623 222.669 C 209.766 219.826, 207.179 215.476, 205.873 213.003 C 204.568 210.529, 203.238 208.279, 202.919 208.003 C 202.129 207.320, 190.008 182.342, 189.969 181.317 C 189.952 180.867, 188.831 178.250, 187.478 175.500 C 186.125 172.750, 185.014 170.001, 185.009 169.391 C 185.004 168.781, 183.656 165.631, 182.013 162.391 C 180.370 159.151, 179.020 155.514, 179.013 154.309 C 179.006 153.104, 178.585 151.861, 178.077 151.548 C 177.569 151.234, 176.838 149.538, 176.451 147.778 C 176.065 146.019, 174.947 142.987, 173.967 141.040 C 170.433 134.021, 170.509 133.679, 176.251 130.769 C 184.271 126.704, 194.764 122, 195.810 122 C 196.998 122, 206.333 117.919, 207 117.108 C 207.275 116.774, 209.277 115.600, 211.450 114.500 C 220.470 109.932, 232.468 96.053, 233.640 88.831 C 234.070 86.179, 233.657 84.922, 231.639 82.744 C 227.623 78.411, 224.726 79.070, 220.614 85.250 C 218.692 88.138, 215.121 92.166, 212.677 94.202 C 207.763 98.297, 192.314 106.012, 184.432 108.308 C 181.645 109.120, 177.282 110.733, 174.737 111.892 C 172.192 113.051, 169.437 114, 168.614 114 C 167.791 114, 166.840 114.450, 166.500 115 C 165.253 117.018, 164.210 115.889, 163.044 111.261 C 162.388 108.655, 160.535 103.824, 158.926 100.526 C 157.316 97.228, 156 93.762, 156 92.824 C 156 91.886, 155.550 90.840, 155 90.500 C 154.450 90.160, 154 89.009, 154 87.941 C 154 86.873, 153.624 86, 153.164 86 C 151.899 86, 149 72.899, 149 67.186 C 149 62.326, 149.108 62.136, 152.250 61.454 C 154.037 61.066, 155.753 60.353, 156.062 59.869 C 156.372 59.385, 160.647 57.825, 165.562 56.402 C 170.478 54.980, 174.950 53.468, 175.500 53.043 C 176.050 52.619, 180.550 51.016, 185.500 49.483 C 190.450 47.949, 194.950 46.372, 195.500 45.977 C 196.050 45.583, 198.300 44.702, 200.500 44.020 C 207.533 41.839, 209.012 37.302, 204.195 32.687 C 201.175 29.794, 198.349 29.475, 190 31.089 M 134.833 66.807 C 134.650 67.251, 130 68.919, 124.500 70.514 C 119 72.108, 114.275 73.717, 114 74.089 C 113.588 74.647, 100.477 77.960, 92.456 79.534 C 90.516 79.914, 90.450 80.369, 91.164 88.506 C 91.577 93.220, 92.399 108.174, 92.990 121.738 C 93.582 135.301, 94.220 146.553, 94.408 146.741 C 94.596 146.930, 96.494 146.422, 98.625 145.614 C 100.756 144.806, 105.650 143.392, 109.500 142.472 C 113.350 141.553, 116.950 140.471, 117.500 140.069 C 118.050 139.667, 121.423 138.297, 124.995 137.026 C 131.726 134.630, 146.450 126.919, 148.898 124.509 C 150.080 123.345, 150.092 122.386, 148.972 118.316 C 148.244 115.667, 147.366 113.275, 147.021 113 C 146.347 112.463, 142.640 99.762, 141.476 94 C 141.087 92.075, 140.366 89.998, 139.874 89.385 C 138.557 87.743, 137.104 74.641, 137.726 70.006 C 138.153 66.825, 137.945 66, 136.715 66 C 135.863 66, 135.017 66.363, 134.833 66.807" stroke="none" fill="black" fill-rule="evenodd"/>
</svg>