<svg xmlns="http://www.w3.org/2000/svg" width="300" height="300" viewBox="0 0 300 300" version="1.1">
	<path d="M 181.142 11.250 C 179.012 15.258, 177.991 28.851, 177.333 61.979 L 176.688 94.457 174.119 96.479 C 162.482 105.636, 133.095 125.671, 132.586 124.795 C 132.491 124.633, 132.713 117.160, 133.079 108.188 C 133.653 94.143, 134.130 90.718, 136.517 83.536 C 139.626 74.179, 139.373 71.704, 135.355 72.183 C 131.871 72.599, 129.637 75.767, 125.967 85.500 C 123.550 91.910, 122.659 96.581, 121.487 109 C 120.682 117.525, 120.018 126.594, 120.012 129.153 C 120 133.640, 119.813 133.933, 114.750 137.385 C 111.862 139.353, 107.647 142.271, 105.381 143.868 C 102.522 145.884, 100.476 146.622, 98.691 146.281 C 95.500 145.671, 91.234 149.580, 90.368 153.908 C 89.595 157.773, 93.524 162, 97.889 162 C 102.214 162, 104.981 160.722, 112.918 155.059 L 120 150.005 120.008 155.753 C 120.012 158.914, 120.675 166.784, 121.481 173.243 C 124.818 199.997, 135.340 218.933, 156.046 235.450 C 159.835 238.473, 170.742 242.717, 179.531 244.590 C 195.347 247.959, 212.286 246.118, 236 238.454 C 260.082 230.670, 268.168 225.447, 274.228 213.761 C 277.742 206.986, 277.813 202.138, 274.435 199.678 C 270.594 196.881, 266.811 198.193, 264.008 203.295 C 257.807 214.579, 250.827 219.654, 238.333 221.962 C 235.491 222.487, 229.641 224.049, 225.333 225.433 C 205.801 231.706, 193.892 233.230, 182.799 230.875 C 177.387 229.725, 165.768 224.454, 165.167 222.875 C 164.983 222.394, 164.263 222, 163.565 222 C 161.760 222, 150 211.074, 150 209.397 C 150 208.628, 149.535 208, 148.967 208 C 148.400 208, 145.738 203.387, 143.054 197.750 C 136.485 183.955, 133.747 172.272, 132.434 152.429 L 131.768 142.358 136.758 139.155 C 139.502 137.394, 142.797 135.044, 144.079 133.931 C 145.361 132.819, 148.006 130.943, 149.955 129.762 C 151.905 128.581, 158.516 124.102, 164.646 119.808 C 170.776 115.513, 176.056 112, 176.380 112 C 177.238 112, 176.169 122.579, 173.776 137.784 C 171.778 150.486, 171.539 151.197, 168.343 154.004 C 163.079 158.626, 164.282 163, 170.818 163 C 175.467 163, 180.998 157.368, 183.834 149.745 C 185.668 144.818, 188.624 129.125, 191.699 108 L 192.500 102.500 197.500 100.794 C 200.250 99.855, 205.036 99.068, 208.136 99.044 C 213.532 99.002, 213.837 99.138, 215.296 102.250 C 218.333 108.727, 219.321 114.738, 219.410 127.286 C 219.504 140.661, 219.928 141.947, 224.250 141.985 C 229.399 142.030, 232 133.790, 232 117.432 C 232 108.841, 231.552 105.679, 229.502 99.812 C 228.128 95.879, 226.215 91.774, 225.252 90.689 C 220.598 85.451, 210.910 83.848, 199 86.346 L 193.500 87.500 192.375 59.500 C 191.062 26.826, 189.555 13.555, 186.850 10.850 C 184.390 8.390, 182.595 8.516, 181.142 11.250 M 46.627 78.517 C 42.371 79.980, 38.003 84.543, 38.001 87.527 C 38.001 88.643, 38.701 90.555, 39.557 91.777 C 40.859 93.636, 42.055 94, 46.870 94 C 51.871 94, 52.978 94.368, 55.313 96.805 C 56.791 98.347, 58 100.732, 58 102.105 C 58 105.484, 59.758 107, 63.677 107 C 67.748 107, 70.100 103.827, 70.177 98.232 C 70.240 93.708, 69.021 91.071, 64.630 86.236 C 57.888 78.812, 52.495 76.500, 46.627 78.517 M 30.354 140.542 C 26.995 142.014, 23 146.398, 23 148.612 C 23 149.350, 24.173 150.722, 25.606 151.661 C 27.947 153.195, 29.188 153.247, 37.856 152.175 C 51.464 150.490, 53.401 150.625, 56.818 153.500 C 60.395 156.510, 62.117 156.633, 64.459 154.046 C 65.940 152.408, 66.047 151.575, 65.118 148.909 C 63.846 145.260, 62.120 143.669, 56.500 140.967 C 51.579 138.601, 35.383 138.338, 30.354 140.542 M 88.500 171.971 C 87.400 172.435, 83.563 175.669, 79.974 179.158 C 76.385 182.646, 70.760 187.906, 67.474 190.846 C 64.188 193.786, 59.700 197.843, 57.500 199.861 C 55.300 201.880, 51.868 204.773, 49.874 206.290 C 46.284 209.021, 46.215 209.031, 43.160 207.277 C 40.204 205.580, 39.935 205.581, 36.787 207.294 C 32.468 209.644, 27.924 216.150, 27.288 220.892 C 26.848 224.173, 27.163 224.985, 29.640 226.945 C 32.193 228.965, 33.198 229.138, 39 228.551 C 43.298 228.117, 47.024 227.002, 50 225.259 C 55.089 222.279, 93.476 184.895, 95.546 180.903 C 97.083 177.939, 96.475 174.084, 94.181 172.250 C 92.401 170.827, 91.334 170.775, 88.500 171.971" stroke="none" fill="black" fill-rule="evenodd"/>
</svg>