<svg xmlns="http://www.w3.org/2000/svg" width="300" height="300" viewBox="0 0 300 300" version="1.1">
	<path d="M 198.875 12.250 C 197.546 13.488, 195.474 16.098, 194.271 18.051 C 193.068 20.003, 190.152 22.988, 187.792 24.684 C 176.731 32.629, 162.315 50.457, 155.354 64.800 C 150.552 74.696, 149.666 83.055, 152.976 87.250 C 154.848 89.624, 155.854 89.997, 160.323 89.978 C 167.204 89.949, 172.185 87.549, 184.936 78.118 C 203.088 64.694, 213.121 58.783, 214.833 60.503 C 217.146 62.826, 213.067 85.439, 204.462 118 C 198.213 141.644, 197.205 145.063, 197.085 143 C 196.954 140.744, 192.832 136.389, 190 135.514 C 183.654 133.552, 168.806 124.771, 159.500 117.476 C 151.317 111.061, 141.853 109.043, 137.500 112.786 C 134.794 115.113, 131 123.384, 131 126.955 C 131 133.291, 136.486 134.832, 141.174 129.813 L 144.151 126.627 147.797 128.563 C 149.801 129.628, 153.273 131.888, 155.512 133.584 C 169.198 143.954, 185.236 150.638, 192.500 149 C 194.425 148.566, 195.997 148.501, 195.994 148.855 C 195.986 149.837, 183.591 186.354, 179.993 196 C 178.248 200.675, 176.472 205.625, 176.045 207 C 174.246 212.794, 167.274 228.622, 159.525 244.500 C 145.240 273.773, 139.359 277.236, 129.179 262.371 C 126.115 257.897, 123.360 257.486, 119.865 260.981 C 118.289 262.557, 117 264.454, 117 265.196 C 117 268.027, 124.672 279.439, 128.404 282.160 C 140.219 290.772, 151.659 286.982, 163.592 270.500 C 165.185 268.300, 166.772 266.275, 167.118 266 C 168.172 265.163, 175.447 250.199, 180.975 237.500 C 198.664 196.859, 214.060 150.084, 224.095 106.500 C 230.824 77.273, 232.379 66.414, 230.907 58.931 C 229.490 51.730, 225.071 46.635, 218.772 44.939 C 213.133 43.420, 208.926 44.249, 200 48.636 C 192.027 52.555, 189.572 54.201, 178.500 63.047 C 168.624 70.937, 168.357 70.987, 171.945 64.255 C 176.571 55.575, 186.733 43.330, 194.369 37.235 C 201.336 31.674, 203.396 28.735, 204.517 22.763 C 204.939 20.512, 206.131 18.489, 207.602 17.525 C 210.471 15.645, 210.641 13.890, 208.171 11.655 C 205.618 9.344, 201.729 9.593, 198.875 12.250 M 50.248 65.984 C 45.764 70.161, 45.985 78.211, 50.773 85.171 C 55.907 92.632, 61.415 97.544, 71.814 103.934 C 77.342 107.332, 83.532 111.436, 85.570 113.055 C 89.921 116.514, 91.832 116.707, 95.233 114.032 C 97.072 112.584, 97.607 111.396, 97.253 109.542 C 96.487 105.538, 89.413 98.330, 80.097 92.062 C 70.526 85.622, 64.442 79.509, 61.624 73.500 C 60.592 71.300, 59.228 68.375, 58.593 67 C 57.087 63.742, 53.166 63.265, 50.248 65.984 M 124.809 170.750 C 123.983 171.713, 119.990 177.450, 115.936 183.500 C 110.024 192.320, 104.268 198.823, 86.890 216.314 C 64.177 239.174, 61.572 241.927, 58.796 246 C 54.269 252.644, 53.447 253.296, 51.295 251.952 C 48.526 250.223, 46.560 251.197, 43.507 255.810 C 38.460 263.437, 39.674 269.928, 46.504 271.835 C 53.245 273.718, 60.028 269.100, 70.256 255.664 C 73.651 251.204, 83.964 239.546, 93.174 229.757 C 112.579 209.132, 120.999 198.833, 128.140 186.990 C 134.545 176.367, 135.542 173.257, 133.329 170.811 C 131.245 168.509, 126.759 168.476, 124.809 170.750 M 60 181.253 C 56.661 182.819, 53.446 183.382, 47.539 183.432 C 40.073 183.496, 39.488 183.659, 38.142 186.057 C 36.907 188.256, 36.902 189.022, 38.103 191.520 C 38.871 193.118, 41.075 195.496, 43 196.806 C 47.428 199.817, 52.562 199.361, 62.500 195.074 C 71.047 191.387, 72.065 191.343, 75.818 194.500 C 79.422 197.533, 80.956 197.621, 83.811 194.961 C 86.035 192.889, 86.914 187, 85 187 C 84.450 187, 84 186.518, 84 185.929 C 84 182.639, 76.125 178.970, 69.282 179.071 C 66.643 179.110, 62.483 180.088, 60 181.253" stroke="none" fill="black" fill-rule="evenodd"/>
</svg>