<svg xmlns="http://www.w3.org/2000/svg" width="300" height="300" viewBox="0 0 300 300" version="1.1">
	<path d="M 111.107 59.750 C 109.347 61.206, 108.824 63.261, 107.988 72 C 106.632 86.182, 103.988 108.100, 103.376 110.229 C 103.083 111.247, 100.929 112.538, 98.139 113.366 C 91.451 115.352, 79.920 121.346, 77.228 124.236 L 74.957 126.675 77.051 129.338 C 78.953 131.756, 79.757 131.996, 85.823 131.956 C 89.495 131.932, 94.283 131.277, 96.462 130.501 C 98.641 129.725, 100.493 129.182, 100.578 129.295 C 100.765 129.543, 99.626 144.536, 97.992 163.334 C 96.293 182.876, 96.965 198.308, 99.745 203.612 C 103.412 210.608, 111.393 212.836, 119.500 209.125 C 122.916 207.562, 135.782 197.812, 145.250 189.612 C 152.123 183.659, 144.812 175.681, 137.210 180.838 C 131.299 184.847, 117.365 193.742, 115.123 194.939 C 113.176 195.977, 112.591 195.962, 111.888 194.853 C 109.623 191.278, 111.257 150.446, 114.588 127.409 L 115.179 123.319 124.340 120.549 C 140.175 115.762, 142.061 114.365, 140.592 108.512 C 139.656 104.783, 135.815 104.141, 126.588 106.172 C 122.140 107.151, 118.275 107.964, 118 107.978 C 117.296 108.013, 117.791 99.184, 119.579 79.806 C 121.008 64.311, 120.998 62.927, 119.444 60.556 C 117.480 57.557, 114.146 57.235, 111.107 59.750 M 222 58.584 C 214.379 59.859, 207.529 61.516, 199.500 64.025 C 194.550 65.572, 189.211 66.818, 187.636 66.794 C 186.061 66.770, 184.486 67.203, 184.136 67.757 C 182.213 70.802, 160 74.831, 160 72.134 C 160 69.957, 155.421 71.023, 152.223 73.944 C 147.256 78.480, 148.264 83.959, 154.548 86.585 C 158.908 88.406, 162.135 88.368, 172.022 86.375 C 176.456 85.482, 180.296 84.963, 180.556 85.222 C 181.476 86.143, 177.898 108.678, 175.033 120 C 173.432 126.325, 171.146 135.550, 169.952 140.500 C 167.409 151.043, 155.905 187.428, 152.343 196.193 C 145.700 212.544, 129.896 241.957, 126.120 245 C 124.962 245.934, 123 249.967, 123 251.415 C 123 253.807, 125.956 256, 129.180 256 C 134.129 256, 141.527 247.030, 153.923 226 C 157.679 219.628, 168.690 194.908, 170.848 188 C 171.450 186.075, 173.280 180.225, 174.916 175 C 179.767 159.501, 185.611 137.362, 188.377 124 C 190.798 112.309, 191.959 104.460, 193.762 87.597 L 194.500 80.695 200 78.994 C 206.984 76.835, 222.915 73.318, 229.750 72.427 L 235 71.742 235 102.138 C 235 149.787, 232.540 176.838, 226.289 197.941 C 224.895 202.648, 223.366 208.525, 222.893 211 C 221.957 215.888, 218.091 225, 216.952 225 C 216.564 225, 215.235 222.637, 213.999 219.750 C 210.788 212.248, 208.246 209, 205.587 209 C 202.640 209, 200 211.958, 200 215.261 C 200 219.018, 205.698 233.916, 208.581 237.696 C 212.523 242.863, 220.796 243.904, 225.683 239.848 C 228.123 237.823, 234.500 224.176, 237.761 214 C 241.216 203.220, 245.522 183.369, 246.981 171.500 C 248.595 158.363, 250.196 111.764, 249.836 88.356 C 249.389 59.258, 249.080 58.669, 234.101 58.362 C 228.820 58.254, 223.375 58.354, 222 58.584 M 18.395 80.240 C 13.639 85.347, 15.042 90.222, 21.622 91.457 C 27.195 92.502, 33.789 95.900, 36.011 98.871 C 39.595 103.662, 40.057 104, 43.016 104 C 47.123 104, 49.462 100.285, 48.523 95.254 C 47.170 88.005, 35.356 79.435, 25.365 78.456 C 21.244 78.052, 20.178 78.325, 18.395 80.240 M 19.500 139.223 C 14.494 140.910, 13.630 141.553, 12.947 144.105 C 12.081 147.342, 13.367 150.591, 16.091 152.048 C 17.855 152.993, 19.479 152.869, 24.240 151.427 C 31.028 149.372, 33.306 150.073, 33.819 154.373 C 33.994 155.848, 35.226 157.757, 36.569 158.637 C 38.798 160.098, 39.208 160.094, 41.500 158.592 C 44.568 156.582, 44.884 151.275, 42.248 146 C 38.981 139.459, 28.271 136.269, 19.500 139.223 M 42.878 197.298 C 41.987 197.977, 38.895 202.786, 36.009 207.984 C 30.589 217.745, 27.952 222.135, 26.990 223 C 26.249 223.667, 18 237.720, 18 238.317 C 18 238.574, 15.975 242.385, 13.500 246.786 C 10.900 251.409, 9 256.076, 9 257.837 C 9 263.579, 16.667 266.113, 20.783 261.731 C 21.955 260.484, 25.129 254.746, 27.837 248.981 C 30.545 243.217, 37.089 231.084, 42.378 222.021 C 52.552 204.589, 54.252 200.110, 51.676 197.534 C 49.845 195.702, 45.140 195.576, 42.878 197.298" stroke="none" fill="black" fill-rule="evenodd"/>
</svg>