<svg xmlns="http://www.w3.org/2000/svg" width="300" height="300" viewBox="0 0 300 300" version="1.1">
	<path d="M 166.179 11.137 C 160.507 12.771, 158.967 19.758, 162.778 26.568 C 164.074 28.883, 178.341 43.184, 180.916 44.750 C 182.047 45.438, 183.584 46, 184.331 46 C 186.304 46, 189 42.681, 189 40.252 C 189 38.536, 182.326 24.192, 179.813 20.508 C 178.076 17.962, 170.679 10.010, 170.123 10.090 C 169.780 10.140, 168.006 10.611, 166.179 11.137 M 49.229 43.669 C 48.530 43.951, 47.334 45.387, 46.571 46.862 C 45.493 48.948, 45.442 50.008, 46.343 51.639 C 48.168 54.944, 53.822 61, 55.083 61 C 58.007 61, 64.327 65.835, 67.145 70.226 C 70.779 75.888, 73.462 78, 77.023 78 C 80.476 78, 82 76.269, 82 72.347 C 82 67.580, 77.662 59.048, 73.183 55.005 C 70.354 52.452, 58.435 45, 57.180 45 C 56.531 45, 56 44.550, 56 44 C 56 42.974, 51.503 42.754, 49.229 43.669 M 207.500 45.916 C 198.150 47.412, 189.825 48.912, 189 49.250 C 188.175 49.588, 176.475 51.252, 163 52.948 C 132.649 56.769, 126.267 57.876, 124.520 59.623 C 123.763 60.380, 122.854 61, 122.500 61 C 122.146 61, 121.214 61.643, 120.429 62.429 C 118.805 64.052, 118.482 69, 120 69 C 120.550 69, 121 69.666, 121 70.481 C 121 71.295, 122.179 72.258, 123.619 72.619 C 126.874 73.436, 142.952 72.269, 144.420 71.109 C 145.484 70.269, 160 68.532, 160 69.245 C 160 69.447, 158.869 71.145, 157.486 73.019 C 156.103 74.893, 153.997 78.468, 152.805 80.963 C 151.613 83.459, 150.382 85.725, 150.069 86 C 149.756 86.275, 148.037 89.548, 146.248 93.273 C 144.459 96.998, 141.788 101.948, 140.311 104.273 C 138.835 106.598, 136.251 111.200, 134.569 114.500 C 132.888 117.800, 131.230 120.725, 130.885 121 C 129.495 122.107, 121 138.783, 121 140.404 C 121 141.360, 120.343 142.800, 119.539 143.604 C 116.402 146.741, 116.413 158.454, 119.555 159.660 C 120.350 159.964, 121 160.825, 121 161.572 C 121 163.926, 125.024 165.276, 130.213 164.661 C 132.905 164.342, 139.021 162.203, 143.804 159.906 C 154.390 154.824, 164.359 151, 167.023 151 C 168.110 151, 169 150.602, 169 150.117 C 169 149.631, 169.901 148.998, 171.001 148.710 C 172.956 148.199, 172.961 148.258, 171.251 151.217 C 170.288 152.884, 168.713 154.750, 167.750 155.365 C 166.787 155.979, 166 156.887, 166 157.382 C 166 158.625, 157.896 171.421, 156.848 171.833 C 156.382 172.017, 156 172.749, 156 173.461 C 156 174.173, 155.325 175.315, 154.500 176 C 153.675 176.685, 153 178.090, 153 179.122 C 153 180.155, 152.550 181, 152 181 C 151.450 181, 151 181.675, 151 182.500 C 151 183.325, 150.619 184, 150.154 184 C 149.689 184, 147.283 187.262, 144.808 191.250 C 142.332 195.238, 137.239 203.450, 133.490 209.500 C 122.946 226.511, 121 230.917, 121 237.770 C 121 245.573, 123.323 248, 130.795 248 C 135.328 248, 144.822 245.161, 151.236 241.886 C 152.191 241.399, 154.329 241, 155.986 241 C 157.644 241, 159 240.622, 159 240.159 C 159 239.697, 161.588 238.757, 164.750 238.070 C 189.711 232.653, 208.245 226.994, 211 223.947 C 211.275 223.643, 213.127 222.174, 215.115 220.682 L 218.729 217.969 223.024 227.439 C 225.386 232.647, 227.922 237.140, 228.659 237.423 C 229.397 237.706, 230 238.431, 230 239.035 C 230 239.639, 231.069 241.566, 232.376 243.317 C 233.683 245.068, 235.293 248.186, 235.953 250.247 C 238.085 256.902, 243.267 258.824, 247.545 254.545 C 250.350 251.741, 250.737 247.503, 248.634 242.651 C 243.297 230.345, 241 224.568, 241 223.454 C 241 222.746, 240.604 222.017, 240.120 221.833 C 238.910 221.375, 231.306 206.193, 230.437 202.500 C 230.049 200.850, 229.129 198.803, 228.392 197.950 C 227.655 197.098, 226.358 194.431, 225.508 192.024 C 223.991 187.722, 224.008 187.601, 226.528 184.971 C 228.787 182.613, 228.951 181.987, 227.910 179.703 C 227.261 178.277, 226.170 176.895, 225.486 176.633 C 223.580 175.902, 216.682 177.719, 215.527 179.257 C 214.962 180.009, 213.713 180.919, 212.750 181.281 C 211.787 181.642, 211 182.851, 211 183.969 C 211 185.086, 210.550 186, 210 186 C 208.755 186, 208.662 196.709, 209.903 197.167 C 210.400 197.350, 210.962 199.279, 211.153 201.454 C 211.495 205.356, 211.434 205.435, 206.500 207.445 C 203.750 208.566, 201.275 209.736, 201 210.045 C 200.453 210.660, 197.900 211.342, 178.500 216.053 C 171.350 217.790, 160.887 220.446, 155.250 221.956 C 149.613 223.466, 145 224.460, 145 224.166 C 145 222.733, 149.294 215, 150.089 215 C 150.590 215, 151 214.138, 151 213.083 C 151 212.029, 151.338 211.017, 151.750 210.833 C 152.162 210.650, 153.577 208.475, 154.894 206 C 156.211 203.525, 158.747 199.250, 160.529 196.500 C 162.311 193.750, 167.260 185.875, 171.527 179 C 175.794 172.125, 179.559 166.275, 179.893 166 C 180.609 165.410, 182.415 162.285, 185.813 155.750 C 187.172 153.137, 188.670 151, 189.142 151 C 189.614 151, 190 150.347, 190 149.550 C 190 148.752, 190.593 147.740, 191.319 147.300 C 192.684 146.472, 199 137.612, 199 136.525 C 199 135.600, 208.814 121.242, 209.717 120.844 C 210.148 120.655, 211.771 118.123, 213.326 115.218 C 216.714 108.884, 217.812 100.429, 215.607 97.655 C 212.691 93.986, 205.442 97.804, 201.876 104.886 C 201.153 106.324, 196.851 112.945, 192.317 119.599 L 184.074 131.698 176.287 132.347 C 167.753 133.059, 151.745 137.266, 151.185 138.944 C 150.992 139.525, 149.984 140, 148.945 140 C 147.907 140, 144.569 141.100, 141.529 142.445 C 138.488 143.790, 135.999 144.577, 135.998 144.195 C 135.994 142.945, 149.399 116.509, 150.210 116.167 C 150.644 115.983, 151 115.344, 151 114.745 C 151 114.146, 153.888 108.671, 157.418 102.578 C 165.291 88.989, 168.283 80.559, 167.831 73.248 C 167.444 67.002, 165.977 67.707, 184 65.473 C 190.875 64.621, 200.325 63.268, 205 62.465 C 209.675 61.663, 214.963 61.005, 216.750 61.003 C 218.537 61.001, 220 60.608, 220 60.128 C 220 59.648, 221.893 58.953, 224.208 58.583 C 226.522 58.213, 230.330 57.063, 232.670 56.028 C 237.664 53.819, 239.186 50.210, 236.870 46.069 C 235.621 43.836, 234.719 43.480, 229.967 43.348 C 226.960 43.265, 216.850 44.420, 207.500 45.916 M 69 127.688 C 61.449 128.686, 46.881 133.050, 43.071 135.455 C 38.045 138.628, 35.605 143.080, 36.443 147.549 C 36.940 150.196, 37.659 150.986, 40.053 151.512 C 43.396 152.246, 51 151.240, 51 150.064 C 51 148.614, 67.559 142.411, 75.397 140.925 C 83.587 139.372, 86.296 134.954, 82.057 130.065 C 80.004 127.698, 75.343 126.850, 69 127.688 M 71.652 184.402 C 70.092 186.273, 67.721 190.210, 66.383 193.152 C 62.897 200.815, 60.585 205.424, 59.939 206 C 59.630 206.275, 56.526 210.775, 53.040 216 C 47.667 224.056, 42.789 230.756, 34.486 241.483 C 32.348 244.246, 30.764 250.666, 31.571 253.299 C 32.698 256.979, 34.080 258, 37.935 258 C 42.493 258, 44.647 255.862, 52.542 243.500 C 55.703 238.550, 58.787 234.046, 59.395 233.492 C 60.003 232.938, 61.599 230.305, 62.942 227.641 C 64.286 224.978, 67.367 219.843, 69.789 216.232 C 74.778 208.793, 83.534 191.810, 84.388 187.915 C 85.170 184.351, 81.932 181, 77.705 181 C 75.269 181, 73.800 181.826, 71.652 184.402" stroke="none" fill="black" fill-rule="evenodd"/>
</svg>