<svg xmlns="http://www.w3.org/2000/svg" width="300" height="300" viewBox="0 0 300 300" version="1.1">
	<path d="M 197.647 53.750 C 193.002 63.033, 190.249 71.390, 189.494 78.500 C 189.144 81.800, 188.214 89.353, 187.429 95.284 C 186.643 101.216, 186 106.269, 186 106.514 C 186 106.759, 184.313 107.827, 182.250 108.888 C 176.280 111.959, 172.763 116.207, 173.560 119.384 C 174.377 122.637, 177.545 125, 181.089 125 L 183.733 125 184.315 151.250 C 185.184 190.426, 188.754 205.807, 199.466 216.519 C 205.097 222.149, 210.769 224.977, 218.685 226.098 C 238.258 228.869, 283.971 218.078, 289.701 209.333 C 291.930 205.932, 290.458 201.991, 286.154 199.834 C 283.023 198.266, 282.643 198.274, 279.664 199.977 C 272.407 204.124, 244.454 210.056, 228.825 210.766 C 219.301 211.198, 217.662 211.015, 213.634 209.065 C 206.251 205.491, 201.166 194.826, 198.350 177.012 C 196.627 166.111, 195.873 125.288, 197.295 119.851 C 197.842 117.758, 201.920 114.740, 216.744 105.459 C 243.916 88.446, 243.005 89.118, 242.968 86.114 C 242.920 82.170, 240.760 80, 236.883 80 C 232.973 80, 215.585 88.191, 206.673 94.230 C 203.468 96.402, 200.641 97.974, 200.390 97.724 C 199.841 97.175, 203.671 66.263, 205.035 60.236 C 206.468 53.902, 206.215 50.505, 204.171 48.655 C 203.165 47.745, 202.046 47, 201.684 47 C 201.322 47, 199.505 50.038, 197.647 53.750 M 54.849 62.670 C 52.430 63.312, 50.710 68.111, 51.840 71.066 C 53.356 75.031, 56.373 77.003, 62.433 77.989 C 66.509 78.653, 69.134 79.789, 71.606 81.959 C 75.550 85.422, 76.664 85.624, 79.777 83.443 C 82.220 81.732, 82.712 77.658, 80.945 73.779 C 79.425 70.443, 74.200 67.207, 69 66.381 C 66.525 65.987, 63.150 64.842, 61.500 63.836 C 58.469 61.989, 57.835 61.878, 54.849 62.670 M 123.800 72.250 C 121.356 74.180, 117.485 80.969, 115.674 86.500 C 114.774 89.250, 113.735 96.587, 113.365 102.804 C 112.705 113.908, 112.643 114.133, 109.876 115.564 C 104.287 118.455, 103.684 124.587, 108.888 125.628 L 111.615 126.173 109.847 139.836 C 105.388 174.297, 108.850 196.155, 120.460 206.857 C 124.808 210.864, 125.177 211, 131.728 211 C 138.214 211, 138.719 210.821, 143.691 206.750 C 148.111 203.131, 171.845 177.451, 175.797 172.011 C 177.560 169.584, 176.391 165.547, 173.474 163.986 C 169.551 161.887, 166.527 164, 149.710 180.593 C 132.474 197.598, 131.367 198.175, 127.372 192.232 C 122.586 185.112, 121.086 160.877, 123.904 136.209 L 125.309 123.918 132.404 120.599 C 136.307 118.774, 143.775 114.022, 149 110.039 C 154.225 106.056, 160.657 101.157, 163.292 99.153 C 168.829 94.944, 169.945 92.092, 167.512 88.378 C 166.063 86.166, 165.284 85.855, 162.383 86.325 C 158.096 87.021, 145.595 93.864, 139.633 98.780 C 134.654 102.885, 128.263 106.596, 127.495 105.829 C 127.063 105.396, 127.624 97.938, 129.682 76.750 C 130.223 71.175, 130.167 71, 127.811 71 C 126.475 71, 124.670 71.563, 123.800 72.250 M 51.275 129.054 C 45.476 130.282, 39.072 135.530, 39.022 139.095 C 39.010 139.972, 39.892 141.497, 40.982 142.484 C 42.704 144.042, 44.083 144.187, 51.476 143.587 C 59.667 142.923, 60.082 142.991, 62.494 145.403 C 63.872 146.781, 65 148.572, 65 149.383 C 65 153.793, 72.711 155.678, 75.348 151.913 C 76.894 149.706, 76.588 147.727, 73.636 140.870 C 70.318 133.163, 59.318 127.350, 51.275 129.054 M 96.962 140.807 C 94.673 141.508, 91.068 145.090, 87.710 150 C 86.017 152.475, 84.352 154.725, 84.009 155 C 83.666 155.275, 80.507 159.325, 76.990 164 C 73.472 168.675, 70.235 172.650, 69.797 172.833 C 69.359 173.017, 69 173.574, 69 174.072 C 69 174.570, 68.354 175.770, 67.565 176.739 C 65.278 179.547, 60.020 186.728, 52.366 197.500 C 48.457 203, 43.401 209.413, 41.130 211.751 C 36.134 216.893, 35.664 220.755, 39.559 224.650 C 41.830 226.920, 42.634 227.132, 46.690 226.524 C 53.279 225.536, 55.511 224.248, 57.361 220.369 C 58.263 218.479, 59 216.533, 59 216.046 C 59 215.119, 83.690 177.872, 84.882 177 C 85.258 176.725, 87.331 174.025, 89.489 171 C 91.646 167.975, 95.284 163.380, 97.573 160.789 C 99.862 158.198, 102.469 154.530, 103.367 152.638 C 105.186 148.805, 105.538 144, 104 144 C 103.450 144, 103 143.377, 103 142.617 C 103 141.143, 99.393 140.062, 96.962 140.807" stroke="none" fill="black" fill-rule="evenodd"/>
</svg>