<svg xmlns="http://www.w3.org/2000/svg" width="300" height="300" viewBox="0 0 300 300" version="1.1">
	<path d="M 103.392 9.295 C 100.662 10.787, 100.033 12.052, 100.015 16.083 C 100.007 18.054, 99.467 22.322, 98.815 25.568 C 97.210 33.558, 87.130 53.576, 79.395 64.134 C 74.513 70.798, 75.217 74, 81.563 74 C 84.049 74, 85.675 72.982, 89.155 69.250 C 93.169 64.944, 97.680 58.734, 100.605 53.484 C 101.537 51.813, 103.191 51.392, 111.105 50.817 C 116.272 50.441, 123.425 49.644, 127 49.044 C 130.575 48.445, 142.050 47.527, 152.500 47.005 C 181.285 45.567, 200.011 40.790, 201.594 34.481 C 202.089 32.507, 201.724 31.280, 200.183 29.739 L 198.104 27.660 188.302 29.806 C 179.469 31.739, 154.925 34.562, 125.822 36.991 C 119.949 37.481, 113.544 38.182, 111.589 38.549 L 108.033 39.216 110.064 33.358 C 111.181 30.136, 112.359 24.730, 112.683 21.345 C 113.185 16.097, 112.960 14.752, 111.154 12.216 C 108.721 8.799, 106.103 7.814, 103.392 9.295 M 150 65.550 C 139.275 66.829, 127.102 67.903, 122.950 67.938 C 114.684 68.006, 113 68.884, 113 73.127 C 113 76.373, 116.725 79.670, 121.379 80.543 C 125.789 81.371, 162.973 77.367, 171.518 75.144 C 181.138 72.642, 183 71.510, 183 68.165 C 183 62.158, 180.266 61.941, 150 65.550 M 201 88.912 C 195.006 92.291, 182.153 95.752, 158.500 100.356 C 135.667 104.800, 116.184 107.060, 97.573 107.424 C 84.354 107.682, 79.036 108.156, 76.671 109.288 C 74.927 110.123, 72.263 111.290, 70.750 111.882 C 67.630 113.102, 67.150 115.485, 69.750 116.845 C 74.725 119.448, 128.810 115.830, 158 110.941 C 169.379 109.035, 191.900 104.344, 194.609 103.315 C 195.401 103.015, 195.470 104.410, 194.850 108.197 C 190.836 132.731, 189.694 176.356, 192.474 199 C 194.690 217.050, 196.761 229.527, 198.574 235.760 C 201.963 247.414, 204.300 254.742, 207.736 264.500 C 213.534 280.962, 215.827 284.415, 221.749 285.600 C 226.148 286.480, 229.212 283.134, 230.889 275.622 C 232.774 267.177, 230.229 263.053, 224.397 265.100 C 222.662 265.710, 222.005 265.235, 220.647 262.386 C 219.741 260.486, 219 258.074, 219 257.025 C 219 255.976, 218.612 254.878, 218.137 254.585 C 217.663 254.291, 216.704 251.902, 216.008 249.276 C 215.311 246.649, 213.715 241.350, 212.461 237.500 C 209.045 227.013, 206.284 212.981, 204.884 199 C 201.832 168.518, 204.760 106.803, 209.730 96.840 C 211.126 94.041, 211.144 93.346, 209.878 91.078 C 208.363 88.367, 203.899 87.277, 201 88.912 M 138.200 124.200 C 137.540 124.860, 137 125.773, 137 126.229 C 137 126.686, 135.200 129.336, 133 132.119 C 130.800 134.902, 129 137.608, 129 138.131 C 129 138.655, 127.577 142.102, 125.837 145.792 L 122.674 152.500 121.839 149.367 C 120.915 145.901, 119.013 145.035, 112.270 145.014 C 109.944 145.006, 106.231 144.276, 104.021 143.392 C 98.927 141.353, 95.252 142.207, 93.909 145.739 C 91.330 152.523, 96.783 157, 107.625 157 C 111.413 157, 115.973 156.581, 117.757 156.070 C 119.540 155.558, 121 155.391, 121 155.698 C 121 157.631, 107.991 178.237, 104.844 181.289 C 102.467 183.595, 102.511 185.511, 105 188 C 109.701 192.701, 115.994 189.146, 123.584 177.502 C 126.632 172.826, 129.376 169, 129.681 169 C 129.986 169, 131.774 170.350, 133.653 172 C 135.532 173.650, 137.579 175, 138.201 175 C 138.823 175, 142.547 177.004, 146.476 179.452 C 156.461 185.676, 158.705 186.424, 161.635 184.504 C 165.792 181.780, 164.752 178.470, 157.556 171.517 C 152.590 166.720, 150.008 165.014, 146.306 164.082 C 134.702 161.164, 133.928 160.802, 134.619 158.626 C 134.976 157.502, 137.247 152.459, 139.665 147.421 C 144.823 136.679, 146.138 129.385, 143.613 125.531 C 141.801 122.767, 140.061 122.339, 138.200 124.200 M 152.844 129.027 C 151.809 129.631, 150.936 131.964, 150.515 135.247 C 150.144 138.136, 149.342 141.946, 148.733 143.714 C 147.796 146.431, 147.909 147.242, 149.467 148.964 C 154.574 154.607, 163 146.664, 163 136.206 C 163 130.040, 157.622 126.238, 152.844 129.027 M 128.828 188.943 C 126.847 191.290, 124.518 195.945, 123.074 200.443 C 120.258 209.215, 120.638 209.074, 107.260 206.302 C 99.155 204.622, 98.976 204.627, 96.260 206.647 C 94.742 207.777, 93.356 209.667, 93.181 210.849 C 92.766 213.638, 95.332 214.604, 107.482 216.234 L 116.918 217.500 113.343 224.500 C 101.886 246.933, 99.847 249.895, 92.250 255.154 C 88.992 257.409, 88 258.739, 88 260.848 C 88 266.248, 92.953 267.595, 99.857 264.073 C 104.815 261.543, 115.045 250.534, 118.672 243.823 C 121.958 237.743, 123.610 237.424, 128.500 241.925 C 133.879 246.876, 138.631 249.153, 158.500 256.300 C 172.521 261.343, 178.145 262.500, 188.645 262.500 C 197.219 262.500, 199.117 262.205, 200.895 260.595 C 203.457 258.276, 203.601 254.898, 201.250 252.253 C 199.875 250.706, 197.140 250.012, 188.500 249.020 C 173.168 247.258, 145.464 237.941, 138.917 232.345 C 138.046 231.600, 135.081 230.206, 132.328 229.246 L 127.322 227.500 128.848 224 C 134.458 211.128, 138.246 198.865, 138.178 193.792 C 138.052 184.373, 134.319 182.437, 128.828 188.943 M 155.028 200.113 C 151.767 201.415, 150.855 202.963, 151.561 206 C 152.213 208.802, 156.748 214, 158.541 214 C 160.573 214, 165 209.182, 165 206.971 C 165 204.897, 159.971 198.937, 158.327 199.063 C 157.872 199.098, 156.388 199.571, 155.028 200.113" stroke="none" fill="black" fill-rule="evenodd"/>
</svg>