<svg xmlns="http://www.w3.org/2000/svg" width="300" height="300" viewBox="0 0 300 300" version="1.1">
	<path d="M 129.034 28.958 C 127.928 29.657, 127.527 32.300, 127.402 39.693 C 127.254 48.449, 126.748 50.947, 122.684 63 C 111.371 96.546, 106.925 106.235, 98.250 116.253 C 94.381 120.720, 93.759 126.265, 96.934 127.965 C 97.998 128.534, 99.309 129, 99.848 129 C 102.291 129, 115.562 113.687, 119.099 106.787 C 124.223 96.793, 129 85.522, 129 83.427 C 129 81.808, 129.124 81.802, 130.829 83.345 C 131.835 84.255, 133.781 85, 135.154 85 C 137.883 85, 155.316 79.162, 163.828 75.397 C 174.376 70.732, 182.709 68.904, 197.774 67.949 C 207.777 67.315, 212.751 67.351, 213.461 68.061 C 214.923 69.524, 214.626 181.217, 213.082 210.500 C 211.395 242.474, 208.530 262.940, 204.508 271.750 C 202.438 276.283, 201.728 276.996, 199.305 276.973 C 197.553 276.957, 194.248 275.242, 190.500 272.406 C 185.556 268.664, 183.981 267.967, 181.550 268.447 C 174.752 269.790, 175.412 274.285, 183.520 281.870 C 191.430 289.269, 194.900 291.167, 200.522 291.167 C 210.482 291.167, 216.160 284.311, 220.948 266.500 C 224.486 253.339, 229 173.783, 229 124.585 C 229 92.217, 227.052 64.935, 224.371 59.750 C 221.616 54.423, 219.016 54.266, 186.500 57.464 C 175.781 58.519, 171.864 59.386, 164.178 62.408 C 159.051 64.424, 154.101 66.522, 153.178 67.071 C 152.255 67.619, 147.201 69.528, 141.947 71.312 L 132.394 74.556 134.105 69.528 C 137.900 58.377, 140 48.842, 140 42.766 C 140 36.864, 139.719 36.031, 136.422 32.180 C 132.738 27.876, 131.558 27.361, 129.034 28.958 M 34.655 72.829 C 33.745 73.835, 33 75.633, 33 76.825 C 33 79.438, 44.595 92.422, 50.123 96 C 53.211 97.999, 53.987 99.112, 53.993 101.550 C 54.012 109.897, 63.845 108.023, 65.582 99.340 C 66.500 94.748, 64.046 91.006, 53.193 80.453 C 44.621 72.117, 43.084 71.026, 39.905 71.014 C 37.678 71.005, 35.680 71.696, 34.655 72.829 M 137.055 152.657 C 135.680 154.405, 135.188 156.030, 135.617 157.407 C 136.532 160.342, 143.358 168.332, 146.162 169.750 C 151.001 172.197, 160.294 176, 161.433 176 C 163.283 176, 165.734 173.715, 166.440 171.332 C 167.236 168.645, 162.395 162.776, 157.095 160 C 155.118 158.965, 152.150 156.824, 150.500 155.243 C 147.901 152.753, 142.348 150, 139.923 150 C 139.495 150, 138.205 151.196, 137.055 152.657 M 41.500 163.645 C 37.650 165.013, 33.375 166.399, 32 166.727 C 24.289 168.561, 26.034 180, 34.025 180 C 35.689 180, 40.132 178.448, 43.898 176.551 C 47.665 174.654, 53.166 172.795, 56.123 172.418 C 62.551 171.600, 64 170.621, 64 167.093 C 64 160.883, 53.714 159.307, 41.500 163.645 M 73.681 174.250 C 72.345 175.488, 70.227 179.425, 68.975 183 C 65.295 193.513, 55.406 211.762, 52.808 212.833 C 52.364 213.017, 52 213.740, 52 214.440 C 52 215.141, 49.863 218.591, 47.250 222.107 C 44.638 225.623, 41.645 229.850, 40.601 231.500 C 38.737 234.443, 33.536 239.796, 29.194 243.240 C 26.486 245.388, 26.298 250.055, 28.829 252.345 C 29.869 253.286, 32.330 254, 34.536 254 C 37.979 254, 39.094 253.299, 44.480 247.750 C 52.875 239.101, 69.403 211.958, 77.361 193.750 C 78.262 191.688, 79.765 188.313, 80.700 186.250 C 85.190 176.341, 80.354 168.072, 73.681 174.250" stroke="none" fill="black" fill-rule="evenodd"/>
</svg>