<svg xmlns="http://www.w3.org/2000/svg" width="300" height="300" viewBox="0 0 300 300" version="1.1">
	<path d="M 114.611 9.532 C 113.031 11.112, 112.492 13.506, 111.567 23.051 C 110.860 30.348, 108.116 38.192, 101.822 50.910 C 97.787 59.062, 95.187 62.820, 89.835 68.236 C 86.076 72.041, 83 75.949, 83 76.922 C 83 79.659, 86.543 82.339, 89.210 81.619 C 95.052 80.041, 104.897 69.960, 112.763 57.500 C 114.599 54.591, 118.070 46.972, 119.142 43.500 C 122.380 33.005, 125 21.603, 125 18.004 C 125 10.302, 118.853 5.290, 114.611 9.532 M 183 29.486 C 173.546 32.171, 142.657 37.691, 133.412 38.348 C 126.750 38.822, 123.765 40.203, 121.910 43.669 C 119.604 47.976, 121.543 48.594, 137.202 48.545 C 156.318 48.485, 172.772 45.065, 190.750 37.415 C 194.406 35.859, 195.166 32.309, 192.429 29.571 C 190.606 27.749, 189.163 27.736, 183 29.486 M 171 68.503 C 160.686 71.535, 147.314 73.810, 136 74.458 C 125.708 75.047, 121.789 76.751, 121.173 80.905 C 120.472 85.637, 122.432 86.297, 135.477 85.726 C 149.427 85.116, 164.733 82.224, 174 78.449 C 182.306 75.065, 183.166 74.307, 182.801 70.693 C 182.368 66.409, 179.768 65.926, 171 68.503 M 180.500 107.455 C 169.414 109.774, 159.124 112.290, 138 117.845 C 131.675 119.508, 122.900 121.152, 118.500 121.499 C 102.486 122.759, 97 124.958, 97 130.116 C 97 132.553, 98.100 132.675, 113.500 131.943 C 127.581 131.274, 132.117 130.483, 150.500 125.483 C 156 123.987, 162.300 122.415, 164.500 121.989 C 166.700 121.562, 172.775 120.239, 178 119.047 C 183.225 117.856, 188.920 116.631, 190.655 116.325 L 193.811 115.769 194.239 143.635 C 194.663 171.167, 196.366 192.232, 199.605 210 C 206.046 245.332, 215.370 272.926, 223.052 279.391 C 226.446 282.246, 232.930 282.994, 234.797 280.744 C 236.391 278.824, 237.287 274.278, 236.606 271.567 C 235.908 268.784, 232.538 267.308, 230.585 268.930 C 229.618 269.732, 228.994 269.687, 228.249 268.762 C 226.388 266.451, 223.236 258.618, 219.693 247.500 C 209.554 215.681, 206.356 192.862, 205.471 146 C 204.822 111.583, 204.647 109.647, 201.944 106.944 C 199.399 104.399, 194.560 104.514, 180.500 107.455 M 146.500 141.626 C 145.400 142.485, 141.369 144.729, 137.543 146.614 C 133.716 148.499, 129.600 150.967, 128.395 152.099 C 126.336 154.033, 126.032 154.061, 123.352 152.572 C 121.783 151.700, 119.317 150.042, 117.870 148.888 C 112.927 144.942, 108.056 149.384, 111.523 154.676 C 112.452 156.094, 114.515 157.745, 116.106 158.346 C 117.698 158.947, 119 159.831, 119 160.311 C 119 160.791, 116.075 164.010, 112.500 167.464 C 105.165 174.550, 104.120 178.138, 108.250 182.057 C 110.194 183.902, 111.350 184.127, 116.750 183.711 C 122.893 183.239, 123.975 183.625, 122.011 185.589 C 121.467 186.133, 120.893 189.711, 120.735 193.539 L 120.450 200.500 117.019 200.829 C 113.153 201.199, 108 204.437, 108 206.496 C 108 208.952, 113.059 212, 117.135 212 L 121 212 121 217.849 L 121 223.698 111.250 224.346 C 97.790 225.240, 83.880 229.263, 82.586 232.635 C 80.453 238.195, 91.477 240.882, 102.591 237.511 C 105.291 236.692, 111.150 236.017, 115.611 236.011 L 123.721 236 124.306 240.750 C 125.082 247.053, 130.387 262.665, 132.573 265.081 C 134.677 267.406, 138.291 267.566, 140.429 265.429 C 142.433 263.425, 142.509 264.204, 139.006 250.884 C 137.360 244.623, 136.010 238.713, 136.006 237.750 C 136.001 236.185, 137.210 236, 147.465 236 C 158.863 236, 158.951 235.982, 162.465 232.896 C 166.522 229.335, 166.812 227.812, 163.977 224.977 C 162.291 223.291, 161.593 223.148, 159.783 224.116 C 157.775 225.191, 135.534 224.867, 134.414 223.747 C 134.189 223.522, 133.710 220.518, 133.350 217.072 C 132.607 209.970, 133.227 209.080, 139 208.954 C 144.979 208.824, 153.108 205.736, 155.339 202.748 C 156.985 200.543, 157.198 199.464, 156.424 197.252 C 155.407 194.349, 151.866 193.062, 149.695 194.806 C 148.218 195.993, 138.945 198, 134.939 198 C 132.018 198, 131.986 197.940, 132.627 193.750 C 132.985 191.412, 133.778 187.944, 134.389 186.042 C 135.429 182.805, 135.902 182.503, 141.812 181.310 C 150.596 179.536, 154.680 177.413, 155.486 174.200 C 156.004 172.136, 155.636 171.124, 153.839 169.669 C 151.958 168.145, 150.497 167.905, 146.013 168.382 C 142.981 168.704, 137.350 169.258, 133.500 169.612 L 126.500 170.256 130 166.548 C 131.925 164.508, 136.690 160.429, 140.590 157.484 C 148.142 151.780, 154 145.743, 154 143.665 C 154 140.187, 149.804 139.046, 146.500 141.626" stroke="none" fill="black" fill-rule="evenodd"/>
</svg>