<svg xmlns="http://www.w3.org/2000/svg" width="300" height="300" viewBox="0 0 300 300" version="1.1">
	<path d="M 115.006 8.493 C 114.324 9.314, 112.481 12.577, 110.910 15.743 C 106.736 24.154, 95.670 39.413, 88.553 46.571 C 86.874 48.261, 83.863 51.636, 81.862 54.071 C 79.861 56.507, 77.230 59.625, 76.016 61 C 74.802 62.375, 73.124 64.817, 72.287 66.428 C 70.888 69.119, 70.911 69.462, 72.574 70.678 C 73.568 71.405, 75.264 72, 76.341 72 C 78.544 72, 97.316 53.999, 105.183 44.343 C 110.198 38.186, 110.200 38.185, 113.349 39.501 C 115.959 40.591, 121.397 40.580, 145 39.436 C 160.675 38.676, 174.625 37.834, 176 37.566 C 177.375 37.297, 181.978 37.586, 186.229 38.208 C 195.364 39.545, 199 38.531, 199 34.644 C 199 31.462, 197.730 30.611, 189.874 28.527 C 184.059 26.985, 179.838 26.832, 155.374 27.273 C 127.196 27.782, 119.520 28.719, 115.248 32.174 C 114.347 32.903, 114.999 31.465, 116.697 28.977 C 121.260 22.290, 122.683 16.787, 121.037 12.186 C 119.192 7.030, 117.221 5.824, 115.006 8.493 M 170.500 55.113 C 168.300 55.612, 164.475 56.503, 162 57.093 C 157.701 58.118, 151.064 58.910, 130 60.913 C 116.064 62.238, 112.587 63.992, 114.992 68.485 C 118.034 74.169, 127.486 74.372, 152.500 69.290 C 180.090 63.684, 185.892 61.147, 182.430 56.204 C 180.747 53.801, 177.571 53.510, 170.500 55.113 M 186.500 88.588 C 179.350 89.331, 166.525 90.661, 158 91.543 C 149.475 92.425, 137.550 93.790, 131.500 94.578 C 125.450 95.365, 114.875 96.265, 108 96.578 C 93.543 97.236, 88 98.914, 88 102.633 C 88 104.370, 88.699 105.105, 90.750 105.526 C 92.263 105.837, 95.127 106.520, 97.116 107.045 C 102.963 108.589, 109.103 108.153, 134.044 104.426 C 139.293 103.642, 146.268 103.001, 149.544 103.003 C 152.820 103.005, 161.125 102.351, 168 101.550 C 197.276 98.138, 203.082 97.871, 206.941 99.759 L 210.500 101.500 211.078 133 C 211.396 150.325, 212.196 168.100, 212.856 172.500 C 217.158 201.159, 219.139 210.502, 224.023 225.173 C 232.330 250.125, 239.811 258.455, 252.240 256.591 C 258.092 255.714, 263.576 250.432, 262.615 246.601 C 261.647 242.744, 258.771 241.651, 254.401 243.477 C 252.396 244.315, 249.995 245, 249.065 245 C 245.243 245, 240.157 236.903, 236.503 225 C 235.575 221.975, 234.457 218.375, 234.020 217 C 230.712 206.594, 227.488 191.360, 225.556 177 C 223.842 164.264, 222 127.552, 222 106.143 C 222 93.662, 221.808 92.136, 220.035 90.532 C 218.757 89.375, 217.134 88.932, 215.391 89.266 C 213.918 89.547, 211.216 89.153, 209.388 88.389 C 205.514 86.770, 203.849 86.785, 186.500 88.588 M 155.500 120.410 C 154.400 121.128, 149 122.428, 143.500 123.299 C 129.890 125.456, 118.112 127.200, 114.500 127.595 C 109.846 128.103, 100.096 131.473, 97.941 133.318 C 95.775 135.173, 95.357 139.957, 97.200 141.800 C 98.841 143.441, 103.024 143.306, 107.422 141.468 C 109.438 140.626, 111.518 140.202, 112.044 140.527 C 112.570 140.852, 113 145.816, 113 151.559 C 113 160.063, 112.728 162, 111.535 162 C 108.722 162, 100.476 165.224, 97.435 167.513 L 94.370 169.819 91.260 166.337 C 88.187 162.895, 88.120 162.875, 85.525 164.576 C 83.772 165.724, 83.113 166.828, 83.543 167.898 C 83.896 168.779, 84.387 185.460, 84.633 204.966 C 85.102 242.148, 85.075 241.952, 89.595 241.985 C 93.998 242.017, 95.473 238.604, 95.837 227.553 C 96.161 217.688, 96.253 217.324, 98.337 217.679 C 99.526 217.882, 101.016 217.699, 101.647 217.274 C 104.974 215.029, 117.939 184.975, 120.438 173.715 C 120.828 171.955, 122.017 170.564, 123.667 169.937 C 125.103 169.391, 126.401 169.069, 126.552 169.222 C 126.703 169.375, 126.435 171.525, 125.957 174 C 124.517 181.450, 124.857 195.859, 126.621 202.146 C 128.634 209.322, 133.405 215.069, 140.308 218.635 C 144.766 220.938, 146.772 221.327, 154.500 221.384 C 161.268 221.435, 164.306 221.017, 166.750 219.700 L 170 217.949 170 220.438 C 170 221.808, 169.491 227.408, 168.868 232.882 C 168.074 239.865, 167.378 242.698, 166.535 242.375 C 165.851 242.113, 165.370 240.159, 165.417 237.838 C 165.562 230.713, 164.468 230.702, 133.500 237.524 C 117.678 241.010, 109.823 242.156, 96.750 242.885 C 84.189 243.585, 82.780 243.858, 80.458 246.039 C 79.009 247.400, 78.042 249.291, 78.208 250.438 C 78.453 252.122, 79.803 252.673, 86.500 253.825 C 92.986 254.940, 96.581 254.978, 105.500 254.028 C 111.550 253.384, 118.300 252.374, 120.500 251.785 C 122.700 251.195, 126.075 250.374, 128 249.960 C 129.925 249.546, 137.800 247.592, 145.500 245.617 C 161.069 241.626, 161.913 241.487, 160.200 243.200 C 158.263 245.137, 158.803 247.437, 161.888 250.393 C 163.639 252.071, 166.297 253.363, 168.638 253.675 C 174.118 254.406, 177.400 251.564, 179.547 244.228 C 181.021 239.194, 181.165 234.259, 180.736 203.500 C 180.402 179.548, 179.834 166.823, 178.937 163.186 C 176.491 153.267, 169.786 149.649, 158.295 152.050 C 155.108 152.717, 149.941 153.567, 146.813 153.940 L 141.126 154.618 141.707 151.559 C 142.026 149.877, 142.411 148.349, 142.562 148.165 C 142.713 147.981, 142.386 146.537, 141.835 144.956 C 139.387 137.934, 132.236 141.899, 130.095 151.465 C 129.070 156.044, 128.455 156.994, 125.946 157.869 L 123 158.896 123 148.685 L 123 138.474 135.250 136.623 C 155.699 133.534, 164 130.324, 164 125.504 C 164 124.147, 162.881 122.265, 161.365 121.073 C 158.327 118.683, 158.173 118.666, 155.500 120.410 M 150.500 165 C 148.850 165.420, 145.596 165.817, 143.269 165.882 C 137.910 166.032, 137.655 166.887, 137.566 185 C 137.493 199.852, 138.443 203.012, 144.287 207.368 C 148.532 210.532, 161.057 210.397, 166.311 207.131 C 168.828 205.566, 169.928 204.255, 169.551 203.271 C 169.236 202.452, 168.730 194.293, 168.426 185.141 C 167.665 162.257, 168.335 163.976, 160.231 164.118 C 156.529 164.183, 152.150 164.580, 150.500 165 M 102.347 177.567 C 99.513 178.938, 96.695 180.662, 96.085 181.397 C 95.326 182.313, 95.185 186.396, 95.640 194.352 C 96.394 207.568, 95.906 207.816, 103.220 190.500 C 108.477 178.054, 109.489 174.984, 108.317 175.037 C 107.868 175.057, 105.181 176.195, 102.347 177.567" stroke="none" fill="black" fill-rule="evenodd"/>
</svg>