<svg xmlns="http://www.w3.org/2000/svg" width="300" height="300" viewBox="0 0 300 300" version="1.1">
	<path d="M 126 30.976 C 124.190 32.117, 123.626 40.352, 122.127 87.500 C 121.189 117.017, 120.493 126.767, 117.094 158 C 116.091 167.218, 116.085 167.250, 112.984 180.500 C 110.103 192.812, 102.757 215.391, 99.599 221.645 C 96.437 227.906, 96.262 231.535, 99.049 233.026 C 103.174 235.234, 106.274 233.836, 110.194 228 C 112.226 224.975, 115.062 220.118, 116.496 217.207 C 119.507 211.095, 129.195 173.814, 131.380 159.927 C 133.785 144.646, 135.500 111.580, 135.500 80.500 C 135.500 49.087, 134.311 36.937, 130.801 32.474 C 128.651 29.741, 128.188 29.597, 126 30.976 M 175.144 36.327 C 172.875 39.060, 170.979 45.165, 169.595 54.191 C 167.659 66.815, 166.427 166.595, 167.961 186.500 C 170.814 223.513, 172.375 228.450, 180.574 226.392 L 182.707 225.857 182.401 146.178 C 182.049 54.791, 181.626 37.014, 179.772 35.838 C 177.917 34.660, 176.393 34.822, 175.144 36.327 M 235.823 52.177 L 233.676 54.324 234.464 112.412 C 236.539 265.437, 236.569 272.439, 235.155 273.680 C 234.415 274.328, 233.740 276.353, 233.655 278.180 C 233.519 281.087, 233.967 281.728, 237.251 283.333 C 242.177 285.740, 245.882 284.597, 248.248 279.940 C 249.856 276.778, 249.995 271.698, 249.972 217 C 249.949 161.183, 248.831 121.930, 246.027 78.500 C 244.677 57.593, 243.662 52.623, 240.444 51.156 C 238.349 50.202, 237.642 50.358, 235.823 52.177 M 25 71.727 C 22.138 72.813, 18 77.994, 18 80.491 C 18 84.061, 21.332 87, 25.380 87 C 28.145 87, 29.390 87.773, 32.228 91.250 C 34.136 93.588, 36.252 97.191, 36.929 99.258 C 39.202 106.196, 46.093 106.945, 47.886 100.449 C 48.655 97.665, 48.447 95.701, 46.907 91.207 C 42.326 77.839, 32.326 68.947, 25 71.727 M 87.697 111.250 C 85.393 112.960, 84.390 121.114, 86.005 125.012 C 87.372 128.313, 92.708 131.927, 100.033 134.512 C 104.928 136.241, 108.457 135.856, 109.363 133.497 C 109.982 131.883, 108.174 127, 106.958 127 C 105.123 127, 96.913 118.125, 95.856 115 C 94.140 109.925, 91.265 108.603, 87.697 111.250 M 158.648 117.137 C 157.629 117.729, 155.722 120.641, 154.410 123.607 L 152.025 129 146.467 129 C 141.925 129, 140.468 129.441, 138.495 131.414 C 135.612 134.297, 134.320 138.696, 135.708 140.905 C 137.192 143.266, 151.420 143.712, 155.500 141.525 C 159.688 139.280, 163.702 133.242, 165.438 126.578 C 167.133 120.070, 166.838 118.703, 163.398 117.135 C 160.467 115.800, 160.949 115.800, 158.648 117.137 M 189.589 126.077 C 186.508 129.738, 186.339 131.962, 188.899 135.123 L 190.797 137.468 195.985 135.602 C 200.472 133.989, 201.690 133.908, 204.998 134.999 C 212.381 137.436, 216.914 133.703, 212.848 128.534 C 210.592 125.666, 202.671 123, 196.407 123 C 192.912 123, 191.728 123.534, 189.589 126.077 M 17.789 133.338 C 14.552 135.846, 13.765 139.863, 15.727 143.875 C 17.168 146.822, 19.064 148.277, 25.858 151.652 C 30.454 153.936, 35.873 157.423, 37.900 159.402 C 45.108 166.441, 50.540 162.322, 46.572 152.827 C 44.909 148.846, 40.892 145.301, 32.447 140.358 C 29.118 138.410, 25.968 135.844, 25.447 134.658 C 24.333 132.120, 20.266 131.419, 17.789 133.338 M 61.755 173.656 C 56.845 178.872, 45.632 192.432, 40.069 199.879 C 38.182 202.406, 35.785 205.379, 34.743 206.486 C 32.886 208.461, 29.807 212.821, 17.228 231.291 C 13.779 236.356, 10.440 242.203, 9.809 244.285 C 8.804 247.602, 8.912 248.406, 10.680 250.785 C 11.959 252.507, 13.825 253.613, 15.780 253.808 C 18.428 254.073, 19.399 253.437, 22.681 249.284 C 24.781 246.626, 28.444 241.312, 30.821 237.475 C 34.652 231.292, 38.663 225.435, 55.929 200.815 C 58.365 197.342, 63.472 190.703, 67.279 186.062 C 73.554 178.413, 74.149 177.303, 73.643 174.188 C 72.970 170.041, 73.084 170.167, 69.334 169.417 C 66.676 168.885, 65.767 169.394, 61.755 173.656" stroke="none" fill="black" fill-rule="evenodd"/>
</svg>