<svg xmlns="http://www.w3.org/2000/svg" width="300" height="300" viewBox="0 0 300 300" version="1.1">
	<path d="M 249.015 27.707 L 246.886 30.415 247.533 108.457 C 248.133 180.790, 247.243 238.471, 245.429 244.713 L 244.786 246.925 239.643 244.320 C 236.814 242.888, 231.642 239.979, 228.148 237.858 C 221.108 233.583, 218.126 233.098, 215.655 235.829 C 212.545 239.266, 213.887 243.004, 219.500 246.540 C 221.150 247.579, 225.696 250.762, 229.602 253.613 C 239.206 260.621, 242.127 262, 247.374 262 C 254.143 262, 257.458 258.736, 259.333 250.223 C 261.727 239.359, 262.346 183.442, 260.972 102.305 C 259.769 31.269, 259.689 29.445, 257.695 27.250 C 254.951 24.229, 251.613 24.405, 249.015 27.707 M 159.084 40.169 C 155.894 42.516, 151.432 44.195, 141.902 46.636 C 126.960 50.463, 114.146 54.691, 112 56.501 C 111.175 57.197, 108.606 58.719, 106.291 59.883 C 101.367 62.358, 97 66.746, 97 69.217 C 97 70.172, 98.013 71.617, 99.250 72.427 C 102.088 74.286, 105.661 73.538, 120.375 68.005 C 126.356 65.756, 131.413 64.080, 131.613 64.280 C 131.989 64.656, 130.138 96.295, 129.730 96.475 C 129.603 96.530, 124.325 98.043, 118 99.836 C 111.675 101.629, 104.822 104.199, 102.771 105.548 C 100.721 106.897, 98.789 108, 98.479 108 C 97.752 108, 95.586 109.723, 91.377 113.650 C 87.595 117.178, 87.034 120.412, 89.934 121.965 C 93.814 124.041, 99.360 123.068, 109 118.619 C 114.225 116.208, 120.862 113.549, 123.750 112.710 L 129 111.184 128.993 113.842 C 128.989 115.304, 128.702 119.500, 128.356 123.166 C 127.768 129.394, 127.513 129.947, 124.482 131.579 C 122.698 132.540, 120.554 134.490, 119.717 135.913 C 115.819 142.543, 112.705 149.026, 110.554 154.993 C 104.476 171.850, 88.698 205.765, 85.112 209.680 C 78.276 217.145, 77.219 222.762, 82.393 224.136 C 87.301 225.438, 92.891 221.185, 99.812 210.882 C 104.736 203.552, 121.928 168.046, 122.061 164.930 C 122.095 164.144, 123.186 161.250, 124.485 158.500 L 126.848 153.500 126.410 158 C 126.168 160.475, 124.619 175.399, 122.967 191.165 C 121.315 206.931, 119.551 226.325, 119.048 234.263 C 117.840 253.331, 114.489 265.893, 109.061 271.708 C 105.482 275.543, 107.094 281, 111.807 281 C 116.410 281, 121.449 275.875, 124.829 267.756 C 128.794 258.231, 130.413 248.844, 133.501 217.500 C 138.865 163.055, 137.999 168.963, 140.391 170.448 C 141.551 171.167, 144.037 172.040, 145.915 172.386 C 147.793 172.732, 153.455 175.662, 158.498 178.896 C 172.194 187.680, 173.622 188.291, 179.198 187.755 C 185.633 187.137, 189 184.081, 189 178.861 C 189 173.955, 186.697 172.522, 182.264 174.669 C 179.285 176.112, 178.861 176.049, 174.115 173.466 C 171.361 171.967, 167.452 169.224, 165.428 167.370 C 163.404 165.517, 161.393 164, 160.958 164 C 160.523 164, 160.017 163.575, 159.833 163.056 C 159.650 162.536, 155.028 160.952, 149.563 159.536 C 144.098 158.119, 139.409 156.742, 139.143 156.477 C 138.878 156.211, 139.499 145.001, 140.525 131.566 L 142.391 107.139 146.483 106.109 C 151.093 104.948, 163.665 96.513, 166.884 92.421 C 169.025 89.699, 169.578 86.412, 168.235 84.400 C 167.051 82.627, 162.801 80.717, 162.123 81.652 C 160.675 83.649, 153.853 88.090, 148.805 90.323 L 143.372 92.726 143.809 78.613 C 144.137 68.046, 144.593 64.299, 145.624 63.700 C 146.381 63.260, 147 62.350, 147 61.677 C 147 61.004, 150.262 59.370, 154.250 58.046 C 161.674 55.580, 170.319 50.217, 171.397 47.409 C 173.285 42.487, 170.515 37, 166.140 37 C 164.629 37, 161.455 38.426, 159.084 40.169 M 28 47.725 C 25.069 48.874, 22.900 52.371, 23.202 55.458 C 23.461 58.104, 24.346 58.921, 30 61.737 C 37.765 65.605, 42 69.899, 42 73.905 C 42 81.631, 49.716 83.317, 52.674 76.237 C 53.963 73.153, 54.022 71.678, 53.037 67.273 C 52.388 64.373, 51.551 61.999, 51.178 61.997 C 50.805 61.996, 49.600 60.638, 48.500 58.980 C 44.342 52.713, 32.232 46.065, 28 47.725 M 203.791 84.681 C 201.325 85.330, 198.393 90.654, 197.006 97 C 194.901 106.636, 199.881 147.730, 204.461 158.511 C 207 164.489, 214.259 165.586, 217.594 160.497 C 219.112 158.180, 219.080 157.801, 217.083 154.415 C 214.514 150.062, 212.378 130.785, 211.552 104.500 C 211.056 88.746, 210.862 87.372, 208.898 85.750 C 207.732 84.787, 206.491 84.052, 206.139 84.116 C 205.788 84.180, 204.731 84.434, 203.791 84.681 M 16.658 129.367 C 10.051 131.474, 7.283 137.103, 10.557 141.777 C 12.474 144.514, 16.927 144.703, 23.124 142.311 C 26.465 141.021, 31.011 140.596, 42.348 140.511 C 55.166 140.416, 57.325 140.170, 58.140 138.714 C 59.275 136.686, 58.244 134.493, 54.514 131 C 51.921 128.572, 51.394 128.495, 36.172 128.321 C 26.079 128.206, 19.132 128.578, 16.658 129.367 M 71.500 160.145 C 70.396 160.702, 67.311 165.713, 64.616 171.327 C 61.930 176.922, 57.767 184.514, 55.366 188.197 C 52.965 191.880, 51 195.174, 51 195.517 C 51 195.859, 49.650 198.102, 48 200.500 C 46.350 202.898, 44.990 205.229, 44.978 205.680 C 44.966 206.131, 44.051 207.625, 42.945 209 C 41.095 211.300, 36.474 217.910, 27.994 230.389 C 26.166 233.077, 22.451 238.027, 19.737 241.389 C 13.035 249.688, 12.347 251.676, 15.142 254.651 C 16.645 256.251, 18.468 257, 20.858 257 C 23.763 257, 25.203 256.134, 29.214 251.972 C 31.880 249.206, 35.696 244.368, 37.694 241.222 C 39.692 238.075, 44.023 231.450, 47.319 226.500 C 58.441 209.794, 65.390 196.908, 77.327 170.849 C 79.840 165.365, 79.529 161.562, 76.453 160.161 C 75.052 159.522, 73.815 159.030, 73.703 159.068 C 73.591 159.105, 72.600 159.590, 71.500 160.145" stroke="none" fill="black" fill-rule="evenodd"/>
</svg>