<svg xmlns="http://www.w3.org/2000/svg" width="300" height="300" viewBox="0 0 300 300" version="1.1">
	<path d="M 202 12 C 202 12.550, 200.904 13, 199.565 13 C 198.226 13, 196.006 13.427, 194.633 13.950 C 193.164 14.508, 190.899 14.545, 189.135 14.039 C 184.622 12.744, 180.016 15.595, 178.091 20.874 C 176.344 25.667, 177.210 28.105, 180.976 28.994 L 183.263 29.534 180.381 33.017 C 178.797 34.933, 177.162 36.650, 176.750 36.833 C 176.338 37.017, 176 37.804, 176 38.583 C 176 39.363, 175.550 40, 175 40 C 174.450 40, 174 40.511, 174 41.136 C 174 42.138, 164.991 55.321, 160.728 60.559 C 149.240 74.670, 144.611 79.860, 136.696 87.500 C 120.480 103.152, 107.265 112.813, 99.100 114.987 C 96.679 115.631, 94.092 116.765, 93.350 117.508 C 91.652 119.205, 91.585 125.421, 93.250 126.762 C 98.573 131.050, 111.314 127.812, 124.649 118.784 C 127.317 116.978, 130.734 114.825, 132.241 114 C 138.866 110.375, 163 87.173, 163 84.429 C 163 84.029, 164.610 82.138, 166.578 80.227 C 168.546 78.316, 170.459 76.020, 170.828 75.126 C 171.198 74.232, 176.856 66.394, 183.403 57.710 L 195.306 41.919 197.903 44.275 C 208.062 53.490, 213.493 58, 214.431 58 C 215.030 58, 216.784 59.171, 218.328 60.603 C 221.292 63.352, 238.089 72, 240.463 72 C 241.230 72, 242.452 72.582, 243.179 73.293 C 245.787 75.846, 257.860 79, 265.021 79 C 273.288 79, 276 77.164, 276 71.568 C 276 67.126, 272.421 64.509, 265.223 63.689 C 260.448 63.145, 253.713 60.762, 244 56.181 C 240.332 54.451, 229.860 48.098, 229 47.081 C 228.725 46.756, 225.012 43.894, 220.750 40.721 C 216.488 37.548, 213 34.513, 213 33.976 C 213 33.439, 212.382 33, 211.627 33 C 210.872 33, 208.842 31.347, 207.116 29.326 C 203.996 25.673, 203.989 25.641, 205.922 23.576 C 209.805 19.431, 210.588 13.830, 207.573 11.765 C 205.984 10.677, 202 10.845, 202 12 M 42.500 37 C 42.160 37.550, 41.099 38, 40.142 38 C 39.062 38, 37.923 39.324, 37.141 41.488 C 35.430 46.219, 37.067 49.450, 43.474 53.988 C 46.201 55.920, 51.935 60.841, 56.216 64.923 C 63.003 71.396, 64 72.791, 64 75.813 C 64 77.942, 64.675 79.792, 65.750 80.608 C 68.478 82.679, 73.638 82.305, 75.905 79.871 C 78.689 76.884, 79.619 68.418, 77.675 63.765 C 75.390 58.295, 57.362 40.513, 51.597 38.041 C 46.366 35.799, 43.449 35.465, 42.500 37 M 226.500 113.616 C 219.160 115.274, 203.931 117.590, 194.500 118.481 C 182.854 119.583, 167.704 122.001, 166.568 122.941 C 165.981 123.427, 162.800 124.319, 159.500 124.924 C 156.200 125.528, 151.025 126.687, 148 127.500 C 144.975 128.312, 139.575 128.983, 136 128.992 C 129.242 129.008, 123.587 131.307, 122.345 134.543 C 121.394 137.021, 124.824 139.796, 130.281 140.967 C 133.076 141.566, 135.978 142.567, 136.729 143.190 C 138.495 144.656, 152.330 144.787, 154.125 143.356 C 155.883 141.954, 168.456 139.553, 187.500 136.983 C 208.523 134.146, 221.329 131.964, 222.500 131.017 C 223.050 130.573, 226.645 129.244, 230.488 128.064 C 240.130 125.103, 242 123.720, 242 119.550 C 242 117.063, 241.290 115.586, 239.365 114.073 C 236.402 111.741, 235.014 111.692, 226.500 113.616 M 41.108 120.071 L 22.716 120.642 19.358 124.306 C 15.251 128.788, 15.194 130.066, 18.917 134.234 L 21.833 137.500 34.667 137.432 C 41.725 137.394, 54.352 136.991, 62.726 136.537 C 75.323 135.854, 78.227 135.406, 79.551 133.944 C 82.220 130.994, 81.001 126.930, 76.500 123.779 C 71.200 120.069, 64.338 119.350, 41.108 120.071 M 105.902 144.205 C 104.247 145.546, 101.546 149.403, 93.659 161.683 C 91.122 165.634, 87.011 171.365, 84.523 174.419 C 82.035 177.473, 80 180.299, 80 180.700 C 80 181.489, 76.416 185.328, 61.914 200.071 C 56.736 205.334, 51.592 210.284, 50.483 211.071 C 49.373 211.857, 47.659 213.762, 46.674 215.304 C 45.689 216.846, 44.154 218.387, 43.263 218.729 C 42.371 219.072, 39.585 221.480, 37.071 224.082 C 33.848 227.417, 30.532 229.577, 25.829 231.406 C 22.161 232.833, 18.561 234.014, 17.829 234.032 C 14.023 234.123, 10.470 240.361, 11.400 245.320 C 12.230 249.741, 13.445 250.704, 20.520 252.547 C 26.981 254.230, 29.608 253.810, 30.516 250.949 C 30.856 249.877, 31.672 249, 32.328 249 C 35.126 249, 48.106 238.959, 59.282 228.149 C 71.554 216.279, 90.959 193.925, 93.700 188.500 C 94.534 186.850, 96.029 184.825, 97.023 184 C 98.016 183.175, 99.711 180.925, 100.789 179 C 101.867 177.075, 105.448 171.225, 108.746 166 C 116.554 153.631, 117.127 151.015, 113.273 145.329 C 111.994 143.441, 107.661 142.780, 105.902 144.205 M 200.500 169 C 200.160 169.550, 198.671 169.998, 197.191 169.995 C 190.450 169.983, 162.234 176.369, 156.237 179.264 C 150.389 182.087, 149.854 182.178, 148.159 180.644 C 147.160 179.740, 145.660 179, 144.826 179 C 142.840 179, 140 182.186, 140 184.414 C 140 185.659, 138.883 184.937, 136.166 181.936 C 132.911 178.339, 131.929 177.801, 129.666 178.369 C 127.302 178.962, 127.001 179.517, 127.008 183.269 C 127.012 185.596, 127.447 190.200, 127.976 193.500 C 129.848 205.197, 131.122 226.621, 130.459 235.256 C 129.831 243.433, 129.604 244.121, 127.029 245.642 C 125.512 246.538, 123.510 248.559, 122.580 250.134 C 120.132 254.278, 122.159 258.370, 126.884 258.823 C 128.738 259, 130.737 258.663, 131.327 258.073 C 131.971 257.429, 137.214 256.997, 144.450 256.993 C 151.192 256.989, 168.173 255.671, 183 254 C 213.321 250.584, 221.504 250.244, 220.663 252.436 C 219.892 254.445, 223.449 258.645, 226.590 259.433 C 229.520 260.169, 234 257.842, 234 255.584 C 234 254.830, 234.584 253.990, 235.298 253.716 C 238.688 252.415, 246 221.151, 246 207.960 C 246 204.747, 246.450 201.840, 247 201.500 C 247.550 201.160, 248 198.010, 248 194.500 C 248 190.990, 247.550 187.840, 247 187.500 C 246.450 187.160, 246 185.802, 246 184.483 C 246 180.205, 239.370 174.491, 231.645 172.111 C 227.874 170.950, 223.487 170, 221.895 170 C 220.303 170, 219 169.550, 219 169 C 219 168.408, 215.353 168, 210.059 168 C 205.141 168, 200.840 168.450, 200.500 169 M 196.105 186.983 C 193.138 187.442, 189.763 188.293, 188.605 188.876 C 187.447 189.458, 179.536 191.337, 171.024 193.050 C 156.436 195.987, 149.843 196.379, 145.731 194.556 C 144.207 193.880, 144.084 194.099, 144.840 196.136 C 147.852 204.256, 148.663 225.436, 146.396 236.772 C 145.840 239.550, 145.919 239.610, 149.663 239.247 C 151.773 239.043, 154.400 238.483, 155.500 238.002 C 158.952 236.494, 199.081 233.769, 212.334 234.143 C 223.632 234.461, 225 234.320, 225 232.833 C 225 231.917, 225.418 231.017, 225.929 230.833 C 226.942 230.469, 229 207.684, 229 196.823 C 229 187.481, 227.564 186.565, 212.545 186.325 C 206.470 186.228, 199.072 186.524, 196.105 186.983" stroke="none" fill="black" fill-rule="evenodd"/>
</svg>