<svg xmlns="http://www.w3.org/2000/svg" width="300" height="300" viewBox="0 0 300 300" version="1.1">
	<path d="M 230.056 11.673 C 223.977 15.932, 192.149 18.240, 145.617 17.796 C 118.048 17.534, 114.158 17.691, 111.500 19.171 C 105.216 22.672, 103.433 27.318, 106.626 31.877 C 108.140 34.037, 108.644 34.140, 113.876 33.351 C 116.969 32.885, 138.175 32.503, 161 32.502 C 205.317 32.500, 215.941 31.611, 228.708 26.835 C 238.099 23.323, 241.366 16.420, 235.847 11.750 C 233.301 9.596, 233.027 9.593, 230.056 11.673 M 42.016 27.707 C 38.375 32.335, 40.935 37.399, 50.181 43.858 C 57.332 48.854, 60.935 54.247, 61.907 61.414 C 62.338 64.591, 63.323 67.591, 64.096 68.080 C 66.910 69.862, 70.803 69.065, 73.033 66.250 C 74.924 63.863, 75.154 62.576, 74.772 56.500 C 74.530 52.650, 73.526 47.801, 72.540 45.725 C 68.901 38.058, 52.889 25, 47.127 25 C 45.077 25, 43.480 25.845, 42.016 27.707 M 105.443 36.700 C 103.606 38.537, 103.627 39.396, 106.082 62.500 C 108.693 87.076, 105.097 139.232, 96.889 195.849 C 92.964 222.920, 95.302 243.664, 103.493 254.437 C 115.133 269.748, 151.439 275.748, 197.188 269.923 C 221.326 266.849, 251.438 261.297, 257.040 258.888 C 267.812 254.253, 273.523 243.598, 267.833 238.750 C 264.878 236.233, 262.386 236.584, 259.397 239.938 C 255.781 243.997, 251.686 245.725, 242.964 246.874 C 238.859 247.415, 225.573 249.450, 213.441 251.396 C 183.167 256.251, 165.808 257.578, 151.507 256.128 C 139.076 254.867, 126.715 252.021, 120.538 248.996 C 110.064 243.865, 106.693 226.695, 110.493 197.838 C 118.724 135.353, 120.322 115.959, 119.733 85.706 C 119.286 62.710, 119.111 60.935, 116.240 50.199 C 112.430 35.951, 109.658 32.485, 105.443 36.700 M 206 76.683 C 204.625 76.909, 197.875 78.196, 191 79.543 C 177.182 82.250, 162.736 83.956, 153.400 83.983 C 148.222 83.997, 146.673 84.454, 143.150 87.006 C 139.964 89.314, 139 90.672, 139 92.851 C 139 95.943, 141.137 98.347, 144.912 99.501 C 147.147 100.184, 164.450 98.908, 178.500 97.024 C 181.800 96.581, 184.649 96.357, 184.831 96.524 C 185.013 96.692, 184.575 97.880, 183.858 99.164 C 183.048 100.615, 182.354 106.783, 182.027 115.444 L 181.500 129.387 175.540 131.153 C 162.563 134.999, 143.846 137.178, 142.500 135 C 141.550 133.463, 137.399 133.814, 135.956 135.553 C 135.247 136.408, 134.667 138.436, 134.667 140.061 C 134.667 149.769, 152.405 153.760, 172.500 148.574 C 178.954 146.908, 181.708 146.569, 182.235 147.375 C 183.374 149.119, 183.130 171.589, 181.895 178.682 C 180.524 186.557, 181.230 189.769, 184.515 190.593 C 194.011 192.977, 198 182.217, 198 154.216 L 198 140.316 205.250 137.507 C 222.080 130.987, 230.018 125.117, 229.985 119.215 C 229.964 115.634, 229.012 114.292, 225.947 113.523 C 224.170 113.077, 222.610 113.519, 220.721 115.005 C 219.240 116.170, 213.634 118.603, 208.262 120.412 L 198.495 123.701 198.785 112.100 C 199.130 98.310, 199.343 97.083, 201.857 94.384 C 204.002 92.081, 214.994 89.872, 224.740 89.784 C 229.285 89.743, 230.812 89.279, 232.741 87.350 C 236.621 83.470, 233.503 77.951, 226.657 76.581 C 223.508 75.952, 210.051 76.018, 206 76.683 M 29.590 109.391 C 22.361 111.424, 18.578 117.525, 21.743 122.044 C 24.091 125.396, 27.333 126.109, 32.716 124.456 C 35.347 123.648, 41.550 122.557, 46.500 122.033 C 53.799 121.259, 55.831 120.672, 57.250 118.928 C 59.649 115.982, 59.445 113.767, 56.525 111.023 C 54.350 108.980, 52.864 108.656, 44.275 108.354 C 37.987 108.133, 32.749 108.502, 29.590 109.391 M 64.390 151.189 C 62.168 154.676, 56.388 165.373, 47.081 183.224 C 44.005 189.122, 40.817 194.753, 39.995 195.738 C 39.173 196.722, 37.920 198.647, 37.211 200.014 C 36.502 201.381, 34.702 203.925, 33.211 205.666 C 19.733 221.404, 12.989 232.239, 13.015 238.110 C 13.033 242.092, 13.691 243.274, 16.799 244.912 C 20.993 247.121, 25.607 244.666, 29.189 238.319 C 30.896 235.295, 36.344 227.349, 41.297 220.661 C 48.694 210.671, 52.490 204.036, 62.558 183.500 C 69.299 169.750, 75.073 157.150, 75.389 155.500 C 76.135 151.603, 74.150 149.053, 69.856 148.393 C 66.896 147.939, 66.251 148.269, 64.390 151.189 M 273.655 185.829 C 272.745 186.835, 272 188.102, 272 188.645 C 272 189.770, 238.539 191.416, 182.500 193.050 C 139.982 194.289, 137.933 194.456, 135.100 196.914 C 132.094 199.520, 132.308 204.316, 135.523 206.423 C 141.054 210.047, 147.663 210.400, 185.919 209.114 C 260.409 206.611, 275.857 205.511, 280.795 202.360 C 284.170 200.206, 285.232 196.575, 283.915 191.686 C 282.075 184.853, 277.106 182.016, 273.655 185.829" stroke="none" fill="black" fill-rule="evenodd"/>
</svg>