<svg xmlns="http://www.w3.org/2000/svg" width="300" height="300" viewBox="0 0 300 300" version="1.1">
	<path d="M 17.219 34.559 C 15.051 36.078, 14.394 39.256, 15.598 42.395 C 16.403 44.492, 25.329 50.889, 31.493 53.786 C 38.767 57.205, 43 60.724, 43 63.351 C 43 66.169, 44.772 68, 47.500 68 C 48.655 68, 50.140 67.460, 50.800 66.800 C 52.373 65.227, 52.341 57.568, 50.750 54.793 C 48.821 51.430, 43.916 47.067, 39.500 44.788 C 37.300 43.652, 32.800 40.815, 29.500 38.484 C 22.046 33.219, 20.045 32.580, 17.219 34.559 M 246.614 36.688 C 243.947 40.761, 241.009 54.655, 241.003 63.227 C 241.001 67.189, 240.587 68.224, 238.449 69.625 C 234.318 72.332, 223.061 75, 215.772 75 C 207.727 75, 207.965 75.759, 211.085 60 C 213.308 48.774, 213.164 37.735, 210.764 35.335 C 208.764 33.335, 205.286 34.877, 203.552 38.532 C 202.682 40.366, 201.335 46.284, 200.560 51.683 C 199.785 57.082, 198.618 63.917, 197.967 66.870 C 195.750 76.922, 198.777 84.772, 205.767 87.099 C 212.286 89.269, 228.937 87.895, 237.250 84.501 C 238.213 84.108, 238.997 84.172, 238.994 84.643 C 238.991 85.114, 238.077 96.750, 236.963 110.500 C 235.849 124.250, 234.514 147.650, 233.996 162.500 C 233.478 177.350, 232.575 200.075, 231.989 213 C 231.402 225.925, 231.024 242.188, 231.149 249.139 C 231.336 259.579, 231.082 262.227, 229.688 264.354 C 227.525 267.654, 227.558 269.290, 229.829 271.345 C 232.553 273.811, 236.119 273.348, 239.611 270.075 C 243.608 266.328, 243.727 265.337, 244.997 225.500 C 245.558 207.900, 246.703 181.800, 247.542 167.500 C 248.381 153.200, 249.489 131.600, 250.005 119.500 C 250.520 107.400, 251.846 89.400, 252.950 79.500 C 257.566 38.124, 257.438 40.436, 255.315 36.791 C 252.549 32.041, 249.680 32.007, 246.614 36.688 M 142.173 37.045 C 139.618 39.787, 139.019 45.773, 139.009 68.672 L 139 87.845 135.750 88.884 C 130.861 90.448, 114.153 93.770, 107.251 94.551 L 101.159 95.240 100.618 90.870 C 100.321 88.467, 99.880 80.425, 99.639 73 C 99.240 60.737, 98.871 58.544, 95.611 49.066 C 93.637 43.327, 91.455 38.271, 90.761 37.831 C 88.383 36.322, 85.956 37.002, 84.820 39.496 C 83.888 41.541, 84.158 43.577, 86.308 50.746 C 87.753 55.561, 89.399 63.020, 89.967 67.322 C 91.298 77.399, 91.304 121.191, 89.977 133.789 C 87.760 154.841, 82.883 186.669, 79.908 199.500 C 78.888 203.900, 77.579 210.875, 76.998 215 C 75.580 225.076, 71.319 241.706, 69.484 244.327 C 67.691 246.886, 67.567 250.167, 69.200 251.800 C 70.989 253.589, 76.469 253.254, 78.214 251.250 C 80.750 248.338, 84.912 236.645, 86.006 229.359 C 86.572 225.587, 88.293 216.875, 89.831 210 C 91.969 200.440, 92.965 197.599, 94.064 197.919 C 100.963 199.934, 111.192 197.678, 121.581 191.850 C 124.375 190.282, 127.186 189, 127.827 189 C 128.700 189, 128.829 195.333, 128.341 214.273 C 127.754 237.113, 127.860 239.902, 129.442 243.237 C 130.405 245.266, 132.082 247.209, 133.169 247.554 C 136.045 248.466, 139.790 247.266, 140.361 245.248 C 140.633 244.286, 141 228.775, 141.178 210.778 L 141.500 178.056 138.803 175.354 C 136.215 172.761, 135.932 172.703, 131.803 173.919 C 129.436 174.617, 122.558 177.638, 116.517 180.633 C 108.514 184.602, 103.938 186.246, 99.653 186.694 L 93.773 187.309 94.374 184.404 C 97.941 167.167, 99.753 149.326, 100.625 122.849 L 101.207 105.199 104.353 106.124 C 108.255 107.271, 112.270 106.682, 127.500 102.728 C 134.345 100.951, 141.459 99.713, 144.060 99.846 C 150.682 100.183, 151.811 98.484, 152.985 86.410 C 154.256 73.338, 154.218 48.657, 152.918 43.015 C 152.349 40.548, 151.166 37.735, 150.287 36.765 C 148.153 34.407, 144.514 34.532, 142.173 37.045 M 27.498 97.990 C 19.977 98.650, 13.938 100.673, 12.489 103.017 C 12.139 103.585, 12.155 105.430, 12.526 107.117 C 13.019 109.361, 14.115 110.568, 16.606 111.609 C 19.648 112.880, 21.051 112.812, 29.756 110.969 C 39.370 108.933, 40.968 108.633, 48.140 107.517 C 54.351 106.550, 54.174 100.302, 47.872 98.105 C 44.457 96.915, 40.033 96.890, 27.498 97.990 M 200 128.473 C 186.770 130.650, 178.725 132.133, 169 134.187 C 153.057 137.554, 146.991 138.746, 134.500 140.966 C 107.255 145.807, 106 146.186, 106 149.565 C 106 150.842, 107 152.587, 108.223 153.443 C 112.713 156.588, 118.260 155.866, 177 144.484 C 186.625 142.619, 200.242 140.224, 207.259 139.162 C 214.276 138.099, 220.689 136.673, 221.509 135.993 C 223.574 134.279, 223.372 131.777, 220.961 129.189 C 218.576 126.629, 212.475 126.421, 200 128.473 M 56.947 166.639 C 55.488 167.545, 52.939 171.283, 50.998 175.362 C 47.312 183.111, 34.833 205.329, 32.720 207.907 C 32.001 208.783, 30.762 210.850, 29.966 212.500 C 29.170 214.150, 27.029 217.878, 25.207 220.784 C 23.386 223.690, 20.515 228.640, 18.827 231.784 C 17.139 234.928, 14.373 239.273, 12.679 241.440 C 10.249 244.550, 9.512 246.605, 9.180 251.190 L 8.760 257 12.791 257 C 17.860 257, 19.528 255.126, 28.615 239.223 C 32.299 232.775, 37.020 224.575, 39.107 221 C 41.193 217.425, 43.978 212.475, 45.297 210 C 59.513 183.309, 66 170.645, 66 169.583 C 66 167.920, 62.737 164.993, 60.921 165.027 C 60.140 165.041, 58.351 165.767, 56.947 166.639 M 206.301 169.557 C 190.775 171.821, 182.556 173.830, 177.685 176.553 C 170.029 180.832, 167.095 186.215, 170.250 190.194 C 172.221 192.679, 174.177 192.827, 178.833 190.845 C 181.216 189.830, 183.302 189, 183.469 189 C 183.635 189, 182.818 192.262, 181.653 196.250 C 179.687 202.980, 179.534 205.865, 179.518 236.500 C 179.500 269.185, 179.521 269.521, 181.705 271.750 C 184.593 274.698, 187.259 274.593, 190.698 271.396 L 193.500 268.791 193.308 227.419 L 193.116 186.046 196.808 185.073 C 198.839 184.538, 203.650 183.555, 207.500 182.889 C 218.957 180.907, 225.161 174.476, 219.963 169.968 C 218.715 168.886, 217.200 168.048, 216.597 168.107 C 215.994 168.167, 211.360 168.819, 206.301 169.557" stroke="none" fill="black" fill-rule="evenodd"/>
</svg>