<svg xmlns="http://www.w3.org/2000/svg" width="300" height="300" viewBox="0 0 300 300" version="1.1">
	<path d="M 177.736 9.250 C 176.831 9.938, 175.648 11.692, 175.108 13.149 C 174.016 16.094, 173.325 65.100, 174.352 66.761 C 174.758 67.418, 173.033 68.067, 169.751 68.492 C 166.863 68.867, 161.050 70.034, 156.833 71.086 C 147.542 73.405, 140.170 73.607, 139.386 71.563 C 139.082 70.772, 140.022 64.458, 141.474 57.530 C 142.926 50.603, 143.825 44.024, 143.471 42.910 C 141.937 38.076, 134.198 38.594, 132.190 43.666 C 129.254 51.083, 125.802 67.592, 126.239 72.132 C 126.862 78.620, 130.696 83.567, 136.277 85.088 C 141.719 86.571, 155.634 85.736, 168 83.185 C 173.225 82.107, 183.125 80.192, 190 78.930 C 196.875 77.667, 204.888 75.832, 207.806 74.852 L 213.112 73.069 212.441 77.544 C 211.681 82.615, 212.958 85, 216.434 85 C 222.048 85, 227 70.153, 227 53.326 C 227 47.662, 227.548 40.978, 228.219 38.473 C 229.651 33.116, 228.634 30.661, 224.789 30.197 C 221.269 29.772, 216.279 34.251, 215.006 38.979 C 214.406 41.207, 214.247 46.365, 214.627 51.303 L 215.279 59.794 209.890 60.887 C 200.826 62.724, 189.646 64.857, 186.805 65.290 C 183.869 65.738, 183.834 65.317, 186.031 56 C 187.069 51.598, 187.482 14.251, 186.525 11.342 C 185.490 8.198, 180.642 7.043, 177.736 9.250 M 56.409 62.500 C 54.296 64.613, 54.012 65.580, 54.576 68.750 C 55.917 76.288, 59.887 80.619, 72.327 88.114 C 78.861 92.051, 81.066 92.113, 83.045 88.416 C 84.639 85.437, 83.079 81.809, 78.565 78 C 70.031 70.797, 69.610 70.278, 69.555 66.896 C 69.509 64.066, 68.942 63.256, 66 61.813 C 61.192 59.455, 59.320 59.589, 56.409 62.500 M 223.606 94.829 C 223.071 95.694, 217.986 96.928, 204.500 99.466 C 200.100 100.294, 191.825 101.878, 186.111 102.986 C 179.957 104.179, 171.396 105.024, 165.111 105.059 C 159.275 105.092, 145.050 105.675, 133.500 106.356 C 111.043 107.679, 108.805 108.258, 106.015 113.473 C 104.942 115.477, 104.936 116.218, 105.983 117.479 C 106.689 118.330, 107.769 118.972, 108.383 118.905 C 111.250 118.592, 113.994 120.458, 114.932 123.355 C 118.631 134.781, 119.323 140.781, 119.332 161.500 C 119.340 180.502, 119.086 183.689, 116.667 195 C 111.607 218.650, 106.941 234.519, 97 261.889 C 93.718 270.925, 93.812 273.176, 97.576 275.642 C 99.801 277.100, 100.212 277.091, 102.584 275.537 C 104.004 274.606, 105.874 272.192, 106.739 270.172 C 111.955 257.985, 123.250 223.269, 125.340 213 C 130.983 185.272, 131.269 182.874, 131.244 163.500 C 131.223 146.937, 130.891 142.966, 128.655 132.539 C 127.244 125.960, 126.245 120.422, 126.434 120.232 C 126.624 120.043, 136.841 119.451, 149.139 118.916 C 180.404 117.558, 186.324 116.846, 211.500 111.421 C 225.304 108.447, 226.956 107.814, 230.014 104.331 C 233.564 100.288, 233.595 100.026, 230.927 96.635 C 228.929 94.094, 224.704 93.052, 223.606 94.829 M 188.241 122.986 C 187.558 124.079, 187.005 125.766, 187.010 126.736 C 187.016 127.706, 186.149 131.200, 185.085 134.500 C 184.021 137.800, 182.396 145.675, 181.475 152 C 179.945 162.507, 175.444 183.337, 174.275 185.325 C 174.008 185.779, 172.824 185.269, 171.645 184.192 C 170.465 183.115, 168.078 181.516, 166.340 180.638 C 161.507 178.197, 157.295 172.450, 156.512 167.231 C 155.460 160.215, 150.917 157.268, 146.223 160.557 C 143.107 162.739, 143.108 171.495, 146.224 177.734 C 150.172 185.638, 161.752 192.699, 169.142 191.708 C 172.868 191.208, 172.969 191.274, 172.341 193.779 C 171.983 195.202, 171.088 197.522, 170.352 198.933 C 169.615 200.345, 169.010 202.027, 169.006 202.671 C 169.001 203.716, 167.231 208.250, 157.560 232 C 153.847 241.119, 151.039 246.581, 148.866 248.914 C 144.872 253.201, 147.947 260.822, 153.132 259.489 C 159.421 257.872, 162.863 252.453, 173.689 227.126 L 175.131 223.751 177.815 226.283 C 179.292 227.676, 181.947 229.645, 183.716 230.658 C 185.484 231.671, 191.559 235.231, 197.216 238.569 C 217.015 250.253, 256.241 267.462, 261.608 266.819 C 265.392 266.366, 267.283 263.219, 265.712 259.991 C 264.426 257.349, 259.772 254.798, 237.477 244.515 C 215.307 234.289, 189.467 220.245, 182.580 214.678 L 179.661 212.318 183.749 199.409 C 189.937 179.870, 192.234 169.215, 196.066 142.278 C 197.429 132.701, 196.649 125.649, 193.928 122.928 C 191.469 120.469, 189.802 120.486, 188.241 122.986 M 61 123.106 C 54.057 125.101, 53 125.235, 53 124.117 C 53 122.327, 49.505 122.827, 47.034 124.970 C 45.785 126.054, 43.964 127.194, 42.989 127.504 C 42.013 127.813, 40.654 129.422, 39.968 131.078 C 38.402 134.857, 39.837 138.513, 43.549 140.204 C 46.448 141.525, 48.224 141.141, 62 136.209 C 66.740 134.512, 72.408 133.189, 74.814 133.219 C 79.758 133.281, 81.310 132.184, 80.835 128.966 C 80.053 123.672, 69.687 120.610, 61 123.106 M 210.017 149.213 C 208.456 151.779, 208.081 154.144, 208.154 160.963 C 208.267 171.500, 208.543 172.647, 211.130 173.324 C 214.312 174.156, 215.898 173.110, 218.253 168.627 C 219.890 165.513, 220.431 162.699, 220.461 157.164 C 220.496 150.636, 220.240 149.617, 218.139 147.914 C 214.721 145.143, 212.252 145.538, 210.017 149.213 M 88.412 155.765 C 87.814 156.169, 87.057 157.400, 86.729 158.500 C 86.100 160.613, 79.562 177.101, 78.005 180.500 C 77.502 181.600, 75.912 185.376, 74.473 188.890 C 69.874 200.123, 57.796 222.616, 49.177 236 C 39.917 250.379, 38.614 252.211, 37.285 252.721 C 36.578 252.992, 36 254.715, 36 256.550 C 36 262.498, 42.304 264.909, 47.391 260.907 C 49.757 259.046, 51.784 256.174, 61.792 240.500 C 63.197 238.300, 65.362 234.925, 66.604 233 C 69.001 229.283, 79.484 208.543, 82.778 201 C 84.857 196.239, 94.141 169.046, 95.810 162.827 C 96.572 159.990, 96.465 158.681, 95.341 157.077 C 93.894 155.010, 90.486 154.365, 88.412 155.765" stroke="none" fill="black" fill-rule="evenodd"/>
</svg>