<svg xmlns="http://www.w3.org/2000/svg" width="300" height="300" viewBox="0 0 300 300" version="1.1">
	<path d="M 143.946 24.757 C 141.408 27.025, 140.611 28.843, 139.454 35.007 C 138.680 39.128, 137.813 43.475, 137.526 44.666 C 137.091 46.471, 135.503 47.185, 128.022 48.941 C 117.611 51.385, 103.970 56.394, 100.854 58.917 C 98.075 61.168, 98.922 65.188, 102.523 66.829 C 106.800 68.777, 117.065 68.206, 126.403 65.500 C 131.148 64.125, 135.194 63, 135.395 63 C 135.596 63, 135.115 66.417, 134.326 70.593 C 133.043 77.389, 133.058 78.439, 134.469 80.593 C 135.336 81.917, 136.801 83, 137.723 83 C 138.737 83, 139.024 83.345, 138.450 83.872 C 137.123 85.090, 120.343 90.704, 115.500 91.550 C 110.397 92.441, 105 96.411, 105 99.273 C 105 101.381, 104.951 101.372, 103.347 98.973 C 98.113 91.146, 93.940 89.199, 90.514 92.985 C 87.809 95.973, 88.987 104.039, 93.412 112.826 C 95.386 116.744, 97 120.861, 97 121.975 C 97 127.587, 105.189 129.885, 107.779 125 C 109.393 121.957, 108.785 112.414, 106.583 106.210 C 105.646 103.570, 105.488 102.184, 106.173 102.607 C 106.784 102.985, 111.383 103.467, 116.392 103.678 C 125.231 104.050, 131.908 102.773, 142 98.780 C 149.746 95.715, 161.059 92.150, 164.795 91.597 C 169.016 90.973, 169.070 91.002, 167.890 93.231 C 167.229 94.479, 165.706 96.850, 164.505 98.500 C 161.437 102.717, 156.886 115.988, 156.680 121.322 C 156.474 126.646, 158.917 130, 163 130 C 166.566 130, 168.300 127.812, 170.927 120 C 172.130 116.425, 174.882 110.575, 177.045 107 C 185.813 92.504, 187.564 86.820, 184.843 81.684 C 183.255 78.686, 180.105 76.064, 177.220 75.340 C 173.384 74.378, 163.535 75.772, 155.709 78.385 C 151.744 79.709, 146.763 81.267, 144.641 81.846 C 140.973 82.847, 140.861 82.811, 142.394 81.117 C 144.291 79.021, 146.335 72.930, 148.024 64.341 C 149.222 58.244, 149.281 58.165, 153.867 56.522 C 163.203 53.178, 163 53.339, 163 49.237 C 163 46.146, 162.484 45.126, 160.250 43.807 C 158.604 42.835, 156.374 42.397, 154.699 42.717 C 152.045 43.225, 151.935 43.102, 152.596 40.376 C 152.979 38.794, 153.677 36.458, 154.146 35.185 C 155.847 30.573, 155.157 26.269, 152.365 24.073 C 148.906 21.352, 147.642 21.454, 143.946 24.757 M 214.356 54.382 C 210.431 58.864, 209.459 62.873, 208.019 80.518 C 207.202 90.532, 203.384 112.981, 201.450 119.141 C 201.166 120.043, 198.609 121.782, 195.767 123.005 C 184.097 128.025, 180.012 132.272, 181.950 137.369 C 183.113 140.428, 186.963 141.156, 193.294 139.514 L 198.224 138.235 197.648 141.367 C 197.332 143.090, 196.124 149.450, 194.965 155.500 C 193.805 161.550, 192.492 169.239, 192.046 172.586 C 190.269 185.915, 178.145 230.409, 173.539 240.500 C 172.786 242.150, 171.061 245.975, 169.706 249 C 168.351 252.025, 166.287 255.283, 165.121 256.240 C 160.658 259.902, 164.182 268, 170.238 268 C 175.903 268, 180.916 260.667, 189.060 240.468 C 196.341 222.410, 204.264 188.410, 211.657 143.500 C 212.562 138, 213.624 133.133, 214.017 132.685 C 214.980 131.585, 228.818 128.039, 232.231 128.017 C 236.585 127.990, 236.652 128.835, 236.224 178.500 L 235.949 210.500 232.542 205.153 C 226.447 195.589, 224.030 194.099, 220.655 197.829 C 217.395 201.431, 219.354 207.891, 227.332 219.850 C 233.016 228.371, 243.915 229.492, 248.335 222.010 C 249.824 219.490, 250 214.306, 250 173.064 C 250 124.038, 249.899 122.899, 245.141 118.141 C 239.942 112.942, 234.475 112.002, 223.336 114.393 L 217.172 115.716 217.670 112.108 C 217.944 110.124, 219.228 101.750, 220.523 93.500 C 224.702 66.884, 224.711 58.568, 220.568 54.425 C 218.807 52.664, 215.879 52.644, 214.356 54.382 M 33.571 56.571 C 31.544 58.598, 31.587 59.270, 34.048 64.094 C 36.338 68.583, 42.887 73.718, 49.273 76.031 C 52.002 77.020, 53.961 78.524, 54.802 80.275 C 57.538 85.977, 66 84.155, 66 77.863 C 66 73.215, 62.318 67.540, 57.632 64.966 C 55.359 63.717, 52.891 62.221, 52.147 61.640 C 50.352 60.240, 37.887 55, 36.350 55 C 35.686 55, 34.436 55.707, 33.571 56.571 M 28.039 122.189 C 25.377 125.046, 25.454 128.153, 28.250 130.703 C 31.445 133.615, 36.097 134.753, 47.172 135.328 C 55.507 135.761, 57.062 135.589, 58.422 134.086 C 60.096 132.236, 60.484 128.310, 59.194 126.279 C 58.025 124.440, 50.990 122.244, 42.469 121.059 C 31.857 119.583, 30.357 119.700, 28.039 122.189 M 121.500 130.007 C 118.750 130.423, 115.150 131.364, 113.500 132.097 C 109.101 134.053, 104.820 138.743, 105.188 141.204 C 105.745 144.934, 108.213 145.559, 116.198 143.991 C 123.735 142.511, 134.454 142.121, 135.618 143.285 C 135.982 143.649, 133.308 146.933, 129.676 150.583 C 126.044 154.233, 122.129 159.167, 120.977 161.547 C 119.118 165.389, 119.020 166.335, 120.110 169.974 C 120.786 172.229, 122.379 175.196, 123.651 176.569 C 126.604 179.754, 127.425 181.326, 130.346 189.373 L 132.738 195.963 128.619 198.369 C 126.354 199.692, 120.450 202.930, 115.500 205.564 C 98.432 214.647, 96.240 216.400, 92.963 223.585 C 89.334 231.543, 93.804 235.487, 100.887 230.578 C 102.993 229.119, 107.625 226.870, 111.179 225.580 C 119.472 222.573, 123.237 220.619, 129.913 215.859 C 132.890 213.737, 135.613 212, 135.964 212 C 136.751 212, 140.019 238.770, 140.008 245.128 C 139.997 251.557, 138.635 252.427, 129.723 251.699 C 123.602 251.199, 122.157 251.392, 120.250 252.965 C 116.582 255.990, 117.710 260.186, 122.939 262.973 C 124.280 263.688, 129.339 264.499, 134.181 264.775 C 142.493 265.248, 143.212 265.126, 147.070 262.572 C 151.301 259.773, 154.937 253.581, 154.978 249.107 C 154.990 247.791, 153.417 237.213, 151.482 225.599 L 147.964 204.483 155.818 196.491 C 160.534 191.692, 163.881 187.401, 164.197 185.750 C 166.134 175.615, 157.125 172.740, 151.089 181.567 C 149.764 183.506, 147.417 185.991, 145.875 187.089 L 143.072 189.085 139.914 182.793 C 138.178 179.332, 135.221 174.394, 133.344 171.820 L 129.932 167.139 133.651 164.320 C 140.249 159.317, 149.165 150.580, 150.700 147.612 C 154.127 140.987, 149.375 134.123, 139.184 130.975 C 132.489 128.907, 129.751 128.757, 121.500 130.007 M 66.437 154.662 C 65.081 156.126, 61.441 161.189, 58.350 165.912 C 50.834 177.395, 34.977 198.558, 21.944 214.500 C 16.098 221.650, 10.795 228.483, 10.158 229.684 C 8.395 233.010, 8.737 238.452, 10.829 240.345 C 13.239 242.526, 18.630 242.473, 20.459 240.250 C 23.015 237.142, 30.848 226.600, 48.506 202.500 C 50.521 199.750, 55.394 192.584, 59.335 186.575 C 67.742 173.756, 67.433 174.221, 72.250 167.163 C 76.333 161.181, 77.121 156.264, 74.429 153.571 C 72.115 151.258, 69.227 151.652, 66.437 154.662" stroke="none" fill="black" fill-rule="evenodd"/>
</svg>