<svg xmlns="http://www.w3.org/2000/svg" width="300" height="300" viewBox="0 0 300 300" version="1.1">
	<path d="M 156.073 10.635 C 152.367 15.346, 153.057 17.241, 162.784 29.060 C 165.140 31.923, 166.861 34.472, 166.609 34.725 C 165.696 35.637, 148.281 39.144, 137.797 40.527 C 122.827 42.501, 117 45.272, 117 50.416 C 117 55.912, 125.610 57.639, 137.856 54.599 C 140.960 53.828, 145.266 52.893, 147.424 52.521 L 151.347 51.844 149.718 54.172 C 148.822 55.452, 147.125 58.300, 145.948 60.500 C 143.678 64.739, 142.319 66.670, 130.475 82.475 C 122.366 93.295, 121.136 97.477, 124.750 101.939 C 127.072 104.807, 134.120 106.290, 141.422 105.447 L 147.344 104.764 143.482 110.132 C 141.358 113.084, 137.030 118.943, 133.864 123.152 C 124.719 135.310, 123.147 140.734, 127.349 145.620 C 129.485 148.102, 130.295 148.342, 136.236 148.252 C 143.619 148.140, 145.257 147.518, 167.335 136.442 C 175.494 132.349, 182.552 129, 183.019 129 C 184.620 129, 194 122.701, 194 121.626 C 194 121.035, 196.025 123.806, 198.500 127.783 C 200.975 131.760, 203 135.900, 203 136.984 C 203 138.067, 204.117 139.686, 205.481 140.580 C 207.797 142.097, 208.182 142.078, 211.231 140.304 C 215.863 137.609, 216.098 133.078, 212.037 124.787 C 207.527 115.581, 201.552 107.471, 198.281 106.117 C 195.695 105.045, 194.813 105.289, 189.187 108.628 C 185.393 110.880, 182.740 113.187, 182.404 114.527 C 182.017 116.068, 180.598 117.083, 177.676 117.910 C 175.379 118.560, 172.600 119.501, 171.500 120.001 C 170.400 120.501, 166.575 122.107, 163 123.570 C 159.425 125.033, 153.867 127.558, 150.649 129.180 C 147.431 130.803, 144.600 131.933, 144.358 131.691 C 144.116 131.449, 144.998 129.957, 146.317 128.376 C 147.637 126.794, 150.918 122.313, 153.608 118.417 C 156.299 114.521, 161.650 107.692, 165.500 103.241 C 171.792 95.968, 172.867 95.141, 176.128 95.074 C 180.266 94.990, 182.162 93.230, 182.395 89.257 C 182.512 87.260, 184.441 84.708, 189.390 80 C 196.901 72.856, 201.341 66.961, 202.360 62.781 C 202.892 60.598, 202.548 59.750, 200.617 58.485 C 197.188 56.238, 193.509 57.498, 189.706 62.221 C 182.094 71.675, 167.232 84, 163.445 84 C 162.112 84, 158.204 85.085, 154.761 86.411 C 148.106 88.973, 141.598 90.455, 142.359 89.235 C 142.611 88.831, 146.121 83.446, 150.158 77.269 C 154.196 71.092, 158.801 63.892, 160.391 61.269 C 167.856 48.957, 167.269 49.457, 175.768 48.171 C 180.021 47.528, 190.250 46.717, 198.500 46.368 C 214.494 45.692, 217 44.898, 217 40.500 C 217 37.942, 214.669 35.585, 210.615 34.044 C 207.406 32.824, 191.097 32.520, 183.428 33.538 L 178.467 34.196 177.231 29.574 C 175.680 23.773, 172.544 18.772, 166.667 12.725 C 161.440 7.347, 159.032 6.872, 156.073 10.635 M 50 44 C 46.728 47.272, 47.519 50.507, 53.374 57.803 C 56.329 61.487, 59.436 65.850, 60.279 67.500 C 61.121 69.150, 62.953 71.568, 64.350 72.872 C 67.497 75.812, 71.612 75.151, 73.007 71.481 C 73.910 69.105, 73.747 67.797, 72.010 63.500 C 71.566 62.400, 70.665 60.070, 70.010 58.322 C 69.354 56.575, 67.958 54.367, 66.909 53.417 C 65.859 52.467, 65 51.310, 65 50.845 C 65 48.804, 56.434 42, 53.865 42 C 52.839 42, 51.100 42.900, 50 44 M 37.315 113.007 C 32.623 114.898, 31.480 122.223, 35.314 125.826 C 38.299 128.630, 43.677 128.666, 52.120 125.939 C 57.358 124.247, 59.152 124.069, 62.145 124.948 C 66.312 126.170, 68.623 125.573, 70.051 122.905 C 71.319 120.536, 69.893 118.150, 65.344 115.033 C 62.161 112.852, 61.297 112.741, 52.002 113.307 C 46.061 113.669, 41.826 113.528, 41.473 112.956 C 40.776 111.828, 40.225 111.834, 37.315 113.007 M 85 152.770 C 82.550 153.657, 79.890 157.151, 77.212 163 C 73.903 170.226, 49.044 207.955, 43.472 214.209 C 40.657 217.368, 37 225.109, 37 227.909 C 37 230.024, 41.034 234, 43.180 234 C 46.412 234, 50.258 229.373, 62.688 210.532 C 79.029 185.763, 79.785 184.520, 85.965 172.283 C 89.932 164.428, 91.052 161.218, 90.812 158.397 C 90.480 154.490, 87.695 151.794, 85 152.770 M 175.500 163.050 C 167.250 164.040, 154.875 165.171, 148 165.563 C 138.339 166.113, 134.337 166.786, 130.378 168.526 C 127.561 169.764, 124.921 171.319, 124.512 171.981 C 124.022 172.774, 122.960 171.831, 121.403 169.220 C 117.041 161.905, 110.947 159.962, 106.455 164.455 C 103.259 167.650, 103.359 169.506, 106.945 173.591 C 110.571 177.720, 111.828 182.031, 112.604 193 C 112.935 197.675, 114.284 207.940, 115.603 215.811 C 116.921 223.683, 118 233.308, 118 237.201 C 118 242.729, 118.375 244.554, 119.712 245.532 C 121.133 246.570, 121.205 247.048, 120.135 248.337 C 118.230 250.633, 119.151 254.274, 122 255.710 C 126.536 257.997, 139.406 257.168, 174.315 252.342 C 186.201 250.699, 195.583 249.970, 202.502 250.151 C 211.146 250.378, 213.189 250.139, 214.766 248.712 C 215.806 247.770, 217.169 247, 217.794 247 C 219.573 247, 220.885 243.725, 220.826 239.428 C 220.797 237.268, 221.518 233.025, 222.430 230 C 223.481 226.512, 224.439 217.732, 225.049 206 C 225.577 195.825, 226.496 184.474, 227.091 180.776 C 229.088 168.356, 225.518 163.661, 212.819 162.012 C 202.618 160.688, 192.933 160.957, 175.500 163.050 M 182.664 176.347 C 169.096 177.791, 169.086 177.804, 169.035 193.750 L 169 205 172.250 204.958 C 176.959 204.896, 191.126 199.878, 195.870 196.590 C 198.872 194.510, 200.616 193.938, 202.506 194.412 C 205.315 195.117, 207.309 198.941, 206.327 201.741 C 205.141 205.125, 199.747 209.828, 193.649 212.796 C 187.431 215.822, 174.786 220, 171.844 220 C 169.059 220, 168.220 222.273, 167.844 230.840 L 167.477 239.179 171.489 238.537 C 178.741 237.376, 202.068 235.979, 204.407 236.566 C 208.071 237.486, 209.999 228.835, 210.006 211.434 C 210.009 203.770, 210.686 193.025, 211.511 187.555 C 212.335 182.085, 212.670 177.283, 212.255 176.885 C 210.825 175.511, 193.479 175.196, 182.664 176.347 M 142.500 179.677 C 139.200 179.842, 134.006 180.474, 130.958 181.081 L 125.415 182.185 127.244 196.295 C 128.249 204.056, 129.175 210.508, 129.300 210.634 C 129.535 210.868, 154.402 207.948, 154.623 207.660 C 154.691 207.572, 154.967 201.088, 155.237 193.250 L 155.727 179 152.114 179.189 C 150.126 179.293, 145.800 179.513, 142.500 179.677 M 145 223.051 C 142.525 223.491, 138.222 223.885, 135.437 223.926 L 130.373 224 129.373 233.750 C 128.822 239.113, 128.511 243.685, 128.680 243.911 C 129.056 244.411, 153.290 241.043, 153.932 240.402 C 154.182 240.152, 154.580 235.909, 154.816 230.973 L 155.245 222 152.372 222.125 C 150.793 222.194, 147.475 222.611, 145 223.051" stroke="none" fill="black" fill-rule="evenodd"/>
</svg>