<svg xmlns="http://www.w3.org/2000/svg" width="300" height="300" viewBox="0 0 300 300" version="1.1">
	<path d="M 168.109 9.636 C 166.160 11.001, 165.858 11.901, 166.282 15.066 C 166.562 17.152, 167.911 20.353, 169.281 22.180 C 170.651 24.006, 172.686 27.300, 173.803 29.500 C 174.920 31.700, 176.832 34.104, 178.052 34.843 C 180.034 36.043, 180.537 35.918, 182.787 33.667 L 185.305 31.149 183.532 24.830 C 181.460 17.444, 176.867 10.280, 173.347 8.942 C 170.293 7.781, 170.867 7.705, 168.109 9.636 M 186 40.648 C 179.125 41.398, 166.012 42.909, 156.860 44.006 C 147.708 45.103, 138.599 46, 136.617 46 C 134.635 46, 131.192 46.788, 128.965 47.750 C 124.453 49.700, 123.071 52.665, 124.852 56.574 C 125.874 58.817, 126.506 59.001, 133.229 59.010 C 141.071 59.020, 168.652 56.141, 192 52.874 C 203.524 51.262, 206.962 50.415, 208.750 48.748 C 211.396 46.282, 211.581 44.275, 209.443 41.223 C 207.611 38.606, 205.253 38.548, 186 40.648 M 48 56.699 C 45.955 57.438, 43.049 61.152, 43.022 63.063 C 42.994 65.068, 47.243 68.957, 53.108 72.295 C 58.676 75.464, 61.406 79.245, 60.561 82.615 C 59.712 85.995, 61.572 89, 64.512 89 C 68.789 89, 71.770 81.619, 70.413 74.388 C 69.504 69.545, 60.462 60.271, 53.703 57.250 C 50.700 55.908, 50.299 55.869, 48 56.699 M 167.500 79.046 C 164.750 79.474, 159.673 79.864, 156.217 79.912 C 151.625 79.976, 148.606 80.673, 145.003 82.499 C 139.003 85.539, 137.499 87.840, 139.576 90.805 C 141.779 93.950, 145.860 94.247, 163.411 92.544 C 172.161 91.695, 180.936 91.008, 182.911 91.018 L 186.500 91.037 179.697 97.390 C 173.527 103.152, 172.505 103.738, 168.697 103.686 C 166.389 103.655, 160.450 104.648, 155.500 105.893 C 150.550 107.139, 145.646 108.234, 144.601 108.329 C 142.543 108.514, 142.594 108.634, 138.892 95 C 136.299 85.451, 134.575 82.148, 131.608 81.051 C 128.632 79.950, 126.394 80.841, 125.122 83.632 C 122.821 88.682, 123.934 93.958, 130.739 110.252 C 131.601 112.316, 132.373 115.987, 132.455 118.411 C 132.736 126.731, 136.960 127.928, 147.710 122.736 C 154.675 119.372, 166.845 115.658, 170.234 115.864 C 172.047 115.974, 175.244 114.448, 179.734 111.330 C 202.341 95.630, 206.582 90.664, 203.181 83.881 C 202.256 82.037, 200.375 79.966, 199 79.279 C 196.215 77.887, 175.903 77.737, 167.500 79.046 M 210 119.646 C 193.577 121.828, 172.470 125.844, 153 130.493 C 149.975 131.215, 143 132.853, 137.500 134.134 C 127.174 136.537, 117.330 141.263, 114.634 145.112 L 113.190 147.174 112.526 145.082 C 111.475 141.771, 107.003 137, 104.950 137 C 103.920 137, 102.123 138.012, 100.955 139.250 C 98.181 142.190, 98.747 146.804, 102.899 155.113 C 104.604 158.527, 106 162.079, 106 163.007 C 106 168.546, 114.555 171.135, 117.583 166.513 C 119.172 164.088, 119.208 158.492, 117.657 155 C 117.134 153.821, 118.759 152.989, 125.246 151.116 C 129.786 149.805, 136.200 147.922, 139.500 146.933 C 147.960 144.396, 161.195 141.600, 191 136.054 C 201.987 134.010, 219 132.356, 219 133.332 C 219 134.455, 213.128 142.551, 210.591 144.924 C 206.172 149.059, 208.027 155, 213.737 155 C 215.662 155, 218.319 152.958, 224.034 147.088 C 236.090 134.704, 238.855 126.702, 233.077 120.923 C 229.668 117.514, 227.111 117.373, 210 119.646 M 57 125.933 C 52.343 127.350, 43.008 132.315, 40.073 134.935 C 34.288 140.099, 35.534 147, 42.251 147 C 45.091 147, 51 144.245, 51 142.921 C 51 142.565, 53.813 141.072, 57.250 139.603 C 67.661 135.156, 68.480 134.604, 68.807 131.811 C 69.409 126.671, 63.781 123.869, 57 125.933 M 87.322 146.250 C 85.699 148.053, 77 165.094, 77 166.472 C 77 166.814, 71.859 177.819, 62.277 197.987 C 59.798 203.206, 57.373 208.381, 56.887 209.487 C 56.009 211.490, 55.370 212.689, 53.150 216.500 C 52.510 217.600, 51.437 219.625, 50.766 221 C 50.095 222.375, 46.685 227.700, 43.187 232.833 C 39.690 237.966, 36.198 243.676, 35.427 245.521 C 33.424 250.313, 34.523 254.560, 38.155 256.064 C 42.445 257.841, 45.432 256.054, 48.590 249.822 C 50.054 246.933, 52.524 242.979, 54.078 241.035 C 55.632 239.091, 59.667 232.100, 63.045 225.500 C 69.894 212.115, 73.772 203.118, 82.658 180 C 85.399 172.869, 85.949 171.601, 91.920 158.654 C 94.164 153.789, 96 149.041, 96 148.104 C 96 143.781, 90.587 142.625, 87.322 146.250 M 145.500 163 C 143.813 164.864, 143.802 165.124, 145.345 166.829 C 147.204 168.883, 147.527 174.146, 145.972 177.051 C 145.407 178.107, 144.558 180.890, 144.086 183.236 C 143.093 188.163, 140.404 196.235, 138.391 200.331 C 137.626 201.888, 136.996 203.688, 136.991 204.331 C 136.986 204.974, 135.875 207.750, 134.522 210.500 C 133.169 213.250, 132.048 215.854, 132.031 216.287 C 132.014 216.721, 129.700 221.896, 126.889 227.787 C 120.938 240.259, 119.764 245.623, 122.539 247.652 C 125.525 249.836, 128.628 249.231, 131.411 245.923 C 132.835 244.231, 134 242.394, 134 241.842 C 134 241.289, 135.469 238.286, 137.264 235.168 C 140.935 228.795, 146.123 217.287, 149.287 208.500 C 150.079 206.300, 151.871 201.350, 153.269 197.500 C 159.494 180.355, 160.253 174.220, 156.985 167.470 C 154.029 161.363, 148.817 159.335, 145.500 163 M 178.129 161.899 C 176.095 163.187, 175.093 174.928, 174.355 206.099 C 173.728 232.562, 173.794 234.074, 175.958 242.830 C 177.812 250.335, 178.913 252.756, 182.136 256.417 C 187.168 262.134, 191.191 264.578, 198.762 266.518 C 204.428 267.969, 205.990 267.939, 220.773 266.089 C 229.525 264.994, 238.669 263.408, 241.093 262.564 C 243.517 261.720, 246.407 261.023, 247.515 261.015 C 250.190 260.995, 257.059 257.367, 259.250 254.816 C 261.912 251.716, 261.624 243.919, 258.750 241.291 C 254.585 237.483, 249.977 235.689, 247.389 236.869 C 244.286 238.283, 243.247 242.510, 245.414 244.905 C 246.969 246.623, 246.902 246.793, 244.283 247.801 C 239.769 249.539, 228.288 251.702, 216.406 253.054 C 203.960 254.470, 197.286 253.527, 193.284 249.787 C 192.066 248.648, 190.042 244.742, 188.787 241.108 C 186.761 235.240, 186.506 232.596, 186.503 217.500 C 186.501 208.150, 186.894 192.850, 187.376 183.500 L 188.253 166.500 185.674 163.750 C 183.046 160.947, 180.585 160.344, 178.129 161.899" stroke="none" fill="black" fill-rule="evenodd"/>
</svg>