<svg xmlns="http://www.w3.org/2000/svg" width="300" height="300" viewBox="0 0 300 300" version="1.1">
	<path d="M 182.483 38.016 C 170.257 39.557, 130.926 48.891, 126.597 51.279 C 123.029 53.247, 122.500 53.985, 122.500 56.990 C 122.500 64.042, 130.837 64.762, 151.659 59.507 C 167.482 55.513, 168.278 55.417, 165.374 57.844 C 164.118 58.893, 162.778 61.810, 162.100 64.967 C 160.300 73.362, 154.244 83.716, 145.250 93.775 C 144.012 95.160, 142.998 96.564, 142.996 96.896 C 142.993 97.228, 140.968 99.731, 138.496 102.458 C 131.890 109.743, 132.382 116, 139.559 116 C 142.286 116, 144.377 114.294, 154.882 103.500 C 166.128 91.943, 169 89.579, 169 91.878 C 169 93.612, 179.613 99.911, 185.207 101.498 C 191.754 103.355, 194.578 102.531, 195.598 98.464 C 196.423 95.177, 194.195 91.987, 189.367 89.542 C 183.354 86.496, 173.998 79.831, 174.015 78.605 C 174.023 77.997, 174.679 75.700, 175.471 73.500 C 178.283 65.695, 177.203 57.340, 173.255 56.349 C 169.203 55.332, 172.465 54.281, 183.517 53.044 C 193.313 51.948, 200.914 52.273, 208.131 54.096 C 212.765 55.266, 214.423 58.842, 213.485 65.644 C 212.367 73.751, 207.301 92.162, 204.581 98 C 203.172 101.025, 202.029 104.175, 202.042 105 C 202.082 107.724, 204.660 110, 207.705 110 C 211.527 110, 212.732 108.565, 218.732 96.868 C 226.332 82.053, 228.500 74.417, 228.500 62.459 C 228.500 52.573, 228.448 52.353, 225.142 48.179 C 223.295 45.847, 220.370 43.208, 218.642 42.314 C 210.696 38.203, 195.413 36.386, 182.483 38.016 M 27.134 43.619 C 25.190 44.980, 24.927 45.797, 25.481 48.749 C 27.056 57.145, 34.288 64.023, 43.641 66.021 C 47.897 66.930, 48.699 67.437, 48.298 68.967 C 48.026 70.009, 48.677 71.677, 49.791 72.791 C 54.431 77.431, 60.755 71.663, 59.695 63.759 C 59.092 59.267, 57.641 57.940, 50 54.894 C 46.975 53.688, 42.475 50.796, 40 48.466 C 35.678 44.399, 32.075 42, 30.288 42 C 29.824 42, 28.405 42.729, 27.134 43.619 M 106.944 54.652 C 106.089 54.883, 104.598 56.411, 103.631 58.048 C 101.588 61.507, 102.134 64.331, 105.556 68 C 107.082 69.636, 109.829 76.723, 113.504 88.500 C 121.632 114.553, 121.777 114.906, 124.657 115.629 C 126.027 115.973, 128.239 115.756, 129.574 115.148 C 131.529 114.258, 132 113.297, 132 110.205 C 132 104.124, 130.192 95.536, 125.866 81.068 C 118.973 58.018, 115.004 52.476, 106.944 54.652 M 195 114.212 C 193.625 114.809, 182.728 115.591, 170.785 115.950 L 149.070 116.602 139.301 121.698 C 128.758 127.198, 126.860 128.969, 128.582 131.699 C 130.475 134.701, 134.790 134.985, 148.404 133.002 C 155.607 131.953, 168.475 130.676, 177 130.164 C 194.214 129.130, 199.405 127.685, 203.535 122.776 C 208.693 116.647, 202.864 110.798, 195 114.212 M 28.955 119.670 C 25.955 120.426, 22.375 121.871, 21 122.880 C 17.551 125.413, 17.652 129.651, 21.226 132.319 C 23.725 134.185, 24.474 134.260, 30.226 133.224 C 33.677 132.603, 39.304 132.360, 42.732 132.684 C 49.634 133.338, 52 132.277, 52 128.531 C 52 125.175, 49.060 122.483, 43.500 120.748 C 35.588 118.280, 34.725 118.216, 28.955 119.670 M 71.271 141.926 C 70.045 142.949, 64.935 151.372, 59.914 160.643 C 54.893 169.914, 48.873 180.650, 46.535 184.500 C 44.197 188.350, 38.344 198.925, 33.528 208 C 28.712 217.075, 21.950 228.775, 18.502 234 C 10.782 245.698, 10 247.211, 10 250.434 C 10 256.060, 18.825 259.444, 22.558 255.250 C 28.240 248.866, 40.636 226.756, 57.345 193.201 C 64.766 178.299, 72.989 162.160, 75.619 157.335 C 80.769 147.887, 81.260 144.528, 77.897 141.750 C 75.243 139.558, 74.072 139.589, 71.271 141.926 M 198 147.042 C 181.795 148.575, 161.124 151.969, 146.136 155.559 C 138.236 157.452, 130.913 159, 129.861 159 C 127.564 159, 114.445 165.471, 113.437 167.102 C 113.004 167.802, 112.013 166.700, 110.906 164.285 C 107.788 157.483, 103.286 155.443, 99.415 159.080 C 95.926 162.358, 96.273 167.286, 101.106 183.081 C 103.364 190.461, 106.117 200.100, 107.224 204.500 C 110.326 216.831, 110.780 217.500, 116.038 217.500 L 120.500 217.500 120.318 208.415 C 120.218 203.418, 119.224 195.318, 118.110 190.415 C 114.759 175.679, 114.419 176.838, 122.500 175.453 C 126.350 174.794, 131.300 173.749, 133.500 173.133 C 138.631 171.694, 139.470 171.715, 138.260 173.250 C 136.380 175.637, 135.996 179.925, 137.013 187.192 C 139.857 207.527, 149.577 220.514, 156.655 213.436 C 159.555 210.536, 159.554 210.267, 156.613 204.876 C 155.300 202.469, 153.712 198.250, 153.084 195.500 C 151.917 190.386, 150.052 170.010, 150.646 168.866 C 151.045 168.097, 161.148 166.319, 169.847 165.486 L 176.194 164.879 173.480 168.437 C 168.880 174.468, 168.091 178.256, 168.050 194.500 C 168.016 207.826, 167.760 210.076, 165.756 214.662 L 163.500 219.824 132 220.217 C 101 220.604, 100.372 220.653, 92.412 223.298 C 83.569 226.235, 80.447 228.682, 81.461 231.877 C 82.119 233.950, 85.299 235.551, 86.852 234.591 C 87.330 234.296, 126.340 233.817, 173.539 233.527 C 263.050 232.977, 270.827 232.606, 280.877 228.407 C 289.826 224.668, 293.273 219.367, 289.171 215.655 C 286.825 213.531, 286.110 213.566, 279.225 216.141 C 274.053 218.074, 270.943 218.327, 247.042 218.751 L 220.585 219.221 225.180 214.559 C 232.855 206.775, 238.135 195.216, 242.094 177.532 C 243.378 171.799, 243.872 167.109, 243.466 164.532 C 242.615 159.142, 239.164 152, 237.411 152 C 236.635 152, 236 151.618, 236 151.152 C 236 149.420, 225.214 146.847, 216.500 146.501 C 211.550 146.304, 203.225 146.548, 198 147.042 M 195.500 162.650 C 193.850 162.843, 189.691 163.261, 186.257 163.579 C 180.722 164.092, 180.184 164.327, 181.507 165.650 C 182.709 166.851, 182.999 170.302, 182.992 183.321 C 182.984 202.422, 181.834 210.719, 178.454 216.073 L 175.975 220 180.737 219.996 C 183.357 219.994, 191.217 219.700, 198.204 219.344 C 210.252 218.729, 210.856 218.599, 209.897 216.808 C 209.131 215.377, 209.388 214.108, 210.955 211.572 C 212.093 209.731, 213.701 207.663, 214.527 206.977 C 217.972 204.119, 224.107 188.286, 227.590 173.269 L 229.153 166.528 226.521 164.264 C 224.061 162.149, 223.054 162.010, 211.194 162.150 C 204.212 162.232, 197.150 162.457, 195.500 162.650" stroke="none" fill="black" fill-rule="evenodd"/>
</svg>