<svg xmlns="http://www.w3.org/2000/svg" width="300" height="300" viewBox="0 0 300 300" version="1.1">
	<path d="M 150.500 15.068 C 148.850 16.125, 146.663 16.992, 145.640 16.995 C 141.231 17.007, 127.090 26.541, 115.500 37.315 C 114.400 38.338, 111.925 40.007, 110 41.024 C 104.990 43.673, 93.063 53.032, 90.752 56.130 C 87.058 61.079, 91.213 66.167, 97.233 64.069 C 98.933 63.476, 100.451 63.118, 100.606 63.273 C 100.761 63.427, 100.499 65.342, 100.023 67.527 C 98.832 73.005, 96.490 105.637, 96.545 116 C 96.578 122.335, 97.088 125.519, 98.545 128.500 C 100.493 132.486, 100.522 132.501, 106.925 132.802 L 113.351 133.105 122.519 123.802 C 127.561 118.686, 132.481 112.816, 133.453 110.759 C 135.532 106.356, 136.516 106.596, 137.473 111.739 C 139.535 122.821, 146.080 131, 152.887 131 C 157.994 131, 163.393 127.362, 163.825 123.629 C 164.273 119.764, 161.374 116.718, 157.754 117.249 C 156.218 117.475, 154.544 117.156, 154.034 116.541 C 153.524 115.926, 152.152 110.490, 150.986 104.461 C 149.820 98.433, 148.240 90.800, 147.475 87.500 C 146.710 84.200, 145.784 79.146, 145.416 76.268 C 144.578 69.713, 143.100 67.516, 140.157 68.450 C 136.231 69.696, 133.773 76.350, 133.629 86.118 C 133.502 94.684, 133.453 94.849, 130.881 95.369 C 129.440 95.660, 127.415 97.207, 126.381 98.806 C 125.346 100.406, 121.250 105.225, 117.279 109.514 C 111.422 115.839, 109.931 116.983, 109.388 115.570 C 109.021 114.611, 109.009 108.128, 109.363 101.163 C 109.717 94.199, 110.290 83.033, 110.636 76.351 C 111.033 68.690, 110.874 63.077, 110.204 61.155 C 109.175 58.204, 109.290 58.020, 113.821 55.370 C 118.177 52.822, 123.766 48.771, 138.368 37.582 C 141.640 35.073, 147.052 32.147, 150.606 30.965 C 157.806 28.569, 161 25.380, 161 20.588 C 161 16.537, 158.488 12.980, 155.693 13.073 C 154.487 13.113, 152.150 14.011, 150.500 15.068 M 27.554 38.943 C 25.023 41.585, 24.785 42.412, 25.227 47.014 C 25.924 54.264, 29.868 59.422, 38.966 64.980 C 44.613 68.429, 46.856 70.477, 48.433 73.624 C 50.916 78.577, 53.203 80.238, 56.427 79.429 C 60.299 78.457, 61.482 74.171, 59.634 67.813 C 58.186 62.830, 52.487 55, 50.309 55 C 48.689 55, 42.729 50.135, 40.840 47.270 C 39.835 45.747, 39.010 43.332, 39.007 41.905 C 38.991 35.904, 32.159 34.137, 27.554 38.943 M 208 51.547 C 204.975 52.305, 199.350 54.097, 195.500 55.528 C 191.650 56.960, 185.683 59.024, 182.240 60.115 C 178.127 61.420, 175.431 62.938, 174.380 64.543 C 172.052 68.096, 173.310 71.703, 177.590 73.744 C 180.886 75.316, 181.550 75.319, 187.314 73.795 C 190.716 72.895, 194.276 71.854, 195.224 71.482 C 196.425 71.011, 194.975 74.703, 190.445 83.653 C 186.869 90.719, 183.506 96.650, 182.972 96.833 C 182.437 97.017, 182 97.716, 182 98.388 C 182 99.060, 179.815 101.704, 177.145 104.263 C 174.475 106.821, 171.575 110.394, 170.700 112.201 C 169.188 115.322, 169.214 115.599, 171.228 117.743 C 174.534 121.262, 177.892 120.577, 186.100 114.711 C 192.089 110.430, 194.270 108.095, 197.541 102.461 C 199.764 98.632, 202.577 93.925, 203.792 92 C 205.008 90.075, 207.392 85.546, 209.091 81.935 C 211.465 76.891, 212.880 75.106, 215.200 74.231 C 217.982 73.181, 218.188 72.773, 217.833 69.046 C 217.523 65.792, 217.771 65, 219.102 65 C 222.002 65, 223.979 73.404, 226.006 94.347 C 227.070 105.334, 226.828 106.139, 222.910 104.660 C 219.037 103.198, 216.601 104.689, 216.192 108.773 C 215.945 111.248, 216.721 112.716, 220.192 116.334 C 227.631 124.086, 235.397 123.764, 239.427 115.538 C 242.480 109.305, 242.188 91.897, 238.772 76.500 C 234.397 56.779, 232.056 53.036, 222.872 51.066 C 216.732 49.749, 214.932 49.807, 208 51.547 M 19.007 133.670 C 12.091 135.544, 11 136.470, 11 140.467 C 11 146.628, 17.859 149.441, 25.876 146.568 C 31.091 144.699, 38.265 144.563, 46.115 146.185 C 52.570 147.518, 55 146.524, 55 142.552 C 55 137.186, 43.331 131.944, 31.712 132.091 C 27.746 132.141, 22.028 132.852, 19.007 133.670 M 180 151.784 C 172.477 152.393, 148.742 156.107, 143.048 157.566 C 139.745 158.413, 132.082 160.874, 126.021 163.036 C 116.740 166.347, 115 166.709, 115 165.328 C 115 162.848, 110.145 157, 108.085 157 C 107.088 157, 105.034 158.238, 103.521 159.750 C 100.981 162.287, 100.807 162.964, 101.262 168.500 C 101.948 176.850, 104.561 191.490, 107.687 204.500 C 110.727 217.155, 119.073 240.318, 121.598 243.108 C 125.406 247.316, 133.919 244.009, 132.723 238.785 C 132.436 237.528, 129.965 229.075, 127.233 220 C 124.502 210.925, 121.786 201.250, 121.199 198.500 C 119.873 192.294, 117.799 180.995, 117.628 179.045 C 117.532 177.949, 121.702 176.694, 134.500 173.969 C 143.850 171.979, 155.325 169.802, 160 169.134 C 164.675 168.465, 169.719 167.662, 171.209 167.350 L 173.918 166.782 174.209 186.837 L 174.500 206.891 170.248 207.960 C 167.910 208.548, 161.056 209.427, 155.016 209.912 C 143.194 210.863, 139.332 212.323, 135.681 217.221 C 132.798 221.089, 134.490 224.621, 139.704 225.619 C 142.912 226.234, 160.381 224.540, 173.613 222.333 L 176.726 221.813 177.947 229.661 C 179.451 239.327, 180.690 241.249, 185.139 240.820 C 189.989 240.352, 191.234 237.332, 190.485 227.852 L 189.880 220.204 195.013 219.498 C 202.176 218.513, 214.014 212.323, 216.249 208.395 C 217.967 205.374, 217.957 205.215, 215.868 202.559 C 214.071 200.275, 213.198 199.928, 210.514 200.431 C 208.751 200.762, 205.460 201.926, 203.202 203.016 C 200.944 204.107, 197.117 205, 194.698 205 L 190.299 205 189.650 195.846 C 188.832 184.332, 188.810 169.658, 189.607 167.582 C 190.497 165.264, 200.709 165.520, 211.060 168.120 C 226.259 171.939, 227 172.834, 227 187.391 C 227 202.218, 224.062 220.900, 219.336 236.121 L 216.660 244.743 210.080 245.358 C 184.416 247.760, 167.503 248.294, 156.929 247.036 L 145.982 245.734 139.606 248.873 C 132.981 252.134, 131.208 254.651, 133.074 258.139 C 134.701 261.178, 137.663 262.078, 145.247 261.838 C 149.236 261.712, 157.295 261.987, 163.155 262.450 C 172.730 263.207, 198.828 261.894, 204.169 260.387 C 205.240 260.085, 206.078 260.670, 206.505 262.015 C 208.164 267.244, 216.192 266.492, 221.930 260.572 C 223.771 258.672, 226.663 256.911, 228.507 256.565 C 230.318 256.225, 232.323 255.315, 232.964 254.543 C 234.496 252.697, 234.637 246.712, 233.160 246.220 C 231.885 245.795, 232.179 243.960, 235.079 234.230 C 237.680 225.502, 240.772 208.440, 241.982 196.135 C 245.065 164.796, 233.947 153.920, 197.015 152.148 C 189.582 151.792, 181.925 151.628, 180 151.784 M 53.293 186.015 C 50.821 187.011, 48.138 190.979, 42.488 202 C 38.293 210.183, 25.430 230.176, 22.089 233.708 C 20.940 234.923, 20 236.192, 20 236.530 C 20 236.867, 19.438 237.731, 18.750 238.449 C 18.063 239.167, 16.825 240.765, 16 242 C 15.175 243.235, 14.050 244.761, 13.500 245.391 C 11.480 247.706, 9 252.863, 9 254.749 C 9 259.546, 16.467 261.609, 22.001 258.341 C 24.629 256.788, 27.609 252.658, 39.564 234 C 48.332 220.316, 61 195.489, 61 191.990 C 61 189.549, 57.801 184.922, 56.211 185.063 C 55.820 185.098, 54.507 185.527, 53.293 186.015" stroke="none" fill="black" fill-rule="evenodd"/>
</svg>