<svg xmlns="http://www.w3.org/2000/svg" width="300" height="300" viewBox="0 0 300 300" version="1.1">
	<path d="M 169 42.059 C 131.502 44.603, 123.449 45.476, 120.674 47.294 C 117.284 49.515, 116.691 52.691, 119.199 55.199 C 120.945 56.945, 122.008 57.151, 126.375 56.590 C 141.542 54.638, 149.839 54.024, 162.500 53.918 C 170.200 53.854, 182.282 53.508, 189.350 53.150 C 196.417 52.793, 202.582 52.738, 203.050 53.028 C 203.517 53.319, 203.433 55.396, 202.862 57.645 L 201.824 61.733 195.881 62.355 C 192.612 62.696, 177.014 63.259, 161.219 63.605 C 131.063 64.265, 121.300 65.325, 111.098 69.044 C 104.219 71.553, 102.323 73.692, 104.427 76.569 C 105.715 78.331, 106.764 78.359, 127.638 77.194 C 164.962 75.112, 198.977 73.643, 199.428 74.094 C 199.665 74.331, 199.429 76.545, 198.903 79.013 L 197.948 83.500 184.203 83.200 C 168.882 82.866, 148.724 85.387, 138.095 88.968 C 134.778 90.086, 130.544 91, 128.687 91 C 126.595 91, 124.630 91.751, 123.523 92.974 C 121.854 94.819, 121.844 95.113, 123.381 97.458 C 125.307 100.398, 128.737 101.480, 133.263 100.577 C 135.043 100.222, 143.250 99.308, 151.500 98.547 C 181.998 95.733, 198.525 93.788, 199.450 92.906 C 199.973 92.408, 201.836 92, 203.591 92 C 206.379 92, 206.984 91.496, 208.377 88.015 C 209.254 85.824, 210.264 82.112, 210.622 79.765 C 211.452 74.329, 212.542 73, 216.172 73 C 219.486 73, 224.896 70.484, 226.718 68.096 C 228.421 65.864, 228.289 62.432, 226.429 60.571 C 224.426 58.569, 219.397 58.523, 218.638 60.500 C 218.322 61.325, 217.405 62, 216.601 62 C 215.428 62, 215.323 61.359, 216.070 58.757 C 218.539 50.149, 216.626 44.946, 209.935 42.067 C 204.334 39.658, 204.383 39.658, 169 42.059 M 42.895 78.661 C 42.012 78.898, 40.693 80.205, 39.965 81.566 C 37.250 86.638, 44.301 91.823, 54.076 91.944 C 59.984 92.016, 63.020 94.997, 63.746 101.438 C 64.269 106.080, 64.858 106.564, 69.456 106.134 C 72.279 105.869, 72.967 104.229, 72.985 97.730 C 72.997 93.189, 72.433 91.059, 70.336 87.730 C 66.849 82.192, 65.831 81.528, 57.903 79.615 C 51.495 78.068, 46.338 77.740, 42.895 78.661 M 127.168 114.918 C 117.067 115.487, 116.770 115.573, 113.918 118.766 C 110.553 122.531, 110.240 125.002, 112.829 127.345 C 114.263 128.643, 116.727 129, 124.249 129 L 133.841 129 134.521 135.356 C 134.973 139.571, 134.664 144.846, 133.603 151.020 C 132.724 156.140, 131.891 160.428, 131.752 160.547 C 131.613 160.667, 128.265 162.385, 124.311 164.364 C 115.976 168.537, 108.658 174.972, 109.171 177.678 C 109.877 181.404, 115.383 180.546, 133 173.963 C 144.658 169.607, 152.552 166.885, 160.500 164.481 C 165.450 162.984, 170.028 161.337, 170.674 160.821 C 172.378 159.458, 179.180 164.028, 178.383 166 C 178.050 166.825, 177.546 171.563, 177.264 176.528 L 176.751 185.556 161.125 185.528 C 137.323 185.485, 117.621 189.083, 110.961 194.687 C 107.389 197.692, 106.793 203.284, 109.869 204.930 C 110.896 205.480, 111.925 205.741, 112.155 205.511 C 112.385 205.281, 119.307 203.861, 127.537 202.354 C 139.817 200.107, 145.488 199.606, 159.164 199.558 C 168.330 199.526, 176.079 199.750, 176.386 200.055 C 178.617 202.277, 179.441 266.373, 177.346 274.750 C 176.494 278.157, 172.281 277.625, 163.500 273 C 153.339 267.649, 151.089 267.813, 149.531 274.021 C 148.761 277.088, 151.364 279.787, 161.463 286.389 C 172.272 293.456, 180.223 293.760, 186.453 287.345 C 191.922 281.714, 192.386 277.834, 191.621 244.061 C 191.253 227.802, 190.687 211.743, 190.364 208.374 L 189.778 202.248 199.139 201.812 C 209.557 201.327, 213.911 199.686, 215.805 195.528 C 217.587 191.618, 217.263 189.218, 214.728 187.557 C 212.390 186.026, 208 186.456, 208 188.216 C 208 189.212, 190.655 188.992, 189.649 187.983 C 189.365 187.699, 188.991 182.524, 188.817 176.483 L 188.500 165.500 191 165.249 C 196.238 164.723, 204.085 162.804, 207.049 161.326 C 208.810 160.447, 210.847 158.223, 211.796 156.143 C 212.710 154.139, 215.331 150.025, 217.621 147 C 223.427 139.328, 225 135.811, 225 130.500 C 225 124.347, 222.876 120.597, 217.657 117.539 C 213.935 115.358, 212.123 115, 204.799 115 C 189.071 115, 180.339 118.117, 175.965 125.290 C 173.617 129.140, 173.509 133.259, 175.486 143.592 C 176.304 147.865, 176.715 151.617, 176.399 151.930 C 176.084 152.244, 173.155 152.399, 169.889 152.276 C 166.089 152.132, 160.633 152.941, 154.726 154.523 C 149.652 155.883, 145.182 156.996, 144.794 156.997 C 144.406 156.999, 144.776 155.088, 145.615 152.750 C 146.454 150.412, 147.401 143.438, 147.719 137.250 L 148.297 126 152.999 126 C 155.586 126, 159.087 126.483, 160.780 127.073 C 166.708 129.140, 171.392 123.301, 167.371 118.857 C 162.820 113.829, 156.857 113.245, 127.168 114.918 M 186.398 130.600 C 187.130 134.012, 188.925 147.725, 188.969 150.250 C 189.021 153.214, 202 152.554, 202 149.587 C 202 148.928, 204.250 144.926, 207 140.695 C 214.491 129.169, 214.399 129, 200.582 129 C 194.302 129, 188.401 128.707, 187.469 128.350 C 186.043 127.802, 185.873 128.157, 186.398 130.600 M 64.284 144.019 C 63.065 144.509, 58.565 145.204, 54.284 145.563 C 44.604 146.375, 39 149.417, 39 153.859 C 39 159.749, 43.626 161.188, 53.955 158.512 C 69.119 154.582, 75.251 149.394, 70.429 144.571 C 68.675 142.818, 67.525 142.714, 64.284 144.019 M 76.623 180.575 C 74.821 182.542, 72.771 185.804, 72.067 187.825 C 70.502 192.320, 58.722 215.992, 55.310 221.500 C 45.962 236.589, 37.634 251.795, 34.567 259.372 C 31.490 266.974, 33.019 273, 38.025 273 C 40.399 273, 41.661 272.065, 44.438 268.250 C 46.339 265.637, 48.163 262.445, 48.490 261.155 C 48.818 259.865, 52.300 252.890, 56.228 245.655 C 67.302 225.257, 85.818 188.107, 86.533 184.849 C 87.325 181.243, 84.835 177, 81.926 177 C 80.811 177, 78.424 178.609, 76.623 180.575 M 147.500 220.956 C 131.917 221.444, 129.060 221.787, 126.222 223.510 C 121.092 226.624, 120.475 232.358, 125.009 234.781 C 126.887 235.785, 131.066 235.992, 142 235.623 C 167.748 234.753, 180.257 229.257, 173 222 C 171.816 220.816, 169.878 220.080, 168.250 220.196 C 166.738 220.304, 157.400 220.646, 147.500 220.956" stroke="none" fill="black" fill-rule="evenodd"/>
</svg>