<svg xmlns="http://www.w3.org/2000/svg" width="300" height="300" viewBox="0 0 300 300" version="1.1">
	<path d="M 132.465 10.020 C 126.311 12.308, 126.502 20.078, 132.917 28.392 C 137.528 34.369, 140.322 35.674, 143.728 33.443 C 148.005 30.640, 146.593 23.172, 140.230 14.936 C 135.967 9.419, 135.269 8.977, 132.465 10.020 M 163.204 34.603 C 158.437 36.686, 134.015 43.739, 123.500 46.070 C 118.298 47.224, 110.791 48.069, 105.710 48.073 C 98.319 48.080, 96.607 48.393, 94.960 50.040 C 92.022 52.978, 92.355 58.348, 95.635 60.927 C 102.127 66.034, 129.100 62.067, 156.796 51.932 C 172.482 46.192, 179.106 38.989, 172.777 34.557 C 170.095 32.678, 167.583 32.690, 163.204 34.603 M 30.636 43.636 C 24.335 49.938, 30.789 61.192, 43.220 65.578 C 45.558 66.403, 48.673 68.229, 50.142 69.636 C 52.843 72.224, 55.616 72.262, 58.750 69.755 C 62.725 66.575, 57.617 56.792, 49.722 52.464 C 47.095 51.024, 44.170 48.643, 43.222 47.173 C 38.662 40.097, 35.160 39.113, 30.636 43.636 M 199.975 59.565 C 199.439 60.976, 199 63.269, 199 64.661 C 199 68.079, 195.559 80.453, 192.928 86.500 C 184.527 105.805, 180.559 112.041, 168.414 125.027 C 164.336 129.388, 161 133.570, 161 134.323 C 161 136.283, 164.305 139, 166.689 139 C 171.245 139, 180.631 130.931, 190.246 118.750 C 196.341 111.028, 198 109.683, 198 112.465 C 198 116.762, 209.091 117.226, 218.829 113.335 C 222.498 111.869, 227.485 109.616, 229.911 108.329 C 232.336 107.041, 234.503 106.170, 234.726 106.393 C 234.949 106.615, 233.755 109.524, 232.072 112.856 C 228.988 118.966, 222.985 139.128, 223.018 143.267 C 223.027 144.495, 221.357 150.539, 219.307 156.697 C 216.362 165.541, 215.305 167.668, 214.278 166.816 C 213.563 166.222, 210.290 161.634, 207.005 156.618 C 200.325 146.420, 196.220 143, 190.657 143 C 186.154 143, 184.932 145.153, 187.304 148.907 C 188.205 150.333, 190.497 154.745, 192.397 158.712 C 196.262 166.780, 200.704 173.655, 205.671 179.253 C 207.502 181.317, 209 183.612, 209 184.353 C 209 185.095, 206.982 189.706, 204.515 194.600 C 202.048 199.495, 200.023 203.995, 200.015 204.600 C 200.007 205.205, 198.760 207.455, 197.244 209.600 C 195.729 211.745, 193.816 214.816, 192.994 216.424 C 192.172 218.032, 189.856 221.115, 187.848 223.275 C 184.779 226.575, 183.741 227.109, 181.348 226.619 C 175.536 225.430, 172.434 231.068, 176.377 235.652 C 178.565 238.195, 179.470 238.500, 184.840 238.500 C 189.379 238.500, 191.546 237.986, 193.677 236.405 C 199.553 232.045, 212.740 212.992, 217.007 202.695 L 219.396 196.932 221.944 200.216 C 227.546 207.434, 244.455 225.168, 256.872 236.847 C 266.371 245.780, 270 249.833, 270 251.508 C 270 252.848, 271.253 254.877, 272.976 256.326 C 278.435 260.920, 285.004 260.715, 286.531 255.903 C 287.289 253.515, 284.561 245.586, 282.116 243.069 C 281.227 242.154, 278.794 239.401, 276.710 236.953 C 274.625 234.504, 267.162 226.650, 260.126 219.500 C 253.089 212.350, 242.547 201.195, 236.699 194.711 C 224.888 181.616, 225.001 181.958, 229.192 172.093 C 231.662 166.278, 237.998 144.407, 238.009 141.659 C 238.013 140.471, 239.419 132.750, 241.131 124.500 C 242.844 116.250, 244.357 107.558, 244.493 105.185 C 244.666 102.160, 245.353 100.441, 246.788 99.436 C 251.846 95.893, 254.829 86.229, 251.800 83.200 C 250.025 81.425, 245.542 81.744, 243.702 83.777 C 241.769 85.912, 238.530 87.571, 200.651 105.824 C 200.183 106.049, 200.494 105.168, 201.342 103.866 C 204.573 98.902, 209.174 84.382, 209.712 77.450 C 210.281 70.114, 208.049 59.297, 205.651 57.765 C 203.336 56.288, 200.931 57.050, 199.975 59.565 M 127.500 83.551 C 123.650 84.280, 118.847 84.905, 116.827 84.939 C 114.137 84.984, 112.358 85.796, 110.179 87.975 C 107.736 90.418, 107.001 90.706, 106.069 89.583 C 103.776 86.820, 100.855 86.991, 97.778 90.068 C 95.115 92.731, 94.896 93.432, 95.535 97.259 C 95.924 99.592, 97.284 103.567, 98.558 106.092 C 99.832 108.618, 102.111 114.918, 103.622 120.092 C 105.133 125.267, 107.031 130.287, 107.840 131.250 C 109.458 133.176, 114.498 133.621, 115.544 131.929 C 115.939 131.290, 117.675 131.107, 119.853 131.475 C 122.836 131.979, 124.961 131.367, 131.527 128.115 C 135.942 125.928, 142.236 123.135, 145.515 121.909 C 154.807 118.432, 159.548 112.359, 155.556 109.046 C 154.320 108.020, 154.517 107.176, 156.930 103.174 C 160.626 97.043, 161.310 93.765, 159.884 89.007 C 158.228 83.480, 154.606 81.969, 143.349 82.112 C 138.482 82.174, 131.350 82.821, 127.500 83.551 M 125.500 98.470 C 111.174 100.919, 111.761 100.375, 115.035 108.185 C 116.116 110.762, 117 113.548, 117 114.376 C 117 115.204, 117.475 116.176, 118.056 116.534 C 119.609 117.494, 130 113.005, 130 111.374 C 130 110.608, 130.971 109.197, 132.157 108.240 C 137.801 103.686, 142.195 99.504, 143.088 97.836 C 143.937 96.250, 143.692 96.017, 141.285 96.124 C 139.753 96.192, 132.650 97.248, 125.500 98.470 M 34.064 124.005 C 27.436 125.608, 26.383 125.642, 24.363 124.318 C 23.117 123.502, 21.219 123.113, 20.145 123.454 C 15.850 124.817, 13.310 136.168, 16.571 139.429 C 17.442 140.299, 19.784 140.990, 21.821 140.978 C 25.888 140.953, 46.860 134.191, 49.396 132.086 C 51.551 130.298, 51.429 125.698, 49.171 123.655 C 46.917 121.615, 43.638 121.691, 34.064 124.005 M 131.895 148.438 C 131.654 148.679, 125.365 149.335, 117.918 149.897 C 110.471 150.458, 103.659 151.194, 102.779 151.531 C 100.626 152.357, 98.119 157.739, 98.755 160.169 C 99.883 164.483, 103.213 165.350, 116.015 164.661 L 127.920 164.021 126 167.275 C 122.385 173.403, 120.725 183.476, 121.432 195 C 121.786 200.775, 122.342 207.189, 122.667 209.254 L 123.257 213.009 116.379 216.069 C 112.595 217.752, 107.963 219.832, 106.084 220.690 C 101.178 222.932, 88.191 225.974, 83.466 225.988 C 80.079 225.998, 79.156 226.466, 77.716 228.904 C 75.325 232.952, 75.556 234.710, 78.923 238.077 C 81.357 240.511, 82.654 240.996, 86.673 240.976 C 93.429 240.944, 104.477 237.810, 114.659 233.039 C 119.420 230.807, 123.538 229.204, 123.809 229.476 C 124.081 229.747, 124.517 234.414, 124.778 239.845 C 125.466 254.133, 122.570 268.816, 119.310 267.565 C 117.579 266.901, 113.261 268.878, 112.583 270.644 C 111.022 274.713, 117.155 281, 122.685 281 C 130.837 281, 134.704 275.839, 137.667 261 C 139.122 253.713, 138.995 239.891, 137.340 225.382 L 136.756 220.264 141.445 217.038 C 148.293 212.326, 149.472 206.666, 144.310 203.283 C 142.088 201.827, 141.587 201.826, 138.557 203.271 L 135.238 204.854 134.630 201.177 C 133.629 195.126, 133.920 182.536, 135.144 178.899 C 135.773 177.030, 139.346 172.314, 143.082 168.420 C 146.819 164.526, 150.187 160.104, 150.566 158.593 C 152.064 152.624, 146.475 148, 137.762 148 C 134.776 148, 132.136 148.197, 131.895 148.438 M 51.214 172.750 C 50.110 173.713, 46.636 179.497, 43.495 185.604 C 40.354 191.711, 33.956 202.061, 29.277 208.604 C 16.700 226.190, 13 232.688, 13 237.187 C 13 241.879, 15.797 245, 20 245 C 23.858 245, 26.561 242.251, 29.682 235.151 C 31.049 232.043, 32.949 228.600, 33.904 227.500 C 35.315 225.876, 42.665 214.368, 50.627 201.316 C 52.712 197.899, 61 178.883, 61 177.517 C 61 175.764, 56.364 171, 54.659 171 C 53.868 171, 52.318 171.787, 51.214 172.750" stroke="none" fill="black" fill-rule="evenodd"/>
</svg>