<svg xmlns="http://www.w3.org/2000/svg" width="300" height="300" viewBox="0 0 300 300" version="1.1">
	<path d="M 181.121 9.390 C 178.356 10.923, 175.710 16.512, 176.529 19.092 C 177.132 20.990, 174.375 31.862, 172.889 33.450 C 172.400 33.973, 172 35.048, 172 35.841 C 172 36.633, 169.754 41.915, 167.008 47.579 C 161.213 59.535, 161.377 62.941, 167.750 62.985 C 170.574 63.004, 172.368 61.098, 177.957 52.142 L 182.413 45 187.386 45 C 192.571 45, 195.494 44.268, 205.500 40.464 C 208.800 39.210, 212.850 37.738, 214.500 37.194 C 216.150 36.650, 218.359 35.858, 219.409 35.434 C 221.101 34.752, 221.248 35.008, 220.711 37.695 C 220.378 39.362, 218.507 43.375, 216.555 46.613 C 211.495 55.005, 212.041 59, 218.248 59 C 221.433 59, 223.862 56.751, 229.473 48.604 C 236.015 39.104, 235.376 28.016, 228.035 23.680 C 222.107 20.178, 214.467 21.529, 194.846 29.549 C 188.954 31.957, 187.484 31.850, 188.923 29.119 C 189.392 28.228, 190.303 24.941, 190.946 21.812 C 191.942 16.970, 191.877 15.663, 190.510 13.019 C 189.627 11.311, 187.771 9.483, 186.387 8.957 C 183.410 7.825, 184.036 7.774, 181.121 9.390 M 190.873 57.250 C 187.229 60.727, 179.764 70.736, 173.538 80.493 C 171.435 83.789, 167.753 88.893, 165.357 91.835 C 160.120 98.264, 159.337 103.366, 163.431 104.393 C 168.550 105.678, 173.760 101.220, 183.721 87.033 C 186.244 83.440, 189.216 79.488, 190.327 78.252 L 192.345 76.004 197.923 79.198 C 211.390 86.910, 221.561 92, 223.502 92 C 224.656 92, 226.140 91.460, 226.800 90.800 C 228.702 88.898, 228.240 83.650, 226.002 81.734 C 221.845 78.175, 212.499 72.434, 206.612 69.824 L 200.500 67.114 200.846 62.491 C 201.097 59.129, 200.714 57.342, 199.441 55.934 C 196.956 53.189, 194.779 53.523, 190.873 57.250 M 112.163 59.520 C 109.519 62.881, 109.375 67.124, 111.829 69.345 C 113.396 70.764, 116.288 70.992, 132.079 70.944 C 150.875 70.886, 156.347 70.043, 158.301 66.905 C 159.890 64.354, 158.254 60.056, 155.222 58.813 C 153.710 58.193, 144.014 57.491, 133.413 57.233 L 114.326 56.770 112.163 59.520 M 44.894 59.170 C 41.801 60.239, 39.896 63.885, 40.741 67.119 C 41.075 68.395, 42.732 71.264, 44.424 73.495 C 46.116 75.727, 48.624 80.015, 49.997 83.026 C 51.371 86.037, 53.171 89.044, 53.997 89.709 C 55.796 91.157, 58.994 90.427, 60.828 88.149 C 64.547 83.533, 56.076 62.690, 49 59.043 C 48.175 58.618, 46.328 58.675, 44.894 59.170 M 125.380 79.431 C 115.256 80.887, 112 82.819, 112 87.368 C 112 92.857, 114.627 94.373, 122.712 93.551 C 130.508 92.758, 149.672 89.463, 152.212 88.478 C 156.674 86.750, 154.907 79.631, 149.761 78.602 C 145.383 77.727, 134.702 78.090, 125.380 79.431 M 179.500 113.530 C 174.936 115.175, 147.996 122, 146.065 122 C 145.364 122, 142.857 123.305, 140.494 124.899 C 136.283 127.741, 134 127.587, 134 124.461 C 134 123.261, 129.821 121, 127.606 121 C 126.891 121, 125.288 121.883, 124.044 122.962 C 122.180 124.578, 121.860 125.677, 122.225 129.212 C 122.992 136.645, 121.121 177.084, 119.552 187 C 118.725 192.225, 117.565 202.350, 116.974 209.500 C 116.383 216.650, 115.239 225.156, 114.432 228.401 C 113.093 233.783, 113.111 234.465, 114.637 236.151 C 119.739 241.789, 128 232.897, 128 221.767 C 128 219.604, 129.086 211.008, 130.414 202.667 C 133.168 185.369, 135.018 162.666, 135.007 146.309 C 135.003 139.941, 135.430 134.852, 135.997 134.502 C 136.545 134.163, 143.408 133.519, 151.247 133.070 C 161.256 132.498, 167.138 131.664, 171 130.269 C 174.025 129.176, 178.937 127.708, 181.915 127.007 C 190.146 125.067, 190.100 124.940, 191.998 155 C 192.536 163.525, 193.463 176.800, 194.057 184.500 C 194.888 195.255, 194.841 201.281, 193.857 210.500 C 191.439 233.155, 192.120 237.191, 198.105 235.688 C 201.422 234.856, 203.617 230.724, 205.980 220.868 C 207.637 213.958, 207.984 209.103, 207.973 193 C 207.966 182.275, 207.324 168.100, 206.547 161.500 C 205.769 154.900, 204.628 143.967, 204.010 137.204 C 203.067 126.874, 202.457 124.175, 200.193 120.323 C 195.687 112.652, 188.489 110.289, 179.500 113.530 M 42.265 130.113 C 29.007 134.562, 24.085 140.085, 29 145 C 31.931 147.931, 34.945 147.505, 46.662 142.500 C 52.456 140.025, 57.962 138, 58.898 138 C 61.292 138, 63 136.013, 63 133.229 C 63 126.788, 55.523 125.664, 42.265 130.113 M 167.138 159.538 C 165.290 160.340, 160.790 161.471, 157.138 162.050 C 149.806 163.212, 140.429 167.068, 138.383 169.763 C 134.522 174.847, 139.065 178.516, 148.280 177.757 C 154.312 177.261, 167.303 173.446, 173.008 170.496 C 179.199 167.294, 180.603 163.603, 177 160 C 174.653 157.653, 171.788 157.519, 167.138 159.538 M 68.738 170.087 C 66.875 171.172, 62 179.996, 62 182.284 C 62 184.885, 46.966 216.586, 40.082 228.500 C 36.152 235.303, 28.710 244.957, 26.971 245.509 C 20.889 247.439, 18.686 256.438, 23.520 259.605 C 25.866 261.142, 26.347 261.139, 30.474 259.563 C 39.583 256.084, 50.098 240.163, 62.289 211.390 C 76.557 177.712, 77.887 173.153, 74.250 170.392 C 72.145 168.794, 71.061 168.734, 68.738 170.087 M 152.500 183.660 C 143.121 186.513, 139.329 191.008, 142.035 196.066 C 143.438 198.687, 150.244 198.637, 160.590 195.931 C 166.399 194.412, 170.125 194.017, 174.616 194.445 C 181.569 195.108, 183.362 193.993, 182.822 189.343 C 182.609 187.507, 181.348 185.791, 179.102 184.282 C 176.158 182.305, 174.489 182.009, 166.602 182.070 C 161.522 182.109, 155.290 182.811, 152.500 183.660 M 168.500 209.483 C 161.364 212.213, 144.234 216.990, 141.460 217.023 C 140.382 217.036, 137.250 218.274, 134.500 219.773 C 130.699 221.846, 129.426 223.136, 129.193 225.153 C 128.534 230.849, 136.846 232.568, 149.581 229.369 C 156.366 227.665, 158.174 227.938, 155.869 230.320 C 147.291 239.184, 143.321 244.049, 137.521 252.803 C 133.501 258.871, 129.531 263.708, 127.862 264.571 C 124.995 266.054, 123.322 269.792, 124.340 272.443 C 124.645 273.238, 126.435 274.179, 128.317 274.532 C 132.854 275.383, 138.668 272.402, 143.445 266.777 C 160.406 246.803, 168.346 234.470, 170.401 224.912 C 170.792 223.090, 172.188 221.768, 175.115 220.448 C 183.727 216.565, 186.251 212.347, 182.171 208.655 C 179.744 206.458, 175.777 206.699, 168.500 209.483 M 169.926 236.074 C 168.867 237.133, 168 238.850, 168 239.889 C 168 242.596, 191.735 265.606, 202.500 273.334 C 207.450 276.887, 212.822 281.191, 214.437 282.897 C 217.656 286.297, 220.992 286.865, 223.429 284.429 C 226.971 280.887, 224.159 275.087, 214.885 266.806 C 196.517 250.405, 183.483 240, 181.305 240 C 180.779 240, 179.332 238.917, 178.088 237.594 C 174.959 234.263, 172.243 233.757, 169.926 236.074" stroke="none" fill="black" fill-rule="evenodd"/>
</svg>