<svg xmlns="http://www.w3.org/2000/svg" width="300" height="300" viewBox="0 0 300 300" version="1.1">
	<path d="M 232 32.382 C 228.975 33.077, 224.250 34.384, 221.500 35.285 C 212.864 38.116, 201.263 40.971, 194.511 41.927 C 187.654 42.898, 185.477 44.247, 184.505 48.129 C 183.689 51.386, 185.992 54.177, 190.549 55.456 C 193.887 56.392, 194.165 56.696, 192.881 58.009 C 191.349 59.577, 190.058 62.239, 185.523 73.187 C 180.418 85.512, 183.640 90.500, 196.706 90.500 C 200.718 90.500, 204 90.777, 204 91.117 C 204 92.038, 200.113 101.802, 197.478 107.500 C 196.207 110.250, 193.844 115.425, 192.227 119 C 190.611 122.575, 188.110 127.233, 186.671 129.351 C 183.367 134.210, 182.404 139.148, 184.007 143.017 C 185.103 145.662, 185.721 146, 189.466 146 C 194.052 146, 197 143.810, 197 140.403 C 197 139.337, 198.238 136.672, 199.750 134.482 C 201.262 132.292, 204.650 126.225, 207.277 121 L 212.054 111.500 211.422 118.503 C 210.602 127.595, 212.092 133.025, 216.661 137.594 C 222.132 143.065, 228.165 145.289, 236 144.721 C 243.497 144.178, 257.334 139.920, 262.179 136.666 C 266.387 133.840, 267.125 129.710, 263.920 126.931 C 261.123 124.504, 261.689 124.466, 248.029 128.017 C 233.378 131.827, 230.680 131.834, 226.923 128.077 C 223.628 124.782, 223.591 124.520, 225.077 114.940 C 226.319 106.935, 225.296 102.290, 221.811 100.114 C 219.826 98.874, 219.398 98.999, 217.309 101.428 C 214.326 104.895, 214.399 104.127, 217.965 94.583 C 221.256 85.773, 220.829 86.224, 230.452 81.428 C 238.055 77.640, 238.977 76.726, 238.953 73 C 238.916 67.393, 235.872 66.113, 228.284 68.514 C 226.148 69.190, 226.090 69.034, 226.667 64.162 C 227.077 60.701, 226.734 57.481, 225.576 53.944 C 224.647 51.103, 224.064 48.603, 224.280 48.386 C 224.497 48.170, 229.359 46.597, 235.087 44.891 C 246.744 41.418, 248 40.703, 248 37.533 C 248 32.336, 241.416 30.216, 232 32.382 M 123.500 46.957 C 113.524 47.540, 109.357 48.223, 105.588 49.892 C 97.496 53.476, 94.986 57.868, 98.969 61.472 C 100.750 63.084, 101.681 63.144, 108.719 62.101 C 120.988 60.283, 140.631 59.166, 151 59.697 C 161.737 60.246, 164.250 59.272, 164.250 54.558 C 164.250 51.311, 163.260 50.532, 156.500 48.460 C 150.042 46.481, 139.711 46.011, 123.500 46.957 M 211.589 54.500 C 211.185 56.113, 210.260 57, 208.984 57 C 207.469 57, 205.987 59.167, 202.655 66.250 C 200.263 71.338, 198.387 75.612, 198.486 75.750 C 198.585 75.887, 201.254 75.480, 204.417 74.845 C 211.047 73.514, 212 72.110, 212 63.678 C 212 60.823, 212.419 57.027, 212.930 55.243 C 213.442 53.460, 213.491 52, 213.039 52 C 212.587 52, 211.934 53.125, 211.589 54.500 M 114.363 64.203 C 111.946 66.879, 109.912 70.537, 106.969 77.500 C 105.807 80.250, 104.191 84.075, 103.379 86 C 102.567 87.925, 101.512 90.221, 101.035 91.103 C 100.557 91.985, 99.855 94.783, 99.475 97.321 C 98.841 101.543, 99.033 102.187, 101.729 104.883 C 103.729 106.883, 106.121 108.046, 109.179 108.504 L 113.683 109.180 109.475 119.340 C 107.160 124.928, 103.125 134.441, 100.508 140.481 C 96.110 150.627, 95.856 151.653, 97.156 153.981 C 98.264 155.963, 99.484 156.567, 102.884 156.812 C 107.964 157.180, 110.973 155.073, 111.050 151.095 C 111.078 149.668, 113.035 144.710, 115.398 140.077 L 119.696 131.654 120.359 136.577 C 121.200 142.833, 124.916 150.734, 128.624 154.152 C 131.754 157.038, 139.466 160.007, 143.785 159.988 C 149.722 159.962, 162.390 155.996, 168.913 152.121 C 177.490 147.026, 178.395 145.921, 177.575 141.549 C 176.636 136.541, 172.334 135.874, 164.395 139.505 C 157.688 142.573, 145.492 145.182, 141.920 144.313 C 140.589 143.989, 138.488 142.808, 137.250 141.688 C 134.150 138.882, 134.342 134.311, 138.003 123.813 C 142.355 111.335, 142.075 104, 137.246 104 C 135.778 104, 130.741 108.845, 128.280 112.626 C 126.986 114.613, 127.030 114.472, 130.118 106.701 C 130.834 104.899, 132.702 103.253, 135.365 102.078 C 140.289 99.906, 154.469 94.529, 158 93.495 C 163.839 91.786, 165.602 87.602, 162 84 C 159.527 81.527, 150.750 81.268, 143.488 83.454 C 140.832 84.253, 138.329 84.703, 137.927 84.455 C 137.524 84.206, 137.845 81.864, 138.639 79.251 C 139.777 75.508, 139.850 73.559, 138.981 70.064 C 137.780 65.236, 134.696 61.796, 132.370 62.688 C 130.203 63.520, 125.550 73.369, 123.010 82.500 C 121.786 86.900, 120.328 91.063, 119.770 91.750 C 118.873 92.854, 114 93.593, 114 92.625 C 114 92.419, 116.046 87.842, 118.546 82.455 C 122.378 74.198, 123.046 71.861, 122.796 67.580 C 122.514 62.732, 122.362 62.486, 119.469 62.203 C 117.321 61.993, 115.832 62.576, 114.363 64.203 M 29.174 69.314 C 26.167 72.516, 26.454 75.688, 30.057 79.053 C 33.006 81.808, 44.823 88, 47.131 88 C 47.751 88, 50.001 89.575, 52.132 91.500 C 56.324 95.287, 57.128 95.537, 60.066 93.965 C 66.053 90.761, 57.789 75.430, 49.039 73.509 C 47.607 73.194, 44.426 71.603, 41.968 69.973 C 36.510 66.352, 32.168 66.128, 29.174 69.314 M 33.591 144.573 C 29.836 145.949, 24.934 149.209, 21.588 152.555 C 18.996 155.147, 18.539 158.833, 20.536 161.040 C 23.434 164.242, 28.451 163.561, 36.128 158.922 C 42.285 155.202, 45.485 154.286, 53.133 154.050 C 55.165 153.988, 56.228 150.295, 54.919 147.849 C 52.444 143.225, 41.753 141.583, 33.591 144.573 M 72.387 170.989 C 69.991 171.947, 65.804 178.383, 59.042 191.500 C 52.219 204.737, 44.961 218.149, 43.078 221 C 42.171 222.375, 40.792 224.850, 40.015 226.500 C 39.237 228.150, 37.454 231.075, 36.051 233 C 34.648 234.925, 32.825 237.652, 32 239.059 C 26.093 249.138, 20.219 258.380, 16.467 263.500 C 10.791 271.243, 10.472 276.015, 15.447 278.736 C 21.369 281.974, 29.556 272.779, 45.061 245.477 C 54.527 228.810, 79 179.270, 79 176.776 C 79 175.861, 77.987 173.994, 76.750 172.628 C 75.009 170.705, 74.022 170.335, 72.387 170.989 M 187.832 176.984 C 185.814 177.355, 181.314 179.501, 177.832 181.753 C 174.349 184.005, 169.925 186.502, 168 187.302 C 166.075 188.103, 161.289 190.102, 157.364 191.746 L 150.229 194.733 149.743 189.680 C 149.141 183.409, 146.286 180.457, 142.494 182.185 C 137.435 184.490, 137.234 186.254, 136.854 231.836 L 136.500 274.172 138.701 275.957 C 141.638 278.338, 145.443 277.511, 146.988 274.156 C 147.975 272.016, 149.752 253.563, 149.957 243.339 C 149.995 241.428, 150.665 241.131, 155.750 240.774 C 163.270 240.245, 175.107 237.278, 185.171 233.397 L 190.841 231.211 191.407 235.855 C 193.152 250.196, 194.041 268.194, 193.161 271.380 C 192.631 273.297, 192.444 275.110, 192.743 275.410 C 193.043 275.710, 186.586 275.878, 178.394 275.784 C 164.572 275.626, 162.924 275.809, 155.500 278.332 C 144.624 282.027, 143.267 282.825, 142.683 285.869 C 141.729 290.837, 143.125 291.272, 157.962 290.625 C 194.506 289.031, 203.157 287.496, 204.440 282.382 C 204.782 281.021, 204.804 279.492, 204.490 278.983 C 204.175 278.475, 204.686 276.583, 205.625 274.779 C 208.287 269.666, 208.435 254.537, 206.085 227.591 C 204.938 214.441, 204 199.329, 204 194.008 C 204 184.493, 203.946 184.274, 200.750 180.759 C 197.230 176.888, 193.801 175.886, 187.832 176.984 M 176.909 197.396 C 169.637 201.145, 161.499 204.513, 157.250 205.532 L 150 207.270 150 218.044 L 150 228.819 154.169 226.804 C 156.462 225.696, 162.200 223.975, 166.919 222.979 C 171.639 221.983, 178.688 220.379, 182.583 219.414 L 189.667 217.661 189.667 204.331 C 189.667 196.999, 189.588 191, 189.493 191 C 189.397 191, 183.734 193.878, 176.909 197.396" stroke="none" fill="black" fill-rule="evenodd"/>
</svg>