<svg xmlns="http://www.w3.org/2000/svg" width="300" height="300" viewBox="0 0 300 300" version="1.1">
	<path d="M 66.810 10.750 C 65.985 11.713, 64.525 14.525, 63.566 17 C 62.607 19.475, 61.491 21.950, 61.086 22.500 C 58.295 26.296, 52.960 55.971, 52.996 67.500 C 53.051 85.098, 59.155 97.905, 70.720 104.682 C 74.381 106.827, 76.786 107.370, 84.333 107.754 C 96.386 108.367, 102.726 107.064, 114.403 101.571 C 125.502 96.350, 129 93.378, 129 89.168 C 129 83.216, 124.084 82.608, 113.858 87.295 C 101.455 92.978, 87.159 95.964, 81.075 94.141 C 71.755 91.348, 66 82.248, 66 70.304 L 66 63 69.750 62.960 C 81.920 62.831, 88.822 61.260, 104.276 55.100 C 108.553 53.395, 112.880 52, 113.891 52 C 116.750 52, 120.777 48.290, 121.503 44.988 C 123.300 36.804, 118.388 32.338, 113.130 37.375 C 111.623 38.819, 109.780 40, 109.033 40 C 106.829 40, 97.056 43.059, 89.035 46.259 C 83.170 48.599, 80.091 49.223, 74.672 49.172 C 70.878 49.137, 67.565 48.898, 67.310 48.643 C 67.054 48.387, 68.206 42.626, 69.869 35.839 C 75.009 14.865, 75.176 9, 70.636 9 C 69.357 9, 67.635 9.787, 66.810 10.750 M 240.500 20.946 C 235.764 23.965, 197.535 31.973, 176.695 34.312 C 169.170 35.156, 166.440 35.131, 164.958 34.206 C 162.032 32.379, 160.673 32.713, 157.190 36.119 C 153.307 39.915, 153.168 42.324, 156.646 45.548 C 159.073 47.797, 160.086 48, 168.896 47.997 C 174.178 47.996, 182.550 47.544, 187.500 46.995 C 192.450 46.445, 198.402 45.781, 200.727 45.520 L 204.955 45.044 190.387 59.246 C 182.375 67.057, 175.194 74.658, 174.429 76.137 C 173.202 78.509, 173.242 79.065, 174.769 80.856 C 176.410 82.781, 177.996 83.387, 180.692 83.118 C 181.347 83.053, 186.297 79.125, 191.692 74.388 C 202.275 65.096, 215.479 55.327, 221.844 52.079 C 227.119 49.389, 230.304 45.269, 229.647 41.986 C 229.176 39.629, 229.523 39.349, 234.319 38.213 C 240.075 36.849, 246.755 32.539, 248.904 28.803 C 250.778 25.543, 249.678 21.630, 246.477 20.171 C 243.365 18.754, 244.086 18.660, 240.500 20.946 M 164.342 74.250 C 160.489 81.576, 159.911 91.137, 159.069 161.500 C 158.470 211.479, 158.554 230.163, 159.384 232 C 160.861 235.265, 164.965 235.801, 167.452 233.053 C 168.768 231.599, 169.433 228.923, 169.764 223.756 L 170.227 216.500 175.364 216.828 C 178.189 217.008, 183.422 216.481, 186.994 215.655 C 190.566 214.830, 193.630 214.297, 193.804 214.471 C 193.978 214.645, 191.056 217.904, 187.310 221.714 C 183.565 225.524, 177.659 232.097, 174.186 236.321 C 170.714 240.544, 167.451 244, 166.936 244 C 166.421 244, 166 244.503, 166 245.118 C 166 245.733, 164.762 247.694, 163.250 249.475 C 158.482 255.092, 157 257.007, 157 257.553 C 157 257.845, 156.131 259.017, 155.068 260.157 C 154.006 261.297, 152.827 264.065, 152.448 266.308 C 151.859 269.794, 152.083 270.649, 153.990 272.193 C 156.853 274.511, 158.135 274.468, 161.342 271.945 C 164.695 269.308, 180.140 251.572, 186.985 242.500 C 189.889 238.650, 192.545 235.275, 192.886 235 C 194.256 233.895, 200.991 222.957, 202.446 219.474 C 203.301 217.429, 204 214.517, 204 213.003 C 204 209.777, 205.368 209.351, 218.906 208.357 C 228.505 207.653, 230.570 206.931, 231.515 203.952 C 233.973 196.210, 219.143 192.919, 202.500 197.514 C 199.750 198.273, 194.003 199.614, 189.728 200.492 C 185.453 201.371, 179.903 202.970, 177.395 204.045 C 169.923 207.248, 170 207.335, 170 195.577 L 170 185.153 173.136 186.718 C 175.677 187.986, 178.471 188.168, 187.886 187.684 C 194.274 187.355, 201.750 186.460, 204.500 185.695 C 211.204 183.831, 220.275 179.459, 222.469 177.034 C 225.698 173.466, 224.109 167, 220.004 167 C 219.040 167, 216.244 168.122, 213.790 169.494 C 208.728 172.323, 195.530 174.954, 186.261 174.982 C 182.590 174.992, 177.959 175.784, 175.011 176.904 L 170 178.808 170 163.976 L 170 149.144 175.250 148.600 C 198.168 146.224, 217.778 143.672, 221.754 142.549 C 224.364 141.812, 227.684 140.941, 229.131 140.615 C 234.392 139.429, 233.453 131.965, 227.808 130.102 C 225.280 129.267, 222.472 129.363, 215.996 130.502 C 211.323 131.324, 205.153 131.998, 202.284 131.999 C 197.419 132, 177.477 134.360, 172.113 135.569 L 169.726 136.107 170.454 121.397 C 170.855 113.306, 171.373 106.192, 171.605 105.587 C 171.850 104.948, 173.807 104.629, 176.278 104.826 C 180.268 105.143, 190.014 103.293, 215.070 97.460 C 232.626 93.374, 234.957 94.041, 234.976 103.153 C 234.982 105.544, 235.019 123.025, 235.060 142 C 235.101 160.975, 234.824 182.777, 234.445 190.450 C 233.770 204.078, 233.688 204.466, 230.877 207.277 C 226.007 212.147, 227.464 217, 233.796 217 C 241.569 217, 246.066 209.487, 247.999 193.275 C 248.631 187.977, 248.916 167.065, 248.720 140.500 C 248.370 93.222, 248.343 92.965, 242.998 87.228 C 237.954 81.814, 226.430 81.896, 203 87.512 C 195.025 89.424, 185.012 91.577, 180.750 92.297 L 173 93.607 173 87.047 C 173 79.666, 171.857 74.714, 169.641 72.498 C 167.407 70.264, 166.234 70.652, 164.342 74.250 M 88.153 129.305 C 86.022 137.771, 84.742 166.229, 85.312 192.501 C 85.623 206.802, 85.608 224.529, 85.281 231.896 L 84.685 245.289 80.481 240.645 C 75.980 235.673, 73.301 234.905, 70.655 237.829 C 67.936 240.833, 68.735 244.075, 74.272 252.500 C 82.713 265.345, 88.605 267.063, 95.396 258.659 L 98.500 254.818 98.834 227.409 C 99.017 212.334, 99.242 200.005, 99.334 200.011 C 99.425 200.017, 101.648 200.673, 104.273 201.470 C 110.297 203.298, 118.960 209.802, 130.628 221.257 C 138.791 229.270, 140.219 230.269, 144.128 230.695 C 147.632 231.078, 148.947 230.750, 150.750 229.047 C 155.032 225.003, 153.388 219.491, 146.732 215.571 C 144.404 214.201, 139.818 210.294, 136.540 206.890 C 127.693 197.701, 113.612 188.698, 104.517 186.415 C 100.509 185.409, 100.654 184.337, 105.229 181.152 C 113.994 175.052, 122.822 163.934, 129.468 150.626 C 134.085 141.380, 134.541 136.667, 131.089 133.871 C 127.330 130.827, 124.389 131.480, 121.041 136.101 C 119.407 138.357, 117.773 141.140, 117.409 142.285 C 116.069 146.509, 108.226 158.698, 103.773 163.480 L 99.184 168.407 98.637 163.954 C 98.337 161.504, 97.840 155.167, 97.534 149.870 C 97.025 141.081, 95.674 131.188, 94.377 126.750 C 94.080 125.735, 92.893 125, 91.551 125 C 89.659 125, 89.040 125.784, 88.153 129.305 M 66 162.322 C 64.625 163.042, 59.829 165.569, 55.343 167.937 C 47.769 171.935, 47.031 172.135, 45.031 170.734 C 43.307 169.527, 42.139 169.438, 39.188 170.289 C 30.836 172.700, 28.494 178.713, 34.077 183.411 C 38.092 186.790, 46.292 186.968, 54.431 183.854 C 57.516 182.673, 60.221 181.888, 60.442 182.108 C 60.662 182.329, 58.288 187.682, 55.165 194.005 C 52.043 200.327, 47.970 208.875, 46.115 213 C 38.983 228.859, 34.495 237.629, 31.800 240.978 C 27.033 246.899, 28.595 256, 34.378 256 C 37.134 256, 41.330 253.426, 43.596 250.346 C 45.941 247.159, 56.380 225.989, 60.532 216 C 64.400 206.693, 71.777 192.204, 75.145 187.298 C 84.983 172.969, 83.913 160.990, 72.798 161.006 C 70.434 161.010, 67.375 161.602, 66 162.322 M 210.835 211.664 C 207.801 212.484, 207.485 218, 210.472 218 C 213.364 218, 216.925 222.232, 218.451 227.480 C 220.914 235.953, 231.053 250.112, 243.727 262.777 C 249.933 268.979, 256.163 274.492, 257.571 275.027 C 260.807 276.257, 263.744 274.804, 265.069 271.318 C 266.328 268.008, 265.024 265.991, 253.801 253.884 C 249.017 248.723, 242.859 241.350, 240.117 237.500 C 237.375 233.650, 234.227 229.375, 233.123 228 C 232.019 226.625, 229.583 223.250, 227.710 220.500 C 223.133 213.780, 216.279 210.191, 210.835 211.664" stroke="none" fill="black" fill-rule="evenodd"/>
</svg>