<svg xmlns="http://www.w3.org/2000/svg" width="300" height="300" viewBox="0 0 300 300" version="1.1">
	<path d="M 130.465 26.976 C 127.067 28.313, 126.206 30.173, 125.131 38.505 C 124.347 44.586, 124.140 84.444, 124.874 88.133 C 125.071 89.126, 128.803 89.864, 130.878 89.322 C 134.358 88.412, 135.234 84.078, 136.176 63.104 C 136.680 51.886, 137.677 39.916, 138.392 36.504 C 139.343 31.970, 139.398 29.901, 138.596 28.816 C 137.175 26.892, 133.053 25.959, 130.465 26.976 M 27.635 53.073 C 21.548 57.861, 26.368 65.062, 37.250 67.438 C 39.341 67.894, 40 68.627, 40 70.496 C 40 72.014, 40.956 73.580, 42.500 74.592 C 44.783 76.088, 45.209 76.093, 47.406 74.654 C 50.233 72.801, 51.614 66.746, 50.111 62.793 C 48.884 59.564, 42.138 54.861, 35.572 52.655 C 32.861 51.745, 30.560 51, 30.457 51 C 30.354 51, 29.084 51.933, 27.635 53.073 M 203.764 56.963 C 200.995 60.197, 194 75.591, 194 78.449 C 194 78.861, 193.358 80.616, 192.574 82.349 C 191.789 84.082, 189.502 89.400, 187.491 94.167 C 185.479 98.934, 182.296 104.630, 180.417 106.826 C 178.538 109.022, 177 111.444, 177 112.209 C 177 115.958, 181.974 117.099, 186.998 114.501 C 190.398 112.743, 193.655 108.627, 197.680 101 L 200.583 95.500 206.541 96.291 C 214.723 97.378, 218.627 96.618, 228.651 91.986 C 233.397 89.794, 237.472 88, 237.708 88 C 237.943 88, 237.283 89.237, 236.240 90.750 C 233.893 94.155, 228.996 107.982, 229.013 111.157 C 229.024 113.300, 227.162 120.385, 221.940 138.071 C 220.873 141.685, 219.985 145.285, 219.966 146.071 C 219.947 146.857, 219.063 149.300, 218 151.500 C 216.937 153.700, 216.019 156.400, 215.960 157.500 C 215.900 158.600, 215.067 161.277, 214.108 163.450 C 212.088 168.026, 212.306 168.224, 206.490 156.549 C 203.268 150.080, 201.772 148.153, 198.872 146.731 C 194.730 144.700, 192.806 145.126, 191.015 148.472 C 189.868 150.616, 190.513 152.369, 197.923 167.226 L 206.097 183.615 202.317 192.058 C 200.238 196.701, 196.616 203.994, 194.268 208.264 C 191.921 212.534, 190 216.384, 190 216.819 C 190 217.255, 188.988 218.982, 187.750 220.658 C 186.033 222.983, 185.027 223.535, 183.500 222.990 C 182.400 222.598, 180.938 222.488, 180.250 222.745 C 179.517 223.020, 179 222.407, 179 221.262 C 179 217.044, 175.659 215.676, 164.227 215.215 C 154.234 214.812, 135.545 216.140, 130.137 217.638 C 127.901 218.257, 127.844 218.163, 129.084 215.896 C 129.812 214.567, 130.642 208.638, 130.948 202.580 L 131.500 191.660 135.537 190.317 C 140.999 188.502, 147 183.429, 147 180.627 C 147 175.765, 142.523 174.672, 136.075 177.962 L 132.230 179.923 133.149 175.712 C 133.655 173.395, 134.839 169.606, 135.780 167.291 C 137.339 163.454, 137.933 162.980, 142.495 161.928 C 151.601 159.830, 155.120 156.119, 152.957 150.897 C 151.561 147.527, 147.890 146.194, 144.673 147.889 C 143.478 148.519, 138.755 149.686, 134.178 150.483 C 129.600 151.280, 123.975 152.786, 121.678 153.830 C 117.031 155.940, 109.086 158.794, 104.500 160 C 99.286 161.371, 91.548 164.455, 90.250 165.679 C 88.250 167.565, 88.792 169.818, 91.707 171.727 C 95.684 174.332, 105.672 173.876, 114.750 170.675 C 118.737 169.269, 122 168.337, 122 168.604 C 122 168.871, 121.294 171.899, 120.431 175.334 L 118.863 181.579 112.681 183.359 C 103.592 185.976, 100.481 186.328, 98.031 185.016 C 96.230 184.053, 95.488 184.153, 93.917 185.575 C 91.273 187.968, 91.500 189.346, 95.139 192.985 L 98.277 196.123 108.729 195.812 L 119.180 195.500 118.836 204.500 C 118.588 210.983, 117.933 214.599, 116.496 217.429 C 114.288 221.776, 113.854 221.932, 94.212 225.425 C 82.064 227.586, 80 228.561, 80 232.137 C 80 235.391, 82.685 237.521, 88.012 238.493 C 91.361 239.104, 104.864 236.877, 127.500 231.980 C 143.260 228.571, 154.191 226.952, 165.750 226.315 C 176.031 225.748, 177 225.845, 177 227.443 C 177 230.330, 180.201 234.841, 183.104 236.043 C 187.053 237.679, 193.705 234.530, 197.100 229.416 C 203.389 219.942, 205.773 215.845, 210 207.243 C 214.108 198.882, 216 196.294, 216 199.036 C 216 199.850, 224.673 215.254, 230.056 224 C 230.564 224.825, 231.938 227.277, 233.111 229.449 C 239.307 240.923, 256.165 263.813, 264.361 271.880 C 268.956 276.403, 270.234 277.158, 272.384 276.618 C 273.791 276.265, 275.421 275.082, 276.006 273.988 C 277.304 271.563, 276.464 269.793, 270.097 261.546 C 267.569 258.271, 264.825 254.631, 264 253.458 C 260.165 248.004, 250.420 233.342, 249.738 232 C 249.319 231.175, 248.194 229.281, 247.238 227.791 C 244.898 224.142, 231.417 201.482, 225.492 191.235 L 220.713 182.970 223.253 176.735 C 230.631 158.627, 242.992 114.385, 242.997 106.066 C 242.999 103.627, 243.728 99.035, 244.619 95.863 C 246.352 89.686, 245.702 87.710, 241.661 86.858 C 240.606 86.635, 242.525 85.176, 246.732 83 C 257.200 77.587, 259.315 74.405, 255.027 70.525 C 252.772 68.484, 249.534 68.829, 242.750 71.831 C 240.413 72.866, 233.325 75.833, 227 78.426 C 220.675 81.018, 214.226 83.782, 212.669 84.569 C 209.367 86.238, 205 86.461, 205 84.960 C 205 84.388, 205.900 82.156, 207 80 C 208.100 77.844, 209 75.471, 209 74.728 C 209 73.984, 209.856 71.604, 210.902 69.438 C 213.818 63.400, 214.551 56.694, 212.518 54.661 C 209.896 52.039, 207.421 52.690, 203.764 56.963 M 170.143 58.378 C 167.297 59.956, 162 67.591, 162 70.116 C 162 74.402, 150.979 83.653, 141.632 87.213 C 125.879 93.213, 107.388 97.976, 105.170 96.605 C 104.566 96.232, 104.954 92.686, 106.195 87.252 C 110.455 68.587, 110.493 67.414, 106.920 65.182 C 103.550 63.077, 98.968 66.319, 97.233 72.037 C 96.654 73.942, 95.016 79.352, 93.591 84.060 C 90.327 94.842, 90.242 100.580, 93.280 105.088 C 96.779 110.280, 99.285 111.170, 109 110.676 C 124.551 109.885, 150.649 100.648, 158.250 93.246 C 161.733 89.854, 162 89.755, 162 91.854 C 162 93.097, 161.480 96.181, 160.844 98.706 C 159.803 102.839, 159.878 103.438, 161.594 104.693 C 167.772 109.214, 173.930 101.897, 173.960 90 C 173.968 86.425, 174.716 78.240, 175.621 71.812 C 177.112 61.217, 177.120 59.977, 175.704 58.562 C 173.837 56.694, 173.217 56.674, 170.143 58.378 M 33.500 120.188 C 31.300 120.702, 26.595 121.984, 23.044 123.038 C 19.494 124.091, 16.341 124.553, 16.039 124.064 C 15.737 123.574, 14.048 123.781, 12.280 124.524 C 6.273 127.050, 6.885 135.119, 13.211 136.793 C 17.589 137.952, 23.800 136.224, 39.784 129.402 C 41.590 128.631, 43.712 128, 44.499 128 C 45.286 128, 46.386 127.148, 46.943 126.107 C 47.720 124.654, 47.479 123.607, 45.905 121.607 C 43.681 118.779, 40.892 118.460, 33.500 120.188 M 136.500 123.499 C 132.650 124.819, 128.600 125.928, 127.500 125.962 C 123.746 126.081, 109.610 131.097, 101.179 135.302 C 91.127 140.316, 87.070 144.664, 88.834 148.534 C 90.345 151.850, 93.235 151.711, 101.657 147.917 C 108.603 144.787, 117.061 142.001, 131.500 138.088 C 144.603 134.537, 146.212 134.118, 152.991 132.483 C 160.539 130.663, 161.473 129.971, 160.636 126.823 C 159.376 122.088, 158.421 121.554, 150.800 121.321 C 145.270 121.153, 141.803 121.681, 136.500 123.499 M 47.147 169.323 C 46.543 170.050, 45.312 173.538, 44.411 177.073 C 42.377 185.050, 37.487 195.532, 29.833 208.322 C 24.364 217.462, 20.273 224.732, 15.110 234.485 C 11.375 241.540, 13.022 247, 18.884 247 C 22.404 247, 25.808 243.341, 29.887 235.174 C 31.625 231.695, 35.002 225.395, 37.393 221.174 C 49.120 200.466, 56 183.064, 56 174.106 C 56 169.268, 49.920 165.982, 47.147 169.323" stroke="none" fill="black" fill-rule="evenodd"/>
</svg>