<svg xmlns="http://www.w3.org/2000/svg" width="300" height="300" viewBox="0 0 300 300" version="1.1">
	<path d="M 73.750 32.080 C 71.740 33.251, 71.386 37.628, 73.250 38.252 C 75.735 39.085, 74.230 93.213, 70.899 122.771 C 69.812 132.421, 66.434 151.385, 63.200 166 C 57.878 190.047, 54.512 204.377, 52.277 212.500 C 50.915 217.450, 48.527 226.225, 46.971 232 C 45.414 237.775, 42.984 245.841, 41.570 249.925 C 40.157 254.009, 38.974 258.059, 38.942 258.925 C 38.780 263.353, 30.399 276.786, 27.533 277.209 C 26.452 277.369, 24.877 278.738, 24.033 280.250 C 22.660 282.713, 22.659 283.283, 24.021 285.718 C 25.997 289.252, 30.867 290.712, 34.985 289.006 C 45.196 284.777, 54.390 262.403, 67.143 210.753 C 70.851 195.735, 73.979 185.004, 74.649 185.003 C 75.280 185.001, 79.218 188.194, 83.399 192.099 C 88.949 197.282, 91 199.872, 91 201.699 C 91 203.210, 92.346 205.546, 94.400 207.600 C 97.276 210.476, 98.505 211, 102.377 211 C 106.165 211, 107.238 210.566, 108.605 208.481 C 111.077 204.708, 109.811 199.891, 104.329 192.205 C 95.767 180.200, 92.326 177.431, 83.543 175.477 C 76 173.799, 75.856 173.710, 76.518 171.132 C 76.890 169.684, 77.564 166.025, 78.016 163 C 78.469 159.975, 79.997 150.855, 81.412 142.733 C 85.032 121.957, 86.784 105.749, 88.026 81.558 C 89.642 50.081, 87.528 37.732, 79.710 32.965 C 76.024 30.717, 76.076 30.725, 73.750 32.080 M 219.069 54.595 C 205.795 56.298, 199.013 57.694, 191.500 60.267 C 181.147 63.813, 174.252 68.213, 172.406 72.452 L 171.078 75.500 171.034 71 C 170.948 62.429, 167.471 55, 163.543 55 C 162.183 55, 156.518 60.837, 155.767 63.014 C 155.479 63.846, 155.846 70.596, 156.581 78.014 C 157.316 85.431, 158.385 106.350, 158.957 124.500 C 160.383 169.795, 160.598 171.116, 166.621 171.598 C 168.204 171.725, 172.182 172.542, 175.460 173.414 C 184.635 175.855, 196.036 175.420, 212.703 171.992 C 220.747 170.337, 230.517 168.701, 234.414 168.355 C 243.573 167.542, 245 166.767, 245 162.604 C 245 160.775, 246.620 154.386, 248.600 148.407 C 254.250 131.342, 256.946 114.997, 258.903 85.949 C 259.458 77.715, 259.454 70.462, 258.895 67.466 C 257.713 61.142, 253.499 55.870, 248.391 54.328 C 243.362 52.810, 232.184 52.912, 219.069 54.595 M 228 68.726 C 226.075 68.950, 215.500 70.989, 204.500 73.257 C 193.500 75.526, 181.630 77.409, 178.122 77.441 L 171.743 77.500 172.398 86 C 174.366 111.550, 175.040 131.215, 174.429 145.250 L 173.744 161 176.498 161 C 178.013 161, 183.358 160.343, 188.376 159.539 C 202.252 157.317, 222.375 155, 227.790 155 L 232.628 155 235.291 143.250 C 236.755 136.787, 238.243 129.610, 238.596 127.300 L 239.240 123.101 231.370 125.493 C 222.339 128.239, 214.478 129.665, 201 131.004 C 195.775 131.523, 188.906 132.248, 185.735 132.615 C 180.969 133.167, 179.626 132.971, 177.985 131.486 C 174.958 128.747, 175.567 126.551, 180.580 122.139 C 185.905 117.451, 189.077 116.642, 208.336 115.057 C 218.170 114.248, 223.401 113.247, 230.703 110.777 C 235.945 109.004, 240.379 107.091, 240.557 106.526 C 241.662 103.007, 243.675 72.277, 242.930 70.315 C 242.151 68.267, 241.442 68.018, 236.775 68.160 C 233.874 68.248, 229.925 68.503, 228 68.726 M 95.449 85.485 C 92.681 88.420, 92.052 89.998, 91.465 95.485 C 91.081 99.068, 90.369 102, 89.884 102 C 89.398 102, 89 103.317, 89 104.927 C 89 106.899, 89.860 108.532, 91.635 109.927 C 96.826 114.011, 103.214 111.741, 104.904 105.213 C 106.229 100.092, 106.018 83.689, 104.615 82.765 C 102.078 81.094, 98.624 82.119, 95.449 85.485 M 32.116 93.640 C 30.064 95.957, 29.585 103.059, 30.893 111.776 C 32.653 123.500, 38.991 151.995, 40.819 156.398 C 43.660 163.242, 52.115 166.060, 59.050 162.474 C 61.449 161.234, 62 160.306, 62 157.510 C 62 153.899, 59.997 152, 56.187 152 C 53.867 152, 51.902 145.176, 49.528 128.870 C 45.621 102.040, 41.795 91.926, 35.597 92.038 C 34.444 92.059, 32.877 92.780, 32.116 93.640 M 165.500 228.984 C 158.350 230.017, 148.083 230.894, 142.684 230.931 C 131.394 231.010, 129 231.876, 129 235.880 C 129 242.812, 135.869 244.413, 163.500 243.924 C 191.569 243.426, 201.657 243.493, 247.748 244.477 C 284.902 245.270, 287.102 245.218, 288.998 243.502 C 292.617 240.227, 291.130 235.162, 285.720 232.342 C 283.263 231.061, 279.301 230.600, 269 230.398 C 261.575 230.253, 248.075 229.672, 239 229.106 C 204.943 226.984, 179.633 226.942, 165.500 228.984" stroke="none" fill="black" fill-rule="evenodd"/>
</svg>