<svg xmlns="http://www.w3.org/2000/svg" width="300" height="300" viewBox="0 0 300 300" version="1.1">
	<path d="M 146.305 19.250 C 145.031 20.653, 144.036 23.527, 143.662 26.885 C 143.332 29.847, 142.411 34.122, 141.616 36.385 C 140.821 38.648, 139.143 43.875, 137.887 48 C 136.631 52.125, 135.021 56.625, 134.308 58 C 133.595 59.375, 133.010 61.114, 133.006 61.864 C 133.003 62.614, 132.183 64.864, 131.185 66.864 C 118.840 91.590, 117.830 93.888, 118.446 95.829 C 119.203 98.214, 122.177 99.425, 125.322 98.629 C 127.711 98.024, 133.692 89.407, 139.771 77.812 C 144.134 69.488, 149.007 58.108, 149.003 56.250 C 149.001 55.563, 149.450 55, 150 55 C 150.550 55, 151 55.567, 151 56.259 C 151 59.830, 167.114 64.378, 179.500 64.304 C 188.945 64.247, 205.332 61.307, 214.855 57.960 C 223.789 54.819, 227.541 49.650, 223.250 46.392 C 220.783 44.519, 217.539 44.686, 209.497 47.100 C 203.443 48.917, 199.197 49.258, 178 49.628 C 164.525 49.863, 152.887 50.273, 152.139 50.539 C 151.168 50.884, 150.990 50.517, 151.519 49.261 C 151.927 48.293, 152.613 45.475, 153.044 43 C 153.476 40.525, 154.261 37.375, 154.790 36 C 155.320 34.625, 156.073 30.727, 156.464 27.338 C 157.095 21.877, 156.938 20.938, 155.088 19.088 C 152.370 16.370, 148.862 16.434, 146.305 19.250 M 64.479 64.024 C 62.476 66.236, 62.566 64.022, 62.911 102.500 C 63.034 116.275, 62.569 127.973, 61.559 136.500 C 60.711 143.650, 60.014 150.092, 60.009 150.816 C 60.003 151.656, 59.025 152.018, 57.309 151.816 C 54.826 151.525, 54.450 150.841, 52.451 143 C 50.181 134.093, 47.553 121.515, 45.909 111.693 C 44.532 103.460, 42.367 98.644, 39.221 96.814 C 36.355 95.146, 32.349 95.853, 30.794 98.300 C 29.419 100.462, 29.962 105.503, 32 109.500 C 33.100 111.658, 34 114.735, 34 116.338 C 34 119.011, 34.949 123.802, 39.678 145 C 43.129 160.471, 49.172 168.065, 55.674 165.103 C 57.096 164.455, 58.369 164.054, 58.504 164.213 C 59.181 165.006, 53.775 193.757, 50.271 208 C 48.339 215.852, 43.977 229.531, 41.067 236.865 C 38.778 242.634, 39.037 245.414, 42.011 247.006 C 46.012 249.147, 50.839 244.196, 55.176 233.500 C 59.476 222.898, 61 218.595, 61 217.061 C 61 216.141, 61.858 212.713, 62.906 209.444 C 63.954 206.175, 65.370 200.665, 66.053 197.199 C 67.112 191.826, 67.728 190.675, 70.240 189.376 C 71.860 188.538, 73.273 187.998, 73.380 188.176 C 79.351 198.146, 84.344 203.628, 88.787 205.095 C 91.739 206.069, 92.588 205.953, 94.859 204.263 C 99.040 201.154, 98.678 198.895, 93.087 193.185 C 90.330 190.369, 87.111 186.138, 85.934 183.783 C 82.227 176.366, 78.340 174.531, 72.636 177.506 C 71.060 178.328, 69.694 179, 69.600 179 C 69.506 179, 69.975 175.063, 70.644 170.250 C 73.856 147.125, 76.050 119.443, 76.026 102.339 C 76.003 85.981, 75.741 83.204, 73.389 74.368 C 71.125 65.862, 69.176 62.153, 66.905 62.032 C 66.578 62.014, 65.486 62.911, 64.479 64.024 M 152.441 86.420 C 150.630 87.745, 150.500 89.200, 150.500 108.170 C 150.500 128.655, 149.464 137.526, 145.296 152.750 C 143.931 157.735, 143.691 158, 140.552 158 C 138.733 158, 130.553 160.288, 122.373 163.085 C 106.712 168.439, 106.229 168.571, 98.831 169.507 C 94.777 170.020, 94.024 170.491, 93.123 173.077 C 92.552 174.716, 92.308 176.638, 92.580 177.349 C 93.093 178.684, 101.629 181.269, 105.377 181.225 C 107.306 181.202, 118.819 177.681, 125 175.223 C 129.840 173.299, 139.182 170.848, 139.700 171.367 C 139.989 171.655, 138.642 176.528, 136.708 182.196 C 130.773 199.585, 130.953 206.574, 137.462 211.539 C 146.072 218.106, 191.512 221.902, 216.644 218.153 L 221.788 217.386 223.017 230.182 C 225.160 252.475, 223.038 275.234, 218.462 279.031 C 216.842 280.376, 208.448 279.534, 207.455 277.928 C 207.130 277.402, 205.088 276.065, 202.918 274.958 C 199.987 273.463, 198.491 273.202, 197.103 273.945 C 195.352 274.882, 194 277.086, 194 279.005 C 194 280.909, 199.446 286.108, 204.424 288.957 C 208.924 291.531, 210.795 292, 216.571 292 L 223.398 292 227.949 287.128 C 234.550 280.061, 236.259 273.601, 236.716 254 C 236.915 245.475, 236.477 232.309, 235.742 224.742 L 234.407 210.985 237.203 208.305 C 238.742 206.832, 240 204.655, 240 203.468 C 240 200.972, 237.104 198, 234.671 198 C 233.264 198, 232.999 196.854, 232.991 190.750 C 232.986 186.762, 232.342 178.353, 231.560 172.062 L 230.138 160.624 232.569 157.735 C 236.281 153.324, 235.666 146.080, 231.415 144.143 L 229 143.043 229 119.087 C 229 105.827, 228.561 93.977, 228.018 92.547 C 226.478 88.496, 222.749 87.554, 214 89.005 C 209.875 89.689, 197.500 90.605, 186.500 91.040 C 175.500 91.475, 165.626 91.981, 164.558 92.165 C 163.292 92.384, 162.177 91.637, 161.350 90.017 C 159.972 87.316, 157.272 85, 155.500 85 C 154.885 85, 153.509 85.639, 152.441 86.420 M 90.352 94.175 C 88.008 95.309, 85 104.133, 85 109.873 C 85 111.656, 84.496 115.115, 83.880 117.561 C 82.599 122.650, 83.726 125, 87.448 125 C 90.615 125, 93.441 121.419, 95.959 114.215 C 98.951 105.652, 99.200 96.624, 96.500 94.579 C 94.175 92.817, 93.279 92.758, 90.352 94.175 M 210.575 102.587 C 207.444 103.410, 197.881 103.963, 184.325 104.103 L 163 104.324 163 114.563 C 163 123.654, 159.943 149.378, 158.378 153.456 C 157.632 155.402, 159.551 155.405, 171.500 153.477 C 176.450 152.678, 188.564 151.568, 198.419 151.010 C 208.274 150.452, 216.451 149.883, 216.588 149.745 C 216.726 149.607, 216.449 143.196, 215.972 135.497 C 215.495 127.799, 215.432 117.078, 215.832 111.673 C 216.232 106.268, 216.321 101.721, 216.030 101.569 C 215.738 101.416, 213.284 101.875, 210.575 102.587 M 176.442 110.227 C 171.146 113.013, 170.813 116.541, 175.078 124.648 C 176.772 127.867, 179.544 134.011, 181.240 138.301 C 184.458 146.445, 186.583 148.572, 190.513 147.586 C 195.005 146.459, 194.636 138.598, 189.451 125 C 184.530 112.092, 180.847 107.910, 176.442 110.227 M 185.500 164.585 C 180 165.329, 170.795 166.420, 165.044 167.009 C 159.292 167.598, 154.542 168.174, 154.487 168.290 C 154.432 168.405, 152.267 175.025, 149.675 183 C 144.886 197.738, 144.323 200.463, 145.865 201.417 C 146.341 201.711, 152.409 202.862, 159.349 203.976 C 169.100 205.540, 176.685 205.999, 192.733 205.994 C 215.696 205.988, 220.999 205.183, 221.002 201.703 C 221.003 199.072, 218.160 170.887, 217.425 166.250 L 216.909 163 206.205 163.115 C 200.317 163.179, 191 163.840, 185.500 164.585 M 189.106 172.639 C 187.037 174.088, 186.839 174.810, 187.397 178.881 C 187.954 182.943, 188.935 184.397, 195.741 191.242 C 204.281 199.833, 207.610 201.051, 210.500 196.641 C 212.429 193.697, 211.898 192.292, 205.824 184.268 C 203.171 180.762, 201 177.529, 201 177.083 C 201 176.106, 193.797 171, 192.419 171 C 191.883 171, 190.392 171.737, 189.106 172.639" stroke="none" fill="black" fill-rule="evenodd"/>
</svg>