<svg xmlns="http://www.w3.org/2000/svg" width="300" height="300" viewBox="0 0 300 300" version="1.1">
	<path d="M 209.500 32.663 C 208.400 32.901, 200.300 34.476, 191.500 36.165 C 168.970 40.489, 163.781 42.229, 160.096 46.700 L 157.085 50.353 156.038 47.601 C 153.586 41.152, 147.699 40.023, 145.081 45.500 C 143.847 48.081, 143.829 51.431, 144.950 69.500 C 146.904 100.986, 147.437 128.963, 146.108 130.292 C 144.447 131.953, 144.772 135.485, 146.750 137.270 C 148.086 138.477, 150.450 138.809, 156.751 138.675 C 161.331 138.578, 165.001 138.916, 165.001 139.436 C 165 139.950, 165.926 141.356, 167.057 142.560 C 168.696 144.306, 169.228 146.550, 169.679 153.625 C 170.777 170.862, 165.435 188.571, 146.847 229.317 C 143.631 236.366, 141 242.978, 141 244.010 C 141 246.288, 144.624 249, 147.667 249 C 148.889 249, 151.015 247.988, 152.391 246.750 C 154.859 244.532, 163 229.346, 163 226.961 C 163 226.287, 163.862 224.333, 164.916 222.618 C 172.057 210.997, 184.008 171.596, 184.118 159.310 C 184.184 151.909, 183.756 150.251, 179.828 142.680 C 178.167 139.478, 176.963 136.705, 177.154 136.517 C 177.344 136.329, 180.425 135.456, 184 134.577 C 187.575 133.699, 195.900 131.657, 202.500 130.040 C 209.100 128.423, 216.795 126.461, 219.600 125.680 C 224.612 124.285, 232.807 120.099, 236.250 117.176 C 238.350 115.393, 238.574 110.157, 236.583 109.393 C 235.388 108.935, 235.370 108.349, 236.467 105.675 C 237.183 103.929, 238.553 98.091, 239.511 92.702 C 241.565 81.150, 241.144 52.516, 238.813 45.300 C 237.238 40.424, 232.712 35.026, 228.703 33.244 C 226.077 32.076, 213.925 31.709, 209.500 32.663 M 210 47.103 C 207.525 47.589, 200.826 48.682, 195.112 49.532 C 189.399 50.382, 179.907 52.635, 174.017 54.538 C 168.128 56.442, 162.058 58, 160.527 58 C 157.813 58, 157.761 58.105, 158.426 62.250 C 159.787 70.734, 160.942 91.883, 160.971 108.817 C 160.998 124.825, 161.132 126.097, 162.750 125.638 C 164.429 125.162, 166.204 124.664, 183 119.954 C 187.125 118.798, 191.625 117.445, 193 116.949 C 194.375 116.453, 198.650 115.563, 202.500 114.971 C 206.350 114.380, 211.820 113.225, 214.656 112.404 C 219.646 110.961, 219.895 110.713, 222.394 104.706 C 226.352 95.193, 226.949 90.919, 226.976 71.899 C 226.999 54.835, 226.144 48.496, 223.586 46.765 C 222.185 45.817, 215.729 45.978, 210 47.103 M 77.598 51.545 C 76.748 52.395, 75.614 54.757, 75.077 56.795 C 73.309 63.502, 71.038 87.194, 70.454 105 C 69.897 122.014, 67.368 153.965, 66.511 154.823 C 65.883 155.450, 61.309 144.751, 59.626 138.719 C 58.825 135.849, 57.420 129.675, 56.504 125 C 52.289 103.502, 50.941 99.874, 46.631 98.420 C 43.612 97.402, 40.101 99.944, 39.406 103.650 C 38.641 107.728, 46.189 142.086, 49.479 149.500 C 51.663 154.421, 59.663 163.745, 63.418 165.746 C 65.235 166.714, 65.271 167.230, 64.096 175.625 C 63.415 180.497, 62.449 188.087, 61.951 192.491 C 58.773 220.574, 47.555 272.232, 42.689 281.198 C 39.659 286.779, 39.634 286.938, 41.453 288.948 C 42.474 290.077, 44.529 291, 46.019 291 C 48.872 291, 51.580 287.822, 55.820 279.500 C 58.412 274.411, 63.615 256.474, 64.957 248 C 65.523 244.425, 67.564 233.930, 69.493 224.677 C 71.422 215.425, 73.011 206.200, 73.024 204.177 L 73.049 200.500 77.493 205.609 C 82.677 211.569, 93.767 219.321, 99.500 220.992 C 101.700 221.634, 105.297 222.010, 107.493 221.829 C 110.765 221.559, 111.737 220.973, 112.880 218.579 C 114.703 214.756, 113.566 213.046, 107.879 211.063 C 102.186 209.078, 93.460 202.804, 83.014 193.185 C 81.631 191.911, 79.233 190.197, 77.684 189.375 C 75.359 188.141, 74.968 187.410, 75.442 185.190 C 76.829 178.687, 79.134 158.325, 79.991 145 C 80.503 137.025, 81.594 121.050, 82.414 109.500 C 84.446 80.884, 84.743 53.600, 83.045 51.554 C 81.408 49.582, 79.564 49.579, 77.598 51.545 M 98.869 82.826 C 94.760 86.497, 94.472 90.714, 97.223 106.897 C 99.659 121.228, 100.540 122.834, 105.309 121.637 C 109.125 120.680, 110.007 115.970, 109.446 99.551 C 108.942 84.808, 108.065 81.773, 103.996 80.709 C 102.548 80.331, 100.900 81.011, 98.869 82.826 M 199.292 138.084 C 197.713 138.671, 196.615 140.516, 195.439 144.560 C 194.015 149.460, 193.862 154.448, 194.298 181.858 C 194.722 208.598, 195.112 214.923, 196.816 222.688 C 200.401 239.022, 208.032 249.440, 219.921 254.234 C 230.928 258.672, 256.182 256.568, 270.500 250.021 C 276.954 247.069, 282 241.698, 282 237.779 C 282 233.233, 276.873 226.988, 273.177 227.032 C 269.493 227.076, 266.938 229.261, 266.606 232.653 C 266.351 235.265, 265.632 235.740, 257.914 238.404 C 249.159 241.425, 235.616 242.901, 228.643 241.593 C 226.746 241.237, 222.989 239.191, 220.295 237.046 C 216.030 233.650, 215.049 232.134, 212.707 225.323 C 208.986 214.499, 208.018 203.734, 208.008 173.066 C 208.001 148.487, 207.856 146.335, 205.954 142.405 C 203.657 137.660, 202.482 136.898, 199.292 138.084" stroke="none" fill="black" fill-rule="evenodd"/>
</svg>