<svg xmlns="http://www.w3.org/2000/svg" width="300" height="300" viewBox="0 0 300 300" version="1.1">
	<path d="M 209 35.043 C 201.924 35.762, 191.163 38.163, 188.988 39.507 C 188.445 39.843, 188 41.185, 188 42.488 C 188 46.232, 195.857 47.398, 215.176 46.523 L 230.901 45.810 233.370 48.280 C 236.009 50.918, 235.924 50.503, 238.568 73.500 C 241.972 103.113, 242.308 237.965, 239.015 253 C 236.702 263.556, 236.022 265.553, 234.411 266.500 C 233.477 267.050, 231.584 268.435, 230.205 269.579 C 226.681 272.499, 227.722 276.423, 232.431 277.977 C 235.361 278.944, 236.460 278.806, 239.932 277.035 C 245.191 274.352, 248.870 268.492, 251.256 259 C 254.303 246.879, 255.316 202.877, 254.018 139 C 253.420 109.575, 252.509 82.421, 251.993 78.657 C 251.477 74.894, 250.608 67.455, 250.061 62.127 C 249.514 56.798, 248.264 50.269, 247.283 47.617 C 245.040 41.553, 240.104 36.401, 235.247 35.052 C 231.069 33.892, 220.353 33.888, 209 35.043 M 167 45.775 C 165.800 47.135, 165.559 49.978, 165.794 59.987 C 165.956 66.869, 165.585 78.513, 164.969 85.862 C 163.574 102.516, 164.163 104.602, 170.527 105.556 C 172.905 105.913, 176.346 105.764, 178.175 105.226 C 182.138 104.060, 196.740 100.768, 210.233 97.998 C 215.585 96.899, 222.348 96, 225.260 96 C 232.171 96, 235.225 93.969, 234.806 89.654 C 234.362 85.077, 229.461 83.628, 217 84.388 C 208.425 84.912, 203.321 85.814, 184.783 90.083 C 181.638 90.807, 178.884 91.197, 178.661 90.950 C 178.439 90.702, 178.478 86.849, 178.749 82.387 L 179.241 74.275 189.371 73.652 C 207.516 72.535, 225.639 69.637, 228.037 67.467 C 231.694 64.157, 232.324 62.143, 230.548 59.433 C 228.521 56.339, 223.893 56.240, 206.772 58.923 C 200.022 59.980, 191.012 61.038, 186.750 61.273 L 179 61.700 179 57.415 C 179 55.058, 178.568 51.994, 178.040 50.605 C 175.785 44.674, 170.149 42.208, 167 45.775 M 123.500 47.548 C 120.750 48.326, 116.597 49.420, 114.272 49.980 C 109.872 51.040, 103.112 53.416, 99.264 55.254 C 97.376 56.157, 96.645 55.909, 94.562 53.661 C 93.205 52.198, 91.417 51, 90.587 51 C 88.312 51, 85.087 54.958, 84.538 58.425 C 84.270 60.116, 83.348 65.858, 82.490 71.184 C 81.632 76.510, 80.508 90.448, 79.993 102.157 C 79.478 113.867, 78.367 131.559, 77.524 141.474 C 73.222 192.085, 71.496 214.350, 69.402 246.245 C 68.657 257.608, 69.913 261, 74.868 261 C 80.315 261, 80.671 259.676, 82.922 231 C 84.066 216.425, 85.889 194.150, 86.972 181.500 C 88.055 168.850, 89.945 142.975, 91.171 124 L 93.401 89.500 98.001 89.408 C 100.530 89.358, 105.864 88.325, 109.854 87.113 C 113.844 85.901, 120.020 84.559, 123.579 84.131 C 129.882 83.372, 130.066 83.414, 130.660 85.783 C 130.996 87.120, 130.747 90.552, 130.108 93.409 C 128.963 98.526, 128.866 98.629, 123.723 100.221 C 120.850 101.110, 115.835 102.511, 112.577 103.333 C 106.734 104.809, 106.629 104.798, 104.828 102.508 C 102.309 99.306, 99.641 100.260, 95.990 105.669 C 92.358 111.051, 92.246 113.337, 95.455 116.545 C 99.936 121.026, 110.639 119.403, 130 111.306 C 141.625 106.445, 146.339 101.739, 142.963 98.363 C 142.296 97.696, 142.252 96.463, 142.839 94.913 C 144.994 89.217, 145.047 82.176, 143.043 68 C 140.792 52.076, 139.895 49.514, 135.835 47.415 C 132.494 45.687, 129.988 45.714, 123.500 47.548 M 33.073 59.635 C 29.689 63.936, 30.374 65.364, 38.923 71.826 C 40.771 73.223, 42 75.058, 42 76.421 C 42 78.981, 44.845 82, 47.257 82 C 50.860 82, 52.280 78.957, 51.621 72.649 C 50.363 60.614, 38.725 52.449, 33.073 59.635 M 118 62.681 C 113.325 64.056, 106.292 65.412, 102.372 65.694 L 95.244 66.206 94.622 70.743 C 93.608 78.136, 93.334 77.945, 101.242 75.354 C 108.687 72.916, 125.217 70.398, 126.911 71.445 C 127.434 71.768, 128.157 71.555, 128.518 70.970 C 129.308 69.692, 128.090 59.962, 127.156 60.090 C 126.795 60.140, 122.675 61.306, 118 62.681 M 164.014 122.202 C 160.817 125.180, 159.708 130.636, 160.239 140.776 C 160.511 145.984, 160.379 151.819, 159.945 153.744 C 158.981 158.019, 159.623 159.919, 162.389 160.968 C 164.079 161.608, 163.504 161.911, 159.500 162.487 C 149.364 163.944, 137.961 166.826, 134.687 168.757 C 131.431 170.678, 131.283 170.683, 130.171 168.901 C 128.757 166.639, 129.988 165.849, 138.309 163.676 C 141.495 162.844, 145.204 161.441, 146.551 160.559 C 149.651 158.527, 149.866 154.022, 146.950 152.201 C 144.953 150.954, 145.006 150.800, 148.950 146.319 C 153.059 141.651, 153.934 138.086, 152.388 132.319 C 151.633 129.505, 145.423 126.998, 139.230 127.008 C 132.875 127.018, 121.875 128.859, 120.284 130.179 C 119.338 130.965, 119 130.859, 119 129.777 C 119 127.707, 115.735 125, 113.239 125 C 110.397 125, 106.992 130.025, 107.035 134.154 C 107.055 135.994, 107.679 141.775, 108.423 147 C 109.246 152.781, 109.428 157.159, 108.888 158.185 C 107.465 160.883, 109.537 164.861, 112.715 165.532 C 114.247 165.856, 116.281 166.544, 117.236 167.060 C 118.191 167.577, 120.216 168.014, 121.736 168.030 C 124.097 168.056, 124.245 168.210, 122.750 169.080 C 121.788 169.641, 121 170.752, 121 171.550 C 121 172.347, 120.550 173, 120 173 C 117.758 173, 119.413 186.194, 123.369 199.865 C 125.021 205.574, 126.020 207.429, 127.815 208.115 C 131.774 209.628, 136 205.998, 136 201.085 C 136 198.762, 137.717 198.194, 146 197.777 L 151.500 197.500 151.798 202.622 L 152.096 207.744 145.298 208.803 C 141.559 209.385, 134.023 210.819, 128.551 211.989 C 123.080 213.160, 117.529 213.848, 116.216 213.518 C 112.514 212.589, 110 213.812, 110 216.544 C 110 222.470, 121.914 225.062, 137.847 222.604 C 143.706 221.700, 149.512 220.692, 150.750 220.364 C 152.863 219.803, 153 220.071, 153 224.765 L 153 229.763 148.750 230.789 C 146.412 231.353, 141.125 232.340, 137 232.982 C 132.875 233.625, 126.800 234.750, 123.500 235.484 C 120.200 236.218, 115.138 237.127, 112.251 237.503 C 109.364 237.879, 106.770 238.562, 106.487 239.021 C 106.204 239.479, 104.291 240.408, 102.236 241.085 C 96.136 243.093, 94.279 247.133, 97.935 250.441 C 100.401 252.673, 106.126 252.283, 122.500 248.770 C 129.100 247.354, 137.532 245.691, 141.239 245.075 C 144.945 244.459, 149.286 243.693, 150.885 243.373 L 153.793 242.791 154.376 253.146 C 154.697 258.841, 155.170 269.276, 155.429 276.337 C 155.710 284.002, 156.371 289.743, 157.072 290.587 C 158.950 292.849, 163.734 292.335, 165.471 289.685 C 167.821 286.098, 168.181 279.987, 167.188 260.500 C 166.683 250.600, 166.387 242.360, 166.529 242.190 C 167.125 241.475, 181.316 239.898, 193.838 239.157 L 207.289 238.360 210.145 235.164 C 211.715 233.406, 213 230.871, 213 229.530 C 213 226.871, 209.242 222.529, 206.070 221.522 C 203.702 220.770, 200 222.521, 200 224.393 C 200 225.367, 197.101 225.899, 188.987 226.412 C 182.930 226.795, 175.420 227.525, 172.299 228.033 C 169.177 228.541, 166.541 228.854, 166.440 228.728 C 166.339 228.603, 165.963 226.475, 165.604 224 L 164.951 219.500 169.857 219.839 C 174.060 220.129, 174.995 219.846, 176.381 217.866 C 177.272 216.595, 178 214.920, 178 214.145 C 178 212.377, 174.194 209, 172.201 209 C 171.165 209, 171.469 208.295, 173.196 206.695 C 176.748 203.402, 185.157 187.543, 186.140 182.280 C 188.304 170.695, 181.010 162.279, 168.500 161.927 C 166.850 161.880, 166.175 161.588, 167 161.276 C 167.825 160.965, 169.989 159.196, 171.809 157.344 C 176.021 153.059, 181.297 150.804, 186.937 150.877 C 191.457 150.936, 194 149.730, 194 147.530 C 194 146.856, 196.475 143.829, 199.500 140.804 C 206.122 134.182, 206.874 130.096, 202.250 125.847 C 197.507 121.487, 193.646 120.599, 179.224 120.548 C 167.960 120.508, 165.551 120.770, 164.014 122.202 M 43 121.935 C 36.543 123.906, 21.603 132.985, 20.626 135.532 C 19.459 138.573, 19.992 140.881, 22.223 142.443 C 25.949 145.054, 29.212 144.243, 38.043 138.513 C 42.694 135.495, 47.028 133.020, 47.673 133.013 C 48.319 133.006, 50.227 131.838, 51.915 130.418 C 54.591 128.166, 54.835 127.560, 53.828 125.668 C 51.501 121.299, 48.488 120.260, 43 121.935 M 173.667 134.667 C 173.300 135.033, 173 136.127, 173 137.097 C 173 138.610, 173.460 138.728, 176.243 137.930 C 178.026 137.419, 180.853 137.257, 182.524 137.570 C 184.810 137.999, 186.027 137.628, 187.436 136.070 L 189.310 134 181.822 134 C 177.703 134, 174.033 134.300, 173.667 134.667 M 127.500 140.930 L 120.500 141.500 121.500 148.661 L 122.500 155.822 126.500 154.426 C 128.700 153.658, 130.613 153.023, 130.750 153.015 C 130.887 153.007, 131 152.134, 131 151.077 C 131 150.019, 132.572 147.094, 134.493 144.577 C 137.204 141.026, 137.596 140.040, 136.243 140.180 C 135.285 140.279, 131.350 140.617, 127.500 140.930 M 48.459 156.288 C 47.887 156.955, 46.144 160.650, 44.586 164.500 C 41.505 172.116, 40.470 174.541, 36.576 183.277 C 35.159 186.455, 34 189.241, 34 189.468 C 34 189.955, 24.376 210.701, 22.967 213.250 C 18.214 221.852, 13 232.914, 13 234.396 C 13 235.278, 13.939 236.939, 15.087 238.087 C 17.434 240.434, 21.119 240.071, 24.382 237.172 C 25.965 235.766, 36 216.206, 36 214.527 C 36 214.225, 36.937 211.846, 38.081 209.239 C 42.422 199.356, 42.699 198.666, 49.668 180.500 C 50.511 178.300, 51.916 174.925, 52.789 173 C 57.132 163.419, 58.027 158.427, 55.800 156.200 C 54.262 154.662, 49.810 154.715, 48.459 156.288 M 164.734 175.599 C 164.330 176.003, 164 178.185, 164 180.447 C 164 184.109, 164.333 184.687, 167.030 185.705 C 170 186.826, 170.103 186.760, 172.169 182.363 C 173.390 179.767, 173.903 177.515, 173.389 177.017 C 172.123 175.790, 165.610 174.724, 164.734 175.599 M 133.280 180.799 C 133.547 183.164, 133.931 185.220, 134.133 185.368 C 134.335 185.515, 138.161 185.448, 142.635 185.217 L 150.771 184.799 151.355 181.202 C 151.676 179.224, 151.840 177.514, 151.719 177.403 C 151.599 177.292, 147.291 177.043, 142.148 176.850 L 132.796 176.500 133.280 180.799 M 165 207 C 165 207.550, 165.477 208, 166.059 208 C 166.641 208, 166.840 207.550, 166.500 207 C 166.160 206.450, 165.684 206, 165.441 206 C 165.198 206, 165 206.450, 165 207" stroke="none" fill="black" fill-rule="evenodd"/>
</svg>