<svg xmlns="http://www.w3.org/2000/svg" width="300" height="300" viewBox="0 0 300 300" version="1.1">
	<path d="M 195.500 20.566 C 190.033 21.344, 175.452 21.877, 158.356 21.923 L 130.212 22 127.106 24.901 C 122.686 29.030, 123.041 32.935, 128.072 35.537 C 130.196 36.636, 134.746 37, 146.345 37 L 161.789 37 160.919 40.750 C 160.440 42.813, 160.037 46.638, 160.024 49.250 C 160.011 51.862, 159.885 54, 159.745 54 C 156.718 54, 119.621 58.301, 116.377 59.028 C 110.539 60.336, 104.421 63.459, 103.623 65.539 C 102.194 69.264, 102.998 71.101, 106.750 72.681 C 110.166 74.118, 111.525 74.118, 122 72.682 C 128.325 71.814, 137.100 70.842, 141.500 70.520 C 145.900 70.199, 151.684 69.662, 154.354 69.326 L 159.208 68.715 158.535 78.607 C 158.165 84.048, 157.153 92.229, 156.287 96.786 C 154.501 106.180, 155.221 109.373, 159.488 110.995 C 163.943 112.689, 166.632 110.779, 168.412 104.654 C 169.285 101.650, 170 98.474, 170 97.596 C 170 95.770, 171.552 95.467, 172.559 97.096 C 172.938 97.709, 174.833 97.997, 176.868 97.749 C 179.626 97.412, 181.169 97.861, 183.281 99.615 C 187.337 102.981, 192.169 103.988, 204.300 103.994 C 212.210 103.999, 215.919 103.576, 218.165 102.415 C 220.368 101.275, 221.535 101.135, 222.315 101.915 C 224.330 103.930, 227.744 103.019, 234.136 98.759 C 253.504 85.854, 265.119 68.582, 262.062 57.231 C 260.181 50.244, 255.361 46.419, 246.683 45.027 C 240.669 44.062, 215.004 46.061, 196.580 48.930 C 189.936 49.965, 182.298 51.116, 179.606 51.489 L 174.711 52.166 175.345 48.333 C 175.693 46.225, 175.983 42.887, 175.989 40.916 L 176 37.332 187.750 36.232 C 194.213 35.626, 201.245 34.615, 203.378 33.983 C 211.035 31.717, 214.305 25.305, 210 21 C 207.775 18.775, 208.034 18.782, 195.500 20.566 M 218.500 61.053 C 213 61.470, 200.947 62.978, 191.716 64.405 C 182.484 65.832, 174.742 67, 174.511 67 C 173.967 67, 173.249 71.790, 172.523 80.248 L 171.945 86.996 178.673 80.366 C 188.021 71.155, 200.299 65.699, 203.800 69.200 C 206.108 71.508, 204.954 74.380, 199.044 81.030 L 193.087 87.732 198.294 88.357 C 201.157 88.701, 207.157 88.987, 211.628 88.991 C 217.519 88.998, 220.088 89.401, 220.965 90.458 C 222.410 92.199, 222.826 91.928, 231.004 83.906 C 238.801 76.257, 245.031 67.586, 245.703 63.446 L 246.262 60 237.381 60.148 C 232.496 60.230, 224 60.637, 218.500 61.053 M 87.189 63.039 C 83.006 66.935, 84.151 71.635, 93.995 91 C 99.564 101.953, 102.573 104.885, 106.748 103.426 C 110.931 101.963, 110.891 97.075, 106.597 85.001 C 98.755 62.949, 93.576 57.088, 87.189 63.039 M 37 67.709 C 33.786 68.891, 32 71.396, 32 74.721 C 32 79.612, 33.423 81.656, 39.564 85.584 C 47.043 90.369, 52 94.880, 52 96.904 C 52 99.389, 54.022 101, 57.143 101 C 62.377 101, 64.625 93.826, 61.635 86.670 C 60.350 83.592, 47.521 71, 45.672 71 C 45.201 71, 43.671 70.100, 42.273 69 C 39.589 66.889, 39.374 66.836, 37 67.709 M 121.500 76.687 C 116.182 78.050, 113.423 84.184, 115.979 88.961 C 117.367 91.554, 122.404 93.043, 127.448 92.352 C 131.058 91.857, 132.128 92.128, 134.015 94.015 C 136.725 96.725, 136.134 97.196, 127.686 99.062 C 118.823 101.021, 115.790 105.921, 120.073 111.365 C 122.851 114.897, 127.405 114.826, 134.779 111.137 C 137.925 109.563, 142.133 107.746, 144.129 107.100 C 146.125 106.453, 148.521 105.081, 149.454 104.051 C 151.784 101.476, 151.121 96.772, 148.250 95.513 C 146.459 94.727, 145.997 93.707, 145.984 90.513 C 145.965 85.761, 142.156 80.787, 136.866 78.608 C 132.980 77.008, 124.423 75.938, 121.500 76.687 M 181.241 117.301 C 175.384 120.616, 174.876 126.352, 180.111 130.079 C 181.700 131.211, 183 132.916, 183 133.868 C 183 136.363, 184.999 138, 188.045 138 C 193.113 138, 195.916 132.116, 194.086 125.319 C 192.257 118.528, 185.989 114.615, 181.241 117.301 M 135.404 120.472 C 132.510 121.689, 129.059 125.448, 120.229 137 C 113.454 145.863, 109.325 150.909, 104.257 156.516 C 101.641 159.412, 97.272 164.588, 94.549 168.020 C 91.826 171.452, 88.969 174.888, 88.200 175.657 C 87.431 176.426, 86.569 178.797, 86.283 180.927 C 85.834 184.276, 86.111 185.027, 88.333 186.482 C 92.100 188.951, 94.424 187.771, 103.808 178.627 L 112.116 170.532 111.537 202.516 C 111.219 220.107, 110.450 246.101, 109.827 260.280 C 108.525 289.906, 108.759 291.325, 114.846 290.799 C 120.514 290.309, 122.035 287.169, 123.541 272.849 C 124.826 260.627, 127.020 197.300, 127.007 172.815 C 127.003 165.838, 126.546 158.935, 125.990 157.474 C 125.068 155.047, 125.644 153.981, 132.648 145.159 C 136.865 139.846, 140.846 135.050, 141.494 134.500 C 148.795 128.308, 143.851 116.920, 135.404 120.472 M 27.319 132.336 C 16.039 134.031, 12.390 137.829, 16.460 143.640 C 19.191 147.538, 23.394 148.497, 30.851 146.923 C 34.586 146.135, 41.765 145.620, 47.231 145.748 C 56.926 145.974, 56.966 145.965, 58.344 143.238 C 60.524 138.919, 59.217 136.758, 52.561 133.676 C 47.461 131.315, 37.601 130.791, 27.319 132.336 M 190 141.712 C 166.713 144.201, 132.959 151.879, 130.880 155.160 C 129.515 157.313, 129.871 162.371, 131.557 164.777 C 133.615 167.717, 137.944 167.674, 149.500 164.602 C 154.450 163.286, 161.188 161.660, 164.474 160.987 C 167.760 160.315, 171.023 159.545, 171.724 159.276 C 173.508 158.591, 173.320 161.484, 171.334 165.300 C 170.417 167.060, 169.405 171.164, 169.084 174.420 C 168.540 179.935, 168.295 180.400, 165.500 181.226 C 142.718 187.956, 131.983 194.660, 136.082 199.599 C 137.261 201.019, 138.871 201.182, 146.982 200.704 C 152.292 200.391, 159.061 199.281, 162.291 198.192 L 168.083 196.241 167.791 203.361 C 167.461 211.436, 167.965 210.943, 155.373 215.510 C 150.612 217.237, 148.215 217.650, 146.934 216.965 C 141.894 214.267, 137.573 223.124, 141.099 228.923 C 142.895 231.876, 143.243 231.999, 149.735 231.976 C 154.517 231.959, 158.185 231.259, 162.250 229.588 L 168 227.223 167.980 239.362 C 167.963 250.043, 166.633 264.701, 165.586 265.747 C 165.383 265.950, 160.438 266.743, 154.597 267.510 C 142.399 269.111, 132.734 270.912, 131.298 271.852 C 130.754 272.208, 130.017 273.691, 129.661 275.147 C 127.700 283.169, 138.783 285.279, 166.314 282.126 C 183.477 280.160, 216.160 277.012, 240.371 274.993 C 259.475 273.400, 263.046 272.568, 265.718 269.087 C 268.600 265.333, 265.787 259.766, 260.498 258.755 C 259.210 258.509, 253.508 258.682, 247.828 259.140 C 242.147 259.599, 231.875 260.414, 225 260.952 C 218.125 261.491, 205.356 262.640, 196.624 263.507 C 187.893 264.373, 180.526 264.860, 180.255 264.588 C 179.983 264.317, 180.480 261.036, 181.359 257.297 C 183.335 248.888, 185 236.428, 185 230.053 C 185 220.964, 185.812 219.129, 190.993 216.504 C 201.055 211.405, 204.869 205.461, 200.965 200.960 C 198.827 198.494, 197.401 198.501, 192.500 201 C 186.486 204.066, 186 203.781, 186 197.189 L 186 191.378 191.250 190.055 C 197.937 188.370, 202.864 185.876, 205.872 182.653 C 207.815 180.572, 208.123 179.470, 207.578 176.564 C 206.731 172.049, 203.687 171.131, 196.619 173.258 C 185.677 176.551, 186.346 176.755, 185.729 169.946 C 185.428 166.633, 185.585 162.464, 186.077 160.683 L 186.972 157.443 196.872 156.259 C 211.864 154.466, 219.685 150.337, 218.279 144.958 C 216.903 139.696, 213.025 139.250, 190 141.712 M 70.156 168.750 C 69.020 169.713, 66.692 174.070, 64.983 178.433 C 63.273 182.797, 61.003 187.591, 59.937 189.088 C 58.872 190.584, 58 192.480, 58 193.299 C 58 194.757, 56.079 198.655, 44.843 220 C 38.668 231.730, 35.533 237.465, 27.506 251.713 C 24.478 257.088, 22 262.468, 22 263.667 C 22 267.049, 26.702 272, 29.915 272 C 33.289 272, 36.075 269.077, 38.906 262.565 C 40.086 259.850, 42.519 255.350, 44.312 252.565 C 49.692 244.207, 71 199.865, 71 197.026 C 71 196.411, 72.510 192.666, 74.356 188.704 C 80.497 175.520, 81.064 171.302, 77.104 168.286 C 74.843 166.563, 72.556 166.716, 70.156 168.750" stroke="none" fill="black" fill-rule="evenodd"/>
</svg>