<svg xmlns="http://www.w3.org/2000/svg" width="300" height="300" viewBox="0 0 300 300" version="1.1">
	<path d="M 65.642 42.310 C 61.671 45.307, 61.127 49.604, 60.038 86.604 C 58.729 131.026, 57.380 159.131, 55.434 182.500 C 54.609 192.400, 53.527 206.350, 53.029 213.500 C 51.805 231.063, 50.246 243.051, 48.565 247.815 C 46.346 254.106, 44.059 258, 42.585 258 C 41.835 258, 40.215 258.815, 38.984 259.812 C 34.216 263.673, 40.581 269.005, 47.252 266.738 C 51.816 265.187, 57.776 257.466, 60.022 250.193 C 62.597 241.855, 63.411 235.936, 66.116 205.882 L 68.331 181.263 72.011 185.132 C 74.422 187.667, 76.577 189, 78.263 189 C 80.763 189, 95 199.293, 95 201.100 C 95 202.895, 103.793 207, 107.638 207 C 112.233 207, 114 205.625, 114 202.050 C 114 200.153, 112.015 197.664, 106.250 192.331 C 101.987 188.388, 97.513 184.231, 96.306 183.094 C 92.839 179.827, 86.437 176.868, 82.142 176.548 C 79.974 176.386, 77.155 175.522, 75.878 174.627 C 74.600 173.732, 72.477 173, 71.159 173 C 68.773 173, 68.766 172.968, 69.412 164.750 C 71.804 134.326, 72.860 73.419, 71.361 52.307 C 70.862 45.279, 70.339 43.068, 68.971 42.214 C 67.685 41.411, 66.799 41.436, 65.642 42.310 M 203.801 43.218 C 201.582 43.970, 201.013 44.876, 200.598 48.316 C 200.320 50.617, 200.144 53.850, 200.207 55.500 C 200.376 59.964, 199.113 71.819, 196.851 87 C 195.745 94.425, 194.438 104.325, 193.946 109 C 193.454 113.675, 191.924 126.050, 190.544 136.500 C 185.178 177.157, 188.339 215.837, 198.278 231.137 C 208.528 246.917, 221.869 252.408, 244.500 250.162 C 263.591 248.267, 276.313 245.888, 282 243.149 C 291.828 238.415, 293.500 230.757, 286.667 221.774 C 281.379 214.824, 274.368 215.543, 275.252 222.944 C 275.485 224.900, 275.992 227.209, 276.379 228.077 C 277.269 230.077, 273.446 231.354, 258.557 234.032 C 243.262 236.783, 227.473 236.716, 221.195 233.875 C 209.261 228.473, 204.359 216.243, 202.007 186 C 200.934 172.207, 201.630 155.481, 204.143 134.662 C 205.249 125.499, 205.508 124.756, 207.915 123.825 C 211.941 122.267, 219.919 123.357, 226.482 126.363 C 233.792 129.710, 239.965 130.671, 243.840 129.066 C 247.258 127.650, 249.462 124.031, 248.586 121.271 C 247.914 119.152, 243.424 116.620, 241.953 117.529 C 241.459 117.834, 238.580 116.952, 235.554 115.568 C 232.529 114.184, 228.916 112.766, 227.527 112.417 C 226.137 112.069, 225 111.558, 225 111.282 C 225 111.006, 228.578 106.745, 232.950 101.813 C 242.391 91.164, 245.776 85.683, 247.586 78.114 C 249.508 70.080, 249.319 67.636, 246.548 64.646 C 241.727 59.444, 236.869 62.107, 233.484 71.808 C 230.554 80.204, 226.084 88.388, 221.361 94 C 211.598 105.602, 207.648 109.982, 207.280 109.613 C 207.070 109.403, 208.244 99.167, 209.890 86.866 C 213.396 60.646, 213.911 51.614, 212.143 47.345 C 210.559 43.521, 207.448 41.982, 203.801 43.218 M 158.631 49.512 C 157.799 50.344, 156.834 52.931, 156.485 55.262 C 155.482 61.966, 155.417 90.192, 156.371 105.250 C 157.171 117.887, 157.103 119, 155.534 119 C 153.009 119, 139.788 128.453, 131.536 136.160 C 126.257 141.090, 123.791 142.758, 122.341 142.379 C 117.021 140.988, 116.922 150.395, 122.215 154.323 C 126.679 157.636, 131.509 155.510, 139.196 146.849 C 142.663 142.942, 148.088 137.752, 151.250 135.314 L 157 130.883 156.986 133.692 C 156.956 139.658, 155.006 171.030, 154.014 181.500 C 152.481 197.694, 151.149 204.239, 146.821 216.846 C 142.706 228.834, 142.644 231.622, 146.472 232.582 C 156.424 235.080, 165.506 207.796, 167.972 168 C 170.573 126.031, 170.212 102.207, 166.436 66.500 C 164.575 48.897, 162.897 45.246, 158.631 49.512 M 87.526 88.950 C 85.278 93.298, 85.766 101.424, 88.815 110.417 C 91.907 119.535, 94.267 121.902, 97.796 119.430 C 99.798 118.028, 99.999 117.046, 99.984 108.693 C 99.967 98.673, 97.990 88.242, 95.851 86.887 C 92.849 84.984, 89.095 85.915, 87.526 88.950 M 34.779 102.431 C 33.202 104.601, 33.181 105.274, 34.529 110.449 C 35.338 113.556, 36.001 117.313, 36.003 118.799 C 36.005 121.592, 40.959 142.105, 43.387 149.374 C 44.195 151.794, 45.818 154.106, 47.314 154.967 C 49.620 156.293, 50.061 156.255, 51.932 154.562 C 54.376 152.350, 54.515 149.351, 52.596 140.197 C 50.703 131.169, 47.897 115.792, 46.498 106.779 C 45.495 100.321, 38.262 97.638, 34.779 102.431 M 131.914 101.956 C 129.197 102.779, 124.389 105.626, 122.220 107.695 C 119.164 110.612, 124.549 118, 129.730 118 C 131.084 118, 133.514 117.058, 135.131 115.907 C 137.427 114.272, 138.378 114.069, 139.475 114.979 C 141.839 116.941, 146.344 115.796, 147.735 112.879 C 151.331 105.340, 142.001 98.899, 131.914 101.956" stroke="none" fill="black" fill-rule="evenodd"/>
</svg>