<svg xmlns="http://www.w3.org/2000/svg" width="300" height="300" viewBox="0 0 300 300" version="1.1">
	<path d="M 191.023 28.977 C 188.762 31.238, 188.504 33.970, 188.888 51.500 C 189.260 68.415, 185.477 98.126, 179.848 122.500 C 173.476 150.087, 172.791 152.512, 170.903 154.160 C 168.795 155.999, 168.463 158.063, 170.024 159.624 C 172.415 162.015, 152.876 212.731, 143.514 228.434 C 140.877 232.857, 140.035 233.538, 136.884 233.802 C 134.166 234.030, 132.992 234.721, 132.137 236.599 C 130.591 239.991, 130.685 240.685, 133 243 C 135.718 245.718, 142.101 245.633, 147.118 242.814 C 151.913 240.119, 157.105 232.342, 164.021 217.500 C 166.840 211.450, 170.013 204.651, 171.073 202.390 C 172.133 200.130, 173 197.723, 173 197.042 C 173 196.360, 173.620 194.384, 174.378 192.651 C 176.012 188.914, 178.296 182.149, 179.914 176.250 C 180.556 173.912, 181.348 172, 181.676 172 C 182.003 172, 186.084 175.488, 190.745 179.750 C 221.520 207.896, 239.130 221.948, 252.500 229.030 C 255.250 230.487, 258.850 232.418, 260.500 233.321 C 262.150 234.225, 266.425 236.361, 270 238.068 C 283.438 244.484, 288.741 245.221, 291.006 240.988 C 292.885 237.477, 289.344 233.381, 280 228.258 C 254.314 214.174, 246.998 209.551, 234 199.190 C 226.502 193.214, 210.886 179.886, 208 177 C 207.101 176.101, 186.512 157.575, 186.042 157.242 C 185.791 157.064, 186.998 150.974, 188.726 143.709 C 197.835 105.404, 197.299 108.231, 200.531 81.500 C 204.392 49.579, 199.185 20.815, 191.023 28.977 M 219.610 88.170 C 214.741 92.183, 213 96.337, 213 103.941 C 213 108.076, 212.320 111.346, 210.816 114.441 C 208.692 118.814, 208.683 118.992, 210.471 120.968 C 211.483 122.086, 213.530 123, 215.020 123 C 221.365 123, 224.312 117.420, 227.429 99.500 C 228.910 90.988, 228.896 90.368, 227.186 88.063 C 224.615 84.598, 223.932 84.607, 219.610 88.170 M 83 87.469 C 80.525 88.178, 77.163 89.290, 75.530 89.938 C 73.084 90.910, 72.367 90.855, 71.468 89.625 C 70.868 88.804, 69.105 87.813, 67.550 87.423 C 65.275 86.852, 64.382 87.168, 62.966 89.046 C 61.357 91.178, 61.254 93.617, 61.752 117.591 C 62.288 143.311, 62.257 143.857, 60.149 146.538 C 57.574 149.812, 57.457 151.304, 59.635 153.112 C 61.044 154.282, 61.197 156.182, 60.737 166.833 C 60.437 173.766, 59.719 179.681, 59.101 180.299 C 58.496 180.904, 58 183.949, 58 187.065 C 58 193.680, 60.596 198, 64.573 198 C 65.939 198, 67 198.588, 67 199.345 C 67 202.026, 70.566 204, 75.409 204 C 79.121 204, 81.972 203.029, 88.441 199.560 C 94.305 196.416, 97.032 195.432, 97.787 196.187 C 99.609 198.009, 103.785 196.154, 106.667 192.242 C 108.184 190.184, 110.229 187.695, 111.212 186.711 C 113.364 184.557, 113.551 179.694, 111.558 177.701 C 110.318 176.461, 110.264 171.733, 111.170 143.880 C 112.093 115.490, 112.027 110.461, 110.632 103.069 C 109.337 96.202, 108.470 94.049, 105.961 91.459 C 100.864 86.201, 92.496 84.747, 83 87.469 M 142.573 94.570 C 139.030 98.113, 139.268 104.414, 143.446 117.640 C 148.101 132.374, 154.688 138.985, 164.727 138.995 C 169.174 138.999, 170.194 138.634, 171.560 136.549 C 173.707 133.273, 172.647 130.475, 168.717 129.043 C 161.948 126.576, 160.834 125.554, 158.854 120 C 154.959 109.073, 154 105.629, 154 102.564 C 154 99.604, 151.859 95.363, 149.558 93.765 C 147.759 92.516, 144.219 92.923, 142.573 94.570 M 80.250 101.337 L 75 102.365 75 120.682 L 75 139 85.872 139 L 96.743 139 97.452 126.187 C 98.097 114.530, 97.945 111.300, 96.353 102.750 C 95.868 100.145, 95.569 100.008, 90.671 100.155 C 87.827 100.240, 83.138 100.772, 80.250 101.337 M 81.828 152.903 C 78.708 153.237, 75.942 153.734, 75.682 154.006 C 75.229 154.478, 73 182.340, 73 187.520 C 73 190.831, 75.356 190.751, 82.148 187.209 C 85.092 185.675, 89.638 183.612, 92.250 182.627 L 97 180.835 97 166.417 L 97 152 92.250 152.147 C 89.638 152.228, 84.947 152.568, 81.828 152.903" stroke="none" fill="black" fill-rule="evenodd"/>
</svg>