<svg xmlns="http://www.w3.org/2000/svg" width="300" height="300" viewBox="0 0 300 300" version="1.1">
	<path d="M 168.589 25.077 C 167.165 26.769, 166 29.089, 166 30.232 C 166 35.820, 178.845 46, 185.896 46 C 189.160 46, 190.286 45.493, 191.654 43.406 C 193.261 40.953, 193.254 40.626, 191.515 37.399 C 190.505 35.522, 187.736 32.527, 185.363 30.743 C 182.991 28.959, 180.805 26.781, 180.505 25.902 C 179.894 24.105, 175.867 22, 173.042 22 C 172.017 22, 170.013 23.385, 168.589 25.077 M 65.557 43.223 C 64.701 44.445, 64 47.485, 64 49.979 C 64 52.473, 63.582 55.971, 63.071 57.753 C 62.452 59.912, 62.608 64.917, 63.540 72.747 C 66.322 96.142, 65.240 126.337, 60.327 162.416 L 58.567 175.333 56.227 169.993 C 53.077 162.804, 50.338 150.995, 48.460 136.500 C 46.055 117.941, 44.609 114, 40.206 114 C 37.050 114, 33.129 117.798, 32.428 121.535 C 31.470 126.637, 35.603 152.473, 38.922 162.131 C 42.690 173.096, 47.542 183.542, 50.018 186.018 C 51.108 187.108, 53.059 188, 54.354 188 L 56.708 188 53.281 203.750 C 51.396 212.412, 47.879 227.150, 45.465 236.500 C 43.051 245.850, 40.542 255.975, 39.890 259 C 39.237 262.025, 37.425 268.325, 35.864 273 C 34.302 277.675, 33.019 282.457, 33.012 283.628 C 32.995 286.620, 35.308 288.190, 39.185 287.818 C 42.077 287.541, 42.864 286.798, 45.348 282 C 46.915 278.975, 49.223 273.575, 50.477 270 C 53.401 261.665, 62.009 230.992, 62.004 228.926 C 62.002 228.060, 63.808 219.960, 66.017 210.926 C 68.226 201.892, 70.254 193.510, 70.523 192.300 L 71.013 190.101 74.562 192.300 C 86.585 199.751, 93.127 204.397, 96.526 207.900 C 100.819 212.323, 104.046 213.581, 107.021 211.989 C 110.309 210.229, 109.598 205.074, 105.283 199.394 C 96.724 188.127, 89.481 183.490, 78.750 182.406 C 75.037 182.031, 72 181.448, 72 181.110 C 72 180.772, 72.866 175.953, 73.924 170.400 C 78.276 147.560, 79.476 133.533, 79.347 107 C 79.223 81.536, 78.122 68.762, 74.606 52 C 73.537 46.905, 72.351 43.939, 70.906 42.750 C 68.145 40.479, 67.434 40.542, 65.557 43.223 M 239 52.111 C 216.339 56.203, 197.113 58.216, 174 58.915 C 146.587 59.743, 144.754 60.249, 136.005 69.384 L 133.244 72.268 132.056 68.669 C 130.685 64.517, 125.904 59, 123.676 59 C 122.838 59, 120.769 60.165, 119.077 61.589 C 115.274 64.789, 115.181 67.457, 118.593 75.500 C 119.993 78.800, 122.176 84.451, 123.444 88.059 C 126.927 97.962, 128.757 100.917, 132.523 102.713 C 135.753 104.253, 136.076 104.241, 137.978 102.520 C 140.358 100.366, 140.520 97.194, 138.598 90.432 C 137.827 87.719, 136.924 83.903, 136.591 81.952 L 135.985 78.403 142.243 77.066 C 145.684 76.331, 150.091 75.418, 152.036 75.038 L 155.573 74.347 155.271 80.923 C 154.634 94.780, 152.771 109.751, 150.924 115.855 C 148.044 125.369, 148.602 132.699, 152.400 135.235 C 156.495 137.969, 162.974 133.628, 163.024 128.115 C 163.049 125.336, 166.464 111.676, 167.589 109.856 C 168.188 108.886, 170.078 86.052, 170.318 76.889 L 170.412 73.278 181.430 72.697 C 187.490 72.377, 192.610 72.277, 192.808 72.474 C 193.005 72.672, 192.248 73.752, 191.125 74.875 C 187.598 78.402, 184.939 84.851, 184.332 91.350 C 183.213 103.330, 188.560 114.359, 198.454 120.479 C 203.100 123.352, 203.930 123.512, 215.420 123.747 C 229.221 124.030, 231.671 123.273, 232.577 118.444 C 233.829 111.766, 226.859 107.085, 217.526 108.337 C 215.320 108.633, 211.327 108.406, 208.654 107.832 C 204.048 106.845, 203.662 106.503, 201.288 101.318 C 198.005 94.146, 198.267 84.243, 201.873 79.178 C 203.179 77.345, 203.989 75.067, 203.712 74.008 C 203.284 72.369, 203.971 72.028, 208.859 71.450 C 219.105 70.239, 239.337 67.234, 249.729 65.381 C 256.625 64.151, 260.287 63.887, 260.969 64.569 C 261.650 65.250, 261.505 67.859, 260.521 72.575 C 257.998 84.677, 256.353 88.102, 250.351 93.750 C 247.283 96.638, 244.422 99, 243.994 99 C 242.294 99, 241.936 104.254, 243.477 106.606 C 246.404 111.072, 250.578 109.872, 260.856 101.610 C 268.206 95.700, 271.600 89.862, 275.491 76.435 C 279.405 62.929, 278.587 57.838, 271.657 52.552 C 268.587 50.211, 267.535 50.009, 258.906 50.107 C 253.733 50.166, 244.775 51.068, 239 52.111 M 89.743 108.084 C 88.777 108.647, 87.039 110.963, 85.882 113.231 C 83.865 117.184, 83.831 117.810, 85.050 128.427 C 85.749 134.517, 86.754 140.063, 87.283 140.750 C 88.814 142.739, 94.455 142.259, 96.534 139.963 C 99.013 137.223, 99.615 127.883, 97.987 117.414 C 96.885 110.331, 96.373 109.035, 94.306 108.094 C 91.486 106.808, 91.932 106.809, 89.743 108.084 M 197.500 158.487 C 189.800 159.723, 181.700 161.241, 179.500 161.861 C 177.300 162.481, 174.094 162.991, 172.377 162.994 C 167.816 163.003, 155.160 166.357, 150.283 168.851 C 144.935 171.585, 143.207 174.466, 145.436 176.930 C 147.436 179.139, 153.503 181, 158.706 181 C 161.959 181, 173.071 178.651, 180 176.499 C 181.266 176.106, 181.559 178.019, 181.881 188.767 C 182.378 205.344, 182.381 234.099, 181.888 240.648 L 181.500 245.797 176 246.370 C 172.975 246.686, 161.725 247.213, 151 247.542 C 133.905 248.066, 127.011 248.699, 118.320 250.541 C 112.431 251.789, 111.246 257.508, 116.250 260.534 C 122.544 264.341, 159.822 262.968, 216.500 256.843 C 226.950 255.713, 247.044 254.496, 261.154 254.137 C 284.404 253.546, 287.004 253.307, 288.904 251.587 C 291.280 249.437, 291.592 245.364, 289.583 242.716 C 286.146 238.185, 254.478 237.657, 218.332 241.528 C 205.347 242.919, 194.529 243.863, 194.292 243.625 C 194.054 243.388, 194.791 240.177, 195.930 236.491 C 198.284 228.870, 198.710 211.323, 196.975 193.500 C 196.439 188, 196.279 181.397, 196.619 178.828 L 197.237 174.155 202.369 173.452 C 208.658 172.591, 221.999 168.269, 223.875 166.486 C 225.796 164.659, 225.589 160.308, 223.470 157.967 C 221.163 155.418, 215.979 155.522, 197.500 158.487" stroke="none" fill="black" fill-rule="evenodd"/>
</svg>