<svg xmlns="http://www.w3.org/2000/svg" width="300" height="300" viewBox="0 0 300 300" version="1.1">
	<path d="M 210.045 10.250 C 209.019 12.802, 192.190 29.533, 187.250 32.913 C 184.107 35.063, 184 35.071, 184 33.172 C 184 32.091, 182.313 29.767, 180.250 28.006 C 178.188 26.245, 173.745 22.197, 170.378 19.010 C 161.992 11.072, 156.203 9.989, 152.485 15.663 C 150.240 19.090, 151.672 22.276, 156.485 24.560 C 158.461 25.498, 162.302 28.264, 165.020 30.708 C 167.738 33.151, 171.499 35.575, 173.378 36.094 C 176.583 36.979, 176.723 37.192, 175.647 39.547 C 175.016 40.927, 173.375 42.295, 172 42.586 C 170.625 42.877, 166.562 43.989, 162.972 45.057 C 159.381 46.126, 155.917 47, 155.273 47 C 154.630 47, 150.484 48.143, 146.060 49.541 C 139.174 51.716, 137.923 52.457, 137.362 54.695 C 136.447 58.339, 137.993 60.265, 142.993 61.713 C 147.569 63.038, 150.509 62.628, 162.500 58.995 C 165.800 57.995, 169.792 56.890, 171.371 56.539 C 174.217 55.907, 174.236 55.934, 173.586 59.701 C 171.916 69.392, 172.509 68.668, 164.819 70.405 C 160.934 71.282, 156.642 72, 155.282 72 C 148.716 72, 144.259 78.694, 147.515 83.664 C 149.361 86.481, 154.286 86.745, 163.500 84.520 C 166.800 83.723, 170.063 83.055, 170.750 83.036 C 172.578 82.984, 172.324 90.092, 170.400 92.840 C 169.519 94.096, 169.026 95.991, 169.303 97.050 C 169.707 98.596, 169.088 99.144, 166.153 99.836 C 164.144 100.310, 160.475 101.209, 158 101.835 C 155.525 102.460, 150.575 103.689, 147 104.567 C 136.923 107.040, 129.622 109.274, 128.250 110.305 C 126.568 111.570, 126.661 116.474, 128.394 117.912 C 129.161 118.548, 132.012 119.333, 134.731 119.655 C 139.450 120.213, 147.270 118.709, 167 113.448 C 175.519 111.176, 196.195 107.369, 210 105.531 C 216.875 104.615, 223.625 103.319, 225 102.651 C 227.815 101.284, 228.886 96.773, 226.950 94.440 C 225.116 92.230, 200.951 92.508, 190.250 94.863 C 185.713 95.861, 182 96.582, 182 96.465 C 182 96.347, 182.619 94.498, 183.375 92.356 C 184.131 90.213, 185.072 86.219, 185.466 83.480 C 186.144 78.771, 186.436 78.379, 190.841 76.285 C 193.404 75.066, 197.188 72.671, 199.250 70.962 C 202.236 68.488, 203 67.163, 203 64.462 C 203 59.706, 200.436 58.485, 194.796 60.555 C 186.420 63.630, 186.626 63.635, 187.414 60.405 C 188.594 55.563, 192.753 50.092, 195.752 49.437 C 197.263 49.107, 202.125 47.749, 206.557 46.418 C 210.988 45.088, 216.163 43.993, 218.057 43.985 C 222.520 43.966, 226.076 42.089, 227.134 39.193 C 227.799 37.374, 227.438 36.347, 225.425 34.334 C 223.080 31.989, 222.329 31.819, 216.186 32.237 C 212.509 32.488, 208.600 33.045, 207.500 33.475 C 206.400 33.904, 208.099 31.723, 211.275 28.626 C 214.452 25.530, 217.489 21.843, 218.025 20.433 C 219.591 16.315, 219.209 10.880, 217.250 9.392 C 214.484 7.292, 211.072 7.699, 210.045 10.250 M 69.030 55.982 C 68.209 56.489, 67.923 57.999, 68.242 60.139 C 68.937 64.792, 67.344 97.486, 65.568 115 C 64.760 122.975, 63.824 133.168, 63.489 137.651 C 63.154 142.135, 62.495 147.085, 62.026 148.651 L 61.172 151.500 61.086 148.876 C 61.039 147.432, 60.341 144.383, 59.535 142.100 C 58.730 139.816, 57.351 132.222, 56.471 125.224 C 54.435 109.028, 54.310 108.453, 52.427 106.570 C 50.015 104.158, 46.415 104.660, 43.965 107.750 C 41.944 110.299, 41.833 111.196, 42.456 120 C 43.094 129.037, 46.779 145.968, 49.523 152.475 C 50.224 154.139, 51.601 157.445, 52.583 159.822 C 53.565 162.199, 55.735 165.213, 57.404 166.519 L 60.440 168.895 58.144 183.698 C 53.174 215.747, 44.929 243.653, 39.786 245.833 C 38.572 246.348, 38.857 250.457, 40.200 251.800 C 42.020 253.620, 46.428 253.238, 49.252 251.016 C 52.342 248.586, 58.875 235.290, 62.280 224.500 C 64.725 216.755, 67.862 201.410, 70.143 186.048 L 71.249 178.595 74.183 182.048 C 87.526 197.749, 92.456 202, 97.325 202 C 99.750 202, 103 199.246, 103 197.191 C 103 196.557, 99.805 192.543, 95.899 188.270 C 91.994 183.996, 87.885 178.925, 86.769 177 C 83.972 172.175, 78.091 167.749, 75.209 168.300 C 72.926 168.737, 72.919 168.705, 73.534 160.119 C 73.873 155.379, 74.999 144.525, 76.037 136 C 80.249 101.398, 80.610 67.745, 76.843 60.707 C 74.630 56.571, 71.317 54.568, 69.030 55.982 M 86.606 102.882 C 85.457 104.152, 84.591 107.777, 83.945 114.022 C 82.898 124.145, 83.461 126, 87.583 126 C 92.259 126, 96 118.810, 96 109.823 C 96 102.534, 90.560 98.514, 86.606 102.882 M 209.413 119.493 C 207.056 123.089, 208.331 126.651, 213.877 131.966 C 221.499 139.272, 231.702 147, 233.727 147 C 236.262 147, 238 145.085, 238 142.292 C 238 137.684, 217.543 117, 212.986 117 C 211.919 117, 210.311 118.122, 209.413 119.493 M 152.601 129.718 C 148.789 130.694, 137.280 138.974, 128.500 147.057 C 116.398 158.199, 115.030 160.663, 119.365 163.504 C 122.467 165.536, 125.217 164.477, 132.720 158.360 L 138.500 153.648 138.793 161.990 C 138.954 166.579, 138.880 170.870, 138.628 171.526 C 138.019 173.114, 130.414 174.966, 120.115 176.035 C 113.604 176.710, 111.202 177.401, 109.365 179.127 C 106.301 182.005, 106.381 183.548, 109.705 185.727 C 111.863 187.141, 114.544 187.500, 122.955 187.500 C 128.755 187.500, 134.937 187.179, 136.694 186.786 C 140.259 185.989, 140.190 185.790, 141.389 200.312 L 141.868 206.124 131.252 214.312 C 116.939 225.351, 101 240.746, 101 243.532 C 101 246.152, 103.934 249, 106.633 249 C 109.387 249, 117.260 243.823, 123.903 237.644 C 126.981 234.780, 132.537 229.826, 136.250 226.634 L 143 220.831 143 236.760 C 143 250.923, 142.797 252.874, 141.171 254.345 C 138.673 256.606, 135.801 256.424, 129.688 253.618 C 126.835 252.309, 123.442 250.989, 122.149 250.686 C 118.921 249.929, 115 251.898, 115 254.276 C 115 259.105, 130.546 269, 138.134 269 C 144.554 269, 150.296 265.146, 153.403 258.751 C 156.975 251.397, 157.410 244.936, 155.597 226.166 L 154.020 209.832 157.010 205.486 C 158.654 203.095, 160 200.176, 160 198.998 C 160 196.265, 157.744 194, 155.022 194 C 153.076 194, 152.925 193.535, 153.200 188.383 L 153.500 182.766 163 179.502 C 168.225 177.707, 175.172 175.280, 178.439 174.108 C 181.705 172.936, 184.695 172.320, 185.083 172.739 C 185.714 173.419, 188.663 181.089, 192.681 192.500 C 193.456 194.700, 194.744 197.918, 195.545 199.651 C 196.345 201.384, 197 203.302, 197 203.912 C 197 204.522, 197.851 206.929, 198.892 209.261 C 199.932 211.592, 201.067 214.349, 201.413 215.386 C 202.135 217.551, 192.423 234.957, 182.301 249.638 C 175.341 259.733, 174.442 263.333, 178.426 265.148 C 179.761 265.756, 182.007 265.964, 183.418 265.610 C 186.470 264.844, 194.943 254.972, 202.866 242.952 C 205.965 238.250, 208.883 234.200, 209.351 233.952 C 209.820 233.703, 211.170 235.301, 212.351 237.503 C 215.460 243.294, 225.807 257.789, 230.427 262.827 C 234.947 267.754, 238.732 270, 242.516 270 C 248.349 270, 249.852 267.510, 248.400 260.252 C 247.924 257.872, 247.008 256.993, 243.953 255.985 C 238.780 254.277, 234.616 249.075, 223.553 230.500 C 216.486 218.635, 216.357 220.690, 225.311 202.575 C 229.681 193.734, 234.472 185.150, 235.956 183.500 C 239.657 179.387, 245 170.668, 245 168.744 C 245 165.673, 243.759 164, 241.482 164 C 239.812 164, 236.999 166.548, 231.268 173.250 C 222.130 183.937, 215.345 193.002, 212.523 198.293 C 211.435 200.332, 210.269 202, 209.931 202 C 209.593 202, 208.753 200.088, 208.064 197.750 C 207.375 195.412, 206.198 192.150, 205.449 190.500 C 203.906 187.102, 198 169.395, 198 168.167 C 198 167.726, 201.577 165.888, 205.949 164.083 C 210.320 162.278, 215.602 159.327, 217.686 157.526 C 221.110 154.566, 221.379 153.984, 220.487 151.479 C 218.935 147.120, 217.058 146.514, 211.968 148.729 C 205.221 151.666, 197.737 154.236, 195.531 154.376 C 193.968 154.474, 193.167 153.262, 191.650 148.500 C 187.889 136.697, 185.519 133.495, 182.436 136.053 C 181.201 137.078, 180.931 139.492, 181.071 148.277 L 181.245 159.224 175.873 161.131 C 165.484 164.818, 158.469 167.147, 155.365 167.938 L 152.229 168.738 151.600 163.619 C 151.254 160.803, 150.700 155.572, 150.368 151.994 L 149.766 145.488 153.734 143.737 C 160.983 140.539, 163.843 134.843, 160.087 131.087 C 158.042 129.042, 156.409 128.743, 152.601 129.718" stroke="none" fill="black" fill-rule="evenodd"/>
</svg>