<svg xmlns="http://www.w3.org/2000/svg" width="300" height="300" viewBox="0 0 300 300" version="1.1">
	<path d="M 201 11.050 C 194.675 11.463, 182.602 12.296, 174.170 12.900 C 165.739 13.505, 155.419 14, 151.236 14 C 142.296 14, 135.546 16.646, 133.691 20.878 C 133.059 22.320, 131.979 23.855, 131.290 24.289 C 128.809 25.853, 125.126 33.622, 124.079 39.500 C 121.998 51.184, 115.038 185.998, 114.819 218.864 C 114.714 234.577, 114.944 237.250, 116.930 243.377 C 118.647 248.675, 120.245 251.340, 123.889 254.984 C 131.270 262.365, 141.537 265.516, 166.500 268.061 C 198.529 271.325, 250.315 264.969, 269.056 255.472 C 274.459 252.734, 275.789 251.304, 276.571 247.396 C 276.991 245.294, 276.583 243.825, 275.104 242.120 C 272.841 239.510, 272.155 239.555, 262.821 242.925 C 248.857 247.968, 216.820 251.509, 185.500 251.472 C 146.851 251.426, 135.048 248.496, 130.377 237.787 C 128.718 233.983, 128.533 231.136, 128.739 212.500 C 129.135 176.598, 135.792 51.670, 138.102 36.777 C 138.677 33.075, 138.819 29.517, 138.419 28.869 C 137.965 28.135, 138.122 27.957, 138.835 28.398 C 140.733 29.571, 164.039 29.127, 189.500 27.433 C 202.700 26.554, 222.759 25.751, 234.075 25.648 C 251.791 25.486, 255.022 25.216, 257.325 23.707 C 263.257 19.820, 258.993 11.819, 250.360 10.636 C 244.473 9.829, 216.041 10.067, 201 11.050 M 59.609 34.250 C 58.668 35.724, 56.769 49.258, 54.103 73.500 C 48.941 120.424, 44.788 153, 43.966 153 C 42.714 153, 38.044 142.377, 36.053 135 C 32.630 122.313, 31.058 111.175, 30.352 94.587 C 29.755 80.583, 29.436 78.436, 27.689 76.689 C 25.751 74.751, 21.170 74.159, 18.911 75.555 C 13.450 78.930, 13.702 108.924, 19.373 130.500 C 24.822 151.233, 30.786 161, 37.996 161 C 39.978 161, 42.084 160.516, 42.676 159.924 C 43.444 159.156, 43.645 159.514, 43.378 161.174 C 43.172 162.453, 41.408 174.750, 39.458 188.500 C 33.757 228.704, 29.439 248.409, 26.098 249.469 C 23.075 250.428, 21.583 255.207, 22.983 259.449 C 24.306 263.456, 26.485 265, 30.818 265 C 34.796 265, 40.081 259.071, 42.959 251.381 C 45.422 244.799, 49.558 227.877, 50.384 221 C 51.710 209.969, 55.255 184.369, 55.632 183.106 C 55.897 182.217, 58.106 183.987, 61.734 187.996 C 65.922 192.623, 69.269 195.166, 74.432 197.640 C 82.695 201.600, 85.871 201.830, 88.826 198.686 C 92.808 194.447, 91.016 190.746, 82.440 185.501 C 78.898 183.335, 76 181.211, 76 180.780 C 76 179.095, 67.269 171.595, 63.191 169.776 C 60.820 168.719, 58.665 167.291, 58.401 166.603 C 58.137 165.915, 59.488 153.685, 61.403 139.426 C 67.824 91.619, 69.116 73.784, 67.844 50.481 C 67.125 37.317, 66.695 34.489, 65.242 33.386 C 62.722 31.473, 61.237 31.701, 59.609 34.250 M 185.411 63.655 C 181.768 67.298, 181.758 67.333, 182.414 73.734 C 183.079 80.227, 189.027 99.632, 191.603 103.715 C 192.371 104.933, 193 106.580, 193 107.376 C 193 108.171, 194.446 110.039, 196.212 111.525 C 198.992 113.864, 200.046 114.155, 204.036 113.682 C 206.572 113.382, 210.310 112.343, 212.342 111.374 C 215.555 109.842, 216.507 109.781, 219.635 110.913 C 222.593 111.982, 223.668 111.981, 225.679 110.904 C 227.770 109.785, 228.088 108.971, 227.863 105.311 C 227.651 101.866, 228.106 100.487, 230.185 98.264 C 238.435 89.448, 237.506 77.371, 228 69.845 C 223.623 66.380, 213.885 63.835, 204.607 63.732 C 199.352 63.674, 196.878 63.177, 195.115 61.827 C 191.632 59.159, 189.508 59.559, 185.411 63.655 M 82.400 80.822 C 79.706 83.074, 78.111 90.505, 78.329 99.787 C 78.514 107.659, 79.333 108.957, 84.128 108.985 C 87.658 109.005, 88.571 107.661, 90.407 99.747 C 92.487 90.777, 92.776 82.640, 91.088 80.606 C 89.344 78.505, 85.044 78.612, 82.400 80.822 M 200.899 79.750 C 200.342 83.870, 203.101 97.081, 204.530 97.137 C 208.939 97.312, 212.970 95.587, 216.750 91.907 C 221.357 87.423, 221.971 85.173, 219.250 82.754 C 216.015 79.879, 201.209 77.455, 200.899 79.750 M 254.500 147.005 C 252.300 147.482, 248.025 148.349, 245 148.931 C 230.548 151.711, 228.989 152.207, 226.038 154.964 C 223.582 157.259, 223 157.471, 223 156.070 C 223 153.890, 218.847 151.591, 216.369 152.399 C 213.355 153.382, 209.878 159.771, 209.313 165.364 C 209.025 168.226, 209.717 176.921, 210.877 185 C 213.428 202.771, 213.685 207.864, 212.172 210.685 C 210.702 213.424, 211.989 217.179, 215.159 219.399 C 220.144 222.890, 230.377 221.182, 253.943 212.924 C 264.950 209.066, 267.408 207.134, 266.509 203.042 C 266.034 200.879, 266.675 198.954, 269.237 194.857 C 273.771 187.602, 274.736 185.168, 276.628 176.199 C 279.780 161.259, 278.224 152.336, 271.805 148.544 C 268.398 146.531, 260.089 145.793, 254.500 147.005 M 181.239 149.024 C 178.896 149.505, 173.159 151.433, 168.489 153.308 C 163.820 155.183, 160 156.363, 160 155.930 C 160 154.341, 156.794 152, 154.618 152 C 151.329 152, 146.450 157.320, 145.005 162.484 C 143.303 168.560, 144.188 185.622, 146.890 198.829 C 148.787 208.104, 148.849 209.377, 147.501 211.302 C 145.342 214.385, 145.642 216.733, 148.570 219.661 C 150.869 221.960, 151.751 222.186, 156.943 221.811 C 161.538 221.478, 165.352 220.101, 175.264 215.195 C 182.149 211.788, 188.192 209, 188.694 209 C 190.047 209, 197.998 200.891, 199.516 197.963 C 201.600 193.943, 204 180.716, 204 173.252 C 204 163.383, 201.707 155.533, 197.775 151.941 C 196.003 150.324, 193.811 149, 192.902 149 C 191.993 149, 189.956 148.808, 188.375 148.574 C 186.794 148.340, 183.583 148.543, 181.239 149.024 M 245.500 165.583 C 233.794 168.349, 230.879 168.506, 227.137 166.571 L 224.374 165.142 226.188 180.321 C 227.186 188.669, 227.726 197.412, 227.388 199.750 C 227.050 202.088, 227.013 204, 227.307 204 C 228.708 204, 245.765 199.829, 247.706 199.012 C 252.162 197.136, 259.660 180.064, 261.437 167.750 L 262.123 163 258.811 163.110 C 256.990 163.171, 251 164.284, 245.500 165.583 M 174.791 167.919 C 170.002 169.483, 164.477 171.063, 162.514 171.431 L 158.945 172.101 159.552 177.301 C 159.886 180.160, 160.573 184.945, 161.079 187.934 C 161.586 190.922, 162 195.960, 162 199.130 L 162 204.892 167.254 203.084 C 170.144 202.090, 175.301 199.867, 178.714 198.144 C 184.142 195.404, 185.050 194.528, 185.959 191.153 C 187.780 184.391, 188.270 178.343, 187.545 171.580 C 186.713 163.807, 187.072 163.910, 174.791 167.919" stroke="none" fill="black" fill-rule="evenodd"/>
</svg>