<svg xmlns="http://www.w3.org/2000/svg" width="300" height="300" viewBox="0 0 300 300" version="1.1">
	<path d="M 184 31.230 C 182.858 32.457, 181.677 34.594, 181.378 35.980 C 180.339 40.787, 180.104 40.999, 175.781 41.066 C 173.427 41.102, 167.534 41.694, 162.686 42.381 C 154.155 43.590, 153.837 43.564, 152.773 41.565 C 150.174 36.684, 146.463 35.814, 143.174 39.314 C 140.017 42.675, 140.359 45.381, 145.531 58 C 146.771 61.025, 148.078 65.582, 148.435 68.127 C 149.164 73.312, 148.465 74, 142.467 74 C 138.660 74, 130.072 75.697, 128.385 76.782 C 126.230 78.169, 125.858 81.715, 127.676 83.533 C 129.196 85.053, 130.801 85.205, 140.166 84.711 C 149.662 84.210, 150.968 84.339, 151.400 85.822 C 152.736 90.411, 154 100.038, 154 105.634 C 154 110.398, 154.393 112.120, 155.637 112.817 C 156.538 113.321, 161.263 113.506, 166.137 113.228 L 175 112.723 175 124.254 C 175 137.133, 175.084 136.987, 167.668 137.017 C 165.376 137.027, 159.450 137.887, 154.500 138.929 C 149.550 139.972, 145.466 140.752, 145.424 140.662 C 143.910 137.444, 140.193 132.518, 138.387 131.334 C 136.219 129.914, 135.777 129.916, 133.576 131.358 C 132.243 132.232, 130.851 133.894, 130.483 135.052 C 129.896 136.902, 133.186 149.714, 136.066 156.797 C 136.580 158.060, 137 160.281, 137 161.731 C 137 167.336, 140.227 176.013, 143.260 178.565 C 146.005 180.875, 146.419 180.955, 148.515 179.582 C 150.603 178.214, 150.833 178.253, 151.302 180.046 C 151.756 181.784, 152.791 182.017, 160.656 182.150 C 165.520 182.232, 168.309 182.483, 166.854 182.706 C 162.940 183.308, 161.439 185.604, 158.993 194.740 C 157.779 199.272, 155.487 204.941, 153.900 207.337 L 151.013 211.695 140.351 212.348 C 134.487 212.706, 125.821 213.011, 121.094 213.024 C 103.355 213.073, 97.826 217.284, 108.011 222.987 C 112.310 225.394, 113.142 225.492, 127.676 225.305 L 142.852 225.111 141.426 228.523 C 139.153 233.962, 139.610 241.050, 142.575 246.355 C 145.197 251.046, 152.679 258.397, 156.750 260.280 C 157.988 260.853, 159 261.855, 159 262.508 C 159 264.115, 148.491 274.036, 143.358 277.275 C 141.080 278.713, 136.805 280.657, 133.858 281.597 C 127.272 283.697, 126 284.640, 126 287.422 C 126 290.740, 127.940 292, 133.051 292 C 141.817 292, 152.162 286.585, 163.089 276.277 L 170.008 269.750 177.614 273.459 C 186.932 278.002, 195.015 279.202, 198.015 276.486 C 200.260 274.455, 200.535 271.885, 198.850 268.684 C 197.267 265.677, 195.883 264.890, 193.258 265.507 C 190.749 266.097, 185.373 264.114, 180.958 260.970 L 178.032 258.887 181.362 252.193 C 184.256 246.377, 189.180 234.583, 192.971 224.389 C 194.068 221.437, 194.472 221.245, 200.814 220.646 C 204.491 220.298, 209.566 220.011, 212.091 220.007 C 217.978 219.998, 234.965 216.461, 239.493 214.302 C 243.238 212.516, 244.513 210.193, 243.501 207.002 C 242.562 204.044, 238.983 203.615, 230.809 205.483 C 226.789 206.402, 217.710 207.414, 210.633 207.733 C 198.308 208.288, 197.790 208.232, 198.331 206.406 C 199.848 201.288, 200.995 191.811, 200.399 189.308 C 198.956 183.239, 194.276 181.080, 191.604 185.250 C 190.811 186.487, 188.696 192.349, 186.904 198.275 C 183.296 210.207, 184.165 209.430, 173.250 210.491 C 166.468 211.151, 166.047 210.781, 168.368 206.200 C 170.433 202.123, 173.160 188.590, 172.355 186.414 C 171.965 185.361, 171.187 184.193, 170.625 183.819 C 169.436 183.025, 171.699 182.463, 182 180.994 C 186.125 180.406, 192.650 178.760, 196.500 177.335 C 200.350 175.910, 204.625 174.790, 206 174.845 C 214.701 175.196, 214.548 175.308, 221.858 163.191 C 227.677 153.547, 229.209 146.467, 226.831 140.210 C 224.577 134.277, 221.841 133.464, 205 133.722 C 197.025 133.845, 189.424 134.206, 188.110 134.526 L 185.720 135.108 186.443 124.304 C 186.841 118.362, 187.307 113.360, 187.478 113.189 C 187.649 113.017, 190.424 112.607, 193.645 112.276 C 199.004 111.726, 199.385 111.815, 198.138 113.325 C 197.318 114.318, 197.028 115.974, 197.407 117.487 C 197.934 119.584, 198.629 120, 201.606 120 C 207.256 120, 214.427 111.930, 221.330 97.805 C 224.368 91.587, 227.327 85.263, 227.905 83.750 C 228.803 81.402, 229.525 81, 232.844 81 C 240.109 81, 244.598 74.661, 240.171 70.655 C 239.165 69.745, 236.958 69, 235.266 69 L 232.189 69 232.649 61.250 C 233.385 48.872, 230.136 45.206, 217.321 43.949 C 213.020 43.527, 205.755 42.616, 201.177 41.925 C 193.783 40.808, 192.909 40.455, 193.351 38.766 C 194.049 36.095, 192.139 31.145, 189.961 29.979 C 187.283 28.546, 186.311 28.750, 184 31.230 M 65.614 49.874 C 64.174 51.465, 64.113 52.640, 65.109 59.592 C 66.469 69.076, 65.608 123.705, 63.787 143.500 C 63.130 150.650, 62.446 155.825, 62.269 155 C 62.092 154.175, 60.721 152.787, 59.223 151.915 C 57.041 150.644, 56.063 148.756, 54.301 142.415 C 50.715 129.505, 49.147 121.161, 48.068 109.230 C 46.795 95.154, 45.386 92.050, 40.250 92.015 C 36.783 91.992, 34.002 95.428, 33.990 99.750 C 33.961 110.568, 38.950 136.779, 43.161 147.936 C 47.713 159.994, 54.826 165.183, 60.171 160.345 C 63.205 157.600, 63.002 160.296, 56.400 210.500 C 55.532 217.100, 53.992 226.775, 52.977 232 C 51.962 237.225, 50.927 242.625, 50.676 244 C 49.546 250.189, 46.175 261.747, 44.909 263.775 C 42.299 267.954, 47.168 271.586, 51.950 269.027 C 58.563 265.487, 66.775 231.562, 70.595 192 C 70.940 188.425, 71.513 184.964, 71.867 184.310 C 72.321 183.473, 74.880 184.288, 80.495 187.060 C 84.886 189.227, 89.201 191, 90.084 191 C 92.885 191, 95.259 187.446, 94.549 184.317 C 93.790 180.978, 84.191 173.694, 78.006 171.763 C 74.025 170.521, 74 170.481, 74 165.465 C 74 162.689, 74.721 155.036, 75.603 148.458 C 78.033 130.338, 78.075 69.044, 75.665 60.043 C 73.207 50.865, 68.775 46.381, 65.614 49.874 M 166.131 55.079 C 162.628 55.533, 159.568 56.098, 159.332 56.335 C 159.095 56.571, 159.720 60.305, 160.720 64.632 L 162.537 72.500 169.636 72.791 L 176.735 73.082 177.447 64.915 C 177.839 60.423, 178.397 56.130, 178.687 55.374 C 179.288 53.806, 176.464 53.740, 166.131 55.079 M 190.654 58.231 C 190.335 60.579, 189.773 64.695, 189.405 67.379 L 188.734 72.258 198.117 71.552 C 203.278 71.164, 209.975 70.544, 213 70.173 L 218.500 69.500 218.798 63.250 C 218.961 59.813, 218.725 57, 218.271 57 C 217.818 57, 213.634 56.557, 208.974 56.017 C 204.313 55.476, 198.415 54.792, 195.866 54.497 L 191.233 53.962 190.654 58.231 M 206 83.192 C 201.875 83.627, 196.137 84.244, 193.250 84.563 L 188 85.144 188 92.703 L 188 100.262 191.750 99.642 C 193.813 99.301, 198.200 99.014, 201.500 99.003 C 207.042 98.986, 207.602 98.775, 208.834 96.242 C 210.445 92.934, 214.107 82.727, 213.753 82.536 C 213.614 82.462, 210.125 82.757, 206 83.192 M 165.113 90.750 C 165.508 93.912, 165.869 97.537, 165.916 98.805 C 165.993 100.921, 166.389 101.085, 170.750 100.805 L 175.500 100.500 175.792 92.750 L 176.084 85 170.239 85 L 164.395 85 165.113 90.750 M 88.241 90.986 C 86.658 93.520, 86.648 98.501, 88.220 101.316 C 88.902 102.538, 89.533 107.906, 89.653 113.500 C 89.770 119, 89.896 123.807, 89.933 124.183 C 89.970 124.558, 90.938 125.163, 92.085 125.527 C 94.930 126.430, 98.729 122.720, 100.074 117.725 C 101.340 113.024, 99.699 97.253, 97.502 93.005 C 95.236 88.623, 90.378 87.564, 88.241 90.986 M 190.250 146.737 L 185 147.105 185 157.947 L 185 168.789 188.250 168.026 C 190.037 167.607, 194.119 166.488, 197.319 165.541 C 200.520 164.593, 204.157 164.073, 205.401 164.386 C 207.364 164.878, 207.961 164.260, 209.898 159.727 C 211.126 156.852, 212.776 153.022, 213.565 151.216 C 214.354 149.410, 215 147.497, 215 146.966 C 215 146.040, 201.942 145.919, 190.250 146.737 M 157 150.798 C 152.875 151.666, 149.321 152.508, 149.102 152.669 C 148.688 152.974, 150.858 170.460, 151.611 172.886 C 151.954 173.989, 152.455 173.898, 154.064 172.442 C 155.611 171.042, 158.192 170.511, 165.043 170.184 L 174 169.755 174 162.503 C 174 158.514, 174.281 153.844, 174.625 152.125 L 175.250 149 169.875 149.110 C 166.919 149.171, 161.125 149.930, 157 150.798 M 249.052 154.637 C 246.206 159.460, 246.691 161.421, 250.829 161.819 C 257.392 162.450, 261.859 155.891, 257.250 152.392 C 254.091 149.994, 251.348 150.745, 249.052 154.637 M 168.475 223.359 L 157.450 224.239 154.725 229.120 C 151.069 235.669, 151.248 238.047, 155.750 242.746 C 159.638 246.804, 165.182 251, 166.655 251 C 167.791 251, 180.797 223.293, 179.920 222.742 C 179.689 222.598, 174.539 222.875, 168.475 223.359" stroke="none" fill="black" fill-rule="evenodd"/>
</svg>