<svg xmlns="http://www.w3.org/2000/svg" width="300" height="300" viewBox="0 0 300 300" version="1.1">
	<path d="M 191.825 10.038 C 190.904 10.576, 189.623 12.613, 188.979 14.565 C 187.626 18.664, 189.083 24.260, 194.084 34.167 C 195.688 37.344, 197 40.756, 197 41.749 C 197 44.692, 199.920 48, 202.518 48 C 205.624 48, 208.670 44.692, 209.267 40.671 C 209.554 38.732, 208.623 34.112, 206.869 28.779 C 205.291 23.982, 204 18.270, 204 16.086 C 204 13.114, 203.440 11.721, 201.777 10.557 C 199.287 8.813, 194.365 8.556, 191.825 10.038 M 83.633 46.200 C 81.905 48.082, 81.815 49.508, 82.423 65.367 C 83.453 92.275, 81.023 117.897, 74.411 149.813 L 73.725 153.125 70.421 149.622 C 65.140 144.024, 61.003 127.077, 60.998 111.026 C 60.995 100.320, 55.788 95.233, 49.719 100.006 C 44.897 103.800, 44.530 107.710, 47.472 124 C 50.967 143.351, 52.867 149.500, 56.795 154.169 C 61.403 159.645, 68.521 161.648, 72.044 158.460 C 74.021 156.671, 74.107 155.996, 69.612 177.500 C 62.840 209.894, 58.382 228.563, 49.614 261.243 C 48.176 266.602, 47 271.727, 47 272.633 C 47 276.944, 56.004 278.729, 58.090 274.831 C 61.784 267.930, 71.346 236.858, 75.118 219.500 C 75.716 216.750, 77.077 210.450, 78.143 205.500 C 79.209 200.550, 80.277 195.931, 80.515 195.235 C 80.794 194.421, 83.878 196.142, 89.176 200.071 C 99.612 207.808, 105.917 211, 110.767 211 C 115.478 211, 117 209.597, 117 205.255 C 117 201.801, 113.385 197, 110.785 197 C 110.067 197, 108.344 195.988, 106.956 194.750 C 98.056 186.813, 91.561 183.147, 86.219 183.044 C 84.964 183.020, 83.688 182.350, 83.383 181.556 C 83.078 180.761, 84.425 172.549, 86.377 163.306 C 90.427 144.121, 94.319 118.474, 96.060 99.500 C 97.359 85.349, 96.716 58.084, 94.933 51.685 C 92.932 44.504, 87.577 41.905, 83.633 46.200 M 199 53.697 C 197.075 53.904, 189.650 54.928, 182.500 55.973 C 175.350 57.018, 164.325 58.191, 158 58.580 C 149.939 59.076, 145.837 59.768, 144.281 60.894 C 141.258 63.083, 141.274 67.969, 144.314 70.826 C 146.341 72.729, 147.741 72.996, 155.564 72.967 C 160.479 72.950, 169.450 72.265, 175.500 71.445 C 181.550 70.626, 192.800 69.556, 200.500 69.068 C 222.938 67.646, 239.288 65.785, 242.250 64.314 C 246.018 62.443, 246.322 58.322, 242.943 54.943 C 241.141 53.141, 239.599 53.012, 221.750 53.160 C 211.162 53.248, 200.925 53.490, 199 53.697 M 156.475 84.325 C 152.299 88.501, 152.192 90.276, 155.528 100.075 C 156.918 104.159, 158.544 110.650, 159.142 114.500 C 160.386 122.517, 163.380 129.598, 166.153 131.082 C 167.200 131.642, 167.776 132.553, 167.434 133.107 C 166.088 135.284, 168.041 138.820, 171.244 140.006 C 173.167 140.718, 182.417 141.405, 193.836 141.683 C 210.607 142.092, 213.407 141.942, 214.943 140.552 C 217.009 138.682, 216.617 134.827, 214.145 132.712 C 210.917 129.950, 202.764 128.643, 188.302 128.571 L 173.951 128.500 174.533 125.850 C 174.853 124.392, 174.414 119.505, 173.557 114.990 C 172.701 110.474, 172 106.186, 172 105.461 C 172 102.885, 182.915 99.814, 194.041 99.261 C 204.993 98.716, 216 100.680, 216 103.179 C 216 103.797, 213.030 107.272, 209.400 110.901 C 201.983 118.316, 200.609 120.841, 202 124.500 C 203.665 128.878, 208.719 127.943, 217.806 121.576 C 231.188 112.198, 234.197 102.044, 226.384 92.626 C 223.773 89.479, 222.071 88.559, 215.884 86.952 C 203.996 83.865, 183.105 84.562, 171.908 88.420 C 168.411 89.624, 167.996 89.594, 167.967 88.133 C 167.921 85.889, 164.851 82.405, 162.169 81.554 C 160.444 81.006, 159.178 81.622, 156.475 84.325 M 107.277 85.420 C 102.669 89.298, 101.597 94.757, 102.284 110.837 C 102.858 124.250, 103.936 129.703, 106.313 131.214 C 108.411 132.548, 111.948 132.052, 113.842 130.158 C 115.411 128.589, 115.771 126.051, 116.271 113.048 C 116.799 99.320, 117.067 97.587, 118.929 95.852 C 121.598 93.365, 121.545 91.107, 118.718 86.898 C 115.710 82.419, 111.492 81.874, 107.277 85.420 M 165.125 154.665 C 159.337 157.126, 158.587 163.151, 163.645 166.547 C 166.267 168.308, 169.344 168.842, 182.145 169.759 C 199.293 170.988, 201.653 171.490, 199.656 173.487 C 198.945 174.198, 197.234 176.122, 195.853 177.763 C 194.472 179.404, 192.327 181.290, 191.087 181.954 C 189.846 182.618, 188.171 184.740, 187.365 186.669 C 185.727 190.590, 186.650 199.230, 190.104 212.300 C 191.445 217.377, 191.596 219.193, 190.700 219.466 C 189.311 219.888, 163.132 223.568, 155 224.484 C 140.225 226.148, 126.884 230, 124.865 233.184 C 123.050 236.046, 123.919 240.901, 126.555 242.628 C 128.921 244.178, 129.678 244.185, 136.805 242.718 C 148.599 240.291, 184.191 234.863, 189.577 234.671 L 194.368 234.500 195.270 238.500 C 195.767 240.700, 195.960 247.937, 195.699 254.581 C 195.184 267.720, 193.714 272.398, 189.607 273.959 C 179.496 277.803, 184.238 287.898, 194.817 285.049 C 200.762 283.449, 205.499 278.888, 208.174 272.190 C 210.213 267.084, 210.449 264.791, 210.473 249.848 L 210.500 233.196 214.500 232.614 C 216.700 232.294, 227.725 231.740, 239 231.383 C 261.330 230.677, 263 230.229, 263 224.956 C 263 223.452, 262.140 221.159, 261.088 219.861 L 259.177 217.500 232.545 217.500 C 206.708 217.500, 205.901 217.440, 205.527 215.500 C 205.315 214.400, 203.985 208.775, 202.571 203 L 200.001 192.500 206.870 186 C 215.010 178.297, 218 174.145, 218 170.546 C 218 166.999, 215.647 162.654, 212.669 160.703 C 209.417 158.572, 196.784 156.253, 184.500 155.532 C 179 155.209, 172.700 154.750, 170.500 154.512 C 168.300 154.275, 165.881 154.344, 165.125 154.665" stroke="none" fill="black" fill-rule="evenodd"/>
</svg>