<svg xmlns="http://www.w3.org/2000/svg" width="300" height="300" viewBox="0 0 300 300" version="1.1">
	<path d="M 172.241 27.225 C 171.665 27.926, 169.304 32.100, 166.994 36.500 C 164.683 40.900, 162.466 44.725, 162.066 45 C 161.667 45.275, 160.703 46.962, 159.926 48.750 C 158.732 51.494, 157.966 52.014, 155.006 52.092 C 153.078 52.142, 145.489 52.490, 138.142 52.866 C 125.769 53.498, 124.645 53.720, 122.892 55.885 C 118.508 61.300, 121.922 66.384, 129.720 66.050 C 139.459 65.634, 150.997 65.510, 150.998 65.822 C 151.001 66.280, 146.123 74.850, 143.497 79 C 128.012 103.478, 122.442 110.380, 92.189 142.584 C 91.468 143.351, 90.614 145.604, 90.292 147.590 C 89.616 151.756, 90.810 152.961, 95.637 152.985 C 98.339 152.998, 100.312 151.400, 109.856 141.473 C 131.026 119.451, 142.823 104.243, 155.601 82.500 C 157.217 79.750, 159.099 76.600, 159.782 75.500 C 160.466 74.400, 161.882 71.637, 162.930 69.360 C 163.977 67.083, 165.237 64.972, 165.729 64.667 C 166.846 63.977, 184.911 60.398, 191.083 59.644 C 194.300 59.251, 195.675 59.444, 195.694 60.292 C 195.725 61.695, 200.789 69.295, 207.264 77.655 C 212.150 83.963, 227.916 99.590, 234.653 104.802 C 240.324 109.188, 251.240 114.160, 256.504 114.753 C 260.201 115.170, 261.232 114.859, 263.424 112.667 C 268.010 108.081, 265.884 103, 259.379 103 C 253.131 103, 242.149 95.929, 230.337 84.302 C 221 75.110, 216.960 70.523, 212.885 64.485 C 211.240 62.047, 209.468 59.789, 208.947 59.467 C 206.452 57.925, 208.614 56.998, 214.750 56.978 C 223.823 56.949, 229.558 54.395, 230.827 49.820 C 232.496 43.806, 227.701 39.995, 222.793 43.432 C 221.084 44.630, 217.905 45, 209.343 45 C 202.877 45, 195.034 45.669, 190.815 46.580 C 186.792 47.449, 181.164 48.495, 178.310 48.905 L 173.120 49.649 174.496 46.354 C 175.254 44.542, 176.174 40.009, 176.541 36.279 C 177.129 30.313, 176.974 29.286, 175.248 27.724 C 173.685 26.310, 173.074 26.209, 172.241 27.225 M 61.872 58.653 C 60.824 59.916, 60.331 66.821, 59.784 87.903 C 58.763 127.286, 54.455 167.310, 47.020 206.500 C 44.766 218.382, 42.313 232.037, 41.497 237.250 C 41.174 239.312, 39.775 242.134, 38.388 243.521 C 35.262 246.648, 35.564 250.034, 39.121 251.733 C 45.159 254.618, 51.723 248.091, 53.492 237.445 C 53.852 235.275, 54.752 230.350, 55.491 226.500 C 57.037 218.449, 59.174 206.728, 61.644 192.750 C 63.181 184.051, 63.594 183, 65.471 183 C 66.629 183, 70.027 185.301, 73.023 188.114 C 80.712 195.333, 85.954 196.919, 89.429 193.078 C 91.058 191.279, 91.063 190.936, 89.517 187.678 C 88.610 185.765, 84.791 181.230, 81.031 177.600 C 73.588 170.415, 69.720 169.194, 65.659 172.750 C 63.849 174.335, 63.718 174.342, 64.271 172.824 C 64.606 171.903, 65.365 166.728, 65.957 161.324 C 66.549 155.921, 67.762 144.975, 68.651 137 C 69.623 128.291, 70.459 110.073, 70.746 91.385 L 71.223 60.270 68.889 58.635 C 65.917 56.553, 63.611 56.559, 61.872 58.653 M 183.662 91.743 C 181.369 92.289, 177.398 100.629, 175.803 108.250 C 174.810 112.995, 174.242 113.998, 172.550 113.990 C 171.422 113.985, 165.668 114.746, 159.763 115.682 C 150.836 117.097, 148.525 117.841, 146.056 120.096 C 142.506 123.338, 141.241 127.380, 143.082 129.598 C 144.503 131.311, 144.059 131.335, 164.302 128.452 C 170.794 127.528, 176.419 127.085, 176.802 127.469 C 177.186 127.852, 177.543 133.009, 177.595 138.927 C 177.647 144.845, 177.979 150.157, 178.333 150.730 C 179.319 152.325, 175.912 152.884, 158 154.066 C 148.925 154.665, 140.375 155.686, 139 156.334 C 137.231 157.169, 136.409 158.456, 136.188 160.734 C 135.925 163.453, 136.392 164.277, 139.188 166.030 C 142.003 167.795, 143.550 168.025, 149.500 167.562 C 166.277 166.257, 178 165.794, 178 166.437 C 178 166.819, 177.474 168.114, 176.830 169.316 C 176.187 170.517, 174.949 174.853, 174.080 178.951 L 172.500 186.402 166.500 187.827 C 163.200 188.611, 158.250 189.855, 155.500 190.593 C 152.750 191.330, 147.575 192.636, 144 193.493 C 140.425 194.351, 136.938 195.802, 136.250 196.718 C 133.404 200.507, 135.626 205.014, 140.987 206.327 C 143.496 206.942, 151.945 205.314, 164.108 201.871 C 174.015 199.066, 173.611 198.814, 174.346 208.250 C 175.448 222.414, 175.133 240.443, 173.750 242.267 C 172.234 244.267, 155.052 245.974, 136.277 245.990 C 125.708 245.999, 123.436 246.300, 119.491 248.216 C 115.002 250.398, 113.141 253.320, 114.308 256.360 C 115.516 259.509, 139.488 259.533, 185.909 256.431 C 210.535 254.785, 274.111 254.504, 282.030 256.006 C 288.586 257.249, 292 255.580, 292 251.132 C 292 246.505, 287.890 244.102, 276.231 241.911 C 270.022 240.744, 231.807 241.095, 198.828 242.622 L 185.155 243.256 186.183 238.878 C 186.822 236.158, 186.976 227.243, 186.590 215.334 L 185.969 196.167 192.932 194.584 C 196.762 193.713, 200.611 193, 201.487 193 C 203.999 193, 210.689 189.253, 211.377 187.461 C 212.233 185.229, 212.271 185.331, 209.750 182.969 C 207.749 181.094, 206.725 180.928, 200.500 181.472 C 196.650 181.808, 191.845 182.323, 189.823 182.617 L 186.145 183.151 187.537 177.326 C 188.302 174.122, 188.945 169.865, 188.964 167.867 C 189.002 164.017, 190.416 163.044, 196.012 163.014 C 199.114 162.997, 213.811 158.402, 215.653 156.873 C 217.069 155.698, 217.419 152.254, 216.393 149.582 C 215.629 147.592, 210.800 147.564, 202 149.500 C 198.425 150.286, 193.352 150.946, 190.727 150.965 L 185.954 151 187.584 148.512 C 188.714 146.787, 189.379 142.802, 189.751 135.512 L 190.287 125 197.494 125 C 201.458 125, 206.121 124.505, 207.857 123.900 C 211.804 122.524, 213.028 118.794, 210.464 115.960 C 208.931 114.266, 207.353 114, 198.845 114 L 189 114 188.830 108.750 C 188.737 105.862, 188.766 101.673, 188.894 99.439 C 189.162 94.774, 186.622 91.039, 183.662 91.743 M 83.231 99.250 C 81.131 101.840, 79 110.284, 79 116.016 C 79 121.549, 79.176 122.006, 81.540 122.599 C 84.982 123.463, 87.506 121.005, 89.575 114.773 C 91.465 109.085, 91.083 100.300, 88.887 98.909 C 86.898 97.650, 84.407 97.800, 83.231 99.250 M 28.533 102.352 C 26.945 103.514, 26.768 104.610, 27.281 110.107 C 27.850 116.196, 31.664 132.483, 34.281 140 C 37.299 148.667, 45.506 156.528, 49.294 154.380 C 53.037 152.257, 53.875 150.819, 52.774 148.404 C 52.172 147.082, 51.113 146, 50.422 146 C 49.315 146, 48.132 143.412, 44.934 134 C 43.844 130.790, 40.414 115.761, 39.522 110.279 C 38.263 102.553, 33.227 98.920, 28.533 102.352" stroke="none" fill="black" fill-rule="evenodd"/>
</svg>