<svg xmlns="http://www.w3.org/2000/svg" width="300" height="300" viewBox="0 0 300 300" version="1.1">
	<path d="M 255.327 30.321 C 249.727 34.920, 243.823 36.650, 212.401 42.903 C 197.681 45.832, 193.011 47.743, 190.891 51.704 C 189.783 53.774, 189.902 54.346, 191.840 56.285 C 193.627 58.071, 195.198 58.500, 199.957 58.500 C 205.107 58.500, 205.694 58.691, 204.571 60 C 201.639 63.418, 195.942 74.392, 194.469 79.458 C 191.067 91.161, 196.772 99, 208.692 99 C 211.999 99, 211.899 99.270, 198.807 125.500 C 190.107 142.929, 187.811 148.402, 187.753 151.842 C 187.673 156.624, 188.866 157.960, 193.236 157.985 C 196.216 158.001, 196.875 157.157, 205.287 142.555 C 209.695 134.902, 209.886 134.718, 210.477 137.555 C 212.832 148.858, 215.121 152.732, 222.235 157.456 C 229.779 162.464, 241.185 165.385, 252.716 165.261 C 267.256 165.104, 277.173 161.433, 280.515 154.971 C 283.216 149.748, 282.233 146.292, 277.027 142.704 C 272.304 139.448, 267 141.469, 267 146.524 C 267 149.610, 262.358 150.987, 251.932 150.994 C 239.288 151.004, 228.588 146.840, 225.472 140.698 C 222.967 135.758, 222.395 124.145, 224.361 118.135 C 226.315 112.160, 226.440 109.313, 224.771 108.757 C 222.642 108.047, 226.124 98.751, 229.046 97.341 C 230.396 96.689, 234.635 94.695, 238.467 92.908 C 242.592 90.986, 247.385 87.710, 250.217 84.878 C 254.270 80.825, 255 79.508, 255 76.248 C 255 69.220, 250.481 67.924, 244.766 73.314 C 241.274 76.608, 234.931 80.264, 234.119 79.453 C 233.886 79.219, 234.483 75.682, 235.446 71.593 C 237.057 64.749, 237.073 63.735, 235.638 58.839 C 234.780 55.914, 234.398 53.223, 234.789 52.857 C 235.180 52.492, 239.325 50.999, 244 49.539 C 258.068 45.146, 264.040 40.584, 263.968 34.285 C 263.931 30.989, 261.908 28, 259.716 28 C 258.857 28, 256.881 29.045, 255.327 30.321 M 155 42.573 C 147.774 43.915, 141.099 44.818, 119.391 47.388 C 105.705 49.009, 101.519 51.975, 103.939 58.340 C 105.242 61.768, 108.255 62.419, 119.041 61.604 L 127.868 60.938 123.987 67.719 C 116.077 81.539, 111.228 91.614, 110.557 95.623 C 109.145 104.059, 114.507 110.325, 124.250 111.624 C 126.862 111.973, 129 112.462, 129 112.712 C 129 114.049, 112.400 145.030, 110.092 148 C 106.085 153.157, 105.877 153.664, 106.596 156.527 C 107.457 159.957, 111.379 161.500, 115.208 159.914 C 117.751 158.860, 122.032 153.150, 130.494 139.524 C 132.794 135.820, 140 121.477, 140 120.603 C 140 120.248, 141.439 117.006, 143.198 113.399 C 146.227 107.186, 146.738 106.685, 152.879 103.901 C 160.151 100.604, 165.461 96.876, 167.011 93.980 C 169.711 88.935, 163.540 83.132, 158.756 86.217 C 157.515 87.017, 155.543 87.914, 154.374 88.210 C 152.285 88.739, 152.271 88.658, 153.612 83.624 C 155.683 75.846, 155.409 65.233, 153.022 60.780 C 151.935 58.751, 151.405 56.868, 151.845 56.596 C 152.286 56.323, 155.313 55.658, 158.573 55.117 C 167.426 53.647, 172.323 51.625, 173.941 48.771 C 175.219 46.516, 175.189 45.937, 173.667 43.615 C 172.201 41.377, 171.272 41.013, 167.227 41.090 C 164.627 41.140, 159.125 41.807, 155 42.573 M 220.309 56.250 C 218.208 59.498, 217.239 61.209, 213.728 67.875 C 211.654 71.814, 209.064 77.301, 207.973 80.069 L 205.990 85.100 211.661 84.800 L 217.332 84.500 221.666 71.529 C 224.050 64.395, 226 57.758, 226 56.779 C 226 54.680, 221.591 54.270, 220.309 56.250 M 44.208 58.829 C 42.300 60.071, 41.751 68.816, 41.966 94.500 C 42.138 115.121, 41.091 143.132, 39.366 164 L 38.746 171.500 35.370 171.679 C 27.712 172.085, 22.874 159.216, 22.488 137.414 C 22.162 118.993, 21.534 117.049, 15.905 117.015 C 9.921 116.980, 8.784 122.017, 9.928 143.500 C 10.801 159.917, 12.611 166.719, 17.864 173.328 C 24.286 181.410, 28.637 183.507, 35.250 181.709 L 38 180.962 38 188.020 C 38 205.659, 31.725 244.045, 25.805 262.624 C 23.548 269.706, 21.657 277.300, 21.601 279.500 C 21.506 283.254, 21.688 283.518, 24.553 283.799 C 27.875 284.124, 33 280.882, 33 278.456 C 33 277.687, 34.134 274.493, 35.520 271.358 C 37.838 266.118, 42.198 252.223, 45.613 239.195 C 46.811 234.625, 49.992 208.893, 49.998 203.727 C 50 202.037, 50.129 202.035, 52.750 203.697 C 54.263 204.656, 58.375 207.588, 61.890 210.213 C 68.391 215.069, 77.527 218.779, 80.334 217.702 C 82.833 216.743, 85.238 212.324, 84.509 210.028 C 84.144 208.879, 81.551 206.802, 78.676 205.356 C 75.829 203.925, 71.442 201.254, 68.927 199.422 C 64.870 196.465, 62.504 195.547, 53.125 193.291 C 50.825 192.737, 50.769 192.493, 51.365 185.609 C 54.446 149.996, 55.172 132.693, 54.704 106 C 54.213 77.970, 53.080 65.942, 50.465 61 C 49.070 58.361, 46.367 57.424, 44.208 58.829 M 142 59.127 C 142 60.645, 132.275 79.709, 129.779 83.085 C 127.035 86.797, 123.937 96.427, 125.385 96.743 C 125.998 96.877, 128.750 96.400, 131.500 95.683 C 136.234 94.449, 136.565 94.143, 137.712 89.940 C 138.379 87.498, 139.815 82.456, 140.903 78.735 C 143.411 70.161, 144.716 58, 143.129 58 C 142.508 58, 142 58.507, 142 59.127 M 148.189 110.039 C 146.985 111.160, 145.973 112.173, 145.939 112.289 C 145.906 112.405, 145.253 117, 144.488 122.500 C 140.890 148.365, 144.011 162.786, 153.595 164.584 C 159.462 165.684, 163.515 163.370, 174.540 152.621 C 185.789 141.655, 186.881 139.396, 182.961 135.189 C 180.272 132.302, 177.884 132.425, 174.924 135.603 C 169.662 141.252, 157.725 150.125, 156.728 149.128 C 155.771 148.171, 156.293 129.784, 157.635 117.190 C 158.084 112.977, 157.838 111.479, 156.446 109.940 C 154.177 107.433, 150.944 107.472, 148.189 110.039 M 64.241 118.986 C 62.456 121.844, 62.709 125.509, 65 130 C 66.100 132.156, 67 134.603, 67 135.437 C 67 136.271, 68.145 137.704, 69.545 138.622 C 71.698 140.032, 72.462 140.091, 74.497 139.001 C 75.821 138.293, 77.176 136.477, 77.508 134.965 C 78.295 131.382, 75.319 119.967, 73.172 118.335 C 70.552 116.343, 65.669 116.699, 64.241 118.986 M 194.500 172.001 C 188.680 174.179, 165.384 180.213, 156.120 181.941 C 149.742 183.132, 144.703 185.892, 143.412 188.902 C 143.035 189.781, 142.676 207.915, 142.613 229.199 C 142.527 258.700, 142.203 268.196, 141.250 269.149 C 139.733 270.667, 139.629 274.438, 141.031 277.057 C 141.597 278.116, 143.932 279.887, 146.218 280.991 C 151.600 283.592, 159.213 283.590, 172.908 280.986 C 189.341 277.860, 200.063 277.040, 202.649 278.710 C 203.831 279.473, 206.634 280.171, 208.877 280.261 C 218.114 280.629, 221.501 273.630, 223.036 251 C 225.073 220.981, 221.036 181.308, 215.367 175.640 C 209.641 169.913, 203.118 168.776, 194.500 172.001 M 193.500 186.976 C 189.100 188.510, 179.200 191.216, 171.500 192.987 C 163.800 194.758, 156.938 196.372, 156.250 196.572 C 155.408 196.818, 155.003 199.148, 155.009 203.719 C 155.021 212.967, 156.079 221.069, 157.186 220.385 C 157.689 220.074, 161.790 219.433, 166.300 218.959 C 180.164 217.503, 187.221 216.264, 194.216 214.058 C 202.492 211.449, 205 212.381, 205 218.066 C 205 222.584, 202.639 224.773, 194 228.267 C 184.794 231.989, 180.976 232.777, 168.384 233.554 L 157.269 234.240 156.634 243.120 C 156.285 248.004, 155.711 256.045, 155.357 260.988 L 154.715 269.977 159.607 268.592 C 168.618 266.040, 195.251 263.530, 201.429 264.650 L 206.974 265.655 207.615 262.237 C 208.563 257.188, 207.304 204.773, 206.016 195.596 C 204.925 187.833, 203.629 183.910, 202.215 184.092 C 201.822 184.143, 197.900 185.441, 193.500 186.976" stroke="none" fill="black" fill-rule="evenodd"/>
</svg>