<svg xmlns="http://www.w3.org/2000/svg" width="300" height="300" viewBox="0 0 300 300" version="1.1">
	<path d="M 169.750 11.080 C 166.096 13.208, 165.003 17.429, 164.926 29.700 C 164.885 36.190, 164.548 43.525, 164.176 46 L 163.500 50.500 149 51.209 C 129.262 52.174, 111.842 56.673, 110.683 61.105 C 109.238 66.630, 118.076 68.812, 134.856 67.073 C 140.552 66.483, 149.214 66, 154.106 66 L 163 66 163 71.826 C 163 79.229, 164.857 98.487, 165.981 102.750 L 166.839 106 149.628 106 C 133.264 106, 111.801 107.985, 106.542 109.984 C 102.029 111.700, 102.044 117.788, 106.566 119.848 C 108.359 120.665, 122.670 120.997, 155.797 120.990 C 232.600 120.974, 253.732 118.407, 258.422 108.524 C 260.380 104.398, 260.015 102.570, 256.471 98.750 C 253.294 95.327, 251.614 95.295, 248.314 98.595 C 246.389 100.520, 244.139 101.408, 239.609 102.031 C 232.858 102.959, 203.956 104.809, 188.750 105.287 L 179 105.592 179 85.436 L 179 65.279 184.250 64.648 C 187.137 64.301, 193.887 64.013, 199.250 64.009 L 209 64 209 66.840 C 209 71.487, 205.206 84.902, 203.026 87.964 C 200.528 91.471, 200.484 93.141, 202.810 96.014 C 205.143 98.895, 209.407 98.905, 212.460 96.038 C 217.296 91.494, 222.572 79.031, 224.487 67.626 L 225.137 63.753 234.221 64.463 C 239.218 64.854, 244.069 65.651, 245.002 66.233 C 249.442 69.006, 255.736 63.627, 254.521 58.097 C 253.504 53.465, 247.075 50.830, 235.287 50.213 L 225.807 49.717 226.374 46.881 C 226.686 45.320, 227.247 38.634, 227.621 32.022 C 228.117 23.234, 227.991 20, 227.150 20 C 226.518 20, 226 19.401, 226 18.669 C 226 16.587, 221.578 14.714, 218.341 15.425 C 213.985 16.382, 212.401 21.228, 211.641 35.917 C 211.288 42.747, 210.844 48.489, 210.656 48.678 C 210.467 48.867, 203.293 49.311, 194.714 49.665 L 179.115 50.308 179.707 32.304 C 180.283 14.817, 180.238 14.238, 178.150 12.150 C 175.847 9.847, 172.581 9.431, 169.750 11.080 M 56.471 25.397 C 54.608 26.760, 54.603 27.053, 56.290 37.147 C 59.595 56.930, 60.294 67.816, 59.585 88.500 C 58.898 108.517, 56.803 133.530, 55.722 134.611 C 55.077 135.256, 49.232 127.592, 48.011 124.500 C 47.577 123.400, 46.104 120.025, 44.739 117 C 41.775 110.433, 36.375 95.596, 35.559 91.780 C 34.888 88.646, 30.297 84, 27.871 84 C 26.964 84, 25.159 84.860, 23.861 85.911 C 20.080 88.971, 20.601 97.034, 25.384 109.500 C 30.957 124.027, 34.097 130.756, 37.621 135.728 C 41.352 140.991, 43.984 142.957, 50.057 145.017 L 54.614 146.562 52.803 158.531 C 51.808 165.114, 50.565 173.984, 50.041 178.241 C 48.397 191.614, 43.003 211.720, 30.310 251.785 C 25.682 266.394, 24.233 269.764, 20.955 273.552 C 16.612 278.570, 16.670 281.339, 21.174 283.904 C 24.269 285.667, 27.868 284.823, 31.967 281.375 C 35.771 278.173, 38.105 273.716, 43.147 260.022 C 45.278 254.235, 47.383 248.825, 47.824 248 C 49 245.802, 56.456 219.561, 60.262 204.229 L 63.555 190.959 67.028 193.588 C 72.149 197.466, 78.022 199.953, 82.115 199.978 C 86.513 200.005, 91 196.774, 91 193.580 C 91 191.367, 88.023 187, 86.514 187 C 86.100 187, 83.003 185.313, 79.631 183.250 C 76.259 181.188, 71.780 178.720, 69.677 177.767 C 66.864 176.491, 65.986 175.566, 66.353 174.266 C 68.256 167.521, 72.498 129.920, 74.078 105.782 C 75.637 81.972, 74.832 51.520, 72.432 43.500 C 70.391 36.680, 67.168 31.074, 62.877 26.880 C 59.506 23.585, 59.084 23.487, 56.471 25.397 M 85.235 70.996 C 82.730 73.330, 82.222 75.983, 81.694 89.500 C 81.394 97.196, 80.824 100.388, 79.222 103.354 C 76.752 107.927, 77.423 110.872, 81.378 112.818 C 83.691 113.956, 84.568 113.888, 87.779 112.318 C 97.435 107.600, 101.795 80.852, 94.351 72.005 C 91.410 68.511, 88.275 68.164, 85.235 70.996 M 206.500 148.628 C 201.702 149.351, 189.322 151.971, 178.364 154.584 C 172.789 155.913, 167.365 157, 166.310 157 C 165.255 157, 162.843 158.598, 160.949 160.552 C 158.685 162.889, 156.872 163.938, 155.653 163.619 C 152.851 162.887, 149.272 164.930, 148.007 167.984 C 146.427 171.798, 146.401 175.677, 147.860 190 C 148.682 198.073, 149.065 215.074, 148.941 238 C 148.836 257.525, 148.814 274.175, 148.892 275 C 148.970 275.825, 148.752 277.948, 148.408 279.718 C 147.555 284.107, 152.207 289, 157.235 289 C 163.444 289, 209.513 280.519, 220.105 277.426 C 221.470 277.027, 221.638 277.708, 221.229 281.973 C 220.684 287.637, 221.711 289.520, 225.763 290.295 C 231.555 291.402, 235.921 286.980, 238.616 277.276 C 239.995 272.310, 240.197 264.908, 240.058 224.500 C 239.880 173.026, 239.378 167.380, 234.234 159.061 C 229.861 151.987, 224.798 148.992, 216.462 148.548 C 212.633 148.344, 208.150 148.380, 206.500 148.628 M 203 164.699 C 201.625 164.933, 193.935 166.672, 185.910 168.563 C 177.886 170.453, 169.010 172, 166.185 172 C 161.136 172, 161.058 172.046, 161.521 174.750 C 162.369 179.699, 163.993 200.369, 163.997 206.250 L 164 212 170.250 211.980 C 173.688 211.970, 182.350 211.299, 189.500 210.490 C 196.650 209.682, 206.833 209.015, 212.129 209.010 L 221.758 209 222.456 193.750 C 223.226 176.937, 222.296 170.009, 218.766 166.250 C 217.023 164.396, 215.671 164.024, 211.076 164.136 C 208.009 164.211, 204.375 164.464, 203 164.699 M 191.500 227.561 C 183.800 228.262, 174.512 228.873, 170.860 228.918 L 164.220 229 163.486 249.543 C 163.083 260.842, 162.990 270.323, 163.280 270.613 C 163.570 270.903, 172.589 269.534, 183.322 267.570 C 194.055 265.607, 204.082 264, 205.605 264 C 208.816 264, 221.144 261.101, 222.252 260.086 C 222.665 259.707, 222.711 252.640, 222.354 244.382 L 221.704 229.366 218.771 227.683 C 215.388 225.742, 211.640 225.725, 191.500 227.561" stroke="none" fill="black" fill-rule="evenodd"/>
</svg>