<svg xmlns="http://www.w3.org/2000/svg" width="300" height="300" viewBox="0 0 300 300" version="1.1">
	<path d="M 187.295 29.250 C 185.876 31.117, 183.179 39.017, 182.601 43 C 182.322 44.925, 181.846 48.075, 181.544 50 L 180.994 53.500 163.125 53.657 C 146.218 53.805, 145.062 53.940, 141.641 56.157 C 137.393 58.909, 136.972 61.685, 140.324 64.835 C 142.601 66.974, 143.033 67.004, 161.824 66.351 L 181 65.684 181 74.275 C 181 81.607, 180.744 82.935, 179.250 83.344 C 177.336 83.868, 168.749 85.270, 156.884 86.995 C 152.696 87.604, 146.606 88.908, 143.352 89.893 C 138.010 91.511, 137.128 91.539, 134.276 90.189 C 131.426 88.839, 130.868 88.857, 128.559 90.369 C 125.178 92.585, 125.140 98.095, 128.431 108.681 C 131.954 120.011, 134.974 131.131, 136.456 138.222 C 136.768 139.720, 137.962 141.818, 139.108 142.886 L 141.192 144.827 138.866 146.071 C 133.597 148.892, 132.511 152.133, 136.179 154.096 C 139.233 155.730, 150.312 154.672, 162.705 151.561 C 168.318 150.153, 174.055 149, 175.455 149 C 177.887 149, 178 149.256, 177.999 154.750 C 177.998 157.912, 177.560 171.075, 177.026 184 C 176.491 196.925, 175.853 223.250, 175.608 242.500 C 175.363 261.750, 174.828 278.400, 174.419 279.500 C 174.009 280.600, 172.792 282.773, 171.713 284.329 C 169.151 288.023, 170.611 292, 174.528 292 C 179.319 292, 182.830 289.331, 184.075 284.744 C 184.708 282.410, 185.659 279.150, 186.188 277.500 C 186.717 275.850, 187.638 256.500, 188.236 234.500 C 188.834 212.500, 189.445 194.343, 189.594 194.151 C 189.895 193.762, 204.999 205.899, 215 214.567 C 218.575 217.665, 225.100 222.620, 229.500 225.578 C 239.203 232.101, 251.021 241.038, 257.361 246.648 C 259.940 248.929, 263.211 251.087, 264.631 251.443 C 268.256 252.353, 272 249.710, 272 246.239 C 272 242.999, 263.483 234.433, 248.309 222.412 C 242.914 218.138, 238.275 214.384, 238 214.070 C 237.139 213.088, 229.639 207.529, 226.500 205.547 C 224.850 204.504, 220.800 201.108, 217.500 198 C 209.976 190.912, 207.014 188.935, 199.500 185.988 C 188.437 181.648, 189.210 183.376, 189.766 164.227 C 190.034 155.027, 190.385 147.348, 190.547 147.163 C 191.052 146.585, 198.198 145.053, 205.309 144 C 216.554 142.333, 220.826 138.781, 217.981 133.465 C 216.366 130.446, 214.028 129.939, 205.178 130.687 L 197.824 131.308 201.098 126.404 C 202.898 123.707, 205.168 120.308, 206.141 118.851 C 210.688 112.044, 213.478 97.878, 210.800 95.200 C 209.023 93.423, 223.015 93.560, 225.454 95.343 C 227.145 96.579, 227.198 97.301, 226.130 104.481 C 225.493 108.769, 224.094 114.259, 223.023 116.682 C 219.921 123.694, 219.469 127.755, 221.536 130.040 C 225.650 134.586, 230.878 130.913, 235.830 120 C 239.191 112.593, 241.574 99.875, 240.587 94.614 C 239.713 89.952, 236.001 85.663, 230.565 83.031 C 226.619 81.121, 224.502 80.911, 209.588 80.945 L 193 80.983 193 74.097 L 193 67.211 203.461 67.355 C 213.047 67.488, 214.110 67.314, 216.162 65.272 C 218.030 63.412, 218.240 62.584, 217.429 60.272 C 216.283 57.005, 211.796 55.141, 204.875 55.056 C 202.331 55.025, 198.891 54.728, 197.230 54.396 L 194.209 53.792 193.845 42.308 C 193.529 32.365, 193.221 30.635, 191.549 29.412 C 189.177 27.678, 188.509 27.652, 187.295 29.250 M 73.441 48.065 C 71.048 50.710, 70.935 57.357, 72.819 84.500 C 73.837 99.148, 73.885 106.478, 73.032 116.500 C 72.423 123.650, 71.654 133.163, 71.322 137.640 L 70.718 145.780 65.713 146.444 C 62.960 146.809, 60.333 146.733, 59.875 146.275 C 59.417 145.817, 57.883 140.731, 56.466 134.971 C 55.049 129.212, 53.187 122.475, 52.328 120 C 51.470 117.525, 49.517 111.900, 47.989 107.500 C 46.461 103.100, 44.907 98.058, 44.536 96.295 C 43.291 90.384, 37.032 91.334, 36.984 97.441 C 36.913 106.372, 46.072 144.640, 49.530 149.867 C 53.755 156.250, 64.266 160.334, 67.680 156.920 C 68.454 156.146, 68.520 157.068, 67.910 160.170 C 67.443 162.551, 66.786 166.300, 66.452 168.500 C 64.352 182.322, 53.982 218.823, 48.270 232.500 C 44.163 242.335, 42.665 245.043, 39.250 248.808 C 35.332 253.127, 35.237 254.328, 38.550 257.641 C 41.869 260.960, 45.333 260.204, 49.772 255.193 C 53.265 251.250, 62.412 233.487, 63.517 228.500 C 63.882 226.850, 65.233 222.125, 66.518 218 C 67.804 213.875, 69.670 207.463, 70.665 203.750 C 71.661 200.037, 72.788 197, 73.170 197 C 73.552 197, 80.416 203.005, 88.423 210.345 C 100.234 221.172, 103.948 224.002, 108.105 225.345 C 114.981 227.566, 116.276 227.451, 119.382 224.345 C 121.255 222.472, 121.854 221.074, 121.417 219.595 C 120.665 217.049, 118.215 215, 115.923 215 C 112.775 215, 109.136 212.373, 100.573 203.921 C 95.881 199.289, 90.431 194.375, 88.462 193 C 86.492 191.625, 84.328 190.001, 83.654 189.392 C 82.979 188.782, 80.744 187.675, 78.687 186.931 C 75.981 185.953, 75.116 185.154, 75.558 184.040 C 76.382 181.962, 78.554 171.037, 81.034 156.500 C 83.749 140.579, 85.354 110.738, 84.693 88.488 C 84.245 73.426, 83.719 68.758, 81.484 59.988 C 80.014 54.220, 78.038 48.697, 77.093 47.715 C 75.445 46.003, 75.294 46.018, 73.441 48.065 M 89.571 90.707 C 86.244 94.294, 85.507 99.980, 87.001 110.510 C 87.671 115.229, 87.924 121.455, 87.562 124.347 C 87.001 128.843, 87.196 129.868, 88.912 131.421 C 91.707 133.949, 95.524 132.784, 97.711 128.736 C 100.385 123.785, 99.993 99.033, 97.138 92.579 C 94.809 87.314, 93.108 86.893, 89.571 90.707 M 191.986 104.750 C 191.979 110.662, 191.715 116.625, 191.401 118 C 190.882 120.266, 191.029 120.201, 192.976 117.307 C 194.157 115.551, 195.928 110.738, 196.912 106.611 C 197.895 102.484, 199.452 97.959, 200.373 96.554 L 202.046 94 197.023 94 L 192 94 191.986 104.750 M 169.453 98.308 L 162.406 99.293 166.581 107.896 C 169.114 113.114, 172.182 117.745, 174.378 119.665 C 178.335 123.122, 178.836 125.021, 176.429 127.429 C 174.131 129.726, 170.150 129.352, 166.391 126.485 C 159.158 120.968, 149.194 105.188, 150.293 100.989 C 150.696 99.448, 150 99.118, 145.633 98.778 C 142.810 98.558, 140.387 98.444, 140.249 98.524 C 139.945 98.699, 142.472 109.716, 145.174 120 C 148.153 131.335, 148.854 136.253, 147.861 138.864 C 147.130 140.788, 147.248 141.119, 148.493 140.641 C 151.573 139.459, 167.656 136.108, 173.153 135.503 L 178.806 134.880 179.420 122.190 C 180.748 94.752, 180.826 96.982, 178.547 97.162 C 177.421 97.251, 173.329 97.767, 169.453 98.308 M 163.691 186.384 C 158.896 190.290, 148.578 202.533, 145.720 207.709 C 143.129 212.402, 135.477 224.646, 133.293 227.594 C 132.032 229.296, 131 231.023, 131 231.431 C 131 232.896, 124.636 241, 123.485 241 C 121.246 241, 118.732 244.971, 118.616 248.690 C 118.466 253.508, 121.695 255.475, 127.239 253.945 C 131.199 252.851, 134.693 249.292, 141.141 239.784 C 143.485 236.328, 146.151 232.693, 147.066 231.707 C 147.981 230.720, 152.373 222.845, 156.826 214.207 C 161.279 205.568, 166.969 196.025, 169.470 193 C 171.971 189.975, 173.789 186.901, 173.509 186.168 C 173.229 185.436, 173 184.476, 173 184.035 C 173 183.594, 172.074 182.991, 170.941 182.695 C 169.502 182.319, 167.320 183.429, 163.691 186.384" stroke="none" fill="black" fill-rule="evenodd"/>
</svg>