<svg xmlns="http://www.w3.org/2000/svg" width="300" height="300" viewBox="0 0 300 300" version="1.1">
	<path d="M 120.469 50.203 C 116.781 54.506, 116 56.969, 116 64.297 L 116 71.622 110.750 72.996 C 107.862 73.751, 101.949 74.399, 97.608 74.435 C 90.198 74.496, 89.591 74.668, 87.663 77.250 L 85.609 80 87.658 82.750 C 89.537 85.271, 90.340 85.524, 97.315 85.791 C 101.709 85.960, 107.261 85.472, 110.461 84.636 L 116 83.190 116 86.395 C 116 89.829, 114.503 92, 112.137 92 C 111.332 92, 106.022 94.547, 100.337 97.660 C 91.730 102.372, 90 103.715, 90 105.684 C 90 110.914, 98.044 110.628, 110.500 104.955 C 113.800 103.453, 116.595 102.305, 116.710 102.405 C 116.826 102.505, 116.689 103.472, 116.407 104.552 C 116.027 106.006, 113.629 107.239, 107.196 109.290 C 95.065 113.158, 92 114.799, 92 117.425 C 92 118.621, 92.540 120.140, 93.200 120.800 C 94.852 122.452, 103.483 122.287, 109.409 120.489 C 112.109 119.670, 114.696 119, 115.159 119 C 115.622 119, 116 123.432, 116 128.848 L 116 138.696 111.750 140.594 C 107.466 142.507, 93.625 151.333, 91.183 153.709 C 90.459 154.414, 90.009 156.230, 90.183 157.745 C 90.661 161.895, 94.085 161.699, 105 156.897 C 110.745 154.369, 115.795 152.786, 117.777 152.892 C 120.447 153.034, 121.368 152.521, 122.744 150.123 C 124.010 147.917, 128.021 145.366, 138.771 139.931 C 154.057 132.203, 156.667 130.056, 154.681 126.839 C 152.694 123.620, 149.671 123.665, 141.876 127.032 C 137.819 128.784, 133.037 130.850, 131.250 131.622 L 128 133.027 128 124.060 L 128 115.094 132.250 113.183 C 134.588 112.132, 137.587 110.090, 138.915 108.646 C 141.037 106.338, 141.185 105.701, 140.132 103.391 C 138.884 100.651, 138.393 100.608, 130.617 102.560 C 128.348 103.129, 128 102.903, 128.004 100.858 C 128.007 99.023, 128.957 98.109, 132.288 96.740 C 138.989 93.985, 144.170 89.259, 143.805 86.233 C 143.271 81.803, 140.986 81.393, 133.512 84.385 C 129.796 85.872, 126.519 86.852, 126.228 86.562 C 125.938 86.272, 126.112 84.599, 126.615 82.845 C 127.224 80.725, 128.362 79.420, 130.015 78.950 C 143.075 75.235, 145.491 74.056, 146.287 71.010 C 146.574 69.912, 145.996 68.401, 144.914 67.422 C 143.025 65.712, 141.912 65.727, 131.625 67.598 L 127.751 68.302 128.125 58.401 L 128.500 48.500 125.469 48.203 C 123.301 47.991, 121.876 48.560, 120.469 50.203 M 201.727 58.377 C 198.546 61.325, 197.013 66.628, 197.006 74.705 L 197 80.909 193.250 81.493 C 174.760 84.368, 164.158 86.724, 160.752 88.713 C 156.268 91.331, 156.508 94.016, 161.440 96.423 C 165.069 98.194, 166.053 98.248, 173.940 97.109 C 178.648 96.429, 185.754 95.002, 189.732 93.937 C 193.709 92.871, 197.130 92, 197.333 92 C 197.537 92, 198.026 95.713, 198.421 100.250 C 198.816 104.787, 199.549 111.650, 200.049 115.500 C 200.549 119.350, 201.249 127.910, 201.605 134.523 C 202.170 145.007, 202.040 146.722, 200.595 147.922 C 198.135 149.963, 191.797 147.749, 184.747 142.387 C 178.661 137.759, 177.147 137.253, 175.200 139.200 C 172.738 141.662, 173.953 144.772, 179.250 149.565 C 187.839 157.336, 192.689 160, 198.245 160 C 206.748 160, 210.340 156.892, 212.920 147.300 C 214.051 143.098, 213.997 142.345, 210.017 106.883 C 209.547 102.693, 208.850 97.181, 208.468 94.633 C 207.907 90.896, 208.059 90, 209.253 90 C 211.359 90, 220.991 85.986, 224.250 83.750 C 227.776 81.332, 227.961 77.395, 224.620 75.873 C 222.809 75.048, 220.919 75.172, 216.716 76.394 C 213.678 77.277, 210.537 78, 209.736 78 C 207.885 78, 206.803 68.807, 208.019 63.416 C 208.937 59.347, 207.850 56, 205.611 56 C 204.886 56, 203.138 57.070, 201.727 58.377 M 168.395 108.702 C 160.536 115.414, 167.190 120, 184.788 120 C 192.142 120, 193.978 119.682, 195.345 118.171 C 200.233 112.770, 193.765 108.905, 177.500 107.506 C 171.637 107.002, 170.158 107.196, 168.395 108.702 M 150.455 158.455 C 148.102 160.807, 148 161.446, 148 173.811 L 148 186.713 140.854 187.377 C 136.924 187.742, 133.600 187.919, 133.469 187.771 C 133.337 187.622, 134.095 184.800, 135.152 181.500 C 139.580 167.679, 138.294 158, 132.031 158 C 127.904 158, 126 161.178, 126 168.066 C 126 176.901, 121.649 187.890, 113.609 199.364 C 107.328 208.328, 106.741 209.647, 107.990 211.981 C 110.423 216.528, 115.675 213.225, 125 201.284 L 127.500 198.082 135 198.959 C 139.125 199.442, 143.738 199.592, 145.250 199.293 L 148 198.750 148 209.856 L 148 220.962 145.250 221.534 C 139.660 222.696, 126.290 226.340, 119.392 228.581 C 115.483 229.851, 109.183 231.594, 105.392 232.453 C 95.578 234.679, 94 235.673, 94 239.634 C 94 246.546, 99.480 246.374, 125 238.659 C 129.675 237.245, 136.730 235.235, 140.679 234.192 L 147.857 232.294 148.370 234.397 C 148.652 235.554, 149.191 248.650, 149.568 263.500 C 150.128 285.593, 150.530 290.818, 151.781 292.250 C 153.865 294.635, 155.227 294.453, 158.076 291.411 L 160.500 288.821 160.172 259.503 C 159.862 231.817, 159.946 230.153, 161.672 229.619 C 162.677 229.309, 172.394 227.289, 183.266 225.132 C 194.137 222.975, 204.089 220.516, 205.382 219.669 C 208.038 217.929, 209.168 214.888, 207.911 212.861 C 206.897 211.225, 198.624 211.235, 189.907 212.883 C 186.658 213.497, 181.188 214.471, 177.750 215.046 C 174.313 215.621, 169.135 216.594, 166.244 217.207 C 163.354 217.820, 160.827 218.137, 160.629 217.911 C 160.431 217.685, 159.964 212.911, 159.592 207.303 L 158.916 197.106 162.708 196.439 C 168.135 195.484, 178.984 191.958, 182.500 190.007 C 185.936 188.101, 187.002 183.859, 184.638 181.495 C 182.905 179.763, 181.654 179.633, 179.236 180.935 C 177.495 181.874, 161.801 186, 159.974 186 C 159.393 186, 159 180.846, 159 173.223 C 159 163.276, 158.655 159.953, 157.443 158.223 C 155.430 155.349, 153.496 155.413, 150.455 158.455" stroke="none" fill="black" fill-rule="evenodd"/>
</svg>