<svg xmlns="http://www.w3.org/2000/svg" width="300" height="300" viewBox="0 0 300 300" version="1.1">
	<path d="M 134.839 10.327 C 133.925 11.022, 131.795 14.312, 130.105 17.638 C 126.456 24.818, 123.599 28.525, 112.485 40.500 C 100.623 53.282, 91.928 63.975, 90.354 67.718 C 89.609 69.488, 89.014 72.638, 89.032 74.718 C 89.110 83.979, 97.867 85.718, 100.526 77 C 100.946 75.625, 106.751 68.425, 113.428 61 C 140.508 30.885, 145.734 23.305, 144.492 15.953 C 143.505 10.110, 138.760 7.345, 134.839 10.327 M 180.354 30.806 C 177.285 31.243, 174.886 34.300, 174.784 37.902 C 174.646 42.744, 177.239 44.778, 184.342 45.400 C 187.729 45.697, 196.487 46.479, 203.804 47.138 C 216.938 48.321, 217.136 48.308, 219.297 46.147 C 221.325 44.120, 221.376 43.763, 219.993 41.326 C 217.892 37.624, 214.073 35.036, 208.920 33.825 C 203.390 32.525, 183.236 30.395, 180.354 30.806 M 178.959 56.729 C 177.561 57.580, 175.957 59.226, 175.395 60.388 C 170.162 71.192, 159.483 88.360, 156.090 91.423 C 153.982 93.327, 153.927 93.322, 150.730 90.946 C 148.953 89.626, 142.550 85.032, 136.500 80.738 C 130.450 76.443, 124.736 72.295, 123.803 71.520 C 121.241 69.392, 115.555 68.662, 111.632 69.956 C 108.965 70.837, 107.979 71.820, 107.479 74.096 C 106.755 77.392, 108.248 79.993, 110.872 80.011 C 111.768 80.018, 116.197 82.830, 120.715 86.261 C 125.233 89.693, 132.545 95.130, 136.965 98.344 C 141.384 101.559, 144.997 104.484, 144.994 104.844 C 144.981 106.082, 125.497 124.674, 117.722 130.866 C 97.898 146.656, 69.506 164.029, 59.646 166.403 C 55.577 167.383, 52 169.951, 52 171.893 C 52 172.807, 52.733 174.601, 53.629 175.880 C 55.129 178.023, 55.817 178.173, 62.379 177.786 C 68.212 177.442, 71.128 176.583, 78.500 173.036 C 83.450 170.654, 89.381 167.422, 91.680 165.853 C 93.979 164.284, 96.101 163, 96.395 163 C 97.250 163, 112.163 153.865, 116 150.991 C 117.925 149.549, 123.093 145.699, 127.484 142.435 C 131.875 139.171, 140.472 131.543, 146.588 125.485 L 157.708 114.470 167.604 121.184 C 177.096 127.624, 188.097 134.634, 194.254 138.167 C 195.852 139.084, 197.911 140.469, 198.829 141.245 C 206.168 147.444, 242.333 166.374, 248.985 167.498 C 254.685 168.461, 258.238 166.122, 257.809 161.688 C 257.564 159.161, 256.774 158.159, 254 156.858 C 233.888 147.420, 228.997 144.637, 205.035 128.988 C 198.729 124.869, 187.409 117.403, 179.878 112.395 L 166.187 103.289 171.025 96.395 C 173.686 92.603, 178.231 85.694, 181.125 81.041 C 186.003 73.199, 186.428 72.013, 186.961 64.759 C 187.295 60.221, 187.130 56.530, 186.568 55.968 C 185.195 54.595, 181.928 54.922, 178.959 56.729 M 161 144.534 C 152.947 146.023, 128.696 154.739, 120.500 159.090 C 117.273 160.804, 115.387 162.499, 115.180 163.872 C 114.930 165.542, 114.159 166, 111.605 166 C 109.398 166, 107.567 166.831, 105.924 168.579 C 103.543 171.112, 103.494 171.534, 103.138 192.329 C 102.723 216.570, 104.179 233.503, 107.466 242.644 C 110.334 250.620, 119.931 264.999, 125.292 269.351 C 130.297 273.414, 139.859 278.346, 145.867 279.964 C 153.228 281.946, 184.147 281.422, 194.609 279.137 C 209.434 275.900, 214.994 273.554, 219.815 268.501 C 224.828 263.247, 225.114 259.897, 220.822 256.707 L 218.143 254.717 213.369 257.879 C 207.767 261.590, 205.329 262.301, 190 264.700 C 173.086 267.347, 154.563 267.148, 145.244 264.219 C 139.190 262.317, 137.019 260.990, 132.132 256.209 C 125.953 250.162, 122.658 244.617, 118.924 233.978 C 116.814 227.970, 116.608 225.313, 116.075 197.333 C 115.693 177.272, 115.835 167.442, 116.500 167.989 C 117.050 168.442, 119.551 169.118, 122.058 169.491 C 126.617 170.170, 131.774 168.742, 156.356 159.992 C 165.078 156.888, 171.776 155.810, 174.220 157.118 C 176.096 158.122, 176.223 158.867, 175.709 165.858 C 174.983 175.727, 172.144 184.099, 168.415 187.366 C 165.694 189.750, 153.892 196, 152.110 196 C 151.670 196, 152.194 193.412, 153.273 190.250 C 154.356 187.076, 155.295 181.489, 155.368 177.779 C 155.479 172.121, 155.159 170.716, 153.341 168.898 C 151.778 167.334, 150.489 166.911, 148.672 167.368 C 145.776 168.094, 143.870 173.016, 142.036 184.500 C 140.494 194.157, 138.090 199.716, 134.881 201.047 C 131.581 202.417, 126.438 207.778, 125.527 210.799 C 125.089 212.252, 125.422 213.995, 126.431 215.535 C 127.972 217.887, 128.160 217.921, 131.764 216.520 C 135.532 215.055, 147.136 211.652, 154.470 209.861 C 159.310 208.679, 171.368 200.895, 173.573 197.528 C 174.456 196.181, 175.982 194.823, 176.964 194.511 C 180.022 193.541, 185.818 183.311, 188.099 174.857 C 191.713 161.465, 189.506 149.999, 182.423 145.357 C 179.180 143.233, 169.957 142.879, 161 144.534" stroke="none" fill="black" fill-rule="evenodd"/>
</svg>