<svg xmlns="http://www.w3.org/2000/svg" width="300" height="300" viewBox="0 0 300 300" version="1.1">
	<path d="M 183.174 14.314 C 181.978 15.587, 181 17.426, 181 18.399 C 181 19.373, 183.035 24.059, 185.523 28.814 C 188.011 33.568, 190.522 39.226, 191.105 41.388 C 193.324 49.631, 197.579 52.333, 201.507 47.992 C 205.086 44.038, 202.500 30.908, 195.845 19.244 C 191.480 11.594, 187.269 9.956, 183.174 14.314 M 92.330 31.820 C 91.746 32.194, 90.241 34.525, 88.984 37 C 85.647 43.575, 85.294 52.437, 87.929 63.480 C 90.309 73.456, 92.979 92.127, 92.992 98.884 C 93.002 104.441, 91.181 110.912, 88.873 113.519 C 86.613 116.072, 79.083 118.330, 73.662 118.082 C 71.373 117.977, 68.600 117.859, 67.500 117.820 C 65.610 117.753, 65.490 116.998, 65.327 104.124 C 65.108 86.966, 63.583 72.027, 61.674 68.343 C 58.029 61.307, 51.184 57.473, 49.607 61.583 C 49.017 63.119, 50.012 73.725, 51.991 87 C 53.435 96.691, 53.182 125.972, 51.544 138.500 C 47.347 170.616, 46.920 173.101, 41.409 197.500 C 36.062 221.173, 33.788 228.354, 30.811 230.973 C 27.507 233.879, 27.208 237.208, 30 240 C 33.024 243.024, 37.081 242.551, 40.713 238.750 C 44.057 235.250, 48.568 225.428, 49.932 218.675 C 50.395 216.379, 51.690 210.900, 52.808 206.500 C 53.925 202.100, 55.365 196.025, 56.005 193 C 57.793 184.562, 58.023 184, 59.683 184 C 60.534 184, 64.601 182.422, 68.720 180.493 C 72.839 178.564, 77.174 176.743, 78.354 176.447 L 80.500 175.908 80.200 228.204 C 80.020 259.450, 79.517 280.882, 78.950 281.450 C 76.292 284.109, 79.198 290.331, 83.616 291.440 C 87.235 292.348, 91.549 288.220, 92.374 283.061 C 93.441 276.390, 93.143 208.020, 91.982 193 C 91.366 185.025, 91.136 176.645, 91.473 174.377 C 92.077 170.303, 92.165 170.227, 98.792 168.063 C 107.950 165.073, 110 163.598, 110 160.003 C 110 157.708, 109.304 156.691, 106.874 155.435 C 104.021 153.959, 103.084 153.953, 96.124 155.364 C 91.931 156.214, 82.262 159.619, 74.638 162.929 L 60.777 168.949 61.334 166.224 C 62.186 162.054, 63.958 145.530, 64.608 135.681 C 65.168 127.212, 65.264 126.929, 67.022 128.520 C 71.838 132.878, 84.711 132.120, 93.771 126.946 C 98.049 124.503, 99.371 122.992, 102.125 117.398 C 104.889 111.782, 105.462 109.377, 105.821 101.858 C 106.264 92.592, 103.825 75.623, 99.803 60 C 98.741 55.875, 97.610 48.093, 97.289 42.706 C 96.830 35.020, 96.348 32.721, 95.048 32.026 C 94.137 31.538, 92.914 31.446, 92.330 31.820 M 218.500 54.562 C 211.350 55.840, 199.650 57.379, 192.500 57.982 C 185.350 58.586, 175.450 59.541, 170.500 60.106 C 165.550 60.670, 158.125 61.358, 154 61.633 C 144.561 62.265, 142 63.440, 142 67.143 C 142 71.424, 146.301 73.129, 158.694 73.761 L 169.036 74.289 168.268 77.895 C 166.780 84.881, 167.440 93.313, 169.836 97.910 C 171.077 100.292, 171.960 102.329, 171.797 102.438 C 171.633 102.547, 168.350 103.233, 164.500 103.962 C 160.650 104.692, 155.025 106.403, 152 107.764 C 146.700 110.150, 140 116.067, 140 118.361 C 140 118.971, 139.059 117.677, 137.910 115.485 C 136.760 113.293, 134.506 110.155, 132.901 108.511 C 130.518 106.070, 129.663 105.724, 128.241 106.629 C 125.362 108.461, 126.585 121.118, 131.003 135.211 C 132.087 138.670, 132.980 143.547, 132.987 146.050 C 133.002 151.250, 134.275 153, 138.045 153 C 143.583 153, 145.853 146.097, 144.042 134.763 C 143.457 131.103, 142.748 127.508, 142.466 126.773 C 142.131 125.898, 143.996 124.500, 147.877 122.719 C 151.134 121.223, 154.279 120, 154.865 120 C 155.451 120, 157.975 119.306, 160.474 118.457 C 170.695 114.987, 187.983 112.870, 234.500 109.390 C 246.600 108.485, 257.104 107.513, 257.843 107.229 C 260.150 106.345, 251.003 123.019, 244.312 131.894 C 239.329 138.504, 240.120 144, 246.055 144 C 250.393 144, 259.845 132.925, 270.707 115.118 C 274.577 108.773, 275.394 105.223, 273.974 100.920 C 273.056 98.141, 271.759 96.639, 269.243 95.445 C 265.411 93.627, 261.320 93.743, 227.729 96.627 C 217.955 97.466, 209.541 98.006, 209.031 97.826 C 208.521 97.647, 211.254 94.852, 215.103 91.615 C 222.228 85.625, 224.907 81.580, 228.492 71.399 C 230.012 67.081, 230.842 66.103, 233.894 65.029 C 241.221 62.452, 244.109 57.219, 240.171 53.655 C 237.846 51.551, 234.595 51.687, 218.500 54.562 M 194.500 71.311 C 185.150 72.428, 177.427 73.378, 177.338 73.421 C 177.092 73.542, 178.917 83.901, 180.133 89.278 C 181.079 93.462, 181.719 94.301, 185.284 96.023 C 188.606 97.628, 189.643 97.759, 190.927 96.736 C 191.792 96.047, 194.226 94.607, 196.336 93.538 C 200.528 91.412, 209.566 82.089, 211.358 78.043 C 211.977 76.644, 213.500 74.380, 214.742 73.010 C 219.021 68.292, 219.467 68.329, 194.500 71.311 M 186.305 123.020 C 182.445 124.558, 182.265 130.349, 185.663 143.750 C 186.196 145.853, 185.914 146, 181.367 146.008 C 162.740 146.037, 145 152.104, 145 158.446 C 145 162.818, 146.979 163.347, 158.747 162.118 C 172.620 160.669, 173.499 160.677, 172.259 162.250 C 171.717 162.938, 170.964 165.525, 170.586 168 C 170.208 170.475, 169.272 173.458, 168.505 174.630 C 167.166 176.676, 162.318 188.680, 153.817 211 C 151.617 216.775, 149.222 222.625, 148.494 224 C 147.766 225.375, 145.718 229.650, 143.942 233.500 C 142.167 237.350, 138.978 243.119, 136.857 246.321 C 131.341 254.645, 131.774 259, 138.117 259 C 141.715 259, 145.287 255.618, 151.198 246.617 C 157.903 236.406, 161.667 228.678, 165.615 217.019 C 168.840 207.496, 169.975 206.622, 180.450 205.589 C 184.273 205.212, 190.123 203.848, 193.450 202.558 C 207.758 197.013, 215.244 194.915, 216.953 195.971 C 217.811 196.502, 217.575 199.931, 216.037 209.276 C 214.897 216.201, 213.345 231.009, 212.588 242.183 C 211.471 258.682, 210.834 263.252, 209.198 266.500 C 205.392 274.054, 199.753 277.378, 195.486 274.583 C 192.241 272.457, 189.817 272.590, 187.189 275.039 C 183.927 278.077, 184.400 281.698, 188.571 285.632 C 191.992 288.858, 192.469 289, 199.875 289 C 206.687 289, 208.152 288.655, 212.173 286.105 C 218.267 282.241, 221.648 277.577, 224.722 268.796 C 226.967 262.380, 227.368 259.143, 228.045 241.961 C 228.852 221.471, 229.283 216.983, 231.550 205.444 C 233.436 195.848, 232.596 191.383, 228.057 186.872 C 221.440 180.296, 213.215 180.742, 190 188.931 C 183.675 191.162, 177.792 192.990, 176.926 192.994 C 175.568 192.999, 175.672 192.047, 177.688 186.038 C 180.261 178.364, 181.612 168.575, 180.634 164.680 C 180.247 163.134, 178.946 161.813, 177.252 161.245 C 174.256 160.240, 179.990 159.689, 207 158.387 C 221.828 157.672, 225.583 156.510, 226.637 152.310 C 227.168 150.195, 226.754 149.185, 224.596 147.329 C 222.102 145.184, 220.985 145, 210.444 145 C 199.998 145, 199 144.839, 199 143.160 C 199 139.850, 194.993 125.562, 193.731 124.374 C 191.862 122.614, 188.750 122.046, 186.305 123.020" stroke="none" fill="black" fill-rule="evenodd"/>
</svg>