<svg xmlns="http://www.w3.org/2000/svg" width="300" height="300" viewBox="0 0 300 300" version="1.1">
	<path d="M 110.847 28.750 C 109.302 30.598, 108.132 32.283, 102.510 40.750 C 100.593 43.638, 98.569 46, 98.012 46 C 97.456 46, 97 46.460, 97 47.021 C 97 47.583, 95.782 49.884, 94.293 52.134 L 91.586 56.224 90.369 52.862 C 89.700 51.013, 89.118 47.790, 89.076 45.700 C 88.925 38.160, 82.597 31.381, 78.503 34.374 C 76.401 35.911, 76.563 37.577, 80.452 54.378 C 82.861 64.787, 83.034 66.576, 81.850 68.835 C 81.108 70.253, 74.313 77.549, 66.750 85.049 C 52.827 98.856, 51.051 101.651, 54.200 104.800 C 57.616 108.216, 63.832 104.766, 77.405 91.918 C 85.285 84.459, 85.966 84.028, 86.466 86.177 C 88.732 95.912, 93.216 127.626, 93.651 137 L 94.185 148.500 90.263 156 C 88.106 160.125, 86.032 164.400, 85.655 165.500 C 85.277 166.600, 84.413 168.402, 83.734 169.506 C 83.055 170.609, 80.337 175.053, 77.694 179.383 C 75.051 183.712, 72.239 187.904, 71.444 188.698 C 70.650 189.493, 70 190.476, 70 190.883 C 70 191.290, 69.195 192.495, 68.212 193.561 C 67.229 194.628, 63.570 199.676, 60.083 204.779 C 50.898 218.219, 45.475 223.196, 43.500 220 C 42.392 218.207, 37.143 218.864, 36.035 220.934 C 34.140 224.475, 34.803 229.893, 37.455 232.545 C 40.740 235.831, 44.994 235.711, 52.589 232.118 C 59.030 229.071, 64.692 222.992, 75.519 207.500 C 78.209 203.650, 81.845 198.700, 83.599 196.500 C 85.353 194.300, 87.674 190.925, 88.758 189 C 93.458 180.650, 95.263 178, 96.247 178 C 97.499 178, 96.537 213.511, 94.824 230.500 C 93.798 240.671, 91.243 251.513, 91.070 246.428 C 90.932 242.345, 87.835 235.082, 85.983 234.495 C 83.490 233.703, 80.065 235.951, 79.326 238.864 C 78.461 242.273, 80.450 255.040, 82.530 259.423 C 88.311 271.604, 103.037 262.386, 106.014 244.722 C 107.133 238.086, 109.026 192.323, 108.437 186.172 C 108.243 184.152, 107.604 173.725, 107.016 163 C 105.645 137.990, 104.444 127.216, 100.833 107.500 C 99.221 98.700, 97.515 88.800, 97.041 85.500 C 96.568 82.200, 95.893 77.700, 95.541 75.500 C 94.966 71.898, 95.303 70.979, 98.930 66.258 C 102.459 61.665, 118 32.830, 118 30.876 C 118 29.673, 114.954 27, 113.584 27 C 112.883 27, 111.652 27.788, 110.847 28.750 M 192.750 31.392 C 189.900 33.555, 190.736 39.101, 196.114 53.722 C 197.054 56.276, 201.554 57.765, 203.905 56.300 C 206.917 54.421, 208.010 48.819, 206.571 42.630 C 205.043 36.055, 203.935 34.517, 198.857 31.927 C 194.439 29.673, 194.955 29.718, 192.750 31.392 M 233.500 55.508 C 231.158 57.151, 216.471 60.155, 199.500 62.464 C 192.900 63.362, 180.975 64.993, 173 66.088 C 165.025 67.184, 153.872 68.496, 148.215 69.004 C 136.987 70.013, 132.314 71.901, 131.329 75.825 C 130.952 77.329, 131.342 78.766, 132.418 79.835 C 133.814 81.220, 135.953 81.459, 145.134 81.256 C 157.750 80.977, 194.162 76.827, 209.294 73.944 C 214.905 72.875, 220.749 72, 222.280 72 C 226.402 72, 237.168 68.145, 239.750 65.744 C 243.893 61.892, 242.035 54.015, 237 54.084 C 236.175 54.096, 234.600 54.736, 233.500 55.508 M 155.073 110.635 C 151.979 114.568, 152.531 120, 156.024 120 C 160.318 120, 162.617 136.188, 161.066 155.500 C 160.054 168.102, 154.735 188.450, 147.473 207.500 C 146.005 211.350, 144.174 216.884, 143.402 219.799 C 140.832 229.510, 141.828 233, 147.170 233 C 150.683 233, 153.698 229.077, 156.636 220.687 C 157.827 217.284, 160.451 209.792, 162.468 204.039 C 171.450 178.409, 174.598 161.083, 173.874 141.249 L 173.500 130.998 180.174 130.999 C 185.172 131, 189.424 130.124, 197.104 127.513 C 202.744 125.595, 207.529 124.195, 207.737 124.403 C 207.944 124.611, 207.165 129.668, 206.004 135.641 C 203.763 147.173, 201.016 176.504, 201.008 189 C 200.997 204.225, 205.058 219.289, 210.804 225.339 C 215.892 230.697, 218.512 231.507, 230.500 231.424 C 240.939 231.353, 242.214 231.104, 255.500 226.540 C 271.634 220.999, 284.760 214.949, 287.900 211.607 C 291.169 208.127, 291.505 203.412, 289.067 195.227 C 286.836 187.734, 284.480 185, 280.256 185 C 276.709 185, 275.396 188.871, 276.832 195.093 C 277.474 197.876, 278 200.529, 278 200.990 C 278 203.841, 240.751 217.840, 230.729 218.755 C 225.024 219.276, 224.914 219.235, 221.099 215.225 C 215.489 209.327, 214.491 204.265, 214.546 182 C 214.587 165.625, 214.970 161.375, 217.882 145 C 223.144 115.411, 223.105 113.657, 217.127 110.565 C 214.615 109.267, 213.490 109.316, 206.679 111.018 C 202.480 112.067, 197.797 113.561, 196.272 114.338 C 191.308 116.866, 182.314 119, 176.622 119 C 171.366 119, 170.958 118.819, 169.396 115.799 C 165.405 108.081, 158.920 105.743, 155.073 110.635" stroke="none" fill="black" fill-rule="evenodd"/>
</svg>