<svg xmlns="http://www.w3.org/2000/svg" width="300" height="300" viewBox="0 0 300 300" version="1.1">
	<path d="M 188.192 23.856 C 185.699 25.736, 184 30.747, 184 36.221 C 184 41.016, 179.731 52.367, 176.223 56.901 C 174.725 58.836, 173.219 61.113, 172.876 61.960 C 171.815 64.576, 173.828 67, 177.061 67 C 180.832 67, 187.985 60.138, 191.082 53.550 C 193.550 48.299, 193.488 48.321, 208 47.528 C 231.846 46.225, 234.969 45.469, 234.969 41 C 234.969 38.367, 232.518 36.463, 226.766 34.628 C 225.014 34.069, 207.800 35.390, 200.603 36.635 C 196.777 37.297, 196.718 37.261, 197.370 34.663 C 198.227 31.246, 195.979 25.871, 192.827 23.806 C 190.578 22.333, 190.205 22.337, 188.192 23.856 M 145 35.532 C 140.875 36.255, 134.418 36.882, 130.651 36.924 C 121.638 37.024, 117 39.132, 117 43.129 C 117 45.314, 117.802 46.536, 120.250 48.082 C 123.046 49.847, 124.549 50.055, 131 49.566 L 138.500 48.999 138.669 57.380 L 138.838 65.761 132.669 66.961 C 129.276 67.620, 125.500 68.559, 124.278 69.046 C 121.204 70.271, 120.354 74.365, 122.495 77.632 C 124.149 80.157, 124.461 80.229, 131.355 79.664 C 135.285 79.343, 139.850 78.853, 141.500 78.576 C 143.150 78.299, 143.800 78.297, 142.944 78.572 C 142.089 78.847, 140.617 80.378, 139.674 81.975 C 138.731 83.572, 136.956 85.158, 135.729 85.500 C 134.503 85.842, 130.912 87.049, 127.750 88.183 C 123.059 89.864, 122 90.659, 122 92.499 C 122 93.740, 122.684 95.323, 123.520 96.017 C 125.372 97.553, 137.341 97.616, 141.250 96.109 C 144.466 94.870, 144.465 94.869, 142.487 103.401 C 141.415 108.022, 141.235 111.089, 141.868 113.908 L 142.762 117.889 134.007 119.945 C 123.534 122.404, 116.744 122.602, 115 120.499 C 111.972 116.852, 112.991 101.677, 118.020 75.500 C 121.890 55.356, 121.689 49.936, 117.028 48.718 C 113.450 47.782, 111.043 50.923, 109.914 58 C 109.344 61.575, 108.029 69.225, 106.992 75 C 101.173 107.413, 100.490 119.119, 104.013 126.025 C 107.325 132.518, 109.762 133.503, 122.458 133.481 C 138.058 133.454, 161.732 128.218, 166.750 123.684 C 169.570 121.136, 169.597 119.253, 166.847 116.867 C 164.366 114.716, 162.983 114.600, 157.612 116.091 C 152.402 117.537, 152.034 116.761, 152.015 104.285 C 152.001 94.900, 152.172 93.978, 154.115 92.938 C 155.824 92.024, 156.126 91.166, 155.690 88.475 C 155.216 85.556, 155.480 85.017, 157.825 84.118 C 163.938 81.775, 166.649 77.161, 164.886 72.103 C 163.654 68.570, 160.631 66.397, 155.646 65.461 L 152 64.777 152 55.968 L 152 47.159 158.750 46.519 C 171.627 45.297, 173.772 44.212, 172.594 39.519 C 171.274 34.258, 160.845 32.751, 145 35.532 M 204.500 57.517 C 200.650 58.246, 195.643 58.878, 193.372 58.921 C 188.896 59.007, 187.633 60.007, 186.614 64.271 C 186.095 66.441, 186.500 67.591, 188.479 69.570 C 190.816 71.907, 191.481 72.051, 197.254 71.467 C 204.271 70.758, 212.881 68.587, 217.750 66.299 C 220.466 65.023, 221 64.222, 221 61.421 C 221 55.829, 217.630 55.031, 204.500 57.517 M 56.159 64.750 C 54.309 68.300, 53.072 87.378, 52.529 120.702 C 52.222 139.513, 51.606 155.892, 51.159 157.100 C 50.369 159.235, 50.283 159.207, 48.037 156.052 C 46.445 153.816, 44.912 148.668, 43.101 139.474 C 41.656 132.141, 40.142 125.809, 39.737 125.404 C 39.332 124.998, 39 123.926, 39 123.020 C 39 122.115, 37.630 120.061, 35.955 118.457 C 33.051 115.675, 32.785 115.611, 30.205 117.066 C 27.802 118.422, 27.513 119.145, 27.620 123.546 C 27.686 126.271, 28.295 130.525, 28.973 133 C 29.652 135.475, 31.127 141.100, 32.252 145.500 C 35.760 159.227, 40.845 166.333, 47.159 166.333 C 49.865 166.333, 50.001 166.550, 50.012 170.917 C 50.029 177.590, 47.374 195.857, 43.316 217 C 39.147 238.715, 36.652 248.452, 33.322 255.990 C 30.216 263.023, 31.151 266, 36.466 266 C 39.804 266, 40.144 265.664, 43.464 259.071 C 47.588 250.882, 50.211 243.278, 52.457 233 C 53.358 228.875, 54.957 221.900, 56.009 217.500 C 57.061 213.100, 58.201 206.881, 58.542 203.680 L 59.161 197.859 62.401 201.195 C 67.349 206.290, 78.735 213.333, 82.022 213.333 C 85.669 213.333, 88 211.413, 88 208.409 C 88 206.753, 86.457 204.889, 82.750 202.069 C 79.862 199.873, 73.740 194.563, 69.144 190.270 L 60.789 182.465 62.500 166.982 C 63.809 155.150, 64.199 143.130, 64.155 116 C 64.095 79.403, 63.205 65.379, 60.846 63.883 C 58.743 62.551, 57.151 62.845, 56.159 64.750 M 224.891 71.442 C 224.647 71.686, 218.610 72.382, 211.474 72.990 C 195.934 74.314, 192.040 75.355, 188.059 79.247 C 185.610 81.641, 185.230 82.561, 186.054 84.100 C 187.042 85.946, 188.157 86.413, 190.764 86.071 C 191.597 85.962, 191.343 87.030, 190.018 89.203 C 188.912 91.016, 188 93.625, 187.991 95 C 187.980 96.700, 186.619 94.696, 183.737 88.734 C 178.944 78.818, 176.168 76.839, 172.831 80.960 C 170.890 83.357, 170.253 91.420, 171.923 92.452 C 172.431 92.766, 173.142 94.368, 173.503 96.011 C 173.864 97.655, 174.538 99, 175.002 99 C 175.466 99, 176.343 100.509, 176.951 102.353 C 177.560 104.197, 179.170 106.751, 180.529 108.027 C 181.888 109.304, 183 111.115, 183 112.052 C 183 114.386, 184.688 115.513, 190.193 116.856 C 196.107 118.298, 204.359 118.318, 211.201 116.907 C 227.412 113.564, 235.848 109.248, 234.496 104.989 C 234.059 103.611, 234.323 103, 235.356 103 C 237.842 103, 242.431 98.462, 246.326 92.151 C 250.715 85.041, 251.608 81.372, 250.079 76.739 C 249.174 73.997, 248.166 73.067, 245.106 72.150 C 241.453 71.056, 225.825 70.509, 224.891 71.442 M 222.563 88.431 C 222.197 90.868, 220.811 95.009, 219.483 97.632 C 218.155 100.255, 217.166 102.499, 217.285 102.618 C 217.404 102.737, 219.751 102.362, 222.501 101.785 C 225.250 101.207, 228.440 100.742, 229.589 100.751 C 231.244 100.765, 231.585 100.281, 231.231 98.427 C 230.979 97.111, 231.677 94.640, 232.826 92.782 C 233.949 90.965, 235.336 88.245, 235.909 86.739 L 236.950 84 230.089 84 L 223.227 84 222.563 88.431 M 208 85.740 C 201.477 86.574, 201.446 86.605, 201.208 92.302 C 201.028 96.600, 201.386 98.039, 202.998 99.498 C 204.106 100.501, 205.182 101.136, 205.389 100.911 C 205.986 100.259, 211.088 85.740, 210.778 85.572 C 210.625 85.489, 209.375 85.564, 208 85.740 M 188.711 103.269 C 188.998 104.771, 189.631 106, 190.117 106 C 191.399 106, 191.201 104.658, 189.595 102.460 C 188.280 100.662, 188.223 100.715, 188.711 103.269 M 74.834 104.395 C 71.134 106.239, 69.708 110.203, 71.008 115.030 C 71.611 117.270, 72.310 120.703, 72.560 122.659 C 73.173 127.443, 73.638 128, 77.020 128 C 81.972 128, 84 124.722, 84 116.716 C 84 106.366, 80.451 101.595, 74.834 104.395 M 177 140.492 C 172.875 141.160, 166.800 142.400, 163.500 143.248 C 152.924 145.967, 145.864 146.208, 142.467 143.969 C 138.563 141.396, 136.824 141.494, 134.053 144.444 C 132.236 146.378, 131.887 147.579, 132.383 150.194 C 135.501 166.641, 135.468 171.211, 131.952 210 C 130.323 227.978, 131.983 233.166, 139.297 232.949 C 141.609 232.880, 144.969 233.201, 146.764 233.662 L 150.028 234.500 147.517 238.193 C 143.003 244.830, 135.188 259.906, 133.032 266.135 C 129.373 276.710, 130.437 284, 135.640 284 C 137.093 284, 142 277.902, 142 276.098 C 142 273.743, 155.470 248.701, 159.253 244.021 L 161.291 241.500 160.651 244 C 158.150 253.766, 159.128 266.895, 162.812 273 C 169.419 283.950, 172.757 286.725, 183.297 290.030 C 193.600 293.260, 213.168 292.414, 244 287.406 C 262.951 284.328, 270 280.624, 270 273.745 C 270 265.907, 260.542 261.813, 257.983 268.544 C 257.067 270.953, 257.159 270.924, 242.500 273.408 C 222.142 276.857, 211.495 277.999, 199.813 277.990 C 189.069 277.981, 186.931 277.694, 183.037 275.740 C 176.200 272.309, 172.019 264.754, 172.006 255.807 C 172.003 253.776, 173.605 247.251, 175.566 241.307 C 177.895 234.250, 178.961 229.392, 178.638 227.306 C 178.161 224.220, 178.319 224.056, 183.322 222.428 C 189.538 220.405, 192 218.440, 192 215.500 C 192 212.760, 189.049 210, 186.119 210 C 181.300 210, 169.606 213.351, 159.314 217.681 C 153.366 220.183, 147.425 222.467, 146.112 222.758 C 143.838 223.261, 143.757 223.107, 144.427 219.536 C 145.166 215.598, 146.942 190.436, 146.979 183.388 L 147 179.275 155.750 178.568 C 160.563 178.179, 167.567 177.217, 171.315 176.431 C 175.064 175.644, 180.464 174.993, 183.315 174.985 C 188.859 174.968, 190.417 174.377, 191.183 172.001 C 191.722 170.329, 193 201.965, 193 216.960 C 193 227.400, 193.670 229, 198.045 229 C 204.176 229, 205.970 222.607, 205.903 201 C 205.808 170.962, 204.562 150.843, 202.561 147.049 C 198.316 139.001, 193.633 137.800, 177 140.492 M 167.500 155.064 C 160.350 156.639, 152.813 158.018, 150.750 158.128 C 147.024 158.327, 147 158.356, 147 162.664 C 147 167.672, 146.637 167.572, 157.640 165.568 C 176.052 162.215, 186.474 162.446, 190.051 166.285 C 191.999 168.376, 192 168.374, 191.986 162.439 C 191.964 152.581, 191.597 151.984, 185.633 152.100 C 182.810 152.155, 174.650 153.489, 167.500 155.064 M 169.500 187.484 C 165.100 188.791, 159.399 190.154, 156.830 190.513 C 150.887 191.344, 148.251 193.969, 149.577 197.739 C 150.282 199.743, 151.628 200.739, 154.923 201.693 C 159.982 203.157, 165.364 202.203, 180 197.244 C 187.219 194.798, 188.647 193.944, 189.480 191.577 C 190.315 189.201, 190.115 188.511, 188.119 186.895 C 184.984 184.357, 179.434 184.532, 169.500 187.484 M 165.500 228.627 C 162.870 229.942, 162.488 230.675, 162.404 234.575 L 162.308 239.023 164.256 235.762 C 165.327 233.968, 167.367 231.262, 168.789 229.750 C 171.698 226.656, 170.359 226.199, 165.500 228.627" stroke="none" fill="black" fill-rule="evenodd"/>
</svg>