<svg xmlns="http://www.w3.org/2000/svg" width="300" height="300" viewBox="0 0 300 300" version="1.1">
	<path d="M 222.982 11.405 C 221.067 12.728, 218.720 14.748, 217.768 15.896 C 215.360 18.795, 207.298 34.859, 206.423 38.500 C 205.408 42.727, 201.328 51.858, 198.603 56 C 189.107 70.435, 188.456 72.293, 191.829 75.345 C 192.835 76.255, 194.583 77, 195.715 77 C 198.237 77, 199.198 81.857, 199.439 95.817 C 199.609 105.662, 200.213 106.953, 204.668 106.985 C 208.410 107.011, 210.017 105.881, 212.285 101.627 C 214.052 98.313, 214.473 95.911, 214.422 89.429 L 214.358 81.357 226.296 80.296 C 232.861 79.713, 239.358 79.536, 240.732 79.904 L 243.231 80.572 240.485 83.835 C 238.975 85.630, 235.436 88.251, 232.620 89.659 C 223.332 94.306, 220.445 99.097, 225.007 102.292 C 226.855 103.587, 226.402 103.833, 219.257 105.409 C 214.991 106.351, 209.475 107.577, 207 108.136 C 201.364 109.406, 199 111.494, 199 115.200 C 199 121.400, 207.279 125.410, 215.525 123.205 C 217.782 122.601, 223.947 120.103, 229.226 117.652 C 240.067 112.621, 242.582 109.976, 241.700 104.537 C 241.197 101.438, 241.476 100.917, 244.637 99.052 C 258.458 90.897, 263.886 80.884, 259.497 71.636 C 257.819 68.099, 252.858 65.507, 244.591 63.847 C 238.861 62.696, 211.770 65.277, 211.167 67.031 C 210.983 67.564, 209.916 68, 208.795 68 C 206.873 68, 206.848 67.871, 208.357 65.750 C 209.238 64.513, 212.330 59.173, 215.229 53.884 C 220.273 44.682, 220.608 44.309, 223 45.228 C 229.109 47.573, 254.761 44.879, 263.946 40.928 C 272.645 37.186, 276.277 30.683, 272.278 26.011 C 270.126 23.498, 266.502 23.447, 261.985 25.867 C 257.780 28.119, 255.217 28.687, 243.394 29.986 C 238.386 30.536, 232.449 31.636, 230.200 32.429 C 225.438 34.110, 225.371 34.682, 231.266 23.275 C 235.474 15.132, 235.792 13.027, 233.171 10.655 C 230.606 8.333, 227.051 8.595, 222.982 11.405 M 161.328 26.719 C 160.133 28.193, 158.212 31.288, 157.059 33.597 C 153.966 39.790, 149.974 41.784, 132.148 46.041 C 124.286 47.918, 122.175 48.865, 118.898 51.982 C 114.368 56.291, 113.988 59.078, 117.455 62.545 C 120.483 65.574, 124.659 65.725, 130 63 C 132.156 61.900, 134.726 60.992, 135.710 60.983 C 136.695 60.974, 141.312 59.421, 145.971 57.531 C 154.485 54.079, 155.943 54.132, 155.985 57.895 C 156.011 60.288, 161.248 67.715, 164.094 69.396 C 167.292 71.286, 173.096 71.504, 174.800 69.800 C 176.857 67.743, 176.128 64.005, 172.750 59.298 L 169.500 54.768 169.500 40.348 C 169.500 28.617, 169.220 25.750, 168 24.979 C 165.510 23.405, 163.613 23.900, 161.328 26.719 M 89.473 32.750 C 88.038 34.263, 85.943 37.300, 84.817 39.500 C 82.487 44.054, 67.960 68, 67.528 68 C 67.372 68, 66.248 65.188, 65.030 61.750 C 61.196 50.924, 59.701 47.910, 57.181 45.927 C 53.963 43.397, 48.568 43.432, 46 46 C 43.630 48.370, 43.483 50.276, 45.440 53.285 C 47.394 56.290, 55.498 76.740, 56.276 80.629 C 56.832 83.408, 56.115 84.749, 49.855 92.629 C 39.630 105.501, 34.560 110, 30.277 110 C 27.354 110, 23.996 113.352, 24.015 116.250 C 24.045 120.579, 25.510 121.501, 32.325 121.483 C 40.078 121.462, 43.795 119.257, 54.675 108.224 C 58.621 104.223, 62.094 101.343, 62.392 101.825 C 64.026 104.469, 69.964 143.007, 72.523 167.572 L 73.155 173.645 68.103 177.072 C 65.325 178.958, 63.040 181.063, 63.026 181.750 C 63.012 182.438, 62.663 183.004, 62.250 183.008 C 61.837 183.012, 60.988 184.025, 60.363 185.258 C 48.236 209.172, 39 228.649, 39 230.308 C 39 230.867, 36.932 234.851, 34.405 239.162 C 31.251 244.542, 29.220 247, 27.928 247 C 26.893 247, 25.286 248.160, 24.357 249.577 C 21.968 253.224, 23.480 256.996, 28.271 259.340 C 31.936 261.133, 32.126 261.131, 35.766 259.265 C 40.770 256.698, 47.706 246.627, 55.233 231 C 64.038 212.719, 71.157 198.635, 72.139 197.550 C 73.362 196.200, 73.201 249.129, 71.959 257 C 71.395 260.575, 70.237 265.637, 69.386 268.250 C 68.150 272.047, 67.389 273, 65.594 273 C 64.359 273, 62.302 274.114, 61.023 275.476 C 59.039 277.587, 58.834 278.431, 59.631 281.208 C 60.782 285.221, 66.089 289, 70.575 289 C 73.147 289, 74.523 288.191, 76.953 285.250 C 83.876 276.872, 86.407 267.030, 87.981 242.369 C 90.970 195.501, 86.234 138.887, 75.418 92.222 L 73.963 85.943 80.854 75.222 C 84.643 69.325, 89.634 60.951, 91.943 56.613 C 94.253 52.275, 97.113 47.414, 98.299 45.810 C 101.293 41.760, 101.184 35.889, 98.053 32.556 C 94.970 29.275, 92.720 29.326, 89.473 32.750 M 144.407 74.358 C 134.540 76.847, 127.768 83.541, 129.523 89.071 C 130.656 92.641, 134.697 92.750, 151.312 89.660 C 155.609 88.861, 160.866 88.441, 162.995 88.726 L 166.866 89.245 164.214 93.373 C 157.528 103.781, 155.898 105.107, 146.901 107.466 C 142.280 108.677, 137.716 110.015, 136.758 110.438 C 135.517 110.987, 134.836 110.675, 134.386 109.354 C 134.039 108.334, 132.684 105.272, 131.375 102.549 C 130.066 99.826, 128.458 94.998, 127.802 91.820 C 126.757 86.761, 126.196 85.846, 123.295 84.470 C 120.252 83.026, 119.748 83.036, 117.105 84.597 C 110.541 88.475, 111.289 97.949, 119.116 110.059 C 123.810 117.320, 125.542 118.923, 128.750 118.968 C 130.045 118.986, 131 119.622, 131 120.465 C 131 122.719, 134.876 124.280, 139.076 123.717 C 141.159 123.437, 147.057 121.318, 152.182 119.007 C 157.307 116.697, 163.075 114.161, 165 113.373 C 171.960 110.522, 173.504 109.408, 173.850 106.984 C 174.042 105.637, 175.443 102.952, 176.963 101.018 C 185.362 90.325, 185.393 81.779, 177.057 75.443 C 174.883 73.791, 172.626 73.468, 162 73.287 C 154.407 73.158, 147.501 73.578, 144.407 74.358 M 151.500 127.554 C 149.300 129.051, 146.825 131.076, 146 132.054 C 142.496 136.207, 141.341 137.685, 139.013 141 C 135.548 145.933, 136.152 145.147, 124.392 160 C 118.513 167.425, 112.243 175.075, 110.458 177 C 97.212 191.286, 96 192.814, 96 195.218 C 96 198.405, 98.260 200.333, 101.997 200.333 C 105.340 200.333, 109.315 197.228, 122.500 184.315 L 131.500 175.500 131.811 207.500 C 132.141 241.520, 130.828 264.029, 128.370 266.488 C 126.351 268.506, 126.692 273.411, 128.997 275.497 C 132.151 278.352, 137 277.680, 140.359 273.923 C 143.168 270.780, 143.384 270.721, 152.859 270.518 C 159.749 270.371, 165.924 269.444, 174.500 267.273 C 189.278 263.530, 203.082 261.416, 222 259.999 C 240.237 258.632, 261.583 256.109, 264.596 254.963 C 265.861 254.483, 267.628 252.971, 268.523 251.605 C 270.027 249.309, 270.027 248.859, 268.515 245.673 C 267.363 243.245, 266.017 242.053, 263.965 241.643 C 258.498 240.550, 215.554 243.418, 200 245.915 C 196.975 246.401, 194.423 246.729, 194.328 246.644 C 194.234 246.559, 194.866 241.744, 195.732 235.945 L 197.308 225.399 206.404 223.234 C 216.069 220.932, 219 218.874, 219 214.389 C 219 213.075, 217.991 210.991, 216.759 209.759 C 214.406 207.406, 210.617 207.096, 201.250 208.490 L 197 209.123 197 202.722 C 197 196.833, 197.204 196.228, 199.547 195.161 C 200.948 194.522, 202.859 194, 203.794 194 C 207.035 194, 220.698 188.930, 222.844 186.931 C 227.214 182.859, 224.103 175, 218.121 175 C 216.745 175, 211.893 176.213, 207.339 177.696 C 202.785 179.179, 198.803 180.136, 198.489 179.822 C 197.467 178.801, 201.105 165, 202.397 165 C 203.076 165, 210.803 163.883, 219.566 162.518 C 232.805 160.456, 235.796 159.676, 237.250 157.907 C 239.571 155.084, 239.457 152.851, 236.822 149.500 C 234.691 146.792, 234.477 146.745, 227.072 147.354 C 222.907 147.697, 208.250 148.875, 194.500 149.974 C 180.750 151.072, 164.856 152.695, 159.179 153.581 C 153.503 154.467, 148.695 155.028, 148.495 154.829 C 148.296 154.629, 150.575 151.548, 153.560 147.983 C 162.939 136.779, 165 133.770, 165 131.279 C 165 125.370, 157.678 123.350, 151.500 127.554 M 182.973 130.692 C 179.697 132.934, 179.034 134.004, 179.015 137.076 C 178.995 140.425, 182.549 143.663, 187.185 144.518 C 189.211 144.892, 191.643 146.053, 192.590 147.099 C 196.202 151.090, 204 148.048, 204 142.648 C 204 138.932, 199.884 133.702, 195.030 131.250 C 189.713 128.564, 186.312 128.406, 182.973 130.692 M 144.564 165.897 C 144.194 166.495, 144.366 170.396, 144.946 174.565 C 145.526 178.734, 146 184.190, 146 186.689 C 146 191.133, 146.061 191.219, 148.750 190.601 C 150.262 190.254, 157.882 188.746, 165.683 187.251 L 179.865 184.533 180.511 181.088 C 181.320 176.776, 184.922 169, 186.110 169 C 186.600 169, 187 168.523, 187 167.939 C 187 167.232, 184.752 167.097, 180.250 167.533 C 174.332 168.107, 162.634 167.299, 149.368 165.400 C 146.843 165.038, 144.975 165.231, 144.564 165.897 M 173.500 201.727 C 170.639 202.574, 163.862 203.269, 157.658 203.353 L 146.816 203.500 147.473 208.482 C 147.835 211.222, 148.331 213.665, 148.577 213.910 C 149.010 214.343, 169.653 212.475, 177.250 211.316 C 180.301 210.851, 181 210.326, 181 208.497 C 181 205.158, 179.841 199.982, 179.125 200.124 C 178.781 200.192, 176.250 200.914, 173.500 201.727 M 170.500 228.305 C 167.200 228.888, 160.798 229.396, 156.274 229.433 C 146.619 229.512, 147.473 228.060, 146.468 246.099 L 145.822 257.698 152.161 256.222 C 155.647 255.410, 163.225 253.519, 169 252.020 L 179.499 249.295 180.192 245.397 C 180.573 243.254, 180.911 238.238, 180.942 234.250 C 181.008 225.976, 181.639 226.335, 170.500 228.305" stroke="none" fill="black" fill-rule="evenodd"/>
</svg>