<svg xmlns="http://www.w3.org/2000/svg" width="300" height="300" viewBox="0 0 300 300" version="1.1">
	<path d="M 191.359 23.750 C 189.414 28.492, 183.518 40.214, 180.328 45.683 C 177.549 50.448, 178.227 50.231, 159 52.506 C 137.344 55.068, 128 58.670, 128 64.456 C 128 69.427, 135.716 71.748, 141.800 68.605 C 144.296 67.316, 151.297 66.076, 164.962 64.503 C 170.173 63.904, 170.351 63.958, 168.842 65.687 C 167.972 66.684, 167.090 67.970, 166.880 68.544 C 166.671 69.118, 164.095 73.477, 161.155 78.229 C 156.104 86.394, 155.679 86.811, 153.443 85.792 C 152.141 85.199, 149.965 83.035, 148.608 80.984 C 143.952 73.948, 141.290 71.738, 137.323 71.615 C 134.319 71.522, 133.346 71.991, 132.132 74.118 C 130.673 76.674, 130.786 76.902, 136.810 83.618 C 140.205 87.403, 144.336 91.400, 145.989 92.500 C 147.642 93.600, 148.996 94.995, 148.997 95.600 C 148.999 96.205, 147.537 98.635, 145.750 100.999 C 143.963 103.364, 142.050 106.019, 141.500 106.899 C 140.950 107.780, 140.267 108.725, 139.981 109 C 139.696 109.275, 136.472 113.100, 132.817 117.500 C 129.162 121.900, 124.221 127.377, 121.836 129.671 C 117.036 134.288, 106.991 142, 105.777 142 C 104.230 142, 104.967 148.773, 106.582 149.393 C 111.420 151.250, 120.427 147.277, 128.661 139.654 C 132.019 136.544, 135.045 134, 135.384 134 C 135.723 134, 136 134.989, 136 136.198 C 136 137.408, 137.079 142.020, 138.399 146.448 C 139.718 150.877, 141.625 158.714, 142.636 163.865 C 144.212 171.890, 144.808 173.357, 146.803 174.115 C 151.154 175.770, 155.958 170.594, 154.458 165.868 C 153.935 164.221, 154.434 164, 158.683 163.999 C 166.020 163.997, 176.905 161.835, 197 156.389 C 198.375 156.016, 200.063 155.271, 200.750 154.733 C 204.352 151.915, 199.639 162.152, 195.597 165.924 C 193.851 167.554, 193 169.393, 193 171.537 L 193 174.726 180.250 175.888 C 173.238 176.527, 164.575 177.266, 161 177.530 C 153.958 178.049, 143.353 181.636, 142.532 183.777 C 142.252 184.507, 142.768 186.243, 143.680 187.634 L 145.337 190.163 162.004 189.832 L 178.671 189.500 178.598 206 C 178.543 218.540, 179.037 225.500, 180.659 235 C 185.574 263.797, 186.754 277.643, 184.488 279.912 C 183.804 280.596, 182.107 280.230, 179.262 278.785 C 175.170 276.707, 174.991 276.698, 173.025 278.478 C 169.959 281.252, 170.479 284.501, 174.477 287.550 C 182.466 293.643, 190.766 292.488, 195.364 284.642 C 199.103 278.261, 199.475 272.881, 197.183 258.328 C 195.112 245.173, 191.887 219.576, 189.682 198.781 L 188.440 187.062 191.470 186.461 C 193.136 186.130, 196.637 185.180, 199.250 184.349 C 204.297 182.745, 205.199 180.892, 202.801 177.053 C 201.758 175.383, 202.198 174.496, 206.176 170.243 C 210.125 166.021, 215 157.544, 215 154.898 C 215 154.432, 216.322 151.163, 217.938 147.635 C 222.226 138.272, 223.715 130.122, 222.182 124.392 C 220.726 118.948, 219.452 117.530, 213.747 115.006 C 207.184 112.103, 197.865 111.600, 176.752 113.009 C 156.223 114.379, 153.870 114.989, 149.619 120.041 C 145.879 124.486, 146.374 121.852, 150.250 116.685 C 157.767 106.665, 163.758 98.206, 167.696 92.054 C 175.249 80.255, 182.956 67.247, 183.963 64.598 C 184.833 62.309, 185.518 61.996, 189.725 61.967 C 192.351 61.949, 203.018 61.518, 213.429 61.010 C 234.016 60.005, 235.015 59.690, 236.394 53.765 C 237.172 50.422, 233.844 46.442, 231.173 47.521 C 230.253 47.893, 221.354 48.265, 211.397 48.348 C 195.607 48.481, 193.391 48.308, 194.045 47 C 197.406 40.276, 198.500 35.918, 198.500 29.246 C 198.500 23.828, 198.110 21.681, 197 20.979 C 194.296 19.269, 192.921 19.945, 191.359 23.750 M 90.209 43.703 C 89.038 44.691, 86.865 47.958, 85.380 50.963 C 83.895 53.968, 81.852 57.315, 80.840 58.402 C 79.828 59.488, 79 60.783, 79 61.279 C 79 61.775, 76.902 64.637, 74.338 67.638 C 68.968 73.924, 69.147 74.028, 65.437 62.500 C 64.020 58.100, 61.655 52.025, 60.181 49 C 57.875 44.270, 57.063 43.457, 54.381 43.196 C 51.839 42.949, 51.147 43.320, 50.644 45.196 C 49.742 48.564, 49.866 53.799, 50.863 54.415 C 51.337 54.709, 52.283 57.098, 52.965 59.724 C 53.646 62.351, 55.258 67.875, 56.547 72 C 60.225 83.774, 60.672 82.454, 48.554 95.613 C 42.534 102.151, 37.124 107.950, 36.531 108.500 C 30.708 113.903, 29.409 119.445, 33.593 121.035 C 36.628 122.189, 36.449 122.322, 51.853 107.477 C 57.547 101.990, 62.506 97.385, 62.873 97.244 C 64.931 96.451, 76.010 153.792, 76.001 165.191 C 76.001 166.121, 73.373 170.171, 70.162 174.191 C 62.847 183.348, 51 200.496, 51 201.926 C 51 202.517, 50.550 203, 50 203 C 49.450 203, 49 203.461, 49 204.024 C 49 205.313, 43.378 213.854, 37.952 220.809 C 34.385 225.381, 33.442 226.042, 31.155 225.577 C 28.390 225.014, 25.774 226.428, 24.819 229 C 23.804 231.738, 25.863 234.916, 29.690 236.515 C 33.118 237.947, 33.845 237.949, 37.550 236.534 C 39.795 235.677, 43.008 233.518, 44.690 231.738 C 48.617 227.581, 64.048 207.070, 64.773 205.044 C 65.077 204.195, 66.265 202.169, 67.413 200.543 C 68.561 198.916, 71.399 194.191, 73.720 190.043 L 77.941 182.500 77.939 196 C 77.937 212.110, 74.700 240.712, 71.602 252 C 70.771 255.025, 69.803 258.625, 69.451 260 C 67.590 267.259, 66.750 269, 65.111 269 C 62.690 269, 59 272.676, 59 275.089 C 59 280.121, 63.930 285, 69.014 285 C 72.273 285, 77.740 278.552, 79.378 272.776 C 87.748 243.272, 90.680 219.518, 89.720 189 C 88.841 161.064, 85.094 137.889, 74.413 94.325 L 72.653 87.150 79.717 79.314 C 87.881 70.257, 96.510 57.641, 98.610 51.688 C 99.950 47.891, 99.916 47.364, 98.182 45.032 C 95.821 41.857, 92.961 41.380, 90.209 43.703 M 193.200 65.200 C 191.489 66.911, 191.717 71.139, 193.678 74.027 C 194.601 75.387, 198.313 80.046, 201.928 84.381 C 209.796 93.815, 219.868 100.925, 240.384 111.527 C 266.237 124.886, 269 126.533, 269 128.592 C 269 129.341, 270.095 130.671, 271.433 131.548 C 274.234 133.384, 277.203 132.358, 279.044 128.918 C 281.711 123.935, 276.456 116.974, 264.737 109.964 C 261.582 108.077, 259 106.188, 259 105.766 C 259 105.345, 258.322 105, 257.493 105 C 255.850 105, 234.133 93.908, 229.858 90.886 L 227.217 89.018 230.858 85.124 C 235.558 80.098, 241 72.332, 241 70.650 C 241 68.700, 236.504 66.657, 233.740 67.351 C 229.997 68.290, 226.258 71.692, 222.481 77.597 C 218.781 83.381, 217.981 83.838, 215.643 81.500 C 214.818 80.675, 213.693 80, 213.144 80 C 212.595 80, 211.260 78.875, 210.179 77.500 C 209.097 76.125, 207.803 75, 207.303 75 C 206.802 75, 204.211 72.525, 201.545 69.500 C 196.536 63.818, 195.247 63.153, 193.200 65.200 M 165.964 125.969 C 159.069 126.326, 152.862 126.967, 152.170 127.395 C 151.478 127.822, 150.257 127.628, 149.456 126.964 C 148.230 125.946, 148 126.288, 148.003 129.128 C 148.005 132.111, 152.495 150.828, 153.433 151.767 C 153.634 151.967, 162.847 150.527, 173.907 148.566 C 196.325 144.591, 200.184 144.312, 202.026 146.531 C 203.106 147.833, 203.730 146.982, 206.197 140.841 C 209.774 131.939, 209.708 126.912, 206 125.889 C 202.956 125.049, 182.989 125.089, 165.964 125.969 M 201.239 213.750 C 200.545 213.983, 199.505 215.057, 198.927 216.136 C 198.013 217.845, 199.332 219.581, 209.189 229.639 C 215.410 235.988, 224.550 244.250, 229.500 248 C 239.509 255.583, 244.030 260.025, 246.293 264.500 C 247.127 266.150, 248.976 268.589, 250.401 269.921 C 252.747 272.112, 253.233 272.213, 255.523 270.987 C 262.773 267.107, 258.329 256.830, 243.732 243.722 C 239.309 239.750, 232.047 233.058, 227.595 228.852 C 217.938 219.728, 205.187 212.422, 201.239 213.750 M 153.144 215.706 C 150.941 217.514, 147.312 222.350, 138.035 235.844 C 130.434 246.901, 124.825 265.674, 127.985 269.482 C 130.779 272.848, 138 270.091, 138 265.658 C 138 264.731, 138.423 263.191, 138.939 262.236 C 139.455 261.281, 141.444 257.125, 143.359 253 C 145.274 248.875, 149.239 242.419, 152.170 238.654 C 159.150 229.689, 161.963 224.999, 161.984 222.297 C 162.003 219.724, 160.020 215, 158.921 215 C 158.505 215, 157.526 214.755, 156.747 214.456 C 155.967 214.157, 154.346 214.720, 153.144 215.706" stroke="none" fill="black" fill-rule="evenodd"/>
</svg>