<svg xmlns="http://www.w3.org/2000/svg" width="300" height="300" viewBox="0 0 300 300" version="1.1">
	<path d="M 222.500 13.953 C 218.667 14.964, 208.835 19.629, 198 25.576 C 185.053 32.682, 172.728 36.537, 145.500 41.999 C 142.200 42.661, 136.708 43.832, 133.294 44.601 C 129.881 45.371, 125.789 46, 124.199 46 C 118.265 46, 115.911 53.145, 121 55.710 C 126.201 58.332, 142.754 56.634, 168.500 50.837 C 177.687 48.768, 180.824 47.819, 187 45.237 C 190.741 43.673, 209.500 34.503, 212 33.016 C 212.825 32.525, 215.637 31.196, 218.250 30.062 C 220.863 28.928, 224.962 27.100, 227.360 26 C 229.757 24.900, 232.592 24, 233.660 24 C 234.727 24, 236.140 23.460, 236.800 22.800 C 241.621 17.979, 231.343 11.620, 222.500 13.953 M 43.018 22.784 C 41.807 23.765, 40.809 25.678, 40.802 27.034 C 40.784 30.129, 43.952 46.275, 50.664 77.298 C 51.664 81.919, 43.440 92.280, 26.750 107.428 C 18.066 115.309, 16.474 118.138, 18.765 121.615 C 20.013 123.509, 23.811 124.170, 26.212 122.912 C 30.438 120.697, 44.454 109.286, 49.393 104.040 C 54.598 98.511, 55.954 98.585, 55.985 104.402 C 55.993 105.997, 56.889 111.847, 57.975 117.402 C 62.694 141.528, 62.963 144.211, 61 147.500 C 60.015 149.150, 57.110 155.107, 54.544 160.738 C 46.545 178.292, 37.054 194.250, 24.949 210.500 C 17.599 220.367, 15.881 222, 12.855 222 C 7.733 222, 6.214 229.305, 10.455 233.545 C 16.256 239.347, 24.375 234.641, 35.827 218.841 C 48.472 201.394, 53.177 193.880, 60.630 179.228 C 63.503 173.578, 66.095 169.344, 66.388 169.819 C 66.682 170.295, 67.383 176.042, 67.945 182.592 C 68.507 189.141, 69.636 199.900, 70.452 206.500 C 72.211 220.711, 72.367 231.091, 70.955 240 C 69.337 250.204, 69.321 250.230, 66.505 247.414 C 63.798 244.707, 62.124 244.417, 59.792 246.250 C 56.822 248.585, 56.933 251.307, 60.271 258 C 64.321 266.118, 68.833 269.140, 73.820 267.074 C 78.150 265.281, 80.581 260.592, 82.507 250.317 C 85.992 231.725, 84.124 199.373, 76.965 154.349 C 76.427 150.966, 76.255 147.499, 76.583 146.645 C 76.910 145.791, 76.463 144.072, 75.589 142.824 C 74.715 141.576, 74 139.152, 74 137.437 C 74 134.549, 71.905 122.985, 66.984 98.712 C 64.210 85.028, 64.354 83.310, 68.851 76.351 C 73.231 69.574, 73.749 68.639, 80.211 55.835 C 82.802 50.701, 85.615 44.531, 86.461 42.124 C 89.587 33.236, 87.629 26, 82.098 26 C 78.448 26, 76.422 28.473, 75.590 33.944 C 74.804 39.117, 68.823 52.207, 63.808 59.734 L 60.320 64.969 58.579 56.734 C 57.621 52.205, 55.974 44.804, 54.919 40.286 C 53.864 35.769, 53 30.514, 53 28.609 C 53 26.058, 52.306 24.599, 50.365 23.073 C 47.142 20.537, 45.856 20.486, 43.018 22.784 M 114.667 55.667 C 113.429 56.904, 113.988 66.077, 115.476 68.954 C 116.288 70.525, 117.966 76.015, 119.204 81.155 C 125.290 106.428, 118.954 185.831, 107.764 224.500 C 102.481 242.757, 98.861 253.496, 97.475 255.028 C 96.640 255.951, 95.417 259.276, 94.758 262.416 C 93.291 269.412, 94.854 273.302, 99.342 273.822 C 104.582 274.430, 105.949 272.019, 113.914 248.117 C 119.997 229.861, 122.802 220.498, 123.538 216 C 123.853 214.075, 124.962 207.775, 126.004 202 C 130.453 177.330, 134.026 143.359, 134.007 125.908 L 134 119.316 153.250 118.567 C 163.838 118.155, 186.450 117.490, 203.500 117.089 C 228.484 116.501, 235.212 116.050, 238.170 114.764 C 244.176 112.154, 245.179 107.884, 240.667 104.138 C 239.633 103.280, 239.434 102.029, 239.966 99.720 C 241.928 91.203, 244.669 84.197, 247.206 81.215 C 250.738 77.063, 250.972 71.984, 247.770 69 C 243.686 65.196, 240.572 65.292, 228.823 69.583 C 222.114 72.033, 207.753 73.210, 188.500 72.889 C 155.633 72.341, 135.595 72.473, 132.799 73.257 C 130.347 73.944, 130.013 73.705, 129.175 70.670 C 128.667 68.831, 126.098 64.553, 123.465 61.163 C 119.098 55.540, 116.449 53.885, 114.667 55.667 M 223 84.644 C 218.643 85.772, 209.499 86.031, 179 85.894 C 157.825 85.798, 138.823 85.783, 136.773 85.860 L 133.047 86 133.663 97.250 C 134.001 103.438, 134.372 108.618, 134.486 108.763 C 134.600 108.908, 136.434 108.299, 138.561 107.410 C 141.642 106.123, 148.550 105.616, 172.465 104.921 C 188.984 104.441, 208.350 103.772, 215.500 103.435 L 228.500 102.822 228.500 96.661 C 228.500 93.272, 228.809 88.813, 229.187 86.750 C 229.565 84.688, 229.565 83.050, 229.187 83.111 C 228.809 83.171, 226.025 83.862, 223 84.644 M 243.500 138.109 C 241.300 138.593, 223.300 138.900, 203.500 138.792 C 183.700 138.684, 166.396 138.971, 165.047 139.430 C 160.122 141.104, 156.931 147.134, 158.962 150.929 C 160.277 153.386, 162.474 153.536, 167.346 151.500 C 169.320 150.675, 172.188 149.999, 173.718 149.999 L 176.500 149.997 176 169.249 L 175.500 188.500 168.678 189.253 C 164.926 189.668, 160.950 190.492, 159.842 191.084 C 158.735 191.677, 157.721 192.013, 157.588 191.831 C 157.165 191.248, 152.960 151.618, 152.980 148.405 C 153.019 142.284, 145.624 139.591, 142.379 144.545 C 140.563 147.315, 140.606 149.198, 143.206 181 C 144.883 201.514, 144.917 240.320, 143.262 245 C 140.652 252.381, 145.656 258.421, 151.312 254.715 C 155.707 251.836, 156.991 245.493, 157.686 223.250 L 158.318 203 167.082 203 L 175.847 203 176.174 222.250 C 176.466 239.498, 176.713 241.864, 178.549 245 C 181.016 249.215, 184.716 250.076, 187.438 247.069 C 189.114 245.217, 189.254 243.120, 189.077 222.607 L 188.883 200.172 195.692 199.505 C 199.436 199.139, 203.235 198.637, 204.133 198.389 C 206.321 197.787, 206.624 199.909, 208.111 226.280 C 209.049 242.908, 209.063 248.337, 208.170 249.230 C 206.441 250.959, 206.744 254.577, 208.983 258.967 C 212.366 265.598, 218.765 265.271, 221.050 258.349 C 222.350 254.409, 221.726 220.011, 220.063 204 C 219.634 199.875, 219.558 196.189, 219.892 195.810 C 220.226 195.430, 224.100 194.816, 228.500 194.445 C 233.018 194.064, 239.068 192.757, 242.400 191.441 L 248.300 189.111 247.660 219.806 C 247.308 236.688, 246.744 251.709, 246.406 253.186 C 245.857 255.586, 245.523 255.769, 243.261 254.909 C 240.008 253.672, 236 256.091, 236 259.291 C 236 262.573, 240.402 268.510, 243.916 269.965 C 250.106 272.529, 255.024 269.262, 258.165 260.500 C 261.164 252.134, 262.126 228.182, 261.331 181.635 L 260.702 144.771 257.006 140.885 C 253.058 136.736, 251.348 136.384, 243.500 138.109 M 189.630 157.846 C 189.284 161.947, 189 170.233, 189 176.259 C 189 187.182, 189.007 187.215, 191.292 186.642 C 192.552 186.325, 196.192 185.760, 199.380 185.385 C 202.568 185.010, 205.356 184.208, 205.576 183.602 C 206.032 182.342, 203.507 152.155, 202.899 151.603 C 202.680 151.403, 199.746 151.049, 196.380 150.816 L 190.260 150.391 189.630 157.846 M 229.750 150.747 L 217 151.060 217.001 155.280 C 217.002 160.172, 218.921 181.254, 219.409 181.743 C 220.257 182.590, 238.625 179.636, 240.615 178.333 C 242.313 177.220, 243.357 177.121, 244.867 177.929 C 245.968 178.518, 247.123 179, 247.434 179 C 247.745 179, 248 172.475, 248 164.500 L 248 150 245.250 150.217 C 243.738 150.337, 236.762 150.575, 229.750 150.747" stroke="none" fill="black" fill-rule="evenodd"/>
</svg>