<svg xmlns="http://www.w3.org/2000/svg" width="300" height="300" viewBox="0 0 300 300" version="1.1">
	<path d="M 62.296 15.534 C 60.737 16.682, 60.535 18.210, 60.768 27.130 C 60.915 32.781, 61.384 37.651, 61.810 37.952 C 62.235 38.253, 63.114 42.236, 63.762 46.802 L 64.940 55.105 53.882 68.302 C 40.275 84.542, 34.161 91, 32.393 91 C 30.485 91, 29.533 95.679, 30.852 98.574 C 31.699 100.434, 32.733 101, 35.283 101 C 40.487 101, 46.611 96.350, 57.441 84.175 C 62.909 78.029, 67.683 73, 68.050 73 C 69.764 73, 79.965 145.309, 79.991 157.648 C 79.999 161.326, 79.348 162.490, 74.250 167.922 C 71.088 171.291, 66.801 176.400, 64.724 179.274 C 60.758 184.761, 46 207.194, 46 207.734 C 46 208.092, 41.504 214.605, 34.964 223.723 C 31.159 229.028, 30.043 229.951, 27.405 229.973 C 19.459 230.042, 18.856 239.370, 26.589 242.602 C 33.094 245.320, 37.711 242.776, 47.211 231.240 C 55.242 221.488, 65.812 207.563, 67.364 204.691 C 68.015 203.486, 71.237 198.492, 74.524 193.593 L 80.500 184.685 80.826 194.093 C 81.454 212.266, 76.952 249.179, 72.395 263.211 C 70.988 267.545, 70.648 267.880, 68.167 267.383 C 66.290 267.008, 64.604 267.524, 62.628 269.078 C 59.944 271.189, 59.809 271.662, 60.190 277.639 C 60.528 282.952, 61.056 284.449, 63.483 286.983 C 72.039 295.913, 83.029 285.181, 86.506 264.500 C 86.876 262.300, 87.529 260.050, 87.956 259.500 C 89.256 257.829, 92.904 235.303, 94.112 221.500 C 95.359 207.240, 94.689 161.731, 93.063 150.260 C 92.536 146.542, 91.324 136.525, 90.369 128 C 89.414 119.475, 88.371 112.275, 88.051 112 C 87.730 111.725, 86.441 105.425, 85.187 98 C 83.932 90.575, 81.884 78.839, 80.635 71.921 L 78.364 59.341 88.132 47.541 C 100.491 32.612, 103.166 26.024, 99.015 20.746 C 96.861 18.008, 90.452 16.529, 88.250 18.262 C 86.566 19.586, 86.671 22.031, 88.470 23.390 C 89.758 24.363, 89.739 24.908, 88.322 27.798 C 86.297 31.925, 75.461 43.565, 74.749 42.378 C 74.460 41.895, 73.224 36.775, 72.003 31 C 70.782 25.225, 69.345 19.305, 68.810 17.845 C 67.657 14.702, 64.803 13.689, 62.296 15.534 M 203.047 17.750 C 200.633 20.185, 198.342 24.130, 196.515 29 C 191.212 43.133, 183.120 57.367, 183.033 52.715 C 183 50.906, 180.597 46.619, 178.230 44.146 C 176.109 41.929, 173.420 35.951, 171.182 28.475 C 168.013 17.890, 162.773 13.710, 156.451 16.725 C 152.047 18.825, 150.970 22.248, 153.752 25.305 C 154.851 26.512, 156.495 29.797, 157.407 32.605 C 159.598 39.355, 164.057 46.343, 170.170 52.610 L 175.154 57.719 172.327 58.271 C 170.772 58.574, 165.113 59.390, 159.750 60.084 C 154.387 60.778, 150 61.654, 150 62.030 C 150 62.407, 147.412 62.986, 144.250 63.317 C 136.692 64.108, 123.557 68.443, 121.015 70.985 C 118.764 73.236, 118.375 76.975, 120.200 78.800 C 121.698 80.298, 129.997 80.265, 145 78.700 L 156.500 77.500 155.784 92.500 C 155.390 100.750, 154.481 110.844, 153.765 114.931 L 152.462 122.363 145.306 124.122 C 141.370 125.089, 136.325 127.033, 134.094 128.440 C 131.864 129.848, 129.859 131, 129.639 131 C 129.418 131, 128.731 128.989, 128.112 126.532 C 126.834 121.453, 124.136 119.321, 121.068 120.964 C 118.562 122.305, 118.353 123.099, 116.442 138.500 C 113.393 163.086, 115.005 222.053, 119.184 238.782 C 120.960 245.891, 126.623 248.159, 130.990 243.511 C 132.740 241.648, 133.288 239.989, 133.168 236.921 C 133.080 234.666, 132.676 232.299, 132.270 231.660 C 131.675 230.723, 130.041 144.231, 130.600 143.203 C 130.860 142.723, 149.451 139.118, 149.810 139.477 C 149.990 139.657, 149.645 142.436, 149.044 145.652 C 148.442 148.868, 147.686 156.225, 147.365 162 C 146.819 171.804, 146.922 172.649, 148.929 174.750 C 151.516 177.458, 154.027 177.609, 156.963 175.231 C 158.802 173.742, 159.378 171.568, 160.606 161.481 C 161.407 154.891, 162.444 148.807, 162.909 147.960 C 163.374 147.113, 164.077 144.076, 164.471 141.210 C 164.865 138.345, 165.258 135.964, 165.344 135.920 C 165.430 135.877, 169.153 135.537, 173.619 135.164 L 181.738 134.488 182.317 144.494 C 182.635 149.997, 183.603 156.739, 184.468 159.475 C 189.601 175.721, 204.342 182.648, 220.242 176.287 C 226.181 173.910, 227.991 167.991, 224 164 C 222.317 162.317, 220.667 162, 213.577 162 C 205.509 162, 205.024 161.871, 202.085 158.931 C 198.645 155.492, 196.373 148.618, 195.744 139.750 L 195.335 134 212.501 134 C 221.942 134, 232.227 133.486, 235.357 132.857 C 238.487 132.229, 241.237 131.904, 241.469 132.136 C 242.845 133.511, 244.251 148.599, 244.207 161.500 C 244.154 176.980, 241.718 212.548, 239.928 224 C 238.284 234.513, 234.995 247.627, 233.499 249.636 C 232.177 251.411, 231.967 251.345, 229.112 248.250 C 225.518 244.355, 223.271 244.175, 219.431 247.475 C 217.830 248.851, 216.169 249.569, 215.693 249.093 C 215.216 248.616, 213.428 248.960, 211.668 249.868 C 209.273 251.102, 205.693 251.497, 197 251.489 C 181.243 251.474, 156.038 249.871, 155.403 248.843 C 154.667 247.651, 143.248 247.790, 142.500 249 C 142.160 249.550, 140.544 250, 138.909 250 C 135.193 250, 124.219 253.638, 122.376 255.481 C 120.484 257.373, 120.651 260.386, 122.750 262.219 C 126.423 265.426, 131.944 266.294, 144.932 265.705 C 152.742 265.351, 163.936 265.703, 174.500 266.636 C 198.056 268.716, 211.245 267.159, 217.734 261.534 L 220.500 259.135 223.585 262.104 C 229.193 267.500, 238.691 267.243, 244.394 261.539 C 250.297 255.636, 255.004 239.882, 256.955 219.500 C 261.325 173.823, 260.772 138.910, 255.497 127.445 C 251.645 119.074, 245.148 116.072, 234.786 117.877 C 231.238 118.495, 221.227 119, 212.537 119 L 196.738 119 197.368 115.250 C 197.715 113.188, 198.502 107.225, 199.119 102 C 199.735 96.775, 200.733 91.886, 201.337 91.135 C 203.054 89.001, 197.634 84.805, 193.663 85.196 C 189.502 85.604, 186 90.755, 186 96.464 C 186 98.757, 185.543 103.303, 184.984 106.566 C 184.425 109.830, 183.729 113.962, 183.438 115.750 L 182.909 119 175.341 119 L 167.773 119 168.321 115.750 C 168.622 113.963, 169.398 106.425, 170.044 99 C 171.066 87.262, 171.015 84.918, 169.654 81.039 C 168.793 78.586, 168.240 76.427, 168.424 76.243 C 169.057 75.610, 214.109 70.110, 228.100 68.957 C 235.792 68.323, 243.201 68.085, 244.564 68.427 C 246.403 68.888, 247.681 68.410, 249.521 66.570 C 253.439 62.652, 252.243 57.211, 246.851 54.423 C 244.033 52.966, 241.159 52.824, 224.558 53.324 C 214.076 53.640, 204.234 54.204, 202.687 54.577 L 199.874 55.257 204.407 48.250 C 206.900 44.396, 210.462 37.926, 212.322 33.871 C 214.183 29.817, 216.671 25.643, 217.852 24.595 C 221.980 20.933, 220.330 16.328, 214.396 14.952 C 208.146 13.502, 206.971 13.791, 203.047 17.750 M 196 199.662 C 183.743 200.709, 169.159 203.199, 163.768 205.165 C 154.562 208.521, 149.878 216.164, 154.616 220.096 C 157.313 222.335, 206.514 214.485, 210.250 211.219 C 212.281 209.445, 212.516 204.262, 210.675 201.842 C 209.276 200.003, 202.974 199.067, 196 199.662" stroke="none" fill="black" fill-rule="evenodd"/>
</svg>