<svg xmlns="http://www.w3.org/2000/svg" width="300" height="300" viewBox="0 0 300 300" version="1.1">
	<path d="M 90.559 16.532 C 88.117 18.379, 88.070 25.665, 90.462 31.500 C 92.634 36.798, 97.147 45.367, 98.109 46.020 C 99.405 46.901, 101 51.967, 101 55.205 C 101 60.552, 106.688 62.320, 109.141 57.736 C 112.579 51.312, 111.656 44.676, 105.909 34.492 C 104.309 31.658, 102.997 28.700, 102.994 27.919 C 102.982 24.778, 100.757 18.757, 98.935 16.935 C 96.649 14.649, 93.264 14.486, 90.559 16.532 M 178.709 18.434 C 177.920 19.222, 176.960 22.260, 176.574 25.184 C 175.887 30.393, 172.297 42.572, 167.343 56.500 C 165.974 60.350, 163.676 66.875, 162.238 71 C 160.799 75.125, 156.782 84.114, 153.311 90.975 C 149.840 97.836, 147 104.216, 147 105.153 C 147 107.402, 149.675 110, 151.990 110 C 156.834 110, 166.005 96.750, 174.032 78.156 L 177.634 69.811 186.067 69.569 C 191.833 69.403, 196.872 68.539, 202 66.839 C 219.570 61.013, 236.727 58.420, 251.137 59.412 C 260.682 60.070, 260.933 60.031, 262.472 57.683 C 267.068 50.668, 256.751 45, 239.387 45 C 226.507 45, 213.139 47.768, 190.500 55.123 C 187.200 56.196, 183.600 57.359, 182.500 57.710 C 180.873 58.228, 180.710 58.082, 181.627 56.923 C 184.279 53.573, 189.360 35.519, 189.430 29.200 C 189.497 23.065, 189.347 22.653, 186.038 19.891 C 182.141 16.638, 180.777 16.366, 178.709 18.434 M 123.500 59.554 C 100.281 65.688, 70.379 72.485, 58.176 74.402 C 46.739 76.199, 44 77.763, 44 82.500 C 44 89.838, 52.590 90.751, 74.510 85.742 L 84.520 83.454 74.451 103.477 C 68.914 114.490, 63.886 124.400, 63.280 125.500 C 62.673 126.600, 60.607 130.875, 58.689 135 C 56.771 139.125, 53.515 146.100, 51.454 150.500 C 45.142 163.970, 46.516 170.725, 56.031 173.008 C 62.506 174.561, 70.441 173.089, 80.500 168.471 C 84.350 166.703, 87.615 165.352, 87.756 165.468 C 88.151 165.793, 83.599 174.113, 76.317 186.373 C 64.766 205.822, 63.286 208.372, 59.992 214.500 C 58.218 217.800, 56.017 221.625, 55.102 223 C 54.187 224.375, 51.546 229.325, 49.234 234 C 45.628 241.287, 44.935 243.735, 44.374 251.155 C 43.732 259.644, 43.772 259.863, 46.456 262.547 C 49.115 265.206, 49.422 265.266, 57.346 264.669 C 64.822 264.105, 75.573 261.500, 80.500 259.059 C 81.600 258.514, 85.078 256.957, 88.228 255.599 C 94.091 253.071, 99.637 249.221, 106.216 243.111 C 109.607 239.963, 109.987 239.829, 110.561 241.580 C 114.690 254.187, 119.887 261, 125.374 261 C 129.315 261, 133 257.857, 133 254.496 C 133 253.161, 131.740 250.591, 130.201 248.785 C 123.668 241.119, 119.252 221.096, 121.923 211.254 C 123.347 206.005, 122.076 203, 118.430 203 C 111.936 203, 106.015 211.351, 105.508 221.224 C 105.133 228.520, 104.044 229.737, 90.961 237.462 C 83.011 242.156, 59.779 250.485, 59.162 248.862 C 58.731 247.727, 64.796 232.988, 66.512 231 C 67.225 230.175, 69.134 226.800, 70.755 223.500 C 76.889 211.014, 102.449 165.584, 109.636 154.394 C 111.440 151.586, 113.784 147.084, 114.846 144.391 C 115.908 141.697, 117.704 137.920, 118.838 135.997 C 119.971 134.074, 121.196 130.637, 121.560 128.360 C 122.106 124.938, 121.854 123.854, 120.110 122.110 C 117.566 119.566, 116.164 119.495, 113.411 121.772 C 110.241 124.394, 107.461 128.953, 105.637 134.519 C 104.733 137.279, 102.420 141.873, 100.497 144.729 C 98.573 147.585, 97 150.437, 97 151.068 C 97 151.698, 96.416 151.990, 95.702 151.716 C 93.554 150.892, 79.957 153.680, 72.727 156.427 C 63.601 159.894, 62.672 159.826, 63.508 155.750 C 63.875 153.963, 65.936 148.761, 68.088 144.192 C 70.240 139.622, 72 135.628, 72 135.315 C 72 135.002, 77.493 123.666, 84.207 110.123 C 90.922 96.580, 96.659 84.425, 96.957 83.111 C 97.563 80.444, 102.306 78.711, 126.378 72.358 C 133.461 70.489, 139.648 68.717, 140.128 68.421 C 141.742 67.424, 141.018 62.018, 139 60 C 136.658 57.658, 131.263 57.503, 123.500 59.554 M 227.500 88.489 C 224.200 89.703, 217.988 92.340, 213.695 94.348 C 209.402 96.357, 205.519 98, 205.067 98 C 204.615 98, 203.746 98.601, 203.137 99.335 C 202.527 100.070, 200.110 101.274, 197.764 102.013 C 185.433 105.893, 168.065 113.837, 160.320 119.139 C 158.021 120.712, 155.869 122, 155.539 122 C 154.895 122, 148.960 128.484, 147.798 130.458 C 146.511 132.645, 148.179 135.912, 151.246 137.214 L 154.278 138.500 153.638 185.715 C 152.934 237.734, 152.936 237.759, 159.019 241.352 C 165.442 245.146, 171.217 242.795, 181.908 232.032 C 190.117 223.767, 190.915 222.101, 188.839 217.547 C 187.933 215.558, 186.948 215, 184.339 215 C 182.503 215, 181 215.420, 181 215.933 C 181 216.446, 180.213 217.122, 179.250 217.436 C 178.287 217.751, 175.290 220.049, 172.589 222.543 C 169.888 225.038, 167.338 226.723, 166.923 226.289 C 166.507 225.855, 166.424 203.951, 166.737 177.614 L 167.307 129.728 174.668 126.327 C 178.717 124.456, 185.060 121.995, 188.765 120.858 C 192.469 119.721, 195.950 118.448, 196.500 118.028 C 197.050 117.609, 199.975 116.342, 203 115.213 C 206.025 114.083, 213.742 110.654, 220.150 107.591 C 226.557 104.529, 234.570 101.377, 237.956 100.587 C 241.343 99.797, 244.763 98.612, 245.557 97.953 C 247.232 96.562, 247.469 90.746, 245.965 87.934 C 244.537 85.267, 235.519 85.538, 227.500 88.489 M 253.327 125.458 C 248.786 127.434, 242.495 134.289, 238.738 141.357 C 234.912 148.553, 225.907 158.486, 220.024 162 C 210.070 167.945, 208.201 170.987, 211.557 175.777 C 213.684 178.815, 217.814 178.632, 223.706 175.240 C 226.343 173.721, 229.650 171.892, 231.055 171.175 C 236.604 168.342, 243.453 161.256, 250.521 151.034 C 254.595 145.142, 259.970 138.439, 262.464 136.140 C 268.179 130.872, 268.414 127.833, 263.316 125.150 C 260.468 123.651, 257.254 123.750, 253.327 125.458 M 179.115 130.885 C 175.498 134.502, 177.007 147.572, 182.390 159.238 C 185.614 166.225, 194.695 182.266, 198.955 188.500 C 200.083 190.150, 204.145 196.225, 207.983 202 C 216.499 214.815, 234.331 234.615, 251.039 249.807 C 270.155 267.188, 279.900 274, 285.649 274 C 287.813 274, 291 270.209, 291 267.635 C 291 264.692, 287.426 260.002, 285.177 259.995 C 284.255 259.993, 281.904 258.530, 279.953 256.745 C 278.003 254.960, 274.004 251.475, 271.068 249 C 254.755 235.251, 232.915 213.221, 229.589 207.160 C 229.087 206.247, 228.104 205.156, 227.403 204.736 C 225.407 203.540, 205.947 173.844, 198.088 160 C 194.185 153.125, 189.764 144.350, 188.264 140.500 C 186.764 136.650, 184.568 132.436, 183.384 131.135 L 181.231 128.769 179.115 130.885" stroke="none" fill="black" fill-rule="evenodd"/>
</svg>