<svg xmlns="http://www.w3.org/2000/svg" width="300" height="300" viewBox="0 0 300 300" version="1.1">
	<path d="M 175.570 38.124 C 170.915 41.786, 172.985 46.544, 181.807 52.462 C 186.865 55.855, 190.048 60, 190.939 64.354 C 191.389 66.558, 192.381 67.762, 194.305 68.438 C 198.444 69.894, 200.455 67.333, 200.359 60.727 C 200.265 54.229, 196.205 47.905, 188.290 41.929 C 180.796 36.271, 178.716 35.649, 175.570 38.124 M 63.443 47.446 C 61.524 50.376, 62.236 51.989, 66.858 55.183 C 71.733 58.550, 77.530 69.914, 83.144 87.105 C 84.618 91.619, 84.597 91.769, 82.074 94.671 C 70.215 108.311, 66.374 112.557, 58.500 120.730 C 48.392 131.222, 45.444 135.625, 47.151 137.682 C 49.843 140.925, 53.040 139.091, 67.320 126.112 C 75.119 119.024, 83.040 111.610, 84.923 109.636 L 88.346 106.048 90.256 111.274 C 92.161 116.485, 94.280 123.914, 96.025 131.500 C 96.532 133.700, 97.592 137.859, 98.381 140.743 L 99.815 145.986 96.922 149.084 C 95.330 150.787, 93.556 154.053, 92.979 156.341 C 91.383 162.666, 89.123 168.755, 85.388 176.788 C 83.525 180.797, 82 184.239, 82 184.438 C 82 184.637, 80.197 187.657, 77.994 191.150 C 75.791 194.642, 73.697 198.175, 73.341 199 C 72.757 200.356, 67.031 208.768, 64.883 211.425 C 64.405 212.016, 62.385 214.525, 60.395 217 C 56.621 221.692, 53.608 223.904, 50.911 223.965 C 48.605 224.016, 46.727 228.622, 48.024 231.045 C 50.180 235.074, 56.350 234.782, 63.072 230.334 C 67.817 227.194, 81.220 210.931, 86.424 202 C 88.507 198.425, 90.617 194.825, 91.113 194 C 93.385 190.219, 99.558 176.111, 101.614 170 L 103.464 164.500 104.158 172 C 106.597 198.370, 106.989 208.186, 106.019 218.578 C 103.754 242.818, 103.274 246.688, 102.317 248.399 C 101.439 249.967, 101.159 249.780, 99.994 246.841 C 98.163 242.219, 96.071 240, 93.545 240 C 88.537 240, 87.835 244.088, 91.131 254.056 C 93.927 262.512, 97.151 266, 102.171 266 C 110.035 266, 114.360 257.907, 116.067 240 C 118.081 218.855, 118.236 211.306, 117.063 191.350 C 115.319 161.693, 111.051 140.346, 99.797 105 C 96.985 96.168, 97.031 95.445, 100.728 90.325 C 106.313 82.589, 114.854 69.236, 118.059 63.229 C 119.688 60.177, 121.510 57.091, 122.108 56.370 C 123.655 54.505, 123.634 48.468, 122.073 46.588 C 121.348 45.715, 119.460 45, 117.877 45 C 115.442 45, 114.577 45.785, 112.250 50.104 C 108.169 57.680, 99.143 72.800, 97.522 74.776 C 96.744 75.724, 95.231 77.615, 94.160 78.978 L 92.213 81.455 90.679 76.292 C 87.662 66.132, 78.350 49.760, 73.760 46.544 C 70.300 44.121, 65.338 44.555, 63.443 47.446 M 231.695 68.061 C 230.702 68.666, 229.516 70.142, 229.061 71.340 C 228.223 73.543, 221.684 75.072, 197 78.836 C 193.425 79.382, 187.125 80.342, 183 80.970 C 166.081 83.545, 155.984 85.237, 146.611 87.068 C 141.172 88.131, 133.949 89, 130.561 89 C 127.102 89, 123.874 89.526, 123.200 90.200 C 121.101 92.299, 121.884 95.725, 125.077 98.411 C 128.742 101.496, 133.997 101.790, 145.222 99.542 C 160.953 96.391, 163.126 96.166, 163.689 97.632 C 164.503 99.754, 160.786 106.727, 154.348 115.153 C 136.303 138.768, 133.402 142.341, 131.063 143.826 C 129.654 144.721, 128.169 145.914, 127.765 146.477 C 126.469 148.282, 126.950 151.767, 128.582 152.393 C 133.650 154.338, 140.497 150.581, 147.355 142.093 C 150.374 138.357, 154.718 133.241, 157.009 130.723 L 161.174 126.146 165.804 129.681 C 168.351 131.624, 171.491 133.616, 172.782 134.107 C 176.513 135.526, 183.605 135.180, 184.989 133.513 C 186.850 131.271, 185.449 127.608, 182.272 126.409 C 180.728 125.826, 176.985 123.431, 173.955 121.086 L 168.445 116.823 172.304 109.161 C 175.463 102.889, 176.055 100.820, 175.569 97.750 C 175.014 94.239, 175.140 94, 177.535 94 C 178.942 94, 185.135 93.135, 191.297 92.079 C 197.459 91.022, 204.975 89.867, 208 89.512 L 213.500 88.866 210.500 92.167 C 208.850 93.983, 207.236 95.700, 206.913 95.984 C 206.590 96.268, 204.659 101.450, 202.620 107.500 C 198.129 120.829, 194.688 128.191, 190.467 133.500 C 184.653 140.812, 185.042 145, 191.534 145 C 194.312 145, 195.769 143.967, 200.911 138.355 C 204.260 134.701, 207 131.266, 207 130.723 C 207 130.180, 207.951 128.197, 209.114 126.316 C 210.975 123.305, 211.423 123.061, 212.864 124.279 C 213.764 125.039, 216.608 126.864, 219.184 128.334 C 221.760 129.804, 224.156 131.917, 224.509 133.030 C 225.529 136.241, 229.451 138.364, 231.921 137.042 C 238.318 133.619, 232.872 123.340, 219.717 114.007 C 217.087 112.141, 215.149 110.138, 215.411 109.557 C 221.591 95.844, 222.182 91.381, 218.086 89.349 C 215.733 88.182, 215.771 88.137, 219.586 87.562 C 232.627 85.597, 244 79.472, 244 74.415 C 244 69.343, 236.199 65.315, 231.695 68.061 M 184.626 148.517 C 182.748 150.394, 182.639 153.744, 184.026 166.908 C 184.571 172.083, 184.860 176.473, 184.669 176.664 C 184.479 176.855, 180.537 177.713, 175.911 178.572 C 156.642 182.147, 128.556 190.482, 126.935 193.106 C 125.869 194.831, 126.857 196.820, 129.140 197.544 C 130.215 197.886, 134.111 197.709, 137.797 197.152 C 141.484 196.595, 150.575 195.385, 158 194.462 C 165.425 193.540, 174.779 192.228, 178.786 191.546 C 182.793 190.865, 186.306 190.686, 186.591 191.147 C 187.083 191.943, 188.472 228.981, 189.294 263.183 C 189.667 278.705, 189.648 278.872, 187.446 279.424 C 186.116 279.758, 184.953 281.050, 184.555 282.636 C 183.560 286.602, 189.029 292, 194.041 292 C 203.373 292, 203.663 288.068, 200.065 210.538 C 199.529 199.008, 199.248 189.419, 199.439 189.228 C 200.122 188.545, 223.577 185.036, 227.500 185.030 C 232.669 185.023, 254.235 182.194, 259.798 180.795 C 266.056 179.220, 270 175.171, 270 170.321 C 270 162.234, 263.264 158.730, 260.489 165.373 C 258.977 168.991, 256.909 169.964, 250.687 169.986 C 248.589 169.994, 242.289 170.650, 236.687 171.445 C 221.188 173.643, 197.860 176.193, 197.405 175.739 C 197.183 175.517, 196.705 170.496, 196.344 164.582 C 195.819 156.009, 195.255 153.188, 193.561 150.665 C 191.116 147.024, 187.087 146.056, 184.626 148.517" stroke="none" fill="black" fill-rule="evenodd"/>
</svg>