<svg xmlns="http://www.w3.org/2000/svg" width="300" height="300" viewBox="0 0 300 300" version="1.1">
	<path d="M 170.106 12.901 C 166.425 16.340, 166.342 17.581, 169.124 27.721 C 171.491 36.347, 171.263 46.252, 168.488 55.409 C 166.691 61.336, 166.566 67.166, 168.200 68.800 C 168.860 69.460, 171.032 70, 173.026 70 C 178.078 70, 180.405 67.131, 184.029 56.434 C 187.861 45.122, 188.608 36.058, 186.619 25 C 185.265 17.471, 184.687 16.129, 181.560 13.250 C 177.198 9.235, 174.131 9.141, 170.106 12.901 M 93 64.726 C 89.601 65.790, 85.481 65.976, 76.155 65.485 C 69.366 65.128, 58.456 65.155, 51.912 65.546 C 41.406 66.173, 39.690 66.534, 37.256 68.627 C 35.740 69.931, 34.163 70.998, 33.750 70.999 C 31.844 71.002, 33.143 77.862, 35.538 80.447 C 37.984 83.085, 38.432 83.182, 47.747 83.084 C 53.065 83.029, 57.863 82.537, 58.409 81.991 C 59.700 80.700, 66.700 80.706, 67.500 82 C 68.274 83.252, 86.404 83.327, 88.764 82.088 C 89.719 81.587, 92.750 80.273, 95.500 79.170 C 101.867 76.614, 104.458 73.363, 103.523 69.102 C 102.501 64.449, 98.801 62.911, 93 64.726 M 218.481 65.348 C 217.371 65.982, 215.413 67.558, 214.131 68.851 C 210.511 72.499, 204.925 74.536, 183.442 80.040 C 172.494 82.845, 162.951 85.626, 162.235 86.220 C 160.277 87.845, 146.585 93.641, 137.767 96.578 C 128.855 99.546, 126.766 101.181, 127.196 104.853 C 127.944 111.247, 141.448 111.939, 157.858 106.423 C 163.711 104.456, 169.533 102.183, 170.795 101.371 C 172.056 100.560, 179.031 98.391, 186.295 96.552 C 199.677 93.164, 212.247 88.869, 214.671 86.858 C 216.312 85.496, 216.322 85.159, 214.447 94.643 C 210.458 114.829, 204.674 134.449, 199.306 146 C 197.390 150.125, 195.154 155.075, 194.339 157 C 190.353 166.410, 186.488 173.860, 181.571 181.611 L 176.175 190.115 173.088 185.627 C 171.389 183.159, 170 180.824, 170 180.438 C 170 178.688, 155.334 159.582, 151.159 155.893 C 140.618 146.581, 132.432 142.711, 129.493 145.650 C 127.211 147.932, 127.694 150.334, 131.084 153.563 C 132.781 155.178, 135.797 158.750, 137.786 161.500 C 139.775 164.250, 142.437 167.574, 143.701 168.886 C 144.966 170.199, 146 171.640, 146 172.088 C 146 173.244, 159.589 196.450, 163.123 201.328 L 166.067 205.393 157.284 214.317 C 149.944 221.774, 147.125 223.886, 140.133 227.166 C 135.531 229.325, 131.143 231.714, 130.383 232.474 C 128.364 234.493, 128.693 238.693, 131.053 241.053 C 132.783 242.783, 133.847 243, 137.803 242.429 C 148.518 240.884, 159.220 234.852, 169.159 224.758 L 174.984 218.841 178.348 221.671 C 180.198 223.227, 184.404 227.650, 187.695 231.500 C 190.986 235.350, 196.338 240.736, 199.589 243.469 C 202.840 246.202, 207.330 250.252, 209.566 252.469 C 213.447 256.316, 225.567 266.426, 239.870 277.748 C 247.146 283.508, 257.049 289, 260.158 289 C 262.566 289, 264.653 287.042, 265.989 283.529 C 267.503 279.547, 266.070 277.769, 253.613 268.171 C 237.866 256.039, 187 207.802, 187 205 C 187 204.416, 190.152 199.299, 194.005 193.630 C 197.858 187.960, 202.798 179.200, 204.983 174.162 C 207.168 169.124, 210.558 161.580, 212.517 157.396 C 216.322 149.269, 224.436 124.982, 228.018 111 C 230.942 99.584, 231.788 83.523, 229.708 78.912 C 228.862 77.035, 227.884 73.399, 227.535 70.831 C 226.981 66.746, 226.514 66.026, 223.802 65.081 C 222.097 64.486, 220.656 64.044, 220.601 64.098 C 220.545 64.152, 219.592 64.714, 218.481 65.348 M 79.422 94.645 C 77.417 96.650, 75.079 99.912, 74.226 101.895 C 72.578 105.726, 72.157 117.895, 73.389 126.108 L 74.077 130.695 64.205 133.347 C 58.776 134.806, 52.201 136, 49.595 136 C 44.113 136, 42 137.597, 42 141.740 C 42 148.462, 49.580 151.721, 61.392 150.078 C 65.417 149.518, 69.930 148.597, 71.421 148.030 C 72.911 147.464, 74.391 147, 74.709 147 C 75.819 147, 74.087 177.556, 72.583 184.500 C 71.634 188.882, 68.582 196.403, 64.423 204.608 C 58.639 216.017, 57.930 218, 58.950 219.906 C 59.594 221.110, 61.107 222.458, 62.311 222.902 C 65.406 224.041, 76.285 222.646, 76.819 221.042 C 77.060 220.321, 80.011 217.241, 83.378 214.198 C 91.669 206.704, 116.999 180.864, 123.078 173.698 C 125.830 170.454, 128 166.894, 128 165.622 C 128 162.889, 124.129 158.993, 121.436 159.017 C 120.303 159.027, 112.684 165.653, 103.063 174.997 C 94.023 183.776, 86.493 190.826, 86.330 190.664 C 86.167 190.501, 86.491 188.822, 87.050 186.934 C 89.283 179.385, 90.989 163.787, 90.994 150.865 C 91 137.479, 91.045 137.200, 93.465 135.615 C 94.820 134.727, 96.377 133.164, 96.924 132.143 C 98.321 129.532, 96.423 123.046, 94.203 122.848 C 93.266 122.764, 91.825 122.651, 91.001 122.596 C 89.927 122.525, 89.281 120.702, 88.721 116.166 C 87.925 109.718, 88.763 103.056, 91.090 97.330 C 92.758 93.225, 91.113 91, 86.411 91 C 83.897 91, 82.162 91.905, 79.422 94.645" stroke="none" fill="black" fill-rule="evenodd"/>
</svg>