<svg xmlns="http://www.w3.org/2000/svg" width="300" height="300" viewBox="0 0 300 300" version="1.1">
	<path d="M 195.056 10.527 C 192.156 13.384, 191.210 19.257, 191.084 35.201 C 190.952 51.944, 193.524 60, 199 60 C 202.994 60, 205 56.538, 205 49.644 L 205 43.288 213.245 42.600 C 223.227 41.767, 234.540 39.324, 238.165 37.218 C 242.831 34.506, 243.608 29.409, 239.833 26.276 C 238.048 24.795, 211.330 26.218, 208.059 27.968 L 205.813 29.170 206.506 21.780 C 207.166 14.733, 207.073 14.241, 204.510 11.195 C 201.314 7.396, 198.442 7.194, 195.056 10.527 M 165.106 20.066 C 161.030 22.272, 156.010 29.479, 156.004 33.133 C 156 35.691, 155.783 35.784, 148.250 36.436 C 132.136 37.830, 118.942 43.434, 121.587 47.761 C 124.835 53.075, 135.439 54.382, 148.068 51.024 C 152.155 49.936, 156.041 49.036, 156.703 49.024 C 157.365 49.011, 158.686 50.644, 159.640 52.653 C 162.082 57.799, 167.557 63, 170.533 63 C 173.340 63, 177.418 59.439, 176.634 57.673 C 169.837 42.368, 169.088 38.274, 171.472 29.465 C 173.348 22.535, 173.137 20.669, 170.306 19.180 C 169.018 18.502, 167.527 18.757, 165.106 20.066 M 212.500 70.981 C 201.029 71.747, 198.396 72.409, 195.208 75.329 C 193.465 76.925, 192.506 77.185, 191.208 76.413 C 188.412 74.749, 186.083 75.917, 183.981 80.037 C 181.188 85.513, 181.167 99.943, 183.944 105.391 C 185.499 108.440, 185.656 109.579, 184.725 111.069 C 183.779 112.583, 183.950 113.457, 185.632 115.717 C 189.665 121.135, 201.149 119.748, 223.289 111.169 C 228.351 109.207, 230.223 107.961, 230.647 106.269 C 230.961 105.021, 231.862 104, 232.651 104 C 235.151 104, 243.538 95.267, 246.321 89.766 C 249.823 82.845, 249.714 80.155, 245.750 75.592 C 242.802 72.199, 241.850 71.769, 235.500 70.959 C 227.910 69.990, 227.335 69.991, 212.500 70.981 M 139.831 75.377 C 133.039 76.410, 129.457 78.017, 127 81.134 C 126.725 81.483, 125.648 81.933, 124.606 82.134 C 120.961 82.838, 118.490 87.659, 118.612 93.829 C 118.755 101.108, 122.398 114.427, 125.566 119.250 C 128.304 123.420, 131.943 124.263, 134.193 121.250 C 135.132 119.993, 137.184 119.421, 141.479 119.221 C 152.189 118.720, 167.384 112.751, 169.041 108.393 C 170.144 105.492, 168.396 101, 166.165 101 C 164.961 101, 165.063 100.539, 166.664 98.750 C 170.592 94.358, 173 89.255, 173 85.321 C 173 75.324, 161.953 72.012, 139.831 75.377 M 212 86.050 C 205.125 87.068, 198.761 87.682, 197.857 87.416 C 196.467 87.008, 196.104 88.178, 195.498 95.024 C 195.104 99.474, 194.951 103.284, 195.158 103.491 C 195.552 103.886, 205.617 102.001, 217.527 99.303 C 224.086 97.817, 224.764 97.404, 227.719 93.105 C 232.256 86.505, 232.535 85.376, 229.807 84.645 C 226.857 83.855, 226.822 83.858, 212 86.050 M 68 88.194 C 64.425 89.316, 58.429 90.568, 54.676 90.977 C 46.829 91.831, 42.665 94.307, 42.178 98.409 C 41.811 101.494, 43.191 103.531, 46.975 105.487 C 49.585 106.837, 52.610 106.561, 68.165 103.551 C 71.140 102.975, 71.312 103.057, 69.758 104.307 C 67.222 106.348, 64.031 114.150, 62.631 121.732 C 61.945 125.453, 60.777 128.669, 59.956 129.096 C 59.155 129.514, 55.507 131.194, 51.849 132.829 C 44.157 136.268, 41 139.037, 41 142.345 C 41 147.928, 49.924 149.932, 57.265 145.998 L 61 143.996 60.992 169.748 C 60.988 183.964, 60.489 198.412, 59.877 202 C 59.268 205.575, 58.747 209.043, 58.718 209.707 C 58.667 210.896, 57.430 211.283, 49.500 212.592 C 39.797 214.194, 33.165 219.649, 35.002 224.518 C 36.304 227.967, 40.246 229.337, 47.198 228.754 C 55.118 228.090, 73.925 223.474, 79.377 220.855 C 88.937 216.264, 93.575 213.647, 94.750 212.179 C 97.981 208.144, 94.439 200.997, 89.211 201.004 C 87.720 201.006, 85.124 201.847, 83.442 202.872 C 81.760 203.898, 78.015 205.431, 75.119 206.280 C 70.243 207.710, 69.902 207.701, 70.505 206.162 C 72.253 201.704, 73.997 187.344, 73.999 177.408 C 73.999 171.308, 74.290 160.277, 74.644 152.895 L 75.287 139.474 81.394 137.548 C 90.934 134.540, 95.045 129.285, 91.509 124.615 C 90.358 123.095, 89.253 122.841, 85.791 123.302 C 83.431 123.616, 80.426 124.195, 79.114 124.589 C 76.751 125.297, 76.736 125.256, 77.596 120.402 C 78.074 117.706, 78.472 112.125, 78.482 108 C 78.492 103.875, 78.950 100.169, 79.500 99.765 C 80.050 99.361, 83.062 99.024, 86.193 99.015 C 90.933 99.003, 92.147 98.628, 93.443 96.777 C 95.637 93.645, 95.383 91.292, 92.545 88.455 C 90.342 86.251, 89.293 86.008, 82.295 86.076 C 77.436 86.124, 72.052 86.921, 68 88.194 M 136.108 89.734 L 132.716 90.148 133.381 98.797 C 133.747 103.554, 134.448 107.848, 134.939 108.339 C 135.462 108.862, 136.785 108.563, 138.138 107.616 C 139.407 106.727, 141.906 106, 143.691 106 C 146.086 106, 146.794 105.627, 146.392 104.578 C 145.634 102.603, 147.508 99.441, 152.773 93.812 L 157.274 89 148.387 89.160 C 143.499 89.248, 137.974 89.506, 136.108 89.734 M 147.283 125.750 C 145.672 127.263, 143.487 129.850, 142.427 131.500 C 141.367 133.149, 139.965 135.174, 139.310 136 C 138.656 136.825, 134.381 142.501, 129.810 148.612 C 119.794 162.005, 113.558 169.421, 105.251 177.814 C 97.249 185.900, 96.527 187.235, 98.765 189.820 C 103.181 194.925, 108.962 192.478, 121.259 180.297 L 129.500 172.134 129.500 220.817 C 129.500 274.546, 129.440 274, 135.369 274 C 137.182 274, 138.991 273.676, 139.387 273.280 C 139.783 272.884, 141.693 272.696, 143.631 272.863 C 145.569 273.030, 152.182 272.234, 158.327 271.094 C 176.286 267.763, 197.516 264.886, 211.500 263.887 C 218.650 263.377, 230.007 262.574, 236.738 262.103 C 250.247 261.157, 254 259.727, 254 255.524 C 254 250.987, 251.927 248.077, 248.197 247.377 C 242.710 246.348, 205.575 247.718, 194.500 249.358 C 180.046 251.500, 175.995 251.894, 176.036 251.155 C 176.055 250.795, 176.723 247.800, 177.520 244.500 C 178.317 241.200, 178.976 234.145, 178.984 228.823 L 179 219.147 184.468 216.643 C 187.476 215.266, 191.976 212.737, 194.468 211.022 C 198.542 208.219, 199 207.508, 199 203.987 C 199 200.961, 198.488 199.787, 196.750 198.825 C 194.098 197.358, 192.842 197.508, 187.500 199.927 C 179.748 203.438, 179 203.471, 179 200.295 C 179 197.246, 180.883 195.923, 190 192.567 C 199.933 188.909, 201.500 187.756, 201.500 184.099 C 201.500 181.601, 200.804 180.196, 198.843 178.732 C 196.189 176.751, 196.179 176.751, 189.188 178.874 C 180.135 181.624, 179 181.589, 179 178.559 C 179 177.216, 179.492 175.814, 180.094 175.442 C 180.696 175.070, 180.985 173.702, 180.736 172.401 C 180.345 170.353, 180.766 169.949, 183.892 169.375 C 189.527 168.340, 202.129 162.073, 205.212 158.774 C 206.745 157.132, 208 154.969, 208 153.967 C 208 151.607, 203.099 147.690, 201.609 148.859 C 200.057 150.077, 177.962 156.357, 160 160.687 C 156.425 161.549, 152.375 163.038, 151 163.996 C 149.625 164.954, 147.543 166.035, 146.372 166.397 C 144.388 167.013, 144.213 166.634, 143.776 160.779 C 143.324 154.727, 143.455 154.287, 147.404 148.624 C 149.657 145.392, 152.158 141.792, 152.962 140.624 C 153.766 139.456, 155.453 137.228, 156.712 135.673 C 159.655 132.038, 159.644 127.954, 156.686 125.174 C 153.589 122.265, 150.813 122.435, 147.283 125.750 M 171.750 134.470 C 169.733 137.243, 169.450 142.050, 171.200 143.800 C 171.860 144.460, 173.408 145, 174.641 145 C 175.874 145, 177.160 145.450, 177.500 146 C 178.544 147.689, 182.890 147.110, 185 145 C 187.798 142.202, 187.499 139.638, 183.896 135.535 C 179.982 131.076, 174.563 130.601, 171.750 134.470 M 158.500 176.647 C 156.814 177.566, 152.983 178.330, 149.756 178.391 L 144.012 178.500 144.006 187.250 C 144.002 193.592, 144.344 195.997, 145.250 195.990 C 145.938 195.985, 148.907 194.860, 151.849 193.490 C 154.791 192.121, 157.829 191, 158.599 191 C 161.932 191, 164 187.171, 164 181 C 164 174.391, 163.445 173.952, 158.500 176.647 M 157 206.571 C 153.425 207.878, 148.813 208.959, 146.750 208.973 C 143.783 208.994, 143 209.385, 143 210.843 C 143 212.587, 143.467 212.620, 151.750 211.447 C 162.716 209.895, 164 209.365, 164 206.393 C 164 205.077, 163.887 204.044, 163.750 204.097 C 163.613 204.150, 160.575 205.263, 157 206.571 M 155.500 227.146 C 151.650 228.211, 147.262 228.917, 145.750 228.714 L 143 228.346 143 242.761 L 143 257.176 146.750 256.617 C 148.813 256.310, 153.084 255.769, 156.242 255.415 C 161.916 254.779, 161.997 254.724, 163.049 250.818 C 164.458 245.585, 164.810 225.776, 163.500 225.455 C 162.950 225.320, 159.350 226.081, 155.500 227.146" stroke="none" fill="black" fill-rule="evenodd"/>
</svg>