<svg xmlns="http://www.w3.org/2000/svg" width="300" height="300" viewBox="0 0 300 300" version="1.1">
	<path d="M 122 24.148 C 117.875 25.236, 113.375 26.700, 112 27.400 C 104.846 31.043, 95.430 36.265, 93.118 37.872 C 88.904 40.801, 78.599 45.745, 73.870 47.105 C 71.466 47.797, 68.263 49.212, 66.750 50.250 C 62.204 53.368, 63.668 58, 69.200 58 C 72.457 58, 72.758 59.598, 70.634 65.624 C 69.883 67.756, 68.731 72.875, 68.074 77 C 63.953 102.886, 56.162 136.790, 52.718 143.829 C 50.332 148.703, 57.317 154.472, 61.450 151.041 C 63.917 148.994, 70.805 126.714, 75.374 106 C 82.393 74.183, 83.279 68.890, 82.673 62.401 C 82.236 57.723, 82.402 56.001, 83.288 56.005 C 83.954 56.008, 92.404 52.176, 102.065 47.489 C 116.707 40.386, 121.235 38.664, 129.272 37.142 C 134.575 36.138, 139.608 34.741, 140.457 34.036 C 142.518 32.326, 142.414 28.671, 140.250 26.783 C 135.240 22.413, 130.932 21.791, 122 24.148 M 195 28.051 C 192.525 28.491, 187.665 28.885, 184.200 28.926 C 177.595 29.004, 172.670 30.812, 171.621 33.545 C 170.310 36.962, 171.026 39.971, 173.543 41.620 C 176.130 43.315, 181.872 43.248, 195.433 41.364 L 200.365 40.678 197.976 44.089 C 195.119 48.168, 172.873 70.563, 164.720 77.569 C 157.934 83.400, 156.734 87.347, 161.003 89.797 C 163.203 91.059, 163.929 91.038, 167.003 89.619 C 171.469 87.557, 184.071 78.313, 189.072 73.429 L 192.924 69.669 193.994 72.485 C 194.956 75.014, 194.757 75.565, 192.048 77.900 C 186.744 82.471, 170 104.231, 170 106.552 C 170 109.642, 172.426 111.361, 175.645 110.553 C 177.114 110.184, 181.395 106.910, 185.158 103.277 C 188.921 99.644, 192 97.259, 192 97.977 C 192 100.124, 177.476 113.488, 173.499 115 C 171.147 115.894, 170.472 117.503, 170.981 121 C 171.562 124.987, 176.511 124.911, 184.232 120.796 C 190.430 117.492, 196.842 110.343, 198.624 104.750 C 200.775 97.999, 202.719 103.915, 202.912 117.798 C 202.990 123.382, 202.700 124.373, 200.354 126.548 C 198.899 127.896, 197.332 129, 196.873 129 C 195.014 129, 194.771 134.089, 196.536 136.040 C 199.383 139.186, 204.330 138.600, 208.766 134.592 C 214.037 129.830, 216.322 123.042, 215.843 113.565 C 215.435 105.476, 215.275 105.558, 221.557 110.641 C 227.688 115.603, 238.133 120.118, 244.752 120.668 C 251.915 121.263, 258.931 118.150, 260.461 113.697 C 262.211 108.602, 260.475 107.515, 250.391 107.390 C 241.801 107.284, 241.229 107.128, 233.500 102.794 C 229.100 100.326, 223.813 97.753, 221.750 97.076 C 219.688 96.399, 218 95.694, 218 95.510 C 218 95.326, 220.813 93.153, 224.250 90.682 C 231.453 85.503, 236.110 80.766, 241.635 73 C 246.054 66.787, 246.309 63.367, 242.424 62.392 C 236.772 60.973, 233.749 62.699, 222.789 73.606 C 216.932 79.435, 211.670 83.914, 211.096 83.559 C 210.522 83.204, 209.408 80.746, 208.621 78.096 C 207.323 73.724, 205.296 69.296, 204 68 C 199.669 63.669, 199.658 63.744, 205.589 56.923 C 208.661 53.391, 211.878 49.153, 212.739 47.507 C 216.299 40.694, 219.287 38, 223.282 38 C 225.362 38, 228.625 37.348, 230.532 36.551 C 234.200 35.019, 234.955 32.653, 232.965 28.934 C 232.002 27.136, 230.793 27.009, 215.715 27.125 C 206.797 27.194, 197.475 27.611, 195 28.051 M 117.005 48.992 C 115.190 52.382, 114.639 66.419, 115.935 76.221 C 116.994 84.221, 120.370 95.943, 126.477 112.824 C 130.713 124.534, 139.995 137.993, 144.779 139.366 C 147.382 140.112, 148.408 139.941, 150.009 138.492 C 152.752 136.010, 152.570 134.944, 148.033 126.938 C 145.851 123.087, 143.112 117.813, 141.946 115.218 C 136.152 102.317, 129.243 78.393, 126.433 61.500 C 125.518 56, 124.136 50.487, 123.362 49.250 C 121.619 46.465, 118.426 46.336, 117.005 48.992 M 104.464 51.771 C 103.528 52.864, 101.405 57.975, 99.745 63.129 C 96.325 73.751, 91.650 86.577, 89.038 92.500 C 86.603 98.023, 82.642 109.132, 80.115 117.528 C 77.397 126.560, 77.384 131.947, 80.073 135.365 C 83.148 139.275, 90.017 139.086, 96.309 134.919 C 101.697 131.350, 110 122.475, 110 120.285 C 110 119.244, 110.535 119.011, 111.750 119.522 C 115.906 121.269, 117.796 121.136, 119.830 118.953 C 121.827 116.808, 121.844 116.577, 120.255 113.110 C 119.344 111.124, 118.431 106.294, 118.225 102.377 C 117.895 96.095, 117.579 95.129, 115.546 94.203 C 113.613 93.322, 112.697 93.607, 109.871 95.966 C 106.667 98.639, 106.500 99.106, 106.500 105.387 C 106.500 111.738, 106.404 111.995, 104.042 111.997 C 102.559 111.999, 100.080 113.469, 97.792 115.703 C 95.706 117.740, 94 118.977, 94 118.453 C 94.001 116.794, 101.090 97.543, 102.066 96.550 C 102.580 96.028, 103.003 94.903, 103.006 94.050 C 103.010 93.198, 103.625 91.325, 104.375 89.889 C 107.655 83.602, 113.384 63.298, 113.425 57.817 C 113.448 54.691, 113.216 51.883, 112.910 51.577 C 112.604 51.271, 110.962 50.742, 109.260 50.402 C 106.900 49.930, 105.762 50.255, 104.464 51.771 M 196.046 92.451 L 193.651 95 196.267 95 C 199.312 95, 200.003 94.195, 199.095 91.701 C 198.499 90.066, 198.223 90.134, 196.046 92.451 M 190.193 158.250 C 188.568 161.137, 186.935 165.211, 186.564 167.303 C 186.193 169.394, 185.352 171.243, 184.695 171.411 C 176.012 173.637, 172.514 176.103, 171.326 180.839 C 170.240 185.165, 172.067 186.511, 178.880 186.403 L 185 186.307 185 193.076 L 185 199.845 181.250 201.043 C 179.188 201.702, 177.072 202.637, 176.550 203.121 C 174.595 204.930, 173.195 203.885, 172.706 200.250 C 171.942 194.568, 165.754 177.489, 163.595 175.104 C 161.190 172.448, 158.600 172.437, 154.904 175.068 C 150.781 178.004, 150.814 184.645, 154.991 192.136 C 156.636 195.086, 159.158 199.895, 160.597 202.822 C 162.036 205.749, 163.840 208.385, 164.606 208.679 C 165.373 208.973, 166 210.236, 166 211.485 C 166 216.170, 172.669 218.150, 179.961 215.630 C 182.414 214.782, 184.616 214.283, 184.853 214.520 C 185.886 215.553, 182.922 250.431, 181.737 251.184 C 181.057 251.616, 179.214 251.976, 177.643 251.985 C 173.513 252.007, 162.586 257.515, 159.577 261.091 C 154.769 266.805, 157.180 272.586, 163.330 270.093 C 168.846 267.858, 178.428 266.057, 179.450 267.064 C 181.066 268.656, 185.049 268.101, 188.223 265.841 C 190.551 264.183, 193.532 263.490, 201.076 262.852 C 210.939 262.018, 222.616 258.563, 226.038 255.465 C 227.502 254.141, 228.032 254.731, 231.489 261.542 C 235.762 269.961, 241.935 277, 245.044 277 C 246.170 277, 248.223 275.868, 249.608 274.483 C 252.508 271.583, 252.462 271.282, 247.316 259.500 C 243.962 251.820, 241.683 245.047, 238.962 234.669 C 237.529 229.207, 235.772 227, 232.857 227 C 229.877 227, 228.287 229.114, 226.363 235.631 C 223.961 243.768, 221.233 245.789, 210.250 247.572 C 198.176 249.532, 195.598 249.472, 196.483 247.250 C 196.867 246.287, 197.663 237.323, 198.252 227.328 L 199.323 209.156 203.411 208.102 C 208.883 206.690, 214 203.421, 214 201.336 C 214 200.405, 217.338 196.214, 221.417 192.022 C 229.306 183.915, 231.117 179.852, 229.288 174.365 C 227.442 168.827, 224.027 167.490, 211.974 167.587 L 201.121 167.674 201.231 162.833 C 201.318 159.035, 200.836 157.454, 198.996 155.496 C 195.455 151.727, 193.523 152.331, 190.193 158.250 M 100.204 162.570 C 97.371 164.554, 93.244 172.621, 92.417 177.791 C 91.861 181.269, 91.344 181.882, 88.142 182.859 C 81.443 184.901, 78 187.652, 78 190.962 C 78 195.105, 81.563 197.316, 87.481 196.845 L 92 196.486 92 204.705 L 92 212.924 87.750 214.785 L 83.500 216.645 82.890 211.573 C 81.472 199.788, 73.548 187, 67.664 187 C 61.853 187, 60.326 193.232, 64.401 200.322 C 65.721 202.620, 67.835 207.875, 69.098 212 C 70.361 216.125, 72.206 220.429, 73.197 221.564 C 74.189 222.700, 75 224.287, 75 225.092 C 75 225.897, 75.737 227.607, 76.637 228.892 C 78.037 230.891, 78.868 231.150, 82.387 230.678 C 84.649 230.375, 87.513 229.821, 88.750 229.447 L 91 228.767 91 246.744 C 91 256.631, 90.727 266.710, 90.394 269.142 C 89.723 274.041, 90.896 273.301, 74 279.481 C 65.734 282.505, 62.895 284.882, 63.731 288.081 C 64.801 292.172, 68.157 292.576, 80.717 290.128 C 87.084 288.888, 94.365 286.954, 96.897 285.832 C 107.335 281.205, 114.778 277.371, 119.477 274.200 L 124.454 270.842 126.175 273.171 C 129.858 278.152, 131.060 279, 134.443 279 C 136.868 279, 138.347 278.342, 139.443 276.777 C 141.192 274.282, 141.489 271.337, 140.044 270.833 C 138.425 270.269, 133.010 253.748, 133.005 249.357 C 133 244.858, 132.018 244, 126.876 244 C 120.857 244, 117.994 250.130, 120.252 258.182 C 120.884 260.435, 120.643 260.968, 118.752 261.515 C 116.809 262.076, 109.912 265.147, 103.619 268.252 C 101.989 269.057, 101.817 268.867, 102.329 266.827 C 102.653 265.533, 103.233 255.334, 103.618 244.162 L 104.316 223.851 111.174 220.784 C 118.498 217.510, 120.198 215.107, 118.042 211.078 C 117.108 209.334, 117.223 208.856, 118.707 208.309 C 121.325 207.343, 130.442 199.421, 133.404 195.537 C 134.808 193.696, 136.500 190.161, 137.163 187.681 C 138.299 183.432, 138.218 182.974, 135.746 179.733 C 132.287 175.199, 126.484 173.503, 119.500 174.986 C 116.750 175.570, 112.901 176.310, 110.946 176.629 L 107.392 177.211 107.813 170.599 C 108.392 161.509, 105.729 158.700, 100.204 162.570 M 200.750 182.689 C 199.312 183.065, 199 184.294, 199 189.573 C 199 193.108, 199.220 196, 199.489 196 C 200.454 196, 204.215 192.406, 208.644 187.250 L 213.155 182 207.827 182.116 C 204.897 182.180, 201.713 182.438, 200.750 182.689 M 116.500 188.984 C 114.850 189.412, 111.700 190.379, 109.500 191.132 L 105.500 192.501 105.204 198.677 L 104.908 204.854 108.100 202.177 C 114.567 196.754, 121 190.254, 121 189.143 C 121 187.876, 120.793 187.869, 116.500 188.984" stroke="none" fill="black" fill-rule="evenodd"/>
</svg>