<svg xmlns="http://www.w3.org/2000/svg" width="300" height="300" viewBox="0 0 300 300" version="1.1">
	<path d="M 145.406 10.471 C 140.271 12.631, 139.769 16.202, 140.877 42.743 C 141.587 59.771, 142.246 66.787, 143.342 68.984 C 144.165 70.633, 144.472 72.208, 144.026 72.484 C 143.579 72.760, 142.915 71.796, 142.549 70.341 C 142.184 68.886, 140.564 66.461, 138.948 64.952 C 136.372 62.545, 135.563 62.309, 132.359 63.032 C 127.847 64.049, 127.035 65.272, 127.015 71.075 C 126.981 81.322, 118.934 98.703, 111.020 105.623 C 108.900 107.477, 108.683 108.191, 109.520 110.542 C 111.142 115.095, 113.275 115.751, 118.386 113.268 L 122.854 111.097 127.177 116.461 C 130.921 121.108, 133.918 123.592, 139.867 126.983 C 141.778 128.073, 139.894 133.475, 135.249 140.229 C 130.196 147.575, 129.039 148.653, 123.656 151.034 C 114.466 155.099, 115.357 162, 125.072 162 C 139.238 162, 149.403 149.837, 160.455 119.662 C 164.604 108.337, 166.397 104.061, 170.020 96.861 C 173.947 89.056, 179 73.601, 179 69.398 C 179 67.027, 178.213 65.122, 176.545 63.455 C 172.787 59.696, 168.426 59.840, 159.825 64.007 L 154 66.828 154 63.561 C 154 57.089, 155.304 48, 156.233 48 C 156.755 48, 161.528 46.152, 166.841 43.893 C 172.153 41.633, 178.174 39.096, 180.220 38.254 C 185.431 36.110, 187.390 33.692, 186.569 30.419 C 184.924 23.863, 179.200 23.343, 165.432 28.500 C 160.292 30.425, 155.843 32, 155.544 32 C 155.245 32, 155 29.772, 155 27.049 C 155 19.425, 153.199 12.725, 150.648 10.855 C 148.740 9.458, 147.953 9.400, 145.406 10.471 M 219.500 55.594 C 205.635 59.629, 196 66.271, 196 71.795 C 196 77.030, 202.917 80.215, 206.061 76.427 C 208.127 73.937, 214.981 70.816, 221.190 69.536 C 224.328 68.890, 226.768 68.617, 226.613 68.930 C 226.458 69.244, 225.302 71.750, 224.044 74.500 C 222.033 78.894, 210.158 98, 209.437 98 C 209.287 98, 206.909 96.867, 204.153 95.483 C 197.051 91.916, 190.127 90.731, 187.250 92.591 C 186.012 93.391, 185 94.641, 185 95.368 C 185 97.108, 188.246 100, 190.200 100 C 191.049 100, 193.693 101.730, 196.076 103.845 L 200.409 107.691 196.245 110.707 C 191.693 114.005, 188.722 115.339, 182.247 116.992 C 176.797 118.384, 174.419 121.631, 176.118 125.361 C 179.004 131.693, 195.815 129.244, 205.766 121.041 L 209.446 118.008 214.473 122.796 C 222.096 130.057, 233.107 139.454, 237.423 142.383 C 240.577 144.523, 242.431 145, 247.604 145 C 253 145, 254.094 144.692, 255.050 142.907 C 256.993 139.276, 255.332 136.272, 249.236 132.395 C 244.106 129.131, 234.864 121.679, 223.595 111.720 L 219.689 108.269 223.095 103.919 C 224.968 101.527, 227.175 98.800, 228 97.860 C 231.978 93.325, 240.185 74.096, 240.781 67.916 C 241.873 56.586, 233.250 51.593, 219.500 55.594 M 157.826 80.108 C 155.104 81.836, 150.091 83.712, 145.826 84.597 C 141.797 85.434, 138.315 86.654, 138.088 87.309 C 137.861 87.964, 135.930 91.819, 133.797 95.876 C 131.663 99.932, 130.049 103.342, 130.209 103.453 C 130.369 103.564, 131.938 104.227, 133.697 104.927 C 135.455 105.626, 138.905 108.238, 141.363 110.732 L 145.832 115.265 149.502 107.427 C 151.521 103.116, 154.202 96.853, 155.460 93.509 C 156.719 90.165, 158.938 85.083, 160.391 82.215 C 161.845 79.347, 162.914 77.031, 162.767 77.070 C 162.620 77.108, 160.397 78.475, 157.826 80.108 M 71.500 96.021 C 69.850 96.508, 61.599 97.786, 53.164 98.860 C 40.188 100.513, 37.456 101.163, 35.414 103.081 C 32.222 106.080, 32.126 111.274, 35.223 113.443 C 37.674 115.161, 46.599 115.422, 56 114.053 C 59.025 113.612, 61.587 113.320, 61.694 113.403 C 61.801 113.487, 61.259 116.243, 60.488 119.528 C 59.718 122.812, 58.810 128.515, 58.470 132.201 L 57.851 138.901 52.176 140.565 C 49.054 141.480, 43.177 142.811, 39.115 143.523 C 35.053 144.236, 31.348 145.422, 30.880 146.159 C 29.241 148.746, 30.027 152.181, 32.923 155.077 C 35.450 157.604, 36.596 158, 41.386 158 C 44.568 158, 49.086 157.149, 52 156 C 54.791 154.900, 57.282 154, 57.537 154 C 57.792 154, 58 164.250, 58 176.777 C 58 195.133, 58.284 199.960, 59.461 201.640 C 60.617 203.291, 60.669 204.043, 59.711 205.252 C 57.076 208.575, 32.805 230, 31.676 230 C 30.320 230, 27 237.018, 27 239.884 C 27 240.913, 27.563 242.190, 28.250 242.722 C 31.464 245.209, 33.017 244.846, 38.219 240.391 C 41.124 237.903, 44.842 235.596, 46.483 235.262 C 50.014 234.546, 75.504 210.042, 85.767 197.500 C 89.367 193.100, 93.039 188.825, 93.928 188 C 101.306 181.151, 102.786 171.167, 96.652 169.628 C 93.021 168.716, 91.955 169.417, 87.307 175.769 C 85.001 178.921, 80.185 184.650, 76.605 188.500 L 70.095 195.500 70.048 172.326 L 70 149.152 73.138 146.826 C 78.492 142.857, 83.951 137.044, 84.544 134.681 C 84.856 133.439, 84.647 131.202, 84.080 129.711 C 82.730 126.160, 78.867 126.101, 74.328 129.563 L 70.968 132.126 71.579 126.813 C 72 123.154, 71.699 120.099, 70.610 117 C 69.740 114.525, 69.023 112.216, 69.015 111.869 C 69.007 111.522, 70.934 110.750, 73.298 110.155 C 81.949 107.977, 88.025 101.449, 85.359 97.197 C 84.134 95.244, 76.365 94.585, 71.500 96.021 M 199.079 147.227 C 195.519 150.707, 194.443 152.920, 192.882 159.963 C 192.065 163.652, 191.028 165.128, 187.335 167.859 C 183.332 170.821, 182.862 171.561, 183.372 174.109 C 183.800 176.252, 183.568 177, 182.475 177 C 181.348 177, 181 175.659, 181 171.318 C 181 163.539, 178.953 147.778, 177.744 146.250 C 176.336 144.470, 173.560 144.705, 171.828 146.750 C 169.174 149.883, 168 156.512, 168 168.366 C 168 178.774, 167.816 180.001, 166.250 180.014 C 165.287 180.021, 163.488 180.299, 162.250 180.630 C 160.446 181.114, 160 180.822, 160 179.159 C 160 177.977, 158.478 175.885, 156.458 174.293 C 154.510 172.757, 151.304 170.037, 149.333 168.250 C 143.560 163.015, 138.107 164.526, 138.032 171.382 C 138.009 173.476, 139.197 175.460, 142.382 178.645 C 144.792 181.056, 146.443 183.226, 146.051 183.469 C 145.658 183.711, 142.224 184.187, 138.418 184.526 C 123.563 185.849, 115.344 192.596, 120.425 199.296 C 122.645 202.223, 127.742 202.290, 141.500 199.574 C 148.650 198.163, 155.117 197.006, 155.870 197.004 C 157.121 197, 152.061 204.089, 148.021 208 C 146.580 209.395, 137.138 220.066, 130.416 227.897 C 124.149 235.197, 118.215 241.634, 111.677 248.226 C 105.792 254.160, 102 259.852, 102 262.752 C 102 263.201, 103.387 264.388, 105.082 265.389 C 108.041 267.137, 108.349 267.139, 112.832 265.442 C 120.440 262.562, 140.155 241.922, 150.724 225.773 C 161.559 209.217, 164.634 202.686, 163.138 199.405 C 162.536 198.082, 161.246 196.955, 160.271 196.900 C 159.297 196.844, 160.255 196.387, 162.401 195.884 C 164.546 195.380, 166.446 195.113, 166.623 195.290 C 167.126 195.793, 164.990 251.456, 164.083 261.500 C 163.636 266.450, 162.669 271.940, 161.935 273.700 C 160.746 276.547, 160.804 277.126, 162.455 278.950 C 164.805 281.547, 168.999 281.575, 172.254 279.015 C 176.521 275.658, 177.810 267.046, 179.063 233.500 C 179.680 217, 180.480 201.045, 180.842 198.045 L 181.500 192.590 190.500 190.973 C 211.083 187.275, 221 181.298, 221 172.590 C 221 168.440, 214.369 164.977, 212.430 168.113 C 211.628 169.410, 204.836 172.450, 200.500 173.452 L 197.500 174.146 200.757 170.768 C 204.704 166.675, 208 157.782, 208 151.225 C 208 143.348, 204.603 141.826, 199.079 147.227 M 202.115 206.632 C 198.976 208.831, 199.464 210.422, 205.250 216.850 C 208.137 220.058, 212.837 225.394, 215.692 228.709 C 218.548 232.023, 224.815 238.057, 229.619 242.117 C 234.423 246.178, 242.282 253.208, 247.084 257.739 C 257.962 268.007, 262.738 270.119, 266.521 266.336 C 268.979 263.878, 267.718 259.641, 262.754 253.671 C 257.326 247.145, 257.437 247.252, 244.453 236.054 C 238.429 230.858, 232.777 225.908, 231.893 225.054 C 227.821 221.116, 214.219 210.441, 210 207.873 C 205.812 205.323, 204.319 205.088, 202.115 206.632" stroke="none" fill="black" fill-rule="evenodd"/>
</svg>