<svg xmlns="http://www.w3.org/2000/svg" width="300" height="300" viewBox="0 0 300 300" version="1.1">
	<path d="M 138.087 41.538 C 133.461 44.006, 129.186 46.395, 128.587 46.848 C 127.989 47.300, 121.875 50.048, 115 52.954 C 108.125 55.860, 100.700 59.043, 98.500 60.027 C 90.213 63.735, 87.410 64.808, 84.295 65.464 C 82.338 65.876, 80.842 66.924, 80.451 68.155 C 79.811 70.171, 79.811 70.171, 77.655 68.172 C 74.046 64.825, 69.446 64.927, 67.868 68.391 C 66.972 70.356, 67.158 71.294, 68.908 73.662 C 75.432 82.486, 73.611 112.902, 63.530 163.500 C 62.763 167.350, 61.164 177.025, 59.976 185 C 55.139 217.493, 54.739 219.802, 50.524 239.484 C 49.112 246.078, 49.353 247.583, 52.052 249.028 C 54.918 250.561, 58.900 248.484, 60.518 244.611 C 63.552 237.350, 70.010 206.193, 69.991 198.914 C 69.986 197.036, 70.851 190.550, 71.915 184.500 C 72.978 178.450, 74.608 168.775, 75.536 163 C 76.465 157.225, 77.875 149.135, 78.669 145.022 C 82.915 123.019, 85.053 89.565, 82.765 80.942 L 81.290 75.385 85.895 75.324 C 92.462 75.237, 113.109 67.934, 128.864 60.124 C 147.121 51.074, 146.956 51.167, 151.750 47.297 C 156.750 43.261, 157.368 39.944, 153.453 38.161 C 149.331 36.282, 146.968 36.802, 138.087 41.538 M 189.145 60.140 C 188.410 61.316, 187.434 64.927, 186.977 68.162 C 186.367 72.478, 184.836 76.237, 181.231 82.273 C 172.688 96.573, 167 110.324, 167 116.678 C 167 119.324, 167.551 120.294, 169.578 121.217 C 173.648 123.072, 174.797 122.036, 179.245 112.500 C 180.528 109.750, 182.380 105.997, 183.361 104.160 C 185.051 100.994, 185.241 100.908, 186.994 102.495 C 189.628 104.878, 195.712 105.371, 201.279 103.653 L 206.057 102.179 205.424 105.839 C 205.076 107.853, 203.909 112.492, 202.829 116.148 C 200.875 122.768, 200.848 122.801, 196.249 123.959 C 193.709 124.599, 189.351 125.550, 186.565 126.073 C 175.663 128.120, 171.554 129.792, 169.695 132.939 C 165.838 139.468, 171.908 142.319, 183.872 139.597 C 187.735 138.719, 192.212 138, 193.822 138 L 196.749 138 192.889 149.250 C 190.766 155.438, 188.607 161.400, 188.091 162.500 C 181.526 176.500, 179.179 180.922, 176.342 184.639 C 172.476 189.704, 172.268 191.028, 174.960 193.464 C 179.132 197.239, 184.295 192.872, 193.283 177.964 C 198.922 168.611, 202.770 159.223, 208.125 141.749 L 210.500 133.997 216 131.959 C 224.390 128.851, 229.755 125.881, 234.596 121.665 C 239.270 117.595, 240.023 114.937, 237.463 111.551 C 236.119 109.774, 235.659 109.719, 232.244 110.924 C 230.185 111.651, 227.825 112.788, 227 113.451 C 226.175 114.113, 223.086 115.630, 220.135 116.820 L 214.771 118.984 215.394 116.742 C 215.737 115.509, 216.746 111.350, 217.636 107.500 C 218.527 103.650, 219.710 100.210, 220.266 99.856 C 220.821 99.501, 223.012 98.934, 225.135 98.594 C 227.258 98.255, 231.426 96.902, 234.398 95.587 C 241.054 92.644, 242.349 89.894, 238.767 86.312 L 236.321 83.867 228.661 85.313 L 221 86.760 221 77.580 C 221 66.075, 219.121 63.443, 214.189 68.039 C 212.770 69.361, 212 71.268, 212 73.463 C 212 77.209, 210.022 87.076, 209.036 88.246 C 208.483 88.903, 204.535 89.733, 193.380 91.537 L 190.260 92.042 194.717 83.101 C 200.057 72.391, 201.531 63.349, 198.485 59.984 C 196.024 57.264, 190.887 57.350, 189.145 60.140 M 130.420 71.314 C 125.997 76.383, 125.715 77.674, 126.277 90.279 C 126.788 101.741, 127.521 107.288, 131.655 131 C 133.667 142.545, 138.339 161.241, 141.120 168.883 C 142.245 171.972, 143.621 176.075, 144.178 178 C 144.735 179.925, 145.769 182.850, 146.477 184.500 C 147.184 186.150, 148.528 189.300, 149.464 191.500 C 156.372 207.743, 168.887 229.264, 179.702 243.499 C 185.427 251.035, 196.619 262.507, 204.776 269.200 C 211.519 274.734, 233.054 287.957, 235.449 288.034 C 236.027 288.053, 238.300 288.937, 240.500 290 C 243.412 291.407, 246.696 291.941, 252.576 291.966 C 259.871 291.997, 260.873 291.764, 262.948 289.555 C 264.640 287.754, 265.076 286.438, 264.603 284.555 C 263.953 281.964, 263.096 281.658, 257.357 281.966 C 250.728 282.322, 241.597 278.726, 226.055 269.638 C 208.537 259.394, 194.221 245.194, 179.667 223.627 C 172.343 212.773, 170.761 210.009, 164.392 196.933 C 158.593 185.027, 155.499 177.642, 152.691 169 C 143.720 141.393, 137.418 107.160, 136.427 80.645 C 136.266 76.325, 135.893 72.162, 135.598 71.395 C 134.941 69.682, 131.886 69.634, 130.420 71.314 M 110.688 79.250 C 109.793 81.037, 108.589 87.225, 108.011 93 C 106.808 105.028, 105.131 114.085, 101.990 125.500 C 100.780 129.900, 98.961 136.650, 97.948 140.500 C 96.935 144.350, 95.427 149.750, 94.596 152.500 C 87.610 175.635, 85.120 185.770, 84.350 194.196 C 83.753 200.737, 83.813 200.967, 86.927 204.080 C 89.908 207.062, 90.457 207.233, 95.413 206.721 C 101.691 206.073, 111.444 201.400, 117.007 196.375 L 120.954 192.809 124.345 196.404 C 126.210 198.382, 128.696 200, 129.868 200 C 134.492 200, 137.958 192.870, 134.663 190.135 C 133.321 189.021, 132.532 185.974, 129.384 169.748 C 127.756 161.356, 127.762 160.856, 129.529 157.575 C 131.066 154.722, 131.155 153.891, 130.064 152.577 C 128.164 150.287, 123.692 150.635, 121.222 153.264 C 116.366 158.433, 114.859 166.582, 117.108 175.513 C 118.168 179.726, 118.095 180.015, 115.358 182.375 C 113.786 183.731, 109.013 186.687, 104.750 188.944 C 95.070 194.071, 95.367 195.542, 101.129 171 C 102.226 166.325, 103.713 160.475, 104.433 158 C 113.219 127.786, 118.388 103.745, 119.668 87.143 C 120.168 80.660, 119.989 79.132, 118.561 77.704 C 115.781 74.924, 112.535 75.561, 110.688 79.250 M 213.200 151.200 C 211.494 152.906, 211.707 155.727, 213.996 161.749 C 217.629 171.308, 221.429 177.372, 227.607 183.471 C 238.855 194.576, 249.196 199.018, 255.823 195.592 C 260.855 192.989, 261.574 185.580, 257.014 183.315 C 254.967 182.298, 254.115 182.350, 252.193 183.609 C 250.080 184.994, 249.607 184.976, 247.180 183.414 C 243.065 180.767, 227.550 164.672, 223.927 159.293 C 217.855 150.275, 215.729 148.671, 213.200 151.200" stroke="none" fill="black" fill-rule="evenodd"/>
</svg>