<svg xmlns="http://www.w3.org/2000/svg" width="300" height="300" viewBox="0 0 300 300" version="1.1">
	<path d="M 164.219 20.267 C 161.229 23.450, 161.403 24.913, 165.500 31 C 167.425 33.861, 169 37.416, 169 38.900 C 169 44.333, 173.918 45.696, 178.694 41.586 C 181.050 39.559, 181.485 38.435, 181.404 34.578 C 181.324 30.743, 180.572 29.034, 176.858 24.242 C 171.611 17.471, 167.932 16.314, 164.219 20.267 M 234.950 42.380 C 234.648 42.684, 230.598 43.406, 225.950 43.984 C 221.303 44.562, 215.025 45.482, 212 46.029 C 208.975 46.575, 200.875 47.457, 194 47.990 C 169.845 49.859, 135.438 55.810, 124.790 59.959 L 120.080 61.794 117.706 58.647 C 116.401 56.916, 114.799 53.945, 114.147 52.045 C 112.394 46.938, 110.190 44, 108.113 44 C 105.706 44, 101 50.844, 101 54.344 C 101 58.060, 104.372 64.466, 109.532 70.552 C 111.889 73.331, 114.311 77.441, 114.916 79.687 C 115.926 83.438, 117.699 84.922, 121.250 84.986 C 123.521 85.028, 126 80.709, 126 76.709 L 126 72.418 132.250 70.794 C 148.692 66.521, 187.464 60.851, 213.340 58.934 C 220.028 58.439, 227.975 57.356, 231 56.529 C 234.025 55.701, 236.838 55.018, 237.250 55.012 C 239.748 54.972, 235.519 64.046, 231.663 67 C 223.201 73.481, 221.315 77.165, 224.829 80.345 C 227.231 82.519, 229.924 82.406, 233 80 C 234.375 78.924, 235.904 78.034, 236.397 78.022 C 238.560 77.969, 246.322 70.367, 249.024 65.655 C 255.237 54.823, 250.908 44.281, 239.500 42.464 C 237.300 42.114, 235.253 42.076, 234.950 42.380 M 200 70.476 C 190.195 74.068, 154.789 80.998, 146.212 81.006 C 138.037 81.012, 132.864 82.353, 129.350 85.375 C 127.212 87.214, 126.830 88.188, 127.384 90.395 C 129.015 96.890, 140.730 97.556, 163.750 92.460 C 167.624 91.602, 166.323 94.550, 161.960 96.518 C 159.737 97.520, 154.149 102.201, 149.540 106.920 C 136.554 120.218, 131 128.028, 131 132.990 C 131 134.817, 134.431 138, 136.400 138 C 136.925 138, 144.173 131.232, 152.507 122.961 L 167.660 107.921 168.916 112.211 C 169.607 114.570, 170.834 117.535, 171.642 118.800 C 173.032 120.976, 172.844 121.407, 168.150 126.800 C 160.112 136.035, 97.843 197.283, 93.725 200.005 C 87.632 204.032, 87.505 210.122, 93.500 210.831 C 99.552 211.546, 104.834 207.628, 130.644 183.274 L 145.789 168.985 146.262 173.243 C 146.754 177.660, 145.649 194.638, 143.968 208.474 C 143.436 212.859, 143 222.772, 143 230.501 C 143 246.372, 143.857 249, 149.034 249 C 153.441 249, 154.657 246.039, 156.019 232 C 156.686 225.125, 157.445 219.141, 157.705 218.701 C 157.965 218.262, 158.821 218.437, 159.608 219.089 C 162.026 221.096, 170.863 219.447, 178.585 215.547 C 182.481 213.579, 187.656 211.394, 190.085 210.690 C 194.207 209.497, 194.500 209.183, 194.500 205.956 C 194.500 202.918, 194.018 202.265, 190.517 200.556 L 186.534 198.613 176.017 202.415 C 170.233 204.507, 164.621 206.190, 163.546 206.156 C 162.471 206.122, 161.049 206.544, 160.385 207.095 C 158.456 208.697, 157.753 206.432, 158.498 201.015 L 159.171 196.123 164.335 195.598 C 167.176 195.310, 172.425 194.811, 176 194.489 C 184.634 193.713, 194.725 191.238, 198.807 188.897 C 200.626 187.854, 202.362 187, 202.665 187 C 202.968 187, 203.033 195.438, 202.810 205.750 C 202.442 222.765, 202.200 224.869, 200.202 228.485 C 197.338 233.669, 197.406 236.565, 200.440 238.552 C 202.667 240.012, 203.168 240.013, 206.190 238.571 C 208.010 237.702, 210.482 235.530, 211.683 233.745 C 214.483 229.582, 217.903 216.072, 218.668 206.151 C 219.265 198.408, 216.884 167.226, 214.950 157.464 C 213.783 151.575, 210.409 147.468, 205.928 146.484 C 194.668 144.011, 167.839 153.336, 163.545 161.214 C 161.833 164.357, 161.768 165.015, 163.022 166.527 C 164.211 167.959, 165.563 168.155, 170.977 167.683 C 174.565 167.370, 179.320 166.223, 181.544 165.133 C 183.768 164.044, 189.055 162.264, 193.294 161.178 L 201 159.204 201.011 165.352 C 201.017 168.733, 201.308 173.233, 201.658 175.350 C 202.273 179.071, 202.223 179.156, 200.188 177.885 C 198.457 176.804, 197.050 176.799, 192.291 177.858 C 186.741 179.092, 176.443 180.399, 165.250 181.289 L 160 181.706 160 175.163 C 160 171.565, 159.470 166.053, 158.822 162.916 L 157.643 157.211 169.699 144.855 C 176.330 138.060, 183.493 130.475, 185.618 128 C 187.742 125.525, 192.583 120.126, 196.377 116.002 C 204.178 107.521, 212.775 95.270, 214.054 90.813 C 215.046 87.353, 213.461 84, 210.832 84 C 209.905 84, 206.526 86.592, 203.323 89.761 C 200.120 92.930, 194.896 97.921, 191.713 100.853 C 188.530 103.784, 185.216 107.267, 184.348 108.592 C 182.098 112.026, 181 111.576, 181 107.218 C 181 103.731, 179.201 95.624, 177.613 91.957 C 177.075 90.715, 178.459 90.062, 184.722 88.605 C 197.688 85.588, 206.288 82.624, 209.218 80.161 C 212.715 77.221, 212.973 72.795, 209.777 70.557 C 207.174 68.733, 204.812 68.714, 200 70.476 M 73 85.079 C 66.675 87.305, 57.421 90.112, 52.435 91.318 C 41.191 94.037, 38.667 95.586, 38.667 99.763 C 38.667 101.485, 39.247 103.592, 39.956 104.447 C 41.771 106.634, 51.710 106.471, 58.328 104.145 L 63.606 102.290 61.844 105.895 C 60.875 107.878, 59.591 113.517, 58.991 118.426 C 58.391 123.336, 57.720 127.644, 57.500 128 C 57.280 128.356, 55.165 129.260, 52.800 130.010 C 50.435 130.759, 47.375 132.130, 46 133.056 C 44.625 133.981, 41.620 135.690, 39.323 136.853 C 32.758 140.175, 32.383 145.183, 38.572 146.892 C 41.697 147.755, 48.472 146.811, 55.613 144.517 C 57.692 143.849, 57.739 144.126, 58.445 161.201 C 58.841 170.750, 58.845 181.803, 58.455 185.763 C 57.890 191.490, 58.065 193.450, 59.307 195.346 C 60.853 197.705, 60.782 197.787, 52.184 203.601 C 40.811 211.292, 37.249 214.589, 36.467 218.151 C 35.680 221.731, 37.043 223.559, 41.103 224.371 C 44.831 225.116, 52.705 221.646, 58.537 216.687 C 60.717 214.833, 65.650 211.127, 69.500 208.450 C 73.350 205.773, 77.175 202.827, 78 201.904 C 78.825 200.980, 84.450 196.286, 90.500 191.473 C 96.550 186.660, 102.372 181.281, 103.437 179.519 C 105.143 176.696, 105.218 175.940, 104.065 173.158 C 102.937 170.433, 102.260 170.001, 99.129 170.005 C 96.545 170.008, 94.636 170.813, 92.500 172.799 C 88.155 176.840, 70.606 190.967, 69.909 190.985 C 69.583 190.993, 69.696 188.863, 70.160 186.250 C 70.624 183.637, 71.292 172.017, 71.644 160.426 L 72.285 139.352 76.393 138.112 C 83.175 136.064, 91.185 131.633, 93.351 128.732 C 94.964 126.571, 95.191 125.453, 94.444 123.356 C 92.856 118.901, 90.767 118.309, 85.317 120.772 C 82.668 121.970, 78.744 123.249, 76.598 123.615 L 72.695 124.280 73.285 116.390 C 73.609 112.050, 74.455 107.026, 75.166 105.225 C 76.116 102.816, 76.169 101.493, 75.367 100.225 C 74.410 98.710, 75.204 98.158, 81.888 95.694 C 86.075 94.151, 90.975 92.508, 92.778 92.043 C 98.938 90.455, 100.474 87.550, 97.443 83.223 C 94.894 79.583, 86.890 80.190, 73 85.079 M 181.500 225.522 C 173.226 230.202, 169.506 232.204, 162.250 235.885 C 157.132 238.481, 156 239.502, 156 241.519 C 156 242.874, 156.868 244.525, 157.929 245.188 C 159.794 246.352, 159.766 246.510, 157.083 249.946 C 154.238 253.591, 148.281 264.646, 145.656 271.154 C 144.769 273.354, 143.251 275.098, 141.841 275.538 C 135.032 277.665, 137.772 286, 145.281 286 C 148.920 286, 155.558 279.719, 160.717 271.395 C 171.005 254.794, 171.725 253.945, 174.592 255.035 C 176.042 255.586, 178.415 256.969, 179.865 258.106 C 189.089 265.348, 200.663 273.374, 204.274 275.035 C 206.598 276.103, 210.750 278.313, 213.500 279.945 C 216.250 281.577, 219.400 283.339, 220.500 283.860 C 221.600 284.380, 224.051 286.425, 225.946 288.403 C 229.752 292.376, 232.827 292.954, 235.345 290.171 C 237.643 287.633, 237.411 283.391, 234.772 279.654 C 231.774 275.410, 229.800 273.872, 221 268.926 C 216.875 266.607, 209 261.691, 203.500 258.001 C 198 254.312, 190.575 250.018, 187 248.460 C 183.425 246.902, 180.366 245.539, 180.201 245.431 C 180.037 245.324, 180.173 244.158, 180.504 242.840 C 180.854 241.444, 183.067 239.202, 185.802 237.472 C 194.318 232.084, 197.217 228.999, 196.488 226.097 C 195.177 220.872, 190.069 220.676, 181.500 225.522" stroke="none" fill="black" fill-rule="evenodd"/>
</svg>