<svg xmlns="http://www.w3.org/2000/svg" width="300" height="300" viewBox="0 0 300 300" version="1.1">
	<path d="M 239.452 23.059 C 220.727 32.222, 197.638 35.989, 160.026 36.020 C 126.852 36.047, 116.647 37.574, 115.360 42.704 C 114.578 45.816, 116.764 49.960, 119.794 51.112 C 121.079 51.600, 128.380 52, 136.018 52 L 149.906 52 149.442 56.750 C 149.187 59.362, 148.536 73.425, 147.996 88 C 147.455 102.575, 146.141 123.050, 145.075 133.500 C 144.009 143.950, 142.166 162.175, 140.978 174 C 139.790 185.825, 138.429 196.400, 137.954 197.500 C 136.959 199.801, 135.382 218.148, 134.422 238.583 C 133.883 250.066, 134.061 253.696, 135.384 258.249 C 139.188 271.334, 153.867 274.067, 164.302 263.632 C 169.138 258.795, 177.881 245.081, 178.622 241.170 C 179.733 235.306, 175.305 230.816, 170.055 232.483 C 169.078 232.793, 165.253 237.316, 161.554 242.534 C 155.125 251.602, 152.008 254.675, 150.631 253.298 C 148.506 251.173, 150.798 208.625, 155.842 156.546 L 158.550 128.592 166.525 126.981 C 170.911 126.095, 175.175 125.107, 176 124.786 C 176.825 124.464, 188.300 121.607, 201.500 118.435 C 214.700 115.263, 226.238 112.478, 227.140 112.246 C 228.546 111.884, 228.314 113.655, 225.509 124.662 C 221.530 140.281, 219.957 147.362, 216.436 165.500 C 214.942 173.200, 213.345 180.400, 212.888 181.500 C 212.430 182.600, 211.308 190.250, 210.394 198.500 C 208.157 218.691, 209.122 236.490, 212.942 245.500 C 218.986 259.753, 223.550 265.654, 231.561 269.573 C 236.649 272.063, 237.774 272.231, 246.285 271.778 C 254.250 271.353, 256.627 270.769, 263.811 267.476 C 273.098 263.219, 275.758 260.124, 274.032 255.584 C 272.554 251.698, 269.122 251.461, 258.390 254.506 C 246.032 258.011, 239.399 257.704, 234.889 253.416 C 230.482 249.226, 227.375 243.388, 225.887 236.500 C 224.276 229.040, 224.279 202.634, 225.893 191 C 228.090 175.164, 234.710 143.647, 236.920 138.500 C 238.636 134.503, 244.006 113.427, 244.003 110.700 C 243.996 104.649, 238.689 98.595, 232.350 97.406 C 228.864 96.752, 217.343 98.516, 215.500 99.986 C 214.950 100.424, 211.800 101.324, 208.500 101.986 C 205.200 102.647, 197.775 104.483, 192 106.064 C 182.303 108.720, 173.145 110.784, 163.719 112.439 L 159.938 113.102 160.595 100.801 C 160.956 94.036, 161.645 88.073, 162.126 87.550 C 163.362 86.207, 163.244 55.269, 162 54.500 C 159.226 52.786, 162.482 52.254, 178.856 51.749 C 188.677 51.445, 197.564 50.731, 198.606 50.161 C 199.648 49.592, 204.775 48.350, 210 47.402 C 238.206 42.283, 256.652 31.642, 250.718 23.913 C 247.837 20.161, 245.705 19.999, 239.452 23.059 M 61.500 78.430 C 58.645 81.591, 57.921 81.830, 46.500 83.401 C 30.990 85.535, 26.858 86.668, 24.895 89.326 C 21.645 93.727, 21.707 95.576, 25.204 98.518 C 28.390 101.199, 28.688 101.250, 37.485 100.634 C 42.443 100.286, 48.638 99.717, 51.250 99.371 L 56 98.740 56.012 117.620 C 56.018 128.004, 55.504 146.227, 54.870 158.116 C 54.235 170.004, 54.010 180.906, 54.371 182.340 C 54.837 184.200, 55.956 185.193, 58.263 185.796 L 61.500 186.643 59 187.983 C 57.625 188.721, 50.425 193.345, 43 198.261 C 19.830 213.599, 10 222.713, 10 228.859 C 10 234.241, 16.388 235.670, 23.515 231.882 C 25.707 230.717, 35.042 224.417, 44.259 217.882 C 53.477 211.347, 61.464 206, 62.009 206 C 62.554 206, 63 205.550, 63 205 C 63 204.450, 63.482 204, 64.071 204 C 64.661 204, 65.819 203.324, 66.646 202.497 C 68.582 200.561, 86.584 188, 87.422 188 C 89.081 188, 112.161 171.684, 113.592 169.500 C 116.248 165.446, 113.511 159.130, 109.056 159.032 C 108.261 159.014, 98.283 164.625, 86.883 171.500 C 75.482 178.375, 65.879 184, 65.542 184 C 65.205 184, 65.456 183.017, 66.098 181.816 C 68.661 177.028, 73.541 114.599, 72.350 101.843 L 71.749 95.407 78.329 92.610 C 86.868 88.981, 90 86.078, 90 81.792 C 90 79.103, 89.457 78.248, 87.080 77.196 C 84.632 76.112, 83.156 76.164, 77.930 77.518 C 72.826 78.841, 71.549 78.895, 70.865 77.816 C 70.406 77.092, 70.024 76.162, 70.015 75.750 C 70.007 75.338, 68.763 75.025, 67.250 75.055 C 65.449 75.091, 63.465 76.256, 61.500 78.430 M 157.659 174.306 C 154.553 180.851, 159.393 186.483, 172.177 191.204 C 187.102 196.714, 197.162 197.586, 200.826 193.686 C 205.640 188.561, 202.323 182.593, 194.542 182.379 C 190.447 182.266, 186.100 180.495, 173.500 173.804 C 171.300 172.636, 167.212 171.477, 164.416 171.230 C 159.422 170.788, 159.303 170.842, 157.659 174.306" stroke="none" fill="black" fill-rule="evenodd"/>
</svg>