<svg xmlns="http://www.w3.org/2000/svg" width="300" height="300" viewBox="0 0 300 300" version="1.1">
	<path d="M 143.989 11.250 C 142.899 13.038, 142.006 15.020, 142.004 15.655 C 141.987 20.812, 159.100 39.623, 162.650 38.352 C 168.750 36.168, 168.178 31.123, 160.569 20.013 C 157.606 15.686, 154.885 11.213, 154.523 10.073 C 154.004 8.437, 153.033 8, 149.918 8 C 146.538 8, 145.686 8.467, 143.989 11.250 M 236.500 38.201 C 222.927 41.776, 211.229 43.087, 185 43.974 C 170.425 44.467, 151.975 45.362, 144 45.963 C 136.025 46.563, 118.625 47.155, 105.333 47.278 C 81.186 47.500, 81.164 47.502, 79.083 49.903 C 76.696 52.656, 76.340 56.533, 78.400 57.323 C 79.171 57.619, 80.097 59.805, 80.460 62.180 C 80.822 64.556, 81.727 69.650, 82.471 73.500 C 87.007 96.978, 88.675 122.384, 87.130 144.443 C 85.552 166.988, 84.879 173, 83.937 173 C 83.506 173, 81.840 171.686, 80.235 170.081 C 78.630 168.476, 75.332 166.660, 72.908 166.046 C 70.484 165.432, 66.597 164.237, 64.272 163.391 C 57.775 161.025, 54.046 162.773, 54.015 168.199 C 53.991 172.466, 61.081 176.951, 70.250 178.470 C 72.313 178.811, 74 179.439, 74 179.864 C 74 181.426, 56.356 197.583, 51.793 200.199 C 43.755 204.809, 38.624 214.224, 42.200 217.800 C 42.860 218.460, 44.841 219, 46.603 219 C 49.265 219, 51.675 217.293, 60.888 208.879 C 66.984 203.313, 74.512 195.783, 77.617 192.146 C 82.610 186.297, 83.192 185.878, 82.665 188.517 C 82.337 190.158, 81.811 193.300, 81.497 195.500 C 77.774 221.584, 70.688 249.847, 65.951 257.500 C 64.930 259.150, 62.725 261.400, 61.050 262.500 C 58.979 263.861, 58.005 265.315, 58.003 267.050 C 57.992 277.133, 72.492 270.756, 79.120 257.764 C 84.089 248.026, 89.472 226.453, 93.910 198.500 C 97.273 177.313, 99.005 161.119, 99.003 150.889 L 99 141.278 104.750 140.678 C 113.102 139.807, 123.430 138.156, 125.503 137.361 C 127.182 136.716, 127.254 137.310, 126.618 146.586 C 124.510 177.294, 120.569 205.688, 115.803 224.500 C 114.689 228.900, 113.307 232.795, 112.733 233.155 C 111.401 233.991, 111.533 239.260, 112.954 241.915 C 115.797 247.226, 121.050 246.202, 123.886 239.783 C 130.119 225.674, 137.207 181.031, 138.718 146.354 L 139.291 133.208 150.895 129.454 C 162.598 125.667, 168.480 122.875, 170.718 120.042 C 172.423 117.884, 172.289 114.485, 170.439 112.949 C 168.700 111.506, 164.625 112.272, 151.500 116.508 C 139.184 120.483, 139 120.490, 139 117.039 C 139 112.830, 136.348 99.241, 133.315 87.912 C 130.656 77.979, 128.723 75.318, 125.021 76.493 C 121.693 77.550, 120.759 82.627, 122.448 90.485 C 125.435 104.384, 127 114.128, 127 118.823 L 127 123.606 117.750 125.819 C 112.662 127.036, 107.233 128.025, 105.684 128.016 C 104.136 128.007, 101.998 128.466, 100.934 129.035 C 99.062 130.037, 99.001 129.596, 99.023 115.285 C 99.047 99.344, 96.857 78.739, 93.944 67.500 C 92.946 63.650, 92.437 60.211, 92.815 59.857 C 93.192 59.503, 107 58.954, 123.500 58.637 C 140 58.319, 168.125 57.388, 186 56.567 C 214.153 55.274, 219.971 54.727, 229.500 52.479 C 235.550 51.052, 242.253 49.572, 244.395 49.192 C 249.675 48.254, 252.929 44.104, 251.085 40.659 C 249.027 36.814, 244.599 36.067, 236.500 38.201 M 216.889 69.499 C 215.052 70.498, 211.494 76.175, 204.889 88.650 C 199.725 98.402, 194.825 107.609, 194 109.109 C 187.662 120.637, 184 128.269, 184 129.949 C 184 132.434, 187.446 134.356, 190.518 133.585 C 192.979 132.967, 195.988 128.426, 209.787 104.500 C 226.053 76.297, 226.811 74.321, 222.961 70.189 C 220.590 67.644, 220.352 67.617, 216.889 69.499 M 157.497 73.004 C 155.363 75.361, 155.152 82.455, 157.070 87.328 C 158.817 91.765, 162.965 96, 165.565 96 C 169.420 96, 170.243 93.855, 169.006 87.031 C 168.395 83.662, 168.139 80.138, 168.437 79.200 C 168.734 78.261, 168.090 76.032, 167.004 74.247 C 164.657 70.387, 160.371 69.827, 157.497 73.004 M 222.276 111.808 C 220.181 113.139, 210.028 132.850, 205.606 144.171 C 202.020 153.351, 202.225 156.102, 206.579 157.199 C 210.364 158.153, 210.494 157.965, 229.173 124.500 C 232.527 118.490, 232.626 117.066, 229.927 113.635 C 227.889 111.044, 224.684 110.278, 222.276 111.808 M 237.422 142.262 C 236.280 144.043, 233.649 150.675, 231.575 157 C 227.984 167.957, 219.366 186.731, 214.684 193.796 C 209.001 202.373, 196.491 217.239, 191.761 221.035 C 188.867 223.358, 183.659 226.544, 180.186 228.116 C 174.192 230.829, 173.887 231.134, 174.186 234.136 C 174.669 238.996, 176.811 239.735, 184.484 237.690 C 192.524 235.548, 194.854 234.161, 205.124 225.400 C 213.146 218.558, 222.780 207.120, 228.624 197.500 C 232.660 190.855, 237.598 181.103, 238.498 178 C 238.896 176.625, 239.794 174.150, 240.492 172.500 C 244.648 162.678, 246.356 156.046, 246.383 149.626 C 246.408 143.626, 246.117 142.513, 244.095 140.876 C 240.905 138.293, 239.826 138.517, 237.422 142.262 M 151.113 141.750 C 149.050 143.462, 149.001 144.232, 148.849 177.500 C 148.625 226.104, 150.579 237.748, 160.489 246.883 C 166.513 252.436, 171.249 254.600, 182.535 256.957 C 193.337 259.213, 204.085 259.543, 214 257.923 C 217.575 257.339, 223.650 256.500, 227.500 256.059 C 244.532 254.106, 256 248.079, 256 241.082 C 256 237.122, 253.637 232.411, 250.923 230.959 C 248.145 229.472, 244 232.128, 244 235.393 C 244 237.305, 243.211 237.957, 239.750 238.907 C 223.531 243.358, 190.345 245.385, 180.364 242.533 C 171.838 240.097, 167.260 236.755, 164.832 231.197 C 162.032 224.786, 160.726 200.537, 161.587 170.935 C 162.161 151.175, 162.040 147.978, 160.611 145.215 C 159.072 142.238, 156.310 140, 154.177 140 C 153.651 140, 152.273 140.787, 151.113 141.750" stroke="none" fill="black" fill-rule="evenodd"/>
</svg>