<svg xmlns="http://www.w3.org/2000/svg" width="300" height="300" viewBox="0 0 300 300" version="1.1">
	<path d="M 150.710 10.518 C 147.897 12.994, 143.028 22.182, 143.010 25.050 C 142.995 27.468, 140.884 28.999, 137.550 29.011 C 135.873 29.017, 132.250 29.706, 129.500 30.543 C 126.750 31.380, 119.935 32.707, 114.356 33.493 C 105.020 34.808, 96.956 37.644, 95.401 40.160 C 95.077 40.685, 95.079 42.177, 95.405 43.476 C 95.841 45.216, 97.281 46.265, 100.869 47.457 C 105.967 49.150, 108.694 48.778, 134.309 42.890 C 136.954 42.282, 139.300 41.967, 139.522 42.189 C 139.744 42.411, 139.439 45.533, 138.843 49.126 L 137.761 55.659 109.130 56.878 C 72.332 58.444, 72.799 58.380, 68.507 62.428 C 66.578 64.248, 65 66.415, 65 67.246 C 65 71.122, 67.013 71.345, 95.795 70.663 C 111.033 70.302, 126.610 69.709, 130.411 69.344 L 137.321 68.681 136.681 76.987 C 136.328 81.556, 135.870 85.463, 135.663 85.670 C 135.456 85.877, 127.995 86.433, 119.083 86.905 C 104.040 87.702, 102.698 87.933, 100.334 90.132 C 97.300 92.953, 95.822 96.373, 96.675 98.595 C 97.228 100.037, 99.344 100.131, 116.647 99.482 L 136 98.756 136 103.311 C 136 108.565, 136.689 108.185, 123 110.485 C 112.155 112.307, 110.121 113.597, 111.574 117.734 C 113.253 122.512, 123.529 124.235, 133.607 121.428 C 135.566 120.883, 135.752 121.320, 136.266 127.671 C 136.569 131.427, 136.693 134.628, 136.541 134.784 C 136.049 135.290, 124.763 136.892, 114.248 137.949 C 103.372 139.041, 95.370 140.731, 82.698 144.611 C 78.407 145.925, 73.210 147, 71.148 147 C 67.066 147, 65 148.404, 65 151.177 C 65 156.464, 77.600 158.300, 92.567 155.194 C 117.673 149.984, 138.093 147.724, 139.500 150 C 140.454 151.544, 144.799 151.182, 145.752 149.478 C 146.410 148.303, 151.365 147.495, 167.552 145.927 C 189.376 143.811, 214.665 140.463, 221.440 138.793 C 226.789 137.473, 232.399 131.861, 231.453 128.775 C 231.069 127.524, 230.305 125.938, 229.755 125.250 C 228.618 123.829, 222.399 123.546, 221.576 124.878 C 220.633 126.403, 172.979 132.383, 154.685 133.272 C 148.228 133.586, 147.899 133.495, 148.422 131.552 C 148.725 130.423, 148.979 126.960, 148.986 123.855 L 149 118.210 155.250 116.732 C 158.688 115.919, 163.750 114.455, 166.500 113.479 C 169.250 112.503, 172.772 111.252, 174.327 110.699 C 175.883 110.146, 177.847 108.637, 178.692 107.347 C 180.087 105.219, 180.072 104.759, 178.534 102.411 C 176.917 99.944, 176.553 99.856, 170.756 100.528 C 167.412 100.916, 161.712 102.081, 158.091 103.117 C 149.477 105.580, 149 105.529, 149 102.142 L 149 99.283 159.967 98.763 C 168.797 98.345, 171.867 97.781, 175.717 95.872 C 179.546 93.973, 180.565 92.927, 180.828 90.628 C 181.380 85.800, 180.211 85.469, 163.990 85.858 L 149.082 86.215 149.680 77.358 C 150.008 72.486, 150.331 68.421, 150.397 68.324 C 150.464 68.228, 156.109 67.822, 162.943 67.422 L 175.369 66.695 172.684 71.276 C 169.560 76.607, 169.463 77.320, 171.571 79.429 C 175.350 83.207, 180.315 80.242, 185.680 71 C 187.117 68.525, 188.416 66.348, 188.567 66.163 C 188.717 65.978, 192.364 65.394, 196.670 64.865 C 209.964 63.234, 217.527 60.454, 218.921 56.685 C 220.650 52.012, 215.713 47.518, 211.343 49.787 C 210.329 50.313, 205.771 51.059, 201.213 51.444 L 192.926 52.144 193.639 49.322 C 194.031 47.770, 194.385 43.674, 194.426 40.219 C 194.498 34.135, 194.372 33.816, 190.427 30.062 C 184.967 24.867, 180.625 23.734, 167.779 24.153 L 157.148 24.500 157.708 21.500 C 158.016 19.850, 159.108 17.571, 160.134 16.436 C 162.606 13.700, 162.490 11.457, 159.777 9.557 C 156.664 7.376, 153.955 7.663, 150.710 10.518 M 159.792 37.925 C 157.203 38.287, 154.753 38.914, 154.348 39.319 C 153.543 40.123, 151.837 54.170, 152.467 54.800 C 152.681 55.014, 158.679 54.867, 165.796 54.474 L 178.736 53.758 179.890 48.629 C 180.525 45.808, 181.297 42.545, 181.605 41.377 C 182.058 39.664, 181.542 39.036, 178.934 38.127 C 175.495 36.928, 167.530 36.844, 159.792 37.925 M 146 164.904 C 123.997 165.544, 121.782 166.014, 114.466 171.594 C 111.519 173.842, 110.545 174.114, 108.609 173.231 C 103.294 170.810, 99.013 176.920, 102.330 182.192 C 105.417 187.100, 111.415 209.590, 112.803 221.462 C 113.399 226.558, 113.897 227.646, 116.232 228.957 C 118.836 230.418, 119.094 230.360, 121.732 227.721 C 124.272 225.181, 124.486 224.377, 124.329 217.969 C 124.125 209.623, 124.630 209.166, 135.051 208.293 L 142 207.710 142 214.441 C 142 218.143, 141.231 224.058, 140.291 227.586 C 138.761 233.328, 138.315 234.002, 136.041 234.022 C 129.650 234.077, 120 240.881, 120 245.332 C 120 249.881, 121.757 250.263, 134.845 248.560 C 149.055 246.712, 165.798 246.545, 174.585 248.164 C 181.906 249.513, 184 248.571, 184 243.928 C 184 238.049, 172.338 233, 158.761 233 L 151.329 233 153.665 223.762 C 154.949 218.680, 156 212.892, 156 210.899 L 156 207.275 161.712 206.604 C 175.894 204.937, 184.785 199.674, 183.581 193.656 C 182.492 188.209, 176.768 186.232, 173 190 C 171.513 191.487, 169.654 192.004, 165.750 192.014 C 162.863 192.021, 159.488 192.299, 158.250 192.630 C 156.167 193.188, 156.001 192.909, 156.011 188.867 C 156.017 186.465, 156.301 182.813, 156.642 180.750 L 157.262 177 171.108 177 C 188.820 177, 188.389 176.555, 187.793 194.232 C 187.455 204.261, 186.773 208.652, 184.054 218.291 L 180.728 230.082 183.038 232.541 C 184.309 233.893, 186.092 235, 187 235 C 191.650 235, 196.940 223.355, 199.965 206.461 C 203.596 186.177, 202.039 175.308, 194.447 167.949 L 190.890 164.500 178.695 164.404 C 171.988 164.351, 157.275 164.576, 146 164.904 M 138 177.647 C 124.498 179.669, 117 181.697, 117.001 183.328 C 117.001 183.972, 117.901 186.867, 119.001 189.761 C 120.100 192.654, 121 195.891, 121 196.954 C 121 198.863, 121.057 198.863, 125.407 196.938 C 127.831 195.866, 132.556 194.702, 135.907 194.352 L 142 193.715 142 186.558 C 142 182.324, 142.490 178.910, 143.200 178.200 C 144.466 176.934, 143.469 176.828, 138 177.647 M 255.411 250.250 C 252.607 252.457, 252.059 252.498, 227.026 252.399 C 212.987 252.343, 185.300 252.120, 165.500 251.902 C 132.804 251.543, 127.710 251.716, 110 253.792 C 88.060 256.364, 80.919 257.752, 67.460 262.064 C 58.275 265.006, 54 268.035, 54 271.600 C 54 274.844, 57.836 275.192, 70.317 273.080 C 96.547 268.640, 102.456 267.971, 130.150 266.312 C 155.160 264.814, 162.211 264.751, 185.650 265.817 C 227.698 267.730, 243.198 267.182, 255.237 263.354 C 263.201 260.822, 266.855 253.113, 261.777 249.557 C 258.930 247.562, 258.810 247.575, 255.411 250.250" stroke="none" fill="black" fill-rule="evenodd"/>
</svg>