<svg xmlns="http://www.w3.org/2000/svg" width="300" height="300" viewBox="0 0 300 300" version="1.1">
	<path d="M 145.655 9.829 C 142.614 13.189, 143.588 18.509, 149.052 28.376 C 161.058 50.056, 161.065 50.064, 165.697 48.441 C 167.453 47.826, 168.621 46.618, 168.823 45.207 C 169.269 42.091, 166.512 34.131, 161.355 23.641 C 158.960 18.769, 157 14.235, 157 13.566 C 157 11.495, 152.504 8, 149.841 8 C 148.449 8, 146.565 8.823, 145.655 9.829 M 223.500 43.183 C 220.200 43.606, 210.300 44.670, 201.500 45.548 C 178.487 47.842, 172.120 48.658, 159.629 50.915 C 131.795 55.943, 123.045 57, 109.254 57 C 94.124 57, 89.466 58.069, 86.567 62.208 C 85.705 63.438, 85 65.709, 85 67.255 C 85 70.552, 88.066 72.169, 91.995 70.944 C 93.373 70.515, 96.474 69.936, 98.887 69.658 L 103.274 69.154 102.633 81.327 C 101.450 103.767, 99.893 122.386, 97.934 137.500 C 93.407 172.425, 94.213 168.977, 89.528 173.472 C 81.236 181.426, 71.885 189.517, 69.961 190.403 C 68.882 190.899, 68 191.615, 68 191.992 C 68 192.370, 64.421 195.255, 60.046 198.405 C 55.672 201.555, 51.810 205.024, 51.464 206.114 C 49.805 211.341, 57.162 212.534, 65.916 208.459 C 69.452 206.813, 74.509 202.823, 80.479 196.969 C 85.509 192.036, 89.868 188, 90.167 188 C 90.465 188, 89.869 193.063, 88.842 199.250 C 87.815 205.438, 86.050 216.125, 84.920 223 C 82.188 239.628, 78.077 261.067, 77.414 262.139 C 77.121 262.613, 76.282 263, 75.548 263 C 74.142 263, 73 265.113, 73 267.714 C 73 270.097, 76.971 273, 80.230 273 C 85.426 273, 88.418 268.746, 90.798 257.974 C 94.907 239.370, 99.876 211.397, 103.583 186 C 105.054 175.917, 105.615 174.125, 108.130 171.452 C 111.477 167.898, 111.793 164.473, 109.045 161.548 C 107.177 159.559, 107.152 159.066, 108.495 150.483 C 113.382 119.255, 115.389 86.705, 113.090 75.983 C 112.468 73.082, 112.087 70.579, 112.245 70.422 C 112.403 70.264, 118.599 69.423, 126.016 68.552 C 133.432 67.682, 145.125 66.088, 152 65.012 C 168.824 62.377, 190.609 59.392, 207 57.475 C 220.455 55.901, 230.331 53.697, 232.801 51.715 C 233.545 51.118, 233.973 49.184, 233.801 47.194 C 233.427 42.867, 231.579 42.148, 223.500 43.183 M 199 89.416 C 192.125 91.830, 181.325 95.676, 175 97.962 C 168.675 100.248, 162.150 102.558, 160.500 103.095 C 158.850 103.632, 152.325 106.643, 146 109.786 C 133.317 116.088, 131.801 118.030, 136.039 122.542 C 137.761 124.374, 138.108 125.612, 137.625 128.194 C 137.285 130.012, 137.685 141.400, 138.513 153.500 C 139.783 172.059, 139.805 175.657, 138.655 176.504 C 136.064 178.411, 135.854 181.545, 138.124 184.430 C 140.253 187.138, 140.268 187.432, 139.242 206.661 C 138.147 227.194, 138.579 231.579, 142.039 235.039 C 145.414 238.414, 148.869 238.584, 154.442 235.651 C 159.342 233.072, 170.776 223.995, 172.202 221.552 C 173.372 219.547, 171.974 216.309, 169.439 215.154 C 167.401 214.226, 165.922 214.661, 159.427 218.102 C 155.236 220.323, 151.621 221.954, 151.394 221.728 C 151.168 221.501, 151.280 213.415, 151.644 203.759 L 152.307 186.203 163.903 182.390 C 170.282 180.292, 177.525 177.607, 180 176.421 C 188.477 172.362, 188.727 172.383, 189.477 177.213 C 191.025 187.180, 197.669 207.197, 205.672 226 C 208.667 233.038, 217.282 249.581, 219.472 252.500 C 220.710 254.150, 225.627 259.885, 230.398 265.244 C 242.360 278.677, 246.568 280.586, 252.077 275.077 C 254.413 272.741, 254.998 271.284, 254.989 267.827 C 254.977 263.137, 252.696 254.544, 250.883 252.359 C 248.314 249.263, 242 252.144, 242 256.412 C 242 259.097, 239.846 257.804, 236.185 252.921 C 234.362 250.490, 232.325 247.825, 231.659 247 C 228.316 242.859, 220.194 227.975, 215.289 217 C 207.766 200.167, 197.515 166, 199.987 166 C 200.356 166, 203.884 163.493, 207.828 160.429 C 216.072 154.023, 217.667 150.768, 214.011 147.808 C 211.303 145.615, 209.822 145.963, 202.132 150.595 L 196.525 153.973 195.336 145.736 C 194.682 141.206, 193.850 134.125, 193.487 130 C 192.698 121.033, 191.216 114.771, 189.647 113.765 C 187.653 112.488, 184.205 112.938, 182.437 114.705 C 180.961 116.182, 180.820 117.765, 181.384 126.496 C 182.058 136.920, 184.394 154.258, 185.521 157.193 C 186.017 158.488, 184.959 159.406, 180.831 161.265 C 172.441 165.043, 165.952 167.719, 160 169.854 C 156.975 170.940, 153.713 172.140, 152.750 172.521 C 151.195 173.137, 150.998 172.505, 150.984 166.857 C 150.956 155.654, 149.060 136.708, 147.262 129.675 C 145.550 122.974, 145.554 122.828, 147.509 121.678 C 153.476 118.168, 211.572 98.801, 216.907 98.543 C 223.640 98.218, 227.422 92.406, 223.250 88.796 C 221.908 87.635, 213.736 84.933, 211.807 85.013 C 211.638 85.020, 205.875 87.001, 199 89.416 M 55.901 159.106 C 54.306 160.814, 53 162.816, 53 163.555 C 53 166.360, 59.395 169.703, 67.244 171 C 71.503 171.705, 75.496 172.893, 76.117 173.640 C 77.512 175.322, 82.181 175.419, 83.800 173.800 C 85.574 172.026, 85.256 166.586, 83.250 164.396 C 81.444 162.426, 77.994 160.554, 74.500 159.649 C 73.400 159.364, 70.700 158.447, 68.500 157.610 C 62.216 155.219, 59.197 155.577, 55.901 159.106" stroke="none" fill="black" fill-rule="evenodd"/>
</svg>