<svg xmlns="http://www.w3.org/2000/svg" width="300" height="300" viewBox="0 0 300 300" version="1.1">
	<path d="M 161 10 C 157.664 13.336, 158.394 17.214, 164.311 27.585 C 164.965 28.732, 167.053 33.133, 168.950 37.366 C 172.548 45.390, 175.319 47.587, 178.905 45.259 C 182.340 43.028, 178.779 26.871, 172.676 17 C 171.486 15.075, 170.641 13.106, 170.798 12.625 C 171.316 11.038, 167.734 8, 165.345 8 C 164.055 8, 162.100 8.900, 161 10 M 218.500 50.114 C 216.850 50.632, 210.325 51.490, 204 52.022 C 197.675 52.553, 187.550 53.745, 181.500 54.671 C 172.592 56.035, 163.415 56.341, 133.242 56.284 L 95.985 56.213 95.362 58.694 C 94.942 60.366, 95.386 62.042, 96.723 63.837 C 98.503 66.228, 99.411 66.520, 105.603 66.700 C 109.396 66.810, 119.401 67.439, 127.835 68.099 C 144.322 69.388, 168.851 68.330, 189.780 65.426 C 195.434 64.642, 201.986 64, 204.340 64 C 209.182 64, 224.091 60.479, 228.250 58.354 C 230.307 57.303, 231 56.208, 231 54.010 C 231 49.364, 225.925 47.783, 218.500 50.114 M 107.953 70.557 C 106.892 71.835, 106.951 73.400, 108.282 79.307 C 111.767 94.776, 112.287 98.981, 112.386 112.500 C 112.486 126.189, 110.974 146.531, 108.820 160.476 C 108.033 165.575, 107.038 168.250, 105.122 170.416 C 95.539 181.254, 86.618 189.708, 80.541 193.713 C 76.669 196.265, 72.281 199.174, 70.790 200.177 C 69.300 201.180, 67.173 202, 66.064 202 C 62.056 202, 58.853 211.026, 62.125 213.098 C 67.712 216.638, 83.930 208.423, 97.239 195.313 L 104.155 188.500 103.449 194.500 C 102.724 200.670, 98.969 220.230, 97.073 227.715 C 96.486 230.034, 94.904 234.421, 93.558 237.465 C 91.247 242.690, 90.910 243, 87.534 243 C 84.714 243, 83.722 243.516, 82.847 245.436 C 81.302 248.827, 82.362 250.836, 86.639 252.623 C 89.943 254.003, 90.713 254, 94.414 252.586 C 97.588 251.374, 99.246 249.808, 101.702 245.701 C 108.480 234.369, 114.423 210.064, 118.012 179 C 118.426 175.425, 119.464 168.450, 120.320 163.500 C 122.936 148.378, 124.279 132.198, 124.158 117.263 C 124.003 98.170, 122.801 91.372, 117.955 82.174 C 115.780 78.045, 114 74.098, 114 73.405 C 114 72.002, 111.308 69, 110.051 69 C 109.608 69, 108.664 69.701, 107.953 70.557 M 169.900 95.184 C 163.106 100.099, 162.657 100.763, 155.494 116.500 C 153.491 120.900, 151.242 125.176, 150.496 126.002 C 147.599 129.209, 146.084 133.288, 147.091 135.170 C 148.626 138.039, 152.235 137.353, 160.167 132.684 C 167.656 128.276, 191.685 117.701, 193.043 118.215 C 193.896 118.539, 188.927 133.336, 183.713 146 C 176.938 162.453, 160.218 193.482, 149.766 209 C 143.308 218.589, 140.146 222.487, 127.884 235.981 C 120.426 244.188, 117.256 247, 115.461 247 C 110.144 247, 108.908 256.275, 113.870 258.931 C 118.202 261.249, 121.561 259.130, 135.744 245.132 C 149.269 231.782, 159.904 218.132, 167.592 204.251 C 169.425 200.942, 171.165 199.002, 172.300 199.001 C 173.289 199, 175.409 198.323, 177.009 197.495 C 179.778 196.063, 180.079 196.126, 183.210 198.777 C 191.996 206.218, 208.852 218.326, 213.500 220.534 C 215.150 221.318, 217.175 222.391, 218 222.919 C 220.916 224.783, 230.597 228.834, 238.271 231.401 C 252.863 236.281, 267.895 234.218, 267.985 227.321 C 268.024 224.286, 264.845 223, 257.303 223 C 247.001 223, 235.424 218.432, 214.049 205.933 C 210.684 203.966, 194.287 191.795, 190 188.084 C 188.075 186.417, 185.037 184.766, 183.250 184.415 C 181.463 184.064, 180 183.442, 180 183.031 C 180 182.621, 183.604 175.059, 188.010 166.226 C 195.827 150.552, 202.648 132.164, 205.165 119.982 C 206.284 114.562, 206.225 113.573, 204.603 110.561 C 202.023 105.771, 198.563 105.501, 187.500 109.226 C 182.550 110.892, 178.073 112.648, 177.550 113.128 C 177.028 113.608, 175.938 114, 175.129 114 C 174.320 114, 172.832 114.747, 171.823 115.661 C 169.159 118.071, 168.659 116.784, 170.642 112.624 C 171.807 110.182, 173.046 109, 174.441 109 C 175.947 109, 177.123 107.666, 178.756 104.108 C 181.551 98.016, 181.559 96.598, 178.811 94.039 C 175.908 91.334, 175.072 91.441, 169.900 95.184 M 71.189 143.039 C 67.980 146.028, 68.334 149.481, 72.005 151.002 C 77.704 153.363, 86 164.817, 86 170.325 C 86 174.620, 88.926 177.486, 92.416 176.610 C 97.689 175.287, 96.758 165.037, 90.290 153.201 C 84.596 142.783, 76.237 138.336, 71.189 143.039" stroke="none" fill="black" fill-rule="evenodd"/>
</svg>