<svg xmlns="http://www.w3.org/2000/svg" width="300" height="300" viewBox="0 0 300 300" version="1.1">
	<path d="M 138.019 9.983 C 136.149 11.605, 135.840 12.626, 136.321 15.589 C 136.644 17.581, 137.717 20.330, 138.704 21.698 C 139.692 23.065, 141.178 25.380, 142.007 26.842 C 146.205 34.247, 148.587 37.792, 151.353 40.750 L 154.392 44 147.870 44 C 144.283 44, 136.576 44.670, 130.742 45.489 C 124.909 46.308, 113.468 47.423, 105.318 47.968 C 90.785 48.940, 77.415 51.581, 74.412 54.073 C 72.594 55.582, 72.924 58.977, 75 60.126 C 75.825 60.582, 78.347 61.415, 80.604 61.977 L 84.708 62.999 86.017 89.471 C 87.336 116.127, 86.493 148.593, 83.991 167.500 C 83.482 171.350, 83.051 177.275, 83.033 180.667 L 83 186.833 70.750 198.321 C 64.013 204.639, 56.515 211.314, 54.088 213.154 C 51.662 214.994, 48.802 218.194, 47.733 220.264 C 45.921 223.772, 45.899 224.197, 47.407 226.499 C 49.492 229.680, 53.346 230.660, 56.257 228.748 C 57.491 227.938, 63.114 222.633, 68.753 216.959 L 79.007 206.644 78.410 213.072 C 77.667 221.069, 73.591 241.185, 70.825 250.500 C 66.804 264.040, 57.587 280, 53.789 280 C 53.331 280, 52.445 281.123, 51.820 282.496 C 50.880 284.558, 50.998 285.340, 52.496 286.996 C 54.768 289.506, 57.052 289.524, 61.858 287.072 C 74.785 280.477, 85.493 255.373, 90.892 219 C 93.630 200.556, 96.751 173.261, 97.981 157 C 99.348 138.942, 99.182 97.123, 97.669 78.250 C 96.842 67.941, 96.779 62.994, 97.473 62.982 C 98.038 62.972, 103.225 62.285, 109 61.456 C 122.195 59.561, 151.530 57.369, 182 56.001 C 221.969 54.207, 232.921 52.458, 237.047 47.214 C 239.582 43.991, 239.531 39.947, 236.921 37.146 C 234.680 34.740, 231.975 34.942, 228.769 37.757 C 227.726 38.672, 223.747 39.587, 218.769 40.058 C 214.221 40.487, 205.550 41.303, 199.500 41.871 C 193.450 42.438, 183.100 43.182, 176.500 43.523 L 164.500 44.144 164.371 41.822 C 164.153 37.887, 151.187 14.371, 147.403 11.049 C 143.353 7.493, 141.176 7.246, 138.019 9.983 M 189 78.673 C 187.075 78.867, 179.650 79.902, 172.500 80.974 C 165.350 82.046, 154.775 83.217, 149 83.577 C 134.637 84.473, 129.077 87.475, 130.593 93.514 C 131.498 97.121, 135.676 98.029, 148.105 97.318 L 159.068 96.691 157.938 99.595 C 157.317 101.193, 156.510 104.525, 156.145 107 C 155.515 111.268, 155.275 111.545, 151.491 112.378 C 145.938 113.601, 133.758 118.208, 132.250 119.656 C 130.245 121.582, 130.803 124.556, 133.432 125.963 C 135.890 127.279, 149.691 127.017, 153.063 125.591 C 154.432 125.012, 154.533 125.789, 153.884 131.862 C 153.477 135.675, 152.160 141.082, 150.958 143.876 C 149.647 146.924, 149.011 149.907, 149.369 151.333 C 149.956 153.672, 149.800 153.727, 139.233 154.913 C 115.706 157.552, 107.757 158.910, 105.877 160.611 C 103.235 163.002, 103.544 165.655, 106.705 167.727 C 110.366 170.126, 131.026 170.146, 147.500 167.767 C 154.100 166.813, 164.675 165.294, 171 164.390 C 185.441 162.328, 234.592 161.192, 236.282 162.882 C 239.263 165.863, 246 161.865, 246 157.114 C 246 152.096, 239.809 149.308, 226.606 148.380 L 217.019 147.706 218.997 144.505 C 222.726 138.472, 226 128.156, 226 122.442 C 226 115.835, 224.185 112.645, 218.887 109.942 C 215.521 108.225, 213.020 108.008, 197.290 108.073 C 187.505 108.113, 177.137 108.482, 174.250 108.894 L 169 109.641 169.014 104.571 C 169.042 94.041, 168.522 94.331, 190.392 92.647 C 204.800 91.537, 205.350 91.412, 207.295 88.807 C 209.220 86.228, 209.232 86.003, 207.575 83.474 C 204.550 78.857, 199.675 77.597, 189 78.673 M 196 120.735 C 192.975 120.864, 185.490 121.474, 179.367 122.091 L 168.233 123.214 167.117 128.774 C 166.502 131.832, 165.992 135.271, 165.981 136.417 C 165.971 137.563, 164.410 141.563, 162.513 145.306 L 159.064 152.113 163.282 151.598 C 165.602 151.315, 175.422 150.292, 185.105 149.327 C 202.706 147.571, 202.710 147.570, 204.361 144.694 C 206.797 140.449, 211 127.396, 211 124.075 C 211 121.352, 210.738 121.174, 206.250 120.847 C 203.637 120.656, 199.025 120.606, 196 120.735 M 50.116 173.884 C 48.928 175.072, 48 177.280, 48 178.918 C 48 183.153, 53.300 186.150, 62.402 187.064 C 66.306 187.456, 70.445 188.087, 71.601 188.466 C 74.072 189.277, 76.691 187.078, 77.609 183.423 C 78.345 180.489, 75.722 176.020, 73.227 175.956 C 72.277 175.932, 69.700 175.269, 67.500 174.482 C 65.300 173.696, 60.965 172.764, 57.866 172.410 C 52.963 171.851, 51.958 172.042, 50.116 173.884 M 193.500 184.052 C 186.350 185.052, 175.100 186.392, 168.500 187.029 C 152.735 188.552, 147 190.694, 147 195.060 C 147 196.512, 146.347 196.722, 143.159 196.295 C 139.846 195.850, 139.022 196.157, 137.159 198.525 C 134.597 201.781, 134.470 205.094, 136.543 214.500 C 137.548 219.061, 138.222 228.579, 138.476 241.818 C 138.740 255.512, 139.255 262.603, 140.056 263.568 C 141.792 265.659, 146.403 265.317, 148.556 262.938 C 149.699 261.675, 151.175 261.074, 152.368 261.386 C 155.091 262.098, 186.867 260.296, 196.317 258.894 C 202.139 258.031, 204.424 258.024, 205.267 258.867 C 207.126 260.726, 210.655 260.162, 213.818 257.500 C 215.452 256.125, 217.271 255, 217.860 255 C 218.449 255, 220.561 253.569, 222.553 251.819 C 225.733 249.027, 226.117 248.201, 225.694 245.069 C 225.428 243.106, 225.879 237.225, 226.696 232 C 227.513 226.775, 228.254 216.200, 228.341 208.500 C 228.534 191.543, 227.288 187.906, 220.038 184.250 C 214.732 181.574, 211.388 181.549, 193.500 184.052 M 199 197.559 C 193.775 198.300, 184.550 199.393, 178.500 199.988 C 172.450 200.583, 164.132 201.464, 160.016 201.945 C 155.433 202.481, 151.847 202.453, 150.766 201.875 C 148.599 200.715, 148.587 199.994, 150.980 214.500 C 152.106 221.330, 152.967 231.352, 152.979 237.762 L 153 249.024 156.750 248.549 C 160.492 248.076, 163.950 247.801, 188.500 246.021 C 207.642 244.634, 207.637 244.635, 209.408 239.133 C 210.966 234.290, 213 213.518, 213 202.446 C 213 194.973, 214.225 195.400, 199 197.559" stroke="none" fill="black" fill-rule="evenodd"/>
</svg>