<svg xmlns="http://www.w3.org/2000/svg" width="300" height="300" viewBox="0 0 300 300" version="1.1">
	<path d="M 137.443 9.466 C 134.040 12.869, 134.769 16.445, 140.508 24.500 C 146.937 33.522, 149.063 35.193, 153.636 34.817 C 159.751 34.315, 159.352 31.375, 151.551 19.475 C 147.955 13.989, 144.897 9.222, 144.756 8.882 C 144.615 8.542, 143.495 7.952, 142.267 7.570 C 140.608 7.055, 139.367 7.542, 137.443 9.466 M 188.500 39.660 C 178.949 39.967, 150.277 42.505, 133.363 44.540 C 126.688 45.343, 119.263 45.997, 116.863 45.993 C 113.240 45.988, 105.178 47.167, 92.376 49.575 C 91.208 49.795, 89.268 50.772, 88.065 51.746 C 85.273 54.007, 86.148 56.507, 90.229 57.930 C 94.603 59.455, 112.402 59.253, 123.795 57.549 C 145.975 54.232, 181.375 51.411, 214 50.362 C 235.062 49.684, 237 49.165, 237 44.205 C 237 39.496, 235.024 39.050, 215 39.233 C 204.825 39.326, 192.900 39.518, 188.500 39.660 M 72.162 52.702 C 71.501 53.939, 71.810 57.150, 73.153 63 C 74.232 67.698, 75.461 78.180, 75.902 86.437 C 76.794 103.149, 75.828 138.512, 74.083 153 C 70.258 184.768, 65.412 215.840, 62.777 225.500 C 62.177 227.700, 61.368 231.300, 60.979 233.500 C 58.729 246.222, 53.457 260.891, 48.794 267.400 C 45.262 272.331, 45.190 275.310, 48.568 276.849 C 51.623 278.241, 53.728 277.084, 57.638 271.865 C 67.569 258.607, 76.243 227.078, 81.538 185 C 82.403 178.125, 83.561 169.125, 84.111 165 C 87.553 139.195, 88.742 105.380, 86.986 83.269 C 85.859 69.084, 83.895 61.245, 80.153 56 C 78.780 54.075, 77.621 52.443, 77.578 52.374 C 77.535 52.305, 76.515 51.946, 75.311 51.576 C 73.754 51.098, 72.845 51.423, 72.162 52.702 M 230.500 89.554 C 222.728 92.107, 215.387 93.850, 205.500 95.491 C 195.767 97.105, 191.187 98.544, 189.841 100.411 C 189.478 100.914, 188.435 100.577, 187.519 99.662 C 182.753 94.896, 181.717 99.059, 180.964 126 C 180.300 149.754, 179.966 155.322, 178.103 173.613 C 177.119 183.275, 176.915 183.885, 173.537 187.263 C 169.341 191.459, 169.137 193.296, 172.523 196.433 L 175.045 198.771 173.527 208.136 C 172.691 213.286, 172.006 218.980, 172.004 220.790 C 172.002 222.599, 171.100 225.844, 170 228 C 167.539 232.824, 167.483 234.653, 169.761 235.872 C 172.920 237.563, 176.988 235.981, 179.408 232.120 C 181.636 228.567, 184.255 216.817, 185.564 204.500 C 186.417 196.485, 187.206 195.302, 192.237 194.504 C 198.519 193.508, 214.264 189.285, 224.191 185.934 C 228.971 184.320, 233.111 183, 233.391 183 C 234.155 183, 233.536 243.329, 232.759 244.583 C 232.390 245.179, 230.758 245.471, 229.133 245.233 C 226.871 244.901, 225.910 245.300, 225.034 246.937 C 221.074 254.335, 235.609 261.127, 240.928 254.365 C 242.068 252.915, 243.424 250.103, 243.942 248.115 C 244.896 244.452, 247.055 152.618, 247.019 117.218 C 246.999 96.491, 246.297 92.722, 241.883 89.631 C 239.180 87.738, 236.094 87.717, 230.500 89.554 M 109.400 91.765 C 106.527 93.684, 105.995 97.063, 106.577 109.697 C 107.294 125.255, 105.567 176.003, 104.014 185 C 101.965 196.867, 99.961 207.417, 98.410 214.500 C 97.566 218.350, 96.683 222.463, 96.447 223.639 C 96.195 224.895, 94.981 226.039, 93.509 226.408 C 91.468 226.921, 91 227.650, 91 230.319 C 91 234.571, 92.538 236, 97.116 236 C 100.225 236, 101.309 235.387, 103.749 232.250 C 105.354 230.188, 107.360 225.800, 108.208 222.500 C 110.180 214.826, 112.816 202.576, 113.533 197.750 C 113.949 194.953, 114.566 194, 115.960 194 C 116.988 194, 123.380 191.264, 130.165 187.921 C 136.949 184.577, 145.155 180.537, 148.400 178.943 L 154.300 176.044 153.579 205.260 C 153.182 221.329, 152.669 234.664, 152.439 234.895 C 152.208 235.125, 150.912 234.118, 149.558 232.657 C 146.597 229.462, 145.627 229.373, 142.949 232.051 C 140.596 234.404, 140.935 236.350, 144.749 242.393 C 148.088 247.684, 151.844 251, 154.500 251 C 157.226 251, 161.658 247.022, 163.091 243.288 C 164.519 239.566, 165.932 199.675, 166.606 144 L 167.157 98.500 164.747 95.593 C 162.920 93.388, 161.532 92.709, 159.003 92.781 C 154.909 92.897, 141.594 99.543, 133.500 105.509 C 130.200 107.941, 126.968 109.947, 126.317 109.966 C 124.605 110.015, 123.597 113.997, 124.954 115.351 C 125.588 115.983, 128.461 116.418, 131.339 116.317 C 135.798 116.161, 137.882 115.311, 145.438 110.567 C 150.315 107.505, 154.753 105, 155.300 105 C 156.301 105, 155.475 155.685, 154.355 163 L 153.819 166.500 140.163 171 C 132.653 173.475, 124.143 176.724, 121.254 178.219 L 116 180.938 116 174.120 C 116 170.370, 116.291 163.859, 116.647 159.651 L 117.293 152 121.478 152 C 126.702 152, 136.496 148.926, 145 144.617 C 150.819 141.668, 151.534 140.977, 151.824 138.017 C 152.407 132.068, 148.122 131.545, 134.544 135.904 C 129.570 137.501, 123.611 139.232, 121.301 139.751 L 117.102 140.695 116.801 117.757 C 116.503 95.026, 116.479 94.803, 114.139 92.910 C 111.541 90.808, 111.021 90.683, 109.400 91.765 M 231.500 101.109 C 217.316 105.539, 209.615 107, 200.457 107 L 190.715 107 191.358 113.147 C 191.711 116.527, 192 124.852, 192 131.647 C 192 143.793, 192.038 144, 194.250 143.992 C 196.863 143.983, 206.187 141.184, 213.787 138.127 C 220.781 135.313, 228.530 135.253, 230 138 C 231.792 141.349, 229.534 143.691, 220.345 148.016 C 210.035 152.869, 201.506 155.832, 195.457 156.661 C 191.268 157.235, 191 157.459, 190.993 160.386 C 190.989 162.099, 190.345 167.768, 189.562 172.985 C 188.778 178.202, 188.220 182.553, 188.320 182.654 C 188.593 182.926, 197.794 181.055, 203.500 179.567 C 215.937 176.323, 221.974 174.667, 228.250 172.779 L 235 170.749 235 135.375 C 235 115.919, 234.887 100.039, 234.750 100.086 C 234.613 100.133, 233.150 100.594, 231.500 101.109 M 36.427 169.765 C 32.370 172.543, 35.647 180.073, 41.792 182.090 C 43.832 182.760, 47.254 184.218, 49.397 185.331 L 53.294 187.355 55.147 185.067 C 56.166 183.808, 57 181.894, 57 180.812 C 57 177.762, 52.055 173.538, 45.700 171.161 C 39.484 168.835, 38.092 168.626, 36.427 169.765 M 60 185.282 C 59.175 185.952, 57.150 188.492, 55.500 190.927 C 51.984 196.117, 42.497 205.902, 35.750 211.300 C 31.837 214.430, 31 215.672, 31 218.350 C 31 222.416, 32.536 224, 36.477 224 C 40.015 224, 42.742 222.368, 48.835 216.602 C 56.244 209.592, 68 193.026, 68 189.597 C 68 184.799, 63.550 182.399, 60 185.282" stroke="none" fill="black" fill-rule="evenodd"/>
</svg>