<svg xmlns="http://www.w3.org/2000/svg" width="300" height="300" viewBox="0 0 300 300" version="1.1">
	<path d="M 165.242 9.102 C 162.228 10.222, 160.604 14.076, 161.387 18.249 C 161.738 20.119, 164.333 25.201, 167.154 29.542 C 172.146 37.223, 175.491 43.843, 174.752 44.581 C 174.552 44.782, 168.338 45.406, 160.944 45.967 C 153.550 46.529, 142.100 47.663, 135.500 48.486 C 128.900 49.310, 120.558 49.988, 116.962 49.992 C 106.888 50.004, 87.038 52.745, 84.372 54.492 C 80.814 56.823, 81.009 62.673, 84.691 64.073 C 88.509 65.524, 119 63.499, 169.500 58.440 C 194.430 55.942, 215.993 54.746, 225.500 55.334 C 236.940 56.042, 247.518 54.748, 250.908 52.227 C 255.385 48.898, 254.996 42.610, 250.137 39.740 C 246.118 37.366, 240.318 37.421, 239.551 39.841 C 239.013 41.535, 237.081 41.734, 215.233 42.336 C 202.180 42.696, 189.925 43.257, 188 43.583 L 184.500 44.175 184.500 37.550 C 184.500 33.722, 184.024 30.624, 183.372 30.213 C 182.752 29.821, 180.350 25.597, 178.035 20.826 C 172.671 9.774, 170.006 7.331, 165.242 9.102 M 84.109 68.250 C 83.646 69.487, 83.022 88.500, 82.722 110.500 C 82.279 142.955, 81.786 153.424, 80.108 166 C 70.929 234.831, 64.762 259.709, 53.979 271.407 C 50.268 275.433, 50.041 275.995, 51.144 278.416 C 53.804 284.255, 59.122 282.409, 67.103 272.877 C 76.672 261.447, 81.696 243.328, 89.943 190.500 C 93.952 164.822, 95.277 147.887, 95.745 116.347 C 96.230 83.658, 95.829 78.868, 91.905 70.521 C 90.247 66.995, 89.249 66, 87.365 66 C 85.777 66, 84.662 66.770, 84.109 68.250 M 193.541 90.955 C 191.913 92.754, 191.763 96.171, 191.669 133.705 L 191.566 174.500 194.157 174.804 C 197.948 175.249, 199.782 172.746, 200.426 166.251 C 200.740 163.088, 201.784 154.425, 202.748 147 C 204.882 130.554, 205.084 104.595, 203.129 97.820 C 201.713 92.909, 198.826 89, 196.616 89 C 195.898 89, 194.514 89.880, 193.541 90.955 M 115.302 113.501 C 114.123 114.327, 112.858 116.370, 112.491 118.042 C 111.632 121.951, 113.803 125.349, 118.781 127.888 C 120.844 128.941, 124.301 131.422, 126.462 133.401 C 130.977 137.537, 132.229 137.771, 135 135 C 137.427 132.573, 137.463 131.777, 135.349 127.322 C 133.724 123.898, 120.669 112, 118.537 112 C 117.936 112, 116.481 112.676, 115.302 113.501 M 215.519 115.164 C 208.539 120.654, 216.557 132.675, 232.242 140.237 C 248.578 148.113, 273.318 153.567, 277.959 150.316 C 280.228 148.727, 280.583 145.302, 278.718 142.988 C 277.249 141.164, 272.584 139, 270.121 139 C 268.454 139, 265.449 138.171, 247.500 132.764 C 239.853 130.460, 231.273 126.064, 228.548 123.053 C 227.595 122, 226.069 119.667, 225.157 117.870 C 222.975 113.566, 218.977 112.444, 215.519 115.164 M 170.991 128.858 C 169.346 130.430, 168 132.101, 168 132.570 C 168 133.040, 166.038 137.491, 163.640 142.462 C 156.589 157.077, 154.747 162.179, 154.620 167.443 C 154.509 172.024, 154.718 172.488, 157.303 173.417 C 159.207 174.100, 160.650 174.090, 161.803 173.385 C 163.818 172.152, 168.485 163.746, 173.676 152 C 175.741 147.325, 178.432 141.925, 179.655 140 C 183.337 134.203, 183.572 131.481, 180.641 128.550 C 177.334 125.243, 174.686 125.327, 170.991 128.858 M 47.408 154.874 C 44.564 157.180, 43.977 159.333, 45.091 163.368 C 46.888 169.875, 61.050 179.957, 66.479 178.595 C 71.870 177.242, 70.993 172.033, 64.229 165.225 C 61.628 162.607, 58.600 159.319, 57.500 157.917 C 54.580 154.196, 49.960 152.803, 47.408 154.874 M 242.145 154.750 C 241.003 155.713, 238.982 159.875, 237.655 164 C 232.365 180.434, 223.133 196.934, 203.803 224.500 C 195.246 236.702, 183.568 248.285, 163.832 264.147 C 156.314 270.188, 149.914 275.781, 149.610 276.574 C 149.305 277.368, 149.482 279.138, 150.003 280.509 C 150.945 282.985, 152.711 283.563, 157.900 283.094 C 163.416 282.596, 194.368 257.678, 203.466 246.411 C 205.647 243.710, 207.733 241.275, 208.101 241 C 208.968 240.353, 218.579 226.733, 225.391 216.500 C 238.671 196.552, 249.631 173.334, 250.683 162.920 C 251.210 157.706, 251.066 157.197, 248.489 155.170 C 245.156 152.549, 244.786 152.524, 242.145 154.750 M 112.266 167.513 C 104.697 169.158, 100.317 171.601, 99.565 174.598 C 97.822 181.543, 104.998 183.878, 115.775 179.872 C 118.924 178.702, 123.525 177.465, 126 177.122 C 129.985 176.571, 130.536 176.185, 130.817 173.745 C 131.196 170.453, 129.196 168.203, 124.759 166.931 C 120.773 165.788, 120.055 165.821, 112.266 167.513 M 135.010 195.674 C 132.105 199.894, 124.475 209.907, 118.053 217.924 C 99.871 240.624, 98.051 243.953, 101.358 248.476 C 102.956 250.660, 108.135 250.963, 110.489 249.009 C 111.366 248.281, 114.653 244.118, 117.792 239.759 C 120.931 235.399, 125.673 228.832, 128.330 225.166 C 133.892 217.489, 142.345 204.618, 146.284 197.826 C 149.910 191.576, 148.692 188.049, 142.896 188.015 C 140.769 188.003, 139.325 189.406, 135.010 195.674 M 45 197.511 C 40.875 200.498, 36.825 203.267, 36 203.665 C 31.207 205.976, 29.817 211.111, 33.052 214.555 C 36.339 218.054, 39.984 217.693, 45.155 213.358 C 47.545 211.355, 51.862 207.966, 54.750 205.826 C 59.290 202.463, 60 201.477, 60 198.540 C 60 194.634, 57.828 191.982, 54.679 192.041 C 53.480 192.063, 49.125 194.525, 45 197.511" stroke="none" fill="black" fill-rule="evenodd"/>
</svg>