<svg xmlns="http://www.w3.org/2000/svg" width="300" height="300" viewBox="0 0 300 300" version="1.1">
	<path d="M 143.241 9.986 C 140.397 14.539, 142.446 22.828, 148.743 32.246 C 150.307 34.586, 152.095 37.683, 152.717 39.129 L 153.847 41.759 148.174 42.346 C 141.388 43.049, 107.540 44.862, 93.500 45.274 C 85.189 45.518, 82.796 45.966, 79.330 47.923 C 72.086 52.015, 73.020 56, 81.225 56 C 87.193 56, 87.445 56.512, 90.093 74 C 93.316 95.283, 92.405 113.599, 86.387 148.500 C 82.725 169.735, 80.784 178.735, 80.240 177 C 79.598 174.953, 76.984 173, 74.886 173 C 73.933 173, 68.710 177.387, 63.279 182.750 C 57.848 188.113, 51.149 193.824, 48.393 195.442 C 42.175 199.092, 36.847 205.698, 37.648 208.762 C 38.355 211.466, 41.097 212.392, 45.791 211.511 C 48.720 210.962, 52.297 207.981, 64.622 195.816 L 79.837 180.798 79.323 185.149 C 79.040 187.542, 77.727 194.447, 76.404 200.493 C 75.082 206.540, 74.001 212.390, 74.001 213.493 C 74.003 215.919, 69.597 234.804, 66.768 244.500 C 65.644 248.350, 62.670 255.917, 60.159 261.315 C 55.197 271.979, 55.228 274.204, 60.347 274.816 C 62.295 275.049, 63.804 274.258, 66.073 271.816 C 74.321 262.937, 80.592 244.281, 87.356 208.500 C 101.274 134.872, 103.446 119.703, 103.465 96 C 103.480 78.672, 102.358 71.858, 97.891 62.140 C 96.788 59.742, 96.126 57.541, 96.418 57.249 C 96.710 56.957, 107.423 56.338, 120.225 55.875 C 133.026 55.411, 149.575 54.524, 157 53.903 C 164.425 53.282, 183.419 52.487, 199.208 52.137 C 226.348 51.535, 227.999 51.391, 229.427 49.500 C 231.492 46.765, 231.371 43.646, 229.123 41.611 C 227.466 40.112, 224.375 39.909, 202.811 39.885 C 189.373 39.870, 175.705 40.158, 172.439 40.524 L 166.500 41.190 164.655 35.845 C 160.814 24.714, 149.746 8, 146.217 8 C 145.262 8, 143.923 8.894, 143.241 9.986 M 210.651 68.492 C 207.905 71.238, 207.117 76.831, 206.400 98.658 L 205.705 119.817 196.103 121.509 C 184.196 123.606, 178 127.130, 178 131.803 C 178 136.224, 182.977 137.968, 190.013 136.013 C 191.945 135.476, 196.332 134.653, 199.763 134.184 L 206 133.331 206 140.527 C 206 147.649, 205.975 147.718, 203.518 147.248 C 196.902 145.984, 193.979 149.890, 189.860 165.500 C 186.205 179.351, 185.009 183.532, 184.136 185.500 C 181.978 190.366, 181 193.199, 181 194.585 C 181 198.153, 168.915 221.134, 165.006 225 C 163.858 226.135, 162 230.069, 162 231.364 C 162 233.189, 163.871 234.679, 167.216 235.518 C 169.494 236.090, 170.491 235.589, 173.525 232.349 C 179.371 226.105, 185.834 216.646, 188.900 209.846 C 192.912 200.947, 201.571 175.397, 202.404 170 C 202.786 167.525, 203.678 164.444, 204.387 163.152 C 205.467 161.184, 205.775 166.436, 206.296 195.662 C 207.040 237.395, 206.123 247, 201.397 247 C 199.499 247, 198.500 251.693, 200.011 253.513 C 200.727 254.377, 202.926 255, 205.254 255 C 208.508 255, 209.860 254.368, 212.428 251.645 C 217.582 246.181, 218.563 237.536, 218.180 201 L 217.860 170.500 221.680 175.565 C 232.455 189.853, 256.721 213.341, 261.877 214.473 C 265.957 215.369, 269 213.584, 269 210.295 C 269 207.680, 267.423 205.797, 249.588 187.127 C 241.103 178.244, 223.070 161.989, 220.301 160.728 C 218.051 159.702, 218.001 159.357, 218.025 145.089 L 218.051 130.500 225.275 127.084 C 236.661 121.700, 238.792 119.004, 235.443 114.223 C 233.440 111.363, 231.387 111.421, 225.596 114.500 C 223.010 115.875, 220.355 117, 219.697 117 C 218.818 117, 218.454 112.156, 218.327 98.750 C 218.232 88.712, 217.782 77.575, 217.327 74 C 216.621 68.450, 216.189 67.456, 214.375 67.197 C 213.206 67.030, 211.530 67.613, 210.651 68.492 M 139.747 83.361 C 137.245 87.322, 136.905 89.026, 136.012 102.109 C 135.472 110.024, 135.023 118.339, 135.015 120.586 L 135 124.673 127.750 126.412 C 113.556 129.817, 108.783 133.235, 111.106 138.333 C 113.121 142.755, 116.023 143.488, 122.647 141.247 C 125.866 140.157, 129.963 138.992, 131.750 138.658 L 135 138.050 135 146.060 C 135 153.365, 134.846 153.991, 133.250 153.170 C 129.464 151.223, 125.084 155.522, 125.033 161.236 C 124.989 166.230, 123.394 172.742, 119.702 183 C 115.627 194.323, 112.262 200.986, 105.573 210.980 C 99.857 219.520, 99.110 221.710, 101.200 223.800 C 104.887 227.487, 111.353 222.727, 119.596 210.256 C 125.423 201.443, 133.850 184.216, 134.154 180.500 C 134.745 173.257, 137.359 239.094, 137.038 253.143 C 136.991 255.190, 139.412 256.186, 142.534 255.402 C 146.961 254.291, 147.508 250.127, 147.409 218.288 L 147.318 189.077 151.409 191.616 C 162.537 198.523, 170.099 200.416, 172.330 196.851 C 173.856 194.414, 170.935 190.573, 164.357 186.365 C 158.833 182.832, 153.954 178.374, 148.750 172.106 C 146.033 168.834, 146 168.622, 146 154.522 C 146 136.895, 146.486 134, 149.443 134 C 153.344 134, 162.437 130.870, 164.750 128.732 C 167.298 126.376, 167.595 124.452, 165.703 122.561 C 163.381 120.238, 160.429 119.941, 153.700 121.351 L 147.087 122.738 147.372 102.119 C 147.529 90.778, 147.462 80.938, 147.222 80.250 C 146.247 77.455, 142.491 79.018, 139.747 83.361 M 51.357 154.992 C 44.406 157.797, 44.324 169.391, 51.267 167.648 C 55.149 166.673, 57.695 167.943, 58.661 171.335 C 59.389 173.888, 60.154 174.558, 62.617 174.801 C 66.484 175.182, 68.226 173.152, 68.358 168.107 C 68.496 162.873, 66.392 159.314, 61.449 156.417 C 57.115 153.877, 54.895 153.564, 51.357 154.992" stroke="none" fill="black" fill-rule="evenodd"/>
</svg>