<svg xmlns="http://www.w3.org/2000/svg" width="300" height="300" viewBox="0 0 300 300" version="1.1">
	<path d="M 155.900 9.940 C 144.898 10.335, 139.817 10.902, 138.662 11.863 C 137.263 13.026, 136.933 12.989, 136.405 11.613 C 135.607 9.533, 129.409 9.448, 127.367 11.490 C 124.500 14.357, 124.740 19.179, 128.538 35.002 C 130.584 43.526, 132.590 50.950, 132.996 51.500 C 133.402 52.050, 134.738 55.562, 135.966 59.304 C 137.194 63.046, 139.056 66.906, 140.104 67.882 C 141.971 69.622, 141.961 69.683, 139.615 70.938 C 136.629 72.536, 134.723 76.551, 135.615 79.361 C 137.010 83.759, 138.412 84.020, 158 83.530 L 176.500 83.067 161.500 85.397 C 144.109 88.100, 117.541 93.645, 114.206 95.268 C 112.757 95.974, 112.020 97.107, 112.206 98.342 C 112.976 103.464, 123.716 106.591, 135.500 105.125 C 139.350 104.645, 142.597 104.330, 142.714 104.424 C 143.070 104.708, 136.025 118.146, 133.796 121.435 C 131.219 125.238, 110.270 146, 109.011 146 C 108.505 146, 107.792 147.593, 107.427 149.540 C 105.789 158.270, 116.167 159.633, 124.209 151.743 C 125.469 150.507, 129.373 147.022, 132.885 143.998 C 136.396 140.974, 141.144 136.207, 143.435 133.404 C 147.169 128.835, 147.853 128.406, 150.050 129.255 C 151.409 129.781, 158.770 129.984, 166.575 129.712 C 180.009 129.244, 180.643 129.309, 180.508 131.148 C 180.429 132.207, 178.693 134.453, 176.649 136.138 C 174.605 137.822, 171.422 141.518, 169.575 144.350 C 164.759 151.735, 160.091 156.887, 160.041 154.872 C 159.995 153.047, 162.299 146.879, 164.538 142.834 C 166.418 139.438, 165.049 135.349, 161.594 134.036 C 157.859 132.616, 149.774 136.849, 147.643 141.340 C 144.907 147.106, 142.604 157.285, 143.356 160.284 C 144.412 164.491, 147.481 167, 151.571 167 C 153.536 167, 155.818 167.675, 156.643 168.500 C 157.468 169.325, 159.429 170, 161.001 170 C 166.319 170, 183.806 152.480, 190.248 140.698 C 192.190 137.146, 192.530 131.859, 191.001 129.001 C 189.745 126.655, 191.596 125.953, 199.278 125.861 C 206.256 125.778, 208.658 127.106, 209.951 131.762 C 211.133 136.019, 211.346 153.933, 210.235 155.605 C 209.831 156.213, 207.805 157.263, 205.733 157.938 C 201.339 159.371, 195 164.979, 195 167.434 C 195 170.256, 196.810 172.735, 199.332 173.368 C 203.186 174.336, 217.878 169.583, 221.151 166.311 C 224.978 162.483, 226.422 154.455, 225.566 141.759 C 223.798 115.534, 215.534 108.927, 189.065 112.576 C 182.704 113.454, 172.325 115.220, 166 116.503 C 159.676 117.785, 154.352 118.685, 154.169 118.503 C 153.987 118.320, 154.395 117.131, 155.075 115.859 C 157.068 112.135, 157.919 106.918, 156.949 104.367 C 156.454 103.065, 156.198 102, 156.379 102 C 156.560 102, 162.538 101.106, 169.664 100.014 C 176.790 98.922, 190.468 97.539, 200.060 96.940 C 218.973 95.760, 221 95.090, 221 90.019 C 221 88.460, 219.954 86.366, 218.487 84.988 C 216.218 82.856, 214.859 82.585, 204.448 82.187 C 193.672 81.774, 193.021 81.634, 194.460 80.044 C 196.171 78.154, 196.566 73, 195 73 C 194.450 73, 194 72.325, 194 71.500 C 194 70.675, 194.421 70, 194.936 70 C 195.810 70, 206.075 56.331, 214.358 44.138 C 217.718 39.191, 218 38.215, 218 31.538 C 218 25.123, 217.667 23.841, 215.073 20.259 C 211.436 15.239, 203.540 11.215, 194.869 9.961 C 188.245 9.003, 182.073 9, 155.900 9.940 M 143.199 31.344 C 143.638 34.558, 144.207 37.526, 144.463 37.941 C 144.719 38.355, 146.933 38.390, 149.382 38.018 C 151.832 37.646, 157.135 37.757, 161.168 38.264 C 165.201 38.771, 173.675 38.847, 180 38.433 C 194.769 37.467, 197.152 37.459, 199.119 38.366 C 200.371 38.944, 201.114 38.172, 202.403 34.951 C 204.317 30.168, 203.807 29.085, 198.442 26.540 C 195.444 25.117, 191.432 24.936, 168.688 25.198 L 142.400 25.500 143.199 31.344 M 56.418 27.969 C 53.201 29.271, 49 34.856, 49.004 37.827 C 49.008 41.191, 52.124 46.380, 55.448 48.558 C 56.847 49.474, 62.290 50.927, 67.544 51.785 C 76.937 53.320, 77.133 53.312, 79.180 51.264 C 83.365 47.079, 79.236 40.910, 70.108 37.709 C 65.604 36.130, 65 35.586, 65 33.114 C 65 30.156, 62.315 26.957, 59.921 27.063 C 59.140 27.098, 57.563 27.506, 56.418 27.969 M 187.500 52.083 C 182.103 53.723, 168.698 54.211, 158.541 53.138 C 153.063 52.559, 148.458 52.209, 148.308 52.359 C 148.157 52.509, 148.496 54.178, 149.061 56.066 C 149.626 57.955, 150.106 61.413, 150.128 63.750 L 150.167 68 159.833 68.006 C 165.150 68.009, 173.265 68.305, 177.867 68.663 C 186.200 69.312, 186.232 69.305, 185.524 67.077 C 184.983 65.372, 185.911 63.188, 189.415 57.919 C 194.288 50.591, 194.117 50.073, 187.500 52.083 M 73.806 85.405 C 70.124 86.704, 65.519 88.752, 63.571 89.956 C 61.443 91.272, 59.257 91.899, 58.092 91.529 C 55.570 90.729, 49 97.110, 49 100.359 C 49 101.620, 50.110 103.694, 51.467 104.969 C 55.348 108.615, 62.928 107.417, 72.248 101.685 C 76.236 99.232, 81.186 96.689, 83.247 96.036 C 86.954 94.859, 90 91.791, 90 89.232 C 90 87.074, 85.273 82.998, 82.795 83.021 C 81.533 83.033, 77.488 84.105, 73.806 85.405 M 94.934 98.875 C 92.387 99.891, 88 103.699, 88 104.894 C 88 105.502, 87.550 106, 87 106 C 86.450 106, 85.996 106.563, 85.991 107.250 C 85.983 108.368, 83.546 111.732, 73.500 124.493 C 65.202 135.033, 60.129 140.975, 55.388 145.709 C 48.403 152.683, 47 154.854, 47 158.687 C 47 162.214, 49.098 164, 53.238 164 C 56.842 164, 64.385 158.729, 68.668 153.217 C 70.776 150.505, 75.200 144.812, 78.500 140.566 C 88.085 128.233, 102 106.874, 102 104.494 C 102 101.226, 97.671 97.783, 94.934 98.875 M 127.500 192.660 C 121.450 193.426, 111.775 194.720, 106 195.536 C 100.225 196.352, 93.859 197.015, 91.854 197.010 C 88.936 197.002, 87.597 197.695, 85.153 200.478 C 82.459 203.547, 81.925 203.783, 80.621 202.478 C 76.798 198.655, 70 203.181, 70 209.550 C 70 211.553, 70.671 214.386, 71.491 215.846 C 72.311 217.306, 75.283 225.475, 78.095 234 C 80.907 242.525, 83.846 250.733, 84.625 252.241 C 87.710 258.209, 94.286 259.571, 96.854 254.774 C 98.132 252.385, 96.022 242.872, 89.601 222.074 C 88.171 217.439, 87 213.305, 87 212.887 C 87 212.468, 88.463 212.360, 90.250 212.647 C 92.037 212.933, 97.550 212.456, 102.500 211.587 C 115.942 209.226, 114.849 208.343, 113.214 220.250 C 111.644 231.680, 112.693 246.935, 115.513 253.684 C 116.345 255.677, 116.777 257.556, 116.473 257.861 C 115.199 259.135, 90.763 260.986, 66.754 261.628 C 38.825 262.375, 37.204 262.707, 33.436 268.458 C 31.977 270.683, 31.943 271.282, 33.169 273.129 C 34.548 275.206, 35.098 275.244, 61.538 275.090 C 90.506 274.921, 101.616 274.080, 155 268.010 C 192.114 263.790, 220.044 261.473, 245.500 260.503 C 263.802 259.806, 267.674 259.040, 271.043 255.455 L 273.455 252.887 271.474 249.193 L 269.492 245.500 257.996 245.795 C 241.744 246.211, 209.115 247.919, 205.250 248.556 C 203.463 248.850, 202 248.688, 202 248.196 C 202 247.703, 204.476 243.193, 207.503 238.173 C 217.613 221.401, 221.997 208.592, 220.015 201.610 C 217.409 192.436, 210.126 190.950, 168.662 191.134 C 149.629 191.218, 134.441 191.781, 127.500 192.660 M 140.526 206.188 C 135.590 206.694, 131.233 207.623, 130.843 208.254 C 129.208 210.899, 126.996 227.227, 126.998 236.635 C 127 246.341, 127.106 246.839, 129.500 248.408 C 131.279 249.574, 132 250.942, 132 253.155 C 132 256.215, 132.064 256.255, 136.083 255.716 C 138.328 255.415, 140.340 254.994, 140.553 254.780 C 141.907 253.426, 144.117 240.582, 144.877 229.650 C 145.668 218.260, 146.116 216.129, 148.812 210.900 C 150.502 207.624, 151.331 205.060, 150.678 205.135 C 150.030 205.209, 145.462 205.683, 140.526 206.188 M 162.642 208.250 C 162.323 210.037, 161.543 217.575, 160.909 225 C 160.275 232.425, 158.958 241.650, 157.981 245.500 C 157.005 249.350, 156.280 252.583, 156.370 252.684 C 156.460 252.785, 161.026 252.231, 166.517 251.453 C 172.008 250.675, 179.088 250.030, 182.250 250.019 C 186.933 250.004, 188 249.692, 188 248.340 C 188 247.427, 190.424 241.689, 193.387 235.590 C 199.824 222.338, 205.518 208.185, 204.730 207.396 C 204.018 206.685, 181.074 205.087, 170.861 205.037 L 163.223 205 162.642 208.250" stroke="none" fill="black" fill-rule="evenodd"/>
</svg>