<svg xmlns="http://www.w3.org/2000/svg" width="300" height="300" viewBox="0 0 300 300" version="1.1">
	<path d="M 147.637 9.506 C 143 14.143, 145.496 22.012, 154.375 30.750 C 160.637 36.913, 163.446 38.154, 165.800 35.800 C 168.206 33.394, 166.320 26.177, 162.213 22.070 C 161.373 21.230, 159.800 18.508, 158.719 16.021 C 157.638 13.534, 156.064 10.713, 155.222 9.750 C 153.341 7.602, 149.660 7.483, 147.637 9.506 M 228.329 37.880 C 224.488 41.088, 215.165 42.351, 200.198 41.692 C 178.177 40.723, 137.729 43.542, 115 47.630 C 110.325 48.471, 103.125 49.410, 99 49.717 C 91.788 50.252, 86.314 52.049, 84.765 54.390 C 83.336 56.550, 84.029 59.907, 86.221 61.442 C 88.401 62.969, 88.441 63.387, 88.370 84.249 C 88.298 105.297, 87.949 109.255, 82.778 147.624 C 80.893 161.614, 80.416 163.559, 79.174 162.317 C 78.386 161.529, 77.148 161.113, 76.422 161.391 C 75.693 161.671, 74.825 161.025, 74.484 159.949 C 74.144 158.877, 73.221 158, 72.433 158 C 71.645 158, 71 157.656, 71 157.236 C 71 156.319, 63.829 153.116, 60.114 152.373 C 56.960 151.742, 52 155.172, 52 157.984 C 52 160.679, 57.564 164.907, 62.056 165.625 C 64.202 165.968, 66.755 166.842, 67.729 167.566 C 69.344 168.766, 68.705 169.660, 60.483 177.691 C 55.524 182.536, 49.536 188.229, 47.178 190.341 C 43.414 193.713, 42.927 194.627, 43.195 197.823 C 43.444 200.797, 44.021 201.646, 46.341 202.457 C 50.121 203.778, 54.006 201.409, 61.028 193.500 C 63.958 190.200, 69.159 184.453, 72.586 180.728 L 78.816 173.956 78.350 178.228 C 77.641 184.727, 72.112 212.303, 68.871 225.500 C 64.689 242.532, 63.515 245.750, 57.113 257.745 C 55.404 260.948, 56.638 263.372, 60.199 263.802 C 63.439 264.193, 69.554 258.205, 72.186 252.065 C 80.621 232.389, 89 191.672, 94.941 141.500 C 100.030 98.529, 101.106 78.862, 99.048 66.500 C 98.591 63.750, 98.346 61.359, 98.506 61.186 C 99.368 60.250, 141.629 55.433, 158.500 54.347 C 164.550 53.957, 181.200 53.601, 195.500 53.555 C 224.778 53.461, 229.163 52.752, 234.710 47.217 C 238.300 43.634, 238.934 40.076, 236.429 37.571 C 234.360 35.503, 231.022 35.630, 228.329 37.880 M 148.619 76.250 C 147.834 77.487, 146.893 80.364, 146.527 82.641 C 145.883 86.647, 145.659 86.856, 139.680 89.028 C 136.281 90.262, 132.989 91.464, 132.365 91.699 C 131.693 91.952, 130.721 90.006, 129.984 86.932 C 127.986 78.606, 122.675 75.387, 118.517 79.982 C 117.055 81.597, 116.861 82.846, 117.468 86.732 C 118.836 95.486, 118.961 95.186, 113 97.481 C 108.431 99.240, 107.500 100.009, 107.500 102.020 C 107.500 104.962, 110.972 106.964, 116.108 106.985 L 119.716 107 122.025 115.594 C 123.855 122.403, 124.923 124.623, 127.167 126.282 C 128.725 127.434, 130 128.741, 130 129.188 C 130 129.635, 127.327 130, 124.059 130 C 120.791 130, 117.841 130.449, 117.502 130.997 C 117.129 131.601, 115.380 131.128, 113.070 129.798 C 109.546 127.770, 109.131 127.726, 107.627 129.230 C 104.694 132.163, 106.361 141.844, 111.719 153 C 112.644 154.925, 113.448 158.374, 113.507 160.665 C 113.648 166.174, 115.048 167.616, 121.028 168.409 C 126.415 169.124, 126.316 168.896, 124.375 176.138 C 124.134 177.039, 122.133 178.970, 119.928 180.429 C 113.025 184.997, 112.355 191, 118.747 191 C 121.017 191, 121.192 191.291, 120.625 194.125 C 120.281 195.844, 120 198.044, 120 199.014 C 120 202.336, 116.536 205.294, 111.923 205.912 C 108.731 206.339, 107.429 207.004, 107.173 208.339 C 106.736 210.608, 110.694 215, 113.174 215 C 115.504 215, 115.469 216.230, 112.912 224.085 C 109.842 233.514, 103.836 245.830, 99.660 251.259 C 94.330 258.188, 94.937 261, 101.762 261 C 107.225 261, 117.529 246.570, 122.561 231.870 C 123.949 227.816, 125.301 223.873, 125.566 223.106 C 125.881 222.195, 130.286 225.851, 138.274 233.653 C 144.998 240.220, 152.075 246.530, 154 247.675 C 162 252.433, 170.495 251.103, 169.810 245.200 C 169.581 243.228, 168.360 241.899, 165.158 240.137 C 162.769 238.823, 157.345 234.542, 153.103 230.624 C 141.276 219.700, 139.258 218.138, 132.191 214.436 C 130.921 213.771, 130.005 212.838, 130.154 212.363 C 130.406 211.562, 139.416 206.104, 149.983 200.351 C 156.408 196.854, 159 194.109, 159 190.804 C 159 188.792, 158.316 187.645, 156.666 186.894 C 154.707 186.001, 152.754 186.567, 144.520 190.415 C 139.123 192.937, 134.275 195, 133.746 195 C 132.511 195, 133.742 189.851, 135.316 188.431 C 135.967 187.844, 139.110 186.576, 142.300 185.614 C 148.168 183.846, 150.707 181.005, 149.419 177.649 C 148.540 175.360, 144.387 173.736, 140.555 174.183 C 136.975 174.601, 136.936 174.567, 137.569 171.553 C 138.455 167.339, 138.916 167.022, 145.077 166.391 C 151.635 165.719, 156 164.184, 156 162.549 C 156 161.885, 158.375 158.677, 161.277 155.420 C 164.179 152.164, 167.706 148.089, 169.115 146.365 L 171.677 143.230 172.393 187.865 C 172.787 212.414, 173.474 236.287, 173.921 240.916 C 174.782 249.846, 176.074 252, 180.569 252 C 184.664 252, 185.500 249.516, 185.500 237.346 L 185.500 226 197 225.980 C 203.325 225.969, 214.575 225.292, 222 224.475 C 229.425 223.658, 242.250 222.705, 250.500 222.356 C 268.020 221.617, 271 220.652, 271 215.718 C 271 210.216, 268.356 209.706, 242.176 210.159 L 219.500 210.552 219.801 195.026 C 220.094 179.879, 220.161 179.455, 222.551 177.667 C 226.157 174.967, 225.895 170.416, 222.006 168.203 C 219.906 167.008, 219.011 165.734, 219.006 163.934 C 219.001 161.784, 219.961 160.908, 224.922 158.537 C 231.308 155.485, 232.639 153.357, 230.273 149.979 C 228.984 148.139, 227.977 147.877, 223.301 148.164 L 217.836 148.500 218.430 144 C 218.756 141.525, 219.066 138.488, 219.118 137.250 C 219.169 136.012, 219.642 135, 220.168 135 C 222.175 135, 232.170 129.721, 232.680 128.391 C 233.650 125.863, 232.077 122.236, 229.759 121.657 C 228.516 121.346, 223.900 121.941, 219.500 122.979 C 215.100 124.017, 209.250 125.379, 206.500 126.007 C 191.841 129.352, 188.306 130.447, 186.301 132.262 L 184.102 134.253 183.453 131.668 C 182.631 128.392, 183.820 126.666, 203.008 103.292 C 204.498 101.478, 204.202 96.733, 202.443 94.223 C 199.824 90.483, 195.643 91.254, 192.315 96.090 C 190.767 98.340, 187.475 102.563, 185 105.474 C 182.525 108.385, 177.575 114.861, 174 119.865 C 168.584 127.445, 167.166 128.851, 165.500 128.291 C 162.754 127.369, 149.278 127.335, 145 128.240 C 141.665 128.946, 141.397 128.790, 139.308 124.944 L 137.115 120.907 139.808 119.839 C 144.652 117.917, 152.438 116.024, 155.550 116.012 C 159.110 115.998, 161.013 114.431, 160.968 111.550 C 160.931 109.139, 158.766 106, 157.140 106 C 155.703 106, 155.712 105.107, 157.204 99.526 C 158.345 95.261, 158.679 94.944, 163.528 93.535 C 171.876 91.108, 174.230 86.899, 169.375 83.081 C 167.320 81.464, 165.911 81.151, 162.875 81.636 C 159.253 82.215, 159 82.094, 159 79.783 C 159 74.444, 151.404 71.859, 148.619 76.250 M 138.250 102.800 C 133.800 104.617, 132 105.877, 132 107.176 C 132 109.179, 133.065 109.535, 134.567 108.033 C 135.099 107.501, 137.298 106.699, 139.454 106.251 C 142.556 105.607, 143.525 104.870, 144.100 102.718 C 144.500 101.223, 144.753 100.056, 144.664 100.124 C 144.574 100.192, 141.688 101.396, 138.250 102.800 M 210.174 104.314 C 206.502 108.223, 207.709 115, 212.078 115 C 213 115, 214.315 115.675, 215 116.500 C 216.714 118.565, 221.343 118.383, 223.345 116.171 C 224.255 115.165, 225 112.775, 225 110.858 C 225 103.369, 215.148 99.020, 210.174 104.314 M 145.357 141.145 C 140.777 142.174, 140.037 143.504, 140.014 150.750 C 140 154.916, 141.067 155.966, 143.557 154.235 C 144.998 153.233, 153 141.880, 153 140.837 C 153 139.823, 150.857 139.909, 145.357 141.145 M 185.002 148.215 L 185.004 156.500 188.752 156.781 C 190.813 156.935, 195.200 156.336, 198.500 155.449 L 204.500 153.837 204.621 146.820 L 204.741 139.802 201.621 140.452 C 194.381 141.961, 189.218 142.187, 187.159 141.085 C 185.028 139.944, 185 140.036, 185.002 148.215 M 121 143.256 C 121 143.700, 121.675 145.680, 122.500 147.654 C 123.325 149.629, 124 152.314, 124 153.622 C 124 155.091, 124.586 156, 125.531 156 C 127.333 156, 127.641 155.191, 128.440 148.357 L 129.041 143.214 125.020 142.831 C 122.809 142.620, 121 142.811, 121 143.256 M 199 168.657 C 196.519 169.461, 192.369 169.931, 189.750 169.705 L 185 169.294 185 175.579 C 185 183.749, 186.640 184.476, 194.757 179.903 C 204.663 174.321, 206 173.135, 206 169.932 C 206 166.639, 205.503 166.549, 199 168.657 M 200.500 191.128 C 196.415 193.508, 194.539 193.992, 190.249 193.771 L 184.997 193.500 184.999 204.262 L 185 215.024 188.750 214.526 C 199.286 213.127, 207.445 211.889, 207.682 211.652 C 208.226 211.108, 206.671 188.004, 206.097 188.107 C 205.769 188.166, 203.250 189.526, 200.500 191.128" stroke="none" fill="black" fill-rule="evenodd"/>
</svg>