<svg xmlns="http://www.w3.org/2000/svg" width="300" height="300" viewBox="0 0 300 300" version="1.1">
	<path d="M 162.750 9.080 C 161.576 9.764, 161 11.333, 161 13.846 C 161 16.936, 161.962 18.725, 166.486 24.046 C 169.504 27.596, 171.979 30.852, 171.986 31.281 C 172.010 32.607, 170.102 32.845, 150.500 33.961 C 117.853 35.820, 92.681 38.734, 87.250 41.282 C 84.600 42.526, 84.326 45.196, 86.651 47.125 C 88.951 49.034, 114.895 48.806, 135 46.700 C 162.335 43.837, 248.855 40.597, 252.684 42.294 C 254.329 43.022, 255.687 42.784, 258.184 41.330 C 262.353 38.902, 262.945 35.651, 259.832 32.271 L 257.500 29.739 222 30.349 C 202.475 30.685, 185.488 31.246, 184.250 31.596 C 182.320 32.143, 182 31.854, 182 29.567 C 182 26.447, 180.132 22.596, 175.211 15.573 C 169.908 8.006, 167.104 6.544, 162.750 9.080 M 80.877 48.282 C 78.102 50.424, 77.834 56.748, 79.977 69.500 C 82.962 87.259, 82.646 97.462, 77.463 150.500 C 76.657 158.750, 75.998 167.776, 75.999 170.559 C 75.999 173.422, 75.370 176.460, 74.550 177.559 C 73.139 179.448, 73.114 179.442, 73.640 177.352 C 74.783 172.806, 69.821 169.016, 58.342 165.667 C 53.650 164.298, 52.882 164.313, 49.842 165.831 C 45.465 168.017, 44.965 171.310, 48.457 174.955 C 50.476 177.063, 52.744 177.990, 58.291 178.977 C 70.503 181.151, 70.369 180.419, 60.511 191.067 C 55.708 196.255, 49.128 203.057, 45.889 206.183 C 39.156 212.680, 38.086 216.700, 42.345 219.491 C 44.406 220.841, 45.106 220.854, 48.113 219.597 C 51.898 218.016, 59.867 209.935, 67.425 200.013 C 70.133 196.457, 72.525 194.076, 72.740 194.721 C 72.956 195.367, 72.202 200.186, 71.066 205.430 C 69.930 210.674, 69 216.182, 69 217.669 C 69 219.156, 68.372 223.101, 67.604 226.436 C 66.837 229.771, 65.488 235.875, 64.607 240 C 58.473 268.714, 56.867 273.547, 52.506 276.404 C 49.369 278.460, 49.038 283.415, 51.934 284.965 C 55.663 286.961, 58.478 286.112, 62.600 281.750 C 68.319 275.698, 71.297 268.043, 75.339 249 C 76.215 244.875, 77.817 237.450, 78.900 232.500 C 83.364 212.091, 85.764 195.073, 88.420 165 C 89.270 155.375, 90.693 139.400, 91.583 129.500 C 92.473 119.600, 93.420 103.850, 93.689 94.500 C 94.145 78.598, 94.015 76.919, 91.675 68.500 C 88.434 56.844, 86.768 52.478, 84.415 49.474 C 82.810 47.425, 82.237 47.232, 80.877 48.282 M 187.302 73.501 C 186.123 74.327, 184.856 76.464, 184.485 78.251 C 183.183 84.538, 175.826 105.566, 172.930 111.280 C 169.743 117.566, 169.351 119.951, 171.200 121.800 C 174.696 125.296, 180.563 120.786, 185.622 110.713 C 187.062 107.846, 188.386 105.338, 188.563 105.141 C 188.740 104.943, 193.888 104.166, 200.002 103.413 C 206.116 102.661, 212.779 101.628, 214.809 101.119 C 216.839 100.610, 222.325 99.673, 227 99.037 C 231.675 98.401, 236.483 97.681, 237.683 97.438 C 240.615 96.844, 241.550 93.488, 239.609 90.526 C 236.711 86.103, 229.440 86.081, 201.750 90.410 C 192.847 91.802, 193.092 92.096, 195.831 83.295 C 197.657 77.429, 197.330 74.844, 194.500 72.765 C 192.864 71.563, 189.591 71.898, 187.302 73.501 M 135 78 C 132.375 80.625, 132.477 82.985, 135.500 89.594 C 136.875 92.600, 138 96.185, 138 97.561 C 138 98.937, 138.675 100.322, 139.500 100.638 C 142.285 101.707, 141.026 102.675, 135.250 103.904 C 126.744 105.715, 114.852 109.178, 112 110.675 C 110.625 111.397, 107.353 112.878, 104.729 113.967 C 95.395 117.841, 97.931 122.451, 109 121.730 C 112.575 121.498, 116.308 120.957, 117.295 120.529 C 118.976 119.801, 119.047 120.350, 118.411 129.126 C 117.785 137.761, 116.720 143.104, 112.657 158 C 109.240 170.529, 99.126 196.100, 93.413 206.654 C 88.822 215.136, 88.177 217.777, 90.200 219.800 C 93.589 223.189, 97.871 219.903, 105.382 208.148 C 108.032 204.002, 116.587 185.008, 119.637 176.500 C 122.087 169.667, 123.450 167, 124.494 166.997 C 125.047 166.996, 126.400 165.308, 127.500 163.247 C 129.020 160.400, 131.061 158.731, 136 156.300 C 139.575 154.539, 143.625 152.964, 145 152.800 L 147.500 152.500 147.442 164 C 147.390 174.519, 146.268 183.221, 142.482 202.500 C 141.726 206.350, 140.400 214, 139.536 219.500 C 138.671 225, 137.223 232.701, 136.316 236.613 L 134.668 243.725 132.564 241.279 C 130.647 239.050, 130.209 238.948, 127.636 240.120 C 124.819 241.404, 124.812 241.428, 125.156 249.790 C 125.474 257.532, 125.714 258.358, 128.306 260.587 C 131.812 263.603, 134.755 263.640, 139.084 260.722 C 145.703 256.262, 147.720 250.148, 153.018 218.500 C 153.663 214.650, 155.287 205.425, 156.628 198 C 159.695 181.007, 160.890 154.478, 158.853 148.596 C 156.825 142.741, 153.571 140.814, 145.816 140.874 C 141.595 140.906, 137.671 141.641, 134.531 142.987 C 131.883 144.122, 129.525 144.858, 129.289 144.623 C 129.054 144.388, 129.401 140.507, 130.061 135.998 C 130.720 131.489, 131.006 125.345, 130.696 122.343 C 130.307 118.575, 130.499 116.785, 131.316 116.558 C 131.967 116.377, 135.425 115.440, 139 114.475 C 163.071 107.981, 166.362 106.285, 164.180 101.496 C 163.259 99.473, 162.328 99.002, 159.271 99.011 C 157.197 99.017, 153.291 99.692, 150.591 100.511 C 144.189 102.453, 143.338 102.389, 145.388 100.124 C 147.908 97.339, 148.335 92.227, 146.598 85.640 C 144.279 76.848, 139.379 73.621, 135 78 M 193 121.230 C 191.858 122.457, 190.670 124.594, 190.362 125.980 C 188.095 136.175, 178.983 155.964, 173.869 161.797 C 171.519 164.477, 171.175 165.458, 172.025 167.047 C 173.888 170.529, 178.620 169.578, 183.462 164.750 C 185.806 162.412, 188.217 159.553, 188.820 158.395 C 189.667 156.767, 191.792 155.918, 198.207 154.645 C 205.911 153.115, 212 152.539, 212 153.340 C 212 153.527, 210.650 157.576, 209 162.338 C 207.350 167.100, 205.993 172.010, 205.985 173.248 C 205.959 177.034, 204.761 177.835, 195.360 180.351 C 178.951 184.742, 172 188.863, 172 194.199 C 172 199.129, 178.754 200.162, 187.351 196.547 C 189.083 195.819, 192.801 194.559, 195.614 193.747 L 200.728 192.271 199.983 195.385 C 196.729 208.994, 186.377 234.548, 179.795 245.223 C 177.988 248.155, 177.734 249.323, 178.601 250.723 C 180.178 253.269, 185.110 253.488, 188.089 251.144 C 190.954 248.891, 199.020 233.710, 204.535 220.194 L 208.331 210.888 218.916 221.787 C 231.102 234.335, 234.519 236.535, 256.500 245.981 C 266.495 250.277, 278.481 251.377, 281.227 248.250 C 285.702 243.154, 283.091 237.624, 276.700 238.661 C 274.468 239.023, 271.086 238.424, 266.896 236.923 C 260.102 234.490, 244.563 226.684, 241.921 224.378 C 241.053 223.620, 240.014 223, 239.613 223 C 238.690 223, 232.790 218.386, 222.670 209.750 C 218.320 206.037, 214.166 203, 213.439 203 C 211.211 203, 210.899 201.303, 212.396 197.316 C 213.185 195.217, 214.083 192.335, 214.393 190.912 C 214.799 189.051, 216.158 187.811, 219.229 186.503 C 240.330 177.510, 244.293 174.543, 242.379 169.173 C 241.114 165.620, 237.977 165.768, 227.108 169.896 L 218.717 173.082 219.396 165.581 C 219.770 161.456, 220.546 156.733, 221.119 155.087 C 222.091 152.299, 222.546 152.075, 227.798 151.797 C 232.729 151.537, 233.622 151.163, 234.942 148.804 C 236.356 146.275, 236.298 145.947, 234.009 143.510 L 231.569 140.912 214.772 141.206 C 200.146 141.462, 198.060 141.306, 198.629 140 C 201.173 134.171, 202.985 127.126, 202.472 125.059 C 201.803 122.363, 198.425 119, 196.386 119 C 195.667 119, 194.143 120.004, 193 121.230" stroke="none" fill="black" fill-rule="evenodd"/>
</svg>