<svg xmlns="http://www.w3.org/2000/svg" width="300" height="300" viewBox="0 0 300 300" version="1.1">
	<path d="M 108.037 15.250 C 102.484 21.139, 101 25.556, 101 36.199 C 101 47.238, 101.275 46.962, 90.243 46.986 C 86.802 46.994, 79.377 47.701, 73.743 48.558 C 68.110 49.414, 60.263 50.487, 56.307 50.941 C 52.351 51.395, 47.063 52.759, 44.557 53.972 C 40.562 55.906, 40 56.571, 40 59.367 C 40 61.120, 40.730 63.597, 41.622 64.871 C 43.468 67.507, 45.273 67.476, 58 64.589 C 62.125 63.653, 70.225 62.486, 76 61.995 C 81.775 61.505, 89.763 60.791, 93.750 60.408 L 101 59.713 101 66.856 L 101 74 89.450 74 C 80.731 74, 77.128 74.399, 74.749 75.630 C 70.771 77.687, 69 79.448, 69 81.347 C 69 87.374, 75.459 88.718, 96.721 87.116 C 118.360 85.485, 124.157 84.586, 129.400 82.049 C 134.433 79.612, 135.836 76.931, 133.936 73.381 C 132.434 70.573, 130.490 70.432, 120.250 72.385 L 113 73.768 113 65.884 L 113 58 121.250 57.978 C 132.321 57.949, 148.725 55.699, 153.140 53.604 C 161.854 49.469, 159.133 39.497, 149.810 41.403 C 145.253 42.335, 113.755 45.089, 113.265 44.598 C 112.840 44.174, 114.158 34.702, 116.150 23.857 C 117.231 17.968, 117.176 16.917, 115.662 14.607 C 113.415 11.178, 111.744 11.319, 108.037 15.250 M 220.230 46.551 C 216.511 49.156, 215.639 52.001, 215.876 60.749 C 216.086 68.513, 215.964 69.054, 213.800 69.956 C 209.484 71.754, 192.665 74, 183.512 74 C 175.701 74, 174.060 74.296, 172.189 76.039 C 169.275 78.753, 169.212 84.335, 172.073 86.338 C 174.112 87.767, 174.139 88.314, 173.756 121.145 C 173.334 157.347, 172.359 167.536, 166.828 193.500 C 162.895 211.965, 158.046 228.249, 153.279 239 C 146.620 254.017, 144.946 257, 143.173 257 C 140.909 257, 138 260.022, 138 262.374 C 138 263.318, 139.105 265.195, 140.455 266.545 C 143.864 269.955, 148.067 269.758, 152.359 265.989 C 155.888 262.891, 162.225 251.702, 165.946 242 C 167.106 238.975, 168.469 235.600, 168.974 234.500 C 173.278 225.131, 178.296 205.528, 182.284 182.500 L 184.709 168.500 186.526 172.500 C 188.653 177.184, 193.473 186.915, 198.055 195.776 L 201.300 202.053 198.454 207.776 C 192.926 218.895, 186.235 227.839, 181.728 230.139 C 174.955 233.594, 173.058 237.933, 176.829 241.345 C 179.296 243.578, 183.485 243.428, 188.664 240.920 C 193.114 238.767, 204.817 226.997, 208.298 221.176 L 210.285 217.851 213.335 222.676 C 226.737 243.876, 236.181 256.311, 250.518 271.634 C 267.655 289.950, 276.532 295.362, 280.393 289.849 C 282.715 286.534, 280.458 282.466, 270.656 272.303 C 254.564 255.617, 239.975 236.794, 224.695 213 C 217.973 202.533, 217.931 203.903, 225.453 188.342 C 232.898 172.940, 236.425 164.712, 243.909 145.291 C 250.291 128.733, 250.619 123.961, 245.702 119.196 C 241.482 115.105, 237.970 115.061, 229.846 118.997 C 226.444 120.645, 223.479 121.812, 223.257 121.590 C 223.035 121.369, 223.355 119.458, 223.966 117.344 C 225.319 112.668, 229 88.952, 229 84.910 C 229 82.828, 229.498 81.983, 230.750 81.940 C 231.713 81.908, 234.637 81.529, 237.250 81.099 C 239.863 80.669, 242 80.627, 242 81.006 C 242 81.385, 239.952 83.901, 237.449 86.598 C 230.799 93.760, 229.690 95.630, 230.405 98.477 C 231.097 101.233, 234.536 102.600, 238.007 101.498 C 241.120 100.510, 253.839 88.263, 257.163 83.054 C 260.635 77.613, 260.766 73.470, 257.591 69.500 C 255.346 66.692, 254.753 66.500, 248.346 66.500 C 244.581 66.500, 238.912 66.841, 235.750 67.259 L 230 68.017 230 59.145 C 230 50.892, 229.816 50.089, 227.364 47.636 C 224.311 44.584, 223.266 44.425, 220.230 46.551 M 196.631 86.590 C 190.653 87.313, 185.561 88.105, 185.315 88.351 C 185.070 88.597, 185.459 90.756, 186.182 93.149 C 187.110 96.224, 187.486 104.394, 187.464 121 C 187.448 133.925, 187.588 143.297, 187.776 141.827 C 188.117 139.158, 192.391 134, 194.261 134 C 194.805 134, 197.833 132.841, 200.990 131.424 C 205.927 129.209, 207.028 128.195, 208.868 124.174 C 211.777 117.820, 214.033 106.475, 214.720 94.750 L 215.291 85 211.395 85.138 C 209.253 85.214, 202.609 85.867, 196.631 86.590 M 138 89.570 C 137.175 89.756, 127.950 90.384, 117.500 90.967 C 91.192 92.433, 73.178 93.960, 68.795 95.094 C 66.757 95.622, 63.758 97.174, 62.130 98.544 C 59.564 100.703, 58.831 100.880, 56.626 99.875 C 53.331 98.374, 49.441 100.715, 48.559 104.730 C 47.378 110.109, 58.231 135.365, 62.204 136.481 C 63.467 136.835, 65.506 137.620, 66.737 138.225 C 69.379 139.523, 104.265 137.760, 118 135.635 C 133.683 133.208, 144 127.946, 144 122.376 C 144 120.729, 145.173 119.284, 147.920 117.550 C 152.169 114.869, 156.067 110.254, 159.086 104.332 C 164.024 94.645, 158.977 88.872, 145.782 89.116 C 142.327 89.180, 138.825 89.384, 138 89.570 M 124.698 103.721 C 122.766 104.012, 121.600 104.974, 120.941 106.821 C 120.416 108.295, 119.314 110.694, 118.493 112.154 C 117.672 113.614, 117 115.345, 117 116 C 117 116.655, 116.018 118.570, 114.819 120.255 L 112.637 123.318 118.069 122.664 C 121.056 122.304, 125.112 121.557, 127.083 121.004 C 130.232 120.120, 130.667 119.612, 130.667 116.819 C 130.667 114.661, 131.386 113.135, 132.904 112.070 C 138.114 108.415, 141.955 104.737, 141.438 103.899 C 140.890 103.013, 130.162 102.899, 124.698 103.721 M 99.830 105.709 C 97.270 106.101, 97.146 106.405, 96.830 113.081 C 96.454 121.014, 96.640 122, 98.511 122 C 99.570 122, 106 107.862, 106 105.532 C 106 104.975, 104.303 105.024, 99.830 105.709 M 75 108.042 C 71.425 108.470, 67.266 109.298, 65.759 109.882 C 63.216 110.867, 63.103 111.145, 64.199 113.722 C 64.848 115.250, 65.744 116.927, 66.190 117.450 C 66.635 117.973, 67 119.189, 67 120.153 C 67 121.117, 67.492 122.985, 68.092 124.303 C 69.132 126.584, 69.362 126.637, 72.842 125.394 C 74.854 124.676, 78.075 124.067, 80 124.043 L 83.500 123.997 83.500 115.498 C 83.500 110.411, 83.099 107.052, 82.500 107.131 C 81.950 107.204, 78.575 107.613, 75 108.042 M 229.500 134.792 C 228.400 135.025, 227.049 135.579, 226.498 136.025 C 225.946 136.470, 223.021 137.807, 219.998 138.995 C 216.974 140.184, 213.150 141.730, 211.500 142.431 C 200.811 146.975, 198.285 147.952, 196.500 148.231 C 194.783 148.499, 194.550 149.169, 194.855 152.965 C 195.196 157.210, 201.250 171.378, 206.771 180.849 L 209.307 185.199 213.161 177.349 C 215.281 173.032, 218.183 166.607, 219.611 163.071 C 221.039 159.534, 222.540 155.934, 222.946 155.071 C 228.163 143.978, 232.123 134.752, 231.762 134.530 C 231.618 134.441, 230.600 134.559, 229.500 134.792 M 103 145.006 C 90.487 148.857, 89.484 149.254, 87.345 151.205 C 85.201 153.160, 85.185 153.160, 84.562 151.196 C 83.338 147.340, 76.165 147.758, 73.762 151.825 C 71.451 155.738, 69.920 180.467, 70.033 212.049 C 70.085 226.314, 69.859 238.419, 69.533 238.947 C 68.512 240.599, 70.133 244.980, 72.337 246.523 C 73.496 247.335, 75.663 248, 77.153 248 C 79.641 248, 79.793 248.223, 79.033 250.750 C 77.933 254.406, 72.856 265.368, 71.970 266 C 70.007 267.401, 69.996 270.996, 71.949 272.949 C 74.755 275.755, 77.335 275.523, 81.215 272.114 C 85.449 268.395, 93.654 253.653, 95.187 247.011 C 96.368 241.893, 99.307 239, 103.324 239 C 104.996 239, 113.717 234.267, 114.560 232.902 C 114.879 232.387, 116.316 232.890, 117.754 234.021 C 120.624 236.279, 125.126 235.987, 128.122 233.350 C 131.149 230.685, 132.357 220.981, 131.630 205.176 C 129.504 158.978, 129.337 157.129, 126.849 152.295 C 125.550 149.771, 123.286 146.810, 121.818 145.714 C 118.016 142.875, 110.807 142.603, 103 145.006 M 108.336 158.012 C 104.967 158.356, 100.342 160.021, 95.036 162.798 C 90.562 165.141, 86.514 166.817, 86.040 166.525 C 85.566 166.232, 85.025 168.700, 84.839 172.009 C 84.554 177.061, 84.741 177.920, 86 177.367 C 89.762 175.712, 100.189 173.923, 107.245 173.722 L 114.991 173.500 114.980 166.500 C 114.974 162.650, 114.639 159.046, 114.235 158.492 C 113.814 157.914, 111.295 157.709, 108.336 158.012 M 112 184.704 C 106.892 185.587, 91.839 189.926, 87.986 191.626 L 84 193.385 84 199.761 L 84 206.136 86.837 204.116 C 89.516 202.209, 99.276 200.024, 105.194 200.008 C 109.206 199.996, 113.048 203.842, 112.353 207.175 C 111.879 209.450, 111.027 210.018, 106.648 210.981 C 103.817 211.603, 98.462 213.283, 94.748 214.716 C 89.241 216.840, 87.550 217.116, 85.576 216.217 C 83.290 215.175, 83.126 215.318, 82.605 218.807 C 81.249 227.889, 80.802 232, 81.171 232 C 81.390 232, 84.029 231.139, 87.035 230.086 C 90.041 229.033, 94.300 227.861, 96.500 227.482 C 98.700 227.103, 102.428 226.164, 104.785 225.396 C 111.696 223.144, 113.889 223.524, 115.509 227.250 C 116.286 229.037, 116.939 229.750, 116.961 228.833 C 116.982 227.917, 117.434 227.017, 117.964 226.833 C 118.979 226.483, 116.073 183.884, 115.051 184.136 C 114.748 184.211, 113.375 184.467, 112 184.704 M 104.051 243.949 C 101.483 246.517, 101.474 247.811, 104.008 250.508 C 105.112 251.684, 107.512 255.620, 109.342 259.257 C 113.106 266.739, 126.767 282, 129.699 282 C 130.720 282, 132.555 281.299, 133.777 280.443 C 137.274 277.994, 136.733 273.315, 132.396 268.500 C 130.415 266.300, 127.630 262.925, 126.206 261 C 117.794 249.623, 115.836 247.255, 113.285 245.369 C 108.715 241.990, 106.371 241.629, 104.051 243.949" stroke="none" fill="black" fill-rule="evenodd"/>
</svg>