<svg xmlns="http://www.w3.org/2000/svg" width="300" height="300" viewBox="0 0 300 300" version="1.1">
	<path d="M 157.655 9.829 C 156.745 10.835, 156 12.538, 156 13.613 C 156 15.470, 159.042 25.203, 160.966 29.500 C 162.919 33.865, 164.021 38.781, 163.406 40.385 C 162.627 42.415, 165.572 46, 168.020 46 C 168.961 46, 170.959 45.033, 172.462 43.851 C 175.042 41.821, 175.155 41.393, 174.499 36.101 C 174.118 33.021, 173.181 28.700, 172.417 26.500 C 171.654 24.300, 171.023 21.514, 171.015 20.309 C 171.007 19.104, 170.600 17.871, 170.111 17.568 C 169.622 17.266, 168.936 15.883, 168.588 14.494 C 167.082 8.496, 161.152 5.965, 157.655 9.829 M 236 48.897 C 235.175 49.357, 215.375 50.033, 192 50.400 C 168.625 50.766, 145.225 51.492, 140 52.013 C 134.775 52.534, 124.018 53.456, 116.096 54.063 C 108.174 54.670, 100.559 55.598, 99.173 56.124 C 95.423 57.550, 91.730 61.910, 92.613 63.868 C 93.889 66.693, 94.171 72.601, 94.693 107.382 C 95.294 147.483, 93.769 170, 90.452 170 C 89.688 170, 87.277 172.418, 85.093 175.374 L 81.124 180.747 71.312 177.415 C 65.915 175.583, 60.557 174.065, 59.405 174.042 C 56.419 173.982, 53.788 177.289, 54.175 180.613 C 54.591 184.186, 58.902 186.763, 66.542 188.007 C 69.694 188.520, 72.536 189.203, 72.857 189.524 C 73.179 189.845, 68.225 195.146, 61.848 201.304 C 55.472 207.462, 49.948 213.496, 49.572 214.712 C 48.418 218.451, 50.556 221, 54.848 221 C 58.312 221, 59.412 220.190, 68.101 211.250 C 76.259 202.857, 80.517 197.884, 89.154 186.667 C 90.748 184.596, 90.793 184.700, 90.379 189.509 C 88.256 214.192, 84.054 238.582, 79.151 254.670 C 77.455 260.236, 72.939 268.408, 69.923 271.369 C 68.315 272.946, 67 274.789, 67 275.464 C 67 277.710, 70.790 280.269, 73.216 279.661 C 78.882 278.239, 87.461 265.094, 91.922 251 C 94.426 243.087, 99.002 220.297, 98.994 215.779 C 98.991 213.975, 99.642 207.775, 100.441 202 C 106.280 159.798, 108.734 108.217, 106.054 84 C 105.536 79.325, 104.918 73.362, 104.679 70.750 L 104.246 66 112.494 66 C 117.031 66, 126.988 65.352, 134.621 64.559 C 142.255 63.767, 168.300 62.582, 192.500 61.926 C 218.662 61.217, 237.919 60.280, 240 59.616 C 242.898 58.692, 243.552 57.961, 243.805 55.366 C 244.040 52.944, 243.497 51.750, 241.420 50.116 C 238.433 47.767, 238.144 47.702, 236 48.897 M 167.745 80.196 C 167.465 80.913, 165.307 82.088, 162.952 82.807 C 160.596 83.525, 156.231 85.775, 153.252 87.807 C 150.273 89.838, 147.109 91.950, 146.221 92.500 C 145.333 93.050, 143.462 94.513, 142.063 95.750 C 140.665 96.987, 139.247 98, 138.913 98 C 138.579 98, 137.379 98.787, 136.247 99.750 C 135.114 100.713, 131.644 103.300, 128.537 105.500 C 120.590 111.125, 117.385 114.332, 116.606 117.434 C 116.179 119.135, 117.089 124.762, 119.092 132.809 C 123.872 152.009, 123.959 152.516, 124.966 167 C 126.174 184.385, 126.288 184.512, 140 183.674 C 145.225 183.355, 150.985 182.570, 152.801 181.931 C 154.617 181.292, 156.336 181.002, 156.621 181.288 C 157.847 182.513, 151.062 200.834, 147.889 204.868 C 146.850 206.189, 146 208.251, 146 209.451 C 146 212.123, 136.396 231.068, 131.020 239 C 130.088 240.375, 129.010 242.175, 128.624 243 C 125.355 249.985, 116.560 262, 114.716 262 C 112.544 262, 109.986 264.281, 110.032 266.179 C 110.101 269.059, 112.734 271, 116.573 271 C 119.959 271, 121.074 270.314, 125.777 265.342 C 130.066 260.806, 144 241.124, 144 239.601 C 144 239.397, 145.944 235.819, 148.321 231.649 L 152.642 224.068 157.571 229.115 C 160.282 231.890, 166.100 236.314, 170.500 238.945 C 174.900 241.575, 183.323 246.694, 189.218 250.320 C 204.802 259.905, 215.506 264.479, 228.262 267.006 C 238.178 268.969, 245.181 264.978, 241.548 259.433 C 240.671 258.095, 239.627 256.973, 239.227 256.940 C 225.219 255.779, 213.156 251.125, 196.231 240.354 C 193.332 238.509, 190.722 237, 190.431 237 C 188.877 237, 168.955 222.927, 163.952 218.295 L 158.124 212.900 159.493 209.200 C 160.246 207.165, 161.818 203.025, 162.987 200 C 166.090 191.969, 168.972 182.751, 168.987 180.809 C 169.004 178.551, 169.982 178.053, 177.820 176.307 C 181.494 175.489, 186.075 174.453, 188 174.005 C 189.925 173.557, 196 172.199, 201.500 170.988 C 212.623 168.538, 215.404 167.363, 218.871 163.651 C 221.086 161.281, 221.397 161.214, 223.572 162.639 C 231.638 167.924, 235.733 152.953, 237.560 111.500 L 238.177 97.500 235.013 94.500 C 231.955 91.601, 231.550 91.505, 222.948 91.634 C 208.130 91.858, 204 93.367, 204 98.558 C 204 102.422, 209.704 104.314, 218.838 103.482 L 226.177 102.813 225.484 117.656 C 224.734 133.747, 222.620 153.713, 221.555 154.779 C 221.190 155.143, 220.578 154.972, 220.196 154.398 C 218.595 151.995, 215.873 152.034, 213.595 154.492 C 212.129 156.074, 209.356 157.363, 205.901 158.069 C 202.931 158.675, 197.125 159.842, 193 160.661 C 188.875 161.480, 182.872 162.826, 179.660 163.652 C 176.448 164.478, 173.691 165.007, 173.532 164.827 C 173.319 164.586, 176.482 139.854, 176.930 138.250 C 176.969 138.113, 178.824 138, 181.053 138 C 183.282 138, 188.119 137.357, 191.803 136.570 C 197.403 135.375, 209.353 133.741, 219.891 132.729 C 223.668 132.367, 224.549 128.458, 221.534 125.443 C 219.242 123.151, 218.422 123.001, 208.295 123.017 C 202.358 123.027, 194.350 123.702, 190.500 124.517 C 186.651 125.333, 182.111 126, 180.411 126 L 177.322 126 177.213 106.436 C 177.120 89.768, 176.837 86.327, 175.302 83.186 C 174.008 80.539, 172.761 79.414, 170.878 79.196 C 169.402 79.025, 168.032 79.462, 167.745 80.196 M 162.341 95.438 C 160.054 97.397, 157.943 99, 157.651 99 C 157.205 99, 136.474 112.522, 129.311 117.485 C 127.239 118.920, 127.195 119.228, 128.483 123.251 C 129.232 125.588, 130.119 129.157, 130.455 131.182 C 131.049 134.766, 131.164 134.851, 134.783 134.396 C 136.827 134.139, 141.785 133.174, 145.801 132.252 C 153.406 130.504, 155.227 130.828, 157.428 134.317 C 159.363 137.384, 156.713 139.258, 145.433 142.801 L 134.500 146.235 134.500 159.949 L 134.500 173.663 141.500 171.960 C 145.350 171.023, 151.053 169.725, 154.173 169.074 C 157.293 168.423, 160.244 167.353, 160.731 166.696 C 163.925 162.385, 167.266 129.991, 166.818 107.688 L 166.500 91.877 162.341 95.438" stroke="none" fill="black" fill-rule="evenodd"/>
</svg>