<svg xmlns="http://www.w3.org/2000/svg" width="300" height="300" viewBox="0 0 300 300" version="1.1">
	<path d="M 223 49.046 C 218.875 49.544, 207.971 50.580, 198.768 51.349 C 181.732 52.772, 177 54.114, 177 57.523 C 177 59.939, 180.603 62.815, 185.197 64.065 C 189.231 65.163, 201.602 64.375, 212.361 62.335 L 215.221 61.792 214.859 91.315 C 214.660 107.552, 214.208 121.125, 213.856 121.478 C 213.503 121.830, 208.554 122.543, 202.857 123.060 C 184.344 124.743, 161.571 127.248, 158.500 127.940 C 156.191 128.460, 155.427 129.242, 155.181 131.334 C 154.902 133.709, 155.435 134.305, 159.405 136.061 C 165.966 138.963, 174.817 139.474, 187 137.654 C 192.775 136.792, 201.276 135.772, 205.890 135.387 L 214.281 134.689 213.693 138.095 C 213.369 139.968, 212.793 173.545, 212.412 212.711 C 211.775 278.152, 211.854 284.128, 213.383 286.461 C 215.766 290.099, 220.355 289.972, 221.906 286.226 C 224.169 280.763, 225.144 257.554, 225.680 196.406 L 226.225 134.312 241.862 133.144 C 250.463 132.502, 264.025 131.502, 272 130.924 C 288.247 129.744, 291.271 128.577, 291.804 123.277 C 292.479 116.562, 289.530 116.051, 263.927 118.439 C 255.442 119.231, 243.662 120.083, 237.750 120.332 L 227 120.785 227 91.021 L 227 61.258 236.250 60.566 C 248.808 59.627, 252.827 58.474, 254.224 55.407 C 255.174 53.322, 255.045 52.602, 253.430 50.999 C 251.849 49.428, 249.602 48.997, 241 48.611 C 235.225 48.353, 227.125 48.548, 223 49.046 M 109.441 56.424 C 107.788 57.636, 107.507 59.051, 107.549 65.955 C 107.593 73.338, 107.414 74.102, 105.549 74.503 C 103.709 74.898, 89.984 77.372, 74.940 80.021 C 71.882 80.559, 67.703 81, 65.655 81 C 63.606 81, 60.781 81.753, 59.377 82.672 C 57.052 84.196, 56.886 84.751, 57.509 88.909 C 57.886 91.420, 58.790 94.627, 59.519 96.036 C 60.248 97.446, 61.892 101.727, 63.172 105.550 C 65.344 112.035, 65.498 114.038, 65.474 135.500 C 65.446 159.387, 64.329 169.837, 58.791 198 C 57.655 203.775, 56.382 210.525, 55.962 213 C 54.432 222.005, 47.818 240.076, 44.869 243.304 C 40.615 247.962, 41.218 251.342, 46.580 252.879 C 52.731 254.644, 55.801 251.472, 60.982 238 C 66.939 222.513, 69.318 213.166, 72.948 191 C 78.941 154.409, 80.305 131.954, 77.566 114.989 C 75.811 104.119, 75.258 101.973, 72.636 95.874 L 71.077 92.248 80.288 90.622 C 85.355 89.728, 93.613 88.395, 98.640 87.660 L 107.780 86.324 108.321 90.355 C 108.890 94.602, 107.521 119.027, 106.240 127.460 C 105.562 131.928, 105.189 132.483, 102.493 133.046 C 94.484 134.720, 83 143.326, 83 147.653 C 83 152.861, 88.826 152.104, 107.500 144.470 C 112.450 142.446, 118.525 139.999, 121 139.032 C 123.475 138.064, 126.739 136.688, 128.254 135.974 C 129.769 135.260, 131.255 134.922, 131.557 135.224 C 132.412 136.078, 129.092 153.564, 126.285 163 C 124.201 170.002, 121.369 178.638, 118.468 186.841 C 118.160 187.709, 116.731 186.652, 114.412 183.841 C 112.442 181.453, 109.592 178.077, 108.079 176.339 C 106.566 174.600, 102.475 169.301, 98.989 164.564 C 92.287 155.457, 88.800 153.186, 86.450 156.399 C 85.769 157.331, 85.461 159.085, 85.766 160.296 C 86.421 162.897, 93.195 175.866, 96.317 180.495 C 97.518 182.276, 100.249 186.380, 102.386 189.616 C 104.523 192.852, 107.335 196.772, 108.636 198.327 C 109.936 199.881, 111 202.144, 111 203.354 C 111 204.565, 108.378 211.393, 105.173 218.528 C 95.978 238.997, 92.075 244.202, 84 246.758 C 79.036 248.330, 78.471 248.801, 78.199 251.585 C 77.795 255.726, 79.937 257.285, 85.845 257.152 C 97.369 256.893, 105.516 248.271, 118.091 223.027 C 120.939 217.308, 121.443 216.774, 122.408 218.447 C 123.008 219.489, 125.764 223.077, 128.530 226.421 C 131.297 229.764, 135.757 235.425, 138.441 239 C 145.392 248.257, 148 250.926, 152.210 253.092 C 157.162 255.639, 161.616 255.585, 163.020 252.962 C 164.550 250.104, 163.429 247.429, 159.419 244.370 C 157.523 242.925, 153.616 238.580, 150.736 234.717 C 143.224 224.638, 135.726 214.387, 130.982 207.707 L 126.867 201.914 128.539 197.207 C 129.459 194.618, 130.613 191.600, 131.104 190.500 C 137.422 176.336, 143.165 153.552, 143.764 140.267 C 144.336 127.584, 143.900 125.799, 139.666 123.519 C 135.456 121.252, 129.834 121.838, 122.911 125.264 C 117.497 127.943, 117.522 127.959, 119.134 122.993 C 119.757 121.072, 120.544 111.850, 120.884 102.500 L 121.500 85.500 132.244 85.216 L 142.988 84.932 141.833 87.466 C 141.198 88.860, 140.301 90, 139.839 90 C 139.378 90, 139 90.520, 139 91.156 C 139 91.791, 137.875 93.786, 136.500 95.589 C 133.514 99.504, 133.446 100.189, 135.829 102.345 C 139.045 105.256, 142.550 104.421, 146.194 99.875 C 148.012 97.606, 151.127 93.893, 153.116 91.625 C 159.697 84.119, 161.504 78.425, 158.571 74.441 C 157.240 72.633, 155.913 72.512, 139.261 72.672 L 121.379 72.844 120.283 66.444 C 119.170 59.947, 118.172 58.233, 114.295 56.158 C 111.608 54.720, 111.777 54.710, 109.441 56.424" stroke="none" fill="black" fill-rule="evenodd"/>
</svg>