<svg xmlns="http://www.w3.org/2000/svg" width="300" height="300" viewBox="0 0 300 300" version="1.1">
	<path d="M 134.437 21.123 C 131.866 26.094, 134.548 31.894, 143.211 40.099 L 150.179 46.698 137.840 47.329 C 131.053 47.676, 113.012 48.261, 97.749 48.629 C 79.499 49.069, 69.703 49.675, 69.139 50.399 C 67.140 52.965, 67.113 57.858, 69.076 61.921 C 71.219 66.356, 73.983 89.942, 74.007 104 C 74.077 144.783, 62.477 216.241, 46.879 271.108 C 45.845 274.742, 45 278.516, 45 279.493 C 45 280.471, 43.875 282.313, 42.500 283.588 C 39.458 286.407, 39.395 287.395, 42.087 290.087 C 44.587 292.587, 48.376 292.032, 51.629 288.689 C 55.545 284.664, 66.198 248.704, 71.831 220.500 C 76.225 198.499, 80.438 171.236, 82.030 154.500 C 82.501 149.550, 83.397 140.325, 84.020 134 C 85.759 116.354, 85.397 92.686, 83.130 75.780 C 82.044 67.684, 80.902 60.650, 80.591 60.148 C 80.257 59.607, 98.649 58.963, 125.764 58.566 C 150.919 58.198, 179.600 57.470, 189.500 56.949 C 213.551 55.683, 250.705 55.713, 251.500 57 C 252.433 58.510, 255.658 58.200, 257.429 56.429 C 259.701 54.156, 259.359 50.268, 256.648 47.557 C 254.704 45.613, 252.827 45.082, 245.850 44.501 C 237.364 43.794, 163.057 45.627, 159.711 46.626 C 158.229 47.068, 158.029 46.733, 158.546 44.673 C 159.305 41.649, 157.930 38.900, 152.707 33 C 150.516 30.525, 147.867 26.593, 146.821 24.263 C 143.648 17.197, 137.299 15.587, 134.437 21.123 M 189.500 78.048 C 168.798 79.764, 157.783 80.981, 154.183 81.951 C 152.080 82.517, 142.986 83.850, 133.973 84.913 C 120.944 86.449, 117.322 87.207, 116.293 88.614 C 114.559 90.985, 114.663 93.520, 116.571 95.429 C 118.684 97.541, 135.929 97.565, 146.662 95.471 C 153.900 94.058, 176.390 91.066, 180.109 91.020 C 181.485 91.003, 181.381 91.688, 179.390 95.750 C 178.110 98.362, 177.048 101.287, 177.031 102.250 C 177.004 103.765, 175.947 104, 169.147 104 C 164.827 104, 158.567 104.285, 155.234 104.633 C 149.413 105.242, 149.161 105.174, 148.837 102.903 C 148.463 100.282, 144.338 98.273, 141.537 99.348 C 140.603 99.706, 139.132 101.799, 138.268 103.999 C 137.002 107.222, 136.191 108.005, 134.098 108.026 C 129.531 108.072, 117.073 112.774, 113.025 115.980 C 108.556 119.520, 107.259 122.402, 109.124 124.649 C 110.701 126.550, 117.708 125.858, 124.826 123.099 C 127.397 122.103, 131.128 121.036, 133.117 120.728 L 136.734 120.169 137.947 132.281 C 138.750 140.300, 139.818 145.683, 141.107 148.210 L 143.055 152.029 140.278 153.087 C 138.750 153.669, 136.186 154.409, 134.579 154.732 C 119.694 157.720, 116.144 164.444, 128.409 166.421 C 134.452 167.395, 141.442 166.468, 154 163.025 C 170.752 158.432, 186.081 154.917, 195.520 153.504 C 200.921 152.695, 202.250 151.720, 202.250 148.565 C 202.250 143.940, 199.678 142.963, 188.248 143.246 C 182.609 143.386, 177.997 143.379, 177.998 143.230 C 177.999 143.082, 179.057 141.282, 180.348 139.230 C 184.264 133.010, 187.166 125.772, 187.851 120.517 C 188.486 115.639, 188.585 115.518, 192.500 114.813 C 194.700 114.418, 205.387 113.776, 216.250 113.388 C 233.265 112.780, 236 112.886, 236 114.150 C 236 115.610, 229.528 126.995, 228.137 127.982 C 227.736 128.267, 223.716 132.918, 219.204 138.318 C 209.368 150.090, 208.712 153.289, 215.694 155.427 C 217.536 155.991, 219.960 154.040, 230.818 143.256 C 243.746 130.416, 246.788 126.216, 248.935 118.242 C 250.531 112.315, 248.736 106.664, 244.145 103.159 C 240.856 100.650, 240.036 100.500, 229.580 100.500 C 223.486 100.500, 212.361 100.896, 204.858 101.379 L 191.216 102.258 190.531 99.141 C 190.154 97.426, 189.431 95.766, 188.923 95.452 C 188.415 95.139, 188 94.009, 188 92.941 C 188 91.819, 187.262 90.934, 186.250 90.844 C 185.287 90.758, 189.675 90.385, 196 90.016 C 210.024 89.196, 212 88.338, 212 83.063 C 212 79.624, 211.651 79.074, 208.851 78.098 C 205.450 76.912, 203.262 76.907, 189.500 78.048 M 95.607 114.497 C 92.557 116.806, 92.300 124.726, 95.014 132.768 C 96.264 136.471, 97.836 140.400, 98.508 141.500 C 99.180 142.600, 100.298 145.634, 100.993 148.242 C 102.311 153.193, 105.910 158, 108.297 158 C 109.063 158, 110.497 157.108, 111.483 156.018 C 114.124 153.100, 113.249 148.131, 106.440 127.396 C 101.835 113.373, 99.991 111.178, 95.607 114.497 M 160 117.045 C 154.225 117.436, 149.387 117.810, 149.250 117.877 C 147.937 118.521, 150.522 143.900, 152.058 145.450 C 152.576 145.973, 153 147.144, 153 148.054 C 153 149.553, 153.485 149.581, 158.218 148.354 C 161.088 147.609, 164.125 146.999, 164.968 146.997 C 166.064 146.995, 166.511 145.926, 166.540 143.240 C 166.564 140.995, 167.466 138.284, 168.785 136.493 C 171.543 132.747, 175 123.032, 175 119.025 C 175 116.505, 174.624 116.028, 172.750 116.168 C 171.512 116.260, 165.775 116.655, 160 117.045 M 175.500 166.621 C 171.723 166.984, 167.210 167.985, 147 172.942 C 142.325 174.089, 136.925 175.025, 135 175.023 C 130.721 175.019, 121.544 179.139, 120.652 181.466 C 119.515 184.427, 119.940 186.635, 122.005 188.504 C 123.836 190.162, 124.637 190.212, 131.255 189.088 C 139.623 187.666, 154.253 184.465, 161.500 182.470 C 168.569 180.525, 180.703 177.879, 185.979 177.133 C 189.709 176.606, 190.620 176.037, 191.429 173.728 C 193.366 168.207, 187.276 165.490, 175.500 166.621 M 190 190.874 C 188.219 191.840, 176.587 194.071, 158 197.012 C 150.575 198.187, 141.125 199.813, 137 200.626 C 132.875 201.438, 127.611 202.455, 125.303 202.885 C 117.117 204.410, 113.307 210.253, 117.829 214.345 C 120.251 216.538, 126.130 216.462, 137.966 214.086 C 143.210 213.034, 149.975 211.781, 153 211.303 L 158.500 210.433 158.500 241.130 C 158.500 271.395, 158.468 271.870, 156.250 274.873 C 151.085 281.864, 155.553 288.293, 162.565 283.960 C 164.682 282.652, 166.927 279.812, 168.702 276.198 L 171.500 270.500 171.802 239.347 L 172.104 208.193 179.293 206.570 C 183.247 205.677, 188.190 204.673, 190.278 204.339 C 194.584 203.651, 200 199.165, 200 196.287 C 200 191.876, 194.071 188.667, 190 190.874 M 175.323 221.641 C 172.486 224.074, 173.735 228, 177.346 228 C 181.744 228, 186.432 230.792, 192.500 237.024 C 198.081 242.756, 211.170 253.755, 220.500 260.553 C 222.700 262.155, 226.525 265.105, 229 267.107 C 235.409 272.292, 246.990 279, 249.532 279 C 250.719 279, 252.532 278.069, 253.562 276.932 C 255.272 275.042, 255.304 274.631, 253.931 272.182 C 253.104 270.707, 251.094 268.873, 249.464 268.107 C 246.883 266.894, 239.100 260.668, 231 253.336 C 229.625 252.092, 225.554 248.694, 221.953 245.787 C 218.353 242.879, 214.753 239.944, 213.953 239.265 C 193.694 222.049, 193.044 221.659, 182.495 220.386 C 178.472 219.901, 177.065 220.147, 175.323 221.641 M 140.108 230.593 C 137.299 233.119, 135 235.597, 135 236.101 C 135 237.231, 122.957 255.035, 118.495 260.500 C 116.699 262.700, 112.703 267.138, 109.615 270.363 C 106.527 273.587, 104 277.005, 104 277.958 C 104 280.634, 107.558 283.328, 110.213 282.661 C 114.192 281.663, 125.541 271.449, 132.267 262.814 C 139.885 253.034, 149 239.259, 149 237.527 C 149 236.857, 149.900 235.495, 151 234.500 C 153.490 232.246, 153.551 229.809, 151.171 227.655 C 148.227 224.991, 145.547 225.703, 140.108 230.593" stroke="none" fill="black" fill-rule="evenodd"/>
</svg>