<svg xmlns="http://www.w3.org/2000/svg" width="300" height="300" viewBox="0 0 300 300" version="1.1">
	<path d="M 134.993 11.508 C 134.244 12.411, 133.972 14.319, 134.315 16.258 C 134.631 18.041, 136.022 25.800, 137.406 33.500 C 140.416 50.249, 141.931 64, 140.766 64 C 140.301 64, 135.551 64.491, 130.211 65.092 C 124.768 65.703, 116.452 65.883, 111.289 65.501 C 103.623 64.934, 101.981 64.514, 101.501 63.002 C 100.133 58.692, 94.819 59.754, 92.416 64.817 C 90.851 68.115, 90.802 69.992, 91.855 85.968 C 92.491 95.611, 93.009 113.412, 93.006 125.528 C 93 146.314, 92.887 147.652, 91 149.268 C 88.577 151.342, 88.492 153.117, 90.617 157.227 C 91.957 159.817, 92.120 162.256, 91.567 171.427 C 90.058 196.439, 86.383 238.532, 85.340 242.748 L 84.784 244.996 82.776 242.443 C 80.166 239.124, 76.145 239.459, 74.072 243.168 C 72.700 245.625, 72.773 246.246, 75.004 251.009 C 79.451 260.503, 85.811 263.360, 92.346 258.798 C 96.471 255.919, 96.659 255.616, 99.044 248.017 C 100.542 243.243, 101.736 233.361, 103.573 210.517 C 104.944 193.458, 106.164 179.191, 106.283 178.813 C 106.825 177.096, 146 212.380, 146 214.585 C 146 215.373, 141.388 220.695, 135.750 226.410 C 125.954 236.342, 125.239 236.855, 119.603 238.002 C 113.546 239.235, 109 242.450, 109 245.500 C 109 246.375, 110.162 248.253, 111.583 249.673 C 113.955 252.046, 114.625 252.202, 119.824 251.591 C 126.384 250.820, 134.337 247.434, 139.140 243.366 C 140.988 241.801, 145.931 236.941, 150.124 232.566 L 157.748 224.610 161.007 227.352 C 162.799 228.860, 168.593 234.089, 173.883 238.972 C 188.427 252.399, 198.203 260.254, 212.269 269.818 C 240.084 288.731, 245.394 290.871, 251.053 285.449 C 255.878 280.827, 254.295 274.932, 248.146 274.622 C 246.628 274.546, 244.191 273.700, 242.729 272.742 C 241.267 271.784, 239.774 271, 239.412 271 C 238.522 271, 226.098 262.098, 223.848 259.848 C 222.858 258.858, 219.273 256.154, 215.880 253.838 C 212.487 251.522, 207.189 247.342, 204.106 244.548 C 201.023 241.754, 196.475 237.713, 194 235.568 C 191.525 233.422, 185.450 227.954, 180.500 223.417 C 175.550 218.879, 170.559 214.342, 169.409 213.333 L 167.319 211.500 170.216 206.500 C 175.833 196.808, 197.488 149.778, 201.889 137.712 C 204.341 130.989, 204.571 126.004, 202.602 122.198 C 200.082 117.324, 197.335 115.613, 192.156 115.691 C 187.397 115.763, 166.565 121.145, 153.690 125.628 C 149.945 126.933, 146.325 128, 145.646 128 C 144.882 128, 145.871 124.947, 148.238 119.996 C 153.365 109.274, 156.034 98.630, 156.707 86.227 C 157.013 80.577, 157.542 75.786, 157.882 75.579 C 158.222 75.372, 167.500 73.370, 178.500 71.130 C 200.798 66.589, 214.730 64.643, 218.382 65.560 C 220.471 66.084, 220.704 66.544, 220.045 68.844 C 218.182 75.337, 213.723 82.126, 208.024 87.143 C 203.538 91.091, 202 93.114, 202 95.067 C 202 98.125, 204.770 101, 207.715 101 C 210.623 101, 221.368 93.589, 224.833 89.193 C 230.388 82.147, 235.341 70.973, 235.424 65.300 C 235.493 60.551, 235.158 59.750, 231.562 56.066 C 229.397 53.847, 226.070 51.518, 224.169 50.891 C 217.736 48.768, 202.142 50.357, 179.528 55.442 C 167.993 58.035, 158.205 60.373, 157.778 60.637 C 157.350 60.902, 157 60.891, 157 60.614 C 157 60.337, 156.120 54.123, 155.044 46.805 C 151.613 23.469, 150.159 18.523, 145.154 13.165 C 141.884 9.665, 137.162 8.895, 134.993 11.508 M 106.154 82 C 106.611 83.925, 107.285 98.397, 107.651 114.159 C 108.251 139.985, 108.475 142.726, 109.909 141.877 C 110.784 141.359, 114.650 139.630, 118.500 138.034 C 123.948 135.776, 125.578 134.623, 125.850 132.834 C 126.042 131.570, 127.512 128.879, 129.116 126.854 C 135.614 118.649, 140.519 103.263, 141.618 87.638 L 142.260 78.500 123.792 78.500 L 105.323 78.500 106.154 82 M 178 134.411 C 173.325 135.685, 165.900 137.718, 161.500 138.930 C 157.100 140.142, 148.100 143.302, 141.500 145.953 C 128.884 151.020, 111.013 157, 108.488 157 C 107.670 157, 107 157.822, 107 158.826 C 107 160.828, 110.928 165, 112.814 165 C 113.467 165, 114 165.403, 114 165.896 C 114 166.388, 116.363 168.286, 119.250 170.113 C 122.138 171.940, 124.725 173.685, 125 173.990 C 125.275 174.296, 126.843 175.403, 128.485 176.450 C 131.945 178.657, 136.483 182.639, 147.060 192.750 C 151.231 196.738, 154.963 200, 155.354 200 C 155.980 200, 170 171.636, 170 170.370 C 170 169.866, 171.156 167.365, 181.839 144.750 C 185.152 137.738, 187.556 132.021, 187.181 132.048 C 186.807 132.074, 182.675 133.138, 178 134.411" stroke="none" fill="black" fill-rule="evenodd"/>
</svg>