<svg xmlns="http://www.w3.org/2000/svg" width="300" height="300" viewBox="0 0 300 300" version="1.1">
	<path d="M 152.555 9.336 C 149.343 11.684, 150.160 17.861, 154.614 24.900 C 159.862 33.196, 160.951 35.270, 160.468 36.051 C 159.805 37.124, 107.777 40.981, 91.718 41.148 C 83.023 41.238, 81.473 43.759, 84.385 53.072 C 88.556 66.411, 89.492 76.656, 89.448 108.500 C 89.405 139.847, 88.742 148.491, 84.367 174.710 C 83.235 181.487, 82.390 184.067, 81.165 184.478 C 80.249 184.785, 77.250 188.036, 74.500 191.702 C 71.750 195.368, 64.325 203.727, 58 210.278 C 44.049 224.726, 42.533 227.770, 48.228 229.896 C 53.355 231.811, 57.370 228.500, 70.256 211.733 C 75.230 205.261, 79.511 200.177, 79.769 200.436 C 80.027 200.694, 79.478 204.189, 78.548 208.203 C 77.619 212.216, 75.722 220.450, 74.333 226.500 C 72.945 232.550, 71.179 239.525, 70.410 242 C 66.959 253.102, 62.589 265.834, 60.972 269.500 C 60.001 271.700, 58.530 275.136, 57.702 277.136 C 56.875 279.136, 54.578 282.246, 52.599 284.047 C 48.492 287.784, 48.220 288.984, 50.928 291.435 C 53.414 293.685, 56.049 292.854, 61.205 288.196 C 66.536 283.379, 71.949 272.150, 78.410 252.500 C 86.815 226.938, 87.277 224.956, 94.499 183.500 C 98.424 160.965, 101.025 132.050, 100.974 111.500 C 100.940 97.741, 98.831 72.624, 96.637 59.843 L 95.322 52.186 98.286 51.593 C 99.916 51.267, 104.456 51.005, 108.375 51.010 C 117.516 51.023, 145.812 49.311, 167.177 47.451 C 176.687 46.624, 195.636 46, 211.272 46 C 237.080 46, 238.792 45.887, 240.435 44.072 C 242.498 41.792, 241.799 38.498, 238.925 36.960 C 235.194 34.963, 202.750 33.624, 188.011 34.859 C 169.757 36.389, 170 36.401, 170 33.912 C 170 32.763, 168.652 28.910, 167.003 25.349 C 165.355 21.788, 163.730 17.772, 163.391 16.423 C 162.643 13.442, 157.732 8, 155.790 8 C 155.016 8, 153.560 8.601, 152.555 9.336 M 202 68.535 C 197.875 69.149, 193.531 69.972, 192.347 70.363 C 191.162 70.754, 187.787 71.481, 184.847 71.980 C 181.906 72.478, 175.450 73.622, 170.500 74.522 C 165.550 75.422, 159.367 75.920, 156.759 75.628 C 152.678 75.170, 151.864 75.385, 150.906 77.175 C 148.071 82.474, 155.557 86.999, 164.293 85.266 C 168.458 84.441, 168.542 84.482, 172.750 89.406 C 175.088 92.142, 177 94.730, 177 95.158 C 177 95.586, 178.103 96.514, 179.450 97.220 L 181.900 98.504 179.200 101.902 C 177.715 103.771, 175.600 106.368, 174.500 107.673 L 172.500 110.047 167 105.758 C 160.512 100.699, 157.256 99.140, 150.500 97.859 C 141.980 96.243, 141.530 96.290, 141.170 98.832 C 140.728 101.951, 143.499 104.815, 147.724 105.608 C 149.621 105.964, 153.058 107.887, 155.362 109.881 C 157.666 111.875, 160.883 114.477, 162.512 115.663 L 165.473 117.820 163.486 120.019 C 156.130 128.165, 126.247 147.975, 121.285 147.995 C 119.507 148.002, 118.015 151.342, 118.671 153.849 C 119.509 157.055, 123.131 157.454, 130.315 155.133 C 141.607 151.485, 160.615 139.338, 169.453 130.122 C 171.627 127.855, 173.954 126, 174.624 126 C 175.294 126, 179.815 128.295, 184.671 131.101 C 192.779 135.785, 208.724 143.100, 218.500 146.619 C 222.218 147.957, 229.279 150.260, 239.888 153.594 C 242.301 154.352, 247.082 155.260, 250.513 155.612 C 256.064 156.180, 256.989 156.011, 258.926 154.074 C 260.438 152.562, 260.908 151.227, 260.464 149.699 C 259.498 146.367, 256.163 143.921, 253.499 144.590 C 251.259 145.152, 227.099 137.881, 218.500 134.056 C 217.400 133.567, 214.025 132.126, 211 130.855 C 204.567 128.150, 184.851 118.219, 183.732 117.119 C 182.738 116.141, 197.028 97.119, 207.689 85.232 C 216.326 75.601, 217.576 72.663, 214.250 69.807 C 211.548 67.486, 210.068 67.333, 202 68.535 M 190.500 80.222 C 188.300 80.756, 185.528 81.372, 184.339 81.593 C 182.199 81.990, 182.195 82.029, 183.955 85.747 C 184.933 87.811, 185.917 90.100, 186.144 90.833 C 186.393 91.640, 188.618 89.795, 191.778 86.162 C 194.650 82.860, 197 79.897, 197 79.579 C 197 78.853, 195.562 78.995, 190.500 80.222 M 129.667 107.667 C 127.678 109.655, 129.369 113.535, 134.626 119.047 C 140.538 125.245, 142.767 126.526, 145.908 125.529 C 149.156 124.498, 149.200 121.985, 146.055 117.118 C 140.914 109.159, 138.368 107, 134.126 107 C 132.040 107, 130.033 107.300, 129.667 107.667 M 169 144.795 C 163.798 148.310, 160.479 153.129, 159.559 158.500 C 158.899 162.348, 158.638 162.580, 152.687 164.609 C 149.284 165.769, 145.086 167.312, 143.357 168.038 C 140.442 169.262, 139.983 169.163, 137.030 166.679 C 135.279 165.205, 133.296 164, 132.623 164 C 130.525 164, 129 166.275, 129 169.407 C 129 172.690, 140.130 197.246, 143.113 200.544 C 144.914 202.535, 144.910 202.632, 142.981 204.284 C 140.433 206.466, 140.474 208.474, 143.120 211.120 C 144.844 212.844, 146.017 213.133, 149.415 212.667 C 151.711 212.352, 154.426 211.774, 155.448 211.382 C 157.215 210.703, 157.276 211.270, 156.703 223.084 C 155.803 241.651, 156.151 241.031, 145.445 243.127 C 140.525 244.091, 134.857 244.906, 132.850 244.939 C 128.054 245.019, 121.737 250.928, 122.198 254.902 C 122.459 257.150, 123.038 257.544, 126.500 257.825 C 128.700 258.004, 134.325 257.473, 139 256.645 C 143.675 255.816, 152.225 254.407, 158 253.514 C 190.738 248.448, 208.074 243.954, 213.218 239.199 L 215.937 236.686 218.089 241.593 C 219.272 244.292, 220.325 248.445, 220.427 250.822 C 220.536 253.323, 221.222 255.528, 222.057 256.057 C 225.968 258.531, 233.010 255.719, 232.988 251.693 C 232.973 248.902, 231.004 241.911, 227.020 230.500 C 225.291 225.550, 223.408 219.317, 222.834 216.649 C 221.432 210.129, 217.413 205.607, 213.821 206.509 C 208.870 207.751, 207.972 214.889, 211.657 223.718 C 213.815 228.888, 213.445 229.408, 206.250 231.308 C 202.537 232.289, 198.140 233.513, 196.477 234.029 C 192.841 235.155, 178.741 237.805, 170.679 238.876 C 165.088 239.619, 164.884 239.568, 165.510 237.575 C 166 236.017, 169.762 207.589, 169.967 203.902 C 170.031 202.748, 177.838 199.782, 178.970 200.481 C 181.690 202.163, 184.983 199.640, 191.647 190.771 C 201.407 177.783, 202.333 176.106, 202.333 171.440 C 202.333 166.848, 200.009 163.024, 196.095 161.177 C 194.663 160.501, 189.004 160, 182.801 160 C 172.260 160, 172.001 159.946, 172.022 157.750 C 172.034 156.512, 172.942 153.520, 174.041 151.099 C 175.911 146.976, 175.932 146.582, 174.364 144.849 C 172.362 142.638, 172.194 142.636, 169 144.795 M 174.883 171.721 C 171.337 172.097, 171.254 172.206, 170.642 177.302 C 169.844 183.947, 169.824 191, 170.605 191 C 171.921 191, 181.222 185.921, 182.811 184.335 C 183.740 183.407, 185.967 180.372, 187.761 177.591 C 190.698 173.036, 190.847 172.465, 189.261 171.837 C 187.427 171.112, 181.096 171.060, 174.883 171.721 M 56.571 176.571 C 54.228 178.915, 54.643 180.848, 58.250 184.404 C 60.510 186.633, 63.292 188.031, 67.385 188.997 C 73.126 190.350, 73.316 190.328, 75.135 188.081 C 76.161 186.815, 77 185.232, 77 184.564 C 77 181.437, 66.198 175.066, 60.821 175.022 C 59.348 175.010, 57.436 175.707, 56.571 176.571 M 150.293 176.209 C 144.940 177.032, 144.210 177.393, 144.989 178.832 C 147.068 182.667, 150 193.292, 150 196.988 L 150 200.968 153.363 199.364 C 156.636 197.803, 156.744 197.557, 157.363 190.229 C 158.207 180.246, 158.168 174.972, 157.250 175.127 C 156.838 175.198, 153.707 175.684, 150.293 176.209" stroke="none" fill="black" fill-rule="evenodd"/>
</svg>