<svg xmlns="http://www.w3.org/2000/svg" width="300" height="300" viewBox="0 0 300 300" version="1.1">
	<path d="M 131.626 12.321 C 129.632 14.148, 128 15.923, 128 16.267 C 128 17.465, 121.107 28.517, 118.811 31 C 117.540 32.375, 115.166 35.300, 113.536 37.500 C 111.906 39.700, 103.806 48.644, 95.536 57.376 C 63.980 90.694, 62.069 92.994, 62.028 97.705 C 62.003 100.584, 62.356 100.976, 65.504 101.567 C 68.037 102.042, 69.771 101.730, 71.754 100.442 C 76.039 97.662, 113.400 60.474, 121.427 51 C 129.768 41.154, 142.547 23.321, 144.001 19.497 C 145.464 15.650, 145.265 14.578, 142.548 11.646 C 139.265 8.104, 136.010 8.305, 131.626 12.321 M 178.551 16.902 C 177.232 19.453, 177.224 20.392, 178.490 24.652 C 180.948 32.928, 185.264 38.472, 194.720 45.500 C 204.065 52.447, 221.914 61.787, 227.610 62.712 C 233.877 63.729, 237.062 58.077, 233.385 52.465 C 232.497 51.109, 231.034 49.965, 230.135 49.921 C 229.236 49.878, 226.475 48.536, 224 46.939 C 221.525 45.341, 218.037 43.268, 216.250 42.332 C 214.463 41.396, 213 40.263, 213 39.815 C 213 39.367, 212.438 38.999, 211.750 38.997 C 207.880 38.987, 190.493 24.904, 186.446 18.501 C 183.138 13.268, 180.687 12.771, 178.551 16.902 M 145.500 79.527 C 118.485 81.065, 101.441 83.339, 98 85.864 C 93.443 89.207, 94.389 95.057, 99.820 97.122 C 101.895 97.911, 126.009 95.688, 139.750 93.441 C 141.678 93.125, 143 93.333, 143 93.952 C 143 95.706, 137.181 107.426, 135.268 109.525 C 134.278 110.611, 131.385 114.425, 128.839 118 C 126.293 121.575, 121.554 126.975, 118.308 130 C 111.143 136.677, 110.501 138.096, 113.128 141.436 C 117.089 146.471, 122.508 143.908, 135 131.091 C 148.838 116.893, 157.033 104.681, 158.484 96.097 L 159.176 92 166.338 92.056 C 176.222 92.134, 179.933 93.595, 182.706 98.500 C 184.359 101.424, 184.972 104.134, 184.984 108.576 C 185.002 115.499, 183.307 117.855, 176.812 119.934 C 169.287 122.342, 166.501 126.330, 169.035 131.066 C 170.343 133.508, 175.766 133.634, 184.316 131.418 C 196.443 128.276, 200.516 122.616, 200.448 109 C 200.413 101.820, 199.978 99.612, 197.646 94.783 C 196.128 91.639, 192.983 87.108, 190.657 84.715 C 186.843 80.791, 185.726 80.248, 179.271 79.182 C 175.335 78.532, 171.076 78.062, 169.807 78.137 C 168.538 78.212, 157.600 78.838, 145.500 79.527 M 153 148.086 C 136.036 150.258, 100.605 159.042, 92.530 163.077 C 89.228 164.727, 86.400 165.722, 86.247 165.289 C 84.406 160.074, 78.758 155.388, 75.719 156.554 C 73.287 157.487, 71.756 162.471, 72.295 167.698 C 72.567 170.339, 74.378 177.675, 76.320 184 C 78.262 190.325, 81.255 201.800, 82.971 209.500 C 84.688 217.200, 86.327 224.287, 86.613 225.250 C 87.097 226.872, 85.790 227, 68.725 227 C 51.376 227, 50.061 227.134, 45.907 229.329 C 41.405 231.708, 39.154 235.353, 40.316 238.381 C 40.882 239.855, 48.395 239.953, 126.718 239.506 C 220.811 238.968, 236.382 238.588, 252 236.441 C 257.775 235.647, 264.506 234.732, 266.957 234.407 C 276.463 233.146, 284.414 227.476, 283.826 222.377 C 283.341 218.164, 279.693 216.668, 275.636 219.018 C 271.820 221.228, 257.136 223.595, 239 224.922 C 231.575 225.466, 196.925 226.161, 162 226.467 L 98.500 227.024 98.402 217.762 C 98.299 208.030, 96.138 195.622, 92.917 186.258 C 91.863 183.194, 91 180.137, 91 179.465 C 91 177.998, 94.867 176.319, 101 175.124 C 103.475 174.641, 109.488 173.066, 114.362 171.623 C 125.252 168.400, 125.627 168.394, 123.597 171.492 C 120.752 175.834, 120.716 181.732, 123.438 197.500 C 125.551 209.738, 126.540 213.236, 128.811 216.500 C 131.240 219.990, 132.085 220.500, 135.439 220.500 C 140.783 220.500, 141.777 218.576, 139.637 212.382 C 138.692 209.648, 137.319 200.087, 136.516 190.652 C 135.399 177.526, 134.648 173.068, 133.114 170.469 L 131.147 167.134 136.193 166.052 C 141.033 165.014, 158.799 162.012, 160.152 162.004 C 160.511 162.002, 160.173 164.097, 159.402 166.659 C 158.631 169.221, 158 174.122, 158 177.548 C 158 184.639, 155.778 197.541, 152.970 206.752 C 151.113 212.842, 151.240 215.737, 153.427 217.235 C 155.322 218.532, 158.645 218.051, 160.231 216.250 C 166.993 208.574, 173.931 186.264, 173.993 172 C 174.014 167.325, 174.430 162.868, 174.919 162.097 C 175.639 160.960, 177.778 160.831, 186.154 161.417 C 191.844 161.815, 199.856 162.672, 203.957 163.321 L 211.414 164.500 212.277 168.500 C 214.336 178.037, 211.102 188.631, 203.007 198.872 C 196.375 207.262, 196.569 214, 203.443 214 C 206.240 214, 207.626 213.105, 211.572 208.750 C 219.040 200.510, 225.789 189.334, 227.096 183.043 C 228.565 175.980, 227.719 163.318, 225.462 158.561 C 222.280 151.855, 218.799 150.154, 204.889 148.507 C 191.662 146.940, 163.717 146.714, 153 148.086" stroke="none" fill="black" fill-rule="evenodd"/>
</svg>