<svg xmlns="http://www.w3.org/2000/svg" width="300" height="300" viewBox="0 0 300 300" version="1.1">
	<path d="M 161.223 12.557 C 159.579 13.708, 159 15.118, 159 17.972 C 159 21.308, 159.627 22.382, 163.641 25.915 C 166.193 28.162, 168.700 30, 169.211 30 C 169.722 30, 172.021 31.288, 174.320 32.863 C 179.719 36.561, 182.442 37.369, 184.962 36.020 C 187.170 34.839, 187.591 31.973, 185.996 28.992 C 184.334 25.888, 167.153 11, 165.231 11 C 164.249 11, 162.445 11.701, 161.223 12.557 M 243 39.582 C 217.791 42.729, 139.108 49.041, 125.399 49.016 C 114.529 48.997, 110.422 50.182, 109.568 53.586 C 108.682 57.114, 110.525 59.820, 114.295 60.527 C 118.370 61.292, 168.305 59.264, 184.500 57.676 L 196.500 56.500 190 63.156 C 186.425 66.817, 181.734 72.042, 179.576 74.767 L 175.652 79.721 171.196 76.319 C 166.433 72.684, 160.842 70, 158.033 70 C 157.085 70, 155.537 70.854, 154.593 71.898 C 152.946 73.717, 153.146 74.096, 159.438 81.081 C 163.047 85.089, 166 88.655, 166 89.006 C 166 90.011, 156.339 98.760, 150.968 102.618 C 148.289 104.543, 145.820 106.991, 145.481 108.059 C 144.588 110.873, 145.792 113.799, 148.151 114.548 C 151.158 115.502, 162.240 109.569, 170.193 102.746 L 176.900 96.992 187.420 102.054 C 200.279 108.242, 203.796 108.988, 206.420 106.088 C 209.915 102.226, 205.957 97.874, 192.250 90.505 C 189.363 88.952, 187 87.277, 187 86.783 C 187 86.288, 190.763 81.716, 195.362 76.624 C 204.688 66.298, 207.284 61.076, 204.578 58.086 C 203.039 56.386, 203.344 56.265, 210.729 55.661 C 218.437 55.031, 237.362 52.958, 256.403 50.658 C 267.094 49.367, 268.800 48.322, 267.656 43.767 C 267.213 42, 265.790 40.733, 262.989 39.612 C 258.412 37.781, 257.439 37.779, 243 39.582 M 52.209 54.566 L 49.974 56.132 50.575 79.816 C 51.383 111.618, 49.587 171.342, 47.021 198 C 45.882 209.825, 45.031 222.746, 45.128 226.714 C 45.226 230.681, 44.856 234.506, 44.308 235.214 C 41.859 238.371, 42.017 240.171, 45.003 243.157 C 47.556 245.709, 48.490 246.055, 51.252 245.468 C 53.038 245.088, 55.175 244.230, 56 243.560 C 56.825 242.891, 59.249 241.345, 61.388 240.124 C 68.215 236.227, 79.546 227.217, 80.973 224.551 L 82.353 221.972 85.293 225.540 C 87.811 228.594, 88.749 229.063, 91.818 228.803 C 94.706 228.559, 95.800 227.820, 97.451 225 C 99.378 221.708, 99.499 219.925, 99.480 195 C 99.447 150.900, 97.978 83.001, 96.875 74.565 C 95.244 62.105, 88.657 53.977, 80.216 54.011 C 74.755 54.033, 64.249 58.022, 62.689 60.667 C 61.561 62.578, 60 61.353, 60 58.556 C 60 57.187, 58.986 55.565, 57.535 54.615 C 54.547 52.657, 54.929 52.661, 52.209 54.566 M 72.122 69.558 C 69.164 70.901, 65.789 72, 64.622 72 L 62.500 72.001 62.500 116.359 L 62.500 160.717 65 159.965 C 66.375 159.552, 68.767 158.716, 70.315 158.107 C 74.910 156.300, 80.103 156.748, 82.686 159.174 L 85 161.349 85 146.690 L 85 132.032 80.893 134.173 C 75.567 136.949, 68.917 137.139, 66.105 134.595 C 63.501 132.239, 63.418 129.582, 65.872 127.128 C 67.834 125.166, 79.451 121, 82.959 121 C 84.940 121, 84.999 120.465, 84.969 102.750 C 84.937 83.536, 83.782 70.647, 81.888 68.365 C 80.325 66.482, 78.369 66.720, 72.122 69.558 M 242.679 83.250 C 240.843 87.628, 239.735 92.794, 238.977 100.500 C 237.532 115.210, 237.296 116, 234.355 116 C 233.020 116, 228.231 116.877, 223.714 117.948 C 196.503 124.401, 171.469 128.583, 151.255 130.053 C 137.532 131.050, 133.336 130.928, 127.785 129.369 C 125.008 128.589, 124.584 122.715, 125.954 104.049 L 127.235 86.599 124.658 84.382 C 121.780 81.907, 119.014 82.147, 117.214 85.029 C 115.791 87.307, 114.308 99.930, 113.459 117 C 112.872 128.786, 112.970 129.757, 115.168 134 C 118.834 141.074, 124.478 143.410, 138.944 143.841 C 155.657 144.339, 186.249 140.058, 214 133.338 C 217.575 132.472, 222.975 131.176, 226 130.457 C 238.482 127.490, 243.392 126.036, 247.584 124.066 C 251.257 122.339, 252 121.519, 252 119.195 C 252 117.658, 251.503 115.903, 250.895 115.295 C 250.089 114.489, 250.359 110.935, 251.895 102.137 C 254.638 86.430, 254.600 83.201, 251.632 79.750 C 247.779 75.269, 245.682 76.089, 242.679 83.250 M 182.281 153.096 C 178.318 155.634, 175.656 161.077, 169.775 178.665 C 168.922 181.217, 168.017 181.957, 165.108 182.484 C 157.636 183.836, 138.723 188.402, 135.548 189.620 C 134.652 189.964, 134.126 187.915, 133.667 182.299 C 132.945 173.460, 129.365 162.230, 126.750 160.601 C 124.385 159.127, 121.856 160.799, 120.737 164.577 C 120.261 166.184, 120.112 173.266, 120.406 180.313 L 120.941 193.127 117.220 194.663 C 112.196 196.738, 110 198.854, 110 201.620 C 110 204.798, 112.787 206.063, 117.466 205.008 L 121.301 204.143 120.655 216.821 C 120.299 223.795, 120.006 236.363, 120.004 244.750 C 120.001 257.116, 119.737 260, 118.607 260 C 116.999 260, 116 262.128, 116 265.556 C 116 267.950, 120.116 271, 123.347 271 C 126.210 271, 130.758 264.412, 131.400 259.335 C 132.771 248.496, 134 227.948, 134 215.874 L 134 203.038 136.750 202.425 C 138.262 202.087, 143.100 200.778, 147.500 199.515 C 156.357 196.974, 163.241 195.746, 162.680 196.809 C 156.665 208.189, 147.100 229.542, 146.637 232.624 C 145.818 238.070, 147.542 242.712, 151.059 244.530 C 154.760 246.444, 165.916 246.433, 173.305 244.509 C 182.784 242.040, 197.108 236.141, 203.808 231.948 C 207.277 229.777, 210.289 228, 210.501 228 C 210.713 228, 213.441 233.175, 216.564 239.500 C 222.069 250.650, 222.341 251, 225.498 251 C 229.393 251, 231.332 248.976, 231.220 245.027 C 231.138 242.143, 226.620 228.517, 225.088 226.535 C 224.649 225.966, 224.035 224.600, 223.724 223.500 C 223.413 222.400, 221.773 218.191, 220.079 214.146 C 218.386 210.102, 217 205.343, 217 203.571 C 217 201.502, 216.177 199.576, 214.701 198.189 C 212.592 196.208, 212.223 196.155, 210.230 197.551 C 207.595 199.397, 206.112 204.677, 206.225 211.814 C 206.302 216.692, 206.071 217.255, 203.405 218.687 C 200.014 220.509, 191.235 224.131, 181.925 227.551 C 175.720 229.831, 160.028 233.361, 159.307 232.640 C 158.893 232.226, 160.797 227.601, 167.183 213.500 C 174.110 198.206, 173.849 198.803, 174.955 195.750 C 175.717 193.644, 176.600 193.003, 178.725 193.014 C 181.191 193.027, 192.119 191.301, 220.086 186.480 C 230.064 184.760, 235.400 184.608, 237.947 185.972 C 242.299 188.301, 243.730 217.506, 241.183 252 C 239.650 272.758, 238.648 277.381, 235.109 280.027 C 230.351 283.585, 230 284.058, 230 286.917 C 230 290.904, 232.189 292.372, 237.143 291.708 C 243.639 290.836, 249.191 284.743, 251.947 275.459 C 255.986 261.855, 256.969 198.336, 253.320 186.719 C 251.600 181.243, 248.031 176.585, 243.931 174.464 C 239.825 172.341, 224.608 172.597, 211.998 175.002 C 206.224 176.103, 197.675 177.469, 193 178.038 C 188.325 178.607, 183.737 179.304, 182.805 179.587 C 181.339 180.031, 181.449 179.247, 183.621 173.800 C 189.822 158.243, 190.893 154.668, 189.905 152.823 C 188.638 150.455, 186.272 150.539, 182.281 153.096 M 83 167.033 C 82.175 167.453, 79.475 168.557, 77 169.488 C 74.525 170.418, 70.025 172.462, 67 174.031 C 61.913 176.668, 61.449 177.206, 60.824 181.191 C 60.452 183.561, 60.115 188.909, 60.074 193.076 C 59.999 200.777, 58.352 220.624, 57.444 224.784 L 56.945 227.069 60.722 225.101 C 62.800 224.019, 66.960 221.529, 69.966 219.567 C 76.228 215.481, 78.307 215.172, 80.309 218.031 C 81.698 220.013, 81.762 219.989, 82.987 217.031 C 83.678 215.364, 84.638 214, 85.121 214 C 86.106 214, 86.117 189.371, 85.138 175.385 C 84.602 167.733, 84.259 166.392, 83 167.033" stroke="none" fill="black" fill-rule="evenodd"/>
</svg>