<svg xmlns="http://www.w3.org/2000/svg" width="300" height="300" viewBox="0 0 300 300" version="1.1">
	<path d="M 208.630 28.728 C 205.120 29.252, 201 33.482, 201 36.563 C 201 37.812, 200.630 38.983, 200.179 39.167 C 198.982 39.652, 191 54.723, 191 56.496 C 191 57.323, 190.550 58, 190 58 C 189.450 58, 189 58.430, 189 58.956 C 189 59.481, 187.200 62.481, 185 65.621 C 182.800 68.762, 181 71.932, 181 72.666 C 181 73.400, 180.540 74, 179.979 74 C 179.417 74, 178.408 75.237, 177.737 76.750 C 177.066 78.263, 175.516 80.603, 174.293 81.952 C 173.071 83.300, 171.775 85.747, 171.414 87.389 C 171.054 89.031, 169.936 91.078, 168.929 91.937 C 165.375 94.974, 160 104.405, 160 107.605 C 160 114.491, 167.287 115.433, 173.854 109.394 C 176.134 107.298, 178 105.165, 178 104.656 C 178 104.146, 179.012 102.706, 180.250 101.456 C 181.488 100.205, 183.850 97.362, 185.500 95.137 C 187.150 92.913, 189.030 91.072, 189.677 91.046 C 190.324 91.021, 190.999 90.245, 191.177 89.321 C 191.479 87.750, 191.607 87.750, 193.179 89.321 C 194.409 90.552, 196.610 91, 201.429 91 C 205.043 91, 208 90.608, 208 90.128 C 208 89.648, 209.846 88.960, 212.102 88.600 C 214.358 88.239, 218.970 86.659, 222.352 85.090 C 229.750 81.656, 242.548 77, 244.591 77 C 246.641 77, 247.469 79.713, 246.213 82.317 C 244.770 85.311, 241 100.136, 241 102.818 C 241 104.018, 240.600 105, 240.111 105 C 239.623 105, 238.910 106.688, 238.528 108.750 C 238.147 110.813, 237.236 113.850, 236.505 115.500 C 233.915 121.347, 231 130.102, 231 132.038 C 231 133.117, 230.550 134, 230 134 C 229.450 134, 229 134.809, 229 135.798 C 229 136.786, 227.419 140.683, 225.486 144.456 C 223.554 148.230, 221.697 153.046, 221.359 155.159 C 221.021 157.271, 220.352 159, 219.872 159 C 219.392 159, 218.996 159.563, 218.991 160.250 C 218.986 160.938, 217.875 163.750, 216.522 166.500 C 215.169 169.250, 214.048 172.036, 214.031 172.691 C 213.976 174.788, 212.492 174.925, 207.062 173.334 C 203.520 172.295, 201.590 171.149, 201.261 169.889 C 200.989 168.850, 200.257 167.998, 199.633 167.996 C 199.010 167.993, 196.350 166.081, 193.722 163.746 C 185.773 156.681, 180.435 153.142, 170.632 148.436 C 163.055 144.798, 160.815 144.120, 158.847 144.868 C 152.389 147.323, 152.740 152.189, 159.759 157.529 C 165.439 161.849, 178.526 173.545, 181.427 176.893 C 185.257 181.315, 187.367 183, 189.072 183 C 190.004 183, 190.999 183.890, 191.284 184.977 C 191.634 186.316, 193.285 187.351, 196.400 188.185 C 198.930 188.861, 201 189.771, 201 190.207 C 201 190.643, 202.350 191, 204 191 C 207.052 191, 207.738 191.842, 206.076 193.550 C 204.517 195.153, 201.001 205.336, 201.001 208.250 C 201 209.762, 200.563 211, 200.029 211 C 198.857 211, 191 226.946, 191 229.323 C 191 230.245, 190.662 231, 190.248 231 C 189.835 231, 188.392 233.138, 187.042 235.750 C 185.692 238.363, 183.780 241.573, 182.794 242.885 C 181.807 244.197, 181 246.072, 181 247.052 C 181 248.032, 180.662 248.983, 180.250 249.167 C 178.804 249.809, 172.279 258.522, 171.576 260.750 C 171.185 261.988, 170.333 263.021, 169.683 263.046 C 169.032 263.072, 167.150 264.800, 165.500 266.886 C 163.850 268.973, 160.584 271.473, 158.242 272.442 C 155.900 273.412, 153.088 275.344, 151.992 276.737 C 148.004 281.807, 150.395 288.986, 156.079 289.010 C 159.869 289.026, 171 284.777, 171 283.315 C 171 282.592, 171.609 282, 172.354 282 C 173.099 282, 175.011 280.862, 176.604 279.472 C 178.197 278.081, 179.950 276.551, 180.500 276.073 C 181.050 275.594, 183.075 273.287, 185 270.946 C 186.925 268.605, 189.063 266.116, 189.750 265.416 C 190.438 264.716, 191.001 263.773, 191.002 263.321 C 191.004 262.870, 192.353 260.925, 194 259 C 195.647 257.075, 196.996 254.941, 196.998 254.258 C 196.999 253.576, 197.900 252.455, 199 251.768 C 200.100 251.081, 201.008 249.840, 201.018 249.009 C 201.028 248.179, 202.368 245.535, 203.996 243.133 C 205.624 240.731, 207.506 237.243, 208.179 235.383 C 208.851 233.522, 209.761 232, 210.201 232 C 210.640 232, 211 231.252, 211 230.338 C 211 229.424, 212.061 226.836, 213.359 224.588 C 214.656 222.340, 216.517 217.912, 217.495 214.750 C 218.474 211.588, 219.603 209, 220.006 209 C 220.409 209, 220.986 207.476, 221.288 205.614 C 221.590 203.751, 223.005 199.675, 224.432 196.554 C 225.860 193.434, 227.581 189.108, 228.257 186.941 C 228.934 184.773, 229.827 183, 230.243 183 C 230.660 183, 231 182.111, 231 181.025 C 231 179.939, 232.266 176.226, 233.813 172.775 C 235.360 169.324, 237.232 164.588, 237.973 162.250 C 238.714 159.912, 239.698 158, 240.160 158 C 240.622 158, 241 156.806, 241 155.346 C 241 153.887, 242.194 150.175, 243.652 147.096 C 245.111 144.018, 246.899 139.254, 247.625 136.509 C 248.352 133.764, 249.408 131.364, 249.973 131.176 C 250.538 130.987, 251 129.588, 251 128.066 C 251 125.227, 252.223 120.797, 254.470 115.500 C 255.170 113.850, 256.560 109.350, 257.560 105.500 C 258.559 101.650, 259.807 98.209, 260.331 97.853 C 260.856 97.497, 261.334 91.167, 261.393 83.788 C 261.485 72.254, 261.254 70.124, 259.750 68.614 C 258.788 67.648, 258 66.320, 258 65.664 C 258 65.009, 256.087 63.632, 253.750 62.605 C 249.915 60.921, 248.768 60.857, 242 61.956 C 234.768 63.131, 221 68.530, 221 70.191 C 221 70.636, 219.762 71, 218.250 71.001 C 215.617 71.001, 206.989 73.805, 202.252 76.200 C 201.015 76.825, 199.702 77.036, 199.335 76.668 C 198.967 76.301, 199.192 76, 199.833 76 C 200.475 76, 201 75.185, 201 74.189 C 201 73.192, 201.812 71.505, 202.805 70.439 C 203.798 69.372, 205.678 66.362, 206.983 63.750 C 208.287 61.138, 209.668 59, 210.052 59 C 210.436 59, 211.009 57.704, 211.326 56.121 C 211.643 54.537, 212.599 52.544, 213.451 51.692 C 214.303 50.840, 215 49.646, 215 49.038 C 215 48.430, 216.350 46.613, 218 45 C 220.545 42.513, 221 41.306, 221 37.053 C 221 32.578, 220.739 31.973, 218.572 31.429 C 217.237 31.094, 215.901 30.185, 215.604 29.410 C 215.065 28.007, 214.098 27.912, 208.630 28.728 M 137 69.782 C 137 71.125, 128.862 72.934, 120 73.562 C 115.325 73.893, 105.425 73.727, 98 73.193 C 89.888 72.610, 80.509 72.571, 74.500 73.095 C 69 73.575, 61.350 74.021, 57.500 74.086 C 48.314 74.241, 47.262 74.593, 45.438 78.121 C 43.504 81.861, 44.144 83.900, 48.496 87.860 L 51.947 91 80.223 91.079 C 99.399 91.132, 107.664 91.465, 105.901 92.112 C 104.472 92.636, 102.672 94.284, 101.901 95.773 C 101.131 97.261, 99.296 99.673, 97.825 101.133 C 94.871 104.062, 91 111.055, 91 113.460 C 91 114.307, 90.527 115, 89.948 115 C 89.369 115, 88.425 116.350, 87.850 118 C 87.275 119.650, 86.441 121, 85.997 121 C 85.553 121, 84.002 123.028, 82.549 125.506 C 81.097 127.984, 78.135 131.922, 75.967 134.256 C 73.799 136.590, 72.007 138.950, 71.985 139.500 C 71.963 140.050, 70.569 141.850, 68.887 143.500 C 67.206 145.150, 64.856 147.771, 63.665 149.324 C 62.474 150.877, 60.375 153.406, 59 154.944 C 50.948 163.952, 49.365 165.891, 48.081 168.318 C 47.301 169.793, 46.176 171.010, 45.581 171.021 C 44.344 171.046, 39 178.264, 39 179.910 C 39 180.509, 38.207 181, 37.237 181 C 35.537 181, 34.509 182.376, 31.820 188.250 C 31.128 189.762, 30.038 191, 29.397 191 C 28.757 191, 26.605 192.801, 24.616 195.003 C 19.269 200.922, 19.709 207.402, 25.500 208.018 C 30.141 208.511, 32.203 207.812, 35.868 204.500 C 37.999 202.575, 39.985 201, 40.282 201 C 41.158 201, 52.001 190.162, 51.994 189.294 C 51.991 188.857, 53.987 186.475, 56.431 184 C 58.875 181.525, 62.531 177.588, 64.554 175.250 C 66.577 172.912, 68.855 171, 69.616 171 C 70.377 171, 71 170.127, 71 169.059 C 71 167.991, 71.400 166.871, 71.888 166.569 C 72.882 165.955, 73.670 170.650, 74.560 182.500 C 74.890 186.900, 75.430 191.175, 75.760 192 C 76.956 194.995, 78.564 208.151, 77.792 208.628 C 77.357 208.898, 77 210.597, 77 212.404 C 77 216.408, 79.596 219.005, 83.579 218.986 C 88.918 218.961, 90.907 217.898, 92.176 214.390 C 92.850 212.525, 93.761 211, 94.201 211 C 95.213 211, 95.259 197.591, 94.250 196.587 C 93.048 195.392, 91.204 171.731, 92.120 169.250 C 92.886 167.175, 93.569 167, 100.899 167 C 109.140 167, 119 168.728, 119 170.172 C 119 170.627, 119.824 171, 120.831 171 C 121.838 171, 123.243 172.085, 123.953 173.412 C 125.054 175.469, 124.932 176.746, 123.122 182.106 C 121.955 185.561, 121 189.201, 121 190.194 C 121 191.187, 120.568 192, 120.040 192 C 119.512 192, 118.519 193.912, 117.833 196.250 C 117.147 198.588, 115.838 201.046, 114.925 201.714 C 114.012 202.382, 112.998 204.260, 112.673 205.887 C 112.022 209.142, 111.902 209.267, 104 214.950 C 100.975 217.125, 97.956 219.377, 97.292 219.953 C 96.628 220.529, 95.558 221, 94.915 221 C 93.064 221, 81 227.181, 81 228.130 C 81 228.600, 79.650 230.187, 78 231.658 C 75.858 233.566, 75 235.239, 75 237.505 C 75 240.307, 75.457 240.831, 78.887 241.963 C 81.024 242.668, 84.287 243.003, 86.137 242.707 C 96.127 241.109, 98 240.660, 98 239.868 C 98 239.391, 98.638 239, 99.417 239 C 100.196 239, 100.983 238.662, 101.167 238.250 C 102.019 236.332, 109.139 232, 111.440 232 C 112.985 232, 114.910 230.948, 116.257 229.367 C 117.490 227.919, 118.975 226.231, 119.556 225.617 C 120.137 225.003, 120.910 223.713, 121.275 222.750 C 121.639 221.787, 122.356 221, 122.869 221 C 124.078 221, 130.604 214.473, 131.357 212.511 C 131.676 211.680, 132.851 211, 133.969 211 C 135.086 211, 136 210.658, 136 210.240 C 136 209.822, 137.186 208.200, 138.636 206.636 C 140.594 204.525, 141.273 202.738, 141.273 199.692 C 141.273 197.436, 140.761 195.420, 140.136 195.212 C 138.855 194.785, 138.563 192, 139.800 192 C 140.853 192, 143.007 181.449, 142.976 176.440 C 142.923 167.994, 141.189 163.774, 135.696 158.721 C 129.279 152.820, 121.889 150.268, 106.690 148.705 C 95.936 147.599, 95.856 147.607, 90.960 150.233 C 88.254 151.685, 85.831 152.536, 85.577 152.125 C 85.323 151.713, 86.551 149.747, 88.307 147.755 C 93.073 142.349, 94.291 140.839, 96.981 137 C 98.330 135.075, 100.011 132.905, 100.717 132.179 C 101.423 131.452, 102 130.462, 102 129.979 C 102 129.496, 103.293 127.165, 104.874 124.800 C 106.455 122.435, 108.060 119.487, 108.442 118.250 C 108.823 117.013, 109.554 116, 110.067 116 C 110.580 116, 111 114.636, 111 112.968 C 111 109.368, 113.067 104.075, 115.374 101.768 C 117.908 99.235, 118.488 94.630, 116.521 92.664 C 114.969 91.112, 115.401 91, 122.929 91 C 127.643 91, 131 90.584, 131 90 C 131 89.450, 131.697 89, 132.550 89 C 134.831 89, 140.107 86.140, 143.250 83.199 C 147.255 79.451, 147.008 71, 142.893 71 C 141.852 71, 141 70.550, 141 70 C 141 69.450, 140.100 69, 139 69 C 137.900 69, 137 69.352, 137 69.782" stroke="none" fill="black" fill-rule="evenodd"/>
</svg>