<svg xmlns="http://www.w3.org/2000/svg" width="300" height="300" viewBox="0 0 300 300" version="1.1">
	<path d="M 204.564 13.272 C 202.312 15.622, 198.577 21.438, 196.262 26.197 L 192.053 34.849 186.277 35.492 C 183.099 35.845, 176.900 36.744, 172.500 37.490 C 168.100 38.236, 160 39.123, 154.500 39.461 C 139.470 40.385, 135.445 41.510, 133.911 45.216 C 131.545 50.927, 136.512 55.971, 144.500 55.970 C 148.356 55.969, 173.407 52.684, 179.446 51.388 L 182.391 50.755 177.946 56.128 C 175.501 59.082, 172.670 62.400, 171.655 63.500 C 167.243 68.284, 163.897 74.100, 164.487 75.958 C 164.906 77.279, 164.457 78.220, 163.048 78.974 C 161.727 79.681, 161 79.712, 161 79.061 C 161 77.623, 155.782 75.175, 154.035 75.792 C 150.044 77.203, 146.816 84.868, 149.069 87.583 C 151.378 90.365, 148.258 178.338, 145.225 196 C 144.620 199.521, 143.990 200.567, 142.328 200.806 C 138.606 201.343, 137.853 208.272, 141.073 212.365 C 143.817 215.854, 149.693 216.048, 152.709 212.750 C 156.051 209.095, 158.131 204.132, 158.722 198.403 C 159.262 193.176, 159.347 193.051, 161.888 193.766 C 168.134 195.522, 179.297 194.274, 190.196 190.603 C 196.079 188.621, 201.614 187, 202.496 187 C 203.378 187, 205.427 186.313, 207.050 185.474 C 211.362 183.244, 211.168 178.885, 206.632 176.082 C 202.161 173.319, 198.673 173.470, 185.029 177.017 C 170.592 180.771, 166.927 180.836, 163.491 177.400 C 161.465 175.374, 160.958 173.994, 161.196 171.150 L 161.500 167.500 169 166.882 C 173.125 166.543, 178.644 165.534, 181.264 164.640 C 183.884 163.746, 189.284 162.503, 193.264 161.878 C 202.186 160.476, 205.005 158.876, 204.985 155.227 C 204.960 150.853, 203.596 149.713, 197.842 149.255 C 192.570 148.836, 170.518 152.092, 165.366 154.051 C 163.912 154.604, 162.496 154.829, 162.218 154.552 C 161.941 154.275, 162.116 151.228, 162.607 147.782 L 163.500 141.516 168 140.843 C 173.639 140, 192.044 133.471, 202.160 128.726 L 209.819 125.133 210.423 130.816 C 210.755 133.942, 211.133 151.800, 211.263 170.500 C 211.441 196.002, 211.171 205.776, 210.185 209.607 L 208.869 214.714 196.685 216.306 C 189.983 217.181, 176.175 218.837, 166 219.985 C 127.075 224.377, 109.914 227.143, 102.198 230.271 C 97.828 232.042, 94.261 234.198, 93.316 235.641 C 91.861 237.861, 91.877 238.207, 93.523 240.026 C 96.057 242.825, 101.039 242.609, 128.295 238.514 C 141.058 236.596, 163.922 233.460, 179.103 231.545 C 202.043 228.651, 207.240 228.264, 209.862 229.254 C 212.471 230.239, 213.580 230.164, 216.259 228.821 C 218.042 227.927, 227.150 226.197, 236.500 224.976 C 245.850 223.755, 256.404 221.865, 259.953 220.775 C 270.912 217.411, 276.092 209.959, 270.860 205.084 C 268.844 203.206, 268.510 203.181, 265.110 204.649 C 259.425 207.103, 256.421 207.783, 241.651 209.959 C 224.702 212.457, 224.610 212.459, 225.435 210.309 C 227.502 204.923, 228.017 186.353, 227.011 153.500 C 225.605 107.552, 223.799 85.186, 220.941 78.311 C 216.674 68.046, 209.863 66.098, 191.500 69.894 C 186.550 70.917, 182.337 71.609, 182.139 71.432 C 181.940 71.255, 185.326 67.148, 189.664 62.305 C 194.001 57.462, 198.214 52.558, 199.025 51.408 C 200.279 49.629, 201.934 49.215, 210.068 48.650 C 226.309 47.521, 236 44.165, 236 39.668 C 236 34.558, 231.773 32.105, 224.705 33.112 C 221.842 33.520, 217.332 33.887, 214.683 33.927 C 210.139 33.996, 209.904 33.872, 210.547 31.750 C 211.451 28.764, 214.973 23, 215.893 23 C 217.739 23, 220.999 18.659, 220.993 16.211 C 220.988 14.268, 220.050 12.863, 217.681 11.250 C 212.593 7.786, 209.340 8.287, 204.564 13.272 M 77.308 41.534 C 70.278 45.037, 60 54.544, 60 57.544 C 60 60.554, 61.363 61.333, 66.623 61.333 C 69.538 61.333, 72.859 60.288, 77.065 58.046 C 81.711 55.570, 83.425 55.069, 84.010 56.016 C 85.494 58.417, 88.905 90.944, 88.966 103.276 L 89 110.051 86.050 108.526 C 81.900 106.380, 79.800 106.598, 68.750 110.322 L 59 113.608 59 95.876 C 59 86.124, 58.519 74.625, 57.932 70.322 C 56.668 61.067, 53.368 49.550, 51.546 48.038 C 49.946 46.710, 47.398 47.599, 46.421 49.827 C 46.017 50.747, 45.345 80.300, 44.928 115.500 C 44.129 182.906, 43.529 200.055, 41.936 201.040 C 40.238 202.089, 39.297 207.382, 40.203 210.789 C 41.953 217.372, 49.151 217.634, 52.742 211.246 C 55.551 206.247, 56.922 197.677, 57.677 180.404 L 58.293 166.309 70.514 164.154 C 77.236 162.969, 84.145 162, 85.868 162 L 89 162 89 184 C 89 203.126, 88.799 206, 87.463 206 C 86.617 206, 79.980 207.984, 72.713 210.409 C 65.446 212.835, 57.858 215.096, 55.850 215.436 C 51.758 216.128, 50.466 217.295, 49.490 221.183 C 48.529 225.011, 49.712 227.800, 53.021 229.511 C 57.265 231.705, 60.891 231.344, 67.130 228.107 C 76.349 223.324, 85.288 220.365, 85.808 221.924 C 87.495 226.984, 94.197 228.548, 97.792 224.722 C 103.140 219.029, 103.326 217.202, 103.775 166 C 104.451 89.108, 101.561 52.802, 94.117 44.627 C 91.549 41.807, 86.366 39, 83.728 39 C 82.994 39, 80.105 40.140, 77.308 41.534 M 201.936 82.397 C 201.672 82.662, 195.958 83.356, 189.239 83.939 C 176.891 85.011, 168.540 87.296, 164.888 90.602 C 163.179 92.148, 163 93.915, 163 109.222 C 163 124.872, 163.131 126.094, 164.750 125.585 C 165.713 125.283, 170 124.143, 174.277 123.051 C 178.555 121.960, 183.505 120.412, 185.277 119.611 C 187.050 118.810, 193.321 116.703, 199.214 114.930 L 209.927 111.705 209.298 102.103 C 208.406 88.470, 206.965 82.573, 204.439 82.208 C 203.327 82.047, 202.201 82.132, 201.936 82.397 M 84 119.921 C 81.525 120.280, 76.449 122.291, 72.721 124.389 C 67.301 127.440, 65.146 128.129, 61.971 127.826 L 58 127.447 58 139.154 L 58 150.860 73.497 150.680 L 88.994 150.500 88.997 134.750 C 88.999 126.088, 88.888 119.060, 88.750 119.134 C 88.612 119.207, 86.475 119.561, 84 119.921 M 202.200 235.200 C 200.632 236.768, 200.663 240.475, 202.256 241.797 C 202.946 242.370, 204.672 243.131, 206.091 243.487 C 208.700 244.141, 211.355 246.168, 228.185 260.348 C 244.458 274.058, 245.482 274.865, 252.054 279.148 C 263.344 286.508, 268.217 287.200, 271.079 281.852 C 272.229 279.704, 270.838 275.380, 268.502 273.840 C 266.465 272.497, 239.443 250.692, 237.873 249.124 C 235.303 246.559, 232.037 244, 231.333 244 C 230.979 244, 229.293 242.935, 227.587 241.634 C 223.673 238.649, 210.917 234, 206.640 234 C 204.858 234, 202.860 234.540, 202.200 235.200 M 186 235.700 C 185.175 235.999, 183.150 236.802, 181.500 237.486 C 179.850 238.169, 176.475 239.548, 174 240.549 C 171.525 241.551, 168.571 243.187, 167.436 244.185 C 166.300 245.183, 165.149 246, 164.877 246 C 164.605 246, 161.259 248.923, 157.441 252.495 C 153.624 256.068, 148.475 260.651, 146 262.680 C 139.486 268.021, 132 276.983, 132 279.439 C 132 285.868, 139.523 288.314, 144.076 283.364 C 145.409 281.915, 148.300 279.410, 150.500 277.798 C 156.340 273.518, 165.307 265.648, 175.173 256.144 C 179.943 251.548, 186.013 246.371, 188.661 244.638 C 193.855 241.239, 195.014 238.872, 192.644 236.502 C 191.130 234.987, 188.761 234.702, 186 235.700" stroke="none" fill="black" fill-rule="evenodd"/>
</svg>