<svg xmlns="http://www.w3.org/2000/svg" width="300" height="300" viewBox="0 0 300 300" version="1.1">
	<path d="M 195.319 55.223 C 191.773 61.308, 191.165 64.457, 190.589 79.752 C 190.272 88.141, 189.725 98.104, 189.373 101.894 L 188.733 108.784 185.791 107.940 C 184.173 107.476, 181.053 105.473, 178.857 103.490 C 175.728 100.662, 174.178 99.950, 171.683 100.192 C 169.015 100.450, 168.447 100.962, 168.174 103.354 C 167.819 106.453, 170.404 109.966, 175.251 112.973 L 178.002 114.679 173.751 115.957 C 167.020 117.981, 159.738 121.080, 156.750 123.192 C 153.127 125.753, 152.918 130.550, 156.361 132.119 C 158.297 133.001, 159.961 132.651, 165.611 130.174 C 171.904 127.415, 184.046 124, 187.562 124 C 188.490 124, 189 125.053, 189 126.969 C 189 128.991, 188.586 129.779, 187.702 129.439 C 185.711 128.675, 182.313 132.995, 180.992 137.967 C 178.964 145.605, 175.636 151.938, 165.474 167.500 C 163.679 170.250, 160.136 174.439, 157.601 176.809 C 153.704 180.452, 153.153 181.417, 154.031 183.059 C 154.797 184.489, 156.134 185, 159.109 185 C 162.644 185, 163.875 184.307, 168.970 179.447 C 172.172 176.393, 176.976 170.227, 179.646 165.745 C 182.316 161.262, 185.315 156.223, 186.310 154.547 C 188.081 151.568, 188.106 152.022, 187.436 175 C 187.060 187.925, 186.333 199.304, 185.821 200.288 C 183.673 204.410, 188.037 209.063, 191.667 206.521 C 195.019 204.173, 195.811 198.435, 196.536 171.250 C 196.921 156.813, 197.615 145, 198.079 145 C 199.476 145, 202.951 149.190, 206.073 154.636 C 211.275 163.712, 228.768 175, 237.633 175 C 242.781 175, 245 173.781, 245 170.955 C 245 168.543, 242.181 166.479, 236.250 164.548 C 233.363 163.608, 231 162.425, 231 161.920 C 231 161.414, 230.570 161, 230.044 161 C 227.955 161, 221.119 155.474, 213.933 147.977 C 207.509 141.274, 205.735 139.981, 202.183 139.413 L 198 138.744 198 130.472 L 198 122.199 202.750 121.149 C 205.363 120.571, 210.650 119.630, 214.500 119.058 C 218.350 118.486, 224.738 117.527, 228.695 116.928 C 236.288 115.778, 238.552 114.315, 237.563 111.200 C 235.968 106.174, 226.511 105.795, 203.111 109.819 L 197.722 110.745 198.350 99.623 C 200.221 66.511, 200.326 54.515, 198.758 53.214 C 197.467 52.143, 196.933 52.455, 195.319 55.223 M 77.016 64.572 C 74 65.976, 70.660 68.062, 69.593 69.207 L 67.653 71.289 65.853 69.066 C 64.863 67.844, 63.253 66.997, 62.276 67.184 C 60.635 67.499, 60.447 69.997, 59.808 100.012 C 58.855 144.738, 57.428 173.821, 55.977 178.100 C 54.930 181.187, 55.004 182.076, 56.493 184.350 C 57.982 186.622, 58.931 187, 63.147 187 C 65.852 187, 69.512 186.373, 71.282 185.606 C 73.052 184.839, 77.072 183.052, 80.216 181.634 L 85.932 179.055 84.890 181.343 C 83.580 184.217, 84.944 189.931, 87.292 191.413 C 89.670 192.912, 92.034 191.278, 94.500 186.431 C 96.423 182.651, 96.500 180.523, 96.500 131 C 96.500 77.526, 96.229 73.524, 92.177 67.199 C 90.655 64.823, 86.085 61.993, 83.800 62.010 C 83.085 62.015, 80.032 63.168, 77.016 64.572 M 76.035 77.469 C 72.965 80.195, 70.417 81.714, 69.501 81.362 C 68.203 80.864, 68 83.073, 68 97.736 C 68 107.059, 67.705 120.173, 67.344 126.880 L 66.689 139.074 71.740 136.537 C 74.518 135.142, 77.175 133.997, 77.645 133.994 C 78.115 133.991, 80.188 133.520, 82.250 132.947 L 86 131.906 86 124.051 L 86 116.196 81.250 117.692 C 78.638 118.515, 75.751 119.413, 74.835 119.688 C 73.782 120.005, 72.534 119.218, 71.440 117.549 C 69.938 115.256, 69.889 114.577, 71.066 112.377 C 72.825 109.090, 75.212 107.878, 81.429 107.116 L 86.500 106.494 86.492 95.497 C 86.487 89.449, 86.117 81.912, 85.670 78.750 C 84.643 71.492, 83.009 71.275, 76.035 77.469 M 211.226 76.250 C 209.541 78.318, 208.012 85.174, 208.006 90.685 C 208.003 93.537, 207.525 97.119, 206.945 98.646 C 204.608 104.791, 209.045 109.185, 213.429 105.067 C 217.464 101.276, 221.449 81.576, 219.078 77.145 C 217.785 74.730, 212.917 74.175, 211.226 76.250 M 111.750 88.392 C 110.787 89.123, 110 90.595, 110 91.663 C 110 93.796, 114.149 99.944, 120.442 107.139 C 122.674 109.690, 125.237 112.840, 126.139 114.139 C 127.757 116.470, 127.804 116.476, 129.889 114.595 C 133.002 111.786, 132.534 109.407, 127.021 99.998 C 119.967 87.958, 116.146 85.055, 111.750 88.392 M 114.571 126.571 C 113.707 127.436, 113 128.746, 113 129.483 C 113 131.078, 118.445 135.838, 121.675 137.066 C 124.338 138.079, 123.968 140.123, 120.417 144 C 115.818 149.021, 114.701 157.066, 117.500 165 C 118.325 167.338, 119 171.517, 119 174.287 C 119 179.270, 118.911 179.412, 110.441 187.948 C 100.469 197.998, 100.036 198.594, 100.015 202.300 C 99.957 212.897, 117.557 222.113, 143.466 225.052 C 148.397 225.611, 155.372 226.463, 158.966 226.946 C 162.560 227.428, 177.425 228.388, 192 229.079 C 212.767 230.064, 223.259 230.081, 240.500 229.156 C 263.653 227.914, 270.545 226.644, 281.606 221.580 C 290.259 217.619, 293 215.302, 293 211.951 C 293 207.619, 289.416 207.086, 283.519 210.541 C 271.764 217.431, 250.932 219.544, 204.405 218.567 C 149.585 217.415, 125.540 213.793, 112.683 204.750 L 109.865 202.768 118.288 194.134 C 123.818 188.465, 127.148 184.158, 127.985 181.592 C 129.482 177.002, 128.795 167.638, 126.485 161.141 C 124.621 155.899, 125.051 154.292, 130.102 147.632 C 135.348 140.714, 135.985 136.980, 132.664 132.627 C 129.896 128.998, 122.515 125, 118.582 125 C 117.241 125, 115.436 125.707, 114.571 126.571 M 77.266 145.988 C 72.811 148.194, 68.742 150, 68.225 150 C 67.707 150, 67.019 154.838, 66.696 160.750 C 66.373 166.662, 65.807 172.512, 65.438 173.750 C 64.872 175.648, 65.145 176, 67.183 176 C 68.513 176, 70.028 175.628, 70.550 175.174 C 72.401 173.565, 79.847 171.751, 82.815 172.186 C 85.485 172.578, 85.891 172.296, 86.412 169.689 C 87.285 165.325, 87.095 144.697, 86.168 143.238 C 85.563 142.284, 83.385 142.957, 77.266 145.988" stroke="none" fill="black" fill-rule="evenodd"/>
</svg>