<svg xmlns="http://www.w3.org/2000/svg" width="300" height="300" viewBox="0 0 300 300" version="1.1">
	<path d="M 198.500 30.751 C 197.400 30.945, 195.375 31.590, 194 32.185 C 192.625 32.781, 190.375 33.758, 189 34.357 C 187.625 34.957, 185.427 36.247, 184.115 37.224 C 182.803 38.201, 180.954 39, 180.005 39 C 179.056 39, 176.621 40.125, 174.595 41.500 C 172.569 42.875, 170.288 44, 169.527 44 C 165.991 44, 165 46.908, 164.987 57.321 C 164.980 62.920, 164.314 75.150, 163.507 84.500 C 162.701 93.850, 162.032 108.813, 162.021 117.750 C 162.001 132.949, 162.136 134.136, 164.104 136.104 C 165.944 137.944, 167.104 138.156, 173.354 137.795 C 179.198 137.458, 182.114 136.608, 189.357 133.131 C 194.228 130.793, 198.313 129.019, 198.434 129.190 C 198.555 129.360, 199.238 130.965, 199.951 132.755 C 202.745 139.772, 210.812 143.982, 215.147 140.684 C 219.923 137.049, 222.277 120.413, 220.053 106 C 219.416 101.875, 218.514 87.925, 218.048 75 C 217.060 47.645, 215.592 39.935, 210.411 34.913 C 207.237 31.837, 202.242 30.092, 198.500 30.751 M 124.500 35.383 C 122.300 36.082, 119.600 37.124, 118.500 37.697 C 110.944 41.637, 105.604 43.314, 98.500 43.978 C 92.754 44.515, 90.218 44.392, 89.500 43.540 C 86.156 39.576, 80.501 40.155, 79.392 44.575 C 79.084 45.803, 79.579 51.464, 80.492 57.154 C 81.835 65.516, 82.094 73.223, 81.846 97.345 C 81.553 125.821, 81.627 127.254, 83.461 128.595 C 84.518 129.368, 85.943 130, 86.629 130 C 87.355 130, 87.798 131.091, 87.688 132.607 C 87.558 134.406, 88.339 135.851, 90.206 137.269 C 92.828 139.261, 93.328 139.286, 106.206 138.071 C 113.518 137.381, 121.412 136.465, 123.750 136.037 C 127.412 135.366, 128 135.497, 128 136.988 C 128 139.087, 115.318 153.715, 107.884 160.189 C 100.081 166.985, 88.727 178.106, 83.363 184.208 C 80.805 187.119, 75.229 193.143, 70.972 197.595 C 62.241 206.728, 60.973 209.207, 63.565 212.072 C 67.170 216.055, 70.307 214.691, 81.780 204.156 C 87.676 198.742, 93.132 193.550, 93.904 192.618 C 94.676 191.687, 96.926 189.643, 98.904 188.077 L 102.500 185.230 102.500 235.365 C 102.500 262.939, 102.844 286.731, 103.265 288.235 C 104.622 293.084, 111.398 292.861, 114.064 287.880 C 114.817 286.474, 115.346 268.995, 115.705 233.652 C 116.156 189.199, 116.018 180.983, 114.766 178 L 113.297 174.500 125.057 162.368 C 142.572 144.298, 145.501 139.421, 141.494 134.994 C 140.182 133.544, 140.170 132.955, 141.403 130.415 C 144.045 124.967, 145.444 101.067, 144.155 83.403 C 143.517 74.657, 142.996 63.193, 142.997 57.928 C 142.999 51.786, 142.439 46.770, 141.434 43.928 C 138.723 36.260, 132.161 32.949, 124.500 35.383 M 189.500 49 C 184 51.750, 178.880 54, 178.121 54 C 177.037 54, 176.890 55.117, 177.436 59.232 C 177.818 62.109, 178.315 64.649, 178.541 64.875 C 178.767 65.101, 181.513 64.771, 184.643 64.143 C 193.291 62.406, 198.332 62.686, 201.365 65.073 L 204 67.145 203.892 62.323 C 203.741 55.562, 201.696 44.713, 200.500 44.325 C 199.950 44.146, 195 46.250, 189.500 49 M 119 50.780 C 112.805 53.806, 110.456 54.432, 105.500 54.378 C 102.200 54.343, 98.193 53.952, 96.596 53.511 C 93.741 52.722, 93.703 52.764, 94.346 55.979 C 94.706 57.778, 95.007 63.356, 95.015 68.375 C 95.024 73.394, 95.387 78.061, 95.822 78.746 C 96.449 79.734, 97.739 79.700, 102.056 78.584 C 115.416 75.131, 122.424 75.687, 124.947 80.401 C 126.799 83.862, 124.875 86.688, 119.734 88.058 C 117.405 88.678, 112.028 90.269, 107.785 91.593 C 103.542 92.917, 98.929 94, 97.535 94 C 95.404 94, 95 94.463, 95 96.900 C 95 99.590, 95.272 99.798, 98.750 99.772 C 103.848 99.733, 127.091 102.533, 129.190 103.439 C 130.760 104.116, 130.843 102.232, 130.358 76.834 C 130.071 61.800, 129.662 48.938, 129.450 48.250 C 128.867 46.369, 127.207 46.771, 119 50.780 M 202.856 73.478 C 201.882 74.452, 185.348 78.862, 181.494 79.175 L 177.502 79.500 176.689 85.355 C 176.243 88.575, 176.061 91.395, 176.286 91.620 C 176.512 91.845, 178.677 90.936, 181.098 89.600 C 183.519 88.264, 189.662 86.162, 194.750 84.928 L 204 82.685 204 77.842 C 204 73.119, 203.837 72.497, 202.856 73.478 M 200.120 96.153 C 198.260 96.687, 195.785 97.715, 194.620 98.437 C 193.454 99.158, 188.563 100.809, 183.750 102.105 L 175 104.461 175 114.256 L 175 124.051 178.092 122.452 C 182.280 120.287, 195.953 116, 198.673 116 C 199.881 116, 202.024 116.439, 203.435 116.975 C 205.989 117.946, 206 117.929, 206 112.622 C 206 105.498, 204.864 94.978, 204.108 95.090 C 203.773 95.140, 201.979 95.618, 200.120 96.153 M 95 115.545 C 95 120.849, 93.893 124.737, 91.720 127.070 C 90.588 128.285, 90.075 129.080, 90.581 128.837 C 99.177 124.699, 99.628 124.612, 114.621 124.204 L 129.742 123.792 130.321 118.180 C 130.640 115.093, 130.810 112.499, 130.700 112.416 C 130.590 112.334, 124.944 112.724, 118.154 113.283 C 110.017 113.953, 103.965 113.965, 100.404 113.320 L 95 112.341 95 115.545 M 156.174 148.314 C 153.114 151.572, 153.705 157.809, 157.295 160.149 C 159.952 161.880, 156.453 163.829, 146.086 166.390 C 130.491 170.242, 124.178 174.727, 126.980 179.962 C 128.552 182.900, 135.493 182.645, 152.969 179.006 C 160.876 177.360, 167.478 176.144, 167.639 176.305 C 167.799 176.466, 167.656 180.489, 167.321 185.245 L 166.711 193.892 161.105 194.492 C 155.357 195.106, 139.488 199.644, 137.250 201.313 C 136.563 201.825, 136 203.338, 136 204.673 C 136 209.821, 148.930 211.965, 159.932 208.641 C 168.087 206.177, 168 206.124, 168 213.481 C 168 219.412, 167.809 219.997, 165.750 220.378 C 156.089 222.165, 152.816 223.039, 148 225.122 C 141.702 227.845, 141.036 228.513, 141.015 232.128 C 140.983 237.730, 148.595 239.411, 158.880 236.071 C 169.507 232.621, 168.997 232.108, 169.022 246.250 C 169.041 256.479, 169.341 258.885, 170.840 260.834 C 172.148 262.534, 173.425 263.077, 175.545 262.834 C 180.048 262.317, 180.968 259.272, 180.985 244.838 L 181 232.176 185.250 231.468 C 195.667 229.734, 199.625 226.128, 196.443 221.272 C 195.129 219.267, 194.131 219, 187.937 219 L 180.919 219 181.210 210.837 L 181.500 202.675 185 201.587 C 197.421 197.728, 202.511 190.752, 195.602 187.055 C 193.645 186.007, 192.244 186.078, 187.471 187.465 C 180.473 189.500, 180.037 189.084, 180.015 180.340 L 180 174.181 187.250 172.973 C 196.258 171.472, 198 170.580, 198 167.465 C 198 162.777, 194.255 160.687, 186 160.768 C 185.725 160.771, 182.012 161.087, 177.750 161.472 L 170 162.171 170 158.132 C 170 152.879, 168.496 149.724, 165.010 147.665 C 161.169 145.396, 158.749 145.574, 156.174 148.314 M 233.500 258.667 C 216.901 261.629, 202.073 263.132, 181 263.989 C 168.625 264.492, 154.675 265.624, 150 266.505 C 127.262 270.787, 119 274.392, 119 280.032 C 119 283.555, 122.070 284.740, 127.197 283.195 C 129.014 282.648, 133.331 282.161, 136.792 282.113 C 140.253 282.064, 145.878 281.581, 149.292 281.039 C 152.706 280.497, 166.300 279.376, 179.500 278.547 C 192.700 277.718, 206.669 276.820, 210.543 276.550 C 216.890 276.109, 230.486 273.540, 240.140 270.959 C 244.682 269.745, 247.371 265.964, 246.503 262.011 C 245.623 258.009, 242.170 257.121, 233.500 258.667" stroke="none" fill="black" fill-rule="evenodd"/>
</svg>