<svg xmlns="http://www.w3.org/2000/svg" width="300" height="300" viewBox="0 0 300 300" version="1.1">
	<path d="M 146.500 18.715 C 144.300 18.924, 136.605 20.207, 129.400 21.566 C 111.512 24.941, 99.569 25.914, 89.186 24.841 C 78.539 23.741, 76.589 24.165, 75.036 27.914 C 73.222 32.292, 74.567 34.921, 79.807 37.239 C 84.074 39.126, 85.680 39.230, 101.458 38.635 C 110.831 38.282, 120.034 37.708, 121.910 37.360 C 124.971 36.791, 125.239 36.919, 124.534 38.613 C 124.102 39.651, 123.468 46.999, 123.124 54.943 L 122.500 69.387 116.500 71.217 C 113.200 72.224, 106.965 73.473, 102.645 73.992 C 93.718 75.065, 91 77.058, 91 82.531 C 91 88.675, 96.791 90.182, 110.040 87.485 C 114.693 86.538, 120.838 85.683, 123.695 85.586 C 126.791 85.481, 129.620 84.768, 130.695 83.823 C 131.688 82.950, 133.621 81.893, 134.992 81.474 C 137.312 80.764, 137.385 80.842, 136.049 82.606 C 135.259 83.648, 132.711 86.525, 130.386 89 C 128.060 91.475, 126.010 94.611, 125.829 95.968 C 125.556 98.016, 124.309 98.878, 118.500 101.038 C 107.426 105.154, 103.014 107.997, 99.591 113.220 C 94.732 120.637, 105.212 123.740, 116.046 118.093 C 118.254 116.942, 120.500 116, 121.036 116 C 121.571 116, 124.342 114.875, 127.192 113.500 C 130.042 112.125, 132.457 111, 132.558 111 C 132.659 111, 132.355 113.071, 131.882 115.602 C 131.329 118.564, 131.424 121.798, 132.149 124.678 C 133.628 130.553, 132.923 131.163, 121 134.325 C 94.839 141.262, 89.059 141.916, 85.490 138.347 C 82.744 135.601, 83.496 114.805, 87.006 96.471 C 88.659 87.834, 90.536 75.407, 91.177 68.855 C 92.514 55.192, 91.548 51.369, 86.040 48.521 C 83.302 47.105, 82.774 47.102, 80.651 48.493 C 78.491 49.908, 78.251 50.917, 77.730 60.767 C 77.202 70.749, 76.018 79.449, 72.459 99.500 C 71.678 103.900, 70.503 112.735, 69.847 119.134 C 68.804 129.322, 68.863 131.610, 70.326 137.537 C 73.547 150.590, 79.492 155, 93.869 155 C 101.233 155, 105.002 154.356, 115.159 151.361 C 121.946 149.359, 129.525 147.365, 132 146.928 C 134.475 146.492, 139.200 145.144, 142.500 143.932 C 145.800 142.720, 150.750 140.933, 153.500 139.960 C 159.737 137.753, 162.026 134.215, 159.607 130.523 C 157.558 127.395, 154.896 126.657, 150.284 127.938 C 143.724 129.760, 143.755 129.793, 144.505 121.750 C 144.877 117.763, 145.292 111.800, 145.429 108.500 C 145.565 105.200, 145.998 101.598, 146.391 100.495 C 146.882 99.116, 146.446 97.782, 144.994 96.224 L 142.884 93.959 148.592 88.742 C 156.292 81.704, 159.098 74.295, 155.718 69.925 C 152.701 66.024, 149.127 64.710, 143.373 65.386 L 137.805 66.040 138.489 55.770 C 138.865 50.122, 139.226 42.948, 139.290 39.830 L 139.407 34.159 148.659 31.427 C 156.606 29.080, 158.031 28.329, 158.766 26.098 C 159.236 24.669, 159.460 22.775, 159.264 21.889 C 158.861 20.069, 154.772 17.914, 152.203 18.168 C 151.266 18.261, 148.700 18.507, 146.500 18.715 M 226 42.029 C 223.525 42.466, 219.925 43.495, 218 44.315 C 216.075 45.135, 209.648 46.525, 203.717 47.404 C 197.786 48.282, 191.410 49.638, 189.547 50.416 C 183.492 52.946, 182.214 59.154, 187.177 61.931 C 189.502 63.231, 190.949 63.254, 198.177 62.101 C 202.755 61.371, 209.650 60.413, 213.500 59.973 C 217.350 59.532, 221.329 58.844, 222.343 58.443 C 224.082 57.756, 224.072 57.934, 222.171 61.607 C 221.062 63.748, 218.995 67.050, 217.578 68.944 C 216.160 70.839, 215 72.798, 215 73.299 C 215 73.800, 213.650 76.211, 211.999 78.657 C 210.348 81.102, 208.333 84.318, 207.519 85.802 C 206.706 87.286, 205.149 89.540, 204.060 90.812 L 202.079 93.124 196.499 88.911 C 192.202 85.667, 189.799 84.591, 186.047 84.231 C 181.702 83.813, 180.516 84.181, 175.076 87.631 C 168.362 91.890, 166.414 95.367, 169.486 97.613 C 170.958 98.690, 171.871 98.663, 174.755 97.458 C 176.674 96.656, 179.033 96, 179.996 96 C 182.264 96, 193 103.941, 193 105.618 C 193 107.589, 173.956 126.538, 170 128.503 C 164.950 131.011, 163 132.994, 163 135.620 C 163 140.232, 169.470 141.324, 176.290 137.863 C 183.752 134.076, 189.331 129.894, 197.193 122.194 C 202.930 116.576, 205.218 114.917, 206.193 115.670 C 206.912 116.225, 211.100 119.591, 215.500 123.150 C 219.900 126.709, 225.637 130.944, 228.248 132.560 C 230.860 134.177, 232.997 135.826, 232.998 136.224 C 233.002 137.621, 238.935 140, 242.415 140 C 244.958 140, 246.239 139.422, 247.050 137.907 C 249.385 133.544, 245.736 128.582, 232.397 117.982 C 228.225 114.667, 224.197 111.402, 223.447 110.727 C 222.696 110.052, 220.081 107.961, 217.635 106.080 L 213.188 102.660 216.866 97.580 C 221.467 91.225, 226 84.223, 226 83.473 C 226 83.160, 227.671 80.338, 229.714 77.202 C 231.756 74.066, 234.038 70.375, 234.784 69 C 238.876 61.456, 242.561 55.224, 244.175 53.115 C 246.842 49.631, 246.512 45.548, 243.365 43.073 C 240.532 40.844, 234.703 40.494, 226 42.029 M 217.349 146.878 C 215.570 147.874, 207.953 149.573, 199.849 150.782 C 175.924 154.350, 126.228 160.275, 113.868 161.034 C 101.091 161.818, 97.533 163.135, 94.551 168.182 C 92.933 170.922, 92.931 171.246, 94.527 173.682 C 96.221 176.267, 96.236 176.270, 106.362 175.593 C 111.938 175.220, 123.876 174.023, 132.890 172.931 C 141.905 171.840, 149.483 171.150, 149.730 171.397 C 150.764 172.431, 129.779 204.160, 125.409 208.170 C 124.012 209.451, 121.786 212.158, 120.463 214.185 C 117.407 218.865, 105.447 233.855, 102.635 236.530 C 101.461 237.647, 98.845 240.608, 96.821 243.111 C 90.664 250.729, 64.044 272, 60.668 272 C 58.281 272, 55 275.645, 55 278.296 C 55 285.159, 62.953 286.276, 72.920 280.812 C 87.133 273.021, 104.595 257.744, 116.104 243.029 C 119.072 239.235, 121.802 236.439, 122.171 236.815 C 123.220 237.886, 126.950 259.599, 127.658 268.758 C 128.188 275.615, 128.019 277.322, 126.660 278.823 C 124.634 281.062, 123.638 286.038, 124.851 287.862 C 126.207 289.901, 133.678 290.919, 139.950 289.920 C 171.588 284.877, 189.015 282.733, 210.722 281.215 C 220.349 280.542, 223.374 279.971, 224.972 278.525 C 227.422 276.308, 227.681 270.810, 225.424 268.937 C 222.778 266.741, 194.098 266.465, 177.500 268.475 C 169.800 269.407, 160.350 270.535, 156.500 270.980 C 152.650 271.426, 147.642 272.111, 145.371 272.504 L 141.241 273.217 140.703 263.359 C 140.198 254.112, 138.678 241.165, 137.536 236.387 C 137.064 234.415, 137.551 234.227, 144.765 233.585 C 158.275 232.382, 174.832 230.020, 183.301 228.087 C 187.810 227.057, 194.028 225.917, 197.118 225.552 L 202.736 224.889 201.368 230.162 C 200.616 233.063, 200 237.257, 200 239.482 C 200 243.725, 197.188 252.537, 194.550 256.564 C 192.331 259.951, 192.632 262.529, 195.465 264.385 C 198.850 266.603, 200.342 266.425, 203.976 263.367 C 209.661 258.583, 214.211 247.349, 217.434 230.140 C 219.866 217.154, 219.598 213.681, 215.923 210.589 C 211.614 206.963, 205.262 207.170, 187.495 211.518 C 179.588 213.453, 168.479 215.473, 162.809 216.007 C 142.859 217.887, 140.480 218.237, 138.285 219.612 C 133.554 222.576, 133.811 220.039, 138.847 214.064 C 140.963 211.554, 144.848 206.125, 147.481 202 C 150.113 197.875, 153.894 192.060, 155.883 189.077 C 157.872 186.094, 161.075 180.694, 163 177.077 C 167.044 169.477, 163.431 170.731, 195 165.971 C 206.275 164.271, 217.425 162.395, 219.777 161.803 C 226.812 160.030, 231.074 153.153, 227.718 148.988 C 226.732 147.764, 221.499 144.832, 220.703 145.057 C 220.591 145.089, 219.082 145.908, 217.349 146.878" stroke="none" fill="black" fill-rule="evenodd"/>
</svg>