<svg xmlns="http://www.w3.org/2000/svg" width="300" height="300" viewBox="0 0 300 300" version="1.1">
	<path d="M 203.500 20.007 C 200.521 21.126, 195.930 26.032, 194.148 30 C 193.015 32.522, 192.425 38.109, 192.038 50 L 191.500 66.500 188 66.765 C 177.989 67.522, 142.028 72.251, 139 73.208 C 134.656 74.582, 133.073 76.573, 133.032 80.715 C 132.980 85.908, 135.231 86.491, 149.950 85.093 C 180.982 82.146, 191.508 81.199, 191.616 81.344 C 191.680 81.430, 191.975 90.275, 192.272 101 L 192.812 120.500 183.847 122.258 C 171.554 124.669, 155 129.690, 152.809 131.673 C 150.022 134.195, 150.486 137.853, 153.750 139.098 C 161.499 142.054, 169.129 141.440, 193 135.940 C 199.875 134.356, 207.525 132.794, 210 132.469 C 235.567 129.115, 240.860 126.177, 234.927 118.635 C 233.058 116.258, 232.201 116, 226.177 116.001 C 222.505 116.002, 216.350 116.603, 212.500 117.337 L 205.500 118.672 205.853 99.586 C 206.047 89.089, 206.312 80.385, 206.441 80.245 C 206.571 80.104, 214.962 79.317, 225.089 78.494 C 251.225 76.372, 252.591 76.136, 255.491 73.236 C 260.117 68.610, 258.181 59, 252.624 59 C 251.678 59, 249.913 60.045, 248.702 61.322 C 246.648 63.489, 245.259 63.725, 228 64.840 C 217.825 65.498, 208.713 66.028, 207.750 66.018 C 206.225 66.002, 206.003 64.941, 206.020 57.750 C 206.046 46.729, 207.569 36.796, 210.004 31.756 C 212.091 27.437, 212.490 24.319, 211.214 22.313 C 210.041 20.468, 205.715 19.175, 203.500 20.007 M 114.788 54.539 C 107.119 57.838, 98.289 59.012, 74.500 59.893 C 53.045 60.688, 50.301 61.309, 46.692 66.186 C 44.952 68.539, 44.861 69.249, 45.960 71.903 C 46.650 73.570, 48.078 75.207, 49.132 75.542 C 50.187 75.877, 56.729 75.827, 63.669 75.432 L 76.289 74.713 75.513 77.606 C 75.086 79.198, 74.424 82.075, 74.041 84 C 73.390 87.270, 65.393 104.117, 60.749 112 C 57.552 117.427, 41.765 141.439, 41.026 142 C 40.663 142.275, 38.371 145.200, 35.933 148.499 C 30.756 155.505, 31.632 154.349, 23.827 164.500 C 20.444 168.900, 15.724 174.618, 13.338 177.207 C 6.468 184.662, 7.745 188.800, 16.717 188.158 C 17.936 188.071, 21.222 185.967, 24.019 183.483 C 29.886 178.272, 43.085 163.493, 48.066 156.557 L 51.475 151.811 52.123 155.155 C 53.321 161.339, 53.988 193.414, 53.107 202.494 C 52.195 211.902, 52.906 216, 55.450 216 C 56.274 216, 57.643 217.343, 58.493 218.986 C 59.352 220.648, 61.167 222.255, 62.588 222.611 C 67.714 223.898, 92.645 218.716, 100.149 214.805 C 103.542 213.037, 104.843 211.429, 107.613 205.582 C 113.655 192.828, 115.228 184.738, 115.750 163.729 C 116.249 143.636, 115.411 138.180, 110.883 132.055 C 108.171 128.388, 100.206 125.618, 94.191 126.250 C 78.945 127.855, 63.664 141.327, 70.580 147.067 C 71.879 148.145, 72.724 148.147, 75.330 147.078 C 84.357 143.377, 95.462 140.012, 97.020 140.506 C 99.628 141.334, 99.973 143.855, 99.966 162 C 99.960 178.083, 99.358 185.141, 97.041 196.301 C 95.911 201.745, 95.900 201.758, 90.705 203.334 C 83.977 205.376, 74.678 207, 69.709 207 C 66.313 207, 65.901 206.765, 66.643 205.250 C 67.114 204.287, 67.500 186.618, 67.500 165.984 L 67.500 128.469 70.618 123.484 C 77.110 113.106, 85.495 95.564, 89.995 82.949 L 93.045 74.399 99.272 73.327 C 109.482 71.569, 120.305 67.246, 124.362 63.305 C 128.361 59.421, 128.786 57.567, 126.443 54.223 C 124.467 51.401, 121.924 51.470, 114.788 54.539 M 223 164.605 C 203.881 166.304, 192.110 167.300, 176.810 168.517 C 166.652 169.324, 157.613 170.553, 155.582 171.401 C 153.490 172.275, 151.806 172.496, 151.463 171.940 C 150.270 170.010, 146.272 171.105, 143.065 174.240 L 139.751 177.481 140.458 209.990 C 140.848 227.871, 141.604 244.525, 142.138 247 C 144.370 257.330, 152.125 260.741, 169.500 259.034 C 175 258.494, 183.116 258.040, 187.535 258.026 C 196.407 257.997, 221.757 254.051, 232.164 251.078 L 238.827 249.175 239.425 251.558 C 240.216 254.707, 243.166 256.167, 248.740 256.167 C 254.839 256.167, 257.775 253.863, 261.747 245.960 C 265.572 238.349, 267.295 229.345, 269.587 204.998 C 271.427 185.449, 270.830 179.363, 266.418 172.696 C 262.351 166.550, 257.672 165.039, 241.321 164.587 C 233.719 164.377, 225.475 164.385, 223 164.605 M 195.500 181.181 C 185.050 182.237, 171.775 183.890, 166 184.853 L 155.500 186.604 155.235 215.802 L 154.970 245 161.378 245 C 169.743 245, 215.155 240.318, 229.857 237.939 C 235.253 237.066, 236.595 237.160, 238.728 238.557 C 240.110 239.463, 241.456 241.027, 241.719 242.034 C 242.049 243.296, 243.021 243.807, 244.849 243.678 C 250.578 243.275, 254.943 221.212, 254.984 192.450 C 254.995 185.169, 254.591 180.991, 253.800 180.200 C 251.951 178.351, 217.807 178.925, 195.500 181.181" stroke="none" fill="black" fill-rule="evenodd"/>
</svg>