<svg xmlns="http://www.w3.org/2000/svg" width="300" height="300" viewBox="0 0 300 300" version="1.1">
	<path d="M 174.750 27.392 C 170.356 30.727, 173.757 39.077, 182.839 47.250 C 187.465 51.413, 189.875 51.900, 192.345 49.171 C 194.598 46.682, 194.438 45.030, 191.373 39.121 C 185.828 28.433, 179.376 23.881, 174.750 27.392 M 133.344 28.193 C 132.880 28.912, 132.702 36.250, 132.949 44.500 C 133.196 52.750, 133.421 65.575, 133.449 73 L 133.500 86.500 127 87.306 C 114.185 88.894, 114.303 88.854, 112.971 92.070 C 112.024 94.357, 111.994 95.691, 112.848 97.565 C 114.490 101.169, 118.060 102.146, 126.083 101.188 L 133 100.362 132.998 103.931 C 132.997 107.588, 129.410 144.100, 128.522 149.500 C 128.250 151.150, 127.596 157.485, 127.068 163.578 C 125.516 181.488, 117.349 219.836, 111.006 239 C 109.458 243.675, 107.915 248.738, 107.577 250.250 C 107.239 251.762, 106.520 253, 105.981 253 C 105.441 253, 105 254.542, 105 256.427 C 105 261.227, 108.853 264.296, 113.043 262.835 C 116.520 261.623, 118.285 258.073, 124.049 240.695 C 133.447 212.362, 140.320 173.420, 143.055 133 C 144.949 105.015, 145.630 98.847, 146.911 98.055 C 149.384 96.527, 163.731 92.055, 171.438 90.410 C 182.896 87.964, 186.803 83.386, 181.913 78.137 C 179.989 76.072, 179.263 75.950, 172.663 76.585 C 168.723 76.964, 161.450 78.560, 156.500 80.131 C 151.550 81.703, 147.270 82.991, 146.989 82.994 C 146.707 82.997, 146.387 76.813, 146.278 69.250 C 146.123 58.606, 145.491 52.902, 143.479 44 C 142.050 37.675, 140.330 31.375, 139.657 30 C 138.295 27.218, 134.648 26.174, 133.344 28.193 M 241.385 29.765 C 240.771 30.169, 239.922 31.625, 239.498 33 C 239.073 34.375, 237.326 37.525, 235.614 40 C 233.903 42.475, 231.996 45.400, 231.376 46.500 C 230.756 47.600, 228.835 50.975, 227.106 54 C 223.218 60.803, 214.543 77.992, 213.689 80.584 C 213.342 81.638, 212.613 83.175, 212.068 84 C 208.800 88.953, 204.939 98.765, 205.202 101.450 C 205.445 103.940, 206.003 104.558, 208.238 104.815 C 209.744 104.989, 211.955 104.444, 213.152 103.606 C 215.552 101.925, 222.178 91.350, 227.630 80.500 C 229.565 76.650, 233.155 70.125, 235.610 66 C 243.152 53.323, 247.131 44.009, 247.743 37.598 C 248.218 32.613, 248.019 31.487, 246.462 30.348 C 244.397 28.839, 243.030 28.682, 241.385 29.765 M 88.680 73.183 C 84.379 73.587, 76.954 74.589, 72.180 75.409 C 67.406 76.230, 58.100 77.184, 51.500 77.530 C 29.380 78.691, 23 80.910, 23 87.443 C 23 90.176, 23.557 91.020, 26.210 92.305 C 27.975 93.160, 29.759 93.649, 30.174 93.392 C 30.947 92.915, 60.317 90.997, 60.726 91.398 C 60.981 91.647, 57.464 101.102, 56.124 103.768 C 55.646 104.721, 51.711 112.621, 47.381 121.326 C 43.051 130.030, 38.831 137.905, 38.004 138.826 C 37.177 139.746, 35.248 142.837, 33.719 145.693 C 29.661 153.268, 18.977 168.614, 13.100 175.308 C 10.295 178.503, 8 181.508, 8 181.987 C 8 183.974, 11.376 186, 14.686 186 C 17.750 186, 19.293 184.965, 26.092 178.349 C 30.897 173.673, 36.580 166.651, 40.707 160.291 C 48.662 148.029, 48.077 147.371, 49.992 170.725 C 51.193 185.363, 51.163 187.357, 49.693 191.100 C 47.936 195.573, 48.289 197.017, 52.261 201.585 C 55.059 204.803, 60.718 204.779, 74.634 201.491 C 91.682 197.463, 99 193.395, 99 187.948 C 99 184.475, 96.774 182.659, 93.165 183.189 L 90.311 183.608 93.760 176.144 C 97.893 167.199, 99.435 157.694, 98.643 146.045 L 98.068 137.590 92.555 132.077 L 87.042 126.564 78.271 126.669 C 72.707 126.735, 68.175 127.349, 65.877 128.347 C 60.248 130.792, 59.386 128.189, 63.405 120.876 C 66.083 116.001, 77 90.611, 77 89.255 C 77 88.362, 86.983 86.527, 97.500 85.488 C 106.478 84.600, 107.808 84.180, 108.497 82.010 C 109.064 80.222, 106.419 74.069, 105.034 73.956 C 104.740 73.932, 102.700 73.583, 100.500 73.181 C 98.300 72.778, 92.981 72.779, 88.680 73.183 M 245.654 81.412 C 243.554 83.513, 241.189 87.646, 239.504 92.162 C 237.998 96.198, 234.630 104, 232.021 109.500 C 229.411 115, 226.676 121.075, 225.943 123 C 225.210 124.925, 223.789 127.635, 222.785 129.023 C 220.195 132.603, 219.295 141.170, 221.331 142.860 C 224.375 145.386, 227.228 143.731, 232.293 136.500 C 234.990 132.650, 238.406 127.025, 239.884 124 C 241.362 120.975, 243.358 117.317, 244.321 115.871 C 247.230 111.501, 253.664 94.801, 254.288 90 C 254.609 87.525, 255.161 84.555, 255.514 83.399 C 256.269 80.926, 253.803 78, 250.962 78 C 249.920 78, 247.531 79.536, 245.654 81.412 M 276 118.750 C 273.668 119.496, 272 122.122, 272 125.047 C 272 126.513, 270.518 129.690, 268.706 132.106 C 266.895 134.523, 261.861 142.800, 257.520 150.500 C 243.478 175.411, 238.185 182.322, 214.628 206.500 C 207.127 214.200, 200.728 221.471, 200.409 222.657 C 199.459 226.193, 201.622 229, 205.296 229 C 212.045 229, 239.881 203.313, 252.750 185.211 C 256.738 179.602, 260 174.808, 260 174.559 C 260 174.038, 271.166 155.177, 276.315 147 C 282.650 136.940, 285 131.962, 285 128.599 C 285 123.491, 279.612 117.595, 276 118.750 M 158.631 121.512 C 156.241 123.901, 155.913 129.160, 155.700 168.500 C 155.496 206.324, 156.153 216.218, 159.722 229 C 165.715 250.462, 177.812 258.576, 203.500 258.361 C 210.131 258.306, 221.764 257.310, 229.500 256.136 C 237.200 254.967, 244.938 254.008, 246.696 254.005 C 251.486 253.997, 276.917 247.186, 281.500 244.684 C 286.885 241.744, 289.505 236.488, 288.108 231.429 C 287.551 229.413, 286.330 226.917, 285.393 225.882 C 282.040 222.176, 276 224.506, 276 229.504 C 276 230.894, 275.280 232.072, 274.250 232.369 C 263.467 235.474, 246.250 239.092, 237.890 240.010 C 232.176 240.638, 225.250 241.586, 222.500 242.118 C 219.750 242.649, 212.325 243.345, 206 243.663 C 191.621 244.387, 184.296 242.623, 179.163 237.199 C 175.004 232.805, 174.400 231.226, 171.424 217 C 168.124 201.222, 167.529 186.199, 168.942 154.321 C 170.177 126.459, 170.082 125.225, 166.435 121.578 C 164.437 119.580, 160.596 119.547, 158.631 121.512 M 72.290 141.348 C 69.974 141.982, 67.521 143.063, 66.840 143.750 C 66.158 144.438, 64.721 145, 63.646 145 C 61.779 145, 61.722 145.540, 62.346 157.157 C 62.706 163.843, 63 173.880, 63 179.460 L 63 189.605 68.750 188.887 C 71.912 188.492, 75.323 188.131, 76.329 188.084 C 77.820 188.016, 78.040 187.461, 77.519 185.086 C 77.061 183, 77.601 180.748, 79.420 177.158 C 82.602 170.878, 85.537 154.065, 84.573 147.638 C 83.446 140.120, 81.124 138.931, 72.290 141.348" stroke="none" fill="black" fill-rule="evenodd"/>
</svg>