<svg xmlns="http://www.w3.org/2000/svg" width="300" height="300" viewBox="0 0 300 300" version="1.1">
	<path d="M 172.123 29.570 C 169.338 33.111, 168.642 39.103, 169.472 52.385 L 170.179 63.710 161.340 64.406 C 156.478 64.788, 150.813 65.361, 148.750 65.678 L 145 66.256 145 54.062 C 145 41.863, 144.318 38.762, 141.087 36.282 C 139.160 34.803, 137.970 34.733, 136 35.982 C 134.777 36.758, 134.500 39.666, 134.500 51.717 L 134.500 66.500 123.200 67.155 C 113.648 67.709, 111.367 68.174, 108.457 70.155 C 104.308 72.981, 104.074 75.347, 107.708 77.727 C 109.950 79.195, 112.446 79.476, 122.208 79.362 C 135.661 79.205, 134.595 78.200, 132.967 89.500 C 131.357 100.673, 130.932 106.455, 130.215 126.891 L 129.500 147.282 124 149.075 C 120.975 150.061, 117.127 150.897, 115.450 150.934 C 111.654 151.016, 110 152.598, 110 156.143 C 110 159.195, 113.140 162, 116.556 162 C 119.867 162, 119.981 162.795, 117.477 168.457 C 116.187 171.373, 114.622 176.626, 113.998 180.130 C 113.375 183.633, 112.257 188.750, 111.515 191.500 C 110.772 194.250, 109.370 201.786, 108.399 208.247 C 106.703 219.532, 106.704 220.300, 108.444 227.747 C 111.737 241.844, 116.036 246.953, 128.042 251.034 C 133.451 252.872, 135.881 253.137, 143 252.664 C 154.232 251.917, 166.601 248.218, 171.777 244.059 C 179.817 237.598, 182.381 227.887, 176.441 226.396 C 174.368 225.876, 173.246 226.482, 170.207 229.764 C 164.941 235.451, 153.563 239, 140.596 239 C 129.541 239, 125.876 237.208, 122.250 230.030 C 119.260 224.111, 119.176 211.804, 122.049 200.500 C 123.362 195.335, 124.293 187.489, 124.675 178.360 L 125.268 164.220 122.884 163.440 C 120.911 162.795, 121.621 162.437, 127 161.361 C 130.575 160.646, 135.173 159.648, 137.217 159.143 L 140.935 158.225 139.611 160.863 C 138.882 162.313, 137.324 167.325, 136.147 172 C 134.970 176.675, 133.122 182.824, 132.040 185.664 C 130.958 188.505, 129.775 193.744, 129.409 197.308 C 128.776 203.494, 128.862 203.863, 131.306 205.465 C 136.265 208.714, 137.463 206.807, 146.986 180.502 C 149.249 174.251, 150.008 164.654, 148.647 159.500 L 147.855 156.500 154.677 154.618 C 158.430 153.584, 164.875 151.829, 169 150.720 C 189.418 145.229, 193.400 143.654, 194.457 140.645 C 195.321 138.185, 195.133 137.526, 193.098 135.878 C 190.722 133.954, 188.258 133.912, 177.196 135.605 L 173.891 136.111 175.626 132.806 C 178.014 128.257, 180.916 106.661, 181.667 87.862 L 182.291 72.224 186.131 70.957 C 188.243 70.260, 190.750 68.829, 191.702 67.776 C 193.278 66.035, 193.297 65.623, 191.907 63.182 C 190.621 60.923, 189.728 60.513, 186.245 60.582 L 182.109 60.665 181.678 48.582 C 181.227 35.936, 180.423 30.345, 178.752 28.250 C 177.147 26.237, 174.299 26.804, 172.123 29.570 M 222.116 64.750 C 221.496 66.263, 220.561 73.800, 220.039 81.500 C 217.857 113.645, 217.941 113.072, 215.287 114.081 C 213.964 114.584, 208.991 115.760, 204.237 116.694 C 193.837 118.738, 189.259 121.913, 190.365 126.317 C 190.732 127.779, 192.187 129.732, 193.600 130.657 C 196.032 132.251, 196.523 132.225, 202.905 130.170 C 206.610 128.976, 210.880 128, 212.393 128 L 215.144 128 214.513 133.750 C 213.721 140.970, 208.380 169.083, 202.878 195 C 196.758 223.822, 190.031 243.755, 184.663 248.978 C 183.473 250.135, 181.166 252.136, 179.536 253.423 C 176.844 255.550, 176.682 256.006, 177.765 258.382 C 178.758 260.562, 179.617 261, 182.902 261 C 190.525 261, 198.621 251.710, 204.254 236.500 C 207.563 227.565, 210.974 216.542, 210.987 214.741 C 210.994 213.773, 211.881 209.048, 212.958 204.241 C 217.659 183.261, 222.060 161.024, 226.267 137 L 228.631 123.500 234.065 121.655 C 237.054 120.640, 241.591 118.997, 244.147 118.003 L 248.795 116.196 249.847 120.348 C 250.425 122.632, 251.371 129.971, 251.949 136.657 C 255.346 175.954, 249.107 226.080, 240.122 231.692 C 238.465 232.726, 238.035 232.403, 236.483 228.962 C 235.515 226.816, 233.922 224.335, 232.944 223.449 C 230.455 221.197, 226.761 221.994, 225.275 225.103 C 223.412 229.003, 226.970 238.888, 231.745 243.081 C 234.991 245.931, 235.759 246.168, 239.909 245.599 C 248.438 244.430, 255.307 237.414, 258.751 226.354 C 259.924 222.584, 261.908 212.975, 263.161 205 C 265.165 192.235, 265.430 186.969, 265.378 161 C 265.326 135.152, 265.060 130.242, 263.231 121.340 C 260.751 109.264, 259.028 105.583, 254.847 103.421 C 251.930 101.912, 251.332 101.938, 245.614 103.817 C 242.251 104.923, 237.245 106.717, 234.489 107.805 L 229.477 109.783 230.688 98.141 C 232.602 79.747, 232.383 69.141, 230.011 65.250 C 227.442 61.036, 223.734 60.802, 222.116 64.750 M 161.500 77.057 C 159.300 77.512, 154.688 77.911, 151.250 77.942 L 145 78 145 83.019 C 145 87.989, 145.027 88.032, 147.750 87.373 C 149.262 87.007, 151.542 86.323, 152.815 85.854 C 154.088 85.384, 158.476 85, 162.565 85 L 170 85 170 80.500 C 170 75.494, 169.682 75.365, 161.500 77.057 M 94 82.902 C 93.175 83.365, 90.700 84.036, 88.500 84.393 C 84.473 85.047, 73.124 87.855, 63.074 90.685 C 60.089 91.526, 54.014 92.461, 49.574 92.764 C 36.741 93.641, 31.174 98.846, 37.635 103.927 C 40.526 106.202, 49.129 106.735, 56.250 105.081 C 58.454 104.570, 60 104.582, 60 105.112 C 60 106.424, 47.209 131.387, 42.636 139 C 37.975 146.760, 26.356 164.040, 17.421 176.500 C 8.519 188.915, 7.690 190.552, 9.037 193.069 C 11.302 197.302, 14.782 195.211, 25.795 183 C 31.499 176.675, 37.665 169.250, 39.496 166.500 C 41.327 163.750, 44.031 159.925, 45.505 158 L 48.184 154.500 47.545 173 C 47.193 183.175, 46.416 194.756, 45.818 198.735 C 44.640 206.572, 45.422 209, 49.122 209 C 50.534 209, 51 209.731, 51 211.943 C 51 215.245, 54.042 218, 57.688 218 C 58.921 218, 61.409 216.740, 63.215 215.201 C 66.243 212.621, 77.039 207.950, 83.020 206.632 C 86.175 205.937, 90 202.454, 90 200.275 C 90 199.370, 89.037 197.604, 87.861 196.352 C 85.752 194.108, 85.748 194.034, 87.591 191.287 C 92.654 183.742, 95.351 172.491, 95.334 158.988 C 95.319 146.924, 94.426 143.506, 89.854 138 C 87.946 135.702, 86.998 135.473, 78.139 135.169 C 69.169 134.860, 68.240 135.014, 64.750 137.388 L 61 139.940 61 135.662 C 61 132.453, 62.513 128.302, 67.052 119.059 C 70.380 112.281, 73.361 105.446, 73.676 103.870 C 74.142 101.539, 75.017 100.794, 78.374 99.868 C 100.125 93.870, 104.875 91.555, 104.968 86.905 C 105.044 83.114, 98.125 80.589, 94 82.902 M 157.306 97.565 C 145.743 100.636, 143 101.680, 143 103.010 C 143 103.722, 143.593 103.753, 144.801 103.106 C 145.792 102.576, 149.955 102.077, 154.051 101.998 C 164.495 101.796, 164.676 101.819, 166.429 103.571 C 167.857 105, 168 104.826, 168 101.653 C 168 99.734, 168.273 97.452, 168.607 96.582 C 169.397 94.524, 168.444 94.607, 157.306 97.565 M 141.638 119.205 C 141.305 123.217, 140.746 130.617, 140.395 135.650 L 139.758 144.800 147.129 142.984 C 159.097 140.036, 160.478 139.477, 160.850 137.428 C 161.042 136.368, 162.014 134.600, 163.010 133.500 C 165.077 131.218, 166.562 126.063, 167.548 117.750 L 168.230 112 165.365 112.011 C 163.789 112.017, 160.291 112.692, 157.591 113.511 C 151.276 115.427, 146.106 115.406, 143.950 113.455 C 142.360 112.016, 142.202 112.407, 141.638 119.205 M 67.250 148.740 L 61 149.095 60.942 168.798 C 60.898 184.102, 60.499 189.978, 59.156 195.123 L 57.428 201.746 61.964 199.789 C 64.459 198.712, 68.294 197.521, 70.487 197.140 C 74.111 196.512, 74.528 196.122, 75.057 192.864 C 75.378 190.892, 76.440 187.593, 77.417 185.533 C 80.107 179.866, 82.415 162.697, 81.560 154.715 L 80.841 148 77.170 148.193 C 75.152 148.299, 70.688 148.545, 67.250 148.740 M 158.039 158.961 C 150.818 166.182, 149.263 178.008, 154.096 188.945 C 158.169 198.163, 163.650 203, 170.022 203 C 176.313 203, 188 193.652, 188 188.620 C 188 186.095, 185.175 182.984, 182.921 183.028 C 182.140 183.043, 179.732 184.393, 177.572 186.028 C 172.195 190.096, 169.869 189.892, 167.184 185.114 C 164.654 180.613, 164.302 172.999, 166.199 163.816 C 167.307 158.452, 167.250 157.900, 165.449 156.537 C 162.703 154.461, 162.459 154.541, 158.039 158.961" stroke="none" fill="black" fill-rule="evenodd"/>
</svg>