<svg xmlns="http://www.w3.org/2000/svg" width="300" height="300" viewBox="0 0 300 300" version="1.1">
	<path d="M 181.500 43.727 C 168.974 44.949, 151.176 50.450, 145.912 54.726 C 144.584 55.805, 144.027 55.688, 142.507 54.008 C 138.915 50.039, 133 52.451, 133 57.886 C 133 59.627, 134.800 68.339, 137 77.246 C 139.200 86.154, 141 95.502, 141 98.021 C 141 100.539, 141.540 103.140, 142.200 103.800 C 144.142 105.742, 148.480 105.182, 150.826 102.686 C 152.642 100.753, 153 99.187, 153 93.186 C 153 87.138, 153.265 86, 154.671 86 C 155.590 86, 157.098 85.317, 158.021 84.481 C 159.753 82.913, 165.186 82.377, 175.329 82.773 L 181.159 83 180.455 86.250 C 180.068 88.037, 178.856 91.417, 177.761 93.759 C 176.667 96.101, 176.006 98.914, 176.292 100.009 C 176.719 101.641, 176.316 102, 174.063 102 C 169.993 102, 159.933 105.714, 157.298 108.190 C 154.760 110.574, 154.290 114.166, 156.297 115.832 C 157.011 116.424, 161.092 117.042, 165.366 117.204 L 173.137 117.500 166.140 123.250 C 162.292 126.412, 158.979 129, 158.778 129 C 158.577 129, 155.811 131.401, 152.633 134.336 C 147.832 138.768, 146.760 140.372, 146.298 143.814 C 145.906 146.739, 146.228 148.699, 147.394 150.479 C 148.902 152.780, 149.663 153, 156.106 153 C 159.990 153, 163.017 153.405, 162.833 153.901 C 162.650 154.397, 156.379 160.448, 148.899 167.350 C 133.679 181.390, 132 183.475, 132 188.328 C 132 194.820, 140.662 199.881, 149.352 198.466 C 157.020 197.218, 170.456 193.895, 175.882 191.904 C 178.841 190.818, 181.488 190.155, 181.763 190.430 C 182.038 190.705, 181.339 195.108, 180.209 200.215 C 175.396 221.981, 174.752 231.609, 176.594 254.282 C 178.423 276.793, 178.232 278.958, 174.480 278.241 C 171.381 277.648, 168 280.382, 168 283.481 C 168 285.762, 170.890 288.919, 174.855 290.967 C 178.575 292.888, 183.428 291.416, 187.078 287.258 L 190.309 283.578 189.716 255.039 C 189.389 239.343, 189.462 225.646, 189.876 224.601 C 190.535 222.944, 191.194 223.373, 195.065 227.974 C 197.504 230.873, 201.975 234.830, 205 236.768 C 208.025 238.705, 216.607 246.300, 224.072 253.645 C 235.365 264.757, 238.144 267, 240.622 267 C 246.252 267, 247.686 262.278, 243.929 256.114 C 240.076 249.796, 217.136 228.099, 208.238 222.359 C 203.555 219.338, 199.115 216.258, 198.371 215.514 C 197.627 214.770, 195.439 213.640, 193.509 213.003 L 190 211.845 190 199.469 L 190 187.094 194.250 185.172 C 205.273 180.189, 209.499 174.571, 205.171 170.655 C 202.922 168.619, 201.564 168.583, 198.154 170.466 C 194.665 172.393, 177.420 178, 174.981 178 C 173.933 178, 169.572 179.119, 165.288 180.487 C 161.005 181.855, 156.169 182.980, 154.542 182.987 L 151.584 183 156.042 178.384 C 162.108 172.104, 186.139 150.897, 188 150.182 C 192.918 148.293, 216 122.625, 216 119.045 C 216 116.815, 213.259 115.018, 211 115.768 C 209.112 116.395, 196.332 125.906, 188.755 132.324 C 183.100 137.113, 182.931 137.178, 177.952 136.493 L 172.894 135.798 184.224 124.499 C 195.399 113.355, 195.632 113.190, 201.183 112.496 C 210.804 111.294, 217.605 105.177, 213.682 101.254 C 212.270 99.841, 210.150 99.626, 200.058 99.867 L 188.106 100.154 190.553 95.082 C 191.899 92.292, 193.007 88.995, 193.015 87.755 C 193.043 83.655, 194.341 83.034, 205.396 81.827 C 217.085 80.550, 221 78.733, 221 74.582 C 221 73.333, 220.133 71.525, 219.073 70.566 C 217.374 69.029, 215.833 68.907, 206.073 69.540 L 195 70.257 195 63.271 L 195 56.285 201.147 55.642 C 208.998 54.822, 226.807 54.811, 230.875 55.625 C 232.594 55.969, 234 56.672, 234 57.187 C 234 58.122, 231.715 63.397, 225.703 76.342 C 222.798 82.596, 215.590 91, 213.131 91 C 211.666 91, 210.857 95.864, 211.975 97.953 C 213.858 101.472, 216.639 101.364, 222.956 97.527 C 230.273 93.082, 237.244 83.904, 242.984 71.156 C 246.244 63.914, 247 61.099, 247 56.196 C 247 50.343, 246.870 50.045, 242.820 46.578 L 238.640 43 212.070 43.168 C 197.457 43.261, 183.700 43.512, 181.500 43.727 M 168.500 59.536 C 163 60.838, 156.137 61.925, 153.250 61.952 C 147.129 62.008, 147.241 61.622, 149.918 73.500 C 151.094 78.717, 151.856 80.642, 152.110 79.034 C 152.903 74.020, 164.444 69, 175.182 69 C 180.924 69, 181 68.962, 181 66.125 C 181 64.544, 181.281 61.844, 181.625 60.125 C 182.391 56.294, 182.222 56.287, 168.500 59.536 M 97.500 88.930 C 93.650 89.904, 84.425 92.752, 77 95.259 C 62.123 100.283, 53.867 102.270, 51.557 101.383 C 49.806 100.711, 44 106.052, 44 108.334 C 44 111.237, 49.853 115.002, 54.327 114.976 C 58.489 114.953, 68.792 112.500, 76.642 109.662 L 80.783 108.165 72.973 118.474 C 68.678 124.144, 64.433 130.069, 63.539 131.641 C 61.480 135.265, 57.149 141.280, 56.100 141.972 C 55.659 142.262, 54.127 144.300, 52.694 146.500 C 48.950 152.248, 32.985 173.752, 29.309 178 C 20.675 187.976, 18.237 194.726, 22.657 196.422 C 26.771 198, 30.051 195.112, 46.371 175.541 C 49.600 171.668, 52.532 168.275, 52.887 168 C 53.242 167.725, 54.762 166.003, 56.266 164.173 L 59 160.847 59 186.201 C 59 207.333, 59.255 211.918, 60.529 213.738 C 61.485 215.102, 61.818 216.876, 61.419 218.468 C 60.484 222.190, 63.289 226, 66.964 226 C 68.569 226, 70.134 225.593, 70.441 225.095 C 71.497 223.387, 81.877 218.054, 91.184 214.438 C 100.063 210.988, 104 208.256, 104 205.542 C 104 203.914, 100.572 200, 99.146 200 C 98.531 200, 99.360 197.637, 100.990 194.750 C 105.923 186.008, 106.793 183.498, 108.563 172.916 C 110.692 160.182, 110.161 147.412, 107.225 140.775 C 105 135.746, 101.118 133, 96.232 133 C 93.514 133, 81.510 135.911, 77.750 137.483 C 74.506 138.838, 75.897 135.659, 81.679 128.500 C 91.469 116.379, 95.227 109.947, 94.649 106.300 C 94.155 103.181, 94.275 103.062, 99.434 101.562 C 102.344 100.716, 106.024 99.346, 107.612 98.518 C 109.201 97.690, 111.052 97.010, 111.727 97.006 C 112.402 97.003, 113.691 95.875, 114.592 94.500 C 116.109 92.184, 116.109 91.816, 114.592 89.500 C 112.581 86.431, 107.986 86.278, 97.500 88.930 M 203.456 145.687 C 201.219 147.923, 202.137 156.241, 205.404 163.357 C 206.703 166.186, 208.925 171.102, 210.342 174.282 C 211.759 177.462, 214.604 182.121, 216.664 184.635 C 222.146 191.325, 226.916 192.567, 229.744 188.039 C 231.024 185.988, 230.143 182.496, 227.463 179 C 226.831 178.175, 223.512 170.975, 220.089 163 C 216.665 155.025, 212.916 147.488, 211.758 146.250 C 209.259 143.580, 205.797 143.346, 203.456 145.687 M 88.214 148.534 C 84.757 149.160, 81.404 150.196, 80.764 150.836 C 79.253 152.347, 75.728 152.328, 74.200 150.800 C 73.267 149.867, 72.973 151.033, 72.880 156.050 C 72.814 159.597, 72.477 172.513, 72.130 184.752 C 71.784 196.990, 71.788 207.002, 72.141 207.002 C 72.493 207.001, 74.743 206.110, 77.141 205.022 C 79.538 203.934, 82.934 203.034, 84.687 203.022 C 87.738 203.001, 87.851 202.858, 87.333 199.664 C 86.969 197.420, 87.447 195.045, 88.795 192.402 C 93.610 182.963, 95.076 175.253, 94.780 160.921 L 94.500 147.396 88.214 148.534 M 154.500 222.341 C 150.045 224.921, 143.037 229.504, 141.500 230.843 C 139.215 232.833, 131 243.488, 131 244.462 C 131 245.549, 123.727 260.440, 121.345 264.230 C 118.299 269.076, 118.325 272.512, 121.424 274.542 C 126.415 277.812, 131.742 272.647, 141.064 255.500 C 145.141 248, 148.687 243.226, 155.250 236.402 C 164.065 227.237, 165.648 224.048, 162.800 221.200 C 161.051 219.451, 159.003 219.733, 154.500 222.341" stroke="none" fill="black" fill-rule="evenodd"/>
</svg>