<svg xmlns="http://www.w3.org/2000/svg" width="300" height="300" viewBox="0 0 300 300" version="1.1">
	<path d="M 120.728 11.415 C 119.950 12.193, 118.692 14.330, 117.932 16.165 C 117.173 17.999, 115.077 21.949, 113.276 24.941 C 111.474 27.934, 110 31.221, 110 32.245 C 110 34.415, 100.892 53.447, 98.278 56.739 C 96.844 58.544, 94.599 59.263, 86.687 60.449 C 75.720 62.093, 69.438 64.925, 67.038 69.306 C 65.610 71.913, 65.638 72.216, 67.441 73.556 C 68.708 74.498, 71.862 75, 76.518 75 L 83.654 75 83.233 77.868 C 82.433 83.316, 89.502 93.347, 98.516 99.556 C 102.031 101.976, 103.685 103.726, 103.219 104.532 C 101.026 108.323, 89.114 116.631, 80.951 120.063 C 73.056 123.382, 70 125.740, 70 128.511 C 70 131.050, 73.316 134, 76.171 134 C 77.120 134, 81.407 132.885, 85.698 131.523 C 93.224 129.133, 104.730 122.261, 112.949 115.248 L 116.398 112.304 124.591 117.645 C 139.699 127.493, 148.345 129.184, 153.052 123.213 C 154.686 121.139, 155.070 119.598, 154.680 116.672 C 153.795 110.039, 148.996 107.112, 144.059 110.195 C 142.421 111.218, 141.122 110.710, 135.027 106.656 C 131.111 104.053, 127.683 101.338, 127.409 100.623 C 127.134 99.908, 128.955 95.988, 131.454 91.911 C 133.953 87.835, 137.984 80.365, 140.412 75.312 C 144.695 66.397, 144.955 66.091, 149.163 65.019 C 158.565 62.624, 166.590 59.919, 168.375 58.542 C 170.631 56.803, 170.827 52.398, 168.741 50.312 C 167 48.571, 164.719 48.413, 156.828 49.486 L 151.155 50.257 152.734 45.868 C 155.524 38.108, 152.184 30, 146.197 30 C 143.972 30, 143.153 30.736, 141.736 34.007 C 140.781 36.211, 140 38.456, 140 38.996 C 140 40.622, 134.837 52.997, 134.144 53.035 C 133.790 53.055, 129.305 53.663, 124.179 54.388 L 114.857 55.705 115.508 53.113 C 115.866 51.686, 119.273 43.973, 123.079 35.971 C 127.784 26.082, 130 20.234, 130 17.711 C 130 11.620, 124.356 7.787, 120.728 11.415 M 225.500 38.855 C 221.100 40.459, 213.225 43.468, 208 45.544 C 199.956 48.739, 197.259 49.336, 190.402 49.435 C 181.115 49.570, 178.981 50.835, 179.032 56.179 C 179.092 62.491, 180.850 63.500, 191.793 63.500 C 200.745 63.500, 202.356 63.177, 212.500 59.348 C 230.322 52.620, 230.385 52.624, 224.250 60.117 C 222.188 62.636, 216.675 69.692, 212 75.797 C 207.325 81.903, 203.173 86.921, 202.774 86.949 C 202.374 86.977, 199.467 84.540, 196.313 81.534 C 193.159 78.528, 189.211 75.512, 187.540 74.831 C 185.868 74.151, 182.745 72.335, 180.600 70.797 C 178.455 69.259, 175.487 68, 174.005 68 C 171.213 68, 168 70.667, 168 72.985 C 168 73.715, 171.916 78.177, 176.703 82.899 C 181.490 87.622, 187.198 93.429, 189.387 95.804 L 193.367 100.122 187.648 105.487 C 181.363 111.384, 172.891 117.303, 169.004 118.514 C 165.826 119.503, 164.072 121.808, 164.032 125.050 C 163.985 128.773, 165.789 130, 171.305 130 C 179.113 130, 188.075 124.673, 201.014 112.342 L 205.528 108.040 210.014 111.016 C 218.905 116.916, 233.632 120.209, 237.346 117.128 C 239.515 115.328, 239.461 110.701, 237.250 108.828 C 236.287 108.012, 233.494 106.771, 231.042 106.070 C 226.469 104.762, 215.997 98.628, 216.004 97.262 C 216.011 96.108, 220.749 89.335, 228.122 79.939 C 242.563 61.537, 247.870 50.943, 246.044 44.163 C 243.861 36.057, 237.611 34.443, 225.500 38.855 M 125 69.599 C 124.175 69.726, 118.855 70.373, 113.177 71.037 C 104.148 72.093, 102.551 72.572, 100.427 74.862 C 99.092 76.302, 98 77.838, 98 78.277 C 98 79.567, 106.646 87.594, 110.457 89.842 L 113.965 91.912 117.013 87.481 C 120.303 82.699, 127.298 69.901, 126.803 69.570 C 126.636 69.459, 125.825 69.472, 125 69.599 M 221.522 147.691 C 219.168 148.965, 213.513 149.480, 194.522 150.151 C 181.310 150.617, 164.634 151.665, 157.464 152.480 C 150.295 153.295, 136.795 154.421, 127.464 154.983 C 106.365 156.254, 89.734 157.819, 84.500 159.028 C 82.300 159.536, 77.757 159.962, 74.405 159.976 C 69.792 159.994, 67.908 160.445, 66.655 161.829 C 64.496 164.214, 64.543 168.291, 66.750 170.217 C 71.190 174.089, 72.548 174.238, 87.841 172.531 C 101.317 171.026, 133.248 168.172, 133.688 168.432 C 133.974 168.601, 122.932 182.180, 119.342 186.074 C 117.605 187.958, 113.757 192.650, 110.792 196.500 C 102.604 207.132, 90.505 219.852, 68.301 241.171 C 56.953 252.066, 55 254.560, 55 258.160 C 55 263.275, 62.605 264.386, 67.424 259.974 C 68.566 258.929, 73.233 255.098, 77.796 251.460 C 82.360 247.822, 91.349 239.705, 97.773 233.423 C 104.197 227.140, 109.576 222, 109.726 222 C 109.877 222, 110 233.748, 110 248.106 L 110 274.211 107.500 277.182 C 104.343 280.934, 104.175 285.947, 107.116 288.595 C 109.060 290.345, 110.875 290.490, 129.366 290.377 C 151.612 290.241, 165.648 288.611, 181 284.378 C 186.225 282.937, 192.956 281.342, 195.957 280.833 C 205.561 279.204, 213.117 272.511, 217.130 262.079 C 219.553 255.781, 221.862 236.044, 221.946 220.898 C 221.993 212.527, 221.709 210.860, 219.730 207.898 C 215.508 201.578, 212.559 200.799, 195 201.363 C 186.475 201.638, 173.425 202.812, 166 203.974 C 158.575 205.136, 146.200 206.471, 138.500 206.942 C 130.800 207.413, 123.392 208.146, 122.039 208.571 C 120.013 209.207, 120.717 207.941, 126.012 201.422 C 129.552 197.065, 134.529 191.236, 137.072 188.470 C 141.773 183.357, 145.459 178.018, 149.070 171.090 C 151.631 166.178, 151.498 166.199, 188.029 164.965 C 212.239 164.148, 217.853 163.672, 223.369 161.968 C 232.923 159.017, 235.584 154.080, 230.548 148.646 C 227.744 145.620, 225.741 145.409, 221.522 147.691 M 193 216.657 C 190.525 216.827, 182.650 217.645, 175.500 218.476 C 154.830 220.879, 141.253 222, 132.826 222 L 125 222 125 248.500 L 125 275 134.256 275 C 148.213 275, 170.366 272.149, 191.384 267.648 C 195.104 266.852, 197.911 265.594, 199.018 264.226 C 201.341 261.358, 203.720 250.914, 204.992 238 C 207.215 215.437, 207.236 217.297, 204.745 216.629 C 203.510 216.298, 201.375 216.100, 200 216.188 C 198.625 216.277, 195.475 216.488, 193 216.657" stroke="none" fill="black" fill-rule="evenodd"/>
</svg>