<svg xmlns="http://www.w3.org/2000/svg" width="300" height="300" viewBox="0 0 300 300" version="1.1">
	<path d="M 232.918 16.460 C 228.173 18.207, 211 28.863, 211 30.061 C 211 30.577, 210.479 31, 209.841 31 C 209.204 31, 204.591 33.639, 199.591 36.864 C 194.591 40.090, 186.900 44.566, 182.500 46.811 C 174.660 50.812, 157.264 57, 153.858 57 C 152.910 57, 151.849 57.900, 151.500 59 C 151.151 60.100, 150.446 61, 149.933 61 C 149.420 61, 149 62.157, 149 63.571 C 149 66.248, 151.027 69, 153 69 C 153.651 69, 153.430 69.712, 152.488 70.655 C 150.596 72.547, 150.767 77.044, 153.264 91 C 154.101 95.675, 155.099 103.149, 155.484 107.609 C 156.146 115.284, 156.071 115.748, 154.097 116.264 C 152.949 116.565, 151.703 117.640, 151.328 118.655 C 150.953 119.670, 150.163 120.872, 149.573 121.326 C 148.827 121.900, 148.882 122.307, 149.750 122.659 C 150.438 122.938, 151 124.050, 151 125.130 C 151 126.240, 152.242 127.806, 153.858 128.733 C 156.659 130.341, 156.729 130.594, 157.354 141.437 C 157.705 147.522, 157.709 168.700, 157.364 188.500 C 156.910 214.462, 157.058 225.672, 157.894 228.705 C 159.176 233.355, 163.395 239, 165.589 239 C 166.365 239, 167 239.450, 167 240 C 167 240.550, 167.900 241, 169 241 C 170.100 241, 171 240.599, 171 240.108 C 171 239.618, 172.012 238.955, 173.250 238.635 C 175.751 237.989, 179.517 234.484, 184.019 228.612 C 190.897 219.643, 184.504 210.498, 176.225 217.464 L 173.298 219.927 172.570 175.322 C 171.989 139.748, 172.099 130.557, 173.110 129.932 C 175.078 128.716, 189.357 127.833, 201.406 128.183 L 212.311 128.500 215.102 140 C 222.127 168.948, 227.410 188.863, 229.030 192.500 C 230.101 194.904, 235.175 212.752, 237.558 222.500 C 238.499 226.350, 239.590 229.725, 239.981 230 C 240.372 230.275, 240.966 232.548, 241.300 235.052 C 242.088 240.955, 249.124 258.153, 253.266 264.299 C 258.559 272.154, 266.586 274.567, 272.771 270.163 C 276.403 267.577, 282.479 255.739, 283.504 249.250 C 284.622 242.177, 283.332 237.380, 279.933 235.972 C 276.243 234.444, 272.581 236.509, 271.562 240.693 C 270.247 246.101, 266.740 254.957, 266.077 254.547 C 263.649 253.047, 253.020 226.271, 252.994 221.589 C 252.990 220.990, 252.310 219.200, 251.481 217.611 C 250.652 216.021, 248.646 209.721, 247.022 203.611 C 245.398 197.500, 243.384 190.250, 242.546 187.500 C 241.707 184.750, 241.017 181.300, 241.011 179.833 C 241.005 178.367, 240.631 177.017, 240.180 176.833 C 239.729 176.650, 237.740 170.200, 235.759 162.500 C 233.778 154.800, 230.945 143.834, 229.462 138.131 C 227.413 130.250, 227.058 127.582, 227.984 127.010 C 228.653 126.596, 232.534 125.956, 236.607 125.587 C 240.680 125.217, 249.297 124.044, 255.756 122.978 C 262.215 121.913, 268.734 121.032, 270.242 121.021 C 273.683 120.995, 278 117.341, 278 114.455 C 278 110.789, 274.472 107.331, 270.003 106.616 C 265.589 105.911, 242.814 107.803, 242 108.943 C 241.725 109.328, 237.319 110.065, 232.209 110.581 L 222.917 111.519 222.381 109.010 C 222.086 107.629, 221.427 105.600, 220.916 104.500 C 219.616 101.699, 211 60.281, 211 56.832 C 211 55.274, 210.550 54, 210 54 C 208.226 54, 208.998 51.546, 211.281 49.929 C 223.282 41.433, 228.677 38.088, 235.647 34.820 C 240.128 32.719, 244.516 31, 245.397 31 C 246.279 31, 247 30.580, 247 30.067 C 247 29.554, 248.012 28.828, 249.250 28.452 C 256.027 26.397, 258.306 19.244, 253.050 16.526 C 249.408 14.642, 237.955 14.605, 232.918 16.460 M 108.500 17.941 C 106.300 19.067, 102.880 21.453, 100.901 23.244 C 98.921 25.035, 96.221 27.408, 94.901 28.518 C 91.105 31.710, 72.029 43.315, 66.250 45.949 C 63.362 47.265, 61 48.603, 61 48.921 C 61 49.240, 58.254 50.378, 54.899 51.450 C 47.288 53.882, 43.365 58.200, 44.959 62.392 C 46.520 66.499, 49.917 67.241, 58.772 65.412 C 62.984 64.542, 68.401 63.161, 70.810 62.343 C 73.219 61.525, 75.352 61.018, 75.549 61.216 C 75.747 61.414, 75.510 64.484, 75.023 68.038 C 74.535 71.592, 74.487 78.550, 74.916 83.500 C 75.344 88.450, 75.426 92.798, 75.098 93.162 C 74.769 93.526, 69.395 96.779, 63.156 100.391 C 49.619 108.228, 39.407 115.370, 38.013 117.975 C 35.496 122.679, 38.509 127, 44.306 127 C 47.281 127, 62.067 121.498, 62.979 120.051 C 63.266 119.597, 66.471 117.594, 70.102 115.602 L 76.705 111.979 77.352 119.640 C 77.709 123.854, 78 129.715, 78 132.664 C 78 135.614, 78.521 138.861, 79.158 139.881 C 80.579 142.157, 79.632 145, 77.453 145 C 76.567 145, 74.078 146.730, 71.921 148.844 C 69.018 151.690, 68 153.498, 68 155.809 C 68 157.526, 67.325 161.083, 66.501 163.715 C 62.349 176.968, 60.501 182, 59.786 182 C 59.354 182, 59 182.681, 59 183.514 C 59 184.346, 54.520 193.909, 49.044 204.764 C 43.568 215.619, 38.555 225.982, 37.905 227.793 C 37.254 229.605, 35.434 232.465, 33.861 234.149 C 31.760 236.398, 31 238.214, 31 240.983 C 31 245.842, 32.899 247.411, 37.958 246.732 C 44.931 245.797, 49.018 241.819, 54.538 230.592 C 57.267 225.042, 59.837 220.350, 60.250 220.167 C 60.663 219.983, 61 219.248, 61 218.532 C 61 217.816, 65.275 208.813, 70.500 198.526 C 75.725 188.239, 80.075 179.075, 80.168 178.161 C 80.700 172.888, 81.770 201.249, 81.860 223 C 81.967 248.997, 80.921 265.479, 79.046 267.354 C 78.471 267.929, 78 269.122, 78 270.004 C 78 270.887, 76.625 273.776, 74.945 276.425 C 71.369 282.064, 71.401 285.486, 75.055 288.201 C 77.076 289.702, 78.152 289.893, 80.207 289.111 C 83.149 287.993, 88 283.137, 88 281.310 C 88 280.644, 88.589 279.740, 89.309 279.300 C 90.029 278.860, 91.653 275.350, 92.919 271.500 C 95.970 262.216, 97.376 237.434, 96.596 206.654 L 96.018 183.809 99.709 187.050 C 101.739 188.832, 107.837 193.160, 113.260 196.668 C 119.342 200.602, 123.767 204.224, 124.810 206.121 C 129.264 214.226, 132.816 215.918, 137.900 212.358 C 139.989 210.894, 140.181 210.174, 139.657 205.755 C 138.647 197.225, 131.010 186.945, 122.382 182.500 C 120.247 181.400, 118.050 180.169, 117.500 179.765 C 112.574 176.145, 109.553 173.139, 106.385 168.705 C 104.340 165.842, 100.921 161.663, 98.789 159.417 L 94.911 155.334 93.984 136.917 C 93.473 126.788, 92.817 114.900, 92.525 110.500 L 91.993 102.500 99.394 96.750 C 103.464 93.588, 106.987 91, 107.224 91 C 107.460 91, 109.863 88.972, 112.563 86.492 C 115.264 84.013, 118.218 81.748, 119.129 81.459 C 121.880 80.586, 123.456 75.515, 122.039 72.095 C 119.832 66.765, 115.983 67.220, 106.013 73.991 C 102.766 76.196, 99.812 78, 99.449 78 C 99.085 78, 97.036 79.388, 94.894 81.084 C 91.268 83.956, 91 84.025, 91 82.084 C 91 80.938, 90.622 80, 90.161 80 C 89.315 80, 87.219 67.073, 86.807 59.313 C 86.587 55.176, 86.669 55.068, 93.542 50.403 C 97.369 47.806, 103.214 43.543, 106.531 40.929 C 112.060 36.572, 114.716 35.082, 122.118 32.187 C 126.347 30.533, 126.497 25.085, 122.464 19.624 C 119.673 15.846, 113.943 15.155, 108.500 17.941 M 195.030 59.750 C 195.014 60.438, 194.388 61, 193.639 61 C 192.891 61, 187.603 62.539, 181.889 64.420 C 176.175 66.301, 169.363 68.152, 166.750 68.533 C 161.802 69.256, 161.037 70.259, 163.403 72.921 C 165.822 75.645, 168.006 84.991, 169.614 99.499 C 170.467 107.199, 171.265 113.598, 171.387 113.720 C 171.657 113.990, 207.412 111.918, 207.717 111.615 C 208.145 111.189, 199.873 72.466, 199.014 70.873 C 198.532 69.978, 197.823 67.503, 197.440 65.373 C 196.707 61.299, 195.085 57.513, 195.030 59.750 M 208.500 257.176 C 206.850 257.777, 205.050 258.613, 204.500 259.035 C 203.145 260.073, 186.367 263.642, 174.322 265.455 C 151.451 268.896, 141.027 271.714, 138.332 275.184 C 135.968 278.228, 136.082 280.060, 138.824 283.129 C 141.259 285.854, 142.234 286.231, 146.859 286.231 C 153.063 286.231, 177.350 281.979, 177.833 280.808 C 178.017 280.364, 179.206 280, 180.477 280 C 184.566 280, 205.318 274.280, 211.286 271.508 C 219.429 267.726, 221.637 263.501, 218.209 258.265 C 217.039 256.477, 211.978 255.910, 208.500 257.176" stroke="none" fill="black" fill-rule="evenodd"/>
</svg>