<svg xmlns="http://www.w3.org/2000/svg" width="300" height="300" viewBox="0 0 300 300" version="1.1">
	<path d="M 230.189 41.039 C 226.757 44.236, 227.317 48.258, 231.682 51.759 C 234.893 54.336, 235.440 55.412, 235.966 60.193 L 236.570 65.674 222.535 67.800 C 214.816 68.969, 206.085 70.190, 203.133 70.513 C 195.735 71.322, 189.150 74.553, 188.343 77.769 C 187.049 82.927, 191.903 86.326, 198.750 85.056 C 203.362 84.201, 203.697 84.495, 201.468 87.441 C 197.661 92.474, 202.132 111.413, 208.734 118.216 C 212.717 122.321, 212.542 122.552, 204.881 123.284 C 202.340 123.526, 197.749 124.954, 194.677 126.457 C 190.321 128.588, 188.856 129.905, 188.019 132.442 C 186.428 137.263, 187.570 139.331, 191.393 138.551 C 193.102 138.202, 197.425 137.520, 201 137.034 C 204.575 136.549, 211.754 135.217, 216.953 134.076 C 222.152 132.934, 226.509 132, 226.633 132 C 226.758 132, 226.442 133.460, 225.930 135.243 C 225.419 137.027, 225 143.027, 225 148.576 L 225 158.664 221.750 159.743 C 218.106 160.952, 211.279 163.653, 202.846 167.223 C 194.958 170.562, 190 174.534, 190 177.516 C 190 183.580, 200.564 183.350, 214.820 176.974 C 219.946 174.682, 224.287 172.963, 224.467 173.153 C 224.647 173.344, 225.309 189.700, 225.938 209.500 C 228.084 277.037, 228.191 279.048, 229.722 280.579 C 232.038 282.895, 235.758 282.299, 237.727 279.297 C 239.842 276.073, 239.942 268.457, 238.664 207.838 L 237.829 168.175 241.664 166.488 C 256.583 159.926, 262 156.325, 262 152.968 C 262 150.849, 258.779 147.912, 256.362 147.827 C 255.338 147.791, 250.774 149.145, 246.220 150.836 L 237.941 153.910 238.081 142.705 C 238.158 136.542, 238.059 130.930, 237.860 130.234 C 237.630 129.423, 240.920 127.757, 247 125.604 C 256.766 122.146, 259.250 121.179, 267 117.824 C 274.080 114.760, 274.482 114.448, 274.804 111.775 C 275.295 107.710, 272.433 105.669, 267.241 106.380 C 263.618 106.877, 250.433 110.879, 243.914 113.460 C 242.840 113.885, 243.826 111.045, 246.967 104.669 C 251.012 96.455, 252.513 92.281, 254.577 83.500 C 255.279 80.513, 253.556 78.667, 250.067 78.667 C 245.270 78.667, 241.555 82.990, 238.065 92.633 C 234.485 102.529, 230.681 110.253, 227.306 114.483 L 224.853 117.557 220.949 113.953 C 217.565 110.829, 216.711 109.091, 214.529 100.895 C 213.145 95.696, 212.123 89.587, 212.257 87.321 L 212.500 83.200 223 81.575 C 257.878 76.176, 265.295 74.461, 265.828 71.671 C 267.053 65.260, 262.175 62.323, 252.589 63.701 L 246.269 64.610 247.200 61.240 C 249.102 54.350, 244.882 44.001, 238.934 40.967 C 234.091 38.495, 232.908 38.505, 230.189 41.039 M 148 52.002 C 141.504 53.047, 134.422 53.608, 131.725 53.293 C 127.994 52.858, 126.518 53.127, 124.975 54.523 C 122.338 56.909, 122.434 61.768, 125.174 64.686 C 126.370 65.958, 126.836 67, 126.209 67 C 123.350 67, 122.669 71.760, 122.490 92.991 C 122.252 121.120, 119.081 139.564, 109.507 168.500 C 104.121 184.777, 103.636 185.970, 94.569 205.281 C 88.908 217.335, 87.147 223.420, 88.632 225.792 C 90.123 228.173, 94.769 228.519, 97.087 226.421 C 99.706 224.051, 118.369 186.633, 120.553 179.375 C 121.525 176.144, 122.869 171.475, 123.541 169 L 124.763 164.500 125.631 169.500 C 126.553 174.804, 126.837 216.775, 125.997 223.448 C 125.717 225.677, 124.520 228.379, 123.250 229.653 C 120.722 232.188, 120.401 235.295, 122.250 239.329 C 123.614 242.305, 127.300 243.819, 129.263 242.209 C 131.284 240.553, 138.870 238.856, 148.143 237.987 C 152.925 237.538, 158.561 236.424, 160.669 235.511 C 173.036 230.154, 177 227.108, 177 222.961 C 177 221.363, 176.285 219.699, 175.381 219.193 C 173.890 218.359, 173.893 217.761, 175.424 211.657 C 176.693 206.594, 177.088 200.345, 177.093 185.210 C 177.097 174.310, 176.666 164.251, 176.136 162.857 C 175.606 161.463, 173.749 159.125, 172.009 157.661 C 169.133 155.241, 168.084 155, 160.434 155 C 154.443 155, 150.507 155.576, 146.761 156.999 C 140.128 159.520, 140 159.511, 140 156.516 C 140 155.149, 138.702 152.579, 137.115 150.803 C 134.445 147.815, 134.026 147.667, 131.495 148.820 C 129.118 149.904, 128.839 149.862, 129.359 148.506 C 130.172 146.388, 133.671 128.685, 134.499 122.500 C 135.535 114.756, 135.846 114.199, 139.798 113.004 C 150.198 109.857, 171.019 99.618, 174.601 95.889 C 176.526 93.884, 176.954 92.664, 176.443 90.630 C 175.207 85.705, 171.114 86.089, 156.500 92.501 C 150.645 95.070, 141.458 98.593, 138.250 99.499 C 136.031 100.126, 136 100.005, 136 90.717 C 136 80.804, 135.069 76.747, 131.478 71 L 129.291 67.500 133.895 67.488 C 136.428 67.482, 144.800 66.648, 152.501 65.636 C 172.651 62.987, 172.552 62.937, 164.571 71.783 C 157.883 79.195, 156.816 81.773, 159.508 84.007 C 162.569 86.547, 167.696 84.452, 175.488 77.478 C 187.791 66.467, 190.723 58.728, 184.828 52.825 C 182.691 50.685, 181.589 50.486, 171.003 50.327 C 163.805 50.219, 155.196 50.846, 148 52.002 M 82 102.087 C 77.875 102.530, 67.231 103.308, 58.346 103.818 C 39.216 104.914, 34.705 106.385, 34.191 111.691 C 33.976 113.907, 34.532 115.532, 36.011 117.011 C 37.984 118.984, 38.790 119.088, 47.070 118.441 L 56.002 117.742 53.852 122.621 C 49.224 133.122, 44.639 141.020, 36.215 153 C 18.451 178.261, 8 194.166, 8 195.941 C 8 196.903, 8.865 198.473, 9.922 199.429 C 13.271 202.460, 17.392 199.372, 28 185.880 L 37.500 173.797 38.188 179.649 C 38.567 182.867, 39.198 195.944, 39.590 208.708 L 40.303 231.916 43.076 234.572 C 46.971 238.305, 53.109 238.851, 60.418 236.117 C 63.529 234.952, 67.408 234, 69.038 234 C 72.066 234, 76 231.018, 76 228.723 C 76 228.020, 75.322 226.476, 74.492 225.292 C 73.058 223.244, 72.449 223.168, 61.931 223.723 L 50.877 224.306 51.532 200.403 C 52.180 176.773, 52.215 176.475, 54.610 174.284 C 56.784 172.296, 65.485 169, 68.560 169 C 70.131 169, 71.480 196.621, 70.509 208.891 C 69.629 220.010, 70.464 222, 76.010 222 C 79.401 222, 80.171 221.570, 81.548 218.907 C 83.966 214.232, 85.273 198.300, 84.648 181.116 C 84.136 167.021, 83.886 165.426, 81.667 162.074 C 80.269 159.961, 77.486 157.621, 75.080 156.536 C 70.924 154.662, 70.892 154.664, 60.707 157.251 C 55.093 158.678, 50.123 159.480, 49.662 159.034 C 49.201 158.588, 50.037 156.390, 51.520 154.150 C 55.013 148.870, 56.478 146.166, 64.406 130.358 C 68.031 123.129, 71.709 116.942, 72.580 116.608 C 73.451 116.273, 76.216 116, 78.724 116 C 83.423 116, 96.534 112.578, 98.750 110.773 C 100.816 109.091, 100.247 104.286, 97.777 102.557 C 95.397 100.889, 93.656 100.837, 82 102.087 M 147.756 171.360 L 141.012 173.500 141.006 191.540 C 141 208.377, 140.220 215.141, 137.464 222.250 C 136.864 223.799, 137.483 224, 142.844 224 C 146.176 224, 151.108 223.527, 153.805 222.948 L 158.709 221.897 160.313 213.698 C 162.629 201.863, 163.208 192.588, 162.414 180.042 L 161.715 169 158.108 169.110 C 156.123 169.170, 151.465 170.182, 147.756 171.360" stroke="none" fill="black" fill-rule="evenodd"/>
</svg>