<svg xmlns="http://www.w3.org/2000/svg" width="300" height="300" viewBox="0 0 300 300" version="1.1">
	<path d="M 110.967 29.250 C 109.318 31.007, 108.989 32.267, 109.463 35 C 110.600 41.560, 111.850 66.460, 111.925 84.059 C 111.984 97.862, 112.314 102.033, 113.468 103.559 C 115.350 106.047, 115.367 107, 113.530 107 C 112.721 107, 109.600 108.125, 106.594 109.500 C 103.588 110.875, 100.537 112.003, 99.814 112.006 C 99.091 112.010, 97.196 112.693, 95.601 113.524 C 94.007 114.355, 92.578 114.912, 92.426 114.760 C 92.274 114.608, 92.784 111.787, 93.559 108.492 C 98.186 88.820, 90.687 62, 80.560 62 C 78.313 62, 77.918 64.888, 79.211 71.859 C 79.889 75.511, 80.456 85.925, 80.472 95 C 80.497 109.535, 80.262 111.976, 78.500 115.500 C 76.932 118.635, 75.611 119.781, 72.387 120.802 C 62.488 123.936, 64.633 135, 75.139 135 C 79.440 135, 99.394 128.860, 101.450 126.904 C 101.972 126.407, 102.970 126, 103.667 126 C 105.257 126, 123.727 116.957, 130.788 112.721 C 136.291 109.420, 137.703 106.937, 136.593 102.515 C 135.666 98.822, 131.726 98.224, 126.751 101.020 L 122.687 103.304 123.330 100.902 C 123.683 99.581, 123.979 93.213, 123.986 86.750 C 123.999 76.236, 124.184 74.999, 125.750 74.987 C 127.762 74.972, 138.233 71.779, 142.140 69.989 C 144.691 68.820, 147 65.304, 147 62.588 C 147 60.433, 142.996 56, 141.050 56 C 140.057 56, 138.695 56.663, 138.022 57.474 C 137.349 58.284, 135.157 59.219, 133.150 59.551 C 131.142 59.883, 128.330 60.523, 126.899 60.973 L 124.299 61.792 123.627 49.146 C 122.828 34.084, 122.400 31.807, 119.860 29.080 C 117.330 26.364, 113.607 26.436, 110.967 29.250 M 177.688 30.588 C 174.738 33.324, 170.755 41.406, 168.937 48.345 C 165.602 61.077, 164.834 63, 163.084 63 C 160.577 63, 157.750 66.462, 157.750 69.532 C 157.750 70.973, 158.918 73.349, 160.375 74.870 C 162.643 77.237, 163.005 78.487, 163.035 84.055 C 163.109 97.535, 166.750 107.061, 174.395 113.774 C 179.328 118.105, 182.461 119.597, 189.555 120.992 C 197.857 122.626, 209.859 120.206, 223 114.248 C 233.857 109.326, 238.365 104.419, 236.032 100.061 C 233.889 96.056, 231.751 95.882, 224.904 99.158 C 211.821 105.417, 195.281 108.541, 188.794 105.978 C 184.747 104.379, 181.253 101.350, 179.444 97.876 C 177.587 94.306, 175.742 82.220, 176.464 78.352 C 177.012 75.418, 177.440 75.136, 182.776 74.186 C 190.286 72.850, 202.238 67.728, 216.047 59.929 C 227.578 53.416, 229.750 51.124, 228.628 46.653 C 227.613 42.611, 223.583 42.428, 214.944 46.033 C 210.850 47.742, 206.344 49.503, 204.932 49.948 C 203.519 50.392, 201.494 51.261, 200.432 51.877 C 197.702 53.461, 182.803 59, 181.273 59 C 179.587 59, 179.546 59.235, 183.088 48.691 C 184.786 43.636, 187.079 38.526, 188.182 37.335 C 190.879 34.426, 189.767 31.219, 185.436 29.409 C 181.015 27.562, 180.940 27.573, 177.688 30.588 M 175 140.025 C 169.775 141.597, 164.203 142.909, 162.617 142.941 C 161.032 142.974, 152.482 144.785, 143.617 146.966 C 127.726 150.876, 114.975 152.297, 110.330 150.674 C 108.662 150.091, 107.562 150.560, 105.580 152.698 C 102.341 156.190, 102.301 159.392, 105.455 162.545 C 107.673 164.764, 108.721 165, 116.351 165 C 124.581 165, 141.458 161.999, 152.500 158.573 C 155.250 157.720, 158.653 157.017, 160.062 157.011 C 163.933 156.994, 177.747 153.170, 182.272 150.861 C 190.183 146.825, 193.217 141.404, 189.250 138.392 C 186.903 136.610, 186.009 136.713, 175 140.025 M 192 169.097 C 186.225 169.534, 179.700 170.401, 177.500 171.024 C 175.300 171.647, 170.800 172.741, 167.500 173.456 C 164.200 174.170, 159.475 175.417, 157 176.227 C 154.525 177.036, 149.125 178.651, 145 179.815 C 140.875 180.979, 133.675 183.017, 129 184.346 C 119.077 187.165, 98.919 191.040, 94.297 191.016 C 92.535 191.007, 89.926 191.532, 88.497 192.183 C 84.872 193.835, 85.305 198.916, 89.229 200.788 C 97.229 204.603, 110.936 203.126, 138.500 195.478 C 149.814 192.339, 148.997 192.210, 149.020 197.133 C 149.044 202.381, 151.500 223.511, 152.899 230.500 C 154.511 238.556, 156.279 266.608, 155.545 272.485 C 155.042 276.516, 154.517 277.752, 153.480 277.354 C 152.715 277.060, 150.956 277.953, 149.571 279.338 C 147.346 281.563, 147.178 282.213, 148.125 284.930 C 149.461 288.761, 153.874 292, 157.758 292 C 163.765 292, 167.767 284.906, 169.419 271.329 C 170.663 261.105, 167.436 226.525, 163.696 210 C 162.887 206.425, 161.917 201.250, 161.541 198.500 C 161.164 195.750, 160.622 192.516, 160.336 191.313 C 159.886 189.425, 160.341 189.034, 163.657 188.459 C 165.771 188.092, 170.425 186.990, 174 186.009 C 177.575 185.029, 184.775 183.450, 190 182.501 C 201.393 180.431, 207.065 178.979, 208.750 177.702 C 209.438 177.181, 210 175.251, 210 173.413 C 210 169.891, 207.806 167.861, 204.316 168.151 C 203.317 168.234, 197.775 168.660, 192 169.097 M 130 212.877 C 123.771 217.484, 118.796 222.495, 114.500 228.488 C 104.199 242.861, 94.228 253.767, 83.546 262.348 C 78.965 266.028, 78.581 270.510, 82.711 272.080 C 86.569 273.547, 89.440 272.566, 98.375 266.729 C 105.897 261.814, 115.109 251.830, 123.959 239 C 125.287 237.075, 128.455 233.025, 131 230 C 140.149 219.124, 143.439 212.438, 141.055 209.566 C 139.014 207.107, 136.975 207.718, 130 212.877 M 171.250 211.706 C 169.681 212.008, 169 212.848, 169 214.479 C 169 217.259, 186.686 233.095, 203.087 245 C 208.769 249.125, 214.806 253.702, 216.501 255.171 C 221.472 259.477, 234.195 265.971, 237.693 265.986 C 241.011 266.001, 244 263.146, 244 259.965 C 244 258.205, 239.008 253, 237.321 253 C 236.732 253, 232.707 250.424, 228.375 247.274 C 218.535 240.120, 219.522 240.859, 213 235.770 C 209.975 233.410, 204.350 229.509, 200.500 227.100 C 196.650 224.692, 190.378 220.646, 186.562 218.111 C 180.664 214.192, 174.112 210.656, 173.635 211.136 C 173.561 211.211, 172.488 211.467, 171.250 211.706" stroke="none" fill="black" fill-rule="evenodd"/>
</svg>