<svg xmlns="http://www.w3.org/2000/svg" width="300" height="300" viewBox="0 0 300 300" version="1.1">
	<path d="M 247.750 25.080 C 242.895 27.908, 249.331 42.918, 260.900 55.750 C 263.522 58.659, 266.063 58.598, 269.354 55.548 C 274.359 50.910, 271.656 41.483, 262.652 32.173 C 255.359 24.632, 251.595 22.841, 247.750 25.080 M 195.543 28.295 C 191.263 34.827, 187.825 47.485, 186.660 61 C 185.515 74.286, 185.457 74.505, 182.998 74.813 C 181.624 74.985, 176.675 76.050, 172 77.181 C 167.325 78.311, 159.271 79.520, 154.103 79.868 C 145.441 80.451, 144.550 80.708, 142.722 83.163 C 140.095 86.691, 141.072 90.464, 145.277 93.027 C 149.479 95.590, 157.746 95.580, 169 93 C 173.675 91.928, 179.412 91.040, 181.750 91.026 L 186 91 185.985 133.250 C 185.968 182.765, 184.523 237.594, 182.886 250.832 C 181.987 258.102, 181.209 260.786, 179.366 262.977 C 175.064 268.090, 177.055 272.400, 183.720 272.400 C 190.895 272.400, 196.159 262.282, 198.097 244.764 C 198.788 238.524, 199.421 205.861, 199.712 161.458 L 200.192 88.416 209.330 87.171 C 232.117 84.068, 248.308 79.254, 251.557 74.615 C 253.594 71.706, 253.350 69.038, 250.847 66.867 C 248.390 64.736, 246.329 64.544, 242.315 66.071 C 238.535 67.508, 202.736 72.950, 201.612 72.258 C 201.104 71.945, 201.036 63.755, 201.453 53.106 C 202.411 28.667, 202.422 28.081, 201.925 27.633 C 201.691 27.421, 200.513 26.945, 199.306 26.574 C 197.651 26.066, 196.726 26.489, 195.543 28.295 M 112.785 41.806 C 108.509 45.458, 95.393 53.699, 86.361 58.409 C 75.393 64.128, 59 79.784, 59 84.540 C 59 87.002, 62.619 90.250, 65.363 90.250 C 68.067 90.250, 69.618 89.172, 77.500 81.810 L 81.500 78.075 81.500 92.047 L 81.500 106.019 70 110.005 C 63.675 112.197, 57.497 113.993, 56.270 113.996 C 52.405 114.003, 46.052 117.118, 43.987 120.018 C 41.617 123.347, 41.417 127.271, 43.527 129.023 C 46.442 131.442, 58.903 130.237, 70.153 126.449 C 75.785 124.552, 80.755 123, 81.196 123 C 81.638 123, 82 126.652, 82 131.115 C 82 139.005, 81.908 139.317, 78.687 142.365 C 76.742 144.206, 74.849 147.358, 74.102 150 C 71.382 159.618, 65.623 172.695, 56.047 191 C 54.465 194.025, 49.488 203.796, 44.987 212.714 C 39.593 223.400, 36.136 229.140, 34.844 229.549 C 33.767 229.891, 32.472 231.258, 31.967 232.586 C 29.967 237.849, 34.899 242.995, 40.579 241.570 C 44.766 240.519, 48.320 236.001, 56.647 221.145 C 60.853 213.640, 66.726 203.155, 69.699 197.845 C 72.671 192.535, 75.903 186.010, 76.881 183.345 C 79.154 177.150, 81.913 172.059, 81.945 174 C 81.958 174.825, 81.532 189, 80.997 205.500 C 79.788 242.771, 78.614 257.504, 76.343 263.896 C 74.636 268.702, 74.640 268.945, 76.443 270.937 C 80.305 275.205, 86.663 272.167, 89.412 264.739 C 92.308 256.915, 95.142 222.795, 95.724 188.750 C 96.023 171.287, 96.578 157, 96.959 157 C 97.960 157, 101.192 160.846, 104.345 165.789 C 105.849 168.148, 110.194 173.612, 113.999 177.930 C 124.077 189.367, 132.720 192.846, 138.393 187.750 C 140.813 185.576, 141.378 184.173, 141.111 181 C 140.982 179.474, 136.725 177, 134.228 177 C 132.201 177, 123.663 167.516, 118.473 159.500 C 113.427 151.706, 110.198 149.214, 101.750 146.596 L 96 144.814 96 131.528 L 96 118.243 99.250 116.957 C 106.500 114.091, 118.578 107.783, 119.750 106.251 C 121.466 104.009, 121.318 100.461, 119.429 98.571 C 117.493 96.636, 113.488 96.564, 108.363 98.372 C 106.224 99.127, 102.636 100.055, 100.391 100.434 L 96.308 101.124 95.500 89.812 C 94.073 69.853, 93.418 72.124, 102 67.271 C 110.163 62.655, 118.339 57.127, 123.630 52.646 C 126.149 50.513, 126.996 48.999, 126.985 46.646 C 126.967 42.940, 126.268 41.704, 123.316 40.150 C 119.754 38.275, 116.278 38.822, 112.785 41.806 M 228.488 123.377 C 227.632 124.685, 226.490 127.272, 225.951 129.127 C 224.456 134.273, 221.766 194.157, 222.543 204.997 C 223.195 214.096, 225.563 222.577, 228.272 225.522 C 236.264 234.206, 239.918 237.200, 244.718 238.996 C 254.294 242.579, 268.989 241.356, 281.702 235.918 C 287.960 233.241, 291 230.308, 291 226.948 C 291 221.421, 286.956 220.571, 274 223.375 C 264.817 225.362, 252.074 225.485, 247.718 223.629 C 245.948 222.875, 243.509 221.181, 242.298 219.865 C 235.094 212.039, 234.671 202.745, 238.702 140.862 C 239.011 136.111, 238.955 130.574, 238.577 128.556 C 237.282 121.657, 231.545 118.712, 228.488 123.377 M 145.500 128.783 C 144.400 128.995, 142.938 129.892, 142.250 130.775 C 140.809 132.628, 140.565 137, 141.902 137 C 145.432 137, 147.004 160.674, 144.625 178 C 143.757 184.325, 142.135 196.025, 141.022 204 C 136.703 234.952, 136.618 235.866, 137.818 238.499 C 138.708 240.453, 139.701 241, 142.356 241 C 144.226 241, 146.245 240.409, 146.844 239.687 C 148.034 238.255, 152.997 216.946, 156.205 199.500 C 158.824 185.264, 159.873 149.828, 157.946 140.746 C 156.184 132.441, 151.227 127.677, 145.500 128.783" stroke="none" fill="black" fill-rule="evenodd"/>
</svg>