<svg xmlns="http://www.w3.org/2000/svg" width="300" height="300" viewBox="0 0 300 300" version="1.1">
	<path d="M 252.413 17.493 C 249.968 21.223, 251.180 23.847, 259.035 31.827 C 271.679 44.673, 279.509 48.491, 284 44 C 287.631 40.369, 286.804 38.408, 276.500 26.214 C 269.788 18.271, 264.586 15, 258.668 15 C 254.845 15, 253.764 15.431, 252.413 17.493 M 79.263 21.697 C 78.033 23.239, 77.021 25.486, 77.013 26.691 C 77.006 27.895, 79.565 32.620, 82.701 37.191 C 96.550 57.378, 95.993 56.384, 94.227 57.752 C 90.101 60.950, 76.227 65.194, 65.610 66.505 C 55.255 67.784, 54.313 68.086, 51.750 70.954 C 48.243 74.879, 48.291 76.445, 52.038 80.192 L 55.076 83.230 63.788 82.523 C 76.057 81.527, 80.980 80.475, 89.676 76.993 C 93.859 75.318, 97.498 74.164, 97.762 74.429 C 98.027 74.693, 97.115 76.842, 95.736 79.205 C 94.358 81.567, 91.670 86.425, 89.764 90 C 81.673 105.174, 78.621 110.652, 76.864 113.154 C 75.839 114.614, 75 116.098, 75 116.452 C 75 116.806, 73.425 119.558, 71.500 122.567 C 69.575 125.577, 68 128.260, 68 128.530 C 68 128.800, 65.418 133.179, 62.262 138.261 C 55.240 149.567, 53.135 153.259, 47.873 163.500 C 45.612 167.900, 39.766 178.757, 34.881 187.627 C 25.636 204.415, 24.477 208.312, 27.829 211.345 C 30.974 214.191, 34.918 213.417, 38.905 209.172 C 42.275 205.584, 58.750 178.709, 67.784 162.062 L 71.821 154.623 72.415 159.062 C 73.110 164.265, 75.549 205.291, 76.987 236 C 78.350 265.081, 78.287 279.567, 76.790 281.965 C 75.935 283.334, 75.867 284.724, 76.558 286.701 C 77.365 289.009, 78.205 289.555, 81.345 289.815 C 86.149 290.212, 89.643 287.999, 91.834 283.172 C 93.268 280.010, 93.479 275.817, 93.347 253 C 93.262 238.425, 92.475 214.468, 91.597 199.762 C 90.719 185.056, 90 172.061, 90 170.884 C 90 168.992, 90.513 169.218, 94.441 172.839 C 96.883 175.090, 100.061 177.228, 101.501 177.590 C 111.960 180.215, 123.359 170.776, 118.565 163.459 C 116.800 160.765, 114.451 160.382, 110.559 162.155 C 108.220 163.221, 107.719 162.962, 104.051 158.796 C 100.071 154.274, 92.932 151.045, 89.676 152.294 C 88.559 152.723, 88.148 150.570, 87.600 141.402 L 86.917 129.975 94.958 115.574 C 99.381 107.654, 103 100.932, 103 100.637 C 103 99.618, 122.355 63.493, 124.175 61.115 C 126.878 57.583, 126.548 52.237, 123.448 49.365 C 120.252 46.402, 119.330 46.414, 113.187 49.500 C 110.449 50.875, 107.779 52, 107.253 52 C 106.727 52, 105.522 49.137, 104.575 45.638 C 103.627 42.138, 101.311 36.716, 99.426 33.587 C 97.542 30.459, 96 27.665, 96 27.378 C 96 27.092, 95.335 26.192, 94.522 25.379 C 93.710 24.567, 92.394 22.972, 91.598 21.837 C 90.631 20.456, 88.718 19.626, 85.826 19.333 C 82.022 18.947, 81.230 19.233, 79.263 21.697 M 174.746 37.250 C 172.532 38.941, 170.349 50.887, 168.612 70.822 C 167.830 79.799, 167.023 87.310, 166.820 87.514 C 166.616 87.717, 159.800 88.380, 151.673 88.987 C 143.545 89.594, 135.816 90.582, 134.497 91.183 C 131.689 92.463, 130.378 96.969, 131.956 99.918 C 133.954 103.652, 136.601 104.212, 150.538 103.852 C 157.855 103.663, 164.071 103.738, 164.352 104.018 C 165.038 104.705, 156.687 162.126, 153.469 178.851 C 149.706 198.406, 142.602 223.715, 138.378 232.617 C 135.888 237.864, 137.340 241.400, 142.150 241.803 C 147.577 242.259, 150.249 239.195, 155.057 227 C 162.752 207.480, 166.959 187.167, 175.767 127 L 179.500 101.500 189 99.820 C 197.381 98.337, 207.012 96.962, 237.500 92.896 C 251.306 91.055, 260.412 85.397, 261.628 77.904 C 262.627 71.751, 255.736 68.373, 251.065 72.725 C 247.966 75.612, 243.107 76.725, 228 78.008 C 215.990 79.028, 188.556 83.124, 183.653 84.629 C 181.917 85.162, 181.827 84.489, 182.153 73.348 C 182.343 66.832, 182.387 56.663, 182.249 50.750 C 182.036 41.535, 181.714 39.714, 180 38 C 177.663 35.663, 176.955 35.562, 174.746 37.250 M 240.500 116.782 C 237.206 117.350, 233.200 123.742, 230.414 132.873 C 227.608 142.074, 223.886 151.818, 219.480 161.500 C 211.877 178.208, 209.120 183.808, 208.228 184.359 C 207.255 184.960, 200.355 177.636, 191.286 166.376 C 184.640 158.124, 179.416 153, 177.650 153 C 175.601 153, 173 155.748, 173 157.914 C 173 158.888, 175.188 163.018, 177.862 167.093 C 180.537 171.167, 186.612 180.477, 191.362 187.781 L 199.999 201.063 197.520 206.953 C 192.400 219.117, 183.056 232.907, 173.370 242.593 C 169.867 246.095, 165.890 249.240, 164.532 249.581 C 163.174 249.922, 159.812 249.624, 157.061 248.919 C 152.513 247.753, 151.870 247.808, 149.981 249.517 C 148.557 250.806, 147.997 252.359, 148.201 254.449 C 148.454 257.028, 149.341 257.926, 153.929 260.250 C 160.012 263.331, 166.119 263.813, 171.357 261.624 C 181.571 257.357, 196.518 242.133, 206.121 226.217 L 212.325 215.935 218.817 223.217 C 240.359 247.383, 257.902 260.953, 271.560 264.013 C 277.424 265.328, 281.018 263.499, 280.968 259.227 C 280.922 255.279, 279.270 253.633, 271.893 250.184 C 268.277 248.493, 262.903 245.201, 259.951 242.867 C 253.270 237.586, 240.363 224.668, 234.739 217.632 C 232.408 214.716, 228.173 209.575, 225.329 206.207 L 220.157 200.085 229.434 180.293 C 242.264 152.921, 249 134.510, 249 126.817 C 249 121.039, 244.771 116.047, 240.500 116.782" stroke="none" fill="black" fill-rule="evenodd"/>
</svg>