<svg xmlns="http://www.w3.org/2000/svg" width="300" height="300" viewBox="0 0 300 300" version="1.1">
	<path d="M 95.807 31.750 C 93.427 34.521, 93.045 36.555, 93.939 41.697 C 95.143 48.616, 101.631 66.332, 103.369 67.446 C 104.327 68.060, 105.749 67.980, 107.422 67.217 C 109.761 66.152, 109.999 65.507, 109.993 60.271 C 109.989 57.097, 109.089 50.759, 107.993 46.187 C 106.897 41.614, 106 37.002, 106 35.937 C 106 31.142, 98.851 28.206, 95.807 31.750 M 194.070 39.427 C 191.112 42.479, 190.659 43.711, 189.928 50.677 C 189.477 54.980, 189.084 65.105, 189.054 73.178 L 189 87.856 183.250 88.540 C 180.088 88.916, 175.475 89.586, 173.001 90.029 C 170.526 90.472, 168.385 90.718, 168.242 90.575 C 168.099 90.432, 169.359 87.280, 171.041 83.570 C 176.415 71.717, 175.282 62.052, 168.364 60.729 C 164.338 59.960, 162 63.295, 162 69.811 C 162 74.271, 161.264 76.610, 157.888 82.872 C 153.727 90.592, 141.630 109.480, 139.416 111.716 C 137.388 113.762, 133.825 121.853, 134.172 123.619 C 134.690 126.250, 137.534 127.567, 140.307 126.462 C 142.720 125.500, 150.263 117.011, 157.247 107.397 L 160.954 102.295 173.529 101.596 C 180.445 101.212, 186.755 100.647, 187.552 100.342 C 188.786 99.868, 189 102.742, 189 119.826 C 189 138.053, 188.842 139.911, 187.250 140.367 C 185.011 141.009, 164.136 143.504, 148.033 145.054 C 132.851 146.516, 129.176 147.686, 126.250 151.988 C 125.012 153.807, 124.007 155.567, 124.015 155.898 C 124.060 157.636, 126.049 159.248, 128.136 159.237 C 134.199 159.204, 178.058 154.712, 185.920 153.319 L 189.340 152.714 186.984 156.023 C 185.688 157.842, 183.699 161.031, 182.564 163.107 C 180.233 167.373, 173.143 177.474, 170.349 180.510 C 168.717 182.285, 163.370 188.838, 159.002 194.418 C 158.176 195.473, 155.894 198.173, 153.931 200.418 C 151.969 202.663, 146.667 209.103, 142.150 214.728 C 137.633 220.354, 132.151 226.391, 129.969 228.146 C 123.853 233.060, 124.896 238, 132.050 238 C 136.744 238, 142.174 234.110, 149.078 225.801 C 151.958 222.335, 156.013 217.700, 158.089 215.500 C 162.694 210.621, 171.575 199.696, 181.256 187 L 188.500 177.500 188.776 213.500 C 189.036 247.397, 188.940 249.704, 187.134 253 C 183.742 259.190, 187.359 263.150, 193.896 260.402 C 200.141 257.776, 200.441 255.834, 201 214.500 L 201.500 177.500 211.043 186.500 C 220.061 195.005, 226.936 200.572, 239.182 209.282 C 254.745 220.352, 263.552 226.460, 270.500 231.002 C 281.341 238.088, 292.020 238.719, 291.985 232.271 C 291.964 228.595, 291.136 227.545, 287.192 226.196 C 285.373 225.573, 281.998 223.775, 279.692 222.199 C 260.419 209.029, 231.357 188.067, 227.850 184.806 C 226.470 183.522, 225.517 182.832, 215.500 175.857 C 212.750 173.942, 208.405 171.515, 205.845 170.465 C 200.747 168.373, 200.034 166.715, 200.011 156.903 L 200 152.307 209.955 150.653 C 215.430 149.744, 221.713 149, 223.917 149 C 229.840 149, 239.015 145.331, 242.690 141.493 C 246.736 137.267, 247.963 131.722, 245.464 128.960 C 244.488 127.882, 243.197 127.015, 242.595 127.033 C 241.015 127.081, 237 130.618, 237 131.961 C 237 133.978, 229.767 136.205, 220.510 137.037 C 215.555 137.483, 208.912 138.169, 205.750 138.561 L 200 139.275 200 119.290 L 200 99.305 221.734 98.596 C 239.543 98.014, 243.787 97.597, 245.234 96.288 C 247.733 94.027, 247.426 91.480, 244.365 89.073 C 241.892 87.127, 240.458 87, 221.008 87 L 200.285 87 199.684 81.249 C 198.895 73.704, 200.614 46.942, 202.096 43.689 C 202.733 42.291, 202.963 39.989, 202.608 38.574 C 201.680 34.877, 198.138 35.231, 194.070 39.427 M 111.750 65.994 C 109.703 67.091, 103.635 69.374, 98.264 71.068 C 92.894 72.762, 87.415 74.588, 86.090 75.126 C 84.764 75.663, 79.224 76.375, 73.778 76.706 C 66.175 77.170, 63.310 77.755, 61.438 79.227 C 58.538 81.509, 58.318 84.073, 60.829 86.345 C 63.438 88.706, 77.204 88.540, 87.453 86.024 C 91.826 84.950, 95.510 84.177, 95.638 84.305 C 95.767 84.434, 93.988 87.499, 91.686 91.117 C 89.384 94.735, 86.375 99.596, 85 101.918 C 83.625 104.240, 82.010 106.679, 81.411 107.338 C 80.812 107.997, 80.137 108.979, 79.911 109.520 C 79.456 110.610, 70.625 125.098, 61.757 139.302 C 58.599 144.361, 55.713 149.175, 55.344 150 C 54.976 150.825, 53.232 153.750, 51.470 156.500 C 49.708 159.250, 46.293 164.780, 43.883 168.790 C 36.629 180.855, 35.804 182.091, 32.841 185.336 C 31.274 187.051, 29.255 190.384, 28.354 192.742 C 26.812 196.780, 26.821 197.145, 28.513 199.015 C 32.263 203.158, 36.826 201.074, 43.500 192.171 C 48.098 186.036, 54.629 176.108, 60.241 166.723 C 61.484 164.645, 63.910 160.692, 65.633 157.939 L 68.765 152.932 69.505 190.437 C 69.912 211.064, 69.919 235.789, 69.519 245.380 L 68.793 262.818 71.329 264.480 C 73.314 265.780, 74.316 265.901, 75.933 265.036 C 79.284 263.243, 80.648 260.030, 82.039 250.653 C 83.123 243.350, 83.124 234.138, 82.041 197.871 C 81.320 173.707, 80.945 153.721, 81.208 153.459 C 81.470 153.196, 85.918 155.185, 91.092 157.877 C 96.267 160.569, 102.695 163.512, 105.378 164.417 C 109.803 165.910, 110.475 165.919, 112.628 164.508 C 115.622 162.546, 115.672 159.140, 112.750 156.175 C 109.754 153.136, 92.115 143.242, 85.649 140.974 C 78.185 138.356, 78.190 136.754, 85.699 124.462 C 86.358 123.383, 88.811 119.350, 91.151 115.500 C 105.782 91.420, 114.558 79.452, 120.691 75.214 C 124.369 72.673, 124.933 69.778, 122.443 66.223 C 120.486 63.428, 116.688 63.347, 111.750 65.994" stroke="none" fill="black" fill-rule="evenodd"/>
</svg>