<svg xmlns="http://www.w3.org/2000/svg" width="300" height="300" viewBox="0 0 300 300" version="1.1">
	<path d="M 74.950 16.043 C 73.215 17.548, 72.621 19.063, 72.697 21.793 C 72.833 26.718, 74.034 32, 75.018 32 C 75.453 32, 77.225 34.362, 78.955 37.250 C 80.686 40.138, 83.689 44.740, 85.628 47.479 C 88.887 52.080, 89.116 52.876, 88.642 57.979 C 88.360 61.015, 87.826 65.194, 87.454 67.264 C 87.012 69.724, 87.212 71.551, 88.031 72.538 C 88.721 73.369, 89.108 74.150, 88.893 74.274 C 87.384 75.142, 83.156 77.501, 80.113 79.173 C 78.126 80.264, 76.050 81.715, 75.500 82.395 C 74.950 83.076, 73.150 84.333, 71.500 85.188 C 66.957 87.543, 59.090 91.840, 53.456 95.043 C 49.852 97.092, 47.217 97.863, 44.222 97.743 C 39.646 97.561, 37.602 99.273, 36.632 104.101 C 35.246 111.001, 39.282 113.636, 49.738 112.660 C 57.546 111.931, 64.994 108.506, 81.500 98.054 C 87.550 94.223, 94.603 89.953, 97.174 88.566 L 101.848 86.043 101.032 88.772 C 99.703 93.215, 96.231 100.750, 95.333 101.139 C 94.875 101.338, 93.506 103.525, 92.291 106 C 89.355 111.981, 86.672 116.423, 85.750 116.833 C 85.337 117.017, 85 117.557, 85 118.033 C 85 118.510, 83.654 120.895, 82.008 123.333 C 76.550 131.420, 65.048 153.758, 62.613 161 C 61.595 164.025, 59.241 169.648, 57.382 173.497 C 55.522 177.345, 54 180.978, 54 181.570 C 54 186.915, 33.580 226, 30.788 226 C 30.355 226, 30 227.317, 30 228.927 C 30 231.948, 33.830 236, 36.685 236 C 40.420 236, 44.417 232.350, 50.135 223.716 C 56.094 214.718, 74 181.121, 74 178.939 C 74 178.335, 76.202 173.264, 78.892 167.671 C 81.583 162.077, 84.253 156.375, 84.825 155 C 85.806 152.640, 85.868 152.713, 85.932 156.298 C 85.970 158.387, 87.566 174.180, 89.480 191.393 C 93.456 227.143, 94.819 251.510, 93.172 257.393 C 92.008 261.553, 92.830 264.351, 95.913 266.718 C 98.232 268.499, 100.818 268.265, 104.018 265.987 C 111.947 260.342, 112.989 241.320, 108.016 193.027 C 106.969 182.866, 106.200 174.481, 106.307 174.393 C 107.373 173.510, 111.640 176.887, 114.517 180.890 C 117.813 185.479, 127.715 193.225, 130.366 193.288 C 135.183 193.403, 136.827 192.820, 137.525 190.750 C 138.844 186.840, 137.920 182.641, 135.155 179.977 C 133.695 178.571, 131.375 175.753, 130 173.717 C 128.625 171.680, 127.162 170.011, 126.750 170.007 C 126.338 170.003, 126 169.532, 126 168.960 C 126 167.174, 117.741 159.968, 115.056 159.411 C 113.650 159.119, 111.825 158.521, 111 158.081 C 110.111 157.607, 108.621 157.857, 107.343 158.695 C 105.924 159.625, 104.966 159.755, 104.546 159.075 C 104.195 158.506, 103.452 152.519, 102.895 145.771 C 102.337 139.022, 101.478 131.977, 100.984 130.116 C 100.009 126.436, 100.694 124.566, 105.860 116.802 C 107.435 114.436, 111.576 106.659, 115.064 99.520 C 120.061 89.292, 121.494 85.316, 121.823 80.768 C 122.312 74.009, 120.853 69.789, 117.198 67.394 C 114.436 65.584, 107.847 65.347, 103.737 66.910 L 101.376 67.808 102.876 60.818 C 104.988 50.982, 103.726 45.888, 96.175 33.781 C 92.863 28.470, 89.436 22.614, 88.560 20.768 C 86.868 17.202, 82.463 14, 79.249 14 C 78.180 14, 76.246 14.919, 74.950 16.043 M 207.447 40.396 C 204.118 42.103, 200.068 44.044, 198.447 44.710 C 196.826 45.375, 193.755 46.643, 191.621 47.527 C 186.389 49.695, 175.630 56.294, 172.248 59.409 C 166.188 64.991, 151.678 76.896, 151.108 76.755 C 149.740 76.415, 146 78.210, 146 79.206 C 146 79.794, 144.200 82.229, 142 84.616 C 139.800 87.003, 138 89.765, 138 90.755 C 138 93.924, 140.857 96.859, 144.263 97.188 L 147.500 97.500 148.287 110 C 148.720 116.875, 148.848 129.025, 148.570 137 C 147.966 154.357, 147.921 148.535, 148.933 183.500 C 150.041 221.808, 150.984 224.235, 164.730 224.184 C 176.692 224.139, 189.284 214.236, 201.081 195.594 C 206.544 186.961, 208 183.850, 208 180.815 C 208 177.580, 207.504 176.669, 204.869 175.067 C 199.903 172.046, 197.604 173.514, 190.345 184.338 C 182.743 195.674, 174.436 203.635, 168.318 205.446 C 166.362 206.025, 166.081 205.647, 165.602 201.796 C 165.308 199.433, 164.787 188.254, 164.445 176.954 L 163.822 156.407 170.661 151.415 C 180.828 143.995, 185.330 141.255, 193.411 137.572 C 197.429 135.741, 203.304 132.588, 206.467 130.564 C 209.630 128.541, 212.326 127.023, 212.458 127.193 C 212.589 127.362, 213.235 131.550, 213.892 136.500 C 215.891 151.546, 218.949 169.383, 219.893 171.500 C 220.383 172.600, 221.521 177.325, 222.421 182 C 225.617 198.602, 231.806 225.882, 232.971 228.500 C 233.952 230.706, 235.270 234.903, 237.366 242.500 C 239.630 250.702, 243.691 260.834, 245.401 262.544 C 246.280 263.423, 247 264.716, 247 265.416 C 247 267.604, 254.555 278.498, 259.103 282.869 C 266.084 289.576, 273.855 290.517, 280.581 285.468 C 282.947 283.693, 284.167 281.454, 285.834 275.828 C 287.029 271.798, 288.005 267.572, 288.003 266.439 C 287.998 263.324, 284.362 260, 280.961 260 C 277.323 260, 274.631 262.557, 272.970 267.591 L 271.708 271.413 268.815 267.957 C 265.984 264.575, 263.896 260.623, 258.538 248.500 C 257.079 245.200, 255.465 241.600, 254.951 240.500 C 253.409 237.201, 250.262 226.105, 248.002 216 C 243.668 196.617, 242.891 193.455, 241.979 191.500 C 240.251 187.799, 233.021 149.389, 231.437 135.500 C 231.061 132.200, 230.403 129.050, 229.976 128.500 C 229.549 127.950, 229.042 124.973, 228.849 121.885 L 228.500 116.269 236.496 109.335 C 240.893 105.522, 244.646 101.601, 244.834 100.622 C 245.825 95.478, 241.231 90.223, 236.730 91.353 C 235.474 91.668, 232.560 93.541, 230.255 95.514 L 226.064 99.101 225.398 96.301 C 225.032 94.760, 223.218 87.911, 221.366 81.080 C 219.515 74.248, 218 68.097, 218 67.411 C 218 65.145, 214.528 60.013, 213 60.019 C 212.175 60.022, 210.488 61.588, 209.250 63.498 C 207.396 66.360, 207 68.373, 207 74.927 C 207 79.302, 207.383 83.119, 207.851 83.408 C 208.319 83.697, 209.014 89.137, 209.394 95.496 C 209.774 101.855, 210.339 107.720, 210.649 108.529 C 210.960 109.338, 210.708 110, 210.089 110 C 209.470 110, 203.720 112.925, 197.311 116.500 C 190.902 120.075, 185.326 123, 184.919 123 C 183.991 123, 170.447 130.607, 166.750 133.204 L 164 135.136 163.966 125.818 C 163.933 116.561, 162.705 100.158, 161.472 92.500 C 160.847 88.622, 160.969 88.401, 165.443 85.250 C 167.982 83.463, 170.214 82, 170.404 82 C 170.593 82, 172.468 80.425, 174.570 78.500 C 176.671 76.575, 178.684 75, 179.042 75 C 179.401 75, 183.300 72.586, 187.708 69.636 C 192.116 66.685, 197.922 63.492, 200.611 62.540 C 203.300 61.588, 208.302 59.680, 211.726 58.302 C 224.196 53.282, 228.909 43.331, 221.024 38.674 C 217.191 36.409, 214.573 36.741, 207.447 40.396" stroke="none" fill="black" fill-rule="evenodd"/>
</svg>