<svg xmlns="http://www.w3.org/2000/svg" width="300" height="300" viewBox="0 0 300 300" version="1.1">
	<path d="M 191.223 10.263 C 189.791 11.787, 188.707 14.968, 187.902 20.013 C 185.627 34.263, 178.412 46.115, 161.155 63.944 C 157.665 67.550, 154.377 71.304, 153.849 72.288 C 152.467 74.861, 153.751 77.899, 156.514 78.593 C 161.502 79.845, 166.205 77.018, 176.964 66.299 C 186.555 56.744, 187.623 55.963, 189.761 56.937 C 191.044 57.522, 197.934 58, 205.073 58 L 218.051 58 216.374 61.250 C 215.451 63.038, 212.921 67.268, 210.750 70.651 C 207.153 76.259, 206.438 76.850, 202.652 77.347 C 200.368 77.646, 191.075 78.824, 182 79.965 C 172.925 81.106, 161.900 82.770, 157.500 83.664 C 153.100 84.558, 147.636 85.491, 145.359 85.737 C 141.684 86.134, 140.857 86.741, 138.015 91.127 C 135.419 95.133, 135.043 96.347, 136.029 97.534 C 136.698 98.341, 138.063 99, 139.063 99 C 140.064 99, 141.080 99.338, 141.322 99.750 C 142.313 101.441, 140.108 153.445, 138.534 165.500 C 134.843 193.761, 128.132 221.420, 117.786 251 C 115.574 257.325, 112.917 264.932, 111.882 267.905 C 109.514 274.706, 109.499 278.237, 111.829 280.345 C 113.761 282.094, 115.778 282.406, 118.471 281.373 C 123.591 279.408, 139.104 236.505, 145.364 207 C 152.135 175.082, 153.058 167.550, 153.967 136.839 C 154.445 120.702, 154.481 105.578, 154.048 103.228 C 153.615 100.879, 153.540 98.787, 153.880 98.578 C 155.218 97.762, 180.956 93.838, 190.452 93.004 C 205.401 91.690, 224.874 90.113, 239.340 89.045 C 246.401 88.523, 252.814 87.569, 253.590 86.926 C 255.519 85.324, 255.361 81.665, 253.250 79.073 C 251.614 77.064, 250.539 76.915, 236.750 76.781 C 223.322 76.650, 220.306 76.165, 222.913 74.554 C 224.797 73.389, 232.710 60.386, 233.236 57.589 C 233.971 53.686, 232.398 49.523, 229.702 48.234 C 225.259 46.110, 223.236 45.794, 209.800 45.120 C 202.265 44.742, 195.816 44.149, 195.469 43.802 C 195.122 43.455, 195.297 42.313, 195.859 41.264 C 196.420 40.215, 198.263 34.030, 199.953 27.519 C 203.334 14.500, 203.031 11.246, 198.236 9.062 C 194.848 7.518, 193.601 7.732, 191.223 10.263 M 97.500 30.195 C 92.636 32.953, 92.776 37.971, 98 48.118 C 100.200 52.391, 102 56.967, 102 58.288 C 102 61.136, 104.845 64, 107.674 64 C 114.435 64, 114.843 52.508, 108.538 39.701 C 105.240 33.002, 101.982 28.918, 100.027 29.030 C 99.737 29.047, 98.600 29.571, 97.500 30.195 M 111 64.926 C 105.467 66.779, 92.027 68.980, 73.500 71.066 C 65.628 71.952, 63.128 72.621, 61.750 74.207 C 59.467 76.835, 59.525 80.260, 61.888 82.399 C 63.515 83.871, 65.204 84.022, 74.138 83.488 C 84.010 82.898, 96.329 81.536, 102.235 80.382 C 104.899 79.862, 104.816 80.088, 99.006 89.174 C 95.725 94.303, 91.598 100.975, 89.833 104 C 88.068 107.025, 84.121 113.245, 81.062 117.821 C 78.003 122.398, 74.600 127.798, 73.500 129.821 C 71.533 133.440, 59.087 152.219, 51.512 163 C 45.935 170.937, 30.325 190.902, 26.493 195 C 19.866 202.087, 18.194 208.771, 22.365 211.504 C 26.689 214.337, 29.151 212.441, 44.379 194.557 C 48.567 189.638, 54.034 182.663, 56.527 179.057 C 59.020 175.450, 63.548 168.900, 66.588 164.500 L 72.115 156.500 71.808 214.782 C 71.474 277.999, 71.157 274.128, 76.790 275.627 C 78.245 276.015, 79.759 275.624, 80.938 274.556 C 83.104 272.596, 83.407 267.274, 85.034 202.500 C 85.587 180.500, 86.317 159.919, 86.658 156.765 L 87.277 151.030 93.446 156.765 C 104.365 166.915, 121.112 173.601, 124.035 168.977 C 126.835 164.550, 124.943 161.905, 112.071 152.250 C 108.535 149.597, 105.486 146.957, 105.294 146.383 C 105.103 145.808, 106.851 144.709, 109.180 143.941 C 114.772 142.095, 130.723 131.447, 131.483 129.053 C 132.520 125.786, 130.979 122.234, 127.987 120.994 C 124.623 119.601, 121.922 120.306, 116.500 123.995 C 111.156 127.630, 102.824 132, 101.236 132 C 100.532 132, 97.041 133.322, 93.478 134.937 C 87.044 137.855, 87 137.860, 87.002 135.687 C 87.004 134.484, 88.691 130.972, 90.752 127.882 C 94.526 122.225, 98.489 115.889, 102.875 108.500 C 104.181 106.300, 106.482 102.700, 107.988 100.500 C 109.494 98.300, 111.706 94.700, 112.903 92.500 C 114.101 90.300, 116.084 87.150, 117.311 85.500 C 125.193 74.903, 126 73.511, 126 70.524 C 126 66.711, 122.479 62.981, 118.936 63.042 C 117.596 63.065, 114.025 63.912, 111 64.926 M 217 115.835 C 212.875 116.787, 206.350 118.516, 202.500 119.677 C 198.650 120.838, 192.445 122.565, 188.710 123.515 C 184.976 124.466, 180.961 126.020, 179.789 126.970 C 177.757 128.615, 177.712 129.029, 178.828 135.791 C 180.433 145.506, 180.298 162.768, 178.490 178.968 C 174.434 215.326, 174.303 218.414, 176.102 235.211 C 177.051 244.077, 177.758 246.572, 181.215 253.253 C 183.872 258.389, 187.032 262.656, 190.577 265.896 C 203.124 277.364, 214.742 279.102, 245.125 274.059 C 259.914 271.604, 261.586 271.171, 267.305 268.312 C 271.151 266.390, 272.497 265.006, 274.055 261.373 C 276.398 255.907, 276.445 254.761, 274.482 250.965 C 271.578 245.349, 265.887 246.292, 262.713 252.913 C 262.043 254.310, 260.371 255.772, 258.998 256.161 C 240.472 261.411, 214.599 263.624, 208 260.524 C 198.818 256.211, 195.269 252.591, 192.098 244.305 C 187.405 232.040, 186.934 214.906, 190.538 187.500 C 191.894 177.194, 192.643 147.410, 191.755 139.117 C 191.532 137.035, 192.192 136.521, 197 135.038 C 200.025 134.105, 205.875 132.290, 210 131.004 C 214.209 129.692, 221.192 128.462, 225.915 128.199 C 233.237 127.793, 234.504 127.969, 235.665 129.557 C 237.334 131.839, 237.319 148.311, 235.641 155.500 L 234.474 160.500 225.346 160.500 C 217.773 160.500, 215.857 160.825, 214.108 162.405 C 211.508 164.754, 211.420 167.165, 213.852 169.366 C 216.056 171.360, 227.556 173.958, 234.289 173.983 C 238.472 173.998, 239.598 173.515, 243.191 170.163 C 247.081 166.534, 247.401 165.791, 249.109 156.413 C 253.157 134.183, 250.114 120.589, 240.158 116.417 C 234.626 114.100, 225.512 113.871, 217 115.835" stroke="none" fill="black" fill-rule="evenodd"/>
</svg>