<svg xmlns="http://www.w3.org/2000/svg" width="300" height="300" viewBox="0 0 300 300" version="1.1">
	<path d="M 182.500 17.653 C 180.300 20.757, 175.575 26.942, 172 31.398 C 168.425 35.854, 163.274 42.851, 160.554 46.947 C 153.161 58.080, 142.789 69.998, 127.872 84.500 C 112.721 99.229, 107.684 103.377, 103.765 104.351 C 99.089 105.513, 98.594 112.357, 103.007 114.826 C 106.359 116.700, 112.147 115.120, 118.874 110.493 C 121.656 108.579, 123.709 107.595, 123.436 108.306 C 123.163 109.017, 124.298 112.277, 125.958 115.550 C 127.618 118.822, 129.918 126, 131.068 131.500 C 132.218 137, 133.662 143.934, 134.277 146.908 C 136.183 156.127, 142.203 160.748, 146.345 156.171 C 148.596 153.684, 148.463 147.335, 145.897 134.785 C 144.741 129.128, 143.574 123.328, 143.305 121.895 C 142.504 117.634, 148.448 115.895, 166 115.254 L 180.500 114.725 180.165 133.106 C 179.937 145.679, 179.463 151.721, 178.665 152.228 C 178.024 152.636, 175.925 152.982, 174 152.997 C 172.075 153.012, 168.250 153.625, 165.500 154.359 C 159.998 155.828, 143.608 164.182, 140.593 167.054 C 138.787 168.774, 138.775 169.007, 140.366 171.435 C 141.896 173.770, 142.649 173.999, 148.773 173.987 C 152.582 173.980, 158.161 173.140, 161.636 172.050 C 168.405 169.928, 177.814 168.502, 194.527 167.065 C 201.170 166.494, 208.724 165.105, 213.527 163.571 C 217.912 162.171, 222.885 161.020, 224.579 161.013 C 231.911 160.982, 241.869 150.741, 248.541 136.366 C 250.549 132.040, 253.562 125.575, 255.236 122 C 259.196 113.544, 260.030 109.692, 258.837 105.371 C 257.181 99.374, 255.048 99.001, 224.849 99.428 C 155.259 100.412, 142.467 101.322, 138.966 105.540 C 137.949 106.766, 137.418 106.687, 135.255 104.986 C 133.866 103.894, 131.828 103, 130.724 103 C 129.256 103, 130.966 100.886, 137.109 95.110 C 145.300 87.408, 145.529 87.273, 146.710 89.472 C 147.375 90.710, 149.400 92.349, 151.210 93.112 C 155.936 95.106, 172.437 94.692, 191 92.114 C 217.897 88.380, 220 87.601, 220 81.368 C 220 78.932, 219.336 77.611, 217.512 76.416 C 215.197 74.899, 213.816 74.937, 197.762 76.951 C 188.268 78.142, 176.675 79.326, 172 79.581 C 167.325 79.837, 160.667 80.245, 157.204 80.489 L 150.907 80.933 153.509 77.717 C 159.627 70.152, 170.672 55.030, 174.300 49.250 C 176.458 45.813, 178.556 43, 178.962 43 C 180.551 43, 206.966 51.998, 215 55.276 C 234.494 63.230, 250.943 71.216, 258.525 76.407 C 262.214 78.933, 265.855 81, 266.616 81 C 268.976 81, 272 77.141, 272 74.129 C 272 70.767, 266.520 64.943, 259.785 61.149 C 252.607 57.104, 234.552 48, 233.709 48 C 233.273 48, 229.943 46.610, 226.309 44.911 C 215.215 39.724, 206.028 37.233, 190.683 35.251 L 184.866 34.500 188.973 28.389 C 193.897 21.065, 195.219 15.365, 192.464 13.350 C 188.947 10.779, 186.679 11.758, 182.500 17.653 M 74.016 24.707 C 71.089 28.428, 72.212 32.638, 78.431 41.261 C 82.101 46.350, 85.849 55.281, 86.714 61 C 87.567 66.644, 92.274 68.875, 95.821 65.316 C 99.381 61.746, 96.597 41.038, 91.741 34.965 C 90.508 33.423, 88.425 30.369, 87.110 28.178 C 83.195 21.651, 77.589 20.164, 74.016 24.707 M 88 74.713 C 87.175 75.018, 84.764 76.090, 82.643 77.095 C 77.086 79.727, 64.310 82.864, 56.004 83.636 C 51.974 84.011, 48.220 84.923, 47.420 85.722 C 45.220 87.923, 45.654 92.644, 48.223 94.443 C 51.007 96.393, 60.339 96.445, 68.250 94.555 C 71.412 93.799, 74 93.364, 74 93.589 C 74 93.814, 72.425 97.088, 70.500 100.865 C 68.575 104.643, 67 108.011, 67 108.351 C 67 108.690, 65.650 111.755, 64 115.161 C 62.350 118.568, 61 121.675, 61 122.066 C 61 122.457, 56.758 131.490, 51.574 142.139 C 46.389 152.787, 41.184 163.975, 40.005 167 C 38.827 170.025, 37.290 173.400, 36.590 174.500 C 35.889 175.600, 35.018 177.712, 34.653 179.193 C 34.003 181.837, 22.714 205.242, 16.936 215.929 C 12.394 224.329, 13.217 230, 18.977 230 C 23.093 230, 25.558 227.552, 31.343 217.723 C 37.305 207.593, 50 182.436, 50 180.753 C 50 180.171, 51.350 176.836, 53 173.344 C 54.650 169.852, 56 166.570, 56 166.050 C 56 165.531, 57.125 162.990, 58.500 160.404 C 61.240 155.250, 61.504 155.461, 59.870 161.500 C 59.164 164.111, 58.738 184.803, 58.644 221.071 C 58.511 272.549, 58.371 276.771, 56.750 278.393 C 54.581 280.562, 54.483 285.817, 56.557 288.777 C 57.692 290.399, 59.113 290.996, 61.807 290.985 C 63.838 290.976, 65.995 290.639, 66.600 290.235 C 71.228 287.145, 72.383 275.388, 72.619 229 C 72.896 174.579, 72.625 180, 75.067 180 C 76.203 180, 78.566 181.085, 80.317 182.410 C 85.312 186.193, 89.160 186.212, 91.614 182.467 C 93.166 180.098, 93.159 179.679, 91.510 176.022 C 89.520 171.608, 87.091 169.149, 82 166.394 C 80.075 165.352, 78.311 164.386, 78.079 164.246 C 77.096 163.652, 82.983 158.423, 89.042 154.508 C 97.446 149.076, 108 139.311, 108 136.965 C 108 134.800, 103.485 131, 100.912 131 C 97.471 131, 90.801 134.804, 80.223 142.801 C 78.420 144.164, 76.786 145.104, 76.592 144.889 C 76.397 144.675, 77.031 142.025, 77.999 139 C 79.917 133.006, 79.303 130.153, 75.901 129.264 C 73.621 128.668, 73.650 129.104, 75.579 124.372 C 80.504 112.297, 89.071 95.139, 92.492 90.500 C 95.193 86.836, 98 81.488, 98 80.004 C 98 79.402, 96.895 77.805, 95.545 76.455 C 93.155 74.064, 91.060 73.581, 88 74.713 M 198.394 114.687 C 196.525 115.055, 196.217 116.020, 195.650 123.301 C 195.299 127.810, 195.009 133.731, 195.006 136.458 L 195 141.416 199.356 137.141 C 202.725 133.835, 204.014 131.609, 205.041 127.327 C 205.772 124.281, 207.640 120.037, 209.191 117.895 L 212.013 114 206.256 114.136 C 203.090 114.211, 199.552 114.459, 198.394 114.687 M 226 116.139 C 226 117.457, 224.961 120.103, 223.690 122.018 C 222.420 123.933, 220.372 128.188, 219.139 131.473 C 216.274 139.107, 213.159 143.145, 206.687 147.612 L 201.500 151.192 205.500 150.451 C 207.700 150.043, 212.785 149.628, 216.799 149.528 C 222.509 149.385, 224.515 148.927, 226.010 147.423 C 228.194 145.225, 235.622 130.411, 236.619 126.265 C 236.985 124.744, 238.151 121.769, 239.212 119.653 C 240.272 117.537, 240.996 115.663, 240.820 115.488 C 240.644 115.312, 237.238 114.848, 233.250 114.455 C 226.068 113.748, 226 113.764, 226 116.139 M 153.750 129.392 C 152.485 130.352, 152 132.136, 152 135.825 C 152 140.154, 152.492 141.491, 155.234 144.614 C 161.357 151.588, 170.551 153.160, 176.119 148.185 C 178.995 145.616, 179.157 145.159, 177.985 142.935 C 176.261 139.666, 175.130 139.033, 170.977 139.015 C 167.993 139.002, 167.171 138.472, 165.595 135.546 C 161.716 128.344, 157.807 126.313, 153.750 129.392 M 193 176.531 C 188.875 177.854, 181.936 180.976, 177.579 183.469 C 173.223 185.961, 169.336 188, 168.941 188 C 168.546 188, 167.928 186.429, 167.567 184.508 C 166.047 176.405, 158.083 180.123, 153.802 190.934 C 151.663 196.336, 151.599 197.620, 151.645 234.528 C 151.694 274.472, 151.884 276.282, 156.188 277.874 C 157.689 278.429, 158.306 279.637, 158.470 282.346 C 158.738 286.754, 160.881 288.664, 166.500 289.506 C 171.732 290.290, 184.037 286.396, 193.622 280.924 C 197.386 278.775, 200.056 278, 203.697 278 C 209.572 278, 211.358 276.436, 215.379 267.773 C 219.401 259.108, 220.359 248.918, 219.683 222 C 219.009 195.186, 217.646 186.615, 213.169 181.046 C 207.801 174.368, 203.053 173.306, 193 176.531 M 193 193.355 C 184.268 196.766, 175.890 201.609, 170.715 206.236 L 165.930 210.514 166.215 221.613 L 166.500 232.711 175 229.751 C 189.889 224.565, 194.866 223.511, 198.314 224.812 C 199.994 225.446, 201.567 225.766, 201.811 225.522 C 202.712 224.622, 200.477 191.653, 199.500 191.432 C 198.950 191.308, 196.025 192.173, 193 193.355 M 182.500 243.062 C 177.550 245.175, 171.588 247.201, 169.250 247.565 L 165 248.227 165 257.989 C 165 263.357, 164.706 269.219, 164.347 271.015 L 163.694 274.280 167.597 273.568 C 174.413 272.324, 198.765 263.988, 200.027 262.467 C 200.732 261.618, 201.459 256.397, 201.762 250.003 L 202.283 239 196.892 239.110 C 193.046 239.189, 188.919 240.322, 182.500 243.062" stroke="none" fill="black" fill-rule="evenodd"/>
</svg>