<svg xmlns="http://www.w3.org/2000/svg" width="300" height="300" viewBox="0 0 300 300" version="1.1">
	<path d="M 128.607 41.095 C 125.470 43.562, 125.395 45.119, 127.558 62.865 C 128.415 69.895, 128.978 78.041, 128.808 80.965 L 128.500 86.283 121.500 88.212 C 117.650 89.272, 110.675 91.280, 106 92.673 C 101.325 94.066, 94.818 95.812, 91.540 96.552 C 88.261 97.293, 83.086 99.170, 80.040 100.725 C 74.987 103.303, 74.473 103.876, 74.192 107.242 C 73.920 110.498, 74.190 111.010, 76.489 111.587 C 80.987 112.715, 87.002 111.389, 111.243 103.924 C 130.064 98.128, 128.585 97.329, 129.418 113.750 C 129.802 121.313, 130.427 130.875, 130.808 135 L 131.500 142.500 135.279 142.812 C 138.920 143.113, 139.134 142.951, 141.158 138.376 C 142.970 134.279, 143.173 132.451, 142.635 125.063 C 142.293 120.354, 141.722 111.753, 141.367 105.950 L 140.722 95.401 147.111 93.628 C 150.625 92.653, 157.325 90.713, 162 89.317 C 176.527 84.979, 195.350 79.849, 198.734 79.305 C 201.575 78.848, 202.106 79.132, 203.105 81.642 C 204.266 84.560, 206.949 106.183, 209.042 129.500 C 209.684 136.650, 210.848 149.025, 211.629 157 C 212.410 164.975, 213.316 187.250, 213.642 206.500 C 214.275 243.894, 213.166 269.274, 210.635 275.332 C 209.237 278.676, 208.934 278.845, 204.616 278.678 C 198.745 278.450, 196.346 280.525, 197.707 284.652 C 198.865 288.166, 204.030 290.904, 209.500 290.904 C 215.999 290.904, 220.060 288.261, 223.184 282 C 225.837 276.683, 225.967 275.652, 227.103 251 C 228.003 231.476, 228.004 217.766, 227.106 192.500 C 225.761 154.678, 225.004 145.065, 220.939 114.153 C 219.323 101.862, 218 90.356, 218 88.585 C 218 82.135, 214.968 74.704, 210.521 70.258 C 206.670 66.407, 205.796 66.001, 201.382 66.006 C 198.461 66.010, 191.479 67.614, 184 70 C 177.125 72.193, 170.953 73.990, 170.285 73.994 C 169.617 73.997, 167.142 74.628, 164.785 75.397 C 158.958 77.296, 147.071 80.789, 143.949 81.520 L 141.398 82.117 139.803 64.042 C 138.166 45.494, 137.271 42.286, 133.107 40.057 C 131.654 39.280, 130.607 39.521, 128.607 41.095 M 57.801 93.537 C 56.869 95.583, 57.065 97.855, 58.817 105.287 C 61.885 118.304, 62.993 133.618, 62.997 163.095 C 63.002 204.622, 60.301 233.260, 54.538 252.769 C 53.032 257.867, 52.058 262.708, 52.372 263.527 C 53.200 265.684, 57.458 267.353, 60.307 266.638 C 63.540 265.826, 65.504 261.507, 69.079 247.352 C 72.440 234.044, 73.559 225.189, 74.973 200.716 C 76.767 169.656, 75.989 136.816, 72.943 115 C 70.883 100.244, 65.871 91, 59.932 91 C 59.396 91, 58.437 92.142, 57.801 93.537 M 171.084 107.621 C 168.652 110.712, 168.936 112.715, 173.102 121.862 C 174.696 125.362, 175.999 128.737, 175.999 129.362 C 175.998 129.988, 171.611 131.993, 166.249 133.817 C 160.887 135.642, 152.342 138.904, 147.259 141.067 C 142.177 143.230, 137.369 145, 136.576 145 C 135.783 145, 129.591 146.980, 122.817 149.399 C 94.897 159.372, 93 160.359, 93 164.913 C 93 171.785, 102.828 173.209, 113.949 167.948 C 117.496 166.270, 123.346 164.070, 126.949 163.060 C 142.611 158.670, 160.576 151.718, 176.829 143.758 C 181.518 141.462, 182.301 141.809, 183.623 146.773 C 183.956 148.023, 185.732 152.523, 187.569 156.773 C 190.036 162.478, 191.566 164.743, 193.415 165.429 C 196.806 166.687, 200.766 164.779, 201.592 161.490 C 202.295 158.689, 199.930 149.031, 196.894 142.305 C 195.852 139.998, 195 137.754, 195 137.319 C 195 136.884, 193.814 134.047, 192.364 131.014 C 190.915 127.981, 189.182 124.150, 188.513 122.500 C 186.044 116.404, 181.601 107.744, 180.250 106.393 C 177.938 104.080, 173.389 104.690, 171.084 107.621" stroke="none" fill="black" fill-rule="evenodd"/>
</svg>