<svg xmlns="http://www.w3.org/2000/svg" width="300" height="300" viewBox="0 0 300 300" version="1.1">
	<path d="M 121.468 57.762 C 119.836 58.613, 115.800 61.713, 112.500 64.650 C 109.200 67.588, 105.938 69.993, 105.250 69.996 C 104.563 69.998, 104 70.374, 104 70.831 C 104 71.288, 102.763 72.301, 101.250 73.081 C 99.737 73.861, 97.629 75.286, 96.564 76.248 C 95.499 77.209, 91.449 79.895, 87.564 82.217 C 83.679 84.539, 80.275 86.739, 80 87.107 C 79.725 87.476, 77.295 89.070, 74.599 90.650 C 67.832 94.618, 65.290 98.147, 66.805 101.471 C 67.670 103.370, 68.715 104, 71.001 104 C 76.829 104, 101.485 90.163, 117.815 77.727 C 131.371 67.405, 134.320 63.177, 130.575 59.432 C 127.852 56.709, 124.625 56.117, 121.468 57.762 M 221.582 65.083 C 215.577 65.506, 206.352 66.544, 201.082 67.390 C 195.812 68.237, 183.175 70.101, 173 71.533 C 162.825 72.965, 153.600 74.317, 152.500 74.537 C 149.656 75.106, 145.138 79.603, 144.381 82.617 C 142.966 88.256, 150.809 93.293, 155.041 89.463 C 156.180 88.432, 159.934 87.404, 164.702 86.818 C 190.883 83.600, 232.120 77.256, 235.776 75.884 C 238.486 74.867, 239.435 72.818, 238.617 69.748 C 237.191 64.397, 235.992 64.069, 221.582 65.083 M 192.073 87.635 C 190.933 89.084, 189.973 91.222, 189.940 92.385 C 189.907 93.548, 189.745 103.185, 189.579 113.801 C 189.282 132.771, 189.234 133.148, 186.792 135.801 C 182.685 140.261, 181 143.294, 181 146.223 C 181 147.750, 180.836 149, 180.636 149 C 180.437 149, 178.019 149.427, 175.265 149.950 C 172.511 150.472, 165.794 151.357, 160.340 151.917 C 150.658 152.911, 141.385 155.747, 137.750 158.827 C 136.787 159.643, 136 161.601, 136 163.180 C 136 169.601, 145.615 169.478, 182 162.593 L 188.500 161.363 188.500 212.432 C 188.500 278.469, 188.733 286.023, 190.850 288.700 C 193.335 291.842, 196.339 292.356, 199.111 290.112 L 201.500 288.178 201.718 226.839 C 201.837 193.102, 202.187 163.688, 202.496 161.473 L 203.056 157.446 211.278 155.280 C 227.825 150.921, 239.612 148.182, 244.253 147.616 C 249.710 146.952, 256.475 143.809, 257.349 141.534 C 258.161 139.417, 256.393 135.088, 254.404 134.325 C 252.247 133.497, 230.955 135.885, 224 137.735 C 218.451 139.211, 203.764 142.903, 203.190 142.966 C 203.019 142.985, 203.019 141.332, 203.190 139.294 C 203.473 135.915, 204.337 134.945, 213 128.285 C 223.727 120.038, 227.652 115.888, 232.118 108.071 C 234.670 103.603, 235.133 101.869, 234.728 98.280 C 234.104 92.740, 231.560 89.803, 227.730 90.201 C 224.694 90.517, 224.127 91.274, 219.621 101.033 C 218.100 104.326, 214.320 109.385, 210.283 113.533 L 203.500 120.500 203 104.426 C 202.587 91.162, 202.207 88.058, 200.821 86.676 C 198.312 84.170, 194.466 84.592, 192.073 87.635 M 102.990 91.014 C 101.693 92.835, 100.296 97.289, 99.462 102.264 C 96.435 120.296, 96.726 119.430, 93.473 120.127 C 91.838 120.477, 88.935 120.817, 87.021 120.882 C 80.789 121.094, 58.813 129.971, 55.783 133.500 C 53.768 135.848, 53.571 138.853, 55.286 141.104 C 57.557 144.087, 60.621 144.214, 67.200 141.599 C 73.488 139.100, 87.018 134.772, 92.278 133.578 L 95.057 132.948 94.778 146.620 L 94.500 160.293 89.750 161.677 C 85.500 162.915, 85 163.364, 85 165.947 C 85 167.534, 85.497 168.999, 86.104 169.201 C 86.803 169.434, 86.389 171.024, 84.977 173.535 C 83.750 175.716, 80.327 182.225, 77.370 188 C 66.736 208.770, 60.455 217.307, 54.712 218.795 C 52.487 219.371, 51.203 220.482, 50.522 222.418 C 49.684 224.800, 49.884 225.488, 51.881 227.105 C 56.421 230.781, 64.525 228.565, 71.825 221.650 C 76.491 217.231, 83.257 206.793, 89.084 195.026 C 91.814 189.512, 94.529 185, 95.116 185 C 95.858 185, 96.070 193.648, 95.811 213.250 C 95.446 240.741, 95.374 241.601, 93.113 245.261 C 90.243 249.907, 90.842 253.671, 94.602 254.615 C 96.379 255.061, 97.997 254.647, 99.837 253.276 C 107.062 247.891, 108.917 238.220, 108.965 205.697 L 109 181.894 114.146 188.697 C 124.617 202.540, 134.448 209.675, 144.479 210.710 C 150.998 211.383, 153 210.170, 153 205.547 C 153 202.164, 152.873 202.060, 144.302 198.491 C 139.726 196.586, 131.619 188.593, 123.009 177.500 C 120.021 173.650, 115.621 168.700, 113.231 166.500 L 108.885 162.500 110.524 158.587 C 111.878 155.354, 111.946 154.267, 110.913 152.337 C 110.225 151.052, 109.288 150, 108.831 150 C 107.870 150, 107.735 139.233, 108.629 133.829 C 109.178 130.509, 109.840 129.861, 115.556 127.047 C 125.393 122.204, 129.548 115.691, 125.429 111.571 C 123.202 109.345, 120.606 109.620, 117.260 112.435 C 115.668 113.774, 113.222 115.157, 111.824 115.508 C 109.452 116.103, 109.244 115.859, 108.705 111.837 C 108.375 109.377, 108.794 104.517, 109.681 100.514 C 111.523 92.205, 111.546 89.962, 109.800 88.855 C 107.349 87.301, 105.134 88.003, 102.990 91.014 M 150.282 96.652 C 149.612 96.923, 148.790 98.605, 148.455 100.388 C 147.970 102.974, 148.573 104.870, 151.433 109.750 C 153.405 113.116, 156.161 117.226, 157.556 118.884 C 160.972 122.944, 169.791 127, 175.204 127 C 183.164 127, 189.388 121.583, 186.050 117.560 C 185.415 116.795, 182.144 116.051, 178.350 115.810 C 171.994 115.405, 171.611 115.227, 167.859 110.945 C 154.472 95.666, 153.887 95.190, 150.282 96.652" stroke="none" fill="black" fill-rule="evenodd"/>
</svg>