<svg xmlns="http://www.w3.org/2000/svg" width="300" height="300" viewBox="0 0 300 300" version="1.1">
	<path d="M 162.487 22.024 C 161.627 23.688, 161.028 25.600, 161.156 26.274 C 161.776 29.548, 159.469 40.221, 156.405 48.249 C 154.528 53.168, 148.719 65.613, 143.496 75.905 C 138.273 86.198, 134 95.389, 134 96.331 C 134 98.792, 137.956 100.348, 141.137 99.138 C 144.035 98.036, 146.423 95.240, 151.927 86.500 C 168.907 59.540, 178.514 28.222, 171.961 21.189 C 168.871 17.872, 164.432 18.264, 162.487 22.024 M 104.329 30.775 C 101.314 32.694, 101.760 36.864, 105.875 45.221 C 108.117 49.774, 110.373 55.452, 110.889 57.837 L 111.827 62.174 108.163 63.798 C 105.480 64.988, 100.619 65.512, 90 65.756 C 82.025 65.940, 74.257 66.577, 72.737 67.172 C 68.097 68.988, 67.794 76.230, 72.311 77.363 C 73.542 77.672, 80.951 77.717, 88.775 77.463 C 96.599 77.209, 103 77.244, 103 77.541 C 103 77.838, 102.150 79.300, 101.111 80.790 C 95.353 89.052, 83.950 107.017, 82.413 110.250 C 81.432 112.313, 80.263 114, 79.815 114 C 79.367 114, 79 114.486, 79 115.080 C 79 116.270, 65.778 140.557, 54.632 159.839 C 50.710 166.626, 46.291 174.276, 44.813 176.839 C 37.868 188.888, 32.019 200.707, 32.010 202.711 C 31.998 205.297, 35.604 209, 38.133 209 C 40.950 209, 44.674 204.985, 48.334 198 C 53.176 188.759, 56.215 183.433, 60.886 176 C 63.133 172.425, 65.802 167.925, 66.817 166 C 67.833 164.075, 70.135 159.800, 71.935 156.500 C 73.734 153.200, 77.711 145.889, 80.772 140.252 C 83.833 134.616, 86.441 130.116, 86.567 130.252 C 86.693 130.389, 86.197 135.675, 85.464 142 C 84.732 148.325, 83.855 167.450, 83.516 184.500 C 82.736 223.749, 81.242 252.232, 79.921 253.049 C 79.338 253.409, 79.029 256.632, 79.201 260.580 C 79.473 266.853, 79.732 267.592, 82.050 268.699 C 88.764 271.907, 92.427 266.757, 93.935 251.992 C 95.554 236.142, 96.999 203.026, 97.007 181.603 C 97.011 171.097, 97.300 159.475, 97.649 155.778 L 98.284 149.056 101.235 153.778 C 105.574 160.722, 113.993 169, 116.716 169 C 118.939 169, 123 165.862, 123 164.144 C 123 163.673, 121.495 161.310, 119.655 158.894 C 117.815 156.477, 114.400 151.013, 112.065 146.751 C 109.731 142.489, 106.095 137.525, 103.986 135.720 L 100.152 132.439 101.535 124.478 C 103.210 114.831, 102.714 112, 99.349 112 L 96.916 112 99.647 107.250 C 101.148 104.638, 103.305 101.298, 104.439 99.828 C 105.572 98.358, 108.525 93.710, 111 89.497 C 113.475 85.285, 117.862 78.646, 120.750 74.745 C 126.403 67.107, 127.010 64.780, 124.189 61.564 C 123.193 60.429, 121.389 55.387, 120.180 50.360 C 117.852 40.678, 114.021 32.617, 110.972 30.985 C 108.800 29.823, 105.967 29.733, 104.329 30.775 M 230 47.089 C 226.975 47.551, 217.627 48.385, 209.228 48.943 C 192.431 50.058, 184.327 51.708, 176 55.707 C 169.201 58.973, 167 60.786, 167 63.120 C 167 66.462, 170.506 67.289, 176.793 65.428 C 180.306 64.388, 188.843 63.411, 199 62.885 C 226.977 61.436, 240.953 57.961, 241.807 52.242 C 242.122 50.134, 238.490 45.898, 236.561 46.125 C 235.978 46.193, 233.025 46.627, 230 47.089 M 213 82.926 C 207.867 83.894, 202.623 86.536, 198.837 90.061 C 194.670 93.940, 187.411 98.670, 177.307 104.089 C 173.013 106.393, 168.600 108.784, 167.500 109.404 C 165.697 110.421, 158.012 115.769, 155.500 117.756 C 154.950 118.191, 151.251 120.950, 147.281 123.888 C 143.311 126.825, 139.786 130.099, 139.448 131.162 C 138.597 133.844, 140.692 136, 144.147 136 L 147.048 136 146.872 178.250 C 146.692 221.364, 147.051 226.828, 150.715 236.774 C 152.945 242.827, 157.990 247, 163.078 247 C 166.443 247, 167.850 246.285, 171.851 242.542 C 174.472 240.091, 177.240 236.828, 178.003 235.292 C 178.765 233.757, 180.877 229.966, 182.695 226.869 C 186.744 219.972, 186.930 216.655, 183.399 214.342 C 180.144 212.209, 178.560 213.071, 174.500 219.181 C 172.850 221.665, 169.740 225.842, 167.588 228.464 C 163.685 233.221, 163.674 233.226, 162.490 230.865 C 159.745 225.394, 158.608 207.466, 158.554 168.811 L 158.500 130.122 163.950 126.811 C 171.869 122, 172.660 121.565, 182 116.891 C 194.312 110.730, 200.303 106.729, 207.894 99.599 C 211.855 95.879, 216.244 92.757, 218.562 92.009 C 223.118 90.540, 225 89.242, 225 87.569 C 225 83.776, 219.592 81.683, 213 82.926 M 234.405 135.750 C 232.720 136.713, 230.702 137.950, 229.921 138.500 C 228.060 139.810, 220.400 149.111, 215.686 155.785 C 210.158 163.611, 207.141 166.727, 202.403 169.504 C 200.061 170.877, 197.919 172, 197.645 172 C 196.843 172, 192.030 161.167, 188.991 152.522 C 185.859 143.610, 182.299 139, 178.551 139 C 174.953 139, 173.541 142.193, 174.854 147.366 C 175.431 149.640, 176.188 153.710, 176.537 156.411 C 176.886 159.111, 179.157 165.460, 181.585 170.518 C 184.013 175.577, 186 180.532, 186 181.529 C 186 182.526, 186.787 184.210, 187.750 185.271 C 188.713 186.331, 190.850 189.574, 192.500 192.477 C 208.976 221.465, 228.247 244.898, 250.334 262.799 C 256.864 268.092, 269.549 277, 270.556 277 C 270.784 277, 273.205 278.375, 275.936 280.056 C 278.668 281.737, 282.363 283.530, 284.148 284.042 C 291.185 286.061, 294.806 278.897, 289.455 273.545 C 288.055 272.145, 286.462 271, 285.916 271 C 284.969 271, 267.043 259.343, 266 258.048 C 265.725 257.707, 262.125 254.669, 258 251.298 C 246.218 241.668, 238.204 233.601, 227.128 220.219 C 221.643 213.592, 212 199.417, 212 197.981 C 212 197.441, 211.633 197, 211.185 197 C 210.737 197, 209.581 195.537, 208.617 193.750 C 207.652 191.963, 206.015 188.965, 204.979 187.089 L 203.094 183.677 208.797 180.685 C 217.671 176.029, 220.696 173.297, 227.187 164.072 C 234.270 154.008, 242.734 145, 245.109 145 C 248.586 145, 249.090 137.877, 245.777 135.557 C 242.847 133.504, 238.198 133.583, 234.405 135.750" stroke="none" fill="black" fill-rule="evenodd"/>
</svg>