<svg xmlns="http://www.w3.org/2000/svg" width="300" height="300" viewBox="0 0 300 300" version="1.1">
	<path d="M 75.913 10.282 C 71.322 13.807, 70.941 19.521, 74.631 29.500 C 76.055 33.350, 78.198 39.650, 79.394 43.500 C 82.382 53.122, 83.576 54.965, 87.304 55.712 L 90.500 56.353 87.500 57.227 C 85.850 57.707, 82.025 58.759, 79 59.563 C 75.975 60.367, 72.600 61.448, 71.500 61.966 C 65.169 64.942, 55.349 65.860, 52.029 63.786 C 50.387 62.760, 49.693 62.940, 47.560 64.944 C 44.252 68.051, 43.555 70.511, 44.995 73.988 C 47.544 80.143, 59.373 80.952, 75.032 76.042 C 80.201 74.422, 84.609 73.275, 84.827 73.494 C 85.046 73.713, 83.208 76.954, 80.743 80.696 C 73.055 92.367, 70.633 96.346, 68.264 101.200 C 67.002 103.785, 65.555 106.157, 65.048 106.470 C 64.117 107.046, 62.774 109.420, 58.249 118.495 C 56.880 121.243, 54.537 125.293, 53.043 127.495 C 51.550 129.698, 49.656 132.850, 48.835 134.500 C 48.014 136.150, 44.448 142.675, 40.910 149 C 34.295 160.829, 32.001 165.730, 24.409 184.259 C 18.315 199.129, 18.609 203, 25.832 203 C 30.436 203, 34.684 198.426, 38.451 189.410 C 42.402 179.956, 50.914 162.960, 55.935 154.500 L 60.090 147.500 59.795 200.154 L 59.500 252.807 56.750 255.356 C 53.639 258.239, 53.316 260.777, 55.518 265.035 C 58.512 270.824, 65.434 269.845, 69.389 263.074 C 73.011 256.872, 74.078 244.745, 74.660 203.153 L 75.210 163.806 78.355 164.288 C 80.085 164.554, 84.773 165.967, 88.774 167.429 C 95.175 169.767, 96.376 169.930, 98.774 168.786 C 100.799 167.821, 101.582 166.629, 101.820 164.155 C 102.086 161.379, 101.495 160.212, 98.276 157.162 C 91.900 151.119, 83.457 148.943, 76.629 151.583 C 74.837 152.276, 74.776 151.613, 75.192 135.903 L 75.627 119.500 79.447 112 C 81.548 107.875, 85.762 100.675, 88.810 96 C 91.859 91.325, 96.814 83.675, 99.823 79 C 102.832 74.325, 105.610 70.275, 105.997 70 C 107.429 68.982, 109 65.052, 109 62.489 C 109 60.880, 107.814 58.660, 105.968 56.814 C 103.183 54.030, 102.562 53.839, 98.340 54.472 C 95.813 54.851, 93.046 55.429, 92.192 55.757 C 90.856 56.269, 90.874 56.018, 92.320 53.954 C 94.415 50.962, 94.535 42.673, 92.569 36.785 C 91.782 34.428, 90.414 29.575, 89.529 26 C 87.231 16.716, 85.952 13.801, 83.055 11.251 C 80.201 8.740, 78.264 8.477, 75.913 10.282 M 208.982 18.405 C 204.221 21.693, 202.726 23.662, 197.319 33.765 C 194.747 38.569, 191.379 44.374, 189.833 46.664 C 187.057 50.777, 186.932 50.836, 179.503 51.532 C 175.367 51.919, 162.874 52.314, 151.741 52.408 C 131.130 52.582, 126.874 53.281, 125.559 56.708 C 124.661 59.046, 126.785 61.843, 131.283 64.247 C 135.285 66.385, 136.603 66.500, 157.140 66.500 L 178.780 66.500 177.028 69 C 174.202 73.032, 167 85.145, 167 85.867 C 167 86.231, 166.066 88.271, 164.926 90.400 C 160.990 97.743, 164.788 101.764, 174.500 100.534 C 177.250 100.186, 185.125 98.598, 192 97.005 C 198.875 95.412, 207.268 93.807, 210.652 93.437 C 218.756 92.550, 219 93.049, 219 110.507 L 219 124.145 216.365 122.073 C 213.297 119.659, 210.808 119.457, 207.715 121.370 C 203.450 124.007, 173.223 128.560, 166.585 127.565 L 161.908 126.864 162.043 108.182 C 162.118 97.907, 161.872 88.730, 161.497 87.788 C 160.637 85.630, 157.903 84.735, 154.656 85.550 C 150.179 86.674, 149.247 90.698, 148.534 112 C 147.147 153.464, 143.232 187.368, 137.451 208 C 136.603 211.025, 136.058 214.904, 136.239 216.621 L 136.568 219.742 128.034 220.963 C 111.202 223.372, 101.454 225.104, 98.737 226.170 C 95.271 227.529, 94.066 231.496, 96.409 233.835 C 98.820 236.242, 130.630 236.115, 147.974 233.629 C 154.835 232.646, 160.797 231.625, 161.224 231.362 C 162.688 230.457, 162 232.623, 160.208 234.561 C 159.222 235.628, 156.008 239.650, 153.066 243.500 C 145.504 253.394, 140.826 259.235, 138.925 261.155 C 135.724 264.389, 127 279.943, 127 282.416 C 127 285.179, 129.478 287, 133.238 287 C 135.869 287, 138.496 284.447, 147.895 272.754 C 151.320 268.493, 156.531 262.440, 159.475 259.303 C 162.418 256.165, 168.126 248.294, 172.159 241.812 C 176.191 235.329, 179.985 229.836, 180.590 229.604 C 181.194 229.372, 186.307 228.855, 191.952 228.455 C 202.124 227.734, 202.207 227.746, 201.108 229.798 C 199.351 233.080, 199.788 234.347, 203.507 236.756 C 206.160 238.474, 208.323 241.671, 212.591 250.181 C 219.089 263.139, 225.060 270.012, 236.788 278.037 C 241.030 280.940, 245.772 284.369, 247.327 285.657 C 250.349 288.162, 253.931 288.643, 257.066 286.965 C 258.453 286.223, 259 284.864, 259 282.163 C 259 278.665, 258.353 277.832, 249.950 270.512 C 238.390 260.441, 228.333 249.847, 223.240 242.377 C 217.877 234.511, 214.586 231.111, 210.329 229.041 L 206.777 227.313 215.138 226.721 C 227.941 225.816, 243.815 222.274, 249 219.165 C 254.862 215.650, 257.664 210.344, 256.071 205.774 C 254.563 201.447, 251.139 198, 248.349 198 C 245.510 198, 242.587 202.124, 243.465 204.890 C 243.894 206.241, 243.520 207.174, 242.298 207.801 C 240.466 208.740, 231 210.253, 231 209.607 C 231 209.411, 231.709 207.282, 232.576 204.876 C 234.889 198.452, 235.313 179.325, 234.156 133.500 C 233.477 106.569, 232.735 92.255, 231.887 89.690 C 230.310 84.919, 225.281 80.422, 219.904 78.974 C 214.682 77.568, 205.380 78.498, 193.115 81.651 C 187.953 82.978, 183.501 83.835, 183.221 83.555 C 182.941 83.275, 185.365 78.992, 188.606 74.038 C 195.323 63.772, 193.127 64.748, 214.500 62.531 C 234.136 60.495, 239.574 58.525, 242.484 52.393 C 244.378 48.402, 244.373 47.589, 242.433 43.500 C 239.900 38.161, 234.034 38.149, 232.008 43.478 C 231.314 45.304, 229.917 46.082, 225.806 46.931 C 218.729 48.393, 206.618 49.854, 206.027 49.317 C 205.766 49.080, 206.980 46.100, 208.723 42.693 C 210.466 39.287, 212.621 34.505, 213.512 32.067 C 214.402 29.629, 216.226 26.332, 217.565 24.740 C 220.321 21.466, 220.503 20.246, 218.608 17.750 C 216.761 15.317, 213.092 15.566, 208.982 18.405 M 216.729 132.584 C 214.777 135.172, 213.204 135.675, 195 139.526 C 178.208 143.079, 169.570 143.692, 164.750 141.673 L 161 140.102 160.986 144.801 C 160.979 147.385, 160.679 150.596, 160.321 151.936 L 159.670 154.371 162.585 152.304 C 169.925 147.099, 181.814 145.792, 201.411 148.037 C 211.246 149.164, 212.914 150.267, 212.968 155.679 C 212.997 158.534, 210.952 161.959, 209.179 162.025 C 208.805 162.039, 197.585 162.192, 184.245 162.364 C 170.905 162.536, 159.804 162.863, 159.576 163.091 C 159.348 163.319, 158.399 169.129, 157.468 176.002 C 156.030 186.612, 152.135 208.709, 150.266 216.860 C 149.773 219.010, 149.981 219.166, 152.612 218.620 C 157.487 217.608, 200.233 213.001, 204.750 213 C 208.210 213, 209 212.658, 209 211.161 C 209 209.386, 212.684 207, 215.426 207 C 218.613 207, 219.033 201.833, 218.765 165.867 C 218.510 131.522, 218.436 130.320, 216.729 132.584 M 186.651 171.026 C 185.085 171.495, 180.135 172.189, 175.651 172.568 C 171.168 172.946, 166.713 173.664, 165.750 174.163 C 162.335 175.933, 164.252 183.727, 168.686 186.100 C 172.123 187.939, 177.460 187.521, 187.171 184.651 C 191.752 183.297, 196.847 181.885, 198.494 181.514 C 202.492 180.613, 204 179.226, 204 176.450 C 204 172.848, 199.553 169.985, 194.115 170.086 C 191.577 170.133, 188.218 170.556, 186.651 171.026" stroke="none" fill="black" fill-rule="evenodd"/>
</svg>