<svg xmlns="http://www.w3.org/2000/svg" width="300" height="300" viewBox="0 0 300 300" version="1.1">
	<path d="M 69.452 19.646 C 65.681 23.715, 66.197 27.690, 71.416 34.779 C 73.846 38.079, 76.281 41.056, 76.829 41.395 C 77.378 41.733, 78.138 43.856, 78.519 46.111 C 79.326 50.886, 82.020 54, 85.345 54 C 92.646 54, 93.021 42.340, 86.119 29.941 C 81.142 21.001, 80.149 19.673, 77.316 18.163 C 73.995 16.395, 72.141 16.745, 69.452 19.646 M 148.500 32.557 C 146.850 33.389, 144.479 35.516, 143.231 37.285 C 141.983 39.053, 137.933 44.778, 134.231 50.007 C 123.411 65.290, 112.878 83.489, 112.282 87.932 C 111.819 91.389, 112.145 92.299, 114.798 94.952 C 116.597 96.751, 118.888 98, 120.388 98 C 124.021 98, 131.300 95.361, 137.099 91.942 C 143.092 88.408, 143.544 88.338, 141.562 91.250 C 140.720 92.487, 136.184 99.272, 131.482 106.327 C 126.781 113.382, 122.506 119.682, 121.982 120.327 C 117.079 126.366, 115.640 128.581, 113.018 134.124 C 109.585 141.381, 109.402 142.942, 111.506 147.011 C 113.508 150.884, 119.024 152.616, 124.540 151.106 C 129.676 149.699, 149.333 136.947, 151.527 133.599 C 153.680 130.314, 152.765 126.241, 149.605 125.040 C 146.811 123.978, 141.106 125.112, 137.880 127.372 C 133.683 130.311, 133.873 129.099, 138.761 121.750 C 141.413 117.763, 146.033 110.563, 149.026 105.750 C 152.020 100.938, 154.794 97, 155.191 97 C 155.587 97, 157.716 93.963, 159.922 90.250 C 162.128 86.537, 164.337 82.896, 164.832 82.159 C 165.674 80.902, 166.787 84.776, 170.819 103 C 171.877 107.783, 175.828 121.755, 181 139 C 182.732 144.775, 184.761 151.975, 185.507 155 C 186.254 158.025, 187.139 161.211, 187.474 162.079 C 187.929 163.259, 187.124 163.933, 184.291 164.743 C 178.509 166.396, 161.081 169.652, 145.500 171.990 C 137.800 173.146, 128.763 174.521, 125.418 175.046 C 122.073 175.570, 117.348 176.010, 114.918 176.022 C 108.729 176.053, 102.246 179.171, 101.405 182.522 C 100.557 185.902, 103.497 190.062, 107.568 191.243 C 110.283 192.031, 126.806 190.967, 141.250 189.075 C 144.412 188.661, 147 188.443, 147 188.590 C 147 188.737, 146.438 189.460, 145.750 190.198 C 145.063 190.935, 142.925 194.647, 141 198.447 C 136.280 207.764, 124.851 225.211, 120.793 229.294 C 118.982 231.117, 116.279 234.383, 114.786 236.554 C 113.294 238.724, 110.039 242.651, 107.555 245.281 C 101.565 251.620, 100.853 253.075, 102.315 255.994 C 103.862 259.083, 107.857 260.100, 111.851 258.421 C 115.554 256.863, 125.045 247.523, 133.500 237.113 C 136.800 233.050, 140.467 228.558, 141.648 227.131 L 143.796 224.536 148.918 229.327 C 155.926 235.881, 167.574 241.314, 175.733 241.834 C 183.080 242.302, 187.014 240.961, 190.520 236.794 C 196.540 229.640, 190.356 222.812, 182.531 227.971 C 180.546 229.279, 178.722 229.717, 177.031 229.293 C 173.990 228.530, 164.294 223.389, 161.500 221.058 C 160.400 220.141, 157.792 218.290, 155.705 216.945 C 151.327 214.124, 151.329 214.009, 155.974 203 C 157.714 198.875, 159.395 193.355, 159.710 190.734 C 160.203 186.626, 160.643 185.884, 162.891 185.364 C 164.326 185.033, 171.515 183.203, 178.867 181.297 C 186.218 179.392, 192.557 178.208, 192.954 178.667 C 193.727 179.560, 198.692 193.966, 201.341 203 C 202.228 206.025, 205.164 214.112, 207.864 220.971 L 212.774 233.442 208.956 239.065 C 202.707 248.267, 190.478 260.604, 185.213 263.019 C 182.621 264.207, 179.375 265.701, 178 266.338 C 174.766 267.837, 174.034 268.910, 174.015 272.177 C 174.005 273.916, 174.965 275.619, 176.750 277.032 C 179.027 278.835, 180.380 279.121, 184.613 278.691 C 192.872 277.854, 199.319 273.833, 210.565 262.504 L 220.770 252.225 227.635 263.800 C 232.308 271.679, 236.517 277.312, 240.815 281.438 C 248.317 288.640, 250.552 289.928, 256.787 290.644 C 266.237 291.730, 272.435 284.211, 273.600 270.249 C 274.372 260.991, 272.885 257, 268.666 257 C 265.834 257, 262 260.430, 262 262.963 C 262 263.999, 261.473 267.132, 260.828 269.924 C 259.821 274.288, 259.320 275, 257.260 275 C 252.463 275, 242.676 263.040, 234.749 247.492 L 230.156 238.485 236.020 229.135 C 239.245 223.993, 242.532 219.047, 243.325 218.143 C 244.118 217.239, 246.275 213.800, 248.120 210.500 C 249.964 207.200, 252.941 202.317, 254.736 199.650 C 258.733 193.709, 258.982 189.690, 255.495 187.405 C 253.056 185.806, 252.842 185.877, 247.245 190.132 C 241.102 194.802, 234.510 201.318, 230.179 207 C 228.712 208.925, 227.262 210.725, 226.958 211 C 226.653 211.275, 225.378 212.968, 224.125 214.762 C 221.565 218.428, 220.460 218.302, 219.735 214.262 C 219.463 212.743, 216.261 203.202, 212.620 193.060 C 208.979 182.918, 206 174.516, 206 174.389 C 206 174.263, 207.463 173.843, 209.250 173.458 C 217.266 171.729, 222.824 168.946, 223.727 166.209 C 224.957 162.481, 224.340 160.520, 221.449 158.973 C 219.399 157.876, 217.575 157.903, 210.509 159.135 L 202.029 160.614 197.034 145.313 C 194.286 136.897, 191.079 126.072, 189.906 121.256 C 188.733 116.440, 186.281 107.230, 184.457 100.789 C 182.633 94.347, 179.718 82.872, 177.979 75.289 C 175.051 62.516, 174.910 61.095, 176.074 56 C 176.765 52.975, 177.931 49.790, 178.665 48.921 C 180.694 46.522, 180.277 44.363, 177.338 42.051 C 169.435 35.835, 163.689 40.090, 160.984 54.162 C 160.385 57.275, 158.148 63.350, 156.013 67.662 C 150.420 78.956, 150.690 78.688, 147.463 76.150 C 144.041 73.458, 142.731 73.461, 137.897 76.178 C 135.766 77.376, 133.755 78.088, 133.427 77.761 C 133.100 77.434, 134.558 74.599, 136.666 71.461 C 138.775 68.323, 141.827 63.674, 143.449 61.128 C 145.071 58.583, 149.009 52.501, 152.199 47.613 C 158.214 38.398, 159.101 35.244, 156.429 32.571 C 154.474 30.617, 152.358 30.613, 148.500 32.557 M 226.062 38.136 C 219.351 42.781, 218.948 43.376, 205.371 68.631 C 200.909 76.930, 199.913 82.100, 202.017 86.032 C 203.359 88.538, 210.209 90.309, 215.261 89.456 L 219.297 88.774 217.149 91.791 C 215.967 93.451, 214.999 95.189, 214.997 95.654 C 214.995 96.119, 213.381 99.650, 211.410 103.500 C 203.386 119.175, 201.495 127.188, 204.463 132.928 C 206.173 136.234, 207.772 137, 212.970 137 C 217.095 137, 223.059 133.462, 232.798 125.237 C 235.712 122.776, 238.318 120.984, 238.588 121.255 C 238.859 121.526, 239.458 124.133, 239.919 127.048 C 240.804 132.652, 242.768 135, 246.569 135 C 251.458 135, 253.120 127.607, 250.614 117 C 248.136 106.508, 242.898 103.629, 234.485 108.134 C 232.293 109.308, 228.952 111.097, 227.059 112.110 C 225.167 113.123, 223.451 113.785, 223.246 113.580 C 222.644 112.977, 230.703 97.434, 238.170 84.799 C 241.973 78.363, 246.850 69.363, 249.009 64.799 C 253.219 55.894, 254.441 54.116, 257.523 52.399 C 260.497 50.743, 260.626 46.456, 257.758 44.577 C 253.539 41.813, 249.753 41.620, 246.708 44.015 C 243.525 46.519, 237.745 54.942, 233.508 63.252 C 230.879 68.408, 230.106 69.141, 226.038 70.332 C 223.542 71.063, 221.359 71.558, 221.187 71.434 C 220.399 70.863, 229.205 54.944, 232.470 51.036 C 239.014 43.203, 240.446 38.818, 237.250 36.392 C 234.454 34.270, 230.830 34.834, 226.062 38.136 M 87 55.537 C 75.199 60.401, 58.004 65, 51.620 65 C 47.176 65, 45.827 65.445, 43.636 67.636 C 40.421 70.852, 40.231 74.797, 43.141 77.921 C 45.032 79.950, 45.883 80.143, 50.391 79.562 C 55.459 78.910, 77.032 74.309, 79.545 73.344 C 81.395 72.635, 80.311 76.289, 77.906 78.870 C 76.858 79.996, 76 81.210, 76 81.569 C 76 81.928, 73.802 85.885, 71.115 90.361 C 68.428 94.838, 65.049 100.750, 63.606 103.500 C 60.848 108.755, 58.838 112.162, 58 113 C 57.725 113.275, 56.459 115.525, 55.186 118 C 50.421 127.270, 43.659 139.585, 42.009 142 C 41.070 143.375, 37.694 149.450, 34.508 155.500 C 31.322 161.550, 26.417 170.220, 23.608 174.767 C 16.287 186.616, 14.199 190.932, 13.435 195.789 C 12.618 200.991, 14.738 204, 19.221 204 C 23.772 204, 25.414 202.603, 30.051 194.788 C 32.429 190.780, 34.976 186.895, 35.711 186.155 C 36.445 185.416, 37.761 183.391, 38.634 181.655 C 39.508 179.920, 43.210 173.100, 46.861 166.500 L 53.500 154.500 54.135 168 C 54.485 175.425, 54.331 199.692, 53.793 221.926 C 53.013 254.189, 52.525 262.796, 51.375 264.551 C 49.697 267.111, 50.697 273.363, 53.457 277.575 C 54.859 279.714, 55.756 280.062, 59.209 279.805 C 68.524 279.111, 68.942 275.963, 69.842 199.714 L 70.500 143.929 75.405 147.214 C 78.103 149.021, 81.547 151.304, 83.058 152.286 C 84.570 153.268, 88.044 154.336, 90.779 154.660 C 94.986 155.159, 96.078 154.922, 97.875 153.125 C 102.172 148.828, 99.830 144.554, 90.680 139.993 C 89.129 139.219, 86.357 136.924, 84.521 134.891 C 80.447 130.383, 74.161 126, 71.768 126 C 69.346 126, 69.655 124.287, 73.031 119 C 74.611 116.525, 78.008 110.675, 80.580 106 C 88.457 91.680, 92.706 84.623, 95.163 81.779 C 96.456 80.282, 99.494 75.329, 101.914 70.773 C 107.100 61.008, 107.145 56.698, 102.090 53.712 C 98.106 51.359, 96.734 51.525, 87 55.537 M 159.104 113.535 C 155.257 117.916, 154.989 123.181, 158.188 131.539 C 161.149 139.278, 165.681 144, 170.146 144 C 177.358 144, 180.986 137.003, 175.602 133.475 C 174.091 132.485, 172.970 130.536, 172.569 128.202 C 171.075 119.492, 169.432 114.705, 167.156 112.429 C 163.923 109.196, 162.775 109.353, 159.104 113.535 M 235.250 151.944 C 231.535 155.043, 232.799 160.245, 239.146 167.978 C 240.716 169.891, 242 171.996, 242 172.656 C 242 176.584, 250.414 178.617, 253.128 175.345 C 255.212 172.831, 254.616 165.155, 251.899 159.538 C 247.878 151.221, 240.274 147.752, 235.250 151.944" stroke="none" fill="black" fill-rule="evenodd"/>
</svg>