<svg xmlns="http://www.w3.org/2000/svg" width="300" height="300" viewBox="0 0 300 300" version="1.1">
	<path d="M 162.986 30.282 C 160.721 32.105, 158.529 36.008, 157.205 40.577 C 155.316 47.095, 148.957 55.865, 139.648 64.792 C 134.891 69.353, 131 73.730, 131 74.519 C 131 75.308, 132.087 76.666, 133.416 77.537 C 135.674 79.017, 136.145 78.959, 140.666 76.645 C 143.324 75.284, 149.100 70.591, 153.500 66.217 C 158.523 61.223, 163.310 57.472, 166.365 56.137 C 170.779 54.208, 171.184 54.172, 170.731 55.755 C 170.456 56.715, 169.298 60.875, 168.157 65 C 164.394 78.602, 159.162 93.546, 159.080 90.924 C 159.036 89.508, 157.917 87.331, 156.593 86.088 C 154.516 84.136, 153.056 83.814, 145.943 83.737 C 138.152 83.653, 137.570 83.798, 135.350 86.380 C 132.396 89.813, 132.302 93.556, 135.131 95.070 C 136.361 95.728, 140.104 96.050, 143.980 95.831 C 148.748 95.562, 151.065 95.845, 151.963 96.806 C 152.718 97.614, 154.190 97.918, 155.614 97.561 C 157.334 97.129, 158 97.380, 158 98.462 C 158 99.287, 156.875 100.244, 155.500 100.589 C 154.125 100.934, 153 101.571, 153 102.003 C 153 102.851, 136.860 111, 135.181 111 C 134.622 111, 132.157 111.861, 129.703 112.913 C 121.551 116.407, 118.565 122.181, 123.223 125.443 C 126.693 127.874, 128.838 127.384, 140.259 121.554 L 150.928 116.108 149.075 120.804 C 147.240 125.451, 140.414 138.936, 136.156 146.322 C 130.751 155.699, 125.860 160.074, 120.078 160.703 C 118.110 160.917, 115.878 161.709, 115.117 162.464 C 113.944 163.629, 113.002 163.258, 108.896 160.012 C 106.235 157.908, 102.038 155.416, 99.569 154.473 L 95.081 152.759 95.521 145.130 C 95.763 140.933, 96.195 132.100, 96.481 125.500 C 97.283 106.966, 97.325 106.832, 103.594 103.032 C 109.229 99.617, 116 92.897, 116 90.720 C 116 88.723, 113.040 85, 111.452 85 C 110.663 85, 107.954 86.575, 105.432 88.500 C 98.278 93.961, 97.960 93.491, 100.517 81.238 C 101.350 77.243, 101.766 72.917, 101.442 71.624 C 101.011 69.907, 101.344 69.101, 102.676 68.637 C 103.679 68.288, 107.875 66.146, 112 63.877 C 116.125 61.608, 121.300 59.334, 123.500 58.822 C 127.132 57.977, 135 51.829, 135 49.836 C 135 49.419, 133.988 48.119, 132.750 46.948 C 130.892 45.189, 129.681 44.911, 125.804 45.355 C 119.797 46.043, 109.725 50.076, 101.431 55.115 C 95.544 58.692, 89.303 62.168, 77.354 68.525 C 75.074 69.738, 72.042 71.024, 70.617 71.381 C 69.191 71.739, 67.293 73.150, 66.398 74.516 C 64.893 76.812, 64.894 77.190, 66.408 79.500 C 68.476 82.656, 70.710 82.645, 79.500 79.436 C 89.553 75.766, 90 75.655, 90 76.824 C 90 77.406, 89.618 78.118, 89.150 78.407 C 88.683 78.696, 88.008 82.735, 87.651 87.383 C 87.293 92.031, 86.747 96.495, 86.437 97.303 C 86.127 98.111, 81.376 100.198, 75.879 101.941 C 68.513 104.276, 64.849 106.045, 61.943 108.671 C 59.774 110.630, 58 112.613, 58 113.077 C 58 114.990, 62.566 117.999, 65.439 117.979 C 67.122 117.967, 72.199 116.706, 76.721 115.176 L 84.941 112.394 84.492 119.447 C 84.244 123.326, 83.815 130.632, 83.537 135.683 C 83.259 140.734, 82.365 146.359, 81.551 148.183 C 80.737 150.007, 78.876 154.650, 77.414 158.500 C 75.953 162.350, 74.165 166.850, 73.441 168.500 C 72.717 170.150, 70.944 174.425, 69.500 178 C 66.672 185.002, 64.652 189.752, 62.481 194.500 C 60.300 199.269, 55.948 208.360, 55.061 210 C 54.615 210.825, 53.218 213.525, 51.957 216 C 46.890 225.943, 43.099 231, 40.712 231 C 35.953 231, 34.335 236.184, 38.046 239.542 C 40.798 242.032, 46.269 241.759, 50.407 238.924 C 55.040 235.749, 64.565 222.127, 68.884 212.500 C 69.378 211.400, 71.015 207.800, 72.521 204.500 C 74.028 201.200, 76.544 195.350, 78.112 191.500 L 80.963 184.500 80.732 230.322 L 80.500 276.145 77.241 278.822 C 75.449 280.295, 73.986 281.984, 73.991 282.576 C 74.003 284.042, 78.325 288, 79.913 288 C 83.294 288, 88.236 284.463, 90.234 280.612 C 92.314 276.604, 92.386 275.063, 93.043 219.724 C 93.415 188.497, 93.996 162.671, 94.334 162.332 C 94.673 161.993, 99.253 165.829, 104.511 170.856 C 117.413 183.190, 123.633 186.273, 127.345 182.171 C 129.952 179.290, 129.315 176.724, 125.316 174 C 122.293 171.941, 121.986 171.445, 123.573 171.190 C 127.271 170.595, 133.525 167.814, 136.861 165.281 C 141.576 161.701, 150.348 147.829, 156.224 134.658 C 158.963 128.521, 162.215 121.250, 163.451 118.500 C 168.299 107.717, 181.310 66.114, 182.481 57.651 C 183.454 50.621, 181.589 43.816, 178.259 42.250 C 176.797 41.563, 174.321 41, 172.755 41 C 170.044 41, 169.940 40.835, 170.567 37.496 C 171.719 31.354, 167.107 26.966, 162.986 30.282 M 222 49.836 C 215.083 51.941, 212.400 53.676, 209.927 57.644 C 208.410 60.078, 208.185 61.355, 208.927 63.308 C 210.356 67.066, 213.177 67.439, 219.202 64.665 C 222.116 63.323, 225.717 61.947, 227.203 61.605 L 229.907 60.985 227.703 65.163 C 225.316 69.691, 213.877 81.971, 210.281 83.867 C 208.299 84.912, 207.481 84.511, 202.611 80.101 C 197.009 75.028, 189.448 71, 185.526 71 C 180.410 71, 176.813 77.955, 181.466 78.851 C 182.534 79.057, 185.546 81.028, 188.158 83.230 C 192.313 86.734, 192.726 87.417, 191.454 88.689 C 190.654 89.489, 190 91.224, 190 92.546 C 190 95.422, 193.435 97.423, 200 98.373 C 204.115 98.968, 205.441 99.990, 215.500 110.322 C 221.550 116.536, 234.076 128.456, 243.336 136.810 C 258.969 150.915, 260.450 152, 264.067 152 C 267.422 152, 268.052 151.642, 268.611 149.413 C 269.352 146.460, 270.950 148.230, 237.750 115.220 C 226.338 103.872, 217 94.261, 217 93.861 C 217 93.462, 217.913 92.845, 219.029 92.491 C 220.144 92.137, 224.158 88.789, 227.948 85.051 C 237.507 75.625, 243.959 63.930, 243.978 56 C 243.995 48.732, 234.437 46.052, 222 49.836 M 202.577 126.875 C 202.023 127.772, 184.979 133.357, 179.367 134.480 C 174.524 135.450, 168 140.092, 168 142.568 C 168 150.353, 182.988 149.588, 200.145 140.927 C 206.224 137.858, 209 134.882, 209 131.432 C 209 127.984, 204.059 124.478, 202.577 126.875 M 207.500 163.022 C 202.550 164.063, 195.125 166.084, 191 167.514 C 186.875 168.943, 182.150 170.510, 180.500 170.996 C 175.282 172.533, 154.651 179.689, 150.885 181.268 C 143.797 184.242, 145.264 192.022, 152.905 191.980 C 154.882 191.969, 162.350 189.921, 169.500 187.429 C 176.650 184.936, 183.253 182.652, 184.174 182.352 C 185.692 181.857, 185.886 183.653, 186.262 201.653 C 186.490 212.569, 187.277 235.100, 188.011 251.723 C 189.022 274.610, 189.067 282.558, 188.196 284.469 C 187.422 286.169, 187.357 287.809, 187.998 289.496 C 188.799 291.603, 189.597 292, 193.026 292 C 196.778 292, 197.232 291.702, 198.740 288.250 C 200.852 283.411, 200.972 266.580, 199.166 228 C 198.433 212.325, 198.136 194.496, 198.507 188.379 L 199.181 177.258 209.341 174.687 C 214.928 173.272, 221.032 171.861, 222.905 171.551 C 228.812 170.574, 230.530 167.605, 227.503 163.607 C 225.478 160.932, 218.416 160.726, 207.500 163.022 M 218.200 214.200 C 216.123 216.277, 216.876 218.907, 220.799 223.272 C 222.888 225.598, 226.151 230.119, 228.049 233.320 C 230.444 237.359, 234.560 241.734, 241.500 247.618 C 247 252.282, 252.208 257.313, 253.074 258.799 C 256.473 264.633, 265.573 261.260, 264.283 254.644 C 263.732 251.817, 257.037 244.492, 244.500 233 C 241.200 229.975, 236.475 225.300, 234 222.612 C 229.363 217.574, 223.043 213, 220.720 213 C 219.994 213, 218.860 213.540, 218.200 214.200 M 166.497 217.435 C 164.418 219.639, 162.321 223.693, 160.643 228.753 C 157.666 237.727, 151.207 251.373, 147.077 257.413 C 143.600 262.500, 141.492 268.234, 142.313 270.374 C 142.692 271.360, 144.083 272, 145.848 272 C 148.067 272, 149.600 270.974, 152.295 267.685 C 157.225 261.669, 166.087 246.501, 169.287 238.604 C 170.762 234.964, 173.150 229.067, 174.594 225.499 C 177.899 217.334, 177.393 214, 172.849 214 C 170.598 214, 168.839 214.951, 166.497 217.435" stroke="none" fill="black" fill-rule="evenodd"/>
</svg>