<svg xmlns="http://www.w3.org/2000/svg" width="300" height="300" viewBox="0 0 300 300" version="1.1">
	<path d="M 143.571 27.571 C 140.562 30.581, 141.638 34.418, 147 39.809 C 149.750 42.574, 152 45.247, 152 45.749 C 152 46.252, 145.363 47.464, 137.250 48.442 C 114.239 51.216, 99.394 55.387, 92.787 60.934 L 89.069 64.055 87.141 60.278 C 86.080 58.200, 84.322 55.694, 83.232 54.709 C 81.318 52.977, 81.147 53.005, 78.126 55.548 C 74.380 58.700, 74.176 61.717, 77.309 67.646 C 78.514 69.927, 80.345 73.427, 81.377 75.424 C 84.675 81.804, 90.702 84.898, 93.800 81.800 C 95.438 80.162, 95.306 77.492, 93.406 73.818 C 91.651 70.425, 92.535 69.052, 96.500 69.009 C 97.600 68.997, 99.821 68.299, 101.435 67.457 C 104.033 66.102, 106.536 65.322, 114.690 63.326 L 116.880 62.790 114.948 69.145 C 111.764 79.616, 112.524 88.348, 116.913 91.718 C 119.360 93.597, 121.565 93.237, 124.923 90.411 C 128.347 87.530, 128.892 84.599, 126.276 83.134 C 124.693 82.249, 124.667 81.692, 125.962 76.335 C 126.737 73.126, 127.398 68.374, 127.429 65.776 C 127.495 60.332, 126.847 60.644, 141.500 59.016 C 151.991 57.851, 164.992 57.702, 163.400 58.765 C 159.492 61.375, 159.075 67.745, 162.437 73.482 C 167.471 82.073, 177.889 86.095, 189.757 84.029 C 197.114 82.749, 200 80.900, 200 77.467 C 200 73.642, 197.377 72.500, 188.595 72.500 C 175.968 72.500, 171.561 69.389, 173.947 62.161 L 175.272 58.145 182.854 57.435 C 194.505 56.343, 212.010 57.487, 216.918 59.662 L 221.066 61.500 217.033 66.359 C 211.333 73.226, 211.731 79, 217.904 79 C 221.138 79, 232.629 67.081, 233.154 63.181 C 234.150 55.788, 229.768 50.621, 219.853 47.500 C 214.101 45.689, 211.029 45.517, 187.361 45.685 C 162.278 45.862, 161.241 45.794, 161.710 44.001 C 162.612 40.550, 159.944 35.221, 154.996 30.593 C 149.777 25.712, 146.340 24.803, 143.571 27.571 M 142.417 85.317 C 140.041 87.361, 139.665 88.532, 139.235 95.234 C 138.667 104.084, 138.842 103.959, 127 103.996 C 114.777 104.035, 94.978 106.626, 89.781 108.867 C 84.594 111.104, 82.673 114.696, 85.099 117.619 C 86.494 119.300, 86.637 119.297, 104.500 117.094 C 108.900 116.552, 118.414 116.084, 125.643 116.054 C 139.564 115.997, 140 116.147, 140 120.994 C 140 122.378, 138.963 122.984, 135.750 123.480 C 130.541 124.283, 121.541 126.733, 117.500 128.447 C 115.850 129.146, 113.249 130.229, 111.721 130.851 C 109.078 131.928, 106.730 135.643, 107.676 137.250 C 108.361 138.413, 125.260 138.135, 135.319 136.796 C 142.372 135.857, 144.452 135.857, 144.765 136.796 C 145.355 138.566, 151.941 138.319, 152.638 136.500 C 153.094 135.312, 155.191 135, 162.706 135 C 173.721 135, 179 133.232, 179 129.541 C 179 124.934, 175.734 123.542, 163.650 123 L 152.500 122.500 152.196 118.860 L 151.892 115.219 166.196 115.360 C 174.063 115.437, 183.092 115.130, 186.260 114.677 C 193.732 113.609, 198 110.251, 198 105.440 C 198 102.469, 197.608 101.956, 194.779 101.222 C 192.682 100.679, 190.326 100.828, 188.029 101.650 C 185.760 102.461, 178.696 102.928, 168.250 102.956 L 152 103 151.985 95.250 C 151.968 86.886, 151.642 85.901, 148.316 84.150 C 145.459 82.646, 145.543 82.629, 142.417 85.317 M 170 136.658 C 165.809 136.945, 147.250 139.141, 120 142.575 C 113.675 143.372, 106.790 144.019, 104.700 144.012 C 102.611 144.006, 99.574 144.686, 97.953 145.525 C 95.340 146.875, 94.746 146.880, 92.739 145.564 C 90.883 144.349, 90.023 144.303, 87.986 145.313 C 84.496 147.043, 84.195 151.726, 87.283 156.275 C 88.598 158.213, 90.234 161.306, 90.920 163.149 C 93.029 168.824, 93.622 169.496, 96.609 169.607 C 98.199 169.665, 101.885 170.228, 104.799 170.857 C 115.559 173.178, 143.847 172.177, 171 168.512 C 176.775 167.733, 184.650 166.794, 188.500 166.426 C 196.121 165.698, 198 164.785, 198 161.813 C 198 160.744, 200.173 157.754, 202.829 155.167 C 207.779 150.346, 209.266 146.724, 208.313 141.814 C 207.409 137.159, 203.114 135.975, 187.849 136.175 C 180.507 136.271, 172.475 136.488, 170 136.658 M 170.250 148.743 C 163.517 149.063, 163 149.247, 163 151.321 C 163 152.550, 162.299 154.555, 161.443 155.777 C 159.629 158.368, 159.547 158.359, 168 156.500 C 171.575 155.714, 177.110 155.054, 180.300 155.035 C 185.552 155.003, 186.439 154.670, 189.703 151.500 L 193.307 148 185.403 148.199 C 181.057 148.308, 174.238 148.553, 170.250 148.743 M 142 151.923 C 136.212 152.437, 135.535 152.719, 135.819 154.500 C 136.265 157.295, 138.823 159, 142.569 159 C 144.321 159, 146.198 158.438, 146.740 157.750 C 147.619 156.634, 149.436 150.745, 148.769 151.173 C 148.621 151.268, 145.575 151.605, 142 151.923 M 116 155.164 C 113.525 155.683, 108.958 155.870, 105.852 155.580 L 100.203 155.052 101.281 158.564 C 102.097 161.224, 102.740 161.901, 103.929 161.354 C 104.793 160.956, 109.833 160.449, 115.129 160.226 L 124.758 159.820 123.660 156.910 C 122.469 153.754, 122.587 153.781, 116 155.164 M 158 179.174 C 151.675 180.821, 144.925 182.512, 143 182.930 C 141.075 183.349, 137.069 184.879, 134.097 186.329 L 128.694 188.967 126.192 186.465 C 124.443 184.716, 123.061 184.151, 121.595 184.589 C 116.494 186.112, 116.500 186.077, 116.500 216.432 C 116.500 242.038, 116.670 244.979, 118.250 246.724 C 119.213 247.788, 120 249.320, 120 250.129 C 120 253.062, 122.377 254, 129.806 254 L 137.212 254 133.856 257.035 C 132.010 258.704, 129.124 261.334, 127.441 262.879 C 113.867 275.344, 108.257 292, 117.633 292 C 120.515 292, 124.181 287.505, 138.624 266.264 C 143.046 259.760, 144.091 257.499, 143.593 255.514 C 143.011 253.194, 143.227 253, 146.399 253 C 148.290 253, 150.515 252.739, 151.345 252.421 C 152.446 251.999, 152.720 252.354, 152.358 253.737 C 151.991 255.143, 154.342 258.003, 161.469 264.816 C 166.753 269.867, 171.460 274, 171.929 274 C 172.398 274, 174.936 275.780, 177.569 277.955 C 188.545 287.026, 201.344 290.962, 203.961 286.072 C 205.907 282.437, 204.160 280.171, 195.500 275.094 C 192.750 273.482, 189.375 271.114, 188 269.831 C 185.477 267.478, 182.486 265.361, 169.605 256.807 C 163.641 252.847, 162.847 252.005, 164.519 251.410 C 170.770 249.185, 173 247.954, 173 246.727 C 173 245.971, 174.644 244.936, 176.653 244.426 C 179.004 243.830, 181.401 242.141, 183.382 239.683 C 185.999 236.435, 186.557 234.723, 187.128 228.183 C 187.496 223.958, 187.562 213.525, 187.273 205 C 186.625 185.856, 185.126 181.208, 178.577 178.037 C 173.258 175.462, 171.985 175.533, 158 179.174 M 164.500 190.122 C 156.529 192.030, 148.386 194.299, 142.933 196.130 C 139.872 197.159, 135.532 198, 133.290 198 C 130.432 198, 129.026 198.491, 128.583 199.643 C 128.237 200.547, 128.193 201.526, 128.486 201.820 C 129.125 202.458, 145.756 200.330, 155.315 198.386 C 164.907 196.436, 168.704 196.578, 169.965 198.934 C 171.469 201.744, 171.235 204.560, 169.370 206.108 C 165.716 209.140, 141.677 215, 132.890 215 C 129.140 215, 128 215.361, 128 216.550 C 128 217.839, 128.966 217.999, 133.750 217.500 C 147.915 216.023, 164.629 215.330, 166.227 216.155 C 169.259 217.719, 170.331 220.846, 168.692 223.347 C 166.933 226.032, 160.515 227.814, 148.339 229 C 143.478 229.473, 136.947 230.175, 133.827 230.559 L 128.154 231.257 127.827 238.131 C 127.647 241.911, 127.725 245.003, 128 245.002 C 128.275 245, 130.975 244.049, 134 242.887 C 138.103 241.312, 143.140 240.570, 153.833 239.968 C 174.619 238.796, 175.053 238.215, 174.900 211.782 C 174.845 202.277, 174.490 193.375, 174.111 192 C 173.319 189.130, 170.745 188.627, 164.500 190.122" stroke="none" fill="black" fill-rule="evenodd"/>
</svg>