<svg xmlns="http://www.w3.org/2000/svg" width="300" height="300" viewBox="0 0 300 300" version="1.1">
	<path d="M 90.172 29.570 C 86.437 31.140, 84.480 35.159, 86.035 38.065 C 86.604 39.129, 87.730 40, 88.535 40 C 90.349 40, 90.348 40.216, 88.473 49.130 C 87.056 55.863, 85.948 58.852, 80.919 69.500 C 77.268 77.231, 71.047 93.235, 70.444 96.446 C 69.805 99.852, 71.757 103, 74.506 103 C 78.976 103, 81.004 100.877, 85.454 91.543 C 89.330 83.412, 90.358 82, 92.396 82 C 94.412 82, 104.734 79.190, 109.651 77.304 C 110.806 76.861, 110.864 77.204, 109.968 79.170 C 107.835 83.852, 114.591 97.689, 120.773 101.299 C 127.854 105.435, 132.247 100.400, 127.571 93.509 C 126.157 91.426, 124.990 88.996, 124.978 88.110 C 124.966 87.225, 124.076 85.375, 123 84 C 121.924 82.625, 121.034 81.130, 121.022 80.679 C 120.990 79.498, 118.823 77.523, 116.500 76.556 C 114.608 75.770, 114.635 75.684, 117 74.962 C 122.011 73.433, 127.597 73.897, 129.500 76 C 134.416 81.433, 141.565 74.661, 137.982 67.966 C 137.421 66.919, 135.019 64.924, 132.644 63.531 C 126.968 60.205, 120.647 60.224, 109.265 63.600 C 104.444 65.030, 99.713 66.432, 98.750 66.717 C 96.528 67.373, 96.554 66.795, 98.959 62.081 C 101.171 57.744, 102.981 48.009, 102.992 40.385 C 103.005 31.824, 96.953 26.719, 90.172 29.570 M 177.635 30.073 C 175.704 31.591, 175 33.061, 175 35.573 C 175 37.458, 175.405 39, 175.900 39 C 177.470 39, 179.267 48.931, 178.603 53.937 C 177.798 60.003, 173.126 73.709, 169.202 81.514 C 167.539 84.821, 163.663 90.596, 160.589 94.347 C 157.515 98.097, 155 101.703, 155 102.360 C 155 104.823, 158.164 108, 160.617 108 C 163.714 108, 172.070 100.310, 178.524 91.519 C 183.012 85.406, 183.247 85.246, 188.712 84.604 C 191.789 84.242, 197.500 82.896, 201.403 81.612 C 214.617 77.265, 228.484 73.116, 232 72.458 C 236.617 71.595, 240.008 69.368, 239.968 67.227 C 239.818 59.065, 227.778 59.470, 199.634 68.583 C 193.658 70.518, 188.642 71.966, 188.487 71.801 C 188.333 71.635, 189.092 68.125, 190.175 64 C 192.829 53.887, 192.324 39.236, 189.137 33.908 C 187.245 30.745, 183.506 28, 181.088 28 C 180.638 28, 179.084 28.933, 177.635 30.073 M 212.687 82.805 C 209.549 86.080, 209.065 91.643, 211.583 95.486 C 212.488 96.868, 212.894 98.758, 212.532 99.900 C 210.945 104.901, 220.322 108.233, 223.443 103.777 C 226.541 99.355, 224.490 87.280, 219.792 82.278 C 217.019 79.326, 215.943 79.406, 212.687 82.805 M 140 114.755 C 135.639 116.225, 135.325 117.430, 135.273 132.866 C 135.244 141.326, 134.766 148.569, 134.161 149.699 C 133.196 151.503, 131.664 151.742, 117.300 152.338 C 108.610 152.698, 95.195 152.995, 87.490 152.997 C 73.874 153, 73.402 153.071, 70.740 155.540 C 67.360 158.675, 67.340 159.431, 70.556 162.647 L 73.113 165.204 101.482 164.852 L 129.850 164.500 129.317 167.500 C 127.720 176.479, 115.109 204.896, 99.804 234 C 94.818 243.482, 86.259 258.032, 85.097 259 C 84.767 259.275, 83.861 260.733, 83.085 262.240 C 82.308 263.748, 78.559 268.359, 74.754 272.489 C 68.123 279.685, 67.683 279.975, 64.168 279.464 C 59.461 278.779, 57.898 279.893, 57.781 284.014 C 57.586 290.865, 65.756 294.063, 73.849 290.304 C 78.558 288.117, 88.613 277.946, 94.073 269.846 C 96.425 266.356, 98.625 263.275, 98.961 263 C 100.634 261.631, 121.031 223.999, 125.829 213.428 C 132.495 198.742, 139.980 178.964, 142.627 169.042 C 143.428 166.040, 144.312 163.354, 144.593 163.074 C 146.623 161.043, 199.620 159.050, 209.250 160.642 C 212.534 161.185, 213 161.607, 213 164.039 C 213 170.665, 209.710 192.313, 207.307 201.500 C 205.868 207, 204.374 213.300, 203.986 215.500 C 203.599 217.700, 202.134 224, 200.730 229.500 C 197.555 241.943, 194 259.824, 194 263.348 C 194 266.848, 192.186 266.726, 187.388 262.903 C 185.249 261.199, 182.308 259.186, 180.851 258.429 C 178.481 257.198, 177.928 257.268, 175.601 259.099 C 170.518 263.098, 172.517 266.911, 184.972 276.967 C 193.878 284.158, 197.558 284.823, 202.659 280.164 C 205.273 277.777, 205.949 276.156, 206.933 269.914 C 208.791 258.134, 211.893 242.371, 214.592 231 C 215.962 225.225, 218.370 215.100, 219.942 208.500 C 224.747 188.338, 226.256 179.020, 226.770 166.357 L 227.262 154.214 224.564 151.857 C 221.656 149.317, 218.106 148.708, 199 147.472 C 192.084 147.024, 182.362 147.340, 170.515 148.396 C 160.623 149.278, 151.492 150, 150.224 150 L 147.918 150 148.521 138.750 C 149.296 124.301, 148.416 119.444, 144.493 116.498 C 142.847 115.261, 140.825 114.477, 140 114.755" stroke="none" fill="black" fill-rule="evenodd"/>
</svg>