<svg xmlns="http://www.w3.org/2000/svg" width="300" height="300" viewBox="0 0 300 300" version="1.1">
	<path d="M 207.309 15.250 C 204.568 19.485, 200.680 33.061, 198.467 46.120 L 196.837 55.741 191.669 56.362 C 188.826 56.703, 184.748 56.987, 182.606 56.991 L 178.712 57 179.393 48.750 C 179.767 44.212, 180.321 38.924, 180.625 36.997 C 181.042 34.346, 180.651 32.826, 179.016 30.747 C 176.456 27.493, 173.257 27.224, 169.767 29.969 C 167.581 31.688, 167.180 32.987, 166.607 40.219 C 166.245 44.773, 165.692 50.797, 165.378 53.605 L 164.806 58.709 149.653 60.921 C 133.404 63.292, 121.968 66.193, 118.387 68.850 C 115.397 71.070, 114.830 74.536, 117.118 76.607 C 118.673 78.014, 120.504 78.175, 129.225 77.670 C 138.752 77.119, 147.946 76.182, 160.622 74.469 L 165.743 73.776 166.440 80.638 C 167.375 89.840, 168.712 94.675, 170.511 95.366 C 171.330 95.680, 172 97.021, 172 98.346 C 172 103.503, 178.264 105.490, 188.407 103.549 C 202.705 100.814, 206.769 99.168, 211.546 94.183 C 216.378 89.140, 216.821 87.618, 214.443 84.223 C 212.385 81.285, 210.613 81.418, 203.773 85.023 L 198.046 88.042 202.513 78.864 C 204.970 73.817, 207.189 69.477, 207.446 69.221 C 207.702 68.965, 215.694 68.417, 225.206 68.005 C 244.548 67.166, 249.482 65.913, 250.573 61.566 C 251.438 58.117, 250.368 54.267, 248.224 53.120 C 247.116 52.527, 240.039 52.640, 228.986 53.428 C 219.369 54.114, 211.409 54.620, 211.299 54.553 C 211.188 54.486, 212.267 49.496, 213.696 43.465 C 217.044 29.341, 217.508 24.570, 215.986 19.958 C 214.407 15.172, 209.191 12.342, 207.309 15.250 M 104.222 34.126 C 102.080 34.744, 96.850 39.130, 89.126 46.786 C 81.674 54.172, 75.008 59.793, 71.084 62 C 56.803 70.030, 50.284 74.734, 49.587 77.509 C 48.804 80.630, 51.152 84, 54.110 84 C 56.084 84, 76.145 75.702, 79.750 73.394 C 82.528 71.616, 82.539 71.772, 80.500 85 C 79.695 90.225, 79.028 96.135, 79.018 98.133 C 79.005 100.710, 78.491 101.924, 77.250 102.308 C 71.350 104.135, 60.310 108.403, 58.563 109.534 C 57.428 110.268, 53.931 111.823, 50.792 112.990 C 41.570 116.418, 37.104 124.070, 41.829 128.345 C 44.680 130.926, 46.994 130.421, 61.730 124.003 C 69.304 120.705, 75.838 118.005, 76.250 118.003 C 76.662 118.002, 77 119.215, 77 120.700 C 77 122.800, 76.733 123.133, 75.800 122.200 C 74.061 120.461, 71.621 120.723, 68.784 122.955 C 66.957 124.392, 65.565 127.507, 63.533 134.705 C 62.013 140.092, 60.336 145.322, 59.807 146.327 C 59.279 147.332, 58.247 150.257, 57.514 152.827 C 55.686 159.234, 42.572 191.491, 39.353 197.500 C 38.468 199.150, 35.997 203.795, 33.860 207.822 C 31.723 211.849, 28.855 216.791, 27.487 218.804 C 23.459 224.732, 24.265 228.762, 29.820 230.467 C 31.694 231.042, 32.855 230.427, 35.861 227.267 C 44.909 217.755, 56.434 196.833, 64.377 175.500 C 66.835 168.900, 69.832 161.250, 71.037 158.500 C 72.243 155.750, 73.622 152.375, 74.103 151 C 74.654 149.424, 74.804 152.567, 74.509 159.500 C 74.252 165.550, 73.746 193.108, 73.386 220.739 C 72.856 261.367, 72.469 271.196, 71.365 272.112 C 69.518 273.645, 69.638 278.495, 71.571 280.429 C 73.354 282.211, 78.201 282.498, 81.022 280.988 C 82.062 280.432, 83.418 278.294, 84.037 276.238 C 84.702 274.028, 85.782 251.861, 86.680 222 C 87.515 194.225, 88.317 171.375, 88.461 171.222 C 88.605 171.069, 89.952 171.412, 91.455 171.983 C 92.958 172.554, 98.083 173.666, 102.844 174.454 C 107.605 175.241, 112.916 176.183, 114.646 176.547 C 117.088 177.060, 118.262 176.738, 119.896 175.104 C 122.728 172.272, 122.567 171.270, 118.684 167.609 C 114.985 164.120, 107.534 161.507, 98.500 160.530 C 88.072 159.402, 88.707 160.236, 89.443 148.651 C 89.797 143.068, 90.565 132.200, 91.149 124.500 L 92.210 110.500 99.547 103.720 C 108.066 95.847, 109.270 93.446, 106.016 90.812 C 103.044 88.405, 100.976 88.527, 96.809 91.355 L 93.338 93.710 92.143 82.240 C 91.485 75.931, 90.466 69.871, 89.878 68.772 C 88.937 67.013, 90.095 65.488, 99.521 56.070 C 113.370 42.233, 115.407 38.488, 111.171 34.655 C 109.132 32.810, 108.857 32.789, 104.222 34.126 M 181.250 71.706 C 179.117 72.117, 179 72.603, 179 81.070 L 179 90 183.327 90 C 187.476 90, 187.637 89.887, 187.260 87.250 C 187.036 85.685, 187.972 82.010, 189.433 78.721 C 190.845 75.543, 192 72.506, 192 71.971 C 192 71.015, 185.650 70.858, 181.250 71.706 M 224 103.601 C 209.648 105.591, 198.356 107.657, 186.500 110.461 C 181 111.762, 173.350 113.502, 169.500 114.328 C 165.650 115.153, 158 116.955, 152.500 118.331 C 147 119.707, 137.810 121.355, 132.078 121.994 C 119.877 123.352, 114.210 125.319, 112.950 128.631 C 111.445 132.590, 112.719 134, 117.805 134 C 120.330 134, 126.101 134.536, 130.629 135.190 C 139.637 136.493, 142.366 136.055, 179 127.429 C 202.832 121.817, 220.279 118.176, 229.546 116.880 C 238.687 115.601, 242.208 113.703, 243.442 109.389 C 244.258 106.540, 241.273 103.117, 237.500 102.576 C 235.850 102.339, 229.775 102.801, 224 103.601 M 194 143.679 C 172.176 146.130, 161.809 149.191, 156.143 154.857 C 153.398 157.602, 152.315 162.470, 153.998 164.498 C 155.767 166.629, 157.470 166.379, 162.118 163.303 C 165.580 161.012, 167.519 160.543, 175.019 160.185 L 183.846 159.763 182.467 163.631 C 181.708 165.759, 181.068 168.257, 181.044 169.182 C 181.010 170.463, 179.154 171.253, 173.250 172.499 C 168.988 173.399, 162.657 174.962, 159.182 175.972 C 151.988 178.063, 152.609 178.667, 150.994 168 C 149.459 157.866, 148.376 154.702, 145.526 152.025 C 142.703 149.372, 138.539 149.831, 137.741 152.883 C 136.310 158.355, 137.014 176.082, 139.019 185.058 C 140.178 190.251, 142.030 199.225, 143.134 205 C 144.593 212.630, 145.699 215.978, 147.181 217.250 C 149.755 219.457, 152.378 219.479, 154.545 217.312 C 155.988 215.869, 156.180 213.868, 155.867 203.562 L 155.500 191.500 166 189.312 C 171.775 188.108, 177.287 187.095, 178.250 187.062 C 180.682 186.976, 180.458 189.486, 176.876 202.500 C 175.211 208.550, 173.765 215.032, 173.662 216.904 C 173.521 219.488, 172.877 220.562, 170.988 221.360 C 169.620 221.938, 165.016 225.279, 160.758 228.785 C 154.154 234.223, 153.162 235.434, 154.013 237.024 C 154.562 238.050, 155.500 239.191, 156.099 239.561 C 158.247 240.889, 165.226 240.084, 169.106 238.062 C 171.282 236.928, 173.231 236, 173.437 236 C 173.643 236, 171.077 240.159, 167.733 245.243 C 161.490 254.736, 157.922 261.872, 154.018 272.676 C 152.790 276.074, 150.934 279.767, 149.893 280.885 C 146 285.063, 148.704 291, 154.500 291 C 158.844 291, 165.017 283.917, 168.974 274.391 C 170.777 270.051, 175.337 260.334, 179.108 252.799 L 185.965 239.097 191.232 240.646 C 197.119 242.377, 197.009 242.295, 208.862 253.762 C 213.558 258.305, 221.146 264.605, 225.722 267.762 C 230.299 270.918, 236.384 275.188, 239.245 277.250 C 243.447 280.279, 245.326 281, 249.023 281 C 254.219 281, 256.009 279.725, 255.978 276.050 C 255.955 273.243, 251.498 268.855, 239.500 259.828 C 231.857 254.078, 228.961 251.663, 222.061 245.284 C 213.301 237.188, 205.389 232.339, 198.735 230.991 L 192.500 229.728 196.500 227.890 C 198.700 226.880, 201.400 226.043, 202.500 226.032 C 207.246 225.982, 220.167 219.675, 224.596 215.246 C 228.561 211.281, 229.062 210.284, 228.926 206.631 C 228.841 204.359, 229.902 199.125, 231.285 195 C 243.077 159.811, 243.183 159.263, 239.655 151.558 C 236.007 143.589, 232.271 142.004, 217.500 142.160 C 211.450 142.223, 200.875 142.907, 194 143.679 M 209.500 156.658 C 207.850 156.854, 204.629 157.258, 202.343 157.555 L 198.187 158.095 197.843 163.048 C 197.645 165.906, 197.923 168.008, 198.500 168.017 C 199.050 168.025, 205.256 167.019, 212.290 165.780 C 223.832 163.747, 225.136 163.307, 225.648 161.266 C 226.749 156.879, 225.554 155.988, 218.781 156.150 C 215.327 156.232, 211.150 156.461, 209.500 156.658 M 208.969 180.420 C 202.626 182.114, 196.889 183.864, 196.219 184.309 C 195.548 184.754, 195 186.844, 195 188.954 C 195 193.305, 191.735 204.612, 188.829 210.325 C 187.759 212.428, 187.022 214.500, 187.192 214.928 C 187.361 215.356, 193.326 213.786, 200.446 211.439 C 211.059 207.941, 213.550 206.751, 214.266 204.836 C 215.547 201.414, 221.217 177.869, 220.830 177.583 C 220.649 177.449, 215.311 178.725, 208.969 180.420" stroke="none" fill="black" fill-rule="evenodd"/>
</svg>