<svg xmlns="http://www.w3.org/2000/svg" width="300" height="300" viewBox="0 0 300 300" version="1.1">
	<path d="M 88.512 36.367 C 86.567 37.790, 83.145 50.034, 83.794 53.250 C 83.988 54.212, 85.014 55, 86.073 55 C 87.649 55, 88 55.717, 88 58.935 C 88 70.784, 82.254 86.767, 71.196 105.674 C 68.888 109.620, 67 113.713, 67 114.769 C 67 119.299, 74.152 121.729, 77.247 118.250 C 80.331 114.785, 90.735 98.386, 92.773 93.781 C 95.081 88.562, 95.449 88.397, 106.500 87.620 C 110.350 87.350, 114.625 86.797, 116 86.391 C 118.327 85.704, 118.396 85.780, 117 87.480 C 115.959 88.748, 115.500 91.629, 115.500 96.903 C 115.500 103.709, 115.816 104.968, 118.533 108.993 C 121.949 114.051, 124.258 114.981, 127.074 112.433 C 129.433 110.298, 129.489 108.386, 127.340 103.372 C 126.427 101.242, 125.409 96.037, 125.078 91.804 C 124.405 83.192, 124.526 83.042, 132.179 83.014 C 141.699 82.978, 140.688 73.791, 130.964 71.977 C 128.164 71.455, 121.488 71.667, 113.056 72.545 C 105.662 73.315, 99.484 73.817, 99.328 73.661 C 99.171 73.505, 99.481 70.705, 100.016 67.438 C 102.462 52.504, 100.552 40.953, 94.982 36.987 C 91.675 34.632, 90.976 34.566, 88.512 36.367 M 162.033 40.460 C 161.366 41.264, 160.439 46.101, 159.972 51.210 C 158.883 63.121, 155.489 81.575, 152.773 90.362 C 150.594 97.409, 150.824 99.225, 154.162 101.330 C 157.449 103.404, 160.866 101.208, 163.995 95.011 C 165.648 91.736, 167 88.203, 167 87.158 C 167 85.725, 168.163 84.973, 171.750 84.087 C 174.363 83.442, 178.525 82.209, 181 81.347 C 183.475 80.485, 187.371 79.188, 189.659 78.465 L 193.817 77.151 192.872 80.325 C 192.352 82.071, 192.212 86.088, 192.562 89.251 C 193.092 94.057, 192.846 95.595, 191.066 98.612 C 188.608 102.779, 189.012 105.133, 192.508 107.004 C 196.040 108.895, 199.249 107.138, 202.550 101.506 C 204.989 97.342, 205.257 95.907, 205.332 86.553 C 205.388 79.700, 204.999 75.704, 204.181 74.718 C 203.159 73.486, 203.338 73.129, 205.223 72.641 C 208.552 71.779, 213 67.574, 213 65.289 C 213 62.117, 209.555 59.643, 206.290 60.469 C 204.756 60.857, 201.104 61.568, 198.176 62.047 C 195.247 62.527, 188.350 64.327, 182.847 66.048 C 177.345 67.768, 172.583 68.916, 172.265 68.599 C 171.948 68.281, 172.228 63.563, 172.889 58.113 C 174.145 47.748, 173.751 43.674, 171.211 40.750 C 169.357 38.617, 163.711 38.438, 162.033 40.460 M 148.241 106.986 C 147.436 108.275, 147 113.109, 147 120.744 L 147 132.515 133.750 134.802 C 114.003 138.211, 95.091 142.020, 89.894 143.634 C 84.327 145.364, 80.707 148.897, 81.168 152.152 C 81.467 154.270, 82.039 154.514, 87 154.644 C 93.400 154.811, 103.076 153.695, 118.500 151.012 C 124.550 149.960, 133.438 148.488, 138.250 147.740 L 147 146.381 147 152.008 L 147 157.635 141.250 159.436 C 129.549 163.101, 123.676 168.495, 127.011 172.513 C 129.051 174.971, 137.434 174.223, 160.998 169.478 C 167.322 168.205, 172.643 167.310, 172.822 167.489 C 173.001 167.668, 172.464 169.136, 171.629 170.751 C 170.794 172.366, 169.803 176.008, 169.426 178.844 C 168.855 183.154, 168.406 184, 166.691 184 C 161.813 184, 128.447 192.442, 117 196.573 C 113.425 197.863, 108.250 199.653, 105.500 200.550 C 98.932 202.695, 96.115 204.568, 94.983 207.544 C 92.995 212.773, 95.766 214.550, 102.717 212.504 C 105.348 211.729, 110.650 210.608, 114.500 210.013 C 118.350 209.417, 124.425 208.077, 128 207.035 C 136.152 204.658, 153.231 200.579, 162.750 198.737 L 170 197.334 170 204.452 C 170 208.366, 171.072 218.304, 172.382 226.535 C 176.188 250.442, 178.447 275.868, 176.903 277.425 C 176.332 278.001, 163.910 274.211, 157.385 271.470 C 155.672 270.750, 151.235 269.400, 147.526 268.470 C 138.613 266.234, 135.735 267.299, 136.190 272.664 C 136.492 276.224, 136.727 276.418, 145.572 280.408 C 164.718 289.044, 172.896 292, 177.647 292 C 181.836 292, 186.881 289.243, 188.974 285.810 C 191.973 280.891, 191.803 261.131, 188.592 241.339 C 186.516 228.546, 184.168 212.254, 182.453 198.750 C 182.066 195.705, 182.295 195, 183.670 195 C 184.602 195, 188.994 194.025, 193.432 192.832 C 199.465 191.211, 202.320 189.850, 204.750 187.432 C 208.481 183.721, 209.068 179.276, 206.171 176.655 C 203.713 174.430, 202.085 174.570, 199.239 177.250 C 197.583 178.809, 194.647 179.844, 189.675 180.620 C 185.729 181.236, 182.347 181.608, 182.161 181.448 C 181.974 181.287, 182.328 177.895, 182.946 173.910 C 183.802 168.393, 184.658 166.119, 186.535 164.380 C 189.808 161.347, 189.747 157.738, 186.392 155.942 C 183.387 154.334, 178.670 154.194, 167.750 155.388 L 160 156.235 160 150.351 L 160 144.467 171.250 142.079 C 177.438 140.766, 184.750 139.356, 187.500 138.947 C 194.685 137.877, 203.973 134.133, 206.675 131.217 C 210.365 127.235, 209.876 121.976, 205.453 118.093 C 202.572 115.563, 201.545 115.173, 199.976 116.013 C 197.755 117.201, 196.090 120.002, 196.663 121.583 C 197.101 122.793, 193.120 124.085, 182 126.341 C 169.225 128.933, 162.656 129.989, 162.191 129.525 C 161.946 129.279, 161.433 124.573, 161.051 119.065 C 160.523 111.451, 159.917 108.566, 158.523 107.026 C 156.037 104.278, 149.947 104.255, 148.241 106.986 M 152.071 230.530 C 150.735 231.263, 146.255 232.180, 142.116 232.568 C 134.315 233.299, 129.076 234.937, 127.326 237.192 C 123.644 241.935, 126.163 245.784, 133.500 246.630 C 137.230 247.060, 140.025 246.656, 144.500 245.041 C 147.800 243.850, 151.625 242.621, 153 242.310 C 156.606 241.494, 162 237.196, 162 235.138 C 162 232.785, 158.349 228.976, 156.211 229.098 C 155.270 229.152, 153.407 229.796, 152.071 230.530" stroke="none" fill="black" fill-rule="evenodd"/>
</svg>