<svg xmlns="http://www.w3.org/2000/svg" width="300" height="300" viewBox="0 0 300 300" version="1.1">
	<path d="M 170.751 18.689 C 169.789 18.941, 168.768 20.351, 168.483 21.823 C 165.550 36.987, 160.094 55.098, 155.026 66.500 C 149.893 78.048, 148.875 81.031, 149.173 83.642 C 149.460 86.148, 149.958 86.538, 153.225 86.809 C 156.748 87.101, 157.133 86.830, 160.326 81.809 C 162.183 78.889, 164.458 74.892, 165.381 72.928 C 166.830 69.842, 167.449 69.412, 169.917 69.774 C 171.489 70.005, 173.838 69.512, 175.137 68.678 C 177.265 67.314, 180.541 66.288, 188 64.652 C 190.458 64.113, 190.502 64.213, 190.624 70.637 C 190.719 75.594, 191.262 77.863, 192.874 80.044 C 194.044 81.625, 195 83.751, 195 84.768 C 195 90.925, 203.106 92.383, 205.499 86.657 C 206.699 83.785, 206.693 82.443, 205.455 77.138 C 204.663 73.741, 202.903 68.768, 201.544 66.087 L 199.074 61.212 202.287 59.994 C 216.297 54.685, 221 51.120, 221 45.813 C 221 41.338, 217.986 40.484, 211.210 43.040 C 205.756 45.097, 201.899 46.261, 185 50.949 C 180.875 52.094, 176.771 53.260, 175.881 53.541 C 174.558 53.958, 174.878 52.196, 177.631 43.892 C 181.727 31.539, 182.347 20.791, 179.066 19.035 C 177.107 17.987, 173.941 17.855, 170.751 18.689 M 79.589 22.077 C 76.717 25.490, 76.193 29.476, 78.500 30.362 C 79.695 30.820, 80 32.969, 80 40.920 C 80 51.387, 79.142 55.722, 74.142 70.500 C 67.906 88.935, 66.909 91.500, 63.931 96.776 C 61.055 101.872, 60.973 102.310, 62.465 104.587 C 66.023 110.018, 74.956 105.149, 78.973 95.589 C 83.578 84.632, 86.895 76.097, 88.070 72.181 C 89.178 68.489, 89.666 67.958, 91.433 68.523 C 92.570 68.886, 97.392 69.420, 102.150 69.709 L 110.800 70.235 109.437 73.496 C 108.187 76.489, 108.288 77.186, 110.672 81.970 C 113.447 87.539, 119.102 92.424, 124.022 93.505 C 130.424 94.911, 136.297 88.196, 132.416 83.907 C 131.432 82.820, 129.473 81.378, 128.063 80.704 C 125.841 79.640, 124.636 77.821, 120.973 70 C 120.406 68.789, 121.894 68.176, 128.699 66.819 C 133.335 65.895, 137.774 64.602, 138.564 63.947 C 140.865 62.038, 140.257 58.348, 137.250 55.971 C 134.713 53.965, 133.765 53.846, 125 54.428 C 119.775 54.774, 110.439 55.319, 104.253 55.637 L 93.005 56.216 93.626 44.358 C 94.330 30.920, 93.314 25.405, 89.419 21.509 C 86.027 18.118, 82.762 18.306, 79.589 22.077 M 200.289 108.781 C 199.305 109.760, 197.375 111.058, 196 111.666 C 193.076 112.957, 164.473 119.036, 161.419 119.014 C 160.232 119.006, 158.763 117.925, 158 116.500 C 155.962 112.692, 152.429 113.171, 150.876 117.465 C 149.397 121.557, 149.526 121.496, 139.407 122.965 C 128.951 124.483, 98.170 129.942, 95 130.840 C 93.223 131.343, 92.500 132.243, 92.500 133.952 C 92.500 137.087, 95.294 137.857, 109.500 138.635 C 119.532 139.184, 142.785 137.171, 147.557 135.340 C 148.752 134.881, 149 136.424, 149 144.322 L 149 153.858 143.750 155.288 C 137.711 156.933, 128.336 158.694, 119.047 159.927 C 114.389 160.545, 112.119 161.369, 110.889 162.888 C 107.725 166.796, 110.361 170.390, 117.585 172.019 C 120.776 172.739, 122.068 172.592, 139.331 169.557 C 144.738 168.607, 149.296 167.980, 149.460 168.164 C 149.625 168.349, 150.082 175.813, 150.477 184.750 L 151.194 201 147.834 201 C 143.245 201, 135.925 206.117, 128.500 214.514 C 114.857 229.944, 111.171 233.782, 104.505 239.500 C 92.991 249.376, 81.659 261.264, 79.036 266.217 C 76.623 270.775, 76.610 270.912, 78.441 272.935 C 81.422 276.229, 84.332 275.464, 90.566 269.750 C 93.716 266.863, 101.932 259.775, 108.824 254 C 119.898 244.720, 134.715 229.418, 142.767 218.944 L 145.501 215.389 148.751 217.286 C 151.813 219.075, 151.999 219.510, 151.989 224.842 C 151.983 227.954, 152.509 240.269, 153.157 252.209 C 154.124 270.009, 154.094 275.204, 152.988 281.062 C 151.504 288.931, 152.138 291.268, 155.910 291.827 C 160.769 292.548, 165.156 286.841, 166.894 277.538 C 167.631 273.593, 166.861 246.170, 165.651 233.298 L 165.257 229.096 169.878 231.539 C 177.542 235.591, 183.647 239.296, 189.216 243.277 C 203.911 253.780, 216.878 260.291, 235.285 266.410 C 241.222 268.383, 242.382 268.387, 246.460 266.452 C 252.045 263.802, 253.061 257.396, 248.382 254.331 C 246.360 253.006, 245.497 252.931, 243.651 253.919 C 241.709 254.959, 240.293 254.627, 233.548 251.553 C 229.233 249.587, 223.710 247.302, 221.274 246.475 C 218.838 245.648, 209.684 240.253, 200.931 234.486 C 192.179 228.718, 184.780 224, 184.489 224 C 184.198 224, 182.282 222.970, 180.230 221.710 C 178.179 220.451, 173.993 218.653, 170.930 217.716 L 165.359 216.011 164.166 194.756 C 163.510 183.065, 162.979 171.644, 162.986 169.375 L 163 165.251 171.750 162.215 C 180.029 159.342, 195.479 156.105, 196.357 157.059 C 196.580 157.302, 196.479 164.700, 196.131 173.500 L 195.500 189.500 191.192 189.176 C 185.909 188.779, 184 190.219, 184 194.599 C 184 199.352, 187.578 201.500, 195.496 201.500 C 200.481 201.500, 202.147 201.048, 204.722 199 C 206.449 197.625, 208.163 195.825, 208.529 195 C 208.895 194.175, 209.607 184.540, 210.111 173.589 C 210.957 155.241, 210.886 153.403, 209.214 150.181 C 207.049 146.009, 201.899 143, 196.925 143 C 192.110 143, 175.932 146.446, 168.633 149.026 C 165.406 150.166, 162.618 150.951, 162.436 150.769 C 162.254 150.587, 161.794 146.322, 161.414 141.290 L 160.724 132.142 164.612 131.571 C 173.656 130.241, 197.697 125.636, 200 124.793 C 203.206 123.619, 208.930 118.175, 210.093 115.194 C 211.518 111.543, 208.702 107, 205.013 107 C 203.399 107, 201.273 107.801, 200.289 108.781 M 97.018 155.740 C 92.718 157.427, 92.513 158.499, 92.183 180.934 C 91.861 202.771, 92.420 207.457, 95.487 208.633 C 97.994 209.595, 101.559 208.200, 102.787 205.777 C 104.037 203.308, 106.461 162.029, 105.528 159.089 C 105.217 158.107, 103.824 156.785, 102.434 156.152 C 99.688 154.901, 99.242 154.867, 97.018 155.740" stroke="none" fill="black" fill-rule="evenodd"/>
</svg>