<svg xmlns="http://www.w3.org/2000/svg" width="300" height="300" viewBox="0 0 300 300" version="1.1">
	<path d="M 167.798 13.341 C 163.953 14.780, 163.182 17.600, 162.016 34.500 C 161.375 43.789, 160.016 53.497, 158.446 60 C 154.566 76.074, 154.473 77.213, 156.861 79.374 C 160.934 83.060, 166.490 78.606, 168.764 69.831 C 169.547 66.811, 169.988 66.584, 180.539 63.788 C 197.656 59.251, 197.216 59.291, 196.445 62.363 C 195.967 64.267, 196.626 66.448, 198.896 70.469 C 200.848 73.929, 202 77.370, 202 79.744 C 202 83.882, 204.735 86.588, 207.813 85.497 C 211.181 84.302, 214.167 79.193, 214.167 74.622 C 214.167 70.108, 210.526 61.511, 207.578 59.065 C 205.040 56.958, 205.687 56.233, 211.151 55.061 C 217.496 53.700, 227.461 48.500, 230.064 45.192 C 232.562 42.016, 232.525 38.785, 229.965 36.468 C 227.985 34.676, 227.768 34.686, 221.965 36.813 C 208.685 41.682, 205.038 42.769, 180.646 49.137 C 178.526 49.690, 176.204 50.368, 175.486 50.644 C 174.465 51.036, 174.366 50.312, 175.033 47.322 C 176.748 39.636, 177.965 20.018, 176.876 17.627 C 175.268 14.099, 171.069 12.116, 167.798 13.341 M 92.924 27.579 C 90.660 29.988, 90.464 31.094, 89.948 44.329 C 89.318 60.503, 87.445 67.427, 79.266 83.832 C 74.139 94.116, 74.208 96.248, 79.688 96.801 C 82.099 97.044, 83.375 96.328, 86.308 93.081 C 89.907 89.097, 95.681 78.777, 96.957 74.045 C 97.496 72.048, 99.103 71.079, 105.560 68.854 C 116.261 65.166, 122.494 65.106, 118.875 68.725 C 116.723 70.877, 118.835 79.035, 122.490 82.690 C 125.262 85.462, 126.536 86, 130.329 86 C 134.838 86, 138 84.194, 138 81.617 C 138 79.894, 134.216 76, 132.541 76 C 130.666 76, 129.604 70.608, 130.975 68.047 C 131.584 66.909, 131.951 65.204, 131.791 64.259 C 131.565 62.927, 133.255 61.949, 139.316 59.905 C 143.615 58.455, 147.627 56.773, 148.232 56.168 C 149.807 54.593, 149.593 48.993, 147.917 47.904 C 146.007 46.664, 137.510 47.676, 126 50.513 C 120.775 51.801, 113.951 53.112, 110.835 53.426 C 107.719 53.740, 104.557 54.233, 103.807 54.520 C 102.677 54.954, 102.605 53.477, 103.383 45.847 C 104.062 39.193, 103.989 35.385, 103.120 32.075 C 101.197 24.753, 97.227 23.002, 92.924 27.579 M 105.189 109.028 C 102.654 111.749, 101.127 117.200, 100.360 126.265 L 99.725 133.785 93.612 135.007 C 90.251 135.679, 84.960 136.852, 81.856 137.614 C 78.751 138.376, 74.909 139, 73.318 139 C 71.611 139, 69.043 140.153, 67.057 141.812 C 64.254 144.151, 63.801 145.072, 64.359 147.293 C 65.201 150.648, 69.606 153, 75.048 153 C 77.328 153, 83.851 151.775, 89.542 150.278 C 95.234 148.781, 100.126 147.793, 100.415 148.082 C 100.704 148.370, 101.949 162.916, 103.182 180.406 L 105.425 212.205 100.898 216.353 C 83.878 231.949, 78.812 236.420, 73.500 240.535 C 67.258 245.371, 64 248.464, 64 249.554 C 64 249.904, 63.058 251.514, 61.907 253.131 C 60.755 254.748, 60.069 256.737, 60.381 257.551 C 61.293 259.928, 66.040 261.303, 68.875 260.011 C 74.972 257.233, 83.367 250.773, 93.500 241.062 L 104.500 230.521 104.789 249.010 C 105.077 267.420, 104.245 274.898, 101.616 277.527 C 100.776 278.367, 97.985 278.767, 93.701 278.662 C 88.547 278.536, 86.690 278.893, 85.302 280.276 C 82.391 283.177, 85.210 286.880, 92.470 289.692 C 102.952 293.753, 108.849 292.102, 114.121 283.631 C 117.820 277.688, 119.231 264.256, 118.880 238.330 L 118.620 219.160 129.822 207.508 C 142.424 194.399, 144.739 190.917, 143.158 187.448 C 141.554 183.927, 138.411 183.463, 134.445 186.163 C 132.558 187.448, 131.011 188.846, 131.007 189.269 C 130.999 190.115, 118.828 201.987, 117.959 201.995 C 117.191 202.002, 113.709 152.321, 114.141 147.522 C 114.482 143.746, 114.702 143.510, 118.500 142.860 C 123.838 141.946, 134.071 138.116, 136.250 136.216 C 138.800 133.993, 138.437 130.333, 135.474 128.391 C 133.130 126.855, 132.360 126.853, 124.724 128.369 C 120.201 129.267, 115.938 130.001, 115.250 130.001 C 114.335 130, 114 127.364, 114 120.155 C 114 111.887, 113.707 110.045, 112.171 108.655 C 109.732 106.448, 107.480 106.568, 105.189 109.028 M 214 133.152 C 210.975 134.254, 205.125 135.592, 201 136.123 C 186.119 138.039, 181 140.665, 181 146.381 C 181 151.598, 182.892 153.308, 188.071 152.771 C 193.329 152.226, 211.546 148.473, 218.205 146.563 L 222.909 145.213 223.415 149.356 C 224.350 157.006, 225.008 211.460, 224.209 214.997 C 223.423 218.477, 223.372 218.505, 212.960 221.200 C 207.207 222.688, 201.375 223.923, 200 223.944 C 197.877 223.976, 177.470 228.689, 164.693 232.099 C 157 234.151, 154.839 239.565, 159.750 244.479 C 162.331 247.062, 162.913 247.202, 169.235 246.750 C 172.940 246.486, 176.540 245.814, 177.235 245.257 C 177.931 244.700, 181.875 243.468, 186 242.517 C 190.125 241.567, 197.325 239.749, 202 238.477 C 206.675 237.206, 211.914 235.878, 213.642 235.527 C 215.370 235.176, 218.873 233.564, 221.427 231.944 C 223.980 230.325, 226.588 229, 227.223 229 C 230.356 229, 235.114 224.242, 237.007 219.216 C 239.856 211.652, 241.124 194.640, 239.987 179.227 C 236.838 136.536, 236.806 136.328, 232.736 132.933 C 229.731 130.425, 221.204 130.525, 214 133.152 M 166.099 135.601 C 164.973 137.032, 163.761 139.759, 163.404 141.662 C 163.047 143.564, 163.158 162.081, 163.650 182.810 C 164.665 225.515, 164.796 226.274, 171.223 226.808 C 175.572 227.170, 175.433 227.512, 177.002 212.595 C 177.660 206.336, 177.793 190.602, 177.362 169.862 C 176.735 139.664, 176.530 136.873, 174.801 135.017 C 172.199 132.224, 168.563 132.468, 166.099 135.601" stroke="none" fill="black" fill-rule="evenodd"/>
</svg>