<svg xmlns="http://www.w3.org/2000/svg" width="300" height="300" viewBox="0 0 300 300" version="1.1">
	<path d="M 182.872 10.654 C 181.935 11.784, 181.473 15.351, 181.413 21.904 C 181.342 29.761, 180.757 33.279, 178.181 41.316 C 176.451 46.715, 174.095 53.240, 172.946 55.816 C 168.293 66.247, 166.716 72.081, 167.865 74.603 C 168.638 76.300, 169.766 76.996, 171.729 76.985 C 176.530 76.958, 176.754 76.692, 183.979 62.439 L 188.065 54.377 193.950 54.803 C 199.827 55.228, 203.930 54.214, 213.572 49.956 C 215.812 48.966, 220.087 47.419, 223.072 46.517 C 235.754 42.685, 237.474 41.709, 237.818 38.157 C 238.293 33.252, 236.671 32, 229.846 32 C 223.994 32, 221.917 32.568, 202.581 39.460 C 197.126 41.405, 192.477 42.810, 192.250 42.583 C 192.023 42.357, 192.268 41.345, 192.794 40.336 C 194.452 37.152, 196.102 25.066, 195.405 21.206 C 193.686 11.677, 186.820 5.896, 182.872 10.654 M 84.571 15.571 C 83.707 16.436, 82.994 18.123, 82.987 19.321 C 82.970 22.279, 79.605 32.806, 76.524 39.540 C 75.136 42.576, 74 45.484, 74 46.002 C 74 46.521, 72.877 49.320, 71.505 52.223 C 69.189 57.121, 67.557 62.097, 64.776 72.738 C 63.194 78.793, 64.780 82, 69.356 82 C 73.190 82, 74.520 80.820, 75.558 76.494 C 75.953 74.847, 76.771 72.600, 77.376 71.500 C 77.980 70.400, 80.295 65.225, 82.521 60 L 86.567 50.500 92.533 50.268 C 100.305 49.965, 119.291 46.418, 129.804 43.305 C 136.589 41.295, 138.281 40.391, 139.054 38.358 C 140.253 35.205, 140.281 35.424, 138.429 33.571 C 135.374 30.517, 111.627 32.675, 94.318 37.579 C 92.158 38.191, 92.151 38.150, 93.568 33.440 C 96.658 23.172, 94.524 14, 89.046 14 C 87.449 14, 85.436 14.707, 84.571 15.571 M 109.871 55.250 C 107.782 60.202, 108.110 70.732, 110.500 75.435 C 114.195 82.706, 121.965 86.035, 125.947 82.053 C 128.072 79.928, 128.012 75.988, 125.841 75.158 C 123.966 74.440, 118.047 60.574, 118.015 56.821 C 117.995 54.604, 115.314 52, 113.050 52 C 111.959 52, 110.699 53.288, 109.871 55.250 M 208.400 57.765 C 205.917 59.423, 204.844 63.232, 205.506 68.043 C 206.035 71.888, 207.065 73.866, 210.408 77.455 C 213.949 81.258, 215.240 82, 218.320 82 C 222.483 82, 226 79.219, 226 75.929 C 226 73.701, 223.833 71, 222.046 71 C 221.443 71, 220.666 69.580, 220.319 67.844 C 219.666 64.581, 212.957 56.988, 210.750 57.015 C 210.063 57.024, 209.005 57.361, 208.400 57.765 M 206.694 85.026 C 204.394 86.835, 203.947 87.879, 204.196 90.865 C 204.478 94.238, 204.825 94.592, 209 95.777 C 211.475 96.479, 215.901 97.802, 218.835 98.718 C 225.011 100.645, 227.316 99.842, 227.822 95.589 C 228.204 92.381, 227.043 90.814, 221.421 86.946 C 215.510 82.879, 210.289 82.199, 206.694 85.026 M 167.655 88.829 C 165.438 91.278, 165.564 94.822, 168.242 105.290 C 170.904 115.698, 170.735 115.961, 161.401 115.985 C 158.047 115.993, 145.222 117.141, 132.901 118.535 C 120.581 119.929, 102.850 121.490, 93.500 122.004 C 69.488 123.325, 66 124.287, 66 129.596 C 66 132.595, 67.403 133.347, 72.628 133.149 C 76.405 133.006, 77.117 133.329, 78.355 135.743 C 79.132 137.259, 80.355 143.333, 81.071 149.240 C 82.200 158.546, 82.153 162.082, 80.714 175.740 C 79.802 184.408, 77.970 196, 76.645 201.500 C 75.319 207, 73.543 214.425, 72.697 218 C 66.323 244.952, 58.354 265.750, 50.374 276.261 C 45.646 282.488, 44.849 286.314, 47.934 287.965 C 51.027 289.620, 52.697 289.205, 56.547 285.824 C 65.063 278.347, 71.857 265.151, 77.822 244.500 C 88.404 207.868, 91.987 188.480, 92.702 164 C 93.193 147.184, 93.115 146.220, 90.693 139.324 C 88.628 133.441, 88.427 132.050, 89.581 131.607 C 90.355 131.310, 97.628 130.793, 105.744 130.458 C 113.860 130.123, 130.551 128.983, 142.835 127.925 C 155.120 126.866, 166.859 126, 168.922 126 L 172.673 126 174.293 133.750 C 175.184 138.012, 177.327 148.475, 179.054 157 C 180.782 165.525, 182.871 174.975, 183.696 178 C 184.521 181.025, 186.024 186.791, 187.037 190.813 C 188.050 194.835, 189.801 200.910, 190.929 204.313 C 194.375 214.708, 196.775 224.820, 196.002 225.682 C 195.599 226.132, 193.899 229.042, 192.224 232.149 C 182.591 250.018, 173.879 261.680, 162.202 272.334 C 157.568 276.563, 157.270 277.513, 159.557 280.777 C 163.097 285.831, 172.211 282.021, 181.875 271.446 C 186.818 266.038, 198.403 249.927, 201.233 244.524 L 202.731 241.666 204.797 247.188 C 205.934 250.225, 208.019 254.413, 209.432 256.494 C 210.844 258.576, 212 260.698, 212 261.209 C 212 262.697, 217.460 270.130, 221.947 274.750 C 226.357 279.291, 230.691 280.311, 234.211 277.637 C 239.253 273.806, 239.359 261.396, 234.368 259.122 C 231.156 257.658, 230.439 257.704, 228.656 259.487 C 227.340 260.803, 226.749 260.389, 223.517 255.891 C 219.940 250.912, 216.359 243.724, 212.242 233.260 L 210.180 228.019 220.128 208.260 C 225.599 197.392, 231.642 185.689, 233.558 182.253 C 237.599 175.004, 237.438 171.838, 232.932 169.972 C 226.125 167.152, 224.292 169.236, 211.929 193.847 C 203.090 211.444, 204.784 211.757, 199.217 191.500 C 195.789 179.026, 194.882 175.358, 191.924 162 C 190.767 156.775, 188.473 146.736, 186.826 139.691 C 185.179 132.646, 184.080 126.233, 184.384 125.441 C 184.817 124.314, 187.283 123.991, 195.719 123.957 C 201.648 123.933, 212.441 123.530, 219.703 123.062 C 235.471 122.044, 240.344 120.294, 240.761 115.500 C 241.287 109.433, 241.752 109.504, 213.733 111.378 C 199.736 112.314, 186.739 113.330, 184.852 113.637 L 181.421 114.193 179.668 105.847 C 178.704 101.256, 177.429 95.925, 176.835 94 C 174.774 87.327, 170.959 85.178, 167.655 88.829 M 129.500 163.027 C 127.300 163.499, 123.438 163.911, 120.917 163.942 C 112.731 164.045, 105.106 166.098, 101.946 169.050 C 98.600 172.176, 98.441 172.853, 100.412 175.549 C 101.592 177.162, 102.867 177.436, 108.162 177.216 C 118.945 176.769, 140.983 172.494, 142.235 170.607 C 143.390 168.866, 143.123 165.347, 141.750 164.212 C 139.846 162.639, 133.965 162.070, 129.500 163.027 M 127 190.007 C 125.075 190.435, 121.475 191.227, 119 191.767 C 113.051 193.065, 109.672 194.471, 107.655 196.488 C 106.115 198.028, 106 197.959, 106 195.500 C 106 190.525, 100.867 188.172, 97.820 191.750 C 94.205 195.995, 93.816 199.155, 95.437 211.093 C 96.290 217.367, 97.385 224.153, 97.871 226.174 C 98.818 230.108, 102.534 236, 104.068 236 C 104.581 236, 105.900 236.900, 107 238 C 111.067 242.067, 116.661 240.384, 127.935 231.701 C 142.155 220.748, 143 219.915, 143 216.858 C 143 215.263, 144.164 212.199, 145.586 210.050 C 150.671 202.365, 149.728 193.522, 143.507 190.570 C 140.045 188.927, 132.951 188.686, 127 190.007 M 107.428 205.198 C 107.699 206.464, 108.452 211.662, 109.102 216.750 C 109.967 223.519, 110.665 226, 111.704 226 C 113.810 226, 123.241 221.356, 125.603 219.155 C 128.246 216.693, 134.670 204.337, 133.774 203.440 C 133.398 203.064, 130.032 203.353, 126.295 204.082 C 118.853 205.533, 111.724 205.458, 108.807 203.897 C 107.188 203.030, 107.002 203.206, 107.428 205.198" stroke="none" fill="black" fill-rule="evenodd"/>
</svg>