<svg xmlns="http://www.w3.org/2000/svg" width="300" height="300" viewBox="0 0 300 300" version="1.1">
	<path d="M 178.793 10.750 C 176.134 13.818, 174 22.133, 174 29.428 C 174 41.792, 169.169 60.740, 160.478 82.463 C 157.364 90.246, 157.538 93.022, 161.250 94.795 C 163.514 95.877, 164.479 95.879, 166.713 94.805 C 170.481 92.992, 173.068 88.780, 177.600 77.080 C 181.378 67.323, 181.609 66.992, 185 66.435 C 186.925 66.119, 192.458 64.767, 197.295 63.430 C 205.472 61.171, 213 60.269, 213 61.550 C 213 61.852, 212.272 63.507, 211.382 65.228 C 208.802 70.217, 209.872 82.156, 213.494 88.812 C 215.353 92.228, 217.179 94.258, 218.746 94.651 C 221.634 95.376, 225.814 93.648, 226.689 91.368 C 227.478 89.313, 222.934 61, 221.816 61 C 221.367 61, 221 60.567, 221 60.039 C 221 59.510, 222.688 58.622, 224.750 58.066 C 229.894 56.680, 238.907 51.083, 241.364 47.750 L 243.391 45 241.346 42.250 C 238.735 38.737, 235.217 38.339, 230.054 40.973 C 227.402 42.325, 220.865 43.769, 211.536 45.062 C 203.606 46.161, 194.974 47.705, 192.355 48.494 C 189.736 49.282, 187.504 49.831, 187.396 49.713 C 187.287 49.596, 188.093 45.450, 189.187 40.500 C 191.410 30.441, 191.150 22.942, 188.332 15.829 C 185.701 9.191, 181.899 7.166, 178.793 10.750 M 82.405 22.103 C 80.892 23.773, 80.367 26.394, 79.855 34.853 C 79.107 47.201, 75.483 59.661, 64.607 87.273 C 57.651 104.931, 57.383 105.979, 59.035 109.066 C 60.341 111.506, 67.124 111.761, 69.048 109.442 C 70.370 107.849, 78 91.176, 78 89.880 C 78 89.485, 80.025 84.887, 82.500 79.661 C 84.975 74.435, 87.001 69.786, 87.003 69.330 C 87.008 67.939, 117.495 61.162, 118.632 62.298 C 118.865 62.532, 118.593 63.939, 118.028 65.426 C 116.230 70.155, 116.992 79.987, 119.854 88.985 C 122.120 96.112, 122.976 97.619, 125.199 98.401 C 127.191 99.101, 128.482 98.914, 130.423 97.643 C 132.597 96.218, 132.997 95.215, 132.980 91.227 C 132.946 82.979, 131.028 72.742, 128.473 67.160 C 127.113 64.189, 126 61.588, 126 61.379 C 126 61.171, 127.771 61, 129.935 61 C 132.099 61, 135.137 60.518, 136.685 59.928 C 138.233 59.339, 141.705 58.437, 144.401 57.925 C 150.443 56.778, 152 55.553, 152 51.950 C 152 47.835, 147.918 45, 141.994 45 C 136.008 45, 102.820 48.693, 97.528 49.948 C 95.344 50.466, 93.456 50.789, 93.333 50.667 C 93.211 50.544, 93.525 48.656, 94.031 46.472 C 95.761 39.013, 95.212 28.862, 92.870 25 C 91.703 23.075, 90.242 21.169, 89.624 20.765 C 87.529 19.396, 84.318 19.991, 82.405 22.103 M 170.217 117.561 C 166.177 120.391, 165.046 124.377, 163.515 141.202 C 162.700 150.166, 161.575 161.775, 161.016 167 C 160.456 172.225, 160.026 189.775, 160.060 206 C 160.129 239.287, 160.881 245.256, 166.421 256.500 C 174.290 272.470, 185.110 278.003, 208.460 277.997 C 232.664 277.990, 268.031 268.996, 275.250 261.010 C 277.349 258.689, 278 256.954, 278 253.684 C 278 251.328, 277.460 248.860, 276.800 248.200 C 274.869 246.269, 271.013 246.811, 267.869 249.457 C 263.813 252.869, 254.057 255.495, 228.500 260.052 C 213.698 262.691, 194.541 262.528, 189.304 259.719 C 177.699 253.493, 175.948 247.333, 175.294 210.413 L 174.814 183.326 179.657 181.305 C 184.025 179.482, 193.775 176.305, 219 168.484 C 224.232 166.861, 230.095 164.102, 234.250 161.305 C 240.033 157.412, 241 156.338, 241 153.809 C 241 148.453, 235.724 146.204, 230.715 149.423 C 228.068 151.124, 216.761 154.237, 204.898 156.530 C 200.167 157.445, 192.067 159.905, 186.898 161.998 C 181.729 164.091, 177.336 165.646, 177.136 165.454 C 176.935 165.262, 177.286 155.512, 177.916 143.788 C 179.178 120.284, 178.670 116, 174.625 116 C 173.426 116, 171.442 116.702, 170.217 117.561 M 70.695 131.111 C 67.194 133.148, 66.715 136.846, 69.298 141.893 C 70.594 144.427, 72.172 148.975, 72.803 152 C 74.397 159.632, 76 176.685, 76 186.002 L 76 193.792 70.841 197.102 C 66.942 199.604, 64.691 200.373, 61.623 200.250 C 57.190 200.074, 56.039 201.085, 56.015 205.177 C 56.005 206.915, 56.965 208.619, 58.750 210.033 C 61.135 211.923, 62.430 212.154, 68.500 211.779 L 75.500 211.346 75.779 225.423 C 76.171 245.219, 77.372 251.946, 81.327 256.494 C 86.245 262.149, 90.439 262.255, 100.500 256.977 C 116.278 248.701, 119.626 247.213, 128.500 244.526 C 139.481 241.202, 147.604 237.475, 148.402 235.394 C 148.730 234.540, 148.724 232.748, 148.389 231.412 C 147.659 228.506, 144.522 227.513, 138.679 228.337 C 132.669 229.185, 102.357 238.723, 96.776 241.522 C 94.177 242.826, 91.796 243.479, 91.485 242.975 C 91.173 242.472, 90.645 233.833, 90.311 223.778 L 89.703 205.497 92.101 204.261 C 93.421 203.581, 99.225 201.405, 105 199.425 C 118.825 194.686, 125.088 191.026, 133.250 182.915 C 138.540 177.657, 140 175.569, 140 173.258 C 140 167.633, 134.052 165.065, 130.405 169.116 C 129.357 170.280, 126.639 172.517, 124.364 174.086 C 117.681 178.696, 91.452 189.785, 90.198 188.531 C 89.937 188.270, 89.349 181.931, 88.890 174.443 C 87.504 151.794, 84.799 140.461, 79.223 133.947 C 75.760 129.901, 73.860 129.270, 70.695 131.111" stroke="none" fill="black" fill-rule="evenodd"/>
</svg>