<svg xmlns="http://www.w3.org/2000/svg" width="300" height="300" viewBox="0 0 300 300" version="1.1">
	<path d="M 97.523 16.309 C 92.882 19.105, 91.476 23.789, 95 24.710 C 97.770 25.435, 97.586 28.650, 94.094 40.576 C 89.868 55.005, 88.711 57.847, 79.940 75.315 C 71.832 91.464, 71.097 93.697, 73.200 95.800 C 77.760 100.360, 85.516 92.800, 94.317 75.217 C 99.808 64.245, 101.066 62.375, 102.110 63.633 C 104.717 66.774, 125.116 64.277, 139 59.117 C 143.060 57.609, 143.529 57.097, 143.801 53.887 C 144.222 48.902, 142.122 47.437, 135.003 47.751 C 131.874 47.888, 127.106 48.671, 124.407 49.490 C 121.708 50.308, 118.656 50.983, 117.625 50.989 C 116.594 50.995, 113.097 52.191, 109.854 53.646 C 106.612 55.101, 103.773 56.106, 103.545 55.879 C 103.318 55.651, 103.979 52.773, 105.015 49.483 C 111.071 30.241, 110.558 19.398, 103.439 16.154 C 100.403 14.771, 100.060 14.780, 97.523 16.309 M 185.057 16.943 C 182.922 19.078, 181.935 22.267, 179.470 35 C 175.851 53.687, 175.013 57.223, 172.646 63.784 C 171.292 67.538, 168.568 73.603, 166.592 77.262 C 162.784 84.315, 162.257 86.857, 164.200 88.800 C 165.968 90.568, 170.465 90.259, 172.212 88.250 C 175.178 84.842, 180.616 76.427, 183.361 71 C 185.968 65.846, 186.627 65.283, 193.822 62.054 C 198.045 60.159, 204.244 57.346, 207.597 55.804 C 210.950 54.262, 214.348 53, 215.147 53 C 215.946 53, 217.028 52.575, 217.550 52.056 C 218.072 51.537, 222.325 50.122, 227 48.913 C 231.675 47.704, 236.085 46.255, 236.801 45.692 C 237.517 45.130, 237.967 43.285, 237.801 41.592 C 237.578 39.309, 236.726 38.144, 234.501 37.083 C 231.860 35.823, 230.491 35.860, 223.039 37.394 C 218.385 38.352, 209.159 41.295, 202.538 43.933 C 195.917 46.572, 190.408 48.662, 190.295 48.577 C 190.183 48.493, 190.940 45.122, 191.978 41.087 C 193.713 34.341, 194.319 28.802, 194.089 21.789 C 193.997 18.982, 190.608 15, 188.311 15 C 187.590 15, 186.126 15.874, 185.057 16.943 M 214.014 61.217 C 211.713 65.002, 210.497 71.861, 211.453 75.670 C 212.313 79.096, 219.155 86, 221.691 86 C 224.988 86, 227.333 83.528, 227.333 80.054 C 227.333 78.277, 226.822 76.508, 226.196 76.121 C 224.743 75.223, 222 67.500, 222 64.309 C 222 57.753, 217.241 55.911, 214.014 61.217 M 126.570 74.922 C 125.613 75.980, 124.584 78.680, 124.284 80.922 C 123.774 84.722, 124.043 85.306, 128.237 89.500 C 132.240 93.503, 133.235 94, 137.246 94 C 139.950 94, 142.233 93.424, 142.950 92.560 C 144.600 90.572, 143.870 85.882, 141.750 84.851 C 140.787 84.383, 139.213 83.622, 138.250 83.160 C 137.287 82.698, 135.659 80.560, 134.632 78.410 C 131.842 72.570, 129.583 71.593, 126.570 74.922 M 150.887 107.250 C 150.064 107.938, 147.521 110.975, 145.235 114 C 140.243 120.606, 119.560 140.991, 104.876 153.777 C 88.334 168.182, 85.920 173.389, 93.016 179.360 C 95.774 181.681, 104.929 184, 111.332 184 C 113.674 184, 114.001 184.397, 114.008 187.250 C 114.012 189.037, 114.908 193.425, 116 197 C 117.417 201.640, 117.987 206.394, 117.992 213.613 L 118 223.727 111.750 224.951 C 101.651 226.930, 83.784 232.072, 80 234.089 C 73.880 237.352, 72.698 238.659, 73.387 241.405 C 74.504 245.858, 82.123 246.070, 96 242.034 C 105.050 239.402, 113.028 237.694, 113.600 238.267 C 114.469 239.135, 106.951 253.846, 102.628 259.739 C 96.626 267.920, 96.661 267.833, 98.349 270.411 C 101.367 275.016, 103.833 274.470, 110.581 267.707 C 118.242 260.027, 122.258 253.538, 125.991 242.807 L 128.880 234.500 134.190 233.325 C 137.111 232.679, 144.450 231.196, 150.500 230.028 C 156.550 228.861, 163.705 227.470, 166.400 226.936 C 169.095 226.403, 171.488 226.155, 171.719 226.386 C 171.950 226.616, 172.544 232.587, 173.041 239.653 C 173.984 253.094, 175.299 265.726, 177.233 279.941 C 178.776 291.277, 181.680 294.221, 187.535 290.385 C 189.716 288.956, 189.998 288.063, 189.980 282.635 C 189.970 279.261, 189.313 270.735, 188.521 263.688 C 187.730 256.641, 186.776 244.695, 186.402 237.141 L 185.722 223.405 192.002 221.659 C 195.456 220.699, 201.267 219.285, 204.914 218.518 C 213.855 216.637, 216.997 215.353, 220.250 212.249 C 223.354 209.288, 223.725 206.481, 221.443 203.223 C 219.671 200.692, 217.751 200.392, 215.801 202.342 C 213.564 204.579, 210.286 205.999, 207.316 206.017 C 205.767 206.027, 201.125 206.919, 197 208 C 184.687 211.227, 185.392 211.729, 184.727 199.250 C 184.067 186.874, 182.098 174.834, 180.559 173.765 C 179.976 173.361, 178.345 173.024, 176.934 173.015 C 174.973 173.004, 173.837 173.946, 172.113 177.013 C 169.882 180.982, 169.871 181.195, 171.067 196.542 C 171.732 205.075, 172.067 212.266, 171.813 212.521 C 171.558 212.775, 167.784 213.640, 163.425 214.443 C 159.066 215.246, 150.550 216.818, 144.500 217.938 C 138.450 219.057, 133.224 219.979, 132.886 219.987 C 132.549 219.994, 131.951 215.190, 131.557 209.312 C 130.825 198.389, 127.654 187.618, 124.367 184.889 C 122.315 183.187, 124.375 182.035, 129.507 182.015 C 140.552 181.973, 177.890 170.885, 193.178 163.108 L 198.857 160.219 200.928 162.424 C 202.068 163.637, 203 165.543, 203 166.659 C 203 168.989, 205.928 172, 208.194 172 C 209.039 172, 210.916 171.067, 212.365 169.927 C 217.363 165.996, 215.506 159.096, 206.730 149 C 199.588 140.782, 197.625 138.944, 195.396 138.385 C 190.344 137.117, 186.563 142.550, 188.911 147.703 C 189.551 149.108, 189.946 150.343, 189.787 150.447 C 188.996 150.964, 172.801 156.955, 168 158.506 C 164.975 159.483, 160.910 160.852, 158.967 161.547 C 148.310 165.358, 123.109 170, 113.073 170 L 105.876 170 128.273 148.046 C 150.009 126.741, 159.035 116.021, 158.968 111.594 C 158.897 106.921, 154.262 104.429, 150.887 107.250" stroke="none" fill="black" fill-rule="evenodd"/>
</svg>