<svg xmlns="http://www.w3.org/2000/svg" width="300" height="300" viewBox="0 0 300 300" version="1.1">
	<path d="M 174.230 11.435 C 171.589 14.792, 167.879 27.772, 162.492 52.500 C 158.627 70.240, 158.387 71.166, 156.598 75.271 C 155.695 77.345, 153.616 81.220, 151.978 83.882 C 147.444 91.250, 148.265 96, 154.073 96 C 160.345 96, 171.104 78.298, 174.497 62.393 L 176.227 54.287 185.614 53.670 C 190.776 53.331, 199.162 53.318, 204.250 53.641 C 211.235 54.084, 215.091 53.815, 220 52.540 C 231.844 49.464, 240 42.973, 240 36.623 C 240 30.540, 235.701 29.250, 229.944 33.606 C 223.047 38.825, 220.738 39.313, 200 39.941 C 189.275 40.266, 180.319 40.418, 180.098 40.280 C 179.876 40.142, 180.410 37.210, 181.283 33.764 C 183.309 25.770, 184.203 13.248, 182.919 10.849 C 181.457 8.116, 176.582 8.445, 174.230 11.435 M 77.928 23.072 C 76.097 24.903, 75.935 25.880, 76.535 31.481 C 77.582 41.261, 72.861 60.767, 65.808 75.797 C 62.415 83.027, 54.878 95.026, 52.479 97.018 C 51.665 97.693, 51 99.020, 51 99.967 C 51 101.936, 54.020 105, 55.961 105 C 58.935 105, 64.418 100.332, 69.893 93.141 C 76.414 84.575, 79.564 78.779, 83.288 68.500 C 84.682 64.650, 86.114 60.771, 86.469 59.881 C 86.962 58.641, 89.621 57.991, 97.807 57.106 C 103.688 56.471, 110.403 55.687, 112.728 55.365 L 116.957 54.779 115.521 57.657 C 113.100 62.510, 112.488 75.728, 114.383 82.245 C 116.364 89.060, 121.480 95, 125.368 95 C 128.171 95, 132 91.902, 132 89.635 C 132 88.884, 131.100 87.126, 130 85.727 C 128.368 83.653, 127.996 81.649, 127.978 74.842 C 127.953 65.356, 125.992 59.712, 121.491 56.171 L 118.730 54 130.794 54 C 140.427 54, 143.174 53.683, 144.429 52.429 C 145.293 51.564, 146 50.506, 146 50.076 C 146 48.093, 141.220 42.513, 138.989 41.892 C 134.525 40.650, 108.771 41.012, 102.260 42.409 C 98.709 43.171, 94.506 44.902, 92.510 46.425 C 88.553 49.443, 88.469 49.238, 90.085 40.496 C 90.682 37.267, 90.871 32.627, 90.505 30.187 C 89.312 22.230, 82.579 18.421, 77.928 23.072 M 203.923 64.923 C 198.697 70.149, 201.072 79.153, 210.044 88.135 C 215.449 93.545, 219.843 94.988, 223.541 92.565 C 227.254 90.133, 226.843 85.777, 222.492 81.425 C 220.562 79.495, 217.415 74.803, 215.499 70.997 C 212.473 64.990, 209.812 62, 207.489 62 C 207.135 62, 205.531 63.315, 203.923 64.923 M 135 114.442 C 133.625 115.206, 131.037 116.374, 129.250 117.037 C 127.463 117.700, 126 118.937, 126 119.786 C 126 120.635, 124.088 123.371, 121.750 125.867 C 114.631 133.468, 96.629 151, 95.942 151 C 95.587 151, 93.962 152.238, 92.330 153.750 C 86.411 159.237, 69.781 170.434, 49 182.924 C 40.739 187.890, 35.910 192.561, 36.711 194.814 C 39.270 202.013, 45.963 200.247, 69.500 186.162 C 89.399 174.254, 101.538 164.379, 121.360 143.975 L 136.083 128.820 144.291 133.069 C 148.806 135.405, 152.725 137.621, 153 137.992 C 153.991 139.330, 179.961 152.253, 186.440 154.632 C 207.287 162.286, 228.193 166.931, 242.027 166.980 C 249.391 167.007, 252 165.171, 252 159.962 C 252 155.338, 253.062 155.746, 234 153.050 C 215.296 150.406, 198.776 145.160, 178.409 135.399 C 174.508 133.529, 170.851 132, 170.281 132 C 169.711 132, 168.680 131.320, 167.990 130.488 C 167.300 129.657, 164.737 128.092, 162.294 127.012 C 154.553 123.588, 148.159 118.896, 147.103 115.864 C 146.210 113.304, 145.648 113.003, 141.802 113.027 C 139.436 113.041, 136.375 113.678, 135 114.442 M 167.500 163.552 C 142.197 167.178, 131.565 168.321, 122 168.440 C 110.597 168.582, 107.385 169.616, 106.422 173.457 C 105.539 176.974, 106.678 179.530, 109.769 180.962 C 113.943 182.897, 132.215 183.332, 141.786 181.723 L 150.073 180.331 149.424 184.916 C 149.068 187.437, 148.264 190, 147.638 190.610 C 147.012 191.221, 140.425 192.980, 133 194.519 C 116.316 197.977, 115.247 198.363, 113.846 201.439 C 112.251 204.939, 114.847 208.613, 119.872 209.965 C 123.030 210.816, 125.942 210.545, 135.577 208.505 C 142.082 207.127, 147.925 206, 148.560 206 C 149.707 206, 150.631 211.730, 153.086 234.063 C 154.262 244.761, 154.057 258.276, 152.699 259.634 C 152.291 260.042, 137.679 260.729, 120.229 261.161 C 102.778 261.592, 87.565 262.172, 86.422 262.448 C 83.399 263.181, 79 267.586, 79 269.881 C 79 276.030, 84.548 276.402, 148.029 274.507 C 275.100 270.713, 264.566 271.444, 266.926 266.264 C 268.123 263.636, 266.255 259.738, 263.190 258.468 C 258.550 256.545, 234.843 256.862, 177.732 259.611 L 164.964 260.225 165.982 257.547 C 167.518 253.507, 167.188 224.857, 165.486 214.500 C 164.673 209.550, 164.006 205.162, 164.004 204.750 C 164.002 204.338, 167.305 204, 171.345 204 C 177.370 204, 179.009 203.648, 180.464 202.040 C 184.937 197.097, 178.476 191.010, 168.750 191.004 L 163 191 163 186.071 C 163 180.720, 164.738 178, 168.158 178 C 169.266 178, 173.552 177.018, 177.683 175.818 C 186.614 173.223, 188.975 170.767, 187.037 166.089 C 185.200 161.653, 182.864 161.350, 167.500 163.552" stroke="none" fill="black" fill-rule="evenodd"/>
</svg>