<svg xmlns="http://www.w3.org/2000/svg" width="300" height="300" viewBox="0 0 300 300" version="1.1">
	<path d="M 177.819 23.064 C 175.039 25.140, 173.900 28.035, 169.971 43 C 167.879 50.969, 165.156 59.173, 159.263 75.258 C 156.227 83.545, 156.698 87, 160.864 87 C 162.418 87, 164.372 86.212, 165.206 85.250 C 166.881 83.318, 173.054 71.343, 174.995 66.263 C 175.676 64.482, 176.607 63.257, 177.065 63.540 C 178.537 64.450, 203.149 57.303, 221 50.783 C 226.530 48.763, 231 45.067, 231 42.516 C 231 39.189, 227.817 37.734, 221.894 38.353 C 213.022 39.281, 194.683 44.491, 182.840 49.450 C 181.382 50.060, 181.285 49.677, 182.042 46.311 C 182.515 44.202, 183.574 40.870, 184.395 38.906 C 185.215 36.942, 186.178 33.123, 186.535 30.418 C 187.069 26.367, 186.838 25.103, 185.224 23.250 C 182.833 20.503, 181.301 20.465, 177.819 23.064 M 96.455 26.455 C 93.289 29.620, 92.861 37.889, 95.823 38.664 C 97.413 39.080, 97.555 39.803, 96.935 44.320 C 95.421 55.335, 84.980 82.729, 78.280 93.261 C 76.072 96.731, 77.414 99.369, 81.604 99.795 C 86.963 100.340, 94.030 90.686, 100.048 74.601 L 102.153 68.975 104.711 70.988 C 107.531 73.206, 114.954 73.728, 119.435 72.025 L 122 71.050 122 77.574 C 122 85.725, 123.792 89.343, 129.191 92.097 C 132.785 93.931, 133.848 94.063, 137.128 93.080 C 141.610 91.737, 142.400 90.729, 141.567 87.413 C 141.145 85.729, 140.048 84.760, 138.134 84.377 C 134.064 83.563, 131.622 78.969, 132.445 73.673 C 133.237 68.575, 134.814 66.336, 138.213 65.483 C 144.021 64.025, 146.744 58.584, 143.474 54.971 C 142.072 53.422, 141.403 53.405, 135.224 54.768 C 125.311 56.953, 115.147 59.886, 109.653 62.146 C 106.987 63.242, 104.564 63.897, 104.268 63.602 C 103.973 63.306, 104.236 61.812, 104.853 60.282 C 106.615 55.915, 109 43.322, 109 38.385 C 109 33.381, 106.876 28.381, 103.642 25.772 C 100.742 23.433, 99.344 23.565, 96.455 26.455 M 207.902 57.706 C 206.221 59.732, 204.433 63.405, 203.490 66.766 C 203.126 68.064, 203.740 71.587, 204.928 75.020 C 206.067 78.313, 207 82.491, 207 84.304 C 207 88.314, 208.517 90, 212.127 90 C 215.774 90, 218.999 85.832, 219.003 81.115 C 219.005 79.127, 218.138 74.350, 217.076 70.500 C 216.014 66.650, 214.760 61.925, 214.289 60 C 213.300 55.955, 210.260 54.863, 207.902 57.706 M 149.239 108.722 C 146.927 109.551, 145.606 113.418, 144.548 122.456 L 143.500 131.413 137.500 133.251 C 134.200 134.261, 128.350 136.013, 124.500 137.142 C 114.366 140.116, 104.733 145.040, 103.297 147.981 C 102.252 150.121, 102.377 150.772, 104.208 152.722 C 106.276 154.923, 106.301 155.301, 105.154 167.241 C 103.085 188.788, 103.758 196, 107.835 196 C 108.806 196, 110.072 196.472, 110.649 197.049 C 111.634 198.034, 114.812 197.744, 140.750 194.304 L 145 193.740 145 199.272 C 145 204.396, 144.797 204.879, 142.250 205.812 C 139.091 206.969, 136.158 209.628, 130.500 216.464 C 128.300 219.121, 126.029 221.792, 125.452 222.398 C 124.876 223.004, 122.866 225.750, 120.985 228.500 C 114.117 238.540, 103.236 248.274, 92.102 254.337 C 86.384 257.452, 81.278 260, 80.757 260 C 80.235 260, 78.614 260.668, 77.154 261.483 C 75.694 262.299, 70.967 264.338, 66.649 266.013 C 57.703 269.484, 56 270.825, 56 274.393 C 56 281.177, 66.691 279.960, 89.709 270.554 C 105.594 264.063, 121.003 251.123, 134.962 232.551 C 145.099 219.064, 144.584 219.079, 145.343 232.254 C 145.699 238.439, 145.993 250.620, 145.995 259.321 C 145.999 272.497, 145.732 275.411, 144.400 276.743 C 142.638 278.505, 143.064 284.262, 145.302 288.958 C 147.129 292.789, 152.083 292.966, 155.015 289.305 L 157.261 286.500 156.700 238.752 L 156.138 191.003 158.819 190.413 C 160.294 190.088, 163.525 189.190, 166 188.417 C 168.475 187.644, 172.750 186.394, 175.500 185.640 C 198.959 179.210, 204.560 177.924, 206.734 178.469 C 209.180 179.083, 209.180 179.085, 208.503 188.792 C 207.211 207.299, 203.804 223.235, 200.721 225.194 C 200.049 225.620, 197.882 225.976, 195.905 225.985 C 191.063 226.005, 188.260 228.994, 189.575 232.733 C 190.277 234.730, 191.682 235.768, 195.128 236.838 C 205.400 240.028, 211.954 235.615, 216.327 222.566 C 218.515 216.038, 219.196 211.386, 220.172 196.304 C 221.516 175.542, 220.986 172.860, 214.763 168.921 C 211.897 167.106, 210.385 166.914, 202.336 167.342 C 197.186 167.616, 189.958 168.793, 185.836 170.029 C 163.566 176.706, 157.106 178.440, 156.558 177.888 C 156.346 177.675, 156.021 169.443, 155.836 159.596 L 155.500 141.692 158.500 140.746 C 163.845 139.059, 177.089 133.840, 184.500 130.500 C 186.150 129.756, 189.204 128.380, 191.286 127.443 C 193.368 126.505, 195.338 126.004, 195.663 126.329 C 196.439 127.105, 202.934 124.370, 205.213 122.307 C 207.413 120.317, 207.564 114.713, 205.465 112.971 C 202.624 110.613, 199.738 111.267, 182.750 118.117 C 175.934 120.865, 155.728 127.986, 154.722 127.994 C 154.294 127.997, 154.240 125.113, 154.602 121.584 C 154.963 118.055, 154.970 114.018, 154.618 112.613 C 153.932 109.881, 151.306 107.982, 149.239 108.722 M 133.500 147.238 C 116.690 151.366, 117.925 150.854, 118.567 153.412 C 118.889 154.692, 118.390 159.961, 117.459 165.120 C 116.528 170.279, 115.539 176.863, 115.260 179.750 L 114.752 185 121.626 184.916 C 125.407 184.869, 132.100 184.082, 136.500 183.166 L 144.500 181.500 144.786 165.500 C 145.088 148.567, 144.720 144.916, 142.731 145.137 C 142.054 145.212, 137.900 146.157, 133.500 147.238" stroke="none" fill="black" fill-rule="evenodd"/>
</svg>