<svg xmlns="http://www.w3.org/2000/svg" width="300" height="300" viewBox="0 0 300 300" version="1.1">
	<path d="M 87.163 9.750 C 86.664 10.713, 85.947 13.750, 85.570 16.500 C 84.513 24.201, 82.883 28.633, 72.144 53.002 C 66.694 65.372, 64.718 74.750, 66.987 77.484 C 67.679 78.318, 69.529 79, 71.099 79 C 74.336 79, 75.986 76.950, 78.344 70 C 79.183 67.525, 81.462 62.301, 83.408 58.391 L 86.945 51.282 92.240 50.660 C 95.152 50.317, 99.552 49.393, 102.017 48.606 C 110.093 46.029, 125.558 41.945, 129.570 41.331 C 133.997 40.653, 137 38.507, 137 36.019 C 137 33.663, 132.947 30.137, 129.452 29.453 C 126.285 28.833, 104.002 33.119, 97.676 35.565 C 93.301 37.256, 93.364 38.219, 97.071 26.291 C 98.132 22.876, 99 18.679, 99 16.964 C 99 10.790, 89.596 5.058, 87.163 9.750 M 177.235 12.015 C 174.430 13.169, 172.687 17.500, 173.422 21.490 C 173.970 24.468, 172.431 30.943, 169.676 37.245 C 168.893 39.035, 166.768 44.025, 164.955 48.333 C 163.142 52.640, 160.765 57.301, 159.673 58.688 C 156.685 62.487, 158.324 66.398, 163.072 66.799 C 167.980 67.213, 170.672 64.780, 176 55.113 L 180.471 47 188.462 47 C 194.808 47, 198.737 46.281, 207.544 43.507 C 224.707 38.103, 231.829 32.120, 229.390 25.156 C 228.083 21.425, 225.125 21.347, 217.235 24.833 C 210.539 27.791, 186.027 35.361, 185.347 34.680 C 185.151 34.484, 185.443 31.939, 185.995 29.025 C 187.346 21.901, 187.212 15.862, 185.656 13.816 C 184.014 11.656, 180.130 10.825, 177.235 12.015 M 207.951 46.711 C 205.935 47.177, 200.999 54.807, 201.004 57.450 C 201.013 62.456, 209.327 71, 214.189 71 C 216.924 71, 220 68.243, 220 65.792 C 220 64.940, 218.425 61.627, 216.500 58.430 C 214.575 55.233, 213 51.873, 213 50.964 C 213 48.825, 209.943 46.250, 207.951 46.711 M 110.039 52.189 C 107.605 54.802, 107.387 59.680, 109.566 62.791 C 110.427 64.021, 112.938 65.948, 115.146 67.075 L 119.160 69.122 116.580 71.513 C 112.965 74.864, 113.273 78.161, 117.577 82.169 C 119.544 84.001, 121.810 86.746, 122.612 88.268 C 124.347 91.561, 125.003 91.220, 111.687 93.949 C 106.290 95.055, 101.505 96.188, 101.053 96.467 C 100.602 96.746, 96.918 97.438, 92.866 98.005 C 78.818 99.971, 72.058 103.455, 73.497 107.989 C 73.869 109.162, 75.227 110.602, 76.514 111.188 C 78.488 112.088, 78.709 112.636, 77.927 114.692 C 77.417 116.033, 77 118.896, 77 121.053 C 77 123.211, 75.681 129.144, 74.070 134.238 C 70.444 145.698, 69.459 153.589, 71.233 156.970 C 75.557 165.211, 88.413 166.348, 111.359 160.518 C 118.897 158.603, 125.879 156.600, 126.874 156.068 C 130.135 154.322, 137.349 152.098, 138.147 152.591 C 138.577 152.857, 138.009 154.840, 136.884 156.997 C 134.163 162.219, 135.031 165, 139.383 165 C 142.168 165, 143.912 163.679, 151.595 155.750 C 156.525 150.662, 162.478 144.250, 164.825 141.500 L 169.092 136.500 168.509 140.500 C 168.188 142.700, 167.865 162.725, 167.789 185 C 167.675 218.853, 167.918 226.766, 169.271 233.212 C 171.270 242.738, 172.335 244.795, 175.710 245.642 C 179.434 246.577, 183.196 244.184, 184.220 240.229 C 184.950 237.415, 185.328 237.105, 186.967 237.983 C 191.069 240.178, 198.338 239.134, 232 231.515 C 269.557 223.014, 277.385 220.298, 278.631 215.333 C 279.922 210.189, 275.867 206.923, 270.566 208.840 C 268.629 209.540, 264.897 210.482, 262.272 210.933 C 259.647 211.383, 253.225 212.660, 248 213.769 C 242.775 214.879, 235.912 216.208, 232.750 216.723 L 227 217.659 226.991 206.580 C 226.987 200.486, 226.718 193.250, 226.394 190.500 C 225.808 185.520, 225.821 185.492, 229.606 183.500 C 236.133 180.065, 239 177.117, 239 173.840 C 239 168.057, 234.224 166.347, 228.250 169.989 L 225 171.971 225 168.610 C 225 166.762, 224.728 163.888, 224.395 162.223 C 223.801 159.255, 223.957 159.117, 232.291 155.211 C 240.967 151.145, 242.808 149.122, 241.522 145.068 C 240.291 141.190, 233.367 140.954, 224.750 144.495 C 223.198 145.133, 223 144.535, 223 139.201 L 223 133.188 227.970 132.504 C 238.315 131.081, 243.849 126.323, 241.110 121.206 C 240.151 119.414, 238.978 119.336, 219.895 119.795 C 203.290 120.195, 199.352 120.568, 197.772 121.891 C 194.900 124.295, 193.881 126.677, 194.562 129.392 C 195.086 131.477, 196.064 131.980, 201.418 132.912 C 204.853 133.511, 209.345 134, 211.400 134 L 215.136 134 213.164 136.770 C 212.079 138.293, 210.882 141.606, 210.503 144.131 C 209.876 148.313, 209.490 148.826, 206.157 149.903 C 204.146 150.552, 199.125 151.354, 195 151.684 C 189.931 152.089, 186.592 152.920, 184.697 154.248 L 181.894 156.212 182.576 146.306 C 183.221 136.948, 182.417 131.393, 179.406 124.398 C 179.145 123.791, 182.547 118.682, 186.966 113.044 C 193.345 104.904, 195 102.107, 195 99.467 C 195 95.409, 192.789 93, 189.062 93 C 186.654 93, 184.862 94.834, 176.109 106.250 C 170.522 113.537, 163.149 122.930, 159.725 127.123 L 153.500 134.746 153 125.469 C 152.543 116.983, 152.269 115.979, 149.789 113.680 C 146.758 110.871, 144.188 111.030, 141.315 114.204 C 139.826 115.849, 139.436 118.349, 139.145 128.105 C 138.835 138.460, 138.571 140, 137.101 140 C 136.173 140, 131.383 141.185, 126.457 142.634 C 121.531 144.082, 114.800 145.840, 111.500 146.541 C 108.200 147.242, 101.037 148.763, 95.583 149.922 C 85.328 152.100, 81.428 151.932, 82.417 149.355 C 82.726 148.550, 83.453 144.925, 84.032 141.301 C 84.611 137.676, 85.468 133.988, 85.936 133.105 C 87.740 129.702, 89.274 116.380, 88.111 114.208 C 87.069 112.261, 87.309 112.081, 91.748 111.481 C 94.362 111.128, 102.232 109.486, 109.237 107.832 C 116.242 106.178, 122.392 104.977, 122.903 105.162 C 123.413 105.348, 121.957 108.309, 119.666 111.741 C 116.753 116.106, 115.049 117.801, 114 117.378 C 110.375 115.916, 109.195 115.948, 107.592 117.551 C 106.577 118.566, 106.161 119.915, 106.566 120.879 C 109.677 128.291, 109.727 127.801, 105.478 131.601 C 103.290 133.558, 99.941 135.815, 98.035 136.618 C 94.075 138.286, 93.037 139.559, 93.015 142.775 C 92.968 149.768, 108.123 146.028, 117.033 136.847 L 120.983 132.776 125.038 134.398 C 128.042 135.600, 129.599 135.750, 131.046 134.975 C 133.767 133.519, 133.552 128.810, 130.605 125.307 L 128.209 122.460 130.210 119.989 C 133.204 116.292, 137.271 107.944, 137.924 104.156 C 138.403 101.376, 139.145 100.590, 142.316 99.501 C 147.460 97.734, 150 95.244, 150 91.967 C 150 86.876, 146.287 86.049, 134.871 88.600 C 132.460 89.138, 132.284 88.965, 132.753 86.510 C 133.532 82.438, 131.033 76.236, 127.288 72.948 C 125.441 71.327, 123.517 70, 123.011 70 C 122.505 70, 123.195 68.896, 124.545 67.546 C 126.678 65.413, 126.848 64.761, 125.848 62.565 C 125.215 61.175, 123.865 59.774, 122.848 59.452 C 121.832 59.129, 121 58.255, 121 57.509 C 121 55.332, 115.994 50, 113.950 50 C 112.920 50, 111.160 50.985, 110.039 52.189 M 212.750 102.470 C 211.787 103.793, 211 106.054, 211 107.494 C 211 109.643, 211.822 110.476, 215.584 112.140 C 218.105 113.255, 221.030 115.030, 222.084 116.084 C 224.504 118.504, 228.199 118.543, 230.345 116.171 C 232.546 113.739, 232.429 112.226, 229.687 107.696 C 225.135 100.177, 216.381 97.475, 212.750 102.470 M 110.740 163.742 C 109.869 164.709, 108.824 166.828, 108.419 168.450 C 107.015 174.074, 101.193 187.475, 99.850 188.175 C 95.868 190.249, 87.084 193.941, 84.718 194.535 L 82 195.217 82 184.174 C 82 170.687, 81.179 168, 77.060 168 C 72.505 168, 71.641 170.666, 71.183 186.134 L 70.779 199.768 67.336 203.016 C 64.607 205.590, 63.956 206.910, 64.196 209.382 C 64.465 212.137, 64.861 212.500, 67.601 212.499 L 70.702 212.498 71.369 236.499 C 71.736 249.700, 72.480 262.750, 73.023 265.500 C 73.565 268.250, 74.293 272.205, 74.641 274.289 C 75.620 280.154, 81.707 283.284, 83.957 279.079 C 84.662 277.763, 84.654 269.816, 83.933 253.829 C 83.355 240.998, 83.021 225.595, 83.191 219.600 L 83.500 208.701 88.715 207.003 C 91.583 206.069, 93.796 205.573, 93.633 205.902 C 92.822 207.536, 90.011 213.936, 88.595 217.372 C 87.718 219.502, 87 223.849, 87 227.033 C 87 232.235, 87.304 233.078, 89.995 235.342 C 91.642 236.728, 93.944 238.165, 95.110 238.535 C 99.136 239.813, 109.577 237.913, 117.531 234.455 C 121.860 232.573, 125.659 231.448, 125.972 231.954 C 126.761 233.231, 131.663 235, 134.410 235 C 136.985 235, 140 232.157, 140 229.730 C 140 228.843, 137.287 225.278, 133.970 221.808 C 130.654 218.339, 127.671 214.253, 127.341 212.729 C 126.591 209.260, 125.679 208.692, 122.119 209.474 C 118.858 210.190, 116.491 213.907, 116.791 217.842 C 116.983 220.365, 116.522 220.688, 109.748 222.781 C 105.762 224.012, 101.938 225.015, 101.250 225.010 C 99.208 224.994, 99.789 218.445, 102.385 212.220 C 103.697 209.074, 105.093 204.992, 105.487 203.149 C 106.081 200.372, 107 199.456, 110.852 197.803 C 113.408 196.706, 117.300 194.978, 119.500 193.962 C 121.700 192.946, 125.525 191.389, 128 190.500 C 130.475 189.612, 134.437 188.185, 136.804 187.330 C 139.172 186.475, 141.316 185.983, 141.570 186.237 C 141.824 186.490, 141.411 206.125, 140.653 229.868 C 139.462 267.175, 139.053 273.284, 137.638 274.848 C 135.351 277.375, 135.597 280.272, 138.314 282.826 C 140.889 285.244, 145.699 285.690, 148.283 283.750 C 149.198 283.063, 150.703 280.475, 151.626 278 C 153.049 274.188, 153.447 266.600, 154.230 228.394 C 155.233 179.459, 155.009 176.236, 150.458 174.163 C 146.835 172.512, 138.588 172.723, 134.218 174.578 C 130.438 176.182, 114.852 182, 114.333 182 C 114.177 182, 114.488 180.846, 115.025 179.435 C 116.750 174.898, 116.238 165.525, 114.162 163.647 C 112.447 162.094, 112.219 162.101, 110.740 163.742 M 204.500 164.046 C 201.750 164.474, 195.406 164.864, 190.403 164.912 L 181.306 165 180.657 176.250 C 179.399 198.080, 180.656 228.874, 182.966 232.832 C 183.822 234.298, 183.943 234.249, 183.970 232.426 C 183.992 230.875, 185.522 229.648, 190.026 227.569 C 196.721 224.479, 208.953 221.044, 213.359 221.017 C 216.090 221.001, 216.195 220.831, 215.684 217.250 C 215.390 215.188, 214.568 208.438, 213.858 202.250 C 212.395 189.511, 212.658 189.760, 203.591 192.511 C 197.216 194.445, 194.263 194.387, 190.085 192.248 C 186.065 190.191, 184.988 187.711, 186.182 183.263 C 187.102 179.833, 191.518 177.601, 192.914 179.860 C 193.424 180.686, 194.676 180.609, 197.556 179.573 C 199.725 178.793, 203.637 177.612, 206.250 176.948 L 211 175.740 211 169.370 C 211 165.867, 210.662 163.060, 210.250 163.134 C 209.838 163.207, 207.250 163.618, 204.500 164.046" stroke="none" fill="black" fill-rule="evenodd"/>
</svg>