<svg xmlns="http://www.w3.org/2000/svg" width="300" height="300" viewBox="0 0 300 300" version="1.1">
	<path d="M 178.500 30.645 C 139.406 33.664, 131 35.954, 131 43.584 C 131 49.995, 135.218 51.229, 146.500 48.117 C 148.700 47.510, 154.775 46.563, 160 46.012 C 182.781 43.610, 191.845 40.498, 190.422 35.567 C 189.650 32.890, 186.233 29.953, 184.139 30.168 C 183.238 30.261, 180.700 30.475, 178.500 30.645 M 216.635 32.073 C 214.041 34.113, 214 34.337, 214 46.582 C 214 60.770, 212.210 70.141, 205.802 89.500 C 201.868 101.386, 198.692 108, 196.918 108 C 195.225 108, 195.978 112.670, 197.960 114.464 C 202.168 118.272, 208.966 113.552, 214.046 103.295 C 215.897 99.558, 218.796 92.532, 220.488 87.682 L 223.565 78.864 233.533 78.545 C 241.137 78.301, 245.273 77.602, 250.978 75.595 C 265.365 70.533, 270.157 65.113, 264.527 60.269 C 262.856 58.832, 261.104 58.131, 260.125 58.507 C 255.808 60.169, 239.416 64, 236.623 64 C 234.859 64, 231.753 65.163, 229.590 66.632 L 225.716 69.265 226.401 66.382 C 226.778 64.797, 227.348 57.850, 227.669 50.943 C 228.294 37.478, 227.330 33.317, 223.055 31.030 C 220.372 29.593, 219.634 29.713, 216.635 32.073 M 82.850 42.250 C 79.952 44.614, 76.165 52.580, 75.109 58.536 C 73.808 65.874, 71.997 93.281, 71.999 105.610 C 71.999 110.621, 71.719 116.774, 71.375 119.283 L 70.749 123.846 64.625 125.396 C 61.256 126.248, 54.705 127.857, 50.066 128.971 C 41.298 131.077, 37.587 133.427, 35.828 137.988 C 35.041 140.028, 35.260 140.792, 37.045 142.238 C 38.242 143.207, 40.635 144, 42.363 144 C 45.584 144, 63.997 139.738, 65.926 138.545 C 67.783 137.398, 67.105 140.580, 64.032 147.428 C 62.400 151.066, 58.144 162.695, 54.575 173.271 C 51.006 183.847, 46.768 196.100, 45.158 200.500 C 43.547 204.900, 40.338 213.675, 38.025 220 C 35.713 226.325, 33.452 232.991, 33.002 234.813 C 32.551 236.635, 31.016 239.888, 29.591 242.042 C 25.452 248.297, 26.535 252, 32.504 252 C 34.734 252, 36.437 251.085, 38.556 248.750 C 42.720 244.160, 45.428 238.065, 55.996 209.500 C 57.013 206.750, 58.992 201.531, 60.393 197.903 C 61.795 194.275, 64.124 187.637, 65.571 183.153 C 67.017 178.669, 68.268 175.002, 68.350 175.004 C 68.433 175.005, 68.600 196.317, 68.721 222.363 C 68.856 251.066, 69.338 270.759, 69.947 272.360 C 70.731 274.424, 71.622 275, 74.026 275 C 79.510 275, 79.762 273.193, 80.941 225.526 C 81.524 201.974, 82 173.609, 82 162.492 C 82 136.544, 82.411 133.364, 85.875 132.496 C 89.393 131.615, 103.349 124.538, 105.935 122.324 C 108.491 120.135, 108.607 115.860, 106.171 113.655 C 103.702 111.420, 102.763 111.534, 95.643 114.931 C 92.264 116.543, 88.193 118.358, 86.596 118.965 L 83.692 120.068 84.383 109.284 C 84.763 103.353, 85.495 89.950, 86.008 79.500 C 86.522 69.050, 87.403 57.800, 87.965 54.500 C 89.354 46.357, 89.266 44.409, 87.429 42.571 C 85.530 40.673, 84.842 40.625, 82.850 42.250 M 158.302 50.012 C 154.148 51.685, 152.697 56.419, 153.228 66.569 L 153.708 75.750 147.331 76.261 C 140.758 76.789, 134.497 79.871, 133.642 83 C 133.416 83.825, 133.180 78.373, 133.116 70.885 C 133.012 58.727, 132.778 56.988, 130.927 54.635 C 128.596 51.671, 126.433 51.359, 123.515 53.564 C 121.659 54.967, 121.439 57.215, 120.124 88.282 C 118.405 128.876, 119.056 139.792, 123.574 146.166 C 128.508 153.126, 131.646 154.243, 144.648 153.668 C 154.543 153.230, 156.688 152.788, 163.731 149.736 C 178.706 143.247, 188 135.022, 188 128.259 C 188 123.355, 183.105 122.457, 178.406 126.500 L 175.500 128.999 174.294 123.250 C 172.613 115.238, 172.690 109.502, 174.500 108 C 176.457 106.376, 176.426 101.598, 174.448 99.957 C 173.088 98.828, 173.524 98.032, 177.976 93.524 C 189.229 82.130, 185.782 73.467, 170.815 75.526 L 165.710 76.228 166.396 66.864 C 167.349 53.862, 167.364 54.016, 164.878 51.370 C 162.478 48.815, 161.682 48.651, 158.302 50.012 M 99.208 70.373 C 96.741 71.586, 96.420 72.532, 95.572 81.099 C 95.267 84.178, 94.327 88.656, 93.483 91.049 C 91.991 95.277, 92.014 95.469, 94.303 97.757 C 96.355 99.809, 96.989 99.962, 99.229 98.941 C 101.892 97.728, 103.643 94.356, 106.397 85.135 C 108.655 77.578, 108.461 73.782, 105.686 71.174 C 103.143 68.785, 102.578 68.716, 99.208 70.373 M 46.250 80.505 C 43.524 82.454, 43.266 87.126, 45.643 91.500 C 46.539 93.150, 47.948 95.850, 48.773 97.500 C 51.530 103.013, 57.102 108, 60.503 108 C 66.684 108, 67.463 104.583, 63.070 96.735 C 61.459 93.856, 59.345 89.475, 58.373 87 C 57.400 84.525, 56.045 81.931, 55.360 81.237 C 53.271 79.115, 48.706 78.748, 46.250 80.505 M 131.654 95.250 C 130.050 115.853, 131.466 135.640, 134.810 139.351 C 137.151 141.949, 146.865 141.147, 157.650 137.466 L 165.800 134.685 164.452 130.864 C 163.711 128.763, 162.799 124.349, 162.427 121.054 C 161.802 115.533, 161.598 115.145, 159.820 116.096 C 149.708 121.508, 138.048 119.252, 140.578 112.374 C 141.452 109.997, 149.353 105.779, 155.703 104.298 C 157.561 103.865, 157.812 103.309, 157.300 100.752 C 156.761 98.054, 157.228 97.256, 161.516 93.535 L 166.338 89.352 152.188 89.804 C 140.278 90.184, 137.645 89.998, 135.554 88.628 C 134.188 87.732, 132.896 87, 132.683 87 C 132.471 87, 132.007 90.713, 131.654 95.250 M 243 104.432 C 240.525 105.146, 235.932 106.435, 232.794 107.299 C 229.655 108.162, 225.043 109.772, 222.544 110.878 C 218.879 112.499, 218 113.377, 218 115.418 C 218 121.692, 231.054 122.688, 244.500 117.440 C 253.033 114.109, 255 112.512, 255 108.916 C 255 103.343, 251.420 102.005, 243 104.432 M 232 159.017 C 218.608 160.040, 187.260 165.019, 168.674 169.074 C 163.820 170.133, 158.773 171, 157.458 171 C 156.144 171, 153.487 171.754, 151.556 172.675 C 148.239 174.256, 147.933 174.250, 146.062 172.556 C 143.546 170.279, 140.148 171.103, 137.628 174.601 C 135.860 177.055, 135.843 177.538, 137.313 183.349 C 139.051 190.223, 141.940 203.197, 144.583 216 C 145.548 220.675, 146.792 225.093, 147.348 225.818 C 148.176 226.898, 145.748 227.084, 133.929 226.846 C 121.249 226.591, 119.116 226.785, 116.335 228.443 C 111.866 231.109, 109.251 237.801, 112.013 239.508 C 112.570 239.852, 150.099 240.089, 195.411 240.035 C 271.422 239.943, 278.076 240.069, 281.408 241.657 C 287.933 244.769, 292.665 241.138, 290.855 234.406 C 290.211 232.008, 289.066 230.935, 285.762 229.632 C 277.550 226.394, 268.764 225.843, 230.636 226.175 L 193.246 226.500 195.963 222.500 C 201.611 214.182, 205.250 203.664, 208.961 184.927 C 210.735 175.969, 211.467 175.396, 222.726 174.147 C 228.102 173.551, 234.994 172.908, 238.042 172.717 L 243.583 172.370 242.263 178.790 C 241.537 182.321, 240.281 186.490, 239.471 188.055 C 238.662 189.620, 238 191.438, 238 192.095 C 238 194.936, 230.747 207.838, 227.091 211.500 C 220.745 217.858, 221.661 224, 228.957 224 C 232.024 224, 233.497 223.028, 239.639 216.945 C 250.052 206.635, 258.117 189.736, 259.546 175.231 C 260.558 164.956, 259.694 161.557, 255.573 159.601 C 252.001 157.907, 247.869 157.804, 232 159.017 M 84.322 165.856 C 82.345 169.022, 83.860 179.767, 87.138 185.830 C 92.822 196.341, 100.594 204, 105.577 204 C 107.950 204, 112 199.786, 112 197.318 C 112 196.541, 109.941 193.817, 107.424 191.264 C 104.907 188.711, 101.917 184.795, 100.780 182.561 C 99.642 180.327, 97.651 177.108, 96.356 175.406 C 95.060 173.704, 94 171.946, 94 171.500 C 94 169.732, 88.795 164, 87.190 164 C 86.250 164, 84.960 164.835, 84.322 165.856 M 189.886 178.703 C 184.928 179.468, 183.922 186.616, 186.326 204 L 187.502 212.500 189.096 208 C 189.972 205.525, 191.703 198.325, 192.943 192 C 194.182 185.675, 195.657 179.938, 196.221 179.250 C 197.287 177.949, 195.674 177.810, 189.886 178.703 M 169.849 182.485 C 169.582 182.751, 165.794 183.460, 161.432 184.060 C 157.069 184.660, 153.187 185.454, 152.804 185.825 C 152.422 186.196, 153.019 191, 154.131 196.500 C 155.244 202, 156.232 211.110, 156.327 216.745 L 156.500 226.991 166.976 226.995 L 177.451 227 181.224 222.750 C 185.646 217.769, 185.824 217.120, 182.598 217.737 C 179.061 218.413, 176.621 215.357, 173.938 206.890 C 171.564 199.397, 170.844 189.846, 172.269 184.750 C 172.835 182.727, 172.681 182, 171.686 182 C 170.942 182, 170.115 182.218, 169.849 182.485" stroke="none" fill="black" fill-rule="evenodd"/>
</svg>