<svg xmlns="http://www.w3.org/2000/svg" width="300" height="300" viewBox="0 0 300 300" version="1.1">
	<path d="M 165.411 33.250 C 165.013 34.487, 164.616 40.225, 164.530 46 C 164.356 57.641, 162.480 65.182, 157.710 73.410 C 155.850 76.617, 155.061 79.108, 155.434 80.593 C 156.240 83.805, 159.674 84.634, 162.728 82.353 C 165.412 80.350, 170.929 70.824, 172.923 64.753 C 174.674 59.420, 177.234 58, 185.097 58 C 188.755 58, 193.602 57.346, 195.866 56.547 L 199.984 55.094 198.456 57.427 C 197.563 58.790, 196.899 62.141, 196.859 65.485 C 196.794 70.926, 197.005 71.430, 201.104 75.605 C 210.132 84.805, 216.005 77.821, 209.310 65.846 C 207.667 62.906, 205.826 59.048, 205.221 57.272 C 204.137 54.095, 204.178 54.029, 207.815 53.050 C 209.847 52.503, 213.076 50.748, 214.989 49.150 C 218.293 46.392, 218.398 46.112, 217.066 43.623 C 215.409 40.527, 213.333 40.341, 204 42.456 C 200.425 43.267, 193.900 44.625, 189.500 45.476 C 185.100 46.327, 180.488 47.295, 179.250 47.628 C 177.282 48.157, 177 47.857, 177 45.231 C 177 41.934, 175.497 37.983, 172.631 33.750 C 170.298 30.303, 166.445 30.036, 165.411 33.250 M 86.030 35.775 C 83.943 37.465, 83.912 37.794, 85.077 46.010 C 87.089 60.199, 84.104 73.548, 76.578 84.024 C 74.610 86.763, 73 89.888, 73 90.967 C 73 92.834, 75.648 95, 77.931 95 C 80.320 95, 87.397 87.182, 91.076 80.479 C 94.866 73.574, 95.136 73.323, 98.927 73.174 C 102.784 73.023, 109.612 70.740, 121.500 65.628 C 124.800 64.209, 128.365 63.037, 129.421 63.024 C 130.478 63.011, 132.129 62.288, 133.091 61.418 C 135.393 59.335, 133.916 54.738, 130.436 53.153 C 126.872 51.529, 117.808 53.883, 107.243 59.176 C 102.496 61.554, 98.289 63.637, 97.894 63.804 C 97.498 63.971, 97.190 60.574, 97.209 56.254 C 97.268 42.835, 95.701 38.051, 90.301 35.161 C 88.604 34.253, 87.760 34.374, 86.030 35.775 M 118.012 70.789 C 113.117 74.753, 115.030 87.106, 121.209 91.434 C 127.435 95.795, 134.443 90.285, 129.055 85.266 C 127.985 84.269, 126.610 81.214, 126 78.477 C 124.853 73.339, 122.604 69, 121.088 69 C 120.611 69, 119.227 69.805, 118.012 70.789 M 182.500 96.405 C 177.595 97.808, 173.228 100.143, 170.250 102.954 C 169.012 104.122, 168 104.610, 168 104.039 C 168 102.599, 164.854 102.794, 162.789 104.363 C 158.601 107.546, 157.926 115.677, 160.995 125.982 C 163.907 135.762, 164.698 136.240, 176.633 135.423 C 182.060 135.051, 189.378 134.689, 192.894 134.618 C 200.449 134.466, 202.176 132.953, 200.342 128.094 C 199.365 125.507, 199.508 124.871, 201.486 123.014 C 205.336 119.396, 207.335 113.722, 206.566 108.593 C 206.024 104.980, 205.087 103.374, 201.951 100.690 C 198.051 97.352, 192.016 94.879, 188.384 95.131 C 187.348 95.202, 184.700 95.776, 182.500 96.405 M 180 108.079 C 171.026 110.648, 171.155 110.504, 171.663 117.329 C 171.915 120.723, 172.321 124.485, 172.565 125.690 L 173.008 127.880 177.254 125.452 C 179.589 124.117, 182.625 123.017, 184 123.008 C 185.643 122.998, 187.958 121.466, 190.750 118.542 C 195.205 113.878, 196.011 111.084, 193.499 109 C 191.488 107.330, 184.323 106.841, 180 108.079 M 113 112.704 C 111.075 112.916, 107.362 113.780, 104.750 114.625 C 99.599 116.290, 98.618 118.475, 101.655 121.512 C 104.598 124.455, 108.209 125.179, 116.375 124.461 L 124.249 123.770 122.551 126.635 C 119.614 131.589, 118.629 132.450, 113.524 134.525 C 107.880 136.819, 103.731 141.911, 104.204 145.966 C 104.664 149.908, 108.332 149.899, 117.500 145.933 C 118.600 145.457, 122.839 143.928, 126.919 142.536 C 137.825 138.814, 139.783 136.536, 136.102 131.856 C 134.442 129.747, 134.379 129.202, 135.602 127.530 C 138.040 124.195, 137.353 119.132, 134.042 116.039 C 130.110 112.366, 124.369 111.456, 113 112.704 M 88.223 116.557 C 85.446 118.501, 85.288 123.061, 87.846 127.382 C 88.862 129.097, 90.259 133.155, 90.952 136.401 C 92.485 143.584, 95.893 147.663, 98.982 146.010 C 101.585 144.617, 102.383 141.155, 101.738 134.047 C 101.133 127.379, 98.266 120.257, 94.936 117.155 C 92.181 114.589, 91.162 114.498, 88.223 116.557 M 156 147.527 C 142.703 150.097, 129.497 155.570, 124.476 160.591 C 120.770 164.296, 120.569 164.773, 121.855 166.800 C 123.274 169.036, 130.680 167.962, 141.333 163.977 C 144.526 162.782, 147.340 162.006, 147.586 162.253 C 148.278 162.945, 145.719 173.419, 144.684 174.131 C 144.180 174.478, 140.163 175.076, 135.758 175.461 C 131.352 175.845, 127.178 176.378, 126.480 176.646 C 125.705 176.944, 124.162 174.987, 122.509 171.608 C 119.274 164.996, 117.838 163.667, 113.929 163.667 C 110.893 163.667, 108.091 166.201, 108.032 169 C 108.015 169.825, 109.793 173.413, 111.983 176.974 C 114.173 180.535, 117.179 186.385, 118.661 189.974 C 123.644 202.035, 128.425 205.395, 140.691 205.458 L 148.881 205.500 149.424 210 C 149.723 212.475, 150.074 216.750, 150.204 219.500 L 150.440 224.500 141.970 225.169 C 137.312 225.538, 128.550 226.141, 122.500 226.510 C 111.068 227.208, 92.519 230.210, 87.750 232.133 C 85.675 232.970, 85 233.925, 85 236.023 C 85 239.928, 88.391 240.832, 99.500 239.890 C 107.902 239.178, 140.794 236.950, 147.500 236.639 L 150.500 236.500 151.066 250 C 151.810 267.752, 154.076 290.178, 155.284 291.750 C 156.663 293.544, 160.567 293.290, 162.581 291.276 C 164.162 289.695, 164.248 287.338, 163.623 262.803 L 162.941 236.053 165.221 235.574 C 166.474 235.310, 176.050 234.608, 186.500 234.013 C 215.127 232.384, 224.505 230.716, 227.875 226.652 C 229.711 224.438, 229.619 220.190, 227.693 218.264 C 226.284 216.855, 225.807 216.864, 222.670 218.352 C 220.764 219.257, 214.770 220.448, 209.352 220.998 C 200.652 221.883, 162.721 224.018, 162.362 223.644 C 162.286 223.565, 162.045 218.887, 161.827 213.250 C 161.435 203.156, 161.464 203, 163.690 203 C 165.686 203, 165.840 203.292, 165.003 205.491 C 163.750 208.788, 164.666 210.878, 167.697 211.639 C 171.671 212.636, 174.878 209.299, 180.414 198.403 C 190.187 179.171, 192.701 171.205, 191.519 163.215 C 190.946 159.336, 189.971 157.676, 186.021 153.853 C 178.431 146.506, 170.224 144.777, 156 147.527 M 158.500 158.633 C 152.969 159.468, 152.746 159.738, 155.033 162.831 C 156.197 164.405, 157.395 167.527, 157.696 169.769 C 158.338 174.556, 158.884 174.784, 170.474 175.102 L 178.448 175.320 179.244 171.487 C 180.210 166.840, 178.788 161.973, 175.947 160.199 C 173.737 158.819, 163.409 157.891, 158.500 158.633 M 166.332 185.981 C 162.940 186.267, 159.861 186.804, 159.491 187.175 C 158.240 188.428, 160.099 192.176, 161.672 191.572 C 162.492 191.258, 165.143 191, 167.563 191 C 171.443 191, 172.037 190.699, 172.601 188.453 C 172.953 187.053, 173.074 185.807, 172.870 185.685 C 172.667 185.563, 169.725 185.696, 166.332 185.981 M 133.287 187.721 C 130.268 188.097, 130.111 188.314, 130.681 191.311 C 131.014 193.065, 131.335 194.505, 131.394 194.511 C 131.452 194.517, 135.213 194.370, 139.750 194.185 L 148 193.848 148 190.424 L 148 187 142.250 187.160 C 139.088 187.248, 135.054 187.500, 133.287 187.721" stroke="none" fill="black" fill-rule="evenodd"/>
</svg>