<svg xmlns="http://www.w3.org/2000/svg" width="300" height="300" viewBox="0 0 300 300" version="1.1">
	<path d="M 177.308 9.010 C 174.311 10.217, 172.445 13.485, 171.034 20 C 167.137 37.984, 163.770 49.655, 160.422 56.776 C 158.570 60.715, 159.332 63.739, 162.546 65.203 C 166.349 66.936, 169.575 63.999, 173.795 54.959 C 176.556 49.045, 177.996 47.021, 179.448 47.012 C 180.520 47.005, 185.135 45.860, 189.704 44.466 C 198.426 41.806, 224.987 37.011, 231.038 37.004 C 236.114 36.998, 243.286 33.116, 244.443 29.748 C 245.197 27.551, 244.975 26.441, 243.343 24.248 C 240.923 20.994, 237.990 20.331, 234.809 22.320 C 233.539 23.114, 229.125 24.051, 225 24.402 C 214.375 25.307, 199.731 27.802, 191.246 30.154 C 187.256 31.259, 183.614 32.015, 183.151 31.832 C 182.688 31.649, 182.886 28.800, 183.591 25.500 C 185.550 16.320, 185.353 12.407, 182.811 10.039 C 180.377 7.771, 180.381 7.772, 177.308 9.010 M 84.171 13.318 C 81.592 16.063, 80.116 22, 82.013 22 C 84.167 22, 82.287 35.995, 78.890 45.253 C 77.226 49.789, 75.146 55.525, 74.270 58 C 73.393 60.475, 72.127 63.400, 71.457 64.500 C 69.016 68.506, 68.849 71.849, 70.985 73.985 C 75.348 78.348, 79.309 75.134, 85.085 62.542 L 89.462 53 102.731 53 L 116 53 116 56.599 C 116 64.001, 121.559 70.579, 129.814 72.947 C 132.284 73.655, 133.432 73.471, 135.133 72.094 C 138.169 69.635, 137.107 66.398, 131.474 60.940 C 128.953 58.498, 126.271 55.346, 125.515 53.936 L 124.141 51.371 130.320 50.107 C 137.206 48.699, 144.499 45.763, 147.213 43.307 C 149.792 40.974, 149.511 36.381, 146.676 34.524 C 144.653 33.198, 143.782 33.179, 139.926 34.379 C 132.674 36.638, 117.240 39.139, 105.500 39.959 C 99.450 40.381, 94.444 40.676, 94.376 40.614 C 94.307 40.551, 94.612 38.025, 95.053 35 C 95.493 31.975, 95.887 26.713, 95.927 23.306 C 95.987 18.214, 95.599 16.674, 93.750 14.655 C 90.440 11.041, 86.789 10.531, 84.171 13.318 M 198 47 C 196.900 48.100, 196 49.914, 196 51.032 C 196 54.805, 198.898 60.035, 201.952 61.773 C 203.621 62.723, 204.990 64.007, 204.994 64.628 C 205.012 67.814, 212.355 69.627, 214.098 66.875 C 217.170 62.026, 212.951 52.757, 205.307 47.563 C 200.771 44.480, 200.538 44.462, 198 47 M 188.946 86.255 C 188.091 86.940, 185.894 90.200, 184.064 93.500 C 182.234 96.800, 179.726 101.075, 178.490 103 C 172.429 112.442, 162.761 127.032, 159.604 131.500 C 155.393 137.458, 155.258 138.468, 158.395 140.523 C 160.431 141.857, 161.248 141.898, 163.857 140.796 C 166.810 139.549, 176.567 129.171, 179.649 124 C 181.070 121.615, 181.574 121.500, 190.570 121.500 C 195.757 121.500, 200.001 121.646, 200 121.825 C 200 122.359, 184.291 148.027, 183.436 148.893 C 183.223 149.108, 182.410 148.755, 181.630 148.108 C 179.755 146.552, 168.260 141, 166.913 141 C 165.553 141, 163 143.547, 163 144.903 C 163 145.478, 165.728 149.118, 169.062 152.992 C 173.331 157.952, 174.952 160.577, 174.542 161.869 C 172.954 166.871, 156.447 185.190, 145.587 194 C 137.426 200.621, 137.009 206, 144.658 206 C 148.756 206, 150.626 204.866, 163.264 194.719 C 172.538 187.273, 179.451 179.959, 185 171.724 C 186.375 169.683, 187.923 168.011, 188.440 168.007 C 189.263 168.001, 198.654 173.284, 206 177.886 C 209.658 180.177, 223.924 187, 225.057 187 C 225.591 187, 226.809 187.410, 227.764 187.911 C 228.719 188.412, 234.771 191.336, 241.213 194.407 C 247.729 197.515, 253.401 200.881, 253.998 201.996 C 255.367 204.554, 260.099 204.653, 262.345 202.171 C 266.217 197.893, 262.842 192.265, 253.222 186.960 C 251.175 185.831, 246.865 183.353, 243.643 181.453 C 240.422 179.554, 237.342 178, 236.799 178 C 235.042 178, 209.656 165.258, 204.430 161.753 C 201.642 159.882, 198.604 158.062, 197.680 157.707 C 195.242 156.772, 195.577 155.327, 199.500 149.867 C 201.425 147.188, 203 144.764, 203 144.482 C 203 144.200, 204.478 141.614, 206.284 138.735 C 211.370 130.627, 211.774 129.909, 214.986 123.292 C 220.087 112.784, 218.447 106.406, 210.365 105.322 C 207.070 104.880, 204.573 105.491, 197.834 108.385 C 193.205 110.373, 189.109 112, 188.731 112 C 188.353 112, 189.808 109.270, 191.964 105.934 C 194.121 102.597, 196.664 97.829, 197.615 95.337 C 199.210 91.161, 199.220 90.599, 197.744 88.153 C 195.951 85.182, 191.488 84.219, 188.946 86.255 M 108.500 102.591 C 106.850 102.810, 100.579 103.489, 94.565 104.100 C 83.992 105.174, 79 106.462, 79 108.115 C 79 108.552, 77.866 107.775, 76.481 106.390 C 73.311 103.221, 69.429 103.516, 66.742 107.132 C 65.099 109.342, 64.953 110.305, 65.828 113.132 C 67.529 118.629, 69.825 127.965, 71.574 136.500 C 74.035 148.512, 75.226 151.450, 77.789 151.820 C 79.526 152.071, 79.883 152.618, 79.445 154.364 C 78.273 159.032, 84.863 161.701, 92.602 159.693 L 97.500 158.421 97.155 176.698 C 96.853 192.705, 98.703 227.033, 100.597 240.534 L 101.162 244.567 93.831 247.683 C 89.799 249.396, 85.825 251.062, 85 251.385 C 84.175 251.708, 82.397 252.766, 81.050 253.736 C 78.825 255.338, 78.658 255.346, 79.240 253.824 C 79.592 252.903, 80.443 247.641, 81.130 242.131 C 82.113 234.254, 82.126 229.674, 81.190 220.695 C 80.536 214.415, 80 207.430, 80 205.172 C 80 200.020, 77.352 194.325, 74.624 193.612 C 71.510 192.798, 68.182 195.510, 67.440 199.469 C 66.658 203.638, 67.250 214.734, 69.004 228.774 C 70.041 237.075, 70.045 240.339, 69.026 245.774 C 68.332 249.473, 67.538 254.524, 67.261 256.997 C 66.926 259.998, 65.968 262.227, 64.380 263.699 C 59.561 268.165, 62.200 272.526, 69.226 271.707 C 75.573 270.967, 83.550 267.819, 103 258.377 C 138.598 241.096, 143.841 236.957, 137.585 231.080 C 134.627 228.301, 133.651 228.543, 121.250 235.128 L 112 240.039 112 223.020 C 112 213.659, 111.966 205.662, 111.925 205.250 C 111.883 204.838, 113.346 204.119, 115.175 203.653 C 127.116 200.611, 136.307 195.722, 137.581 191.734 C 138.568 188.644, 136.083 183.059, 133.425 182.392 C 130.230 181.590, 127.929 182.557, 127.299 184.965 C 126.938 186.346, 125.130 187.369, 121.144 188.451 C 118.040 189.293, 114.263 190.397, 112.750 190.904 L 110 191.826 110.008 180.663 C 110.012 174.523, 110.481 166.631, 111.050 163.125 C 111.916 157.784, 111.835 156.475, 110.551 155.056 C 109.149 153.507, 109.308 153.223, 112.408 151.745 C 114.273 150.856, 117.403 149.827, 119.364 149.460 C 121.324 149.092, 123.445 148.169, 124.076 147.408 C 125.647 145.516, 124.480 141.523, 122.031 140.413 C 120.242 139.601, 120.857 138.891, 127.591 134 C 142.398 123.245, 149.017 113.728, 145.463 108.304 C 142.188 103.305, 139.576 102.544, 125.068 102.362 C 117.606 102.269, 110.150 102.372, 108.500 102.591 M 93.080 117.625 C 86.798 118.385, 81.472 119.195, 81.242 119.424 C 81.013 119.654, 81.345 122.346, 81.981 125.408 C 82.616 128.469, 83.218 135.476, 83.318 140.977 C 83.418 146.479, 83.659 150.985, 83.854 150.990 C 84.048 150.996, 87.198 149.478, 90.854 147.617 C 94.509 145.757, 100.100 143.225, 103.277 141.990 C 108.159 140.094, 108.957 139.440, 108.429 137.775 C 107.933 136.215, 109.954 133.754, 118.152 125.936 L 128.500 116.066 116.500 116.154 C 109.900 116.203, 99.361 116.864, 93.080 117.625 M 206.500 199.941 C 204.850 200.393, 201.475 200.830, 199 200.912 C 196.525 200.993, 190.225 202.103, 185 203.379 L 175.500 205.697 173.298 203.348 C 172.087 202.057, 170.806 201, 170.452 201 C 168.426 201, 164.032 204.730, 163.468 206.928 C 163.106 208.343, 162.863 218.804, 162.928 230.177 C 163.043 250.078, 162.969 250.908, 160.960 252.315 C 159.027 253.670, 157.856 259.190, 159.214 260.548 C 160.531 261.865, 180.639 262.161, 191.524 261.024 C 198.111 260.336, 205.897 259.788, 208.826 259.805 C 212.881 259.830, 215.023 259.246, 217.804 257.358 C 222.115 254.433, 222.964 253.267, 222.985 250.250 C 222.993 249.012, 223.378 248, 223.841 248 C 225.194 248, 229.782 235.098, 231.072 227.665 C 233.117 215.885, 230.948 206.931, 224.887 202.131 C 221.599 199.527, 212.128 198.399, 206.500 199.941 M 208 213.685 C 200.521 214.242, 183.729 218.003, 180 219.956 L 176.500 221.790 176.221 234.930 L 175.941 248.070 190.721 247.473 C 208.473 246.756, 209.634 246.553, 211.044 243.917 C 214.088 238.230, 217.502 217.806, 215.907 214.826 C 215.369 213.822, 214.383 213.079, 213.715 213.175 C 213.047 213.271, 210.475 213.500, 208 213.685" stroke="none" fill="black" fill-rule="evenodd"/>
</svg>