<svg xmlns="http://www.w3.org/2000/svg" width="300" height="300" viewBox="0 0 300 300" version="1.1">
	<path d="M 171.313 10.772 C 169.816 11.955, 168.457 15.183, 167.008 21 C 165.843 25.675, 164.068 31.975, 163.065 35 C 157.792 50.895, 155.814 57.774, 155.321 61.939 C 154.827 66.110, 155.013 66.669, 157.311 67.899 C 161.246 70.005, 164.864 68.580, 166.661 64.214 C 167.502 62.171, 168.770 59.150, 169.478 57.500 C 170.186 55.850, 171.307 53.077, 171.968 51.337 C 173.276 47.896, 176.731 46.355, 188.474 43.976 C 191.760 43.310, 195.135 42.556, 195.974 42.301 C 197.321 41.891, 197.318 41.993, 195.953 43.168 C 195.103 43.901, 193.845 45.880, 193.158 47.566 C 191.750 51.026, 192.571 54.184, 196.207 59.291 C 197.394 60.957, 198.485 63.445, 198.631 64.820 C 198.983 68.123, 200.760 69.181, 204.931 68.570 C 209.391 67.916, 211.038 66.159, 211.662 61.388 C 212.103 58.014, 211.564 56.580, 207.585 50.547 C 205.063 46.723, 203 43.235, 203 42.797 C 203 42.359, 202.213 41.966, 201.250 41.925 C 200.287 41.883, 203.205 40.567, 207.733 38.999 C 216.810 35.857, 224.526 30.920, 225.363 27.718 C 226.179 24.600, 223.050 20, 220.114 20 C 218.764 20, 213.574 21.346, 208.580 22.992 C 203.586 24.637, 194.956 27.042, 189.403 28.337 L 179.306 30.690 181.171 24.699 C 183.339 17.732, 182.802 12.675, 179.662 10.476 C 176.896 8.538, 174.011 8.641, 171.313 10.772 M 89.569 14.124 C 87.842 15.483, 86.921 17.455, 86.462 20.778 C 85.336 28.928, 80.889 44.214, 77.520 51.517 C 75.739 55.377, 73.945 59.599, 73.531 60.901 C 73.118 62.203, 71.255 65.871, 69.390 69.052 C 67.526 72.234, 66 75.748, 66 76.862 C 66 79.178, 69.512 82, 72.394 82 C 77.229 82, 88.132 66.034, 93.044 51.759 C 95.158 45.616, 95.509 45.151, 97.010 46.509 C 97.960 47.369, 100.577 48, 103.189 48 L 107.721 48 108.304 52.922 C 109.086 59.524, 113.311 67.597, 117.285 70.084 C 123.058 73.696, 131 70.729, 131 64.959 C 131 62.846, 130.245 61.869, 127.663 60.644 C 124.710 59.243, 124.071 58.182, 122.106 51.421 C 120.885 47.219, 120.078 43.589, 120.313 43.354 C 120.547 43.119, 124.961 41.895, 130.120 40.632 C 139.410 38.359, 139.503 38.307, 139.818 35.103 C 140.221 31.012, 138.780 29.287, 133.851 27.960 C 125.977 25.840, 112.883 29.042, 105 35.015 C 98.424 39.999, 96.453 39.293, 98.860 32.815 C 99.333 31.542, 100.022 27.768, 100.390 24.428 C 100.993 18.956, 100.829 18.108, 98.735 15.848 C 95.493 12.350, 92.532 11.793, 89.569 14.124 M 207.500 95 C 205.481 97.750, 203.490 100, 203.075 100 C 202.660 100, 201.808 101.125, 201.182 102.500 C 199.510 106.170, 198 105.548, 198 101.189 C 198 97.011, 195.145 93, 192.172 93 C 190.539 93, 184 102.262, 184 104.576 C 184 105.114, 183.237 106.645, 182.303 107.977 L 180.607 110.399 179.548 107.950 C 176.186 100.177, 169.772 94.385, 166.088 95.795 C 163.524 96.776, 161.069 100.301, 161.033 103.054 C 160.976 107.426, 167.947 116.839, 173.380 119.726 C 174.881 120.523, 172.966 121.271, 163.880 123.437 C 157.621 124.929, 150.925 126.873, 149 127.757 C 143.584 130.243, 138 134.966, 138 137.061 C 138 139.953, 142.380 142.351, 146.248 141.576 C 148.037 141.218, 153.550 140.313, 158.500 139.565 C 163.450 138.818, 168.272 137.892, 169.215 137.509 C 170.554 136.965, 170.187 138.340, 167.539 143.781 L 164.148 150.748 155.824 151.958 C 147.283 153.198, 142.162 155.503, 139.499 159.305 C 135.978 164.332, 138.697 166.971, 148.376 167.922 L 154.253 168.500 148.268 176.500 C 141.105 186.074, 127.482 200.752, 126.570 199.877 C 126.212 199.534, 126.694 178.580, 127.640 153.313 L 129.359 107.373 127.105 102.718 C 125.238 98.861, 124.265 97.953, 121.426 97.420 C 116.442 96.485, 112.231 97.562, 105.867 101.401 C 102.769 103.269, 96.694 106.017, 92.367 107.506 C 88.040 108.996, 83.670 110.655, 82.655 111.193 C 81.241 111.943, 80.354 111.684, 78.866 110.086 C 76.884 107.959, 74.375 107.447, 72.400 108.765 C 70.282 110.179, 68.832 114.193, 69.490 116.817 C 69.853 118.264, 70.523 124.106, 70.979 129.801 C 71.914 141.484, 70.942 155.676, 67.987 173.500 C 66.893 180.100, 65.520 188.425, 64.937 192 C 63.306 202.003, 58.138 222.938, 55.957 228.383 C 53.591 234.289, 53.543 235.400, 55.571 237.429 C 57.850 239.708, 62.306 239.377, 64.715 236.750 C 69.497 231.537, 76 213.312, 76 205.123 C 76 202.135, 76.088 202.081, 80.750 202.241 C 84.482 202.369, 87.399 201.498, 94.362 198.177 C 99.236 195.852, 105.133 192.386, 107.465 190.475 C 109.798 188.564, 111.885 187, 112.103 187 C 112.673 186.999, 112.047 264.052, 111.455 266.750 C 111.184 267.988, 110.458 269, 109.841 269 C 108.109 269, 106.066 272.226, 106.042 275 C 106.029 276.375, 107.112 279.847, 108.448 282.715 C 110.226 286.536, 111.581 288.108, 113.512 288.592 C 117.004 289.469, 120.569 287.735, 122.348 284.293 C 124.853 279.449, 126.336 262.845, 125.713 246.625 C 125.395 238.358, 125.397 226.961, 125.718 221.297 L 126.301 211 130.099 211 C 133.177 211, 134.995 210.081, 139.698 206.145 C 142.889 203.474, 147.897 198.637, 150.827 195.395 C 153.757 192.153, 157.247 188.289, 158.582 186.808 C 161.284 183.814, 170.620 168.772, 171.502 165.995 C 172.845 161.763, 181.154 162.057, 189.154 166.619 C 206.342 176.421, 228.397 184.108, 240.144 184.389 C 247.563 184.566, 251.297 179.834, 247.250 175.380 C 244.901 172.794, 241.595 171.440, 231.769 169.040 C 227.221 167.929, 219.129 165.150, 213.786 162.865 L 204.072 158.711 210.786 156.382 C 220.977 152.848, 226.127 145.896, 222.873 140.069 C 221.108 136.910, 215.368 135.876, 214.349 138.534 C 213.332 141.182, 205.708 143.859, 194.397 145.538 C 188.633 146.394, 183.280 147.339, 182.501 147.638 C 181.268 148.111, 184.308 140.395, 187.875 134 C 188.356 133.138, 191.985 131.824, 196.406 130.910 C 200.638 130.035, 206.666 128.156, 209.800 126.734 C 212.935 125.311, 216.261 123.914, 217.192 123.628 C 218.122 123.342, 219.621 121.982, 220.522 120.607 C 222.922 116.944, 220.748 112.689, 216.124 112 L 212.770 111.500 214.908 109.574 C 216.084 108.515, 217.732 105.289, 218.571 102.405 C 219.927 97.740, 219.930 96.768, 218.598 93.581 C 217.359 90.614, 216.593 90, 214.136 90 C 211.733 90, 210.474 90.949, 207.500 95 M 108 114.552 C 104.425 116.447, 98.580 118.917, 95.012 120.040 C 83.507 123.661, 83.939 122.910, 84.240 138.780 C 84.458 150.285, 84.742 152.472, 86 152.327 C 86.825 152.232, 90.084 151.577, 93.241 150.872 C 97.732 149.870, 100.448 149.842, 105.710 150.743 C 109.410 151.377, 112.670 151.663, 112.954 151.380 C 113.465 150.868, 115.820 121.962, 115.939 114.750 C 115.972 112.688, 115.662 111.024, 115.250 111.053 C 114.838 111.083, 111.575 112.657, 108 114.552 M 96.500 165.145 C 93.750 165.645, 89.696 165.841, 87.491 165.580 L 83.483 165.104 81.453 176.552 C 80.337 182.848, 79.541 188, 79.685 188 C 79.829 188, 81.871 187.143, 84.223 186.096 C 86.575 185.048, 90.512 183.361, 92.972 182.346 C 95.431 181.331, 99.773 179.098, 102.621 177.384 C 105.468 175.670, 108.969 173.974, 110.399 173.615 C 112.716 173.033, 113 172.473, 113 168.481 L 113 164 107.250 164.118 C 104.088 164.182, 99.250 164.645, 96.500 165.145 M 173.334 173.575 C 170.541 176.368, 170.526 176.935, 172.864 192 C 174.953 205.466, 175.009 209.862, 173.100 210.468 C 172.139 210.773, 170.485 211.805, 169.425 212.761 C 168.366 213.718, 165.811 215.760, 163.749 217.301 L 160 220.102 159.999 217.301 C 159.996 211.436, 152.712 206.366, 145.934 207.511 C 142.765 208.046, 142.104 208.654, 140.980 212.060 C 139.827 215.555, 139.881 216.211, 141.473 217.970 C 142.458 219.059, 144.103 220.215, 145.130 220.541 C 146.156 220.867, 147.283 222.341, 147.636 223.817 C 147.988 225.292, 148.695 227.034, 149.207 227.686 C 149.839 228.491, 149.107 229.940, 146.933 232.186 C 145.170 234.009, 142.899 237.300, 141.886 239.500 C 138.542 246.762, 139.800 250.009, 145.950 249.988 C 149.160 249.976, 150.437 248.975, 159.279 239.535 C 164.658 233.793, 170.454 228.101, 172.159 226.887 L 175.260 224.679 174.826 242.216 C 174.472 256.506, 174.077 260.233, 172.696 262.342 C 170.357 265.910, 170.564 267.691, 173.646 270.548 C 176.964 273.623, 180.118 273.663, 183.594 270.673 C 187.521 267.295, 188.940 257.165, 188.887 232.873 L 188.845 213.246 191.423 210.668 C 195.272 206.819, 194.755 204.378, 189.458 201.399 C 188.125 200.649, 187.421 199.052, 187.251 196.399 C 186.446 183.767, 183.231 173.882, 179.353 172.115 C 176.136 170.649, 176.300 170.609, 173.334 173.575 M 212.523 186.309 C 210.184 187.718, 208.589 189.586, 206.807 193 C 206.090 194.375, 205.277 195.725, 205.002 196 C 204.009 196.990, 200.834 202.614, 197.946 208.500 C 194.231 216.070, 194.099 219.707, 197.491 220.997 C 200.675 222.207, 202.458 221.494, 204.578 218.166 C 205.511 216.700, 209.339 211.205, 213.084 205.956 C 222.348 192.971, 222.791 191.638, 219.080 187.926 C 215.849 184.695, 215.390 184.582, 212.523 186.309 M 209.030 221.177 C 205.322 222.560, 200 226.906, 200 228.551 C 200 230.617, 203.657 234, 205.891 234 C 206.931 234, 211.894 236.430, 216.920 239.400 C 228.464 246.221, 236.529 249.479, 245.860 251.091 C 254.581 252.597, 260.156 251.210, 262.733 246.894 C 265.975 241.462, 260.964 235.075, 255.680 237.904 C 253.687 238.971, 251.907 238.580, 242.438 234.995 C 236.422 232.717, 228.125 228.889, 224 226.489 C 214.243 220.810, 212.075 220.041, 209.030 221.177" stroke="none" fill="black" fill-rule="evenodd"/>
</svg>