<svg xmlns="http://www.w3.org/2000/svg" width="300" height="300" viewBox="0 0 300 300" version="1.1">
	<path d="M 166.206 9.822 C 164.936 10.923, 163.265 14.779, 161.981 19.572 C 159.584 28.520, 155.245 42.487, 153.926 45.500 C 153.445 46.600, 152.111 50.079, 150.961 53.231 C 149.811 56.383, 148.450 59.222, 147.935 59.540 C 146.590 60.372, 146.782 66.382, 148.200 67.800 C 151.535 71.135, 155.972 68.392, 161.263 59.725 C 163.701 55.733, 164.526 55.140, 168.263 54.694 C 170.594 54.415, 177.225 52.812, 183 51.130 C 188.775 49.449, 198 47.109, 203.500 45.931 C 216.303 43.189, 228.516 39.288, 230.038 37.454 C 230.771 36.571, 230.977 34.690, 230.575 32.549 C 230.016 29.566, 229.438 28.985, 226.476 28.430 C 221.314 27.461, 191.512 32.966, 177.349 37.505 L 170.198 39.796 171.067 37.148 C 175.359 24.067, 177.043 17.128, 176.546 14.566 C 175.359 8.453, 170.404 6.180, 166.206 9.822 M 92.170 17.319 C 90.067 19.558, 89.945 20.317, 90.575 27.270 C 91.215 34.331, 91.073 35.159, 88.274 40.649 C 77.833 61.123, 73.557 68.770, 71.421 70.790 C 67.368 74.624, 68.887 78, 74.665 78 C 78.865 78, 84.179 73.425, 88.149 66.391 C 92.208 59.199, 92.549 59.003, 99 60.185 C 102.025 60.739, 106.383 60.983, 108.684 60.727 L 112.868 60.261 113.545 64.266 C 114.957 72.625, 123.732 78.010, 131.022 74.991 C 134.965 73.358, 136.291 70.897, 135.025 67.565 C 134.240 65.502, 133.380 65, 130.632 65 C 127.017 65, 126 63.770, 126 59.397 C 126 57.686, 126.822 56.607, 128.750 55.785 C 132.647 54.125, 135 51.960, 135 50.036 C 135 47.429, 132.692 44.942, 129.983 44.630 C 128.617 44.473, 126.696 43.988, 125.713 43.551 C 124.522 43.022, 123.272 43.349, 121.966 44.531 C 120.459 45.894, 117.695 46.415, 110.003 46.786 C 104.501 47.051, 100 47.039, 100 46.761 C 100 46.482, 100.856 44.285, 101.901 41.877 C 105.770 32.970, 105.464 21.530, 101.254 17.737 C 98.008 14.811, 94.670 14.658, 92.170 17.319 M 194.750 51.758 C 192.692 53.034, 192 54.257, 192 56.615 C 192 59.799, 192.999 60.937, 203.092 69.250 C 208.594 73.782, 213.333 72.280, 213.333 66.003 C 213.333 61.321, 202.758 49.933, 198.500 50.030 C 197.950 50.043, 196.262 50.820, 194.750 51.758 M 138.687 90.805 C 136.090 93.515, 136 93.994, 136 105.085 C 136 117.426, 138.416 140.039, 140.063 143.117 C 140.617 144.153, 141.955 145, 143.035 145 C 144.116 145, 145 145.415, 145 145.923 C 145 146.431, 146.165 148.231, 147.589 149.923 C 149.980 152.765, 150.664 153, 156.537 153 C 164.467 153, 177.947 148.954, 179.758 146.031 C 180.451 144.913, 182.085 144, 183.392 144 C 184.878 144, 187.067 142.561, 189.240 140.156 C 193.034 135.956, 194.922 129.538, 197.036 113.657 C 199.773 93.086, 191.118 85.141, 170.596 89.385 C 166.301 90.273, 160.472 91.007, 157.643 91.015 C 154.814 91.024, 151.897 91.413, 151.160 91.880 C 150.274 92.441, 149.019 91.928, 147.456 90.365 C 144.351 87.260, 141.969 87.379, 138.687 90.805 M 171 103 C 169.625 103.440, 164.046 103.845, 158.602 103.900 L 148.704 104 149.346 112.250 C 149.699 116.787, 149.991 124.888, 149.994 130.250 L 150 140 160.250 139.989 C 175.588 139.973, 177.500 139.486, 179.324 135.135 C 181.192 130.680, 182.286 124.705, 181.100 125.438 C 180.621 125.734, 178.888 125.508, 177.247 124.936 C 175.022 124.161, 172.138 124.310, 165.883 125.526 C 161.272 126.423, 156.150 127.233, 154.500 127.328 C 151.747 127.486, 151.475 127.207, 151.201 123.947 C 150.838 119.623, 153.816 115.393, 158.643 113.376 C 163.198 111.473, 174.702 111.431, 179.178 113.301 L 182.801 114.815 183.464 110.394 C 184.524 103.320, 183.673 101.983, 178.183 102.100 C 175.607 102.155, 172.375 102.560, 171 103 M 70.655 109.829 C 67.849 112.929, 68.617 117.290, 72.995 123.117 C 75.193 126.041, 77.242 130.024, 77.549 131.967 C 78.373 137.181, 79.395 138.500, 82.609 138.500 C 84.904 138.500, 85.870 137.779, 87.297 135 C 89.438 130.828, 88.961 125.813, 85.836 119.658 C 80.640 109.423, 74.576 105.497, 70.655 109.829 M 186 157.056 C 181.325 158.075, 176.179 158.929, 174.564 158.954 C 171.759 158.998, 168.586 159.659, 150.500 163.967 C 146.100 165.015, 136.939 166.858, 130.141 168.062 C 119.530 169.942, 117.303 170.673, 114.391 173.230 C 112.526 174.867, 111 177.005, 111 177.981 C 111 181.506, 113.111 181.995, 124.071 181.007 C 129.807 180.490, 135.035 180.052, 135.689 180.034 C 136.949 179.998, 133.287 191.851, 130.293 197.500 C 126.491 204.672, 119.466 214.360, 113.484 220.680 C 109.807 224.565, 107.022 228.402, 107.014 229.595 C 106.993 232.746, 110.399 235.368, 113.502 234.589 C 116.834 233.752, 129.349 222.824, 134.500 216.252 C 137.541 212.372, 139.168 211.131, 141.285 211.074 C 143.857 211.006, 143.979 211.170, 142.885 213.215 C 140.926 216.875, 136.037 238.163, 136.018 243.115 C 135.989 250.656, 140.659 254.858, 145.932 252.036 C 147.242 251.335, 147.915 249.356, 148.398 244.786 C 148.763 241.329, 149.923 235.800, 150.975 232.500 C 153.741 223.827, 156 214.702, 156 212.203 C 156 210.645, 156.771 209.880, 158.750 209.473 C 160.262 209.162, 163.677 208.051, 166.338 207.003 C 170.473 205.375, 171.090 205.324, 170.579 206.654 C 170.251 207.509, 169.043 213.225, 167.894 219.355 C 162.685 247.161, 160.389 254.379, 154.442 261.636 C 150.681 266.226, 150.150 269.007, 152.571 271.429 C 156.173 275.030, 160.860 272.812, 166.885 264.655 C 171.682 258.162, 174.079 253.420, 177.075 244.500 C 179.055 238.607, 179.431 235.444, 179.456 224.500 C 179.489 209.837, 178.865 206.409, 175.998 205.499 C 174.899 205.151, 174 204.557, 174 204.179 C 174 203.377, 193.311 194.843, 200.285 192.564 C 207.013 190.365, 208.881 190.557, 210.025 193.565 C 210.570 194.999, 211 207.874, 211 222.751 C 211 246.731, 210.792 250.123, 208.899 256.936 C 206.211 266.617, 203.421 271.343, 200.800 270.658 C 197.556 269.810, 193.256 271.880, 192.749 274.533 C 192.217 277.318, 194.982 282.385, 197.881 283.936 C 198.974 284.521, 201.682 285, 203.899 285 C 210.879 285, 216.840 278.075, 222.160 263.785 C 224.458 257.613, 224.496 256.918, 224.253 225.025 C 223.997 191.293, 223.579 187.513, 219.627 183.155 C 213.419 176.311, 203.761 176.130, 189.349 182.588 C 187.616 183.365, 185.955 184, 185.658 184 C 185.361 184, 181.154 185.832, 176.309 188.072 C 155.145 197.855, 155.953 197.506, 148.782 199.934 C 143.608 201.686, 143.151 201.710, 143.979 200.185 C 145.608 197.186, 148.743 187.608, 149.440 183.500 C 150.369 178.028, 151.920 176.281, 156.550 175.493 C 158.722 175.124, 163.650 174.016, 167.500 173.031 C 171.350 172.047, 178.325 170.454, 183 169.491 C 195.521 166.913, 201.110 165.211, 203.166 163.350 C 205.523 161.217, 205.478 159.891, 202.961 157.189 C 200.495 154.542, 197.639 154.519, 186 157.056 M 60.558 166.035 C 51.895 169.647, 48.628 172.671, 49.526 176.248 C 49.921 177.820, 51.323 179.305, 53.113 180.047 C 56.129 181.296, 57.102 181.053, 69.746 175.890 C 72.574 174.735, 73.369 174.787, 75.913 176.289 C 81.308 179.477, 86.753 175.031, 83.798 169.851 C 79.542 162.393, 72.189 161.186, 60.558 166.035 M 94.303 189.750 C 90.040 198.326, 83.875 208.836, 80.315 213.594 C 79.042 215.296, 78 217.052, 78 217.497 C 78 217.941, 76.637 220.148, 74.972 222.402 C 50.377 255.681, 46 262.279, 46 266.071 C 46 271.757, 52.743 275.158, 56.269 271.250 C 57.138 270.288, 60.179 265.900, 63.029 261.500 C 65.878 257.100, 69.210 252.375, 70.433 251 C 72.243 248.967, 80.481 236.235, 89.845 221 C 93.604 214.885, 103.008 196.059, 104.495 191.674 C 105.992 187.258, 105.996 186.643, 104.542 184.424 C 103.592 182.973, 101.990 182, 100.554 182 C 98.559 182, 97.505 183.307, 94.303 189.750" stroke="none" fill="black" fill-rule="evenodd"/>
</svg>