<svg xmlns="http://www.w3.org/2000/svg" width="300" height="300" viewBox="0 0 300 300" version="1.1">
	<path d="M 177.294 10.772 C 173.696 13.591, 173.200 16.549, 174.756 25.919 C 176.368 35.625, 175.982 73.291, 173.936 106 C 172.676 126.129, 172.415 135.790, 173.076 137.775 C 173.309 138.477, 172.156 139.827, 170.513 140.775 C 168.870 141.724, 167.040 143.112, 166.446 143.859 C 165.617 144.903, 165.084 143.953, 164.145 139.756 C 163.472 136.752, 162.022 133.328, 160.922 132.147 C 158.878 129.953, 154.589 129.341, 152.138 130.894 C 150.095 132.188, 149.065 139.761, 150.085 145.987 C 150.582 149.019, 150.991 160.893, 150.994 172.374 L 151 193.247 147.250 189.286 C 145.188 187.107, 140.800 183.565, 137.500 181.415 C 134.200 179.265, 131.275 177.264, 131 176.968 C 130.725 176.672, 124.200 173.214, 116.500 169.283 L 102.500 162.136 102.235 133.146 L 101.970 104.155 107.735 102.001 C 115.706 99.023, 119.780 96.325, 121.588 92.830 C 125.089 86.059, 119.939 80.451, 114.150 84.731 C 111.715 86.531, 110.457 87.055, 104.750 88.647 C 103.153 89.092, 103 88.078, 103 77.029 C 103 61.286, 104.714 32.184, 106.102 24.338 C 107.322 17.449, 105.881 11.098, 103.049 10.882 C 98.435 10.529, 97.242 11.578, 94.229 18.643 C 92.256 23.271, 91.968 26.203, 91.359 47.893 C 90.875 65.134, 90.351 72, 89.521 72 C 87.923 72, 84.837 68.283, 81.486 62.322 C 79.937 59.567, 77.208 56.311, 75.421 55.086 C 72.379 53.002, 71.982 52.958, 69.203 54.395 C 63.340 57.427, 64.362 64.746, 71.906 73.757 C 78.838 82.036, 80.390 83.177, 85.512 83.754 C 90.087 84.270, 90.103 84.286, 89.802 87.847 C 89.523 91.146, 89.192 91.482, 85.500 92.201 C 65.746 96.050, 51.861 101.293, 46.060 107.094 C 42.407 110.746, 42.168 113.870, 45.314 116.826 C 48.332 119.660, 50.642 119.568, 56.601 116.374 C 63.419 112.720, 73.396 109.193, 78.881 108.498 C 81.421 108.176, 84.963 107.686, 86.750 107.411 C 89.854 106.932, 90 107.056, 90 110.167 C 90 112.462, 89.245 114.027, 87.446 115.462 C 85.333 117.148, 84.469 119.489, 82.451 129 C 81.109 135.325, 80.008 141.461, 80.005 142.635 C 79.999 145.129, 78.801 149.337, 71.361 173 C 65.231 192.496, 50.460 224.252, 45.053 229.558 C 39.873 234.642, 42.055 241.009, 48.973 240.995 C 54.729 240.983, 62.222 232.630, 68.705 219 C 70.667 214.875, 73.881 208.125, 75.846 204 C 77.811 199.875, 81.775 189.750, 84.653 181.500 L 89.887 166.500 89.930 181 C 89.972 195.115, 88.758 228.409, 87.399 250.379 C 86.828 259.609, 86.457 261.329, 84.955 261.722 C 79.281 263.206, 82.433 279, 88.404 279 C 93.410 279, 95.737 276.518, 98.193 268.558 C 99.683 263.731, 101.915 221.656, 101.959 197.563 L 102 175.626 104.750 178.209 C 108.332 181.575, 119.786 188.868, 128 193.014 C 131.575 194.819, 136.860 197.877, 139.745 199.810 C 144.383 202.919, 145.285 203.191, 147.542 202.163 C 148.946 201.523, 150.298 201, 150.547 201 C 151.521 201, 150.936 229.483, 149.890 232.972 C 148.982 236.002, 149.078 237.250, 150.416 239.838 C 151.315 241.577, 151.638 243, 151.133 243 C 149.585 243, 149.004 245.880, 150.015 248.538 C 153.035 256.483, 177.436 258.054, 217.432 252.881 C 226.273 251.737, 232.527 249.065, 233.495 246.017 C 234.311 243.444, 235.618 243.430, 236.287 245.988 C 237.183 249.418, 241.614 250.335, 247.400 248.290 C 253.646 246.081, 258.574 241.239, 262.500 233.451 L 265.500 227.500 265.500 193.500 C 265.500 157.166, 265.257 154.797, 260.174 141.511 C 256.770 132.614, 249.431 124.737, 242.892 122.961 C 237.046 121.373, 226.926 122.292, 214.500 125.537 C 192.046 131.402, 185.616 132.949, 185.244 132.578 C 185.030 132.363, 185.354 130.458, 185.964 128.344 C 187.162 124.194, 189.945 94.066, 189.979 84.878 L 190 79.256 193.750 78.649 C 195.813 78.316, 203.125 76.451, 210 74.504 C 223.424 70.703, 233.476 68.739, 238.853 68.867 C 243.589 68.980, 248.487 64.104, 247.536 60.225 C 246.305 55.200, 244.705 54.482, 235.204 54.691 C 222.313 54.974, 203.779 59.364, 195.220 64.161 C 193.415 65.173, 191.728 66, 191.470 66 C 191.211 66, 191 59.554, 191 51.676 C 191 36.364, 188.854 18.552, 186.449 13.901 C 185.080 11.254, 182.209 8.971, 180.316 9.022 C 179.867 9.034, 178.507 9.822, 177.294 10.772 M 112.573 50.570 C 110.029 53.114, 109.576 56.888, 111.365 60.639 C 112.264 62.525, 113 65.145, 113 66.462 C 113 72.305, 121.267 74.249, 123.245 68.872 C 124.102 66.542, 122.302 53.456, 120.792 51.038 C 119.259 48.584, 114.812 48.330, 112.573 50.570 M 227 137.587 C 222.875 138.334, 215.450 140.104, 210.500 141.520 C 205.550 142.936, 199.109 144.750, 196.186 145.551 C 190.614 147.079, 183.548 150.358, 172.406 156.589 L 165.750 160.312 166.381 168.406 C 167.397 181.429, 165.339 231.787, 163.589 236.748 L 162.107 240.947 166.304 240.501 C 168.612 240.256, 181.300 239.572, 194.500 238.981 C 220.468 237.818, 223 237.539, 223 235.841 C 223 234.386, 226.076 232.063, 228 232.065 C 230.618 232.068, 233.666 235.445, 234.748 239.540 C 235.323 241.718, 235.849 242.825, 235.918 242 C 235.987 241.175, 237.842 239.227, 240.042 237.671 C 248.395 231.760, 250.001 224.587, 249.997 193.201 C 249.992 152.984, 246.717 138.756, 237 136.745 C 235.625 136.461, 231.125 136.840, 227 137.587" stroke="none" fill="black" fill-rule="evenodd"/>
</svg>