<svg xmlns="http://www.w3.org/2000/svg" width="300" height="300" viewBox="0 0 300 300" version="1.1">
	<path d="M 63.229 31.632 C 59.780 33.121, 59.043 37.613, 58.466 60.664 C 57.726 90.241, 57.807 89.758, 53.468 90.572 C 47.934 91.610, 45.424 90.384, 38.171 83.102 C 30.118 75.017, 28.148 74.148, 23.723 76.723 C 17.288 80.467, 19.525 87.105, 30.153 95.809 C 37.354 101.706, 42.716 103.485, 51.024 102.732 L 57 102.190 57 107.467 L 57 112.745 48.250 114.501 C 18.741 120.421, 9 124.521, 9 131.019 C 9 136.998, 14.580 138.413, 24.583 134.972 C 27.825 133.856, 35.433 132.057, 41.489 130.973 C 47.545 129.890, 53.513 128.725, 54.750 128.385 C 56.848 127.809, 57 128.079, 57 132.383 C 57 134.923, 56.560 137, 56.023 137 C 53.984 137, 52.011 141.873, 50.137 151.540 C 48.933 157.753, 46.290 166.090, 43.169 173.524 C 37.329 187.434, 34.733 194.533, 32.939 201.500 C 31.386 207.530, 20.922 235.359, 17.437 242.726 C 16.014 245.733, 14.278 248, 13.399 248 C 8.658 248, 7.400 255.982, 11.452 260.354 C 14.451 263.590, 18.688 263.820, 22.343 260.945 C 27.597 256.812, 34.743 241.712, 46.093 210.754 C 49.067 202.643, 51.950 196.157, 52.500 196.339 C 53.141 196.552, 53.458 207.565, 53.384 227.001 C 53.275 255.478, 53.153 257.415, 51.384 258.711 C 49.917 259.786, 49.528 261.261, 49.624 265.377 C 49.806 273.122, 53.300 279, 57.721 279 C 66.045 279, 67.152 274.178, 67.747 235.328 L 68.224 204.157 72.862 207.043 C 75.413 208.631, 79 211.229, 80.834 212.817 C 86.710 217.905, 99.652 225.144, 103.889 225.712 C 109.213 226.426, 113 224.107, 113 220.132 C 113 217.106, 111.275 215.139, 106.500 212.723 C 104.850 211.888, 101.085 208.960, 98.133 206.217 C 91.354 199.917, 82.533 194.675, 74.822 192.366 L 68.826 190.569 69.441 163.035 C 69.779 147.891, 70.300 132.728, 70.598 129.341 C 71.096 123.684, 71.358 123.127, 73.820 122.515 C 78.269 121.409, 89.257 115.898, 93.250 112.770 C 97.470 109.464, 98.047 106.514, 95.133 103.153 C 92.565 100.192, 91.039 100.403, 81.758 105 C 77.317 107.200, 73.035 109, 72.244 109 C 71.012 109, 70.854 103.559, 71.144 71.075 C 71.331 50.216, 71.229 32.896, 70.919 32.585 C 70.029 31.695, 64.633 31.026, 63.229 31.632 M 212.571 43.571 C 211.707 44.436, 211 45.777, 211 46.552 C 211 47.328, 209.762 48.206, 208.250 48.504 C 206.738 48.802, 200.550 50.377, 194.500 52.005 C 188.450 53.633, 181.475 55.404, 179 55.942 C 153.691 61.440, 148 63.438, 148 66.823 C 148 70.472, 149.988 71, 163.735 71 L 177.071 71 176.504 93.750 C 176.193 106.263, 175.688 121.059, 175.381 126.630 L 174.824 136.761 166.094 137.880 C 161.293 138.496, 154.583 139, 151.182 139 L 145 139 144.761 106.250 C 144.630 88.237, 144.518 68.057, 144.511 61.404 C 144.503 52.636, 144.122 48.853, 143.128 47.654 C 141.531 45.730, 136.214 45.515, 133.913 47.282 C 129.655 50.551, 129.583 51.445, 129.889 97.123 L 130.181 140.747 124.340 141.428 C 111.766 142.893, 100.665 147.401, 94.533 153.533 C 87.365 160.702, 92.472 169.137, 100.267 163.004 C 103.312 160.609, 111.696 158.410, 122.250 157.237 L 130 156.375 129.996 172.938 C 129.991 192.195, 128.606 213.107, 126.348 228 C 125.473 233.775, 124.546 242.557, 124.290 247.515 C 123.867 255.673, 124.018 256.707, 125.878 258.390 C 128.579 260.834, 132.691 260.753, 135.237 258.207 C 136.853 256.591, 137.988 252.024, 140.671 236.332 C 143.644 218.945, 144.213 212.679, 145.281 185.509 L 146.500 154.517 160.500 152.900 C 168.200 152.010, 174.692 151.448, 174.926 151.650 C 175.160 151.853, 175.654 167.891, 176.024 187.290 C 176.481 211.300, 177.073 223.267, 177.877 224.769 C 180.227 229.161, 187.356 228.459, 188.524 223.721 C 188.826 222.500, 189.169 205.239, 189.286 185.364 L 189.500 149.227 198.479 147.994 C 203.417 147.316, 208.029 146.542, 208.729 146.274 C 209.721 145.893, 210 148.940, 210.002 160.143 C 210.005 184.593, 212.031 236.190, 213.064 238.120 C 214.423 240.659, 217.691 242.233, 220.049 241.485 C 224.465 240.083, 224.688 237.935, 225.372 190.072 C 225.730 165.087, 226.160 144.507, 226.329 144.338 C 226.497 144.169, 230.205 143.331, 234.568 142.475 C 238.930 141.619, 243.578 140.687, 244.895 140.404 L 247.290 139.889 246.655 183.695 C 246.044 225.824, 244.218 259.194, 242.179 265.500 C 240.616 270.332, 239.830 272, 239.116 272 C 238.747 272, 236.968 270.650, 235.161 269 C 231.834 265.961, 230.289 265.548, 226.275 266.624 C 222.748 267.569, 222.086 273.382, 225.128 276.697 C 229.450 281.407, 236.082 285, 240.446 284.996 C 252.122 284.985, 257.317 274.041, 259.905 244 C 261.912 220.699, 263.216 177.660, 262.529 157.388 L 261.848 137.275 271.674 133.930 C 285.897 129.088, 291.346 123.274, 287.837 116.684 C 285.082 111.512, 281.039 111.052, 276.676 115.415 C 274.071 118.019, 263.493 121.826, 262.266 120.600 C 261.849 120.183, 261.199 109.190, 260.821 96.171 C 259.515 51.245, 259.379 50.460, 251.927 45.062 C 248.375 42.489, 246.779 42, 241.938 42 C 238.769 42, 232.716 42.662, 228.488 43.471 C 221.721 44.766, 220.623 44.766, 219.328 43.471 C 217.413 41.556, 214.544 41.599, 212.571 43.571 M 227.145 56.719 L 224.791 57.167 225.145 92 C 225.340 111.159, 225.765 127.099, 226.089 127.423 C 226.413 127.746, 230.913 127.193, 236.089 126.192 L 245.500 124.373 245.824 112.436 C 246.002 105.871, 245.840 90.488, 245.463 78.250 L 244.777 56 237.139 56.136 C 232.937 56.211, 228.440 56.474, 227.145 56.719 M 88.493 64.252 C 86.200 66.225, 85.777 67.576, 85.090 75.116 C 84.610 80.379, 83.662 84.644, 82.652 86.086 C 79.558 90.504, 81.023 96, 85.296 96 C 88.137 96, 92.520 93.083, 94.360 89.968 C 96.770 85.887, 99.972 75.029, 99.987 70.885 C 100.003 66.415, 96.771 62, 93.483 62 C 92.179 62, 89.933 63.014, 88.493 64.252 M 204.500 63.022 C 203.400 63.523, 199.951 64.644, 196.836 65.513 L 191.172 67.092 190.620 75.296 C 190.317 79.808, 189.819 94.862, 189.514 108.750 C 188.993 132.452, 189.068 134, 190.729 133.999 C 191.703 133.998, 196.325 133.323, 201 132.500 C 205.675 131.677, 209.618 131.002, 209.763 131.001 C 209.908 131.001, 209.908 115.594, 209.763 96.763 C 209.480 59.981, 209.593 60.702, 204.500 63.022 M 54.116 186.668 C 54.052 187.311, 53.709 188.661, 53.353 189.668 C 52.851 191.089, 52.984 191.244, 53.947 190.356 C 54.629 189.727, 54.973 188.377, 54.710 187.356 C 54.447 186.335, 54.180 186.026, 54.116 186.668" stroke="none" fill="black" fill-rule="evenodd"/>
</svg>