<svg xmlns="http://www.w3.org/2000/svg" width="300" height="300" viewBox="0 0 300 300" version="1.1">
	<path d="M 175.750 10.572 C 171.524 12.864, 171.998 17.721, 177.365 27.116 C 179.758 31.304, 181.992 35.831, 182.329 37.174 C 182.941 39.612, 182.917 39.620, 171.221 40.855 C 164.774 41.537, 155.675 42.757, 151 43.567 C 146.325 44.378, 140.455 45.385, 137.956 45.805 C 135.456 46.225, 132.306 46.298, 130.956 45.967 C 127.378 45.089, 125 45.960, 125 48.148 C 125 49.201, 124.213 50.353, 123.250 50.708 C 120.863 51.589, 120.033 53.006, 120.015 56.231 C 119.999 59.086, 121.027 59.634, 127.500 60.226 C 130.181 60.471, 130.625 61.007, 131.676 65.263 C 136.297 83.985, 135.873 109.603, 130.406 142 C 129.524 147.225, 128.412 155.100, 127.936 159.500 C 126.365 173.993, 125.773 177, 124.492 177 C 123.806 177, 122.704 176.348, 122.042 175.551 C 119.457 172.436, 97.267 155.126, 93.290 153.121 C 90.974 151.955, 87.712 151, 86.040 151 L 83 151 83 136.631 L 83 122.262 86.388 121.712 C 91.748 120.842, 106.928 113.942, 108.538 111.643 C 110.428 108.944, 110.395 106.252, 108.449 104.306 C 106.532 102.389, 100.521 102.920, 90.600 105.884 L 83.699 107.945 84.351 81.722 C 84.709 67.300, 85.492 53.025, 86.091 50 C 87.489 42.929, 87.342 39.914, 85.509 38.080 C 83.285 35.856, 79.099 37.770, 75.823 42.510 C 73.306 46.152, 72.975 47.723, 72.037 60.500 C 71.471 68.200, 71.006 80.013, 71.004 86.750 C 71.001 96.343, 70.708 99, 69.655 99 C 67.903 99, 65.854 96.534, 63.121 91.134 C 58.568 82.139, 53.426 80.064, 48.750 85.334 C 46.043 88.384, 46.605 92.312, 50.440 97.155 C 58.053 106.771, 61.286 109, 67.624 109 C 72.885 109, 70.812 110.629, 64.627 111.356 C 57.735 112.166, 41.441 117.453, 37.467 120.169 C 34.583 122.140, 32 126.087, 32 128.525 C 32 130.417, 36.493 134, 38.864 134 C 40.093 134, 42.322 133.368, 43.817 132.595 C 45.311 131.822, 51.026 129.991, 56.517 128.526 C 62.008 127.061, 67.344 125.620, 68.375 125.324 C 69.738 124.933, 70.029 125.143, 69.442 126.094 C 68.997 126.813, 66.749 132.824, 64.445 139.451 C 60.353 151.219, 55.259 163.390, 48.520 177.500 C 35.857 204.012, 32.183 211.122, 28.679 215.898 C 25.367 220.412, 24.864 221.706, 25.609 223.795 C 27.750 229.799, 33.365 229.126, 40 222.069 C 42.898 218.987, 47.091 212.158, 51.777 202.891 C 55.779 194.976, 61.406 183.954, 64.281 178.398 L 69.509 168.296 69.159 200.898 C 68.833 231.293, 68.681 233.640, 66.905 235.564 C 65.857 236.700, 65.004 238.725, 65.010 240.064 C 65.024 243.497, 69.432 252.568, 71.466 253.348 C 75.040 254.720, 77.957 253.995, 79.727 251.296 C 81.345 248.828, 81.528 244.668, 81.823 203.796 C 82.178 154.421, 82.074 155.099, 88.038 163.403 C 89.777 165.825, 94.817 170.663, 99.238 174.153 C 103.659 177.644, 109.387 182.300, 111.968 184.500 C 114.549 186.700, 117.913 189.403, 119.444 190.506 L 122.227 192.512 120.587 202.006 C 118.633 213.321, 118.443 214.090, 112.600 234.266 C 110.089 242.938, 107.183 251.938, 106.141 254.266 C 102.143 263.202, 100.006 267.559, 98.844 269.149 C 97.878 270.470, 97.977 271.315, 99.342 273.399 C 103.475 279.707, 110.212 274.449, 117.534 259.201 C 119.990 254.086, 122 249.542, 122 249.103 C 122 248.663, 123.800 242.822, 126 236.123 C 128.200 229.423, 129.999 223.167, 129.997 222.221 C 129.991 218.413, 135.457 196.386, 136.805 194.783 C 137.669 193.757, 138 192.147, 137.627 190.783 C 137.284 189.527, 137.450 185.350, 137.996 181.500 C 138.542 177.650, 139.680 169.550, 140.526 163.500 C 143.518 142.091, 143.974 140.181, 145.970 140.702 C 146.962 140.962, 148.077 140.685, 148.446 140.087 C 148.820 139.482, 152.084 138.994, 155.809 138.987 C 159.489 138.979, 167.450 138.079, 173.500 136.986 C 179.550 135.893, 186.258 134.705, 188.406 134.347 L 192.311 133.695 191.667 137.597 C 191.312 139.744, 191.017 142.287, 191.011 143.250 C 191.003 144.552, 190.168 145.004, 187.750 145.017 C 181.946 145.048, 168.350 149.204, 157.115 154.383 C 153.650 155.980, 151.656 159.492, 152.440 162.617 C 153.098 165.239, 153.127 165.246, 160.300 164.564 C 166.910 163.935, 183.866 160.800, 188.410 159.366 C 190.238 158.790, 190.291 159.249, 189.664 170.132 C 189.304 176.384, 189.007 186.056, 189.005 191.625 L 189 201.750 186.250 202.302 C 183.598 202.834, 157.714 219.711, 151.525 224.943 C 144.055 231.258, 138.096 237.768, 137.458 240.312 C 135.809 246.883, 144.825 249.483, 151.173 244.267 C 153.003 242.764, 154.829 241.020, 155.230 240.391 C 156.428 238.517, 172.839 224.932, 181.467 218.672 L 189.500 212.844 189.826 216.672 C 190.305 222.301, 188.195 256.216, 186.905 263.622 C 186.246 267.407, 185.294 270, 184.563 270 C 183.885 270, 182.128 268.650, 180.658 267 C 177.432 263.380, 176.040 263.264, 173.123 266.370 C 170.062 269.627, 171.096 273.069, 176.964 279.157 C 180.995 283.339, 182.170 283.999, 185.566 283.996 C 197.990 283.984, 202.338 272.977, 203.635 238.254 L 204.316 220.009 209.514 224.754 C 226.591 240.346, 243.959 249.773, 261.410 252.924 C 270.769 254.614, 279 251.608, 279 246.500 C 279 243.297, 276.167 241.343, 270.482 240.626 C 264.151 239.827, 247.657 234.470, 247.187 233.060 C 246.992 232.477, 246.254 232, 245.545 232 C 244.836 232, 240.751 229.637, 236.466 226.750 C 220.967 216.306, 215.401 212.880, 209.857 210.374 C 205.191 208.265, 204.110 207.298, 203.607 204.787 C 202.821 200.853, 202.837 189.079, 203.656 170.159 C 204.267 156.049, 204.446 155, 206.252 155 C 209.821 155, 219.445 151.754, 224.773 148.753 C 230.313 145.633, 232.371 143.131, 231.426 140.668 C 231.115 139.856, 231.963 136.336, 233.312 132.846 C 234.661 129.356, 236.023 125.726, 236.340 124.780 C 236.656 123.834, 238.171 122.763, 239.707 122.401 C 243.126 121.595, 248 117.226, 248 114.968 C 248 112.799, 244.856 110, 242.421 110.001 C 240.719 110.003, 240.539 109.380, 240.840 104.547 C 241.603 92.305, 234.513 87.334, 217.554 88.222 L 208.283 88.707 207.705 77.103 C 207.370 70.380, 207.520 65.100, 208.063 64.550 C 208.578 64.028, 209 62.601, 209 61.379 C 209 59.711, 208.232 58.990, 205.909 58.480 C 203.362 57.921, 202.302 58.295, 199.893 60.603 C 196.368 63.979, 195.389 67.553, 194.599 79.918 C 194.269 85.097, 193.793 89.540, 193.543 89.790 C 192.876 90.457, 169.974 93.881, 159.210 94.922 C 154.101 95.416, 149.324 96.316, 148.594 96.922 C 147.507 97.824, 147.168 95.714, 146.725 85.262 C 146.369 76.858, 145.493 70.114, 144.161 65.514 C 143.048 61.672, 142.219 58.486, 142.319 58.434 C 144.009 57.551, 156.493 55.672, 165.214 54.988 C 171.421 54.502, 180.775 53.648, 186 53.091 C 191.225 52.534, 204.725 51.387, 216 50.542 C 237.572 48.926, 242.101 48.123, 245.138 45.375 C 247.752 43.010, 247.563 38.372, 244.793 36.889 C 242.600 35.715, 222.387 36.073, 202.250 37.643 L 194 38.286 194 34.767 C 194 32.832, 192.875 28.705, 191.500 25.596 C 190.125 22.487, 189 19.371, 189 18.673 C 189 17.002, 181.274 8.989, 179.713 9.040 C 179.046 9.062, 177.262 9.751, 175.750 10.572 M 94.250 74.944 C 92.347 76.531, 92 77.807, 92 83.210 C 92 90.251, 93.010 92, 97.078 92 C 100.678 92, 101.611 90.542, 102.376 83.717 C 102.967 78.453, 102.804 77.713, 100.558 75.467 C 97.628 72.537, 97.179 72.500, 94.250 74.944 M 210.500 102.892 L 206.500 103.500 206.209 110.598 L 205.919 117.696 213.983 115.946 C 224.840 113.590, 224.723 113.655, 226.080 109.128 C 227.911 103.015, 227.049 101.976, 220.281 102.142 C 217.102 102.220, 212.700 102.557, 210.500 102.892 M 184.500 105.050 C 180.100 105.470, 172.900 106.530, 168.500 107.406 C 159.453 109.208, 151.728 109.460, 149.074 108.040 C 147.423 107.156, 147.226 107.876, 146.591 117.086 C 146.212 122.589, 145.657 127.858, 145.357 128.796 C 145.034 129.803, 145.157 130.083, 145.656 129.480 C 147.456 127.304, 152.390 126.072, 171.596 123.004 C 182.543 121.255, 191.780 119.526, 192.122 119.162 C 193.059 118.166, 194.130 103.978, 193.257 104.144 C 192.841 104.223, 188.900 104.631, 184.500 105.050 M 218.500 128.158 C 216.850 128.636, 213.250 129.362, 210.500 129.773 L 205.500 130.520 205.200 136.260 C 205.008 139.933, 205.294 142, 205.995 142 C 206.596 142, 209.994 141.270, 213.544 140.378 C 219.070 138.991, 220 138.436, 220 136.528 C 220 135.302, 220.502 132.858, 221.116 131.098 C 221.729 129.338, 222.067 127.761, 221.866 127.594 C 221.665 127.427, 220.150 127.681, 218.500 128.158 M 245.385 160.580 C 241.582 161.963, 231 171.737, 231 173.866 C 231 174.336, 227.371 178.046, 222.935 182.110 C 213.515 190.742, 210.530 194.992, 211.415 198.516 C 212.201 201.649, 216.211 202.750, 220.044 200.884 C 223.463 199.219, 231.372 192.500, 243.435 181.010 C 248.349 176.330, 253.861 171.083, 255.685 169.350 C 259.493 165.732, 259.650 165.005, 257.250 162.114 C 254.932 159.322, 250.441 158.741, 245.385 160.580 M 145.923 189.351 C 144.624 189.999, 142.904 191.698, 142.102 193.127 C 139.204 198.291, 144.574 204.951, 151.700 205.032 C 153.240 205.049, 155.374 205.724, 156.441 206.532 C 159.375 208.751, 164.703 208.423, 166.031 205.941 C 167.391 203.400, 166.459 198.715, 164.193 196.705 C 162.493 195.197, 152.896 189.867, 149.893 188.763 C 149.010 188.438, 147.223 188.703, 145.923 189.351" stroke="none" fill="black" fill-rule="evenodd"/>
</svg>