<svg xmlns="http://www.w3.org/2000/svg" width="300" height="300" viewBox="0 0 300 300" version="1.1">
	<path d="M 187.393 25.338 C 184.778 27.588, 184.678 28.034, 184.770 37.088 L 184.865 46.500 174.183 46.502 C 162.134 46.505, 157.429 47.618, 150.738 52.050 C 145.651 55.420, 144.133 58.251, 146.126 60.652 C 148.644 63.686, 151.872 64.075, 161.585 62.512 C 166.751 61.680, 174.197 61, 178.130 61 L 185.282 61 184.762 69.340 C 184.179 78.677, 182.982 81.779, 179.721 82.398 C 164.695 85.252, 152.360 87.006, 147.323 87.003 C 141.915 87, 140.899 87.313, 139.169 89.512 C 136.730 92.613, 137.311 95.243, 141.149 98.472 C 145.085 101.784, 149.968 102.519, 158.854 101.138 C 162.956 100.500, 166.404 100.096, 166.518 100.239 C 166.631 100.383, 164.635 104.106, 162.082 108.514 C 152.824 124.497, 150.279 137.772, 155.411 143.310 C 157.441 145.500, 158.285 145.779, 160.745 145.073 C 164.144 144.098, 172.943 135.285, 172.977 132.821 C 173 131.109, 170.882 128.461, 168.981 127.827 C 167.630 127.377, 172.195 111.369, 174.975 106.810 C 176.084 104.989, 176.994 102.037, 176.996 100.250 C 176.999 97.502, 177.365 97, 179.360 97 C 180.659 97, 183.879 96.704, 186.517 96.343 C 190.269 95.828, 191.141 95.963, 190.524 96.961 C 187.451 101.934, 188.475 113.192, 192.534 119.049 C 196.388 124.611, 202.699 127, 213.534 127 C 222.870 127, 227.893 125.418, 230.535 121.647 C 232.513 118.822, 232.378 116.783, 230.047 114.280 C 228.240 112.342, 227.342 112.225, 218.129 112.733 C 208.307 113.274, 208.131 113.244, 205.695 110.616 C 202.823 107.517, 200.966 100.878, 201.697 96.320 C 202.147 93.508, 202.673 93.062, 206.245 92.459 C 208.466 92.083, 214.607 90.261, 219.892 88.408 C 234.268 83.368, 239.233 77.143, 233.472 71.381 C 231.390 69.299, 230.379 68.977, 227.737 69.558 C 225.973 69.945, 223.594 70.875, 222.450 71.625 C 220.056 73.193, 197.981 79.315, 197.273 78.607 C 197.118 78.451, 197.443 75.939, 197.995 73.025 C 198.548 70.111, 199 66.249, 199 64.443 C 199 61.552, 199.388 61.074, 202.246 60.446 C 206.167 59.585, 211.519 57.226, 215.250 54.715 C 219.007 52.186, 219.128 46.785, 215.480 44.395 C 213.146 42.866, 212.645 42.864, 208.696 44.372 C 206.352 45.267, 203.252 46, 201.808 46 L 199.182 46 198.841 35.462 C 198.473 24.087, 197.967 23.045, 192.806 23.015 C 191.324 23.007, 188.888 24.052, 187.393 25.338 M 84.196 56.298 C 82.438 58.111, 81 59.941, 81 60.364 C 81 60.787, 79.889 62.591, 78.530 64.372 C 77.172 66.153, 75.086 69.835, 73.897 72.555 C 71.969 76.960, 66.567 85.890, 60.621 94.500 C 59.481 96.150, 57.075 99.750, 55.274 102.500 C 53.472 105.250, 51.658 107.950, 51.242 108.500 C 47.289 113.726, 47.094 119.954, 50.755 124.052 C 53.378 126.987, 53.882 127.137, 61.255 127.165 C 65.515 127.182, 69 127.332, 69 127.498 C 69 127.665, 65.644 132.683, 61.541 138.650 C 51.042 153.924, 41.798 172.377, 41.237 179.187 C 40.854 183.830, 41.120 184.847, 43.352 187.250 C 47.137 191.327, 52.192 190.987, 62.891 185.935 C 73.098 181.116, 80.348 176.724, 84.582 172.794 L 87.664 169.933 88.966 175.357 C 90.111 180.130, 90.071 181.061, 88.633 183.113 C 84.042 189.668, 91.139 194.863, 98.266 190.163 C 102.669 187.260, 103.936 184.878, 103.939 179.500 C 103.943 171.907, 98.794 152.475, 95.987 149.486 C 92.555 145.833, 88.829 146.210, 85.348 150.561 C 80.129 157.085, 74.575 161.939, 66.567 166.977 C 62.204 169.722, 58.443 171.776, 58.210 171.543 C 57.976 171.310, 59.240 168.576, 61.018 165.468 C 62.797 162.360, 65.657 157.205, 67.376 154.013 C 69.094 150.821, 71.300 147.150, 72.279 145.855 C 73.257 144.560, 77.532 138.044, 81.779 131.376 C 86.025 124.708, 90.756 117.737, 92.291 115.884 C 93.826 114.031, 97.989 107.510, 101.541 101.392 C 109.693 87.354, 110.037 83, 102.995 83 C 99.902 83, 95.368 87.673, 90.596 95.780 C 88.096 100.026, 85.477 104.201, 84.775 105.058 C 83.376 106.768, 78.375 108.926, 70.188 111.354 L 64.876 112.929 67.983 107.715 C 69.692 104.847, 72.307 100.321, 73.795 97.659 C 75.283 94.996, 78.862 89.146, 81.750 84.660 C 84.638 80.173, 87 76.162, 87 75.746 C 87 75.330, 88.148 72.630, 89.550 69.745 C 92.318 64.051, 92.896 58.543, 91.081 55.151 C 89.495 52.187, 87.927 52.449, 84.196 56.298 M 187.798 134.465 C 185.192 136.902, 183.021 142.349, 183.002 146.500 C 182.997 147.600, 182.003 150.075, 180.795 152 C 175.420 160.558, 172 166.278, 172 166.708 C 172 166.964, 170.573 169.160, 168.829 171.589 L 165.657 176.005 163.079 174.266 C 161.660 173.309, 158.074 171.283, 155.109 169.763 C 146.214 165.204, 134.717 166.293, 133.329 171.827 C 132.501 175.124, 135.117 177, 140.541 177 C 144.899 177, 149.920 179.925, 154.955 185.397 L 157.410 188.065 154.705 190.573 C 151.624 193.429, 151.322 195.587, 153.557 198.777 C 155.531 201.596, 160.846 201.755, 164.131 199.095 L 166.483 197.190 170.242 201.262 C 172.309 203.501, 174 205.789, 174 206.348 C 174 207.783, 162.775 226.921, 156.125 236.824 C 153.051 241.403, 148.390 246.971, 145.768 249.197 C 141.836 252.536, 141 253.832, 141 256.588 C 141 261.824, 146.050 263.577, 152.109 260.443 C 158.254 257.266, 163.628 251.087, 173.929 235.354 C 179.743 226.473, 184.969 218.420, 185.543 217.458 C 186.449 215.940, 186.911 215.880, 189.043 217.009 C 190.394 217.725, 193.223 219.776, 195.328 221.568 C 197.434 223.360, 200.359 225.428, 201.828 226.163 C 203.298 226.898, 207.875 229.375, 212 231.666 C 216.125 233.958, 226.475 238.142, 235 240.965 C 247.725 245.179, 252.559 246.281, 262 247.122 C 280.511 248.771, 287.051 247.119, 289.978 240.053 C 291.601 236.134, 290.679 232.702, 287.554 231.029 C 285.297 229.821, 284.665 229.960, 281.056 232.461 C 278.201 234.439, 276.356 235.055, 274.603 234.615 C 273.253 234.276, 268.177 233.587, 263.324 233.083 C 255.845 232.307, 242.078 228.460, 231.500 224.191 C 221.158 220.017, 200.196 207.837, 194.231 202.535 C 193.824 202.173, 202.129 185.573, 203.004 185 C 203.424 184.725, 204.870 182.250, 206.217 179.500 C 207.565 176.750, 210.992 170.188, 213.833 164.917 C 220.164 153.175, 220.381 150.420, 215.330 145.984 C 211.947 143.015, 211.266 142.808, 206.656 143.354 C 203.904 143.680, 201.191 144.409, 200.627 144.973 C 198.715 146.885, 198 146.014, 197.985 141.750 C 197.955 132.944, 193.121 129.487, 187.798 134.465 M 192.971 169.039 C 192.162 169.551, 190.543 169.976, 189.373 169.985 C 187.900 169.995, 185.669 172.161, 182.123 177.021 C 179.305 180.883, 177 184.480, 177 185.014 C 177 186.199, 181.078 191, 182.085 191 C 183.180 191, 195.471 169.138, 194.771 168.437 C 194.590 168.257, 193.780 168.527, 192.971 169.039 M 87.288 204.650 C 86.621 204.920, 85.113 206.699, 83.937 208.602 C 81.609 212.369, 81.921 217, 84.502 217 C 85.307 217, 87.147 219.363, 88.591 222.250 C 92.074 229.219, 95.619 232.838, 99.715 233.606 C 102.188 234.070, 103.599 233.767, 105.040 232.464 C 107.364 230.361, 107.734 224.219, 105.586 223.395 C 104.809 223.096, 102.517 219.623, 100.493 215.676 C 95.034 205.031, 92.194 202.659, 87.288 204.650 M 53.155 217.604 C 51.935 218.458, 51 220.188, 51 221.589 C 51 224.631, 53.499 230.789, 55.738 233.262 C 57.383 235.081, 71.013 242, 72.948 242 C 73.501 242, 74.670 240.907, 75.546 239.570 C 77.005 237.343, 77.001 236.932, 75.500 234.640 C 74.598 233.264, 72.655 231.367, 71.181 230.424 C 69.706 229.480, 66.321 226.292, 63.657 223.340 C 57.494 216.507, 55.936 215.656, 53.155 217.604 M 21.722 227.011 C 19.533 229.568, 19.562 230.770, 21.906 234.613 C 24.416 238.730, 30.685 241.635, 41.316 243.607 C 49.348 245.097, 50.206 245.095, 52.507 243.587 C 53.878 242.689, 55 241.143, 55 240.151 C 55 237.388, 50.672 233.938, 45.845 232.855 C 43.455 232.318, 38.462 230.331, 34.749 228.440 C 27 224.492, 24.148 224.179, 21.722 227.011" stroke="none" fill="black" fill-rule="evenodd"/>
</svg>