<svg xmlns="http://www.w3.org/2000/svg" width="300" height="300" viewBox="0 0 300 300" version="1.1">
	<path d="M 145.573 36.570 C 144.709 37.433, 143.764 39.346, 143.471 40.820 C 141.785 49.322, 135.814 65.140, 132.079 71 C 129.418 75.176, 119.039 92.924, 117.567 95.816 C 115.080 100.705, 115.799 104.420, 119.310 104.822 C 122.887 105.232, 124.341 103.988, 129.618 96 C 131.979 92.425, 136.327 86.025, 139.279 81.777 C 143.890 75.142, 147.132 69.316, 151.118 60.500 C 152.328 57.825, 154.914 48.350, 155.621 44 C 156.687 37.446, 149.794 32.349, 145.573 36.570 M 226.500 52.645 C 225.400 52.872, 221.125 53.909, 217 54.949 C 204.879 58.006, 195.464 59.983, 190.314 60.554 C 165.243 63.332, 147 70.184, 147 76.821 C 147 80.288, 149.047 80.954, 154.971 79.418 C 157.977 78.638, 161.676 78, 163.192 78 C 164.708 78, 169.447 77.137, 173.724 76.081 C 178.001 75.026, 187.575 73.199, 195 72.021 C 202.425 70.843, 213.450 68.556, 219.500 66.937 C 233.285 63.249, 234.756 63.229, 236.083 66.718 C 238.839 73.967, 240.661 134.113, 239.101 166.376 C 237.632 196.773, 233.768 235.650, 231.535 242.500 C 228.022 253.277, 223.236 259.647, 219.529 258.478 C 214.235 256.809, 213.135 256.865, 211.098 258.902 C 208.480 261.520, 208.486 262.076, 211.168 265.486 C 213.586 268.561, 218.603 271, 222.508 271 C 233.881 271, 244.512 254.265, 246.967 232.500 C 247.464 228.100, 248.538 219.100, 249.355 212.500 C 251.739 193.232, 253.341 149.961, 252.667 123 C 251.389 71.811, 249.855 60.714, 243.258 54.922 C 240.360 52.377, 239.193 52.015, 234.215 52.116 C 231.072 52.180, 227.600 52.418, 226.500 52.645 M 70.896 69.252 C 69.578 70.491, 67.600 73.219, 66.500 75.315 C 65.400 77.411, 63.712 79.842, 62.750 80.718 C 61.788 81.593, 61 82.706, 61 83.190 C 61 83.674, 59.037 87.541, 56.638 91.785 C 45.228 111.967, 41 121.237, 41 126.072 C 41 130.254, 41.418 131.159, 44.656 134.003 C 48.096 137.024, 48.684 137.189, 54.611 136.812 L 60.909 136.411 59.081 139.456 C 58.076 141.130, 55.342 146.100, 53.006 150.500 C 50.670 154.900, 46.113 163.487, 42.879 169.583 C 38.142 178.513, 37 181.567, 37 185.310 C 37 189.239, 37.411 190.223, 39.671 191.704 C 45.572 195.571, 54.498 192.666, 69.644 181.949 L 77.787 176.187 78.394 179.218 C 79.411 184.304, 79.090 186.903, 76.921 191.156 C 73.985 196.910, 74.909 200, 79.565 200 C 85.967 200, 89.415 194.349, 90.693 181.757 C 91.263 176.144, 89.715 165.576, 87.726 161.500 C 86.097 158.162, 82.756 155, 80.859 155 C 79.183 155, 76.551 157.325, 69.661 164.891 C 67.356 167.422, 55.995 175, 54.505 175 C 53.849 175, 65.231 153.224, 72.938 139.731 C 76.950 132.708, 81.393 126.049, 82.812 124.933 C 84.390 123.692, 85.471 121.765, 85.595 119.970 C 85.707 118.357, 89.219 110.122, 93.399 101.672 C 97.580 93.221, 101 85.756, 101 85.082 C 101 83.227, 98.663 81.279, 97.073 81.809 C 96.298 82.067, 94.601 83.453, 93.301 84.889 C 89.373 89.228, 77.582 106.069, 73.542 113.109 C 69.946 119.376, 69.431 119.830, 63.624 121.870 C 60.256 123.052, 56.519 124.016, 55.320 124.010 C 53.405 124.001, 53.238 123.657, 53.948 121.182 C 54.392 119.631, 55.227 117.494, 55.803 116.432 C 56.378 115.369, 59.075 110, 61.797 104.500 C 64.518 99, 69.205 90.225, 72.213 85 C 75.220 79.775, 77.954 74.103, 78.286 72.396 C 79.344 66.970, 75.200 65.207, 70.896 69.252 M 145.923 98.923 C 143.394 101.452, 143 102.595, 143 107.402 C 143 116.515, 137.077 133.632, 130.607 143.217 C 123.285 154.064, 123.400 153.823, 124.602 155.741 C 127.318 160.075, 134.070 157.533, 139.631 150.084 C 142.493 146.251, 144.350 144.857, 148.382 143.516 C 154.442 141.500, 166.201 138.868, 166.740 139.407 C 166.949 139.615, 166.192 141.515, 165.059 143.628 C 163.746 146.079, 163 149.331, 163 152.610 C 163 160.907, 162.106 163.730, 159.140 164.804 C 157.688 165.329, 151.297 167.426, 144.938 169.464 C 132.475 173.458, 130.329 175.105, 131.968 179.417 C 133.172 182.584, 138.993 184.318, 144 183.002 C 148.573 181.800, 157.845 179.184, 160.342 178.392 C 162.243 177.788, 162.288 178.149, 161.696 189.134 C 160.914 203.629, 159.773 207.261, 155.336 209.377 C 153.464 210.270, 150.183 211, 148.046 211 C 144.563 211, 144.092 210.696, 143.517 208.076 C 143.163 206.467, 143.441 203.258, 144.135 200.945 C 145.319 196.992, 145.256 196.626, 143.087 194.869 C 139.965 192.341, 138.585 192.506, 134.840 195.851 C 132.062 198.333, 131.593 199.485, 131.212 204.745 C 130.657 212.423, 132.210 217.100, 136.596 220.950 C 139.789 223.753, 140.659 224, 147.360 224 C 154.348 224, 163.686 221.623, 172.500 217.600 C 174.150 216.846, 177.276 215.616, 179.448 214.865 C 184.638 213.070, 194.942 203.542, 195.679 199.856 C 196.421 196.143, 197.503 196.970, 198.838 202.272 C 200.898 210.454, 206.888 213.152, 210.558 207.552 C 211.914 205.483, 211.854 204.332, 209.951 195.878 C 208.791 190.720, 207.759 182.496, 207.659 177.602 C 207.519 170.753, 207.116 168.476, 205.910 167.715 C 203.642 166.284, 199.075 168.767, 196.187 173 C 194.005 176.197, 193.852 177.169, 194.420 184.223 C 194.762 188.471, 195.297 192.609, 195.607 193.419 C 196.086 194.667, 195.703 194.714, 193.098 193.731 C 190.232 192.649, 189.770 192.813, 186.262 196.167 C 181.969 200.271, 178.965 201.993, 174.237 203.059 C 171.437 203.691, 171 203.551, 171.403 202.153 C 171.665 201.244, 172.195 194.439, 172.580 187.031 L 173.281 173.562 178.640 168.494 C 183.230 164.154, 184 162.897, 184 159.748 C 184 153.817, 179.395 152.560, 175.765 157.500 C 174.690 158.964, 174.827 157.485, 176.509 149.500 C 178.953 137.897, 179.242 137.502, 186.782 135.461 C 194.371 133.407, 198.169 130.363, 197.299 127.034 C 196.218 122.902, 192.908 122.699, 173.040 125.549 C 162.843 127.011, 153.644 128.663, 152.598 129.220 C 150.973 130.086, 150.807 129.961, 151.456 128.366 C 152.949 124.696, 154.856 115.382, 155.524 108.500 C 156.163 101.914, 156.052 101.337, 153.649 98.750 C 150.436 95.290, 149.536 95.310, 145.923 98.923 M 85.223 203.557 C 81.094 206.448, 83.028 211.238, 90.457 216.520 C 99.027 222.613, 105 222.171, 105 215.445 C 105 212.885, 104.490 211.977, 102.750 211.439 C 101.513 211.056, 98.382 208.776, 95.793 206.372 C 90.725 201.665, 88.695 201.125, 85.223 203.557 M 48.589 221.077 C 46.957 223.016, 46 225.364, 46 227.429 C 46 231.281, 49.529 236.949, 53.030 238.721 C 56.778 240.617, 63.401 240.306, 66.119 238.105 C 68.131 236.475, 68.320 235.809, 67.461 233.355 C 66.714 231.219, 65.713 230.415, 63.482 230.162 C 59.596 229.720, 58 228.317, 58 225.342 C 58 222.100, 55.193 218, 52.974 218 C 51.986 218, 50.013 219.385, 48.589 221.077 M 9.550 232.564 C 7.751 235.310, 8.148 240.048, 10.328 241.857 C 10.987 242.404, 13.641 243.384, 16.225 244.035 C 22.455 245.604, 30.765 243.805, 31.944 240.632 C 33.412 236.685, 31.369 234.041, 26.833 234.015 C 25.366 234.007, 22.066 233.100, 19.500 232 C 13.374 229.374, 11.573 229.476, 9.550 232.564" stroke="none" fill="black" fill-rule="evenodd"/>
</svg>