<svg xmlns="http://www.w3.org/2000/svg" width="300" height="300" viewBox="0 0 300 300" version="1.1">
	<path d="M 122 44.089 C 114.025 44.589, 106.332 45.474, 104.904 46.056 C 103.476 46.639, 101.214 46.841, 99.877 46.505 C 98.097 46.058, 96.851 46.530, 95.216 48.270 L 92.985 50.644 94.943 56.335 C 96.020 59.465, 97.844 66.858, 98.996 72.763 C 100.149 78.668, 101.746 86.005, 102.546 89.066 C 103.346 92.127, 104 96.051, 104 97.787 C 104 99.523, 105.100 103.431, 106.445 106.471 C 108.725 111.628, 109.121 112, 112.323 112 C 118.854 112, 118.954 110.790, 114.265 88.405 C 113.880 86.565, 114.525 86.171, 119.580 85.155 C 125.517 83.963, 151 83.523, 151 84.613 C 151 84.951, 150.039 89.113, 148.865 93.863 C 147.691 98.613, 146.678 105.516, 146.615 109.202 C 146.515 115.023, 146.237 115.967, 144.500 116.390 C 141.152 117.206, 121.937 119.866, 114.500 120.544 C 105.279 121.384, 101.468 124.649, 105.650 128.128 C 106.870 129.142, 112.271 129.631, 126.343 130 L 145.385 130.500 135.442 138.988 C 111.159 159.721, 107.379 165.533, 113.923 172.077 C 116.486 174.640, 117.565 175, 122.680 175 C 125.888 175, 129.973 174.581, 131.757 174.070 C 133.757 173.496, 135 173.496, 135 174.070 C 135 174.581, 134.588 175, 134.084 175 C 132.133 175, 111.804 195.503, 109.949 199.342 C 105.974 207.568, 108.861 213.779, 117.090 214.707 C 121.563 215.211, 132.630 213.895, 136.500 212.399 C 138.149 211.761, 138.299 211.878, 137.354 213.063 C 134.507 216.633, 134.102 221.988, 135.668 235.324 C 137.364 249.759, 137.060 268.320, 134.998 276.250 C 133.998 280.095, 133.345 281, 131.572 281 C 124.886 281, 124.241 287.949, 130.678 290.639 C 137.608 293.535, 143.915 289.371, 146.751 280.028 C 148.112 275.544, 148.419 270.345, 148.375 252.500 C 148.326 232.576, 148.116 229.909, 146.145 224.236 C 144.908 220.675, 144.226 216.946, 144.566 215.595 C 144.894 214.288, 144.676 212.918, 144.081 212.550 C 141.846 211.169, 143.202 210.279, 150.066 208.622 C 159.323 206.388, 166.740 203.045, 171.274 199.064 C 173.290 197.294, 175.360 196.104, 175.872 196.421 C 177.474 197.411, 178.286 208.604, 177.031 212.405 C 175.328 217.566, 177.001 220.209, 181.716 219.806 C 186.167 219.426, 188.865 216.105, 190.102 209.485 C 191.675 201.063, 187.945 177.806, 184.390 173.879 C 180.657 169.753, 175.967 171.542, 173.347 178.090 C 172.485 180.245, 170.489 183.094, 168.911 184.421 C 165.088 187.638, 154.174 192.729, 148.262 194.052 C 145.643 194.639, 141.017 195.933, 137.982 196.929 C 134.948 197.924, 130.952 199.071, 129.104 199.477 L 125.743 200.215 128.621 196.595 C 130.205 194.603, 136 189.272, 141.500 184.748 C 158.505 170.760, 168.894 161.110, 178.770 150.130 C 181.922 146.626, 187.088 141.762, 190.250 139.321 C 193.516 136.800, 196 134.097, 196 133.064 C 196 130.083, 193.436 128.696, 189.347 129.463 C 182.790 130.693, 175.734 135.266, 166.843 144.048 C 158.579 152.210, 157.726 152.771, 150.315 154.926 C 146.017 156.175, 140.255 157.553, 137.510 157.987 L 132.521 158.777 147.296 144.639 C 155.423 136.862, 162.056 129.751, 162.036 128.835 C 162.008 127.561, 163.816 126.782, 169.750 125.513 C 187.683 121.677, 192 119.551, 192 114.557 C 192 113.213, 191.153 111.520, 190.117 110.794 C 188.309 109.528, 188.388 109.155, 192.078 101.488 C 197.764 89.675, 206.706 66.141, 207.487 60.938 C 208.371 55.038, 205.899 49.155, 201.175 45.918 C 197.702 43.538, 197.574 43.528, 167.094 43.355 C 150.267 43.259, 129.975 43.589, 122 44.089 M 126.858 55.011 C 112.013 56.432, 108 57.138, 108.037 58.322 C 108.057 58.970, 108.864 62.425, 109.830 66 C 111.437 71.944, 111.797 72.472, 114.043 72.177 C 115.395 72, 124.713 71.619, 134.750 71.332 C 144.787 71.044, 153.036 70.740, 153.080 70.655 C 153.123 70.570, 153.468 66.787, 153.845 62.250 L 154.531 54 144.516 54.140 C 139.007 54.217, 131.061 54.609, 126.858 55.011 M 166 61.975 C 166 66.389, 166.338 69.992, 166.750 69.983 C 170.421 69.897, 185.265 66.851, 186.858 65.856 C 188.565 64.790, 189.201 64.872, 190.853 66.367 C 192.739 68.074, 192.839 68.072, 193.322 66.323 C 194.487 62.102, 194.917 57.425, 194.233 56.400 C 193.799 55.748, 187.899 55.024, 179.750 54.624 L 166 53.949 166 61.975 M 183.033 79.298 C 180.576 80.380, 175.626 81.490, 172.033 81.764 C 168.440 82.038, 164.791 82.628, 163.924 83.074 C 163.057 83.520, 161.838 86.273, 161.216 89.192 C 158.625 101.350, 156.180 111.619, 155.455 113.387 C 154.778 115.036, 155.047 115.209, 157.590 114.757 C 159.191 114.473, 163.988 113.682, 168.250 112.999 C 174.625 111.977, 176 111.434, 176 109.936 C 176 108.934, 176.863 106.626, 177.918 104.807 C 180.379 100.562, 188.296 79.337, 187.844 78.197 C 187.655 77.720, 185.490 78.215, 183.033 79.298 M 180 225.814 C 178.265 226.376, 177.037 227.977, 177.015 229.706 C 177.007 230.369, 180.189 232.774, 184.086 235.050 C 187.983 237.326, 195.295 243.004, 200.336 247.668 C 205.376 252.332, 212.046 257.903, 215.157 260.048 C 218.269 262.193, 221.693 265.066, 222.768 266.432 C 227.547 272.507, 234 271.923, 234 265.415 C 234 259.153, 232.279 256.961, 217.971 245 C 215.011 242.525, 211.303 239.251, 209.733 237.724 C 205.329 233.442, 200.063 230.454, 193.495 228.511 C 184.490 225.846, 181.652 225.279, 180 225.814 M 109.564 233.935 C 107.450 236.099, 104.520 240.262, 103.052 243.185 C 84.766 279.597, 84.385 280.652, 88.077 284.582 C 92.439 289.225, 95.727 287.581, 100.236 278.500 C 101.602 275.750, 106.156 266.750, 110.358 258.500 C 114.559 250.250, 117.998 242.768, 117.999 241.872 C 117.999 240.977, 118.675 239.685, 119.500 239 C 122.809 236.254, 119.942 230, 115.374 230 C 114.292 230, 111.677 231.771, 109.564 233.935" stroke="none" fill="black" fill-rule="evenodd"/>
</svg>