<svg xmlns="http://www.w3.org/2000/svg" width="300" height="300" viewBox="0 0 300 300" version="1.1">
	<path d="M 198.534 38.110 C 196.369 39.270, 190.976 41.797, 186.549 43.725 C 182.122 45.654, 177.037 48.327, 175.250 49.667 C 172.054 52.061, 172 52.067, 172 50.001 C 172 46.148, 169.149 42, 166.500 42 C 163.755 42, 161.663 45.224, 160.659 51 C 159.644 56.840, 155.107 119.083, 154.026 142 C 152.898 165.894, 152.819 206.127, 153.892 210 C 154.901 213.643, 159.208 215.488, 162.750 213.795 C 166.471 212.016, 166.860 209.608, 167.596 183.840 L 168.215 162.179 171.250 163.237 C 174.814 164.479, 193.559 162.760, 199.691 160.629 C 201.786 159.901, 204.738 159.003, 206.250 158.633 L 209 157.962 208.900 168.231 C 208.846 173.879, 208.397 184.350, 207.904 191.500 C 206.802 207.481, 206.867 217.883, 208.083 220.156 C 209.235 222.307, 208.511 222.408, 177 224.491 C 164.075 225.345, 149.450 226.510, 144.500 227.078 C 122.807 229.570, 96.357 233.339, 94.750 234.168 C 92.367 235.397, 92.545 239.279, 95.092 241.583 C 96.989 243.300, 98.775 243.460, 114.342 243.311 C 123.779 243.221, 137.125 242.457, 144 241.613 C 161.028 239.525, 175.126 238.334, 204 236.544 C 233.672 234.704, 262.231 232.303, 270.889 230.920 C 284.521 228.742, 294.488 219.711, 289.750 213.831 C 287.687 211.270, 285.272 210.998, 282.682 213.036 C 278.283 216.496, 274.794 217.160, 251 219.066 C 222.161 221.377, 219.392 221.438, 220.811 219.728 C 221.632 218.739, 224.189 172.248, 224.372 155 C 224.484 144.365, 222.707 76.564, 222.011 64.945 C 221.024 48.451, 219.595 43.607, 214.362 39.013 C 210.125 35.293, 204.399 34.966, 198.534 38.110 M 93.757 40.339 C 92.248 41.649, 89.843 45.372, 88.414 48.611 C 86.984 51.850, 81.444 60.350, 76.104 67.500 C 60.813 87.970, 59.391 90.087, 56.100 97.278 C 50.396 109.740, 50.170 115.283, 55.195 119.511 C 58.821 122.562, 63.023 122.712, 70.563 120.062 L 76.076 118.125 74.009 120.812 C 72.873 122.291, 70.091 126.200, 67.828 129.500 C 65.565 132.800, 62.913 136.400, 61.934 137.500 C 59.078 140.709, 51.261 156.742, 50.011 161.955 C 47.626 171.896, 53.902 178.259, 63.965 176.101 C 68.242 175.184, 78.741 169.271, 86.850 163.214 L 89.911 160.927 91.356 163.714 C 93.282 167.429, 99.747 174, 101.477 174 C 102.236 174, 103.604 173.253, 104.517 172.341 C 106.364 170.494, 106.260 168.509, 103.532 153.500 C 102.632 148.550, 102.150 143.119, 102.459 141.432 C 103.773 134.274, 98.262 128.482, 92.156 130.603 C 90.140 131.303, 89.085 132.773, 87.776 136.708 C 85.840 142.529, 80.233 149.196, 72.293 155.117 C 69.429 157.253, 66.860 159, 66.584 159 C 65.514 159, 74.808 142.821, 83.818 129 C 107.028 93.394, 107.621 92.603, 112.634 90.509 C 116.478 88.903, 117.494 87.105, 116.592 83.510 C 115.721 80.039, 111.896 77.737, 108.440 78.604 C 104.941 79.483, 89.361 95.604, 87.842 99.918 C 87.654 100.453, 83.909 101.630, 79.520 102.533 C 75.131 103.437, 70.705 104.623, 69.684 105.169 C 68.664 105.715, 67.592 105.926, 67.303 105.636 C 66.229 104.562, 75.916 88.093, 84.836 75.829 C 89.934 68.820, 96.077 58.883, 98.585 53.589 C 102.760 44.776, 103.014 43.801, 101.800 41.259 C 100.093 37.687, 97.192 37.355, 93.757 40.339 M 194.197 54.135 C 189.531 56.383, 183.837 60.107, 181.197 62.636 C 177.759 65.931, 175.893 67.021, 174.235 66.704 C 172.545 66.381, 171.858 66.809, 171.530 68.386 C 170.975 71.055, 167.979 114.184, 167.991 119.334 L 168 123.168 171.750 120.229 C 173.813 118.612, 176.562 116.732, 177.861 116.050 C 181.085 114.358, 193.419 111, 196.411 111 C 197.751 111, 201.200 110.457, 204.075 109.793 L 209.302 108.587 208.577 85.543 C 207.620 55.088, 207.095 50.554, 204.500 50.318 C 203.400 50.217, 198.764 51.935, 194.197 54.135 M 202 124.169 C 199.525 124.680, 195.250 125.710, 192.500 126.458 C 189.750 127.205, 185.256 128.127, 182.513 128.505 C 179.770 128.884, 176.230 129.864, 174.646 130.683 C 173.062 131.502, 170.919 131.951, 169.883 131.680 C 168.129 131.221, 168 131.892, 168 141.480 L 168 151.773 172.250 152.374 C 176.671 153, 183.168 151.919, 185.278 150.207 C 187.200 148.648, 201.236 145, 205.314 145 L 209 145 209 134 C 209 125.803, 208.682 123.031, 207.750 123.120 C 207.063 123.186, 204.475 123.658, 202 124.169 M 90.750 184.388 C 87.985 186.493, 88.423 193.856, 91.596 198.610 C 98.389 208.790, 105.094 213.197, 111.383 211.619 C 115.532 210.577, 116.048 202.785, 112.052 201.516 C 111.036 201.194, 108.065 198.134, 105.449 194.715 C 98.037 185.032, 93.808 182.061, 90.750 184.388 M 55.655 193.829 C 51.777 198.114, 54.581 205.075, 64.217 215.086 C 71.417 222.565, 75.226 224.219, 78.263 221.182 C 80.638 218.807, 80.235 217.907, 71.691 206.500 C 64.530 196.939, 60.023 192, 58.459 192 C 57.827 192, 56.565 192.823, 55.655 193.829 M 23.980 201.804 C 21.164 202.674, 19 205.321, 18.992 207.905 C 18.986 209.877, 21.280 212.722, 28.540 219.750 C 37.578 228.499, 38.327 229, 42.392 229 C 47.281 229, 50 226.810, 50 222.871 C 50 219.816, 48.289 218, 45.411 218 C 43.935 218, 41.149 215.607, 36.861 210.658 C 30.610 203.443, 26.910 200.899, 23.980 201.804" stroke="none" fill="black" fill-rule="evenodd"/>
</svg>