<svg xmlns="http://www.w3.org/2000/svg" width="300" height="300" viewBox="0 0 300 300" version="1.1">
	<path d="M 230 38.026 C 228.075 38.480, 216.375 39.364, 204 39.992 C 181.382 41.139, 178.514 41.466, 165.316 44.401 C 155.858 46.505, 153.082 47.623, 152.308 49.641 C 151.307 52.248, 155.178 54.628, 161.656 55.389 C 168.718 56.219, 214.630 52.569, 227.695 50.139 L 236.891 48.429 237.542 50.964 C 237.900 52.359, 238.366 59.933, 238.579 67.796 C 238.792 75.659, 239.668 96.134, 240.526 113.296 C 242.587 154.494, 243.900 223.948, 242.951 241.500 C 242.533 249.228, 241.545 257.292, 240.745 259.500 C 239.416 263.172, 239.033 263.473, 236.070 263.166 C 232.544 262.802, 228.984 265.195, 229.022 267.905 C 229.077 271.847, 236.325 277, 241.815 277 C 245.739 277, 249.315 273.988, 251.887 268.518 C 254.825 262.268, 257.202 243.599, 257.365 225.500 C 257.594 200.028, 253.397 92.198, 250.906 59.552 C 250.134 49.435, 249.468 45.876, 247.862 43.277 C 244.325 37.554, 238.841 35.942, 230 38.026 M 133.675 45.122 C 130.657 46.877, 128.001 54.726, 126.984 64.898 C 126.456 70.179, 125.529 108.250, 124.924 149.500 C 124.320 190.750, 123.423 227.650, 122.931 231.500 C 120.891 247.490, 122.318 253, 128.500 253 C 133.400 253, 134.952 250.087, 136.056 238.816 C 137.198 227.164, 138.856 165.167, 139.556 108 C 139.963 74.706, 140.429 63.132, 141.544 58.669 C 143.314 51.583, 143.404 46.804, 141.800 45.200 C 140.329 43.729, 136.139 43.689, 133.675 45.122 M 73.315 62.427 C 72.662 63.170, 70.711 66.865, 68.978 70.639 C 63.003 83.652, 62.125 85.529, 58.135 93.819 C 55.932 98.395, 53.695 102.670, 53.162 103.319 C 52.203 104.490, 46.415 115.142, 40.678 126.293 C 39.039 129.479, 37.493 134.224, 37.242 136.838 C 36.850 140.912, 37.170 142.048, 39.481 144.795 C 41.947 147.725, 42.676 148, 47.996 148 C 52.289 148, 55.541 147.225, 60.407 145.042 C 64.033 143.415, 67 142.292, 67 142.546 C 67 142.800, 62.734 148.744, 57.521 155.754 C 46.355 170.767, 37.545 187.301, 37.545 193.243 C 37.545 198.754, 41.316 202, 47.718 202 C 54.072 202, 75.038 190.981, 83.454 183.219 C 87.378 179.600, 89.537 178.200, 89.784 179.113 C 89.990 179.876, 90.774 182.424, 91.527 184.775 C 92.863 188.948, 92.825 189.129, 89.948 192.407 C 86.533 196.296, 86.286 198.044, 88.829 200.345 C 91.255 202.541, 93.565 202.432, 97.614 199.929 C 105.335 195.157, 106.871 187.969, 102.935 175.013 C 101.255 169.480, 101.041 167.274, 101.789 163.161 C 102.809 157.551, 102.054 156, 98.306 156 C 95.737 156, 90 163.011, 90 166.150 C 90 167.642, 89.225 168, 86 168 C 83.800 168, 82 168.397, 82 168.883 C 82 170.129, 70.125 177.718, 65.966 179.130 C 64.060 179.777, 61.306 181.137, 59.846 182.153 C 53.643 186.469, 55.108 182.720, 65.887 166.696 C 75.948 151.739, 85.109 137.466, 88.396 131.628 C 89.674 129.357, 93.596 123.273, 97.110 118.107 C 106.461 104.361, 107.352 102.398, 107.604 95 C 107.725 91.425, 107.359 87.938, 106.790 87.250 C 104.177 84.093, 99.651 87.107, 97.957 93.132 C 97.436 94.984, 93.068 102.350, 88.251 109.500 L 79.492 122.500 73.496 124.583 C 70.198 125.729, 64.237 127.857, 60.250 129.312 C 56.263 130.767, 53 131.598, 53 131.160 C 53 130.721, 57 122.518, 61.890 112.931 C 66.779 103.344, 72.648 91.225, 74.931 86 C 77.214 80.775, 79.814 75.030, 80.708 73.233 C 82.898 68.831, 82.796 64.055, 80.476 62.358 C 78.129 60.642, 74.853 60.674, 73.315 62.427 M 199.500 88.690 C 178.510 95.033, 170.335 96.919, 163.500 96.996 C 156.386 97.076, 153.906 98.602, 153.782 102.975 C 153.565 110.594, 162.771 112.901, 178 109.045 C 193.897 105.019, 196.497 104.272, 204.295 101.490 C 211.504 98.918, 215 96.283, 215 93.424 C 215 92.801, 213.896 91.101, 212.548 89.646 C 209.739 86.615, 207.023 86.416, 199.500 88.690 M 201.500 136.727 C 200.400 136.924, 195.900 137.932, 191.500 138.966 C 178.281 142.073, 170.603 143.514, 168.684 143.250 C 164.180 142.630, 160.662 147.235, 159.018 155.903 C 157.735 162.671, 159.457 197.268, 161.342 202.577 C 162.138 204.819, 162.567 207.817, 162.295 209.238 C 161.683 212.440, 165.100 215.014, 170.113 215.127 C 176.612 215.274, 197.327 209.304, 207.763 204.276 C 211.675 202.392, 213.169 201.067, 213.579 199.120 C 213.883 197.679, 214.797 195.271, 215.611 193.769 C 221.045 183.738, 219.741 154.146, 213.415 143.932 C 210.280 138.870, 205.539 136.004, 201.500 136.727 M 199.500 151.512 C 198.950 151.657, 195.800 152.315, 192.500 152.974 C 178.727 155.727, 172.816 157.319, 172.433 158.377 C 171.900 159.853, 173.469 198.803, 174.088 199.421 C 174.350 199.683, 178.825 198.842, 184.032 197.551 C 189.239 196.260, 195.151 194.920, 197.169 194.572 C 203.016 193.564, 205 189.213, 205 177.401 C 205 168.581, 202.709 153.304, 201.172 151.875 C 200.803 151.531, 200.050 151.368, 199.500 151.512 M 84.083 213.674 C 81.501 216.588, 82.417 220.526, 86.932 225.918 C 93.142 233.336, 98.943 238, 101.957 238 C 105.274 238, 109 235.410, 109 233.105 C 109 230.729, 93.256 214.382, 89.685 213.050 C 86.100 211.713, 85.792 211.747, 84.083 213.674 M 45.200 222.200 C 43.587 223.813, 43.683 229.305, 45.397 233.407 C 46.165 235.245, 48.820 238.865, 51.298 241.450 C 54.877 245.186, 56.367 246.085, 58.550 245.826 C 62.754 245.327, 63.904 242.647, 61.594 238.731 C 60.546 236.954, 58.594 233.488, 57.255 231.028 C 53.172 223.528, 50.998 221, 48.632 221 C 47.404 221, 45.860 221.540, 45.200 222.200 M 11.937 227.653 C 11.078 227.885, 9.801 229.663, 9.099 231.604 C 7.920 234.862, 8.027 235.442, 10.484 239.155 C 15.854 247.269, 34.842 251.900, 38.064 245.881 C 39.924 242.405, 38.167 240.236, 30.570 236.630 C 26.539 234.716, 21.665 231.767, 19.739 230.075 C 16.348 227.099, 15.254 226.759, 11.937 227.653" stroke="none" fill="black" fill-rule="evenodd"/>
</svg>