<svg xmlns="http://www.w3.org/2000/svg" width="300" height="300" viewBox="0 0 300 300" version="1.1">
	<path d="M 193.957 20.044 C 188.950 25.185, 184.626 31.841, 177.933 44.710 C 171.617 56.855, 170 62.775, 170.001 73.754 C 170.001 82.411, 170.323 84.179, 172.875 89.573 C 176.415 97.057, 181.160 101.114, 189.616 103.890 C 196.742 106.230, 201.507 106.510, 207.500 104.942 C 217.110 102.428, 219.613 100.289, 218.434 95.593 C 217.613 92.322, 216.003 91.797, 206 91.539 C 195.125 91.259, 189.092 88.822, 186.678 83.734 C 185.755 81.789, 185.008 79.816, 185.018 79.349 C 185.037 78.452, 203.721 69.945, 205.595 69.980 C 207.529 70.016, 218.816 62.211, 220.462 59.699 C 221.730 57.763, 221.832 56.688, 220.964 54.405 C 218.907 48.995, 215.560 48.663, 207.526 53.072 C 203.315 55.383, 189.089 61, 187.446 61 C 186.279 61, 192.962 42.715, 197.811 32.644 C 201.215 25.573, 204 19.354, 204 18.823 C 204 17.495, 201.393 15, 200.007 15 C 199.382 15, 196.659 17.270, 193.957 20.044 M 112.743 25.627 L 110 27.064 110 66.909 C 110 110.376, 109.880 109.488, 115.690 108.822 C 119.391 108.398, 121.716 103.656, 122.731 94.462 L 123.500 87.500 128.500 86.864 C 131.250 86.514, 135.879 85.276, 138.787 84.114 C 141.695 82.951, 145.542 82, 147.337 82 C 151.358 82, 153 80.472, 153 76.729 C 153 72.841, 151.193 71.307, 145.363 70.248 C 140.008 69.275, 136.211 70.088, 131.846 73.143 C 130.386 74.164, 128.746 75, 128.203 75 C 127.659 75, 126.955 75.675, 126.638 76.500 C 125.027 80.700, 124.493 76.187, 124.421 57.747 C 124.341 37.072, 123.556 31.568, 120.135 27.657 C 117.441 24.579, 115.670 24.093, 112.743 25.627 M 87.127 68.096 C 82.796 72.132, 82.532 74.239, 83.608 96.200 C 84.342 111.165, 83.285 119.561, 79.811 126.371 C 78.222 129.486, 78.031 130.774, 78.884 132.645 C 79.782 134.616, 80.699 135, 84.505 135 C 91.655 135, 117.571 129.431, 128.016 125.650 C 139.215 121.596, 156.967 112.799, 159.421 110.087 C 161.790 107.470, 161.130 102.858, 158.177 101.394 C 156.194 100.411, 154.068 100.951, 143.677 105.072 C 132.775 109.396, 119.232 113.862, 101.465 118.993 L 95.430 120.736 97.157 114.118 C 99.063 106.815, 99.614 82.134, 98.052 74.036 C 96.647 66.756, 91.544 63.981, 87.127 68.096 M 149.412 119.420 C 145.708 121.036, 141.748 124.854, 138.593 129.852 C 137.318 131.873, 133.971 136.396, 131.156 139.903 C 120.423 153.277, 123.811 161.988, 139.750 161.996 C 143.738 161.998, 147 162.288, 147 162.641 C 147 162.994, 145.088 165.166, 142.750 167.468 C 140.412 169.771, 134.450 176.067, 129.500 181.460 C 124.550 186.853, 119.938 191.848, 119.250 192.561 C 118.563 193.274, 118 194.302, 118 194.845 C 118 195.389, 117.588 195.983, 117.084 196.167 C 116.580 196.350, 115.857 198.174, 115.478 200.221 C 114.871 203.495, 115.153 204.306, 117.817 206.971 C 122.480 211.634, 130.117 211.287, 147.812 205.606 C 178.330 195.809, 188.415 193.054, 189.206 194.298 C 189.626 194.959, 189.976 198.772, 189.985 202.771 C 189.999 209.550, 190.169 210.120, 192.500 211.182 C 196.451 212.982, 199.664 210.960, 201.060 205.794 C 203.484 196.823, 200.071 177.627, 195.182 172.738 C 191.574 169.130, 186.609 171.930, 185.666 178.105 C 185.236 180.923, 180.995 182.495, 169.746 184.005 C 157.292 185.677, 151.109 187.024, 146.167 189.143 C 143.704 190.199, 141.337 190.936, 140.907 190.781 C 139.740 190.361, 153.991 174.737, 173.696 154.832 C 188.377 140.003, 191.078 136.821, 190.508 135.025 C 189.609 132.193, 185.740 130.768, 182.400 132.038 C 180.970 132.582, 176.807 135.661, 173.150 138.880 L 166.500 144.733 156.786 145.384 C 151.443 145.742, 146.268 146.343, 145.286 146.718 C 143.573 147.373, 143.573 147.301, 145.289 144.950 C 146.272 143.603, 148.747 139.857, 150.789 136.628 C 152.830 133.398, 155.738 129.445, 157.250 127.843 C 158.762 126.241, 160 124.304, 160 123.537 C 160 122.007, 157.356 119, 156.010 119 C 155.545 119, 154.564 118.791, 153.832 118.536 C 153.099 118.282, 151.110 118.679, 149.412 119.420 M 157.835 210.673 C 156.919 210.915, 155.835 211.876, 155.425 212.807 C 155.015 213.738, 154.477 227.325, 154.230 243 C 153.730 274.671, 153.419 276.331, 147.767 277.522 C 141.138 278.920, 138 281.015, 138 284.043 C 138 289.687, 142.763 291.814, 151.391 290.023 C 156.072 289.051, 157.580 288.148, 160.992 284.272 C 166.794 277.681, 168.529 271.238, 168.337 257 C 168.242 249.970, 167.370 241.419, 166.094 235 C 164.946 229.225, 164.005 222.238, 164.003 219.473 C 164 214.846, 161.954 209.821, 160.193 210.116 C 159.812 210.180, 158.751 210.430, 157.835 210.673 M 170.594 234.315 C 167.120 237.789, 168.018 239.422, 175.357 242.970 C 178.760 244.615, 186.778 250.416, 193.334 255.975 C 206.975 267.542, 216.976 273.761, 223.341 274.633 C 227.349 275.183, 227.962 274.987, 229.474 272.680 C 232.152 268.593, 231.079 265.967, 225 261.730 C 221.975 259.622, 217.082 255.783, 214.126 253.199 C 200.353 241.158, 186.982 233.377, 178.294 232.348 C 173.698 231.804, 172.902 232.007, 170.594 234.315 M 103.232 235.668 C 94.921 239.014, 85 258.590, 85 271.645 C 85 279.828, 89.074 286, 94.474 286 C 99.188 286, 100 284.504, 100 275.823 C 100 266.702, 104.409 252.113, 109.148 245.553 C 110.717 243.382, 112 240.585, 112 239.338 C 112 235.988, 107.312 234.026, 103.232 235.668" stroke="none" fill="black" fill-rule="evenodd"/>
</svg>