<svg xmlns="http://www.w3.org/2000/svg" width="300" height="300" viewBox="0 0 300 300" version="1.1">
	<path d="M 190 33.487 C 159.115 38.311, 147.449 39.911, 139.630 40.396 C 132.743 40.824, 130.458 41.344, 129.412 42.723 C 127.582 45.135, 127.672 47.636, 129.712 51.090 C 132.696 56.142, 134.504 56.104, 180.500 50.015 C 188.750 48.922, 201.283 47.726, 208.352 47.355 L 221.203 46.682 218.964 51.091 C 217.733 53.516, 215.887 56.573, 214.863 57.885 C 210.766 63.131, 213.953 69.828, 219.923 68.517 C 224.066 67.607, 231.342 59.258, 235.600 50.528 C 239.514 42.503, 239.868 38.307, 236.918 34.903 C 234.874 32.543, 234.508 32.497, 216.668 32.330 C 205.627 32.226, 195.166 32.680, 190 33.487 M 142.494 60.007 C 141.495 61.111, 140.573 63.248, 140.446 64.757 C 139.794 72.472, 137.780 87.916, 135.914 99.500 C 134.382 109.012, 133.174 113.501, 131.410 116.229 C 128.525 120.692, 128.303 124.556, 130.853 125.921 C 132.321 126.707, 132.845 128.587, 133.378 134.986 C 134.560 149.150, 139.757 157, 147.954 157 C 153.531 157, 162.710 150.912, 167.455 144.065 C 170.532 139.625, 170.662 137.088, 167.963 134.191 C 166.056 132.144, 165.706 132.096, 162.486 133.441 C 160.595 134.232, 158.024 135.849, 156.773 137.035 C 154.513 139.180, 150.051 141.384, 149.363 140.696 C 149.164 140.498, 148.506 136.649, 147.900 132.143 C 146.713 123.326, 147.383 121, 151.108 121 C 152.133 121, 159.905 119.200, 168.379 117 C 176.852 114.800, 184.396 113.001, 185.143 113.002 C 185.889 113.003, 188.296 116.490, 190.491 120.752 C 193.429 126.454, 196.880 130.935, 203.561 137.723 C 214.990 149.333, 220.858 152.372, 232 152.448 C 241.491 152.514, 243.572 151.885, 248.500 147.466 C 252.134 144.207, 252.500 143.430, 252.500 138.982 C 252.500 135.257, 252.022 133.725, 250.500 132.575 C 247.514 130.319, 245.404 130.672, 242 134 C 239.306 136.633, 238.233 136.997, 233.216 136.978 C 226.293 136.951, 221.179 134.761, 214.790 129.085 C 210.285 125.082, 200.206 110.461, 201.240 109.427 C 201.512 109.154, 204.601 108.470, 208.103 107.906 C 217.075 106.461, 232.640 100.158, 236.755 96.303 C 239.431 93.796, 240.023 92.608, 239.497 90.803 C 238.612 87.766, 235.015 84.736, 233.057 85.379 C 232.201 85.660, 228.219 87.045, 224.208 88.455 C 220.198 89.865, 213.850 91.454, 210.103 91.985 C 206.355 92.517, 202.662 93.150, 201.895 93.392 C 195.434 95.434, 195.308 95.368, 193.098 88.823 C 191.952 85.429, 191.123 82.587, 191.257 82.506 C 191.391 82.426, 193.975 81.169, 197 79.713 C 203.408 76.629, 208 72.651, 208 70.182 C 208 67.703, 205.174 64, 203.281 64 C 201.410 64, 193.609 66.126, 183 69.526 C 174.516 72.246, 156.257 77, 154.295 77 C 153.429 77, 153 75.528, 153 72.559 C 153 70.116, 152.550 67.840, 152 67.500 C 151.450 67.160, 151 66.074, 151 65.087 C 151 63.206, 146.741 58, 145.203 58 C 144.712 58, 143.493 58.903, 142.494 60.007 M 66.134 65.104 C 64.833 66.750, 62.044 71.427, 59.938 75.499 C 57.831 79.570, 53.657 86.478, 50.663 90.850 C 44.338 100.085, 41.019 108.178, 40.267 116.193 C 39.765 121.536, 39.920 122.074, 42.789 124.943 C 45.451 127.605, 46.551 128, 51.297 128 C 54.296 128, 58.675 127.320, 61.030 126.489 C 63.385 125.658, 65.412 125.096, 65.535 125.239 C 65.657 125.383, 64.045 129.051, 61.952 133.391 C 59.859 137.732, 56.929 144.032, 55.441 147.391 C 53.953 150.751, 50.352 158.492, 47.439 164.594 C 40.725 178.657, 38.996 186.158, 41.398 190.802 C 43.126 194.145, 46.332 196, 50.382 196 C 53.901 196, 69.570 186.156, 77.027 179.260 L 83.776 173.020 84.442 177.463 C 84.832 180.065, 84.610 183.570, 83.905 185.921 C 82.515 190.561, 83.730 193, 87.431 193 C 89.963 193, 92.033 191.513, 94.354 188.027 C 96.440 184.895, 96.525 173.672, 94.547 162.500 C 92.651 151.789, 92.276 150.994, 89.143 151.032 C 86.092 151.069, 84.170 152.409, 81.757 156.183 C 80.033 158.880, 60.057 174.390, 59.292 173.626 C 58.834 173.167, 62.499 164.175, 67.607 153.228 C 69.473 149.229, 71 145.492, 71 144.924 C 71 144.357, 73.207 139.304, 75.904 133.696 C 78.601 128.088, 81.965 120.880, 83.380 117.679 C 84.795 114.477, 88.213 107.848, 90.975 102.949 C 98.987 88.736, 99.840 82, 93.626 82 C 90.993 82, 83.549 90.218, 79.779 97.289 C 77.222 102.086, 76.483 102.656, 67.461 106.794 C 62.183 109.216, 57.623 110.957, 57.329 110.663 C 56.444 109.777, 61.582 99.455, 66.236 92.769 C 74.892 80.332, 78.862 70.301, 76.679 66.383 C 73.724 61.081, 69.700 60.593, 66.134 65.104 M 172.500 88.105 C 169.750 89.212, 164.036 90.379, 159.803 90.698 L 152.106 91.279 151.053 96.188 C 150.474 98.889, 150 102.165, 150 103.469 C 150 105.639, 150.274 105.772, 153.250 105.044 C 155.037 104.607, 161.787 102.966, 168.250 101.397 L 180 98.543 180 95.397 C 180 91.333, 178.928 85.987, 178.125 86.047 C 177.781 86.073, 175.250 86.999, 172.500 88.105 M 200.883 165.451 C 200.635 165.699, 193.150 166.361, 184.249 166.924 C 167.649 167.972, 163.334 169.007, 159.250 172.921 C 156.257 175.790, 156.409 178.567, 159.677 180.708 C 163.522 183.227, 179.264 183.594, 195.913 181.553 C 206.834 180.214, 209.478 180.150, 210.148 181.204 C 210.600 181.917, 210.979 186.775, 210.992 192 C 211.004 197.225, 211.308 204.614, 211.667 208.419 L 212.321 215.338 209.938 213.669 C 207.239 211.778, 199.747 211.491, 193.500 213.038 C 186.057 214.882, 161.771 220, 160.467 220 C 159.567 220, 158.991 217.628, 158.583 212.250 C 157.863 202.737, 156.112 189.663, 154.949 185.109 C 153.172 178.150, 146.472 174.670, 142.500 178.643 C 140.756 180.387, 140.906 187.143, 143.019 202 C 143.527 205.575, 144.644 215.250, 145.502 223.500 C 146.359 231.750, 147.654 244.125, 148.380 251 C 149.188 258.661, 149.357 264.430, 148.816 265.901 C 148.132 267.765, 148.492 269.146, 150.429 272.072 C 153.482 276.685, 156.242 277.727, 159.594 275.531 C 163.946 272.679, 164.300 269.972, 162.601 252.545 C 161.622 242.508, 161.401 236.371, 162.004 235.997 C 162.532 235.671, 166.459 234.826, 170.732 234.118 C 175.004 233.410, 182.550 231.754, 187.500 230.438 C 192.450 229.122, 199.972 227.213, 204.215 226.197 L 211.930 224.348 212.567 228.596 C 213.107 232.197, 211.487 262.846, 210.716 263.617 C 210.129 264.204, 195.301 266.998, 192.769 266.999 C 191.267 267, 185.097 268.158, 179.059 269.574 C 164.167 273.066, 159.819 276.812, 165.105 281.595 C 166.984 283.295, 168.790 283.491, 181.855 283.420 C 193.519 283.356, 198.162 282.898, 204.667 281.170 C 209.158 279.976, 213.949 279, 215.313 279 C 223.491 279, 228.320 260.992, 228.185 231 C 228.142 221.375, 227.636 208.325, 227.062 202 C 226.487 195.675, 226.013 187.551, 226.009 183.946 C 225.996 174.699, 222.540 167.778, 217.122 166.155 C 213.393 165.037, 201.798 164.535, 200.883 165.451 M 79.282 207.265 C 74.483 209.454, 74.365 217, 79.012 224.519 C 83.625 231.983, 89.721 234.055, 93.920 229.585 C 96.261 227.094, 96.166 224.349, 93.651 221.756 C 92.981 221.065, 91.174 217.905, 89.635 214.733 C 86.461 208.193, 82.892 205.619, 79.282 207.265 M 55 216.729 C 52.716 217.598, 52.032 219.129, 52.015 223.412 C 51.996 228.321, 56.032 235.448, 59.989 237.494 C 63.490 239.305, 68.150 239.450, 69.800 237.800 C 71.652 235.948, 71.222 231.511, 68.996 229.496 C 67.893 228.499, 66.533 225.978, 65.972 223.895 C 64.417 218.120, 59.604 214.976, 55 216.729 M 11 221 C 8.008 223.992, 8.352 229.295, 11.750 232.566 C 15.709 236.377, 23.439 239.732, 32.793 241.698 L 40.935 243.410 43.467 241.031 C 44.860 239.722, 46 238.090, 46 237.404 C 46 235.831, 38.104 229, 36.287 229 C 34.585 229, 26.335 224.846, 21.438 221.522 C 16.956 218.481, 13.683 218.317, 11 221" stroke="none" fill="black" fill-rule="evenodd"/>
</svg>