<svg xmlns="http://www.w3.org/2000/svg" width="300" height="300" viewBox="0 0 300 300" version="1.1">
	<path d="M 94 40.282 C 93.175 40.952, 92.016 42.625, 91.425 44 C 88.125 51.675, 75.896 75.157, 72.230 80.859 C 64.856 92.328, 53.711 115.903, 53.279 120.946 C 52.777 126.807, 55.333 131.893, 60 134.321 C 64.619 136.725, 79.821 136.085, 88.229 133.133 C 91.380 132.027, 94.165 131.458, 94.419 131.869 C 94.673 132.280, 91.528 137.090, 87.430 142.558 C 83.332 148.026, 79.728 153.287, 79.422 154.250 C 79.116 155.212, 78.446 156, 77.933 156 C 77.420 156, 77 156.386, 77 156.857 C 77 157.329, 74.370 161.716, 71.155 166.607 C 61.077 181.938, 58.783 188.919, 61.551 195.835 C 64.142 202.311, 71.020 205.003, 79.612 202.904 C 89.695 200.441, 105.589 191.532, 111.445 185.061 L 113.317 182.992 115.174 186.045 C 116.195 187.725, 117.361 191.391, 117.765 194.192 C 118.317 198.013, 119.153 199.772, 121.116 201.238 C 123.559 203.061, 123.933 203.086, 126.783 201.612 C 128.800 200.569, 130.062 198.994, 130.508 196.962 C 131.511 192.397, 130.073 182.431, 127.378 175.272 C 126.070 171.797, 125 166.787, 125 164.138 C 125 159.923, 124.676 159.173, 122.404 158.138 C 120.219 157.143, 119.297 157.272, 116.574 158.954 C 114.796 160.053, 112.476 162.571, 111.420 164.548 C 108.368 170.262, 89.353 183.207, 81.329 185.032 C 77.634 185.873, 77.692 185.376, 82.189 177.706 C 83.735 175.069, 85 172.690, 85 172.418 C 85 172.146, 87.813 167.825, 91.250 162.816 C 103.724 144.639, 112.331 130.751, 114.994 124.500 C 116.165 121.750, 119.084 116.998, 121.479 113.940 C 127.512 106.238, 129.824 101.419, 130.576 94.982 C 131.349 88.366, 129.222 82, 126.239 82 C 124.644 82, 120 86.821, 120 88.477 C 120 88.783, 118.045 92.289, 115.655 96.267 C 113.265 100.245, 110.002 105.862, 108.405 108.749 C 106.807 111.636, 104.825 114.001, 104 114.006 C 103.175 114.010, 96.271 115.585, 88.659 117.507 C 81.046 119.428, 73.520 121, 71.934 121 C 69.231 121, 69.086 120.797, 69.618 117.750 C 70.319 113.732, 75.314 103.304, 86.501 82.500 C 91.233 73.700, 96.727 63.125, 98.712 59 C 102.977 50.131, 104.048 43.191, 101.538 40.681 C 99.581 38.723, 96.143 38.541, 94 40.282 M 221 40.984 C 200.631 45.370, 185.656 48.047, 178.792 48.529 C 174.231 48.850, 168.597 49.593, 166.272 50.180 C 162.551 51.120, 161.967 51.657, 161.403 54.664 C 160.536 59.285, 162.783 61.584, 169.672 63.126 C 176.091 64.562, 184.059 63.700, 207.917 58.984 C 216.388 57.310, 223.709 56.070, 224.186 56.229 C 224.663 56.388, 222.484 60.451, 219.344 65.259 C 214.034 73.390, 212 75.521, 212 72.952 C 212 71.249, 206.867 67, 204.809 67 C 202.101 67, 198 71.459, 198 74.403 C 198 78.713, 202.826 92.394, 206.078 97.303 C 209.263 102.112, 212.243 103.692, 215.926 102.524 C 218.681 101.649, 219.478 97.955, 218.095 92.465 L 216.964 87.971 224.232 80.734 C 232.272 72.729, 246.008 53.131, 245.986 49.695 C 245.942 42.546, 242.059 39.948, 231.669 40.115 C 227.726 40.178, 222.925 40.569, 221 40.984 M 251 98.690 C 247.365 99.356, 231.547 103.508, 224 105.777 C 179.477 119.160, 170.829 120.977, 151.500 121.012 C 146 121.022, 140.973 121.366, 140.329 121.775 C 139.685 122.185, 138.852 123.742, 138.477 125.235 C 136.728 132.206, 149.375 136.979, 165.572 135.461 C 169.758 135.069, 179.104 133.494, 186.342 131.962 C 193.579 130.430, 199.670 129.344, 199.878 129.550 C 200.086 129.755, 199.701 133.494, 199.022 137.858 C 197.357 148.565, 197.284 167.575, 198.798 197 C 201.016 240.123, 201.832 265.378, 201.157 270 L 200.500 274.500 195.802 274.803 C 189.159 275.231, 184.385 273.685, 176.428 268.531 C 168.611 263.467, 166.537 263.074, 163.867 266.153 C 161.080 269.367, 161.461 274.128, 164.750 277.166 C 172.831 284.629, 186.867 291, 195.230 291 C 204.926 291, 213.747 285.234, 215.884 277.500 C 217.417 271.949, 217.273 251.507, 215.527 227.097 C 214.315 210.144, 210.951 155.257, 209.686 131.794 L 209.379 126.088 216.939 123.596 C 227.431 120.138, 246.261 114.928, 246.696 115.363 C 246.894 115.561, 246.603 116.914, 246.050 118.370 C 245.188 120.635, 245.448 121.470, 247.851 124.160 C 250.212 126.802, 251.112 127.189, 253.502 126.589 C 259.273 125.141, 266.991 114.703, 266.996 108.339 C 266.999 104.918, 266.453 103.718, 263.923 101.589 C 262.231 100.165, 260.094 98.994, 259.173 98.986 C 258.253 98.979, 256.600 98.806, 255.500 98.602 C 254.400 98.398, 252.375 98.438, 251 98.690 M 104.018 218.815 C 101.478 219.683, 100 221.753, 100 224.442 C 100 226.312, 102.644 229.921, 109.563 237.492 C 120.812 249.803, 124.178 251.541, 130.652 248.379 C 133.187 247.141, 134.612 245.713, 134.827 244.192 C 135.295 240.889, 132.438 237, 129.543 237 C 127.788 237, 125.854 235.373, 122.431 231.015 C 115.404 222.071, 108.287 217.355, 104.018 218.815 M 73.315 231.007 C 64.559 234.535, 70.210 254.498, 80.548 256.557 C 86.754 257.793, 94.559 249.131, 90.709 245.281 C 89.781 244.353, 87.839 243.572, 86.393 243.547 C 84.182 243.507, 83.453 242.706, 81.805 238.500 C 79.931 233.720, 77.365 229.928, 76.095 230.063 C 75.768 230.098, 74.517 230.523, 73.315 231.007 M 31.018 239.740 C 28.275 240.816, 26.805 243.032, 26.291 246.867 C 25.852 250.144, 26.251 251.216, 29.131 254.497 C 37.033 263.496, 49.291 264.443, 57.750 256.709 C 60.499 254.195, 60.599 251.961, 58.101 248.876 C 56.297 246.649, 55.968 246.594, 51.530 247.781 C 47.366 248.894, 46.365 248.813, 42.340 247.032 C 39.677 245.854, 38 244.514, 38.255 243.767 C 38.731 242.371, 35.336 238.954, 33.597 239.079 C 32.994 239.122, 31.833 239.420, 31.018 239.740" stroke="none" fill="black" fill-rule="evenodd"/>
</svg>