<svg xmlns="http://www.w3.org/2000/svg" width="300" height="300" viewBox="0 0 300 300" version="1.1">
	<path d="M 243.487 50.103 C 237.202 53.199, 234.146 64.402, 233.152 87.992 L 232.500 103.484 225 105.099 C 220.875 105.987, 215.475 107.236, 213 107.875 C 210.525 108.515, 202.208 110.624, 194.518 112.563 C 180.518 116.092, 176 118.379, 176 121.934 C 176 124.374, 179.748 126.167, 186.043 126.738 C 191.975 127.275, 196.269 126.562, 211.500 122.507 C 224.286 119.103, 232.550 117, 233.136 117 C 233.414 117, 234.186 126.563, 234.850 138.250 C 235.515 149.938, 236.738 168.050, 237.568 178.500 C 238.398 188.950, 239.071 205.674, 239.062 215.663 C 239.038 245.338, 236.495 251.218, 226.595 244.500 C 220.819 240.580, 217 241.601, 217 247.065 C 217 252.940, 226.840 260.333, 234.661 260.333 C 242.379 260.333, 247.333 254.617, 250.609 241.934 C 252.020 236.469, 252.178 232.113, 251.659 213 C 251.323 200.625, 250.365 184.425, 249.531 177 C 248.696 169.575, 247.568 154.500, 247.025 143.500 C 246.481 132.500, 245.765 121.392, 245.433 118.816 L 244.831 114.133 251.165 112.132 C 259.426 109.523, 268.676 104.635, 272.750 100.726 C 276.817 96.824, 277.182 92.495, 273.582 90.855 C 271.562 89.935, 270.120 90.251, 264.832 92.772 C 257.207 96.407, 247.519 100, 245.343 100 C 243.950 100, 243.844 98.593, 244.456 88.250 C 244.838 81.787, 245.851 72.225, 246.706 67 C 249.463 50.143, 248.944 47.415, 243.487 50.103 M 178.047 53.444 C 177.388 54.238, 176.249 57.162, 175.515 59.943 C 173.782 66.512, 166.955 76.974, 153.292 93.995 C 152.627 94.823, 150.602 97.374, 148.792 99.664 C 146.981 101.954, 139.988 110.481, 133.250 118.611 C 126.513 126.742, 121 134.116, 121 134.997 C 121 137.460, 123.087 138.998, 126.450 139.015 C 129.029 139.028, 131.047 137.408, 139.513 128.526 L 149.527 118.022 148.739 129.261 C 148.305 135.442, 147.849 156.573, 147.725 176.217 C 147.503 211.490, 147.527 211.961, 149.633 214.072 C 151.277 215.720, 152.456 216.059, 154.775 215.549 C 157.536 214.943, 157.835 214.462, 158.405 209.694 C 159.512 200.440, 161.070 162.223, 161.549 132.570 C 161.955 107.435, 162.234 103.399, 163.677 101.804 C 165.653 99.621, 171.923 90.694, 179.631 79.091 C 184.688 71.479, 189 61.908, 189 58.298 C 189 56.045, 184.290 52, 181.668 52 C 180.335 52, 178.706 52.650, 178.047 53.444 M 83.724 60.134 C 82.776 60.665, 82 61.867, 82 62.804 C 82 64.528, 79.698 68.570, 68.099 87.212 C 61.153 98.376, 58.211 103.002, 49.788 116 C 39.501 131.876, 37.945 137.118, 41.993 142.264 C 45.354 146.537, 51.907 147.472, 62.290 145.158 C 67.081 144.091, 71 143.540, 71 143.934 C 71 144.567, 65.741 151.776, 60.010 159 C 58.919 160.375, 58.021 161.993, 58.013 162.595 C 58.006 163.197, 57.139 164.470, 56.086 165.423 C 55.033 166.375, 51.883 171.817, 49.086 177.515 C 44.798 186.251, 44 188.760, 44 193.515 C 44 198.414, 44.383 199.537, 46.923 202.077 C 49.436 204.590, 50.608 205, 55.274 205 C 62.349 205, 68.140 201.936, 78.199 192.869 L 85.898 185.930 86.199 191.611 C 86.538 198.007, 88.046 199.707, 92.410 198.612 C 99.926 196.725, 101.498 175.777, 94.687 168.250 C 90.640 163.777, 87.148 165.516, 72.939 179.076 C 67.110 184.638, 58.938 191, 57.622 191 C 56.080 191, 63.640 174.429, 66.975 170.500 C 67.908 169.400, 70.155 166.025, 71.967 163 C 73.779 159.975, 75.551 157.275, 75.905 157 C 76.259 156.725, 78.991 152.900, 81.976 148.500 C 84.961 144.100, 89.451 137.532, 91.952 133.905 C 94.453 130.278, 99.155 123.416, 102.400 118.655 C 105.645 113.895, 108.610 110, 108.990 110 C 109.981 110, 112 105.257, 112 102.928 C 112 101.727, 110.996 100.569, 109.444 99.979 C 104.422 98.069, 99.818 102.083, 89.635 117.247 C 84.528 124.852, 83.472 125.906, 81.464 125.402 C 79.979 125.029, 77.617 125.714, 74.829 127.326 C 69.873 130.192, 60.959 133, 56.818 133 C 55.268 133, 54 132.804, 54 132.565 C 54 131.032, 56.699 125.579, 60.220 120 C 64.997 112.430, 67.101 109.056, 72.997 99.500 C 75.373 95.650, 79.213 89.575, 81.531 86 C 86.416 78.464, 91 69.067, 91 66.588 C 91 62.208, 86.752 58.440, 83.724 60.134 M 186.500 169.369 C 182.719 171.132, 179 174.652, 179 176.468 C 179 179.625, 182.026 181, 188.976 181 C 193.628 181, 198.153 181.796, 203.154 183.493 C 211.917 186.467, 215.128 186.621, 217.345 184.171 C 220.922 180.219, 218.159 176.295, 208.724 171.929 C 200.423 168.087, 191.463 167.055, 186.500 169.369 M 74.200 218.200 C 73.540 218.860, 73.002 219.873, 73.004 220.450 C 73.013 222.410, 83.907 233.728, 87.364 235.368 C 92.100 237.616, 97.533 237.467, 99.977 235.023 C 103.006 231.994, 100.295 227, 95.623 227 C 94.526 227, 91.575 225.273, 89.064 223.161 C 81.677 216.948, 77.009 215.391, 74.200 218.200 M 45.974 233.568 C 44.558 237.293, 47.086 240.808, 52.544 242.703 C 57.603 244.460, 60.916 244.042, 62.640 241.429 C 64.113 239.197, 64.381 239.643, 58.112 233.908 C 56.728 232.643, 53.898 231.517, 51.385 231.234 C 47.355 230.780, 46.971 230.946, 45.974 233.568 M 11.153 234.750 C 3.129 241.540, 14.243 253.446, 28.639 253.484 C 35.980 253.503, 37.843 252.280, 36.445 248.361 C 35.758 246.436, 34.363 245.377, 31.340 244.488 C 26.702 243.124, 21 239.435, 21 237.799 C 21 236.216, 16.951 233, 14.958 233 C 14.003 233, 12.291 233.787, 11.153 234.750" stroke="none" fill="black" fill-rule="evenodd"/>
</svg>