<svg xmlns="http://www.w3.org/2000/svg" width="300" height="300" viewBox="0 0 300 300" version="1.1">
	<path d="M 158.387 16.250 C 154.951 18.825, 149.716 24.677, 145.638 30.500 C 144.097 32.700, 141.186 36.551, 139.168 39.058 C 121.134 61.467, 122 60.155, 122 65.068 C 122 72.058, 124.143 73.508, 134.413 73.468 C 139.169 73.450, 145.308 72.679, 149.052 71.630 C 152.598 70.636, 157.975 69.166, 161 68.363 C 164.025 67.560, 169.321 65.575, 172.769 63.952 C 176.217 62.328, 179.142 61.001, 179.269 61.002 C 179.396 61.003, 179.598 62.405, 179.719 64.117 C 179.963 67.593, 176.366 73.560, 169.540 81 C 157.168 94.487, 153.374 103.542, 157.806 109.003 C 159.624 111.243, 160.535 111.491, 166.666 111.416 C 172.131 111.349, 175.403 110.568, 183 107.517 C 188.225 105.419, 193.175 103.361, 194 102.945 C 194.825 102.530, 198.563 100.691, 202.307 98.861 C 206.050 97.030, 209.834 94.736, 210.715 93.762 C 212.231 92.087, 212.419 92.160, 214.223 95.126 C 215.271 96.850, 216.153 100.023, 216.183 102.177 C 216.273 108.719, 220.735 111.118, 224.688 106.750 C 227.463 103.684, 227.994 100.828, 226.732 95.775 C 223.511 82.882, 215.273 78.803, 205.647 85.336 C 203.605 86.722, 200.486 88.146, 198.717 88.501 C 194.841 89.279, 186.739 91.998, 178.250 95.369 C 174.813 96.735, 172 97.458, 172 96.978 C 172 96.497, 174.363 93.341, 177.250 89.963 C 184.181 81.857, 189.980 72.986, 189.974 70.500 C 189.971 69.400, 189.558 67.850, 189.055 67.055 C 188.435 66.074, 188.763 64.737, 190.078 62.890 C 194.297 56.965, 193.482 46.681, 188.417 41.922 C 186.065 39.712, 185.711 39.652, 183.238 41.040 C 181.778 41.860, 180.323 43.633, 180.005 44.981 C 178.830 49.954, 165.561 54.931, 138.750 60.452 C 136.381 60.940, 136.455 60.764, 140.750 55.702 C 142.813 53.271, 146.525 48.419, 149 44.921 C 151.475 41.422, 155.815 35.803, 158.644 32.435 C 163.972 26.091, 167 21.116, 167 18.705 C 167 17.156, 163.891 14, 162.366 14 C 161.828 14, 160.038 15.012, 158.387 16.250 M 96.122 80.783 C 90.589 86.316, 85.477 93.996, 79.342 105.991 C 74.502 115.457, 74.401 115.941, 76.453 119.909 C 78.618 124.096, 82.573 125.388, 88.588 123.874 C 93.942 122.525, 106.590 116.736, 114.500 112.012 C 117.250 110.370, 120.175 108.722, 121 108.350 C 121.825 107.979, 123.672 106.863, 125.105 105.872 C 127.679 104.091, 127.725 104.100, 128.855 106.582 C 129.485 107.964, 130 109.748, 130 110.547 C 130 111.346, 131.839 113.839, 134.087 116.087 C 137.498 119.498, 138.613 120.063, 140.831 119.506 C 144.499 118.586, 146 117.143, 146 114.538 C 146 113.150, 145.075 111.900, 143.528 111.195 C 140.838 109.969, 140.675 109.504, 138.592 97.115 C 137.220 88.952, 136.153 87.047, 132.939 87.015 C 130.692 86.993, 127 90.738, 127 93.039 C 127 94.299, 126.321 95, 125.099 95 C 124.054 95, 119.441 96.744, 114.849 98.875 C 100.869 105.363, 95.603 107.692, 93.239 108.433 C 91.083 109.109, 91.036 109.011, 92.220 106.321 C 94.304 101.586, 101.960 90.687, 105.580 87.301 C 109.470 83.662, 109.893 80.893, 107 78 C 103.916 74.916, 101.326 75.579, 96.122 80.783 M 149.500 122.189 C 139.446 127.861, 114.611 154.651, 113.984 160.500 C 113.237 167.467, 115.890 170, 123.935 170 C 127.199 170, 131.137 169.497, 132.685 168.882 C 137.353 167.028, 142.049 166.112, 141.386 167.185 C 140.794 168.143, 127.390 178.775, 114.514 188.500 C 104.523 196.046, 101.749 201.749, 106 206 C 108.407 208.407, 113.221 208.594, 120.412 206.562 C 123.210 205.771, 129.325 204.384, 134 203.480 C 138.675 202.576, 144.233 201.459, 146.352 200.998 L 150.203 200.161 149.479 203.331 C 149.080 205.074, 148.558 222.363, 148.319 241.750 C 148.079 261.137, 147.550 277, 147.142 277 C 146.734 277, 145.905 276.505, 145.301 275.901 C 143.612 274.212, 140.078 275.839, 139.378 278.629 C 138.610 281.689, 141.367 287.237, 145.327 290.599 C 151.516 295.855, 159.165 291.746, 160.566 282.413 C 161.566 275.757, 160.321 209.314, 159.121 205.293 C 157.594 200.173, 158.618 198.362, 163.839 196.947 C 169.383 195.444, 176.921 191.813, 182.649 187.887 L 186.798 185.043 188.422 187.521 C 190.356 190.473, 193.992 190.771, 196.345 188.171 C 198.574 185.709, 198.431 181.818, 196 178.727 C 194.836 177.247, 194 174.670, 194 172.561 C 194 170.133, 193.462 168.731, 192.369 168.312 C 189.969 167.390, 184.226 170.868, 182.789 174.114 C 180.477 179.337, 162.322 185.726, 140.396 189.030 C 137.039 189.536, 133.439 190.264, 132.396 190.648 C 131.353 191.031, 134.550 187.956, 139.500 183.814 C 148.561 176.232, 155.768 168.987, 166.177 157 C 169.281 153.425, 173.700 149.150, 175.997 147.500 C 184.498 141.392, 185.300 140.520, 184.561 138.191 C 184.148 136.890, 183.046 136, 181.847 136 C 178.602 136, 167.466 142, 162.262 146.552 C 158.369 149.958, 156.432 150.888, 151.982 151.491 C 146.472 152.237, 136.439 154.306, 132.250 155.560 C 131.012 155.930, 130 155.892, 130 155.475 C 130 155.058, 136.332 148.286, 144.072 140.427 C 156.355 127.954, 158.011 125.889, 157.100 124.186 C 155.429 121.065, 152.743 120.359, 149.500 122.189 M 173.203 224.197 C 172.541 224.859, 172 225.987, 172 226.705 C 172 227.422, 176.100 232.032, 181.111 236.948 C 189.177 244.862, 191.616 246.577, 202.361 251.889 C 216.339 258.798, 225.016 261.065, 229.840 259.066 C 236.964 256.115, 233.924 249.025, 224.982 247.735 C 219.500 246.944, 208.223 241.669, 194.299 233.382 C 177.347 223.294, 175.089 222.311, 173.203 224.197 M 123.946 229.847 C 116.399 234.681, 105.184 248.065, 100.866 257.393 C 100.330 258.552, 99.037 261.075, 97.994 263 C 95.552 267.503, 95.545 269.278, 97.960 271.464 C 102.049 275.165, 106.424 271.551, 114.864 257.500 C 117.177 253.650, 123.114 246.402, 128.058 241.393 C 135.103 234.256, 136.896 231.877, 136.346 230.393 C 134.749 226.077, 130.148 225.875, 123.946 229.847" stroke="none" fill="black" fill-rule="evenodd"/>
</svg>