<svg xmlns="http://www.w3.org/2000/svg" width="300" height="300" viewBox="0 0 300 300" version="1.1">
	<path d="M 182.750 49.758 C 179.661 51.673, 179.016 56.088, 181.322 59.527 C 182.512 61.302, 188.089 74.909, 189.394 79.220 C 190.037 81.345, 194.747 82.647, 196.905 81.295 C 199.321 79.782, 199.374 72.958, 197.028 65.298 C 194.164 55.948, 191.394 50.281, 189.081 49.043 C 186.530 47.678, 186.010 47.737, 182.750 49.758 M 99.615 57.465 C 98.727 58.820, 98 61.115, 98 62.564 C 98 64.956, 96.175 70.145, 93.979 74 C 93.509 74.825, 91.741 78.219, 90.049 81.542 C 88.358 84.866, 85.405 89.967, 83.487 92.880 C 81.569 95.792, 80 98.430, 80 98.743 C 80 99.055, 78.900 100.754, 77.554 102.517 C 72.928 108.583, 66.702 122.051, 66.223 127.027 C 65.821 131.212, 66.101 132.192, 68.334 134.425 C 70.600 136.691, 71.724 136.998, 77.705 136.982 C 83.350 136.967, 85.416 136.459, 89.914 133.979 C 92.892 132.338, 95.431 131.109, 95.557 131.248 C 95.683 131.386, 92.760 136.034, 89.062 141.575 C 67.009 174.617, 62.979 183.192, 66.398 189.803 C 70.892 198.494, 89.672 194.131, 103.165 181.261 L 108.951 175.742 110.057 178.621 C 110.664 180.204, 110.915 183.047, 110.613 184.937 C 109.944 189.131, 111.327 191, 115.099 191 C 120.741 191, 123.038 182.816, 120.011 173.500 C 119.296 171.300, 118.624 167.213, 118.518 164.417 C 118.282 158.231, 117.603 157, 114.424 157 C 112.781 157, 109.817 159.045, 105.474 163.174 C 101.903 166.570, 96.623 171.135, 93.741 173.318 C 88.248 177.477, 80.213 181.546, 79.298 180.632 C 78.795 180.128, 87.921 163.558, 93.816 154.273 C 95.292 151.949, 98.750 146.401, 101.500 141.945 C 104.250 137.489, 107.973 131.516, 109.773 128.671 C 111.573 125.827, 113.497 122.600, 114.048 121.500 C 114.599 120.400, 116.625 116.800, 118.550 113.500 C 126.091 100.570, 129 94.058, 129 90.107 C 129 84.963, 128.184 83, 126.048 83 C 123.622 83, 122.081 85.114, 116.569 96 C 109.470 110.022, 108.047 112.148, 106.147 111.559 C 105.241 111.278, 102.700 112.128, 100.500 113.449 C 83.283 123.786, 77.855 126.107, 79.920 122.250 C 80.435 121.288, 81.831 118.475, 83.022 116 C 84.213 113.525, 85.713 110.600, 86.356 109.500 C 86.998 108.400, 89.456 104.125, 91.816 100 C 94.177 95.875, 96.510 91.825, 97 91 C 97.490 90.175, 99.971 85.296, 102.513 80.157 C 107.944 69.179, 109.756 60.802, 107.458 57.295 C 105.454 54.237, 101.676 54.319, 99.615 57.465 M 219 82.636 C 213.440 83.444, 200.192 86.211, 195.412 87.562 C 192.614 88.353, 189.406 89, 188.284 89 C 187.162 89, 184.629 89.675, 182.654 90.500 C 180.680 91.325, 177.790 92, 176.232 92 C 174.674 92, 172.972 92.377, 172.450 92.838 C 170.710 94.373, 159.338 98, 156.264 98 C 149.352 98, 152.886 105.138, 160.505 106.567 C 164.575 107.330, 175.559 105.063, 191.916 100.084 L 195.332 99.045 192.738 101.772 C 188.046 106.706, 186 113.871, 186 125.364 L 186 135.654 177.750 136.944 C 173.213 137.653, 166.463 138.579, 162.751 139.001 C 154.408 139.949, 151 141.970, 151 145.966 C 151 149.483, 154.117 152, 158.473 152 C 160.138 152, 165.027 151.325, 169.338 150.500 C 173.649 149.675, 179.095 149, 181.440 149 L 185.704 149 186.346 157.250 C 187.134 167.380, 187.030 187.574, 186.151 195 L 185.500 200.500 174 201.158 C 158.573 202.042, 152.731 203.493, 150.689 206.950 C 148.847 210.067, 149.486 213.949, 151.867 214.111 C 156.176 214.404, 168.405 213.776, 176.500 212.847 C 181.450 212.278, 207.325 211.485, 234 211.083 C 284.655 210.319, 286.019 210.191, 290.759 205.750 C 293.320 203.351, 293.013 200.858, 289.711 197.250 C 287.338 194.657, 284.774 194.368, 282.685 196.458 C 280.995 198.148, 245.417 199.982, 214.112 199.993 L 195.724 200 196.450 193.250 C 198.268 176.347, 198.686 167.867, 198.221 157.334 L 197.721 146 200.145 146 C 206.042 146, 223.226 138.539, 228.256 133.795 C 232.463 129.828, 233.052 126.520, 230.183 122.978 C 228.636 121.067, 228.042 120.907, 226.183 121.902 C 224.982 122.545, 224 123.455, 224 123.925 C 224 125.780, 205.273 132.958, 200.357 132.987 C 197.417 133.005, 197 131.369, 197 119.823 C 197 112.152, 197.402 109.128, 198.718 106.901 C 200.099 104.563, 200.223 103.430, 199.354 101.126 L 198.272 98.259 209.386 95.676 C 215.499 94.255, 223.425 92.797, 227 92.435 C 230.575 92.073, 234.063 91.322, 234.750 90.766 C 236.669 89.214, 236.243 86.576, 233.686 84.174 C 231.408 82.035, 226.600 81.531, 219 82.636 M 99.667 206.667 C 99.300 207.033, 99 208.543, 99 210.021 C 99 214.932, 105.889 220.319, 113.785 221.582 C 117.036 222.102, 118.167 221.833, 119.864 220.136 C 122.575 217.425, 123.567 213.388, 121.989 211.487 C 120.430 209.608, 118.585 209.590, 117.051 211.439 C 116.038 212.660, 115.174 212.357, 111.352 209.439 C 107.087 206.184, 101.480 204.853, 99.667 206.667 M 73.313 213.772 C 71.451 214.977, 69.935 219.894, 70.604 222.559 C 70.938 223.890, 72.779 226.355, 74.694 228.036 C 77.832 230.791, 78.739 231.065, 83.839 230.797 L 89.500 230.500 89.500 227 C 89.500 223.981, 89.088 223.375, 86.500 222.587 C 84.829 222.079, 82.154 219.866, 80.462 217.594 C 77.366 213.434, 75.431 212.399, 73.313 213.772 M 34.654 220.009 C 32.932 222.924, 32.940 223.107, 34.912 225.876 C 37.150 229.019, 45.081 233.305, 51.833 235.021 C 55.416 235.931, 56.584 235.848, 58.583 234.538 C 62.642 231.878, 61.282 228.876, 54.500 225.522 C 52.300 224.434, 48.312 222.071, 45.638 220.272 C 39.525 216.159, 36.964 216.097, 34.654 220.009" stroke="none" fill="black" fill-rule="evenodd"/>
</svg>