<svg xmlns="http://www.w3.org/2000/svg" width="300" height="300" viewBox="0 0 300 300" version="1.1">
	<path d="M 163.146 21.074 C 162.084 22.214, 160.212 25.926, 158.986 29.324 C 155.677 38.496, 148.208 53.635, 145.208 57.249 C 144.628 57.948, 142.390 61.890, 140.235 66.010 C 133.054 79.736, 125.665 93.466, 123.826 96.500 C 120.208 102.469, 121.411 104.595, 131.092 109.339 C 134.167 110.845, 138.072 113.523, 139.769 115.289 L 142.854 118.500 134.190 131.500 C 124.084 146.663, 116.400 155, 112.530 155 C 107.946 155, 105 157.742, 105 162.008 C 105 166.382, 105.980 167, 112.922 167 C 119.600 167, 128.621 162.291, 134.697 155.634 C 137.338 152.740, 143.100 145.132, 147.500 138.727 C 151.900 132.323, 156.085 127.064, 156.801 127.041 C 157.517 127.019, 162.379 128.820, 167.606 131.045 C 181.877 137.119, 191.338 140.519, 218.756 149.424 C 253.756 160.792, 283.248 165.189, 289.528 159.976 C 293.104 157.009, 289.617 151, 284.321 151 C 282.299 151, 266.860 147.206, 247 141.829 C 242.875 140.713, 237.700 139.424, 235.500 138.967 C 228.459 137.502, 172.210 118.032, 165.844 114.856 C 164.410 114.141, 164.964 112.714, 169.954 104.265 C 191.595 67.619, 194.807 59.617, 189.950 54.447 C 185.612 49.829, 176.822 49.408, 167.750 53.384 C 165.459 54.387, 164 54.612, 164 53.962 C 164 53.376, 165.546 49.882, 167.436 46.198 C 172.111 37.085, 174.999 29.131, 174.999 25.365 C 175 19.704, 167.090 16.840, 163.146 21.074 M 230.210 21.849 C 229.500 22.300, 228.441 25.738, 227.857 29.491 C 225.902 42.046, 211.690 73.300, 199.134 92.657 C 191.565 104.326, 191.330 105.110, 194.360 108.632 C 196.505 111.126, 197.128 111.341, 199.645 110.456 C 202.795 109.348, 211.073 98.605, 218.682 85.750 C 223.118 78.257, 223.396 78, 227.053 78 C 230.293 78, 231.145 78.499, 232.982 81.471 C 239.453 91.941, 259 102.477, 268.203 100.455 C 269.779 100.109, 271.781 98.738, 272.653 97.407 C 274.814 94.108, 272.898 89.222, 269.123 88.410 C 265.655 87.664, 256 82.793, 256 81.789 C 256 81.355, 255.403 81, 254.673 81 C 253.943 81, 251.116 78.587, 248.390 75.638 C 245.664 72.688, 242.008 69.538, 240.266 68.638 C 236.553 66.717, 231.893 66.507, 230.217 68.183 C 227.723 70.677, 227.847 67.830, 230.474 62.284 C 236.021 50.571, 241.204 36.364, 241.703 31.500 C 242.151 27.131, 241.892 26.153, 239.656 23.750 C 237.084 20.988, 232.896 20.145, 230.210 21.849 M 74.430 47.965 C 71.559 49.127, 69.848 52.166, 66.638 61.810 C 65.117 66.380, 62.157 73.580, 60.060 77.810 C 57.964 82.039, 55.908 86.605, 55.492 87.956 C 55.075 89.306, 51.419 97.067, 47.367 105.201 C 43.004 113.960, 40 121.247, 40 123.072 C 40 125.173, 40.969 127.123, 43.046 129.200 C 45.771 131.924, 46.588 132.198, 50.796 131.791 C 53.383 131.541, 58.802 129.709, 62.838 127.719 C 67.321 125.508, 69.966 124.645, 69.638 125.500 C 69.343 126.269, 66.443 131.309, 63.195 136.700 C 58.091 145.167, 53.822 153.044, 42.436 175 C 39.361 180.929, 37 189.374, 37 194.442 C 37 197.467, 37.684 199.258, 39.648 201.376 C 42.035 203.950, 42.739 204.171, 46.802 203.614 C 53.183 202.739, 60.671 198.657, 69.168 191.421 L 76.500 185.177 78.258 191.339 C 79.385 195.288, 79.799 198.990, 79.410 201.651 C 78.914 205.041, 79.188 206.188, 80.901 207.901 C 83.629 210.629, 87.133 210.569, 89.701 207.750 C 93.961 203.073, 94.170 201.725, 93.513 183.185 C 93.169 173.458, 92.684 164.508, 92.436 163.295 C 92.187 162.082, 90.430 159.904, 88.530 158.455 C 85.457 156.111, 84.710 155.940, 81.771 156.911 C 79.911 157.525, 76.728 160.077, 74.489 162.751 C 69.189 169.079, 57.936 180.269, 57.405 179.738 C 56.801 179.134, 62.559 166.656, 66.975 159 C 69.037 155.425, 73.534 147.100, 76.968 140.500 C 80.402 133.900, 83.797 127.825, 84.514 127 C 85.230 126.175, 89.059 119.200, 93.021 111.500 C 96.984 103.800, 101.281 95.925, 102.569 94 C 105.544 89.555, 110 77.765, 110 74.337 C 110 71.681, 107.622 69.090, 105.132 69.032 C 104.380 69.014, 102.226 70.350, 100.347 72 C 98.468 73.650, 96.496 75, 95.965 75 C 94.674 75, 94.723 78.741, 96.020 79.173 C 96.990 79.497, 90.126 92.315, 83.787 102.019 C 81.204 105.973, 80.373 106.550, 77.151 106.635 C 75.126 106.688, 70.663 107.864, 67.234 109.249 C 62.287 111.248, 61 111.469, 61 110.320 C 61 109.524, 63.310 104.064, 66.132 98.187 C 72.694 84.525, 76.049 76.373, 78.971 67 C 80.530 61.995, 82.288 58.574, 84.254 56.715 C 86.636 54.463, 87.070 53.414, 86.520 51.225 C 86.147 49.737, 85.315 48.185, 84.671 47.775 C 83.129 46.794, 77.043 46.907, 74.430 47.965 M 168 68.664 C 166.075 69.490, 162.296 71.568, 159.602 73.282 C 156.908 74.996, 153.367 77.097, 151.733 77.949 C 149.990 78.860, 147.550 81.731, 145.826 84.901 C 144.210 87.872, 141.539 92.263, 139.890 94.660 C 138.241 97.056, 137.147 99.428, 137.458 99.931 C 137.769 100.435, 139.480 101.149, 141.261 101.520 C 143.043 101.891, 145.927 103.014, 147.670 104.016 L 150.840 105.838 153.274 102.169 C 157.367 96, 170.858 72.503, 171.936 69.668 C 173.085 66.645, 172.849 66.585, 168 68.664 M 145.282 171.206 C 141.569 172.999, 140.902 177.165, 142.033 191.503 C 142.597 198.651, 142.980 216.299, 142.883 230.721 C 142.764 248.392, 143.061 257.369, 143.794 258.252 C 144.624 259.252, 144.180 260.029, 141.918 261.531 C 138.281 263.947, 136.153 269.934, 137.747 273.263 C 138.336 274.493, 139.065 276.274, 139.367 277.220 C 140.170 279.742, 144.690 280.591, 146.860 278.627 C 149.294 276.424, 156.144 275.282, 171.500 274.518 C 198.207 273.191, 216.613 270.592, 224.729 267.002 C 227.218 265.901, 230.072 265, 231.070 265 C 233.098 265, 236 261.428, 236 258.932 C 236 258.040, 235.142 256.534, 234.094 255.585 C 232.228 253.896, 232.251 253.724, 235.219 247.180 C 239.586 237.555, 240.925 228.239, 240.965 207.193 C 240.998 189.832, 239.883 180, 237.881 180 C 237.397 180, 237 179.550, 237 179 C 237 177.052, 233.050 174.091, 228.995 172.999 C 225.783 172.134, 223.203 172.224, 217.192 173.410 C 200.926 176.620, 181.747 179, 172.142 179 C 166.635 179, 161.037 179.416, 159.701 179.924 C 157.471 180.771, 157.175 180.528, 156.109 176.968 C 154.141 170.400, 150.722 168.580, 145.282 171.206 M 210.294 190.022 C 201.264 192.062, 188.151 193.611, 171.922 194.554 C 166.105 194.892, 160.705 195.565, 159.922 196.048 C 158.777 196.756, 158.478 200.775, 158.386 216.714 C 158.273 236.255, 156.839 252.564, 154.918 256.154 C 153.720 258.391, 151.557 258.360, 179 256.500 C 190.825 255.698, 204.203 255.033, 208.730 255.021 L 216.959 255 219.016 250.969 C 220.147 248.753, 221.525 244.815, 222.079 242.219 C 223.232 236.811, 225.193 192.391, 224.394 189.750 C 223.729 187.551, 221.003 187.603, 210.294 190.022 M 71.544 226.344 C 68.719 228.410, 69.900 236.228, 73.636 240.189 C 78.535 245.384, 84.008 248.317, 88.674 248.246 C 93.767 248.169, 95 247.512, 95 244.875 C 95 241.251, 93.097 239, 90.033 239 C 87.977 239, 86.536 238.157, 85.068 236.096 C 83.931 234.498, 83 232.900, 83 232.545 C 83 231.518, 75.613 225.010, 74.441 225.005 C 73.859 225.002, 72.555 225.605, 71.544 226.344 M 49.896 235.286 C 45.597 238.560, 46.846 245.506, 52.766 251.245 C 57.508 255.842, 60.774 256.676, 65.415 254.473 C 70.767 251.933, 70.193 247.634, 63.991 243.815 C 62.611 242.965, 60.811 240.972, 59.991 239.385 C 59.171 237.798, 57.970 235.938, 57.321 235.250 C 55.832 233.671, 51.992 233.689, 49.896 235.286 M 15 240.678 C 12.744 241.315, 9.750 245.881, 9.750 248.686 C 9.750 255.868, 17.761 260.737, 31.086 261.653 C 38.722 262.177, 39.754 262.029, 42.250 260.043 C 47.094 256.189, 45.718 251, 39.853 251 C 35.591 251, 29.591 248.334, 24.020 243.964 C 20.272 241.024, 17.436 239.991, 15 240.678" stroke="none" fill="black" fill-rule="evenodd"/>
</svg>