<svg xmlns="http://www.w3.org/2000/svg" width="300" height="300" viewBox="0 0 300 300" version="1.1">
	<path d="M 202.500 50.933 C 189.683 51.322, 176.743 52.275, 171.500 53.217 C 166.550 54.106, 157.208 55.601, 150.739 56.538 L 138.979 58.243 136.917 55.621 C 134.266 52.251, 130.741 52.242, 128.101 55.599 C 126.169 58.055, 126.143 58.400, 127.625 61.849 C 128.488 63.857, 130.286 68.425, 131.622 72 C 135.770 83.105, 137.302 86.423, 139.352 88.742 L 141.333 90.983 138.189 91.612 C 133.968 92.456, 132.535 94.263, 133.966 96.936 C 134.931 98.740, 136.016 99, 142.571 99 C 146.697 99, 153.769 98.133, 158.286 97.073 C 166.139 95.231, 173.925 94.074, 202.215 90.549 C 209.209 89.677, 215.604 88.705, 216.427 88.390 C 218.527 87.584, 219.312 84.452, 218.020 82.038 C 217.041 80.207, 215.965 80, 207.451 80 L 197.973 80 199.667 76.250 C 200.598 74.188, 201.542 70.205, 201.764 67.400 L 202.168 62.300 215.993 61.640 C 224.241 61.246, 230.847 61.372, 232.370 61.951 C 234.660 62.821, 234.798 63.158, 233.711 65.225 C 233.045 66.492, 231.488 68.941, 230.250 70.668 C 229.012 72.396, 228 74.101, 228 74.457 C 228 74.814, 226.925 76.688, 225.611 78.621 C 223.006 82.456, 223.167 85.484, 226.059 87.032 C 228.690 88.439, 232.372 86.713, 235.041 82.819 C 236.293 80.994, 238.554 78.150, 240.067 76.500 C 246.722 69.237, 248.798 61.307, 245.087 57.324 C 241.278 53.235, 236.373 51.003, 230.379 50.631 C 227.146 50.430, 214.600 50.566, 202.500 50.933 M 185 72.059 C 185 77.646, 185.394 81.875, 185.886 81.571 C 186.373 81.269, 187.521 77.980, 188.437 74.262 C 189.353 70.543, 190.490 66.263, 190.964 64.750 C 191.789 62.119, 191.679 62, 188.413 62 L 185 62 185 72.059 M 159.500 65.551 C 155.650 66.280, 150.614 66.905, 148.309 66.939 C 146.004 66.972, 143.878 67.388, 143.585 67.863 C 143.291 68.337, 143.974 72.050, 145.102 76.113 C 146.230 80.176, 146.984 84.963, 146.777 86.750 C 146.356 90.397, 146.859 90.600, 151.349 88.589 C 156.115 86.454, 167.116 83.125, 170.500 82.794 L 173.500 82.500 172.646 73.250 C 171.662 62.596, 172.501 63.087, 159.500 65.551 M 86.043 74.273 C 82.916 75.855, 79.767 80.384, 70.749 96.268 C 66.762 103.291, 62.273 111.166, 60.773 113.768 C 58.764 117.254, 58.041 119.886, 58.023 123.765 C 58.002 128.642, 58.239 129.175, 61.250 131.011 C 65.415 133.550, 71.518 133.555, 78.180 131.024 C 81.040 129.937, 83.489 129.155, 83.620 129.287 C 83.752 129.419, 79.108 137.621, 73.300 147.513 C 57.075 175.148, 55.303 180.394, 60.455 185.545 C 66.192 191.283, 82.448 187.136, 90.335 177.922 L 93.901 173.756 94.619 176.628 C 95.675 180.845, 99.018 188.239, 100.778 190.250 C 102.920 192.697, 105.673 192.429, 107.532 189.592 C 108.939 187.445, 108.953 186.606, 107.666 181.842 C 106.872 178.904, 105.673 170.875, 105.001 164 C 103.806 151.757, 102.519 148, 99.519 148 C 97.037 148, 93.763 152.922, 93.257 157.416 C 92.833 161.174, 92.120 162.430, 89.122 164.697 C 87.130 166.204, 84.389 168.455, 83.031 169.699 C 80.732 171.806, 72.104 175.438, 71.303 174.636 C 70.941 174.275, 80.235 155.899, 84.521 148.500 C 85.795 146.300, 87.688 142.925, 88.726 141 C 89.765 139.075, 94.379 130.975, 98.979 123 C 112.295 99.918, 115.546 91.191, 111.421 89.608 C 107.914 88.262, 105.270 90.111, 102.523 95.827 C 101.023 98.947, 98.955 103.075, 97.928 105 C 96.900 106.925, 95.287 109.963, 94.344 111.750 C 92.986 114.325, 91.993 115.005, 89.565 115.022 C 87.879 115.034, 84.530 115.938, 82.121 117.031 C 77.529 119.114, 70 120.716, 70 119.609 C 70 118.928, 73.724 111.891, 77.202 106 C 78.338 104.075, 80.841 99.575, 82.764 96 C 84.686 92.425, 87.574 87.532, 89.180 85.126 C 95.134 76.207, 93.487 70.506, 86.043 74.273 M 178.732 96.750 C 176.128 99.640, 173.947 107.039, 173.323 115.108 L 172.734 122.717 162.894 123.362 C 148.814 124.284, 143.076 127.536, 145.973 132.950 C 147.515 135.831, 150.830 136.367, 162.244 135.580 L 172.272 134.890 171.628 138.108 C 171.182 140.339, 171.458 141.849, 172.529 143.032 C 173.966 144.620, 173.431 144.854, 164.786 146.423 C 159.679 147.349, 152.003 148.758, 147.730 149.554 C 143.456 150.349, 137.279 151, 134.003 151 C 128.749 151, 127.852 151.296, 126.405 153.505 C 124.323 156.682, 125.392 158.114, 131.624 160.494 C 135.068 161.809, 138.070 162.130, 143.609 161.775 L 151 161.300 151 165.456 C 151 170.370, 154.394 175.591, 159.286 178.201 C 161.798 179.542, 162.063 179.928, 160.500 179.971 C 156.772 180.073, 136.206 187.164, 132.395 189.661 C 129.666 191.449, 129.234 194.492, 131.580 195.393 C 133.687 196.201, 145.258 195.258, 157.168 193.307 C 162.486 192.436, 167.548 191.996, 168.418 192.330 C 169.698 192.821, 170 194.649, 170 201.897 L 170 210.856 164.250 211.517 C 153.331 212.773, 122.900 219.708, 119.740 221.661 C 119.235 221.973, 116.686 222.791, 114.075 223.480 C 109.391 224.716, 109.334 224.702, 109.764 222.455 C 110.074 220.834, 109.477 219.703, 107.694 218.535 C 106.298 217.621, 104.175 214.396, 102.899 211.252 C 100.355 204.984, 98.210 202.411, 94.287 200.919 C 92.284 200.158, 91.306 200.266, 90.200 201.371 C 86.729 204.843, 92.506 219.233, 99.519 224.582 C 102.605 226.936, 103.400 227.139, 105.607 226.133 C 107.933 225.073, 108.131 225.166, 107.962 227.238 C 107.633 231.288, 107.957 231.926, 111.181 233.594 C 114.175 235.142, 114.777 235.119, 121.431 233.209 C 135.012 229.311, 157.012 224.555, 165.594 223.661 L 170.688 223.131 171.278 256.133 C 171.693 279.377, 172.219 289.559, 173.056 290.568 C 174.882 292.768, 178.758 292.299, 180.480 289.671 C 183.263 285.423, 184.123 272.699, 183.409 246.339 L 182.728 221.178 188.114 220.659 C 196.698 219.832, 218.775 217.814, 227.569 217.052 C 232.697 216.608, 237.344 215.528, 240.319 214.088 C 244.492 212.068, 245 211.463, 245 208.518 C 245 206.580, 244.410 204.988, 243.574 204.667 C 242.790 204.366, 232.327 204.962, 220.324 205.991 C 208.321 207.020, 194.900 208.005, 190.500 208.181 L 182.500 208.500 181.927 199 C 181.612 193.775, 181.517 189.295, 181.716 189.044 C 181.915 188.793, 187.798 188.405, 194.789 188.181 C 201.780 187.958, 208.063 187.320, 208.750 186.765 C 210.762 185.140, 210.211 181.183, 207.750 179.581 C 206.512 178.775, 202 177.802, 197.722 177.417 C 190.683 176.785, 190.078 176.566, 191.355 175.110 C 193.230 172.971, 201 156.511, 201 154.678 C 201 153.809, 202.754 152.796, 205.424 152.124 C 208.093 151.451, 210.671 149.963, 211.924 148.370 C 214.357 145.276, 214.486 144.047, 212.641 141.523 C 211.319 139.716, 210.986 139.724, 200.643 141.832 C 190.642 143.870, 180 144.696, 180 143.435 C 180 143.125, 180.958 140.644, 182.129 137.922 C 183.729 134.202, 184.908 132.833, 186.879 132.408 C 197.737 130.065, 200.374 127.935, 197.972 123.447 C 196.602 120.888, 196.270 120.791, 190.796 121.363 L 185.057 121.963 185.592 118.732 C 185.886 116.954, 186.310 114.604, 186.533 113.508 C 187.075 110.852, 184.959 97.829, 183.729 96.250 C 182.375 94.511, 180.589 94.690, 178.732 96.750 M 169 157.358 C 162.573 158.487, 162.504 158.534, 162.854 161.500 C 163.376 165.925, 165.439 169.335, 169.441 172.387 C 171.398 173.880, 173 175.754, 173 176.551 C 173 178.540, 175.361 178.372, 177.236 176.250 C 178.087 175.287, 180.791 170.338, 183.245 165.250 L 187.708 156 181.604 156.108 C 178.247 156.167, 172.575 156.730, 169 157.358 M 68.655 207.829 C 66.102 210.650, 66.646 213.489, 71.087 220.520 C 75.985 228.276, 79.195 231, 83.435 231 C 88.969 231, 90.812 226.940, 86.883 223.405 C 85.719 222.357, 83.713 219.124, 82.425 216.221 C 79.749 210.186, 78.232 208.419, 74.510 207.004 C 70.963 205.655, 70.572 205.710, 68.655 207.829 M 36.750 218.763 C 35.014 219.144, 34.511 220.673, 34.870 224.474 C 35.078 226.681, 39.759 232, 41.493 232 C 42.108 232, 44.136 233.125, 46 234.500 C 49.637 237.183, 53.857 237.743, 55.800 235.800 C 57.605 233.995, 57.243 230.419, 55.098 228.872 C 54.052 228.117, 51.170 225.793, 48.693 223.707 C 44.089 219.830, 39.864 218.081, 36.750 218.763" stroke="none" fill="black" fill-rule="evenodd"/>
</svg>