<svg xmlns="http://www.w3.org/2000/svg" width="300" height="300" viewBox="0 0 300 300" version="1.1">
	<path d="M 178.571 26.571 C 176.050 29.092, 176.643 34.173, 179.972 38.572 C 181.607 40.732, 182.957 43.452, 182.972 44.615 C 182.987 45.778, 183.877 47.845, 184.949 49.208 L 186.899 51.686 167.288 52.343 C 156.503 52.704, 143.441 53, 138.262 53 C 129.188 53, 128.740 53.106, 125.923 55.923 C 122.537 59.310, 122.310 60.926, 124.793 63.992 C 126.575 66.194, 126.752 66.205, 156.296 66.062 L 186.007 65.917 184.609 69.209 C 183.840 71.019, 182.723 73.737, 182.127 75.250 C 180.881 78.410, 178.698 78.802, 176.807 76.206 C 176.088 75.219, 173.382 72.907, 170.794 71.068 C 166.713 68.169, 165.530 67.800, 161.881 68.289 C 152.502 69.547, 147.870 78.788, 156.500 79.024 C 157.600 79.054, 161.650 81.954, 165.500 85.468 L 172.500 91.858 169.500 95.034 C 166.746 97.950, 159.869 101.739, 154.193 103.468 C 149.595 104.869, 149.324 112.016, 153.815 113.441 C 159.291 115.179, 173.387 109.585, 180.320 102.923 C 184.773 98.644, 186.110 98.222, 188 100.500 C 189.773 102.636, 196.302 102.428, 198.345 100.171 C 201.227 96.987, 200.420 93.432, 196.010 89.888 C 193.119 87.564, 192.298 86.345, 193.031 85.462 C 193.588 84.792, 195.046 80.924, 196.272 76.868 C 199.748 65.362, 199.490 65.547, 214 64.129 C 236.615 61.919, 247.027 58.273, 246.985 52.576 C 246.947 47.462, 244.755 46.895, 231.422 48.553 C 225.415 49.300, 214.833 50.220, 207.907 50.597 L 195.314 51.283 194.733 44.351 C 194.413 40.538, 193.391 35.519, 192.462 33.197 C 189.668 26.213, 182.398 22.745, 178.571 26.571 M 66.185 60.032 C 64.386 61.963, 62.571 66.230, 55.777 84.500 C 54.141 88.900, 51.001 96.325, 48.800 101 C 36.779 126.529, 35.474 133.036, 41.200 138.893 C 44.084 141.843, 44.849 142.122, 48.950 141.719 C 51.452 141.474, 56.650 140.136, 60.500 138.746 C 64.350 137.356, 67.650 136.358, 67.834 136.527 C 68.018 136.696, 65.356 142.160, 61.918 148.668 C 44.126 182.346, 41.451 189.868, 44.941 196.390 C 48.946 203.873, 65.919 201.107, 76.135 191.306 C 79.965 187.631, 80.302 187.707, 81.429 192.500 C 82.607 197.506, 84.759 200, 87.901 200 C 92.506 200, 93.194 198.180, 93.085 186.287 C 92.919 168.107, 91.801 162.707, 87.952 161.485 C 84.745 160.467, 81.448 163.328, 80.043 168.348 C 79.015 172.016, 77.674 173.709, 72.784 177.506 C 69.485 180.068, 65.007 182.792, 62.833 183.559 C 58.937 184.933, 58.890 184.921, 59.585 182.727 C 60.173 180.870, 87.033 126.226, 90.043 120.764 C 90.569 119.809, 91 118.446, 91 117.735 C 91 117.024, 92.338 113.305, 93.973 109.471 C 97.492 101.220, 97.676 98.922, 95.012 96.511 C 93.087 94.769, 92.896 94.800, 89.022 97.484 C 85.069 100.224, 84.528 101.121, 77.414 116.750 C 74.843 122.396, 74.276 123.003, 71.534 123.035 C 69.865 123.054, 65.575 123.714, 62 124.500 C 58.425 125.286, 54.907 125.946, 54.183 125.965 C 52.387 126.013, 53.063 123.984, 59.999 108.500 C 63.202 101.350, 67.029 92.125, 68.503 88 C 69.977 83.875, 72.267 77.679, 73.592 74.230 C 76.200 67.439, 76.709 61.109, 74.800 59.200 C 72.935 57.335, 68.279 57.785, 66.185 60.032 M 218.524 75.385 C 214.965 78.944, 213.746 84.705, 214.964 92.211 C 215.526 95.670, 215.988 101.088, 215.992 104.250 C 215.999 109.600, 215.839 110, 213.679 110 C 212.403 110, 207.116 110.940, 201.929 112.089 C 196.743 113.238, 188.225 114.588, 183 115.089 C 177.775 115.590, 167.200 116.951, 159.500 118.113 C 145.033 120.296, 136.153 120.202, 133.302 117.836 C 131.962 116.723, 131.841 114.596, 132.445 102.707 C 133.043 90.914, 132.912 88.514, 131.550 86.437 C 129.611 83.476, 125.982 83.257, 123.543 85.953 C 119.335 90.602, 117.077 115.862, 120.220 123.118 C 122.627 128.673, 127.696 131.959, 135.680 133.138 C 150.387 135.310, 185.310 131.546, 206.870 125.466 C 211.870 124.056, 213.642 123.920, 215.107 124.835 C 220.439 128.165, 224.249 125.071, 227.566 114.716 C 230.050 106.962, 230.162 105.760, 229.549 93.340 C 229.115 84.548, 229.248 79.965, 229.950 79.531 C 231.512 78.565, 231.233 77.233, 229 75 C 226.249 72.249, 221.485 72.424, 218.524 75.385 M 184.359 132.193 C 183.902 132.912, 182.583 135.750, 181.427 138.500 C 165.834 175.593, 168.713 171.030, 158.884 174.229 C 150.687 176.897, 135.510 181, 133.840 181 C 133.378 181, 133 173.886, 133 165.191 C 133 147.190, 132.289 144.800, 127.449 146.523 C 125.940 147.060, 123.758 148.769, 122.602 150.321 C 120.703 152.868, 120.467 154.737, 120.163 169.632 L 119.826 186.122 117.163 187.174 C 109.126 190.348, 104.849 194.058, 105.261 197.500 C 105.475 199.294, 106.246 199.500, 112.751 199.500 L 120.001 199.500 120.001 224.559 C 120 250.968, 120.184 252.112, 124.652 253.435 C 126.142 253.877, 127.680 253.319, 129.652 251.624 L 132.500 249.176 133 222.424 L 133.500 195.672 139.579 194.434 C 142.923 193.753, 147.648 192.537, 150.079 191.732 C 152.511 190.928, 155.806 189.958, 157.403 189.577 C 160.238 188.901, 160.271 188.938, 158.817 191.193 C 156.397 194.944, 152 207.314, 152 210.370 C 152 224.219, 169.005 226.969, 188.332 216.246 C 192.046 214.186, 196.302 211.824, 197.792 210.998 C 199.281 210.172, 202.292 208.438, 204.483 207.144 C 208.167 204.969, 208.543 204.921, 209.483 206.503 C 212.437 211.473, 217.427 217.169, 219.987 218.493 C 223.609 220.366, 227.532 219.122, 229.141 215.589 C 230.121 213.440, 229.753 212.382, 226.155 206.995 C 221.727 200.364, 220.387 196.736, 219.010 187.647 C 217.977 180.833, 215.852 178, 211.774 178 C 207.558 178, 205.713 180.415, 205.200 186.604 L 204.753 191.998 188.732 199.981 C 171.710 208.462, 166 210.388, 166 207.645 C 166 205.835, 168.139 200.569, 171.603 193.853 C 172.921 191.297, 174 188.554, 174 187.758 C 174 186.961, 174.787 185.618, 175.750 184.772 C 178.835 182.061, 202.068 175.655, 220.428 172.453 C 230.350 170.722, 230.357 170.722, 232.073 172.842 C 234.341 175.643, 235.482 197.395, 234.732 223.544 C 234.209 241.764, 234.040 243.020, 230.843 252.544 C 228.265 260.220, 227.104 262.469, 225.772 262.365 C 223.206 262.164, 219 266.534, 219 269.401 C 219 272.887, 224.580 277, 229.310 277 C 237.053 277, 244.215 266.062, 248.300 248 C 250.186 239.660, 250.445 235.509, 250.423 214 C 250.395 187.786, 249.079 174.015, 246.034 168.097 C 242.427 161.087, 236.331 157, 229.482 157 C 224.769 157, 191.980 163.693, 187.478 165.574 C 185.446 166.423, 183.617 166.951, 183.414 166.747 C 183.211 166.544, 184.629 161.808, 186.567 156.224 C 189.569 147.568, 190.046 144.995, 189.795 138.785 C 189.528 132.195, 189.294 131.471, 187.344 131.193 C 186.159 131.024, 184.815 131.474, 184.359 132.193 M 77.414 223.553 C 75.365 228.454, 77.078 237.857, 80.820 242.250 C 82.528 244.256, 88.008 244.592, 89.800 242.800 C 91.442 241.158, 91.309 237.452, 89.543 235.686 C 88.742 234.885, 87.543 232.040, 86.879 229.365 C 84.457 219.607, 80.164 216.971, 77.414 223.553 M 47.039 224.189 C 42.027 229.569, 47.687 242.601, 57.200 247.585 C 65.674 252.025, 70.418 245.664, 63.500 239.139 C 61.575 237.323, 60 235.001, 60 233.978 C 60 232.955, 59.563 231.848, 59.028 231.518 C 58.494 231.187, 57.169 228.911, 56.085 226.459 C 54.503 222.884, 53.614 222, 51.595 222 C 50.211 222, 48.160 222.985, 47.039 224.189 M 10.520 228.158 C 7.552 231.686, 7.686 234.116, 11.159 239.750 C 17.028 249.269, 33.022 256.565, 35.965 251.065 C 37.107 248.931, 35.777 244, 34.060 244 C 32.190 244, 26.170 237.940, 22.857 232.722 C 21.034 229.850, 19.002 226.938, 18.342 226.250 C 16.303 224.125, 13.297 224.859, 10.520 228.158" stroke="none" fill="black" fill-rule="evenodd"/>
</svg>