<svg xmlns="http://www.w3.org/2000/svg" width="300" height="300" viewBox="0 0 300 300" version="1.1">
	<path d="M 170.364 15.179 C 164.551 17.967, 166.006 25.406, 173.934 33.434 C 176.721 36.255, 179 39.081, 179 39.714 C 179 41.036, 182.776 42.535, 185 42.096 C 189.553 41.198, 188.995 31.453, 184.096 26.292 C 182.943 25.077, 182 23.615, 182 23.042 C 182 22.469, 181.550 22, 181 22 C 180.450 22, 180 21.375, 180 20.611 C 180 18.650, 176.873 15.269, 174.500 14.664 C 173.400 14.384, 171.539 14.616, 170.364 15.179 M 227 38.121 C 222.875 38.633, 213.650 39.922, 206.500 40.988 C 199.350 42.053, 188.325 43.639, 182 44.512 C 175.675 45.385, 165.325 46.962, 159 48.016 C 141.142 50.993, 126.444 52.815, 115.259 53.438 C 104.757 54.023, 97.591 56.017, 96.587 58.633 C 96.273 59.453, 97.066 61.157, 98.370 62.461 C 103.514 67.605, 125.530 66.799, 165.500 60.003 C 200.931 53.979, 223.825 51, 234.719 50.996 C 242.705 50.993, 245.096 50.629, 247.750 49.011 C 251.389 46.792, 252.069 42.998, 249.448 39.532 C 247.670 37.180, 238.991 36.634, 227 38.121 M 66.216 63.270 C 65.043 64.519, 62.985 68.458, 61.643 72.024 C 59.159 78.624, 54.185 88.358, 50.847 93.154 C 49.831 94.614, 49 96.086, 49 96.424 C 49 96.763, 47.963 98.718, 46.695 100.770 C 43.307 106.253, 40 114.848, 40 118.169 C 40 124.993, 46.818 129.270, 54.180 127.064 C 56.338 126.418, 60.105 124.824, 62.552 123.524 C 64.998 122.223, 67 121.642, 67 122.233 C 67 123.234, 64.328 128.332, 57.427 140.500 C 43.354 165.311, 39.642 176.758, 43.915 182.173 C 48.798 188.362, 57.148 186.246, 67.222 176.268 C 70.919 172.606, 74.211 169.878, 74.539 170.205 C 75.676 171.343, 77.929 182.528, 77.964 187.215 C 77.993 190.978, 78.429 192.159, 80.126 193.068 C 87.364 196.941, 91.229 184.028, 87.480 168.500 C 86.683 165.200, 86.024 157.752, 86.016 151.950 C 86 141.173, 85.315 139, 81.935 139 C 79.524 139, 75.014 142.837, 73.847 145.881 C 73.295 147.322, 72.862 151.247, 72.884 154.604 C 72.921 160.371, 72.802 160.685, 70.712 160.290 C 69.147 159.994, 67.037 161.185, 63.500 164.359 C 60.542 167.013, 58.380 168.328, 58.207 167.579 C 57.893 166.222, 63.881 154.288, 75.148 133.815 C 84.006 117.721, 97 89.584, 97 86.498 C 97 83.893, 94.619 81, 92.476 81 C 91.716 81, 90.006 81.496, 88.676 82.102 C 86.322 83.174, 85.346 84.940, 78.076 101.277 C 75.358 107.384, 74.826 107.994, 72.691 107.459 C 71.150 107.072, 67.811 107.987, 63.138 110.076 C 59.187 111.843, 55.627 112.959, 55.227 112.557 C 54.827 112.155, 57.731 105.453, 61.679 97.663 C 65.628 89.873, 69.615 81.475, 70.539 79 C 71.463 76.525, 72.619 73.466, 73.109 72.203 C 74.541 68.510, 74.141 64.438, 72.171 62.655 C 69.748 60.462, 68.758 60.564, 66.216 63.270 M 169.046 68.799 C 168.246 69.076, 166.671 70.165, 165.546 71.218 C 163.751 72.897, 163.514 74.267, 163.616 82.370 L 163.733 91.608 155.116 93.373 C 132.922 97.919, 128.485 99.189, 124.888 102.024 L 121.277 104.872 120.718 97.186 C 119.681 82.916, 113.762 69.465, 109.061 70.694 C 106.290 71.419, 106.080 72.757, 107.600 80.016 C 111.114 96.793, 107.500 148.718, 100.502 182 C 99.750 185.575, 98.189 193, 97.032 198.500 C 94.681 209.675, 92.892 217.129, 92.294 218.239 C 91.442 219.820, 87.090 215.685, 86.439 212.676 C 85.499 208.337, 82.265 204, 79.967 204 C 76.636 204, 75.673 207.468, 77.022 214.615 C 78.508 222.493, 82.257 226.422, 87.682 225.789 C 91.493 225.344, 91.448 225.219, 89.608 231.072 C 88.842 233.507, 87.241 239.775, 86.050 245 C 81.806 263.614, 78.226 274.518, 74.305 280.769 C 70.787 286.378, 70.265 288.865, 72.200 290.800 C 74.801 293.401, 78.694 292.155, 82.902 287.374 C 89.357 280.041, 91.939 273.354, 98.494 247 C 99.247 243.975, 100.735 238.125, 101.802 234 C 102.868 229.875, 104.530 222.900, 105.495 218.500 C 106.460 214.100, 108.061 207.125, 109.054 203 C 113.941 182.694, 119.481 143.921, 120.696 121.518 L 121.293 110.500 128.421 110.420 C 134.950 110.347, 139.217 109.626, 157.915 105.435 C 161.444 104.645, 164.536 104.202, 164.786 104.453 C 165.036 104.703, 165.640 107.043, 166.127 109.652 C 166.615 112.262, 167.841 116.220, 168.852 118.448 C 169.864 120.677, 171.195 123.725, 171.812 125.222 C 173.318 128.882, 176.237 129.431, 187.257 128.127 C 198.512 126.796, 205.718 124.365, 211.006 120.115 C 218.559 114.045, 215.066 106.109, 206.750 110.447 C 205.238 111.236, 204 111.697, 204 111.471 C 204 111.245, 205.350 108.403, 207 105.156 C 208.650 101.909, 210 98.735, 210 98.102 C 210 97.468, 211.074 96.542, 212.388 96.043 C 216.357 94.534, 233.924 92.921, 239.024 93.598 C 243.389 94.177, 243.948 94.010, 245.484 91.665 C 247.606 88.427, 246.786 85.696, 242.852 82.894 C 240.037 80.890, 238.959 80.773, 227.661 81.243 C 220.972 81.522, 214.840 81.918, 214.033 82.125 C 212.920 82.410, 212.407 81.088, 211.903 76.633 C 211.290 71.214, 210.026 69.031, 207.500 69.031 C 205.232 69.031, 203.937 70.933, 201.756 77.468 L 199.460 84.351 193.597 85.682 C 190.373 86.415, 185.320 87.393, 182.368 87.856 L 177 88.697 177 80.504 C 177 73.939, 176.652 72.011, 175.250 70.807 C 172.979 68.857, 170.858 68.170, 169.046 68.799 M 190.500 99.036 C 188.300 99.487, 184.319 100.148, 181.653 100.504 C 176.862 101.144, 176.812 101.188, 177.337 104.326 C 177.629 106.072, 178.170 109.459, 178.539 111.854 C 179.189 116.065, 179.310 116.188, 182.230 115.604 C 183.891 115.272, 186.242 115, 187.454 115 C 189.159 115, 190.378 113.569, 192.829 108.690 C 195.814 102.751, 196.931 97.867, 195.250 98.107 C 194.838 98.166, 192.700 98.584, 190.500 99.036 M 218 128.623 C 208.375 129.374, 193.525 130.870, 185 131.947 C 176.475 133.024, 165 134.179, 159.500 134.515 C 149.111 135.148, 138.112 137.219, 132.347 139.628 C 128.478 141.245, 127.997 143.782, 131.037 146.534 C 134.127 149.330, 142.619 149.494, 163.204 147.154 C 196.273 143.395, 211.399 141.981, 218.500 141.982 C 230.692 141.985, 243.282 140.147, 245.379 138.058 C 248.077 135.371, 246.921 129.934, 243.294 128.250 C 240.223 126.824, 241.232 126.810, 218 128.623 M 202.500 154.126 C 199.750 154.615, 193.450 155.714, 188.500 156.568 C 169.002 159.934, 155.433 163.429, 152.750 165.778 C 148.735 169.293, 151.702 172.475, 159.782 173.319 C 165.670 173.935, 170.449 173.391, 183 170.676 C 186.575 169.903, 189.549 169.322, 189.608 169.385 C 189.668 169.448, 189.508 171.166, 189.254 173.202 C 188.803 176.816, 188.660 176.929, 183.146 178.007 C 169.912 180.596, 162.408 182.268, 161.067 182.928 C 158.535 184.174, 157.399 186.823, 158.587 188.708 C 159.925 190.829, 175.257 193.344, 182.287 192.595 L 187.075 192.085 186.447 195.793 C 185.653 200.490, 180.974 210.099, 179 211.088 C 178.175 211.501, 173.748 213.966, 169.162 216.566 C 160.006 221.757, 157.488 224.917, 160.281 227.710 C 161.796 229.225, 162.532 229.214, 170.209 227.564 C 174.769 226.584, 179.749 225.401, 181.276 224.934 C 184.443 223.966, 184.269 224.556, 179.741 230.113 C 175.822 234.923, 172.926 239.599, 169.594 246.500 C 168.001 249.800, 164.740 254.904, 162.349 257.842 C 157.579 263.700, 157.065 265.844, 159.829 268.345 C 162.318 270.598, 164.479 270.426, 168.564 267.651 C 174.055 263.919, 178.355 257.576, 187.478 239.745 C 192.165 230.585, 196 223.940, 196 224.979 C 196 226.035, 198.091 228.524, 200.750 230.632 C 203.363 232.702, 210.900 239.595, 217.500 245.948 C 229.431 257.434, 240.964 267.883, 246.285 272.030 C 249.901 274.848, 256.134 275.749, 257.835 273.699 C 259.944 271.157, 258.058 267.131, 252.199 261.668 C 249.150 258.826, 242.570 252.610, 237.577 247.856 C 232.585 243.102, 226.700 237.559, 224.500 235.538 C 216.093 227.816, 202.606 220.460, 198.346 221.274 C 196.842 221.562, 196.340 221.278, 196.698 220.344 C 196.982 219.605, 197.638 219, 198.155 219 C 198.673 219, 200.959 218.100, 203.236 217 C 207.992 214.702, 210.248 214.513, 212.929 216.188 C 217.276 218.903, 231.036 210.240, 235.022 202.280 C 235.787 200.751, 236.960 198.825, 237.627 198 C 239.163 196.101, 242.498 186.196, 244.051 178.921 C 245.052 174.232, 244.984 172.455, 243.624 167.778 C 241.846 161.664, 237.072 156.490, 232.232 155.432 C 230.729 155.103, 228.195 154.422, 226.601 153.917 C 223.057 152.796, 209.309 152.915, 202.500 154.126 M 139.750 167.392 C 137.251 169.289, 137.554 174.233, 140.640 181.922 C 143.802 189.798, 148 206.222, 148 210.712 C 148 216.408, 154.153 217.320, 156.977 212.043 C 158.375 209.430, 158.234 203.114, 156.550 193 C 154.501 180.689, 152.237 175.162, 147.231 170.250 C 142.450 165.560, 142.259 165.487, 139.750 167.392 M 202.678 166.750 C 202.436 167.162, 202.467 169.004, 202.746 170.842 C 203.312 174.569, 203.109 174.556, 213 171.496 C 221.667 168.815, 225.111 168.990, 226.930 172.205 C 228.388 174.782, 228.325 175.051, 225.612 177.883 C 224.046 179.517, 220.455 181.812, 217.632 182.981 C 214.810 184.150, 211.600 185.502, 210.500 185.984 C 209.400 186.466, 206.923 187.340, 204.996 187.927 C 201.699 188.930, 201.359 189.450, 199.268 196.686 C 198.046 200.917, 197.178 204.511, 197.339 204.672 C 197.500 204.834, 201.203 203.819, 205.566 202.417 C 209.930 201.015, 215.300 199.557, 217.500 199.178 C 220.988 198.576, 221.782 197.912, 223.703 193.994 C 225.867 189.580, 229.133 180.190, 230.404 174.729 C 231.263 171.035, 229.726 168.449, 225.872 167.105 C 222.329 165.870, 203.365 165.580, 202.678 166.750 M 46.035 218.934 C 44.352 222.080, 44.828 229.206, 46.956 232.696 C 48.327 234.944, 49.931 236.084, 52.365 236.541 C 58.417 237.676, 65 234.546, 65 230.534 C 65 227.709, 61.129 224.471, 59.591 226.009 C 57.671 227.929, 56.376 226.950, 54.284 222 C 52.535 217.859, 51.734 217, 49.621 217 C 48.123 217, 46.643 217.798, 46.035 218.934 M 11 219.729 C 8.756 220.583, 8.032 222.118, 8.015 226.063 C 7.997 230.331, 11.035 233.571, 18.500 237.247 C 28.501 242.172, 34.384 241.587, 33.808 235.726 C 33.543 233.021, 32.609 232.082, 27.085 228.966 C 23.557 226.976, 19.128 223.920, 17.242 222.174 C 13.678 218.874, 13.465 218.790, 11 219.729" stroke="none" fill="black" fill-rule="evenodd"/>
</svg>