<svg xmlns="http://www.w3.org/2000/svg" width="300" height="300" viewBox="0 0 300 300" version="1.1">
	<path d="M 163.484 40.432 C 161.031 43.649, 160.909 44.310, 161.562 50.932 L 162.258 58 156.879 58.060 C 153.921 58.092, 149.279 58.484, 146.565 58.929 C 138.790 60.205, 135.652 65.652, 140.119 70.119 C 142.061 72.061, 142.917 72.180, 150.369 71.551 C 154.841 71.173, 159.512 70.621, 160.750 70.324 C 162.964 69.792, 163 69.936, 163 79.330 L 163 88.877 158.250 89.550 C 155.637 89.919, 151.588 91.046, 149.250 92.055 L 145 93.888 145 90.566 C 145 86.564, 142.905 84.556, 139.594 85.387 C 137.739 85.853, 136.921 87.005, 136.144 90.249 C 135.583 92.587, 134.691 96.300, 134.160 98.500 C 133.629 100.700, 132.895 114.875, 132.528 130 C 132.162 145.125, 131.440 161.725, 130.924 166.889 C 129.834 177.798, 130.351 179, 136.137 179 C 139.455 179, 140.322 178.521, 142.011 175.750 C 143.364 173.530, 143.994 170.717, 143.996 166.875 C 143.998 163.781, 144.270 159.900, 144.600 158.249 C 145.174 155.378, 145.341 155.292, 148.457 156.248 C 150.578 156.899, 153.645 156.915, 157.248 156.295 L 162.781 155.341 163.175 165.143 C 163.494 173.079, 163.961 175.474, 165.633 177.723 C 170.281 183.976, 179 180.326, 179 172.127 C 179 167.161, 178.195 165, 176.343 165 C 175.219 165, 174.966 163.733, 175.200 159.258 L 175.500 153.517 180.376 152.823 C 188.296 151.697, 195.545 148.217, 199.968 143.419 C 204.460 138.545, 204.964 135.964, 202 133 C 199.437 130.437, 199.049 130.471, 194.390 133.671 C 190.988 136.007, 179.814 139.888, 176.250 139.971 C 175.401 139.991, 175 138.272, 175 134.617 L 175 129.234 182.750 127.463 C 202.951 122.849, 213.082 115.353, 208.523 108.394 C 206.539 105.367, 203.767 105.364, 198.588 108.383 C 194.290 110.888, 176.501 116.167, 175.553 115.219 C 175.249 114.915, 175 110.957, 175 106.424 L 175 98.181 181.750 97.132 C 193.270 95.344, 212.931 93.598, 213.635 94.301 C 214.931 95.598, 215.330 153.157, 214.083 159.130 C 212.933 164.639, 212.825 164.772, 208.986 165.386 C 204.747 166.064, 202.651 168.554, 203.187 172.277 C 203.602 175.160, 207.435 176.967, 213.173 176.985 C 218.952 177.003, 223.346 173.693, 226.115 167.231 C 227.845 163.195, 228 159.878, 228 126.783 C 228 87.596, 227.590 83.874, 223.012 81.506 C 220.016 79.957, 206.033 80.823, 191 83.490 C 186.325 84.319, 180.794 84.998, 178.708 84.999 L 174.916 85 175.208 77.250 L 175.500 69.500 187.500 68.865 C 194.100 68.516, 201.975 67.579, 205 66.781 C 208.025 65.984, 212.148 65.527, 214.162 65.765 C 217.187 66.123, 218.034 65.805, 219.035 63.935 C 222.332 57.774, 216.682 42.351, 209.728 38.530 C 206.236 36.612, 206.090 36.609, 204.097 38.412 C 200.896 41.309, 200.733 43.456, 203.308 48.794 L 205.699 53.751 198.600 54.340 C 194.695 54.664, 187.787 55.228, 183.250 55.593 L 175 56.258 174.978 50.879 C 174.948 43.499, 171.961 37, 168.600 37 C 166.929 37, 165.234 38.137, 163.484 40.432 M 84.570 67.379 C 80.461 71.801, 76.844 77.701, 70.397 90.500 C 68.458 94.350, 65.123 100.200, 62.986 103.500 C 54.995 115.843, 53.615 119.082, 53.556 125.642 C 53.491 132.758, 55.293 135.589, 60.510 136.568 C 63.432 137.116, 71.567 135.539, 76.359 133.495 C 77.950 132.817, 77.855 133.264, 75.703 136.601 C 74.320 138.746, 69.919 146.937, 65.922 154.804 C 60.277 165.916, 58.556 170.315, 58.208 174.511 C 57.795 179.481, 58.003 180.157, 60.803 182.957 C 63.268 185.422, 64.679 186, 68.229 186 C 74.446 186, 83.541 182.663, 91.025 177.635 L 97.450 173.319 100.185 177.630 C 104.102 183.807, 109.275 184.681, 112.420 179.697 C 113.212 178.440, 112.946 176.972, 111.342 173.763 C 106.440 163.953, 104 157.202, 104 153.449 C 104 147.423, 98.930 145.012, 95.039 149.189 C 92.996 151.381, 92.470 153.858, 92.838 159.542 C 93.013 162.251, 92.511 162.841, 88.267 164.917 C 85.645 166.200, 81.112 168.078, 78.194 169.091 L 72.887 170.931 73.548 168.716 C 73.912 167.497, 79.281 156.600, 85.478 144.500 C 96.481 123.020, 101.158 112.737, 106.413 98.479 C 109.617 89.783, 109.626 88.673, 106.500 87 C 104.396 85.874, 103.579 85.887, 101.340 87.081 C 98.840 88.415, 94.032 96.787, 94.010 99.846 C 94.004 100.586, 93.348 102.386, 92.552 103.846 C 91.755 105.306, 90.205 108.638, 89.108 111.250 C 87.745 114.494, 86.524 116, 85.256 116 C 84.235 116, 82.973 116.376, 82.450 116.835 C 81.371 117.783, 73.828 120.515, 69.843 121.401 L 67.186 121.992 69.205 117.746 C 70.316 115.411, 72.220 112.150, 73.437 110.500 C 75.744 107.371, 79.387 100.589, 85.434 88.167 C 87.397 84.133, 90.578 78.462, 92.502 75.563 C 96.439 69.632, 96.832 67.063, 94.171 64.655 C 91.265 62.025, 88.931 62.687, 84.570 67.379 M 157 102.552 C 154.525 103.332, 151.037 103.976, 149.250 103.985 L 146 104 146 123.787 L 146 143.573 154.074 142.879 C 158.515 142.498, 162.283 142.031, 162.448 141.843 C 162.613 141.654, 162.530 138.983, 162.264 135.907 L 161.778 130.315 157.139 130.700 C 143 131.872, 144.282 119.027, 158.500 117.055 L 162.500 116.500 162.792 108.750 C 162.953 104.487, 162.728 101.030, 162.292 101.067 C 161.856 101.104, 159.475 101.772, 157 102.552 M 190.441 176.494 C 187.161 179.971, 186.945 180.745, 185.695 193.489 C 185.486 195.623, 179.905 197.192, 155.500 201.976 C 136.382 205.725, 128.022 209.173, 128.007 213.316 C 127.991 217.550, 129.842 218.999, 135.285 219.016 C 140.152 219.031, 144.349 218.253, 169 212.764 C 174.225 211.601, 180.349 210.359, 182.609 210.005 L 186.717 209.360 187.367 223.430 C 189.070 260.315, 189.294 276.700, 188.104 277.436 C 185.556 279.010, 173.711 273.529, 164.699 266.605 C 161.444 264.104, 160.596 263.863, 158.466 264.834 C 149.342 268.991, 166.859 287.827, 182.936 291.148 C 188.112 292.217, 189.649 292.177, 193.209 290.879 C 200.001 288.402, 201.390 285.616, 201.836 273.571 C 202.244 262.542, 200.356 211.932, 199.404 208.381 C 198.900 206.503, 199.723 205.946, 206.668 203.465 C 210.975 201.927, 215.287 199.998, 216.250 199.179 C 218.598 197.181, 218.524 192.351, 216.126 191.067 C 214.347 190.115, 207.816 190.733, 200.750 192.521 C 198.014 193.213, 197.999 193.190, 197.899 187.858 C 197.843 184.911, 197.879 181.015, 197.980 179.200 C 198.162 175.901, 196.649 173, 194.746 173 C 194.190 173, 192.253 174.572, 190.441 176.494 M 90.100 198.642 C 88.022 200.098, 87.821 200.837, 88.330 205.141 C 89.110 211.721, 92.359 218.741, 96.678 223.174 C 101.027 227.638, 104.350 228.656, 107.606 226.523 C 110.642 224.533, 110.645 221.920, 107.614 218.318 C 106.302 216.759, 104.017 212.562, 102.537 208.992 C 100.094 203.100, 95.384 197, 93.277 197 C 92.819 197, 91.390 197.739, 90.100 198.642 M 69.960 210.810 C 64.628 212.456, 63.594 217.813, 67.436 223.899 C 73.703 233.826, 86.039 234.787, 85.118 225.276 C 85.053 224.602, 83.713 223.386, 82.141 222.573 C 80.568 221.760, 78.731 219.764, 78.057 218.138 C 76.512 214.408, 71.882 210.218, 69.960 210.810 M 35.145 213.611 C 30.040 217.187, 33.509 223.139, 44 228.805 C 53.669 234.027, 60 233.889, 60 228.455 C 60 225.921, 59.422 225.273, 52.500 220.053 C 50.300 218.394, 47.375 216.174, 46 215.120 C 42.498 212.435, 37.764 211.777, 35.145 213.611 M 143.500 227.655 C 142.400 227.888, 140.476 228.297, 139.225 228.564 C 133.690 229.748, 131.189 236.051, 134.916 239.424 C 136.577 240.927, 138.630 241.114, 150.347 240.829 C 162.206 240.540, 164.207 240.243, 166.681 238.401 C 170.553 235.518, 170.848 231.812, 167.420 229.116 C 165.075 227.272, 163.496 227.015, 155.115 227.116 C 149.827 227.180, 144.600 227.422, 143.500 227.655" stroke="none" fill="black" fill-rule="evenodd"/>
</svg>