<svg xmlns="http://www.w3.org/2000/svg" width="300" height="300" viewBox="0 0 300 300" version="1.1">
	<path d="M 198.701 45.750 C 194.460 50.250, 189.293 57.306, 186.434 62.500 C 185.828 63.600, 183.846 67.200, 182.030 70.500 C 180.213 73.800, 177.882 78.075, 176.849 80 C 174.512 84.356, 173.464 86.101, 169.042 93 C 162.172 103.717, 161.240 108.380, 165.632 110.050 C 169.484 111.515, 171.614 110.428, 175.175 105.183 C 176.924 102.607, 180.402 97.800, 182.905 94.500 C 185.407 91.200, 187.534 88.356, 187.630 88.181 C 187.727 88.005, 190.599 89.917, 194.013 92.431 C 199.522 96.486, 200.809 97, 205.464 97 C 209.644 97, 211.245 96.503, 213.354 94.548 C 216.438 91.690, 216.524 91.193, 214.443 88.223 C 213.311 86.606, 211.877 86, 209.180 86 C 206.600 86, 203.893 84.936, 200.276 82.500 C 197.418 80.575, 194.611 79, 194.039 79 C 192.397 79, 192.793 77.819, 196.050 73 C 197.722 70.525, 199.736 67.150, 200.525 65.500 C 201.314 63.850, 202.371 61.825, 202.875 61 C 203.378 60.175, 204.246 57.025, 204.804 54 C 205.612 49.615, 205.527 48.044, 204.386 46.250 C 202.666 43.548, 200.921 43.394, 198.701 45.750 M 241.189 47.299 C 239.967 48.600, 238.037 52.309, 236.901 55.540 C 234.083 63.558, 232.806 65.919, 224.874 77.775 C 221.093 83.427, 218 88.849, 218 89.825 C 218 94.732, 225.092 95.558, 228.969 91.102 C 231.426 88.278, 231.451 88.273, 233.969 90.126 C 235.361 91.151, 239.025 92.873, 242.111 93.954 C 251.310 97.177, 257.821 94.855, 256.265 88.905 C 255.700 86.746, 248.924 84.036, 242.250 83.300 C 239.363 82.981, 237 82.603, 237 82.461 C 237 82.318, 238.636 79.793, 240.636 76.850 C 246.281 68.545, 249.002 61.658, 248.985 55.721 C 248.959 46.568, 245.444 42.770, 241.189 47.299 M 139.468 63.950 C 137.653 64.686, 133.197 69.225, 129 74.612 C 126.633 77.651, 120 87.910, 120 88.533 C 120 88.843, 118.425 91.558, 116.500 94.567 C 112.742 100.443, 112.112 104.018, 114.487 105.989 C 118.091 108.980, 124.751 103.397, 133.563 90 C 135.914 86.425, 140.350 81.040, 143.419 78.034 C 149.897 71.690, 150.637 68.433, 146.365 65.073 C 143.521 62.835, 142.592 62.684, 139.468 63.950 M 72.512 66.200 C 68.975 68.274, 67.073 71.252, 59.869 86 C 55.973 93.975, 50.809 104.550, 48.393 109.500 C 43.079 120.387, 42.487 126.578, 46.388 130.479 C 50.389 134.480, 57.404 134.855, 65.352 131.491 C 66.756 130.897, 66.058 132.858, 62.460 139.604 C 59.851 144.497, 55.701 152.325, 53.237 157 C 50.773 161.675, 47.589 167.507, 46.160 169.961 C 44.182 173.358, 43.555 175.822, 43.531 180.295 C 43.503 185.576, 43.797 186.425, 46.447 188.706 C 49.056 190.952, 50.028 191.182, 54.947 190.713 C 61.469 190.092, 68.761 186.437, 76.106 180.106 C 80.124 176.644, 81.391 176.008, 82.087 177.106 C 82.572 177.873, 82.976 178.901, 82.985 179.392 C 82.993 179.883, 85.060 182.695, 87.577 185.642 C 92.554 191.467, 96.074 192.599, 98.003 188.995 C 99.161 186.830, 98.436 184.104, 93.532 172.188 C 92.103 168.717, 90.305 162.276, 89.537 157.875 C 87.955 148.814, 86.739 146.770, 83.184 147.199 C 78.944 147.712, 76.817 151.802, 76.875 159.334 L 76.926 165.955 72.713 168.835 C 67.853 172.157, 58.929 176.262, 58.185 175.518 C 57.643 174.976, 78.488 133.145, 85.103 121.500 C 87.290 117.650, 90.424 111.575, 92.067 108 C 93.709 104.425, 95.492 100.719, 96.027 99.764 C 96.562 98.809, 97 97.561, 97 96.992 C 97 96.423, 98.192 94.156, 99.649 91.954 C 101.906 88.544, 102.131 87.583, 101.171 85.475 C 100.550 84.114, 99.246 83.015, 98.271 83.033 C 94.647 83.100, 87.820 91.599, 82.106 103.159 L 76.500 114.500 68.500 117.234 C 56.004 121.506, 56.086 121.668, 62.861 106 C 66.071 98.575, 71.095 87.642, 74.026 81.704 C 78.547 72.541, 79.210 70.499, 78.406 68.213 C 77.331 65.157, 75.410 64.500, 72.512 66.200 M 145.174 91.291 C 144.584 92.001, 143.619 94.740, 143.028 97.377 C 140.826 107.202, 131.737 120.922, 117.723 135.574 C 112.724 140.801, 108.011 145.967, 107.249 147.054 C 104.216 151.385, 108.306 157.182, 112.652 154.712 C 116.762 152.377, 129.540 141.763, 133.792 137.153 L 138.083 132.500 136.431 136.484 C 132.927 144.927, 131.886 163.897, 132.561 207 C 133.009 235.640, 132.863 248.928, 132.065 252.376 C 131.122 256.447, 131.192 257.644, 132.491 259.626 C 135.259 263.851, 141.137 262.228, 142.875 256.758 C 145.249 249.286, 145.914 234.748, 146.199 184.074 L 146.500 130.648 143.661 129.488 L 140.822 128.327 144.937 123.573 C 147.200 120.958, 149.899 117.157, 150.935 115.127 C 153.597 109.910, 155.111 100.873, 153.982 96.938 C 152.286 91.022, 147.789 88.139, 145.174 91.291 M 215.409 113.497 L 212.714 115.994 212.916 154.010 L 213.117 192.027 207.316 189.461 C 200.391 186.399, 194.053 185.366, 191.284 186.848 C 189.306 187.907, 189.257 187.590, 188.740 170.214 C 188.155 150.598, 187.154 146, 183.470 146 C 182.062 146, 180.366 147.090, 179.194 148.750 C 175.793 153.564, 175.094 160.244, 175.713 182.026 C 176.362 204.883, 174.611 220.929, 170.898 226.143 C 167.500 230.915, 168.960 235, 174.065 235 C 177.742 235, 181.651 231.656, 183.999 226.503 C 185.894 222.343, 189 205.264, 189 199.007 C 189 194.867, 191.942 195.016, 199 199.512 C 205.369 203.569, 224.487 213, 226.341 213 C 227.034 213, 228.028 213.396, 228.550 213.881 C 230.056 215.278, 246.686 220.577, 256 222.628 C 278.226 227.523, 295.919 223.191, 291.028 214.052 C 290.020 212.169, 289.001 212, 278.625 212 C 265.841 212, 251.637 208.927, 237 202.993 C 233.975 201.767, 230.150 200.292, 228.500 199.716 L 225.500 198.668 225.782 157.949 L 226.064 117.229 223.443 114.115 C 220.273 110.347, 218.919 110.243, 215.409 113.497 M 243.571 149.571 C 242.707 150.436, 242 151.519, 242 151.980 C 242 152.440, 240.003 154.079, 237.563 155.623 C 235.123 157.167, 232.195 160.088, 231.056 162.114 C 227.426 168.573, 230.406 171.134, 238.265 168.308 C 248.376 164.672, 253.802 157.048, 250.865 150.604 C 249.501 147.609, 246.025 147.118, 243.571 149.571 M 83.750 207.080 C 80.031 209.246, 82.157 216.693, 87.282 219.453 C 90.323 221.090, 91.182 221.167, 93.889 220.046 C 95.600 219.337, 97 218.146, 97 217.400 C 97 216.029, 87.427 205.974, 86.176 206.030 C 85.804 206.047, 84.713 206.519, 83.750 207.080 M 34 208.786 C 29.435 210.232, 27.775 214.733, 30.116 219.316 C 31.738 222.493, 40.055 230.923, 43.200 232.578 C 46.498 234.314, 51.178 234.422, 52.800 232.800 C 54.684 230.916, 54.260 226.209, 52.101 225.054 C 51.057 224.495, 47.912 221.160, 45.113 217.641 C 39.536 210.633, 36.303 208.056, 34 208.786 M 56.420 211.520 C 54.527 215.034, 54.527 215.045, 56.927 219.569 C 61.133 227.497, 69.152 231.127, 73.924 227.263 C 77.041 224.739, 76.196 220.338, 72.412 219.389 C 70.567 218.925, 69.145 217.249, 67.310 213.373 C 65.008 208.512, 64.459 208, 61.540 208 C 58.876 208, 57.985 208.613, 56.420 211.520" stroke="none" fill="black" fill-rule="evenodd"/>
</svg>