<svg xmlns="http://www.w3.org/2000/svg" width="300" height="300" viewBox="0 0 300 300" version="1.1">
	<path d="M 212.189 36.039 C 210.974 37.170, 210 39.288, 210 40.796 C 210 42.290, 209.539 45.085, 208.976 47.007 C 206.303 56.125, 205.933 64.562, 207.471 81.343 C 208.312 90.522, 209 100.226, 209 102.907 C 209 107.734, 208.966 107.785, 205.496 108.190 C 202.518 108.538, 202.076 108.336, 202.549 106.844 C 204.949 99.285, 204.719 91.846, 201.423 70.321 C 200.686 65.512, 197.886 62.561, 194.795 63.337 C 190.277 64.471, 189.466 68.493, 189.802 88.103 C 190.092 105.058, 190.018 105.834, 187.802 109.180 C 185.748 112.279, 184.751 112.793, 178.552 113.941 C 174.731 114.649, 169.793 115.867, 167.580 116.648 C 160.601 119.110, 156.232 124.587, 158.222 128.379 C 159.117 130.083, 160.012 130.194, 167.854 129.569 C 172.609 129.191, 180.775 127.850, 186 126.590 C 199.120 123.427, 208.110 121.777, 208.748 122.415 C 209.043 122.710, 208.658 123.706, 207.893 124.628 C 206.782 125.965, 206.436 132.799, 206.182 158.402 C 206.006 176.056, 206.156 192.900, 206.514 195.832 C 207.503 203.936, 211.777 207.223, 215.928 203.072 C 217.907 201.093, 218.479 198.203, 219.552 184.750 C 220.130 177.511, 220.322 177, 222.469 177 C 223.857 177, 226.114 175.510, 228.168 173.236 C 230.039 171.165, 235.490 166.862, 240.283 163.673 C 245.075 160.484, 249.447 157.033, 249.998 156.003 C 251.547 153.109, 251.187 149.480, 249.171 147.655 C 246.565 145.296, 244.554 145.586, 239.841 149 C 237.564 150.650, 235.060 152, 234.278 152 C 231.943 152, 224.197 156.963, 222.056 159.831 L 220.063 162.500 220.017 148.500 C 219.970 134.370, 218.122 122.311, 215.781 120.864 C 215.152 120.476, 216.407 119.887, 218.569 119.554 C 225.220 118.532, 238.230 114.793, 243.686 112.335 C 246.538 111.051, 249.367 110, 249.971 110 C 253.225 110, 261 103.337, 261 100.548 C 261 94.569, 254.364 91.995, 249.273 96 C 247.874 97.100, 246.003 98, 245.115 98.001 C 244.227 98.001, 241.067 98.926, 238.093 100.056 C 235.119 101.187, 230.619 102.526, 228.093 103.032 C 225.567 103.539, 222.580 104.217, 221.456 104.540 C 219.484 105.105, 219.437 104.865, 220.144 97.813 C 220.547 93.791, 220.904 87.999, 220.938 84.943 L 221 79.386 228.250 77.548 C 237.522 75.198, 249.584 69.646, 250.946 67.101 C 252.463 64.267, 250.702 60.393, 247.535 59.598 C 243.019 58.465, 233.378 61.754, 225.339 67.170 L 221.177 69.974 220.457 61.323 C 220.060 56.565, 219.983 49.414, 220.284 45.431 C 220.781 38.852, 220.628 37.999, 218.601 36.095 C 215.825 33.487, 214.936 33.479, 212.189 36.039 M 143.465 54.648 C 141.189 56.124, 136.830 60.916, 133.465 65.641 C 130.184 70.248, 124.784 77.726, 121.466 82.259 C 108.028 100.610, 106.839 102.598, 107.179 106.145 C 107.473 109.213, 107.812 109.526, 111.150 109.804 C 114.580 110.090, 115.088 109.729, 119.594 103.804 C 122.230 100.337, 126.576 95.074, 129.250 92.108 C 134.695 86.070, 148 67.775, 148 66.326 C 148 65.811, 149.125 63.864, 150.500 62 C 154.428 56.676, 153.561 51.949, 148.668 52.016 C 148.026 52.025, 145.684 53.209, 143.465 54.648 M 76.262 60.817 C 75.581 61.250, 74.588 63.898, 74.056 66.702 C 73.099 71.752, 67.167 81.967, 59.832 91.198 C 53.863 98.710, 46.925 109.941, 38.961 124.982 C 35.844 130.870, 35 133.548, 35 137.557 C 35 147.667, 42.850 150.301, 54.352 144.051 C 57.571 142.302, 60.388 141.055, 60.613 141.280 C 60.838 141.505, 60.004 143.233, 58.761 145.122 C 53.834 152.602, 44.898 173.047, 43.145 180.850 C 42.345 184.409, 42.513 185.392, 44.322 187.750 C 47.418 191.786, 48.120 192.127, 52.308 191.628 C 59.328 190.792, 68.771 185.214, 73.859 178.899 C 76.412 175.731, 78.783 173.107, 79.129 173.069 C 79.475 173.031, 80.230 176.177, 80.806 180.060 C 82.010 188.169, 83.151 190, 87 190 C 91.976 190, 92.449 188.279, 91.067 175.213 C 89.772 162.978, 88.044 157.629, 84.832 155.910 C 81.962 154.374, 79.782 155.507, 73.875 161.603 C 70.919 164.654, 66.585 168.490, 64.244 170.127 L 59.988 173.104 61.921 168.302 C 64.920 160.850, 68.140 154.618, 76.541 140 C 86.560 122.567, 95 106.083, 95 103.950 C 95 103.026, 95.900 101.126, 97 99.727 C 99.571 96.458, 99.529 94.484, 96.849 92.607 C 94.972 91.292, 94.266 91.280, 91.314 92.513 C 86.351 94.587, 85.595 95.629, 79.130 109.308 L 73.232 121.785 69.175 122.470 C 66.944 122.847, 61.992 124.654, 58.170 126.486 C 51.606 129.632, 51.259 129.696, 51.878 127.658 C 53.324 122.903, 59.335 112.565, 67.088 101.500 C 70.171 97.100, 74.289 91.211, 76.239 88.414 C 80.475 82.337, 86 70.105, 86 66.805 C 86 61.587, 80.436 58.166, 76.262 60.817 M 143.071 94.750 C 138.449 99.510, 131.999 107.413, 122.055 120.500 C 119.129 124.350, 116.233 127.950, 115.618 128.500 C 115.003 129.050, 113.265 131.321, 111.755 133.546 C 110.245 135.772, 106.762 140.047, 104.014 143.046 C 101.266 146.046, 98.752 149.309, 98.426 150.298 C 97.651 152.654, 99.671 155, 102.473 155 C 105.912 155, 117.363 145.728, 124.797 136.923 C 130.912 129.680, 131.528 129.208, 131.821 131.536 C 131.997 132.939, 130.985 137.115, 129.571 140.815 L 127 147.542 126.994 192.021 C 126.988 236.612, 126.378 246.820, 123.530 249.967 C 121.280 252.453, 121.620 256.621, 124.223 258.443 C 127.405 260.672, 129.548 260.381, 133.004 257.250 C 138.484 252.285, 138.957 247.316, 139.981 184 L 140.895 127.500 138.784 125.707 L 136.673 123.915 138.828 121.207 C 146.218 111.923, 153 99.446, 153 95.135 C 153 93.320, 150.098 90, 148.512 90 C 148.056 90, 145.607 92.138, 143.071 94.750 M 179.500 155.945 C 176.460 157.190, 174.460 159.829, 170.022 168.458 C 164.892 178.429, 164.274 182.827, 163.601 214.086 C 163.214 232.076, 163.384 238.984, 164.236 239.836 C 166.160 241.760, 171.788 241.264, 172.965 239.066 C 175.204 234.881, 177 222.389, 177 210.994 C 177 204.314, 177.429 198.853, 177.980 198.512 C 178.520 198.179, 180.330 200.132, 182.004 202.852 C 187.320 211.492, 201.570 221.632, 223 232.022 C 238.906 239.735, 259.996 245, 274.980 245 L 285.200 245 288.547 241.653 C 292.119 238.081, 292.294 235.469, 289.150 232.649 C 287.707 231.355, 286.998 231.349, 283.500 232.601 C 279.133 234.163, 273.614 233.812, 263.500 231.327 C 260.200 230.516, 255.558 229.444, 253.185 228.944 C 250.812 228.445, 246.817 227.128, 244.308 226.018 C 241.799 224.908, 239.326 224, 238.813 224 C 237.407 224, 221.425 216.235, 215.611 212.726 C 209.919 209.291, 195.861 198.879, 192 195.238 C 188.496 191.935, 183 189.772, 179.737 190.413 C 177.293 190.892, 177.028 190.697, 177.446 188.728 C 177.706 187.502, 178.625 182.901, 179.489 178.503 C 180.352 174.104, 182.378 167.820, 183.991 164.539 C 186.710 159.008, 186.806 158.443, 185.307 156.787 C 183.547 154.842, 182.549 154.698, 179.500 155.945 M 83 205.729 C 80.630 206.631, 80.032 208.156, 80.015 213.332 C 80.002 217.416, 80.560 218.847, 83.620 222.582 C 86.520 226.121, 87.874 227, 90.420 227 C 96.249 227, 97.493 223.351, 94 216.500 C 92.900 214.342, 92 212.072, 92 211.454 C 92 210.203, 86.450 204.955, 85.259 205.079 C 84.841 205.122, 83.825 205.415, 83 205.729 M 50.077 210.589 C 45.983 214.033, 45.957 218.260, 49.995 223.834 C 57.470 234.153, 71 236.771, 71 227.898 C 71 225.603, 70.262 224.664, 67.247 223.126 C 63.940 221.439, 58 214.280, 58 211.982 C 58 210.888, 55.103 208, 54.005 208 C 53.537 208, 51.769 209.165, 50.077 210.589 M 17.455 221.455 C 13.727 225.182, 14.057 230.698, 18.250 234.742 C 22.519 238.860, 25.806 240, 33.410 240 C 38.224 240, 40.076 239.573, 41.345 238.171 C 44.913 234.229, 42.626 229, 37.333 229 C 33.062 229, 28.335 226.297, 25.205 222.064 C 22.466 218.358, 20.690 218.219, 17.455 221.455" stroke="none" fill="black" fill-rule="evenodd"/>
</svg>