<svg xmlns="http://www.w3.org/2000/svg" width="300" height="300" viewBox="0 0 300 300" version="1.1">
	<path d="M 101.725 9.752 C 98.577 13.230, 97.955 16.701, 99.190 23.904 C 100.376 30.818, 100.011 36.362, 96.814 60 C 96.182 64.675, 95.627 69.925, 95.582 71.666 C 95.503 74.728, 95.324 74.854, 90.166 75.498 C 87.232 75.865, 84.616 75.950, 84.353 75.686 C 84.090 75.423, 84.346 72.573, 84.922 69.354 C 85.588 65.633, 85.665 59.946, 85.133 53.746 C 84.415 45.377, 83.967 43.706, 81.979 41.982 C 79.443 39.783, 76.362 40.106, 74.250 42.792 C 72.690 44.777, 72.641 45.355, 72.564 62.780 C 72.494 78.454, 72.302 78.956, 66.372 78.985 C 64.652 78.993, 61.545 79.710, 59.469 80.577 C 57.393 81.445, 53.241 82.554, 50.242 83.042 C 43.509 84.138, 42 85.329, 42 89.552 C 42 92.768, 42.155 92.890, 47.689 94.039 C 53.608 95.268, 58.040 94.963, 69 92.572 C 74.915 91.281, 91.237 88.895, 103.250 87.564 C 107.690 87.073, 109.411 88.010, 106.907 89.557 C 106.245 89.967, 105.950 92.646, 106.157 96.366 L 106.500 102.500 103 102.770 C 101.075 102.918, 96.350 103.711, 92.500 104.532 C 88.650 105.353, 83.025 106.448, 80 106.966 C 68.731 108.896, 59.372 111.186, 55.177 113.041 C 51.688 114.583, 50.917 115.386, 51.177 117.201 C 51.355 118.438, 52.625 120.017, 54 120.710 C 57.709 122.580, 70.240 122.264, 79.952 120.057 C 93.511 116.976, 103.859 115, 106.441 115 C 108.474 115, 108.922 115.624, 109.488 119.250 C 109.853 121.588, 110.782 125.975, 111.554 129 C 112.325 132.025, 114.547 141.250, 116.492 149.500 C 120.306 165.683, 121.795 171.168, 128.067 192.145 L 132.147 205.791 129.951 210.145 C 119.641 230.587, 112.215 241.391, 105.750 245.359 C 102.296 247.478, 102.073 251.346, 105.283 253.450 C 111.701 257.655, 126.025 244.719, 135.401 226.250 C 137.057 222.989, 138.996 221.913, 139.005 224.250 C 139.011 226.032, 149.333 247.032, 154.845 256.477 C 160.300 265.824, 166.042 272, 169.277 272 C 173.541 272, 176 269.309, 176 264.643 C 176 260.130, 174.680 258, 171.882 258 C 170.936 258, 169.283 256.537, 168.206 254.750 C 164.080 247.897, 156.173 232.105, 152.309 223 C 144.977 205.724, 145.143 208.003, 150.257 194.969 C 152.732 188.661, 155.755 179.900, 156.973 175.500 C 158.192 171.100, 159.875 165.250, 160.714 162.500 C 163.104 154.663, 163.569 145.717, 161.667 144.139 C 160.803 143.422, 159.287 142.989, 158.298 143.177 C 155.925 143.629, 150.311 152.109, 148.918 157.346 C 148.310 159.631, 145.945 167.469, 143.662 174.765 L 139.511 188.030 138.197 183.265 C 137.474 180.644, 136.035 175.350, 134.998 171.500 C 133.961 167.650, 132.181 161.125, 131.043 157 C 129.905 152.875, 128.560 147.475, 128.054 145 C 127.548 142.525, 126.020 135.775, 124.658 130 C 123.296 124.225, 122.029 117.930, 121.841 116.011 C 121.501 112.533, 121.515 112.520, 126.500 111.735 C 140.691 109.502, 148.008 107.649, 149.606 105.883 C 150.543 104.847, 152.050 104, 152.955 104 C 155.334 104, 157 101.977, 157 99.088 C 157 95.811, 149.456 88, 146.292 88 C 143.037 88, 139.698 91.639, 140.259 94.576 C 140.567 96.185, 140.194 97.096, 139.107 97.389 C 134.749 98.562, 120.871 100.165, 119.528 99.649 C 118.460 99.239, 118 97.660, 118 94.399 C 118 90.957, 117.468 89.273, 115.971 87.975 C 113.991 86.257, 114.094 86.189, 120.303 85.108 C 123.801 84.498, 127.870 84, 129.345 84 C 133.490 84, 146.210 80.215, 149 78.151 C 151.928 75.985, 152.591 72.284, 150.529 69.607 C 149.102 67.755, 148.671 67.771, 130.785 70.361 C 120.728 71.817, 110.797 73.007, 108.715 73.004 C 105.186 73, 105.005 72.859, 106.048 70.910 C 106.663 69.761, 108.166 64.923, 109.388 60.160 L 111.610 51.500 116.555 50.616 C 119.275 50.130, 124.425 48.723, 128 47.490 C 135.705 44.831, 137.549 42.012, 134.563 37.456 C 132.927 34.958, 132.447 34.808, 128.147 35.446 C 125.591 35.825, 121.221 36.468, 118.436 36.875 L 113.372 37.615 112.125 25.057 C 111.002 13.760, 110.627 12.274, 108.383 10.250 C 105.382 7.543, 103.829 7.427, 101.725 9.752 M 259.917 44.413 C 259.688 44.639, 254.532 45.023, 248.460 45.265 C 236.489 45.742, 233.350 46.758, 232.422 50.457 C 230.828 56.804, 235.407 59.617, 245.798 58.674 C 249.484 58.339, 255.467 57.767, 259.093 57.403 L 265.687 56.740 266.336 63.620 C 266.693 67.404, 266.989 82.826, 266.993 97.890 L 267 125.281 264.250 127.924 L 261.500 130.567 260.500 127.534 C 259.673 125.024, 257.858 123.679, 250 119.754 C 235.974 112.747, 231.239 112.448, 228.070 118.370 C 226.291 121.694, 227.977 125.415, 231.884 126.786 C 233.323 127.291, 236.750 128.493, 239.500 129.457 C 248.499 132.610, 255.086 134.106, 257.313 133.502 C 259.055 133.029, 258.787 133.548, 256 136.048 C 254.075 137.775, 250.925 140.217, 249 141.476 C 247.075 142.734, 244.375 144.770, 243 146 C 241.625 147.230, 238.838 149.298, 236.806 150.595 C 231.823 153.778, 226 159.713, 226 161.610 C 226 163.503, 231.346 169.004, 233.173 168.991 C 236.242 168.969, 245.354 162.511, 255.573 153.115 L 266.500 143.069 266.760 190.691 C 266.903 216.884, 266.807 238.526, 266.548 238.786 C 266.288 239.045, 263.908 237.866, 261.257 236.165 C 255.906 232.731, 252.868 232.800, 251.231 236.392 C 249.109 241.050, 255.416 249.094, 264.250 252.996 C 268.745 254.981, 269.184 255.007, 272.423 253.470 C 277.848 250.895, 279.200 246.745, 280.231 229.500 C 281.229 212.810, 280.337 94.579, 279.024 69.378 C 278.099 51.646, 277.066 48.120, 272.033 45.517 C 269.392 44.151, 260.957 43.382, 259.917 44.413 M 201 48.475 C 180.444 53.224, 175.536 55.262, 172.929 60.132 C 172.311 61.288, 172.662 62.572, 174.095 64.393 C 175.690 66.422, 177.028 67, 180.122 67 C 182.310 67, 185.314 66.391, 186.800 65.647 C 190.101 63.994, 207.747 59.386, 208.297 60.034 C 208.515 60.290, 208.335 63.875, 207.896 68 C 207.457 72.125, 206.780 85.951, 206.390 98.725 C 205.696 121.493, 205.635 121.995, 203.290 124.197 L 200.898 126.444 198.377 123.222 C 195.351 119.356, 193.865 119.263, 183.640 122.304 C 172.150 125.721, 166.949 131.807, 171.571 136.429 C 173.769 138.626, 177.871 138.389, 185.205 135.640 C 188.667 134.342, 192.400 132.947, 193.500 132.540 C 194.600 132.133, 190.418 136.631, 184.206 142.534 C 172.183 153.962, 169.466 157.735, 170.446 161.642 C 171.182 164.573, 174.946 166.481, 178.320 165.635 C 179.774 165.269, 185.598 159.653, 192.505 151.952 C 198.950 144.768, 204.348 139.027, 204.502 139.195 C 204.655 139.363, 204.407 149.625, 203.951 162 C 203.495 174.375, 202.819 193.877, 202.448 205.337 C 202.077 216.797, 201.457 225.797, 201.071 225.337 C 200.684 224.877, 199.529 222.475, 198.503 220 C 194.420 210.150, 189.630 206.370, 185.926 210.074 C 183.400 212.600, 183.496 214.841, 186.407 221.223 C 187.731 224.125, 189.869 229.407, 191.157 232.959 C 194.015 240.838, 201.186 249, 205.251 249 C 210.006 249, 213.033 247.161, 214.708 243.256 C 216.085 240.046, 216.432 231.868, 217.095 187 C 217.521 158.125, 218.318 127.075, 218.864 118 C 219.411 108.925, 220.172 90.609, 220.555 77.299 L 221.251 53.097 218.203 50.049 C 214.738 46.584, 210.761 46.221, 201 48.475 M 41.290 116.216 C 39.280 118.380, 39.147 119.737, 38.754 142 C 38.505 156.137, 37.664 170.480, 36.642 178 C 35.709 184.875, 34.254 195.675, 33.409 202 C 32.565 208.325, 31.037 218.225, 30.013 224 C 28.989 229.775, 27.395 239, 26.469 244.500 C 23.941 259.531, 22.065 266.937, 19.304 272.799 C 16.365 279.040, 16.772 282.654, 20.523 283.595 C 28.232 285.530, 35.632 269.326, 39.974 241 C 41.245 232.714, 42.985 222.423, 44.624 213.500 C 45.432 209.100, 46.505 201.225, 47.007 196 C 47.510 190.775, 48.380 183.350, 48.941 179.500 C 49.502 175.650, 49.969 169.672, 49.980 166.215 C 49.999 160.313, 50.118 159.993, 51.934 160.965 C 54.450 162.311, 60.126 162.287, 63.685 160.914 C 65.233 160.317, 68.525 159.503, 71 159.106 L 75.500 158.383 75.723 172.046 C 75.907 183.287, 76.312 186.561, 78.009 190.520 C 79.143 193.166, 80.799 195.864, 81.690 196.515 C 83.148 197.582, 82.934 198.580, 79.521 206.599 C 68.144 233.333, 55.128 259.119, 50.092 264.903 C 47.780 267.558, 47.341 271.941, 49.200 273.800 C 50.663 275.263, 54.465 275.357, 57.012 273.993 C 61.297 271.700, 71.557 255.850, 79.664 239 C 87.463 222.790, 98 197.831, 98 195.567 C 98 194.770, 98.399 193.871, 98.887 193.570 C 99.374 193.269, 100.090 191.330, 100.477 189.261 C 100.864 187.192, 102.008 182.800, 103.019 179.500 C 104.030 176.200, 105.614 170.155, 106.539 166.067 C 108.144 158.973, 108.139 158.575, 106.419 157.317 C 105.428 156.593, 104.141 156.015, 103.559 156.033 C 101.394 156.101, 98.253 159.706, 97.016 163.542 C 96.314 165.719, 95.413 167.950, 95.015 168.500 C 94.617 169.050, 92.988 172.875, 91.395 177 L 88.500 184.500 88 172.952 C 87.620 164.184, 87.071 160.751, 85.719 158.689 C 83.727 155.654, 82.940 156.331, 92.500 152.856 C 102.658 149.164, 106 146.848, 106 143.500 C 106 140.864, 103.073 137.991, 100.421 138.024 C 98.439 138.048, 92.142 139.675, 74 144.851 C 68.225 146.498, 61.475 148.158, 59 148.539 C 56.525 148.920, 53.726 149.639, 52.780 150.135 C 51.202 150.964, 51.106 150.396, 51.624 143.269 C 52.365 133.065, 50.725 120.449, 48.221 117.092 C 45.670 113.672, 43.866 113.444, 41.290 116.216 M 63.635 166.073 C 61.783 167.529, 60.997 169.089, 60.989 171.323 C 60.979 174.435, 60.128 177.540, 56.048 189.371 C 54.156 194.856, 54.146 200, 56.027 200 C 56.472 200, 57.485 200.249, 58.278 200.553 C 60.406 201.370, 65.442 196.672, 68.252 191.249 C 74.195 179.779, 75.385 170.293, 71.430 165.922 C 69.189 163.446, 66.918 163.490, 63.635 166.073" stroke="none" fill="black" fill-rule="evenodd"/>
</svg>