<svg xmlns="http://www.w3.org/2000/svg" width="300" height="300" viewBox="0 0 300 300" version="1.1">
	<path d="M 132.655 19.829 C 130.651 22.044, 130.597 24.388, 132.345 33.500 C 133.779 40.981, 136.626 47.473, 139.644 50.143 C 140.665 51.046, 143.840 52.606, 146.700 53.609 C 151.195 55.186, 152.656 55.275, 157.474 54.265 C 160.539 53.622, 164.819 51.837, 166.983 50.298 C 171.612 47.008, 181.697 32.130, 182.615 27.239 C 183.543 22.291, 181.731 19, 178.077 19 C 173.998 19, 170.673 22.383, 167.876 29.379 C 165.173 36.139, 159.149 43.495, 155.583 44.390 C 149.184 45.996, 144.584 39.880, 143.356 28.133 C 142.655 21.429, 140.374 18, 136.616 18 C 135.348 18, 133.565 18.823, 132.655 19.829 M 185.500 54.643 C 181.548 55.746, 172.745 55.983, 143.500 55.772 C 103.737 55.486, 100.671 55.795, 95.463 60.622 C 92.343 63.513, 92.074 68.571, 94.991 69.497 C 96.086 69.845, 97.389 69.877, 97.887 69.570 C 99.883 68.336, 126.212 67.162, 139.307 67.722 C 152.369 68.280, 153.062 68.409, 150.371 69.780 C 145.959 72.028, 143.166 74.967, 142.482 78.080 C 141.683 81.720, 140.229 82.114, 127.414 82.167 C 118.356 82.204, 116.510 82.490, 114.895 84.105 C 112.593 86.407, 112.487 88.822, 114.557 91.777 C 116.030 93.882, 116.810 94, 129.196 94 L 142.279 94 141.710 98.797 C 141.398 101.435, 140.618 104.744, 139.977 106.151 C 138.685 108.986, 141.546 108.606, 103.500 110.999 C 95.250 111.518, 84.293 112.489, 79.151 113.157 C 71.219 114.188, 69.573 114.722, 68.286 116.686 C 66.929 118.757, 66.932 119.247, 68.317 121.361 C 69.168 122.660, 71.168 123.984, 72.761 124.302 C 75.862 124.922, 96.311 123.868, 117.500 121.994 C 134.666 120.477, 140.362 120.844, 140.847 123.500 C 141.048 124.600, 142.065 127.388, 143.106 129.695 C 144.148 132.002, 145 134.316, 145 134.837 C 145 136.344, 130.526 141.343, 122.742 142.523 C 116.029 143.542, 113.880 150.863, 119.651 153.057 C 123.668 154.585, 127.121 154.175, 137 151 C 142.134 149.350, 146.371 148, 146.417 148 C 146.463 148.001, 146.430 170.613, 146.345 198.250 C 146.204 244.113, 145.094 276.240, 143.597 277.736 C 143.276 278.058, 142.187 277.574, 141.177 276.661 C 138.795 274.504, 136.710 274.558, 134.655 276.829 C 132.526 279.182, 132.570 280.114, 135.038 284.849 C 137.618 289.798, 139.858 291.822, 143.581 292.566 C 147.263 293.303, 151.619 290.156, 153.651 285.292 C 156.523 278.420, 157.963 262.081, 157.982 236.166 L 158 210.832 161.750 213.795 C 173.579 223.141, 183.597 228.677, 206.500 238.527 C 221.307 244.896, 228.094 246.924, 237 247.642 C 249.724 248.669, 255.988 244.081, 255.996 233.729 C 255.999 229.675, 255.643 228.794, 253.626 227.876 C 250.335 226.376, 247.264 228.198, 246.214 232.273 C 245.201 236.203, 243.070 236.693, 234.555 234.953 C 223.284 232.651, 188.892 218.317, 172.185 208.958 C 166.251 205.634, 165.088 204.599, 166.023 203.472 C 166.657 202.709, 171.356 199.121, 176.465 195.499 C 196.476 181.314, 207.474 165.358, 201.171 159.655 C 197.347 156.194, 192.916 158.141, 190.094 164.521 C 188.028 169.190, 179.139 178.720, 170.500 185.527 C 167.750 187.693, 163.819 191.274, 161.764 193.483 L 158.028 197.500 158.022 175 C 158.017 156.681, 158.354 151.087, 159.835 144.899 C 161.870 136.397, 161.350 133.377, 157.696 132.460 C 155.899 132.009, 155.051 130.820, 154.286 127.680 C 153.725 125.381, 152.955 122.768, 152.574 121.874 C 151.799 120.055, 159.349 119.486, 202 118.148 C 221.714 117.529, 223.895 117.280, 228.254 115.146 C 234.004 112.330, 235.272 109.182, 232.274 105.163 C 229.874 101.945, 227.760 101.383, 225.721 103.422 C 224.189 104.954, 213.245 105.728, 165.628 107.674 C 150.212 108.304, 149.786 108.268, 150.777 106.411 C 151.338 105.360, 152.115 101.953, 152.503 98.839 C 153.302 92.427, 153.883 92.037, 162.685 92.014 C 169.910 91.995, 173 90.657, 173 87.548 C 173 83.882, 168.940 81.706, 160.883 81.055 L 154.008 80.500 157.029 76 C 158.691 73.525, 159.883 70.816, 159.679 69.980 C 159.373 68.729, 160.780 68.411, 167.660 68.178 C 186.321 67.546, 196 64.200, 196 58.382 C 196 56.417, 192.548 52.766, 191.027 53.124 C 190.737 53.192, 188.250 53.876, 185.500 54.643 M 99.500 186.057 C 97.300 186.512, 92.492 186.911, 88.815 186.942 C 85.138 186.974, 80.988 187.434, 79.593 187.965 C 76.162 189.269, 75.167 193.421, 77.631 196.149 C 79.374 198.078, 80.358 198.191, 92.250 197.822 C 99.263 197.604, 105 197.789, 105 198.231 C 105 199.015, 98.752 211.349, 91.188 225.500 C 85.486 236.166, 76.695 249.048, 72.112 253.453 C 67.642 257.750, 66.952 260.741, 69.829 263.345 C 73.481 266.650, 76.740 265.471, 83.905 258.250 C 91.680 250.415, 99.536 237.718, 110.626 215.063 C 119.317 197.310, 120.826 190.826, 117.127 187.127 C 115.415 185.415, 113.878 185.022, 109.250 185.115 C 106.088 185.178, 101.700 185.602, 99.500 186.057" stroke="none" fill="black" fill-rule="evenodd"/>
</svg>