<svg xmlns="http://www.w3.org/2000/svg" width="300" height="300" viewBox="0 0 300 300" version="1.1">
	<path d="M 214 17.673 C 208.886 18.642, 193.459 19.362, 165.500 19.937 C 124.232 20.785, 109.736 21.934, 107.036 24.570 C 104.297 27.245, 107.758 28.659, 120 29.867 C 145.767 32.411, 167.035 32.293, 209.629 29.370 L 218.758 28.744 215.629 35.170 C 210.241 46.237, 210.496 46.049, 198.826 47.596 C 193.147 48.349, 181.975 49.419, 174 49.973 C 166.025 50.527, 155.225 51.423, 150 51.963 C 144.775 52.504, 136.630 52.958, 131.901 52.973 C 114.885 53.027, 108.417 54.003, 104.791 57.067 C 102.041 59.390, 101.682 60.147, 102.608 61.673 C 103.950 63.885, 111.266 64.497, 133.250 64.240 C 146.283 64.087, 148 64.256, 148 65.696 C 148 68.502, 151.314 78.380, 153.176 81.124 L 154.957 83.748 150.228 84.331 C 147.628 84.651, 140.100 85.214, 133.500 85.582 C 120.798 86.290, 117.156 87.472, 114.945 91.602 C 114.279 92.847, 113.990 94.532, 114.303 95.346 C 115.195 97.672, 126.733 98.419, 142.011 97.139 C 149.488 96.513, 157.095 96, 158.917 96 C 162.208 96, 162.219 96.016, 160.615 98.465 C 159.727 99.820, 159 101.568, 159 102.348 C 159 104.356, 155.829 104.971, 145.390 104.986 C 133.121 105.005, 127.502 105.884, 125.050 108.168 C 121.666 111.321, 122.453 113.648, 127.750 116.152 C 131.915 118.121, 133.947 118.378, 144.250 118.237 L 156 118.078 156 120.959 C 156 123.785, 155.869 123.854, 149.250 124.499 C 145.537 124.860, 136.425 126.019, 129 127.073 C 121.575 128.127, 114.463 128.992, 113.195 128.995 C 110.102 129.002, 102.883 132.367, 100.638 134.848 C 98.230 137.508, 98.890 140.406, 102.010 140.871 C 103.380 141.075, 110.575 140.527, 118 139.654 C 125.425 138.781, 136 137.561, 141.500 136.944 C 147 136.327, 152.738 135.581, 154.250 135.286 C 156.951 134.759, 157 134.838, 157 139.691 C 157 142.409, 156.516 147.250, 155.925 150.449 C 154.615 157.532, 155.210 160.319, 158.333 161.742 C 164.353 164.485, 167.779 158.335, 167.938 144.500 C 167.989 140.100, 168.392 135.931, 168.833 135.235 C 169.413 134.322, 175.865 133.731, 192.068 133.107 C 220.703 132.005, 226.269 130.275, 223.157 123.445 L 221.922 120.734 195.461 121.195 C 171.824 121.607, 169.002 121.488, 169.015 120.078 C 169.047 116.824, 170.718 115.999, 178.557 115.366 C 188.646 114.552, 190 113.857, 190 109.490 C 190 104.899, 186.388 103, 177.655 103 L 171.210 103 170.838 99.103 L 170.467 95.206 175.983 94.632 C 179.018 94.316, 186 93.761, 191.500 93.398 C 204.157 92.564, 206.950 91.285, 206.985 86.307 C 207.011 82.502, 203.414 81, 194.277 81 C 189.725 81, 186 80.628, 186 80.174 C 186 79.720, 187.114 78.302, 188.475 77.024 C 191.643 74.047, 194.365 66.940, 193.803 63.110 L 193.366 60.136 200.933 59.548 C 215.337 58.427, 225.117 57.053, 227.803 55.772 C 229.992 54.728, 230.557 53.706, 230.802 50.354 C 231.094 46.357, 230.988 46.195, 227.514 45.362 L 223.923 44.500 227.212 39.638 C 232.200 32.262, 235 26.807, 235 24.462 C 235 21.966, 231.635 18.563, 227.685 17.067 C 224.349 15.803, 223.724 15.830, 214 17.673 M 78.498 25.008 C 78.104 26.247, 78.887 29.113, 80.543 32.498 C 88.409 48.577, 87.651 80.727, 77.925 143.500 C 71.543 184.691, 56.800 252.733, 51.882 263.695 C 50.847 266.002, 50 268.567, 50 269.394 C 50 270.220, 48.875 272.111, 47.500 273.595 C 46.125 275.078, 45 277.261, 45 278.446 C 45 283.570, 51.080 284.644, 55.212 280.250 C 58.598 276.649, 64.469 264.072, 66.298 256.500 C 67.095 253.200, 69.127 245.100, 70.813 238.500 C 74.648 223.484, 77.487 210.958, 79.537 200 C 80.411 195.325, 81.974 187, 83.008 181.500 C 86.598 162.420, 88.661 148.231, 94.494 102.500 C 96.736 84.923, 96.545 53.909, 94.124 42.342 C 91.290 28.804, 87.627 23, 81.914 23 C 80.010 23, 78.934 23.632, 78.498 25.008 M 176.500 62.116 C 173.200 62.483, 167.993 62.832, 164.930 62.891 L 159.359 63 161.430 69.250 C 162.568 72.688, 164.710 76.690, 166.189 78.143 L 168.878 80.787 172.983 76.020 C 176.963 71.398, 183.411 61.934, 182.801 61.609 C 182.636 61.520, 179.800 61.749, 176.500 62.116 M 185.571 155.571 C 184.707 156.436, 184 158.719, 184 160.646 C 184 163.460, 184.935 165.129, 188.755 169.134 C 192.993 173.576, 193.982 174.125, 197.842 174.178 L 202.173 174.238 198.508 177.992 C 196.248 180.306, 192.250 182.763, 188.083 184.398 C 181.666 186.915, 177 190.081, 177 191.917 C 177 194.489, 180.349 195.254, 189.516 194.775 L 199 194.279 199 197.620 C 199 200.265, 198.531 201.070, 196.750 201.482 C 195.512 201.768, 191.394 202.702, 187.598 203.558 C 173.836 206.661, 166.222 213.411, 171.750 217.608 C 174.262 219.515, 179.196 219.314, 189.785 216.876 C 194.892 215.699, 199.232 214.909, 199.430 215.119 C 199.628 215.328, 199.950 218.412, 200.145 221.970 L 200.500 228.440 190 230.636 C 184.225 231.843, 178.242 233.087, 176.704 233.400 C 173.994 233.951, 173.956 233.901, 175.454 231.762 C 179.750 225.629, 173.313 218.692, 167.885 223.604 C 166.851 224.540, 163.068 225.556, 158.806 226.044 C 154.788 226.503, 148.575 227.539, 145 228.345 C 141.425 229.151, 136.363 230.106, 133.750 230.467 L 129 231.123 129 222.629 C 129 213.373, 128.623 213.932, 135.854 212.472 C 140.773 211.480, 147.704 208.214, 148.324 206.597 C 149.252 204.179, 147.930 201.289, 145.361 200.119 C 143.105 199.091, 140.628 199.175, 131.250 200.598 C 128.549 201.007, 128 200.769, 128 199.187 C 128 197.539, 129.241 197.124, 137.250 196.093 C 142.338 195.438, 148.473 194.639, 150.884 194.317 C 156.199 193.609, 159.395 190.821, 158.419 187.745 C 156.995 183.260, 155.594 182.799, 144.480 183.160 C 138.715 183.347, 133.998 183.265, 133.999 182.977 C 133.999 182.690, 136.475 179.795, 139.500 176.545 C 145.258 170.358, 146.038 168.180, 143.429 165.571 C 141.562 163.705, 139.489 163.600, 134.899 165.142 C 130.405 166.651, 128.429 168.458, 124.393 174.750 C 122.540 177.637, 120.399 180, 119.634 180 C 118.869 180, 116.128 177.525, 113.544 174.500 C 108.454 168.541, 105.465 167.585, 101.223 170.557 C 97.827 172.935, 98.531 175.977, 103.801 181.696 L 108.589 186.892 101.672 188.128 C 91.328 189.976, 85.747 194.580, 89.040 198.548 C 90.541 200.357, 112.943 200.636, 116.212 198.887 C 118.098 197.877, 118.233 197.994, 117.660 200.137 C 117.312 201.436, 117.021 202.775, 117.014 203.112 C 117.006 203.448, 114.108 204.020, 110.573 204.382 C 99.634 205.503, 94.216 208.740, 95.398 213.450 C 96.300 217.043, 102.095 218.583, 109.956 217.317 L 116 216.343 116 225.074 L 116 233.804 112.750 234.944 C 110.963 235.570, 105.225 236.501, 100 237.012 C 88.296 238.157, 79.105 240.499, 77.366 242.779 C 75.265 245.534, 74.712 248.112, 75.956 249.351 C 77.754 251.140, 101.173 250.629, 108.644 248.637 C 112.024 247.737, 115.286 247, 115.894 247 C 116.640 247, 117 250.869, 117 258.878 C 117 268.215, 116.679 271.021, 115.500 272 C 113.240 273.876, 113.696 276.905, 116.426 278.148 C 119.893 279.728, 123.516 278.488, 126.120 274.831 C 128.130 272.009, 128.421 270.177, 128.814 257.876 L 129.254 244.085 133.877 243.429 C 136.420 243.068, 142.100 241.927, 146.500 240.893 C 157.749 238.251, 158.751 238.335, 158.231 241.876 C 157.913 244.044, 158.381 245.153, 160.127 246.376 C 163.287 248.590, 168.055 248.419, 181.267 245.620 C 187.445 244.311, 194.412 242.956, 196.750 242.608 L 201 241.976 201.173 254.738 C 201.268 261.757, 201.392 271.775, 201.450 277 C 201.584 289.196, 204.055 293.387, 210.001 291.500 C 214.041 290.217, 214.407 287.680, 214.126 262.879 L 213.858 239.257 222.179 237.111 C 236.776 233.347, 237.681 233.039, 240.365 230.928 C 243.430 228.516, 243.984 223.127, 241.429 220.571 C 239.507 218.650, 238.653 218.621, 235.200 220.361 C 233.715 221.109, 230.700 222.019, 228.500 222.383 C 226.300 222.746, 221.912 223.668, 218.750 224.432 L 213 225.820 213 218.989 L 213 212.159 216.250 211.481 C 221.572 210.372, 224 208.318, 224 204.926 C 224 202.383, 223.411 201.652, 220.323 200.361 C 218.300 199.516, 215.486 198.995, 214.068 199.203 C 211.979 199.510, 211.187 198.964, 209.887 196.322 L 208.283 193.062 211.392 192.095 C 213.101 191.564, 217.406 190.411, 220.957 189.532 C 230.685 187.126, 233.139 184.107, 228.750 179.943 C 226.799 178.092, 225.657 177.873, 220.158 178.296 L 213.817 178.784 216.854 175.642 C 220.818 171.542, 225.112 162.143, 224.350 159.232 C 223.170 154.717, 216.289 157.749, 209.555 165.752 L 206.945 168.854 204.518 166.427 C 203.183 165.092, 201.424 164, 200.609 164 C 199.795 164, 198.142 162.246, 196.938 160.103 C 193.779 154.483, 188.689 152.454, 185.571 155.571" stroke="none" fill="black" fill-rule="evenodd"/>
</svg>