<svg xmlns="http://www.w3.org/2000/svg" width="300" height="300" viewBox="0 0 300 300" version="1.1">
	<path d="M 118.851 38.809 C 117.944 39.739, 116.188 42.750, 114.948 45.500 C 110.725 54.868, 107.646 60.495, 104.571 64.467 C 99.332 71.234, 94.733 76, 93.443 76 C 91.675 76, 87.136 70.405, 82.500 62.510 C 77.976 54.806, 70.536 46.450, 67.407 45.560 C 64.788 44.815, 60 48.376, 60 51.070 C 60 52.128, 61.484 54.683, 63.298 56.747 C 65.111 58.811, 68.820 63.805, 71.539 67.845 C 76.371 75.023, 83.959 83, 85.956 83 C 86.587 83, 86.536 83.924, 85.818 85.500 C 85.192 86.875, 84.277 88, 83.785 88 C 82.829 88, 77.616 90.247, 66.757 95.338 C 61.883 97.623, 59.832 99.167, 59.359 100.906 C 58.543 103.909, 61.068 106, 65.512 106 C 68.291 106, 82.739 103.150, 88.750 101.416 C 90.702 100.853, 91.009 101.146, 91.067 103.633 C 91.104 105.210, 91.683 111.934, 92.353 118.577 L 93.571 130.653 89.535 132.258 C 87.316 133.140, 83.025 134.534, 80 135.355 C 57.200 141.548, 53.603 143.236, 54.208 147.463 C 54.889 152.218, 75.693 151.417, 88.750 146.133 L 94 144.008 94 153.288 L 94 162.569 88.250 165.257 C 69.562 173.995, 64.098 176.161, 60.169 176.393 C 55.481 176.669, 53.694 178.320, 54.641 181.500 C 55.966 185.949, 57.978 187, 65.171 187 C 71.210 187, 73.187 186.460, 81.662 182.500 C 86.959 180.025, 91.451 178, 91.646 178 C 92.972 178, 90.075 195.046, 85.952 211.500 C 84.350 217.892, 77.089 239.722, 75.475 243 C 74.798 244.375, 73.785 246.625, 73.225 248 C 72.664 249.375, 70.543 253.939, 68.512 258.143 C 65.510 264.355, 64.312 265.888, 62.113 266.327 C 60.596 266.631, 58.805 267.996, 58.033 269.438 C 56.785 271.771, 56.874 272.237, 59.003 274.504 C 62.904 278.656, 67.169 277.945, 72.798 272.204 C 77.382 267.528, 78.817 265.048, 86.511 248.500 C 90.411 240.110, 95.814 224.987, 97.942 216.500 C 101.238 203.354, 104 190.272, 104 187.809 C 104 186.309, 104.495 181.753, 105.100 177.686 L 106.200 170.290 113.113 166.945 C 116.915 165.106, 120.887 162.678, 121.939 161.550 C 124.785 158.500, 125.467 154.610, 123.501 152.644 C 121.371 150.514, 119.134 150.561, 116.564 152.792 C 115.429 153.777, 112.813 155.345, 110.750 156.276 L 107 157.968 107 148.026 L 107 138.084 111.534 135.427 C 115.828 132.911, 119 128.780, 119 125.705 C 119 124.938, 118.090 123.487, 116.978 122.480 C 114.836 120.542, 115.039 120.496, 106.927 124.748 C 106.611 124.914, 105.790 121.369, 105.102 116.871 C 104.413 112.373, 102.977 106.479, 101.911 103.774 C 100.844 101.068, 100.183 98.513, 100.440 98.097 C 100.969 97.242, 108.988 95.452, 116.500 94.512 C 119.250 94.168, 122.239 93.672, 123.142 93.410 C 125.326 92.777, 126.124 89.367, 124.780 86.416 C 123.338 83.253, 118.688 82.451, 109.085 83.710 C 104.913 84.257, 101.379 84.613, 101.232 84.501 C 101.084 84.389, 102.793 83.030, 105.028 81.481 C 113.103 75.885, 126.946 54.225, 127.771 45.895 C 128.153 42.033, 127.855 40.943, 125.925 39.145 C 123.195 36.601, 121.102 36.502, 118.851 38.809 M 184.783 44.683 C 182.616 45.252, 181.435 51.075, 182.922 53.854 C 183.530 54.990, 185.597 57.117, 187.517 58.581 C 190.603 60.934, 190.988 61.732, 190.847 65.464 C 190.641 70.924, 191.398 72, 195.445 72 C 198.246 72, 199.027 71.462, 200.386 68.599 C 203.973 61.039, 201.947 55.086, 193.289 47.750 C 188.929 44.056, 188.188 43.789, 184.783 44.683 M 213.500 73.974 C 205.425 74.558, 200.685 75.372, 183.500 79.125 C 176.255 80.707, 164.356 84.866, 160.141 87.289 C 154.690 90.424, 150.859 95.007, 151.206 97.980 C 151.589 101.262, 155.386 101.907, 158.348 99.192 C 159.763 97.895, 164.269 96.478, 171.500 95.056 C 177.550 93.867, 184.975 92.280, 188 91.531 C 202.610 87.910, 230 84.560, 230 86.395 C 230 87.603, 225.062 96.844, 224.098 97.440 C 223.581 97.759, 222.383 100.048, 221.437 102.525 C 219.798 106.818, 219.801 107.123, 221.513 109.015 C 224.714 112.552, 227.407 111.532, 232.770 104.750 C 243.477 91.210, 246.007 84.205, 242.397 78.094 C 239.416 73.049, 235.001 72.419, 213.500 73.974 M 133.039 80.189 C 131.918 81.392, 131 83.366, 131 84.574 C 131 87.958, 135.570 102.673, 139.062 110.535 C 140.047 112.754, 141.167 115.817, 141.550 117.342 C 142.943 122.893, 149.604 124.476, 152.083 119.845 C 153.183 117.789, 152.459 108.441, 151.050 106.500 C 150.650 105.950, 148.828 101.225, 147 96 C 140.729 78.070, 137.947 74.920, 133.039 80.189 M 201.500 114.506 C 189.721 116.639, 173.386 119, 170.364 119.006 C 167.155 119.012, 161.232 120.538, 159.095 121.908 C 157.362 123.020, 157.408 128.582, 159.168 130.702 C 160.269 132.029, 162.177 132.163, 171.776 131.589 C 190.797 130.452, 209.418 126.331, 214.250 122.190 C 216.259 120.468, 216.569 115.969, 214.800 114.200 C 213.365 112.765, 210.788 112.824, 201.500 114.506 M 220 139.498 C 217.092 141.027, 207.563 143.097, 190 146.016 C 183.125 147.159, 174.575 148.715, 171 149.475 C 167.425 150.235, 162.700 151.141, 160.500 151.489 C 155.652 152.256, 146.352 154.853, 143.202 156.319 C 139.878 157.867, 140.589 162.044, 144.500 163.938 C 147.901 165.584, 157.599 165.935, 163.355 164.619 C 166.933 163.801, 167.142 163.874, 166.253 165.619 C 165.726 166.654, 164.499 170.875, 163.526 175 C 162.554 179.125, 160.913 184.698, 159.879 187.383 C 158.846 190.069, 158 192.630, 158 193.074 C 158 193.518, 156.157 197.846, 153.905 202.691 C 147.921 215.563, 142.005 229.720, 140.002 235.960 C 137.885 242.558, 138.800 246.482, 142.683 247.457 C 145.488 248.161, 149 245.796, 149 243.203 C 149 242.385, 150.966 237.617, 153.370 232.608 C 155.773 227.598, 159.857 218.775, 162.446 213 C 165.034 207.225, 167.556 201.600, 168.050 200.500 C 170.045 196.059, 173.009 187.067, 174.934 179.617 C 176.909 171.973, 176.845 167.920, 174.704 165.208 C 174.096 164.437, 174.051 163.572, 174.592 163.065 C 175.779 161.953, 189.049 159, 192.860 159 L 195.824 159 196.271 189.250 C 196.658 215.493, 196.980 220.430, 198.699 226.518 C 201.972 238.108, 204.924 242.448, 213.371 248.089 C 222.600 254.252, 233.136 257, 247.552 257.002 C 269.087 257.006, 281.923 253.408, 288.958 245.395 C 291.486 242.516, 292 241.079, 292 236.894 C 292 231.281, 290.475 229, 286.723 229 C 284.853 229, 283.879 229.943, 282.430 233.154 C 280.979 236.373, 279.537 237.765, 276.029 239.334 C 266.995 243.376, 244.123 245.259, 232.799 242.893 C 226.094 241.492, 218.251 237.058, 214.939 232.796 C 209.560 225.873, 208.748 220.290, 208.272 187 L 207.836 156.500 216.104 153.610 C 225.217 150.424, 229 147.451, 229 143.474 C 229 138.507, 225.133 136.799, 220 139.498" stroke="none" fill="black" fill-rule="evenodd"/>
</svg>