<svg xmlns="http://www.w3.org/2000/svg" width="300" height="300" viewBox="0 0 300 300" version="1.1">
	<path d="M 96.381 8.765 C 94.929 9.719, 91.036 17.600, 87.476 26.791 C 84.680 34.009, 84.621 34.076, 81.576 33.414 C 79.884 33.046, 77.022 31.452, 75.215 29.872 C 69.937 25.257, 65.195 26.592, 63.646 33.129 C 62.426 38.275, 70.509 44.311, 80.250 45.529 L 85 46.123 85 51.935 L 85 57.747 75.250 60.848 C 69.888 62.554, 61.789 64.489, 57.253 65.148 C 45.893 66.797, 42.292 70.689, 46.529 76.738 C 48.901 80.124, 53.910 80.514, 64.204 78.113 C 69.218 76.944, 73.545 76.212, 73.820 76.486 C 74.094 76.761, 71.884 79.602, 68.909 82.799 C 61.336 90.939, 61.161 91.198, 54.748 103.743 C 48.637 115.697, 48.077 117.934, 50.571 120.429 C 54.265 124.122, 60.930 120.423, 64.987 112.430 C 65.805 110.819, 68.111 107.025, 70.110 104 C 72.109 100.975, 74.924 96.700, 76.365 94.500 C 77.805 92.300, 80.508 88.339, 82.371 85.699 L 85.757 80.897 86.393 86.199 C 87.510 95.511, 87.339 114.351, 86.097 118.799 C 84.618 124.094, 85.381 126.807, 88.574 127.608 C 92.358 128.558, 95.584 125.760, 97.592 119.788 C 98.947 115.755, 99.384 111.119, 99.434 100.253 C 99.471 92.417, 99.858 86.004, 100.295 86.003 C 100.733 86.001, 102.265 87.174, 103.699 88.608 C 107.352 92.261, 112.091 94.992, 114.785 94.996 C 117.171 95, 120.543 96.827, 125.327 100.707 C 128.938 103.636, 133.539 103.731, 135.050 100.907 C 136.608 97.996, 135.658 95.129, 131.544 90.322 C 126.971 84.979, 120.732 81.376, 114.487 80.471 C 111.744 80.073, 109.015 79.363, 108.422 78.894 C 107.829 78.424, 105.579 77.673, 103.422 77.225 C 99.522 76.415, 99.500 76.383, 99.500 71.648 L 99.500 66.885 107.425 63.439 C 111.784 61.543, 116.172 59.250, 117.175 58.341 C 119.506 56.232, 119.504 52.844, 117.170 49.962 L 115.340 47.702 108.203 49.870 C 104.277 51.062, 100.371 52.304, 99.522 52.630 C 98.164 53.151, 98.052 51.800, 98.593 41.361 C 98.931 34.838, 100.023 25.450, 101.019 20.500 C 102.669 12.310, 102.691 11.343, 101.261 9.750 C 99.578 7.875, 98.170 7.591, 96.381 8.765 M 115.628 24.472 C 113.399 26.389, 112.871 27.545, 113.270 29.632 C 113.553 31.111, 113.331 33.619, 112.778 35.206 C 111.969 37.528, 112.118 38.472, 113.541 40.046 C 115.535 42.249, 119.476 42.638, 120.677 40.750 C 123.150 36.860, 125.580 29.097, 124.899 27.257 C 124.224 25.430, 120.389 21.998, 119.027 22.001 C 118.737 22.002, 117.208 23.114, 115.628 24.472 M 184.447 56.839 C 166.859 65.335, 161.655 67.191, 156.346 66.865 C 152.977 66.658, 151.510 67.111, 149.527 68.975 C 144.132 74.043, 148.173 80.018, 157.518 80.793 C 163.614 81.299, 166.166 80.531, 182.256 73.353 C 187.622 70.959, 192.164 69, 192.349 69 C 192.533 69, 192.975 77.888, 193.331 88.750 C 193.686 99.612, 194.277 113.807, 194.644 120.293 L 195.311 132.085 192.245 130.326 C 189.492 128.746, 188.891 128.716, 186.357 130.033 C 184.805 130.840, 182.339 132.625, 180.878 134 C 174.736 139.781, 155.710 151.430, 152.250 151.529 C 150.449 151.580, 150 151.047, 150 148.853 C 150 144.280, 147.200 143.183, 137.011 143.764 L 128.102 144.272 127.801 137.886 C 127.503 131.568, 127.467 131.497, 124.436 131.201 C 120.775 130.843, 116.707 134.403, 114.823 139.612 L 113.598 143 106.144 143 C 99.693 143, 98.238 143.344, 95.344 145.551 C 90.633 149.144, 91.120 154.397, 96.426 157.231 L 98.801 158.500 91.842 172.925 C 84.495 188.152, 82.528 194.947, 83.567 201.500 C 84.887 209.819, 95.065 216, 107.444 216 L 113.812 216 114.442 220.750 C 115.157 226.151, 116.691 248.368, 117.653 267.250 C 118.128 276.574, 117.993 280, 117.151 280 C 115.630 280, 115.668 285.268, 117.200 286.800 C 118.905 288.505, 125.570 288.287, 127.391 286.466 C 128.234 285.623, 129.389 283.260, 129.957 281.216 C 131.211 276.699, 131.212 256.634, 129.958 245 C 129.454 240.325, 128.749 230.875, 128.392 224 L 127.743 211.500 134.159 208.364 C 146.764 202.204, 150.409 196.464, 144.271 192.442 C 141.616 190.702, 141.346 190.721, 134.409 193.115 L 127.276 195.577 126.618 183.930 C 126.256 177.524, 126.256 169.100, 126.617 165.210 L 127.274 158.137 134.949 158.318 C 142.265 158.491, 142.605 158.603, 142.207 160.690 C 141.935 162.121, 142.720 163.811, 144.471 165.562 C 148.099 169.190, 152.546 168.525, 162.572 162.853 C 169.833 158.746, 193.215 139.548, 194.328 136.780 C 195.290 134.386, 195.010 176.448, 193.991 187.500 C 191.370 215.922, 190.640 222, 189.850 222 C 189.383 222, 189 221.395, 189 220.655 C 189 218.719, 185.685 216, 183.326 216 C 181.091 216, 178 218.908, 178 221.010 C 178 221.755, 179.067 225.544, 180.372 229.432 C 181.676 233.319, 183.519 239.151, 184.467 242.391 C 187.783 253.722, 195.043 256.518, 200.937 248.732 C 202.887 246.155, 203.839 240.305, 204.961 224 C 205.510 216.025, 206.673 204.100, 207.545 197.500 C 210.292 176.719, 210.490 140.212, 208.075 100 C 206.902 80.475, 205.683 63.051, 205.366 61.281 C 205.049 59.510, 203.650 56.923, 202.258 55.531 C 198.602 51.875, 194.027 52.211, 184.447 56.839 M 241.310 59.523 C 231.358 64.632, 227 68.680, 227 72.816 C 227 79.248, 232.373 79.628, 243.421 73.977 C 247.748 71.765, 251.392 70.077, 251.519 70.227 C 253.018 71.994, 256.955 113.841, 256.985 128.330 C 256.999 134.750, 256.775 135.436, 253.250 139.750 C 247.889 146.312, 239.380 154.839, 233.016 160.028 C 229.999 162.488, 225.274 166.517, 222.516 168.982 C 219.757 171.447, 217.368 173.528, 217.207 173.608 C 217.046 173.687, 216.648 175.393, 216.323 177.399 C 215.494 182.503, 217.898 185, 223.639 185 C 227.717 185, 228.565 184.450, 238.234 175.536 C 243.880 170.330, 250.525 163.587, 253 160.551 L 257.500 155.030 258.334 163.265 C 259.366 173.456, 259.761 241.866, 258.801 244.199 C 258.159 245.760, 257.850 245.772, 254.993 244.347 C 252.133 242.920, 251.728 242.936, 249.942 244.553 C 247.570 246.700, 247.517 248.647, 249.654 255.182 C 251.682 261.382, 257.649 268, 261.210 268 C 264.258 268, 268.555 264.793, 270.372 261.162 C 273.449 255.010, 274.391 228.172, 273.125 182.732 C 271.208 113.935, 270.234 99.005, 265.869 71.500 C 263.129 54.237, 257.220 51.355, 241.310 59.523 M 167.314 123.531 C 158.088 125.218, 153.148 127.563, 152.381 130.619 C 149.938 140.350, 161.051 142.338, 176.113 134.865 C 180.963 132.459, 182 131.501, 182 129.427 C 182 126.728, 177.932 121.930, 175.795 122.108 C 175.083 122.168, 171.266 122.808, 167.314 123.531 M 227.500 129.137 C 222 130.292, 216.713 131.929, 215.750 132.774 C 213.476 134.770, 213.524 138.190, 215.866 141.082 C 217.597 143.220, 218.410 143.373, 227.116 143.200 C 242.114 142.903, 252 139.437, 252 134.477 C 252 127.603, 243.559 125.763, 227.500 129.137 M 51.692 133.409 C 50.336 134.667, 48.917 137.226, 48.540 139.098 C 48.163 140.969, 45.811 147.450, 43.314 153.500 C 39.076 163.765, 37.226 167.479, 30.609 179 C 27.190 184.953, 27.175 188.736, 30.565 190.025 C 35.592 191.936, 41.115 186.697, 49.278 172.272 C 52.359 166.826, 55.144 163.035, 56.072 163.022 C 56.936 163.010, 59.773 162.274, 62.376 161.388 C 64.979 160.501, 67.291 159.957, 67.513 160.180 C 67.736 160.403, 67.283 163.041, 66.506 166.043 C 65.729 169.044, 64.606 174.650, 64.010 178.500 C 63.415 182.350, 62.696 186.263, 62.413 187.196 C 61.676 189.629, 54.283 190.514, 48.046 188.915 C 43.379 187.719, 42.776 187.776, 40.244 189.658 C 36.412 192.506, 36.117 196.822, 39.534 200.031 C 41.898 202.253, 43.004 202.500, 50.592 202.500 C 55.795 202.500, 58.879 202.883, 58.648 203.500 C 58.442 204.050, 57.058 209.450, 55.571 215.500 C 50.810 234.882, 46.838 248.431, 45.164 251 C 44.268 252.375, 42.623 255.300, 41.509 257.500 C 40.098 260.286, 38.727 261.604, 36.991 261.841 C 32.028 262.521, 29.517 267.110, 31.980 271 C 32.662 272.077, 34.674 272.489, 39.108 272.462 C 45.237 272.425, 45.322 272.385, 49.893 267.379 C 52.427 264.604, 56.005 259.221, 57.845 255.417 C 59.684 251.612, 61.524 247.825, 61.934 247 C 63.193 244.463, 65.672 235.084, 68.544 222 C 70.053 215.125, 72.094 206.575, 73.081 203 C 74.067 199.425, 75.159 194.700, 75.507 192.500 C 75.855 190.300, 77.192 183.100, 78.477 176.500 C 83.470 150.870, 83.475 150.632, 79.217 145.750 C 76.992 143.200, 70.838 143.542, 64.912 146.545 L 59.891 149.089 60.486 143.295 C 61.155 136.790, 59.843 133.199, 56.330 131.916 C 54.718 131.327, 53.524 131.712, 51.692 133.409 M 109.849 167.253 C 104.370 178.097, 98 193.270, 98 195.477 C 98 198.186, 100.170 198.967, 107.750 198.986 L 113 199 113 180.500 C 113 170.325, 112.888 162.002, 112.750 162.003 C 112.612 162.005, 111.307 164.368, 109.849 167.253" stroke="none" fill="black" fill-rule="evenodd"/>
</svg>