<svg xmlns="http://www.w3.org/2000/svg" width="300" height="300" viewBox="0 0 300 300" version="1.1">
	<path d="M 155.500 65.585 C 133.936 66.647, 109.719 71.999, 106.193 76.482 L 104.283 78.910 102.148 76.455 C 99.572 73.493, 96.925 73.320, 94.536 75.960 C 92.480 78.232, 92.866 80.648, 96.578 88.764 C 97.910 91.676, 99 94.502, 99 95.043 C 99 95.584, 99.436 96.809, 99.969 97.764 C 100.501 98.719, 102.325 102.866, 104.022 106.980 C 107.747 116.013, 109.547 118.194, 112.948 117.797 C 114.896 117.570, 115.575 116.850, 115.816 114.753 C 116.098 112.303, 113.435 102.878, 110.941 97.500 C 109.647 94.708, 107 86.922, 107 85.906 C 107 84.551, 124.665 79.615, 136.758 77.592 C 139.996 77.050, 140.006 77.061, 138.444 79.446 C 137.107 81.486, 137.031 82.988, 137.936 89.495 C 138.521 93.702, 139 97.562, 139 98.072 C 139 98.583, 136.997 99, 134.549 99 C 120.125 99, 110.042 105.964, 118.733 109.924 C 120.768 110.851, 125.266 110.851, 138.772 109.925 C 148.350 109.268, 162.733 108.953, 170.734 109.224 C 183.967 109.674, 185.450 109.550, 187.141 107.859 C 189.698 105.302, 189.507 104.489, 185.656 101.551 C 182.861 99.419, 181.240 99, 175.790 99 L 169.269 99 171.055 92.557 C 172.038 89.013, 173.154 83.614, 173.536 80.558 L 174.230 75.003 188.865 75.565 C 206.186 76.230, 208 76.524, 208 78.666 C 208 81.342, 203.838 91.939, 199.271 100.892 C 195.974 107.355, 195.249 109.596, 196.118 110.642 C 199.964 115.276, 206.509 108.945, 214.355 93 C 220.851 79.796, 219.874 70.934, 211.536 67.451 C 208.079 66.006, 171.603 64.792, 155.500 65.585 M 152.249 75.744 L 143.997 76.081 145.999 78.229 C 147.550 79.895, 148.022 81.851, 148.100 86.939 C 148.155 90.547, 148.520 94.625, 148.912 96 C 149.556 98.256, 150.058 98.468, 154.063 98.170 C 156.503 97.988, 158.816 97.538, 159.202 97.168 C 159.587 96.799, 160.591 92.673, 161.432 87.998 C 162.272 83.324, 163.247 78.487, 163.597 77.250 C 164.104 75.457, 163.854 75.041, 162.367 75.204 C 161.340 75.315, 156.787 75.559, 152.249 75.744 M 120.200 119.200 C 119.540 119.860, 119 121.887, 119 123.704 C 119 126.595, 122.828 142.710, 124.703 147.709 C 125.313 149.336, 125.205 149.363, 123.527 148 C 120.809 145.794, 100.723 146.057, 96.275 148.358 C 87.654 152.816, 90.114 160.468, 99.416 158.126 C 101.727 157.543, 108.092 156.766, 113.559 156.398 C 119.027 156.030, 124.003 155.335, 124.617 154.853 C 125.381 154.253, 125.931 155.164, 126.356 157.738 C 127.257 163.188, 127.121 172.739, 126.164 171.232 C 124.585 168.744, 119.448 168.273, 106.238 169.407 C 94.623 170.404, 92.739 170.821, 90.757 172.830 L 88.500 175.118 91.450 177.683 C 94.384 180.234, 94.468 180.244, 106.950 179.565 C 116.099 179.067, 120.552 178.372, 123.382 177.001 L 127.264 175.120 126.659 180.233 C 126.326 183.046, 125.704 185.685, 125.277 186.098 C 123.849 187.481, 91.527 200.178, 89.546 200.136 C 85.093 200.040, 83.378 205.222, 86.829 208.345 C 90.139 211.340, 93.581 210.693, 109.500 204.080 C 126.225 197.132, 124.880 196.644, 122.472 208.792 C 118.569 228.483, 113.571 243.501, 109.380 248.133 C 105.965 251.907, 111.153 256.594, 115.921 254.042 C 122.579 250.479, 131.131 226.313, 135.044 200 C 135.955 193.882, 136.826 191.134, 138.154 190.193 C 140.361 188.631, 140.575 184.722, 138.546 183.038 C 137.430 182.112, 137.227 180.371, 137.676 175.564 C 138.327 168.600, 136.563 151.472, 134.324 143 C 133.524 139.975, 132.216 135.025, 131.416 132 C 129.287 123.945, 127.974 121.095, 125.640 119.460 C 123.107 117.686, 121.778 117.622, 120.200 119.200 M 167.961 121.282 C 162.843 125.332, 161.590 146.897, 162.487 215.500 C 163.386 284.314, 163.604 290.818, 165.068 292.582 C 166.698 294.546, 168.645 294.355, 171 292 C 172.940 290.060, 173 288.667, 173 245.500 L 173 201 176.032 201 C 184.524 201, 203.042 190.687, 206.477 184.045 C 208.350 180.422, 208.351 180.494, 206.429 178.571 C 204.194 176.337, 202.811 176.598, 199.038 179.966 C 197.212 181.597, 192.293 184.339, 188.108 186.059 C 183.924 187.779, 179.193 189.820, 177.596 190.594 C 172.284 193.167, 172 192.793, 172 183.243 L 172 174.485 180.189 174.857 C 192.224 175.404, 203.655 172.381, 205.980 168.038 C 207.352 165.474, 203.521 161.594, 200.505 162.493 C 199.402 162.821, 194.450 163.479, 189.500 163.954 C 179.301 164.933, 177.417 165.473, 174.250 168.323 L 172 170.349 172 167.314 C 172 165.645, 172.280 162.237, 172.622 159.742 L 173.244 155.204 176.590 156.602 C 181.007 158.448, 185.047 158.331, 193.425 156.118 C 198.862 154.681, 200.534 153.789, 201.209 151.964 C 202.844 147.545, 200.592 146.794, 186.118 146.936 L 173 147.065 172.785 138.782 C 172.666 134.227, 172.644 128.758, 172.736 126.630 C 172.829 124.463, 172.295 122.152, 171.523 121.380 C 169.879 119.737, 169.912 119.737, 167.961 121.282" stroke="none" fill="black" fill-rule="evenodd"/>
</svg>