<svg xmlns="http://www.w3.org/2000/svg" width="300" height="300" viewBox="0 0 300 300" version="1.1">
	<path d="M 191.386 19.750 C 183.117 29.057, 169.530 43.725, 166.606 46.500 C 162.826 50.090, 145.558 70.354, 141.042 76.500 C 138.617 79.800, 136.210 82.787, 135.691 83.137 C 135.172 83.487, 134.692 85.512, 134.624 87.637 C 134.501 91.475, 134.527 91.502, 138.649 91.803 C 142.776 92.103, 142.848 92.049, 151.649 81.883 L 160.500 71.661 160.836 98.581 C 161.020 113.386, 160.671 141.250, 160.059 160.500 C 159.356 182.627, 159.240 208.503, 159.744 230.855 L 160.540 266.209 162.957 268.166 C 165.113 269.912, 169.279 270.055, 170.895 268.439 C 171.114 268.219, 171.605 263.868, 171.987 258.770 C 172.944 245.964, 172.598 68.335, 171.607 63.956 C 170.811 60.439, 170.925 60.282, 186.488 43.456 C 203.240 25.344, 205.990 21.790, 205.996 18.250 C 206.001 15.523, 202.698 12, 200.136 12 C 199.070 12, 195.324 15.318, 191.386 19.750 M 234.500 38.032 C 229.550 38.448, 221.367 38.836, 216.315 38.894 C 207.124 39, 202.203 40.083, 200.786 42.313 C 199.454 44.407, 199.936 50.702, 201.530 52.025 C 202.725 53.016, 208.474 53.148, 227.780 52.627 C 242.041 52.241, 253.078 52.340, 253.866 52.860 C 254.997 53.606, 254.857 54.777, 253.060 59.631 C 251.865 62.859, 249.996 67.364, 248.906 69.642 L 246.926 73.784 232.213 77.773 C 224.121 79.967, 215.250 82.202, 212.500 82.741 C 208.187 83.585, 200.224 86.087, 192.250 89.106 C 190.960 89.594, 190 90.803, 190 91.940 C 190 96.911, 198.166 99.899, 208.136 98.576 C 213.039 97.926, 213.146 97.966, 212.450 100.205 C 212.058 101.467, 210.042 105.650, 207.970 109.500 C 205.898 113.350, 201.984 120.610, 199.271 125.633 C 196.559 130.657, 193.732 136.282, 192.989 138.133 C 192.246 139.985, 189.920 143.936, 187.819 146.913 C 182.284 154.757, 182.823 160.333, 189.115 160.333 C 194.057 160.333, 201.028 152.063, 208.900 136.860 C 212.420 130.062, 217.317 121.425, 219.782 117.667 C 225.331 109.207, 226.384 103.363, 223.147 98.985 C 221.977 97.402, 221.352 95.922, 221.759 95.696 C 222.167 95.470, 225.650 94.515, 229.500 93.575 C 233.350 92.634, 238.300 91.417, 240.500 90.869 C 248.180 88.955, 270.514 80.774, 272.250 79.238 C 273.255 78.349, 274 76.275, 274 74.368 C 274 70.416, 270.421 67.495, 266.498 68.245 C 265.124 68.508, 264 68.607, 264 68.466 C 264 68.325, 265.350 65.037, 267 61.160 C 271.158 51.388, 271.043 46.719, 266.538 42.471 C 262.996 39.131, 262.557 39.021, 247 37.597 C 245.075 37.420, 239.450 37.616, 234.500 38.032 M 110.500 55.519 C 106.031 57.360, 102.665 57.992, 97.306 57.995 C 91.262 57.999, 89.709 58.360, 87.593 60.250 C 83.907 63.544, 83.312 67.312, 86.047 70.047 C 88.151 72.151, 88.795 72.231, 98.303 71.576 C 103.823 71.196, 109.907 70.230, 111.823 69.429 C 113.739 68.629, 115.389 68.092, 115.490 68.237 C 115.665 68.489, 116.053 78.967, 119.622 180 C 121.489 232.847, 121.054 248.851, 117.784 247.761 C 117.251 247.584, 115.128 243.486, 113.067 238.656 C 108.802 228.664, 106.232 225.474, 103.217 226.431 C 99.930 227.474, 99.717 231.379, 102.470 240.095 C 103.862 244.499, 105.004 248.868, 105.009 249.802 C 105.026 252.868, 110.951 261.923, 113.958 263.478 C 121.664 267.463, 129.248 262.702, 132.581 251.787 C 135.100 243.534, 135.131 217.978, 132.705 149.500 C 131.730 122, 130.610 90.350, 130.215 79.167 L 129.498 58.834 126.233 55.917 C 122.165 52.283, 118.577 52.192, 110.500 55.519 M 40.500 61.880 C 37.200 62.836, 33.600 64.097, 32.500 64.683 C 31.400 65.270, 27.849 66.071, 24.610 66.464 C 17.744 67.297, 13.750 70.247, 13.750 74.483 C 13.750 80.919, 20.593 82.405, 32.614 78.581 C 37.076 77.161, 42.814 75.713, 45.364 75.364 L 50 74.728 50.010 89.614 C 50.016 97.801, 50.435 109.675, 50.941 116 C 53.340 145.966, 53.336 145.241, 51.097 144.531 C 48.094 143.578, 45.497 145.416, 41.591 151.260 C 39.665 154.142, 34.581 160.157, 30.294 164.628 C 26.007 169.098, 20.836 174.565, 18.803 176.777 C 16.770 178.988, 14.745 180.956, 14.303 181.149 C 13.861 181.342, 12.538 183.454, 11.361 185.843 C 8.747 191.151, 9.442 194.924, 13.389 196.840 C 17.508 198.840, 20.925 196.939, 26.253 189.683 C 28.756 186.274, 35.025 178.313, 40.186 171.992 C 45.346 165.672, 50.305 159.437, 51.206 158.139 L 52.844 155.778 53.519 160.279 C 54.422 166.299, 53.401 234.445, 52.334 239.417 L 51.493 243.334 43.497 234.769 C 39.098 230.058, 33.925 223.702, 32 220.644 C 30.075 217.587, 27.690 214.804, 26.701 214.460 C 24.377 213.652, 20 216.518, 20 218.847 C 20 220.801, 32.062 239.971, 39.125 249.243 C 45.083 257.064, 47.294 258.403, 54.335 258.456 C 59.488 258.495, 60.446 258.179, 62.538 255.748 C 66.273 251.410, 67.143 246.803, 68.059 226.500 C 68.888 208.131, 67.787 125.082, 66.690 123.308 C 66.394 122.828, 65.588 109.701, 64.900 94.135 L 63.648 65.835 60.923 62.917 C 58.491 60.315, 57.567 60.008, 52.349 60.071 C 49.132 60.110, 43.800 60.924, 40.500 61.880 M 254.500 114.700 C 253.400 114.958, 249.350 116.289, 245.500 117.659 C 241.650 119.029, 236.161 120.584, 233.303 121.116 C 224.666 122.721, 214 129.747, 214 133.830 C 214 136.708, 216.561 138.338, 220.002 137.650 C 221.693 137.311, 223 137.475, 223 138.025 C 223 138.561, 222.639 139, 222.198 139 C 220.953 139, 218.181 147.752, 216.971 155.500 C 216.369 159.350, 215.386 164.849, 214.786 167.720 C 213.592 173.433, 214.022 173.161, 200.188 176.940 C 194.961 178.367, 188 184.357, 188 187.428 C 188 188.635, 188.957 190.650, 190.127 191.906 C 192.646 194.610, 195.772 194.439, 203.796 191.158 L 209.092 188.993 208.445 192.746 C 208.088 194.811, 206.070 203.475, 203.959 212 C 201.848 220.525, 198.948 232.730, 197.514 239.123 C 196.080 245.515, 194.267 251.590, 193.485 252.623 C 191.200 255.641, 191.607 261.611, 194.223 263.443 C 197.249 265.563, 197.424 265.515, 202.150 261.250 C 207.301 256.602, 208.066 254.776, 213.055 235.238 C 215.265 226.582, 217.310 218.827, 217.600 218.004 C 217.941 217.033, 219.184 218.479, 221.142 222.128 C 225.033 229.379, 236.679 242.875, 245.278 250.097 C 257.486 260.350, 273.914 269, 281.178 269 C 286.462 269, 289.865 262.836, 286.698 259 C 285.160 257.137, 281.451 255, 279.755 255 C 278.619 255, 265.436 246.597, 259.709 242.223 C 253.923 237.804, 235.958 218.837, 234.091 215.178 C 231.617 210.330, 226.282 204.007, 224.646 203.985 C 221.089 203.937, 220.863 202.436, 223.124 193.908 L 225.353 185.500 238.927 181.652 C 252.776 177.727, 263.807 172.541, 266.506 168.688 C 268.719 165.528, 268.344 162.271, 265.556 160.445 C 263.244 158.930, 262.635 159.030, 254.306 162.301 C 237.529 168.889, 228.356 170.711, 229.387 167.250 C 229.673 166.287, 230.875 160.325, 232.058 154 C 233.240 147.675, 234.875 141.746, 235.691 140.824 C 236.508 139.903, 237.019 138.336, 236.827 137.342 C 236.545 135.875, 238.173 134.952, 245.490 132.432 C 250.445 130.725, 257.087 128.035, 260.250 126.456 C 265.417 123.874, 266 123.266, 266 120.447 C 266 115.132, 261.743 113.005, 254.500 114.700 M 18.500 128.632 C 12.561 130.030, 9.161 134.520, 10.376 139.361 C 11.095 142.227, 13.406 142.968, 21.683 142.986 C 27.008 142.998, 27.954 143.281, 28.508 145.027 C 29.529 148.243, 33.281 150.224, 36.229 149.103 C 39.205 147.972, 40 146.213, 40 140.763 C 40 137.305, 39.390 136.110, 35.958 132.845 C 33.220 130.241, 31.001 129, 29.083 129 C 27.525 129, 24.956 128.811, 23.375 128.581 C 21.794 128.350, 19.600 128.374, 18.500 128.632 M 84.500 131.945 C 80.047 133.768, 76.834 139.682, 77.735 144.396 C 78.263 147.158, 78.347 147.188, 84.885 146.897 C 89.011 146.713, 92.535 147.114, 94.250 147.962 C 100.029 150.818, 104.733 144.687, 102.091 137.740 C 100.061 132.399, 90.825 129.357, 84.500 131.945 M 108.855 161.638 C 107.560 163.088, 101.775 169.204, 96 175.228 C 90.225 181.252, 84.948 186.773, 84.272 187.497 C 82.487 189.410, 79 198.670, 79 201.498 C 79 206.430, 86.950 210.175, 89.893 206.629 C 90.519 205.875, 92.387 202.544, 94.045 199.227 C 95.712 195.890, 100.012 190.136, 103.669 186.348 C 115.515 174.076, 120.583 163.983, 116.800 160.200 C 114.814 158.214, 111.353 158.840, 108.855 161.638" stroke="none" fill="black" fill-rule="evenodd"/>
</svg>