<svg xmlns="http://www.w3.org/2000/svg" width="300" height="300" viewBox="0 0 300 300" version="1.1">
	<path d="M 179.827 33.930 C 172.857 35.460, 165.573 37.644, 163.641 38.785 C 160.565 40.599, 159.973 40.673, 158.896 39.374 C 155.397 35.159, 150.361 35.425, 147.678 39.968 C 145.298 43.998, 145.562 51.842, 148.509 64.620 C 149.890 70.604, 151.709 80.896, 152.552 87.491 C 153.395 94.086, 154.757 100.506, 155.578 101.759 C 156.879 103.746, 156.884 104.107, 155.612 104.595 C 153.190 105.525, 152.929 107.929, 155.023 110.023 C 156.587 111.587, 158.358 112, 163.500 112 C 169.461 112, 171.526 112.939, 169 114.500 C 168.450 114.840, 168 117.016, 168 119.337 C 168 123.735, 165.674 128.974, 158.372 141.024 C 156.214 144.586, 153.607 149.300, 152.580 151.500 C 151.552 153.700, 149.491 157.300, 147.998 159.500 C 146.505 161.700, 143.797 165.904, 141.979 168.842 C 140.161 171.779, 138.185 174.704, 137.587 175.342 C 134.883 178.223, 126.145 190.968, 125.517 192.946 C 124.642 195.703, 127.395 199, 130.574 199 C 133.156 199, 136.019 196.111, 145.443 184 C 155.483 171.097, 166.797 153.582, 171.888 143.059 C 177.211 132.060, 178.532 122.777, 175.609 116.918 C 174.724 115.144, 174 113.602, 174 113.491 C 174 113.380, 176.842 113.024, 180.316 112.699 C 183.790 112.375, 189.077 111.224, 192.066 110.142 C 198.676 107.748, 209.734 105.839, 212.597 106.598 C 216.496 107.630, 222.942 96.482, 223.021 88.568 C 223.032 87.431, 224.152 81.100, 225.510 74.500 C 229.605 54.597, 228.655 45.210, 221.894 38.748 C 213.563 30.787, 200.804 29.325, 179.827 33.930 M 64.364 34.170 C 61.281 35.663, 59.999 39.235, 60.011 46.297 C 60.026 54.800, 63.440 65.477, 67.997 71.270 C 72.195 76.605, 80.117 78.740, 83.429 75.429 C 85.813 73.044, 85.325 70.451, 81.956 67.616 C 77.605 63.955, 75.071 57.408, 73.596 46.011 C 71.958 33.369, 70.330 31.281, 64.364 34.170 M 109.221 39.234 C 107.794 39.921, 105.050 44.107, 101.890 50.416 C 95.357 63.462, 92.683 68.212, 88.381 74.423 C 86.446 77.215, 83.682 81.376, 82.238 83.669 C 79.915 87.357, 78.597 88.218, 70.827 91.120 C 61.689 94.532, 58.562 96.607, 55.549 101.255 C 54.048 103.571, 53.975 104.265, 55.091 105.609 C 57.245 108.205, 60.757 109.077, 64.799 108.021 C 66.835 107.489, 75.250 104.737, 83.500 101.905 C 101.531 95.716, 114.237 92.987, 118.303 94.429 C 123.253 96.185, 126.095 92.500, 124.547 86.332 C 123.454 81.976, 118.138 80.592, 107.658 81.936 C 102.756 82.565, 98.584 82.918, 98.387 82.720 C 98.190 82.523, 100.068 79.558, 102.561 76.132 C 109.892 66.057, 119 48.595, 119 44.615 C 119 38.810, 114.846 36.523, 109.221 39.234 M 189.500 45.415 C 176.546 47.891, 168.549 50.271, 164.512 52.851 C 162.306 54.262, 160.432 55.436, 160.349 55.458 C 160.079 55.533, 163.818 72.151, 164.188 72.521 C 164.385 72.718, 166.504 71.565, 168.896 69.959 C 176.765 64.674, 203.103 57.493, 210.323 58.665 C 213.375 59.160, 213.798 58.942, 214.396 56.560 C 215.222 53.268, 213.393 49.340, 209.791 46.676 C 206.337 44.120, 198.745 43.648, 189.500 45.415 M 204.500 71.784 C 201.750 72.569, 195.675 74.490, 191 76.053 C 181.211 79.328, 168.404 82.092, 166.467 81.349 C 165.434 80.953, 165.070 82.991, 164.820 90.557 L 164.500 100.273 173.500 99.642 C 178.450 99.294, 185.875 98.116, 190 97.022 C 198.820 94.684, 203.526 94.504, 207.095 96.367 L 209.691 97.721 210.874 88.110 C 211.525 82.825, 212.299 76.873, 212.594 74.884 C 213.263 70.377, 211.629 69.752, 204.500 71.784 M 85.250 102.662 C 83.523 103.359, 83.685 107.491, 85.584 111.163 C 86.456 112.848, 87.794 116.538, 88.559 119.363 C 89.324 122.188, 90.239 125.513, 90.592 126.750 C 91.127 128.628, 90.842 129.003, 88.867 129.017 C 87.565 129.026, 80.949 130.547, 74.164 132.398 C 63.388 135.337, 61.332 136.246, 57.914 139.584 C 54.760 142.664, 54 144.122, 54 147.096 C 54 149.463, 54.541 150.994, 55.509 151.365 C 57.323 152.061, 61.648 150.557, 62.148 149.056 C 62.345 148.466, 66.625 147.317, 71.659 146.502 C 76.693 145.688, 82.092 144.514, 83.656 143.893 C 85.220 143.272, 87.925 142.423, 89.666 142.006 C 93.635 141.056, 93.968 142.036, 93.986 154.737 L 94 163.973 90.250 165.570 C 85.894 167.425, 72.563 172.163, 62.500 175.434 C 58.650 176.685, 54.038 178.449, 52.250 179.354 C 45.820 182.610, 42.454 184.326, 39.745 185.727 C 34.505 188.437, 33.692 194.204, 38.384 195.381 C 41.388 196.135, 54.709 193.574, 60.208 191.185 C 62.569 190.159, 67.804 188.238, 71.843 186.914 C 75.882 185.591, 79.396 184.169, 79.652 183.754 C 79.908 183.339, 81.104 182.985, 82.309 182.966 C 83.514 182.947, 86.300 182.077, 88.500 181.031 C 92.478 179.140, 92.502 179.141, 92.834 181.171 C 93.483 185.146, 87.746 217.669, 84.309 229.500 C 80.728 241.825, 79.195 245.754, 73.581 257 C 71.178 261.815, 69.386 264.019, 66.671 265.500 C 63.028 267.488, 62.176 269.689, 63.607 273.418 C 64.688 276.235, 71.185 275.399, 76.574 271.750 C 89.481 263.011, 102.464 222.943, 105.499 182.484 L 106.175 173.469 113.581 169.151 C 124.354 162.869, 126.756 158.942, 122.062 155.282 C 119.786 153.507, 118.679 153.687, 112.016 156.914 L 106 159.828 105.813 150.914 C 105.709 146.011, 105.597 140.779, 105.563 139.287 C 105.511 137.061, 106.084 136.407, 108.765 135.639 C 113.660 134.235, 117.290 130.489, 116.418 127.742 C 115.238 124.022, 112.939 122.909, 107.250 123.302 C 103.304 123.574, 102 123.325, 102 122.300 C 102 119.184, 95.698 104.902, 93.708 103.508 C 91.606 102.036, 87.757 101.651, 85.250 102.662 M 213 137.606 C 209.425 138.910, 205.792 139.982, 204.926 139.988 C 203.264 140.001, 188.714 145.938, 183.314 148.807 C 177.497 151.898, 165.212 160.474, 164.114 162.210 C 162.525 164.723, 163.831 167.001, 166.857 166.996 C 169.412 166.991, 176.551 164.630, 188 160.003 C 191.025 158.780, 196.425 156.692, 200 155.364 C 208.477 152.212, 217.786 148.276, 221.302 146.356 C 224.943 144.368, 226.667 145.124, 227.775 149.195 C 229.103 154.070, 227.303 224.335, 225.540 236.500 C 223.425 251.088, 220.267 268.030, 218.990 271.644 L 217.878 274.788 215.485 272.394 C 212.572 269.481, 211.580 269.420, 209 272 C 206.476 274.524, 206.496 275.260, 209.290 282.536 C 214.584 296.326, 225.576 293.439, 231.875 276.606 C 232.941 273.754, 234.113 269.189, 234.479 266.461 C 234.845 263.732, 236.053 257, 237.163 251.500 C 239.987 237.512, 240.907 220.718, 240.957 182.193 C 241.004 145.485, 240.542 141.475, 235.801 137.486 C 233.257 135.345, 231.920 135.016, 226.173 135.117 C 221.903 135.193, 217.160 136.089, 213 137.606 M 176.841 178.752 C 175.928 179.713, 174.480 183.200, 173.622 186.500 C 169.910 200.785, 160.962 221.804, 155.955 228 L 153.934 230.500 154.673 226.500 C 155.739 220.732, 155.425 210.819, 154.045 206.637 C 152.055 200.608, 144.003 196.777, 143.999 201.857 C 143.990 211.130, 142.869 225.447, 141.481 234 C 139.485 246.303, 139.937 253.030, 143.209 259.686 C 146.672 266.731, 151.607 269, 163.468 269 C 168.443 269, 174.085 268.533, 176.007 267.963 C 177.928 267.392, 185.224 266.110, 192.219 265.113 C 210.034 262.574, 215.736 258.388, 209.906 252.130 C 208.407 250.521, 207.058 250.024, 205.156 250.382 C 203.695 250.657, 198.450 251.181, 193.500 251.546 C 188.550 251.910, 180.675 253.052, 176 254.083 C 166.118 256.261, 158.051 256.528, 155.797 254.750 C 153.383 252.846, 152.919 247.161, 155.120 246.462 C 157.761 245.624, 166.554 235.612, 170.315 229.162 C 173.241 224.143, 174.020 223.466, 177.170 223.198 C 179.811 222.973, 181.501 223.551, 183.756 225.448 C 185.424 226.852, 187.667 228, 188.739 228 C 191.537 228, 194 224.844, 194 221.260 C 194 217.553, 189.844 213.633, 184.083 211.907 L 180.255 210.760 181.577 207.130 C 185.671 195.883, 188.911 183.930, 188.302 182.321 C 186.534 177.654, 179.856 175.574, 176.841 178.752" stroke="none" fill="black" fill-rule="evenodd"/>
</svg>