<svg xmlns="http://www.w3.org/2000/svg" width="300" height="300" viewBox="0 0 300 300" version="1.1">
	<path d="M 217.923 46.846 C 211.011 52.283, 212.707 73.810, 219.847 71.276 C 222.739 70.250, 224 68.818, 224 66.559 C 224 62.462, 227.034 54, 228.504 54 C 230.460 54, 232.018 50.784, 231.332 48.162 C 231.021 46.973, 230.032 45.995, 229.133 45.989 C 228.235 45.983, 225.925 45.717, 224 45.399 C 221.377 44.965, 219.853 45.328, 217.923 46.846 M 183.902 46.995 C 183.023 47.509, 177.489 49.490, 171.604 51.398 C 154.836 56.833, 149.772 60.554, 151.543 66.136 C 152.172 68.116, 152.709 68.231, 158.930 67.709 C 162.927 67.374, 167.833 66.135, 171.069 64.642 C 174.413 63.100, 176.645 62.547, 176.878 63.203 C 177.086 63.789, 175.878 67.246, 174.193 70.884 C 172.509 74.523, 170.313 79.395, 169.315 81.712 C 167.940 84.904, 167.072 85.795, 165.734 85.390 C 164.763 85.096, 162.490 85.343, 160.683 85.940 C 158.160 86.772, 156.280 86.688, 152.584 85.575 C 146.132 83.633, 140.500 85.222, 140.500 88.985 C 140.500 92.979, 147.777 96.482, 156.095 96.492 L 162.689 96.500 161.231 100 C 156.612 111.089, 145.419 130.304, 141.327 134.171 C 139.772 135.640, 136.926 137.244, 135.002 137.734 C 130.122 138.978, 128.489 143.358, 131.881 146.105 C 134.403 148.147, 139.380 148.566, 143.320 147.068 C 144.668 146.556, 148.337 143.631, 151.474 140.568 C 154.611 137.506, 157.306 135, 157.464 135 C 157.621 135, 157.750 136.210, 157.750 137.690 C 157.750 140.973, 160.875 143.698, 165.670 144.598 C 169.771 145.367, 182.988 142.200, 198.613 136.703 C 216.933 130.257, 218.974 128.662, 215.560 123.451 C 214.167 121.326, 213.199 121, 208.275 121 C 204.686 121, 199.449 122.053, 194.048 123.860 C 180.952 128.241, 175.124 129.814, 167.579 131.002 C 163.773 131.602, 160.312 132.307, 159.889 132.569 C 159.466 132.830, 160.686 130.447, 162.601 127.272 C 168.804 116.986, 179.518 94.156, 185.489 78.500 C 194.446 55.013, 195.305 51.303, 192.608 47.750 C 191.180 45.869, 186.520 45.465, 183.902 46.995 M 239.791 50.750 C 237.324 52.671, 234.637 56.786, 230.880 64.397 C 227.921 70.390, 224.262 76.864, 222.750 78.784 C 221.238 80.704, 220 82.663, 220 83.138 C 220 85.141, 218.081 83.643, 213.437 78.015 C 210.722 74.724, 207.872 71.788, 207.105 71.491 C 205.461 70.855, 202 73.705, 202 75.695 C 202 80.621, 213.413 96.211, 225.663 108.017 C 233.933 115.987, 258.105 138.051, 265.397 144.285 C 271.809 149.767, 280.006 148.538, 279.996 142.095 C 279.992 139.065, 276.600 133.069, 274.765 132.848 C 274.069 132.764, 272.992 132.645, 272.370 132.583 C 271.749 132.521, 265.015 126.627, 257.405 119.485 C 249.796 112.343, 240.685 103.800, 237.159 100.500 C 226.175 90.222, 226.790 91.203, 229.249 87.877 C 230.419 86.295, 231.668 85, 232.025 85 C 232.871 85, 240.896 73.064, 244.884 65.875 C 248.718 58.962, 249.952 51.810, 247.700 49.557 C 245.497 47.354, 243.827 47.606, 239.791 50.750 M 102 51.705 C 100.075 51.916, 92.200 53.371, 84.500 54.937 C 76.800 56.504, 67.177 58.367, 63.116 59.078 C 52.742 60.895, 49.541 64.741, 53.911 70.139 C 55.540 72.152, 56.718 72.500, 61.908 72.500 C 68.608 72.500, 68.825 72.780, 66.478 78.399 C 65.170 81.530, 64.965 90.491, 65.024 142.186 L 65.091 202.331 61.144 206.416 C 55.245 212.518, 49.125 221.815, 48.375 225.812 C 47.831 228.716, 48.101 229.664, 49.889 231.111 C 53.160 233.760, 56.870 231.958, 64.193 224.164 C 67.637 220.499, 77.552 210.425, 86.227 201.778 C 94.902 193.131, 102 185.593, 102 185.028 C 102 184.463, 102.380 184, 102.844 184 C 103.308 184, 103.972 193.563, 104.318 205.250 C 104.665 216.938, 105.427 231.675, 106.010 238 C 106.594 244.325, 107.473 258.267, 107.962 268.981 C 108.798 287.247, 108.989 288.573, 111.037 290.231 C 113.822 292.486, 115.213 292.458, 118.139 290.089 C 120.243 288.386, 120.535 287.216, 120.821 279.339 C 120.997 274.478, 120.391 256.100, 119.473 238.500 C 117.291 196.642, 116.318 100.051, 117.938 86.114 C 118.588 80.525, 118.837 75.063, 118.492 73.976 C 116.666 68.220, 110.031 75.339, 106.571 86.767 L 104.762 92.740 101.569 91.760 C 97.601 90.542, 88.938 92.190, 82.692 95.353 L 78.284 97.584 77.660 86.042 C 77.317 79.694, 76.775 73.579, 76.455 72.453 C 75.835 70.272, 74.611 70.660, 97.500 65.792 C 108.233 63.509, 113.522 58.636, 111.081 53.278 C 110.028 50.968, 109.515 50.879, 102 51.705 M 88.656 107.461 C 83.791 109.328, 79.691 111, 79.543 111.178 C 79.396 111.355, 79.011 116.377, 78.689 122.337 C 78.229 130.837, 78.374 133.070, 79.364 132.691 C 80.058 132.424, 84.647 129.524, 89.563 126.245 C 94.478 122.966, 99.448 119.985, 100.607 119.619 C 102.381 119.061, 102.814 117.899, 103.337 112.291 C 103.680 108.625, 103.823 105.490, 103.657 105.324 C 102.036 103.703, 96.331 104.515, 88.656 107.461 M 97.009 135.640 C 89.395 142.012, 83.774 145.768, 80.690 146.542 L 78.073 147.198 77.787 169.349 C 77.629 181.532, 77.539 191.614, 77.586 191.753 C 77.634 191.892, 82.020 187.955, 87.333 183.003 C 96.799 174.181, 99.386 172.786, 101.800 175.200 C 102.733 176.133, 103 171.356, 103 153.700 C 103 141.215, 102.888 131.010, 102.750 131.022 C 102.612 131.033, 100.029 133.111, 97.009 135.640 M 191.750 145.689 C 190.787 145.941, 190 146.565, 190 147.076 C 190 147.586, 188.464 149.466, 186.587 151.252 C 183.180 154.494, 178 163.143, 178 165.590 C 178 167.541, 177.395 167.701, 165.044 169 C 149.483 170.638, 146.111 172.186, 146.032 177.727 C 145.964 182.440, 152.813 184.427, 164.499 183.084 C 168.899 182.578, 172.622 182.289, 172.773 182.440 C 173.121 182.788, 171.010 190.888, 167.545 202.500 C 166.067 207.450, 163.279 216.900, 161.348 223.500 C 157.841 235.488, 154.094 248.172, 151.970 255.250 C 151.351 257.313, 150.430 259, 149.922 259 C 148.569 259, 148.797 265.397, 150.200 266.800 C 152.490 269.090, 156.949 268.180, 160.045 264.789 C 163.016 261.536, 167.001 254.070, 166.999 251.761 C 166.998 251.067, 168.315 246.450, 169.926 241.500 C 174.527 227.360, 178.665 213.931, 180.026 208.724 C 180.713 206.098, 181.629 203.729, 182.062 203.462 C 182.922 202.930, 190 216.437, 190 218.610 C 190 221.115, 207.882 237.730, 217.213 243.894 C 222.321 247.268, 227.345 250.670, 228.379 251.454 C 235.471 256.832, 254.386 264, 261.488 264 C 265.457 264, 269 261.484, 269 258.666 C 269 255.470, 266.247 252.003, 263.693 251.982 C 260.386 251.954, 245.243 245.445, 239.286 241.490 C 236.396 239.570, 233.760 238, 233.429 238 C 232.426 238, 223.936 231.829, 217.021 226.073 C 208.596 219.061, 204.352 214.820, 200.013 209.076 C 194.883 202.285, 187.325 195.661, 185.503 196.360 C 183.720 197.045, 183.997 195.199, 187.170 185.250 C 188.852 179.976, 189.522 179, 191.459 179 C 195.504 179, 210.220 172.369, 214.883 168.445 C 219.093 164.902, 220.517 161.335, 218.915 158.341 C 218.257 157.112, 217.133 155.881, 216.416 155.606 C 215.700 155.331, 211.598 156.872, 207.300 159.029 C 203.003 161.187, 198.043 163.241, 196.278 163.594 L 193.068 164.236 195.034 158.643 C 197.410 151.884, 197.515 148.658, 195.429 146.571 C 194.564 145.707, 193.777 145.052, 193.679 145.116 C 193.580 145.180, 192.713 145.438, 191.750 145.689" stroke="none" fill="black" fill-rule="evenodd"/>
</svg>