<svg xmlns="http://www.w3.org/2000/svg" width="300" height="300" viewBox="0 0 300 300" version="1.1">
	<path d="M 198 45.666 C 190.809 48.104, 175.698 56.668, 171.400 60.741 L 166.301 65.573 165.116 61.142 C 164.464 58.705, 163.015 55.426, 161.897 53.855 C 160.213 51.491, 159.145 51.001, 155.682 51.008 C 152.122 51.014, 151.314 51.416, 150.250 53.707 C 148.647 57.159, 148.716 60.083, 150.575 67.500 C 151.525 71.290, 152.289 80.866, 152.648 93.500 C 153.112 109.866, 152.823 117.316, 151.056 134.500 C 147.468 169.382, 143.011 193.810, 137.829 207 C 135.013 214.169, 131.410 221.419, 129.789 223.178 C 125.651 227.670, 124.703 234.516, 127.829 237.345 C 131.949 241.074, 136.329 238.461, 142.434 228.634 C 148.098 219.516, 155.336 204.164, 157.501 196.678 C 159.027 191.399, 159.338 190.990, 160.842 192.294 C 165.038 195.932, 173.928 194.773, 186.883 188.899 C 196.505 184.536, 212.386 173.599, 215.759 169.014 L 218.700 165.014 219.325 174.757 C 219.669 180.116, 220.255 199.575, 220.628 218 C 221.330 252.725, 220.650 263.836, 217.310 272.184 C 216.048 275.338, 215.295 276, 212.973 276 C 208.786 276, 207.087 276.931, 205.433 280.130 C 202.694 285.426, 207.806 290, 216.464 290 C 225.272 290, 230.343 284.239, 234.510 269.500 C 236.876 261.134, 237.482 232.162, 236.100 193.500 C 234.383 145.456, 230.233 106.521, 223.501 75.289 C 218.363 51.453, 214.141 44.913, 204 45.083 C 201.525 45.124, 198.825 45.387, 198 45.666 M 93.284 48.701 C 92.065 48.937, 89.939 50.472, 88.559 52.112 C 84.428 57.021, 83 63.857, 83 78.713 C 83 88.502, 82.667 92.175, 81.750 92.483 C 81.063 92.714, 72.931 95.287, 63.680 98.201 C 45.116 104.050, 40 107.013, 40 111.918 C 40 114.966, 42.235 117.410, 45.825 118.285 C 48.356 118.902, 58.630 116.552, 60.621 114.900 C 61.701 114.003, 82.278 107.833, 82.579 108.315 C 82.643 108.417, 82.303 115.250, 81.825 123.500 C 81.346 131.750, 80.853 141.493, 80.728 145.151 L 80.500 151.802 75.500 153.269 C 72.750 154.076, 68.805 155.480, 66.733 156.389 C 62.989 158.031, 62.960 158.026, 62.028 155.573 C 61.512 154.215, 59.942 152.353, 58.539 151.433 C 56.402 150.033, 55.513 149.959, 53.059 150.976 C 48.013 153.065, 46.858 159.646, 49.401 171.803 C 50.172 175.486, 51.323 181.650, 51.959 185.500 C 55.239 205.344, 58.222 211.999, 63.839 212.001 L 66.500 212.002 63.663 214.443 C 61.764 216.076, 60.664 218.142, 60.337 220.691 C 59.237 229.255, 64.934 230.351, 78.728 224.228 C 96.231 216.459, 123.778 198.455, 125.442 193.697 C 126.564 190.491, 125.484 188.025, 122.326 186.581 C 120.336 185.671, 120.334 185.601, 122.158 179.742 C 125.481 169.063, 123.747 157.720, 118.104 153.231 C 112.655 148.896, 108.470 147.592, 100.357 147.700 L 92.214 147.809 93.056 144.654 C 94.269 140.112, 96.730 121.945, 97.503 111.832 L 98.166 103.165 103.833 101.035 C 118.411 95.558, 127 89.435, 127 84.523 C 127 82.250, 123.302 79, 120.715 79 C 119.627 79, 117.266 79.909, 115.469 81.019 C 112.339 82.954, 101.704 87, 99.750 87 C 98.765 87, 99.384 61.910, 100.557 54.265 C 101.161 50.333, 101.016 49.957, 98.539 49.015 C 97.071 48.457, 95.787 48.061, 95.685 48.136 C 95.583 48.211, 94.503 48.465, 93.284 48.701 M 198 60.676 C 196.075 61.527, 192.475 63.111, 190 64.196 C 181.403 67.964, 176.547 71.776, 172.747 77.741 L 169.034 83.568 168.730 106.284 C 168.525 121.509, 168.767 128.999, 169.462 128.996 C 170.033 128.994, 174.550 128.360, 179.500 127.588 C 195.487 125.093, 199.848 124.827, 205.500 126 C 211.613 127.269, 213 128.825, 213 134.411 C 213 139.497, 209.744 141.448, 202.721 140.571 C 198.908 140.094, 193.841 140.617, 184.471 142.452 C 177.337 143.849, 170.262 144.994, 168.750 144.996 C 167.238 144.998, 166 145.113, 166 145.250 C 165.999 146.998, 161.804 177.987, 161.388 179.322 C 160.845 181.062, 160.968 181.068, 164.068 179.465 C 165.855 178.541, 170.431 176.922, 174.237 175.867 C 185.176 172.836, 204.832 162.050, 207.083 157.845 C 208.583 155.042, 213.804 152.136, 216.208 152.765 C 218.203 153.286, 218.242 153.046, 217.569 144.401 C 215.476 117.522, 207.719 66.080, 204.989 60.979 C 203.741 58.647, 202.690 58.602, 198 60.676 M 89 165.074 C 78.415 167.829, 66.460 173.946, 66.633 176.518 C 66.707 177.608, 67.537 184.519, 68.478 191.875 C 69.420 199.232, 70.010 206.479, 69.790 207.981 C 69.272 211.507, 69.152 211.547, 87.385 202.162 L 102.271 194.500 105.093 186 C 108.730 175.046, 108.993 166.809, 105.777 164.557 C 102.881 162.528, 98.229 162.671, 89 165.074" stroke="none" fill="black" fill-rule="evenodd"/>
</svg>