<svg xmlns="http://www.w3.org/2000/svg" width="300" height="300" viewBox="0 0 300 300" version="1.1">
	<path d="M 137.500 53.170 C 133.100 54.192, 127.246 55.685, 124.490 56.489 C 117.679 58.476, 105.073 60.718, 96 61.555 C 86.567 62.425, 84.277 63.298, 82.774 66.597 C 81.687 68.982, 81.845 69.470, 84.420 71.685 C 87.059 73.955, 87.926 74.112, 96.205 73.818 L 105.142 73.500 104.492 76 C 101.348 88.086, 100.075 136.975, 102.818 140.280 C 103.934 141.625, 103.785 142.038, 101.815 143.052 C 98.139 144.945, 94 149.216, 94 151.116 C 94 154.131, 96.873 156, 101.508 156 C 105.062 156, 107.140 155.134, 112.687 151.342 C 116.434 148.780, 123.100 144.218, 127.500 141.204 L 135.500 135.725 135.813 140.554 C 135.994 143.356, 135.439 147.181, 134.490 149.666 C 132.299 155.401, 132.823 158.223, 136.303 159.441 C 140.098 160.771, 141.860 159.514, 145.448 152.919 C 148.068 148.102, 148.482 146.122, 149.178 135.085 C 149.834 124.678, 150.287 122.323, 151.980 120.521 C 154.577 117.757, 154.552 114.216, 151.915 111.410 C 149.867 109.230, 149.851 108.869, 150.993 90.846 C 151.633 80.755, 152.393 70.333, 152.684 67.684 C 153.154 63.400, 152.979 62.807, 151.106 62.317 C 148.984 61.762, 148.143 60, 150 60 C 151.417 60, 151.242 55.683, 149.750 53.831 C 147.720 51.311, 145.927 51.214, 137.500 53.170 M 195 65.704 C 190.875 67.073, 186.719 68.600, 185.764 69.097 C 184.809 69.593, 183.414 70, 182.664 70 C 180.337 70, 173.153 75.803, 171.484 79.030 C 170.611 80.719, 170.161 82.933, 170.484 83.951 C 171.648 87.616, 175.607 87.304, 187.081 82.643 C 193.086 80.203, 198 78.550, 198 78.969 C 198 79.388, 197.198 80.803, 196.217 82.115 C 195.237 83.427, 192.500 88.550, 190.136 93.500 C 187.772 98.450, 185.477 103.175, 185.036 104 C 184.099 105.754, 181.200 105.445, 178.845 103.340 C 177.934 102.527, 175.192 101.260, 172.751 100.526 C 169.087 99.423, 167.340 99.416, 162.737 100.486 C 155.649 102.134, 155.379 102.321, 153.983 106.553 C 152.244 111.822, 155.259 114.885, 158.922 111.571 C 160.296 110.327, 161.279 110.402, 166.500 112.151 C 169.800 113.256, 173.695 115.293, 175.155 116.676 L 177.810 119.192 175.655 122.350 C 170.431 130.006, 167.409 133.261, 163.831 135.086 C 160.982 136.540, 160 137.661, 160 139.464 C 160 141.930, 163.251 145, 165.863 145 C 169.731 145, 176.628 140.100, 181.697 133.750 C 184.660 130.037, 187.433 127, 187.859 127 C 188.284 127, 191.820 129.871, 195.716 133.380 C 202.682 139.654, 211.953 145, 215.867 145 C 218.580 145, 221.172 142.201, 220.803 139.669 C 220.633 138.500, 217.869 135.615, 214.500 133.090 C 206.528 127.115, 195 115.988, 195 114.269 C 195 113.514, 195.861 111.232, 196.914 109.198 C 197.966 107.164, 200.072 103.025, 201.592 100 C 203.112 96.975, 205.251 92.925, 206.345 91 C 215.131 75.534, 216.426 66.882, 210.368 64.122 C 206.864 62.525, 203.545 62.867, 195 65.704 M 135 65.700 C 133.075 66.546, 128.134 68.245, 124.020 69.475 C 115.923 71.897, 115.048 72.971, 115.815 79.540 L 116.186 82.722 123.276 80.861 C 127.175 79.838, 132.020 79, 134.044 79 C 137.684 79, 137.739 78.939, 139.209 73.250 C 140.026 70.088, 141.037 66.713, 141.454 65.750 C 142.414 63.539, 139.965 63.520, 135 65.700 M 127.433 92.952 C 125.197 93.948, 121.484 95.080, 119.183 95.469 C 115.098 96.159, 115 96.268, 115 100.123 C 115 103.758, 115.158 103.986, 116.996 103.002 C 118.095 102.414, 121.469 101.476, 124.495 100.916 C 127.521 100.357, 131.573 99.241, 133.499 98.436 C 136.392 97.227, 137 96.455, 137 93.987 C 137 91.378, 136.652 91.009, 134.250 91.071 C 132.738 91.109, 129.670 91.956, 127.433 92.952 M 126.620 112.034 C 121.736 113.665, 116.899 115, 115.870 115 C 114.168 115, 114 115.898, 114 125 C 114 130.500, 114.202 135, 114.450 135 C 114.893 135, 116.915 133.712, 130.245 124.939 L 136.990 120.500 136.995 114.750 C 136.998 111.588, 136.662 109.015, 136.250 109.034 C 135.838 109.052, 131.504 110.402, 126.620 112.034 M 167.500 158.937 C 163.100 159.893, 156.350 161.898, 152.500 163.394 C 148.650 164.890, 141.675 167.007, 137 168.098 C 111.274 174.103, 105.036 177.024, 106.393 182.429 C 107.508 186.872, 110.846 186.824, 136 182.003 C 138.475 181.528, 141.287 180.836, 142.250 180.463 C 143.844 179.847, 144.001 180.667, 144.014 189.643 C 144.021 195.064, 144.491 208.275, 145.057 219 C 145.624 229.725, 146.278 249.975, 146.512 264 C 146.745 278.025, 146.950 289.785, 146.968 290.133 C 146.986 290.482, 147.900 291.002, 149 291.290 C 156.256 293.187, 158.027 287.705, 158.604 261.553 L 159.043 241.605 164.245 235.553 C 167.107 232.224, 169.689 229.275, 169.983 229 C 170.278 228.725, 171.812 226.507, 173.392 224.072 L 176.265 219.643 178.382 222.551 C 181.466 226.785, 185.663 230.595, 189.308 232.466 C 191.063 233.368, 194.300 235.416, 196.500 237.018 C 208.663 245.872, 221.574 249.475, 227.418 245.646 C 232.404 242.379, 230.145 236, 224.002 236 C 220.702 236, 212.172 231.746, 203.140 225.595 C 198.620 222.518, 194.668 220, 194.356 220 C 194.045 220, 191.855 218.694, 189.489 217.097 C 187.123 215.501, 184.245 213.895, 183.094 213.530 C 180.392 212.672, 180.440 212.199, 183.894 205.542 C 188.432 196.795, 190.494 188.026, 189.044 183.635 C 187.414 178.694, 182.689 175.365, 179.421 176.854 C 177.457 177.749, 177 178.700, 177 181.890 C 177 188.382, 170.213 203.877, 161.072 218.254 L 157.318 224.159 156.622 203.329 C 156.239 191.873, 155.686 181.150, 155.393 179.500 C 154.875 176.583, 155.041 176.438, 161.367 174.250 C 164.946 173.012, 168.915 171.990, 170.187 171.978 C 175.953 171.923, 187 164.357, 187 160.462 C 187 156.471, 181.014 156.003, 167.500 158.937 M 115.923 191.923 C 114.315 193.531, 113 195.574, 113 196.463 C 113 199.183, 102.973 216.612, 100.035 219 C 98.779 220.021, 89.906 234.116, 88.970 236.578 C 87.781 239.706, 89.075 242.525, 92.058 243.305 C 94.467 243.935, 101.115 237.666, 108.494 227.806 L 112.755 222.112 115.910 226.038 C 119.277 230.227, 124.238 232.205, 134.670 233.516 C 139.206 234.086, 139.974 233.918, 140.920 232.149 C 141.514 231.039, 142 229.652, 142 229.066 C 142 227.184, 138.072 224, 135.750 223.999 C 134.512 223.999, 130.575 222.555, 127 220.791 C 123.425 219.027, 119.707 217.339, 118.739 217.042 C 117.124 216.545, 117.189 216.124, 119.514 212 C 125.391 201.578, 126.283 198.781, 124.938 195 C 123.756 191.678, 121.483 189.101, 119.673 189.032 C 119.218 189.014, 117.531 190.315, 115.923 191.923" stroke="none" fill="black" fill-rule="evenodd"/>
</svg>