<svg xmlns="http://www.w3.org/2000/svg" width="300" height="300" viewBox="0 0 300 300" version="1.1">
	<path d="M 99.498 26.106 C 94.352 29.304, 86.355 38.820, 83.029 45.704 C 80.010 51.953, 78.400 61.388, 79.821 64.506 C 80.745 66.535, 81.617 67.060, 83.658 66.816 C 86.422 66.485, 86.605 66.256, 89.905 59 C 91.031 56.525, 94.735 51.422, 98.136 47.661 C 103.685 41.525, 104.431 41.010, 105.398 42.661 C 106.570 44.663, 106.595 73.551, 105.448 102.134 L 104.781 118.768 102.140 117.390 C 98.532 115.507, 83.394 115.546, 79.750 117.447 L 77 118.881 76.992 104.691 C 76.982 88.349, 75.854 76.661, 72.916 62.493 C 71.053 53.503, 70.523 52.259, 67.710 50.261 C 65.007 48.340, 64.307 48.216, 62.594 49.353 C 58.699 51.940, 58.505 53.327, 60.390 65.147 C 64.326 89.832, 64.337 108.456, 60.444 150 C 56.877 188.061, 53.191 209.919, 49.032 217.679 C 45.504 224.262, 46.891 229, 52.348 229 C 60.324 229, 66.047 216.302, 70.486 188.750 C 71.058 185.202, 71.290 185, 74.795 184.994 C 79.724 184.986, 82.136 183.608, 93.904 174.077 C 99.390 169.635, 104.135 166, 104.449 166 C 104.763 166, 104.903 187.253, 104.760 213.229 L 104.500 260.458 101.738 260.670 C 96.129 261.101, 94.591 265.177, 97.956 270.696 C 103.635 280.009, 114.815 279.398, 117.928 269.603 C 120.593 261.218, 121.195 244.680, 120.520 198.500 L 119.832 151.500 124.350 146.246 C 130.469 139.130, 130.862 137.509, 127.358 133.852 C 125.534 131.947, 123.854 131.067, 122.648 131.382 C 120.833 131.856, 120.785 130.496, 121.137 88.186 C 121.514 42.839, 121.213 38.418, 117.218 30.500 C 115.017 26.139, 110.951 23.003, 107.498 23.001 C 105.847 23.001, 102.247 24.398, 99.498 26.106 M 175.315 43.007 C 171.593 44.507, 171.022 47.013, 171.642 59.128 C 172.267 71.331, 170.104 94.529, 167.333 105.347 C 165.871 111.053, 165.889 111.253, 168.092 113.597 C 169.416 115.008, 171.488 116, 173.106 116 C 179.913 116, 184.800 101.636, 186.629 76.250 L 187.295 67 190.127 67 C 191.685 67, 194.768 66.277, 196.978 65.392 C 199.188 64.508, 201.601 64.017, 202.340 64.300 C 203.080 64.584, 204.483 67.670, 205.459 71.158 C 210.355 88.662, 217.551 94.817, 231.891 93.763 C 239.033 93.238, 243.951 90.877, 254.512 82.903 C 258.765 79.692, 260.093 78.022, 260.618 75.223 C 261.197 72.139, 260.917 71.325, 258.589 69.323 C 254.974 66.213, 253.117 66.386, 247.320 70.374 C 230.331 82.060, 224.137 81.461, 219.834 67.714 C 214.307 50.054, 204.119 44.549, 192.459 52.922 C 190.102 54.615, 187.963 56, 187.705 56 C 187.448 56, 186.739 54.087, 186.130 51.750 C 184.829 46.755, 184.314 45.941, 181.027 43.692 C 178.249 41.791, 178.315 41.799, 175.315 43.007 M 227.864 130.999 C 208.681 141.723, 190.476 149.284, 178.383 151.550 C 168.468 153.408, 166 155.218, 166 160.630 C 166 170.332, 182.154 169.707, 206.750 159.053 C 212.938 156.373, 218 154.439, 218 154.756 C 218 155.684, 208.132 175.844, 203.732 183.904 L 199.690 191.307 195.095 186.293 C 192.568 183.536, 188.976 179.589, 187.113 177.523 C 185.250 175.457, 181.750 172.892, 179.335 171.824 L 174.943 169.881 170.722 172.206 C 167.963 173.725, 166.386 175.333, 166.170 176.847 C 165.797 179.463, 168.495 182.985, 170.905 183.029 C 171.782 183.045, 173.625 184.826, 175 186.987 C 176.375 189.148, 180.576 194.292, 184.336 198.418 L 191.173 205.919 185.498 213.460 C 178.388 222.906, 173.543 227, 169.472 227 C 167.782 227, 165.894 226.494, 165.275 225.875 C 164.588 225.188, 162.772 225.008, 160.613 225.413 C 157.516 225.994, 156.991 226.528, 156.394 229.715 C 155.789 232.938, 156.063 233.667, 158.802 236.115 C 164.853 241.521, 173.084 241.926, 182.383 237.274 C 187.981 234.474, 195.515 227.751, 199.503 221.995 L 202.241 218.045 207.870 223.094 C 226.309 239.631, 231.455 243.858, 240.486 249.888 C 245.994 253.566, 255 258.878, 260.500 261.694 C 281.092 272.236, 290.829 272.239, 289.810 261.704 C 289.563 259.152, 288.788 258.172, 286 256.886 C 266.789 248.029, 246.679 235.950, 238.450 228.326 C 236.773 226.772, 232.951 223.475, 229.956 221 C 226.962 218.525, 221.585 213.675, 218.006 210.222 L 211.500 203.944 213.841 199.722 C 218.339 191.608, 230.611 167.385, 237.278 153.462 C 244.571 138.231, 245.306 134.517, 241.820 130.508 C 238.863 127.107, 234.554 127.259, 227.864 130.999 M 82.330 131.716 L 76.160 132.091 75.621 135.796 C 74.410 144.105, 72.764 168.098, 73.364 168.697 C 73.718 169.051, 75.019 168.429, 76.254 167.314 C 77.489 166.198, 81.425 163.343, 85 160.968 C 88.575 158.593, 91.725 156.368, 92 156.022 C 92.275 155.677, 94.075 154.423, 96 153.236 C 104.279 148.132, 105 146.981, 105 138.869 L 105 131.471 96.750 131.406 C 92.213 131.371, 85.724 131.510, 82.330 131.716" stroke="none" fill="black" fill-rule="evenodd"/>
</svg>