<svg xmlns="http://www.w3.org/2000/svg" width="300" height="300" viewBox="0 0 300 300" version="1.1">
	<path d="M 151.174 38.314 C 149.978 39.587, 149 41.665, 149 42.930 C 149 45.301, 155.115 54.470, 157.282 55.348 C 157.952 55.620, 156.925 55.894, 155 55.957 C 153.075 56.020, 148.800 56.736, 145.500 57.549 C 142.200 58.361, 136.252 59.457, 132.282 59.984 C 124.691 60.992, 121.732 62.205, 118.829 65.500 C 114.643 70.250, 118.768 77, 125.857 77 C 129.657 77, 172.326 68.534, 174.122 67.424 C 175.365 66.657, 175.216 69.384, 173.947 70.653 C 173.368 71.232, 172.529 75.329, 172.082 79.758 C 171.306 87.459, 167.916 97, 165.956 97 C 165.480 97, 164.795 98.577, 164.433 100.504 C 163.144 107.377, 168.817 111.398, 173.945 107.245 C 178.158 103.834, 185.621 89.263, 187.073 81.614 C 188.544 73.863, 188.241 65.384, 186.429 63.571 C 184.564 61.706, 180.883 61.517, 179.200 63.200 C 178.267 64.133, 178 63.834, 178 61.855 C 178 58.822, 175.191 56, 172.171 56 C 170.441 56, 170 55.410, 170 53.095 C 170 49.233, 166.293 42.465, 162.220 38.888 C 158.187 35.347, 154.158 35.138, 151.174 38.314 M 95.003 40.123 C 89.918 42.150, 70.011 44.909, 55.972 45.532 C 48.013 45.885, 40.045 46.618, 38.266 47.159 C 31.948 49.084, 28.825 56.722, 32.861 60.374 C 35.043 62.349, 38.386 62.653, 46.129 61.580 C 49.225 61.151, 51.990 61.182, 52.273 61.650 C 52.557 62.117, 51.933 65.854, 50.888 69.954 C 49.693 74.640, 48.616 84.112, 47.988 95.454 C 47.439 105.379, 46.324 123.400, 45.510 135.500 C 43.471 165.819, 43.469 204.796, 45.506 207.705 C 46.919 209.723, 46.811 209.998, 43.756 212.163 C 35.097 218.302, 27.675 224.995, 24.703 229.346 C 21.110 234.606, 21.261 239.745, 25.069 241.872 C 28.901 244.013, 32.105 242.714, 40.236 235.724 C 44.231 232.289, 49.525 227.841, 52 225.838 C 54.475 223.836, 62.395 216.373, 69.599 209.254 L 82.699 196.310 83.594 225.405 C 84.086 241.407, 84.492 260.113, 84.495 266.973 L 84.500 279.447 87.173 280.389 C 90.832 281.680, 94.550 279.125, 96.092 274.259 C 96.907 271.689, 97.530 253.586, 98.064 217 C 98.853 162.965, 99.698 142.470, 102.412 111.500 C 104.035 92.993, 104.678 65.500, 103.551 62.827 C 102.416 60.137, 100.027 59.845, 96.970 62.021 C 93.275 64.653, 91.512 68.312, 90.169 76.144 C 88.395 86.490, 83.163 165.696, 83.033 184.173 L 83 188.847 80.047 187.373 C 76.437 185.573, 73.696 186.721, 67.444 192.652 C 61.878 197.933, 58.897 200.231, 58.339 199.672 C 58.080 199.413, 58.347 188.148, 58.934 174.639 C 59.520 161.130, 60 148.710, 60 147.039 C 60 144.647, 60.434 144, 62.040 144 C 63.162 144, 65.844 143.100, 68 142 C 70.156 140.900, 73.413 140, 75.238 140 C 82.438 140, 85.335 134.244, 80.545 129.455 C 77.936 126.846, 76.444 126.676, 66.750 127.887 L 61 128.605 61.024 124.553 C 61.046 120.708, 61.290 120.386, 65.774 118.280 C 68.373 117.058, 71.175 115.623, 72 115.089 C 72.825 114.556, 74.767 113.851, 76.316 113.524 C 80.031 112.739, 82.651 107.090, 80.860 103.727 C 78.250 98.828, 74.370 97.900, 67.152 100.446 C 64.897 101.242, 62.841 101.552, 62.584 101.135 C 62.326 100.718, 62.489 95.330, 62.945 89.161 C 63.402 82.992, 63.537 74.132, 63.247 69.472 L 62.718 61 66.901 61 C 78.148 61, 101.407 52.845, 104.005 47.991 C 105.541 45.121, 103.667 40.413, 100.668 39.609 C 98.023 38.899, 98.084 38.894, 95.003 40.123 M 252.039 48.189 C 247.341 53.231, 249.999 57.890, 261.774 65.250 C 269.964 70.368, 274.151 70.230, 275.515 64.798 C 276.085 62.527, 275.445 61.320, 271.344 56.935 C 265.588 50.779, 258.929 46, 256.109 46 C 254.992 46, 253.160 46.985, 252.039 48.189 M 220.301 50.750 C 219.198 51.712, 217.513 54.021, 216.555 55.879 C 214.654 59.571, 214.680 60.439, 217.590 90.887 C 218.398 99.349, 218.895 106.439, 218.693 106.641 C 218.491 106.843, 210.265 107.466, 200.413 108.027 C 190.561 108.587, 175.975 109.904, 168 110.953 C 160.025 112.002, 147.650 113.141, 140.500 113.484 C 126.052 114.177, 106.179 116.810, 104.250 118.288 C 102.586 119.562, 102.652 127.141, 104.347 129.459 C 105.547 131.102, 106.658 131.231, 114.597 130.651 C 119.493 130.294, 134.300 129.360, 147.500 128.575 C 160.700 127.791, 172.175 126.894, 173 126.583 C 174.763 125.918, 220.193 122.860, 220.705 123.372 C 220.897 123.564, 221.492 128.710, 222.027 134.809 C 223.160 147.718, 225.531 160.739, 231.132 184.804 C 235.089 201.806, 235.128 202.155, 233.347 204.804 C 231.234 207.948, 231.415 207.626, 222.271 224.500 C 218.396 231.650, 213.150 241.089, 210.613 245.476 C 205.883 253.654, 204.702 259.302, 207.200 261.800 C 208.878 263.478, 214.132 263.296, 216.740 261.470 C 217.941 260.628, 223.498 252.295, 229.087 242.952 C 234.676 233.608, 239.562 225.770, 239.945 225.534 C 240.327 225.298, 241.679 228.343, 242.949 232.302 C 246.010 241.848, 257.416 265.102, 260.420 267.925 C 263.266 270.599, 269.820 271.702, 272.941 270.032 C 276.069 268.357, 278 263.074, 278 256.187 C 278 251.763, 277.548 249.901, 276.171 248.655 C 273.707 246.425, 270.479 246.569, 268.203 249.013 C 266.347 251.005, 266.302 250.958, 263.688 244.263 C 257.304 227.907, 254.154 219.055, 252.528 212.901 L 250.785 206.301 253.352 202.235 C 254.764 199.998, 258.483 193.518, 261.618 187.834 C 264.752 182.150, 267.638 177.275, 268.031 177 C 269.284 176.123, 275.649 162.733, 278.013 156 C 280.540 148.805, 282.164 145.931, 286.173 141.555 C 290.624 136.696, 291.511 134.416, 290.128 131.382 C 289.039 128.991, 288.541 128.798, 284.765 129.305 C 281.156 129.789, 279.627 130.902, 273.255 137.681 C 268.484 142.759, 264.845 147.779, 262.878 152 C 258.441 161.519, 246.001 183, 244.925 183 C 244.416 183, 244 181.795, 244 180.322 C 244 178.850, 242.670 171.087, 241.045 163.072 C 238.062 148.363, 235.651 134.386, 234.626 125.861 L 234.069 121.222 239.784 120.568 C 253.953 118.947, 261.464 116.464, 265.417 112.094 C 269.017 108.113, 267.025 101.104, 262.190 100.739 C 261.183 100.664, 258.816 101.329, 256.930 102.219 C 253.008 104.068, 233.942 106.243, 232.631 104.991 C 231.527 103.937, 229.228 82.532, 228.353 65.162 C 227.879 55.747, 227.266 51.409, 226.269 50.412 C 224.394 48.537, 222.728 48.631, 220.301 50.750 M 135.026 80.452 C 133.071 84.104, 134.265 93.541, 137.378 99.052 C 140.750 105.020, 143.626 107.571, 148.460 108.882 C 156.296 111.005, 159.998 104.687, 154.032 99.371 C 152.400 97.917, 149.387 93.153, 147.337 88.784 C 142.350 78.157, 137.875 75.128, 135.026 80.452 M 144.369 134.454 C 140.850 136.919, 140.119 145.195, 139.532 189.197 C 139.226 212.131, 138.698 232.926, 138.357 235.409 C 137.787 239.569, 137.941 240.016, 140.323 241.101 C 144.703 243.097, 154.318 240.598, 162.218 235.411 C 169.878 230.381, 171 230.106, 171 233.259 C 171 236.810, 174.366 238.379, 177.976 236.512 C 181.322 234.782, 185.644 228.028, 186.662 222.939 C 187.039 221.056, 188.394 218.691, 189.674 217.685 C 192.577 215.401, 192.732 210.972, 189.994 208.495 C 188.088 206.770, 188.020 205.854, 188.620 190.090 C 189.251 173.508, 188.188 158.783, 185.774 150.667 C 185.147 148.559, 183.096 145.296, 181.217 143.417 C 176.642 138.842, 170.860 138.700, 162.427 142.953 C 159.207 144.577, 156.528 145.815, 156.472 145.703 C 156.417 145.591, 155.755 143.555, 155.002 141.178 C 153.694 137.050, 150.022 133, 147.588 133 C 146.959 133, 145.511 133.654, 144.369 134.454 M 162.250 160.984 L 156 164.949 156 176.083 C 156 187.190, 156.006 187.215, 158.292 186.642 C 159.552 186.325, 163.152 185.765, 166.292 185.396 L 172 184.725 172 172.444 C 172 159.720, 171.584 156.993, 169.643 157.010 C 169.014 157.015, 165.688 158.803, 162.250 160.984 M 165 200.435 C 155.463 203.773, 155.175 203.978, 154.627 207.821 C 153.296 217.150, 152.924 223, 153.662 223 C 154.105 223, 158.413 221.125, 163.234 218.834 L 172 214.668 172 206.834 C 172 198.129, 171.886 198.025, 165 200.435" stroke="none" fill="black" fill-rule="evenodd"/>
</svg>