<svg xmlns="http://www.w3.org/2000/svg" width="300" height="300" viewBox="0 0 300 300" version="1.1">
	<path d="M 158.370 10.042 C 157.198 10.485, 150.823 17.069, 144.203 24.673 C 133.021 37.517, 114.915 55.879, 96.996 72.547 C 91.743 77.433, 88.293 79.823, 85.496 80.514 C 81.997 81.377, 81.385 81.966, 80.574 85.248 C 79.765 88.522, 79.945 89.313, 81.998 91.498 C 83.291 92.874, 85.133 94, 86.093 94 C 91.213 94, 95.727 110.742, 97.012 134.500 C 98.327 158.817, 98.349 240.051, 97.040 241.360 C 95.157 243.243, 95.945 245.663, 100.105 250.777 L 104.210 255.824 111.058 255.824 C 114.824 255.824, 118.402 256.131, 119.010 256.506 C 121.483 258.035, 210.753 247.936, 216.750 245.450 C 219.669 244.239, 220 243.685, 220 240.003 C 220 236.327, 219.665 235.763, 216.760 234.541 C 214.978 233.792, 213.160 233.401, 212.720 233.673 C 212.280 233.945, 212.275 232.892, 212.710 231.334 C 213.144 229.775, 213.480 221.525, 213.456 213 C 213.421 200.331, 212.906 194.852, 210.636 183 C 203.920 147.929, 202.854 141.538, 200.957 125 C 196.852 89.206, 193.341 75.539, 185.479 64.759 C 178.666 55.417, 176.992 54.491, 167.023 54.552 C 158.671 54.603, 158.249 54.726, 146 60.692 C 139.125 64.041, 132.600 67.054, 131.500 67.388 C 128.550 68.283, 123.290 73.555, 121.648 77.262 C 119.237 82.706, 119.020 83.924, 120.003 86.509 C 121.363 90.084, 125.269 89.836, 128 86 C 129.175 84.350, 130.723 83, 131.441 83 C 132.159 83, 138.541 80.145, 145.623 76.655 C 152.705 73.165, 160.891 69.738, 163.813 69.040 C 168.821 67.843, 169.261 67.896, 171.462 69.965 C 172.747 71.172, 174.992 74.820, 176.452 78.072 C 181.205 88.665, 183.340 98.990, 185.965 124.088 C 187.983 143.381, 190.095 156.984, 195.035 182.500 C 199.095 203.468, 200.173 212.266, 199.812 221.474 C 199.537 228.511, 199.243 229.575, 197.314 230.534 C 196.111 231.132, 194.311 232.543, 193.314 233.669 C 191.682 235.513, 189.198 235.891, 168.500 237.447 C 155.850 238.399, 140.100 239.803, 133.500 240.569 C 117.060 242.475, 113.385 242.420, 112.500 240.250 C 111.909 238.803, 110.229 209.255, 110.050 197.161 L 110 193.822 112.965 196.317 C 114.596 197.690, 117.634 199.082, 119.715 199.411 C 121.797 199.740, 134.300 199.619, 147.500 199.142 C 168.433 198.386, 172.099 198.010, 176.186 196.201 C 181.693 193.762, 184.495 190.109, 183.598 186.536 C 182.717 183.025, 179.821 181.703, 176.315 183.211 C 174.394 184.038, 167.682 184.365, 155.172 184.242 C 142.259 184.114, 134.779 184.495, 129.856 185.530 C 126.013 186.339, 120.492 187, 117.587 187 C 113.098 187, 112.143 187.338, 111.220 189.250 C 110.294 191.170, 110.125 190.692, 110.068 185.987 C 110.030 182.955, 109.534 166.530, 108.963 149.487 C 107.815 115.167, 107.158 110.868, 101.240 99 C 99.183 94.875, 97.369 91.218, 97.208 90.874 C 97.047 90.529, 98.418 89.361, 100.253 88.278 C 105.262 85.323, 127.351 65.532, 136.939 55.409 C 150.720 40.859, 165.899 22.027, 166.969 18.149 C 167.782 15.205, 167.645 14.318, 166.161 12.936 C 163.153 10.133, 160.619 9.191, 158.370 10.042 M 124.414 138.500 C 119.591 141.274, 117.902 144.721, 119.856 147.801 C 120.310 148.517, 124.915 150.017, 130.091 151.135 C 138.369 152.924, 141.670 153.095, 157.557 152.557 C 177.358 151.886, 182.169 151.025, 184.471 147.739 C 186.468 144.887, 186.403 142.719, 184.240 140.049 C 182.516 137.919, 181.911 137.872, 154.317 137.688 C 137.006 137.572, 125.483 137.885, 124.414 138.500" stroke="none" fill="black" fill-rule="evenodd"/>
</svg>