<svg xmlns="http://www.w3.org/2000/svg" width="300" height="300" viewBox="0 0 300 300" version="1.1">
	<path d="M 189.567 18.327 C 186.287 20.726, 187.016 26.811, 191.372 33.373 C 195.666 39.842, 197.080 40.740, 200.510 39.177 C 203.882 37.641, 204.677 32.407, 202.466 26.300 C 199.571 18.304, 194.167 14.964, 189.567 18.327 M 227.500 37.696 C 225.300 37.894, 208.875 40.030, 191 42.443 C 173.125 44.857, 154.340 47.289, 149.255 47.849 C 135.620 49.350, 128.985 53.774, 132.313 59.145 C 134.262 62.289, 140.070 63.473, 147.766 62.295 C 151.470 61.728, 154.625 61.367, 154.778 61.493 C 154.931 61.619, 154.619 62.872, 154.085 64.276 C 152.574 68.252, 154.468 73.062, 159.486 77.986 C 161.969 80.423, 164 82.715, 164 83.079 C 164 83.444, 161.863 84.026, 159.250 84.374 C 148.651 85.783, 126.749 92.211, 120.250 95.821 C 117.698 97.238, 117.304 100.178, 119.429 101.941 C 121.936 104.022, 140.938 102.717, 158 99.293 C 166.525 97.583, 177.550 95.687, 182.500 95.081 C 203.974 92.451, 220.588 90.870, 235.852 90.003 C 254.382 88.951, 256.948 87.975, 256.985 81.966 C 256.995 80.180, 256.079 78.887, 253.882 77.589 C 251.294 76.061, 248.872 75.779, 239.632 75.930 C 233.509 76.030, 223.425 76.669, 217.222 77.349 C 207.137 78.455, 206.016 78.423, 206.616 77.043 C 206.985 76.194, 209.003 71.070, 211.099 65.656 C 215.544 54.178, 216.351 53.010, 219.872 52.970 C 221.318 52.953, 226.748 52.109, 231.940 51.095 C 242.010 49.127, 245 47.150, 245 42.461 C 245 37.365, 241.568 36.431, 227.500 37.696 M 54.323 39.600 C 53.985 40.481, 54.273 44.868, 54.962 49.350 C 56.980 62.468, 55.860 111.885, 53.157 129 C 48.862 156.197, 47.036 168.793, 45.471 182 C 43.458 198.992, 40.446 220.668, 38.385 233 C 36.466 244.474, 37.266 248, 41.787 248 C 45.607 248, 48.779 244.816, 49.504 240.254 C 49.833 238.189, 50.734 233.800, 51.508 230.500 C 52.282 227.200, 54.292 213.475, 55.975 200 C 57.658 186.525, 60.197 166.950, 61.616 156.500 C 63.036 146.050, 65.043 131.200, 66.077 123.500 C 67.490 112.978, 67.962 103.228, 67.978 84.250 L 68 59 70.557 59 C 71.963 59, 76.800 57.489, 81.307 55.641 C 85.813 53.794, 90.737 51.985, 92.250 51.622 L 95 50.962 95 62.821 C 95 69.344, 94.707 82.115, 94.348 91.202 L 93.697 107.724 85.351 108.313 C 76.161 108.962, 73.095 110.454, 70.587 115.500 C 69.340 118.009, 69.311 118.827, 70.414 120.500 C 72.503 123.670, 79.165 124.628, 85.415 122.658 C 94.321 119.851, 94 119.507, 94 131.845 C 94 144.097, 94.534 143.090, 84.224 150.269 C 80.883 152.596, 75.167 157.380, 71.522 160.900 C 64.102 168.068, 63.287 171.200, 68.137 173.910 C 72.027 176.084, 77.528 174.075, 85.723 167.490 C 91.198 163.090, 92.574 162.375, 92.884 163.772 C 93.383 166.020, 91.277 215.125, 89.843 234.684 L 88.729 249.869 86.319 248.290 C 84.276 246.951, 83.535 246.911, 81.455 248.024 C 78.451 249.632, 78.257 253.125, 80.568 264 C 82.458 272.898, 85.535 279.649, 88.623 281.673 C 91.870 283.800, 96.937 282.991, 99.168 279.989 C 101.484 276.872, 102.977 264.808, 103.005 249 C 103.016 242.675, 103.691 229.988, 104.505 220.807 C 105.319 211.625, 106.418 191.248, 106.948 175.524 C 107.834 149.200, 108.072 146.708, 109.955 144.063 C 112.547 140.423, 112.571 136.298, 110.013 134.160 C 108.109 132.569, 108 130.759, 107.374 90.500 C 106.781 52.299, 106.553 48.164, 104.858 44.783 C 103.832 42.739, 102.125 40.602, 101.062 40.033 C 98.327 38.570, 92.187 38.827, 87.500 40.603 C 85.300 41.437, 80.800 43.058, 77.500 44.207 C 74.200 45.356, 70.310 47.126, 68.856 48.140 C 66.218 49.981, 66.212 49.979, 65.570 47.422 C 64.296 42.347, 60.690 38.026, 57.719 38.012 C 56.083 38.005, 54.684 38.659, 54.323 39.600 M 186 57.522 C 180.225 58.236, 172.025 59.123, 167.778 59.493 L 160.056 60.165 164.464 63.833 C 166.889 65.850, 168.901 67.832, 168.936 68.239 C 169.106 70.209, 173.022 73.477, 177.782 75.622 C 180.687 76.932, 183.323 78.677, 183.639 79.502 C 184.592 81.986, 191 81.094, 191 78.476 C 191 77.756, 191.357 77.017, 191.793 76.833 C 193.484 76.122, 197.002 69.120, 197.044 66.382 C 197.068 64.797, 197.690 61.813, 198.426 59.750 C 199.984 55.385, 201.333 55.627, 186 57.522 M 192 112.042 C 182.357 112.907, 162.832 116.334, 158.847 117.860 C 157.388 118.419, 155.902 119.350, 155.544 119.929 C 155.127 120.603, 153.902 120.248, 152.137 118.943 C 149.870 117.267, 148.892 117.091, 146.635 117.949 L 143.890 118.992 144.108 139.246 C 144.276 154.767, 144.649 159.880, 145.707 161.127 C 146.493 162.054, 147.218 165.619, 147.390 169.405 C 147.691 176.018, 149.272 178.876, 152.683 178.968 C 153.333 178.986, 154.147 179.888, 154.492 180.974 C 154.836 182.060, 156.277 183.860, 157.694 184.974 C 160.816 187.430, 168.840 187.684, 176.750 185.579 L 182 184.181 182 190.091 C 182 194.142, 181.607 196.006, 180.750 196.018 C 175.828 196.090, 158.436 199.241, 155.997 200.502 C 153.354 201.868, 153 202.573, 153 206.469 C 153 209.900, 153.496 211.234, 155.223 212.443 C 158.116 214.470, 160.752 214.407, 172.056 212.041 C 177.203 210.963, 181.629 210.296, 181.890 210.557 C 182.799 211.466, 179.865 240.362, 178.452 244.417 C 177.669 246.663, 177.023 249.415, 177.015 250.532 C 177.001 252.464, 175.894 252.648, 154.750 254.234 C 141.922 255.196, 130.171 256.598, 127 257.545 C 118.175 260.180, 114.879 264.717, 118.345 269.458 C 119.560 271.119, 120.753 271.239, 130.595 270.696 C 136.593 270.365, 146 269.564, 151.500 268.915 C 162.103 267.665, 220.359 267.147, 254.500 267.999 C 276.496 268.548, 284.058 267.574, 288.680 263.599 C 290.882 261.705, 291.188 260.818, 290.644 257.918 C 289.683 252.796, 287.388 251.811, 280.879 253.726 C 276.156 255.116, 273.244 255.166, 257 254.139 C 246.825 253.496, 226.638 252.977, 212.139 252.985 C 186.914 252.999, 185.867 252.925, 187.844 251.250 C 190.607 248.910, 193.558 236.683, 195.072 221.299 C 196.423 207.580, 195.330 208.962, 206 207.484 C 213.199 206.486, 216.826 205.036, 218.984 202.293 C 221.533 199.053, 221.522 197.564, 218.931 195.150 C 217.073 193.419, 215.786 193.277, 206.300 193.762 L 195.738 194.301 196.181 188.171 C 196.425 184.800, 196.909 181.758, 197.256 181.411 C 197.603 181.064, 200.950 180.149, 204.694 179.379 C 208.682 178.558, 211.914 177.305, 212.500 176.353 C 213.050 175.459, 214.975 173.355, 216.778 171.678 C 218.581 170, 221.773 165.899, 223.871 162.564 C 232.587 148.711, 235.908 134.330, 232.484 125.268 C 227.914 113.177, 217.449 109.758, 192 112.042 M 186.500 127.076 C 183.750 127.521, 178.575 128.199, 175 128.582 C 168.152 129.316, 165.298 130.461, 160.676 134.330 C 158.178 136.421, 157.933 137.125, 158.554 140.434 C 159.349 144.675, 158.564 144.628, 173.787 141.351 C 181.616 139.666, 182.230 139.250, 185.928 133.105 C 187.440 130.594, 189.705 128.511, 191.928 127.587 C 195.865 125.951, 194.341 125.808, 186.500 127.076 M 198.250 126.689 C 200.559 127.293, 200.624 133.238, 198.343 135.128 C 196.903 136.320, 198.052 136.642, 207.093 137.583 C 212.817 138.179, 217.650 138.553, 217.834 138.416 C 218.710 137.759, 218.973 130.339, 218.163 129.138 C 217.657 128.389, 215.276 127.396, 212.872 126.932 C 208.429 126.073, 195.045 125.852, 198.250 126.689 M 206.500 150.664 C 204.850 150.864, 202.037 151.267, 200.250 151.559 L 197 152.091 197 160.387 L 197 168.683 201.510 167.999 C 203.990 167.622, 206.167 167.131, 206.348 166.907 C 207.847 165.051, 213.963 154.028, 214.480 152.250 C 215.178 149.853, 214.421 149.702, 206.500 150.664 M 174.500 155.645 C 172.850 155.836, 169.171 156.468, 166.324 157.051 L 161.149 158.110 160.824 166.109 C 160.516 173.709, 160.600 174.078, 162.500 173.517 C 163.600 173.193, 168.438 172.403, 173.250 171.762 L 182 170.596 182 162.798 C 182 154.164, 182.578 154.714, 174.500 155.645" stroke="none" fill="black" fill-rule="evenodd"/>
</svg>