<svg xmlns="http://www.w3.org/2000/svg" width="300" height="300" viewBox="0 0 300 300" version="1.1">
	<path d="M 188 24.783 C 185.896 25.425, 183.049 29.153, 183.022 31.300 C 183.010 32.289, 182.270 34.539, 181.379 36.300 C 179.757 39.501, 170.187 54.057, 169.085 55 C 168.763 55.275, 165.800 59.100, 162.500 63.500 C 159.200 67.900, 156.162 71.650, 155.750 71.833 C 155.338 72.017, 154.988 72.692, 154.973 73.333 C 154.948 74.462, 147.177 84.514, 140 92.704 C 138.075 94.901, 135.600 97.953, 134.500 99.487 C 131.545 103.607, 114.642 123.976, 114.391 123.720 C 114.272 123.599, 113.217 113.825, 112.046 102 C 110.875 90.175, 109.060 72.400, 108.012 62.500 L 106.108 44.500 102.568 41.250 C 98.426 37.446, 97.986 37.409, 87.500 40 C 83.100 41.087, 77.700 41.993, 75.500 42.013 C 69.551 42.067, 62.833 43.860, 61.334 45.794 C 59.739 47.853, 60.501 51.896, 62.816 53.656 C 65.252 55.508, 73.186 55.247, 83.449 52.978 C 88.371 51.890, 92.701 51, 93.071 51 C 94.029 51, 95.875 66.493, 97.481 88 C 98.241 98.175, 99.653 115.164, 100.620 125.754 L 102.378 145.008 97.808 149.254 C 95.294 151.589, 89.246 156.178, 84.369 159.451 C 79.491 162.725, 72.885 167.385, 69.689 169.807 C 66.493 172.229, 63.715 174.049, 63.517 173.850 C 63.319 173.652, 63.870 166.920, 64.743 158.891 L 66.330 144.292 71.915 143.243 C 74.987 142.667, 81.550 140.238, 86.500 137.847 C 94.262 134.098, 95.543 133.124, 95.815 130.769 C 96.202 127.407, 92.178 123, 88.721 123 C 87.417 123, 83.043 124.125, 79 125.500 C 66.339 129.806, 67.401 131.466, 66.682 106.250 C 65.969 81.227, 64.642 71.027, 59.561 51.500 C 55.379 35.428, 53.138 31.862, 48.293 33.566 C 43.213 35.353, 43.185 38.154, 48.058 57.214 L 52.478 74.500 52.807 109.619 C 53.173 148.740, 52.635 155.378, 46.457 188 C 41.650 213.383, 37.952 231.918, 36.981 235.500 C 36.534 237.150, 35.587 241.593, 34.876 245.373 L 33.584 252.246 36.348 254.623 C 39.786 257.581, 40.163 257.575, 43.806 254.510 C 46.463 252.274, 47.234 250.104, 51.355 233.260 C 53.879 222.942, 56.414 211.350, 56.989 207.500 C 58.971 194.229, 59.267 193.462, 62.263 193.817 C 64.382 194.069, 66.341 192.822, 71.718 187.798 C 75.448 184.313, 82.939 178.095, 88.364 173.981 C 93.789 169.866, 99.253 165.710, 100.506 164.745 L 102.785 162.990 103.526 180.745 C 104.227 197.548, 103.355 249.961, 102.357 250.971 C 102.101 251.230, 101.514 250.832, 101.053 250.086 C 100.091 248.530, 95.003 249.399, 93.775 251.329 C 93.366 251.973, 93.024 254.472, 93.015 256.882 C 93.002 260.731, 93.531 261.794, 97.368 265.632 C 102.754 271.017, 106.051 271.349, 110.717 266.975 C 116.254 261.786, 117.042 257.036, 117.677 225 C 117.988 209.325, 117.746 183.945, 117.140 168.599 L 116.038 140.699 129.360 126.599 C 136.688 118.845, 145.679 108.744, 149.341 104.154 C 153.004 99.564, 156 96.020, 156 96.278 C 156 96.537, 155.392 98.493, 154.648 100.624 C 151.256 110.352, 150.634 130.389, 151.882 189.784 C 152.855 236.116, 152.840 247.283, 151.800 248.948 C 150.776 250.588, 150.768 251.399, 151.759 252.986 C 152.442 254.079, 153 255.853, 153 256.930 C 153 259.293, 156.589 262, 159.723 262 C 160.975 262, 162.833 261.167, 163.850 260.150 C 165.244 258.756, 167.898 258.135, 174.600 257.635 C 179.495 257.270, 195.200 254.734, 209.500 252 C 236.324 246.871, 265.263 242.488, 279.825 241.350 C 287.022 240.788, 288.355 240.388, 289.658 238.399 C 291.403 235.736, 290.752 232.752, 287.776 229.776 C 283.915 225.915, 268.579 226.321, 243 230.961 C 237.225 232.009, 230.320 233.071, 227.655 233.321 C 222.848 233.772, 222.815 233.755, 223.443 231.138 C 223.792 229.687, 224.542 217.025, 225.110 203 C 225.679 188.975, 226.290 177.022, 226.469 176.437 C 226.648 175.852, 231.903 173.208, 238.147 170.561 C 253.597 164.013, 255.484 162.044, 250.961 157.189 C 248.255 154.284, 245.635 154.424, 235.837 158 C 231.316 159.650, 227.253 161, 226.809 161 C 226.364 161, 226.031 157.963, 226.068 154.250 L 226.136 147.500 234.142 143.574 C 243.711 138.882, 252 131.585, 252 127.854 C 252 124.861, 249.201 122, 246.273 122 C 245.135 122, 241.346 123.705, 237.852 125.788 C 234.358 127.872, 230.312 130.089, 228.861 130.716 L 226.222 131.856 225.630 124.678 C 224.339 109.001, 223.782 95.006, 224.358 92.712 C 224.925 90.452, 225.662 90.212, 235.732 89.010 C 241.654 88.303, 249.537 87.720, 253.250 87.715 C 261.039 87.704, 262.530 86.636, 261.608 81.723 C 260.644 76.585, 256.591 74.772, 244.799 74.204 C 235.849 73.773, 235.003 73.565, 235.527 71.914 C 236.375 69.244, 234.171 61.970, 231.408 58.317 C 230.084 56.566, 229 54.860, 229 54.525 C 229 54.190, 227.537 51.927, 225.750 49.497 C 221.468 43.675, 217.010 42.535, 213.246 46.300 C 211.032 48.513, 210.712 49.636, 210.875 54.615 C 211.077 60.810, 212.307 63.242, 215.007 62.787 C 217.083 62.437, 222.062 68.140, 223.609 72.639 L 224.736 75.917 220.118 76.567 C 217.578 76.925, 210.100 78.312, 203.500 79.649 C 196.900 80.987, 188.443 82.503, 184.706 83.019 C 180.969 83.534, 175.248 85.032, 171.992 86.347 C 166.513 88.560, 165.962 88.615, 164.580 87.089 C 163.238 85.605, 163.478 84.983, 166.967 80.901 C 171.505 75.591, 192.964 43.791, 194.767 39.703 C 198.244 31.819, 194.195 22.893, 188 24.783 M 207 93.562 C 185.411 98.163, 179.799 99.065, 174 98.866 L 167.500 98.643 166.679 111.572 C 165.464 130.706, 165.393 154.608, 166.412 201.250 L 167.324 243 171.412 242.915 C 173.660 242.869, 183.132 241.407, 192.460 239.665 C 208.519 236.668, 209.457 236.367, 210.111 234 C 210.756 231.660, 211.334 181, 210.715 181 C 210.559 181, 207.971 181.853, 204.965 182.895 C 196.275 185.909, 189.903 186.404, 183.559 184.560 C 180.078 183.548, 177.448 182.087, 176.498 180.637 C 174.402 177.438, 175.506 172.546, 178.649 171.114 C 181.702 169.723, 181.571 169.714, 183.286 171.429 C 184.524 172.667, 186.466 172.367, 197.854 169.179 L 210.993 165.500 210.996 158.678 L 211 151.856 205.750 152.497 C 202.863 152.850, 193.484 153.220, 184.908 153.319 C 172.953 153.458, 168.929 153.180, 167.658 152.128 C 161.444 146.983, 173.784 138.228, 186.500 138.760 C 191.648 138.975, 206.801 137.397, 209.487 136.366 C 210.710 135.897, 211 133.685, 211 124.813 C 211 118.779, 211.494 109.656, 212.097 104.542 C 213.587 91.901, 213.696 92.135, 207 93.562" stroke="none" fill="black" fill-rule="evenodd"/>
</svg>