<svg xmlns="http://www.w3.org/2000/svg" width="300" height="300" viewBox="0 0 300 300" version="1.1">
	<path d="M 194.535 38.731 C 193.454 39.005, 189.193 41.508, 185.067 44.292 C 177.843 49.167, 170.522 53.566, 161 58.752 C 149.961 64.765, 139.875 72.557, 137.725 76.732 C 135.424 81.201, 135.545 88.388, 138.088 98.333 C 143.739 120.431, 146.691 148.414, 143.500 149.638 C 141.267 150.495, 141.686 154.356, 144.275 156.789 C 147.540 159.856, 158.013 162.281, 166.031 161.828 L 172.711 161.451 170.291 168.975 C 166.711 180.103, 160.586 191.964, 156.075 196.500 C 153.888 198.700, 152.076 201.221, 152.049 202.102 C 151.993 203.945, 142.543 204.984, 125.750 204.994 L 116 205 115.994 192.250 C 115.988 177.711, 114.483 142.960, 112.995 123 C 111.464 102.455, 106.989 63.944, 105.671 59.968 C 104.355 55.999, 100.742 51, 99.189 51 C 98.627 51, 98.002 50.506, 97.801 49.902 C 97.599 49.298, 95.376 48.571, 92.861 48.288 C 89.042 47.857, 87.032 48.368, 80.672 51.386 C 71.987 55.508, 72 55.505, 72 53.540 C 72 51.777, 67.043 47, 65.212 47 C 64.493 47, 62.781 48.213, 61.407 49.695 C 59.311 51.956, 58.957 53.204, 59.205 57.445 C 59.429 61.283, 59.875 62.474, 61.056 62.393 C 62.220 62.314, 62.504 63.019, 62.184 65.199 C 61.878 67.283, 62.426 68.824, 64.108 70.615 C 66.390 73.044, 66.457 73.614, 66.387 89.809 C 66.348 98.989, 65.550 113.025, 64.614 121 C 61.527 147.308, 58.014 171.364, 55.923 180.500 C 52.857 193.894, 44.866 218.222, 42.804 220.439 C 38.984 224.544, 41.705 231, 47.256 231 C 54.245 231, 62.128 211.467, 70.056 174.500 C 71.590 167.350, 72.880 162.738, 72.922 164.250 C 73.158 172.590, 85.494 173.420, 89.793 165.386 C 91.187 162.782, 98.806 157.473, 99.768 158.435 C 100.917 159.584, 101.299 242.441, 100.201 252.307 C 99.661 257.150, 98.975 261.359, 98.675 261.659 C 98.375 261.959, 97.148 261.517, 95.948 260.676 C 94.243 259.482, 93.243 259.388, 91.360 260.246 C 86.329 262.538, 87.474 269.575, 93.778 275.110 C 96.713 277.687, 97.891 278.117, 100.744 277.654 C 104.992 276.965, 106.473 275.766, 109.483 270.580 C 113.102 264.345, 115.067 252.440, 115.719 232.803 L 116.306 215.107 119.166 216.586 C 124.375 219.279, 136.497 219.382, 164.874 216.974 C 179.796 215.707, 192.211 214.878, 192.463 215.130 C 192.716 215.382, 193.438 229.824, 194.068 247.222 C 195.105 275.838, 195.061 279.074, 193.607 281.150 C 191.392 284.313, 191.591 286.267, 194.396 288.902 C 198.108 292.389, 202.020 291.459, 204.500 286.500 C 206.396 282.708, 206.490 280.719, 206.302 248.250 L 206.104 214 218.302 213.996 C 240.047 213.989, 256.796 209.888, 261.976 203.303 C 264.486 200.112, 264.534 197.881, 262.156 194.944 C 260.222 192.556, 254.439 191.736, 253.162 193.669 C 251.837 195.674, 243.108 197.062, 224.752 198.188 C 214.441 198.821, 205.784 199.118, 205.515 198.849 C 205.137 198.471, 203.099 157.035, 203.424 156.338 C 203.466 156.249, 204.738 156.414, 206.250 156.705 C 208.319 157.102, 209 157.814, 209 159.581 C 209 162.135, 211.571 164, 215.089 164 C 218.432 164, 223.926 157.524, 229.123 147.456 C 237.586 131.061, 241.329 115.908, 240.838 100.030 C 240.512 89.511, 240.395 89.017, 237.535 86.034 C 231.094 79.317, 217.163 75.292, 204.309 76.434 C 200.354 76.785, 193.379 77.753, 188.809 78.586 C 184.239 79.418, 175.403 80.993, 169.174 82.088 C 162.945 83.182, 156.064 84.791, 153.883 85.664 C 151.702 86.536, 149.786 87.082, 149.627 86.875 C 149.467 86.669, 148.581 85.380, 147.657 84.011 L 145.977 81.523 159.739 74.804 C 184.620 62.657, 202.531 52.052, 203.541 48.871 C 204.722 45.148, 203.185 40.592, 200.294 39.250 C 198.813 38.563, 197.353 38.052, 197.051 38.116 C 196.748 38.180, 195.616 38.456, 194.535 38.731 M 82.929 64.750 L 77.500 67.500 77.472 92.005 L 77.444 116.511 81.254 116.147 C 85.582 115.734, 90.455 117.455, 93.457 120.457 C 95.968 122.968, 96.324 130.552, 94 132.021 C 91.748 133.444, 88.334 133.191, 86.617 131.474 C 85.352 130.209, 84.342 130.137, 80.709 131.052 L 76.327 132.155 75.070 143.327 C 74.378 149.472, 73.600 155.850, 73.340 157.500 C 72.946 159.998, 73.054 160.207, 73.983 158.750 C 74.597 157.787, 75.644 157, 76.310 157 C 76.976 157, 78.641 155.988, 80.010 154.750 C 83.193 151.874, 89.203 148.092, 95.250 145.162 C 99.795 142.959, 100 142.679, 99.991 138.680 C 99.963 125.440, 94.565 68.617, 92.926 64.304 C 91.782 61.298, 89.549 61.397, 82.929 64.750 M 203.250 90.706 C 201.110 91.118, 201 91.592, 201 100.370 C 201 105.765, 201.458 110.058, 202.103 110.703 C 202.723 111.323, 203.052 114.032, 202.853 116.892 C 202.565 121.040, 202.777 121.899, 204 121.552 C 205.735 121.060, 212.521 120.656, 215.625 120.860 C 218.112 121.024, 221.016 126.224, 220.252 129.145 C 219.584 131.697, 215.787 133.568, 208.567 134.903 C 205.326 135.502, 202.562 136.107, 202.425 136.246 C 202.289 136.386, 202.395 137.637, 202.662 139.026 C 203.053 141.062, 204.286 141.951, 209.013 143.607 L 214.878 145.662 217.327 140.081 C 220.787 132.197, 222.623 126.007, 224.963 114.343 C 228.779 95.317, 227.726 92.412, 216.486 90.965 C 209.197 90.026, 207 89.983, 203.250 90.706 M 179 93.694 C 174.220 94.606, 167.966 94.955, 161.755 94.657 C 152.182 94.198, 152.018 94.227, 152.505 96.345 C 152.778 97.530, 154.351 104.266, 156.001 111.314 C 157.650 118.361, 159 125.916, 159 128.103 L 159 132.078 161.196 130.032 C 163.961 127.456, 168.219 126.218, 179.143 124.815 L 187.786 123.704 188.382 120.102 C 188.710 118.121, 188.999 114.025, 189.025 111 C 189.050 107.975, 189.723 102.800, 190.520 99.500 C 191.317 96.200, 191.976 93.162, 191.984 92.750 C 192.006 91.709, 187.811 92.014, 179 93.694 M 159 141.796 C 159 144.018, 158.727 146.548, 158.393 147.418 C 157.584 149.527, 159.138 149.456, 170.391 146.871 C 178.980 144.898, 179.742 144.522, 180.796 141.731 L 181.932 138.719 171.881 139.411 C 164.743 139.903, 161.419 139.763, 160.415 138.929 C 159.235 137.950, 159 138.426, 159 141.796 M 187.917 162.254 C 187.046 164.589, 185.549 168.975, 184.589 172 C 182.391 178.925, 173.486 196.725, 170.643 199.875 L 168.500 202.250 174 201.644 C 177.025 201.310, 182.313 200.746, 185.750 200.390 L 192 199.742 191.996 191.621 C 191.990 179.479, 190.776 157.999, 190.096 158.004 C 189.768 158.006, 188.788 159.918, 187.917 162.254" stroke="none" fill="black" fill-rule="evenodd"/>
</svg>