<svg xmlns="http://www.w3.org/2000/svg" width="300" height="300" viewBox="0 0 300 300" version="1.1">
	<path d="M 213.174 9.314 C 210.621 12.033, 210.509 13.150, 212.422 16.850 C 214.702 21.257, 228.923 33, 231.981 33 C 235.025 33, 237 31.353, 237 28.815 C 237 26.833, 222.222 10.250, 218.723 8.306 C 215.739 6.648, 215.667 6.661, 213.174 9.314 M 189.801 21.250 C 188.018 24.057, 186.283 33.692, 185.398 45.701 C 184.743 54.596, 184.634 54.920, 182.110 55.426 C 180.675 55.713, 164.934 56.178, 147.132 56.458 C 117.864 56.918, 114.607 57.136, 113.132 58.733 C 112.103 59.848, 110.429 60.378, 108.601 60.169 L 105.702 59.838 106.361 65.169 C 109.385 89.652, 109.425 93.849, 106.956 127.500 C 105.497 147.381, 101.872 177.918, 99.478 190.500 C 98.745 194.350, 97.637 200.425, 97.016 204 C 96.395 207.575, 95.266 213.200, 94.507 216.500 C 93.748 219.800, 92.398 225.875, 91.507 230 C 90.616 234.125, 89.462 239.387, 88.943 241.693 C 88.424 243.999, 88 246.981, 88 248.321 C 88 251.406, 84.863 258.923, 84.274 257.250 C 83.659 255.506, 79.505 255.686, 77.981 257.523 C 76.153 259.725, 79.362 266.493, 82.936 267.973 C 90.149 270.961, 96.239 263.579, 98.999 248.500 C 99.503 245.750, 101.307 236.975, 103.009 229 C 104.712 221.025, 106.488 212.025, 106.957 209 C 107.427 205.975, 108.269 201.475, 108.829 199 C 110.694 190.755, 113.711 167.384, 116.508 139.500 C 118.567 118.969, 118.563 77.846, 116.500 72 C 115.675 69.662, 115 67.468, 115.001 67.124 C 115.001 66.781, 130.687 66.416, 149.858 66.313 L 184.714 66.126 185.286 78.313 C 185.600 85.016, 186.323 93.875, 186.892 98 C 187.461 102.125, 188.413 110, 189.007 115.500 C 190.085 125.479, 191.691 135.927, 194.617 152 C 195.468 156.675, 196.609 162.975, 197.151 166 C 197.694 169.025, 198.742 174.200, 199.480 177.500 C 200.218 180.800, 201.361 186.200, 202.019 189.500 C 202.678 192.800, 203.843 197.493, 204.609 199.928 C 205.374 202.364, 206 205.387, 206 206.647 C 206 209.037, 202.176 217.254, 200.795 217.833 C 200.358 218.017, 200 218.604, 200 219.138 C 200 220.927, 191.650 232.457, 187.632 236.217 C 185.447 238.261, 181.250 241.153, 178.305 242.643 C 172.645 245.507, 170.713 248.744, 173.011 251.513 C 174.941 253.839, 178.294 253.292, 185.677 249.448 C 194.591 244.807, 201.193 238.289, 209.154 226.272 C 210.745 223.871, 210.849 223.850, 211.850 225.720 C 212.423 226.790, 214.056 230.778, 215.479 234.583 C 218.515 242.698, 227.503 257.975, 232.363 263.281 C 236.068 267.325, 238.344 267.848, 241.777 265.443 C 244.720 263.382, 244.581 260.398, 241.215 253.340 C 237.108 244.731, 235.042 242, 232.633 242 C 231.003 242, 229.824 240.576, 227.657 235.987 C 224.748 229.826, 222.035 222.958, 219.366 214.998 L 217.857 210.497 222.928 199.256 C 225.718 193.074, 228 187.743, 228 187.409 C 228 187.075, 228.633 185.384, 229.406 183.651 C 230.179 181.918, 231.606 178.250, 232.578 175.500 C 233.549 172.750, 234.651 170.050, 235.027 169.500 C 235.402 168.950, 237.159 164.225, 238.930 159 C 240.702 153.775, 243.219 147.372, 244.524 144.770 C 246.648 140.538, 246.737 139.880, 245.377 138.520 C 243.523 136.666, 243.541 136.667, 240.200 138.405 C 233.830 141.720, 230.150 148.201, 223.400 168 C 222.556 170.475, 221.279 173.850, 220.563 175.500 C 219.847 177.150, 218.006 181.765, 216.470 185.756 C 214.935 189.747, 213.469 192.803, 213.213 192.546 C 212.956 192.289, 212.398 190.374, 211.974 188.290 C 210.827 182.660, 209.333 175.625, 207.028 165 C 205.016 155.729, 204.529 153.077, 201.420 134.500 C 198.717 118.347, 195.022 81.040, 195.007 69.750 C 195 65.239, 195.138 64.999, 197.750 64.978 C 203.693 64.929, 223.084 61.175, 225.472 59.610 C 228.439 57.666, 229.035 52.334, 226.399 51.323 C 225.518 50.985, 221.130 51.204, 216.649 51.810 C 212.167 52.416, 205.307 53.177, 201.406 53.501 L 194.311 54.090 194.700 38.795 C 195.116 22.433, 194.751 19, 192.596 19 C 191.845 19, 190.587 20.012, 189.801 21.250 M 69.763 88.510 C 66.519 91.753, 60.652 118.157, 62.050 123.219 C 64.427 131.827, 71.676 133.400, 83.579 127.890 C 87.368 126.137, 92.369 124.487, 94.693 124.225 C 99.050 123.734, 101.296 122.039, 102.399 118.407 C 103.246 115.621, 99.599 111, 96.553 111 C 94.476 111, 79.635 116.519, 74.905 119.051 C 73.242 119.941, 73 119.714, 73 117.267 C 73 115.725, 74.095 109.616, 75.434 103.692 C 77.298 95.443, 77.634 92.250, 76.871 90.060 C 75.540 86.243, 72.658 85.614, 69.763 88.510 M 157.500 103.491 C 153.100 104.746, 144.870 106.578, 139.212 107.561 C 131.036 108.982, 128.415 109.858, 126.443 111.830 C 124.220 114.053, 124.107 114.528, 125.351 116.405 C 126.114 117.557, 127.585 118.656, 128.619 118.847 C 129.654 119.038, 130.797 119.488, 131.160 119.847 C 132.111 120.788, 130.305 146.660, 128.427 159 C 127.334 166.189, 126.935 174.241, 127.165 184.534 C 127.473 198.338, 127.709 199.973, 130.055 204.525 C 131.868 208.043, 134.023 210.356, 137.479 212.491 C 142.008 215.290, 143.018 215.500, 151.924 215.493 C 161.418 215.487, 161.585 215.444, 171.411 210.493 C 182.459 204.927, 185.905 201.560, 184.067 198.125 C 182.526 195.246, 179.551 195.430, 171.355 198.912 C 159.661 203.880, 152.337 205.382, 146.327 204.043 C 143.482 203.410, 140.749 202.353, 140.252 201.696 C 136.736 197.035, 135.792 181.015, 137.971 162.950 L 139.244 152.400 142.564 152.400 C 144.390 152.400, 147.035 151.784, 148.442 151.031 C 150.558 149.899, 151.421 149.887, 153.433 150.964 C 154.770 151.680, 156.622 151.975, 157.547 151.620 C 158.560 151.232, 157.987 152.390, 156.107 154.531 C 153.778 157.183, 153.137 158.697, 153.585 160.481 C 154.123 162.627, 153.788 162.941, 150.343 163.517 C 143.405 164.678, 139.555 166.607, 138.538 169.434 C 137.083 173.477, 138.850 175.444, 144.262 175.801 C 146.769 175.967, 150.435 175.427, 152.410 174.602 L 156 173.102 156 183.851 C 156 195.566, 156.572 197, 161.251 197 C 165.179 197, 166.595 193.158, 167.515 180 C 168.247 169.539, 168.263 169.488, 171.848 166.388 C 175.223 163.469, 175.368 163.104, 174.189 160.515 C 173.029 157.969, 172.615 157.806, 168.852 158.408 L 164.772 159.060 167.537 155.780 C 171.949 150.548, 173.373 146.314, 171.909 142.779 C 171.234 141.151, 169.773 139.482, 168.662 139.071 C 166.811 138.386, 166.636 137.412, 166.571 127.412 C 166.532 121.410, 166.178 115.825, 165.785 115 C 165.289 113.960, 166.055 112.882, 168.285 111.484 C 172.032 109.135, 172.902 105.654, 170.425 102.918 C 168.312 100.583, 167.582 100.615, 157.500 103.491 M 146.710 117.833 L 138.921 119.362 139.710 122.431 C 140.145 124.119, 140.478 129.425, 140.451 134.223 C 140.408 142.075, 140.559 142.804, 141.968 141.529 C 143.823 139.850, 152.699 137.696, 154.127 138.579 C 154.770 138.976, 155.029 135.871, 154.856 129.847 C 154.708 124.706, 154.936 119.487, 155.361 118.250 C 155.787 117.013, 155.767 116.068, 155.317 116.152 C 154.868 116.235, 150.995 116.992, 146.710 117.833 M 83 135.055 C 78.325 136.659, 73.118 137.978, 71.428 137.986 C 65.617 138.013, 59.298 140.867, 57.974 144.062 C 56.322 148.050, 58.013 150, 63.122 150 L 67 150 67 158.126 C 67 167.006, 65.313 179.064, 59.838 209.324 C 59.138 213.196, 57.625 217.475, 56.342 219.215 C 54.584 221.596, 54.308 222.706, 55.101 224.188 C 56.493 226.789, 60.443 228.162, 63.352 227.056 C 67.995 225.291, 70.330 217.872, 74.541 191.500 C 75.420 186, 76.614 179.205, 77.195 176.399 C 78.257 171.271, 77.865 153.820, 76.624 150.974 C 76.122 149.823, 77.016 149.137, 80.268 148.176 C 89.007 145.596, 101.295 140.225, 102.213 138.583 C 102.873 137.404, 102.674 136.152, 101.557 134.446 C 99.370 131.109, 93.986 131.286, 83 135.055" stroke="none" fill="black" fill-rule="evenodd"/>
</svg>