<svg xmlns="http://www.w3.org/2000/svg" width="300" height="300" viewBox="0 0 300 300" version="1.1">
	<path d="M 32.069 12.426 C 29.604 15.051, 29.503 17.064, 31.509 23.591 C 36.965 41.337, 37.814 85.287, 33.446 123.910 C 32.538 131.935, 29.320 154.925, 26.293 175 C 23.266 195.075, 20.725 214.184, 20.645 217.465 C 20.515 222.833, 20.740 223.549, 22.901 224.632 C 25.666 226.017, 29.556 224.940, 31.648 222.211 C 33.785 219.423, 34.885 214.550, 38.018 194 C 42.529 164.417, 41.906 166.938, 44.540 167.599 C 47.304 168.293, 55.135 165.001, 60.020 161.092 C 63.345 158.432, 71.176 154, 72.553 154 C 73.423 154, 72.146 223.598, 70.892 244.500 C 69.876 261.445, 69.863 261.509, 66.936 264.301 C 63.014 268.042, 63.009 272.163, 66.923 276.077 C 71.100 280.254, 76.811 280.202, 80.385 275.955 C 85.954 269.336, 86.923 258.877, 87.931 194.500 C 88.396 164.800, 89.036 128.350, 89.353 113.500 C 89.920 86.913, 92.068 56.101, 94.009 46.701 C 94.554 44.061, 95 36.306, 95 29.467 C 95 17.279, 94.945 16.970, 92.218 13.917 C 90.117 11.567, 88.340 10.681, 84.968 10.303 C 76.978 9.409, 57.412 20.436, 53.474 28.051 C 49.814 35.128, 53.609 46.885, 58.677 44.173 C 60.064 43.431, 60.911 41.700, 61.297 38.824 C 61.713 35.719, 62.617 34.023, 64.645 32.536 C 68.299 29.858, 79.220 25.018, 80.218 25.635 C 81.390 26.359, 81.184 29.317, 79.043 42.500 C 76.925 55.540, 74 87.145, 74 96.995 C 74 102.518, 73.814 103.076, 72.146 102.546 C 68.749 101.468, 58.295 101.772, 55.882 103.019 C 54.572 103.696, 52.435 105.206, 51.134 106.375 L 48.768 108.500 49.450 93 C 50.134 77.464, 48.833 47.338, 46.947 35 C 44.889 21.543, 40.555 11.901, 36.032 10.719 C 34.885 10.419, 33.323 11.092, 32.069 12.426 M 162.752 19.750 C 161.894 20.712, 160.173 23.525, 158.927 26 C 155.437 32.931, 146.716 43.412, 134.382 55.500 C 127.428 62.315, 122.887 67.581, 122.448 69.341 C 121.129 74.618, 123.545 79.420, 130.925 86.189 C 134.709 89.660, 139.660 95.307, 141.927 98.737 C 146.517 105.685, 149.629 107.275, 153.931 104.872 C 155.952 103.742, 156.566 102.535, 156.808 99.210 C 157.222 93.526, 153.346 86.532, 145.353 78.538 L 139.182 72.367 144.641 66.934 C 153.457 58.158, 169.050 39.807, 171.103 35.790 C 173.849 30.419, 173.612 23.952, 170.548 20.646 C 167.707 17.580, 164.964 17.265, 162.752 19.750 M 266.834 22.050 C 264.302 22.745, 249.779 33.221, 245.718 37.282 C 238.096 44.904, 236.683 54.164, 241.933 62.079 C 244.788 66.382, 253.352 72.816, 261.224 76.570 C 264.255 78.015, 265.420 78.130, 267.494 77.185 C 270.602 75.769, 272.270 71.841, 271.086 68.727 C 270.019 65.919, 264.884 60.769, 259.250 56.856 C 256.881 55.211, 255 53.096, 255 52.079 C 255 50.071, 259.696 45.481, 270.750 36.684 C 274.747 33.504, 278 30.136, 278 29.180 C 278 24.571, 271.882 20.664, 266.834 22.050 M 203.743 32.529 C 197.738 36.609, 180.374 57.456, 178.570 62.750 C 174.929 73.434, 177.239 77.642, 191.500 86.302 C 201.787 92.549, 206.212 93.729, 209.407 91.078 C 213.920 87.332, 207.302 77.232, 195.750 70.235 C 194.238 69.318, 193.004 68.103, 193.009 67.534 C 193.032 64.994, 199.421 55.825, 206.338 48.406 C 214.728 39.406, 216.077 36.479, 213.312 33.274 C 210.428 29.932, 207.859 29.732, 203.743 32.529 M 194.806 115.984 C 183.344 119.442, 145.885 143.119, 135.369 153.554 C 128.915 159.958, 126.998 164.260, 128.962 167.930 C 130.489 170.782, 134.468 171.578, 137.445 169.628 C 140.494 167.630, 140.113 166.480, 143.934 189.217 C 148.073 213.848, 151.306 242.472, 150.532 247.633 C 149.793 252.562, 151.018 255.553, 154.186 256.559 C 156.073 257.158, 156.165 257.408, 154.850 258.377 C 151.192 261.074, 149.770 267.734, 152.389 269.908 C 153.363 270.716, 155.834 270.815, 160.672 270.237 C 164.513 269.778, 172.201 269.823, 178.033 270.339 C 191.238 271.507, 244.506 271.758, 248.457 270.671 L 251.415 269.858 248.707 272.565 C 245.364 275.908, 245.317 277.408, 248.455 280.545 C 252.245 284.336, 257.166 283.572, 262.341 278.390 C 265.283 275.444, 273 260.745, 273 258.087 C 273 257.256, 274.108 252.060, 275.461 246.538 C 280.356 226.577, 283.788 178.328, 281.096 167.333 C 278.831 158.082, 275.046 152.627, 268.570 149.277 C 263.745 146.782, 253.592 148.304, 221.176 156.382 C 203.761 160.721, 188.062 164.060, 183.179 164.463 C 172.494 165.345, 165.468 167.461, 160.706 171.233 C 158.617 172.887, 156.785 174.074, 156.635 173.871 C 156.327 173.451, 153.015 162.095, 152.703 160.387 C 152.427 158.876, 179.166 140.938, 190.966 134.717 C 202.886 128.433, 206 125.681, 206 121.427 C 206 118.772, 205.422 117.954, 202.599 116.614 C 198.847 114.834, 198.669 114.819, 194.806 115.984 M 64.184 117.069 C 61.811 117.536, 58.382 118.837, 56.566 119.959 C 52.596 122.413, 51.621 122.478, 49.571 120.429 C 48.360 119.217, 48 119.167, 48 120.208 C 48 122.009, 45.172 145.611, 44.452 149.818 L 43.884 153.136 49.692 149.400 C 52.886 147.346, 59.325 144.001, 64 141.968 L 72.500 138.272 72.787 127.968 C 73.138 115.349, 73.109 115.312, 64.184 117.069 M 252 164.061 C 249.525 164.549, 243.356 165.924, 238.292 167.118 C 230.054 169.060, 229.185 169.477, 230.042 171.079 C 232.145 175.008, 231.076 180.769, 226.678 189.207 C 219.011 203.917, 219.106 203.110, 224.399 208.556 C 236.519 221.027, 238.791 238, 228.340 238 C 225.200 238, 224.580 237.245, 221.621 229.810 C 220.813 227.781, 218.336 224.150, 216.116 221.741 L 212.079 217.362 204.289 224.977 C 194.779 234.276, 189.047 237.229, 179.428 237.789 C 172.497 238.192, 172.281 238.131, 168.678 234.732 C 164.498 230.790, 164.316 230.089, 166.750 227.302 C 168.157 225.691, 169.676 225.316, 174.500 225.386 C 182.500 225.502, 188.721 221.689, 196.437 211.938 L 199.839 207.640 196.567 203.570 C 194.768 201.331, 190.882 194.842, 187.932 189.150 L 182.567 178.800 177.534 179.422 C 174.765 179.765, 169.250 180.570, 165.279 181.213 C 158.763 182.266, 158.104 182.582, 158.531 184.440 C 160.467 192.860, 163.248 214.241, 164.207 228.070 C 165.208 242.507, 165.154 245.251, 163.792 249.389 L 162.229 254.137 165.911 253.515 C 167.936 253.173, 173.565 253.387, 178.420 253.990 C 187.872 255.165, 252.393 255.554, 255.260 254.454 C 256.205 254.091, 257.429 252.119, 257.981 250.071 C 261.313 237.697, 266.110 197.775, 266.283 180.977 C 266.361 173.440, 265.976 170.624, 264.441 167.477 C 262.269 163.027, 260.172 162.451, 252 164.061 M 205.500 174.738 C 202.200 175.585, 199.350 176.403, 199.166 176.556 C 198.983 176.709, 200.445 179.355, 202.416 182.437 C 204.387 185.518, 206 188.425, 206 188.897 C 206 189.369, 206.601 190.254, 207.336 190.864 C 208.392 191.740, 209.149 190.878, 210.958 186.736 C 212.216 183.856, 214.090 179.770, 215.122 177.655 C 216.155 175.541, 217 173.629, 217 173.405 C 217 172.584, 211.334 173.241, 205.500 174.738" stroke="none" fill="black" fill-rule="evenodd"/>
</svg>