<svg xmlns="http://www.w3.org/2000/svg" width="300" height="300" viewBox="0 0 300 300" version="1.1">
	<path d="M 193.999 21.881 C 191.089 24.939, 190.044 27.101, 189.064 32.082 C 187.753 38.744, 180.678 59.750, 179.305 61.055 C 178.862 61.476, 166.125 62.315, 151 62.919 C 135.875 63.522, 120.792 64.239, 117.483 64.512 L 111.467 65.008 109.666 48.254 C 107.757 30.488, 106.203 25.452, 101.973 23.315 C 99.495 22.063, 97.462 22.681, 94.578 25.565 C 92.365 27.778, 92.597 35.679, 95.352 52 C 97.394 64.092, 97.469 65.570, 96.066 66.176 C 94.511 66.847, 63.137 70.776, 55.531 71.252 C 52.375 71.449, 51.250 72.063, 50.031 74.250 C 48.656 76.719, 48.656 77.279, 50.031 79.737 C 52.677 84.467, 55.070 84.637, 78.170 81.737 C 89.803 80.276, 99.632 79.272, 100.011 79.507 C 100.618 79.882, 101.536 85.574, 103.863 103.379 C 104.660 109.485, 107.357 111.839, 110.796 109.430 C 112.901 107.956, 113 107.213, 113 92.943 L 113 78 115.750 77.987 C 117.263 77.980, 130.834 77.527, 145.909 76.980 C 160.984 76.432, 173.488 76.155, 173.696 76.363 C 174.082 76.749, 173.208 79.104, 169.802 86.858 C 167.329 92.488, 167.762 96.025, 171.157 97.921 C 175.976 100.614, 178.465 98.389, 184.219 86.242 C 187.017 80.334, 189.350 75.437, 189.403 75.360 C 189.457 75.283, 197.888 74.699, 208.139 74.062 C 235.390 72.370, 249.112 68.618, 249.817 62.667 C 250.369 58.007, 247.959 56.706, 241.268 58.051 C 236.912 58.926, 196.641 61.017, 195.252 60.440 C 195.115 60.383, 196.624 56.323, 198.606 51.418 C 201.373 44.569, 202.330 40.582, 202.731 34.231 C 203.018 29.683, 203.646 25.719, 204.126 25.422 C 205.763 24.410, 205.006 21.118, 202.777 19.557 C 199.467 17.238, 198.061 17.610, 193.999 21.881 M 113.590 117.329 C 111.277 119.473, 110.993 120.721, 110.010 133.079 C 109.422 140.460, 108.715 147.239, 108.438 148.142 C 107.776 150.299, 104.997 150.965, 96.500 151.006 C 92.650 151.025, 86.575 151.536, 83 152.143 C 79.425 152.749, 75.150 153.313, 73.500 153.396 C 69.181 153.614, 68 154.689, 68 158.404 C 68 164.320, 73.117 166.393, 82 164.076 C 83.925 163.573, 90.275 162.862, 96.112 162.494 L 106.723 161.826 106.308 167.163 C 105.826 173.360, 101.585 195.983, 99.402 204 C 96.309 215.362, 85.755 246.671, 83.559 251 C 78.444 261.082, 72.772 270.563, 68.023 276.969 C 62.741 284.094, 61.981 286.838, 64.571 289.429 C 67.374 292.231, 71.470 291.377, 75.010 287.250 C 76.779 285.188, 79.542 281.976, 81.149 280.113 C 86.249 274.202, 94.431 259.039, 101.442 242.500 C 107.801 227.501, 115.453 197.062, 118.716 173.780 L 120.476 161.227 135.988 160.721 C 146.875 160.366, 155.227 159.464, 164 157.695 C 170.875 156.309, 182.094 154.856, 188.930 154.466 L 201.360 153.757 198.370 157.629 C 195.324 161.572, 189.850 173.185, 188.598 178.360 C 188.218 179.934, 187.051 183.084, 186.005 185.360 C 182.883 192.160, 175.829 211.998, 173.866 219.500 C 171.093 230.098, 171.218 254.836, 174.084 262.495 C 177.073 270.484, 181.574 275.828, 188.514 279.628 C 201.670 286.831, 217.611 288.153, 241.500 284.023 C 258.234 281.129, 261 280.021, 261 276.206 C 261 274.533, 260.112 272.506, 258.896 271.405 C 256.470 269.208, 254.696 269.153, 227.500 270.427 C 200.754 271.680, 194.478 269.697, 188.818 258.206 C 186.751 254.010, 186.509 252.146, 186.580 241 C 186.655 229.275, 186.919 227.663, 190.827 215 C 196.886 195.370, 203.454 179.126, 210.794 165.620 C 217.391 153.480, 218.184 150.581, 216.015 146.528 C 213.966 142.700, 210.278 141.650, 197.500 141.255 C 185.471 140.884, 179.896 141.534, 149.500 146.853 C 143.450 147.912, 134.739 149.014, 130.142 149.302 L 121.785 149.826 122.417 146.664 C 123.481 141.345, 124.326 123.436, 123.642 120.709 C 122.190 114.923, 117.784 113.442, 113.590 117.329" stroke="none" fill="black" fill-rule="evenodd"/>
</svg>