<svg xmlns="http://www.w3.org/2000/svg" width="300" height="300" viewBox="0 0 300 300" version="1.1">
	<path d="M 97.933 19.094 L 95.729 22.189 100.013 37.344 C 102.368 45.680, 104.462 52.959, 104.666 53.519 C 105.084 54.667, 95.791 58.916, 86 62.055 C 82.425 63.201, 76.723 65.233, 73.329 66.570 C 69.936 67.906, 66.083 69, 64.768 69 C 62.039 69, 58 72.336, 58 74.590 C 58 76.504, 63.170 78.688, 69.776 79.565 C 76.396 80.443, 86.599 78.011, 98.374 72.748 C 105.059 69.761, 107.439 69.092, 108.023 70.037 C 109.198 71.938, 110.212 83.322, 109.546 87.134 C 108.614 92.465, 112.157 95.538, 117.206 93.778 C 121.612 92.243, 123 87.646, 123 74.595 L 123 63.435 134.750 59.636 C 150.521 54.536, 154.825 52.479, 156.244 49.363 C 157.305 47.034, 157.141 46.518, 154.658 44.382 C 151.424 41.600, 150.614 41.519, 145.188 43.434 C 137.518 46.140, 119.724 50.124, 118.931 49.312 C 118.495 48.865, 116.478 42.650, 114.449 35.500 C 110.005 19.839, 107.822 16.017, 103.318 16.007 C 100.898 16.002, 99.609 16.741, 97.933 19.094 M 218.173 21.463 C 215.747 23.654, 212.910 28.003, 210.441 33.312 L 206.541 41.700 196.520 44.471 C 184.423 47.816, 181.784 49.091, 179.079 52.889 C 176.356 56.713, 176.454 59.139, 179.444 61.947 C 182.255 64.588, 184.316 64.440, 193.269 60.951 C 196.441 59.715, 199.321 58.987, 199.667 59.334 C 200.898 60.564, 188.897 90.528, 184.958 96.059 C 183.472 98.145, 182.948 99.990, 183.317 101.833 L 183.858 104.541 157.143 104.158 C 135.979 103.854, 127.735 104.129, 117.464 105.479 C 110.334 106.417, 101.435 107.584, 97.689 108.072 C 90.715 108.982, 82.175 112.125, 80.800 114.289 C 79.531 116.287, 79.899 119.671, 81.534 121.028 C 82.778 122.061, 86.974 121.988, 103.784 120.643 C 115.178 119.731, 125.850 118.993, 127.500 119.002 L 130.500 119.021 125.500 123.843 C 122.750 126.495, 118.523 131.553, 116.107 135.082 C 110.053 143.926, 104.240 151.685, 99.770 156.891 C 96.562 160.627, 96 161.985, 96 166.004 C 96 172.327, 99.052 175.351, 108.253 178.145 C 114.480 180.037, 116.861 180.200, 131.348 179.731 C 147.683 179.201, 152.164 178.403, 168.857 173.052 C 172.354 171.932, 175.616 171.263, 176.107 171.566 C 176.598 171.870, 177 173.432, 177 175.038 C 177 177.336, 175.350 179.635, 169.250 185.833 C 164.988 190.164, 158.925 197.036, 155.777 201.104 C 148.212 210.879, 99.417 260.316, 90.500 267.238 C 79.752 275.582, 78.236 276.040, 73.832 272.268 C 69.826 268.836, 63.962 273.727, 65.368 279.328 C 66.402 283.449, 73.353 288, 78.613 288 C 83.876 288, 92.954 284.734, 96.147 281.692 C 97.441 280.458, 102.427 276.159, 107.227 272.136 C 116.020 264.767, 161.070 218.719, 168.500 209.505 C 172.634 204.379, 178.636 198, 179.326 198 C 180.450 198, 182.500 229.003, 182.500 246 C 182.500 274.210, 181.780 276.414, 173.079 274.832 C 163.701 273.128, 149.710 263.543, 146.981 256.953 C 145.009 252.192, 138.289 251.548, 135.733 255.875 C 134.078 258.677, 134.114 258.910, 137.177 265.039 C 144.505 279.703, 160.866 290.379, 176 290.370 C 186.331 290.365, 191.150 286.839, 194.688 276.693 C 197.226 269.418, 197.216 230.751, 194.671 210.500 C 193.704 202.800, 192.501 190.804, 191.998 183.841 C 191.495 176.879, 190.799 170.047, 190.450 168.658 C 189.894 166.440, 190.343 165.870, 194.158 163.954 C 201.959 160.037, 204.633 156.122, 202.164 152.232 C 201.076 150.518, 195.670 149.053, 193.916 149.996 C 188.446 152.939, 188.408 152.886, 187.084 140.494 C 186.406 134.146, 186.143 127.501, 186.500 125.727 C 187.944 118.547, 187.081 119.002, 199.317 118.976 C 211.970 118.949, 217.865 117.906, 219.723 115.364 C 222.950 110.951, 219.506 107.451, 211.111 106.611 C 207.750 106.275, 202.300 105.731, 199 105.402 C 195.700 105.073, 193 104.394, 193 103.893 C 193 103.392, 194.401 101.523, 196.113 99.741 C 199.505 96.210, 210.787 73.575, 214.089 63.676 C 217.268 54.147, 218.102 53.256, 224.605 52.444 C 230.377 51.722, 234 49.413, 234 46.455 C 234 43.746, 229.337 40, 225.966 40 C 222.965 40, 222.869 39.871, 223.534 36.750 C 223.915 34.962, 224.844 31.700, 225.599 29.500 C 227.453 24.095, 227.345 21.622, 225.171 19.655 C 222.725 17.441, 222.584 17.478, 218.173 21.463 M 143.736 120.402 C 144.014 121.852, 143.774 123, 143.193 123 C 140.635 123, 134.985 129.454, 127.399 141.043 C 122.883 147.941, 117.571 155.521, 115.594 157.887 C 113.617 160.253, 112 162.576, 112 163.049 C 112 164.651, 119.160 165.264, 131.355 164.708 C 143.156 164.169, 151.871 162.514, 167.603 157.823 L 174.706 155.706 175.398 142.103 C 175.778 134.621, 176.480 126.475, 176.958 124 C 177.436 121.525, 177.603 119.275, 177.331 119 C 177.058 118.725, 169.276 118.343, 160.037 118.152 L 143.240 117.803 143.736 120.402" stroke="none" fill="black" fill-rule="evenodd"/>
</svg>