<svg xmlns="http://www.w3.org/2000/svg" width="300" height="300" viewBox="0 0 300 300" version="1.1">
	<path d="M 216.721 16.895 C 215.865 18.345, 214.048 20.736, 212.683 22.208 C 211.319 23.680, 209.024 28.424, 207.583 32.750 L 204.964 40.615 195.232 42.873 C 189.879 44.114, 181.675 46.202, 177 47.513 C 172.325 48.823, 165.668 50.466, 162.207 51.163 C 155.500 52.515, 152 54.865, 152 58.016 C 152 60.590, 155.299 62.557, 162 63.978 C 167.121 65.063, 168.465 64.891, 181.500 61.484 C 201.219 56.330, 200 56.536, 200 58.348 C 200 60.846, 197.075 68.971, 193.904 75.280 C 190.522 82.011, 190.321 84.076, 192.829 86.345 C 197.674 90.730, 203.259 86.406, 209.344 73.561 C 211.773 68.434, 214.513 61.970, 215.435 59.197 C 216.356 56.423, 217.647 53.720, 218.305 53.189 C 218.962 52.658, 223 51.272, 227.279 50.107 C 236.406 47.623, 242.226 44.082, 244.335 39.729 C 245.638 37.037, 245.656 36.235, 244.461 33.924 C 243.208 31.502, 241.145 30, 239.071 30 C 238.650 30, 237.314 30.861, 236.100 31.913 C 234.027 33.711, 224.369 36.703, 223.487 35.820 C 223.264 35.597, 223.764 32.801, 224.598 29.607 C 226.797 21.186, 225.352 16.106, 220.389 14.811 C 218.835 14.405, 217.867 14.955, 216.721 16.895 M 86.773 24.242 C 83.085 25.472, 82.470 29.586, 84.568 39 C 87.248 51.029, 87.702 50.094, 77.500 53.541 C 65.236 57.685, 36.573 66.586, 30.755 68.057 C 24.947 69.526, 22 71.935, 22 75.212 C 22 78.527, 25.002 81.056, 29.678 81.684 C 34.767 82.366, 59.201 75.947, 81.433 68.086 C 90.989 64.707, 93 64.704, 93 68.071 C 93 70.679, 100.104 86.072, 103.730 91.320 C 108.171 97.748, 112.748 99.059, 117.250 95.193 C 119.220 93.501, 119.588 89.481, 117.870 88.420 C 116.364 87.489, 109.085 71.903, 106.946 65.031 L 105.245 59.562 115.010 54.754 C 127.714 48.500, 134.544 41.739, 133.660 36.293 C 132.969 32.037, 133.083 32.167, 129.408 31.432 C 127.014 30.953, 125.834 31.442, 123.115 34.040 C 119.355 37.634, 103.557 45.428, 101.574 44.667 C 100.866 44.395, 100.050 42.408, 99.761 40.252 C 99.452 37.951, 97.644 34.094, 95.385 30.916 C 89.938 23.253, 89.879 23.207, 86.773 24.242 M 170.500 98.498 C 166.100 99.213, 156.650 101.202, 149.500 102.918 C 142.350 104.634, 131.359 107.173, 125.074 108.560 C 118.790 109.948, 110.620 111.896, 106.919 112.888 L 100.189 114.693 99.606 112.097 C 98.672 107.931, 96.428 105.862, 92.328 105.388 C 87.906 104.877, 84.503 107.147, 83.460 111.302 C 82.969 113.258, 83.314 114.179, 84.908 115.175 C 89.039 117.754, 87.481 129.578, 79.728 154.500 C 77.111 162.913, 77.320 165.030, 80.957 166.977 C 83.582 168.382, 87.276 166.825, 89.831 163.238 C 93.922 157.492, 99.946 139.154, 99.983 132.332 C 100.010 127.369, 100.916 126, 104.176 126 C 105.805 126, 111.494 124.939, 116.819 123.643 C 122.143 122.347, 130.100 120.724, 134.500 120.038 C 138.900 119.351, 149.407 117.043, 157.850 114.910 C 171.375 111.491, 182.279 109.860, 183.382 111.091 C 183.584 111.316, 183.388 113.975, 182.947 117 C 181.503 126.915, 181.870 132.183, 184.377 137.500 C 188.396 146.021, 194.665 150, 204.074 150 C 214.029 150, 237.706 142.460, 241.033 138.230 C 243.746 134.782, 243.536 131.397, 240.485 129.398 C 236.397 126.719, 235.957 126.800, 209.601 135.088 C 202.907 137.193, 197.312 135.484, 196.801 131.179 C 196.691 130.255, 196.579 124.021, 196.551 117.325 C 196.500 105.245, 196.477 105.127, 193.557 102.069 C 190.562 98.933, 185.510 96.936, 181 97.105 C 179.625 97.156, 174.900 97.783, 170.500 98.498 M 174 171.235 C 172.075 171.803, 166 173.724, 160.500 175.505 C 155 177.287, 145.100 180.186, 138.500 181.949 C 114.867 188.260, 104.622 191.232, 98.337 193.598 C 94.826 194.919, 90.052 196.015, 87.727 196.033 C 76.649 196.120, 75.298 208.398, 86.278 209.194 C 90.218 209.480, 90.649 209.812, 92.736 214.179 C 94.107 217.048, 97.366 220.915, 101.161 224.179 C 116.102 237.024, 117.155 238.172, 115.580 239.903 C 114.780 240.781, 112.410 242.378, 110.313 243.450 C 108.216 244.523, 105.825 245.936, 105 246.591 C 101.503 249.365, 85.287 256.997, 82.885 256.998 C 79.341 257.001, 75 260.580, 75 263.500 C 75 266.879, 79.421 270, 84.209 270 C 92.435 270, 110.072 262.441, 124.358 252.793 C 131.182 248.185, 131.888 248.234, 141.322 253.965 C 157.645 263.881, 193.918 279.644, 211.821 284.601 C 241.137 292.718, 275.185 293.187, 282.856 285.579 C 287.632 280.843, 282.362 273.414, 275.934 275.821 C 268.308 278.676, 252.039 277.960, 231.603 273.869 C 221.297 271.807, 192.205 263.678, 189.217 262.027 C 188.273 261.505, 184.800 259.883, 181.500 258.423 C 166.694 251.872, 147.099 241.925, 144.204 239.490 C 144.041 239.353, 149.147 234.125, 155.550 227.871 C 169.085 214.650, 187.090 194.884, 191.715 188.168 C 198.501 178.314, 194.091 169.851, 182.300 170.102 C 179.660 170.158, 175.925 170.668, 174 171.235 M 161 189.650 C 154.125 191.993, 140.625 195.907, 131 198.348 C 112.196 203.117, 101.711 206.653, 102.197 208.061 C 102.630 209.317, 128.299 228.998, 129.500 228.995 C 132.736 228.987, 175.754 186.963, 173.871 185.649 C 173.667 185.507, 167.875 187.308, 161 189.650" stroke="none" fill="black" fill-rule="evenodd"/>
</svg>