<svg xmlns="http://www.w3.org/2000/svg" width="300" height="300" viewBox="0 0 300 300" version="1.1">
	<path d="M 113.500 29.100 C 108 32.947, 102.345 36.861, 100.933 37.797 C 91.445 44.090, 79.043 54.779, 78.500 57.130 C 78.167 58.577, 77.355 59.743, 76.697 59.723 C 70.473 59.527, 70.003 61.957, 71.811 85 C 73.048 100.776, 73.070 107.642, 71.961 131.627 L 70.659 159.755 63.080 161.985 C 58.911 163.212, 53.025 165.022, 50 166.007 C 41.749 168.695, 34.157 170.274, 32.517 169.645 C 30.715 168.954, 28 171.521, 28 173.916 C 28 176.897, 31.183 178.800, 38.214 180.024 C 45.359 181.268, 55.295 180.219, 63.375 177.368 C 68.731 175.478, 69.233 175.610, 68.640 178.750 C 68.355 180.262, 67.154 186.675, 65.971 193 C 63.544 205.983, 57.598 225.655, 55.344 228.162 C 53.153 230.598, 54.049 234.872, 57.142 236.738 C 59.425 238.116, 60.224 238.150, 63.028 236.989 C 65.526 235.954, 66.937 234.222, 69.169 229.453 C 74.135 218.841, 77.966 204.418, 80.445 187 C 82.841 170.169, 82.273 171.416, 88.633 169.036 C 94.740 166.751, 96.239 166.973, 93.694 169.786 C 92.799 170.775, 91.785 174.040, 91.441 177.042 C 90.902 181.751, 91.142 182.980, 93.195 186 C 96.516 190.885, 100.088 192.456, 104.538 190.988 C 109.124 189.474, 111 187.469, 111 184.084 C 111 181.148, 108.340 178, 105.860 178 C 104.919 178, 103.910 176.175, 103.097 173.002 C 102.393 170.254, 101.408 167.752, 100.908 167.443 C 100.409 167.135, 100 166.506, 100 166.047 C 100 165.020, 113.039 159.706, 113.769 160.436 C 114.412 161.078, 112.579 189.651, 109.949 219.984 C 108.877 232.350, 107.997 246.075, 107.993 250.484 C 107.986 258.210, 105.735 276.598, 104.665 277.668 C 104.379 277.955, 103.048 276.452, 101.708 274.330 C 97.189 267.171, 93.864 266.206, 91.042 271.234 C 89.619 273.770, 89.684 274.270, 92.008 278.660 C 97.904 289.796, 105.738 294.179, 112.395 290.065 C 118.384 286.363, 121.354 273.801, 122.545 247.131 C 122.855 240.184, 123.994 223.250, 125.076 209.500 C 126.158 195.750, 127.419 177.322, 127.878 168.548 C 128.399 158.600, 129.124 152.459, 129.806 152.231 C 130.408 152.031, 132.072 150.945, 133.505 149.818 C 137.255 146.868, 136.669 142.242, 132.273 140.084 L 129.045 138.500 128.944 120.500 C 128.889 110.600, 128.521 95.500, 128.127 86.944 C 127.310 69.199, 126.138 65.826, 119.685 62.650 C 116.127 60.899, 115.547 60.885, 108.840 62.400 C 104.943 63.280, 100.791 64, 99.613 64 C 96.885 64, 90.289 67.464, 86.831 70.712 L 84.161 73.220 83.286 68.860 C 82.462 64.755, 82.554 64.459, 84.861 63.795 C 86.209 63.407, 96.375 56.994, 107.451 49.545 C 118.528 42.095, 128.573 36, 129.772 36 C 132.723 36, 135.275 31.943, 134.433 28.590 C 133.588 25.224, 129.468 21.985, 126.115 22.053 C 124.558 22.084, 119.455 24.935, 113.500 29.100 M 245 53.043 C 240.728 54.065, 222.180 55.559, 195.500 57.028 C 171.739 58.336, 172.066 58.283, 168.672 61.428 C 165.437 64.426, 165.256 67.825, 168.166 70.948 C 170.228 73.161, 170.793 73.244, 179.916 72.681 C 185.187 72.355, 197.150 71.620, 206.500 71.047 C 215.850 70.474, 225.228 69.733, 227.340 69.399 C 231.078 68.810, 231.148 68.854, 229.974 71.048 C 228.325 74.130, 229.206 118.607, 231.390 142.500 C 232.294 152.400, 233.745 168.375, 234.614 178 C 235.483 187.625, 236.808 202.250, 237.559 210.500 C 239.227 228.836, 239.383 248.602, 237.895 252.872 C 236.447 257.025, 234.392 258, 227.084 258 C 220.291 258, 211.178 254.290, 196.500 245.550 C 189.048 241.112, 188.329 240.881, 186 242.175 C 183.168 243.748, 182.266 247.759, 184.011 251.020 C 185.538 253.873, 206.393 267.487, 213.924 270.547 C 218.748 272.508, 221.721 272.999, 228.730 272.996 C 236.748 272.992, 237.878 272.741, 241.906 270.069 C 247.258 266.518, 251.644 259.755, 253.153 252.729 C 254.627 245.862, 253.833 227.306, 250.662 194.500 C 244.445 130.167, 242.663 104.345, 243.153 85.694 C 243.466 73.808, 243.730 72.178, 245.818 69.250 C 247.093 67.463, 248.720 66, 249.433 66 C 250.147 66, 251.916 65.067, 253.365 63.927 C 256.708 61.298, 256.845 57.142, 253.686 54.174 C 251.208 51.846, 250.423 51.744, 245 53.043 M 104.201 77.526 C 100.187 78.806, 94.748 81.237, 92.114 82.927 C 89.480 84.617, 86.914 86.002, 86.412 86.004 C 85.882 86.007, 85.456 100.482, 85.394 120.556 C 85.298 151.904, 85.437 155.044, 86.894 154.461 C 87.777 154.107, 91.425 152.773, 95 151.497 C 98.575 150.220, 104.313 148.172, 107.750 146.945 L 114 144.715 114 109.857 C 114 82.585, 113.728 75.022, 112.750 75.099 C 112.063 75.154, 108.216 76.246, 104.201 77.526 M 161.849 104.670 C 158.162 105.649, 157.578 110.250, 158.710 129.393 C 160.100 152.890, 161.994 160.859, 167.336 165.685 C 170.639 168.669, 171.773 169.136, 174.599 168.678 C 176.441 168.379, 179.038 167.542, 180.371 166.817 C 187.284 163.060, 214.759 142.405, 217.935 138.578 C 219.926 136.179, 219.513 132.179, 217.052 130.046 C 215.193 128.433, 215.034 127.805, 216.019 125.964 C 218.409 121.498, 215.428 115.269, 209.423 112.182 C 205.213 110.018, 197.656 109.786, 189 111.555 C 174.915 114.434, 172.300 114.522, 171.546 112.144 C 170.786 109.752, 165.583 103.947, 164.349 104.116 C 163.882 104.180, 162.757 104.429, 161.849 104.670 M 90.655 115.829 C 87.920 118.851, 88.599 123.331, 92.500 128 C 94.425 130.304, 96 133.272, 96 134.595 C 96 137.162, 99.162 141, 101.277 141 C 103.853 141, 106.937 137.855, 107.546 134.606 C 108.249 130.857, 105.323 122.744, 101.286 117.250 C 99.431 114.724, 98.164 114, 95.604 114 C 93.683 114, 91.620 114.762, 90.655 115.829 M 185.500 127.033 C 181.650 128.025, 177.204 128.874, 175.621 128.918 L 172.742 129 173.418 137.250 C 174.680 152.659, 175.072 153.447, 180.136 150.733 C 186.603 147.266, 187.994 145.858, 186.925 143.860 C 185.329 140.878, 186.635 138.466, 192.614 133.359 C 195.637 130.776, 198.551 127.839, 199.090 126.832 C 199.964 125.199, 199.659 125.012, 196.285 125.115 C 194.203 125.178, 189.350 126.041, 185.500 127.033" stroke="none" fill="black" fill-rule="evenodd"/>
</svg>