<svg xmlns="http://www.w3.org/2000/svg" width="300" height="300" viewBox="0 0 300 300" version="1.1">
	<path d="M 85.037 32.968 C 82.247 35.388, 82.008 38.859, 83.370 57.250 L 84.240 69 81.743 69 C 80.370 69, 74.955 70.321, 69.710 71.935 C 49.862 78.045, 43.387 83.618, 45.815 92.500 C 46.956 96.674, 50.238 96.945, 54.855 93.246 C 56.860 91.639, 59.554 89.764, 60.842 89.078 C 63.580 87.620, 83.929 81, 85.671 81 C 86.739 81, 88.596 86.237, 90.459 94.500 C 91.593 99.530, 93.743 102, 96.988 102 C 102.166 102, 103.117 97.368, 100.622 84.289 L 99.247 77.078 103.874 75.610 C 121.053 70.158, 126 67.444, 126 63.467 C 126 58.170, 119.429 57.399, 108.727 61.442 C 97.082 65.840, 97.416 66.120, 96.668 51.356 C 95.932 36.847, 94.219 31.700, 89.957 31.204 C 88.471 31.030, 86.425 31.765, 85.037 32.968 M 198.750 32.080 C 197.787 32.641, 197 33.627, 197 34.271 C 197 35.838, 193.359 47.796, 190.195 56.624 L 187.641 63.749 177.570 64.852 C 172.032 65.458, 164.624 66.153, 161.110 66.395 C 153.446 66.924, 150.331 69.199, 151.406 73.482 C 151.891 75.414, 153.351 76.710, 156.722 78.201 C 160.666 79.946, 162.549 80.158, 169.171 79.606 C 173.462 79.248, 178.325 78.685, 179.977 78.355 L 182.982 77.754 181.846 81.127 C 181.221 82.982, 180.388 84.950, 179.994 85.500 C 179.600 86.050, 178.297 89.777, 177.100 93.783 C 175.225 100.053, 175.103 101.444, 176.219 103.783 C 177.057 105.539, 178.443 106.608, 180.141 106.805 C 183.452 107.190, 186.232 103.857, 188.577 96.693 C 189.512 93.837, 191.339 89.377, 192.638 86.783 C 193.937 84.189, 195 81.463, 195 80.724 C 195 76.429, 202.580 73.879, 223.824 71.025 C 233.104 69.778, 236.039 66.357, 232.349 61.088 C 230.741 58.791, 230.427 58.747, 220.099 59.343 C 214.270 59.680, 208.197 60.255, 206.605 60.622 C 203.885 61.248, 203.750 61.133, 204.361 58.699 C 204.718 57.275, 205.480 51.539, 206.053 45.952 C 206.950 37.210, 206.876 35.460, 205.525 33.397 C 203.856 30.851, 201.611 30.414, 198.750 32.080 M 110.655 109.829 C 109.591 111.005, 108.997 113.414, 108.990 116.579 C 108.978 122.919, 106.031 129.137, 97.881 140.021 C 94.371 144.708, 89.267 151.819, 86.538 155.823 C 83.809 159.827, 78.757 165.770, 75.311 169.029 C 69.032 174.967, 68.556 176.233, 71.278 179.750 C 72.734 181.632, 78.084 181.246, 81.780 178.993 C 86.246 176.270, 92.727 169.653, 97.963 162.471 C 100.358 159.187, 102.421 156.362, 102.548 156.194 C 102.675 156.026, 105.641 156.636, 109.139 157.551 C 118.154 159.909, 129.014 159.680, 137 156.964 C 140.575 155.748, 143.928 154.359, 144.450 153.877 C 144.973 153.395, 146.086 153, 146.925 153 C 147.764 153, 151.387 151.900, 154.975 150.556 C 170.233 144.842, 178.786 142.863, 188.783 142.734 C 199.493 142.596, 203.605 143.941, 206.641 148.575 C 209.776 153.360, 212.059 165.898, 212.634 181.500 C 213.109 194.373, 212.818 199.036, 210.579 214.388 C 209.144 224.227, 206.851 237.132, 205.485 243.066 C 204.118 249, 202.994 254.901, 202.987 256.178 C 202.979 257.455, 201.657 262.281, 200.049 266.903 C 197.763 273.469, 196.127 276.318, 192.562 279.937 C 187.615 284.959, 187.180 286.384, 189.557 289.777 C 194.243 296.468, 206.365 287.816, 211.883 273.842 C 213.546 269.630, 216.236 259.505, 217.862 251.342 C 219.488 243.179, 221.851 231.325, 223.112 225 C 225.891 211.060, 226.973 178.024, 225.027 166.500 C 222.744 152.978, 219.167 143.005, 215.169 139.018 C 207.455 131.324, 205.034 130.494, 190.500 130.552 C 175.906 130.611, 170.152 131.951, 145.500 141.037 C 128.838 147.178, 120.617 149.182, 113.637 148.803 L 108.034 148.500 112.223 142 C 116.359 135.583, 117.208 133.839, 120.506 125 C 122.734 119.026, 122.042 112.683, 118.874 110.044 C 115.883 107.553, 112.788 107.472, 110.655 109.829 M 112.500 196.661 C 108.177 198.361, 105.941 198.537, 101.905 197.496 C 99.631 196.909, 99.094 197.282, 97.557 200.520 C 95.842 204.135, 95.863 204.441, 98.560 214.857 C 100.075 220.711, 101.421 228.321, 101.550 231.768 C 101.805 238.556, 103.052 240.962, 106.372 241.067 C 107.543 241.105, 106.362 241.710, 103.749 242.413 C 98.344 243.867, 95 246.449, 95 249.170 C 95 252.054, 100.755 254.992, 106.414 254.996 C 114.951 255.003, 148.269 248.709, 151.742 246.434 C 154.073 244.906, 154.660 241.591, 153.049 239.046 C 152.393 238.008, 153.112 236.253, 155.557 232.922 C 160.523 226.157, 162.953 220.176, 162.978 214.654 C 163.022 205.048, 157.519 200.658, 140.885 197.028 C 129.813 194.611, 118.097 194.460, 112.500 196.661 M 120.500 206.681 C 119.400 206.928, 117.080 207.572, 115.345 208.111 L 112.190 209.092 112.345 223.497 C 112.488 236.828, 112.351 238.014, 110.500 239.419 C 108.570 240.883, 108.606 240.937, 111.500 240.942 C 117.029 240.953, 134.088 239.050, 135.448 238.271 C 138.632 236.446, 145.216 226.999, 147.679 220.722 C 150.805 212.753, 150.313 211.637, 142.976 210.065 C 140.514 209.537, 135.575 208.422, 132 207.588 C 125.299 206.023, 123.915 205.914, 120.500 206.681" stroke="none" fill="black" fill-rule="evenodd"/>
</svg>