<svg xmlns="http://www.w3.org/2000/svg" width="300" height="300" viewBox="0 0 300 300" version="1.1">
	<path d="M 111.390 60.596 C 109.250 62.024, 105.700 64.853, 103.500 66.883 C 99.304 70.755, 90.657 77, 89.492 77 C 89.117 77, 86.161 79.546, 82.921 82.657 C 75.526 89.761, 75.149 91.569, 77.885 106.815 C 80.227 119.863, 80.768 143.368, 78.993 155 C 76.984 168.168, 77.038 168, 74.848 168 C 73.714 168, 69.797 168.666, 66.143 169.479 C 62.489 170.292, 55.532 171.838, 50.681 172.913 C 40.827 175.097, 35 178.604, 35 182.351 C 35 187.256, 39.014 188.077, 50.803 185.584 C 54.486 184.804, 60.425 183.647, 64 183.011 C 67.575 182.374, 71.530 181.649, 72.788 181.398 C 75.314 180.895, 75.315 180.948, 72.989 198 C 72.501 201.575, 71.787 208.505, 71.402 213.400 C 70.877 220.064, 70.236 222.764, 68.850 224.150 C 66.395 226.605, 66.502 227.411, 69.764 231.062 C 72.057 233.628, 73.002 234.038, 75.299 233.461 C 76.970 233.042, 78.703 231.541, 79.665 229.681 C 81.838 225.479, 83.999 214.679, 84.004 208 C 84.006 204.975, 84.673 198.450, 85.486 193.500 C 86.300 188.550, 86.973 183.070, 86.983 181.322 C 86.999 178.260, 87.210 178.100, 92.750 176.960 C 95.912 176.309, 100.525 175.190, 103 174.474 C 105.475 173.758, 108.625 172.967, 110 172.715 C 111.375 172.463, 113.288 171.926, 114.250 171.522 C 115.891 170.832, 116 172.435, 116 197.301 C 116 223.104, 114.343 245.145, 111.980 250.768 C 111.043 252.997, 110.966 252.968, 107.397 249.018 C 103.228 244.403, 99.578 243.688, 98.376 247.250 C 97.213 250.695, 97.853 252.791, 101.702 258.148 C 107.659 266.441, 112.752 267.913, 118.381 262.970 C 125.843 256.418, 128.026 243.078, 128.714 199.823 L 129.233 167.146 132.137 165.943 C 135.605 164.507, 140 159.551, 140 157.078 C 140 156.106, 139.115 154.509, 138.033 153.530 C 136.149 151.825, 134.805 151.829, 130.588 153.556 C 128.724 154.319, 128.697 153.766, 129.531 131.419 C 130.961 93.112, 130.881 90.432, 128.217 87.776 C 126.239 85.804, 124.969 85.514, 118.717 85.603 C 109.371 85.737, 91.822 91.237, 89.700 94.696 C 88.511 96.636, 87 96.273, 87 94.048 C 87 92.006, 91.176 88.785, 101.043 83.218 C 104.091 81.498, 109.141 77.855, 112.263 75.122 C 115.386 72.389, 118.880 69.855, 120.028 69.491 C 121.896 68.898, 124 65.425, 124 62.935 C 124 61.125, 119.973 58, 117.640 58 C 116.341 58, 113.529 59.168, 111.390 60.596 M 204.500 67.101 C 198.282 67.851, 180.529 70.334, 172.584 71.565 C 168.366 72.218, 163 76.620, 163 79.426 C 163 81.274, 162.457 81.750, 160.349 81.750 C 158.737 81.750, 156.981 82.681, 155.871 84.125 C 154.268 86.209, 154.043 88.584, 154.032 103.500 C 154.020 118.854, 156.154 145.822, 157.560 148.097 C 157.867 148.593, 159.843 149, 161.952 149 C 166.583 149, 167 148.178, 167 139.054 L 167 132.273 176.250 131.646 C 181.338 131.301, 186.963 130.738, 188.750 130.396 L 192 129.773 192 141.713 L 192 153.654 179.144 155.899 C 171.464 157.241, 164.883 157.881, 162.799 157.490 C 159.591 156.888, 159.208 157.084, 158.034 159.919 C 156.993 162.431, 156.997 163.292, 158.055 164.567 C 161.517 168.737, 169.040 170.423, 177.500 168.923 C 180.800 168.338, 185.475 167.601, 187.888 167.284 L 192.276 166.709 191.605 177.604 C 191.235 183.597, 190.496 208.975, 189.963 234 C 189.429 259.025, 188.714 281.378, 188.375 283.674 C 187.842 287.276, 188.110 288.201, 190.333 290.424 C 193.439 293.530, 196.057 293.700, 198.538 290.958 C 201.034 288.199, 201.690 276.880, 202.931 215.122 C 203.477 187.964, 204.119 165.548, 204.359 165.308 C 204.598 165.068, 209.720 164.508, 215.740 164.062 C 226.680 163.253, 232 161.446, 232 158.540 C 232 157.863, 232.934 156.464, 234.076 155.431 C 237.108 152.687, 242.891 141.910, 245.552 134.043 C 251.172 117.434, 253.706 91.088, 250.547 82.132 C 245.932 69.053, 230.381 63.976, 204.500 67.101 M 205.274 85.750 C 205.185 89.463, 204.813 97.787, 204.446 104.250 C 203.902 113.827, 204.031 115.994, 205.139 115.965 C 205.888 115.946, 210.100 115.280, 214.500 114.485 C 226.056 112.397, 227.841 112.516, 228.571 115.428 C 228.906 116.763, 228.908 118.714, 228.575 119.764 C 227.754 122.350, 220.047 125.647, 211.250 127.175 L 204 128.434 204 140.846 L 204 153.258 213.250 152.543 C 223.892 151.720, 224.842 151.140, 228.612 143.172 C 234.843 130, 238.992 110.923, 238.997 95.424 C 239 86.228, 238.804 85.176, 236.750 83.365 C 232.672 79.770, 229.216 79, 217.171 79 L 205.435 79 205.274 85.750 M 192.500 81.477 C 191.950 81.653, 186.775 82.327, 181 82.976 C 175.225 83.624, 169.600 84.328, 168.500 84.540 C 166.660 84.895, 166.502 85.710, 166.526 94.713 C 166.541 100.096, 166.653 108.040, 166.776 112.367 C 166.993 119.999, 167.067 120.215, 169.250 119.609 C 170.488 119.266, 174.200 118.742, 177.500 118.445 C 180.800 118.149, 185.412 117.675, 187.750 117.392 L 192 116.877 192.024 104.689 C 192.046 93.417, 192.522 89.145, 194.413 83.250 C 195.102 81.103, 194.735 80.763, 192.500 81.477 M 105.500 100.839 C 99.450 102.904, 93.636 105.083, 92.581 105.681 C 90.760 106.713, 90.657 108.263, 90.581 135.679 L 90.500 164.589 94 163.737 C 95.925 163.268, 101.550 161.886, 106.500 160.666 L 115.500 158.448 116.236 144.474 C 118.193 107.319, 118.468 97.001, 117.500 97.042 C 116.950 97.066, 111.550 98.774, 105.500 100.839 M 94.455 124.455 C 90.885 128.024, 91.398 130.179, 96.928 134.842 C 101.886 139.023, 103.271 142.269, 104.249 152 C 104.451 154.015, 105.120 154.560, 107.694 154.809 C 110.380 155.069, 111.135 154.640, 112.444 152.109 C 115.697 145.817, 113.385 132.891, 108.007 127.304 C 105.860 125.072, 99.965 122, 97.832 122 C 97.325 122, 95.805 123.105, 94.455 124.455 M 95.074 185.411 C 91.779 189.381, 93.024 198.795, 97.386 202.893 C 100.593 205.906, 106.269 206.709, 109.481 204.605 C 113.206 202.164, 112.797 198.656, 108.476 195.985 C 106.537 194.787, 104.233 192.388, 103.355 190.653 C 100.146 184.313, 97.418 182.587, 95.074 185.411" stroke="none" fill="black" fill-rule="evenodd"/>
</svg>