<svg xmlns="http://www.w3.org/2000/svg" width="300" height="300" viewBox="0 0 300 300" version="1.1">
	<path d="M 180.306 37.310 C 178.239 39.374, 172 56.478, 172 60.082 C 172 61.923, 169.441 62.501, 157 63.470 C 147.995 64.171, 128.056 66.805, 122.532 68.023 C 120.350 68.504, 118.472 68.806, 118.359 68.693 C 118.246 68.580, 117.730 64.629, 117.212 59.913 C 116.568 54.057, 115.681 50.650, 114.413 49.169 C 110.472 44.567, 103.267 48.288, 104.382 54.349 C 104.700 56.082, 105.260 60.763, 105.625 64.750 C 106.239 71.455, 106.145 72, 104.376 72 C 101.545 72, 79.458 77.667, 76.357 79.188 C 74.887 79.910, 73.239 81.218, 72.695 82.095 C 71.223 84.468, 72.650 88.675, 75.149 89.329 C 76.342 89.641, 83.373 88.345, 90.773 86.448 C 98.172 84.552, 105.039 83, 106.033 83 C 107.529 83, 107.962 84.166, 108.544 89.750 C 109.343 97.417, 110.179 99.490, 113.106 101.057 C 114.747 101.935, 115.568 101.796, 117.139 100.374 C 118.859 98.817, 119.085 97.433, 118.905 89.545 L 118.698 80.500 123.599 79.377 C 130.578 77.777, 149.972 75.143, 160.250 74.398 C 170.027 73.689, 169.980 73.649, 168.088 81 C 165.961 89.270, 165.882 94.633, 167.854 97.068 C 169.631 99.263, 169.882 99.307, 172.150 97.821 C 174.508 96.276, 175.024 94.976, 179.527 79.250 C 180.511 75.813, 181.808 72.999, 182.408 72.998 C 185.610 72.994, 216.767 69.052, 218.278 68.461 C 221.361 67.254, 222.352 64.186, 220.548 61.433 C 219.170 59.329, 218.187 59, 213.286 59 C 210.168 59, 202.520 59.517, 196.290 60.148 C 190.060 60.780, 184.742 61.076, 184.472 60.805 C 183.843 60.176, 188.822 44.810, 190.064 43.550 C 191.643 41.948, 191.110 39.181, 188.811 37.039 C 186.021 34.440, 183.089 34.533, 180.306 37.310 M 111.500 119.127 C 110.400 119.672, 108.036 122.229, 106.247 124.809 C 104.458 127.389, 100.521 132.200, 97.499 135.500 C 91.191 142.388, 90.171 144.599, 92.313 146.741 C 94.925 149.354, 98.798 147.323, 107.167 138.954 C 111.542 134.579, 115.474 131, 115.906 131 C 117.783 131, 120 127.050, 120 123.706 C 120 118.682, 116.356 116.719, 111.500 119.127 M 188 119.536 C 187.175 119.703, 182.900 120.362, 178.500 121 C 168.468 122.455, 156.364 124.922, 152.712 126.256 C 149.593 127.395, 147.768 130.007, 148.858 131.770 C 149.880 133.424, 161.791 136.298, 164.897 135.641 C 166.329 135.338, 171.775 134.158, 177 133.018 C 182.225 131.879, 191.450 130.672, 197.500 130.336 C 210.343 129.624, 212 129.013, 212 124.990 C 212 120.595, 208.078 118.972, 197.800 119.116 C 193.235 119.180, 188.825 119.369, 188 119.536 M 120.557 130.223 C 119.701 131.445, 119 133.479, 119 134.742 C 119 136.960, 117.790 139.187, 110.167 151 C 104.474 159.821, 90.238 175.380, 73.616 190.946 C 66.215 197.876, 63.010 202.288, 63.004 205.550 C 62.999 208.116, 64.819 210, 67.304 210 C 69.100 210, 79.722 201.111, 92 189.332 L 97.500 184.056 96.751 196.778 C 96.339 203.775, 96.287 219.087, 96.635 230.805 C 97.167 248.719, 97.538 252.443, 98.965 254.205 C 101.164 256.921, 105.739 256.023, 106.458 252.735 C 106.727 251.506, 107.417 235.251, 107.990 216.612 C 108.963 184.999, 108.915 182.483, 107.267 179.112 L 105.500 175.500 111.500 167.918 C 117.424 160.432, 123.393 151.469, 127.722 143.559 C 130.713 138.094, 130.652 133.561, 127.545 130.455 C 124.504 127.413, 122.570 127.349, 120.557 130.223 M 199.500 147.027 C 189.050 147.411, 178.700 148.217, 176.500 148.818 C 171.863 150.084, 160.483 152.352, 150.641 153.969 C 140.005 155.717, 136.081 159.423, 139.440 164.549 C 140.602 166.322, 141.939 166.995, 144.273 166.982 C 147.658 166.962, 161.726 164.641, 167.892 163.084 C 177.843 160.572, 182.882 159.913, 199 159.015 C 217.824 157.967, 220.552 157.538, 223.250 155.204 C 226.508 152.385, 224.681 145.870, 220.715 146.165 C 219.497 146.255, 209.950 146.643, 199.500 147.027 M 189.801 164.750 C 186.871 168.150, 185.659 177.987, 186.854 188.679 C 187.457 194.081, 188.408 203.225, 188.965 209 C 189.523 214.775, 190.640 226.025, 191.448 234 C 193.783 257.062, 195 271.399, 195 275.862 C 195 279.789, 194.848 280, 192.015 280 C 190.373 280, 185.214 278.108, 180.550 275.795 C 173.347 272.222, 171.651 271.736, 169.285 272.563 C 166.211 273.638, 165.102 277.453, 166.890 280.795 C 168.295 283.420, 184.855 291.706, 190.341 292.528 C 199.804 293.948, 205.699 289.316, 206.694 279.679 C 206.995 276.759, 206.532 268.100, 205.665 260.436 C 204.798 252.771, 203.607 241.100, 203.018 234.500 C 201.129 213.321, 198.977 195.793, 196.840 184.190 C 195.669 177.829, 195.015 171.292, 195.346 169.253 C 196.251 163.676, 193.002 161.037, 189.801 164.750" stroke="none" fill="black" fill-rule="evenodd"/>
</svg>