<svg xmlns="http://www.w3.org/2000/svg" width="300" height="300" viewBox="0 0 300 300" version="1.1">
	<path d="M 179.148 48.855 C 176.400 51.541, 174 58.625, 174 64.049 C 174 65.760, 173.284 66, 168.174 66 C 164.969 66, 157.657 66.423, 151.924 66.941 C 146.191 67.458, 137.113 68.121, 131.750 68.414 L 122 68.946 122 64.941 C 122 59.847, 119.870 54.723, 116.883 52.631 C 113.482 50.248, 112.158 50.601, 110.362 54.368 C 109.038 57.143, 108.935 58.770, 109.775 63.618 C 110.335 66.853, 110.589 69.838, 110.338 70.250 C 110.087 70.662, 108.467 71, 106.737 71 C 105.007 71, 98.621 71.484, 92.546 72.076 C 79.477 73.350, 73 75.864, 73 79.664 C 73 83.373, 76.866 84.343, 88 83.428 C 93.225 82.998, 100.872 82.614, 104.994 82.573 L 112.487 82.500 113.494 88.500 C 114.047 91.800, 114.864 95.063, 115.309 95.750 C 116.540 97.652, 119.754 97.246, 122.110 94.890 C 123.916 93.084, 124.161 91.875, 123.817 86.473 L 123.416 80.164 133.958 79.586 C 139.756 79.267, 150.731 78.524, 158.347 77.934 C 165.964 77.344, 172.328 77.005, 172.491 77.181 C 172.878 77.598, 170.603 88.374, 169.042 93.518 C 168.371 95.728, 167.975 98.878, 168.161 100.518 C 168.447 103.035, 168.986 103.547, 171.611 103.803 C 174.303 104.065, 174.943 103.639, 176.367 100.640 C 178.517 96.108, 181.741 85.575, 182.557 80.411 L 183.204 76.322 194.352 75.086 C 207.956 73.578, 212.282 72.394, 215.087 69.408 C 216.668 67.725, 217.070 66.416, 216.593 64.513 C 215.727 61.065, 213.859 60.502, 207.665 61.822 C 204.824 62.427, 198.785 63.296, 194.244 63.752 L 185.988 64.581 186.650 56.641 C 187.236 49.618, 187.099 48.546, 185.465 47.351 C 182.924 45.493, 182.479 45.599, 179.148 48.855 M 143.301 94.633 C 142.092 96.048, 138.942 100.045, 136.301 103.516 C 131.634 109.651, 131.347 109.844, 126 110.437 C 119.071 111.205, 109.592 112.724, 100.222 114.568 C 96.218 115.355, 91.043 116.020, 88.722 116.044 C 80.158 116.133, 73 120.226, 73 125.033 C 73 129.170, 75.353 130.636, 79.553 129.117 C 81.435 128.436, 86.693 127.491, 91.238 127.016 C 95.782 126.542, 100.201 125.879, 101.057 125.544 C 103.138 124.729, 120.394 122.177, 120.892 122.611 C 121.740 123.347, 111.226 135.025, 100.736 145 C 87.867 157.235, 72.705 175.332, 71.004 180.488 C 68.648 187.628, 74.820 189.626, 79.536 183.250 C 81.062 181.188, 90.759 171.081, 101.087 160.791 C 111.414 150.501, 123.520 137.451, 127.989 131.791 C 132.458 126.131, 137.101 120.944, 138.307 120.265 C 140.744 118.892, 145.397 118.548, 144.625 119.798 C 143.672 121.339, 145.780 123.215, 148.724 123.447 C 151.662 123.678, 159.723 127.798, 167.500 133.043 C 171.894 136.006, 192.160 146.590, 198.500 149.232 C 215.051 156.129, 227.379 159.416, 234.500 158.829 C 238.319 158.515, 238.514 158.333, 238.807 154.809 L 239.114 151.119 232.199 149.059 C 228.396 147.927, 224.951 147, 224.543 147 C 224.136 147, 222.384 146.380, 220.651 145.622 C 218.918 144.864, 215.250 143.462, 212.500 142.507 C 203.696 139.451, 181.764 128.345, 173.287 122.651 L 165.073 117.135 170.787 116.504 C 190.403 114.337, 199 110.822, 199 104.967 C 199 100.796, 196.891 99.601, 192.653 101.372 C 188.367 103.162, 178.700 104.597, 161.648 105.972 C 154.579 106.542, 148.300 107.314, 147.695 107.689 C 147.089 108.063, 147.837 106.247, 149.358 103.653 C 151.196 100.516, 152.018 97.858, 151.811 95.718 C 151.542 92.938, 151.092 92.470, 148.500 92.281 C 146.343 92.123, 144.882 92.784, 143.301 94.633 M 135.500 150.958 C 119.049 154.457, 113.111 156.710, 112.350 159.743 C 112.035 160.999, 112.322 162.683, 112.989 163.487 C 115.443 166.444, 120.580 166.331, 133.675 163.034 C 141.162 161.149, 151.487 159.405, 158.921 158.770 C 165.839 158.178, 172.063 157.258, 172.750 156.725 C 174.829 155.112, 174.186 151.352, 171.535 149.615 C 167.548 147.002, 151.243 147.610, 135.500 150.958 M 174 166.910 C 173.175 167.377, 168.900 168.546, 164.500 169.507 C 153.911 171.821, 130.529 177.847, 125.500 179.558 C 123.300 180.307, 118.350 181.845, 114.500 182.975 C 103.363 186.246, 100.110 190.520, 106.168 193.921 C 108.884 195.445, 113.716 194.984, 124.304 192.190 L 128.108 191.186 126.452 193.714 C 119.481 204.352, 113 218.469, 113 223.012 C 113 225.982, 116.905 229.892, 120.554 230.576 C 124.042 231.230, 133.201 229.662, 144.500 226.477 C 160.431 221.985, 171 219.374, 178.500 218.076 C 182.350 217.410, 186.738 216.635, 188.250 216.353 C 190.951 215.850, 191 215.930, 191 220.830 C 191 225.461, 188.032 247.656, 186.497 254.500 C 184.639 262.785, 179.619 276.119, 177.495 278.411 C 174.505 281.637, 173.597 281.631, 165.354 278.331 L 158.687 275.662 156.344 278.387 C 153.223 282.015, 153.377 283.246, 157.395 286.774 C 165.286 293.702, 177.411 294.975, 184.442 289.612 C 189.864 285.476, 195.186 273.761, 197.895 260 C 201.324 242.578, 202 238.369, 202 234.434 C 202 232.040, 202.510 226.651, 203.134 222.459 C 205.583 205.988, 199.313 200.171, 183.654 204.388 C 180.819 205.151, 175.800 206.336, 172.500 207.020 C 163.666 208.853, 149.713 212.402, 139.638 215.380 C 130.350 218.126, 127 218.588, 127 217.122 C 127 215.166, 130.964 207.597, 134.750 202.325 C 135.988 200.601, 137 198.919, 137 198.587 C 137 198.255, 138.350 196.119, 140 193.841 C 141.650 191.564, 143 189.154, 143 188.486 C 143 187.281, 150.286 184, 152.962 184 C 153.730 184, 155.740 183.561, 157.429 183.024 C 159.118 182.488, 164.325 180.875, 169 179.442 C 180.827 175.814, 184.687 171.742, 180.171 167.655 C 178.162 165.836, 176.294 165.611, 174 166.910" stroke="none" fill="black" fill-rule="evenodd"/>
</svg>