<svg xmlns="http://www.w3.org/2000/svg" width="300" height="300" viewBox="0 0 300 300" version="1.1">
	<path d="M 194.029 15.089 C 190.365 18.865, 187.624 23.662, 183.655 33.250 L 182.102 37 174.406 37 C 167.049 37, 129.148 42.040, 108.906 45.711 C 106.458 46.155, 106.248 45.859, 105.156 40.424 C 104.520 37.257, 104 33.271, 104 31.565 C 104 25.082, 95.069 23.776, 92.207 29.840 C 90.719 32.995, 90.668 38.265, 92.078 43.344 C 92.665 45.458, 92.941 47.392, 92.691 47.642 C 91.955 48.378, 70.904 53.114, 66 53.647 C 56.255 54.706, 51.999 58.238, 54.030 63.579 C 55.442 67.292, 59.085 67.498, 73.872 64.699 C 81.368 63.281, 89.816 61.833, 92.646 61.481 L 97.792 60.841 98.840 64.170 C 99.417 66.002, 100.026 68.625, 100.194 70 C 100.439 72.001, 101.138 72.562, 103.694 72.809 C 106.409 73.072, 107.132 72.645, 108.520 69.961 C 109.496 68.074, 110.022 65.134, 109.826 62.652 L 109.500 58.500 117.500 57.315 C 137.371 54.371, 177.983 49.622, 178.481 50.184 C 178.636 50.358, 177.945 52.975, 176.947 56 C 175.949 59.025, 175.103 62.501, 175.066 63.724 C 175.030 64.947, 173.650 69.346, 172 73.500 C 168.474 82.377, 168.336 84.089, 170.960 86.464 C 176.713 91.671, 183.700 81.979, 190.577 59.250 C 192.117 54.163, 193.404 49.963, 193.438 49.918 C 194.003 49.174, 228.762 46.460, 229.450 47.107 C 232.429 49.907, 241.854 45.668, 243.053 40.989 C 243.434 39.501, 243.081 37.425, 242.176 35.828 C 239.383 30.901, 237.895 30.703, 220.464 32.944 C 199.515 35.637, 198.668 35.629, 199.570 32.750 C 199.957 31.512, 202.013 28.064, 204.137 25.087 C 208.534 18.926, 208.947 15.960, 205.811 13.039 C 202.298 9.766, 198.565 10.416, 194.029 15.089 M 138.400 82.765 C 135.810 84.494, 134.850 88.017, 136.011 91.533 C 136.635 93.423, 136.850 95.897, 136.490 97.032 C 134.837 102.239, 142.449 103.860, 147.195 99.313 C 150.428 96.216, 150.979 90.794, 148.540 86.077 C 146.739 82.594, 141.311 80.821, 138.400 82.765 M 211 98.091 C 198.075 99.114, 181.650 100.372, 174.500 100.886 C 155.841 102.228, 130.696 105.654, 114.500 109.062 C 106.800 110.683, 99.719 112.007, 98.765 112.004 C 97.128 112, 82.543 116.021, 78.741 117.525 C 76.891 118.257, 75.406 122.230, 76.389 123.820 C 77.229 125.179, 85.197 127.003, 90.193 126.980 C 94.666 126.960, 101.172 125.864, 121.500 121.707 C 132.264 119.506, 144.557 117.859, 172.500 114.876 C 177.450 114.348, 189.375 113.497, 199 112.985 C 208.625 112.474, 220.892 111.752, 226.260 111.380 L 236.020 110.705 233.612 116.102 C 232.287 119.071, 229.565 124.200, 227.562 127.500 C 222.861 135.245, 222.300 137.569, 224.536 140.040 C 228.575 144.503, 231.622 142.358, 241.427 128.146 C 250.887 114.435, 252.617 109.027, 249.483 102.967 C 246.047 96.323, 241.157 95.704, 211 98.091 M 57.200 114.200 C 54.037 117.363, 56.742 125.596, 63.473 133.291 C 65.963 136.137, 68 138.931, 68 139.501 C 68 140.070, 69.141 142.215, 70.536 144.268 C 74.583 150.224, 81.017 149.166, 80.985 142.550 C 80.954 136.039, 76.727 127.286, 71.544 123 C 69.881 121.625, 66.757 118.813, 64.601 116.750 C 60.419 112.749, 59.104 112.296, 57.200 114.200 M 110.352 139.494 C 106.532 141.101, 104.580 144.946, 105.390 149.267 C 105.949 152.243, 105.357 153.732, 100.887 160.596 C 98.057 164.943, 95.451 168.725, 95.097 169 C 94.743 169.275, 93.701 170.685, 92.781 172.132 C 91.861 173.580, 87.934 178.188, 84.054 182.372 C 80.174 186.557, 77 190.239, 77 190.556 C 77 194.223, 82.574 196.820, 86.271 194.875 C 92.545 191.574, 109 175.676, 109 172.915 C 109 171.979, 120.215 166, 121.971 166 C 123.679 166, 123.184 169.033, 119.852 179 C 112.802 200.090, 108.380 211.876, 106.944 213.402 C 106.155 214.241, 101.926 213.313, 84.500 208.478 C 74.648 205.744, 73.997 205.681, 69.845 207.051 C 65.377 208.526, 62.982 211.216, 63.699 213.957 C 64.400 216.636, 80.967 221.804, 92.783 223.029 C 98.048 223.575, 102.571 224.237, 102.834 224.501 C 103.303 224.970, 102.590 226.865, 97.001 240 C 95.480 243.575, 92.534 250.550, 90.455 255.500 C 83.732 271.501, 79.865 277.030, 73.580 279.630 C 68.290 281.818, 66.206 285.889, 68.838 288.892 C 71.737 292.200, 75.204 292.238, 81.621 289.032 C 91.429 284.131, 93.884 280.836, 104.751 258 C 106.452 254.425, 108.159 250.375, 108.544 249 C 108.930 247.625, 109.590 246.050, 110.012 245.500 C 110.992 244.223, 118.998 223.701, 119.006 222.444 C 119.010 221.925, 119.684 220.212, 120.505 218.638 C 123.694 212.523, 136.200 173.210, 136.738 167.609 C 137.177 163.037, 136.898 160.967, 135.494 158.359 C 134.499 156.512, 133.081 155, 132.343 155 C 131.604 155, 131 154.550, 131 154 C 131 153.450, 128.955 153, 126.455 153 L 121.909 153 122.494 149.750 C 123.826 142.350, 117.090 136.660, 110.352 139.494 M 181.500 149.610 C 179.300 150.447, 176.600 151.380, 175.500 151.684 C 174.400 151.988, 171.200 153.292, 168.388 154.582 C 165.577 155.872, 161.382 157.353, 159.067 157.874 C 156.751 158.394, 153.989 159.605, 152.928 160.565 C 150.326 162.920, 150.391 168.355, 153.051 170.833 L 155.102 172.743 150.952 181.622 C 145.365 193.575, 140 211.845, 140.001 218.912 C 140.002 221.985, 139.476 229.365, 138.832 235.312 C 137.472 247.866, 138.626 258.387, 142.115 265.225 C 145.178 271.229, 154.665 280.790, 160.500 283.754 C 174.382 290.805, 218.311 290.391, 239.500 283.009 C 250.084 279.323, 253.927 276.121, 254.627 270.407 C 255.249 265.324, 252.159 260, 248.586 260 C 245.664 260, 243 262.410, 243 265.052 C 243 266.310, 242.060 267.186, 240.250 267.619 C 238.738 267.980, 234.125 269.145, 230 270.207 C 220.690 272.604, 190.914 274.291, 179.500 273.069 C 169.622 272.011, 165.272 270.189, 159.604 264.739 C 152.552 257.958, 151.638 251.632, 153.790 224.500 C 154.917 210.293, 158.512 192.169, 162.773 179.209 L 165.500 170.918 170.852 168.468 C 176.595 165.838, 188.318 162, 190.605 162 C 194.651 162, 189.159 173.522, 182.855 178.259 C 181.010 179.646, 177.932 181.114, 176.015 181.522 C 170.624 182.667, 168 184.818, 168 188.092 C 168 192.446, 171.620 194.340, 178.932 193.811 C 187.131 193.218, 194.059 188.535, 200.311 179.361 C 209.022 166.575, 208.408 154.365, 198.802 149.398 C 195.282 147.577, 186.561 147.684, 181.500 149.610" stroke="none" fill="black" fill-rule="evenodd"/>
</svg>