<svg xmlns="http://www.w3.org/2000/svg" width="300" height="300" viewBox="0 0 300 300" version="1.1">
	<path d="M 190.715 11.389 C 188.629 13.321, 187.932 15.277, 187.059 21.639 C 184.929 37.171, 179.473 53, 176.249 53 C 171.618 53, 126.610 55.025, 119.873 55.537 L 112.246 56.116 111.523 48.308 C 110.721 39.644, 108.308 24.975, 107.563 24.229 C 106.173 22.840, 101.514 23.986, 99.855 26.125 C 96.426 30.544, 95.711 35.589, 96.906 46.920 C 97.513 52.678, 97.671 57.710, 97.255 58.101 C 96.840 58.492, 92.435 60.164, 87.466 61.815 C 82.497 63.466, 74.447 66.658, 69.576 68.909 C 64.705 71.159, 60.184 73, 59.529 73 C 57.571 73, 55.681 77.593, 56.423 80.548 L 57.101 83.249 65.299 82.534 C 69.808 82.141, 75.073 81.157, 76.998 80.347 C 80.723 78.782, 98.317 74.010, 98.767 74.443 C 98.914 74.585, 98.486 77.075, 97.816 79.978 C 96.654 85.012, 96.704 85.342, 98.910 87.128 C 101.878 89.531, 102.257 89.496, 105.834 86.486 C 108.642 84.124, 112 76.742, 112 72.933 C 112 71.778, 113.110 71.014, 115.420 70.581 C 123.458 69.073, 171 67.156, 171 68.340 C 171 68.527, 169.612 72.690, 167.916 77.590 C 163.802 89.474, 163.620 90.422, 164.970 92.944 C 165.896 94.674, 166.877 95.051, 169.815 94.806 C 173.472 94.502, 173.553 94.396, 180.500 80.832 C 184.350 73.314, 188.085 66.491, 188.800 65.668 C 189.515 64.846, 192.440 63.870, 195.300 63.499 C 205.690 62.149, 216 55.710, 216 50.571 C 216 45.357, 210.402 44.290, 202.004 47.903 C 199.145 49.133, 196.608 49.941, 196.366 49.700 C 196.124 49.458, 196.777 47.064, 197.817 44.380 C 199.969 38.826, 202.520 19.209, 201.579 15.459 C 199.984 9.105, 195.138 7.289, 190.715 11.389 M 142.316 90.405 C 139.968 92.424, 139.521 93.587, 139.525 97.655 C 139.528 100.320, 139.906 105.028, 140.364 108.118 L 141.197 113.736 134.349 114.918 C 105.825 119.839, 73.403 126.596, 68.286 128.684 C 64.047 130.415, 59 135.429, 59 137.910 C 59 141.024, 62.583 142.980, 66.324 141.907 C 68.056 141.410, 74.655 140.313, 80.987 139.469 C 87.319 138.625, 99.700 136.604, 108.500 134.978 C 117.300 133.352, 137.100 130.155, 152.500 127.872 C 194.063 121.713, 205.327 118.962, 212.016 113.333 C 215.547 110.362, 216.095 105.301, 213.171 102.655 C 210.752 100.465, 209.436 100.557, 202.422 103.405 C 197.877 105.251, 158.441 113, 153.594 113 C 153.173 113, 153.146 109.622, 153.533 105.492 C 154.257 97.763, 153.333 93.582, 150.053 89.750 C 148.003 87.354, 145.629 87.555, 142.316 90.405 M 105.820 141.255 C 102.066 144.400, 99.998 151.526, 100.009 161.285 C 100.018 168.550, 100.361 170.097, 102.979 174.662 C 105.386 178.859, 107.020 180.353, 111.720 182.657 C 117.135 185.311, 118.447 185.514, 132.500 185.864 C 149.597 186.291, 159.642 185.098, 174.901 180.830 C 189.172 176.839, 193.779 173.192, 191.032 168.061 C 188.887 164.052, 186.608 163.733, 175.699 165.911 C 154.838 170.077, 130.619 171.953, 120.500 170.187 C 115.253 169.271, 112.610 164.688, 113.540 158.122 C 114.358 152.354, 114.937 151, 116.584 151 C 118.434 151, 121.358 146.375, 120.659 144.553 C 119.994 142.821, 112.849 138.998, 110.290 139.005 C 109.305 139.008, 107.294 140.020, 105.820 141.255 M 198.652 195.491 C 196.467 197.676, 195.568 207.910, 195.535 231 C 195.502 253.456, 196.259 258.470, 201.167 268.280 C 205.530 277.001, 210.024 281.394, 217.782 284.521 C 223.778 286.938, 225.359 287.168, 232.500 286.659 C 243.717 285.860, 258.912 281.287, 268.500 275.825 C 277.627 270.626, 280.137 267.493, 278.151 263.781 C 275.900 259.575, 273.578 258.792, 268.764 260.615 C 256.729 265.171, 241.772 269.879, 235.913 270.955 C 222.987 273.329, 216.032 268.863, 212.117 255.674 C 209.322 246.260, 207.854 231.980, 208.652 221.962 C 209.677 209.089, 205.864 194, 201.586 194 C 200.792 194, 199.472 194.671, 198.652 195.491 M 139.164 203.770 C 134.237 210.689, 133.500 215.793, 133.500 243 C 133.500 269.701, 133.947 273.120, 138.130 278.438 C 142.832 284.416, 151.733 279.787, 149.227 272.666 C 148.516 270.646, 148.036 257.913, 147.902 237.500 C 147.680 203.715, 147.318 201, 143.045 201 C 141.995 201, 140.248 202.247, 139.164 203.770 M 88.580 213.215 C 87.129 214.027, 86.957 215.144, 87.477 220.339 C 87.816 223.728, 87.667 229.744, 87.146 233.708 C 86.220 240.749, 84.964 243.850, 76.906 259 C 70.712 270.647, 69.561 276.388, 72.829 279.345 C 75.392 281.665, 79.282 281.404, 81.706 278.750 C 83.541 276.741, 90.140 264.865, 96.663 251.832 C 102.255 240.658, 103.447 226.175, 99.374 218.865 C 96.568 213.826, 91.876 211.371, 88.580 213.215" stroke="none" fill="black" fill-rule="evenodd"/>
</svg>