<svg xmlns="http://www.w3.org/2000/svg" width="300" height="300" viewBox="0 0 300 300" version="1.1">
	<path d="M 204.366 21.988 C 201.703 23.063, 197.006 34.855, 196.985 40.521 C 196.976 42.710, 196.639 44.994, 196.235 45.598 C 195.831 46.202, 189.425 47.240, 182 47.904 C 174.575 48.568, 157.643 50.557, 144.372 52.323 L 120.245 55.536 117.471 43.283 C 115.945 36.544, 113.879 29.686, 112.879 28.042 C 110.644 24.367, 106.588 23.162, 103.069 25.129 C 99.342 27.212, 99.286 33.023, 102.864 46.250 C 104.463 52.162, 105.485 56.993, 105.136 56.986 C 104.786 56.978, 96.175 58.149, 86 59.589 C 66.272 62.381, 65.368 62.322, 59.837 57.879 C 56.682 55.344, 52.520 55.903, 51.719 58.967 C 51.119 61.262, 55.839 68.942, 59.732 72.004 C 64.989 76.139, 68.428 76.398, 86.607 74.028 C 95.898 72.816, 104.737 71.583, 106.250 71.288 L 109 70.750 109 76.875 C 109 81.667, 109.435 83.435, 111 85 C 113.403 87.403, 115.786 87.538, 118.777 85.443 C 120.708 84.091, 121 82.983, 121 77.002 C 121 73.116, 121.474 69.825, 122.089 69.445 C 122.688 69.075, 127.526 68.406, 132.839 67.959 C 138.153 67.512, 150.150 66.232, 159.500 65.115 C 168.850 63.998, 180.489 62.774, 185.364 62.395 L 194.228 61.706 193.535 67.103 C 193.153 70.071, 191.936 76.454, 190.829 81.286 C 188.962 89.436, 188.933 90.249, 190.431 92.536 C 192.551 95.770, 198.382 96.023, 200.026 92.952 C 200.629 91.825, 202.415 84.737, 203.994 77.202 C 205.574 69.666, 207.161 62.734, 207.522 61.798 C 207.958 60.664, 209.734 59.910, 212.839 59.539 C 224.866 58.103, 232.924 54.882, 243.806 47.159 C 246.503 45.245, 247.056 44.249, 246.806 41.757 C 246.360 37.308, 244.173 36.341, 237.653 37.709 C 234.663 38.336, 230.255 39.806, 227.858 40.976 C 224.397 42.666, 213.505 45.903, 211 45.987 C 210.725 45.997, 210.641 41.021, 210.814 34.931 C 211.195 21.471, 210.266 19.606, 204.366 21.988 M 105.332 99.839 C 99.739 101.785, 96.055 104.312, 88.888 111.119 C 79.393 120.137, 72.300 125.375, 64 129.497 C 56.786 133.079, 55 134.758, 55 137.955 C 55 141.341, 56.688 143, 60.133 143 C 63.298 143, 63.632 143.737, 64.909 153.542 C 65.408 157.369, 66.555 162.227, 67.459 164.339 C 69.079 168.126, 69.067 168.209, 66.550 170.541 C 62.358 174.426, 63.728 178.425, 70.078 180.839 C 72.337 181.699, 72.855 182.836, 74.314 190.159 C 76.666 201.964, 77.844 205.726, 79.375 206.313 C 81.494 207.127, 107.659 205.191, 116.931 203.535 C 121.569 202.707, 125.535 202.202, 125.746 202.412 C 126.558 203.225, 112.188 230.183, 105.444 240.500 C 103.646 243.250, 100.732 247.975, 98.968 251 C 94.516 258.634, 82.377 274.661, 77.259 279.661 C 70.592 286.174, 71.676 291, 79.807 291 C 83.922 291, 84.706 290.522, 91.692 283.750 C 95.866 279.703, 102.085 272.082, 105.769 266.500 C 109.398 261, 113.574 254.700, 115.050 252.500 C 116.525 250.300, 118.758 246.475, 120.013 244 C 121.267 241.525, 123.332 237.853, 124.602 235.841 L 126.910 232.182 133.074 234.100 C 136.464 235.155, 141.321 237.434, 143.869 239.164 C 157.949 248.728, 180.270 260.382, 188.331 262.378 C 189.888 262.763, 194.396 264.572, 198.348 266.398 C 202.301 268.224, 206.652 270.061, 208.017 270.482 C 209.383 270.903, 213.279 272.534, 216.675 274.108 C 226.016 278.436, 243.694 283.342, 250.187 283.409 C 254.867 283.456, 256.328 283.040, 258.437 281.059 C 261.824 277.877, 261.855 273.606, 258.507 271.413 C 257.110 270.497, 255.023 270.018, 253.757 270.322 C 252.516 270.620, 249.700 270.227, 247.500 269.447 C 245.300 268.668, 242.825 268.008, 242 267.981 C 241.175 267.954, 238.700 267.063, 236.500 266 C 234.300 264.937, 232.160 264.053, 231.745 264.034 C 231.330 264.015, 228.778 262.933, 226.073 261.628 C 223.369 260.323, 220.014 258.969, 218.618 258.619 C 217.222 258.269, 212.264 256.186, 207.601 253.991 C 202.938 251.796, 198.722 250, 198.233 250 C 196.980 250, 185.709 245.421, 178 241.779 C 170.917 238.434, 162.522 233.664, 154.123 228.214 C 149.786 225.400, 147.176 224.526, 140.623 223.695 C 136.155 223.129, 132.392 222.596, 132.261 222.510 C 132.130 222.425, 134.481 217.378, 137.487 211.294 C 142.519 201.108, 143.211 200.184, 146.226 199.636 C 156.208 197.818, 184.368 194.848, 196.500 194.332 C 212.853 193.637, 214.499 192.913, 213.476 186.860 C 212.989 183.977, 213.316 182.487, 214.912 180.314 C 217.895 176.251, 222.533 162.851, 224.366 153 C 229.672 124.477, 230.170 117.104, 227.202 111 C 223.542 103.473, 213.050 101.199, 199.608 105.021 C 195.699 106.132, 190.700 107.530, 188.500 108.128 C 175.060 111.780, 169.693 117.956, 175.792 122.750 C 178.238 124.673, 181.795 124.290, 196.712 120.500 C 215.347 115.765, 215.015 115.733, 214.936 122.250 C 214.900 125.138, 214.305 130.200, 213.613 133.500 C 212.421 139.180, 212.145 139.576, 208.427 140.932 C 205.667 141.938, 199.358 142.412, 187.191 142.527 C 172.946 142.661, 169.603 142.968, 168.311 144.261 C 165.999 146.572, 167.381 150.428, 171.695 153.705 C 175.313 156.453, 175.592 156.498, 188.437 156.374 C 195.622 156.305, 203.188 155.779, 205.250 155.205 C 208.400 154.328, 209 154.405, 209 155.686 C 209 158.246, 206.077 169.177, 203.820 175.060 L 201.686 180.619 187.987 180.744 C 175.065 180.861, 155.791 182.406, 151.599 183.662 C 150.051 184.125, 149.843 183.884, 150.477 182.365 C 150.906 181.339, 154.106 172.535, 157.589 162.801 C 162.590 148.823, 164.592 141.403, 167.110 127.516 C 169.937 111.917, 170.152 109.492, 169.016 106.047 C 167.029 100.028, 160.861 99.893, 158.246 105.812 C 156.877 108.909, 153.023 127.347, 153.009 130.865 C 152.992 135.316, 138.357 177.554, 135.829 180.450 C 135.373 180.973, 135 182.194, 135 183.165 C 135 185.840, 132.272 186.795, 121.417 187.917 C 107.010 189.407, 94.219 191.811, 91.613 193.518 L 89.343 195.005 87.440 185.330 C 86.025 178.130, 85.841 175.553, 86.722 175.259 C 87.373 175.042, 91.599 172.645, 96.113 169.932 C 100.626 167.220, 104.696 165, 105.157 165 C 105.617 165, 107.796 163.373, 109.997 161.384 C 114.822 157.025, 115.403 152.966, 111.564 150.450 C 109.221 148.915, 108.641 149.095, 96.336 155.177 C 89.301 158.655, 83.197 161.650, 82.772 161.833 C 82.347 162.017, 82 161.603, 82 160.913 C 82 159.216, 76.065 146.168, 73.742 142.757 C 71.777 139.872, 72.114 138, 74.599 138 C 76.487 138, 83.405 134.485, 86.288 132.061 C 87.505 131.038, 90.610 128.403, 93.190 126.206 C 103.243 117.639, 110.523 112.564, 115.877 110.388 C 121.925 107.930, 122.519 107.203, 121.570 103.422 C 120.463 99.012, 112.660 97.290, 105.332 99.839" stroke="none" fill="black" fill-rule="evenodd"/>
</svg>