<svg xmlns="http://www.w3.org/2000/svg" width="300" height="300" viewBox="0 0 300 300" version="1.1">
	<path d="M 201.800 9.189 C 198.869 10.716, 197.390 12.610, 194.680 18.308 C 192.799 22.264, 190.441 28.200, 189.441 31.500 C 188.441 34.800, 187.551 37.619, 187.464 37.764 C 187.377 37.909, 181.275 38.688, 173.903 39.496 C 154.088 41.667, 142.705 43.080, 140.876 43.597 C 138.980 44.131, 137 37.734, 137 31.077 C 137 21.947, 132.260 16.185, 127.045 18.976 C 123.520 20.862, 122.868 24.243, 124.518 32.084 C 125.333 35.960, 126 40.394, 126 41.938 C 126 44.465, 125.577 44.813, 121.750 45.435 C 119.412 45.814, 112.053 46.483, 105.395 46.920 C 96.484 47.506, 92.460 48.206, 90.145 49.574 C 86.606 51.664, 86.348 52.625, 88.503 55.701 C 91.107 59.419, 96.098 60.385, 105.302 58.953 C 109.767 58.258, 117.038 57.647, 121.460 57.595 L 129.500 57.500 129.794 64.738 C 130.032 70.619, 130.441 72.165, 131.971 72.985 C 136.486 75.401, 140 70.208, 140 61.122 L 140 55.144 145.750 54.571 C 148.912 54.255, 157.148 53.323, 164.052 52.499 C 170.956 51.674, 178.544 51, 180.916 51 L 185.227 51 184.606 54.250 C 182.246 66.589, 182.809 69, 188.050 69 C 190.999 69, 195 65.087, 195 62.203 C 195 61.363, 195.751 58.293, 196.669 55.380 C 198.544 49.432, 198.337 49.531, 211 48.485 C 220.767 47.679, 230.705 44.506, 231.521 41.934 C 233.276 36.404, 228.925 33.981, 220.661 35.889 C 213.199 37.611, 201 38.489, 201 37.303 C 201 35.173, 205.120 24.502, 207.983 19.215 C 211.396 12.913, 211.680 10.823, 209.429 8.571 C 207.506 6.649, 206.521 6.729, 201.800 9.189 M 195 71.646 C 192.865 72.341, 180.791 77.967, 179 79.101 C 170.963 84.191, 142.073 96, 137.656 96 C 136.567 96, 133.386 96.668, 130.588 97.485 C 127.790 98.301, 121.059 99.944, 115.630 101.135 C 109.234 102.539, 104.848 104.087, 103.166 105.533 C 100.808 107.562, 100.686 108.015, 101.826 110.517 C 103.074 113.257, 103.112 113.266, 110.466 112.599 C 120.989 111.646, 140.579 108.296, 142.902 107.053 C 143.983 106.474, 145.589 106, 146.469 106 C 147.742 106, 147.858 106.396, 147.035 107.934 C 145.357 111.069, 145.828 113.642, 148.703 117.059 C 151.134 119.947, 156.371 123, 158.896 123 C 160.626 123, 163 119.904, 163 117.649 C 163 116.435, 162.103 114.795, 161.006 114.004 C 159.910 113.214, 158.534 111.119, 157.950 109.348 C 157.258 107.251, 155.949 105.813, 154.194 105.221 L 151.500 104.313 154 103.599 C 164.486 100.602, 190.496 87.607, 197.686 81.774 C 203.948 76.693, 205.113 74.513, 202.800 72.200 C 201.598 70.998, 197.816 70.730, 195 71.646 M 192.917 97.250 C 190.481 99.588, 187.591 103.300, 186.494 105.500 C 184.530 109.441, 172.954 122, 171.287 122 C 170.816 122, 169.639 123.341, 168.670 124.981 C 166.282 129.024, 167.796 132, 172.242 132 C 177.868 132, 191.063 121.923, 196.466 113.500 C 201.329 105.920, 203.637 98.694, 202.203 95.545 C 200.548 91.913, 197.989 92.383, 192.917 97.250 M 112.241 115.986 C 108.636 121.758, 114.550 132.575, 122.310 134.405 C 132.424 136.791, 137.796 128.449, 128.616 124.613 C 126.795 123.852, 124.296 121.597, 123.063 119.602 C 119.513 113.858, 114.596 112.215, 112.241 115.986 M 192 134.889 C 188.901 136.599, 144.788 141.490, 123.500 142.483 C 107.487 143.231, 98.815 144.775, 95.416 147.485 C 88.980 152.617, 96.444 156.391, 111.981 155.860 L 122.500 155.500 122.371 162.618 C 122.300 166.533, 121.718 171.323, 121.078 173.263 C 119.964 176.639, 119.628 176.840, 113.207 177.963 C 100.798 180.134, 87.510 183.229, 86.250 184.241 C 85.563 184.793, 85 186.531, 85 188.103 C 85 190.379, 85.560 191.110, 87.750 191.687 C 91.527 192.682, 103.473 192.675, 109.350 191.674 L 114.200 190.847 110.274 198.174 C 103.568 210.686, 98.842 219.262, 95.216 225.500 C 84.381 244.134, 81.734 249.712, 81.228 254.975 C 80.837 259.043, 81.063 259.696, 83.269 260.877 C 86.653 262.688, 89.191 261.186, 91.881 255.782 C 94.612 250.295, 95.960 248.001, 104.848 233.714 L 112.180 221.929 115.020 226.217 C 116.583 228.576, 120.404 233.316, 123.513 236.752 L 129.166 242.998 124.844 247.149 C 122.468 249.433, 119.168 251.869, 117.512 252.563 C 115.855 253.257, 113.473 254.922, 112.217 256.262 C 110.274 258.336, 110.092 259.111, 110.990 261.474 C 111.981 264.079, 112.340 264.222, 116.833 263.790 C 122.499 263.246, 129.585 259.903, 135.123 255.163 L 139.116 251.745 143.308 254.751 C 161.940 268.116, 180.765 278.307, 196.500 283.548 C 206.843 286.993, 217.963 287.910, 221.477 285.607 C 226.285 282.456, 223.558 276, 217.418 276 C 205.341 276, 169.150 258.632, 151.049 244.149 L 148.598 242.188 152.049 238.340 C 153.947 236.224, 158.425 230.496, 162 225.613 C 165.575 220.729, 171.200 213.618, 174.500 209.811 C 185.820 196.752, 186.726 194.651, 182.978 190.153 C 180.125 186.729, 175.596 187.326, 153.500 194.042 C 144.447 196.794, 142.338 197.390, 131.325 200.315 L 122.151 202.752 123.825 199.143 C 128.610 188.831, 129.570 187.556, 133.069 186.862 C 134.956 186.487, 140.325 185.426, 145 184.503 C 149.675 183.580, 156.425 182.209, 160 181.456 C 163.575 180.702, 168.525 179.786, 171 179.419 C 178.011 178.380, 188.990 174.353, 191.754 171.807 C 194.128 169.620, 197 164.268, 197 162.032 C 197 160.331, 193.134 157, 191.161 157 C 190.149 157, 188.818 158.103, 188.204 159.452 C 186.755 162.632, 182.129 164.971, 175.116 166.069 C 172.027 166.552, 164.550 167.857, 158.500 168.970 C 152.450 170.082, 144.833 171.466, 141.573 172.046 C 138.313 172.626, 135.388 173.260, 135.073 173.455 C 134.758 173.650, 134.454 170.365, 134.398 166.155 C 134.341 161.945, 134.116 157.610, 133.898 156.522 C 133.529 154.686, 134.398 154.455, 146 153.296 C 186.748 149.229, 199 145.827, 199 138.583 C 199 135.060, 195.263 133.088, 192 134.889 M 156 206.094 C 154.625 206.503, 150.125 207.816, 146 209.012 C 141.875 210.207, 137.195 211.593, 135.601 212.093 C 134.006 212.592, 131.531 213.007, 130.101 213.015 C 128.670 213.024, 125.475 213.639, 123 214.383 L 118.500 215.736 123.045 220.118 C 125.544 222.528, 129.993 226.490, 132.931 228.923 C 137.487 232.695, 138.437 233.124, 139.387 231.836 C 141.748 228.631, 145.547 223.776, 146.564 222.664 C 148.879 220.131, 159.166 205.838, 158.843 205.601 C 158.655 205.463, 157.375 205.684, 156 206.094" stroke="none" fill="black" fill-rule="evenodd"/>
</svg>