<svg xmlns="http://www.w3.org/2000/svg" width="300" height="300" viewBox="0 0 300 300" version="1.1">
	<path d="M 193.412 43.148 C 191.332 44.157, 189.782 47.961, 185.040 63.686 L 182.873 70.872 177.187 71.454 C 170.941 72.093, 163.114 73.178, 149.750 75.257 C 143.954 76.159, 141 76.271, 141 75.588 C 141 73.868, 136.916 60.747, 135.153 56.801 C 133.303 52.663, 130.058 50.696, 126.537 51.580 C 122.661 52.553, 121.542 61.551, 124.903 64.711 C 125.949 65.695, 127.324 68.441, 127.958 70.813 C 128.592 73.184, 129.338 75.716, 129.615 76.438 C 129.975 77.377, 128.319 78.056, 123.809 78.820 C 112.769 80.689, 99.231 82.171, 91.444 82.363 C 83.933 82.548, 82.056 83.423, 82.015 86.764 C 81.995 88.458, 92.102 93, 95.895 93 C 97.558 93, 102.199 92.573, 106.209 92.051 C 130.245 88.923, 131.288 88.849, 132.139 90.191 C 132.596 90.911, 132.976 94.447, 132.985 98.050 C 133.001 105.075, 134.011 107, 137.677 107 C 141.624 107, 143.271 103.031, 142.842 94.551 L 142.465 87.086 147.983 86.493 C 151.017 86.166, 157.550 85.269, 162.500 84.499 C 167.450 83.729, 173.094 82.895, 175.042 82.646 L 178.584 82.193 174.864 93.347 C 171.666 102.933, 171.326 104.781, 172.441 106.500 C 175.484 111.190, 179.148 109.225, 182.696 101 C 186.404 92.401, 186.697 91.727, 188.398 87.849 C 189.279 85.841, 190 83.694, 190 83.077 C 190 80.546, 203.146 78, 216.219 78 C 224.086 78, 228 76.372, 228 73.098 C 228 69.601, 224.856 68.198, 215.500 67.523 C 210.550 67.165, 204.250 67.314, 201.501 67.854 C 198.751 68.393, 196.397 68.731, 196.270 68.603 C 196.143 68.476, 197.380 64.428, 199.019 59.608 C 202.416 49.620, 202.627 47.341, 200.443 44.223 C 198.774 41.840, 196.748 41.530, 193.412 43.148 M 154.913 103.282 C 151.595 105.830, 150.676 108.990, 152.048 113.144 C 152.748 115.265, 153.871 117, 154.543 117 C 156.336 117, 157.061 120.921, 155.687 123.188 C 154.548 125.065, 153.383 125.134, 127 124.874 C 103.139 124.639, 99.093 124.819, 96.427 126.236 C 88.603 130.392, 89.310 134, 97.950 134 C 101.257 134, 107.234 134.491, 111.231 135.091 C 115.229 135.692, 119.963 136.387, 121.750 136.637 C 123.546 136.888, 125 137.681, 125 138.411 C 125 140.407, 117.985 154.015, 115.862 156.138 C 114.838 157.162, 114 158.739, 114 159.643 C 114 161.475, 102.382 173.122, 96.686 177 C 93.150 179.407, 92.097 182.137, 93.765 184.573 C 96.376 188.386, 102.867 185.741, 113.365 176.585 L 120.940 169.979 122.484 172.335 C 125.581 177.063, 134.199 178.647, 137.425 175.083 C 139.571 172.711, 138.235 169.527, 134.724 168.646 C 133.443 168.324, 131.220 166.266, 129.784 164.073 L 127.173 160.084 130.554 153.792 C 132.414 150.331, 134.462 145.182, 135.105 142.348 L 136.274 137.196 141.387 136.635 C 144.199 136.327, 151.797 135.778, 158.271 135.416 L 170.043 134.758 169.071 137.312 C 167.947 140.270, 167.764 140.657, 162.060 152.153 C 159.404 157.506, 155.976 162.569, 153.071 165.430 L 148.376 170.055 144.787 168.555 C 140.067 166.583, 138.310 168.226, 139.807 173.211 C 140.350 175.020, 140.728 182.575, 140.647 190 L 140.500 203.500 136 203.762 C 133.525 203.906, 127.450 204.662, 122.500 205.441 C 117.550 206.221, 109 207.393, 103.500 208.045 C 98 208.698, 90.800 209.848, 87.500 210.601 C 83.975 211.406, 75.695 211.977, 67.424 211.985 C 53.876 211.999, 53.264 212.090, 51.098 214.396 C 46.647 219.133, 50.316 225.739, 55.029 221.474 C 56.593 220.058, 57.446 219.960, 60.104 220.886 C 64.095 222.278, 78.209 222.329, 86.918 220.983 C 105.624 218.093, 125.201 215.445, 134.750 214.511 L 141 213.901 141.008 235.200 C 141.022 272.054, 145.533 293, 153.455 293 C 157.925 293, 159.252 288.816, 156.519 283.338 C 153.826 277.941, 152.017 258.690, 152.008 235.358 C 152 213.218, 152 213.217, 154.250 212.684 C 157.140 212, 168.662 210.476, 182 209.014 C 197.093 207.360, 211.825 204.969, 216.826 203.362 C 221.765 201.775, 228.675 196.598, 229.555 193.826 C 230.552 190.685, 229.039 186.359, 226.462 184.980 C 224.349 183.849, 223.749 183.918, 222.010 185.491 C 220.904 186.492, 220 187.894, 220 188.608 C 220 191.838, 205.544 195.336, 181 198.046 C 175.225 198.683, 166.692 199.828, 162.037 200.589 C 157.382 201.351, 153.273 201.642, 152.906 201.237 C 152.538 200.832, 151.954 195.775, 151.607 190 L 150.976 179.500 155.078 177 C 157.334 175.625, 161.241 172.300, 163.761 169.611 C 168.168 164.906, 168.460 164.765, 171.491 165.861 C 173.224 166.487, 176.771 167, 179.374 167 C 182.715 167, 185.139 167.702, 187.621 169.389 C 191.455 171.994, 194.602 171.829, 195.507 168.977 C 196.635 165.424, 194.888 162.394, 189.782 159.052 C 185.637 156.338, 183.701 155.714, 179.428 155.714 C 174.112 155.714, 173.507 154.961, 176.043 151.500 C 176.447 150.950, 177.967 146.887, 179.422 142.470 L 182.068 134.440 189.284 133.267 C 204.290 130.827, 211 127.506, 211 122.518 C 211 121.191, 210.036 119.438, 208.851 118.608 C 207.036 117.337, 206.298 117.307, 204.101 118.417 C 199.528 120.728, 191.407 122.162, 179.041 122.841 L 167 123.503 166.996 117.502 C 166.992 110.518, 164.730 105.946, 160.094 103.549 C 156.573 101.728, 156.915 101.745, 154.913 103.282" stroke="none" fill="black" fill-rule="evenodd"/>
</svg>