<svg xmlns="http://www.w3.org/2000/svg" width="300" height="300" viewBox="0 0 300 300" version="1.1">
	<path d="M 177.895 10.281 C 175.494 13.599, 174.835 16.307, 173.091 30 L 171.500 42.500 160.500 43.163 C 154.450 43.528, 146.588 44.307, 143.030 44.893 C 139.471 45.480, 136.248 45.631, 135.868 45.230 C 135.231 44.559, 133.802 36.095, 132.451 25 C 131.850 20.064, 129.581 16.637, 126.206 15.565 C 124.571 15.046, 123.392 15.553, 121.511 17.582 C 118.539 20.789, 118.471 22.284, 120.674 35.832 C 121.904 43.397, 122.051 46.350, 121.224 46.861 C 120.603 47.245, 114.336 48.360, 107.297 49.338 C 100.259 50.316, 92.884 51.537, 90.909 52.051 C 85.305 53.509, 80.547 57.161, 80.184 60.282 L 79.867 63 89.684 62.992 C 95.083 62.988, 102.200 62.561, 105.500 62.043 C 108.800 61.525, 114.650 60.966, 118.500 60.801 L 125.500 60.500 126.500 68.884 C 127.318 75.741, 127.897 77.530, 129.678 78.708 C 131.339 79.806, 132.341 79.888, 133.905 79.051 C 137.240 77.266, 138.133 74.370, 138.099 65.444 L 138.068 57 143.998 57 C 147.260 57, 154.455 56.485, 159.987 55.856 C 165.519 55.227, 170.324 54.991, 170.664 55.331 C 171.004 55.671, 170.471 59.946, 169.479 64.832 C 167.156 76.278, 168.270 79.153, 174.431 77.607 C 177.175 76.918, 180.407 69.571, 182.176 60 C 182.736 56.975, 183.712 54.169, 184.347 53.765 C 184.981 53.361, 190.450 53.002, 196.500 52.967 C 204.714 52.919, 222.952 51.223, 227.750 50.061 C 227.887 50.027, 228 48.643, 228 46.985 C 228 44.661, 227.256 43.512, 224.750 41.970 C 221.701 40.093, 220.404 40.010, 203.750 40.637 L 186 41.305 186 34.336 C 186 30.503, 186.483 24.757, 187.072 21.566 C 188.263 15.125, 187.156 10.689, 183.929 8.962 C 181.204 7.503, 179.661 7.841, 177.895 10.281 M 151 77 C 151 77.550, 150.339 78, 149.532 78 C 148.725 78, 147.487 79.074, 146.782 80.386 C 142.809 87.780, 127.755 103.520, 110 118.845 C 102.575 125.253, 92.056 134.456, 86.625 139.296 C 81.193 144.136, 74.105 149.892, 70.872 152.087 C 63.604 157.023, 61.411 160.031, 62.964 162.933 C 64.420 165.653, 69.959 165.689, 75.434 163.014 C 88.619 156.572, 146.335 105.246, 154.445 92.750 C 155.427 91.237, 156.588 90, 157.027 90 C 157.465 90, 162.250 93.323, 167.662 97.384 C 181.402 107.695, 194.764 114.945, 212.399 121.656 C 217.405 123.561, 222.850 125.727, 224.500 126.470 C 227.302 127.732, 230.880 128.369, 233.715 128.111 C 234.383 128.050, 235.442 127.043, 236.068 125.874 C 238.436 121.448, 236.119 119.571, 216.439 109.970 C 186.770 95.497, 167.599 84.649, 162.202 79.281 C 159.590 76.683, 158.081 76, 154.952 76 C 152.778 76, 151 76.450, 151 77 M 153.500 116.296 C 139.471 120.206, 133.717 124.851, 136.390 130.107 C 137.495 132.280, 138.182 132.484, 143.864 132.322 C 147.306 132.224, 150.657 131.731, 151.311 131.227 C 154.366 128.871, 162.394 127.724, 171.593 128.328 C 181.003 128.947, 181.073 128.934, 182.212 126.435 C 186.533 116.950, 170.928 111.440, 153.500 116.296 M 160.500 135.680 C 155.240 136.859, 147.750 139.605, 140.191 143.128 C 135.621 145.258, 131.303 147, 130.596 147 C 129.889 147, 128.529 147.863, 127.575 148.917 C 126.221 150.414, 126.076 151.273, 126.913 152.837 C 128.139 155.128, 134.359 157.514, 136.177 156.391 C 136.846 155.977, 136.501 156.958, 135.411 158.569 C 134.320 160.181, 132.843 162.668, 132.128 164.096 C 131.412 165.523, 129.066 167.468, 126.914 168.418 C 123.854 169.768, 123 170.695, 123 172.666 C 123 174.367, 123.667 175.362, 125.051 175.724 C 126.770 176.173, 126.991 176.764, 126.418 179.380 C 126.041 181.096, 124.893 184.068, 123.867 185.985 C 122.840 187.902, 122 189.970, 122 190.580 C 122 191.191, 121.100 192.505, 120 193.500 C 118.900 194.495, 118 195.986, 118 196.813 C 118 199.476, 96.109 233.849, 93.787 234.833 C 93.354 235.017, 93 235.615, 93 236.164 C 93 236.712, 91.428 239.037, 89.507 241.330 C 70.515 264, 67.900 268.871, 73.565 271.025 C 75.192 271.643, 76.779 271.653, 77.902 271.052 C 81.245 269.264, 101.500 247.394, 106.500 240.176 C 109.250 236.206, 113.909 229.480, 116.852 225.229 C 121.874 217.978, 124.131 214.254, 128.168 206.560 C 130.480 202.154, 131.542 201.536, 139.367 200.045 C 146.579 198.671, 164.824 192.533, 166.450 190.934 C 166.973 190.420, 168.098 189.990, 168.950 189.978 C 169.803 189.966, 171.625 189.076, 173 188 C 174.375 186.924, 176.424 186.034, 177.554 186.022 C 181.097 185.984, 185.550 180.100, 187.410 173 C 188.346 169.425, 189.848 165.068, 190.747 163.317 C 192.115 160.655, 192.178 159.686, 191.132 157.389 C 190.444 155.880, 189.455 152.401, 188.936 149.660 C 187.797 143.658, 183.939 138.290, 179.400 136.394 C 176.273 135.087, 165.040 134.663, 160.500 135.680 M 164.500 148.979 C 161.200 149.349, 157.600 149.998, 156.500 150.420 C 155.400 150.842, 153.262 151.650, 151.750 152.215 C 149.780 152.951, 149 153.936, 149 155.687 C 149 157.031, 148.505 159.056, 147.900 160.186 C 147.224 161.450, 147.192 161.999, 147.818 161.612 C 148.378 161.267, 154.160 160.070, 160.668 158.954 C 176.541 156.230, 176 156.456, 176 152.540 C 176 149.323, 174.482 147.785, 171.668 148.152 C 171.026 148.236, 167.800 148.608, 164.500 148.979 M 163.500 171.988 C 159.650 172.984, 153.183 174.394, 149.128 175.120 C 142.757 176.262, 141.622 176.785, 140.772 178.971 C 140.231 180.362, 139.142 183.018, 138.352 184.873 C 137.011 188.020, 137.035 188.200, 138.707 187.548 C 139.693 187.164, 143.200 186.165, 146.500 185.327 C 159.257 182.088, 168.824 178.319, 171.773 175.370 C 172.526 174.617, 173.786 174, 174.571 174 C 175.357 174, 176 173.100, 176 172 C 176 169.482, 173.192 169.479, 163.500 171.988 M 167.925 217.465 C 163.759 218.200, 158.231 219.521, 155.640 220.401 C 153.050 221.280, 150.226 222, 149.366 222 C 148.506 222, 146.207 222.757, 144.258 223.682 C 140.769 225.337, 140.684 225.325, 138.857 222.932 C 135.320 218.298, 134.907 218, 132.032 218 C 125.597 218, 124.710 222.340, 128.098 237.261 C 130.722 248.817, 132.077 268, 130.270 268 C 127.916 268, 121.840 274.858, 122.179 277.134 C 122.705 280.674, 125.469 281.745, 128.880 279.730 C 131.026 278.462, 134.039 278, 140.154 278 C 144.744 278, 153.900 277.109, 160.500 276.020 C 167.100 274.932, 173.858 274.032, 175.519 274.021 C 179.898 273.991, 201.868 268.317, 204.641 266.500 C 207.213 264.814, 207.579 262.951, 205.939 259.886 C 204.093 256.436, 200.921 256.005, 191.881 257.976 C 187.271 258.981, 183.330 259.639, 183.121 259.439 C 182.913 259.239, 185.792 255.796, 189.519 251.788 C 196.812 243.944, 201 236.126, 201 230.358 C 201 224.934, 197.348 219.209, 193.063 217.915 C 187.422 216.212, 176.166 216.010, 167.925 217.465 M 167 231.446 C 161.225 232.704, 153.350 234.858, 149.500 236.233 C 143.896 238.235, 142.556 239.109, 142.783 240.617 C 142.938 241.653, 143.341 247.384, 143.679 253.354 L 144.293 264.209 147.897 263.662 C 149.878 263.361, 156.225 262.609, 162 261.991 C 174.685 260.634, 175.751 260.351, 174.167 258.767 C 172.077 256.677, 172.916 254.216, 178.021 247.473 C 183.339 240.446, 187 234.004, 187 231.671 C 187 230.819, 185.516 230.016, 183.250 229.642 C 178.487 228.855, 179.331 228.761, 167 231.446" stroke="none" fill="black" fill-rule="evenodd"/>
</svg>