<svg xmlns="http://www.w3.org/2000/svg" width="300" height="300" viewBox="0 0 300 300" version="1.1">
	<path d="M 108.725 25.752 C 105.716 29.076, 104.799 33.241, 105.476 40.500 C 105.836 44.350, 106.347 48.405, 106.613 49.511 C 107.064 51.386, 106.199 51.641, 93.798 53.289 C 79.269 55.220, 72.338 57.778, 70.303 61.961 C 67.660 67.391, 72.777 67.993, 92 64.511 C 103.859 62.363, 107.818 62.082, 108.299 63.354 C 108.537 63.984, 109.541 68.704, 110.530 73.843 C 112.701 85.114, 114.503 87.915, 118.645 86.451 C 121.387 85.482, 121.500 85.186, 121.500 78.971 C 121.500 75.412, 121.159 70.229, 120.742 67.452 L 119.985 62.405 131.742 61.139 C 145.920 59.614, 167.371 58.037, 167.821 58.488 C 168.141 58.807, 161.955 68.063, 159.460 71 C 158.253 72.421, 157.630 75.064, 157.885 77.683 C 158.045 79.327, 161.328 80.207, 164.413 79.432 C 166.898 78.809, 173.477 70.930, 180.335 60.366 C 183.164 56.007, 183.180 56, 189.335 55.933 C 199.417 55.823, 219.920 53.480, 221.096 52.304 C 222.760 50.640, 221.803 47.938, 218.738 45.652 C 216.293 43.828, 214.602 43.601, 203.988 43.667 C 197.395 43.709, 192.002 43.463, 192.004 43.121 C 192.006 42.780, 192.839 41.137, 193.855 39.471 C 194.871 37.805, 196.311 34.064, 197.056 31.157 C 198.225 26.596, 198.211 25.746, 196.955 24.951 C 192.839 22.347, 187.461 26.591, 180.421 37.998 C 178.341 41.366, 175.934 44.494, 175.070 44.947 C 174.207 45.401, 168.550 46.301, 162.500 46.947 C 156.450 47.592, 145.824 48.769, 138.888 49.560 C 122.792 51.398, 119 51.406, 119 49.606 C 119 42.505, 116.621 27.238, 115.283 25.761 C 113.255 23.519, 110.748 23.516, 108.725 25.752 M 192.500 78.525 C 191.400 78.701, 185.100 79.353, 178.500 79.973 C 162.906 81.438, 146.340 83.579, 132 85.983 C 120.175 87.966, 108.403 89.495, 97 90.530 C 88.860 91.269, 85.246 92.608, 81.741 96.185 C 78.679 99.309, 78.002 99.592, 77.995 97.750 C 77.992 97.063, 76.945 95.194, 75.668 93.598 C 72.603 89.768, 68.494 90.474, 67.500 95.002 C 66.891 97.772, 70.159 111.823, 72.035 114.500 C 72.420 115.050, 73.506 117.862, 74.448 120.749 C 76.472 126.954, 79.268 129.467, 82.161 127.681 C 83.213 127.031, 84.309 125.577, 84.596 124.449 C 85.071 122.580, 81.737 108.404, 80.542 107.208 C 79.167 105.833, 89.860 102.061, 95.216 102.031 C 101.073 101.999, 116.144 100.209, 133 97.544 C 164.526 92.559, 198.105 89.450, 205.500 90.831 C 210.244 91.717, 210.273 92.455, 205.924 101.753 C 202.654 108.744, 202.329 111.198, 204.440 112.950 C 207.157 115.205, 211.241 113.758, 214.175 109.500 C 222.465 97.467, 224.232 88.503, 219.250 83.751 C 217.738 82.308, 215.375 80.707, 214 80.194 C 211.326 79.195, 195.824 77.992, 192.500 78.525 M 123 109.654 C 114.330 111.307, 103.504 114.702, 100.250 116.788 C 97.014 118.862, 97.253 122.774, 100.669 123.632 C 103.560 124.357, 118.340 122.694, 129.385 120.401 C 134.261 119.388, 142.668 119.004, 158.197 119.084 C 177.792 119.185, 180.331 119.010, 182.063 117.443 C 184.406 115.323, 184.518 113.185, 182.443 110.223 C 180.901 108.021, 180.654 108.001, 155.693 108.112 C 138.439 108.188, 128.136 108.674, 123 109.654 M 120.500 138.041 C 107.052 138.796, 94.878 141.237, 92.945 143.567 C 92.334 144.302, 92.114 145.785, 92.456 146.862 C 93.495 150.135, 100.897 151.290, 112.923 150.056 C 118.582 149.475, 129.564 149, 137.328 149 C 152.259 149, 153.029 149.465, 144 153.023 C 140.487 154.408, 130.968 160.654, 123.500 166.475 C 118.646 170.259, 113.874 173.366, 104 179.174 C 99.875 181.600, 94.022 185.057, 90.993 186.856 C 84.080 190.963, 80.327 196.227, 81.880 199.636 C 83.316 202.788, 88.242 202.805, 92.406 199.672 C 94.108 198.392, 96.850 196.675, 98.500 195.856 C 103.628 193.312, 105.776 192.019, 132.065 175.645 C 135.777 173.334, 136.991 174.174, 140.427 181.436 C 142.940 186.749, 147.198 202.993, 148.700 213 C 149.809 220.386, 148.929 221.911, 137.481 232.440 C 132.235 237.264, 126.236 242.852, 124.150 244.856 C 122.063 246.860, 114.426 253.418, 107.178 259.429 C 96.226 268.511, 94 270.814, 94 273.057 C 94 276.653, 98.765 278.884, 102.658 277.110 C 110.021 273.755, 136.451 251.548, 147.678 239.282 L 151.856 234.718 152.554 238.434 C 153.451 243.217, 152.458 262.107, 150.989 268.209 C 149.553 274.175, 146.068 279.408, 143.261 279.814 C 142.068 279.986, 139.772 279.152, 138.160 277.960 C 132.200 273.554, 127.810 279.177, 132.201 285.593 C 138.984 295.503, 153.157 293.452, 159.157 281.692 C 164.346 271.523, 166.300 251.604, 163.617 236.250 C 161.540 224.368, 161.580 222.743, 163.990 221.238 C 165.731 220.151, 166.327 220.385, 168.740 223.099 C 170.258 224.805, 174.200 228.309, 177.500 230.885 C 183.035 235.205, 185.057 236.525, 195 242.307 C 202.438 246.633, 212.345 251.208, 217.312 252.610 C 237.216 258.231, 237.461 258.275, 249.009 258.231 C 258.983 258.193, 261.256 257.861, 266.044 255.744 C 269.083 254.400, 272.791 251.848, 274.285 250.074 C 280.138 243.117, 275.222 234.877, 269.103 241.390 C 265.982 244.713, 258.923 246.517, 249.500 246.402 C 235.112 246.226, 220.976 242.356, 204.646 234.121 C 194.549 229.030, 175.152 216.418, 175.044 214.874 C 175.020 214.530, 179.703 210.148, 185.450 205.137 C 191.790 199.610, 196.978 194.152, 198.639 191.263 C 200.144 188.643, 202.192 185.427, 203.188 184.115 C 205.402 181.201, 205.429 180.572, 203.428 178.571 C 201.076 176.219, 197.115 177.591, 192.477 182.362 C 190.264 184.638, 186.439 188.271, 183.977 190.435 C 181.515 192.599, 175.358 198.337, 170.295 203.185 C 165.232 208.033, 160.726 212, 160.282 212 C 159.455 212, 157.452 205.038, 155.966 197 C 154.163 187.242, 149.144 175.887, 144.054 170.050 L 141.918 167.599 144.709 166.178 C 148.906 164.041, 151.968 160.942, 154.217 156.556 C 155.883 153.306, 156.024 152.268, 155.017 150.656 C 153.823 148.743, 154.077 148.712, 166.589 149.253 C 180.314 149.845, 183.223 149.321, 185.041 145.923 C 186.031 144.074, 185.840 143.386, 183.762 141.307 C 181.559 139.104, 180.100 138.776, 168.910 137.963 C 154.906 136.945, 139.583 136.970, 120.500 138.041 M 133.225 195.660 C 124.812 199.807, 107.045 224.130, 107.010 231.550 C 106.997 234.234, 108.846 236, 111.668 236 C 113.333 236, 115.006 234.388, 117.962 229.937 C 120.177 226.603, 127.187 218.080, 133.540 210.997 C 144.133 199.188, 144.985 197.949, 143.805 196.060 C 142.232 193.540, 137.861 193.375, 133.225 195.660" stroke="none" fill="black" fill-rule="evenodd"/>
</svg>