<svg xmlns="http://www.w3.org/2000/svg" width="300" height="300" viewBox="0 0 300 300" version="1.1">
	<path d="M 192.291 11.753 C 188.123 15.463, 186.423 18.244, 181.688 29.095 L 179.247 34.690 171.874 35.338 C 167.818 35.695, 155.725 37.096, 145 38.451 C 114.180 42.345, 106.971 42.819, 106.019 41.015 C 105.580 40.182, 104.216 35.450, 102.988 30.500 C 99.648 17.030, 97.162 14.313, 91.064 17.467 C 86.766 19.689, 86.318 22.874, 88.961 32.395 C 90.198 36.853, 91.398 41.224, 91.628 42.108 C 92.098 43.921, 86.272 44.967, 75.500 45.002 C 66.818 45.031, 62.582 45.935, 59.768 48.361 C 56.176 51.457, 55.554 54.286, 57.982 56.484 C 59.830 58.156, 61.574 58.258, 79.424 57.741 C 93.665 57.328, 99.012 57.488, 99.447 58.339 C 103.168 65.626, 104.709 67.524, 107.136 67.805 C 111.061 68.260, 114.038 64.102, 113.020 59.587 C 112.287 56.338, 112.399 56.148, 115.375 55.594 C 117.094 55.274, 123.900 54.572, 130.500 54.033 C 137.100 53.495, 148.575 52.145, 156 51.034 C 163.425 49.922, 170.342 49.010, 171.372 49.007 C 173.127 49, 173.143 49.141, 171.623 51.250 C 168.693 55.317, 165 62.897, 165 64.844 C 165 69.414, 171.527 70.732, 175.531 66.971 C 176.865 65.717, 180.329 60.900, 183.229 56.266 L 188.500 47.840 210.500 48.143 C 222.600 48.309, 233.063 48.094, 233.750 47.664 C 236.866 45.715, 232.718 38.023, 227.541 36.151 C 225.831 35.533, 217.834 34.727, 209.769 34.360 L 195.107 33.694 196.400 31.097 C 197.111 29.669, 198.981 24.815, 200.557 20.312 C 203.363 12.293, 203.383 12.081, 201.556 10.062 C 198.916 7.145, 197.093 7.477, 192.291 11.753 M 174 73.655 C 170.831 74.549, 166.014 89.297, 166.006 98.132 L 166 103.764 156.750 105.330 C 151.662 106.191, 145.345 107.174, 142.712 107.515 C 132.824 108.794, 127.605 112.763, 128.678 118.189 C 129.481 122.250, 133.556 123.279, 141.816 121.509 C 145.492 120.721, 152.462 119.446, 157.304 118.676 C 164.964 117.458, 166.036 117.463, 165.554 118.720 C 165.249 119.514, 165 124.343, 165 129.452 L 165 138.740 160.250 139.976 C 150.285 142.568, 142.666 147.645, 143.193 151.342 C 143.615 154.308, 147.366 154.658, 152.421 152.203 C 154.664 151.114, 158.207 149.923, 160.293 149.558 L 164.086 148.893 163.793 156.551 L 163.500 164.208 159.500 165.482 C 145.514 169.937, 137.717 172.050, 137.195 171.528 C 136.865 171.198, 136.539 164.607, 136.471 156.881 C 136.349 142.947, 135.898 141.074, 132.651 141.015 C 130.775 140.981, 126.192 147.190, 125.121 151.216 C 123.186 158.490, 121.575 227.392, 123.010 241.500 C 123.681 248.100, 124.684 254.063, 125.238 254.750 C 126.730 256.602, 131.450 256.265, 133.345 254.171 C 134.761 252.607, 135 249.642, 135 233.671 L 135 215 138.032 215 C 139.700 215, 142.737 214.298, 144.782 213.440 C 147.729 212.203, 160.559 209, 162.565 209 C 162.804 209, 163 222.850, 163 239.778 C 163 269.318, 162.920 270.624, 161 272.268 C 158.461 274.442, 158.478 276.067, 161.073 279.365 C 164.889 284.217, 170.724 282.540, 173.545 275.779 C 175.098 272.057, 175.388 267.257, 175.781 238.874 L 176.232 206.247 179.866 205.126 C 181.865 204.510, 186.641 202.288, 190.481 200.189 C 196.145 197.092, 197.638 195.759, 198.394 193.122 C 199.204 190.299, 198.993 189.539, 196.796 187.342 L 194.267 184.812 188.383 187.731 C 185.147 189.336, 181.019 190.946, 179.210 191.308 L 175.920 191.966 176.583 184.233 C 176.948 179.980, 177.531 176.183, 177.879 175.795 C 178.226 175.407, 183.683 174.129, 190.005 172.954 C 196.327 171.780, 202.459 170.640, 203.631 170.421 C 208.797 169.454, 206.401 161.474, 200.432 159.771 C 197.202 158.850, 182.807 159.752, 179.250 161.098 C 177.094 161.915, 177.001 161.732, 177.015 156.725 C 177.024 153.851, 177.361 150.989, 177.765 150.365 C 178.169 149.740, 183 148.763, 188.500 148.194 C 194 147.624, 203.999 146.359, 210.720 145.382 C 217.441 144.405, 223.291 143.958, 223.720 144.388 C 225.018 145.691, 224.553 221.559, 223.196 229.705 C 221.614 239.204, 217.453 252.223, 215.062 255.156 C 213.156 257.495, 213.144 257.496, 209.681 255.649 C 204.618 252.949, 202 254.090, 202 258.995 C 202 262.235, 202.599 263.348, 205.728 265.927 C 210.732 270.052, 216.133 270.136, 221.600 266.174 C 233.045 257.880, 235.565 248.946, 239.211 203.746 C 240.599 186.539, 238.939 141.724, 236.745 137.163 C 236.060 135.739, 233.925 133.502, 232 132.190 C 228.009 129.472, 226.522 129.511, 204.271 132.924 C 197.247 134.001, 188.417 135.278, 184.648 135.762 L 177.796 136.643 178.387 133.071 C 178.712 131.107, 178.983 126.304, 178.989 122.399 L 179 115.297 187.250 114.676 C 191.787 114.334, 199.315 113.124, 203.977 111.988 C 208.639 110.852, 215.164 109.653, 218.477 109.324 C 225.577 108.618, 227 107.721, 227 103.949 C 227 97.110, 220.967 96.114, 200 99.488 C 191.475 100.860, 183.233 101.987, 181.684 101.991 L 178.869 102 179.564 89.201 C 180.179 77.899, 180.061 76.204, 178.559 74.701 C 176.823 72.965, 176.614 72.918, 174 73.655 M 220.750 75.392 C 219.787 76.123, 219 77.249, 219 77.895 C 219 80.059, 222.057 83.768, 226.214 86.647 C 228.741 88.398, 231.059 91.142, 232.213 93.750 C 233.870 97.494, 234.481 98, 237.347 98 C 239.136 98, 241.140 97.460, 241.800 96.800 C 245.146 93.454, 240.858 81.282, 234.670 76.562 C 230.890 73.679, 223.793 73.082, 220.750 75.392 M 83.730 104.932 C 80.734 107.563, 80.168 108.795, 79.584 113.963 C 78.824 120.677, 80.370 119.626, 65.656 123.429 C 57.360 125.573, 49.368 129.443, 48.015 131.972 C 47.093 133.695, 47.180 134.625, 48.442 136.551 C 50.684 139.974, 54.423 140.578, 61.972 138.736 C 65.563 137.860, 70.300 136.862, 72.500 136.518 C 74.700 136.175, 77.287 135.662, 78.250 135.379 C 79.847 134.910, 80 135.899, 80.001 146.683 C 80.001 153.182, 80.468 163.422, 81.039 169.437 C 82.251 182.222, 84.434 178.839, 64 195.844 C 44.552 212.029, 42.792 213.928, 39.556 222.213 C 36.549 229.911, 36.833 232.222, 40.858 232.820 C 42.409 233.051, 45.601 230.759, 52.256 224.635 C 70.993 207.393, 82.415 198.015, 83.434 199.034 C 85.066 200.666, 84.820 259.293, 83.173 261.286 C 81.614 263.171, 78.396 262.279, 73.504 258.608 C 71.852 257.368, 69.764 256.082, 68.865 255.752 C 66.492 254.880, 63 257.720, 63 260.522 C 63 265.313, 73.103 273.890, 80.576 275.443 C 86.632 276.702, 92.920 272.544, 96.121 265.167 C 98.603 259.444, 98.690 238.055, 96.356 207.199 L 94.670 184.897 99.689 179.699 C 108.328 170.752, 109.850 166.984, 106.171 163.655 C 103.492 161.230, 100.921 161.616, 96.728 165.073 L 93 168.146 92.996 162.823 C 92.994 159.895, 92.699 151.762, 92.342 144.750 C 91.728 132.717, 91.797 132, 93.567 132 C 94.599 132, 99.848 130.595, 105.233 128.877 C 113.562 126.220, 115.116 125.388, 115.639 123.303 C 115.977 121.955, 115.729 119.701, 115.087 118.293 C 113.969 115.837, 113.668 115.758, 107.711 116.346 C 104.295 116.683, 99.311 117.257, 96.635 117.622 L 91.770 118.286 92.135 110.393 L 92.500 102.500 89.850 102.193 C 88.029 101.982, 86.113 102.840, 83.730 104.932 M 154.500 182.024 C 151.200 183.018, 145.688 184.639, 142.250 185.628 L 136 187.425 136 194.212 C 136 201.944, 136.005 201.947, 143.782 198.991 C 146.687 197.887, 152.087 196.650, 155.782 196.242 L 162.500 195.500 162.792 187.750 C 163.123 178.979, 163.575 179.291, 154.500 182.024" stroke="none" fill="black" fill-rule="evenodd"/>
</svg>