<svg xmlns="http://www.w3.org/2000/svg" width="300" height="300" viewBox="0 0 300 300" version="1.1">
	<path d="M 203.706 11.777 C 202.116 12.757, 199.811 15.870, 198.358 19 C 196.953 22.025, 194.974 26.075, 193.958 28 L 192.113 31.500 170.806 32.274 C 159.088 32.699, 142.750 33.642, 134.500 34.368 C 126.250 35.095, 119.162 35.508, 118.750 35.286 C 118.338 35.064, 118 32.434, 118 29.441 C 118 20.723, 112.699 17.211, 107.455 22.455 C 104.864 25.045, 104.608 26.070, 104.936 32.520 L 105.141 36.541 86.147 38.330 C 65.558 40.269, 60.240 41.325, 58.314 43.857 C 56.420 46.345, 56.684 51.764, 58.750 52.843 C 60.637 53.829, 76.001 52.861, 94.500 50.590 C 100.550 49.848, 105.838 49.438, 106.250 49.679 C 106.663 49.921, 107 51.393, 107 52.952 C 107 57.052, 110.041 71.281, 111.232 72.750 C 111.789 73.438, 113.710 74, 115.501 74 C 120.334 74, 121.438 70.539, 120.559 58.143 L 119.862 48.317 133.681 47.641 C 141.281 47.269, 155.903 46.677, 166.174 46.327 L 184.848 45.689 181.924 51.485 C 180.316 54.673, 179 57.861, 179 58.569 C 179 60.798, 182.027 63, 185.092 63 C 187.664 63, 188.676 62.026, 193.020 55.372 C 195.759 51.176, 198 47.351, 198 46.872 C 198 46.392, 204.863 45.955, 213.250 45.900 C 231.020 45.784, 233.147 45.366, 234.423 41.737 C 236.360 36.230, 229.447 33, 215.724 33 C 211.659 33, 208.084 32.750, 207.779 32.446 C 207.474 32.141, 208.524 29.208, 210.112 25.930 C 216.004 13.766, 212.616 6.281, 203.706 11.777 M 156.589 80.077 C 155.165 81.769, 154 83.461, 154 83.837 C 154 84.213, 152.899 85.708, 151.552 87.160 C 150.206 88.612, 147.652 92.207, 145.877 95.150 C 144.101 98.092, 142.541 100.648, 142.411 100.830 C 142.280 101.011, 141.122 100.498, 139.837 99.689 C 138.552 98.881, 134.346 98.013, 130.492 97.760 C 126.201 97.479, 122.178 96.565, 120.116 95.401 C 111.730 90.668, 110.257 90.093, 106.404 90.048 C 101.158 89.987, 96.369 92.387, 94.491 96.018 C 92.199 100.449, 93.345 101.697, 100.403 102.453 C 103.852 102.822, 108.991 104.197, 111.821 105.509 C 119.267 108.958, 127.506 110.368, 132.973 109.127 C 135.433 108.569, 137.604 108.270, 137.797 108.463 C 137.990 108.656, 137.445 110.172, 136.587 111.832 C 135.274 114.370, 134.108 115.036, 129.263 116.016 C 117.674 118.358, 106.364 122.257, 100.804 125.825 C 94.764 129.701, 93.121 132.549, 95.533 134.962 C 96.798 136.226, 97.469 136.243, 100.254 135.080 C 105.194 133.016, 120.139 129.110, 123.317 129.052 C 126.898 128.986, 126.700 129.651, 119.227 142.791 C 108.679 161.338, 105.967 165.890, 104.687 167.199 C 103.988 167.915, 102.817 169.963, 102.086 171.750 C 101.355 173.537, 100.474 175.010, 100.129 175.022 C 99.783 175.034, 97.700 178.010, 95.500 181.637 C 93.300 185.263, 89.914 190.315, 87.976 192.865 C 86.037 195.414, 82.793 199.838, 80.767 202.695 C 75.488 210.138, 73.569 212.378, 63.500 222.850 C 55.428 231.245, 44.570 240, 42.229 240 C 40.454 240, 37 244.700, 37 247.114 C 37 257.514, 55.594 250.365, 71.602 233.810 C 79.417 225.728, 92.379 210.127, 97.418 202.739 C 101.215 197.172, 101.396 197.048, 103.281 198.747 C 107.476 202.529, 127.980 200.132, 156.500 192.526 C 180.130 186.224, 193.659 183.420, 204.750 182.527 L 213 181.863 212.983 186.681 C 212.974 189.332, 211.838 200.050, 210.457 210.500 C 209.077 220.950, 207.531 232.875, 207.022 237 C 205.918 245.943, 202.193 258.712, 198.646 265.712 C 193.722 275.430, 186.308 280.922, 181.863 278.146 C 178.556 276.081, 174.209 276.751, 172.333 279.615 C 170.806 281.945, 170.777 282.518, 172.069 284.865 C 174.027 288.424, 181.386 292, 186.752 292 C 194.825 292, 204.115 285.537, 208.570 276.821 C 209.886 274.247, 211.421 271.858, 211.981 271.512 C 212.541 271.165, 213 270.209, 213 269.386 C 213 268.563, 213.915 265.881, 215.034 263.426 C 216.152 260.970, 217.463 257.057, 217.946 254.731 C 218.430 252.404, 219.523 247.344, 220.376 243.487 C 221.230 239.631, 222.414 231.081, 223.009 224.487 C 223.603 217.894, 225.020 206.650, 226.156 199.500 C 228.286 186.101, 228.200 177.895, 225.891 174.198 C 223.738 170.749, 217.700 167.997, 212.364 168.032 C 207.890 168.061, 196.500 169.476, 181.500 171.868 C 178.200 172.394, 170.325 174.265, 164 176.025 C 148.160 180.434, 146.658 180.825, 137 183.045 C 127.409 185.250, 111.269 187.284, 109.930 186.457 C 109.444 186.156, 110.762 183.343, 112.859 180.205 C 117.796 172.819, 120.446 168.470, 123.122 163.361 C 125.138 159.513, 125.494 159.281, 128.199 160.057 C 130.081 160.597, 132.765 160.407, 135.804 159.518 C 150.580 155.197, 168.316 151, 171.797 151 C 172.940 151, 172.307 152.102, 169.721 154.614 C 164.393 159.788, 164.842 166, 170.543 166 C 172.834 166, 185.386 157.723, 190.731 152.688 C 195.243 148.438, 196.575 144.012, 194.532 140.061 C 193.661 138.378, 192.285 137, 191.474 137 C 189.001 137, 189.747 135.601, 196.356 127.856 C 199.852 123.759, 203.227 119.445, 203.856 118.269 C 206.201 113.888, 204.822 109.563, 200.316 107.163 C 196.005 104.868, 171.721 106.231, 159.172 109.474 C 154.266 110.742, 153.897 110.718, 154.523 109.176 C 154.898 108.254, 156.239 104.794, 157.504 101.486 C 158.770 98.179, 160.974 93.275, 162.402 90.588 C 167.892 80.264, 163.346 72.046, 156.589 80.077 M 179.500 118.664 C 177.850 118.864, 172.450 119.882, 167.500 120.926 C 162.550 121.970, 155.638 123.385, 152.140 124.072 C 148.642 124.758, 145.353 125.810, 144.831 126.410 C 142.151 129.487, 133.706 145.039, 134.360 145.693 C 134.567 145.901, 137.159 145.209, 140.118 144.157 C 148.019 141.348, 166.924 136.997, 171.224 136.999 C 174.337 137, 175.199 136.516, 176.473 134.052 C 178.703 129.740, 183.713 122.483, 185.462 121.031 C 186.296 120.339, 186.731 119.374, 186.430 118.887 C 185.883 118.001, 185.150 117.978, 179.500 118.664 M 177.035 216.934 C 175.651 219.521, 175.740 221.981, 177.326 225 C 180.734 231.488, 184.318 237.639, 185.483 239 C 186.189 239.825, 187.772 242.525, 189 245 C 192.229 251.507, 193.848 253, 197.676 253 C 202.588 253, 203.898 249.689, 201.524 243.279 C 196.952 230.936, 189.108 217.826, 185.241 216.064 C 181.635 214.421, 178.184 214.787, 177.035 216.934 M 120.788 225.706 C 118.482 228.288, 116.736 235.728, 117.453 239.909 C 118.583 246.491, 122.222 255.473, 124.681 257.750 C 127.457 260.320, 129.808 260.592, 132.465 258.649 C 134.141 257.424, 134.197 256.844, 133.071 252.399 C 132.388 249.705, 131.479 244.064, 131.052 239.865 C 129.773 227.307, 125.106 220.869, 120.788 225.706 M 154.518 226.363 C 150.636 229.202, 148.588 243.617, 151.201 249.703 C 154.523 257.438, 159.197 261.035, 163.165 258.912 C 165.399 257.716, 165.382 257.275, 162.599 244.500 C 161.760 240.650, 161.057 235.688, 161.037 233.473 C 161.002 229.707, 158.834 225, 157.134 225 C 156.721 225, 155.543 225.613, 154.518 226.363 M 94.395 229.772 C 91.426 232.209, 90.669 234.977, 92.438 236.931 C 94.414 239.115, 96.967 250.213, 96.985 256.703 C 97.010 265.366, 100.228 269.554, 104.928 267.038 C 108.071 265.357, 109.323 258.782, 108.612 247.698 C 107.918 236.882, 106.400 232.094, 102.883 229.631 C 99.904 227.544, 97.052 227.592, 94.395 229.772" stroke="none" fill="black" fill-rule="evenodd"/>
</svg>