<svg xmlns="http://www.w3.org/2000/svg" width="300" height="300" viewBox="0 0 300 300" version="1.1">
	<path d="M 210 9.952 C 203.792 12.411, 200.704 17.023, 197.413 28.750 C 197.178 29.589, 194.831 30.010, 190.281 30.030 C 186.552 30.046, 176.975 30.729, 169 31.548 C 161.025 32.366, 150.348 33.318, 145.274 33.663 C 134.588 34.390, 135.151 34.882, 134.149 23.948 C 133.579 17.731, 133.181 16.672, 130.894 15.288 C 123.550 10.845, 119.108 18.602, 122.128 30.595 C 122.749 33.060, 123.024 35.310, 122.739 35.594 C 122.454 35.879, 115.984 36.800, 108.361 37.641 C 88.278 39.857, 88.339 39.844, 85.029 42.629 C 79.823 47.009, 81.879 54.875, 87.911 53.657 C 89.335 53.369, 93.650 52.469, 97.500 51.657 C 101.350 50.844, 109.090 49.802, 114.700 49.340 C 126.427 48.374, 125.962 48.010, 125.986 58.179 C 126.005 65.812, 128.438 68.441, 133.150 65.920 C 136.018 64.385, 138 58.958, 138 52.643 C 138 47.291, 138.042 47.215, 141.335 46.597 C 143.169 46.253, 152.282 45.549, 161.585 45.034 C 170.888 44.518, 181.762 43.785, 185.750 43.404 C 189.738 43.024, 193 43.017, 193 43.389 C 193 43.760, 192.325 45.680, 191.500 47.654 C 188.623 54.540, 190.222 58.453, 195.657 57.822 C 198.891 57.447, 202.159 53.136, 204.759 45.816 C 206.414 41.157, 206.600 40.999, 210.485 40.963 C 216.827 40.905, 235.146 36.598, 239.923 34.041 C 242.334 32.751, 242.636 29.250, 240.577 26.441 C 238.877 24.122, 231.379 23.947, 220.621 25.977 C 216.930 26.674, 213.649 26.982, 213.330 26.663 C 212.754 26.087, 214.881 21.466, 218.574 15.269 C 220.069 12.762, 220.253 11.642, 219.398 10.269 C 217.921 7.899, 215.400 7.814, 210 9.952 M 201.254 73.066 C 193.397 74.087, 175.987 77.674, 172.559 78.978 C 171.135 79.519, 162.664 81.134, 153.735 82.567 C 141.217 84.575, 136.641 85.727, 133.750 87.600 L 130 90.028 130 86.625 C 130 81.627, 127.181 78.582, 123.336 79.426 C 119.533 80.262, 117.494 83.861, 117.708 89.358 C 117.797 91.636, 118.131 102.500, 118.451 113.500 C 118.770 124.500, 119.235 134.063, 119.484 134.750 C 120.240 136.836, 125.472 136.191, 127.788 133.726 C 131.245 130.046, 133.309 119.085, 132.657 107.865 L 132.098 98.230 135.174 97.615 C 136.866 97.277, 141.650 97, 145.805 97 C 152.828 97, 160.780 95.535, 183.500 90.058 C 192.638 87.855, 208.478 86.261, 207.837 87.610 C 207.604 88.099, 206.405 90.750, 205.172 93.500 C 201.606 101.458, 198.630 106.969, 196.856 108.899 C 194.697 111.249, 192 116.514, 192 118.379 C 192 120.576, 194.832 123, 197.398 123 C 201.103 123, 214.365 108.580, 218.213 100.367 C 222.501 91.215, 223.210 82.507, 220.029 78.041 C 217.830 74.952, 212.183 71.889, 209.128 72.127 C 208.233 72.197, 204.689 72.619, 201.254 73.066 M 179.310 98.946 C 177.005 99.993, 172.578 102.726, 169.471 105.021 C 163.867 109.161, 163.812 109.177, 162.355 107.097 C 160.716 104.757, 156.418 104.340, 153.953 106.282 C 150.733 108.818, 149.697 113.658, 150.433 122.725 C 150.819 127.488, 151.571 132.198, 152.103 133.192 C 153.108 135.071, 157.469 135.624, 159.768 134.164 C 161.585 133.012, 163 127.358, 163 121.257 L 163 116 167.550 116 C 170.052 116, 173.333 115.362, 174.840 114.583 C 176.348 113.803, 181.303 111.960, 185.851 110.488 C 192.460 108.349, 194.310 107.314, 195.061 105.340 C 196.334 101.992, 196.279 101.628, 194.133 99.153 C 191.732 96.385, 185.153 96.293, 179.310 98.946 M 56.018 116.793 C 51.981 118.232, 50.306 122.775, 52.366 126.700 C 53.174 128.240, 55.632 131.239, 57.828 133.365 C 60.466 135.919, 62.039 138.464, 62.464 140.865 C 62.817 142.864, 63.337 145.285, 63.619 146.244 C 63.997 147.533, 63.710 147.826, 62.515 147.367 C 60.526 146.604, 56 150.615, 56 153.140 C 56 154.125, 57.276 156.409, 58.835 158.215 C 66.885 167.544, 69.325 175.195, 65.204 178.193 C 61.715 180.732, 59.117 186.640, 56.053 199 C 51.154 218.760, 49.146 222.045, 39.178 226.605 C 36.192 227.970, 32.921 230.080, 31.908 231.294 C 29.458 234.229, 29.483 239.222, 31.958 241.462 C 33.869 243.192, 62.532 253.108, 80.500 258.257 C 98.026 263.278, 119.684 266.328, 154 268.606 C 163.492 269.236, 201.065 267.576, 212.611 266.016 C 219.602 265.071, 229.535 260.738, 231.005 257.991 C 234.397 251.652, 229.535 246.637, 223.703 250.459 C 222.478 251.261, 217.264 252.645, 212.116 253.533 C 204.330 254.877, 196.515 255.086, 165.628 254.776 C 133.190 254.451, 126.731 254.121, 114.500 252.164 C 100.894 249.987, 85.163 246.370, 76 243.312 C 73.525 242.486, 70.150 241.428, 68.500 240.962 C 66.850 240.495, 62.506 239.056, 58.846 237.763 L 52.191 235.412 56.346 231.364 C 58.631 229.138, 61.509 225.290, 62.743 222.813 C 65.053 218.174, 68.957 204.140, 68.985 200.377 C 69.008 197.206, 72.899 188.940, 76.099 185.263 C 79.468 181.391, 81.371 175.027, 80.462 170.666 C 78.764 162.520, 76.512 157.681, 72.492 153.545 C 68.827 149.775, 68.498 149.103, 70.108 148.682 C 73.627 147.762, 75.252 138.423, 72.947 132.361 C 71.538 128.654, 63.925 119.896, 60.362 117.883 C 58.788 116.993, 56.833 116.503, 56.018 116.793 M 208 127.943 C 205.525 128.395, 200.350 129.663, 196.500 130.761 C 192.650 131.859, 185.450 133.741, 180.500 134.944 C 175.550 136.147, 167.675 138.172, 163 139.444 C 152.157 142.394, 137.513 146.072, 133 146.979 C 127.809 148.021, 118.850 152.109, 116 154.734 L 113.500 157.038 112.980 151.414 C 112.121 142.138, 106.311 139.525, 102.011 146.482 C 99.194 151.040, 99.349 163.064, 102.502 184.428 C 105.377 203.913, 105.530 207.315, 103.603 208.914 C 102.097 210.164, 102.589 214.003, 104.412 215.235 C 106.604 216.715, 110.960 215.938, 113.694 213.579 L 116.500 211.158 116.233 196.829 C 116.086 188.948, 115.610 179.238, 115.174 175.250 C 114.705 170.956, 114.755 168, 115.297 168 C 115.800 168, 117.124 166.841, 118.237 165.425 C 120.915 162.021, 123.025 161.314, 137.534 158.956 C 144.285 157.858, 152.439 156.081, 155.654 155.005 C 158.870 153.929, 162.264 153.038, 163.198 153.025 C 164.132 153.011, 168.407 151.950, 172.698 150.667 C 176.989 149.383, 184.550 147.386, 189.500 146.228 C 194.450 145.070, 202.477 143.160, 207.339 141.983 C 212.200 140.807, 216.295 139.991, 216.440 140.172 C 219.064 143.446, 219.726 157.619, 217.925 171.948 C 216.215 185.546, 211.932 208.916, 209.852 216 C 207.667 223.437, 202.576 234.277, 200.432 236.056 C 199.556 236.784, 197.399 237.049, 194.987 236.725 C 189.551 235.996, 187.087 236.806, 186.399 239.547 C 185.392 243.560, 186.858 245.693, 192.207 247.994 C 198.311 250.620, 202.125 250.269, 207.717 246.568 C 216.670 240.644, 225.805 221.250, 228.004 203.500 C 228.549 199.100, 229.862 191, 230.921 185.500 C 234.680 165.979, 234.352 144.509, 230.169 136.351 C 226.953 130.079, 223.970 127.932, 217.872 127.501 C 214.917 127.293, 210.475 127.491, 208 127.943 M 158.500 174.414 C 152.229 175.289, 148.135 176.474, 145 178.323 C 139.659 181.472, 139 181.568, 139 179.200 C 139 174.458, 134.247 173.729, 130.713 177.929 C 127.465 181.789, 126.671 187.806, 128 198.498 C 129.238 208.466, 131.174 212.131, 135 211.749 C 136.375 211.612, 138.308 212.308, 139.295 213.295 C 140.801 214.801, 142.087 214.983, 147.295 214.428 C 155.434 213.562, 168.540 209.258, 172.059 206.297 C 173.596 205.004, 175.165 202.496, 175.547 200.723 C 175.929 198.950, 178.160 195.438, 180.505 192.917 C 185.683 187.350, 186.845 183.239, 184.408 179.113 C 181.139 173.580, 173.899 172.266, 158.500 174.414 M 154.526 189.021 C 150.141 190.033, 145.390 190.628, 143.969 190.344 C 141.386 189.827, 141.386 189.829, 141.443 196.746 L 141.500 203.666 144.467 201.862 C 146.100 200.869, 149.405 199.762, 151.813 199.401 C 155.349 198.871, 157.376 197.616, 162.346 192.884 C 168.407 187.112, 168.455 187.025, 165.500 187.102 C 163.850 187.146, 158.912 188.009, 154.526 189.021" stroke="none" fill="black" fill-rule="evenodd"/>
</svg>