<svg xmlns="http://www.w3.org/2000/svg" width="300" height="300" viewBox="0 0 300 300" version="1.1">
	<path d="M 192.500 24.765 C 191.950 25.169, 190.564 26.850, 189.419 28.500 C 188.275 30.150, 185.772 33.750, 183.857 36.500 C 181.942 39.250, 180.105 42.224, 179.774 43.108 C 178.978 45.232, 174.444 45.884, 152.568 47.020 C 142.631 47.536, 132.650 48.234, 130.390 48.572 L 126.279 49.185 125.602 43.198 C 124.621 34.532, 119.829 29.914, 115 32.984 C 113.854 33.713, 113.526 35.833, 113.609 41.969 L 113.718 50 109.314 50 C 103.227 50, 85.580 52.753, 79.331 54.678 C 73.685 56.417, 71.832 59.261, 74.566 61.994 C 76.518 63.947, 91.578 63.989, 105.353 62.080 C 113.752 60.917, 115.348 60.921, 116.166 62.108 C 116.709 62.896, 116.893 67.504, 116.591 72.730 C 116.091 81.358, 116.193 82.033, 118.150 83.080 C 119.848 83.989, 120.598 83.846, 122.118 82.326 C 124.764 79.681, 128 69.886, 128 64.525 L 128 60 133.250 59.987 C 136.137 59.980, 146.132 59.325, 155.461 58.531 C 164.790 57.738, 172.601 57.268, 172.820 57.486 C 173.039 57.705, 171.144 62.033, 168.609 67.104 C 166.074 72.175, 164 77.286, 164 78.462 C 164 83.489, 169.902 84.650, 173.356 80.302 C 175.241 77.929, 179.295 70.762, 184.714 60.219 C 186.597 56.555, 186.430 56.613, 201 54.527 C 216.659 52.285, 221.244 50.826, 222.839 47.580 C 225.937 41.276, 218.156 39.352, 202.012 42.430 C 197.894 43.216, 194.374 43.707, 194.189 43.522 C 194.004 43.337, 194.575 41.788, 195.459 40.079 C 197.634 35.874, 198.854 28.838, 197.870 26.178 C 197.075 24.028, 194.445 23.336, 192.500 24.765 M 155.018 86.740 C 151.867 87.976, 149.665 92.131, 148.452 99.130 C 147.709 103.416, 145.040 105, 138.560 105 C 133.844 105, 133 105.927, 133 111.107 C 133 114.824, 136.324 116.283, 143.751 115.824 L 149.003 115.500 149.001 120.237 C 149 124.725, 148.812 125.052, 145.416 126.471 C 143.445 127.294, 140.539 129.352, 138.959 131.044 L 136.085 134.121 135.416 129.079 C 134.497 122.147, 132.991 120.227, 129.664 121.743 C 127.707 122.635, 126.628 124.463, 125.054 129.559 C 123.925 133.217, 123 137.665, 123 139.442 C 123 141.220, 122.328 147.135, 121.506 152.587 C 119.525 165.727, 119.534 179.199, 121.526 183.050 C 122.763 185.443, 123.696 186, 126.467 186 C 128.345 186, 130.215 185.462, 130.621 184.804 C 131.027 184.147, 131.698 179.534, 132.112 174.554 C 134.579 144.860, 135.515 138.877, 137.569 139.665 C 138.358 139.968, 140.812 139.492, 143.022 138.608 C 148.257 136.513, 150 136.578, 150 138.868 C 150 140.310, 149.030 140.867, 145.752 141.306 C 140.954 141.950, 137 145.622, 137 149.433 C 137 153.210, 139.291 154.319, 145.492 153.544 L 151 152.856 151 155.881 C 151 158.517, 150.405 159.170, 146.373 160.953 C 143.828 162.079, 141.138 163, 140.396 163 C 139.654 163, 138.271 164.183, 137.324 165.628 C 135.625 168.221, 135.647 168.295, 138.924 171.223 C 141.876 173.861, 142.723 174.119, 146.553 173.544 L 150.862 172.898 151.388 177.199 C 151.677 179.565, 152.187 185.099, 152.521 189.498 C 152.855 193.896, 153.663 198.611, 154.316 199.974 C 155.895 203.269, 160.286 204.838, 162.585 202.929 C 164.109 201.664, 164.229 199.789, 163.711 185.206 L 163.133 168.896 165.817 167.726 C 170.429 165.714, 178.422 160.685, 180.250 158.646 C 184.825 153.542, 180.185 148.302, 173.947 151.527 C 172.115 152.475, 169.466 153.596, 168.058 154.021 C 166.651 154.445, 164.713 155.112, 163.750 155.503 C 162.437 156.036, 162 155.725, 162 154.255 C 162 152.672, 163.292 151.972, 168.750 150.600 C 182.939 147.032, 182.955 147.026, 183.575 144.556 C 185.076 138.575, 179.846 136.242, 169.295 138.186 C 163.860 139.187, 162.706 139.148, 161.940 137.937 C 160.170 135.140, 161.050 133.450, 165.250 131.576 C 176.185 126.699, 180.705 125.046, 183.167 125.024 C 185.564 125.002, 185.943 125.507, 186.908 130.008 C 187.499 132.763, 188.282 145.334, 188.648 157.944 C 189.250 178.653, 189.148 181.125, 187.592 183.501 C 186.146 185.707, 185.385 186.024, 182.867 185.471 C 177.205 184.227, 173.610 190.408, 178.250 193.409 C 185.784 198.282, 195.440 195.411, 200.065 186.923 C 201.974 183.419, 201.585 150.451, 199.456 135.277 C 197.389 120.552, 195.883 116.865, 190.758 113.984 C 187.050 111.900, 186.441 111.844, 180.656 113.045 C 177.270 113.748, 171.833 115.601, 168.573 117.162 C 165.313 118.723, 162.248 120, 161.762 120 C 161.277 120, 161.019 118.346, 161.190 116.323 C 161.495 112.710, 161.604 112.623, 167.500 111.258 C 170.800 110.495, 176.958 109.628, 181.183 109.332 C 186.414 108.966, 189.429 108.260, 190.629 107.121 C 191.799 106.011, 193.543 105.582, 195.811 105.847 C 199.913 106.325, 200.966 105.033, 200.978 99.500 C 200.991 93.382, 196.090 87.100, 191.250 87.032 C 186.418 86.963, 183.267 93.404, 186.411 96.921 C 187.686 98.347, 186.839 98.529, 177.680 98.797 C 172.102 98.960, 165.862 99.470, 163.813 99.931 L 160.088 100.768 159.432 96.396 C 159.072 93.992, 159.060 91.287, 159.406 90.386 C 159.751 89.484, 159.522 88.129, 158.895 87.373 C 157.673 85.900, 157.308 85.841, 155.018 86.740 M 84 116.729 C 81.905 117.526, 81.033 119.080, 81.015 122.044 C 81.004 123.909, 82.432 125.779, 86.358 129.044 C 89.305 131.495, 92.690 135.181, 93.880 137.236 C 96.292 141.401, 100.098 142.993, 102.627 140.895 C 104.828 139.068, 103.816 130.980, 100.852 126.715 C 95.062 118.380, 89.039 114.811, 84 116.729 M 79.017 170.589 C 76.755 171.570, 75.411 171.732, 75.183 171.050 C 74.570 169.211, 71.169 169.920, 69.557 172.223 C 66.328 176.832, 68.639 184, 73.354 184 C 74.287 184, 77.611 183.100, 80.740 182 C 83.870 180.900, 88.269 180, 90.515 180 C 97.727 180, 99.562 174.747, 93.632 171.082 C 89.669 168.632, 83.971 168.440, 79.017 170.589 M 97.684 196.250 C 96.363 198.588, 93.419 203.802, 91.141 207.838 C 88.864 211.874, 87 215.348, 87 215.558 C 87 215.768, 84.823 219.216, 82.163 223.220 C 79.503 227.224, 74.262 235.113, 70.517 240.750 C 66.772 246.387, 63.324 251, 62.854 251 C 61.204 251, 61.983 257.675, 63.829 259.345 C 69.056 264.076, 74.010 259.612, 85.848 239.500 C 88.762 234.550, 91.545 229.825, 92.033 229 C 97.627 219.534, 107.826 197.687, 107.318 196.261 C 105.228 190.401, 100.990 190.396, 97.684 196.250 M 174.811 199.300 C 172.939 201.034, 172.092 203.109, 171.579 207.212 C 170.762 213.755, 171.524 213.441, 152.537 215.065 C 139.607 216.172, 122.737 219.247, 117.427 221.466 C 115.628 222.218, 113.356 224.054, 112.378 225.546 C 110.640 228.198, 110.652 228.300, 112.911 230.129 C 115.788 232.459, 123.597 232.628, 133.500 230.574 C 137.350 229.775, 144.100 228.637, 148.500 228.043 C 156.283 226.994, 163.290 225.807, 169.588 224.470 L 172.676 223.815 173.844 230.886 C 175.438 240.536, 176.325 266.160, 175.320 273.500 C 174.606 278.711, 174.195 279.543, 172.194 279.827 C 170.927 280.006, 169.352 279.716, 168.695 279.181 C 165.168 276.312, 157.575 272.916, 155.298 273.189 C 151.938 273.592, 150.105 276.352, 151.604 278.750 C 153.352 281.545, 165.930 290.822, 169.626 292.041 C 173.931 293.462, 178.648 292.021, 182.355 288.152 C 185.611 284.753, 186.796 280.896, 187.616 271.022 C 188.257 263.310, 185.707 231.952, 183.938 225.783 C 182.531 220.876, 182.749 220.101, 185.750 219.350 C 189.958 218.297, 196.732 215.126, 198.456 213.401 C 201.926 209.931, 198.945 204.510, 194.178 205.624 C 192.705 205.968, 190.150 206.860, 188.500 207.605 C 186.850 208.351, 184.375 209.082, 183 209.230 C 180.632 209.486, 180.474 209.188, 180 203.578 C 179.725 200.321, 179.016 197.497, 178.424 197.302 C 177.831 197.108, 176.206 198.007, 174.811 199.300 M 134.190 246.119 C 130.867 249.367, 130.111 252.315, 132.250 253.679 C 132.938 254.118, 135.750 254.559, 138.500 254.660 C 141.250 254.760, 148.100 255.155, 153.723 255.537 C 168.076 256.511, 170.899 255.429, 169.417 249.525 C 168.916 247.531, 167.561 246.915, 159.668 245.097 C 154.625 243.936, 147.548 242.989, 143.940 242.993 C 137.948 242.999, 137.103 243.270, 134.190 246.119" stroke="none" fill="black" fill-rule="evenodd"/>
</svg>