<svg xmlns="http://www.w3.org/2000/svg" width="300" height="300" viewBox="0 0 300 300" version="1.1">
	<path d="M 202.352 9.092 C 197.731 10.431, 193.695 15.681, 191.193 23.608 L 188.985 30.603 161.243 31.816 C 145.984 32.483, 130.975 33.022, 127.889 33.014 C 122.558 33.001, 122.300 32.884, 122.722 30.675 C 123.360 27.337, 118.650 22, 115.066 22 C 111.263 22, 108.545 25.311, 108.545 29.944 L 108.545 33.728 99.023 34.359 C 93.785 34.706, 86.066 34.992, 81.869 34.995 C 74.610 35, 74.085 35.156, 71.119 38.190 C 67.472 41.920, 67.296 43.053, 69.984 45.486 C 71.700 47.038, 72.757 47.154, 77.802 46.341 C 81.011 45.825, 90.015 45.273, 97.811 45.117 L 111.985 44.831 112.993 47.481 C 113.547 48.938, 114 52.059, 114 54.416 C 114 56.773, 114.494 60.119, 115.098 61.851 C 115.982 64.388, 116.749 65, 119.041 65 C 123.453 65, 125 61.872, 125 52.951 L 125 45.347 149.250 44.164 C 162.588 43.513, 176.343 42.984, 179.817 42.990 C 186.865 43.001, 186.500 42.256, 183.829 51.176 C 182.489 55.654, 183.153 57.657, 186.482 59.174 C 190.009 60.781, 192.785 57.981, 196.555 49.012 L 199.500 42.008 203.500 42.013 C 209.405 42.022, 227.152 39.930, 229.750 38.919 C 232.425 37.877, 232.790 33.933, 230.429 31.571 C 229.161 30.304, 226.341 30, 215.849 30 L 202.841 30 203.536 26.838 C 203.918 25.099, 205.528 21.174, 207.115 18.116 C 210.479 11.632, 210.480 11.623, 208.429 9.571 C 206.676 7.819, 206.732 7.823, 202.352 9.092 M 168.201 57.028 C 165.159 59.862, 164.617 62.982, 165.895 70.318 C 166.503 73.808, 167 76.944, 167 77.287 C 167 78.291, 161.549 78.925, 144 79.962 C 127.170 80.956, 101.713 83.797, 85.442 86.497 C 74.907 88.245, 70 88.405, 70 87 C 70 85.574, 65.267 85.759, 64.364 87.219 C 63.950 87.890, 63.586 106.228, 63.555 127.969 C 63.511 159.445, 63.132 170.659, 61.692 183 C 58.928 206.690, 52.559 244.287, 48.857 258.761 C 47.836 262.755, 47 266.866, 47 267.896 C 47 268.927, 45.875 270.507, 44.500 271.408 C 40.446 274.064, 41.655 280, 46.250 280 C 55.621 280, 60.197 268.316, 67.398 226 C 73.814 188.299, 75.282 168.125, 74.785 124.500 L 74.500 99.500 80.500 98.942 C 83.800 98.636, 92.125 97.632, 99 96.711 C 105.875 95.790, 122.300 94.113, 135.500 92.982 C 148.700 91.852, 161.585 90.684, 164.132 90.386 L 168.765 89.845 170.384 97.672 C 178.855 138.624, 184.622 160.009, 193.528 183.500 C 194.987 187.350, 196.584 191.850, 197.076 193.500 C 197.567 195.150, 198.404 197.400, 198.935 198.500 C 199.466 199.600, 201.468 204.325, 203.385 209 C 205.301 213.675, 207.780 219.246, 208.893 221.381 C 210.747 224.935, 210.795 225.545, 209.459 228.631 C 208.656 230.484, 207.282 233.688, 206.404 235.750 C 204.183 240.969, 187.239 274.898, 185.185 278.241 C 183.893 280.343, 183.757 281.393, 184.601 282.741 C 186.201 285.297, 191.121 285.479, 194.152 283.095 C 197.058 280.809, 204.792 267.771, 213.043 251.247 L 218.691 239.936 223.931 248.481 C 226.813 253.180, 231.277 259.382, 233.851 262.263 C 236.425 265.143, 240.706 270.099, 243.365 273.276 C 252.675 284.400, 260.988 285.012, 262.662 274.697 C 263.351 270.450, 260.900 262.587, 257.888 259.381 C 256.087 257.464, 255.426 257.305, 253.297 258.275 C 251.073 259.288, 250.872 259.836, 251.404 263.454 L 251.998 267.500 250.091 265 C 249.042 263.625, 247.193 261.375, 245.981 260 C 242.852 256.448, 230 238.404, 230 237.562 C 230 237.176, 228.606 234.834, 226.902 232.358 C 225.172 229.843, 224.034 227.115, 224.324 226.178 C 224.610 225.255, 226.260 220.900, 227.990 216.500 C 229.721 212.100, 231.534 207.375, 232.019 206 C 232.503 204.625, 233.986 200.575, 235.313 197 C 248.312 161.990, 253 147.228, 253 141.310 C 253 137.671, 252.602 136.776, 250.571 135.850 C 248.554 134.932, 247.684 135.103, 245.451 136.860 C 242.641 139.070, 239 145.002, 239 147.369 C 239 148.962, 235.650 159.214, 230.462 173.500 C 228.464 179, 226.459 184.625, 226.006 186 C 225.552 187.375, 223.982 191.650, 222.516 195.500 C 221.051 199.350, 219.168 204.412, 218.332 206.750 C 217.496 209.088, 216.662 211, 216.479 211 C 216.032 211, 211 200.326, 211 199.378 C 211 198.967, 210.139 196.802, 209.087 194.566 C 204.687 185.212, 193.394 150.514, 188.236 130.500 C 184.346 115.405, 179.495 91.167, 180.221 90.449 C 180.892 89.784, 227.628 87.857, 238.500 88.045 C 253.886 88.312, 252.879 88.516, 254.439 84.807 C 256.113 80.825, 254.744 77.225, 251.219 76.340 C 249.879 76.004, 232.814 75.943, 213.298 76.204 C 188.157 76.541, 177.734 76.362, 177.538 75.590 C 177.386 74.991, 176.451 70.900, 175.461 66.500 C 172.724 54.349, 172.038 53.453, 168.201 57.028 M 219.652 59.012 C 216.402 64.515, 218.718 66.849, 229.419 68.855 C 235.734 70.040, 237.386 69.509, 238.521 65.932 C 239.275 63.559, 236.825 60.914, 231.290 58.123 C 225.218 55.061, 221.833 55.320, 219.652 59.012 M 123 117.361 C 118.875 119.181, 113.475 121.729, 111 123.025 C 108.525 124.320, 105.489 125.262, 104.252 125.118 C 102.587 124.925, 101.726 125.588, 100.929 127.679 C 99.641 131.059, 98.339 150.910, 97.006 187.500 C 96.465 202.350, 95.484 216.837, 94.825 219.694 C 93.891 223.748, 93.895 225.473, 94.842 227.553 C 95.908 229.892, 96.451 230.136, 99.278 229.547 C 102.963 228.778, 116.353 227.250, 116.790 227.548 C 116.949 227.657, 114.631 230.616, 111.639 234.123 C 106.729 239.878, 101 250.058, 101 253.028 C 101 253.664, 100.100 255.329, 99 256.727 C 93.317 263.952, 100.638 270.589, 107.673 264.589 C 109.228 263.263, 111.451 260.226, 112.614 257.839 C 113.776 255.453, 116.209 250.456, 118.020 246.737 C 121.230 240.144, 121.362 240.018, 123.273 241.737 C 124.351 242.706, 126.241 245.771, 127.472 248.546 C 130.190 254.676, 138.920 263.502, 144.833 266.098 C 153.065 269.712, 158.405 268.010, 157.829 261.956 C 157.533 258.850, 157.059 258.361, 153.140 257.121 C 150.422 256.261, 147.410 254.219, 145.140 251.698 C 133.037 238.254, 129.568 235, 127.341 235 C 124.851 235, 124.441 233.917, 125.898 231.184 C 126.391 230.258, 126.954 228.375, 127.148 227 C 127.368 225.437, 128.972 223.504, 131.428 221.843 C 135.097 219.361, 135.510 219.288, 137.718 220.735 C 141.242 223.044, 144.598 221.091, 147.131 215.257 C 149.016 210.915, 149.189 208.626, 149.117 189 C 149.007 159.037, 147.512 133.724, 145.456 127 C 143.702 121.264, 139.854 116.655, 135.407 114.965 C 131.802 113.594, 131.335 113.684, 123 117.361 M 127.605 127.568 C 125.463 128.353, 123.213 129.387, 122.605 129.866 C 121.997 130.344, 119.025 131.523, 116 132.486 C 108.328 134.927, 108.109 135.276, 109.075 143.500 C 109.527 147.350, 109.920 153.313, 109.949 156.750 C 109.977 160.188, 110.185 163, 110.412 163 C 110.639 163, 114.351 162.325, 118.662 161.500 C 122.973 160.675, 127.497 160, 128.715 160 C 131.453 160, 133.380 163.350, 132.548 166.666 C 131.754 169.829, 123.773 173.538, 115.750 174.474 L 110 175.144 110 179.689 C 110 183.923, 110.154 184.190, 112.250 183.599 C 113.487 183.250, 117.200 182.724, 120.500 182.430 C 127.564 181.801, 130.906 183.185, 132.274 187.308 C 133.545 191.140, 130.801 194.335, 126.964 193.492 C 124.955 193.051, 109.394 196.250, 108.354 197.318 C 108.256 197.418, 107.853 201.213, 107.459 205.750 L 106.742 214 111.627 214 C 116.769 214, 119.064 213.449, 127.986 210.075 C 131.003 208.934, 134.333 208, 135.386 208 C 137.227 208, 137.273 207.306, 136.596 189.750 C 136.209 179.713, 135.555 162.275, 135.142 151 C 134.667 138.022, 133.940 129.674, 133.161 128.250 C 132.484 127.013, 131.833 126.032, 131.715 126.070 C 131.597 126.109, 129.747 126.783, 127.605 127.568" stroke="none" fill="black" fill-rule="evenodd"/>
</svg>