<svg xmlns="http://www.w3.org/2000/svg" width="300" height="300" viewBox="0 0 300 300" version="1.1">
	<path d="M 187.173 15.750 C 183.081 19.858, 180.740 24.141, 178.494 31.630 C 177.910 33.575, 139.172 38.006, 122.782 38.001 L 117.064 38 114.537 29.750 C 110.344 16.064, 106.909 12.476, 101.750 16.392 C 99.250 18.290, 99.366 28.369, 101.955 34.141 L 103.910 38.500 91.440 39.210 C 75.493 40.118, 69.120 42.787, 69.032 48.595 C 68.976 52.240, 72.319 54.300, 77.200 53.628 C 87.703 52.182, 107.011 50.678, 107.594 51.261 C 107.946 51.613, 108.469 53.979, 108.755 56.518 C 109.134 59.883, 109.902 61.545, 111.589 62.650 C 116.319 65.749, 120 61.996, 120 54.073 L 120 50.277 139.250 49.651 C 149.838 49.306, 162.159 48.428, 166.632 47.699 L 174.763 46.375 172.955 51.437 C 170.670 57.831, 167.718 65.384, 165.560 70.353 C 164.640 72.472, 164.025 75.397, 164.194 76.853 C 164.468 79.223, 164.918 79.500, 168.500 79.500 L 172.500 79.500 178.017 68.500 C 181.052 62.450, 184.877 54.580, 186.517 51.010 L 189.500 44.521 203 41.902 C 220.719 38.466, 221.788 38.141, 223.523 35.663 C 225.456 32.905, 225.386 31.751, 223.133 29.153 C 220.771 26.430, 215.842 26.381, 203.502 28.958 C 198.554 29.992, 194.390 30.723, 194.250 30.583 C 194.109 30.443, 194.885 27.666, 195.973 24.414 C 198.291 17.482, 198.419 15.136, 196.608 12.750 C 194.487 9.956, 192.230 10.673, 187.173 15.750 M 229 77.030 C 227.075 77.484, 221.675 78.128, 217 78.460 C 205.015 79.311, 178.720 82.874, 171 84.692 C 167.425 85.534, 158.453 87.016, 151.061 87.985 C 139.562 89.494, 137.361 90.071, 135.811 91.985 C 134.815 93.215, 134 95.045, 134 96.052 C 134 97.058, 133.625 98.113, 133.168 98.396 C 132.259 98.958, 130.063 115.229, 129.717 123.973 L 129.500 129.447 125 131.103 C 122.525 132.013, 118.588 133.077, 116.250 133.467 L 112 134.176 112 123.743 C 112 114.709, 111.741 113.076, 110.072 111.565 C 107.798 109.507, 105.159 110.088, 102.328 113.267 C 99.524 116.416, 98 122.576, 98 130.759 C 98 138.390, 97.548 139, 91.899 139 C 89.380 139, 89.029 138.680, 89.435 136.750 C 91.513 126.861, 92.105 122.297, 92.625 112.132 C 93.133 102.200, 92.944 99.771, 91.334 95.515 C 89.018 89.390, 85.192 87.348, 82.031 90.549 C 80.307 92.295, 80.050 94.496, 79.583 111.500 C 79.297 121.950, 78.486 133.162, 77.781 136.416 L 76.500 142.331 66.020 145.142 C 55.327 148.010, 50.760 150.390, 50.167 153.404 C 49.265 157.993, 57.481 160.638, 66.284 158.591 C 72.234 157.208, 72.600 157.407, 71.080 161.203 C 68.203 168.381, 64 183.791, 64 187.160 C 64 189.316, 64.881 192.807, 65.958 194.918 C 67.968 198.858, 75.783 206.444, 79.698 208.256 L 81.895 209.273 79.310 214.387 C 76.315 220.312, 66.370 235.653, 64.959 236.525 C 63.198 237.613, 63.888 242.870, 65.935 243.965 C 70.482 246.398, 77.580 240.094, 86.812 225.422 L 92.525 216.345 99.492 219.672 C 110.352 224.858, 117.998 223.837, 119.500 216.999 C 121.110 209.669, 116.528 204.402, 112.059 208.446 C 110.305 210.034, 109.854 209.955, 104.100 207.050 C 100.745 205.357, 98 203.708, 98 203.387 C 98 203.065, 98.608 201.384, 99.352 199.651 C 103.623 189.696, 110 162.513, 110 154.264 L 110 148.383 117.250 146.240 C 121.238 145.061, 125.737 143.801, 127.250 143.440 L 130 142.783 129.977 150.642 C 129.927 168.216, 126.849 199.570, 123.448 217.156 C 122.101 224.117, 121 230.787, 121 231.979 C 121 240.097, 111.504 271.595, 106.345 280.588 C 102.133 287.930, 103.950 293.420, 109.959 291.513 C 113.665 290.337, 120.001 280.491, 124.769 268.500 C 131.054 252.691, 137.454 219.820, 140.150 189.500 C 141.716 171.887, 143.791 107.626, 142.872 105.185 C 142.392 103.912, 142 102.712, 142 102.520 C 142 102.328, 145.488 101.882, 149.750 101.529 C 154.012 101.177, 161.550 100.023, 166.500 98.965 C 178.017 96.503, 192.970 94.241, 205.821 93.017 C 219.700 91.695, 234.943 89.036, 238.220 87.366 C 241.539 85.674, 243.226 82.767, 242.308 80.322 C 240.765 76.213, 236.713 75.211, 229 77.030 M 213 102.413 C 203.278 105.165, 166.987 113, 163.962 113 C 161.027 113, 155 119.187, 155 122.200 C 155 127.577, 159.487 128.259, 173 124.938 C 192.756 120.082, 196.801 119.059, 202.500 117.476 C 205.800 116.559, 211.200 115.145, 214.500 114.333 C 217.800 113.521, 221.512 111.911, 222.750 110.754 C 225.437 108.243, 225.677 104.234, 223.250 102.392 C 221.101 100.760, 218.822 100.765, 213 102.413 M 208.655 122.829 C 207.745 123.835, 207 125.124, 207 125.694 C 207 127.081, 194.823 132.161, 182.500 135.914 C 177 137.589, 169.350 139.920, 165.500 141.095 C 154.651 144.404, 152.630 145.279, 150.783 147.466 C 145.102 154.196, 154.307 159.558, 164.449 155.427 C 166.187 154.719, 166.133 155.003, 163.949 158.067 C 161.774 161.115, 161.505 162.508, 161.549 170.500 C 161.657 190.509, 168.098 199.950, 179.038 196.137 C 183.796 194.478, 200 180.042, 200 177.461 C 200 175.020, 197.116 172, 194.785 172 C 193.929 172, 189.464 174.697, 184.864 177.992 C 177.603 183.194, 176.347 183.779, 175.340 182.425 C 173.641 180.138, 172.948 170.695, 173.775 161.097 L 174.500 152.694 178.130 151.441 C 181.731 150.198, 181.797 150.225, 186.395 154.894 C 190.535 159.097, 190.961 159.945, 190.382 162.842 C 189.567 166.913, 191.849 168.923, 197.335 168.968 C 201.242 169.001, 204.867 171.901, 225.696 191.658 C 228.107 193.945, 230.769 196.081, 231.612 196.405 C 233.644 197.184, 236.718 195.464, 237.458 193.133 C 238.597 189.545, 235.821 185.421, 224.812 174.347 L 213.725 163.193 216.715 161.648 C 218.358 160.797, 222.992 157.021, 227.012 153.256 C 233.407 147.265, 234.239 146.086, 233.669 143.816 C 233.310 142.388, 232.330 140.957, 231.490 140.634 C 228.685 139.558, 218.164 144.761, 210.366 151.080 L 205.948 154.660 199 151.158 L 192.053 147.656 196.277 145.707 C 212.097 138.405, 215.706 135.586, 216.646 129.797 C 217.128 126.825, 216.775 125.872, 214.368 123.641 C 210.983 120.502, 210.786 120.474, 208.655 122.829 M 93 152.666 C 86.479 153.693, 86.090 153.963, 84.924 158.260 C 84.291 160.592, 82.249 167.469, 80.387 173.542 C 78.524 179.616, 77 185.543, 77 186.714 C 77 188.016, 78.846 190.429, 81.750 192.922 L 86.500 197 87.650 194.250 C 91.646 184.697, 98.312 151.688, 96.155 152.136 C 95.795 152.211, 94.375 152.450, 93 152.666 M 200.689 190.825 C 199.292 192.296, 197.327 196.330, 196.324 199.789 C 194.964 204.478, 193.991 206.173, 192.500 206.451 C 185.955 207.673, 164.652 210.979, 160 211.494 C 148.678 212.749, 142.977 216.069, 143.015 221.385 C 143.058 227.311, 147.701 227.668, 171.500 223.575 C 179.200 222.250, 187.544 220.891, 190.043 220.553 L 194.586 219.940 196.755 232.220 C 201.536 259.290, 201.829 274.024, 197.601 274.838 C 196.605 275.030, 192.190 273.308, 187.789 271.012 C 178.900 266.373, 175.478 266.245, 174.407 270.513 C 173.434 274.390, 174.383 275.597, 182.586 280.929 C 196.099 289.711, 205.346 289.972, 210.798 281.725 C 213.429 277.745, 213.495 277.280, 213.320 264.069 C 213.222 256.606, 212.418 246.450, 211.535 241.500 C 210.651 236.550, 209.653 229.017, 209.317 224.761 L 208.705 217.021 212.603 215.439 C 223.111 211.174, 228.989 207.946, 230.532 205.591 C 232.109 203.184, 232.113 202.822, 230.592 200.500 C 228.519 197.336, 226.151 197.335, 216.846 200.493 C 206.471 204.014, 206.604 204.059, 207.317 197.243 C 207.648 194.077, 207.599 191.006, 207.209 190.420 C 205.630 188.046, 203.185 188.198, 200.689 190.825 M 154.491 239.179 C 153.598 242.740, 155.527 246.741, 159.225 248.996 C 161.896 250.624, 164.270 250.993, 172.095 250.996 C 180.312 250.999, 181.941 250.722, 183.439 249.067 C 185.543 246.742, 184.794 241.569, 182.189 240.427 C 180.179 239.547, 171.100 238.185, 161.797 237.368 C 155.337 236.801, 155.072 236.867, 154.491 239.179" stroke="none" fill="black" fill-rule="evenodd"/>
</svg>