<svg xmlns="http://www.w3.org/2000/svg" width="300" height="300" viewBox="0 0 300 300" version="1.1">
	<path d="M 111.976 15.809 L 108.741 17.375 109.260 25.688 L 109.779 34 107.139 34.009 C 93.416 34.056, 66.483 36.216, 64.072 37.463 C 59.244 39.959, 59.179 46.420, 63.957 48.977 C 66.404 50.287, 79.752 50.276, 97.271 48.950 C 104.845 48.376, 111.425 48.145, 111.895 48.435 C 112.365 48.725, 112.341 51.109, 111.843 53.731 C 110.572 60.430, 111.347 62.698, 115.195 63.543 C 117.894 64.136, 118.752 63.827, 120.702 61.560 C 121.972 60.084, 123.785 56.250, 124.731 53.041 L 126.450 47.207 131.975 46.632 C 140.969 45.696, 185.189 43.780, 189.156 44.155 L 192.813 44.500 190.041 50.589 C 188.517 53.938, 185.184 58.763, 182.635 61.313 C 177.382 66.565, 176.950 68.665, 180.445 71.948 C 182.332 73.721, 183.529 74.086, 185.695 73.551 C 190.379 72.393, 199.018 62.379, 204 52.331 L 208.500 43.256 216 42.644 C 220.125 42.308, 231.060 41.735, 240.300 41.371 C 259.558 40.612, 262 39.721, 262 33.450 C 262 27.313, 260.473 26.990, 236.601 28.081 C 225.107 28.606, 215.508 28.842, 215.271 28.605 C 215.034 28.368, 215.498 27.122, 216.301 25.837 C 218.993 21.531, 219.219 18.219, 216.974 15.974 L 214.918 13.918 210.994 16.123 C 207.173 18.271, 202.862 22.181, 199.271 26.755 C 197.545 28.953, 196.675 29.048, 165 30.502 C 147.125 31.322, 130.835 32.117, 128.799 32.269 L 125.099 32.543 123.405 26.022 C 120.562 15.073, 118.078 12.853, 111.976 15.809 M 121 71.740 C 102.758 72.993, 95.535 74.287, 91.080 77.100 L 86.500 79.992 83.167 76.419 C 78.864 71.809, 74.142 70.858, 71.026 73.974 C 68.337 76.663, 68.800 79.244, 73.326 86.795 C 80.626 98.974, 81.912 101.585, 81.414 103.212 C 80.686 105.587, 82.558 108.716, 85.249 109.624 C 93.162 112.293, 96.998 104.957, 93.598 93.659 L 92.196 89 95.848 89 C 97.857 89, 103.027 88.325, 107.338 87.500 C 111.649 86.675, 118.174 86.021, 121.838 86.046 L 128.500 86.092 122.500 91.566 C 119.200 94.576, 113.912 98.696, 110.750 100.722 C 107.588 102.747, 105 104.727, 105 105.122 C 105 105.516, 102.704 106.602, 99.898 107.534 C 94.024 109.485, 86 116.542, 86 119.757 C 86 122.064, 88.443 125, 90.363 125 C 91.034 125, 97.107 123.425, 103.859 121.500 C 110.611 119.575, 117.342 117.993, 118.818 117.985 C 125.349 117.949, 129.616 112.616, 126.003 109.003 C 124.070 107.070, 124.094 107.030, 128.777 104.368 C 134.390 101.177, 141.597 94.571, 143.580 90.800 C 146.613 85.031, 144.768 77.937, 139.422 74.815 C 136.152 72.905, 126.792 71.343, 121 71.740 M 226.307 86.698 C 224.883 86.975, 223.723 88.308, 223 90.501 C 221.447 95.204, 223.564 99.090, 228.654 100.884 C 230.769 101.629, 233.400 103.034, 234.500 104.005 C 237.923 107.027, 240.665 107.335, 243.036 104.964 C 246.006 101.994, 244.969 98.438, 239.725 93.609 C 235.557 89.770, 229.974 85.882, 229 86.140 C 228.725 86.213, 227.513 86.464, 226.307 86.698 M 181.692 93.954 C 178.586 97.645, 177.520 105.616, 178.491 117.884 L 179.187 126.686 172.844 128.943 C 161.401 133.015, 160.717 133.344, 157.844 136.152 C 154.822 139.107, 154.048 143.648, 156.200 145.800 C 158.157 147.757, 166.136 147.175, 173.994 144.502 C 178.033 143.128, 181.415 142.116, 181.509 142.252 C 181.603 142.388, 183.322 149.510, 185.330 158.078 C 189.227 174.710, 198.625 203.555, 202.024 209.317 L 204.082 212.805 200.097 219.152 C 197.904 222.644, 194.848 227.266, 193.305 229.424 C 191.762 231.582, 189.684 234.732, 188.687 236.424 C 185.913 241.132, 172.662 253.500, 168.871 254.920 C 167.017 255.614, 164.511 256.571, 163.303 257.046 C 162.094 257.520, 160.371 259.030, 159.473 260.401 C 158.065 262.550, 158.024 263.279, 159.178 265.697 C 160.332 268.114, 161.182 268.542, 165.352 268.809 C 169.374 269.065, 171.601 268.418, 178.577 264.962 C 185.428 261.568, 188.390 259.296, 194.733 252.567 C 199.005 248.035, 204.525 241.115, 207 237.189 C 209.475 233.263, 211.807 230.040, 212.183 230.026 C 212.558 230.012, 213.137 230.855, 213.468 231.900 C 216.227 240.591, 239.514 266.098, 250.871 272.869 C 261.805 279.387, 267.949 279.167, 272.720 272.088 C 275.591 267.828, 275.622 263.460, 272.861 252.776 C 269.848 241.122, 267.121 238.653, 261.915 242.868 L 259.609 244.735 261.383 253.956 C 262.359 259.027, 262.989 263.344, 262.783 263.550 C 262.159 264.174, 251.647 256.817, 245.567 251.500 C 239.397 246.104, 225.289 228.001, 224.355 224.279 C 224.041 223.026, 223.426 222, 222.989 222 C 222.553 222, 221.718 220.630, 221.134 218.956 C 220.208 216.298, 220.450 215.299, 223.037 211.095 C 224.666 208.446, 226 205.960, 226 205.570 C 226 205.180, 227.296 202.977, 228.879 200.675 C 230.463 198.374, 232.881 194.243, 234.252 191.495 C 240.799 178.376, 248.546 164.245, 250.475 161.903 C 253.580 158.133, 255.524 148.680, 253.968 144.922 C 251.934 140.011, 246.415 141.628, 244.575 147.674 C 244.211 148.869, 241.110 152.974, 237.682 156.797 C 231.775 163.385, 224.033 175.019, 223.972 177.400 C 223.956 178.005, 222.414 181.200, 220.544 184.500 C 218.674 187.800, 216.162 192.412, 214.962 194.750 C 213.762 197.088, 212.489 199, 212.134 199 C 211.178 199, 206.257 185.655, 201.992 171.500 C 200.363 166.092, 194 140.016, 194 138.746 C 194 138.461, 195.912 137.938, 198.250 137.585 C 203.414 136.805, 218.953 130.036, 223.446 126.609 C 227.915 123.200, 229.723 118.719, 227.959 115.423 C 225.973 111.712, 222.796 111.386, 218.328 114.434 C 215.111 116.628, 194.949 124, 192.163 124 C 191.086 124, 189.661 111.205, 189.568 100.717 C 189.518 94.944, 189.113 92.688, 188 91.982 C 185.568 90.439, 184.322 90.829, 181.692 93.954 M 125.500 123.589 C 100.438 126.691, 92.392 128.046, 84.500 130.496 C 82.300 131.179, 77.800 132.505, 74.500 133.443 C 65.162 136.098, 52.605 140.384, 51.500 141.295 C 50.950 141.748, 49.022 142.994, 47.216 144.065 C 43.136 146.484, 42.347 148.411, 44.097 151.682 C 45.399 154.114, 45.742 154.200, 51.686 153.591 C 55.110 153.240, 61.194 151.873, 65.206 150.552 C 75.061 147.306, 98.568 141.456, 109 139.651 C 113.675 138.843, 124.700 137.648, 133.500 136.995 C 143.800 136.231, 150.302 135.300, 151.750 134.381 C 154.577 132.588, 154.647 129.053, 151.918 125.903 C 149.980 123.666, 149.100 123.490, 139.168 123.359 C 133.301 123.281, 127.150 123.385, 125.500 123.589 M 85.051 147.662 C 83.899 149.127, 82.715 151.489, 82.421 152.912 C 82.126 154.336, 81.435 157.487, 80.886 159.915 C 80.291 162.547, 79.959 181.381, 80.065 206.565 C 80.162 229.795, 79.957 249.261, 79.609 249.823 C 79.261 250.386, 77.625 251.143, 75.972 251.506 C 74.320 251.869, 69.360 253.929, 64.952 256.083 C 60.543 258.237, 56.665 260, 56.333 260 C 56.001 260, 54.665 261.148, 53.365 262.552 C 50.673 265.456, 50.311 269.572, 52.477 272.663 C 55.179 276.522, 58.422 276.408, 67.826 272.127 C 79.304 266.901, 91.791 262, 93.627 262 C 94.438 262, 99.331 260.200, 104.500 258 C 109.669 255.800, 114.204 254, 114.578 254 C 115.375 254, 114.404 264.158, 112.867 271.906 C 112.091 275.815, 110.853 278.280, 108.397 280.809 C 104.672 284.645, 104.168 287.025, 106.571 289.429 C 111.731 294.588, 123.677 285.612, 127.057 274.035 C 127.624 272.091, 128.480 265.255, 128.959 258.844 C 129.437 252.433, 130.366 246.184, 131.023 244.957 C 131.703 243.686, 131.963 241.171, 131.627 239.113 C 131.303 237.126, 132.249 223.125, 133.729 208 C 136.823 176.382, 137.126 154.367, 134.521 150.392 C 133.659 149.076, 132.058 148, 130.962 148 C 128.635 148, 125.462 152.726, 124.559 157.535 L 123.940 160.835 116.220 161.451 C 111.974 161.790, 105.288 163.107, 101.362 164.378 L 94.225 166.689 93.817 157.354 C 93.476 149.556, 93.087 147.776, 91.454 146.541 C 88.661 144.429, 87.423 144.646, 85.051 147.662 M 114.484 177.081 C 111.176 177.981, 105.438 179.041, 101.734 179.438 L 95 180.159 95 186.187 C 95 190.588, 95.337 192.090, 96.250 191.753 C 96.938 191.499, 99.905 190.500, 102.845 189.534 C 112.464 186.371, 121.367 180.299, 120.826 177.270 C 120.515 175.528, 120.229 175.520, 114.484 177.081 M 111.952 200.001 C 104.694 204.421, 100.154 205.688, 97.216 204.115 C 95.538 203.218, 95.126 203.402, 94.624 205.274 C 93.751 208.531, 93.867 245, 94.750 245.002 C 95.993 245.007, 114.405 239.022, 115.734 238.182 C 116.594 237.638, 117.246 231.214, 117.887 216.951 C 118.393 205.703, 118.717 196.404, 118.606 196.286 C 118.495 196.168, 115.501 197.840, 111.952 200.001" stroke="none" fill="black" fill-rule="evenodd"/>
</svg>