<svg xmlns="http://www.w3.org/2000/svg" width="300" height="300" viewBox="0 0 300 300" version="1.1">
	<path d="M 195.021 14.116 C 190.116 16.073, 184.240 23.617, 183.039 29.500 C 182.448 32.392, 182.212 32.509, 176.463 32.748 C 173.183 32.885, 156.609 33.694, 139.631 34.546 C 122.654 35.399, 108.517 35.850, 108.216 35.549 C 107.915 35.249, 107.466 31.290, 107.217 26.751 C 106.685 17.036, 105.428 15, 99.960 15 C 97.099 15, 95.854 15.574, 94.615 17.465 C 92.826 20.195, 92.559 26.393, 93.969 32.472 C 94.475 34.656, 94.722 36.611, 94.518 36.815 C 94.314 37.020, 88.135 37.561, 80.786 38.018 C 70.872 38.634, 66.611 39.316, 64.265 40.663 C 58.915 43.733, 57.306 50.306, 61 54 C 63.407 56.407, 63.918 56.446, 66.772 54.447 C 69.601 52.466, 80.488 50.254, 89.500 49.829 L 96.500 49.500 96.565 55.546 C 96.647 63.278, 97.345 65, 100.397 65 C 104.645 65, 107.399 61.190, 108.511 53.775 C 109.386 47.938, 107.695 48.277, 139.500 47.560 C 152.700 47.262, 166.988 46.724, 171.250 46.365 C 180.608 45.576, 180.572 45.476, 175 56.878 C 169.578 67.973, 169.847 72, 176.011 72 C 180.011 72, 182.133 69.294, 187.976 56.737 L 193.356 45.175 204.928 44.571 C 228 43.367, 238.259 40.656, 239.244 35.504 C 240.021 31.441, 238.671 27.662, 235.930 26.230 C 233.173 24.789, 227.637 25.416, 224.332 27.544 C 223.139 28.311, 217.964 29.406, 212.832 29.977 C 207.699 30.548, 202.037 31.209, 200.248 31.445 L 196.996 31.875 197.631 27.687 C 197.980 25.384, 198.881 22.790, 199.633 21.921 C 201.456 19.816, 201.364 16.506, 199.429 14.571 C 198.564 13.707, 197.777 13.029, 197.679 13.063 C 197.580 13.098, 196.384 13.572, 195.021 14.116 M 212 86 C 210.075 87.054, 206.925 87.935, 205 87.958 C 203.075 87.981, 197.900 88.706, 193.500 89.568 C 189.100 90.431, 177.625 91.558, 168 92.074 C 135.548 93.813, 132.139 94.538, 130.708 100.008 C 129.579 104.325, 132.359 104.956, 153.720 105.236 C 171.398 105.468, 173.675 105.680, 172.665 107 C 169.646 110.948, 158.953 123.081, 154.158 128 C 148.657 133.644, 146.735 136.598, 145.674 141.041 C 144.050 147.837, 142.801 165.225, 141.977 192.500 C 141.138 220.268, 140.212 231.904, 138.499 236.206 C 138.048 237.339, 138.698 238.789, 140.438 240.529 C 142.507 242.598, 143.659 243.014, 145.933 242.515 C 147.574 242.154, 149.091 242.338, 149.464 242.941 C 150.529 244.664, 158.580 244.152, 164.239 242.001 C 170.488 239.625, 170 239.681, 170 241.345 C 170 242.085, 169.050 243.547, 167.890 244.595 C 165.754 246.524, 157.610 258.409, 155.279 263 C 154.581 264.375, 152.880 267.300, 151.500 269.500 C 145.739 278.677, 144.753 281.162, 145.884 283.645 C 147.370 286.906, 151.926 286.774, 155.992 283.354 C 159.002 280.821, 161.781 277.071, 175.750 256.702 C 179.929 250.608, 182 248.292, 182 249.712 C 182 251.057, 183.271 252.622, 185.463 253.977 C 187.367 255.154, 191.859 259.874, 195.444 264.466 C 203.826 275.199, 219.699 288.605, 227.070 291.174 C 232.795 293.170, 237.112 290.079, 235.535 285.112 C 235.206 284.073, 233.244 282.104, 231.176 280.735 C 227.440 278.263, 216.159 267.500, 208.500 259.101 C 206.300 256.689, 202.250 253.045, 199.500 251.004 C 194.514 247.303, 186.065 244.224, 184.147 245.409 C 182.871 246.198, 185.930 239.955, 187.691 238.179 C 188.411 237.452, 189 236.232, 189 235.469 C 189 234.705, 190.829 233.532, 193.064 232.863 C 196.572 231.812, 197.534 231.884, 200.087 233.392 C 205.146 236.381, 211.512 233.067, 215.247 225.500 C 218.926 218.043, 219.848 194.302, 217.888 157.500 C 216.642 134.110, 215.800 130.826, 210.392 128.247 C 207.335 126.789, 206.103 126.844, 193.299 129.011 C 185.709 130.295, 176.479 131.609, 172.787 131.930 L 166.073 132.515 179.537 118.927 C 186.941 111.454, 193 104.877, 193 104.312 C 193 103.747, 195.660 103.007, 198.912 102.667 C 205.327 101.996, 217.390 97.862, 220.109 95.402 C 222.537 93.204, 222.928 90.735, 221.418 87.142 C 219.855 83.425, 217.275 83.112, 212 86 M 84.750 91.772 C 82.633 92.225, 82.672 91.646, 82.870 119.500 C 82.964 132.891, 82.518 145.218, 81.728 151 C 80.471 160.200, 80.352 160.492, 77.965 160.241 C 76.609 160.099, 74.825 159.007, 74 157.815 C 71.127 153.662, 67.872 143.448, 66.991 135.819 C 65.906 126.430, 64.564 123.989, 60.509 124.032 C 53.762 124.103, 52.430 127.932, 54.606 141 C 56.326 151.333, 61.949 164.960, 65.952 168.500 C 67.640 169.993, 69.582 170.487, 73.607 170.447 C 80.123 170.383, 79.904 168.803, 76.456 191 C 71.293 224.233, 68.366 236.091, 61.155 252.983 C 59.163 257.649, 56.739 262.261, 55.767 263.233 C 53.603 265.397, 53.473 269.317, 55.508 271.007 C 57.904 272.995, 64.008 271.506, 66.678 268.283 C 74.400 258.963, 81.970 238.561, 85.521 217.500 C 87.565 205.383, 88.327 203.630, 89.761 207.745 C 90.921 211.073, 95.435 215.684, 98.481 216.652 C 99.570 216.998, 101.633 218.147, 103.065 219.206 C 104.929 220.584, 106.921 221.041, 110.077 220.816 C 113.708 220.556, 114.709 220.032, 115.753 217.842 C 117.657 213.851, 115.943 210.354, 111.479 209.122 C 109.490 208.572, 105.011 205.620, 101.527 202.562 C 97.401 198.939, 94.308 197, 92.655 197 C 91.260 197, 89.836 196.544, 89.492 195.988 C 89.148 195.431, 89.989 187.893, 91.361 179.238 C 92.734 170.582, 94.403 153.825, 95.071 142 C 97.216 104.028, 94.278 89.729, 84.750 91.772 M 98.984 129.747 C 94.941 134.887, 98.245 144, 104.153 144 C 106.589 144, 107.353 143.259, 109.498 138.813 C 110.874 135.960, 112 132.747, 112 131.673 C 112 128.924, 109.131 127.069, 104.823 127.032 C 101.981 127.007, 100.654 127.624, 98.984 129.747 M 195 142.701 C 191.416 143.666, 184.052 144.237, 173.860 144.341 L 158.220 144.500 157.528 153.335 C 157.148 158.194, 156.990 162.323, 157.177 162.510 C 157.364 162.698, 159.314 162.459, 161.509 161.980 C 171.865 159.719, 184.281 158, 190.260 158 C 195.887 158, 197.295 158.377, 199.923 160.589 L 203 163.178 203 152.089 C 203 143.825, 202.681 141.028, 201.750 141.111 C 201.063 141.171, 198.025 141.887, 195 142.701 M 201.139 169.033 C 199.632 170.289, 197.282 171.002, 194.639 171.005 C 192.363 171.008, 185.211 172.133, 178.746 173.505 C 172.282 174.877, 164.588 176, 161.650 176 L 156.308 176 155.652 191.250 C 155.292 199.637, 154.467 211.782, 153.820 218.238 C 153.173 224.694, 152.916 230.250, 153.250 230.583 C 153.584 230.917, 158.502 229.621, 164.179 227.702 C 183.777 221.079, 188.274 220, 196.278 220 L 204 220 204 193.500 C 204 178.925, 203.887 167.015, 203.750 167.033 C 203.613 167.052, 202.438 167.952, 201.139 169.033 M 182 188.069 C 176.225 189.092, 169.798 189.946, 167.718 189.965 C 159.481 190.041, 154.683 194.276, 156.467 199.897 C 158.031 204.824, 172.269 204.787, 188.272 199.812 C 200.522 196.005, 203.607 192.607, 199 188 C 196.637 185.637, 195.700 185.641, 182 188.069" stroke="none" fill="black" fill-rule="evenodd"/>
</svg>