<svg xmlns="http://www.w3.org/2000/svg" width="300" height="300" viewBox="0 0 300 300" version="1.1">
	<path d="M 99.636 10.636 C 96.816 13.457, 96.357 15.930, 98.063 19.118 C 98.647 20.210, 99.987 24.390, 101.039 28.407 C 102.091 32.424, 103.211 36.385, 103.527 37.210 C 104.008 38.463, 102.262 38.825, 92.889 39.418 C 79.716 40.252, 71.752 41.582, 67.250 43.699 C 64.546 44.971, 64 45.784, 64 48.536 C 64 51.392, 64.445 51.985, 67.250 52.869 C 73.927 54.972, 79.833 55.120, 91.808 53.486 C 98.551 52.565, 104.671 52.043, 105.408 52.326 C 106.146 52.609, 107.075 55.014, 107.473 57.670 C 108.510 64.585, 109.513 66, 113.375 66 C 117.507 66, 119 63.200, 119 55.453 L 119 50 124.575 50 C 127.641 50, 137.653 49.077, 146.825 47.948 C 155.996 46.820, 167.775 45.498, 173 45.012 C 178.225 44.525, 184.681 43.806, 187.346 43.414 L 192.193 42.702 189.960 47.101 C 187.399 52.144, 182.454 59.571, 179.707 62.500 C 174.024 68.557, 174.077 75, 179.810 75 C 182.039 75, 184.193 73.417, 189.674 67.750 C 196.924 60.254, 200.277 55.534, 205.235 45.849 C 208.661 39.158, 209.044 39.028, 227.965 38.107 C 240.117 37.515, 240.468 37.434, 241.906 34.865 C 243.230 32.500, 243.203 31.959, 241.638 29.571 C 239.112 25.715, 235.748 24.838, 224.814 25.188 C 213.823 25.540, 213.871 25.598, 218.109 17.286 C 219.149 15.246, 220 13.073, 220 12.458 C 220 10.450, 215.339 8.714, 211.755 9.386 C 207.295 10.223, 203.753 14.077, 200.478 21.659 L 197.817 27.818 191.659 28.912 C 178.343 31.277, 118.819 38.153, 118.078 37.412 C 117.572 36.906, 114.014 25.009, 112.014 17.138 C 111.026 13.247, 106.395 8, 103.949 8 C 103.027 8, 101.086 9.186, 99.636 10.636 M 176.500 93.521 C 175.950 93.721, 170.100 94.369, 163.500 94.961 C 156.900 95.554, 146.329 97.072, 140.010 98.334 L 128.520 100.628 127.201 98.087 C 124.676 93.219, 121.210 92.699, 117.305 96.604 L 114.702 99.208 115.291 112.854 C 115.615 120.359, 117.001 133.925, 118.370 143 C 119.739 152.075, 121.228 162.650, 121.679 166.500 L 122.500 173.500 128.993 174.423 C 135.320 175.322, 152.169 174.117, 156.290 172.470 C 157.943 171.810, 158.029 172.282, 157.404 178.628 C 157.031 182.407, 156.584 185.667, 156.409 185.871 C 156.235 186.074, 153.709 186.825, 150.796 187.539 C 138.566 190.537, 114.358 196.908, 112.597 197.592 C 110.771 198.302, 110.717 197.819, 111.248 185.526 C 111.799 172.771, 111.791 172.711, 109.254 170.360 C 106.041 167.382, 104.865 167.401, 101.189 170.494 C 97.629 173.490, 97.030 176.210, 96.883 190.046 L 96.772 200.544 91.857 203.288 C 86.047 206.531, 83.810 210.239, 86.213 212.641 C 87.490 213.919, 88.619 214.030, 92.310 213.243 C 97.934 212.043, 97.730 211.464, 98.635 231.281 C 99.288 245.569, 99.238 246.129, 97.155 248.070 C 92.833 252.097, 95.602 257.333, 101.773 256.803 C 104.464 256.572, 106.031 255.591, 108.399 252.659 L 111.500 248.818 111.838 229.650 L 112.177 210.481 122.838 207.663 C 143.585 202.180, 151.532 200.127, 154.250 199.548 C 156.977 198.967, 157 199.006, 156.992 204.231 C 156.984 210.050, 155.574 220.317, 153.934 226.500 C 152.926 230.299, 152.562 230.593, 146.686 232.357 C 126.809 238.323, 121.390 240.420, 118.750 243.168 C 115.123 246.944, 115.229 249.550, 119.091 251.547 C 123.623 253.891, 130.546 252.464, 155.500 244.045 C 159.900 242.561, 167.550 240.088, 172.500 238.549 C 177.450 237.010, 183.975 234.876, 187 233.805 C 190.025 232.735, 193.213 231.633, 194.084 231.356 C 195.187 231.006, 196.676 232.519, 198.995 236.344 C 202.955 242.879, 205.876 244.788, 209.777 243.393 C 212.215 242.521, 212.489 241.952, 212.393 237.960 C 212.299 234.090, 210.172 228.056, 207.119 223 C 204.257 218.260, 200.366 209.328, 200.719 208.305 C 201.469 206.126, 199.004 203, 196.536 203 C 191.831 203, 188.695 208.514, 189.156 215.977 L 189.436 220.500 178.968 223.174 C 173.211 224.645, 167.978 225.883, 167.341 225.924 C 166.484 225.980, 166.524 224.698, 167.496 221.015 C 168.219 218.273, 169.128 211.808, 169.515 206.648 C 169.901 201.487, 170.506 196.811, 170.859 196.255 C 172.020 194.425, 205.698 186, 211.851 186 C 214.121 186, 215.430 186.727, 216.727 188.707 C 218.328 191.151, 218.500 194.423, 218.500 222.457 C 218.500 252.583, 218.432 253.669, 216.187 259.226 C 214.816 262.621, 212.647 265.878, 210.860 267.226 C 205.974 270.912, 203 273.836, 203 274.955 C 203 277.271, 207.083 280, 210.550 280 C 215.376 280, 219.172 277.847, 223.363 272.733 C 231.191 263.180, 233 253.665, 233 222.047 C 233 197.461, 231.697 187.649, 227.564 181.102 C 224.511 176.266, 218.654 173, 213.032 173 C 209.017 173, 186.037 177.756, 176.568 180.547 C 173.856 181.346, 171.494 182, 171.318 182 C 171.143 182, 171 179.133, 171 175.629 L 171 169.258 175.949 168.601 C 187.085 167.124, 187.264 157.113, 176.156 157.032 L 171.812 157 172.384 152.250 C 172.699 149.637, 173.240 144.932, 173.588 141.794 L 174.220 136.088 181.360 134.598 C 185.287 133.779, 190.661 132.828, 193.302 132.485 L 198.104 131.862 195.552 136.898 C 194.148 139.667, 193 142.422, 193 143.020 C 193 143.617, 191.875 145.762, 190.500 147.785 C 187.443 152.283, 187.180 157.491, 189.934 158.965 C 192.964 160.586, 195.475 160.193, 197.700 157.750 C 201.098 154.020, 208.669 140.042, 212.190 131 C 214.952 123.906, 215.500 121.177, 215.500 114.500 C 215.500 105.078, 213.701 101.681, 206.613 97.719 C 200.726 94.429, 181.415 91.737, 176.500 93.521 M 48.309 100.788 C 46.292 102.070, 44.120 107.157, 44.829 108.940 C 46.275 112.577, 49.907 115.977, 54.104 117.623 C 56.522 118.571, 59.573 120.169, 60.885 121.173 C 63.608 123.259, 68.030 123.570, 69.800 121.800 C 71.674 119.926, 71.213 115.108, 68.841 111.776 C 67.653 110.108, 64.346 107.674, 61.492 106.368 C 58.638 105.061, 55.490 103.094, 54.496 101.996 C 52.622 99.925, 50.361 99.483, 48.309 100.788 M 165.500 107.004 C 160.550 107.471, 152.063 108.787, 146.640 109.927 C 141.217 111.067, 134.745 112, 132.259 112 L 127.738 112 128.358 115.750 C 128.699 117.813, 128.983 121.873, 128.989 124.773 L 129 130.046 131.569 128.363 C 133.457 127.126, 137.582 126.488, 147.119 125.957 C 154.258 125.560, 160.323 125.010, 160.598 124.736 C 160.872 124.461, 161.255 121.903, 161.449 119.051 C 161.692 115.478, 162.377 113.430, 163.651 112.464 C 168.367 108.892, 174 112.529, 174 119.147 C 174 123.098, 174.080 123.195, 176.750 122.484 C 178.262 122.081, 184.445 121.605, 190.488 121.427 L 201.476 121.102 202.307 117.895 C 203.401 113.674, 202.488 110.365, 199.734 108.566 C 196.880 106.700, 177.885 105.834, 165.500 107.004 M 148.500 139.038 C 145.200 139.448, 139.798 139.832, 136.496 139.891 L 130.493 140 131.383 151.250 C 131.872 157.438, 132.386 162.637, 132.524 162.804 C 132.796 163.134, 157.106 158.227, 157.588 157.745 C 157.904 157.429, 160 141.380, 160 139.276 C 160 137.892, 158.065 137.852, 148.500 139.038 M 44.500 150.533 C 40.610 152.301, 38.601 153.985, 37.163 156.684 C 35.413 159.971, 35.738 161.829, 38.555 164.646 C 41.657 167.748, 44.843 167.408, 54.218 162.974 C 58.996 160.715, 61.264 160.178, 64.113 160.634 C 67.196 161.127, 67.997 160.875, 68.940 159.113 C 70.348 156.481, 69.137 153.946, 65.098 151.070 C 61.788 148.713, 59.358 148.513, 53.898 150.149 C 51.181 150.963, 49.690 150.988, 48.782 150.234 C 47.865 149.474, 46.645 149.559, 44.500 150.533 M 71.678 199.750 C 70.759 200.713, 67.144 207.125, 63.647 214 C 56.045 228.942, 43.632 250.433, 38.326 257.840 C 29.738 269.826, 28.467 273.324, 31.571 276.429 C 34.188 279.045, 38.279 278.359, 41.583 274.750 C 46.916 268.926, 50.975 263.192, 54.654 256.283 C 65.656 235.623, 81 204.649, 81 203.101 C 81 200.791, 77.907 198, 75.346 198 C 74.248 198, 72.598 198.787, 71.678 199.750" stroke="none" fill="black" fill-rule="evenodd"/>
</svg>