<svg xmlns="http://www.w3.org/2000/svg" width="300" height="300" viewBox="0 0 300 300" version="1.1">
	<path d="M 196.500 8.964 C 191.147 11.206, 186.758 18.452, 185.483 27.155 L 184.801 31.810 172.651 32.459 C 165.968 32.816, 152.203 33.196, 142.063 33.304 L 123.626 33.500 121.380 28 C 120.145 24.975, 118.879 21.294, 118.566 19.820 C 117.292 13.820, 112.870 12.402, 108.636 16.636 C 105.672 19.601, 105.223 23.571, 107.373 27.800 C 111.043 35.015, 111.517 34.683, 96.776 35.234 C 82.264 35.777, 67.599 38.849, 65.341 41.820 C 64.638 42.744, 64.049 45.179, 64.032 47.231 C 64.004 50.460, 64.362 51.053, 66.695 51.638 C 68.219 52.021, 72.019 51.621, 75.445 50.717 C 78.775 49.838, 87.125 48.854, 94 48.529 C 100.875 48.204, 108.617 47.714, 111.204 47.440 L 115.908 46.943 116.980 50.927 C 117.570 53.118, 118.748 55.605, 119.598 56.455 C 123.179 60.036, 128 56.778, 128 50.775 L 128 47.208 142.750 46.598 C 150.863 46.262, 163.015 45.731, 169.755 45.417 L 182.009 44.846 181.085 47.277 C 180.577 48.613, 179.225 51.454, 178.080 53.589 C 175.447 58.503, 175.442 61.496, 178.065 63.333 C 182.480 66.426, 186.769 63.384, 191.121 54.073 C 192.811 50.458, 194.535 46.825, 194.952 46 C 195.532 44.855, 198.641 44.323, 208.106 43.751 C 225.764 42.684, 236.760 40.246, 239.287 36.837 C 241.741 33.526, 240.998 29.700, 237.449 27.374 C 235.129 25.855, 234.673 25.851, 231.714 27.324 C 228.435 28.957, 213.142 31, 204.202 31 L 199.246 31 199.724 26.250 C 199.987 23.637, 201.057 19.670, 202.101 17.434 C 204.406 12.498, 204.444 11.587, 202.429 9.571 C 200.694 7.837, 199.488 7.713, 196.500 8.964 M 147.479 58.023 C 145.506 60.203, 145.220 63.836, 146.450 71.093 L 147.229 75.685 135.864 76.371 C 129.614 76.748, 118.180 77.718, 110.455 78.526 C 102.731 79.335, 91.392 80.400, 85.258 80.893 C 76.092 81.630, 73.523 82.203, 70.843 84.112 C 68.939 85.468, 66.474 86.319, 64.923 86.156 C 59.952 85.634, 56.840 91.774, 60.959 93.978 C 62.037 94.555, 63.934 97.158, 65.176 99.763 C 67.270 104.156, 67.459 106.121, 67.786 126.823 C 68.236 155.267, 66.579 168.874, 57.780 209 C 54.390 224.461, 44.418 257.988, 41.422 264 C 36.927 273.019, 33 282.533, 33 284.404 C 33 289.916, 39.556 290.767, 43.366 285.750 C 45.658 282.732, 57 259.859, 57 258.255 C 57 257.861, 57.866 255.280, 58.925 252.519 C 62.955 242.008, 72.126 204.870, 75.844 184 C 80.079 160.228, 81.291 145.664, 80.668 126 C 80.150 109.673, 78.611 97.415, 76.686 94.301 C 75.689 92.688, 146.145 87.799, 197 85.953 C 236.186 84.530, 247.119 81.703, 244.103 73.771 C 242.797 70.337, 240.965 69.870, 233.199 70.992 C 229.515 71.525, 215.250 72.447, 201.500 73.042 C 187.750 73.637, 172.390 74.381, 167.366 74.694 L 158.232 75.264 157.495 66.940 C 157.089 62.361, 156.169 58.027, 155.450 57.307 C 153.511 55.368, 149.561 55.722, 147.479 58.023 M 178.405 100.834 C 175.707 103, 171.267 107.074, 168.538 109.886 C 165.808 112.699, 163.104 115, 162.528 115 C 161.952 115, 160.919 115.900, 160.232 117 C 158.241 120.188, 156.203 119.389, 150.676 113.251 C 139.425 100.755, 138.355 100.157, 134.189 104.039 C 130.243 107.714, 131.822 111.782, 139.554 117.863 C 141.067 119.054, 142.092 120.241, 141.832 120.502 C 141.571 120.762, 132.990 121.349, 122.762 121.805 C 104.637 122.615, 104.076 122.705, 100.583 125.369 C 94.257 130.194, 96.383 134.354, 105.685 135.348 C 108.883 135.690, 118.925 135.356, 128 134.607 C 137.075 133.857, 144.649 133.375, 144.831 133.536 C 145.013 133.697, 144.676 134.738, 144.081 135.849 C 143.486 136.960, 143 140.112, 143 142.855 C 143 147.664, 142.884 147.867, 139.750 148.572 C 137.963 148.974, 130.693 149.369, 123.597 149.450 C 111.135 149.592, 110.664 149.675, 109.848 151.881 C 108.627 155.183, 109.857 158.860, 112.833 160.807 C 114.983 162.214, 117.752 162.472, 129.210 162.337 L 143 162.174 143 164.502 C 143 166.674, 142.516 166.866, 135.750 167.379 C 131.762 167.681, 122.365 168.178, 114.866 168.484 C 95.097 169.289, 88.822 171.596, 87.443 178.566 C 87.016 180.725, 87.419 182.094, 88.970 183.750 C 91.481 186.430, 93.208 186.565, 96.596 184.345 C 98.429 183.144, 102.736 182.482, 112.310 181.929 C 119.565 181.510, 129.457 180.841, 134.293 180.443 L 143.085 179.718 142.793 188.109 L 142.500 196.500 132.220 197.182 C 115.704 198.278, 110.073 202.518, 117.187 208.504 C 120.461 211.259, 120.538 211.271, 131.739 210.719 L 143 210.164 142.999 214.332 C 142.998 218.286, 142.744 218.643, 138.054 221.277 C 132.389 224.458, 128.338 228.908, 119.920 241.198 C 116.643 245.981, 113.407 250.481, 112.729 251.198 C 112.051 251.914, 110.202 254.491, 108.619 256.924 C 107.036 259.357, 103.100 264.023, 99.871 267.292 C 96.642 270.561, 94 273.826, 94 274.547 C 94 276.967, 97.113 279, 100.821 279 C 104.114 279.001, 105.266 278.189, 111.810 271.250 C 115.831 266.988, 122.356 259.225, 126.310 254 C 130.265 248.775, 133.823 244.355, 134.218 244.177 C 134.613 244, 136.413 241.300, 138.218 238.177 L 141.500 232.500 141.787 241.674 C 141.944 246.719, 141.650 255.719, 141.133 261.674 C 140.048 274.158, 141.021 277.373, 145.714 276.810 C 150.978 276.179, 152.032 272.967, 153.556 252.906 C 154.326 242.783, 154.965 228.795, 154.978 221.822 L 155 209.144 160.750 208.510 C 163.912 208.161, 167.738 207.643, 169.250 207.358 C 171.534 206.929, 172 207.193, 172 208.921 C 172 210.357, 171.360 211, 169.929 211 C 167.252 211, 164.641 213.622, 165.386 215.562 C 165.704 216.393, 167.320 217.844, 168.976 218.787 C 171.983 220.498, 171.987 220.512, 171.994 229.758 C 172 239.343, 168.554 267.097, 166.995 270.009 C 166.508 270.920, 165.410 272.245, 164.555 272.955 C 160.761 276.103, 164.214 282.275, 169.226 281.304 C 176.349 279.924, 180.874 269.188, 183.587 247.231 L 185.350 232.961 187.990 235.490 C 193.046 240.335, 203.139 247.546, 225 261.935 C 226.375 262.841, 232.225 265.887, 238 268.706 C 257.655 278.298, 266.314 280.246, 269.443 275.777 C 272.645 271.207, 270.295 268.222, 261.257 265.380 C 254.946 263.395, 238.645 255.224, 232.320 250.874 C 230.021 249.293, 227.898 248, 227.602 248 C 226.673 248, 209.619 236.271, 207 233.830 C 205.625 232.549, 202.700 230.175, 200.500 228.556 C 198.300 226.937, 195.600 224.822, 194.500 223.855 C 193.400 222.888, 191.037 220.911, 189.250 219.460 C 186.219 217, 186 216.406, 186 210.646 L 186 204.469 191.134 202.646 C 199.821 199.561, 203.420 194.053, 199.143 190.390 C 197.354 188.859, 197.427 188.588, 201.122 183.055 L 204.959 177.309 220.055 176.628 C 231.298 176.121, 235.773 175.539, 237.587 174.351 C 240.886 172.189, 241.721 168.455, 239.464 165.960 C 237.883 164.213, 236.335 164, 225.238 164 C 213.750 164, 212.846 163.865, 213.563 162.250 C 214.959 159.106, 215.210 152.262, 214.012 150.022 C 211.884 146.046, 206.961 144.842, 195.934 145.602 L 186 146.286 186 139.702 C 186 135.542, 185.543 132.836, 184.760 132.352 C 182.356 130.866, 188.437 130.200, 205.316 130.100 C 221.563 130.003, 225.368 129.396, 227.235 126.600 C 228.556 124.621, 228.043 122.944, 225.354 120.452 C 222.712 118.003, 222.677 118, 200.667 118 L 178.626 118 181.155 115.250 C 190.358 105.243, 192.524 97.795, 186.405 97.198 C 184.036 96.967, 182.161 97.819, 178.405 100.834 M 166.500 131.744 L 156.500 132.066 156.301 139.533 L 156.102 147 163.923 147 L 171.744 147 172.395 142.930 C 173.072 138.695, 175.277 134.396, 177.871 132.250 C 179.132 131.207, 179.144 131.035, 177.941 131.211 C 177.149 131.327, 172 131.567, 166.500 131.744 M 186 162.045 C 186 165.008, 186.101 165.074, 189.750 164.467 C 195.254 163.553, 195.762 163.313, 196.970 161.056 C 198.024 159.087, 197.816 159, 192.035 159 L 186 159 186 162.045 M 157.250 160.706 C 155.653 161.013, 155 161.844, 155 163.570 C 155 165.886, 155.294 165.999, 161.250 165.986 C 169.933 165.967, 172 165.275, 172 162.383 C 172 160.112, 171.707 160.006, 165.750 160.136 C 162.313 160.211, 158.488 160.467, 157.250 160.706 M 159.250 178.732 L 155 179.115 155 187.607 L 155 196.099 161.250 195.491 C 172.770 194.371, 172 195.052, 172 185.981 L 172 178 167.750 178.175 C 165.412 178.271, 161.588 178.522, 159.250 178.732 M 186 179.622 C 186 180.951, 186.271 181.020, 187.500 180 C 188.325 179.315, 189 178.585, 189 178.378 C 189 178.170, 188.325 178, 187.500 178 C 186.675 178, 186 178.730, 186 179.622" stroke="none" fill="black" fill-rule="evenodd"/>
</svg>