<svg xmlns="http://www.w3.org/2000/svg" width="300" height="300" viewBox="0 0 300 300" version="1.1">
	<path d="M 192.226 22.774 C 188.678 26.322, 186 32.296, 186 36.663 C 186 38.452, 184.516 38.716, 165.750 40.259 C 143.083 42.123, 116.602 44.018, 113.382 44.007 C 111.656 44.001, 110.961 42.923, 109.632 38.184 C 108.734 34.986, 108 30.358, 108 27.900 C 108 23.974, 107.628 23.211, 104.936 21.621 C 102.349 20.093, 101.417 19.999, 98.960 21.017 C 95.052 22.635, 94.318 26.969, 96.284 36.820 C 97.127 41.044, 97.661 44.660, 97.470 44.855 C 97.280 45.050, 91.134 45.849, 83.812 46.631 C 71.746 47.920, 70.289 48.290, 68.250 50.582 C 65.445 53.736, 65.431 55.012, 68.172 57.954 C 70.298 60.236, 70.587 60.268, 81.922 59.480 C 88.290 59.036, 95.525 58.635, 98 58.587 L 102.500 58.500 103 63.500 C 103.477 68.269, 103.648 68.514, 106.694 68.809 C 109.380 69.069, 110.135 68.640, 111.444 66.109 C 112.300 64.454, 113 61.793, 113 60.197 L 113 57.295 122.750 56.642 C 134.674 55.842, 165.903 53.220, 175.639 52.200 L 182.778 51.453 181.863 53.976 C 180.400 58.009, 177.609 63, 176.818 63 C 175.401 63, 174.738 69.979, 176.009 71.511 C 179.768 76.040, 187.056 70.168, 193.404 57.496 L 197.040 50.237 204.770 49.063 C 209.022 48.418, 215.650 47.653, 219.500 47.364 C 230.626 46.528, 234.180 44.294, 232.551 39.160 C 231.194 34.885, 225.472 33.988, 208.750 35.427 L 200 36.180 200 32.494 C 200 30.467, 200.761 27.520, 201.692 25.945 C 203.294 23.232, 203.286 22.974, 201.537 21.041 C 198.852 18.074, 196.485 18.515, 192.226 22.774 M 190.828 81.037 C 188.102 82.627, 185.283 88.107, 184.030 94.250 C 182.861 99.988, 182.850 100, 179.202 100 C 171.497 100, 160.418 103.149, 156.474 106.461 C 153.253 109.164, 152.793 110.039, 153.374 112.353 C 154.474 116.737, 157.261 117.058, 170.984 114.384 C 177.796 113.056, 183.707 112.314, 184.120 112.735 C 184.532 113.156, 184.971 117.082, 185.095 121.460 L 185.320 129.420 182.410 130.077 C 180.809 130.438, 175.900 131.533, 171.500 132.511 C 154.732 136.235, 148.043 141.361, 154.462 145.567 C 159.710 149.006, 169.215 148.433, 183.814 143.799 C 187.287 142.696, 190.404 142.070, 190.741 142.408 C 191.078 142.745, 190.208 144.254, 188.807 145.760 C 187.406 147.267, 183.614 152.042, 180.380 156.370 C 171.123 168.761, 170.962 168.972, 162 180.397 C 149.976 195.727, 150.047 195.645, 150.022 194.214 C 150.010 193.507, 147.871 192.016, 145.269 190.901 C 142.666 189.785, 137.747 186.194, 134.337 182.919 L 128.137 176.965 135.069 168.486 C 140.139 162.282, 142 159.219, 142 157.074 C 142 153.923, 139.776 151, 137.379 151 C 133.304 151, 126.776 156.665, 123.458 163.082 C 121.473 166.920, 120.862 166.218, 119.034 158 C 115.750 143.241, 111.481 130.946, 105.196 118.145 L 102.567 112.791 105.534 110.668 C 111.333 106.518, 118.820 98.852, 119.425 96.444 C 120.023 94.062, 120.284 94, 129.769 93.996 C 141.446 93.992, 146 92.067, 146 87.137 C 146 85.546, 145.438 83.800, 144.750 83.257 C 141.030 80.318, 105.366 81.394, 92.500 84.833 C 63.811 92.503, 61 93.627, 61 97.433 C 61 103.053, 66.328 105.907, 72.461 103.573 C 77.949 101.485, 90.529 98.325, 96.558 97.521 L 101.500 96.862 99 98.978 C 97.625 100.141, 95.393 101.859, 94.040 102.796 C 92.686 103.733, 83.103 112.808, 72.744 122.962 C 57.008 138.386, 53.957 141.839, 54.204 143.944 C 54.405 145.655, 55.385 146.773, 57.257 147.427 C 61.685 148.975, 67.183 145.492, 80.920 132.435 L 93.340 120.630 95.304 125.065 C 96.384 127.504, 97.823 130.625, 98.503 132 C 100.899 136.849, 106.220 155.491, 107.988 165.229 C 109.407 173.051, 109.898 171.949, 98.010 187.624 C 93.891 193.056, 89.306 199.300, 87.821 201.500 C 83.261 208.259, 76.709 217.473, 76.088 218 C 75.765 218.275, 73.707 220.750, 71.516 223.500 C 69.325 226.250, 66.472 229.625, 65.177 231 C 63.881 232.375, 61.701 235.151, 60.332 237.168 C 58.325 240.125, 58.051 241.228, 58.920 242.851 C 60.300 245.429, 63.092 246.305, 66.118 245.110 C 72.415 242.622, 94.405 216.790, 108.281 195.579 L 111.500 190.659 112.269 198.079 C 113.153 206.615, 112.524 219.726, 110.471 235.500 C 108.568 250.128, 106.908 257.516, 102.830 269.500 C 99.466 279.387, 99.393 279.497, 96.404 279.211 C 89.549 278.557, 88.042 286.226, 94.277 290.027 C 98.361 292.518, 102.442 292.534, 105.898 290.073 C 108.927 287.916, 113.592 279.078, 115.702 271.500 C 123.064 245.055, 125.332 228.993, 124.845 206.749 C 124.655 198.085, 124.612 190.998, 124.749 190.999 C 124.885 190.999, 127.585 192.989, 130.749 195.421 C 134.367 198.203, 138.127 200.153, 140.888 200.681 L 145.277 201.519 143.174 204.010 C 134.060 214.805, 128.787 223.423, 129.203 226.849 C 129.366 228.196, 130.218 229.747, 131.095 230.296 C 134.536 232.449, 137.670 230.044, 148.713 216.773 C 154.787 209.473, 160.615 202.730, 161.664 201.790 C 163.527 200.118, 163.554 200.243, 162.841 207.290 C 162.440 211.255, 161.791 224.469, 161.399 236.653 L 160.687 258.805 163.439 261.356 C 167.624 265.234, 173.145 265.599, 189.909 263.102 C 197.934 261.908, 206.419 260.496, 208.764 259.965 C 211.110 259.434, 214.077 259, 215.359 259 C 216.641 259, 218.419 258.195, 219.309 257.211 C 222.407 253.788, 224.178 237.296, 224.326 210.500 C 224.483 182.009, 223.686 177.766, 217.045 171.722 C 213.821 168.788, 212.828 168.469, 205.945 168.153 C 198.433 167.808, 195.698 168.625, 183.755 174.779 C 183.345 174.991, 186.495 170.589, 190.755 164.997 C 195.015 159.406, 199.850 152.925, 201.500 150.594 C 208.952 140.067, 210.743 138.417, 217.690 135.682 C 229.081 131.199, 233.828 124.869, 229.046 120.541 C 227.466 119.111, 226.533 118.967, 224.178 119.788 L 221.264 120.804 224.560 115.330 C 227.833 109.895, 233.682 98.332, 235.097 94.500 C 238.616 84.968, 238.388 81, 234.320 81 C 231.277 81, 230.570 81.719, 225.221 90.244 C 224.041 92.125, 222.654 92.989, 220.809 92.994 C 219.329 92.997, 217.859 93.420, 217.542 93.933 C 216.909 94.956, 209.194 96.604, 201.750 97.306 L 197 97.754 197 89.912 C 197 83.183, 196.726 81.924, 195.066 81.035 C 192.770 79.807, 192.935 79.807, 190.828 81.037 M 204.320 109.824 L 197.141 111.368 196.820 119.186 L 196.500 127.005 199.160 127.002 C 201.342 127, 202.635 125.762, 206.366 120.099 C 210.143 114.365, 213.252 107.597, 211.858 108.140 C 211.661 108.216, 208.269 108.974, 204.320 109.824 M 90.971 150.093 C 89.031 151.219, 86.345 153.796, 85.004 155.820 C 83.662 157.844, 81.551 160.756, 80.312 162.291 C 77.262 166.071, 69 181.339, 69 183.196 C 69 185.296, 72.255 188, 74.782 188 C 76.939 188, 77.830 187.022, 82.977 179 C 84.565 176.525, 89.214 170.594, 93.307 165.819 C 97.400 161.044, 101.041 155.973, 101.398 154.548 C 102.945 148.386, 97.744 146.164, 90.971 150.093 M 198.500 182.326 C 196.850 182.972, 192.532 185.188, 188.904 187.250 C 185.276 189.313, 181.672 191, 180.895 191 C 179.349 191, 175.999 203.912, 176 209.869 L 176 213.237 179.178 210.131 C 183.007 206.387, 186.324 205.655, 199.868 205.567 L 210.235 205.500 209.625 199 C 209.289 195.425, 209.011 190.620, 209.007 188.321 C 208.996 181.589, 205.492 179.590, 198.500 182.326 M 193.500 219.112 C 189.100 220.174, 183.370 220.875, 180.767 220.670 C 175.206 220.232, 175.619 219.081, 174.312 238.691 L 173.500 250.882 179.500 250.448 C 182.800 250.210, 190.787 249.742, 197.250 249.409 L 209 248.803 209.005 244.151 C 209.007 241.593, 209.301 234.438, 209.657 228.250 L 210.306 217 205.903 217.091 C 203.481 217.141, 197.900 218.050, 193.500 219.112" stroke="none" fill="black" fill-rule="evenodd"/>
</svg>