<svg xmlns="http://www.w3.org/2000/svg" width="300" height="300" viewBox="0 0 300 300" version="1.1">
	<path d="M 212.960 12.631 C 211.452 13.567, 208.906 17.418, 206.696 22.104 L 202.972 30 169.126 30 C 150.510 30, 133.167 30.289, 130.586 30.643 L 125.893 31.286 126.583 26.083 C 127.717 17.537, 123.605 12.655, 117.780 15.631 C 114.125 17.498, 113 19.909, 113 25.873 L 113 30.877 108.750 31.393 C 106.412 31.676, 101.800 32.159, 98.500 32.467 C 91.423 33.126, 82.255 35.801, 79.765 37.933 C 78.745 38.807, 78 40.827, 78 42.722 L 78 46 83.855 46 C 87.075 46, 95.475 45.532, 102.521 44.960 C 112.476 44.151, 115.501 44.192, 116.089 45.145 C 116.506 45.818, 117.153 49.007, 117.527 52.230 C 118.077 56.970, 118.687 58.404, 120.719 59.735 C 122.939 61.190, 123.527 61.214, 125.794 59.941 C 128.931 58.178, 130.177 53.996, 129.382 47.899 L 128.782 43.298 144.070 42.756 C 158.567 42.243, 196 42.891, 196 43.656 C 196 43.853, 193.243 49.219, 189.873 55.580 C 184.511 65.701, 183.884 67.449, 184.851 69.573 C 186.090 72.292, 190.506 72.920, 193.128 70.750 C 195.208 69.027, 204.298 54.734, 208.639 46.358 L 210.268 43.216 226.203 42.491 C 241.547 41.793, 242.171 41.681, 243.004 39.490 C 245.519 32.875, 240.848 30, 227.583 30 L 218.067 30 219.916 26.750 C 222.254 22.639, 223.405 14.193, 221.878 12.354 C 220.381 10.549, 216.097 10.682, 212.960 12.631 M 172.156 60.557 C 170.394 64.425, 172.243 67.203, 176.316 66.808 C 178.715 66.576, 179.577 65.958, 179.813 64.302 C 180.630 58.554, 174.446 55.530, 172.156 60.557 M 152.323 78.392 C 151.320 79.707, 150.050 81.484, 149.500 82.340 C 148.476 83.935, 142.670 85.037, 116.741 88.560 C 104.628 90.206, 103.885 90.206, 102.063 88.557 C 98.608 85.430, 93.027 88.819, 93.098 94 C 93.117 95.375, 93.949 98.975, 94.947 102 C 95.944 105.025, 96.604 107.772, 96.412 108.104 C 96.220 108.436, 92.474 109.006, 88.089 109.372 C 75.007 110.463, 64.435 114.301, 61.684 118.958 C 58.881 123.704, 59.962 123.941, 80.088 122.993 C 90.292 122.513, 99.249 121.980, 99.991 121.810 C 100.818 121.620, 102.080 123.440, 103.244 126.500 C 105.611 132.718, 107.619 135, 110.722 135 C 112.561 135, 113.005 135.416, 112.590 136.750 C 112.291 137.713, 112.403 139.068, 112.840 139.763 C 113.929 141.495, 127.673 144, 136.088 144 L 143 144 143 148.981 C 143 154.964, 143.910 154.640, 124.750 155.495 C 110.580 156.128, 103.395 157.484, 94.944 161.119 C 90.010 163.242, 88.436 165.368, 89.584 168.359 C 90.111 169.731, 91.875 170, 100.357 169.998 C 105.936 169.997, 116.800 169.327, 124.500 168.509 C 132.200 167.691, 139.400 167.016, 140.500 167.010 C 142.397 166.999, 142.473 167.485, 141.967 176.449 C 141.674 181.646, 141.117 186.217, 140.728 186.605 C 140.340 186.993, 133.380 187.669, 125.261 188.107 C 117.142 188.545, 107.718 189.199, 104.318 189.561 L 98.136 190.218 97.061 186.226 C 96.469 184.030, 95.324 181.683, 94.514 181.012 C 93.705 180.340, 90.975 176.652, 88.448 172.816 C 82.190 163.317, 76.047 160.807, 72.998 166.504 C 72.071 168.235, 72.022 169.624, 72.807 171.875 C 74.445 176.574, 81.245 186.049, 86.368 190.772 C 88.962 193.163, 91 195.937, 91 197.077 C 91 198.540, 92.318 199.696, 95.687 201.186 C 99.733 202.976, 101.542 203.169, 108.937 202.605 C 113.646 202.246, 122.527 201.676, 128.670 201.340 L 139.841 200.728 140.170 203.614 C 140.454 206.099, 139.966 206.764, 136.657 208.400 C 134.544 209.445, 130.719 212.425, 128.157 215.021 L 123.500 219.742 109.500 221.928 C 89.102 225.113, 74.647 228.345, 65 231.880 C 56.495 234.996, 53.699 237.052, 54.638 239.499 C 55.969 242.967, 62.758 242.754, 88.693 238.434 C 100.467 236.472, 110.561 235.020, 111.122 235.207 C 111.686 235.395, 111.274 236.656, 110.202 238.024 C 107.499 241.471, 106.686 246.121, 107.959 250.849 C 109.224 255.544, 115.761 261.817, 123.469 265.732 L 128.438 268.255 124.469 271.649 C 119.469 275.923, 112.921 279.011, 106.552 280.098 C 99.992 281.217, 96.493 284.537, 97.920 288.289 C 99.263 291.821, 102.371 292.451, 111.207 290.985 C 120.889 289.378, 127.791 285.997, 136.254 278.713 L 143.247 272.694 148.017 274.409 C 155.311 277.032, 170.650 280, 176.902 279.998 C 184.546 279.996, 189.401 277.519, 189.801 273.415 C 190.219 269.133, 188.222 267.867, 180.378 267.440 C 176.704 267.240, 170.953 266.205, 167.599 265.140 C 164.244 264.075, 160.043 262.898, 158.261 262.525 C 156.480 262.152, 154.828 261.530, 154.589 261.144 C 154.350 260.757, 156.377 257.119, 159.094 253.058 C 163.560 246.385, 168.893 236.306, 170.370 231.750 C 170.885 230.160, 172.797 229.998, 191.219 229.979 C 214.286 229.954, 238.248 228.622, 242.113 227.149 C 245.746 225.765, 246.358 222.527, 243.593 219.313 L 241.352 216.708 209.926 216.218 L 178.500 215.728 178.500 208.614 L 178.500 201.500 174.750 201.190 C 172.688 201.019, 171 201.290, 171 201.791 C 171 202.293, 169.674 204.091, 168.054 205.787 C 166.433 207.482, 164.208 210.632, 163.109 212.787 C 161.184 216.560, 160.883 216.727, 154.909 217.352 C 151.498 217.708, 147.438 218, 145.887 218 L 143.067 218 145.275 214.259 C 146.489 212.202, 148.273 209.727, 149.241 208.759 C 150.208 207.792, 151 206.137, 151 205.082 C 151 200.547, 151.894 200.001, 159.357 199.978 C 166.932 199.955, 182.376 196.980, 186.224 194.802 C 187.489 194.086, 191.654 191.250, 195.481 188.500 C 210.630 177.613, 217.726 168.864, 216.673 162.371 C 216.044 158.494, 214.808 157.025, 209.951 154.380 C 206.813 152.670, 204.371 152.521, 183 152.732 C 170.075 152.860, 158.543 153.192, 157.374 153.470 C 155.384 153.943, 155.281 153.673, 155.757 149.238 C 156.037 146.632, 156.377 144.366, 156.513 144.203 C 156.649 144.040, 162.761 143.590, 170.095 143.203 L 183.429 142.500 184.965 139.543 C 185.809 137.917, 187.230 135.892, 188.123 135.043 C 189.016 134.195, 192.246 130.302, 195.302 126.393 C 204.093 115.146, 203.252 115.646, 212.231 116.338 C 221.914 117.085, 226.541 115.367, 227.579 110.639 C 228.129 108.135, 227.779 107.206, 225.567 105.304 C 223.409 103.448, 221.713 103, 216.837 103 C 211.461 103, 210.868 102.805, 211.522 101.250 C 213.809 95.808, 212.274 90.424, 207.835 88.324 C 205.468 87.204, 189.380 85.523, 169.681 84.338 C 159.063 83.700, 158.872 83.645, 159.432 81.416 C 160.040 78.992, 157.869 76, 155.501 76 C 154.755 76, 153.325 77.076, 152.323 78.392 M 157.667 97.667 C 157.300 98.033, 157 99.867, 157 101.742 L 157 105.151 175.750 104.424 C 191.193 103.825, 194.706 103.415, 195.668 102.100 C 196.311 101.222, 196.699 100.365, 196.530 100.197 C 196.362 100.029, 190.436 99.245, 183.362 98.455 C 169.581 96.917, 158.748 96.585, 157.667 97.667 M 130.500 100.080 C 125.550 101.094, 118.657 101.942, 115.183 101.962 C 109.103 101.999, 108.891 102.085, 109.545 104.250 C 109.919 105.487, 110.512 106.795, 110.862 107.156 C 111.213 107.516, 119.037 107.317, 128.250 106.713 C 144.571 105.643, 145 105.558, 145 103.389 C 145 102.165, 145.273 100.452, 145.607 99.582 C 146.407 97.496, 142.467 97.626, 130.500 100.080 M 160.750 118.728 L 157 119.121 157 124.560 L 157 130 160.853 130 C 162.973 130, 167.360 130.260, 170.603 130.577 C 176.421 131.146, 176.530 131.109, 178.726 127.827 C 179.950 125.997, 182.146 123.037, 183.604 121.250 L 186.256 118 175.378 118.168 C 169.395 118.261, 162.813 118.513, 160.750 118.728 M 119.128 119.741 L 113.757 120.113 114.367 123.806 C 114.703 125.838, 114.983 128.951, 114.989 130.725 C 114.999 133.776, 115.139 133.898, 117.575 132.972 C 118.991 132.433, 125.291 131.447, 131.575 130.779 C 142.237 129.647, 143 129.422, 143 127.408 C 143 126.221, 143.281 123.844, 143.625 122.125 L 144.250 119 134.375 119.185 C 128.944 119.287, 122.083 119.537, 119.128 119.741 M 153.652 172.750 C 153.301 176.463, 153.011 181.118, 153.007 183.097 L 153 186.693 165.750 186.251 C 178.220 185.819, 178.614 185.735, 183.708 182.423 C 188.588 179.248, 196.933 171.697, 199.920 167.750 C 201.173 166.095, 199.965 166, 177.767 166 L 154.289 166 153.652 172.750 M 142.207 231.446 C 135.134 232.204, 130.408 233.188, 129.559 234.078 C 128.813 234.860, 126.605 238.030, 124.652 241.123 L 121.101 246.746 123.550 249.047 C 124.897 250.312, 129.025 252.366, 132.723 253.610 C 140.644 256.276, 140.497 256.348, 146.588 246.855 C 153.467 236.136, 156.374 229.785, 154.250 230.117 C 153.838 230.182, 148.418 230.780, 142.207 231.446" stroke="none" fill="black" fill-rule="evenodd"/>
</svg>