<svg xmlns="http://www.w3.org/2000/svg" width="300" height="300" viewBox="0 0 300 300" version="1.1">
	<path d="M 197.297 10.583 C 196.309 12.003, 194.250 14.664, 192.722 16.496 C 191.194 18.328, 188.662 22.229, 187.094 25.164 C 184.369 30.266, 184.030 30.528, 179.372 31.132 C 174.123 31.813, 145.095 33.625, 125.294 34.507 L 113.089 35.051 111.828 28.945 C 110.591 22.956, 107.272 18, 104.498 18 C 103.823 18, 102.084 18.933, 100.635 20.073 C 98.508 21.746, 98 22.986, 98 26.507 C 98 28.907, 98.439 32.024, 98.975 33.435 C 99.847 35.727, 99.706 36, 97.651 36 C 96.387 36, 91.111 36.715, 85.926 37.588 C 71.004 40.103, 61.336 46.022, 64.005 51.010 C 65.320 53.467, 69.532 53.576, 83 51.500 C 88.225 50.695, 95.027 50.028, 98.116 50.018 L 103.732 50 105.899 55.944 C 107.165 59.417, 107.815 62.890, 107.461 64.300 C 105.875 70.617, 115.486 72.070, 118.042 65.900 C 119.234 63.020, 118.950 54.126, 117.560 50.846 C 116.784 49.013, 113.656 49.381, 154.597 46.490 C 166.200 45.670, 176.222 45, 176.867 45 C 178.861 45, 174.629 52.043, 168.526 58.883 C 164.058 63.890, 162.969 65.741, 163.425 67.556 C 164.164 70.504, 163.531 70.689, 148.500 71.934 C 141.900 72.480, 133.125 73.639, 129 74.509 C 124.875 75.380, 118.350 76.457, 114.500 76.903 C 110.459 77.372, 105.858 78.645, 103.616 79.916 L 99.731 82.117 97.061 79.558 C 93.788 76.423, 90.732 76.297, 88.039 79.189 C 85.298 82.131, 85.414 87.436, 88.378 94.684 C 92.273 104.208, 98 126.111, 98 131.485 C 98 135.189, 100.789 139, 103.500 139 C 104.415 139, 105 139.933, 105 141.393 C 105 144.459, 105.709 144.688, 117.594 145.465 C 124.699 145.930, 129.338 145.702, 134 144.658 C 148.266 141.464, 159.878 138.024, 165.542 135.315 C 170.496 132.945, 171.555 131.989, 171.825 129.644 C 172.233 126.102, 169.557 123, 166.092 123 C 164.663 123, 160.417 123.880, 156.657 124.955 C 150.369 126.753, 149.875 126.773, 150.501 125.205 C 150.875 124.267, 151.741 120.800, 152.426 117.500 L 153.671 111.500 160.085 110.827 C 166.633 110.140, 174.264 107.856, 176.664 105.864 C 178.641 104.223, 178.285 99.568, 176.025 97.523 C 174.317 95.977, 172.646 95.798, 163.634 96.199 L 153.218 96.662 152.708 93.081 C 152.427 91.111, 151.890 88.740, 151.515 87.811 C 150.577 85.489, 154.812 84.798, 170.980 84.632 C 186.612 84.472, 186.834 84.600, 185.092 92.717 C 183.521 100.036, 177.338 118.888, 175.967 120.540 C 174.182 122.691, 173.590 131.415, 175.142 132.703 C 180.390 137.058, 185.707 134.021, 190.227 124.087 C 199.788 103.068, 202.895 90.949, 200.759 83 C 198.709 75.375, 190.014 70.028, 179.572 69.973 L 174.500 69.946 177.628 67.223 C 181.361 63.974, 187.877 55.121, 190.906 49.183 L 193.085 44.913 209.951 45.206 C 225.767 45.482, 226.995 45.369, 229.659 43.400 C 231.818 41.804, 232.572 40.338, 232.801 37.292 C 233.070 33.699, 232.805 33.162, 230.234 32.097 C 228.100 31.213, 226.134 31.186, 222.549 31.989 C 219.160 32.748, 215.523 32.762, 210.293 32.034 C 206.202 31.466, 202.429 31, 201.907 31 C 201.386 31, 201.831 29.292, 202.896 27.203 C 206.680 19.787, 206.547 13.689, 202.512 9.655 C 200.265 7.408, 199.398 7.562, 197.297 10.583 M 123 90.056 C 118.325 91.075, 111.864 91.929, 108.643 91.954 C 103.451 91.995, 102.872 92.199, 103.546 93.750 C 103.963 94.713, 104.983 98.200, 105.812 101.500 C 106.640 104.800, 107.416 107.632, 107.535 107.793 C 107.655 107.954, 109.271 107.443, 111.126 106.657 C 112.982 105.872, 119.745 103.960, 126.155 102.410 L 137.810 99.591 138.404 96.045 C 138.731 94.095, 139.277 91.487, 139.616 90.250 C 140.190 88.156, 139.930 88.007, 135.867 88.102 C 133.465 88.158, 127.675 89.037, 123 90.056 M 128.500 116.539 C 123.550 117.813, 117.475 118.888, 115 118.928 L 110.500 119 110.500 127.372 L 110.500 135.744 115 134.522 C 117.475 133.850, 123.016 132.476, 127.313 131.467 C 132.406 130.272, 135.455 129.018, 136.073 127.863 C 137.021 126.092, 138.634 113.901, 137.892 114.111 C 137.677 114.173, 133.450 115.265, 128.500 116.539 M 219 159.629 C 213.775 160.441, 204.325 162.213, 198 163.566 C 191.675 164.920, 185.665 166.021, 184.644 166.014 C 183.623 166.006, 181.012 167.407, 178.841 169.126 C 175.372 171.873, 174.931 172.690, 175.197 175.876 L 175.500 179.500 181.385 179.804 C 186.565 180.071, 191.584 179.397, 199.840 177.325 C 201.987 176.786, 202.109 176.928, 201.108 178.799 C 200.498 179.937, 200 184.658, 200 189.291 L 200 197.713 192.992 198.364 C 189.137 198.722, 184.075 199.730, 181.742 200.603 C 179.409 201.476, 176.262 202.423, 174.750 202.708 C 172.137 203.201, 171.999 203.035, 171.988 199.363 C 171.973 194.818, 167.680 178.686, 165.667 175.615 C 164.899 174.442, 163.105 172.859, 161.680 172.097 C 159.414 170.883, 158.766 170.923, 156.492 172.414 C 152.599 174.964, 151.990 177.728, 154.048 183.500 C 156.926 191.574, 161.012 217.546, 161.006 227.727 C 161 236.577, 161.107 237.024, 163.615 238.667 C 165.937 240.189, 166.517 240.219, 168.780 238.941 C 172.284 236.961, 173.834 231.969, 173.924 222.376 L 174 214.252 185.250 213.713 C 191.438 213.417, 197.512 212.858, 198.750 212.470 C 200.981 211.773, 201 211.850, 201 221.883 L 201 232 196.447 232 C 193.943 232, 188.837 232.696, 185.099 233.546 C 179.859 234.737, 177.563 235.855, 175.067 238.431 C 167.612 246.122, 174.206 249.891, 192 248.109 C 197.775 247.530, 206.426 246.796, 211.226 246.478 C 216.025 246.160, 222.295 245.292, 225.161 244.548 C 229.695 243.372, 230.673 243.395, 232.703 244.725 C 234.851 246.132, 235.406 246.062, 239.767 243.827 C 245.057 241.117, 250.324 234.153, 252.117 227.500 C 252.710 225.300, 253.568 223.045, 254.023 222.488 C 254.478 221.931, 255.516 218.781, 256.330 215.488 C 257.144 212.195, 258.496 207.025, 259.335 204 C 261.736 195.346, 263.352 181.696, 262.711 175.485 C 261.970 168.314, 258.909 163.690, 253 160.819 C 247.246 158.023, 232.626 157.512, 219 159.629 M 118.500 166.649 C 105.935 169.265, 100.273 170.617, 93.448 172.628 C 89.020 173.932, 84.295 175.003, 82.948 175.008 C 81.602 175.012, 77.575 175.908, 74 177 C 70.425 178.092, 66.070 178.988, 64.321 178.992 C 62.573 178.997, 60.436 179.707, 59.571 180.571 C 53.799 186.344, 66.852 191.712, 82.247 189.896 C 85.682 189.491, 88.647 189.313, 88.834 189.501 C 89.022 189.688, 89.545 191.482, 89.997 193.487 C 90.568 196.020, 90.465 197.226, 89.660 197.439 C 89.022 197.608, 83.100 199.094, 76.500 200.740 C 69.900 202.387, 63.740 204.056, 62.811 204.451 C 60.911 205.257, 59.711 201.785, 58.543 192.105 C 57.090 180.059, 47.962 171.181, 42.571 176.571 C 40.816 178.327, 40.496 183.189, 41.956 185.917 C 43.053 187.967, 45.497 198.856, 47.474 210.500 C 48.221 214.900, 49.581 222.487, 50.497 227.359 C 51.413 232.232, 51.898 237.269, 51.576 238.552 C 50.504 242.823, 54.829 248.460, 57.779 246.637 C 58.217 246.366, 59.148 247.438, 59.849 249.020 C 60.893 251.381, 61.935 252.018, 65.662 252.577 C 74.928 253.966, 92.321 250.923, 114.804 243.979 C 120.635 242.178, 121.301 242.151, 123.550 243.625 C 126.928 245.838, 130.254 244.739, 133.759 240.253 C 137.516 235.444, 142.635 224.943, 144.630 217.955 C 145.486 214.955, 146.836 210.250, 147.629 207.500 C 149.921 199.553, 150.422 190.709, 148.973 183.776 C 147.873 178.513, 146.917 176.742, 143.053 172.805 C 139.708 169.397, 137.220 167.828, 133.973 167.080 C 129.524 166.054, 122.317 165.854, 118.500 166.649 M 224 173.109 C 213.039 174.852, 214 173.660, 214 185.519 C 214 193.260, 214.327 195.989, 215.250 195.957 C 215.938 195.933, 221 195.078, 226.500 194.057 C 235.241 192.433, 236.783 192.379, 238.750 193.623 C 241.591 195.420, 241.740 200.020, 239.036 202.467 C 236.584 204.686, 227.064 207.918, 220.661 208.705 C 218 209.032, 215.675 209.795, 215.495 210.400 C 215.315 211.005, 214.917 215.887, 214.611 221.250 L 214.054 231 217.069 231 C 221.814 231, 235.421 227.936, 236.188 226.695 C 236.833 225.652, 238.337 219.600, 242.949 199.500 C 243.959 195.100, 245.373 187.735, 246.092 183.132 C 247.323 175.246, 247.290 174.685, 245.508 173.382 C 243.377 171.824, 232.912 171.691, 224 173.109 M 111.750 182.707 C 105.587 184.324, 105.517 184.442, 106.653 191.320 L 107.284 195.140 116.955 194.454 C 127.855 193.682, 130 194.603, 130 200.057 C 130 203.728, 124.582 207.524, 118 208.464 C 107.750 209.929, 108.510 209.288, 107.104 217.652 C 106.404 221.819, 104.985 227.202, 103.951 229.614 C 101.785 234.668, 101.056 234.481, 113.860 232.150 L 123.221 230.447 125.046 225.639 C 128.456 216.656, 132.181 200.527, 132.723 192.399 C 133.235 184.726, 133.139 184.211, 130.909 182.649 C 127.971 180.591, 119.721 180.616, 111.750 182.707 M 87.500 213.754 C 85.850 213.894, 79.888 215.190, 74.250 216.634 L 64 219.260 64 229.696 C 64 235.435, 63.521 241.026, 62.937 242.118 C 61.892 244.070, 61.945 244.069, 65.943 242.029 C 68.181 240.888, 73.497 239.271, 77.756 238.436 C 82.015 237.602, 86.474 236.713, 87.664 236.462 C 89.587 236.056, 89.710 235.693, 88.771 233.205 C 87.941 231.006, 88.079 229.636, 89.414 226.823 C 90.490 224.556, 91.001 221.456, 90.806 218.371 C 90.508 213.628, 90.421 213.507, 87.500 213.754" stroke="none" fill="black" fill-rule="evenodd"/>
</svg>