<svg xmlns="http://www.w3.org/2000/svg" width="300" height="300" viewBox="0 0 300 300" version="1.1">
	<path d="M 102.655 20.829 C 100.497 23.213, 100.565 26.067, 102.917 31.815 C 103.972 34.392, 105.089 37.673, 105.400 39.107 C 105.955 41.662, 105.833 41.729, 99.233 42.459 C 95.530 42.869, 88.609 43.496, 83.854 43.852 C 74.421 44.559, 71 46.354, 71 50.596 C 71 53.393, 71.498 53.716, 78.738 55.613 C 83.616 56.891, 86.060 56.938, 94.673 55.925 C 100.269 55.266, 105.491 54.974, 106.278 55.276 C 107.142 55.608, 108.426 59.246, 109.522 64.467 C 111.582 74.283, 113.365 76.302, 117.551 73.558 C 120.711 71.488, 121.396 68.393, 120.563 59.940 L 119.879 53 128.525 53 C 138.446 53, 175.155 51.204, 179.219 50.520 L 181.938 50.062 180.241 53.781 C 179.308 55.827, 176.120 61.907, 173.156 67.294 C 169.007 74.835, 167.897 77.734, 168.329 79.895 C 168.839 82.447, 168.666 82.659, 166.418 82.229 C 164.692 81.899, 163.350 82.443, 161.973 84.031 C 160.112 86.177, 160 87.867, 160 113.745 C 160 139.670, 159.890 141.325, 158 143.727 C 155.543 146.850, 155.490 148.233, 157.750 150.260 C 162.037 154.107, 171.455 153.040, 190.500 146.548 C 194.350 145.236, 198.868 143.886, 200.540 143.548 C 208.879 141.862, 212.133 136.856, 208.116 131.895 L 206.232 129.568 196.866 131.348 C 191.715 132.327, 184.233 134.070, 180.240 135.221 C 176.247 136.372, 172.716 137.049, 172.392 136.725 C 172.068 136.401, 172.126 131.831, 172.520 126.568 L 173.238 117 182.437 117 C 197.919 117, 208 112.297, 208 105.074 C 208 100.641, 204.838 99.618, 196.733 101.430 C 193.305 102.196, 186.563 103.007, 181.750 103.232 L 173 103.641 172.989 100.571 C 172.983 98.882, 172.710 95.881, 172.383 93.901 L 171.787 90.303 176.766 91.323 C 181.275 92.246, 182.584 92.040, 190.623 89.143 C 209.926 82.184, 216.865 81.386, 217.962 86 C 218.942 90.121, 217.366 203.311, 216.104 219.500 C 214.609 238.663, 213.221 251.911, 211.909 259.535 C 211.007 264.772, 210.488 265.738, 207.982 266.848 C 204.152 268.543, 203.458 271.229, 205.677 275.769 C 207.071 278.622, 208.343 279.708, 211.082 280.385 C 219.572 282.484, 224.371 274.846, 226.010 256.626 C 226.511 251.057, 227.671 240.425, 228.588 233 C 229.983 221.694, 230.274 208.287, 230.377 150.500 C 230.513 73.932, 230.841 77.871, 223.924 72.946 C 217.810 68.593, 209.631 69.475, 191.500 76.445 C 188.200 77.713, 184.011 79.026, 182.191 79.362 L 178.883 79.973 180.823 77.237 C 183.889 72.913, 187.693 66.165, 192.008 57.393 L 195.996 49.285 202.248 48.653 C 208.881 47.983, 225.153 44.557, 231 42.600 C 234.024 41.588, 234.541 40.944, 234.801 37.863 C 235.047 34.956, 234.628 33.986, 232.529 32.611 C 230.133 31.041, 229.213 31.035, 219.228 32.515 C 213.327 33.390, 206.863 34.473, 204.863 34.922 L 201.226 35.737 201.652 32.118 C 202.181 27.628, 200.311 23.917, 196.629 22.151 C 194.020 20.900, 193.605 21.004, 190.908 23.588 C 188.866 25.544, 188 27.342, 188 29.622 C 188 31.408, 187.561 34.024, 187.025 35.435 C 186.086 37.904, 185.740 38, 177.775 37.992 C 173.224 37.988, 158.320 38.734, 144.656 39.649 C 116.485 41.537, 118.514 42.032, 117.409 33.009 C 116.628 26.628, 113.403 20.345, 110.509 19.567 C 106.832 18.579, 104.327 18.981, 102.655 20.829 M 91.912 79.422 C 91.628 79.706, 88.752 80.157, 85.521 80.424 C 74.951 81.297, 75.609 78.194, 75.496 127.731 C 75.442 151.254, 75.014 194.800, 74.544 224.500 C 74.074 254.200, 74.002 280.572, 74.384 283.104 C 75.186 288.420, 78.037 292, 81.468 292 C 86.960 292, 87 291.734, 87 255.357 C 87 224.903, 87.143 222, 88.571 223.429 C 91.748 226.605, 92.789 225.915, 104.699 212.748 C 107.558 209.587, 110.146 207, 110.449 207 C 110.752 207, 111.008 209.363, 111.018 212.250 C 111.029 215.137, 111.719 221.325, 112.552 226 C 113.386 230.675, 114.478 242.312, 114.979 251.860 C 115.998 271.288, 116.735 273.360, 122.426 272.799 C 126.276 272.419, 127.966 269.236, 127.985 262.327 L 128 257.153 131.107 258.703 C 133.278 259.786, 135.612 260.067, 138.857 259.634 C 141.411 259.293, 146.875 258.568, 151 258.022 C 158.343 257.049, 170.012 254.643, 185 251.011 C 189.125 250.011, 194.275 248.888, 196.445 248.515 C 201.480 247.649, 209.654 243.526, 210.846 241.251 C 211.350 240.288, 212.084 238.007, 212.476 236.183 C 213.784 230.093, 208.012 226.761, 203.499 231.001 C 201.313 233.054, 192.290 235.774, 176.598 239.108 C 171.702 240.149, 167.540 241, 167.348 241 C 167.157 241, 167 238.793, 167 236.095 C 167 231.202, 167.012 231.184, 172.421 228.131 C 178.553 224.671, 179.932 222.072, 177.560 218.451 C 175.712 215.631, 173.147 215.355, 168.950 217.526 L 166 219.051 166 215.653 C 166 212.488, 166.261 212.214, 169.831 211.643 C 174.380 210.916, 177.250 208.098, 177.250 204.361 C 177.250 200.427, 174.417 198.740, 169.121 199.518 L 164.743 200.161 165.528 197.331 C 165.961 195.774, 166.391 193.461, 166.486 192.192 C 166.617 190.439, 167.963 189.281, 172.079 187.381 C 178.223 184.545, 184 179.454, 184 176.876 C 184 175.924, 182.846 174.238, 181.436 173.128 C 178.966 171.186, 177.831 171.174, 173.500 173.046 C 168.766 175.092, 163.699 177, 162.999 177 C 162.583 177, 161.639 175.544, 160.902 173.763 C 159.315 169.931, 155.227 166.076, 152.705 166.032 C 151.717 166.014, 149.794 167.116, 148.430 168.479 C 145.771 171.138, 145.825 174.233, 148.608 178.698 C 150.246 181.326, 150.227 181.340, 142.025 183.427 C 138.464 184.333, 134.527 186.036, 133.275 187.211 C 130.315 189.992, 130.290 194.389, 133.223 196.443 C 136.142 198.488, 137.700 198.413, 145.499 195.853 C 149.096 194.672, 152.222 193.888, 152.445 194.112 C 152.668 194.335, 152.353 196.384, 151.744 198.666 C 150.733 202.454, 150.209 202.952, 145.703 204.407 C 142.990 205.283, 139.994 206, 139.046 206 C 136.541 206, 130.079 211.200, 130.036 213.250 C 129.980 215.937, 133.664 219, 136.951 219 C 138.574 219, 142.490 218.326, 145.653 217.502 C 152.069 215.831, 153.314 216.373, 152.828 220.628 C 152.586 222.750, 151.893 223.586, 150.178 223.829 C 148.901 224.010, 146.251 225.247, 144.288 226.579 C 142.326 227.911, 139.689 229, 138.428 229 C 135.310 229, 134.354 232.365, 136.529 235.685 C 138.143 238.148, 138.540 238.245, 144.862 237.708 C 148.513 237.398, 152.318 236.827, 153.318 236.439 C 154.911 235.821, 155.097 236.209, 154.818 239.564 L 154.500 243.395 144 245.464 C 138.225 246.602, 132.328 248.323, 130.895 249.287 L 128.289 251.040 127.661 240.770 C 127.316 235.122, 126.559 227.125, 125.980 223 C 125.400 218.875, 124.606 211.407, 124.213 206.403 C 123.821 201.400, 122.964 196.661, 122.309 195.872 C 121.353 194.720, 121.808 193.455, 124.609 189.468 C 134.536 175.341, 136 172.688, 136 168.824 C 136 165.670, 135.539 164.747, 133.500 163.818 C 129.665 162.071, 127.019 163.868, 120.494 172.656 C 110.185 186.539, 104.109 194.505, 102.283 196.531 C 97.684 201.632, 88.878 213.156, 88.227 214.923 C 87.392 217.190, 87.666 173.086, 88.573 159.309 L 89.178 150.117 91.642 151.054 C 92.997 151.569, 97.200 151.849, 100.982 151.675 C 106.890 151.404, 109.383 150.620, 118.679 146.107 C 130.226 140.501, 134 137.731, 134 134.861 C 134 133.876, 134.879 132.600, 135.954 132.025 C 137.029 131.450, 139.229 128.171, 140.843 124.739 C 144.774 116.381, 148.540 92.370, 146.806 86.719 C 144.594 79.512, 144.686 79.535, 117.111 79.202 C 103.536 79.039, 92.196 79.137, 91.912 79.422 M 93.250 93.125 L 88 94.153 88 103.083 L 88 112.013 92.150 109.006 C 95.447 106.618, 97.348 105.994, 101.400 105.969 C 107.218 105.933, 126.129 102.765, 130.250 101.136 C 132.524 100.238, 133 99.440, 133 96.525 L 133 93 126.750 92.995 C 123.313 92.993, 115.550 92.790, 109.500 92.544 C 103.450 92.299, 96.138 92.560, 93.250 93.125 M 129.584 115.213 C 127.899 116.156, 118.223 117.640, 100.848 119.620 C 97.586 119.992, 93.887 119.808, 92.098 119.184 L 89 118.104 89 129.552 L 89 141 93.873 141 C 96.555 141, 100.938 140.072, 103.623 138.935 C 108.377 136.923, 110.641 135.976, 115.250 134.070 C 116.487 133.558, 119.158 132.633, 121.184 132.014 C 123.660 131.258, 125.530 129.766, 126.886 127.468 C 128.924 124.014, 132.314 114.981, 131.775 114.442 C 131.615 114.281, 130.629 114.628, 129.584 115.213" stroke="none" fill="black" fill-rule="evenodd"/>
</svg>