<svg xmlns="http://www.w3.org/2000/svg" width="300" height="300" viewBox="0 0 300 300" version="1.1">
	<path d="M 200.037 28.748 C 197.219 31.910, 194.665 35.489, 194.360 36.701 C 193.645 39.550, 192.998 39.619, 154.500 40.948 C 137.450 41.537, 122.375 42.127, 121 42.259 C 118.582 42.492, 118.490 42.278, 118.205 35.761 C 117.968 30.354, 117.534 28.821, 116.012 28.006 C 111.302 25.486, 105.473 32.924, 106.157 40.581 C 106.543 44.899, 107.217 44.617, 90.809 47.003 C 78.570 48.783, 73.234 53.286, 77.620 58.132 C 79.092 59.759, 80.205 60.054, 82.988 59.555 C 90.167 58.270, 97.662 57.169, 103.133 56.598 L 108.765 56.010 109.883 60.448 C 110.497 62.889, 111 66.711, 111 68.943 C 111 75.474, 115.815 79.042, 119.567 75.290 C 121.033 73.824, 121.193 72.210, 120.690 63.954 L 120.104 54.328 138.302 53.169 C 169.461 51.184, 189.654 50.631, 190.343 51.745 C 191.107 52.982, 187.869 62.704, 185.378 66.651 C 184.389 68.218, 182.550 70.574, 181.290 71.886 C 178.572 74.718, 178.145 80.458, 180.582 81.393 C 187.401 84.010, 196.101 73.853, 202.598 55.688 L 204.319 50.877 217.282 51.131 C 228.993 51.360, 230.379 51.202, 231.623 49.501 C 233.467 46.979, 233.327 44.983, 231.104 42.092 C 229.401 39.876, 228.394 39.645, 218.570 39.208 C 209.227 38.792, 207.973 38.530, 208.563 37.116 C 210.611 32.213, 211.217 27.772, 210.157 25.445 C 208.397 21.583, 205.612 22.492, 200.037 28.748 M 153.460 73.419 C 151.788 74.738, 149.182 78.264, 147.668 81.255 L 144.917 86.693 130.208 87.357 C 111.283 88.210, 95.198 89.781, 87 91.577 C 77.645 93.627, 74.380 98.380, 79.092 103.092 C 80.549 104.549, 81.841 104.980, 83.342 104.509 C 89.183 102.681, 112.303 100.146, 127.161 99.706 C 143.550 99.220, 143.832 99.247, 144.397 101.356 C 145.501 105.470, 144.987 112.510, 143.282 116.633 C 141.318 121.382, 140.814 121.527, 122.401 122.663 L 112.302 123.285 111.741 119.104 C 111.070 114.106, 109.532 112, 106.552 112 C 103.330 112, 100.058 116.046, 99.200 121.091 L 98.450 125.500 90.975 126.133 C 83.433 126.772, 73.043 129.112, 68.446 131.207 C 65.528 132.536, 64.245 136.385, 66.011 138.513 C 67.625 140.458, 79.128 140.452, 88 138.500 C 91.575 137.714, 95.942 137.054, 97.705 137.035 C 100.611 137.003, 100.973 137.340, 101.596 140.660 C 102.088 143.281, 101.790 145.235, 100.546 147.545 C 98.143 152.007, 98.805 154.430, 102.527 154.796 C 104.816 155.021, 106.252 154.347, 108.519 151.983 C 111.058 149.334, 111.574 147.882, 112 142.187 L 112.500 135.500 121 134.799 C 139.681 133.258, 184.184 130.851, 184.688 131.355 C 184.983 131.650, 184.520 133.959, 183.659 136.486 C 181.901 141.645, 182.132 142.977, 185.103 144.832 C 188.163 146.743, 190.864 144.505, 194.788 136.807 L 198.075 130.357 207.452 129.260 C 218.356 127.984, 220.421 127.100, 221.809 123.118 C 222.645 120.719, 222.493 119.833, 220.961 118.188 C 219.294 116.399, 218.223 116.242, 211.022 116.736 C 201.909 117.361, 202.104 117.672, 206.341 109.272 C 208.309 105.369, 208.348 104.920, 206.847 103.418 C 204.324 100.896, 199.928 102.445, 195.526 107.408 C 193.414 109.790, 191.194 113.260, 190.593 115.119 C 189.533 118.398, 189.304 118.519, 183 119.133 C 179.425 119.481, 170.977 119.819, 164.227 119.883 L 151.954 120 153.518 117.613 C 154.460 116.175, 155.323 111.805, 155.689 106.613 L 156.297 98 159.399 97.969 C 169.425 97.870, 187.157 95.961, 190.318 94.641 C 195.034 92.670, 196.755 88.802, 194.468 85.311 C 192.431 82.202, 190.411 81.462, 187.683 82.825 C 186.482 83.424, 181 84.396, 175.500 84.984 C 170 85.572, 163.588 86.258, 161.250 86.508 C 156.320 87.034, 156.028 86.284, 159 80.739 C 161.285 76.475, 161.524 73.924, 159.800 72.200 C 158.082 70.482, 156.897 70.709, 153.460 73.419 M 173 153.608 C 165.238 155.008, 144.263 160.012, 137 162.198 C 130.097 164.274, 124.468 167.190, 122.667 169.622 C 120.966 171.918, 120.950 172.274, 122.440 174.548 C 124.593 177.835, 128.264 177.726, 139.223 174.050 C 152.915 169.458, 172.529 165, 179.041 165 C 181.907 165, 183.211 165.526, 184 167.001 C 184.654 168.222, 185.313 181.179, 185.691 200.264 C 186.381 235.046, 186.042 237.911, 180.990 240.004 C 177.542 241.433, 176.438 244.082, 178.043 247.081 C 179.025 248.916, 179.841 249.165, 183.507 248.752 C 193.004 247.682, 197.661 240.773, 198.548 226.440 C 198.852 221.523, 198.719 206.250, 198.253 192.500 C 197.483 169.838, 197.194 167.027, 195.161 162.442 C 193.825 159.428, 191.757 156.697, 190.044 155.685 C 187.120 153.958, 177.537 152.790, 173 153.608 M 110.224 166.750 C 107.725 170.345, 106.129 180.658, 104.925 200.987 C 104.387 210.069, 103.744 218.175, 103.496 219 C 102.607 221.957, 100.913 253.152, 101.536 255.112 C 102.573 258.382, 107.985 257.280, 110.487 253.289 C 111.806 251.184, 113.313 250.064, 114.857 250.039 C 116.153 250.017, 121.230 249.265, 126.140 248.367 C 131.050 247.469, 135.335 247.001, 135.662 247.329 C 136.220 247.886, 134.925 250.165, 126.193 264 C 124.284 267.025, 120.201 272.098, 117.119 275.274 C 111.599 280.961, 111.539 281.088, 113.041 283.774 C 116.425 289.821, 122.753 286.779, 132.845 274.253 C 141.582 263.411, 146 257.300, 146 256.060 C 146 254.160, 147.867 254.942, 149.703 257.612 C 154.386 264.420, 160.404 269.868, 170.500 276.440 C 183.268 284.752, 197.895 292, 201.901 292 C 205.458 292, 208.412 288.874, 207.518 286.056 C 206.967 284.322, 196.055 276, 194.331 276 C 194.041 276, 189.716 273.471, 184.719 270.380 C 175.486 264.669, 166.040 257.726, 158.109 250.822 C 155.694 248.720, 153.052 247, 152.237 247 C 151.033 247, 150.989 246.719, 152 245.500 C 152.685 244.675, 154.493 244, 156.019 244 C 159.391 244, 172.450 238.808, 175.092 236.417 C 177.496 234.241, 177.524 231.785, 175.171 229.655 C 172.939 227.635, 171.235 227.592, 165.188 229.406 C 160.491 230.814, 149.646 232.672, 130 235.432 C 111.625 238.014, 112.834 238.040, 113.470 235.083 C 113.776 233.662, 114.462 228, 114.995 222.500 C 115.528 217, 116.266 209.425, 116.634 205.667 L 117.303 198.834 120.401 199.382 C 129.446 200.982, 134.286 201.037, 143 199.640 C 148.225 198.803, 156.919 197.802, 162.321 197.417 C 168.343 196.987, 172.660 196.197, 173.482 195.375 C 175.110 193.748, 174.446 190.713, 171.972 188.474 C 168.025 184.902, 139.143 185.586, 124.346 189.601 C 121.511 190.371, 118.924 191, 118.596 191 C 118.268 191, 118 185.632, 118 179.071 C 118 169.561, 117.681 166.824, 116.429 165.571 C 114.153 163.295, 112.394 163.630, 110.224 166.750 M 154 212.957 C 140.242 215.068, 126.314 218.533, 124.250 220.359 C 121.468 222.819, 121.384 225.384, 124 228 C 127.115 231.115, 128.237 230.993, 156.500 224.476 C 159.800 223.716, 164.075 222.797, 166 222.435 C 172.192 221.272, 174.548 217.623, 171.608 213.750 C 170.184 211.874, 163.133 211.557, 154 212.957" stroke="none" fill="black" fill-rule="evenodd"/>
</svg>