<svg xmlns="http://www.w3.org/2000/svg" width="300" height="300" viewBox="0 0 300 300" version="1.1">
	<path d="M 208.060 10.916 C 206.830 12.644, 205.359 17.414, 204.450 22.624 C 203.607 27.460, 202.734 31.599, 202.510 31.824 C 201.498 32.836, 136.324 36.318, 134.897 35.437 C 134.404 35.132, 134 31.749, 134 27.920 C 134 21.497, 133.809 20.870, 131.545 19.839 C 129.702 18.999, 128.353 19.025, 126.131 19.946 C 122.230 21.561, 120.573 25.725, 121.387 31.863 L 122.029 36.699 108.764 37.266 C 98.771 37.693, 94.383 38.314, 90.970 39.786 C 85.690 42.064, 83.362 45.745, 85.421 48.561 C 86.600 50.174, 88.340 50.271, 106.254 49.721 L 125.800 49.122 126.411 52.379 C 126.748 54.171, 126.751 56.995, 126.419 58.655 C 125.998 60.761, 126.318 62.175, 127.479 63.336 C 129.902 65.759, 131.829 65.394, 135.099 61.894 C 137.537 59.284, 138 57.951, 138 53.542 L 138 48.295 146.512 47.641 C 151.194 47.281, 162.557 46.749, 171.762 46.459 C 180.968 46.170, 190.425 45.730, 192.777 45.482 C 196.742 45.064, 196.979 45.171, 196.027 46.950 C 193.517 51.639, 195.140 57, 199.068 57 C 202.296 57, 205.227 54.336, 208.073 48.818 C 209.117 46.793, 210.457 44.836, 211.050 44.469 C 211.643 44.103, 216.262 43.433, 221.314 42.981 C 234.524 41.799, 240.452 40.275, 243.432 37.295 C 246.467 34.260, 246.665 32.043, 244.175 28.968 L 242.351 26.715 233.925 28.292 C 229.291 29.159, 223.396 30.064, 220.825 30.303 C 216.408 30.713, 216.193 30.620, 216.932 28.619 C 218.140 25.345, 219.125 13.346, 218.417 10.525 C 217.877 8.376, 217.214 8, 213.960 8 C 210.877 8, 209.734 8.565, 208.060 10.916 M 163.144 70.327 C 160.934 72.989, 158.835 79.427, 159.346 81.978 C 159.858 84.542, 159.671 84.643, 150.185 86.914 C 144.858 88.190, 138.233 89.841, 135.462 90.583 C 132.691 91.325, 127.741 92.229, 124.462 92.590 C 113.463 93.803, 108.115 98.245, 112.944 102.156 C 117.663 105.977, 123.131 105.767, 144 100.961 C 159.471 97.398, 158.959 97.427, 158.275 100.146 C 157.949 101.441, 156.854 103.573, 155.841 104.885 C 154.828 106.197, 154 108.268, 154 109.488 C 154 111.506, 153.093 111.877, 143.924 113.603 C 130.322 116.164, 127.400 118.902, 132.452 124.354 C 134.411 126.468, 135.819 127, 139.452 127 C 143.902 127, 144 127.069, 144 130.199 C 144 132.733, 145.010 134.346, 148.857 137.958 L 153.714 142.518 145.660 144.791 C 137.748 147.023, 131.436 150.701, 130.261 153.763 C 129.889 154.732, 130.737 156.237, 132.516 157.767 C 134.878 159.799, 136.149 160.144, 139.933 159.778 C 142.445 159.535, 146.075 158.630, 148 157.766 C 149.925 156.902, 154.650 155.447, 158.500 154.533 C 162.350 153.620, 166.884 152.517, 168.575 152.083 L 171.650 151.294 170.075 156.645 C 169.209 159.588, 167.917 161.997, 167.204 161.998 C 164.175 162.003, 149.081 167.503, 144.210 170.378 C 138.229 173.908, 136.751 176.963, 139.536 180.040 C 141.827 182.571, 147.586 182.612, 153.815 180.141 C 156.392 179.119, 160.300 177.706, 162.500 177 C 164.700 176.295, 167.063 175.508, 167.750 175.252 C 169.122 174.741, 169.444 180.684, 168.389 187.057 C 167.827 190.457, 167.485 190.717, 160.650 192.943 C 156.718 194.224, 148.785 196.835, 143.022 198.746 C 129.476 203.238, 126.289 206.713, 131.039 211.811 C 134.345 215.360, 135.105 215.214, 163.852 205.492 L 168.204 204.020 167.542 217.760 C 167.178 225.317, 166.400 232.478, 165.812 233.673 C 163.312 238.761, 168.040 244.076, 173.291 242.079 C 177.467 240.492, 178.169 238.416, 179.648 223.274 C 182.127 197.893, 181.308 200.046, 189.815 196.526 C 200.968 191.912, 209.587 182.210, 208.232 175.797 C 207.482 172.252, 200.659 172.373, 199.724 175.947 C 199.195 177.969, 192.310 182.740, 188.084 184.013 C 186.663 184.441, 184.692 185.120, 183.704 185.521 C 182.058 186.188, 181.932 185.639, 182.204 178.986 L 182.500 171.722 191.713 169.514 C 196.781 168.299, 201.618 166.732, 202.463 166.030 C 204.684 164.187, 204.351 160.410, 201.750 157.948 C 199.428 155.749, 197.556 155.706, 186.750 157.603 C 182.545 158.342, 182.341 157.912, 184.024 151.853 C 184.994 148.361, 185.323 148.140, 191.769 146.648 C 195.471 145.790, 199.978 144.805, 201.784 144.458 C 206.387 143.573, 208.639 139.957, 207.021 136.051 C 206.301 134.311, 204.927 132.988, 203.652 132.807 C 200.893 132.414, 188.264 133.612, 185 134.577 C 182.933 135.189, 183.429 134.326, 187.871 129.590 C 193.087 124.029, 193.228 123.726, 192.780 119.065 L 192.319 114.265 197.650 112.584 C 203.359 110.785, 205.539 108.282, 204.612 104.590 C 203.655 100.776, 200.027 99.572, 194.820 101.340 C 192.358 102.176, 185.429 104.040, 179.422 105.483 C 173.415 106.926, 167.901 108.307, 167.169 108.553 C 166.306 108.842, 166.564 107.823, 167.901 105.661 C 169.036 103.824, 170.328 100.562, 170.772 98.411 C 171.467 95.039, 171.986 94.456, 174.539 94.180 C 176.168 94.004, 181.325 92.771, 186 91.440 C 197.861 88.064, 201.633 83.473, 197.123 77.903 C 195.280 75.627, 195.176 75.616, 191.373 77.262 C 187.260 79.043, 176.230 82, 173.699 82 C 172.632 82, 171.980 80.457, 171.482 76.750 C 171.094 73.862, 170.321 70.938, 169.766 70.250 C 168.436 68.605, 164.535 68.651, 163.144 70.327 M 74.351 101.750 C 72.183 104.086, 71.865 105.201, 72.243 109.152 C 72.726 114.205, 76.534 122.313, 81.213 128.250 C 83.331 130.937, 84.938 132, 86.884 132 C 92.561 132, 93.327 128.394, 89.430 120.022 C 88.028 117.009, 86.013 111.414, 84.953 107.589 C 83.893 103.764, 82.458 100.273, 81.763 99.832 C 79.414 98.342, 76.916 98.988, 74.351 101.750 M 170.500 120.956 C 166.650 121.965, 161.363 123.090, 158.750 123.457 C 156.137 123.823, 154 124.342, 154 124.611 C 154 126.552, 157.548 131.232, 159.967 132.483 C 161.581 133.317, 163.307 134.727, 163.804 135.615 C 164.602 137.040, 164.973 136.951, 166.956 134.865 C 168.192 133.564, 170.393 130.925, 171.846 129 C 173.300 127.075, 174.716 125.271, 174.994 124.991 C 175.272 124.712, 176.591 123.249, 177.924 121.741 C 180.807 118.482, 180.190 118.416, 170.500 120.956 M 63.465 144.894 C 58.795 146.920, 57.013 152.013, 59.949 154.949 C 61.506 156.506, 63.289 157, 67.353 157 C 70.298 157, 75.465 157.288, 78.836 157.641 L 84.966 158.281 78.863 164.805 C 75.507 168.394, 72.136 172.824, 71.372 174.652 C 69.540 179.037, 70.840 184.857, 74.922 190.542 C 80.120 197.779, 78.804 203.337, 69.643 212.831 C 64.359 218.308, 54.334 225.374, 46.775 228.949 C 38.453 232.886, 36.614 236.277, 40.408 240.688 C 42.154 242.718, 45.068 243.907, 53.575 246.059 C 67.854 249.672, 73.611 251.245, 84.500 254.511 C 110.199 262.220, 144.004 266.621, 215 271.501 C 254.331 274.204, 259.791 273.670, 264.040 266.701 C 268.732 259.008, 263.814 253.736, 257.449 259.635 C 254.155 262.687, 254.688 262.694, 213.500 259.083 C 200.850 257.974, 184.200 256.576, 176.500 255.976 C 146.863 253.667, 140.152 253.027, 129.500 251.496 C 117.314 249.745, 101.211 246.627, 90.500 243.944 C 83.132 242.098, 65.469 237.259, 63.121 236.443 C 62.280 236.151, 65.056 233.465, 70.237 229.557 C 85.068 218.370, 90 210.441, 90 197.784 C 90 191.052, 89.630 189.370, 87.351 185.730 C 85.893 183.404, 84.318 181.350, 83.851 181.167 C 82.150 180.500, 83.114 179.073, 89.140 173.341 C 96.328 166.504, 101 159.673, 101 156 C 101 151.877, 95.545 147.393, 89 146.135 C 81.035 144.604, 65.836 143.865, 63.465 144.894" stroke="none" fill="black" fill-rule="evenodd"/>
</svg>