<svg xmlns="http://www.w3.org/2000/svg" width="300" height="300" viewBox="0 0 300 300" version="1.1">
	<path d="M 191.222 11.807 C 189.937 12.922, 188.122 17.231, 186.485 23.057 C 185.025 28.251, 183.703 32.628, 183.546 32.785 C 183.390 32.942, 172.516 34.172, 159.381 35.517 C 146.247 36.862, 132.125 38.407, 128 38.950 C 123.875 39.494, 118.398 39.952, 115.829 39.969 C 110.638 40.003, 110.861 40.368, 109.406 29.500 C 107.993 18.941, 102.977 13.819, 97.539 17.382 C 94.485 19.384, 93.390 24.628, 94.844 30.290 C 95.439 32.605, 96.192 36.324, 96.517 38.554 L 97.110 42.608 89.805 44.317 C 85.787 45.257, 81.610 46.020, 80.521 46.013 C 79.433 46.006, 75.505 47.458, 71.793 49.240 C 66.843 51.617, 64.724 53.252, 63.845 55.374 C 62.801 57.895, 62.895 58.457, 64.573 59.727 C 67.156 61.683, 77.315 60.829, 90.453 57.554 C 95.927 56.189, 100.629 55.296, 100.903 55.569 C 101.176 55.843, 102.999 60.433, 104.953 65.770 C 108.676 75.939, 109.564 76.828, 114.717 75.535 C 117.264 74.896, 117.273 74.858, 116.689 66.696 C 116.367 62.188, 115.808 57.508, 115.447 56.295 C 114.602 53.457, 114.062 53.570, 143.220 50.498 C 168.699 47.815, 180 47.364, 180 49.032 C 180 49.600, 179.325 51.680, 178.500 53.654 C 177.675 55.629, 177 58.099, 177 59.144 C 177 60.189, 175.650 64.021, 174 67.660 C 172.350 71.299, 171 74.820, 171 75.483 C 171 77.516, 174.506 80, 177.376 80 C 180.201 80, 185 75.835, 185 73.384 C 185 72.656, 186.297 69.459, 187.883 66.280 C 189.469 63.101, 191.755 57.462, 192.965 53.750 C 194.174 50.038, 195.239 46.967, 195.332 46.927 C 195.424 46.886, 205.156 46.258, 216.957 45.530 C 237.077 44.289, 238.526 44.069, 240.207 41.993 C 242.538 39.115, 242.472 38.382, 239.634 35.543 C 236.455 32.364, 229.417 31.576, 212.367 32.489 L 198.794 33.216 199.511 29.858 C 199.905 28.011, 200.852 24.983, 201.614 23.128 C 203.626 18.233, 203.326 15.235, 200.545 12.455 C 197.640 9.549, 194.109 9.304, 191.222 11.807 M 142.223 95.750 C 138.861 98.695, 138.001 103.597, 137.986 119.899 C 137.969 139.632, 137.876 140, 132.883 140 L 129 140 128.994 135.750 C 128.976 121.528, 121.759 116.159, 117.129 126.922 C 113.129 136.219, 114.814 146.142, 121.322 151.618 C 124.286 154.111, 124.794 154.195, 134.453 153.779 C 144.839 153.331, 144.591 153.409, 164.500 144.424 C 165.129 144.141, 165.375 146.407, 165.163 150.529 C 164.766 158.236, 165.901 160.242, 170.408 159.801 C 172.613 159.585, 173.855 158.726, 174.787 156.772 C 178.319 149.365, 181.115 121.720, 179.085 114.267 C 177.937 110.052, 174.938 107.303, 172.877 108.576 C 170.791 109.865, 167.019 119.540, 167.010 123.625 C 167.004 125.894, 166.723 129.135, 166.385 130.827 C 165.844 133.528, 165.444 133.839, 163.107 133.371 C 161.591 133.068, 158.089 133.734, 154.973 134.919 C 148.751 137.284, 148.699 137.295, 149.393 136.173 C 149.895 135.362, 151.785 114.853, 152.359 104 C 152.589 99.644, 152.234 98.032, 150.650 96.250 C 148.255 93.554, 144.954 93.358, 142.223 95.750 M 97.990 102.352 C 88.320 111.489, 66.094 135.731, 64.242 139.161 C 62.263 142.828, 62.154 143.600, 63.357 145.422 C 66.128 149.617, 68.516 148.637, 78.266 139.304 C 83.345 134.443, 90.605 127.773, 94.400 124.482 C 107.468 113.153, 112.291 103.820, 106.453 101.161 C 102.705 99.453, 100.770 99.725, 97.990 102.352 M 201.618 114.319 C 199.881 116.167, 197.905 119.822, 197.156 122.569 C 194.095 133.801, 191.500 140.857, 188.170 147 C 179.702 162.624, 179.876 162.179, 181.359 164.428 C 182.131 165.598, 184.052 166.633, 185.770 166.806 C 188.451 167.076, 189.509 166.289, 194.656 160.197 C 199.394 154.589, 201.200 153.159, 204.199 152.637 C 206.234 152.282, 209.496 151.050, 211.449 149.898 C 213.402 148.745, 215 148.082, 215 148.424 C 215 148.765, 213.456 152.972, 211.569 157.772 C 208.532 165.497, 204.657 177.684, 201.066 190.802 L 199.888 195.105 194.194 189.537 C 189.922 185.360, 187.875 184.036, 186 184.235 C 183.925 184.455, 183.451 185.095, 183.214 188 C 183 190.621, 183.816 192.872, 186.464 196.966 C 188.409 199.973, 190 202.794, 190 203.236 C 190 203.678, 191.169 205.891, 192.597 208.154 C 194.652 211.409, 194.985 212.710, 194.191 214.384 C 193.640 215.548, 192.058 219.650, 190.677 223.500 C 188.357 229.968, 183.509 240.528, 178.971 249 C 176.574 253.475, 176.531 256.266, 178.829 258.345 C 184.173 263.182, 188.468 257.375, 202.708 226.064 L 204.271 222.628 207.776 226.564 C 216.447 236.299, 229.947 249.630, 234.677 253.127 C 237.525 255.233, 240.164 257.457, 240.543 258.070 C 240.922 258.683, 244.892 260.959, 249.366 263.128 C 259.174 267.885, 264.526 268.130, 266.872 263.931 C 268.914 260.275, 267.706 256.393, 264.259 255.533 C 255.687 253.397, 243.488 244.064, 229.065 228.608 C 226.554 225.918, 223.150 222.288, 221.500 220.540 C 215.263 213.937, 210 207.584, 210 206.660 C 210 205.270, 223.864 164.503, 226.556 157.977 C 227.809 154.940, 229.150 149.250, 229.536 145.334 C 230.137 139.235, 230.567 138.063, 232.532 137.167 C 237.710 134.808, 235.845 127, 230.103 127 C 226.534 127, 219.947 129.249, 213.710 132.597 L 208.920 135.169 209.612 132.334 C 209.993 130.775, 210.911 127.756, 211.652 125.624 C 213.501 120.309, 213.290 115.927, 211.056 113.250 C 208.420 110.090, 205.254 110.449, 201.618 114.319 M 98.914 128.820 C 97.078 129.607, 93.256 134.012, 87.047 142.500 C 81.251 150.421, 78.749 153.314, 65.597 167.304 C 59.494 173.797, 53.712 180.540, 52.750 182.289 C 49.743 187.753, 50.710 192, 54.961 192 C 57.024 192, 60.798 189.306, 70.104 181.188 L 82.500 170.376 82.256 187.438 C 82.122 196.822, 81.832 218.900, 81.611 236.500 C 81.272 263.598, 80.905 269.955, 79.212 278 C 77.086 288.104, 77.404 290.359, 81.119 291.538 C 84.354 292.565, 88.249 289.055, 90.147 283.403 C 91.052 280.707, 92.305 273.775, 92.929 268 C 94.271 255.592, 96.434 173.124, 95.541 168.369 C 95.203 166.564, 93.866 164.253, 92.571 163.235 L 90.217 161.383 94.859 155.308 C 97.411 151.967, 101.232 147.167, 103.350 144.642 C 109.506 137.299, 109.831 132.101, 104.316 129.163 C 101.892 127.872, 101.224 127.830, 98.914 128.820 M 162.875 166.458 C 161.535 167.798, 149.237 170.252, 140.372 170.947 C 128.173 171.905, 121.164 175.028, 118.468 180.709 C 116.925 183.960, 116.937 184.236, 118.666 185.546 C 121.689 187.838, 133.369 187.229, 151 183.862 C 161.754 181.808, 170 176.609, 170 171.882 C 170 168.374, 164.867 164.466, 162.875 166.458 M 146.788 189.059 C 145.847 189.607, 143.935 192.331, 142.538 195.110 C 140.147 199.873, 140 201.061, 140 215.689 C 140 230.895, 140.062 231.344, 143.017 237.536 C 146.773 245.405, 150.492 248, 158.015 248 L 163.294 248 171.647 239.552 C 178.150 232.976, 179.997 230.484, 179.985 228.302 C 179.968 225.276, 179.422 224.222, 176.814 222.181 C 174.585 220.436, 172.371 221.653, 166.148 228.041 C 160.859 233.471, 156.899 234.549, 155.035 231.066 C 154.430 229.936, 153.987 221.309, 153.968 210.316 C 153.944 196.256, 153.601 191.058, 152.608 189.750 C 151.121 187.791, 149.329 187.578, 146.788 189.059 M 122.769 192.250 C 121.218 194.640, 119.102 206.929, 116.447 228.980 C 115.555 236.394, 114.414 243.227, 113.912 244.164 C 111.293 249.058, 114.646 254.850, 119.110 253.143 C 125.218 250.808, 127.591 245.078, 131.065 224.275 C 134.563 203.333, 134.646 200.351, 131.890 194.489 C 130.135 190.756, 129.313 190, 127.005 190 C 125.227 190, 123.705 190.808, 122.769 192.250" stroke="none" fill="black" fill-rule="evenodd"/>
</svg>