<svg xmlns="http://www.w3.org/2000/svg" width="300" height="300" viewBox="0 0 300 300" version="1.1">
	<path d="M 172.500 11.161 C 168.650 12.222, 161.450 14.212, 156.500 15.584 C 151.550 16.957, 143.450 19.613, 138.500 21.488 C 133.550 23.363, 124.775 26.312, 119 28.042 C 113.225 29.772, 107.306 31.686, 105.847 32.295 C 102.917 33.518, 100 37.736, 100 40.749 C 100 43.097, 103.077 46.072, 105.638 46.201 C 107.862 46.312, 120.029 42.397, 136.500 36.268 C 147.976 31.998, 154.747 29.888, 163.500 27.855 C 165.700 27.344, 168.315 26.678, 169.311 26.376 C 170.889 25.897, 170.776 26.512, 168.430 31.163 C 164.729 38.500, 152.076 59.835, 151.050 60.469 C 150.590 60.754, 149.914 59.795, 149.549 58.340 C 147.932 51.895, 138.553 41.720, 133.133 40.529 C 127.862 39.371, 123 43.257, 123 48.628 C 123 51.782, 123.415 52.296, 127.377 54.048 C 132.124 56.149, 138.362 62.362, 139.516 66.139 C 139.912 67.438, 140.897 69.253, 141.705 70.174 C 143.011 71.663, 142.876 72.355, 140.491 76.424 C 139.017 78.941, 137.376 81, 136.845 81 C 135.711 81, 129.328 76.213, 121.826 69.737 C 110.770 60.193, 105.225 57, 99.706 57 C 96.379 57, 92 60.264, 92 62.743 C 92 64.654, 95.035 67, 97.507 67 C 99.158 67, 101.583 68.938, 105.547 73.425 C 108.669 76.959, 115.231 83.090, 120.130 87.050 C 129.232 94.408, 129.363 94.652, 125.997 98 C 125.721 98.275, 123.592 100.975, 121.267 104 C 116.290 110.474, 107.669 119, 106.100 119 C 105.495 119, 105 118.295, 105 117.433 C 105 116.572, 103.949 114.434, 102.664 112.683 C 101.379 110.932, 98.133 105.675, 95.451 101 C 88.713 89.257, 85.152 85.600, 80.455 85.600 C 72.168 85.600, 72.095 92.451, 80.249 105.020 C 87.661 116.445, 91.502 121.105, 95.533 123.561 L 98.915 125.623 92.708 129.170 C 84.645 133.778, 80.050 135.216, 74.482 134.873 C 63.414 134.193, 63.090 144.062, 74.083 147.022 C 79.941 148.600, 86.275 147.475, 96.138 143.105 C 110.076 136.929, 119.626 129.212, 132.772 113.500 C 136.913 108.550, 140.648 104.362, 141.072 104.193 C 141.495 104.024, 146.216 107.174, 151.562 111.193 C 156.908 115.212, 163.132 119.868, 165.391 121.540 C 170.768 125.517, 194.205 140.305, 205 146.530 C 209.675 149.227, 214.060 151.975, 214.744 152.639 C 217.046 154.871, 241.694 166.855, 247.385 168.510 C 258.110 171.628, 263.849 167.130, 260.462 158.262 C 258.759 153.801, 253.124 147, 251.132 147 C 249.841 147, 246.444 150.169, 245.861 151.916 C 245.460 153.119, 240.169 151.069, 237 148.483 C 236.175 147.810, 233.250 146.017, 230.500 144.500 C 203.879 129.807, 196.262 124.940, 168.378 104.808 C 162.811 100.789, 157.257 96.825, 156.035 96 C 152.602 93.682, 150 91.337, 150 90.562 C 150 90.175, 151.978 87.078, 154.395 83.679 C 161.223 74.079, 174.518 51.976, 179.356 42.183 C 187.922 24.844, 190.016 15.016, 186 11 C 183.607 8.607, 181.686 8.630, 172.500 11.161 M 143.521 124.572 C 140.338 128.006, 139.016 132.801, 138.992 141 C 138.961 151.310, 138.687 151.774, 132.149 152.563 C 124.546 153.479, 111.874 157.525, 108.643 160.066 C 105.949 162.185, 104.447 161.931, 102.323 158.996 C 100.453 156.413, 93.454 153.669, 90.577 154.391 C 85.631 155.633, 86.167 159.019, 93.168 170.769 C 96.684 176.671, 100.272 182.850, 101.140 184.500 C 110.375 202.056, 114.220 208.878, 115.813 210.536 C 117.665 212.462, 117.660 212.538, 115.598 214.500 C 111.058 218.817, 109.261 221.913, 109.764 224.548 C 110.891 230.442, 118.261 230.006, 128.526 223.440 C 131.475 221.554, 134.134 220.408, 134.435 220.894 C 134.735 221.380, 134.514 223.966, 133.944 226.639 C 133.373 229.313, 132.471 233.521, 131.939 235.990 C 131.406 238.460, 131.177 241.018, 131.429 241.676 C 131.736 242.475, 130.003 243.082, 126.194 243.510 C 117.940 244.437, 109.869 245.778, 98.344 248.140 C 86.102 250.649, 81 253.966, 81 259.418 C 81 261.318, 81.767 263.384, 82.829 264.345 C 84.777 266.108, 90.967 266.594, 92.550 265.108 C 93.946 263.798, 110.863 260.177, 123.500 258.485 C 135.044 256.939, 187.621 254.652, 199.316 255.188 L 206.132 255.500 209.976 267.288 C 214.069 279.840, 215.382 282.419, 219.731 286.451 C 223.092 289.568, 228.853 289.925, 231.345 287.171 C 233.712 284.556, 233.469 283.454, 229.067 276.862 C 223.556 268.609, 219.975 255.542, 217.996 236.465 C 217.446 231.159, 216.097 223.296, 214.998 218.992 C 213.899 214.688, 213 209.747, 213 208.012 C 213 199.910, 204.730 199.615, 201.394 207.599 C 199.298 212.616, 199.938 230.375, 202.526 239 C 202.916 240.299, 200.261 240.500, 182.738 240.500 C 171.607 240.500, 158.113 240.847, 152.750 241.270 C 143.800 241.977, 143 241.895, 142.994 240.270 C 142.991 239.297, 144.229 232.978, 145.744 226.229 L 148.500 213.957 153.500 212.068 C 156.250 211.030, 159.850 209.468, 161.500 208.597 C 163.424 207.582, 165.668 207.231, 167.754 207.619 C 173.308 208.652, 175.505 206.201, 183.255 190.325 C 189.787 176.943, 190.375 175.206, 190.767 168.153 C 191.143 161.372, 190.923 160.101, 188.837 157 C 185.362 151.832, 178.750 148.761, 172.500 149.411 C 169.750 149.697, 164.019 150.224, 159.765 150.582 L 152.030 151.232 152.569 138.866 C 153.145 125.644, 152.708 123.994, 148.258 122.582 C 146.561 122.043, 145.420 122.523, 143.521 124.572 M 161.250 164.745 L 152 165.075 151.993 174.288 C 151.989 179.354, 151.699 186.540, 151.348 190.256 L 150.710 197.012 155.605 195.383 C 167.834 191.312, 168.465 190.813, 171.449 182.835 C 172.957 178.801, 174.436 172.912, 174.735 169.750 C 175.262 164.162, 175.210 164.006, 172.889 164.208 C 171.575 164.322, 166.338 164.564, 161.250 164.745 M 128 168.518 C 125.525 169.254, 121.091 170.536, 118.147 171.365 C 115.202 172.195, 112.566 173.101, 112.287 173.379 C 112.009 173.657, 112.731 175.218, 113.891 176.847 C 115.051 178.476, 116 180.037, 116 180.315 C 116 180.593, 118.019 185.024, 120.487 190.161 C 122.955 195.297, 124.980 200.201, 124.987 201.059 C 124.994 201.916, 125.570 203.397, 126.267 204.350 C 127.458 205.980, 127.846 205.946, 132.743 203.792 L 137.953 201.500 137.976 184.250 L 138 167 135.250 167.089 C 133.738 167.139, 130.475 167.781, 128 168.518" stroke="none" fill="black" fill-rule="evenodd"/>
</svg>