<svg xmlns="http://www.w3.org/2000/svg" width="300" height="300" viewBox="0 0 300 300" version="1.1">
	<path d="M 241.500 47.159 C 232.377 48.062, 223.386 50.013, 208 54.429 C 203.325 55.771, 197.025 57.531, 194 58.341 C 190.975 59.151, 184.450 61.032, 179.500 62.521 C 161.635 67.896, 160.108 68.191, 156.437 66.979 C 152.544 65.694, 149.990 66.249, 147.591 68.900 C 146.018 70.638, 146.059 70.921, 148.273 73.624 C 158.514 86.130, 161.843 119.491, 156.443 155.500 C 155.041 164.850, 153.446 175.835, 152.899 179.910 C 152.352 183.986, 150.059 194.336, 147.805 202.910 C 145.550 211.485, 143.501 220.412, 143.252 222.750 C 143.003 225.087, 142.506 226.995, 142.149 226.989 C 140.924 226.968, 133 197.842, 133 193.359 C 133 191.891, 131.852 189.184, 130.449 187.344 C 127.019 182.847, 122.728 182.691, 120.509 186.983 C 118.056 191.725, 117.617 197.971, 119.330 203.738 L 120.870 208.924 118.080 208.366 C 115.733 207.897, 114.296 208.695, 109.019 213.404 C 105.570 216.482, 102.348 219, 101.858 219 C 101.369 219, 98.494 220.643, 95.470 222.652 C 92.445 224.660, 89.722 226.055, 89.419 225.753 C 89.116 225.450, 89.327 223.469, 89.888 221.351 C 91.310 215.979, 92.958 195.712, 93.089 182 C 93.149 175.675, 93.491 168.123, 93.849 165.217 L 94.500 159.935 102.426 156.495 C 113.914 151.509, 121.422 145.984, 121.804 142.233 C 121.977 140.540, 121.455 138.598, 120.598 137.741 C 119.251 136.394, 119.297 136.041, 121.020 134.482 C 123.843 131.927, 130.741 113.496, 131.543 106.366 C 133.410 89.752, 125.138 85.067, 107.073 92.508 C 102.438 94.417, 98.541 95.871, 98.413 95.739 C 97.992 95.305, 101.919 69.573, 102.970 65.884 C 104.818 59.395, 104.295 55.377, 101.293 53.016 C 98.187 50.573, 95.068 50.932, 91.904 54.096 C 89.649 56.351, 87 69.662, 84.753 90.031 L 83.498 101.402 77.499 103.812 C 74.200 105.137, 69.715 107.101, 67.534 108.176 C 63.767 110.032, 63.504 110.042, 62.284 108.374 C 61.578 107.408, 61 105.873, 61 104.964 C 61 102.537, 57.742 100, 54.626 100 C 53.045 100, 50.840 101.069, 49.352 102.557 C 47.227 104.683, 46.892 105.738, 47.373 108.807 C 47.691 110.838, 48.431 119.700, 49.016 128.500 C 50.192 146.171, 52.058 156.730, 55.038 162.574 C 56.117 164.691, 57 167.421, 57 168.640 C 57 171.304, 59.470 174, 61.912 174 C 62.885 174, 66.340 172.695, 69.590 171.100 C 72.841 169.505, 76.556 167.886, 77.846 167.502 L 80.192 166.804 79.605 179.652 C 79.282 186.718, 78.742 200.869, 78.406 211.097 L 77.795 229.695 68.497 232.321 C 51.851 237.023, 42.355 242.809, 39.261 250.134 C 38.385 252.209, 38.463 253.216, 39.631 254.884 C 41.856 258.060, 47.155 257.625, 54.935 253.626 C 58.546 251.770, 66.900 248.590, 73.500 246.560 C 97.039 239.321, 105.392 234.755, 116 223.330 L 122.500 216.329 127 225.415 C 129.869 231.207, 132.163 234.623, 133.329 234.839 C 136.666 235.456, 140.053 233.978, 141.232 231.391 C 142.358 228.919, 142.420 228.904, 143.165 230.918 C 144.257 233.869, 149.937 233.769, 152.740 230.750 C 158.545 224.498, 168.565 180.312, 172.579 143.272 C 173.344 136.205, 172.446 136.709, 186.500 135.458 C 190.350 135.116, 198.048 133.772, 203.608 132.472 C 209.167 131.173, 217.042 129.808, 221.108 129.439 L 228.500 128.769 227.917 204.635 C 227.596 246.361, 226.979 281.980, 226.547 283.789 C 225.040 290.100, 231.746 293.347, 237.287 288.989 C 243.203 284.335, 243.126 285.522, 242.792 204.479 C 242.625 163.791, 242.117 129.744, 241.663 128.819 C 240.996 127.459, 241.570 126.936, 244.670 126.075 C 246.776 125.490, 249.767 125.009, 251.316 125.006 C 252.864 125.003, 258.638 123.792, 264.146 122.314 C 272.108 120.179, 274.995 118.889, 278.231 116.017 C 281.975 112.695, 282.223 112.168, 281.321 109.452 C 280.781 107.829, 279.171 105.841, 277.743 105.036 C 275.388 103.708, 274.745 103.770, 270.823 105.707 C 268.446 106.881, 263.800 108.309, 260.500 108.879 C 246.501 111.300, 234.931 113.053, 226.500 114.030 C 201.463 116.931, 180.401 121.783, 175.862 125.695 C 174.364 126.987, 174.162 126.224, 173.501 116.804 C 172.899 108.225, 171.007 95.450, 168.330 81.898 C 167.846 79.447, 168.097 79.259, 172.658 78.637 C 179.187 77.748, 203.852 71.609, 218 67.353 C 225.979 64.952, 233.174 63.565, 241.500 62.823 C 256.331 61.501, 260.200 60.349, 261.051 57 C 261.400 55.625, 261.236 53.600, 260.686 52.500 C 259.148 49.424, 254.727 45.987, 252.500 46.136 C 251.400 46.209, 246.450 46.670, 241.500 47.159 M 106.275 108.861 C 95.554 113.086, 96.392 111.391, 95.407 130.860 C 94.760 143.642, 94.813 144.196, 96.616 143.658 C 97.652 143.348, 99.737 142.800, 101.250 142.439 C 103.295 141.951, 104 141.174, 104 139.407 C 104 138.100, 105.298 134.886, 106.883 132.265 C 109.640 127.709, 116.443 107.705, 115.805 106.028 C 115.637 105.587, 111.349 106.861, 106.275 108.861 M 73.971 121.536 C 69.862 123.421, 65.868 124.971, 65.096 124.982 C 63.931 124.997, 63.793 127.339, 64.281 138.750 C 65.015 155.900, 65.150 156.319, 69.335 154.544 C 71.076 153.806, 74.344 152.444, 76.598 151.517 L 80.697 149.833 81.368 134.269 C 81.737 125.709, 81.904 118.571, 81.740 118.407 C 81.576 118.243, 78.080 119.650, 73.971 121.536" stroke="none" fill="black" fill-rule="evenodd"/>
</svg>