<svg xmlns="http://www.w3.org/2000/svg" width="300" height="300" viewBox="0 0 300 300" version="1.1">
	<path d="M 193.986 23.282 C 191.136 25.576, 189.301 29.503, 187.997 36.102 L 186.692 42.705 173.188 43.352 C 165.761 43.709, 155.093 44, 149.481 44 L 139.278 44 137.034 36.750 C 134.197 27.586, 132.568 25, 129.632 25 C 124.162 25, 122.043 31.327, 124.844 39.296 C 127.212 46.035, 128.049 45.514, 112.500 46.979 C 106.450 47.548, 98.475 48.300, 94.777 48.648 C 88.124 49.276, 86.040 50.413, 84.727 54.135 C 84.410 55.035, 84.817 56.722, 85.632 57.885 C 86.891 59.682, 88.125 60, 93.847 60 C 97.550 60, 105.622 59.299, 111.785 58.442 C 117.948 57.585, 124.890 57.023, 127.213 57.192 C 131.712 57.520, 131.640 57.416, 133.469 66.250 C 133.893 68.299, 134.631 69, 136.364 69 C 139.935 69, 142 65.980, 142 60.757 L 142 56.171 149.250 55.600 C 153.238 55.287, 162.632 54.899, 170.128 54.740 L 183.755 54.450 181.659 58.766 C 179.299 63.623, 180.042 66.254, 183.935 66.830 C 186.715 67.242, 189.216 65.026, 192.655 59.103 C 194.124 56.571, 195.816 54.169, 196.413 53.765 C 197.011 53.361, 206.287 53.024, 217.027 53.015 C 233.065 53.003, 236.952 52.722, 238.777 51.443 C 241.773 49.345, 241.653 45.474, 238.529 43.427 C 236.426 42.049, 233.331 41.860, 217.704 42.154 L 199.350 42.500 200.148 38.236 C 200.586 35.890, 201.407 33.107, 201.972 32.051 C 203.685 28.851, 203.216 24.186, 201.066 23.035 C 198.530 21.678, 195.863 21.771, 193.986 23.282 M 159.573 64.570 C 157.497 66.646, 156.533 70.716, 157.750 72.263 C 158.286 72.943, 159.012 74.707, 159.364 76.182 C 159.864 78.277, 159.587 78.996, 158.098 79.469 C 155.710 80.227, 137.089 81.674, 113 82.974 C 86.605 84.399, 81.188 85.461, 79.631 89.520 C 78.793 91.703, 83.601 95.998, 86.896 96.009 C 101.853 96.060, 169.197 90.547, 221.692 84.976 C 226.747 84.439, 232.469 84, 234.406 84 C 239.883 84, 242.037 78.154, 237.931 74.437 C 235.269 72.028, 223.446 71.977, 207 74.303 C 191.260 76.530, 177.991 78, 173.637 78 L 170 78 170 72.955 C 170 68.931, 169.503 67.412, 167.545 65.455 C 164.724 62.633, 161.831 62.312, 159.573 64.570 M 197 99.988 C 189.144 101.024, 174.851 104.760, 170.344 106.954 C 167.742 108.220, 166.116 108.507, 165.310 107.840 C 164.656 107.299, 162.871 107.001, 161.342 107.178 C 157.069 107.673, 156.179 112.232, 158.478 121.854 C 160.850 131.780, 162.337 134.213, 165.789 133.810 C 169.669 133.358, 171.209 129.737, 170.491 122.750 L 169.901 117 173.200 116.994 C 175.015 116.991, 178.125 116.537, 180.111 115.986 C 187.129 114.036, 202.396 111, 205.179 111 C 206.731 111, 208 111.514, 208 112.143 C 208 112.771, 204.850 116.307, 201 120 C 197.150 123.693, 194 127.433, 194 128.312 C 194 129.385, 192.769 130.105, 190.250 130.506 C 188.188 130.834, 183.708 131.754, 180.294 132.551 C 176.881 133.348, 172.774 134, 171.167 134 C 164.989 134, 164.563 140.084, 170.564 142.591 C 175.544 144.672, 182.602 144.313, 191.999 141.500 C 202.972 138.216, 205.299 136.677, 204.569 133.184 C 204.087 130.875, 204.601 130.103, 208.254 127.654 C 218.188 120.996, 222.790 109.785, 218.053 103.784 C 214.601 99.411, 209.010 98.403, 197 99.988 M 106.500 109.159 C 98.910 111.365, 96 113.294, 96 116.120 C 96 119.487, 99.628 120.284, 112.674 119.782 C 119.453 119.521, 125 119.608, 125 119.975 C 125 120.343, 121.704 122.529, 117.675 124.834 C 105.989 131.521, 103.401 134.910, 106.440 139.549 C 107.863 141.720, 108.764 142, 114.336 142 C 118.893 142, 121.986 141.348, 125.563 139.633 C 128.278 138.332, 131.511 136.952, 132.748 136.567 C 135.360 135.753, 136.744 131.602, 135.074 129.590 C 134.173 128.503, 134.567 127.502, 136.910 124.938 C 143.263 117.982, 143.224 112.761, 136.793 109.349 C 131.698 106.646, 115.498 106.544, 106.500 109.159 M 86.441 113.419 C 85.027 114.454, 84.508 116.014, 84.529 119.169 C 84.577 126.459, 93.451 142, 97.565 142 C 99.176 142, 101.997 139.258, 102.010 137.679 C 102.016 137.030, 101.061 133.575, 99.888 130 C 94.352 113.126, 91.557 109.679, 86.441 113.419 M 123.571 144.571 C 122.538 145.605, 122 147.958, 122 151.441 L 122 156.738 118.250 157.358 C 116.188 157.699, 110.900 157.985, 106.500 157.995 C 97.161 158.014, 91.395 159.365, 88.250 162.270 C 85.213 165.076, 85.417 166.675, 89.101 168.915 C 92.194 170.796, 92.196 170.803, 89.851 171.515 C 86.655 172.487, 83 175.974, 83 178.052 C 83 181.848, 85.293 182.270, 103.756 181.878 L 121.500 181.500 122.089 186.500 C 122.413 189.250, 123.002 192.230, 123.397 193.122 C 124.471 195.545, 121.097 196.033, 98.790 196.681 C 81.212 197.192, 78.897 197.457, 77.382 199.131 C 74.556 202.253, 76.860 205.584, 83.136 207.448 C 89.288 209.275, 95.688 209.403, 106.704 207.920 C 121.857 205.881, 121.866 205.611, 106.260 221.591 C 98.692 229.341, 90.475 237.477, 88 239.672 C 85.525 241.866, 80.013 247.333, 75.750 251.820 C 67.299 260.716, 65.863 264.426, 70.428 265.571 C 74.308 266.545, 77.073 265.131, 84.024 258.615 C 87.612 255.252, 93.643 250.076, 97.426 247.113 C 103.299 242.514, 104.207 242.076, 103.633 244.113 C 100.899 253.836, 100.046 261.739, 101.135 267.275 C 103.804 280.853, 115.291 281.477, 127.788 268.723 C 133.086 263.316, 133.787 259.378, 129.853 257.123 C 127.347 255.686, 127.008 255.762, 123.492 258.553 C 121.449 260.174, 118.366 262.523, 116.639 263.773 L 113.500 266.046 113 252.172 C 112.690 243.567, 112.045 237.751, 111.302 236.859 C 110.318 235.677, 112.309 233.083, 122.456 222.324 C 129.249 215.122, 135.316 208.277, 135.939 207.114 C 136.846 205.419, 138.004 205.002, 141.785 205.008 C 147.192 205.018, 165.431 203.538, 184.871 201.514 C 196.198 200.334, 198.606 199.779, 200.621 197.886 C 201.930 196.657, 203 195.034, 203 194.280 C 203 192.266, 198.169 187.778, 196.867 188.582 C 195.574 189.382, 170.816 191.898, 163.642 191.959 C 158.818 192, 158.789 191.980, 159.542 189.250 C 159.959 187.738, 160.571 184.700, 160.900 182.500 L 161.500 178.500 171.500 177.898 C 194.473 176.515, 201.285 175.305, 202.397 172.408 C 203.322 169.997, 201.989 168.213, 198.101 166.657 C 195.010 165.420, 192.096 165.313, 181.428 166.042 C 163.323 167.280, 160.754 167.242, 161.245 165.750 C 161.471 165.063, 162.746 164.387, 164.078 164.249 C 182.074 162.386, 203.076 158.486, 204.138 156.811 C 206.866 152.509, 202.990 148.602, 196.242 148.853 C 193.634 148.950, 190.825 149.227, 190 149.469 C 189.175 149.710, 183.775 150.406, 178 151.015 C 172.225 151.624, 166.585 152.344, 165.466 152.615 C 163.861 153.004, 163.071 152.288, 161.714 149.214 C 160.769 147.072, 158.921 144.829, 157.606 144.230 C 155.595 143.314, 154.881 143.497, 153.108 145.385 C 151.949 146.619, 151 148.580, 151 149.743 C 151 152.517, 148.435 155, 145.568 155 C 144.309 155, 141.191 155.286, 138.640 155.636 C 134.193 156.245, 134 156.168, 134 153.785 C 134 150.602, 131.996 144.719, 130.586 143.765 C 128.742 142.518, 125.221 142.922, 123.571 144.571 M 138 166.731 C 133.711 167.235, 131.496 169, 135.153 169 C 140.751 169, 150 167.665, 150 166.858 C 150 166.004, 144.668 165.948, 138 166.731 M 110.728 169.722 C 112.503 169.943, 115.653 169.946, 117.728 169.730 C 119.802 169.513, 118.350 169.333, 114.500 169.328 C 110.650 169.324, 108.952 169.501, 110.728 169.722 M 147.500 179.697 C 146.400 179.805, 142.463 180.178, 138.750 180.526 C 132.258 181.135, 132 181.261, 132.006 183.830 C 132.009 185.298, 132.480 188.188, 133.053 190.250 C 134.046 193.827, 134.288 193.999, 138.297 193.985 C 144.577 193.963, 147.207 192.200, 148.732 186.991 C 150.379 181.366, 150.054 179.446, 147.500 179.697 M 164.768 217.314 C 162.166 219.066, 160.028 220.864, 160.018 221.309 C 159.976 223.176, 151.168 231.367, 147.180 233.249 L 142.859 235.286 138.180 230.826 C 132.129 225.059, 128.257 223.315, 126.161 225.411 C 123.958 227.613, 125.402 230.053, 134.886 240.160 C 148.595 254.770, 179.540 275.315, 202.500 285.051 C 217.642 291.472, 228.826 293.873, 234.648 291.951 C 241.552 289.673, 239.368 283.718, 231.190 282.525 C 221.526 281.115, 202.446 273.258, 186 263.918 C 180.423 260.750, 160.506 247.573, 156.087 244.127 L 153.673 242.245 155.883 241.063 C 157.098 240.413, 161.559 236.714, 165.796 232.843 C 170.033 228.973, 175.188 224.940, 177.250 223.883 C 182.079 221.406, 182.425 217.788, 178.050 215.526 C 173.680 213.266, 170.055 213.754, 164.768 217.314" stroke="none" fill="black" fill-rule="evenodd"/>
</svg>