<svg xmlns="http://www.w3.org/2000/svg" width="300" height="300" viewBox="0 0 300 300" version="1.1">
	<path d="M 80.542 33.739 C 79.145 35.245, 77.309 38.563, 76.462 41.113 C 74.905 45.801, 73.090 69.705, 73.031 86.301 L 73 95.102 69.250 96.689 C 67.188 97.562, 62.350 99.099, 58.500 100.105 C 54.650 101.111, 50.536 102.214, 49.357 102.556 C 47.577 103.072, 47.021 102.593, 46.078 99.736 C 43.931 93.230, 37.837 89.644, 34.169 92.727 C 31.557 94.921, 29.007 103.768, 30.687 104.806 C 33.331 106.441, 37.997 140.142, 37.999 157.628 C 38 169.020, 38.122 169.247, 45.244 171.040 C 49.518 172.116, 50.552 171.994, 56.231 169.747 C 59.679 168.382, 64.219 166.954, 66.321 166.574 C 68.423 166.194, 70.847 165.612, 71.709 165.281 C 73.117 164.741, 73.237 167.880, 72.888 196.090 L 72.500 227.500 76.686 227.804 C 81.908 228.184, 82.298 227.540, 85.139 213.811 C 86.752 206.016, 87.422 198.164, 87.886 181.633 L 88.500 159.767 93.968 157.633 C 105.692 153.059, 114.482 138.956, 118.358 118.500 C 118.671 116.850, 119.629 112.214, 120.488 108.197 C 122.450 99.016, 121.350 94.009, 116.330 89.274 C 113.167 86.292, 112.298 86, 106.585 86 C 102.915 86, 97.899 86.831, 94.492 88.003 C 91.291 89.104, 88.459 89.793, 88.200 89.533 C 87.374 88.707, 90.007 43.722, 91.207 38.170 C 92.523 32.075, 91.813 31.042, 86.290 31.015 C 84.064 31.005, 82.303 31.839, 80.542 33.739 M 237.752 35.517 C 230.376 38.226, 199.271 44.152, 187 45.185 C 175.459 46.157, 171.292 46.535, 168.386 46.871 C 167.774 46.942, 166.065 48.208, 164.588 49.685 C 158.859 55.414, 164.379 62.005, 174.898 61.994 C 183.180 61.985, 215.283 56.820, 233.318 52.594 L 239.137 51.231 238.599 54.865 C 238.304 56.864, 237.808 61.650, 237.497 65.500 C 236.417 78.874, 235.951 81.195, 234.463 80.624 C 233.698 80.331, 230.469 80.794, 227.286 81.653 C 218.912 83.915, 214.158 85.034, 208.500 86.075 C 205.750 86.581, 201.700 87.395, 199.500 87.883 C 176.448 93.004, 167.158 95.358, 165.321 96.545 L 163.141 97.953 163.698 87.227 C 164.193 77.692, 164.045 76.243, 162.365 74.184 C 160.728 72.179, 160.102 72.011, 157.684 72.930 C 151.796 75.168, 148.980 87.659, 143.803 134.500 C 142.019 150.645, 142.067 224.599, 143.867 232.500 C 146.247 242.946, 152.578 253.696, 158.002 256.501 C 164.963 260.101, 175.667 256.521, 183.228 248.066 C 188.176 242.532, 198.671 225.183, 200.448 219.600 C 200.949 218.025, 203.397 219.994, 214.776 231.124 C 235.332 251.228, 249.829 262.234, 264.500 268.872 C 272.330 272.415, 275.664 273.400, 279.864 273.413 C 284.626 273.427, 285.543 273.076, 288.038 270.283 C 292.506 265.283, 289.531 259.990, 282.373 260.204 C 271.908 260.517, 238.473 235.105, 212.944 207.437 C 206.264 200.197, 206.279 200.398, 212.213 197.404 C 220.784 193.080, 225.579 189.151, 230.551 182.379 C 235.992 174.968, 241.323 170, 243.835 170 C 248.153 170, 249.427 164.427, 245.912 160.912 C 242.041 157.041, 238.050 156.006, 233.262 157.630 C 228.269 159.323, 225.841 161.593, 220.691 169.384 C 218.596 172.553, 214.771 177.169, 212.191 179.641 C 206.898 184.713, 198 190.532, 198 188.921 C 198 185.724, 186.936 173.052, 181.846 170.420 C 174.502 166.623, 170.810 171.995, 175.918 179.045 C 177.613 181.385, 179 183.795, 179.001 184.400 C 179.003 186.954, 185.079 198.004, 190.021 204.442 C 193.334 208.758, 194.884 211.539, 194.119 211.794 C 192.755 212.248, 192.685 212.327, 187.008 219.721 C 184.804 222.592, 183 225.305, 183 225.751 C 183 227.276, 171.644 239.133, 168.749 240.630 C 166.538 241.773, 165.529 241.854, 164.466 240.972 C 161.972 238.902, 159.283 229.683, 158.587 220.817 C 156.988 200.421, 158.564 122.283, 160.753 113.500 C 161.440 110.741, 161.861 110.493, 166 110.412 C 172.175 110.291, 181.423 108.434, 210.263 101.521 C 218.383 99.574, 227.270 97.129, 230.013 96.087 C 232.756 95.045, 235.229 94.561, 235.507 95.012 C 236.062 95.909, 233.469 115.680, 232.165 120.500 L 231.353 123.500 230.685 120.166 C 229.642 114.964, 226.342 111, 223.054 111 C 219.365 111, 217.768 113.089, 218.142 117.427 C 218.309 119.367, 218.008 121.359, 217.473 121.853 C 216.045 123.173, 204.484 126.636, 197 127.985 C 187.662 129.668, 170.361 133.878, 167.587 135.142 C 162.638 137.397, 161.524 144.694, 165.635 147.927 C 168.759 150.385, 170.681 150.471, 178 148.480 C 181.025 147.657, 186.650 146.527, 190.500 145.968 C 205.931 143.728, 221.953 138.047, 226.960 133.040 C 229.028 130.972, 229.239 130.944, 230.439 132.586 C 232.565 135.493, 237.860 134.840, 241.043 131.278 C 248.379 123.068, 253.956 94.811, 255.532 57.870 C 256.240 41.294, 255.871 39.205, 251.633 35.772 C 249.072 33.697, 243.011 33.586, 237.752 35.517 M 98 103.462 C 95.525 104.190, 92.263 105.067, 90.750 105.411 L 88 106.038 88 125.126 C 88 142.909, 88.120 144.165, 89.750 143.505 C 90.713 143.115, 92.680 142.367, 94.122 141.844 C 97.465 140.632, 99.496 135.842, 101.024 125.569 C 101.673 121.207, 102.777 115.357, 103.477 112.569 C 106.187 101.783, 106.171 101.995, 104.269 102.070 C 103.296 102.108, 100.475 102.735, 98 103.462 M 62.045 115.075 C 57.395 116.684, 52.731 118, 51.680 118 C 49.933 118, 49.834 118.493, 50.524 123.750 C 50.938 126.912, 51.553 134.675, 51.889 141 L 52.500 152.500 55.500 152.233 C 57.150 152.086, 61.763 151.268, 65.750 150.415 L 73 148.864 73 130.432 C 73 116.313, 72.708 112.018, 71.750 112.075 C 71.063 112.117, 66.695 113.467, 62.045 115.075 M 110.979 197.250 C 109.370 200.974, 108.567 205.203, 108.216 211.804 C 107.801 219.617, 107.477 221.013, 106.194 220.521 C 105.321 220.186, 103.128 221.152, 101.083 222.771 C 94.912 227.657, 85.287 230.480, 59.573 234.945 C 53.119 236.066, 46.365 237.682, 44.566 238.536 C 40.398 240.514, 34.777 245.768, 33.371 249 C 32.063 252.008, 33.372 255.603, 36.028 256.297 C 38.056 256.827, 37.478 256.954, 67.500 249.412 C 96.573 242.109, 101.128 240.520, 106.471 235.817 L 110.901 231.917 111.962 236.209 C 114.514 246.522, 115.384 248.584, 118.500 251.700 C 122.589 255.789, 126.266 256.050, 128.644 252.421 C 130.244 249.979, 130.220 249.379, 128.192 241.171 C 124.671 226.923, 121 205.880, 121 199.950 C 121 193.766, 119.872 192, 115.923 192 C 113.649 192, 112.906 192.789, 110.979 197.250" stroke="none" fill="black" fill-rule="evenodd"/>
</svg>