<svg xmlns="http://www.w3.org/2000/svg" width="300" height="300" viewBox="0 0 300 300" version="1.1">
	<path d="M 203.121 23.114 C 198.881 27.271, 195.796 32.363, 194.669 37.066 C 194.095 39.461, 193.461 39.712, 185.164 40.816 C 180.274 41.467, 174.200 42, 171.667 42 C 169.133 42, 162.434 42.644, 156.780 43.432 C 151.126 44.219, 142.393 45.131, 137.374 45.458 C 127.121 46.127, 127.044 46.070, 127.014 37.807 C 127.004 35.134, 126.386 33.683, 124.777 32.557 C 121.566 30.307, 119.436 30.630, 116.994 33.735 C 115.288 35.903, 114.910 37.536, 115.171 41.611 L 115.500 46.752 108.099 47.376 C 104.029 47.719, 96.154 48.014, 90.599 48.032 C 79.547 48.067, 76.592 49.172, 77.170 53.057 C 77.365 54.368, 78.931 56.053, 81 57.175 C 84.131 58.875, 86.374 59.045, 102.263 58.788 C 122.407 58.461, 121.231 57.945, 121.231 67.125 C 121.231 72.404, 122.633 74.341, 126.083 73.827 C 129.549 73.310, 132.233 67.448, 131.612 61.750 C 131.327 59.137, 131.186 56.972, 131.297 56.937 C 131.867 56.759, 155.463 54.957, 169.500 54.019 C 178.300 53.431, 186.287 52.705, 187.250 52.407 C 188.319 52.076, 189 52.389, 189 53.211 C 189 55.150, 183.971 66.717, 180.750 72.186 C 179.238 74.755, 178 77.093, 178 77.383 C 178 77.672, 176.813 79.096, 175.363 80.546 L 172.726 83.184 170.322 80.592 C 167.383 77.422, 166.812 77.397, 163.442 80.297 C 160.960 82.431, 160.755 83.226, 160.535 91.547 C 160.405 96.471, 159.954 112.200, 159.534 126.500 C 158.776 152.268, 158.788 152.520, 160.924 154.750 C 162.108 155.988, 164.073 157.007, 165.289 157.015 C 166.505 157.024, 168.175 157.469, 169 158.005 C 170.209 158.791, 168.315 161.108, 159.250 169.939 C 150.665 178.302, 148 181.509, 148 183.474 C 148 186.438, 151.340 188.223, 155.143 187.291 C 159.601 186.199, 175.805 172.890, 180.314 166.618 C 181.630 164.786, 181.745 164.785, 184.583 166.576 C 186.187 167.588, 189.571 170.529, 192.101 173.112 C 194.632 175.695, 198.501 178.725, 200.699 179.846 C 202.896 180.967, 205.449 183.036, 206.370 184.442 C 209.931 189.876, 216.940 186.557, 215.524 180.107 C 214.332 174.682, 198.181 162.160, 189.250 159.738 C 182.635 157.944, 184.346 153.778, 192.230 152.479 C 194.579 152.093, 197.924 151.191, 199.663 150.475 C 202.656 149.245, 202.859 149.304, 203.429 151.572 C 203.798 153.044, 205.017 154.217, 206.587 154.611 C 208.608 155.118, 209.846 154.572, 212.497 152.003 C 218.564 146.122, 219.437 141.587, 219.805 114.023 C 220.171 86.647, 219.579 82.507, 214.715 78.414 C 211.837 75.992, 211.227 75.894, 200.850 76.190 C 194.880 76.361, 189.997 76.427, 189.998 76.337 C 189.999 76.248, 191.533 73.846, 193.407 71.001 C 195.281 68.155, 198.079 62.578, 199.624 58.607 L 202.433 51.387 215.439 50.147 C 228.872 48.866, 232 47.690, 232 43.916 C 232 39.894, 229.426 39, 217.847 39 L 206.837 39 208.827 35.750 C 211.447 31.472, 213.299 24.327, 212.556 21.366 C 211.631 17.682, 207.971 18.360, 203.121 23.114 M 122 79.637 C 110.871 82.436, 108.432 83.475, 105.250 86.774 C 103.186 88.913, 102 89.594, 102 88.639 C 102 87.813, 100.662 86.183, 99.026 85.019 C 96.736 83.388, 95.614 83.136, 94.144 83.923 C 91.307 85.441, 91.002 87.024, 90.980 100.332 C 90.969 107.024, 90.500 115.650, 89.937 119.500 C 89.374 123.350, 88.512 132.072, 88.023 138.883 C 87.534 145.694, 86.653 151.747, 86.067 152.333 C 84.685 153.715, 84.696 157.296, 86.087 158.687 C 86.870 159.470, 86.870 159.962, 86.087 160.446 C 84.462 161.450, 84.776 166.633, 86.570 168.427 C 87.433 169.291, 89.233 170.271, 90.570 170.607 C 94.162 171.508, 94.155 171.524, 86.313 180.371 C 83.366 183.697, 82.745 188.735, 85.095 190.260 C 87.994 192.140, 91.507 190.156, 99.665 182.031 C 104.100 177.614, 107.998 174, 108.327 174 C 108.655 174, 111.583 176.372, 114.831 179.271 C 120.192 184.054, 133.247 190.697, 142.750 193.477 C 146.810 194.664, 149.151 193.206, 148.807 189.705 C 148.487 186.449, 145.300 183.679, 136.500 179.009 C 134.300 177.842, 130.250 175.577, 127.500 173.977 C 124.750 172.376, 120.294 170.318, 117.597 169.402 L 112.695 167.738 118.520 165.368 C 121.723 164.064, 125.090 162.323, 126.001 161.499 C 126.912 160.675, 128.881 160, 130.376 160 C 133.861 160, 137.389 156.222, 139.034 150.730 C 140.787 144.879, 141.623 86.919, 140.010 83.025 C 137.925 77.991, 132.559 76.981, 122 79.637 M 172 96.019 L 172 106.038 174.750 105.424 C 176.262 105.086, 179.403 104.120, 181.728 103.277 C 186.461 101.562, 191.661 101.252, 197.250 102.352 C 200.714 103.034, 201 103.353, 201 106.532 C 201 109.524, 200.540 110.165, 197.475 111.446 C 195.537 112.256, 192.274 113.230, 190.225 113.610 C 188.176 113.991, 184.475 115.229, 182 116.363 C 179.525 117.496, 176.150 118.666, 174.500 118.962 C 171.732 119.458, 171.484 119.848, 171.292 124 C 171.178 126.475, 171.328 127.938, 171.626 127.250 C 171.923 126.562, 173.197 126, 174.456 126 C 175.715 126, 180.065 124.925, 184.122 123.612 C 195.425 119.952, 199.743 119.458, 202.062 121.557 C 206.537 125.606, 203.330 129.185, 190.949 133.959 C 182.973 137.035, 176.365 137.801, 173.060 136.032 C 171.501 135.198, 171.167 135.577, 170.637 138.782 C 170.299 140.827, 170.017 143.528, 170.011 144.785 C 170.002 146.700, 170.300 146.910, 171.850 146.080 C 178.307 142.624, 200.877 138.329, 203.947 139.972 C 205.421 140.761, 205.918 140.517, 206.488 138.726 C 207.537 135.431, 208.352 99.974, 207.530 93.394 L 206.821 87.719 198.160 88.371 C 193.397 88.729, 186.744 89.299, 183.375 89.637 C 177.992 90.176, 176.993 89.993, 175.125 88.125 C 173.956 86.956, 172.775 86, 172.500 86 C 172.225 86, 172 90.509, 172 96.019 M 119.500 93.144 C 115.493 94.289, 110.469 95.007, 107.749 94.823 L 102.999 94.500 102.999 103.750 C 103 114.363, 102.398 113.898, 113.493 111.853 C 118.505 110.930, 120.316 110.972, 122.798 112.071 C 127.804 114.287, 127.754 120.380, 122.721 121.447 C 113.020 123.504, 102.335 126.358, 101.550 127.101 C 100.982 127.638, 103.196 128, 107.057 128 C 117.834 128, 123.480 130.597, 122.820 135.248 C 122.523 137.339, 121.855 137.544, 113.500 138.118 C 99.252 139.096, 99.575 138.899, 98.134 147.477 C 97.235 152.826, 96.241 155.487, 94.485 157.242 L 92.072 159.656 97.286 158.941 C 106.787 157.639, 118.766 154.263, 121.217 152.197 C 122.162 151.401, 123.849 150.989, 124.966 151.281 C 126.084 151.573, 127.334 151.292, 127.744 150.656 C 128.914 148.843, 128.677 90.990, 127.500 91.072 C 126.950 91.111, 123.350 92.043, 119.500 93.144 M 127.153 197.750 C 126.554 199.262, 125.532 202.750, 124.882 205.500 C 124.233 208.250, 122.423 213.065, 120.861 216.200 C 117.269 223.410, 115.452 223.987, 96.299 223.994 C 78.895 224.001, 73.035 225.118, 68.943 229.210 C 67.271 230.883, 66.044 232.983, 66.217 233.876 C 66.496 235.314, 68.757 235.483, 85.998 235.353 C 104.214 235.216, 105.333 235.312, 103.435 236.853 C 100.387 239.327, 95.999 246.193, 96.004 248.482 C 96.014 254.228, 100.608 257.618, 119.927 266.135 L 123.354 267.646 116.502 272.573 C 112.734 275.283, 106.964 279.075, 103.680 281 C 100.397 282.925, 97.215 285.288, 96.610 286.250 C 95.174 288.535, 96.770 291.166, 100.370 292.449 C 102.619 293.250, 104.416 292.676, 111.929 288.754 C 116.823 286.200, 124.009 281.652, 127.899 278.646 L 134.972 273.181 148.629 278.678 C 164.753 285.167, 171.662 286.338, 174.873 283.127 C 176.995 281.005, 177.627 277.442, 176.235 275.447 C 175.831 274.868, 172.800 273.443, 169.500 272.282 C 166.200 271.120, 159.400 268.434, 154.389 266.312 L 145.278 262.454 150.093 256.079 C 152.741 252.573, 156.528 246.621, 158.508 242.852 L 162.109 236 175.805 235.993 C 196.641 235.984, 228.734 233.127, 233.125 230.891 C 235.600 229.631, 236.038 226.268, 234.047 223.810 L 232.279 221.626 209.390 222.832 C 196.800 223.495, 182.202 224.029, 176.948 224.018 L 167.396 224 168.349 218.236 C 169.177 213.231, 169.023 211.840, 167.175 207.664 C 165.427 203.710, 164.645 202.912, 162.783 203.177 C 160.434 203.512, 156.177 210.606, 156.059 214.384 C 156.027 215.420, 155.479 218.008, 154.842 220.134 L 153.683 224 142.342 224 C 136.104 224, 131 223.818, 131 223.595 C 131 223.371, 131.863 221.459, 132.918 219.345 C 135.642 213.886, 138 205.707, 138 201.717 C 138 197.551, 135.453 195, 131.293 195 C 128.896 195, 128.009 195.589, 127.153 197.750 M 118.466 239.146 C 109.855 248.440, 109.573 247.132, 121.228 251.964 C 126.878 254.307, 132.003 256.423, 132.619 256.668 C 133.651 257.079, 145 243.087, 145 241.403 C 145 240.993, 145.747 239.832, 146.661 238.823 C 147.574 237.813, 148.053 236.719, 147.724 236.391 C 147.396 236.063, 141.586 235.569, 134.814 235.293 L 122.500 234.791 118.466 239.146" stroke="none" fill="black" fill-rule="evenodd"/>
</svg>