<svg xmlns="http://www.w3.org/2000/svg" width="300" height="300" viewBox="0 0 300 300" version="1.1">
	<path d="M 154.500 8.969 C 148.430 11.524, 147.161 16.518, 146.001 42.413 C 145.457 54.561, 144.753 67.680, 144.438 71.566 L 143.864 78.632 135.182 81.435 C 130.407 82.976, 123.189 85.558, 119.141 87.174 C 109.882 90.869, 105.961 90.685, 104.798 86.500 C 104.339 84.850, 104.261 76.646, 104.625 68.269 C 105.193 55.181, 105.044 52.403, 103.560 48.519 C 102.181 44.908, 101.356 44, 99.452 44 C 95.470 44, 94.771 47.089, 94.034 67.928 C 93.218 91.040, 93.772 94.715, 98.738 99.074 C 102.293 102.196, 102.418 102.224, 110.915 101.747 C 116.141 101.453, 121.456 100.481, 124.500 99.262 C 130.526 96.848, 143.179 92.846, 143.565 93.232 C 143.717 93.384, 144.163 99.418, 144.556 106.640 L 145.270 119.772 138.885 120.449 C 135.373 120.821, 125.750 122.183, 117.500 123.477 C 109.250 124.771, 96.425 126.346, 89 126.978 C 70.760 128.530, 69.594 128.745, 66.601 131.099 C 64.709 132.588, 64 134.074, 64 136.554 C 64 141.169, 65.997 141.551, 82.338 140.059 C 89.577 139.398, 100.225 138.475, 106 138.007 C 111.775 137.539, 122.033 136.207, 128.795 135.047 C 141.375 132.888, 144.068 133.008, 141.891 135.631 C 141.074 136.616, 140.721 141.247, 140.795 150.017 L 140.904 162.951 135.702 164.531 C 132.841 165.399, 126.826 166.504, 122.337 166.985 C 117.847 167.466, 112.807 168.566, 111.136 169.430 C 107.704 171.204, 105 171.471, 105 170.035 C 105 168.290, 98.830 162, 97.119 162 C 96.198 162, 94.621 162.962, 93.614 164.138 C 91.211 166.944, 91.824 170.453, 96.398 180.086 C 98.379 184.258, 100 187.999, 100 188.400 C 100 188.800, 101.125 191.588, 102.500 194.594 C 103.875 197.600, 105 200.438, 105 200.901 C 105 201.364, 103.450 202.804, 101.555 204.103 C 95.693 208.120, 94.293 214.048, 98.314 217.826 C 101.357 220.684, 104.573 220.582, 106.550 217.563 C 107.431 216.220, 109.573 214.834, 111.324 214.476 C 113.071 214.117, 116.975 213.008, 120 212.010 C 128.824 209.100, 137.984 206.646, 138.364 207.090 C 139.479 208.391, 134.844 228.299, 132.116 233.927 C 128.444 241.501, 128.200 244.501, 131.125 246.067 C 134.118 247.669, 137.361 245.016, 141.604 237.496 C 145.876 229.925, 147.026 227.250, 147.623 223.500 C 147.886 221.850, 148.814 216.832, 149.686 212.348 L 151.271 204.197 156.792 203.507 C 159.829 203.127, 162.986 202.559, 163.809 202.243 C 164.820 201.855, 164.579 202.651, 163.065 204.698 C 160.150 208.641, 160.637 212.157, 164.274 213.431 C 166.862 214.338, 167.553 213.905, 174.611 206.951 C 182.642 199.040, 188.127 191.666, 192.057 183.500 C 195.215 176.937, 195.462 166.766, 192.557 162.943 C 188.243 157.267, 186.212 156.484, 176.370 156.700 C 171.349 156.810, 164.233 157.598, 160.558 158.450 C 156.883 159.303, 153.679 160, 153.438 160 C 153.197 160, 153 155.020, 153 148.934 C 153 142.848, 152.564 137.055, 152.032 136.060 C 150.095 132.441, 155.750 130.172, 172 128.048 C 193.324 125.261, 215.882 121.732, 218.270 120.810 C 219.794 120.222, 222.159 118.411, 223.527 116.786 C 225.941 113.916, 225.964 113.748, 224.313 110.952 C 222.154 107.298, 217.977 106.303, 213.142 108.292 C 211.139 109.115, 204.325 110.259, 198 110.833 C 191.675 111.407, 182.900 112.544, 178.500 113.361 C 164.492 115.961, 156.773 117.107, 156.320 116.653 C 156.078 116.411, 156.196 110.103, 156.584 102.636 L 157.288 89.060 160.394 88.044 C 162.102 87.484, 167.100 86.380, 171.500 85.589 C 175.900 84.797, 181.075 83.832, 183 83.443 C 185.891 82.859, 186.283 82.967, 185.250 84.068 C 182.150 87.371, 185.420 92.606, 189.894 91.501 C 193.203 90.684, 197.663 86.478, 198.421 83.460 C 198.773 82.057, 199.885 81.012, 201.232 80.819 C 202.598 80.623, 203.829 79.447, 204.414 77.777 C 205.207 75.512, 204.997 74.732, 203.172 73.149 C 201.027 71.289, 201.009 71.086, 202.416 64.372 C 203.208 60.593, 204.136 54.575, 204.480 51 C 204.823 47.425, 205.812 41.284, 206.677 37.354 C 208.172 30.562, 208.157 30.080, 206.375 27.635 C 202.590 22.442, 194.685 25.984, 193.575 33.372 C 193.316 35.092, 191.880 44.031, 190.384 53.236 L 187.662 69.973 184.081 70.497 C 176.965 71.540, 161.462 74.180, 159.829 74.627 C 158.290 75.049, 158.183 72.804, 158.477 46.292 C 158.652 30.457, 159.105 16.304, 159.483 14.843 C 160.145 12.284, 158.689 7.933, 157.215 8.063 C 156.822 8.098, 155.600 8.506, 154.500 8.969 M 161.320 171.206 L 153.139 173.278 152.820 181.718 L 152.500 190.157 156.500 189.609 C 158.700 189.308, 163.755 188.766, 167.733 188.403 C 171.712 188.041, 175.346 187.240, 175.809 186.622 C 177.344 184.578, 181 173.864, 181 171.411 C 181 169.135, 180.679 169.004, 175.250 169.067 C 172.088 169.104, 165.819 170.067, 161.320 171.206 M 133.500 177.570 C 130.750 178.335, 126.668 178.970, 124.428 178.981 C 122.189 178.991, 118.220 179.728, 115.610 180.617 L 110.864 182.234 111.548 186.367 C 111.924 188.640, 112.630 191.258, 113.116 192.184 C 113.602 193.111, 114 194.798, 114 195.934 C 114 198.639, 117.456 198.638, 125.500 195.933 C 128.800 194.823, 133.354 193.656, 135.620 193.339 L 139.740 192.764 140.370 186.735 C 141.613 174.840, 141.907 175.231, 133.500 177.570 M 204.989 220.250 C 203.899 222.037, 203.006 224.509, 203.004 225.741 C 203.002 226.974, 201.639 229.283, 199.975 230.873 C 197.195 233.530, 196.207 233.803, 187.725 234.257 C 176.689 234.846, 159.691 239.512, 127 250.926 C 120.675 253.134, 112.452 255.368, 108.727 255.891 C 99.864 257.136, 95.599 259.598, 95.194 263.703 C 94.966 266.017, 95.468 267.215, 97.166 268.404 C 100.118 270.471, 108.622 270.480, 115.912 268.423 C 135.345 262.939, 140.126 261.494, 145.500 259.477 C 160.965 253.673, 180.429 248.987, 195.154 247.523 C 198.813 247.159, 202.638 246.232, 203.654 245.463 C 206.306 243.453, 206.558 243.592, 207.799 247.750 C 208.414 249.813, 209.400 253.124, 209.990 255.109 C 211.381 259.792, 216.494 262.877, 219.869 261.070 C 224.239 258.731, 224.254 256.018, 219.974 241.792 C 217.789 234.525, 216 227.159, 216 225.424 C 216 221.353, 212.597 217, 209.413 217 C 207.731 217, 206.354 218.011, 204.989 220.250" stroke="none" fill="black" fill-rule="evenodd"/>
</svg>