<svg xmlns="http://www.w3.org/2000/svg" width="300" height="300" viewBox="0 0 300 300" version="1.1">
	<path d="M 124.055 10.267 C 118.631 13.012, 115.030 23.756, 115.012 37.250 C 115.005 42.063, 114.848 46, 114.663 46 C 114.477 46, 109.865 46.686, 104.413 47.525 C 98.961 48.363, 89.878 49.472, 84.229 49.988 C 71.645 51.138, 67 53.039, 67 57.041 C 67 60.459, 70.692 63.664, 75.716 64.606 C 77.790 64.996, 84.411 64.392, 91.883 63.133 C 98.843 61.960, 107.117 61, 110.269 61 L 116 61 116 64.459 C 116 66.362, 115.501 71.276, 114.890 75.380 L 113.780 82.843 109.140 83.387 C 98.391 84.649, 91.466 85.130, 73 85.901 C 51.919 86.781, 46.790 87.935, 45.469 92.097 C 44.434 95.360, 47.608 97.552, 55.312 98.894 C 64.851 100.555, 77.617 100.231, 108 97.556 C 123.125 96.224, 144.217 94.604, 154.872 93.956 C 175.900 92.677, 175.938 92.684, 175.997 98 C 176.012 99.375, 177.819 106.105, 180.012 112.956 C 182.206 119.807, 184 126.002, 184 126.723 C 184 127.444, 185.800 133.419, 188 140 C 190.200 146.581, 192 152.438, 192 153.016 C 192 153.593, 193.735 158.663, 195.857 164.283 C 197.978 169.902, 200.283 176.300, 200.980 178.500 C 201.676 180.700, 203.122 184.456, 204.192 186.847 L 206.139 191.195 202.144 201.847 C 199.947 207.706, 196.766 215.287, 195.075 218.694 C 193.384 222.101, 192 225.488, 192 226.221 C 192 226.955, 191.346 228.489, 190.546 229.631 C 189.746 230.773, 187.427 235.035, 185.391 239.103 C 183.356 243.172, 180.707 247.850, 179.505 249.500 C 178.303 251.150, 176.736 253.981, 176.022 255.791 C 175.308 257.601, 172.311 261.143, 169.362 263.662 C 161.389 270.474, 162.362 275.783, 171.397 274.764 C 177.321 274.097, 181.827 270.436, 188.569 260.815 C 194.544 252.288, 209.790 223.269, 211.999 216.220 C 213.525 211.350, 214.363 211.695, 216.402 218.032 C 217.192 220.490, 220.276 228.350, 223.254 235.500 C 235.396 264.649, 245.213 277.481, 256.334 278.734 C 260.123 279.161, 261.139 278.841, 263.866 276.364 C 269.437 271.304, 272.976 251.505, 268.785 248.846 C 266.477 247.382, 262.772 247.957, 260.945 250.064 C 259.961 251.199, 258.356 254.349, 257.380 257.064 C 256.404 259.779, 255.351 262, 255.041 262 C 253.373 262, 245.876 250.704, 242.101 242.500 C 241.088 240.300, 238.851 235.531, 237.130 231.903 C 235.408 228.275, 234 224.842, 234 224.274 C 234 223.706, 232.839 220.600, 231.420 217.371 C 230.001 214.142, 228.447 210.600, 227.965 209.500 C 227.484 208.400, 225.811 204.123, 224.247 199.996 L 221.405 192.492 223.564 186.496 C 226.591 178.089, 229.594 167.980, 232.097 157.765 C 233.374 152.556, 235.562 146.931, 237.517 143.830 C 241.015 138.282, 241.080 137.155, 238.014 135.241 C 235.277 133.532, 232.132 134.983, 228.355 139.696 C 224.686 144.275, 216.004 160.748, 216.002 163.135 C 216.001 164.035, 215.395 166.209, 214.656 167.968 L 213.311 171.165 212.294 168.333 C 209.811 161.417, 206.639 151.990, 204.779 146 C 203.668 142.425, 201.721 136.575, 200.450 133 C 199.180 129.425, 197.450 124.025, 196.607 121 C 195.763 117.975, 193.540 110.213, 191.667 103.750 C 188.955 94.393, 188.556 92, 189.709 92 C 190.505 92, 199.559 90.839, 209.829 89.419 C 220.098 88, 230.972 86.839, 233.994 86.839 C 237.015 86.840, 240.053 86.371, 240.744 85.798 C 242.634 84.229, 242.254 78.533, 240.081 75.861 C 238.256 73.617, 237.649 73.514, 227.831 73.787 C 222.149 73.946, 210.545 74.955, 202.044 76.032 C 193.395 77.127, 186.209 77.609, 185.727 77.127 C 183.417 74.817, 177.998 44.453, 177.576 31.455 C 177.409 26.306, 175.555 20.493, 173.364 18.250 C 171.441 16.281, 167.363 16.784, 164.369 19.359 L 161.627 21.718 163.393 32.609 C 165.164 43.529, 166.515 51.442, 169.576 68.840 C 170.488 74.024, 170.837 78.542, 170.360 78.993 C 169.377 79.922, 127.298 82.632, 126.485 81.818 C 126.191 81.525, 126.637 78.651, 127.476 75.432 C 128.314 72.213, 129 67.208, 129 64.309 C 129 59.649, 129.261 58.983, 131.250 58.566 C 155.212 53.539, 160 51.445, 160 45.995 C 160 41.501, 156.985 40.691, 144.934 41.947 C 139.195 42.545, 133.488 43.261, 132.250 43.537 C 130.026 44.032, 130 43.917, 130 33.329 C 130 27.439, 130.546 19.979, 131.212 16.750 C 132.242 11.764, 132.205 10.741, 130.962 9.956 C 128.980 8.702, 126.969 8.792, 124.055 10.267 M 206.714 24.929 C 203.698 28.512, 202.250 34.909, 204.177 36.131 C 204.905 36.592, 206.882 36.976, 208.570 36.985 C 210.628 36.995, 213.011 38.173, 215.800 40.561 C 225.765 49.091, 235.571 53.029, 238.800 49.800 C 241.204 47.396, 240.063 44.168, 235.270 39.805 C 232.668 37.437, 228.514 33.504, 226.039 31.063 C 216.264 21.427, 211.052 19.772, 206.714 24.929 M 101.040 101.766 C 98.941 103.466, 98.863 104.196, 98.949 121.183 L 99.038 138.833 96.269 139.382 C 94.746 139.684, 91.813 140.172, 89.750 140.466 C 87.688 140.760, 84.439 141.243, 82.530 141.540 C 79.299 142.042, 78.956 141.831, 77.550 138.467 C 75.863 134.427, 72.375 131.084, 69.797 131.033 C 66.828 130.975, 63.190 133.168, 62.598 135.372 C 61.348 140.033, 61.988 144.911, 64.110 146.887 C 65.785 148.448, 66.722 151.886, 68.663 163.580 C 71.119 178.377, 72.839 183.617, 75.588 184.672 C 76.892 185.173, 76.886 185.525, 75.536 187.586 C 73.564 190.596, 73.589 193.443, 75.615 196.535 C 77.684 199.693, 80.067 199.667, 90.641 196.371 C 95.279 194.924, 99.213 193.912, 99.382 194.121 C 99.725 194.544, 98.703 205.909, 97.114 219.347 C 96.388 225.490, 95.103 230.286, 92.912 235.041 C 90.801 239.619, 89.958 242.695, 90.366 244.322 C 90.892 246.419, 90.562 246.838, 87.968 247.356 C 86.313 247.687, 81.530 249.542, 77.339 251.479 C 73.148 253.416, 69.115 255, 68.377 255 C 65.928 255, 58 263.485, 58 266.106 C 58 273.250, 64.211 274.886, 73.259 270.127 C 76.264 268.546, 81.147 266.462, 84.111 265.494 C 87.075 264.527, 89.950 263.414, 90.500 263.021 C 91.050 262.627, 94.425 261.384, 98 260.258 C 101.575 259.131, 110.368 256.363, 117.540 254.105 C 124.712 251.847, 131.150 250, 131.845 250 C 132.541 250, 134.998 249.143, 137.305 248.095 C 144.333 244.905, 145.220 245.030, 147.225 249.500 C 151.738 259.560, 153.247 261.010, 157.594 259.462 C 162.426 257.740, 162.649 256.145, 159.706 244.322 C 158.225 238.370, 156.548 229.675, 155.981 225 C 153.778 206.862, 152.748 202.855, 150.018 201.817 C 147.915 201.017, 147.157 201.278, 145.291 203.448 C 142.017 207.254, 140.757 213.335, 141.150 223.431 L 141.500 232.409 133 234.790 C 128.325 236.099, 120.900 237.985, 116.500 238.980 C 112.100 239.975, 107.082 241.243, 105.349 241.797 L 102.198 242.804 104.664 238.050 C 107.082 233.389, 113.939 202.870, 113.999 196.500 C 114.053 190.776, 115.042 189.061, 118.865 188.056 C 120.864 187.531, 126.065 186.192, 130.423 185.080 C 134.781 183.968, 138.711 182.482, 139.158 181.779 C 140.497 179.669, 140.107 175.775, 138.363 173.849 C 136.830 172.154, 136.972 171.746, 140.613 167.394 C 150.793 155.227, 152.696 150.380, 150.103 143.231 C 148.891 139.889, 147.666 138.533, 144.462 136.981 C 139.730 134.691, 136.110 134.550, 123.875 136.178 C 119.007 136.827, 114.774 137.108, 114.469 136.803 C 114.165 136.498, 113.822 129.780, 113.708 121.874 C 113.503 107.730, 113.454 107.440, 110.631 103.750 C 107.426 99.560, 104.510 98.957, 101.040 101.766 M 122.203 150.244 L 113.906 151.210 114.586 162.355 C 114.960 168.485, 115.358 173.614, 115.470 173.753 C 115.582 173.893, 117.772 173.719, 120.337 173.367 C 124.684 172.772, 125 172.529, 125 169.793 C 125 168.178, 125.563 166.230, 126.250 165.463 C 129.010 162.386, 130.096 160.919, 132.985 156.362 C 138.028 148.410, 138.018 148.404, 122.203 150.244 M 88.836 154.736 L 83.171 155.095 83.720 168.797 C 84.022 176.334, 84.349 182.603, 84.447 182.729 C 84.544 182.855, 88.081 181.730, 92.307 180.229 L 99.990 177.500 99.981 168 C 99.971 156.145, 99.436 153.941, 96.633 154.189 C 95.460 154.293, 91.951 154.539, 88.836 154.736" stroke="none" fill="black" fill-rule="evenodd"/>
</svg>