<svg xmlns="http://www.w3.org/2000/svg" width="300" height="300" viewBox="0 0 300 300" version="1.1">
	<path d="M 240.485 9.489 C 238.827 10.218, 235.465 13.218, 233.014 16.157 C 230.563 19.096, 227.779 22.073, 226.828 22.772 C 225.877 23.472, 224.511 24.597, 223.792 25.272 C 220.927 27.966, 210.669 34.397, 204.758 37.206 C 198.099 40.370, 183.804 45.347, 178 46.522 C 176.075 46.912, 171.066 48.306, 166.869 49.621 C 160.341 51.666, 159.058 52.445, 157.997 55.007 C 156.989 57.441, 157.009 58.306, 158.106 59.628 C 159.526 61.339, 163.501 61.252, 180.500 59.137 C 206.526 55.900, 237.618 37.529, 246.398 20.201 C 249.476 14.127, 249.640 11.889, 247.171 9.655 C 245.042 7.728, 244.519 7.715, 240.485 9.489 M 248.615 42.046 C 247.177 43.755, 246 46.144, 246 47.354 C 246 48.565, 245.405 50.443, 244.678 51.527 C 243.951 52.612, 242.739 55.075, 241.984 57 C 240.734 60.191, 236.566 67.263, 231.842 74.210 C 228.552 79.048, 229.601 82.868, 234.643 84.411 C 237.084 85.158, 240.336 82.331, 248.351 72.496 C 255.577 63.629, 259 56.232, 259 49.487 C 259 43.561, 257.454 40.848, 253.365 39.593 C 251.746 39.097, 250.597 39.690, 248.615 42.046 M 89.770 48.378 C 88.818 49.101, 86.568 52.799, 84.770 56.596 L 81.500 63.500 81.801 80.664 L 82.102 97.828 76.502 99.456 C 73.422 100.352, 68.111 101.325, 64.701 101.618 L 58.500 102.152 56.781 98.326 C 54.384 92.988, 51.591 91.383, 48.372 93.492 C 44.113 96.282, 43.696 99.069, 45.001 116 C 46.731 138.444, 48.668 154.178, 50.085 157.287 C 50.998 159.291, 52.048 160, 54.101 160 C 55.631 160, 57.160 160.450, 57.500 161 C 58.262 162.234, 64.250 162.324, 65.550 161.121 C 66.073 160.637, 68.112 159.727, 70.082 159.099 C 72.052 158.470, 75.424 157.058, 77.576 155.961 C 80.024 154.713, 81.622 154.367, 81.845 155.035 C 82.393 156.678, 79.982 221.220, 79.334 222.269 C 79.020 222.776, 72.791 226.057, 65.492 229.558 C 55.109 234.539, 51.427 236.851, 48.574 240.185 C 44.166 245.334, 43.390 247.951, 45.167 251.676 C 47.041 255.606, 52.569 256.265, 53.917 252.720 C 54.421 251.392, 56.327 249.716, 58.166 248.983 C 60 248.252, 68.250 244.409, 76.500 240.442 C 90.894 233.521, 99.917 228.020, 110.340 219.811 C 113.002 217.715, 115.554 216, 116.012 216 C 116.470 216, 117.388 217.688, 118.053 219.750 C 118.717 221.813, 119.721 224.079, 120.283 224.786 C 120.845 225.494, 122.069 228.415, 123.002 231.278 C 124.453 235.729, 125.175 236.619, 127.990 237.426 C 130.847 238.245, 131.528 238.067, 133.141 236.074 C 134.163 234.812, 134.997 232.591, 134.992 231.139 C 134.983 227.772, 129.879 211.663, 127.800 208.439 C 125.905 205.500, 121.108 188.677, 120.484 182.781 C 119.906 177.311, 119.405 175.946, 117.787 175.432 C 115.197 174.610, 109.471 180.043, 107.896 184.816 C 106.559 188.867, 107.295 196.880, 109.390 201.080 L 110.858 204.022 105.179 207.867 C 102.055 209.981, 97.966 212.499, 96.091 213.463 L 92.683 215.215 93.396 204.358 C 93.789 198.386, 94.516 183.600, 95.012 171.500 C 95.508 159.400, 95.934 149.174, 95.957 148.776 C 96.030 147.537, 101.768 145, 104.496 145 C 108.048 145, 111.181 141.571, 115.581 132.867 C 121.903 120.359, 124.668 105.958, 121.750 100.736 C 116.609 91.538, 108.994 89.228, 97.879 93.493 C 96.464 94.036, 96.204 92.711, 95.801 82.927 C 95.547 76.774, 95.710 69.436, 96.162 66.620 C 97.855 56.080, 98.117 49.846, 96.928 48.413 C 95.470 46.656, 92.059 46.639, 89.770 48.378 M 198.500 60 C 195.409 61.181, 192.750 64.662, 192.750 67.528 C 192.750 70.872, 197.609 76.888, 202.589 79.709 C 207.444 82.459, 216.398 83.744, 218.508 81.994 C 219.328 81.312, 220 79.511, 220 77.990 C 220 75.686, 219.042 74.656, 214.257 71.817 C 211.098 69.943, 208.043 67.466, 207.468 66.312 C 204.905 61.170, 201.574 58.826, 198.500 60 M 154.329 67.163 C 151.903 68.361, 150.654 71.892, 151.672 74.671 C 152.041 75.677, 156.115 80.213, 160.725 84.750 C 168.935 92.831, 169.208 93, 174.030 93 C 178.133 93, 179.218 92.597, 180.537 90.583 C 181.847 88.585, 181.902 87.816, 180.855 86.140 C 180.160 85.026, 178.670 83.858, 177.545 83.545 C 176.420 83.232, 173.475 80.203, 171 76.813 C 164.389 67.760, 159.202 64.758, 154.329 67.163 M 101.500 106.912 L 96.500 108.670 96.220 121.335 L 95.940 134 98.521 134 C 100.575 134, 101.403 133.234, 102.576 130.250 C 103.387 128.188, 104.520 125.669, 105.093 124.654 C 106.395 122.351, 108.703 109.113, 108.215 106.750 C 107.786 104.676, 107.869 104.674, 101.500 106.912 M 204.603 113.593 C 201.360 114.378, 196.732 115.691, 194.318 116.510 C 191.905 117.330, 186.415 118, 182.118 118 C 176.016 118, 173.849 118.396, 172.220 119.809 C 167.046 124.297, 169.566 131.244, 176.811 132.468 C 181.344 133.234, 195.081 131.651, 200.698 129.716 L 204.696 128.339 200.568 134.419 C 195.747 141.520, 193.799 146.096, 193.458 151.117 C 193.323 153.106, 192.715 155.664, 192.107 156.801 C 190.431 159.931, 190.857 170.798, 193.328 188 L 195.555 203.500 189.926 204.173 C 186.830 204.543, 175.567 205.310, 164.898 205.876 C 146.735 206.840, 145.386 207.046, 143.708 209.115 C 141.015 212.436, 141.941 214.212, 148 217.339 L 153.500 220.179 175.250 219.740 C 190.663 219.428, 197.003 219.621, 197.009 220.400 C 197.013 221.005, 197.685 227.125, 198.500 234 C 200.017 246.789, 200.480 263.587, 199.393 266.418 C 198.929 267.627, 197.313 268, 192.544 268 C 187.333 268, 185.212 267.422, 179.706 264.500 C 176.079 262.575, 172.379 261, 171.484 261 C 169.124 261, 167 263.489, 167 266.254 C 167 268.916, 169.150 271.129, 176.329 275.858 C 183.952 280.879, 187.850 282.138, 196.103 282.246 C 205.277 282.366, 208.585 280.511, 212.164 273.243 C 214.293 268.920, 214.486 267.304, 214.344 255 C 214.259 247.575, 213.465 236.144, 212.581 229.597 C 211.697 223.050, 211.115 217.551, 211.289 217.377 C 211.463 217.204, 214.957 216.554, 219.053 215.935 C 223.149 215.315, 232.821 213.501, 240.547 211.904 C 248.273 210.307, 255.956 209, 257.619 209 C 262.192 209, 269.836 206.073, 271.512 203.679 C 273.602 200.695, 273.362 196.638, 270.966 194.470 C 269.027 192.714, 268.714 192.707, 264.216 194.320 C 261.580 195.264, 256.582 196.008, 252.884 196.005 C 249.245 196.002, 240.380 197.109, 233.186 198.465 C 225.991 199.821, 217.746 201.058, 214.863 201.215 L 209.623 201.500 207.143 185 C 205.779 175.925, 204.631 164.416, 204.592 159.425 L 204.521 150.349 208.965 144.925 C 211.410 141.941, 216.232 136.294, 219.681 132.377 C 227.279 123.747, 228.385 121.296, 226.404 117.477 C 225.608 115.944, 224.180 114.099, 223.229 113.376 C 220.987 111.674, 212.107 111.778, 204.603 113.593 M 76.500 114 C 74.850 114.420, 70.004 114.817, 65.731 114.882 C 58.227 114.996, 57.978 115.077, 58.434 117.250 C 58.694 118.487, 59.199 125.703, 59.557 133.284 C 60.303 149.064, 59.061 147.974, 71 143.321 C 74.575 141.927, 78.513 140.395, 79.750 139.915 C 81.923 139.073, 82 138.600, 82 126.021 C 82 112.045, 82.228 112.543, 76.500 114" stroke="none" fill="black" fill-rule="evenodd"/>
</svg>