<svg xmlns="http://www.w3.org/2000/svg" width="300" height="300" viewBox="0 0 300 300" version="1.1">
	<path d="M 151.055 27.267 C 149.710 27.948, 147.769 29.943, 146.742 31.702 C 144.944 34.780, 144.933 35.583, 146.445 53.200 C 147.308 63.265, 148.631 81.062, 149.384 92.748 C 150.806 114.834, 151.346 117, 155.431 117 C 156.634 117, 158.398 117.571, 159.352 118.268 C 160.962 119.446, 160.785 120.184, 156.896 128.518 C 152.476 137.990, 140.188 159.267, 138.810 159.833 C 138.365 160.017, 138 160.571, 138 161.065 C 138 161.559, 135.075 165.963, 131.500 170.852 C 123.204 182.197, 122.927 187, 130.567 187 C 133.224 187, 134.973 185.704, 141.415 178.961 C 145.640 174.539, 151.625 167.001, 154.715 162.211 C 157.805 157.420, 160.472 153.323, 160.642 153.107 C 160.813 152.892, 161.613 153.264, 162.422 153.935 C 163.392 154.740, 166.630 155.044, 171.937 154.828 C 178.712 154.552, 179.913 154.737, 179.550 156 C 179.313 156.825, 178.827 160.200, 178.470 163.500 C 177.274 174.561, 176.552 176.816, 169.653 191 C 165.826 198.867, 155.420 213.779, 154.455 212.778 C 154.307 212.625, 154.849 208.450, 155.658 203.500 C 157.364 193.069, 156.972 189.050, 153.792 184.381 C 149.691 178.356, 144 180.699, 144 188.412 C 144 192.997, 142.953 202.481, 140.364 221.340 C 137.620 241.331, 139.468 249.166, 148.013 253.770 C 152.203 256.027, 153.227 256.152, 163.500 255.652 C 172.708 255.204, 177.718 254.230, 194.257 249.669 C 205.124 246.672, 215.129 243.490, 216.491 242.598 C 221.148 239.547, 220.760 233.815, 215.714 231.115 C 212.884 229.600, 203.338 231.326, 180 237.572 C 165.398 241.480, 156.354 242.357, 153.659 240.128 C 152.490 239.160, 152 237.168, 152 233.378 C 152 228.926, 152.301 227.998, 153.750 227.990 C 156.272 227.977, 168.074 218.836, 172.424 213.527 C 175.481 209.797, 176.723 209, 179.484 209 C 183.731 209, 191.951 212.484, 193.744 215.045 C 194.643 216.328, 196.273 217, 198.485 217 C 205.549 217, 207.524 210.375, 202.163 204.661 C 198.583 200.844, 192.339 197.302, 187.690 196.452 C 184.694 195.904, 184.022 195.407, 184.547 194.127 C 192.567 174.546, 194.086 163.423, 189.552 157.479 C 186.402 153.349, 186.393 153, 189.438 153 C 192.805 153, 203.121 150.526, 211.500 147.708 C 219.870 144.894, 232.232 142.491, 234.287 143.280 C 235.540 143.761, 235.873 150.538, 236.503 188.369 C 237.265 234.051, 236.931 244.967, 234.374 258 C 231.302 273.660, 228.226 279.407, 224.247 276.922 C 223.131 276.226, 221.171 275.991, 219.651 276.373 C 217.351 276.950, 217 277.554, 217 280.930 C 217 284.020, 217.613 285.338, 219.976 287.326 C 224.565 291.188, 228.349 291.605, 233.719 288.842 C 242.306 284.423, 246.427 276.712, 249.419 259.466 C 252.358 242.530, 253.220 221.508, 252.071 194.809 C 251.482 181.130, 251 163.929, 251 156.584 C 251 138.780, 249.533 133.921, 243.241 130.874 C 239.255 128.945, 237.734 128.779, 229.137 129.337 C 223.836 129.681, 217.250 130.677, 214.500 131.551 C 209.333 133.193, 182.182 140.519, 176 141.940 C 174.075 142.382, 171.233 143.252, 169.685 143.872 C 168.137 144.492, 166.542 145, 166.142 145 C 165.742 145, 167.400 140.841, 169.826 135.758 C 172.940 129.237, 174.259 125.180, 174.307 121.977 L 174.375 117.438 184.438 113.509 C 189.972 111.348, 198.466 108.594, 203.313 107.388 C 213.686 104.808, 216.421 102.855, 215.576 98.631 C 214.063 91.064, 203.822 90.401, 186.500 96.749 C 173.145 101.642, 163.602 104.935, 163.401 104.718 C 163.291 104.598, 163.438 99.550, 163.729 93.500 L 164.258 82.500 170.379 82.458 C 173.746 82.434, 180.775 81.880, 186 81.225 C 191.225 80.570, 200.367 80.027, 206.316 80.017 C 212.339 80.008, 218.057 79.505, 219.220 78.882 C 221.271 77.784, 221.297 77.890, 220.661 84.738 C 220.304 88.574, 219.335 93.634, 218.506 95.982 C 216.503 101.659, 216.607 104.335, 218.912 106.420 C 222.011 109.225, 226.008 108.092, 229.210 103.500 C 232.741 98.436, 234.585 91.279, 237.061 73.028 C 238.145 65.037, 239.464 56.700, 239.992 54.500 C 242.406 44.448, 240.534 35.522, 235.168 31.500 C 232.714 29.661, 231.126 29.516, 215.394 29.705 C 202.560 29.859, 194.693 30.524, 183.894 32.366 C 168.453 35.001, 165.214 35.929, 162.705 38.438 C 161.230 39.913, 161.043 39.735, 160.416 36.272 C 159.528 31.371, 157.488 27.401, 155.455 26.621 C 153.481 25.864, 153.969 25.792, 151.055 27.267 M 207 44.210 C 201.225 44.703, 191.775 46.065, 186 47.236 C 172.235 50.026, 164.387 50.566, 162.337 48.865 C 160.913 47.683, 160.810 48.059, 161.333 52.524 C 161.653 55.261, 162.195 60.538, 162.537 64.250 C 162.879 67.963, 163.366 71, 163.619 71 C 163.873 71, 165.868 70.088, 168.053 68.973 C 174.816 65.523, 200.911 63.844, 212.282 66.128 C 215.370 66.748, 218.731 68.032, 219.750 68.982 C 221.541 70.651, 221.680 70.277, 223.932 57.744 C 225.885 46.870, 226.038 44.638, 224.880 43.905 C 223.325 42.920, 221.781 42.946, 207 44.210 M 67.606 68.093 C 65.088 70.894, 62.587 74.832, 62.050 76.843 C 61.234 79.898, 59.004 99.579, 59.001 103.750 C 59 104.613, 57.113 105, 52.901 105 C 47.035 105, 40.417 107.082, 38.765 109.448 C 38.313 110.095, 38.025 109.911, 38.015 108.969 C 37.991 106.540, 31.240 96.387, 28.421 94.540 C 19.427 88.647, 10.591 99.429, 18.446 106.712 C 23.024 110.958, 28.916 124.906, 30.124 134.358 C 30.696 138.836, 30.914 144.392, 30.607 146.704 C 29.993 151.348, 31.628 154, 35.107 154 C 36.738 154, 36.895 154.327, 36.035 155.934 C 34.327 159.126, 34.850 161.736, 37.635 163.927 C 40.978 166.557, 42.263 166.527, 51.469 163.604 L 59.014 161.208 59.425 163.354 C 60.213 167.474, 62.134 221.512, 61.546 223 C 61.219 223.825, 58.193 225.828, 54.820 227.450 C 51.448 229.073, 47.143 231.450, 45.254 232.732 C 43.365 234.014, 39.082 236.444, 35.736 238.133 C 28.009 242.034, 27 243.089, 27 247.274 C 27 254.391, 33.978 256.054, 43.148 251.122 C 46.092 249.539, 51.200 246.789, 54.500 245.011 C 57.800 243.233, 67.444 237.684, 75.930 232.679 C 86.078 226.696, 91.505 224.014, 91.782 224.846 C 92.759 227.777, 98.783 234.551, 101.154 235.385 C 102.565 235.881, 104.907 235.989, 106.360 235.625 C 109.860 234.746, 109.791 232.471, 105.911 220.796 C 103.707 214.164, 102.611 208.524, 102.089 201.117 C 101.494 192.669, 101.009 190.480, 99.487 189.367 C 96.754 187.368, 94.480 187.692, 93.298 190.250 C 90.896 195.450, 87.980 205.750, 87.990 209.005 C 87.999 212.071, 87.592 212.649, 84.750 213.612 C 82.962 214.218, 79.824 215.454, 77.775 216.359 L 74.050 218.006 74.046 187.013 L 74.042 156.019 77.994 154.003 C 84.209 150.833, 89.186 145.334, 88.839 142.024 C 88.624 139.981, 89.520 138.167, 92.219 135.180 C 97.475 129.362, 104.170 115.514, 104.250 110.293 C 104.327 105.369, 103.088 103.595, 97.623 100.808 C 94.275 99.100, 92.447 98.858, 86.556 99.341 C 82.675 99.660, 78.211 100.226, 76.635 100.599 L 73.769 101.277 74.465 93.889 C 74.847 89.825, 76.035 82.103, 77.103 76.728 C 79.258 65.895, 78.721 63, 74.557 63 C 72.971 63, 70.668 64.687, 67.606 68.093 M 80.255 115.509 C 76.820 116.141, 73.767 116.900, 73.471 117.196 C 73.174 117.492, 73.060 122.857, 73.216 129.117 C 73.411 136.936, 73.784 139.874, 74.408 138.500 C 74.908 137.400, 76.825 134.409, 78.668 131.853 C 82.097 127.098, 87.317 116.307, 86.792 115.057 C 86.631 114.674, 83.690 114.878, 80.255 115.509 M 42.366 119.512 C 44.445 124.929, 45.190 131.073, 44.836 139.884 L 44.438 149.784 46.969 148.763 C 48.361 148.201, 51.525 146.991, 54 146.075 L 58.500 144.408 58.781 132.204 L 59.062 120 52.465 120 C 48.837 120, 44.930 119.498, 43.783 118.884 C 41.985 117.921, 41.789 118.008, 42.366 119.512" stroke="none" fill="black" fill-rule="evenodd"/>
</svg>