<svg xmlns="http://www.w3.org/2000/svg" width="300" height="300" viewBox="0 0 300 300" version="1.1">
	<path d="M 234.127 12.547 C 230.746 15.391, 228.495 19.360, 227.495 24.240 C 226.547 28.862, 223.439 39.013, 221.690 43.199 L 220.207 46.748 200.502 47.487 C 184.430 48.090, 180.569 47.975, 179.560 46.863 C 178.879 46.113, 177.336 41.705, 176.132 37.068 C 173.720 27.779, 173.018 26.578, 168.699 24.344 C 166.131 23.016, 165.566 23.006, 164.308 24.263 C 161.400 27.172, 160.285 32.698, 161.278 39.278 C 162.964 50.436, 163.743 49.407, 153 50.211 C 141.380 51.081, 134.670 53.165, 129.776 57.425 C 127.049 59.799, 125.979 61.580, 125.776 64.083 C 125.520 67.258, 125.725 67.522, 128.669 67.807 C 130.411 67.976, 135.136 67.438, 139.169 66.610 C 143.201 65.783, 151.047 64.798, 156.604 64.420 L 166.707 63.734 167.401 68.962 C 167.782 71.837, 167.812 76.070, 167.468 78.368 C 166.712 83.406, 169.120 86.352, 173.563 85.825 C 178.274 85.266, 180.383 81.107, 180.977 71.207 L 181.500 62.500 196.500 61.886 C 204.750 61.548, 211.644 61.392, 211.820 61.539 C 212.169 61.831, 209.295 67.220, 205.441 73.500 C 202.434 78.398, 202.656 81.675, 206.172 84.288 C 208.805 86.245, 208.894 86.247, 212.172 84.382 C 214.339 83.150, 217.943 78.749, 222.500 71.774 L 229.500 61.059 242.282 61.029 C 255.363 60.999, 260.173 59.964, 264.213 56.307 C 266.562 54.181, 266.491 49.754, 264.072 47.566 C 262.416 46.067, 261.254 45.949, 255.822 46.728 C 248.926 47.716, 238 47.287, 238 46.027 C 238 45.593, 239.092 42.338, 240.426 38.794 C 243.679 30.150, 245.605 13.462, 243.583 11.440 C 241.397 9.254, 237.497 9.711, 234.127 12.547 M 70.017 71.985 C 65.500 75.903, 65 78.256, 65 95.614 C 65 108.875, 64.737 112, 63.621 112 C 61.727 112, 51.306 116.813, 46.808 119.766 C 42.708 122.457, 41 122.081, 41 118.488 C 41 113.077, 36.161 106, 32.461 106 C 29.219 106, 25.350 109.501, 24.633 113.084 C 24.287 114.813, 24.644 118.764, 25.425 121.864 C 26.206 124.964, 27.355 132.393, 27.978 138.374 C 29.502 153.005, 33.148 164.511, 37.002 166.855 L 39.884 168.608 36.460 170.451 C 27.089 175.498, 29.380 183, 40.293 183 C 44.644 183, 48.824 181.243, 60.107 174.672 L 64.714 171.989 64.295 184.244 C 63.787 199.058, 61.191 226.259, 60.208 227.062 C 59.199 227.886, 36.309 237.671, 31.364 239.391 C 22.455 242.492, 16 248.418, 16 253.496 C 16 255.758, 20.525 260, 22.937 260 C 24.053 260, 29.136 258.015, 34.233 255.590 C 39.330 253.164, 45.525 250.503, 48 249.676 C 53.162 247.950, 80.943 235.565, 90.909 230.546 C 94.597 228.688, 98.207 226.456, 98.930 225.584 C 99.653 224.713, 100.570 224, 100.968 224 C 101.366 224, 102.677 227.391, 103.881 231.535 C 105.085 235.680, 106.955 239.955, 108.035 241.035 C 110.499 243.499, 114.184 243.559, 116.345 241.171 C 118.242 239.076, 118.387 236.545, 117.051 228.917 C 116.529 225.938, 115.607 220.125, 115.003 216 C 113.364 204.817, 109.191 192.196, 106.893 191.466 C 101.888 189.878, 99 194.773, 99 204.843 C 99 210.858, 98.567 211.247, 85.846 216.648 C 71.699 222.656, 73.143 222.874, 74.641 214.954 C 76.263 206.372, 78 185.392, 78 174.368 L 78 166.027 81.736 164.466 C 86.497 162.477, 90 159.195, 90 156.723 C 90 155.663, 92.029 152.479, 94.509 149.648 C 109.066 133.030, 113.574 125.358, 112.504 119.022 C 111.189 111.238, 105.174 108.711, 90.132 109.625 L 79.282 110.284 79.775 95.762 C 80.322 79.630, 79.830 75.263, 77.112 72.129 C 74.811 69.476, 72.953 69.439, 70.017 71.985 M 204 92.541 C 203.175 92.711, 196.379 93.848, 188.897 95.068 C 176.830 97.036, 174.685 97.694, 169.897 100.893 C 165.099 104.100, 164.465 104.931, 164.182 108.385 L 163.863 112.270 176.682 111.742 C 183.732 111.452, 192.875 110.435, 197 109.483 C 211.079 106.233, 226.280 107.337, 230.418 111.910 C 231.908 113.555, 231.931 114.143, 230.642 117.622 C 225.953 130.282, 223.883 135.423, 221.754 139.691 L 219.369 144.475 210.434 144.653 C 199.082 144.879, 181.057 147.976, 167.809 151.976 C 154.241 156.072, 152.570 156.963, 152.181 160.304 C 151.908 162.653, 152.409 163.274, 155.681 164.647 C 158.687 165.908, 161.416 166.114, 168.500 165.617 C 173.450 165.270, 179.230 164.506, 181.344 163.920 C 183.458 163.334, 185.390 163.057, 185.638 163.305 C 186.104 163.771, 181.716 174.099, 177.696 182 L 175.406 186.500 166.453 187.664 C 161.529 188.304, 154.697 188.867, 151.271 188.914 C 145.840 188.989, 137.919 190.852, 128.845 194.188 C 125.356 195.470, 124.514 198.807, 126.874 202 C 128.707 204.482, 128.832 204.500, 144.110 204.458 C 152.575 204.434, 160.945 204.112, 162.711 203.741 L 165.922 203.066 158.922 213.283 C 155.072 218.902, 148.100 228.450, 143.428 234.500 C 138.755 240.550, 131.986 249.820, 128.385 255.101 C 121.051 265.856, 120.393 269.260, 125.135 271.909 C 127.495 273.228, 128.042 273.202, 130.391 271.664 C 131.832 270.719, 134.697 267.702, 136.756 264.960 C 142.778 256.942, 146.813 251.973, 158.789 237.831 C 169.160 225.584, 181.420 208.563, 184.089 202.703 C 185.048 200.599, 186.281 200.135, 193.843 199.033 C 206.406 197.202, 231.580 191.529, 238.208 189.035 C 243.779 186.939, 249 182.316, 249 179.479 C 249 178.727, 247.914 176.849, 246.586 175.306 C 244.278 172.624, 244.023 172.561, 240.836 173.874 C 239.001 174.630, 234.575 175.849, 231 176.584 C 219.346 178.978, 195.728 183.062, 195.405 182.739 C 195.232 182.565, 195.725 180.641, 196.501 178.462 C 197.277 176.283, 197.932 171.264, 197.956 167.309 C 197.980 163.354, 198.338 159.912, 198.750 159.661 C 199.655 159.110, 212.204 157.225, 220.476 156.397 C 225.687 155.876, 226.894 155.332, 229.899 152.150 C 231.795 150.142, 236.255 142.510, 239.811 135.190 C 245.336 123.813, 246.347 120.884, 246.766 115.028 C 247.219 108.698, 247.037 107.863, 244.378 104.065 C 241.110 99.397, 232.846 94.908, 224.201 93.105 C 219.386 92.101, 207.718 91.775, 204 92.541 M 144.156 95.529 C 141.766 98.568, 140.577 104.738, 141.516 109.228 C 143.110 116.851, 152.301 146.705, 153.760 149 C 154.634 150.375, 156.059 152.036, 156.925 152.691 C 158.538 153.911, 162.577 153.448, 164.672 151.805 C 166.615 150.279, 167.136 143.810, 165.743 138.500 L 164.431 133.500 176.466 133.426 C 187.809 133.356, 211.029 130.875, 219.205 128.860 C 226.591 127.040, 228.580 120.955, 222.887 117.593 C 219.944 115.854, 218.625 115.821, 198.637 116.995 C 187.012 117.677, 173.900 118.745, 169.500 119.368 L 161.500 120.500 158.327 111.500 C 154.150 99.651, 152.652 95.763, 151.683 94.250 C 150.335 92.146, 146.274 92.836, 144.156 95.529 M 81.750 124.716 L 79 125.133 79 136.297 L 79 147.462 82.151 144.311 C 83.884 142.578, 87.440 137.636, 90.053 133.330 C 94.627 125.791, 94.724 125.476, 92.652 124.850 C 90.273 124.131, 85.963 124.078, 81.750 124.716 M 58 130.034 C 54.409 131.631, 49.676 132.941, 47.425 132.962 L 43.351 133 44.785 143.250 C 45.574 148.887, 46.282 156.005, 46.360 159.067 L 46.500 164.633 54.647 160.817 C 59.128 158.717, 63.291 157, 63.897 157 C 64.652 157, 65 152.264, 65 142 C 65 133.750, 64.888 127.033, 64.750 127.072 C 64.612 127.112, 61.575 128.445, 58 130.034 M 188.571 218.571 C 187.707 219.436, 187 220.745, 187 221.482 C 187 225.658, 204.936 243.136, 221.595 255.194 C 227.147 259.212, 234.797 264.744, 238.595 267.488 C 260.561 283.353, 268.336 287.959, 275.722 289.482 C 278.351 290.024, 279.407 289.683, 281.462 287.629 C 285.799 283.292, 282.614 278.602, 269.241 269.634 C 263.884 266.041, 255.675 260.368, 251 257.027 C 246.325 253.686, 233.950 245.188, 223.500 238.143 C 213.050 231.098, 201.838 223.458, 198.584 221.167 C 192.055 216.568, 190.879 216.263, 188.571 218.571" stroke="none" fill="black" fill-rule="evenodd"/>
</svg>