<svg xmlns="http://www.w3.org/2000/svg" width="300" height="300" viewBox="0 0 300 300" version="1.1">
	<path d="M 223 12.491 C 204.447 17.907, 159.969 33.122, 150.908 37.151 C 148.368 38.281, 145.578 40.444, 144.664 41.992 C 143.112 44.619, 143.122 44.929, 144.825 47.032 C 147.663 50.536, 152.580 49.850, 172.939 43.107 C 183.080 39.748, 192.165 37, 193.127 37 C 194.844 37, 202.832 34.639, 220.279 28.973 C 225.393 27.312, 230.774 24.763, 233.170 22.865 C 235.432 21.074, 238.682 18.909, 240.391 18.054 C 244.295 16.103, 244.940 12.771, 241.834 10.597 C 238.681 8.388, 236.198 8.637, 223 12.491 M 243.500 35.732 C 242.400 36.007, 241.275 36.527, 241 36.889 C 240.725 37.250, 239.280 38.322, 237.789 39.271 C 236.150 40.313, 233.733 43.864, 231.678 48.248 C 222.740 67.317, 222.625 67.904, 227.146 71.268 C 229.230 72.817, 230.400 73.043, 232.646 72.330 C 235.025 71.576, 236.499 69.404, 241.500 59.286 C 244.800 52.609, 248.512 46.072, 249.750 44.759 C 252.475 41.867, 252.631 38.881, 250.171 36.655 C 248.325 34.984, 247.145 34.821, 243.500 35.732 M 184.073 48.728 C 180.467 53.102, 180.258 55.625, 183.049 61.096 C 185.879 66.643, 195.825 72.977, 201.727 72.990 C 205.026 72.998, 206.281 72.501, 207.443 70.728 C 209.625 67.398, 208.340 64.389, 203.533 61.572 C 198.300 58.505, 196 55.147, 196 50.570 C 196 43.951, 188.913 42.856, 184.073 48.728 M 139.250 55.641 C 138.563 55.930, 138 56.804, 138 57.583 C 138 58.362, 137.550 59, 137 59 C 135.566 59, 135.767 63.518, 137.369 67.282 C 138.123 69.052, 141.042 72.883, 143.857 75.796 C 151.323 83.521, 158.792 86.097, 162.345 82.171 C 164.869 79.382, 164.360 76.326, 160.951 73.805 C 159.273 72.565, 156.178 69.289, 154.071 66.525 C 151.965 63.761, 149.175 60.293, 147.871 58.818 C 145.482 56.115, 141.561 54.671, 139.250 55.641 M 74.471 68.160 C 68.190 73.674, 63 87.065, 63 97.755 C 63 100.486, 62.717 104.783, 62.372 107.304 L 61.743 111.888 56.122 112.573 C 53.030 112.950, 48.798 114.117, 46.717 115.166 L 42.934 117.075 40.378 114.037 C 35.185 107.866, 29.406 111.681, 30.249 120.724 C 30.494 123.351, 32.308 131.800, 34.281 139.500 C 36.253 147.200, 38.412 156.345, 39.078 159.823 C 40.969 169.700, 44.281 171.555, 54.058 168.217 L 60 166.188 59.998 176.344 C 59.997 181.930, 59.521 195.050, 58.941 205.500 C 57.730 227.335, 58.562 225.614, 46.300 231.668 C 42.339 233.624, 37.244 236.811, 34.976 238.752 C 31.520 241.711, 30.955 242.703, 31.482 244.891 C 32.374 248.600, 34.707 250.003, 39.941 249.978 C 45.340 249.952, 49.714 248.084, 60.500 241.198 C 64.900 238.389, 71.875 233.979, 76 231.399 C 80.125 228.818, 85.831 225.214, 88.680 223.390 L 93.860 220.073 96.454 227.786 C 99.779 237.672, 103.997 245.379, 106.329 245.826 C 110.248 246.578, 112.889 245.061, 113.875 241.492 C 114.938 237.642, 114.407 234.885, 110.351 223.167 C 108.954 219.134, 106.939 212.177, 105.871 207.707 C 103.758 198.858, 101.933 196, 98.396 196 C 95.947 196, 91 201.500, 91 204.222 C 91 205.065, 90.404 206.250, 89.675 206.855 C 88.333 207.968, 70.612 216.983, 70.381 216.670 C 70.312 216.576, 70.877 212.048, 71.635 206.608 C 72.394 201.167, 73.403 188.630, 73.878 178.747 C 74.523 165.318, 75.089 160.551, 76.120 159.880 C 77.420 159.034, 78.536 158.714, 84.421 157.501 C 88.395 156.681, 95.159 150.880, 100.786 143.465 C 111.476 129.379, 113.020 120.365, 105.851 113.895 C 102.021 110.439, 89.854 107.529, 82.432 108.295 L 77 108.855 77.043 105.178 C 77.093 101.009, 81.231 78.636, 83.114 72.357 C 84.185 68.784, 84.135 67.992, 82.750 66.607 C 80.402 64.260, 78.508 64.615, 74.471 68.160 M 206 83.084 C 202.975 83.447, 199.150 84.356, 197.500 85.104 C 193.939 86.719, 182.800 93.743, 182.035 94.855 C 181.741 95.283, 176.775 99.574, 171 104.389 C 165.225 109.205, 159.044 114.800, 157.265 116.823 C 149.972 125.112, 155.727 133.985, 168.634 134.349 C 171.576 134.432, 173.987 134.619, 173.992 134.765 C 173.996 134.910, 172.601 135.880, 170.891 136.920 C 165.460 140.223, 159.180 146.906, 158.470 150.137 C 157.104 156.357, 162.372 161, 170.794 161 C 173.536 161, 179.477 160.298, 183.997 159.441 C 188.517 158.584, 192.472 158.138, 192.785 158.451 C 193.098 158.765, 192.236 160.254, 190.870 161.760 C 186.443 166.644, 183.342 171.366, 179.214 179.511 C 173.619 190.549, 173.340 190.822, 166 192.458 C 148.683 196.315, 135.907 199.831, 133.518 201.396 C 131.574 202.670, 130.961 203.817, 131.190 205.753 C 131.454 207.988, 132.248 208.574, 136.500 209.671 C 143.444 211.463, 150.263 211.287, 158.690 209.098 L 165.880 207.230 163.878 212.365 C 162.777 215.189, 160.170 220.425, 158.086 224 C 156.001 227.575, 152.401 233.896, 150.085 238.048 C 147.769 242.199, 143.878 248.265, 141.437 251.528 C 135.143 259.943, 135.469 266, 142.217 266 C 144.263 266, 146.251 264.729, 149.482 261.357 C 155.608 254.964, 167.080 239.691, 170.969 232.750 C 172.741 229.588, 174.418 227, 174.696 227 C 174.974 227, 178.644 229.690, 182.851 232.978 C 187.058 236.266, 191.699 239.868, 193.164 240.983 C 195.684 242.900, 213.013 252.442, 219.500 255.484 C 226.754 258.886, 244.770 266.173, 247.980 267.004 C 270.698 272.882, 272.245 273.028, 278.701 269.903 C 283.784 267.442, 285.376 264.988, 284.494 260.973 C 283.978 258.624, 283.180 257.937, 280.353 257.406 C 278.225 257.007, 276.409 257.191, 275.725 257.875 C 273.901 259.699, 270.318 259.203, 259.095 255.573 C 246.596 251.531, 243.868 250.407, 224.024 241.126 C 220.155 239.316, 203.227 229.970, 189.607 222.123 C 184.715 219.306, 180.290 217, 179.773 217 C 179.256 217, 178.983 216.638, 179.167 216.196 C 179.350 215.753, 180.778 212.441, 182.340 208.836 L 185.181 202.280 193.840 200.052 C 198.603 198.827, 204.300 197.444, 206.500 196.978 C 211.500 195.920, 228.700 187.562, 231.845 184.662 C 235.934 180.892, 237.335 177.224, 235.957 173.897 C 234.338 169.987, 230.588 170.067, 224.977 174.131 C 222.600 175.854, 218.219 178.340, 215.242 179.656 C 209.609 182.148, 195.352 185.686, 194.477 184.810 C 194.200 184.533, 194.655 182.677, 195.487 180.686 C 196.319 178.694, 197 176.077, 197 174.870 C 197 173.663, 197.750 170.297, 198.666 167.390 C 200.484 161.623, 199.846 159.699, 195.535 157.952 C 193.702 157.209, 193.763 157.120, 196.146 157.063 C 199.865 156.974, 213.237 151.379, 214.792 149.261 C 216.688 146.680, 215.865 142.969, 212.908 140.772 C 210.344 138.866, 210.245 138.868, 203.282 140.983 C 199.099 142.254, 194.337 142.994, 191.533 142.810 L 186.819 142.500 190.659 139.676 C 192.772 138.123, 199.024 133.623, 204.554 129.676 C 213.312 123.425, 219.569 117.991, 233.791 104.287 C 236.602 101.578, 237.076 100.481, 236.813 97.287 C 236.540 93.987, 236.145 93.459, 233.738 93.182 C 231.755 92.954, 229.864 93.817, 227.034 96.239 C 224.867 98.094, 221.835 100.261, 220.296 101.054 C 218.758 101.847, 214.660 104.698, 211.188 107.388 C 206.103 111.329, 203.966 112.353, 200.188 112.656 C 197.610 112.864, 193.250 113.652, 190.500 114.408 C 178.694 117.654, 178.930 117.724, 184 112.498 C 190.057 106.256, 199.896 99.075, 209 94.255 C 216.658 90.200, 218.558 87.582, 216.044 84.553 C 214.468 82.653, 212.274 82.333, 206 83.084 M 79.387 123.673 C 76.377 124.092, 76.253 124.308, 75.637 130.200 C 74.702 139.144, 74.859 145, 76.033 145 C 76.602 145, 79.252 143.892, 81.924 142.539 C 85.394 140.780, 87.605 138.710, 89.668 135.289 C 93.461 128.998, 95.092 125.174, 94.212 124.636 C 92.991 123.889, 82.656 123.217, 79.387 123.673 M 51.500 128.713 C 49.300 129.598, 47.331 130.457, 47.124 130.620 C 46.918 130.784, 47.780 135.893, 49.039 141.974 C 51.539 154.041, 50.948 153.436, 57.750 150.891 C 59.904 150.085, 60 149.560, 60 138.525 C 60 127.225, 59.956 127.001, 57.750 127.052 C 56.513 127.080, 53.700 127.828, 51.500 128.713 M 229.503 131.640 C 225.077 136.066, 224.751 137.482, 225.450 149.242 C 225.818 155.434, 226.591 161.723, 227.167 163.217 C 229.375 168.941, 236.042 167.112, 237.945 160.259 C 239.485 154.712, 239.223 141.115, 237.461 135.182 C 236.164 130.814, 235.547 130, 233.533 130 C 232.218 130, 230.405 130.738, 229.503 131.640" stroke="none" fill="black" fill-rule="evenodd"/>
</svg>