<svg xmlns="http://www.w3.org/2000/svg" width="300" height="300" viewBox="0 0 300 300" version="1.1">
	<path d="M 224.875 9.704 C 223.431 9.927, 219.831 11.396, 216.875 12.969 C 199.401 22.267, 192.336 25.663, 182.272 29.604 C 176.097 32.022, 170.555 34, 169.958 34 C 167.812 34, 158.452 38.475, 156.117 40.617 C 154.286 42.296, 153.887 43.412, 154.394 45.435 C 155.629 50.353, 158.492 50.610, 173.367 47.140 C 180.769 45.413, 187.053 44, 187.332 44 C 187.611 44, 187.406 45.568, 186.877 47.484 C 185.581 52.177, 187.365 58.519, 191.004 62.158 C 193.378 64.532, 194.680 65, 198.907 65 C 203.104 65, 204.526 64.497, 207.234 62.055 C 210.396 59.202, 210.451 59.020, 208.969 56.305 C 207.875 54.301, 206.532 53.412, 204.267 53.190 C 200.435 52.816, 199.523 50.664, 200.484 44.261 C 200.927 41.303, 200.775 39.479, 200.048 39.030 C 198.801 38.259, 204.119 35.227, 223.270 25.792 C 236.357 19.344, 238.016 17.776, 236.571 13.224 C 235.905 11.126, 231.902 8.912, 229.203 9.150 C 228.266 9.232, 226.319 9.482, 224.875 9.704 M 233.333 29.205 C 231.602 31.017, 228.706 35.425, 226.899 39 C 223.866 44.998, 213.537 61.122, 208.962 67 C 206.057 70.733, 207.515 75.389, 211.719 75.806 C 214.323 76.064, 215.865 75.123, 221.553 69.806 C 230.639 61.313, 235.142 54.978, 241.476 41.777 C 247.804 28.590, 247.731 26.664, 240.881 26.205 C 237.018 25.946, 236.094 26.313, 233.333 29.205 M 151 58 C 146.892 62.108, 149.413 69.399, 156.343 73.461 C 161.940 76.741, 173.643 77.157, 176.345 74.171 C 179.730 70.430, 177.332 66.761, 170.728 65.577 C 168.308 65.144, 165.158 63.305, 161.944 60.450 C 156.416 55.541, 154 55, 151 58 M 71.732 70.250 C 69.900 73.138, 67.880 76.850, 67.242 78.500 C 66 81.709, 64.145 94.371, 63.744 102.368 L 63.500 107.236 57.500 109.103 C 54.200 110.130, 51.197 110.977, 50.828 110.985 C 50.458 110.993, 49.616 109.367, 48.957 107.371 C 45.919 98.164, 37.853 95.113, 34.967 102.079 C 33.693 105.155, 33.788 106.023, 36.435 115.500 C 37.371 118.851, 38.526 128.564, 39.051 137.500 C 39.568 146.300, 40.692 156.200, 41.550 159.500 C 42.407 162.800, 43.241 166.806, 43.403 168.402 C 43.564 169.999, 44.526 171.911, 45.539 172.652 C 48.208 174.604, 53.996 174.300, 57.750 172.011 L 61 170.029 60.977 172.765 C 60.965 174.269, 60.503 181.125, 59.950 188 C 59.398 194.875, 58.537 207.465, 58.037 215.979 C 57.537 224.492, 56.762 231.588, 56.314 231.748 C 55.866 231.908, 51.981 234.088, 47.681 236.593 C 41.788 240.026, 39.133 242.297, 36.904 245.813 C 33.474 251.221, 33.518 252.872, 37.145 254.908 C 39.600 256.286, 40.235 256.162, 46.638 253.047 C 50.412 251.211, 55.525 248.361, 58 246.713 C 60.475 245.064, 65.425 242.139, 69 240.212 C 72.575 238.285, 78.019 235.004, 81.097 232.921 L 86.693 229.134 88.335 232.577 C 89.238 234.470, 91.840 238.040, 94.116 240.510 C 97.414 244.087, 98.926 245, 101.556 245 C 105.298 245, 108 242.829, 108 239.822 C 108 238.703, 106.589 236.006, 104.865 233.829 C 101.321 229.355, 97 215.964, 97 209.456 C 97 204.735, 94.329 201.427, 91.322 202.424 C 88.799 203.261, 84 210.315, 84 213.187 C 84 214.490, 83.374 216.449, 82.608 217.542 C 81.175 219.589, 69.398 225.732, 68.544 224.878 C 68.281 224.614, 69.181 218.347, 70.545 210.949 C 71.908 203.552, 73.502 191.650, 74.087 184.500 C 75.847 162.985, 75.842 163.011, 78.549 161.981 C 81.944 160.691, 93.447 151.493, 95.406 148.503 C 97.079 145.950, 96.694 141, 94.823 141 C 94.296 141, 94.742 139.762, 95.815 138.250 C 97.625 135.699, 101.834 128.303, 106.180 120.039 C 108.400 115.816, 108.509 110.874, 106.476 106.590 C 105.326 104.168, 103.732 102.939, 99.993 101.595 C 95.311 99.911, 94.583 99.903, 86.904 101.459 C 82.432 102.365, 78.507 102.840, 78.181 102.514 C 77.855 102.188, 78.399 94.554, 79.390 85.550 C 80.380 76.545, 80.893 68.238, 80.528 67.089 C 80.098 65.734, 79.021 65, 77.463 65 C 75.655 65, 74.238 66.298, 71.732 70.250 M 181 84.130 C 155.727 86.154, 151.706 86.870, 147.635 90.072 C 144.402 92.615, 144.024 97.407, 146.934 98.965 C 149.934 100.570, 172.142 100.158, 198 98.015 C 230.913 95.289, 234.139 94.903, 237.293 93.312 C 242.082 90.898, 243.003 85.143, 238.948 82.972 C 236.135 81.467, 206.994 82.049, 181 84.130 M 177.703 107.775 C 176.602 108.992, 176.003 111.901, 175.798 117.025 L 175.500 124.500 166.087 125.666 C 151.770 127.439, 143.432 130.132, 140.284 134 C 138.682 135.968, 138.664 139.934, 140.253 140.544 C 140.943 140.808, 148.030 140.619, 156.003 140.123 C 163.976 139.627, 170.604 139.314, 170.732 139.426 C 171.649 140.235, 166.064 155.511, 161.381 165 C 155.605 176.703, 142.867 199.276, 140.502 202 C 139.785 202.825, 137.956 205.750, 136.437 208.500 C 134.918 211.250, 130.823 217.846, 127.338 223.158 C 123.852 228.469, 121 233.731, 121 234.851 C 121 236.936, 124.418 240, 126.745 240 C 129.301 240, 137.162 231.530, 144.056 221.349 C 147.911 215.654, 152.797 208.523, 154.913 205.503 L 158.760 200.012 163.036 204.424 C 165.388 206.851, 167.879 210.186, 168.573 211.835 C 169.266 213.484, 170.720 215.720, 171.804 216.804 C 172.888 217.888, 174.927 220.470, 176.334 222.541 C 178.650 225.950, 178.764 226.555, 177.536 228.930 C 175.379 233.101, 161.139 248.928, 156.919 251.844 C 153.630 254.117, 153.070 255.044, 153.038 258.271 C 153.007 261.381, 153.456 262.251, 155.599 263.227 C 159.927 265.199, 167.825 260.385, 178.809 249.081 L 188.118 239.500 196.384 247.500 C 207.800 258.547, 225.050 271.331, 236.536 277.255 C 254.306 286.420, 266.990 289.258, 272.012 285.191 C 275.054 282.728, 275.338 275.720, 272.482 273.562 C 270.128 271.782, 267 271.536, 267 273.131 C 267 275.856, 257.399 272.373, 242.500 264.243 C 227.714 256.175, 210.850 242.639, 201.394 231.249 L 197.865 226.999 199.864 224.191 C 203.341 219.308, 217.479 190.905, 221.569 180.583 C 224.887 172.214, 225.500 169.521, 225.500 163.320 C 225.500 156.369, 225.339 155.842, 222.500 153.523 C 220.315 151.737, 218.278 151.068, 215 151.057 C 210.260 151.041, 196.357 154.730, 191.299 157.345 C 186.630 159.760, 178.001 162.878, 177.992 162.154 C 177.987 161.794, 179.832 156.450, 182.091 150.277 C 186.005 139.582, 186.347 139.029, 189.349 138.546 C 211.948 134.904, 217.536 133.733, 222.126 131.677 C 228.693 128.736, 231.897 125.412, 232.652 120.756 C 233.100 117.998, 232.762 116.762, 231.113 115.113 C 228.232 112.232, 224.665 112.389, 223.016 115.471 C 221.308 118.661, 215.501 120.458, 202 121.972 C 196.225 122.620, 190.713 123.299, 189.750 123.481 C 188.341 123.748, 188 123.098, 188 120.150 C 188 114.839, 186.404 110.085, 183.889 107.904 C 181.159 105.536, 179.756 105.507, 177.703 107.775 M 84.131 116.079 C 80.628 116.533, 77.608 117.058, 77.421 117.246 C 77.233 117.434, 76.769 123.080, 76.390 129.794 C 75.885 138.726, 76.008 142, 76.850 142 C 77.482 142, 78 141.531, 78 140.958 C 78 140.385, 78.456 139.372, 79.014 138.708 C 82.395 134.681, 91.982 117.725, 91.995 115.750 C 91.998 115.338, 91.662 115.057, 91.250 115.127 C 90.838 115.197, 87.634 115.625, 84.131 116.079 M 57.250 123.262 L 53 124.284 53 139.975 C 53 148.606, 53.270 155.936, 53.599 156.266 C 53.928 156.595, 55.887 155.984, 57.951 154.909 L 61.704 152.952 62.352 143.823 C 63.217 131.632, 63.172 121.972, 62.250 122.120 C 61.837 122.186, 59.587 122.700, 57.250 123.262 M 204 167.601 C 194.414 171.144, 185.679 173, 178.596 173 L 172.317 173 171.187 176.750 C 170.566 178.813, 168.467 182.964, 166.523 185.975 L 162.988 191.451 166.268 193.133 C 169.318 194.698, 183.133 207.979, 186.414 212.500 C 188.159 214.905, 188.722 214.404, 192.602 207 C 194.188 203.975, 195.751 201.275, 196.076 201 C 196.402 200.725, 199.172 195.325, 202.231 189 C 207.811 177.467, 211.452 167.770, 210.832 166.095 C 210.649 165.603, 207.575 166.280, 204 167.601" stroke="none" fill="black" fill-rule="evenodd"/>
</svg>