<svg xmlns="http://www.w3.org/2000/svg" width="300" height="300" viewBox="0 0 300 300" version="1.1">
	<path d="M 227.960 27.548 C 222.275 30.609, 216.259 40.088, 211.488 53.500 C 210.025 57.613, 208.059 77.002, 207.634 91.500 C 206.909 116.227, 209.900 127.195, 219.103 133.570 C 222.997 136.267, 224.015 136.496, 231.916 136.453 C 239.539 136.412, 241.564 135.970, 250 132.514 C 255.425 130.291, 261.430 128.544, 264 128.441 C 270.072 128.198, 269.737 128.331, 271.654 125.406 C 273.257 122.958, 273.253 122.626, 271.583 119.523 C 269.638 115.914, 266.370 113.993, 262.203 114.013 C 258.861 114.029, 249.401 116.987, 241.721 120.418 C 232.145 124.697, 226.019 123.682, 223.386 117.381 C 221.235 112.234, 219.887 99.471, 220.625 91.250 C 221.178 85.095, 221.556 84, 223.127 84 C 226.834 84, 235.063 80.108, 244.684 73.805 C 261.612 62.713, 264.755 58.803, 260.118 54.606 C 257.505 52.242, 255.145 52.984, 237.616 61.685 L 222.732 69.073 223.224 64.701 C 223.862 59.048, 228.473 43.997, 231.668 37.145 C 235.335 29.280, 233.511 24.560, 227.960 27.548 M 150.310 41.750 C 149.212 42.712, 147.853 44.400, 147.289 45.500 C 146.333 47.365, 144.901 70.845, 144.484 91.500 C 143.689 130.867, 143.684 130.716, 145.914 135.321 C 148.345 140.345, 151.239 142, 157.587 142 C 162.703 142, 168.157 139.554, 175.500 133.968 C 178.250 131.876, 183.397 128.407, 186.937 126.259 C 194.667 121.570, 195.772 120.104, 194.444 116.303 C 192.438 110.564, 184.405 112.734, 166 123.987 C 162.425 126.172, 158.990 127.970, 158.367 127.980 C 156.640 128.010, 156.382 124.799, 156.820 108.741 L 157.223 93.982 159.861 93.452 C 177.778 89.853, 184.194 86.837, 193.734 77.528 C 198.652 72.729, 199.997 70.778, 199.985 68.457 C 199.965 64.604, 199.060 63.304, 195.836 62.495 C 193.719 61.964, 192.426 62.510, 189.346 65.237 C 183.658 70.275, 171.372 76.510, 164.225 77.987 C 160.774 78.700, 157.729 79.062, 157.458 78.792 C 157.187 78.521, 157.499 71.744, 158.150 63.732 C 159.226 50.501, 159.174 48.744, 157.584 44.582 C 155.667 39.562, 153.685 38.791, 150.310 41.750 M 81.381 57.919 C 75.750 61.352, 72.107 73.176, 70.178 94.274 C 69.687 99.650, 69.081 104.252, 68.832 104.501 C 68.583 104.751, 65.313 105.389, 61.565 105.919 C 56.837 106.589, 54.025 107.567, 52.376 109.116 L 50 111.349 50 108.809 C 50 102.687, 42.396 98.571, 38.807 102.750 C 36.206 105.778, 36.011 107.807, 37.502 116.266 C 38.301 120.795, 39.683 133.275, 40.574 144 C 42.287 164.617, 43.782 170.333, 48.287 173.488 C 51.465 175.715, 54.029 175.367, 61.252 171.732 L 67.744 168.465 68.353 179.982 C 68.688 186.317, 69.236 197.800, 69.569 205.500 L 70.176 219.500 63.338 222.622 C 59.577 224.339, 54.886 226.493, 52.914 227.408 C 50.941 228.324, 47.454 230.873, 45.164 233.073 C 41.676 236.425, 41 237.707, 41 240.970 C 41 246.467, 43.231 246.870, 52.638 243.072 C 56.822 241.382, 60.876 240, 61.645 240 C 63.011 240, 72.447 235.324, 84.500 228.674 C 87.800 226.854, 93.132 223.914, 96.349 222.141 C 99.566 220.368, 105.145 216.686, 108.748 213.959 C 115.971 208.490, 117 208.107, 117 210.886 C 117 213.270, 121.900 228.079, 123.241 229.750 C 124.649 231.503, 130.498 231.310, 132.034 229.459 C 134.076 226.999, 131.489 209.566, 127.217 197 C 124.516 189.055, 123.630 184.773, 123.574 179.404 C 123.462 168.685, 120.578 166.300, 115.171 172.458 C 111.610 176.514, 110.437 182.305, 111.419 190.985 C 112.045 196.518, 111.942 196.927, 109.612 198.176 C 108.253 198.904, 101.372 202.655, 94.321 206.510 L 81.500 213.521 81.793 188.010 C 82.028 167.587, 82.364 162.301, 83.481 161.500 C 84.248 160.950, 87.941 158.556, 91.688 156.179 C 100.175 150.796, 102.377 147.925, 102.565 141.994 C 102.661 138.961, 103.601 136.007, 105.355 133.230 C 106.810 130.925, 108 128.666, 108 128.208 C 108 127.751, 108.788 126.505, 109.750 125.439 C 113.928 120.811, 119.108 112.112, 119.640 108.828 C 120.050 106.305, 119.689 104.455, 118.404 102.494 L 116.590 99.725 105.045 100.356 C 98.695 100.704, 91.324 101.278, 88.664 101.634 L 83.828 102.279 84.518 92.890 C 84.897 87.725, 86.316 78.812, 87.670 73.083 C 90.387 61.592, 90.213 58.874, 86.655 57.253 C 84.755 56.387, 83.669 56.524, 81.381 57.919 M 87.008 115.882 C 82.649 116.653, 82.279 118.076, 82.118 134.719 C 81.975 149.567, 83.128 150.073, 88.744 137.629 C 90.762 133.158, 94.109 126.237, 96.181 122.250 L 99.950 115 95.225 115.132 C 92.626 115.204, 88.928 115.542, 87.008 115.882 M 52.540 124.227 C 52.943 127.127, 53.549 136.086, 53.887 144.136 L 54.500 158.773 61.250 155.681 L 68 152.588 68 135.794 C 68 117.077, 68.379 117.907, 60.863 120.159 C 57.911 121.043, 56.379 121.038, 54.400 120.136 L 51.806 118.955 52.540 124.227 M 197.620 147.812 C 195.672 149.291, 192.836 152.975, 191.317 156 C 188.941 160.733, 188.503 162.976, 188.173 172.088 L 187.790 182.676 182.758 183.965 C 179.990 184.675, 175.495 185.205, 172.768 185.143 C 165.385 184.977, 162.045 187.137, 162.015 192.095 C 161.980 198.074, 170.881 200.488, 182.640 197.690 L 188.781 196.228 189.359 199.864 C 189.677 201.864, 190.244 210.329, 190.619 218.676 L 191.301 233.853 187.900 234.424 C 183.996 235.080, 164.467 237.612, 152.068 239.071 C 141.245 240.344, 135.266 241.865, 134.636 243.505 C 133.747 245.823, 135.134 248.817, 137.344 249.352 C 150.018 252.418, 172.290 252.015, 194 248.327 C 201.204 247.103, 213.793 246.567, 246.099 246.107 C 292.071 245.452, 292.033 245.457, 291.968 240.128 C 291.910 235.293, 289.799 233.867, 281.314 232.927 C 269.578 231.629, 244.876 231.394, 223 232.373 L 203.500 233.245 203.500 212.920 L 203.500 192.595 213 188.923 C 227.670 183.252, 229.847 182.163, 231.474 179.680 C 232.724 177.772, 232.771 176.914, 231.744 174.737 C 231.060 173.288, 229.601 171.866, 228.500 171.577 C 226.606 171.079, 219.147 172.989, 207.112 177.052 L 201.725 178.871 202.386 171.685 C 202.749 167.733, 203.743 161.710, 204.594 158.299 C 206.539 150.510, 206.177 146.964, 203.331 145.920 C 201.711 145.326, 200.267 145.804, 197.620 147.812" stroke="none" fill="black" fill-rule="evenodd"/>
</svg>