<svg xmlns="http://www.w3.org/2000/svg" width="300" height="300" viewBox="0 0 300 300" version="1.1">
	<path d="M 235 27.353 C 225.232 31.101, 211.737 37.959, 206.113 42.033 C 203.458 43.956, 202.113 45.778, 201.807 47.863 C 200.516 56.657, 208.828 58.805, 218.798 52.253 C 224.054 48.799, 241.029 40.696, 241.669 41.336 C 241.822 41.489, 240.900 43.163, 239.619 45.057 C 236.908 49.067, 231.455 59.593, 227.037 69.345 L 223.936 76.190 219.218 71.614 C 213.173 65.751, 211.200 64.408, 207.424 63.586 C 201.288 62.252, 196.554 65.642, 193.544 73.525 C 191.360 79.244, 191.993 81, 196.237 81 C 198.684 81, 199.928 80.355, 201.050 78.505 L 202.564 76.011 209.408 82.907 L 216.252 89.804 212.995 93.857 C 209.708 97.947, 203.273 103, 201.351 103 C 197.509 103, 195.533 111.145, 198.934 112.965 C 204.607 116.001, 212.915 112.858, 221.500 104.428 L 225.500 100.500 233.250 108.420 C 237.512 112.777, 241 116.969, 241 117.736 C 241 123.298, 248.072 125.019, 252.545 120.545 C 257.100 115.991, 255.412 111.591, 244.500 99.572 C 233.376 87.320, 233.511 89.933, 243.016 70.950 C 247.546 61.903, 252.996 51.176, 255.126 47.113 C 260.001 37.818, 260.387 31.801, 256.411 27.077 C 254.122 24.357, 253.224 24.005, 248.661 24.046 C 245.330 24.075, 240.485 25.248, 235 27.353 M 174 40.014 C 159.737 47.830, 148.814 53, 146.565 53 C 143.502 53, 138.903 54.976, 137.282 56.988 C 136.612 57.820, 136.049 60.199, 136.032 62.275 C 136.005 65.421, 136.427 66.212, 138.565 67.025 C 139.976 67.561, 142.372 68, 143.891 68 C 148.111 68, 160.556 63.360, 169.824 58.331 C 174.402 55.847, 178.342 54.008, 178.578 54.245 C 179.565 55.231, 174.737 65.648, 168.961 75 C 168.451 75.825, 166.242 79.425, 164.051 83 C 161.860 86.575, 159.634 90.151, 159.104 90.946 C 158.337 92.096, 156.732 90.905, 151.241 85.113 C 145.322 78.868, 143.928 77.881, 141.428 78.167 C 137.193 78.651, 135.342 82.827, 137.507 87.013 C 139.933 91.704, 148.268 104.459, 149.144 104.820 C 150.705 105.464, 142.313 117.250, 135.685 123.720 C 131.937 127.379, 128.425 131.206, 127.880 132.224 C 125.662 136.368, 129.986 140.569, 135.143 139.280 C 138.875 138.347, 149.573 129.374, 154.637 122.929 L 159.266 117.037 164.355 121.268 C 167.154 123.596, 170.228 126.272, 171.188 127.216 C 174.366 130.342, 183.198 134.165, 188.510 134.713 C 192.949 135.171, 194.070 134.930, 195.873 133.127 C 197.043 131.957, 198 130.169, 198 129.153 C 198 126.897, 194.778 123.008, 192.883 122.978 C 189.423 122.923, 182.505 118.578, 176.046 112.404 C 172.171 108.700, 169 105.219, 169 104.669 C 169 104.118, 170.977 100.480, 173.394 96.584 C 183.534 80.239, 191.991 63.621, 193.979 56.137 C 195.620 49.959, 194.447 44.616, 190.539 40.473 C 186.248 35.923, 181.696 35.797, 174 40.014 M 58.483 56.750 C 53.589 61.929, 52.026 67.102, 50.472 83.264 C 49.666 91.644, 49.005 98.591, 49.003 98.703 C 48.994 99.307, 39.468 103, 37.920 103 C 35.360 103, 30.798 105.127, 28.902 107.205 C 27.404 108.846, 27.228 108.705, 26.105 104.956 C 24.448 99.425, 21.213 94.202, 19.012 93.504 C 15.876 92.508, 11.915 94.094, 10.905 96.750 C 9.841 99.550, 10.603 105.186, 12.573 109.083 C 14.352 112.602, 16.450 122.234, 18.437 136 C 22.164 161.829, 22.208 162.032, 24.372 163.548 C 25.512 164.347, 27.668 165, 29.163 165 C 30.659 165, 32.127 165.396, 32.426 165.881 C 33.288 167.275, 37.849 167.823, 41.580 166.982 L 45 166.211 44.984 173.855 C 44.970 180.881, 43.986 195.408, 42.386 212.223 C 41.843 217.938, 41.429 219.034, 39.623 219.533 C 32.871 221.401, 19.173 227.783, 17.250 229.956 C 14.241 233.359, 13.304 238.670, 15.137 241.935 C 16.982 245.222, 19.619 245.690, 22.339 243.214 C 23.528 242.132, 26.300 240.710, 28.500 240.053 C 33.552 238.547, 33.112 238.743, 54.125 228.636 C 63.818 223.974, 73.418 218.694, 75.457 216.904 C 79.601 213.265, 79.313 213.112, 83.540 221.217 C 84.893 223.811, 86 226.589, 86 227.390 C 86 229.914, 91.024 235, 93.517 235 C 96.465 235, 99.009 232.518, 98.971 229.679 C 98.936 227.079, 96.240 217.681, 92.177 206 C 87.883 193.652, 86.608 187.376, 86.812 179.599 C 87.086 169.191, 83.702 166.943, 78.009 173.750 L 74.873 177.500 75.187 191.251 C 75.490 204.549, 75.432 205.001, 73.450 205.001 C 72.322 205, 70.946 205.454, 70.391 206.009 C 69.836 206.564, 65.649 208.568, 61.086 210.464 C 53.101 213.782, 52.816 213.828, 53.487 211.705 C 53.870 210.492, 54.588 203.200, 55.083 195.500 C 55.578 187.800, 56.416 177, 56.944 171.500 C 57.986 160.662, 57.582 161.368, 66.157 155.411 C 71.024 152.028, 77.376 144.741, 78.414 141.348 C 78.874 139.846, 78.342 138.347, 76.654 136.384 C 74.354 133.711, 74.315 133.449, 75.867 131.097 C 77.500 128.623, 82.424 117.122, 86.067 107.275 C 89.570 97.807, 87.926 90.543, 81.753 88.213 C 78.831 87.110, 75.325 87.839, 65.750 91.538 C 64.195 92.139, 64.002 91.506, 64.016 85.857 C 64.025 82.361, 64.458 74.351, 64.979 68.057 C 65.940 56.434, 65.497 54, 62.418 54 C 61.683 54, 59.912 55.237, 58.483 56.750 M 65.274 107.636 C 61.637 109.429, 61.402 110.266, 60.520 124.500 L 59.963 133.500 62.527 127.500 C 63.937 124.200, 65.520 120.600, 66.045 119.500 C 66.569 118.400, 67.874 114.912, 68.945 111.750 C 71.088 105.423, 70.683 104.969, 65.274 107.636 M 42 117 C 39.525 118.039, 35.755 118.913, 33.622 118.944 L 29.744 119 30.434 123.250 C 31.774 131.501, 32.985 143.563, 32.992 148.725 L 33 153.950 36.250 153.339 C 38.038 153.004, 40.962 152.138, 42.750 151.415 C 45.919 150.135, 46.002 149.944, 46.084 143.801 C 46.130 140.335, 46.468 132.437, 46.834 126.249 C 47.200 120.061, 47.275 115.024, 47 115.055 C 46.725 115.086, 44.475 115.961, 42 117 M 241 137.300 C 239.625 137.940, 237.825 139.116, 237 139.912 C 234.752 142.081, 220.012 148.621, 215.938 149.257 C 206.145 150.786, 199.308 156.971, 201.951 161.909 C 202.969 163.811, 203.953 164, 212.813 164 C 221.905 164, 223.049 163.764, 229.917 160.472 C 233.966 158.532, 237.432 157.099, 237.621 157.287 C 238.317 157.984, 224.096 192.679, 221.473 196.682 L 219.837 199.179 216.668 194.273 C 211.164 185.749, 205.866 180.532, 200.912 178.756 C 198.778 177.991, 193.203 180.787, 192.510 182.968 C 191.619 185.776, 193.017 188, 195.672 188 C 197.765 188, 198.660 189.152, 201.696 195.750 C 203.657 200.012, 206.777 205.797, 208.631 208.604 C 210.484 211.410, 212 213.993, 212 214.343 C 212 215.515, 203.348 228.493, 198.543 234.530 C 191.800 243, 186.239 247.689, 180.715 249.562 C 176.242 251.078, 175.753 251.070, 173.215 249.440 C 169.145 246.825, 155.323 232.594, 154.580 230.253 C 154.142 228.871, 155.539 224.940, 158.895 218.115 C 161.625 212.564, 164.179 207.004, 164.571 205.761 C 164.963 204.517, 166.795 200.312, 168.642 196.414 C 170.489 192.517, 172 188.807, 172 188.169 C 172 187.531, 173.622 183.519, 175.604 179.254 C 182.513 164.386, 183.414 158.755, 179.595 154.316 C 176.752 151.011, 174.487 150.869, 154.815 152.760 C 132.870 154.870, 124 159.644, 124 169.347 C 124 175.781, 127.135 176.418, 137.519 172.092 C 144.489 169.188, 157.664 166.488, 161.638 167.150 C 163.669 167.488, 163.607 167.814, 159.757 177 C 157.567 182.225, 154.466 189.650, 152.867 193.500 C 150.436 199.353, 144.270 212.530, 143.326 213.889 C 143.178 214.102, 140.584 211.765, 137.563 208.695 C 130.753 201.776, 123.204 199.215, 117.934 202.035 C 114.721 203.755, 115.648 206.662, 120.469 209.978 C 124.235 212.570, 132.847 223.832, 134.645 228.518 C 135.323 230.285, 124.544 244.357, 120.312 247.229 C 118.215 248.652, 114.585 250.122, 112.244 250.497 C 105.713 251.542, 102.912 256.801, 106.944 260.449 C 108.347 261.719, 110.480 262.189, 114.611 262.140 C 123.975 262.028, 131.807 257.319, 141.201 246.152 L 144.859 241.805 150.679 247.727 C 157.688 254.857, 165.776 260.433, 172.209 262.570 C 176.723 264.069, 177.264 264.039, 183.228 261.958 C 195.911 257.533, 201.769 252.995, 213.764 238.305 C 216.546 234.898, 219.593 230.805, 220.535 229.210 L 222.249 226.309 238.216 243.074 C 259.929 265.871, 270.297 273, 281.740 273 C 286.234 273, 288.095 272.553, 289.345 271.171 C 293.153 266.964, 290.612 262.791, 282.554 260.019 C 271.747 256.301, 264.632 249.927, 234.202 216.707 L 229.903 212.014 233.929 204.257 C 240.521 191.556, 251.039 166.969, 255.644 153.500 C 258.153 146.158, 258.061 142.549, 255.254 138.265 C 254.019 136.380, 252.909 136.011, 248.635 136.068 C 245.811 136.105, 242.375 136.659, 241 137.300" stroke="none" fill="black" fill-rule="evenodd"/>
</svg>