<svg xmlns="http://www.w3.org/2000/svg" width="300" height="300" viewBox="0 0 300 300" version="1.1">
	<path d="M 172.723 14.767 C 170.203 17.397, 170.042 18.198, 169.450 31.017 C 169.108 38.433, 168.715 44.614, 168.578 44.753 C 168.440 44.892, 158.426 46.102, 146.324 47.442 C 122.445 50.086, 117.843 51.506, 116.558 56.626 C 114.807 63.602, 118.066 64.635, 136.851 63.056 C 144.358 62.425, 154.391 61.585, 159.147 61.189 L 167.795 60.470 168.471 66.485 C 168.843 69.793, 170.214 75.200, 171.518 78.500 C 172.823 81.800, 174.027 86.284, 174.195 88.465 C 174.474 92.089, 174.800 92.497, 178 93.227 C 187.725 95.445, 219.718 89.799, 225.738 84.803 C 227.654 83.213, 227.247 78.534, 225.018 76.517 C 223.463 75.109, 222.065 74.856, 218.518 75.342 C 216.033 75.683, 214 75.727, 214 75.441 C 214 75.155, 214.878 73.199, 215.952 71.095 C 217.025 68.990, 218.432 65.169, 219.079 62.602 C 219.725 60.035, 220.984 57.561, 221.877 57.104 C 222.770 56.648, 231.739 55.989, 241.809 55.641 C 251.879 55.292, 260.986 54.543, 262.047 53.975 C 267.151 51.243, 264.534 43.436, 257.925 41.676 C 256.041 41.175, 247.373 41.001, 238.662 41.291 L 222.825 41.818 223.530 35.743 C 223.918 32.401, 224.632 28.283, 225.117 26.590 C 226.547 21.606, 226.152 19.062, 223.545 16.455 C 220.480 13.389, 216.897 13.324, 213.469 16.273 C 211.107 18.304, 210.656 19.821, 209.231 30.523 C 208.354 37.110, 207.605 42.566, 207.568 42.646 C 207.531 42.726, 202.155 43.121, 195.622 43.524 L 183.744 44.256 184.450 33.878 C 185.323 21.052, 184.103 15.069, 180.244 13.247 C 176.511 11.485, 175.713 11.647, 172.723 14.767 M 65.823 59.208 C 61.450 61.707, 57.487 67.684, 56.132 73.824 C 55.564 76.396, 54.806 84.676, 54.448 92.224 L 53.798 105.947 50.149 106.524 C 44.481 107.420, 38.005 110.724, 37.968 112.737 C 37.938 114.409, 37.867 114.408, 36.580 112.712 C 35.835 111.729, 33.739 110.499, 31.924 109.978 C 24.808 107.937, 23.048 114.577, 27.542 126.516 C 30.477 134.313, 32.993 145.486, 33.015 150.815 C 33.033 155.302, 34.837 159.111, 37.597 160.487 C 38.729 161.051, 40.440 162.297, 41.399 163.256 C 42.586 164.443, 44.718 165, 48.071 165 L 53 165 53 189.843 C 53 203.507, 53.288 220.048, 53.641 226.600 L 54.281 238.515 46.391 241.932 C 31.797 248.250, 19 257.882, 19 262.547 C 19 269.236, 27.467 269.382, 40.191 262.913 C 44.421 260.762, 51.621 257.494, 56.191 255.651 C 75.132 248.010, 84.075 242.903, 90.767 235.905 C 93.083 233.482, 94.983 232.140, 94.989 232.922 C 95.006 235.156, 100.048 247.310, 101.763 249.250 C 103.496 251.211, 107.150 251.525, 110.066 249.965 C 113.725 248.006, 111.982 234.851, 106.405 222.349 C 105.632 220.616, 104.993 218.591, 104.985 217.849 C 104.977 217.107, 103.852 212.900, 102.485 208.500 C 101.118 204.100, 100 199.028, 100 197.229 C 100 193.173, 96.760 191.256, 92.348 192.700 C 90.100 193.436, 89.134 194.720, 87.764 198.800 C 86.172 203.537, 86.150 204.609, 87.505 211.692 C 88.318 215.940, 88.650 219.693, 88.242 220.030 C 83.836 223.676, 78.207 227.557, 73.309 230.326 L 67.355 233.691 67.774 196.095 C 68.239 154.361, 67.775 156.946, 75.165 154.956 C 80.870 153.419, 91 148.104, 91 146.646 C 91 145.933, 92.145 144.273, 93.545 142.957 C 94.946 141.642, 97.308 138.639, 98.795 136.285 C 100.283 133.930, 101.855 132.003, 102.289 132.002 C 102.723 132.001, 104.619 128.784, 106.503 124.853 L 109.928 117.707 124.214 117.443 C 132.071 117.298, 150.875 116.043, 166 114.653 C 181.125 113.263, 204.975 111.631, 219 111.025 C 252.435 109.580, 252.794 109.543, 255.864 107.258 C 259.031 104.900, 261.152 99.885, 259.250 99.251 C 258.563 99.021, 258 98.217, 258 97.464 C 258 94.742, 251.170 94.014, 235.048 95.017 C 202.039 97.072, 187.835 98.145, 169.500 99.972 C 159.050 101.014, 145.807 102.163, 140.071 102.526 C 134.335 102.889, 128.485 103.630, 127.071 104.174 C 125.657 104.717, 120.947 105.791, 116.604 106.560 C 112.262 107.329, 108.483 108.184, 108.206 108.461 C 107.929 108.738, 105.924 107.358, 103.751 105.394 L 99.800 101.824 84.305 102.162 L 68.811 102.500 69.504 87 C 70.120 73.241, 70.469 71.005, 72.616 67.093 C 75.322 62.163, 75.064 59.806, 71.651 58.251 C 69.822 57.418, 68.607 57.617, 65.823 59.208 M 201.500 57.741 C 199.300 57.873, 194.183 58.254, 190.130 58.587 L 182.759 59.193 183.197 67.524 C 183.717 77.437, 184.709 79, 190.481 79 C 194.182 79, 195.144 78.499, 198.086 75.044 C 200.722 71.948, 206.867 57.929, 205.743 57.576 C 205.609 57.534, 203.700 57.608, 201.500 57.741 M 73.750 118.735 L 69 119.110 69 124.408 C 69 127.322, 68.713 132.450, 68.363 135.803 L 67.726 141.900 74.057 139.983 C 77.540 138.928, 81.398 137.038, 82.631 135.783 C 84.648 133.729, 93 119.833, 93 118.531 C 93 117.975, 81.891 118.093, 73.750 118.735 M 46.245 123.732 C 42.191 124.097, 42.022 124.242, 42.642 126.808 C 43 128.288, 43.697 130.596, 44.192 131.935 C 44.687 133.274, 45.359 137.849, 45.687 142.101 L 46.284 149.832 49.642 148.231 L 53 146.630 53 137.940 C 53 133.160, 53.281 127.844, 53.625 126.125 C 54.154 123.480, 53.962 123.027, 52.375 123.175 C 51.344 123.271, 48.585 123.522, 46.245 123.732 M 202 130.143 C 198.425 130.631, 189.599 131.924, 182.387 133.015 C 175.175 134.107, 168.007 135, 166.458 135 C 161.550 135, 150.931 139.199, 147.388 142.541 C 141.725 147.882, 143.457 153.961, 150.241 152.554 C 156.003 151.359, 176.060 148.725, 176.397 149.119 C 176.575 149.329, 176.996 154.514, 177.331 160.641 L 177.941 171.782 167.720 172.935 C 162.055 173.573, 155.594 174.959, 153.223 176.044 C 150.871 177.120, 148.589 178, 148.153 178 C 147.716 178, 146.850 174.731, 146.229 170.736 C 144.261 158.075, 139.956 140.653, 137.706 136.244 C 134.051 129.078, 129.206 129.619, 127.018 137.437 C 125.899 141.434, 126.044 143.432, 128.272 154.728 C 129.658 161.753, 131.540 172.900, 132.455 179.500 C 133.370 186.100, 134.525 193.750, 135.021 196.500 C 135.517 199.250, 136.168 203.032, 136.467 204.905 C 137.153 209.194, 138.635 211, 141.467 211 C 145.307 211, 147.450 207.457, 148 200.200 L 148.500 193.604 154.500 191.845 C 157.800 190.877, 164.945 189.206, 170.377 188.132 L 180.254 186.178 179.591 191.825 C 179.226 194.932, 178.589 197.811, 178.176 198.224 C 177.763 198.637, 174.292 200.059, 170.463 201.384 C 166.633 202.710, 160.276 205.273, 156.335 207.080 C 149.872 210.044, 148.950 210.837, 146.915 215.181 C 144.932 219.415, 144.822 220.298, 145.999 222.498 C 147.512 225.325, 151.302 225.846, 154.527 223.669 C 156.737 222.178, 165 218.807, 165 219.396 C 165 219.605, 163.617 222.863, 161.926 226.638 C 155.808 240.295, 150.645 252.708, 144.929 267.500 C 143.866 270.250, 142.065 273.763, 140.926 275.307 C 137.887 279.428, 137.210 284.949, 139.536 286.650 C 145.670 291.135, 154.079 283.764, 161.690 267.230 C 173.449 241.686, 182.351 221.053, 182.885 218.108 C 183.243 216.136, 184.547 213.959, 186 212.910 C 189.342 210.495, 202.301 207.977, 213.675 207.531 C 218.759 207.332, 223.388 206.878, 223.964 206.522 C 225.510 205.567, 232.342 195.253, 235.291 189.423 C 238.425 183.225, 242.477 170.687, 244.082 162.221 C 246.461 149.664, 243.177 139.137, 234.798 132.467 C 230.884 129.351, 215.682 128.274, 202 130.143 M 208.732 144.154 C 196.482 145.549, 193.555 146.359, 193.149 148.464 C 192.950 149.496, 193.097 154.471, 193.476 159.519 L 194.164 168.697 198.832 167.925 C 201.399 167.500, 205.603 166.870, 208.174 166.526 C 210.813 166.173, 214.729 164.636, 217.171 162.997 C 221.112 160.350, 221.688 160.221, 223.695 161.536 C 226.553 163.408, 227.115 162.435, 227.750 154.522 C 228.188 149.071, 227.976 147.976, 226.127 146.127 C 224.957 144.957, 222.912 144, 221.582 144 C 220.252 144, 218.564 143.836, 217.832 143.635 C 217.099 143.434, 213.004 143.667, 208.732 144.154 M 216.089 178.750 C 211.214 181.017, 206.427 182.419, 202.097 182.848 L 195.516 183.500 194.669 188.828 C 194.204 191.758, 193.975 194.284, 194.161 194.440 C 194.348 194.597, 199.490 194.507, 205.588 194.241 L 216.676 193.756 218.307 190.628 C 220.358 186.692, 224.312 175.956, 223.848 175.582 C 223.656 175.429, 220.165 176.854, 216.089 178.750 M 188.003 222.491 C 186.727 225.848, 187.558 227.574, 191.173 229.071 C 195.368 230.809, 201.867 237.428, 213.195 251.500 C 218.508 258.100, 228.941 269.688, 236.380 277.250 C 248.612 289.686, 250.237 291, 253.381 291 C 257.067 291, 260 288.903, 260 286.266 C 260 283.542, 254.964 275.835, 247.738 267.500 C 238.493 256.836, 233.882 251.410, 229.468 246 C 218.481 232.535, 210.853 226.127, 201.117 222.182 C 193.660 219.160, 189.230 219.264, 188.003 222.491" stroke="none" fill="black" fill-rule="evenodd"/>
</svg>