<svg xmlns="http://www.w3.org/2000/svg" width="300" height="300" viewBox="0 0 300 300" version="1.1">
	<path d="M 181.452 11.646 C 179.476 13.778, 179 15.345, 179 19.712 C 179 26.252, 179.685 27.648, 185.676 33.308 L 190.330 37.705 179.415 38.403 C 173.412 38.786, 162.493 39.978, 155.151 41.050 C 147.808 42.123, 140.602 43, 139.136 43 C 137.670 43, 134.755 43.919, 132.658 45.043 C 130.562 46.167, 128.094 46.852, 127.173 46.566 C 122.817 45.211, 122.604 46.374, 121.382 78.200 C 119.414 129.449, 117.826 147.680, 111.996 186 C 110.364 196.725, 108.770 207.638, 108.453 210.250 C 108.137 212.863, 107.514 215, 107.071 215 C 105.161 215, 102.713 202.172, 102.608 191.614 C 102.503 181.025, 102.434 180.704, 100.054 179.824 C 93.936 177.561, 87 185.432, 87 194.637 L 87 199.598 83.698 199.213 C 81.071 198.906, 79.707 199.471, 77.023 201.979 C 75.167 203.712, 72.449 205.750, 70.983 206.509 L 68.316 207.888 69.052 203.194 C 69.457 200.612, 70.524 188.375, 71.424 176 C 73.872 142.345, 72.947 145.778, 80.967 140.590 C 88.078 135.990, 93.609 129.612, 98.382 120.508 C 101.425 114.706, 101.571 113.006, 99.421 108.474 C 98.359 106.237, 96.371 104.455, 93.359 103.039 C 88.946 100.965, 87.931 100.937, 78.750 102.647 L 76 103.159 76 94.652 C 76 82.496, 77.731 71.018, 80.052 67.790 C 82.566 64.294, 82.522 61.807, 79.916 60.180 C 75.011 57.116, 67.557 62.573, 64.453 71.500 C 63.348 74.676, 62.334 82.380, 61.673 92.620 L 60.631 108.741 53.566 109.326 C 47.312 109.843, 46.184 110.262, 43.750 112.971 C 40.450 116.644, 40.270 119.270, 43.124 122.124 C 45.009 124.009, 46.077 124.194, 52.636 123.773 L 60.025 123.299 59.431 129.899 C 59.104 133.530, 58.681 137.013, 58.492 137.640 C 58.302 138.267, 54.739 140.719, 50.574 143.089 C 46.408 145.459, 43 147.758, 43 148.199 C 43 148.640, 42.550 149, 42 149 C 41.450 149, 41 147.258, 41 145.130 C 41 139.906, 37.512 120.231, 34.962 111.072 C 32.146 100.955, 29.250 98.841, 24.591 103.500 C 21.385 106.706, 20.454 111.790, 21.978 117.767 C 22.642 120.370, 24.670 130.570, 26.484 140.434 C 28.965 153.927, 30.228 158.693, 31.582 159.684 C 33.893 161.374, 36.135 161.353, 38.505 159.620 C 39.865 158.626, 41.139 158.501, 43.069 159.174 C 45.065 159.870, 47.222 159.588, 51.552 158.066 C 54.746 156.944, 57.511 156.178, 57.697 156.364 C 57.883 156.550, 57.579 163.857, 57.021 172.601 C 56.463 181.345, 56.005 192.601, 56.004 197.614 C 56 207.581, 54.536 217.305, 52.959 217.841 C 50.669 218.619, 39.420 226.632, 35.849 230.028 C 29.069 236.479, 31.153 244, 39.721 244 C 43.117 244, 44.590 243.275, 48.696 239.583 C 51.398 237.154, 56.401 233.530, 59.813 231.530 C 68.236 226.594, 80.927 216.930, 85.203 212.197 C 88.439 208.615, 88.803 208.455, 89.857 210.142 C 90.486 211.149, 91 212.641, 91 213.458 C 91 214.275, 92.093 217.414, 93.429 220.435 C 95.944 226.122, 98.602 227.860, 103.016 226.706 C 105.501 226.056, 105.514 225.749, 102.418 240.336 C 99.152 255.723, 95.878 265.529, 90.886 274.877 C 86.735 282.648, 86.586 285.173, 90.161 287.086 C 92.941 288.574, 96.681 287.445, 99.694 284.210 C 102.667 281.017, 111.993 262.275, 112.015 259.452 C 112.023 258.378, 112.721 255.514, 113.566 253.086 C 116.054 245.942, 120.037 229.402, 121.506 220.119 C 122.256 215.378, 124.030 204.750, 125.448 196.500 C 126.866 188.250, 128.471 175.650, 129.015 168.500 C 130.308 151.479, 131.641 140.025, 132.419 139.248 C 132.762 138.904, 137.646 138.286, 143.272 137.874 C 148.897 137.461, 157.775 136.453, 163 135.634 C 168.225 134.814, 175.650 133.859, 179.500 133.511 C 183.350 133.163, 187.738 132.645, 189.250 132.360 L 192 131.841 192 142.271 L 192 152.701 178.866 153.394 C 165.193 154.116, 161.378 155.195, 158.632 159.116 C 157.527 160.693, 157.392 161.901, 158.110 163.790 C 160.022 168.818, 161.249 169.113, 177.355 168.411 C 191.559 167.792, 192.184 167.845, 191.620 169.632 C 191.295 170.659, 190.964 174.587, 190.884 178.360 C 190.725 185.824, 191.427 186.958, 196.227 186.985 C 200.019 187.006, 202.019 183.515, 203.297 174.642 L 204.355 167.299 213.928 166.095 C 226.582 164.502, 232.356 162.554, 235.502 158.816 C 239.601 153.943, 236.588 148.293, 230.500 149.438 C 221.680 151.096, 205.930 153.263, 205.539 152.872 C 205.291 152.624, 205.360 147.630, 205.691 141.774 L 206.294 131.127 215.938 130.813 L 225.582 130.500 224.291 135.468 C 221.908 144.638, 222.910 148, 228.026 148 C 231.421 148, 234.003 145.078, 237.874 136.854 L 241.003 130.208 255.752 129.548 C 263.863 129.185, 271.677 128.666, 273.115 128.394 C 279.020 127.279, 281.978 120.844, 278.402 116.892 C 276.955 115.293, 275.281 115.182, 260.744 115.723 L 244.684 116.320 245.399 111.410 C 247.198 99.046, 247.174 96.580, 245.225 93.500 C 241.899 88.246, 239.009 87.371, 231.220 89.260 C 227.524 90.157, 222.025 91.165, 219 91.501 C 215.975 91.837, 212.480 92.362, 211.233 92.669 C 208.992 93.219, 208.972 93.137, 209.564 85.863 C 209.893 81.813, 210.658 77.197, 211.263 75.605 C 212.249 73.008, 212.080 72.466, 209.628 70.357 C 207.125 68.204, 206.664 68.123, 204.197 69.405 C 199.900 71.636, 197.408 75.976, 196.099 83.500 C 195.430 87.350, 194.675 91.513, 194.422 92.750 C 193.971 94.954, 193.678 95, 179.949 95 C 164.432 95, 159.808 96.132, 157.860 100.407 C 156.932 102.444, 157.036 103.406, 158.410 105.504 C 161.060 109.548, 164.268 110.212, 179.250 109.819 L 193 109.458 193 113.572 L 193 117.686 181.250 118.908 C 174.787 119.579, 161.474 121.487, 151.665 123.146 C 141.856 124.806, 133.629 125.962, 133.383 125.716 C 133.137 125.470, 133.625 115.462, 134.468 103.476 C 136.186 79.040, 136.362 67.263, 135.090 61.789 L 134.228 58.078 139.364 58.105 C 142.189 58.120, 149.900 57.193, 156.500 56.046 C 164.450 54.664, 177.107 53.599, 194 52.892 C 208.025 52.305, 227.067 51.254, 236.314 50.556 C 252.316 49.350, 253.331 49.146, 257.314 46.355 C 262.514 42.710, 263.531 38.094, 259.816 34.997 C 257.050 32.692, 255.127 32.527, 252.473 34.368 C 251.100 35.320, 243.965 36.080, 229 36.868 C 200.933 38.347, 202.091 38.374, 202.638 36.250 C 203.052 34.641, 200.729 30.600, 194.606 22.277 C 193.302 20.504, 191.936 17.056, 191.570 14.615 C 190.622 8.297, 185.853 6.898, 181.452 11.646 M 218.364 106.304 L 208.228 108.319 207.611 112.823 C 207.271 115.300, 207.107 117.437, 207.247 117.572 C 207.386 117.707, 212.328 117.570, 218.228 117.266 C 230.084 116.657, 229.332 117.180, 230.477 108.750 C 230.968 105.137, 230.809 104.035, 229.811 104.145 C 229.090 104.225, 223.939 105.196, 218.364 106.304 M 78 117.890 C 75.779 118.504, 75.465 119.190, 75.189 124.036 L 74.878 129.491 78.029 126.495 C 80.820 123.841, 84 119.077, 84 117.550 C 84 116.846, 81.204 117.005, 78 117.890 M 220.500 191.646 C 205.049 194.029, 182.143 200.536, 174.861 204.611 L 169.221 207.766 166.629 205.174 L 164.037 202.582 161.268 204.631 C 157.253 207.603, 155.993 210.899, 154.912 221.266 C 154.009 229.931, 154.318 236.611, 156.657 258.994 C 157.874 270.634, 160.712 271.401, 200.010 270.709 C 224.231 270.283, 229.696 269.904, 236.480 268.179 C 247.666 265.334, 251.116 260.596, 245.321 256.038 C 243.125 254.311, 241.846 254.051, 238.221 254.594 L 233.799 255.257 238.393 246.379 C 248.153 227.518, 250.983 210.450, 246 200.517 C 242.744 194.026, 238.861 191.803, 230.169 191.453 C 226.501 191.305, 222.150 191.392, 220.500 191.646 M 213 208.116 C 207.225 209.155, 199.575 210.991, 196 212.194 C 192.425 213.398, 185.225 215.315, 180 216.454 L 170.500 218.525 169.619 224.061 C 169.134 227.106, 169.067 235.762, 169.471 243.298 L 170.205 257 191.852 256.986 C 203.759 256.979, 214.497 256.705, 215.715 256.379 C 221.599 254.801, 232 226.844, 232 212.606 L 232 206 227.750 206.113 C 225.412 206.176, 218.775 207.077, 213 208.116" stroke="none" fill="black" fill-rule="evenodd"/>
</svg>