<svg xmlns="http://www.w3.org/2000/svg" width="300" height="300" viewBox="0 0 300 300" version="1.1">
	<path d="M 153.762 27.073 C 150.618 28.905, 149.507 32.375, 149 41.939 L 148.500 51.377 143.500 52.662 C 140.750 53.369, 132.875 54.898, 126 56.060 C 111.210 58.559, 107.409 60.082, 106.699 63.797 C 105.966 67.628, 108.410 71.711, 111.893 72.477 C 115.044 73.169, 126.987 71.795, 138.855 69.375 C 142.900 68.551, 146.427 68.093, 146.692 68.359 C 146.958 68.625, 146.569 75.026, 145.828 82.584 L 144.481 96.326 135.490 99.498 C 123.520 103.723, 118.593 106.359, 116.084 109.882 C 113.391 113.664, 113.439 114.088, 116.935 117.438 C 119.620 120.010, 120.366 120.211, 125.685 119.794 C 129.502 119.495, 134.838 117.904, 141.216 115.162 C 146.560 112.865, 157.087 109.330, 164.610 107.307 C 178.487 103.575, 184 100.683, 184 97.134 C 184 94.815, 181.195 91.008, 178.847 90.139 C 177.144 89.509, 177.883 88.352, 184.889 80.683 C 193.892 70.827, 196.268 67.328, 198.046 61.302 C 199.542 56.234, 198.405 52.720, 193.861 48.367 C 190.976 45.604, 190.516 45.502, 181.184 45.556 C 175.858 45.586, 169.916 45.925, 167.980 46.308 L 164.461 47.004 164.838 39.533 C 165.202 32.326, 165.108 31.954, 162.185 29.031 C 159.037 25.883, 156.727 25.346, 153.762 27.073 M 76.353 33.750 C 74.780 35.263, 72.171 38.300, 70.555 40.500 C 68.939 42.700, 66.578 45.491, 65.308 46.702 C 64.039 47.913, 63 49.306, 63 49.797 C 63 50.288, 62.048 51.547, 60.884 52.595 C 57.614 55.540, 44.248 73.593, 40.688 79.875 C 33.148 93.178, 33.145 100.689, 40.678 99.822 C 42.858 99.571, 44.477 98.027, 47.989 92.850 C 50.470 89.193, 57.675 80.037, 64 72.504 C 89.865 41.699, 89 42.863, 89 38.856 C 89 36.038, 88.366 34.646, 86.365 33.073 C 82.793 30.263, 79.765 30.468, 76.353 33.750 M 166.487 63.212 L 162.474 64.184 160.158 76.842 C 158.883 83.804, 157.621 90.287, 157.353 91.250 C 156.501 94.308, 159.676 93.196, 161.013 89.968 C 161.704 88.301, 163.446 85.394, 164.884 83.509 C 166.323 81.625, 168.625 78.462, 170 76.481 C 171.375 74.501, 172.992 72.335, 173.594 71.668 C 174.195 71.001, 175.888 68.553, 177.356 66.228 L 180.025 62 175.263 62.120 C 172.643 62.186, 168.694 62.678, 166.487 63.212 M 76.171 71.056 C 74.957 72.186, 71.999 77.024, 69.597 81.806 C 65.208 90.541, 60.690 97.111, 49.519 111 C 38.001 125.319, 35.853 128.280, 32.104 135 C 31.030 136.925, 28.093 141.400, 25.576 144.945 C 19.316 153.762, 19.692 157, 26.972 157 C 31.468 157, 36.286 153.176, 43.057 144.231 L 48 137.702 48 147.292 C 48 152.607, 48.446 157.157, 49 157.500 C 50.241 158.267, 50.390 242.641, 49.153 243.406 C 48.687 243.694, 48.005 248.516, 47.637 254.122 C 46.757 267.555, 45.124 277.831, 43.308 281.358 C 40.618 286.584, 43.058 289.943, 49.576 289.986 C 53.659 290.013, 57.514 283.529, 60.011 272.432 C 60.515 270.195, 61.639 261.420, 62.509 252.932 C 63.793 240.415, 64.052 226.259, 63.882 178 L 63.672 118.500 69.188 110.852 C 72.221 106.645, 76.377 99.969, 78.423 96.016 C 82.798 87.561, 85.769 74.306, 84.021 71.040 C 82.618 68.418, 78.994 68.425, 76.171 71.056 M 261.304 78.099 C 258.996 79.160, 251.571 81.170, 244.804 82.565 C 219.446 87.793, 210 92.371, 210 99.434 C 210 104.260, 212.957 106.453, 219.318 106.347 C 224.269 106.264, 238.398 102.685, 240.500 100.981 C 241.050 100.535, 245.732 98.981, 250.905 97.526 C 261.737 94.481, 266.516 92.242, 271.472 87.890 C 275.498 84.355, 275.952 81.399, 272.961 78.189 C 270.479 75.525, 266.958 75.498, 261.304 78.099 M 265.500 109.088 C 262.200 110.242, 257.494 112.098, 255.043 113.212 C 251.972 114.608, 246.994 115.508, 239.043 116.103 C 222.577 117.335, 220.086 117.770, 214.493 120.383 C 208.140 123.352, 205.757 126.009, 206.175 129.654 C 206.714 134.351, 210.378 135.400, 221.846 134.144 C 238.018 132.372, 246.163 131.927, 245.595 132.847 C 245.298 133.327, 245.529 159.139, 246.109 190.207 C 246.688 221.274, 247.013 247.882, 246.831 249.335 L 246.500 251.977 239.705 248.811 C 231.870 245.161, 228.229 245.565, 226.575 250.268 C 225.122 254.399, 226.888 257.952, 232.513 262.216 C 239.900 267.817, 245.182 270, 251.343 270 C 257.247 270, 261.092 267.519, 263.010 262.473 C 264.291 259.105, 264.263 234.486, 262.914 179.174 C 262.317 154.675, 262.126 132.644, 262.490 130.215 C 263.145 125.847, 263.236 125.761, 270.826 122.267 C 279.210 118.407, 279.977 117.712, 279.953 114 C 279.912 107.745, 274.553 105.924, 265.500 109.088 M 156 119.640 C 147.296 121.278, 141.678 123.272, 138.972 125.683 C 136.565 127.827, 135.071 128.358, 132.055 128.140 C 128.699 127.898, 127.874 128.299, 125.604 131.275 C 123.159 134.480, 122.033 140.700, 123.611 142.278 C 124.580 143.247, 131 158.352, 131 159.663 C 131 160.314, 129.650 162.196, 128 163.846 C 124.953 166.893, 124.314 169.369, 125.920 171.905 C 126.671 173.092, 128.263 173.121, 136.155 172.093 C 141.295 171.423, 147.039 170.614, 148.920 170.295 L 152.340 169.714 150.228 172.680 C 149.066 174.311, 147.809 177.957, 147.434 180.782 L 146.753 185.918 139.127 187.527 C 126.720 190.143, 119.902 192.989, 115.750 197.284 C 111.592 201.585, 110.936 205.142, 113.916 207.229 C 115.767 208.525, 115.719 208.751, 112.498 213.859 C 110.665 216.767, 108.635 221.353, 107.988 224.049 C 106.964 228.320, 107.050 229.438, 108.656 232.726 C 109.777 235.020, 111.872 237.186, 114 238.248 C 118.780 240.636, 130.543 240.549, 140.040 238.056 C 144.113 236.987, 147.597 236.264, 147.783 236.450 C 147.969 236.636, 148.533 247.624, 149.036 260.868 C 149.637 276.703, 150.371 285.621, 151.180 286.917 C 153.375 290.432, 160.029 290.581, 161.635 287.151 C 162.060 286.243, 162.879 273.170, 163.454 258.101 L 164.500 230.702 171.689 228.134 C 176.779 226.315, 179.187 224.885, 179.939 223.236 C 181.445 219.930, 181.274 218.622, 178.991 215.989 C 177.088 213.795, 176.636 213.724, 170.491 214.642 L 164 215.612 164 207.054 L 164 198.497 168.551 196.082 C 173.227 193.601, 178 188.811, 178 186.598 C 178 184.740, 173.538 180.895, 171.380 180.894 C 170.346 180.893, 168.262 181.194, 166.750 181.563 C 164.099 182.209, 164 182.090, 164 178.263 C 164 175.390, 163.293 173.529, 161.445 171.535 C 160.039 170.018, 159.027 168.704, 159.195 168.614 C 159.363 168.525, 161.525 167.787, 164 166.976 C 167.391 165.864, 168.581 164.931, 168.827 163.192 C 169.311 159.777, 166.441 156, 163.361 156 L 160.767 156 164.190 152.211 C 170.165 145.598, 177 134.547, 177 131.500 C 177 129.010, 173.759 123.964, 170.811 121.866 C 167.747 119.684, 161.087 118.683, 156 119.640 M 149.429 136.994 C 146.640 137.403, 143.423 138.238, 142.281 138.850 C 140.381 139.867, 140.299 140.325, 141.318 144.231 C 141.931 146.579, 142.444 150.662, 142.458 153.304 C 142.480 157.621, 142.686 158.053, 144.491 157.567 C 145.596 157.270, 147.095 157.021, 147.823 157.014 C 148.565 157.006, 148.972 156.231, 148.750 155.250 C 148.311 153.316, 150.449 148.408, 152.718 146.139 C 154.304 144.553, 159 137.362, 159 136.520 C 159 135.877, 156.037 136.024, 149.429 136.994 M 140.840 204.363 C 135.633 206.329, 134.733 207.163, 129.590 214.789 C 126.516 219.347, 124 223.285, 124 223.539 C 124 224.530, 128.915 223.914, 138.247 221.755 L 147.993 219.500 147.997 211.309 C 147.998 206.804, 147.662 202.917, 147.250 202.672 C 146.838 202.426, 143.953 203.187, 140.840 204.363" stroke="none" fill="black" fill-rule="evenodd"/>
</svg>