<svg xmlns="http://www.w3.org/2000/svg" width="300" height="300" viewBox="0 0 300 300" version="1.1">
	<path d="M 142.321 12.245 C 141.123 12.793, 139.602 14.547, 138.941 16.141 C 137.854 18.767, 138.071 19.580, 141.249 24.770 C 145.708 32.054, 148.544 37.783, 149.346 41.127 C 149.906 43.459, 149.626 43.825, 146.863 44.377 C 145.151 44.720, 142.119 44.995, 140.125 44.990 C 135.312 44.976, 86.694 52.012, 76.826 54.150 C 72.130 55.168, 70.582 56.748, 71.624 59.462 C 72.590 61.981, 76.003 62.428, 93.500 62.330 C 105.834 62.261, 113.656 61.674, 122 60.193 C 147.253 55.711, 166.028 54.056, 192.030 54.023 C 210.896 53.998, 232.435 51.837, 237.430 49.466 C 239.129 48.660, 241.111 47.052, 241.836 45.892 C 245.314 40.322, 235.946 33.024, 231.030 37.473 C 228.788 39.502, 215.171 40.741, 187.230 41.460 C 174.431 41.789, 162.506 42.330, 160.730 42.661 C 158.067 43.159, 157.719 43.031, 158.750 41.932 C 160.561 40.002, 160.294 36.259, 157.824 28.944 C 153.388 15.809, 147.766 9.752, 142.321 12.245 M 179.500 63.144 C 176.200 63.676, 168.775 64.964, 163 66.005 C 157.225 67.047, 147.325 68.178, 141 68.519 C 128.713 69.182, 124.537 70.230, 121.750 73.348 C 120.787 74.425, 120 74.787, 120 74.153 C 120 72.878, 116.130 72.610, 114.400 73.765 C 109.968 76.724, 110.419 83.729, 115.711 94.146 C 118.435 99.508, 119.780 101.129, 121.850 101.545 C 123.307 101.839, 127.081 102.736, 130.235 103.539 C 137.752 105.454, 140.262 105.387, 150.500 103 C 155.218 101.900, 161.728 101, 164.967 101 C 168.784 101, 171.368 100.489, 172.310 99.548 C 173.108 98.749, 174.008 98.342, 174.309 98.643 C 174.611 98.944, 176.352 98.866, 178.178 98.470 C 182.064 97.627, 200.112 80.558, 202.041 75.902 C 203.844 71.548, 202.532 66.745, 198.962 64.637 C 195.258 62.449, 187.504 61.854, 179.500 63.144 M 177.500 77.144 C 174.200 77.633, 166.100 78.917, 159.500 79.999 C 152.900 81.081, 142.550 82.132, 136.500 82.335 C 130.450 82.538, 125.548 83.108, 125.607 83.602 C 126.132 87.986, 128.426 93.850, 129.375 93.236 C 133.670 90.457, 162.335 87.875, 167.789 89.776 C 170.475 90.713, 171.282 90.515, 174.339 88.172 C 178.507 84.978, 186.090 75.876, 184.372 76.128 C 183.893 76.199, 180.800 76.656, 177.500 77.144 M 176.500 104.027 C 168.800 104.481, 156.653 105.560, 149.506 106.426 C 142.359 107.292, 131.724 108, 125.871 108 C 112.154 108, 105.469 109.949, 103.253 114.595 C 101.007 119.305, 102.079 121, 107.302 121 C 109.703 121, 111.947 121.281, 112.290 121.624 C 112.634 121.967, 112.064 123.914, 111.025 125.950 C 109.508 128.924, 108.917 133.574, 108.018 149.576 C 106.793 171.406, 107.307 180.622, 110.055 186.068 C 112.512 190.939, 118.739 196.353, 124.346 198.494 C 126.906 199.472, 129 200.426, 129 200.615 C 129 200.804, 126.880 202.881, 124.288 205.229 C 121.696 207.578, 116.171 212.650, 112.008 216.500 C 107.846 220.350, 101.079 226.057, 96.970 229.182 C 87.398 236.463, 85.513 238.131, 73.750 249.725 C 63.632 259.697, 62.008 262.864, 65.934 264.965 C 69.404 266.822, 71.603 266.075, 77.273 261.113 C 84.612 254.691, 95 246.718, 95 247.507 C 95 247.851, 94.532 249.006, 93.960 250.075 C 92.359 253.066, 90.970 272.779, 91.891 279.424 C 92.587 284.440, 93.269 285.858, 96.342 288.674 C 100.208 292.218, 103.605 292.844, 108.685 290.951 C 110.233 290.374, 118.138 283.292, 126.250 275.213 C 141.265 260.261, 142.777 257.919, 139.518 254.660 C 137.420 252.563, 134.177 253.635, 129.500 257.969 C 124.524 262.581, 105.467 278, 104.743 278 C 102.674 278, 103.811 262.158, 107.237 243.247 C 108.429 236.664, 108.917 235.701, 112.525 232.807 C 114.711 231.053, 121.016 225.271, 126.535 219.958 C 132.054 214.644, 138.448 209.111, 140.742 207.663 C 143.037 206.214, 145.375 204.168, 145.939 203.114 C 146.827 201.456, 148.537 201.116, 158.732 200.571 C 179.268 199.474, 201.496 192.751, 205.676 186.372 C 207.734 183.230, 206.666 179.572, 202.862 176.740 L 200.223 174.776 196.434 177.351 C 188.363 182.836, 166.796 187, 146.462 187 C 134.038 187, 131.366 186.717, 128.113 185.058 C 121.740 181.807, 120.544 179.015, 120.521 167.338 C 120.509 161.749, 120.778 156.896, 121.118 156.553 C 121.458 156.211, 127.758 154.848, 135.118 153.525 C 163.297 148.460, 176.070 145.491, 177.176 143.750 C 178.397 141.827, 178.147 138.584, 176.618 136.492 C 175.438 134.878, 174.105 134.638, 167.489 134.850 C 159.845 135.094, 159.750 135.066, 160.357 132.798 C 160.696 131.534, 160.979 127.961, 160.986 124.857 C 160.997 120.642, 161.400 119.060, 162.582 118.607 C 163.453 118.273, 170.032 117.703, 177.203 117.340 C 189.828 116.701, 190.209 116.740, 189.225 118.590 C 187.233 122.332, 183 136.089, 183 138.821 C 183 140.349, 183.540 142.140, 184.200 142.800 C 185.797 144.397, 190.481 144.330, 191.841 142.691 C 194.919 138.982, 206 114.734, 206 111.707 C 206 104.037, 200.527 102.612, 176.500 104.027 M 133.500 121.043 C 127.450 121.429, 122.402 121.803, 122.281 121.873 C 122.161 121.943, 122.311 122.647, 122.615 123.439 C 122.919 124.230, 122.686 128.811, 122.098 133.620 C 121.509 138.428, 121.205 142.539, 121.422 142.755 C 121.638 142.971, 125.344 142.240, 129.657 141.131 C 133.971 140.021, 139.637 138.835, 142.250 138.496 L 147 137.877 147 128.939 C 147 122.364, 146.669 120.045, 145.750 120.170 C 145.063 120.264, 139.550 120.657, 133.500 121.043 M 178.485 217.086 C 174.210 219.324, 170.481 222.804, 167.537 227.301 C 166.528 228.842, 164.427 230.762, 162.867 231.569 C 160.049 233.026, 159.991 232.993, 153.766 226.402 C 146.622 218.839, 143.714 217.280, 140.234 219.142 C 138.172 220.246, 137.968 220.883, 138.535 224.448 C 139.334 229.475, 141.895 233.407, 150.648 243.044 C 170.484 264.883, 189.805 278.382, 212 285.908 C 227.393 291.128, 235.170 291.252, 240.971 286.371 C 244.325 283.549, 244.905 280.048, 242.428 277.571 C 241.169 276.311, 239.510 276.125, 234.074 276.630 C 225.609 277.417, 218.628 275.334, 201.500 266.914 C 192.320 262.401, 187.047 258.957, 179.063 252.257 C 173.322 247.441, 168.468 242.999, 168.275 242.387 C 168.082 241.775, 169.283 240.711, 170.943 240.024 C 172.603 239.336, 177.120 235.448, 180.980 231.384 C 186.611 225.457, 188 223.373, 188 220.857 C 188 217.894, 185.839 215.106, 183.485 215.032 C 182.927 215.014, 180.677 215.939, 178.485 217.086" stroke="none" fill="black" fill-rule="evenodd"/>
</svg>