<svg xmlns="http://www.w3.org/2000/svg" width="300" height="300" viewBox="0 0 300 300" version="1.1">
	<path d="M 173.655 9.829 C 172.745 10.835, 172 13.032, 172 14.712 C 172 17.239, 173.136 18.735, 178.580 23.383 C 182.517 26.743, 186.103 29, 187.509 29 C 189.841 29, 193 26.677, 193 24.962 C 193 22.965, 189.324 16.498, 186.683 13.846 C 180.524 7.666, 176.684 6.482, 173.655 9.829 M 227.500 32.059 C 213.418 33.280, 200.381 34.970, 189.500 36.985 C 171.103 40.392, 156.569 42.866, 148.553 43.955 C 144.183 44.549, 139.155 45.891, 137.380 46.938 L 134.153 48.842 132.688 45.671 C 131.882 43.927, 130.930 41.529, 130.573 40.342 C 129.183 35.724, 124.229 36.724, 121.401 42.192 C 118.684 47.446, 120.004 51.817, 127.055 60.913 C 132.650 68.132, 133.678 69, 136.627 69 C 140.728 69, 142.481 66.395, 141 62.500 C 139.061 57.400, 139.472 57, 146.652 57 C 150.310 57, 158.072 56.071, 163.902 54.936 C 187.701 50.302, 195.177 49.011, 209.500 47.059 C 226.979 44.676, 243.132 43.453, 245.437 44.337 C 246.847 44.879, 246.728 45.471, 244.495 49.007 C 240.689 55.037, 240.285 58.386, 243.123 60.373 C 244.400 61.268, 246.184 62, 247.088 62 C 252.055 62, 261 48.873, 261 41.583 C 261 36.502, 257.823 32.615, 252.861 31.622 C 249.043 30.859, 239.438 31.024, 227.500 32.059 M 63.277 63.250 C 58.581 68.150, 56.928 75.481, 56.162 94.810 L 55.500 111.500 48.347 113 C 44.414 113.825, 40.229 115.377, 39.049 116.449 C 36.113 119.115, 36.656 123.675, 40.226 126.328 C 42.655 128.134, 43.472 128.234, 47.726 127.247 C 50.352 126.639, 53.288 125.836, 54.250 125.463 C 55.860 124.840, 56 125.794, 56 137.374 L 56 149.962 53.317 150.635 C 51.841 151.006, 49.107 152.345, 47.241 153.611 C 45.375 154.877, 43.049 156.167, 42.071 156.478 C 41.093 156.788, 39.472 158.565, 38.469 160.427 C 36.746 163.626, 36.740 163.954, 38.346 166.406 C 40.455 169.624, 44.397 169.821, 50.236 167 C 52.513 165.900, 54.741 165, 55.188 165 C 55.635 165, 56 177.528, 56 192.841 C 56 214.280, 55.667 221.790, 54.550 225.500 C 53.568 228.762, 53.409 230.896, 54.058 232.109 C 54.869 233.623, 54.291 234.220, 50.314 235.979 C 47.728 237.123, 44.537 238.329, 43.225 238.658 C 41.912 238.988, 38.624 241.471, 35.919 244.176 C 28.166 251.929, 29.668 257.516, 39.003 255.649 C 43.335 254.783, 66.663 244.127, 72.932 240.151 C 80.119 235.593, 86.699 229.478, 90.028 224.265 L 92.732 220.031 93.372 224.695 C 94.996 236.545, 100.009 248.347, 104.145 250.060 C 110.655 252.757, 112.756 246.746, 109.409 235 C 108.512 231.852, 107.515 222.656, 107.078 213.500 C 106.446 200.245, 105.931 196.616, 104.075 192.345 C 101.962 187.481, 99.436 185.452, 97.260 186.873 C 94.476 188.690, 92.556 197.140, 92.860 206.235 L 93.052 211.970 90.514 211.005 C 88.221 210.134, 87.359 210.644, 81.612 216.270 C 78.113 219.697, 74.631 222.973, 73.875 223.550 C 70.847 225.863, 66.032 228.365, 65.545 227.878 C 65.261 227.594, 65.728 224.243, 66.582 220.431 C 67.679 215.535, 68.302 205.361, 68.703 185.774 C 69.260 158.658, 69.319 158.034, 71.386 157.412 C 75.923 156.045, 85.584 151.206, 86.871 149.655 C 87.726 148.625, 88.011 146.818, 87.642 144.761 C 87.108 141.780, 87.406 141.285, 91.109 139 C 97.767 134.891, 106.746 124.873, 107.534 120.673 C 109.014 112.782, 104.377 106.677, 96.169 105.708 C 91.270 105.130, 75.204 106.329, 71.107 107.578 L 68.714 108.308 69.440 94.608 C 69.839 87.074, 70.578 79.470, 71.083 77.711 C 71.587 75.952, 72 71.948, 72 68.813 C 72 64.057, 71.632 62.856, 69.777 61.557 C 66.845 59.503, 66.877 59.495, 63.277 63.250 M 183.500 63.089 C 177.450 64.701, 169.342 66.505, 165.483 67.097 C 159.411 68.029, 158.300 68.526, 157.233 70.786 C 155.478 74.504, 155.677 75.768, 158.455 78.545 C 161.897 81.988, 165.975 81.754, 185.802 76.977 C 212.018 70.662, 211.055 70.984, 212.132 68.152 C 212.889 66.162, 212.686 65.055, 211.196 63.055 C 208.316 59.189, 198.091 59.201, 183.500 63.089 M 225.580 75.513 C 224.089 76.896, 221.210 78.882, 219.184 79.928 C 215.066 82.055, 209.413 87.355, 200.516 97.435 L 194.531 104.214 193.359 101.357 C 192.714 99.786, 191.877 95.624, 191.499 92.110 C 190.415 82.040, 185.069 78.102, 179.924 83.583 C 177.803 85.844, 177.510 87.062, 177.583 93.333 C 177.670 100.835, 179.850 107.215, 183.936 111.927 L 185.958 114.258 177.276 123.716 C 172.500 128.918, 167.447 134.071, 166.047 135.166 C 164.646 136.261, 158.100 142.411, 151.500 148.832 C 144.900 155.253, 136.167 163.430, 132.093 167.003 C 128.019 170.577, 122.780 175.300, 120.451 177.500 C 118.122 179.700, 114.368 183.246, 112.108 185.379 C 107.715 189.528, 106.900 192.757, 109.571 195.429 C 111.740 197.598, 115.789 197.394, 120.515 194.879 C 125.429 192.264, 144.437 177.066, 157.930 164.965 L 168 155.934 167.987 167.217 C 167.980 173.423, 167.080 187.048, 165.987 197.495 C 164.894 207.942, 164 221.094, 164 226.722 C 164 236.478, 164.114 237.029, 166.451 238.560 C 167.799 239.443, 169.714 239.908, 170.706 239.593 C 171.698 239.278, 174.447 239.354, 176.814 239.760 C 181.058 240.490, 181.092 240.527, 179.268 242.500 C 175.294 246.796, 163.983 264.834, 163.384 267.830 C 162.014 274.682, 169.762 276.546, 175.350 270.709 C 180 265.852, 190.189 254.037, 193.344 249.843 L 196.096 246.185 200.798 251.341 C 215.672 267.651, 232.742 282.782, 241 286.978 C 247.223 290.140, 250.163 290.291, 253.482 287.619 C 256.122 285.493, 256.350 284.899, 255.478 282.417 C 254.824 280.558, 252.882 278.786, 249.709 277.153 C 245.630 275.054, 236.749 267.453, 217.500 249.587 C 215.300 247.545, 212.150 245.210, 210.500 244.399 C 208.850 243.588, 206.267 241.916, 204.761 240.683 L 202.022 238.443 204.503 233.782 C 205.868 231.219, 206.754 228.522, 206.472 227.788 C 206.178 227.023, 207.245 225.696, 208.975 224.674 C 212.399 222.651, 213.681 219.142, 212.086 216.161 C 210.109 212.466, 207.393 212.599, 198.703 216.819 C 181.743 225.055, 179.707 225.937, 178.864 225.416 C 177.539 224.597, 177.794 216.095, 179.680 198.250 L 181.398 182 185.254 182 C 187.375 182, 190.998 181.161, 193.305 180.136 C 195.612 179.111, 200.650 177.462, 204.500 176.471 C 212.664 174.370, 214 173.538, 214 170.552 C 214 166.450, 210.047 164, 203.431 164 C 198.290 164, 186.955 167.056, 182.977 169.514 C 182.364 169.893, 182 166.071, 182 159.245 L 182 148.372 187.750 148.780 C 191.637 149.056, 197.324 148.327, 205.305 146.531 C 211.797 145.070, 218.097 144.016, 219.305 144.188 C 221.420 144.489, 221.544 145.159, 222.711 162.500 C 223.377 172.400, 223.903 190.850, 223.880 203.500 C 223.856 216.150, 223.874 227.072, 223.918 227.771 C 224.056 229.919, 228.438 231.371, 230.863 230.073 C 235.274 227.713, 236.201 223.794, 237.978 200 C 238.840 188.445, 238.656 182.464, 236.500 152 C 235.736 141.206, 234.245 136.085, 231.042 133.251 C 227.447 130.071, 216.301 130.142, 203.763 133.426 C 188.934 137.309, 182.023 140.958, 181.985 144.924 C 181.971 146.297, 181.848 146.308, 181.029 145.012 C 180.307 143.870, 182.358 141.196, 189.852 133.512 C 195.223 128.006, 203.617 118.775, 208.507 113 C 213.398 107.225, 219.751 99.923, 222.625 96.773 C 225.500 93.623, 229.304 88.096, 231.079 84.492 C 233.967 78.625, 234.166 77.679, 232.983 75.469 C 231.300 72.324, 229.006 72.338, 225.580 75.513 M 166 94.728 C 162.511 96.054, 149.921 107.669, 143.713 115.291 C 137.214 123.271, 137.402 129, 144.165 129 C 146.176 129, 149.286 126.946, 155.565 121.471 C 160.314 117.331, 164.841 113.302, 165.625 112.518 C 166.408 111.734, 169.063 109.443, 171.525 107.426 C 177.256 102.730, 177.657 98.981, 172.750 95.989 C 169.376 93.932, 168.517 93.771, 166 94.728 M 21.816 115.344 C 18.839 117.607, 18.603 121.580, 21.049 128.272 C 22.301 131.697, 23.661 134.950, 24.071 135.500 C 24.481 136.050, 25.740 139.135, 26.869 142.355 C 29.079 148.657, 32.890 154.336, 36.041 156.022 C 38.613 157.398, 41.776 155.739, 42.564 152.600 C 43.453 149.060, 33.295 120.161, 29.677 115.935 C 27.786 113.727, 24.289 113.464, 21.816 115.344 M 78.500 119.692 C 77.400 119.945, 74.813 120.585, 72.750 121.114 L 69 122.077 69 130.539 C 69 138.126, 69.831 140.700, 71.441 138.095 C 71.748 137.598, 74.375 135.850, 77.278 134.212 C 82.431 131.304, 88.711 125.277, 90.953 121.088 C 92.029 119.077, 91.856 119.004, 86.285 119.116 C 83.103 119.180, 79.600 119.439, 78.500 119.692 M 201.901 190.432 C 201.663 190.670, 197.956 191.806, 193.662 192.957 C 183.453 195.692, 181 197.331, 181 201.415 C 181 205.861, 182.582 207, 188.762 207 C 194.477 207, 203.510 203.521, 207.750 199.686 C 210.473 197.224, 210.648 193.896, 208.171 191.655 C 206.478 190.123, 202.907 189.426, 201.901 190.432" stroke="none" fill="black" fill-rule="evenodd"/>
</svg>