<svg xmlns="http://www.w3.org/2000/svg" width="300" height="300" viewBox="0 0 300 300" version="1.1">
	<path d="M 97.783 20.250 C 96.274 22.597, 94.011 34.478, 93.985 40.193 C 93.976 42.012, 93.639 44.019, 93.235 44.654 C 92.831 45.288, 88.225 46.533, 83 47.419 C 68.866 49.817, 63.863 51.609, 61.329 55.186 C 57.670 60.349, 61.769 65.684, 68.500 64.523 C 70.150 64.238, 75.325 63.537, 80 62.964 C 84.675 62.392, 89.287 61.685, 90.250 61.394 C 92.663 60.665, 92.558 63.653, 89.500 82.597 C 85.649 106.456, 86.245 112.148, 93.061 116.659 C 99.601 120.987, 105.309 119.861, 123.818 110.591 C 139.275 102.850, 141.929 100.585, 140.354 96.481 C 138.865 92.599, 133.758 92.062, 127.710 95.150 C 125.395 96.332, 118.662 99.003, 112.750 101.087 L 102 104.874 102 100.300 C 102 97.785, 102.452 91.851, 103.004 87.113 C 103.556 82.376, 104.269 74.161, 104.589 68.858 L 105.170 59.216 108.335 58.599 C 110.076 58.260, 116.577 56.377, 122.782 54.415 C 137.043 49.906, 140.669 46.443, 137.964 39.914 C 136.346 36.007, 132.824 35.155, 129.829 37.945 C 128.570 39.118, 126.631 40.286, 125.520 40.542 C 120.519 41.691, 108.780 44, 107.935 44 C 107.421 44, 107 41.674, 107 38.832 C 107 35.989, 106.501 30.797, 105.891 27.294 C 104.344 18.410, 100.894 15.413, 97.783 20.250 M 208.500 39.721 C 205.785 40.159, 183.989 45.474, 170.500 48.987 C 164.450 50.562, 157.304 52.146, 154.620 52.506 C 148.027 53.391, 145.067 54.886, 144.364 57.684 C 143.678 60.419, 145.172 62.520, 149.329 64.670 C 152.877 66.505, 161.659 66.097, 172.877 63.577 C 176.934 62.666, 180.451 62.118, 180.692 62.359 C 180.934 62.600, 179.808 65.431, 178.191 68.649 C 176.574 71.867, 173.361 79.675, 171.050 86 C 166.631 98.100, 161.698 107.829, 157.383 112.957 C 154.443 116.451, 153.708 122.570, 156.050 124.052 C 159.574 126.282, 163.280 125.085, 167.828 120.250 C 179.430 107.916, 186.727 92.763, 192.963 68.051 L 195.600 57.602 202.521 55.856 C 206.328 54.895, 209.650 54.316, 209.903 54.570 C 210.902 55.569, 213.184 95.373, 212.539 100.537 L 211.852 106.031 208.879 103.914 C 206.290 102.070, 205.527 101.953, 202.977 103.009 C 198.759 104.757, 197.828 110.118, 201.128 113.651 C 205.168 117.976, 208.717 119.261, 215.309 118.784 C 220.464 118.411, 221.682 117.920, 224.060 115.259 C 227.962 110.892, 228.557 103.299, 227.162 75.654 C 225.907 50.790, 224.788 45.873, 219.616 42.484 C 216.668 40.553, 211.425 39.249, 208.500 39.721 M 137.153 121.867 C 134.158 124.465, 134.411 128.993, 137.872 134.735 C 139.451 137.356, 141.519 141.589, 142.466 144.141 C 144.080 148.491, 144.083 148.943, 142.511 151.342 C 141.294 153.201, 139.692 154.045, 136.667 154.422 C 134.375 154.708, 124.175 156.085, 114 157.482 C 103.825 158.879, 92.125 160.027, 88 160.033 C 76.544 160.050, 69.509 163.861, 70.178 169.690 L 70.500 172.500 85.938 172.777 C 97.555 172.986, 104.942 172.535, 115.786 170.958 C 123.711 169.806, 130.391 169.058, 130.629 169.296 C 130.867 169.534, 129.423 171.027, 127.418 172.614 C 121.202 177.537, 119.905 178.709, 105.078 192.797 C 70.389 225.755, 66.567 230.585, 70.035 237.066 C 70.719 238.343, 72.129 239, 74.189 239 C 76.815 239, 79.066 237.265, 88.456 228 C 94.588 221.950, 99.859 217, 100.169 217 C 100.479 217, 99.668 221.100, 98.366 226.111 C 94.695 240.246, 95.345 252.502, 100.138 259.496 C 102.792 263.369, 105.756 265, 110.143 265 C 113.835 265, 116.789 263.003, 128.569 252.549 C 133.556 248.122, 140.613 241.911, 144.249 238.746 C 147.886 235.582, 151.005 232.115, 151.181 231.041 C 151.432 229.507, 152.766 230.597, 157.415 236.132 C 162.423 242.094, 171.494 250.537, 186.403 263.112 C 195.904 271.126, 223.291 284.738, 238.480 288.996 C 249.371 292.050, 259.324 291.516, 264.455 287.602 C 267.542 285.248, 268 284.345, 268 280.618 C 268 277.097, 267.565 276.105, 265.545 275.024 C 263.426 273.890, 262.708 273.963, 260.295 275.554 C 253.803 279.835, 240.438 276.808, 220.743 266.596 C 206.120 259.014, 206.914 259.470, 198.267 253.697 C 187.876 246.760, 160.986 221.966, 161.007 219.341 C 161.011 218.879, 162.685 217.375, 164.728 216 C 166.770 214.625, 172.284 209.871, 176.981 205.436 C 181.678 201, 188.778 195.001, 192.760 192.105 C 199.295 187.352, 200 186.508, 200 183.439 C 200 179.155, 197.520 178.342, 189.014 179.841 C 180.318 181.373, 177.084 183.259, 170.437 190.676 C 163.635 198.266, 153.790 207.984, 152.892 207.994 C 152.558 207.997, 150.556 205.188, 148.444 201.750 C 143.172 193.171, 137.558 188, 133.514 188 C 130.910 188, 131.845 186.368, 136.039 183.593 C 141.489 179.986, 144.128 175.533, 143.797 170.500 L 143.534 166.500 159.517 163.780 C 168.308 162.284, 180.388 160.398, 186.362 159.589 C 198.070 158.003, 203.999 155.292, 206.167 150.533 C 207.552 147.494, 206.637 143.848, 204.096 142.278 C 202.453 141.264, 201.218 141.461, 196.809 143.440 C 193.889 144.751, 188.575 146.136, 185 146.517 C 181.425 146.897, 173.801 148.062, 168.057 149.105 C 155.359 151.409, 156.080 151.409, 156.681 149.114 C 156.952 148.076, 156.441 144.368, 155.546 140.874 C 151.243 124.078, 143.651 116.232, 137.153 121.867 M 116 201.500 C 110.156 207.375, 108.114 210, 109.390 210 C 111.099 210, 111.171 210.570, 110.367 217.750 C 109.341 226.921, 109.210 248.547, 110.175 249.510 C 111.277 250.609, 114.287 249.205, 117.696 246.003 C 119.453 244.351, 121.175 243, 121.522 243 C 122.323 243, 134.162 234.096, 135.516 232.474 C 136.075 231.804, 138.205 230.122, 140.248 228.736 C 143.417 226.585, 143.745 226.033, 142.482 224.985 C 141.667 224.308, 141 222.226, 141 220.358 C 141 215.700, 133.103 200.302, 128.636 196.250 C 126.665 194.463, 124.919 193, 124.755 193 C 124.590 193, 120.651 196.825, 116 201.500" stroke="none" fill="black" fill-rule="evenodd"/>
</svg>