<svg xmlns="http://www.w3.org/2000/svg" width="300" height="300" viewBox="0 0 300 300" version="1.1">
	<path d="M 113.703 8.776 C 112.819 9.753, 111.808 12.348, 111.457 14.543 C 110.629 19.722, 114.741 50.033, 116.525 51.895 C 117.650 53.070, 116.509 54.880, 109.269 63.395 C 104.544 68.953, 100.178 73.950, 99.567 74.500 C 98.955 75.050, 95.121 79.325, 91.045 84 C 86.969 88.675, 80.680 95.875, 77.068 100 C 73.456 104.125, 66.114 111.884, 60.751 117.243 C 51.255 126.730, 49.729 129.329, 52.200 131.800 C 56.141 135.741, 67.404 128.945, 79.369 115.405 C 83.697 110.507, 87.697 106.329, 88.258 106.120 C 88.933 105.869, 89.062 108.742, 88.637 114.620 C 88.285 119.504, 87.916 130.025, 87.817 138 C 87.609 154.807, 88.256 157, 93.419 157 C 95.933 157, 96.898 157.501, 97.293 159.013 C 97.588 160.141, 99.507 161.732, 101.655 162.629 C 105.256 164.134, 105.948 164.105, 112.995 162.163 C 117.123 161.025, 124.100 159.384, 128.500 158.516 C 148.278 154.615, 156.966 152.101, 161.957 148.833 C 166.281 146.003, 167 145.074, 167 142.323 C 167 140.227, 166.293 138.618, 164.962 137.686 C 163.178 136.436, 162.275 136.481, 157.712 138.045 C 152.967 139.672, 141.653 142.264, 134.755 143.306 L 132.010 143.721 132.589 135.110 C 132.907 130.375, 133.297 126.050, 133.456 125.500 C 133.615 124.950, 136.329 123.622, 139.486 122.549 C 146.328 120.224, 148.431 117.238, 145.504 114.004 C 144.123 112.478, 142.355 111.981, 138.095 111.919 C 132.855 111.843, 132.673 111.761, 135.227 110.628 C 141.901 107.668, 145.826 101.226, 142.800 98.200 C 141.352 96.752, 135 96.589, 135 98 C 135 99.777, 133.431 99.060, 133.359 97.250 C 133.320 96.287, 132.951 94.712, 132.538 93.750 C 131.993 92.482, 132.246 92, 133.458 92 C 136.669 92, 144.742 87.850, 145.961 85.573 C 147.516 82.668, 145.550 79, 142.439 79 C 139.362 79, 123.255 82.577, 117.500 84.539 C 106.959 88.132, 100.746 95.188, 105.761 97.872 C 107.738 98.930, 117.106 97.633, 120.748 95.797 C 123.745 94.286, 124.065 94.839, 122.707 99.178 C 121.802 102.068, 120.929 102.964, 118.555 103.439 C 114.473 104.255, 107.624 107.653, 105.640 109.845 C 104.246 111.386, 104.210 111.905, 105.387 113.515 C 106.421 114.928, 108.388 115.494, 113.379 115.811 C 117.021 116.043, 120 116.565, 120 116.970 C 120 117.376, 117.095 118.973, 113.544 120.519 C 106.377 123.639, 105.382 124.962, 107.280 128.850 C 108.489 131.327, 108.980 131.489, 114.787 131.326 L 121 131.152 121 136.994 C 121 143.582, 120.346 146, 118.565 146 C 117.084 146, 105.484 150.511, 101.975 152.451 L 99.450 153.847 99.681 137.174 C 100.040 111.157, 100.934 93.305, 102.019 90.451 C 102.565 89.015, 105.386 85.288, 108.289 82.170 C 113.018 77.089, 119.570 69.526, 125.652 62.127 L 127.804 59.509 127.548 67.827 C 127.308 75.622, 127.441 76.243, 129.672 77.704 C 131.862 79.139, 132.220 79.114, 134.164 77.382 C 138.476 73.540, 140.206 65.740, 137.878 60.632 C 136.565 57.751, 133.745 56.766, 130.422 58.030 C 128.555 58.739, 129.422 57.120, 134.544 50.329 C 141.522 41.078, 142.931 37.827, 140.983 35.480 C 139.943 34.226, 140.251 33.808, 142.893 32.888 C 145.564 31.956, 148 29.452, 148 27.637 C 148 25.892, 144.296 24, 140.879 24 C 133.788 24, 126.785 29.141, 127.257 34 C 127.474 36.231, 127.909 36.476, 131.295 36.275 L 135.090 36.049 130.295 41.117 L 125.500 46.184 124.853 42.342 C 124.497 40.229, 123.880 32.545, 123.483 25.267 C 122.832 13.334, 122.531 11.786, 120.428 9.517 C 117.674 6.545, 115.898 6.350, 113.703 8.776 M 205.524 11.358 C 203.081 13.145, 203.112 18.350, 205.583 21.133 C 209.123 25.120, 222.253 35, 224.013 35 C 226.529 35, 228.316 32.394, 227.642 29.708 C 227.322 28.433, 224.813 24.940, 222.066 21.945 C 219.319 18.950, 217.056 16.179, 217.036 15.786 C 216.988 14.832, 209.825 10, 208.459 10 C 207.867 10, 206.546 10.611, 205.524 11.358 M 176.132 21.089 C 174.548 22.789, 174.053 25.311, 173.470 34.647 C 173.075 40.955, 172.978 48.115, 173.254 50.558 C 173.735 54.828, 173.651 55, 171.089 55 C 169.623 55, 166.416 56.013, 163.962 57.250 C 159.963 59.267, 159.500 59.862, 159.500 62.987 C 159.500 67.794, 162.907 69.478, 169.597 67.978 C 174.949 66.779, 177 67.208, 177 69.528 C 177 72.910, 183.382 89.973, 188.302 99.745 L 193.460 109.990 191.705 113.245 C 190.740 115.035, 187.922 119.200, 185.443 122.500 C 182.964 125.800, 180.675 129.518, 180.356 130.763 C 179.556 133.888, 181.628 136, 185.495 136 C 188.784 136, 192.821 132.495, 198.741 124.500 C 200.174 122.564, 201.235 121.889, 201.731 122.596 C 207.613 130.981, 216.555 140.825, 221 143.808 C 225.589 146.889, 227.363 147.500, 231.714 147.500 C 237.790 147.500, 239.801 146.002, 240.636 140.855 C 241.532 135.335, 237.132 132.011, 233.602 135.541 C 232.237 136.905, 231.741 136.914, 229.280 135.618 C 225.484 133.619, 217.200 124.811, 212.005 117.250 L 207.710 111 212.013 104.750 C 214.379 101.313, 217.314 97.375, 218.536 96 C 220.596 93.680, 223.134 89.377, 229.486 77.430 C 232.495 71.771, 232.744 67.469, 230.144 66.077 C 227.735 64.788, 225.271 67.038, 220.658 74.738 C 218.759 77.907, 214.006 83.875, 210.096 88 C 206.185 92.125, 202.732 96.294, 202.421 97.265 C 202.110 98.235, 201.414 98.756, 200.874 98.422 C 198.521 96.968, 188 70.755, 188 66.346 C 188 64.613, 188.561 64, 190.147 64 C 197.003 64, 213.720 54.509, 215.451 49.634 C 216.230 47.439, 216.010 46.565, 214.225 44.781 L 212.049 42.605 204.775 46.202 C 197.091 50.001, 186.240 53.573, 185.284 52.617 C 184.972 52.305, 184.288 45.176, 183.765 36.775 C 183.242 28.374, 182.351 20.938, 181.785 20.250 C 180.284 18.427, 178.343 18.715, 176.132 21.089 M 96.245 30.324 C 95.004 31.013, 92.597 34.259, 90.897 37.538 C 89.196 40.817, 87.495 43.725, 87.118 44 C 86.323 44.579, 79.807 54.501, 78.194 57.588 C 76.721 60.407, 77.748 63.785, 80.324 64.603 C 82.051 65.151, 83.745 63.844, 89.679 57.386 C 101.216 44.831, 106.063 33.713, 101.465 30.351 C 99.250 28.731, 99.113 28.731, 96.245 30.324 M 194.133 161.088 C 192.165 163.200, 191.567 166.260, 190.396 180.198 C 189.667 188.878, 190.998 187.820, 178 190.050 C 174.425 190.663, 170.120 192.013, 168.433 193.051 C 165.566 194.814, 165.256 194.828, 163.694 193.265 C 162.131 191.703, 161.841 191.728, 159.261 193.647 C 155.095 196.745, 155.026 202.210, 159.053 209.949 C 162.483 216.538, 166.055 220.009, 169.385 219.985 C 174.730 219.946, 175.531 216.599, 171.926 209.365 L 169.004 203.500 174.252 202.887 C 177.138 202.551, 181.637 201.927, 184.250 201.502 L 189 200.728 189 206.704 L 189 212.680 185.136 213.955 C 183.010 214.657, 179.161 217.035, 176.581 219.240 C 172.886 222.399, 171.956 223.801, 172.196 225.856 C 172.660 229.830, 176.823 230.887, 183.152 228.640 C 185.920 227.656, 188.335 227.002, 188.518 227.185 C 188.866 227.533, 186.874 250.265, 186.448 250.815 C 185.990 251.405, 166.510 255.947, 164.327 255.974 C 161.554 256.007, 156 260.637, 156 262.915 C 156 265.053, 160.048 269, 162.241 269 C 164.680 269, 182.762 265.200, 189 263.376 C 196.001 261.329, 204.951 259.281, 212.086 258.094 C 216.666 257.331, 221.940 255.516, 226.169 253.246 C 227.086 252.755, 233.492 263.841, 234.414 267.515 C 235.457 271.671, 236.811 273, 240 273 C 244.036 273, 245.456 270.642, 245.194 264.381 C 245.010 259.971, 243.772 256.602, 238.484 246.117 C 234.918 239.047, 232 232.513, 232 231.599 C 232 230.684, 231.348 228.375, 230.551 226.468 C 228.681 221.992, 226.185 222.008, 223.116 226.514 C 221.014 229.601, 220.790 230.827, 221.224 236.891 L 221.716 243.768 217.608 245.041 C 212.016 246.774, 197.990 247.831, 198.035 246.516 C 198.054 245.957, 198.714 242.575, 199.500 239 C 200.286 235.425, 200.946 230.137, 200.965 227.250 C 200.996 222.644, 201.250 222, 203.040 222 C 209.193 222, 227.190 206.720, 229.014 199.948 C 230.361 194.945, 229.353 190.895, 226.163 188.500 C 223.885 186.789, 221.946 186.500, 212.741 186.500 L 201.983 186.500 202.137 180.500 C 202.376 171.230, 200.986 161.671, 199.194 160.250 C 197.053 158.552, 196.394 158.661, 194.133 161.088 M 114 162.737 C 109.832 164.346, 107.173 171.407, 107.076 181.125 L 107 188.750 103.875 189.375 C 102.156 189.719, 98.737 190, 96.276 190 C 92.600 190, 91.305 190.532, 89.016 192.983 L 86.229 195.967 84.993 192.983 C 83.620 189.669, 78.251 184, 76.484 184 C 75.860 184, 74.309 185.107, 73.037 186.460 C 69.596 190.123, 70.660 194.507, 78.633 209.532 C 84.499 220.586, 85.971 222.648, 88.605 223.501 C 90.305 224.052, 92.438 225.119, 93.346 225.872 C 94.495 226.826, 96.850 227.107, 101.110 226.798 L 107.225 226.356 106.761 238.928 C 106.505 245.843, 105.983 252.219, 105.599 253.099 C 105.142 254.147, 102.425 255.140, 97.701 255.984 C 85.548 258.156, 81.891 260.953, 83.989 266.471 C 85.299 269.917, 90.174 271.063, 95.203 269.107 C 96.466 268.615, 101.100 267.688, 105.500 267.046 C 115.830 265.539, 125.685 261.817, 130.692 257.531 L 134.666 254.130 137.623 259.315 C 140.992 265.223, 144.823 267.700, 147.981 266.010 C 150.165 264.841, 150.588 261.967, 149.010 259.018 C 148.465 258.001, 147.059 252.657, 145.885 247.143 C 143.381 235.382, 140.996 230.719, 137.724 231.184 C 135.895 231.444, 135.234 232.609, 134.002 237.750 C 133.122 241.426, 131.972 244, 131.211 244 C 130.499 244, 128.923 244.939, 127.708 246.087 C 125.365 248.302, 118.736 252, 117.110 252 C 116.513 252, 116.462 250.875, 116.977 249.079 C 117.438 247.472, 118.137 240.771, 118.530 234.187 L 119.244 222.217 123.372 221.565 C 131.816 220.231, 135.010 218.810, 135.685 216.085 C 136.037 214.663, 138.192 211.849, 140.474 209.831 C 146.291 204.687, 148.661 199.151, 147.174 194.185 C 145.497 188.588, 141.472 187, 128.966 187 L 119 187 119.031 183.250 C 119.048 181.188, 119.494 176.167, 120.023 172.093 C 121.230 162.795, 119.761 160.513, 114 162.737 M 204.750 198.716 C 202.139 199.112, 202 199.407, 202 204.566 C 202 207.803, 202.438 210, 203.084 210 C 204.369 210, 215 200.035, 215 198.831 C 215 197.996, 209.880 197.939, 204.750 198.716 M 90.516 204.632 C 91.896 207.753, 93.308 212.074, 93.653 214.234 C 93.999 216.395, 94.556 217.736, 94.891 217.214 C 95.226 216.692, 98.109 215.511, 101.299 214.590 L 107.097 212.916 106.799 207.208 L 106.500 201.500 99.714 201.842 C 94.705 202.094, 92.285 201.761, 90.468 200.571 L 88.007 198.958 90.516 204.632 M 118 203.418 C 118 205.848, 118.272 208.545, 118.604 209.411 C 119.953 212.927, 128.364 207.974, 131.615 201.750 L 133.051 199 125.526 199 L 118 199 118 203.418" stroke="none" fill="black" fill-rule="evenodd"/>
</svg>