<svg xmlns="http://www.w3.org/2000/svg" width="300" height="300" viewBox="0 0 300 300" version="1.1">
	<path d="M 79 15 C 77.900 16.100, 77 18.019, 77 19.264 C 77 22.443, 80.289 31.079, 84.014 37.679 C 86.289 41.709, 87.167 44.550, 87.167 47.880 C 87.167 50.419, 87.643 53.070, 88.226 53.772 C 88.808 54.474, 89.067 55.266, 88.802 55.532 C 87.892 56.441, 67.208 63.971, 61.627 65.425 C 57.682 66.452, 55.100 66.602, 52.784 65.938 C 48.010 64.569, 47.219 64.736, 45.413 67.493 C 43.436 70.510, 44.129 74.096, 47.262 77.066 C 50.935 80.549, 61.371 79.348, 78 73.531 C 95.785 67.308, 95.774 67.311, 94.359 69.077 C 93.731 69.859, 91.452 73.875, 89.294 78 C 87.136 82.125, 84.238 87.300, 82.854 89.500 C 81.469 91.700, 77.496 98.900, 74.024 105.500 C 70.552 112.100, 67.322 118.001, 66.846 118.614 C 66.023 119.674, 56.827 137.270, 50.965 149 C 46.164 158.609, 41.214 169.605, 37.685 178.500 C 25.103 210.214, 23.682 215.339, 26.339 219.394 C 28.398 222.537, 33.798 223.003, 36.247 220.250 C 37.774 218.534, 44.834 201.855, 49.476 189 C 50.766 185.425, 53.887 178.081, 56.411 172.679 C 58.935 167.278, 61.004 162.553, 61.008 162.179 C 61.013 161.806, 63.284 157.225, 66.054 152 C 70.580 143.462, 71.040 142.905, 70.590 146.500 C 69.857 152.362, 67.921 285.177, 68.541 287.128 C 69.344 289.659, 74.121 291.285, 77.255 290.093 C 82.403 288.136, 82.377 288.407, 83.147 229 C 83.912 169.943, 84.345 155.322, 85.356 154.311 C 85.703 153.963, 86.778 154.348, 87.744 155.167 C 91.896 158.685, 102.621 163.261, 106.798 163.297 C 111.554 163.337, 113.407 161.972, 114.411 157.684 C 115.255 154.082, 112.012 150.885, 102.551 145.995 C 98.831 144.073, 95.548 141.900, 95.255 141.166 C 94.592 139.508, 107.352 126.421, 111.500 124.504 C 113.150 123.741, 116.414 122.623, 118.753 122.019 C 123.805 120.715, 126.399 117.438, 125.431 113.583 C 124.497 109.858, 121.302 108, 115.835 108 C 109.621 108, 102.189 112.241, 92.173 121.500 C 89.794 123.700, 87.476 125.635, 87.023 125.800 C 86.570 125.965, 86.026 123.715, 85.813 120.800 C 85.496 116.465, 85.900 114.681, 88.030 111 C 89.463 108.525, 92.092 103.624, 93.873 100.110 C 95.655 96.595, 98.153 92.320, 99.426 90.610 C 103.830 84.691, 117.203 54.944, 116.578 52.456 C 115.094 46.541, 110.680 45.608, 102.880 49.561 L 97.827 52.122 98.663 49.811 C 99.123 48.540, 99.465 44.800, 99.422 41.500 C 99.358 36.530, 98.538 33.783, 94.644 25.500 C 92.058 20, 89.195 14.938, 88.280 14.250 C 85.788 12.376, 81.257 12.743, 79 15 M 224.552 38.103 C 211.138 39.516, 184.857 45.385, 171.747 49.896 C 167.211 51.456, 160.218 53.756, 156.207 55.006 C 149.382 57.133, 143 61.394, 143 63.824 C 143 64.387, 144.165 66.231, 145.589 67.923 C 147.400 70.075, 149.062 71, 151.120 71 C 154.065 71, 165.616 67.504, 167.500 66.042 C 168.753 65.070, 180.554 61.326, 184.275 60.720 C 186.465 60.363, 186.957 60.609, 186.609 61.884 C 186.366 62.773, 185.861 65.750, 185.486 68.500 C 183.507 83.018, 173.364 113.588, 165.440 128.920 C 159.265 140.868, 157.842 142.804, 153.249 145.514 C 149.736 147.587, 148.525 149.927, 149.452 152.848 C 150.055 154.748, 153.930 157, 156.597 157 C 159.526 157, 164.556 153.735, 168.692 149.148 C 177.413 139.478, 193.273 102.680, 198.360 80.315 C 199.230 76.489, 200.068 69.679, 200.221 65.182 C 200.375 60.685, 200.551 57.005, 200.614 57.003 C 200.676 57.001, 203.151 56.527, 206.114 55.950 C 213.783 54.455, 233.731 52, 238.212 52 L 242 52 241.989 57.750 C 241.983 60.913, 242.509 73.282, 243.159 85.237 C 244.378 107.686, 243.633 123.221, 240.726 135.930 L 239.484 141.361 234.492 135.032 C 224.710 122.633, 223.612 121.630, 220.633 122.377 C 216.720 123.359, 215.385 127.472, 217.511 131.995 C 221.057 139.539, 228.295 150.096, 232.228 153.463 C 235.863 156.575, 237.016 157, 241.812 157 C 246.703 157, 247.590 156.655, 250.430 153.643 C 257.578 146.064, 260.384 115.732, 258.069 71.074 C 256.663 43.952, 256.480 42.752, 253.258 39.531 C 250.896 37.169, 250.119 37.009, 241.614 37.133 C 236.601 37.206, 228.923 37.643, 224.552 38.103 M 216 178.572 C 188.469 180.020, 170.291 182.224, 164.810 184.780 C 160.441 186.817, 158.448 192.118, 160.181 197.090 C 161.027 199.515, 161.749 200, 164.514 200 C 166.340 200, 167.983 199.562, 168.167 199.026 C 168.771 197.262, 195.880 193.990, 214.375 193.450 C 224.344 193.159, 233.936 192.746, 235.691 192.533 C 237.832 192.272, 238.748 192.532, 238.477 193.322 C 238.254 193.970, 237.141 206.425, 236.003 221 C 234.865 235.575, 233.486 248.896, 232.939 250.601 L 231.943 253.703 218.721 254.349 C 211.450 254.704, 195.600 256.258, 183.500 257.801 L 161.500 260.608 160.894 255.054 C 160.561 251.999, 159.583 243.425, 158.721 236 C 157.859 228.575, 156.850 215.300, 156.480 206.500 C 155.878 192.230, 155.581 190.257, 153.728 188.250 C 151.029 185.325, 147.916 185.396, 145.051 188.446 C 142.298 191.377, 141.174 199.851, 142.126 210.500 C 142.470 214.350, 142.817 221.325, 142.897 226 C 143.023 233.420, 145.598 252.568, 147.475 260.044 C 147.940 261.897, 147.555 263.093, 146.057 264.449 C 143.480 266.781, 143.429 270.078, 145.923 273.139 C 147.815 275.461, 148.103 275.496, 163.580 275.234 C 173.634 275.063, 185.783 274.055, 197.233 272.440 C 207.088 271.050, 220.029 269.560, 225.990 269.129 C 235.962 268.409, 237.104 268.112, 240.262 265.423 C 246.554 260.065, 247.835 257.279, 249.431 245.477 C 250.859 234.923, 252.638 212.970, 253.684 193 C 254.176 183.598, 254.151 183.466, 251.251 180.250 C 248.826 177.559, 247.649 177.024, 244.411 177.142 C 242.260 177.220, 229.475 177.863, 216 178.572" stroke="none" fill="black" fill-rule="evenodd"/>
</svg>