<svg xmlns="http://www.w3.org/2000/svg" width="300" height="300" viewBox="0 0 300 300" version="1.1">
	<path d="M 82.441 32.420 C 80.856 33.579, 80.514 35.001, 80.578 40.170 C 80.681 48.566, 87.430 65.125, 91.143 66.091 C 93.174 66.619, 92.946 66.812, 89.500 67.482 C 87.300 67.911, 85.050 68.592, 84.500 68.997 C 81.959 70.869, 71.003 74.180, 64.755 74.965 C 60.631 75.482, 57.067 76.534, 55.921 77.571 C 53.687 79.593, 53.336 85.204, 55.340 86.867 C 57.211 88.420, 74.808 86.668, 78.975 84.513 C 83.040 82.411, 83.926 83.252, 81.343 86.762 C 80.235 88.268, 78.182 91.525, 76.782 94 C 75.381 96.475, 72.141 101.875, 69.582 106 C 63.158 116.352, 63.741 115.386, 57.218 126.500 C 53.990 132, 49.852 139.200, 48.022 142.500 C 43.657 150.374, 35.965 163.105, 34.427 165 C 33.758 165.825, 30.962 171, 28.213 176.500 C 18.069 196.798, 17.369 199.369, 21 203 C 24.106 206.106, 27.418 205.529, 30.927 201.272 C 32.617 199.222, 34 196.455, 34 195.124 C 34 192.770, 39.467 182.165, 46.438 171 C 49.414 166.233, 54.923 156.828, 60 147.847 C 60.825 146.387, 63.300 141.890, 65.500 137.852 L 69.500 130.512 69.811 147.506 C 69.981 156.853, 69.642 184.664, 69.056 209.308 C 68.344 239.305, 68.323 254.736, 68.995 255.990 C 71.180 260.073, 76.637 259.674, 79.654 255.211 C 81.339 252.718, 81.539 248.808, 82.142 206.500 C 82.502 181.200, 82.843 158.537, 82.899 156.139 L 83 151.777 86.703 152.472 C 88.740 152.854, 92.097 154.029, 94.164 155.083 C 96.230 156.138, 98.416 157, 99.022 157 C 99.628 157, 103.437 158.616, 107.488 160.591 C 115.536 164.516, 118.587 164.494, 119.588 160.506 C 120.366 157.407, 119.353 154.412, 116.672 151.885 C 113.425 148.823, 103.608 143.262, 99.031 141.891 C 94.432 140.513, 94.060 139.758, 97.250 138.276 C 98.487 137.702, 103.478 134.255, 108.340 130.616 C 113.650 126.642, 118.165 124, 119.645 124 C 121.673 124, 122.544 123.019, 124.555 118.471 C 127.871 110.974, 127.759 107.880, 124.096 105.716 C 122.498 104.772, 120.477 104, 119.603 104 C 118.729 104, 114.310 107.411, 109.782 111.581 C 105.254 115.750, 97.488 121.599, 92.525 124.578 L 83.500 129.995 82.646 124.822 C 82.176 121.977, 81.163 119.021, 80.396 118.253 C 78.526 116.384, 78.618 115.675, 81.250 111.637 C 82.487 109.739, 85.075 105.597, 87 102.433 C 97.711 84.828, 104.503 76.342, 110.273 73.359 C 112.796 72.054, 113.076 71.431, 112.805 67.728 C 112.562 64.405, 111.952 63.258, 109.788 62.048 C 107.054 60.520, 106.751 60.563, 99.754 63.482 C 98.257 64.107, 98.093 63.787, 98.601 61.244 C 98.951 59.493, 98.599 57.093, 97.742 55.388 C 96.944 53.800, 95.759 49.575, 95.110 46 C 93.068 34.757, 90.697 31.081, 85.441 31.014 C 84.859 31.006, 83.509 31.639, 82.441 32.420 M 190.745 40.919 C 188.223 43.134, 186.842 45.546, 185.699 49.734 C 184.128 55.487, 182.186 70.062, 181.737 79.464 C 181.506 84.292, 181.391 84.465, 177.500 85.791 C 169.574 88.494, 162.138 92.548, 160.610 95 C 159.361 97.006, 159.048 97.145, 159.027 95.700 C 158.959 91.130, 154.724 86.401, 151.728 87.551 C 147.941 89.004, 147.561 91.798, 146.902 123 C 146.548 139.775, 145.684 160.925, 144.983 170 L 143.707 186.500 131.639 188.869 C 115.109 192.114, 112 193.622, 112 198.390 C 112 203.289, 121.880 203.974, 140.066 200.337 L 143 199.750 143 225.971 C 143 248.947, 143.212 252.551, 144.716 255.096 C 146.713 258.478, 150.764 259.024, 153.273 256.250 C 154.589 254.796, 154.847 251.707, 154.797 238 C 154.765 228.925, 155.073 216.267, 155.481 209.871 L 156.225 198.241 160.752 197.621 C 167.797 196.655, 181.580 196.890, 184.570 198.027 C 186.646 198.816, 187.813 198.697, 189.623 197.512 C 191.315 196.403, 196.532 195.711, 208.217 195.048 C 217.150 194.541, 224.670 194.337, 224.928 194.595 C 225.612 195.279, 226.620 237.384, 226.168 246.351 C 225.794 253.758, 225.714 253.966, 223.463 253.401 C 219.503 252.407, 217 253.802, 217 257.002 C 217 261.014, 218.328 264.064, 221.420 267.151 C 224.772 270.499, 228.494 271.452, 232.206 269.914 C 239.848 266.749, 242.042 251.288, 239.786 216.500 C 239.001 204.400, 238.540 194.275, 238.761 194 C 238.982 193.725, 249.364 193.248, 261.832 192.940 C 274.829 192.619, 285.607 191.909, 287.094 191.274 C 290.784 189.701, 292.612 184.892, 291 181 C 289.975 178.525, 289.181 178, 286.462 178 C 284.650 178, 283.017 178.395, 282.833 178.877 C 282.650 179.359, 272.504 179.953, 260.286 180.196 L 238.071 180.638 237.786 132.069 C 237.475 79.246, 237.632 80.653, 231.759 78.054 C 229.211 76.926, 227.620 76.978, 221.131 78.405 C 215.226 79.704, 194.974 82.122, 194.391 81.598 C 193.967 81.217, 197.406 57.196, 198.651 51.840 C 200.139 45.438, 199.814 39, 198.002 39 C 197.541 39, 196.501 38.746, 195.691 38.435 C 194.857 38.115, 192.710 39.194, 190.745 40.919 M 220.500 90.685 C 212.232 91.407, 194.474 94.154, 193.814 94.814 C 193.436 95.191, 192.986 103.038, 192.814 112.251 C 192.561 125.720, 192.762 129.002, 193.836 129.001 C 196.870 128.998, 210.858 124.687, 215.628 122.285 C 218.448 120.865, 221.650 119.937, 222.745 120.223 C 224.542 120.693, 224.795 120.101, 225.360 114.122 C 226.227 104.950, 226.158 89.965, 225.250 90.168 C 224.838 90.261, 222.700 90.493, 220.500 90.685 M 172.500 100.608 C 169.200 102.017, 164.813 103.875, 162.750 104.736 L 159 106.303 159 117.512 C 159 123.677, 158.714 130.808, 158.364 133.360 L 157.728 137.999 162.614 137.404 C 165.301 137.078, 170.088 136.078, 173.250 135.183 L 179 133.557 179 123.429 C 179 117.859, 179.291 109.859, 179.647 105.651 C 180.013 101.319, 179.904 98.010, 179.397 98.024 C 178.904 98.037, 175.800 99.200, 172.500 100.608 M 219.573 133.139 C 214.274 137.145, 210.418 138.729, 199.561 141.362 C 195.745 142.287, 192.546 143.146, 192.453 143.272 C 192.359 143.397, 192.504 152.193, 192.774 162.818 L 193.266 182.137 208.552 181.818 C 216.960 181.643, 224.108 181.230, 224.437 180.899 C 224.765 180.569, 224.914 168.850, 224.767 154.857 L 224.500 129.415 219.573 133.139 M 170.500 149.559 C 167.200 150.303, 163.094 150.932, 161.375 150.956 C 157.354 151.013, 157 152.674, 157 171.459 L 157 185.669 162.750 184.930 C 165.912 184.524, 171.437 183.899, 175.027 183.540 L 181.554 182.889 180.343 173.694 C 179.678 168.637, 179.103 160.787, 179.066 156.250 C 179.018 150.294, 178.652 148.028, 177.750 148.102 C 177.063 148.159, 173.800 148.814, 170.500 149.559" stroke="none" fill="black" fill-rule="evenodd"/>
</svg>