<svg xmlns="http://www.w3.org/2000/svg" width="300" height="300" viewBox="0 0 300 300" version="1.1">
	<path d="M 185.557 28.223 C 183.651 30.943, 183.523 36.360, 185.330 37.859 C 186.118 38.513, 186.478 40.195, 186.215 41.990 C 185.298 48.236, 191.367 50.086, 197.059 45.297 C 204.023 39.437, 204.222 30.907, 197.471 27.687 C 192.387 25.263, 187.475 25.484, 185.557 28.223 M 77 36.776 C 71.859 38.437, 70.799 43.293, 73.398 53.271 C 74.944 59.206, 82.268 74.429, 84.131 75.581 C 84.861 76.032, 83.627 76.998, 80.908 78.101 C 77.785 79.367, 73.703 79.905, 66.905 79.944 C 56.057 80.007, 54 81.113, 54 86.880 C 54 91.768, 58.568 93.317, 71.569 92.836 L 81.699 92.461 78.735 97.980 C 77.105 101.016, 74.861 105.300, 73.749 107.500 C 70.606 113.716, 54.207 138.186, 52.750 138.833 C 52.337 139.017, 52 139.606, 52 140.143 C 52 140.680, 50.538 143.080, 48.750 145.475 C 46.962 147.871, 43.700 152.399, 41.500 155.538 C 39.300 158.677, 37.050 161.770, 36.500 162.411 C 35.950 163.053, 34.852 164.685, 34.059 166.039 C 33.267 167.392, 30.197 172.417, 27.238 177.205 C 21.201 186.974, 20.721 190.443, 25.069 192.872 C 29.764 195.495, 32.256 193.820, 39.378 183.256 C 42.996 177.890, 49.334 168.775, 53.461 163 C 57.589 157.225, 63.298 149.125, 66.147 145 C 68.996 140.875, 72.041 136.569, 72.914 135.432 C 74.366 133.539, 74.474 139.507, 74.193 205.932 C 74.009 249.616, 73.511 278.878, 72.943 279.450 C 71.237 281.168, 71.956 284.794, 74.634 287.977 C 76.719 290.454, 77.917 291.044, 80.384 290.803 C 83.008 290.548, 83.894 289.711, 86 285.500 L 88.500 280.500 88.230 224.293 L 87.960 168.085 91.535 169.579 C 101.344 173.677, 111.062 173.154, 113.223 168.411 C 115.010 164.487, 111.772 161.053, 104.377 159.028 C 99.457 157.681, 95.476 155.678, 91.110 152.350 C 90.895 152.187, 92.606 149.554, 94.912 146.500 C 99.164 140.869, 108.642 132.609, 112.750 130.955 C 117.938 128.867, 113.767 118, 107.777 118 C 105.407 118, 98.438 123.036, 91.727 129.599 C 89.652 131.628, 87.818 133.111, 87.650 132.894 C 87.483 132.677, 86.357 129.418, 85.148 125.652 L 82.949 118.804 85.757 114.152 C 87.302 111.593, 89.407 107.588, 90.435 105.250 C 91.463 102.912, 92.602 101, 92.967 101 C 93.331 101, 94.343 99.537, 95.214 97.750 C 96.086 95.963, 98.880 92.089, 101.422 89.142 C 107.408 82.205, 108.326 80.378, 107.614 76.820 C 106.580 71.649, 101.892 68.995, 96.993 70.807 C 94.682 71.662, 94.430 71.406, 92.856 66.609 C 91.933 63.799, 90.023 58.350, 88.610 54.500 C 87.198 50.650, 86.033 46.818, 86.021 45.984 C 85.985 43.394, 82.454 37.711, 80.429 36.984 C 79.368 36.603, 77.825 36.510, 77 36.776 M 225 50.560 C 223.625 50.782, 216.200 51.676, 208.500 52.547 C 190.128 54.626, 162.850 60.439, 156.500 63.628 C 153.750 65.010, 150.466 67.284, 149.202 68.682 C 146.949 71.173, 146.863 71.186, 144.844 69.362 C 141.257 66.120, 138.651 61.793, 138.055 58.087 C 137.555 54.985, 137.073 54.463, 134.489 54.228 C 132.026 54.004, 131.104 54.573, 129.250 57.464 C 125.154 63.851, 126.941 70.112, 135.388 78.968 C 140.993 84.845, 144 89.656, 144 92.750 C 144 96.934, 150.253 98.604, 153.555 95.302 C 154.936 93.922, 155.143 92.434, 154.666 87.328 C 154.344 83.876, 153.335 79.915, 152.425 78.526 L 150.770 76 155.513 76 C 158.122 76, 165.486 74.679, 171.878 73.065 C 200.236 65.905, 232.536 62.157, 244.782 64.606 L 247.814 65.213 244.995 71.175 C 243.444 74.454, 241.011 78.896, 239.588 81.047 C 235.141 87.767, 236.689 92.445, 243.154 91.818 C 245.920 91.550, 247.337 90.317, 252.141 84 C 263.974 68.439, 264.684 56.977, 254.104 52.317 C 250.606 50.777, 231.002 49.593, 225 50.560 M 190.312 84.831 C 189.144 85.749, 185.636 89.650, 182.517 93.500 C 175.053 102.713, 165.553 114.525, 161.640 119.457 C 159.913 121.633, 156.752 125.233, 154.616 127.457 C 148.657 133.659, 147.663 135.502, 148.964 137.933 C 151.530 142.728, 158.866 139.325, 168.500 128.871 C 173.943 122.964, 189.646 104.124, 194.579 97.582 C 199.688 90.805, 199.657 87.007, 194.468 84.245 C 192.888 83.403, 191.963 83.534, 190.312 84.831 M 207.895 95.751 C 207.012 95.938, 205.701 97.191, 204.981 98.536 C 203.851 100.647, 203.916 101.250, 205.457 102.953 C 206.439 104.037, 208.842 105.453, 210.797 106.098 C 212.753 106.743, 217.018 108.994, 220.276 111.100 C 223.534 113.206, 226.986 115.178, 227.948 115.483 C 228.910 115.789, 230.187 117.116, 230.787 118.432 C 234.189 125.899, 245.167 119.064, 242.402 111.201 C 240.882 106.880, 224.167 95.680, 220.553 96.561 C 219.424 96.836, 216.475 96.691, 214 96.237 C 211.525 95.783, 208.778 95.565, 207.895 95.751 M 194.260 123.763 C 192.479 125.818, 191.016 127.972, 191.010 128.548 C 191.001 129.523, 179.968 140.046, 172.051 146.631 C 167.545 150.380, 166.901 150.988, 149.410 168.010 C 132.873 184.104, 118.937 196.695, 114.766 199.311 C 109.244 202.774, 110.772 210, 117.027 210 C 121.339 210, 135.827 198.994, 151.939 183.477 C 172.149 164.014, 181.042 156, 182.428 156 C 183.908 156, 204.057 163.815, 205.466 164.936 C 207.364 166.446, 228.219 173.069, 232.891 173.646 C 243.392 174.943, 253.449 178.085, 255.584 180.735 C 257.604 183.242, 257.819 183.283, 262.584 182.085 C 268.171 180.681, 271 178.562, 271 175.779 C 271 169.908, 265.802 166.962, 247.580 162.503 C 239.707 160.576, 232.336 159, 231.201 159 C 230.065 159, 225.495 157.657, 221.044 156.016 C 211.980 152.674, 203.323 150.521, 194.712 149.468 L 188.924 148.760 194.462 142.954 C 198.246 138.988, 200 136.332, 200 134.571 C 200 133.153, 200.868 130.373, 201.929 128.393 C 203.823 124.860, 203.700 122.222, 201.573 120.765 C 199.419 119.291, 197.431 120.106, 194.260 123.763 M 212.500 189.676 C 209.200 190.512, 201.820 192.727, 196.100 194.598 C 190.380 196.469, 185.069 198, 184.298 198 C 182.305 198, 175.075 202.077, 172.199 204.821 L 169.766 207.143 167.633 204.127 C 165.192 200.676, 162.518 199.653, 159.776 201.120 C 158.056 202.041, 157.938 202.917, 158.540 210.319 C 158.906 214.818, 160.059 221.847, 161.103 225.938 C 162.146 230.029, 163 235.575, 163 238.262 C 163 242.695, 162.631 243.478, 159 246.737 C 150.905 254.004, 154.551 256.976, 172.513 257.752 C 183.213 258.214, 203.932 256.979, 211.750 255.413 C 213.281 255.106, 214 255.440, 214 256.458 C 214 257.281, 215.101 258.675, 216.447 259.557 C 218.544 260.931, 219.283 260.970, 221.626 259.830 C 223.963 258.692, 226.847 255.148, 228.405 251.500 C 228.640 250.950, 229.810 243.075, 231.004 234 C 232.199 224.925, 233.812 215.281, 234.588 212.568 C 237.380 202.817, 235.792 193.225, 230.878 190.156 C 227.712 188.179, 219.280 187.959, 212.500 189.676 M 211.500 205.946 C 207.650 206.929, 202.056 208.468, 199.068 209.366 C 196.081 210.265, 191.858 211, 189.684 211 C 184.982 211, 172.998 213.100, 173.004 213.923 C 173.006 214.240, 173.673 218.550, 174.486 223.500 C 175.300 228.450, 175.973 234.924, 175.983 237.888 L 176 243.275 181.330 242.649 C 184.261 242.304, 193.198 241.725, 201.191 241.362 L 215.722 240.702 216.266 228.601 C 216.565 221.945, 217.240 215.375, 217.765 214 C 219.234 210.155, 220.185 203.991, 219.295 204.080 C 218.858 204.124, 215.350 204.964, 211.500 205.946" stroke="none" fill="black" fill-rule="evenodd"/>
</svg>