<svg xmlns="http://www.w3.org/2000/svg" width="300" height="300" viewBox="0 0 300 300" version="1.1">
	<path d="M 102.500 25.657 C 97.540 26.249, 87.608 29.036, 85.925 30.309 C 82.911 32.588, 80.760 36.907, 81.389 39.415 C 82.110 42.287, 87.721 44.538, 91.680 43.544 C 93.646 43.051, 94.126 43.230, 93.713 44.306 C 93.416 45.080, 92.180 50.390, 90.967 56.107 C 87.991 70.127, 84.458 82.966, 81.388 90.918 C 79.990 94.538, 77.935 99.847, 76.821 102.715 C 75.707 105.583, 73.543 109.906, 72.011 112.322 C 70.479 114.737, 68.893 117.791, 68.487 119.107 C 68.080 120.423, 65.158 126, 61.993 131.500 C 58.828 137, 55.938 142.790, 55.571 144.368 C 54.295 149.843, 60.611 153.062, 65.673 149.517 C 66.837 148.701, 69.249 145.439, 71.032 142.267 C 72.816 139.095, 75.296 135.278, 76.543 133.785 C 80.636 128.887, 92.008 104.165, 96.549 90.295 C 98.997 82.818, 101 76.108, 101 75.385 C 101 73.405, 104.139 72.112, 110.645 71.413 C 121.377 70.260, 133.448 66.121, 138.600 61.827 C 144.328 57.053, 146 55.032, 146 52.886 C 146 51.579, 148.240 48.333, 151.500 44.915 C 157.929 38.174, 158.476 35.322, 154.165 31.011 C 149.344 26.190, 142.925 24.980, 123.068 25.150 C 113.406 25.232, 104.150 25.461, 102.500 25.657 M 212.219 34.672 C 210.228 35.473, 206.340 43.989, 205.575 49.227 C 204.914 53.749, 204.703 54.004, 200.692 55.096 C 193.906 56.944, 175.657 61, 174.127 61 C 172.134 61, 167 66.621, 167 68.802 C 167 71.288, 170.484 74.832, 173.728 75.647 C 176.475 76.336, 185.422 74.865, 192.500 72.560 C 194.700 71.843, 198.096 70.971, 200.047 70.621 L 203.594 69.986 205.375 87.243 C 206.355 96.734, 208.021 110.633, 209.078 118.130 C 211.131 132.690, 211.412 137, 210.308 137 C 209.928 137, 206.482 135.138, 202.651 132.862 C 196.850 129.416, 195.253 128.876, 193.093 129.630 C 191.170 130.302, 190.421 131.340, 190.196 133.644 C 189.933 136.326, 190.620 137.370, 195.196 141.247 C 206.483 150.810, 215.149 153.269, 220.801 148.514 C 226.496 143.722, 226.924 136.641, 223.010 112 C 221.365 101.644, 219.975 88.115, 218.562 68.712 C 218.092 62.255, 218.185 61.880, 220.473 61.010 C 222.952 60.068, 225 57.214, 225 54.702 C 225 52.847, 220.025 47.867, 218.879 48.575 C 218.396 48.874, 218 46.424, 218 43.130 C 218 35.866, 216.115 33.107, 212.219 34.672 M 108 39.900 C 104.163 40.412, 103.563 40.795, 103.927 42.500 C 104.161 43.600, 104.386 47.934, 104.427 52.131 L 104.500 59.762 107 58.799 C 108.375 58.269, 111.750 57.461, 114.500 57.004 C 117.250 56.547, 121.975 55.234, 125 54.085 C 129.967 52.200, 130.807 51.427, 133.664 46.107 L 136.829 40.216 133.789 39.608 C 130.150 38.880, 114.307 39.060, 108 39.900 M 127.500 75.993 C 122.550 77.527, 115.921 79.255, 112.769 79.834 C 106.819 80.927, 103.708 82.999, 102.602 86.609 C 101.842 89.087, 103.287 90.546, 107.506 91.558 C 109.153 91.953, 110.894 92.501, 111.376 92.775 C 112.573 93.456, 106.325 96, 103.457 96 C 100.197 96, 98 98.583, 98 102.416 C 98 108.632, 103.719 111.096, 112.335 108.591 C 115.345 107.716, 117.964 107, 118.154 107.001 C 118.815 107.003, 118.237 142.525, 117.508 146.653 C 116.841 150.432, 117.015 150.964, 119.429 152.545 C 123.225 155.032, 126.309 153.297, 129.586 146.830 C 132.014 142.038, 132.255 140.499, 132.372 129.042 L 132.500 116.500 136.711 120.738 C 139.028 123.069, 143.528 126.642, 146.711 128.679 C 153.671 133.133, 160.201 133.732, 164.754 130.336 C 168.145 127.807, 168.644 125.631, 166.560 122.451 C 165.278 120.495, 164.107 120, 160.764 120 C 156.916 120, 156.080 119.480, 150.537 113.645 C 143.012 105.724, 139.060 103, 135.096 103 C 133.393 103, 132.025 102.662, 132.054 102.250 C 132.084 101.838, 134.222 100.116, 136.804 98.424 C 139.387 96.733, 142.044 94.235, 142.709 92.874 C 144.177 89.869, 143.392 86.257, 141.147 85.693 C 139.995 85.404, 140.449 84.917, 142.658 84.074 C 146.325 82.674, 147.570 79.346, 145.844 75.557 C 144.857 73.390, 144.055 73.016, 140.589 73.102 C 138.340 73.159, 132.450 74.460, 127.500 75.993 M 180.385 99.389 C 173.293 102.578, 176.185 112, 184.256 112 C 187.912 112, 195.596 109.104, 197.489 107.012 C 199.430 104.868, 198.791 101.493, 196.182 100.100 C 192.883 98.340, 183.644 97.924, 180.385 99.389 M 102.258 115.750 C 89.577 131.085, 81.833 149.433, 86.200 153.800 C 87.772 155.372, 92.479 155.341, 93.767 153.750 C 96.022 150.965, 112.185 119.296, 112.727 116.600 C 113.155 114.469, 112.820 113.342, 111.464 112.350 C 108.345 110.070, 106.344 110.809, 102.258 115.750 M 153 140 C 151.752 141.248, 151 143.333, 151 145.544 C 151 148.627, 152.128 150.279, 159.665 158.231 C 167.203 166.185, 168.081 167.470, 166.415 168.116 C 165.362 168.524, 157.525 169.806, 149 170.964 C 140.475 172.123, 132.044 173.299, 130.265 173.578 C 128.486 173.857, 119.820 174.497, 111.007 175 C 92.906 176.033, 88 177.457, 88 181.680 C 88 189.855, 96.023 191.517, 123.998 189.140 C 130.322 188.602, 135.600 188.267, 135.728 188.394 C 135.855 188.522, 123.534 200.748, 108.347 215.563 C 93.160 230.378, 78.771 244.796, 76.372 247.603 C 70.990 253.897, 69.934 257.934, 72.896 260.896 C 74.053 262.053, 75.691 263, 76.535 263 C 77.379 263, 81.991 259.273, 86.785 254.719 C 100.701 241.495, 112 231.700, 112 232.859 C 112 233.448, 111.242 236.083, 110.316 238.715 C 109.333 241.509, 108.618 246.620, 108.597 251 C 108.528 265.769, 112.771 273, 121.509 273 C 125.521 273, 126.562 272.385, 134.716 265.197 C 139.584 260.905, 145.635 255.971, 148.163 254.232 C 154.280 250.023, 155.772 246.066, 152.250 243.392 C 149.176 241.058, 146.737 241.861, 135.500 248.908 L 124.500 255.806 123.874 245.153 C 123.529 239.294, 123.642 233.458, 124.124 232.185 C 125.341 228.969, 125.218 224.618, 123.872 223.272 C 123.035 222.435, 124.313 220.386, 128.832 215.322 C 140.152 202.637, 146 194.160, 146 190.434 C 146 186.418, 143.227 187.242, 173 182.406 C 185.375 180.396, 197.586 178.393, 200.137 177.954 C 208.667 176.487, 216 171.400, 216 166.952 C 216 166.070, 214.863 164.281, 213.474 162.976 C 210.968 160.622, 210.908 160.616, 205.724 162.253 C 202.851 163.160, 197.350 164.167, 193.500 164.492 C 189.650 164.816, 184.917 165.329, 182.982 165.632 C 179.536 166.170, 179.439 166.092, 178.293 161.805 C 177.006 156.994, 173.753 152.472, 165.306 143.750 C 159.232 137.478, 156.389 136.611, 153 140 M 193.107 194.842 C 190.573 197.505, 186.700 201.672, 184.500 204.102 C 179.484 209.641, 175.404 213.093, 170.964 215.554 C 169.059 216.610, 166.495 218.339, 165.266 219.396 L 163.032 221.318 158.107 216.409 C 155.398 213.709, 151.761 210.670, 150.025 209.655 C 147.016 207.896, 146.778 207.891, 144.934 209.560 C 142.629 211.646, 142.415 215.269, 144.495 216.996 C 145.318 217.679, 147.803 221.520, 150.017 225.531 C 154.659 233.940, 160.612 239.800, 177.588 252.670 C 203.607 272.397, 224.046 282.758, 247 287.856 C 266.581 292.206, 273.432 291.689, 278.909 285.451 C 282.441 281.428, 282.819 278.250, 280.133 275.153 C 277.848 272.519, 275.587 272.413, 273.174 274.826 C 270.220 277.780, 268.324 278.042, 261.222 276.479 C 242.938 272.456, 238.101 270.747, 218.500 261.385 C 206.202 255.511, 182.988 239.795, 176.316 232.826 L 173.133 229.500 183.816 223.062 C 196.237 215.577, 211 201.614, 211 197.350 C 211 193.576, 206.481 190, 201.711 190 C 198.233 190, 197.116 190.629, 193.107 194.842" stroke="none" fill="black" fill-rule="evenodd"/>
</svg>