<svg xmlns="http://www.w3.org/2000/svg" width="300" height="300" viewBox="0 0 300 300" version="1.1">
	<path d="M 220 19.124 C 218.075 19.629, 208.625 20.375, 199 20.780 C 184.812 21.379, 181.032 21.848, 179.027 23.259 C 177.668 24.217, 174.910 25, 172.900 25 C 170.890 25, 168.775 25.566, 168.200 26.259 C 165.334 29.712, 163.995 41.801, 162.992 73.271 C 162.426 90.997, 161.529 112.700, 160.997 121.500 C 160.466 130.300, 159.779 143.575, 159.471 151 C 158.655 170.666, 157.096 184.047, 155.426 185.717 C 154.642 186.501, 154 188.461, 154 190.071 C 154 191.682, 153.550 193, 153 193 C 151.505 193, 151.854 197.223, 153.532 199.441 C 154.339 200.509, 155 202.164, 155 203.120 C 155 205.466, 157.685 208, 160.170 208 C 161.285 208, 163.406 206.706, 164.884 205.124 C 166.649 203.235, 169.052 201.998, 171.889 201.519 L 176.208 200.789 173.604 205.232 C 172.172 207.676, 171 210.243, 171 210.937 C 171 212.195, 166.562 219.798, 152.577 242.500 C 148.511 249.100, 143.732 257.299, 141.957 260.720 C 138.857 266.697, 138.796 267.039, 140.389 269.470 C 142.283 272.361, 146.344 272.848, 149.591 270.574 C 150.711 269.789, 153.824 265.402, 156.508 260.824 C 159.193 256.246, 162.141 251.375, 163.061 250 C 169.032 241.072, 180.063 222.699, 181.973 218.500 C 183.225 215.750, 184.961 210.056, 185.832 205.846 C 187.382 198.359, 187.496 198.168, 191.074 197.096 C 193.086 196.493, 194.967 196, 195.254 196 C 195.542 196, 196.022 205.563, 196.322 217.250 C 196.655 230.218, 197.422 240.841, 198.290 244.507 C 201.407 257.675, 208.435 268.092, 217.362 272.776 C 222.187 275.308, 223.292 275.471, 235.500 275.446 C 248.836 275.419, 251.482 274.967, 276.378 268.453 C 286.200 265.883, 290.366 262.922, 291.394 257.781 C 292.319 253.154, 290.431 247.811, 286.537 244.036 C 283.288 240.887, 282.855 240.740, 280.518 241.990 C 277.796 243.447, 277.225 246.831, 278.940 251.342 C 279.856 253.750, 279.681 253.867, 272.122 255.907 C 267.855 257.058, 263.719 258.006, 262.932 258.013 C 262.144 258.020, 258.800 258.872, 255.500 259.906 C 247.981 262.261, 235.747 263.449, 228.421 262.533 C 218.572 261.303, 212.703 253.685, 209.400 237.844 C 208.363 232.871, 208.034 225.513, 208.229 211.711 L 208.500 192.500 217.500 189.477 C 223.997 187.295, 226.766 185.855, 227.456 184.300 C 228.027 183.012, 229.673 181.909, 231.546 181.557 C 237.069 180.521, 239.016 177.281, 240.689 166.337 C 242.290 155.870, 242.228 149.681, 239.951 92.500 C 239.315 76.550, 239.082 54.593, 239.432 43.707 L 240.068 23.914 237.111 20.957 C 234.536 18.382, 233.466 18.013, 228.827 18.102 C 225.897 18.159, 221.925 18.618, 220 19.124 M 222 31.030 C 215.015 32.676, 193.717 34.264, 185.502 33.752 L 177.089 33.227 176.591 37.363 C 175.663 45.076, 175.018 88, 175.830 88 C 176.274 88, 178.928 87.320, 181.729 86.488 C 184.548 85.651, 191.436 84.890, 197.160 84.783 C 206.032 84.617, 208.233 84.915, 212.663 86.881 C 218.015 89.255, 219.762 92.022, 218.474 96.083 C 217.717 98.466, 213.850 99.525, 211.159 98.085 C 207.922 96.353, 197.401 96.801, 185.250 99.189 L 174 101.400 174 108.561 C 174 112.499, 173.716 117.794, 173.368 120.329 L 172.737 124.937 178.118 124.416 C 181.078 124.129, 186.425 123.386, 190 122.764 C 200.300 120.971, 212.899 121.239, 216.802 123.333 C 220.527 125.332, 222.216 128.637, 220.847 131.250 C 220.102 132.670, 218.570 133, 212.715 133 C 208.748 133, 200.101 133.915, 193.501 135.033 C 186.900 136.152, 179.475 137.392, 177 137.790 L 172.500 138.514 171.860 153.007 C 171.507 160.978, 170.723 171.550, 170.118 176.500 C 168.496 189.750, 168.216 188.880, 173.750 187.769 C 176.363 187.244, 185.700 185.083, 194.500 182.967 C 203.300 180.850, 213.425 178.576, 217 177.914 C 222.752 176.848, 223.783 176.295, 225.960 173.105 C 228.315 169.653, 228.421 168.820, 228.460 153.500 C 228.482 144.700, 227.898 127.600, 227.161 115.500 C 226.355 102.244, 225.958 80.880, 226.161 61.749 C 226.348 44.286, 226.275 30.045, 226 30.102 C 225.725 30.158, 223.925 30.576, 222 31.030 M 112.625 34.869 C 109.916 37.697, 108.913 40.451, 104.380 57.500 C 103.503 60.800, 102.435 63.950, 102.008 64.500 C 101.581 65.050, 100.761 67.525, 100.186 70 C 99.123 74.578, 90.686 99.081, 89.526 100.958 C 89.177 101.523, 88.296 104.127, 87.570 106.743 C 86.843 109.359, 83.241 120.050, 79.564 130.500 C 75.888 140.950, 71.571 153.325, 69.973 158 C 68.374 162.675, 65.670 170.100, 63.963 174.500 C 62.257 178.900, 60.174 184.412, 59.336 186.750 C 58.498 189.087, 57.437 191, 56.978 191 C 54.583 191, 53.772 160.519, 55.395 131.500 C 56.731 107.605, 55 96.747, 50.309 99.600 C 46.696 101.797, 44.304 121.432, 43.316 157 C 42.625 181.886, 43.856 194.666, 47.681 202.302 L 50.087 207.105 46.852 212.802 C 45.073 215.936, 43.254 218.650, 42.809 218.833 C 42.364 219.017, 42 219.734, 42 220.427 C 42 222.363, 34.021 233.805, 30.753 236.555 C 29.154 237.900, 26.586 239, 25.045 239 C 22.894 239, 21.963 239.676, 21.038 241.909 C 19.382 245.906, 21.028 248.727, 25.506 249.567 C 30.830 250.566, 33.724 249.373, 39.730 243.704 C 44.237 239.450, 57.986 220.538, 59.186 216.944 C 59.358 216.426, 61.975 216.995, 65 218.209 C 69.796 220.134, 72.419 220.422, 85.500 220.458 C 101.391 220.502, 105.188 219.776, 112.229 215.347 C 116.190 212.856, 120 206.652, 120 202.695 C 120 200.105, 117.198 196.981, 114.921 197.032 C 112.780 197.080, 110.279 199.303, 109.867 201.525 C 109.660 202.637, 107.758 204.350, 105.515 205.445 C 98.437 208.898, 70.205 208.605, 66.640 205.040 C 66.037 204.437, 66.681 201.874, 68.397 198.049 C 70.970 192.317, 75.576 180.216, 78.502 171.500 C 79.241 169.300, 81.925 161.650, 84.467 154.500 C 87.008 147.350, 90.016 138.575, 91.151 135 C 92.286 131.425, 93.998 126.250, 94.956 123.500 C 95.914 120.750, 97.247 116.925, 97.918 115 C 114.728 66.797, 121.664 42.692, 120.829 35.382 C 120.351 31.197, 116.381 30.949, 112.625 34.869 M 70.687 64.805 C 66.773 68.890, 67.062 73.880, 71.750 83.113 C 74.925 89.368, 75.931 90.549, 78.310 90.822 C 84.064 91.482, 84.881 88.763, 82.160 78 C 81.535 75.525, 80.783 71.870, 80.490 69.879 C 79.907 65.911, 77.092 62, 74.820 62 C 74.025 62, 72.165 63.262, 70.687 64.805 M 18.018 94.784 C 16.783 95.785, 15.838 97.651, 15.867 99.034 C 15.895 100.390, 15.984 104.274, 16.065 107.664 C 16.220 114.193, 14.244 124.454, 10.359 137.302 C 9.062 141.593, 8 146.135, 8 147.397 C 8 149.931, 10.823 153, 13.154 153 C 18.445 153, 24.187 138.790, 27.973 116.327 C 29.430 107.686, 27.939 97.600, 24.821 95.001 C 21.917 92.580, 20.785 92.544, 18.018 94.784 M 113.247 109.250 C 108.647 115.016, 107.980 121.345, 111.309 127.648 C 117.676 139.702, 125.225 148.141, 136.799 156.142 C 145.245 161.980, 150.814 163.383, 154.022 160.480 C 156.115 158.586, 156.680 156, 155 156 C 154.450 156, 153.999 155.438, 153.998 154.750 C 153.997 154.063, 151.652 151.925, 148.787 150 C 141.179 144.887, 129.627 133.651, 125.340 127.193 C 122.657 123.151, 121.385 119.925, 120.807 115.694 C 120.364 112.459, 119.750 109.405, 119.442 108.906 C 118.617 107.571, 114.401 107.804, 113.247 109.250" stroke="none" fill="black" fill-rule="evenodd"/>
</svg>