<svg xmlns="http://www.w3.org/2000/svg" width="300" height="300" viewBox="0 0 300 300" version="1.1">
	<path d="M 107.452 38.646 C 106.104 40.101, 105 41.992, 105 42.847 C 105 45.001, 89.624 75.849, 86.800 79.360 C 85.535 80.933, 83.037 83.840, 81.250 85.819 C 77.405 90.076, 77.004 93.696, 80.245 94.895 C 83.787 96.205, 87.625 94.241, 92.760 88.489 L 97.500 83.181 108.203 83.732 L 118.905 84.282 117.465 86.891 C 113.883 93.379, 110.801 95.543, 102.500 97.394 C 82.719 101.805, 76 104.862, 76 109.450 C 76 114.135, 80.460 115.289, 89.859 113.034 C 92.746 112.341, 95.354 112.020, 95.654 112.320 C 95.954 112.620, 95.645 114.545, 94.968 116.598 C 94.122 119.162, 93.973 122.702, 94.493 127.915 C 94.909 132.087, 95.306 137.482, 95.375 139.904 L 95.500 144.307 89 146.613 C 79.198 150.090, 79.502 150.277, 79.487 140.749 C 79.467 128.165, 75.031 110.148, 71.069 106.562 C 68.346 104.098, 63.592 103.551, 61.664 105.479 C 59.629 107.514, 59.546 109.403, 61.409 111.267 C 62.185 112.042, 63.745 115.786, 64.877 119.588 C 67.022 126.795, 67.740 141.925, 66.698 158 C 66.236 165.140, 65.704 168.716, 62.535 186 C 61.779 190.125, 60.649 196.425, 60.024 200 C 58.724 207.432, 56.565 216.398, 54.453 223.134 C 53.654 225.683, 53 228.440, 53 229.262 C 53 230.083, 52.302 231.334, 51.449 232.042 C 50.446 232.874, 50.005 234.595, 50.199 236.914 C 50.488 240.360, 50.666 240.512, 54.730 240.807 C 58.584 241.086, 59.141 240.819, 60.984 237.807 C 63.637 233.470, 70.074 213.182, 70.873 206.638 L 71.500 201.500 79 200.844 C 88.819 199.986, 92.027 198.868, 110.500 189.862 C 120.840 184.822, 121.519 184.307, 121.811 181.284 C 122.080 178.502, 121.753 177.976, 119.384 177.382 C 117.845 176.995, 115.302 177.237, 113.574 177.933 C 107.363 180.435, 106.589 180.496, 107.472 178.411 C 108.946 174.935, 110.116 163.590, 109.587 157.919 C 109.075 152.429, 109.118 152.314, 112.283 150.777 C 117.884 148.057, 124.039 143.027, 125.064 140.332 C 125.811 138.368, 125.673 137.150, 124.504 135.365 C 122.912 132.937, 118.663 132.118, 117.491 134.014 C 117.146 134.572, 115.104 135.926, 112.954 137.024 L 109.043 139.019 108.548 136.759 C 106.920 129.326, 106 121.796, 106 115.907 L 106 109.182 112.750 107.982 C 124.636 105.869, 124.138 105.386, 126.154 121 C 132.412 169.484, 133.976 192.036, 134.264 238 C 134.394 258.625, 134.161 276.708, 133.748 278.183 C 132.647 282.108, 129.673 282.615, 125.671 279.563 C 121.356 276.271, 118.297 276.253, 116.813 279.511 C 115.812 281.708, 116.037 282.478, 118.609 285.656 C 124.974 293.519, 133.411 295.212, 139.516 289.852 C 147.921 282.472, 148.548 277.271, 147.093 227 C 146.031 190.326, 144.568 168.170, 141.912 148.552 C 141.320 144.181, 140.451 136.981, 139.981 132.552 C 136.779 102.407, 135.880 99.415, 129.136 96.440 L 125.230 94.716 128.615 90.282 C 132.187 85.602, 133.016 80.768, 130.920 76.850 C 128.562 72.444, 118.128 70.613, 108.154 72.854 C 103.668 73.862, 103.258 73.510, 105.374 70.473 C 108.173 66.456, 117 45.407, 117 42.750 C 117 39.752, 113.917 36, 111.452 36 C 110.601 36, 108.801 37.191, 107.452 38.646 M 220.136 63.528 C 205.460 65.294, 198.306 66.877, 192.070 69.738 C 186.825 72.144, 186.597 72.165, 185.354 70.364 C 182.177 65.758, 180.897 65.146, 178.120 66.905 C 176.083 68.195, 176.234 83.186, 178.492 103.654 C 180.131 118.523, 180.202 121.358, 179.022 124.934 C 177.982 128.084, 177.937 129.337, 178.830 130.230 C 180.709 132.109, 180.385 152.483, 178.429 155.468 C 176.533 158.362, 177.952 162, 180.976 162 C 182.024 162, 183.160 162.450, 183.500 163 C 184.485 164.594, 216.497 164.243, 222.786 162.569 C 227.936 161.198, 228.133 161.224, 230.490 163.581 C 231.821 164.911, 233.461 166, 234.135 166 C 235.907 166, 244 157.026, 244 155.061 C 244 154.148, 244.439 152.961, 244.976 152.424 C 245.512 151.888, 246.750 147.860, 247.725 143.474 C 249.183 136.921, 249.499 130.687, 249.500 108.500 C 249.500 71.498, 248.205 65.353, 239.908 62.973 C 235.895 61.823, 233.824 61.881, 220.136 63.528 M 217.500 75.630 C 213.100 76.389, 206.726 77.683, 203.336 78.505 C 199.946 79.327, 195.072 80, 192.506 80 C 187.940 80, 187.854 80.058, 188.432 82.750 C 188.758 84.263, 189.468 90.225, 190.011 96 C 192.174 119.007, 192.196 119.139, 193.744 118.545 C 194.545 118.237, 198.418 117.528, 202.350 116.968 C 206.283 116.408, 213.474 115.218, 218.331 114.322 C 223.188 113.427, 229.372 112.651, 232.075 112.597 L 236.988 112.500 236.994 97.890 C 236.997 89.854, 236.714 81.191, 236.364 78.640 L 235.728 74 230.614 74.125 C 227.801 74.194, 221.900 74.871, 217.500 75.630 M 232 123.718 C 227.864 125.555, 217.811 127.604, 206 129.018 C 201.325 129.578, 196.262 130.289, 194.750 130.597 L 192 131.159 192 141.224 L 192 151.290 209.504 150.764 C 220.827 150.424, 227.513 149.819, 228.440 149.050 C 229.507 148.164, 230.402 148.145, 231.951 148.974 C 234.503 150.340, 234.497 150.357, 235.919 138.432 C 237.183 127.826, 237.302 121.967, 236.250 122.082 C 235.838 122.126, 233.925 122.863, 232 123.718 M 89 159.677 C 77.254 163.489, 77.516 163.324, 77.268 167.035 C 77.141 168.941, 76.278 174.887, 75.351 180.249 C 74.424 185.612, 73.910 190.243, 74.208 190.541 C 74.506 190.840, 76.494 190.438, 78.625 189.648 C 80.756 188.859, 85.088 187.448, 88.250 186.513 C 91.412 185.579, 94 184.250, 94 183.561 C 94 182.871, 94.721 180.863, 95.601 179.097 C 96.652 176.991, 97.254 172.899, 97.351 167.194 C 97.521 157.247, 97.247 157, 89 159.677 M 171.955 211.132 C 167.736 213.020, 164.646 216.913, 165.531 219.221 C 166.353 221.361, 184.867 222.020, 231.368 221.564 C 272.416 221.161, 273.031 221.073, 271.638 215.835 C 270.634 212.058, 269.586 211.045, 265.943 210.332 C 264.049 209.962, 242.982 209.608, 219.127 209.545 C 180.296 209.443, 175.356 209.609, 171.955 211.132" stroke="none" fill="black" fill-rule="evenodd"/>
</svg>