<svg xmlns="http://www.w3.org/2000/svg" width="300" height="300" viewBox="0 0 300 300" version="1.1">
	<path d="M 236.152 34.885 C 234.727 35.788, 231 47.923, 231 51.661 C 231 54.079, 229.990 54.544, 222.500 55.573 C 213.477 56.812, 209.509 60.346, 211.973 64.950 C 213.413 67.640, 216.856 68.388, 224.057 67.573 C 229.600 66.946, 230 67.039, 230 68.950 C 230 70.106, 229.345 71, 228.500 71 C 227.675 71, 227 71.357, 227 71.793 C 227 72.230, 224.813 73.905, 222.141 75.515 C 219.468 77.126, 216.486 79.806, 215.513 81.472 C 214.539 83.137, 212.607 86.525, 211.218 89 C 209.829 91.475, 206.354 97.394, 203.496 102.152 L 198.299 110.805 196.483 106.689 C 195.484 104.425, 194.671 102.106, 194.677 101.536 C 194.683 100.966, 196.556 96.700, 198.840 92.056 C 201.123 87.413, 202.614 83.363, 202.153 83.056 C 201.692 82.750, 201.012 80.945, 200.641 79.046 C 200.271 77.146, 198.159 73.446, 195.948 70.824 L 191.928 66.056 195.464 60.916 C 199.389 55.211, 199.869 52.380, 197.250 50.392 C 193.162 47.289, 187.985 49.481, 184.137 55.944 C 182.190 59.214, 181.834 59.374, 177.080 59.121 C 172.365 58.871, 172.034 59.015, 171.386 61.599 C 170.829 63.819, 171.211 64.785, 173.390 66.659 C 175.532 68.501, 175.881 69.354, 175.094 70.824 C 173.520 73.765, 166.360 79.823, 162.603 81.393 C 157.727 83.430, 156.352 86.352, 159.015 89.015 C 160.669 90.669, 161.810 90.946, 164.788 90.417 C 170.151 89.466, 177.577 85.210, 181.551 80.812 C 183.445 78.715, 185.587 77, 186.310 77 C 187.647 77, 193 82.039, 193 83.297 C 193 83.675, 192.118 85.001, 191.040 86.242 C 189.962 87.484, 188.462 89.347, 187.707 90.382 C 186.385 92.194, 186.232 92.198, 183.626 90.490 C 178.940 87.420, 173.387 91.586, 177.555 95.045 C 181.186 98.059, 181.207 99.774, 177.680 105.246 C 173.838 111.208, 167.817 118.016, 166.429 117.968 C 165.918 117.950, 163.250 115.680, 160.500 112.923 C 157.750 110.166, 154.037 106.994, 152.250 105.874 L 149 103.837 149 92.957 L 149 82.077 153.250 80.952 C 157.598 79.801, 163 75.609, 163 73.385 C 163 72.703, 161.844 71.236, 160.430 70.124 C 158.409 68.534, 157.328 68.305, 155.365 69.051 C 149.168 71.407, 149.004 71.131, 148.956 58.250 C 148.900 43.441, 147.309 36.623, 143.810 36.199 C 142.445 36.034, 140.870 36.484, 140.309 37.199 C 138.218 39.864, 137 48.240, 137 59.943 C 137 68.888, 136.677 72.016, 135.750 72.063 C 135.063 72.098, 130.702 72.488, 126.061 72.931 C 118.531 73.650, 117.385 74.033, 115.429 76.487 C 113.806 78.522, 113.420 79.920, 113.945 81.868 L 114.653 84.500 125.828 84.500 L 137.003 84.500 137.001 87.152 C 137 89.123, 136.294 90.074, 134.250 90.856 C 128.616 93.010, 126.529 96.117, 121.875 109.273 C 120.363 113.548, 117.747 119.591, 116.063 122.701 C 112.739 128.837, 112.349 130.949, 114.200 132.800 C 119.361 137.961, 128.952 127.588, 133.664 111.750 C 136.407 102.530, 137.097 106.268, 136.943 129.523 C 136.785 153.447, 137.063 155, 141.500 155 C 146.423 155, 148.047 149.750, 148.867 131.176 L 149.500 116.852 153.214 119.676 C 155.256 121.229, 156.944 123.262, 156.964 124.193 C 157.027 127.119, 161.028 129, 167.187 129 C 172.050 129, 173.107 128.669, 174.087 126.838 C 174.723 125.649, 177.828 122.018, 180.987 118.770 L 186.730 112.864 189.327 117.295 C 192.103 122.032, 198.245 128, 200.344 128 C 202.654 128, 205.423 125.257, 205.534 122.858 C 205.645 120.456, 207.230 117.663, 216.524 103.500 C 219.411 99.100, 222.689 93.700, 223.808 91.500 C 228.498 82.283, 228.788 82.542, 228.362 95.559 C 228.146 102.126, 227.484 112.737, 226.890 119.137 C 225.645 132.542, 226.336 135.332, 230.768 134.810 C 235.209 134.287, 236.914 129.781, 238.803 113.568 L 240.500 99.003 243.190 103.792 C 244.670 106.426, 246.807 109.420, 247.940 110.446 C 249.073 111.471, 250 113.108, 250 114.084 C 250 116.216, 252.589 119, 254.571 119 C 255.357 119, 256.950 118.050, 258.110 116.890 C 260.702 114.298, 260.155 108.881, 256.730 103.196 C 255.503 101.160, 253.376 97.343, 252.002 94.713 C 249.486 89.897, 243.530 83, 241.886 83 C 241.399 83, 241.017 78.388, 241.038 72.750 L 241.076 62.500 245.038 59.760 C 249.361 56.769, 250.242 53.385, 247.429 50.571 C 245.563 48.706, 244.567 48.626, 241.780 50.118 C 239.731 51.214, 239.703 51.103, 240.304 44.368 C 240.745 39.426, 240.547 37.009, 239.598 35.750 C 238.093 33.752, 237.983 33.725, 236.152 34.885 M 66.500 43.576 C 63.304 45.992, 63.933 53.106, 68.036 60.949 C 69.891 64.496, 71.700 69.446, 72.055 71.949 C 72.409 74.452, 72.880 77.115, 73.100 77.867 C 73.576 79.494, 63.876 83.055, 53.813 84.946 C 43.648 86.856, 41.195 91.081, 48.098 94.791 C 51.170 96.442, 56.495 95.784, 65.949 92.585 C 70.046 91.198, 73.516 90.183, 73.661 90.328 C 73.806 90.473, 73.316 91.765, 72.571 93.200 C 71.827 94.636, 68.657 101.590, 65.528 108.655 C 62.399 115.720, 58.750 123.875, 57.419 126.777 C 56.089 129.680, 55 132.296, 55 132.591 C 55 132.887, 53.822 135.687, 52.381 138.814 C 50.941 141.941, 47.624 150.125, 45.010 157 C 42.396 163.875, 37.471 176.633, 34.065 185.350 C 26.733 204.122, 25.676 211.462, 29.991 213.657 C 33.702 215.546, 36.080 213.450, 38.803 205.892 C 40.069 202.376, 42.164 197.250, 43.457 194.500 C 45.986 189.124, 51.080 176.386, 55.854 163.500 C 57.484 159.100, 59.680 153.602, 60.734 151.282 L 62.650 147.065 63.949 166.782 C 64.663 177.627, 65.228 202.850, 65.204 222.833 C 65.165 254.502, 64.957 259.390, 63.580 260.912 C 61.273 263.460, 61.519 270.519, 64 273 C 65.100 274.100, 66.614 275, 67.365 275 C 70.263 275, 73.737 270.958, 75.274 265.797 C 77.382 258.721, 78.349 216.210, 77.078 186.515 C 76.561 174.423, 76.236 164.430, 76.358 164.309 C 76.479 164.188, 78.586 164.783, 81.039 165.632 C 92.074 169.451, 101.743 166.066, 99.548 159.152 C 98.928 157.198, 95.060 155.007, 92.203 154.990 C 89.529 154.975, 80 150.224, 80 148.906 C 80 147.397, 81.891 145.927, 90.233 140.949 C 93.936 138.739, 97.371 136.159, 97.865 135.216 C 99.239 132.592, 97.502 129.371, 94.068 128.173 C 90.516 126.935, 84.650 128.557, 80.300 131.979 C 76.981 134.589, 76.170 134.525, 75.434 131.594 C 75.102 130.271, 73.928 128.953, 72.826 128.665 C 70.450 128.043, 70.698 126.917, 75.505 116.500 C 77.282 112.650, 80.443 105.675, 82.531 101 C 84.619 96.325, 87.153 91.024, 88.163 89.220 C 90.400 85.224, 90.547 79.404, 88.463 77.320 C 87.528 76.385, 85.794 75.950, 84.032 76.209 C 81.142 76.633, 81.138 76.626, 81.639 72.067 C 81.939 69.332, 81.535 65.695, 80.632 63 C 76.684 51.222, 74.905 46.319, 73.831 44.250 C 72.485 41.659, 69.410 41.376, 66.500 43.576 M 178.205 133.353 C 177.727 133.984, 175.208 138.325, 172.607 143 C 165.588 155.617, 166.024 155.283, 154 157.290 C 148.225 158.254, 141.025 159.035, 138 159.027 C 130.145 159.004, 125.132 160.617, 123.771 163.603 C 121.069 169.533, 130.744 172.442, 145.517 170.142 C 149.305 169.552, 152.613 169.279, 152.869 169.536 C 153.433 170.099, 133.338 189.995, 126.919 195.229 C 124.404 197.280, 120.693 199.648, 118.673 200.492 C 115.984 201.616, 115.004 202.626, 115.015 204.263 C 115.062 211.110, 121.644 211.401, 131.581 204.994 C 139.340 199.992, 158.597 181.771, 166.189 172.250 C 171.290 165.852, 173.724 164.738, 177.764 166.952 C 178.719 167.475, 181.075 168.567, 183 169.379 C 184.925 170.191, 191 172.948, 196.500 175.506 C 202 178.064, 212.878 182.259, 220.673 184.828 C 233.822 189.162, 234.887 189.699, 235.398 192.250 C 235.913 194.816, 236.289 195, 241.020 195 C 245.071 195, 246.585 194.506, 248.545 192.545 C 251.779 189.312, 251.645 187.875, 247.750 184.021 C 244.156 180.465, 242.880 179.853, 232 176.466 C 227.875 175.182, 221.350 172.942, 217.500 171.488 C 204.670 166.644, 196.525 164.015, 194 163.904 C 190.037 163.731, 205.555 161.355, 215.862 160.557 C 225.708 159.795, 232.196 158.037, 235.200 155.319 C 237.729 153.030, 237.509 148.470, 234.777 146.557 C 231.992 144.606, 226.126 144.509, 225.399 146.402 C 225.029 147.368, 222.314 148.003, 216.681 148.443 C 208.402 149.090, 200.038 150.178, 187.745 152.207 C 184.029 152.821, 180.798 153.131, 180.564 152.897 C 180.329 152.663, 181.014 149.328, 182.084 145.486 C 183.155 141.644, 183.773 137.308, 183.458 135.852 C 182.843 133.005, 179.627 131.476, 178.205 133.353 M 187 182.560 C 183.425 183.944, 177.392 186.181, 173.593 187.532 C 155.395 194.003, 150.579 197.476, 153.149 202.278 C 154.048 203.958, 154.874 204.142, 159.039 203.589 C 161.704 203.236, 165.426 202.302, 167.312 201.514 L 170.739 200.082 171.350 204.540 C 171.687 206.992, 172.244 210.124, 172.589 211.499 L 173.217 214 162.358 214.006 C 156.386 214.009, 149.790 214.486, 147.701 215.066 C 143.299 216.289, 140.899 219.969, 142.918 222.402 C 144.796 224.664, 153.427 226.215, 165.500 226.461 C 175.920 226.674, 176.517 226.799, 176.820 228.843 C 177.120 230.873, 176.737 231, 170.320 231.001 C 160.248 231.003, 137.619 233.844, 133.277 235.652 C 129.181 237.357, 128.039 238.564, 128.015 241.211 C 128.005 242.395, 129.476 243.361, 132.791 244.345 C 136.889 245.562, 139.238 245.573, 149.041 244.418 C 155.343 243.676, 164.834 243.053, 170.131 243.034 L 179.763 243 180.999 247.750 C 181.679 250.363, 182.776 256.860, 183.438 262.190 C 184.979 274.611, 184.063 278.108, 179 279.138 C 174.364 280.081, 170.263 279.198, 166.018 276.342 C 160.144 272.391, 154.983 273.614, 155.015 278.950 C 155.035 282.230, 155.528 282.879, 161.321 287.250 C 177.751 299.649, 197.033 290.861, 196.976 271 C 196.965 267.006, 194.774 252.426, 193.483 247.750 C 193.217 246.787, 192.745 245.100, 192.433 244 C 191.897 242.111, 192.353 241.997, 200.683 241.953 C 205.532 241.928, 212.408 241.365, 215.962 240.702 C 221.320 239.704, 222.686 239.032, 223.953 236.775 C 225.340 234.303, 225.327 233.898, 223.805 232.377 C 222.384 230.955, 219.655 230.686, 205.815 230.601 L 189.500 230.500 189.194 227.862 C 188.903 225.344, 189.187 225.173, 195.466 224.079 C 203.827 222.623, 206.304 221.664, 208.904 218.873 C 211.542 216.041, 211.562 213.818, 208.971 211.473 C 207.181 209.854, 206.383 209.772, 202.221 210.779 C 199.624 211.408, 194.918 212.216, 191.762 212.575 C 187.104 213.105, 185.913 212.938, 185.433 211.686 C 184.510 209.281, 182.182 197.559, 182.515 196.996 C 182.680 196.719, 186.118 195.432, 190.157 194.137 C 201.279 190.569, 202.464 189.848, 202.761 186.469 C 202.904 184.836, 202.631 182.903, 202.155 182.174 C 200.552 179.722, 193.895 179.892, 187 182.560" stroke="none" fill="black" fill-rule="evenodd"/>
</svg>