<svg xmlns="http://www.w3.org/2000/svg" width="300" height="300" viewBox="0 0 300 300" version="1.1">
	<path d="M 190.500 15.033 C 187.200 16.173, 182.925 17.829, 181 18.713 C 167.265 25.021, 159.293 29.406, 155.770 32.589 L 151.684 36.281 150.814 51.890 C 150.335 60.476, 149.035 75.375, 147.925 85 C 141.985 136.488, 141.024 146.436, 141.013 156.595 C 140.998 169.056, 141.915 171, 147.806 171 C 153.024 171, 154.119 168.079, 155.608 150.196 C 157.009 133.370, 159.652 109.249, 160.587 104.750 C 161.149 102.046, 161.285 102, 168.632 102 C 176.512 102, 186.334 100.198, 196.789 96.834 C 204.217 94.444, 206.956 91.393, 205.176 87.487 C 203.710 84.270, 200.638 83.631, 190.194 84.371 C 185.412 84.709, 177.331 85.276, 172.235 85.630 L 162.970 86.274 163.569 65.887 C 163.898 54.674, 164.310 45.018, 164.484 44.428 C 164.925 42.936, 190.880 30.311, 196.325 28.940 C 207.153 26.213, 209.714 32.633, 212.487 69.453 C 214.228 92.579, 214.492 136.503, 212.943 145.418 L 211.886 151.500 205.456 151.165 C 201.272 150.947, 197.188 151.428, 193.763 152.542 C 188.659 154.201, 169.009 163.720, 168 165.022 C 166.754 166.630, 153.826 173.002, 151.782 173.015 C 148.915 173.035, 147.618 173.895, 146.094 176.788 C 142.080 184.408, 153.356 189.046, 164.206 184.237 L 168.913 182.151 164.032 192.325 C 161.348 197.921, 157.919 205.425, 156.412 209 C 153.640 215.577, 148.805 226.358, 144.527 235.500 C 143.240 238.250, 140.950 243.650, 139.437 247.500 C 137.924 251.350, 136.305 254.998, 135.840 255.607 C 135.374 256.215, 134.601 258.690, 134.121 261.107 C 133.642 263.523, 132.263 269.212, 131.058 273.749 C 128.413 283.708, 128.638 286.662, 132.250 289.346 L 135 291.391 137.750 289.345 C 139.634 287.945, 141.477 284.653, 143.602 278.900 C 149.492 262.952, 166.638 223.252, 177.247 201 C 181.016 193.093, 184.021 188.265, 186.865 185.547 C 190.879 181.710, 191.858 178.901, 190.131 176.177 C 189.331 174.916, 185.593 175.100, 179.500 176.700 C 176.057 177.604, 179.013 175.413, 187 171.142 C 195.663 166.509, 207.108 163.452, 209.999 164.999 C 212.426 166.298, 217.608 166.280, 220.067 164.964 C 221.132 164.394, 223.074 161.807, 224.384 159.214 C 228.921 150.235, 229.501 144.756, 229.487 111 C 229.474 79.124, 228.226 58.729, 225.324 43 C 223.246 31.740, 217.438 20.269, 211.856 16.400 C 206.461 12.661, 198.786 12.170, 190.500 15.033 M 84.299 49.503 C 81.612 51.385, 80.628 54.628, 78.459 68.748 L 76.731 79.995 72.615 81.112 C 70.352 81.726, 64.675 82.551, 60 82.944 C 55.325 83.338, 50.471 84.299, 49.213 85.080 C 43.990 88.323, 46.027 95.029, 52.857 97.075 C 55.753 97.943, 58.805 97.953, 65.027 97.116 C 69.594 96.501, 73.548 96.215, 73.813 96.480 C 74.478 97.145, 69.146 130.264, 68.235 131.125 C 67.831 131.507, 60.750 132.369, 52.500 133.041 C 32.495 134.670, 26.419 137.445, 28.500 144 C 29.038 145.696, 30.013 146, 34.910 146 C 38.087 146, 46.157 146.294, 52.843 146.654 C 62.801 147.189, 65 147.584, 65 148.837 C 65 151.928, 58.647 176.916, 54.284 190.986 C 46.330 216.634, 38.717 233.589, 33.296 237.723 C 30.069 240.185, 29.242 242.860, 30.607 246.418 C 31.055 247.584, 32.602 248, 36.499 248 C 41.374 248, 42.182 247.642, 46.921 243.381 C 54.441 236.620, 57.922 228.882, 69.362 193.500 C 73.697 180.094, 79.341 160.040, 81.532 150.266 L 83.153 143.032 87.900 141.622 C 103.226 137.071, 114.901 126.347, 114.978 116.750 C 115.005 113.374, 111.824 110, 108.614 110 C 106.903 110, 105.790 110.923, 104.679 113.265 C 102.559 117.732, 99.233 120.653, 92.394 124.053 C 89.207 125.637, 86.524 126.836, 86.431 126.717 C 85.939 126.088, 91.030 93.570, 91.729 92.871 C 92.183 92.417, 96.553 91.739, 101.440 91.363 C 109.063 90.777, 110.741 90.309, 113.242 88.075 C 115.532 86.029, 116.020 84.929, 115.521 82.941 C 114.495 78.852, 111.381 77.639, 100.750 77.184 L 91 76.767 91 66.818 C 91 61.346, 91.496 55.942, 92.102 54.809 C 92.925 53.271, 92.883 52.149, 91.933 50.375 C 90.474 47.649, 87.441 47.303, 84.299 49.503 M 181 122.459 C 165.036 126.100, 154.885 133.542, 159.046 138.555 C 160.948 140.847, 173.690 140.462, 180.521 137.906 C 184.382 136.462, 189.123 135.705, 195.809 135.468 C 201.139 135.279, 206.072 135.096, 206.771 135.062 C 207.471 135.028, 208.530 133.931, 209.126 132.624 C 209.988 130.732, 209.842 129.689, 208.412 127.506 C 204.557 121.623, 193.552 119.597, 181 122.459 M 80.750 175.115 C 76.291 178.442, 77.542 184, 82.750 184 C 87.445 184, 90.466 186.753, 96 196.078 C 102.912 207.724, 109.223 214.085, 120.463 220.734 C 129.586 226.130, 134.237 227.659, 138.374 226.621 C 143.102 225.434, 142.686 216.923, 137.775 214.384 C 130.270 210.503, 118.196 200.875, 114.863 196.113 C 110.822 190.341, 96.619 176.889, 92.097 174.550 C 88.038 172.451, 84.055 172.649, 80.750 175.115 M 192.497 187.303 C 188.457 191.343, 187.452 197.345, 188.291 212.411 C 189.717 238.004, 200.093 258.519, 215.395 266.003 C 234.636 275.414, 261.219 270.990, 275.908 255.933 C 282.693 248.976, 284.025 245.915, 281.904 242.140 C 278.896 236.787, 273.985 237.646, 267.500 244.659 C 260.745 251.964, 245.044 256.917, 232.724 255.629 C 221.645 254.471, 215.690 249.850, 209.649 237.724 C 204.388 227.164, 202.622 216.744, 203.229 199.855 C 203.552 190.859, 203.357 185.757, 202.661 185.061 C 200.495 182.895, 195.890 183.910, 192.497 187.303" stroke="none" fill="black" fill-rule="evenodd"/>
</svg>