<svg xmlns="http://www.w3.org/2000/svg" width="300" height="300" viewBox="0 0 300 300" version="1.1">
	<path d="M 224.687 11.805 C 222.769 13.807, 222 15.659, 222 18.279 C 222 22.414, 223.302 23.386, 233 26.489 C 236.025 27.456, 240.817 29.972, 243.648 32.079 C 250.104 36.884, 253.227 37.736, 256.507 35.587 C 260.832 32.753, 259.481 27.697, 253.393 23.934 C 251.396 22.700, 247.315 19.549, 244.325 16.932 C 234.717 8.524, 229.208 7.086, 224.687 11.805 M 55 19 C 52.553 21.447, 52.405 26.282, 54.696 28.958 C 56.661 31.253, 63.937 48.687, 63.974 51.191 C 63.989 52.121, 63.550 53.160, 63 53.500 C 59.758 55.503, 64.096 62.502, 67.865 61.349 C 69.250 60.925, 69.271 60.994, 68 61.795 C 66.040 63.031, 42.478 69, 39.560 69 C 38.321 69, 35.871 69.716, 34.117 70.592 C 25.482 74.899, 26.938 84, 36.261 84 C 49.603 84, 89.506 72.717, 95.711 67.190 C 98.622 64.597, 98.639 60.680, 95.750 57.957 C 93.107 55.465, 88.611 55.739, 78.102 59.032 C 74.583 60.135, 71.470 60.804, 71.185 60.518 C 70.900 60.233, 71.175 60, 71.797 60 C 73.692 60, 78 52.727, 78.006 49.518 C 78.009 47.858, 76.583 41.601, 74.836 35.614 C 72.251 26.750, 70.979 24.011, 67.986 20.864 C 65.027 17.754, 63.597 17, 60.655 17 C 58.333 17, 56.270 17.730, 55 19 M 173.517 29.981 C 171.937 31.727, 171.786 33.360, 172.250 43.731 C 172.539 50.204, 173.076 56.225, 173.441 57.110 C 173.964 58.376, 173.291 58.856, 170.303 59.349 C 164.274 60.346, 145.570 60.101, 140.230 58.956 C 132.689 57.339, 127 60.367, 127 65.999 C 127 69.381, 131.003 73, 134.743 73 C 136.848 73, 137.128 73.354, 136.620 75.376 C 136.292 76.683, 136.672 83.096, 137.465 89.626 C 142.605 131.967, 141.194 169.762, 132.935 211 C 128.148 234.902, 126.230 242.628, 124.003 246.994 C 121.122 252.641, 121.614 257.154, 125.250 258.425 C 134.100 261.518, 140.287 250.194, 145.973 220.500 C 151.918 189.446, 153.617 176.697, 154.611 155.663 L 155.296 141.164 160.737 139.082 C 166.101 137.029, 171.492 136.488, 175.599 137.591 C 177.646 138.140, 177.667 138.351, 176.430 146.076 C 174.295 159.406, 170.636 168.399, 167.589 167.799 C 166.990 167.682, 165.269 167.910, 163.765 168.308 C 158.602 169.672, 158.895 177.356, 164.262 181.352 C 170.728 186.166, 182.411 178.499, 186.938 166.472 C 191.648 153.955, 194.427 133.079, 191.797 129.963 C 186.034 123.136, 169.399 119.717, 160.346 123.500 C 158.371 124.325, 156.428 125, 156.028 125 C 155.628 125, 155.003 120.612, 154.639 115.250 C 153.912 104.534, 151.681 94.921, 147.638 85.078 C 143.382 74.716, 142.561 75.338, 161.250 74.769 C 170.188 74.496, 177.634 74.383, 177.798 74.518 C 177.961 74.652, 179.388 79.428, 180.967 85.131 C 182.547 90.834, 184.928 99.325, 186.258 104 C 187.588 108.675, 189.217 114.750, 189.878 117.500 C 190.539 120.250, 194.033 132.400, 197.642 144.500 C 201.250 156.600, 205.092 169.875, 206.178 174 C 207.264 178.125, 210.815 188.665, 214.069 197.423 L 219.986 213.346 216.816 218.423 C 215.072 221.215, 212.912 224.400, 212.015 225.500 C 211.119 226.600, 208.224 231.147, 205.582 235.605 C 199.574 245.740, 196.098 249.492, 191.282 251.038 C 186.015 252.730, 184 254.782, 184 258.455 C 184 262.586, 185.576 264, 190.180 264 C 198.228 264, 206.700 258.968, 212.694 250.628 C 214.721 247.808, 217.098 244.785, 217.976 243.910 C 218.854 243.036, 221.328 239.609, 223.473 236.296 L 227.375 230.270 235.643 245.141 C 247.813 267.028, 251.705 272.158, 257.163 273.513 C 259.134 274.001, 260.370 273.630, 261.913 272.087 C 264.747 269.253, 264.592 268.314, 260.155 261.449 C 253.343 250.911, 236 218.359, 236 216.112 C 236 215.693, 238.742 210.434, 242.093 204.425 C 251.093 188.289, 258.745 171.107, 263.214 157 C 268.171 141.354, 271 131.146, 271 128.907 C 271 127.957, 272.350 124.327, 273.999 120.840 C 277.136 114.208, 277.705 110.186, 275.965 106.934 C 274.436 104.078, 270.488 104.494, 268.223 107.750 C 264.155 113.595, 255.002 132.895, 252.452 141 C 249.597 150.078, 241.265 170.872, 239.851 172.450 C 239.383 172.973, 239.004 174.098, 239.009 174.950 C 239.021 177.269, 228.570 197.219, 228.107 195.759 C 227.888 195.067, 225.574 188.200, 222.965 180.500 C 216.216 160.577, 212.163 147.277, 211.080 141.500 C 210.193 136.767, 203.555 113.146, 199.136 99 C 196.022 89.034, 191.842 72.825, 192.273 72.393 C 192.485 72.181, 200.273 70.629, 209.579 68.944 C 229.376 65.360, 231.386 64.588, 231.799 60.416 C 232.369 54.644, 226.874 50.391, 222.128 52.931 C 220.732 53.678, 205.003 55.350, 190.060 56.339 C 187.793 56.489, 187.496 55.931, 185.882 48.500 C 183.180 36.052, 182.323 33.143, 180.577 30.477 C 178.619 27.489, 175.943 27.301, 173.517 29.981 M 70.791 103.542 C 70.493 103.840, 63.648 104.681, 55.579 105.410 C 42.659 106.578, 40.617 107.011, 38.455 109.042 C 34.221 113.020, 35.584 119.318, 41.100 121.259 C 44.222 122.358, 64.668 119.943, 75.943 117.144 C 88.662 113.987, 90.859 112.390, 89.047 107.623 C 88.491 106.160, 86.874 104.522, 85.453 103.982 C 82.731 102.947, 71.717 102.617, 70.791 103.542 M 79.500 136.163 C 74.550 137.775, 68.250 139.814, 65.500 140.695 C 62.750 141.576, 60.050 142.639, 59.500 143.059 C 58.950 143.478, 56.825 144.134, 54.779 144.516 C 49.804 145.446, 42 150.478, 42 152.755 C 42 158.932, 49.732 161.952, 59.287 159.507 C 68.493 157.152, 89.012 147.425, 92.332 143.842 C 95.438 140.489, 95.380 136.773, 92.184 134.344 C 90.035 132.710, 90.156 132.692, 79.500 136.163 M 43.367 177.772 C 38.416 181.783, 37.891 186.834, 41.059 200 C 43.827 211.503, 45.959 226.965, 45.982 235.693 C 45.998 241.982, 46.280 243.082, 48.223 244.443 C 51.277 246.583, 53.290 246.396, 55.703 243.750 C 59.255 239.853, 60.197 234.781, 59.872 221.309 L 59.566 208.684 69.033 204.861 C 84.879 198.462, 88.256 199.667, 89.952 212.322 C 91.345 222.719, 91.278 235.586, 89.790 243.429 C 88.611 249.649, 88.493 249.821, 85.040 250.411 C 83.093 250.744, 76.550 251.278, 70.500 251.598 C 57.784 252.271, 53.599 253.307, 51.503 256.299 C 49.335 259.394, 49.635 261.362, 52.750 264.479 L 55.500 267.231 70 266.744 C 82.331 266.330, 85.833 265.832, 93.408 263.412 C 107.153 259.023, 112.259 252.925, 106.590 247.671 C 104.233 245.487, 104.211 245.316, 105.590 240.001 C 107.467 232.764, 107.380 216.565, 105.417 207.937 C 103.432 199.207, 98.882 192.180, 93.500 189.532 C 85.066 185.382, 67.631 187.032, 60.184 192.685 C 58.361 194.069, 56.720 195.044, 56.539 194.851 C 56.358 194.658, 55.265 191.309, 54.110 187.409 C 50.973 176.815, 47.924 174.081, 43.367 177.772" stroke="none" fill="black" fill-rule="evenodd"/>
</svg>