<svg xmlns="http://www.w3.org/2000/svg" width="300" height="300" viewBox="0 0 300 300" version="1.1">
	<path d="M 84.500 11.216 C 78.738 14.543, 78.618 17.714, 83.984 24.857 C 87.689 29.786, 92 40.678, 92 45.105 C 92 49.818, 100.100 52.995, 103.050 49.439 C 106.545 45.228, 104.491 28.347, 99.329 18.863 C 97.437 15.387, 95.532 13.468, 92.534 12.017 C 87.748 9.700, 87.217 9.647, 84.500 11.216 M 159.952 40.894 L 157.058 43.788 157.136 63.144 C 157.217 83.098, 156.874 88.119, 154.381 103.500 C 152.096 117.595, 150.487 122.264, 147.034 124.817 C 143.373 127.523, 143.013 131.476, 146.073 135.365 C 148.503 138.454, 154.155 138.981, 157.762 136.454 C 161.063 134.142, 164.617 127.414, 166.981 119 C 169.070 111.569, 173 85.793, 173 79.528 C 173 76.926, 173.973 75.363, 177.858 71.730 C 185.356 64.716, 193.714 61.110, 195.557 64.092 C 195.928 64.693, 196.371 70.555, 196.540 77.119 C 196.898 91.004, 198.211 94.347, 204.528 97.453 C 212.487 101.367, 228.202 100.111, 240.102 94.610 C 246.904 91.467, 248.656 90.036, 249.986 86.536 C 251.342 82.970, 250.580 80.610, 247.399 78.526 C 244.998 76.953, 244.456 77.018, 236.188 79.878 C 226.624 83.185, 216.333 85.161, 213.090 84.313 C 211.145 83.805, 210.998 83.062, 210.978 73.633 C 210.961 65.907, 210.512 62.522, 209.087 59.384 C 206.853 54.464, 201.857 50.420, 196.870 49.496 C 190.582 48.330, 176.907 52.946, 173.914 57.245 C 173.592 57.708, 172.027 54.130, 170.438 49.294 C 167.748 41.111, 165.901 38, 163.732 38 C 163.245 38, 161.544 39.302, 159.952 40.894 M 88 55.673 C 70.079 58.548, 64.336 60.661, 57.750 66.808 C 54.462 69.876, 54.154 73.925, 57.013 76.512 C 58.965 78.279, 59.509 78.237, 75.159 75.122 C 84.431 73.277, 96.228 71.659, 102.896 71.319 C 109.278 70.994, 115.063 70.284, 115.750 69.741 C 117.900 68.045, 117.277 61.600, 114.750 59.410 C 110.427 55.662, 98.478 53.993, 88 55.673 M 98.833 96.989 C 98.190 98.896, 86.698 100.222, 76.818 99.529 L 67.135 98.849 63.402 102.271 C 59.277 106.050, 59.284 107.829, 63.431 110.547 C 66.820 112.767, 88.105 113.757, 96.189 112.071 C 104.009 110.439, 107 107.925, 107 102.984 C 107 100.118, 106.423 98.709, 104.777 97.557 C 102.260 95.794, 99.331 95.514, 98.833 96.989 M 101 120.500 C 99.075 121.241, 95.700 121.887, 93.500 121.934 C 91.300 121.982, 84.383 122.916, 78.129 124.010 C 71.875 125.105, 65.665 126, 64.329 126 C 59.960 126, 55.998 128.752, 56.015 131.776 C 56.035 135.289, 56.798 136.361, 60.700 138.360 C 65.213 140.672, 72.953 140.422, 89.875 137.416 C 105.533 134.636, 109.484 133.202, 110.524 129.924 C 111.702 126.213, 110.183 121.404, 107.436 120.153 C 106.045 119.519, 104.815 119.034, 104.703 119.076 C 104.591 119.118, 102.925 119.759, 101 120.500 M 206.405 131.031 C 204.153 131.478, 197.403 134.178, 191.405 137.033 C 168.760 147.811, 164.342 149.883, 158.626 152.407 C 155.395 153.833, 152.088 155, 151.277 155 C 150.466 155, 148.272 155.726, 146.401 156.614 C 140.025 159.640, 142.915 166.351, 151.250 167.874 C 158.503 169.199, 163.002 167.848, 182.259 158.563 C 192.026 153.853, 200.238 150, 200.509 150 C 201.695 150, 200.489 152.918, 192.080 170.389 C 187.174 180.583, 182.868 189.840, 182.512 190.961 C 182.156 192.083, 181.551 193, 181.166 193 C 180.782 193, 178 190.715, 174.984 187.923 C 162.057 175.955, 151.169 169.997, 142.239 170.004 C 134.541 170.010, 127.993 175.253, 129.552 180.164 C 130.137 182.009, 130.768 182.188, 134.937 181.694 C 141.032 180.972, 146.163 183.804, 158.375 194.631 C 163.256 198.959, 168.823 203.868, 170.745 205.540 L 174.241 208.579 170.984 215.040 C 166.170 224.586, 160.932 231.864, 154.732 237.621 C 146.908 244.885, 146.010 249.519, 151.950 251.979 C 154.355 252.975, 155.468 252.873, 158.666 251.364 C 164.375 248.669, 179.067 234.038, 183.054 227.076 C 184.949 223.767, 186.744 221.046, 187.043 221.030 C 187.342 221.013, 190.267 223.302, 193.543 226.116 C 201.682 233.105, 215.747 243.528, 226.112 250.248 C 243.725 261.668, 257.384 267, 269.026 267 C 275.851 267, 276.365 266.835, 279.600 263.600 C 282.586 260.614, 283 259.573, 283 255.055 C 283 250.940, 282.513 249.423, 280.572 247.481 C 278.463 245.372, 277.754 245.190, 275.167 246.092 C 273.381 246.714, 271.710 248.287, 270.992 250.019 C 269.936 252.570, 269.425 252.839, 266.648 252.310 C 261.597 251.348, 239.419 240.375, 235.170 236.735 C 234.252 235.948, 232.825 235.067, 232 234.777 C 229.727 233.978, 215.462 223.209, 204.376 213.923 C 198.944 209.373, 194.364 205.556, 194.199 205.440 C 194.033 205.325, 197.775 197.191, 202.515 187.365 C 213.418 164.759, 218.646 152.541, 220.001 146.496 C 221.630 139.229, 219.523 134.491, 213.145 131.078 C 212.037 130.485, 210.989 130.049, 210.816 130.110 C 210.642 130.170, 208.657 130.584, 206.405 131.031 M 89.500 158.895 C 80.913 159.412, 77.623 160.039, 74.500 161.756 C 69.266 164.634, 67.786 165.945, 66.115 169.187 L 64.729 171.874 62.615 167.687 C 60.189 162.884, 56.260 161.595, 53.245 164.614 C 50.113 167.751, 51.093 180.136, 55.770 196.500 C 57.971 204.200, 60.335 212.650, 61.023 215.277 C 61.778 218.157, 63.345 220.954, 64.969 222.321 C 67.191 224.190, 67.493 224.970, 66.689 226.770 C 65.470 229.502, 67.148 231.745, 71.895 233.729 C 76.624 235.705, 83.180 234.628, 96.427 229.696 C 108.489 225.206, 114 221.298, 114 217.234 C 114 215.827, 115.355 212.563, 117.012 209.982 C 123.930 199.200, 125.999 178.687, 121.124 169.209 C 115.833 158.921, 111.668 157.563, 89.500 158.895 M 87 174.546 C 74.009 176.181, 67.710 176.310, 66.369 174.969 C 65.803 174.403, 66.128 176.990, 67.092 180.719 C 68.056 184.449, 70.229 192.818, 71.922 199.318 C 73.615 205.817, 75 213.136, 75 215.581 L 75 220.027 78.750 218.384 C 80.813 217.480, 86.488 215.699, 91.362 214.425 C 96.237 213.151, 100.318 211.972, 100.432 211.804 C 102.866 208.225, 105.290 202.677, 106.580 197.731 C 108.574 190.087, 108.168 175.352, 105.925 173.932 C 104.099 172.777, 100 172.910, 87 174.546" stroke="none" fill="black" fill-rule="evenodd"/>
</svg>