<svg xmlns="http://www.w3.org/2000/svg" width="300" height="300" viewBox="0 0 300 300" version="1.1">
	<path d="M 66.686 33.539 C 61.457 38.139, 61.806 46.046, 67.661 55.582 C 69.660 58.837, 72.400 63.750, 73.750 66.500 C 75.100 69.250, 76.864 72.245, 77.671 73.155 C 79.428 75.137, 80.491 74.862, 57 78.499 C 47.925 79.904, 39.810 81.435, 38.967 81.900 C 38.124 82.365, 34.236 83.285, 30.329 83.945 C 21.478 85.437, 18.634 87.652, 20.114 91.898 C 21.600 96.159, 25.792 97.521, 37 97.384 C 55.087 97.164, 94.012 87.919, 100.119 82.393 C 102.642 80.109, 102.571 74.827, 99.985 72.487 C 98.195 70.867, 97.405 70.794, 92.909 71.832 C 86.244 73.370, 85.485 73.325, 87.015 71.482 C 88.467 69.732, 87.878 59.498, 86.147 56.412 C 84.362 53.228, 80.369 43.751, 79.022 39.500 C 77.454 34.553, 74.320 30.990, 71.576 31.032 C 70.434 31.049, 68.234 32.177, 66.686 33.539 M 198.611 41.532 C 196.431 43.712, 196.105 46.910, 195.662 70.500 C 195.369 86.068, 194.726 94.475, 193.175 103 C 190.735 116.409, 184.918 138.094, 182.104 144.271 C 181.027 146.635, 179.844 149.773, 179.475 151.244 C 178.578 154.819, 178.330 154.968, 164.326 160.384 C 150.669 165.666, 147.487 167.713, 146.694 171.727 C 145.344 178.560, 151.785 181.328, 162.740 178.624 C 166.365 177.730, 169.517 177.184, 169.744 177.411 C 169.972 177.638, 167.013 185.401, 163.169 194.662 C 153.378 218.255, 138.489 248.493, 134.406 253.079 C 133.633 253.947, 133 254.994, 133 255.405 C 133 256.609, 123.968 268, 123.013 268 C 121.179 268, 119 271.265, 119 274.015 C 119 277.035, 122.029 280, 125.113 280 C 126.031 280, 128.637 279.169, 130.905 278.154 C 137.751 275.089, 150.285 257.767, 163.217 233.500 C 165.269 229.650, 166.959 227.053, 166.974 227.730 C 166.988 228.406, 168.912 229.927, 171.250 231.109 C 173.588 232.291, 183.150 238.333, 192.500 244.535 C 236.223 273.539, 260.706 285.795, 275.607 286.139 C 287.063 286.403, 292.112 280.605, 287.385 272.615 C 286.486 271.096, 285.180 270.756, 280.655 270.860 C 277.566 270.931, 272.893 270.276, 270.270 269.404 C 264.883 267.613, 242.338 256.733, 234 251.899 C 221.218 244.490, 190.790 224.289, 190.167 222.797 C 189.983 222.359, 189.405 222, 188.881 222 C 188.358 222, 186.741 221.221, 185.288 220.269 C 183.834 219.317, 180.588 217.854, 178.073 217.019 C 175.137 216.044, 173.567 214.963, 173.686 214 C 173.789 213.175, 176.598 205.568, 179.928 197.095 C 183.258 188.622, 186.930 178.888, 188.087 175.463 C 190.393 168.635, 190.197 168.792, 202.500 163.971 C 244.311 147.591, 246.131 146.542, 243.895 140.128 C 242.068 134.886, 238.697 135.048, 218.874 141.329 C 209.318 144.357, 200.713 147.145, 199.750 147.524 C 197.527 148.400, 197.521 148.468, 200.841 136.143 C 202.441 130.202, 204.294 125.415, 205.184 124.917 C 206.039 124.439, 212.464 123.129, 219.463 122.006 C 226.461 120.883, 234.146 119.073, 236.539 117.982 C 238.932 116.892, 241.365 116, 241.945 116 C 243.844 116, 247 112.051, 247 109.674 C 247 108.395, 245.880 106.296, 244.511 105.010 L 242.022 102.672 228.761 103.882 C 221.468 104.547, 213.813 105.253, 211.750 105.450 C 209.367 105.679, 208.007 105.389, 208.020 104.655 C 208.030 104.020, 208.701 97.650, 209.510 90.500 C 210.318 83.350, 210.985 77.233, 210.990 76.907 C 210.996 76.581, 215.387 75.520, 220.750 74.550 C 231.961 72.522, 245.542 69.234, 248.588 67.811 C 249.736 67.275, 251.986 66.985, 253.588 67.168 L 256.500 67.500 256.469 91.500 C 256.438 115.184, 255.636 124.536, 252.309 139.978 C 251.101 145.585, 249.973 148.181, 247.798 150.355 C 243.773 154.381, 243.122 158.272, 246.123 160.373 C 249.349 162.633, 250.926 162.432, 256.197 159.090 C 260.603 156.296, 262.876 152.740, 268.081 140.500 C 272.149 130.932, 274.296 110.728, 273.844 86.259 C 273.505 67.925, 273.309 66.153, 271.118 61.684 C 268.301 55.936, 263.235 52.268, 256.916 51.402 C 251.884 50.712, 235.945 54.525, 220.505 60.112 C 215.769 61.825, 211.694 63.027, 211.449 62.783 C 211.205 62.538, 210.716 59.449, 210.363 55.919 C 209.154 43.835, 203.378 36.764, 198.611 41.532 M 162.301 49.950 C 156.282 52.683, 131.125 76.873, 124.645 86.158 C 121.558 90.583, 120.345 91.597, 118.553 91.255 C 115.973 90.762, 113 93.284, 113 95.966 C 113 100.225, 117.474 111.371, 124.051 123.500 C 137.800 148.853, 138.500 150.559, 138.500 158.734 C 138.500 165.541, 138.676 166.147, 141 167.323 C 144.308 168.998, 148.120 166.910, 150.951 161.874 C 153.876 156.669, 153.497 150.981, 149.530 140.552 C 147.658 135.631, 146.313 131.303, 146.541 130.934 C 146.769 130.565, 148.692 129.985, 150.815 129.646 C 156.157 128.791, 167.913 122.736, 173.009 118.214 C 177.467 114.258, 178.510 110.525, 176.003 107.503 C 174.017 105.111, 171.262 105.698, 161.863 110.516 C 154.389 114.348, 152.472 114.939, 149.212 114.418 C 147.099 114.080, 143.746 114.252, 141.760 114.801 C 138.157 115.795, 138.141 115.786, 134.585 110.430 C 132.624 107.477, 130.903 104.649, 130.760 104.144 C 130.279 102.448, 142 90.121, 155.962 77.639 C 168.585 66.355, 170.246 65.192, 174.658 64.549 C 180.101 63.757, 183.409 61.973, 185.020 58.962 C 186.648 55.921, 185.323 53.230, 181.821 52.461 C 180.122 52.087, 176.880 50.941, 174.616 49.913 C 169.446 47.565, 167.541 47.571, 162.301 49.950 M 84 101.246 C 81.525 101.732, 73.425 103.634, 66 105.472 C 58.575 107.309, 50.475 109.133, 48 109.525 C 36.779 111.300, 30.180 119.046, 34.400 125.488 C 35.646 127.389, 36.909 128, 39.592 128 C 44.660 128, 75.823 119.972, 78.500 117.977 C 79.050 117.567, 82.859 116.030, 86.965 114.560 C 95.682 111.440, 97 110.521, 97 107.569 C 97 102.378, 91.601 99.752, 84 101.246 M 72.500 134.122 C 67.550 134.591, 59.450 135.874, 54.500 136.973 C 49.550 138.073, 43.503 139.275, 41.063 139.644 C 38.113 140.090, 35.475 141.370, 33.191 143.464 C 30.167 146.235, 29.841 147.001, 30.471 149.866 C 31.642 155.200, 38.896 156.429, 52 153.511 C 55.575 152.715, 61.875 151.579, 66 150.986 C 89.727 147.573, 95.212 146.026, 96.927 142.260 C 97.843 140.251, 97.755 139.275, 96.482 137.333 C 93.566 132.881, 90.270 132.440, 72.500 134.122 M 36.381 173.356 C 35.765 174.060, 34.697 176.406, 34.008 178.568 C 33.318 180.731, 32.360 183.281, 31.877 184.236 C 30.658 186.650, 30.762 200, 32 200 C 32.550 200, 33 201.290, 33 202.866 C 33 204.443, 34.125 211.703, 35.500 219 C 36.875 226.297, 38 233.978, 38 236.069 C 38 241.938, 39.543 244.959, 42.882 245.626 L 45.798 246.210 43.399 249.744 C 39.936 254.847, 40.278 257.531, 44.684 259.850 C 48.538 261.879, 53.878 261.095, 63.301 257.115 C 68.360 254.979, 75.200 252.465, 78.500 251.529 C 85.173 249.637, 89 246.728, 89 243.548 C 89 240.220, 86.330 237.275, 82.848 236.764 C 79.400 236.258, 57.545 241.036, 52.322 243.438 L 49.144 244.899 50.702 241.199 C 51.968 238.193, 52.137 235.157, 51.605 225 C 51.244 218.125, 50.691 211.076, 50.374 209.336 C 49.809 206.232, 49.944 206.102, 57.472 202.481 C 61.693 200.451, 66.897 198.555, 69.037 198.268 C 74.984 197.471, 75.666 199.821, 74.069 215.599 C 72.801 228.114, 72.805 228.163, 75.073 230.578 C 77.915 233.603, 81.120 233.662, 84.499 230.750 C 89.448 226.485, 92.756 203.592, 89.832 193.835 C 88.441 189.191, 85.013 185.536, 79.593 182.918 C 75.441 180.911, 70.071 180.398, 68.450 181.853 C 67.928 182.321, 65.335 183.288, 62.689 184 C 60.043 184.712, 55.372 186.594, 52.309 188.184 C 49.246 189.773, 46.542 190.875, 46.300 190.633 C 46.058 190.392, 45.594 186.670, 45.268 182.363 C 44.943 178.057, 44.106 173.963, 43.409 173.267 C 41.790 171.647, 37.831 171.697, 36.381 173.356" stroke="none" fill="black" fill-rule="evenodd"/>
</svg>