<svg xmlns="http://www.w3.org/2000/svg" width="300" height="300" viewBox="0 0 300 300" version="1.1">
	<path d="M 68.800 12.046 C 64.672 16.174, 65.362 19.936, 71.760 28.176 C 80.724 39.723, 82.945 43.588, 83.531 48.660 C 84.123 53.789, 85.932 56, 89.536 56 C 95.649 56, 98.360 45.284, 94.722 35.500 C 91.416 26.609, 81.432 13.374, 75.800 10.418 C 72.239 8.548, 72.316 8.530, 68.800 12.046 M 225.500 32.281 C 223.300 32.952, 217.675 34.696, 213 36.157 C 208.325 37.619, 198.235 40.017, 190.579 41.488 C 175.802 44.325, 157.342 49.938, 153.422 52.786 C 148.612 56.281, 151.477 63, 157.778 63 C 159.495 63, 167.559 61.699, 175.699 60.109 C 183.840 58.519, 192.157 56.929, 194.182 56.577 L 197.863 55.935 194.946 59.058 C 191.192 63.077, 189.933 67.939, 189.142 81.479 L 188.500 92.459 184 93.138 C 181.525 93.511, 171.625 94.550, 162 95.446 C 133.942 98.059, 129.914 98.674, 127.094 100.774 C 123.348 103.562, 122.128 107.560, 124.351 109.766 C 125.909 111.312, 128.291 111.477, 146.299 111.286 C 157.410 111.168, 171.141 110.559, 176.813 109.932 C 182.485 109.305, 187.245 108.952, 187.390 109.146 C 187.535 109.341, 187.270 115.125, 186.800 122 C 186.330 128.875, 186.070 144.263, 186.223 156.195 L 186.500 177.890 182.127 178.990 C 176.002 180.531, 169.034 184.254, 165.500 187.873 C 163.850 189.562, 162.211 190.957, 161.859 190.972 C 161.506 190.988, 160.463 189.115, 159.541 186.811 C 157.495 181.697, 155.301 179.925, 152 180.719 C 145.561 182.267, 144.541 188.024, 148.480 200.589 C 151.952 211.661, 154.992 227.060, 155.569 236.500 C 155.839 240.900, 156.247 246.615, 156.476 249.199 C 156.845 253.355, 156.640 253.976, 154.697 254.561 C 148.834 256.327, 146 258.276, 146 260.543 C 146 263.790, 148.276 265.708, 154.228 267.475 C 161.004 269.487, 166.427 269.395, 178.500 267.061 C 184 265.998, 197.950 264.181, 209.500 263.024 C 221.050 261.866, 232.075 260.390, 234 259.742 C 235.925 259.095, 239.343 258.698, 241.596 258.860 C 245.181 259.117, 246.043 258.739, 248.500 255.827 C 252.655 250.902, 257.705 239.712, 259.584 231.267 C 261.849 221.087, 261.155 195.779, 258.418 188.750 C 257.401 186.138, 256.216 184, 255.784 184 C 255.353 184, 254.986 183.438, 254.969 182.750 C 254.914 180.539, 246.599 175.143, 241.473 173.992 C 234.852 172.505, 223.037 172.664, 209.019 174.428 C 202.705 175.222, 197.490 175.789, 197.429 175.686 C 197.104 175.134, 199.078 139.884, 199.963 130.447 C 200.533 124.368, 201 116.830, 201 113.697 L 201 108 206.750 108.003 C 215.443 108.006, 244.202 104.972, 246.666 103.790 C 249.551 102.408, 250.080 99.874, 248.266 96.129 C 246.290 92.050, 244.372 91.765, 221.593 92.168 L 202.869 92.500 203.544 89 C 204.395 84.593, 205.081 61.060, 204.424 58.858 C 204.154 57.955, 202.936 56.913, 201.717 56.544 C 200.123 56.060, 202.590 55.159, 210.500 53.336 C 232.506 48.262, 242.046 43.561, 241.969 37.827 C 241.901 32.801, 233.301 29.905, 225.500 32.281 M 99.972 57.456 C 95.349 59.971, 85.355 61.058, 68.840 60.841 C 54.292 60.650, 52.004 60.849, 47.979 62.656 C 45.492 63.772, 42.680 65.463, 41.729 66.414 C 39.426 68.716, 39.535 73.269, 41.944 75.449 C 43.679 77.019, 46.106 77.193, 64.526 77.063 C 86.362 76.908, 91.457 76.338, 100 73.092 C 107.107 70.392, 111 66.586, 111 62.339 C 111 59.710, 110.409 58.746, 108.050 57.526 C 104.481 55.680, 103.254 55.670, 99.972 57.456 M 93 94.095 C 90.525 94.559, 82.175 95.156, 74.444 95.421 C 66.713 95.686, 59.221 96.346, 57.795 96.888 C 52.213 99.010, 50.207 105.779, 54.355 108.497 C 62.412 113.776, 99.408 109.517, 105.945 102.558 C 108.025 100.345, 108.144 99.762, 107.056 97.134 C 105.344 93.003, 102.312 92.347, 93 94.095 M 78 125.503 C 74.425 126.227, 70.233 127.309, 68.685 127.909 C 67.137 128.509, 64.558 129, 62.955 129 C 58.896 129, 51.935 131.846, 49.250 134.603 C 46.459 137.469, 46.394 139.973, 49.039 142.811 C 51.497 145.450, 56.426 145.649, 66 143.497 C 80.376 140.265, 93.641 138, 98.193 138 C 103.397 138, 107 135.608, 107 132.153 C 107 125.379, 93.693 122.328, 78 125.503 M 86 167.500 C 84.075 168.241, 81.343 168.882, 79.928 168.924 C 75.028 169.069, 67.931 172.174, 65.747 175.129 L 63.599 178.034 61.549 173.767 C 59.365 169.218, 57.224 168.640, 53.823 171.679 C 50.950 174.247, 50.764 180.040, 53.054 195.622 C 54.639 206.413, 55.105 213.247, 54.750 220.500 C 54.209 231.571, 54.869 234.528, 58.232 236.087 C 59.479 236.666, 62.075 238.007, 64 239.068 C 66.641 240.524, 69.477 240.997, 75.557 240.998 C 89.010 241.001, 114.934 235.288, 117.120 231.840 C 118.770 229.237, 117.965 225.811, 115.011 222.857 C 112.136 219.983, 112.062 219.687, 113.091 215.184 C 113.679 212.608, 114.236 204.650, 114.330 197.500 C 114.481 185.988, 114.222 183.728, 112.069 177.760 C 108.782 168.650, 105.081 165.968, 95.946 166.076 C 92.401 166.118, 87.925 166.759, 86 167.500 M 86 183.527 C 81.325 184.795, 75.925 185.876, 74 185.931 C 72.075 185.986, 70.041 186.361, 69.479 186.765 C 68.845 187.221, 68.466 194.614, 68.479 206.250 L 68.500 225 72.500 224.956 C 83.103 224.841, 97.311 223.116, 98.116 221.847 C 99.301 219.977, 99.222 186.713, 98.025 183.565 C 96.880 180.554, 96.971 180.554, 86 183.527 M 207 189.623 C 194.567 191.301, 163.345 199.012, 164.462 200.128 C 164.747 200.414, 166.110 206.098, 167.491 212.760 C 170.330 226.464, 170.762 239.628, 168.641 247.805 C 167.412 252.540, 167.436 253.004, 168.891 252.617 C 175.897 250.754, 191.607 248.899, 208 248 C 222.685 247.196, 229.038 246.428, 233.730 244.891 L 239.960 242.850 241.919 236.175 C 244.970 225.779, 245.983 215.642, 245.046 204.879 C 244.100 194.010, 243.178 191.661, 239.020 189.510 C 235.330 187.602, 221.616 187.650, 207 189.623" stroke="none" fill="black" fill-rule="evenodd"/>
</svg>