<svg xmlns="http://www.w3.org/2000/svg" width="300" height="300" viewBox="0 0 300 300" version="1.1">
	<path d="M 82.500 9.208 C 80.030 10.624, 78.074 13.074, 78.032 14.803 C 78.014 15.519, 80.780 20.919, 84.177 26.803 C 87.575 32.686, 91.296 39.926, 92.446 42.892 C 95.075 49.674, 97.952 51.139, 101.557 47.534 C 105.749 43.341, 104.467 35.544, 97.275 21.500 C 93.937 14.981, 87.801 7.963, 85.500 8.031 C 84.950 8.047, 83.600 8.577, 82.500 9.208 M 214.500 38.432 C 210.650 39.104, 203.365 40.856, 198.312 42.327 C 193.258 43.797, 188.251 45, 187.185 45 C 186.118 45, 180.880 46.344, 175.544 47.986 C 165.836 50.975, 161.504 53.931, 162.541 56.861 C 162.837 57.699, 162.503 58.023, 161.671 57.704 C 157.104 55.952, 156.214 62.653, 156.053 100 C 155.839 149.792, 151.219 198.784, 143.513 233 C 142.213 238.775, 140.842 245.461, 140.468 247.858 C 139.973 251.028, 138.726 253.311, 135.894 256.229 C 133.752 258.436, 132.014 260.749, 132.032 261.371 C 132.109 264.101, 135.089 266.256, 139.470 266.750 C 144.932 267.365, 147.005 265.888, 150.586 258.826 C 156.861 246.454, 167.196 180.493, 168.677 143.368 L 169.311 127.500 176.327 125.143 C 181.563 123.384, 187.043 122.563, 197.922 121.907 C 214.369 120.916, 223.374 119.651, 233.386 116.926 C 243.337 114.218, 245 112.889, 245 107.646 C 245 102.304, 241.959 99.996, 237.300 101.801 C 229.996 104.632, 210.337 107.622, 192.848 108.563 C 186.607 108.899, 179.181 109.810, 176.346 110.587 C 173.511 111.364, 170.990 112, 170.744 112 C 170.497 112, 170.032 103.563, 169.712 93.250 C 169.181 76.186, 168.193 68.976, 165.534 62.750 C 164.896 61.257, 165.353 60.998, 168.643 60.989 C 170.764 60.983, 174.683 60.316, 177.351 59.507 C 180.019 58.697, 185.194 57.757, 188.851 57.418 C 192.508 57.078, 200 55.750, 205.500 54.465 C 211 53.181, 219.719 51.633, 224.876 51.026 C 235.402 49.785, 239.544 48.095, 241.254 44.342 C 242.873 40.788, 240.774 39.458, 232.256 38.639 C 228.540 38.282, 224.600 37.814, 223.500 37.600 C 222.400 37.385, 218.350 37.760, 214.500 38.432 M 99.500 52.493 C 94 53.758, 85.675 55.360, 81 56.054 C 72.444 57.324, 69.823 58.151, 60.318 62.579 C 54.013 65.517, 52.605 68.448, 56.123 71.309 C 60.317 74.719, 70.062 73.397, 99.500 65.424 C 104.450 64.084, 109.280 62.990, 110.234 62.993 C 111.188 62.997, 113.407 61.715, 115.165 60.144 C 118.176 57.453, 118.288 57.111, 117.099 54.239 C 115.971 51.516, 113.345 49.873, 110.500 50.111 C 109.950 50.157, 105 51.229, 99.500 52.493 M 97.500 89.461 C 96.950 89.628, 93.575 90.548, 90 91.507 C 86.425 92.466, 80.575 94.307, 77 95.599 C 73.425 96.891, 68.612 98.421, 66.304 98.998 C 61.340 100.240, 57.648 104.271, 58.601 107.407 C 59.668 110.920, 62.159 113, 65.297 113 C 68.363 113, 81.709 109.374, 83.500 108.055 C 84.050 107.649, 89.675 105.614, 96 103.532 C 110.532 98.749, 110.440 98.797, 110.807 95.742 C 111.265 91.940, 107.603 88.981, 102.561 89.079 C 100.328 89.122, 98.050 89.294, 97.500 89.461 M 103.500 119.453 C 102.950 119.627, 97.775 121.221, 92 122.996 C 86.225 124.771, 79.475 127.015, 77 127.984 C 74.525 128.952, 71.294 130.027, 69.819 130.374 C 66.229 131.217, 60 137.218, 60 139.833 C 60 147.362, 81.251 143.737, 105 132.157 C 111.352 129.060, 112.549 128.078, 112.817 125.745 C 112.991 124.230, 112.516 122.373, 111.760 121.617 C 110.354 120.211, 105.294 118.885, 103.500 119.453 M 211.500 161.469 C 200.956 164.104, 192.475 167.260, 190.058 169.448 C 188.484 170.872, 188.222 170.782, 186.941 168.390 C 184.825 164.437, 181.222 163.442, 178.451 166.046 C 175.281 169.024, 174.953 172.041, 176.499 184 C 178.804 201.827, 180.059 221.307, 179.115 224.599 C 178.115 228.085, 179.064 230.429, 182.141 232.076 C 185.567 233.909, 213.643 233.249, 232 230.904 C 241.075 229.744, 249.175 228.460, 250 228.049 C 250.825 227.638, 252.129 226.195, 252.898 224.842 C 254.130 222.674, 254.082 222.055, 252.497 219.636 C 251.483 218.088, 249.422 216.634, 247.775 216.305 C 245.204 215.791, 244.933 215.408, 245.520 213.110 C 249.035 199.347, 250.949 180.873, 249.604 173.702 C 248.625 168.484, 242.708 162.904, 235.869 160.748 C 228.736 158.499, 222.660 158.679, 211.500 161.469 M 66.261 165.750 C 62.640 168.983, 61.670 178.650, 63.443 193.845 C 65.177 208.706, 65.345 217.286, 64.034 224 C 62.947 229.571, 64.463 233.351, 67.985 233.849 C 69.341 234.041, 71.050 235.054, 71.782 236.099 C 73.591 238.682, 80.852 238.616, 91.380 235.921 C 95.846 234.778, 101.858 233.238, 104.739 232.499 C 107.837 231.705, 110.211 231.533, 110.548 232.078 C 112.317 234.939, 118.061 231.805, 120.772 226.500 C 123.723 220.726, 122.772 187.368, 119.388 177.960 C 115.854 168.130, 106.131 165.770, 88.225 170.394 C 76.017 173.546, 75 173.589, 75 170.955 C 75 168.892, 70.889 164, 69.156 164 C 68.642 164, 67.339 164.787, 66.261 165.750 M 216.500 174.394 C 213.200 175.084, 208.025 176.570, 205 177.694 C 201.975 178.819, 197.454 180.037, 194.954 180.400 C 190.568 181.038, 190.417 181.174, 190.658 184.281 C 190.794 186.051, 191.466 194.428, 192.150 202.896 L 193.394 218.293 209.447 217.641 C 228.149 216.882, 230.690 216.448, 232.124 213.768 C 233.151 211.849, 235.910 187.434, 235.970 179.725 C 235.995 176.538, 235.583 175.792, 233.320 174.931 C 228.912 173.255, 222.864 173.062, 216.500 174.394 M 90 184.072 C 86.425 185.092, 81.973 185.943, 80.108 185.963 L 76.715 186 77.350 196.750 C 77.698 202.662, 77.563 211.763, 77.049 216.974 C 76.535 222.184, 76.294 226.627, 76.514 226.848 C 76.734 227.068, 78.430 226.354, 80.281 225.261 C 83.950 223.097, 89.420 221.636, 101 219.728 L 108.500 218.492 108.843 212.496 C 109.032 209.198, 108.671 202, 108.042 196.500 C 106.274 181.064, 106.709 181.983, 101.231 182.109 C 98.629 182.168, 93.575 183.052, 90 184.072" stroke="none" fill="black" fill-rule="evenodd"/>
</svg>