<svg xmlns="http://www.w3.org/2000/svg" width="300" height="300" viewBox="0 0 300 300" version="1.1">
	<path d="M 175.831 24.789 C 174.125 26.816, 172.952 30.474, 171.534 38.188 L 169.583 48.798 165.041 49.394 C 162.544 49.722, 155.049 50.433, 148.386 50.974 C 141.724 51.515, 135.536 52.241, 134.636 52.586 C 133.217 53.131, 133 52.281, 133 46.172 C 133 42.299, 133.475 37.881, 134.056 36.353 C 136.058 31.088, 130.796 25.922, 125.912 28.357 C 122.983 29.817, 121.037 37.234, 120.839 47.687 L 120.703 54.874 116.601 55.524 C 110.091 56.556, 89.842 61.947, 86 63.672 C 75.173 68.532, 73.765 77.831, 84.257 75.187 C 104.419 70.107, 120.185 66.849, 120.932 67.608 C 121.245 67.925, 121.342 80.654, 121.149 95.896 C 120.934 112.812, 121.195 125.047, 121.818 127.303 C 122.835 130.987, 122.828 131, 119.756 131 C 112.745 131, 68.609 139.525, 66.202 141.344 C 65.488 141.884, 65.038 143.264, 65.202 144.412 C 65.889 149.220, 78.589 150.220, 97 146.916 C 103.325 145.780, 111.425 144.453, 115 143.966 C 118.575 143.479, 123.924 142.613, 126.886 142.040 C 137.769 139.938, 138.035 140.537, 128.936 146.663 C 118.420 153.743, 114.782 156.468, 102.252 166.655 C 96.735 171.140, 88.459 177.374, 83.861 180.509 C 73.104 187.841, 72 188.863, 72 191.486 C 72 194.805, 75.938 196.506, 80.296 195.067 C 83.958 193.859, 100.533 182.874, 110 175.383 C 113.025 172.989, 118.650 168.758, 122.500 165.981 C 131.332 159.611, 146 145.128, 146 142.778 C 146 139.716, 150.067 140.750, 154.064 144.828 C 160.029 150.913, 171.369 156.265, 189.500 161.553 C 192.800 162.515, 202.025 165.435, 210 168.040 C 231.008 174.905, 236.801 176.650, 243.302 178.072 C 248.736 179.261, 249.233 179.211, 251.157 177.288 C 253.982 174.463, 252.938 169.607, 249.192 168.143 C 246.356 167.035, 214.149 156.499, 195.500 150.578 C 183.102 146.642, 178.451 144.991, 172.086 142.269 L 167.672 140.381 187.586 139.081 C 215.676 137.246, 222.869 135.576, 225.258 130.333 C 227.454 125.514, 221.777 120.623, 218.173 124.227 C 216.975 125.425, 173.616 127.950, 172.551 126.884 C 172.297 126.630, 172.788 124.414, 173.642 121.961 C 174.990 118.091, 176.722 102.210, 178.493 77.500 C 178.769 73.650, 179.337 68.250, 179.757 65.500 L 180.520 60.500 194.510 59.814 C 216.067 58.756, 219.670 57.306, 219.118 49.911 C 218.930 47.382, 214.790 46.029, 210.373 47.054 C 208.243 47.548, 200.979 47.963, 194.231 47.976 C 182.039 48, 181.965 47.986, 182.398 45.750 C 185.184 31.389, 185.339 28.935, 183.684 25.463 C 181.651 21.201, 179.039 20.977, 175.831 24.789 M 162.917 61.383 C 162.688 61.593, 156.529 62.286, 149.230 62.922 C 141.932 63.558, 135.295 64.333, 134.480 64.646 C 133.345 65.082, 133 67.069, 133 73.186 L 133 81.159 135.750 80.625 C 137.262 80.332, 143.450 79.829, 149.500 79.508 C 155.550 79.187, 161.930 78.703, 163.677 78.431 L 166.855 77.937 167.177 69.466 C 167.483 61.445, 167.389 60.995, 165.417 60.998 C 164.271 60.999, 163.146 61.172, 162.917 61.383 M 154.500 91.174 C 149.550 91.658, 142.688 92.304, 139.250 92.607 L 133 93.159 133 106.512 C 133 118.870, 133.145 119.911, 134.949 120.484 C 137.493 121.291, 138.413 124.361, 136.936 127.120 L 135.761 129.315 144.131 128.663 C 148.734 128.305, 154.686 128.009, 157.357 128.006 C 161.067 128.001, 162.089 127.675, 161.686 126.624 C 161.396 125.868, 161.726 124.154, 162.421 122.815 C 163.115 121.477, 163.974 118.565, 164.329 116.346 C 164.912 112.700, 164.729 112.198, 162.440 111.155 C 161.002 110.499, 155.019 110, 148.608 110 C 138.657 110, 137.098 109.766, 135.536 108.040 C 132.625 104.824, 134.198 101.472, 139.584 99.415 C 143.653 97.861, 145.174 97.796, 153.033 98.843 C 157.907 99.491, 162.593 100.290, 163.447 100.618 C 164.737 101.113, 165 100.265, 165 95.607 C 165 92.523, 164.662 90.066, 164.250 90.146 C 163.838 90.226, 159.450 90.689, 154.500 91.174 M 141.655 161.829 C 138.823 164.958, 139.605 169.550, 143.978 175.470 C 148.951 182.202, 149.523 182.542, 152.544 180.563 C 155.663 178.520, 155.761 174.569, 152.838 168.781 C 148.592 160.377, 144.994 158.140, 141.655 161.829 M 176.914 179.419 C 176.256 180.078, 153.830 183.724, 139.500 185.503 C 113.773 188.697, 111.731 189.046, 108.886 190.727 C 105.102 192.961, 104.922 197.247, 108.512 199.600 C 110.403 200.839, 112.320 201.099, 116.262 200.654 C 119.143 200.329, 125.100 199.657, 129.500 199.162 C 138.121 198.191, 150.590 196.512, 161 194.920 C 169.933 193.553, 182.718 189.219, 184.981 186.790 C 186.801 184.836, 186.722 182.835, 184.722 180.250 C 183.829 179.095, 177.872 178.462, 176.914 179.419 M 153 211.086 C 148.312 212.299, 139.974 214.964, 137.500 216.040 C 134.021 217.553, 124.724 220, 122.453 220 C 119.337 220, 115 223.734, 115 226.418 C 115 229.733, 118.530 232.455, 122.830 232.454 C 124.848 232.454, 134.375 229.909, 144 226.798 C 153.625 223.688, 163.300 220.774, 165.500 220.322 C 169.060 219.590, 169.534 219.149, 169.809 216.306 C 170.069 213.620, 169.640 212.865, 167.109 211.556 C 163.818 209.854, 158.452 209.675, 153 211.086 M 154.500 225.689 C 151.890 226.285, 135.762 231.450, 130.008 233.532 C 122.524 236.239, 121.303 238.303, 125 242 C 128.155 245.155, 134.900 244.590, 148.877 240 C 157.919 237.031, 162.697 236, 167.413 236 C 173.084 236, 173.827 235.768, 174.332 233.838 C 175.989 227.502, 165.473 223.181, 154.500 225.689 M 149 255.158 C 146.525 255.677, 141.125 256.923, 137 257.927 C 132.875 258.930, 128.073 259.537, 126.328 259.274 C 123.584 258.860, 122.944 259.207, 121.578 261.848 C 119.418 266.026, 119.599 272.908, 122.031 279.078 C 123.148 281.912, 123.801 285.050, 123.483 286.053 C 122.653 288.669, 124.982 291.837, 128.266 292.559 C 129.820 292.900, 135.907 292.666, 141.795 292.038 C 166.602 289.396, 180 284.540, 180 278.189 C 180 276.814, 181.125 274.214, 182.500 272.411 C 185.854 268.013, 185.974 261.261, 182.750 258.241 C 181.512 257.082, 179.233 255.653, 177.685 255.067 C 174.290 253.780, 155.280 253.841, 149 255.158 M 150.500 267.523 C 147.750 268.230, 142.554 268.851, 138.954 268.904 L 132.408 269 132.954 273.750 L 133.500 278.500 138.496 278.815 C 146.265 279.304, 158.807 277.271, 162.874 274.862 C 166.016 273.002, 172 267.429, 172 266.364 C 172 265.455, 154.978 266.372, 150.500 267.523" stroke="none" fill="black" fill-rule="evenodd"/>
</svg>