<svg xmlns="http://www.w3.org/2000/svg" width="300" height="300" viewBox="0 0 300 300" version="1.1">
	<path d="M 64.636 23.636 C 60.830 27.443, 61.274 30.251, 66.554 35.754 C 71.076 40.467, 79 52.568, 79 54.761 C 79 56.481, 72.613 57.957, 62.040 58.681 C 54.017 59.231, 52.232 59.677, 50.290 61.619 C 47.069 64.840, 47.265 69.273, 50.750 72.030 C 53.280 74.030, 54.220 74.151, 62.500 73.543 C 67.450 73.180, 76.900 71.811, 83.500 70.502 C 90.100 69.193, 97.238 67.840, 99.362 67.495 C 104.367 66.682, 108.391 62.806, 107.417 59.737 C 106.344 56.359, 104.105 55.194, 97.250 54.447 C 91.658 53.839, 91 53.533, 91 51.540 C 91 45.794, 85.212 34.138, 77.779 24.913 C 74.155 20.417, 68.414 19.859, 64.636 23.636 M 194.500 44.653 C 193.400 44.884, 189.575 46.142, 186 47.447 C 182.425 48.753, 175.518 50.743, 170.652 51.871 C 165.167 53.141, 161.176 54.646, 160.152 55.830 C 154.599 62.250, 147.101 149.812, 148.158 195.897 C 148.455 208.849, 148.749 211.068, 150.405 212.897 C 152.845 215.591, 157.567 215.678, 158.971 213.054 C 160.484 210.227, 161.963 189.951, 162.002 171.500 C 162.054 147.017, 163.759 117.013, 166.071 99.922 C 168.232 83.939, 168.870 70.108, 167.621 66.304 C 166.924 64.183, 167.132 64.111, 173.761 64.173 C 179.414 64.226, 181.934 63.662, 188.062 60.970 C 192.153 59.173, 197.411 57.486, 199.747 57.222 C 203.830 56.759, 204.051 56.877, 205.474 60.285 C 207.975 66.269, 208.879 76.438, 209.284 103.118 L 209.672 128.736 197.586 129.883 C 190.939 130.513, 181.381 131.987, 176.346 133.157 C 168.799 134.911, 167.003 135.698, 166.119 137.638 C 164.635 140.895, 166.286 144.770, 169.732 146.120 C 173.502 147.598, 186.934 146.588, 199.674 143.869 C 205.353 142.658, 210.162 141.854, 210.361 142.083 C 210.560 142.312, 210.986 147.025, 211.308 152.555 L 211.893 162.611 203.058 162.188 C 197.563 161.926, 190.639 162.377, 184.738 163.383 C 179.521 164.272, 173.878 165, 172.198 165 C 168.342 165, 166 167.299, 166 171.086 C 166 177.051, 177.312 179.899, 189.500 177.001 C 191.700 176.478, 197.662 175.748, 202.750 175.378 L 212 174.705 212.021 179.602 C 212.033 182.296, 212.454 190.864, 212.956 198.642 C 213.458 206.420, 213.637 213.672, 213.353 214.757 C 212.876 216.581, 211.626 216.779, 196.669 217.393 C 168.033 218.568, 147.685 220.035, 140 221.476 C 135.875 222.250, 129.125 223.381, 125 223.988 C 113.844 225.631, 113.283 225.811, 112.730 227.924 C 111.852 231.281, 114.618 233.779, 120.583 235.017 C 126.415 236.228, 133.822 236.085, 167.500 234.112 C 178.500 233.468, 209.135 232.617, 235.578 232.220 L 283.656 231.500 287.328 228.699 C 290.058 226.617, 291 225.160, 291 223.021 C 291 218.954, 288.420 216.685, 284.589 217.382 C 280.344 218.154, 245.362 218.138, 235.250 217.360 L 227 216.725 227.032 194.612 C 227.061 174.559, 224.412 112.918, 221.998 77.492 C 220.617 57.223, 217.788 50.012, 209.677 46.086 C 205.648 44.135, 199.651 43.569, 194.500 44.653 M 78 87.056 C 73.325 88.075, 66.274 88.929, 62.332 88.954 C 53.174 89.013, 52 89.496, 52 93.207 C 52 95.277, 53.048 97.248, 55.400 99.600 C 58.536 102.736, 59.281 103, 65.007 103 C 68.421 103, 74.203 102.359, 77.857 101.575 C 88.443 99.305, 96.385 98, 99.610 98 C 101.255 98, 103.140 97.460, 103.800 96.800 C 105.818 94.782, 105.189 90.098, 102.545 87.455 C 100.394 85.303, 99.251 85.013, 93.295 85.102 C 89.558 85.158, 82.675 86.037, 78 87.056 M 95.405 119.944 C 93.703 120.351, 87.628 123.074, 81.905 125.995 C 68.024 133.080, 68.152 133.003, 63.799 136.911 C 59.169 141.067, 58.734 144.568, 62.662 146.062 C 67.259 147.810, 74.028 146.003, 85.823 139.879 C 92.051 136.645, 98.126 133.998, 99.323 133.996 C 100.520 133.994, 102.963 133.101, 104.750 132.011 C 107.413 130.387, 108 129.402, 108 126.554 C 108 120.319, 103.569 117.993, 95.405 119.944 M 55.709 164.263 C 52.315 168.501, 52.291 170.976, 55.438 192 C 56.385 198.325, 58.024 205.471, 59.081 207.880 C 60.995 212.243, 60.994 212.273, 58.901 215.661 C 56.594 219.394, 56.863 222.720, 59.703 225.560 C 61.118 226.975, 62.581 227.153, 68.451 226.621 C 96.131 224.113, 100.610 223.280, 108.738 219.134 C 116.324 215.264, 117.926 211.526, 113.959 206.953 C 111.937 204.621, 111.876 204.615, 107.382 206.280 C 104.887 207.205, 102.993 207.627, 103.173 207.218 C 103.353 206.810, 104.850 203.781, 106.500 200.488 C 109.203 195.094, 109.500 193.558, 109.500 185 C 109.500 174.008, 107.610 169.052, 101.953 165.208 C 98.702 162.999, 97.931 162.927, 80.789 163.208 C 71.004 163.369, 62.998 163.162, 62.999 162.750 C 63.002 161, 57.389 162.165, 55.709 164.263 M 77.750 177.745 C 72.938 177.928, 69.004 178.398, 69.009 178.789 C 69.066 183.532, 71.297 203.294, 72.165 206.740 L 73.301 211.251 79.188 210.717 C 82.426 210.423, 85.665 209.693, 86.386 209.094 C 89.543 206.474, 94.046 195.389, 94.666 188.711 C 95.469 180.063, 94.074 176.906, 89.581 177.206 C 87.886 177.319, 82.563 177.561, 77.750 177.745" stroke="none" fill="black" fill-rule="evenodd"/>
</svg>