<svg xmlns="http://www.w3.org/2000/svg" width="300" height="300" viewBox="0 0 300 300" version="1.1">
	<path d="M 121.299 20.503 C 117.564 23.119, 116.654 28.173, 117.309 42.668 L 117.909 55.927 114.204 56.523 C 112.167 56.851, 106.900 57.838, 102.500 58.716 C 98.100 59.594, 92.925 60.525, 91 60.784 C 85.757 61.488, 82 64.540, 82 68.093 C 82 73.060, 88.261 74.261, 100.188 71.583 C 103.660 70.803, 109.249 69.866, 112.609 69.501 L 118.717 68.836 119.359 72.043 C 119.711 73.807, 120 78.456, 119.999 82.375 L 119.999 89.500 110.749 94.912 C 100.791 100.740, 92.553 105.911, 84.316 111.506 C 78.099 115.730, 73.137 124.520, 75.003 128.006 C 76.624 131.034, 81.033 130.512, 86.106 126.690 C 88.523 124.870, 94.550 120.737, 99.500 117.505 C 104.450 114.273, 111.425 109.667, 115 107.270 L 121.500 102.911 122.162 107.705 C 122.527 110.342, 122.863 117.900, 122.909 124.500 C 122.981 134.878, 122.719 136.949, 120.969 139.819 C 118.977 143.086, 118.864 143.127, 113.564 142.465 C 108.791 141.868, 108.058 142.023, 107.091 143.830 C 106.491 144.951, 106 147.039, 106 148.470 C 106 154.553, 122.919 157.243, 128.457 152.040 C 129.800 150.779, 131.878 147.666, 133.075 145.123 C 135.135 140.746, 135.219 139.568, 134.649 123 C 134.318 113.375, 133.793 103.250, 133.481 100.500 L 132.915 95.500 137.207 92.872 C 139.568 91.426, 143.075 89.457, 145 88.495 C 151.736 85.129, 154.036 80.266, 150.250 77.392 C 147.567 75.355, 145.569 75.706, 138.320 79.485 C 134.644 81.402, 131.434 82.768, 131.187 82.521 C 130.940 82.274, 130.514 78.938, 130.240 75.109 L 129.742 68.147 133.780 67.059 C 137.665 66.013, 144 61.187, 144 59.273 C 144 58.765, 142.924 57.338, 141.610 56.103 C 139.301 53.934, 139.048 53.908, 134.214 55.344 L 129.209 56.830 128.518 51.299 C 128.138 48.257, 127.959 40.303, 128.121 33.624 C 128.282 26.945, 128.070 20.922, 127.648 20.240 C 126.613 18.565, 123.905 18.678, 121.299 20.503 M 194.602 32.991 C 188.598 37.685, 175.121 44.466, 168.446 46.152 C 165.726 46.839, 162.994 47.769, 162.375 48.219 C 160.446 49.622, 159.677 58.682, 159.467 82.500 C 159.355 95.150, 158.780 108.027, 158.190 111.116 C 156.933 117.696, 157.487 120.702, 160.108 121.534 C 166.042 123.418, 169.996 116.473, 170.776 102.796 C 171.228 94.860, 171.471 94, 173.261 94 C 175.116 94, 189.357 86.873, 191.450 84.897 C 193.251 83.197, 193.858 84.008, 193.006 86.978 C 191.646 91.720, 191.330 127.730, 192.637 129.037 C 193.247 129.647, 195.265 130, 197.123 129.823 C 200.099 129.538, 200.642 129.026, 201.696 125.500 C 202.353 123.300, 203.377 115.875, 203.971 109 C 204.564 102.125, 205.870 93.125, 206.872 89 C 208.072 84.059, 208.419 80.528, 207.888 78.651 C 207.200 76.215, 207.512 75.440, 210.041 73.312 C 214.172 69.836, 214.063 64.298, 209.833 62.740 C 208.441 62.228, 199.217 66.091, 189.537 71.239 C 188.457 71.814, 185.307 73.472, 182.537 74.924 C 179.766 76.376, 176.337 78.340, 174.916 79.288 L 172.333 81.012 171.165 70.316 C 169.926 58.968, 170.167 58.049, 174.395 58.015 C 177.745 57.988, 190.325 51.254, 196.271 46.304 C 204.966 39.066, 207.978 33.378, 204.800 30.200 C 202.764 28.164, 199.706 29.001, 194.602 32.991 M 152.573 130.570 C 150.084 133.059, 149.824 135.940, 151.316 144.500 C 152.082 148.900, 152.553 152.791, 152.360 153.146 C 152.168 153.501, 148.071 154.306, 143.256 154.934 C 110.088 159.265, 82.274 165.950, 77.856 170.653 C 74.885 173.816, 76.078 175.739, 81.520 176.555 C 87.051 177.385, 91.421 176.849, 105.725 173.590 C 111.651 172.239, 123.025 170.201, 131 169.059 C 138.975 167.918, 153.375 165.861, 163 164.488 C 172.625 163.115, 181.691 161.994, 183.146 161.996 C 188.404 162.004, 207.542 157.757, 209.307 156.191 C 211.246 154.470, 210.878 150.180, 208.671 148.775 C 206.779 147.572, 194.852 147.889, 183.780 149.437 C 178.126 150.228, 171.188 151.057, 168.362 151.280 L 163.225 151.685 162.818 142.388 C 162.457 134.137, 162.146 132.861, 160.053 131.046 C 157.230 128.598, 154.706 128.437, 152.573 130.570 M 144.500 185.477 C 128.023 187.951, 121.423 189.454, 119.250 191.226 C 117.452 192.692, 117.711 195.429, 119.829 197.345 C 122.340 199.617, 145.603 199.664, 155 197.415 C 166.978 194.549, 172.003 194.022, 177.047 195.104 C 183.093 196.400, 186.007 195.133, 185.985 191.215 C 185.964 187.570, 185.130 186.548, 181 185.104 C 174.409 182.801, 161.433 182.933, 144.500 185.477 M 163.268 208.071 C 155.756 208.820, 148.704 210.221, 141 212.494 C 138.525 213.225, 135.262 214.096, 133.750 214.430 C 130.360 215.180, 129.999 218.784, 133.037 221.534 C 135.879 224.106, 145.530 224.662, 153.332 222.704 C 156.725 221.853, 164.117 220.620, 169.760 219.964 C 180.252 218.745, 185 216.686, 185 213.356 C 185 211.096, 182.480 209.031, 179.058 208.487 C 172.448 207.435, 170.239 207.377, 163.268 208.071 M 173.500 233.619 C 171.850 233.840, 164.875 234.928, 158 236.038 C 151.125 237.148, 144.083 238.281, 142.350 238.555 C 140.618 238.829, 138.651 239.716, 137.978 240.526 C 136.123 242.762, 135.444 242.358, 133.732 238 C 131.661 232.729, 128.188 233.006, 125.163 238.684 C 123.324 242.139, 123.736 244.912, 128 257.757 C 130.200 264.384, 132 270.949, 132 272.346 C 132 273.744, 132.881 275.504, 133.958 276.258 C 135.812 277.557, 135.720 277.699, 132.208 278.969 C 130.168 279.707, 127.029 281.253, 125.230 282.405 C 121.182 284.999, 121.160 288.688, 125.179 290.934 C 127.482 292.221, 128.814 292.250, 134.679 291.140 C 138.431 290.430, 148.250 289.481, 156.500 289.032 C 176.919 287.918, 190.397 284.225, 192.454 279.178 C 193.186 277.381, 191.408 274.289, 188.857 272.923 C 186.851 271.850, 187 271.556, 192.287 266.150 C 200.573 257.681, 203 253.572, 203 248.016 C 203 241.916, 200.236 238.630, 192.969 236.093 C 187.156 234.063, 178.452 232.957, 173.500 233.619 M 159.500 249.071 C 155.650 249.510, 150.928 250.349, 149.007 250.935 C 147.085 251.521, 144.276 252, 142.765 252 L 140.016 252 141.710 256.232 C 143.873 261.638, 143.956 269.615, 141.892 273.619 C 140.413 276.488, 140.413 276.705, 141.898 276.316 C 142.786 276.084, 149.762 275.581, 157.401 275.197 C 169.748 274.577, 171.411 274.282, 172.394 272.537 C 173.002 271.458, 176.559 267.043, 180.298 262.727 C 187.762 254.110, 189.884 250.178, 187.789 248.848 C 186.210 247.847, 169.041 247.981, 159.500 249.071" stroke="none" fill="black" fill-rule="evenodd"/>
</svg>