<svg xmlns="http://www.w3.org/2000/svg" width="300" height="300" viewBox="0 0 300 300" version="1.1">
	<path d="M 180.662 22.235 C 180.023 22.639, 175.450 23.014, 170.500 23.069 C 156.144 23.228, 150.006 24.275, 147.856 26.929 C 145.400 29.962, 145.500 34.500, 148.080 37.080 C 150.001 39.001, 151.095 39.135, 162.401 38.830 L 174.643 38.500 172.832 45.500 C 171.836 49.350, 170.304 54.413, 169.428 56.750 L 167.835 61 160.783 61 C 152.405 61, 146.424 62.589, 143.006 65.721 L 140.513 68.007 139.458 64.877 C 137.900 60.247, 134.507 57.812, 131.514 59.176 C 126.045 61.667, 125.427 70.552, 127.875 111.500 C 129.601 140.391, 129.213 157.003, 126.746 159.728 C 124.491 162.220, 124.544 163.544, 127 166 C 129.599 168.599, 135.107 168.644, 137.423 166.085 C 138.966 164.380, 140.164 164.228, 148.328 164.701 C 155.819 165.134, 159.837 164.747, 170.251 162.588 C 177.265 161.133, 185.815 159.044, 189.251 157.945 C 192.688 156.845, 200.675 155.462, 207 154.871 C 222.839 153.390, 225.043 152.290, 223.610 146.580 C 222.111 140.610, 210.572 137.840, 195.859 139.919 C 184.422 141.535, 163.311 146.661, 153.801 150.132 C 149.479 151.709, 145.574 153, 145.124 153 C 144.674 153, 144.049 136.912, 143.735 117.250 C 143.421 97.588, 142.897 80.824, 142.570 79.997 C 141.661 77.698, 148.795 75.841, 155.509 76.630 C 158.529 76.985, 160.994 77.551, 160.987 77.888 C 160.980 78.224, 160.108 81.263, 159.049 84.639 C 154.638 98.710, 155.625 108.115, 161.673 109.633 C 165.834 110.677, 167.355 108.890, 169.526 100.413 C 170.641 96.061, 172.658 89.186, 174.010 85.137 C 176.619 77.315, 178.067 76, 184.065 76 C 186.309 76, 187 76.459, 187 77.951 C 187 80.613, 189.582 90.330, 191.047 93.179 C 194.937 100.746, 201.741 104.308, 214.500 105.456 C 218.350 105.802, 223.201 106.966, 225.281 108.043 C 231.856 111.446, 236 109.798, 236 103.780 C 236 100.001, 231.806 94.637, 227 92.268 C 223.671 90.627, 216.353 89.055, 211.905 89.024 C 206.848 88.990, 203.857 85.271, 202.553 77.398 L 201.874 73.295 206.187 72.150 C 217.912 69.037, 230.463 66.822, 239.413 66.285 L 249.326 65.691 248.670 82.319 C 247.612 109.156, 244.775 129.966, 239.981 146.065 C 238.269 151.812, 236.932 154.169, 233.416 157.635 C 228.642 162.342, 227.816 165.631, 230.750 168.255 C 232.669 169.971, 234.015 170.297, 238.451 170.118 C 242.883 169.941, 252.073 160.092, 254.929 152.461 C 259.888 139.205, 262.414 121.997, 264.170 89.500 C 265.177 70.858, 265.121 67.875, 263.677 62.932 C 261.262 54.667, 258.190 52.061, 249 50.479 C 244.828 49.761, 231.118 51.344, 218.091 54.047 C 205.636 56.632, 203.984 56.597, 204.061 53.750 C 204.095 52.513, 205.107 48.125, 206.311 44 L 208.500 36.500 217 35.951 C 226.093 35.365, 231.887 33.176, 232.158 30.224 C 232.475 26.777, 231.964 24.821, 230.316 23.178 C 228.838 21.703, 225.800 21.500, 205.229 21.500 C 192.356 21.500, 181.301 21.831, 180.662 22.235 M 64.039 30.189 C 61.795 32.597, 61.394 36.931, 63.102 40.316 C 63.709 41.517, 68.495 46.686, 73.739 51.803 C 81.932 59.798, 83.686 61.064, 86.208 60.803 C 88.119 60.606, 89.705 59.568, 90.754 57.831 C 92.138 55.538, 92.188 54.552, 91.106 50.831 C 90.128 47.467, 87.751 44.435, 80.457 37.250 C 70.315 27.259, 67.783 26.170, 64.039 30.189 M 190.377 37.765 C 189.760 38.169, 188.753 40.857, 188.141 43.737 C 187.528 46.617, 186.155 51.455, 185.089 54.487 C 183.476 59.077, 183.394 60, 184.600 60 C 186.403 60, 187.716 56.654, 188.608 49.789 C 188.987 46.880, 189.884 42.813, 190.604 40.750 C 191.323 38.688, 191.819 37.007, 191.706 37.015 C 191.593 37.024, 190.995 37.361, 190.377 37.765 M 69.500 65.496 C 53.766 67.709, 36.957 73.043, 32.886 77.114 C 29.755 80.245, 30.433 83.865, 34.468 85.551 C 40.416 88.036, 48.815 86.936, 69 81.029 C 73.125 79.821, 80.032 78.473, 84.348 78.033 C 89.233 77.534, 92.789 76.639, 93.765 75.663 C 95.780 73.648, 95.786 68.357, 93.774 66.346 C 91.579 64.150, 81.560 63.800, 69.500 65.496 M 73.500 97.890 C 69.100 98.901, 60.584 101.140, 54.577 102.865 C 48.569 104.589, 42.584 106, 41.277 106 C 38.094 106, 33.479 108.478, 31.561 111.217 C 28.978 114.905, 29.608 118.808, 33.400 122.600 C 37.404 126.604, 41.155 127.045, 43.441 123.780 C 44.515 122.248, 47.551 120.862, 53.248 119.304 C 74.501 113.493, 85.210 111, 88.918 111 C 93.606 111, 96.364 107.970, 95.823 103.414 C 95.058 96.979, 86.582 94.882, 73.500 97.890 M 68.332 129.043 C 66.039 129.497, 60.639 131.306, 56.332 133.065 C 52.024 134.823, 45.178 137.059, 41.118 138.033 C 30.091 140.680, 26.459 145.500, 31.073 151.365 C 32.788 153.546, 33.951 153.997, 37.823 153.985 C 42.717 153.969, 53.262 151.033, 64.344 146.599 C 68.366 144.990, 73.883 143.744, 78.690 143.359 C 87.119 142.684, 90 141.173, 90 137.430 C 90 134.874, 85.153 129.831, 81.753 128.850 C 78.705 127.970, 73.371 128.047, 68.332 129.043 M 187.296 162.772 C 182.829 166.273, 181.046 172.520, 181.022 184.750 L 181 196 176.750 196.004 C 174.412 196.006, 168.450 196.663, 163.500 197.464 C 158.550 198.265, 153.600 198.859, 152.500 198.784 C 148.592 198.517, 142.860 200.140, 140.944 202.056 C 138.420 204.580, 138.455 209.196, 141.015 211.514 C 143.894 214.119, 151.479 214.451, 165.670 212.593 C 172.364 211.717, 178.479 211, 179.261 211 C 181.994 211, 182.431 262.903, 179.721 265.613 C 179.481 265.852, 172.368 266.341, 132.219 268.879 C 122.418 269.499, 119.410 270.050, 117.322 271.609 C 113.899 274.164, 112.873 277.109, 114.360 280.105 C 115.423 282.247, 116.391 282.560, 123.524 283.069 C 133.059 283.750, 166.682 282.449, 180 280.884 C 185.225 280.270, 210.200 279.470, 235.500 279.107 C 277.618 278.503, 281.808 278.290, 285.153 276.585 C 289.261 274.490, 291 271.499, 291 266.524 C 291 260.399, 286.416 258.317, 280.500 261.756 C 277.800 263.325, 273.307 263.529, 235.622 263.792 L 193.745 264.083 194.397 261.792 C 195.352 258.438, 196.953 233.160, 196.982 221 L 197.006 210.500 207.753 208.202 C 222.652 205.016, 226.584 201.592, 222.500 195.359 L 220.845 192.834 209.044 193.538 L 197.242 194.243 196.661 184.371 C 195.408 163.073, 193.253 158.103, 187.296 162.772 M 31.813 174.069 C 27.285 177.449, 26.816 182.714, 27.926 217.662 C 28.663 240.860, 29.299 249.827, 30.441 253.108 C 31.283 255.524, 31.977 258.519, 31.985 259.765 C 31.995 261.224, 33.156 262.758, 35.250 264.077 C 39.666 266.858, 50.523 266.226, 61.478 262.549 C 67.145 260.647, 69.572 260.216, 69.853 261.060 C 70.562 263.187, 73.955 266, 75.812 266 C 76.809 266, 80.410 263.930, 83.814 261.401 C 89.017 257.534, 90.538 255.662, 93.360 249.651 C 104.444 226.036, 104.282 186.726, 93.057 176.268 C 89.325 172.791, 83.376 171.702, 74.700 172.909 C 66.933 173.989, 55.729 177.452, 48.584 180.980 C 44.305 183.093, 43 182.868, 43 180.018 C 43 177.954, 37.521 171.982, 35.673 172.032 C 35.028 172.049, 33.291 172.966, 31.813 174.069 M 66 191.592 C 61.325 192.942, 54.462 194.993, 50.750 196.149 L 44 198.251 44 224.125 C 44 239.567, 44.378 250, 44.938 250 C 45.454 250, 48.716 249.342, 52.188 248.537 C 60.410 246.632, 78.152 243.976, 79.031 244.519 C 81.795 246.227, 85.715 216.123, 84.633 201.500 C 83.741 189.446, 83.519 188.987, 78.633 189.069 C 76.360 189.107, 70.675 190.242, 66 191.592" stroke="none" fill="black" fill-rule="evenodd"/>
</svg>