<svg xmlns="http://www.w3.org/2000/svg" width="300" height="300" viewBox="0 0 300 300" version="1.1">
	<path d="M 64.073 11.635 C 60.399 16.305, 61.257 18.411, 70.903 28.399 C 77.349 35.075, 80.153 38.777, 81.064 41.821 C 82.460 46.477, 83.534 47.702, 86.500 48.018 C 90.937 48.490, 92.144 47.900, 93.529 44.585 C 94.744 41.678, 94.754 40.501, 93.601 36.668 C 90.723 27.106, 82.322 16.215, 73.831 11.038 C 69.350 8.306, 66.557 8.477, 64.073 11.635 M 185.891 38.498 C 181.747 40.751, 178.768 48.914, 178.085 59.893 L 177.500 69.287 173.314 70.519 C 171.012 71.197, 165.387 72.298, 160.814 72.967 C 151.004 74.401, 147.374 75.795, 144.042 79.407 C 141.657 81.993, 141.633 82.167, 143.231 85.286 C 144.137 87.054, 145.624 93.900, 146.537 100.500 C 148.408 114.031, 149.801 159, 148.350 159 C 147.845 159, 146.589 160.426, 145.559 162.169 L 143.687 165.339 146.375 167.482 L 149.063 169.625 147.992 181.563 C 146.960 193.064, 142.432 223.493, 141.536 224.941 C 141.297 225.329, 140.667 228.341, 140.136 231.635 C 139.606 234.929, 138.221 240.755, 137.059 244.580 C 135.293 250.394, 134.458 251.752, 131.973 252.852 C 129.640 253.884, 129 254.806, 129 257.133 C 129 260.830, 131.403 265.610, 133.945 266.970 C 142.149 271.361, 146.952 263.359, 154.331 233 C 158.085 217.555, 158.940 212.561, 161.605 190.500 C 162.535 182.800, 163.449 176.318, 163.636 176.095 C 163.823 175.873, 165.883 177.898, 168.214 180.595 C 170.544 183.293, 175.561 188.748, 179.363 192.717 L 186.274 199.934 184.467 202.691 C 181.531 207.171, 180.769 208.078, 174.899 214.067 C 171.818 217.210, 166.818 221.428, 163.787 223.441 C 160.755 225.454, 157.764 228.223, 157.138 229.596 C 156.155 231.754, 156.333 232.424, 158.455 234.546 C 159.805 235.896, 161.717 236.996, 162.705 236.990 C 168.298 236.960, 185.567 225.004, 193.614 215.590 L 197.648 210.870 209.574 222.209 C 230.703 242.298, 240.980 250.287, 255.173 257.653 C 262.016 261.205, 273.456 261.701, 276.892 258.595 C 281.857 254.108, 277.501 246.877, 270.010 247.171 C 265.093 247.363, 255.790 242.172, 244.465 232.914 C 236.434 226.350, 232.050 222.343, 213.216 204.351 L 205.732 197.202 209.282 191.351 C 212.666 185.773, 218.985 172.130, 220.482 167.172 C 220.868 165.892, 223.225 160.717, 225.720 155.672 C 233.574 139.792, 234.442 135.707, 231.054 130.567 C 228.207 126.248, 225.301 125.071, 217.500 125.073 C 211.199 125.074, 209.501 125.553, 200.500 129.869 C 188.804 135.476, 188.822 135.489, 191.662 123.254 C 193.028 117.372, 193.460 111.350, 193.454 98.308 L 193.445 81.117 200.472 79.489 C 208.710 77.581, 227 76.289, 227 77.614 C 227 78.112, 224.695 80.990, 221.878 84.010 C 213.317 93.187, 211.829 95.514, 212.182 99.184 C 212.472 102.205, 212.823 102.527, 216.134 102.803 C 219.235 103.062, 220.635 102.385, 225.686 98.182 C 233.088 92.021, 239.278 85.040, 241.512 80.334 C 243.532 76.077, 243.098 68.955, 240.671 66.528 C 235.971 61.828, 222.384 60.768, 204.314 63.693 C 195.753 65.078, 193.709 65.148, 193.046 64.074 C 191.624 61.773, 190.809 49.226, 191.943 47.106 C 193.473 44.247, 193.240 40.383, 191.429 38.571 C 189.543 36.686, 189.233 36.682, 185.891 38.498 M 82 56.554 C 78.425 57.321, 71.900 59.047, 67.500 60.389 C 63.100 61.731, 56.897 63.353, 53.716 63.993 C 47.067 65.330, 44.061 67.870, 44.766 71.555 C 46.093 78.499, 54.523 79.724, 68.487 75.004 C 77.022 72.119, 86.559 69.831, 97.855 67.958 C 104.446 66.866, 106 65.651, 106 61.593 C 106 55.289, 96.849 53.367, 82 56.554 M 163.500 86.763 C 159.100 87.625, 155.400 88.393, 155.279 88.470 C 155.157 88.547, 156.138 92.860, 157.459 98.055 C 160.236 108.980, 162.650 125.896, 163.613 141.186 L 164.286 151.873 168.120 148.686 C 171.095 146.214, 172.400 144.044, 173.949 139 C 178.203 125.141, 179.524 112.488, 178.449 95.898 L 177.743 85 174.621 85.098 C 172.905 85.152, 167.900 85.901, 163.500 86.763 M 69.500 101.610 C 63.923 102.974, 57.834 103.863, 55.734 103.621 C 49.845 102.941, 46.127 104.805, 45.375 108.815 C 44.853 111.598, 45.194 112.648, 47.305 114.760 C 51.244 118.698, 57.642 118.782, 75.542 115.130 C 83.815 113.441, 92.944 112.159, 95.828 112.280 C 101.403 112.514, 102.955 111.457, 102.985 107.405 C 103.018 102.801, 95.128 99.065, 85.500 99.126 C 82.200 99.146, 75 100.264, 69.500 101.610 M 93 124.197 C 74.366 128.161, 58.510 132.220, 54.746 133.989 C 44.826 138.652, 43.042 144.152, 50.520 147.016 C 53.834 148.284, 63.103 146.881, 81.500 142.328 C 93.386 139.385, 99.065 137.026, 102.481 133.610 C 105.641 130.450, 105.656 128.565, 102.545 125.455 C 99.890 122.799, 99.695 122.773, 93 124.197 M 206.500 143.880 C 202.650 145.399, 193.650 149.623, 186.500 153.265 C 179.350 156.908, 172.151 160.405, 170.501 161.036 L 167.503 162.184 170.325 163.662 C 174.335 165.764, 177.422 168.413, 186.383 177.445 L 194.265 185.390 196.076 183.154 C 197.072 181.924, 198.798 178.483, 199.911 175.507 C 201.025 172.531, 204.608 164.562, 207.874 157.798 C 214.187 144.722, 215.634 140.964, 214.317 141.058 C 213.868 141.091, 210.350 142.360, 206.500 143.880 M 54.895 165.744 C 52.105 166.347, 50.917 170.259, 50.712 179.517 C 50.544 187.082, 50.955 189.794, 53.319 196.692 C 55.143 202.017, 56.191 207.264, 56.313 211.680 C 56.486 217.967, 56.699 218.571, 59.158 219.748 C 62.461 221.330, 66.329 220.065, 68.181 216.798 C 68.897 215.534, 69.712 211.156, 69.992 207.068 L 70.500 199.636 78.622 196.469 C 88.671 192.550, 95.368 190.820, 97.428 191.611 C 98.563 192.046, 99 193.584, 99 197.149 C 99 202.479, 96.316 217.011, 95.099 218.273 C 94.689 218.698, 89.662 219.464, 83.927 219.975 C 69.491 221.260, 67.117 222.200, 59.332 229.717 C 55.832 233.095, 54.901 237.501, 57.200 239.800 C 58.931 241.531, 63.879 241.238, 68.523 239.129 C 72.257 237.432, 74.698 236.765, 87.163 234.036 C 89.727 233.475, 93.105 233.271, 94.669 233.584 C 96.909 234.032, 98.520 233.383, 102.256 230.530 C 104.865 228.538, 107 226.241, 107 225.426 C 107 224.610, 108.294 221.368, 109.875 218.221 C 113.343 211.320, 115 204.032, 115 195.685 C 115 187.730, 112.742 183.406, 106.586 179.570 C 99.739 175.304, 92.175 175.642, 77.264 180.883 L 66.027 184.831 64.514 179.734 C 63.681 176.931, 63 174.224, 63 173.720 C 63 173.215, 62.295 171.316, 61.433 169.500 C 59.869 166.204, 57.927 165.088, 54.895 165.744" stroke="none" fill="black" fill-rule="evenodd"/>
</svg>