<svg xmlns="http://www.w3.org/2000/svg" width="300" height="300" viewBox="0 0 300 300" version="1.1">
	<path d="M 237 19.678 C 230.125 20.467, 214.908 22.699, 203.185 24.640 C 181.173 28.282, 164.317 29.916, 148.200 29.969 C 138.546 30.001, 133.834 31.385, 132.621 34.545 C 131.394 37.743, 132.036 40.912, 134.223 42.443 C 140.122 46.575, 188.167 42.786, 229.837 34.902 C 238.272 33.306, 246.868 32, 248.938 32 C 251.008 32, 254.121 31.505, 255.857 30.900 C 261.263 29.015, 261.336 22.259, 255.979 19.489 C 252.691 17.789, 253.539 17.781, 237 19.678 M 76.268 32.212 C 73.415 33.589, 72.324 38.955, 74.051 43.122 C 75.783 47.306, 87.951 58.975, 90.595 58.989 C 95.306 59.014, 97.470 52.437, 94.770 46.297 C 94.094 44.759, 93.307 43.275, 93.020 43 C 92.734 42.725, 90.328 39.913, 87.673 36.750 C 82.683 30.806, 80.764 30.043, 76.268 32.212 M 115.357 39.512 C 115.038 40.344, 115.068 42.482, 115.424 44.262 C 117.269 53.496, 118.096 79.082, 117.661 113.500 C 117.169 152.469, 116.597 159.976, 111.761 191 L 109.500 205.500 108.958 197.867 C 108.510 191.566, 107.934 189.602, 105.656 186.616 C 99.641 178.730, 94.589 178.303, 76.739 184.175 C 62.945 188.712, 60 190.584, 60 194.816 C 60 202.342, 65.071 203.617, 79.138 199.630 C 83.737 198.326, 88.513 197.018, 89.750 196.723 L 92 196.187 92 214.454 C 92 235.104, 91.376 241.642, 89.330 242.427 C 88.553 242.725, 83.773 243.470, 78.708 244.083 C 73.644 244.695, 68.037 245.804, 66.250 246.547 C 63.807 247.563, 62.996 247.600, 62.984 246.699 C 62.975 246.040, 62.076 237.175, 60.987 227 C 59.897 216.825, 59.004 203.212, 59.003 196.750 C 59 186.335, 58.773 184.773, 57 183 C 55.900 181.900, 54.579 181, 54.065 181 C 51.315 181, 47.995 183.272, 45.980 186.533 C 43.839 189.997, 43.741 190.922, 44.297 202.356 C 45.327 223.509, 49.145 252.446, 51.509 257.016 C 52.955 259.814, 54.517 260.363, 64.500 261.581 C 69.902 262.239, 93.197 256.233, 98.500 252.814 C 100.700 251.395, 102.674 250.394, 102.887 250.588 C 103.463 251.113, 100.127 269.674, 98.325 275.968 C 97.465 278.976, 96.146 282.373, 95.396 283.518 C 94.234 285.292, 94.252 285.915, 95.517 287.721 C 96.334 288.887, 98.393 290.147, 100.093 290.520 C 102.618 291.075, 103.696 290.708, 105.990 288.510 C 111.334 283.390, 116.369 265.131, 119.467 239.642 C 120.345 232.414, 121.985 220.650, 123.111 213.500 C 129.843 170.744, 131.543 146.781, 131.411 96.500 C 131.304 55.915, 130.550 50.515, 123.908 42.750 C 119.813 37.963, 116.441 36.687, 115.357 39.512 M 200.574 44.815 C 196.443 45.312, 192.673 48.126, 180.333 59.927 C 174.384 65.616, 168.388 70.978, 167.008 71.841 C 165.629 72.705, 163.065 74.632, 161.310 76.123 C 159.556 77.614, 157.364 79.257, 156.439 79.774 C 155.189 80.474, 154.647 82.509, 154.328 87.705 C 153.906 94.551, 155.023 101.941, 160.113 126 C 164.993 149.063, 165.287 150.081, 167.608 151.906 C 169.079 153.063, 169.711 154.391, 169.384 155.638 C 169.091 156.762, 169.810 158.760, 171.097 160.396 C 173.150 163.006, 173.736 163.187, 178.908 162.807 C 182.594 162.537, 186.640 161.307, 190.780 159.198 C 194.234 157.439, 197.401 156, 197.818 156 C 198.234 156, 198.559 166.012, 198.538 178.250 C 198.517 190.488, 199.109 215.021, 199.854 232.769 C 200.598 250.517, 200.935 266.124, 200.601 267.452 C 200.268 268.780, 199.096 270.152, 197.997 270.501 C 195.346 271.342, 193.688 274.619, 194.425 277.557 C 194.862 279.299, 196.119 280.224, 199.160 281.043 C 207.351 283.249, 214 278.053, 215.496 268.277 C 216.524 261.557, 216.277 243.511, 214.877 223 C 214.219 213.375, 213.640 193.142, 213.591 178.038 L 213.500 150.576 217.500 148.376 C 225.199 144.142, 227.022 140.022, 222.985 135.985 C 220.546 133.546, 220.738 133.509, 199.220 140.551 C 187.517 144.381, 181.768 146.808, 178.770 149.182 C 175.552 151.731, 174.795 152.030, 175.452 150.492 C 177.629 145.405, 177.043 138.015, 172.482 113 C 171.730 108.875, 170.824 103.154, 170.469 100.288 C 170.113 97.421, 168.963 93.388, 167.911 91.326 C 166.860 89.264, 166 87.272, 166 86.899 C 166 86.527, 170.162 83.702, 175.250 80.623 C 180.338 77.544, 188.342 71.705, 193.038 67.648 C 197.733 63.591, 202.978 59.545, 204.693 58.659 C 209.258 56.298, 211 54.206, 211 51.084 C 211 46.553, 206.856 44.061, 200.574 44.815 M 90 72.097 C 85.325 73.131, 75.650 74.699, 68.500 75.581 C 50.871 77.757, 46.731 79.818, 49.364 85.107 C 53.063 92.537, 71.697 92.796, 91.275 85.689 C 101.180 82.094, 103 80.642, 103 76.337 C 103 73.176, 100.857 69.856, 99 70.140 C 98.725 70.182, 94.675 71.063, 90 72.097 M 217 80.024 C 214.525 80.519, 209.021 81.370, 204.769 81.916 C 200.516 82.462, 194.056 83.829, 190.413 84.954 C 186.770 86.079, 182.563 87, 181.064 87 C 177.447 87, 175.253 90.736, 176.978 93.960 C 179.791 99.215, 192.276 100.478, 206.500 96.945 C 210.900 95.852, 218.829 94.680, 224.119 94.341 L 233.738 93.724 232.518 100.216 C 231.212 107.168, 230.129 109.754, 229.125 108.322 C 227.229 105.619, 222.358 103, 219.226 103 C 214.296 103, 192.424 106.771, 186.854 108.581 C 178.984 111.139, 174.371 120.311, 178.895 124.405 C 180.691 126.031, 181.187 125.987, 188.416 123.560 C 192.610 122.152, 197.109 121, 198.413 121 C 199.717 121, 205.220 120.145, 210.642 119.099 C 216.064 118.054, 221.996 116.934, 223.825 116.609 L 227.151 116.020 225.075 119.378 C 222.523 123.508, 222.470 125.210, 224.829 127.345 C 227.932 130.153, 232.412 129.448, 235.646 125.643 C 242.627 117.430, 242.140 118.329, 247.569 103.624 C 250.856 94.721, 247.831 84.242, 241.146 81.377 C 236.806 79.517, 223.319 78.761, 217 80.024 M 78.500 108.528 C 68.571 111.112, 51.735 117.561, 48.105 120.171 C 46.124 121.595, 45.920 122.260, 46.722 124.671 C 47.581 127.250, 48.232 127.572, 54.082 128.313 C 62.481 129.378, 67.243 128.596, 75.068 124.867 C 82.678 121.240, 90.630 119, 95.894 119 C 99.952 119, 103 116.681, 103 113.594 C 103 112.633, 101.685 110.531, 100.077 108.923 C 97.613 106.459, 96.395 106.015, 92.327 106.093 C 89.672 106.144, 83.450 107.240, 78.500 108.528 M 81.500 142.838 C 75.450 144.852, 68.025 147.901, 65 149.612 C 61.975 151.323, 56.961 153.459, 53.858 154.358 C 50.755 155.257, 47.943 156.706, 47.608 157.578 C 45.653 162.674, 48.673 165.700, 56.656 166.646 C 62.241 167.307, 67.998 165.681, 76.235 161.116 C 79.131 159.511, 84.364 157.174, 87.866 155.923 C 94.354 153.604, 101 148.466, 101 145.768 C 101 143.728, 96.105 138.979, 94.114 139.088 C 93.226 139.136, 87.550 140.823, 81.500 142.838 M 223.250 186.662 C 222.563 186.940, 222 188.460, 222 190.041 C 222 192.193, 222.936 193.616, 225.731 195.707 C 227.782 197.243, 231.945 200.975, 234.981 204 C 244.013 213.001, 265.909 239.639, 268.706 245.031 C 271.529 250.473, 274.463 252.022, 278.480 250.191 C 281.976 248.598, 282.465 244.317, 279.925 237.529 C 278.734 234.346, 277.160 231.013, 276.427 230.121 C 274.820 228.166, 263.061 213.222, 257.500 206.067 C 247.994 193.837, 230.306 183.815, 223.250 186.662 M 171.384 192.272 C 164.918 195.708, 161.199 201.607, 156.711 215.539 C 152.113 229.816, 151.208 233.349, 150.413 240.127 C 149.837 245.040, 150.023 246.023, 151.877 247.877 C 156.996 252.996, 161.638 248.847, 165.388 235.802 C 168.551 224.797, 177.281 203.828, 178.902 203.338 C 182.483 202.257, 183.493 201.127, 183.288 198.433 C 183.171 196.900, 182.447 195.018, 181.678 194.250 C 179.668 192.240, 173.628 191.079, 171.384 192.272" stroke="none" fill="black" fill-rule="evenodd"/>
</svg>