<svg xmlns="http://www.w3.org/2000/svg" width="300" height="300" viewBox="0 0 300 300" version="1.1">
	<path d="M 227.259 29.056 C 221.787 30.135, 219.543 31.907, 213.748 39.718 C 209.704 45.167, 209.159 46.428, 210.090 48.168 C 211.529 50.857, 215.983 50.048, 221.506 46.094 C 223.709 44.517, 227.468 42.641, 229.859 41.924 C 234.006 40.682, 234.289 40.731, 236.002 43.003 C 237.742 45.309, 240 51.483, 240 53.933 C 240 54.650, 239.249 54.896, 238.137 54.544 C 235.526 53.715, 217.953 56.678, 214.111 58.594 C 212.361 59.468, 208.477 60.515, 205.480 60.922 C 202.444 61.334, 199.065 62.511, 197.847 63.580 C 195.860 65.325, 195.720 65.338, 196.309 63.723 C 196.666 62.746, 197.255 58.376, 197.619 54.012 C 198.150 47.644, 197.969 45.601, 196.698 43.662 C 193.547 38.852, 187.361 39.425, 184.636 44.780 C 182.791 48.407, 181.967 74.337, 183.136 92 C 183.934 104.063, 184.267 105.720, 186.265 107.563 C 187.494 108.698, 188.649 110.271, 188.832 111.060 C 189.461 113.771, 191.028 114.725, 196.258 115.579 C 202.997 116.679, 235.227 116.752, 240.647 115.680 L 244.794 114.859 245.647 126.680 C 246.116 133.181, 246.500 157.400, 246.500 180.500 C 246.500 217.784, 246.223 225.278, 244.035 247.235 C 242.417 263.476, 241.232 271.632, 240.585 270.985 C 238.973 269.373, 235.435 269.862, 233.536 271.960 C 231.156 274.590, 232.059 279.083, 236.261 285.513 C 238.825 289.437, 240.327 290.700, 243.304 291.437 C 246.765 292.294, 247.335 292.123, 249.991 289.437 C 252.386 287.015, 253.269 284.659, 255.031 276 C 258.938 256.795, 261.380 210.963, 260.731 169.024 C 260.224 136.250, 259.585 125.255, 255.324 76 C 253.107 50.375, 252.463 45.843, 250.423 41.500 C 247.233 34.707, 243.035 30.381, 238.383 29.089 C 234.023 27.879, 233.237 27.876, 227.259 29.056 M 112.206 33.079 C 107.829 34.775, 106.624 39.968, 106.304 58.500 C 105.812 87.055, 103.989 142.518, 102.944 160.732 C 102.400 170.209, 101.544 185.533, 101.040 194.785 C 100.101 212.046, 97.643 237.614, 96.068 246.500 C 95.025 252.387, 96.647 256, 100.334 256 C 103.104 256, 106.786 252.768, 107.487 249.722 C 107.768 248.500, 108.681 244.575, 109.515 241 C 110.350 237.425, 111.463 230, 111.989 224.500 C 112.515 219, 113.643 207.525, 114.497 199 C 115.835 185.634, 117.887 138.535, 117.972 119.220 L 118 112.940 120.896 115.082 C 123.619 117.094, 124.686 117.198, 138.646 116.810 C 151.893 116.441, 154.041 116.131, 158.500 113.948 C 162.508 111.986, 163.564 110.942, 163.822 108.690 C 163.999 107.144, 163.654 105.289, 163.056 104.567 C 162.271 103.622, 162.270 101.840, 163.050 98.201 C 163.714 95.107, 164.011 83.967, 163.817 69.485 L 163.500 45.824 160.847 43.543 C 157.106 40.328, 146.761 38.571, 132.455 38.722 C 121.158 38.842, 120.350 38.720, 119.455 36.766 C 118.010 33.615, 114.903 32.034, 112.206 33.079 M 53.620 40.520 C 48.418 42.308, 47 43.803, 47 47.500 C 47 51.697, 49.007 53.281, 54.267 53.237 C 56.595 53.217, 59.529 53.852, 60.787 54.647 C 62.689 55.851, 62.967 56.658, 62.443 59.453 C 61.950 62.078, 62.270 63.270, 63.906 64.906 C 65.058 66.058, 66.434 67, 66.965 67 C 69.031 67, 74.894 60.761, 75.524 57.892 C 77.730 47.846, 63.996 36.953, 53.620 40.520 M 120 60.969 C 120 68.129, 120.178 68.874, 121.750 68.313 C 122.713 67.970, 123.950 67.361, 124.500 66.958 C 126.127 65.769, 141.689 62, 144.974 62 C 147.894 62, 148 61.842, 148 57.500 L 148 53 134 53 L 120 53 120 60.969 M 232 69.136 C 228.425 70.195, 222.591 71.998, 219.036 73.145 C 209.859 76.103, 201.718 76.700, 198.582 74.646 L 196.100 73.019 195.800 87.968 L 195.500 102.916 198 102.208 C 199.375 101.819, 205.900 101.642, 212.500 101.817 C 219.100 101.991, 228.678 101.835, 233.785 101.471 L 243.070 100.808 242.495 89.154 C 241.645 71.906, 241.016 66.986, 239.678 67.106 C 239.030 67.164, 235.575 68.077, 232 69.136 M 57.097 72.558 C 53.025 73.856, 48.300 75.579, 46.596 76.388 C 44.892 77.196, 39.922 79.025, 35.553 80.451 C 26.377 83.446, 24 85.222, 24 89.082 C 24 92.250, 28.017 96.006, 31.385 95.989 C 34.970 95.971, 51.312 90.287, 57.152 87.028 C 59.925 85.480, 71.155 82.766, 77.479 82.115 C 82.774 81.570, 83.562 81.201, 84.375 78.882 C 85.438 75.852, 82.898 71.529, 79.500 70.584 C 75.022 69.338, 64.208 70.291, 57.097 72.558 M 134 79.619 C 129.325 81.589, 124.037 83.716, 122.250 84.346 L 119 85.489 119 95.898 L 119 106.306 120.979 104.024 C 122.925 101.780, 123.195 101.754, 136.979 102.464 L 151 103.186 150.926 94.343 C 150.885 89.479, 150.548 83.475, 150.176 81 C 149.532 76.714, 149.334 76.489, 146 76.268 C 143.801 76.122, 139.340 77.368, 134 79.619 M 47.500 105.196 C 45.300 105.715, 41.210 106.783, 38.412 107.570 C 35.614 108.356, 32.401 109, 31.273 109 C 30.145 109, 28.204 109.824, 26.960 110.831 C 24.077 113.166, 24.857 117.158, 28.523 118.829 C 32.170 120.490, 43.436 120.279, 52.636 118.377 C 58.231 117.220, 62.747 116.942, 68.352 117.409 C 77.147 118.142, 79 117.387, 79 113.066 C 79 109.163, 75.814 106.340, 69.999 105.093 C 64.013 103.809, 53.169 103.859, 47.500 105.196 M 176 117.797 C 173.844 118.520, 173.212 119.820, 172.500 125 C 172.152 127.528, 171.560 130.087, 171.184 130.687 C 170.808 131.287, 165.585 132.305, 159.578 132.950 C 145.561 134.453, 139.119 136.632, 136.764 140.664 C 135.035 143.624, 135.044 143.786, 137.065 146.355 C 138.883 148.667, 139.869 149, 144.891 149 C 148.051 149, 152.856 148.355, 155.568 147.567 C 158.281 146.778, 162.525 145.991, 165 145.817 L 169.500 145.500 169.500 149.891 C 169.500 154.930, 169.836 154.677, 158 158.521 C 153.325 160.039, 148.206 162.188, 146.625 163.298 C 144.895 164.511, 142.327 165.261, 140.178 165.180 C 138.112 165.103, 135.847 165.734, 134.803 166.678 C 132.202 169.032, 132.457 175.980, 135.357 181.783 C 136.653 184.377, 138.039 187.847, 138.437 189.494 C 139.473 193.781, 140.808 195, 144.467 195 C 148.827 195, 151.252 192.140, 151.182 187.080 L 151.126 183.079 155.213 186.040 C 157.461 187.668, 160.331 189, 161.591 189 C 165.530 189, 165.167 190.712, 160.747 192.983 C 152.437 197.254, 149.310 202.808, 152.991 206.760 C 154.941 208.853, 157.777 209.528, 162.470 209.015 C 164.038 208.844, 163.611 209.699, 160.371 213.213 C 158.134 215.640, 155.022 219.848, 153.456 222.563 C 149.425 229.553, 142.693 237.267, 137.737 240.573 C 128.653 246.634, 127.233 249.091, 130.900 252.409 C 133.585 254.840, 139.148 253.643, 146 249.160 C 153.134 244.492, 158.348 239.060, 164.659 229.719 L 169.764 222.161 170.371 225.831 C 170.705 227.849, 170.986 231.750, 170.997 234.500 C 171.007 237.250, 171.479 242.358, 172.046 245.852 C 172.802 250.510, 172.770 252.572, 171.927 253.589 C 170.112 255.775, 171.670 259.879, 174.592 260.613 C 177.883 261.438, 181.188 259.645, 183.459 255.800 C 185.085 253.047, 185.188 251.099, 184.537 235.379 C 184.102 224.862, 184.184 218, 184.744 218 C 185.254 218, 189.939 221.713, 195.156 226.250 C 200.373 230.787, 207.985 236.873, 212.071 239.774 C 216.157 242.674, 221.939 246.837, 224.921 249.024 C 230.879 253.394, 233.831 253.949, 236.345 251.171 C 239.378 247.820, 238.402 244.312, 232.750 238.246 C 225.411 230.369, 223.969 229.141, 211 219.723 C 201.781 213.027, 197.963 210.902, 191.750 209.009 C 185.779 207.190, 184 206.229, 184 204.824 C 184 203.821, 184.595 203, 185.323 203 C 188.274 203, 204.907 194.040, 206.082 191.818 C 206.756 190.543, 209.291 187.283, 211.715 184.574 C 218.363 177.143, 221.116 171.815, 221.714 165.219 C 222.183 160.044, 221.965 159.112, 219.639 156.348 C 215.437 151.354, 212.563 150.686, 197.480 151.198 L 184 151.655 184 147.827 L 184 144 189.550 144 C 196.213 144, 200.737 141.897, 201.617 138.391 C 202.681 134.152, 199.731 132.278, 190.500 131.325 C 182.979 130.549, 182.481 130.350, 182.183 128 C 181.129 119.671, 179.319 116.685, 176 117.797 M 60.500 136.134 C 57.750 137.272, 50.839 140.195, 45.142 142.630 L 34.784 147.057 32.841 144.816 C 30.421 142.026, 28.467 143.001, 25.266 148.596 C 22.352 153.690, 22.425 156.516, 25.551 159.642 C 27.684 161.775, 28.790 162.119, 32.301 161.741 C 37.731 161.156, 45.337 158.277, 59.267 151.532 C 72.140 145.299, 75 143.157, 75 139.745 C 75 134.067, 69.066 132.590, 60.500 136.134 M 193.500 165.675 C 184.155 166.465, 183 166.913, 183 169.745 C 183 171.810, 183.267 172.133, 184.200 171.200 C 184.860 170.540, 187.542 170, 190.161 170 C 193.741 170, 195.418 170.532, 196.919 172.144 C 199.516 174.931, 198.663 176.473, 191.411 182.093 C 182.812 188.757, 182.607 188.940, 183.167 189.500 C 183.454 189.787, 185.632 189.335, 188.008 188.497 C 193.012 186.732, 198.865 180.791, 202.785 173.500 C 207.529 164.674, 207.550 164.978, 202.218 165.168 C 199.623 165.261, 195.700 165.488, 193.500 165.675 M 165.250 170.379 C 162.912 170.877, 161.001 171.783, 161.002 172.392 C 161.003 173.001, 162.915 175.300, 165.252 177.500 L 169.500 181.500 169.813 178.250 C 169.986 176.463, 169.986 173.757, 169.813 172.237 C 169.507 169.537, 169.404 169.495, 165.250 170.379 M 53 174.003 C 48.325 175.028, 41.189 176.587, 37.143 177.469 C 33.097 178.350, 29.384 179.168, 28.891 179.286 C 28.399 179.404, 27.425 178.375, 26.725 177 C 24.961 173.530, 19.937 173.078, 17.092 176.132 C 14.350 179.074, 14.328 186.008, 17.016 200.002 C 18.126 205.776, 19.486 215.998, 20.041 222.718 C 20.595 229.438, 21.511 237.088, 22.075 239.718 C 22.640 242.348, 23.066 246.106, 23.021 248.068 C 22.851 255.598, 27.166 256.417, 44 252.050 C 48.675 250.838, 57 249.598, 62.500 249.295 C 73.171 248.707, 76 247.502, 76 243.545 C 76 242.365, 75.513 240.913, 74.918 240.318 C 74.199 239.599, 74.158 238.608, 74.796 237.368 C 77.817 231.489, 79.196 226.880, 80.105 219.624 C 80.664 215.156, 81.995 206.393, 83.061 200.151 C 84.128 193.908, 85 187.249, 85 185.351 C 85 180.918, 82.799 176.705, 79.111 174.079 C 75.343 171.396, 65.034 171.366, 53 174.003 M 50 189.639 C 43.675 190.991, 36.587 192.359, 34.250 192.679 C 29.471 193.332, 29.532 193.123, 31.543 202 C 32.354 205.575, 33.308 215.178, 33.663 223.340 L 34.311 238.180 38.405 237.613 C 40.657 237.301, 46.648 236.750, 51.718 236.389 L 60.936 235.731 62.506 230.331 C 63.369 227.361, 64.490 219.209, 64.997 212.216 C 65.504 205.222, 66.607 197.250, 67.448 194.500 C 68.290 191.750, 68.983 188.938, 68.989 188.250 C 69.005 186.397, 63.164 186.825, 50 189.639" stroke="none" fill="black" fill-rule="evenodd"/>
</svg>