<svg xmlns="http://www.w3.org/2000/svg" width="300" height="300" viewBox="0 0 300 300" version="1.1">
	<path d="M 158.804 23.419 C 154.360 25.737, 151.065 28.422, 151.031 29.750 C 151.014 30.438, 150.392 31, 149.650 31 C 148.907 31, 147.369 32.237, 146.232 33.750 C 145.096 35.263, 140.988 40.775, 137.103 46 C 133.219 51.225, 129.582 56.044, 129.021 56.708 C 128.459 57.372, 127.998 58.272, 127.996 58.708 C 127.994 59.144, 126.869 61.714, 125.496 64.419 C 121.077 73.129, 123.214 82.485, 130.176 84.912 C 133.955 86.229, 144.337 86.337, 148.636 85.104 C 151.420 84.306, 151.704 84.414, 151.262 86.104 C 150.990 87.147, 150.144 88, 149.383 88 C 148.623 88, 148 88.638, 148 89.417 C 148 90.196, 147.662 90.983, 147.250 91.167 C 146.838 91.350, 144.502 93.975, 142.061 97 C 139.619 100.025, 136.888 103.175, 135.992 104 C 135.096 104.825, 131.930 108.875, 128.957 113 C 125.983 117.125, 123.237 120.730, 122.855 121.010 C 122.472 121.291, 121.829 122.866, 121.425 124.510 C 121.022 126.155, 120.264 127.781, 119.741 128.124 C 119.218 128.467, 118.558 131.643, 118.274 135.181 C 117.865 140.272, 118.095 141.952, 119.379 143.236 C 120.270 144.127, 121 145.349, 121 145.950 C 121 146.551, 122.125 147.555, 123.500 148.182 C 124.875 148.808, 126 149.699, 126 150.161 C 126 150.622, 129.375 151, 133.500 151 C 137.833 151, 141 150.578, 141 150 C 141 149.450, 141.797 149, 142.771 149 C 144.989 149, 158.874 140.926, 161.311 138.220 C 163.108 136.223, 163.150 136.239, 166.989 140.354 C 170.454 144.069, 171.341 144.500, 175.515 144.500 C 181.572 144.500, 185.274 140.767, 184.803 135.132 C 184.551 132.113, 183.909 131.206, 181 129.757 C 177.190 127.859, 176.252 125.822, 176.100 119.110 C 175.930 111.642, 169.674 109.480, 164.167 114.987 C 161.120 118.034, 159.151 124.716, 160.565 127.213 C 161.149 128.246, 161.027 128.253, 159.947 127.250 C 157.957 125.403, 156.378 125.676, 149.097 129.123 C 142.788 132.110, 135 134.021, 135 132.582 C 135 130.103, 148.496 110, 150.161 110 C 150.622 110, 151.024 109.438, 151.052 108.750 C 151.081 108.063, 153.775 104.125, 157.038 100 C 160.302 95.875, 165.790 88.592, 169.236 83.816 L 175.500 75.132 177.393 87.316 C 178.434 94.017, 179.672 99.650, 180.143 99.833 C 180.614 100.017, 181 102.138, 181 104.548 C 181 108.890, 185.028 129.211, 189.133 145.578 C 190.305 150.249, 191.045 154.288, 190.779 154.554 C 190.513 154.820, 185.391 156.328, 179.398 157.906 C 173.404 159.483, 164.117 161.935, 158.760 163.356 C 153.402 164.776, 145.977 166.432, 142.260 167.035 C 138.542 167.638, 134.600 168.494, 133.500 168.938 C 132.400 169.382, 128.918 170.228, 125.761 170.818 C 109.023 173.944, 110.895 186.012, 128.116 185.996 C 130.527 185.994, 136.725 185.307, 141.890 184.469 C 147.054 183.632, 151.445 183.112, 151.647 183.313 C 152.339 184.006, 150.751 190, 149.875 190 C 149.394 190, 149 190.408, 149 190.906 C 149 192.613, 138.906 213, 138.061 213 C 137.597 213, 136.934 214.125, 136.589 215.500 C 136.244 216.875, 135.520 218, 134.981 218 C 134.441 218, 134 218.718, 134 219.596 C 134 220.474, 132.029 224.861, 129.619 229.346 C 127.209 233.831, 124.959 238.705, 124.618 240.178 C 123.771 243.839, 126.153 246, 131.037 246 C 135.748 246, 138.543 243.525, 144.867 233.750 C 147.270 230.038, 149.632 227, 150.117 227 C 150.603 227, 151 226.411, 151 225.691 C 151 224.971, 151.625 223.528, 152.388 222.484 C 153.707 220.680, 153.992 220.807, 158.138 225.046 C 162.744 229.756, 170.434 233, 176.994 233 C 182.055 233, 187 228.786, 187 224.472 C 187 220.288, 183.444 217.421, 179.487 218.414 C 176.635 219.130, 174.080 218.010, 169 213.819 C 160.293 206.634, 160.472 207.403, 165.171 197.376 C 168.225 190.859, 169.301 187.285, 169.356 183.479 L 169.430 178.355 180.965 175.028 C 187.309 173.198, 193.209 171.512, 194.075 171.280 C 195.282 170.957, 195.951 172.219, 196.936 176.679 C 197.644 179.881, 198.584 182.950, 199.025 183.500 C 199.467 184.050, 201.436 190.575, 203.402 198 C 208.613 217.687, 209.329 220, 210.207 220 C 210.643 220, 211 221.291, 211 222.869 C 211 224.447, 213.238 231.183, 215.974 237.838 L 220.948 249.938 215.900 258.163 C 213.124 262.686, 210.268 266.863, 209.554 267.444 C 208.840 268.025, 208.002 269.561, 207.693 270.858 C 207.022 273.674, 211.086 278.002, 214.396 277.996 C 217.503 277.991, 222.331 274.715, 226.048 270.090 L 229.326 266.011 232.541 270.755 C 234.309 273.365, 236.869 276.688, 238.229 278.141 C 239.589 279.593, 240.981 281.507, 241.321 282.394 C 241.661 283.280, 244.066 285.354, 246.665 287.003 C 254.641 292.061, 260.987 290.475, 263.023 282.914 C 264.801 276.313, 262.449 272, 257.071 272 C 255.382 272, 254 272.487, 254 273.081 C 254 274.750, 247.238 268.024, 243.945 263.079 C 242.325 260.647, 241 257.882, 241 256.936 C 241 255.989, 240.213 254.909, 239.250 254.536 C 237.583 253.889, 237.583 253.796, 239.250 252.568 C 240.212 251.859, 241 250.618, 241 249.810 C 241 249.002, 243.044 244.777, 245.542 240.421 C 256.032 222.129, 261.025 207.944, 259.469 200.857 C 258.876 198.159, 255.257 195, 252.758 195 C 249.010 195, 241 206.156, 241 211.377 C 241 212.728, 240.658 213.983, 240.241 214.167 C 239.823 214.350, 237.734 218.450, 235.599 223.279 C 229.928 236.101, 229.982 236.113, 224.951 220.852 C 223.165 215.433, 221.370 211, 220.961 211 C 220.553 211, 219.982 209.538, 219.691 207.750 C 219.401 205.963, 217.327 198.250, 215.082 190.611 C 212.837 182.972, 211 175.435, 211 173.861 C 211 172.287, 210.550 171, 210 171 C 209.450 171, 209 170.360, 209 169.578 C 209 168.006, 213.117 166.428, 219.994 165.363 C 225.963 164.438, 230.499 160.124, 229.536 156.287 C 229.168 154.822, 228.110 153.048, 227.184 152.344 C 225.285 150.900, 215.683 150.665, 209.280 151.904 L 205.061 152.720 203.583 147.610 C 200.268 136.142, 199.072 128.803, 201.080 132.250 C 203.752 136.838, 212.433 138.639, 221.612 136.510 C 227.919 135.048, 238.788 130.061, 241.809 127.243 C 242.550 126.552, 243.991 125.540, 245.011 124.994 C 246.514 124.190, 247.004 124.428, 247.594 126.251 C 247.994 127.488, 248.248 130.300, 248.157 132.500 C 247.967 137.122, 248.652 138.466, 251.683 139.411 C 253.281 139.910, 254.701 139.343, 256.986 137.296 C 261.040 133.663, 262.015 129.110, 260.370 121.500 C 259.656 118.200, 258.606 112.152, 258.037 108.059 C 256.983 100.489, 256.363 99.477, 252.082 98.341 C 250.148 97.827, 248.998 98.426, 246.332 101.335 C 244.498 103.336, 243 106.046, 243 107.363 C 243 110.167, 242.052 110.991, 236 113.446 C 233.525 114.450, 230.073 115.890, 228.330 116.645 C 226.586 117.400, 223.774 118.295, 222.080 118.634 C 220.386 118.973, 219 119.644, 219 120.125 C 219 120.606, 218.295 121, 217.433 121 C 214.364 121, 218.105 113.951, 229.376 98.500 C 236.306 88.999, 236.203 89.133, 238.750 86.359 C 239.988 85.012, 241 83.643, 241 83.317 C 241 82.721, 243.811 78.517, 257.510 58.623 C 263.507 49.914, 264.994 47.025, 264.968 44.123 C 264.911 37.608, 260.591 34.965, 256.183 38.750 C 254.137 40.507, 241 58.459, 241 59.498 C 241 59.804, 239.578 61.616, 237.839 63.527 C 234.925 66.729, 234.226 67, 228.875 67 L 223.071 67 225.040 62.407 C 227.579 56.483, 236.379 43.763, 241.222 39.015 C 244.726 35.581, 246.313 31, 244 31 C 243.450 31, 243 30.325, 243 29.500 C 243 27.483, 236.660 27.483, 234.643 29.500 C 233.818 30.325, 232.170 31, 230.981 31 C 225.714 31, 219.175 38.232, 213.349 50.500 C 211.782 53.800, 210.162 56.650, 209.750 56.833 C 209.338 57.017, 209 57.735, 209 58.430 C 209 59.124, 208.273 61.151, 207.383 62.933 C 204.916 67.880, 205.904 76.429, 209.310 79.586 C 212.474 82.520, 216.090 84, 220.095 84 L 223.060 84 220.780 87.212 C 219.526 88.979, 217.683 91.342, 216.684 92.462 C 215.685 93.583, 213.895 96.075, 212.707 98 C 211.518 99.925, 209.411 102.777, 208.023 104.337 C 204.381 108.432, 200 116.707, 200 119.491 C 200 123.211, 198.272 123.374, 197.148 119.759 C 196.591 117.967, 195.157 111.550, 193.962 105.500 C 192.767 99.450, 191.420 93.600, 190.970 92.500 C 190.519 91.400, 189.421 85.550, 188.528 79.500 C 186.231 63.930, 186.007 62.164, 185.554 56 C 185.332 52.975, 184.827 46.990, 184.433 42.700 C 183.914 37.063, 184.072 34.234, 185.002 32.496 C 186.090 30.463, 186.033 29.699, 184.632 27.561 C 182.160 23.788, 178.351 23.195, 175.420 26.125 C 172.247 29.299, 171.172 35.707, 172.170 45.500 C 173.161 55.218, 172.888 56.545, 168.976 61 C 167.286 62.925, 165.214 65.635, 164.371 67.022 C 162.860 69.508, 162.684 69.539, 152.169 69.163 C 146.301 68.953, 141.368 68.661, 141.207 68.514 C 140.656 68.013, 144.369 61, 145.185 61 C 145.633 61, 146 60.391, 146 59.646 C 146 58.901, 147.012 57.190, 148.250 55.843 C 149.488 54.495, 151.133 52.190, 151.907 50.719 C 152.681 49.248, 156.451 43.872, 160.286 38.772 C 164.120 33.673, 167.716 28.501, 168.276 27.280 C 170.376 22.700, 164.653 20.368, 158.804 23.419 M 52.501 26.999 C 51.381 28.236, 50.655 30.666, 50.596 33.377 C 50.518 36.936, 51.245 38.838, 54.483 43.540 C 56.674 46.721, 58.971 49.828, 59.587 50.444 C 60.203 51.061, 61.024 53.800, 61.411 56.532 C 62.466 63.989, 62.939 65.026, 65.769 66.102 C 69.172 67.396, 73.283 65.711, 75.116 62.272 C 77.224 58.317, 76.738 48.028, 74.215 43.187 C 69.880 34.871, 68.406 32.732, 63.673 27.891 C 60.234 24.374, 55.238 23.975, 52.501 26.999 M 62.500 70.655 C 52.972 71.785, 36.607 74.358, 30.944 75.615 C 25.568 76.810, 24.084 77.588, 22.694 79.940 C 20.441 83.755, 20.555 87.146, 23.028 89.799 C 25.965 92.952, 29.438 93.482, 38.534 92.167 C 42.973 91.525, 48.043 91, 49.802 91 C 51.561 91, 53 90.611, 53 90.136 C 53 89.249, 54.322 89.013, 73.925 86.404 C 86.050 84.790, 89 83.823, 89 81.465 C 89 80.659, 89.450 80, 90 80 C 90.550 80, 91 79.325, 91 78.500 C 91 77.675, 90.550 77, 90 77 C 89.450 77, 89 76.518, 89 75.929 C 89 71.448, 76.609 68.982, 62.500 70.655 M 52 117.550 C 46.775 118.253, 40.138 118.867, 37.250 118.914 C 34.362 118.961, 32 119.394, 32 119.875 C 32 120.356, 30.742 121.002, 29.204 121.309 C 25.066 122.137, 23.580 125.560, 25.205 130.521 C 27.108 136.330, 31.261 137.509, 44.500 135.998 C 57.228 134.545, 71.221 131.973, 72.450 130.860 C 72.973 130.387, 74.374 130, 75.565 130 C 78.068 130, 83 126.435, 83 124.627 C 83 122.124, 80.429 118.062, 78.203 117.047 C 75.261 115.706, 64.114 115.920, 52 117.550 M 198.825 127.674 C 199.251 129.767, 199.503 130.019, 199.794 128.644 C 200.011 127.623, 199.751 126.351, 199.218 125.818 C 198.592 125.192, 198.452 125.849, 198.825 127.674 M 46.500 152.916 C 41 153.918, 34.617 155.565, 32.316 156.576 C 26.036 159.335, 23.938 165.825, 28.106 169.595 C 31.165 172.362, 42.640 171.970, 56.242 168.634 C 62.150 167.185, 68.960 166, 71.377 166 C 75.033 166, 76.063 165.553, 77.519 163.331 C 79.677 160.037, 78.706 156.602, 74.793 153.689 C 71.020 150.880, 59.410 150.563, 46.500 152.916 M 241 152.500 C 241 153.325, 240.550 154, 240 154 C 239.450 154, 239 155.800, 239 158 C 239 160.200, 239.351 162, 239.781 162 C 240.971 162, 243.269 168.201, 243.043 170.803 C 242.605 175.841, 248.915 178.316, 255.345 175.629 C 259.944 173.708, 261.212 170.673, 259.777 165.019 C 258.632 160.508, 256.680 158.016, 250.906 153.692 C 246.891 150.685, 241 149.976, 241 152.500 M 28.304 191.956 C 24.010 194.575, 23.362 198.654, 25.310 210.807 C 26.164 216.138, 27.410 225.338, 28.077 231.250 C 28.745 237.162, 29.676 242, 30.145 242 C 30.615 242, 31 244.939, 31 248.532 C 31 255.576, 32.943 261.657, 35.507 262.641 C 36.901 263.176, 36.843 263.498, 35.052 265.166 C 32.087 267.928, 32.339 273.033, 35.591 276.076 C 37.948 278.281, 38.963 278.489, 46.841 278.373 C 52.400 278.291, 58.364 277.445, 63.500 276.009 C 73.165 273.308, 84.039 268.552, 85.750 266.279 C 87.304 264.213, 87.375 259.775, 85.877 258.277 C 85.046 257.446, 85.307 256.378, 86.877 254.173 C 88.045 252.533, 89 250.736, 89 250.179 C 89 249.622, 89.338 249.017, 89.750 248.833 C 91.058 248.252, 96.870 235.529, 97.931 230.924 C 99.249 225.209, 99.294 212.300, 98 211.500 C 97.450 211.160, 97 210.051, 97 209.035 C 97 206.689, 88.071 197.358, 84.543 196.016 C 76.770 193.061, 50.255 194.749, 44.285 198.579 C 41.153 200.589, 40.330 200.374, 39.206 197.250 C 38.044 194.019, 34.440 189.998, 32.711 190.004 C 32.045 190.006, 30.062 190.884, 28.304 191.956 M 64.630 212.086 C 55.012 213.167, 47.818 214.976, 45.670 216.854 C 44.242 218.103, 43.969 219.335, 44.423 222.477 C 45.948 233.018, 46.913 254.816, 45.996 258.014 C 45.459 259.887, 45.369 261.769, 45.797 262.197 C 47.207 263.607, 64.318 260.027, 66.669 257.830 C 69.947 254.767, 80.717 232.276, 81.987 225.842 C 82.895 221.242, 82.830 219.530, 81.643 216.688 C 79.665 211.955, 75.593 210.853, 64.630 212.086" stroke="none" fill="black" fill-rule="evenodd"/>
</svg>