<svg xmlns="http://www.w3.org/2000/svg" width="300" height="300" viewBox="0 0 300 300" version="1.1">
	<path d="M 195.266 27.448 C 192.762 29.601, 192.626 30.179, 192.848 37.689 C 192.978 42.066, 192.638 46.821, 192.093 48.255 C 191 51.130, 189.309 51.542, 174.679 52.495 C 170.378 52.776, 166.021 53.453, 164.997 54.001 C 162.673 55.246, 161.449 58.849, 162.869 60.269 C 164.591 61.991, 171.196 63.969, 175.281 63.985 C 179.399 64.001, 179.543 64.202, 180.479 71.202 C 181.280 77.191, 185.618 82.244, 189.724 81.972 C 197.294 81.470, 194.292 82.631, 179.500 85.925 C 162.120 89.796, 161.046 90.306, 161.015 94.699 C 161.003 96.488, 162.010 97.216, 166.415 98.605 C 171.485 100.203, 172.266 100.206, 178.665 98.653 C 187.358 96.544, 187 96.491, 187 99.889 C 187 103.172, 185.887 103.541, 171.642 104.978 C 162.810 105.869, 158.691 108.106, 158.190 112.286 C 157.689 116.460, 161.665 118.421, 169.032 117.636 C 172.314 117.286, 177.745 116.708, 181.100 116.352 C 188.488 115.567, 188.644 115.746, 189.501 125.952 C 189.850 130.103, 190.619 134.760, 191.210 136.301 C 192.177 138.822, 192.694 139.071, 196.392 138.801 L 200.500 138.500 200.500 126.010 L 200.500 113.521 205.664 111.777 C 212.715 109.397, 217.401 106.488, 219.001 103.498 C 220.207 101.245, 220.105 100.741, 217.997 98.496 C 215.352 95.681, 213.348 95.378, 210.473 97.358 C 209.388 98.105, 206.813 99.025, 204.750 99.403 C 201.011 100.089, 201 100.080, 201 96.656 C 201 93.250, 201.055 93.208, 207.750 91.532 C 216.197 89.416, 222.889 86.452, 223.640 84.495 C 224.649 81.867, 223.132 78.381, 220.449 77.159 C 219.020 76.507, 217.482 76.202, 217.032 76.480 C 216.582 76.758, 213.279 77.601, 209.692 78.353 C 201.948 79.976, 201.894 79.659, 208.430 71 C 214.055 63.548, 216 60.353, 216 58.561 C 216 57.731, 217.350 56.353, 219 55.500 C 221.043 54.443, 222 53.199, 222 51.597 C 222 47.687, 219.769 46.743, 211.521 47.159 C 204.503 47.513, 204.051 47.413, 204.617 45.630 C 205.806 41.886, 205.176 30.918, 203.639 28.572 C 201.411 25.171, 198.385 24.765, 195.266 27.448 M 128 48.420 C 124.975 49.124, 118.067 50.529, 112.648 51.541 C 104.433 53.076, 102.532 53.785, 101.207 55.806 C 99.796 57.961, 99.783 58.524, 101.093 60.865 C 101.904 62.314, 103.599 63.648, 104.860 63.830 C 106.300 64.037, 106.960 64.661, 106.635 65.509 C 106.350 66.251, 105.827 68.577, 105.472 70.679 C 104.373 77.193, 99.568 90.209, 92.803 105 C 91.671 107.475, 90.181 111.075, 89.493 113 C 86.794 120.550, 76.378 139.330, 71.469 145.500 C 67.132 150.950, 66.387 153.665, 68.565 156.072 C 71.547 159.367, 75.089 158.504, 80.151 153.250 C 89.582 143.460, 100.020 124.097, 109.409 98.976 C 110.975 94.785, 111.556 94.280, 117.300 92.133 C 124.604 89.401, 134.880 84.495, 140.500 81.057 C 147.169 76.977, 149 74.920, 149 71.513 C 149 68.979, 150.155 67.276, 155 62.663 C 158.300 59.521, 160.998 56.174, 160.995 55.225 C 160.992 54.276, 159.911 52.150, 158.592 50.500 C 156.199 47.507, 156.166 47.500, 144.847 47.320 C 138.467 47.219, 131.092 47.700, 128 48.420 M 129.805 61.079 C 126.673 61.538, 122.623 62.298, 120.805 62.768 L 117.500 63.621 117.209 71.273 L 116.917 78.924 119.709 77.468 C 121.244 76.668, 122.864 76.010, 123.310 76.006 C 123.755 76.003, 127.917 74.187, 132.560 71.972 C 140.148 68.350, 141 67.663, 141 65.172 C 141 63.647, 141.540 61.860, 142.200 61.200 C 143.617 59.783, 138.955 59.737, 129.805 61.079 M 193.750 62.716 C 191.155 63.109, 191.001 63.425, 191.015 68.316 C 191.035 75.091, 192.152 76.943, 194.268 73.713 C 195.135 72.390, 196.643 69.551, 197.620 67.404 C 198.596 65.257, 199.568 63.163, 199.781 62.750 C 200.175 61.985, 198.637 61.976, 193.750 62.716 M 111.383 100.768 C 106.752 104.557, 106.042 111.674, 108.966 125 C 110.098 130.163, 110.471 133.873, 109.915 134.450 C 109.412 134.973, 109 136.859, 109 138.643 C 109 142.501, 111.946 145.004, 116.473 144.992 C 120.747 144.981, 133.748 141.688, 138.500 139.412 C 141.934 137.768, 142.543 136.990, 142.801 133.913 C 142.995 131.600, 142.553 129.874, 141.557 129.047 C 140.206 127.926, 140.631 127.090, 144.969 122.344 C 150.746 116.022, 152.077 111.631, 149.523 107.309 C 148.603 105.752, 146.670 103.920, 145.226 103.239 C 142.208 101.814, 132.676 101.582, 130.184 102.872 C 129.258 103.352, 126.377 104.052, 123.783 104.428 C 119.314 105.077, 119.033 104.979, 118.425 102.556 C 118.072 101.150, 117.419 100, 116.973 100 C 116.528 100, 115.564 99.783, 114.832 99.518 C 114.099 99.252, 112.547 99.815, 111.383 100.768 M 127.768 116.399 C 124.615 117.077, 121.835 117.831, 121.591 118.076 C 121.346 118.320, 121.401 121.328, 121.712 124.760 C 122.262 130.827, 122.357 131, 125.139 131 C 127.592 131, 128.001 130.608, 128.005 128.250 C 128.007 126.660, 129.167 124.220, 130.755 122.465 C 137.561 114.942, 137.530 114.990, 135.405 115.084 C 134.357 115.130, 130.920 115.722, 127.768 116.399 M 155.655 135.829 C 153.034 138.725, 153.698 143.482, 157.831 151.418 L 161.661 158.775 155.081 159.411 C 151.461 159.761, 139.725 160.477, 129 161.002 C 105.964 162.131, 87.591 164.296, 85.207 166.163 C 78.068 171.754, 80.749 178.053, 89.659 176.624 C 91.771 176.285, 100.250 175.561, 108.500 175.015 C 116.750 174.469, 124.400 173.791, 125.500 173.508 C 126.600 173.225, 138.075 172.549, 151 172.006 C 181.652 170.719, 200.542 169.089, 204.634 167.380 C 210.601 164.887, 211.641 159.293, 206.807 155.698 C 204.225 153.777, 204.005 153.767, 201.464 155.432 C 198.873 157.129, 197.364 157.306, 176.266 158.387 C 168.420 158.789, 168.080 158.719, 169.051 156.905 C 170.636 153.944, 169.066 145, 166.130 140.261 C 164.046 136.897, 160.056 134, 157.506 134 C 157.398 134, 156.565 134.823, 155.655 135.829 M 155.500 188.051 C 146.150 189.106, 134.090 190.730, 128.699 191.661 C 115.169 193.997, 111.627 197.462, 118.075 202.053 C 120.818 204.007, 122.031 204.186, 129.325 203.718 C 153.015 202.195, 175.866 198.329, 179.250 195.271 C 181.330 193.392, 181.540 189.693, 179.655 188.128 C 177.235 186.120, 172.743 186.106, 155.500 188.051 M 162 207.955 C 154.261 210.484, 142.153 213.028, 137.932 213.013 C 135.969 213.006, 132.083 213.677, 129.297 214.504 C 125.319 215.686, 124.133 216.524, 123.773 218.409 C 122.526 224.932, 127.276 226.526, 142.054 224.546 C 156.135 222.658, 164.055 220.610, 170.250 217.255 C 174.440 214.985, 175 214.292, 175 211.376 C 175 205.824, 171.412 204.880, 162 207.955 M 96.521 242.977 C 94.890 244.779, 94.835 245.725, 95.898 253.727 C 98.596 274.047, 99.789 280.109, 101.447 281.942 C 102.866 283.509, 102.952 284.220, 101.953 286.088 C 100.938 287.985, 101.032 288.550, 102.547 289.658 C 105.687 291.954, 109.910 292.170, 145.090 291.831 C 177.123 291.523, 179.776 291.362, 183.500 289.500 C 187.035 287.732, 187.482 287.114, 187.345 284.180 C 187.160 280.211, 184.487 277.837, 181 278.542 C 179.625 278.820, 165.450 279.451, 149.500 279.943 C 133.505 280.437, 119.238 281.323, 117.685 281.919 C 116.137 282.514, 113.269 283, 111.312 283 C 108.248 283, 107.929 282.790, 109.012 281.485 C 109.960 280.343, 110.096 276.932, 109.565 267.619 C 108.918 256.246, 109.006 255.205, 110.681 254.490 C 112.971 253.511, 184.659 252.526, 189.362 253.408 L 192.838 254.060 188.454 260.735 C 181.512 271.302, 181.557 276, 188.599 276 C 191.180 276, 192.346 275.366, 193.654 273.250 C 194.589 271.738, 197.053 268.700, 199.129 266.500 C 204.057 261.279, 207.349 253.868, 206.487 249.939 C 206.106 248.206, 204.345 245.840, 202.244 244.238 L 198.653 241.500 156.999 241.695 C 123.371 241.853, 114.525 242.173, 111.086 243.358 C 107.121 244.724, 106.693 244.693, 104.913 242.913 C 102.444 240.444, 98.788 240.472, 96.521 242.977" stroke="none" fill="black" fill-rule="evenodd"/>
</svg>