<svg xmlns="http://www.w3.org/2000/svg" width="300" height="300" viewBox="0 0 300 300" version="1.1">
	<path d="M 181.836 10.527 C 178.737 12.210, 177 18.449, 177 27.894 C 177 31.081, 176.711 38.411, 176.358 44.183 L 175.716 54.677 164.108 56.392 C 147.781 58.804, 143.954 59.804, 140.250 62.626 C 137.985 64.352, 137.005 65.920, 137.015 67.801 C 137.053 74.402, 140.731 75.456, 155.208 73.013 C 168.101 70.837, 188 69.144, 188 70.224 C 188 72.297, 179.594 87.221, 178.093 87.811 C 174.323 89.294, 163.972 96.587, 163.478 98.109 C 162.032 102.558, 168.194 105.677, 175.250 104.066 L 179 103.211 179 106.637 C 179 111.903, 181.226 116.046, 186.890 121.321 C 193.282 127.275, 199.499 130.110, 207.586 130.759 C 215.247 131.374, 225.658 128.479, 231.810 124.023 C 235.323 121.478, 236 120.434, 236 117.565 C 236 114.084, 233.912 111, 231.556 111 C 230.840 111, 228.135 111.938, 225.544 113.083 C 222.907 114.250, 217.614 115.410, 213.516 115.720 C 207.312 116.189, 205.510 115.941, 201.689 114.091 C 196.867 111.757, 194 106.914, 194 101.105 C 194 98.686, 194.495 98.151, 197.238 97.602 C 199.020 97.246, 203.066 97.248, 206.231 97.606 C 212.696 98.337, 215 97.237, 215 93.417 C 215 88.882, 207.402 84, 200.346 84 C 196.395 84, 196 83.776, 196 81.538 C 196 78.294, 199.877 68, 201.099 68 C 201.624 68, 210.859 67.292, 221.621 66.427 C 232.383 65.563, 241.404 65.071, 241.668 65.335 C 242.284 65.951, 239.531 71.313, 235.793 76.776 C 232.342 81.821, 232.471 84.857, 236.225 86.958 C 238.702 88.344, 239.247 88.321, 242.225 86.712 C 245.921 84.714, 253.880 73.500, 256.534 66.550 C 258.068 62.534, 258.109 61.573, 256.885 58.358 C 256.123 56.354, 254.228 53.766, 252.676 52.607 C 249.002 49.864, 239.328 49.814, 210.218 52.388 C 198.513 53.423, 188.785 54.096, 188.600 53.885 C 188.415 53.673, 188.712 50.575, 189.260 47 L 190.256 40.500 194.378 40.463 C 196.945 40.440, 201.566 39.025, 206.626 36.713 C 213.086 33.761, 215.966 33, 220.676 33 C 228.972 33, 231.020 30.228, 227.334 23.988 C 225.297 20.540, 218.845 18.474, 212.736 19.315 C 207.173 20.080, 198.138 23.855, 195.010 26.719 C 191.857 29.608, 190.631 29.618, 191.336 26.750 C 191.640 25.512, 192.165 22.250, 192.503 19.500 C 193.040 15.140, 192.808 14.148, 190.693 11.750 C 187.991 8.686, 185.786 8.382, 181.836 10.527 M 77.612 33.876 C 75.639 36.056, 74.486 41.873, 75.367 45.196 C 75.704 46.463, 77.387 49.075, 79.109 51 C 80.830 52.925, 83.820 56.419, 85.751 58.764 C 87.683 61.109, 90.348 63.300, 91.672 63.633 C 95.199 64.518, 98 61.572, 98 56.977 C 98 53.538, 94.302 46.823, 85.485 34.250 C 83.564 31.511, 79.910 31.338, 77.612 33.876 M 94.500 68.657 C 92.850 68.863, 86.550 69.928, 80.500 71.025 C 74.450 72.121, 61.755 73.899, 52.289 74.976 C 31.598 77.330, 29.031 78.381, 29.031 84.500 C 29.031 91.601, 32.127 92.409, 51.825 90.443 C 60.446 89.582, 73.125 87.717, 80 86.298 C 86.875 84.879, 94.887 83.367, 97.805 82.938 C 105.219 81.847, 108 79.819, 108 75.500 C 108 70.414, 102.552 67.652, 94.500 68.657 M 137.750 79.077 C 135.538 80.369, 135.505 83.849, 137.676 86.948 C 141.708 92.705, 143.361 130.936, 140.533 153.038 C 138.544 168.586, 137.720 173.314, 132.958 196.500 C 126.906 225.964, 125.414 232.166, 120.928 246.500 C 113.929 268.863, 110.863 276.200, 106.790 280.327 C 102.879 284.290, 103.105 287.606, 107.428 289.667 C 111.183 291.458, 114.279 290.746, 118.714 287.072 C 121.299 284.930, 130.525 265.766, 132.469 258.500 C 133.204 255.750, 134.489 251.475, 135.324 249 C 136.683 244.970, 141.926 225.418, 143.368 219 L 143.930 216.500 159.307 216.359 L 174.685 216.218 174.212 228.484 C 173.761 240.184, 173.864 241.023, 176.428 246.623 C 179.753 253.887, 182.205 256.555, 187.850 259.052 C 199.650 264.272, 226.857 258.763, 242.528 247.981 C 247.799 244.354, 249.462 239.273, 246.464 235.960 C 244.036 233.277, 242.437 233.461, 232.981 237.508 C 223.930 241.382, 205.455 246, 199.006 246 C 191.646 246, 189.504 243.740, 187.978 234.367 C 187.112 229.042, 188.102 215.565, 189.460 214.207 C 190.131 213.536, 199.027 212.097, 219 209.429 C 248.314 205.513, 276.019 201.019, 279.306 199.645 C 281.252 198.832, 283.542 197.103, 284.394 195.802 C 287.568 190.957, 282.774 184.009, 277.599 185.953 C 276.444 186.387, 266.275 187.945, 255 189.416 C 236.616 191.814, 199.644 197.275, 192.895 198.588 L 190.291 199.095 189.606 187.798 C 188.850 175.299, 187.712 170.487, 185.296 169.560 C 182.611 168.530, 179 172.803, 179 177.011 C 179 180.940, 176.314 200.020, 175.670 200.663 C 175.457 200.876, 169.430 201.469, 162.277 201.980 C 155.123 202.491, 148.647 203.043, 147.885 203.205 C 146.123 203.580, 146.135 203.472, 149.900 185.051 C 156.349 153.500, 158.038 133.311, 156.139 110.500 C 154.687 93.061, 153.006 87.515, 147.727 82.750 C 145.442 80.688, 143.255 79, 142.868 79 C 142.481 79, 141.564 78.787, 140.832 78.527 C 140.099 78.267, 138.713 78.514, 137.750 79.077 M 89.500 104.046 C 87.300 104.501, 81.675 106.217, 77 107.859 C 43.213 119.732, 42 120.296, 42 124.132 C 42 127.793, 46.694 129.507, 56.457 129.411 C 64.753 129.330, 66.326 128.972, 75.500 125.082 C 94.387 117.073, 100.809 113.715, 101.926 111.263 C 103.363 108.109, 103.305 107.657, 101.133 105.153 C 99.147 102.863, 96.459 102.608, 89.500 104.046 M 92.874 126.399 C 91.514 127.759, 87.448 129.661, 83.487 130.791 C 72.554 133.908, 54.578 138, 51.815 138 C 45.791 138, 43.576 146.518, 48.499 150.753 C 52.025 153.786, 55.425 153.558, 73.500 149.080 C 91.350 144.657, 94.919 143.254, 99.250 138.956 C 103.837 134.404, 104.275 130.184, 100.545 126.455 C 97.471 123.380, 95.904 123.369, 92.874 126.399 M 234.917 148.417 C 234.688 148.646, 224.600 149.776, 212.500 150.929 C 182.297 153.807, 178.969 154.406, 176.333 157.431 C 171.773 162.666, 176.781 168, 186.256 168 C 206.172 168, 242.279 162.721, 246.250 159.229 C 250.847 155.186, 246.228 148, 239.032 148 C 236.998 148, 235.146 148.187, 234.917 148.417 M 48 177.825 C 46.049 178.475, 44.549 180.485, 41.922 185.973 C 38.938 192.204, 38.390 203.020, 40.320 217.574 C 41.189 224.133, 42.141 233.956, 42.434 239.403 C 43.023 250.351, 44.302 253, 49 253 C 50.480 253, 52.547 252.048, 53.595 250.883 C 55.314 248.973, 55.489 247.178, 55.392 232.481 C 55.332 223.524, 54.988 213.964, 54.626 211.236 L 53.968 206.276 58.389 205.670 C 60.820 205.337, 65.851 203.671, 69.568 201.969 C 76.699 198.703, 90.308 194, 92.628 194 C 93.382 194, 93.991 194.563, 93.980 195.250 C 93.940 197.836, 91.181 211.750, 89.433 218.183 C 87.966 223.583, 87.844 225.362, 88.797 227.453 C 91.126 232.565, 98.323 232.677, 100.856 227.640 C 106.674 216.073, 110.798 199.066, 109.484 192.062 C 107.743 182.780, 102.956 179.009, 92.907 179.004 C 86.194 179, 79.816 180.719, 70.500 185.041 C 66.731 186.790, 53.249 191.964, 52.379 191.996 C 52.313 191.998, 52.664 189.863, 53.160 187.250 C 54.595 179.690, 52.715 176.255, 48 177.825 M 93 236.542 C 89.975 237.240, 82.561 238.841, 76.524 240.098 C 64.992 242.500, 62.024 244.253, 59.834 249.961 C 56.561 258.486, 66.231 261.350, 78.159 255.388 C 80.721 254.107, 86.346 252.117, 90.659 250.965 C 102.840 247.713, 106.896 244.704, 105.671 239.826 C 105.122 237.640, 101.151 234.760, 99.203 235.136 C 98.816 235.210, 96.025 235.843, 93 236.542" stroke="none" fill="black" fill-rule="evenodd"/>
</svg>