<svg xmlns="http://www.w3.org/2000/svg" width="300" height="300" viewBox="0 0 300 300" version="1.1">
	<path d="M 172.633 9.477 C 169.996 11.475, 169.330 18.794, 171.393 23.108 C 173.522 27.562, 182.719 38.293, 185.232 39.256 C 186.374 39.693, 188.320 39.464, 189.852 38.713 C 192.118 37.602, 192.465 36.854, 192.260 33.532 C 192.127 31.396, 191.170 28.716, 190.133 27.575 C 187.478 24.654, 183.433 17.964, 182.531 15 C 181.537 11.734, 178.070 7.992, 176.076 8.032 C 175.209 8.049, 173.660 8.700, 172.633 9.477 M 224.500 38.608 C 211.865 40.511, 188.393 41.958, 154 42.954 C 133.217 43.556, 122.894 44.251, 119.065 45.306 C 114.157 46.658, 113.392 46.648, 111.185 45.202 C 108.874 43.688, 108.640 43.726, 106.871 45.911 C 104.505 48.833, 104.515 49.031, 107.481 57.770 C 108.839 61.769, 110.934 70.769, 112.137 77.770 C 114.117 89.288, 114.327 94.022, 114.339 127.500 C 114.349 155.725, 113.971 167.465, 112.743 177 C 111.858 183.875, 110.876 192.200, 110.559 195.500 C 110.243 198.800, 109.556 204.650, 109.032 208.500 C 103.086 252.166, 102.292 256.224, 97.716 266.339 C 94.515 273.415, 94.595 275.081, 98.252 277.387 C 100.432 278.762, 103.890 276.845, 106.687 272.711 C 109.961 267.871, 115.613 249.775, 117.372 238.500 C 118.231 233, 119.656 222.425, 120.540 215 C 121.424 207.575, 122.785 196.550, 123.565 190.500 C 129.433 144.994, 127.863 79.197, 120.446 59.750 L 119.016 56 144.758 55.996 C 182.919 55.990, 218.484 53.190, 235.323 48.865 C 238.229 48.119, 239.469 47.119, 240.497 44.692 C 241.727 41.788, 241.659 41.297, 239.750 39.250 C 237.400 36.730, 237.063 36.716, 224.500 38.608 M 60.250 43.505 C 56.946 45.867, 57.450 49.425, 62.070 56.343 C 65.412 61.347, 66.034 63.008, 65.543 65.621 C 65.128 67.833, 65.433 69.290, 66.545 70.402 C 71.847 75.704, 78.580 66.472, 76.458 56.810 C 75.791 53.771, 71.972 47.054, 69.310 44.237 C 67.308 42.118, 62.709 41.747, 60.250 43.505 M 165.750 63.080 C 161.627 65.482, 164.972 75.183, 171.241 79.005 C 174.874 81.221, 180.961 81.639, 182.800 79.800 C 185.158 77.442, 184.170 74.033, 180.500 71.867 C 178.575 70.732, 177 69.431, 177 68.978 C 177 68.524, 175.835 66.769, 174.411 65.077 C 171.757 61.922, 168.878 61.258, 165.750 63.080 M 203.338 62.694 C 202.150 62.926, 196.975 67.256, 191.838 72.316 C 186.702 77.376, 180.823 82.397, 178.773 83.473 C 176.569 84.630, 174.649 86.569, 174.075 88.215 C 173.182 90.777, 172.691 91, 167.934 91 C 165.090 91, 158.879 91.728, 154.132 92.617 C 149.384 93.507, 144.488 94.415, 143.250 94.636 C 140.004 95.216, 140.118 100.376, 143.423 102.542 C 145.458 103.875, 147.741 104.018, 157.673 103.437 L 169.500 102.744 169 110.122 L 168.500 117.500 158.500 117.577 C 145.722 117.676, 146.455 117.488, 144.979 121.050 C 142.257 127.623, 147.465 131, 160.321 131 L 168 131 168 137 C 168 140.300, 167.887 143.033, 167.750 143.074 C 167.613 143.114, 160.294 143.488, 151.487 143.905 C 133.922 144.737, 130.152 145.784, 128.575 150.268 C 127.804 152.460, 127.963 153.390, 129.347 154.766 C 130.889 156.300, 133.221 156.479, 149.545 156.322 L 168 156.144 168 160.428 L 168 164.711 161.355 165.331 C 153.555 166.060, 151 167.853, 151 172.598 C 151 177.249, 153.914 179, 161.652 179 L 167.858 179 168.179 188.046 C 168.497 197.002, 168.475 197.097, 166 197.598 C 164.625 197.876, 162.150 198.792, 160.500 199.633 C 156.484 201.680, 144.484 217.249, 137.918 228.933 C 136.660 231.170, 135.265 233, 134.816 233 C 134.367 233, 134 233.873, 134 234.941 C 134 236.009, 133.586 237.138, 133.081 237.450 C 131.444 238.462, 125 250.763, 125 252.877 C 125 255.094, 127.689 257, 130.818 257 C 133.061 257, 138.218 251.596, 143.362 243.857 C 151.176 232.100, 158.748 221.106, 163.500 214.616 L 168.500 207.788 169.250 216.644 C 169.662 221.515, 170.409 230.339, 170.909 236.253 C 171.996 249.103, 173.880 253.331, 178.732 253.808 C 183.712 254.298, 184.416 251.870, 183.137 238.619 C 182.547 232.504, 181.795 216.198, 181.467 202.384 L 180.870 177.267 183.185 176.647 C 184.458 176.306, 187.404 176.021, 189.731 176.014 C 193.321 176.002, 194.032 176.341, 194.423 178.250 C 195.593 183.967, 198.132 233.722, 197.840 245.214 C 197.571 255.791, 197.778 258.249, 199.006 259.025 C 201.313 260.483, 201.952 260.248, 205.600 256.600 L 209 253.200 209 230.100 C 209 216.958, 209.391 207, 209.906 207 C 210.405 207, 213.667 210.064, 217.156 213.809 C 229.543 227.103, 245.932 240.817, 257 247.148 C 264.437 251.401, 277.596 256, 282.331 256 C 287.889 256, 292 252.400, 292 247.533 C 292 243.547, 288.067 240.853, 285.024 242.753 C 281.114 245.195, 267.501 238.631, 251.500 226.588 C 247.100 223.277, 242.600 219.724, 241.500 218.693 C 240.400 217.662, 235.900 214.144, 231.500 210.875 C 227.100 207.605, 222.825 204.380, 222 203.709 C 221.175 203.037, 218.412 201.140, 215.860 199.494 C 213.309 197.847, 210.532 196.050, 209.690 195.500 C 208.526 194.740, 208.080 192.119, 207.829 184.578 L 207.500 174.655 212.283 173.423 C 218.577 171.801, 220.177 170.355, 219.855 166.579 C 219.708 164.845, 220.774 160.933, 222.297 157.626 C 223.783 154.395, 225 151.384, 225 150.935 C 225 149.473, 227.021 148.810, 234.236 147.904 C 242.814 146.827, 246 145.005, 246 141.177 C 246 136.901, 244.331 136, 236.409 136 L 229.218 136 229.359 128.084 C 229.486 120.926, 229.260 119.907, 227 117.455 C 223.471 113.626, 219.010 112, 212.032 112 C 206.603 112, 206 111.794, 206 109.934 C 206 108.798, 206.466 106.998, 207.035 105.934 C 207.754 104.591, 207.743 103.388, 207 102 C 206.411 100.900, 206.283 99.997, 206.715 99.992 C 207.147 99.988, 211.272 99.551, 215.882 99.021 C 226.228 97.832, 229.238 96.124, 228.809 91.688 C 228.373 87.192, 223.059 85.440, 214.418 86.942 C 211.073 87.524, 204.998 87.995, 200.918 87.989 L 193.500 87.978 196.753 85.414 C 198.542 84.004, 202.036 80.005, 204.518 76.526 C 207.001 73.048, 209.699 69.946, 210.516 69.632 C 212.549 68.852, 212.386 65.013, 210.250 63.392 C 208.482 62.050, 207.268 61.927, 203.338 62.694 M 50.769 78.348 C 42.021 80.657, 34.281 83.264, 33.334 84.220 C 31.816 85.753, 31.787 86.234, 33.065 88.625 C 35.507 93.193, 39.849 94.319, 48.293 92.573 C 52.257 91.753, 59.001 89.939, 63.281 88.541 C 67.560 87.144, 72.523 86, 74.308 86 C 81.426 86, 84.446 80.069, 79.365 76.073 C 75.479 73.016, 69.023 73.529, 50.769 78.348 M 182 108.625 L 182 115.250 185.125 114.625 C 186.844 114.281, 189.544 114, 191.125 114 C 193.734 114, 194 113.682, 194 110.565 C 194 108.676, 194.439 105.976, 194.975 104.565 L 195.950 102 188.975 102 L 182 102 182 108.625 M 57.500 106.963 C 53.650 108.483, 49.350 110.194, 47.944 110.765 C 43.916 112.401, 39 116.990, 39 119.114 C 39 121.812, 43.428 123.294, 49.645 122.677 C 54.588 122.186, 69.098 115.738, 73.250 112.187 C 75.269 110.460, 75.546 106.946, 73.800 105.200 C 71.858 103.258, 65.010 103.999, 57.500 106.963 M 205.375 129.125 C 205.719 130.844, 206 133.544, 206 135.125 C 206 137.598, 206.384 137.998, 208.750 137.985 C 212.846 137.962, 213.638 137.015, 214.387 131.250 L 215.069 126 209.909 126 L 204.750 126 205.375 129.125 M 186.250 128.272 L 181 129.281 181 135.141 C 181 141.652, 181.087 141.707, 189.250 140.358 L 193 139.738 193 133.369 C 193 129.866, 192.662 127.059, 192.250 127.131 C 191.838 127.204, 189.137 127.717, 186.250 128.272 M 61.500 129.737 C 59.300 130.635, 57.350 131.737, 57.167 132.185 C 56.983 132.633, 56.368 133, 55.799 133 C 55.230 133, 53.252 134.328, 51.403 135.951 C 49.555 137.574, 46.447 139.201, 44.497 139.567 C 41.036 140.216, 38 143.114, 38 145.768 C 38 146.496, 39.105 148.195, 40.455 149.545 C 44.847 153.938, 51.756 152.226, 61.069 144.439 C 63.506 142.401, 66.625 140.257, 68 139.674 C 74.132 137.073, 75.578 133.578, 72 130 C 69.609 127.609, 66.876 127.541, 61.500 129.737 M 207.750 150.689 C 206.382 151.047, 206 152.222, 206 156.073 C 206 158.783, 206.219 161, 206.487 161 C 206.988 161, 209.234 155.990, 210.448 152.163 C 211.141 149.980, 210.922 149.860, 207.750 150.689 M 185.750 153.216 L 181 154.216 181 159.233 L 181 164.250 184.125 163.625 C 185.844 163.281, 188.792 163, 190.677 163 L 194.105 163 193.802 157.759 C 193.461 151.845, 193.135 151.661, 185.750 153.216 M 66.500 172.965 C 63.200 173.961, 57.444 176.166, 53.710 177.864 C 48.191 180.374, 46.815 180.682, 46.365 179.509 C 46.061 178.715, 46.018 177.489, 46.271 176.783 C 47.002 174.740, 45.109 172, 42.965 172 C 35.365 172, 30.836 193.406, 33.067 218.775 C 34.292 232.696, 35.099 235.995, 37.285 236.006 C 37.953 236.010, 39.267 237.360, 40.203 239.006 C 41.734 241.695, 42.408 242, 46.831 242 C 49.540 242, 53.362 241.329, 55.324 240.509 C 57.580 239.567, 59.118 239.383, 59.506 240.009 C 60.426 241.499, 65.774 241.201, 69.455 239.454 C 71.247 238.604, 74.686 235.649, 77.099 232.887 C 81.342 228.029, 81.492 227.629, 81.697 220.617 C 81.814 216.631, 82.830 208.257, 83.955 202.010 C 87.465 182.514, 86.202 175.654, 78.510 172.440 C 74.314 170.686, 73.999 170.700, 66.500 172.965 M 64.500 188.572 C 62.300 189.360, 59.600 190.405, 58.500 190.896 C 57.400 191.387, 54.250 192.704, 51.500 193.822 L 46.500 195.855 46.225 211.928 C 45.910 230.376, 45.332 229.498, 55.500 226 C 58.697 224.900, 62.122 224, 63.111 224 C 65.125 224, 65.054 224.325, 67.400 204.500 C 68.246 197.350, 69.230 190.488, 69.586 189.250 C 70.329 186.669, 69.957 186.619, 64.500 188.572" stroke="none" fill="black" fill-rule="evenodd"/>
</svg>