<svg xmlns="http://www.w3.org/2000/svg" width="300" height="300" viewBox="0 0 300 300" version="1.1">
	<path d="M 250.500 25.022 C 239.707 27.203, 187.063 32.722, 156.210 34.908 C 144.215 35.758, 141.437 36.265, 138.906 38.067 C 136.357 39.882, 135.939 40.774, 136.196 43.849 C 136.689 49.741, 139.516 50.517, 155.418 49.124 C 227.178 42.836, 256.038 39.069, 258.903 35.617 C 259.418 34.997, 260.143 33.276, 260.515 31.795 C 261.044 29.690, 260.634 28.543, 258.641 26.550 C 257.239 25.148, 255.733 24.048, 255.295 24.107 C 254.858 24.166, 252.700 24.578, 250.500 25.022 M 111.902 49.588 C 105.509 52.973, 84.662 56.615, 65.685 57.662 C 51.915 58.422, 49 59.792, 49 65.501 C 49 72.486, 53.295 73.872, 68.432 71.773 C 74.519 70.928, 79.617 70.338, 79.760 70.462 C 79.903 70.585, 79.003 71.808, 77.760 73.179 C 76.517 74.549, 73.025 78.497, 70 81.952 C 66.975 85.406, 63.590 89.192, 62.478 90.366 C 61.366 91.540, 59.366 94.075, 58.032 96 C 53.476 102.579, 43.506 114.458, 35.571 122.764 C 26.223 132.548, 23 137.031, 23 140.247 C 23 143.479, 24.805 145, 28.640 145 C 31.382 145, 33.785 143.244, 44.247 133.596 C 51.049 127.323, 60.391 117.429, 65.007 111.610 L 73.401 101.028 76.191 105.318 C 77.726 107.677, 79.852 113.010, 80.915 117.169 L 82.849 124.730 76.675 131.118 C 69.079 138.975, 66.993 141.648, 60.764 151.500 C 60.069 152.600, 57.662 156.200, 55.416 159.500 C 48.613 169.494, 45.681 175.594, 46.367 178.326 C 47.070 181.125, 51.036 182.586, 53.848 181.081 C 56.650 179.582, 66.861 167.575, 73.500 157.974 C 76.800 153.202, 81.144 147.400, 83.153 145.082 L 86.806 140.867 87.903 145.983 C 89.453 153.212, 89.353 153.801, 86 157.154 C 82.618 160.536, 82.269 162.534, 84.606 165.118 C 86.087 166.753, 86.058 167.113, 84.249 169.696 C 83.169 171.238, 82.109 172.970, 81.893 173.544 C 81.274 175.189, 71.135 191.076, 67.880 195.500 C 66.262 197.700, 64.546 200.400, 64.067 201.500 C 62.442 205.233, 52.234 218.188, 45.464 225.109 C 40.374 230.312, 38.052 232, 35.984 232 C 32.529 232, 30.763 234.082, 31.178 237.666 C 31.628 241.558, 35.214 243.229, 41.500 242.478 C 47.719 241.735, 48.587 241.163, 58.775 231.106 C 66.426 223.553, 77.944 207.850, 89.247 189.562 L 92.994 183.500 93.018 199 C 93.032 207.525, 92.256 222.087, 91.295 231.361 C 89.634 247.386, 89.431 248.266, 87.198 249.115 C 83.570 250.494, 82 252.568, 82 255.978 C 82 265.523, 92.109 270.106, 98.212 263.328 C 102.725 258.315, 105.246 244.706, 107.025 215.758 C 108.115 198.027, 107.389 180.011, 104.999 165.500 C 103.645 157.274, 103.689 156.902, 106.402 153.511 L 108.793 150.521 110.841 155.011 C 111.967 157.480, 113.121 160.634, 113.405 162.020 C 114.753 168.585, 129.233 184, 134.052 184 C 135.123 184, 136.014 184.338, 136.032 184.750 C 136.090 186.102, 128.955 225.105, 125.285 243.500 C 123.309 253.400, 121.317 264.200, 120.856 267.500 C 120.396 270.800, 119.087 276.097, 117.949 279.270 C 115.564 285.915, 116.051 288.724, 119.747 289.651 C 123.388 290.565, 127.127 288.233, 129.375 283.648 C 131.137 280.053, 139.018 248.255, 138.954 245 C 138.938 244.175, 140.733 234.950, 142.944 224.500 C 147.851 201.303, 153.664 167.014, 154.980 153.500 C 155.516 148, 157.552 131.575, 159.505 117 C 164.543 79.394, 164.369 68.349, 158.559 57.114 C 156.895 53.896, 153.774 52.963, 152.327 55.250 C 151.892 55.938, 151.671 60.100, 151.835 64.500 C 152.030 69.717, 151.053 79.805, 149.026 93.500 C 147.317 105.050, 145.508 118.775, 145.006 124 C 144.212 132.263, 140.034 160.260, 138.400 168.260 L 137.837 171.020 135.086 169.061 C 132.600 167.291, 123 154.149, 123 152.516 C 123 152.146, 121.153 150.069, 118.895 147.900 L 114.791 143.956 118.766 138.728 C 124.152 131.645, 132 116.279, 132 112.815 C 132 109.472, 128.865 106, 125.845 106 C 122.874 106, 116.636 112.830, 113.102 119.952 C 110.077 126.050, 102.678 137.463, 101.130 138.420 C 100.646 138.719, 99.953 137.059, 99.591 134.732 C 99.229 132.404, 97.366 125.550, 95.453 119.500 C 93.539 113.450, 91.452 106.798, 90.816 104.718 C 90.180 102.638, 88.161 98.662, 86.329 95.881 C 84.498 93.100, 83 90.371, 83 89.816 C 83 89.261, 84.735 86.836, 86.855 84.427 C 88.975 82.019, 91.513 77.900, 92.496 75.274 C 94.906 68.829, 95.707 68, 99.519 68 C 103.352 68, 116.279 62.958, 119.207 60.322 C 122.177 57.647, 123.211 54.269, 121.850 51.685 C 119.748 47.690, 116.699 47.048, 111.902 49.588 M 200.561 65.165 C 195.313 67.932, 186.537 75.248, 175.136 86.361 C 161.791 99.368, 160.758 101.301, 165.491 104.402 C 167.694 105.846, 168.373 105.871, 171.368 104.619 L 174.755 103.204 175.178 127.220 C 175.568 149.340, 175.751 151.345, 177.492 152.618 C 180.308 154.677, 183.372 154.297, 185.932 151.573 C 187.822 149.561, 188.304 147.677, 188.747 140.573 L 189.282 132 204.130 132 C 216.276 132, 219.885 131.656, 223.959 130.107 L 228.940 128.215 227.360 131.270 C 226.491 132.950, 224.219 135.933, 222.311 137.897 C 219.745 140.540, 218.941 142.148, 219.224 144.075 C 219.584 146.526, 219.254 146.754, 213.689 147.903 C 210.435 148.576, 207.036 149.550, 206.136 150.068 C 205.236 150.586, 200.492 152.345, 195.593 153.976 C 183.878 157.877, 179 161.086, 179 164.892 C 179 168.120, 180.251 169.426, 184.266 170.385 C 187.389 171.131, 196.372 169.050, 203.350 165.963 C 210.546 162.780, 216.917 161.033, 216.450 162.371 C 216.233 162.992, 215.113 168.900, 213.960 175.500 C 212.288 185.076, 211.686 194.469, 210.977 222 C 209.936 262.390, 209.211 268.731, 204.932 274.859 C 201.128 280.305, 201.266 284.032, 205.323 285.450 C 212.174 287.846, 220.622 277.787, 223.423 263.900 C 224.529 258.414, 225.131 246.593, 225.587 221.400 C 226.292 182.474, 225.271 163.402, 222.367 161.279 C 220.544 159.946, 220.817 159.754, 226.235 158.568 C 229.443 157.866, 230.762 154.293, 229.017 151.032 C 227.980 149.094, 228.522 148.219, 234.401 142.340 C 250.973 125.768, 257.229 101.145, 247.314 91.516 C 241.841 86.201, 238.232 86.154, 213.119 91.070 C 196.181 94.385, 190.795 95.822, 188.244 97.706 C 184.978 100.118, 183 100.052, 183 97.532 C 183 95.294, 200.911 81.376, 209.500 76.940 C 212.481 75.400, 215.062 73.203, 215.891 71.499 C 217.212 68.784, 217.123 68.499, 214.125 65.820 C 210.305 62.407, 206.171 62.208, 200.561 65.165 M 232.500 101.780 C 230.850 101.973, 225.900 103.248, 221.500 104.613 C 215.456 106.488, 210.256 107.242, 200.230 107.698 C 188.711 108.222, 187.022 108.512, 187.427 109.901 C 187.684 110.780, 188.198 113.214, 188.569 115.310 C 189.107 118.342, 189.577 118.973, 190.873 118.399 C 191.768 118.003, 197.225 117.569, 203 117.435 C 208.775 117.301, 217.146 116.889, 221.601 116.519 C 228.418 115.952, 229.966 116.108, 231.363 117.506 C 232.910 119.053, 233.157 118.871, 234.990 114.833 C 236.928 110.562, 237.711 102.445, 236.250 101.773 C 235.838 101.584, 234.150 101.587, 232.500 101.780 M 236.200 200.200 C 233.883 202.517, 235.688 208.838, 239.590 212.073 C 241.484 213.643, 250.210 224.394, 256.571 232.996 C 262.388 240.862, 279.885 259.244, 283.134 260.904 C 285.552 262.138, 286.190 262.105, 288.441 260.631 C 293.132 257.557, 291.748 253.860, 280.162 238.501 C 276.014 233.001, 271.017 226.747, 269.060 224.602 C 262.494 217.410, 245.937 201.537, 243.707 200.298 C 240.867 198.719, 237.722 198.678, 236.200 200.200 M 186.946 204.833 C 181.066 210.901, 178.426 215.100, 175.211 223.500 C 171.618 232.887, 168.434 240.776, 165.771 246.890 C 162.326 254.797, 163.568 260.034, 168.872 259.967 C 170.318 259.948, 172.421 259.161, 173.547 258.217 C 176.536 255.710, 186.192 236.348, 191.360 222.500 C 197.231 206.763, 197.257 206.657, 195.870 203.615 C 194.219 199.990, 191.247 200.396, 186.946 204.833" stroke="none" fill="black" fill-rule="evenodd"/>
</svg>