<svg xmlns="http://www.w3.org/2000/svg" width="300" height="300" viewBox="0 0 300 300" version="1.1">
	<path d="M 172.899 24.181 C 168.302 25.748, 168.057 28.607, 167.769 84.193 L 167.500 135.886 165.250 137.982 C 163.454 139.655, 163 141.166, 163 145.472 C 163 150.193, 162.720 150.952, 160.750 151.558 C 159.512 151.939, 154.395 153.995, 149.379 156.126 C 144.362 158.257, 139.042 160, 137.557 160 C 131.791 160, 129.869 166.558, 134.706 169.727 C 138.806 172.413, 147.700 171.834, 158.524 168.178 C 165.335 165.877, 168.595 165.270, 171.814 165.702 C 175.297 166.169, 176.500 165.879, 178.373 164.119 C 180.064 162.531, 184.933 161.052, 196.898 158.492 C 233.794 150.597, 245.808 145.705, 247.527 137.876 C 249.008 131.135, 238.614 126.812, 234.333 132.389 C 232.278 135.066, 222.063 138.022, 199.500 142.466 C 192.350 143.874, 185.650 145.296, 184.611 145.625 C 182.809 146.195, 182.744 145.633, 183.211 133.513 C 183.568 124.234, 184.071 120.574, 185.074 119.954 C 185.830 119.487, 189.610 118.600, 193.474 117.983 C 202.092 116.607, 211.478 113.655, 219.750 109.720 C 225.929 106.781, 226 106.700, 225.992 102.624 C 225.986 99.127, 225.575 98.310, 223.293 97.250 C 221.812 96.562, 219.798 96, 218.817 96 C 215.389 96, 194.541 102.125, 189.709 104.552 C 187.029 105.899, 184.633 107, 184.386 107 C 184.139 107, 184.063 101.712, 184.218 95.250 L 184.500 83.500 187.500 83.191 C 194.766 82.441, 214.126 77.558, 220.822 74.785 C 229.445 71.215, 231.410 68.366, 228.209 64.079 C 227.170 62.687, 225.244 61.294, 223.929 60.983 C 221.570 60.426, 204.160 64.834, 192.593 68.915 C 183.658 72.069, 184 72.379, 184 61.118 L 184 51.236 197.546 48.618 C 204.996 47.178, 213.658 45.955, 216.796 45.900 C 224.662 45.763, 227.288 44.855, 228.781 41.756 C 230.611 37.960, 229.384 34.410, 225.627 32.627 C 222.950 31.357, 220.105 31.253, 207.968 31.981 C 200.011 32.459, 192.825 33.070, 192 33.338 C 191.175 33.607, 189.074 34.072, 187.331 34.372 C 184.299 34.894, 184.133 34.749, 183.504 31.023 C 182.596 25.651, 177.753 22.527, 172.899 24.181 M 100.093 31.247 C 93.653 32.932, 80.997 42.731, 78.083 48.289 C 76.317 51.659, 76.257 56.400, 77.956 58.447 C 80.455 61.458, 84.432 60.249, 92.580 54.002 C 96.984 50.625, 100.781 48.381, 101.269 48.869 C 101.745 49.345, 102.252 61.210, 102.397 75.236 L 102.660 100.738 94.983 101.264 C 83.872 102.025, 78.329 105.200, 77.326 111.377 C 76.130 118.749, 83.295 120.919, 95.843 116.986 C 99.332 115.892, 102.559 115.228, 103.015 115.509 C 103.470 115.791, 104.111 119.054, 104.438 122.761 C 104.766 126.467, 105.222 131.566, 105.451 134.090 L 105.868 138.681 100.184 138.643 C 95.952 138.616, 92.201 139.518, 85.500 142.176 C 80.550 144.140, 75.713 146.015, 74.750 146.342 C 73.201 146.869, 72.995 146.167, 72.954 140.219 C 72.928 136.523, 72.522 115.050, 72.051 92.500 C 71.314 57.204, 70.953 50.897, 69.455 47.165 C 66.764 40.461, 60.571 39.340, 59.480 45.360 C 59.167 47.087, 59.044 80.988, 59.206 120.697 C 59.437 177.437, 59.232 193.161, 58.250 194.147 C 57.562 194.836, 57 197.548, 57 200.174 C 57 204.483, 56.703 205.102, 53.957 206.522 C 49.606 208.772, 48.250 212.206, 50.410 215.504 C 53.941 220.892, 58.570 221.004, 70.854 215.997 C 79.662 212.407, 80.750 212.302, 78.612 215.250 C 77.714 216.488, 76.584 218.400, 76.099 219.500 C 75.615 220.600, 71.346 228.025, 66.612 236 C 58.002 250.507, 56.455 255.055, 59.200 257.800 C 61.118 259.718, 65.494 259.191, 67.914 256.750 C 69.141 255.512, 73.472 249.775, 77.538 244 C 81.605 238.225, 85.526 232.658, 86.251 231.628 C 87.480 229.885, 88.210 230.346, 96.872 238.329 C 107.117 247.771, 112.657 250.662, 118.428 249.579 C 121.970 248.915, 125.028 245.851, 124.967 243.027 C 124.911 240.469, 121.326 237, 118.737 237 C 117.064 237, 114.683 235.268, 111.176 231.500 C 108.360 228.475, 105.790 226, 105.464 226 C 105.138 226, 103.735 224.650, 102.347 223 C 100.958 221.350, 99.300 219.993, 98.661 219.985 C 98.022 219.976, 96.898 219.588, 96.163 219.122 C 95.138 218.472, 96.094 216.508, 100.261 210.700 C 105.295 203.684, 105.817 203.246, 107.334 204.762 C 108.251 205.680, 110.573 206.400, 112.612 206.400 C 117.460 206.400, 121.392 202.061, 122.895 195.052 C 124.576 187.217, 124.223 165.124, 121.935 134.835 C 120.799 119.801, 119.464 94.450, 118.968 78.500 C 118.473 62.550, 117.676 47.381, 117.198 44.792 C 115.334 34.688, 108.283 29.105, 100.093 31.247 M 100 151.038 C 98.075 151.498, 93.360 153.515, 89.522 155.519 C 83.775 158.519, 81.701 159.104, 77.771 158.831 L 72.999 158.500 72.999 174.110 C 73 182.696, 72.714 191.809, 72.364 194.361 L 71.728 199.002 79.114 195.371 C 86.173 191.902, 95.941 186.225, 97 184.976 C 98.271 183.478, 104.072 181.888, 106.017 182.505 L 108.182 183.193 107.466 167.346 C 107.073 158.631, 106.555 151.162, 106.316 150.750 C 105.803 149.864, 104.698 149.914, 100 151.038 M 240 153.736 C 235.492 155.912, 231.558 160.227, 228.359 166.500 C 223.289 176.444, 209.345 187.408, 195.833 192.075 C 192.293 193.298, 191.993 193.210, 187.166 189.529 C 179.699 183.835, 177.929 180.979, 178.141 174.975 C 178.337 169.442, 177.780 168.457, 173.916 167.504 C 171.532 166.916, 171.121 167.339, 168.582 172.996 C 164.897 181.207, 163.949 188.847, 163.741 212 C 163.554 232.785, 165.108 244.251, 168.638 248.153 C 170.677 250.405, 175.709 253.015, 177.904 252.959 C 181.272 252.873, 187.294 247.086, 194.996 236.535 C 199.398 230.504, 203 225.265, 203 224.893 C 203 224.520, 210.762 231.935, 220.250 241.370 C 238.038 259.059, 244.786 264.092, 257 268.782 C 265.596 272.082, 269.966 272.988, 277.316 272.994 C 286.783 273.002, 289.955 271.171, 289.985 265.679 C 290.011 260.871, 285.391 258, 277.629 258 C 268.280 258, 256.094 251.925, 241.468 239.974 C 234.941 234.640, 206.879 206.077, 206.197 204.073 C 206.030 203.583, 207.380 202.856, 209.197 202.458 C 215.183 201.144, 225.290 195.581, 230.624 190.663 C 233.510 188.003, 238.226 182.378, 241.106 178.163 C 243.986 173.948, 248.544 168.134, 251.235 165.241 C 255.144 161.042, 255.991 159.531, 255.440 157.741 C 255.062 156.509, 254.695 155.467, 254.626 155.426 C 252.280 154.044, 246.725 152.006, 245.349 152.023 C 244.332 152.035, 241.925 152.806, 240 153.736 M 178.284 214.565 C 178.612 222.658, 179.283 229.683, 179.775 230.175 C 180.300 230.700, 181.459 229.973, 182.584 228.412 C 183.638 226.951, 186.607 223.522, 189.182 220.792 L 193.864 215.830 185.776 207.839 L 177.688 199.848 178.284 214.565" stroke="none" fill="black" fill-rule="evenodd"/>
</svg>