<svg xmlns="http://www.w3.org/2000/svg" width="300" height="300" viewBox="0 0 300 300" version="1.1">
	<path d="M 189.361 12.744 C 187.415 14.036, 186.014 21.135, 185.954 30 C 185.893 39.122, 184.739 51.594, 183.876 52.457 C 183.586 52.748, 179.544 53.648, 174.894 54.459 C 148.157 59.122, 142 61.912, 142 69.366 C 142 75.997, 148.776 77.780, 159.746 74.037 C 165.012 72.240, 176.200 70.026, 180.107 70.008 C 181.540 70.001, 181.452 71.379, 179.294 82.750 C 177.962 89.762, 173.355 109.900, 169.056 127.500 C 164.756 145.100, 160.926 161.300, 160.544 163.500 C 160.162 165.700, 158.482 172.900, 156.810 179.500 C 153.489 192.613, 147.204 221.269, 146.333 227.269 C 145.665 231.873, 147.193 234, 151.170 234 C 157.267 234, 161.510 225.397, 166.459 203 C 167.978 196.125, 172.754 176.100, 177.071 158.500 C 186.180 121.365, 193.229 90.277, 195.422 77.568 C 196.270 72.656, 197.309 68.334, 197.732 67.963 C 198.154 67.593, 204.080 66.766, 210.899 66.125 C 231.646 64.175, 255.513 57.038, 261.781 50.910 C 265.711 47.068, 266.923 41.762, 264.708 38.099 C 262.150 33.867, 255.693 34.048, 254.039 38.397 C 253.550 39.685, 252.103 40.974, 250.824 41.261 C 249.546 41.549, 243.325 43.171, 237 44.865 C 226.558 47.663, 207.153 51, 201.326 51 C 199.011 51, 199 50.939, 199 38.034 C 199 29.235, 198.555 24.012, 197.615 21.784 C 196.853 19.978, 195.832 17.150, 195.345 15.500 C 194.456 12.487, 191.677 11.207, 189.361 12.744 M 76.705 33.250 C 74.820 35.587, 69.390 45.375, 64.639 55 C 59.889 64.625, 54.261 75.764, 52.134 79.752 C 44.724 93.645, 36 115.121, 36 119.469 C 36 122.518, 38.568 125.684, 41.495 126.244 C 44.456 126.810, 47.664 124.015, 49.398 119.359 C 50.004 117.732, 56.108 105.398, 62.963 91.950 C 69.818 78.503, 76.872 64.238, 78.640 60.251 C 80.408 56.264, 83.489 50.311, 85.486 47.022 C 90.216 39.236, 90.859 35.361, 88.018 31.750 C 84.687 27.516, 80.929 28.014, 76.705 33.250 M 100 48.289 C 97.009 49.668, 93.003 53.977, 93.001 55.816 C 93.001 56.539, 93.448 57.969, 93.996 58.993 C 95.005 60.878, 96.477 61.286, 114 64.538 C 118.675 65.406, 125.534 66.838, 129.242 67.720 C 135.628 69.239, 136.091 69.228, 137.992 67.507 C 141.036 64.753, 140.628 59.781, 137.066 56.220 C 134.799 53.953, 131.534 52.571, 122.710 50.143 C 110.812 46.869, 104.241 46.332, 100 48.289 M 87.690 103.222 C 82.378 108.576, 74.654 120.971, 64.771 140 C 55.320 158.199, 53.807 160.681, 44.963 172.500 C 38.608 180.994, 35.808 183.863, 34.401 183.324 C 31.392 182.169, 27 189.156, 27 195.096 C 27 199.194, 31.284 201.310, 36.616 199.847 C 45.853 197.312, 67.011 169.949, 80.415 143.204 L 84.071 135.909 90.286 136.501 C 104.159 137.824, 121.489 141.265, 126.179 143.628 C 127.653 144.371, 129.132 145.841, 129.467 146.897 C 130.288 149.484, 132.042 150.006, 136.519 148.996 C 141.545 147.862, 143.126 146.062, 143.719 140.801 C 144.175 136.754, 143.935 136.150, 140.763 133.365 C 134.161 127.568, 111.613 122.198, 98.843 123.380 L 92.185 123.997 95.611 117.248 C 98.021 112.500, 99.095 108.959, 99.234 105.299 C 99.456 99.427, 99.507 99.523, 95.713 98.612 C 93.286 98.030, 92.250 98.625, 87.690 103.222 M 219.201 106.028 C 216.776 108.287, 216.375 109.702, 215.572 118.825 C 214.634 129.474, 210.119 143.671, 197.545 175.500 C 191.771 190.116, 186.762 202.953, 177.279 227.443 C 173.030 238.415, 172.121 245.399, 174.373 249.755 C 176.669 254.194, 179.751 256.003, 184.973 255.978 C 190.601 255.951, 195.583 253.724, 205.646 246.739 C 214.542 240.564, 222.624 235.833, 238.500 227.507 C 251.918 220.470, 254.687 218.564, 256.989 214.778 L 258.780 211.833 261.407 219.720 C 264.131 227.901, 271.468 241.740, 275.169 245.679 C 276.338 246.924, 278.852 248.456, 280.756 249.085 C 283.744 250.071, 284.580 249.958, 286.859 248.265 C 290.923 245.244, 290.614 242.392, 285.080 231.846 C 282.322 226.590, 278.201 216.487, 275.923 209.395 C 271.548 195.776, 269.441 190.458, 267.449 188 C 266.780 187.175, 265.189 183.575, 263.913 180 C 260.295 169.867, 256.851 168.372, 252.970 175.250 C 250.030 180.458, 249.627 191.632, 252.202 196.500 C 253.789 199.499, 253.788 199.501, 249.406 203.310 C 246.995 205.405, 240.180 209.351, 234.261 212.079 C 217.562 219.774, 203.855 226.962, 199.856 230.121 C 197.852 231.705, 195.899 233, 195.516 233 C 195.134 233, 194 234.012, 192.996 235.250 C 191.993 236.488, 190.887 237.216, 190.537 236.868 C 189.877 236.211, 193.524 225.652, 207.244 188.500 C 224.573 141.576, 228.072 129.515, 228.344 115.765 C 228.489 108.467, 228.320 107.762, 226 105.973 C 222.825 103.524, 221.880 103.532, 219.201 106.028 M 99.500 170.100 C 80.671 176.948, 76.685 178.103, 70.500 178.509 C 60.502 179.163, 59.140 183.064, 63.111 199.671 C 64.930 207.280, 65.162 210.673, 64.783 224.222 C 64.541 232.868, 64.726 240.326, 65.195 240.795 C 65.663 241.263, 65.351 243.310, 64.500 245.346 C 62.778 249.466, 63.563 252.161, 67.023 254.012 C 69.700 255.445, 104.605 243.507, 112.493 238.461 C 120.029 233.641, 125.589 226.403, 126.867 219.750 C 130.591 200.363, 128.232 176.988, 121.949 171.033 C 116.192 165.577, 112.374 165.419, 99.500 170.100 M 98.987 186.961 C 93.755 189.045, 86.885 191.330, 83.722 192.038 L 77.970 193.325 78.726 196.912 C 79.142 198.886, 79.479 207.813, 79.474 216.750 C 79.469 225.688, 79.770 233, 80.144 233 C 81.556 233, 102.639 227.862, 105.705 226.771 C 110.693 224.996, 111.509 221.756, 111.438 204 C 111.377 188.958, 110.739 182.909, 109.231 183.085 C 108.829 183.132, 104.219 184.876, 98.987 186.961" stroke="none" fill="black" fill-rule="evenodd"/>
</svg>