<svg xmlns="http://www.w3.org/2000/svg" width="300" height="300" viewBox="0 0 300 300" version="1.1">
	<path d="M 100.259 25.526 C 98.476 26.336, 96.456 27.899, 95.768 28.999 C 95.081 30.100, 93.727 31, 92.759 31 C 91.792 31, 91 31.401, 91 31.892 C 91 32.382, 89.987 33.038, 88.748 33.348 C 85.376 34.195, 75.201 43.686, 72.962 48.074 C 69.407 55.044, 70.569 59, 76.173 59 C 77.810 59, 89.135 52.069, 91 49.925 C 91.275 49.609, 93.525 48.266, 96 46.939 C 98.475 45.613, 101.772 43.509, 103.327 42.264 C 104.881 41.019, 106.601 40, 107.148 40 C 108.825 40, 111 42.746, 111 44.863 C 111 45.967, 111.439 48.024, 111.975 49.434 C 112.511 50.844, 113.673 60.661, 114.557 71.249 C 115.441 81.837, 116.573 91.274, 117.072 92.219 C 117.571 93.165, 118.280 103.628, 118.648 115.469 C 119.016 127.311, 119.696 137, 120.159 137 C 120.621 137, 121 147.322, 121 159.938 L 121 182.877 118 186.161 C 116.350 187.968, 115 190.029, 115 190.742 C 115 192.174, 109.768 191.370, 109.167 189.845 C 108.694 188.646, 102 188.791, 102 190 C 102 190.550, 100.794 191, 99.321 191 C 97.847 191, 93.619 191.973, 89.925 193.163 C 83.478 195.240, 83.064 195.258, 79.616 193.622 C 75.374 191.609, 73.455 192.315, 68.297 197.783 C 65.045 201.233, 64.358 204.004, 65.604 208.650 C 66.043 210.286, 67.229 210.957, 70.567 211.458 C 72.980 211.820, 75.229 212.561, 75.566 213.106 C 75.942 213.715, 76.625 213.743, 77.339 213.179 C 77.978 212.674, 81.420 211.942, 84.988 211.554 C 88.557 211.165, 91.795 210.332, 92.184 209.702 C 92.573 209.073, 93.155 208.821, 93.477 209.144 C 94.346 210.013, 90.634 216.722, 87 220.846 C 86.175 221.782, 84.600 224.325, 83.500 226.497 C 82.400 228.669, 81.146 230.908, 80.714 231.473 C 77.148 236.130, 72.129 245.141, 71.509 248 C 71.091 249.925, 70.276 251.800, 69.699 252.167 C 69.122 252.534, 68.616 255.138, 68.575 257.953 C 68.491 263.656, 69.600 264.969, 74.500 264.969 C 78.212 264.969, 79.195 264.285, 80.834 260.564 C 81.545 258.949, 83.448 255.959, 85.063 253.920 C 86.679 251.881, 88 249.700, 88 249.075 C 88 248.449, 88.648 247.689, 89.439 247.385 C 90.230 247.081, 91.166 245.521, 91.518 243.916 C 91.871 242.312, 92.686 240.995, 93.329 240.989 C 93.973 240.982, 95.385 239.131, 96.467 236.874 C 97.548 234.617, 99.011 232.549, 99.717 232.279 C 100.422 232.008, 101 231.260, 101 230.616 C 101 229.465, 108.476 218.975, 109.992 218 C 110.419 217.725, 110.933 216.637, 111.134 215.583 C 111.803 212.075, 113.852 212.775, 115.099 216.936 C 115.769 219.171, 116.920 221, 117.658 221 C 118.396 221, 119 221.675, 119 222.500 C 119 223.325, 119.348 224, 119.773 224 C 120.198 224, 121.393 225.575, 122.430 227.500 C 123.467 229.425, 125.032 231.013, 125.907 231.028 C 126.783 231.043, 128.812 232.392, 130.415 234.026 C 133.014 236.675, 138.271 238.979, 141.750 238.994 C 142.438 238.997, 143 239.450, 143 240 C 143 240.550, 143.675 241, 144.500 241 C 145.325 241, 146 241.444, 146 241.987 C 146 242.529, 147.238 244.762, 148.750 246.949 L 151.500 250.924 158.509 250.962 C 164.460 250.994, 165.708 250.698, 166.768 249 C 167.455 247.900, 168.688 247, 169.508 247 C 170.329 247, 171 246.395, 171 245.655 C 171 244.915, 171.849 243.541, 172.887 242.602 C 173.926 241.662, 175.832 238.668, 177.124 235.947 C 178.415 233.226, 179.816 231, 180.236 231 C 180.656 231, 181 230.204, 181 229.232 C 181 228.260, 182.107 225.835, 183.460 223.844 C 184.813 221.852, 186.501 218.320, 187.210 215.994 C 187.920 213.668, 189.063 211.545, 189.750 211.276 C 190.438 211.006, 191 209.875, 191 208.761 C 191 207.647, 191.866 205.333, 192.923 203.618 C 193.981 201.903, 195.814 197.912, 196.995 194.750 C 198.177 191.588, 199.504 189, 199.944 189 C 200.384 189, 201.032 187.200, 201.384 185 C 201.736 182.800, 202.438 181, 202.944 181 C 203.451 181, 204.156 179.988, 204.512 178.750 C 205.921 173.851, 209.413 166, 210.184 166 C 210.633 166, 211 164.832, 211 163.404 C 211 161.977, 211.666 159.614, 212.480 158.154 C 214.865 153.877, 219 143.870, 219 142.376 C 219 141.619, 219.450 141, 220 141 C 220.550 141, 221.003 140.213, 221.006 139.250 C 221.010 138.287, 221.736 136.150, 222.622 134.500 C 223.507 132.850, 224.590 130.375, 225.029 129 C 225.745 126.760, 225.837 126.885, 225.914 130.191 C 225.961 132.221, 226.395 134.126, 226.879 134.425 C 227.362 134.724, 228.082 140.600, 228.479 147.484 C 228.877 154.368, 229.541 160, 229.956 160 C 230.371 160, 230.998 167.987, 231.350 177.750 C 233.209 229.358, 233.263 235.645, 232 252.994 C 230.531 273.182, 229.644 275.150, 225.589 267.218 C 221.029 258.297, 218.453 256.919, 213.794 260.908 C 211.503 262.870, 211.538 264.734, 214.026 273.086 C 217.935 286.212, 227.314 292.045, 237.029 287.391 C 239.323 286.292, 240.982 284.788, 240.989 283.800 C 240.995 282.865, 241.680 281.719, 242.512 281.253 C 244.885 279.925, 248.049 270.205, 248.698 262.250 C 249.023 258.262, 249.674 255, 250.144 255 C 250.615 255, 251 241.725, 251 225.500 C 251 206.500, 250.644 196, 250 196 C 249.450 196, 248.996 193.863, 248.992 191.250 C 248.988 188.637, 248.105 176.375, 247.030 164 C 245.955 151.625, 244.772 135.200, 244.403 127.500 C 244.033 119.800, 243.381 113.050, 242.955 112.500 C 242.529 111.950, 242.042 107.456, 241.873 102.513 C 241.576 93.823, 241.647 93.485, 244.033 92.278 C 245.390 91.591, 247.512 91.023, 248.750 91.015 C 249.988 91.007, 251 90.572, 251 90.050 C 251 89.527, 253.250 88.067, 256 86.805 C 258.750 85.544, 261 84.111, 261 83.621 C 261 83.130, 262.125 81.687, 263.500 80.412 C 266.425 77.702, 266.909 72.052, 264.429 69.571 C 262.485 67.628, 256 67.437, 256 69.323 C 256 70.050, 253.863 71.643, 251.250 72.863 C 248.638 74.082, 245.262 75.716, 243.750 76.494 L 241 77.907 241 73.453 C 241 71.004, 240.550 69, 240 69 C 239.450 69, 239 67.200, 239 65 C 239 62.800, 239.392 61, 239.872 61 C 240.351 61, 240.952 57.383, 241.208 52.963 C 241.464 48.543, 242.131 44.469, 242.690 43.910 C 244.081 42.519, 241.073 36, 239.042 36.001 C 238.194 36.002, 236.209 37.113, 234.631 38.470 C 232.454 40.342, 231.632 42.087, 231.225 45.696 C 230.930 48.313, 230.084 51.059, 229.344 51.799 C 228.605 52.538, 228 54.423, 228 55.988 C 228 57.553, 227.559 58.983, 227.019 59.167 C 226.480 59.350, 225.735 64.154, 225.363 69.843 C 224.592 81.644, 225.115 81.045, 214 82.845 C 210.425 83.424, 204.350 84.411, 200.500 85.038 C 196.650 85.665, 192.082 86.813, 190.349 87.589 C 188.616 88.365, 186.253 89, 185.099 89 C 183.944 89, 183 89.450, 183 90 C 183 90.550, 181.243 91, 179.096 91 C 176.948 91, 172.017 92.074, 168.138 93.386 C 161.213 95.729, 158 97.803, 158 99.929 C 158 100.518, 157.325 101, 156.500 101 C 155.431 101, 155.004 102.077, 155.015 104.750 C 155.041 111.127, 155.736 111.521, 166.608 111.327 C 171.931 111.232, 176.560 110.742, 176.893 110.239 C 177.227 109.736, 178.625 109, 180 108.603 C 186.966 106.592, 197.694 104.022, 199.167 104.012 C 200.083 104.005, 200.985 103.544, 201.171 102.988 C 201.356 102.431, 205.219 101.689, 209.754 101.339 C 214.289 100.990, 218 100.371, 218 99.965 C 218 99.559, 219.350 99.029, 221 98.787 C 225.250 98.163, 224.764 100.063, 219.918 103.014 C 215.583 105.654, 211 112.244, 211 115.838 C 211 117.027, 210.550 118, 210 118 C 209.450 118, 209 118.527, 209 119.171 C 209 119.815, 208.402 121.053, 207.672 121.921 C 205.614 124.368, 201.962 134.033, 201.313 138.750 C 200.991 141.088, 200.419 143, 200.041 143 C 198.623 143, 192.390 157.426, 191.292 163.250 C 191.006 164.762, 190.374 166, 189.887 166 C 189.399 166, 189 167.098, 189 168.441 C 189 169.784, 188.494 171.195, 187.876 171.577 C 186.032 172.717, 181 184.719, 181 187.978 C 181 189.640, 180.559 191, 180.020 191 C 178.577 191, 173.390 200.524, 171.921 205.869 C 171.221 208.416, 170.303 210.735, 169.882 211.023 C 168.780 211.776, 162.228 225.242, 161.444 228.365 C 160.624 231.633, 160.289 231.638, 157.757 228.418 C 156.038 226.233, 155.017 225.869, 151.113 226.047 C 143.641 226.389, 142.596 226.138, 139.453 223.250 C 135.801 219.894, 131 211.876, 131 209.134 C 131 208.028, 129.650 205.645, 128 203.839 C 124.238 199.720, 124.238 198.558, 128 197 C 129.853 196.233, 131 195.027, 131 193.847 C 131 192.797, 131.634 191.694, 132.408 191.397 C 136.074 189.990, 136.500 185.522, 136.500 148.500 C 136.500 113.839, 134.748 80.224, 132.876 78.966 C 132.438 78.672, 131.770 72.822, 131.391 65.966 C 131.012 59.110, 130.386 53.275, 130 53 C 129.614 52.725, 128.552 49.161, 127.639 45.081 C 126.683 40.809, 124.923 36.276, 123.489 34.397 C 122.120 32.602, 120.975 30.766, 120.945 30.317 C 120.914 29.868, 119.499 28.399, 117.799 27.053 C 113.992 24.039, 105.215 23.275, 100.259 25.526 M 53.250 31.603 C 51.011 34.157, 51 34.341, 51 68.085 C 51 87.049, 50.610 102, 50.116 102 C 49.630 102, 48.906 111.563, 48.506 123.250 C 48.107 134.938, 47.425 144.950, 46.991 145.500 C 45.658 147.191, 44.646 203.100, 45.891 206.288 C 47.339 209.998, 51.781 214.008, 54.396 213.967 C 55.553 213.948, 57.513 213.089, 58.750 212.056 C 60.987 210.191, 61 210.010, 61 181.747 C 61 145.372, 61.824 129, 63.654 129 C 64.394 129, 65 129.450, 65 130 C 65 130.550, 66.350 131, 68 131 C 69.650 131, 71 130.550, 71 130 C 71 129.450, 71.895 129, 72.989 129 C 74.083 129, 77.346 128.100, 80.239 127.001 C 83.133 125.901, 86.175 124.986, 87 124.967 C 87.825 124.948, 90.300 124.063, 92.500 123 C 94.700 121.937, 98.475 121.053, 100.890 121.034 C 105.901 120.995, 107.918 119.158, 107.968 114.589 C 108.009 110.825, 102.874 106.056, 98.570 105.860 C 93.354 105.623, 87.548 106.164, 86.500 106.985 C 85.950 107.416, 84.038 108.082, 82.250 108.464 C 80.463 108.846, 79 109.510, 79 109.940 C 79 110.370, 76.770 110.986, 74.045 111.308 C 71.319 111.631, 67.972 112.627, 66.607 113.522 L 64.124 115.149 64.633 77.324 C 65.078 44.253, 64.947 39.186, 63.587 37 C 62.732 35.625, 61.747 33.712, 61.399 32.750 C 61.051 31.788, 59.919 31, 58.883 31 C 57.848 31, 57 30.550, 57 30 C 57 28.316, 55.610 28.911, 53.250 31.603 M 71.298 149.813 C 68.398 150.226, 63 156.449, 63 159.380 C 63 160.650, 63.887 162.493, 64.971 163.474 C 66.742 165.077, 68.641 165.212, 83.721 164.809 C 100.516 164.361, 102.409 163.981, 107.250 160.095 C 108.213 159.322, 109 157.420, 109 155.868 C 109 151.022, 106.313 150.212, 89 149.836 C 80.475 149.651, 72.509 149.641, 71.298 149.813" stroke="none" fill="black" fill-rule="evenodd"/>
</svg>