<svg xmlns="http://www.w3.org/2000/svg" width="300" height="300" viewBox="0 0 300 300" version="1.1">
	<path d="M 147.018 8.740 C 145.003 9.530, 143.968 10.674, 139.995 16.500 C 138.120 19.250, 134.991 23.295, 133.043 25.488 C 127.885 31.294, 111.248 47.376, 105.883 51.742 C 97.675 58.423, 94.712 66.712, 99 71 C 102.505 74.505, 108 73.340, 108 69.092 C 108 66.962, 109.517 65.154, 115.250 60.449 C 119.237 57.177, 124.903 52.330, 127.840 49.678 C 130.843 46.966, 133.788 45.088, 134.567 45.387 C 135.329 45.680, 139.901 46.407, 144.727 47.002 C 155.828 48.373, 158 48.840, 158 49.859 C 158 50.311, 152.099 56.715, 144.886 64.090 C 134.780 74.423, 131.759 78.119, 131.719 80.198 C 131.661 83.200, 129.457 84.426, 122.350 85.415 C 112.292 86.813, 99.978 94.102, 100.015 98.635 C 100.049 102.780, 101.418 103.419, 106.650 101.730 C 109.318 100.868, 115.550 99.422, 120.500 98.515 C 131.233 96.549, 137.157 95.261, 139.371 94.411 C 142.513 93.205, 141.137 117.561, 137.951 119.530 C 137.415 119.861, 131.324 120.560, 124.416 121.083 C 112.003 122.023, 106.307 123.507, 102.744 126.732 C 101.038 128.276, 100.958 128.273, 101.569 126.681 C 101.929 125.743, 101.778 124.418, 101.233 123.737 C 100.187 122.432, 97.648 113.847, 96.603 108.082 C 95.755 103.406, 91.384 94.709, 88.539 92.037 C 87.251 90.826, 84.398 89.595, 82.199 89.300 C 78.737 88.836, 77.983 89.097, 76.574 91.247 C 74.648 94.185, 75.374 96.776, 80.008 103.512 C 81.659 105.911, 83.736 110.712, 84.625 114.182 C 87.149 124.032, 94.376 132.740, 98.112 130.431 C 98.631 130.110, 99.831 130.792, 100.778 131.946 C 102.367 133.882, 103.623 134.060, 117 134.251 C 124.975 134.365, 134.608 133.977, 138.407 133.389 L 145.313 132.320 141.254 135.910 C 134.269 142.087, 127.635 147.528, 124 150.061 C 122.075 151.402, 120.275 152.751, 120 153.057 C 118.739 154.462, 102.700 166.184, 95.500 170.962 C 81.875 180.005, 79.492 183.420, 83.977 187.480 C 88.293 191.385, 97.095 187.056, 121.431 169.062 C 128.542 163.803, 134.609 159.500, 134.911 159.500 C 136.865 159.500, 147 185.266, 147 190.234 C 147 192.657, 144.808 195.054, 115.750 224.393 C 93.469 246.889, 91.715 249.315, 95.200 252.800 C 96.946 254.546, 102.094 254.257, 105.122 252.243 C 110.067 248.955, 145.821 213.417, 148.142 209.483 L 150.462 205.551 151.303 210.526 C 151.766 213.262, 151.987 225.625, 151.795 238 C 151.486 257.887, 151.174 261.458, 149.113 268.750 C 146.887 276.624, 145.872 278.220, 144.500 276 C 143.641 274.610, 138.654 274.746, 137.200 276.200 C 134.550 278.850, 136.831 286.368, 141.217 289.439 C 142.442 290.298, 145.355 291, 147.689 291 C 153.932 291, 157.800 286.727, 160.869 276.441 C 165.679 260.322, 166.775 240.530, 164.362 213.361 L 163.729 206.222 167.814 205.531 C 171.422 204.922, 172.871 205.361, 180.200 209.288 C 184.765 211.734, 191.875 215.816, 196 218.359 C 200.125 220.902, 205.075 223.759, 207 224.708 C 208.925 225.657, 211.660 227.212, 213.078 228.163 C 215.721 229.935, 220.736 231.922, 229.432 234.642 C 236.873 236.971, 250.072 236.179, 256.500 233.018 C 267.691 227.515, 272.639 221.431, 269.973 216.450 C 268.143 213.031, 264.923 213.332, 258.884 217.486 C 245.973 226.367, 234.787 224.541, 205.500 208.772 C 196.150 203.738, 186.575 198.888, 184.223 197.995 L 179.946 196.370 195.863 180.232 C 205.368 170.594, 212.842 163.827, 214.416 163.432 C 221.057 161.765, 218.942 154.056, 211.833 154.015 C 205.667 153.980, 200.110 157.752, 188.701 169.719 C 175.765 183.287, 162.805 195.949, 161.822 195.979 C 161.449 195.991, 160.604 193.413, 159.945 190.250 C 157.507 178.552, 152.672 164.316, 149.002 158.031 L 145.224 151.562 151.112 145.137 C 154.350 141.602, 156.996 138.213, 156.991 137.605 C 156.986 136.997, 158.361 135.367, 160.046 133.981 C 161.730 132.596, 163.237 130.589, 163.394 129.522 C 163.604 128.092, 165.389 127.044, 170.179 125.541 C 173.754 124.418, 177.777 122.600, 179.120 121.500 C 182.272 118.919, 190 107.859, 190 105.929 C 190 105.113, 190.608 103.557, 191.351 102.473 C 192.095 101.388, 194.144 96.307, 195.906 91.181 C 198.703 83.046, 198.967 81.429, 197.982 78.447 C 197.362 76.568, 195.650 74.072, 194.178 72.900 C 191.753 70.969, 190.698 70.826, 183 71.388 C 169.770 72.353, 155.713 75.199, 147.539 78.568 C 146.461 79.012, 147.586 77.610, 150.039 75.452 C 159.757 66.905, 170.252 56.361, 171.589 53.800 C 173.308 50.510, 173.373 45.050, 171.718 42.963 C 167.757 37.966, 159.536 35, 149.648 35 L 143.028 35 148.542 27.250 C 151.574 22.987, 154.319 18.479, 154.641 17.231 C 155.252 14.862, 153.343 9, 151.960 9 C 151.522 9, 150.564 8.811, 149.832 8.579 C 149.099 8.348, 147.833 8.420, 147.018 8.740 M 173.500 85.461 C 169.100 86.120, 162.688 87.470, 159.250 88.462 L 153 90.264 153 101.550 C 153 107.758, 152.727 113.548, 152.393 114.418 C 151.920 115.650, 152.469 116, 154.874 116 C 159.979 116, 172.447 113.648, 173.235 112.537 C 174.662 110.523, 182.781 90.456, 183.465 87.250 C 183.980 84.840, 183.815 84.034, 182.829 84.131 C 182.098 84.204, 177.900 84.802, 173.500 85.461 M 132 169.365 C 126.365 171.224, 123.849 172.891, 117.661 178.864 C 104.597 191.473, 97.357 209.901, 103.471 214.976 C 106.393 217.401, 109.413 215.782, 110.889 211 C 111.654 208.525, 112.962 204.807, 113.796 202.739 C 115.598 198.273, 125.740 186.332, 131.799 181.543 C 134.163 179.674, 137.019 176.974, 138.145 175.543 C 140.064 173.103, 140.091 172.787, 138.573 170.471 C 136.776 167.729, 136.896 167.749, 132 169.365" stroke="none" fill="black" fill-rule="evenodd"/>
</svg>