<svg xmlns="http://www.w3.org/2000/svg" width="300" height="300" viewBox="0 0 300 300" version="1.1">
	<path d="M 142.674 47.697 C 140.625 48.774, 132.647 49.566, 113.674 50.576 C 99.278 51.343, 84.800 51.930, 81.500 51.882 C 73.345 51.762, 70.654 52.623, 68.665 55.989 C 67.295 58.310, 67.193 59.329, 68.126 61.376 C 69.674 64.775, 73.114 65.442, 87.334 65.101 C 98.967 64.822, 99.149 64.852, 98.079 66.853 C 97.479 67.973, 96.538 69.168, 95.986 69.509 C 94.622 70.351, 77.595 90.811, 66.033 105.500 C 60.837 112.100, 56.105 117.994, 55.517 118.598 C 54.929 119.202, 52.679 122.014, 50.518 124.848 C 48.357 127.682, 46.300 130, 45.946 130 C 45.593 130, 44.467 131.855, 43.445 134.123 L 41.585 138.246 43.903 140.123 C 45.178 141.155, 47.184 142.007, 48.361 142.015 C 51.078 142.033, 66.734 125.890, 79.738 109.662 C 84.955 103.151, 89.575 98.201, 90.003 98.662 C 90.432 99.123, 91.792 104, 93.025 109.500 C 94.258 115, 95.480 120.063, 95.740 120.750 C 96.042 121.546, 95.293 122, 93.680 122 C 90.082 122, 86.006 127.361, 79.479 140.678 C 76.465 146.826, 74 152.132, 74 152.469 C 74 152.807, 72.626 156.102, 70.947 159.792 C 69.268 163.481, 67.518 167.400, 67.059 168.500 C 66.599 169.600, 65.048 173.256, 63.612 176.625 C 59.904 185.321, 60.252 187.021, 66.040 188.474 C 69.569 189.360, 71.879 187.041, 76.972 177.500 C 79.321 173.100, 81.863 168.790, 82.621 167.921 C 83.380 167.053, 84 166.051, 84 165.694 C 84 163.553, 97.237 137.844, 97.953 138.595 C 98.427 139.093, 99.622 145.189, 100.608 152.143 L 102.401 164.785 99.701 168.326 C 98.215 170.273, 97 172.113, 97 172.414 C 97 173.069, 91.224 182.354, 86.059 190 C 84.016 193.025, 80.634 198.650, 78.543 202.500 C 74.116 210.653, 61.986 229.347, 60.807 229.833 C 60.363 230.017, 59.997 230.692, 59.994 231.333 C 59.990 231.975, 58.125 234.673, 55.848 237.329 C 52.815 240.867, 51.187 242.021, 49.754 241.646 C 47.137 240.962, 43.282 242.815, 42.700 245.037 C 41.956 247.885, 44.217 251.354, 48.042 253.229 C 54.901 256.593, 61.502 252.643, 72.372 238.671 C 81.671 226.718, 93.001 207.315, 101.882 188.132 L 103.442 184.765 104.319 188.132 C 105.798 193.806, 104.478 243.423, 102.637 251.395 C 101.761 255.187, 100.833 258.501, 100.575 258.759 C 100.317 259.017, 98.909 258.287, 97.446 257.136 C 95.256 255.414, 94.407 255.246, 92.643 256.185 C 88.882 258.188, 88.259 259.852, 89.298 265.107 C 90.555 271.468, 95.675 277.002, 100.298 276.996 C 108.809 276.986, 114.045 268.959, 116.763 251.754 C 118.752 239.161, 118.910 197.986, 117.043 178.682 C 116.361 171.632, 116.075 165.591, 116.408 165.259 C 116.740 164.926, 118.622 166.535, 120.590 168.834 C 122.558 171.133, 126.181 174.194, 128.641 175.635 C 132.339 177.803, 133.883 178.151, 137.564 177.646 C 144.279 176.726, 147 174.536, 147 170.054 C 147 167.141, 146.474 166.057, 144.567 165.036 C 143.230 164.320, 141.389 164.020, 140.477 164.370 C 138.966 164.950, 133.013 162.297, 132.991 161.034 C 132.986 160.740, 130.986 158.250, 128.546 155.500 L 124.111 150.500 129.800 147.718 C 132.929 146.189, 137.418 143.044, 139.776 140.729 C 145.984 134.637, 154 122.379, 154 118.979 C 154 115.401, 149.601 111.632, 146.371 112.443 C 143.411 113.186, 138 118.697, 138 120.969 C 138 124.590, 129.319 132.657, 121.009 136.757 L 113.051 140.683 112.102 137.592 C 111.580 135.891, 110.426 130.900, 109.537 126.500 C 108.648 122.100, 106.177 111.105, 104.046 102.067 L 100.170 85.634 107.695 77.067 C 111.834 72.355, 115.573 67.583, 116.005 66.462 C 116.684 64.699, 118.262 64.261, 127.729 63.208 C 133.746 62.539, 140.769 61.276, 143.336 60.401 C 150.756 57.873, 154.307 51.450, 150.429 47.571 C 148.538 45.680, 146.447 45.714, 142.674 47.697 M 244.500 55.462 C 239.550 56.801, 234.421 57.920, 233.103 57.948 C 231.785 57.977, 225.485 59.552, 219.103 61.450 C 197.308 67.929, 175.401 71.076, 173.500 68 C 171.433 64.655, 165 69.397, 165 74.265 C 165 77.897, 169.686 82.787, 173.990 83.648 C 176.344 84.119, 176.953 84.668, 176.470 85.886 C 175.858 87.428, 169.805 117.412, 168.523 125.250 C 168.013 128.366, 167.505 129, 165.520 129 C 160.064 129, 155 132.343, 155 135.943 C 155 138.435, 160.324 141.991, 164.064 141.996 L 166.628 142 165.345 151.250 C 162.161 174.213, 162.733 197.624, 166.943 216.676 C 169.514 228.310, 172.269 233.251, 181.006 241.894 C 187.246 248.066, 189.996 250.008, 195.597 252.193 C 208.272 257.137, 216.143 258.244, 235.244 257.769 C 252.441 257.342, 252.545 257.325, 265.500 252.999 C 279.465 248.335, 286.780 244.335, 289.374 239.944 C 292.442 234.751, 290.944 226.843, 286.510 224.823 C 284.328 223.828, 283.638 223.992, 281.490 226.009 C 280.121 227.296, 279 229.168, 279 230.169 C 279 232.046, 274.688 234.486, 266.035 237.505 C 251.564 242.554, 226.399 244.453, 211.957 241.586 C 185.231 236.281, 177 221.708, 177 179.699 C 177 170.912, 177.538 158.561, 178.196 152.251 C 179.244 142.194, 179.645 140.682, 181.446 139.997 C 184.715 138.754, 201.123 136.122, 205.382 136.158 C 207.517 136.176, 209.542 135.765, 209.882 135.245 C 210.872 133.730, 214.684 132, 217.033 132 C 218.224 132, 220.616 131.359, 222.349 130.576 C 224.082 129.792, 228.875 127.621, 233 125.751 C 245.258 120.195, 250.322 112.173, 244.811 107.039 C 241.928 104.353, 240.861 104.461, 237.375 107.792 C 234.595 110.448, 223.480 114.814, 222.357 113.690 C 222.064 113.398, 222.376 110.535, 223.049 107.329 C 223.723 104.123, 224.325 95.541, 224.387 88.257 C 224.449 80.974, 224.618 75.011, 224.762 75.007 C 225.137 74.997, 248.155 69.023, 250.250 68.392 C 251.467 68.026, 252 68.418, 252 69.679 C 252 72.195, 247.007 87.067, 245.355 89.473 C 243.557 92.090, 243.633 96.450, 245.503 98.003 C 247.794 99.904, 251.845 99.494, 254.390 97.103 C 258.358 93.375, 265.915 76.235, 266.628 69.346 C 268.183 54.318, 262.322 50.641, 244.500 55.462 M 202.500 80.529 C 197.550 81.833, 192.244 83.161, 190.709 83.479 C 189.174 83.798, 188.128 84.398, 188.384 84.813 C 188.641 85.228, 187.806 90.952, 186.529 97.534 C 182.648 117.545, 181.735 123.069, 182.231 123.565 C 182.492 123.826, 185.585 123.393, 189.103 122.603 C 192.621 121.812, 197.772 120.874, 200.548 120.517 C 203.324 120.160, 206.085 119.560, 206.684 119.184 C 207.890 118.425, 210 101.187, 210 92.087 C 210 88.877, 210.655 84.395, 211.456 82.126 C 212.256 79.857, 212.594 78.036, 212.206 78.079 C 211.818 78.122, 207.450 79.225, 202.500 80.529" stroke="none" fill="black" fill-rule="evenodd"/>
</svg>