<svg xmlns="http://www.w3.org/2000/svg" width="300" height="300" viewBox="0 0 300 300" version="1.1">
	<path d="M 190.746 11.527 C 186.975 15.298, 186.841 17.417, 190.068 22.289 C 193.976 28.189, 194.853 35.880, 192.479 43.427 C 189.941 51.497, 191.704 54.884, 198 54.035 C 205.648 53.002, 210.709 32.308, 206.404 19.672 C 204.645 14.511, 198.968 9, 195.409 9 C 194.234 9, 192.136 10.137, 190.746 11.527 M 92 43.914 C 79.428 48.555, 74 52.095, 74 55.653 C 74 56.406, 72.947 57, 71.611 57 C 70.297 57, 68.204 57.824, 66.960 58.831 C 64.721 60.644, 64.711 60.762, 65.979 70.344 C 67.006 78.098, 67.032 87.933, 66.110 119.762 C 64.856 163.093, 64.418 173.246, 63.389 182.813 C 62.507 191.022, 64.433 199.409, 67.810 202.065 C 70.751 204.379, 73.355 204.492, 78.874 202.544 C 83.290 200.986, 83.532 201.080, 82.025 203.764 C 80.555 206.383, 76.482 216.797, 74.503 223 C 73.538 226.025, 71.691 230.851, 70.400 233.723 C 66.619 242.134, 66.446 243.781, 69.052 246.555 C 71.961 249.652, 75.063 249.659, 78.723 246.580 C 82.155 243.692, 83.618 240.898, 89.103 226.756 C 95.489 210.293, 93.806 210.401, 108.689 225.500 C 123.504 240.529, 128.753 244.530, 132.442 243.604 C 137.511 242.332, 137.765 237.446, 133.045 232 C 127.735 225.872, 127 224.954, 127 224.447 C 127 224.151, 125.900 222.809, 124.555 221.464 C 123.210 220.119, 121.748 218.452, 121.305 217.760 C 119.882 215.534, 112.459 210.226, 106.130 206.908 C 100.514 203.964, 100.109 203.537, 101.485 202.016 C 102.996 200.347, 103.631 196.761, 102.893 194.059 C 102.677 193.267, 103.225 192.459, 104.112 192.263 C 105.328 191.994, 105.859 192.910, 106.272 195.992 C 106.963 201.143, 108.494 203, 112.050 203 C 116.454 203, 118.610 199.290, 120.041 189.246 C 121.812 176.822, 120.739 135.576, 117.512 92 C 115.005 58.155, 114.757 56.246, 112.191 51.045 C 107.479 41.492, 102.921 39.883, 92 43.914 M 224.500 55.543 C 223.400 55.711, 211.925 56.368, 199 57.001 C 171.783 58.336, 157.263 59.583, 151.790 61.057 C 147.042 62.335, 144.722 66.150, 147.191 68.619 C 149.637 71.065, 170.077 74.248, 179 73.573 C 194.314 72.413, 223.610 69.834, 226.862 69.359 C 230.715 68.796, 235 65.003, 235 62.156 C 235 57.916, 229.914 54.713, 224.500 55.543 M 92.708 58.411 C 90.072 59.702, 86.247 62.567, 84.208 64.776 L 80.500 68.793 80.465 88.510 L 80.431 108.228 85.465 107.622 C 88.234 107.290, 93.425 107.014, 97 107.009 L 103.500 107.001 102.219 84.250 C 101.061 63.698, 99.937 55.941, 98.129 56.031 C 97.783 56.048, 95.343 57.119, 92.708 58.411 M 169.773 80.720 C 165.400 83.471, 161.597 92.232, 158.492 106.710 C 155.965 118.495, 155.796 120.376, 156.927 124.149 C 159.121 131.473, 166.401 136, 175.985 136 C 180.822 136, 194.209 132.988, 197.186 131.230 C 200.709 129.150, 201.657 125.383, 199.310 122.790 C 196.175 119.326, 194.528 118.990, 185.956 120.065 C 181.426 120.633, 176.380 120.803, 174.743 120.443 C 171.451 119.720, 171.468 119.988, 173.900 107 C 175.337 99.330, 177.058 87.172, 177.298 83 C 177.475 79.936, 177.188 79.469, 175 79.252 C 173.625 79.116, 171.273 79.777, 169.773 80.720 M 209.904 92.278 C 207.656 93.999, 206.257 99.010, 204.955 110 C 203.016 126.378, 196.818 146.849, 189.535 160.932 C 188.654 162.636, 186.577 167.873, 184.919 172.569 C 183.261 177.266, 180.613 183.897, 179.034 187.305 C 177.456 190.712, 174.569 197.100, 172.619 201.500 C 170.670 205.900, 164.536 218.275, 158.989 229 C 153.441 239.725, 148.855 249.765, 148.797 251.310 C 148.580 257.130, 156.019 259.511, 160.017 254.901 C 166.270 247.690, 186.221 211.526, 190.857 199 C 191.976 195.975, 195.659 186.525, 199.041 178 C 202.423 169.475, 206.566 158.900, 208.247 154.500 C 209.929 150.100, 212.172 144.534, 213.232 142.131 C 216.420 134.902, 219.981 117.218, 219.991 108.566 C 219.998 102.549, 219.495 99.589, 217.911 96.316 C 216.762 93.942, 215.449 92, 214.993 92 C 214.537 92, 213.564 91.788, 212.832 91.528 C 212.099 91.269, 210.782 91.606, 209.904 92.278 M 89.672 122.537 C 84.817 123.244, 80.602 124.065, 80.305 124.361 C 80.008 124.658, 79.535 126.948, 79.253 129.451 C 78.659 134.717, 78.369 134.622, 88.224 132.381 C 92.528 131.402, 97.251 130.988, 100.171 131.334 C 104.724 131.873, 105 131.773, 105 129.578 C 105 128.298, 104.719 125.844, 104.375 124.125 C 103.654 120.519, 103.590 120.512, 89.672 122.537 M 91 146.155 C 84.727 147.859, 79.531 148.828, 78.867 148.418 C 78.510 148.197, 77.935 153.075, 77.589 159.258 C 77.243 165.441, 76.689 174.539, 76.356 179.475 C 75.849 187.010, 75.973 188.274, 77.126 187.348 C 77.882 186.741, 79.625 185.915, 81 185.511 C 82.375 185.108, 84.850 184.210, 86.500 183.516 C 88.150 182.822, 93.100 180.881, 97.500 179.203 L 105.500 176.153 105.788 162.827 C 106.177 144.846, 106.221 144.975, 99.731 145.102 C 96.854 145.159, 92.925 145.632, 91 146.155 M 236.142 148.598 C 232.971 150.839, 230.049 157.559, 230.022 162.670 C 229.999 167.107, 225.020 182.496, 221.989 187.500 C 220.990 189.150, 218.512 193.875, 216.482 198 C 214.453 202.125, 210.203 209.550, 207.038 214.500 C 186.285 246.957, 181.740 255.291, 182.730 259.076 C 183.535 262.153, 186.681 264.297, 189.393 263.616 C 191.728 263.030, 193.796 260.464, 208.494 239.911 C 210.698 236.830, 214.055 232.206, 215.956 229.636 L 219.412 224.962 225.956 231.353 C 236.384 241.536, 243.883 247.067, 253 251.299 C 262.467 255.694, 272.664 257.354, 275.539 254.968 C 278.470 252.535, 278.922 250.549, 277.304 247.209 C 276.133 244.790, 274.751 243.746, 271.628 242.923 C 267.698 241.887, 255.545 235.001, 249.828 230.570 C 248.359 229.432, 245.884 227.502, 244.328 226.282 C 242.773 225.062, 239.475 223.051, 237 221.813 C 234.525 220.575, 230.847 218.552, 228.827 217.317 L 225.154 215.072 231.500 202.286 C 244.251 176.596, 249.670 154.528, 244.499 149.356 C 242.303 147.161, 238.644 146.829, 236.142 148.598" stroke="none" fill="black" fill-rule="evenodd"/>
</svg>