<svg xmlns="http://www.w3.org/2000/svg" width="300" height="300" viewBox="0 0 300 300" version="1.1">
	<path d="M 149.127 24.368 C 146.964 25.320, 144.019 32.521, 141.400 43.262 C 140.098 48.600, 139.303 50.132, 137.625 50.532 C 136.456 50.812, 130.222 52.317, 123.772 53.876 C 113.080 56.461, 111.996 56.563, 111.510 55.032 C 110.576 52.090, 107.002 49, 104.534 49 C 101.130 49, 98 53.397, 98 58.177 C 98 63.690, 100.708 76.141, 103.011 81.215 C 104.081 83.572, 104.966 86.480, 104.978 87.679 C 105.026 92.420, 114.470 99.284, 116.477 96.036 C 116.808 95.502, 117.992 95.992, 119.135 97.135 C 120.957 98.957, 122.177 99.156, 129.599 98.849 L 138 98.500 138 104.689 L 138 110.877 133.750 111.384 C 131.412 111.662, 124.775 112.400, 119 113.023 C 107.305 114.286, 92.212 116.948, 78.249 120.211 C 63.689 123.614, 61.118 128.780, 72.886 130.989 C 80.923 132.497, 85.690 132.247, 99.743 129.576 C 106.760 128.242, 117.450 126.807, 123.500 126.386 C 129.550 125.965, 136.525 125.477, 139 125.302 C 141.475 125.126, 161.725 124.742, 184 124.447 C 208.909 124.117, 225.546 123.502, 227.217 122.848 C 230.297 121.643, 231.468 119.050, 230.422 115.754 C 228.943 111.095, 228.677 111.065, 188.250 111.032 L 150 111 150 106.565 C 150 98.730, 151.034 97.388, 157.669 96.614 C 166.013 95.640, 170.818 94.182, 173.053 91.947 C 175.350 89.650, 175.495 88.059, 173.637 85.518 C 172.439 83.880, 171.028 83.682, 161.981 83.884 L 151.689 84.113 152.345 73.389 C 152.706 67.491, 153.268 62.403, 153.593 62.083 C 154.312 61.374, 181.606 61.684, 184.597 62.435 C 188.141 63.325, 186.083 69.713, 180.156 76.224 C 178.376 78.179, 177.652 80.154, 177.588 83.224 C 177.501 87.453, 177.541 87.503, 181.209 87.808 C 184.385 88.072, 185.575 87.511, 189.471 83.920 C 200.171 74.057, 204.215 62.118, 199.145 55.363 C 195.171 50.068, 193.160 49.591, 173.135 49.198 L 154.770 48.838 155.403 44.882 C 156.007 41.106, 157.214 37.352, 160.094 30.300 C 161.242 27.488, 161.184 26.861, 159.615 25.127 C 157.742 23.057, 152.900 22.707, 149.127 24.368 M 129.500 65.041 C 127.850 65.502, 123.688 66.417, 120.250 67.076 C 115.661 67.955, 114 68.702, 114 69.887 C 114 71.295, 118.890 89.071, 119.467 89.759 C 119.586 89.901, 122.343 88.669, 125.592 87.021 C 128.841 85.374, 132.752 84.020, 134.281 84.013 C 137.662 83.997, 137.764 83.708, 138.252 72.750 L 138.641 64 135.571 64.102 C 133.882 64.158, 131.150 64.581, 129.500 65.041 M 159.500 144.398 C 155.650 145.676, 147.156 149.259, 140.625 152.361 C 134.094 155.462, 128.581 158, 128.375 158 C 128.169 158, 128 156.409, 128 154.465 C 128 149.214, 125.497 146, 121.408 146 C 118.905 146, 117.618 146.654, 116.370 148.558 C 114.853 150.873, 114.811 152.337, 115.924 163.991 C 116.624 171.321, 117.084 189.064, 116.993 205.184 C 116.905 220.758, 116.871 234.014, 116.917 234.642 C 116.963 235.269, 118.184 236.080, 119.630 236.443 C 123.066 237.306, 126.569 234.113, 127.472 229.295 C 128.099 225.956, 128.316 225.790, 131.401 226.290 C 133.197 226.582, 138.904 225.965, 144.083 224.920 C 149.262 223.875, 154.400 223.013, 155.500 223.005 C 158.873 222.978, 164.848 221.009, 166.466 219.391 C 168.399 217.458, 168.447 213.304, 166.558 211.415 C 164.153 209.010, 160.031 208.821, 148 210.565 C 127.775 213.497, 128.612 213.453, 129.347 211.538 C 129.706 210.602, 130 207.848, 130 205.418 C 130 201.066, 130.050 201, 133.377 201 C 135.235 201, 140.072 200.319, 144.127 199.486 C 166.704 194.849, 170 193.464, 170 188.616 C 170 187.348, 169.136 185.528, 168.080 184.572 C 166.271 182.935, 165.359 182.926, 152.440 184.417 C 144.895 185.288, 136.759 186, 134.361 186 L 130 186 130 179.640 C 130 176.141, 129.717 171.216, 129.371 168.694 L 128.743 164.108 132.257 165.187 C 137.044 166.656, 140.460 165.809, 154.938 159.568 C 161.778 156.620, 167.978 154.438, 168.715 154.721 C 171.398 155.750, 172.308 159.712, 173.595 175.949 C 175.923 205.316, 175.138 222.815, 171.298 227.177 C 170.028 228.620, 170.014 229.251, 171.197 231.677 C 173.143 235.667, 178.764 235.524, 182.387 231.393 C 187.340 225.744, 189.002 218.230, 188.984 201.556 C 188.931 151.201, 181.632 137.051, 159.500 144.398 M 152 232.893 C 143.439 235.671, 128.127 244.026, 127.400 246.314 C 126.732 248.420, 130.134 251.934, 132.885 251.978 C 133.647 251.990, 132.972 253.005, 131.385 254.233 C 124.349 259.680, 114 273.819, 114 277.986 C 114 280.641, 116.697 283, 119.733 283 C 121.631 283, 123.817 281.361, 127.912 276.866 C 130.985 273.493, 138 266.951, 143.500 262.330 C 152.231 254.992, 153.627 254.145, 154.500 255.647 C 158.515 262.557, 183.531 284.629, 192.700 289.352 C 198.979 292.586, 205 290.498, 205 285.088 C 205 282.918, 202.859 280.563, 194.282 273.296 C 188.245 268.182, 182.805 263.459, 178.500 259.593 C 176.300 257.617, 171.689 254.116, 168.253 251.812 C 162.058 247.659, 162.021 247.606, 163.878 245.562 C 168.693 240.259, 168.819 236.576, 164.306 233.026 C 161.200 230.583, 159.184 230.561, 152 232.893" stroke="none" fill="black" fill-rule="evenodd"/>
</svg>