<svg xmlns="http://www.w3.org/2000/svg" width="300" height="300" viewBox="0 0 300 300" version="1.1">
	<path d="M 164.161 36.547 C 163.522 37.948, 163 42.386, 163 46.408 L 163 53.723 153.899 54.242 C 143.267 54.848, 139.500 56.775, 139.500 61.608 L 139.500 64.500 151.250 64.782 L 163 65.063 163 69.407 C 163 71.796, 163.258 75.044, 163.574 76.625 C 164.125 79.385, 163.943 79.549, 159.034 80.711 C 151.928 82.393, 148 85.368, 148 89.068 C 148 90.684, 148.561 92.053, 149.250 92.118 C 151.667 92.348, 153.515 91.806, 155.079 90.410 C 155.947 89.634, 158.258 89, 160.215 89 C 163.643 89, 163.794 89.156, 164.356 93.250 C 164.676 95.588, 165.037 100.151, 165.158 103.390 L 165.378 109.281 158.462 111.080 C 154.658 112.070, 151.347 112.680, 151.104 112.437 C 150.861 112.194, 149.846 112.735, 148.847 113.638 C 147.572 114.793, 147.217 116.056, 147.654 117.890 C 148.823 122.795, 149.829 123.267, 158.106 122.788 L 165.775 122.344 166.462 129.312 C 166.977 134.540, 166.818 136.570, 165.824 137.441 C 163.739 139.269, 156.833 141.318, 153.214 141.182 C 149.558 141.044, 148.426 142.577, 149.379 146.376 C 150.252 149.854, 154.878 151.394, 162.355 150.696 L 168.619 150.111 169.829 159.805 C 171.686 174.686, 172.009 175.500, 176.058 175.500 C 180.482 175.500, 182.452 172.054, 180.970 166.912 C 180.429 165.036, 179.698 159.138, 179.347 153.806 L 178.707 144.112 181.603 143.457 C 186.542 142.340, 195.344 138.943, 198.763 136.834 C 202.696 134.407, 204.090 132.062, 203.329 129.151 C 202.502 125.987, 198.894 125.503, 194.156 127.921 C 191.914 129.064, 189.049 130.020, 187.790 130.044 C 186.530 130.068, 183.807 130.692, 181.739 131.430 C 179.670 132.168, 177.795 132.477, 177.572 132.116 C 177.349 131.755, 177.044 128.813, 176.894 125.577 L 176.621 119.694 185.061 117.778 C 207.709 112.636, 209.450 111.797, 208.825 106.338 C 208.515 103.633, 208.234 103.486, 202.816 103.202 C 199.689 103.038, 192.498 103.797, 186.835 104.889 C 181.173 105.980, 176.481 106.789, 176.408 106.687 C 176.336 106.584, 176.012 103.189, 175.688 99.143 L 175.098 91.786 177.799 92.332 C 179.285 92.632, 186.125 92.428, 193 91.877 C 199.875 91.327, 207.349 91.148, 209.609 91.479 L 213.717 92.080 214.370 99.790 C 215.921 118.122, 216.291 147.660, 215.051 154.230 C 213.960 160.011, 213.450 160.985, 210.974 162.011 C 203.470 165.119, 208.098 171.895, 216.440 170.014 C 221.445 168.885, 223.584 166.719, 225.709 160.632 C 227.294 156.090, 227.480 152.053, 227.322 125.500 C 227.132 93.457, 226.590 89.385, 221.832 84.322 C 218.678 80.964, 210.342 79.586, 199 80.548 C 193.775 80.991, 186.125 81.386, 182 81.427 L 174.500 81.500 174.212 72.817 L 173.924 64.134 178.381 63.466 C 180.832 63.098, 187.604 62.730, 193.430 62.649 C 203.942 62.501, 204.040 62.522, 206.287 65.338 C 208.038 67.532, 209.228 68.099, 211.526 67.838 C 214.412 67.510, 214.509 67.324, 214.805 61.564 C 215.065 56.516, 214.634 54.689, 211.921 49.344 C 210.166 45.887, 207.517 41.699, 206.034 40.038 C 202.691 36.294, 198.005 35.138, 195.664 37.479 C 193.477 39.666, 193.564 42.195, 196 47.236 C 197.100 49.513, 197.999 51.404, 197.997 51.438 C 197.995 51.472, 192.466 51.642, 185.710 51.815 L 173.427 52.130 172.213 46.255 C 171.546 43.023, 171 39.217, 171 37.797 C 171 33.471, 165.980 32.554, 164.161 36.547 M 89.500 77.039 C 86.200 78.101, 82.268 78.977, 80.761 78.985 C 76.936 79.006, 74 81.822, 73.999 85.472 L 73.998 88.500 71.632 85.750 C 68.761 82.412, 67.496 82.307, 65.585 85.250 C 64.321 87.198, 64.262 93.467, 65.148 132 C 65.711 156.475, 66.386 181.849, 66.649 188.387 C 66.957 196.074, 66.750 200.650, 66.063 201.337 C 64.457 202.943, 64.784 205.495, 66.835 207.351 C 68.348 208.720, 69.225 208.818, 71.838 207.907 C 74.190 207.087, 76.294 207.111, 80.003 208.001 C 82.751 208.660, 85 209.431, 85 209.714 C 85 209.998, 83.880 212.315, 82.510 214.865 C 79.866 219.787, 76 231.124, 76 233.955 C 76 234.887, 74.875 238.957, 73.500 243 C 70.583 251.575, 70.423 253.565, 72.582 254.393 C 76.865 256.037, 79.647 254.256, 81.785 248.500 C 87.853 232.165, 92 219.587, 92 217.516 C 92 213.892, 95.020 214.289, 97.647 218.257 C 98.827 220.041, 101.445 224.737, 103.463 228.694 C 109.016 239.577, 116.162 245.180, 122.471 243.597 C 127.437 242.350, 127.867 236.045, 123.090 234.529 C 120.784 233.797, 117.269 229.170, 114.194 222.818 C 110.651 215.500, 103.420 208, 99.907 208 C 98.308 208, 97 207.550, 97 207 C 97 206.450, 98.093 206, 99.429 206 C 100.764 206, 102.473 205.384, 103.225 204.632 C 103.978 203.879, 105.562 202.956, 106.747 202.580 C 109.486 201.711, 112.368 197.002, 114.405 190.068 C 115.732 185.551, 115.997 178.821, 115.979 150.068 C 115.954 106.915, 114.430 88.117, 110.471 82.135 C 107.583 77.771, 102.787 74.970, 98.349 75.054 C 96.782 75.083, 92.800 75.977, 89.500 77.039 M 137.712 84.766 C 134.394 88.432, 133.957 94.915, 135.023 124.669 C 136.096 154.612, 136.342 157.064, 138.642 160.750 C 140.175 163.207, 144.383 163.808, 145.654 161.751 C 146.078 161.065, 146.289 144.314, 146.123 124.528 C 145.880 95.673, 145.536 88.003, 144.384 85.776 C 142.743 82.602, 140.040 82.193, 137.712 84.766 M 93.500 87.536 C 91.750 88.337, 87.008 88.929, 82.121 88.955 L 73.742 89 74.426 95.046 C 74.802 98.371, 75.090 111.984, 75.066 125.296 C 75.020 150.439, 75.634 161, 77.140 161 C 77.625 161, 79.929 160.131, 82.261 159.069 C 93.302 154.038, 98.393 153.459, 102.250 156.796 C 103.898 158.221, 104 157.826, 104 150.040 L 104 141.770 101.582 143.354 C 96.212 146.873, 86.308 151.793, 83.272 152.450 C 75.521 154.128, 73.206 148.720, 79.250 143.055 C 81.037 141.380, 82.836 140.007, 83.246 140.005 C 83.656 140.002, 87.400 138.426, 91.565 136.502 C 95.731 134.577, 100.244 132.726, 101.595 132.387 L 104.052 131.770 103.493 115.635 C 102.786 95.173, 102.343 91.173, 100.471 88.315 C 98.756 85.698, 97.758 85.587, 93.500 87.536 M 102.492 161.563 C 101.937 162.452, 99.687 163.563, 97.492 164.031 C 95.296 164.499, 90.818 165.845, 87.540 167.023 C 84.263 168.202, 80.292 168.976, 78.716 168.745 C 76.217 168.378, 75.923 168.591, 76.412 170.412 C 76.720 171.561, 76.979 177.787, 76.986 184.250 L 77 196 89.393 196 C 100.245 196, 101.879 195.782, 102.532 194.250 C 103.336 192.365, 104.475 164.605, 103.867 161.701 C 103.534 160.110, 103.406 160.097, 102.492 161.563 M 195.996 174.698 C 194.647 177.548, 193.523 182.220, 193.231 186.193 C 192.879 190.986, 192.300 193.055, 191.191 193.480 C 190.339 193.807, 179.488 194.569, 167.078 195.173 C 142.938 196.349, 140.563 196.909, 139.357 201.714 C 138.923 203.444, 139.333 204.777, 140.730 206.174 C 142.674 208.119, 143.334 208.140, 168.022 207.078 C 181.937 206.479, 193.496 206.163, 193.709 206.375 C 194.131 206.798, 194.974 212.648, 197.474 232.500 C 198.375 239.650, 199.793 250.450, 200.627 256.500 C 201.461 262.550, 201.998 270.508, 201.822 274.184 L 201.500 280.869 196.803 278.601 C 194.220 277.353, 191.520 275.885, 190.803 275.337 C 190.086 274.789, 187.134 273.350, 184.242 272.140 C 177.877 269.474, 175 270.368, 175 275.012 C 175 277.150, 175.751 278.409, 177.750 279.621 C 179.262 280.539, 182.893 282.911, 185.819 284.895 C 195.486 291.448, 198.461 292.913, 202.194 292.957 C 210.795 293.058, 214.724 284.157, 212.963 268.560 C 211.856 258.764, 209.651 242.131, 207.453 227 C 206.694 221.775, 205.944 214.596, 205.786 211.048 L 205.500 204.595 211 203.453 C 218.019 201.996, 223.011 199.825, 225.328 197.223 C 227.057 195.281, 227.065 195.028, 225.463 192.585 C 223.518 189.615, 221.499 189.415, 214.591 191.511 C 211.891 192.330, 208.193 193, 206.374 193 L 203.066 193 202.783 181.750 C 202.517 171.162, 202.376 170.482, 200.385 170.198 C 198.720 169.960, 197.785 170.919, 195.996 174.698 M 151.256 229 C 146.992 229.979, 145 231.731, 145 234.500 C 145 237.582, 146.441 238.545, 154 240.517 C 162.227 242.663, 172.819 242.951, 176.257 241.122 C 182.207 237.957, 179.583 230.333, 172.998 231.650 C 171.417 231.967, 167.734 231.526, 164.812 230.671 C 157.192 228.441, 154.910 228.160, 151.256 229" stroke="none" fill="black" fill-rule="evenodd"/>
</svg>