<svg xmlns="http://www.w3.org/2000/svg" width="300" height="300" viewBox="0 0 300 300" version="1.1">
	<path d="M 158.502 28.220 C 154.653 28.750, 151.278 29.507, 151.002 29.901 C 150.340 30.846, 126.871 34.013, 120.588 34.006 C 114.809 33.999, 105.018 36.814, 103.284 38.981 C 102.241 40.285, 101.488 39.829, 97.957 35.750 C 94.095 31.289, 93.546 31, 88.945 31 C 84.968 31, 83.769 31.423, 82.572 33.250 C 80.534 36.360, 81.929 41.968, 85.929 46.747 C 87.656 48.811, 89.406 50.950, 89.817 51.500 C 91.397 53.615, 100.894 75.813, 102.866 82 C 104.005 85.575, 105.427 91.643, 106.025 95.484 C 106.623 99.325, 107.840 103.270, 108.727 104.251 C 110.238 105.920, 109.998 106.343, 105.010 110.810 C 100.342 114.992, 99.764 115.922, 100.359 118.293 C 101.030 120.970, 101.133 121, 109.519 121 C 114.184 121, 118 120.625, 118 120.168 C 118 119.710, 123.287 118.567, 129.750 117.628 C 154.753 113.994, 172.134 110.846, 177.621 108.958 C 188.452 105.232, 195 100.061, 195 95.235 C 195 92.900, 193.116 91, 190.800 91 C 189.810 91, 189 90.775, 189 90.500 C 189 90.225, 191.612 87.388, 194.805 84.195 C 197.997 81.003, 202.282 75.401, 204.325 71.746 C 206.369 68.092, 208.598 64.517, 209.280 63.801 C 212.570 60.345, 214.267 43.177, 211.750 38.798 C 209.843 35.478, 205.921 32.018, 203.328 31.367 C 202.048 31.046, 201 30.444, 201 30.030 C 201 27.329, 173.473 26.157, 158.502 28.220 M 165.214 42.994 C 161.206 43.438, 156.797 44.085, 155.414 44.432 C 148.707 46.116, 135.193 48.022, 123.005 49.003 C 115.583 49.601, 109.162 50.438, 108.737 50.863 C 108.311 51.289, 109.505 54.981, 111.391 59.069 C 115.426 67.814, 119 78.101, 119 80.968 C 119 82.086, 119.450 83, 120 83 C 120.596 83, 121 86.833, 121 92.500 C 121 99.071, 120.640 102, 119.833 102 C 119.192 102, 118.890 102.223, 119.163 102.497 C 119.436 102.770, 121.874 102.365, 124.580 101.597 C 127.286 100.829, 133.100 99.924, 137.500 99.586 C 141.900 99.248, 150.338 98.249, 156.250 97.366 C 166.105 95.895, 167 95.582, 167 93.601 C 167 92.278, 169.938 88.352, 174.583 83.470 C 184.832 72.697, 184.376 73.247, 189.275 65.787 C 194.619 57.651, 197.900 48.651, 196.394 46.263 C 195.818 45.350, 194.191 44.294, 192.778 43.916 C 188.178 42.686, 172.673 42.167, 165.214 42.994 M 156.126 117.883 C 152.354 121.406, 151 124.755, 151 130.565 C 151 133.004, 150.550 135, 150 135 C 148.771 135, 148.655 144.702, 149.878 145.167 C 150.361 145.350, 151.001 161.611, 151.299 181.303 C 151.677 206.172, 152.195 217.530, 152.997 218.497 C 154.273 220.034, 142.717 215.878, 137.220 212.823 C 135.415 211.820, 133.259 211, 132.428 211 C 131.597 211, 129.963 210.112, 128.798 209.027 C 127.633 207.942, 123.309 205.650, 119.189 203.935 C 115.069 202.220, 107.905 198.833, 103.270 196.408 C 98.635 193.984, 94.252 192, 93.529 192 C 91.934 192, 91 194.203, 91 197.965 C 91 200.967, 96.857 207.185, 100.889 208.465 C 102.050 208.833, 103 209.554, 103 210.067 C 103 210.580, 103.674 211, 104.497 211 C 105.321 211, 107.683 212.492, 109.747 214.316 C 111.811 216.140, 115.075 218.712, 117 220.033 C 118.925 221.354, 121.061 222.977, 121.746 223.642 C 123.231 225.081, 130.531 228.539, 141.500 232.999 C 145.900 234.788, 150.918 236.870, 152.651 237.626 C 154.384 238.382, 156.297 239, 156.901 239 C 157.506 239, 158 239.450, 158 240 C 158 240.550, 159.045 241, 160.322 241 C 161.599 241, 164.636 241.631, 167.072 242.402 C 169.507 243.172, 176.675 245.229, 183 246.971 C 189.325 248.714, 195.400 250.542, 196.500 251.035 C 199.448 252.354, 212.307 254.785, 222.541 255.957 C 240.575 258.023, 264.367 256.779, 273.334 253.301 C 281.435 250.158, 289.987 241.496, 289.996 236.424 C 290.001 233.645, 285.968 230, 282.887 230 C 281.347 230, 278.812 231.529, 276.217 234.022 C 273.915 236.234, 270.675 238.315, 269.016 238.647 C 267.357 238.979, 266 239.644, 266 240.125 C 266 240.606, 257.450 241, 247 241 C 235 241, 228 240.632, 228 240 C 228 239.450, 226.383 239, 224.407 239 C 216.964 239, 181 230.597, 181 228.858 C 181 228.386, 180.317 228, 179.482 228 C 178.646 228, 172.909 226.347, 166.732 224.327 C 155.660 220.707, 155.551 220.642, 159.121 219.759 C 163.834 218.592, 165.166 215.700, 165.768 205.331 C 166.182 198.196, 166.604 196.723, 169.098 193.697 C 171.900 190.298, 185.215 182.977, 191.413 181.429 C 196.462 180.168, 205.322 171.868, 207.703 166.168 C 210.052 160.546, 207.761 153, 203.706 153 C 201.775 153, 197 156.835, 197 158.385 C 197 160.863, 186.810 168.477, 176.311 173.846 C 174.215 174.917, 171.262 176.944, 169.750 178.349 L 167 180.905 166.992 168.702 C 166.988 161.991, 166.476 152.675, 165.855 148 C 165.233 143.325, 164.640 134.601, 164.536 128.613 C 164.374 119.278, 164.081 117.533, 162.482 116.363 C 159.951 114.512, 159.659 114.582, 156.126 117.883 M 77.721 141.096 C 72.883 143.912, 68.721 155.014, 65.384 174 C 62.979 187.680, 62.352 258.846, 64.598 263.189 C 66.332 266.543, 70.062 268.274, 73.627 267.379 C 78.877 266.061, 78.990 265.274, 80.004 222.840 C 81.045 179.306, 82.764 158.380, 86.009 149.705 C 88.614 142.743, 87.674 139.983, 82.715 140.030 C 80.947 140.047, 78.699 140.527, 77.721 141.096" stroke="none" fill="black" fill-rule="evenodd"/>
</svg>