<svg xmlns="http://www.w3.org/2000/svg" width="300" height="300" viewBox="0 0 300 300" version="1.1">
	<path d="M 191.181 10.586 C 186.488 13.873, 183.827 19.768, 183.253 28.146 C 182.956 32.466, 182.666 36.058, 182.607 36.129 C 182.548 36.200, 172.506 36.537, 160.291 36.879 C 139.649 37.456, 137.976 37.641, 136.573 39.500 C 134.593 42.124, 134.591 47.448, 136.570 49.427 C 139.103 51.961, 141.975 52.235, 161.998 51.857 L 181 51.498 181 55.603 L 181 59.709 167.381 60.415 C 149.983 61.318, 118.662 64.600, 113.622 66.049 C 108.195 67.610, 105 71.082, 105 75.419 C 105 81.224, 108.868 82.187, 121.500 79.525 C 130.983 77.527, 145.254 76.218, 164.877 75.545 L 181.253 74.983 180.616 78.169 C 180.266 79.921, 179.793 81.540, 179.566 81.767 C 179.339 81.994, 174.956 83.006, 169.827 84.015 C 164.697 85.024, 158.700 86.493, 156.500 87.279 C 154.300 88.065, 150.858 89.011, 148.850 89.381 C 144.045 90.266, 142.370 92.307, 143.595 95.788 C 145.560 101.377, 153.071 102.326, 168.902 98.984 C 174.073 97.893, 178.719 97, 179.227 97 C 179.774 97, 179.867 100.625, 179.454 105.903 C 178.900 112.981, 179.074 115.442, 180.302 117.903 L 181.847 121 177.173 121.043 C 172.307 121.087, 150.253 124.775, 139 127.427 C 135.425 128.269, 130.432 128.968, 127.905 128.979 C 122.849 129.002, 120 131.098, 120 134.794 C 120 138.708, 122.973 139.203, 143.850 138.771 C 159.787 138.441, 166.996 137.780, 182 135.275 C 192.175 133.576, 204.325 131.706, 209 131.119 C 221.164 129.590, 239.985 126.150, 243.500 124.812 C 248.571 122.883, 250 121.058, 250 116.514 C 250 113.175, 249.549 112.118, 247.750 111.242 C 243.700 109.270, 242.559 109.258, 237.713 111.140 C 235.080 112.163, 231.480 113.007, 229.713 113.016 C 227.946 113.025, 218.850 114.368, 209.500 116 C 189.594 119.475, 188.273 119.581, 189.941 117.571 C 190.593 116.786, 191.780 111.723, 192.578 106.321 C 193.377 100.920, 194.207 96.009, 194.423 95.408 C 194.901 94.079, 212.183 91.473, 214.535 92.375 C 219.802 94.396, 230.601 86.936, 235.955 77.579 L 239.009 72.240 245.755 71.239 C 258.375 69.364, 263.317 65.595, 261.033 59.586 C 259.699 56.079, 256.571 55.393, 246 56.288 C 244.356 56.428, 243.597 56.039, 243.782 55.153 C 247.573 37.074, 241.550 30.036, 224.671 32.819 C 217.094 34.068, 196.999 35.580, 197.001 34.900 C 197.002 34.680, 197.691 31.125, 198.532 27 C 201.161 14.113, 201.340 12.114, 200.008 10.510 C 198.377 8.544, 194.043 8.581, 191.181 10.586 M 215 49.036 C 211.425 49.437, 205.688 49.819, 202.250 49.883 C 196.038 49.999, 196 50.018, 196 52.918 C 196 54.523, 195.699 56.621, 195.331 57.581 C 194.706 59.209, 195.678 59.283, 209.998 58.695 C 218.433 58.349, 225.663 57.713, 226.064 57.283 C 226.466 56.852, 227.105 54.587, 227.485 52.250 L 228.176 48 224.838 48.152 C 223.002 48.236, 218.575 48.634, 215 49.036 M 39.475 54.622 C 36.156 58.202, 35.584 62.359, 36.889 73.420 C 39.080 91.994, 37.732 171.187, 34.887 191.106 C 33.956 197.621, 34.034 199.164, 35.426 201.856 C 36.367 203.677, 37.837 205, 38.917 205 C 40.108 205, 41.027 205.972, 41.458 207.688 C 42.415 211.503, 44.793 212.932, 50.248 212.968 L 54.997 213 51.643 217.750 C 49.799 220.363, 46.789 227, 44.954 232.500 C 43.120 238, 40.612 245.200, 39.381 248.500 C 31.702 269.091, 31.458 273.204, 37.877 273.822 C 43.676 274.380, 48.084 268.568, 54.426 252 C 56.426 246.775, 58.500 241.464, 59.033 240.199 C 59.567 238.933, 60.719 234.433, 61.593 230.199 C 63.634 220.313, 64.529 218.678, 65.390 223.267 C 66.098 227.038, 71.500 237.964, 75.854 244.429 C 79.064 249.196, 89.370 257, 92.455 257 C 95.167 257, 98 254.088, 98 251.302 C 98 250.180, 96.177 246.972, 93.949 244.173 C 91.721 241.375, 88.683 236.833, 87.199 234.080 C 83.599 227.404, 72.454 216, 69.529 216 C 67.441 216, 67.324 215.653, 67.747 210.750 C 68.082 206.865, 68.753 205.110, 70.326 204 C 71.496 203.175, 73.917 201.223, 75.708 199.663 L 78.963 196.826 81.616 198.913 C 86.720 202.928, 92.059 200.789, 95.131 193.500 C 96 191.438, 96.523 182.366, 96.803 164.500 C 97.205 138.849, 96.250 117.920, 93.432 90.643 C 92.644 83.022, 92 74.299, 92 71.259 C 92 59.752, 87.769 53.179, 79.782 52.279 C 76.446 51.903, 72.945 52.643, 64.992 55.406 C 59.262 57.397, 54.129 59.471, 53.587 60.013 C 52.030 61.570, 51.264 61.189, 50.596 58.528 C 49.821 55.438, 46.223 52, 43.764 52 C 42.741 52, 40.811 53.180, 39.475 54.622 M 66.500 70.105 C 61.155 72.071, 57.372 72.887, 55.100 72.562 L 51.701 72.077 52.350 82.694 C 52.708 88.533, 53 98.796, 53 105.500 L 53 117.688 61.250 115.895 C 72.594 113.428, 75.188 113.519, 78.398 116.493 L 81.088 118.986 80.601 115.743 C 80.332 113.959, 79.362 102.825, 78.444 91 C 77.526 79.175, 76.614 68.938, 76.419 68.250 C 75.959 66.634, 75.909 66.643, 66.500 70.105 M 200.750 74.739 C 195.190 75.088, 195 75.193, 195 77.930 L 195 80.760 206.250 80.284 C 215.930 79.875, 217.744 79.528, 219.250 77.794 C 220.213 76.685, 221 75.378, 221 74.889 C 221 74.036, 212.916 73.976, 200.750 74.739 M 78.739 125.594 C 78.412 125.921, 74.210 127.545, 69.400 129.203 C 63.223 131.332, 59.530 132.066, 56.827 131.704 L 53 131.190 53 137.702 C 53 143.509, 53.190 144.137, 54.750 143.501 C 60.742 141.061, 71.370 138.847, 74.379 139.411 C 78.093 140.108, 81.171 144.630, 80.272 148.070 C 79.768 149.995, 75.016 153.250, 70.873 154.507 C 68.753 155.150, 52.887 161.127, 52.241 161.525 C 52.098 161.613, 51.517 169.069, 50.949 178.093 C 50.382 187.117, 49.509 195.738, 49.011 197.250 C 48.512 198.762, 48.286 200, 48.508 200 C 48.730 200, 51.069 198.758, 53.706 197.240 C 56.343 195.721, 59.643 193.896, 61.039 193.184 C 62.435 192.471, 66.251 189.888, 69.519 187.444 C 75.052 183.306, 80 181.680, 80 184 C 80 184.550, 80.450 185, 81 185 C 82.116 185, 82.412 139.071, 81.352 130.250 C 80.758 125.309, 80.135 124.198, 78.739 125.594 M 237.376 141.549 C 235.811 143.937, 235.767 144.792, 236.947 149.856 C 237.671 152.960, 238.541 157.960, 238.881 160.967 C 239.399 165.539, 239.941 166.680, 242.196 167.942 C 244.711 169.349, 245.056 169.296, 247.329 167.161 C 253.777 161.103, 250.856 145.740, 242.307 140.747 L 239.121 138.886 237.376 141.549 M 191.780 144.064 C 190.833 144.615, 189.605 146.753, 189.050 148.815 C 187.014 156.377, 191.042 162.821, 200.500 167.133 C 205.619 169.466, 209.256 169.479, 211.345 167.171 C 214.760 163.397, 212.648 158.389, 206.248 155.089 C 205.010 154.450, 203.377 152.445, 202.620 150.632 C 201.229 147.303, 196.671 142.974, 194.615 143.030 C 194.002 143.047, 192.726 143.512, 191.780 144.064 M 150.635 152.073 C 148.635 153.646, 148 155.039, 148 157.852 C 148 161.005, 148.839 162.418, 153.622 167.317 C 159.750 173.593, 162.735 175.489, 168.035 176.470 C 171.878 177.182, 174.416 175.796, 175.404 172.447 C 175.871 170.863, 174.644 169.037, 170.029 164.447 C 166.739 161.176, 163.278 157.071, 162.337 155.325 C 160.696 152.281, 157.378 150, 154.588 150 C 153.863 150, 152.084 150.933, 150.635 152.073 M 122.073 153.635 C 120.264 155.934, 120 157.657, 120 167.167 C 120 179.381, 121.398 184.313, 125.374 186.125 C 128.235 187.428, 132.166 186.691, 134.430 184.427 C 136.151 182.706, 136.596 177, 135.009 177 C 134.405 177, 134.092 172.848, 134.206 166.367 C 134.390 155.904, 134.348 155.696, 131.640 153.367 C 128.021 150.254, 124.658 150.348, 122.073 153.635 M 221.816 185.464 C 216.490 186.225, 207.423 187.801, 201.665 188.967 C 195.908 190.132, 183.166 191.928, 173.349 192.958 C 154.154 194.971, 145.030 197.498, 142.387 201.533 C 139.115 206.526, 143.236 209.001, 154.815 208.998 L 162.500 208.995 162.201 217.248 C 161.851 226.904, 164.987 244.223, 167.610 247.121 C 168.741 248.372, 168.895 249, 168.068 249 C 163.884 249, 139.492 252.447, 128.570 254.582 C 115.956 257.048, 113.118 258.357, 113.032 261.750 C 112.988 263.469, 116.551 266.879, 119.605 268.040 C 123.104 269.370, 128.428 269.243, 140.313 267.544 C 177.843 262.181, 204.649 260.633, 237.351 261.941 C 273.825 263.400, 283.592 262.148, 288.960 255.323 C 291.797 251.717, 291.325 247.311, 287.822 244.708 L 285.144 242.717 281.515 244.859 C 277.954 246.960, 277.057 247, 233.913 247 L 189.940 247 191.972 244.250 C 193.089 242.738, 195.613 237, 197.581 231.500 C 201.023 221.877, 202.241 212.322, 200.895 205.500 C 200.567 203.842, 201.098 203.454, 204 203.231 C 205.925 203.083, 212 202.326, 217.500 201.549 C 234.158 199.195, 240 198.788, 240 199.982 C 240 202.126, 235.814 213.425, 232.830 219.336 C 231.154 222.657, 227.694 227.567, 225.141 230.247 C 218.782 236.924, 218.195 238.442, 220.682 241.786 C 223.441 245.495, 226.082 245.625, 232.107 242.345 C 241.246 237.371, 249.853 225.071, 255.977 208.233 C 259.530 198.465, 258.043 191.728, 251.194 186.561 C 247.956 184.119, 234.701 183.624, 221.816 185.464 M 119.241 203.986 C 118.558 205.079, 118 206.842, 118 207.904 C 118 211.010, 121.455 218.169, 125.113 222.642 C 130.159 228.813, 135.807 236.727, 137.496 239.991 C 140.480 245.762, 145.491 247.509, 149 244 C 151.533 241.467, 151.508 237.720, 148.921 232 C 144.093 221.326, 130.873 205.043, 125.322 202.932 C 121.746 201.573, 120.627 201.767, 119.241 203.986 M 182 206.882 L 178.500 207.500 178.221 220.748 C 178.068 228.035, 178.329 235.460, 178.802 237.248 L 179.663 240.500 181.702 236.500 C 182.824 234.300, 184.059 229.800, 184.446 226.500 C 184.833 223.200, 186.241 217.436, 187.575 213.690 C 188.909 209.945, 190 206.683, 190 206.440 C 190 205.887, 186.554 206.077, 182 206.882" stroke="none" fill="black" fill-rule="evenodd"/>
</svg>