<svg xmlns="http://www.w3.org/2000/svg" width="300" height="300" viewBox="0 0 300 300" version="1.1">
	<path d="M 223 42.006 C 221.075 42.443, 216.800 43.357, 213.500 44.037 C 210.200 44.717, 203.389 46.337, 198.365 47.637 C 193.341 48.937, 188.440 50, 187.474 50 C 184.317 50, 176.793 54.415, 175.886 56.799 C 175.399 58.081, 175 60.667, 175 62.546 C 175 67.506, 177.781 67.818, 189.684 64.197 C 198.002 61.666, 214.556 57.516, 224.090 55.571 L 226.680 55.042 227.340 82.184 C 228.511 130.337, 228.151 220.407, 226.766 225.583 L 225.533 230.195 185.016 229.893 L 144.500 229.590 138.500 231.951 C 131.209 234.819, 128.073 236.969, 128.031 239.128 C 127.954 243.149, 128.076 243.155, 207.200 243.331 C 273.267 243.477, 283.898 243.299, 286.471 242 C 289.798 240.320, 292.001 236.721, 291.313 234.089 C 290.673 231.643, 285.366 228.599, 284.417 230.134 C 283.883 230.999, 278.007 231.119, 261.633 230.601 C 249.497 230.216, 239.489 229.811, 239.392 229.701 C 239.295 229.590, 239.642 227.250, 240.164 224.500 C 243.248 208.223, 241.690 54.169, 238.375 47.759 C 235.784 42.748, 229.722 40.480, 223 42.006 M 101 46.441 C 98.525 47.159, 94.025 48.649, 91 49.752 C 87.975 50.855, 82.350 52.889, 78.500 54.273 C 74.650 55.657, 69.495 57.706, 67.044 58.827 C 62.233 61.026, 61 60.877, 61 58.094 C 61 55.309, 57.542 52, 54.633 52 C 49.021 52, 46.646 57.790, 48.955 65.842 C 49.480 67.673, 50.413 78.695, 51.028 90.335 L 52.146 111.500 55.558 114.750 C 57.435 116.537, 59.765 117.998, 60.735 117.996 C 61.706 117.994, 66.100 116.614, 70.500 114.930 C 74.900 113.245, 80.913 111.003, 83.863 109.948 L 89.225 108.030 88.529 110.265 C 87.110 114.824, 86.903 123.011, 87.715 142.500 C 88.703 166.210, 87.894 187.463, 85.414 202.979 C 83.643 214.057, 83.646 214.268, 85.556 215.664 C 86.624 216.446, 88.579 216.953, 89.900 216.792 C 95.423 216.120, 98.827 205.893, 99.707 187.329 C 100.025 180.635, 100.586 174.670, 100.955 174.073 C 101.323 173.477, 106.290 172.544, 111.991 172.001 C 123.263 170.927, 127 169.022, 127 164.349 C 127 160.231, 123.215 158.811, 113.315 159.213 C 108.467 159.409, 103.784 159.913, 102.909 160.331 C 101.487 161.011, 101.245 158.516, 100.625 136.796 C 100.244 123.433, 99.549 110.831, 99.081 108.791 L 98.229 105.083 105.247 104.791 C 111.108 104.548, 112.497 104.150, 113.672 102.374 C 114.938 100.461, 114.824 99.945, 112.540 97.230 C 109.671 93.821, 109.351 91.783, 111.414 90.072 C 112.191 89.426, 113.769 87.009, 114.920 84.699 C 116.070 82.390, 117.431 79.825, 117.945 79 C 121.779 72.836, 124 65.687, 124 59.506 C 124 53.316, 123.790 52.695, 120.754 49.923 C 115.487 45.112, 109.324 44.025, 101 46.441 M 163.407 48.746 C 162.201 48.949, 160.300 50.880, 158.924 53.299 C 156.570 57.438, 156.524 58.030, 155.810 93.500 C 155.412 113.300, 154.598 140.975, 154.002 155 C 153.406 169.025, 152.655 187.700, 152.332 196.500 C 151.886 208.682, 151.386 212.912, 150.238 214.227 C 149.201 215.417, 148.914 217.085, 149.320 219.583 C 150.608 227.520, 155.450 230.343, 159.812 225.701 C 164.455 220.758, 166.946 185.519, 167.885 111.500 C 168.261 81.800, 168.905 56.958, 169.315 56.296 C 170.402 54.541, 169.035 50.073, 167.135 49.171 C 166.236 48.743, 164.558 48.552, 163.407 48.746 M 96 62.081 C 91.325 63.714, 86.150 65.440, 84.500 65.918 C 82.850 66.395, 78.176 68.184, 74.112 69.893 C 70.049 71.602, 66.224 73, 65.612 73 C 64.847 73, 64.491 77.679, 64.471 88.022 C 64.445 101.149, 64.634 102.957, 65.971 102.346 C 71.143 99.981, 88.294 94.791, 92.500 94.317 L 97.500 93.754 101.450 85.127 C 105.176 76.988, 111 61.542, 111 59.798 C 111 58.172, 104.253 59.199, 96 62.081 M 200 114.634 C 197.525 115.425, 192.125 116.973, 188 118.076 C 175.614 121.387, 172.759 123.129, 171.500 128.142 C 170.998 130.146, 171.396 131.299, 173.170 132.978 C 175.147 134.849, 176.253 135.096, 180.471 134.612 C 183.204 134.299, 188.604 132.961, 192.471 131.640 C 204.349 127.582, 213.363 125.049, 218.366 124.363 C 223.751 123.625, 226 121.922, 226 118.584 C 226 114.223, 223.174 112.991, 213.421 113.099 C 208.515 113.153, 202.475 113.844, 200 114.634 M 48.278 156.543 C 46.680 159.894, 46.692 160.583, 48.500 169.293 C 50.031 176.665, 50.411 182.685, 50.407 199.500 C 50.401 221.555, 49.374 229, 46.338 229 C 43.456 229, 33.148 235.326, 32.579 237.445 C 31.643 240.932, 31.919 241.901, 34.292 243.456 C 36.317 244.782, 37.920 244.791, 48.042 243.529 C 61.763 241.819, 69.643 240.003, 81 235.935 C 85.675 234.260, 91.975 232.087, 95 231.107 C 107.739 226.978, 126.688 216.320, 129.013 211.975 C 129.891 210.335, 129.879 209.122, 128.962 206.909 C 127.440 203.234, 123.884 203.038, 118.982 206.360 C 114.549 209.364, 103.507 214.134, 94.500 216.937 C 90.650 218.134, 84.764 219.990, 81.420 221.061 C 78.075 222.131, 72.068 223.866, 68.070 224.915 L 60.801 226.824 61.419 224.162 C 65.493 206.612, 65.978 192.418, 63.098 175 C 60.966 162.102, 59.813 158.510, 56.759 155.250 C 53.546 151.820, 50.294 152.316, 48.278 156.543 M 186.500 156.012 C 174.626 156.753, 169 159.700, 169 165.180 C 169 169.667, 172.130 170.350, 188.500 169.437 C 196.200 169.007, 204.975 168.770, 208 168.910 C 211.025 169.049, 215.059 169.239, 216.964 169.332 C 219.866 169.473, 220.578 169.077, 221.357 166.890 C 222.979 162.341, 221.482 159.338, 216.752 157.648 C 211.816 155.885, 199.346 155.210, 186.500 156.012" stroke="none" fill="black" fill-rule="evenodd"/>
</svg>