<svg xmlns="http://www.w3.org/2000/svg" width="300" height="300" viewBox="0 0 300 300" version="1.1">
	<path d="M 187.798 30.706 C 186.334 32.243, 182.738 38.225, 179.805 44 C 176.873 49.775, 172.390 57.425, 169.843 61 C 164.825 68.043, 162 73.967, 162 77.448 C 162 78.660, 163.165 80.742, 164.588 82.076 C 166.835 84.180, 168.055 84.481, 173.838 84.356 C 180.909 84.203, 191.410 81.854, 196.456 79.295 C 198.130 78.446, 201.473 76.152, 203.884 74.199 C 208.063 70.812, 208.332 70.734, 209.634 72.514 C 210.385 73.542, 211 75.127, 211 76.036 C 211 78.298, 214.185 81, 216.850 81 C 222.068 81, 222.023 73.894, 216.718 60 C 213.367 51.226, 211.014 50.817, 205.024 57.971 C 202.686 60.764, 198.793 64.209, 196.372 65.628 C 192.132 68.113, 178.048 72.382, 177.128 71.461 C 176.881 71.214, 177.370 70.222, 178.214 69.256 C 180.749 66.355, 192.851 43.793, 194.557 38.787 C 195.430 36.223, 196 32.860, 195.823 31.313 C 195.360 27.278, 191.352 26.974, 187.798 30.706 M 102 64.063 C 98.975 65.121, 93.800 66.252, 90.500 66.576 C 82.657 67.345, 79.560 68.585, 77.946 71.601 C 76.770 73.799, 76.868 74.312, 78.840 76.285 C 80.790 78.234, 82.105 78.500, 89.810 78.500 C 96.277 78.500, 99.670 78.002, 102.793 76.594 C 105.118 75.545, 107.304 74.971, 107.651 75.317 C 108.575 76.242, 109.750 108.227, 110.439 151.250 L 111.044 189 104.581 189 C 101.026 189, 97.871 189.399, 97.570 189.887 C 97.269 190.374, 95.330 191.091, 93.261 191.479 C 89.247 192.231, 80.953 195.937, 74.655 199.792 L 70.809 202.146 71.427 199.323 C 72.439 194.698, 73.976 176.693, 74.996 157.500 C 76.194 134.955, 76.780 130.380, 78.279 131.879 C 80.393 133.993, 85.864 133.037, 92.486 129.397 C 97.346 126.726, 99.713 125.962, 101.638 126.445 C 106.724 127.722, 110.118 121.261, 106.345 117.488 C 103.798 114.941, 100.116 113.893, 96.127 114.581 C 90.926 115.477, 82.172 120.916, 79.386 124.982 L 77 128.464 76.985 122.482 C 76.965 114.422, 74.237 79.130, 73.393 76 C 71.897 70.459, 67.607 68.468, 63.639 71.473 C 62.121 72.623, 61.898 73.676, 62.426 77.191 C 63.695 85.632, 64.797 118.766, 64.348 135 C 63.939 149.767, 61.095 187.028, 59.092 203.830 C 58.446 209.259, 58.609 210.505, 60.242 212.580 C 62.355 215.266, 66.124 215.760, 67.928 213.587 C 68.573 212.810, 71.440 211.852, 74.300 211.459 C 77.160 211.066, 81.975 209.608, 85 208.221 C 88.025 206.833, 94.070 204.445, 98.433 202.914 L 106.366 200.131 109.260 202.565 C 113.835 206.415, 118.051 205.702, 120.720 200.629 C 123.046 196.206, 123.382 178.013, 122.151 123 C 121.067 74.549, 120.512 69.303, 115.962 64.459 C 113.161 61.478, 109.676 61.379, 102 64.063 M 208.316 81.079 C 204.231 82.590, 199.595 93.011, 195.992 108.783 C 194.550 115.093, 195.653 118.689, 200.206 122.520 C 203.910 125.637, 208.850 125.755, 216.300 122.904 C 222.743 120.438, 227.737 116.539, 233.034 109.838 C 235.272 107.007, 237.149 105.432, 237.537 106.059 C 237.902 106.651, 237.916 111.042, 237.566 115.818 C 237.217 120.593, 237.333 125.099, 237.824 125.830 C 238.327 126.579, 239.981 127.016, 241.609 126.830 C 244.124 126.543, 244.746 125.786, 246.394 121 C 248.505 114.869, 248.927 104.098, 247.434 94.500 C 246.575 88.984, 246.280 88.475, 243.774 88.186 C 241.596 87.935, 240.643 88.537, 239.028 91.186 C 237.917 93.009, 237.006 95.602, 237.004 96.950 C 237.001 98.856, 236.733 99.133, 235.800 98.200 C 233.632 96.032, 230.567 96.938, 226.026 101.089 C 218.812 107.683, 208 112.942, 208 109.857 C 208 109.207, 209.602 103.986, 211.561 98.254 C 215.293 87.332, 215.444 83.383, 212.207 81.361 C 211.194 80.729, 209.579 80.611, 208.316 81.079 M 153.552 88.138 C 150.361 90.648, 144.381 102.454, 141.059 112.803 C 139.024 119.145, 138.870 120.622, 139.890 124.027 C 141.658 129.930, 146.276 133, 153.384 133 C 159.890 133, 164.997 130.805, 170.902 125.470 C 174.458 122.257, 174.810 122.142, 176.159 123.763 C 179.410 127.671, 182.953 134, 181.889 134 C 181.173 134, 180.959 135.047, 181.314 136.819 C 181.816 139.332, 180.932 140.561, 173.189 148.113 C 165.100 156.002, 148.188 171.475, 138 180.308 C 130.756 186.588, 128.714 191.692, 132.427 194.235 C 135.426 196.288, 137.708 194.797, 159.034 176.853 C 170.035 167.597, 184.312 153.550, 190.545 145.850 L 193.500 142.199 210.268 150.534 C 219.490 155.118, 229.615 159.633, 232.768 160.567 C 238.580 162.289, 251.425 164.997, 253.795 164.999 C 255.322 165, 260 160.541, 260 159.084 C 260 157.509, 255.808 154, 253.926 154 C 252.181 154, 243.055 151.434, 239.500 149.944 C 238.400 149.483, 234.350 147.900, 230.500 146.427 C 218.178 141.713, 202 132.917, 202 130.931 C 202 127.855, 199.022 125.746, 195.636 126.423 C 193.966 126.757, 192.264 127.573, 191.854 128.237 C 191.336 129.075, 190.910 128.841, 190.462 127.472 C 190.106 126.387, 188.732 122.883, 187.408 119.684 C 186.083 116.485, 185 112.518, 185 110.868 C 185 105.782, 183.293 103.691, 179.723 104.405 C 175.943 105.161, 173 107.678, 173 110.155 C 173 111.247, 172.284 112, 171.247 112 C 170.283 112, 167.316 113.548, 164.654 115.441 C 159.513 119.096, 154.385 120.785, 152.909 119.309 C 152.082 118.482, 156.990 103.996, 158.931 101.530 C 159.377 100.963, 160.332 98.151, 161.053 95.279 C 162.245 90.528, 162.198 89.876, 160.527 88.029 C 158.200 85.459, 156.933 85.478, 153.552 88.138 M 90 149.221 C 76.443 155.108, 77 154.736, 77 157.906 C 77 161.591, 80.622 165.344, 83.500 164.642 C 84.600 164.373, 90.450 162.432, 96.500 160.327 C 105.614 157.156, 107.553 156.125, 107.811 154.311 C 108.373 150.369, 104.731 147.991, 98.250 148.068 C 95.088 148.105, 91.375 148.624, 90 149.221 M 204.187 161.696 C 201.046 162.320, 183.040 179.789, 177.422 187.661 C 173.873 192.634, 172.944 194.742, 173.188 197.266 C 173.457 200.057, 173.911 200.534, 176.500 200.746 C 179.152 200.963, 181.502 199.046, 196.750 184.221 C 206.238 174.998, 213.986 167.012, 213.968 166.475 C 213.859 163.127, 208.981 160.743, 204.187 161.696 M 204.245 187.447 C 202.646 188.793, 199.160 193.139, 196.499 197.106 C 193.837 201.072, 190.461 205.709, 188.995 207.409 C 183.215 214.114, 181 218.368, 181 222.764 C 181 226.289, 181.399 227.212, 183.213 227.883 C 186.473 229.089, 189.025 228.069, 190.136 225.113 C 190.677 223.676, 192.571 220.925, 194.344 219 C 204.955 207.486, 214 193.891, 214 189.457 C 214 187.543, 211.150 185, 209.005 185 C 207.987 185, 205.845 186.101, 204.245 187.447 M 92.329 207.775 C 91.184 208.504, 86 218.102, 86 219.494 C 86 219.881, 85.379 221.616, 84.620 223.349 C 83.860 225.082, 82.230 228.975, 80.996 232 C 78.057 239.204, 75.064 246.070, 73.918 248.236 C 72.635 250.662, 72.774 254.374, 74.200 255.800 C 75.971 257.571, 80.457 257.258, 82.288 255.234 C 83.167 254.263, 86.769 247.463, 90.293 240.123 L 96.700 226.778 101.600 232.057 C 104.295 234.961, 110.550 241.289, 115.500 246.120 C 124.602 255.002, 128.745 257.287, 131.541 254.966 C 134.931 252.153, 132.379 246.888, 122.589 236.500 C 119.998 233.750, 116.704 230.008, 115.270 228.184 C 112.602 224.792, 107.648 221.800, 102.750 220.623 C 100.394 220.057, 100 219.456, 100 216.431 C 100 209.712, 96.137 205.353, 92.329 207.775 M 225.288 212.207 C 224.723 212.918, 223.749 215.090, 223.124 217.034 C 222.499 218.978, 220.554 222.128, 218.802 224.034 C 217.050 225.940, 213.642 231.059, 211.229 235.408 C 204.868 246.871, 201.194 252.045, 192.890 261.238 C 178.697 276.952, 173.870 281.177, 168.716 282.396 C 165.699 283.110, 163.360 286.891, 164.346 289.460 C 165.856 293.393, 174.453 292.762, 182 288.164 C 189.253 283.744, 207.271 264.457, 213.500 254.445 C 216.800 249.141, 221.468 241.808, 223.874 238.150 C 229.695 229.299, 231.955 224.229, 231.963 220 C 231.976 213.630, 227.921 208.895, 225.288 212.207" stroke="none" fill="black" fill-rule="evenodd"/>
</svg>