<svg xmlns="http://www.w3.org/2000/svg" width="300" height="300" viewBox="0 0 300 300" version="1.1">
	<path d="M 204.621 10.521 C 203.687 11.456, 202.959 13.914, 202.904 16.321 C 202.754 22.789, 200.663 31.224, 199 32.064 C 198.175 32.480, 189.400 34.057, 179.500 35.567 C 169.600 37.077, 160.495 38.923, 159.266 39.669 C 155.838 41.750, 155.301 45.627, 158.038 48.540 C 161.433 52.154, 165.037 52.335, 181 49.691 C 188.975 48.371, 195.586 47.348, 195.690 47.419 C 196.234 47.786, 191.764 59.650, 190.721 60.607 C 190.049 61.223, 186.310 62.231, 182.410 62.847 C 172.846 64.357, 162.860 67.535, 159.583 70.113 C 157.503 71.750, 156.960 72.944, 157.195 75.366 C 157.491 78.407, 157.678 78.520, 163.500 79.188 C 166.800 79.566, 172.174 79.464, 175.441 78.962 C 178.709 78.460, 181.623 78.290, 181.917 78.583 C 182.211 78.877, 179.946 83.929, 176.884 89.809 C 172.907 97.447, 170.531 100.886, 168.563 101.851 C 167.048 102.593, 158.943 103.735, 150.553 104.388 C 131.891 105.840, 128.075 107.534, 131.030 113.055 C 133.056 116.841, 137.261 118, 148.976 118 L 160.051 118 158.391 121.250 C 156.500 124.952, 145.057 140.328, 143.818 140.833 C 143.368 141.017, 143 141.622, 143 142.178 C 143 142.735, 140.128 146.911, 136.617 151.460 C 133.106 156.008, 127.502 163.727, 124.163 168.614 C 120.825 173.501, 117.182 178.625, 116.069 180 C 113.622 183.022, 113.502 184.844, 115.557 187.777 C 119.011 192.709, 123.270 190.157, 134.729 176.294 C 147.256 161.138, 174.786 123.249, 177.236 117.791 C 178.099 115.867, 179.817 114.636, 183.164 113.541 C 189.034 111.621, 191.919 111.481, 190.200 113.200 C 189.540 113.860, 189 114.742, 189 115.161 C 189 116.648, 193.580 120.220, 199.061 123.009 C 202.119 124.565, 209.498 129.137, 215.458 133.169 C 221.418 137.201, 229.785 142.750, 234.050 145.500 C 238.315 148.250, 242.636 151.214, 243.652 152.087 C 244.668 152.960, 248.650 155.485, 252.500 157.700 C 256.350 159.914, 262.174 163.363, 265.441 165.363 C 268.709 167.363, 271.992 169, 272.737 169 C 273.481 169, 275.223 167.868, 276.608 166.483 C 281.615 161.476, 277.937 157.115, 258.911 145.500 C 258.010 144.950, 252.651 141.350, 247.003 137.500 C 225.728 122.999, 217.760 118.597, 205.458 114.550 L 193.628 110.659 201.564 108.208 C 220.643 102.315, 249.771 92.690, 252.761 91.289 C 256.741 89.425, 257.856 85.955, 255.587 82.493 C 253.495 79.299, 251.709 79.357, 239.587 83.011 C 234.135 84.655, 228.863 86, 227.872 86 C 226.881 86, 224.142 86.626, 221.785 87.391 C 219.428 88.156, 214.800 89.526, 211.500 90.434 C 208.200 91.343, 201.926 93.180, 197.557 94.517 C 193.188 95.854, 189.477 96.810, 189.309 96.642 C 189.141 96.475, 191.591 91.199, 194.752 84.919 L 200.500 73.500 208.500 71.834 C 212.900 70.917, 220.467 70.130, 225.316 70.084 C 230.164 70.038, 235.002 69.534, 236.066 68.965 C 240.045 66.835, 237.196 59.821, 231.668 58.135 C 226.668 56.611, 216.896 55.988, 212.250 56.899 C 207.380 57.853, 207.314 57.700, 209.692 51.006 L 211.383 46.243 224.442 44.523 C 239.363 42.558, 243.514 41.160, 245.162 37.543 C 246.455 34.706, 244.975 30.588, 242.291 29.558 C 241.506 29.257, 235.431 29.482, 228.791 30.058 C 222.152 30.635, 216.108 30.872, 215.360 30.585 C 214.438 30.231, 213.987 28.203, 213.959 24.281 C 213.913 17.846, 210.628 9.708, 207.871 9.200 C 206.976 9.035, 205.513 9.630, 204.621 10.521 M 99.865 47.469 C 99.607 47.727, 93.910 48.833, 87.206 49.926 C 80.501 51.020, 73.132 52.480, 70.829 53.169 C 65.711 54.703, 60 60.150, 60 63.498 C 60 66.656, 63.408 68.616, 66.375 67.165 C 67.544 66.593, 72.325 65.882, 77 65.586 C 81.675 65.290, 87.975 64.603, 91 64.059 C 94.025 63.515, 98.671 62.763, 101.325 62.387 L 106.150 61.704 101.325 69.568 C 98.671 73.894, 94.584 79.444, 92.243 81.903 C 86.262 88.182, 84.860 90.594, 85.562 93.391 C 86.087 95.484, 85.675 95.951, 82.332 97.043 C 76.062 99.092, 61.454 107.688, 59.787 110.310 C 58.640 112.115, 58.823 112.823, 61 115 C 63.333 117.333, 66.601 117.509, 73.641 115.683 C 79.443 114.178, 79.345 113.872, 76.156 123.500 C 74.700 127.895, 74.549 133.096, 74.903 166.500 C 75.125 187.400, 75.350 210.510, 75.403 217.855 L 75.500 231.210 68.500 235.140 C 64.650 237.301, 59.250 240.173, 56.500 241.521 C 39.235 249.987, 33.649 253.540, 31.379 257.500 C 24.685 269.179, 31.712 271.063, 49.312 262.306 C 61.423 256.280, 69.171 251.715, 87.500 239.806 C 91.350 237.304, 97.200 233.561, 100.500 231.487 C 107.539 227.063, 118.117 217.997, 120.522 214.326 C 121.802 212.373, 121.964 211.217, 121.197 209.533 C 120.283 207.527, 120.420 207.358, 122.612 207.777 C 124.165 208.074, 126.479 207.287, 129.040 205.592 C 133.703 202.506, 133.397 202.022, 134.989 215 C 135.631 220.225, 137.069 229, 138.186 234.500 C 139.302 240, 140.284 248.374, 140.368 253.108 C 140.550 263.424, 141.697 265.473, 146.825 264.641 C 148.704 264.336, 155.475 264.790, 161.871 265.649 C 172.009 267.011, 176.340 267.050, 195.654 265.954 C 207.838 265.263, 221.252 264.957, 225.463 265.276 C 234.620 265.968, 238.522 264.825, 240.580 260.845 C 241.940 258.216, 241.940 257.585, 240.579 254.857 C 239.169 252.031, 239.213 251.504, 241.185 247.654 C 245.915 238.419, 248.081 227.468, 248.906 208.631 C 249.336 198.803, 249.388 189.128, 249.021 187.131 C 247.955 181.325, 244.113 176.351, 239.668 175.019 C 232.198 172.781, 214.460 177.599, 209.156 183.307 C 206.549 186.112, 206.877 189.509, 209.844 190.451 C 211.447 190.959, 220.313 190.101, 230.750 188.426 L 235 187.744 234.994 191.622 C 234.991 193.755, 234.707 199.105, 234.364 203.511 L 233.740 211.522 222.393 211.738 C 210.889 211.957, 205.619 213.224, 201.787 216.693 C 197.316 220.739, 201.936 227.003, 209.385 226.996 C 211.648 226.994, 217.550 226.327, 222.500 225.514 C 233.721 223.670, 233 223.642, 233 225.919 C 233 228.857, 230.168 239.854, 227.829 246 L 225.736 251.500 203.618 251.165 C 186.696 250.909, 178.387 251.242, 168.249 252.581 C 160.961 253.544, 154.819 254.145, 154.599 253.916 C 154.380 253.687, 154.042 249, 153.850 243.500 L 153.500 233.500 166.487 226.994 C 179.799 220.325, 180.808 219.356, 179.570 214.421 C 178.666 210.822, 173.489 211.240, 160.482 215.961 C 149.604 219.910, 148.061 219.949, 148.015 216.276 C 148.007 215.603, 146.628 211.598, 144.951 207.376 C 143.274 203.154, 142.095 199.194, 142.332 198.577 C 142.569 197.959, 146.529 195.069, 151.131 192.154 C 155.734 189.238, 163.550 184.050, 168.500 180.624 C 176.161 175.323, 177.545 173.939, 177.804 171.328 C 178.078 168.560, 177.699 168.097, 173.933 166.590 C 170.115 165.062, 169.360 165.052, 165.089 166.470 C 162.521 167.323, 156.838 170.841, 152.460 174.287 C 148.082 177.733, 141.575 182.457, 138 184.785 C 124.097 193.839, 117.211 200.781, 118.584 204.359 C 119.093 205.685, 118.551 206, 115.762 206 C 113.558 206, 111.643 206.737, 110.465 208.039 C 109.010 209.647, 95.646 219.123, 90.500 222.196 C 89.848 222.585, 89.441 215.213, 89.330 200.992 C 89.162 179.400, 89.181 179.186, 91.330 178.609 C 92.524 178.289, 94.994 178.021, 96.820 178.014 C 98.645 178.006, 103.476 176.611, 107.556 174.913 C 113.192 172.566, 116.056 170.620, 119.486 166.804 C 124.410 161.328, 124.886 159.308, 122.288 154.910 C 119.301 149.854, 111.283 149.760, 110.023 154.766 C 109.372 157.351, 106.100 159.898, 99 163.349 C 95.975 164.819, 92.456 166.767, 91.180 167.679 L 88.860 169.337 89.022 144.418 C 89.111 130.713, 89.681 116.655, 90.290 113.177 C 91.304 107.381, 91.798 106.518, 96.238 102.801 C 102.269 97.751, 104.503 93.809, 102.964 90.933 C 102.004 89.139, 102.684 88.018, 108.427 81.930 C 115.395 74.544, 122.080 62.878, 122.223 57.856 C 122.357 53.159, 120.147 50.238, 115.177 48.545 C 110.963 47.109, 100.929 46.404, 99.865 47.469 M 46.268 55.212 C 42.400 57.079, 42.437 61.542, 46.417 73.189 C 48.388 78.956, 50 84.307, 50 85.079 C 50 85.851, 51.630 89.781, 53.622 93.812 C 57.571 101.805, 60.507 104.001, 64.694 102.094 C 68.036 100.571, 68.397 97.085, 66.061 88.870 C 64.908 84.817, 63.242 78.800, 62.357 75.500 C 61.472 72.200, 60.130 68.082, 59.374 66.349 C 58.618 64.616, 58 62.633, 58 61.943 C 58 61.253, 56.852 59.184, 55.449 57.344 C 52.776 53.840, 50.302 53.266, 46.268 55.212 M 37.442 170.111 C 35.658 173.562, 35.699 174.768, 38.462 200.500 C 40.068 215.456, 40.048 225.144, 38.390 235.295 C 37.320 241.852, 43.009 245.435, 47.640 241.121 C 54.683 234.559, 55.867 208.321, 50.443 179 C 49.374 173.221, 48.463 170.984, 46.472 169.250 C 42.736 165.996, 39.406 166.314, 37.442 170.111" stroke="none" fill="black" fill-rule="evenodd"/>
</svg>