<svg xmlns="http://www.w3.org/2000/svg" width="300" height="300" viewBox="0 0 300 300" version="1.1">
	<path d="M 218.144 12.327 C 216.394 14.435, 213.904 20.952, 213.146 25.407 L 212.449 29.500 192.975 30.709 C 182.264 31.374, 169.675 32.321, 165 32.814 C 160.325 33.307, 156.352 33.589, 156.171 33.443 C 155.990 33.296, 155.186 30.298, 154.384 26.781 C 153.196 21.576, 152.388 20.070, 150.037 18.681 C 143.904 15.058, 139.959 20.391, 141.337 30.442 L 141.925 34.732 135.315 35.409 C 122.769 36.694, 114 41.206, 114 46.378 C 114 51.530, 117.248 51.773, 140.645 48.368 C 145.227 47.701, 144.604 46.790, 146.593 57.060 C 146.994 59.132, 148.022 60.438, 149.775 61.105 C 151.961 61.936, 152.766 61.688, 154.933 59.520 C 157.072 57.379, 157.491 56.052, 157.449 51.566 L 157.398 46.181 165.949 45.610 C 187.409 44.178, 211 43.790, 211 44.870 C 211 45.476, 209.489 50.423, 207.642 55.864 C 203.842 67.059, 204.109 69, 209.455 69 C 212.392 69, 213.164 68.408, 215.652 64.250 C 219.801 57.317, 222.914 49.887, 222.960 46.809 C 222.982 45.329, 223.454 43.837, 224.010 43.494 C 224.565 43.151, 229.403 42.426, 234.760 41.884 C 247.024 40.644, 251.383 38.706, 251.809 34.306 C 252.075 31.565, 251.650 30.870, 248.809 29.401 C 245.842 27.866, 244.589 27.818, 236.676 28.938 C 231.823 29.624, 227.704 30.032, 227.522 29.843 C 227.341 29.654, 226.738 25.726, 226.184 21.114 C 225.591 16.176, 224.627 12.379, 223.838 11.879 C 221.862 10.626, 219.394 10.820, 218.144 12.327 M 51.500 64.922 C 41.911 65.622, 38.081 67.352, 35.802 72.012 C 34.864 73.930, 34.074 74.800, 34.048 73.945 C 34.022 73.090, 32.477 70.728, 30.615 68.695 C 26.525 64.230, 23.034 63.875, 19.359 67.550 C 16.325 70.584, 16.630 72.871, 20.915 79.219 C 23.812 83.511, 27.167 91.638, 29.452 99.896 C 30.121 102.313, 32.017 105.709, 33.666 107.442 C 36.133 110.035, 36.428 110.811, 35.331 111.835 C 33.399 113.640, 33.700 117.418, 35.938 119.443 C 38.053 121.358, 42.069 121.102, 51.250 118.470 C 53.862 117.721, 56 117.252, 56 117.428 C 56 117.604, 55.351 119.589, 54.557 121.838 C 50.711 132.739, 48.126 212.885, 51.417 219.193 C 53.092 222.403, 52.520 222.904, 41.477 227.914 C 20.828 237.281, 14.330 242.998, 17.369 249.125 C 18.811 252.035, 24.670 252.843, 28.773 250.698 C 47.439 240.942, 58.947 234.678, 64.254 231.386 C 84.884 218.589, 95 210.355, 95 206.359 C 95 203.689, 92.527 201, 90.072 201 C 89.091 201, 86.310 202.486, 83.894 204.303 C 79.586 207.541, 63.855 217, 62.777 217 C 62.476 217, 62.400 214.188, 62.607 210.750 C 62.814 207.313, 63.256 197.908, 63.590 189.850 L 64.198 175.201 73.849 173.489 C 85.100 171.493, 90 168.656, 90 164.138 C 90 161.261, 86.827 157, 84.684 157 C 84.002 157, 82.430 157.711, 81.190 158.580 C 79.867 159.506, 75.781 160.398, 71.305 160.736 L 63.676 161.313 64.369 148.407 C 64.750 141.308, 65.707 132.575, 66.496 129 C 67.284 125.425, 67.946 120.333, 67.965 117.685 C 67.995 113.586, 68.445 112.496, 71 110.347 C 72.701 108.915, 74 106.845, 74 105.566 C 74 103.169, 71.192 100, 69.069 100 C 68.368 100, 71.624 96.287, 76.304 91.750 C 85.904 82.443, 88.097 77.855, 85.995 71.484 C 85.056 68.640, 84.001 67.770, 79.401 66.049 C 73.705 63.918, 68.271 63.698, 51.500 64.922 M 146.774 74.750 C 143.309 78.414, 141.639 85.094, 142.433 92.114 C 143.152 98.466, 144.246 97.591, 132.576 99.998 C 129.867 100.557, 125.680 102.170, 123.270 103.582 C 119.212 105.960, 118.911 106.422, 119.194 109.825 C 119.566 114.295, 121.796 114.939, 128.730 112.576 C 131.274 111.709, 135.526 111, 138.178 111 L 143 111 143 115.291 L 143 119.582 136.586 121.291 C 133.058 122.231, 126.969 123, 123.054 123 C 111.292 123, 106.614 126.341, 108.401 133.463 C 109.447 137.628, 114.723 138.514, 127.078 136.597 C 132.810 135.708, 138.738 134.707, 140.250 134.374 C 142.894 133.790, 143 133.922, 143 137.775 C 143 141.318, 142.681 141.861, 140.250 142.456 C 138.738 142.826, 133.257 145.212, 128.070 147.758 C 121.791 150.840, 117.448 152.352, 115.070 152.282 C 113.107 152.225, 110.938 152.644, 110.250 153.212 C 108.124 154.969, 108.838 158.727, 111.730 161.003 C 115.504 163.971, 123.902 163.344, 134.750 159.286 L 143 156.200 143 161.856 C 143 167.083, 142.789 167.605, 140.212 168.746 C 138.046 169.704, 135.133 174.163, 127.147 188.740 C 114.705 211.451, 114.586 211.652, 105.093 225.877 C 100.917 232.135, 96.271 239.110, 94.769 241.377 C 90.457 247.886, 91.438 252, 97.300 252 C 100.397 252, 102.426 250.213, 111.541 239.451 C 116.040 234.141, 130 213.845, 130 212.616 C 130 212.350, 132.886 206.883, 136.413 200.468 L 142.825 188.804 143.100 223.652 C 143.251 242.819, 143.402 265.398, 143.437 273.830 C 143.494 287.809, 143.671 289.284, 145.441 290.580 C 147.829 292.327, 149.135 292.365, 151.269 290.750 C 154.423 288.362, 155.232 280.978, 155.719 250.144 L 156.198 219.787 159.849 223.283 C 166.225 229.389, 174.629 231.971, 177.800 228.800 C 180.058 226.542, 179.231 222.173, 176.250 220.612 C 174.738 219.820, 170.379 215.954, 166.563 212.021 C 162.748 208.088, 158.811 204.434, 157.813 203.900 C 156.132 203, 156 200.998, 156 176.443 L 156 149.957 158.250 149.048 C 159.488 148.548, 161.664 147.892, 163.088 147.591 C 166.621 146.843, 171 143.241, 171 141.082 C 171 140.108, 170.117 138.511, 169.039 137.535 C 167.427 136.076, 166.091 135.883, 161.539 136.452 L 156 137.144 156.002 133.822 C 156.004 130.528, 156.083 130.472, 165.509 127.147 C 176.118 123.405, 177.796 121.390, 174.499 116.358 C 172.863 113.862, 172.474 113.762, 166.639 114.348 C 163.263 114.687, 159.488 115.250, 158.250 115.599 C 156.127 116.197, 156 115.944, 156 111.117 C 156 107.279, 156.368 106, 157.471 106 C 160.006 106, 169.413 101.387, 171.369 99.185 C 176.839 93.025, 167.298 87.878, 157.429 91.666 C 156.259 92.115, 156 90.666, 156 83.678 C 156 77.252, 155.612 74.755, 154.429 73.571 C 152.127 71.270, 149.713 71.642, 146.774 74.750 M 202.500 76.330 C 200.774 78.198, 200.455 80.159, 200.170 90.651 C 199.814 103.814, 199.755 103.932, 193.500 103.992 C 192.400 104.002, 189.813 104.480, 187.750 105.053 C 184.524 105.949, 184 106.497, 184 108.980 C 184 112.261, 184.607 112.546, 193.666 113.516 L 199.831 114.177 200.166 120.090 C 200.350 123.343, 200.500 126.003, 200.500 126.002 C 200.500 126.001, 196.968 126.676, 192.652 127.502 C 188.335 128.328, 183.540 129.903, 181.997 131.002 C 180.454 132.101, 178.860 133, 178.456 133 C 177.015 133, 175.063 136.544, 175.032 139.215 C 174.968 144.629, 180.589 145.126, 197 141.155 C 201.675 140.024, 213.825 137.910, 224 136.457 C 234.175 135.005, 244.390 133.355, 246.700 132.792 C 253.697 131.086, 256.441 126.005, 252.197 122.613 C 250.143 120.971, 248.798 120.813, 241.841 121.393 L 233.845 122.060 235.416 119.816 C 236.281 118.582, 237.273 115.424, 237.621 112.798 C 238.211 108.350, 238.502 107.955, 241.877 107.017 C 243.870 106.464, 247.178 106.009, 249.230 106.006 C 251.281 106.003, 254.769 105.276, 256.980 104.391 C 260.555 102.961, 261 102.412, 261 99.427 C 261 94.567, 258.605 93.630, 248.366 94.483 L 240 95.180 240 90.629 C 240 85.699, 237.326 82, 233.763 82 C 230.626 82, 227.232 87.006, 226.522 92.681 L 225.873 97.861 220.887 98.931 C 218.145 99.519, 215.474 100, 214.951 100 C 214.413 100, 214 95.672, 214 90.047 C 214 79.254, 212.934 75.485, 209.628 74.598 C 206.160 73.668, 204.614 74.044, 202.500 76.330 M 45 79.087 C 43.075 79.572, 40.487 79.743, 39.250 79.466 C 36.524 78.855, 36.522 78.896, 38.913 85.897 C 39.965 88.979, 41.361 94.788, 42.014 98.807 C 43.176 105.953, 43.261 106.103, 45.851 105.611 C 47.308 105.334, 50.442 104.813, 52.815 104.455 C 56.829 103.848, 57.022 103.681, 55.565 102.072 C 52.780 98.994, 53.853 96.888, 62.500 88.472 C 67.175 83.921, 71 79.704, 71 79.099 C 71 77.764, 50.286 77.755, 45 79.087 M 219.500 111.491 C 218.950 111.675, 217.262 112.098, 215.750 112.432 C 213.155 113.004, 213 113.349, 213 118.564 L 213 124.091 216.750 123.414 C 218.813 123.042, 220.865 122.528, 221.312 122.272 C 222.164 121.783, 223.650 118.383, 225.037 113.750 C 225.795 111.220, 225.646 111.006, 223.180 111.079 C 221.706 111.122, 220.050 111.308, 219.500 111.491 M 236 152.432 C 226.062 156.247, 223.061 157.736, 218.250 161.240 C 214.977 163.623, 213 164.545, 213 163.687 C 213 161.600, 209.499 158.871, 207.705 159.560 C 205.391 160.448, 203.396 163.905, 200.632 171.816 C 198.326 178.417, 198.147 180.506, 197.560 207.663 C 197.217 223.523, 197.298 238.032, 197.740 239.905 C 198.698 243.967, 200.794 245.520, 204.174 244.671 C 207.309 243.884, 208.997 240.231, 209.011 234.203 C 209.017 231.616, 209.299 227.823, 209.638 225.774 C 210.197 222.391, 210.724 221.870, 215.377 220.104 C 218.195 219.034, 221.966 217.413, 223.758 216.502 C 227.806 214.444, 238.407 212.844, 242.761 213.635 C 244.832 214.011, 246.622 213.729, 247.666 212.863 C 249.183 211.606, 249.264 212.475, 248.702 224 C 247.844 241.616, 248.413 240.629, 238.665 241.416 C 203.399 244.267, 188.322 249.719, 196.428 256.691 C 199.690 259.497, 206.667 259.757, 219.857 257.561 C 235.711 254.923, 242.480 254.222, 243.450 255.120 C 243.972 255.604, 246.063 256, 248.096 256 C 251.072 256, 252.395 255.314, 254.878 252.487 C 259.105 247.671, 260.489 244.686, 262.378 236.303 C 264.534 226.736, 264.431 208.798, 262.074 183.465 C 260.347 164.901, 260.001 163.083, 257.361 158.713 C 255.748 156.042, 253.143 153.347, 251.355 152.498 C 247.485 150.662, 240.686 150.632, 236 152.432 M 239 166.184 C 237.625 166.761, 233.575 168.478, 230 170 C 226.425 171.522, 221.221 173.554, 218.435 174.515 L 213.370 176.262 212.168 189.881 C 210.651 207.075, 210.625 206.372, 212.750 205.477 C 213.713 205.071, 218.100 203.684, 222.500 202.394 C 231.832 199.658, 239.851 199.354, 244.143 201.574 C 245.816 202.439, 247.371 202.963, 247.596 202.737 C 247.991 202.342, 246.733 184.276, 245.405 171.250 C 244.720 164.537, 244.098 164.045, 239 166.184 M 24.452 169.053 C 21.935 171.834, 21.239 179.437, 22.143 194.248 C 22.812 205.194, 22.024 218.946, 20.338 225.757 C 19.580 228.822, 22.460 233, 25.332 233 C 29.419 233, 30.868 230.745, 33.569 220.184 C 35.990 210.718, 36.175 208.577, 35.824 194.184 C 35.587 184.469, 34.987 177.739, 34.246 176.500 C 33.588 175.400, 32.387 172.813, 31.576 170.750 C 29.886 166.450, 27.353 165.847, 24.452 169.053" stroke="none" fill="black" fill-rule="evenodd"/>
</svg>