<svg xmlns="http://www.w3.org/2000/svg" width="300" height="300" viewBox="0 0 300 300" version="1.1">
	<path d="M 219 20.092 C 203.224 25.904, 191.967 29.128, 177.500 31.979 C 158.074 35.807, 155.137 36.658, 152.250 39.294 C 147.248 43.862, 150.853 50.722, 157.728 49.719 C 194.928 44.290, 210.894 41.160, 219.291 37.652 C 222.905 36.142, 234.725 27.697, 236.235 25.547 C 237.446 23.820, 237.098 21.241, 235.429 19.571 C 233.236 17.379, 225.718 17.617, 219 20.092 M 47.174 48.314 C 44.601 51.053, 44.270 57.001, 46.404 62.128 C 47.776 65.424, 53.130 89.563, 55.136 101.500 C 56.455 109.353, 57.840 112.834, 59.858 113.370 C 60.761 113.610, 64.708 113.737, 68.628 113.653 L 75.756 113.500 75.932 160.418 C 76.034 187.381, 76.508 208.082, 77.048 209.090 C 77.811 210.516, 77.285 211.248, 74.244 212.998 C 72.185 214.182, 69.825 215.549, 69 216.036 C 54.917 224.343, 50.946 226.584, 45.207 229.464 C 37.679 233.243, 35.582 235.183, 34.610 239.271 C 33.753 242.877, 37.591 247, 41.805 247 C 45.209 247, 50.871 245.228, 53 243.497 C 53.825 242.826, 58.483 240.180, 63.352 237.617 C 78.255 229.770, 94.474 217.978, 107.181 205.750 C 109.426 203.590, 109.537 199.394, 107.405 197.262 C 104.664 194.521, 100.486 195.369, 93.869 200.011 L 87.677 204.355 88.338 196.526 C 88.702 192.221, 89 187.256, 89 185.493 C 89 182.444, 89.584 181.956, 100.979 175.470 C 113.739 168.208, 117.462 165.102, 118.515 160.837 C 119.295 157.680, 116.259 154, 112.875 154 C 110.305 154, 99.827 158.516, 95.018 161.697 C 93.103 162.964, 91.303 163.998, 91.018 163.995 C 90.733 163.993, 90.471 152.855, 90.435 139.245 C 90.387 121.170, 90.025 113.865, 89.092 112.143 C 87.415 109.047, 88.089 108.496, 97.546 105.229 C 104.233 102.918, 105.608 102.057, 106.456 99.644 C 107.320 97.189, 107.133 96.526, 105.119 94.895 C 103.832 93.853, 101.891 93, 100.806 93 C 99.721 93, 99.001 92.662, 99.206 92.250 C 106.444 77.702, 108.199 73.502, 108.904 69.042 C 110.937 56.185, 104.083 47.960, 91.384 48.017 C 83.988 48.051, 69.480 50.991, 64.835 53.398 L 60.171 55.816 59.545 53.322 C 58.674 49.853, 54.556 46, 51.720 46 C 50.416 46, 48.370 47.042, 47.174 48.314 M 179 49.714 C 178.175 50.008, 176.375 51.276, 175 52.531 C 173.290 54.092, 170.289 55.159, 165.500 55.910 C 141.845 59.619, 138.700 60.572, 133.729 65.544 C 129.807 69.466, 130.298 74.981, 134.590 75.196 C 137.934 75.363, 156.266 72.919, 162.812 71.433 C 173.137 69.089, 172.598 68.622, 171.844 79.250 C 171.483 84.337, 171.146 89.954, 171.094 91.731 C 171.016 94.417, 170.536 95.059, 168.250 95.537 C 159.982 97.268, 156.200 98.673, 151.741 101.674 C 149.023 103.503, 146.670 105, 146.513 105 C 146.356 105, 145.933 103.036, 145.573 100.636 C 144.894 96.109, 142.218 92.750, 138.364 91.584 C 136.861 91.129, 135.281 91.734, 133.033 93.626 C 129.937 96.230, 129.855 96.503, 130.379 102.407 C 130.677 105.758, 131.367 119.138, 131.913 132.141 C 132.933 156.418, 134.618 167.815, 137.689 171.209 C 138.581 172.194, 138.843 173, 138.272 173 C 136.984 173, 135.944 176.691, 136.686 178.624 C 136.988 179.411, 138.098 180.517, 139.152 181.082 C 141.692 182.441, 157.258 184.961, 163.250 184.983 L 168 185 168 196.274 L 168 207.549 150.750 209.878 C 141.262 211.159, 132.103 212.785, 130.396 213.491 C 126.133 215.255, 125.559 218.206, 128.864 221.358 C 134.253 226.499, 140.792 227.170, 157.719 224.324 C 163.340 223.379, 168.168 222.835, 168.448 223.115 C 168.728 223.395, 169.259 230.612, 169.627 239.153 L 170.297 254.681 161.898 255.334 C 157.279 255.694, 149.900 255.999, 145.500 256.012 C 132.456 256.051, 102.253 260.429, 97 263.043 C 91.601 265.729, 89 268.505, 89 271.582 C 89 277.066, 94.065 278.173, 106.500 275.409 C 120.817 272.226, 130.999 271.041, 149.794 270.370 L 169.088 269.681 171.794 272.915 C 174.233 275.829, 174.773 276.044, 177.268 275.092 C 178.790 274.511, 180.467 272.903, 180.993 271.518 L 181.950 269 197.014 269 C 213.335 269, 237.755 267.690, 261.500 265.542 C 283.200 263.578, 292.356 259.540, 290.637 252.691 C 289.694 248.934, 285.728 247.390, 280.566 248.771 C 271.561 251.180, 245.837 253.097, 202.250 254.608 L 183 255.275 183 238.138 C 183 225.098, 183.299 220.998, 184.250 220.992 C 195.971 220.921, 210.548 216.652, 215.747 211.768 C 218.861 208.843, 218.715 204.515, 215.430 202.362 C 213.045 200.799, 212.490 200.794, 207.680 202.294 C 201.552 204.205, 191.014 205.982, 185.750 205.992 L 182 206 182 195.170 L 182 184.340 193.046 182.800 C 202.689 181.457, 204.581 180.868, 207.949 178.161 C 211.266 175.495, 211.977 175.267, 213.026 176.531 C 213.696 177.339, 215.809 178, 217.721 178 C 223.038 178, 228.187 171.690, 232.739 159.597 C 233.737 156.944, 234.553 149.686, 235.054 139 C 235.480 129.925, 236.125 118, 236.488 112.500 C 237.297 100.233, 235.955 96.769, 229 93.174 C 224.680 90.942, 223.841 90.870, 208 91.371 C 198.925 91.659, 190.375 92.174, 188.999 92.516 L 186.498 93.138 186.852 80.819 C 187.047 74.044, 187.313 68.384, 187.444 68.242 C 187.933 67.713, 212.358 64.954, 228.578 63.596 C 242.518 62.429, 245.612 61.884, 246.694 60.403 C 248.753 57.587, 248.243 55.090, 244.933 51.779 L 241.867 48.713 223.683 49.384 C 213.682 49.753, 201.084 50.585, 195.686 51.233 C 188.734 52.067, 185.672 52.098, 185.186 51.340 C 184.284 49.932, 180.888 49.039, 179 49.714 M 80.500 64.105 C 75.161 65.270, 69.728 65.853, 67.145 65.539 C 63.279 65.069, 62.875 65.206, 63.545 66.755 C 65.193 70.560, 68.979 88.762, 69.004 93 C 69.033 97.866, 70.477 101.248, 71.750 99.427 C 72.592 98.223, 83.496 95, 86.729 95 C 88.633 95, 88.724 94.730, 87.721 92.073 C 86.755 89.514, 87.074 88.161, 90.249 81.323 C 95.873 69.211, 96.416 61.918, 91.683 62.070 C 90.482 62.109, 85.450 63.025, 80.500 64.105 M 201.500 105.672 C 199.850 105.876, 195.463 106.524, 191.750 107.112 L 185 108.181 184.986 116.840 C 184.979 121.603, 184.697 126.528, 184.360 127.785 L 183.748 130.071 200.836 129.953 C 210.234 129.888, 218.390 130.123, 218.961 130.476 C 219.610 130.877, 220 129.688, 219.999 127.309 C 219.998 125.214, 220.522 119.747, 221.163 115.160 C 222.143 108.149, 222.103 106.678, 220.914 105.926 C 219.550 105.062, 207.669 104.907, 201.500 105.672 M 161 112.577 C 157.425 113.340, 152.925 114.328, 151 114.772 L 147.500 115.578 147.214 125.289 C 146.942 134.502, 147.359 136.086, 149.550 134.169 C 151.363 132.582, 158.761 131, 164.366 131 L 170 131 170 121 C 170 113.617, 169.673 111.025, 168.750 111.094 C 168.063 111.146, 164.575 111.813, 161 112.577 M 215 143.563 C 213.075 144.291, 207.854 144.913, 203.397 144.944 C 198.940 144.975, 192.527 145.289, 189.147 145.642 L 183 146.285 183 157.642 L 183 169 186.369 169 C 188.222 169, 193.675 168.314, 198.486 167.475 C 207.354 165.928, 208.823 166.159, 211.196 169.471 C 211.578 170.005, 212.087 170.230, 212.325 169.971 C 213.819 168.350, 217.924 158.822, 218.368 155.945 C 219.631 147.770, 220.013 142.009, 219.284 142.119 C 218.853 142.185, 216.925 142.835, 215 143.563 M 157.819 147.025 C 146.767 148.342, 147.474 147.490, 147.488 159.492 L 147.500 169.999 157.191 170 C 162.521 170, 167.088 169.662, 167.341 169.250 C 167.593 168.838, 167.957 163.550, 168.149 157.500 C 168.552 144.853, 169.340 145.651, 157.819 147.025 M 43.111 158.904 C 41.903 159.951, 40.559 162.089, 40.122 163.654 C 39.686 165.219, 39.384 178.585, 39.450 193.357 C 39.563 218.539, 39.690 220.300, 41.477 221.607 C 44.729 223.985, 48.964 222.804, 51.031 218.941 C 54.198 213.025, 56.320 173.294, 53.929 164.685 C 51.962 157.599, 47.416 155.170, 43.111 158.904" stroke="none" fill="black" fill-rule="evenodd"/>
</svg>