<svg xmlns="http://www.w3.org/2000/svg" width="300" height="300" viewBox="0 0 300 300" version="1.1">
	<path d="M 240.352 9.993 C 239.171 10.470, 237.877 11.389, 237.477 12.037 C 236.696 13.301, 219.350 21.634, 209.500 25.478 C 204.237 27.532, 193.688 31.094, 173.771 37.544 C 166.849 39.786, 163 42.870, 163 46.175 C 163 51.711, 167.437 53.599, 175.321 51.417 C 178.170 50.628, 185.675 48.659, 192 47.041 C 198.325 45.422, 208.675 42.052, 215 39.551 C 221.325 37.050, 227.017 35.003, 227.648 35.002 C 228.280 35.001, 232.873 32.959, 237.855 30.465 C 248.666 25.054, 251.509 21.829, 250.711 15.886 C 250.419 13.705, 249.634 11.264, 248.967 10.461 C 247.636 8.856, 243.700 8.643, 240.352 9.993 M 90.385 41.109 C 76.038 41.687, 74.908 41.885, 68.130 45.010 C 61.448 48.090, 60.873 48.195, 59.166 46.650 C 58.163 45.743, 55.781 45, 53.872 45 C 50.795 45, 50.254 45.408, 49.099 48.604 C 47.620 52.693, 48.278 58.732, 52.735 82 C 54.158 89.425, 55.468 98.822, 55.648 102.882 C 55.827 106.942, 56.479 110.872, 57.095 111.615 C 59.609 114.644, 71.157 116.052, 75.316 113.836 C 77.155 112.856, 77.324 112.896, 76.382 114.086 C 74.176 116.877, 72.166 125.668, 71.600 135 C 70.828 147.726, 72.512 183.135, 74.992 206.318 C 76.099 216.667, 76.749 226.150, 76.438 227.391 C 76.063 228.887, 73.958 230.586, 70.186 232.438 C 64.269 235.343, 48.884 241.259, 48.499 240.777 C 48.378 240.624, 49.354 235.775, 50.668 230 C 54.506 213.124, 56.010 201.594, 56.671 183.958 C 57.384 164.934, 56.454 161.138, 50.368 158.236 C 47.131 156.692, 46.989 156.719, 44.534 159.369 C 41.249 162.914, 41.219 163.115, 40.581 186.622 C 40.281 197.689, 39.323 214.926, 38.452 224.926 C 37.582 234.926, 37.036 243.608, 37.240 244.219 C 37.443 244.830, 36.028 246.781, 34.093 248.553 C 30.865 251.512, 30.675 251.991, 31.776 254.408 C 34.741 260.915, 42.179 260.336, 63 251.979 C 98.023 237.921, 108.224 232.629, 115.861 224.554 C 121.516 218.575, 122.057 216.512, 118.869 213.090 C 115.975 209.984, 112.103 210.859, 106.356 215.918 C 103.899 218.080, 100.002 220.511, 97.695 221.319 C 95.388 222.127, 92.779 223.084, 91.898 223.444 C 90.479 224.026, 90.215 222.036, 89.580 205.955 C 89.186 195.975, 88.647 187.245, 88.383 186.554 C 87.703 184.784, 99.668 178.743, 110.155 175.562 C 114.916 174.118, 120.029 171.979, 121.517 170.808 C 123.909 168.927, 124.166 168.167, 123.729 164.285 C 123.428 161.616, 122.500 159.336, 121.367 158.477 C 118.697 156.455, 114.264 156.638, 113.097 158.819 C 112.536 159.867, 109.658 161.323, 106.303 162.256 C 100.879 163.764, 98.615 165.030, 91.206 170.701 L 88.330 172.901 86.951 154.701 C 86.192 144.690, 85.556 130.972, 85.536 124.215 C 85.511 115.610, 85.132 111.703, 84.270 111.169 C 83.103 110.446, 101.479 100.880, 106.748 99.469 C 109.194 98.813, 110.548 95.302, 109.557 92.180 C 108.824 89.870, 103.675 87.465, 101.862 88.585 C 101.170 89.013, 102.831 86.527, 105.552 83.061 C 108.273 79.595, 111.298 75.725, 112.273 74.462 C 113.248 73.199, 115.611 69.567, 117.523 66.392 C 120.487 61.470, 120.997 59.724, 120.978 54.559 C 120.955 48.444, 119.970 46.295, 115.697 43.040 C 112.904 40.913, 106.799 40.448, 90.385 41.109 M 241.903 59.105 C 239.818 61.363, 237.839 64.457, 237.504 65.981 C 236.896 68.748, 228.809 81.717, 225.332 85.500 C 219.207 92.165, 212.901 100.546, 212.345 102.761 C 211.853 104.721, 212.240 105.776, 213.960 107.169 C 218.266 110.655, 219.885 109.774, 234.369 96.058 C 250.546 80.739, 258.103 63.246, 251.427 56.570 C 248.838 53.981, 245.916 54.759, 241.903 59.105 M 76.667 56.748 L 63.835 57.061 64.506 61.280 C 64.876 63.601, 66.261 71.125, 67.585 78 C 68.909 84.875, 69.994 92.638, 69.996 95.250 C 69.998 97.862, 70.199 100, 70.443 100 C 70.686 100, 72.374 99.137, 74.193 98.082 C 76.012 97.027, 81.438 94.974, 86.250 93.521 C 91.063 92.068, 95 90.564, 95 90.180 C 95 89.796, 94.051 88.888, 92.890 88.164 C 89.968 86.339, 90.835 82.864, 96.338 74.351 C 101.949 65.671, 106 58.420, 106 57.058 C 106 56.382, 103.020 56.079, 97.750 56.217 C 93.213 56.337, 83.725 56.576, 76.667 56.748 M 152.750 69.723 C 151.801 70.773, 150.733 73.085, 150.378 74.862 C 149.848 77.510, 150.361 79.032, 153.219 83.296 C 155.138 86.158, 157.676 90.133, 158.860 92.129 C 161.891 97.237, 168.995 103.513, 173.387 104.963 C 183.550 108.317, 187.582 99.613, 178.473 93.984 C 176.305 92.643, 173.640 88.895, 169.932 81.966 C 163.802 70.513, 162.575 69.130, 157.862 68.365 C 155.320 67.952, 154.047 68.291, 152.750 69.723 M 198 69.331 C 195.950 70.387, 195.538 71.273, 195.714 74.253 C 195.999 79.103, 200.553 89.829, 203.780 93.250 C 206.970 96.632, 212.361 97.063, 213.965 94.066 C 215.285 91.599, 215.305 87.268, 213.997 86.832 C 213.446 86.649, 212.208 83.389, 211.247 79.589 C 209.977 74.564, 208.818 72.200, 207 70.922 C 203.314 68.332, 200.803 67.888, 198 69.331 M 168.916 124.806 C 156.581 133.475, 128 164.623, 128 169.396 C 128 175.920, 133.907 176.885, 140.024 171.360 C 142.240 169.358, 144.225 167.895, 144.435 168.110 C 145.465 169.162, 150.447 192, 149.646 192 C 148.191 192, 146.067 195.289, 146.032 197.595 C 145.996 199.960, 148.407 202.430, 151.741 203.446 C 153.407 203.954, 154.408 205.587, 155.642 209.814 C 157.704 216.874, 158.113 235.286, 156.250 237.150 C 154.756 238.644, 154.587 243.627, 156 244.500 C 156.550 244.840, 157.006 246.779, 157.012 248.809 C 157.023 251.934, 157.570 252.854, 160.583 254.805 C 166.352 258.544, 171.890 258.627, 186.021 255.187 C 192.885 253.517, 202.325 251.674, 207 251.093 C 231.891 247.997, 240.720 246.657, 244.102 245.464 C 246.158 244.739, 248.775 244.390, 249.918 244.689 C 252.788 245.439, 256.714 242.621, 258.391 238.607 C 260.888 232.630, 266.880 207.837, 269.028 194.591 C 271.743 177.851, 272.370 140.570, 270.030 135 C 267.960 130.074, 263.394 126.246, 258.289 125.157 C 252.695 123.964, 248.999 124.841, 240.259 129.433 C 231.611 133.977, 229.283 137.728, 232.878 141.321 C 235.806 144.248, 243.128 144.173, 248 141.167 C 256.160 136.132, 258.510 139.287, 257.557 154 C 256.617 168.518, 254.755 184.778, 253.868 186.213 C 253.270 187.181, 248.789 187.503, 235.786 187.512 C 218.573 187.523, 218.479 187.536, 213.432 190.413 C 208.340 193.315, 205 197.532, 205 201.058 C 205 203.959, 209.405 206.372, 213.262 205.583 C 215.043 205.219, 223.251 204.295, 231.502 203.530 C 239.753 202.765, 247.792 201.649, 249.365 201.051 C 252.050 200.031, 252.192 200.103, 251.670 202.232 C 251.020 204.878, 247 228.766, 247 229.977 C 247 230.428, 243.738 231.096, 239.750 231.461 C 220.225 233.250, 171.479 240.968, 168.646 242.719 C 168.058 243.082, 167.980 242.380, 168.445 240.906 C 171.843 230.153, 172.246 224.904, 170.570 213.249 C 169.660 206.925, 169.047 201.635, 169.208 201.493 C 169.369 201.351, 172.693 199.636, 176.596 197.682 C 180.499 195.728, 184.999 193.051, 186.596 191.733 C 188.193 190.414, 192.313 187.443, 195.750 185.130 C 199.188 182.818, 202.053 180.380, 202.118 179.713 C 202.500 175.812, 199.920 172, 196.899 172 C 195.913 172, 192.496 173.512, 189.304 175.360 C 182.647 179.214, 169.455 185.610, 166.500 186.417 C 164.800 186.881, 164.222 186.104, 162.642 181.231 C 161.620 178.079, 158.977 171.769, 156.767 167.209 C 154.557 162.648, 152.918 158.780, 153.125 158.611 C 156.290 156.033, 172.027 142.192, 176.787 137.801 C 180.244 134.610, 183.684 132, 184.430 132 C 187.949 132, 186.833 125.397, 182.841 122.601 C 179.071 119.960, 174.863 120.627, 168.916 124.806" stroke="none" fill="black" fill-rule="evenodd"/>
</svg>