<svg xmlns="http://www.w3.org/2000/svg" width="300" height="300" viewBox="0 0 300 300" version="1.1">
	<path d="M 216 35.500 C 214.220 36.518, 209.988 36.939, 201.304 36.965 C 186.405 37.008, 164.441 38.717, 160.880 40.110 C 157.002 41.627, 155.493 45.577, 157.576 48.756 C 159.147 51.154, 159.529 51.238, 166.110 50.626 C 169.900 50.274, 173 50.145, 173 50.339 C 173 50.534, 172.293 52.111, 171.428 53.844 C 170.563 55.577, 169.604 59.434, 169.297 62.415 L 168.737 67.834 162.934 68.508 C 156.037 69.308, 151.443 71.562, 149.211 75.240 C 147.652 77.811, 147.687 78.038, 150.036 80.539 C 152.046 82.678, 153.036 83.026, 155.496 82.457 C 157.148 82.074, 160.649 81.444, 163.275 81.057 C 168.703 80.256, 168.695 80.244, 169.214 89.735 L 169.500 94.970 164 96.160 C 160.975 96.815, 157.612 97.946, 156.527 98.675 C 153.681 100.587, 153.232 100.371, 152.521 96.750 C 150.595 86.946, 146.309 75.542, 143.270 72.135 L 140.027 68.500 137.448 71.382 C 135.229 73.861, 134.963 74.840, 135.539 78.382 C 137.300 89.205, 142.144 103.284, 145.300 106.750 C 147.559 109.231, 152.748 109.820, 153.566 107.689 C 153.928 106.746, 155.692 106.495, 159.845 106.795 C 165.122 107.177, 175.953 105.974, 181.897 104.346 C 184.107 103.741, 184.240 103.906, 183.601 106.455 C 183.219 107.976, 182.015 111.117, 180.926 113.435 L 178.945 117.649 170.722 118.909 C 166.200 119.602, 158.675 120.805, 154 121.582 C 149.325 122.358, 144.288 122.995, 142.807 122.997 C 138.096 123.002, 135.322 129.179, 138.571 132.429 C 140.621 134.478, 150.166 134.509, 160.662 132.500 C 172.937 130.151, 172.743 129.923, 166.393 139.250 C 161.010 147.155, 148.478 161, 146.705 161 C 145.198 161, 143 163.805, 143 165.729 C 143 171.618, 151.610 171.288, 159.250 165.106 C 161.347 163.409, 161.429 164.023, 159.674 168.282 C 156.938 174.919, 155.778 183.791, 156.162 195.132 C 156.604 208.154, 158.753 214.001, 164.989 219.145 C 172.227 225.115, 177.661 226.368, 196.500 226.414 C 214.398 226.457, 222.217 225.126, 229.644 220.771 C 235.605 217.276, 236.493 208.731, 231.256 205.254 C 229.173 203.871, 228.828 203.973, 226.239 206.744 C 222.960 210.254, 221.991 210.607, 210.374 212.511 C 193.926 215.206, 177.496 213.694, 172.529 209.027 C 169.544 206.223, 167.818 200.063, 167.877 192.422 C 167.956 182.062, 168.345 181.354, 174.325 180.688 C 181.401 179.899, 195.007 175.282, 197.750 172.738 C 200.362 170.316, 200.574 168.717, 198.553 166.696 C 197.290 165.433, 197.430 164.946, 199.648 162.874 C 203.027 159.718, 205 155.761, 205 152.139 C 205 147.823, 200.135 143.995, 194.673 144.015 C 190.803 144.028, 180.739 146.002, 176.800 147.520 C 175.713 147.939, 177.245 144.593, 181.046 138.247 C 186.345 129.398, 187.412 128.193, 190.862 127.160 C 196.748 125.396, 198.258 125.613, 197.466 128.108 C 196.581 130.895, 202.986 137.566, 212.500 143.765 C 225.975 152.546, 228.350 154, 229.217 154 C 230.443 154, 235 149.310, 235 148.048 C 235 147.475, 233.359 145.190, 231.354 142.970 C 227.722 138.950, 221.252 134.903, 208.310 128.555 C 201.639 125.283, 201.561 125.200, 204.500 124.513 C 214.802 122.102, 223.848 118.791, 225.798 116.715 C 228.232 114.124, 228.643 111.043, 226.800 109.200 C 225.419 107.819, 220.376 107.582, 219.586 108.860 C 219.294 109.334, 217.130 110.019, 214.777 110.384 C 212.425 110.749, 206.675 111.894, 202 112.928 C 193.261 114.860, 191.766 114.834, 193.817 112.783 C 194.468 112.133, 195 109.488, 195 106.907 C 195 101.779, 195.803 101.026, 201.332 100.965 C 203.074 100.946, 207.382 100.312, 210.904 99.557 C 215.602 98.549, 217.934 98.468, 219.654 99.252 C 226.199 102.234, 239.720 91.675, 243.795 80.397 C 245.072 76.863, 246 71.955, 246 68.736 C 246 63.757, 245.679 62.908, 242.923 60.589 C 238.658 57, 233.643 56.905, 217.627 60.111 C 212.197 61.198, 207.607 61.941, 207.427 61.761 C 207.247 61.580, 207.364 58.869, 207.688 55.736 C 208.268 50.112, 208.322 50.031, 211.888 49.435 C 219.079 48.233, 222.026 46.850, 223.510 43.980 C 225.198 40.716, 224.626 38.252, 221.605 35.772 C 219.081 33.700, 219.143 33.703, 216 35.500 M 182.464 57.545 C 182.075 61.695, 181.924 65.254, 182.128 65.454 C 182.333 65.655, 184.813 65.360, 187.640 64.799 C 192.633 63.808, 192.798 63.664, 193.419 59.784 C 193.770 57.587, 194.731 54.487, 195.554 52.895 L 197.051 50 190.111 50 L 183.171 50 182.464 57.545 M 78.500 63.522 C 67.470 66.392, 60.319 69.535, 58.934 72.123 C 57.930 73.999, 57.698 74.037, 56.092 72.583 C 53.538 70.272, 50.278 70.646, 48.432 73.463 C 47.051 75.572, 46.867 78.826, 47.159 96.051 C 47.498 116.083, 47.511 116.185, 50 118.338 C 51.631 119.748, 52.500 121.543, 52.500 123.500 C 52.500 126.157, 52.873 126.536, 55.769 126.815 C 57.742 127.005, 61.270 126.108, 64.671 124.550 C 67.769 123.132, 70.474 122.140, 70.680 122.347 C 70.887 122.554, 70.481 124.023, 69.778 125.611 C 68.809 127.802, 68.497 138.472, 68.486 169.774 L 68.472 211.049 57.057 215.976 C 43.819 221.689, 38.536 225.214, 35.603 230.291 L 33.500 233.930 35.557 235.995 C 37.787 238.232, 38.168 238.156, 49 233.309 C 80.817 219.071, 103.590 206.503, 106.112 201.791 C 107.397 199.390, 106.565 196.834, 103.971 195.214 C 102.156 194.081, 100.789 194.572, 92.146 199.466 C 86.771 202.510, 81.951 205.001, 81.436 205.001 C 80.879 205.002, 80.620 198.015, 80.796 187.751 C 81.125 168.623, 81.176 168.479, 87.974 167.385 C 89.913 167.072, 93.975 165.594, 97 164.100 C 101.368 161.941, 102.732 160.676, 103.627 157.953 C 105.598 151.958, 102.393 148.872, 96.738 151.318 C 94.957 152.089, 90.621 153.902, 87.103 155.348 L 80.705 157.977 81.347 149.739 C 81.699 145.207, 81.991 135.762, 81.994 128.750 C 81.998 120.178, 82.359 116, 83.096 116 C 85.186 116, 89.920 111.909, 92.846 107.573 C 96.716 101.838, 98 95.351, 98 81.528 C 98 70.778, 97.859 69.986, 95.436 67.106 C 94.025 65.430, 91.213 63.598, 89.186 63.035 C 84.880 61.839, 84.988 61.834, 78.500 63.522 M 216 72.545 C 210.225 73.783, 205.216 74.842, 204.869 74.898 C 204.522 74.954, 203.710 77.096, 203.064 79.658 C 202.419 82.221, 201.241 85.246, 200.446 86.381 C 199.651 87.516, 199 88.701, 199 89.014 C 199 89.326, 203.387 89.008, 208.750 88.307 C 214.113 87.605, 219.695 87.276, 221.155 87.574 C 223.317 88.016, 224.264 87.503, 226.259 84.808 C 228.260 82.107, 232 72.825, 232 70.562 C 232 69.583, 226.826 70.224, 216 72.545 M 80.500 75.659 C 79.400 75.894, 75.205 77.249, 71.178 78.671 C 65.228 80.771, 63.401 81.048, 61.428 80.149 L 59 79.043 59 96.644 C 59 110.568, 59.261 114.045, 60.250 113.288 C 60.938 112.762, 64.875 111.330, 69 110.105 C 73.125 108.881, 78.162 107.119, 80.194 106.190 C 84.301 104.311, 84.076 105.258, 85.518 83.750 C 86.153 74.280, 86.247 74.432, 80.500 75.659 M 183.750 77.728 C 180.003 78.120, 180 78.125, 180.014 82.810 C 180.031 88.873, 180.900 92, 182.566 92 C 184.304 92, 188.415 86.421, 189.862 82.101 C 191.381 77.564, 191.307 76.970, 189.250 77.168 C 188.287 77.261, 185.813 77.513, 183.750 77.728 M 116.536 118.961 C 114.282 121.451, 114.779 124.303, 119.155 134 C 123.479 143.579, 123.763 144, 125.904 144 C 128.845 144, 131 140.695, 131 136.186 C 131 122.755, 122.386 112.497, 116.536 118.961 M 118.787 149.906 C 106.402 151.232, 107.285 161.459, 119.848 162.189 L 125.195 162.500 121.150 166.618 C 115.246 172.628, 115.013 174.834, 119.378 183.364 C 123.690 191.789, 124.042 196.862, 121.044 207.347 C 117.217 220.727, 112.413 226.962, 105.882 227.022 C 102.732 227.051, 95.033 230.591, 93.377 232.770 C 91.300 235.505, 91.775 238.416, 94.750 241.192 C 98.249 244.458, 101.986 245.519, 115 246.940 C 120.775 247.571, 129.550 248.728, 134.500 249.511 C 139.450 250.294, 147.550 251.426, 152.500 252.027 C 157.450 252.628, 166.450 253.762, 172.500 254.546 C 195.743 257.561, 205.353 258.248, 231.217 258.740 C 253.847 259.170, 259.420 258.981, 267.641 257.500 C 282.843 254.763, 289.851 251.010, 292.017 244.448 C 293.030 241.379, 292.949 240.601, 291.443 238.937 C 289.195 236.453, 287.769 236.492, 285.407 239.102 C 282.272 242.566, 277.962 244.289, 269 245.658 C 246.740 249.059, 186.099 245.556, 144.500 238.466 C 140.100 237.716, 133.657 236.828, 130.182 236.494 C 121.192 235.628, 120.451 235.240, 122.777 232.622 C 126.037 228.953, 128.925 223.138, 131.688 214.679 C 133.845 208.078, 134.366 204.571, 134.392 196.500 C 134.421 187.768, 134.101 185.837, 131.871 181.276 L 129.316 176.051 131.615 173.892 C 136.476 169.326, 139.177 164.271, 139.247 159.610 C 139.325 154.470, 137.916 152.282, 133.282 150.345 C 129.927 148.943, 128.254 148.892, 118.787 149.906 M 169.380 158.133 C 170.441 159.647, 170.709 161.665, 170.303 165.092 L 169.731 169.918 173.616 169.312 C 180.063 168.306, 181.773 167.310, 182.465 164.157 C 182.907 162.145, 184.060 160.804, 186.058 159.976 C 190.078 158.311, 189.865 156.563, 185.750 157.452 C 177.888 159.151, 175.253 159.182, 172.212 157.610 C 168.101 155.484, 167.591 155.578, 169.380 158.133 M 42.733 160.750 C 39.974 163.811, 39.828 167.343, 42.017 178.053 C 43.713 186.355, 44.090 191.272, 43.855 202 C 43.692 209.425, 43.909 216.063, 44.338 216.750 C 44.767 217.438, 46.386 218, 47.937 218 C 49.487 218, 51.201 217.438, 51.747 216.750 C 55.176 212.426, 56.262 190.945, 53.917 173.792 C 52.972 166.871, 52.122 164.110, 50.254 161.890 C 47.480 158.593, 45.014 158.219, 42.733 160.750" stroke="none" fill="black" fill-rule="evenodd"/>
</svg>