<svg xmlns="http://www.w3.org/2000/svg" width="300" height="300" viewBox="0 0 300 300" version="1.1">
	<path d="M 182.687 10.805 C 179.138 14.509, 179.033 19.320, 182.452 21.561 C 183.801 22.444, 185.969 25.267, 187.270 27.834 C 188.572 30.400, 190.616 34.075, 191.814 36 C 193.012 37.925, 193.994 40.930, 193.996 42.679 C 194.003 48.273, 198.280 50.594, 202.777 47.443 C 204.680 46.111, 205 44.966, 205 39.491 C 205 33.769, 204.460 32.036, 199.866 23.024 C 194.794 13.072, 190.487 8, 187.110 8 C 186.155 8, 184.165 9.262, 182.687 10.805 M 235 47.039 C 223.246 49.761, 163.812 57.584, 148 58.491 C 142.225 58.822, 133.533 60.017, 128.683 61.145 C 121.482 62.822, 119.672 63.626, 118.802 65.535 C 117.215 69.019, 118.337 70.596, 123.292 71.843 C 127.489 72.900, 127.823 73.241, 128.917 77.583 C 130.640 84.429, 132.994 110.917, 132.996 123.500 C 133.003 161.088, 121.611 229.108, 110.385 258.500 C 106.367 269.019, 106.334 269.074, 102.750 270.921 C 97.258 273.751, 100.493 282.404, 106.974 282.220 C 119.603 281.861, 131.642 246.264, 141.038 181.500 C 145.947 147.661, 146.270 92.976, 141.650 77.783 C 140.350 73.508, 140.370 73.023, 141.858 72.608 C 142.761 72.356, 151.150 71.415, 160.500 70.517 C 175.239 69.101, 188.179 67.439, 219.500 62.938 C 231.729 61.181, 239.336 58.928, 242.250 56.200 C 248.217 50.614, 243.779 45.006, 235 47.039 M 59.390 63.168 C 55.952 64.818, 54.920 70.082, 56.619 77.297 C 58.544 85.477, 61.912 99.612, 62.980 104 C 63.449 105.925, 64.147 109.525, 64.532 112 C 64.917 114.475, 65.646 117.287, 66.151 118.250 C 67.385 120.599, 71.267 120.467, 73.500 118 C 74.671 116.706, 76.579 116, 78.905 116.001 L 82.500 116.003 82.866 161.935 C 83.137 196.031, 82.913 209.194, 81.996 213.015 C 81.119 216.671, 81.072 218.472, 81.832 219.232 C 82.592 219.992, 80.252 221.552, 73.751 224.618 C 68.718 226.991, 64.496 228.829, 64.369 228.702 C 64.242 228.575, 65.048 225.328, 66.161 221.486 C 68.560 213.204, 69.606 194.381, 68.538 178.713 C 67.875 168.994, 67.648 168.129, 65.629 167.622 C 61.595 166.609, 59.199 168.046, 56.913 172.850 C 54.886 177.109, 54.686 179.139, 54.532 197 C 54.440 207.725, 54.001 219.660, 53.556 223.523 C 52.886 229.348, 53.014 230.767, 54.307 231.840 C 55.940 233.195, 55.569 233.998, 51.182 238.609 C 50.457 239.370, 50.135 240.851, 50.467 241.898 C 52.026 246.809, 63.404 245.104, 80.515 237.395 C 99.434 228.872, 117.811 216.259, 120.107 210.219 C 121.425 206.751, 120.120 202.996, 117.211 201.890 C 115.098 201.087, 114.077 201.400, 111.088 203.771 C 107.492 206.622, 95.689 214, 94.725 214 C 94.442 214, 94.604 212.312, 95.086 210.250 C 95.567 208.188, 96.264 200.762, 96.635 193.750 L 97.308 181 99.904 180.990 C 101.332 180.985, 106.325 179.072, 111 176.740 C 118.814 172.842, 119.525 172.238, 119.813 169.257 C 120.072 166.573, 119.672 165.808, 117.489 164.813 C 115.443 163.881, 114.423 163.879, 112.939 164.806 C 111.888 165.463, 109.728 166, 108.139 166 C 106.551 166, 103.395 166.655, 101.126 167.456 L 97 168.911 97 150.109 C 97 139.768, 96.709 127.201, 96.352 122.181 L 95.704 113.056 100.602 110.956 C 109.152 107.292, 111.231 103.627, 106.798 100.038 C 105.093 98.657, 103.912 98.452, 101.555 99.128 C 96.192 100.666, 95.913 100.087, 100.034 95.966 C 104.389 91.611, 110.327 82.854, 112.577 77.471 C 115.530 70.403, 111.301 63.628, 103.162 62.383 C 97.829 61.568, 72.670 63.571, 69.948 65.028 C 68.672 65.711, 67.737 65.594, 66.773 64.630 C 64.753 62.611, 61.778 62.021, 59.390 63.168 M 182.725 77.750 C 181.937 79.519, 181.527 85.394, 181.576 94.215 L 181.652 107.930 177.076 108.509 C 168.040 109.652, 166.430 110.051, 161.500 112.365 C 155.425 115.217, 151.341 119.170, 150.497 123.014 C 149.133 129.223, 154.208 132.225, 158.408 127.694 C 160.397 125.548, 166.267 123.871, 179.750 121.598 C 182.852 121.075, 183.002 121.197, 183.044 124.275 C 183.196 135.537, 184.926 147.935, 186.880 151.766 C 189.574 157.046, 192.060 158.377, 197.896 157.664 C 206.183 156.652, 223.675 152.305, 226.735 150.498 C 232.995 146.800, 235.258 137.986, 230.504 135.820 C 228.427 134.874, 227.645 135.003, 225.847 136.591 C 223.693 138.494, 223.688 138.492, 224.397 136 C 224.788 134.625, 225.614 130.463, 226.232 126.750 L 227.355 120 239.606 120 C 252.476 120, 255 119.199, 255 115.117 C 255 111.255, 251.548 109.325, 243.348 108.600 C 228.142 107.257, 228 107.208, 228 103.273 C 228 98.827, 225.372 93.290, 222.310 91.283 C 220.406 90.036, 219.412 89.947, 217.439 90.846 C 214.189 92.327, 212.897 95.969, 213.657 101.511 L 214.272 106 206.218 106 C 201.788 106, 197.452 106.273, 196.582 106.607 C 195.188 107.142, 195 105.617, 195 93.753 C 195 80.851, 194.898 80.182, 192.548 77.646 C 189.120 73.947, 184.397 73.997, 182.725 77.750 M 79.019 77.193 C 74.905 77.707, 71.372 78.294, 71.169 78.498 C 70.966 78.701, 71.498 81.709, 72.352 85.183 C 73.206 88.658, 74.210 94.323, 74.584 97.772 C 74.958 101.222, 75.663 104.292, 76.151 104.593 C 76.640 104.895, 78.493 104.698, 80.270 104.155 C 82.046 103.613, 85.170 102.888, 87.212 102.546 L 90.924 101.924 88.911 99.911 C 86.466 97.466, 87.056 94.891, 91.137 90.213 C 93.643 87.339, 99 78.020, 99 76.533 C 99 75.745, 87.591 76.122, 79.019 77.193 M 196.550 120.919 C 196.238 121.425, 196.280 127.058, 196.644 133.438 C 197.284 144.643, 197.378 145.013, 199.403 144.336 C 200.557 143.950, 203.391 143.138, 205.702 142.532 C 208.012 141.926, 210.197 141.137, 210.556 140.777 C 211.400 139.934, 213.997 126.332, 213.999 122.750 L 214 120 205.559 120 C 200.916 120, 196.862 120.414, 196.550 120.919 M 216.180 169.667 C 212.705 170.383, 207.810 171.875, 205.303 172.984 C 202.797 174.093, 200.328 175, 199.818 175 C 199.308 175, 197.002 175.831, 194.695 176.846 C 192.388 177.861, 187.933 179.704, 184.797 180.943 C 179.227 183.142, 173 187.962, 173 190.074 C 173 190.656, 173.472 192.013, 174.048 193.089 C 174.843 194.576, 174.723 195.420, 173.548 196.595 C 172.697 197.446, 172 198.768, 172 199.532 C 172 201.136, 175.857 205, 177.458 205 C 178.053 205, 182.687 209.165, 187.756 214.255 L 196.973 223.510 194.236 227.622 C 186.685 238.970, 179.094 245, 172.360 245 C 165.246 245, 161.831 249.831, 166 254 C 168.942 256.942, 179.644 256.808, 185.842 253.750 C 190.455 251.474, 201.818 240.999, 205.623 235.514 L 207.694 232.529 213.097 236.562 C 240.678 257.151, 270 262.176, 270 246.313 C 270 241.839, 267.054 240.264, 263.077 242.613 C 260.356 244.221, 259.832 244.219, 253.846 242.576 C 250.356 241.618, 244.575 239.442, 241 237.741 C 234.141 234.477, 218.301 224.273, 216.242 221.791 C 215.258 220.606, 216.052 217.964, 220.413 207.913 C 223.376 201.086, 227.411 192.350, 229.381 188.500 C 236.916 173.772, 231.788 166.455, 216.180 169.667 M 208 186.016 C 195.072 190.798, 192.584 191.793, 189.500 193.412 C 187.850 194.279, 184.475 195.037, 182 195.098 L 177.500 195.208 182.500 196.664 C 189.819 198.795, 193.633 200.983, 198.321 205.742 C 200.620 208.076, 202.826 209.988, 203.225 209.992 C 203.624 209.997, 204.905 207.863, 206.072 205.250 C 207.239 202.637, 210.159 196.563, 212.562 191.750 C 214.965 186.938, 216.609 183.054, 216.216 183.121 C 215.822 183.187, 212.125 184.490, 208 186.016" stroke="none" fill="black" fill-rule="evenodd"/>
</svg>