<svg xmlns="http://www.w3.org/2000/svg" width="300" height="300" viewBox="0 0 300 300" version="1.1">
	<path d="M 233.956 14.947 C 215.259 25.045, 199.304 31.216, 182 35.042 C 172.739 37.090, 171.690 37.535, 169.637 40.284 C 167.971 42.516, 167.839 43.351, 168.814 45.491 C 170.629 49.475, 173.655 50.056, 184.155 48.438 C 189.295 47.646, 194.963 46.722, 196.750 46.385 C 199.589 45.850, 200 46.042, 200 47.897 C 200 50.035, 197.033 69.403, 196.686 69.529 C 196.584 69.566, 191.775 70.374, 186 71.323 C 162.572 75.174, 155.904 77.986, 157.879 83.183 C 159.897 88.491, 176.970 89.599, 193.250 85.479 C 196.806 84.579, 197.081 87.186, 193.597 88.774 C 192.275 89.376, 189.590 92.286, 187.629 95.240 C 183.052 102.135, 162.373 122.317, 154.199 127.866 C 150.734 130.219, 145.109 133.618, 141.699 135.421 C 138.290 137.223, 134.868 139.809, 134.096 141.168 C 132.348 144.245, 133.312 148.647, 135.915 149.473 C 140.063 150.790, 157.860 142.260, 171 132.657 C 177.893 127.620, 191.636 114.482, 194.178 110.500 L 196.093 107.500 195.842 129.315 C 195.570 152.916, 195.586 152.988, 201 152.953 C 203.816 152.935, 206.132 150.237, 207.828 145 C 208.858 141.819, 210.992 119.116, 210.998 111.275 C 211 108.170, 211.103 108.089, 213.750 109.094 C 215.262 109.668, 218.991 112.304, 222.035 114.951 C 225.929 118.336, 233.705 122.764, 248.258 129.882 C 259.637 135.447, 269.573 140, 270.338 140 C 272.592 140, 277 136.013, 277 133.974 C 277 130.390, 274.779 127.253, 270.650 125.006 C 257.946 118.092, 232.016 105.758, 222.250 101.983 L 211 97.635 211 90.424 C 211 85.231, 211.384 83.066, 212.374 82.687 C 213.130 82.397, 217.517 81.835, 222.124 81.437 C 232.180 80.571, 236.903 79.037, 242.036 74.972 C 246.442 71.482, 247.578 68.949, 246.032 66.061 C 243.986 62.237, 241.770 61.922, 235.301 64.535 C 231.461 66.085, 226.148 67.208, 220.639 67.631 L 212 68.295 212 63.197 C 212 55.926, 213.803 48.488, 216.062 46.444 C 217.128 45.479, 218.002 43.522, 218.004 42.095 C 218.008 39.730, 219.519 38.761, 235.061 31.164 C 253.709 22.049, 255.726 20.212, 252.249 15.507 C 248.911 10.990, 241.692 10.769, 233.956 14.947 M 36.310 45.410 C 33.691 47.663, 33.504 48.325, 33.564 55.163 C 33.608 60.106, 34.847 67.394, 37.361 77.500 C 39.413 85.750, 41.279 93.400, 41.508 94.500 C 41.736 95.600, 43.165 98.412, 44.685 100.750 C 46.891 104.144, 48.033 105, 50.358 105 L 53.270 105 50.694 107.026 C 47.223 109.757, 46.481 112.559, 48.440 115.549 C 49.818 117.651, 50.817 118, 55.465 118 C 60.315 118, 62.751 117.049, 78.692 108.933 C 100.779 97.687, 102.791 95.700, 97.472 90.381 C 95.432 88.341, 94.323 87.972, 91.722 88.471 L 88.500 89.089 93.153 84.794 C 95.713 82.433, 100.282 77.247, 103.306 73.272 C 109.099 65.659, 110.959 59.644, 109.532 53.144 C 108.330 47.675, 105.847 46.495, 95.644 46.543 C 80.542 46.614, 55.755 51.652, 51.057 55.606 L 48.277 57.945 45.512 51.440 C 42.077 43.358, 40.157 42.100, 36.310 45.410 M 83 61.999 C 79.425 62.393, 73.638 63.479, 70.140 64.413 C 66.643 65.347, 60.680 66.141, 56.890 66.176 C 53.101 66.212, 50 66.442, 50 66.687 C 50 69.632, 54.330 93.747, 55.125 95.234 C 55.712 96.330, 56.014 98.751, 55.797 100.614 C 55.579 102.476, 55.457 104, 55.525 104 C 55.593 104, 58.993 102.313, 63.082 100.250 C 67.171 98.188, 72.724 95.637, 75.423 94.583 C 79.754 92.891, 80.075 92.572, 78.164 91.865 C 76.974 91.425, 76 90.412, 76 89.614 C 76 88.816, 75.749 87.509, 75.442 86.708 C 75.100 85.819, 76.921 83.162, 80.123 79.877 C 85.064 74.807, 93 63.694, 93 61.845 C 93 60.929, 92.676 60.934, 83 61.999 M 84 109.716 C 78.618 111.719, 77.210 116.826, 75.513 140.500 C 73.017 175.320, 72.732 186.954, 73.994 202.462 C 75.521 221.229, 75.790 222, 80.815 222 C 86.908 222, 87.298 220.389, 88.070 192 C 88.436 178.525, 88.796 167.430, 88.868 167.345 C 88.941 167.260, 90.700 167.418, 92.777 167.697 C 96.468 168.192, 109.587 164.884, 118.195 161.289 C 125.821 158.104, 128.482 151.961, 124.031 147.814 L 121.812 145.747 108.656 148.971 C 101.420 150.744, 93.980 153.070, 92.123 154.139 L 88.745 156.083 89.362 153.791 C 89.701 152.531, 90.280 143.054, 90.648 132.731 C 91.454 110.140, 90.620 107.253, 84 109.716 M 174.401 144.431 C 172.130 146.022, 170.522 150.748, 169.463 158.944 C 169.076 161.938, 167.856 166.888, 166.752 169.944 C 165.648 173, 163.973 177.735, 163.031 180.467 L 161.317 185.434 146.438 187.657 C 129.138 190.242, 127 190.988, 127 194.443 C 127 198.578, 129.856 199.290, 143.224 198.487 C 154.708 197.797, 155.155 197.843, 154.217 199.634 C 147.971 211.553, 147.277 216.948, 151.022 224.493 C 154.105 230.704, 159.454 236.002, 169.359 242.655 L 177.034 247.811 168.767 256.029 C 164.220 260.549, 157.559 266.555, 153.965 269.374 C 147.604 274.364, 146.440 275.195, 140.798 278.769 C 136.208 281.678, 135.965 288.276, 140.386 289.957 C 143.162 291.012, 147.574 290.218, 149.092 288.389 C 149.726 287.625, 150.710 287, 151.277 287 C 153.917 287, 173.191 272.808, 181.887 264.462 L 191.571 255.166 204.848 261.649 C 219.162 268.638, 222.404 269.117, 225.499 264.698 C 227.375 262.020, 227.441 257.611, 225.628 256.106 C 224.873 255.480, 219.810 252.771, 214.378 250.088 C 199.433 242.705, 200.047 243.894, 206.330 234.500 C 211.529 226.725, 222.554 205.680, 224.730 199.377 C 225.962 195.806, 226.644 195.672, 252 194.021 C 271.639 192.743, 279 189.607, 279 182.518 C 279 180.219, 278.334 178.647, 276.950 177.677 C 275.142 176.411, 274.164 176.478, 268.700 178.237 C 261.001 180.716, 231 182.140, 231 180.026 C 231 179.346, 231.719 176.024, 232.598 172.644 C 235.545 161.311, 233.146 152, 227.279 152 C 223.237 152, 221 153.790, 221 157.025 C 221 159.632, 215.559 180.774, 214.656 181.678 C 214.226 182.107, 178.751 184.084, 178.367 183.700 C 178.216 183.549, 179.482 179.392, 181.181 174.463 C 183.707 167.134, 184.291 163.799, 184.385 156.170 C 184.492 147.503, 184.332 146.703, 182.139 144.920 C 179.325 142.631, 177.166 142.495, 174.401 144.431 M 43.997 161.801 C 41.056 164.183, 39.871 173.691, 39.551 197.500 C 39.417 207.400, 38.970 217.875, 38.556 220.777 C 37.647 227.166, 39.534 231, 43.589 231 C 47.949 231, 49.888 229.201, 51.430 223.726 C 54.865 211.524, 54.163 171.361, 50.374 163.377 C 48.560 159.553, 47.191 159.215, 43.997 161.801 M 189.116 198.012 C 170.535 198.795, 171.480 198.349, 166.499 208.688 C 161.905 218.226, 163.170 220.379, 179.742 231.214 L 186.983 235.949 192.977 227.034 C 198.447 218.899, 209 199.626, 209 197.772 C 209 197.347, 208.213 197.072, 207.250 197.161 C 206.287 197.249, 198.127 197.632, 189.116 198.012 M 119.561 205.073 C 116.888 207.766, 104.705 214.342, 95.852 217.869 C 88.333 220.865, 78.308 225.454, 60.372 234.111 C 54.801 236.800, 49.956 239, 49.605 239 C 49.253 239, 45.630 241.025, 41.553 243.500 C 37.476 245.975, 33.771 248, 33.320 248.001 C 32.869 248.001, 30.388 250.055, 27.806 252.565 C 24.553 255.727, 23.303 257.646, 23.733 258.814 C 24.619 261.219, 26.042 261.967, 29.763 261.985 C 37.546 262.021, 48.961 257.457, 75.500 243.697 C 80.397 241.158, 84.426 239.282, 98.467 233.004 C 107.319 229.046, 120.947 220.706, 126.243 216.006 C 130.744 212.012, 131.715 207.572, 128.738 204.595 C 126.583 202.440, 121.934 202.682, 119.561 205.073" stroke="none" fill="black" fill-rule="evenodd"/>
</svg>