<svg xmlns="http://www.w3.org/2000/svg" width="300" height="300" viewBox="0 0 300 300" version="1.1">
	<path d="M 191.113 18.109 C 189.951 19.356, 189 21.252, 189 22.320 C 189 25.486, 195.561 30.816, 201.626 32.580 C 204.654 33.460, 207.375 34.815, 207.673 35.590 C 207.971 36.366, 209.500 37, 211.072 37 C 214.414 37, 216.454 34.066, 215.445 30.712 C 214.400 27.239, 209.005 22.157, 205.599 21.438 C 203.894 21.078, 201.600 19.966, 200.500 18.966 C 197.077 15.854, 193.517 15.529, 191.113 18.109 M 156.373 23.554 C 154.873 25.843, 154.836 26.852, 156.021 33.304 C 156.748 37.262, 157.941 42.244, 158.672 44.376 C 160.845 50.717, 160.898 50.672, 149.750 51.949 C 144.113 52.595, 134.325 53.751, 128 54.517 C 109.676 56.737, 99 57.276, 99 55.981 C 99 52.633, 92.576 50.181, 89.674 52.422 C 88.048 53.677, 87.815 55.795, 87.546 71.742 C 87.254 89.039, 86.430 96.928, 83.419 111.250 C 75.972 146.672, 74.311 152.259, 67.370 165.231 C 66.269 167.289, 66.175 168.459, 66.990 169.981 C 68.400 172.616, 74.981 172.788, 77.265 170.250 C 80.677 166.458, 85.943 153.980, 88.343 144 C 96.128 111.628, 100 88.564, 100 74.568 L 100 67 105.080 67 C 107.873 67, 114.286 66.577, 119.330 66.060 C 131.345 64.829, 152.205 63.063, 158.448 62.749 C 163.339 62.503, 163.406 62.541, 164.270 66 C 168.928 84.661, 174.322 101.865, 179.074 113.216 L 183.978 124.932 180.785 129.664 C 179.028 132.267, 174.758 137.399, 171.295 141.070 C 167.833 144.740, 165 148.173, 165 148.697 C 165 149.222, 166.107 150.692, 167.461 151.963 C 169.723 154.089, 170.181 154.168, 173.140 152.942 C 174.911 152.209, 179.569 148.399, 183.492 144.476 L 190.625 137.342 193.542 141.421 C 198.867 148.870, 204.025 153.786, 210.827 157.895 C 219.787 163.309, 222.868 163.878, 226.467 160.782 C 228.880 158.706, 229.359 157.371, 229.997 150.940 C 230.876 142.070, 229.760 138.648, 225.839 138.193 C 222.806 137.841, 220 140.994, 220 144.754 C 220 148.145, 217.691 148.466, 213.343 145.680 C 208.653 142.675, 204.105 137.976, 200.105 132.003 C 197.216 127.689, 197.160 127.405, 198.735 125.003 C 200.993 121.560, 209.126 107.173, 211.198 102.956 C 216.981 91.188, 218 88.325, 218 83.848 C 218 80.314, 217.545 78.832, 216.250 78.153 C 211.858 75.852, 207.364 80.511, 201.960 92.970 C 199.726 98.120, 197.118 103.496, 196.163 104.917 C 195.209 106.338, 193.806 108.737, 193.045 110.250 C 192.284 111.763, 191.372 113, 191.018 113 C 189.336 113, 180.160 87.344, 176.355 72.002 C 175.060 66.779, 174 62.215, 174 61.861 C 174 60.517, 179.083 60.095, 197.500 59.913 C 217.617 59.713, 220 59.171, 220 54.797 C 220 51.796, 215.267 48.163, 210.410 47.434 C 206.534 46.853, 187.857 48.008, 175 49.624 L 170.500 50.190 168.291 41.345 C 167.076 36.480, 165.794 30.925, 165.443 29 C 164.037 21.304, 159.595 18.637, 156.373 23.554 M 120.750 78.470 C 118.592 81.438, 118.523 86.778, 120.500 98 C 121.323 102.675, 121.998 106.612, 121.999 106.750 C 121.999 106.888, 121.314 107, 120.475 107 C 117.814 107, 108.160 110.750, 104.965 113.025 C 102.635 114.684, 101.962 115.857, 102.194 117.858 L 102.500 120.500 111 120.179 C 115.675 120.003, 120.175 119.670, 121 119.440 C 122.277 119.084, 122.449 120.499, 122.159 128.940 C 121.918 135.931, 122.287 140.474, 123.409 144.333 C 125.439 151.318, 125.503 151, 122.067 151 C 116.964 151, 117.113 158.062, 122.288 161.453 C 124.353 162.806, 125.180 162.833, 128.574 161.658 C 131.610 160.607, 133 159.299, 134.805 155.790 C 137.105 151.321, 137.113 151.189, 135.565 143.027 C 134.704 138.490, 134 134.588, 134 134.354 C 134 132.744, 138.529 136.931, 141.693 141.466 C 145.815 147.374, 148.399 149.250, 152.415 149.250 C 158.101 149.250, 159.775 144.207, 155.589 139.691 C 154.263 138.260, 152.186 135.325, 150.975 133.169 C 149.358 130.292, 147.772 128.949, 145.020 128.124 C 139.845 126.574, 135.970 126.718, 133.962 128.535 C 132.390 129.957, 132.215 129.618, 131.566 123.885 C 131.052 119.341, 131.203 117.492, 132.136 116.916 C 133.830 115.869, 140.973 114.964, 149.293 114.743 C 157.046 114.537, 159.672 112.814, 158.620 108.624 C 157.589 104.516, 150.818 102.577, 140.439 103.420 L 131.886 104.114 132.193 99.307 L 132.500 94.500 141.120 93.843 C 149.745 93.185, 156.013 91.027, 155.985 88.724 C 155.936 84.814, 150.654 83.174, 137.750 83.060 C 131.877 83.008, 131 82.760, 131 81.155 C 131 78.638, 127.862 75.993, 124.921 76.031 C 123.541 76.049, 121.747 77.098, 120.750 78.470 M 110 128.265 C 101.499 132.465, 98.858 159, 106.941 159 C 110.441 159, 112 157.815, 112.015 155.143 C 112.039 150.861, 115.428 141.238, 117.802 138.711 C 120.720 135.605, 120.575 133.827, 117.099 130.106 C 113.843 126.621, 113.505 126.533, 110 128.265 M 159.500 169.585 C 149.336 171.370, 134.022 176.726, 131.779 179.280 C 129.569 181.796, 130.837 184.399, 134.974 185.841 C 138.096 186.930, 143.222 186.001, 154.500 182.305 C 159.586 180.639, 180.120 179.788, 181.519 181.186 C 182.478 182.145, 178.158 190.484, 174.527 194.681 C 171.656 198, 171.038 198.230, 162.500 199.144 C 157.550 199.673, 150.186 201.208, 146.136 202.553 C 137.506 205.421, 138 205.351, 138 203.694 C 138 202.976, 136.920 200.925, 135.600 199.135 C 134.280 197.346, 132.231 193.290, 131.046 190.123 C 128.508 183.337, 124.831 179, 121.615 179 C 119.028 179, 116 181.831, 116 184.249 C 116 186.236, 122.403 199.089, 126.179 204.682 C 128.899 208.711, 128.930 208.888, 127.001 209.500 C 124.660 210.243, 124.366 213.229, 126.463 214.969 C 128.459 216.626, 139.162 217.487, 142.657 216.272 L 145.500 215.283 145.510 235.892 C 145.521 258.743, 146.246 262.235, 151.093 262.801 C 155.043 263.261, 156.103 260.958, 156.723 250.574 C 157.375 239.640, 158.376 238.273, 165.734 238.273 C 170.401 238.273, 176.364 234.578, 177.507 230.979 C 179.281 225.389, 172.292 219.686, 168.861 223.924 C 167.923 225.082, 166.006 226, 164.524 226 C 163.063 226, 160.998 226.466, 159.934 227.035 C 158.092 228.021, 158 227.664, 158 219.535 C 158 214.841, 158.338 210.991, 158.750 210.980 C 159.162 210.969, 162.553 210.519, 166.284 209.979 C 174.603 208.777, 180 206.626, 180 204.515 C 180 203.642, 182.038 200.806, 184.528 198.214 C 189.767 192.760, 194 184.909, 194 180.648 C 194 175.678, 189.943 171.528, 183.248 169.649 C 176.282 167.695, 170.351 167.679, 159.500 169.585 M 102.098 231.341 C 100.050 234.655, 97.790 241.483, 94.597 254 C 92.589 261.873, 90.835 287.757, 92.142 290.238 C 93.707 293.208, 97.783 293.552, 100.555 290.948 C 102.684 288.948, 103 287.771, 103 281.846 C 103 275.295, 104.566 265.224, 107.574 252.436 C 108.358 249.101, 109 244.300, 109 241.767 C 109 239.234, 109.769 235.822, 110.709 234.185 C 112.144 231.684, 112.205 230.951, 111.086 229.604 C 108.727 226.761, 104.414 227.595, 102.098 231.341 M 118.559 256.486 C 117.491 257.319, 115.409 258, 113.931 258 C 112.454 258, 110.732 258.618, 110.105 259.373 C 107.617 262.372, 111.764 266, 117.679 266 C 119.081 266, 122.089 266.957, 124.364 268.126 C 126.639 269.295, 129.258 270.630, 130.184 271.093 C 132.477 272.239, 142.210 275.351, 149.500 277.270 C 152.800 278.139, 157.443 279.360, 159.819 279.985 C 162.194 280.610, 169.997 281.994, 177.159 283.061 C 192.156 285.294, 223.174 285.789, 227.403 283.862 C 229.950 282.702, 232.301 277.947, 231.438 275.700 C 230.595 273.501, 226.890 271.710, 225.682 272.918 C 224.315 274.285, 210.860 274.315, 196.500 272.982 C 167.841 270.323, 149.055 266.254, 133.500 259.335 C 123.819 255.029, 121.094 254.509, 118.559 256.486" stroke="none" fill="black" fill-rule="evenodd"/>
</svg>