<svg xmlns="http://www.w3.org/2000/svg" width="300" height="300" viewBox="0 0 300 300" version="1.1">
	<path d="M 208 16.558 C 205.525 17.341, 199.489 18.688, 194.586 19.550 C 189.683 20.413, 184.311 21.822, 182.648 22.682 C 180.325 23.883, 179.207 23.986, 177.825 23.123 C 172.980 20.097, 166.839 23.054, 165.653 28.984 C 165.091 31.793, 166.140 51.088, 168.018 72.500 C 168.549 78.550, 168.987 86.518, 168.991 90.206 C 168.998 95.701, 169.451 97.576, 171.500 100.596 C 176.790 108.390, 178.947 108.581, 196.651 102.817 C 208.117 99.084, 210.576 98.627, 219.500 98.567 C 225 98.530, 230.063 98.136, 230.750 97.691 C 231.438 97.246, 232 95.784, 232 94.441 C 232 92.641, 232.542 92, 234.066 92 C 237.425 92, 239.715 90.256, 240.930 86.772 C 242.377 82.619, 244.336 43.303, 243.459 36.018 C 242.225 25.778, 238.376 19.623, 231.125 16.295 C 227.548 14.653, 213.514 14.813, 208 16.558 M 208.500 32.154 C 204.650 33.261, 196.775 34.702, 191 35.358 L 180.500 36.549 180.720 44.524 C 180.842 48.911, 181.184 53.877, 181.480 55.560 L 182.019 58.621 189.260 57.350 C 193.242 56.651, 199.965 56.062, 204.201 56.040 C 210.921 56.005, 214.953 55.494, 224.750 53.435 C 226.888 52.985, 226.999 52.502, 226.986 43.731 C 226.966 30.284, 226.828 29.985, 220.633 30.071 C 217.810 30.110, 212.350 31.047, 208.500 32.154 M 81 49.522 C 61.303 54.544, 59.403 55.320, 57.422 59.151 C 55.581 62.711, 56.370 64.473, 60.731 66.542 C 65.062 68.598, 70.684 68.115, 84.648 64.487 C 89.912 63.119, 94.631 62, 95.135 62 C 95.639 62, 95.322 63.411, 94.430 65.136 C 93.538 66.861, 91.750 71.082, 90.457 74.517 C 89.164 77.952, 86.731 82.931, 85.050 85.583 C 83.349 88.265, 82.231 91.152, 82.529 92.092 C 82.920 93.324, 82.177 94.091, 79.783 94.925 C 77.977 95.554, 74.925 97.105, 73 98.373 C 69.913 100.407, 64.556 103.450, 54.503 108.881 C 49.322 111.679, 45.539 117.027, 46.377 120.366 C 47.924 126.531, 57.662 125.893, 68.878 118.892 C 74.754 115.225, 75.203 115.092, 74.585 117.206 C 72.535 124.213, 72.056 136.395, 71.981 183.483 C 71.925 218.994, 72.231 235.577, 72.949 235.816 C 75.077 236.526, 73.847 238.007, 67.250 242.681 C 63.538 245.311, 60.350 247.808, 60.167 248.231 C 59.983 248.654, 59.417 249, 58.908 249 C 58.399 249, 56.613 250.238, 54.940 251.750 C 53.266 253.263, 48.598 256.300, 44.566 258.500 C 36.934 262.665, 31.386 267.125, 29.250 270.814 C 27.403 274.005, 27.700 279.419, 29.829 281.345 C 32.446 283.713, 35.038 283.403, 40.079 280.120 C 54.781 270.542, 62.725 265.112, 72.500 257.962 C 78.550 253.536, 86.650 247.816, 90.500 245.251 C 98.560 239.881, 109.555 229.746, 111.600 225.800 C 113.427 222.275, 113.373 218.978, 111.443 216.223 C 109.020 212.763, 106.381 213.544, 100.248 219.531 C 97.132 222.573, 92.603 226.169, 90.182 227.522 L 85.781 229.982 86.334 226.741 C 86.639 224.958, 87.196 212.397, 87.573 198.826 L 88.258 174.152 90.826 173.508 C 95.850 172.247, 111.525 165.763, 114.488 163.721 C 121.341 158.997, 122.225 156.401, 118.586 151.686 C 116.518 149.007, 112.790 149.419, 99.868 153.758 L 88.237 157.664 87.793 139.082 C 87.443 124.433, 87.685 119.027, 88.939 113.540 C 90.529 106.585, 90.534 106.578, 94.874 105.322 C 97.263 104.630, 99.844 103.544, 100.609 102.909 C 102.770 101.116, 102.254 97.163, 99.500 94.409 C 98.125 93.034, 97 91.720, 97 91.488 C 97 91.257, 98.688 88.455, 100.750 85.262 C 106.730 76.003, 112.089 64.753, 112.705 60.165 C 113.397 55.005, 110.872 48.719, 107.489 47.177 C 102.163 44.750, 98.418 45.082, 81 49.522 M 39.953 48.282 C 39.103 48.952, 37.788 51.018, 37.031 52.874 C 35.839 55.797, 35.885 57.534, 37.375 65.874 C 40.630 84.085, 45.117 102.504, 46.906 105 C 49.439 108.535, 53.905 108.794, 56.923 105.582 C 59.259 103.096, 59.271 102.969, 58.123 92.771 C 57.486 87.106, 56.058 78.678, 54.951 74.042 C 53.844 69.406, 52.494 62.484, 51.952 58.658 C 51.150 53.003, 50.454 51.263, 48.233 49.353 C 45.235 46.775, 42.342 46.401, 39.953 48.282 M 221.095 68.175 C 211.992 71.391, 201.746 72.293, 191.464 70.785 L 182.428 69.459 182.222 78.416 C 182.109 83.343, 181.736 88.258, 181.393 89.338 C 180.900 90.890, 181.126 91.166, 182.467 90.651 C 183.401 90.293, 189.865 88.603, 196.832 86.896 C 207.248 84.345, 210.800 83.887, 216.810 84.324 C 220.831 84.616, 224.768 85.393, 225.560 86.050 C 226.798 87.077, 227 85.754, 227 76.622 C 227 70.780, 226.887 66.060, 226.750 66.133 C 226.613 66.206, 224.068 67.125, 221.095 68.175 M 224.878 108.008 C 223.986 108.529, 213.043 111, 200.560 113.499 C 188.076 115.998, 173.569 119.158, 168.322 120.521 C 163.074 121.885, 156.558 123, 153.841 123 C 145.510 123, 139.483 127.597, 142.171 131.902 C 143.958 134.764, 150.139 137.920, 155.359 138.636 C 159.168 139.158, 159.786 139.532, 159.070 140.881 C 158.596 141.772, 156.536 147, 154.490 152.500 C 152.445 158, 148.999 165.768, 146.834 169.761 C 139.523 183.243, 132.845 194.488, 130.917 196.564 C 129.863 197.700, 129 199.805, 129 201.243 C 129 207.712, 136.955 209.194, 141.988 203.664 C 148.947 196.016, 155.936 186.491, 158.627 180.984 C 160.652 176.842, 162.090 175.081, 163.500 175.018 C 164.600 174.969, 166.625 174.286, 168 173.500 C 172.533 170.909, 172.897 171.929, 169.470 177.620 C 161.771 190.406, 154.860 218.132, 157.938 223.884 C 159.624 227.035, 163.568 228.328, 166.713 226.760 C 168.801 225.719, 169.806 223.587, 172.491 214.500 C 174.279 208.450, 176.873 199.675, 178.255 195 C 179.637 190.325, 181.323 183.444, 182.001 179.708 C 183.087 173.723, 183.041 172.703, 181.611 171.122 C 180.068 169.418, 180.681 169.146, 193.986 165.644 C 209.125 161.659, 221.335 159.668, 227.498 160.178 C 230.873 160.458, 231.483 160.895, 232.138 163.500 C 233.633 169.457, 235.713 227.201, 234.875 239.500 C 234.034 251.835, 231.852 263.911, 229.381 269.898 L 227.978 273.296 224.039 269.278 C 218.940 264.075, 216.473 263.436, 213.390 266.519 C 212.075 267.834, 211 269.675, 211 270.610 C 211 273.081, 219.988 285.853, 223.473 288.336 C 230.302 293.201, 239.269 289.163, 243.654 279.248 C 249.831 265.281, 251.211 257.911, 251.754 236.005 C 252.244 216.262, 250.924 184.669, 248.875 167.036 C 247.844 158.172, 244.667 150.180, 240.860 146.879 C 239.733 145.901, 236.332 144.546, 233.304 143.869 C 228.677 142.833, 226.256 142.903, 218.149 144.305 C 194.635 148.372, 184.444 151.160, 174.102 156.355 L 169.188 158.823 171.514 153.565 C 172.793 150.673, 174.383 145.540, 175.049 142.157 C 176.437 135.103, 174.110 136.303, 196.500 131.089 C 203.650 129.424, 212.800 127.594, 216.834 127.023 C 229.458 125.234, 238.052 120.188, 237.968 114.615 C 237.886 109.136, 229.871 105.091, 224.878 108.008 M 41.651 168.492 C 40.772 169.371, 39.564 171.982, 38.967 174.295 C 38.370 176.608, 37.606 179.400, 37.271 180.500 C 36.935 181.600, 36.769 193.075, 36.900 206 C 37.040 219.727, 36.619 234.374, 35.887 241.219 C 34.714 252.194, 34.751 253.067, 36.472 254.969 C 40.402 259.312, 45.406 256.916, 47.426 249.726 C 49.287 243.099, 51.687 226.300, 52.530 214 C 53.492 199.974, 51.573 174.668, 49.245 170.670 C 47.140 167.055, 43.991 166.152, 41.651 168.492 M 194 168.707 C 191.936 169.523, 190.957 171.212, 191.510 173 C 191.765 173.825, 191.310 175.779, 190.499 177.341 C 188.867 180.485, 186.806 190.753, 185.048 204.500 C 182.742 222.536, 174.760 251.906, 168.605 265 C 165.527 271.547, 165.407 273.153, 167.829 275.345 C 179.474 285.884, 196.562 249.037, 202.501 200.580 C 204.804 181.795, 204.761 174.499, 202.329 171.227 C 200.341 168.552, 196.972 167.533, 194 168.707" stroke="none" fill="black" fill-rule="evenodd"/>
</svg>