<svg xmlns="http://www.w3.org/2000/svg" width="300" height="300" viewBox="0 0 300 300" version="1.1">
	<path d="M 167 19.151 C 163.050 20.218, 162.880 20.223, 157.838 19.400 C 154.657 18.880, 153.951 19.146, 152.461 21.419 C 150.364 24.619, 150.303 26.426, 151.277 56.500 C 151.944 77.132, 151.839 80.902, 150.527 83.364 C 148.517 87.135, 148.600 89.328, 150.829 91.345 C 153.090 93.391, 158.357 93.500, 160.317 91.540 C 161.534 90.323, 162.781 90.267, 167.810 91.202 C 172.831 92.136, 175.409 92.021, 183.172 90.522 C 188.302 89.530, 194.933 87.882, 197.907 86.860 C 204.767 84.500, 205 84.517, 205 87.378 C 205 92.099, 211.431 94.014, 215.069 90.375 C 217.522 87.922, 220.243 76.583, 223.552 55.028 C 226.555 35.466, 226.420 28.803, 222.924 23.894 C 219.583 19.202, 215.386 17.812, 208.437 19.096 C 204.398 19.843, 199.810 19.837, 192.820 19.077 C 181.163 17.809, 171.867 17.835, 167 19.151 M 166 41.638 L 166 53.275 174.750 52.632 C 179.563 52.278, 188.986 51.452, 195.692 50.795 C 209.338 49.458, 208.266 50.273, 209.573 40.250 L 210.258 35 201.879 34.980 C 196.276 34.967, 190.353 34.145, 184 32.500 C 178.775 31.147, 172.588 30.031, 170.250 30.020 L 166 30 166 41.638 M 40.913 58.282 C 35.333 62.567, 35.667 69.634, 42.420 90.085 C 45.401 99.113, 48.375 109.200, 49.028 112.500 C 49.682 115.800, 50.673 119.063, 51.231 119.750 C 52.481 121.291, 57.210 121.390, 58.693 119.907 C 59.483 119.117, 60.350 119.117, 61.827 119.907 C 62.950 120.508, 64.846 121, 66.041 121 C 67.516 121, 68.037 121.460, 67.664 122.432 C 66.385 125.765, 65.849 138.005, 65.091 181.107 C 64.401 220.339, 64.059 227.175, 62.644 230.011 C 60.777 233.753, 60.533 236.593, 62 237.500 C 63.982 238.725, 62.917 239.864, 58.250 241.511 C 55.638 242.433, 51.315 244.298, 48.644 245.655 C 45.974 247.012, 43.681 247.982, 43.549 247.811 C 43.417 247.640, 44.561 241.932, 46.092 235.126 C 52.361 207.266, 51.692 189.776, 43.762 174.173 C 40.941 168.622, 35.996 169.053, 33.593 175.058 C 31.575 180.103, 31.579 185.089, 33.607 193.688 C 35.692 202.527, 34.989 222.005, 32.009 238 C 30.830 244.325, 30.051 250.792, 30.278 252.371 C 30.610 254.687, 29.862 256.094, 26.416 259.640 C 20.909 265.306, 19.187 270.110, 21.433 273.538 C 23.430 276.586, 24.607 276.612, 29.018 273.706 C 30.933 272.444, 34.525 270.550, 37 269.499 C 39.475 268.447, 45.775 265.251, 51 262.397 C 56.225 259.543, 65.439 255.101, 71.476 252.526 C 86.315 246.198, 93.368 242.119, 103.722 233.879 C 112.871 226.599, 115.051 223.910, 114.259 220.881 C 112.783 215.237, 107.220 215.485, 98.362 221.587 C 92.586 225.567, 76.478 234, 74.654 234 C 74.350 234, 74.741 232.471, 75.522 230.602 C 76.303 228.733, 77.426 220.970, 78.017 213.352 C 79.289 196.959, 79.519 196, 82.173 196 C 83.294 196, 85.498 194.917, 87.071 193.594 C 88.644 192.270, 93.659 189.959, 98.215 188.457 C 108.931 184.926, 111.314 183.673, 116.614 178.788 C 121.508 174.277, 122.190 171.190, 119 168 C 116.480 165.480, 115.411 165.496, 110.504 168.126 C 108.322 169.295, 104.893 170.832, 102.884 171.541 C 95.900 174.005, 86.481 179.144, 83.265 182.244 L 80.031 185.362 80.546 164.431 C 80.829 152.919, 81.320 137.945, 81.637 131.155 L 82.212 118.809 85.856 117.358 C 87.860 116.560, 92.760 114.329, 96.744 112.402 C 104.846 108.482, 106.470 105.892, 103.587 101.493 C 101.630 98.505, 100.461 98.444, 91.704 100.873 L 84.951 102.745 89.896 97.517 C 95.621 91.463, 101.200 83.057, 104.609 75.348 C 109.623 64.013, 106.582 57.801, 96.163 58.094 C 93.048 58.181, 86.799 57.907, 82.275 57.485 C 69.961 56.336, 55.504 58.988, 52.282 62.988 C 51.612 63.820, 51.049 64.003, 51.032 63.396 C 50.978 61.519, 46.195 56.998, 44.298 57.032 C 43.309 57.049, 41.786 57.612, 40.913 58.282 M 205.819 64.514 C 205.075 65.259, 178.508 67.977, 171.851 67.989 L 166.201 68 165.843 72.500 C 165.528 76.463, 165.725 76.998, 167.493 76.980 C 171.905 76.937, 184.075 74.805, 194.350 72.275 C 203.727 69.967, 205.326 69.273, 206.128 67.164 C 207.027 64.800, 206.871 63.462, 205.819 64.514 M 64 73.556 C 60.975 74.360, 57.487 74.851, 56.250 74.647 C 55.013 74.444, 54.005 74.777, 54.011 75.389 C 54.016 76, 55.591 82.096, 57.511 88.936 C 59.430 95.775, 61 102.682, 61 104.284 L 61 107.196 67.250 106.486 C 70.688 106.095, 73.629 105.659, 73.787 105.517 C 73.946 105.375, 73.551 104.108, 72.910 102.703 C 71.871 100.421, 72.117 99.682, 75.206 95.823 C 82.119 87.184, 89.718 74.385, 88.599 73.265 C 87.289 71.956, 69.219 72.170, 64 73.556 M 167.750 95.392 C 166.787 96.123, 165.991 97.796, 165.981 99.110 C 165.970 100.425, 164.471 103.207, 162.650 105.294 C 160.828 107.380, 158.542 111.655, 157.570 114.794 C 155.948 120.030, 148.188 135.782, 145.763 138.761 C 145.199 139.455, 144.008 141.288, 143.118 142.835 C 139.614 148.927, 135.535 155.804, 131.610 162.239 C 122.747 176.771, 121.375 181.046, 124.750 183.608 C 125.713 184.339, 127.940 184.951, 129.699 184.968 C 133.554 185.007, 134.012 184.451, 149.077 161.427 L 159.949 144.812 165.225 144.560 C 176.398 144.026, 187.544 141.175, 198.496 136.048 C 209.771 130.769, 211.853 130.014, 208.337 132.477 C 205.213 134.664, 204.810 137.971, 206.491 147.611 C 207.705 154.572, 207.815 158.781, 207.044 168.894 C 206.515 175.827, 205.572 183.975, 204.948 187 C 201.949 201.539, 200.018 211.024, 198.944 216.500 C 195.695 233.062, 187.671 253.220, 181.441 260.470 C 180.099 262.033, 179 264.091, 179 265.045 C 179 267.812, 182.223 270.940, 185.782 271.628 C 188.728 272.198, 189.481 271.813, 193.125 267.881 C 202.742 257.504, 208.497 243.872, 216.015 213.661 C 221.849 190.220, 223.507 178.145, 223.459 159.442 C 223.405 138.097, 221.690 133.421, 213.032 131.003 C 210.835 130.390, 211.410 130.011, 217.374 128.142 C 226.409 125.312, 234.529 124.364, 236.406 125.922 C 238.264 127.464, 238.630 129.970, 241.011 157.484 C 244.665 199.702, 243.308 249.248, 238.039 266.035 C 235.110 275.363, 234.932 275.538, 230.895 273.077 C 226.666 270.499, 225.512 270.488, 223 273 C 218.930 277.070, 220.910 282.749, 228.256 288.071 C 238.922 295.797, 250.141 286.747, 254.376 267 C 260.339 239.189, 260.839 204.229, 256.002 153.193 C 253.259 124.246, 252.296 120.425, 246.339 114.837 C 239.621 108.535, 229.698 108.870, 206 116.198 C 202.434 117.301, 184.152 125.939, 176 130.372 C 170.482 133.373, 167 134.454, 167 133.165 C 167 132.632, 168.767 128.440, 170.927 123.848 C 175.611 113.890, 178.297 104.088, 177.389 100.266 C 176.039 94.587, 171.700 92.393, 167.750 95.392 M 181.258 151.772 C 178.256 154.085, 171.707 179.443, 169.478 197.383 C 168.097 208.499, 168.051 211.107, 169.174 214.477 C 170.822 219.421, 174.550 221.180, 178.245 218.759 C 180.342 217.385, 180.935 215.499, 182.935 203.843 C 185.755 187.407, 189.661 170.146, 192.064 163.500 C 194.703 156.199, 194.818 153.757, 192.615 151.750 C 190.155 149.509, 184.179 149.521, 181.258 151.772" stroke="none" fill="black" fill-rule="evenodd"/>
</svg>