<svg xmlns="http://www.w3.org/2000/svg" width="300" height="300" viewBox="0 0 300 300" version="1.1">
	<path d="M 247.763 30.565 C 244.808 32.168, 243.433 35.637, 244.464 38.885 C 244.818 40.002, 247.671 42.361, 250.804 44.129 C 253.937 45.896, 258.176 48.829, 260.225 50.646 C 262.273 52.463, 265.044 54.224, 266.382 54.560 C 271.268 55.786, 275.138 51.162, 273.512 46.038 C 272.527 42.934, 262.298 33.323, 257.515 31.007 C 252.629 28.642, 251.410 28.587, 247.763 30.565 M 99.011 35.690 L 95.522 40.319 95.768 53.159 L 96.015 66 87.207 66 C 82.321 66, 77.927 65.527, 77.337 64.937 C 75.616 63.216, 70.158 63.547, 67.997 65.503 C 64.243 68.900, 65.816 74.760, 71.280 77.730 C 73.801 79.101, 76.940 79.483, 85.750 79.490 L 97 79.500 97 88.052 L 97 96.604 86.250 100.352 C 80.338 102.413, 74.713 104.355, 73.750 104.667 C 72.667 105.017, 71.987 104.712, 71.967 103.867 C 71.908 101.455, 68.256 98, 65.764 98 C 64.436 98, 62.310 99.105, 61.041 100.456 L 58.734 102.912 59.942 117.706 C 62.608 150.346, 64.153 163.544, 65.562 165.715 C 66.353 166.933, 67 168.830, 67 169.930 C 67 171.030, 67.832 172.375, 68.850 172.920 C 71.278 174.219, 87.379 172.575, 92.280 170.528 C 99.844 167.367, 100 167.565, 100 180.351 L 100 191.701 92.250 193.429 C 87.987 194.379, 80 196.515, 74.500 198.176 C 69 199.837, 62.817 201.603, 60.760 202.101 C 55.108 203.468, 44.723 208.766, 42.772 211.276 C 41.822 212.499, 41.034 214.434, 41.022 215.576 C 40.995 218.110, 44.931 222, 47.522 222 C 48.563 222, 54.202 220.191, 60.052 217.980 C 65.903 215.769, 76.722 212.433, 84.095 210.565 C 91.468 208.698, 98.311 206.850, 99.302 206.458 C 101.022 205.778, 101.096 207.624, 100.933 247.049 C 100.772 285.870, 100.870 288.432, 102.572 289.676 C 105.191 291.591, 107.363 291.310, 109.741 288.750 C 113.061 285.175, 114.302 268.298, 113.843 232.977 C 113.582 212.946, 113.792 202.998, 114.476 202.994 C 116.925 202.980, 134.597 196.794, 137.745 194.849 C 141.361 192.614, 144.990 187.637, 144.996 184.905 C 145.001 182.750, 141.811 180, 139.306 180 C 138.186 180, 136.167 180.867, 134.820 181.927 C 131.625 184.440, 120.990 188, 116.676 188 L 113.289 188 112.652 181.250 C 112.301 177.537, 112.011 172.363, 112.007 169.750 L 112 165 119.500 165 C 125.667 165, 127.356 164.644, 129 163 C 131.583 160.417, 131.524 158.830, 128.750 156.282 C 126.343 154.072, 123.048 153.159, 116.250 152.821 L 112 152.609 112 143.780 C 112 135.113, 112.049 134.932, 114.694 133.926 C 116.175 133.363, 118.615 133.037, 120.115 133.201 L 122.842 133.500 120.461 139 C 119.152 142.025, 118.062 145.287, 118.040 146.250 C 117.992 148.360, 121.426 152, 123.465 152 C 125.556 152, 131.788 146.285, 132.529 143.688 C 132.872 142.485, 134.727 137.531, 136.650 132.680 C 139.620 125.188, 140.230 122.253, 140.701 113.180 C 141.374 100.231, 140.169 96.464, 134.065 92.424 C 130.234 89.889, 129.479 89.754, 122.236 90.314 C 117.981 90.643, 113.468 91.215, 112.206 91.584 C 109.934 92.250, 109.914 92.178, 110.206 84.388 L 110.500 76.519 115.065 75.869 C 117.575 75.511, 121.625 74.325, 124.065 73.233 C 126.504 72.140, 130.241 70.631, 132.369 69.879 C 136.284 68.496, 140 64.848, 140 62.388 C 140 59.901, 135.245 57.697, 131.229 58.324 C 127.888 58.844, 116.968 61.122, 111.378 62.464 C 109.334 62.955, 109.229 62.536, 108.545 51.075 C 108.063 43.002, 108.190 38.513, 108.940 37.111 C 110.463 34.266, 108.345 30.990, 105.009 31.031 C 103.213 31.053, 101.509 32.377, 99.011 35.690 M 185.080 38.403 C 182.675 41.302, 182.005 47.040, 181.462 69.414 C 181.119 83.499, 180.487 92.914, 179.829 93.706 C 179.238 94.418, 177.556 95, 176.089 95 C 174.623 95, 171.416 96.012, 168.962 97.250 C 165.515 98.988, 164.428 100.131, 164.181 102.272 C 163.911 104.626, 164.398 105.268, 167.399 106.522 C 169.344 107.335, 172.975 108, 175.468 108 C 179.109 108, 180.005 108.344, 180.024 109.750 C 180.075 113.573, 169.751 197.214, 166.817 216.735 C 165.538 225.249, 166.462 227.286, 171.383 226.801 C 177.417 226.206, 181.322 216.796, 183.024 198.749 C 183.589 192.753, 185.142 180.793, 186.476 172.173 C 187.809 163.553, 189.133 153.800, 189.418 150.500 C 191.087 131.209, 193.214 109.191, 193.595 107.250 C 193.897 105.715, 194.748 105.004, 196.269 105.014 C 198.124 105.025, 217.935 101.092, 237 96.928 C 243.275 95.558, 253.779 90.282, 255.083 87.845 C 255.681 86.728, 255.901 84.744, 255.573 83.436 C 254.634 79.692, 252.032 78.884, 246.409 80.587 C 241.616 82.040, 218.981 86.697, 206 88.902 C 202.425 89.509, 198.550 90.266, 197.389 90.583 C 195.297 91.155, 195.278 90.998, 195.358 73.830 C 195.425 59.245, 195.099 55.161, 193.298 48.045 C 190.829 38.283, 187.967 34.926, 185.080 38.403 M 120.500 104.654 C 118.850 104.860, 116.037 105.267, 114.250 105.559 L 111 106.091 111 113.625 L 111 121.159 117.750 120.468 C 121.463 120.087, 124.819 119.485, 125.209 119.129 C 125.599 118.773, 126.049 115.352, 126.209 111.526 C 126.525 103.975, 126.471 103.910, 120.500 104.654 M 89.556 113.633 C 85.187 114.935, 80.629 116, 79.428 116 C 75.712 116, 74.946 118.060, 75.634 126.202 L 76.268 133.700 85.088 129.350 C 89.939 126.958, 94.617 125, 95.485 125 C 97.653 125, 98.159 123.202, 97.804 116.771 L 97.500 111.267 89.556 113.633 M 233.999 121.003 C 233.409 122.104, 231.643 128.067, 230.073 134.253 C 225.428 152.561, 221.235 165.187, 215.102 179.331 L 213.441 183.161 210.056 177.937 C 208.194 175.063, 206.100 170.259, 205.403 167.260 C 204.018 161.301, 200.895 156.705, 196.608 154.316 C 191.225 151.316, 188.468 156.674, 192.320 162.647 C 194.019 165.282, 195.018 168.622, 195.478 173.214 C 196.130 179.713, 201.048 191.966, 204.677 196.134 C 205.927 197.569, 205.713 198.486, 202.935 203.634 C 201.193 206.860, 199.472 209.725, 199.110 210 C 198.747 210.275, 197.337 212.666, 195.976 215.312 C 192.858 221.373, 186.073 228.362, 181.785 229.929 C 174.619 232.548, 173.511 233.449, 173.176 236.926 C 172.981 238.943, 173.382 240.627, 174.176 241.130 C 176.169 242.393, 180.931 242.151, 186.336 240.511 C 194.352 238.079, 200.317 232.863, 207.608 221.911 C 211.237 216.460, 214.365 212, 214.558 212 C 214.752 212, 218.024 216.387, 221.830 221.750 C 229.514 232.575, 243.525 248.779, 253.788 258.709 C 268.716 273.153, 273.012 275.342, 276.852 270.461 C 278.034 268.959, 279 267.406, 279 267.010 C 279 266.614, 275.573 262.737, 271.385 258.395 C 254.759 241.158, 224.712 203.684, 223.434 198.591 C 223.089 197.217, 224.739 192.325, 227.945 185.220 C 230.725 179.058, 233 173.720, 233 173.358 C 233 172.996, 234.540 168.380, 236.423 163.100 C 241.079 150.044, 245 135.213, 245 130.660 C 245 126.886, 242.684 121.137, 240.610 119.765 C 238.496 118.367, 235.066 119.009, 233.999 121.003 M 88.500 143.057 C 84.100 144.616, 79.487 145.915, 78.250 145.945 C 76.122 145.997, 76 146.405, 76 153.500 C 76 162.084, 75.995 162.080, 84.212 159.050 C 87.121 157.978, 91.638 156.575, 94.250 155.932 L 99 154.763 99 147.381 C 99 142.083, 98.647 140.032, 97.750 140.112 C 97.063 140.173, 92.900 141.499, 88.500 143.057" stroke="none" fill="black" fill-rule="evenodd"/>
</svg>