<svg xmlns="http://www.w3.org/2000/svg" width="300" height="300" viewBox="0 0 300 300" version="1.1">
	<path d="M 95.222 27.264 C 94.052 28.509, 92.422 31.140, 91.598 33.111 C 89.897 37.182, 88.005 50.738, 87.989 58.974 C 87.983 62.013, 87.707 66.138, 87.376 68.140 C 86.675 72.377, 86.013 72.573, 67.714 73.959 C 58.321 74.671, 56.675 75.069, 54.964 77.041 C 52.342 80.065, 52.453 80.686, 56.250 84.237 L 59.500 87.276 70.500 86.650 C 76.550 86.306, 82.513 85.741, 83.750 85.396 C 85.989 84.770, 86 84.822, 86 96.248 L 86 107.730 78.786 109.483 C 69.607 111.714, 65.509 113.681, 63.943 116.606 C 62.938 118.484, 62.955 119.240, 64.028 120.533 C 65.159 121.896, 66.823 122.031, 75.178 121.439 L 85 120.742 85 123.734 C 85 126.689, 84.907 126.741, 77.304 127.967 C 70.898 129.001, 69.137 129.712, 66.804 132.210 C 63.530 135.714, 63.245 138.846, 65.899 142.124 C 67.736 144.392, 67.958 144.423, 72.649 143.076 C 75.317 142.311, 79.188 141.483, 81.250 141.237 L 85 140.790 85 153.355 L 85 165.920 81.250 166.901 C 79.188 167.440, 75.250 168.402, 72.500 169.037 C 63.365 171.146, 62 171.944, 62 175.172 C 62 179.473, 67.149 181.421, 76.633 180.708 L 83.766 180.172 84.372 183.836 C 84.705 185.851, 84.983 189.412, 84.989 191.750 C 84.999 195.695, 84.808 196, 82.321 196 C 79.467 196, 72.049 198.065, 54.829 203.653 C 45.834 206.572, 43.845 206.920, 42.161 205.868 C 37.557 202.993, 34.808 211.808, 39 216 C 41.657 218.657, 50.853 218.702, 58.161 216.096 C 63.659 214.134, 75.909 210.720, 81.885 209.483 L 85.269 208.782 84.617 233.141 C 83.817 262.980, 85.426 286.604, 88.488 289.987 C 89.804 291.441, 91.346 292.004, 93.449 291.799 L 96.500 291.500 97 248.513 C 97.489 206.497, 97.545 205.519, 99.500 205.201 C 106.567 204.052, 120.058 199.272, 123.938 196.543 C 128.907 193.047, 132.360 188.101, 131.463 185.763 C 130.046 182.073, 124.028 181.851, 121.098 185.382 C 119.427 187.396, 105.061 192, 100.448 192 L 97 192 97 183.744 L 97 175.488 100.250 174.173 C 115.216 168.114, 117 166.914, 117 162.904 C 117 161.372, 117.422 159.858, 117.937 159.539 C 118.452 159.221, 119.494 157.732, 120.253 156.230 C 121.011 154.729, 122.127 152.600, 122.732 151.500 C 127.986 141.942, 129.880 119.779, 125.982 113.472 C 124.873 111.676, 122.960 109.564, 121.732 108.778 C 117.753 106.231, 110.177 104.706, 104.195 105.249 L 98.439 105.771 98.782 95.635 C 98.970 90.061, 99.280 85.009, 99.470 84.408 C 99.660 83.808, 103.864 82.736, 108.811 82.027 C 119.357 80.516, 120.250 80.090, 120.250 76.581 C 120.250 71.435, 117.631 70, 108.238 70 L 99.785 70 100.471 52.250 C 100.849 42.487, 101.517 33.107, 101.956 31.405 C 103.489 25.453, 99.328 22.893, 95.222 27.264 M 201.506 27.372 C 198.648 29.461, 198.006 39.345, 199.028 65.500 C 199.948 89.013, 200.475 92.743, 203.543 97.425 C 204.993 99.639, 205.922 100.051, 208.899 99.801 L 212.500 99.500 212.143 71.500 C 211.773 42.420, 210.553 31.373, 207.316 27.797 C 205.367 25.643, 204.007 25.543, 201.506 27.372 M 245.351 49.750 C 241.509 53.189, 233.636 64.166, 227.958 74 C 225.577 78.125, 221.462 83.793, 218.814 86.597 C 216.166 89.400, 214 92.637, 214 93.790 C 214 96.480, 217.494 98.938, 220.315 98.232 C 223.311 97.482, 235.640 84.809, 240.447 77.538 C 242.615 74.259, 245.899 69.904, 247.745 67.861 C 252.601 62.486, 257.296 52.421, 256.040 50.076 C 253.949 46.167, 249.506 46.032, 245.351 49.750 M 164.223 68.557 C 161.503 70.461, 161.157 76.261, 163.646 78.211 C 164.551 78.920, 168.714 82.936, 172.896 87.135 C 181.635 95.910, 185.804 98.422, 190.073 97.484 C 192.517 96.947, 193 96.345, 193 93.835 C 193 90.779, 188.735 85.255, 176.402 72.339 C 170.941 66.619, 168.203 65.769, 164.223 68.557 M 228.500 101.670 C 225.750 102.521, 221.250 104.040, 218.500 105.045 C 215.750 106.050, 211.988 107.173, 210.140 107.540 C 203.707 108.818, 195.843 113.062, 191.076 117.828 C 185.664 123.241, 183.056 129.157, 185.032 131.539 C 187.075 134, 189.620 133.197, 194.664 128.500 C 197.321 126.025, 199.947 123.985, 200.498 123.966 C 201.049 123.947, 203.300 123.063, 205.500 122 C 207.700 120.937, 210.175 120.058, 211 120.046 C 211.825 120.033, 217.341 118.372, 223.259 116.354 C 229.176 114.335, 234.347 113.013, 234.749 113.416 C 237.072 115.739, 237.209 258.152, 234.894 264.100 C 234.093 266.157, 233.366 266.601, 231.414 266.228 C 229.693 265.899, 228.349 266.445, 226.973 268.031 C 224.303 271.110, 224.483 272.637, 227.923 276.077 C 230.320 278.474, 231.687 279, 235.522 279 C 241.838 279, 244.951 275.647, 247.756 265.824 C 249.610 259.329, 249.908 254.934, 250.390 227 C 250.688 209.675, 250.566 177.500, 250.119 155.500 C 249.383 119.323, 249.115 114.974, 247.317 110 C 245.924 106.149, 244.335 103.825, 242.016 102.250 C 238.180 99.644, 235.431 99.526, 228.500 101.670 M 52.020 114.960 C 50.301 118.330, 50.003 120.825, 50.020 131.710 C 50.041 144.957, 51.758 158.839, 53.861 162.750 C 55.591 165.969, 60.422 165.811, 62.616 162.464 C 63.991 160.365, 64.164 158.426, 63.618 151.214 C 63.255 146.421, 62.679 136.534, 62.337 129.243 C 61.775 117.245, 61.496 115.749, 59.406 113.493 C 56.179 110.011, 54.361 110.372, 52.020 114.960 M 164.200 116.200 C 162.363 118.037, 162.771 125.228, 164.998 130.263 C 166.097 132.748, 167.745 139.892, 168.660 146.140 C 170.104 156.003, 170.165 159.410, 169.124 172 C 166.943 198.389, 158.267 234, 154.019 234 C 148.919 234, 147.166 243.257, 151.455 247.545 C 156.284 252.375, 160.737 249.852, 165.877 239.371 C 167.730 235.592, 169.634 231.730, 170.108 230.789 C 170.984 229.046, 174.077 218.329, 176.180 209.750 L 177.343 205 183.651 205 C 190.899 205, 197.353 202.011, 207.899 193.770 C 215.074 188.162, 216.345 185.061, 212.948 181.445 C 209.822 178.117, 208.245 178.342, 201.663 183.055 C 195.960 187.139, 187.849 191.132, 182.739 192.373 L 179.977 193.044 180.575 187.772 C 180.903 184.872, 181.471 176.045, 181.836 168.155 L 182.500 153.811 185.187 155.929 C 191.152 160.629, 211.135 169, 216.393 169 C 220.161 169, 223.421 165.814, 222.679 162.858 C 222.171 160.833, 218.877 158.783, 204.735 151.689 C 195.208 146.910, 186.182 143, 184.676 143 C 183.169 143, 181.784 142.438, 181.597 141.750 C 179.134 132.710, 177.528 128.680, 175.237 125.796 C 173.732 123.901, 171.610 120.696, 170.523 118.675 C 168.500 114.916, 166.332 114.068, 164.200 116.200 M 98.667 118.667 C 98.300 119.033, 98 121.006, 98 123.050 L 98 126.767 104.250 127.285 C 107.688 127.569, 111.513 128.124, 112.750 128.518 C 114.860 129.189, 115 128.948, 115 124.652 C 115 121.146, 114.546 119.827, 113.066 119.035 C 110.934 117.894, 99.726 117.607, 98.667 118.667 M 97 151.567 C 97 163.295, 96.458 162.618, 103.681 159.918 C 106.003 159.049, 112.908 145.566, 112.985 141.750 C 112.993 141.338, 109.400 141, 105 141 L 97 141 97 151.567" stroke="none" fill="black" fill-rule="evenodd"/>
</svg>