<svg xmlns="http://www.w3.org/2000/svg" width="300" height="300" viewBox="0 0 300 300" version="1.1">
	<path d="M 83.400 25.765 C 79.569 28.323, 77.067 38.566, 76.337 54.684 L 75.694 68.868 64.097 68.684 C 53.361 68.514, 52.255 68.675, 49.198 70.855 C 46.247 72.960, 45.928 73.652, 46.198 77.355 L 46.500 81.500 61.250 81.777 L 76 82.053 76 94.455 L 76 106.856 70.250 107.459 C 64.198 108.093, 55.972 109.519, 52.346 110.563 C 50.728 111.029, 50.028 110.663, 49.529 109.091 C 48.705 106.497, 44.917 106.305, 42.781 108.750 C 39.275 112.765, 38.794 117.268, 39.954 135.254 C 41.842 164.530, 42.939 171.008, 46.684 175 C 47.459 175.825, 48.679 177.357, 49.396 178.405 C 51.093 180.884, 59.954 181.690, 66.979 180.005 C 69.800 179.328, 72.343 179.010, 72.631 179.297 C 72.918 179.585, 72.836 183.460, 72.447 187.910 L 71.742 196 62.495 196 C 54.819 196, 52.294 196.422, 47.624 198.487 C 44.531 199.855, 42 201.594, 42 202.351 C 42 204.796, 47.014 208.828, 50.808 209.432 C 52.839 209.756, 58.502 209.655, 63.392 209.207 L 72.285 208.393 71.579 223.446 C 71.192 231.726, 70.277 249.300, 69.548 262.500 C 68.054 289.548, 68.299 291.285, 73.691 291.808 C 75.999 292.033, 77.146 291.596, 77.887 290.211 C 79.395 287.393, 81.800 265.632, 82.496 248.500 C 83.380 226.754, 84.629 208.038, 85.235 207.431 C 85.525 207.141, 90.428 206.531, 96.131 206.074 C 114.113 204.635, 124 200.566, 124 194.604 C 124 191.595, 120.405 188.733, 118.095 189.904 C 116.085 190.924, 106.341 192.712, 98.500 193.499 C 95.200 193.831, 90.874 194.333, 88.886 194.616 L 85.272 195.130 85.774 185.315 C 86.057 179.766, 86.759 175.184, 87.388 174.773 C 87.999 174.373, 91.875 173.333, 96 172.461 C 106.872 170.164, 108 169.564, 108 166.080 C 108 164.451, 107.548 162.839, 106.995 162.497 C 106.419 162.141, 107.337 160.273, 109.152 158.111 C 115.726 150.280, 118.772 132.430, 115.331 121.890 C 113.299 115.664, 108.968 110.096, 104.703 108.226 C 103.165 107.552, 98.777 107, 94.953 107 L 88 107 88 101.651 C 88 98.709, 88.291 92.859, 88.647 88.651 C 89.223 81.831, 89.515 81, 91.331 81 C 94.752 81, 105.392 77.786, 107.250 76.192 C 109.381 74.363, 109.522 70.665, 107.537 68.680 C 106.389 67.532, 104.229 67.332, 97.507 67.751 L 88.941 68.286 89.174 60.393 C 89.474 50.206, 88.419 29.011, 87.499 26.750 C 86.747 24.905, 85.233 24.541, 83.400 25.765 M 219.500 50.698 C 211.778 51.397, 188.409 55.089, 179.500 57.018 C 174.550 58.089, 168.700 58.975, 166.500 58.987 C 161.458 59.013, 156.260 62.115, 155.379 65.625 C 154.489 69.173, 156.613 70.683, 163.749 71.574 C 169.171 72.252, 171.600 71.896, 193 67.288 C 197.125 66.399, 204.100 65.341, 208.500 64.935 C 212.900 64.529, 222.249 63.618, 229.275 62.910 C 240.358 61.792, 242.245 61.816, 243.518 63.090 C 245.585 65.156, 246.746 72.877, 247.942 92.500 C 248.512 101.850, 249.736 117.375, 250.663 127 C 251.800 138.813, 252.373 154.574, 252.424 175.500 C 252.511 210.828, 251.435 223.290, 245.824 252 C 242.396 269.535, 239.959 274.110, 236.768 269 C 235.331 266.699, 233.256 266.489, 230.750 268.392 C 228.249 270.290, 228.586 273.354, 231.700 277.056 C 235.306 281.341, 239.309 282.942, 243.882 281.928 C 249.422 280.699, 253.222 275.577, 256.239 265.274 C 266.780 229.272, 268.495 168.635, 260.972 97.987 C 259.887 87.805, 259 77.106, 259 74.212 C 259 67.974, 255.943 58.652, 252.767 55.203 C 248.924 51.031, 244.979 49.985, 233.782 50.168 C 228.127 50.261, 221.700 50.499, 219.500 50.698 M 136.223 66.262 C 133.494 69.168, 133.393 71.461, 135.917 73.230 C 143.828 78.770, 145.901 118.302, 140.048 152 C 138.854 158.875, 137.005 169.517, 135.939 175.649 C 134.872 181.782, 134 188.012, 134 189.494 C 134 193.494, 129.262 217.514, 126.982 225.071 C 125.892 228.685, 124.990 232.510, 124.978 233.571 C 124.966 234.632, 124.076 236.625, 123 238 C 120.543 241.140, 120.495 243.233, 122.829 245.345 C 126.073 248.281, 130.303 247.248, 132.510 242.981 C 136.257 235.734, 144 207.834, 144 201.576 C 144 198.940, 146.282 184.452, 151.021 157 C 152.113 150.675, 153.012 143.250, 153.018 140.500 C 153.025 137.750, 153.408 134.904, 153.870 134.176 C 155.128 132.192, 170.476 127.969, 178.906 127.287 L 186.312 126.688 185.656 129.969 C 185.295 131.773, 185 133.837, 185 134.554 C 185 135.340, 182.716 136.320, 179.250 137.021 C 169.954 138.900, 161 144.591, 161 148.620 C 161 152.055, 164.305 153.437, 169.366 152.118 C 177.847 149.907, 185.371 148.971, 186.397 149.997 C 187.683 151.283, 191.309 151.291, 192.589 150.011 C 193.133 149.467, 199.989 148.345, 207.824 147.519 C 215.715 146.686, 223.386 145.335, 225.021 144.489 C 228.763 142.554, 229.885 138.636, 227.464 135.960 C 225.865 134.193, 224.325 134, 211.845 134 L 198 134 198.015 130.750 C 198.036 126.263, 198.890 125.290, 203.502 124.493 C 217.820 122.020, 226.847 118.428, 230.051 113.928 C 231.985 111.213, 232.093 110.542, 230.942 108.392 C 229.420 105.548, 225.589 104.266, 223.584 105.930 C 222.819 106.565, 220.688 107.530, 218.847 108.076 C 215.364 109.108, 201.176 112, 199.593 112 C 199.061 112, 198.942 104.288, 199.307 93.325 C 199.834 77.489, 199.688 74.145, 198.350 71.325 C 196.330 67.068, 194.241 67.125, 189.946 71.554 L 186.500 75.109 186.160 93.850 L 185.819 112.591 173.660 114.384 C 166.972 115.370, 160.037 116.804, 158.250 117.572 L 155 118.968 155 113.292 C 155 96.163, 151.060 74.162, 147.283 70.201 C 146.602 69.486, 145.452 68.056, 144.728 67.021 C 142.527 63.880, 138.776 63.545, 136.223 66.262 M 87.206 126.250 L 87.500 133.500 95.245 133.500 L 102.989 133.500 102.995 129.700 C 103.006 121.828, 99.659 119, 90.331 119 L 86.912 119 87.206 126.250 M 69 121.051 C 66.525 121.491, 61.635 121.885, 58.134 121.926 L 51.767 122 52.178 128.462 C 52.405 132.016, 52.824 135.158, 53.111 135.445 C 53.398 135.731, 55.175 135.523, 57.060 134.983 C 58.945 134.442, 63.752 134, 67.743 134 L 75 134 75 127 C 75 123.150, 74.662 120.056, 74.250 120.125 C 73.838 120.194, 71.475 120.611, 69 121.051 M 88.750 144.689 C 87.255 145.080, 87 146.395, 87 153.698 L 87 162.250 90.125 161.625 C 91.844 161.281, 93.806 161, 94.486 161 C 95.231 161, 95.551 160.101, 95.290 158.738 C 95.010 157.270, 95.785 155.428, 97.500 153.488 C 100.042 150.612, 102 146.892, 102 144.935 C 102 144.003, 92.078 143.820, 88.750 144.689 M 61.289 146.743 L 53.078 147.080 53.677 158.790 C 54.007 165.230, 54.357 170.605, 54.455 170.733 C 54.552 170.861, 55.952 170.533, 57.566 170.005 C 59.180 169.476, 63.538 168.097, 67.250 166.940 L 74 164.837 74 155.418 C 74 146.258, 73.938 146.006, 71.750 146.204 C 70.513 146.315, 65.805 146.558, 61.289 146.743 M 162.716 175.904 C 160.476 179.695, 160.545 185.489, 162.935 194.336 C 163.999 198.276, 165.869 206.450, 167.089 212.500 C 169.797 225.919, 171.274 228, 178.085 228 C 180.691 228, 185.225 227.151, 188.161 226.112 C 198.774 222.360, 205.629 220.709, 212.500 220.251 C 219.870 219.759, 222.006 218.479, 221.993 214.559 C 221.986 212.322, 216.504 208, 213.674 208 C 212.217 208, 212.336 207.459, 214.498 204.250 C 221.202 194.302, 222.980 186.841, 220.025 181.049 C 216.802 174.732, 212.365 173, 199.405 173 C 188.385 173, 177.204 174.405, 173.223 176.289 C 171.313 177.193, 170.699 177.015, 169.416 175.184 C 167.309 172.176, 164.756 172.450, 162.716 175.904 M 193 187.003 C 190.525 187.470, 185.763 187.885, 182.417 187.926 C 179.071 187.967, 176.092 188.242, 175.796 188.537 C 175.501 188.832, 175.900 190.934, 176.683 193.206 C 177.466 195.479, 178.346 200.300, 178.638 203.919 C 179.409 213.488, 179.010 213.118, 186.190 210.934 C 189.661 209.879, 193.400 209.008, 194.500 209 C 195.783 208.990, 197.333 207.526, 198.823 204.917 C 201.590 200.073, 206.270 187.937, 205.622 187.289 C 204.683 186.350, 197.344 186.184, 193 187.003" stroke="none" fill="black" fill-rule="evenodd"/>
</svg>