<svg xmlns="http://www.w3.org/2000/svg" width="300" height="300" viewBox="0 0 300 300" version="1.1">
	<path d="M 188.736 29.250 C 186.590 30.880, 185 35.263, 185 39.551 C 185 43.833, 183.447 50.413, 180.238 59.728 C 177.952 66.365, 177.492 66.996, 174.624 67.434 C 168.735 68.335, 162.490 69.045, 152.500 69.950 C 137.219 71.335, 133.725 74.174, 139.556 80.466 L 142.112 83.224 156.016 82.842 L 169.920 82.460 167.321 86.980 C 165.892 89.466, 164.110 92.210, 163.361 93.079 C 162.613 93.947, 162 95.124, 162 95.694 C 162 96.264, 161.023 97.973, 159.829 99.491 C 158.051 101.751, 157.461 102, 156.579 100.865 C 155.985 100.102, 153.507 97.795, 151.070 95.739 C 145.844 91.328, 142.335 90.950, 139.052 94.445 C 135.889 97.811, 136.907 101.024, 142.233 104.484 C 147.182 107.699, 151 111.020, 151 112.108 C 151 114.461, 126.087 143, 124.034 143 C 123.465 143, 123 144.586, 123 146.525 C 123 149.438, 123.471 150.228, 125.713 151.081 C 129.463 152.507, 134.043 150.287, 141.189 143.582 L 146.879 138.243 148.838 144.871 C 149.916 148.517, 151.764 155.100, 152.945 159.500 C 157.042 174.766, 157.314 175.395, 160.266 176.429 C 164.220 177.813, 166.216 175.439, 166.776 168.684 L 167.226 163.266 174.321 162.607 C 181.369 161.952, 197.672 158.832, 201.500 157.406 C 203.418 156.691, 203.429 156.742, 201.762 158.646 C 200.806 159.738, 199.749 162.007, 199.412 163.688 C 198.853 166.483, 198.386 166.794, 193.962 167.318 C 189.417 167.856, 183.950 169.764, 174.434 174.133 C 172.198 175.160, 169.848 176, 169.211 176 C 168.574 176, 166.055 176.971, 163.613 178.157 C 158.182 180.796, 157.197 183.842, 160.590 187.503 C 163.734 190.895, 168.856 190.763, 176.500 187.095 L 182.500 184.215 183.080 199.358 C 183.399 207.686, 184.157 217.200, 184.763 220.500 C 186.694 231.005, 188.368 246.285, 188.330 253.042 C 188.276 262.412, 186.705 266.508, 182.729 267.649 C 178.458 268.874, 176.826 273.045, 179.473 275.970 C 180.861 277.504, 182.554 278, 186.405 277.999 C 192.972 277.997, 196.378 275.201, 199.041 267.623 C 201.501 260.624, 201.742 239.957, 199.513 227.086 C 196.861 211.773, 193.973 189.620, 193.987 184.694 C 194 179.944, 194.054 179.864, 198.625 177.841 C 201.849 176.415, 203.583 174.917, 204.346 172.895 C 204.948 171.300, 206.222 169.747, 207.177 169.444 C 209.888 168.583, 218.359 157.231, 222.058 149.500 C 224.561 144.270, 225.513 140.770, 225.822 135.655 C 226.433 125.568, 223.201 120.461, 214.599 117.921 C 212.070 117.174, 210.013 116.324, 210.029 116.032 C 210.046 115.739, 212.359 113.833, 215.169 111.796 L 220.280 108.092 224.696 110.557 C 227.125 111.913, 230.324 113.853, 231.806 114.868 C 236.212 117.886, 240.228 120.309, 245 122.830 C 247.475 124.137, 250.001 125.837, 250.613 126.608 C 251.226 127.378, 253.146 128.504, 254.881 129.108 C 257.407 129.989, 258.503 129.901, 260.389 128.665 C 265.745 125.156, 263.007 118.073, 254.656 113.836 C 252.370 112.676, 249.284 110.776, 247.797 109.613 C 246.311 108.451, 241.950 105.475, 238.106 103 L 231.118 98.500 231.667 94.455 C 232.129 91.050, 231.782 89.894, 229.474 87.151 C 225.852 82.847, 222.141 83.096, 220 87.786 C 218.270 91.574, 218.643 91.595, 205.511 86.965 C 200.567 85.222, 195.512 82.785, 194.278 81.550 L 192.033 79.306 200.766 77.551 C 212.379 75.219, 231.842 70.475, 235.149 69.171 C 240.976 66.873, 243.081 58.556, 238.750 54.944 C 235.792 52.476, 234.783 52.538, 232.143 55.348 C 230.845 56.730, 227.790 58.161, 224.719 58.826 C 217.633 60.361, 200.321 63.742, 195.911 64.452 L 192.322 65.030 195.132 53.765 C 199.120 37.776, 198.917 31.194, 194.368 29.122 C 191.261 27.706, 190.754 27.718, 188.736 29.250 M 87.117 67.631 C 84.353 69.566, 82 74.759, 82 78.921 C 82 81.517, 81.511 82.043, 78.250 82.956 C 76.188 83.533, 71.391 84.301, 67.592 84.661 C 59.727 85.407, 57 87.291, 57 91.977 C 57 97.145, 60.011 98.207, 71.611 97.128 C 77.050 96.622, 81.659 96.358, 81.853 96.540 C 82.047 96.723, 81.893 99.145, 81.511 101.923 C 80.835 106.834, 80.700 107.005, 76.658 108.046 C 74.371 108.635, 71.308 109.484, 69.852 109.933 C 67.636 110.616, 66.994 110.357, 65.918 108.348 C 64.422 105.552, 60.579 104.275, 58.602 105.916 C 57.335 106.967, 56.909 109.637, 55.323 126.500 C 54.664 133.503, 56.711 160.238, 58.213 164.250 C 59.030 166.432, 59.889 167.007, 62.371 167.032 C 64.092 167.049, 66.374 167.724, 67.441 168.532 C 68.582 169.395, 71.571 170, 74.691 170 L 80 170 80 184.421 L 80 198.841 76.750 199.490 C 74.963 199.847, 69.112 201.980, 63.750 204.229 C 55.419 207.724, 54 208.655, 54 210.624 C 54 211.892, 54.870 213.395, 55.934 213.965 C 58.731 215.462, 67.715 215.216, 73.415 213.487 C 76.118 212.667, 78.432 212.110, 78.557 212.248 C 79.215 212.978, 79.275 283.044, 78.620 286.064 C 77.694 290.334, 79.421 292.315, 83.641 291.822 C 85.553 291.599, 87.021 290.437, 88.412 288.046 C 90.113 285.123, 90.534 281.967, 91.142 267.546 C 91.538 258.171, 91.896 243.975, 91.938 236 C 91.980 228.025, 92.301 218.463, 92.652 214.750 C 93.217 208.762, 93.527 207.999, 95.395 207.987 C 101.173 207.952, 122.057 199.009, 124.235 195.638 C 125.868 193.109, 124.994 189.042, 122.461 187.383 C 120.027 185.788, 119.667 185.843, 113.711 188.731 C 110.295 190.387, 104.929 192.483, 101.787 193.388 C 98.645 194.294, 95.382 195.300, 94.537 195.624 C 93.198 196.138, 93 194.337, 93 181.607 L 93 167 97.250 167.032 C 99.588 167.049, 102.374 167.724, 103.441 168.532 C 106.024 170.485, 107.617 170.383, 109.884 168.116 C 111.137 166.863, 111.600 165.357, 111.267 163.616 C 110.912 161.760, 111.191 161, 112.228 161 C 114.856 161, 116.678 157.643, 118.857 148.786 C 121.792 136.851, 121.856 120.784, 118.991 114.739 C 115.971 108.366, 111.642 106.040, 102.255 105.744 L 94.500 105.500 94.830 98.801 L 95.160 92.102 98.830 90.940 C 104.997 88.987, 110.906 85.083, 112.573 81.859 C 114.080 78.944, 114.048 78.680, 111.895 76.389 C 109.538 73.880, 108.542 73.895, 102.500 76.532 C 96.489 79.155, 95 79.291, 95 77.217 C 95 76.162, 95.497 73.872, 96.105 72.128 C 96.942 69.726, 96.913 68.600, 95.983 67.479 C 94.360 65.524, 90.018 65.598, 87.117 67.631 M 180.578 88.750 C 179.676 90.813, 177.849 94.300, 176.517 96.500 C 175.185 98.700, 173.769 101.175, 173.371 102 C 172.972 102.825, 171.505 105.300, 170.111 107.500 C 168.717 109.700, 167.678 112.005, 167.803 112.622 C 167.927 113.239, 166.498 115.264, 164.626 117.122 C 162.754 118.980, 159.202 123.014, 156.732 126.088 L 152.241 131.675 155.621 133.495 C 157.479 134.496, 159.015 135.807, 159.033 136.407 C 159.051 137.008, 159.980 135.428, 161.097 132.895 C 162.648 129.381, 164.121 127.800, 167.315 126.222 C 173.151 123.338, 181.092 120.691, 190.649 118.444 L 198.798 116.528 198.333 113.514 C 197.915 110.806, 198.388 110.150, 202.999 107.049 C 205.821 105.151, 208.342 103.255, 208.602 102.836 C 208.861 102.416, 206.188 100.724, 202.663 99.076 C 199.137 97.428, 193.333 93.586, 189.763 90.540 C 186.194 87.493, 183.036 85, 182.746 85 C 182.455 85, 181.479 86.688, 180.578 88.750 M 94 126 L 94 134 100.300 134 C 103.867 134, 107.121 134.521, 107.800 135.200 C 108.733 136.133, 109 134.901, 109 129.655 C 109 123.826, 108.666 122.575, 106.545 120.455 C 104.588 118.497, 103.069 118, 99.045 118 L 94 118 94 126 M 72.750 122.771 L 68 124.351 68 133.218 L 68 142.084 72.338 139.542 C 74.724 138.144, 77.649 137, 78.838 137 C 80.874 137, 81 136.533, 81 129 C 81 119.931, 81.088 119.998, 72.750 122.771 M 195 131.020 C 192.525 131.451, 186 133.478, 180.500 135.523 C 168.789 139.878, 165.002 140.607, 162.114 139.061 C 159.996 137.927, 159.272 138.768, 160.831 140.550 C 161.289 141.073, 162.213 143.435, 162.887 145.800 C 163.876 149.275, 164.462 149.988, 165.945 149.517 C 166.955 149.197, 172.442 148.507, 178.140 147.984 C 205.248 145.497, 202.676 145.509, 204.145 147.861 C 205.808 150.524, 207 150.606, 207 148.059 C 207 146.991, 207.438 145.847, 207.973 145.517 C 208.508 145.186, 209.435 143.022, 210.032 140.708 C 210.630 138.394, 211.333 135.760, 211.593 134.855 C 212.839 130.538, 206.358 129.040, 195 131.020 M 104 144.660 C 102.625 144.873, 99.588 145.545, 97.250 146.154 C 93.115 147.230, 93 147.372, 93.005 151.380 L 93.010 155.500 97.601 155.766 C 100.127 155.913, 103.050 156.491, 104.097 157.052 C 105.787 157.956, 106.003 157.702, 106.024 154.785 C 106.037 152.978, 106.440 149.813, 106.919 147.750 C 107.398 145.688, 107.499 144.061, 107.145 144.136 C 106.790 144.211, 105.375 144.447, 104 144.660 M 76.005 151.099 C 73.533 151.583, 70.720 151.729, 69.755 151.422 C 68.278 150.953, 68 151.509, 68 154.933 C 68 159.521, 67.690 159.397, 75.333 157.862 C 80.873 156.749, 81 156.648, 81 153.362 C 81 151.513, 80.888 150.049, 80.750 150.110 C 80.612 150.170, 78.477 150.615, 76.005 151.099 M 206.892 210.366 C 204.145 211.736, 203.314 214.469, 205.020 216.524 C 205.672 217.309, 208.533 219.053, 211.378 220.399 C 217.782 223.429, 219.617 225.409, 221.348 231.162 C 222.639 235.452, 226.776 242.001, 234.511 252 C 236.426 254.475, 238.357 257.850, 238.804 259.500 C 239.939 263.695, 244.417 265.838, 247.930 263.866 C 251.454 261.888, 252.628 258.040, 251.181 253.209 C 249.824 248.681, 234.469 225.299, 229.137 219.642 C 225.714 216.011, 221.309 213.531, 212.883 210.488 C 210.058 209.468, 208.747 209.442, 206.892 210.366 M 163.001 216.123 C 158.194 218.040, 156.008 221.265, 152.962 230.936 C 151.306 236.196, 149.543 241.400, 149.045 242.500 C 146.967 247.090, 145.593 255.132, 146.612 256.746 C 148.245 259.336, 150.503 260.342, 153.177 259.671 C 155.158 259.173, 156.430 257.263, 159.439 250.273 C 161.516 245.448, 163.604 240.600, 164.079 239.500 C 166.742 233.332, 170 223.467, 170 221.570 C 170 219.841, 166.662 214.778, 165.711 215.063 C 165.595 215.098, 164.375 215.575, 163.001 216.123" stroke="none" fill="black" fill-rule="evenodd"/>
</svg>