<svg xmlns="http://www.w3.org/2000/svg" width="300" height="300" viewBox="0 0 300 300" version="1.1">
	<path d="M 90.500 53.375 C 87.200 55.150, 81.118 58.880, 76.984 61.662 C 72.851 64.444, 67.451 67.743, 64.984 68.992 C 62.518 70.242, 56.675 74.209, 52 77.808 C 47.325 81.406, 43.424 84.385, 43.331 84.427 C 43.238 84.470, 42.868 85.676, 42.509 87.108 C 41.733 90.200, 44.340 93.406, 47.053 92.696 C 48.481 92.323, 48.928 93.101, 49.449 96.869 C 49.801 99.416, 51.061 105.969, 52.250 111.431 C 53.866 118.854, 54.107 121.464, 53.206 121.765 C 51.374 122.375, 51.764 126.749, 53.922 129.790 C 56.694 133.697, 59.653 152.411, 57.991 155.518 C 56.403 158.483, 57.188 159.608, 62.628 162.165 C 66.613 164.038, 68.154 164.191, 76.799 163.572 C 82.135 163.189, 87.553 162.620, 88.840 162.307 C 90.883 161.810, 91.053 161.977, 90.175 163.619 C 88.497 166.757, 85.063 179.186, 84.406 184.500 C 83.743 189.861, 80.261 201.660, 76.388 211.671 C 75.074 215.064, 74 218.406, 74 219.095 C 74 219.785, 72.937 223.533, 71.637 227.425 C 65.219 246.646, 61.058 263.925, 62.142 266.854 C 62.774 268.564, 63.757 269, 66.982 269 C 70.470 269, 71.307 268.551, 73.035 265.750 C 74.139 263.962, 75.298 261.375, 75.611 260 C 76.498 256.112, 84.553 229.956, 89.470 215 C 98.947 186.174, 100.917 173.657, 96.991 167.216 C 95.889 165.410, 94.316 163.675, 93.494 163.359 C 90.509 162.214, 92.153 161.200, 99.750 159.501 C 104.013 158.548, 108.921 157.418, 110.659 156.990 C 113.695 156.242, 113.843 156.352, 114.498 159.841 C 114.872 161.837, 114.856 176.527, 114.462 192.485 C 113.746 221.488, 114.110 227.215, 117.290 237 C 121.154 248.891, 129.801 251.996, 141.636 245.742 C 154.762 238.806, 156.521 237.571, 164.554 229.645 C 173.116 221.198, 175.051 217.603, 173.212 213.565 C 171.315 209.402, 168.661 209.831, 162.859 215.238 C 152.380 225.003, 135.850 235.406, 131.750 234.816 C 129.850 234.543, 129.312 233.344, 127.796 226 C 126.319 218.843, 126.070 212.679, 126.221 187 C 126.321 170.225, 126.085 155.579, 125.698 154.454 C 125.091 152.688, 125.984 151.906, 132.247 148.725 C 140.879 144.340, 142.657 142.147, 140.775 138.208 C 138.971 134.432, 136.256 134.380, 126.739 137.938 C 117.363 141.444, 106.906 144.371, 96 146.543 C 91.875 147.365, 87.150 148.473, 85.500 149.005 C 83.850 149.538, 79.743 150.348, 76.373 150.805 L 70.245 151.635 69.564 143.068 C 69.190 138.355, 68.637 133.494, 68.337 132.265 C 67.916 130.542, 68.359 129.814, 70.275 129.085 C 73.702 127.783, 86.204 119.683, 87.833 117.710 C 89.558 115.621, 89.019 113.083, 86.494 111.410 C 84.739 110.246, 83.614 110.502, 77.494 113.450 C 66.554 118.721, 67.028 118.900, 64.346 108.500 C 63.069 103.550, 61.606 97.250, 61.096 94.500 C 60.585 91.750, 59.876 88.578, 59.519 87.451 C 58.973 85.722, 59.701 85.021, 64.186 82.965 C 70.294 80.163, 87.735 70.307, 90.076 68.333 C 90.944 67.602, 93.869 65.835, 96.576 64.406 C 99.284 62.977, 102.740 61.142, 104.255 60.328 C 109.346 57.594, 109.821 53.940, 105.500 50.765 C 103.174 49.056, 96.306 50.251, 90.500 53.375 M 141 60.029 C 124.799 62.327, 113.554 68.750, 114.193 75.340 C 114.587 79.397, 116.161 79.320, 129.500 74.585 C 135 72.633, 141.386 71.028, 143.692 71.018 L 147.884 71 147.463 77.750 C 147.232 81.463, 146.820 93.466, 146.547 104.425 C 146.217 117.665, 145.469 127.147, 144.317 132.689 C 142.585 141.020, 142.586 141.030, 144.749 143.194 C 148.057 146.501, 151.467 144.454, 154.656 137.245 C 157.361 131.132, 157.744 127.548, 159.928 87.820 C 160.967 68.936, 160.540 65.268, 156.850 61.340 C 154.465 58.802, 151.429 58.551, 141 60.029 M 230 62.048 C 223.125 62.463, 211.749 63.372, 204.721 64.067 C 193.409 65.186, 191.660 65.612, 189.495 67.777 C 187.532 69.741, 187.254 70.606, 188.086 72.161 C 188.657 73.227, 190.190 74.585, 191.494 75.179 L 193.865 76.260 193.541 122.380 C 193.363 147.746, 192.686 176.825, 192.036 187 C 190.414 212.404, 189.142 289.168, 190.317 290.750 C 191.853 292.819, 196.469 292.194, 198.920 289.585 C 202.147 286.150, 202.702 279.158, 203.962 226 C 206.381 123.997, 206.270 83.129, 203.558 76.811 C 202.629 74.647, 205.505 74.151, 221.163 73.773 L 232.825 73.491 227.938 78.659 C 225.249 81.502, 222.274 85.454, 221.326 87.442 C 219.750 90.748, 219.736 91.290, 221.165 93.778 C 222.025 95.275, 223.048 97.835, 223.438 99.468 C 223.828 101.100, 225.268 104.925, 226.637 107.968 C 228.007 111.010, 230.185 115.975, 231.479 119 C 232.773 122.025, 234.532 126.117, 235.388 128.093 C 240.755 140.480, 243.974 152.578, 244.233 161.337 L 244.500 170.341 241.115 172.341 C 236.107 175.301, 230.115 173.481, 223.500 166.991 L 218.500 162.087 215.323 163.633 C 211.034 165.720, 210.565 167.543, 213.065 172.396 C 215.787 177.679, 219.384 181.449, 224.647 184.533 C 228.049 186.527, 230.214 187, 235.939 187 C 248.447 187, 255.511 181.781, 257.960 170.730 C 260.248 160.409, 254.656 139.166, 242.896 113.500 C 238.553 104.022, 235.191 95.236, 234.575 91.757 C 233.915 88.033, 233.946 87.992, 240.206 84.100 C 252.585 76.403, 256.704 71.410, 255.253 65.860 C 254.582 63.293, 249.910 60.964, 245.800 61.147 C 243.985 61.227, 236.875 61.633, 230 62.048 M 129.500 103.028 C 123.633 103.941, 106.453 110.002, 102.630 112.507 C 99.849 114.329, 98.378 117.938, 99.367 120.513 C 100.351 123.078, 104.628 124.092, 109.685 122.959 C 114.792 121.814, 130.912 116.071, 138.277 112.772 C 144.192 110.123, 145.577 106.717, 141.893 103.884 C 139.344 101.925, 137.434 101.793, 129.500 103.028" stroke="none" fill="black" fill-rule="evenodd"/>
</svg>