<svg xmlns="http://www.w3.org/2000/svg" width="300" height="300" viewBox="0 0 300 300" version="1.1">
	<path d="M 192.568 8.104 C 189.563 8.945, 185.100 13.492, 185.036 15.779 C 184.969 18.170, 179.193 28.485, 175.573 32.678 L 171.967 36.857 169.042 34.178 C 166.342 31.705, 165.279 28.942, 163.509 19.797 C 163.221 18.311, 161.976 15.981, 160.743 14.619 C 156.135 9.533, 151.323 15.186, 152.384 24.439 C 153.119 30.845, 157.453 39.649, 160.711 41.357 C 163.101 42.609, 162.755 42.740, 155.384 43.376 C 151.048 43.751, 145.025 44.448, 142 44.925 C 138.975 45.402, 134.119 46.129, 131.208 46.540 C 127.468 47.069, 125.606 47.867, 124.860 49.261 C 121.717 55.134, 134.128 56.973, 161 54.615 C 195.426 51.594, 210.216 49.618, 212.750 47.701 C 214.848 46.114, 214.196 42.174, 211.548 40.440 C 209.517 39.109, 207.326 38.942, 198.798 39.470 C 193.134 39.820, 187.481 40.318, 186.236 40.576 C 184.296 40.978, 184.660 40.191, 188.782 35.075 C 193.466 29.263, 197.179 20.815, 198.557 12.836 C 199.317 8.438, 197.240 6.797, 192.568 8.104 M 152.302 61.250 C 151.741 62.487, 150.439 66.780, 149.410 70.789 C 147.790 77.093, 147.196 78.149, 145.018 78.605 C 141.452 79.352, 132.827 83.131, 130.750 84.856 C 128.091 87.065, 128.635 88.858, 132.529 90.715 C 135.397 92.083, 136.799 92.200, 140.018 91.341 L 143.978 90.284 143.239 94.392 C 142.115 100.640, 142.393 106.564, 143.895 108.374 C 146.005 110.916, 152.201 110.470, 155.354 107.548 C 158.516 104.617, 158.580 104.007, 156.057 100.800 C 154.156 98.383, 154.153 98.203, 155.935 92.415 C 157.727 86.593, 157.831 86.481, 162.585 85.277 C 168.174 83.861, 168.490 84.115, 169.496 90.819 C 170.335 96.419, 174.074 102.465, 178.285 105.033 C 182.969 107.888, 197.445 107.906, 198.969 105.057 C 201.458 100.406, 196.077 96, 187.907 96 C 185.120 96, 183.700 95.410, 182.557 93.777 C 180.662 91.072, 180.433 83.008, 182.250 82.982 C 184.919 82.944, 200.814 81.126, 204.468 80.440 L 208.320 79.717 207.702 89.109 C 207.361 94.274, 206.631 101.650, 206.079 105.500 C 205.527 109.350, 204.310 117.900, 203.375 124.500 C 201.485 137.833, 200.899 139.580, 198.003 140.499 C 195.534 141.283, 194.337 145.496, 196.011 147.513 C 198.665 150.711, 207.010 147.967, 210.410 142.778 C 212.642 139.371, 215.617 125.186, 216.969 111.500 C 217.621 104.900, 218.569 96.489, 219.077 92.808 C 220.396 83.245, 220.248 80.738, 218.012 74.761 C 215.602 68.321, 212.251 66.434, 207.083 68.607 C 205.336 69.342, 199.262 70.243, 193.586 70.610 L 183.267 71.277 183.751 66.243 C 184.185 61.720, 184.011 61.138, 182.032 60.510 C 179.307 59.645, 176.080 62.436, 173.390 67.984 C 171.840 71.183, 170.747 72.073, 167.307 72.942 C 161.092 74.510, 161.140 74.551, 161.721 68.145 C 162.203 62.825, 162.037 62.139, 159.903 60.645 C 156.599 58.330, 153.513 58.576, 152.302 61.250 M 115.398 72.451 C 113.902 73.545, 113.782 75.037, 114.382 85.095 C 114.755 91.368, 115.484 103.925, 116.001 113 C 116.876 128.382, 118.484 138.818, 120.251 140.584 C 120.663 140.996, 121 142.128, 121 143.099 C 121 145.366, 122.158 145.684, 136 147.222 C 149.052 148.672, 182.970 148.729, 187.500 147.309 C 189.755 146.602, 190.582 145.671, 190.828 143.562 C 191.009 142.019, 190.650 140.249, 190.032 139.628 C 189.329 138.923, 181.896 138.251, 170.204 137.836 C 159.917 137.470, 146.432 136.850, 140.237 136.457 C 129.867 135.799, 128.935 135.574, 128.496 133.621 C 128.234 132.454, 127.538 122.500, 126.951 111.500 C 125.439 83.187, 124.645 76.371, 122.599 74.110 C 120.307 71.577, 117.483 70.927, 115.398 72.451 M 71.655 95.829 C 68.426 99.397, 70.319 103.793, 75.805 105.467 C 78.906 106.413, 84 113.630, 84 117.079 C 84 121.562, 88.269 124.459, 91.600 122.235 C 97.930 118.008, 92.911 102.468, 83.027 95.694 C 79.717 93.426, 73.766 93.496, 71.655 95.829 M 145.807 113.847 C 144.699 114.624, 144.016 116.087, 144.193 117.306 C 144.589 120.032, 155.340 123.941, 162.500 123.962 C 168.984 123.981, 178.145 121.523, 179.744 119.335 C 181.304 117.202, 181.305 116.795, 179.750 114.688 C 178.684 113.243, 176.231 112.957, 163.114 112.747 C 151.508 112.561, 147.256 112.831, 145.807 113.847 M 74.607 130.582 C 73.299 133.991, 74.157 136.459, 77.885 140.005 C 86.282 147.994, 86.164 149.887, 76.448 163.022 C 70.600 170.928, 70 173.551, 70 191.216 C 70 211.599, 68.450 217.213, 60.786 224.585 C 57.879 227.382, 53.025 231.429, 50 233.577 C 40.568 240.277, 38.605 243.830, 41.567 248.844 C 44.661 254.081, 52.591 257.463, 68.933 260.514 C 73.645 261.394, 80.650 262.730, 84.500 263.483 C 88.350 264.237, 94.650 265.386, 98.500 266.036 C 102.350 266.686, 108.875 267.816, 113 268.546 C 117.125 269.275, 124.550 270.390, 129.500 271.022 C 134.450 271.654, 140.750 272.612, 143.500 273.151 C 150.339 274.490, 189.703 276.938, 204.947 276.972 C 223.967 277.015, 239.011 275.246, 248.365 271.868 C 259.199 267.956, 261.370 265.734, 259.393 260.582 C 258.565 258.425, 256.286 258.587, 247.771 261.412 C 227.107 268.267, 158.607 266.303, 110 257.463 C 99.453 255.545, 91.982 254.270, 80.899 252.495 C 75.619 251.650, 68.419 250.320, 64.899 249.540 C 51.772 246.632, 49.713 245.363, 54.548 243.160 C 60.233 240.570, 71.169 231.142, 74.454 226 C 79.274 218.454, 80.322 212.755, 80.435 193.500 C 80.552 173.490, 80.443 173.905, 87.970 165 C 93.707 158.214, 95 155.271, 95 149 C 95 141.411, 91.397 135.263, 84.426 130.954 C 80.569 128.571, 75.453 128.377, 74.607 130.582 M 169.127 152.938 C 165.990 153.721, 162.708 161.862, 163.173 167.707 L 163.508 171.918 158.004 172.486 C 129.563 175.425, 119.174 177.315, 114.281 180.443 C 110.305 182.984, 108.890 187.715, 111.529 189.645 C 112.500 190.355, 113.601 190.747, 113.975 190.516 C 115.999 189.264, 142.970 184.685, 155.500 183.465 C 158.800 183.144, 162.223 182.673, 163.107 182.418 C 164.487 182.021, 164.802 183.479, 165.330 192.728 C 165.668 198.653, 166.242 207.150, 166.606 211.610 C 167.424 221.654, 165.862 229.272, 162.682 230.746 C 161.482 231.302, 157.156 232.275, 153.069 232.907 C 144.851 234.177, 143 235.191, 143 238.422 C 143 242.310, 144.845 243, 155.250 243 C 165.713 243, 168.709 242.108, 172.738 237.793 C 177.629 232.555, 179.241 218.550, 177.041 200.409 C 176.513 196.059, 175.916 189.947, 175.715 186.828 L 175.348 181.155 183.759 179.904 C 189.808 179.004, 193.620 177.788, 197.335 175.573 C 201.882 172.862, 202.537 172.056, 202.805 168.832 C 203.199 164.108, 200.956 163.266, 194.913 165.870 C 189.438 168.229, 177.822 170.530, 175.631 169.689 C 174.398 169.215, 174 167.728, 174 163.590 C 174 160.581, 174.450 157.840, 175 157.500 C 178.184 155.532, 173.452 151.857, 169.127 152.938 M 152.717 204.416 C 151.736 205.160, 147.011 206.091, 142.217 206.486 C 130.227 207.471, 128.307 209.461, 133.923 215.077 C 136.406 217.560, 137.631 218, 142.057 218 C 144.923 218, 149.088 217.455, 151.312 216.788 C 155.658 215.486, 162 209.913, 162 207.395 C 162 203.505, 156.320 201.683, 152.717 204.416" stroke="none" fill="black" fill-rule="evenodd"/>
</svg>