<svg xmlns="http://www.w3.org/2000/svg" width="300" height="300" viewBox="0 0 300 300" version="1.1">
	<path d="M 97.500 53.082 C 90.732 55.135, 78.884 57.186, 69 58.015 C 44.611 60.060, 39 61.821, 39 67.429 C 39 71.630, 41.440 73, 48.925 73 L 55.708 73 53.476 77.750 C 51.283 82.417, 51.231 83.446, 50.548 136.313 C 49.923 184.663, 50.015 190.374, 51.449 192.563 C 53.442 195.605, 56.046 195.672, 58.677 192.750 C 61.891 189.179, 62.224 187.449, 63.042 170.116 C 63.557 159.211, 64.217 153.484, 65.014 152.991 C 65.674 152.584, 68.572 151.973, 71.455 151.634 C 74.338 151.295, 78.453 150.408, 80.599 149.661 C 82.744 148.915, 85.737 148.003, 87.250 147.633 L 90 146.962 90 167.181 C 90 182.907, 89.733 187.133, 88.800 186.200 C 86.761 184.161, 83.984 184.838, 76.098 189.294 C 66.473 194.734, 52.220 201.767, 48.419 202.954 C 39.957 205.595, 31.572 208.999, 30.237 210.335 C 28.607 211.964, 26.768 221.233, 27.629 223.476 C 28.680 226.214, 31.299 225.938, 36.862 222.504 C 39.985 220.577, 43.150 219, 43.896 219 C 47.958 219, 67.263 209.957, 78.730 202.683 C 81.057 201.208, 83.278 200, 83.666 200 C 84.054 200, 85.411 199.023, 86.682 197.829 C 87.952 196.636, 89.248 195.914, 89.560 196.227 C 89.873 196.540, 90.540 204.829, 91.043 214.648 C 91.545 224.466, 92.641 236.961, 93.478 242.413 C 94.315 247.865, 95 254.637, 95 257.463 C 95 263.056, 96.191 265, 99.618 265 C 101.086 265, 102.588 263.784, 104.058 261.407 C 106.545 257.382, 106.545 257.393, 103.939 193 C 102.631 160.673, 103.413 73.187, 105.025 71.575 C 106.306 70.294, 106.281 65.291, 104.989 64.493 C 104.350 64.098, 104.533 63.077, 105.489 61.712 C 107.627 58.659, 107.414 54.292, 105.066 53.035 C 102.816 51.831, 101.599 51.839, 97.500 53.082 M 242.500 66.914 C 235.642 70.270, 230.850 71.949, 227.250 72.257 C 222.310 72.680, 222 72.571, 222 70.410 C 222 67.579, 218.731 65.138, 215.711 65.715 C 214.428 65.960, 212.536 67.753, 211.307 69.888 C 209.169 73.603, 209.150 74.130, 208.826 141.565 C 208.476 214.530, 209.100 228.542, 214.214 262.500 C 216.437 277.260, 216.688 281.816, 215.518 286.162 C 214.930 288.343, 215.264 289.127, 217.368 290.506 C 220.591 292.617, 224.523 291.520, 227.363 287.715 C 229.257 285.178, 229.295 284.449, 228.179 271.778 C 227.537 264.475, 226.315 253.775, 225.464 248 C 223.480 234.537, 222.112 187.234, 222.049 129.884 L 222 85.269 228.750 84.760 C 232.463 84.480, 238.088 83.329, 241.250 82.201 C 244.412 81.074, 247 80.296, 247 80.472 C 247 80.648, 245.752 83.877, 244.226 87.646 C 242.701 91.416, 240.339 97.800, 238.976 101.834 L 236.500 109.167 239.202 111.494 C 241.451 113.431, 241.811 114.392, 241.350 117.230 C 241.034 119.178, 241.678 124.251, 242.855 129.069 C 246.198 142.767, 249.676 159.491, 252.512 175.500 C 256.055 195.504, 254.907 198.455, 243.842 197.801 C 238.960 197.513, 238.655 197.322, 236.622 193.289 C 234.001 188.088, 229.895 186.184, 226.334 188.517 C 223.646 190.278, 223.367 193.262, 225.506 197.364 C 226.328 198.940, 227 200.791, 227 201.477 C 227 202.164, 229.290 204.868, 232.089 207.486 L 237.178 212.247 244.910 211.799 C 254.323 211.254, 260.483 208.532, 263.975 203.374 C 269.182 195.685, 267.851 180.165, 258.414 138.500 C 257.044 132.450, 255.522 125.250, 255.033 122.500 C 253.849 115.845, 252.507 112.507, 250.009 110.009 L 247.938 107.938 251.539 100.350 C 253.520 96.176, 255.557 91.803, 256.067 90.631 C 256.576 89.459, 259 85.350, 261.454 81.500 C 269.109 69.489, 267.086 61.981, 256.203 62.010 C 253.814 62.016, 248.952 63.756, 242.500 66.914 M 91 68.049 C 89.075 68.512, 82.227 69.647, 75.782 70.571 C 64.724 72.155, 64.122 72.359, 65.101 74.189 C 65.820 75.533, 65.811 77.656, 65.069 81.113 C 64.481 83.855, 64 93.695, 64 102.979 L 64 119.860 66.778 119.064 C 68.307 118.625, 71.344 117.375, 73.528 116.286 C 75.713 115.196, 80.272 113.733, 83.660 113.035 L 89.820 111.765 90.160 92.464 C 90.481 74.220, 90.625 72.995, 92.780 70.082 C 94.034 68.387, 94.934 67.047, 94.780 67.103 C 94.626 67.160, 92.925 67.586, 91 68.049 M 169.331 85.510 C 167.077 86.176, 162.592 88.203, 159.366 90.014 C 154.004 93.024, 150.413 95.415, 133.976 106.920 C 130.938 109.046, 127.843 111.925, 127.098 113.316 C 125.254 116.763, 126.427 120.832, 129.615 122.044 C 132.861 123.278, 137.717 121.051, 147.689 113.758 C 155.335 108.166, 165 101.897, 165 102.530 C 165 102.739, 162.975 107.652, 160.500 113.446 C 158.025 119.241, 156 124.571, 156 125.291 C 156 126.011, 155.615 127.028, 155.145 127.550 C 154.674 128.073, 153.230 131.570, 151.934 135.322 C 149.829 141.422, 149.442 141.952, 148.284 140.322 C 138.936 127.167, 128.940 121.560, 122.070 125.618 C 117.870 128.099, 118.107 130.729, 122.705 132.650 C 126.986 134.439, 130.691 138.242, 135.711 146 C 137.668 149.025, 140.169 152.493, 141.269 153.707 C 142.797 155.394, 143.113 156.689, 142.614 159.207 C 141.730 163.658, 131.588 183.800, 128.436 187.362 C 126.171 189.922, 125.725 190.069, 124.202 188.764 C 121.112 186.114, 119.112 185.963, 117.007 188.223 C 114.034 191.414, 114.537 193.870, 119.042 198.155 C 122.150 201.112, 123.892 202, 126.582 202 C 131.714 202, 137.501 198.614, 140.698 193.740 C 145.505 186.410, 145.976 185.606, 147.872 181.500 C 148.888 179.300, 150.624 176.015, 151.730 174.199 L 153.740 170.898 161.973 180.469 C 171.008 190.971, 185.124 203.496, 191.710 206.854 C 198.822 210.479, 206 209.098, 206 204.103 C 206 202.100, 202.860 199.083, 198.563 196.954 C 194.369 194.877, 172.571 172.917, 165.625 163.771 C 161.753 158.673, 159.943 155.440, 160.308 154.271 C 163.352 144.506, 177.007 109.425, 179.569 104.788 C 180.394 103.296, 181.327 99.246, 181.642 95.788 C 182.165 90.065, 182.004 89.310, 179.858 87.388 C 176.658 84.522, 174.177 84.079, 169.331 85.510 M 84.500 126.008 C 83.400 126.493, 78.450 128.419, 73.500 130.287 C 65.794 133.195, 64.457 134.038, 64.202 136.150 L 63.904 138.616 74.202 137.483 C 79.866 136.861, 85.737 135.750, 87.250 135.015 C 89.622 133.862, 90 133.083, 90 129.339 C 90 124.725, 88.910 124.065, 84.500 126.008" stroke="none" fill="black" fill-rule="evenodd"/>
</svg>