<svg xmlns="http://www.w3.org/2000/svg" width="300" height="300" viewBox="0 0 300 300" version="1.1">
	<path d="M 126.612 21.091 C 124.318 22.895, 118 34.373, 118 36.736 C 118 37.186, 117.313 38.535, 116.474 39.733 L 114.949 41.911 110.224 38.986 C 102.896 34.448, 96.195 30.997, 94.783 31.033 C 92.897 31.082, 89 34.595, 89 36.246 C 89 38.114, 96.911 46.104, 100.607 47.968 C 102.198 48.771, 104.732 50.258, 106.238 51.273 L 108.975 53.119 104.738 58.790 C 95.316 71.399, 89.806 77.038, 84.024 79.988 C 77.049 83.546, 77.605 90, 84.887 90 C 90.142 90, 95.490 86.801, 103.848 78.658 C 111.120 71.574, 119 61.951, 119 60.156 C 119 59.646, 123.065 61.230, 128.034 63.677 C 144.003 71.541, 159.614 75.534, 163.397 72.721 C 166.870 70.140, 164.806 66.559, 157.841 63.078 C 154.453 61.385, 151.045 60, 150.268 60 C 149.491 60, 143.757 57.502, 137.526 54.449 L 126.197 48.898 129.718 40.699 C 131.655 36.190, 133.861 31.790, 134.620 30.921 C 136.948 28.258, 136.330 23.405, 133.365 21.073 C 130.109 18.511, 129.890 18.512, 126.612 21.091 M 212.500 51 C 202.386 52.223, 188.787 56.652, 186.246 59.550 C 184.152 61.939, 183.950 65.135, 185.697 68.250 C 186.427 69.550, 191.949 69.069, 198.845 67.103 C 202.505 66.060, 209.100 64.730, 213.500 64.148 C 232.141 61.681, 230.458 61.729, 228.927 63.714 C 228.169 64.696, 225.513 67.975, 223.024 71 C 217.575 77.625, 214.008 82.636, 213.978 83.710 C 213.966 84.144, 213.076 85.625, 212 87 C 210.924 88.375, 210.034 90.936, 210.022 92.691 C 210.010 94.446, 209.550 96.160, 209 96.500 C 208.450 96.840, 208 98.422, 208 100.016 C 208 102.401, 209.217 103.886, 214.867 108.394 C 221.404 113.609, 228.465 122.394, 232.235 130 C 238.527 142.697, 240.816 155.248, 237.361 158.115 C 236.430 158.888, 232.653 159.623, 228.611 159.818 L 221.500 160.161 217.547 156.081 C 213.329 151.726, 211.607 151.225, 208.625 153.483 C 206.015 155.460, 206.285 158.906, 209.442 163.908 C 215.662 173.761, 232.947 176.282, 244.710 169.051 C 251.945 164.604, 254.454 152.650, 250.597 141 C 247.393 131.324, 240.828 118.719, 234.971 111 C 229.817 104.207, 227.893 102.296, 221.515 97.634 C 219.570 96.212, 219.600 96.084, 222.970 91.341 C 224.863 88.679, 229.356 83.243, 232.956 79.262 C 240.214 71.235, 243.929 64.960, 243.972 60.654 C 244.012 56.640, 241.122 52.238, 237.652 51.029 C 234.388 49.891, 221.786 49.876, 212.500 51 M 189.477 72.751 C 188.914 73.163, 187.615 74.816, 186.590 76.424 C 184.890 79.091, 184.774 80.938, 185.278 97.424 C 185.582 107.366, 186.525 128.550, 187.373 144.500 C 189.679 187.823, 192.291 272.876, 191.482 278.274 C 191.092 280.873, 190.345 283, 189.823 283 C 189.301 283, 189.014 284.459, 189.187 286.243 C 189.788 292.463, 198.571 293.665, 201.535 287.932 C 202.746 285.590, 202.995 278.645, 202.972 247.800 C 202.956 227.285, 202.531 202.175, 202.028 192 C 201.524 181.825, 200.624 162.925, 200.027 150 C 196.860 81.414, 195.114 68.626, 189.477 72.751 M 118.848 82.750 C 116.964 85.006, 115.511 88.442, 111.765 99.500 C 110.088 104.450, 108.068 109.252, 107.275 110.170 C 106.483 111.089, 103.509 112.358, 100.667 112.990 C 97.825 113.622, 91.675 115.006, 87 116.064 C 82.325 117.123, 74.174 118.914, 68.887 120.045 C 60.497 121.840, 59.126 122.429, 58.103 124.674 C 56.580 128.015, 58.679 131.486, 62.710 132.292 C 66.193 132.989, 75.387 131.825, 88 129.091 C 93.225 127.958, 98.103 127.024, 98.840 127.016 C 100.078 127.001, 94.650 138.058, 90.011 145 C 89.092 146.375, 86.126 150.875, 83.420 155 C 80.714 159.125, 78.275 162.725, 78 163 C 77.725 163.275, 77.050 164.233, 76.500 165.129 C 75.366 166.976, 68.259 177.335, 61.493 187 C 56.768 193.750, 56.057 197.395, 59.095 199.296 C 62.379 201.351, 65.510 199.075, 74.231 188.294 C 79.033 182.357, 85.163 174.440, 87.851 170.700 C 93.472 162.882, 93.151 162.580, 95.106 177.524 C 95.938 183.887, 95.995 187.577, 95.290 189.599 C 94.650 191.435, 94.615 193.431, 95.197 195.004 C 97.044 199.997, 90.601 236.900, 86.461 245.035 C 85.752 246.429, 84.856 249.253, 84.469 251.312 C 84.083 253.370, 82.973 255.480, 82.001 255.999 C 79.353 257.417, 78.769 259.999, 80.500 262.641 C 82.437 265.596, 88.846 265.960, 91.229 263.250 C 93.058 261.169, 98.473 248.759, 99.409 244.500 C 99.772 242.850, 100.553 240.273, 101.146 238.774 C 102.054 236.476, 102.526 236.211, 104.160 237.086 C 108.112 239.201, 112.894 236.225, 125.226 223.979 C 131.722 217.528, 137.298 212.674, 137.618 213.191 C 137.938 213.709, 138.437 227.715, 138.726 244.316 L 139.252 274.500 136.626 276.924 C 132.573 280.666, 133.260 285.274, 138.049 286.476 C 143.673 287.888, 148.713 283.294, 151.095 274.585 C 152.648 268.908, 152.393 238.132, 150.569 211 C 149.700 198.075, 148.521 180.209, 147.950 171.297 C 146.523 149.056, 143.756 142.115, 135.714 140.606 C 132.454 139.995, 123.155 142.200, 115.628 145.370 C 113.498 146.266, 111.127 147, 110.358 147 C 109.589 147, 107.097 148.176, 104.819 149.614 L 100.678 152.228 103.880 146.864 C 105.641 143.914, 109.187 137.153, 111.760 131.839 L 116.438 122.178 122.469 120.636 C 125.786 119.787, 130.075 118.796, 132 118.433 C 137.393 117.416, 145.633 113.210, 147.342 110.601 C 149.301 107.611, 148.508 104.552, 145.406 103.139 C 143.475 102.259, 142.120 102.417, 138.741 103.918 C 135.142 105.516, 123.950 108.179, 123.287 107.595 C 123.170 107.491, 123.727 104.953, 124.525 101.953 C 126.563 94.296, 126.384 88.142, 124.011 84.250 C 121.749 80.539, 120.901 80.293, 118.848 82.750 M 127.500 154.257 C 126.400 154.915, 121 156.609, 115.500 158.021 C 106.091 160.437, 105.513 160.735, 105.726 163.045 C 105.851 164.395, 106.257 168.804, 106.628 172.841 C 107.295 180.102, 107.331 180.176, 109.901 179.618 C 122.816 176.815, 124.806 176.655, 128.639 178.114 C 133.211 179.854, 134.998 183.515, 133.200 187.460 C 132.172 189.717, 131.450 190, 126.716 190 C 121.008 190, 109.104 193.498, 108.452 195.368 C 108.234 195.990, 107.588 201.675, 107.016 208 C 106.444 214.325, 105.700 220.850, 105.362 222.500 L 104.749 225.500 108.625 221.918 C 110.756 219.949, 114.762 216.721, 117.528 214.746 C 120.293 212.772, 124.503 208.846, 126.884 206.022 C 130.775 201.408, 131.514 200.954, 134.182 201.540 L 137.151 202.192 136.525 197.846 C 136.180 195.456, 135.560 184.938, 135.147 174.474 C 134.734 164.010, 134.055 154.898, 133.639 154.224 C 132.689 152.687, 130.102 152.701, 127.500 154.257" stroke="none" fill="black" fill-rule="evenodd"/>
</svg>