<svg xmlns="http://www.w3.org/2000/svg" width="300" height="300" viewBox="0 0 300 300" version="1.1">
	<path d="M 158.178 7.869 C 155.969 9.270, 155.046 15.951, 156.024 23.472 C 157.267 33.028, 157.218 43.236, 155.864 56.583 C 154.470 70.336, 154.962 73, 158.897 73 C 160.469 73, 162.294 72.350, 162.953 71.557 C 164.469 69.730, 166.618 60.465, 167.512 51.898 L 168.201 45.297 175.577 45.220 C 184.432 45.129, 195.975 42.490, 200.333 39.560 C 204.038 37.070, 204.873 33.622, 202.425 30.918 C 200.310 28.580, 199.235 28.537, 195.058 30.621 C 193.270 31.513, 188.589 32.607, 184.654 33.052 C 180.719 33.497, 175.487 34.318, 173.027 34.875 C 170.567 35.432, 168.447 35.781, 168.317 35.650 C 168.186 35.520, 167.770 29.933, 167.391 23.236 C 166.830 13.301, 166.355 10.685, 164.813 9.029 C 162.823 6.894, 160.388 6.468, 158.178 7.869 M 189 70.081 C 182.937 70.801, 179.392 71.705, 167.500 75.562 C 156.863 79.012, 149.342 81, 146.930 81 C 144.237 81, 142.238 85.377, 143.975 87.470 C 146.176 90.122, 162.109 89.555, 170.580 86.523 C 180.835 82.853, 193.329 79.929, 194.359 80.959 C 194.848 81.448, 195.379 103.091, 195.539 129.054 C 195.856 180.382, 195.793 179.843, 201.273 178.468 C 202.917 178.055, 204.510 176.486, 205.648 174.159 C 207.292 170.796, 207.427 166.880, 207.304 125.773 C 207.214 95.729, 206.802 79.929, 206.047 77.644 C 203.893 71.115, 198.909 68.904, 189 70.081 M 84.675 76.403 C 81.551 78.846, 82.871 83.017, 87.817 86.330 C 90.191 87.921, 92.507 90.203, 92.963 91.402 C 94.837 96.332, 100.155 97.236, 101.544 92.862 C 102.778 88.974, 101.065 84.480, 96.727 80.223 C 92.014 75.597, 87.525 74.174, 84.675 76.403 M 126.645 77.250 C 125.303 79.406, 124.026 94.159, 120.997 142.500 C 119.872 160.450, 119.691 178.032, 120.607 180.418 C 121.303 182.231, 126.042 182.558, 127.693 180.907 C 128.483 180.117, 129.350 180.117, 130.827 180.907 C 133.362 182.264, 141.379 182.325, 145.922 181.022 L 149.332 180.045 146.801 182.772 C 145.409 184.273, 143.197 186.797, 141.885 188.383 C 140.573 189.969, 138.976 191.811, 138.335 192.477 C 136.519 194.364, 129.336 206.365, 128.561 208.808 C 127.045 213.584, 130.739 217.281, 134.836 215.088 C 135.888 214.525, 139.950 209.888, 143.864 204.782 C 147.777 199.677, 152.224 194.020, 153.745 192.212 L 156.511 188.924 161.206 191.301 C 165.920 193.687, 172.019 198.251, 179.543 205.022 C 189.280 213.783, 204.363 217.649, 210.371 212.922 C 214.560 209.627, 215.268 207.553, 213.113 204.891 C 211.355 202.720, 211.035 202.668, 207.179 203.941 C 202.455 205.500, 199.613 204.681, 191.936 199.550 C 189.426 197.873, 183.487 193.899, 178.738 190.720 C 171.815 186.087, 168.998 184.798, 164.535 184.220 L 158.967 183.500 161.434 179.876 C 163.293 177.144, 165.574 175.585, 170.700 173.541 C 185.015 167.832, 193.987 162.900, 194.616 160.393 C 195.353 157.458, 194.545 155.146, 192.510 154.366 C 191.666 154.041, 185.468 155.880, 178.737 158.451 C 163.055 164.441, 148.974 168.902, 142 170.089 C 138.975 170.604, 134.969 171.306, 133.098 171.648 L 129.696 172.272 130.412 165.386 C 130.807 161.599, 131.551 150.850, 132.066 141.500 C 133.250 120.009, 135.024 86.445, 135.185 82.471 C 135.458 75.731, 129.760 72.247, 126.645 77.250 M 174 102.705 C 165.520 104.171, 143.264 112.252, 139.199 115.340 C 138.484 115.884, 138.034 117.466, 138.199 118.857 C 138.431 120.801, 139.300 121.590, 141.965 122.277 C 146.873 123.540, 149.977 122.825, 163 117.430 C 171.135 114.060, 176.494 112.482, 181.314 112.038 C 188.124 111.411, 189.952 110.329, 189.985 106.905 C 190.024 102.765, 183.526 101.058, 174 102.705 M 73.750 114.080 C 70.618 115.904, 71.578 120.587, 76.086 125.477 L 80.171 129.909 77.644 133.223 C 76.254 135.045, 74.536 138.705, 73.827 141.356 C 72.642 145.786, 72.763 146.996, 75.325 156.338 C 76.858 161.927, 78.825 170.069, 79.695 174.430 C 81.229 182.116, 81.210 182.569, 79.097 189.132 C 76.412 197.468, 70.790 203.664, 62.084 207.881 C 58.769 209.487, 55.368 211.489, 54.528 212.329 C 52.263 214.594, 52.633 219.307, 55.270 221.784 C 65.413 231.313, 110.026 240.093, 168 243.972 C 188.182 245.322, 197.086 245.238, 216.500 243.514 C 231.231 242.207, 234.318 241.699, 240.761 239.524 C 243.902 238.464, 244.785 234.337, 242.381 231.951 C 240.756 230.337, 239.956 230.229, 236.500 231.154 C 234.300 231.743, 219.900 232.455, 204.500 232.736 C 170.224 233.362, 152.390 232.138, 104.500 225.870 C 90.452 224.032, 70 218.741, 70 216.945 C 70 216.454, 71.237 215.400, 72.750 214.604 C 76.703 212.524, 84.278 204.320, 87.608 198.514 C 90.143 194.093, 90.511 192.350, 90.852 183.137 C 91.074 177.117, 90.765 171.222, 90.115 169.123 C 89.499 167.130, 87.870 161.955, 86.497 157.622 C 83.358 147.720, 83.234 142.003, 86.102 139.407 C 89.100 136.695, 91 132.611, 91 128.883 C 91 126.266, 89.819 124.486, 84.667 119.333 C 78.243 112.909, 76.883 112.255, 73.750 114.080 M 168.149 128.993 C 164.656 129.971, 160.831 131.216, 159.649 131.760 C 154.422 134.170, 151.718 135, 149.102 135 C 144.025 135, 136 138.653, 136 140.964 C 136 143.032, 139.126 145.096, 143.500 145.916 C 149.296 147.003, 156.089 145.710, 165.500 141.731 C 168.800 140.335, 174.050 138.454, 177.166 137.550 C 180.283 136.646, 183.351 135.282, 183.986 134.517 C 186.351 131.668, 181.210 126.785, 176.185 127.109 C 175.258 127.168, 171.642 128.016, 168.149 128.993" stroke="none" fill="black" fill-rule="evenodd"/>
</svg>