<svg xmlns="http://www.w3.org/2000/svg" width="300" height="300" viewBox="0 0 300 300" version="1.1">
	<path d="M 165.297 10.250 C 164.169 11.488, 162.686 14.300, 162.002 16.500 C 159.468 24.644, 153.740 32.164, 137.028 49.286 C 131.238 55.218, 126.345 61.043, 126.155 62.230 C 125.819 64.334, 128.226 67, 130.463 67 C 132.378 67, 145.309 57.068, 152.033 50.432 L 158.565 43.985 164.814 44.638 C 168.250 44.998, 171.303 45.681, 171.597 46.157 C 172.294 47.285, 165.795 58.043, 160.310 64.842 C 155.963 70.230, 155.154 72.359, 157.016 73.510 C 158.299 74.303, 157.312 76, 155.569 76 C 154.847 76, 150.036 78.387, 144.878 81.304 C 139.720 84.221, 134.713 86.906, 133.750 87.272 C 129.492 88.890, 133.868 95, 139.285 95 C 143.134 95, 153.801 91.451, 156.079 89.413 C 156.947 88.636, 158.004 88, 158.428 88 C 158.851 88, 160.841 87.272, 162.849 86.381 C 164.857 85.491, 168.013 84.096, 169.862 83.281 C 181.009 78.369, 191.188 75.877, 192.359 77.772 C 193.173 79.089, 189.142 96.010, 184.269 111.731 C 181.769 119.800, 181.647 119.973, 178.109 120.533 C 176.124 120.846, 172.813 121.482, 170.750 121.945 C 168.688 122.408, 167 122.662, 167 122.508 C 167 122.354, 167.672 120.940, 168.494 119.364 C 169.571 117.298, 169.989 113.213, 169.994 104.705 C 170 93.510, 169.875 92.784, 167.545 90.455 C 164.657 87.566, 163.756 87.459, 160.465 89.615 C 158.061 91.190, 158 91.542, 157.994 103.865 C 157.989 113.118, 157.588 117.267, 156.494 119.364 C 155.672 120.940, 155 123.100, 155 124.165 C 155 126.318, 150.020 128.839, 144.056 129.705 C 134.816 131.048, 127.774 134.603, 125.449 139.099 C 121.574 146.592, 125.126 148.021, 139.067 144.578 C 151.493 141.510, 152.116 141.468, 151.348 143.750 C 148.728 151.533, 134.427 179.905, 129.547 187 C 127.089 190.575, 123.839 195.867, 122.326 198.759 L 119.574 204.019 121.696 206.141 C 124.896 209.341, 127.958 207.955, 134.693 200.259 C 143.389 190.321, 150.072 178.585, 158.473 158.500 C 161.627 150.960, 162.961 147.122, 164.136 142.206 C 164.831 139.295, 165.873 136.557, 166.450 136.123 C 167.443 135.377, 179.347 131.856, 185.207 130.575 C 187.186 130.143, 188.866 128.359, 191.457 123.938 C 193.406 120.613, 195 117.342, 195 116.669 C 195 115.996, 195.599 114.557, 196.331 113.473 C 198.666 110.014, 206 82.771, 206 77.559 C 206 74.725, 203.748 69.629, 201.224 66.750 C 198.948 64.154, 184.854 64.304, 177.761 66.999 C 174.867 68.099, 172.372 68.999, 172.215 68.999 C 172.058 69, 173.744 66.638, 175.960 63.750 C 185.655 51.120, 187.198 44.056, 181.506 38.363 C 179.954 36.811, 173.351 35.013, 169.182 35.006 L 165.864 35 167.754 32.250 C 170.807 27.809, 174 19.393, 174 15.787 C 174 11.828, 171.600 8, 169.118 8 C 168.145 8, 166.426 9.012, 165.297 10.250 M 60.198 82.750 C 57 85.515, 56.551 88.606, 59.042 90.699 C 63.916 94.794, 70 101.361, 70 102.528 C 70 103.216, 70.824 104.796, 71.831 106.040 C 74.040 108.767, 78.302 108.173, 80.057 104.893 C 82.872 99.634, 71.155 81, 65.033 81 C 63.487 81, 61.311 81.787, 60.198 82.750 M 110.189 83.039 C 107.146 85.874, 107.448 88.482, 111.380 93.332 C 116.864 100.096, 122.214 119.083, 119.749 123.031 C 118.770 124.598, 118.974 125.343, 120.960 127.458 C 123.765 130.443, 125.962 130.662, 128.939 128.250 C 132.243 125.573, 132.977 120.227, 131.483 109.733 C 129.782 97.791, 125.273 87.835, 119.608 83.515 C 115.613 80.467, 113.086 80.340, 110.189 83.039 M 59.337 123.148 C 56.333 124.648, 55.843 127.530, 58.102 130.403 C 59.818 132.585, 71.700 138, 74.771 138 C 77.339 138, 75.745 140.329, 67.900 148.038 C 58.101 157.667, 57.675 159.694, 63.475 169.090 C 66.509 174.005, 67.029 175.606, 66.459 178.272 C 65.342 183.491, 61.818 188.547, 53.056 197.502 C 46.136 204.575, 44.734 206.564, 44.279 209.959 C 43.943 212.459, 44.137 214, 44.787 214 C 45.364 214, 46.477 214.246, 47.259 214.546 C 48.081 214.861, 50.874 213.121, 53.876 210.422 C 58.160 206.569, 58.863 206.207, 57.886 208.351 C 56.855 210.615, 57.044 211.468, 59.350 214.953 C 60.807 217.154, 64.418 221.374, 67.374 224.330 C 76.433 233.389, 89.562 236.948, 123.270 239.481 C 176.565 243.485, 233.482 243.895, 250.734 240.398 C 255.005 239.533, 260.525 238.415, 263 237.915 C 268.280 236.848, 270.944 234.157, 270.260 230.581 C 269.586 227.052, 267.580 226.735, 256.882 228.470 C 249.623 229.648, 238.674 229.990, 208.500 229.982 C 172.152 229.972, 163.341 229.603, 115.500 226.089 C 90.129 224.225, 75.277 219.055, 65.911 208.827 C 64.487 207.272, 62.483 206, 61.458 206 C 59.936 206, 60.241 205.312, 63.124 202.250 C 77.218 187.280, 80.214 177.362, 73.951 166.415 L 70.903 161.086 79.246 152.793 C 88.424 143.669, 91.498 138.544, 90.505 134.022 C 89.647 130.115, 88.571 129.408, 80.702 127.583 C 76.972 126.718, 72.686 125.372, 71.176 124.591 C 67.234 122.552, 61.846 121.896, 59.337 123.148 M 165.427 147.765 C 163.821 148.865, 162.968 151.543, 160.892 162 C 154.921 192.086, 163.033 206.289, 188.953 211.128 C 205.502 214.218, 223.603 213.111, 230.509 208.586 C 233.686 206.504, 236.991 201.262, 236.996 198.297 C 237.010 190.136, 227.121 186.507, 226.186 194.330 C 225.935 196.421, 225.119 197.150, 222.186 197.899 C 214.702 199.811, 208.153 200.102, 197.461 198.999 C 184.671 197.680, 176.888 194.618, 174.478 189.958 C 171.093 183.412, 169.754 173.995, 170.403 161.292 C 170.987 149.871, 170.902 149.018, 169.079 148.042 C 166.789 146.817, 166.810 146.818, 165.427 147.765 M 193.132 158.360 C 191.227 160.387, 191.078 161.078, 192.075 163.266 C 192.713 164.666, 194.742 166.623, 196.585 167.615 C 198.427 168.607, 200.862 170.675, 201.997 172.210 C 205.517 176.971, 212.024 174.828, 211.984 168.921 C 211.960 165.492, 207.914 158.769, 204.979 157.284 C 200.884 155.212, 195.642 155.688, 193.132 158.360" stroke="none" fill="black" fill-rule="evenodd"/>
</svg>