<svg xmlns="http://www.w3.org/2000/svg" width="300" height="300" viewBox="0 0 300 300" version="1.1">
	<path d="M 188 63.034 C 184.425 63.453, 180.350 63.577, 178.944 63.311 C 174.521 62.474, 173.676 64.794, 173.893 77.163 C 174 83.265, 174.531 91.462, 175.072 95.379 C 176.642 106.724, 177.904 165.565, 177.954 229.711 C 177.999 288.261, 178.023 288.944, 180.069 290.849 C 182.267 292.897, 185.164 292.712, 187.082 290.401 C 187.919 289.393, 188.267 269.953, 188.365 218.644 L 188.500 148.270 192.376 149.635 C 197.398 151.404, 203.274 151.350, 209.440 149.480 C 216.159 147.442, 218.910 145.461, 220.584 141.454 C 223.019 135.626, 222.389 130.992, 218.250 124.290 C 212.938 115.687, 210.315 112.925, 202.450 107.648 C 198.639 105.092, 196.270 103, 197.185 103 C 198.099 103, 199.805 101.763, 200.975 100.250 C 213.657 83.853, 216 79.715, 216 73.718 C 216 63.529, 208.436 60.643, 188 63.034 M 190.970 73.737 L 184.439 74.081 184.755 81.291 C 184.929 85.256, 185.730 95.931, 186.536 105.014 C 187.341 114.096, 188 124.707, 188 128.595 C 188 136.372, 188.373 136.858, 196 139.024 C 200.095 140.187, 209.906 138.407, 210.692 136.359 C 212.241 132.325, 204.607 122.167, 193.738 113.799 C 191.809 112.314, 189.740 109.694, 189.142 107.977 C 188.178 105.212, 188.335 104.574, 190.515 102.394 C 191.869 101.040, 192.892 99.610, 192.789 99.216 C 192.574 98.401, 194.792 93.893, 200.887 82.756 C 203.218 78.497, 204.846 74.560, 204.504 74.006 C 204.162 73.453, 202.446 73.088, 200.691 73.196 C 198.936 73.304, 194.561 73.547, 190.970 73.737 M 127.500 78.480 C 124.750 79.201, 120.025 80.526, 117 81.426 C 104.661 85.094, 92.374 87.191, 81.500 87.483 C 73.887 87.688, 71 89.170, 71 92.875 C 71 96.167, 73.873 97.843, 80.953 98.680 C 85.862 99.261, 102.108 96.986, 111 94.473 C 114.025 93.618, 117.850 92.550, 119.500 92.100 C 125.113 90.570, 135.426 85.799, 136.604 84.189 C 137.955 82.341, 137.401 80.049, 135.169 78.250 C 133.380 76.808, 133.945 76.791, 127.500 78.480 M 131 115.794 C 126.387 116.483, 101.559 123.081, 96 125.096 C 90.792 126.983, 75.095 132.101, 68.429 134.086 C 66.740 134.589, 64.672 135, 63.834 135 C 62.996 135, 61.506 135.888, 60.523 136.974 C 58.850 138.823, 58.842 139.109, 60.391 141.474 C 61.535 143.221, 63.042 144.052, 65.273 144.170 C 71.387 144.491, 77.508 143.797, 80.872 142.400 C 87.045 139.837, 87.765 140.294, 88.510 147.250 C 89.495 156.457, 85.191 181.281, 78.110 207.232 C 75.406 217.141, 75.454 218.596, 78.557 220.629 C 80.977 222.215, 81.256 222.199, 83.744 220.342 C 86.514 218.274, 88.836 212.217, 90.969 201.500 C 92.385 194.384, 94.431 184.619, 96.103 177 C 96.766 173.975, 97.409 163.663, 97.532 154.084 L 97.754 136.668 106.627 133.842 C 111.507 132.287, 115.751 131.012, 116.057 131.007 C 116.363 131.003, 116.735 143.086, 116.884 157.857 C 117.169 186.285, 118.485 196.933, 122.566 203.843 C 124.556 207.211, 129.369 210.006, 133.151 209.990 C 135.789 209.979, 144.776 206.037, 147.042 203.897 C 147.856 203.129, 150.542 200.721, 153.011 198.546 C 162.039 190.594, 165.118 184.518, 161.800 181.200 C 159.651 179.051, 157.342 179.918, 152.346 184.750 C 146.527 190.378, 134.583 198.361, 132.846 197.782 C 130.192 196.897, 128.841 186.313, 128.024 160 C 127.572 145.425, 126.885 132.292, 126.497 130.817 C 125.838 128.308, 126.076 128.060, 130.146 127.007 C 137.597 125.080, 137.977 124.911, 138.950 123.094 C 141.234 118.826, 136.962 114.903, 131 115.794" stroke="none" fill="black" fill-rule="evenodd"/>
</svg>