<svg xmlns="http://www.w3.org/2000/svg" width="300" height="300" viewBox="0 0 300 300" version="1.1">
	<path d="M 202.500 65.046 C 185.045 69.660, 183.074 70.057, 180.645 69.447 C 179.191 69.082, 177.867 69.455, 177.027 70.467 C 175.923 71.798, 175.992 73.680, 177.444 81.782 C 180.704 99.970, 182.096 276.310, 179.034 283.028 C 176.460 288.674, 182.060 293.911, 187.537 290.980 C 192.120 288.528, 192.296 284.669, 191.687 200 C 191.163 127.126, 190.519 108.064, 188.056 92.500 C 187.533 89.200, 186.874 84.422, 186.590 81.883 L 186.075 77.267 191.287 76.665 C 194.154 76.334, 202.066 75.753, 208.869 75.375 L 221.238 74.686 219.969 77.093 C 219.272 78.417, 218.426 79.725, 218.091 80 C 217.756 80.275, 216.212 82.525, 214.662 85 C 213.111 87.475, 209.755 91.374, 207.206 93.663 C 202.872 97.555, 202.654 97.985, 203.863 100.244 C 204.575 101.574, 206.359 103.382, 207.828 104.263 C 216.441 109.426, 230 124.739, 230 129.303 C 230 132.018, 225.900 133.416, 218 133.392 C 211.972 133.373, 209.762 132.920, 206.739 131.079 C 200.475 127.265, 194.488 130.588, 197.139 136.407 C 202.149 147.402, 231.484 149.184, 240.500 139.040 C 243.450 135.721, 243.238 127.007, 240.050 120.500 C 237.663 115.628, 228.280 105.348, 220.768 99.373 L 217.036 96.405 224.465 88.235 C 233.270 78.553, 234 77.328, 234 72.240 C 234 67.115, 230.998 64.327, 224.061 63.012 C 216.618 61.600, 214.943 61.758, 202.500 65.046 M 136.202 69.854 C 133.991 71.256, 132.018 80.955, 131.340 93.753 L 130.691 106.006 126.596 107.029 C 124.343 107.592, 119.575 109.093, 116 110.366 C 101.530 115.517, 99.369 116.243, 96.250 117 L 93 117.789 92.994 99.645 C 92.989 81.002, 92.267 75.786, 89.163 71.953 C 87.845 70.325, 86.792 69.931, 85.152 70.452 L 82.929 71.157 83.617 95.933 L 84.305 120.709 81.902 121.257 C 80.581 121.559, 75.225 122.967, 70 124.387 C 49.232 130.032, 45.315 132.334, 49.975 136.155 C 52.126 137.920, 53.302 138.098, 58.975 137.519 C 64.560 136.950, 71.385 135.682, 81.905 133.261 C 84.042 132.769, 84.238 132.974, 83.669 135.104 C 83.316 136.422, 83.021 145.455, 83.014 155.177 L 83 172.854 80.250 174.243 C 74.346 177.225, 73 178.496, 73 181.086 C 73 184.743, 75.915 187, 80.638 187 L 84.619 187 85.793 197.250 C 88.125 217.598, 88.201 220.301, 86.537 223.631 C 83.607 229.493, 87.071 232.278, 93.326 229.089 C 95.388 228.038, 99.264 226.876, 101.939 226.508 C 104.704 226.128, 111.324 223.573, 117.284 220.586 L 127.765 215.332 126.883 218.409 C 126.397 220.102, 126 222.903, 126 224.635 C 126 227.132, 126.501 227.909, 128.421 228.391 C 131.790 229.236, 133.648 228.305, 134.825 225.178 C 140.675 209.643, 142.095 196.268, 142.715 150.855 L 143.216 114.210 149.858 112.172 C 153.511 111.051, 157.352 109.991, 158.393 109.817 C 163.028 109.041, 163.052 101.553, 158.424 100.392 C 157.024 100.040, 153.194 100.322, 149.914 101.018 C 146.634 101.714, 143.757 102.091, 143.522 101.855 C 142.534 100.867, 140.822 82.101, 141.297 77.458 C 142.016 70.423, 140.015 67.436, 136.202 69.854 M 115.500 122.694 C 107.800 125.214, 99.588 127.950, 97.250 128.774 L 93 130.272 93 150.489 L 93 170.707 98.218 169.354 C 101.088 168.609, 104.833 168, 106.540 168 C 111.448 168, 118.457 165.176, 121.543 161.955 C 124.843 158.510, 128.292 158.151, 130.316 161.041 C 131.637 162.927, 131.778 162.946, 132.180 161.291 C 132.419 160.306, 132.425 150.162, 132.192 138.750 C 131.895 124.141, 131.434 118.017, 130.635 118.056 C 130.011 118.087, 123.200 120.174, 115.500 122.694 M 131.199 166.049 C 130.842 168.826, 123.237 175.747, 118.817 177.316 C 116.443 178.159, 109.874 179.886, 104.221 181.154 C 94.224 183.396, 93.955 183.528, 94.424 185.979 C 94.689 187.366, 95.425 194.350, 96.058 201.500 C 96.691 208.650, 97.283 214.583, 97.372 214.684 C 97.924 215.308, 112.008 210.005, 120.134 206.114 L 129.768 201.500 130.955 190.500 C 131.607 184.450, 131.974 176.125, 131.769 172 C 131.565 167.875, 131.308 165.197, 131.199 166.049" stroke="none" fill="black" fill-rule="evenodd"/>
</svg>