<svg xmlns="http://www.w3.org/2000/svg" width="300" height="300" viewBox="0 0 300 300" version="1.1">
	<path d="M 89.105 35.909 C 87.894 36.959, 86.649 39.389, 86.337 41.310 C 85.839 44.382, 86.686 46.277, 93.394 57.090 C 97.587 63.850, 101.775 71.782, 102.701 74.719 C 104.565 80.635, 106.586 81.868, 111.408 80.035 C 114.147 78.993, 114.224 78.772, 113.812 73.084 C 113.477 68.446, 112.114 64.609, 107.339 54.855 C 104.013 48.060, 100.745 41.096, 100.078 39.380 C 98.938 36.448, 95.538 34, 92.606 34 C 91.891 34, 90.316 34.859, 89.105 35.909 M 195 47.644 C 191.633 49.004, 188 53.438, 188 56.187 C 188 57.734, 187.622 59, 187.160 59 C 186.698 59, 185.686 60.913, 184.910 63.250 C 183.340 67.981, 183.332 69.482, 184.065 206.831 C 184.488 285.921, 184.553 288.200, 186.441 289.581 C 188.637 291.186, 192.789 291.419, 194.940 290.058 C 197.304 288.562, 198.209 265.628, 198.361 203.363 L 198.500 146.227 204.205 150.227 C 218.720 160.404, 238.828 157.407, 245.065 144.138 C 249.785 134.097, 244.768 120.929, 230.477 105.847 L 226.912 102.085 235.557 90.811 C 249.163 73.065, 251.201 67.619, 246.750 60.898 C 244.169 56.999, 234.809 51.940, 225.500 49.410 C 219.464 47.769, 197.795 46.515, 195 47.644 M 195.466 65.250 C 195.847 67.037, 196.686 82.334, 197.329 99.241 L 198.500 129.982 202.500 132.665 C 204.700 134.141, 206.725 135.637, 207 135.991 C 207.275 136.344, 209.951 137.840, 212.946 139.316 C 220.237 142.909, 227.093 142.998, 230.545 139.545 C 231.895 138.195, 233 136.420, 233 135.599 C 233 132.644, 225.622 121.608, 218.951 114.585 C 215.207 110.643, 211.845 106.232, 211.481 104.781 C 210.483 100.804, 211.740 98, 214.520 98 C 216.306 98, 217.337 97.057, 218.620 94.250 C 220.131 90.942, 226.012 81.278, 230.942 74 C 234.089 69.353, 234.135 68.119, 231.216 66.646 C 226.705 64.371, 212.494 62, 203.366 62 L 194.773 62 195.466 65.250 M 101.500 83.010 C 98.750 83.503, 91.723 84.384, 85.884 84.967 C 75.045 86.051, 54.889 89.944, 49.514 91.992 C 42.942 94.496, 41.065 100.222, 46 102.710 C 49.764 104.608, 54.990 104.291, 74.389 100.991 C 103.275 96.077, 105.763 95.779, 123.394 95.126 C 137.480 94.604, 140.459 94.229, 141.315 92.868 C 142.950 90.268, 140.377 85.342, 136.656 83.948 C 132.696 82.466, 108.188 81.812, 101.500 83.010 M 59.632 129.573 C 57.569 132.463, 57.646 134.502, 60.428 150.500 C 61.467 156.480, 61.992 165.707, 61.990 178 C 61.988 196.884, 60.826 207.981, 56.994 225.733 C 54.291 238.250, 54.351 243.432, 57.223 245.443 C 59.561 247.081, 63.741 247.476, 65.600 246.235 C 67.525 244.950, 69 241.243, 69 237.691 C 69 235.799, 69.720 232.282, 70.600 229.876 C 71.480 227.469, 72.584 222.125, 73.052 218 C 73.520 213.875, 74.451 206.675, 75.120 202 C 75.789 197.325, 76.299 185.605, 76.252 175.956 L 76.168 158.413 79.334 158.195 C 81.075 158.075, 84.975 157.280, 88 156.428 C 95.557 154.298, 115.656 148.021, 120.369 146.319 L 124.237 144.921 123.639 148.211 C 123.309 150.020, 122.568 155.741, 121.991 160.924 C 121.413 166.108, 120.095 175.558, 119.060 181.924 C 116.037 200.533, 114.763 215.951, 115.158 229.164 C 115.500 240.578, 115.747 241.898, 118.463 246.824 C 123.480 255.923, 129.784 258.637, 140.720 256.407 C 148.453 254.829, 153.963 251.124, 162.197 241.966 C 169.302 234.063, 170.890 231.128, 170.955 225.773 C 170.989 222.932, 170.440 221.679, 168.644 220.502 C 165.372 218.359, 162.956 219.548, 158.488 225.500 C 150.667 235.919, 142.269 242, 135.700 242 C 132.658 242, 132.209 241.625, 131.212 238.250 C 129.182 231.381, 129.074 226.870, 130.563 211.125 C 131.375 202.531, 132.448 191.225, 132.947 186 C 133.447 180.775, 135.041 169.300, 136.490 160.500 C 139.666 141.215, 139.379 137.418, 134.413 133.057 C 129.672 128.895, 124.658 128.975, 113.257 133.395 C 108.441 135.262, 100 138.014, 94.500 139.510 C 89 141.006, 82.277 143.068, 79.560 144.091 C 76.842 145.115, 74.461 145.794, 74.267 145.600 C 74.073 145.406, 73.680 143.505, 73.392 141.374 C 72.485 134.638, 72.108 133.564, 69.661 130.752 C 66.180 126.750, 61.998 126.258, 59.632 129.573" stroke="none" fill="black" fill-rule="evenodd"/>
</svg>