<svg xmlns="http://www.w3.org/2000/svg" width="300" height="300" viewBox="0 0 300 300" version="1.1">
	<path d="M 138 27.563 C 133.875 28.284, 127.911 28.903, 124.747 28.937 C 116.436 29.028, 83.947 32.829, 81 34.055 C 77.378 35.562, 74.691 39.634, 75.415 42.518 C 75.857 44.278, 76.939 45.085, 79.501 45.566 C 81.417 45.926, 83.742 45.929, 84.667 45.574 C 85.592 45.219, 95.158 44.252, 105.924 43.425 C 126.242 41.864, 145.505 38.797, 150.236 36.368 C 153.785 34.546, 154.836 30.581, 152.464 27.960 C 150.463 25.749, 148.660 25.699, 138 27.563 M 175.573 29.570 C 173.618 31.525, 173.142 33.669, 172.701 42.500 C 172.509 46.350, 171.547 53.882, 170.562 59.237 C 168.433 70.819, 168.949 75.200, 172.639 76.882 C 176.230 78.518, 180 76.098, 180 72.158 C 180 70.621, 180.639 67.144, 181.420 64.432 C 182.201 61.719, 183.344 57.025, 183.961 54 C 184.939 49.201, 185.523 48.280, 188.541 46.771 C 191.915 45.085, 192 45.092, 192 47.061 C 192 48.171, 192.884 50.812, 193.964 52.929 C 196.361 57.628, 199.802 59.016, 208.899 58.956 C 225.029 58.850, 231.675 54.811, 229.564 46.398 C 228.899 43.748, 225.715 43.234, 220.399 44.919 C 218.805 45.424, 214.496 46.108, 210.824 46.439 L 204.149 47.040 203.504 41.270 C 202.691 33.991, 201.254 30.206, 198.804 28.895 C 196.165 27.483, 192.007 28.571, 188.488 31.595 C 186.396 33.393, 185.426 33.746, 185.141 32.813 C 183.773 28.340, 178.567 26.576, 175.573 29.570 M 116.105 46.374 C 115.477 47.130, 113.946 50.167, 112.702 53.124 C 108.158 63.920, 103.136 72.553, 100.104 74.780 C 97.928 76.379, 97 77.888, 97 79.830 C 97 83.680, 98.701 85, 103.661 85 L 107.923 85 103.766 88.877 C 99.634 92.732, 99.619 92.770, 101.328 95.377 C 102.709 97.486, 103.832 98, 107.055 98 C 109.260 98, 112.625 97.348, 114.532 96.551 C 116.439 95.754, 118 95.292, 118 95.524 C 118 97.166, 112.398 107.142, 109.871 110 C 104.501 116.073, 103.488 121.354, 107.355 123.116 C 110.745 124.660, 117.099 121.156, 121.223 115.467 C 124.221 111.332, 124.791 110.990, 127.927 111.440 C 130.150 111.759, 132.787 113.333, 135.427 115.918 C 143.275 123.599, 151.834 125.598, 156.853 120.923 C 162.871 115.316, 159.201 104.944, 152.788 109.436 C 149.911 111.451, 149.758 111.432, 146.777 108.669 C 143.048 105.214, 136.355 102, 132.886 102 C 130.831 102, 130.005 101.592, 130.358 100.750 C 130.646 100.063, 131.846 96.485, 133.023 92.800 C 134.914 86.883, 135.544 85.976, 138.419 85.027 C 146.073 82.501, 148.791 75.399, 143.018 73.007 C 141.378 72.328, 139.358 72.032, 138.530 72.350 C 137.682 72.675, 135.874 71.861, 134.390 70.486 L 131.755 68.044 134.474 67.010 C 138.435 65.504, 145.888 59.117, 147.642 55.725 C 149.063 52.977, 149.018 52.648, 146.904 50.398 C 145.665 49.079, 144.142 48, 143.518 48 C 142.895 48, 139.261 49.574, 135.443 51.497 C 131.624 53.420, 127.938 54.995, 127.250 54.997 C 126.534 54.999, 126 53.749, 126 52.073 C 126 47.083, 118.906 42.998, 116.105 46.374 M 83.651 49.250 C 80.659 54.075, 77.857 66.267, 74.977 87 C 74.403 91.125, 73.892 100.594, 73.841 108.042 C 73.759 119.797, 74.015 122.106, 75.776 125.542 C 79.370 132.552, 84.570 135.938, 97.853 139.918 C 111.768 144.086, 125.323 144.305, 137.500 140.560 C 140.250 139.714, 143.294 139.017, 144.264 139.011 C 145.234 139.005, 147.591 137.987, 149.502 136.750 C 152.239 134.977, 152.978 133.837, 152.988 131.372 C 152.994 129.652, 152.321 127.682, 151.492 126.993 C 149.978 125.737, 148.842 125.829, 138.500 128.053 C 130.616 129.749, 105.453 129.531, 99.378 127.715 C 92.208 125.572, 88.293 123.377, 86.349 120.410 C 84.088 116.959, 84.370 98.168, 86.949 80.526 C 87.996 73.362, 89.134 63.169, 89.477 57.877 C 90.019 49.530, 89.885 48.170, 88.469 47.627 C 85.852 46.622, 85.130 46.865, 83.651 49.250 M 119.227 70.250 C 118.667 70.938, 117.500 73.075, 116.633 75 C 115.766 76.925, 114.326 79.494, 113.434 80.708 C 111.881 82.822, 112.047 82.801, 117.348 80.208 C 121.265 78.292, 123.071 76.768, 123.520 75 C 123.870 73.625, 124.866 71.713, 125.733 70.750 C 127.205 69.116, 127.076 69, 123.777 69 C 121.835 69, 119.787 69.563, 119.227 70.250 M 201.480 72.620 C 194.080 76.547, 194.341 76.367, 188.500 81.542 C 183.325 86.127, 175.070 90.979, 172.424 90.991 C 169.466 91.004, 165.772 95.209, 166.624 97.595 C 167.865 101.071, 170.273 103, 173.405 103.027 C 175.607 103.046, 177.877 104.279, 181.270 107.299 C 186.001 111.509, 186.025 111.563, 184.270 113.896 C 179.098 120.767, 175.615 124, 173.384 124 C 170.966 124, 167 127.134, 167 129.045 C 167 129.620, 168.105 131.195, 169.455 132.545 C 174.590 137.681, 182.582 135.048, 191.572 125.257 L 195.715 120.745 201.344 125.330 C 206.572 129.588, 214.522 133, 219.217 133 C 221.943 133, 226 130.033, 226 128.040 C 226 125.768, 223.355 123.456, 218.463 121.453 C 216.284 120.561, 212.008 117.390, 208.962 114.407 L 203.425 108.983 210.212 95.432 C 217.462 80.960, 218.594 75.721, 215.443 71.223 C 213.208 68.031, 209.411 68.411, 201.480 72.620 M 193.262 93.906 C 190.763 96.005, 190.296 96.896, 191.212 97.812 C 193.019 99.619, 193.805 99.277, 195.535 95.932 C 197.816 91.521, 196.985 90.780, 193.262 93.906 M 184.281 153.433 C 183.611 154.211, 180.461 155.116, 177.281 155.443 C 174.102 155.771, 165.650 156.809, 158.500 157.752 C 144.362 159.614, 129.207 159.969, 121.821 158.609 C 116.317 157.596, 113.220 158.207, 110.084 160.927 C 107.092 163.522, 106.963 169.407, 109.835 172.280 C 111.726 174.171, 112.040 174.204, 114.268 172.744 C 116.248 171.447, 118.785 171.271, 128.833 171.734 C 135.525 172.042, 140.986 172.566, 140.968 172.897 C 140.951 173.229, 140.276 174.374, 139.468 175.441 C 138.661 176.509, 138 178.485, 138 179.833 C 138 181.181, 137.090 185.341, 135.977 189.078 L 133.954 195.872 128.337 197.504 C 121.623 199.456, 118.840 201.084, 113.388 206.249 L 109.277 210.145 108.579 204.884 C 108.014 200.627, 107.203 198.984, 104.323 196.268 C 101.062 193.193, 100.586 193.031, 98.632 194.329 C 96.509 195.740, 96.501 195.899, 96.823 233.623 C 97.001 254.455, 97.361 272.264, 97.624 273.199 C 97.887 274.133, 98.979 275.176, 100.051 275.516 C 101.225 275.889, 102 277.033, 102 278.393 C 102 279.635, 103.104 281.688, 104.453 282.956 C 106.710 285.076, 108.131 285.318, 122.203 285.976 C 144.345 287.012, 162.328 285.571, 173 281.907 C 184.555 277.939, 188.194 273.139, 182.484 269.398 C 180.378 268.018, 179.278 267.931, 175.734 268.864 C 164.764 271.751, 149.051 273.264, 132 273.075 C 106.436 272.792, 107.757 272.964, 108.428 270 C 109.555 265.014, 111.080 229.331, 110.447 222.750 C 109.848 216.527, 109.947 216, 111.724 216 C 112.784 216, 116.871 214.875, 120.807 213.500 C 124.742 212.125, 128.308 211, 128.731 210.999 C 129.154 210.999, 129.344 215.010, 129.154 219.913 C 128.821 228.486, 128.903 228.890, 131.298 230.459 C 136.604 233.936, 143.698 228.627, 142.601 222 C 141.665 216.349, 143.895 206.985, 146.396 206.066 C 153.195 203.567, 153.386 203.651, 155.240 209.942 C 158.954 222.543, 173.186 229.234, 186.316 224.551 C 190.713 222.983, 194 220.309, 194 218.300 C 194 217.535, 192.895 215.805, 191.545 214.455 C 189.408 212.317, 188.188 212, 182.111 212 C 173.480 212, 170.534 210.934, 168.548 207.093 C 165.407 201.019, 165.248 201.103, 186.739 197.423 C 199.212 195.287, 199.976 195.693, 201.925 205.499 C 204.579 218.852, 202.804 257.827, 198.875 272.480 C 197.361 278.127, 197.167 278.277, 194.295 276.018 C 191.267 273.635, 189.383 273.474, 187.429 275.429 C 185.502 277.355, 185.630 279.354, 187.972 283.945 C 191.721 291.295, 198.561 294.097, 203.796 290.430 C 211.283 285.186, 216.949 258.558, 216.973 228.500 C 216.986 211.524, 215.874 202.906, 212.721 195.566 C 207.752 183.996, 200.245 180.968, 185.280 184.496 C 176.793 186.497, 167.992 187.825, 168.035 187.099 C 168.069 186.530, 170.507 175.922, 171.654 171.357 C 172.112 169.535, 173.386 169.029, 180.180 167.972 C 189.022 166.597, 194 163.568, 194 159.564 C 194 154.812, 186.933 150.354, 184.281 153.433 M 149.571 171.885 C 149.270 172.372, 149.523 174.203, 150.134 175.954 C 150.967 178.345, 150.929 180.623, 149.980 185.094 C 148.605 191.575, 148.859 192.497, 151.770 191.573 C 153.142 191.138, 154.047 189.327, 154.939 185.232 C 155.626 182.079, 157.290 177.588, 158.636 175.250 L 161.084 171 155.601 171 C 152.585 171, 149.872 171.398, 149.571 171.885 M 167.936 245.976 C 165.788 247.233, 151.154 248.984, 142.026 249.076 C 132.994 249.167, 128.383 250.662, 126.241 254.191 C 124.776 256.605, 124.785 257.022, 126.348 259.408 C 128.043 261.995, 128.074 262, 142.165 262 C 153.387 262, 157.665 261.589, 163.012 259.996 C 174.236 256.654, 178.096 252.005, 173.481 247.390 C 170.862 244.771, 170.258 244.617, 167.936 245.976" stroke="none" fill="black" fill-rule="evenodd"/>
</svg>