<svg xmlns="http://www.w3.org/2000/svg" width="300" height="300" viewBox="0 0 300 300" version="1.1">
	<path d="M 186.051 47.021 C 181.405 47.504, 175.470 48.597, 172.863 49.450 C 170.257 50.302, 167.558 51, 166.867 51 C 166.175 51, 164.332 52.224, 162.771 53.719 C 160.343 56.045, 159.650 56.262, 157.980 55.219 C 151.962 51.462, 146.095 56.722, 148.043 64.129 C 154.508 88.709, 156.041 94.163, 157.405 97.427 C 158.282 99.526, 159 101.941, 159 102.793 C 159 103.645, 159.773 105.197, 160.719 106.242 C 161.778 107.412, 162.330 109.391, 162.157 111.397 C 161.770 115.895, 163.754 117.178, 172.014 117.769 C 178.714 118.248, 184.360 116.997, 193.500 113.006 C 196.279 111.792, 200.945 110.479, 212 107.801 C 221.166 105.581, 221.512 105.396, 221.836 102.544 C 222.025 100.887, 223.625 98.092, 225.478 96.184 C 229.964 91.565, 233.816 83.640, 235.205 76.171 C 236.188 70.888, 236.104 69.171, 234.636 64.513 C 232.349 57.260, 229.146 53.683, 221.688 50.052 C 216.319 47.439, 214.111 46.981, 205 46.591 C 199.225 46.344, 190.698 46.537, 186.051 47.021 M 189.500 59.664 C 182.809 60.441, 162.755 63.912, 162.294 64.373 C 162.056 64.611, 162.316 66.537, 162.872 68.653 C 163.427 70.769, 164.417 74.638, 165.071 77.250 C 165.725 79.862, 166.441 82, 166.662 82 C 166.883 82, 168.737 81.285, 170.782 80.410 C 172.827 79.536, 179.450 78.410, 185.500 77.909 C 191.550 77.408, 200.775 76.227, 206 75.285 C 211.225 74.343, 216.931 73.589, 218.680 73.608 C 220.976 73.634, 221.997 73.119, 222.354 71.754 C 223.186 68.572, 221.138 64.617, 217.400 62.190 C 214.400 60.240, 212.252 59.826, 203.672 59.540 C 198.077 59.353, 191.700 59.409, 189.500 59.664 M 74.500 70.493 C 73.950 70.677, 70.932 71.597, 67.793 72.537 C 60.821 74.626, 58.751 76.692, 59.180 81.138 C 59.628 85.788, 62.925 86.833, 70.100 84.600 C 74.303 83.291, 81.593 82.761, 102.978 82.209 L 130.455 81.500 131.456 78.649 C 132.352 76.098, 132.116 75.493, 129.213 72.899 L 125.968 70 100.734 70.079 C 86.855 70.122, 75.050 70.309, 74.500 70.493 M 214.500 87.083 C 209.831 88.501, 193.492 90.998, 188.761 91.016 C 186.417 91.026, 181.125 91.860, 177 92.871 C 170.569 94.448, 169.567 94.980, 169.970 96.605 C 170.229 97.647, 170.454 100.407, 170.470 102.738 C 170.504 107.541, 169.986 107.502, 180.500 103.498 C 191.946 99.140, 196.540 97.784, 204.342 96.461 C 209.630 95.565, 212.618 94.540, 213.518 93.316 C 215.239 90.974, 218.205 85.974, 217.807 86.086 C 217.638 86.133, 216.150 86.582, 214.500 87.083 M 77.564 89.128 C 75.205 90.984, 75 91.766, 75 98.922 C 75 103.199, 74.714 110.083, 74.364 114.220 L 73.728 121.743 68.114 122.966 C 65.026 123.638, 61.513 124.815, 60.307 125.580 C 58.190 126.923, 58.103 126.828, 57.807 122.838 C 57.263 115.504, 51.690 115.231, 47.439 122.328 C 45.810 125.049, 45.444 128.416, 44.864 146 C 43.784 178.789, 43.872 222.892, 45.023 225.043 C 47.230 229.167, 52.671 229.510, 55.163 225.681 C 55.592 225.023, 57.537 225.331, 60.663 226.553 C 63.938 227.833, 68.083 228.453, 73.500 228.472 C 82.017 228.502, 104.337 226.354, 109.750 224.984 C 112.146 224.377, 113 224.496, 113 225.435 C 113 226.135, 114.104 227.899, 115.452 229.354 C 120.892 235.223, 128.772 231.257, 131.055 221.500 C 132.573 215.013, 132.550 188.336, 130.999 155.500 C 129.839 130.944, 129.629 129.214, 127.224 124.343 C 123.708 117.224, 118.889 114.527, 109.662 114.511 L 102.824 114.500 103.425 110.500 C 103.756 108.300, 104.779 103.231, 105.699 99.236 C 107.552 91.190, 106.924 89.300, 102.745 90.349 C 99.232 91.231, 92.588 104.471, 90.501 114.750 C 90.129 116.582, 89.221 118, 88.421 118 C 87.269 118, 86.996 115.589, 86.978 105.250 C 86.959 94.671, 86.661 92.142, 85.228 90.395 C 82.639 87.241, 80.428 86.875, 77.564 89.128 M 175.289 122.250 C 171.890 125.964, 171.673 128.344, 174.491 130.991 C 177.566 133.881, 177.684 137.080, 175.060 146.520 C 172.334 156.332, 164.793 169.548, 155.851 180.187 C 152.365 184.335, 152.449 188.100, 156.071 190.038 C 160.529 192.424, 169.058 184.844, 178.814 169.826 C 180.841 166.706, 182.950 163.475, 183.500 162.647 C 184.233 161.544, 186.838 161.056, 193.250 160.821 L 202 160.500 202 169.750 L 202 179 199.250 179.008 C 194.432 179.021, 180.869 182.707, 178.136 184.746 C 176.686 185.827, 175.339 187.535, 175.141 188.540 C 174.455 192.036, 177.708 193, 190.191 193 L 202 193 202 211.851 C 202 222.643, 201.543 232.012, 200.932 233.766 C 199.602 237.579, 198.126 237.828, 170.493 238.888 C 146.459 239.809, 144.049 240.614, 144.015 247.731 C 144.003 250.261, 144.488 251.079, 146.250 251.503 C 149.743 252.343, 189.005 251.378, 203.500 250.096 C 246.688 246.276, 272.991 243.428, 279.979 241.816 C 289.206 239.686, 294.647 232.790, 290.429 228.571 C 288.698 226.841, 284.937 226.485, 283.450 227.911 C 282.163 229.145, 263.571 232, 256.820 232 C 253.828 232, 244.206 232.895, 235.440 233.988 C 226.673 235.082, 217.764 235.982, 215.643 235.988 C 212.323 235.998, 211.900 235.757, 212.605 234.250 C 213.055 233.287, 213.666 223.312, 213.962 212.083 C 214.283 199.894, 214.903 191.516, 215.500 191.293 C 228.844 186.312, 233.652 182.447, 232.453 177.668 C 231.499 173.869, 228.064 173.315, 221.363 175.880 C 218.316 177.046, 215.637 178, 215.411 178 C 214.782 178, 214.923 162.637, 215.582 159.339 C 216.100 156.751, 216.848 156.244, 222.332 154.769 C 225.724 153.857, 230.182 152.841, 232.238 152.512 C 238.180 151.561, 240.135 145.445, 235.474 142.391 C 232.931 140.725, 231.706 140.741, 220.089 142.601 L 215.678 143.307 216.325 133.466 C 216.872 125.137, 216.719 123.347, 215.331 121.813 C 212.131 118.277, 206.673 120.145, 204.415 125.548 C 203.569 127.574, 203 132.377, 203 137.499 C 203 143.506, 202.627 146.162, 201.750 146.395 C 201.063 146.578, 198.475 147.208, 196 147.796 C 193.525 148.384, 190.759 149.150, 189.854 149.499 C 188.373 150.070, 188.258 149.101, 188.700 139.817 C 189.083 131.760, 188.841 128.686, 187.597 125.786 C 185.007 119.750, 179.124 118.060, 175.289 122.250 M 103.232 132.059 C 103.499 134.841, 104.248 137.648, 104.896 138.296 C 105.544 138.944, 108.769 139.486, 112.063 139.501 L 118.052 139.528 117.398 135.014 C 116.316 127.544, 115.735 127, 108.838 127 L 102.746 127 103.232 132.059 M 87.026 131.186 C 83.722 132.408, 83.033 133.712, 83.015 138.781 C 83.005 141.675, 83.486 143.249, 84.500 143.638 C 85.325 143.955, 86 145.307, 86 146.642 C 86 152.614, 78.854 157.445, 74.369 154.506 C 70.558 152.009, 69.688 149.264, 70.319 141.735 C 70.842 135.498, 70.733 134.894, 69.199 135.534 C 68.265 135.923, 65.382 136.468, 62.793 136.744 C 58.126 137.242, 58.081 137.281, 57.589 141.373 C 57.316 143.643, 56.858 161.614, 56.572 181.309 C 56.081 215.053, 56.152 217.087, 57.796 216.565 C 58.756 216.260, 67.632 215.557, 77.521 215.002 C 99.758 213.754, 118.154 212.179, 118.871 211.462 C 119.650 210.683, 119.470 183.163, 118.565 164.778 L 117.792 149.056 114.785 150.611 C 111.195 152.468, 104.098 152.642, 100.840 150.955 C 95.160 148.014, 92.248 143.606, 90.551 135.386 C 89.544 130.505, 89.384 130.314, 87.026 131.186 M 100.500 166.508 C 98.300 167.186, 92.040 169.850, 86.590 172.428 C 75.226 177.801, 72.074 178.645, 69.170 177.091 C 67.454 176.173, 66.734 176.370, 65.002 178.228 C 59.832 183.778, 66.068 191.593, 75 190.758 C 80.084 190.282, 83.725 188.738, 96.303 181.723 C 108.098 175.144, 110.476 173.032, 109.675 169.843 C 108.767 166.224, 105.397 164.999, 100.500 166.508" stroke="none" fill="black" fill-rule="evenodd"/>
</svg>