<svg xmlns="http://www.w3.org/2000/svg" width="300" height="300" viewBox="0 0 300 300" version="1.1">
	<path d="M 183.696 22.577 C 180.536 25.737, 180.596 25.239, 182.471 32.669 C 183.726 37.646, 186.188 60.024, 185.559 60.744 C 185.442 60.878, 181.556 61.700, 176.923 62.572 C 163.665 65.065, 146.815 69.062, 143.181 70.574 C 140.398 71.732, 139.914 72.403, 140.181 74.728 C 140.438 76.962, 141.277 77.761, 144.500 78.845 C 150.185 80.757, 166.272 79.683, 177.129 76.666 L 185.759 74.268 186.187 85.469 C 186.567 95.395, 186.923 97.192, 189.311 101.268 C 192.258 106.296, 194.468 107.524, 198.118 106.162 C 199.428 105.673, 202.638 104.959, 205.252 104.575 C 209.884 103.894, 222.581 99.830, 226.313 97.832 C 227.338 97.284, 229.937 95.245, 232.088 93.301 C 236.298 89.498, 237.085 86.228, 234.429 83.571 C 232.498 81.641, 231.828 81.627, 227.520 83.427 C 224.180 84.823, 224.124 84.807, 224.956 82.677 C 225.424 81.480, 226.523 79.150, 227.398 77.500 C 228.273 75.850, 229.254 73.103, 229.579 71.396 L 230.168 68.292 239.834 67.707 C 245.150 67.385, 253.875 67.385, 259.222 67.706 C 270.032 68.356, 272 67.639, 272 63.052 C 272 56.656, 263.751 54.022, 243.683 54.008 C 233.858 54.001, 232.911 53.839, 233.366 52.250 C 234.597 47.948, 236.091 31.862, 235.448 29.836 C 233.767 24.540, 228.929 22.781, 225.328 26.156 C 221.437 29.800, 220.001 34.429, 219.986 43.372 C 219.979 47.842, 219.704 52.501, 219.376 53.725 C 218.722 56.167, 217.044 56.614, 205.834 57.330 L 199.168 57.756 198.482 48.128 C 197.588 35.602, 195.368 24.931, 193.215 22.813 C 190.040 19.689, 186.667 19.606, 183.696 22.577 M 100 69.127 C 96.975 69.573, 88.875 70.661, 82 71.545 C 59.834 74.396, 48.372 76.465, 46.255 78 C 42.792 80.511, 42.518 83.609, 45.496 86.587 C 47.953 89.044, 48.601 89.184, 55.936 88.851 L 63.757 88.496 64.371 94.998 C 64.709 98.574, 64.989 103.602, 64.993 106.171 C 65 110.631, 64.854 110.873, 61.750 111.543 C 59.962 111.928, 56.872 113.068, 54.883 114.074 L 51.266 115.905 50.761 109.613 C 50.112 101.522, 47.912 98, 43.507 98 C 36.576 98, 35.792 102.245, 37.043 133 C 38.462 167.885, 38.238 213.522, 36.552 233 C 35.244 248.111, 35.261 249.605, 36.753 250.750 C 37.649 251.438, 39.421 252, 40.691 252 C 41.961 252, 43 252.473, 43 253.051 C 43 253.629, 44.606 254.773, 46.570 255.594 C 49.566 256.845, 51.745 256.908, 60.133 255.985 C 65.630 255.380, 73.586 253.977, 77.814 252.866 C 82.041 251.755, 88.200 250.147, 91.500 249.293 C 94.800 248.438, 98.638 247.163, 100.028 246.459 C 103.513 244.694, 114 242.028, 114 242.907 C 114 243.301, 112.650 244.622, 111 245.842 C 106.771 248.968, 106.912 253.112, 111.400 257.600 C 115.815 262.015, 118.920 262.014, 123.340 257.594 C 127.272 253.661, 127.242 253.826, 129.441 224 C 132.552 181.812, 132.333 158.962, 128.511 126.981 C 126.325 108.689, 126.203 108.230, 122.378 103.996 C 117.598 98.706, 113.468 97.451, 105.799 98.960 C 102.498 99.609, 99.171 100.381, 98.406 100.674 C 97.244 101.120, 97.260 100.513, 98.508 96.978 C 100.236 92.079, 100.421 87.655, 99.007 85.012 C 98.135 83.384, 98.655 82.947, 103.257 81.450 C 109.496 79.419, 112.011 77.440, 111.968 74.595 C 111.891 69.536, 108.312 67.901, 100 69.127 M 205.750 71.242 L 200 72.227 200 82.721 C 200 92.328, 200.148 93.152, 201.750 92.478 C 202.713 92.074, 204.510 91.524, 205.745 91.256 C 208.148 90.734, 213.184 82.018, 214.270 76.500 C 214.594 74.850, 215.165 72.713, 215.537 71.750 C 216.319 69.729, 214.985 69.660, 205.750 71.242 M 81.665 85.738 C 77.579 86.058, 76.942 86.378, 77.548 87.808 C 77.943 88.739, 78.488 93.231, 78.760 97.791 C 79.370 108.014, 80.834 108.111, 83.111 98.081 C 84.018 94.085, 85.728 89.507, 86.910 87.908 C 88.230 86.122, 88.566 85.070, 87.780 85.180 C 87.076 85.279, 84.324 85.531, 81.665 85.738 M 106.500 113.657 C 104.850 113.853, 101.846 114.469, 99.824 115.025 L 96.148 116.036 96.718 121.768 C 97.602 130.654, 98.487 132.356, 101.765 131.473 C 107.145 130.025, 112.382 129.210, 113.515 129.644 C 114.763 130.123, 114.604 127.354, 112.863 118.250 C 112.293 115.270, 111.348 113.065, 110.679 113.150 C 110.031 113.232, 108.150 113.460, 106.500 113.657 M 237.978 123.155 C 235.790 126.540, 234 129.661, 234 130.090 C 234 130.519, 233.542 132.075, 232.982 133.547 L 231.964 136.224 229.966 133.685 C 226.600 129.405, 222.198 128.582, 212.726 130.460 C 203.654 132.258, 200.541 134.002, 198.023 138.697 C 196.817 140.946, 195.951 141.588, 194.955 140.972 C 194.069 140.425, 192.236 140.864, 189.880 142.188 C 186.924 143.849, 185.867 145.293, 184.556 149.461 C 183.007 154.387, 183.026 155.139, 184.922 163.651 C 187.907 177.052, 189.405 180, 193.228 180 C 195.078 180, 195.073 180.092, 193.073 182.635 C 191.933 184.084, 191 186.048, 191 187 C 191 190.139, 194.911 194, 198.091 194 C 202.045 194, 209.850 189.855, 219.240 182.767 C 227.236 176.732, 229.329 173.358, 227.196 169.943 C 226.392 168.655, 226.420 167.498, 227.300 165.601 C 227.960 164.179, 228.747 163.012, 229.050 163.008 C 229.352 163.004, 230.146 165.642, 230.812 168.871 C 234.605 187.234, 250.838 193.466, 273.064 185.092 C 282.548 181.519, 285.274 177.274, 280.898 172.898 C 279.019 171.019, 278.195 170.885, 273.148 171.642 C 270.041 172.109, 263.275 172.492, 258.112 172.495 C 249.067 172.500, 248.649 172.401, 246.697 169.791 C 244.445 166.781, 242.976 156, 244.817 156 C 245.403 156, 246.160 156.450, 246.500 157 C 248.605 160.406, 262.562 154.943, 270.396 147.647 C 275.627 142.776, 276.021 140.930, 272.566 137.475 L 270.131 135.040 263.316 137.683 C 259.567 139.136, 254.475 141.050, 252 141.936 C 249.525 142.821, 246.917 143.912, 246.204 144.360 C 245.176 145.007, 245.039 144.072, 245.540 139.837 C 246.058 135.458, 247.687 127.556, 249.114 122.500 C 249.269 121.950, 249.052 120.487, 248.631 119.250 C 248.068 117.597, 247.081 117, 244.911 117 C 242.389 117, 241.374 117.902, 237.978 123.155 M 77.445 126.750 C 77.061 129.912, 75.909 135.200, 74.886 138.500 C 73.863 141.800, 73.018 145.625, 73.009 147 C 72.985 150.654, 69.455 155.848, 66.491 156.592 C 64.702 157.041, 63.295 156.672, 61.867 155.380 C 58.138 152.005, 57.927 150.574, 59.947 142.338 C 61.005 138.027, 62.174 132.813, 62.546 130.750 L 63.223 127 59.046 127 C 56.748 127, 54.111 126.594, 53.184 126.098 C 51.614 125.257, 51.523 128.543, 51.839 174.775 C 52.157 221.254, 51.602 235.662, 49.257 241.772 C 48.780 243.016, 49.058 243.172, 50.576 242.513 C 51.634 242.055, 56.607 241.341, 61.627 240.928 C 66.647 240.515, 75.872 238.836, 82.127 237.196 C 97.389 233.196, 106.403 231.641, 110.487 232.304 C 114.694 232.987, 114.534 233.656, 116.069 209 C 117.172 191.301, 117.091 143.755, 115.957 142.623 C 115.659 142.325, 111.836 143.217, 107.463 144.606 C 97.806 147.673, 94.681 147.269, 89.018 142.223 C 85.594 139.173, 84.585 137.415, 83.435 132.500 C 82.663 129.200, 82.024 125.263, 82.016 123.750 C 82.004 121.706, 81.505 121, 80.072 121 C 78.472 121, 78.025 121.980, 77.445 126.750 M 169.299 124.960 C 165.423 127.323, 163.025 131.662, 161.538 139 L 160.424 144.500 152.993 144.798 C 146.751 145.049, 144.998 145.525, 142.031 147.773 C 136.806 151.733, 134.986 154.208, 135.257 156.982 C 135.713 161.643, 140.636 161.902, 159.409 158.252 L 162.319 157.686 161.720 170.361 C 161.147 182.483, 161.216 183.123, 163.297 185.062 C 164.674 186.345, 165.086 187.349, 164.421 187.795 C 159.384 191.169, 156.019 192.886, 153.323 193.456 C 148.390 194.498, 144.839 198.634, 145.201 202.917 C 145.556 207.128, 148.576 208.677, 154.326 207.599 C 158.759 206.767, 170.318 199.149, 178.750 191.501 C 185.315 185.546, 186.467 182.610, 183.429 179.571 C 181.424 177.567, 179.049 177.577, 176.158 179.602 C 173.218 181.661, 172.809 181.153, 174.017 176.940 C 174.558 175.055, 175 168.298, 175 161.923 C 175 155.549, 175.316 150.017, 175.702 149.631 C 176.088 149.245, 176.463 145.008, 176.535 140.215 C 176.608 135.422, 176.999 130.327, 177.406 128.894 C 177.929 127.048, 177.665 125.808, 176.501 124.644 C 174.383 122.526, 173.205 122.577, 169.299 124.960 M 211 146.176 C 208.525 147.295, 204.590 148.275, 202.256 148.355 C 197.348 148.523, 197.582 147.498, 199.074 162.325 C 199.987 171.391, 199.919 173.456, 198.625 176.049 C 197.151 179.005, 197.169 179.081, 199.214 178.432 C 208.812 175.386, 211.841 171.715, 214.836 159.500 C 219.004 142.501, 219.018 142.551, 211 146.176 M 90.500 181.933 C 63.553 191.304, 58 194.485, 58 200.547 C 58 203.306, 61.837 206, 65.765 206 C 67.835 206, 71.209 205.100, 73.261 204 C 75.314 202.900, 77.663 202, 78.482 202 C 79.301 202, 82.565 200.708, 85.735 199.129 C 88.906 197.549, 94.972 194.737, 99.216 192.879 C 106.487 189.694, 106.933 189.317, 106.966 186.323 C 106.990 184.056, 106.245 182.551, 104.365 181.073 C 101.066 178.477, 100.299 178.525, 90.500 181.933 M 257.200 221.200 C 255.489 222.911, 255.717 226.520, 257.636 228.113 C 258.536 228.860, 260.410 231.277, 261.801 233.485 C 263.192 235.693, 266.870 240.200, 269.975 243.500 C 273.079 246.800, 277.094 251.414, 278.896 253.753 C 286.209 263.245, 294.198 258.589, 289.576 247.529 C 286.431 240, 275.767 228.294, 266.027 221.679 C 263.139 219.718, 258.912 219.488, 257.200 221.200 M 226.315 224.046 C 225.114 224.509, 223.596 225.886, 222.942 227.108 C 219.977 232.649, 225.712 251.633, 231.398 255.101 C 235.545 257.630, 237.469 257.490, 239.830 254.489 C 241.774 252.017, 241.776 251.891, 239.947 246.239 C 238.925 243.083, 237.412 238.018, 236.585 234.985 C 234.701 228.078, 229.694 222.745, 226.315 224.046 M 183.743 235.750 C 182.235 237.435, 181.532 241.112, 181.849 245.666 C 182.126 249.644, 196.033 261, 200.627 261 C 201.997 261, 203.618 259.986, 204.569 258.534 C 206.092 256.210, 206.053 255.880, 203.882 252.784 C 200.961 248.616, 190.030 235.738, 188.589 234.765 C 186.843 233.587, 185.420 233.877, 183.743 235.750 M 147.337 238.182 C 145.158 239.236, 144.039 241.731, 144.014 245.594 C 143.996 248.358, 151.278 259.115, 156.144 263.512 C 163.989 270.599, 173.349 265.798, 167.121 257.882 C 166.088 256.568, 164.237 253.695, 163.008 251.497 C 154.676 236.600, 153.199 235.346, 147.337 238.182" stroke="none" fill="black" fill-rule="evenodd"/>
</svg>