<svg xmlns="http://www.w3.org/2000/svg" width="300" height="300" viewBox="0 0 300 300" version="1.1">
	<path d="M 141.273 31.770 C 138.199 32.271, 131.037 39.464, 126.534 46.572 C 120.701 55.781, 119.283 57, 114.397 57 C 109.352 57, 107.721 55.617, 104.478 48.593 C 101.252 41.605, 95.615 36, 91.815 36 C 86.433 36, 83.999 40.666, 86.759 45.692 C 91.202 53.785, 98.235 63.133, 101.442 65.211 C 103.385 66.470, 104.981 67.757, 104.988 68.071 C 104.994 68.385, 101.666 69.160, 97.592 69.793 C 91.128 70.798, 86.671 72.191, 81 74.980 C 80.175 75.386, 79.500 77.019, 79.500 78.609 C 79.500 80.913, 80.210 81.855, 83 83.248 C 87.253 85.373, 91.318 85.427, 100.500 83.483 C 111.372 81.180, 110.795 80.781, 109.560 89.750 C 108.514 97.349, 108.435 97.506, 105.497 97.806 C 99.654 98.401, 86.114 103.165, 83.576 105.518 C 79.933 108.893, 80.304 111.240, 84.886 113.816 C 89.693 116.517, 92.480 116.552, 99.740 114 C 102.870 112.900, 106.459 112, 107.715 112 C 109.916 112, 110 112.312, 110 120.532 C 110 129.827, 108.333 135.481, 105.341 136.330 C 104.329 136.618, 94.950 138.957, 84.500 141.528 C 74.050 144.100, 64.713 146.903, 63.750 147.757 C 61.527 149.730, 61.359 157.223, 63.499 158.999 C 64.663 159.966, 66.637 160, 72.340 159.151 C 76.378 158.551, 80.480 157.753, 81.456 157.379 C 82.963 156.800, 83.111 157.060, 82.439 159.099 C 80.287 165.629, 84.477 176.858, 91.165 182.485 C 93.132 184.140, 93.702 185.136, 92.828 185.391 C 89.874 186.256, 78.070 188, 75.172 188 C 68.522 188, 56.884 194.195, 53.322 199.631 C 51.780 201.985, 51.802 202.246, 53.708 204.153 L 55.732 206.176 65.808 204.088 C 71.350 202.940, 77.157 202, 78.711 202 C 80.266 202, 89.629 200.655, 99.519 199.012 C 109.408 197.369, 119.300 196.003, 121.500 195.977 C 128.724 195.892, 161.851 188.501, 164.785 186.320 C 168.358 183.664, 168.995 178.210, 166.044 175.540 C 164.283 173.946, 163.460 173.838, 160.246 174.777 C 158.186 175.379, 151.775 176.630, 146 177.558 C 140.225 178.486, 132.410 179.823, 128.634 180.529 L 121.768 181.812 125.821 177.656 C 128.366 175.046, 132.816 167.740, 137.786 158.011 L 145.700 142.521 149.756 141.829 C 154.884 140.953, 161.562 137.584, 162.377 135.461 C 163.653 132.133, 162.957 128.308, 160.686 126.174 C 157.835 123.496, 156.229 123.440, 153.564 125.926 C 152.116 127.277, 146.923 128.727, 136.161 130.783 L 120.821 133.715 121.402 131.107 C 121.721 129.673, 122.277 123.924, 122.637 118.331 L 123.292 108.161 129.083 106.050 C 134.646 104.022, 140 99.393, 140 96.612 C 140 95.933, 139.094 94.405, 137.987 93.216 C 135.937 91.016, 132.038 90.987, 127.816 93.141 C 124.667 94.747, 124 94.050, 124 89.149 C 124 81.049, 125.442 78.378, 130.505 77.103 C 132.914 76.496, 135.730 76, 136.761 76 C 140.310 76, 149.113 72.887, 151.055 70.945 C 153.407 68.593, 153.553 65.696, 151.429 63.571 C 149.448 61.591, 142.574 61.570, 134.500 63.520 C 131.200 64.317, 128.231 64.976, 127.902 64.984 C 127.573 64.993, 129.598 62.603, 132.402 59.673 C 144.585 46.941, 149.999 40.610, 149.985 39.108 C 149.942 34.399, 145.922 31.013, 141.273 31.770 M 226 47.545 C 219.636 48.946, 211.952 49.885, 206.494 49.928 L 197.488 50 196.122 53.085 C 195.048 55.512, 195.007 56.720, 195.930 58.745 C 196.791 60.635, 196.805 61.503, 195.983 62.011 C 195.367 62.391, 193.736 65.132, 192.358 68.101 L 189.854 73.500 189.252 126.500 C 188.921 155.650, 188.640 199.075, 188.628 223 C 188.608 263.162, 188.766 267.295, 190.691 276.866 C 192.321 284.968, 193.337 287.791, 195.342 289.797 C 197.598 292.053, 198.218 292.222, 200.474 291.194 C 204.521 289.350, 204.925 286.671, 203.299 272.469 C 202.048 261.547, 201.947 250.187, 202.657 200.500 C 203.734 125.143, 203.729 79.370, 202.643 70.500 L 201.787 63.500 208.794 63.828 C 213.206 64.035, 219.900 63.351, 226.864 61.982 C 232.948 60.787, 238.358 59.964, 238.887 60.154 C 239.416 60.344, 237.187 64.550, 233.933 69.500 C 230.679 74.450, 227.113 79.878, 226.008 81.562 C 223.493 85.396, 223.469 87.565, 225.918 89.661 C 227.407 90.937, 227.634 91.832, 226.934 93.673 C 225.860 96.498, 229.224 106.294, 233.362 112.392 C 234.813 114.530, 236 117.016, 236 117.917 C 236 118.818, 236.606 120.443, 237.347 121.527 C 239.499 124.680, 242 133.033, 242 137.071 C 242 141.178, 240.914 142, 235.486 142 C 231.382 142, 229.253 139.308, 225.995 130 C 223.442 122.706, 222.803 122.037, 218.367 122.015 C 215.078 121.999, 214.044 123.633, 214.014 128.892 C 213.992 132.602, 217.927 144.909, 220.335 148.665 C 223.569 153.710, 231.714 157.431, 237.917 156.696 C 244.482 155.919, 251.558 152.429, 254.266 148.633 C 257.364 144.289, 257.305 133.126, 254.135 124 C 251.173 115.473, 239.390 91.925, 237.106 89.969 C 235.425 88.529, 235.820 87.813, 243.723 77.969 C 248.346 72.211, 252.999 65.830, 254.064 63.790 C 256.401 59.312, 256.568 53.256, 254.439 50.217 C 250.421 44.479, 243.066 43.788, 226 47.545 M 120 148.034 C 116.425 148.458, 109.900 149.794, 105.500 151.002 C 101.100 152.210, 96.033 153.429, 94.241 153.710 C 91.258 154.178, 88.570 156, 90.863 156 C 91.403 156, 92.396 157.688, 93.070 159.750 C 93.744 161.813, 95.642 165.898, 97.288 168.830 C 100.285 174.167, 100.724 174.373, 105.173 172.536 C 106.245 172.093, 107.621 172.621, 109.006 174.006 C 110.194 175.194, 111.292 176.017, 111.445 175.833 C 114.106 172.649, 120.073 162.537, 121.084 159.500 C 121.816 157.300, 123.927 153.588, 125.775 151.250 C 127.622 148.912, 128.541 147.059, 127.817 147.131 C 127.093 147.204, 123.575 147.610, 120 148.034 M 109 182 C 109 182.550, 109.702 183, 110.559 183 C 111.416 183, 111.840 182.550, 111.500 182 C 111.160 181.450, 110.459 181, 109.941 181 C 109.423 181, 109 181.450, 109 182 M 119 215.054 C 114.325 216.606, 108.394 218.152, 105.820 218.489 C 99.976 219.254, 96.005 222.215, 95.985 225.823 C 95.973 227.919, 95.759 228.174, 95 227 C 94.467 226.175, 94.024 224.628, 94.015 223.562 C 93.996 221.089, 89.998 215.158, 87.891 214.476 C 81.409 212.376, 79.227 221.963, 82.975 236.068 C 84.097 240.289, 85.242 248.901, 85.626 256 C 85.997 262.875, 86.571 268.725, 86.901 269 C 87.230 269.275, 88.189 270.850, 89.031 272.500 C 90.243 274.874, 91.319 275.564, 94.189 275.805 C 103.451 276.584, 128.890 270.728, 139.033 265.483 C 143.666 263.087, 144.254 259.163, 140.539 255.448 L 138.077 252.986 140.895 248.743 C 147.233 239.198, 149.092 224.770, 144.772 218.654 C 143.546 216.919, 141.634 214.727, 140.522 213.783 C 137.500 211.218, 129.051 211.717, 119 215.054 M 123.019 229.091 C 115.961 231.595, 105.476 233.263, 101.831 232.463 C 100.263 232.118, 98.233 231.090, 97.321 230.178 C 95.777 228.634, 95.715 228.725, 96.420 231.510 C 98.343 239.100, 99.113 247.061, 98.523 253.250 L 97.879 260 101.399 260 C 106.683 260, 120 257.863, 120 257.015 C 120 256.607, 122.197 253.297, 124.883 249.658 C 128.182 245.189, 130.333 240.948, 131.514 236.585 C 134.235 226.534, 133.085 225.519, 123.019 229.091" stroke="none" fill="black" fill-rule="evenodd"/>
</svg>