<svg xmlns="http://www.w3.org/2000/svg" width="300" height="300" viewBox="0 0 300 300" version="1.1">
	<path d="M 200.828 20.036 C 196.552 22.531, 197.891 29.334, 204.448 38.426 C 206.402 41.135, 208 43.766, 208 44.272 C 208 46.504, 212.286 51, 214.413 51 C 218.467 51, 220.355 47.727, 219.739 41.765 C 219.090 35.476, 213.700 23.696, 210.218 20.957 C 207.545 18.854, 203.529 18.461, 200.828 20.036 M 249 49.924 C 247.240 50.937, 222.828 56.589, 212 58.490 C 207.875 59.215, 195.950 60.326, 185.500 60.960 C 166.025 62.141, 156.455 63.450, 154.250 65.234 C 152.854 66.363, 152.553 70.606, 153.814 71.385 C 155.950 72.705, 175.024 76, 180.528 76 L 186.738 76 187.325 79.613 C 188.562 87.239, 174.133 115.376, 159.833 133.221 C 157.990 135.521, 157.829 136.329, 158.792 138.444 C 160.332 141.824, 163.988 142.574, 168.494 140.436 C 172 138.772, 183.964 125.782, 184.033 123.564 C 184.052 122.979, 184.914 121.484, 185.949 120.243 C 188.184 117.564, 189.140 117.822, 199.484 123.898 C 203.325 126.154, 207.467 128, 208.687 128 C 209.907 128, 212.048 128.520, 213.443 129.156 C 217.116 130.829, 223.110 127.840, 228.148 121.823 C 230.369 119.171, 232.811 117, 233.576 117 C 234.340 117, 237.027 118.976, 239.548 121.392 C 243.799 125.464, 244.082 126.046, 243.452 129.402 C 242.278 135.663, 247.175 138.281, 251.873 133.904 C 258.779 127.470, 255.811 117.410, 245.216 111.344 C 242.622 109.859, 240.337 108.524, 240.138 108.377 C 239.939 108.230, 241.356 106.172, 243.287 103.805 C 250.805 94.586, 254.930 82.204, 252.955 74.787 C 250.230 64.550, 243.307 64.514, 241.392 74.727 C 241.051 76.539, 240.374 78.269, 239.887 78.570 C 239.399 78.871, 239 79.924, 239 80.909 C 239 83.194, 228.948 99.933, 223.591 106.567 C 221.341 109.355, 218.606 112.842, 217.513 114.317 C 216.420 115.793, 214.718 117, 213.731 117 C 210.866 117, 205.712 114.492, 203 111.779 C 201.625 110.403, 199.037 108.529, 197.250 107.613 C 195.463 106.698, 194 105.727, 194 105.456 C 194 105.185, 195.133 102.796, 196.518 100.148 C 197.903 97.499, 199.563 92.820, 200.207 89.749 C 201.233 84.859, 201.150 83.658, 199.537 80.083 C 198.525 77.837, 197.202 75.971, 196.598 75.937 C 193.492 75.757, 200.694 74.138, 209.500 73.035 C 227.193 70.821, 252.492 63.765, 256.610 59.897 C 262.444 54.416, 255.959 45.918, 249 49.924 M 116.897 65.436 C 116.658 65.676, 111.970 66.604, 106.481 67.499 C 99.087 68.704, 91.353 69.053, 76.645 68.846 C 58.086 68.586, 56.698 68.692, 55.395 70.475 C 53.594 72.938, 53.622 76.015, 55.468 78.651 C 58.784 83.386, 79.240 85.278, 97.703 82.558 C 118.799 79.450, 129.090 75.010, 127.417 69.737 C 127.027 68.511, 125.987 66.958, 125.104 66.286 C 123.571 65.118, 117.812 64.522, 116.897 65.436 M 79.062 90.904 C 76.746 92.698, 76.636 93.267, 76.874 102.222 C 77.166 113.157, 76.456 116.996, 74.142 117.009 C 71.712 117.023, 62.374 122.628, 60.628 125.121 C 59.187 127.178, 59.099 127.022, 58.807 121.891 C 58.535 117.112, 58.235 116.462, 56.168 116.170 C 51.576 115.519, 48.674 119.991, 44.918 133.500 C 42.820 141.050, 42.705 143.217, 42.886 172 C 43.215 224.581, 46.714 241.721, 56.367 238.050 C 59.259 236.951, 59.981 233.232, 58.707 226 C 57.587 219.648, 56.602 152.935, 57.473 142.476 C 58 136.155, 58.496 134.096, 59.298 134.898 C 61.162 136.762, 63.436 136.135, 66.187 133 C 68.037 130.892, 69.731 130, 71.885 130 C 74.681 130, 74.907 130.241, 74.459 132.750 C 72.581 143.278, 70 161.527, 70 164.283 C 70 168.132, 71.499 170, 74.589 170 C 78.925 170, 80.594 167.042, 83.333 154.500 C 84.775 147.900, 86.461 139.460, 87.081 135.745 C 87.700 132.030, 88.532 128.790, 88.928 128.544 C 89.325 128.299, 90.153 131.865, 90.769 136.468 C 92.029 145.887, 96.223 155.457, 100.599 158.899 C 105.274 162.577, 110.319 163.524, 118.115 162.187 C 121.922 161.534, 125.632 161, 126.358 161 C 127.416 161, 127.815 168.044, 128.357 196.250 C 129.075 233.636, 128.641 244, 126.358 244 C 124.231 244, 124.657 251.926, 126.989 255.750 C 128.674 258.513, 129.549 259, 132.830 259 C 140.673 259, 142.673 253.336, 143.503 228.787 C 143.848 218.574, 143.475 191.737, 142.657 168 C 141.050 121.337, 140.534 117.715, 134.683 111.994 C 129.238 106.671, 122.520 106.127, 105.750 109.655 C 103.061 110.220, 103 110.129, 103 105.584 C 103 103.028, 103.697 99.268, 104.549 97.229 C 107.884 89.246, 102.612 85.708, 97.456 92.469 C 94.564 96.261, 91 106.507, 91 111.030 C 91 112.599, 90.550 114.160, 90 114.500 C 89.360 114.895, 89 111.726, 89 105.707 C 89 97.560, 88.693 95.840, 86.715 92.905 C 83.972 88.834, 82.298 88.397, 79.062 90.904 M 117.500 121.698 C 115.850 121.916, 112.075 122.780, 109.112 123.616 L 103.724 125.136 104.257 132.915 C 104.820 141.130, 106.760 146.266, 109.945 147.970 C 111.003 148.537, 115.224 149, 119.325 149 L 126.781 149 127.187 141.250 C 127.874 128.130, 125.753 120.556, 121.559 121.150 C 120.976 121.232, 119.150 121.479, 117.500 121.698 M 207.226 134.004 C 203.910 137.093, 201.874 145.364, 201.277 158.166 L 200.732 169.833 192.116 170.981 C 174.702 173.301, 154.998 178.583, 150.880 182.035 C 144.869 187.074, 143.903 188.357, 144.198 190.905 C 144.646 194.757, 148.622 194.703, 165.237 190.619 C 183.131 186.220, 194.071 184, 197.853 184 L 200.791 184 201.271 215.250 C 201.745 246.168, 202.910 260.104, 206.429 276.984 C 208.193 285.444, 210.036 288.720, 213.520 289.594 C 218.506 290.846, 223.379 285.129, 221.159 280.631 C 217.988 274.208, 214.138 210.886, 215.644 189.928 L 216.260 181.356 238.380 178.205 C 250.546 176.472, 263.356 174.820, 266.846 174.532 C 276.209 173.762, 285.212 169.201, 288.525 163.548 C 291.355 158.718, 291.139 154.680, 287.957 152.977 C 285.715 151.777, 283.515 152.558, 278.980 156.165 C 275.078 159.269, 271.236 160.162, 254 161.972 C 241.491 163.286, 224.332 165.562, 219.399 166.562 C 216.371 167.176, 216.284 167.088, 215.704 162.845 C 215.377 160.455, 214.800 153.100, 214.421 146.500 C 213.577 131.769, 212.197 129.372, 207.226 134.004 M 107.948 187.385 C 107.144 188.189, 83.347 191, 77.345 191 C 71.322 191, 67.433 192.260, 64.250 195.241 C 61.497 197.819, 61.402 200.041, 63.913 203.139 C 65.609 205.233, 66.543 205.471, 72.163 205.242 C 89.655 204.530, 110.689 199.993, 115.671 195.858 C 117.390 194.432, 117.380 190.561, 115.655 189.128 C 114.075 187.817, 108.726 186.607, 107.948 187.385 M 119.500 219.908 C 118.400 220.233, 116.375 221.251, 115 222.170 C 112.512 223.831, 103.481 226.639, 93 229.009 C 84.325 230.970, 67.045 236.732, 60.794 239.748 C 53.740 243.151, 51.826 246.037, 54.586 249.113 C 57.731 252.617, 69.204 251.257, 89.194 245.009 C 98.162 242.206, 107.946 239.156, 110.935 238.231 C 117.747 236.123, 127 228.848, 127 225.600 C 127 222.061, 122.854 218.914, 119.500 219.908" stroke="none" fill="black" fill-rule="evenodd"/>
</svg>