<svg xmlns="http://www.w3.org/2000/svg" width="300" height="300" viewBox="0 0 300 300" version="1.1">
	<path d="M 189.400 9.765 C 188.795 10.169, 187.757 11.530, 187.094 12.788 C 186.079 14.715, 186.272 15.900, 188.314 20.288 C 189.648 23.155, 192.823 27.740, 195.369 30.478 C 199.290 34.693, 199.731 35.553, 198.250 36.087 C 197.287 36.433, 187.275 37.719, 176 38.943 C 164.725 40.168, 154.051 41.374, 152.279 41.624 C 148.384 42.175, 143 46.473, 143 49.032 C 143 51.829, 146.906 54, 151.941 54 C 162.027 54, 234.396 46.567, 251 43.826 C 262.923 41.858, 268.225 37.045, 264.587 31.493 C 262.792 28.753, 259.250 28.279, 253 29.943 C 248.912 31.031, 229.109 33.611, 217.248 34.600 L 209 35.288 209 32.520 C 209 29.342, 201.905 14.602, 198.761 11.250 C 196.663 9.013, 191.705 8.226, 189.400 9.765 M 112.761 59.074 C 110.931 60.140, 101.775 61.372, 80.984 63.352 C 66.160 64.763, 61.500 66.725, 61.500 71.556 C 61.500 73.909, 62.203 74.864, 65 76.312 C 67.871 77.798, 69.848 78.010, 76 77.487 C 80.125 77.137, 88.450 76.461, 94.500 75.985 C 105.487 75.120, 114.610 72.796, 119.441 69.631 C 121.439 68.322, 122 67.126, 122 64.177 C 122 62.100, 121.460 59.860, 120.800 59.200 C 119.349 57.749, 115.148 57.683, 112.761 59.074 M 221 63.977 C 219.075 64.388, 216.233 65.237, 214.685 65.862 C 213.137 66.488, 210.175 67, 208.104 67 C 205.087 67, 204.066 67.509, 202.968 69.559 C 201.629 72.062, 201.564 72.076, 200.049 70.175 C 197.678 67.200, 191.840 65.758, 185.262 66.524 C 175.766 67.629, 163 71.412, 163 73.121 C 163 73.605, 162.550 74, 162 74 C 161.450 74, 161 73.372, 161 72.604 C 161 70.722, 154.368 65, 152.188 65 C 151.229 65, 149.445 65.701, 148.223 66.557 C 145.227 68.655, 145.308 73.701, 148.435 79.873 C 149.775 82.516, 151.665 87.968, 152.635 91.987 C 155.651 104.484, 160.493 109.003, 164.885 103.420 C 167.332 100.308, 167.507 96.788, 165.616 88.750 L 164.263 83 170.450 83 C 173.853 83, 179.013 82.294, 181.917 81.432 C 184.821 80.570, 187.390 80.057, 187.627 80.293 C 187.863 80.529, 187.632 81.837, 187.115 83.198 C 185.835 86.563, 180.171 91.746, 174.328 94.896 C 162.671 101.182, 172.927 108.779, 187.393 104.574 C 194.441 102.525, 197.297 99.966, 196.101 96.774 C 195.485 95.129, 195.761 93.775, 197.100 91.881 C 198.117 90.440, 199.475 87.965, 200.116 86.381 L 201.282 83.500 203.171 89.479 C 204.209 92.768, 205.495 95.895, 206.029 96.429 C 206.563 96.963, 207 98.417, 207 99.661 C 207 102.549, 210.676 106, 213.753 106 C 216.265 106, 222.454 103.685, 232.729 98.900 C 236.155 97.305, 239.357 96, 239.844 96 C 240.332 96, 241.916 95.067, 243.365 93.927 C 246.136 91.748, 247.031 86.431, 244.973 84.373 C 244.271 83.671, 244.788 81.843, 246.606 78.589 C 249.013 74.283, 249.156 73.464, 248.111 69.978 C 246.492 64.571, 242.870 62.969, 232.596 63.115 C 228.143 63.178, 222.925 63.566, 221 63.977 M 215.330 83.368 C 215.646 87.146, 216.081 90.414, 216.298 90.632 C 216.515 90.849, 218.408 90.310, 220.503 89.434 C 222.599 88.559, 226.155 87.518, 228.407 87.122 C 232.105 86.471, 232.473 86.143, 232.215 83.719 C 232.058 82.244, 232.639 79.954, 233.505 78.632 L 235.081 76.228 224.919 76.364 L 214.757 76.500 215.330 83.368 M 96.720 82.509 C 95.741 83.854, 94.465 87.529, 93.883 90.675 C 93.301 93.822, 92.228 97.994, 91.498 99.948 C 90.768 101.902, 89.902 104.725, 89.573 106.221 C 89.003 108.823, 85.813 111.479, 84.057 110.815 C 83.599 110.642, 84.062 107.350, 85.086 103.500 C 87.645 93.878, 87.514 90.363, 84.449 86.344 C 79.656 80.060, 74.733 82.623, 73.586 92 C 73.216 95.025, 71.970 101.037, 70.817 105.359 C 68.905 112.531, 68.431 113.340, 65.393 114.609 C 61.072 116.415, 61.264 116.478, 60.498 112.990 C 59.174 106.964, 53.898 105.046, 50.039 109.189 C 48.053 111.320, 48 112.488, 48 153.989 C 48 196.215, 46.818 222.309, 44.795 224.746 C 43.456 226.360, 44.297 235.448, 45.972 237.467 C 46.713 238.359, 48.856 239, 51.097 239 C 54.353 239, 55.185 238.543, 56.479 236.041 C 58.861 231.434, 61.001 209.812, 61.683 183.446 L 62.306 159.391 64.903 159.759 C 69.475 160.406, 70.792 158.235, 74.460 144 C 76.373 136.575, 78.209 129.566, 78.540 128.425 C 79.015 126.786, 83.737 124.010, 86.071 123.998 C 86.307 123.996, 86.353 127.609, 86.173 132.025 C 85.636 145.221, 88.320 153.342, 94.334 156.715 C 97.034 158.229, 105.253 158.335, 110.344 156.922 C 112.458 156.335, 114.409 156.075, 114.679 156.346 C 115.173 156.840, 113.874 182.594, 111.947 210.500 C 110.052 237.960, 107.801 251.483, 104.817 253.346 C 101.368 255.500, 102.959 261.320, 107.684 263.837 C 112.371 266.333, 115.796 264.397, 119.441 257.188 C 124.211 247.754, 128.049 200.502, 128.315 147.925 C 128.487 113.826, 128.373 111.113, 126.619 107.855 C 124.359 103.653, 119.333 100, 115.814 100 C 114.405 100, 111.338 100.675, 109 101.500 C 106.662 102.325, 104.621 103, 104.465 103 C 104.201 103, 105.047 99.854, 108.157 89.277 C 109.317 85.332, 109.242 84.887, 107.025 82.527 C 103.869 79.168, 99.157 79.159, 96.720 82.509 M 174.226 112.112 C 171.130 113.257, 170.291 116.085, 171.051 122.814 C 171.466 126.491, 171.308 128.750, 170.605 129.208 C 170.007 129.598, 167.038 130.196, 164.009 130.537 C 153.353 131.738, 148.098 133.871, 145.669 137.983 C 143.599 141.488, 143.538 144.372, 145.501 146.001 C 146.714 147.007, 149.305 146.766, 158.961 144.750 C 165.538 143.376, 171.163 142.496, 171.460 142.793 C 171.757 143.090, 172 145.926, 172 149.096 L 172 154.858 166.389 156.489 C 163.302 157.387, 158.465 158.376, 155.639 158.689 C 148.972 159.426, 143 162.649, 143 165.510 C 143 166.688, 144.042 168.630, 145.314 169.826 C 148.085 172.429, 154.094 172.660, 163.971 170.543 C 170.720 169.096, 172 169.239, 172 171.437 C 172 173.619, 174.805 175.266, 177.409 174.612 C 179.057 174.199, 180.218 172.869, 181 170.500 C 181.635 168.575, 182.233 166.995, 182.328 166.989 C 182.422 166.983, 184.553 166.355, 187.061 165.594 L 191.623 164.209 191.197 167.114 C 190.962 168.711, 191.295 170.651, 191.936 171.423 C 192.896 172.579, 192.163 173.100, 187.801 174.360 C 181.215 176.264, 176.338 177.361, 163.072 179.924 C 154.917 181.500, 151.865 182.567, 149.072 184.820 C 144.446 188.552, 143.756 192.577, 147.499 194 C 152.135 195.762, 156.929 195.359, 172.872 191.867 C 175.276 191.341, 177.520 191.186, 177.858 191.524 C 178.195 191.862, 170.101 200.320, 159.869 210.319 C 137.119 232.554, 133 237.236, 133 240.861 C 133 244.136, 134.633 246, 137.503 246 C 138.677 246, 143.461 242.688, 148.336 238.500 C 153.138 234.375, 157.233 231, 157.435 231 C 157.638 231, 157.140 233.137, 156.328 235.750 C 153.269 245.595, 156.648 259.215, 162.960 262.479 C 169.153 265.682, 171.236 264.786, 181.259 254.615 L 190.507 245.231 195.504 249.758 C 210.353 263.212, 227.780 273.803, 245.170 279.940 C 255.566 283.609, 262.917 283.958, 267.750 281.011 C 274.027 277.184, 270.987 271, 262.828 271 C 250.497 271, 223.666 256.400, 204.469 239.244 L 198.587 233.988 203.136 229.244 C 210.068 222.016, 220 208.561, 220 206.399 C 220 203.371, 216.199 202.163, 211.569 203.718 C 205.061 205.905, 199.169 211.371, 191.424 222.409 C 189.990 224.451, 189.814 224.352, 183.900 218.218 L 177.844 211.936 183.415 205.918 C 189.911 198.902, 191.026 195.853, 188.626 191.671 C 187.697 190.053, 187.064 188.620, 187.219 188.486 C 187.373 188.352, 191.139 187.514, 195.587 186.624 C 200.035 185.734, 206.335 184.073, 209.587 182.934 C 212.839 181.796, 217.104 180.520, 219.065 180.100 C 230.920 177.560, 236.220 168.613, 227.674 165.567 C 225.671 164.853, 221.991 165.462, 212.028 168.156 C 200.610 171.244, 196.457 171.690, 200.102 169.437 C 200.708 169.062, 201.836 167.244, 202.608 165.395 C 204.089 161.852, 204.939 161.481, 213.500 160.634 C 216.250 160.362, 222.325 158.870, 227 157.320 C 236.113 154.297, 237.495 152.661, 234.951 147.908 C 233.817 145.789, 233.403 145.736, 223.138 146.382 C 217.287 146.750, 211.037 147.316, 209.250 147.639 L 206 148.227 206 142.794 L 206 137.360 214.142 136.038 C 219.352 135.192, 222.953 134.047, 224.142 132.858 C 226.066 130.934, 226.510 128.309, 225.235 126.400 C 224.116 124.725, 220.309 122.956, 218.822 123.420 C 218.095 123.647, 214.912 124.100, 211.750 124.425 L 206 125.017 206 121.197 C 206 113.227, 197.360 109.734, 193.560 116.168 C 192.531 117.910, 191.745 120.835, 191.814 122.668 C 191.896 124.854, 191.477 126, 190.595 126 C 189.855 126, 187.844 126.281, 186.125 126.625 C 183.120 127.226, 183 127.121, 182.994 123.875 C 182.980 115.154, 179.311 110.231, 174.226 112.112 M 108.166 115.944 C 105.248 116.932, 102.394 118.206, 101.825 118.775 C 101.256 119.344, 100.308 123.154, 99.719 127.242 C 98.892 132.982, 98.944 135.729, 99.947 139.310 L 101.245 143.947 108.123 143.883 L 115 143.818 114.985 130.159 C 114.976 122.647, 114.633 115.971, 114.221 115.324 C 113.662 114.445, 112.129 114.602, 108.166 115.944 M 62.070 131.250 C 62.129 133.974, 62.280 134.176, 63 132.500 C 64.187 129.737, 64.187 128, 63 128 C 62.450 128, 62.032 129.463, 62.070 131.250 M 186.250 140.706 C 184.239 141.093, 184 141.728, 184 146.695 L 184 152.250 187.125 151.625 C 188.844 151.281, 190.644 151, 191.125 151 C 191.606 151, 192 148.525, 192 145.500 C 192 139.646, 191.954 139.607, 186.250 140.706 M 81.392 176.370 C 69.064 180.379, 64.702 185.275, 68.557 190.777 C 70.777 193.948, 76.763 193.686, 86.337 190 C 90.621 188.350, 95.674 187, 97.564 187 C 101.391 187, 105 184.142, 105 181.111 C 105 180.072, 104.160 178.184, 103.134 176.917 C 100.385 173.522, 90.883 173.283, 81.392 176.370 M 169.881 221.202 C 170.897 222.549, 170.924 224.007, 170.008 228.202 C 169.372 231.116, 168.998 237.092, 169.176 241.482 L 169.500 249.465 171.500 247.420 C 172.600 246.296, 175.611 243.683, 178.192 241.615 L 182.884 237.854 176.852 229.677 C 173.534 225.180, 170.320 221.050, 169.708 220.500 C 169.097 219.950, 169.174 220.266, 169.881 221.202 M 91.500 243.158 C 79.580 245.992, 69.784 248.074, 64 249.002 C 54.013 250.605, 53.201 250.868, 51.028 253.201 C 48.342 256.083, 48.469 258.560, 51.455 261.545 C 54.725 264.816, 60.659 264.792, 75.880 261.445 C 93.945 257.473, 102.492 254.409, 103.855 251.419 C 105.551 247.697, 105.281 246.366, 102.365 244.073 C 99.523 241.837, 97.700 241.684, 91.500 243.158" stroke="none" fill="black" fill-rule="evenodd"/>
</svg>