<svg xmlns="http://www.w3.org/2000/svg" width="300" height="300" viewBox="0 0 300 300" version="1.1">
	<path d="M 246.890 15.443 C 246.646 15.687, 239.034 17.768, 229.973 20.068 C 217.107 23.333, 213.007 24.780, 211.250 26.676 C 208.581 29.555, 208.320 34.178, 210.694 36.551 C 212.976 38.833, 220.093 38.050, 237.296 33.625 C 244.558 31.757, 252.750 29.701, 255.500 29.057 C 262.764 27.356, 265 25.608, 265 21.632 C 265 16.509, 262.574 15, 254.338 15 C 250.485 15, 247.134 15.200, 246.890 15.443 M 182 21.076 C 176.775 22.017, 168.450 23.780, 163.500 24.993 C 157.721 26.411, 152.737 27.032, 149.572 26.730 C 143.021 26.104, 138.169 27.534, 136.824 30.487 C 135.385 33.646, 136.507 37.654, 139.262 39.191 C 142.314 40.895, 158.474 40.507, 166.127 38.546 C 169.446 37.696, 172.892 37, 173.784 37 C 176.738 37, 195.468 30.798, 197.250 29.230 C 199.623 27.142, 199.450 24.753, 196.750 22.323 C 193.396 19.304, 192.340 19.215, 182 21.076 M 250.500 39.084 C 230.389 41.418, 227.855 41.888, 224.398 43.928 C 222.391 45.112, 220.641 45.950, 220.509 45.791 C 220.378 45.631, 219.744 44.488, 219.100 43.250 C 217.524 40.220, 215.346 40.418, 212.106 43.887 L 209.409 46.773 206.624 44.745 C 204.192 42.973, 202.868 42.792, 196.170 43.315 C 191.951 43.644, 187.150 44.334, 185.500 44.849 C 183.850 45.363, 179.800 46.313, 176.500 46.960 C 167.792 48.667, 154.180 51.986, 149.117 53.637 C 144.185 55.246, 144.479 55.362, 142.053 50.838 C 140.569 48.071, 139.688 47.500, 136.901 47.500 C 133.987 47.500, 133.231 48.059, 131.226 51.693 L 128.914 55.885 130.547 73.190 C 131.488 83.167, 131.900 93.112, 131.518 96.674 C 130.916 102.302, 131.045 102.954, 132.974 103.986 C 136.456 105.850, 141.061 104.826, 143.401 101.668 C 145.321 99.077, 145.493 97.572, 145.421 84.007 L 145.342 69.179 148.421 68.685 C 150.114 68.413, 154.157 67.248, 157.405 66.095 C 163.538 63.919, 167.084 63.368, 163.364 65.170 C 159.749 66.920, 157.424 74.908, 160.057 76.535 C 160.638 76.894, 162.264 79.733, 163.671 82.844 C 167.952 92.308, 172.154 95.439, 176.635 92.504 C 179.569 90.581, 179.681 87.293, 177.072 79.710 C 173.863 70.381, 171.879 66.991, 168.615 65.256 C 165.926 63.827, 165.773 63.551, 167.500 63.236 C 168.600 63.036, 174.450 61.812, 180.500 60.517 C 200.102 56.320, 198.001 56.361, 197.993 60.171 C 197.985 64.059, 194.505 79.143, 192.884 82.318 C 192.271 83.518, 190.021 86.136, 187.885 88.134 C 183.025 92.681, 182.480 97.350, 186.589 99.223 C 188.800 100.230, 189.852 100.045, 193.786 97.958 C 198.627 95.389, 206 88.426, 206 86.421 C 206 85.774, 206.675 84.685, 207.500 84 C 208.737 82.974, 209 83.064, 209 84.512 C 209 87.703, 211.269 93.912, 213.189 95.972 C 215.888 98.869, 220.540 98.631, 222.597 95.492 C 224.027 93.311, 224.095 92.002, 223.120 85.451 C 221.919 77.376, 221.641 61.941, 222.630 58.250 C 223.172 56.229, 223.859 55.998, 229.367 55.983 C 232.740 55.973, 238.650 55.293, 242.500 54.471 C 246.350 53.650, 254.864 52.684, 261.419 52.326 C 272.898 51.699, 273.309 51.745, 272.529 53.587 C 272.083 54.639, 271.130 57.649, 270.409 60.276 C 269.689 62.902, 268.150 66.385, 266.989 68.016 C 265.827 69.647, 264.631 72.500, 264.329 74.357 C 263.882 77.115, 264.209 78.033, 266.113 79.367 C 269.256 81.568, 270.325 81.439, 273.903 78.428 C 277.234 75.625, 278.125 74.211, 283.628 63 C 288.168 53.748, 289.089 49.906, 287.844 45.399 C 286.189 39.402, 282.509 37.984, 269 38.140 C 262.675 38.212, 254.350 38.637, 250.500 39.084 M 87 46.521 C 75.186 48.580, 51.198 51.016, 43.313 50.958 C 35.684 50.901, 33.638 51.669, 30.603 55.728 C 29.143 57.682, 28.917 58.861, 29.620 60.861 C 31.098 65.064, 34.358 66.062, 44.500 65.416 C 50.878 65.010, 53.063 65.146, 52 65.883 C 50.797 66.717, 50.437 70.080, 50.183 82.850 L 49.865 98.777 46.808 99.388 C 45.126 99.725, 42.787 100, 41.610 100 C 40.433 100, 37.790 100.901, 35.735 102.002 L 32 104.004 32 100.970 C 32 96.509, 29.415 91.089, 26.832 90.133 C 23.751 88.994, 21.845 89.673, 19.596 92.713 C 17.806 95.130, 17.762 96.014, 18.871 107.340 C 22.604 145.493, 20.935 191.138, 14.020 239.972 C 12.871 248.087, 14.122 251.363, 18.538 251.797 C 24.660 252.398, 28.227 244.922, 29.967 227.843 C 30.546 222.154, 31.468 214.800, 32.016 211.500 C 33.620 201.829, 35.253 160.069, 34.822 139.750 C 34.603 129.438, 34.801 121, 35.264 121 C 35.726 121, 36.559 119.695, 37.115 118.100 C 38.172 115.067, 40.326 114.037, 45.655 114.014 L 48.810 114 48.300 120.250 C 47.804 126.324, 44.051 143.105, 41.958 148.611 C 41.388 150.110, 40.323 151.824, 39.591 152.419 C 37.930 153.768, 35.954 161.672, 36.728 163.868 C 38.704 169.470, 43.638 170.516, 47.916 166.238 C 50.636 163.518, 54.503 154.855, 56.058 148 C 56.495 146.075, 57.777 141.125, 58.907 137 C 60.037 132.875, 61.474 125.675, 62.101 121 C 63.108 113.491, 64.070 111.069, 66.071 111.015 C 66.385 111.007, 66.305 113.362, 65.894 116.250 C 64.650 124.979, 64.955 152.961, 66.364 159.524 C 68.759 170.678, 72.903 174.394, 82.777 174.244 C 92.870 174.091, 106 166.603, 106 161 C 106 157.942, 102.293 154, 99.418 154 C 98.343 154, 95.745 155.168, 93.644 156.596 C 91.071 158.345, 88.336 159.242, 85.262 159.346 L 80.700 159.500 79.414 153.500 C 78.040 147.087, 77.615 126.722, 78.632 115.966 L 79.249 109.431 92.315 106.774 C 99.501 105.313, 105.745 104.343, 106.190 104.618 C 107.135 105.202, 107.306 247.219, 106.368 251.910 C 105.807 254.713, 105.552 254.913, 104.118 253.677 C 103.228 252.910, 100.970 251.769, 99.101 251.142 C 94.488 249.593, 75.773 249.761, 69 251.412 C 61.760 253.178, 49.099 256.682, 41 259.162 C 32.573 261.742, 25.482 262.589, 24.576 261.123 C 23.502 259.385, 20.536 259.790, 17.635 262.073 C 14.590 264.468, 14.081 269.244, 16.503 272.701 C 18.442 275.469, 24.116 277.325, 28.253 276.545 C 35.835 275.114, 50.159 271.522, 58.882 268.863 C 65.792 266.757, 84.804 263, 88.551 263 C 88.661 263, 89.026 264.238, 89.363 265.750 C 90.083 268.981, 92.150 271.527, 97.094 275.275 C 99.950 277.440, 101.769 278, 105.944 278 C 110.542 278, 111.605 277.593, 114.440 274.750 C 116.222 272.962, 118.732 268.800, 120.017 265.500 L 122.354 259.500 122.368 182 C 122.383 96.585, 122.684 100.837, 116.140 93.989 C 111.976 89.631, 104.816 88.988, 92.863 91.898 C 88.113 93.054, 83.768 94, 83.208 94 C 82.538 94, 82.376 89.263, 82.735 80.197 C 83.101 70.943, 82.913 65.706, 82.165 64.307 C 81.113 62.342, 81.527 62.071, 89.274 59.645 C 99.502 56.442, 102 54.758, 102 51.066 C 102 45.783, 98.067 44.591, 87 46.521 M 239.063 62.433 C 236.361 65.309, 236.569 69.038, 239.955 78.500 C 243.162 87.460, 246.985 90.015, 251.072 85.928 C 252.909 84.091, 253.070 83.099, 252.495 77.178 C 251.654 68.528, 250.213 64.007, 247.604 61.825 C 244.669 59.372, 241.743 59.580, 239.063 62.433 M 68 63.666 C 61.345 64.714, 60.905 64.955, 61.978 66.959 C 62.540 68.009, 63 75.198, 63 82.934 L 63 97 65.412 97 C 67.459 97, 67.930 96.376, 68.522 92.872 C 69.671 86.070, 71.628 62.990, 71.043 63.136 C 70.744 63.211, 69.375 63.450, 68 63.666 M 203.496 100.365 C 201.787 102.975, 202.672 106.875, 205.746 110.272 C 206.715 111.343, 206.985 112.389, 206.426 112.908 C 205.917 113.381, 197.850 114.518, 188.500 115.433 C 164.771 117.757, 148.112 120.437, 137 123.719 C 128.768 126.150, 127.455 126.839, 127.165 128.878 C 126.664 132.401, 128.416 133.449, 135.731 134 C 142.083 134.479, 142.402 134.628, 143.215 137.500 C 144.702 142.755, 145.324 179.746, 144.122 191.500 C 142.539 206.980, 139.488 226.058, 135.885 243 C 130.966 266.132, 129.939 270.236, 127.912 274.877 C 125.362 280.715, 125.440 283.857, 128.159 284.863 C 136.081 287.793, 142.813 277.324, 147.041 255.500 C 147.680 252.200, 149.303 244.815, 150.647 239.088 C 151.991 233.361, 153.504 225.486, 154.010 221.588 C 154.516 217.690, 155.618 210, 156.458 204.500 C 157.298 199, 158.276 189.100, 158.632 182.500 L 159.278 170.500 162.389 170.449 C 165.307 170.402, 181.061 168.609, 189.112 167.409 C 192.437 166.914, 192.773 167.095, 193.338 169.685 C 193.676 171.233, 194.257 173.577, 194.630 174.894 L 195.309 177.289 188.286 176.597 C 178.940 175.676, 173.135 177.198, 168.564 181.769 C 162.299 188.035, 164.253 193.784, 172.231 192.558 C 174.579 192.197, 183.116 191.658, 191.201 191.360 C 203.628 190.902, 206.254 191.065, 208.174 192.409 C 211.393 194.664, 213.701 194.390, 216.695 191.396 C 218.127 189.964, 220.899 188.238, 222.855 187.561 C 224.811 186.883, 227.307 185.130, 228.401 183.665 C 230.389 181.002, 230.389 180.998, 228.345 178.250 C 227.220 176.737, 225.276 175.349, 224.026 175.164 C 221.932 174.855, 221.801 174.467, 222.376 170.275 C 222.719 167.770, 223 165.150, 223 164.451 C 223 163.649, 225.667 162.754, 230.250 162.019 C 234.238 161.380, 239.803 160.265, 242.618 159.541 L 247.737 158.224 246.447 162.510 C 244.923 167.575, 242.422 172.621, 241 173.500 C 240.442 173.845, 239.285 175.483, 238.428 177.140 C 237.014 179.874, 237.017 180.376, 238.458 182.576 C 239.643 184.384, 240.944 185, 243.579 185 C 246.509 185, 247.924 184.154, 251.863 180.046 C 254.476 177.321, 257.260 173.833, 258.051 172.296 C 258.842 170.758, 260.668 167.595, 262.110 165.266 C 266.087 158.843, 267.544 152.728, 265.991 148.979 C 263.152 142.124, 257.012 140.465, 246 143.579 C 237.953 145.854, 225.984 148.317, 225.471 147.804 C 225.226 147.560, 225.310 142.406, 225.656 136.352 L 226.286 125.344 237.893 123.622 C 260.392 120.285, 263.362 119.747, 266.496 118.437 C 268.236 117.710, 270.121 116.527, 270.685 115.808 C 272.142 113.951, 272.966 110.074, 272.282 108.292 C 271.356 105.880, 265.998 104.050, 263.094 105.154 C 258.595 106.865, 221.020 113.084, 219.750 112.328 C 219.338 112.083, 219 110.515, 219 108.845 C 219 104.235, 216.087 100.119, 212.026 98.991 C 206.733 97.520, 205.198 97.768, 203.496 100.365 M 209.244 127.664 C 208.553 127.943, 208.271 128.630, 208.618 129.192 C 209.580 130.747, 209.208 138.928, 207.933 144.262 C 206.570 149.963, 207.251 152.866, 209.512 150.990 C 210.600 150.087, 211 147.628, 211 141.845 C 211 137.201, 211.598 132.504, 212.449 130.468 C 213.773 127.300, 213.751 127.007, 212.199 127.079 C 211.265 127.122, 209.935 127.386, 209.244 127.664 M 184 129.076 C 158.947 131.805, 154.904 132.346, 154.481 133.030 C 154.224 133.447, 154.710 135.456, 155.562 137.495 C 156.415 139.535, 157.375 144.937, 157.697 149.500 L 158.283 157.797 160.891 156.938 C 162.326 156.465, 170.025 155.348, 178 154.455 C 185.975 153.562, 192.587 152.745, 192.694 152.638 C 192.801 152.532, 193.377 148.407, 193.975 143.472 C 194.572 138.538, 195.323 133.037, 195.642 131.250 C 196.304 127.544, 196.953 127.666, 184 129.076 M 206.282 171.500 C 206.130 177.995, 208.364 179.266, 209.358 173.250 C 210.346 167.275, 210.143 166, 208.206 166 C 206.713 166, 206.389 166.925, 206.282 171.500 M 219.842 195.376 C 215.621 202.365, 214.665 208.814, 215.363 225.610 C 216.368 249.779, 217.565 256.225, 223.227 267.957 C 230.403 282.822, 245.193 288.809, 267.931 286.051 C 280.051 284.580, 282.257 283.672, 287.325 278.062 C 290.353 274.711, 290.997 273.246, 290.985 269.747 C 290.965 264.272, 290.114 263.055, 285.814 262.357 C 282.685 261.849, 281.849 262.231, 278.355 265.760 C 274.667 269.485, 273.862 269.813, 265.497 271 C 255.249 272.455, 245.579 271.261, 240.956 267.969 C 237.415 265.447, 233.492 257.238, 231.558 248.303 C 229.558 239.062, 229.525 239.328, 232.750 238.571 C 234.262 238.216, 238.918 236.570, 243.096 234.912 C 256.145 229.736, 262.204 220.822, 256.056 215.844 C 253.065 213.422, 251.814 213.516, 248.704 216.399 C 246.341 218.588, 232.395 224, 229.115 224 C 227.697 224, 227.761 221.228, 229.604 202.713 C 230.223 196.501, 230.084 195.718, 227.966 193.463 C 224.673 189.958, 222.856 190.386, 219.842 195.376 M 178.302 197.046 C 174.434 198.543, 172.747 203.607, 171.819 216.500 C 170.836 230.161, 169.726 239.041, 168.818 240.500 C 168.476 241.050, 168.524 248.250, 168.925 256.500 C 169.771 273.913, 170.976 277.530, 176.263 278.521 C 180.691 279.352, 184.149 277.850, 190.568 272.308 C 194.678 268.760, 196 266.953, 196 264.882 C 196 259.699, 189.527 256.920, 185.250 260.267 C 184.271 261.033, 184 259.364, 184 252.567 L 184 243.889 189.250 241.583 C 192.137 240.315, 196.603 238.516, 199.174 237.585 C 206.624 234.888, 212 230.513, 212 227.149 C 212 225.560, 211.100 223.496, 209.956 222.460 C 208.143 220.820, 207.436 220.748, 203.706 221.829 C 201.393 222.499, 197.250 223.680, 194.500 224.453 C 191.750 225.225, 188.805 226.127, 187.956 226.457 C 186.609 226.980, 186.418 225.309, 186.456 213.345 L 186.500 199.634 183.500 197.915 C 181.417 196.722, 179.828 196.456, 178.302 197.046 M 59.645 205.550 C 50.966 207.275, 45.994 209.849, 43.675 213.818 C 41.854 216.934, 41.856 216.947, 44.495 219.586 C 46.895 221.986, 47.665 222.183, 52.820 221.719 C 55.944 221.438, 61.650 220.477, 65.500 219.583 C 69.350 218.689, 74.429 217.573, 76.786 217.101 C 82.126 216.034, 85 213.520, 85 209.916 C 85 205.182, 82.783 203.989, 74.179 204.094 C 69.955 204.146, 63.415 204.801, 59.645 205.550 M 103 263 C 102.099 263.582, 101.975 263.975, 102.691 263.985 C 103.346 263.993, 104.160 263.550, 104.500 263 C 105.267 261.758, 104.921 261.758, 103 263" stroke="none" fill="black" fill-rule="evenodd"/>
</svg>