<svg xmlns="http://www.w3.org/2000/svg" width="300" height="300" viewBox="0 0 300 300" version="1.1">
	<path d="M 129 49.969 C 124.875 50.335, 118.350 51.367, 114.500 52.262 C 95.628 56.647, 84.310 59.035, 82.473 59.018 C 78.851 58.986, 76 61.812, 76 65.434 C 76 69.451, 77.686 71.014, 82.750 71.693 C 86.162 72.151, 86.709 72.628, 87.789 76.088 C 89.301 80.934, 89.316 85.901, 87.850 96.910 L 86.700 105.547 81.041 109.388 C 77.928 111.501, 74.283 114.837, 72.941 116.802 L 70.500 120.375 69.873 109.938 C 69.112 97.287, 69.329 98.472, 67.429 96.571 C 65.207 94.350, 61.286 94.597, 59.978 97.041 C 58.285 100.205, 57.287 232.310, 58.919 237.255 C 60.298 241.434, 63.419 242.917, 66.907 241.050 C 69.377 239.728, 69.370 239.771, 69.443 225 C 69.737 165.618, 70.246 123.719, 70.662 124.750 C 71.373 126.510, 75.501 126.306, 77.055 124.434 C 78.791 122.342, 84 119.698, 84 120.909 C 84 121.438, 83.508 123.137, 82.907 124.685 C 80.731 130.292, 78.047 141.584, 78.024 145.227 C 78.005 148.114, 78.564 149.323, 80.500 150.592 C 84.395 153.144, 87.190 150.721, 89.430 142.851 C 90.424 139.358, 92.309 133.123, 93.619 128.997 C 94.928 124.870, 96 120.080, 96 118.354 C 96 114.943, 96.845 114.352, 103.500 113.113 L 107.500 112.368 107.778 119.934 C 108.317 134.635, 112.179 144.433, 118.641 147.500 C 122.168 149.173, 122.444 149.148, 130.745 146.390 C 140.285 143.220, 142.274 141.091, 140.118 136.360 C 138.931 133.754, 138.812 133.727, 130.953 134.266 C 121.937 134.884, 122.990 135.913, 121.027 124.566 C 120.462 121.303, 120 116.465, 120 113.816 C 120 109.043, 120.029 109, 123.271 109 C 125.069 109, 131.459 107.440, 137.470 105.532 C 143.480 103.625, 148.606 102.273, 148.861 102.528 C 151.877 105.544, 152.712 226.621, 149.738 229.596 C 149.359 229.974, 148.215 229.252, 147.194 227.991 C 145.774 226.237, 144.729 225.851, 142.748 226.348 C 138.901 227.314, 138.437 231.277, 141.337 238.405 C 144.982 247.364, 150.269 249.337, 156.342 244.005 C 163.612 237.622, 164.874 229.195, 165.590 182.258 C 166.128 147.048, 166.003 142.901, 163.740 120.799 C 161.425 98.196, 161.184 96.930, 158.525 93.444 L 155.737 89.789 149.119 90.193 C 145.478 90.415, 140.925 91.310, 139 92.181 C 133.304 94.761, 122.526 97.761, 122.173 96.866 C 121.993 96.411, 122.556 92.606, 123.423 88.412 C 125.234 79.656, 125.469 70.746, 123.965 67.934 C 123.395 66.870, 121.890 66, 120.620 66 C 116.199 66, 112.017 73.345, 111.965 81.200 C 111.919 88.155, 109.550 99.037, 107.847 100.116 C 107.106 100.585, 105.825 100.982, 105 100.998 C 104.175 101.014, 102.500 101.295, 101.277 101.623 L 99.055 102.219 99.657 89.359 C 100.017 81.668, 99.848 75.031, 99.237 72.845 L 98.214 69.190 104.357 67.652 C 107.736 66.806, 113.425 65.651, 117 65.086 C 130.650 62.928, 142.487 59.742, 144.250 57.753 C 146.275 55.468, 146.532 51.932, 144.800 50.200 C 143.530 48.930, 141.081 48.895, 129 49.969 M 229.797 61.741 C 228.860 61.954, 227.818 63, 227.480 64.064 C 227.142 65.129, 226.413 66, 225.861 66 C 222.353 66, 219.313 74.411, 217.188 89.993 L 215.500 102.375 212 103.223 C 210.075 103.689, 207.600 104.475, 206.500 104.970 C 203.267 106.426, 194.764 110, 194.535 110 C 194.419 110, 194.941 105.838, 195.696 100.750 C 196.450 95.662, 196.939 87.675, 196.783 83 C 196.508 74.735, 196.430 74.492, 193.967 74.205 C 189.203 73.649, 187.170 77.356, 185.541 89.565 C 184.739 95.579, 183.540 103.945, 182.877 108.156 L 181.671 115.812 176.585 118.105 C 170.159 121.002, 167 123.760, 167 126.474 C 167 129.841, 168.998 131, 174.801 131 L 180.201 131 179.604 135.750 C 179.276 138.363, 178.732 152.875, 178.396 168 C 177.825 193.658, 177.924 196.087, 179.875 204.256 C 182.707 216.118, 185.028 220.276, 193.466 228.604 C 199.554 234.614, 201.729 236.070, 207.582 238.057 C 213.953 240.221, 216.448 240.435, 239.121 240.766 L 263.741 241.125 271.838 238.002 C 278.261 235.525, 281.182 233.671, 285.967 229.032 C 292.510 222.689, 293.404 219.925, 290.133 216.153 C 287.524 213.146, 286.166 213.419, 280.511 218.092 C 273.573 223.826, 269.658 225.560, 260.709 226.864 C 250.699 228.324, 226.574 228.327, 218.082 226.871 C 207.058 224.981, 199.781 220.321, 195.818 212.612 C 190.884 203.017, 188.497 184.978, 189.386 164 C 189.964 150.331, 192.467 125.200, 193.336 124.331 C 193.554 124.112, 197.731 122.353, 202.617 120.421 C 207.502 118.489, 212.311 116.460, 213.303 115.913 C 214.915 115.022, 215.048 115.265, 214.559 118.208 C 213.379 125.313, 211.922 146.178, 212.483 147.945 C 213.308 150.545, 215.730 151.241, 218.790 149.757 C 221.643 148.373, 223.904 141.792, 224.032 134.500 C 224.070 132.300, 224.866 126.252, 225.801 121.060 L 227.500 111.619 232.500 110.459 C 239.883 108.747, 249.381 107, 251.310 107 C 253.648 107, 253.519 111.523, 250.918 120.792 C 248.518 129.346, 248.939 132.696, 252.528 133.596 C 256.962 134.709, 259.598 130.658, 263.969 116.007 C 266.920 106.118, 266.381 100.623, 262.083 96.782 C 259.437 94.418, 258.107 94.003, 253.234 94.017 C 250.080 94.027, 244.125 94.919, 240 96 C 235.875 97.081, 231.542 97.973, 230.372 97.983 C 228.275 98, 228.264 97.900, 229.614 91.250 C 230.368 87.537, 231.411 82.158, 231.932 79.296 C 232.454 76.434, 233.357 73.201, 233.940 72.112 C 236.529 67.275, 233.941 60.797, 229.797 61.741 M 108 185.094 C 102.775 186.114, 96.925 187.187, 95 187.478 C 90.577 188.147, 85 193.221, 85 196.575 C 85 200.346, 88.745 201.324, 97.925 199.949 C 102.091 199.326, 107.975 198.140, 111 197.315 C 114.025 196.490, 119.093 195.125, 122.263 194.281 C 129.229 192.427, 130.773 189.516, 126.948 185.445 C 124.187 182.506, 121.509 182.456, 108 185.094 M 116.500 234.734 C 114.850 234.973, 111.025 235.859, 108 236.702 C 104.975 237.545, 99.800 238.837, 96.500 239.573 C 93.200 240.309, 88.531 241.607, 86.124 242.456 C 83.718 243.305, 80.470 244, 78.908 244 C 76.051 244, 69.462 246.599, 67.382 248.547 C 65.094 250.688, 64.951 253.570, 67.022 255.793 C 69.704 258.672, 72.698 259.328, 77.533 258.099 C 79.715 257.544, 83.975 256.461, 87 255.692 C 90.025 254.923, 95.425 253.353, 99 252.203 C 107.598 249.437, 118.743 246.281, 122.615 245.516 C 126.510 244.746, 130 241.582, 130 238.821 C 130 234.695, 125.719 233.399, 116.500 234.734" stroke="none" fill="black" fill-rule="evenodd"/>
</svg>