<svg xmlns="http://www.w3.org/2000/svg" width="300" height="300" viewBox="0 0 300 300" version="1.1">
	<path d="M 204.238 19.768 C 202.205 20.104, 197 26.230, 197 28.285 C 197 28.980, 187.994 45.323, 185.035 50 C 184.513 50.825, 182.866 53.525, 181.374 56 C 177.800 61.932, 169.222 73.491, 164.676 78.500 C 162.680 80.700, 161.036 83.497, 161.023 84.715 C 160.996 87.349, 164.260 89.370, 167.092 88.471 C 169.770 87.621, 185.903 71.237, 190.143 65.060 C 193.596 60.031, 195.302 59.107, 205 57.018 C 207.475 56.485, 210.985 56.038, 212.800 56.024 C 214.614 56.011, 217.427 55.313, 219.050 54.474 C 220.672 53.635, 222 53.143, 222 53.381 C 222 54.644, 207.789 84.531, 204.671 89.826 C 203.594 91.656, 202.440 92.759, 202.106 92.278 C 201.773 91.797, 199.395 90.188, 196.822 88.702 C 191.531 85.646, 187.051 85.265, 183.530 87.572 C 182.210 88.437, 179.189 90.125, 176.815 91.322 C 174.037 92.724, 172.390 94.271, 172.192 95.664 C 171.785 98.516, 174.662 99.398, 181.564 98.535 C 185.753 98.012, 187.867 98.290, 191.327 99.820 C 193.755 100.894, 195.998 102.188, 196.311 102.695 C 197.040 103.874, 188.876 116.310, 180.698 126.476 C 174.698 133.936, 166.162 142.494, 160.228 146.999 C 152.202 153.093, 150.454 155.506, 151.848 158.566 C 153.183 161.495, 157.032 162.588, 160.144 160.923 C 163.419 159.170, 177.476 147.699, 183.813 141.607 C 186.735 138.798, 191.685 133.125, 194.813 129 C 197.941 124.875, 200.741 121.275, 201.035 121 C 201.329 120.725, 203.354 117.470, 205.535 113.767 C 207.716 110.065, 210.077 107.027, 210.781 107.017 C 212.122 106.999, 213.205 104.984, 213.391 102.162 C 213.451 101.248, 218.007 91.500, 223.516 80.500 C 235.897 55.780, 237 53.085, 237 47.566 C 237 39.307, 229.832 36.840, 218.225 41.103 C 215.076 42.259, 211.375 43.454, 210 43.757 C 208.625 44.061, 206.502 44.957, 205.282 45.748 C 201.064 48.486, 201.144 46.468, 205.563 38.651 C 209.129 32.343, 210 29.847, 210 25.936 C 210 20.654, 208.512 19.061, 204.238 19.768 M 85.231 43.250 C 84.673 43.938, 83.682 47.200, 83.028 50.500 C 79.745 67.071, 67.113 98.524, 57.737 113.472 C 57.057 114.557, 54.830 118.157, 52.789 121.472 C 47.941 129.347, 39.392 141.561, 35.549 146.104 C 33.872 148.086, 31.184 151.348, 29.576 153.354 C 27.968 155.359, 26.088 157, 25.399 157 C 23.397 157, 20 162.020, 20 164.980 C 20 168.783, 23.172 171.425, 26.683 170.544 C 32.384 169.113, 49.239 148.265, 64.736 123.477 C 69.228 116.290, 80.401 93.375, 83.983 84 C 85.962 78.822, 86.325 78.669, 91.630 80.771 C 103.957 85.655, 115.646 88.774, 128.620 90.639 C 132.997 91.268, 133.359 91.026, 134.367 86.805 C 135.378 82.573, 130.133 79.258, 117.202 75.956 C 111.316 74.453, 104.475 72.309, 102 71.191 C 99.525 70.073, 95.813 68.847, 93.750 68.468 C 91.688 68.088, 90 67.684, 90 67.570 C 90 67.456, 90.631 65.144, 91.402 62.432 C 93.672 54.443, 94.109 50.418, 93.018 47.548 C 91.103 42.512, 87.461 40.501, 85.231 43.250 M 103 107.189 C 99.425 108.333, 94.250 110.089, 91.500 111.092 C 88.750 112.095, 84.925 113.195, 83 113.535 C 77.865 114.443, 70.547 118.243, 70.189 120.189 C 70.017 121.117, 70.805 122.805, 71.939 123.939 C 74.764 126.764, 85.770 126.801, 93.704 124.013 C 96.814 122.920, 99.486 122.153, 99.642 122.308 C 99.797 122.464, 99.329 123.739, 98.601 125.142 C 97.170 127.902, 95.517 136.426, 94.280 147.436 C 93.578 153.679, 93.250 154.442, 91 155.072 C 84.533 156.881, 66.745 166.901, 63.849 170.367 C 61.528 173.144, 61.561 174.561, 64 177 C 67.607 180.607, 74.443 179.118, 84.500 172.536 C 87.250 170.736, 90.557 168.935, 91.849 168.533 L 94.199 167.802 93.793 189.651 C 93.433 209.051, 93.142 212.169, 91.194 217.465 C 88.308 225.313, 88.371 227.756, 91.500 229.182 C 95.994 231.230, 99.856 228.022, 109.172 214.500 C 113.522 208.187, 119.988 194.374, 122.513 186 C 122.927 184.625, 124.349 181.250, 125.672 178.500 C 128.346 172.942, 128.105 169.662, 124.897 167.945 C 123.350 167.117, 122.068 167.143, 119.883 168.048 C 115.095 170.032, 113.199 173.656, 107.880 191 L 106.500 195.500 106.179 187 C 106.003 182.325, 106.156 174.778, 106.521 170.228 C 107.160 162.252, 107.294 161.899, 110.294 160.348 C 114.737 158.051, 122.813 149.594, 123.615 146.400 C 125.266 139.818, 119.204 138.027, 113.622 143.447 C 108.385 148.533, 106.999 148.177, 107.006 141.750 C 107.015 133, 108.742 124.903, 111.144 122.347 C 112.352 121.060, 113.032 119.699, 112.654 119.321 C 111.777 118.443, 117.521 116, 120.460 116 C 123.371 116, 126.351 112.683, 125.591 110.288 C 123.902 104.966, 114.138 103.626, 103 107.189 M 219.802 111.750 C 217.821 113.813, 214.351 119.100, 212.093 123.500 C 207.530 132.392, 207.391 132.631, 201.078 142.500 C 196.250 150.048, 182.408 168.584, 178.399 172.869 C 177.045 174.316, 175.676 176.518, 175.357 177.763 C 174.197 182.285, 179.422 184.738, 183.108 181.403 C 184.760 179.907, 184.912 180.050, 185.483 183.653 C 185.818 185.769, 186.860 189.058, 187.796 190.962 C 190.012 195.464, 200.186 206.344, 205.778 210.191 C 209.572 212.802, 210.077 213.558, 209.516 215.794 C 209.159 217.215, 207.997 219.600, 206.934 221.093 C 205.870 222.587, 205 224.121, 205 224.503 C 205 226.407, 187.483 254.665, 181.149 262.977 C 177.571 267.673, 169.341 275.912, 164.743 279.398 C 161.785 281.642, 160.333 282.117, 157.912 281.632 C 153.659 280.782, 151 282.429, 151 285.913 C 151 287.476, 151.608 289.260, 152.351 289.876 C 154.500 291.660, 162.161 292.308, 166.510 291.074 C 174.148 288.907, 189.921 273.729, 199.380 259.443 C 205.688 249.916, 214.192 235.568, 217.700 228.535 C 219.630 224.666, 222.540 220.433, 224.167 219.129 C 226.287 217.429, 227.057 216.012, 226.886 214.129 C 226.681 211.882, 229.487 204.836, 234.503 195 C 235.876 192.307, 242.233 176.705, 246.420 165.750 C 247.839 162.037, 250.218 155.963, 251.706 152.250 C 253.291 148.296, 254.430 143.497, 254.456 140.663 C 254.494 136.529, 254.076 135.462, 251.575 133.311 C 247.631 129.918, 244.552 130.528, 231.185 137.345 C 225.308 140.342, 218.775 143.508, 216.668 144.380 L 212.835 145.967 214.837 142.733 C 221.401 132.128, 229.273 117.090, 229.728 114.286 C 230.858 107.327, 225.394 105.931, 219.802 111.750 M 229.120 151.772 C 221.993 155.282, 218.289 156.496, 213.700 156.828 C 207.721 157.261, 207.580 157.342, 199.641 164.989 L 191.621 172.713 194.776 177.606 C 200.461 186.425, 203.412 190.075, 209.873 196.281 L 216.246 202.402 219.900 194.951 C 221.910 190.853, 224.165 185.925, 224.910 184 C 225.655 182.075, 227.616 177.350, 229.267 173.500 C 230.918 169.650, 232.847 165.150, 233.553 163.500 C 234.259 161.850, 235.716 158.250, 236.790 155.500 C 237.865 152.750, 239.075 149.713, 239.479 148.750 C 240.500 146.318, 239.749 146.537, 229.120 151.772 M 57.557 192.223 C 55.173 195.625, 55.636 197.238, 60.250 201.614 C 66.096 207.157, 71.975 209.517, 79.715 209.427 C 84.870 209.368, 86.442 208.934, 88.497 207.003 C 91.490 204.191, 91.601 202.999, 89.133 200.153 C 87.702 198.503, 86.124 197.997, 82.383 197.985 C 79.697 197.977, 76.550 197.415, 75.389 196.735 C 62.972 189.470, 60.010 188.720, 57.557 192.223 M 132.845 211.638 C 126.262 217.151, 121.586 219.874, 109 225.523 C 96.425 231.167, 85.836 234.751, 73.500 237.537 C 63.966 239.691, 61.413 240.861, 57.682 244.786 C 55.424 247.162, 54.928 248.501, 55.182 251.524 C 55.660 257.199, 57.770 257.948, 64.178 254.715 C 67.105 253.239, 72.650 251.303, 76.500 250.414 C 99.497 245.102, 114.235 238.780, 131.842 226.672 C 142.300 219.480, 146.138 213.281, 142.429 209.571 C 140.007 207.150, 137.580 207.673, 132.845 211.638" stroke="none" fill="black" fill-rule="evenodd"/>
</svg>