<svg xmlns="http://www.w3.org/2000/svg" width="300" height="300" viewBox="0 0 300 300" version="1.1">
	<path d="M 68.635 26.073 C 65.469 28.563, 65.297 30.394, 68.049 32.322 C 70.363 33.943, 70.218 35.479, 66.809 45.500 C 63.318 55.759, 56.582 70.001, 46.042 89.406 C 42.035 96.785, 30.944 114.066, 28.560 116.647 C 27.977 117.278, 25.925 119.815, 24 122.285 C 20.948 126.200, 20.114 126.714, 17.488 126.295 C 13.716 125.694, 11.886 127.654, 9.649 134.688 C 6.548 144.441, 7.818 148, 14.397 148 C 18.595 148, 18.986 147.711, 27.612 138.250 C 32.500 132.887, 38.273 125.800, 40.439 122.500 C 42.605 119.200, 45.347 115.375, 46.531 114 C 53.939 105.396, 79 52.263, 79 45.158 C 79 40.267, 80.300 39.789, 81.767 44.141 C 83.810 50.197, 87.381 54.388, 100.142 65.703 C 117.168 80.802, 121.150 83.862, 125.859 85.467 C 135.277 88.677, 137.770 81.833, 129.644 75.079 C 127.937 73.660, 123.832 69.854, 120.520 66.620 C 117.209 63.386, 110.900 57.664, 106.500 53.905 C 102.100 50.145, 96.527 45.366, 94.117 43.285 C 91.706 41.203, 89.044 38.057, 88.202 36.294 C 86.412 32.544, 84.604 31.606, 81.928 33.039 C 80.256 33.934, 80 33.728, 80 31.490 C 80 28.469, 75.931 24, 73.180 24 C 72.129 24, 70.084 24.933, 68.635 26.073 M 230 60.449 C 216.864 63.234, 182.302 75.584, 175.750 79.833 C 169.884 83.638, 171.165 88, 178.148 88 C 181.692 88, 197.348 83.635, 199.500 82.047 C 201.136 80.840, 225.879 73.347, 234.298 71.509 C 246.881 68.762, 248.458 69.932, 251.332 84.147 C 254.801 101.306, 257.189 174.918, 255.114 200.745 C 253.895 215.928, 250.945 226.850, 247.350 229.494 C 245.677 230.724, 245.439 230.568, 244.865 227.871 C 244.124 224.392, 241.151 221.774, 239 222.707 C 238.175 223.065, 231.616 223.545, 224.424 223.773 L 211.349 224.188 211.798 215.344 C 212.045 210.480, 212.979 194.603, 213.874 180.063 L 215.500 153.625 219 152.757 C 234.312 148.957, 238.525 147.478, 241.514 144.854 C 245.671 141.204, 246.422 138.422, 243.926 135.926 C 241.773 133.773, 239.918 133.482, 238.348 135.052 C 237.770 135.630, 232.669 136.935, 227.012 137.951 L 216.728 139.798 217.368 115.649 C 217.721 102.367, 217.653 89.925, 217.218 88 C 215.867 82.027, 210.775 82.946, 207.092 89.828 C 205.617 92.583, 204.096 109.023, 203.976 123.500 C 203.840 139.924, 203.294 142.024, 198.754 143.596 C 194.171 145.182, 178.196 147.999, 173.750 148.004 C 171.962 148.006, 168.987 148.930, 167.137 150.058 C 165.288 151.185, 163.618 151.951, 163.426 151.760 C 163.235 151.568, 162.791 136.807, 162.440 118.956 C 162.090 101.105, 161.373 84.789, 160.849 82.698 C 159.637 77.869, 156.420 76.304, 153.500 79.125 C 151.531 81.028, 151.505 82.169, 151.797 153.779 C 151.960 193.775, 152.075 228.570, 152.053 231.101 C 152.024 234.465, 152.550 236.187, 154.011 237.510 C 156.123 239.421, 162.074 239.387, 217.500 237.147 C 233.242 236.510, 233.532 236.536, 235.500 238.758 C 237.966 241.542, 244.922 242.637, 250.536 241.125 C 261.310 238.224, 266.456 226.040, 268.116 199.500 C 269.730 173.716, 267.231 112.245, 263.485 85.558 C 261.819 73.691, 258.203 65.174, 253.308 61.590 C 249.924 59.112, 238.862 58.570, 230 60.449 M 99 87.718 C 92.554 89.017, 79.655 92.743, 71 95.806 C 65.763 97.660, 63 100.358, 63 103.618 C 63 108.526, 70.202 109.340, 79.925 105.530 C 83.392 104.171, 88.641 102.613, 91.589 102.068 C 102.800 99.996, 110 95.448, 110 90.438 C 110 87.091, 106.459 86.215, 99 87.718 M 92.238 108.546 C 90.967 109.436, 89.400 113.005, 87.910 118.406 L 85.575 126.870 81.344 127.935 C 79.018 128.521, 76.159 129, 74.992 129 C 71.501 129, 58.283 135.603, 57.009 137.983 C 56.103 139.676, 56.111 140.854, 57.043 143.103 C 58.758 147.243, 61.868 147.661, 69.247 144.740 C 72.686 143.379, 77.188 141.960, 79.250 141.587 L 83 140.909 82.991 161.705 L 82.982 182.500 75.880 182.770 C 69.730 183.004, 67.921 182.635, 62.389 180.021 C 58.875 178.361, 56 176.600, 56 176.108 C 56 174.343, 52.673 173.984, 50.359 175.500 C 45.343 178.787, 49.121 187.322, 57.446 191.511 C 63.748 194.682, 73.162 194.935, 79.048 192.091 L 83 190.181 82.988 194.841 C 82.972 201.025, 80.863 208.661, 77.823 213.538 C 74.374 219.072, 73.853 220.857, 75.039 223.072 C 76.893 226.536, 81.703 225.577, 85.988 220.890 C 88.332 218.326, 90.004 217.197, 90.432 217.890 C 90.809 218.500, 92.384 219, 93.932 219 C 96.193 219, 98.694 216.978, 106.656 208.712 C 119.278 195.607, 122.405 189.719, 122.434 179 C 122.461 168.754, 118.621 161.209, 114.167 162.758 C 111.894 163.549, 108.875 172.165, 108.300 179.500 C 107.659 187.676, 105.089 193.510, 98.349 202.089 C 95.795 205.340, 93.612 208, 93.499 208 C 93.386 208, 93.901 205.656, 94.644 202.791 C 95.544 199.322, 96.217 187.463, 96.659 167.291 C 97.228 141.317, 97.536 137, 98.823 137 C 99.649 137, 102.276 135.856, 104.662 134.458 C 108.404 132.265, 109 131.458, 109 128.580 C 109 123.233, 105.911 121.900, 99.613 124.531 C 97.858 125.264, 97.761 124.904, 98.220 119.410 C 99.006 110.003, 96.543 105.531, 92.238 108.546 M 194.569 158.532 C 190.732 159.585, 169.384 162, 163.913 162 C 163.294 162, 162.980 173.727, 163.057 193.987 L 163.179 225.974 175.339 225.444 C 195.485 224.568, 197.711 224.205, 198.385 221.691 C 198.708 220.486, 198.988 215.450, 199.007 210.500 C 199.027 205.550, 199.701 192.050, 200.506 180.500 C 201.311 168.950, 201.976 158.938, 201.985 158.250 C 202.003 156.739, 200.959 156.778, 194.569 158.532 M 119 216.979 C 114.325 218.517, 106.104 221.164, 100.732 222.861 C 88.553 226.707, 59.634 239.294, 55.165 242.694 C 51.266 245.661, 48.009 250.618, 48.004 253.595 C 47.996 258.157, 55.205 260.867, 58.093 257.388 C 58.829 256.501, 61.921 254.534, 64.965 253.016 C 68.009 251.498, 71.850 249.560, 73.500 248.710 C 77.913 246.436, 102.341 236.359, 109 234.067 C 128.344 227.406, 134 224.103, 134 219.468 C 134 217.042, 131.082 213.953, 128.921 214.091 C 128.140 214.141, 123.675 215.441, 119 216.979" stroke="none" fill="black" fill-rule="evenodd"/>
</svg>