<svg xmlns="http://www.w3.org/2000/svg" width="300" height="300" viewBox="0 0 300 300" version="1.1">
	<path d="M 212.471 15.641 C 210.421 16.665, 208.342 19.276, 206.035 23.725 C 202.694 30.169, 196.450 39.073, 191.838 43.970 C 190.558 45.329, 188.443 48.029, 187.137 49.970 C 185.831 51.912, 184.130 54.175, 183.356 55 C 177.666 61.065, 165 81.333, 165 84.373 C 165 87.360, 167.403 90, 170.121 90 C 174.084 90, 178.046 86.821, 184.146 78.746 C 187.572 74.211, 193.052 67.237, 196.322 63.250 C 202.142 56.155, 202.368 56, 206.888 56 C 209.428 56, 214.654 55.100, 218.500 54 C 226.126 51.819, 227.028 51.659, 225.456 52.765 C 224.881 53.169, 217.681 63.608, 209.456 75.963 C 201.230 88.317, 194.233 98.805, 193.907 99.268 C 193.581 99.731, 191.174 98.973, 188.558 97.582 C 181.255 93.699, 177.831 93.385, 172.899 96.148 C 167.099 99.397, 165.550 101.912, 167.570 104.796 C 168.617 106.291, 170.148 107, 172.329 107 C 175.876 107, 183 112.084, 183 114.616 C 183 115.424, 181.088 118.605, 178.750 121.684 C 176.412 124.763, 173.624 128.456, 172.553 129.891 C 164.024 141.323, 153.049 153.058, 146 158.284 C 139.354 163.210, 139.035 163.641, 139.015 167.715 C 138.985 174.048, 144.957 174.460, 154.838 168.806 C 162.300 164.537, 180.214 147.630, 189.068 136.500 C 193.006 131.550, 196.566 127.133, 196.980 126.685 C 197.393 126.236, 202.179 128.763, 207.615 132.301 C 217.854 138.964, 238.946 150.943, 252 157.510 C 268.344 165.733, 281.008 168.142, 286.242 164.024 C 289.647 161.346, 290.131 158.744, 287.905 155.084 C 286.315 152.470, 285.477 152.034, 282.269 152.157 C 277.631 152.334, 275.284 151.623, 267 147.528 C 255.691 141.939, 235.520 131.520, 235 131 C 234.725 130.725, 232.925 129.694, 231 128.709 C 225.728 126.011, 223.777 124.788, 219.451 121.466 C 217.278 119.798, 213.588 117.149, 211.250 115.580 C 208.912 114.012, 207 112.395, 207 111.989 C 207 110.711, 223.070 84.556, 224.571 83.390 C 225.357 82.779, 226 81.802, 226 81.219 C 226 80.103, 233.992 66.893, 239.661 58.638 C 244.276 51.918, 244.362 45.621, 239.909 40.549 C 234.719 34.638, 227.364 33.782, 218.838 38.098 L 215.175 39.951 218.588 34.284 C 223.321 26.424, 223.614 20.004, 219.409 16.250 C 216.492 13.646, 216.469 13.644, 212.471 15.641 M 92.872 18.750 C 91.992 20.813, 90.952 24.300, 90.560 26.500 C 89.466 32.646, 79.904 54.216, 70.611 71.500 C 56.254 98.203, 32.686 127.123, 18.691 135.212 C 14.795 137.463, 14 138.417, 14 140.839 C 14 147.057, 21.443 148.229, 31.564 143.605 C 36.150 141.509, 40.002 138.344, 48.500 129.687 C 57.600 120.417, 70 104.807, 70 102.621 C 70 102.317, 72.422 98.341, 75.383 93.784 C 78.343 89.228, 83.794 79.425, 87.496 72 C 91.198 64.575, 94.353 58.360, 94.507 58.189 C 94.662 58.019, 95.860 58.919, 97.170 60.189 C 100.802 63.713, 117.575 77.971, 123.668 82.714 C 131.570 88.866, 140.069 90.791, 143.345 87.171 C 145.078 85.256, 145.484 82.207, 144.235 80.491 C 143.831 79.935, 141.484 78.173, 139.020 76.574 C 136.556 74.975, 130.256 69.409, 125.020 64.203 C 119.784 58.998, 112.350 52.717, 108.500 50.245 C 104.650 47.773, 101.388 45.658, 101.252 45.544 C 101.116 45.431, 102.128 42.033, 103.502 37.994 C 104.876 33.954, 106 28.804, 106 26.547 C 106 20.322, 101.873 15, 97.045 15 C 95.023 15, 94.129 15.803, 92.872 18.750 M 107.500 101.023 C 104.750 101.512, 95.300 103.987, 86.500 106.522 C 68.072 111.831, 63.697 114.409, 63.195 120.256 C 62.544 127.851, 69.700 128.839, 87.102 123.556 C 93.341 121.662, 98.663 120.330, 98.929 120.596 C 99.195 120.861, 98.679 122.524, 97.783 124.289 C 95.468 128.852, 93.179 136.663, 92.437 142.531 L 91.800 147.562 78.650 150.855 C 71.418 152.666, 64.719 154.564, 63.764 155.074 C 62.809 155.583, 60.093 156, 57.729 156 C 54.046 156, 53.186 156.415, 51.716 158.904 C 44.988 170.294, 57.495 173.701, 79.896 166.582 C 86.164 164.589, 91.511 163.177, 91.777 163.444 C 92.043 163.710, 91.824 180.257, 91.289 200.214 C 90.570 227.085, 89.965 237.237, 88.957 239.341 C 87.974 241.394, 85.499 243.161, 80.048 245.702 C 75.897 247.638, 70.025 250.474, 67 252.005 C 63.975 253.535, 59.025 255.835, 56 257.114 C 46.802 261.005, 45.047 265.623, 50.780 270.857 C 53.008 272.892, 54.123 273.154, 58.930 272.771 C 63.601 272.399, 68.723 270.227, 90.673 259.307 C 117.824 245.799, 125.858 240.834, 134.750 232.066 C 138.723 228.149, 140 226.173, 140 223.945 C 140 220.764, 136.975 217, 134.418 217 C 133.101 217, 124.689 222.993, 123 225.134 C 122.293 226.031, 109.474 233.276, 106.923 234.220 C 105.566 234.723, 105.453 234.158, 106.114 230.152 C 106.536 227.593, 106.943 223.250, 107.019 220.500 C 107.096 217.750, 107.415 216.175, 107.729 217 C 108.571 219.211, 110.109 219.968, 113.798 219.985 C 122.169 220.024, 129.994 202.167, 131.540 179.498 C 132.220 169.526, 132.214 169.487, 129.475 166.748 C 126.419 163.691, 125.271 163.464, 121.522 165.172 C 116.173 167.609, 114.613 172.138, 114.012 186.974 C 113.498 199.653, 113.262 200.907, 110.239 207 L 107.013 213.500 107.485 204 C 107.744 198.775, 108.246 186.512, 108.600 176.750 C 109.160 161.282, 109.453 159, 110.872 158.996 C 113.265 158.991, 118.702 155.426, 119.992 153.016 C 122.529 148.274, 117.332 143.414, 112.493 146.004 C 111.123 146.737, 109.750 147.083, 109.440 146.773 C 107.876 145.210, 107.882 134.341, 109.452 125.624 L 111.168 116.093 116.488 114.547 C 119.414 113.696, 122.240 113, 122.769 113 C 123.298 113, 124.916 112.067, 126.365 110.927 C 129.399 108.541, 129.831 104.689, 127.345 102.203 C 125.391 100.248, 115.250 99.646, 107.500 101.023 M 192.903 175.992 C 190.375 176.431, 186.891 177.522, 185.162 178.416 C 183.303 179.377, 181.012 179.790, 179.559 179.425 C 177.711 178.962, 176.431 179.478, 174.405 181.504 L 171.709 184.200 172.424 214.367 C 173.124 243.956, 173.098 244.581, 171.069 246.920 C 167.972 250.491, 168.460 253.595, 172.750 257.620 C 179.478 263.931, 181.620 264.108, 213.076 260.949 C 239.147 258.331, 246.227 256.763, 250.601 252.639 C 255.191 248.311, 255.774 245.127, 252.604 241.707 C 249.780 238.660, 246.504 238.234, 243.914 240.578 C 242.608 241.759, 243.150 239.313, 246.073 230.828 C 248.219 224.597, 249.981 218.289, 249.988 216.809 C 249.994 215.329, 250.450 213.840, 251 213.500 C 252.204 212.756, 252.356 193.807, 251.169 192.450 C 250.711 191.928, 249.806 189.700, 249.157 187.500 C 247.873 183.150, 244.558 178.860, 241.459 177.539 C 240.382 177.080, 231.769 176.590, 222.319 176.451 C 212.870 176.313, 203.420 175.973, 201.319 175.696 C 199.219 175.419, 195.431 175.553, 192.903 175.992 M 51.077 186.589 C 47.429 189.659, 46.869 194.667, 49.872 197.384 C 52.318 199.598, 70.638 205.983, 74.500 205.968 C 78.732 205.951, 85.540 202.632, 87.510 199.624 C 89.478 196.622, 88.760 191.506, 86.236 190.537 C 85.333 190.190, 82.269 190.197, 79.428 190.552 C 74.774 191.134, 73.589 190.841, 67.480 187.599 C 59.324 183.271, 55.314 183.024, 51.077 186.589 M 188.294 218.976 L 188.500 246.169 192 245.650 C 193.925 245.364, 202.475 244.578, 211 243.904 C 219.525 243.230, 226.647 242.566, 226.828 242.429 C 227.008 242.291, 228.474 237.076, 230.086 230.839 C 233.682 216.925, 235.471 203.628, 234.563 197.571 L 233.880 193.017 224.190 193.192 C 218.861 193.288, 208.557 193.010, 201.294 192.574 L 188.088 191.782 188.294 218.976" stroke="none" fill="black" fill-rule="evenodd"/>
</svg>