<svg xmlns="http://www.w3.org/2000/svg" width="300" height="300" viewBox="0 0 300 300" version="1.1">
	<path d="M 109.261 12.974 C 104.770 17.465, 103 23.578, 103 34.595 L 103 40.856 97.250 41.483 C 74.761 43.936, 61.680 51.875, 69.085 58.577 C 71.997 61.212, 80.137 60.866, 92.470 57.584 C 97.877 56.145, 102.554 55.221, 102.864 55.531 C 103.174 55.840, 103.609 63.264, 103.832 72.029 L 104.238 87.964 94.869 92.289 C 89.716 94.668, 81.450 97.939, 76.500 99.557 C 67.030 102.654, 62.801 105.671, 61.682 110.132 C 60.859 113.412, 64.150 118, 67.327 118 C 70.721 118, 88.730 111.184, 98.896 106.052 L 104.796 103.074 105.148 115.464 C 105.342 122.279, 105.347 130.094, 105.160 132.832 C 104.828 137.695, 104.759 137.791, 102.160 137.044 C 100.697 136.623, 97.925 135.318, 96 134.143 C 91.706 131.523, 88.829 131.426, 86.655 133.829 C 83.665 137.133, 84.634 139.678, 90.750 144.577 C 100.928 152.730, 107.373 154.665, 113.095 151.285 C 119.332 147.601, 120.476 138.784, 118.730 107.857 L 117.960 94.214 122.605 91.492 C 133.694 84.993, 137.642 78.701, 133.171 74.655 C 130.471 72.211, 128.054 72.609, 122.374 76.434 L 117.274 79.869 116.560 65.811 C 116.168 58.079, 116.219 51.443, 116.673 51.065 C 117.128 50.686, 121.887 48.675, 127.249 46.597 C 140.114 41.610, 143.915 36.915, 139.037 32.037 C 137.176 30.176, 136.823 30.154, 132.287 31.608 C 129.654 32.453, 125.700 33.578, 123.500 34.109 C 121.300 34.640, 118.713 35.313, 117.750 35.605 C 116.181 36.080, 116 35.275, 116.004 27.817 C 116.007 21.491, 116.450 18.774, 117.856 16.468 C 119.147 14.351, 119.458 12.766, 118.885 11.218 C 117.592 7.724, 113.824 8.411, 109.261 12.974 M 207 11.864 C 188.056 17.249, 171.589 24.229, 157.997 32.636 C 148.812 38.316, 145.685 42.062, 147.072 45.720 C 147.937 48.004, 152.066 49.695, 153.943 48.535 C 154.532 48.171, 155.026 48.684, 155.058 49.691 C 155.355 58.863, 154.784 75.847, 153.821 86.500 C 152.752 98.324, 152.378 99.881, 149.682 103.710 C 146.824 107.769, 146.778 108.012, 148.382 110.460 C 151.852 115.755, 160.634 112.291, 164.149 104.241 C 166.369 99.154, 168.981 84.414, 168.993 76.905 C 169.001 71.427, 170.509 69.755, 178.007 66.905 C 183.330 64.883, 203.850 61.516, 204.837 62.504 C 205.135 62.802, 204.376 66.161, 203.149 69.969 C 200.961 76.763, 200.942 77.253, 202.145 96.389 C 203.028 110.445, 203.071 116.863, 202.298 119.382 C 199.668 127.951, 209.489 130.132, 214.087 122 C 215.188 120.051, 215.525 114.097, 215.615 95 C 215.678 81.525, 216.054 68.447, 216.450 65.939 L 217.171 61.377 224.180 59.732 C 232.187 57.853, 234 56.695, 234 53.459 C 234 46.842, 231.264 45.755, 217.759 47.009 C 212.117 47.533, 201.875 48.464, 195 49.078 C 182.439 50.199, 177.459 51.849, 171.771 56.775 C 170.326 58.026, 169.971 58.044, 169.612 56.886 C 169.157 55.423, 167.185 47.881, 166.373 44.500 C 165.994 42.925, 166.913 41.959, 170.696 39.955 C 175.798 37.253, 195.252 30.754, 211 26.492 C 216.225 25.078, 221.625 23.593, 223 23.192 C 225.056 22.592, 225.553 21.747, 225.798 18.430 C 226.357 10.862, 219.253 8.381, 207 11.864 M 153.934 120.820 C 153.072 121.194, 150.326 123.188, 147.831 125.250 C 144.798 127.757, 142.291 129, 140.269 129 C 136.323 129, 134.583 131.165, 135.369 135.097 C 135.917 137.837, 135.267 139.030, 129.648 145.589 C 120.355 156.437, 97.687 175.164, 85.500 182.063 C 83.300 183.308, 78.800 185.941, 75.500 187.914 C 71.501 190.304, 68.207 191.521, 65.623 191.564 C 61.328 191.634, 59 193.804, 59 197.737 C 59 200.986, 63.267 205.002, 66.705 204.989 C 71.234 204.972, 78.900 202.254, 84.386 198.720 C 87.199 196.908, 90.625 194.861, 92 194.171 C 95.784 192.271, 119.735 174.622, 126.140 169.014 C 129.243 166.298, 135.722 159.120, 140.539 153.063 L 149.298 142.052 153.899 144.510 C 172.777 154.596, 186.433 159.599, 211.500 165.616 C 231.930 170.520, 242 169.288, 242 161.884 C 242 157.851, 238.519 155.004, 233.561 154.982 C 222.735 154.932, 192.321 146.946, 177.359 140.224 C 172.486 138.035, 166.188 135.426, 163.363 134.427 L 158.225 132.611 160.613 130.733 C 164.962 127.311, 162.923 119.901, 157.679 120.070 C 156.480 120.109, 154.795 120.446, 153.934 120.820 M 168.890 162.255 C 166.559 164.057, 155.205 167.567, 142.178 170.512 C 127.522 173.824, 118.430 178.003, 117.686 181.769 C 116.557 187.484, 122.381 190.961, 129.488 188.814 C 131.145 188.313, 136.457 186.855, 141.294 185.574 C 148.718 183.607, 149.867 183.498, 148.667 184.872 C 147.886 185.767, 146.674 188.122, 145.975 190.104 C 144.763 193.541, 144.396 193.765, 138.102 194.918 C 128.547 196.668, 117.418 200.855, 114.461 203.812 C 110.858 207.415, 111.303 212.915, 115.356 214.848 C 117.879 216.052, 118.926 215.960, 124.356 214.058 C 134.812 210.395, 140.126 208.792, 140.518 209.184 C 141.129 209.796, 141.551 260.772, 140.950 261.379 C 140.647 261.684, 133.672 262.393, 125.450 262.955 C 109.949 264.013, 83.208 267.905, 74.500 270.370 C 63.032 273.616, 58 277.188, 58 282.082 C 58 285.580, 60.053 286.294, 64.622 284.385 C 66.824 283.465, 73.738 282.521, 81.897 282.027 C 89.378 281.574, 102.250 280.223, 110.500 279.024 C 118.750 277.826, 129.775 276.681, 135 276.479 C 140.225 276.277, 147.425 275.655, 151 275.096 C 154.575 274.538, 182.025 273.791, 212 273.435 C 245.872 273.034, 267.257 272.402, 268.500 271.766 C 273.887 269.010, 275.581 264.545, 272.723 260.636 C 271.586 259.080, 268.664 258.829, 245.973 258.331 C 222.475 257.816, 167.500 259.287, 158.750 260.665 L 155 261.256 155 257.128 L 155 253 159.163 253 C 163.077 253, 163.852 252.467, 172.131 244.085 C 176.974 239.182, 182.301 233.019, 183.968 230.389 C 186.631 226.190, 187 224.719, 187 218.304 C 187 212.273, 186.643 210.643, 184.949 208.949 C 183.505 207.505, 182.248 207.104, 180.703 207.594 C 177.855 208.498, 176.945 209.825, 174.046 217.304 C 170.528 226.378, 165.821 233.843, 160.075 239.462 L 155 244.425 155 225.731 L 155 207.038 157.750 206.431 C 169.379 203.863, 178 199.132, 178 195.318 C 178 193.532, 173.513 188.988, 171.795 189.035 C 171.083 189.055, 169.375 189.714, 168 190.500 C 166.625 191.286, 163.466 191.945, 160.981 191.965 L 156.462 192 156.634 186.834 L 156.806 181.667 162.926 179.451 C 170.642 176.657, 176.083 173.082, 177.961 169.573 C 179.246 167.172, 179.242 166.520, 177.930 164.171 C 176.250 161.164, 171.581 160.174, 168.890 162.255 M 107.018 231.740 C 102.828 233.384, 101.826 237.828, 104.485 242.971 C 106.573 247.009, 111.062 249.910, 116.344 250.634 C 122.100 251.423, 125.650 250.523, 127.042 247.921 C 128.471 245.252, 125.879 241, 122.824 241 C 121.639 241, 118.347 238.781, 115.406 236 C 110.032 230.917, 109.632 230.714, 107.018 231.740" stroke="none" fill="black" fill-rule="evenodd"/>
</svg>