<svg xmlns="http://www.w3.org/2000/svg" width="300" height="300" viewBox="0 0 300 300" version="1.1">
	<path d="M 93.827 10.693 C 91.599 13.231, 89.652 17.525, 87.565 24.500 C 86.577 27.800, 84.021 35.027, 81.885 40.561 C 79.748 46.094, 78 50.985, 78 51.429 C 78 52.139, 76.003 56.457, 67.098 75 C 63.122 83.281, 48.568 108.734, 47.085 110 C 46.763 110.275, 45.649 112.075, 44.608 114 C 43.568 115.925, 41.733 118.625, 40.531 120 C 39.329 121.375, 36.654 124.862, 34.587 127.750 C 32.153 131.151, 30.108 133, 28.782 133 C 27.656 133, 25.870 133.997, 24.813 135.216 C 21.083 139.516, 25.187 146.400, 31.481 146.400 C 34.227 146.400, 35.912 145.528, 39.106 142.450 C 46.730 135.105, 65.701 108.384, 71.789 96.416 C 73.444 93.162, 75.949 88.250, 77.356 85.500 C 82.467 75.509, 89 61.060, 89 59.746 C 89 59.006, 89.382 57.972, 89.850 57.450 C 90.317 56.927, 91.479 54.475, 92.432 52 C 93.385 49.525, 94.731 46.150, 95.423 44.500 C 99.328 35.193, 104.069 18.598, 103.515 16.172 C 102.176 10.302, 96.826 7.277, 93.827 10.693 M 99.715 34.712 C 99.055 38.164, 102.349 46.664, 105.722 50.211 C 107.140 51.702, 114.449 56.820, 121.966 61.585 C 129.483 66.350, 136.053 71.205, 136.566 72.374 C 137.857 75.312, 142.322 75.678, 144.939 73.061 C 150.739 67.261, 144.943 59.655, 124 45.582 C 120.425 43.180, 114.834 39.141, 111.575 36.607 C 104.512 31.115, 100.524 30.478, 99.715 34.712 M 239 58.493 C 233.225 59.740, 224.900 61.261, 220.500 61.872 C 216.100 62.484, 206.425 63.852, 199 64.913 C 191.575 65.973, 181.736 67.153, 177.136 67.535 C 165.128 68.530, 161.980 72.133, 167.923 78.077 L 170.846 81 183.673 80.994 C 190.728 80.991, 199.172 80.551, 202.438 80.016 C 205.705 79.481, 208.538 79.205, 208.736 79.403 C 208.934 79.600, 208.399 80.458, 207.548 81.310 C 206.696 82.161, 206 83.081, 206 83.354 C 206 84.901, 192.438 107.503, 184.312 119.500 C 171.859 137.884, 170.428 139.889, 166.943 143.849 C 165.321 145.692, 163.013 148.617, 161.813 150.349 C 160.613 152.082, 158.252 155.085, 156.566 157.022 C 154.880 158.959, 152.150 162.301, 150.500 164.447 C 145.961 170.353, 136.248 182.036, 132.410 186.206 C 128.580 190.369, 128.140 192.912, 130.829 195.345 C 133.656 197.904, 136.307 197.344, 141.701 193.049 C 145.396 190.107, 167.388 166.700, 172.950 159.789 C 173.526 159.073, 173 170.074, 170.955 201.500 C 170.346 210.850, 169.595 224.175, 169.286 231.112 C 168.754 243.055, 168.837 243.837, 170.862 245.862 C 172.038 247.038, 174.125 248, 175.500 248 C 176.875 248, 178 248.457, 178 249.015 C 178 251.294, 184.519 253.993, 190.032 253.996 C 196.519 254.001, 199.693 253.141, 223 245.066 C 234.053 241.237, 242.115 239.003, 244.884 239.002 C 250.593 239, 256.523 237.184, 258.708 234.770 C 259.666 233.712, 260.521 231.194, 260.609 229.173 C 260.698 227.153, 261.550 222.125, 262.503 218 C 263.936 211.798, 264.258 204.961, 264.368 178.500 L 264.500 146.500 262 141.501 C 257.171 131.846, 250.813 130.142, 234.214 134.053 C 222.125 136.902, 213.683 139.226, 212.500 140.032 C 211.950 140.407, 208.308 141.915, 204.406 143.384 C 197.611 145.943, 195.554 147.499, 191.728 152.973 C 189.441 156.244, 189.548 158.548, 192.104 161.104 C 194.627 163.627, 198.094 163.206, 205.140 159.522 C 214.723 154.511, 238.934 147, 245.502 147 C 248.247 147, 248.989 154.448, 248.987 182 C 248.985 208.605, 248.041 221.041, 245.821 223.716 C 245.235 224.422, 243.798 224.994, 242.628 224.987 C 236.106 224.948, 214.446 231.067, 196.325 238.069 C 186.805 241.747, 180.196 243.109, 181.412 241.142 C 183.064 238.469, 186.661 198.646, 189.025 156.849 L 190.080 138.198 196.086 129.349 C 204.341 117.186, 203.813 118.030, 212.234 103.500 C 221.625 87.294, 225 80.600, 225 78.178 C 225 76.621, 226.450 75.980, 233.250 74.531 C 255.510 69.785, 263.072 64.215, 256.363 57.506 C 254.431 55.574, 251.833 55.722, 239 58.493 M 104 82.561 C 96.575 85.047, 89.600 87.483, 88.500 87.976 C 87.400 88.468, 84.394 89.760, 81.821 90.848 C 76.507 93.093, 73.698 97.278, 74.191 102.213 C 74.688 107.183, 76.604 107.597, 86.085 104.786 C 90.713 103.414, 96.212 101.534, 98.305 100.609 C 102.008 98.972, 102.082 98.979, 101.079 100.852 C 99.761 103.315, 97 119.071, 97 124.131 C 97 127.341, 96.657 128, 94.987 128 C 90.989 128, 78.431 132.064, 74.015 134.787 C 68.884 137.951, 67.375 142.338, 70.605 144.701 C 73.114 146.535, 81.274 146.284, 89.620 144.116 L 96.740 142.266 97.374 177.383 C 97.723 196.697, 98.286 216.893, 98.624 222.263 L 99.240 232.026 87.370 237.625 C 80.841 240.705, 73.250 244.110, 70.500 245.193 C 59.173 249.651, 49.937 254.448, 48.521 256.609 C 47.400 258.319, 47.264 259.564, 47.989 261.472 C 49.413 265.216, 53.335 266.380, 60.077 265.060 C 66.093 263.881, 85.333 256.063, 95.945 250.484 C 104.309 246.087, 119.753 239, 120.972 239 C 122.456 239, 143.851 230.085, 151.058 226.464 C 154.664 224.652, 158.227 222.432, 158.974 221.531 C 160.816 219.312, 160.690 214.547, 158.738 212.595 C 156.359 210.216, 153.538 210.627, 145.639 214.504 C 141.713 216.432, 135.125 218.888, 131 219.962 C 126.875 221.036, 120.800 223.022, 117.500 224.374 L 111.500 226.833 111.170 223.693 C 110.568 217.967, 112.033 212.380, 115.572 206.908 C 117.495 203.934, 120.240 199.025, 121.672 196 C 123.104 192.975, 125.112 189.428, 126.135 188.118 C 127.158 186.808, 129.336 181.408, 130.974 176.118 C 132.613 170.828, 135.105 164.891, 136.512 162.924 C 139.639 158.555, 138.998 156.278, 134.399 155.415 C 128.373 154.285, 122.663 159.441, 118.474 169.795 C 116.983 173.483, 114.930 178.525, 113.914 181 L 112.065 185.500 112.033 160.764 L 112 136.029 117.750 133.115 C 124.730 129.577, 128.250 125.998, 128.250 122.439 C 128.250 117.644, 123.501 116.682, 116.199 119.996 L 111.898 121.948 112.061 110.061 C 112.152 103.523, 111.942 97.716, 111.596 97.156 C 110.817 95.895, 110.771 95.921, 120.465 92.060 C 124.845 90.316, 129.008 88.409, 129.715 87.822 C 131.716 86.161, 131.232 82.567, 128.686 80.174 C 125.144 76.847, 119.410 77.401, 104 82.561 M 61.444 182.699 C 59.643 184.500, 59.626 186.188, 61.371 190.282 C 63.323 194.864, 66.471 197.243, 74.775 200.417 C 81.643 203.041, 82.190 203.106, 84.525 201.575 C 88.807 198.770, 87.372 194.795, 80.862 191.429 C 79.241 190.590, 75.617 188.165, 72.809 186.040 C 66.984 181.631, 63.527 180.615, 61.444 182.699" stroke="none" fill="black" fill-rule="evenodd"/>
</svg>