<svg xmlns="http://www.w3.org/2000/svg" width="300" height="300" viewBox="0 0 300 300" version="1.1">
	<path d="M 103.362 22.765 C 101.552 23.934, 99 30.924, 99 34.712 C 99 38.615, 94.120 53.430, 89.847 62.500 C 86.212 70.217, 78.682 83.718, 77.170 85.230 C 76.526 85.874, 76 86.915, 76 87.545 C 76 88.175, 75.100 89.505, 74 90.500 C 72.900 91.495, 72 92.770, 72 93.332 C 72 93.894, 70.047 97.311, 67.659 100.927 C 65.271 104.542, 61.799 109.975, 59.942 113 C 58.085 116.025, 56.326 118.725, 56.033 119 C 55.740 119.275, 54.825 120.700, 54 122.167 C 50.565 128.273, 40.271 140.244, 37.197 141.707 C 34.571 142.956, 33.956 143.793, 34.197 145.790 C 34.364 147.172, 35.688 149.185, 37.141 150.265 C 39.503 152.020, 40.188 152.093, 43.641 150.957 C 50.349 148.750, 57.977 139.702, 74.719 114.089 C 74.867 113.864, 75.813 114.426, 76.823 115.339 C 79.203 117.493, 81.406 117.434, 92.089 114.926 C 96.948 113.785, 101.797 112.997, 102.863 113.176 C 104.698 113.483, 104.648 113.816, 101.913 119.500 C 100.325 122.800, 99.014 126.625, 98.999 128 C 98.947 132.936, 97.770 135.016, 94.131 136.605 C 79.063 143.185, 66.802 150.467, 65.625 153.534 C 64.569 156.286, 64.916 157.916, 67 160 C 69.819 162.819, 74.589 162.483, 80.500 159.048 C 83.250 157.451, 88.137 154.760, 91.360 153.068 L 97.219 149.993 96.629 160.747 C 96.305 166.661, 95.758 179.150, 95.414 188.500 C 94.942 201.294, 94.397 206.167, 93.209 208.197 C 91.925 210.392, 91.852 211.380, 92.815 213.494 C 94.264 216.673, 94.373 222, 92.989 222 C 92.433 222, 90.071 222.839, 87.739 223.864 C 76.038 229.010, 69.056 231.944, 64.726 233.535 C 58.309 235.894, 54 240.866, 54 245.912 C 54 251.919, 56.137 252.983, 61.844 249.818 C 64.405 248.397, 67.625 246.903, 69 246.497 C 70.375 246.091, 73.750 244.722, 76.500 243.454 C 79.250 242.187, 87.125 238.816, 94 235.962 C 113.938 227.687, 134.839 217.175, 136.552 214.561 C 138.527 211.547, 137.585 207.651, 134.481 205.990 C 132.100 204.716, 127.323 206.474, 109.608 215.145 C 107.468 216.193, 105.576 216.909, 105.404 216.737 C 105.231 216.564, 105.725 214.641, 106.501 212.462 C 107.277 210.283, 107.932 207.577, 107.956 206.450 C 107.980 205.322, 108.394 203.972, 108.876 203.450 C 109.821 202.427, 113.587 195.820, 118.253 187 C 122.054 179.816, 126 167.843, 126 163.492 C 126 160.949, 125.365 159.630, 123.576 158.458 C 121.398 157.031, 120.855 157.023, 118.225 158.384 C 114.754 160.179, 112.018 164.032, 111.955 167.215 C 111.930 168.472, 111.292 170.850, 110.536 172.500 L 109.162 175.500 109.081 170.546 C 109.037 167.821, 109.537 160.761, 110.194 154.856 C 111.265 145.223, 111.608 144.064, 113.527 143.583 C 118.336 142.376, 125.015 137.790, 125.650 135.258 C 126.941 130.115, 122.604 128.173, 114.628 130.325 L 111.756 131.099 112.463 124.500 C 112.852 120.871, 113.801 116.686, 114.572 115.201 C 115.343 113.715, 115.761 111.825, 115.499 111 C 115.176 109.978, 116.777 108.583, 120.526 106.620 C 126.285 103.606, 128.300 100.268, 126.277 97.095 C 124.826 94.819, 119.902 95.201, 103 98.903 C 95.025 100.649, 86.936 102.361, 85.025 102.706 L 81.551 103.335 83.257 100.731 C 84.195 99.299, 85.813 96.636, 86.853 94.814 C 87.892 92.991, 90.879 87.910, 93.489 83.521 C 96.100 79.133, 99.321 73.170, 100.648 70.270 L 103.060 64.998 109.769 69.499 C 113.459 71.975, 117.244 74, 118.180 74 C 119.116 74, 120.119 74.384, 120.409 74.853 C 120.699 75.322, 123.456 76.499, 126.536 77.467 C 129.615 78.436, 132.892 80.005, 133.818 80.954 C 138.213 85.462, 144 83.545, 144 77.581 C 144 73.388, 140.245 69.856, 130.983 65.336 C 127.417 63.595, 121.886 60.895, 118.691 59.336 C 115.496 57.776, 111.656 55.841, 110.158 55.035 L 107.435 53.570 110.287 42.035 C 113.272 29.959, 113.263 25.679, 110.247 23.390 C 108.314 21.922, 105.116 21.633, 103.362 22.765 M 197.693 47.789 C 194.828 48.391, 193.911 52.438, 192.890 69 C 192.364 77.525, 191.611 87.645, 191.217 91.489 L 190.500 98.478 185.650 99.171 C 180.022 99.974, 173.769 102.316, 169.903 105.069 C 168.412 106.131, 166.923 107, 166.596 107 C 166.268 107, 166 104.503, 166 101.450 C 166 90.832, 160.963 86.689, 155.683 92.965 C 151.965 97.384, 151.607 102.121, 153.897 116.628 C 155.015 123.708, 156.199 131.646, 156.529 134.269 C 156.889 137.139, 158.055 140.116, 159.457 141.745 C 161.601 144.238, 161.987 144.345, 164.327 143.093 C 168.155 141.044, 169.374 137.013, 168.678 128.703 C 168.346 124.741, 167.764 119.747, 167.383 117.604 C 166.693 113.720, 166.700 113.710, 169.595 114.315 C 171.193 114.650, 175.985 114.413, 180.244 113.789 C 184.504 113.166, 188.216 112.883, 188.494 113.161 C 189.413 114.080, 182.544 147.283, 181.042 149.186 C 180.519 149.848, 170.472 152.159, 151.348 156.015 C 142.481 157.803, 139.419 158.960, 135.750 161.905 C 133.575 163.651, 133.488 167.345, 135.571 169.429 C 137.855 171.712, 149.375 171.459, 159.333 168.907 C 163.825 167.756, 169.575 166.484, 172.111 166.079 L 176.723 165.342 173.311 174.921 C 171.435 180.190, 169.530 185.850, 169.079 187.500 C 168.628 189.150, 167.766 191.625, 167.164 193 C 166.562 194.375, 163.616 201.800, 160.618 209.500 C 154.955 224.042, 147.255 240.315, 143.584 245.500 C 139.558 251.185, 138.703 253.576, 139.897 255.807 C 141.442 258.694, 144.400 259.361, 147.819 257.594 C 153.283 254.768, 166.144 233.314, 172.752 216 C 182.869 189.493, 182.315 190.564, 186.244 189.925 C 189.487 189.398, 189.933 189.596, 190.488 191.807 C 191.407 195.471, 211.278 214.836, 220.680 221.230 C 229.715 227.375, 242.146 234.544, 254.730 240.867 C 273.684 250.390, 284.605 252.485, 289.545 247.545 C 291.169 245.922, 291.995 243.975, 291.985 241.795 C 291.967 237.922, 291.293 236.717, 288.250 235.115 C 285.969 233.913, 282.580 234.860, 281.837 236.906 C 281.290 238.414, 263.441 230.767, 250.500 223.479 C 224.960 209.097, 216.077 202.178, 201.875 185.604 C 197.702 180.734, 193.708 178.937, 189.646 180.102 C 187.988 180.577, 186.498 180.831, 186.334 180.667 C 186.025 180.358, 186.478 178.874, 190.122 168.253 C 192.081 162.544, 192.578 161.924, 195.883 161.063 C 202.178 159.423, 211.164 157.350, 222 155.036 C 237.875 151.646, 246.756 148.266, 251.655 143.751 C 257.008 138.816, 258.078 134.777, 254.923 131.418 C 252.109 128.423, 251.848 128.425, 248.813 131.460 C 245.832 134.441, 238.976 137.490, 232.974 138.504 C 228.039 139.338, 227.965 139.791, 233.975 132.393 C 235.364 130.684, 237.278 128.327, 238.229 127.156 C 242.460 121.944, 246 113.081, 245.968 107.779 C 245.930 101.380, 244.743 99.665, 238.396 96.830 C 233.042 94.438, 222.659 93.837, 211.500 95.271 L 205.500 96.043 205.853 76.672 C 206.142 60.849, 205.930 56.769, 204.699 54.400 C 202.364 49.909, 199.676 47.373, 197.693 47.789 M 212.189 108.945 C 202.700 109.671, 202.374 109.945, 201.453 117.991 C 201.106 121.021, 199.996 127.325, 198.987 132 C 197.978 136.675, 196.914 141.911, 196.624 143.636 L 196.096 146.771 203.298 144.983 C 207.259 143.999, 212.692 142.890, 215.371 142.518 C 218.967 142.018, 219.948 141.548, 219.121 140.721 C 217.113 138.713, 217.933 134.860, 221.374 130.134 C 225.702 124.190, 230.599 115.245, 231.375 111.864 C 232.296 107.857, 230.333 107.558, 212.189 108.945 M 54.278 181.673 C 51.580 185.547, 52.828 189.709, 58.123 194.492 C 62.658 198.590, 71.669 203, 75.505 203 C 78.342 203, 81.363 199.111, 80.426 196.667 C 80.085 195.779, 77.496 193.631, 74.673 191.894 C 71.850 190.157, 67.731 186.793, 65.520 184.419 C 60.191 178.697, 56.908 177.895, 54.278 181.673" stroke="none" fill="black" fill-rule="evenodd"/>
</svg>