<svg xmlns="http://www.w3.org/2000/svg" width="300" height="300" viewBox="0 0 300 300" version="1.1">
	<path d="M 248.515 11.654 C 245.223 13.069, 240.087 15.976, 237.102 18.113 C 234.117 20.251, 231.253 22, 230.738 22 C 230.224 22, 225.684 23.975, 220.651 26.388 C 211.405 30.822, 209.919 31.389, 191 37.695 C 185.225 39.620, 175.550 43.135, 169.500 45.507 C 158.755 49.720, 158.462 49.776, 156.840 47.910 C 154.560 45.287, 148.441 45.308, 147.031 47.943 C 146.288 49.331, 146.346 50.664, 147.234 52.613 C 148.221 54.780, 148.222 55.426, 147.238 55.754 C 145.712 56.263, 145.618 59.218, 147.082 60.682 C 147.787 61.387, 148.353 72.525, 148.704 92.632 C 149.464 136.077, 147.638 154.946, 139.142 191.443 C 136.162 204.248, 133.883 211.961, 132.776 212.993 C 131.827 213.877, 122.152 219.045, 111.276 224.476 C 100.399 229.908, 91.050 234.585, 90.500 234.870 C 89.950 235.154, 91.185 233.315, 93.245 230.781 C 98.140 224.761, 107.328 208.797, 109.853 201.924 C 110.949 198.941, 113.463 192.255, 115.440 187.067 C 119.726 175.819, 120.534 171.477, 119.055 167.622 C 118.032 164.952, 117.656 164.783, 113.876 165.290 C 111.635 165.590, 109.025 166.670, 108.076 167.688 C 106.099 169.810, 102.993 177.950, 97.081 196.500 C 94.803 203.650, 92.114 210.578, 91.106 211.895 C 89.274 214.288, 89.274 214.287, 90.077 209.395 C 90.519 206.703, 90.915 200.900, 90.956 196.500 C 91.024 189.324, 94.579 151.951, 95.234 151.525 C 104.695 145.370, 108.899 140.129, 108.965 134.405 C 109.023 129.305, 103.411 126.033, 100.122 129.250 C 99.088 130.262, 98.980 129.739, 99.558 126.500 C 100.381 121.891, 104.799 109.039, 106.133 107.377 C 106.629 106.759, 106.792 105.622, 106.496 104.851 C 105.889 103.267, 113.773 100.480, 117.921 100.812 C 121.007 101.059, 125 98.472, 124.999 96.227 C 124.997 93.339, 120.440 88.946, 116.843 88.363 C 114.822 88.036, 108.162 89.062, 100 90.957 C 86.469 94.099, 83.408 94.929, 70.619 98.923 C 66.835 100.105, 63.532 100.865, 63.280 100.613 C 63.027 100.361, 64.672 97.428, 66.934 94.097 C 69.196 90.766, 71.353 87.243, 71.727 86.270 C 72.100 85.296, 73.595 82.700, 75.049 80.500 C 76.503 78.300, 80.349 71.007, 83.596 64.293 C 86.843 57.579, 89.786 52.179, 90.137 52.293 C 90.487 52.407, 92.304 54.525, 94.176 57 C 98.170 62.282, 104.500 66.026, 115.302 69.495 C 124.611 72.484, 135.962 72.956, 138.050 70.440 C 141.088 66.779, 135.628 60.442, 128.477 59.329 C 126.289 58.989, 119.100 56.084, 112.500 52.874 C 95.853 44.776, 94.044 43.709, 94.057 42 C 94.064 41.175, 95.430 37.125, 97.093 33 C 98.757 28.875, 100.372 22.989, 100.682 19.920 C 101.205 14.758, 101.049 14.184, 98.612 12.266 C 97 10.999, 95.164 10.406, 93.886 10.740 C 91.407 11.388, 88.009 16.580, 88.004 19.729 C 88 21.686, 84.656 30.813, 77.827 47.500 C 75.297 53.681, 66.821 69.701, 62.340 76.769 C 60.503 79.668, 59 82.292, 59 82.602 C 59 82.911, 56.862 86.114, 54.250 89.719 C 45.738 101.464, 37.587 112.489, 37.038 113 C 36.742 113.275, 34.051 116.425, 31.057 120 C 24.271 128.103, 19.144 133, 17.446 133 C 15.334 133, 13 135.951, 13 138.620 C 13 143.680, 21.213 144.711, 27.693 140.465 C 31.319 138.090, 42.324 126.510, 48.739 118.320 L 54.364 111.141 56.817 113.070 C 60.229 115.755, 67.322 115.560, 75.690 112.553 C 79.436 111.207, 84.388 109.685, 86.695 109.171 C 90.816 108.254, 90.867 108.275, 89.544 110.369 C 88.137 112.596, 84.651 126.260, 83.514 134 C 83.151 136.475, 82.641 139.257, 82.381 140.183 C 81.922 141.815, 74.746 144.555, 60.610 148.495 C 52.258 150.824, 50 152.528, 50 156.504 C 50 158.305, 50.861 160.841, 51.914 162.139 C 54.653 165.519, 61.569 165.139, 70.762 161.105 C 78.975 157.500, 80.357 157.301, 79.550 159.841 C 79.229 160.854, 78.582 169.679, 78.113 179.452 C 77.477 192.690, 76.907 197.460, 75.880 198.154 C 73.259 199.926, 66.007 198.368, 61.659 195.099 C 54.381 189.629, 50.086 187.761, 46.382 188.456 C 42.924 189.105, 41 191.388, 41 194.842 C 41 197.563, 50.307 205.743, 57 208.903 C 61.316 210.941, 63.953 211.484, 69.250 211.423 L 76 211.347 75.994 215.423 C 75.987 220.961, 74.372 226.363, 71.427 230.703 C 69.242 233.923, 69.124 234.553, 70.364 236.411 C 71.256 237.749, 72.871 238.521, 74.855 238.559 C 78.834 238.636, 79.803 239.613, 76.825 240.546 C 75.546 240.947, 72.164 242.340, 69.309 243.640 C 66.454 244.941, 62.916 246.462, 61.446 247.020 C 56.555 248.880, 43.849 258.328, 41.408 261.921 C 38.469 266.246, 38.229 270.620, 40.883 271.463 C 44.969 272.760, 56.567 268.942, 61.412 264.704 C 63.014 263.303, 65.939 261.504, 67.912 260.705 C 88.808 252.247, 108.066 243.189, 121.418 235.539 C 125.773 233.044, 129.527 231.193, 129.759 231.426 C 130.815 232.481, 121.710 257.381, 119.437 259.654 C 116.339 262.752, 116.367 264.458, 119.566 267.657 C 121.636 269.727, 122.748 270.105, 125.316 269.609 C 127.067 269.271, 129.338 267.983, 130.363 266.747 C 135.546 260.496, 143.434 240.296, 146.469 225.500 C 147.759 219.213, 148.768 216.820, 151.182 214.322 C 153.704 211.712, 154.127 210.641, 153.547 208.332 C 153.159 206.785, 152.393 205.243, 151.845 204.904 C 151.213 204.514, 151.770 200.294, 153.362 193.394 C 161.300 159.001, 162.414 147.604, 162.461 100.250 L 162.500 61 172 58.056 C 177.225 56.437, 183.750 54.605, 186.500 53.985 C 189.250 53.365, 198.475 50.606, 207 47.855 C 219.562 43.800, 225.628 41.123, 239 33.733 L 255.500 24.613 264.138 24.435 C 273.928 24.233, 275 23.842, 275 20.476 C 275 16.689, 269.675 11.407, 264.558 10.119 C 258.112 8.496, 255.221 8.772, 248.515 11.654 M 232.500 79.028 C 207.518 79.609, 183.639 81.105, 176.416 82.541 C 173.521 83.116, 166.980 88.485, 165.352 91.623 C 161.348 99.340, 166.188 104.817, 172.790 100.039 C 176.699 97.211, 197.861 95.149, 230.098 94.457 C 257.270 93.873, 267.319 92.921, 272.033 90.483 C 279.449 86.648, 274.614 77.751, 265.346 78.177 C 263.231 78.274, 248.450 78.657, 232.500 79.028 M 239 152.002 C 234.875 152.476, 224.300 153.079, 215.500 153.344 C 199.439 153.827, 196.633 154.269, 194.169 156.703 C 193.069 157.791, 192.398 157.671, 190.285 156.009 C 186.913 153.357, 185.559 153.474, 183.076 156.631 C 179.849 160.734, 179.267 164.751, 178.028 191.500 C 176.420 226.229, 174.283 242.471, 171.062 244.462 C 169.065 245.696, 169.854 250.846, 172.250 252.215 C 175.647 254.155, 196.747 253.808, 206 251.660 C 211.243 250.443, 221.024 249.653, 238.500 249.037 C 259.839 248.284, 264.523 247.834, 270.483 245.960 C 279.351 243.173, 282.871 240.491, 282.945 236.466 C 282.986 234.178, 282.318 233.028, 280.228 231.794 C 277.745 230.327, 276.834 230.303, 271.478 231.563 C 262.847 233.593, 262.744 233.556, 264.974 229.250 C 266.042 227.188, 267.580 223.025, 268.392 220 C 269.203 216.975, 270.978 210.675, 272.337 206 C 276.561 191.461, 280 172.838, 280 164.503 C 280 161.484, 279.268 158.551, 278.004 156.506 C 276.279 153.715, 275.294 153.193, 270.754 152.667 C 260.272 151.453, 246.337 151.161, 239 152.002 M 229 167.502 C 223.775 168.232, 215.294 168.867, 210.154 168.914 C 200.894 168.999, 200.088 169.236, 194.147 173.612 C 193.953 173.755, 193.415 183.238, 192.951 194.686 C 192.387 208.608, 191.410 219.089, 190.001 226.340 C 188.841 232.302, 188.030 237.508, 188.197 237.908 C 188.473 238.572, 192.925 238.032, 212 235.020 C 215.575 234.455, 225.813 233.700, 234.750 233.340 C 248.670 232.781, 251.002 232.459, 251.013 231.094 C 251.020 230.217, 251.967 226.575, 253.118 223 C 255.360 216.038, 256.179 212.097, 260.991 185.129 C 262.696 175.574, 263.808 167.474, 263.463 167.129 C 262.261 165.926, 238.438 166.184, 229 167.502" stroke="none" fill="black" fill-rule="evenodd"/>
</svg>