<svg xmlns="http://www.w3.org/2000/svg" width="300" height="300" viewBox="0 0 300 300" version="1.1">
	<path d="M 94.787 19.750 C 93.949 20.712, 93.018 24.033, 92.717 27.129 C 92.085 33.626, 87.928 43.411, 84.416 46.665 C 82.960 48.015, 82 50.027, 82 51.730 C 82 53.284, 81.379 55.443, 80.621 56.527 C 79.001 58.845, 75.312 65.245, 73.145 69.500 C 70.135 75.408, 57.675 94.571, 53.131 100.279 C 50.584 103.479, 47.559 107.385, 46.409 108.960 C 44.388 111.728, 38.187 119.114, 31.057 127.243 C 26.338 132.624, 19.684 137.021, 15.222 137.706 C 10.356 138.453, 9 139.628, 9 143.099 C 9 147.521, 12.588 149.323, 20.400 148.825 C 25.694 148.488, 27.736 147.795, 32.245 144.800 C 38.629 140.562, 46.117 132.944, 55.940 120.695 C 62.644 112.335, 64.872 110.213, 61.429 115.468 C 60.209 117.330, 60.105 118.328, 60.964 119.933 C 62.431 122.674, 64.582 122.548, 75.397 119.087 C 87.002 115.374, 95.004 113.863, 94.989 115.387 C 94.983 115.999, 94.326 118.651, 93.528 121.279 C 92.731 123.908, 91.782 129.327, 91.420 133.322 L 90.762 140.587 84.631 144.643 C 73.877 151.757, 60.933 158.283, 57.130 158.506 C 55.134 158.624, 52.986 158.783, 52.358 158.860 C 50.674 159.067, 49.790 163.739, 51.005 166.010 C 51.585 167.093, 53.470 168.709, 55.193 169.600 C 60.415 172.300, 67.387 171.072, 78.671 165.462 C 84.077 162.774, 88.853 160.404, 89.283 160.193 C 90.591 159.555, 87.766 208.690, 85.941 218.310 C 85.351 221.421, 83.885 224.506, 81.948 226.711 C 78.188 230.995, 78.150 235.785, 81.862 237.625 C 84.178 238.773, 84.120 238.862, 78.862 242.212 C 70.672 247.431, 53.806 256.716, 51.004 257.549 C 45.650 259.140, 44.563 263.716, 48.750 267.034 C 52.610 270.093, 62.291 269.407, 70 265.528 C 80.621 260.185, 97.139 249.925, 107.720 242.100 C 111.142 239.570, 119.017 234.800, 125.220 231.500 C 136.211 225.654, 136.508 225.406, 136.805 221.840 C 137.194 217.167, 133.866 213.577, 130.010 214.513 C 126.018 215.481, 114.226 221.024, 105.107 226.219 C 100.490 228.848, 96.537 231, 96.321 231 C 95.178 231, 99.072 225.680, 104.739 219.500 C 113.141 210.337, 123.291 195.035, 125.965 187.500 C 128.687 179.832, 129.642 169.476, 128.068 164.705 C 127.301 162.381, 125.615 160.307, 123.361 158.914 C 120.316 157.032, 119.529 156.914, 117.451 158.026 C 114.303 159.711, 113.044 163.927, 113.130 172.500 C 113.208 180.240, 111.107 186.986, 105.969 195.500 L 102.951 200.500 103.492 192 C 103.789 187.325, 104.498 175.658, 105.067 166.073 C 106.214 146.767, 105.484 148.560, 114.686 142.459 C 121.827 137.724, 123.233 135.558, 121.663 131.710 C 119.855 127.280, 117.075 126.686, 111.653 129.572 C 109.144 130.907, 106.830 132, 106.511 132 C 106.191 132, 106.058 127.466, 106.215 121.924 L 106.500 111.847 113.647 109.069 C 122.954 105.451, 127.099 102.820, 129.250 99.165 C 131.714 94.978, 131.431 92.440, 128.250 90.201 C 125.395 88.191, 124.212 88.335, 119.988 91.209 C 116.672 93.465, 106.633 96.455, 95.500 98.503 C 75.989 102.092, 71.412 103.155, 69.184 104.615 C 67.148 105.949, 71.360 99.055, 83.053 81.914 C 84.023 80.492, 87.107 74.766, 89.906 69.188 C 94.647 59.740, 95.148 59.110, 97.247 59.962 C 98.486 60.465, 107.271 64.729, 116.769 69.438 C 126.267 74.147, 134.620 78, 135.331 78 C 137.263 78, 141 74.170, 141 72.189 C 141 69.724, 135.661 63.567, 131.785 61.562 C 129.978 60.627, 125.800 58.103, 122.500 55.953 C 119.200 53.802, 113.575 50.606, 110 48.850 C 106.425 47.095, 103.331 45.529, 103.125 45.370 C 102.918 45.212, 103.481 43.255, 104.375 41.021 C 107.376 33.520, 106.209 25.949, 101.249 20.750 C 98.193 17.546, 96.881 17.343, 94.787 19.750 M 250.917 35.409 C 250.688 35.634, 245.100 36.775, 238.500 37.945 C 227.828 39.837, 219.167 41.789, 206.576 45.140 C 199.965 46.900, 167.232 63.746, 162.006 68.078 C 160.215 69.563, 159.068 71.486, 159.042 73.050 C 158.935 79.539, 165.288 79.662, 178.679 73.430 C 189.109 68.576, 205.525 62, 207.212 62 C 207.809 62, 207.976 63.329, 207.619 65.250 C 207.288 67.037, 206.143 74.980, 205.076 82.899 C 203.871 91.846, 202.640 97.604, 201.827 98.107 C 201.106 98.552, 198.038 99.190, 195.009 99.525 C 183.669 100.778, 173.387 103.315, 166.552 106.547 C 162.673 108.380, 158.709 110.120, 157.741 110.412 C 156.774 110.705, 155.479 112.048, 154.864 113.398 C 151.830 120.057, 158.110 125, 167.143 123.063 C 169.851 122.482, 173.739 121.173, 175.783 120.154 C 177.827 119.135, 183.550 117.526, 188.500 116.578 C 193.450 115.630, 198.549 114.605, 199.831 114.299 C 202.089 113.760, 202.142 113.893, 201.526 118.621 C 200.626 125.534, 197.925 138.215, 196.963 140.044 C 196.516 140.893, 193.529 142.400, 190.325 143.394 C 187.121 144.387, 181.800 146.236, 178.500 147.502 C 175.200 148.768, 169.125 150.802, 165 152.020 C 158.223 154.023, 146.253 159.861, 141.750 163.361 C 139.658 164.986, 139.494 167.925, 141.352 170.466 C 144.129 174.265, 156.480 171.583, 194.804 158.860 C 201.572 156.613, 207.304 154.970, 207.542 155.209 C 208.737 156.404, 192.146 184.093, 186.071 191.041 C 184.147 193.241, 180.647 197.808, 168.089 214.500 C 161.742 222.936, 149 245.485, 149 248.279 C 149 254.645, 152.796 258, 159.998 258 C 163.914 258, 171.892 256.194, 177.500 254.039 C 183.244 251.831, 230.528 227.726, 234.587 224.937 L 238.675 222.128 240.464 227.814 C 244.157 239.555, 251.980 258.350, 254.124 260.632 C 256.962 263.653, 261.017 263.675, 263.826 260.686 C 266.589 257.744, 266.536 256.088, 263.407 247.500 C 259.486 236.740, 256.436 227.283, 254.055 218.500 C 252.862 214.100, 250.071 204.875, 247.852 198 C 242.313 180.837, 238.990 177.658, 233.459 184.232 C 230.878 187.299, 230.769 187.848, 231.322 195.015 C 231.642 199.168, 232.310 203.663, 232.806 205.004 C 233.528 206.956, 233.287 207.773, 231.601 209.099 C 229.581 210.688, 176.359 237.142, 172.750 238.351 C 170.439 239.125, 170.533 237.878, 172.985 235.246 C 174.077 234.074, 177.397 229.377, 180.362 224.808 C 183.327 220.238, 189.071 211.891, 193.127 206.257 C 213.013 178.632, 219.507 167.954, 223.620 156.117 C 224.744 152.883, 226.291 150.394, 227.495 149.883 C 228.598 149.415, 235.646 148.423, 243.157 147.679 C 259.361 146.073, 267.054 143.151, 268.883 137.907 C 270.836 132.302, 265.504 127.608, 259.695 129.819 C 257.938 130.488, 250.875 131.493, 244 132.054 C 237.125 132.614, 227.513 133.981, 222.639 135.092 C 217.765 136.203, 213.637 136.970, 213.464 136.797 C 213.291 136.625, 213.780 133.787, 214.550 130.492 C 215.320 127.196, 216.454 121.125, 217.069 117 L 218.188 109.500 224.625 106.594 C 229.258 104.503, 232.709 101.928, 236.938 97.407 C 243.577 90.310, 245.215 86, 242.439 82.933 C 240.036 80.278, 233 80.506, 233 83.240 C 233 83.804, 231.988 85.149, 230.750 86.228 C 227.934 88.685, 220.033 93.370, 219.548 92.871 C 218.004 91.285, 225.478 60.444, 228.351 56.549 C 229.513 54.972, 236.653 53.390, 253.500 50.976 C 258.450 50.267, 263.063 49.252, 263.750 48.721 C 265.550 47.330, 265.227 41.851, 263.202 39.430 C 260.800 36.557, 252.511 33.844, 250.917 35.409 M 47.629 187.686 C 44.751 189.195, 43.448 192.685, 44.512 196.038 C 46.980 203.813, 63.376 213.875, 71.071 212.336 C 77.016 211.147, 77.501 204.279, 71.807 201.920 C 70.037 201.187, 65.477 197.572, 61.673 193.887 C 54.231 186.677, 51.693 185.557, 47.629 187.686" stroke="none" fill="black" fill-rule="evenodd"/>
</svg>