<svg xmlns="http://www.w3.org/2000/svg" width="300" height="300" viewBox="0 0 300 300" version="1.1">
	<path d="M 91.672 11.601 C 89.869 13.404, 89.117 15.541, 88.629 20.248 C 87.957 26.747, 84.847 38.239, 83.200 40.308 C 82.679 40.964, 81.940 43.655, 81.559 46.288 C 80.871 51.041, 79.657 54.594, 75.936 62.739 C 74.871 65.071, 74 67.169, 74 67.402 C 74 68.287, 60.597 95.615, 58.994 98 C 58.069 99.375, 56.187 102.300, 54.810 104.500 C 39.840 128.422, 33.629 137.280, 27.588 143.321 C 22.850 148.059, 25.223 155, 31.579 155 C 34.238 155, 36.065 154.060, 39.426 150.961 C 44.800 146.008, 63.731 118.619, 69.872 106.913 L 74.376 98.326 76.438 100.684 C 78.801 103.386, 83.081 103.891, 92.409 102.568 C 97.970 101.779, 98.271 101.841, 97.524 103.615 C 97.088 104.652, 95.579 109.784, 94.172 115.021 L 91.612 124.542 81.556 127.717 C 76.025 129.464, 70.274 131.188, 68.776 131.548 C 64.800 132.505, 63.832 138.128, 67.053 141.556 C 68.964 143.590, 70.298 144, 75.015 144 C 78.132 144, 82.732 143.383, 85.237 142.629 L 89.791 141.259 90.454 160.879 C 91.442 190.109, 91.507 193.664, 91.243 203.750 C 91.015 212.411, 90.866 213, 88.895 213 C 85.139 213, 69.705 218.156, 61.500 222.152 C 53.188 226.201, 49 229.812, 49 232.933 C 49 236.417, 51.524 237.278, 60.253 236.774 C 66.741 236.398, 71.807 235.175, 84 231.041 C 107.531 223.062, 135.375 211.302, 139.853 207.450 C 144.372 203.563, 141.815 196, 135.983 196 C 134.495 196, 130.209 197.391, 126.459 199.091 C 122.709 200.792, 116.071 203.499, 111.707 205.108 C 105.330 207.459, 103.894 207.720, 104.387 206.435 C 104.724 205.556, 105 204.472, 105 204.027 C 105 203.581, 106.016 202.962, 107.258 202.650 C 109.975 201.968, 122.811 183.091, 125.919 175.204 C 128.720 168.099, 128.698 159.298, 125.866 153.710 C 124.692 151.395, 123.229 149.169, 122.616 148.765 C 120.783 147.558, 116.516 147.902, 114.441 149.423 C 112.737 150.672, 112.500 152.106, 112.500 161.182 C 112.500 171.169, 112.390 171.684, 109.250 176.430 L 106 181.343 106.020 157.921 L 106.040 134.500 111.122 131.500 C 116.923 128.075, 122 122.773, 122 120.140 C 122 119.155, 120.987 117.439, 119.750 116.327 C 117.323 114.147, 115.693 114.311, 110.232 117.288 C 107.300 118.887, 106.902 118.908, 106.359 117.493 C 105.650 115.646, 106.647 106.814, 108.052 102.500 C 108.805 100.187, 110.257 98.969, 114.395 97.179 C 120.697 94.454, 124.513 90.701, 125.303 86.453 C 125.900 83.240, 125.532 82.307, 122.840 80.203 C 121.446 79.112, 119.930 79.386, 113.340 81.916 C 102.987 85.892, 79.177 89.394, 80.327 86.772 C 82.430 81.978, 87.307 69.474, 89.110 64.250 C 90.297 60.812, 91.657 58, 92.132 58 C 93.178 58, 109.613 67.002, 116.335 71.257 C 118.995 72.941, 121.566 75.359, 122.050 76.631 C 123.854 81.377, 132.356 80.412, 133.635 75.317 C 135.613 67.439, 126.113 58.596, 103.250 47.033 C 99.813 45.294, 97 43.638, 97 43.352 C 97 43.067, 97.875 39.383, 98.945 35.167 C 102.424 21.449, 102.598 17.497, 99.898 13.556 C 96.864 9.129, 94.666 8.606, 91.672 11.601 M 239.048 44.084 C 232.200 44.519, 212.123 45.341, 194.433 45.911 C 176.743 46.481, 161.197 47.357, 159.885 47.859 C 152.332 50.746, 151.414 60.661, 158.484 62.995 C 160.400 63.627, 162.763 63.896, 163.734 63.592 C 164.705 63.288, 179.900 62.585, 197.500 62.029 C 240.204 60.681, 252.819 59.181, 257.053 54.947 C 260.781 51.219, 258.393 42.832, 253.693 43.147 C 252.487 43.227, 245.897 43.649, 239.048 44.084 M 166.688 70.250 C 164.301 75.019, 158.247 124.157, 155.972 157.221 C 155.453 164.767, 153.676 180.345, 152.023 191.838 C 147.379 224.135, 146.482 236.291, 147.831 248.646 C 149.132 260.561, 151.206 266.036, 156.224 270.801 C 162.398 276.664, 174.424 278.266, 195.330 276.011 C 200.373 275.467, 217.775 274.583, 234 274.046 C 266.426 272.974, 271.744 272.103, 276.820 267.026 C 278.430 265.416, 279.971 262.932, 280.244 261.506 C 280.970 257.708, 279.193 250.584, 276.908 248.132 C 272.752 243.670, 266.716 246.770, 267.226 253.105 L 267.500 256.500 243.500 257.228 C 230.300 257.629, 211.480 258.866, 201.678 259.978 C 174.790 263.029, 167.691 262.510, 164.241 257.245 C 161.335 252.812, 161.334 220.304, 164.239 198.606 L 166.500 181.713 182.500 181.884 C 191.300 181.978, 204.125 181.606, 211 181.057 C 227.120 179.769, 249.637 175.578, 256.328 172.618 C 265.377 168.617, 269.722 160.773, 265.171 156.655 C 263.007 154.696, 258.938 154.492, 257.076 156.250 C 255.078 158.136, 256.242 147.258, 259.010 138.172 C 262.729 125.963, 260.390 118.738, 251.904 116.231 C 247.350 114.886, 246.684 114.920, 225 117.618 C 214.154 118.967, 182.016 124.790, 175.144 126.651 L 172.788 127.289 173.644 116.394 C 175.051 98.492, 174.741 72.747, 173.081 69.649 C 171.167 66.077, 168.659 66.312, 166.688 70.250 M 229 131.618 C 217.958 133.248, 172.194 142.472, 171.447 143.219 C 171.169 143.498, 170.510 147.725, 169.983 152.613 C 169.455 157.501, 168.765 163.004, 168.449 164.843 C 167.887 168.114, 167.939 168.172, 170.842 167.535 C 172.474 167.176, 181.165 166.717, 190.155 166.515 C 204.219 166.199, 217.559 164.746, 237.148 161.395 C 241.359 160.675, 242 158.971, 242 148.501 C 242 145.064, 242.675 140.338, 243.500 138 C 244.325 135.662, 245 132.905, 245 131.874 C 245 129.613, 242.829 129.578, 229 131.618 M 53.146 170.079 C 49.096 173.851, 52.831 179.689, 60.723 181.923 C 73.256 185.470, 75.206 185.841, 78.499 185.306 C 81.159 184.875, 82.179 184.137, 82.637 182.311 C 83.396 179.286, 79.705 175, 76.340 175 C 75.069 175, 71.060 173.425, 67.431 171.500 C 59.865 167.486, 56.309 167.132, 53.146 170.079" stroke="none" fill="black" fill-rule="evenodd"/>
</svg>