<svg xmlns="http://www.w3.org/2000/svg" width="300" height="300" viewBox="0 0 300 300" version="1.1">
	<path d="M 214.963 25.336 C 213.685 25.976, 212.314 27.719, 211.917 29.209 C 211.520 30.698, 210.312 33.173, 209.233 34.709 C 208.154 36.244, 206.171 39.525, 204.825 42 C 203.480 44.475, 201.350 48.188, 200.091 50.250 L 197.802 54 182.181 54 C 173.375 54, 164.256 54.535, 161.282 55.227 C 156.712 56.289, 155.868 56.871, 154.976 59.574 C 153.520 63.985, 154.514 65.649, 159.815 67.674 C 163.228 68.977, 167.398 69.453, 175.583 69.473 L 186.712 69.500 184.606 72.611 C 177.409 83.241, 171.987 90.510, 161.863 103.101 C 154.141 112.705, 148.782 118, 146.784 118 C 145.220 118, 143.068 121.190, 143.032 123.561 C 142.942 129.391, 150.677 131.760, 157.790 128.081 C 164.115 124.809, 183.236 103.022, 193.649 87.223 C 196.650 82.671, 199.487 79.183, 199.954 79.471 C 200.421 79.760, 202.378 82.360, 204.302 85.248 C 206.226 88.137, 208.858 91.478, 210.150 92.674 C 215.783 97.886, 230.034 104.369, 246.801 109.348 C 251.921 110.869, 252.016 110.857, 254.991 108.354 C 256.646 106.962, 258 105.070, 258 104.151 C 258 100.137, 251.348 95.680, 236.730 89.900 C 228.124 86.497, 222.570 83.259, 218 78.981 C 215.525 76.664, 211.700 73.595, 209.500 72.162 L 205.500 69.557 216.500 68.441 C 228.322 67.242, 235.368 65.496, 244.266 61.561 C 252.312 58.003, 253.876 53.757, 248.861 49.085 C 247.299 47.630, 246.201 47.416, 243.689 48.076 C 229.925 51.693, 216.424 53.831, 217.205 52.269 C 223.547 39.585, 224.223 37.696, 223.729 34.016 C 223.218 30.210, 220.552 25.518, 218.393 24.629 C 217.785 24.378, 216.241 24.696, 214.963 25.336 M 91.124 31.750 C 89.725 32.916, 88.525 35.922, 87.523 40.765 C 86.626 45.103, 83.635 53.005, 80.095 60.383 C 76.836 67.177, 73.128 75.158, 71.856 78.118 C 70.584 81.078, 67.477 87.100, 64.952 91.500 C 62.428 95.900, 58.648 102.650, 56.552 106.500 C 49.935 118.657, 28.063 149, 25.917 149 C 25.413 149, 24.992 149.563, 24.983 150.250 C 24.973 150.938, 23.802 152.604, 22.381 153.953 C 18.573 157.567, 17.619 160.770, 19.496 163.635 C 22.201 167.762, 26.582 166.849, 34.192 160.572 C 37.811 157.586, 42.250 153.086, 44.056 150.572 C 45.862 148.057, 47.640 146, 48.009 146 C 48.713 146, 58.686 132.452, 63.066 125.546 C 68.056 117.677, 82.246 91.713, 87.418 80.989 L 92.659 70.121 95.580 72.973 C 99.572 76.873, 123.858 90.110, 127.215 90.216 C 133.817 90.426, 134.925 84.549, 129.386 78.705 C 127.407 76.617, 121.899 72.263, 117.144 69.029 C 112.390 65.795, 106.925 61.766, 105 60.077 C 103.075 58.387, 100.938 57.004, 100.250 57.002 C 98.676 56.999, 98.693 56.584, 100.511 50.591 C 103.347 41.243, 102.135 34.692, 97.010 31.665 C 93.544 29.618, 93.682 29.616, 91.124 31.750 M 95.941 102.926 C 80.363 107.320, 77.243 108.734, 73.619 113.041 C 70.194 117.112, 70.153 121.399, 73.519 123.605 C 76.010 125.237, 77.316 125.215, 86 123.396 C 88.938 122.780, 89.322 122.891, 88.392 124.081 C 87.782 124.862, 86.207 128.584, 84.892 132.352 L 82.500 139.205 75.500 142.701 C 67.577 146.659, 60 153.397, 60 156.486 C 60 157.624, 60.728 159.595, 61.619 160.866 C 63.013 162.857, 63.879 163.113, 67.869 162.717 C 70.416 162.464, 73.573 161.906, 74.884 161.477 C 77.259 160.700, 77.266 160.719, 76.557 166.390 C 76.166 169.521, 75.703 185.227, 75.529 201.292 C 75.305 221.917, 74.845 231.296, 73.964 233.209 C 72.909 235.500, 72.982 236.324, 74.438 238.546 C 75.385 239.991, 76.011 241.261, 75.830 241.367 C 75.648 241.474, 72.575 242.882, 69 244.497 C 65.425 246.112, 61.168 248.348, 59.539 249.466 C 57.911 250.585, 54.332 252.625, 51.585 254 C 48.839 255.375, 45.706 257.724, 44.622 259.221 C 40.846 264.438, 45.970 269.227, 51.922 266.042 C 52.907 265.515, 57.714 263.981, 62.606 262.633 C 67.498 261.285, 76.900 257.859, 83.500 255.020 C 90.100 252.181, 100.574 247.868, 106.775 245.436 C 121.723 239.574, 125.308 237.662, 126.891 234.703 C 127.996 232.638, 127.991 231.753, 126.856 229.386 C 124.506 224.482, 121.535 224.294, 112.490 228.478 C 108.095 230.511, 100.186 233.660, 94.914 235.477 L 85.328 238.780 87.164 235.178 C 88.174 233.198, 89 230.558, 89 229.312 C 89 227.993, 90.055 226.355, 91.524 225.392 C 92.913 224.482, 95.660 220.857, 97.629 217.336 C 99.598 213.815, 101.745 210.386, 102.399 209.717 C 103.053 209.048, 105.369 205.575, 107.544 202 C 111.345 195.755, 111.500 195.161, 111.500 186.863 C 111.500 178.878, 111.311 178.067, 109 176.121 C 105.567 173.230, 102.142 172.429, 100.453 174.120 C 99.695 174.879, 98.413 178.650, 97.604 182.500 C 96.794 186.350, 95.234 191.525, 94.136 194 L 92.141 198.500 92.118 187.500 C 92.105 181.450, 92.461 170.689, 92.910 163.588 C 93.713 150.878, 93.771 150.643, 96.613 148.641 C 98.201 147.522, 101.638 144.509, 104.250 141.946 C 109.785 136.516, 110.362 133.271, 106.483 129.392 C 103.756 126.665, 100.708 126.849, 98.172 129.896 C 96.970 131.340, 96.895 131.316, 97.423 129.657 C 98.954 124.842, 99.084 123.026, 98.041 121.077 C 97.017 119.163, 97.311 118.794, 101.206 117.105 C 117.135 110.200, 118 109.553, 118 104.541 C 118 98.648, 112.528 98.248, 95.941 102.926 M 239 116.930 C 237.322 117.902, 220.458 121.710, 212 123.026 C 208.975 123.497, 198.850 125.512, 189.500 127.504 C 173.789 130.851, 158.564 133.882, 146.657 136.034 C 140.532 137.140, 139 138.433, 139 142.492 C 139 146.047, 138.367 145.816, 153.185 147.659 C 161.387 148.679, 191.518 143.495, 224.500 135.388 C 226.281 134.950, 226.325 135.039, 224.896 136.202 C 220.305 139.938, 216 153.974, 216 165.209 L 216 172.630 212.250 174.539 C 210.188 175.589, 208.154 176.612, 207.731 176.814 C 207.307 177.015, 207.477 176.047, 208.107 174.664 C 210.489 169.437, 206.004 162.654, 199.339 161.404 C 193.586 160.325, 175.348 161.680, 171.799 163.450 C 170.081 164.307, 168.584 164.894, 168.472 164.754 C 168.360 164.614, 167.488 162.824, 166.533 160.776 C 165.148 157.806, 164.081 156.918, 161.257 156.388 C 158.269 155.828, 157.430 156.097, 155.881 158.112 C 154.230 160.258, 154.042 162.701, 154.022 182.227 L 154 203.954 156.359 205.500 C 159.025 207.247, 161.674 206.616, 164.069 203.663 C 165.605 201.769, 165.693 201.784, 168.274 204.364 C 170.117 206.208, 171.961 207, 174.409 207 C 178.777 207, 189.263 203.252, 195.091 199.607 C 197.516 198.090, 201.975 195.401, 205 193.630 C 208.025 191.860, 211.761 189.577, 213.301 188.557 L 216.103 186.703 215.792 228.601 C 215.621 251.646, 215.075 271.352, 214.578 272.394 C 213.734 274.166, 212.800 274.245, 200.088 273.619 C 190.342 273.139, 183.836 272.228, 177.080 270.397 C 169.184 268.258, 167.285 268.045, 165.346 269.082 C 162.716 270.490, 161.590 273.133, 162.457 275.863 C 163.643 279.602, 186.715 288.160, 201.089 290.193 C 220.287 292.908, 228.866 286.653, 230.976 268.406 C 231.490 263.964, 231.625 240.298, 231.285 214.395 C 230.642 165.519, 231.125 157.211, 235.139 148.012 C 236.216 145.544, 238.031 142.532, 239.171 141.318 C 241.731 138.593, 241.011 134.456, 237.799 133.436 C 235.910 132.837, 236.311 132.475, 240.663 130.851 C 247.520 128.293, 249.482 125.966, 249.118 120.821 C 248.840 116.877, 242.980 114.624, 239 116.930 M 173.890 177.729 L 169.279 178.098 168.605 186.181 C 168.234 190.627, 168.101 194.434, 168.309 194.642 C 168.517 194.850, 169.816 193.973, 171.197 192.693 C 172.578 191.414, 175.281 189.620, 177.204 188.707 C 180.254 187.260, 189 178.967, 189 177.522 C 189 176.984, 182.004 177.080, 173.890 177.729 M 47.280 192.020 C 44.311 193.215, 43.350 197.358, 45.338 200.393 C 47.603 203.850, 54.532 206.815, 62.144 207.583 C 68.548 208.230, 68.849 208.160, 70.512 205.621 C 71.978 203.384, 72.052 202.539, 70.999 199.997 C 70.036 197.672, 68.702 196.692, 65.008 195.595 C 62.395 194.819, 58.871 193.468, 57.178 192.592 C 53.786 190.838, 50.666 190.658, 47.280 192.020" stroke="none" fill="black" fill-rule="evenodd"/>
</svg>