<svg xmlns="http://www.w3.org/2000/svg" width="300" height="300" viewBox="0 0 300 300" version="1.1">
	<path d="M 79.853 31.993 C 77.688 34.158, 77.040 35.551, 77.510 37.033 C 78.566 40.360, 72.266 59.177, 66.032 71.317 C 51.596 99.425, 32.241 129.727, 23.512 137.882 C 20.617 140.587, 19.954 141.884, 20.196 144.364 C 20.552 147.995, 23.984 149.714, 28.610 148.577 C 32.390 147.647, 43.374 136.377, 48.975 127.681 C 52.749 121.822, 53.658 120.974, 55.434 121.653 C 56.570 122.088, 61.949 122.338, 67.388 122.209 L 77.275 121.973 76.638 126.626 C 76.287 129.185, 76 134.543, 76 138.531 C 76 147.017, 76.487 146.696, 61.750 147.950 C 54.391 148.576, 52.682 149.060, 51 151 C 48.183 154.248, 48.454 157.596, 51.706 159.727 C 54.600 161.624, 65.430 162.184, 71.794 160.766 L 75.089 160.032 74.794 187.766 C 74.451 220.082, 74.317 220.667, 66.800 222.575 C 62.392 223.693, 53.034 228.750, 50.577 231.340 C 49.097 232.900, 47 237.738, 47 239.593 C 47 242.070, 51.686 246, 54.640 246 C 56.142 246, 58.300 245.137, 59.436 244.082 C 61.993 241.706, 74.955 235.012, 77.010 235.005 C 77.841 235.002, 83.016 233.408, 88.510 231.462 C 94.005 229.516, 100.409 227.250, 102.741 226.426 C 109.418 224.066, 121.932 216.995, 123.016 214.970 C 124.536 212.130, 124.190 209.482, 122.045 207.540 C 119.416 205.162, 115.747 205.812, 104 210.737 C 98.775 212.928, 92.854 214.973, 90.842 215.282 L 87.184 215.844 88.092 212.679 C 88.591 210.938, 89 209.398, 89 209.257 C 89 209.115, 90.115 209, 91.477 209 C 93.448 209, 95.485 206.957, 101.451 199 C 110.546 186.870, 111.570 184.945, 112.472 178.285 C 113.299 172.178, 111.820 166.688, 108.774 164.555 C 106.973 163.293, 106.340 163.290, 103.934 164.534 C 101.189 165.953, 100.316 167.777, 97.966 177 C 96.966 180.924, 90.419 196, 89.715 196 C 89.573 196, 89.630 186.807, 89.842 175.571 L 90.227 155.143 94.614 150.432 C 98.859 145.874, 100.089 142.135, 98.235 139.427 C 96.934 137.528, 94.182 137.076, 92.951 138.559 C 90.782 141.172, 90.495 140.095, 91 131.251 C 91.537 121.859, 92.164 120.006, 94.809 119.990 C 97.652 119.974, 106.656 115.338, 107.348 113.534 C 108.481 110.582, 108.062 108.366, 106.023 106.520 C 104.273 104.937, 103.379 104.859, 98.273 105.841 C 91.910 107.064, 62.940 109.274, 62.255 108.588 C 62.018 108.351, 63.101 105.985, 64.662 103.329 C 66.223 100.674, 68.293 97.151, 69.261 95.501 C 70.230 93.850, 72.877 88.799, 75.143 84.276 L 79.263 76.051 84.058 80.362 C 87.867 83.787, 91.255 85.513, 100.553 88.765 C 112.901 93.085, 115.224 93.074, 116.370 88.692 C 117.521 84.290, 113.551 79.628, 106 76.515 C 101.631 74.714, 84.793 66.968, 84.211 66.492 C 84.052 66.362, 85.623 61.810, 87.703 56.378 C 90.650 48.677, 91.485 45.086, 91.492 40.083 C 91.497 35.833, 91.078 33.526, 90.250 33.250 C 89.563 33.021, 89 32.248, 89 31.533 C 89 30.400, 86.155 29.055, 83.673 29.014 C 83.218 29.006, 81.499 30.347, 79.853 31.993 M 202 39.625 C 199.525 40.411, 194.125 41.557, 190 42.172 C 185.875 42.787, 179.275 44.575, 175.333 46.145 C 166.721 49.576, 166.326 49.602, 165.435 46.797 C 163.232 39.853, 155.171 40.487, 153.348 47.748 C 152.540 50.970, 153.680 92.366, 155.009 108 C 156.733 128.293, 157.087 130.178, 159.662 132.752 C 162.560 135.651, 164.631 135.380, 167.338 131.751 C 169.367 129.032, 169.376 128.636, 168.226 94.803 C 167.587 75.993, 167.232 60.435, 167.438 60.229 C 167.643 60.023, 170.237 59.720, 173.202 59.555 C 178.444 59.264, 186.561 57.802, 204 54.007 C 208.675 52.990, 214.188 51.876, 216.250 51.533 L 220 50.909 220 67.430 L 220 83.950 217.435 82.975 C 216.024 82.439, 211.187 82.002, 206.685 82.004 C 200.457 82.007, 197.767 82.454, 195.436 83.876 C 192.790 85.489, 192.115 85.557, 190.495 84.372 C 187.756 82.370, 183.587 82.694, 181.429 85.078 C 179.332 87.395, 179.304 88.158, 180.518 109.406 C 181.175 120.896, 181.633 123.633, 183.156 125.156 C 185.539 127.539, 188.238 127.499, 190.455 125.049 C 192.384 122.918, 193.882 112.997, 193.956 101.867 C 194.008 94.026, 194.571 93.656, 204.294 95.062 C 207.707 95.556, 212.637 95.969, 215.250 95.980 L 220 96 220 104.349 C 220 108.941, 219.717 116.051, 219.370 120.148 L 218.741 127.597 209.620 129.868 C 197.455 132.898, 184.623 137.296, 177.188 140.985 C 173.846 142.643, 170.592 144, 169.957 144 C 169.322 144, 167.384 144.627, 165.651 145.394 C 163.918 146.161, 160.321 147.623, 157.659 148.644 C 154.996 149.665, 151.550 151.780, 150.001 153.345 L 147.184 156.191 145.499 152.638 C 143.067 147.513, 139.195 144, 135.980 144 C 132.196 144, 131.919 145.848, 133.627 159.755 C 134.606 167.728, 135.066 181.616, 135.061 203 C 135.057 220.325, 135.297 235.287, 135.594 236.250 C 136.448 239.012, 142.400 238.578, 144.758 235.581 C 147.432 232.181, 149.548 203.734, 148.682 182.820 L 148.048 167.500 151.774 165.806 C 153.823 164.874, 157.690 163.376, 160.367 162.477 C 163.044 161.577, 172.145 157.963, 180.592 154.446 C 189.039 150.929, 197.199 147.774, 198.725 147.437 C 200.251 147.099, 203.611 146.160, 206.192 145.350 C 210.458 144.011, 211.120 144.033, 213.487 145.584 C 215.709 147.040, 216.670 147.116, 220.049 146.103 C 222.227 145.451, 224.733 143.811, 225.619 142.459 C 227.547 139.516, 231.937 139.156, 234.252 141.750 C 237.749 145.669, 238.339 151.751, 238.393 184.500 C 238.450 218.672, 237.014 238.136, 232.899 259 C 230.162 272.870, 227.576 277.328, 220.433 280.487 C 215.660 282.598, 215 283.242, 215 285.784 C 215 293.393, 230.703 292.439, 238.160 284.376 C 244.776 277.224, 247.476 266.985, 250.933 235.936 C 252.590 221.057, 252.993 211.229, 252.965 186.436 C 252.924 150.402, 251.991 142.459, 246.924 135.033 C 243.393 129.859, 238.456 126, 235.367 126 C 233.516 126, 233.417 125.589, 234.106 120.750 C 235.046 114.151, 235.075 78.082, 234.155 59.284 L 233.459 45.069 230.033 41.534 L 226.608 38 216.554 38.099 C 210.898 38.154, 204.532 38.822, 202 39.625 M 51 180.762 C 45.047 182.697, 41.293 192, 46.465 192 C 47.821 192, 51.059 193.350, 53.661 195 C 59.616 198.777, 64.310 198.983, 66.548 195.567 C 67.788 193.675, 67.896 192.675, 67.036 191.067 C 66.427 189.930, 65.274 189, 64.473 189 C 63.671 189, 61.774 187.605, 60.258 185.899 C 57.009 182.247, 53.102 180.079, 51 180.762 M 176.722 184.493 C 174.093 185.216, 170.793 186.561, 169.387 187.482 C 167.056 189.009, 166.677 189.018, 165.087 187.578 C 162.512 185.248, 159.225 185.654, 156.452 188.646 C 153.072 192.293, 152.812 198.415, 155.578 209.229 C 156.384 212.379, 157.486 218.443, 158.026 222.703 C 159.372 233.325, 159.475 233.528, 164.485 235.441 C 168.738 237.065, 169.308 237.045, 178.708 234.938 C 184.093 233.730, 191.875 232.529, 196 232.267 C 204.082 231.755, 207 230.230, 207 226.519 C 207 223.840, 203.433 220.380, 199.721 219.459 L 196.943 218.769 201.364 214.042 C 207.424 207.563, 209.269 203.630, 209.212 197.306 C 209.154 190.876, 206.451 186.945, 200.467 184.588 C 195.582 182.665, 183.545 182.616, 176.722 184.493 M 180.687 199.476 C 176.950 200.293, 173.859 201.719, 172.034 203.468 C 169.544 205.853, 169.305 206.577, 170.097 209.338 C 170.594 211.070, 171 214.627, 171 217.243 C 171 219.860, 171.168 222, 171.373 222 C 171.578 222, 173.818 221.083, 176.352 219.963 C 183.773 216.680, 196.315 201.937, 194.368 198.786 C 193.680 197.674, 187.503 197.986, 180.687 199.476" stroke="none" fill="black" fill-rule="evenodd"/>
</svg>