<svg xmlns="http://www.w3.org/2000/svg" width="300" height="300" viewBox="0 0 300 300" version="1.1">
	<path d="M 85.632 18.250 C 84.855 19.488, 82.771 24.489, 81.001 29.366 C 78.175 37.155, 55.225 83.842, 47.509 97.500 C 42.099 107.076, 32.261 121.520, 29.199 124.382 C 27.171 126.277, 25.435 127.085, 24.127 126.743 C 21.516 126.061, 18 129.373, 18 132.516 C 18 135.157, 20.707 137.346, 25.290 138.410 C 29.427 139.371, 35.796 136.099, 40.874 130.405 C 43.279 127.707, 46.748 123.892, 48.582 121.927 C 53.167 117.013, 63.838 98.801, 74.350 77.949 C 79.189 68.352, 83.790 59.625, 84.576 58.556 C 85.984 56.640, 86.043 56.643, 88.752 58.777 C 94.218 63.082, 105.045 70.053, 110.834 72.995 C 118.181 76.729, 121.401 76.844, 123.622 73.455 C 125.862 70.035, 124.199 66.929, 118.066 63.080 C 115.555 61.503, 110.898 57.981, 107.717 55.253 C 104.536 52.525, 99.450 49.037, 96.416 47.502 C 92.218 45.378, 91.060 44.326, 91.577 43.105 C 94.495 36.209, 95.903 31.826, 96.518 27.730 C 97.128 23.658, 96.887 22.456, 94.866 19.488 C 91.997 15.275, 87.851 14.719, 85.632 18.250 M 235.085 26.727 C 233.757 26.978, 229.751 29.393, 226.182 32.095 C 221.623 35.546, 217.582 37.610, 212.596 39.035 C 191.112 45.177, 187.128 46.847, 174.843 54.856 C 165.932 60.666, 164.022 63.345, 165.492 67.975 C 166.807 72.117, 170.561 71.613, 182.368 65.708 C 190.309 61.736, 197.513 59.084, 207.500 56.457 C 222.932 52.399, 226.548 50.848, 235.707 44.358 C 243.158 39.079, 245 36.657, 245 32.138 C 245 26.942, 242.162 25.394, 235.085 26.727 M 207.270 63.199 C 204.738 66.309, 200 75.244, 200 76.910 C 200 78.514, 198.477 78.876, 187.250 79.937 C 171.389 81.436, 152.490 85.199, 147.154 87.922 C 142.368 90.363, 137.508 96.277, 138.393 98.582 C 139.142 100.533, 140.529 100.433, 172.902 96.101 C 185.772 94.379, 196.419 93.089, 196.561 93.235 C 196.702 93.381, 196.572 99.151, 196.272 106.057 L 195.726 118.613 192.942 118.205 C 191.163 117.944, 187.778 118.969, 183.560 121.045 C 179.930 122.832, 176.688 124.022, 176.356 123.689 C 176.023 123.356, 175.442 120.107, 175.066 116.469 C 174.359 109.645, 173.287 108.044, 169.405 108.015 C 165.029 107.983, 161 115.836, 161 124.396 L 161 129.856 155.250 130.507 C 147.496 131.384, 143.601 132.678, 141.404 135.106 C 139.744 136.940, 139.708 137.387, 141.033 139.725 C 143.162 143.480, 149.048 145.240, 157.768 144.726 C 164.935 144.304, 165.044 144.334, 165.563 146.899 C 166.240 150.246, 170.720 158.876, 173.221 161.649 C 175.457 164.128, 179.100 165.083, 181.405 163.793 C 183.537 162.600, 183.425 158.283, 181.066 150.709 C 177.313 138.661, 177.288 138.830, 183.246 136.036 C 186.136 134.681, 189.963 132.231, 191.750 130.590 L 195 127.608 195 154.190 L 195 180.773 190.311 181.476 C 187.732 181.863, 182.578 183.277, 178.856 184.620 C 174.886 186.052, 171.111 186.815, 169.721 186.466 C 167.170 185.826, 165.689 187.050, 164.560 190.733 C 163.561 193.993, 167.529 197.556, 173.063 198.369 C 175.637 198.747, 181.041 198.393, 185.931 197.525 C 190.569 196.703, 194.619 196.285, 194.931 196.598 C 195.244 196.910, 195.659 208.153, 195.853 221.583 L 196.205 246 176.353 246.012 C 155.521 246.024, 148.538 247.012, 143.679 250.636 C 141.151 252.520, 138.132 259.465, 139.322 260.656 C 140.241 261.574, 213.918 261.084, 242.500 259.968 C 278.637 258.558, 285.811 257.270, 289.581 251.517 C 291.782 248.158, 290.060 243.057, 285.893 240.596 C 282.869 238.810, 282.741 238.815, 279.987 240.851 C 276.556 243.388, 263.537 244.622, 229.423 245.645 L 206.681 246.326 207.391 243.913 C 207.782 242.586, 208.369 230.821, 208.697 217.768 L 209.292 194.036 212.896 193.420 C 214.878 193.082, 219.322 192.178, 222.771 191.412 C 238.229 187.979, 246.294 179.249, 239 173.846 C 236.555 172.035, 236.406 172.041, 232.250 174.102 C 229.841 175.296, 223.883 176.737, 218.500 177.426 L 209 178.644 209 156.970 L 209 135.296 217.184 134.665 C 221.685 134.318, 225.467 134.139, 225.589 134.267 C 226.052 134.754, 222.243 148.679, 221.003 151.033 C 220.289 152.390, 218.421 155.381, 216.852 157.680 C 213.541 162.533, 213.276 165.035, 215.829 167.345 C 219.367 170.547, 223.305 169.116, 226.674 163.403 C 227.678 161.700, 230.637 156.759, 233.250 152.424 C 235.863 148.089, 238 143.785, 238 142.860 C 238 141.935, 238.932 138.742, 240.072 135.764 C 241.766 131.338, 242.751 130.130, 245.475 129.145 C 250.389 127.368, 254 124.165, 254 121.582 C 254 119.296, 251.231 116, 249.310 116 C 248.603 116, 248.608 114.765, 249.325 112.077 C 250.128 109.067, 250.068 107.786, 249.064 106.577 C 245.904 102.769, 240.200 106.107, 235.549 114.486 C 233.096 118.906, 232.354 119.151, 217.607 120.427 L 209.714 121.109 210.440 106.805 C 210.839 98.938, 211.306 92.361, 211.477 92.189 C 211.648 92.018, 218.699 91.443, 227.144 90.911 C 238.343 90.205, 244.562 90.264, 250.116 91.130 C 259.276 92.557, 261 92.073, 261 88.072 C 261 84.265, 257.491 80.931, 251.045 78.613 C 246.981 77.152, 243.427 76.916, 229.497 77.182 L 212.817 77.500 213.546 74 C 213.946 72.075, 214.325 68.700, 214.387 66.500 C 214.493 62.734, 214.319 62.482, 211.415 62.199 C 209.718 62.033, 207.853 62.483, 207.270 63.199 M 88 94.822 C 70.908 100.864, 61.525 105.454, 58.990 109.014 C 56.593 112.381, 56.510 113.856, 58.557 116.777 C 60.702 119.841, 66.799 119.685, 74.500 116.369 C 77.800 114.949, 83.200 112.782, 86.500 111.555 C 89.800 110.328, 94.750 108.288, 97.500 107.021 C 100.250 105.755, 104.412 103.898, 106.750 102.895 C 110.715 101.193, 111 100.809, 111 97.158 C 111 89.021, 105.882 88.501, 88 94.822 M 87.223 115.557 C 86 116.413, 85 117.983, 85 119.046 C 85 120.109, 84.100 123.346, 83.001 126.239 C 81.901 129.133, 81.001 132.512, 81.001 133.750 C 81 135.083, 80.389 136, 79.500 136 C 78.675 136, 77.996 136.338, 77.992 136.750 C 77.988 137.162, 76.975 137.990, 75.742 138.588 C 51.326 150.438, 45.573 155.430, 50.571 160.429 C 53.588 163.445, 61.577 162.446, 70.380 157.951 C 74.715 155.738, 78.315 154.056, 78.381 154.214 C 78.448 154.371, 78.247 170.475, 77.935 190 C 77.458 219.940, 77.105 226.185, 75.685 229.876 C 73.593 235.309, 73.577 236.875, 75.590 239.099 C 77.064 240.728, 76.955 240.972, 74.102 242.447 C 72.409 243.323, 66.250 245.619, 60.415 247.551 C 48.570 251.473, 43 255.779, 43 261.017 C 43 266.693, 48.479 267.953, 57.706 264.400 C 61.443 262.961, 65.850 261.419, 67.500 260.972 C 69.150 260.525, 75.450 258.058, 81.500 255.489 C 87.550 252.920, 94.525 250.239, 97 249.531 C 99.475 248.823, 108.025 245.909, 116 243.055 C 134.772 236.336, 139.180 232.146, 134.087 225.861 C 132.307 223.663, 131.944 223.592, 128.837 224.825 C 127.002 225.554, 119.650 227.754, 112.500 229.715 C 100.944 232.883, 95.959 234.293, 88.308 236.555 L 86.116 237.203 87.884 232.547 C 89.010 229.579, 90.745 227.225, 92.666 226.057 C 97.262 223.262, 108.753 208.276, 111.096 202.020 C 116.258 188.242, 117.318 176.034, 113.881 169.946 C 112.007 166.626, 111.024 166.033, 107.364 166.015 C 104.737 166.002, 103.949 166.587, 102.511 169.617 C 101.529 171.687, 100.589 176.714, 100.313 181.367 C 99.827 189.557, 96.200 203.019, 93.512 206.605 C 92.265 208.269, 92.146 207.097, 92.533 197 C 92.775 190.675, 93.190 176.309, 93.454 165.076 L 93.934 144.652 98.872 140.076 C 106.086 133.391, 107.494 130.805, 105.823 127.303 C 104.001 123.485, 99.355 122.896, 96.840 126.166 L 95.044 128.500 95.022 124.815 C 94.988 119.191, 92.604 114.092, 89.973 114.015 C 89.682 114.007, 88.445 114.701, 87.223 115.557 M 44.517 189.392 C 43.132 190.777, 42 192.402, 42 193.004 C 42 195.742, 45.502 200.301, 51.545 205.427 C 57.098 210.138, 58.724 211, 62.057 211 C 67.449 211, 70.311 208.191, 68.937 204.249 C 68.357 202.586, 66.803 200.987, 65.167 200.369 C 63.636 199.791, 60.366 196.659, 57.901 193.409 C 52.518 186.314, 48.732 185.177, 44.517 189.392" stroke="none" fill="black" fill-rule="evenodd"/>
</svg>