<svg xmlns="http://www.w3.org/2000/svg" width="300" height="300" viewBox="0 0 300 300" version="1.1">
	<path d="M 174.750 35.758 C 170.092 38.646, 170.985 42.087, 177.720 47.207 C 181.603 50.157, 183.739 52.596, 184.370 54.796 C 185.513 58.780, 188.909 59.945, 192.507 57.587 C 194.526 56.264, 195 55.135, 195 51.641 C 195 48.204, 194.262 46.381, 191.365 42.662 C 187.437 37.621, 182.390 33.984, 179.382 34.027 C 178.347 34.041, 176.262 34.820, 174.750 35.758 M 85.889 37.662 C 83.966 38.177, 82 42.147, 82 45.516 C 82 48.043, 78.663 58.846, 75.178 67.599 C 72.527 74.259, 52.946 114.957, 49.004 122 C 48.542 122.825, 46.153 127.550, 43.694 132.500 C 37.019 145.939, 28.253 161.046, 25.995 163.004 C 23.772 164.932, 23.361 168.961, 25.200 170.800 C 27.871 173.471, 31.345 172.107, 36.973 166.176 C 40.013 162.973, 43.400 158.746, 44.500 156.783 C 53.680 140.404, 59.624 128.964, 69.054 109.524 C 75.074 97.114, 80 86.518, 80 85.980 C 80 84.315, 81.434 84.879, 85.038 87.959 C 86.942 89.587, 88.882 90.937, 89.349 90.959 C 89.816 90.982, 91.616 91.652, 93.349 92.448 C 98.665 94.891, 108.799 98, 111.445 98 C 114.923 98, 117.596 93.928, 115.901 91.213 C 114.376 88.771, 106.634 83.703, 102.034 82.135 C 100.128 81.485, 95.762 79.125, 92.332 76.891 L 86.097 72.828 88.174 67.664 C 91.189 60.172, 94.183 46.108, 93.462 42.827 C 92.919 40.356, 89.523 36.787, 88.027 37.116 C 87.737 37.180, 86.775 37.426, 85.889 37.662 M 183 70.021 C 154.565 71.072, 147.366 72.417, 144.535 77.210 L 142.738 80.253 138.025 75.126 C 135.433 72.307, 133.086 70, 132.809 70 C 132.532 70, 131.337 70.840, 130.153 71.867 C 128.467 73.330, 128 74.857, 128 78.912 C 128 84.082, 128.013 84.103, 137.147 93.545 C 142.178 98.745, 146.903 103, 147.647 103 C 148.391 103, 149.939 102.061, 151.087 100.913 C 153.625 98.375, 153.105 95.428, 149.067 89.444 L 146.278 85.311 161.389 84.158 C 169.700 83.523, 190.419 82.707, 207.431 82.343 L 238.362 81.681 233.772 87.590 C 231.247 90.841, 227.566 95.189, 225.591 97.252 C 220.350 102.729, 221.043 108, 227.005 108 C 232.151 108, 250.118 90.655, 253.645 82.282 C 255.666 77.484, 255.314 75.160, 252.077 71.923 L 249.154 69 225.327 69.168 C 212.222 69.261, 193.175 69.645, 183 70.021 M 193.500 93.127 C 190.200 93.650, 184.575 94.702, 181 95.464 C 177.425 96.225, 171.125 97.360, 167 97.984 C 158.040 99.340, 155.585 100.420, 154.110 103.657 C 152.520 107.148, 152.735 109.450, 154.829 111.345 C 157.772 114.009, 162.030 113.580, 188.722 107.935 C 193.794 106.862, 202.683 105.694, 208.476 105.340 C 215.136 104.933, 219.401 104.222, 220.076 103.408 C 221.848 101.274, 220.686 96.836, 217.793 94.686 C 214.602 92.314, 203.231 91.584, 193.500 93.127 M 100.450 113.814 C 99.607 114.537, 83.577 121.408, 77 123.867 C 72.489 125.553, 66 130.931, 66 132.983 C 66 134.067, 67.140 135.701, 68.533 136.613 C 71.841 138.781, 80.707 137.960, 85.681 135.026 C 87.645 133.867, 89.403 133.070, 89.588 133.255 C 89.773 133.440, 89.287 134.821, 88.507 136.324 C 87.728 137.826, 86.565 141.723, 85.924 144.982 L 84.758 150.908 77.629 153.020 C 67.344 156.065, 62.867 158.031, 59.750 160.870 C 56.441 163.883, 56.391 164.391, 59.135 167.135 C 61.053 169.053, 62.001 169.209, 68.422 168.666 C 72.356 168.334, 77.470 167.393, 79.787 166.575 L 84 165.089 83.999 182.294 C 83.998 206.100, 82.530 220.806, 79.874 223.634 C 78.579 225.013, 77.954 226.808, 78.166 228.540 C 78.473 231.052, 77.735 231.700, 69 236.590 C 58.489 242.475, 54 246.684, 54 250.656 C 54 253.580, 56.439 255.920, 59.539 255.968 C 61.426 255.998, 67.482 253.375, 71 251.005 C 74.344 248.752, 91.465 238.895, 107.198 230.164 C 126.197 219.622, 130.523 216.241, 129.441 212.778 C 127.690 207.168, 124.595 207.688, 106.852 216.574 C 95.947 222.036, 91.938 223.639, 92.478 222.324 C 92.890 221.321, 93.447 219.738, 93.715 218.806 C 93.984 217.875, 95.125 216.975, 96.252 216.806 C 99.418 216.333, 101.736 212.390, 105.917 200.362 C 110.820 186.263, 112.832 175.707, 111.031 173.537 C 110.329 172.692, 109.153 172, 108.417 172 C 105.521 172, 98.009 182.346, 96.951 187.790 C 96.516 190.027, 96.184 185.185, 96.115 175.596 L 96 159.692 100 156.268 C 102.939 153.752, 104 152.084, 104 149.979 C 104 146.734, 100.282 143.318, 98.591 145.009 C 98.046 145.554, 96.979 146, 96.221 146 C 94.606 146, 95.296 141.354, 97.628 136.533 C 98.455 134.823, 98.806 132.392, 98.455 130.796 C 97.938 128.442, 98.271 127.842, 100.673 126.797 C 109.047 123.155, 112.100 118.211, 108.171 114.655 C 106.237 112.905, 102.044 112.448, 100.450 113.814 M 183 128.958 C 172.275 129.256, 162.873 129.904, 162.106 130.398 C 161.340 130.892, 159.315 131.451, 157.606 131.640 C 151.779 132.287, 150.995 134.524, 151.043 150.361 C 151.075 160.665, 151.721 168.006, 153.423 177.425 C 155.880 191.019, 156.933 193, 161.705 193 C 163.063 193, 165.238 194.351, 166.938 196.250 L 169.847 199.500 183.174 199.214 C 200.887 198.834, 215.775 195.626, 217.979 191.716 C 219.329 189.322, 219.283 188.856, 217.452 186.404 L 215.446 183.716 221.123 178.301 C 232.471 167.477, 241.465 141.937, 236.563 134.456 C 235.618 133.013, 232.967 130.980, 230.672 129.938 C 226.145 127.883, 223.613 127.831, 183 128.958 M 182 143.027 C 172.375 143.379, 164.387 143.742, 164.250 143.834 C 163.598 144.268, 164.095 163.118, 164.750 162.782 C 171.095 159.531, 176.590 157.757, 187 155.601 C 203.087 152.270, 210.603 151.520, 215.192 152.787 C 218.816 153.788, 218.896 153.749, 219.562 150.653 C 219.935 148.919, 220.873 146.262, 221.646 144.750 L 223.051 142 211.276 142.194 C 204.799 142.301, 191.625 142.676, 182 143.027 M 197.095 167.530 C 190.822 168.836, 184.972 170.203, 184.095 170.566 C 183.218 170.930, 179.204 171.570, 175.176 171.988 C 171.147 172.407, 167.486 173.143, 167.040 173.624 C 166.594 174.106, 166.458 177.088, 166.738 180.250 L 167.248 186 179.874 185.993 C 186.818 185.989, 195.569 185.696, 199.320 185.342 C 205.937 184.717, 206.123 184.625, 205.528 182.254 C 205.061 180.394, 205.757 178.782, 208.445 175.501 C 211.408 171.886, 214 167.189, 214 165.435 C 214 164.511, 208.046 165.248, 197.095 167.530 M 54.141 189.548 C 51.298 193.163, 52.877 196.957, 60.430 204.658 C 64.970 209.287, 67.444 211.021, 70.243 211.534 C 74.636 212.339, 78.254 211.603, 80.388 209.470 C 82.840 207.017, 80.315 202.001, 76.628 201.999 C 74.122 201.997, 70.370 198.888, 66.975 194 C 61.840 186.607, 57.609 185.139, 54.141 189.548 M 245 215.091 C 199.618 217.381, 183.377 219.319, 152.876 226.087 C 148.133 227.139, 142.238 228, 139.775 228 C 128.136 228, 124.004 234.327, 132.827 238.641 C 137.584 240.967, 151.181 241.023, 159.500 238.750 C 167.177 236.653, 184.940 233.420, 196.500 232.017 C 207.608 230.668, 258.319 228.064, 274.203 228.027 C 287.011 227.997, 290.715 226.984, 291.651 223.255 C 292.615 219.414, 290.543 216.245, 286.299 215.066 C 282.092 213.898, 268.486 213.906, 245 215.091" stroke="none" fill="black" fill-rule="evenodd"/>
</svg>