<svg xmlns="http://www.w3.org/2000/svg" width="300" height="300" viewBox="0 0 300 300" version="1.1">
	<path d="M 221.405 22.102 C 220.087 23.556, 219.346 26.246, 219 30.825 L 218.500 37.446 209 38.599 C 203.775 39.233, 195.225 40.264, 190 40.890 C 184.775 41.515, 178.588 42.306, 176.250 42.645 L 172 43.263 171.998 38.882 C 171.997 34.201, 169.522 28.273, 166.905 26.678 C 164.070 24.950, 160.360 26.722, 158.470 30.705 C 156.969 33.868, 156.875 35.084, 157.850 38.731 C 158.483 41.095, 159 43.412, 159 43.880 C 159 44.348, 155.963 44.958, 152.250 45.236 C 148.537 45.514, 143.847 46.541, 141.828 47.519 C 137.296 49.712, 133.990 55.194, 135.649 57.765 C 136.583 59.213, 138.150 59.467, 145.134 59.300 C 149.735 59.190, 155.188 58.847, 157.250 58.538 L 161 57.976 161 61.866 C 161 65.726, 161.917 67.126, 165.217 68.301 C 167.728 69.195, 172.801 63.743, 173.188 59.735 C 173.468 56.827, 173.854 56.472, 177 56.225 C 178.925 56.073, 186.244 55.061, 193.264 53.975 C 200.285 52.889, 208.067 52, 210.560 52 L 215.091 52 214.417 55.750 C 214.046 57.813, 213.101 61.431, 212.317 63.792 C 210.667 68.761, 211.260 71.630, 214.123 72.539 C 219.508 74.248, 223.361 69.422, 226.128 57.500 C 226.766 54.750, 227.685 51.991, 228.169 51.368 C 228.676 50.715, 234.007 49.959, 240.774 49.579 C 247.223 49.217, 254.645 48.443, 257.266 47.857 C 264.392 46.266, 267.275 40.928, 262.991 37.260 C 261.246 35.766, 259.038 35.582, 246.241 35.862 L 231.500 36.185 231.829 29.743 C 232.082 24.772, 231.781 22.923, 230.507 21.650 C 228.214 19.357, 223.689 19.582, 221.405 22.102 M 77.966 32.888 C 74.389 34.315, 72.046 36.857, 70.454 41.041 C 62.855 61.005, 57.125 73.495, 39.907 107.635 C 20.097 146.916, 16.787 152.996, 12.253 158.444 C 8.426 163.042, 7.640 165.945, 9.627 168.140 C 15.322 174.433, 24.471 164.562, 40.342 135 C 44.033 128.125, 47.681 121.375, 48.448 120 C 53.096 111.665, 64.693 88.829, 69.910 77.737 L 74.031 68.974 76.516 70.602 C 77.882 71.498, 79 72.821, 79 73.542 C 79 75.737, 85.891 80.692, 92.084 82.950 C 95.301 84.123, 98.200 85.514, 98.526 86.042 C 99.369 87.405, 105.370 87.230, 106.800 85.800 C 110.512 82.088, 106.605 75.661, 97.800 70.991 C 94.335 69.153, 90.357 66.814, 88.961 65.793 C 87.503 64.726, 84.418 63.843, 81.718 63.718 C 79.131 63.598, 77.011 63.271, 77.007 62.992 C 76.994 62.014, 82.667 46.480, 83.828 44.316 C 86.974 38.451, 83.075 30.851, 77.966 32.888 M 206.018 75.135 C 203.418 77.736, 203 78.889, 203 83.470 C 203 89.621, 203.061 89.577, 193.102 90.559 L 186 91.258 186 85.694 C 186 78.960, 184.806 75.502, 181.955 73.976 C 178.841 72.310, 175.211 73.604, 173.055 77.150 C 171.191 80.214, 171.157 80.225, 169.845 78.124 C 166.854 73.334, 163.928 76.067, 159.051 88.204 C 156.337 94.959, 155.928 95.448, 152.011 96.605 C 149.724 97.280, 145.700 98.129, 143.069 98.491 C 140.438 98.852, 136.843 100.025, 135.081 101.097 C 132.383 102.738, 131.926 103.555, 132.188 106.273 L 132.500 109.500 143.816 109.141 L 155.132 108.782 154.582 112.141 C 154.280 113.988, 153.575 118.170, 153.016 121.434 C 150.184 137.971, 152.473 145.889, 161.393 150.402 C 165.826 152.645, 167.800 153, 175.822 153 C 180.933 153, 187.131 152.492, 189.595 151.872 C 192.060 151.251, 194.316 150.982, 194.608 151.275 C 194.900 151.567, 194.155 153.737, 192.951 156.097 C 191.660 158.627, 190.503 163.270, 190.131 167.414 L 189.500 174.441 185 175.225 C 168.740 178.059, 151.328 181.420, 144.359 183.071 C 139.882 184.132, 135.226 185, 134.013 185 C 132.801 185, 130.482 185.783, 128.861 186.741 C 124.955 189.049, 125.252 192.875, 129.500 194.952 C 133.988 197.146, 146.774 196.828, 160 194.193 C 166.325 192.933, 175.034 191.218, 179.353 190.380 C 183.672 189.543, 187.835 188.617, 188.603 188.322 C 191.252 187.306, 190.368 195.691, 187.500 198.783 C 186.125 200.266, 185 201.792, 185 202.174 C 185 202.556, 182.514 206.160, 179.475 210.184 C 176.436 214.208, 171.477 222.225, 168.454 228 C 161.677 240.947, 161.598 241.074, 155.664 248.747 C 153.004 252.186, 150.192 255, 149.414 255 C 148.636 255, 148 255.430, 148 255.955 C 148 256.480, 146.313 257.212, 144.250 257.581 C 139.433 258.445, 137 260.609, 137 264.033 C 137 268.044, 139.431 269.488, 146.028 269.399 C 153.047 269.303, 158.171 266.547, 165.682 258.827 C 171.291 253.061, 174.937 247.027, 183.959 228.583 L 189.788 216.666 190.416 226.583 C 190.762 232.037, 191.524 243.179, 192.110 251.342 C 193.158 265.922, 193.138 266.224, 191.006 268.494 C 188.083 271.605, 188.673 275.170, 192.323 276.449 C 196.368 277.865, 201.914 274.701, 204.433 269.540 C 206.299 265.716, 206.324 264.508, 205.163 234.540 C 204.502 217.468, 203.969 199.171, 203.980 193.880 L 204 184.260 208.750 183.023 C 219.717 180.168, 231.624 175.763, 233.735 173.779 C 235.992 171.659, 236.631 168.505, 235.235 166.385 C 233.635 163.957, 229.973 164.174, 217.502 167.436 C 210.352 169.306, 204.312 170.646, 204.079 170.413 C 203.846 170.180, 204.186 166.504, 204.834 162.244 C 205.483 157.985, 206.010 153.055, 206.007 151.289 C 206 148.286, 206.341 147.972, 211.250 146.453 C 219.993 143.749, 227.330 142.073, 230.595 142.036 C 234.270 141.993, 237 139.332, 237 135.794 C 237 132.778, 235.403 131.263, 230.847 129.955 C 226.987 128.847, 212.556 130.926, 202.059 134.103 C 187.878 138.396, 174.599 140.071, 168.250 138.370 C 166.287 137.844, 166 137.111, 166 132.633 C 166 129.810, 166.545 122.908, 167.211 117.296 C 168.376 107.485, 168.521 107.081, 170.961 106.796 C 172.749 106.588, 174.404 107.442, 176.554 109.682 C 180.460 113.751, 184.212 114.747, 187.507 112.587 C 190.162 110.848, 190.811 107.619, 188.760 106.352 C 187.916 105.830, 188.315 105.364, 190.010 104.892 C 195.073 103.483, 195.686 103.778, 195.554 107.558 C 195.422 111.372, 193.862 112.960, 190.224 112.985 C 187.365 113.004, 178.742 121.422, 179.191 123.755 C 179.369 124.677, 180.734 126.116, 182.226 126.953 C 184.723 128.355, 185.473 128.290, 191.719 126.129 C 195.448 124.839, 202.775 121.694, 208 119.141 C 218.409 114.056, 219.933 111.933, 215.996 107.996 C 214.338 106.338, 213.188 106.020, 210.772 106.550 L 207.675 107.230 210.252 103.937 C 212.147 101.516, 214.234 100.284, 218.132 99.287 C 224.381 97.687, 232.658 92.653, 233.524 89.923 C 234.442 87.034, 233.138 84.072, 230.683 83.466 C 228.754 82.989, 222.844 84.370, 217.755 86.485 C 216.200 87.131, 216.076 86.725, 216.620 82.755 C 217.365 77.323, 216.045 74.560, 212.040 73.164 C 209.345 72.224, 208.727 72.427, 206.018 75.135 M 91 110.597 C 82.753 114.174, 72.115 117.450, 67.101 117.955 C 62.837 118.386, 61.303 119.037, 59.802 121.055 C 57.356 124.342, 58.647 128.249, 62.907 130.452 C 66.671 132.399, 68.458 132.391, 75.135 130.401 C 91.108 125.640, 100 119.888, 100 114.315 C 100 109.048, 97.219 107.899, 91 110.597 M 86.110 130.528 C 82.364 134.794, 79 141.164, 79 143.992 C 79 145.131, 78.438 146.238, 77.750 146.451 C 77.063 146.665, 72.226 148.027, 67.003 149.478 C 61.779 150.929, 56.575 152.990, 55.438 154.058 C 54.301 155.126, 52.826 156, 52.161 156 C 50.291 156, 48.913 160.640, 49.963 163.402 C 51.302 166.925, 57.472 167.770, 63.237 165.219 C 65.641 164.156, 69.727 162.968, 72.317 162.580 L 77.026 161.874 76.448 168.687 C 76.131 172.434, 75.511 190.350, 75.072 208.500 C 74.632 226.650, 73.975 242.191, 73.612 243.036 C 73.248 243.881, 71.274 245.451, 69.225 246.526 C 67.176 247.601, 63.389 250.059, 60.809 251.990 C 58.229 253.920, 54.967 256.309, 53.559 257.297 C 50.383 259.526, 50.030 264.410, 52.932 265.964 C 55.727 267.460, 66.160 265.001, 73.500 261.117 C 80.488 257.420, 79.051 258.457, 107.500 236.574 C 122.785 224.816, 123.928 223.197, 120.443 218.223 C 117.550 214.092, 116.007 214.766, 94.150 229.703 C 87.239 234.426, 87.288 234.470, 88.620 224.759 C 89.226 220.335, 89.279 220.279, 91.120 222.120 C 93.645 224.645, 97.196 224.492, 99.732 221.750 C 105.311 215.716, 113.439 199.489, 114.934 191.397 C 115.495 188.365, 116.210 185.470, 116.523 184.963 C 117.430 183.496, 115.097 180, 113.215 180.004 C 110.269 180.010, 105.171 183.765, 102.746 187.714 C 101.467 189.796, 99.894 194.113, 99.251 197.307 C 98.608 200.501, 96.601 205.602, 94.791 208.642 C 92.981 211.683, 90.944 215.145, 90.265 216.336 C 89.247 218.120, 89.028 215.600, 89.018 202 C 89.012 192.925, 89.297 179.160, 89.652 171.411 L 90.296 157.323 94.555 154.629 C 99.487 151.508, 102 148.113, 102 144.570 C 102 141.718, 98.848 139.545, 95.849 140.329 C 94.069 140.795, 93.958 140.460, 94.562 136.432 C 96.025 126.682, 91.972 123.851, 86.110 130.528 M 47.378 199.993 C 45.060 200.919, 43.575 205.085, 44.511 208.035 C 45.401 210.838, 50.756 213.679, 57.702 215.032 C 65.004 216.456, 68.612 215.799, 69.539 212.879 C 70.623 209.461, 68.117 206.107, 63.577 204.900 C 61.335 204.305, 58.150 203.010, 56.500 202.023 C 52.371 199.553, 49.872 198.997, 47.378 199.993 M 207.939 204.061 C 204.467 207.533, 206.054 210.146, 212.466 211.514 C 215.703 212.204, 219.831 216.194, 233.178 231.529 C 237.951 237.013, 247.357 246.900, 254.081 253.500 C 260.805 260.100, 268.106 267.413, 270.307 269.750 C 276.355 276.175, 283 275.532, 283 268.523 C 283 263.776, 281.063 261.329, 258.446 237.500 C 250.615 229.250, 242.311 220.366, 239.992 217.758 C 234.522 211.606, 225.372 205.541, 218.582 203.567 C 211.585 201.533, 210.413 201.587, 207.939 204.061" stroke="none" fill="black" fill-rule="evenodd"/>
</svg>