<svg xmlns="http://www.w3.org/2000/svg" width="300" height="300" viewBox="0 0 300 300" version="1.1">
	<path d="M 81.265 24.098 C 78.620 25.076, 76.676 28.758, 74.981 36 C 72.506 46.577, 64.756 62.562, 50.496 86.500 C 47.875 90.900, 43.493 98.775, 40.758 104 C 28.698 127.041, 22.695 136.855, 16.630 143.445 C 12.446 147.992, 12.093 150.251, 15.223 152.443 C 19.017 155.101, 21.449 154.275, 28.240 148.018 C 34.355 142.384, 41.479 131.949, 47.936 119.168 L 50.124 114.837 52.094 117.108 C 54.004 119.311, 54.281 119.343, 61.282 118.164 C 65.252 117.496, 69.400 116.711, 70.500 116.421 C 72.407 115.917, 72.483 116.300, 72.143 124.696 L 71.785 133.500 66.143 136.218 C 55.170 141.502, 55.101 141.521, 53.694 139.596 C 52.780 138.347, 51.684 138.041, 49.805 138.513 C 46.905 139.241, 46.034 141.344, 46.014 147.677 C 46.003 151.051, 46.529 152.272, 48.750 154.023 C 52.272 156.799, 56.621 156.302, 65.610 152.096 C 69.248 150.393, 72.468 149, 72.766 149 C 73.063 149, 73.019 162.162, 72.666 178.250 C 71.979 209.655, 70.170 229.629, 67.877 231.121 C 67.120 231.613, 62.900 234.114, 58.500 236.677 C 48.480 242.515, 47.056 243.716, 45.339 247.773 C 44.295 250.240, 44.225 251.553, 45.057 253.106 C 46.036 254.935, 46.737 255.087, 51.330 254.463 C 57.845 253.577, 61.667 251.583, 82 238.459 C 112.327 218.884, 112.001 219.125, 111.968 216.251 C 111.951 214.738, 111.388 212.797, 110.718 211.938 C 107.580 207.914, 103.815 208.877, 92.064 216.710 C 84.728 221.600, 83.561 221.908, 84.333 218.750 C 84.636 217.512, 85.199 212.527, 85.586 207.671 C 86.222 199.668, 86.505 198.758, 88.611 197.958 C 91.132 196.999, 96.564 190.109, 97.528 186.649 C 97.857 185.467, 98.527 183.600, 99.018 182.500 C 102.399 174.923, 105 167.752, 105 166.009 C 105 162.718, 100.951 161.455, 96.767 163.440 C 92.913 165.269, 91.976 166.745, 89.108 175.500 L 87.143 181.500 87.071 160.683 L 87 139.866 90.500 136.565 C 92.670 134.519, 94 132.322, 94 130.787 C 94 128.018, 91.221 125, 88.671 125 C 87.335 125, 87 124.009, 87 120.059 C 87 117.341, 87.450 114.840, 88 114.500 C 88.550 114.160, 89 113.030, 89 111.988 C 89 110.659, 90.090 109.793, 92.656 109.084 C 96.797 107.941, 102 103.440, 102 101.001 C 102 98.729, 98.298 95, 96.043 95 C 95.009 95, 89.289 96.518, 83.332 98.374 C 77.374 100.230, 69.829 102.072, 66.565 102.469 C 63.301 102.866, 59.563 103.596, 58.258 104.092 C 56.953 104.588, 56.083 104.658, 56.324 104.247 C 59.388 99.024, 65.273 89.164, 66.021 88 C 66.551 87.175, 68.321 84.025, 69.955 81 C 71.590 77.975, 73.731 74.514, 74.713 73.309 L 76.500 71.118 89.175 77.336 C 96.146 80.756, 102.707 84.330, 103.754 85.277 C 104.832 86.253, 107.259 87, 109.350 87 C 116.697 87, 116.550 78.740, 109.103 73.195 C 107.122 71.719, 105.275 70.277, 105 69.990 C 103.287 68.205, 91.509 63.034, 86.713 61.960 C 83.571 61.257, 81 60.542, 81 60.371 C 81 60.199, 82.079 57.683, 83.398 54.780 C 86.641 47.639, 90 36.456, 90 32.799 C 90 29.244, 87.306 24.313, 85.039 23.720 C 84.152 23.488, 82.453 23.658, 81.265 24.098 M 167 27.118 C 163.509 29.223, 156.751 35.240, 143.500 48.043 C 134.926 56.327, 133.911 57.544, 131.729 62.151 C 129.256 67.374, 129.569 71.111, 132.856 75.600 C 141.640 87.593, 158.408 94.522, 166.027 89.308 C 169.224 87.120, 169.966 85.991, 169.985 83.285 C 170.001 80.889, 167.381 79, 164.041 79 C 161.252 79, 148.987 72.760, 146.618 70.136 C 144.883 68.213, 144.858 67.865, 146.304 65.659 C 147.166 64.343, 153.081 58.369, 159.448 52.383 C 165.815 46.397, 172.144 39.822, 173.512 37.771 C 176.593 33.155, 176.858 27.529, 174.066 26.035 C 171.440 24.630, 171.019 24.695, 167 27.118 M 203.434 28.725 C 194.526 33.604, 186.654 39.344, 180.920 45.142 C 173.870 52.271, 171.434 59.262, 173.174 67.376 C 175.858 79.889, 190.211 88.562, 199.923 83.540 C 203.754 81.559, 204.517 78.180, 201.790 75.277 C 200.614 74.025, 199.032 73, 198.276 73 C 196.042 73, 190.635 69.952, 188.772 67.642 C 183.982 61.703, 188.372 55.004, 203.891 44.573 C 209.375 40.887, 214.278 37.338, 214.786 36.686 C 216.650 34.296, 216.811 30.988, 215.157 29.039 C 212.375 25.759, 209.015 25.669, 203.434 28.725 M 249.500 31.795 C 244.807 32.729, 234.196 37.527, 230.500 40.387 C 224.846 44.762, 223.635 46.026, 221.175 50.118 C 218.511 54.549, 218.190 63.399, 220.570 66.796 C 222.570 69.652, 230.059 73.416, 236.500 74.803 C 247.027 77.070, 248.633 77.122, 250.808 75.270 C 256.871 70.108, 251.201 63.553, 236.755 59.023 C 233.437 57.982, 233.132 57.622, 234.077 55.856 C 235.055 54.029, 242.355 48.918, 249.803 44.846 C 253.768 42.678, 256.375 38.624, 255.647 35.757 C 254.953 33.021, 252.213 31.255, 249.500 31.795 M 218 90.611 C 212.951 91.196, 193.758 95.846, 185 98.608 C 180.875 99.908, 172.175 101.894, 165.667 103.020 C 148.756 105.946, 140.545 110.248, 141.193 115.843 C 141.537 118.824, 140.316 118.735, 158 117.062 C 163.225 116.567, 170.172 115.686, 173.438 115.103 C 176.705 114.520, 179.588 114.254, 179.845 114.512 C 180.417 115.084, 173.811 128.559, 171.306 131.929 C 170.313 133.266, 167.813 135.975, 165.750 137.951 C 157.576 145.782, 163.603 153.304, 173.858 148.072 C 177.968 145.976, 184.419 139.369, 186.224 135.408 C 187.006 133.691, 187.842 133.133, 188.928 133.604 C 189.793 133.979, 193.418 135.340, 196.985 136.628 C 200.551 137.917, 204.749 139.917, 206.314 141.074 C 209.777 143.634, 213.277 143.034, 215.606 139.478 C 219.078 134.180, 213.891 129.067, 198.908 123.020 L 193.316 120.763 193.775 115.632 C 194.028 112.809, 194.519 110.234, 194.867 109.908 C 196.588 108.297, 218.197 103.999, 224.500 104.014 C 231.984 104.032, 233.263 104.463, 234.321 107.328 C 235.217 109.752, 232.135 130.763, 230.379 134.200 C 225.769 143.226, 232.839 148.888, 239.779 141.728 C 245.283 136.050, 247.337 128.465, 247.424 113.500 C 247.494 101.587, 247.314 100.239, 245.270 97.373 C 244.043 95.654, 241.559 93.544, 239.751 92.686 C 236.344 91.069, 224.119 89.903, 218 90.611 M 124.041 109.170 C 121.458 111.924, 121.570 113.325, 125.504 127.500 C 127.031 133, 128.779 139.321, 129.390 141.547 C 131.713 150.018, 137.159 155.160, 141.644 153.117 C 144.658 151.743, 144.610 149.539, 141.283 136.500 C 140.160 132.100, 138.496 125.108, 137.586 120.963 C 135.792 112.799, 133.021 108.545, 128.805 107.487 C 126.861 106.999, 125.690 107.413, 124.041 109.170 M 214.676 142.121 C 211.389 144.033, 206.644 145.090, 197.072 146.043 C 188.706 146.876, 180.133 148.804, 163.494 153.592 C 160.741 154.384, 155.599 155.498, 152.067 156.067 C 144.302 157.317, 144 157.484, 144 160.524 C 144 164.601, 147.199 165.513, 161 165.374 C 171.549 165.267, 175.345 164.759, 185.318 162.124 C 191.817 160.406, 198.825 159, 200.889 159 C 209.592 159, 221.407 152.974, 222.505 147.977 C 223.655 142.744, 219.259 139.456, 214.676 142.121 M 224.700 170.573 C 221.212 174.061, 220.628 177.591, 220.581 195.500 C 220.534 213.099, 222.708 227.654, 227.091 239.085 C 228.691 243.257, 230 247.133, 230 247.698 C 230 249.758, 242.076 266.836, 246.109 270.479 C 248.388 272.539, 253.234 275.636, 256.877 277.362 C 262.482 280.018, 264.652 280.498, 271 280.488 C 277.913 280.478, 278.937 280.193, 284.078 276.861 C 291.246 272.214, 293.147 268.286, 290.557 263.476 C 289.580 261.661, 287.827 259.926, 286.662 259.622 C 284.522 259.062, 280 261.304, 280 262.925 C 280 264.189, 274.285 266, 270.296 266 C 265.856 266, 259.005 262.831, 254.620 258.751 C 250.266 254.698, 244.312 245.850, 242.359 240.529 C 236.001 223.204, 234.622 214.571, 234.530 191.500 C 234.460 174.083, 233.673 169, 231.047 169 C 230.561 169, 229.531 168.757, 228.758 168.460 C 227.984 168.164, 226.159 169.114, 224.700 170.573 M 180.134 172.866 C 179.039 173.961, 177.852 176.802, 177.496 179.181 C 177.139 181.560, 177.013 200.380, 177.216 221.003 C 177.541 253.967, 177.795 258.958, 179.321 262.285 C 181.499 267.037, 185.033 268.591, 190.176 267.059 C 194.348 265.816, 197.995 261.916, 201.555 254.891 C 204.184 249.702, 204.786 242.853, 202.750 241.278 C 199.661 238.888, 197.818 239.028, 194.978 241.868 C 191.579 245.267, 191 244.489, 191 236.527 C 191 231.567, 191.181 231.172, 193.750 230.530 C 195.262 230.153, 197.175 229.286, 198 228.604 C 198.825 227.923, 202.808 225.403, 206.852 223.006 C 215.341 217.973, 217.116 215.353, 214.619 211.541 C 213.703 210.143, 212.280 209, 211.455 209 C 210.631 209, 206.097 210.800, 201.379 213 C 196.661 215.200, 192.396 217, 191.901 217 C 191.405 217, 191 215.200, 191 213 C 191 210.800, 191.353 209, 191.784 209 C 192.555 209, 201.346 203.658, 205.750 200.513 C 208.415 198.610, 208.682 194.825, 206.319 192.462 C 204.643 190.786, 198.875 190.805, 193.390 192.506 C 191.415 193.118, 191.248 192.722, 190.780 186.330 C 189.886 174.125, 185.024 167.976, 180.134 172.866 M 132.218 177.750 C 131.614 179.813, 131.110 183.525, 131.096 186 C 131.083 188.475, 130.591 195.900, 130.002 202.500 C 127.251 233.330, 127.792 262.701, 131.237 269.500 C 133.568 274.102, 136.265 276, 140.471 276 C 143.931 276, 145.170 275.397, 148.179 272.250 C 152.638 267.585, 154 264.977, 154 261.101 C 154 256.462, 148.538 254.298, 144.973 257.525 C 143.415 258.935, 143.218 258.528, 142.349 252.109 L 141.409 245.168 144.116 244.627 C 147.508 243.948, 163.879 229.291, 164.650 226.243 C 165.434 223.140, 162.549 219, 159.602 219 C 158.309 219, 153.794 221.525, 149.569 224.610 C 145.344 227.696, 141.660 229.993, 141.382 229.715 C 141.104 229.437, 141.189 226.447, 141.572 223.071 C 142.215 217.379, 142.390 217.043, 143.962 218.465 C 146.459 220.725, 152.307 220.424, 154.575 217.917 C 155.611 216.772, 158.028 215.180, 159.945 214.379 C 164.011 212.680, 164.964 211.456, 164.985 207.905 C 165.003 204.840, 162.217 202, 159.191 202 C 155.793 202, 148.768 205.057, 145.632 207.900 L 142.764 210.500 143.582 198 C 144.622 182.109, 144.492 179.399, 142.543 176.425 C 141.320 174.559, 140.073 174, 137.135 174 C 133.584 174, 133.240 174.263, 132.218 177.750 M 44.682 177.035 C 41.267 179.722, 41.205 183.327, 44.475 189.176 C 47.722 194.986, 50.618 197.601, 55.845 199.445 C 59.714 200.810, 60.372 200.802, 62.567 199.364 C 65.814 197.237, 65.633 194.981, 61.933 191.437 C 60.246 189.822, 57.523 185.688, 55.882 182.250 C 54.241 178.813, 52.283 176, 51.531 176 C 50.779 176, 49.534 175.758, 48.764 175.463 C 47.994 175.167, 46.157 175.875, 44.682 177.035" stroke="none" fill="black" fill-rule="evenodd"/>
</svg>