<svg xmlns="http://www.w3.org/2000/svg" width="300" height="300" viewBox="0 0 300 300" version="1.1">
	<path d="M 207.802 43.949 C 205.769 44.345, 203.387 45.264, 202.510 45.992 C 201.302 46.994, 200.634 47.034, 199.758 46.158 C 197.760 44.160, 194.482 44.887, 191.514 47.986 C 188.733 50.888, 188.632 51.369, 187.890 65.236 C 186.932 83.169, 186.799 107.746, 187.639 111.943 C 187.990 113.699, 189.340 115.832, 190.639 116.683 C 192.777 118.084, 193.233 118.078, 195.465 116.615 C 196.820 115.727, 199.408 114.989, 201.215 114.976 C 203.022 114.964, 207.875 114.054, 212 112.956 C 219.162 111.050, 219.645 111.038, 222.708 112.685 C 225.743 114.317, 226.112 114.317, 229.521 112.692 C 232.126 111.449, 233.724 109.661, 235.289 106.237 C 239.514 96.991, 238.542 59.239, 233.834 49.771 C 231.254 44.581, 227.629 42.976, 218.800 43.115 C 214.785 43.178, 209.836 43.554, 207.802 43.949 M 137.807 49.750 C 134.997 53.022, 134.739 55.491, 134.372 82.573 C 134.171 97.463, 133.588 111.863, 133.077 114.573 C 132.423 118.049, 132.498 120.236, 133.334 122 C 134.594 124.659, 138.318 125.811, 140.310 124.158 C 141.198 123.420, 141.508 123.952, 141.505 126.207 C 141.501 128.338, 142.298 129.852, 144.161 131.254 C 146.446 132.975, 147.281 133.098, 150.073 132.124 C 151.861 131.501, 153.441 131.108, 153.583 131.250 C 153.726 131.393, 150.390 135.353, 146.171 140.051 C 132.363 155.426, 123.839 166.821, 124.220 169.398 C 124.374 170.442, 125.218 171.745, 126.095 172.295 C 129.326 174.319, 132.915 172.008, 141.209 162.559 C 145.755 157.380, 149.641 153.308, 149.844 153.511 C 150.047 153.713, 149.715 157.578, 149.106 162.099 C 147.672 172.752, 147.668 201.750, 149.100 205.857 C 150.353 209.452, 153.663 210.786, 156.955 209.024 C 160.248 207.262, 160.850 204.285, 160.259 192.694 L 159.713 182.004 162.920 183.122 C 165.148 183.899, 167.634 183.942, 171.063 183.264 C 175.499 182.387, 176 182.469, 176 184.072 C 176 185.054, 176.729 186.586, 177.619 187.476 C 179.571 189.429, 179.765 189.251, 173.140 191.585 C 164.414 194.660, 161.055 198.912, 164.571 202.429 C 167.617 205.474, 173.758 204.383, 186.500 198.533 C 193.424 195.354, 197.939 193.746, 203.221 192.578 C 204.718 192.247, 206.423 191.079, 207.010 189.982 C 207.882 188.352, 207.621 187.530, 205.584 185.493 C 202.689 182.599, 197.838 182.255, 191.538 184.499 C 189.359 185.275, 187.415 185.749, 187.219 185.552 C 187.022 185.355, 187.763 183.425, 188.866 181.262 C 190.468 178.123, 192.089 176.785, 196.911 174.621 C 205.468 170.780, 208.194 166.081, 204.336 161.818 C 202.775 160.094, 202.807 159.835, 204.836 157.675 C 207.507 154.831, 207.540 153.798, 205.029 151.526 C 203.338 149.996, 202.452 149.896, 198.811 150.820 C 196.475 151.413, 194.501 151.808, 194.422 151.699 C 194.344 151.590, 194.020 149.192, 193.701 146.370 L 193.123 141.241 200.311 139.504 C 211.586 136.780, 214.954 134.664, 214.985 130.285 C 215.004 127.549, 212.089 125.873, 208.332 126.460 C 198.227 128.038, 198 128.017, 198 125.510 C 198 122.950, 193.806 119, 191.088 119 C 188.020 119, 185 121.975, 185 124.998 C 185 126.584, 185.450 128.160, 186 128.500 C 188.263 129.898, 186.577 130.771, 178.570 132.344 C 166.571 134.701, 165.895 134.602, 169.777 131.056 C 172.069 128.964, 173 127.225, 173 125.043 C 173 123.354, 173.443 121.191, 173.985 120.236 C 174.527 119.281, 175.960 115.575, 177.169 112 C 179.129 106.207, 179.414 102.906, 179.790 81.653 C 180.254 55.342, 179.847 53.113, 173.932 49.619 C 170.149 47.384, 168.953 47.527, 159.124 51.387 C 146.853 56.206, 145 56.543, 145 53.953 C 145 48.647, 140.841 46.217, 137.807 49.750 M 90.254 55.717 C 89.568 55.963, 87.598 60.740, 85.876 66.332 C 84.154 71.924, 82.389 76.951, 81.955 77.502 C 81.521 78.054, 80.202 80.950, 79.024 83.939 C 73.694 97.463, 45.943 154, 44.635 154 C 41.585 154, 39.672 163.272, 42.200 165.800 C 44.209 167.809, 48.909 167.201, 51.298 164.623 C 53.740 161.986, 55.098 159.605, 65.394 139.897 C 72.137 126.990, 72.616 126.346, 74.770 127.309 C 76.339 128.010, 78.176 127.975, 80.719 127.194 C 82.743 126.573, 84.477 126.163, 84.573 126.282 C 84.670 126.402, 84.525 129.080, 84.252 132.232 L 83.755 137.965 77.441 141.496 C 70.680 145.277, 65 150.303, 65 152.505 C 65 157.229, 72.527 158.365, 78.215 154.500 C 80.238 153.125, 82.143 152, 82.447 152 C 84.221 152, 81.278 208.047, 78.376 229.530 C 77.758 234.110, 77.925 233.985, 60.500 242.795 C 48.029 249.101, 46 250.550, 46 253.155 C 46 255.733, 49.543 259, 52.339 259 C 54.840 259, 69.406 251.988, 82.500 244.481 C 86.900 241.958, 92.075 239.197, 94 238.344 C 105.138 233.413, 124.717 223.661, 126.230 222.292 C 128.543 220.198, 128.474 217.739, 126.039 215.536 C 123.623 213.349, 120.898 213.765, 111.500 217.755 C 107.650 219.389, 101.210 222.130, 97.188 223.845 C 91.033 226.470, 89.954 226.690, 90.365 225.232 C 90.634 224.279, 91.155 221.564, 91.524 219.197 C 91.916 216.675, 93.243 213.778, 94.730 212.197 C 98.879 207.784, 110 182.541, 110 177.535 C 110 175.620, 106.067 172, 103.986 172 C 101.205 172, 97.728 176.722, 95.324 183.765 C 93.940 187.817, 93.230 189.106, 93.540 187 C 93.824 185.075, 94.341 175.012, 94.690 164.638 C 95.078 153.079, 95.745 145.410, 96.412 144.829 C 97.010 144.308, 98.938 143.030, 100.696 141.988 C 102.453 140.947, 104.640 138.952, 105.556 137.555 C 109.004 132.293, 104.354 127.227, 99.186 130.614 C 97.888 131.464, 96.663 131.997, 96.464 131.798 C 96.265 131.598, 95.967 128.988, 95.801 125.996 L 95.500 120.557 101.002 118.528 C 108.259 115.852, 109 115.300, 109 112.563 C 109 106.962, 101.851 106.157, 90.014 110.427 C 86.070 111.850, 81.940 113.497, 80.836 114.088 C 79.732 114.679, 78.617 114.950, 78.357 114.691 C 78.098 114.431, 80.107 109.522, 82.821 103.781 C 85.535 98.041, 88.053 92.409, 88.415 91.267 C 89.025 89.346, 89.285 89.295, 91.890 90.595 C 93.439 91.368, 97.585 92.251, 101.103 92.558 C 104.621 92.865, 109.409 93.598, 111.743 94.186 C 119.430 96.125, 121.760 90.631, 115.560 85.187 C 112.285 82.311, 109.672 81.481, 97.750 79.525 C 95.688 79.186, 94 78.763, 94 78.585 C 94 78.407, 94.900 75.443, 96 72 C 97.100 68.557, 98 64.773, 98 63.592 C 98 59.604, 93.153 54.677, 90.254 55.717 M 201 62.220 L 201 67.950 203.565 66.975 C 209.855 64.584, 216.193 66.087, 218.590 70.538 C 220.312 73.735, 220.315 73.994, 218.660 75.824 C 216.809 77.869, 211.228 79.242, 204.250 79.369 C 200.874 79.431, 200 79.812, 200 81.224 C 200 83.435, 202.739 83.513, 209.409 81.489 C 216.572 79.316, 219.518 79.571, 221.875 82.568 C 226.101 87.940, 219.996 92.422, 206.771 93.657 L 200.230 94.268 199.706 98.884 C 199.418 101.423, 199.341 103.663, 199.537 103.862 C 199.732 104.062, 202.021 103.499, 204.624 102.612 C 210.057 100.761, 218.196 100.500, 221.151 102.081 C 222.262 102.676, 223.350 102.983, 223.569 102.765 C 224.839 101.494, 225.116 80.613, 224.014 69.148 L 222.749 55.979 211.874 56.234 L 201 56.490 201 62.220 M 161 63.723 C 157.804 65.237, 153.615 66.364, 151 66.414 L 146.500 66.500 146.818 75.735 L 147.137 84.971 150.818 83.121 C 154.765 81.137, 161.549 79.497, 164 79.933 C 164.825 80.080, 165.831 80.717, 166.235 81.350 C 166.639 81.982, 166.976 77.662, 166.985 71.750 C 166.993 65.838, 166.887 61.027, 166.750 61.060 C 166.613 61.092, 164.025 62.291, 161 63.723 M 162.696 90.942 C 160.277 92.491, 160.140 92.809, 161.696 93.256 C 162.688 93.540, 164.287 94.097, 165.250 94.494 C 166.696 95.089, 167 94.674, 167 92.107 C 167 88.566, 166.583 88.453, 162.696 90.942 M 146 93.243 C 146 95.585, 146.051 95.595, 152.250 94.552 L 158.500 93.500 153.500 92.982 C 150.750 92.697, 147.938 92.108, 147.250 91.673 C 146.380 91.122, 146 91.599, 146 93.243 M 158.500 105.641 C 155.200 106.452, 150.859 106.970, 148.853 106.791 L 145.207 106.467 144.695 111.983 C 144.413 115.018, 143.846 118.625, 143.435 120 C 142.707 122.428, 142.743 122.450, 144.675 120.747 C 145.769 119.783, 147.752 119.052, 149.082 119.123 C 152.788 119.320, 161.203 115.796, 163.702 113 C 165.804 110.649, 166.977 103.891, 165.250 104.083 C 164.838 104.129, 161.800 104.830, 158.500 105.641 M 171.264 145.329 C 163.099 146.320, 163.025 146.355, 162.561 149.414 C 162.304 151.111, 161.827 154.188, 161.502 156.250 C 160.800 160.692, 160.742 160.681, 172.500 158.185 L 180.500 156.487 181 150.243 C 181.311 146.363, 181.121 144.062, 180.500 144.164 C 179.950 144.255, 175.794 144.779, 171.264 145.329 M 175.813 169.683 C 176.534 169.972, 177.397 169.936, 177.729 169.604 C 178.061 169.272, 177.471 169.036, 176.417 169.079 C 175.252 169.127, 175.015 169.364, 175.813 169.683 M 161.003 172.163 C 161.001 173.527, 161.495 173.666, 163.750 172.936 C 165.262 172.446, 168.300 171.638, 170.500 171.142 C 174.148 170.318, 173.907 170.251, 167.753 170.370 C 162.182 170.477, 161.006 170.790, 161.003 172.163 M 50.063 183.381 C 47.312 188.523, 52.084 198.165, 59.769 202.991 C 64.765 206.129, 68.808 206.792, 70.800 204.800 C 73.103 202.497, 72.109 199.182, 68.164 196.012 C 66.055 194.316, 63.288 191.033, 62.016 188.715 C 58.646 182.575, 57.013 181, 54.014 181 C 52.219 181, 50.919 181.784, 50.063 183.381 M 186 209.091 C 182.975 210.105, 176.048 211.867, 170.606 213.009 C 165.165 214.150, 159.877 215.531, 158.856 216.077 C 156.198 217.500, 156.415 222.477, 159.223 224.443 C 162.005 226.392, 164.599 226.395, 173.877 224.459 C 177.934 223.613, 181.392 223.059, 181.562 223.228 C 182.054 223.721, 173.920 238, 173.146 238 C 172.761 238, 171.080 236.762, 169.411 235.250 C 156.756 223.782, 155.635 223, 151.834 223 C 149.049 223, 147.150 223.808, 144.535 226.104 C 140.663 229.503, 140.202 231.093, 142.530 233.025 C 143.739 234.028, 144.614 234.041, 146.707 233.088 C 148.889 232.093, 149.499 232.141, 150.180 233.357 C 150.634 234.168, 154.604 237.833, 159.003 241.502 C 163.401 245.171, 167 248.543, 167 248.995 C 167 249.448, 164.621 252.334, 161.713 255.409 C 157.119 260.267, 155.933 261, 152.667 261 C 147.473 261, 143.368 264.934, 145.111 268.243 C 146.779 271.410, 147.911 271.967, 152.715 271.985 C 160.059 272.011, 165.985 269.321, 172.500 263.003 L 178.500 257.184 181.666 259.342 C 183.408 260.529, 189.258 264.674, 194.666 268.553 C 217.004 284.575, 229.510 291.295, 239.250 292.512 C 246.006 293.356, 250 291.531, 250 287.599 C 250 284.464, 248.435 283.398, 242.744 282.656 C 237.905 282.026, 227.105 277.037, 224.945 274.434 C 224.291 273.645, 223.334 273, 222.820 273 C 221.584 273, 197.655 256.755, 185.205 247.463 C 185.042 247.342, 186.268 244.938, 187.928 242.121 C 189.589 239.305, 192.804 232.473, 195.074 226.939 C 200.485 213.743, 199.920 210.157, 192 207.422 C 191.725 207.327, 189.025 208.078, 186 209.091" stroke="none" fill="black" fill-rule="evenodd"/>
</svg>