<svg xmlns="http://www.w3.org/2000/svg" width="300" height="300" viewBox="0 0 300 300" version="1.1">
	<path d="M 208.887 20.713 C 207.563 22.300, 203.336 28.577, 200.515 33.144 C 199.957 34.048, 197.549 38.414, 195.164 42.846 C 190.836 50.887, 190.818 50.905, 186.164 51.484 C 183.599 51.804, 176.775 53.005, 171 54.153 C 165.225 55.302, 158.311 56.618, 155.634 57.079 C 149.839 58.076, 141 60.868, 139.250 62.255 C 137.474 63.661, 137.702 67.509, 139.657 69.128 C 142.127 71.173, 165.536 70.844, 173.899 68.646 C 177.419 67.722, 180.531 67.198, 180.816 67.482 C 181.366 68.033, 176.827 75.013, 168.388 86.593 C 163.485 93.320, 163.045 93.661, 159.859 93.217 C 155.900 92.665, 154 91.356, 154 89.181 C 154 88.316, 152.814 85.896, 151.364 83.804 C 149.205 80.688, 148.126 80, 145.399 80 C 140.976 80, 139.616 82.570, 140.528 89.206 C 141.312 94.902, 145.854 100.868, 151.043 103.018 L 154.064 104.269 151.282 107.164 C 149.752 108.756, 144.900 113.271, 140.500 117.197 C 136.100 121.123, 132.173 125.170, 131.774 126.191 C 130.881 128.472, 134.074 132, 137.032 132 C 139.705 132, 145.943 129.361, 148.288 127.239 C 150.324 125.397, 150.318 125.524, 147.980 134.761 C 146.375 141.105, 149.479 154.902, 155.093 166.379 C 158.860 174.079, 159.710 175, 163.051 175 C 166.618 175, 169 172.634, 169 169.093 C 169 166.338, 169.035 166.324, 178.750 165.221 C 187.626 164.213, 201.864 159.771, 208.236 156.022 C 210.841 154.489, 212 154.780, 212 156.965 C 212 160.956, 218.865 162.298, 222.740 159.064 C 223.972 158.036, 227.537 151.960, 230.661 145.562 C 237.814 130.913, 238.676 125.026, 234.540 119.058 C 228.066 109.716, 217.701 108.999, 184.567 115.600 C 174.839 117.538, 172.113 118.476, 169.817 120.676 C 167.020 123.355, 166.291 126.335, 167.836 128.768 C 170.151 132.417, 180.192 132.170, 198 128.028 C 208.539 125.577, 222 125.275, 222 127.489 C 222 128.309, 220.827 131.909, 219.394 135.489 L 216.787 142 212.396 142 C 209.825 142, 203.135 143.704, 196.253 146.113 C 189.789 148.375, 181.312 150.772, 177.415 151.440 C 173.519 152.109, 169.265 153.402, 167.962 154.314 L 165.593 155.973 164.291 150.886 C 163.575 148.088, 162.592 142.241, 162.105 137.892 C 161.180 129.628, 159.121 125.106, 155.898 124.263 C 154.854 123.990, 154 123.517, 154 123.212 C 154 122.908, 159.288 117.223, 165.750 110.579 C 176.587 99.439, 185.477 87.881, 192.187 76.210 C 194.850 71.576, 194.881 71.558, 195.835 74.067 C 196.948 76.993, 206.827 86.396, 215.160 92.459 C 220.738 96.518, 220.847 96.686, 218.952 98.309 C 216.498 100.410, 216.440 104.183, 218.829 106.345 C 221.390 108.663, 224.055 108.410, 228.038 105.472 C 231.848 102.661, 234.726 102.797, 241 106.084 C 246.470 108.950, 259.984 115, 260.916 115 C 261.377 115, 262.373 115.745, 263.128 116.655 C 263.882 117.565, 266.005 118.939, 267.845 119.708 C 270.773 120.932, 271.489 120.910, 273.595 119.530 C 277.315 117.092, 276.805 112.883, 272.250 108.431 C 267.785 104.067, 258.252 98.173, 249.750 94.518 C 247.688 93.632, 246.004 92.590, 246.010 92.203 C 246.015 91.816, 247.590 89.524, 249.510 87.109 C 253.593 81.973, 253.879 79.622, 250.676 77.524 C 248.594 76.159, 247.881 76.162, 243.800 77.553 C 241.295 78.406, 237.537 80.625, 235.448 82.483 L 231.650 85.862 227.893 83.945 C 225.826 82.891, 223.854 81.572, 223.509 81.014 C 223.164 80.456, 222.148 80, 221.251 80 C 219.688 80, 206.056 72.329, 204.980 70.843 C 204.105 69.636, 198.890 67.950, 197.908 68.557 C 197.400 68.871, 197.495 68.008, 198.118 66.641 C 199.542 63.515, 199.850 63.444, 222.630 60.986 C 243.617 58.721, 248.947 57.616, 252.547 54.784 C 256.658 51.550, 255.517 44.752, 250.881 44.860 C 242.761 45.050, 213.018 47.061, 210.644 47.581 L 207.787 48.206 211.463 41.633 C 213.951 37.184, 215.293 33.355, 215.617 29.780 C 216.361 21.589, 212.497 16.384, 208.887 20.713 M 84.702 43.401 C 83.277 44.721, 78.427 53.158, 73.925 62.149 C 69.423 71.141, 63.435 82.472, 60.620 87.329 C 57.804 92.186, 54.567 97.897, 53.427 100.020 C 52.287 102.144, 50.218 105.595, 48.829 107.690 C 46.355 111.422, 38.110 124.544, 35.753 128.500 C 35.098 129.600, 32.410 133.752, 29.781 137.727 C 27.151 141.701, 25 145.196, 25 145.492 C 25 145.788, 23.361 148.499, 21.358 151.515 C 18.876 155.254, 17.046 157.005, 15.608 157.015 C 12.448 157.038, 11.068 158.277, 9.982 162.064 C 7.607 170.344, 9.820 175, 16.130 175 C 19.037 175, 26.012 168.101, 30.789 160.500 C 34.608 154.424, 45.818 137.190, 49.978 131 C 52.010 127.975, 53.995 124.616, 54.388 123.536 C 55.065 121.673, 55.164 121.695, 56.301 123.973 C 58.057 127.491, 62.761 128.347, 71.444 126.729 L 78.755 125.367 77.915 127.933 C 77.453 129.345, 76.173 132.975, 75.070 136 C 73.968 139.025, 73.045 142.400, 73.020 143.500 C 72.975 145.517, 69.748 147.111, 53.736 153.025 C 49.516 154.584, 47.565 155.941, 46.453 158.090 C 45.007 160.888, 45.058 161.149, 47.551 163.641 C 49.973 166.063, 50.659 166.222, 56.841 165.779 C 60.512 165.517, 65.017 164.526, 66.851 163.577 C 68.685 162.629, 70.412 162.079, 70.689 162.355 C 71.252 162.919, 69.501 197.150, 67.979 215.331 C 67.434 221.838, 66.244 229.436, 65.334 232.216 C 64.223 235.614, 63.994 237.767, 64.636 238.784 C 65.405 240.004, 64.051 241.093, 57.654 244.399 C 47.935 249.422, 44.833 252.253, 43.066 257.718 C 41.915 261.274, 41.915 262.192, 43.061 263.574 C 45.469 266.475, 51.604 264.671, 66.713 256.616 C 74.530 252.449, 85.643 247.025, 91.409 244.562 C 97.175 242.099, 102.704 239.636, 103.696 239.088 C 104.688 238.540, 107.525 237.171, 110 236.047 C 117.738 232.531, 125.841 227.075, 126.525 224.920 C 126.886 223.783, 126.636 221.536, 125.969 219.926 C 124.376 216.080, 121.695 216.122, 113.162 220.125 C 109.498 221.844, 105.150 223.606, 103.500 224.041 C 98.591 225.333, 79.990 232.763, 78.437 234.052 C 76.612 235.567, 76.634 234.995, 78.636 228.874 C 79.792 225.339, 80.584 224.184, 81.336 224.936 C 83.410 227.010, 86.183 225.940, 91.310 221.090 C 99.270 213.561, 102.909 205.555, 104.208 192.716 C 105.355 181.367, 105.027 178.489, 102.181 174.976 C 99.670 171.874, 95.831 172.919, 93.020 177.468 C 91.394 180.098, 90.735 183.189, 90.299 190.220 C 89.972 195.511, 88.914 201.649, 87.839 204.500 C 85.943 209.528, 82.378 214.712, 81.453 213.786 C 81.179 213.513, 81.620 207.261, 82.432 199.894 C 83.245 192.527, 84.412 179.300, 85.027 170.500 L 86.144 154.500 90.045 151 C 95.253 146.328, 96.007 142.916, 92.587 139.496 C 91.155 138.064, 89.607 137.125, 89.147 137.409 C 88.688 137.693, 88.354 134.099, 88.406 129.423 C 88.497 121.203, 88.583 120.902, 91 120.360 C 98.217 118.741, 101.623 117.703, 102.750 116.780 C 104.767 115.126, 104.306 109.234, 102.066 108.035 C 98.552 106.155, 89.717 106.905, 80.459 109.870 C 72.199 112.516, 61 114.675, 61 113.622 C 61 113.377, 62.895 109.890, 65.210 105.873 C 71.037 95.766, 73.509 91.218, 75.948 86.115 C 77.879 82.076, 78.181 81.851, 79.772 83.265 C 80.723 84.110, 84.752 85.761, 88.727 86.936 C 93.187 88.253, 97.197 90.206, 99.200 92.036 C 104.496 96.872, 109 95.599, 109 89.265 C 109 83.130, 103.325 77.690, 92 72.967 C 88.975 71.705, 86.119 70.343, 85.653 69.940 C 85.188 69.537, 86.704 65.223, 89.023 60.353 C 94.408 49.048, 95.084 44.873, 91.891 42.636 C 88.778 40.456, 87.763 40.564, 84.702 43.401 M 202 170.020 C 200.075 171.056, 196.250 172.434, 193.500 173.083 C 190.750 173.732, 185.575 175.122, 182 176.172 C 173.126 178.777, 167.425 179.496, 166.573 178.118 C 164.642 174.994, 159 179.479, 159 184.138 C 159 186.271, 159.940 188.076, 162.106 190.099 C 166.718 194.408, 172.569 194.050, 189.785 188.405 C 192.142 187.632, 194.392 187, 194.785 186.999 C 195.178 186.999, 195.516 193.412, 195.535 201.249 C 195.554 209.087, 195.755 227.200, 195.982 241.500 C 196.458 271.507, 196.010 274.401, 190.219 278.717 C 185.507 282.229, 185.034 282.907, 185.015 286.179 C 184.964 295.198, 197.990 293.162, 205.255 283.014 C 210.999 274.992, 213 249.220, 210.109 220.500 C 209.500 214.450, 209.001 203.357, 209.001 195.849 L 209 182.198 212.524 180.118 C 214.462 178.975, 216.310 177.354, 216.632 176.517 C 217.547 174.133, 216.174 170.182, 214.248 169.654 C 208.739 168.143, 205.300 168.246, 202 170.020 M 35.983 192.321 C 32.723 193.946, 31.283 198.130, 32.821 201.505 C 35.320 206.992, 50.275 211.030, 56.316 207.850 C 62.928 204.370, 60.366 197, 52.543 197 C 50.168 197, 46.811 195.894, 43.588 194.050 C 39.086 191.475, 38.121 191.255, 35.983 192.321 M 236.797 205.680 C 232.620 206.780, 234.090 213.268, 240.493 221.990 C 242.420 224.616, 244.561 228.067, 245.249 229.660 C 248.172 236.422, 263.570 259.460, 267.219 262.531 C 268.833 263.889, 271.414 265, 272.954 265 C 278.880 265, 279.838 259.337, 275.320 251.016 C 263.776 229.755, 260.970 225.740, 250.323 215.250 C 244.602 209.613, 239.601 205.052, 239.210 205.116 C 238.820 205.180, 237.734 205.434, 236.797 205.680 M 168.787 222.258 C 163.427 225.503, 159.619 231.261, 155.708 242.035 C 149.993 257.776, 149.537 259.688, 150.818 262.501 C 151.705 264.446, 152.703 265, 155.324 265 C 157.266 265, 159.353 264.260, 160.257 263.250 C 161.870 261.449, 169.976 245.148, 169.991 243.675 C 169.996 243.221, 171.791 239.835, 173.980 236.151 C 178.853 227.948, 179.825 223.968, 177.521 221.664 C 175.290 219.433, 173.220 219.574, 168.787 222.258" stroke="none" fill="black" fill-rule="evenodd"/>
</svg>