<svg xmlns="http://www.w3.org/2000/svg" width="300" height="300" viewBox="0 0 300 300" version="1.1">
	<path d="M 209 43.641 C 190.767 46.568, 180.700 49.427, 178.912 52.187 C 178.588 52.686, 177.746 52.398, 177.039 51.547 C 175.462 49.646, 171.327 49.530, 169.521 51.336 C 166.959 53.898, 166.011 60.605, 166.006 76.203 C 166.002 86.008, 165.563 92.866, 164.836 94.461 C 163.927 96.455, 163.960 97.558, 164.987 99.476 C 165.959 101.291, 166.151 104.814, 165.723 112.933 C 165.235 122.181, 164.813 124.284, 163.071 126.154 C 161.848 127.467, 161 129.722, 161 131.663 C 161 134.290, 161.591 135.254, 163.950 136.474 C 167.656 138.391, 169.895 138.405, 171.971 136.527 C 173.371 135.259, 178.134 133.885, 198 129.017 C 199.925 128.545, 203.975 127.454, 207 126.591 C 210.025 125.729, 213.642 125.018, 215.039 125.012 C 216.435 125.005, 219.202 124.172, 221.188 123.159 L 224.798 121.318 225.527 138.800 C 226.543 163.203, 225.466 249.706, 223.943 265.998 C 222.747 278.786, 222.532 279.635, 219.841 282.149 C 216.378 285.383, 216.283 286.978, 219.382 289.889 C 221.235 291.630, 222.710 292.057, 226.032 291.813 C 231.792 291.391, 233.561 288.720, 235.517 277.500 C 239.279 255.913, 239.905 147.353, 236.499 107 C 235.687 97.375, 234.579 84.325, 234.039 78 C 231.822 52.070, 230.080 45.724, 224.478 43.172 C 221.461 41.797, 220.259 41.834, 209 43.641 M 61.873 51.750 C 61.098 53.728, 61.117 57.589, 61.940 65.500 C 63.785 83.228, 62.915 168.763, 60.506 206.500 C 60.225 210.900, 59.752 223.348, 59.455 234.163 C 58.916 253.748, 58.923 253.832, 61.179 255.413 C 64.136 257.484, 65.215 257.416, 68.024 254.979 C 70.110 253.170, 70.438 251.731, 71.159 241.229 C 73.274 210.423, 73.981 193.558, 74.104 171 C 74.177 157.525, 74.522 145.170, 74.870 143.545 C 75.453 140.826, 76.024 140.485, 82.002 139.283 C 88.495 137.977, 96.726 135.624, 100.500 133.993 C 109.180 130.244, 112.430 129, 113.550 129 C 115.984 129, 120.973 123.850, 123.072 119.171 C 125.861 112.954, 126.623 99.023, 125.023 83.500 C 124.343 76.900, 123.460 68.125, 123.063 64 C 122.239 55.461, 121.209 53.022, 117.361 50.501 C 114.752 48.791, 114.333 48.791, 107.071 50.503 C 102.907 51.484, 97.550 53.122, 95.167 54.144 C 92.784 55.165, 89.252 56, 87.318 56 C 83.837 56, 77.578 58.378, 75.341 60.550 C 74.703 61.169, 73.977 62.761, 73.727 64.088 C 73.331 66.188, 73.254 66.112, 73.131 63.500 C 72.919 59.011, 71.004 52.728, 69.246 50.750 C 66.816 48.017, 63.140 48.515, 61.873 51.750 M 209 56.120 C 205.975 56.605, 200.125 57.646, 196 58.433 C 191.875 59.220, 186.650 60.149, 184.389 60.496 L 180.277 61.129 179.646 67.814 C 179.002 74.630, 178.769 87, 179.285 87 C 179.441 87, 182.130 86.100, 185.260 85 C 188.389 83.900, 192.199 82.995, 193.725 82.988 C 195.251 82.982, 198.975 82.312, 202 81.500 C 208.986 79.625, 210.492 79.635, 212.429 81.571 C 214.308 83.451, 214.502 88.370, 212.750 89.713 C 212.063 90.241, 208.800 91.458, 205.500 92.420 C 202.200 93.381, 197.700 94.889, 195.500 95.771 C 193.300 96.653, 188.800 97.628, 185.500 97.937 L 179.500 98.500 178.806 108.973 C 178.424 114.732, 178.254 119.588, 178.429 119.762 C 178.747 120.081, 187.198 118.072, 196.500 115.466 C 204.107 113.336, 220.579 112.406, 222.499 113.999 C 223.894 115.157, 223.995 114.125, 223.487 103.894 C 222.738 88.791, 221.193 71.197, 219.830 62.250 C 218.592 54.120, 219.226 54.480, 209 56.120 M 105 64.677 C 95.145 67.757, 86.373 69.952, 84 69.933 C 82.625 69.921, 79.755 69.290, 77.622 68.530 L 73.744 67.148 74.199 80.568 C 74.450 87.949, 74.913 94.247, 75.230 94.563 C 75.546 94.880, 76.637 94.695, 77.653 94.153 C 85.578 89.927, 104.840 83.779, 108.754 84.227 C 111.585 84.551, 111.928 84.349, 111.396 82.673 C 111.060 81.614, 110.496 76.815, 110.142 72.009 L 109.500 63.270 105 64.677 M 99 99.638 C 84.723 105.727, 77.802 108.138, 76.279 107.554 C 75.295 107.176, 75 109.266, 75 116.599 C 75 125.222, 75.168 126.083, 76.750 125.589 C 77.713 125.289, 81.425 124.599, 85 124.055 C 92.460 122.920, 103.809 119.891, 109.176 117.602 C 112.586 116.148, 112.899 115.655, 113.500 110.768 C 113.857 107.870, 114.003 103.250, 113.824 100.500 C 113.401 93.980, 112.404 93.922, 99 99.638 M 133.039 133.189 C 129.649 136.827, 130.428 139.657, 138.822 154.191 L 143.784 162.784 132.142 163.915 C 125.739 164.536, 118.637 165.199, 116.361 165.387 C 107.488 166.121, 100.727 172.173, 103.633 176.780 C 105.243 179.333, 108.769 179.735, 117 178.304 C 121.125 177.587, 129.923 176.587, 136.550 176.081 C 151.339 174.952, 159.353 173.516, 168.630 170.332 C 176.349 167.682, 180 164.703, 180 161.053 C 180 157.295, 174.171 153.296, 172.541 155.934 C 171.809 157.119, 161.907 160.118, 155.994 160.947 L 151.487 161.579 151.844 157.838 C 152.120 154.946, 151.068 151.725, 147.205 143.640 C 141.134 130.931, 137.583 128.311, 133.039 133.189 M 112.039 187.189 C 109.618 189.787, 109.521 191.849, 111.511 198.409 C 112.330 201.109, 113 206.300, 113 209.944 C 113 218.683, 109.557 237.224, 105.916 248.090 C 102.607 257.969, 102.325 261.182, 104.571 263.429 C 109.485 268.342, 114.991 262.212, 119.775 246.500 C 123.388 234.631, 125 223.950, 125 211.870 L 125 200.285 137.750 198.537 C 144.762 197.576, 151.477 196.949, 152.672 197.145 L 154.843 197.500 153.058 203 C 148.396 217.362, 147.824 220.416, 147.743 231.365 C 147.673 240.799, 147.998 243.258, 149.869 247.463 C 153.797 256.295, 158.911 260.084, 169.359 261.902 C 185.163 264.654, 199.497 256.793, 197.555 246.439 C 196.771 242.265, 191.261 238.467, 187.396 239.437 C 185.162 239.997, 184.892 240.525, 185.172 243.780 C 185.491 247.478, 185.482 247.487, 180.181 248.904 C 175.423 250.176, 174.303 250.146, 169.428 248.609 C 164.744 247.132, 163.682 246.309, 161.804 242.697 C 157.925 235.237, 159.278 222.358, 166.103 201.782 C 168.729 193.865, 168.572 189.886, 165.520 187.019 C 163.101 184.746, 162.720 184.705, 149.770 185.334 C 142.472 185.688, 133.404 186.647, 129.619 187.464 C 123.072 188.878, 122.604 188.854, 119.965 186.975 C 116.396 184.434, 114.560 184.483, 112.039 187.189" stroke="none" fill="black" fill-rule="evenodd"/>
</svg>