<svg xmlns="http://www.w3.org/2000/svg" width="300" height="300" viewBox="0 0 300 300" version="1.1">
	<path d="M 60.821 36.402 C 55.892 38.162, 54 40.243, 54 43.906 C 54 47.894, 57.966 50.792, 61.329 49.260 C 63.859 48.107, 75.050 49.463, 76.026 51.042 C 76.347 51.561, 79.510 53.022, 83.055 54.289 C 91.367 57.259, 91.908 59.336, 85.922 65.293 C 76.926 74.246, 76.210 78.488, 81.011 94.413 C 82.655 99.865, 84 105.827, 84 107.663 C 84 110.782, 83.781 111, 80.648 111 C 76.942 111, 71.656 107.854, 68.888 104 C 67.840 102.541, 66.631 98.019, 65.983 93.136 C 65.373 88.536, 63.314 79.981, 61.408 74.124 C 55.753 56.749, 50.540 49.603, 46.482 53.660 C 44.495 55.648, 44.614 59.218, 47.006 69.287 C 52.646 93.037, 56.396 134.579, 59.526 208 C 60.428 229.175, 61.579 247.281, 62.083 248.236 C 63.325 250.588, 63.256 262, 62 262 C 60.343 262, 60.870 265.009, 63.068 268.096 C 64.631 270.290, 65.937 271, 68.413 271 C 73.362 271, 75.308 268.150, 76.144 259.681 C 77.162 249.360, 71.440 130.563, 69.484 121.395 C 69.040 119.317, 69.096 119.321, 73.767 121.720 C 82.543 126.227, 92.652 123.469, 96.414 115.540 C 99.001 110.089, 98.581 102.703, 95.090 92.235 C 93.390 87.139, 92 82.262, 92 81.396 C 92 80.530, 93.923 77.949, 96.273 75.661 C 103.960 68.175, 106.930 57.870, 103.490 50.621 C 101.279 45.960, 98.322 43.944, 89 40.740 C 84.875 39.323, 79.700 37.471, 77.500 36.625 C 72.597 34.741, 65.729 34.649, 60.821 36.402 M 164.500 45.216 C 161.943 46.118, 155.993 51.563, 152.500 56.198 C 151.950 56.928, 149.025 62.450, 146 68.468 C 142.975 74.487, 138.905 81.456, 136.955 83.956 C 131.611 90.806, 124.074 102.136, 115.972 115.500 C 106.797 130.633, 104.445 134.277, 99.779 140.579 C 93.207 149.454, 93.918 154.400, 101.765 154.400 C 104.867 154.400, 106.088 153.588, 110.922 148.318 C 113.990 144.973, 119.420 137.942, 122.990 132.694 C 131.480 120.211, 131.995 120.621, 132.015 139.872 C 132.028 152.626, 132.640 164.179, 135.540 206.500 C 135.879 211.450, 136.545 216.400, 137.019 217.500 C 137.494 218.600, 138.046 222.592, 138.246 226.371 C 138.527 231.671, 139.041 233.557, 140.496 234.621 C 143.130 236.547, 146.259 236.339, 148.687 234.077 C 151.842 231.138, 152.440 216.417, 150.538 188.500 C 149.676 175.850, 148.678 156.053, 148.319 144.507 L 147.668 123.514 144.911 120.757 C 142.699 118.545, 141.243 118, 137.542 118 C 132.027 118, 131.713 118.910, 142.540 103.500 C 146.790 97.450, 152.970 87.325, 156.272 81 C 163.167 67.794, 167.303 61.441, 170.131 59.712 C 171.221 59.046, 172.995 57.085, 174.073 55.356 C 175.667 52.799, 175.835 51.696, 174.976 49.438 C 173.053 44.379, 170.168 43.217, 164.500 45.216 M 230.503 54.250 C 227.294 57.017, 226.389 60.866, 225.039 77.495 C 223.833 92.346, 224.698 90.981, 210.500 100.439 C 197.048 109.399, 182.121 114.863, 169.304 115.519 C 159.895 116, 158.227 116.531, 154.250 120.306 C 150.578 123.793, 150.217 125.850, 152.750 128.854 C 155.387 131.981, 173.816 132.976, 183 130.487 C 191.286 128.242, 212.710 118.117, 219.100 113.427 L 224 109.830 224.004 121.665 C 224.008 138.131, 225.535 161, 228.665 191.500 C 230.625 210.605, 231.355 223.334, 231.417 239.500 C 231.531 269.741, 230.602 274, 223.889 274 C 220.890 274, 214.349 271.157, 211.854 268.770 C 206.909 264.038, 202.032 262.888, 198.223 265.557 C 194.105 268.441, 195.250 272.153, 202.194 278.437 C 212.235 287.524, 222.214 291.308, 231.527 289.561 C 236.797 288.572, 243.416 282.077, 246.207 275.157 C 248.378 269.774, 248.485 268.291, 248.421 244.500 C 248.370 225.522, 247.719 212.876, 245.716 192 C 244.266 176.875, 242.588 153.925, 241.988 141 C 241.388 128.075, 240.512 112.380, 240.041 106.122 C 239.264 95.798, 239.362 94.455, 241.089 91.622 C 244.345 86.282, 242.984 80, 238.571 80 C 236.144 80, 236.349 65.223, 238.838 60.780 C 240.828 57.226, 240.655 55.202, 238.194 53.250 C 235.867 51.404, 233.436 51.721, 230.503 54.250 M 213.785 181.025 C 211.376 183.011, 207.775 184.590, 203.307 185.619 C 183.870 190.097, 178.295 192.561, 173.167 198.941 C 167.708 205.735, 169.429 214, 176.303 214 C 178.209 214, 179.367 213.192, 180.444 211.108 C 182.213 207.687, 185.080 206.561, 197.371 204.457 C 211.030 202.120, 221.737 196.039, 224.991 188.772 C 227.025 184.227, 226.642 181.563, 223.653 179.469 C 220.498 177.259, 217.847 177.677, 213.785 181.025" stroke="none" fill="black" fill-rule="evenodd"/>
</svg>