<svg xmlns="http://www.w3.org/2000/svg" width="300" height="300" viewBox="0 0 300 300" version="1.1">
	<path d="M 89 34.006 C 75.930 34.704, 72.427 35.573, 69.040 38.960 C 66.415 41.585, 66.449 44.449, 69.139 47.139 C 71.103 49.103, 71.984 49.228, 79.889 48.671 C 84.625 48.337, 90.975 47.769, 94 47.408 L 99.500 46.751 93.716 50.868 C 84.872 57.163, 80.964 61.720, 79.610 67.316 C 79.057 69.600, 79.459 70.638, 81.741 72.816 C 92.473 83.061, 104 104.348, 104 113.921 C 104 119.005, 101.659 121.544, 96.106 122.482 C 87.253 123.978, 83.412 122.249, 76.233 113.542 C 74.507 111.448, 73.395 110.935, 71.576 111.392 C 69.206 111.986, 69.181 111.908, 68.595 102.246 C 68.005 92.496, 63.715 62.257, 61.786 54.250 C 60.943 50.749, 60.349 50, 58.416 50 C 57.126 50, 55.623 50.836, 55.076 51.858 C 53.075 55.596, 52.757 74.227, 54.364 93.500 C 57.061 125.858, 58.168 167.289, 57.827 223.201 C 57.576 264.469, 57.211 277.191, 56.250 278.151 C 54.106 280.293, 54.749 285.840, 57.455 288.545 C 60.184 291.275, 61.734 291.534, 65.384 289.871 C 69.043 288.204, 69.729 283.416, 71.093 250 C 72.246 221.738, 71.897 182.259, 70.111 139 C 69.736 129.925, 69.515 122.356, 69.619 122.180 C 69.722 122.004, 71.215 123.906, 72.936 126.406 C 74.656 128.907, 78.187 132.201, 80.782 133.727 C 84.877 136.134, 86.557 136.500, 93.500 136.500 C 103.034 136.500, 109.470 133.873, 113.777 128.224 C 116.325 124.882, 116.500 124.003, 116.500 114.576 C 116.499 103.211, 114.597 97.086, 107.937 87 C 105.939 83.975, 103.103 79.584, 101.635 77.242 C 100.166 74.900, 97.610 71.689, 95.954 70.106 L 92.943 67.229 102.444 61.559 C 112.355 55.645, 117.485 50.623, 118.545 45.796 C 119.478 41.545, 116.157 35.791, 111.913 34.306 C 108.225 33.017, 107.669 33.009, 89 34.006 M 160.761 38.250 L 157.720 41.500 158.358 54.872 C 159.492 78.614, 163.378 115.969, 165.036 119.068 C 165.569 120.064, 165.663 121.091, 165.243 121.350 C 164.561 121.772, 152.729 124.999, 151.856 125.001 C 151.660 125.002, 151.648 116.667, 151.830 106.481 C 152.150 88.463, 152.087 87.771, 149.510 81.025 C 146.581 73.360, 144.219 71.587, 140.920 74.573 C 137.278 77.869, 136.857 82.259, 137.702 108.148 C 138.691 138.468, 138.277 137.546, 150.500 136.676 C 165.066 135.640, 187.440 127.287, 194.463 120.264 C 197.341 117.386, 197.151 117.330, 199.379 121.712 C 202.339 127.533, 207.886 130.935, 220.500 134.663 C 226.565 136.456, 239.510 135.822, 243.973 133.514 C 247.494 131.693, 248.785 127.835, 246.994 124.488 C 245.544 121.779, 242.853 121.238, 230 121.071 C 218.245 120.919, 213.521 118.566, 209.782 111 C 207.728 106.843, 207.056 103.985, 207.032 99.297 C 207 93.155, 207.032 93.084, 210.250 92.120 C 212.037 91.585, 217.100 89.727, 221.500 87.992 C 225.900 86.258, 231.235 84.412, 233.355 83.891 C 238.893 82.529, 242.390 80.513, 245.381 76.959 C 248.604 73.129, 248.643 71.859, 245.643 68.371 L 243.286 65.631 238.393 67.702 C 233.193 69.904, 224.911 72.442, 216.170 74.512 L 210.840 75.775 211.466 73.137 C 212.736 67.792, 217.228 56.943, 219.649 53.375 C 224.201 46.668, 220.484 41.868, 214.357 46.541 C 210.059 49.819, 201.125 61.568, 200.370 64.935 C 199.321 69.609, 195.057 79.538, 195.028 77.372 C 194.982 73.920, 192.554 72.706, 186.670 73.194 C 182.889 73.508, 180.313 74.422, 177.791 76.346 L 174.237 79.056 173.496 73.278 C 173.088 70.100, 172.459 60.817, 172.100 52.649 C 171.526 39.622, 171.210 37.627, 169.532 36.399 C 166.534 34.208, 164.054 34.731, 160.761 38.250 M 190.500 84.786 C 188.850 85.671, 184.822 87.331, 181.549 88.475 L 175.598 90.555 175.549 104.275 C 175.522 111.820, 175.622 117.995, 175.772 117.997 C 175.922 117.999, 179.654 116.185, 184.065 113.967 C 188.476 111.749, 192.593 110.248, 193.213 110.631 C 193.987 111.110, 194.096 110.730, 193.558 109.414 C 192.024 105.655, 191.641 89.039, 193.029 86.446 C 194.749 83.232, 194.141 82.832, 190.500 84.786 M 181 145.121 C 177.425 147.927, 168.567 154.676, 161.316 160.117 C 154.065 165.559, 147.540 170.571, 146.816 171.255 C 146.092 171.940, 142.298 175.058, 138.384 178.185 C 134.470 181.312, 131.015 184.833, 130.708 186.009 C 130.051 188.521, 133.042 192, 135.858 192 C 137.383 192, 137.823 193.029, 138.316 197.750 C 138.647 200.912, 140.284 207.775, 141.953 213 C 143.623 218.225, 144.991 223.345, 144.994 224.378 C 144.997 225.411, 146.800 232.100, 149 239.243 C 151.200 246.385, 153 253.021, 153 253.989 C 153 256.701, 155.912 264.325, 157.279 265.194 C 158.848 266.191, 164.995 266.235, 165.015 265.250 C 165.075 262.336, 166.786 262.076, 172.555 264.107 C 178.100 266.059, 180.015 266.167, 201 265.712 C 225.696 265.175, 230.947 264.276, 235.250 259.848 C 238.546 256.456, 238.717 254.147, 235.895 251.118 L 233.790 248.859 236.279 243.179 C 238.656 237.753, 240.290 232.498, 243.021 221.500 C 243.704 218.750, 244.483 211.493, 244.752 205.373 C 245.509 188.190, 243.222 183.183, 232 177.447 C 228.876 175.851, 225.800 175.681, 203.354 175.870 C 182.361 176.047, 177.158 176.385, 171.854 177.919 C 162.882 180.514, 152.178 185.865, 151.465 188.111 C 150.695 190.535, 149.373 190.533, 148.738 188.107 C 148.206 186.071, 151.191 183.606, 164.500 175.087 C 178.136 166.360, 188.560 157.559, 193.589 150.527 C 196.683 146.202, 194.373 139.990, 189.679 140.009 C 188.480 140.014, 184.575 142.314, 181 145.121 M 188 190.006 C 176.106 191.002, 162.250 193.829, 157.402 196.247 L 153.305 198.292 154.181 202.896 C 154.662 205.428, 155.756 210.265, 156.611 213.645 L 158.165 219.790 163.833 217.668 C 169.200 215.658, 171.070 215.558, 199.191 215.773 C 218.366 215.920, 229.103 215.642, 229.506 214.989 C 229.850 214.433, 230.388 210.018, 230.701 205.177 C 231.363 194.974, 230.490 192.521, 225.452 190.415 C 221.786 188.884, 203.757 188.687, 188 190.006 M 163.656 230.707 C 161.590 231.240, 161.771 233.607, 164.692 244.265 C 166.001 249.041, 166.720 250.144, 168.886 250.692 C 171.864 251.445, 182.012 251.611, 203.168 251.250 L 217.837 251 219.846 247.749 C 220.951 245.961, 222.731 241.236, 223.800 237.249 L 225.744 230 195.622 230.116 C 179.055 230.180, 164.670 230.446, 163.656 230.707" stroke="none" fill="black" fill-rule="evenodd"/>
</svg>