<svg xmlns="http://www.w3.org/2000/svg" width="300" height="300" viewBox="0 0 300 300" version="1.1">
	<path d="M 76.599 37.064 C 73.987 40.169, 73.939 42.048, 76.154 54.500 C 77.948 64.587, 77.507 199.123, 75.576 230.500 C 72.841 274.964, 72.239 287.454, 72.765 288.827 C 73.044 289.556, 74.397 290.581, 75.771 291.103 C 78.889 292.289, 82.609 290.111, 84.154 286.198 C 86.234 280.927, 89.937 197.977, 89.969 155.905 L 90 116.310 93.935 120.053 C 104.115 129.737, 125.276 129.101, 130.524 118.953 C 131.390 117.278, 132 113.357, 132 109.461 C 132 99.623, 127.190 89.942, 115.750 76.759 C 113.138 73.748, 111 70.825, 111 70.263 C 111 69.702, 114.817 66.702, 119.483 63.597 C 124.149 60.493, 128.874 56.978, 129.983 55.788 C 132.281 53.321, 132.703 46.499, 130.718 43.913 C 127.156 39.274, 116.824 37.081, 98.309 37.035 C 90.504 37.016, 83.873 36.604, 83.575 36.121 C 82.168 33.844, 78.942 34.281, 76.599 37.064 M 87.375 50.645 C 88.414 53.991, 89.969 82.179, 89.985 97.973 C 89.999 112.264, 90.119 113.275, 91.557 111.223 C 93.550 108.376, 95.451 108.425, 102.404 111.500 C 108.431 114.165, 115.811 114.789, 117.800 112.800 C 118.460 112.140, 119 110.087, 119 108.237 C 119 102.256, 114.061 94.193, 103.750 83.343 C 93.989 73.071, 92.375 70.025, 95.200 67.200 C 95.860 66.540, 97.243 66, 98.273 66 C 99.303 66, 103.534 62.677, 107.676 58.615 L 115.206 51.230 104.853 50.574 C 99.159 50.213, 92.767 49.664, 90.649 49.354 C 87.234 48.854, 86.864 49, 87.375 50.645 M 200.573 53.570 C 198.051 56.092, 197.659 59.658, 199.024 67.641 C 200.025 73.494, 200.114 84.424, 199.432 117.812 C 198.202 177.969, 198.374 195.516, 200.246 200.750 L 201.766 205 192.133 205.005 C 186.835 205.008, 178.101 205.302, 172.725 205.658 L 162.951 206.305 166 200.159 C 171.029 190.024, 173.458 172.302, 171.954 156.737 C 169.719 133.619, 169.166 129.903, 167.613 127.533 C 165.330 124.049, 161.351 123.205, 158.875 125.680 C 156.488 128.068, 156.360 130.691, 157.417 155.500 C 158.461 180.025, 157.388 190.204, 152.762 199.639 L 149.399 206.500 143.449 207.821 C 133.915 209.938, 130.636 211.394, 129.052 214.216 C 127.935 216.206, 127.813 217.564, 128.562 219.682 C 129.511 222.366, 129.842 222.495, 135.529 222.389 C 138.813 222.329, 145.550 221.776, 150.500 221.161 C 155.450 220.546, 184.025 219.578, 214 219.010 C 243.975 218.442, 270.844 217.551, 273.708 217.031 C 284.471 215.073, 290.019 210.197, 288.476 204.049 C 287.392 199.728, 283.702 198.805, 278.295 201.503 C 274.562 203.365, 252.526 204.967, 230.500 204.978 L 214.500 204.986 212.750 199.656 C 210.835 193.825, 210.416 176.169, 211.649 153.247 L 212.298 141.180 217.899 139.680 C 220.979 138.855, 225.300 137.875, 227.500 137.504 C 233.869 136.428, 246.891 130.905, 250.079 127.926 C 251.722 126.391, 253 124.158, 253 122.821 C 253 117.012, 246.499 113.273, 242.620 116.851 C 240.134 119.144, 224.590 124.452, 217.750 125.343 L 213 125.962 212.991 104.231 C 212.983 84.149, 211.269 61.472, 209.383 56.500 C 207.762 52.228, 203.374 50.769, 200.573 53.570" stroke="none" fill="black" fill-rule="evenodd"/>
</svg>