<svg xmlns="http://www.w3.org/2000/svg" width="300" height="300" viewBox="0 0 300 300" version="1.1">
	<path d="M 126.073 20.728 C 124.383 22.778, 123 24.835, 123 25.298 C 123 27.532, 115.540 36.442, 104.095 47.877 C 73.346 78.600, 63 89.756, 63 92.189 C 63 95.144, 64.724 97.003, 67.450 96.990 C 71.060 96.971, 85.965 83.818, 105.538 63.380 C 127.793 40.140, 131.029 36.286, 134.439 28.959 C 137.442 22.509, 137.619 20.191, 135.250 18.392 C 132.183 16.064, 129.315 16.794, 126.073 20.728 M 170.946 23.565 C 168.215 26.856, 169.410 32.552, 175.023 43 C 176.058 44.925, 176.926 47.686, 176.952 49.135 C 177.018 52.775, 181.170 55.535, 183.959 53.793 C 186.886 51.966, 188.349 47.585, 187.599 42.897 C 186.957 38.879, 181.154 27.011, 178.566 24.424 C 176.269 22.126, 172.493 21.701, 170.946 23.565 M 170.500 60.010 C 156.349 60.826, 138.672 63.067, 129.500 65.208 C 126.750 65.849, 123.199 66.403, 121.610 66.437 C 117.236 66.532, 116.002 69.309, 118.943 72.440 C 122.297 76.010, 126.570 76.479, 138.283 74.565 C 148.627 72.874, 169.171 70.945, 169.893 71.597 C 170.108 71.792, 169.821 72.525, 169.253 73.226 C 168.686 73.927, 167.897 79.129, 167.500 84.787 L 166.779 95.073 148.283 94.929 C 132.737 94.807, 129.539 95.032, 128.230 96.342 C 126.094 98.477, 127.729 100.276, 133.764 102.429 C 136.369 103.359, 139.400 104.627, 140.500 105.247 C 141.600 105.868, 147.787 106.571, 154.250 106.811 L 166 107.247 166 112.058 L 166 116.870 157.116 116.295 C 149.873 115.825, 146.538 116.138, 139.062 117.985 C 129.262 120.406, 126.714 121.993, 127.197 125.375 C 127.491 127.436, 128.071 127.515, 146.492 128 L 165.483 128.500 166.123 131.500 C 167.031 135.755, 167.113 151.276, 166.235 152.646 C 165.831 153.276, 161.675 154.284, 157 154.885 C 134.622 157.765, 122.128 160.502, 121.281 162.711 C 119.285 167.912, 136.031 169.310, 161 166.028 C 176.930 163.934, 189.239 162.636, 206.882 161.188 C 213.985 160.605, 215.487 160.164, 216.723 158.296 C 218.063 156.273, 217.967 155.876, 215.556 153.466 L 212.930 150.839 194.964 151.170 L 176.998 151.500 176.999 145.390 C 177 142.029, 177.286 137.191, 177.636 134.640 C 178.258 130.098, 178.348 130, 181.886 129.983 C 183.874 129.973, 188.650 129.307, 192.500 128.502 C 197.973 127.358, 200.100 126.377, 202.250 124.004 C 205.523 120.391, 205.770 117.482, 202.933 115.964 C 201.311 115.096, 200.307 115.224, 198.273 116.557 C 195.450 118.406, 184.731 119.651, 180.586 118.611 C 178.293 118.035, 178 117.461, 178 113.546 C 178 106.868, 179.414 104.004, 182.725 103.979 C 186.859 103.948, 202.131 99.262, 205 97.144 C 208.093 94.862, 208.653 91.796, 206.391 89.534 C 204.478 87.620, 201.073 87.832, 194.500 90.274 C 192.300 91.091, 187.847 92.079, 184.605 92.470 L 178.709 93.180 179.344 89.340 C 179.692 87.228, 179.983 82.013, 179.989 77.750 L 180 70 190.250 69.940 C 209.194 69.830, 215.159 67.453, 210.750 61.772 C 209.131 59.685, 190.371 58.864, 170.500 60.010 M 97.567 78.327 C 96.004 79.470, 95.590 81.771, 94.910 93.090 C 94.467 100.466, 93.638 111.900, 93.068 118.500 C 91.124 141.011, 92.335 180.021, 95.142 185.266 C 95.884 186.652, 97.050 187.037, 99.815 186.806 L 103.500 186.500 103.740 134.500 C 103.982 82.053, 103.773 78.406, 100.460 77.315 C 99.887 77.127, 98.586 77.582, 97.567 78.327 M 195 189.106 C 189.225 190.716, 182.036 192.702, 179.024 193.521 C 170.268 195.899, 169.555 197.114, 169.183 210.275 C 169.009 216.449, 169.275 224.063, 169.773 227.195 C 170.659 232.759, 170.620 232.912, 168.090 233.870 C 163.971 235.428, 156.207 237.644, 146.623 239.996 C 134.267 243.030, 134.451 243.277, 134.761 224.098 C 134.944 212.787, 134.687 208.985, 133.683 208.152 C 131.698 206.504, 128.404 209.270, 125.482 215.036 C 120.286 225.290, 123.506 246.055, 130.967 250.413 C 136.473 253.628, 145.640 252.991, 161.500 248.290 C 167.781 246.429, 176.729 240.496, 177.543 237.654 C 177.882 236.469, 178.766 234.150, 179.507 232.500 C 180.650 229.956, 181.062 225.027, 181.949 203.250 C 181.980 202.479, 183.450 202, 185.782 202 C 187.862 202, 192.025 201.322, 195.032 200.493 C 205.091 197.720, 211.322 196.914, 212.237 198.269 C 213.647 200.356, 212.428 268.645, 210.863 275.300 C 209.396 281.536, 209.460 281.480, 204.943 280.487 C 199.491 279.290, 194.789 284.389, 198.200 287.800 C 198.860 288.460, 200.155 289, 201.078 289 C 202 289, 203.315 289.675, 204 290.500 C 205.422 292.213, 213.102 292.551, 215.952 291.026 C 219.220 289.277, 221.724 283.475, 223.125 274.405 C 224.123 267.944, 224.443 256.442, 224.291 232.500 C 224.177 214.350, 223.817 198.028, 223.492 196.229 C 223.167 194.429, 221.527 191.392, 219.847 189.479 C 217.011 186.248, 216.390 186.006, 211.146 186.090 C 208.041 186.139, 200.775 187.496, 195 189.106 M 106 197.508 C 102.975 198.216, 98.428 199.084, 95.896 199.437 C 93.364 199.790, 90.402 200.908, 89.314 201.922 C 87.390 203.714, 87.302 203.713, 86.159 201.883 C 85.450 200.748, 83.840 200, 82.107 200 C 76.723 200, 76.497 201.416, 76.522 235 C 76.548 269.264, 76.877 271.243, 82.632 271.804 C 88.487 272.375, 88.500 272.302, 88.500 238.835 L 88.500 208.320 91.143 210.269 C 93.767 212.204, 93.866 212.203, 104.643 210.121 C 110.614 208.967, 118.641 207.440, 122.481 206.728 C 128.290 205.650, 129.710 204.990, 130.941 202.796 C 132.326 200.328, 132.264 200.031, 129.960 198.114 C 127.910 196.408, 126.165 196.079, 119.500 196.144 C 115.100 196.187, 109.025 196.801, 106 197.508" stroke="none" fill="black" fill-rule="evenodd"/>
</svg>