<svg xmlns="http://www.w3.org/2000/svg" width="300" height="300" viewBox="0 0 300 300" version="1.1">
	<path d="M 196.730 37.998 L 194.190 39.996 193.747 62.748 C 193.366 82.370, 192.939 87.274, 190.643 98.394 C 189.179 105.485, 187.872 114.109, 187.740 117.558 L 187.500 123.827 180.209 124.914 C 170.421 126.372, 169.659 126.330, 170.408 124.379 C 170.750 123.487, 171.748 116.489, 172.624 108.829 C 174.490 92.519, 173.933 85.197, 170.525 81.234 C 168.233 78.570, 168.155 78.556, 164.757 80.176 C 161.676 81.645, 161.194 82.437, 160.195 87.660 C 159.580 90.872, 158.881 101.067, 158.640 110.316 C 158.399 119.565, 158.012 127.321, 157.781 127.553 C 157.549 127.784, 153.566 128.691, 148.930 129.567 C 137.859 131.660, 134 133.996, 134 138.606 C 134 141.382, 134.497 142.239, 136.565 143.025 C 141.392 144.860, 143.846 144.632, 180 138.999 C 190.906 137.300, 205.068 135.850, 214.500 135.467 C 232.405 134.739, 244.933 132.929, 248.571 130.546 C 250.344 129.384, 251 128.048, 251 125.598 C 251 120.133, 248.721 119.725, 225.025 120.950 C 196.538 122.422, 197.622 122.471, 198.456 119.750 C 198.835 118.513, 200.241 113.259, 201.580 108.076 C 202.919 102.893, 204.123 98.585, 204.257 98.502 C 206.480 97.126, 215.574 94.073, 219 93.553 C 224.192 92.764, 235.879 87.251, 237.311 84.913 C 237.846 84.041, 237.983 81.724, 237.616 79.765 C 236.881 75.851, 233.535 74.119, 230.262 75.959 C 226.169 78.260, 220.512 80, 217.121 80 C 215.122 80, 212.140 80.386, 210.493 80.858 L 207.500 81.715 207.495 61.267 L 207.490 40.818 204.689 38.409 C 201.284 35.480, 200.014 35.415, 196.730 37.998 M 108.430 54.682 C 107.918 54.848, 98.500 55.370, 87.500 55.841 C 75.184 56.370, 66.483 57.185, 64.852 57.964 C 61.795 59.423, 60.426 64.059, 62.118 67.220 C 65.090 72.773, 64.243 137.697, 60.477 193 C 59.710 204.275, 58.782 220.780, 58.416 229.678 C 57.551 250.723, 58.796 288.339, 60.432 290.577 C 62.069 292.815, 67.595 291.612, 69.196 288.669 C 69.989 287.211, 70.620 275.517, 71.121 253 C 71.531 234.575, 72.831 206.675, 74.011 191 C 75.703 168.523, 76.193 152.725, 76.328 116.251 L 76.500 70.002 83 69.957 C 86.575 69.932, 92.875 69.521, 97 69.043 C 101.125 68.565, 104.645 68.317, 104.822 68.492 C 104.999 68.667, 102.974 71.508, 100.322 74.803 C 97.670 78.099, 94.645 83.010, 93.601 85.715 C 92.380 88.878, 90.683 91.219, 88.851 92.271 C 83.966 95.074, 84.870 98.876, 92.306 106.793 C 95.774 110.486, 99.897 116.135, 101.468 119.346 C 103.989 124.498, 104.335 126.335, 104.412 134.982 C 104.488 143.448, 104.228 145.083, 102.500 147.005 C 97.632 152.419, 93.880 151.495, 90.526 144.058 C 88.639 139.874, 86.140 138.616, 82.478 140.008 C 79.200 141.255, 78.625 144.200, 80.441 150.446 C 84.805 165.456, 99.372 169.263, 110.619 158.333 C 116.906 152.222, 118 149.010, 118 136.658 C 118 125.638, 117.091 121.733, 112.258 112 C 109.527 106.501, 108.443 104.982, 102.134 97.821 C 99.954 95.347, 99.281 94, 100.225 94 C 101.026 94, 102.894 91.773, 104.375 89.052 C 105.856 86.331, 110.536 80.908, 114.776 77.002 C 119.015 73.096, 123.033 68.910, 123.706 67.700 C 125.520 64.436, 125.266 59.551, 123.184 57.666 C 121.527 56.167, 110.640 53.965, 108.430 54.682 M 193.472 140.765 C 191.323 142.302, 188.664 150.231, 188.770 154.789 C 189.097 168.971, 194.050 196.183, 197.568 203.131 C 200.821 209.554, 207.219 210.958, 208.578 205.546 C 209.206 203.045, 207.616 190.122, 205.374 179.500 C 204.561 175.650, 203.493 166.569, 203 159.320 C 201.987 144.425, 200.393 140.031, 196 140.031 C 195.175 140.031, 194.038 140.361, 193.472 140.765 M 250.771 151.750 C 245.830 163.228, 242 173.974, 242 176.358 C 242 179.689, 231.293 198.875, 222.389 211.500 C 218.898 216.450, 215.578 221.175, 215.011 222 C 208.415 231.597, 199.599 242.685, 191.378 251.723 C 184.253 259.556, 166.548 273.933, 161.070 276.333 C 157.820 277.757, 157.034 278.865, 157.015 282.050 C 156.948 293.206, 178.364 284.602, 197.843 265.645 C 217.974 246.054, 250.640 197.679, 255.624 180.077 C 256.492 177.010, 258.057 171.838, 259.101 168.585 C 262.822 156.995, 260.422 148, 253.611 148 C 252.936 148, 251.659 149.688, 250.771 151.750 M 166.283 165.596 C 152.150 180.541, 146.575 189.246, 145.498 198.052 C 144.718 204.428, 146.002 206.363, 150.653 205.822 C 152.924 205.558, 154.158 204.207, 157.463 198.369 C 159.683 194.447, 165.887 186.457, 171.250 180.614 C 179.565 171.554, 181 169.493, 181 166.610 C 181 164.121, 180.350 162.804, 178.535 161.615 C 174.300 158.840, 171.949 159.604, 166.283 165.596" stroke="none" fill="black" fill-rule="evenodd"/>
</svg>