<svg xmlns="http://www.w3.org/2000/svg" width="300" height="300" viewBox="0 0 300 300" version="1.1">
	<path d="M 84.358 10.772 C 81.865 12.783, 79.526 17.173, 78.562 21.653 C 78.010 24.217, 78.293 25.092, 80.076 26.341 C 82.135 27.783, 82.195 28.169, 81.061 32.672 C 79.163 40.211, 73.337 53.544, 66.871 65.149 C 61.581 74.644, 53.488 87.782, 51.255 90.500 C 49.784 92.290, 46 101.821, 46 103.735 C 46 108.760, 52.777 109.600, 56.753 105.069 C 62.013 99.074, 77.006 77.242, 80.992 69.773 C 84.826 62.588, 85.409 61.975, 89.308 61.027 C 91.613 60.467, 95.115 59.183, 97.089 58.175 L 100.678 56.343 99.829 60.921 C 98.690 67.068, 96.309 74.180, 92.837 81.813 C 91.258 85.285, 88.544 92.565, 86.808 97.989 L 83.651 107.852 76.147 103.877 C 67.671 99.386, 64.634 99.241, 61.701 103.186 C 59.946 105.547, 59.858 106.242, 60.969 108.926 C 62.456 112.515, 68.156 117.895, 73.945 121.172 C 78.828 123.937, 78.807 124.242, 72.870 136.960 C 70.677 141.657, 68.477 146.400, 67.982 147.500 C 61.157 162.642, 55.140 174.562, 49.557 184 C 39.435 201.112, 36.831 204.864, 30.120 212 C 22.025 220.609, 21.829 226, 29.610 226 C 37.153 226, 55.650 206.016, 65.800 186.903 C 74.848 169.863, 85.878 147.035, 88.584 139.750 C 90.167 135.488, 91.793 132, 92.197 132 C 93.966 132, 105.817 139.205, 107.801 141.486 C 110.446 144.528, 114.259 144.741, 117 142 C 119.377 139.623, 119.430 138.965, 117.599 134.582 C 115.822 130.330, 107.630 122.606, 100.863 118.803 L 97.177 116.731 101.568 103.615 C 103.983 96.402, 106.685 88.475, 107.572 86 C 115.010 65.251, 116.232 60.955, 116.737 53.795 C 117.796 38.764, 112.546 33.848, 101.018 39.077 C 98.553 40.195, 95.738 41.832, 94.762 42.716 C 93.786 43.599, 92.774 44.107, 92.512 43.845 C 92.250 43.583, 92.940 40.248, 94.045 36.434 C 98.819 19.954, 98.650 16.407, 92.857 11.533 C 89.339 8.573, 87.310 8.391, 84.358 10.772 M 185.865 38.134 C 183.188 39.105, 181.851 41.307, 176.213 54.017 C 174.624 57.601, 172.687 61.201, 171.910 62.017 C 171.132 62.833, 169.189 65.525, 167.592 68 C 165.994 70.475, 162.809 74.975, 160.514 78 C 145.286 98.067, 138.682 107.997, 130.303 123.423 C 124.535 134.044, 124.648 140, 130.618 140 C 134.759 140, 136.236 138.703, 141.639 130.328 C 144.607 125.728, 149.615 118.485, 152.768 114.232 L 158.500 106.500 158.486 182.500 C 158.478 224.300, 158.094 261.039, 157.634 264.142 C 156.606 271.066, 157.391 273.818, 160.759 275.099 C 168.329 277.976, 172.029 272.535, 172.931 257.199 L 173.500 247.528 177.500 246.821 C 179.700 246.433, 188.712 246.089, 197.526 246.058 C 218.664 245.982, 235.491 243.794, 260.962 237.812 C 279.099 233.552, 287.520 225.595, 280.686 219.174 C 277.946 216.601, 276.224 216.454, 273.244 218.542 C 270.117 220.732, 249.558 225.695, 236 227.533 C 218.406 229.918, 219.470 229.986, 219.777 226.500 C 219.923 224.850, 220.679 214.544, 221.459 203.597 C 222.448 189.699, 223.265 183.454, 224.167 182.897 C 224.878 182.457, 227.268 181.820, 229.480 181.480 C 242.684 179.451, 250.418 174.004, 253.030 164.894 C 253.651 162.729, 253.375 161.475, 251.848 159.534 C 248.774 155.626, 244.547 156.440, 242.708 161.295 C 242.334 162.282, 240.437 163.755, 238.492 164.568 C 234.048 166.425, 225.172 168.505, 224.511 167.845 C 224.020 167.353, 225.400 150.420, 226.591 142.322 L 227.205 138.144 237.853 134.405 C 243.709 132.348, 250.213 129.818, 252.307 128.783 C 255.810 127.051, 256.090 126.606, 255.807 123.207 C 255.356 117.787, 252.023 116.419, 243.170 118.023 C 239.502 118.688, 235.190 119.632, 233.588 120.120 C 231.986 120.609, 230.521 120.855, 230.333 120.666 C 230.145 120.478, 230.443 117.939, 230.995 115.025 C 231.548 112.111, 232 107.772, 232 105.383 C 232 100.380, 231.768 100.489, 244.427 99.502 C 253.765 98.775, 258 96.482, 258 92.154 C 258 90.664, 257.299 88.445, 256.443 87.223 C 254.975 85.127, 254.172 85, 242.340 85 L 229.793 85 232.847 81.521 C 236.531 77.326, 237.445 73.337, 237.433 61.500 C 237.426 53.870, 237.061 51.855, 235.035 48.262 C 231.947 42.786, 227.243 41.484, 223.444 45.053 C 220.535 47.786, 220.325 51.511, 222.550 60.951 C 224.103 67.540, 223.921 70.148, 221.365 77.914 C 220.566 80.342, 220.141 82.925, 220.421 83.654 C 220.990 85.138, 219.447 85.579, 210.554 86.469 C 202.124 87.312, 190.660 89.790, 182.522 92.529 C 178.684 93.821, 175.428 94.762, 175.287 94.621 C 175.146 94.479, 175.627 91.245, 176.356 87.432 C 177.348 82.241, 178.891 78.617, 182.501 73 C 189.514 62.087, 195.455 49.220, 195.455 44.942 C 195.455 39.276, 191.146 36.218, 185.865 38.134 M 200.500 104.518 C 193.350 105.805, 185.475 107.369, 183 107.994 C 180.525 108.619, 177.539 108.948, 176.364 108.725 C 174.506 108.374, 174.148 108.904, 173.614 112.800 C 172.486 121.029, 173.022 186.735, 174.197 184.303 C 175.661 181.272, 180.367 179.247, 194.788 175.443 C 201.588 173.649, 207.292 172.028, 207.463 171.841 C 207.847 171.420, 210 149.355, 210 145.835 L 210 143.275 202.750 145 C 189.337 148.190, 178.272 149.470, 176.539 148.033 C 174.009 145.933, 174.773 142.905, 178.795 139.095 C 182.655 135.438, 183.999 134.966, 206.250 129.451 C 212.579 127.882, 213 127.603, 213 124.977 C 213 122.595, 214.863 112.189, 216.710 104.250 C 217.356 101.471, 217.432 101.470, 200.500 104.518 M 104.367 168.490 C 102.094 169.166, 98.719 170.857, 96.867 172.246 C 90.737 176.844, 85.183 179.169, 83.052 178.028 C 80.599 176.715, 77 176.699, 77 178 C 77 178.550, 76.377 179, 75.617 179 C 73.662 179, 73.311 182.171, 74.120 192.500 C 74.508 197.450, 74.865 211.978, 74.913 224.785 C 74.986 244.370, 74.750 248.451, 73.429 250.468 C 71.450 253.488, 72.880 256.681, 76.633 257.623 C 79.523 258.348, 92.646 257.482, 101 256.015 C 104.025 255.483, 108.888 254.747, 111.807 254.378 C 116.935 253.731, 117.300 253.471, 122.607 246.688 C 127.277 240.719, 128.056 239.130, 127.800 236.083 C 127.588 233.547, 126.869 232.223, 125.342 231.553 C 123.242 230.630, 123.174 230.008, 122.783 208.053 C 122.414 187.312, 122.194 185.022, 120.043 179.547 C 116.082 169.465, 111.634 166.327, 104.367 168.490 M 101.707 187.146 C 100.171 188.292, 96.796 189.769, 94.207 190.430 L 89.500 191.631 89.339 216.814 L 89.178 241.996 94.839 241.446 C 97.953 241.143, 101.963 240.673, 103.750 240.402 L 107 239.909 107.243 223.705 C 107.627 198.107, 106.925 184.950, 105.178 185.032 C 104.805 185.049, 103.243 186.001, 101.707 187.146 M 173.820 211.372 C 173.996 224.077, 174.267 234.600, 174.423 234.756 C 174.579 234.912, 177.585 234.387, 181.103 233.590 C 184.621 232.793, 191.887 231.604, 197.250 230.947 L 207 229.753 207 208.877 C 207 195.332, 206.641 188, 205.978 188 C 205.417 188, 200.926 189.575, 196 191.500 C 183.507 196.382, 176.835 196.221, 174.639 190.986 C 173.753 188.875, 173.571 193.408, 173.820 211.372" stroke="none" fill="black" fill-rule="evenodd"/>
</svg>