<svg xmlns="http://www.w3.org/2000/svg" width="300" height="300" viewBox="0 0 300 300" version="1.1">
	<path d="M 247.211 24.169 C 243.796 25.112, 241.297 28.725, 242.282 31.292 C 242.581 32.072, 245.228 34.085, 248.163 35.765 C 251.098 37.444, 256.157 41.089, 259.405 43.865 C 267.377 50.679, 270.188 51.603, 273.717 48.567 C 277.192 45.578, 276.499 43.908, 267.960 34.695 C 258.273 24.242, 254.279 22.216, 247.211 24.169 M 99.989 26.020 C 97.987 29.762, 95 43.277, 95 48.595 C 95 57.937, 94.405 58.576, 84.832 59.524 C 80.249 59.979, 74.920 60.432, 72.988 60.532 C 67.361 60.824, 65.298 61.866, 63.960 65.097 C 62.858 67.756, 62.951 68.457, 64.714 70.814 C 66.632 73.377, 67.133 73.500, 75.612 73.500 C 80.500 73.500, 86.566 73.146, 89.091 72.713 L 93.681 71.925 95.335 81.882 C 97.296 93.691, 98.421 97, 100.475 97 C 101.314 97, 102 97.450, 102 98 C 102 98.550, 100.611 99, 98.913 99 C 97.216 99, 90.353 99.924, 83.663 101.053 C 55.790 105.757, 51.312 107.068, 48.507 111.349 C 46.216 114.846, 47.886 117.700, 52.762 118.618 C 56.580 119.336, 61.370 118.776, 82.500 115.140 C 89.100 114.004, 100.575 112.124, 108 110.962 C 123.699 108.505, 145.974 102.489, 150.419 99.504 C 153.886 97.176, 154.950 93.033, 152.584 91.070 C 151.644 90.290, 149.020 89.942, 145.687 90.155 L 140.306 90.500 143.782 85.269 C 147.481 79.703, 151.002 68.842, 150.996 63.022 C 150.991 58.410, 148.015 53.663, 144.116 52.048 C 141.519 50.972, 139.275 51.019, 130.747 52.327 C 125.111 53.192, 117.649 54.174, 114.164 54.509 C 108.364 55.067, 107.875 54.966, 108.390 53.309 C 108.700 52.314, 109.076 46.262, 109.226 39.860 C 109.468 29.585, 109.276 27.972, 107.595 26.110 C 105.177 23.432, 101.398 23.387, 99.989 26.020 M 191.156 39.529 C 188.444 42.976, 187.651 48.662, 188.922 55.538 C 190.411 63.593, 191.307 87.891, 190.247 91.500 C 189.413 94.341, 188.947 94.569, 181.433 95.809 C 171.786 97.400, 169 99.001, 169 102.952 C 169 108.261, 171.263 109.335, 180.816 108.560 L 189.246 107.876 188.542 111.630 C 188.154 113.694, 187.463 119.013, 187.005 123.450 C 185.314 139.845, 176.677 175.437, 166.872 206.415 C 165.842 209.668, 165 212.693, 165 213.136 C 165 213.578, 163.915 216.317, 162.589 219.220 C 159.704 225.537, 158.551 231.075, 159.409 234.493 C 159.946 236.633, 160.610 237, 163.936 237 C 167.731 237, 167.912 236.835, 170.830 230.750 C 174.279 223.557, 179.006 211.777, 178.987 210.422 C 178.975 209.545, 181.835 199.237, 186.060 184.929 C 187.127 181.315, 188 177.632, 188 176.744 C 188 175.856, 188.498 173.863, 189.106 172.315 L 190.212 169.500 191.452 173.500 C 192.651 177.366, 193.830 179.504, 202.992 194.437 L 207.249 201.373 201.468 212.689 C 198.289 218.913, 194.139 225.814, 192.247 228.024 C 188.944 231.883, 188.621 232.021, 184.154 231.482 C 181.594 231.173, 178.998 231.276, 178.385 231.710 C 173.525 235.151, 178.720 241.978, 186.788 242.754 C 195.828 243.622, 202.848 237.451, 212.960 219.747 L 215.855 214.678 218.677 219.406 C 227.667 234.463, 248.002 257.526, 264.302 271.150 C 269.105 275.165, 270.789 276, 274.083 276 C 278.403 276, 279.619 274.602, 278.651 270.747 C 278.341 269.511, 273.202 263.549, 267.232 257.500 C 261.261 251.450, 254.829 244.530, 252.938 242.123 C 251.047 239.715, 248.529 236.790, 247.341 235.623 C 244.548 232.875, 228.464 211.259, 226.788 208 C 226.082 206.625, 225.239 205.275, 224.916 205 C 222.630 203.053, 222.366 200.478, 224.007 196.116 C 224.961 193.577, 226.760 188.800, 228.004 185.500 C 229.248 182.200, 230.561 179.050, 230.922 178.500 C 231.282 177.950, 232.768 173.675, 234.224 169 C 241.739 144.864, 242.291 141.479, 239.171 138.655 C 235.029 134.906, 229.068 138.352, 227.113 145.628 C 223.382 159.506, 220.555 168.549, 217.409 176.668 L 213.812 185.951 207.491 177.374 C 204.015 172.657, 200.120 166.721, 198.835 164.184 C 197.551 161.646, 195.640 158.839, 194.590 157.946 C 192.710 156.348, 192.713 156.167, 194.755 146.911 C 196.717 138.015, 199.217 123.191, 200.804 111.035 C 201.490 105.778, 201.650 105.545, 205.009 104.888 C 206.929 104.512, 213.450 103.240, 219.500 102.061 C 247.394 96.623, 253.133 95.136, 256.687 92.425 C 260.592 89.447, 261.122 85.325, 257.966 82.470 C 256.038 80.725, 255.687 80.715, 251.216 82.271 C 248.622 83.175, 244.700 84.188, 242.500 84.523 C 237.658 85.260, 216.775 89.545, 208.565 91.486 C 205.301 92.258, 202.314 92.694, 201.927 92.455 C 201.540 92.216, 201.188 84.253, 201.146 74.760 C 201.040 51.223, 200.216 42.544, 197.795 39.467 C 195.332 36.335, 193.656 36.351, 191.156 39.529 M 120.109 67.350 L 106.719 69.474 107.314 81.327 C 107.896 92.897, 107.853 93.238, 105.501 95.590 C 104.175 96.916, 103.633 97.989, 104.295 97.976 C 108.114 97.901, 122.489 94.032, 122.838 92.986 C 123.066 92.302, 125.391 89.381, 128.005 86.495 C 132.514 81.515, 134.865 76.472, 136.509 68.250 C 137.283 64.377, 138.451 64.441, 120.109 67.350 M 112.195 115.591 C 108.102 116.335, 101.288 118.650, 96.695 120.859 C 89.406 124.364, 88.399 124.617, 87.585 123.150 C 85.432 119.265, 81.912 118.997, 78.455 122.455 C 74.939 125.970, 75.111 132.946, 78.950 142.534 L 81.900 149.900 78.450 153.350 C 74.574 157.226, 73.988 160.887, 76.948 162.735 C 79.142 164.105, 87.885 162.902, 93.872 160.406 C 95.727 159.633, 97.639 159, 98.122 159 C 98.605 159, 99 162.339, 99 166.421 C 99 174.789, 99.807 174.092, 88.500 175.489 C 77.658 176.830, 73.068 179.692, 73.022 185.140 C 73.009 186.698, 71.064 190.387, 68.276 194.140 C 58.717 207.008, 57 210.232, 57 215.307 C 57 222.891, 65.812 226.794, 79 225.052 C 83.125 224.508, 89.088 224.048, 92.250 224.031 L 98 224 98.087 247.750 C 98.203 279.434, 98.935 288.748, 101.453 290.589 C 102.514 291.365, 104.630 292, 106.156 292 C 110.630 292, 111.264 289.495, 110.461 274.975 C 110.070 267.915, 110.080 252.933, 110.481 241.683 L 111.212 221.228 116.856 220.202 C 119.960 219.637, 125.078 218.712, 128.230 218.145 C 131.381 217.578, 136.106 216.046, 138.730 214.742 C 142.536 212.848, 143.757 211.595, 144.771 208.541 C 145.852 205.288, 145.811 204.360, 144.498 202.357 C 142.635 199.513, 139.801 199.360, 135.618 201.875 C 133.709 203.023, 129.592 203.990, 125 204.371 C 120.875 204.712, 116.263 205.271, 114.750 205.613 L 112 206.233 112 196.271 L 112 186.308 119.565 184.646 C 123.726 183.732, 128.339 182.355, 129.815 181.587 C 137.490 177.593, 139.650 170.422, 134.050 167.526 C 130.429 165.653, 130.490 165.653, 128.611 167.531 C 127.769 168.374, 123.799 169.871, 119.790 170.858 L 112.500 172.652 112.207 164.662 C 111.998 158.964, 112.285 156.426, 113.207 155.816 C 113.918 155.346, 117.992 155.062, 122.259 155.186 C 131.824 155.462, 134.087 154.040, 132.022 149.052 C 130.867 146.265, 130.987 145.619, 133.283 142.237 C 140.684 131.336, 141.692 125.907, 137.368 120.238 C 132.609 113.999, 126.832 112.932, 112.195 115.591 M 113.500 128.937 C 110.200 129.940, 103.740 131.813, 99.144 133.098 L 90.788 135.434 91.386 139.800 C 91.715 142.201, 92.241 144.580, 92.554 145.087 C 93.277 146.257, 97.291 145.351, 102.826 142.767 C 106.345 141.125, 107.613 140.958, 109.623 141.874 C 113.287 143.544, 117.472 143.241, 119.345 141.171 C 120.255 140.165, 121.010 138.928, 121.022 138.421 C 121.034 137.915, 121.924 136.375, 123 135 C 124.076 133.625, 124.966 131.262, 124.978 129.750 C 124.997 127.398, 124.602 127.008, 122.250 127.056 C 120.737 127.087, 116.800 127.933, 113.500 128.937 M 90.500 189.242 C 86.454 190.325, 85.152 191.472, 82.830 196 C 82.124 197.375, 79.624 201.003, 77.274 204.062 C 74.923 207.121, 73 209.934, 73 210.312 C 73 211.354, 82.570 211.022, 91 209.687 L 98.500 208.500 98.500 198.500 C 98.500 187.221, 98.415 187.123, 90.500 189.242" stroke="none" fill="black" fill-rule="evenodd"/>
</svg>