<svg xmlns="http://www.w3.org/2000/svg" width="300" height="300" viewBox="0 0 300 300" version="1.1">
	<path d="M 77.442 48.039 C 73.089 49.664, 72.280 51.997, 71.560 65 C 71.179 71.875, 70.517 77.857, 70.089 78.294 C 69.661 78.731, 66.204 79.429, 62.406 79.846 C 53.482 80.825, 49.595 82.692, 49.190 86.195 C 48.654 90.817, 52.366 92.323, 63.039 91.812 C 72.044 91.382, 72.058 91.385, 72.626 93.941 C 72.938 95.348, 73.598 98.075, 74.091 100 C 74.585 101.925, 74.991 104.722, 74.994 106.215 C 75.001 109.619, 77.437 111, 83.434 111 L 88 111 88 115.961 L 88 120.923 83.750 122.032 C 73.097 124.812, 71.346 125.476, 68.990 127.625 C 67.192 129.264, 66.057 129.647, 64.990 128.973 C 62.511 127.406, 57.426 127.872, 55.655 129.829 C 53.228 132.511, 53.596 134.453, 57.500 139.568 C 59.425 142.090, 61 144.698, 61 145.364 C 61 146.030, 63.195 148.737, 65.878 151.380 C 70.375 155.809, 70.675 156.401, 69.715 158.945 C 67.858 163.864, 69.291 165.353, 75.285 164.734 C 78.168 164.437, 82.203 163.394, 84.251 162.417 C 86.299 161.441, 88.148 160.835, 88.360 161.071 C 88.572 161.307, 89.057 167.156, 89.439 174.068 L 90.133 186.636 86.316 187.745 C 84.217 188.355, 75.975 190.535, 68 192.589 C 47.938 197.757, 44.980 199.670, 47.562 205.810 C 48.802 208.758, 49.263 209, 53.631 209 C 56.231 209, 61.315 208.126, 64.929 207.057 C 76.053 203.767, 86.752 201, 88.348 201 C 89.682 201, 89.908 206.481, 90.185 245.537 C 90.456 283.790, 90.712 290.211, 92 291.046 C 94.432 292.622, 98.165 291.685, 100.154 289 C 101.867 286.687, 102.054 283.128, 102.663 241.421 L 103.321 196.342 107.911 195.105 C 117.753 192.452, 128.283 188.703, 133.275 186.075 C 139.172 182.971, 142.516 177.904, 141.456 173.681 C 140.451 169.677, 137.209 169.616, 131.523 173.496 C 128.760 175.381, 124.700 177.362, 122.500 177.898 C 120.300 178.433, 115.125 179.756, 111 180.837 C 106.875 181.918, 103.162 182.596, 102.750 182.342 C 101.523 181.589, 101.850 158.211, 103.098 157.439 C 103.702 157.066, 108.490 156.477, 113.737 156.130 C 122.267 155.567, 123.361 155.274, 124.064 153.365 C 125.043 150.708, 122.809 147.258, 119.229 145.897 C 116.662 144.921, 116.665 144.916, 123.270 138.710 C 132.558 129.983, 133.454 124.311, 126.252 119.833 C 122.920 117.761, 121.294 117.502, 111.711 117.520 C 101.436 117.538, 100.896 117.435, 100.373 115.349 C 99.381 111.398, 100.374 109.755, 104.500 108.522 C 111.302 106.488, 119.021 102.049, 120.180 99.505 C 121.057 97.579, 120.942 96.560, 119.619 94.541 C 117.688 91.595, 116.073 91.394, 111.857 93.574 C 110.184 94.439, 108.609 94.943, 108.359 94.693 C 108.109 94.442, 108.713 91.484, 109.702 88.119 C 111.395 82.357, 111.704 81.967, 115 81.434 C 116.925 81.122, 122.325 80.110, 127 79.184 C 135.417 77.516, 135.503 77.469, 135.809 74.312 C 136.051 71.807, 135.571 70.765, 133.571 69.454 C 131.436 68.056, 129.567 67.901, 122.012 68.499 C 116.368 68.946, 113 68.850, 113 68.243 C 113 67.709, 113.434 64.983, 113.965 62.185 C 115.070 56.356, 113.925 51.508, 110.795 48.765 C 109.294 47.449, 108.352 47.276, 106.907 48.050 C 103.502 49.872, 101.984 53.539, 100.883 62.602 C 100.289 67.496, 99.690 71.619, 99.553 71.765 C 99.415 71.911, 96.647 72.713, 93.401 73.548 C 90.156 74.382, 86.744 75.296, 85.821 75.577 C 84.291 76.044, 84.189 74.955, 84.677 63.295 L 85.211 50.500 82.298 48.907 C 80.548 47.950, 78.609 47.603, 77.442 48.039 M 186.500 54.035 C 165.013 55.345, 156 58.475, 156 64.624 C 156 66.787, 155.761 66.942, 153.933 65.964 C 151.226 64.515, 147.299 66.962, 146.366 70.678 C 146 72.138, 146.689 79.275, 147.897 86.539 C 149.106 93.803, 150.480 104.416, 150.952 110.123 C 151.910 121.720, 152.435 123.627, 155.052 125.028 C 157.736 126.464, 167.746 126.209, 176.662 124.477 C 180.973 123.640, 190.230 122.671, 197.234 122.324 C 207.896 121.795, 210.244 121.388, 211.661 119.822 C 213.256 118.059, 213.237 117.794, 211.331 115.226 C 210.218 113.727, 208.226 111.944, 206.904 111.265 C 203.529 109.531, 184.904 109.669, 175.338 111.500 C 171.027 112.325, 166.108 113, 164.406 113 L 161.313 113 160.713 94.214 C 160.383 83.882, 159.665 74.248, 159.116 72.806 C 158.120 70.186, 158.127 70.182, 164.309 69.509 C 167.714 69.139, 174.550 68.200, 179.500 67.422 C 188.337 66.034, 224.230 65.418, 228.559 66.580 C 230.449 67.088, 230.556 67.599, 229.867 72.817 C 228.985 79.507, 226.029 91.107, 223.091 99.407 C 219.636 109.167, 220.382 112, 226.407 112 C 230.803 112, 234.732 105.321, 240.467 88.098 C 242.663 81.507, 243.290 77.694, 243.382 70.379 C 243.497 61.263, 243.433 60.991, 240.461 58.009 C 237.786 55.326, 236.409 54.844, 228.961 53.988 C 219.577 52.909, 204.691 52.926, 186.500 54.035 M 177 83.888 C 172.051 84.640, 165.504 87.353, 163.284 89.573 C 162.501 90.356, 162.004 92.010, 162.180 93.248 C 162.496 95.472, 162.717 95.504, 180 95.812 C 204.797 96.255, 215.570 95.378, 218.052 92.714 C 220.526 90.058, 220.501 89.694, 217.610 86.333 L 215.219 83.554 198.360 83.379 C 189.087 83.283, 179.475 83.512, 177 83.888 M 91.500 86.965 L 85.500 88.652 85.213 93.076 L 84.927 97.500 89.766 97.668 L 94.605 97.837 96.387 91.836 C 97.366 88.535, 98.018 85.710, 97.834 85.556 C 97.650 85.403, 94.800 86.037, 91.500 86.965 M 168.817 130.878 C 163.092 132.995, 151.197 157.489, 150.304 169 C 149.821 175.232, 149.925 175.619, 152.838 178.378 C 155.315 180.724, 156.715 181.239, 160.409 181.165 L 164.942 181.074 162.376 186.787 C 160.964 189.929, 159.218 194.128, 158.496 196.118 C 157.773 198.108, 156.746 200.583, 156.213 201.618 C 150.911 211.918, 150.583 217.630, 155.077 221.411 C 156.769 222.835, 159.356 223.990, 160.827 223.978 C 164.484 223.948, 170.912 220.894, 175.150 217.173 L 178.669 214.083 180.297 217.496 C 181.192 219.374, 183.352 221.648, 185.096 222.550 C 188.094 224.100, 188.412 224.083, 190.884 222.246 C 193.873 220.025, 195.178 214, 192.670 214 C 191.176 214, 190 211.964, 190 209.377 C 190 208.574, 188.988 205.705, 187.750 203 C 184.374 195.622, 181.618 195.397, 174.317 201.905 C 171.192 204.690, 168.503 206.837, 168.342 206.675 C 167.426 205.759, 175.020 189.163, 187.183 165.500 C 192.770 154.632, 194 151.953, 194 150.658 C 194 148.588, 190.097 145, 187.846 145 C 185.149 145, 179.796 150.881, 178.097 155.711 C 175.455 163.220, 173.319 165.693, 168.864 166.406 C 166.592 166.769, 164.569 166.902, 164.368 166.701 C 163.720 166.053, 168.507 153.662, 171.548 148.116 C 173.172 145.154, 175.103 141.634, 175.840 140.292 C 176.577 138.950, 176.908 136.769, 176.575 135.444 C 175.878 132.667, 171.287 129.964, 168.817 130.878 M 103.250 131.706 C 101.233 132.094, 101 132.725, 101 137.788 L 101 143.437 107 137.500 C 110.300 134.234, 113 131.436, 113 131.281 C 113 130.881, 105.933 131.189, 103.250 131.706 M 85.667 135.667 C 85.277 136.056, 81.777 136.628, 77.888 136.937 L 70.818 137.500 72.711 139.675 C 74.223 141.412, 76.262 144.892, 78.657 149.824 C 78.744 150.002, 81.126 149.327, 83.950 148.324 L 89.085 146.500 88.792 141.079 C 88.520 136.030, 87.343 133.991, 85.667 135.667 M 211.356 140.662 C 204.791 145.673, 203.879 146.919, 197.542 159.529 C 189.582 175.370, 190.103 181.738, 199.557 184.119 C 202 184.734, 204 185.454, 204 185.718 C 204 185.982, 203.362 187.616, 202.582 189.349 C 195.942 204.105, 195.025 208.214, 197.366 212.741 C 201.208 220.171, 210.437 218.633, 222.191 208.604 L 229.710 202.188 231.918 207.516 C 233.871 212.228, 233.986 213.313, 232.915 216.891 C 231.518 221.551, 232.719 224, 236.400 224 C 239.638 224, 242.420 221.612, 244.465 217.077 C 246.460 212.653, 246.221 211.078, 240.870 193.427 C 237.837 183.421, 232.591 182.635, 224.175 190.925 C 222.154 192.917, 218.813 195.826, 216.750 197.392 C 211.616 201.288, 211.768 199.232, 217.482 187.485 C 220.875 180.509, 223.084 177.353, 226.574 174.493 C 230.611 171.185, 231.128 170.327, 230.724 167.607 C 230.383 165.301, 231.348 162.438, 234.468 156.500 C 239.915 146.136, 240.473 143.806, 238.186 140.981 C 236.756 139.215, 235.765 138.893, 233.379 139.417 C 230.113 140.134, 225.732 146.090, 218.513 159.626 C 215.414 165.437, 214.106 166.939, 211.425 167.762 C 208.313 168.717, 208.180 168.656, 208.955 166.635 C 209.832 164.345, 216.675 150.445, 219.359 145.500 C 221.300 141.925, 221.426 139.826, 219.800 138.200 C 217.920 136.320, 216.503 136.733, 211.356 140.662 M 243.525 238.972 C 240.774 242.012, 241.873 250.031, 245.693 254.789 C 253.262 264.218, 266.809 265.791, 265.804 257.124 C 265.586 255.239, 264.462 253.993, 261.812 252.697 C 259.539 251.586, 256.747 248.820, 254.533 245.483 C 251.308 240.625, 247.633 237, 245.932 237 C 245.590 237, 244.507 237.888, 243.525 238.972 M 213.896 242.286 C 209.406 245.705, 211.152 252.154, 218.360 258.778 C 225.705 265.527, 231.008 266.750, 234.911 262.594 C 236.781 260.604, 236.978 259.827, 236.050 258.094 C 235.434 256.942, 234.188 256, 233.283 256 C 232.377 256, 228.410 252.625, 224.468 248.500 C 220.527 244.375, 216.896 241.014, 216.401 241.032 C 215.905 241.049, 214.778 241.614, 213.896 242.286 M 132.655 250.829 C 128.446 255.480, 133.378 263.501, 142.557 266.935 C 149.467 269.521, 153.191 269.551, 155.464 267.040 C 158.350 263.851, 156.806 260.719, 151.009 258.004 C 148.234 256.704, 144.824 254.147, 143.431 252.321 C 141.466 249.744, 140.160 249, 137.604 249 C 135.683 249, 133.620 249.762, 132.655 250.829 M 176.073 253.635 C 173.296 257.165, 173.460 259.211, 176.808 262.794 C 181.454 267.768, 191.269 269.571, 194.466 266.037 C 196.873 263.378, 195.907 261.501, 190.799 258.911 C 188.434 257.712, 185.022 255.441, 183.215 253.865 C 179.182 250.347, 178.672 250.331, 176.073 253.635" stroke="none" fill="black" fill-rule="evenodd"/>
</svg>