<svg xmlns="http://www.w3.org/2000/svg" width="300" height="300" viewBox="0 0 300 300" version="1.1">
	<path d="M 94.625 26.250 C 93.843 27.488, 92.892 32.438, 92.512 37.250 L 91.820 46 88.220 46 C 78.551 46, 63.833 50.387, 62.584 53.641 C 60.408 59.311, 72.152 61.406, 89.250 58.398 L 93 57.738 93.150 67.369 C 93.233 72.666, 93.345 77.559, 93.400 78.242 C 93.536 79.929, 75.327 81.849, 58.398 81.934 C 46.467 81.994, 44.993 82.204, 41.905 84.285 C 37.787 87.060, 37.302 88.917, 39.870 92.087 C 41.819 94.493, 41.874 94.499, 59.662 94.245 C 83.732 93.902, 101.396 91.291, 136.361 82.911 C 149.163 79.843, 154.480 76.920, 155.636 72.315 C 157.318 65.614, 151.608 61.344, 147.534 66.257 C 146.199 67.866, 143.413 69.221, 139.428 70.198 L 133.356 71.687 136.780 63.767 C 139.643 57.145, 140.096 55.129, 139.547 51.466 C 138.366 43.588, 131.683 40.111, 120.204 41.401 C 117.067 41.753, 112.070 42.318, 109.100 42.657 L 103.701 43.272 104.377 38.886 C 104.749 36.474, 105.309 33.080, 105.621 31.344 C 106.737 25.130, 97.914 21.043, 94.625 26.250 M 209.500 42.981 C 194.627 44.004, 176.097 48.130, 173.503 50.996 C 167.529 57.598, 184.565 59.796, 207.334 55.360 C 211.642 54.521, 215.390 54.056, 215.661 54.328 C 216.263 54.929, 203.605 62.403, 197.164 65.250 C 192.122 67.478, 190.082 69.487, 190.032 72.271 C 190 74.055, 191.161 74.702, 198.500 76.993 C 202.644 78.286, 209 82.483, 209 83.925 C 209 84.379, 205.287 84.981, 200.750 85.263 C 189.867 85.942, 173.621 87.852, 168 89.114 C 162.352 90.382, 158.806 93.548, 159.205 96.967 L 159.500 99.500 174.500 99.256 C 182.750 99.122, 192.537 98.640, 196.250 98.185 C 204.024 97.232, 204.684 98.012, 199.945 102.553 C 198.265 104.162, 194.151 109.478, 190.804 114.366 C 187.456 119.254, 183.493 124.658, 181.997 126.376 C 180.501 128.094, 176.266 133.504, 172.586 138.397 C 167.163 145.609, 165.953 147.882, 166.198 150.397 C 166.463 153.122, 166.914 153.539, 169.894 153.824 C 172.840 154.105, 174.004 153.447, 178.729 148.824 C 186.130 141.583, 198.900 126.654, 203.197 120.219 L 206.723 114.938 207.861 119.469 C 210.196 128.758, 210.944 132.663, 211.574 138.854 L 212.220 145.207 209.069 144.515 C 202.675 143.111, 200.887 148.733, 206.077 153.923 C 212.057 159.903, 221.037 157.033, 223.047 148.500 C 224.362 142.913, 223.275 132.598, 219.859 118.256 C 218.254 111.522, 216.573 104.036, 216.122 101.621 L 215.301 97.231 219.790 96.615 C 222.259 96.277, 228.484 96, 233.624 96 L 242.968 96 240.902 99.750 C 239.765 101.813, 237.747 105.029, 236.418 106.898 C 233.456 111.060, 233.310 114.561, 236.038 116.020 C 239.015 117.614, 241.229 116.532, 246.479 110.919 C 251.192 105.880, 257 94.854, 257 90.945 C 257 87.896, 251.881 83.256, 247.640 82.460 C 245.626 82.082, 238.583 82.165, 231.989 82.643 L 220 83.513 220 81.001 C 220 79.445, 218.478 76.873, 216 74.243 C 213.800 71.907, 212 69.839, 212 69.648 C 212 69.457, 214.908 68.064, 218.461 66.554 C 222.732 64.739, 226.331 62.279, 229.079 59.299 C 232.854 55.203, 233.186 54.423, 232.699 50.795 C 231.683 43.217, 227.341 41.754, 209.500 42.981 M 108 54.882 L 104.500 55.500 104.216 66.250 C 104.024 73.521, 104.285 77, 105.023 77 C 107.787 77, 115.672 74.570, 117.204 73.246 C 118.585 72.053, 122.240 64.356, 125.667 55.425 C 126.113 54.264, 124.849 54.024, 118.857 54.132 C 114.811 54.204, 109.925 54.542, 108 54.882 M 105 102.934 C 101.425 103.351, 96.700 104.191, 94.500 104.801 C 92.300 105.412, 87.125 106.650, 83 107.554 C 78.875 108.458, 74.263 110.067, 72.750 111.129 L 70 113.060 70 110.185 C 70 106.647, 67.023 103.693, 64.395 104.621 C 58.551 106.684, 57.495 114.264, 61.578 124.829 C 67.232 139.462, 68.372 141.644, 72.298 145.347 L 76.376 149.195 84.279 148.836 L 92.182 148.477 91.492 154.988 C 91.113 158.570, 90.661 161.649, 90.487 161.831 C 90.314 162.013, 86.871 162.604, 82.836 163.145 C 75.085 164.184, 62.354 167.638, 60.250 169.274 C 57.418 171.474, 59.485 177, 63.141 177 C 64.099 177, 65.140 177.418, 65.456 177.929 C 66.229 179.179, 59.678 188.178, 53.446 194.430 C 46.729 201.168, 45 203.844, 45 207.500 C 45 217.029, 56.724 220.116, 79.750 216.649 L 88 215.407 88 241.127 C 88 275.363, 89.357 281.447, 96.848 280.799 C 101.870 280.364, 102.653 278.433, 101.212 270.033 C 99.950 262.671, 99.506 221.721, 100.628 216.112 C 101.050 214.001, 101.950 212.831, 103.378 212.536 C 138.364 205.317, 143.683 203.209, 145.513 195.837 C 146.293 192.690, 142.859 188.504, 140.158 189.309 C 132.435 191.610, 102.113 197.528, 101.582 196.837 C 101.439 196.652, 101.587 191.325, 101.911 185 C 102.492 173.651, 102.533 173.496, 105 173.230 C 114.697 172.184, 118.698 169.773, 117.419 165.745 C 116.197 161.894, 114.078 160.657, 108.903 160.775 L 104 160.887 104 154.525 C 104 146.282, 104.502 145.184, 108.621 144.411 C 112.878 143.613, 115.341 140.507, 113.881 137.778 C 113.008 136.147, 113.805 134.997, 119.302 129.961 C 126.182 123.656, 129 119.061, 129 114.146 C 129 104.526, 121.480 101.013, 105 102.934 M 99 116.999 C 81.913 120.547, 75.705 121.962, 75.257 122.410 C 75.005 122.662, 75.602 126.277, 76.584 130.443 C 77.988 136.400, 78.704 137.913, 79.935 137.531 C 81.623 137.006, 94.699 135.052, 96.743 135.020 C 99.095 134.982, 115 118.244, 115 115.806 C 115 114.560, 108.360 115.056, 99 116.999 M 202.198 171.750 C 201.718 172.713, 200.770 176.088, 200.091 179.250 C 198.903 184.786, 198.738 185, 195.678 184.997 C 193.930 184.995, 186.650 185.707, 179.500 186.578 C 162.615 188.636, 157.115 191.088, 157.032 196.595 C 156.960 201.296, 163.232 203.449, 168.800 200.635 C 170.285 199.884, 176.184 198.959, 181.909 198.578 C 187.633 198.198, 193.596 197.631, 195.159 197.318 C 197.953 196.759, 198 196.827, 198 201.375 C 198 205.745, 197.848 206.002, 195.250 206.035 C 189.129 206.114, 186.354 209.210, 179.144 224 C 176.328 229.775, 173.469 235.400, 172.790 236.500 C 160.435 256.508, 155.127 264, 153.306 264 C 151.101 264, 150.569 268.866, 152.536 271.040 C 157.590 276.625, 167.071 269.349, 177.804 251.650 C 178.521 250.468, 180.400 247.475, 181.978 245 C 183.557 242.525, 187.695 234.918, 191.174 228.095 L 197.500 215.690 197.740 223.595 C 198.050 233.807, 200.674 264.128, 202.169 274.784 C 203.054 281.090, 203.054 283.346, 202.166 284.234 C 198.509 287.891, 203.364 293.953, 208.413 292.033 C 212.816 290.359, 214.361 285.128, 213.592 274.500 C 212.732 262.618, 211.334 243.031, 210.415 230 C 209.561 217.896, 210.034 217.731, 216.605 227.843 C 221.826 235.877, 241.094 254.489, 251.056 261.122 C 260.679 267.530, 275.599 274.898, 280.590 275.708 C 285.134 276.446, 289.011 273.909, 288.968 270.227 C 288.924 266.400, 286.778 264.002, 283.390 263.991 C 281.800 263.985, 278.250 262.633, 275.500 260.985 C 253.083 247.551, 251.844 246.567, 230.640 225.357 C 223.050 217.766, 215.980 211.584, 213.902 210.722 C 210.477 209.301, 210.274 208.946, 209.698 203.368 C 209.366 200.144, 209.410 197.210, 209.797 196.847 C 210.184 196.485, 214.172 195.449, 218.661 194.546 C 228.293 192.609, 234.037 190.040, 236.913 186.384 C 239.402 183.219, 239.568 180.710, 237.429 178.571 C 235.300 176.443, 232.466 176.596, 229.195 179.014 C 227.696 180.122, 223.777 181.464, 220.485 181.996 C 217.193 182.528, 213.262 183.233, 211.750 183.561 C 209.011 184.157, 209 184.137, 209 178.661 C 209 175.638, 208.727 172.452, 208.393 171.582 C 207.576 169.452, 203.286 169.568, 202.198 171.750 M 84.250 177.119 C 81.795 177.828, 81 178.621, 81 180.361 C 81 181.850, 79.573 183.812, 76.965 185.908 C 74.746 187.691, 71.767 191.029, 70.344 193.325 C 68.922 195.621, 66.604 198.738, 65.192 200.250 C 62.312 203.337, 62.487 203.384, 71.807 202.023 C 75.488 201.486, 80.614 200.787, 83.197 200.470 C 88.518 199.817, 88.228 200.585, 89.499 183.750 C 90.136 175.305, 90.210 175.398, 84.250 177.119" stroke="none" fill="black" fill-rule="evenodd"/>
</svg>