<svg xmlns="http://www.w3.org/2000/svg" width="300" height="300" viewBox="0 0 300 300" version="1.1">
	<path d="M 191.776 33.750 C 189.043 36.866, 187 41.819, 187 45.325 C 187 47.209, 186.736 50.071, 186.413 51.686 C 185.861 54.444, 185.401 54.696, 178.858 55.818 C 173.784 56.688, 171.338 56.716, 169.853 55.921 C 166.796 54.285, 163.234 55.646, 161.428 59.140 C 160.189 61.536, 159.829 65.173, 159.862 74.977 L 159.906 87.704 150.203 89.384 C 132.721 92.412, 128.751 93.443, 127.613 95.250 C 124.437 100.292, 133.346 102.549, 152.250 101.493 L 163 100.893 163 106.200 C 163 110.791, 163.401 111.885, 165.977 114.317 C 169.400 117.547, 173.671 119, 179.743 119 C 183.926 119, 184 119.060, 184 122.433 C 184 126.390, 183.684 126.542, 173.500 127.492 C 165.327 128.253, 159.057 129.885, 157.144 131.749 C 156.398 132.475, 155.723 134.499, 155.644 136.245 C 155.414 141.310, 158.840 142.431, 170.300 141.041 C 175.360 140.427, 180.512 139.708, 181.750 139.443 C 183.916 138.980, 184 139.225, 184 146.012 C 184 150.796, 183.598 153.177, 182.750 153.419 C 182.063 153.615, 177 154.754, 171.500 155.950 C 166 157.146, 160.479 158.787, 159.232 159.597 C 157.184 160.927, 156.901 160.897, 156.311 159.285 C 155.951 158.303, 154.159 153.914, 152.329 149.530 C 150.498 145.147, 149 140.838, 149 139.955 C 149 138.171, 144.989 134, 143.274 134 C 142.671 134, 140.966 135.441, 139.484 137.201 C 136.122 141.197, 136.435 144.935, 140.921 154.335 C 145.384 163.687, 148.405 167, 152.466 167 C 154.275 167, 156.358 167.726, 157.095 168.614 C 158.189 169.933, 159.949 170.149, 166.728 169.793 C 176.513 169.279, 176.375 168.615, 169.261 182 C 166.776 186.675, 164.093 191.737, 163.298 193.250 L 161.854 196 148.677 196.066 C 135.348 196.133, 128.697 197.424, 123.250 201.003 C 120.607 202.739, 120.179 207.471, 122.582 208.393 C 123.452 208.727, 130.993 209, 139.339 209 L 154.514 209 154.159 213.473 C 153.563 220.963, 159.649 228.217, 171.828 234.530 L 177.157 237.292 170.365 244.136 C 162.506 252.056, 157.036 255, 150.180 255 C 146.110 255, 145.136 255.378, 144.070 257.369 C 141.104 262.912, 144.892 265.962, 154.771 265.985 C 159.816 265.997, 162.357 265.365, 167.771 262.753 C 174.162 259.668, 185.389 250.045, 187.703 245.668 C 188.593 243.984, 189.470 244.287, 198.579 249.418 C 209.502 255.572, 214.330 256.503, 217.448 253.058 C 219.694 250.576, 218.457 246.262, 214.862 244.043 C 207.975 239.793, 200.463 234.574, 200.167 233.833 C 199.983 233.375, 199.196 233, 198.417 233 C 196.530 233, 196.568 232.837, 199.764 227.294 C 201.284 224.657, 204.097 219.277, 206.014 215.337 L 209.500 208.174 220 207.545 C 249.891 205.755, 253.845 205.332, 256.409 203.651 C 259.383 201.703, 259.955 197.037, 257.473 194.978 C 255.605 193.428, 255.025 193.415, 231.881 194.435 L 213.262 195.256 215.621 183.878 C 218.593 169.549, 218.583 167.896, 215.510 165.010 C 213.059 162.707, 212.989 162.700, 210.928 164.565 C 208.532 166.733, 206.863 170.389, 203.422 181 C 202.084 185.125, 200.583 189.400, 200.085 190.500 C 199.588 191.600, 198.930 193.287, 198.622 194.250 C 198.136 195.772, 196.678 196, 187.448 196 C 181.610 196, 176.987 195.662, 177.174 195.250 C 177.361 194.838, 178.918 191.800, 180.633 188.500 C 182.349 185.200, 184.783 180.025, 186.044 177 C 187.304 173.975, 188.889 170.825, 189.565 170 C 190.240 169.175, 190.953 167.628, 191.148 166.562 C 191.425 165.050, 193.369 164.139, 200.002 162.411 C 204.676 161.193, 209.837 159.676, 211.470 159.039 C 213.929 158.081, 214.637 158.150, 215.581 159.441 C 216.208 160.298, 217.963 161, 219.482 161 C 223.137 161, 233.866 152.293, 238.497 145.570 C 241.436 141.302, 242 139.617, 242 135.106 C 242 130.638, 241.572 129.333, 239.469 127.384 C 234.905 123.154, 227.052 121.636, 213.510 122.367 C 206.905 122.723, 200.262 123.289, 198.750 123.624 C 196.461 124.131, 196 123.897, 196 122.226 C 196 120.378, 196.892 120.162, 207.250 119.499 C 213.438 119.103, 219.063 118.324, 219.750 117.767 C 221.319 116.497, 221.380 111.780, 219.846 110.246 C 218.974 109.374, 219.288 108.287, 221.130 105.796 C 222.471 103.983, 224.109 101.253, 224.772 99.730 C 226.272 96.278, 229.517 95.002, 236.815 94.994 C 245.072 94.986, 253.995 93.315, 256.138 91.375 C 258.565 89.179, 258.508 85.770, 256.007 83.506 C 254.246 81.912, 252.684 81.768, 242.601 82.264 L 231.189 82.826 232.095 79.670 C 233.714 74.024, 233.172 66.078, 230.891 62.019 C 227.662 56.275, 223.934 55, 210.369 55 L 198.805 55 199.021 45.250 C 199.326 31.514, 199.431 32, 196.155 32 C 194.590 32, 192.619 32.788, 191.776 33.750 M 71.107 54.887 C 69.463 55.958, 68.147 63.104, 68.049 71.500 C 68.010 74.800, 67.707 79.138, 67.376 81.140 C 66.834 84.418, 66.404 84.840, 63.056 85.375 C 54.815 86.693, 54.358 93.227, 62.421 94.436 C 64.940 94.814, 67.009 95.657, 67.020 96.311 C 67.031 96.965, 67.454 100.361, 67.959 103.857 C 68.778 109.518, 68.666 110.442, 66.939 112.296 C 64.715 114.683, 64.604 115.392, 66.035 118.066 C 66.869 119.623, 68.157 120, 72.652 120 C 77.952 120, 78.203 120.113, 77.630 122.250 C 77.299 123.487, 77.021 127.088, 77.014 130.250 C 77 135.819, 76.915 136, 74.316 136 C 70.633 136, 59.835 139.024, 58 140.570 C 57.175 141.264, 55.319 141.604, 53.876 141.324 C 51.889 140.938, 50.615 141.502, 48.626 143.647 C 45.798 146.698, 45.319 149.841, 47.153 153.316 C 48.614 156.084, 63.671 171, 65.004 171 C 66.792 171, 66.054 172.812, 63.424 174.881 C 61.707 176.232, 60.957 177.672, 61.174 179.203 C 61.461 181.228, 62.138 181.536, 66.893 181.807 C 69.859 181.976, 72.761 181.639, 73.343 181.057 C 75.562 178.838, 76 180.304, 76 189.960 L 76 199.920 71.750 201.074 C 69.412 201.709, 63.225 203.719, 58 205.542 C 39.288 212.069, 40.040 211.599, 40.015 216.775 C 40.003 219.430, 40.520 220.250, 42.750 221.112 C 45.953 222.349, 52.361 221.684, 57.146 219.619 C 58.991 218.823, 63.425 217.268, 67 216.163 C 70.575 215.058, 74.217 213.873, 75.092 213.531 C 76.783 212.868, 76.843 213.448, 80.069 262 C 81.727 286.960, 82.285 291.156, 84.095 292.293 C 86.450 293.772, 90.750 292.325, 91.661 289.748 C 92.871 286.325, 92.112 249.741, 90.413 229.598 C 89.582 219.753, 89.106 211.166, 89.355 210.518 C 89.604 209.869, 93.788 207.871, 98.654 206.077 C 113.928 200.446, 122.021 195.809, 121.986 192.711 C 121.979 192.045, 121.691 190.446, 121.346 189.158 C 120.800 187.121, 120.250 186.881, 117.109 187.309 C 115.124 187.579, 108.135 189.643, 101.578 191.895 C 95.021 194.147, 89.517 195.850, 89.345 195.679 C 89.174 195.508, 88.739 190.861, 88.378 185.353 L 87.722 175.338 92.611 174.073 C 95.300 173.378, 98.625 172.420, 100 171.945 C 101.375 171.470, 104.300 170.779, 106.500 170.410 C 111.264 169.611, 113 168.407, 113 165.901 C 113 163.356, 108.556 160.663, 103.311 160.028 L 98.950 159.500 103.725 157.031 C 120.939 148.129, 124.503 142.582, 117.337 135.845 C 114.986 133.635, 114.100 133.500, 101.924 133.500 C 87.159 133.500, 88.018 134.222, 90.150 123.609 L 91.299 117.884 97.400 115.103 C 100.755 113.574, 105.708 110.313, 108.408 107.857 C 112.529 104.106, 113.214 102.987, 112.681 100.867 C 112.333 99.479, 110.927 97.832, 109.557 97.208 C 107.178 96.124, 107.128 95.925, 108.444 92.786 C 109.202 90.979, 110.650 89.359, 111.661 89.186 C 114.653 88.675, 123.318 85.946, 125.799 84.734 C 127.661 83.823, 128.041 82.934, 127.799 80.055 L 127.500 76.500 119.146 76.500 L 110.792 76.500 111.396 72 C 111.728 69.525, 112.277 65.792, 112.615 63.705 C 113.723 56.863, 107.263 53.436, 101.947 58.046 C 99.855 59.861, 99.543 61.138, 99.183 69.364 L 98.777 78.636 90.639 80.323 C 78.633 82.811, 79.600 83.766, 80.368 70.172 C 80.965 59.610, 80.848 58.173, 79.268 56.750 C 76.965 54.674, 72.869 53.739, 71.107 54.887 M 198.431 68.318 C 198.153 69.044, 197.830 72.981, 197.713 77.068 L 197.500 84.500 200.500 84.842 C 202.150 85.031, 206.752 84.881, 210.726 84.509 L 217.952 83.834 218.970 80.167 C 219.531 78.150, 219.991 74.644, 219.994 72.375 C 220 68.553, 219.770 68.204, 216.875 67.625 C 210.988 66.448, 198.976 66.899, 198.431 68.318 M 172.351 77.168 C 172.709 82.210, 173.114 86.428, 173.251 86.542 C 173.388 86.656, 176.088 86.524, 179.250 86.250 L 185 85.752 185 76.876 L 185 68 178.350 68 L 171.701 68 172.351 77.168 M 91.500 93.648 C 88.750 94.370, 85.037 94.970, 83.250 94.981 L 80 95 80 101.567 C 80 107.349, 80.209 108.074, 81.750 107.627 C 82.713 107.348, 85.362 106.639, 87.637 106.051 C 91.329 105.099, 92.059 104.381, 94.430 99.373 C 95.892 96.286, 96.955 93.440, 96.794 93.048 C 96.632 92.655, 94.250 92.925, 91.500 93.648 M 198.250 97.662 C 197.522 97.956, 197 99.963, 197 102.472 C 197 106.629, 197.125 106.801, 200.624 107.457 C 203.728 108.040, 204.665 107.737, 207.162 105.345 C 208.765 103.809, 210.700 101.303, 211.462 99.776 L 212.847 97 206.173 97.079 C 202.503 97.122, 198.938 97.385, 198.250 97.662 M 177.843 98.707 C 175.438 99.076, 175.153 99.585, 174.843 104.058 L 174.500 109.001 178.168 109.001 C 184.259 109, 185 108.337, 185 102.893 C 185 97.591, 185.024 97.606, 177.843 98.707 M 200.383 136.134 L 195.266 137.110 194.641 142.305 C 193.653 150.532, 193.747 151, 196.385 151 C 198.938 151, 205.525 149.164, 216 145.534 C 219.575 144.295, 222.950 143.437, 223.500 143.627 C 224.730 144.053, 229.398 137.065, 228.491 136.155 C 227.430 135.090, 205.937 135.073, 200.383 136.134 M 89.697 146.750 C 89.466 147.162, 88.975 148.761, 88.606 150.302 C 87.986 152.895, 88.090 153.022, 90.003 151.998 C 91.140 151.390, 93.692 149.791, 95.675 148.446 L 99.279 146 94.699 146 C 92.179 146, 89.929 146.338, 89.697 146.750 M 66.316 150.390 L 62.132 151.519 66.488 156.765 C 68.883 159.649, 71.146 163.389, 71.517 165.075 C 71.992 167.238, 72.628 167.973, 73.677 167.571 C 74.494 167.257, 75.352 167, 75.582 167 C 75.812 167, 76 162.950, 76 158 L 76 149 73.250 149.131 C 71.737 149.202, 68.617 149.769, 66.316 150.390 M 168.754 211.641 C 167.652 214.060, 167.811 214.484, 170.642 216.667 C 172.343 217.978, 176.282 220.354, 179.396 221.947 L 185.057 224.842 189.040 216.921 L 193.022 209 181.490 209 C 169.994 209, 169.953 209.009, 168.754 211.641" stroke="none" fill="black" fill-rule="evenodd"/>
</svg>