<svg xmlns="http://www.w3.org/2000/svg" width="300" height="300" viewBox="0 0 300 300" version="1.1">
	<path d="M 121.790 26.250 C 119.309 30.128, 118.779 32.258, 118.131 40.971 L 117.500 49.442 110 50.645 C 105.875 51.306, 100.688 51.882, 98.473 51.924 C 87.351 52.134, 86.965 63, 98.079 63 C 100.510 63, 106.057 62.319, 110.404 61.487 C 114.751 60.655, 118.402 60.093, 118.516 60.237 C 118.631 60.382, 118.961 62.357, 119.251 64.626 L 119.776 68.751 114.341 70.599 C 104.953 73.790, 103.492 77.869, 110.939 80.100 C 114.320 81.113, 116.259 81.021, 122.742 79.543 C 127.009 78.571, 132.494 77.374, 134.931 76.884 C 143.319 75.197, 146.245 71.342, 142.032 67.529 C 140.491 66.134, 138.881 65.845, 134.621 66.198 L 129.178 66.650 128.782 63.257 C 128.265 58.829, 129.238 58.381, 141.301 57.483 C 151.629 56.715, 154.217 55.544, 153.303 52.050 C 152.300 48.216, 150.128 47.499, 139.593 47.526 L 129.500 47.552 129.459 41.526 C 129.390 31.280, 127.094 24.093, 123.865 24.015 C 123.516 24.007, 122.582 25.012, 121.790 26.250 M 183.450 37.326 C 181.772 37.972, 178.941 39.556, 177.160 40.846 L 173.920 43.193 171.324 40.596 C 168.205 37.477, 166.649 37.351, 164 40 C 161.612 42.388, 161.532 43.580, 163.506 47.364 C 165.486 51.161, 165.482 63.910, 163.500 68.654 C 161.531 73.368, 161.601 76.677, 163.694 77.849 C 164.739 78.433, 165.410 80.083, 165.444 82.148 L 165.500 85.500 174.837 85.218 L 184.173 84.935 179.942 90.968 C 177.614 94.285, 175.347 97, 174.902 97 C 174.458 97, 172.691 95.253, 170.975 93.119 C 164.607 85.194, 157.299 83.920, 154.634 90.270 C 153.085 93.961, 154.028 95.958, 157.372 96.074 C 158.708 96.121, 161.085 98.167, 163.755 101.569 C 168.550 107.680, 168.862 106.525, 160.367 114.098 C 158.147 116.077, 156.065 118.388, 155.741 119.233 C 154.994 121.180, 157.609 125, 159.689 125 C 161.631 125, 167.140 121.714, 172.661 117.261 L 176.822 113.905 180.575 117.202 C 189.840 125.343, 207.467 137.488, 218 142.990 C 224.325 146.294, 232.425 150.570, 236 152.494 C 239.575 154.417, 243.262 155.993, 244.193 155.995 C 246.359 156.001, 248.922 152.381, 248.306 150.185 C 247.860 148.595, 235.690 140.246, 227.320 135.788 C 212.063 127.663, 185 108.081, 185 105.168 C 185 104.612, 186.953 101.244, 189.340 97.685 C 191.727 94.125, 194.652 89.145, 195.840 86.617 C 198.090 81.830, 198.727 76, 197 76 C 196.450 76, 196 75.550, 196 75 C 196 74.450, 197.112 74, 198.470 74 C 202.042 74, 211.765 69.307, 213.009 66.982 C 215.256 62.785, 210.629 59.050, 205.567 60.975 C 199.479 63.289, 199.061 62.816, 199.193 53.750 C 199.403 39.234, 193.768 33.355, 183.450 37.326 M 184.213 48.459 C 180.043 50.761, 177 54.314, 176.964 56.924 C 176.917 60.340, 174.556 70.093, 173.132 72.753 C 171.534 75.740, 171.714 76.224, 173.973 75.014 C 175.059 74.433, 177.871 73.908, 180.223 73.846 C 182.576 73.784, 186.406 73.542, 188.736 73.308 L 192.972 72.882 190.736 69.841 C 188.730 67.113, 188.524 65.781, 188.731 56.900 C 188.977 46.371, 188.753 45.952, 184.213 48.459 M 126.500 84.901 C 122.650 85.865, 115.675 87.833, 111 89.273 C 106.325 90.713, 101.263 92.150, 99.750 92.465 C 97.678 92.897, 97 93.627, 97 95.425 C 97 97.323, 96.588 97.705, 94.995 97.288 C 90.606 96.141, 90 98.218, 90 114.401 C 90 134.474, 86.090 161.691, 81.006 177 C 80.002 180.025, 78.678 184.392, 78.064 186.705 C 77.450 189.018, 76.236 191.621, 75.367 192.490 C 74.498 193.359, 73.723 195.455, 73.644 197.147 C 73.459 201.113, 75.830 202.797, 79.688 201.441 C 84.688 199.683, 92.146 182.701, 96.353 163.500 C 101.829 138.504, 102.727 112.289, 98.471 101.699 C 97.836 100.121, 98.102 99.997, 100.624 100.699 C 104.263 101.712, 110.681 101.667, 114.250 100.603 C 116.987 99.787, 117 99.807, 116.980 104.642 C 116.959 109.453, 116.896 109.547, 110.480 114.292 C 103.816 119.220, 102.894 120.837, 105.510 123.008 C 108.455 125.453, 114.243 123.609, 138.600 112.466 C 142.277 110.784, 149.651 103.047, 151.028 99.427 C 152.359 95.924, 152.195 89.828, 150.718 87.954 C 146.519 82.625, 139.245 81.708, 126.500 84.901 M 130.191 95.850 C 128.921 96.207, 127.909 96.838, 127.941 97.250 C 127.973 97.662, 128 99.350, 128 101 C 128 104.613, 129.589 104.824, 135.750 102.027 C 139.134 100.491, 140 99.578, 140 97.549 C 140 95.252, 139.629 95.010, 136.250 95.100 C 134.188 95.155, 131.461 95.492, 130.191 95.850 M 164.295 138.928 C 161.982 139.992, 156.132 141.601, 151.295 142.504 C 135.341 145.482, 121.793 150.769, 120.327 154.589 C 119.976 155.505, 120.600 157.044, 121.815 158.260 C 123.889 160.334, 123.967 160.337, 130.204 158.566 C 136.197 156.865, 148.455 154.051, 148.540 154.356 C 148.562 154.435, 148.411 157.285, 148.204 160.689 L 147.828 166.879 141.164 168.457 C 137.499 169.325, 132.025 170.718, 129 171.552 C 125.500 172.517, 121.774 172.841, 118.754 172.441 C 115.029 171.949, 113.884 172.139, 113.427 173.329 C 111.889 177.338, 118.083 182, 124.950 182 C 127.178 182, 129 182.315, 129 182.699 C 129 183.084, 123.860 188.602, 117.578 194.962 C 106.177 206.506, 103.623 210.580, 105.704 213.905 C 106.253 214.782, 107.900 215.643, 109.366 215.818 C 111.623 216.087, 114.053 214.104, 125.295 202.818 C 132.590 195.493, 140.603 187.137, 143.100 184.250 C 145.598 181.363, 148.107 179, 148.676 179 C 149.952 179, 150.988 189.349, 150.979 202 C 150.971 214.038, 150.508 215.730, 147.010 216.498 C 141.723 217.659, 134.663 227.027, 136.651 230.244 C 137.560 231.715, 141.416 230.955, 153.120 227 C 165.311 222.881, 170.712 222.112, 172.800 224.200 C 174.373 225.773, 174.429 257.031, 172.878 267.459 L 171.757 275 167.966 275 C 161.929 275, 150.180 277.584, 141.368 280.849 L 133.236 283.863 133.093 270.181 L 132.949 256.500 139.225 256.476 C 142.676 256.462, 148.816 255.825, 152.869 255.059 C 158.541 253.988, 160.668 253.936, 162.105 254.834 C 164.795 256.514, 167.445 256.271, 169.345 254.171 C 171.712 251.556, 171.392 248.717, 168.417 245.924 C 165.894 243.556, 165.493 243.506, 151.167 243.776 C 143.100 243.928, 135.713 244.296, 134.750 244.593 C 133.262 245.054, 133 244.459, 133 240.617 C 133 233.951, 131.163 226.552, 128.906 224.129 C 126.351 221.386, 125.462 221.447, 122.330 224.580 C 120.041 226.868, 119.823 227.686, 120.399 231.830 C 120.756 234.398, 121.477 246.502, 122.001 258.727 C 122.976 281.449, 123.677 285, 127.186 285 C 128.124 285, 129.482 286.233, 130.205 287.741 C 130.927 289.248, 132.846 291.118, 134.470 291.896 C 137.633 293.413, 141.644 292.961, 154.783 289.610 C 158.239 288.729, 164.105 287.725, 167.819 287.380 C 177.178 286.510, 180.931 284.497, 182.507 279.500 C 185.045 271.457, 185.916 263.088, 186.205 244 C 186.475 226.151, 186.331 224.162, 184.500 220.513 C 181.381 214.296, 177.097 212.001, 168.602 211.995 L 161.500 211.991 161.210 193.495 C 161.051 183.323, 161.148 175, 161.425 175 C 162.141 175, 165.386 177.899, 174.085 186.310 C 181.583 193.559, 193.048 201, 196.718 201 C 197.759 201, 200.112 202.107, 201.946 203.460 C 205.423 206.025, 207.246 205.819, 209.957 202.552 C 211.579 200.597, 211.628 196.462, 210.052 194.563 C 209.393 193.769, 205.624 191.896, 201.677 190.401 C 193.459 187.288, 174 175.034, 174 172.972 C 174 172.373, 177.712 171.055, 184 169.420 C 186.931 168.658, 191 165.180, 191 163.436 C 191 162.768, 190.157 161.181, 189.127 159.909 C 187.404 157.780, 186.945 157.688, 183.377 158.756 C 181.245 159.394, 177.025 160.442, 174 161.085 C 170.975 161.728, 166.363 162.822, 163.750 163.517 L 159 164.781 158.833 160.890 C 158.742 158.751, 158.629 156.240, 158.583 155.310 C 158.526 154.138, 160.338 152.913, 164.500 151.313 C 176.832 146.572, 178.954 144.561, 176.611 139.834 C 175.080 136.746, 169.873 136.363, 164.295 138.928" stroke="none" fill="black" fill-rule="evenodd"/>
</svg>