<svg xmlns="http://www.w3.org/2000/svg" width="300" height="300" viewBox="0 0 300 300" version="1.1">
	<path d="M 222.430 13.965 C 219.003 15.352, 217.385 19.006, 215.661 29.253 C 213.463 42.323, 209.624 53.556, 204.372 62.288 C 201.986 66.255, 200.026 69.816, 200.017 70.201 C 199.960 72.597, 179.501 105.322, 173.831 112.088 C 171.561 114.796, 170.068 117.284, 166.981 123.500 C 163.187 131.141, 163.033 136.477, 166.498 140.215 C 173.148 147.386, 187.079 144.041, 220.500 127.248 C 228.750 123.102, 236.175 119.153, 237 118.472 C 238.497 117.235, 246.521 113, 247.366 113 C 247.612 113, 248.119 115.230, 248.494 117.956 C 249.010 121.710, 248.791 123.461, 247.588 125.178 C 246.714 126.425, 246 129.096, 246 131.114 C 246 134.200, 246.400 134.884, 248.517 135.415 C 251.658 136.203, 254.940 134.481, 258.553 130.149 C 262.232 125.738, 262.951 120.291, 261.295 109.381 C 260.554 104.497, 259.548 97.135, 259.059 93.021 C 258.308 86.711, 257.744 85.176, 255.444 83.198 C 253.442 81.476, 252.026 81.022, 250.109 81.488 C 246.040 82.476, 244.131 85.787, 243.797 92.433 L 243.500 98.366 222.410 108.933 C 210.811 114.745, 200.011 120.092, 198.410 120.815 C 190.397 124.436, 182.943 127.148, 181.930 126.810 C 181.279 126.593, 183.184 122.865, 186.398 118.063 C 189.479 113.460, 192 109.528, 192 109.325 C 192 108.714, 197.271 100.643, 199.069 98.500 C 199.993 97.400, 201.980 94.250, 203.486 91.500 C 204.992 88.750, 207.244 84.700, 208.491 82.500 C 219.480 63.104, 225.648 48.400, 227.626 36.886 C 229.478 26.107, 229.125 16.983, 226.767 14.624 C 225.874 13.731, 224.998 13.029, 224.821 13.063 C 224.645 13.098, 223.568 13.504, 222.430 13.965 M 62.456 21.676 C 62.008 22.679, 61.766 39.475, 61.918 59 C 62.207 96.272, 59.628 172.675, 57.940 176.797 C 56.638 179.979, 56.764 184.364, 58.200 185.800 C 58.860 186.460, 60.637 187, 62.149 187 C 65.329 187, 69.140 182.650, 71.427 176.409 C 72.215 174.259, 72.891 173.277, 72.930 174.227 C 72.968 175.177, 74.032 176.630, 75.294 177.457 C 77.377 178.821, 78.925 178.689, 92.044 176.018 C 105.886 173.201, 122.967 171, 130.985 171 C 136.239 171, 136.897 173.202, 137.410 192.500 C 137.644 201.300, 138.348 214.575, 138.974 222 C 140.197 236.481, 139.705 247.634, 137.388 257.942 C 135.623 265.794, 131.316 275.665, 129.321 276.430 C 127.671 277.063, 124.607 275.644, 121.624 272.865 C 117.449 268.975, 111 271.663, 111 277.294 C 111 280.751, 116.365 286.806, 121.491 289.135 C 131.568 293.713, 141.247 289.495, 147.043 278 C 153.780 264.639, 156.403 241.988, 154.100 217.052 C 153.467 210.206, 152.696 197.606, 152.386 189.052 C 151.717 170.613, 150.481 165.853, 144.965 160.466 C 141.221 156.810, 140.528 156.539, 133.977 156.169 C 130.131 155.951, 121.775 156.311, 115.406 156.967 C 109.038 157.624, 103.622 157.955, 103.370 157.703 C 103.118 157.451, 103.796 152.803, 104.876 147.373 C 105.956 141.943, 107.145 134.689, 107.518 131.254 L 108.196 125.007 113.316 122.435 C 119.199 119.480, 132.145 111.105, 133.235 109.549 C 134.487 107.760, 134.075 104.307, 132.447 102.956 C 129.845 100.797, 125.628 101.491, 117.893 105.349 C 113.833 107.375, 110.402 108.687, 110.268 108.266 C 110.135 107.845, 110.358 103.955, 110.763 99.622 L 111.500 91.743 118.605 89.017 C 122.513 87.518, 127.549 85.257, 129.796 83.994 C 136.386 80.291, 137.825 73.244, 132.487 70.812 C 130.155 69.750, 127.851 70.276, 115.750 74.633 C 112.334 75.863, 112.001 75.829, 112.015 74.242 C 112.037 71.651, 114.802 60.167, 116.694 54.813 C 118.508 49.679, 117.794 47.678, 113.535 45.952 C 111.620 45.176, 111.640 45.123, 113.876 45.063 C 115.183 45.029, 120.214 44.070, 125.057 42.933 C 137.855 39.928, 142.662 34.217, 136.299 29.576 C 133.861 27.797, 133.126 27.746, 126.581 28.905 C 122.686 29.595, 113.875 31.008, 107 32.046 C 88.227 34.880, 84.370 35.745, 78.955 38.337 L 74 40.708 73.994 36.104 C 73.983 26.893, 71.374 21.873, 65.886 20.504 C 63.912 20.011, 63.071 20.299, 62.456 21.676 M 97 48.429 C 91.225 49.682, 83.912 51.479, 80.750 52.424 L 75 54.142 75 70.455 L 75 86.768 80.750 84.465 C 83.912 83.199, 88.584 81.858, 91.132 81.485 L 95.763 80.808 96.423 74.654 C 97.188 67.522, 100.535 56.608, 102.587 54.556 C 103.364 53.779, 104.016 52.773, 104.036 52.321 C 104.056 51.870, 105.704 50.263, 107.697 48.750 C 112.153 45.369, 111.238 45.342, 97 48.429 M 86.500 97.949 C 83.200 98.960, 79.263 100.068, 77.750 100.412 C 75.007 101.037, 75 101.060, 75 109.797 C 75 117.177, 75.300 118.813, 76.908 120.189 C 78.679 121.705, 79.307 121.676, 85.658 119.784 C 89.421 118.663, 93.007 117.240, 93.627 116.623 C 94.246 116.005, 95.022 111.112, 95.350 105.750 C 96.036 94.533, 96.455 94.901, 86.500 97.949 M 85.583 135.650 C 81.456 136.647, 78.837 136.790, 76.924 136.123 L 74.181 135.167 73.585 145.834 C 72.363 167.698, 72.232 171.463, 72.747 170 C 73.912 166.687, 80.557 162.639, 86.920 161.366 C 88.614 161.027, 90 160.227, 90 159.587 C 90 158.947, 90.671 153.041, 91.492 146.462 C 92.313 139.883, 92.988 134.387, 92.992 134.250 C 93.003 133.898, 92.258 134.038, 85.583 135.650 M 235.307 164.548 C 227.270 165.801, 217.460 168.228, 213.500 169.943 C 212.400 170.420, 207.675 172.256, 203 174.024 C 197.818 175.984, 193.407 178.391, 191.700 180.191 C 189.257 182.767, 188.939 183.802, 189.200 188.321 C 189.489 193.308, 189.615 193.511, 192.605 193.803 C 194.346 193.972, 198.082 193.039, 201.105 191.681 C 212.545 186.540, 222.978 183.057, 232.899 181.068 C 238.573 179.931, 243.842 179, 244.608 179 C 248.376 179, 243.463 208.872, 236.450 228.600 L 234.637 233.701 218.352 234.313 C 204.338 234.840, 201.470 235.230, 197.787 237.109 C 195.433 238.310, 192.957 240.014, 192.285 240.896 C 190.335 243.457, 190.785 247.721, 193.250 250.028 C 195.241 251.892, 196.304 252.068, 202.500 251.559 C 206.350 251.243, 219.850 250.651, 232.500 250.242 C 251.648 249.624, 256.042 249.204, 258.736 247.732 C 262.699 245.566, 263.831 241.917, 261.598 238.509 C 259.946 235.988, 258.092 235.251, 252.189 234.770 L 248.878 234.500 252.366 227.944 C 257.154 218.941, 260.561 205.870, 262.013 190.925 C 263.388 176.771, 262.794 170.916, 259.653 167.667 C 254.941 162.795, 250.333 162.205, 235.307 164.548 M 170.783 175.750 C 165.350 181.979, 165.720 191.369, 171.998 206.586 C 173.606 210.483, 176.077 218.119, 177.489 223.555 C 180.597 235.517, 181.911 237.705, 186.503 238.567 C 192.497 239.691, 193.372 238.094, 192.620 227.395 C 192.115 220.210, 190.782 214.532, 186.394 200.876 C 179.055 178.032, 177.154 174, 173.726 174 C 172.947 174, 171.623 174.787, 170.783 175.750 M 120.817 204.750 C 112.413 213.785, 112.142 222.397, 119.978 231.323 C 122.463 234.153, 123.961 235, 126.481 235 C 132.223 235, 134.298 229.075, 130.115 224.623 C 127.751 222.106, 127.208 217.307, 128.452 209.932 C 129.069 206.271, 128.888 205.031, 127.540 203.682 C 125.200 201.343, 123.775 201.569, 120.817 204.750 M 71.362 209.307 C 68.433 211.991, 67.734 213.367, 67.649 216.612 C 67.516 221.695, 73.183 231.619, 77.739 234.280 C 80.526 235.907, 81.282 235.975, 83.715 234.812 C 87.235 233.130, 87.814 229.592, 85.157 225.999 C 82.199 221.998, 80 216.220, 80 212.449 C 80 209.289, 77.916 206, 75.914 206 C 75.395 206, 73.347 207.488, 71.362 209.307 M 94.433 207.710 C 88.313 213.830, 89.303 223.591, 96.872 231.750 C 100.366 235.516, 103.835 235.945, 106.547 232.948 C 108.366 230.938, 108.341 230.779, 105.324 225.198 C 103.629 222.064, 101.947 217.132, 101.585 214.238 C 101.224 211.344, 100.671 208.306, 100.357 207.488 C 99.590 205.490, 96.539 205.604, 94.433 207.710 M 50.051 213.662 C 47.124 217.384, 46.544 220.535, 47.934 225.173 C 49.680 231.003, 52.354 234.935, 57.153 238.733 C 62.405 242.889, 66.648 242.914, 68.944 238.804 C 70.350 236.287, 70.296 235.944, 68.132 233.641 C 65.570 230.914, 61 219.283, 61 215.490 C 61 210.613, 53.442 209.352, 50.051 213.662" stroke="none" fill="black" fill-rule="evenodd"/>
</svg>