<svg xmlns="http://www.w3.org/2000/svg" width="300" height="300" viewBox="0 0 300 300" version="1.1">
	<path d="M 114.971 47.729 C 111.740 48.432, 110.750 51.811, 112.151 57.356 C 113.691 63.452, 113.859 82.430, 112.593 107.210 C 111.615 126.368, 111.929 128, 116.597 128 C 120.188 128, 122.116 123.124, 123.097 111.564 C 124.896 90.368, 125.931 71.983, 125.403 70.607 C 124.972 69.485, 126.333 69.032, 131.677 68.517 C 135.429 68.155, 142.325 67.251, 147 66.507 C 151.675 65.764, 160.225 64.426, 166 63.534 C 171.775 62.643, 179.252 61.483, 182.615 60.957 C 185.979 60.431, 189.908 60, 191.346 60 C 193.343 60, 194.120 59.372, 194.628 57.345 C 196.437 50.137, 188.827 48.716, 166 51.999 C 152.884 53.886, 137.335 56.171, 131.094 57.129 C 124.424 58.153, 123.052 57.617, 123.015 53.973 C 122.978 50.225, 118.714 46.915, 114.971 47.729 M 158.256 67.010 C 157.004 67.524, 155.295 69.721, 154.393 71.975 C 153.227 74.890, 152.040 76.186, 150.138 76.621 C 127.997 81.678, 123.961 84.061, 129.194 88.989 C 131.266 90.940, 132.313 91.114, 139.500 90.703 C 143.900 90.451, 148.512 89.912, 149.750 89.506 C 151.549 88.915, 152 89.145, 152 90.652 C 152 92.257, 150.479 92.808, 141.750 94.364 C 136.113 95.369, 130.488 96.833, 129.250 97.619 C 124.578 100.583, 127.789 105.760, 134.889 106.712 C 138.324 107.173, 143.395 106.419, 150 104.466 C 151.221 104.105, 151.475 105.088, 151.364 109.742 L 151.227 115.462 145.518 117.157 C 142.378 118.089, 136.653 119.384, 132.796 120.034 C 125.152 121.324, 121.671 123.700, 122.189 127.278 C 122.360 128.463, 123.692 130.100, 125.149 130.915 C 128.535 132.809, 136.394 131.683, 154 126.780 C 170.251 122.254, 191.478 118, 197.810 118 C 200.744 118, 201 118.262, 201 121.257 C 201 123.048, 200.529 126.085, 199.954 128.007 C 199.379 129.928, 198.505 135.226, 198.012 139.780 C 197.044 148.729, 193.802 157.003, 189.836 160.645 C 186.921 163.321, 180.049 167, 177.965 167 C 175.776 167, 174 169.016, 174 171.500 C 174 174.763, 175.982 176, 181.211 176 C 191.222 176, 202.005 167.948, 205.887 157.572 C 207.069 154.414, 208.512 148.606, 209.093 144.665 C 209.675 140.724, 210.670 135.025, 211.303 132 C 211.936 128.975, 212.465 123.652, 212.477 120.170 C 212.498 114.300, 212.268 113.633, 209.303 110.982 C 204.885 107.031, 200.315 105.956, 192.739 107.084 C 189.307 107.595, 184.475 108.269, 182 108.581 C 177.344 109.170, 164.937 111.648, 161.599 112.656 C 160.049 113.125, 159.843 112.886, 160.484 111.365 C 160.916 110.339, 161.553 107.936, 161.898 106.025 C 162.461 102.911, 162.938 102.479, 166.513 101.851 C 175.766 100.227, 180.508 96.657, 179.341 92.195 C 178.602 89.372, 176.161 88.724, 170.865 89.945 C 164.329 91.452, 164 91.343, 164 87.689 C 164 84.515, 164.237 84.311, 169.750 82.741 C 172.912 81.841, 177.075 80.803, 179 80.434 C 180.925 80.065, 183.287 79.351, 184.250 78.847 C 186.352 77.745, 186.477 74.215, 184.508 71.613 C 183.269 69.976, 182.177 69.802, 176.289 70.298 C 172.555 70.614, 168.522 71.169, 167.326 71.532 C 165.487 72.092, 165.101 71.754, 164.826 69.347 C 164.468 66.218, 162.174 65.402, 158.256 67.010 M 166.610 141.878 C 164.394 144.327, 164.594 149.271, 167.113 154.290 C 171.423 162.879, 175.549 165.144, 178.547 160.568 C 180.059 158.261, 179.957 157.755, 176.549 150.669 C 174.574 146.562, 171.892 142.504, 170.589 141.650 C 168.421 140.229, 168.085 140.249, 166.610 141.878 M 90.148 145.539 C 87.296 149.165, 87.399 149.800, 91.532 154.032 C 93.474 156.021, 96.128 159.640, 97.429 162.074 C 100.623 168.050, 104.044 170.582, 106.875 169.067 C 109.603 167.607, 109.550 166.245, 106.416 157.164 C 103.578 148.942, 99.812 144.312, 95.213 143.393 C 92.844 142.919, 91.891 143.323, 90.148 145.539 M 139.400 146.765 C 137.334 148.144, 135.951 151.955, 136.590 154.503 C 137.473 158.022, 140.696 160, 145.548 160 C 151.846 160, 156.369 154.211, 152.548 151.040 C 151.747 150.375, 150.158 150.132, 149.006 150.498 C 147.466 150.987, 146.380 150.481, 144.885 148.581 C 142.811 145.945, 141.352 145.462, 139.400 146.765 M 118.655 148.829 C 116.319 151.410, 116.597 155.271, 119.536 161.071 C 122.432 166.786, 125.599 168.820, 128.874 167.068 C 131.337 165.749, 131.604 162.382, 129.468 159.559 C 128.661 158.491, 128 156.556, 128 155.259 C 128 153.962, 127.313 151.573, 126.474 149.950 C 124.694 146.508, 121.207 146.008, 118.655 148.829 M 163.927 180.858 C 161.393 182.910, 160.148 190.230, 160.051 203.644 L 160 210.788 150.250 212.554 C 144.887 213.525, 135.550 215.267, 129.500 216.426 L 118.500 218.533 118.438 207.516 C 118.360 193.538, 114.864 182, 110.705 182 C 107.802 182, 107.063 185.745, 107.032 200.625 C 107.014 208.944, 106.730 217.099, 106.401 218.747 C 105.753 221.983, 105.943 221.924, 90 223.903 C 80.640 225.065, 77.861 227.754, 82.076 231.569 C 83.805 233.133, 85.789 233.452, 93.929 233.474 L 103.705 233.500 102.983 236 C 101.565 240.906, 99.177 245.772, 96.112 250.004 C 92.208 255.394, 92.026 258.717, 95.587 259.611 C 98.826 260.424, 102.152 258.093, 107.179 251.487 C 110.932 246.556, 115 237.017, 115 233.147 C 115 231.539, 115.611 231, 117.435 231 C 118.774 231, 121.021 230.562, 122.429 230.027 C 124.526 229.230, 138.530 226.559, 157.750 223.291 C 160.954 222.746, 161 222.794, 160.997 226.619 C 160.995 228.754, 161.642 236.125, 162.434 243 C 163.226 249.875, 164.622 262.700, 165.537 271.500 C 166.452 280.300, 167.590 288.500, 168.066 289.722 C 169.336 292.982, 173.675 293.769, 176.239 291.205 C 178.246 289.198, 178.268 288.767, 177.114 273.324 C 176.464 264.621, 175.272 250.525, 174.464 242 C 172.348 219.671, 172.109 221.233, 177.750 220.535 C 197.307 218.114, 202 216.338, 202 211.356 C 202 205.995, 198.699 205.057, 188.500 207.520 C 185.200 208.317, 180.193 208.976, 177.372 208.984 L 172.245 209 171.548 199.750 C 171.165 194.662, 170.772 188.475, 170.676 186 C 170.395 178.824, 168.357 177.271, 163.927 180.858" stroke="none" fill="black" fill-rule="evenodd"/>
</svg>