<svg xmlns="http://www.w3.org/2000/svg" width="300" height="300" viewBox="0 0 300 300" version="1.1">
	<path d="M 97.500 24.260 C 91.389 28.733, 89.796 31.173, 79.951 51.145 C 75.517 60.140, 70.993 69.075, 69.898 71 C 68.804 72.925, 66.058 78.325, 63.796 83 C 61.534 87.675, 57.505 94.983, 54.842 99.239 C 52.179 103.496, 50 107.224, 50 107.525 C 50 109.809, 29.047 139.824, 26.423 141.300 C 24.274 142.507, 24.654 148.377, 27.019 150.517 C 32.259 155.260, 40.222 148.393, 55.021 126.367 C 58.766 120.794, 63.723 112.694, 66.036 108.367 C 68.350 104.040, 70.829 99.825, 71.546 99 C 72.263 98.175, 78.097 86.994, 84.512 74.153 C 95.307 52.544, 96.280 50.955, 97.582 52.813 C 98.355 53.918, 101.344 56.271, 104.224 58.043 C 112.450 63.104, 127.681 74.725, 128.340 76.443 C 129.242 78.794, 135.655 78.514, 136.965 76.066 C 139.380 71.552, 137.166 65.158, 131.827 61.228 C 130.876 60.528, 129.514 59.383, 128.799 58.684 C 126.974 56.897, 111.310 45.907, 106.500 43.038 C 104.300 41.726, 102.347 40.541, 102.161 40.404 C 101.975 40.267, 102.987 38.441, 104.411 36.346 C 108.754 29.954, 107.422 22.064, 102 22.063 C 101.175 22.063, 99.150 23.052, 97.500 24.260 M 178.836 38.877 C 176.821 39.306, 174.016 40.414, 172.604 41.340 C 170.177 42.930, 169.838 42.917, 166.436 41.094 C 162.839 39.166, 162.834 39.166, 160.668 41.330 C 158.784 43.213, 158.500 44.610, 158.500 51.998 C 158.500 63.057, 162.811 102.769, 164.362 106 C 165.182 107.707, 166.521 108.595, 168.582 108.799 C 173.197 109.255, 175.328 106.214, 175.821 98.470 C 176.174 92.924, 176.452 92.166, 177.865 92.889 C 178.764 93.350, 187.407 93.999, 197.072 94.332 C 211.893 94.843, 214.984 94.699, 216.822 93.412 C 219.278 91.692, 219.716 87.574, 217.661 85.519 C 215.497 83.354, 203.254 80.007, 197.145 79.910 L 191.500 79.819 199.860 77.893 C 204.876 76.737, 211.875 74.074, 217.360 71.234 C 225.186 67.181, 226.546 66.104, 226.817 63.745 C 227.516 57.668, 221.866 55.889, 212.923 59.370 C 209.390 60.745, 202 62.809, 196.500 63.957 C 179.529 67.498, 177.699 68.029, 176.412 69.790 C 175.725 70.729, 174.959 71.273, 174.710 70.998 C 174.461 70.724, 173.945 66.816, 173.565 62.314 L 172.874 54.129 176.687 53.042 C 189.593 49.362, 206.998 49.305, 224.107 52.885 C 235.491 55.268, 241 57.644, 241 60.173 C 241 61.165, 239.650 66.191, 238 71.341 C 236.350 76.492, 235 81.390, 235 82.226 C 235 84.566, 230.229 98.639, 227.430 104.555 L 224.926 109.849 218.213 110.474 C 214.521 110.818, 206.775 111.780, 201 112.611 C 191.612 113.964, 185.788 115.240, 164.500 120.612 C 158.222 122.197, 150 125.959, 150 127.248 C 150 129.105, 146.938 127.722, 144.989 124.985 C 142.975 122.156, 138.304 119, 136.131 119 C 135.599 119, 134.181 120.589, 132.981 122.531 C 130.264 126.926, 130.718 129.026, 136.416 138.423 C 138.776 142.315, 142.181 148.560, 143.983 152.301 C 146.655 157.850, 147.778 159.206, 150.081 159.666 C 152.525 160.155, 152.832 160.592, 152.366 162.921 C 151.436 167.568, 153.665 168.388, 165.177 167.634 C 170.740 167.269, 178.396 166.458, 182.191 165.831 C 187.392 164.973, 189.376 164.976, 190.246 165.846 C 192.264 167.864, 197.644 167.171, 200.841 164.480 C 203.444 162.290, 210.749 159.804, 222.500 157.110 C 228.385 155.761, 229.380 147.228, 223.915 144.965 C 221.325 143.892, 216.317 144.174, 212.596 145.602 C 211.624 145.975, 211.352 143.574, 211.417 135.165 L 211.500 124.243 218 123.629 C 221.575 123.291, 230.505 123.011, 237.845 123.007 L 251.191 123 247.949 128.750 C 246.166 131.912, 241.961 137.336, 238.604 140.801 C 235.247 144.267, 232.107 147.951, 231.626 148.988 C 230.260 151.931, 231.713 155.890, 234.408 156.566 C 237.948 157.455, 241.902 154.948, 251.696 145.610 C 259.063 138.585, 260.908 136.178, 263 130.858 C 264.445 127.184, 265.500 122.460, 265.500 119.668 C 265.500 115.446, 265.076 114.457, 262.139 111.833 L 258.778 108.830 249.389 109.534 C 244.225 109.921, 240 110.001, 240 109.712 C 240 109.423, 241.278 106.332, 242.840 102.843 C 244.403 99.354, 246.604 93.575, 247.732 90 C 248.860 86.425, 250.957 79.803, 252.392 75.285 C 255.348 65.974, 255.766 57.406, 253.495 52.651 C 251.423 48.311, 247.118 45.682, 236 41.967 C 226.668 38.850, 226.111 38.787, 204.500 38.445 C 192.400 38.253, 180.851 38.448, 178.836 38.877 M 174.826 80.971 L 175.167 84.546 181.555 82.545 C 185.069 81.444, 187.619 80.236, 187.222 79.860 C 186.825 79.483, 183.797 78.775, 180.492 78.286 L 174.485 77.396 174.826 80.971 M 96.500 88.402 C 84.287 91.222, 80.285 92.899, 76.862 96.627 C 73.420 100.377, 72.656 103.147, 74.404 105.538 C 76.439 108.321, 81.533 107.849, 94.188 103.705 C 100.067 101.780, 107.157 99.891, 109.945 99.508 C 116.030 98.671, 119.250 96.330, 119.250 92.743 C 119.250 86.180, 112.063 84.808, 96.500 88.402 M 102.843 115.999 C 99.486 116.982, 87.990 122.770, 86 124.479 C 82.495 127.489, 63.578 135, 59.502 135 C 57.757 135, 53 139.988, 53 141.818 C 53 144.441, 55.657 147.697, 58.349 148.373 C 60.031 148.795, 60.932 149.909, 61.372 152.112 C 62.292 156.708, 62.026 172.230, 60.860 182 C 60.303 186.675, 59.660 193.152, 59.433 196.394 C 59.206 199.636, 58.101 209.536, 56.978 218.394 C 52.856 250.901, 50.930 271.558, 51.571 276.367 C 52.105 280.374, 53.052 282.098, 56.926 286.117 C 61.372 290.730, 61.920 291, 66.825 291 C 72.221 291, 87.237 285.373, 95.195 280.368 C 99.292 277.791, 103.985 270.641, 104.027 266.912 C 104.047 265.052, 104.764 265.810, 107.160 270.226 C 108.869 273.375, 111.835 277.784, 113.752 280.024 C 117.087 283.920, 117.460 284.083, 122.369 283.798 C 127.168 283.519, 127.521 283.318, 127.823 280.685 C 128 279.137, 127.447 276.804, 126.593 275.501 C 125.739 274.198, 121.151 265.564, 116.397 256.316 C 104.230 232.642, 103.287 231.110, 100.451 230.398 C 94.136 228.813, 93.523 234.504, 98.393 249.522 C 100.259 255.277, 101.359 259.722, 100.836 259.399 C 98.927 258.219, 95.434 259.996, 93.618 263.070 C 92.379 265.167, 89.870 267.057, 86.128 268.714 C 83.032 270.084, 77.648 272.542, 74.162 274.176 C 70.675 275.809, 67.188 276.902, 66.412 276.604 C 65.277 276.169, 65.005 272.965, 65.026 260.281 C 65.051 245.139, 65.622 236.656, 68.128 214.250 C 69.190 204.757, 69.434 204, 71.441 204 C 75.371 204, 83.702 199.016, 90.527 192.582 C 97.205 186.287, 97.260 186.260, 99.210 188.210 C 100.641 189.641, 101.894 189.993, 103.831 189.506 C 108.826 188.253, 109.249 187.267, 112.419 169.500 C 116.107 148.827, 117.239 129.283, 115.119 122.862 C 113.161 116.927, 108.524 114.336, 102.843 115.999 M 187.157 128.250 C 182.088 129.475, 179.310 130.574, 180.078 131.049 C 180.837 131.518, 181.580 135.048, 181.935 139.878 C 182.260 144.304, 183.060 148.460, 183.712 149.112 C 184.565 149.965, 186.377 150.046, 190.158 149.399 C 195.130 148.549, 195.456 148.308, 196.114 145 C 197.341 138.828, 197.616 125.991, 196.519 126.117 C 195.959 126.181, 191.746 127.141, 187.157 128.250 M 92.413 136.937 C 82.648 142.175, 75.100 145.484, 70.741 146.438 C 68.161 147.004, 68.073 147.187, 69.393 149.271 C 70.169 150.497, 71.119 153.010, 71.504 154.855 C 72.132 157.861, 72.480 158.146, 74.852 157.606 C 76.309 157.275, 80.425 156.343, 84 155.537 C 87.575 154.730, 92.801 154.054, 95.614 154.035 L 100.727 154 101.437 143.406 C 101.827 137.580, 101.986 132.652, 101.790 132.456 C 101.593 132.260, 97.374 134.277, 92.413 136.937 M 163.500 134.112 C 160.750 134.601, 157.092 135.236, 155.371 135.523 L 152.242 136.045 154.597 141.773 C 157.442 148.690, 157.711 155.528, 155.250 158.345 C 154.170 159.582, 155.291 159.134, 158.180 157.174 C 160.754 155.428, 163.980 154, 165.348 154 C 166.717 154, 168.537 153.731, 169.393 153.403 C 170.773 152.873, 170.785 152.485, 169.504 150.007 C 167.087 145.333, 166.589 139.531, 168.309 136.083 C 169.155 134.387, 169.544 133.050, 169.173 133.112 C 168.803 133.173, 166.250 133.624, 163.500 134.112 M 97.895 166.438 C 97.172 167.161, 78.489 171.963, 74.866 172.357 L 71.500 172.723 71.209 180.909 L 70.918 189.094 74.209 187.406 C 78.784 185.060, 85.316 180.512, 89.186 176.977 C 92.376 174.064, 96 173.012, 96 175 C 96 175.550, 96.399 176, 96.886 176 C 97.374 176, 98.083 173.934, 98.461 171.408 C 99.107 167.105, 98.915 165.418, 97.895 166.438 M 207 182.083 C 203.975 183.148, 199.700 184.906, 197.500 185.990 C 195.300 187.074, 190.230 189.339, 186.234 191.023 C 182.238 192.708, 177.288 195.072, 175.234 196.278 C 170.615 198.988, 165 204.475, 165 206.278 C 165 207.713, 168.601 212.007, 169.789 211.989 C 171.433 211.964, 179.918 209.036, 185.374 206.611 C 188.605 205.175, 191.645 204, 192.129 204 C 192.614 204, 195.336 202.878, 198.178 201.507 C 201.021 200.135, 203.498 199.165, 203.683 199.350 C 203.868 199.535, 202.215 202.969, 200.010 206.982 C 197.804 210.994, 196 214.473, 196 214.714 C 196 214.954, 194.172 218.227, 191.939 221.986 L 187.878 228.822 183.689 224.188 C 177.724 217.588, 176.210 216.384, 169.697 213.065 C 162.090 209.187, 155.837 208.222, 152.498 210.409 C 148.381 213.107, 149.784 218, 154.675 218 C 157.164 218, 175.527 234.879, 177.937 239.383 C 179.207 241.755, 179.039 242.254, 175.460 246.714 C 173.349 249.346, 168.778 254.359, 165.303 257.854 C 161.829 261.349, 158.725 265.248, 158.406 266.518 C 157.736 269.187, 160.911 273, 163.804 273 C 166.800 273, 175.057 267.162, 183.029 259.407 L 190.558 252.083 203.180 261.791 C 227.724 280.672, 233.002 283.992, 242.315 286.413 C 250.176 288.456, 258.954 286.823, 261.038 282.929 C 263.823 277.724, 260.657 274.007, 253.421 273.985 C 247.928 273.969, 236.233 268.728, 229.126 263.099 C 226.950 261.377, 223.161 258.512, 220.704 256.734 C 218.247 254.955, 212.362 250.397, 207.627 246.605 L 199.016 239.710 200.859 236.605 C 201.873 234.897, 204.362 230.712, 206.391 227.304 C 208.420 223.896, 211.867 217.371, 214.051 212.804 C 216.236 208.237, 219.427 202.328, 221.143 199.674 C 222.938 196.897, 224.472 192.989, 224.756 190.471 C 225.193 186.598, 224.899 185.745, 222.202 183.048 C 218.574 179.420, 215.174 179.205, 207 182.083" stroke="none" fill="black" fill-rule="evenodd"/>
</svg>