<svg xmlns="http://www.w3.org/2000/svg" width="300" height="300" viewBox="0 0 300 300" version="1.1">
	<path d="M 204.400 13.765 C 202.007 15.363, 200.836 19.587, 199.411 31.768 C 198.593 38.757, 197.603 44.770, 197.212 45.129 C 196.026 46.217, 169.908 48.998, 154.743 49.652 C 140.033 50.286, 138.239 50.816, 135.877 55.230 C 134.742 57.351, 137.089 62.442, 139.894 63.943 C 141.657 64.887, 158.592 64.304, 185.750 62.365 L 195 61.704 195 64.409 C 195 65.897, 194.511 69.058, 193.912 71.433 C 192.863 75.601, 192.662 75.775, 188.162 76.412 C 185.598 76.775, 179 77.310, 173.500 77.600 C 160.683 78.275, 159.765 78.485, 156.077 81.589 C 152.531 84.573, 152.178 87.178, 154.947 89.947 C 158.604 93.604, 163.718 94.175, 177.677 92.484 C 184.730 91.630, 194.100 90.525, 198.500 90.029 C 213.462 88.342, 229.844 84.188, 233.250 81.217 C 235.416 79.327, 235.493 76.149, 233.443 73.223 C 231.592 70.579, 228.569 70.431, 215.750 72.359 C 210.938 73.083, 207 73.590, 207 73.487 C 207 73.383, 207.428 71.994, 207.951 70.399 C 208.474 68.805, 209.379 65.633, 209.963 63.351 C 211.019 59.218, 211.048 59.197, 217.261 58.127 C 220.693 57.537, 227.547 56.599, 232.493 56.044 C 247.198 54.393, 251.920 53.013, 255.662 49.271 C 259.926 45.008, 260.387 38.652, 256.686 35.174 C 253.251 31.947, 250.297 32.382, 247.885 36.470 C 245.548 40.431, 244.876 40.609, 229 41.457 C 223.225 41.766, 217.189 42.306, 215.586 42.657 C 213.017 43.220, 212.762 43.071, 213.426 41.398 C 213.840 40.354, 214.429 36.005, 214.734 31.733 C 215.182 25.455, 214.929 23.154, 213.413 19.733 C 210.768 13.761, 207.573 11.646, 204.400 13.765 M 92.018 18.750 C 91.203 19.064, 89.917 19.941, 89.160 20.697 C 87.366 22.491, 82.018 35.255, 78.558 46 C 77.053 50.675, 74.545 57.200, 72.984 60.500 C 71.423 63.800, 68.774 69.425, 67.096 73 C 65.419 76.575, 61.508 84.225, 58.406 90 C 55.304 95.775, 51.557 102.750, 50.079 105.500 C 47.782 109.777, 40.832 121.753, 31 138.377 C 23.125 151.693, 18.441 157.988, 16.709 157.584 C 13.954 156.941, 10.009 161.018, 9.344 165.196 C 8.539 170.254, 9.571 173.673, 12.478 175.577 C 17.429 178.821, 24.131 174.150, 34.113 160.500 C 39.199 153.545, 44 146.188, 44 145.350 C 44 145.030, 45.965 141.783, 48.367 138.134 C 50.769 134.486, 52.906 131.019, 53.117 130.431 C 53.328 129.843, 57.542 122.080, 62.482 113.181 C 71.442 97.038, 71.472 97, 74.984 97 C 81.730 97, 98.559 93.091, 106.886 89.589 C 117.403 85.167, 119.351 83.507, 118.576 79.631 C 117.477 74.134, 113.509 72.851, 105.909 75.532 C 102.704 76.663, 83.586 80, 80.313 80 C 79.929 80, 81.385 76.552, 85.908 66.745 L 89.024 59.990 93.084 62.553 C 97.645 65.432, 119.027 70.441, 122.784 69.511 C 125.847 68.752, 127.653 64.729, 126.282 61.720 C 124.744 58.344, 113.806 53.420, 98.250 49.100 C 95.597 48.363, 94 47.340, 94 46.377 C 94 45.529, 95.350 41.759, 97 38 C 100.223 30.656, 100.986 22.844, 98.703 20.561 C 97.018 18.875, 93.890 18.028, 92.018 18.750 M 206 96.118 C 187.966 98.512, 184.756 99.095, 178.867 101.044 C 172.025 103.309, 168.750 106.432, 168.750 110.693 C 168.750 117.183, 174.617 117.913, 194 113.836 C 208.624 110.759, 220.279 109.605, 224.500 110.815 L 227.500 111.675 224.270 114.720 C 222.493 116.395, 220.583 118.966, 220.025 120.434 C 219.164 122.699, 219.381 123.471, 221.460 125.551 C 222.807 126.898, 224.942 127.997, 226.205 127.994 C 227.467 127.991, 231.875 125.399, 236 122.234 C 247.543 113.379, 249.610 106.767, 242.891 100.198 C 240.404 97.766, 238.578 97.104, 231.709 96.145 C 222.494 94.857, 215.552 94.850, 206 96.118 M 106 101.669 C 105.175 101.949, 103.150 102.767, 101.500 103.486 C 99.850 104.204, 91.809 107.560, 83.632 110.942 C 75.455 114.325, 68.136 117.721, 67.369 118.488 C 65.320 120.538, 64.527 125.725, 65.994 127.492 C 66.695 128.338, 66.954 129.971, 66.588 131.245 C 66.232 132.485, 65.534 141.318, 65.036 150.872 C 64.196 166.998, 63.149 177.201, 57.995 219.500 C 56.923 228.300, 55.790 237.750, 55.477 240.500 C 54.577 248.420, 56.586 259.581, 59.764 264.312 C 67.624 276.016, 83.237 274.898, 96.443 261.685 C 102.002 256.124, 109 244.681, 109 241.154 C 109 237.135, 110.529 238.976, 113.369 246.415 C 117.391 256.951, 120.213 260.762, 124.599 261.585 C 127.487 262.126, 128.600 261.845, 130.303 260.141 C 132.256 258.188, 132.321 257.695, 131.144 253.762 C 125.969 236.472, 124.022 227.826, 123.991 222 C 123.953 214.850, 121.435 207.838, 118.303 206.162 C 115.284 204.546, 112.037 207.869, 109.572 215.096 C 107.783 220.342, 106.961 221.548, 105.026 221.768 C 102.304 222.077, 100.230 224.642, 97.750 230.764 C 95.723 235.770, 89.531 244.388, 85.374 247.990 C 81.580 251.278, 73.987 255.320, 73.157 254.493 C 71.446 252.790, 71.924 225.873, 73.940 210.449 C 76.541 190.541, 76.864 189, 78.424 189 C 79.121 189, 80.466 188.143, 81.414 187.095 C 82.362 186.047, 87.494 182.580, 92.819 179.390 C 109.287 169.523, 111.972 166.609, 110.656 160.030 C 110.088 157.189, 110.162 157.117, 112.532 158.197 C 115.759 159.667, 119.686 157.955, 120.997 154.508 C 123.934 146.784, 122.827 115.407, 119.368 108.325 C 116.848 103.166, 110.657 100.083, 106 101.669 M 159 112 C 156.988 114.012, 156.642 115.698, 156.982 121.827 C 157.267 126.967, 159.572 131.482, 164.495 136.549 C 166.973 139.098, 169 141.800, 169 142.553 C 169 143.306, 169.914 144.774, 171.031 145.814 C 172.654 147.327, 172.873 148.204, 172.120 150.184 C 170.742 153.808, 172.276 164.543, 174.633 167.769 C 175.731 169.271, 178.363 171.360, 180.481 172.412 C 183.677 173.998, 184.994 174.148, 188.205 173.291 L 192.077 172.257 190.299 174.379 C 189.321 175.545, 188.429 176.662, 188.316 176.861 C 187.863 177.659, 162.078 180.957, 156.128 180.978 C 150.516 180.997, 132.500 183.143, 126.250 184.537 C 124.468 184.934, 124 185.730, 124 188.364 C 124 192.344, 126.053 194.405, 131.500 195.895 C 140.054 198.234, 150.185 197.453, 203 190.384 C 228.091 187.026, 239.876 185.937, 267.294 184.441 C 277.894 183.862, 279.387 183.546, 282.044 181.310 C 285.927 178.042, 285.852 174.894, 281.808 171.492 C 279.115 169.226, 278.006 168.903, 274.717 169.429 C 272.573 169.772, 260.216 170.502, 247.257 171.052 C 234.297 171.602, 220.725 172.481, 217.097 173.006 C 213.469 173.531, 210.140 173.969, 209.699 173.980 C 209.259 173.991, 210.892 171.187, 213.327 167.750 C 222.645 154.600, 229.147 139.012, 226.993 134.987 C 225.541 132.274, 222.455 131.656, 219.624 133.511 C 214.782 136.683, 211.009 142.156, 202.052 159 C 200.443 162.025, 197.973 165.807, 196.564 167.406 L 194 170.311 194 167.778 C 194 164.887, 192.654 163.551, 188.817 162.636 C 185.839 161.925, 185.408 160.968, 184.475 152.993 L 183.830 147.487 190.665 145.715 C 200.066 143.279, 213.648 136.686, 214.446 134.171 C 215.408 131.139, 214.110 127.397, 211.636 126.073 C 209.812 125.097, 207.590 125.410, 198.962 127.861 C 193.208 129.495, 186.925 131.128, 185 131.491 C 183.075 131.853, 180.749 132.359, 179.831 132.616 C 178.067 133.110, 173.311 126.734, 168.927 118 C 164.751 109.678, 162.614 108.386, 159 112 M 99.500 121.301 C 97.300 122.488, 91.675 124.914, 87 126.692 C 81.596 128.747, 78.630 130.393, 78.857 131.212 C 79.053 131.920, 79.450 134.188, 79.739 136.250 C 80.027 138.313, 80.548 140, 80.896 140 C 81.244 140, 83.997 139.059, 87.014 137.908 C 90.031 136.757, 95.556 135.109, 99.292 134.245 L 106.084 132.675 105.792 126.167 C 105.631 122.588, 105.050 119.543, 104.500 119.401 C 103.950 119.258, 101.700 120.113, 99.500 121.301 M 95.716 151.017 C 89.785 153.758, 84.074 156, 83.025 156 C 80.499 156, 80.269 156.504, 79.439 163.840 L 78.729 170.111 82.115 168.100 C 83.977 166.994, 87.407 165.197, 89.737 164.107 C 92.068 163.016, 96.442 160.486, 99.457 158.485 C 102.824 156.250, 105.626 155.064, 106.720 155.412 C 108.293 155.912, 108.460 155.398, 108.153 150.989 C 107.963 148.245, 107.513 146.008, 107.153 146.017 C 106.794 146.026, 101.647 148.276, 95.716 151.017 M 209.500 205.038 C 203.450 205.518, 194.816 206.105, 190.313 206.343 C 180.500 206.860, 176.450 209.082, 175.433 214.507 C 175.040 216.600, 174.062 218.163, 172.917 218.526 C 169.741 219.534, 168.617 226.184, 169.965 235.988 C 170.609 240.670, 171.564 248.045, 172.088 252.379 C 172.612 256.712, 173.282 260.647, 173.577 261.124 C 173.871 261.601, 172.962 263.057, 171.556 264.360 C 166.703 268.858, 169.229 275.202, 176.411 276.549 C 178.674 276.974, 184.500 276.280, 192.716 274.607 C 211.776 270.726, 224.483 269.012, 234.250 269.006 C 241.662 269.001, 243.306 268.694, 245 267 C 248.508 263.492, 247.269 257.438, 242.845 256.466 C 241.222 256.110, 240.032 255.521, 240.201 255.159 C 240.369 254.797, 242.396 250.675, 244.704 246 C 247.013 241.325, 249.363 235.475, 249.926 233 C 252.638 221.093, 249.994 211.838, 242.654 207.539 C 237.582 204.569, 226.219 203.712, 209.500 205.038 M 201.198 223.491 C 192.232 224.195, 184.630 225.037, 184.305 225.362 C 183.980 225.687, 184.229 228.513, 184.857 231.643 C 185.486 234.773, 186.006 240.971, 186.014 245.417 C 186.021 249.863, 186.311 254.561, 186.658 255.857 C 187.219 257.950, 187.694 258.143, 190.895 257.571 C 192.878 257.217, 200.309 256.490, 207.408 255.955 C 214.508 255.420, 220.953 254.454, 221.732 253.808 C 224.992 251.102, 231.336 234.109, 232.162 225.866 L 232.500 222.500 225 222.356 C 220.875 222.276, 210.164 222.787, 201.198 223.491" stroke="none" fill="black" fill-rule="evenodd"/>
</svg>