<svg xmlns="http://www.w3.org/2000/svg" width="300" height="300" viewBox="0 0 300 300" version="1.1">
	<path d="M 175.840 12.672 C 174.927 12.914, 172.982 15.559, 171.519 18.551 L 168.858 23.990 169.279 57.745 C 169.681 89.964, 169.816 91.954, 172.259 101.467 C 174.051 108.445, 175.478 111.969, 177.020 113.217 C 179.773 115.446, 180.237 115.439, 183.105 113.116 L 185.432 111.232 183.716 102.280 C 182.772 97.356, 182.006 91.341, 182.013 88.914 L 182.026 84.500 190.263 81.101 C 211.028 72.533, 221 66.684, 221 63.071 C 221 62.102, 220.179 60.567, 219.175 59.658 C 217.465 58.111, 216.500 58.297, 203.983 62.580 C 196.632 65.096, 188.922 68.020, 186.849 69.077 C 181.800 71.653, 181 71.515, 181 68.072 C 181 65.257, 181.221 65.117, 186.750 64.432 C 195.872 63.303, 204.421 60.580, 209.918 57.053 C 214.089 54.376, 215 53.277, 215 50.921 C 215 48.788, 214.280 47.679, 212.193 46.600 C 209.684 45.303, 208.960 45.338, 205.389 46.937 C 200.944 48.927, 190.338 51, 184.599 51 C 181.323 51, 180.900 50.729, 181.180 48.812 C 181.465 46.862, 182.780 46.373, 193.266 44.315 C 208.985 41.229, 215 37.458, 215 30.688 C 215 26.384, 212.540 25.358, 207.172 27.424 C 201.747 29.512, 182.013 33.346, 181.147 32.480 C 180.626 31.960, 180.481 20.632, 180.930 15.590 C 181.081 13.896, 179.355 11.858, 178 12.131 C 177.725 12.187, 176.753 12.430, 175.840 12.672 M 127.838 25.058 C 126.924 25.577, 125.882 27.738, 125.523 29.861 L 124.871 33.722 110.186 35.881 C 77.958 40.619, 78 40.607, 78 45.217 C 78 50.137, 81.500 51.389, 93.030 50.595 C 98.504 50.218, 106.699 49.232, 111.241 48.404 C 127.877 45.372, 126 45.250, 126 49.369 C 126 52.895, 125.892 53, 122.250 53.016 C 117.797 53.034, 101.815 56.305, 95.189 58.553 C 84.104 62.315, 84.246 67.294, 95.500 69.450 C 98.375 70, 109.642 68.210, 116.993 66.034 C 121.907 64.580, 126 64.724, 126 66.351 C 126 67.094, 125.532 69.006, 124.961 70.601 C 122.791 76.653, 105.285 84.256, 90.416 85.604 C 86.037 86.001, 82.253 86.890, 81.427 87.716 C 79.309 89.834, 79.695 93.365, 82.314 95.826 C 84.268 97.661, 85.804 98, 92.158 98 C 100.216 98, 107.098 96.126, 115.536 91.634 C 118.203 90.214, 120.574 89.241, 120.804 89.471 C 121.388 90.055, 115.168 108.712, 112.898 113.182 C 111.870 115.207, 110.572 117.146, 110.014 117.491 C 108.045 118.708, 108.949 122.921, 111.545 124.622 C 113.686 126.024, 114.469 126.087, 116.467 125.018 C 126.515 119.640, 137.440 86.672, 138.598 58.239 C 139.168 44.221, 138.769 41.390, 134.693 30.523 C 132.930 25.820, 130.254 23.688, 127.838 25.058 M 146.010 106.761 C 144.091 108.267, 141.728 110.287, 140.760 111.250 C 139.792 112.213, 137.988 113.002, 136.750 113.004 C 133.705 113.009, 128 116.604, 128 118.518 C 128 119.368, 128.861 120.387, 129.913 120.782 C 131.639 121.430, 131.373 122.036, 127.176 127 C 121.242 134.019, 99.384 155.829, 91.097 163 C 84.030 169.115, 72.696 177, 70.973 177 C 69.209 177, 67 179.672, 67 181.806 C 67 187.526, 76.409 187.277, 85.846 181.307 C 102.232 170.943, 122.831 152.229, 136.267 135.500 C 140.685 130, 144.585 125.382, 144.933 125.239 C 145.282 125.095, 148.252 126.718, 151.534 128.845 C 159.627 134.093, 173.488 139.497, 196.500 146.378 C 203.290 148.408, 215.928 150.998, 219.050 150.999 C 224.209 151.001, 225.715 145.960, 221.686 142.174 C 220.413 140.978, 218.344 140, 217.089 140 C 213.299 140, 195.028 134.427, 181 128.993 C 177.975 127.821, 173.808 126.236, 171.740 125.472 C 169.672 124.707, 164.594 122.475, 160.455 120.511 C 153.103 117.022, 152.965 116.889, 154.465 114.747 C 155.309 113.541, 156 111.170, 156 109.477 C 156 103.481, 151.685 102.307, 146.010 106.761 M 172.964 142.442 C 171.039 144.337, 152.792 148, 145.274 148 C 137.785 148, 129.364 150.451, 127.982 153.034 C 126.566 155.679, 128.158 158.513, 132.246 160.627 C 135.094 162.100, 136.655 162.143, 146.966 161.035 C 171.940 158.351, 184.784 152.157, 180.855 144.693 C 178.794 140.778, 175.584 139.862, 172.964 142.442 M 140.283 171.014 C 126.785 173.717, 122.046 176.659, 124.604 180.750 C 126.761 184.199, 134.399 185.185, 146.015 183.513 C 151.798 182.681, 158.885 182, 161.765 182 L 167 182 167 186.933 C 167 192.606, 168.097 191.969, 153 195.059 C 147.225 196.241, 138.900 197.956, 134.500 198.871 L 126.500 200.535 126.854 196.228 C 127.363 190.033, 126.217 185.186, 123.957 183.977 C 121.233 182.519, 118.497 184.190, 116.992 188.229 C 115.790 191.454, 113.990 203.655, 113.853 209.500 C 113.815 211.150, 113.098 221.500, 112.262 232.500 C 109.860 264.063, 111.521 279.033, 118.115 285.250 C 124.203 290.990, 130.230 288.201, 147.759 271.534 C 158.088 261.713, 159.575 259.147, 156.750 256.014 C 156.063 255.251, 157.750 256.443, 160.500 258.663 C 169.354 265.810, 192.614 279.053, 205.268 284.151 C 220.575 290.318, 226.584 292, 233.308 292 C 241.893 292, 244 290.949, 244 286.665 C 244 282.340, 242.452 281, 237.455 281 C 235.176 281, 230.653 280.077, 227.405 278.950 C 224.157 277.822, 220.134 276.477, 218.464 275.962 C 212.349 274.073, 186.205 260.320, 176.718 254.001 C 169.058 248.899, 167.273 247.287, 168.415 246.501 C 177.687 240.119, 181.810 236.719, 185.394 232.500 C 191.033 225.862, 191.271 225.374, 190.011 223.021 C 187.803 218.895, 180.831 221.066, 171.048 228.924 C 164.480 234.200, 157.625 239, 156.658 239 C 156.191 239, 154.614 238.162, 153.154 237.139 C 151.694 236.115, 148.734 234.704, 146.575 234.003 C 142.905 232.812, 142.773 232.639, 144.544 231.344 C 145.586 230.582, 148.237 229.475, 150.437 228.882 C 152.636 228.290, 156.250 227.003, 158.467 226.021 C 160.685 225.040, 163.892 223.708, 165.593 223.062 C 167.294 222.416, 170.714 219.775, 173.193 217.194 C 179.645 210.473, 181.319 204.337, 180.828 189.214 C 180.488 178.771, 180.178 177.099, 177.973 173.802 C 176.613 171.768, 174.600 169.861, 173.500 169.565 C 169.086 168.378, 149.097 169.249, 140.283 171.014 M 160.500 206.149 C 158.300 206.667, 153.350 207.930, 149.500 208.957 C 145.650 209.983, 138.563 211.608, 133.750 212.568 L 125 214.313 125 219.611 L 125 224.910 131.253 222.557 C 134.693 221.262, 139.080 219.522, 141.003 218.690 C 147.883 215.715, 155.288 213, 156.525 213 C 157.217 213, 158.064 211.882, 158.407 210.515 C 159.040 207.991, 162.888 206.195, 164.943 207.465 C 165.524 207.824, 166 207.416, 166 206.559 C 166 204.826, 166.087 204.833, 160.500 206.149 M 128.353 236.727 C 125.097 237.024, 124.079 237.577, 123.617 239.302 C 122.167 244.709, 123.595 271.928, 125.425 273.758 C 126.040 274.373, 131.833 270.462, 143.951 261.250 C 148.473 257.813, 152.836 255, 153.646 255 C 154.455 255, 154.851 254.567, 154.524 254.038 C 154.143 253.422, 153.019 253.422, 151.399 254.038 C 147.467 255.533, 143.471 255.178, 141.655 253.171 C 139.464 250.750, 139.567 249.433, 142.152 246.848 L 144.303 244.697 141.402 242.602 C 139.806 241.451, 137.548 239.494, 136.385 238.254 C 135.222 237.014, 133.872 236.079, 133.385 236.175 C 132.898 236.271, 130.634 236.519, 128.353 236.727" stroke="none" fill="black" fill-rule="evenodd"/>
</svg>