<svg xmlns="http://www.w3.org/2000/svg" width="300" height="300" viewBox="0 0 300 300" version="1.1">
	<path d="M 65.056 29.944 C 62.103 32.897, 61.745 37.124, 62.799 56.607 C 63.849 76.014, 63.025 107.194, 60.514 143 C 58.391 173.281, 58.478 180.478, 61 183 C 65.060 187.060, 72 184.680, 72 179.229 C 72 177.184, 72.267 176.867, 73.200 177.800 C 75.125 179.725, 78.277 179.231, 88.700 175.370 C 107.476 168.415, 120.489 164, 122.213 164 C 128.977 164, 130.871 193.268, 126.162 225 C 125.060 232.425, 123.404 244.350, 122.481 251.500 C 120.802 264.510, 118.059 273.379, 115.399 274.400 C 113.436 275.154, 109.578 273.539, 104.322 269.765 C 100.101 266.734, 99.725 266.644, 97.183 268.064 C 95.270 269.132, 94.408 270.511, 94.180 272.869 C 93.912 275.645, 94.522 276.807, 97.982 280.098 C 112.865 294.255, 128.065 291.048, 133.422 272.620 C 135.606 265.109, 140.552 230.536, 142.453 209.500 C 144.720 184.405, 142.731 164.730, 137.122 156.785 C 134.595 153.206, 127.225 149, 123.479 149 C 121.303 149, 109.494 151.920, 104.750 153.631 C 100.421 155.193, 100.473 155.359, 102.432 146.197 C 103.219 142.514, 104.129 137.925, 104.453 136 C 104.920 133.225, 106.369 131.423, 111.450 127.300 C 119.390 120.856, 123.491 114.421, 122.058 110.652 C 120.412 106.322, 116.805 106.238, 111.140 110.398 C 108.440 112.379, 105.955 114, 105.616 114 C 105.277 114, 105 111.050, 105 107.445 L 105 100.890 110.300 98.546 C 119.021 94.689, 125 90.197, 125 87.501 C 125 81.986, 119.514 80.038, 112.154 82.939 C 109.278 84.073, 106.493 85, 105.963 85 C 105.433 85, 105 81.695, 105 77.649 C 105 71.672, 105.481 69.393, 107.573 65.458 C 109.590 61.666, 109.932 60.145, 109.153 58.436 C 108.219 56.386, 108.561 56.146, 114.829 54.469 C 125.164 51.703, 126 51.169, 126 47.339 C 126 39.351, 119.232 37.760, 104.500 42.284 C 100.100 43.636, 93.800 45.325, 90.500 46.038 C 87.200 46.750, 83.285 47.934, 81.800 48.667 C 76.719 51.175, 76 50.593, 76 43.968 C 76 36.997, 74.200 31.954, 70.883 29.631 C 67.920 27.555, 67.418 27.582, 65.056 29.944 M 209.008 37.450 C 206.496 38.841, 204.885 43.749, 203.340 54.723 C 202.963 57.401, 202.152 59.114, 201.123 59.406 C 199.545 59.854, 187.804 61.286, 175.377 62.546 C 169.141 63.178, 163.394 65.810, 162.359 68.508 C 161.293 71.285, 162.982 75.042, 165.778 76.115 C 168.497 77.157, 195.737 75.830, 200.727 74.412 C 202.936 73.784, 202.949 73.847, 202.338 82.139 C 201.999 86.738, 201.607 90.640, 201.466 90.811 C 201.326 90.982, 198.576 91.497, 195.356 91.955 C 185.677 93.332, 177.793 96.054, 174.792 99.055 C 169.453 104.393, 172.364 110.263, 179.299 108.145 C 181.060 107.608, 186.903 106.877, 192.283 106.521 L 202.067 105.874 201.783 117.187 L 201.500 128.500 196.393 130.195 C 193.584 131.127, 189.084 133.181, 186.393 134.758 C 182.484 137.048, 181.440 138.227, 181.201 140.617 C 180.773 144.908, 184.057 146.439, 192.198 145.743 C 195.664 145.447, 199.223 144.910, 200.107 144.550 C 201.403 144.022, 201.838 144.802, 202.357 148.587 C 203.346 155.802, 203.129 167, 202 167 C 201.450 167, 201 165.740, 201 164.200 C 201 158.509, 195.458 157.165, 190.593 161.676 C 187.989 164.091, 181 177.365, 181 179.896 C 181 180.798, 172.734 197.251, 168.153 205.465 C 157.966 223.736, 150.613 235.116, 147.995 236.662 C 144.141 238.939, 143.873 243.215, 147.438 245.551 C 149.701 247.034, 150.184 247.004, 154.188 245.133 C 156.560 244.024, 159.214 242.528, 160.087 241.808 C 163.057 239.361, 174.613 223.525, 178.556 216.500 C 180.718 212.650, 183.271 208.150, 184.230 206.500 C 188.511 199.136, 195.983 183.788, 197.096 180.076 C 198.483 175.445, 198.975 175.210, 201.485 177.983 C 203.163 179.838, 203.245 182.343, 202.750 216.733 C 202.246 251.712, 202.108 253.827, 199.925 260.217 C 197.692 266.751, 197.680 266.988, 199.470 268.967 C 201.877 271.626, 205.259 271.545, 208.488 268.750 C 213.290 264.595, 217.266 240.439, 218.269 209.335 L 218.500 202.170 225.500 208.180 C 242.149 222.475, 265.253 236.704, 275.571 239.016 C 281.236 240.286, 287.282 238.864, 289.463 235.749 C 291.770 232.456, 291.438 226.486, 288.811 224.039 C 286.190 221.597, 283.718 221.430, 281.937 223.576 C 280.032 225.871, 274.680 224.579, 267.788 220.161 C 264.647 218.148, 259.247 214.718, 255.788 212.540 C 252.330 210.362, 247.257 206.762, 244.515 204.540 C 241.774 202.318, 238.642 199.825, 237.555 199 C 236.468 198.175, 231.395 193.450, 226.282 188.500 L 216.985 179.500 217.243 158.132 L 217.500 136.764 225 132.535 C 234.397 127.237, 238.706 123.084, 239.566 118.500 C 240.064 115.848, 241.321 114.175, 244.576 111.838 C 250.802 107.367, 254.366 101.641, 253.653 97.252 C 253.076 93.692, 251.691 92.154, 246.528 89.339 C 244.046 87.986, 241.367 87.811, 230.278 88.276 L 217 88.832 217 80.014 L 217 71.196 220.149 70.098 C 221.881 69.494, 224.501 69, 225.971 69 C 229.123 69, 237.566 66.278, 240.711 64.248 C 245.185 61.360, 244.284 56.189, 238.919 53.966 C 236.844 53.107, 234.320 53.335, 227.074 55.036 C 222.009 56.225, 217.600 56.933, 217.275 56.609 C 216.951 56.284, 216.607 52.044, 216.511 47.186 C 216.415 42.328, 216.009 37.824, 215.609 37.177 C 214.655 35.633, 212.100 35.739, 209.008 37.450 M 85.500 63.528 C 83.300 64.253, 80.263 64.881, 78.750 64.923 L 76 65 76 80.073 C 76 91.646, 76.290 95.068, 77.250 94.808 C 77.938 94.621, 81.053 93.617, 84.174 92.576 L 89.847 90.683 90.219 78.091 C 90.424 71.166, 90.956 64.713, 91.403 63.750 C 92.367 61.669, 91.267 61.627, 85.500 63.528 M 159.895 95.661 C 157.272 96.363, 155.662 100.484, 156.344 104.747 C 156.684 106.874, 158.998 113.473, 161.486 119.412 C 163.974 125.351, 166.294 132.075, 166.642 134.355 C 167.570 140.438, 168.660 142, 171.978 142 C 175.483 142, 178 138.876, 178 134.527 C 177.999 124.555, 170.700 101.080, 166.409 97.250 C 163.922 95.030, 163.050 94.817, 159.895 95.661 M 223 103.913 L 217.500 104.500 217.194 109.845 L 216.889 115.190 221.040 112.857 C 223.324 111.574, 227.061 108.837, 229.346 106.776 C 234.006 102.571, 234.306 102.706, 223 103.913 M 83 108.961 L 76.500 111.865 75.867 118.183 C 75.158 125.259, 75.001 138.321, 75.654 136 C 75.885 135.175, 79.189 132.475, 82.994 130 L 89.913 125.500 89.956 115.750 C 89.980 110.388, 89.888 106.013, 89.750 106.028 C 89.612 106.043, 86.575 107.363, 83 108.961 M 74.019 142 C 73.986 144.475, 73.540 149.404, 73.027 152.954 C 72.514 156.504, 72.355 161.310, 72.673 163.634 L 73.253 167.859 78.055 164.556 C 80.696 162.739, 83.952 160.978, 85.290 160.642 C 87.298 160.138, 87.835 159.217, 88.362 155.376 C 88.713 152.816, 89 149.489, 89 147.983 C 89 145.331, 88.860 145.261, 84.508 145.752 C 79.419 146.326, 77.424 145.178, 75.386 140.500 L 74.078 137.500 74.019 142 M 100.228 200.230 C 97.671 201.462, 96.490 204.833, 97.377 208.368 C 98.278 211.957, 107.019 220.002, 110 219.984 C 117.731 219.938, 116.561 212.151, 107.350 202.351 C 103.923 198.705, 103.595 198.608, 100.228 200.230 M 82.895 202.744 C 81.121 203.127, 79 209.087, 79 213.688 C 79 218.201, 81.942 225.846, 84.321 227.512 C 87.382 229.656, 91.596 229.350, 93.961 226.811 C 96.540 224.043, 96.555 221.456, 94.004 219.272 C 92.907 218.332, 91.761 215.974, 91.458 214.031 C 90.352 206.938, 86.567 201.950, 82.895 202.744 M 62 207.735 C 59.013 208.886, 57 212.312, 57 216.246 C 57 219.755, 57.699 220.885, 63.407 226.593 C 68.822 232.007, 70.352 233, 73.285 233 C 75.194 233, 77.190 232.438, 77.722 231.750 C 80.170 228.587, 79.768 227.039, 74.936 221.018 C 72.221 217.635, 70 214.030, 70 213.006 C 70 211.983, 68.814 210.212, 67.365 209.073 C 64.578 206.880, 64.361 206.826, 62 207.735 M 31.807 217.750 C 27.120 223.208, 28.938 228.272, 38.181 235.505 C 45.550 241.270, 48.110 242.012, 51.777 239.443 C 55.058 237.146, 54.522 234.675, 49.464 228.783 C 43.432 221.757, 43 221.197, 43 220.410 C 43 220.038, 42.031 218.894, 40.847 217.867 C 38.139 215.518, 33.772 215.462, 31.807 217.750" stroke="none" fill="black" fill-rule="evenodd"/>
</svg>