<svg xmlns="http://www.w3.org/2000/svg" width="300" height="300" viewBox="0 0 300 300" version="1.1">
	<path d="M 252 23.127 C 242.488 25.632, 222.981 27.182, 191.500 27.934 C 163.689 28.598, 156.661 29.050, 152.889 30.419 C 147.892 32.233, 145.783 35.182, 147.044 38.591 C 148.506 42.543, 152.440 43.207, 167.593 42.061 C 175.242 41.482, 189.848 41.006, 200.050 41.004 C 220.603 41, 242.966 39.567, 250.232 37.789 C 252.835 37.152, 255.228 36.895, 255.551 37.217 C 255.873 37.540, 253.406 41.487, 250.069 45.989 C 246.731 50.490, 244 54.531, 244 54.967 C 244 56.089, 224.973 58.856, 209.066 60.048 C 201.677 60.601, 194.702 61.265, 193.566 61.521 C 189.947 62.339, 164.963 65, 160.905 65 C 157.680 65, 157 64.655, 157 63.020 C 157 60.064, 153.974 52.810, 151.674 50.250 C 149.237 47.539, 145.435 47.320, 144.100 49.814 C 143.206 51.484, 143.422 53.456, 145.510 62.682 C 145.864 64.247, 145.438 65.044, 144.002 65.499 C 142.797 65.882, 142.006 67.004, 142.015 68.317 C 142.034 71.042, 142.918 72.395, 145.601 73.806 C 149.250 75.725, 150.501 86.885, 150.496 117.500 C 150.491 147.099, 148.287 171.114, 143.290 196 C 141.910 202.875, 140.398 210.975, 139.930 214 C 139.463 217.025, 138.173 222.200, 137.065 225.500 C 135.956 228.800, 135.038 232.383, 135.025 233.463 C 134.996 235.756, 130.073 252.787, 125.904 265.019 C 124.307 269.705, 122.987 274.205, 122.972 275.019 C 122.957 275.834, 121.607 278.268, 119.972 280.428 C 118.337 282.589, 117 285.331, 117 286.523 C 117 289.618, 120.233 292.234, 123.132 291.486 C 130.246 289.651, 133.888 282.606, 144.063 251 C 147.335 240.834, 153.116 218.072, 153.967 212 C 154.391 208.975, 155.884 200.200, 157.283 192.500 C 163.225 159.818, 164.824 102.481, 160.401 80.750 C 159.841 78.001, 159.843 78, 165.671 77.995 C 168.877 77.993, 178.925 77.090, 188 75.991 C 197.075 74.891, 209.225 73.526, 215 72.957 C 235.822 70.908, 250.919 66.890, 253.431 62.729 C 254.019 61.755, 258.150 57.247, 262.612 52.711 C 270.938 44.244, 275 37.974, 275 33.587 C 275 24.580, 264.541 19.823, 252 23.127 M 43.613 27.141 C 42.341 28.958, 42.199 32.942, 42.675 53.391 C 42.984 66.651, 42.738 99.901, 42.128 127.279 C 40.930 181.064, 40.925 181, 46.066 181 C 49.429 181, 52.941 177.194, 54.029 172.372 C 54.503 170.270, 55.203 161.729, 55.584 153.392 L 56.277 138.234 60.535 137.650 C 62.876 137.329, 67.314 135.952, 70.396 134.588 C 73.478 133.225, 76.068 132.423, 76.152 132.805 C 76.235 133.187, 76.347 137.981, 76.402 143.458 C 76.494 152.842, 76.635 153.485, 78.834 154.593 C 85.002 157.700, 87.560 153.193, 88.570 137.439 C 89.265 126.599, 89.300 126.482, 92.386 124.486 C 94.922 122.846, 95.556 121.703, 95.803 118.324 C 96.075 114.606, 95.787 113.987, 93.019 112.352 L 89.931 110.528 90.216 101.537 L 90.500 92.546 96.327 89.523 C 103.070 86.025, 109 80.725, 109 78.197 C 109 75.388, 106.077 72, 103.655 72 C 102.427 72, 99.658 72.900, 97.500 74 C 95.342 75.100, 93.088 76, 92.491 76 C 91.395 76, 92.053 64.474, 93.463 58.957 C 94.223 55.985, 90.897 51, 88.155 51 C 85.146 51, 78.042 67.447, 77.242 76.265 C 76.805 81.089, 76.374 82.111, 74.610 82.515 C 73.449 82.780, 68.787 83.840, 64.250 84.871 L 56 86.745 56 68.056 L 56 49.366 63.250 47.686 C 74.237 45.140, 83.492 44.042, 94.139 44.020 C 105.802 43.996, 108.711 42.514, 107.542 37.192 C 107.157 35.437, 106.239 34, 105.504 34 C 104.768 34, 103.980 33.438, 103.751 32.750 C 103.448 31.837, 99.008 31.414, 87.300 31.183 C 74.154 30.923, 69.799 31.213, 63.132 32.792 C 55.790 34.531, 55 34.562, 54.996 33.109 C 54.994 32.224, 54.101 30.038, 53.011 28.250 C 50.587 24.274, 46.001 23.733, 43.613 27.141 M 190.990 90.350 C 179.003 93.525, 176 95.470, 176 100.061 C 176 102.307, 176.697 104.321, 177.829 105.345 C 179.787 107.117, 185.509 107.603, 186.452 106.078 C 187.273 104.750, 200.088 102, 205.456 102 L 210.017 102 207.009 107.331 C 204.040 112.591, 203.140 117.350, 204.906 118.442 C 205.404 118.750, 205.591 119.849, 205.320 120.884 C 204.740 123.102, 200.651 123.973, 190.735 123.989 C 184.442 123.999, 183.712 124.237, 180.258 127.402 C 176.902 130.478, 176.640 131.078, 177.533 133.652 C 179.351 138.890, 183.736 140.131, 197.750 139.371 L 210 138.708 210 143.699 C 210 149.844, 208.018 152, 202.371 152 C 197.735 152, 196 153.374, 196 157.045 C 196 164.094, 209.368 166.920, 217.502 161.591 C 221.382 159.048, 223.199 154.355, 223.755 145.439 L 224.266 137.252 230.883 136.501 C 234.522 136.087, 240.069 135.651, 243.208 135.532 C 249.805 135.280, 252 133.886, 252 129.946 C 252 127.918, 251.095 126.491, 248.750 124.818 C 245.700 122.643, 244.707 122.516, 232.636 122.761 C 220.972 122.998, 219.450 122.823, 216.307 120.880 L 212.840 118.738 216.873 114.619 C 221.657 109.732, 224 104.586, 224 98.966 C 224 94.586, 222.653 91.252, 220.087 89.282 C 217.341 87.174, 200.670 87.786, 190.990 90.350 M 64.750 99.245 L 56 101.320 56 112.679 L 56 124.038 58.579 123.391 C 59.998 123.035, 64.610 121.321, 68.829 119.582 L 76.500 116.420 76.786 106.710 C 77.119 95.428, 78.148 96.067, 64.750 99.245 M 101.500 152.036 C 97.511 152.850, 82.568 158.621, 77.023 161.488 C 75.415 162.320, 73.346 163, 72.425 163 C 71.504 163, 68.099 164.190, 64.858 165.644 C 60.758 167.484, 58.792 168.981, 58.394 170.565 C 57.462 174.281, 58.347 176.400, 61.455 177.889 C 64.008 179.113, 65.273 179.081, 71.261 177.644 C 75.043 176.736, 80.469 174.937, 83.318 173.645 C 102.267 165.056, 107.573 163.576, 109.800 166.260 C 110.701 167.344, 111.035 176.438, 111.084 201.138 C 111.121 219.515, 110.868 235.889, 110.523 237.525 C 106.831 255.010, 102.340 266.432, 98.463 268.199 C 95.512 269.543, 88.100 268.041, 81.634 264.787 C 76.922 262.415, 73.272 263.069, 72.427 266.436 C 71.332 270.797, 72.420 272.289, 79.927 276.722 C 87.836 281.393, 95.702 283.029, 103.352 281.594 C 111.271 280.108, 116.796 271.294, 122.215 251.500 L 125.500 239.500 125.376 203.397 C 125.244 164.907, 124.952 162.235, 120.252 156.500 C 115.997 151.309, 110.947 150.107, 101.500 152.036 M 230.039 171.189 C 228.918 172.392, 228 174.227, 228 175.265 C 228 177.220, 232.392 182.229, 235.010 183.260 C 235.998 183.650, 236.147 184.126, 235.452 184.674 C 233.619 186.118, 229 194.781, 229 196.773 C 229 197.827, 229.900 199.505, 231 200.500 C 232.100 201.495, 233 202.867, 233 203.549 C 233 204.230, 234.800 209.329, 237 214.879 C 239.200 220.429, 241 225.552, 241 226.263 C 241 227.727, 229.349 231.022, 224.218 231.008 C 214.107 230.983, 208.649 238.740, 214.595 244.686 C 217.092 247.183, 217.498 247.257, 225.407 246.649 C 229.927 246.301, 235.847 245.343, 238.563 244.519 C 241.278 243.696, 243.838 243.017, 244.250 243.011 C 244.662 243.005, 245 246.289, 245 250.309 C 245 258.383, 243.514 261.795, 240.500 260.638 C 238.051 259.699, 235 262.655, 235 265.968 C 235 267.605, 236.132 269.710, 237.947 271.449 C 240.550 273.943, 241.435 274.211, 245.539 273.748 C 249.155 273.341, 251.025 272.405, 253.972 269.528 C 258.655 264.955, 260.207 258.492, 259.335 247.190 L 258.734 239.396 262.617 238.280 C 264.753 237.666, 269.200 236.604, 272.500 235.920 C 279.884 234.388, 282 232.706, 282 228.368 C 282 225.896, 281.336 224.611, 279.406 223.346 C 277.051 221.803, 275.844 221.764, 266.342 222.926 C 260.583 223.630, 255.737 224.047, 255.572 223.853 C 255.406 223.659, 254.303 220.877, 253.120 217.671 C 250.005 209.231, 247.106 204.640, 243.326 202.162 C 241.497 200.963, 240 199.457, 240 198.816 C 240 198.175, 244.050 193.782, 249 189.053 C 258.467 180.009, 259.376 178.114, 256.878 172.632 C 255.439 169.473, 253.593 169.030, 241.789 169.014 C 233.077 169.001, 231.868 169.225, 230.039 171.189 M 171.174 177.314 C 168.432 180.234, 168.389 184.137, 171.073 186.566 C 172.560 187.911, 175.108 188.554, 180.068 188.834 L 186.988 189.225 184.337 192.363 C 180.389 197.034, 177 205.430, 177 210.541 C 177 213.007, 177.900 218.273, 179 222.243 C 182.115 233.482, 182.163 233.361, 173.750 235.337 C 169.762 236.274, 163.446 237.323, 159.714 237.668 C 153.828 238.213, 152.602 238.684, 150.464 241.225 C 147.431 244.829, 147.377 246.342, 150.189 248.961 C 151.671 250.342, 153.733 251, 156.578 251 C 160.602 251, 177.599 247.874, 181.250 246.463 C 182.783 245.870, 182.999 246.449, 182.994 251.143 C 182.991 254.089, 182.520 258.188, 181.947 260.250 C 181.115 263.249, 180.427 264, 178.512 264 C 177.195 264, 175.840 263.550, 175.500 263 C 173.643 259.996, 166 263.802, 166 267.730 C 166 270.234, 171.541 274.799, 176.056 276.015 C 189.217 279.559, 196.813 269.712, 195.800 250.418 C 195.385 242.504, 195.467 242.108, 197.730 241.077 C 199.030 240.485, 200.635 239.991, 201.297 239.981 C 201.959 239.971, 204.637 238.620, 207.250 236.979 C 211.177 234.513, 212 233.483, 212 231.033 C 212 225.739, 208.221 225.326, 197.094 229.406 C 194.671 230.294, 192.593 230.904, 192.478 230.761 C 192.362 230.617, 190.882 225.812, 189.189 220.081 C 187.214 213.396, 186.415 209.096, 186.960 208.081 C 187.427 207.212, 191.285 203.379, 195.533 199.564 C 206.042 190.127, 208.058 184.652, 202.852 179.689 C 199.150 176.160, 194.415 175, 183.706 175 C 174.173 175, 173.176 175.184, 171.174 177.314 M 92.750 204.392 C 90.218 206.314, 90.587 209.855, 94.043 216.770 C 96.514 221.715, 97.655 222.985, 100.110 223.524 C 105.484 224.705, 108.733 219.875, 105.468 215.559 C 104.661 214.491, 104 212.829, 104 211.866 C 104 210.903, 103.056 208.514, 101.901 206.557 C 99.621 202.692, 96.090 201.857, 92.750 204.392 M 67.750 208.115 C 65.459 209.825, 65 210.920, 65 214.683 C 65 218.466, 65.540 219.740, 68.321 222.521 C 72.669 226.869, 77.612 227.842, 82.707 225.353 C 86.660 223.422, 87.594 221.504, 86.570 217.421 C 86.077 215.458, 85.323 215, 82.589 215 C 79.917 215, 79.099 214.529, 78.647 212.730 C 77.884 209.691, 74.331 205.992, 72.211 206.032 C 71.270 206.049, 69.263 206.987, 67.750 208.115 M 46.333 209.576 C 42.767 213.142, 43.531 218.356, 48.593 224.994 C 54.718 233.025, 61.684 234.983, 64.232 229.390 C 65.148 227.379, 64.984 226.470, 63.290 224.178 C 62.161 222.651, 60.062 219.082, 58.624 216.245 C 55.823 210.718, 52.462 207, 50.266 207 C 49.520 207, 47.750 208.159, 46.333 209.576 M 16.988 215.282 C 13.365 218.201, 12.047 225.103, 14.063 230.601 C 16.515 237.286, 27.794 242.550, 34.338 240.062 C 36.398 239.278, 37 238.376, 37 236.073 C 37 233.665, 36.130 232.497, 32.442 229.960 C 27.859 226.807, 26 223.814, 26 219.590 C 26 215.155, 20.443 212.498, 16.988 215.282" stroke="none" fill="black" fill-rule="evenodd"/>
</svg>