<svg xmlns="http://www.w3.org/2000/svg" width="300" height="300" viewBox="0 0 300 300" version="1.1">
	<path d="M 134.544 29.344 C 133.041 30.443, 132.805 31.580, 133.253 35.554 C 133.719 39.687, 134.475 41.055, 138.277 44.647 C 140.738 46.973, 143.041 50.029, 143.395 51.438 C 143.983 53.782, 143.769 54, 140.885 54 C 139.151 54, 136.105 54.430, 134.116 54.956 C 132.127 55.483, 126.450 56.881, 121.500 58.064 C 101.194 62.918, 94.606 66.410, 98.011 70.513 C 99.659 72.499, 109.900 72.466, 116.500 70.454 C 121.555 68.913, 128.515 67.437, 144 64.625 C 156.636 62.330, 214.554 59.887, 216.245 61.578 C 217.149 62.482, 211.397 75.653, 207.151 82.400 C 202.455 89.861, 202.027 91.028, 203.170 93.250 C 204.507 95.849, 208.293 95.371, 211.091 92.250 C 220.283 81.994, 226.918 70.196, 227.688 62.739 C 228.168 58.087, 227.928 57.027, 225.846 54.607 C 222.137 50.295, 214.889 48.824, 203.108 49.992 C 197.824 50.516, 184.193 51.078, 172.818 51.242 C 156.297 51.480, 152.346 51.287, 153.180 50.283 C 155.212 47.834, 152.785 43.405, 145.212 35.750 C 140.996 31.487, 137.285 28, 136.965 28 C 136.644 28, 135.555 28.605, 134.544 29.344 M 73.655 54.829 C 71.414 57.306, 71.579 59.838, 74.254 63.973 C 75.489 65.884, 79.656 73.759, 83.513 81.473 C 89.741 93.929, 90.832 95.535, 93.255 95.816 C 99.772 96.570, 98.644 86.144, 90.512 70.469 C 81.935 53.937, 77.873 50.168, 73.655 54.829 M 136.500 67.765 C 133.957 69.634, 133 73.488, 133 81.862 L 133 90.751 119.750 91.995 C 107.406 93.155, 106.212 93.454, 102.292 96.370 C 97.304 100.080, 96.703 101.211, 98.448 103.597 C 99.603 105.178, 100.228 105.248, 103.745 104.195 C 105.938 103.538, 111.505 102.973, 116.116 102.940 C 120.727 102.908, 126.638 102.529, 129.250 102.099 L 134 101.317 134 106.112 C 134 110.800, 133.917 110.929, 130.250 111.947 C 128.188 112.520, 125.150 112.999, 123.500 113.012 C 121.850 113.024, 117.125 113.947, 113 115.062 C 108.875 116.177, 104.518 117.341, 103.317 117.648 C 100.236 118.438, 99.565 121.009, 101.844 123.289 C 103.436 124.881, 105.164 125.202, 111.894 125.158 C 116.364 125.129, 120.448 124.841, 120.970 124.518 C 121.492 124.196, 124.862 123.578, 128.459 123.145 L 135 122.358 135 128.097 C 135 131.254, 135.249 134.486, 135.554 135.280 C 136.184 136.923, 126.180 138.527, 106 140.020 C 99.675 140.487, 93.600 141.097, 92.500 141.375 C 91.400 141.652, 89.263 142.140, 87.750 142.459 C 84.588 143.125, 84.044 145.966, 86.664 148.128 C 87.972 149.205, 92.830 149.468, 109.301 149.352 L 130.273 149.204 123.387 155.638 C 119.599 159.176, 110.425 166.626, 103 172.193 C 83.952 186.475, 78.263 193.930, 84.051 197.027 C 86.347 198.256, 87.354 197.743, 97.856 190 C 111.112 180.226, 116.132 176.964, 117.046 177.528 C 117.571 177.853, 118.019 183.604, 118.041 190.309 C 118.084 202.868, 120.222 228.129, 121.509 231.278 C 122.147 232.840, 124.964 235, 126.363 235 C 126.635 235, 127.564 234.293, 128.429 233.429 C 129.525 232.333, 130 229.951, 130 225.557 L 130 219.258 135.040 218.589 C 137.812 218.221, 141.189 217.415, 142.544 216.798 C 145.750 215.337, 146.388 216.118, 145.567 220.493 C 145.043 223.287, 143.802 224.864, 139.947 227.633 C 134.184 231.774, 133.233 235.340, 137.601 236.436 C 140.748 237.226, 145.224 235.909, 154.500 231.462 C 161.252 228.225, 184.293 222.960, 185.672 224.339 C 186.856 225.522, 187.147 242.897, 186.161 253.500 C 184.903 267.023, 182.868 273.942, 178.777 278.601 C 175.827 281.961, 175.381 282.134, 171.258 281.516 C 163.526 280.356, 161.168 285.738, 167.344 290.449 C 175.541 296.701, 186.512 291.163, 192.416 277.794 C 196.903 267.633, 198 260.388, 198 240.906 C 198 221.221, 197.276 217.721, 192.567 214.636 C 189.335 212.518, 186.351 212.347, 179 213.856 C 165.319 216.665, 156.799 218.132, 156.412 217.746 C 156.181 217.514, 156.593 215.590, 157.327 213.469 C 158.453 210.216, 159.354 209.382, 163.081 208.143 C 172.578 204.984, 175.748 201.812, 172.872 198.346 C 171.904 197.180, 170.310 196.905, 166.539 197.255 C 163.768 197.512, 160.881 197.898, 160.125 198.112 C 159.369 198.325, 158.544 197.938, 158.292 197.250 C 158.016 196.497, 158.682 196, 159.966 196 C 162.534 196, 167.157 193.721, 168.935 191.579 C 170.451 189.751, 169.639 185.459, 167.630 184.688 C 166.867 184.395, 164.613 184.523, 162.621 184.973 C 159.944 185.577, 159 185.461, 159 184.530 C 159 183.837, 158.068 182.085, 156.929 180.637 C 155.278 178.537, 154.484 178.206, 153.007 178.996 C 149.824 180.699, 148 183.054, 148 185.458 C 148 187.451, 147.340 187.874, 143.250 188.498 C 140.637 188.897, 136.396 189.286, 133.824 189.362 C 129.431 189.492, 129.114 189.326, 128.574 186.625 C 127.153 179.510, 127.380 179.214, 134.750 178.564 C 160.018 176.338, 173 172.567, 173 167.454 C 173 163.027, 170.375 162.708, 152.314 164.934 C 138.629 166.621, 134.941 167.431, 131.353 169.533 L 127 172.084 127 169.734 C 127 166.012, 142.555 152.848, 149.210 150.940 C 151.842 150.185, 152.798 150.516, 156.374 153.418 C 161.978 157.967, 170.629 162.166, 182 165.858 C 208.954 174.610, 218.881 177.379, 223.500 177.437 C 228.136 177.495, 228.522 177.314, 228.797 174.948 C 229.177 171.688, 227.176 169.966, 219 166.518 C 209.716 162.603, 209.434 162.501, 199.500 159.465 C 181.475 153.956, 172.621 150.840, 167.203 148.101 L 161.672 145.304 170.654 144.152 C 175.594 143.518, 181.496 143, 183.771 143 C 191.579 143, 198 138.705, 198 133.481 C 198 129.567, 195.014 126.543, 192.072 127.477 C 190.932 127.839, 190 128.771, 190 129.548 C 190 131.374, 188.231 131.716, 172 133.024 C 164.575 133.622, 155.577 134.500, 152.003 134.976 C 148.430 135.451, 145.455 135.764, 145.392 135.670 C 145.328 135.577, 145.018 132.262, 144.701 128.304 L 144.125 121.109 151.617 119.442 C 155.737 118.525, 159.269 117.938, 159.465 118.138 C 159.661 118.337, 159.150 120.300, 158.329 122.500 C 155.700 129.549, 155.638 130.736, 157.835 131.912 C 162.471 134.393, 166.543 130.270, 169.590 120.010 C 170.982 115.323, 171.049 115.266, 176.633 114.145 C 181.578 113.152, 184.868 111.038, 184.968 108.789 C 184.986 108.398, 183.988 107.126, 182.750 105.962 C 180.957 104.275, 179.725 103.968, 176.681 104.446 C 172.979 105.027, 172.872 104.961, 173.181 102.273 C 173.482 99.656, 173.809 99.485, 179 99.231 C 187.779 98.802, 191.533 95.732, 189.020 91.038 C 188.083 89.287, 186.949 89, 180.965 89 L 174 89 174 80.223 C 174 73.897, 173.565 70.824, 172.443 69.223 C 170.511 66.464, 167.623 66.377, 165 69 C 163.296 70.704, 163 72.333, 163 80 L 163 89 155.582 89 C 151.502 89, 147.511 89.250, 146.714 89.556 C 145.543 90.006, 145.174 88.571, 144.800 82.115 C 144.435 75.797, 143.829 73.370, 141.919 70.565 C 139.488 66.995, 138.349 66.407, 136.500 67.765 M 151.020 99.743 C 145.372 100.240, 144 101.389, 144 105.622 C 144 109.568, 145.077 109.773, 155.635 107.827 L 162 106.654 162 102.827 C 162 98.581, 162.534 98.731, 151.020 99.743 M 129 203.750 C 129 206.376, 129.456 208, 130.193 208 C 130.850 208, 135.125 206.835, 139.693 205.411 C 145.730 203.530, 148 202.368, 148 201.161 C 148 199.730, 146.687 199.500, 138.500 199.500 L 129 199.500 129 203.750 M 160.226 246.010 C 158.067 249.468, 163.057 257.054, 170.973 262.347 C 174.718 264.851, 178.818 264.493, 180.162 261.544 C 181.178 259.315, 180.795 258.553, 176.015 253.294 C 168.156 244.647, 162.660 242.112, 160.226 246.010 M 90.628 247.121 C 88.269 250.489, 90.374 254.723, 98.645 263.250 C 103.278 268.027, 106.460 269.140, 108.800 266.800 C 110.678 264.922, 110.306 263.868, 105.511 257.480 C 103.041 254.191, 101.016 251.022, 101.011 250.439 C 100.990 248.417, 96.911 245, 94.518 245 C 93.195 245, 91.445 245.955, 90.628 247.121 M 117.250 249.083 C 114.255 250.218, 114.268 254.618, 117.280 259.088 C 120.047 263.193, 123.307 264.966, 128.128 264.985 C 134.487 265.011, 135.908 260.236, 130.278 257.762 C 128.750 257.091, 127.202 256.083, 126.838 255.521 C 123.660 250.623, 119.882 248.086, 117.250 249.083 M 138.200 249.200 C 136.331 251.069, 136.781 254.897, 139.250 258.129 C 146.202 267.228, 147.221 268.112, 150.399 267.802 C 154.254 267.426, 154.996 264.362, 152.216 260.296 C 151.165 258.758, 149.232 255.837, 147.921 253.805 C 145.821 250.550, 142.408 248, 140.153 248 C 139.739 248, 138.860 248.540, 138.200 249.200" stroke="none" fill="black" fill-rule="evenodd"/>
</svg>