<svg xmlns="http://www.w3.org/2000/svg" width="300" height="300" viewBox="0 0 300 300" version="1.1">
	<path d="M 228.333 53.479 C 227.172 54.292, 223.135 59.547, 219.361 65.156 C 211.285 77.159, 200.847 88.606, 193.932 93.044 C 189.801 95.694, 187.342 96.409, 178.874 97.422 C 169.017 98.600, 168.665 98.731, 165.377 102.426 C 161.413 106.881, 161.191 108.444, 164.250 110.372 C 166.160 111.576, 167.626 111.593, 173.949 110.484 C 178.046 109.766, 187.046 108.904, 193.949 108.569 C 200.852 108.233, 209.762 107.705, 213.750 107.394 L 221 106.829 221 123.255 L 221 139.681 215.250 140.921 C 212.088 141.603, 206.708 142.800, 203.294 143.581 C 192.372 146.079, 192.771 146.317, 189.730 135.497 C 185.725 121.249, 178.672 112.964, 173.091 115.951 C 170.175 117.512, 170.442 119.506, 174.855 129.110 C 176.976 133.725, 179.008 139.797, 179.371 142.605 L 180.030 147.710 172.265 148.421 C 163.735 149.201, 154.202 151.055, 152.250 152.313 C 150.315 153.560, 150.771 157.377, 153.162 159.944 C 155.238 162.172, 155.767 162.244, 166.412 161.739 C 172.511 161.450, 178.287 160.892, 179.250 160.499 C 180.710 159.904, 181.001 160.342, 181.007 163.143 C 181.028 173.948, 176.642 194.864, 170.538 213.068 C 167.383 222.476, 167.379 223.760, 170.500 225.182 C 174.359 226.940, 177.691 224.886, 180.108 219.257 C 187.552 201.924, 191.811 184.990, 192.710 169.162 C 193.063 162.938, 193.735 158.710, 194.398 158.538 C 196.032 158.116, 207.833 155.835, 213 154.943 C 215.475 154.516, 218.213 153.884, 219.085 153.539 C 220.519 152.973, 220.734 159.058, 221.328 216.918 L 221.985 280.924 219.493 283.416 C 216.315 286.594, 216.348 288.342, 219.635 290.927 C 224.161 294.488, 229.090 293.556, 231.787 288.629 C 233.356 285.763, 233.503 279.790, 233.532 217.659 L 233.564 149.819 240.454 147.409 C 244.244 146.084, 247.491 145, 247.669 145 C 247.848 145, 249.796 143.373, 251.997 141.384 C 257.228 136.658, 257.352 132.800, 252.357 130.172 C 250.634 129.265, 249.751 129.396, 247.857 130.839 C 245.162 132.893, 240.957 134.587, 236.250 135.517 L 233 136.159 233 120.579 L 233 105 235.750 104.999 C 239.216 104.998, 247.558 101.871, 249.635 99.794 C 250.775 98.654, 251.012 97.329, 250.495 94.979 L 249.783 91.738 243.642 92.418 C 240.264 92.792, 233.675 93.518, 229 94.031 C 224.325 94.545, 218.025 94.964, 215 94.963 L 209.500 94.961 213.782 91.371 C 217.785 88.015, 230.732 71.767, 235.063 64.664 C 237.638 60.441, 237.639 54.413, 235.066 53.035 C 232.435 51.627, 230.826 51.733, 228.333 53.479 M 179.104 57.896 C 175.302 61.698, 175.939 63.302, 185.932 75.095 C 192.222 82.518, 200.624 84.998, 203.699 80.339 C 205.035 78.316, 204.739 77.752, 199.063 71.488 C 195.728 67.809, 193 64.253, 193 63.586 C 193 61.533, 187.598 57.070, 184.318 56.414 C 181.940 55.938, 180.713 56.287, 179.104 57.896 M 105 59.092 C 90.300 61.705, 81.010 64.042, 77.479 66.018 C 74.539 67.663, 74.411 67.646, 72.682 65.354 C 69.603 61.272, 62.225 62.958, 61.882 67.821 C 61.732 69.943, 61.540 68.770, 64.393 83.182 C 65.734 89.957, 67.544 100.789, 68.414 107.254 L 69.998 119.007 65.878 122.754 C 63.612 124.814, 61.466 126.615, 61.110 126.756 C 60.753 126.897, 59.606 125.424, 58.561 123.483 C 56.453 119.570, 53.279 118.245, 50.093 119.950 C 48.362 120.876, 48 122.013, 48 126.515 C 48 129.509, 48.616 133.656, 49.370 135.730 C 51.469 141.508, 54 150.500, 54 152.183 C 54 154.058, 57.148 157, 59.154 157 C 61.642 157, 65 152.602, 65 149.344 C 65 147.680, 64.330 144.109, 63.511 141.409 C 61.561 134.982, 61.544 131.888, 63.463 132.624 C 64.267 132.933, 67.080 132.497, 69.713 131.656 C 72.346 130.815, 79.225 129.403, 85 128.519 C 98.546 126.445, 106.632 125.040, 111 124.002 C 116.349 122.731, 137.954 118, 138.410 118 C 140.050 118, 136.703 123.313, 131.683 128.680 L 125.663 135.115 123.390 132.470 C 120.287 128.859, 114.511 128.111, 110.160 130.757 C 103.155 135.016, 95.385 142.804, 94.024 146.928 C 92.838 150.522, 91 152.482, 91 150.153 C 91 148.762, 87.537 145.202, 85.963 144.974 C 80.269 144.152, 78.323 147.888, 79.928 156.566 C 81.961 167.565, 80.548 184.819, 75.963 205 C 74.775 210.225, 73.447 216.075, 73.011 218 C 71.691 223.824, 68.139 233.087, 65.495 237.598 C 62.453 242.790, 62.367 244.591, 65.093 246.050 C 73.153 250.363, 81.936 236.249, 87.837 209.500 C 92.275 189.382, 93.025 185.329, 93.013 181.550 C 93.003 178.478, 93.267 177.867, 94.200 178.800 C 94.935 179.535, 98.528 180, 103.477 180 C 109.284 180, 112.201 180.453, 113.853 181.610 C 115.336 182.648, 117.190 183.012, 119.076 182.635 L 122 182.050 121.985 188.275 C 121.975 192.236, 121.650 193.996, 121.092 193.115 C 119.801 191.077, 116.084 192.356, 110.406 196.793 C 104.660 201.283, 98.415 205, 96.617 205 C 94.503 205, 91 209.465, 91 212.159 C 91 215.787, 93.943 218, 98.767 218 C 102.453 218, 103.857 217.170, 112.370 209.956 C 117.591 205.532, 122.083 201.370, 122.352 200.706 C 122.972 199.181, 123.587 230.747, 123.234 246 C 122.929 259.215, 121.762 263.432, 118.634 262.614 C 116.120 261.957, 113 264.557, 113 267.310 C 113 269.881, 120.451 277, 123.142 277 C 126.724 277, 131.489 271.057, 133.968 263.500 C 136.831 254.772, 137.723 235.960, 136.161 217.280 C 135.573 210.251, 134.598 195.275, 133.994 184 C 133.390 172.725, 132.244 159.819, 131.448 155.320 C 130.651 150.822, 130 146.316, 130 145.309 C 130 144.209, 132.529 141.642, 136.325 138.889 C 143.314 133.821, 151.058 124.468, 152.881 118.894 C 154.100 115.166, 153.481 112.266, 150.734 108.832 C 149.013 106.681, 140.636 105.206, 135.500 106.150 C 133.300 106.554, 130.477 106.911, 129.227 106.942 C 127.118 106.996, 127.055 106.838, 128.359 104.750 C 131.525 99.678, 136.488 77.677, 135.734 72.054 C 134.896 65.806, 132.282 61.522, 127.871 59.167 C 123.013 56.574, 119.243 56.562, 105 59.092 M 111.500 70.686 C 106.069 71.039, 95.230 73.275, 87.866 75.561 C 85.317 76.353, 81.584 77, 79.570 77 C 75.993 77, 75.922 77.074, 76.464 80.250 C 78.857 94.262, 79.993 103.408, 79.996 108.691 C 79.998 112.096, 80.385 115.120, 80.856 115.411 C 81.327 115.702, 84.090 115.658, 86.998 115.314 L 92.284 114.688 91.692 104.248 C 91.122 94.175, 91.186 93.723, 93.505 91.404 C 96.012 88.897, 100 88.142, 100 90.174 C 100 90.820, 101.062 90.351, 102.360 89.131 C 105.369 86.305, 114.017 83, 118.404 83 C 122.361 83, 123 81.876, 123 74.918 L 123 70 119.750 70.180 C 117.963 70.279, 114.250 70.507, 111.500 70.686 M 103.818 103.750 C 103.637 108.563, 103.560 112.644, 103.647 112.819 C 103.949 113.428, 112.506 110.668, 113.669 109.586 C 114.578 108.742, 119 96.920, 119 95.335 C 119 95.151, 115.658 95, 111.573 95 L 104.147 95 103.818 103.750 M 106.968 148.530 C 100.587 154.523, 99.513 155.162, 96.432 154.802 L 93 154.402 93 163.237 L 93 172.072 96.732 169.536 C 101.052 166.600, 105.415 166.312, 112.591 168.489 C 120.557 170.906, 120.365 171.091, 119.596 161.750 C 118.738 151.326, 116.846 142.782, 115.281 142.260 C 114.616 142.039, 110.875 144.860, 106.968 148.530" stroke="none" fill="black" fill-rule="evenodd"/>
</svg>