<svg xmlns="http://www.w3.org/2000/svg" width="300" height="300" viewBox="0 0 300 300" version="1.1">
	<path d="M 195.189 20.039 C 191.887 23.114, 192.299 28.692, 196.423 36.784 C 198.306 40.478, 200.543 45.176, 201.394 47.224 C 203.311 51.834, 207.040 53.172, 210.158 50.369 C 211.984 48.727, 212.170 47.711, 211.694 42 C 211.130 35.240, 206.002 20.253, 203.768 18.836 C 201.488 17.388, 197.422 17.959, 195.189 20.039 M 97.500 28.906 C 93.100 30.450, 85.900 33.288, 81.500 35.211 C 69.300 40.544, 69.459 40.523, 68.005 37.013 C 65.867 31.852, 59.467 31.538, 57.099 36.479 C 55.911 38.957, 55.878 41.049, 56.895 49.467 C 57.562 54.985, 58.366 70.750, 58.682 84.500 C 59.115 103.335, 59.588 109.882, 60.601 111.049 C 61.776 112.402, 61.121 113.004, 55.409 115.821 C 49.525 118.722, 48.903 119.315, 49.186 121.749 C 49.382 123.436, 50.441 124.927, 52 125.712 C 56.877 128.167, 63.828 127.193, 79 121.928 C 86.975 119.161, 96.650 116.028, 100.500 114.966 C 113.761 111.308, 124.210 108.877, 124.674 109.341 C 125.654 110.320, 113.419 132, 111.886 132 C 111.399 132, 111 131.568, 111 131.040 C 111 129.339, 103.402 127.713, 98.729 128.413 C 96.271 128.782, 92.064 130.515, 89.380 132.265 C 86.696 134.015, 82.513 136.621, 80.084 138.058 C 75.802 140.590, 75.614 140.614, 73.834 138.834 C 72.825 137.825, 70.701 137, 69.114 137 C 64.050 137, 63.001 141.057, 62.995 160.651 C 62.991 176.618, 62.376 182.619, 57.992 209.500 C 56.475 218.801, 45.857 247.471, 42.886 250.289 C 40.270 252.770, 40.444 257.497, 43.223 259.443 C 48.203 262.932, 54.189 259.913, 58.191 251.893 C 63.069 242.120, 67.999 229.467, 67.999 226.719 C 68 225.739, 68.787 224.690, 69.750 224.387 C 82.413 220.408, 91.482 214.764, 96.320 207.852 L 99.923 202.705 99.447 211.102 C 99.186 215.721, 98.525 231.212, 97.980 245.527 C 97.435 259.842, 96.566 273.025, 96.051 274.823 C 95.535 276.621, 93.738 279.377, 92.057 280.947 C 88.311 284.446, 88.216 286.238, 91.635 288.927 C 97.010 293.155, 105.240 290.370, 108.969 283.061 C 114.260 272.690, 115.877 249.716, 115.955 183.809 C 115.984 159.466, 116.359 145.896, 117.014 145.491 C 117.994 144.886, 132.548 125.602, 136.630 119.500 C 138.834 116.206, 141 109.531, 141 106.035 C 141 104.807, 140.284 102.293, 139.409 100.449 C 137.419 96.256, 131.217 93.622, 124.576 94.150 C 122.059 94.351, 120 94.384, 120 94.225 C 120 94.066, 120.697 92.268, 121.548 90.230 C 123.510 85.535, 124.941 70.985, 124.974 55.390 C 125.013 37.376, 124.461 34.696, 119.744 29.979 C 116.116 26.352, 115.311 26.004, 110.632 26.049 C 107.691 26.077, 102.085 27.296, 97.500 28.906 M 100.500 43.987 C 96.100 45.538, 88.675 48.418, 84 50.387 C 79.325 52.355, 74.698 53.974, 73.718 53.983 C 72.072 53.999, 71.996 54.817, 72.718 64.750 C 73.857 80.414, 73.620 101.970, 72.267 105.750 C 70.919 109.517, 71.149 109.585, 76.500 107 C 78.700 105.937, 81.175 105.045, 82 105.017 C 82.825 104.989, 88.662 103.252, 94.971 101.157 C 107.937 96.853, 106.822 98.256, 108.749 83.817 L 109.640 77.135 106.570 78.735 C 104.882 79.616, 101.742 80.860, 99.593 81.501 C 95.991 82.575, 95.581 83.074, 94.350 87.886 C 92.343 95.727, 91.409 97, 87.665 97 C 85.869 97, 83.860 96.460, 83.200 95.800 C 81.733 94.333, 81.526 70.377, 82.948 66.638 C 85.651 59.527, 90.338 58.184, 95.262 63.108 L 98.370 66.216 104.090 64.389 C 109.391 62.695, 109.852 62.303, 110.394 59.031 C 111.588 51.815, 110.819 40.861, 109.133 41.083 C 108.785 41.129, 104.900 42.436, 100.500 43.987 M 241.500 52.007 C 210.901 56.645, 198.426 58.065, 180.500 58.951 C 151.810 60.368, 146.744 61.861, 148.390 68.418 C 148.889 70.405, 150.298 71.686, 153.580 73.138 C 157.880 75.041, 158.956 75.081, 177.292 74.018 C 196.481 72.906, 206.464 71.774, 230 68.042 C 245.343 65.610, 248.670 64.658, 251.660 61.850 C 254.541 59.143, 254.647 56.072, 251.961 53.189 C 249.801 50.870, 249.346 50.818, 241.500 52.007 M 162.571 83.571 C 160.222 85.921, 160.608 93.839, 163.637 105.419 C 167.250 119.228, 169.361 123.469, 173.633 125.496 C 176.828 127.012, 177.324 127.018, 179.544 125.563 C 182.839 123.404, 183.396 120.351, 181.472 115 C 180.582 112.525, 179.522 108.475, 179.116 106 L 178.378 101.500 182.439 101.438 C 184.672 101.404, 192.599 100.759, 200.053 100.005 C 207.507 99.251, 214.430 98.951, 215.439 99.338 C 217.212 100.019, 217.211 100.110, 215.406 102.103 C 212.683 105.113, 197.887 112, 194.145 112 C 192.380 112, 189.314 112.677, 187.333 113.505 C 183.761 114.998, 183.735 115.052, 184.371 119.690 C 185.234 125.989, 187.241 128.767, 191.505 129.567 C 202.408 131.612, 222 123.431, 222 116.832 C 222 115.847, 224.060 113.143, 226.577 110.822 C 235.819 102.303, 236.471 95.680, 228.718 89.079 C 221.584 83.005, 211.510 81.729, 195.735 84.903 C 185.435 86.975, 180.653 88.981, 178.748 92.031 C 177.048 94.754, 176.351 94.504, 175.633 90.916 C 174.562 85.560, 171.316 82, 167.503 82 C 165.655 82, 163.436 82.707, 162.571 83.571 M 29.070 116.265 C 26.453 117.595, 24.670 122.208, 25.465 125.587 C 25.735 126.735, 27.983 131.047, 30.461 135.169 C 36.074 144.507, 40.715 147.182, 44.345 143.171 C 46.777 140.484, 46.379 136.581, 42.938 129.370 C 40.510 124.284, 33.254 114.940, 31.790 115.015 C 31.630 115.023, 30.406 115.585, 29.070 116.265 M 234.500 136.982 C 223.239 137.819, 220.720 138.193, 196.500 142.625 C 176.374 146.308, 167.296 148.656, 160.669 151.892 C 155.594 154.370, 154.771 154.529, 154.328 153.120 C 151.629 144.538, 146.734 142.797, 143.663 149.327 C 140.884 155.237, 140.059 163.073, 141.160 173.092 C 141.729 178.267, 142.336 195.416, 142.509 211.202 C 142.682 226.988, 143.114 240.376, 143.470 240.952 C 144.297 242.290, 149.554 242.309, 152.032 240.983 C 153.077 240.424, 154.418 238.163, 155.011 235.958 C 157.682 226.040, 157.908 198.553, 155.512 174.970 L 154.951 169.441 160.225 166.854 C 163.126 165.432, 167.075 163.953, 169 163.568 C 170.925 163.184, 177.900 161.581, 184.500 160.006 C 197.856 156.820, 202.334 156.113, 232.390 152.449 C 252.930 149.945, 259 149.935, 259 152.405 C 259 153.091, 258.310 158.568, 257.466 164.576 C 256.623 170.584, 255.502 184.500, 254.976 195.500 C 253.034 236.078, 250.026 257.128, 244.755 267.026 C 242.714 270.859, 236.913 276, 234.628 276 C 233.064 276, 231.065 279.388, 231.032 282.095 C 230.959 288.036, 237.136 289.551, 245.500 285.645 C 253.185 282.056, 256.763 278.428, 261.078 269.844 C 267.182 257.706, 268.826 247.229, 271.965 200.500 C 274.759 158.920, 274.922 146.057, 272.702 142.668 C 269.510 137.797, 266.809 136.810, 255.762 136.475 C 250.118 136.304, 240.550 136.532, 234.500 136.982 M 92.530 147.507 C 87.041 151.046, 84.651 152, 81.280 152 L 77 152 77 163.500 C 77 169.825, 77.216 175, 77.480 175 C 77.744 175, 79.801 174.263, 82.051 173.363 C 87.375 171.233, 92.628 172.674, 96.781 177.403 L 99.747 180.782 100.365 175.641 C 101.240 168.361, 101.150 142.999, 100.250 143.007 C 99.838 143.010, 96.364 145.035, 92.530 147.507 M 209.368 185.077 C 203.983 186.091, 188.765 192.408, 184.150 195.544 C 182.162 196.895, 180.287 198, 179.983 198 C 179.680 198, 178.634 196.650, 177.659 195 C 175.756 191.779, 172.532 191.055, 169.861 193.250 C 167.056 195.555, 165.748 201.975, 166.958 207.500 C 168.845 216.117, 173.206 227.397, 175.646 229.971 C 177.734 232.175, 178.315 232.320, 180.994 231.308 C 183.972 230.184, 184 230.205, 184 233.612 C 184 236.434, 184.492 237.242, 186.750 238.127 C 192.037 240.197, 202.850 239.131, 210.874 235.749 C 212.318 235.141, 217.969 233.485, 223.432 232.071 C 232.615 229.694, 233.421 229.286, 234.119 226.660 C 235.334 222.096, 233.397 219.287, 228.099 217.929 L 223.466 216.741 226.733 210.250 C 230.381 203.002, 230.809 198.506, 228.344 193.312 C 225.305 186.909, 217.537 183.537, 209.368 185.077 M 97.703 188.531 C 95.804 191.140, 91.297 191.897, 89.336 189.936 C 88.751 189.351, 85.511 188.722, 82.136 188.539 L 76 188.207 76 192.661 C 76 195.110, 75.492 199.131, 74.872 201.595 C 74.251 204.060, 73.977 206.311, 74.264 206.597 C 75.653 207.986, 82.206 203.605, 87.023 198.067 C 91.655 192.742, 92.755 191.969, 94.950 192.497 C 96.353 192.834, 98.063 193.846, 98.750 194.746 C 99.800 196.120, 100 195.550, 100 191.191 C 100 188.336, 99.888 186.014, 99.750 186.031 C 99.612 186.049, 98.691 187.174, 97.703 188.531 M 208.500 201.399 C 206.300 202.095, 203.150 203.354, 201.500 204.198 C 198.915 205.520, 194.720 206.650, 185.364 208.548 C 183.306 208.965, 183.280 209.134, 184.672 213.175 C 186.174 217.533, 186.675 226.099, 185.537 227.941 C 184.493 229.629, 185.498 229.231, 192.196 225.306 C 200.823 220.250, 207.141 214.089, 210.868 207.097 C 215.135 199.091, 215.212 199.276, 208.500 201.399" stroke="none" fill="black" fill-rule="evenodd"/>
</svg>