<svg xmlns="http://www.w3.org/2000/svg" width="300" height="300" viewBox="0 0 300 300" version="1.1">
	<path d="M 193.657 34.055 C 188.848 37.838, 190.408 43.400, 197.547 47.928 L 201.952 50.721 193.726 52.480 C 183.948 54.571, 176.488 57.249, 173.888 59.602 C 172.850 60.541, 172 60.871, 172 60.335 C 172 59.799, 170.390 57.479, 168.422 55.180 C 164.427 50.512, 160.523 49.660, 157.655 52.829 C 155.015 55.745, 155.635 60.255, 159.416 65.637 C 161.294 68.312, 164.289 72.975, 166.071 76 C 170.466 83.462, 171.921 85, 174.584 85 C 178.632 85, 180.305 82.239, 179.715 76.531 L 179.190 71.446 183.345 69.741 C 189.886 67.058, 217.043 62.366, 233.500 61.076 C 241.750 60.429, 250.188 59.692, 252.250 59.438 C 256.702 58.890, 256.811 59.384, 253.925 67.014 C 252.784 70.031, 251.497 73.625, 251.066 75 C 250.634 76.375, 249.082 79.267, 247.615 81.427 C 242.633 88.766, 243.034 93.232, 248.727 93.804 C 251.265 94.059, 252.396 93.354, 255.754 89.426 C 259.193 85.402, 268.320 68.578, 271.879 59.703 C 273.428 55.839, 273.281 52.359, 271.451 49.566 C 268.485 45.039, 265.873 44.703, 243.810 46.009 C 232.639 46.670, 221.588 47.555, 219.252 47.976 C 215.161 48.713, 214.924 48.613, 212.862 45.276 C 210.396 41.287, 207.361 38.096, 203.329 35.255 C 198.721 32.009, 196.594 31.745, 193.657 34.055 M 117.500 38.147 C 104.158 42.993, 100.766 43.980, 94.126 44.952 C 85.906 46.154, 83 48.662, 83 54.552 C 83 61.012, 84.155 61.414, 95.867 59.027 C 101.404 57.899, 107.186 56.480, 108.717 55.874 C 110.248 55.269, 114.796 53.738, 118.823 52.473 L 126.147 50.172 125.573 54.086 C 123.677 67.029, 124.007 66.147, 121.151 65.916 C 115.431 65.454, 107.701 68.739, 104.163 73.134 L 101.826 76.037 99.631 72.769 C 97.074 68.962, 92.813 67.954, 90.008 70.493 C 88.364 71.981, 88.208 73.931, 88.354 91.206 C 88.509 109.586, 88.591 110.305, 90.613 111.053 C 93.619 112.164, 97.212 110.036, 99.191 105.972 C 101.559 101.108, 103.304 92.309, 102.740 88.072 C 102.287 84.665, 102.410 84.492, 105.383 84.326 C 107.097 84.231, 111.738 82.768, 115.695 81.076 C 119.653 79.384, 123.140 78, 123.445 78 C 124.525 78, 123.893 98.569, 122.671 103.202 C 121.989 105.787, 121.193 108.140, 120.903 108.430 C 120.286 109.047, 98.207 113.733, 89.500 115.094 C 86.200 115.610, 82.825 116.241, 82 116.497 C 80.701 116.898, 80.477 113.991, 80.332 94.830 C 80.161 72.347, 78.847 58.272, 76.365 52.330 C 72.822 43.851, 63 44.628, 63 53.387 C 63 54.772, 63.407 56.940, 63.904 58.203 C 65.371 61.932, 68.370 94.513, 68.438 107.452 L 68.500 119.405 64.760 120.299 C 62.508 120.838, 59.039 123.054, 56.038 125.872 L 51.056 130.549 49.937 127.847 C 46.247 118.940, 36.997 119.971, 37.002 129.289 C 37.004 133.368, 40.570 141.635, 45.140 148.154 C 46.163 149.614, 47 151.734, 47 152.865 C 47 155.265, 50.652 159, 52.997 159 C 53.889 159, 55.491 158.361, 56.559 157.579 C 59.048 155.757, 59.152 147.005, 56.742 142.181 L 55.085 138.863 58.571 137.406 C 64.294 135.015, 77.882 130.902, 82.856 130.056 C 93.924 128.173, 122.814 122.268, 134.464 119.508 C 137.744 118.731, 140.535 118.202, 140.667 118.333 C 141.498 119.164, 133.466 147.257, 130.867 152.609 C 128.510 157.462, 128.632 164.753, 131.095 166.295 C 131.973 166.845, 133.788 167.019, 135.129 166.683 C 138.605 165.810, 140.959 160.583, 152.515 128.077 C 156.738 116.199, 156.861 110.610, 152.990 106.490 C 149.933 103.236, 146.208 102.622, 139.750 104.309 L 134.299 105.732 136.226 98.616 C 137.577 93.629, 138.413 85.809, 139.020 72.480 C 139.497 62.018, 140.187 52.675, 140.555 51.717 C 141.894 48.228, 140.027 41.408, 136.843 38.150 C 132.902 34.120, 128.589 34.119, 117.500 38.147 M 204.235 69.512 C 202.383 71.614, 201 75.711, 201 79.095 C 201 85.896, 194.655 96.687, 179.556 115.566 C 178.003 117.507, 177.806 118.547, 178.577 120.738 C 180.544 126.331, 184.985 125.146, 195.790 116.144 C 201.988 110.981, 205.893 108.592, 211.265 106.677 C 215.216 105.268, 218.615 104.282, 218.817 104.484 C 219.344 105.011, 208.056 125.123, 201.780 134.838 C 200.835 136.302, 199.361 138.738, 198.505 140.250 C 197.649 141.762, 196.749 143, 196.505 143 C 195.816 143, 188.946 139.049, 184.505 136.098 C 174.969 129.762, 166.028 129.343, 162.954 135.087 C 161.442 137.911, 163.362 140, 167.467 140 C 169.882 140, 172.048 141.189, 176.117 144.750 C 179.103 147.363, 183.081 150.702, 184.958 152.171 L 188.371 154.841 185.527 159.171 C 180.389 166.991, 164.408 186.361, 157.098 193.628 C 152.268 198.429, 148.388 201.330, 145.213 202.515 C 139.371 204.695, 136.995 206.691, 137.015 209.405 C 137.055 214.811, 142.596 216.270, 151 213.087 C 159.482 209.875, 168.592 202.306, 179.521 189.391 C 185.009 182.905, 190.264 176.813, 191.197 175.853 C 192.130 174.892, 194.533 171.720, 196.537 168.803 C 198.540 165.886, 200.322 163.354, 200.497 163.177 C 201.251 162.406, 222.136 175.595, 240.321 188.326 C 246.470 192.630, 254.661 199.268, 258.524 203.076 C 265.638 210.090, 269.042 211.558, 271.800 208.800 C 273.424 207.176, 273.314 202.495, 271.574 199.200 C 269.592 195.447, 257.882 184.281, 249.500 178.152 C 245.650 175.337, 241.956 172.576, 241.292 172.017 C 240.628 171.458, 239.858 171, 239.581 171 C 239.303 171, 234.447 167.938, 228.788 164.195 C 223.130 160.453, 216.363 156.159, 213.750 154.653 C 211.137 153.148, 209 151.453, 209 150.888 C 209 150.323, 210.290 147.979, 211.867 145.680 C 213.444 143.381, 216.932 137.516, 219.617 132.647 C 235.584 103.696, 235.896 102.935, 234.189 97.236 C 232.298 90.926, 225.090 88.393, 216.243 90.930 C 212.495 92.005, 212.468 91.917, 214.621 85.599 C 216.781 79.261, 216.042 72.683, 212.874 70.044 C 210.091 67.726, 206.029 67.475, 204.235 69.512 M 64.973 146.532 C 63.945 147.771, 63.944 150.927, 64.971 163.044 C 67.078 187.914, 65.078 211.245, 58.332 240.500 C 54.790 255.860, 50.215 269.161, 47.923 270.767 C 43.682 273.737, 46.898 280, 52.663 280 C 60.269 280, 66.584 265.557, 73.433 232.500 C 74.801 225.900, 76.204 217.707, 76.553 214.294 C 77.174 208.205, 77.237 208.097, 79.872 208.624 C 81.349 208.920, 86.432 208.225, 91.166 207.081 C 95.900 205.936, 100.979 205, 102.452 205 C 105.337 205, 109.047 203.379, 110.235 201.600 C 110.639 200.995, 110.976 203.771, 110.985 207.769 C 111 215.031, 110.998 215.038, 108.493 214.409 C 106.550 213.921, 105.124 214.535, 102.150 217.140 C 96.274 222.287, 94.997 223.210, 88 227.370 C 81.908 230.991, 80.173 231.734, 77.364 231.923 C 75.866 232.024, 73 238.147, 73 241.246 C 73 244.424, 76.278 247.333, 79.860 247.333 C 83.283 247.333, 96.943 238.384, 105.250 230.699 L 111 225.380 111.250 242.940 C 111.709 275.180, 111.313 280.335, 108.555 278.046 C 107.447 277.126, 106.587 277.224, 104.651 278.493 C 101.414 280.614, 100.789 282.442, 102.224 285.592 C 103.485 288.360, 109.613 292, 113.010 292 C 116.887 292, 120.543 289.204, 123.028 284.339 L 125.500 279.500 125.312 236.500 C 125.078 182.842, 123.987 162.669, 120.983 156.465 C 119.124 152.624, 118.189 151.837, 114.018 150.598 C 110.457 149.541, 108.066 149.416, 104.850 150.122 C 100.197 151.142, 92.146 153.899, 90.500 155.034 C 89.950 155.414, 88.375 156.001, 87 156.339 C 85.625 156.677, 83.073 158.304, 81.328 159.955 L 78.156 162.955 77.078 157.928 C 76.485 155.164, 76 152.267, 76 151.491 C 76 149.397, 70.840 145, 68.383 145 C 67.207 145, 65.673 145.689, 64.973 146.532 M 97.662 166.334 C 91.540 168.842, 89.178 170.416, 86.874 173.523 C 85.252 175.710, 83.041 177.906, 81.962 178.403 C 80.287 179.173, 80 180.324, 80 186.260 C 80 192.475, 80.186 193.142, 81.750 192.535 C 82.713 192.162, 87.230 191.355, 91.788 190.741 C 100.505 189.568, 105.396 190.406, 109.189 193.722 C 110.767 195.102, 110.843 194.227, 110.357 180.350 C 110.071 172.182, 109.662 164.938, 109.450 164.250 C 108.862 162.353, 106.252 162.814, 97.662 166.334 M 211.500 192.694 C 208.815 193.046, 198.018 195.833, 190.798 198.038 C 188.752 198.662, 187.498 198.393, 185.640 196.931 C 182.330 194.328, 180.368 194.499, 177.452 197.646 C 173.698 201.697, 173.917 204.282, 180.997 239.500 C 182.103 245, 183.118 251.300, 183.254 253.500 C 183.474 257.070, 183.924 257.707, 187.440 259.423 C 191.024 261.172, 192.106 261.241, 199.440 260.182 C 203.873 259.542, 213.086 258.562, 219.914 258.005 C 235.281 256.752, 238.356 255.341, 238.801 249.339 C 239.085 245.505, 238.888 245.176, 235.301 243.504 C 233.210 242.529, 231.345 241.599, 231.155 241.438 C 230.966 241.276, 233.592 235.274, 236.991 228.099 C 242.182 217.140, 243.058 214.530, 242.465 211.777 C 241.092 205.404, 237.616 200.677, 231.433 196.773 C 227.804 194.483, 218.625 191.785, 215.701 192.150 C 215.040 192.232, 213.150 192.477, 211.500 192.694 M 207.454 211.381 C 204.128 212.043, 199.800 213.579, 197.836 214.793 C 195.871 216.007, 193.481 217, 192.524 217 C 191.123 217, 190.919 217.537, 191.479 219.750 C 192.897 225.353, 193.989 233.655, 193.994 238.881 L 194 244.262 197.750 243.642 C 199.813 243.301, 204.259 243.017, 207.632 243.011 L 213.763 243 217.912 230.040 C 220.193 222.913, 222.497 216.811, 223.030 216.481 C 224.766 215.408, 224.054 212.971, 221.750 212.103 C 217.224 210.397, 213.368 210.203, 207.454 211.381" stroke="none" fill="black" fill-rule="evenodd"/>
</svg>