<svg xmlns="http://www.w3.org/2000/svg" width="300" height="300" viewBox="0 0 300 300" version="1.1">
	<path d="M 203 35.655 C 171.866 37.265, 163.774 39.200, 162.422 45.355 C 161.865 47.889, 162.221 48.793, 164.569 50.813 C 167.039 52.938, 168.001 53.153, 172.441 52.574 C 181.880 51.343, 208.429 50.076, 225.581 50.038 L 242.662 50 244.015 47.473 C 245.801 44.134, 244.340 39.929, 240.803 38.235 C 235.433 35.660, 221.399 34.703, 203 35.655 M 52.978 46.527 C 52.281 47.367, 51.735 49.279, 51.765 50.777 C 51.795 52.275, 52.140 62.050, 52.530 72.500 C 53.023 85.686, 52.756 100.068, 51.659 119.500 C 49.072 165.312, 48.785 175.976, 49.844 186.781 C 50.959 198.160, 52.946 202.905, 57.225 204.410 C 59.178 205.097, 60.489 204.909, 62.376 203.673 C 65.482 201.638, 66.892 195.779, 64.863 193.338 C 63.836 192.102, 63.420 186.663, 63.175 171.265 C 62.997 160.026, 63.106 150.167, 63.418 149.354 C 63.913 148.062, 64.266 148.073, 66.215 149.438 C 68.723 151.195, 75.559 151.498, 79.435 150.025 C 82.562 148.836, 82.550 148.596, 80.100 163.454 C 79.107 169.479, 78.475 175.104, 78.696 175.954 C 78.959 176.966, 77.528 178.355, 74.556 179.975 C 67.816 183.649, 64.951 190.836, 68.829 194.345 C 71.780 197.016, 75.589 196.291, 83.953 191.467 C 91.271 187.246, 113.798 179, 118.012 179 C 119.463 179, 120.031 180.024, 120.568 183.604 C 122.107 193.869, 118.971 237.680, 115.509 254.275 C 114.680 258.249, 114.001 262.953, 114.001 264.730 C 114 268.548, 111.212 276, 109.784 276 C 109.235 276, 105.951 274.647, 102.487 272.994 C 93.852 268.873, 90.440 268.292, 87.973 270.525 C 85.587 272.684, 85.420 276.277, 87.604 278.461 C 88.487 279.344, 91.065 281.013, 93.334 282.170 C 95.603 283.328, 99.044 285.543, 100.980 287.093 C 102.916 288.642, 106.373 290.207, 108.662 290.569 C 116.927 291.877, 125.216 284.039, 128.310 271.990 C 131.559 259.338, 134.798 228.981, 135.637 203.322 C 136.260 184.278, 136.174 182.760, 134.099 176.307 C 132.364 170.912, 131.186 168.981, 128.511 167.148 C 122.281 162.879, 115.927 163.329, 96.250 169.434 C 93.221 170.373, 92.016 170.429, 92.057 169.626 C 92.089 169.007, 93.104 163.002, 94.313 156.282 L 96.512 144.065 105.506 139.669 C 116.003 134.540, 118.521 132.213, 117.591 128.506 C 116.637 124.705, 112.859 123.323, 107.686 124.883 C 98.496 127.653, 98.340 127.626, 98.729 123.335 C 99.676 112.875, 99.296 113.399, 108.071 110.476 C 116.908 107.533, 119.690 104.885, 118.582 100.472 C 117.643 96.730, 113.767 95.600, 106.653 96.994 C 103.437 97.624, 100.592 97.925, 100.330 97.664 C 100.069 97.403, 99.775 94.529, 99.678 91.278 C 99.543 86.812, 99.928 84.937, 101.250 83.612 C 106.041 78.808, 99.131 73.451, 92.631 76.930 C 91.184 77.704, 90 78.899, 90 79.586 C 90 80.272, 89.516 80.995, 88.924 81.192 C 88.332 81.389, 87.144 85.856, 86.284 91.117 L 84.721 100.683 74.719 103.282 L 64.717 105.881 65.358 98.290 C 65.711 94.114, 66 86.716, 66 81.849 L 66 73 75.369 73 C 94.075 73, 125.685 64.988, 126.158 60.127 C 127.001 51.473, 122.046 50.227, 104 54.553 C 98.225 55.938, 87.690 57.487, 80.590 57.995 C 73.489 58.504, 67.207 59.393, 66.629 59.971 C 65.894 60.706, 65.201 59.173, 64.325 54.880 C 63.636 51.501, 62.311 47.896, 61.381 46.868 C 59.338 44.611, 54.723 44.423, 52.978 46.527 M 179.002 56.750 C 176.285 59.217, 175.909 60.290, 175.347 67.167 L 174.721 74.834 168.972 76.930 C 165.810 78.083, 162.668 79.695, 161.989 80.513 C 161.310 81.331, 160.360 82, 159.878 82 C 158.035 82, 154.996 86.118, 154.895 88.750 C 154.795 91.374, 154.738 91.339, 153.645 88 C 150.646 78.834, 146.150 74.867, 141.123 76.949 C 137.225 78.564, 136.226 83.604, 138.535 90 C 139.429 92.475, 141.042 97.806, 142.120 101.848 C 145.230 113.515, 150.867 129.195, 152.663 131.180 C 154.412 133.113, 160.450 133.700, 161.477 132.037 C 161.824 131.476, 163.417 131.893, 165.286 133.033 C 169.226 135.435, 177.348 135.628, 186.857 133.545 C 190.511 132.745, 196.425 131.643, 200 131.095 C 221.476 127.808, 229.493 126.046, 230.743 124.337 C 231.625 123.131, 233.094 122.644, 235.284 122.833 C 239.885 123.229, 249.680 116.456, 254.262 109.709 C 262.457 97.640, 268.011 83.712, 268.176 74.817 C 268.318 67.095, 266.836 64.003, 262.039 62.016 C 259.309 60.885, 257.104 61.109, 244.212 63.826 C 236.120 65.531, 227.419 67.210, 224.875 67.558 L 220.251 68.189 219.375 63.450 C 218.433 58.347, 214.705 54.408, 211.854 55.503 C 210.191 56.141, 206 63.778, 206 66.168 C 206 69.258, 203.464 70.764, 197.250 71.365 L 191 71.969 190.994 68.735 C 190.987 64.308, 189.127 57.866, 187.246 55.750 C 185.039 53.268, 182.498 53.576, 179.002 56.750 M 246.874 78.459 C 246.621 78.712, 240.471 79.907, 233.207 81.116 C 220.228 83.275, 220 83.358, 219.993 85.907 C 219.981 90.187, 216.195 104.643, 214.026 108.691 C 212.912 110.770, 212 112.815, 212 113.235 C 212 113.656, 215.510 114, 219.800 114 C 224.190 114, 228.086 114.486, 228.712 115.112 C 229.528 115.928, 231.284 114.740, 235.309 110.650 C 241.391 104.470, 247.993 92.524, 250.273 83.571 C 251.671 78.080, 251.660 78, 249.513 78 C 248.314 78, 247.127 78.207, 246.874 78.459 M 196.250 86.272 C 192.485 86.996, 191.009 87.736, 191.031 88.891 C 191.048 89.776, 191.714 95.900, 192.510 102.500 C 193.307 109.100, 193.968 114.838, 193.979 115.250 C 194.030 117.091, 196.024 115.754, 196.589 113.500 C 196.934 112.125, 197.508 111, 197.864 111 C 198.497 111, 199.244 109.467, 202.407 101.677 C 203.261 99.574, 204.256 94.961, 204.618 91.427 C 205.364 84.140, 205.835 84.429, 196.250 86.272 M 163.500 92.034 C 161.300 92.476, 158.488 92.601, 157.250 92.311 C 154.677 91.707, 154.619 91.868, 156.054 95.641 C 157.405 99.196, 161.604 115.363, 162.446 120.252 L 163.091 124.004 166.121 122.437 C 167.788 121.576, 171.653 120.463, 174.712 119.966 C 177.770 119.468, 180.474 118.859, 180.720 118.613 C 180.966 118.368, 180.217 114.705, 179.057 110.475 C 177.896 106.245, 176.670 100.132, 176.331 96.892 L 175.715 91 171.608 91.115 C 169.348 91.178, 165.700 91.592, 163.500 92.034 M 75.204 118.639 C 70.641 119.289, 66.253 120.073, 65.454 120.379 C 63.509 121.125, 63.311 138, 65.247 138 C 67.756 138, 81.883 132.846, 82.973 131.533 C 83.623 130.750, 83.970 127.501, 83.798 123.818 L 83.500 117.456 75.204 118.639 M 193.662 144.071 C 172.907 149.171, 164 154.146, 164 160.639 C 164 164.155, 166.866 167, 170.408 167 C 171.487 167, 177.575 165.237, 183.935 163.081 C 196.872 158.698, 208.115 156, 213.447 156 C 217.337 156, 221 153.198, 221 150.223 C 221 142.670, 209.705 140.129, 193.662 144.071 M 221.500 167.057 C 219.300 167.512, 215.595 167.911, 213.267 167.942 C 208.869 168.002, 194.845 171.564, 175.034 177.654 C 168.690 179.603, 161.475 181.545, 159 181.968 C 153.144 182.968, 146.069 185.627, 143.800 187.681 C 141.334 189.913, 141.543 193.222, 144.314 195.826 C 148.064 199.348, 155.885 198.786, 171.229 193.889 C 178.315 191.628, 184.310 189.977, 184.553 190.220 C 184.796 190.463, 184.494 193.325, 183.882 196.581 C 182.681 202.976, 183.077 215.447, 185.581 250 C 186.398 261.275, 186.821 272.075, 186.522 274 C 185.915 277.910, 186.498 279.173, 189.685 280.850 C 192.591 282.380, 196.364 280.905, 198.698 277.324 C 200.353 274.785, 200.474 272.089, 200.176 244.280 L 199.852 214 202.466 214 C 207.380 214, 213.500 218.289, 223.500 228.740 C 232.762 238.419, 248.290 250.502, 257.700 255.351 C 262.136 257.636, 266.667 257.491, 267.989 255.021 C 270.318 250.669, 267.888 247.397, 253.500 235.507 C 249.650 232.325, 244.700 228.080, 242.500 226.074 C 234.361 218.651, 223.901 210.884, 219.269 208.825 C 214.266 206.601, 203.968 205.785, 200.750 207.358 C 199.138 208.147, 199 207.352, 199 197.265 L 199 186.316 209.250 184.105 C 236.968 178.124, 241 176.728, 241 173.112 C 241 172.099, 240.067 170.084, 238.927 168.635 C 237.098 166.309, 236.190 166.013, 231.177 166.115 C 228.055 166.178, 223.700 166.602, 221.500 167.057 M 169.793 215.123 C 164.299 220.974, 156.965 231.181, 153.844 237.320 C 151.329 242.267, 145.185 251.320, 141.570 255.406 C 138.256 259.152, 138.301 262.305, 141.707 264.984 C 146.193 268.513, 152.080 265.686, 158.091 257.116 C 159.872 254.577, 164.200 248.596, 167.709 243.825 C 173.657 235.738, 182 218.896, 182 214.976 C 182 212.820, 178.868 210, 176.472 210 C 175.444 210, 172.438 212.305, 169.793 215.123 M 88.816 220.677 C 86.743 221.224, 85.592 226.009, 86.442 230.543 C 87.394 235.619, 94.597 241.235, 99.615 240.814 C 102.830 240.545, 103.482 240.070, 104.168 237.500 C 105.286 233.309, 104.728 232.150, 98.473 225.694 C 93.104 220.150, 92.332 219.748, 88.816 220.677 M 71.571 224.571 C 69.679 226.464, 69.653 228.281, 71.449 233.316 C 73.591 239.322, 75.757 241.144, 80.346 240.798 C 86.362 240.344, 87.072 238.242, 83.511 231.435 C 79.310 223.405, 75.137 221.006, 71.571 224.571 M 46 230 C 42.258 233.742, 44.098 239.335, 50.860 244.768 C 56.084 248.965, 60.553 249.969, 62.510 247.383 C 64.687 244.508, 64.284 242.068, 61.149 239.139 C 59.580 237.674, 57.551 235.031, 56.638 233.267 C 53.858 227.891, 49.460 226.540, 46 230 M 22.571 230.571 C 18.782 234.361, 22.086 240.295, 31.444 246.506 C 38.415 251.134, 42.146 251.854, 44.896 249.104 C 48.482 245.518, 47.469 242.845, 41.320 239.666 C 39.625 238.789, 37.172 236.808, 35.869 235.263 C 30.771 229.220, 25.709 227.434, 22.571 230.571" stroke="none" fill="black" fill-rule="evenodd"/>
</svg>