<svg xmlns="http://www.w3.org/2000/svg" width="300" height="300" viewBox="0 0 300 300" version="1.1">
	<path d="M 110.500 34.110 C 94.082 37.185, 90.755 38.052, 85.129 40.719 L 79.758 43.265 77.307 40.133 C 74.628 36.709, 70.865 35.992, 68.418 38.439 C 66.114 40.743, 65.678 47.871, 67.436 54.500 C 68.311 57.800, 69.273 63.650, 69.574 67.500 C 70.657 81.360, 73.253 98.543, 74.587 100.674 C 77.620 105.522, 83.259 104.342, 84.866 98.523 C 85.935 94.651, 84.964 81.676, 82.544 67.500 C 80.376 54.801, 80.443 54, 83.679 54 C 85.152 54, 87.740 53.567, 89.429 53.037 C 99.430 49.901, 121.704 45.371, 122.620 46.287 C 122.912 46.578, 122.840 48.883, 122.461 51.408 C 121.871 55.347, 121.443 56, 119.452 56 C 116.258 56, 112.201 57.629, 107.723 60.710 C 104.339 63.039, 103.819 63.144, 102.723 61.724 C 101.546 60.198, 99.869 59.631, 97.276 59.882 C 96.602 59.947, 95.319 61.417, 94.423 63.148 C 92.922 66.051, 92.920 67.205, 94.397 77.898 C 95.526 86.067, 95.723 90.664, 95.064 93.435 C 94.467 95.940, 94.482 98.032, 95.104 99.194 C 96.345 101.512, 94.854 102.132, 78.500 106.093 C 75.750 106.759, 71.744 108.128, 69.598 109.135 C 65.903 110.868, 65.626 110.874, 64.379 109.233 C 63.656 108.280, 63.049 107.214, 63.032 106.864 C 63.014 106.514, 61.398 105.468, 59.440 104.538 C 56.207 103.004, 55.662 102.991, 53.516 104.398 C 49.668 106.919, 49.563 109.399, 52.962 117.562 C 54.880 122.170, 56.303 127.641, 56.660 131.777 C 57.271 138.873, 58.625 141, 62.531 141 C 64.315 141, 64.910 141.955, 66.029 146.622 C 67.136 151.237, 67.156 154.145, 66.140 162.872 C 65.459 168.717, 64.493 177.550, 63.993 182.500 C 63.493 187.450, 61.912 197.800, 60.481 205.500 C 55.990 229.666, 55.025 237.359, 56.324 238.657 C 56.659 238.992, 58.635 239.319, 60.716 239.383 C 64.203 239.491, 64.667 239.169, 66.631 235.280 C 69.304 229.985, 72.458 216.520, 74.073 203.500 C 75.956 188.327, 75.619 188.951, 83.048 186.874 C 86.597 185.882, 91.412 185.054, 93.750 185.035 C 101.394 184.972, 98.825 189.415, 85.868 198.667 C 77.888 204.365, 75 207.633, 75 210.963 C 75 214.830, 77.386 217, 81.637 217 C 86.087 217, 88.475 215.753, 93.750 210.675 L 98 206.584 98 230.292 C 98 245.762, 97.645 254, 96.979 254 C 96.417 254, 95.453 255.107, 94.837 256.459 C 92.497 261.594, 99.402 266.371, 106.566 264.573 C 110.896 263.486, 113.069 256.925, 113.302 244.237 C 113.581 229.111, 112.107 178.195, 110.908 161.500 C 108.987 134.755, 105.411 127.811, 94.409 129.461 C 92.010 129.821, 89.785 130.540, 89.464 131.058 C 89.144 131.576, 88.175 132, 87.310 132 C 86.446 132, 83.597 133.539, 80.978 135.420 C 76.538 138.610, 76.071 138.738, 74.042 137.317 C 72.845 136.478, 70.819 135.993, 69.540 136.237 C 67.369 136.652, 67.282 136.489, 68.224 133.788 C 68.779 132.196, 69.047 128.326, 68.820 125.188 L 68.407 119.482 75.501 119.840 C 80.265 120.080, 84.384 119.641, 88.047 118.501 C 91.046 117.568, 99.026 115.327, 105.779 113.522 C 119.874 109.755, 119.280 109.222, 113.798 120.704 C 112.059 124.345, 111.084 127.690, 111.437 128.802 C 112.298 131.516, 116.597 133.286, 119.089 131.953 C 121.190 130.828, 127 123.339, 127 121.755 C 127 121.235, 129.475 117.128, 132.500 112.629 C 135.525 108.129, 138 103.412, 138 102.147 C 138 100.882, 136.685 98.531, 135.077 96.923 C 131.441 93.287, 127.417 93.125, 115.429 96.132 C 110.754 97.304, 106.754 98.088, 106.540 97.873 C 106.326 97.659, 106.802 94.787, 107.599 91.492 C 108.396 88.196, 108.925 82.882, 108.774 79.681 L 108.500 73.863 113.500 72.169 L 118.500 70.475 118.149 79.268 C 117.653 91.725, 118.102 93, 122.993 93 C 129.044 93, 129.244 92.421, 135.517 56.877 C 137.814 43.856, 136.127 36.668, 130.033 33.517 C 126.398 31.637, 123.180 31.735, 110.500 34.110 M 204.327 37.250 C 202.640 39.038, 199.997 42.750, 198.452 45.500 C 196.908 48.250, 195.578 50.609, 195.496 50.743 C 195.415 50.876, 189.901 52.095, 183.242 53.451 C 176.584 54.807, 169.567 56.572, 167.649 57.373 C 162.039 59.717, 160.254 65.109, 163.972 68.475 C 166.034 70.341, 169.974 70.266, 179.750 68.177 C 182.088 67.677, 183.989 67.546, 183.976 67.884 C 183.962 68.223, 182.500 70.376, 180.726 72.669 C 178.952 74.962, 175.653 79.237, 173.397 82.169 C 171.140 85.101, 164.952 92.368, 159.647 98.318 C 149.613 109.570, 148.390 112.233, 151.829 115.345 C 156.389 119.472, 160.966 116.980, 174.113 103.215 C 184.294 92.554, 184.619 92.317, 190.500 91.215 C 202.316 89.003, 203 88.962, 203 90.466 C 203 91.245, 202.605 92.126, 202.123 92.424 C 201.641 92.722, 200.738 94.886, 200.118 97.233 C 198.425 103.637, 196.297 105.568, 190.126 106.299 C 178.913 107.627, 173.842 112.980, 179.131 117.907 C 181.187 119.823, 182.554 120, 195.291 120 C 208.156 120, 209.894 119.769, 218.341 116.939 C 228.411 113.565, 231 111.822, 231 108.416 C 231 103.357, 227.252 102.109, 218.009 104.092 C 211.425 105.503, 209.474 104.851, 211.115 101.785 C 211.775 100.551, 212.899 98.958, 213.613 98.244 C 214.326 97.531, 215.429 94.309, 216.063 91.085 C 216.915 86.755, 217.776 84.959, 219.358 84.216 C 220.536 83.662, 223.412 81.552, 225.750 79.526 C 229.394 76.369, 230 75.288, 230 71.945 C 230 68.866, 229.462 67.694, 227.443 66.371 C 225.007 64.775, 224.757 64.798, 222.193 66.856 C 220.712 68.045, 218.375 69.499, 217 70.086 C 212.392 72.056, 196.894 76.228, 196.319 75.653 C 196.007 75.340, 196.901 73.718, 198.306 72.048 C 199.712 70.377, 201.148 68.109, 201.498 67.008 C 201.847 65.906, 203.116 64.786, 204.317 64.520 C 205.517 64.253, 212.343 62.859, 219.485 61.422 C 234.141 58.472, 237.378 57.137, 239.339 53.233 C 240.848 50.229, 240.031 45.271, 237.792 43.851 C 235.831 42.606, 232.302 42.841, 230.821 44.315 C 229.553 45.578, 219.677 48, 215.798 48 C 214.261 48, 214.113 47.657, 214.965 46.066 C 216.397 43.390, 216.206 37.855, 214.608 35.750 C 212.431 32.882, 207.811 33.556, 204.327 37.250 M 199.422 133.817 C 193.880 135.293, 188.176 137.276, 186.747 138.224 C 184.692 139.588, 183.543 139.737, 181.243 138.935 C 179.279 138.250, 177.471 138.251, 175.668 138.936 C 173.036 139.937, 173 140.079, 173 149.437 C 173 158.535, 170.249 183.469, 167.973 195 C 167.376 198.025, 166.508 205.423, 166.044 211.439 C 165.261 221.603, 165.017 222.512, 162.600 224.272 C 159.595 226.462, 159.167 230.365, 161.557 233.777 C 163.992 237.254, 170.093 236.867, 173.320 233.031 C 176.289 229.504, 178.641 222.637, 179.547 214.855 C 180.162 209.574, 180.399 209.170, 183.218 208.606 C 186.216 208.007, 195.645 202.603, 199.538 199.254 C 202.826 196.425, 209.538 187.529, 210.942 184.140 C 212.053 181.457, 212.004 180.655, 210.596 178.506 C 209.693 177.128, 208.220 176, 207.322 176 C 205.852 176, 205.863 175.809, 207.435 174.072 C 209.591 171.690, 208.781 168.558, 205.446 166.373 C 203.556 165.134, 201.705 164.953, 196.772 165.523 C 193.322 165.921, 189.431 166.652, 188.123 167.147 L 185.747 168.047 186.201 159.386 C 186.746 149.011, 187.629 148, 196.154 148 C 199.568 148, 203.999 147.183, 207 146 C 209.791 144.900, 212.464 144, 212.941 144 C 213.983 144, 214.800 156.367, 215.881 188.500 C 216.823 216.485, 215.936 234.643, 213.440 238.452 C 212.520 239.855, 211.970 242.064, 212.218 243.360 C 212.740 246.090, 214.375 246.113, 187.500 243.017 C 178.700 242.004, 164.279 240.370, 155.453 239.386 L 139.406 237.598 142.644 232.787 C 146.189 227.519, 146.618 225.326, 147.493 208 C 147.813 201.675, 148.497 194.700, 149.013 192.500 C 150.315 186.955, 150.233 173.673, 148.875 170.297 C 146.396 164.131, 145.596 163.055, 142.745 162.061 C 140.075 161.130, 139.488 161.337, 136.889 164.119 C 133.503 167.744, 133.502 167.746, 135.678 174.649 C 137.253 179.643, 137.250 180.953, 135.636 195.737 C 132.338 225.935, 132.507 225.133, 128.809 228.201 C 126.989 229.711, 125.144 230.958, 124.710 230.973 C 124.275 230.988, 122.592 231.981, 120.971 233.179 C 115.643 237.119, 116.107 245.452, 121.818 248.406 C 123.415 249.232, 129.847 250.400, 136.111 251.002 C 142.375 251.604, 156.050 253.181, 166.500 254.506 C 212.592 260.351, 238.290 261.149, 265.409 257.575 C 276.736 256.083, 281.393 254.440, 287.088 249.930 C 291.173 246.695, 292.290 242.690, 289.800 240.200 C 288.223 238.623, 284.130 238.684, 280.973 240.331 C 279.582 241.057, 276.325 242.184, 273.735 242.837 C 268.449 244.167, 244.809 245.963, 232.271 245.985 L 224.041 246 227.271 241.416 L 230.500 236.832 230.328 200.166 C 230.118 155.578, 229.157 143.539, 225.322 137.477 C 220.799 130.328, 215.394 129.564, 199.422 133.817 M 139.073 136.635 C 137.933 138.084, 137 140.704, 137 142.457 C 137 146.398, 139.754 154.897, 141.793 157.250 C 143.660 159.404, 148.312 159.533, 150.017 157.479 C 151.869 155.248, 150.770 140.105, 148.505 136.648 C 146.164 133.075, 141.878 133.069, 139.073 136.635 M 90.782 145.502 C 88.760 146.876, 86.418 148, 85.576 148 C 82.588 148, 80.527 153.119, 79.492 163.112 L 78.483 172.843 85.132 172.286 C 88.902 171.970, 93.130 172.198, 94.895 172.813 L 98.007 173.899 97.544 170.199 C 97.289 168.165, 96.829 162.131, 96.523 156.790 C 96.216 151.450, 95.626 146.163, 95.211 145.042 C 94.468 143.034, 94.405 143.041, 90.782 145.502 M 190.750 181.331 C 183.704 183.265, 182.999 183.688, 182.986 185.979 C 182.979 187.366, 182.701 189.512, 182.370 190.750 C 181.534 193.870, 183.305 193.637, 189.412 189.823 C 195.372 186.101, 198.813 183.187, 200.127 180.750 C 201.311 178.553, 200.737 178.589, 190.750 181.331" stroke="none" fill="black" fill-rule="evenodd"/>
</svg>