<svg xmlns="http://www.w3.org/2000/svg" width="300" height="300" viewBox="0 0 300 300" version="1.1">
	<path d="M 171.760 15.884 C 170.771 16.887, 169.665 20.245, 169.197 23.667 C 168.192 31.016, 165.046 36.591, 156.761 45.708 C 150.473 52.627, 147.210 56.536, 143.500 61.597 C 142.400 63.097, 140.262 65.888, 138.750 67.800 C 135.640 71.730, 135.436 72.846, 137.348 75.461 C 138.430 76.941, 139.540 77.191, 142.986 76.729 C 147.877 76.073, 151.331 73.044, 165.817 56.709 C 172.878 48.748, 174.561 47.311, 174.827 49.016 C 175.416 52.793, 179.234 53.577, 187.297 51.578 C 191.259 50.595, 195.992 49.429, 197.816 48.986 L 201.132 48.181 195.383 54.340 C 192.222 57.728, 189.315 60.879, 188.925 61.343 C 188.534 61.806, 187.154 61.613, 185.857 60.912 C 182.094 58.880, 173.645 57.217, 171.367 58.060 C 169.146 58.881, 167.801 62.060, 168.913 63.860 C 169.281 64.455, 171.549 65.635, 173.954 66.484 C 181.101 69.005, 181.528 69.785, 177.765 73.441 C 175.969 75.186, 173.355 77.938, 171.957 79.557 C 169.481 82.422, 161.716 89.606, 157.033 93.365 C 155.755 94.390, 152.862 95.464, 150.605 95.750 C 148.347 96.037, 145.713 96.676, 144.750 97.171 C 142.109 98.528, 142.548 103.227, 145.582 106.076 C 152.266 112.352, 166.146 106.607, 182.612 90.750 C 188.181 85.388, 192.995 81, 193.310 81 C 193.626 81, 196.497 83.303, 199.692 86.117 C 202.886 88.932, 212.700 96.008, 221.500 101.841 C 230.300 107.674, 239.525 113.988, 242 115.873 C 247.986 120.430, 255.746 123.978, 259.750 123.990 C 263.568 124.002, 267 121.034, 267 117.723 C 267 114.574, 264.289 111, 261.901 111 C 260.809 111, 259.372 110.549, 258.708 109.997 C 257.376 108.892, 238.302 95.625, 225 86.552 C 220.325 83.363, 215.375 79.751, 214 78.524 C 212.625 77.298, 209.345 74.845, 206.711 73.073 L 201.923 69.851 207.622 63.695 C 214.570 56.191, 218.440 50.961, 221.536 44.895 C 223.080 41.871, 224.938 39.854, 226.948 39.021 C 234.043 36.083, 238.250 27.393, 234.429 23.571 C 232.435 21.578, 228.621 21.547, 226.992 23.510 C 226.302 24.341, 223.210 25.713, 220.119 26.560 C 205.804 30.484, 199.762 32.629, 190.094 37.224 C 184.371 39.943, 179.052 42.806, 178.273 43.584 C 175.768 46.089, 175.975 45.109, 178.937 40.438 C 184.297 31.987, 185.592 18.677, 181.367 15.477 C 178.808 13.540, 173.865 13.749, 171.760 15.884 M 80.940 25.295 C 79.533 26.508, 77.074 30.646, 75.476 34.490 C 73.013 40.417, 66.463 49.769, 58.560 58.643 C 57.651 59.664, 53.920 64.325, 50.271 69 C 44.399 76.521, 32.514 90.642, 30.912 92 C 29.833 92.915, 18.452 106.422, 14.196 111.840 C 9.524 117.786, 8.845 121.645, 11.974 124.477 C 15.227 127.420, 18.545 125.107, 35.037 108.397 C 43.423 99.901, 50.493 93.159, 50.748 93.414 C 51.003 93.670, 50.709 107.068, 50.095 123.189 C 49.480 139.310, 48.533 172.434, 47.990 196.798 C 47.032 239.776, 45.880 263.200, 44.030 277.360 C 43.500 281.411, 43.501 285.188, 44.031 286.582 C 45.860 291.393, 53.141 290.342, 56.084 284.843 C 58.480 280.366, 60.025 253.242, 61 198.500 C 61.549 167.700, 62.369 132.375, 62.821 120 C 63.274 107.625, 63.458 92.915, 63.230 87.312 L 62.816 77.123 68.923 69.312 C 72.281 65.015, 77.062 59.025, 79.546 56 C 85.858 48.314, 91 37.773, 91 32.519 C 91 25.220, 85.562 21.315, 80.940 25.295 M 190.654 101.708 C 188.573 102.244, 185.685 104.430, 182.693 107.732 C 180.663 109.972, 174.323 114.211, 155.216 126.101 C 144.180 132.968, 141.902 135.961, 145.603 138.732 C 148.494 140.896, 153.774 139.742, 164.598 134.581 C 169.929 132.038, 174.362 130.080, 174.448 130.229 C 174.535 130.378, 175.309 131.630, 176.170 133.012 C 177.926 135.832, 177.904 135.867, 171.271 140.528 C 168.459 142.505, 167.036 144.253, 167.021 145.750 C 167.009 147.048, 166.381 148, 165.538 148 C 161.800 148, 153.381 152.153, 151.551 154.900 L 149.601 157.825 147.893 154.009 C 145.069 147.702, 138.818 147.379, 137.140 153.454 C 136.102 157.213, 137.363 191.329, 139.038 204.809 C 140.122 213.532, 142.034 218.692, 144.538 219.653 C 145.774 220.127, 145.767 220.494, 144.486 222.324 C 140.996 227.307, 143.996 231.907, 151.270 232.727 C 153.688 233, 162.704 232.053, 171.561 230.597 C 180.327 229.156, 190.518 227.494, 194.207 226.905 C 207.576 224.770, 212.941 219.801, 207.832 214.287 C 205.542 211.816, 205.312 211.782, 195.128 212.425 C 185.428 213.036, 184.801 212.963, 185.449 211.289 C 186.753 207.925, 189 198.583, 189 196.525 C 189 194.958, 190.205 194.041, 194.070 192.669 C 200.303 190.455, 206.510 185.015, 208.019 180.443 C 209.003 177.460, 208.873 176.630, 207.006 174.009 C 204.322 170.239, 201.887 170.211, 197.191 173.899 C 195.161 175.493, 192.553 177.077, 191.397 177.420 C 189.449 177.996, 189.248 177.560, 188.685 171.526 C 188.350 167.943, 187.628 164.173, 187.080 163.149 C 186.160 161.430, 186.669 161.237, 193.692 160.643 C 204.733 159.710, 215.486 159.854, 218.435 160.975 C 220.703 161.838, 220.995 162.503, 220.961 166.725 C 220.918 172.029, 213.993 205.628, 211.879 210.788 C 210.008 215.358, 212.180 219.365, 216.771 219.813 C 220.565 220.182, 223.317 217.660, 226.859 210.567 C 229.777 204.726, 234.658 185.299, 236.188 173.441 C 237.243 165.259, 237.170 163.809, 235.428 158.467 C 233.899 153.776, 232.625 151.889, 229.270 149.350 C 224.099 145.437, 219.267 144.699, 201.860 145.164 L 189.260 145.500 193.976 142.327 C 199.692 138.482, 204 133.552, 204 130.858 C 204 128.571, 202.212 124.842, 200.600 123.765 C 198.815 122.573, 194.503 122.892, 190.654 124.500 C 188.680 125.325, 185.812 125.976, 184.282 125.948 L 181.500 125.895 184 124.216 C 189.348 120.625, 197.073 112.355, 197.931 109.304 C 198.690 106.603, 198.463 105.713, 196.462 103.554 C 194.044 100.945, 193.852 100.884, 190.654 101.708 M 84.444 117.134 C 80.320 119.137, 80.095 122.028, 81.088 160.284 C 81.936 192.941, 82.209 196.746, 83.863 199 C 86.426 202.493, 90.349 202.742, 93.481 199.610 C 95.942 197.149, 96.004 196.728, 96.184 181.295 C 96.470 156.757, 95.876 131.005, 94.896 125.500 C 94.298 122.137, 93.169 119.763, 91.448 118.250 C 88.657 115.797, 87.558 115.622, 84.444 117.134 M 162 163.732 C 160.032 163.963, 157.296 165.288, 155.750 166.759 C 153.451 168.946, 153.003 170.204, 153.015 174.437 C 153.036 181.284, 153.753 182.218, 158.045 180.987 C 159.938 180.444, 164.308 180, 167.755 180 L 174.024 180 173.262 175.750 C 172.843 173.412, 172.500 169.588, 172.500 167.250 C 172.500 163.029, 172.476 163.001, 169 163.160 C 167.075 163.248, 163.925 163.505, 162 163.732 M 153.812 206.786 L 153.500 217.572 160.560 216.462 C 164.443 215.852, 168.150 215.025, 168.797 214.625 C 170.006 213.878, 172.351 206.402, 173.464 199.750 L 174.091 196 164.108 196 L 154.125 196 153.812 206.786 M 243.200 240.200 C 241.347 242.053, 241.779 245.812, 243.981 246.990 C 245.071 247.573, 247.476 251.302, 249.326 255.275 C 253.112 263.408, 259.626 270.216, 270.089 276.979 C 278.443 282.378, 280.488 282.829, 283.555 279.948 C 284.900 278.685, 286 276.800, 286 275.760 C 286 273.803, 284.245 269.877, 282.979 269 C 276.591 264.577, 266.700 254.980, 263.397 250 C 259.631 244.322, 258.667 243.361, 254.497 241.126 C 250.103 238.771, 245.044 238.356, 243.200 240.200 M 188.589 248.077 C 186.974 249.996, 186 252.368, 186 254.380 C 186 259.161, 190.616 267.558, 195.345 271.379 C 200.926 275.887, 203.035 276.889, 209.435 278.073 C 213.744 278.869, 215.617 278.769, 218.438 277.590 C 221.565 276.284, 222 275.672, 222 272.579 C 222 269.149, 221.848 269.012, 216.250 267.397 C 209.729 265.517, 204.812 261.006, 200.869 253.288 C 196.274 244.294, 192.957 242.886, 188.589 248.077 M 149.018 254.823 C 144.606 256.306, 143.758 261.255, 147.014 266.522 C 150.090 271.500, 163.399 281, 167.295 281 C 169.275 281, 172 277.711, 172 275.320 C 172 273.117, 155.005 255.493, 152.171 254.759 C 151.252 254.520, 149.833 254.550, 149.018 254.823 M 100.750 257.569 C 98.505 258.790, 98.003 259.746, 98.016 262.782 C 98.026 264.946, 99.056 268.171, 100.481 270.500 C 103.379 275.235, 105.386 279.291, 107.044 283.763 C 109.498 290.384, 117.223 288.560, 118.490 281.061 C 119.354 275.943, 118.438 271.603, 115.364 266.258 C 112.781 261.765, 108.494 257, 107.036 257 C 106.556 257, 105.564 256.792, 104.832 256.537 C 104.099 256.283, 102.263 256.747, 100.750 257.569" stroke="none" fill="black" fill-rule="evenodd"/>
</svg>