<svg xmlns="http://www.w3.org/2000/svg" width="300" height="300" viewBox="0 0 300 300" version="1.1">
	<path d="M 111.547 30.611 C 108.494 33.664, 107.118 35.796, 107.474 36.919 C 108.177 39.133, 102.283 48.725, 93.776 59.211 C 90.078 63.770, 84.026 71.325, 80.327 76 C 76.628 80.675, 71.068 86.975, 67.971 90 C 61.446 96.372, 60.395 98.974, 63.151 101.931 C 66.629 105.665, 71.459 104.307, 79.899 97.223 C 85.471 92.546, 93.704 83.986, 101.572 74.687 L 105.645 69.874 109.822 71.546 C 114.461 73.402, 114.883 74.602, 112.133 78.115 C 111.107 79.427, 108.853 83.200, 107.125 86.500 C 105.397 89.800, 103.087 94.068, 101.992 95.984 C 99.787 99.841, 99.514 102.224, 100.966 104.936 C 101.814 106.521, 100.933 107.118, 93.716 109.850 C 89.197 111.560, 84.150 113.252, 82.500 113.609 C 77.759 114.634, 72.213 118.082, 71.594 120.389 C 69.269 129.051, 74.970 132.217, 87.250 129.085 L 94 127.364 93.994 130.932 C 93.991 132.894, 93.706 138.119, 93.362 142.542 L 92.736 150.585 84.334 152.757 C 79.713 153.952, 73.810 155.994, 71.216 157.296 L 66.500 159.663 66.500 141.081 C 66.500 122.958, 66.440 122.420, 64.069 119.260 C 61.028 115.206, 58.579 114.391, 55.501 116.408 C 52.324 118.489, 51.009 123.656, 51.022 134 C 51.028 138.675, 50.284 154.650, 49.368 169.500 C 48.435 184.637, 48.020 199.031, 48.425 202.260 C 49.317 209.384, 52.724 214, 57.089 214 C 60.326 214, 63.999 210.945, 64.002 208.250 C 64.011 197.815, 65.324 176.306, 65.992 175.624 C 67.097 174.498, 91.208 167.874, 91.853 168.519 C 92.682 169.348, 90.022 195.783, 88.725 199.603 C 87.691 202.649, 86.641 203.562, 82 205.447 C 66.963 211.555, 59 216.854, 59 220.752 C 59 221.778, 59.626 223.474, 60.391 224.521 C 61.696 226.305, 62.399 226.355, 71.641 225.321 C 78.804 224.519, 83.825 223.258, 90 220.707 C 94.675 218.776, 107.050 214.891, 117.500 212.073 C 127.950 209.256, 137.536 206.511, 138.802 205.973 C 140.068 205.435, 141.750 203.450, 142.539 201.562 C 143.328 199.673, 145.115 196.445, 146.511 194.388 C 147.907 192.331, 150.051 187.465, 151.275 183.574 C 153.317 177.082, 153.500 174.524, 153.500 152.500 C 153.500 130.357, 153.326 127.958, 151.251 121.500 C 148.339 112.435, 143.485 105.897, 137.523 103.011 C 133.500 101.064, 131.690 100.818, 124.057 101.183 L 115.239 101.605 121.790 92.678 C 130.149 81.290, 132 77.591, 132 72.275 C 132 66.490, 128.747 61.733, 122.500 58.378 C 119.750 56.902, 117.346 55.571, 117.158 55.422 C 116.970 55.272, 118.330 52.529, 120.179 49.325 C 126.914 37.661, 127.839 32.077, 123.686 28.174 C 120.020 24.731, 116.776 25.382, 111.547 30.611 M 194.280 29.020 C 191.895 29.980, 191.403 31.459, 190.624 40 C 190.292 43.637, 188.048 50.412, 183.998 60 C 175.002 81.301, 173.263 84.834, 168.247 92 C 162.531 100.166, 161.950 104.765, 166.441 106.293 C 171.126 107.887, 176.724 104.269, 183.400 95.331 C 186.480 91.207, 189 87.515, 189 87.126 C 189 86.737, 192.938 85.855, 197.750 85.166 C 202.563 84.477, 208.246 83.658, 210.381 83.346 L 214.261 82.780 213.595 106.140 C 212.787 134.451, 211.431 162.273, 209.461 191 C 208.649 202.825, 207.534 224.875, 206.981 240 C 206.429 255.125, 205.512 271.517, 204.943 276.426 C 203.972 284.802, 204.033 285.477, 205.931 287.375 C 208.412 289.856, 214.314 289.931, 216.984 287.514 C 219.449 285.283, 220.720 279.180, 221.983 263.500 C 223.025 250.563, 224.972 210.672, 224.990 201.898 L 225 197.295 233.250 196.661 C 242.081 195.982, 265.896 190.507, 275.260 187.004 C 278.392 185.832, 281.865 183.716, 282.977 182.302 C 285.901 178.585, 285.632 173.642, 282.365 171.073 C 279.243 168.617, 277.254 168.460, 275.007 170.493 C 273.600 171.767, 246.596 177.277, 231.096 179.454 L 226.692 180.073 227.346 169.381 C 227.706 163.500, 228 156.827, 228 154.551 L 228 150.413 233.250 149.232 C 236.137 148.582, 244.575 146.438, 252 144.467 C 259.425 142.496, 268.766 140.620, 272.759 140.297 C 278.702 139.816, 280.469 139.259, 282.509 137.219 C 285.551 134.176, 285.684 131.111, 282.904 128.127 C 280.186 125.210, 276.871 123.996, 271.685 124.017 C 264.244 124.049, 246.523 127.577, 232.383 131.844 L 229.266 132.784 229.760 107.642 C 230.032 93.814, 230.338 82.397, 230.439 82.271 C 230.541 82.146, 235.771 81.335, 242.062 80.470 C 256.641 78.464, 260.959 77.323, 263.750 74.736 C 266.618 72.079, 266.697 67.156, 263.927 63.635 C 261.628 60.711, 258.726 60.345, 250.386 61.927 C 247.699 62.436, 237.625 63.605, 228 64.524 C 216.650 65.607, 208.162 66.966, 203.847 68.389 L 197.194 70.582 198.996 66.041 C 199.987 63.544, 202.193 58.001, 203.899 53.724 C 206.066 48.290, 207 44.269, 207 40.374 C 207 35.368, 206.653 34.453, 203.600 31.400 C 200.129 27.929, 198.209 27.439, 194.280 29.020 M 116.500 118.861 C 111.597 120.251, 110.541 120.922, 110.726 122.531 C 111.310 127.622, 111.270 131.140, 110.537 139.119 L 109.746 147.737 115.594 146.820 C 119.177 146.258, 122.146 145.147, 123.260 143.951 C 125.643 141.393, 128.437 141.479, 130.961 144.189 C 133.364 146.768, 133.559 150.018, 131.544 153.915 C 129.844 157.203, 126.094 159.162, 116.466 161.791 L 109.500 163.693 109.235 167.597 C 108.940 171.932, 106.157 191.230, 105.319 194.750 C 104.834 196.788, 105.146 196.999, 108.642 196.988 C 110.764 196.982, 114.975 196.312, 118 195.500 C 121.025 194.688, 124.731 194.018, 126.236 194.012 C 134.580 193.976, 139.506 169.886, 137.074 141 C 135.057 117.042, 132.526 114.318, 116.500 118.861 M 138.981 239.045 C 137.861 241.749, 138.036 242.900, 140.533 249.295 C 145.186 261.211, 151.672 265.720, 157.892 261.363 C 159.879 259.972, 160.158 259.093, 159.753 255.501 C 159.474 253.023, 158.393 250.393, 157.138 249.138 C 155.962 247.962, 155 246.344, 155 245.542 C 155 244.740, 153.270 242.265, 151.155 240.042 C 148.078 236.807, 146.604 236, 143.776 236 C 140.781 236, 140.050 236.464, 138.981 239.045 M 110.417 245.041 C 103.372 247.647, 103.242 261.554, 110.217 266.439 C 112.787 268.239, 123.048 268.580, 126.066 266.965 C 130.431 264.629, 126.419 256.176, 121.528 257.404 C 118.530 258.156, 117.152 256.391, 116.389 250.819 C 115.713 245.887, 113.616 243.858, 110.417 245.041 M 41.500 256.208 C 34.475 260.237, 35.695 268.219, 44.296 274.500 C 52.896 280.779, 57.417 282.984, 61.715 282.992 C 66.303 283.001, 68.890 280.412, 67.239 277.463 C 65.434 274.237, 49.526 257.806, 46.886 256.441 C 43.611 254.748, 44.016 254.765, 41.500 256.208 M 77.248 255.706 C 73.919 256.347, 69.937 262.011, 70.684 265.043 C 71.640 268.927, 73.029 270.125, 80.684 273.672 C 88.969 277.510, 94.075 277.925, 97 275 C 100.907 271.093, 98.176 265, 92.517 265 C 90.565 265, 88.270 263.182, 83.145 257.576 C 81.850 256.159, 80.500 255.061, 80.145 255.136 C 79.790 255.211, 78.486 255.468, 77.248 255.706" stroke="none" fill="black" fill-rule="evenodd"/>
</svg>