<svg xmlns="http://www.w3.org/2000/svg" width="300" height="300" viewBox="0 0 300 300" version="1.1">
	<path d="M 84.317 28.491 C 82.294 29.908, 80.667 32.673, 73.722 46.500 C 69.714 54.480, 66.263 59.401, 60.142 65.867 C 57.347 68.819, 54.781 72.113, 54.440 73.188 C 53.724 75.443, 56.461 79.003, 58.905 78.995 C 65.226 78.975, 84.351 59.917, 89.498 48.510 C 90.741 45.754, 92.713 42.717, 93.879 41.760 C 97.040 39.166, 96.781 33.053, 93.364 29.636 C 90.394 26.666, 87.453 26.294, 84.317 28.491 M 95.370 64.481 C 91.592 66.396, 87.555 67.971, 86.399 67.981 C 82.557 68.016, 77.853 70.223, 77.037 72.375 C 75.993 75.125, 77.528 76.990, 80.872 77.035 C 82.318 77.055, 84.625 77.714, 86 78.500 C 87.375 79.286, 89.554 79.945, 90.843 79.965 C 93.018 79.997, 92.860 80.362, 88.644 85.051 C 83.976 90.243, 83.721 91.657, 86.807 95.250 C 88.180 96.848, 88.101 97, 85.905 96.995 C 79.022 96.981, 65.148 105.723, 63.049 111.397 C 62.406 113.136, 62.124 112.857, 61.098 109.465 C 60.438 107.284, 58.909 103.369, 57.699 100.766 C 55.936 96.969, 55.005 96.031, 53 96.031 C 48.099 96.030, 48.001 96.438, 49.025 112.536 C 52.192 162.350, 52.671 190.318, 50.516 199.745 C 49.969 202.138, 50.330 204.171, 51.892 207.495 C 53.909 211.784, 54.211 212, 58.213 212 C 60.612 212, 66.938 210.338, 72.958 208.125 C 83.417 204.281, 98.277 199.804, 105 198.471 C 111.589 197.165, 113.769 192.971, 110.377 188.127 C 108.848 185.946, 108.216 185.828, 99.627 186.129 C 91.983 186.397, 90.558 186.210, 90.857 184.975 C 92.557 177.953, 94.976 164.986, 94.987 162.837 C 94.999 160.470, 95.763 159.883, 101.884 157.544 C 105.670 156.098, 109.442 154.146, 110.266 153.207 C 112.828 150.287, 113.298 147.104, 111.560 144.451 C 109.648 141.533, 105.472 141.216, 99 143.500 L 94.748 145 95.182 133.682 C 95.660 121.182, 95.091 119.667, 89.917 119.667 C 83.172 119.667, 80.052 126.465, 80.022 141.231 L 80 151.962 77.250 152.650 C 75.737 153.029, 73.150 154.161, 71.500 155.165 C 66.236 158.371, 66.002 157.993, 65.980 146.250 C 65.961 136.350, 65.297 129.249, 63.513 119.872 C 62.854 116.406, 62.935 116.265, 65.324 116.722 C 66.699 116.985, 71.802 116.059, 76.662 114.665 C 88.562 111.252, 116.384 109.385, 117.935 111.896 C 119.477 114.390, 122.005 137.471, 122 149 C 121.993 162.686, 119.006 182.130, 116.068 187.613 C 113.517 192.372, 113.448 195.190, 115.829 197.345 C 118.783 200.018, 121.567 199.335, 124.908 195.116 C 131.237 187.125, 133.820 179.383, 135.957 162 C 138.601 140.496, 135.487 109.706, 129.871 101.818 C 126.288 96.787, 123.419 96, 108.664 96 L 95.230 96 103.018 88.421 C 112.532 79.163, 115.587 73.942, 114.593 68.643 C 114.081 65.916, 113.027 64.377, 110.696 62.956 C 106.188 60.208, 103.222 60.503, 95.370 64.481 M 204.500 62.046 C 201.750 62.474, 193.682 62.864, 186.571 62.912 C 178.982 62.964, 172.203 63.516, 170.158 64.250 C 167.371 65.250, 166.590 65.250, 166.254 64.250 C 166.022 63.563, 164.858 63.006, 163.667 63.014 C 159.014 63.043, 157.263 64.174, 156.015 67.956 C 154.325 73.076, 156.980 92.936, 161.615 109.850 C 163.477 116.643, 165.007 122.943, 165.015 123.850 C 165.042 126.879, 168.634 137.092, 170.397 139.150 C 173.467 142.736, 180.006 139.609, 179.996 134.559 C 179.994 133.426, 179.327 128.450, 178.514 123.500 C 176.554 111.570, 176.489 112, 180.250 111.999 C 182.037 111.999, 186.761 111.318, 190.746 110.487 C 197.249 109.130, 201.733 109.156, 208.787 110.591 C 210.997 111.041, 211.065 111.368, 210.787 120.278 L 210.500 129.500 203.328 130.141 C 195.049 130.881, 184.003 135.539, 181.512 139.341 C 177.161 145.981, 186.047 148.789, 201 145.500 C 211.785 143.128, 211.002 142.323, 210.986 155.750 L 210.972 167.500 199.151 171.822 C 189.279 175.431, 186.371 176.090, 181.508 175.822 C 175.786 175.506, 175.670 175.552, 174.858 178.500 C 173.829 182.235, 174.461 184.316, 177.676 187.782 C 179.976 190.262, 180.825 190.496, 187.349 190.455 C 192.875 190.421, 195.977 189.779, 201 187.630 C 211.508 183.134, 210.605 182.702, 211.365 192.591 C 211.735 197.400, 211.740 206.592, 211.377 213.019 L 210.717 224.704 197.200 225.352 C 189.766 225.708, 179.923 226, 175.327 226 C 167.264 226, 166.844 226.116, 163.363 229.306 C 160.165 232.236, 159.837 232.981, 160.471 235.866 C 161.583 240.933, 163.748 241.307, 187.740 240.582 C 206.597 240.012, 209.265 240.128, 211.530 241.612 C 213.575 242.952, 214.570 243.061, 216.541 242.163 C 217.893 241.547, 219 240.583, 219 240.021 C 219 239.405, 222.410 239, 227.590 239 C 239.101 239, 281.434 234.263, 285.643 232.505 C 287.487 231.734, 289.504 229.989, 290.125 228.626 C 292.630 223.127, 287.783 217.308, 282.741 219.763 C 281.509 220.363, 269.700 221.359, 256.500 221.976 C 243.300 222.593, 230.546 223.195, 228.159 223.313 L 223.817 223.529 224.563 217.014 C 224.973 213.432, 225.576 203.327, 225.904 194.560 L 226.500 178.620 232 177.232 C 241.868 174.744, 246.241 169.540, 242.554 164.676 C 241.168 162.847, 238.376 162.841, 228.750 164.644 L 226 165.159 226 154.079 C 226 141.762, 226.023 141.729, 232.654 144.500 C 234.629 145.325, 236.863 146, 237.619 146 C 239.689 146, 246.279 139.631, 248.132 135.840 C 256.505 118.706, 262 97.074, 262 81.239 C 262 74.642, 261.547 72.091, 259.750 68.577 C 255.973 61.189, 255.168 60.981, 230.846 61.134 C 219.106 61.207, 207.250 61.618, 204.500 62.046 M 170.441 75.250 C 170.649 75.938, 171.613 81.370, 172.584 87.321 C 174.234 97.444, 174.482 98.103, 176.424 97.533 C 184.756 95.086, 196.973 93.772, 203.294 94.643 C 207.031 95.157, 210.294 95.373, 210.544 95.122 C 210.795 94.872, 211 92.869, 211 90.671 C 211 88.474, 211.755 84.279, 212.679 81.350 C 213.602 78.421, 214.087 75.754, 213.756 75.423 C 213.426 75.092, 209.997 75.312, 206.136 75.911 C 196.270 77.442, 185.001 77.265, 180 75.500 C 174.738 73.643, 169.917 73.517, 170.441 75.250 M 225.395 77.750 C 225.741 79.263, 226.301 83.890, 226.640 88.034 L 227.256 95.568 230.635 95.174 C 234.973 94.668, 239 97.208, 239 100.450 C 239 103.358, 235.207 106.558, 229.865 108.159 L 226 109.317 226 119.414 L 226 129.511 229.250 130.599 C 231.037 131.198, 233.149 131.871, 233.943 132.094 C 237.536 133.105, 245.655 103.882, 246.658 86.331 L 247.305 75 236.036 75 L 224.767 75 225.395 77.750 M 72.270 171.355 L 66.040 173.500 66.009 181 C 65.992 185.125, 65.704 190.160, 65.368 192.189 L 64.758 195.878 71.847 192.439 C 75.746 190.548, 79.513 188.993, 80.218 188.985 C 81.230 188.973, 81.238 188.803, 80.255 188.179 C 78.706 187.195, 78.537 184.371, 79.513 175.750 C 79.948 171.900, 79.895 169.045, 79.388 169.105 C 78.900 169.163, 75.696 170.176, 72.270 171.355 M 122.916 224.930 C 120.427 227.419, 120.266 228.032, 121.041 232.076 C 123.553 245.181, 130.325 256.962, 136.522 259.007 C 140.998 260.485, 143.656 259.565, 145.562 255.879 C 147.410 252.306, 146.706 249.509, 143.416 247.353 C 141.752 246.263, 140.333 243.615, 138.920 238.961 C 134.553 224.586, 128.536 219.310, 122.916 224.930 M 69.512 231.169 C 66.963 233.174, 66.796 233.737, 67.301 238.627 C 67.645 241.956, 69.211 246.513, 71.530 250.925 C 77.740 262.744, 86.837 268.163, 91.926 263.074 C 94.359 260.641, 93.652 257.600, 90.056 255.040 C 88.458 253.902, 85.139 248.704, 81.927 242.310 C 77.031 232.561, 74.691 229.125, 72.885 229.032 C 72.547 229.014, 71.029 229.976, 69.512 231.169 M 94.455 232.455 C 91.179 235.730, 91.299 239.594, 94.981 249.500 C 97.325 255.803, 98.862 258.286, 102.228 261.204 C 107.425 265.710, 111.191 266.760, 114.465 264.615 C 118.479 261.985, 118.716 259.040, 115.150 256.075 C 112.184 253.609, 110.345 250.112, 106.577 239.778 C 104.990 235.422, 100.165 230, 97.878 230 C 97.345 230, 95.805 231.105, 94.455 232.455 M 35.632 239.641 C 31.743 243.246, 32.372 246.183, 39.801 259.108 C 46.481 270.729, 49.218 273.133, 53.529 271.169 C 56.003 270.042, 56.189 269.581, 55.616 266.001 C 54.319 257.889, 48.848 244.924, 45.027 240.908 C 42.982 238.758, 40.673 237, 39.895 237 C 39.116 237, 37.198 238.188, 35.632 239.641" stroke="none" fill="black" fill-rule="evenodd"/>
</svg>