<svg xmlns="http://www.w3.org/2000/svg" width="300" height="300" viewBox="0 0 300 300" version="1.1">
	<path d="M 207.250 13.957 C 205.463 14.391, 200.513 16.976, 196.250 19.700 C 184.558 27.172, 177.982 31, 176.838 31 C 176.272 31, 174.561 31.889, 173.035 32.975 C 171.509 34.061, 169.190 35.412, 167.881 35.976 C 162.522 38.285, 140.181 53.794, 138.980 56.038 C 137.328 59.125, 137.856 61.977, 140.285 63.084 L 142.571 64.125 142.763 120.313 C 142.958 177.583, 142.322 196.037, 139.958 201.660 C 137.907 206.539, 140.012 212.624, 144.058 213.513 C 146.003 213.940, 147.870 213.666, 149.291 212.745 C 150.641 211.869, 155.583 211.067, 162 210.680 C 175.473 209.868, 195.174 206.415, 223 199.987 L 234.500 197.330 235.342 199.415 C 236.690 202.755, 235.355 241.580, 233.636 249 C 231.388 258.708, 226.360 271.132, 223.379 274.348 C 221.188 276.710, 220.217 277.081, 217.622 276.547 C 207.200 274.404, 205 274.951, 205 279.688 C 205 283.744, 206.898 286.044, 212.330 288.573 C 221.607 292.893, 227.990 291.088, 235.513 282.017 C 239.671 277.004, 242.674 270.721, 246.680 258.659 C 249.303 250.759, 249.402 249.645, 249.781 223.619 C 250.216 193.696, 249.713 190.460, 243.851 185.528 C 239.640 181.984, 235.056 182.223, 215.621 187 C 206.669 189.200, 198.404 191, 197.253 191 C 196.103 191, 189.613 192.090, 182.831 193.422 C 176.049 194.754, 166.941 196.164, 162.592 196.554 L 154.684 197.265 155.342 189.481 C 155.704 185.201, 156 179.769, 156 177.412 L 156 173.126 159.520 173.697 C 164.120 174.443, 176.126 172.466, 188 169.006 C 193.225 167.483, 198.731 165.952, 200.235 165.603 C 205.400 164.406, 205.126 157.151, 199.812 154.403 C 196.505 152.693, 195.366 152.818, 176.500 156.980 C 171.550 158.072, 166.375 158.976, 165 158.989 C 163.625 159.002, 161.294 159.641, 159.821 160.410 C 158.347 161.179, 156.885 161.551, 156.571 161.237 C 156.257 160.923, 155.999 148.929, 155.998 134.583 L 155.996 108.500 162.248 108.812 C 167.359 109.066, 170.234 108.498, 178 105.697 C 183.225 103.812, 191.325 101.736, 196 101.084 C 200.675 100.431, 207.505 99.092, 211.177 98.109 L 217.855 96.322 216.262 100.411 C 215.386 102.660, 213.843 105.694, 212.834 107.154 C 211.825 108.614, 211 110.726, 211 111.848 C 211 113.973, 214.430 117, 216.838 117 C 218.724 117, 225.653 109.410, 228.163 104.596 C 233.147 95.035, 239.084 66.384, 237.619 58.966 C 235.604 48.768, 229.537 47.888, 205.453 54.300 C 196.129 56.782, 186.475 59.096, 184 59.442 C 174.908 60.713, 164.225 64.166, 160.964 66.889 C 158.326 69.091, 157.812 70.113, 158.320 72.140 C 159.671 77.523, 166.736 78.249, 182.280 74.603 C 187.901 73.285, 196.775 71.215, 202 70.004 C 207.225 68.792, 213.906 67.220, 216.847 66.509 L 222.194 65.217 221.570 69.859 C 219.810 82.950, 220.623 81.642, 213.177 83.372 C 209.505 84.226, 201.775 85.646, 196 86.527 C 190.225 87.409, 182.828 88.801, 179.563 89.621 C 171.737 91.587, 159.922 97.100, 157.097 100.104 L 154.844 102.500 155.221 80.074 L 155.598 57.647 164.571 53.074 C 169.506 50.558, 174.659 47.752, 176.022 46.837 C 177.385 45.922, 181.275 44.019, 184.667 42.609 C 188.058 41.199, 192.783 38.775, 195.167 37.223 C 197.550 35.671, 201.075 33.587, 203 32.590 C 204.925 31.594, 209.650 28.691, 213.500 26.139 C 223.685 19.389, 223.530 15.519, 213 13.617 C 211.625 13.369, 209.038 13.522, 207.250 13.957 M 80.698 39.023 C 76.232 42.536, 73.859 50.893, 73.252 65.250 C 72.740 77.351, 72.605 78.003, 70.606 78.063 C 56.341 78.492, 46.741 79.802, 44.238 81.663 C 40.854 84.178, 40.289 87.900, 42.817 91.022 C 44.393 92.969, 45.865 93.453, 51.116 93.755 C 54.627 93.957, 61.028 93.726, 65.341 93.242 L 73.181 92.362 72.841 107.141 L 72.500 121.921 68.500 123.628 C 48.421 132.196, 44.116 136.207, 49.367 141.458 C 51.811 143.902, 51.828 144.028, 50.265 148.007 C 47.515 155.008, 50.627 163.057, 64.167 183.963 C 66.825 188.067, 69 192.246, 69 193.249 C 69 196.634, 54.559 220.771, 48.750 227.095 C 47.788 228.143, 47 229.222, 47 229.492 C 47 230.343, 42.676 235, 41.887 235 C 41.473 235, 40.849 234.100, 40.500 232.999 C 39.462 229.730, 36.283 228.584, 33.433 230.452 C 31.451 231.751, 31 232.882, 31 236.555 C 31 242.043, 33.125 247.462, 35.850 248.920 C 38.690 250.439, 44.607 250.262, 47.800 248.562 C 53.999 245.260, 65.139 231.590, 75.771 214.240 C 79.486 208.176, 80.456 208.286, 85.455 215.335 C 97.849 232.809, 108.486 246.084, 110.500 246.589 C 114.635 247.627, 117.407 246.649, 118.405 243.801 C 119.696 240.114, 117.264 234.981, 108.822 223.574 C 105.129 218.583, 101.521 213.375, 100.805 212 C 100.089 210.625, 99.239 209.275, 98.917 209 C 98.594 208.725, 95.927 204.954, 92.989 200.621 L 87.648 192.742 90.710 184.121 C 95.208 171.456, 99.617 159.779, 104.121 148.598 C 108.960 136.584, 110.817 124.642, 108.798 118.504 C 106.610 111.850, 100.595 110.368, 90.367 113.962 L 84.784 115.925 85.379 112.712 C 85.706 110.946, 86.272 105.087, 86.636 99.693 L 87.297 89.885 93.806 86.934 C 103.032 82.751, 109 77.653, 109 73.956 C 109 72.011, 108.226 70.539, 106.666 69.517 C 104.114 67.845, 101.643 68.358, 94.350 72.076 C 92.275 73.134, 89.997 74, 89.289 74 C 86.463 74, 88.757 50.414, 91.692 49.288 C 94.237 48.312, 95.156 44.203, 93.534 41.065 C 91.152 36.459, 85.168 35.507, 80.698 39.023 M 188 118.061 C 180.593 120.352, 168.710 123.623, 164.990 124.396 C 162.274 124.961, 159 129.571, 159 132.833 C 159 133.946, 159.765 135.622, 160.700 136.557 C 163.318 139.175, 173.691 137.857, 188.580 133.013 C 195.524 130.754, 204.196 128.640, 207.852 128.316 C 211.509 127.991, 215.063 127.283, 215.750 126.741 C 217.700 125.203, 217.220 120.509, 214.897 118.405 C 211.737 115.543, 196.764 115.351, 188 118.061 M 83.304 132.042 C 76.579 135.526, 62.741 141.697, 58 143.327 C 57.161 143.615, 57.040 143.877, 57.724 143.921 C 58.397 143.964, 60.797 147.713, 63.058 152.250 C 65.318 156.787, 69.477 164.272, 72.300 168.883 L 77.433 177.266 78.270 173.883 C 78.730 172.022, 80.030 168.492, 81.158 166.039 C 83.141 161.725, 93.156 134.826, 94.483 130.250 C 95.471 126.840, 92.394 127.334, 83.304 132.042 M 204.745 224.089 C 203.779 225.146, 202.456 228.007, 201.803 230.446 C 200.698 234.577, 200.888 235.695, 204.558 246.691 L 208.500 258.500 212.745 258.807 C 218.720 259.240, 219.877 256.617, 218.096 246.681 C 217.388 242.732, 216.600 237.475, 216.345 235 C 215.607 227.819, 215.073 226.073, 212.975 223.975 C 210.517 221.517, 207.049 221.565, 204.745 224.089 M 181.224 228.261 C 178.200 231.481, 177.613 237.284, 179.445 245.858 C 181.559 255.748, 183.931 259, 189.033 259 C 193.750 259, 195.567 256.622, 194 252.500 C 193.450 251.054, 193 246.103, 193 241.500 C 193 233.095, 191.896 228.190, 189.687 226.786 C 187.382 225.320, 183.323 226.027, 181.224 228.261 M 152.619 234.433 C 149.613 238.374, 149.353 241.394, 151.558 246.730 C 153.765 252.069, 162.623 259, 167.240 259 C 174.089 259, 174.373 255.158, 168.121 247.064 C 166.606 245.104, 164.081 241.250, 162.507 238.500 C 159.860 233.872, 157.404 231.109, 155.869 231.032 C 155.521 231.014, 154.059 232.545, 152.619 234.433 M 131.455 234.455 C 127.299 238.610, 128.228 243.896, 135.765 258.970 C 137.892 263.223, 141.725 265.537, 145.200 264.665 C 148.949 263.724, 149.112 261.126, 146.069 250.779 C 142.874 239.914, 140.850 235.709, 137.783 233.561 C 134.839 231.498, 134.340 231.569, 131.455 234.455" stroke="none" fill="black" fill-rule="evenodd"/>
</svg>