<svg xmlns="http://www.w3.org/2000/svg" width="300" height="300" viewBox="0 0 300 300" version="1.1">
	<path d="M 217.849 14.670 C 216.941 14.911, 215.732 16.322, 215.163 17.804 C 214.013 20.803, 211.382 33.939, 210.476 41.215 C 209.933 45.570, 209.644 45.973, 206.694 46.489 C 204.937 46.796, 201.250 47.450, 198.501 47.941 C 195.751 48.433, 193.329 48.662, 193.118 48.451 C 192.907 48.240, 193.298 43.801, 193.989 38.586 C 195.394 27.971, 194.939 24.573, 191.895 22.944 C 185.630 19.591, 179.943 28.364, 179.196 42.537 L 178.772 50.573 172.636 52.493 C 168.632 53.746, 165.227 55.660, 162.837 58.002 L 159.174 61.591 156.544 58.295 C 153.042 53.906, 149.240 53.831, 146.090 58.092 C 143.825 61.156, 143.818 61.250, 145.373 68.842 C 148.591 84.561, 151.806 100.702, 152.973 107 C 154.387 114.630, 155.299 116, 158.967 116 C 163.909 116, 165.322 113.117, 164.799 104.097 L 164.339 96.139 171.714 95.448 C 175.771 95.068, 179.231 94.924, 179.404 95.128 C 179.577 95.333, 180.007 96.703, 180.359 98.173 C 180.926 100.538, 180.616 100.972, 177.665 101.946 C 171.838 103.869, 167.081 110.415, 168.960 113.926 C 169.787 115.471, 171.868 115.775, 184.707 116.226 C 209.598 117.100, 226.268 114.572, 229.650 109.412 C 230.450 108.190, 232.094 106.940, 233.303 106.635 C 236.814 105.747, 246.524 95.116, 250.780 87.500 C 258.575 73.550, 260.091 59.741, 254.614 52.561 C 250.724 47.461, 246.187 45.821, 234 45.111 L 223.500 44.500 223.221 30.650 C 223.015 20.411, 222.577 16.434, 221.543 15.400 C 220.773 14.630, 219.998 14.052, 219.821 14.116 C 219.645 14.180, 218.757 14.429, 217.849 14.670 M 75.442 45.765 C 72.330 47.927, 71.286 51.030, 72.341 54.984 C 74.850 64.383, 69.071 75.135, 52.728 91.475 C 45.099 99.102, 41.750 103.155, 41.750 104.758 C 41.750 107.590, 44.676 111, 47.106 111 C 48.095 111, 53.087 107.853, 58.201 104.007 C 63.929 99.699, 67.654 97.491, 67.900 98.257 C 68.578 100.366, 70.300 100.969, 75.691 100.985 C 78.546 100.993, 81.153 101.439, 81.485 101.975 C 81.816 102.511, 80.210 104.987, 77.916 107.475 C 74.138 111.574, 73.802 112.357, 74.349 115.783 L 74.954 119.566 66.800 120.849 C 54.680 122.756, 50 125.939, 50 132.274 C 50 137.661, 59.538 139.251, 69.221 135.479 C 70.799 134.864, 70.823 135.047, 69.507 137.686 C 68.413 139.879, 66.070 154.251, 66.008 159.150 C 66 159.765, 59.733 161.376, 53.789 162.290 C 50.746 162.759, 51.085 163.976, 48.970 145 C 47.218 129.285, 42.876 123.970, 36.775 130.071 L 33.710 133.136 34.462 142.318 C 34.876 147.368, 35.539 155.325, 35.935 160 C 36.452 166.102, 36.314 168.923, 35.446 170 C 32.767 173.322, 32.714 176.089, 35.275 178.844 C 37.366 181.092, 37.841 182.832, 38.372 190.167 C 38.717 194.933, 39.248 199.483, 39.552 200.276 C 40.393 202.467, 44.499 204.294, 46.882 203.537 C 50.324 202.445, 51.470 199.088, 52 188.547 L 52.500 178.593 58.226 177.106 C 61.375 176.287, 64.218 175.885, 64.544 176.211 C 65.265 176.931, 63.674 185.874, 61.487 193.397 C 60.179 197.895, 59.206 199.316, 56.192 201.129 C 51.401 204.010, 46 209.773, 46 212.003 C 46 212.967, 46.565 214.224, 47.256 214.797 C 50.334 217.352, 53.849 217.109, 64.116 213.634 C 69.827 211.701, 78.550 209.138, 83.500 207.939 C 99.560 204.049, 105.731 199.890, 104.716 193.640 C 104.190 190.398, 104.435 190.029, 108.986 187.200 C 115.202 183.335, 120.343 175.705, 123.606 165.500 C 128.133 151.339, 128.955 130.768, 125.279 123.599 C 123.360 119.854, 118.154 115.093, 115.145 114.328 C 112.150 113.568, 91.156 114.535, 88.500 115.556 C 87.400 115.979, 89.538 113.145, 93.250 109.260 C 100.259 101.924, 101.154 99.626, 98.915 94.712 C 96.446 89.293, 87.445 87.457, 77.713 90.386 L 73.107 91.772 76.976 86.636 C 84.761 76.302, 89.774 62.539, 88.500 54.998 C 87.330 48.075, 79.792 42.745, 75.442 45.765 M 222.655 60.750 C 222.391 61.712, 221.895 64.300, 221.553 66.500 C 221.211 68.700, 220.685 71.745, 220.383 73.266 C 219.855 75.927, 219.933 75.988, 222.417 74.856 C 223.838 74.209, 225 73.076, 225 72.339 C 225 70.518, 229.052 70.647, 231.777 72.557 C 237.239 76.382, 232.504 84.783, 223.089 87.970 C 217.954 89.708, 217.585 90.071, 215.349 95.565 C 214.058 98.739, 213.206 101.539, 213.455 101.789 C 213.705 102.038, 216.404 101.930, 219.454 101.549 C 223.076 101.096, 225 100.392, 225 99.517 C 225 98.780, 226.244 97.125, 227.764 95.839 C 234.472 90.162, 242.313 73.970, 242.431 65.551 C 242.513 59.682, 241.717 59.258, 230.317 59.100 C 224.275 59.016, 223.059 59.278, 222.655 60.750 M 198.750 62.308 L 192 63.315 192 71.274 L 192 79.233 198.750 78.513 C 205.664 77.775, 206.951 76.992, 206.993 73.500 C 207.007 72.400, 207.301 69.138, 207.648 66.250 C 208.147 62.098, 207.988 61.031, 206.889 61.151 C 206.125 61.233, 202.463 61.754, 198.750 62.308 M 159.030 65.590 C 158.998 66.758, 162.838 82.191, 163.252 82.557 C 163.389 82.677, 166.875 82.264, 171 81.638 L 178.500 80.500 178.795 73.168 C 179.064 66.512, 178.926 65.885, 177.295 66.368 C 176.308 66.660, 172.290 67.200, 168.366 67.568 C 162.042 68.160, 161.108 68.023, 160.146 66.368 C 159.549 65.341, 159.047 64.991, 159.030 65.590 M 195.250 93.723 C 192.219 94.100, 192 94.385, 192 97.956 C 192 102.267, 193.019 103, 199.015 103 C 202.570 103, 202.860 102.788, 202.788 100.245 C 202.745 98.730, 203.030 96.480, 203.422 95.245 C 204.187 92.835, 203.476 92.703, 195.250 93.723 M 93 130.032 C 88.875 131.068, 84.338 131.935, 82.917 131.958 C 79.266 132.017, 78.814 132.891, 81.159 135.356 C 82.994 137.285, 83.154 138.462, 82.758 147.103 L 82.318 156.707 86.409 155.696 C 88.659 155.140, 91.388 154.081, 92.473 153.343 C 95.334 151.395, 97.669 151.690, 99.443 154.223 C 103.320 159.757, 99.173 165.676, 89.437 168.505 C 78.869 171.575, 79.001 171.477, 78.988 176.229 C 78.978 179.881, 77.856 185.074, 75.276 193.403 C 74.746 195.115, 75.078 195.243, 78.593 194.678 C 80.742 194.333, 86.418 192.796, 91.206 191.262 C 98.325 188.983, 99.740 188.203, 98.971 186.987 C 97.312 184.364, 97.918 182.288, 101.637 177.845 C 103.638 175.455, 106.046 171.700, 106.989 169.500 C 109.162 164.427, 113.476 137.034, 112.632 133.670 C 111.099 127.563, 106.338 126.680, 93 130.032 M 196.500 131.080 C 193.750 131.544, 186.122 132.423, 179.549 133.032 C 172.976 133.642, 166.114 134.761, 164.299 135.519 C 161.463 136.704, 161 137.387, 161 140.376 C 161 142.943, 161.691 144.398, 163.635 145.927 C 165.892 147.703, 167.670 148, 176.035 148 C 181.470 148, 191.056 147.076, 197.651 145.917 C 204.168 144.772, 211.975 143.509, 215 143.111 C 224.812 141.820, 228.446 138.256, 225.330 132.981 L 223.569 130 212.534 130.118 C 206.465 130.182, 199.250 130.615, 196.500 131.080 M 200 152.656 C 198.625 152.867, 193.331 153.965, 188.235 155.095 C 179.630 157.004, 178.792 157.412, 176.485 160.808 C 175.118 162.819, 174 165.105, 174 165.887 C 174 166.989, 173.548 166.901, 172 165.500 C 170.900 164.505, 170 163.250, 170 162.711 C 170 161.478, 164.860 157.003, 163.441 157.001 C 161.215 156.999, 158.801 159.734, 158.104 163.049 C 156.787 169.319, 158.669 173.352, 167.138 182.404 C 171.506 187.073, 174.587 191.137, 174.022 191.486 C 172.387 192.497, 172.840 195.882, 174.838 197.593 C 176.622 199.121, 176.622 199.331, 174.838 204.739 C 173.454 208.934, 173 213.360, 173 222.652 L 173 234.994 176.616 238.997 C 180.859 243.693, 183.958 244.133, 187.545 240.545 C 190.531 237.560, 190.649 235.320, 187.973 232.471 C 186.036 230.410, 185.980 229.579, 186.723 213.951 L 187.500 197.590 192.500 195.707 C 195.250 194.671, 200.102 192.971, 203.283 191.929 C 212.301 188.975, 213 188.421, 213.004 184.215 C 213.007 180.741, 213.307 180.377, 217.613 178.606 C 223.271 176.279, 229.605 170.421, 230.555 166.638 C 230.953 165.052, 230.719 162.177, 230.018 160.056 C 228.126 154.323, 222.519 151.960, 211.223 152.136 C 206.425 152.211, 201.375 152.445, 200 152.656 M 193 169.093 C 188.325 170.160, 182.839 171.306, 180.808 171.640 C 177.334 172.212, 177.195 172.373, 178.447 174.374 C 179.178 175.543, 180.312 178.188, 180.966 180.250 C 182.254 184.311, 183.315 184.640, 188.757 182.666 C 190.829 181.915, 192.649 180.225, 193.757 178.022 C 195.051 175.452, 196.660 174.143, 200 172.945 C 202.475 172.056, 206.075 170.357, 208 169.169 L 211.500 167.007 206.500 167.080 C 203.750 167.120, 197.675 168.026, 193 169.093 M 213.800 187.750 C 208.814 192.936, 205 198.866, 205 201.433 C 205 203.624, 201.344 217.432, 198.363 226.500 C 194.453 238.394, 184.495 254.105, 180 255.471 C 176.885 256.418, 157.475 259, 153.470 259 C 150.421 259, 148.577 259.663, 146.646 261.452 C 145.191 262.801, 144 264.341, 144 264.875 C 144 265.409, 145.440 267.287, 147.201 269.047 L 150.402 272.248 162.951 271.545 C 169.853 271.159, 181.575 269.974, 189 268.912 C 208.100 266.180, 239.215 264.673, 261.806 265.385 C 282.090 266.024, 285.847 265.447, 287.379 261.455 C 289.230 256.632, 285.867 251.929, 280.714 252.135 C 278.946 252.206, 269.284 251.708, 259.243 251.030 C 243.476 249.965, 238.566 250.019, 223.243 251.427 C 213.484 252.324, 203.925 253.333, 202 253.670 C 198.657 254.255, 198.570 254.198, 200.068 252.391 C 207.283 243.686, 214.856 225.044, 220.495 202.103 C 223.249 190.899, 223.266 190.650, 221.491 187.353 C 220.498 185.509, 219.172 184, 218.545 184 C 217.919 184, 215.783 185.688, 213.800 187.750 M 107 230.289 C 104.935 231.329, 104.446 232.389, 104.191 236.385 C 103.793 242.602, 107.406 248.224, 113.619 251.054 C 119.009 253.510, 121.232 253.507, 123.464 251.040 C 125.609 248.670, 124.872 244.412, 122.168 243.553 C 121.164 243.235, 117.996 239.830, 115.130 235.987 C 112.263 232.144, 109.824 229.007, 109.709 229.015 C 109.594 229.023, 108.375 229.596, 107 230.289 M 84.217 232.561 C 75.654 238.558, 78.524 254.108, 88.715 256.938 C 93.703 258.323, 93.395 258.380, 96.923 255.411 C 98.755 253.870, 100 251.869, 100 250.468 C 100 247.938, 96.545 244.854, 94.563 245.614 C 92.980 246.222, 91 241.773, 91 237.608 C 91 235.683, 90.239 233.621, 89.171 232.655 C 86.938 230.634, 86.967 230.634, 84.217 232.561 M 52.750 237.115 C 50.396 238.871, 50 239.881, 50 244.120 C 50 248.803, 50.317 249.399, 55.799 255.037 C 60.995 260.380, 62.018 261, 65.639 261 C 68.918 261, 69.882 260.554, 70.758 258.632 C 71.684 256.599, 71.338 255.573, 68.315 251.382 C 66.379 248.697, 63.979 244.640, 62.982 242.367 C 61.426 238.816, 57.741 234.929, 56.027 235.032 C 55.737 235.049, 54.263 235.987, 52.750 237.115 M 10.563 242.934 C 8.224 245.375, 7.858 246.430, 8.381 249.218 C 9.313 254.186, 10.969 256.006, 20.211 262.219 C 30.665 269.248, 33.285 270.020, 36.483 267.016 C 37.855 265.727, 38.637 264.094, 38.337 263.144 C 37.235 259.650, 35.616 257, 34.581 256.994 C 32.933 256.986, 22.220 246.327, 20.482 242.966 C 18.409 238.957, 14.386 238.944, 10.563 242.934" stroke="none" fill="black" fill-rule="evenodd"/>
</svg>