<svg xmlns="http://www.w3.org/2000/svg" width="300" height="300" viewBox="0 0 300 300" version="1.1">
	<path d="M 193.455 23.455 C 191.005 25.904, 191 25.952, 191 46.808 L 191 67.707 179.750 68.846 C 173.563 69.473, 165.030 70.278, 160.790 70.636 C 152.103 71.369, 148.741 73.623, 148.762 78.698 C 148.768 80.239, 148.371 82.263, 147.880 83.196 C 147.277 84.342, 147.675 86.616, 149.105 90.196 C 153.391 100.931, 155.151 132.928, 152.917 159.500 C 151.415 177.358, 145.811 205.605, 140.318 223 C 137.800 230.975, 135.393 237.950, 134.968 238.500 C 134.543 239.050, 133.703 241.343, 133.101 243.596 C 132.499 245.849, 130.542 249.628, 128.753 251.995 C 126.964 254.362, 125.067 256.883, 124.538 257.596 C 123.922 258.429, 123.928 259.900, 124.557 261.697 C 125.345 263.953, 126.225 264.558, 129.065 264.798 C 131.967 265.044, 133.243 264.466, 136.249 261.547 C 142.956 255.033, 149.888 240.076, 156.895 217 C 158.648 211.225, 160.467 203.800, 160.936 200.500 C 161.405 197.200, 162.343 191.700, 163.019 188.278 L 164.249 182.055 166.972 184.970 C 168.470 186.574, 170.910 188.190, 172.394 188.563 C 175.168 189.259, 183.945 188.660, 187.503 187.531 C 189.465 186.909, 189.490 187.170, 188.718 200.198 C 187.967 212.861, 188.395 229.733, 189.644 236.750 C 190.215 239.956, 190.170 240, 186.361 239.999 C 183.141 239.999, 174.961 241.269, 163.279 243.584 C 162.057 243.826, 160.559 244.956, 159.949 246.095 C 156.602 252.349, 169.387 254.597, 199 252.962 C 220.676 251.765, 223.607 251.876, 256 255.126 C 283.541 257.888, 291 256.832, 291 250.168 C 291 244.441, 289.271 243.556, 276.833 242.921 C 270.600 242.602, 256.473 241.494, 245.440 240.457 L 225.381 238.574 227.703 229.037 C 229.598 221.258, 231.912 199.834, 231.985 189.395 C 231.998 187.537, 232.756 187.219, 238.425 186.689 C 250.352 185.575, 257.756 180.435, 259.028 172.384 C 260.046 165.949, 258.687 153.697, 256.603 150.517 C 254.370 147.109, 250.740 146.355, 247.644 148.657 C 244.727 150.825, 243.878 154.087, 245.111 158.387 C 247.535 166.840, 245.709 170.915, 238.316 173.551 C 232.032 175.792, 232.194 176.069, 232.258 163.239 C 232.320 150.595, 231.258 146.971, 227.509 147.033 C 226.404 147.052, 224.478 147.919, 223.230 148.960 C 218.494 152.910, 217.994 156.141, 217.386 186.770 C 216.838 214.392, 215.223 232.847, 212.988 237.023 C 212.184 238.525, 210.889 239, 207.601 239 L 203.272 239 202.623 227.750 C 202.265 221.563, 202.438 208.175, 203.005 198 C 205.757 148.677, 205.736 148, 201.459 148 C 198.386 148, 193.880 154.577, 192.051 161.734 C 191.381 164.355, 190.438 167.494, 189.956 168.709 C 188.932 171.291, 182.202 175, 178.540 175 C 176.313 175, 176 174.577, 176 171.565 C 176 169.676, 176.480 166.868, 177.066 165.326 C 178.494 161.571, 177.478 156.780, 174.917 155.180 C 173.173 154.091, 172.446 154.133, 170.452 155.440 C 169.142 156.298, 167.781 157, 167.427 157 C 167.073 157, 167.102 148.787, 167.492 138.750 C 168.454 113.968, 167.232 106.268, 159.502 88.376 L 158.152 85.251 162.826 84.607 C 165.397 84.253, 172.714 83.681, 179.087 83.337 L 190.675 82.710 189.122 90.332 C 187.707 97.283, 187.312 98.044, 184.636 98.977 C 183.022 99.540, 179.979 100, 177.874 100 C 174.940 100, 173.680 100.559, 172.477 102.394 C 168.945 107.785, 173.771 113, 182.292 113 C 186.583 113, 186.712 113.096, 187.941 117.197 C 189.757 123.258, 193.366 127.493, 197.863 128.841 C 207.170 131.629, 220.550 129.177, 226.465 123.598 C 229.765 120.485, 229.868 120.180, 228.791 116.671 C 227.811 113.476, 227.265 113.002, 224.582 113.012 C 222.887 113.018, 219.025 113.688, 216 114.500 C 206.468 117.059, 201.991 116.186, 200.615 111.500 C 200.126 109.837, 201.125 108.932, 206.536 106.129 C 216.463 100.988, 219.580 95.737, 214.629 92.492 C 212.613 91.172, 211.568 91.123, 207.661 92.168 C 205.133 92.844, 202.915 93.196, 202.733 92.949 C 202.550 92.702, 202.575 89.954, 202.788 86.843 L 203.174 81.186 214.337 80.520 C 220.477 80.153, 229.550 79.999, 234.500 80.177 L 243.500 80.500 235.750 88.194 C 227.648 96.237, 226.356 99.213, 229.571 102.429 C 232.472 105.329, 236.171 104.135, 244.940 97.466 C 259.389 86.477, 264.412 75.642, 257.933 69.437 L 254.866 66.500 229.095 66.500 L 203.323 66.500 204.138 63 C 204.586 61.075, 204.963 57.635, 204.976 55.356 L 205 51.213 209.245 52.166 C 217.219 53.958, 228.901 51.422, 231.034 47.436 C 232.262 45.142, 232.143 44.688, 229.667 42.212 C 227.050 39.596, 226.572 39.500, 216.094 39.500 L 205.233 39.500 204.764 32.939 C 203.975 21.915, 199.090 17.819, 193.455 23.455 M 81.250 36.944 C 80.013 37.976, 79 39.134, 79 39.516 C 79 42.016, 66.507 55.275, 56.017 63.908 C 49.331 69.410, 45 74.428, 45 76.671 C 45 77.377, 46.103 78.677, 47.451 79.560 C 50.455 81.528, 52.931 80.875, 59 76.511 C 64.828 72.321, 72.687 68, 74.480 68 C 75.255 68, 77.059 69.013, 78.490 70.250 L 81.091 72.500 77.295 76.947 C 75.208 79.393, 71.910 83.218, 69.968 85.447 C 64.490 91.731, 61.006 97.370, 60.941 100.054 C 60.893 102.055, 59.718 103.056, 54.482 105.556 L 48.082 108.612 46.956 105.893 C 45.614 102.653, 41.798 101.427, 37.979 103.009 C 35.551 104.014, 35.207 104.776, 34.711 110.251 C 34.159 116.333, 35.059 135.549, 36.969 158.500 C 37.519 165.100, 37.975 174.180, 37.984 178.679 C 38 187.067, 39.198 190, 42.607 190 C 43.780 190, 43.849 190.413, 42.955 192.083 C 42.061 193.755, 42.198 194.561, 43.649 196.164 C 46.032 198.797, 50.342 198.373, 68.500 193.715 C 76.200 191.740, 85.425 189.556, 89 188.862 C 94.793 187.737, 96.077 187.024, 100.800 182.315 C 110.502 172.639, 114.011 160.554, 114.738 134.302 C 115.321 113.266, 115.016 110.877, 110.976 104.777 C 105.398 96.356, 93.725 94.233, 77 98.599 C 75.127 99.088, 76.786 96.899, 83.609 89.876 C 95.024 78.128, 96 76.638, 96 70.965 C 96 65.745, 93.220 62.354, 87 59.987 C 85.075 59.254, 83.342 58.537, 83.149 58.393 C 82.956 58.249, 83.895 56.639, 85.235 54.816 C 86.576 52.992, 88.829 49.466, 90.243 46.981 C 92.566 42.897, 92.689 42.166, 91.518 39.381 C 89.535 34.664, 85.212 33.638, 81.250 36.944 M 83.004 111.524 C 73.622 113.620, 73.873 113.439, 75.575 116.850 C 76.385 118.473, 77.322 123.369, 77.659 127.731 L 78.270 135.661 85.885 133.838 C 95.449 131.549, 95.503 131.551, 97.961 134.189 L 100 136.377 100 124.811 C 100 116.543, 99.629 112.937, 98.700 112.166 C 96.446 110.295, 89.734 110.020, 83.004 111.524 M 52.220 115.726 L 48.939 116.131 49.606 130.816 C 49.973 138.892, 50.446 145.697, 50.657 145.937 C 50.868 146.178, 53.905 144.844, 57.406 142.974 L 63.771 139.573 63.639 132.036 C 63.522 125.386, 63.829 124.003, 66.253 120.270 C 67.764 117.943, 69 115.806, 69 115.520 C 69 114.945, 57.380 115.088, 52.220 115.726 M 96.347 142.966 C 94.612 144.524, 90.112 146.771, 86.347 147.959 L 79.500 150.120 79.500 159.310 C 79.500 164.364, 79.166 170.360, 78.757 172.634 L 78.013 176.769 84.757 176.229 C 89.239 175.870, 91.915 175.154, 92.738 174.095 C 95.762 170.200, 100.750 147.822, 99.841 142.231 C 99.513 140.215, 99.378 140.243, 96.347 142.966 M 58 155.859 L 51.500 157.500 50.792 170.959 C 50.403 178.362, 50.195 184.528, 50.329 184.662 C 50.463 184.796, 53.048 183.690, 56.073 182.203 C 59.098 180.716, 62.682 179.050, 64.037 178.500 C 66.462 177.516, 66.497 177.330, 66.296 166.596 C 66.184 160.599, 65.734 155.361, 65.296 154.955 C 64.858 154.550, 61.575 154.957, 58 155.859 M 105.452 208.646 C 103.665 210.574, 103.006 212.405, 103.022 215.396 C 103.045 219.636, 106.190 227.865, 108.301 229.207 C 110.873 230.842, 114.863 229.990, 116.927 227.365 C 119.388 224.237, 119.528 222.683, 117.500 221 C 116.675 220.315, 116 218.302, 116 216.527 C 116 211.561, 114.133 207.270, 111.687 206.614 C 108.352 205.719, 108.083 205.807, 105.452 208.646 M 85.160 210.058 C 81.217 214.290, 81.801 222.972, 86.375 228.137 C 91.204 233.591, 95.702 234.389, 99.605 230.486 C 102.871 227.220, 102.702 221.027, 99.306 219.537 C 98.099 219.007, 96.328 216.837, 95.371 214.714 C 93.627 210.847, 90.636 208, 88.316 208 C 87.635 208, 86.215 208.926, 85.160 210.058 M 55.733 218.750 C 51.249 223.726, 53.278 231.330, 60.159 235.336 C 67.727 239.742, 72.881 239.959, 75.020 235.963 C 75.862 234.390, 75.215 233.136, 71.269 228.691 C 68.646 225.737, 65.733 221.898, 64.797 220.160 C 63.489 217.735, 62.421 217, 60.201 217 C 58.611 217, 56.600 217.787, 55.733 218.750 M 27.655 222.829 C 25.405 225.315, 25.572 230.186, 28.013 233.289 C 31.084 237.194, 44.273 240.994, 47.941 239.031 C 49.987 237.936, 50.644 234.547, 49.235 232.361 C 47.804 230.142, 33.469 221.014, 31.405 221.007 C 30.253 221.003, 28.565 221.823, 27.655 222.829" stroke="none" fill="black" fill-rule="evenodd"/>
</svg>