<svg xmlns="http://www.w3.org/2000/svg" width="300" height="300" viewBox="0 0 300 300" version="1.1">
	<path d="M 82.229 20.250 C 81.671 20.938, 78.703 26.675, 75.635 33 C 66.842 51.126, 57.028 65.429, 48.900 71.960 C 45.565 74.640, 44.939 75.702, 45.194 78.242 C 45.362 79.923, 46.293 81.794, 47.263 82.399 C 50.791 84.602, 67.099 73.348, 73.060 64.596 C 74.402 62.626, 75.795 61.011, 76.155 61.007 C 76.516 61.003, 78.696 62.575, 81 64.500 C 83.304 66.425, 85.822 68, 86.595 68 C 87.368 68, 88 68.387, 88 68.859 C 88 69.867, 81.507 77.472, 74.808 84.310 C 72.217 86.956, 69.820 89.993, 69.481 91.060 C 69.142 92.127, 68.056 93, 67.067 93 C 63.671 93, 60 96.877, 60 100.466 C 60 104.624, 60.952 105, 71.484 105 L 79.804 105 77.242 110.143 C 75.360 113.918, 74.522 117.533, 74.089 123.740 L 73.500 132.196 66.227 134.498 C 62.228 135.764, 57.953 137.446, 56.727 138.235 C 55.502 139.025, 53.487 139.928, 52.250 140.242 L 50 140.813 50 120.861 C 50 101.011, 49.987 100.897, 47.545 98.455 C 44.434 95.343, 40.498 95.252, 38.785 98.250 C 37.796 99.983, 37.500 109.968, 37.500 141.677 C 37.500 181.948, 37.546 182.917, 39.600 185.677 C 40.756 187.230, 42.768 188.657, 44.072 188.849 C 45.376 189.040, 47.344 189.828, 48.444 190.599 C 49.545 191.369, 51.807 191.995, 53.473 191.988 C 56.820 191.975, 69.585 189.007, 76.231 186.695 C 78.579 185.879, 82.975 184.486, 86 183.600 C 106.036 177.734, 109.672 176.419, 111.833 174.258 C 113.524 172.567, 114.022 171.225, 113.593 169.516 C 113.083 167.482, 113.398 167.087, 115.748 166.817 C 118.108 166.545, 118.759 165.717, 120.322 161 C 124.471 148.472, 125.260 102.621, 121.460 94.780 C 118.627 88.931, 112.663 86.592, 102.500 87.343 C 98.100 87.668, 92.475 88.235, 90 88.602 L 85.500 89.270 93.666 80.844 C 99.951 74.358, 101.995 71.545, 102.542 68.629 C 103.793 61.960, 99.970 57.702, 91.244 56.045 C 88.635 55.549, 85.266 54.674, 83.757 54.099 L 81.015 53.055 87.007 41.404 C 90.303 34.995, 93 28.519, 93 27.011 C 93 21.155, 85.380 16.372, 82.229 20.250 M 249.577 31.578 C 247.420 32.368, 241.795 33.274, 237.077 33.591 C 232.360 33.907, 221.975 35.009, 214 36.039 C 206.025 37.069, 190.050 38.211, 178.500 38.578 C 152.299 39.411, 147.803 40.882, 150.871 47.616 C 152.915 52.102, 157.827 53.256, 171.934 52.563 C 198.545 51.256, 242.537 46.692, 250.707 44.391 C 258.961 42.067, 262.483 35.888, 257.847 31.867 C 255.333 29.687, 254.790 29.668, 249.577 31.578 M 141.653 49.084 C 140.414 50.854, 140.172 60.858, 140.054 115.334 C 139.915 179.198, 139.794 182.296, 135.995 219 C 135.511 223.675, 134.675 229.975, 134.137 233 C 131.736 246.507, 130.659 263.676, 131.842 269.569 C 134.151 281.064, 138.473 283.188, 160.793 283.794 C 177.113 284.238, 181.152 283.927, 223 279.005 C 267.395 273.783, 274.935 272.994, 280.500 272.982 C 283.800 272.976, 287.625 272.404, 289 271.712 C 292.404 269.999, 292.897 265.120, 289.936 262.449 C 287.976 260.682, 286.455 260.524, 273.637 260.757 C 265.862 260.899, 252.750 261.876, 244.500 262.930 C 202.276 268.321, 185.354 270.025, 168 270.629 C 149.449 271.276, 145.007 270.520, 143.661 266.486 C 142.520 263.065, 143.936 245.272, 147.002 224.500 C 148.057 217.350, 149.206 206.244, 149.554 199.820 C 150.046 190.766, 150.561 187.813, 151.844 186.687 C 152.958 185.710, 156.939 185.046, 164 184.661 C 169.775 184.347, 175.757 183.788, 177.293 183.420 L 180.086 182.750 175.543 191.580 C 170.147 202.066, 169.891 205.199, 174.020 210.208 C 177.127 213.978, 185.654 218, 190.538 218 C 191.892 218, 193 218.382, 193 218.850 C 193 221.389, 184.682 230.366, 174.631 238.674 C 171.678 241.115, 171.371 242.757, 173.358 245.476 C 175.352 248.201, 180.200 247.783, 185.638 244.417 C 189.873 241.794, 202.970 228.075, 205.501 223.608 C 206.451 221.932, 206.915 221.954, 214.501 224.035 C 218.901 225.241, 224.069 226.896, 225.987 227.711 C 231.677 230.130, 239.310 230.548, 241.308 228.549 C 244.299 225.558, 243.409 221.817, 238.578 217.077 C 234.863 213.430, 233.704 212.831, 231.328 213.325 C 228.095 213.998, 214 210.247, 214 208.714 C 214 208.167, 214.891 205.870, 215.980 203.610 C 217.069 201.349, 219.947 194.775, 222.374 189 L 226.787 178.500 236.794 178 C 244.762 177.602, 247.228 177.112, 248.900 175.595 C 251.422 173.307, 251.529 171.736, 249.385 168.465 C 247.878 166.165, 247.200 166, 239.278 166 C 231.575 166, 230.855 165.837, 231.527 164.250 C 232.818 161.204, 233.879 153.719, 233.940 147.229 C 233.995 141.502, 233.785 140.859, 231.530 139.832 C 228.065 138.253, 226.589 139.790, 225.076 146.553 C 224.389 149.620, 222.314 155.191, 220.465 158.933 L 217.103 165.737 208.801 166.240 C 204.236 166.517, 200.435 166.689, 200.357 166.622 C 200.278 166.555, 201.039 163.350, 202.049 159.500 C 204.396 150.550, 204.657 135.790, 202.500 134 C 201.675 133.315, 201 132.442, 201 132.059 C 201 131.676, 206.063 130.086, 212.250 128.525 C 218.438 126.964, 224.625 125.145, 226 124.481 C 227.375 123.817, 228.994 123.452, 229.599 123.670 C 230.203 123.888, 231.919 123.601, 233.414 123.033 C 238.184 121.219, 242.410 110.138, 244.934 92.822 C 246.111 84.748, 246.790 76.873, 246.443 75.322 C 245.164 69.601, 242.780 65.886, 238.758 63.347 C 234.253 60.503, 234.129 60.501, 207.866 62.878 C 198.825 63.696, 192.814 65.674, 190.781 68.500 C 190.312 69.151, 189.356 69.063, 188.044 68.250 C 182.096 64.563, 177.293 68.793, 178.357 76.781 C 178.703 79.377, 179.419 84.706, 179.950 88.625 C 180.480 92.544, 182.274 101.294, 183.937 108.070 C 186.945 120.328, 186.950 120.398, 184.980 122.233 C 181.170 125.783, 183.232 131.030, 189 132.467 C 191.466 133.082, 191.496 133.214, 191.230 142.295 C 190.947 151.921, 187.487 167.968, 185.582 168.485 C 183.134 169.150, 155.321 173.037, 153.143 173.019 C 151.454 173.005, 150.950 172.571, 151.367 171.487 C 151.686 170.655, 151.985 143.241, 152.031 110.566 C 152.110 54.979, 152.001 51.024, 150.336 49.079 C 148.018 46.372, 143.551 46.375, 141.653 49.084 M 217 75.488 C 211.225 76.158, 203.254 77.311, 199.286 78.051 L 192.072 79.395 192.697 85.447 C 193.041 88.776, 193.588 92.506, 193.912 93.735 C 194.453 95.783, 194.716 95.860, 197.050 94.649 C 198.451 93.922, 203.175 93.051, 207.549 92.714 C 211.922 92.377, 218.321 91.222, 221.770 90.149 C 225.218 89.076, 228.865 88.413, 229.874 88.677 C 231.469 89.095, 231.782 88.336, 232.281 82.842 C 232.879 76.247, 232.027 73.895, 229.128 74.135 C 228.232 74.209, 222.775 74.818, 217 75.488 M 95.657 101.058 C 88.924 101.840, 86.304 102.846, 88.737 103.716 C 89.676 104.051, 89.820 107.036, 89.334 116.079 C 88.613 129.488, 88.413 129.177, 96 126.500 C 104.443 123.521, 109 125.028, 109 130.798 C 109 133.353, 103.117 137.235, 95 140.037 C 91.425 141.270, 88.169 142.780, 87.765 143.390 C 87.361 144.001, 87.024 146.421, 87.015 148.769 C 87 153.109, 82.984 166.109, 80.874 168.652 C 80.236 169.420, 79.922 170.255, 80.175 170.508 C 80.617 170.950, 91.691 168.883, 99 166.995 C 100.925 166.498, 103.707 165.844, 105.183 165.543 C 107.322 165.106, 107.859 164.439, 107.830 162.248 C 107.811 160.736, 108.315 156.366, 108.951 152.536 C 110.055 145.882, 110.295 107.110, 109.262 102.250 C 108.728 99.741, 107.738 99.654, 95.657 101.058 M 226.223 102.145 C 222.672 104.405, 202.226 107.395, 197.957 106.278 C 195.751 105.702, 195.702 105.840, 196.311 110.978 C 196.656 113.889, 197.064 116.376, 197.219 116.504 C 197.584 116.806, 208.242 115.115, 219 113.048 L 227.500 111.414 228.792 107.499 C 229.503 105.346, 229.953 102.791, 229.792 101.821 C 229.521 100.187, 229.261 100.211, 226.223 102.145 M 70.818 147.515 C 69.686 148.647, 58.635 151, 54.451 151 L 50 151 50 167 C 50 175.800, 50.234 183, 50.520 183 C 50.806 183, 52.718 181.960, 54.770 180.689 C 56.821 179.417, 59.850 177.810, 61.500 177.117 C 65.974 175.237, 70.896 164.096, 73.370 150.250 C 73.781 147.944, 73.570 147, 72.642 147 C 71.922 147, 71.101 147.232, 70.818 147.515 M 203.500 180.138 C 199.650 180.626, 196.145 181.137, 195.712 181.275 C 195.278 181.413, 192.708 186.150, 190 191.801 C 185.125 201.974, 185.098 202.086, 187.288 202.911 C 196.649 206.438, 200.796 206.825, 201.628 204.250 C 202.187 202.521, 203.109 200.311, 206.531 192.500 C 209.594 185.510, 211.850 178.996, 211.164 179.126 C 210.799 179.196, 207.350 179.651, 203.500 180.138 M 106.405 199.105 C 104.960 200.701, 104.505 202.695, 104.521 207.355 C 104.538 212.428, 105.204 214.838, 108.334 221.167 C 112.242 229.070, 113.247 230, 117.882 230 C 122.790 230, 124.606 225.449, 121.587 220.715 C 120.811 219.497, 119.186 214.784, 117.976 210.243 C 114.703 197.952, 110.826 194.220, 106.405 199.105 M 84.306 205.750 C 83.031 206.865, 81.848 209.937, 81.045 214.219 C 79.473 222.601, 80.868 229.577, 85.001 234.001 C 90.488 239.875, 101.773 236.986, 98.804 230.468 C 98.228 229.204, 96.960 227.961, 95.987 227.707 C 94.103 227.214, 92 219.772, 92 213.600 C 92 208.660, 90.085 204, 88.055 204 C 87.093 204, 85.406 204.787, 84.306 205.750 M 53.039 218.189 C 51.918 219.392, 51 221.432, 51 222.721 C 51 231.451, 64.295 245.053, 69.898 242.055 C 73.177 240.300, 72.913 237.577, 68.867 231.423 C 66.740 228.189, 65 225.059, 65 224.467 C 65 222.725, 58.372 216, 56.654 216 C 55.787 216, 54.160 216.985, 53.039 218.189 M 20.655 232.829 C 19.683 233.902, 19 236.345, 19 238.744 C 19 242.337, 19.546 243.311, 23.525 246.813 C 29.870 252.398, 34.586 254.510, 37.622 253.126 C 41.122 251.532, 40.802 247.137, 36.916 243.437 C 35.219 241.822, 32.256 238.363, 30.330 235.750 C 26.504 230.558, 23.524 229.659, 20.655 232.829" stroke="none" fill="black" fill-rule="evenodd"/>
</svg>