<svg xmlns="http://www.w3.org/2000/svg" width="300" height="300" viewBox="0 0 300 300" version="1.1">
	<path d="M 198.526 12.950 C 197.687 14.573, 197 17.316, 197 19.046 C 197 20.777, 196.312 24.560, 195.470 27.454 L 193.941 32.716 183.720 33.246 C 173.266 33.789, 148.499 38.405, 146.250 40.230 C 144.364 41.761, 144.749 45.749, 147 48 C 148.638 49.638, 150.333 50, 156.364 50 C 160.413 50, 165.926 49.591, 168.614 49.092 C 171.301 48.593, 177.325 47.873, 182 47.493 L 190.500 46.801 190.172 53.795 L 189.844 60.789 184.172 61.475 C 178.035 62.218, 165.651 66.260, 162.629 68.507 C 160.022 70.445, 161.223 74.547, 164.965 76.482 C 168.682 78.404, 174.005 78.410, 181.339 76.500 C 189.784 74.300, 190.279 74.406, 189.503 78.250 C 188.170 84.856, 185.801 89.819, 183.649 90.513 C 182.467 90.894, 171.217 91.438, 158.649 91.722 L 135.797 92.239 132.399 95.223 C 128.482 98.662, 127.598 104.295, 130.750 105.722 C 133.805 107.106, 172.725 106.377, 185.500 104.697 C 203.553 102.323, 234.110 101.539, 250.831 103.020 C 266.512 104.410, 268 104.057, 268 98.950 C 268 95.292, 264.733 92.763, 256.196 89.814 C 249.983 87.667, 247.914 87.501, 227.500 87.511 C 215.400 87.517, 204.119 87.827, 202.431 88.200 L 199.362 88.878 200.931 80.939 L 202.500 73 208.500 72.992 C 214.588 72.985, 225.928 70.135, 228.558 67.952 C 230.412 66.413, 230.351 63.048, 228.423 60.500 C 227.043 58.676, 225.946 58.528, 215.955 58.818 L 205 59.136 205.015 54.318 C 205.024 51.668, 205.361 49.003, 205.765 48.396 C 206.231 47.696, 213.004 47.086, 224.242 46.732 C 243.769 46.116, 248.095 44.993, 250.965 39.796 C 252.339 37.309, 252.291 36.867, 250.370 34.296 L 248.282 31.500 228.141 31.865 L 208 32.230 208 24.065 C 208 14.395, 206.281 10, 202.500 10 C 200.800 10, 199.585 10.902, 198.526 12.950 M 90.603 32.097 C 89.137 33.251, 86.316 36.739, 84.335 39.847 C 82.355 42.956, 80.456 45.725, 80.117 46 C 79.778 46.275, 78.393 48.075, 77.041 50 C 73.293 55.333, 69.378 59.649, 59.256 69.603 C 52.246 76.497, 50 79.343, 50 81.330 C 50 84.675, 53.935 87.469, 57.201 86.444 C 60.612 85.373, 70.871 77.785, 75.958 72.570 C 80.874 67.531, 81.956 67.261, 86.820 69.854 L 90.140 71.624 85.161 79.068 C 82.422 83.162, 78.420 88.534, 76.267 91.006 C 71.425 96.565, 70.754 98.300, 72.537 100.653 C 73.307 101.669, 73.951 102.772, 73.968 103.104 C 73.986 103.437, 70.513 104.732, 66.250 105.982 C 61.987 107.232, 57.889 108.743, 57.142 109.340 C 55.673 110.513, 54.991 109.841, 51.797 104.075 C 50.485 101.708, 49.405 101, 47.106 101 C 40.832 101, 40.033 105.351, 40.015 139.595 C 40.001 167.410, 39.912 168.770, 38 170.500 C 36.900 171.495, 36 173.295, 36 174.500 C 36 175.705, 36.900 177.505, 38 178.500 C 39.718 180.055, 40.002 181.592, 40.016 189.405 C 40.040 203.633, 43.273 214, 47.685 214 C 48.660 214, 48.406 214.885, 46.811 217.041 C 41.446 224.299, 51.444 225.621, 65.092 219.459 C 73.361 215.725, 85.450 213, 93.750 213 C 100.211 213, 103.441 210.458, 102.772 205.901 C 102.354 203.052, 103.283 202.030, 104.500 204 C 105.588 205.760, 108.756 205.076, 111.948 202.391 C 116.394 198.650, 122.595 185.091, 124.019 176 C 125.678 165.401, 124.810 113.854, 122.889 108.955 C 120.599 103.115, 118.036 99.913, 114.454 98.416 C 110.115 96.604, 101.159 96.631, 93.500 98.480 C 83.075 100.997, 83.052 100.744, 92.778 90.571 C 102.808 80.079, 105.807 74.115, 104.515 67.228 C 103.834 63.599, 98.156 57.017, 95.679 56.985 C 95.030 56.976, 93.895 56.586, 93.156 56.118 C 92.104 55.451, 92.566 54.205, 95.283 50.383 C 100.612 42.884, 102.250 39.135, 101.503 36.142 C 99.984 30.051, 95.378 28.342, 90.603 32.097 M 97.500 111.916 C 85.591 114.483, 56.685 123.982, 55.250 125.799 C 53.457 128.069, 53.457 161.110, 55.250 160.539 C 55.938 160.320, 60.460 158.673, 65.300 156.880 L 74.100 153.618 73.809 140.559 C 73.561 129.428, 73.795 126.941, 75.390 123.715 C 78.564 117.295, 83.674 116.356, 85.899 121.783 C 87.296 125.191, 88.928 137.670, 88.969 145.250 C 89.004 151.766, 89.530 152.072, 95.342 148.957 C 99.767 146.585, 102.241 147.040, 103.825 150.515 C 106.022 155.337, 101.897 160.877, 94.206 163.432 L 89.308 165.058 88.644 179.279 C 88.279 187.101, 87.736 194.405, 87.436 195.511 C 86.955 197.290, 87.618 197.660, 93.181 198.717 C 96.641 199.375, 99.627 200.382, 99.819 200.956 C 100.451 202.853, 101.823 202.040, 101.309 200.073 C 101.032 199.013, 102.153 195.526, 103.801 192.323 C 107.780 184.590, 108.953 177.740, 109.676 158 C 110.496 135.640, 109.336 114.589, 107.147 112.079 C 105.551 110.250, 105.250 110.245, 97.500 111.916 M 171.018 123.784 C 169.714 124.840, 168.872 126.574, 168.954 128.034 C 169.030 129.390, 169.219 146.250, 169.375 165.500 C 169.636 197.869, 168.867 224.275, 167.404 233.162 C 166.883 236.331, 167.147 237.050, 169.369 238.506 C 171.289 239.764, 172.622 239.959, 174.657 239.281 C 180.376 237.375, 181.248 234.319, 184.634 204.298 L 185.108 200.095 188.304 202.044 C 192.309 204.486, 194.402 204.485, 203.336 202.038 C 207.276 200.959, 212.605 199.812, 215.177 199.488 C 221.619 198.677, 226.415 195.307, 226.806 191.314 C 227.448 184.770, 218.281 183.129, 203.410 187.127 C 199.059 188.296, 193.166 189.554, 190.313 189.922 C 184.144 190.718, 184.035 190.528, 184.014 178.951 L 184 171.402 187.250 171.770 C 189.037 171.972, 195.471 171.237, 201.547 170.137 C 207.865 168.993, 214.390 168.377, 216.788 168.698 C 221.679 169.354, 224 167.933, 224 164.282 C 224 158.557, 218.554 154, 211.714 154 C 209.161 154, 191.845 157.241, 187.250 158.578 C 185.071 159.213, 185 159.016, 185.004 152.367 L 185.008 145.500 194.254 145.447 C 201.464 145.406, 205.431 144.786, 212.271 142.630 C 222.628 139.366, 225.091 139.469, 226.084 143.205 C 226.480 144.693, 227.134 162.581, 227.539 182.955 C 228.222 217.286, 228.152 220, 226.594 220 C 224.894 220, 212.872 224.223, 196.645 230.521 C 190.226 233.012, 187.306 233.699, 186.033 233.018 C 183.348 231.581, 180.948 233.968, 180.312 238.709 C 179.834 242.271, 180.133 243.224, 182.453 245.544 C 184.827 247.918, 185.733 248.184, 190.035 247.771 L 194.922 247.301 192.843 250.221 C 189.756 254.555, 179 276.578, 179 278.563 C 179 280.983, 181.947 282.931, 185.665 282.968 C 188.202 282.994, 189.667 282.057, 193.046 278.250 C 195.364 275.637, 198.558 270.634, 200.143 267.130 C 201.727 263.627, 204.112 259.467, 205.443 257.886 C 206.773 256.304, 208.163 254.061, 208.532 252.900 C 209.166 250.903, 209.353 250.973, 212.002 254.187 C 213.543 256.055, 216.774 258.598, 219.183 259.837 C 221.592 261.076, 229.378 267.279, 236.485 273.622 C 250.375 286.018, 255.415 289.470, 261.156 290.519 C 266.104 291.423, 269.512 288.308, 268.594 283.719 C 268.256 282.029, 267.871 280.570, 267.740 280.478 C 262.998 277.161, 252.178 267.752, 242.127 258.207 C 235.819 252.216, 229.477 248.130, 224 246.527 C 220.405 245.476, 215.015 241.715, 215.007 240.253 C 215.003 239.567, 216.434 238.421, 218.186 237.706 C 220.963 236.573, 221.830 236.644, 224.936 238.261 C 229.053 240.405, 234.213 240.023, 237.160 237.355 C 238.212 236.403, 239.975 233.585, 241.077 231.093 C 244.959 222.316, 245.394 215.605, 244.161 183.500 C 242.586 142.503, 240.658 133.228, 232.749 128.593 C 226.681 125.037, 217.962 125.029, 209.483 128.572 C 207.711 129.312, 203.165 130.177, 199.381 130.493 C 195.596 130.810, 190.413 131.287, 187.863 131.554 C 183.486 132.012, 183.188 131.887, 182.544 129.320 C 181.720 126.036, 177.593 122, 175.059 122 C 174.049 122, 172.230 122.803, 171.018 123.784 M 63 173.397 L 55.500 176.735 55.250 193.117 C 55.113 202.128, 55.370 208.929, 55.821 208.232 C 56.272 207.534, 60.200 205.593, 64.551 203.917 C 68.902 202.242, 72.761 200.387, 73.126 199.796 C 74.361 197.798, 75.191 183.882, 74.492 176.917 C 73.665 168.685, 73.621 168.671, 63 173.397 M 108.611 230.145 C 105.855 234.080, 108.353 241.110, 114.668 247.190 C 121.433 253.705, 126.847 254.163, 129.037 248.404 C 129.794 246.413, 129.393 244.893, 126.984 240.626 C 121.008 230.037, 112.204 225.015, 108.611 230.145 M 80.149 236.085 C 77.253 239.750, 77.723 242.383, 82.591 249.785 C 88.119 258.190, 96.331 261.606, 100.345 257.171 C 102.890 254.359, 102.334 251.208, 98.500 246.729 C 96.575 244.480, 95 242.149, 95 241.548 C 95 240.947, 93.617 238.778, 91.927 236.728 C 87.939 231.889, 83.650 231.655, 80.149 236.085 M 15.333 250.428 C 12.393 256.593, 15.669 260.830, 29.225 268.398 C 34.758 271.488, 36.051 271.589, 39.040 269.169 C 42.369 266.473, 40.988 262.783, 34.196 256.218 C 23.605 245.981, 18.239 244.334, 15.333 250.428 M 49.655 251.829 C 47.300 254.431, 47.501 259.662, 50.007 261.004 C 52.939 262.573, 70.591 262.584, 72.478 261.019 C 74.376 259.443, 74.454 255.622, 72.619 254.099 C 70.592 252.417, 60.562 250, 55.606 250 C 52.714 250, 50.769 250.598, 49.655 251.829" stroke="none" fill="black" fill-rule="evenodd"/>
</svg>