<svg xmlns="http://www.w3.org/2000/svg" width="300" height="300" viewBox="0 0 300 300" version="1.1">
	<path d="M 172.477 12.276 C 169.740 14.078, 165.925 16.190, 164 16.970 C 162.075 17.749, 160.262 18.727, 159.972 19.144 C 159.403 19.958, 139.403 27.379, 132 29.521 C 125.667 31.355, 111.313 37.641, 107.880 40.085 L 105 42.136 105.006 54.318 C 105.009 61.018, 105.443 69.137, 105.971 72.360 C 108.100 85.358, 109.209 125.027, 108.147 150.219 C 107.181 173.160, 106.949 175.149, 104.926 177.886 C 100.885 183.352, 104.236 191.345, 110.386 190.909 C 112.099 190.787, 115.353 191.209, 117.618 191.847 C 121.270 192.875, 122.796 192.680, 131.118 190.127 C 143.311 186.385, 150.917 185.220, 171.020 184.011 C 180.105 183.464, 190.230 182.760, 193.520 182.446 C 198.164 182.002, 200.282 182.280, 203 183.687 C 206.099 185.293, 206.606 186.124, 207.424 190.949 C 208.787 198.989, 206.600 232.655, 204.141 241.500 C 200.900 253.155, 198.044 259.765, 194.096 264.752 C 188.367 271.987, 186.245 272.791, 178.342 270.718 C 171.165 268.836, 168.524 269.444, 167.062 273.315 C 165.911 276.362, 167.239 278.364, 172.426 281.404 C 177.632 284.455, 183.910 285.540, 190.570 284.542 C 197.122 283.559, 204.316 276.659, 209.856 266.043 C 214.987 256.210, 216.425 250.856, 219.535 230 C 223.700 202.076, 222.635 185.454, 216.163 177.334 C 210.464 170.186, 202.450 168.616, 181.500 170.546 C 173.250 171.307, 160.393 172.376, 152.928 172.924 C 141.908 173.732, 137.805 174.491, 131.110 176.960 C 121.511 180.499, 118.637 180.814, 119.355 178.250 C 120.619 173.732, 122.237 134.230, 121.743 119.972 L 121.188 104 140.344 103.988 C 156.030 103.979, 160.949 103.618, 167.500 102 C 171.900 100.913, 176.423 100.018, 177.550 100.012 C 178.678 100.005, 180.140 99.460, 180.800 98.800 C 182.717 96.883, 182.191 99.106, 179.452 104.500 C 175.493 112.296, 177.674 116.253, 184.660 113.947 C 188.543 112.666, 193.857 105.686, 195.659 99.500 C 196.299 97.300, 197.988 91.698, 199.412 87.051 C 201.353 80.715, 202 76.421, 202 69.878 C 202 61.925, 201.768 60.878, 199.381 58.041 C 195.683 53.647, 191.855 51.954, 184.175 51.319 C 177.918 50.802, 161.793 52.708, 153 55.004 C 151.075 55.507, 143.200 56.618, 135.500 57.473 C 127.800 58.328, 120.556 59.238, 119.403 59.494 C 117.683 59.877, 117.097 59.268, 116.153 56.115 C 114.445 50.416, 114.712 49.055, 117.750 47.955 C 119.263 47.407, 121.400 46.570, 122.500 46.095 C 125.856 44.646, 142.250 39.800, 146.500 39 C 148.700 38.586, 152.300 37.571, 154.500 36.744 C 159.232 34.966, 174.648 27.612, 177.484 25.781 C 190.272 17.522, 192.101 15.425, 189.976 11.455 C 188.821 9.297, 187.985 9, 183.058 9 C 178.406 9, 176.609 9.556, 172.477 12.276 M 167 65.136 C 163.425 65.620, 154.200 67.147, 146.500 68.528 C 138.800 69.909, 129.800 71.368, 126.500 71.771 L 120.500 72.502 120.168 76.501 C 119.985 78.700, 120.133 83.309, 120.496 86.743 C 121.138 92.799, 121.223 92.949, 123.329 91.743 C 124.826 90.886, 129.692 90.571, 139 90.729 C 147.429 90.871, 155.693 90.403, 161 89.482 C 165.675 88.670, 171.830 88.005, 174.677 88.003 C 178.999 88.001, 180.177 88.410, 181.804 90.478 L 183.753 92.955 184.837 88.728 C 186.923 80.592, 189 70.084, 189 67.669 C 189 65.988, 188.303 65.046, 186.750 64.630 C 183.753 63.827, 175.004 64.051, 167 65.136 M 150.438 115.061 C 141.108 115.780, 130.009 118.388, 129.993 119.865 C 129.989 120.214, 128.414 121.571, 126.493 122.879 C 122.606 125.526, 122.085 127.862, 124.829 130.345 C 127.098 132.399, 129.581 132.422, 137.150 130.461 C 140.417 129.615, 149.138 128.321, 156.530 127.586 C 172.222 126.025, 175.295 124.701, 174.809 119.711 C 174.254 114.027, 171.256 113.455, 150.438 115.061 M 145.500 148.641 C 136.013 149.630, 131.143 151.146, 128.095 154.060 C 124.676 157.327, 124.182 160.039, 126.571 162.429 C 128.492 164.349, 128.521 164.350, 134.581 162.526 C 137.613 161.613, 146.473 160.791, 157.826 160.368 C 177.256 159.645, 179.033 159.166, 178.969 154.679 C 178.951 153.480, 177.728 151.617, 176.250 150.538 C 173.972 148.876, 171.727 148.549, 161.531 148.400 C 154.914 148.303, 147.700 148.412, 145.500 148.641 M 66.834 219.033 C 64.143 220.603, 60.395 228.238, 58.685 235.631 C 52.320 263.148, 51.959 266.068, 54.477 269.663 C 56.544 272.615, 60.659 273.453, 63.606 271.523 C 65.562 270.241, 66 269.105, 66 265.318 C 66 262.768, 67.615 255.552, 69.590 249.282 C 73.973 235.362, 74.779 223.650, 71.595 220.115 C 69.452 217.736, 69.168 217.671, 66.834 219.033 M 159.200 222.200 C 156.905 224.495, 157.802 229.437, 161.080 232.563 C 164.386 235.716, 171.647 245.706, 173.984 250.320 C 176.060 254.418, 182.625 260, 185.368 260 C 188.129 260, 193 256.473, 193 254.474 C 193 252.239, 190.770 248.001, 189.589 247.992 C 188.545 247.984, 186.818 245.241, 181.196 234.663 C 177.532 227.768, 172.843 223.450, 167.582 222.125 C 161.933 220.703, 160.686 220.714, 159.200 222.200 M 92.527 228.599 C 90.875 231.120, 90.950 231.554, 95.007 243.019 C 98.455 252.765, 99.960 255.644, 103.578 259.420 C 106.879 262.866, 108.709 264, 110.964 264 C 114.993 264, 116.160 260.062, 113.285 256.170 C 110.501 252.401, 107 244.179, 107 241.408 C 107 237.626, 103.925 229.670, 101.727 227.763 C 98.688 225.128, 94.555 225.503, 92.527 228.599 M 127.525 226.793 C 125.119 227.329, 123.075 229.854, 123.032 232.341 C 122.988 234.863, 131.261 250.662, 134.988 255.176 C 136.658 257.199, 139.622 259.380, 141.575 260.025 C 144.618 261.029, 145.402 260.946, 147.063 259.443 C 149.810 256.957, 149.520 255.348, 145 248 C 142.801 244.425, 141.001 240.974, 141.001 240.331 C 141 238.853, 137.750 232.611, 136.750 232.167 C 136.338 231.983, 136 231.272, 136 230.586 C 136 229.899, 134.762 228.721, 133.250 227.966 C 129.799 226.245, 129.893 226.264, 127.525 226.793" stroke="none" fill="black" fill-rule="evenodd"/>
</svg>