<svg xmlns="http://www.w3.org/2000/svg" width="300" height="300" viewBox="0 0 300 300" version="1.1">
	<path d="M 100.359 38.250 C 96.810 42.263, 95 45.867, 95 48.918 C 95 50.561, 94.598 52.940, 94.106 54.203 C 93.615 55.466, 92.382 59.129, 91.368 62.342 C 90.353 65.556, 88.843 68.529, 88.011 68.950 C 87.180 69.370, 82 70.490, 76.500 71.438 C 71 72.386, 65.476 73.362, 64.225 73.606 C 61.237 74.190, 58 77.495, 58 79.961 C 58 82.273, 61.706 86.017, 63.939 85.961 C 64.797 85.939, 69.448 85.120, 74.274 84.140 C 79.099 83.160, 82.924 82.615, 82.774 82.929 C 77.681 93.553, 74.877 99, 74.501 99 C 74.241 99, 71.061 97.426, 67.434 95.501 C 58.897 90.972, 54.058 91.727, 54.015 97.595 C 53.994 100.462, 56.395 102.277, 63.771 104.970 C 67.220 106.229, 70.218 107.544, 70.433 107.892 C 70.907 108.658, 61.934 126.829, 58.872 131.305 C 57.670 133.062, 55.137 136.140, 53.242 138.145 C 49.408 142.204, 49.442 145.488, 53.333 146.927 C 56.620 148.143, 60.369 146.336, 63.590 141.982 C 65.190 139.818, 66.798 138.037, 67.163 138.024 C 67.527 138.011, 69.023 141.262, 70.487 145.250 C 75.197 158.078, 78.840 165.472, 81.021 166.629 C 83.113 167.740, 83.098 167.794, 80.074 169.947 C 76.451 172.527, 76.162 175.142, 79.189 177.961 C 82.597 181.137, 85.485 180.629, 99.677 174.362 C 101.399 173.601, 101.859 178.854, 102.885 211 C 103.694 236.355, 103.223 253.676, 101.536 260.639 C 101.243 261.847, 99.932 263.051, 98.524 263.405 C 94.600 264.389, 94.010 268.751, 97.404 271.671 C 101.226 274.959, 105.523 274.722, 108.969 271.034 C 113.625 266.049, 114.285 261.730, 114.916 232.098 L 115.500 204.695 117.939 209.598 C 124.340 222.464, 139.380 232.304, 143.672 226.434 C 145.554 223.860, 145.327 222.239, 142.803 220.240 C 141.595 219.283, 136.101 214.113, 130.593 208.750 C 120.812 199.227, 117.850 197.550, 115.305 200.095 C 114.511 200.889, 114.039 197.930, 113.591 189.345 C 113.251 182.830, 112.775 175.363, 112.534 172.750 C 112.263 169.824, 112.497 168, 113.143 168 C 113.719 168, 115.498 167.069, 117.096 165.932 C 121.791 162.588, 120.710 159.624, 113.929 157.250 C 109.180 155.588, 106.340 155.672, 105.640 157.496 C 105.324 158.320, 102.018 160.389, 98.292 162.095 C 94.567 163.801, 90.261 165.848, 88.723 166.643 C 86.028 168.037, 85.972 168.017, 87.181 166.082 C 88.176 164.488, 88.184 163.136, 87.217 159.523 C 85.541 153.254, 85.509 153.329, 90.039 152.722 C 92.261 152.424, 94.800 151.577, 95.683 150.840 C 97.269 149.515, 116 142.916, 116 143.683 C 116 143.901, 115.069 145.905, 113.931 148.135 C 111.968 151.983, 111.950 152.288, 113.586 154.095 C 115.890 156.641, 119.190 156.501, 121.720 153.750 C 127.346 147.633, 135.943 125.034, 134.419 120.373 C 131.951 112.824, 128.744 110.274, 120 108.904 C 111.513 107.575, 96.604 113.195, 87.606 121.116 C 81.855 126.178, 81.589 129.317, 86.869 129.822 C 90.559 130.175, 92.804 129.439, 104 124.199 C 109.217 121.758, 113.022 120.661, 116.500 120.595 C 121.298 120.504, 121.513 120.617, 121.830 123.395 C 122.012 124.987, 121.438 128.183, 120.555 130.496 L 118.949 134.701 114.100 134.236 C 104.925 133.354, 89.374 138.773, 85.595 144.168 C 84.098 146.305, 84.096 146.304, 82.935 143.403 C 80.124 136.382, 77.586 131.354, 75.915 129.496 C 74.161 127.545, 74.301 127.107, 81.122 113.176 C 84.976 105.303, 90.079 94.663, 92.460 89.531 C 95.166 83.702, 97.486 80.009, 98.645 79.688 C 103.688 78.292, 108 77.975, 108 79 C 108 79.600, 111.600 83.507, 116 87.683 C 123.381 94.688, 125.607 98, 122.934 98 C 122.347 98, 122.010 99.237, 122.184 100.750 C 122.426 102.861, 123.101 103.570, 125.086 103.801 C 126.508 103.966, 128.239 103.417, 128.934 102.580 C 130.038 101.250, 130.968 101.582, 136.348 105.228 C 139.732 107.521, 145.369 112.233, 148.875 115.699 C 155.620 122.366, 156.912 122.945, 159.429 120.429 C 163.985 115.872, 159.123 108.381, 143.717 96.218 L 137.933 91.653 141.467 88.034 C 145.647 83.753, 146.103 80.315, 142.608 79.438 C 139.775 78.727, 134.754 81.085, 132.624 84.126 L 131.127 86.264 123.063 81.537 C 118.628 78.937, 115 76.451, 115 76.013 C 115 75.575, 116.237 74.910, 117.750 74.535 C 122.143 73.447, 132.247 68.061, 135.336 65.162 C 139.606 61.155, 140.423 59.159, 138.933 56.375 C 137.267 53.262, 135.082 53.379, 128.735 56.921 C 123.113 60.058, 104.285 66.618, 103.410 65.744 C 103.120 65.453, 103.570 62.804, 104.411 59.857 C 106.589 52.225, 106.945 38.209, 104.993 36.974 C 102.889 35.644, 102.591 35.726, 100.359 38.250 M 206 36.953 C 198.284 38.679, 189.033 44.149, 176.311 54.509 C 172.021 58.003, 166.081 62, 165.178 62 C 163.780 62, 158 67.895, 158 69.321 C 158 71.839, 160.809 73.293, 164.512 72.692 C 167.772 72.163, 167.968 72.280, 167.426 74.439 C 167.107 75.711, 166.768 100.791, 166.673 130.171 C 166.514 179.186, 166.356 183.809, 164.750 186.259 C 163.787 187.728, 163 190.540, 163 192.508 C 163 195.500, 163.887 196.981, 168.413 201.543 L 173.826 207 180.279 207 C 183.828 207, 191.631 205.894, 197.620 204.542 C 203.682 203.174, 213.937 201.777, 220.754 201.392 L 233 200.700 233 204.048 C 233 205.890, 232.554 211.020, 232.009 215.448 C 231.465 219.877, 230.148 230.978, 229.083 240.118 C 226.390 263.239, 220.807 278.828, 214.668 280.368 C 213.313 280.709, 209.847 280.540, 206.965 279.993 C 199.151 278.511, 192.464 278.736, 190.975 280.530 C 185.245 287.434, 212.407 295.978, 222.877 290.564 C 227.978 287.926, 232.469 279.810, 237.300 264.500 C 239.784 256.627, 240.812 249.846, 242.527 230 C 243.406 219.825, 244.571 209.179, 245.115 206.342 C 246.563 198.786, 244.125 193.369, 237.809 190.113 C 234.654 188.486, 214.159 189.016, 205 190.962 C 201.975 191.605, 197.025 192.587, 194 193.146 C 190.975 193.704, 185.995 194.800, 182.934 195.580 C 174.982 197.609, 175.213 197.756, 176.155 191.250 C 176.613 188.088, 177.328 180.100, 177.744 173.500 L 178.500 161.500 190 160.217 C 196.325 159.512, 204.768 159.107, 208.763 159.318 C 217.359 159.772, 219.639 158.681, 218.616 154.607 C 218.116 152.612, 216.698 151.362, 213.219 149.845 C 208.941 147.980, 207.075 147.833, 193.250 148.271 L 178 148.755 178 141.877 L 178 135 182.822 135 C 185.474 135, 189.636 134.360, 192.072 133.578 C 194.507 132.796, 201.225 130.714, 207 128.952 C 220.257 124.908, 224.569 121.377, 220.437 117.947 C 219.053 116.799, 219.229 116.372, 221.956 114.237 C 226.042 111.039, 227.948 107.138, 230.134 97.500 C 233.518 82.580, 231.774 73.003, 225.040 69.521 C 220.885 67.372, 209.855 67.597, 199.569 70.040 C 194.844 71.162, 188.171 72.448, 184.740 72.899 C 181.308 73.349, 177.825 74.007, 177 74.360 C 176.003 74.788, 174.962 74.054, 173.895 72.173 L 172.290 69.343 176.533 67.092 C 178.866 65.854, 183.864 62.608, 187.638 59.878 C 197.500 52.746, 205.417 49.110, 212.721 48.360 C 219.691 47.644, 222.623 45.539, 221.514 42.045 C 220.165 37.794, 212.900 35.409, 206 36.953 M 202 81.541 C 195.675 82.877, 187.688 84.264, 184.250 84.623 L 178 85.276 178 90.262 L 178 95.248 183.750 94.599 C 186.912 94.243, 194.675 93.720, 201 93.438 C 207.325 93.156, 213.983 92.693, 215.796 92.409 L 219.093 91.892 218.796 85.696 C 218.519 79.894, 218.341 79.488, 216 79.306 C 214.625 79.199, 208.325 80.205, 202 81.541 M 211 103.693 C 204.085 104.222, 181.718 107.028, 179.750 107.614 C 178.263 108.057, 178 109.401, 178 116.567 C 178 121.205, 178.339 125, 178.753 125 C 179.167 125, 182.655 124.063, 186.503 122.917 C 200.150 118.854, 207.537 117.034, 210.450 117.017 C 212.744 117.004, 213.133 116.733, 212.200 115.800 C 210.312 113.912, 210.767 112.030, 214 108.347 C 216.864 105.085, 217.858 102.800, 216.250 103.175 C 215.838 103.271, 213.475 103.504, 211 103.693 M 67.418 209.950 C 62.023 212.182, 58.011 220.305, 58.011 229 C 58.011 239.270, 61.116 243.730, 67.540 242.687 C 72.303 241.914, 79.003 237.190, 78.985 234.617 C 78.952 230.126, 75.942 228.546, 71.599 230.741 L 68.699 232.207 69.279 226.585 C 69.598 223.494, 70.823 219.404, 72.001 217.498 C 75.733 211.459, 73.332 207.504, 67.418 209.950 M 207.435 238.459 C 204.578 242.819, 207.255 248.564, 213.684 251.875 C 216.548 253.350, 221.289 253.311, 222.800 251.800 C 224.694 249.906, 224.213 246.184, 221.915 244.954 C 218.651 243.208, 215 239.761, 215 238.427 C 215 237.159, 212.824 236, 210.441 236 C 209.674 236, 208.321 237.107, 207.435 238.459 M 188 243 C 184.078 246.922, 186.323 252.961, 192.454 254.985 C 197.142 256.532, 200.243 254.930, 199.810 251.183 C 199.631 249.630, 198.626 248.116, 197.426 247.588 C 196.285 247.087, 194.618 245.400, 193.722 243.838 C 191.792 240.476, 190.686 240.314, 188 243 M 162.750 245.090 C 159.395 247.624, 159.228 250.737, 162.241 254.615 C 166.920 260.637, 172.178 263.046, 176.082 260.956 C 178.979 259.406, 178.394 256.084, 174.568 252.369 C 172.663 250.519, 170.995 247.805, 170.818 246.268 C 170.409 242.706, 166.636 242.155, 162.750 245.090 M 138.091 247.133 C 134.932 250.523, 135.361 255.203, 139.234 259.614 C 143.028 263.934, 147.420 266, 152.813 266 C 157.975 266, 160.425 263.485, 158.676 259.978 C 157.942 258.506, 156.304 257.307, 154.614 257.005 C 152.668 256.658, 150.471 254.781, 147.587 251.003 C 142.777 244.702, 141.022 243.987, 138.091 247.133" stroke="none" fill="black" fill-rule="evenodd"/>
</svg>