<svg xmlns="http://www.w3.org/2000/svg" width="300" height="300" viewBox="0 0 300 300" version="1.1">
	<path d="M 193.606 24.073 C 187.614 27.860, 180.764 32.429, 178.385 34.229 C 176.005 36.028, 172.456 38.625, 170.498 40 C 168.540 41.375, 163.355 45.335, 158.976 48.800 C 150.759 55.300, 148.668 58.691, 151.082 61.599 C 152.890 63.777, 156.642 62.844, 163.367 58.542 C 166.412 56.594, 169.122 55, 169.388 55 C 169.960 55, 185.385 44.957, 189 42.231 C 190.375 41.195, 194.770 38.595, 198.766 36.454 C 206.429 32.349, 211.333 27.982, 212.452 24.267 C 213.243 21.637, 209.212 16.941, 206.295 17.095 C 205.308 17.147, 199.598 20.287, 193.606 24.073 M 92.321 57.189 C 88.196 59.183, 84 75.380, 84 89.305 L 84 98.777 80.250 99.431 C 76.846 100.024, 64.897 103.328, 56 106.136 C 47.931 108.683, 43.564 114.733, 47.461 117.967 C 50.810 120.747, 56.315 120.290, 69.906 116.104 C 77.234 113.847, 83.524 112, 83.884 112 C 84.245 112, 85.352 118.412, 86.346 126.250 C 88.693 144.762, 88.674 144.682, 90.776 145.231 C 97.399 146.963, 99.714 140.188, 98.110 123.767 C 97.500 117.512, 97 111.684, 97 110.816 C 97 109.103, 103.575 107, 108.932 107 C 113.029 107, 121.727 103.605, 124.640 100.869 C 127.754 97.943, 127.715 93.624, 124.545 90.455 C 121.507 87.416, 120.871 87.407, 117.886 90.365 C 115.559 92.671, 106.371 95, 99.598 95 L 96.859 95 97.297 79.750 C 97.538 71.362, 98.058 63.334, 98.454 61.908 C 98.959 60.085, 98.681 58.824, 97.515 57.658 C 95.627 55.770, 95.315 55.741, 92.321 57.189 M 192.325 61.414 C 188.379 62.692, 181.404 64.280, 176.825 64.942 C 172.246 65.605, 165.770 66.816, 162.432 67.635 C 157.498 68.845, 155.856 68.892, 153.640 67.882 C 151.231 66.784, 150.659 66.896, 148.708 68.846 L 146.500 71.051 145.722 135.776 C 145.066 190.297, 144.707 200.954, 143.443 203.381 C 141.320 207.458, 143.604 211, 148.356 211 C 150.177 211, 151.938 210.729, 152.269 210.398 C 152.600 210.067, 156.163 209.595, 160.186 209.349 C 165.438 209.028, 169.244 208.093, 173.689 206.032 C 181.267 202.518, 190.124 200.490, 204.284 199.026 C 210.215 198.413, 215.801 197.630, 216.697 197.286 C 218.177 196.718, 218.267 198.160, 217.678 213.081 C 217.321 222.111, 216.581 233.325, 216.033 238 C 215.485 242.675, 214.573 251, 214.008 256.500 C 213.442 262, 212.058 269.280, 210.932 272.678 L 208.885 278.856 205.883 277.809 C 203.299 276.909, 202.541 277.082, 200.441 279.056 C 197.269 282.036, 197.360 284.013, 200.825 287.333 C 206.649 292.912, 214.936 292.632, 219.355 286.708 C 222.072 283.067, 224.630 275.638, 225.452 269 C 225.759 266.525, 226.945 257.578, 228.087 249.119 C 229.561 238.200, 230.212 227.564, 230.332 212.457 L 230.500 191.177 228 188.482 C 224.430 184.634, 221.418 183.723, 216.049 184.865 C 213.547 185.397, 205.650 186.367, 198.500 187.021 C 184.741 188.278, 171.524 191.894, 163.412 196.619 C 161.164 197.928, 158.801 199, 158.162 199 C 157.328 199, 157 194.511, 157 183.094 L 157 167.188 161.678 165.594 C 164.251 164.717, 167.823 164, 169.616 164 C 171.409 164, 175.920 163.294, 179.640 162.431 C 184.685 161.261, 186.999 161.134, 188.749 161.931 C 192.317 163.557, 193.797 163.239, 195.622 160.455 C 197.021 158.319, 197.105 157.294, 196.143 154.084 C 195.137 150.727, 194.452 150.107, 190.537 149.010 C 185.898 147.711, 181.106 148.078, 171 150.504 C 167.975 151.231, 163.521 152.055, 161.102 152.337 L 156.703 152.850 157.347 141.675 C 157.701 135.529, 157.993 119.363, 157.995 105.750 L 158 81 160.481 81 C 165.011 81, 177.347 78.793, 189.500 75.808 C 201.439 72.875, 209.232 71.898, 210.507 73.174 C 210.875 73.542, 210.860 76.793, 210.474 80.398 C 209.786 86.818, 209.728 86.923, 207.663 85.477 C 204.666 83.377, 201.212 83.628, 186.561 87.012 C 179.445 88.655, 171.527 90, 168.966 90 C 163.635 90, 160.631 92.372, 161.170 96.158 C 161.866 101.053, 175.065 103.556, 185.072 100.692 C 188.057 99.837, 193.930 98.440, 198.122 97.587 C 202.314 96.733, 206.477 95.754, 207.372 95.411 C 209.908 94.438, 209.419 100.411, 206.382 107.500 C 204.969 110.800, 203.577 114.513, 203.289 115.750 C 202.667 118.431, 203.056 118.373, 199.047 116.374 C 195.484 114.596, 192.212 115.118, 183 118.935 C 180.525 119.960, 175.125 121.857, 171 123.150 C 161.961 125.982, 160.634 127.057, 161.471 130.868 C 162.979 137.735, 175.625 137.456, 189.458 130.252 C 191.131 129.381, 195.200 128.405, 198.500 128.084 C 204.351 127.514, 204.508 127.422, 204.805 124.358 C 205.053 121.809, 205.475 121.312, 207.042 121.721 C 209.953 122.483, 215.302 116.496, 217.961 109.500 C 220.535 102.728, 224.977 78.924, 224.991 71.827 C 225.002 66.062, 221.631 61.547, 216.186 60.035 C 210.013 58.321, 200.107 58.893, 192.325 61.414 M 108.500 147.688 C 101.010 148.658, 80.484 153.204, 76.140 154.855 L 71.331 156.682 68.610 154.341 C 65.362 151.547, 62.347 151.393, 59.142 153.858 C 56.903 155.580, 56.839 155.947, 57.874 161.086 C 59.668 169.988, 62 188.512, 62 193.860 C 62 196.969, 61.433 199.424, 60.500 200.357 C 57.186 203.671, 59.836 211, 64.348 211 C 65.613 211, 65.893 211.579, 65.460 213.304 C 65.044 214.962, 65.621 216.348, 67.514 218.242 C 72.496 223.223, 87.556 223.128, 107.734 217.988 C 126.964 213.089, 129.156 209.971, 131.048 184.819 C 132.863 160.701, 129.422 151.432, 117.416 148.098 C 115.262 147.500, 113.050 147.076, 112.500 147.155 C 111.950 147.235, 110.150 147.475, 108.500 147.688 M 98.500 163.093 C 93 164.136, 85.825 165.891, 82.556 166.994 C 79.287 168.097, 75.769 169, 74.738 169 C 73.419 169, 73.022 169.518, 73.395 170.750 C 74.502 174.410, 75.985 185.704, 75.992 190.532 C 75.999 195.187, 74.399 202.861, 72.474 207.405 C 71.703 209.225, 72.106 209.283, 81.584 208.724 C 95.935 207.876, 113.796 204.249, 115.038 201.929 C 116.311 199.551, 118.264 170.507, 117.418 166.542 C 116.078 160.261, 114.734 160.016, 98.500 163.093 M 176.404 242.525 C 175.361 246.681, 179 254.194, 183.051 256.248 C 189.882 259.712, 197 257.841, 197 252.584 C 197 250.304, 194.233 247, 192.325 247 C 190.238 247, 185 243.806, 185 242.534 C 185 240.992, 182.823 240, 179.437 240 C 177.706 240, 176.862 240.703, 176.404 242.525 M 125.926 246.074 C 122.301 249.699, 123.697 253.139, 130.956 258.468 C 134.764 261.263, 136.723 262.056, 139.223 261.815 C 142.062 261.542, 142.540 261.092, 142.799 258.445 C 143.034 256.045, 142.563 255.104, 140.604 254.056 C 139.233 253.322, 136.762 251.043, 135.114 248.993 C 131.416 244.391, 128.527 243.473, 125.926 246.074 M 151.680 246.443 C 148.427 248.909, 149.821 253.899, 154.828 257.708 C 159.325 261.129, 162.082 261.680, 166.435 260.025 C 168.222 259.345, 169 258.309, 169 256.607 C 169 252.469, 167.946 251, 164.976 251 C 163.431 251, 162.017 250.646, 161.833 250.214 C 161.376 249.135, 155.390 244.993, 154.346 245.032 C 153.881 245.049, 152.681 245.684, 151.680 246.443 M 98.200 257.200 C 96.385 259.015, 96.757 262.421, 99.095 265.393 C 101.565 268.534, 107.948 272, 111.260 272 C 116.201 272, 117.769 266.763, 113.421 264.782 C 112.003 264.136, 109.131 261.896, 107.039 259.804 C 103.143 255.908, 100.323 255.077, 98.200 257.200" stroke="none" fill="black" fill-rule="evenodd"/>
</svg>