<svg xmlns="http://www.w3.org/2000/svg" width="300" height="300" viewBox="0 0 300 300" version="1.1">
	<path d="M 121.783 40.750 C 119.043 43.892, 118 46.794, 118 51.278 L 118 55.688 104.639 56.633 C 89.900 57.676, 87.599 58.670, 88.183 63.745 L 88.500 66.500 103.250 66.777 C 111.362 66.929, 118 67.424, 118 67.878 C 118 68.331, 117.531 70.046, 116.959 71.689 C 116.084 74.199, 115.114 74.861, 110.882 75.838 C 108.113 76.477, 104.599 77, 103.073 77 C 96.823 77, 90 80.727, 90 84.142 C 90 86.043, 95.552 89, 99.122 89 C 100.647 89, 101 89.754, 101 93.015 C 101 96.415, 101.465 97.312, 104.039 98.878 L 107.079 100.726 102.872 101.290 C 96.678 102.121, 87.573 107.045, 87.181 109.776 C 86.806 112.384, 90.935 114.443, 95 113.675 C 107.985 111.221, 116.327 110.032, 120.656 110.017 C 125.324 110.002, 125.763 110.189, 125.290 112 C 125.002 113.100, 124.653 114, 124.515 114 C 124.376 114, 120.266 115.360, 115.381 117.023 C 103.952 120.912, 101.363 121.663, 96.500 122.495 C 91.415 123.365, 90 124.563, 90 128 C 90 135.189, 98.638 135.377, 117.331 128.597 L 123.780 126.258 124.379 129.879 C 124.708 131.871, 124.983 135.217, 124.989 137.316 C 124.995 139.414, 125.398 141.889, 125.884 142.816 C 126.600 144.182, 125.292 145.539, 118.956 150 C 110.992 155.607, 108.185 158.873, 109.500 161 C 110.263 162.234, 114.978 161.958, 118.424 160.479 C 120.054 159.779, 120.223 159.946, 119.531 161.576 C 118.216 164.678, 117.558 229.958, 118.829 231.229 C 119.536 231.936, 119.580 232.916, 118.957 234.081 C 117.786 236.269, 118.451 238.176, 120.924 239.720 C 122.431 240.662, 123.879 240.497, 128.154 238.900 C 136.021 235.960, 149.026 234.042, 161.500 233.982 C 167.550 233.953, 176.644 233.344, 181.709 232.628 L 190.917 231.326 190.489 235.413 C 187.781 261.249, 185.002 276.801, 182.373 280.826 C 181.055 282.845, 180.333 283.063, 176.893 282.482 C 172.273 281.701, 170 283.071, 170 286.637 C 170 290.118, 175.226 292.997, 181.500 292.974 C 188.814 292.947, 192.596 289.263, 195.416 279.421 C 198.038 270.273, 202 241.632, 202 231.834 C 202 225.436, 201.737 224.485, 199.355 222.278 C 196.482 219.615, 195.491 219.591, 180.500 221.829 C 176.650 222.404, 166.750 223.391, 158.500 224.024 C 145.164 225.047, 134.383 226.765, 129.468 228.651 C 127.982 229.221, 127.885 228.570, 128.528 222.393 C 128.923 218.602, 129.358 215.371, 129.494 215.213 C 129.630 215.054, 130.835 215.423, 132.171 216.032 C 134.100 216.911, 137.632 216.528, 149.329 214.168 C 166.988 210.606, 169.849 208.888, 165.171 204.655 C 161.864 201.662, 140.657 203.530, 132.663 207.518 C 131.029 208.333, 129.537 209, 129.346 209 C 128.780 209, 128.953 203.487, 129.625 200.125 L 130.250 197 147.560 197 C 157.080 197, 165.963 196.584, 167.299 196.077 C 170.626 194.811, 171.257 192.539, 169.040 189.799 C 167.236 187.570, 166.681 187.500, 150.840 187.500 C 141.853 187.500, 133.488 187.868, 132.250 188.317 C 130.196 189.064, 130 188.837, 130 185.717 L 130 182.300 140.750 181.637 C 146.662 181.273, 155.023 180.587, 159.330 180.113 C 166.757 179.294, 167.278 179.369, 169.469 181.560 C 172.335 184.426, 175.084 183.877, 178.560 179.747 C 185.615 171.362, 190.230 154.487, 186.718 149.913 C 184.540 147.076, 181.412 145.967, 178.349 146.946 C 176.782 147.447, 167.850 148.062, 158.500 148.313 C 149.150 148.564, 140.262 149.260, 138.750 149.860 C 137.238 150.460, 136 150.743, 136 150.490 C 136 149.663, 148.351 143.678, 154.500 141.525 C 160.002 139.598, 160.526 139.157, 160.813 136.211 C 161.080 133.479, 160.706 132.837, 158.313 131.919 C 154.338 130.392, 149.705 131.388, 141.800 135.465 C 138.032 137.409, 134.847 139.001, 134.724 139.002 C 134.601 139.004, 134.646 135.171, 134.824 130.485 L 135.148 121.965 139.041 119.979 C 141.181 118.887, 143.377 117.165, 143.919 116.151 C 145.390 113.403, 142.637 110, 138.943 110 C 137.324 110, 136 109.550, 136 109 C 136 108.450, 136.697 108, 137.550 108 C 140.840 108, 145 104.983, 145 102.597 C 145 99.101, 142.550 97.663, 136.935 97.862 L 131.954 98.038 135.668 92.445 C 138.975 87.464, 139.264 86.537, 138.300 83.985 C 137.287 81.300, 137.413 81.052, 140.294 80.047 C 144.496 78.582, 147 76.126, 147 73.467 C 147 68.632, 143.281 68.220, 129.750 71.555 C 127.425 72.128, 127 71.917, 127 70.188 C 127 67.326, 129.642 65, 132.893 65 C 137.168 65, 144.616 62.112, 147.324 59.403 C 151.257 55.471, 151.376 49.126, 147.544 47.655 C 145.584 46.903, 142.288 48.792, 141.711 50.998 C 141.274 52.670, 134.975 54.999, 130.884 55.002 C 128.596 55.004, 128.514 54.759, 128.842 48.933 C 129.108 44.216, 128.795 42.431, 127.437 40.931 C 125.272 38.538, 123.755 38.490, 121.783 40.750 M 186.325 47.250 C 184.018 50.387, 180.821 59.110, 179.677 65.393 L 178.422 72.286 170.474 76.607 C 163.127 80.601, 160 83.164, 160 85.191 C 160 86.957, 164.145 90, 166.550 90 C 167.952 90, 170.427 89.313, 172.050 88.474 C 175.585 86.646, 175.872 87.668, 173.450 93.466 C 172.261 96.311, 171.504 97.014, 170.200 96.484 C 164.506 94.166, 163.022 94.130, 161.521 96.273 C 160.183 98.184, 160.210 98.613, 161.783 100.451 C 169.033 108.923, 169.161 111.018, 162.810 117.305 C 158.453 121.618, 158.238 124.008, 162.083 125.360 C 165.679 126.625, 171.156 123.825, 174.485 119.022 C 177.041 115.333, 177.239 115.243, 179.820 116.589 C 188.102 120.910, 192.744 113.858, 185.250 108.341 C 183.188 106.823, 181.396 105.534, 181.269 105.476 C 181.142 105.418, 182.677 99.633, 184.680 92.621 L 188.322 79.871 193.128 77.435 C 195.771 76.096, 198.338 75, 198.833 75 C 199.328 75, 199.978 81.862, 200.279 90.250 C 200.942 108.723, 202.695 115.695, 208.014 121.014 C 216.227 129.227, 232.711 128.441, 238.114 119.580 C 240.561 115.567, 240.489 113.534, 237.811 111.039 C 235.020 108.438, 234.975 108.444, 230.586 111.932 C 223.185 117.813, 216.451 116.557, 213.639 108.771 C 211.303 102.302, 209.888 88.307, 210.614 78.855 C 211.633 65.602, 208.279 61.371, 198.625 63.727 C 196.356 64.281, 193.646 65.092, 192.602 65.531 C 190.920 66.237, 190.779 65.997, 191.367 63.414 C 191.731 61.811, 192.312 57.896, 192.657 54.714 C 193.194 49.762, 193.012 48.722, 191.392 47.496 C 189.034 45.711, 187.512 45.637, 186.325 47.250 M 126 84.076 C 124.075 84.554, 119.611 85.429, 116.079 86.020 C 112.548 86.610, 109.290 87.320, 108.840 87.599 C 107.463 88.450, 111.104 93, 113.163 93 C 114.368 93, 115.576 94.140, 116.369 96.027 C 117.566 98.872, 117.732 98.947, 119.156 97.277 C 119.989 96.299, 121.734 93.700, 123.034 91.500 C 124.334 89.300, 126.546 86.488, 127.949 85.251 C 129.352 84.014, 130.275 83.048, 130 83.104 C 129.725 83.159, 127.925 83.597, 126 84.076 M 147.697 159.314 C 131.108 160.125, 127.984 160.516, 128.448 161.726 C 128.753 162.520, 129.287 165.591, 129.635 168.549 C 130.167 173.077, 130.522 173.796, 131.883 173.097 C 134.060 171.979, 147.457 170.204, 158.500 169.570 C 172.303 168.778, 173.781 168.323, 174.520 164.636 C 174.866 162.911, 175.371 160.713, 175.642 159.750 C 176.203 157.756, 178.761 157.796, 147.697 159.314 M 158.307 248.857 C 155.358 253.636, 164.583 267, 170.830 267 C 173.856 267, 177 264.363, 177 261.826 C 177 260.192, 173.949 257, 172.387 257 C 171.861 257, 170.693 255.750, 169.791 254.223 C 166.187 248.122, 160.422 245.428, 158.307 248.857 M 78.885 250.190 C 75.976 255.564, 78.881 262.700, 85.751 267.057 C 91.063 270.426, 92.244 270.613, 94.429 268.429 C 96.660 266.197, 96.456 265.557, 92.251 261.589 C 90.189 259.643, 87.368 255.907, 85.982 253.286 C 83.115 247.862, 80.712 246.813, 78.885 250.190 M 133.607 250.582 C 133.273 251.452, 133 254.523, 133 257.407 C 133 261.596, 133.466 263.089, 135.314 264.826 C 140.350 269.556, 149.746 266.128, 147.180 260.496 C 146.513 259.033, 145.206 258, 144.021 258 C 142.602 258, 141.990 257.330, 141.967 255.750 C 141.894 250.855, 135.111 246.661, 133.607 250.582 M 110.250 256.662 C 109.563 256.940, 109 258.439, 109 259.994 C 109 266.284, 119.456 270.544, 123.926 266.074 C 127.008 262.992, 125.417 259.378, 121.222 259.932 C 120.519 260.025, 118.770 259.178, 117.337 258.050 C 114.787 256.045, 112.763 255.648, 110.250 256.662" stroke="none" fill="black" fill-rule="evenodd"/>
</svg>