<svg xmlns="http://www.w3.org/2000/svg" width="300" height="300" viewBox="0 0 300 300" version="1.1">
	<path d="M 88.278 24.215 C 86.506 25.472, 82.133 30.164, 78.559 34.643 C 74.895 39.235, 68.438 45.615, 63.751 49.275 C 59.180 52.845, 54.872 56.449, 54.178 57.285 C 51.318 60.731, 51.112 71.341, 52.415 148 C 52.887 175.775, 53.678 199.287, 54.172 200.250 C 55.499 202.835, 62.138 202.610, 64.595 199.895 C 66.403 197.897, 66.500 195.703, 66.500 156.645 C 66.500 134.015, 66.317 103.891, 66.094 89.703 C 65.708 65.140, 65.780 63.842, 67.610 62.560 C 69.415 61.297, 69.511 61.439, 69.183 64.877 C 68.605 70.939, 71.205 72.431, 83.072 72.843 C 92.012 73.153, 93.839 72.886, 102.532 69.989 C 107.809 68.231, 112.245 66.952, 112.391 67.146 C 112.537 67.341, 112.268 69.356, 111.794 71.624 L 110.932 75.748 103.849 76.446 C 99.953 76.830, 95.356 77.768, 93.633 78.531 C 91.910 79.294, 87.087 80.900, 82.915 82.100 C 75.971 84.099, 75.100 84.649, 72.590 88.616 C 69.749 93.107, 69.747 95.715, 72.584 98.070 C 74.892 99.985, 80.420 99.344, 88.848 96.185 C 101.721 91.359, 109.111 89.189, 108.604 90.384 C 105.979 96.566, 105.717 99.030, 107.474 100.972 C 113.358 107.473, 120.801 101.643, 124.674 87.500 C 127.083 78.703, 129.141 65.590, 128.571 62.670 C 126.720 53.195, 120.779 49.241, 111.359 51.213 C 108.687 51.773, 106.050 52.575, 105.500 52.995 C 104.371 53.857, 95.259 56.458, 90.071 57.400 C 88.186 57.742, 84.531 57.741, 81.949 57.399 L 77.256 56.776 85.250 49.139 C 93.980 40.799, 98.976 33.248, 98.991 28.372 C 99.008 22.745, 93.413 20.574, 88.278 24.215 M 161 31 C 159.900 32.100, 158.980 34.013, 158.956 35.250 C 158.931 36.487, 158.699 49.650, 158.439 64.500 C 158.179 79.350, 157.058 114.555, 155.949 142.734 C 154.150 188.430, 154.094 194.281, 155.429 196.863 C 157.910 201.661, 161.785 202.306, 165.545 198.545 C 167.718 196.373, 168 195.223, 168 188.545 C 168 184.395, 168.244 181, 168.542 181 C 168.840 181, 170.050 181.900, 171.230 183 C 175.992 187.437, 188.013 184, 214.810 170.542 C 228.116 163.860, 233.653 161.610, 238.745 160.817 C 244.457 159.928, 245.532 160.007, 246.544 161.391 C 248.046 163.445, 249.420 213.024, 248.549 233.696 C 247.605 256.086, 243.952 272.930, 239.685 274.567 C 239.011 274.826, 235.128 273.904, 231.055 272.519 C 226.982 271.133, 223.299 270, 222.870 270 C 222.088 270, 217 274.750, 217 275.480 C 217 275.695, 217.416 276.965, 217.925 278.304 C 218.937 280.963, 233.951 289.726, 238.138 290.100 C 244.494 290.668, 246.897 289.909, 251.337 285.935 C 255.105 282.563, 256.301 280.560, 258.356 274.185 C 263.206 259.136, 263.500 255.386, 263.500 208.500 C 263.500 168.190, 263.343 164.021, 261.627 158.793 C 259.369 151.915, 254.193 146.315, 249.235 145.384 C 238.984 143.461, 226.211 147.471, 201.791 160.278 C 195.960 163.336, 188.560 166.600, 185.345 167.533 C 175.277 170.452, 171.019 172.124, 169.316 173.827 C 167.786 175.357, 167.712 175.190, 168.272 171.487 C 168.604 169.294, 169.431 153.072, 170.109 135.439 L 171.342 103.377 177.921 101.507 C 181.539 100.479, 186.875 98.594, 189.779 97.319 C 192.682 96.043, 195.269 95, 195.529 95 C 195.788 95, 196 99.890, 196 105.866 L 196 116.732 188.250 119.519 C 177.279 123.464, 172.579 126.749, 172.189 130.746 C 171.926 133.446, 172.267 134.029, 174.431 134.572 C 177.551 135.355, 191.835 134.625, 194.250 133.559 C 195.739 132.901, 196 133.333, 196 136.450 C 196 138.466, 195.483 143.242, 194.852 147.065 C 193.810 153.373, 193.875 154.204, 195.550 156.055 C 197.947 158.704, 201.768 158.234, 204.124 155 C 206.751 151.393, 209 141.636, 209 133.839 L 209 127.099 218 122.836 C 227.411 118.379, 228.603 117.021, 227.502 112.009 C 226.673 108.236, 222.207 107.166, 216.782 109.441 C 210.371 112.130, 209.989 111.834, 210.088 104.250 C 210.136 100.537, 210.473 95.269, 210.838 92.541 C 211.475 87.766, 211.653 87.538, 215.635 86.388 C 221.078 84.816, 223.913 83.303, 227.250 80.191 C 230.546 77.117, 230.639 76.082, 227.927 72.635 C 226.254 70.508, 225.014 70, 221.493 70 C 219.093 70, 216.031 70.418, 214.687 70.929 C 212.267 71.849, 212.253 71.820, 213.156 67.799 C 213.658 65.567, 214.503 62.929, 215.034 61.936 C 217.406 57.505, 215.730 50.223, 212.131 49.314 L 209.500 48.651 212.500 47.765 C 214.150 47.278, 218.620 46.319, 222.434 45.634 C 227.883 44.655, 229.778 43.838, 231.286 41.819 C 232.927 39.621, 233.021 38.906, 231.939 36.875 C 229.948 33.138, 227.872 32.066, 222.560 32.032 C 217.289 31.998, 202.189 34.624, 184.919 38.578 C 179.100 39.910, 173.863 41, 173.283 41 C 172.702 41, 171.924 38.982, 171.555 36.515 C 170.521 29.621, 165.174 26.826, 161 31 M 199 50.696 C 182.590 54.413, 175.023 56, 173.717 56 C 172.237 56, 171.016 67.754, 171.005 82.114 L 171 88.728 175.669 86.364 C 178.238 85.064, 181.063 84, 181.947 84 C 182.831 84, 184.443 83.393, 185.527 82.652 C 186.612 81.911, 189.637 80.500, 192.250 79.516 C 195.933 78.130, 197 77.235, 197 75.531 C 197 68.878, 199.419 61.805, 203.142 57.576 C 205.264 55.165, 207 52.512, 207 51.680 C 207 50.848, 207.563 49.940, 208.250 49.662 C 210.745 48.655, 205.346 49.259, 199 50.696 M 112.915 106.418 C 112.685 106.648, 108.672 107.323, 103.998 107.919 C 91.062 109.565, 83.904 110.999, 79.500 112.825 C 71.536 116.128, 68.747 121.651, 73.068 125.562 C 75.474 127.739, 84.176 128.046, 87.843 126.084 C 89.075 125.425, 93.777 124.232, 98.291 123.432 C 112.042 120.999, 117.443 118.467, 118.511 113.957 C 119.311 110.578, 114.814 104.520, 112.915 106.418 M 92.048 137.465 C 81.926 141.697, 76.618 146.266, 77.495 149.992 C 78.288 153.359, 81.598 156, 85.026 156 C 86.568 156, 91.227 154.200, 95.380 152 C 100.894 149.078, 104.119 148, 107.342 148 C 112.560 148, 114.262 146.401, 113.818 141.914 C 113.424 137.932, 109.791 135.026, 104.413 134.393 C 101.468 134.046, 98.409 134.806, 92.048 137.465 M 117.968 172.578 C 112.641 173.609, 99.009 178.385, 85.203 184.056 C 83.940 184.575, 81.002 185, 78.675 185 C 72.419 185, 68.043 188.323, 68.015 193.095 C 67.998 196.100, 70.358 198.559, 74.173 199.511 C 78.597 200.615, 89.975 198.272, 99 194.398 C 107.167 190.892, 119.720 187.053, 123.133 187.017 C 125.381 186.994, 125.870 189.321, 127.121 206 C 129.066 231.918, 126.833 263.622, 122.468 272.062 L 120.895 275.104 111.003 274.883 C 100.053 274.639, 98 275.442, 98 279.967 C 98 283.481, 100.231 285.421, 107.810 288.501 C 121.079 293.892, 130.648 290.765, 136.927 278.986 C 143.716 266.248, 145.733 236.002, 142.140 200.801 C 140.522 184.952, 140.055 182.681, 137.669 179.075 C 132.970 171.975, 128.572 170.524, 117.968 172.578 M 186.450 200.693 C 185.087 202.056, 184.857 203.632, 185.271 208.784 C 185.717 214.339, 186.227 215.640, 189.142 218.657 C 196.531 226.303, 202.048 227.634, 204.090 222.264 C 204.869 220.214, 204.675 219.276, 203.127 217.599 C 201.127 215.432, 195 203.115, 195 201.260 C 195 198.686, 188.864 198.279, 186.450 200.693 M 225.035 200.934 C 223.450 203.896, 223.792 208.369, 226.069 214.454 C 228.511 220.982, 230.980 223, 236.523 223 C 243.307 223, 245.253 218.460, 240.413 213.924 C 238.990 212.591, 237.258 210.150, 236.564 208.500 C 234.707 204.082, 230.097 199, 227.946 199 C 226.915 199, 225.605 199.870, 225.035 200.934 M 210.916 200.750 C 209.819 210.481, 210.071 213.821, 212.095 216.393 C 216.135 221.529, 225.013 218.408, 222.273 212.815 C 221.650 211.542, 220.587 208.700, 219.912 206.500 C 219.237 204.300, 217.968 201.952, 217.093 201.282 C 215.334 199.937, 211.049 199.568, 210.916 200.750 M 157.180 209.839 C 152.960 213.607, 152.950 217.688, 157.144 224.224 C 163.569 234.237, 173.612 237.377, 175.475 229.955 C 175.958 228.030, 175.305 226.370, 172.723 222.965 C 170.861 220.509, 168.802 216.944, 168.148 215.043 C 166.851 211.271, 163.324 207, 161.506 207 C 160.876 207, 158.929 208.278, 157.180 209.839 M 104.597 216.166 C 103.576 217.623, 103 220.557, 103 224.299 C 103 229.437, 103.358 230.512, 105.923 233.077 C 109.079 236.232, 110.907 236.626, 114.316 234.883 C 120.819 231.557, 122.104 222.008, 116.050 221.997 C 115.198 221.996, 113.600 220.308, 112.500 218.247 C 110.085 213.723, 106.896 212.883, 104.597 216.166 M 83.040 223.658 C 80.312 228.281, 79.966 234.395, 82.300 236.729 C 84.415 238.844, 91.059 239.026, 93.459 237.034 C 95.156 235.625, 95.155 235.006, 93.433 227.500 C 92.593 223.835, 89.264 220, 86.924 220 C 85.975 220, 84.226 221.646, 83.040 223.658 M 23.223 227.671 C 22.521 227.954, 21.079 229.885, 20.018 231.964 C 17.258 237.374, 18.636 241.299, 25.951 248.867 C 32.728 255.880, 35.615 257.385, 38.994 255.668 C 42.719 253.774, 43.198 250.756, 40.424 246.673 C 39.091 244.711, 38 242.632, 38 242.053 C 38 241.474, 37.622 241, 37.159 241 C 36.696 241, 35.084 238.732, 33.575 235.961 C 29.475 228.427, 26.757 226.251, 23.223 227.671 M 57.934 230.250 C 51.944 236.538, 51.812 240.221, 57.359 246.276 C 62.338 251.712, 71.520 252.634, 74.027 247.950 C 75.559 245.087, 74.356 242.236, 70.850 240.423 C 69.087 239.511, 67.213 237.342, 66.322 235.184 C 64.712 231.284, 62.226 228, 60.884 228 C 60.441 228, 59.113 229.012, 57.934 230.250" stroke="none" fill="black" fill-rule="evenodd"/>
</svg>