<svg xmlns="http://www.w3.org/2000/svg" width="300" height="300" viewBox="0 0 300 300" version="1.1">
	<path d="M 216.614 9.715 C 214.604 10.231, 203.484 17.345, 198.500 21.304 C 196.850 22.615, 192.350 25.797, 188.500 28.375 C 158.458 48.493, 150.993 56.284, 158.899 59.268 L 161.797 60.362 162.443 78.431 C 162.798 88.369, 162.956 122.825, 162.794 155 C 162.526 208.297, 162.651 213.834, 164.199 217.250 C 165.735 220.640, 166.268 221, 169.749 221 C 171.867 221, 174.027 220.618, 174.550 220.152 C 175.072 219.686, 180.900 217.600, 187.500 215.517 C 194.100 213.434, 201.300 211.069, 203.500 210.262 C 205.700 209.454, 210.425 207.967, 214 206.956 C 217.575 205.945, 224.550 203.974, 229.500 202.576 C 242.969 198.772, 242 198.092, 242 211.349 C 242 217.591, 241.716 226.061, 241.368 230.172 L 240.736 237.646 238.512 235.573 C 237.289 234.433, 235.286 232.756, 234.061 231.847 C 232.836 230.938, 231.182 228.305, 230.387 225.996 C 229.591 223.687, 228.382 221.239, 227.699 220.556 C 226.087 218.945, 222.436 217, 221.020 217 C 218.830 217, 215 221.909, 215.009 224.705 C 215.022 228.455, 219.987 236.904, 224.515 240.879 C 227.696 243.672, 228.803 244.062, 232.819 243.801 C 236.600 243.555, 237.684 243.040, 238.711 241 L 239.971 238.500 239.985 241.214 C 239.999 243.759, 238.540 259.248, 237.392 268.745 C 237.091 271.237, 235.834 274.232, 234.351 275.995 C 231.932 278.870, 231.479 279, 223.890 279 C 216.463 279, 215.887 279.155, 214.852 281.426 C 212.653 286.251, 214.327 288.521, 221.517 290.467 C 235.465 294.243, 243.767 290.941, 249.522 279.331 C 252.333 273.662, 252.717 271.487, 254.999 248.367 C 256.349 234.690, 257.464 217.393, 257.477 209.928 C 257.499 196.804, 257.410 196.221, 254.771 192.231 C 252.804 189.258, 250.988 187.813, 248.271 187.058 C 243.553 185.748, 235.606 185.700, 231.571 186.956 C 229.882 187.482, 225.125 188.883, 221 190.069 C 216.875 191.256, 206.075 194.600, 197 197.501 C 187.925 200.402, 179.488 203.082, 178.250 203.455 L 176 204.135 176 187.613 L 176 171.091 179.750 170.414 C 181.813 170.041, 187.974 167.536, 193.442 164.846 C 204.379 159.465, 216.018 155, 219.105 155 C 221.939 155, 225.985 150.659, 225.364 148.284 C 224.627 145.467, 219.814 143, 215.055 143 C 211.102 143, 200.883 145.763, 194.500 148.558 C 192.850 149.280, 188.400 151.250, 184.612 152.936 C 180.823 154.621, 177.336 156, 176.862 156 C 176.388 156, 176 148.341, 176 138.981 L 176 121.962 178.436 122.573 C 179.784 122.912, 185.475 122.034, 191.186 120.606 C 196.859 119.188, 205.944 117.569, 211.375 117.009 C 222.495 115.860, 225.887 114.613, 227.683 111.009 C 228.679 109.012, 228.669 108.134, 227.635 106.577 C 226.498 104.865, 226.724 104.303, 229.550 101.822 C 231.312 100.275, 233.229 97.770, 233.810 96.255 C 236.565 89.076, 239.042 74.465, 239.161 64.697 C 239.276 55.249, 239.087 54.087, 237.113 52.113 C 235.916 50.916, 233.578 49.666, 231.917 49.333 C 226.072 48.164, 187.457 53.931, 180.250 57.049 L 176 58.888 176 55.533 C 176 52.506, 176.610 51.794, 182.250 48.234 C 185.688 46.065, 189.512 43.969, 190.750 43.577 C 191.988 43.186, 193 42.500, 193 42.054 C 193 41.608, 194.463 40.649, 196.250 39.923 C 198.037 39.197, 202.542 36.667, 206.260 34.301 C 209.978 31.936, 213.265 30, 213.564 30 C 214.721 30, 227.847 18.840, 228.408 17.380 C 230.758 11.255, 225.059 7.550, 216.614 9.715 M 82.500 17.178 C 81.400 17.792, 80.378 18.388, 80.229 18.502 C 80.080 18.616, 79.329 22.262, 78.561 26.604 C 77.793 30.947, 76.414 37.425, 75.496 41 C 74.579 44.575, 73.133 50.200, 72.283 53.500 C 66.232 76.995, 66.588 85.110, 73.941 91.297 C 76.906 93.791, 77.840 94, 86.056 94 C 95.963 94, 101.695 92.335, 106.371 88.100 L 109.242 85.500 107.621 88.700 C 105.296 93.290, 105.535 97.561, 108.223 99.443 C 109.445 100.299, 110.168 101, 109.828 101 C 107.485 101, 86.568 103.294, 77.500 104.545 C 64.776 106.301, 57.435 108.439, 54.250 111.316 C 51.810 113.520, 51.272 117.872, 53.200 119.800 C 54.961 121.561, 63.299 121.269, 77.599 118.945 C 84.552 117.815, 91.293 117.028, 92.578 117.195 C 94.729 117.476, 94.419 118.035, 88.708 124.184 C 85.294 127.860, 81.517 132.135, 80.315 133.684 C 79.113 135.233, 76.638 138.093, 74.815 140.039 C 58.993 156.931, 50.109 166.845, 49.148 168.678 C 47.791 171.268, 48.531 173.679, 51.109 175.058 C 53.873 176.538, 57.378 174.365, 70.263 163.185 L 81.500 153.434 84.702 163.467 C 87.650 172.702, 92 188.707, 92 190.318 C 92 190.693, 91.394 191, 90.653 191 C 88.760 191, 86.023 193.623, 81.262 200 C 79.003 203.025, 75.745 207.075, 74.021 209 C 72.297 210.925, 70.270 213.650, 69.518 215.055 C 68.766 216.461, 64.854 222.486, 60.825 228.444 C 56.796 234.402, 51.988 241.577, 50.141 244.389 C 48.293 247.200, 45.737 250.625, 44.462 252 C 40.965 255.769, 40.398 259.398, 42.913 261.913 C 46.528 265.528, 48.716 264.559, 57.948 255.250 C 64.051 249.097, 69.945 241.509, 77.813 229.680 C 83.966 220.429, 89 212.018, 89 210.989 C 89 209.960, 89.415 208.861, 89.923 208.548 C 90.431 208.234, 91.158 206.557, 91.539 204.821 C 94.432 191.651, 96.261 233.593, 93.586 251.760 C 92.674 257.953, 91.540 264.028, 91.067 265.260 C 90.227 267.445, 90.177 267.426, 89.047 264.500 C 87.201 259.723, 83.882 257.130, 80.985 258.201 C 76.277 259.943, 75.849 263.363, 79.356 271.221 C 82.268 277.748, 84.431 279.728, 89.526 280.532 C 95.064 281.407, 99.673 278.197, 103.162 271.035 C 107.606 261.913, 108.191 256.190, 107.892 224.809 C 107.649 199.408, 107.808 195.763, 109.222 194.349 C 110.697 192.874, 111 193.080, 112.929 196.860 C 115.536 201.972, 132.180 218.890, 138.617 222.972 C 141.243 224.637, 144.359 226, 145.541 226 C 148.153 226, 151 223.062, 151 220.367 C 151 218.572, 136.598 203.576, 122.625 190.820 L 117.749 186.369 122.679 178.435 C 125.390 174.071, 128.872 169.150, 130.415 167.500 C 135.859 161.681, 136.027 157.580, 130.971 153.979 C 126.939 151.108, 121.634 152.581, 116.666 157.950 C 114.650 160.130, 113 162.205, 113 162.561 C 113 162.918, 111.650 165.211, 109.999 167.657 C 108.348 170.102, 106.255 173.540, 105.347 175.295 C 103.412 179.037, 103.424 179.055, 99.963 167 C 97.226 157.469, 95.196 152.463, 92.153 147.748 L 89.731 143.995 94.545 138.748 C 97.193 135.861, 102.429 130.574, 106.180 126.999 C 111.748 121.690, 113 119.927, 113 117.390 C 113 114.286, 113.007 114.282, 120.750 113.066 C 131.312 111.407, 144.314 107.426, 146.207 105.272 C 149.080 102.002, 149.238 99.389, 146.740 96.484 L 144.408 93.773 139.454 95.332 C 136.729 96.189, 130.568 97.377, 125.761 97.972 C 120.955 98.567, 116.230 99.301, 115.261 99.602 C 113.589 100.123, 113.588 100.094, 115.250 99.026 C 118.695 96.811, 124.193 82.253, 125.456 72 C 125.829 68.975, 127.088 63.757, 128.253 60.405 C 130.105 55.076, 130.207 53.915, 129.068 51.164 C 128.351 49.433, 126.214 47.059, 124.319 45.888 C 120.359 43.441, 119.923 43.485, 103 48.063 C 85.765 52.725, 86.553 52.607, 87.402 50.398 C 88.414 47.763, 90.959 33.686, 91.683 26.716 C 92.216 21.586, 92.022 20.652, 89.968 18.466 C 87.443 15.779, 85.581 15.457, 82.500 17.178 M 108 61.342 C 102.793 63.161, 89.384 64.176, 86.107 63 C 84.383 62.381, 81.871 70.838, 82.246 76 L 82.500 79.500 90.500 79.258 C 94.900 79.126, 100.300 78.376, 102.500 77.593 C 105.981 76.354, 106.711 76.359, 108.126 77.628 C 109.557 78.911, 109.828 78.891, 110.376 77.461 C 110.719 76.568, 111 74.130, 111 72.044 C 111 69.958, 111.680 66.325, 112.511 63.970 C 113.342 61.615, 113.904 59.628, 113.761 59.554 C 113.617 59.481, 111.025 60.285, 108 61.342 M 209.500 65.787 C 202.900 66.520, 194.147 67.926, 190.049 68.910 C 185.233 70.066, 181.431 70.436, 179.299 69.955 L 176 69.211 176 78.210 L 176 87.210 179.750 86.694 C 181.813 86.411, 186.650 85.437, 190.500 84.532 C 204.764 81.176, 215.560 78.968, 217.628 78.984 C 221.018 79.010, 222.127 76.704, 221.800 70.314 L 221.500 64.453 209.500 65.787 M 217 92.930 C 215.066 94.050, 196.801 98, 193.552 98 C 192.187 98, 189.028 98.693, 186.533 99.540 C 184.037 100.388, 180.647 101.175, 179 101.290 C 176.111 101.493, 176.004 101.674, 176.002 106.372 C 176 111.241, 176.001 111.243, 178.250 109.612 C 183.171 106.042, 187.907 105.151, 211.174 103.416 L 218.849 102.844 218.314 99.549 C 218.005 97.643, 218.247 95.965, 218.890 95.568 C 220.131 94.801, 220.418 91.983, 219.250 92.030 C 218.838 92.047, 217.825 92.452, 217 92.930 M 71.411 177.246 C 65.731 181.713, 57.853 195.089, 55.376 204.474 C 54.250 208.738, 54.276 209.772, 55.555 211.724 C 57.672 214.956, 61.294 214.628, 64.411 210.923 C 65.835 209.231, 67 207.352, 67 206.747 C 67 205.551, 74.563 193.928, 79.524 187.500 C 84.220 181.414, 85.150 178.660, 83.369 176.116 C 81.132 172.922, 76.336 173.375, 71.411 177.246 M 191.054 230.173 C 186.337 235.235, 187.651 241.570, 195.001 249.195 C 199.299 253.654, 200.136 254.104, 203.600 253.817 C 206.542 253.574, 207.786 252.876, 208.933 250.823 C 210.392 248.212, 210.301 248.012, 205.261 242.682 C 202.418 239.677, 199.820 235.931, 199.487 234.359 C 198.121 227.917, 194.726 226.231, 191.054 230.173 M 165.883 236.117 C 164.187 237.813, 163.862 239.081, 164.247 242.498 C 164.844 247.794, 167.283 251.121, 172.659 253.974 C 177.723 256.662, 180.158 256.335, 181.401 252.801 C 182.222 250.465, 181.869 249.597, 178.639 246.022 C 176.601 243.767, 174.665 240.573, 174.335 238.925 C 173.351 234.004, 169.332 232.668, 165.883 236.117 M 136.960 240.631 C 136.112 240.870, 134.600 242.588, 133.598 244.448 C 130.887 249.482, 132.368 252.410, 141.576 260.222 C 148.273 265.903, 150.086 266.949, 153.282 266.972 C 156.303 266.994, 157.233 266.547, 157.902 264.750 C 159.110 261.505, 158.204 259.812, 150.987 251.829 C 147.434 247.900, 144.060 243.744, 143.489 242.593 C 142.465 240.530, 139.973 239.781, 136.960 240.631" stroke="none" fill="black" fill-rule="evenodd"/>
</svg>