<svg xmlns="http://www.w3.org/2000/svg" width="300" height="300" viewBox="0 0 300 300" version="1.1">
	<path d="M 222 17.326 C 214.926 21.042, 202.648 28.227, 202 29.030 C 201.725 29.371, 199.478 30.741, 197.006 32.075 C 192.069 34.739, 191.893 34.856, 187.356 38.485 C 185.626 39.868, 183.909 41, 183.539 41 C 182.870 41, 180.137 42.913, 170.408 50.191 C 167.607 52.286, 164.794 54, 164.158 54 C 163.521 54, 163 54.395, 163 54.879 C 163 55.362, 161.644 56.319, 159.987 57.005 C 158.196 57.747, 156.725 59.246, 156.360 60.700 C 155.527 64.022, 157.485 68, 159.954 68 C 161.568 68, 161.868 68.526, 161.523 70.750 C 161.288 72.263, 160.845 89.250, 160.539 108.500 C 160.233 127.750, 159.045 158.494, 157.899 176.820 C 155.917 208.541, 155.901 210.233, 157.563 212.070 C 158.524 213.132, 159.948 214, 160.727 214 C 161.506 214, 164.162 215.183, 166.628 216.628 C 171.618 219.552, 175.931 219.496, 184.851 216.394 C 187.408 215.504, 191.750 214.201, 194.500 213.497 C 197.250 212.794, 206.475 210.386, 215 208.147 C 223.525 205.908, 233.060 203.775, 236.187 203.408 L 241.875 202.739 241.380 214.120 C 240.097 243.642, 237.343 258.898, 231.204 270.500 L 227.500 277.500 220.887 277.542 C 212.119 277.597, 209.059 280.506, 211.996 285.992 C 213.270 288.373, 222.908 292, 227.960 292 C 236.466 292, 245.712 280.348, 250.971 263 C 253.245 255.499, 254.073 250.133, 254.904 237.500 C 257.218 202.324, 257.279 198.734, 255.632 194.884 C 253.005 188.743, 244.709 186.460, 234.500 189.070 C 232.300 189.633, 228.025 190.474, 225 190.940 C 221.975 191.405, 216.125 192.740, 212 193.905 C 199.757 197.363, 187.041 201.093, 178.257 203.804 C 173.724 205.203, 169.742 206.076, 169.410 205.743 C 169.077 205.410, 169.269 202.969, 169.835 200.319 C 170.402 197.669, 171.178 190.550, 171.559 184.500 L 172.253 173.500 176.572 173.846 C 179.251 174.061, 183.288 173.360, 187.196 172.001 C 193.330 169.868, 210.899 167.025, 218.050 167.008 C 222.411 166.998, 224 165.533, 224 161.522 C 224 153.283, 210.680 150.841, 189.198 155.142 C 183.135 156.356, 177.459 158.095, 176.097 159.156 C 174.776 160.186, 173.640 160.909, 173.573 160.764 C 173.506 160.619, 173.615 149.167, 173.814 135.315 C 174.087 116.384, 174.473 110.244, 175.367 110.587 C 176.021 110.838, 179.019 110.159, 182.028 109.077 C 198.268 103.241, 224.182 95, 226.297 95 C 227.612 95, 225.752 100.409, 223.341 103.594 C 222.054 105.296, 221 107.659, 221 108.844 C 221 110.691, 220.429 111, 217.017 111 C 209.601 111, 184.115 121.169, 181.690 125.095 C 180.100 127.671, 181.746 131.951, 184.778 133.123 C 188.513 134.566, 197.665 133.754, 202.500 131.551 C 204.700 130.548, 209.200 128.470, 212.500 126.932 C 215.800 125.394, 220.210 123.826, 222.299 123.447 C 226.959 122.603, 228.999 120.696, 229.004 117.179 C 229.007 115.309, 230.371 113.198, 233.519 110.191 C 241.001 103.045, 245.434 92.086, 247.956 74.500 C 249.431 64.216, 249.218 53.872, 247.484 51.580 C 245.143 48.487, 240.730 46.015, 237.500 45.988 C 234.415 45.963, 218.758 49.373, 202 53.721 C 193.940 55.812, 189.444 57.132, 178 60.769 C 175.689 61.504, 179.889 58.645, 186 55.323 C 189.025 53.679, 194.650 50.388, 198.500 48.010 C 202.350 45.632, 207.975 42.197, 211 40.377 C 214.025 38.556, 216.950 36.702, 217.500 36.255 C 218.050 35.808, 221.067 34.195, 224.204 32.670 C 233.483 28.160, 237.809 20.853, 233.250 17.392 C 230.994 15.679, 225.199 15.645, 222 17.326 M 114.454 25.472 C 111.393 29.484, 107.389 41.336, 106.462 49.129 C 106.110 52.083, 105.096 58.325, 104.208 63 C 101.815 75.596, 102.102 98.266, 104.776 107.855 C 107.681 118.275, 113.733 124, 121.845 124 C 126.325 124, 144.119 118.204, 145.657 116.243 C 147.371 114.058, 146.592 109.170, 144.247 107.390 C 141.898 105.607, 136.941 105.671, 130.416 107.568 C 127.450 108.430, 123.781 108.992, 122.262 108.818 C 119.813 108.536, 119.311 107.819, 117.830 102.500 C 116.865 99.033, 116.126 92.577, 116.080 87.208 C 115.988 76.523, 116.064 76.388, 125.500 70.493 C 128.800 68.431, 133.188 65.135, 135.250 63.169 C 138.438 60.130, 139 58.955, 139 55.332 C 139 52.142, 138.514 50.810, 137.066 50.035 C 134.024 48.407, 132.635 48.765, 127.914 52.388 C 125.486 54.252, 122.487 56.082, 121.250 56.456 C 119.230 57.065, 119.002 56.795, 119.017 53.817 C 119.027 51.993, 119.919 47.125, 121 43 C 122.081 38.875, 122.972 33.925, 122.979 32 C 122.993 28.446, 119.825 22, 118.066 22 C 117.535 22, 115.910 23.562, 114.454 25.472 M 59.285 40.262 C 56.552 41.511, 54.755 46.922, 52.398 61 C 51.289 67.625, 49.905 72.506, 48.649 74.227 C 46.905 76.615, 46.818 77.298, 47.947 79.727 C 48.840 81.647, 49.188 86.960, 49.077 97 C 48.889 114.081, 50.318 120.666, 54.928 123.949 C 60.661 128.031, 68.295 125.822, 80.487 116.555 C 94.525 105.884, 96.649 102.949, 93.965 97.934 C 92.088 94.428, 87.509 95.764, 78.011 102.587 C 75.399 104.464, 72.840 106, 72.325 106 C 71.810 106, 69.862 107.126, 67.997 108.502 C 66.081 109.916, 64.227 110.627, 63.738 110.138 C 62.784 109.184, 62.626 88.337, 63.545 84.678 C 63.860 83.420, 65.555 81.699, 67.309 80.852 C 69.064 80.006, 73.425 77.893, 77 76.157 C 80.575 74.420, 84.022 72.999, 84.660 73 C 85.298 73, 88.111 71.190, 90.910 68.977 C 96.513 64.548, 97.400 61.577, 94.030 58.527 C 92.133 56.811, 91.733 56.849, 83.280 59.544 C 78.451 61.084, 72.769 63.197, 70.653 64.241 C 68.537 65.285, 66.537 65.871, 66.209 65.542 C 65.880 65.213, 66.149 62.342, 66.806 59.162 C 67.463 55.982, 68 51.594, 68 49.412 C 68 42.941, 63.579 38.299, 59.285 40.262 M 223.500 63.035 C 211.459 65.683, 188.189 71.828, 186.228 72.878 C 185.277 73.387, 182.408 74.116, 179.851 74.500 L 175.202 75.197 174.489 85.153 C 173.756 95.400, 174.029 96.999, 176.226 95.299 C 178.267 93.719, 195.921 86.961, 200.404 86.044 C 202.657 85.583, 207.917 84.466, 212.093 83.562 C 216.270 82.658, 222.120 81.824, 225.093 81.709 L 230.500 81.500 231.124 73.819 C 231.468 69.594, 232.039 64.982, 232.393 63.569 C 232.748 62.156, 232.692 61.062, 232.269 61.138 C 231.846 61.214, 227.900 62.067, 223.500 63.035 M 80.246 134.250 C 78.471 135.488, 76.726 137.400, 76.368 138.500 C 76.009 139.600, 72.021 144.100, 67.506 148.500 C 62.990 152.900, 54.278 161.378, 48.144 167.340 C 42.011 173.302, 36.721 179.264, 36.389 180.588 C 35.575 183.830, 36.494 185.874, 39.228 186.904 C 41.961 187.933, 44.925 186.576, 50.966 181.528 C 53.332 179.552, 55.477 178.144, 55.734 178.400 C 55.990 178.656, 55.730 180.359, 55.157 182.183 C 53.122 188.659, 52.785 210.781, 54.423 230.490 C 55.290 240.935, 56 252.002, 56 255.085 C 56 259.340, 56.462 261.108, 57.918 262.425 C 60.504 264.766, 63.861 264.089, 66.367 260.720 C 68.227 258.220, 68.416 256.685, 68.246 245.470 C 68.084 234.839, 68.283 233, 69.593 233 C 70.438 233, 73.238 232.158, 75.815 231.129 C 87.559 226.440, 94.536 224.891, 102.818 225.137 L 111 225.380 111 232.324 C 111 236.144, 110.483 242.074, 109.852 245.501 L 108.704 251.732 102.102 253.796 C 98.471 254.932, 93.025 256.138, 90 256.478 C 79.810 257.622, 72.017 261.207, 70.520 265.438 C 69.667 267.852, 69.899 268.516, 72.326 270.604 C 74.634 272.589, 76.174 272.992, 81.306 272.956 C 84.713 272.932, 89.300 272.242, 91.500 271.424 C 93.700 270.605, 97.525 269.230, 100 268.368 C 110.462 264.725, 116.093 261.953, 116.996 260 C 117.377 259.175, 118.292 257.375, 119.029 256 C 122.411 249.686, 123.082 247.857, 124.736 240.425 C 126.228 233.720, 126.497 227.418, 126.480 199.500 C 126.458 163.001, 126.299 161.954, 119.960 156.620 C 114.547 152.065, 109.730 153.181, 89.111 163.768 C 71.990 172.560, 71.003 173.107, 69.118 174.849 C 67.880 175.994, 67.385 175.843, 65.851 173.849 C 64.858 172.557, 64.034 171.217, 64.022 170.870 C 64.010 170.524, 66.138 168.517, 68.750 166.410 C 82.711 155.151, 92 144.290, 92 139.227 C 92 137.059, 87.052 132, 84.931 132 C 84.129 132, 82.020 133.012, 80.246 134.250 M 97.923 174.870 C 91.640 178.046, 84.475 181.760, 82 183.124 C 79.525 184.488, 75.362 186.405, 72.750 187.385 L 68 189.165 68 203.083 C 68 210.737, 68.168 217, 68.374 217 C 68.580 217, 70.718 216.288, 73.124 215.417 C 86.936 210.421, 101.826 209.377, 107.750 212.989 L 111 214.971 111 192.544 C 111 180.210, 110.628 169.888, 110.173 169.607 C 109.718 169.325, 104.205 171.694, 97.923 174.870 M 212.750 230.689 C 210.034 231.399, 210.565 237.194, 213.961 243.923 C 218.389 252.695, 225.369 256.231, 230.777 252.443 C 233.866 250.280, 233.732 245.623, 230.500 242.813 C 229.125 241.618, 228 240.303, 228 239.891 C 228 238.394, 221.268 232.052, 218.604 231.040 C 215.751 229.955, 215.596 229.946, 212.750 230.689 M 189.400 234.400 C 184.531 239.269, 184.644 243.849, 189.750 248.568 C 194.652 253.099, 199.572 254.626, 204.268 253.077 C 210.295 251.087, 212.566 242.909, 207.612 241.034 C 206.450 240.594, 205.158 240.436, 204.741 240.682 C 202.958 241.732, 200.093 239.699, 199.490 236.956 C 198.891 234.226, 195.742 231, 193.677 231 C 193.195 231, 191.270 232.530, 189.400 234.400 M 169.740 241.540 C 164.707 246.207, 166.849 252.853, 174.684 256.878 C 179.191 259.193, 185 257.052, 185 253.076 C 185 250.555, 175.624 239, 173.579 239 C 172.974 239, 171.247 240.143, 169.740 241.540 M 136.565 242.578 C 131.834 247.309, 132.577 251.419, 139.372 258.107 C 144.990 263.635, 149.513 266, 154.467 266 C 161.300 266, 163.439 257.638, 156.938 256.338 C 154.018 255.754, 147.008 248.869, 146.993 246.570 C 146.985 245.349, 140.947 241, 139.260 241 C 138.645 241, 137.433 241.710, 136.565 242.578" stroke="none" fill="black" fill-rule="evenodd"/>
</svg>