<svg xmlns="http://www.w3.org/2000/svg" width="300" height="300" viewBox="0 0 300 300" version="1.1">
	<path d="M 216.955 17.341 C 215.555 18.071, 213.530 19.398, 212.455 20.288 C 211.380 21.179, 207.749 24.066, 204.387 26.704 C 197.974 31.735, 192.859 35.782, 189.500 38.480 C 188.400 39.364, 184.098 42.655, 179.941 45.794 C 163.965 57.853, 158.981 62.229, 158.348 64.751 C 157.613 67.679, 159.929 70, 163.586 70 C 165.732 70, 165.809 70.409, 166.541 85.750 C 167.370 103.148, 166.352 178.530, 165.141 189.355 C 164.602 194.174, 163.873 196.492, 162.687 197.155 C 159.981 198.670, 160.443 205.534, 163.455 208.545 C 164.805 209.895, 166.811 211, 167.914 211 C 170.774 211, 174.616 206.444, 176.038 201.366 L 177.255 197.017 180.801 200.130 C 184.035 202.969, 184.795 203.197, 189.424 202.707 C 192.216 202.412, 199.225 200.280, 205 197.971 C 210.775 195.662, 217.300 193.128, 219.500 192.341 C 221.700 191.554, 224.909 190.260, 226.632 189.464 C 228.354 188.669, 230.827 187.902, 232.127 187.759 C 234.354 187.515, 234.568 187.988, 235.867 196 C 236.773 201.589, 237.288 214.089, 237.372 232.500 C 237.487 257.562, 237.302 261.077, 235.609 266 C 232.109 276.182, 228.494 279.497, 221.294 279.128 C 214.351 278.772, 210.913 284.268, 215.357 288.619 C 216.932 290.161, 222.734 292, 226.022 292 C 230.066 292, 237.069 288.568, 240.693 284.811 C 242.449 282.990, 245.231 278.575, 246.876 275 C 251.731 264.448, 252.738 249.135, 250.867 214.297 C 249.518 189.166, 249.145 185.931, 247.114 181.735 C 244.679 176.705, 239.860 173, 235.755 173 C 233.161 173, 219.276 177.304, 210.500 180.829 C 195.020 187.046, 186.731 190.002, 184.741 190.014 C 180.900 190.037, 178.128 191.138, 177.595 192.853 C 177.069 194.543, 177.600 181.806, 178.658 167.390 L 179.252 159.279 182.214 160.757 C 185.621 162.456, 191.370 161.969, 202.500 159.036 C 215.589 155.587, 219.465 153.746, 219.807 150.817 C 220.459 145.237, 212.667 142.179, 205.315 145.130 C 203.767 145.751, 198.855 146.573, 194.399 146.956 C 188.395 147.471, 185.483 148.232, 183.149 149.894 L 180 152.136 180 138.068 L 180 124 184 124 C 186.201 124, 195.146 122.200, 203.879 120 C 212.612 117.800, 221.182 116, 222.924 116 C 225.954 116, 231 112.365, 231 110.182 C 231 108.237, 225.604 104.016, 222.333 103.403 C 218.045 102.598, 210.603 103.551, 201.520 106.067 C 197.681 107.130, 193.406 108.014, 192.020 108.031 C 190.634 108.048, 187.363 109.110, 184.750 110.390 L 180 112.718 180 109.999 C 180 108.503, 179.717 105.079, 179.370 102.390 C 178.850 98.346, 178.971 97.716, 180.070 98.750 C 181.727 100.307, 191.155 100.369, 196.500 98.858 C 198.700 98.236, 204.775 96.730, 210 95.510 C 215.225 94.291, 221.844 92.341, 224.710 91.177 L 229.919 89.061 229.337 95.296 C 228.782 101.242, 228.874 101.595, 231.332 102.910 C 236.818 105.846, 239.807 100.585, 246.620 76 C 249.464 65.736, 249.563 62.519, 247.173 58.062 C 244.157 52.438, 239.913 50.748, 230.500 51.421 C 215.272 52.510, 184.881 59.690, 181.583 62.978 C 179.388 65.167, 179.057 70.159, 180.956 72.447 C 182.548 74.366, 185.663 74.411, 192.346 72.613 C 204.806 69.261, 221.031 66.071, 227.250 65.752 C 233.910 65.410, 234 65.439, 233.989 67.953 C 233.967 73.074, 232.717 78.105, 231.575 77.667 C 230.161 77.124, 219.024 79.193, 209 81.861 C 204.875 82.959, 198.166 84.392, 194.092 85.045 C 190.018 85.699, 185.132 86.883, 183.234 87.676 C 181.336 88.468, 179.539 88.872, 179.240 88.573 C 178.940 88.274, 178.651 82.063, 178.598 74.771 L 178.500 61.513 184.500 57.575 C 203.300 45.237, 230 23.365, 230 20.303 C 230 16.413, 222.148 14.630, 216.955 17.341 M 61.785 60.250 C 60.907 60.938, 58.835 65.775, 57.182 71 C 54.468 79.581, 50.404 89.244, 46.669 96 C 44.756 99.459, 41.783 105.198, 40.971 107 C 40.599 107.825, 39.584 110.075, 38.715 112 C 35.706 118.669, 32 130.851, 32 134.074 C 32 138.674, 36.141 143.748, 40.574 144.580 C 43.895 145.203, 51.385 144.160, 55.203 142.543 C 56.385 142.043, 55.053 145.598, 50.852 154.161 C 47.521 160.947, 43.777 168.750, 42.531 171.500 C 41.285 174.250, 39.289 178.608, 38.095 181.185 C 28.558 201.769, 33.120 216.911, 48.500 215.725 C 55.719 215.169, 62.908 210.388, 68.671 202.312 L 73.305 195.819 74.697 199.130 C 76.868 204.294, 78.913 206.002, 82.905 205.985 C 87.444 205.965, 88.667 205.174, 89.542 201.689 C 90.059 199.627, 89.793 198.569, 88.522 197.640 C 86.380 196.074, 85.096 190.254, 84.197 178.034 C 83.544 169.165, 83.333 168.475, 80.851 167.086 C 78.398 165.713, 77.941 165.783, 74.656 168.033 C 70.347 170.986, 69 173.716, 69 179.497 C 69 182.222, 68.467 184.205, 67.601 184.700 C 66.832 185.140, 64.364 187.953, 62.117 190.952 C 58.106 196.305, 51.009 202, 48.350 202 C 46.092 202, 46.759 194.317, 49.599 187.625 C 51.028 184.256, 53.127 179.250, 54.263 176.500 C 55.400 173.750, 57.830 168.220, 59.665 164.212 C 61.499 160.203, 63 156.733, 63 156.500 C 63 156.267, 66.760 148.297, 71.355 138.788 C 85.729 109.046, 90 98.910, 90 94.536 C 90 91.474, 86.687 88.647, 84.071 89.477 C 81.105 90.419, 77.533 95.625, 75.479 102 C 74.504 105.025, 71.989 111.133, 69.890 115.573 C 65.742 124.347, 65.547 124.504, 53.750 128.560 L 47 130.881 47 128.545 C 47 126.104, 50.815 116.401, 56.454 104.500 C 63.644 89.327, 66 83.940, 66 82.672 C 66 81.945, 67.125 78.043, 68.500 74 C 69.875 69.957, 71 65.673, 71 64.480 C 71 60.108, 65.306 57.494, 61.785 60.250 M 113.719 61.424 C 112.653 62.490, 112.129 67.209, 111.637 80.174 C 111.275 89.703, 110.192 102.658, 109.230 108.962 L 107.481 120.424 100.990 122.819 C 93.396 125.620, 88.794 127.919, 87.765 129.425 C 86.404 131.417, 86.986 134.986, 89 137 C 91.264 139.264, 99.630 139.804, 103.160 137.914 C 104.900 136.983, 105.113 137.090, 104.652 138.664 C 104.356 139.674, 103.835 142.750, 103.494 145.500 C 101.943 158.018, 92.010 201.063, 86.418 219.500 C 85.083 223.900, 83.993 227.940, 83.996 228.479 C 84.005 230.534, 78.647 243.592, 77.012 245.500 C 74.385 248.565, 74.010 250.570, 75.632 252.885 C 77.540 255.608, 81.921 255.637, 85.339 252.948 C 89.843 249.405, 95.284 236.390, 101.411 214.500 C 108.392 189.560, 111.479 176.378, 114.174 160 C 114.763 156.425, 116.211 148.325, 117.393 142 L 119.542 130.500 126.021 127.316 C 135.615 122.602, 135.594 122.592, 136.346 132.250 C 137.367 145.365, 137.087 198.870, 135.961 205.807 C 134.870 212.534, 132.274 220, 131.027 220 C 130.612 220, 129.034 218.214, 127.522 216.031 C 124.590 211.800, 122.337 210.550, 119.564 211.614 C 114.991 213.369, 115.827 219.963, 121.651 228.075 C 128.883 238.148, 137.996 236.948, 144.389 225.081 C 148.466 217.512, 149.988 207.561, 150.672 184 C 151.244 164.282, 149.725 123.284, 148.218 117.789 C 147.823 116.349, 146.259 113.782, 144.742 112.085 C 142.425 109.493, 141.256 109, 137.428 109 C 134.921 109, 130.636 109.961, 127.905 111.136 C 125.174 112.311, 122.738 113.071, 122.492 112.825 C 122.246 112.579, 122.481 108.580, 123.015 103.939 C 123.548 99.298, 123.988 88.963, 123.992 80.973 C 123.999 68.959, 123.707 66.017, 122.308 63.973 C 119.367 59.674, 116.360 58.782, 113.719 61.424 M 205.441 230.615 C 203.848 231.441, 202.230 232.629, 201.843 233.254 C 201.344 234.062, 200.128 233.845, 197.638 232.504 C 190.008 228.395, 185.609 235.763, 191.923 242.077 C 195.590 245.744, 202.118 246.177, 205.523 242.978 L 207.675 240.957 210.245 242.978 C 214.839 246.591, 221.037 245.188, 220.971 240.550 C 220.932 237.818, 215.703 232.192, 211.617 230.485 C 208.792 229.304, 207.933 229.322, 205.441 230.615 M 167.039 232.189 C 162.741 236.802, 164.956 242.285, 173.445 248.047 C 179.803 252.362, 180.219 252.488, 183.066 250.965 C 186.238 249.267, 185.373 245.439, 180.416 239.236 C 172.550 229.392, 170.601 228.365, 167.039 232.189 M 144 240 C 139.524 244.476, 142.696 250.304, 152.226 255.114 C 158.788 258.426, 162.424 258.389, 163.501 254.998 C 164.460 251.977, 163.169 249.139, 160.120 247.562 C 158.613 246.783, 155.548 244.313, 153.308 242.073 C 148.739 237.504, 146.905 237.095, 144 240" stroke="none" fill="black" fill-rule="evenodd"/>
</svg>