<svg xmlns="http://www.w3.org/2000/svg" width="300" height="300" viewBox="0 0 300 300" version="1.1">
	<path d="M 203.500 28.978 C 202.400 29.441, 198.800 30.830, 195.500 32.064 C 187.122 35.198, 179.559 39.881, 164.500 51.259 C 148.482 63.362, 142.001 69.427, 141.996 72.319 C 141.994 73.519, 141.880 104.118, 141.743 140.318 C 141.456 216.033, 140.768 210.578, 150.235 207.661 C 153.131 206.769, 157.975 205.408, 161 204.637 C 164.025 203.866, 169.875 202.123, 174 200.765 C 192.466 194.685, 214.106 189, 218.783 189 C 224.294 189, 224.503 190.252, 224.469 223 C 224.442 247.699, 224.168 253.314, 222.783 257.500 C 219.579 267.187, 217.262 272.298, 214.511 275.746 C 211.921 278.992, 211.426 279.195, 207.255 278.725 C 203.706 278.325, 202.376 278.624, 200.829 280.171 C 194.966 286.034, 204.552 293.620, 215.282 291.607 C 219.566 290.803, 228.099 282.435, 230.527 276.656 C 231.488 274.370, 233.144 270.525, 234.207 268.111 C 237.447 260.757, 239.002 246.417, 238.980 224.087 C 238.963 205.816, 238.261 195.565, 236.428 186.801 C 235.744 183.530, 230.536 177.855, 226.703 176.204 C 222.637 174.454, 216.387 174.723, 207.932 177.014 C 203.845 178.122, 199.150 179.285, 197.500 179.600 C 194.144 180.240, 182.067 183.745, 168.500 188.016 C 163.550 189.574, 158.262 191.117, 156.750 191.444 L 154 192.038 154 141.538 L 154 91.038 158.361 91.636 C 161.364 92.048, 165.959 91.446, 173.111 89.703 C 188.487 85.958, 202.938 82.737, 207.750 81.983 C 212.585 81.225, 212.492 81.003, 210.907 89.583 C 209.276 98.405, 209.362 98.243, 207.057 96.804 C 205.439 95.793, 204.086 95.874, 199.785 97.239 C 190.471 100.195, 187.630 100.910, 181.190 101.919 C 174.248 103.007, 165.423 106.677, 160.236 110.634 C 157.492 112.726, 156.943 113.758, 157.194 116.344 L 157.500 119.500 164.207 119.795 C 169.324 120.020, 171.991 119.599, 175.460 118.018 C 177.961 116.879, 182.143 115.539, 184.753 115.040 C 187.364 114.541, 193.490 112.772, 198.366 111.109 L 207.233 108.086 206.552 111.293 C 204.750 119.778, 204.775 120.486, 206.938 122.444 C 211.433 126.512, 217.769 120.103, 220.072 109.156 C 220.495 107.145, 221.963 101.597, 223.333 96.826 C 226.189 86.884, 227.519 76.581, 226.588 71.619 C 226.094 68.984, 225.140 67.820, 222.415 66.527 C 219.201 65.001, 218.416 64.986, 213.692 66.354 C 210.836 67.181, 205.125 68.589, 201 69.484 C 171.305 75.923, 162.851 78.133, 158.375 80.627 L 154.250 82.925 153.636 79.212 C 153.298 77.171, 153.017 74.972, 153.011 74.327 C 153.005 73.683, 156.827 70.758, 161.506 67.827 C 166.184 64.897, 173.721 60.130, 178.256 57.233 C 189.554 50.015, 200.844 44.313, 206.648 42.894 C 212.992 41.343, 216.699 39.432, 217.970 37.055 C 219.488 34.219, 219.262 33.171, 216.545 30.455 C 214.669 28.578, 213.080 28.016, 209.795 28.068 C 207.433 28.105, 204.600 28.514, 203.500 28.978 M 108 60.603 C 104.425 61.398, 98.575 62.462, 95 62.968 C 91.425 63.474, 83.325 64.810, 77 65.937 C 70.675 67.064, 63.475 68.005, 61 68.027 C 54.743 68.082, 51.770 70.667, 52.187 75.688 C 52.630 81.017, 55.383 82.266, 65 81.501 C 72.773 80.883, 93.448 77.508, 96.665 76.332 C 98.369 75.709, 98.359 75.833, 96.524 78.080 C 95.437 79.411, 94.077 80.950, 93.502 81.500 C 92.330 82.621, 86.876 91.808, 78.955 106 C 76.039 111.225, 72.381 117.381, 70.826 119.680 C 69.272 121.979, 68 124.144, 68 124.491 C 68 125.865, 54.299 145.528, 48.620 152.303 C 40.893 161.522, 41.987 160.161, 34.402 170 C 30.798 174.675, 27.187 179.015, 26.377 179.645 C 25.568 180.275, 24.814 182.055, 24.703 183.601 C 24.544 185.796, 25.120 186.716, 27.325 187.797 C 31.852 190.015, 35.133 187.844, 46.326 175.219 C 58.572 161.406, 61.649 157.489, 70.461 144.500 C 74.192 139, 77.302 134.426, 77.372 134.335 C 77.443 134.244, 77.646 163.038, 77.825 198.322 C 78.042 241.091, 78.499 262.896, 79.197 263.738 C 80.752 265.611, 85.449 265.266, 87.375 263.138 C 88.302 262.114, 89.468 258.767, 89.968 255.699 C 91.522 246.147, 92.129 212.760, 91.297 182.500 C 90.859 166.550, 90.655 150.904, 90.844 147.730 L 91.187 141.960 96.465 144.980 C 99.368 146.641, 102.611 148, 103.672 148 C 104.732 148, 106.046 148.446, 106.590 148.990 C 107.135 149.535, 109.694 150.270, 112.276 150.624 C 117.796 151.381, 120 150.070, 120 146.033 C 120 142.746, 118.692 141.547, 109 135.943 C 102.850 132.387, 100.562 131.597, 96.285 131.553 L 91.070 131.500 91.679 124.277 C 92.098 119.315, 91.913 116.600, 91.089 115.608 C 89.968 114.257, 92.020 109.118, 96.921 101 C 105.766 86.349, 107.252 83.402, 107.836 79.350 L 108.500 74.750 115.500 72.901 C 119.350 71.884, 123.497 71.041, 124.715 71.026 C 126.949 71, 129 68.411, 129 65.617 C 129 64.784, 127.936 62.955, 126.635 61.552 C 123.837 58.533, 118.533 58.263, 108 60.603 M 184.579 122.520 C 173.922 125.314, 165.464 129.464, 162.618 133.296 C 160.708 135.867, 160.661 136.306, 162.041 138.764 C 164.626 143.370, 168.801 143.750, 176.621 140.090 C 184.138 136.573, 196.691 133, 201.533 133 C 204.953 133, 208 130.442, 208 127.572 C 208 126.599, 206.602 124.497, 204.894 122.901 C 201.032 119.294, 197.162 119.221, 184.579 122.520 M 191 149.100 C 183.072 151.182, 179.271 152.471, 175 154.524 C 172.525 155.714, 167.695 157.545, 164.266 158.594 C 158.825 160.258, 157.858 160.935, 156.656 163.928 C 155.899 165.813, 155.502 168.204, 155.774 169.242 C 156.462 171.876, 160.565 174.333, 163.252 173.719 C 166.466 172.985, 176.803 169.171, 181.500 166.985 C 183.700 165.962, 188.650 163.924, 192.500 162.458 C 203.886 158.120, 206.702 154.060, 201.096 150.068 C 197.957 147.834, 196.392 147.683, 191 149.100 M 199.200 217.200 C 197.433 218.967, 197.732 223.183, 200.089 229.712 C 202.545 236.518, 206.817 241, 210.847 241 C 218.228 241, 217.127 229.344, 208.954 220.953 C 204.119 215.989, 201.441 214.959, 199.200 217.200 M 178.442 220.765 C 176.336 222.227, 174 226.498, 174 228.885 C 174 231.406, 179.183 240.546, 181.862 242.750 C 184.132 244.617, 188.455 244.260, 190.464 242.040 C 192.170 240.155, 192.138 239.911, 189.619 235.612 C 188.178 233.155, 187 230.314, 187 229.300 C 187 227.481, 181.492 219.986, 180.177 220.015 C 179.805 220.024, 179.024 220.361, 178.442 220.765 M 144.704 225.425 C 140.230 228.819, 142.294 240.985, 148.337 246.842 C 152.997 251.359, 157.216 252.404, 160.466 249.848 C 163.753 247.262, 163.663 245.606, 160.059 242.395 C 158.054 240.609, 156.776 238.181, 156.044 234.771 C 154.089 225.655, 149.447 221.829, 144.704 225.425 M 121.411 236.496 C 119.365 239.618, 119.323 244.330, 121.314 247.327 C 122.109 248.522, 124.651 251.637, 126.964 254.250 C 130.402 258.133, 131.781 259, 134.518 259 C 139.436 259, 139.804 256.378, 136.030 248.230 C 129.578 234.301, 129.731 234.522, 126.312 234.191 C 123.789 233.947, 122.766 234.428, 121.411 236.496" stroke="none" fill="black" fill-rule="evenodd"/>
</svg>