<svg xmlns="http://www.w3.org/2000/svg" width="300" height="300" viewBox="0 0 300 300" version="1.1">
	<path d="M 141.854 42.422 C 141.071 44.140, 141.055 45.718, 141.799 47.854 C 142.376 49.509, 142.623 51.727, 142.347 52.783 C 142.071 53.838, 142.502 55.359, 143.304 56.162 C 144.584 57.441, 142.959 57.769, 130.132 58.818 C 122.084 59.476, 113.475 60.012, 111 60.010 C 104.422 60.002, 93.583 64.117, 93.189 66.771 C 92.631 70.530, 96.119 71.336, 109.938 70.638 C 116.847 70.290, 124.974 69.711, 127.998 69.351 C 132.964 68.761, 133.367 68.853, 132.167 70.299 C 131.437 71.179, 130.987 73.371, 131.169 75.169 L 131.500 78.439 118 80.079 C 103.634 81.825, 97.260 83.951, 93.103 88.385 C 91.038 90.588, 90.894 91.168, 92.064 92.578 C 93.574 94.397, 96.212 94.271, 111 91.673 C 115.675 90.852, 122.313 89.921, 125.750 89.605 C 131.836 89.046, 132 89.094, 132 91.424 L 132 93.817 117.071 94.158 C 103.778 94.463, 101.833 94.730, 99.321 96.600 C 96.376 98.793, 95.136 102.536, 96.802 104.202 C 97.365 104.765, 104.990 105.121, 114.953 105.048 L 132.132 104.923 131.816 108.212 C 131.504 111.462, 131.436 111.503, 126 111.720 C 112.753 112.250, 96.092 114.394, 91.251 116.193 C 87.260 117.676, 85.850 118.750, 85.366 120.679 C 84.419 124.451, 86.392 125.138, 96.500 124.554 C 139.439 122.071, 138.182 121.513, 121 135.419 C 110.027 144.299, 85.270 159.059, 74.750 162.993 C 69.193 165.071, 68.513 165.780, 68.981 169 C 69.316 171.295, 71.033 171.968, 76.601 171.985 C 80.898 171.998, 83.669 171.004, 94.162 165.690 C 101.015 162.220, 109.749 157.282, 113.572 154.717 C 124.997 147.052, 141.656 133.391, 143.608 130.087 C 145.568 126.768, 147.081 126.269, 149.184 128.250 C 159.571 138.037, 189.510 150.142, 214.669 154.725 C 224.859 156.581, 229 155.807, 229 152.044 C 229 149.145, 224.641 146.729, 216.045 144.864 C 199.367 141.247, 179.034 134.146, 168.500 128.261 C 165.200 126.417, 161.263 124.435, 159.751 123.857 C 154.779 121.954, 157.949 121, 169.309 120.980 C 189.069 120.945, 202.285 117.697, 203.574 112.561 C 204.955 107.059, 201.637 103.209, 198.197 106.322 C 195.647 108.629, 186.801 109.987, 174.271 109.994 L 164.043 110 165.224 107.250 C 165.873 105.737, 166.473 104.378, 166.557 104.229 C 166.641 104.080, 170.442 103.301, 175.004 102.499 C 185.247 100.698, 190.404 98.214, 190.759 94.909 C 191.291 89.962, 190.148 89.609, 179.494 91.425 C 174.136 92.338, 169.601 92.934, 169.416 92.749 C 169.231 92.564, 169.323 91.481, 169.620 90.343 C 170.092 88.540, 171.210 88.188, 178.331 87.600 C 192.049 86.469, 196.714 84.369, 195.215 80 C 194.316 77.380, 192.742 77.031, 181.750 77.015 L 171 77 171 74.200 C 171 71.087, 169.410 69, 167.040 69 C 165.088 69, 160 73.626, 160 75.401 C 160 76.748, 153.255 77.974, 145.750 77.991 C 142.844 77.998, 141.999 77.606, 141.994 76.250 C 141.990 75.287, 141.370 73.315, 140.614 71.867 L 139.240 69.235 146.370 68.528 C 150.292 68.140, 160.700 67.445, 169.500 66.983 C 178.300 66.522, 194.202 65.611, 204.837 64.959 C 218.122 64.144, 224.496 64.096, 225.205 64.805 C 225.914 65.514, 224.478 67.473, 220.618 71.065 C 214.766 76.513, 213.469 80.044, 216.666 81.833 C 219.222 83.264, 223.124 81.678, 229.795 76.497 C 241.424 67.467, 241.793 59.154, 230.770 54.548 C 226.197 52.638, 222.059 52.544, 204.500 53.951 C 196.800 54.569, 183.607 55.488, 175.183 55.995 C 166.758 56.501, 157.083 57.186, 153.683 57.516 C 148.950 57.976, 147.910 57.857, 149.250 57.009 C 150.213 56.399, 151.706 54.535, 152.569 52.867 C 155.285 47.615, 151.293 40, 145.824 40 C 143.761 40, 142.648 40.679, 141.854 42.422 M 76.115 58.908 C 74.355 60.023, 75.150 63.397, 79.154 71.807 C 82.876 79.625, 86.204 81.701, 89.161 78.050 C 92.215 74.278, 90.287 68.431, 83.624 61.250 C 80.556 57.945, 78.600 57.334, 76.115 58.908 M 142.630 90.250 C 142.299 91.487, 142.021 92.838, 142.014 93.250 C 141.996 94.217, 155.145 94.203, 156.615 93.235 C 157.229 92.831, 158.046 91.487, 158.433 90.250 C 159.120 88.046, 158.971 88, 151.184 88 C 143.784 88, 143.191 88.156, 142.630 90.250 M 142 108 C 142 110.959, 142.073 111, 147.339 111 C 152.091 111, 152.807 110.719, 153.839 108.453 C 154.478 107.052, 155 105.702, 155 105.453 C 155 105.204, 152.075 105, 148.500 105 L 142 105 142 108 M 141.500 145.833 C 139.850 146.789, 136.475 148.424, 134 149.466 C 123.733 153.790, 111.219 159.836, 110.657 160.746 C 109.881 162.001, 109.094 223.968, 109.774 230.292 C 110.355 235.698, 112.141 237.281, 116 235.811 C 117.375 235.288, 122.775 234.709, 128 234.526 C 133.225 234.343, 140.875 233.428, 145 232.491 C 149.125 231.555, 155.200 230.178, 158.500 229.432 C 169.050 227.046, 184.794 224.872, 189.215 225.191 C 193.305 225.486, 193.517 225.659, 193.864 229 C 194.065 230.925, 193.699 237.450, 193.051 243.500 C 190.346 268.777, 186.508 277.656, 176.811 281.062 C 173.667 282.166, 171.646 282.086, 163.106 280.519 C 152.391 278.553, 150 279.024, 150 283.099 C 150 285.389, 152.559 287.079, 161.249 290.531 C 166.995 292.814, 169.160 293.159, 175.822 292.856 C 182.342 292.559, 184.344 292.038, 187.831 289.731 C 196.635 283.905, 200.913 274.311, 203.526 254.535 C 205.504 239.562, 205.464 224.798, 203.434 220.872 C 201.476 217.087, 195.048 214.045, 189 214.041 C 182.843 214.038, 166.271 216.543, 149.500 220.013 C 138.610 222.265, 129.011 223.859, 124.500 224.163 L 119.500 224.500 119.571 218.500 C 119.611 215.200, 120.019 202.724, 120.479 190.775 C 121.139 173.644, 121.566 169.392, 122.500 170.668 C 123.742 172.368, 127.010 172.342, 158.193 170.389 C 168.777 169.725, 168.881 169.741, 168.327 171.859 C 167.715 174.197, 166.507 174.629, 165.433 172.892 C 164.632 171.595, 152.569 172.354, 138.240 174.603 C 127.724 176.254, 124.973 177.123, 123.097 179.383 C 118.300 185.163, 132.054 187.575, 149.500 184.012 C 161.351 181.592, 162 181.577, 162 183.708 C 162 185.363, 160.917 185.861, 155.250 186.814 C 151.537 187.438, 144.900 188.210, 140.500 188.529 C 130.103 189.282, 128.197 189.805, 127.468 192.099 C 125.613 197.945, 130.624 200.207, 142.630 198.946 C 153.670 197.786, 156.959 197.033, 161.250 194.684 C 164.724 192.783, 165.495 191.486, 165.075 188.250 C 164.985 187.563, 165.798 187, 166.879 187 C 171.948 187, 182 172.857, 182 165.725 C 182 159.575, 180.589 159, 165.501 159 C 158.155 159, 148.625 159.474, 144.322 160.053 C 135.847 161.195, 123.064 165.279, 121.858 167.231 C 121.446 167.897, 120.814 168.148, 120.454 167.788 C 119.116 166.450, 121.143 165.232, 129.215 162.522 C 138.642 159.359, 152.289 153.013, 156 150.068 C 158.041 148.448, 158.297 147.755, 157.396 146.292 C 155.824 143.740, 145.622 143.445, 141.500 145.833 M 131.816 205.369 C 129.239 205.991, 125.877 207.439, 124.344 208.587 C 121.605 210.637, 121.587 210.720, 123.291 213.321 C 125.514 216.713, 129.142 217.593, 134.909 216.139 C 137.434 215.502, 143.746 214.358, 148.936 213.596 C 159.488 212.048, 161.682 210.591, 159.773 206.400 C 158.709 204.065, 158.378 204.003, 147.589 204.119 C 141.490 204.184, 134.392 204.747, 131.816 205.369 M 163.571 243.571 C 162.707 244.436, 162 245.476, 162 245.883 C 162 246.290, 163.940 249.520, 166.312 253.062 C 172.381 262.123, 178.531 265.850, 182.875 263.098 C 184.593 262.010, 184.688 256.729, 183 256.167 C 181.621 255.707, 179.775 253.920, 176 249.389 C 173.272 246.115, 167.796 242, 166.167 242 C 165.604 242, 164.436 242.707, 163.571 243.571 M 140.710 245.693 C 140.446 246.137, 139.919 248.385, 139.538 250.688 C 138.887 254.620, 139.100 255.153, 143.015 259.400 C 147.669 264.450, 150.390 265.751, 152.548 263.960 C 154.482 262.355, 154.381 260.079, 152.273 257.749 C 151.323 256.700, 149.411 253.514, 148.023 250.670 C 146.306 247.152, 144.811 245.402, 143.344 245.193 C 142.159 245.024, 140.973 245.249, 140.710 245.693 M 107.557 250.937 C 106.701 251.883, 106 253.600, 106 254.752 C 106 259.635, 116.262 267.452, 121.826 266.809 C 123.891 266.570, 124.571 265.885, 124.811 263.801 C 125.068 261.582, 124.402 260.647, 121.061 258.539 C 118.828 257.129, 117 255.512, 117 254.946 C 117 253.335, 113.727 250.352, 111.307 249.757 C 109.945 249.422, 108.523 249.869, 107.557 250.937 M 78.655 252.829 C 75.835 255.945, 76.537 261.168, 80.250 264.692 C 85.245 269.432, 89.783 271.420, 92.639 270.119 C 96.892 268.181, 95.583 264.573, 88.814 259.579 C 86.609 257.953, 84.870 255.683, 84.485 253.930 C 83.737 250.526, 81.177 250.042, 78.655 252.829" stroke="none" fill="black" fill-rule="evenodd"/>
</svg>