<svg xmlns="http://www.w3.org/2000/svg" width="300" height="300" viewBox="0 0 300 300" version="1.1">
	<path d="M 185.533 28.533 C 183.590 30.477, 182 32.471, 182 32.966 C 182 33.461, 181.100 34.151, 180 34.500 C 178.845 34.867, 178 36.013, 178 37.214 C 178 39.111, 175.915 42.032, 168.516 50.500 C 167.075 52.150, 163.781 55.944, 161.198 58.931 C 158.614 61.917, 154.002 67.092, 150.949 70.431 C 147.896 73.769, 143.427 78.975, 141.018 82 C 138.609 85.025, 135.066 89.174, 133.145 91.220 C 130.012 94.557, 129.771 95.201, 130.805 97.470 C 131.722 99.484, 132.680 100, 135.500 100 C 138.442 100, 139.929 99.111, 144.275 94.750 C 152.793 86.203, 169.882 67.211, 178.943 56.221 L 187.385 45.981 190.443 48.877 C 195.398 53.571, 208.172 59.766, 223.500 64.908 C 235.839 69.047, 240.341 70.989, 242.184 72.967 C 244.575 75.534, 246.062 75.526, 249.365 72.927 C 254.465 68.916, 251.776 63.213, 242.845 59.097 C 240.455 57.996, 234 55.465, 228.500 53.473 C 212.088 47.529, 207.529 45.475, 197.324 39.430 C 194.301 37.639, 194.175 37.319, 194.711 32.792 C 195.697 24.463, 191.535 22.532, 185.533 28.533 M 92.245 41.873 C 89.444 43.673, 84.038 58.308, 84.012 64.162 C 84.001 66.525, 83.523 66.895, 79.750 67.458 C 66.107 69.494, 59.456 72.335, 58.390 76.580 C 56.777 83.009, 60.621 84.399, 72.870 81.817 C 77.994 80.737, 82.388 80.055, 82.635 80.302 C 82.882 80.549, 82.618 83.619, 82.049 87.125 C 80.670 95.627, 80.730 102.330, 82.200 103.800 C 83.133 104.733, 82.808 105, 80.734 105 C 76.582 105, 71.015 108.093, 70.342 110.774 C 70.014 112.079, 70.266 114.289, 70.902 115.685 C 72.013 118.124, 72.320 118.201, 78.779 117.681 C 82.476 117.383, 88.875 116.216, 93 115.087 C 100.551 113.020, 106.493 112.485, 109.418 113.607 C 110.607 114.063, 111 115.643, 111 119.967 L 111 125.719 96.777 126.441 C 84.117 127.084, 80.076 127.791, 73.750 130.472 C 72.254 131.106, 72 130.643, 72 127.285 C 72 122.294, 69.438 114.707, 67.012 112.511 C 64.615 110.342, 61.852 111.236, 60.250 114.698 C 58.597 118.269, 58.683 130.993, 60.410 138.500 C 61.169 141.800, 62.340 148.483, 63.013 153.350 C 64.189 161.865, 64.354 162.251, 67.368 163.528 C 69.090 164.258, 71.103 165.847, 71.840 167.058 C 73.041 169.032, 73.779 169.207, 78.933 168.740 L 84.686 168.218 84.249 175.859 C 83.506 188.871, 83.248 189.379, 76.937 190.252 C 54.900 193.300, 50.684 195.683, 55.909 202.136 C 57.595 204.218, 58.578 204.472, 64.328 204.312 C 67.909 204.213, 73.426 203.653, 76.589 203.068 C 79.751 202.484, 82.460 202.126, 82.608 202.274 C 82.755 202.422, 83.107 222.098, 83.390 245.999 C 83.865 286.270, 84.034 289.552, 85.694 290.766 C 88.275 292.653, 90.991 291.915, 93.400 288.672 C 95.456 285.904, 95.500 284.951, 95.500 243.672 C 95.500 220.477, 95.843 200.972, 96.261 200.327 C 96.680 199.682, 98.480 198.855, 100.261 198.489 C 106.193 197.272, 114.879 193.791, 116.525 191.973 C 120.448 187.638, 115.427 180.442, 110.593 183.471 C 109.442 184.193, 106.305 185.093, 103.622 185.472 C 100.939 185.851, 98.179 186.378, 97.488 186.643 C 96.567 186.996, 96.329 185.973, 96.596 182.813 C 96.796 180.441, 97.232 175.023, 97.563 170.774 L 98.166 163.048 101.833 162.030 C 103.850 161.469, 107.002 161.009, 108.837 161.006 C 111.624 161.001, 112.360 160.506, 113.306 158 C 113.929 156.350, 114.784 155, 115.207 155 C 115.629 155, 117.076 153.256, 118.421 151.125 C 122.963 143.931, 126.465 119.968, 124.046 112.639 C 120.418 101.648, 111.072 98.297, 93.297 101.615 L 90.094 102.213 91.993 94.857 C 93.037 90.810, 94.157 85.436, 94.482 82.913 C 95.071 78.349, 95.099 78.321, 100.113 77.163 C 102.885 76.523, 106.356 75.996, 107.826 75.990 C 111.049 75.978, 119.965 71.965, 121.862 69.672 C 123.632 67.532, 122.592 63.387, 119.926 61.960 C 118.354 61.119, 115.816 61.346, 109.064 62.931 C 104.218 64.069, 99.462 65, 98.496 65 C 96.650 65, 96.654 64.383, 98.584 52.269 C 99.653 45.558, 95.953 39.489, 92.245 41.873 M 189.952 69.750 C 186.954 71.813, 184.275 73.761, 184 74.081 C 183.293 74.902, 166.128 86.345, 162.418 88.469 C 157.735 91.149, 156.526 93.628, 158.463 96.583 C 159.454 98.096, 161.003 99, 162.603 99 C 165.660 99, 184.550 89.428, 191.252 84.484 C 199.621 78.309, 203.994 70.394, 200.800 67.200 C 198.732 65.132, 195.593 65.870, 189.952 69.750 M 196 92.430 C 191.875 93.085, 186.700 94.213, 184.500 94.937 C 182.300 95.661, 178.475 96.925, 176 97.745 C 173.525 98.566, 169.874 100.506, 167.887 102.056 C 165.630 103.816, 163.921 104.521, 163.333 103.933 C 162.746 103.346, 161.665 103.525, 160.453 104.411 C 158.906 105.542, 158.496 107.112, 158.428 112.164 C 158.381 115.649, 157.834 123.900, 157.212 130.500 C 156.548 137.549, 156.328 149.514, 156.679 159.500 C 157.037 169.672, 156.815 181.182, 156.128 188.158 C 154.829 201.345, 155.503 205.010, 159.225 204.985 C 164.429 204.950, 165.968 201.548, 166.710 188.440 L 167.303 177.966 170.491 178.564 C 172.575 178.955, 176.710 178.238, 182.434 176.492 C 187.249 175.023, 193.893 173.439, 197.198 172.972 C 206.379 171.674, 209.941 166.973, 204.461 163.383 C 200.116 160.535, 178.265 162.870, 170.858 166.973 C 169.955 167.473, 168.942 167.609, 168.608 167.274 C 168.274 166.940, 168 159.409, 168 150.540 L 168 134.413 173.750 133.151 C 176.912 132.456, 183.104 131.531, 187.510 131.094 C 191.915 130.657, 196.955 129.557, 198.710 128.650 C 203.042 126.410, 203.516 126.564, 201.546 129.570 C 199.999 131.931, 199.992 132.338, 201.454 134.570 C 205.377 140.558, 212.735 135.689, 216.073 124.896 C 222.667 103.571, 221.459 95.608, 211.101 92.139 C 207.148 90.815, 206.040 90.836, 196 92.430 M 196.500 105.513 C 192.100 106.213, 184.701 108.184, 180.059 109.893 C 175.416 111.602, 170.747 113, 169.684 113 C 168.051 113, 167.847 113.487, 168.375 116.125 C 168.719 117.844, 169 119.566, 169 119.953 C 169 120.696, 175.631 119.896, 190.500 117.359 C 195.450 116.515, 200.565 115.714, 201.866 115.580 C 203.167 115.447, 204.598 114.682, 205.046 113.882 C 206.294 111.652, 206.627 104.741, 205.500 104.476 C 204.950 104.347, 200.900 104.814, 196.500 105.513 M 104.500 137.590 C 101.750 138.365, 93.733 139.530, 86.684 140.178 L 73.867 141.356 74.184 149.629 C 74.499 157.885, 74.505 157.901, 77 157.313 C 78.375 156.989, 80.301 156.313, 81.280 155.811 C 85.773 153.506, 95.736 151, 100.403 151 C 105.187 151, 105.664 150.774, 107.254 147.750 C 108.793 144.823, 110.808 135.869, 109.878 136.089 C 109.670 136.139, 107.250 136.814, 104.500 137.590 M 187.500 137.439 C 186.950 137.663, 183.908 138.139, 180.740 138.497 C 174.487 139.202, 169 142.697, 169 145.974 C 169 148.418, 173.216 150.999, 177.215 151.003 C 182.251 151.008, 201.340 147.805, 202.750 146.718 C 204.427 145.426, 204.341 140.528, 202.615 139.096 C 201.240 137.954, 189.415 136.658, 187.500 137.439 M 194.500 190.888 C 180.179 191.461, 177.981 191.789, 173.557 194.014 C 167.740 196.940, 166.005 199.199, 167.616 201.750 C 168.589 203.291, 170.497 203.496, 183.611 203.469 C 191.800 203.452, 205.025 203.227, 213 202.969 L 227.500 202.500 227.500 226 C 227.500 244.260, 227.075 252.176, 225.592 261.500 C 222.670 279.882, 221.048 281.693, 210.488 278.365 L 204.773 276.563 202.386 279.337 C 199.490 282.704, 199.471 283.058, 202.011 286.287 C 204.751 289.770, 215.820 293.444, 220.773 292.515 C 228.806 291.008, 233.563 286.422, 236.350 277.500 C 238.979 269.083, 241.037 244.928, 241.018 222.718 C 240.999 200.210, 240.515 197.583, 235.553 193.005 C 233.028 190.675, 232.108 190.501, 221.674 190.379 C 215.529 190.307, 203.300 190.536, 194.500 190.888 M 200.180 226.047 C 197.582 228.468, 197.613 228.137, 199.553 232.782 C 202.961 240.941, 210.305 244.996, 215.504 241.589 C 219.301 239.101, 218.693 236.003, 213.565 231.717 C 211.126 229.678, 207.607 227.111, 205.746 226.012 L 202.361 224.015 200.180 226.047 M 182.989 228.250 C 179.936 233.257, 180.351 238.276, 184.077 241.411 C 187.749 244.501, 189.122 244.628, 191.420 242.089 C 192.803 240.560, 193.008 239.209, 192.445 235.339 C 190.960 225.137, 186.792 222.013, 182.989 228.250 M 128.413 231.493 C 127.455 232.955, 127.020 234.943, 127.361 236.302 C 128.869 242.310, 136.802 250, 141.493 250 C 144.211 250, 147 247.061, 147 244.196 C 147 243.015, 145.425 240.615, 143.500 238.864 C 141.575 237.112, 140 235.154, 140 234.514 C 140 232.443, 135.447 229, 132.709 229 C 130.974 229, 129.477 229.869, 128.413 231.493 M 156.501 232.342 C 154.723 236.599, 155.484 239.668, 159.330 243.750 C 161.932 246.511, 163.091 247, 167.041 247 C 172.773 247, 175.832 244.423, 174.051 241.095 C 173.441 239.956, 171.830 238.745, 170.471 238.403 C 169.112 238.062, 168 237.398, 168 236.926 C 168 235.123, 161.701 229, 159.845 229 C 158.582 229, 157.407 230.175, 156.501 232.342" stroke="none" fill="black" fill-rule="evenodd"/>
</svg>