<svg xmlns="http://www.w3.org/2000/svg" width="300" height="300" viewBox="0 0 300 300" version="1.1">
	<path d="M 175.641 42.250 C 174.868 43.487, 173.980 48.325, 173.668 53 C 173.104 61.444, 170.656 70.388, 167.400 75.899 C 164.559 80.709, 167.621 84.405, 172.576 82.147 C 176.582 80.322, 182.581 69.572, 184.395 60.966 C 184.812 58.989, 185.870 58.181, 189.206 57.291 C 191.558 56.663, 193.647 56.314, 193.849 56.515 C 194.050 56.717, 193.631 59.161, 192.917 61.947 C 191.718 66.623, 191.775 67.223, 193.660 69.756 C 196.270 73.265, 202.556 73.839, 212.500 71.476 C 221.184 69.412, 224 67.704, 224 64.500 C 224 60.821, 220.430 58.904, 215.500 59.938 C 213.300 60.399, 209.868 61.014, 207.874 61.305 C 204.259 61.832, 204.250 61.825, 204.891 58.667 C 205.973 53.339, 205.087 50.198, 201.851 47.894 C 199.249 46.041, 197.872 45.812, 191.901 46.239 C 185.241 46.716, 184.948 46.642, 184.371 44.341 C 183.248 39.868, 177.925 38.593, 175.641 42.250 M 141.500 47.708 C 138.857 48.683, 130.546 49.489, 117 50.084 C 105.725 50.579, 94.700 51.360, 92.500 51.819 C 87.037 52.958, 83.887 55.070, 84.548 57.151 C 84.854 58.116, 84.300 59.398, 83.245 60.165 C 82.236 60.899, 80.636 63.556, 79.691 66.069 C 77.559 71.738, 74.873 97.325, 74.660 114 C 74.521 124.880, 74.759 126.940, 76.500 129.895 C 82.435 139.971, 98.842 143.646, 126.404 141.072 C 147.214 139.129, 157 135.205, 157 128.804 C 157 124.855, 152.903 122.873, 150.059 125.446 C 146.822 128.376, 133.172 130.181, 113 130.348 C 85.483 130.574, 83.544 129.119, 84.561 109 C 85.560 89.220, 87.149 75.497, 89.167 69.214 C 90.278 65.757, 90.982 62.382, 90.731 61.714 C 90.390 60.804, 93.847 60.444, 104.565 60.277 L 118.854 60.054 116.677 62.436 C 115.480 63.746, 112.938 67.833, 111.030 71.518 C 109.121 75.203, 105.634 80.698, 103.280 83.729 C 98.570 89.794, 98.466 90.066, 100.200 91.800 C 103.454 95.054, 110.940 91.224, 115.527 83.957 C 117.956 80.109, 118.034 80.074, 124.244 80.122 C 130.128 80.167, 143.674 77.748, 147 76.058 C 149.455 74.811, 149.352 71.361, 146.807 69.572 C 144.881 68.218, 142.874 68.062, 134.662 68.624 C 125.369 69.261, 124.839 69.193, 125.104 67.399 C 125.531 64.495, 124.100 61.180, 122.203 60.680 C 121.266 60.434, 122.975 60.164, 126 60.081 C 137.542 59.764, 149.797 55.579, 151.397 51.407 C 152.314 49.018, 150.203 45.986, 147.715 46.117 C 146.497 46.181, 143.700 46.897, 141.500 47.708 M 126.470 87.310 C 122.035 91.889, 120.272 92.990, 115.866 93.935 C 109.335 95.336, 106.646 97.470, 108.067 100.126 C 108.752 101.404, 110.171 102, 112.535 102 C 114.441 102, 116 102.250, 116 102.555 C 116 103.205, 112.859 110.320, 109.320 117.685 C 106.265 124.043, 106.535 126.387, 110.373 126.827 C 112.419 127.062, 114.047 126.371, 116.114 124.390 C 117.701 122.870, 119 121.288, 119 120.875 C 119 120.462, 120.237 118.085, 121.750 115.593 C 124.424 111.189, 126.271 110.011, 127.467 111.947 C 128.710 113.958, 137.311 119.061, 142.097 120.626 C 146.065 121.925, 147.641 122.029, 149.626 121.124 C 153.461 119.377, 152.439 115.953, 147.351 113.500 C 142.914 111.361, 133.107 103.994, 133.040 102.750 C 133.018 102.338, 134.070 102, 135.378 102 C 138.282 102, 144.868 99.362, 147.250 97.245 C 149.765 95.010, 149.619 88.401, 147.023 87.012 C 145.582 86.241, 144.498 86.297, 143.023 87.218 C 141.910 87.913, 141 88.779, 141 89.143 C 141 89.507, 139.648 90.276, 137.996 90.851 L 134.993 91.899 135.609 88.045 C 136.136 84.746, 135.906 84.020, 134.008 83.004 C 131.998 81.928, 131.292 82.331, 126.470 87.310 M 192 87.555 C 187.875 89.444, 182.554 91.503, 180.176 92.132 C 176.018 93.231, 175.099 94.153, 170.666 101.676 C 170.268 102.353, 172.096 105.278, 174.965 108.558 L 179.958 114.263 178.229 117.202 C 177.278 118.818, 175.037 121.741, 173.250 123.696 C 169.753 127.522, 169.097 131.006, 171.499 132.999 C 173.701 134.827, 178.091 132.710, 182.885 127.509 L 186.820 123.240 191.160 127.712 C 206.203 143.209, 229.942 151.978, 232.313 142.913 C 232.912 140.619, 229.906 137.005, 227.383 136.985 C 224.307 136.962, 216.787 134.064, 212.500 131.251 C 207.696 128.098, 193.999 114.972, 194.003 113.525 C 194.005 112.961, 196.760 109.350, 200.124 105.500 C 210.398 93.744, 211.691 90.607, 208.056 86.250 C 205.410 83.077, 200.993 83.436, 192 87.555 M 185.789 101.426 C 183.312 102.469, 183.233 102.664, 184.862 103.682 C 186.301 104.580, 186.888 104.410, 187.892 102.801 C 189.484 100.252, 189.128 100.019, 185.789 101.426 M 183.500 143.041 C 178 143.484, 164.275 144.317, 153 144.892 C 120.590 146.545, 115.705 147.468, 112.358 152.576 L 110.716 155.082 108.544 153.041 C 105.850 150.510, 102.827 150.429, 100.655 152.829 C 98.632 155.064, 98.581 156.412, 100.411 159.285 C 102.603 162.728, 109 182.568, 109 185.925 C 109 191.437, 116.301 192.633, 117.630 187.338 C 118.382 184.341, 117.354 173.180, 116.180 171.602 C 115.030 170.056, 112.586 162.080, 113.104 161.563 C 113.339 161.328, 117.003 160.205, 121.247 159.068 C 126.516 157.656, 132.013 157, 138.580 157 L 148.196 157 147.486 163.250 C 147.095 166.688, 146.712 169.576, 146.636 169.669 C 146.559 169.762, 145.290 170.140, 143.817 170.510 C 141.511 171.088, 140.815 170.683, 138.819 167.603 C 137.103 164.956, 135.793 164.022, 133.785 164.012 C 128.432 163.988, 127.343 171.114, 131.917 176.234 C 134.606 179.244, 135.311 179.500, 140.914 179.500 L 146.994 179.500 146.997 184.147 L 147 188.795 138.573 189.147 C 129.788 189.515, 126.451 190.929, 123.352 195.596 C 122.223 197.297, 122.223 197.922, 123.353 199.468 C 124.595 201.167, 125.569 201.239, 135.850 200.402 L 147 199.493 147 205.117 L 147 210.740 142.750 211.835 C 140.412 212.437, 135.853 213.481, 132.618 214.154 C 121.684 216.428, 116.682 222.233, 122.888 225.442 C 126.752 227.440, 128.943 227.374, 137.500 225 C 147.132 222.328, 147.357 222.359, 146.566 226.250 C 144.744 235.211, 144.743 236.092, 146.557 237.418 C 148.128 238.567, 147.624 238.810, 142.423 239.413 C 119.087 242.118, 112.720 243.574, 103.253 248.372 C 97.659 251.206, 95.848 254.277, 98.315 256.744 C 99.677 258.105, 100.711 258.083, 108.168 256.530 C 116.895 254.713, 128.031 252.746, 139 251.084 C 148.219 249.688, 179.386 246.429, 192.982 245.439 C 197.647 245.100, 202.260 244.396, 203.232 243.876 C 205.630 242.593, 205.498 237.761, 203.004 235.504 C 201.258 233.923, 199.852 233.780, 191.754 234.358 C 171.740 235.786, 158.320 236.955, 154.500 237.604 L 150.500 238.284 152.575 235.892 C 153.716 234.576, 155.210 231.475, 155.895 229 C 156.580 226.525, 157.446 223.458, 157.820 222.184 C 158.296 220.561, 160.180 219.189, 164.108 217.603 C 174.911 213.241, 179.414 207.985, 175.608 204.179 C 174.072 202.643, 173.430 202.716, 166.478 205.217 L 159 207.906 159 203.060 C 159 198.081, 159.889 197, 163.985 197 C 164.986 197, 170.012 195.590, 175.153 193.866 C 183.770 190.977, 185.071 190.176, 191.810 183.616 C 199.704 175.932, 205.008 168.784, 210.507 158.418 C 218.341 143.651, 213.085 140.658, 183.500 143.041 M 189.500 153.664 C 181.305 154.659, 180 155.106, 180 156.921 C 180 159.993, 175.019 170.251, 171.345 174.744 C 169.437 177.079, 165.878 180.159, 163.438 181.589 C 159.121 184.119, 157.012 187.994, 160.750 186.527 C 161.713 186.150, 164.750 185.431, 167.500 184.930 C 177.153 183.172, 178.978 182.472, 182.431 179.210 C 184.345 177.401, 187.227 173.972, 188.834 171.591 C 192.224 166.567, 199 154.612, 199 153.654 C 199 152.993, 194.995 152.997, 189.500 153.664 M 163.250 155.732 L 159 156.115 159 164.180 C 159 171.535, 159.144 172.125, 160.637 170.887 C 161.537 170.140, 163.141 167.497, 164.201 165.014 C 165.261 162.531, 167.309 159.262, 168.751 157.750 C 171.077 155.311, 171.155 155.020, 169.437 155.175 C 168.372 155.271, 165.588 155.522, 163.250 155.732 M 196.750 262.080 C 193.937 263.719, 194.639 265.574, 201.073 273.511 C 207.748 281.743, 214.312 286.325, 218.708 285.820 C 223.491 285.271, 222.954 281.371, 217.284 275.486 C 214.641 272.744, 211.220 268.847, 209.680 266.827 C 205.939 261.919, 200.472 259.912, 196.750 262.080 M 165 270 C 162.102 272.898, 162.345 278.436, 165.510 281.600 C 170.276 286.367, 178.530 288.476, 180.960 285.548 C 182.897 283.214, 181.796 280.880, 177.203 277.584 C 174.840 275.888, 172.034 273.038, 170.968 271.250 C 168.713 267.470, 167.735 267.265, 165 270 M 132.241 271.986 C 129.197 276.859, 131.586 283.847, 137.654 287.825 C 144.648 292.410, 148.487 288.597, 143.079 282.437 C 141.385 280.508, 140 278.228, 140 277.370 C 140 275.290, 136.176 270, 134.672 270 C 134.017 270, 132.923 270.894, 132.241 271.986 M 89.994 273.734 C 85.884 278.960, 90.088 286.222, 100.319 291.572 C 105.902 294.491, 109.477 294.224, 110.561 290.806 C 111.094 289.127, 110.586 288.060, 108.378 286.225 C 101.908 280.848, 98 276.647, 98 275.071 C 98 270.566, 93.127 269.752, 89.994 273.734" stroke="none" fill="black" fill-rule="evenodd"/>
</svg>