<svg xmlns="http://www.w3.org/2000/svg" width="300" height="300" viewBox="0 0 300 300" version="1.1">
	<path d="M 69.867 28.133 C 67.827 30.173, 67.760 30.884, 68.346 44.383 C 68.980 58.997, 70.458 67.619, 73.508 74.500 C 74.483 76.700, 75.555 80.253, 75.891 82.395 C 76.286 84.921, 77.385 86.950, 79.016 88.166 C 81.436 89.970, 82.164 89.983, 98.016 88.525 C 122.142 86.305, 121 86.180, 121 91.032 C 121 93.249, 119.911 102.587, 118.579 111.782 C 117.248 120.977, 115.866 131.809, 115.509 135.852 C 115.151 139.896, 114.628 143.807, 114.345 144.543 C 113.955 145.559, 110.880 145.884, 101.573 145.893 C 93.771 145.900, 86.622 146.513, 81.907 147.578 C 74.693 149.208, 66.112 152.573, 65.889 153.860 C 65.828 154.212, 65.627 157.002, 65.442 160.059 C 65.257 163.116, 64.398 167.703, 63.533 170.252 C 62.667 172.800, 61.565 178.030, 61.082 181.873 C 60.600 185.715, 59.869 189.404, 59.457 190.069 C 59.046 190.734, 58.502 197.628, 58.249 205.389 C 57.878 216.728, 58.124 220.679, 59.496 225.500 C 61.970 234.187, 65.160 239.160, 70.006 241.883 C 73.702 243.961, 75.129 244.185, 81.854 243.748 C 90.048 243.215, 99.683 239.596, 103.500 235.618 L 105.500 233.534 106.093 244.517 C 107.211 265.244, 115.652 279.448, 130.597 285.750 C 142.748 290.874, 172.310 293.278, 195 290.987 C 200.225 290.459, 212.150 289.572, 221.500 289.015 C 240.589 287.879, 263.304 284.517, 266.834 282.306 C 268.117 281.502, 269.820 279.283, 270.617 277.374 C 271.961 274.157, 271.912 273.685, 269.949 270.929 C 267.559 267.572, 261.233 263.984, 257.790 264.032 C 254.492 264.078, 252 266.327, 252 269.257 C 252 271.681, 251.634 271.841, 243.750 272.863 C 234.842 274.017, 219.679 275.201, 189 277.140 C 158.649 279.058, 136.561 275.955, 128.108 268.585 C 126.793 267.438, 124.326 263.575, 122.626 260 C 119.585 253.606, 119.529 253.207, 119.175 235.500 C 118.977 225.600, 119.359 211.795, 120.025 204.823 L 121.235 192.146 125.047 189.082 C 127.144 187.397, 129.127 185.174, 129.455 184.142 C 130.357 181.300, 128.358 177.128, 125.785 176.483 C 122.601 175.685, 122.453 177.586, 131.453 103.500 C 132.790 92.500, 134.676 74.162, 135.645 62.750 L 137.406 42 151.123 42 L 164.839 42 164.006 45.250 C 162.187 52.348, 161.737 72.433, 161.881 140.118 C 161.966 179.992, 161.600 215.658, 161.040 222.044 C 159.926 234.739, 160.324 236, 165.448 236 C 170.512 236, 173.114 232.449, 173.737 224.685 L 174.255 218.232 177.878 219.234 C 182.107 220.404, 192.481 219.621, 200.716 217.509 C 208.066 215.624, 211.977 211.587, 214.858 202.913 C 216.812 197.030, 216.976 194.531, 216.847 172.663 C 216.715 150.575, 216.551 148.522, 214.603 144.686 C 213.437 142.391, 210.998 139.683, 209.131 138.611 C 206.031 136.831, 205.032 136.767, 196.631 137.805 C 191.609 138.426, 184.688 139.196, 181.250 139.517 L 175 140.099 174.996 126.800 C 174.994 119.485, 174.703 107.834, 174.350 100.910 L 173.708 88.320 183.604 87.632 C 206.162 86.065, 213.706 85.203, 217.500 83.760 C 219.700 82.923, 222.883 81.718, 224.573 81.083 C 230.946 78.687, 246.616 54.894, 248.526 44.715 C 250.359 34.944, 241.015 26.545, 228.500 26.714 C 133.467 27.994, 94.461 29.994, 86.813 33.980 C 82.130 36.421, 82 36.431, 82 34.344 C 82 33.434, 80.852 31.184, 79.449 29.344 C 76.445 25.406, 73.026 24.974, 69.867 28.133 M 212 41.045 C 206.225 41.436, 195.282 41.810, 187.683 41.877 C 174.272 41.996, 173.884 42.060, 174.510 44.033 C 175.345 46.663, 175.310 63.751, 174.458 69.434 L 173.799 73.829 179.649 73.379 C 182.867 73.132, 193.112 72.543, 202.416 72.071 C 218.499 71.255, 219.421 71.097, 221.165 68.856 C 223.969 65.255, 230.486 53.085, 232.538 47.622 C 234.321 42.872, 234.320 42.707, 232.494 41.372 C 230.520 39.929, 228.900 39.903, 212 41.045 M 107 44.042 C 102.325 44.462, 95.610 45.557, 92.079 46.475 C 88.547 47.393, 84.821 47.925, 83.799 47.658 C 82.207 47.241, 82.015 47.624, 82.458 50.336 C 82.743 52.076, 83.425 56.875, 83.974 61 C 84.524 65.125, 85.350 69.850, 85.811 71.500 L 86.649 74.500 104.575 74.500 L 122.500 74.500 123.617 65 C 124.232 59.775, 125.077 52.688, 125.496 49.250 L 126.258 43 120.879 43.139 C 117.921 43.216, 111.675 43.622, 107 44.042 M 193.500 152.046 C 190.750 152.474, 185.463 152.864, 181.750 152.912 L 175 153 175 164.500 L 175 176 178.285 176 C 180.092 176, 184.929 174.887, 189.035 173.526 C 193.141 172.165, 197.486 171.040, 198.691 171.026 C 199.896 171.012, 201.077 170.662, 201.315 170.250 C 201.553 169.838, 202.063 165.338, 202.449 160.250 C 203.247 149.718, 204.002 150.410, 193.500 152.046 M 89.500 160.559 C 86.200 161.303, 81.770 161.932, 79.656 161.956 L 75.812 162 76.421 166.750 C 76.781 169.567, 76.452 173.898, 75.612 177.395 L 74.195 183.289 87.848 182.666 C 95.356 182.324, 103.419 181.749, 105.764 181.388 C 110.668 180.634, 110.592 180.818, 111.442 167.750 L 112.012 159 103.756 159.102 C 99.215 159.159, 92.800 159.814, 89.500 160.559 M 198 184.907 C 197.175 185.372, 191.793 186.953, 186.039 188.420 C 180.286 189.887, 175.505 191.181, 175.415 191.294 C 175.326 191.407, 175.039 194.969, 174.779 199.210 L 174.306 206.920 178.403 206.494 C 180.656 206.260, 185.265 205.840, 188.645 205.560 C 200.122 204.612, 203 201.603, 203 190.550 C 203 184.967, 202.742 184.004, 201.250 184.030 C 200.287 184.047, 198.825 184.441, 198 184.907 M 101.500 196.196 C 99.300 196.743, 91.875 197.260, 85 197.345 L 72.500 197.500 71.923 203 C 71.199 209.905, 72.622 222.368, 74.563 226.122 C 77.114 231.055, 80.972 231.124, 94.285 226.473 C 101.536 223.940, 102.194 223.866, 103.883 225.394 C 105.620 226.966, 105.724 226.602, 106.336 216.768 C 106.688 211.120, 107.269 203.912, 107.628 200.750 C 108.351 194.374, 108.470 194.462, 101.500 196.196" stroke="none" fill="black" fill-rule="evenodd"/>
</svg>