<svg xmlns="http://www.w3.org/2000/svg" width="300" height="300" viewBox="0 0 300 300" version="1.1">
	<path d="M 93.669 26.275 C 91.377 28.110, 90.902 29.190, 91.169 31.958 C 91.465 35.010, 92.136 35.703, 97.450 38.438 C 103.407 41.504, 105.334 43.641, 102.833 44.408 C 102.100 44.633, 95.854 46.659, 88.953 48.909 C 82.052 51.159, 75.840 53, 75.148 53 C 72.429 53, 64.930 57.177, 63.368 59.562 C 62.047 61.577, 61.941 62.574, 62.837 64.541 C 63.857 66.779, 64.530 67, 70.345 67 C 74.173 67, 78.690 66.251, 81.617 65.132 C 98.608 58.632, 114.421 54.922, 127.859 54.281 L 139.217 53.740 138.497 56.120 C 138.101 57.429, 136.477 60.805, 134.888 63.622 C 133.300 66.439, 132 70.193, 132 71.965 C 132 74.333, 131.476 75.324, 130.025 75.704 C 127.674 76.318, 126.180 82.308, 127.870 84.343 C 129.294 86.060, 126.909 89.563, 124.853 88.774 C 122.968 88.050, 120.312 90.055, 119.148 93.081 C 117.651 96.974, 100.127 102.164, 91.771 101.189 C 89.582 100.934, 88.841 100.142, 88.021 97.186 C 86.528 91.795, 85.575 90.683, 83.114 91.464 C 80.119 92.415, 77.777 97.490, 77.690 103.218 C 77.627 107.409, 78.060 108.521, 80.833 111.289 L 84.050 114.500 94.775 114.390 C 103.728 114.298, 106.739 113.834, 113 111.580 C 125.351 107.134, 128.941 104.027, 128.978 97.750 C 128.997 94.474, 129.301 94, 131.378 94 C 135.192 94, 136.500 91.413, 136.500 83.871 C 136.500 77.228, 136.573 77.033, 139.273 76.440 C 141.088 76.041, 142.749 74.565, 144.083 72.166 C 145.203 70.149, 147.668 66.045, 149.560 63.044 C 152.356 58.609, 153 56.601, 153 52.310 C 153 47.892, 152.525 46.499, 150.083 43.766 L 147.167 40.500 135.333 40.500 C 128.825 40.500, 121.362 40.829, 118.750 41.231 C 114.148 41.939, 114 41.883, 114 39.446 C 114 38.062, 113.252 35.787, 112.337 34.391 C 110.504 31.595, 99.874 23.997, 97.805 24.005 C 97.087 24.008, 95.226 25.029, 93.669 26.275 M 204.134 29.520 C 201.732 30.893, 197.907 33.466, 195.634 35.238 C 191.547 38.422, 189.165 40.590, 174.185 54.750 C 169.967 58.738, 166.062 61.997, 165.508 61.994 C 163.968 61.984, 158.019 69.188, 157.322 71.906 C 156.913 73.502, 157.234 74.698, 158.276 75.460 C 160.262 76.912, 161.597 98.795, 163.387 159.229 C 164.540 198.172, 164.814 202.137, 166.481 203.979 C 168.835 206.581, 172.443 206.557, 175.077 203.923 C 176.272 202.728, 177.820 202.101, 178.721 202.446 C 179.582 202.777, 184.385 202.342, 189.394 201.480 C 197.894 200.017, 201.204 199.147, 217.915 193.983 C 222.107 192.687, 227.178 192, 232.549 192 C 240.060 192, 240.814 192.181, 241.317 194.103 C 242.085 197.041, 240.138 232.932, 239.110 234.767 C 238.085 236.599, 237.359 235.936, 228.100 224.717 C 221.447 216.656, 217.968 214.604, 215.366 217.206 C 213.429 219.142, 213.331 221.538, 214.949 227.319 C 216.767 233.813, 226.947 244.165, 233.250 245.930 L 237.603 247.149 236.819 254.464 C 235.677 265.123, 232.142 275.074, 228.841 276.921 C 226.460 278.253, 225.383 278.220, 218.543 276.608 C 207.466 273.996, 203.351 275.750, 206.243 281.850 C 207.776 285.082, 218.184 290.605, 224.538 291.558 C 231.969 292.672, 235.746 291.394, 241.021 285.978 C 248.948 277.840, 251.551 266.031, 255.014 222.500 C 255.539 215.900, 255.975 205.730, 255.984 199.900 C 255.999 189.650, 255.899 189.160, 252.938 185.074 C 249.048 179.704, 243.362 177.051, 235.678 177.022 C 229.812 177, 211.061 180.844, 204.200 183.475 C 198.603 185.621, 188.073 187.992, 182.806 188.291 L 178.112 188.558 177.582 182.529 C 176.998 175.891, 174.974 120.780, 174.990 111.960 L 175 106.419 184.750 104.728 C 190.113 103.798, 199.605 102.743, 205.845 102.384 L 217.191 101.730 215.509 104.982 C 214.585 106.770, 214.035 109.026, 214.288 109.994 C 214.671 111.457, 213.867 111.858, 209.517 112.369 C 204.641 112.942, 196.027 116.074, 189.846 119.520 C 188.386 120.334, 186.578 121, 185.828 121 C 185.078 121, 182.785 122.141, 180.732 123.536 C 176.048 126.719, 175.620 130.770, 179.635 133.927 C 183.352 136.851, 185.217 136.576, 195.450 131.593 C 208.231 125.369, 214.411 123, 217.864 123 C 222.644 123, 225.466 118.859, 223.161 115.227 C 222.638 114.403, 223.613 112.616, 225.927 110.158 C 227.917 108.044, 230.559 103.514, 231.891 99.931 C 233.206 96.394, 235.343 90.723, 236.641 87.329 C 240.691 76.735, 239.180 69.737, 232.118 66.386 C 227.823 64.348, 214.979 65.064, 203.589 67.977 C 199.482 69.028, 193.371 70.198, 190.009 70.579 C 180.135 71.696, 175.044 76.477, 177.949 81.905 C 180.307 86.310, 190.827 86.051, 209 81.139 C 214.335 79.697, 224 78.872, 224 79.858 C 224 80.339, 223.079 82.951, 221.952 85.660 L 219.905 90.588 211.202 89.736 C 201.904 88.825, 180.065 90.360, 176.701 92.160 C 175.671 92.711, 174.690 93.013, 174.520 92.831 C 174.350 92.649, 174.051 87.358, 173.856 81.073 L 173.500 69.646 179.970 65.216 C 183.528 62.780, 189.717 57.727, 193.721 53.987 C 201.238 46.967, 209.432 41, 211.555 41 C 212.221 41, 213.002 41.900, 213.290 43 C 213.960 45.564, 218.086 45.667, 220.340 43.177 C 221.247 42.174, 222.261 39.362, 222.592 36.927 C 223.084 33.316, 222.795 31.993, 221.025 29.750 C 219.154 27.380, 218.140 27.002, 213.677 27.012 C 210.006 27.021, 207.230 27.750, 204.134 29.520 M 44.701 60.572 C 39.977 65.296, 40.830 72.261, 46.681 76.725 C 48.681 78.251, 52.314 81.611, 54.754 84.191 C 57.194 86.772, 60.478 89.166, 62.053 89.512 L 64.915 90.140 63.095 94.820 C 62.094 97.394, 60.250 103.420, 58.997 108.210 C 56.847 116.427, 56.812 117.065, 58.382 119.460 C 60.367 122.489, 64.909 122.895, 67.216 120.250 C 68.055 119.287, 69.711 115.800, 70.896 112.500 C 72.082 109.200, 73.461 105.600, 73.961 104.500 C 74.461 103.400, 75.783 100.475, 76.898 98 C 78.013 95.525, 80.067 91.482, 81.462 89.015 C 84.241 84.105, 84.586 81.333, 82.718 78.938 C 79.744 75.124, 73.765 76.377, 70.395 81.520 L 68.771 83.998 65.702 79.364 C 64.014 76.816, 60.483 72.677, 57.856 70.166 C 55.228 67.656, 52.597 64.442, 52.010 63.023 C 51.422 61.605, 50.095 59.916, 49.060 59.269 C 47.489 58.288, 46.769 58.503, 44.701 60.572 M 103.103 73.199 C 96.609 80.128, 100.806 89, 110.577 89 C 115.349 89, 119.028 86.478, 118.967 83.250 C 118.917 80.640, 115.476 77, 113.058 77 C 111.892 77, 110.694 76.213, 110.396 75.250 C 108.607 69.459, 107.025 69.014, 103.103 73.199 M 128 117.041 C 125.525 117.485, 119.450 119.275, 114.500 121.020 C 94.216 128.169, 88.388 130, 85.913 130 C 82.960 130, 73.397 133.111, 70.187 135.115 C 68.501 136.168, 67.792 136.192, 66.825 135.225 C 66.151 134.551, 64.806 134, 63.835 134 C 57.728 134, 59.298 149.591, 66.564 161.102 C 67.904 163.224, 69 165.387, 69 165.909 C 69 166.431, 66.638 167.568, 63.750 168.435 C 60.862 169.303, 56.025 171.697, 53 173.756 C 48.575 176.769, 47.441 178.107, 47.197 180.607 C 46.937 183.275, 47.341 183.899, 50.059 185.024 C 53.536 186.465, 52.580 186.708, 77 178.171 C 90.727 173.373, 99.246 170.946, 112 168.201 C 128.718 164.604, 132.084 164, 135.421 164 C 143.138 164, 144.512 153.884, 137.114 151.536 C 135.806 151.121, 135.191 150.493, 135.747 150.141 C 137.408 149.088, 145.660 134.796, 146.972 130.697 C 148.503 125.918, 147.858 123.356, 144.093 119.250 C 140.861 115.726, 137.737 115.297, 128 117.041 M 126.196 131.987 C 124.379 132.417, 121.004 133.490, 118.696 134.371 L 114.500 135.972 114.500 144.972 C 114.500 152.488, 114.747 153.904, 116 153.561 C 116.825 153.334, 118.963 152.855, 120.750 152.495 C 123.167 152.009, 124 151.307, 124 149.758 C 124 148.613, 125.146 145.719, 126.548 143.328 C 127.949 140.937, 129.729 137.185, 130.503 134.991 C 132.042 130.630, 132.012 130.610, 126.196 131.987 M 94.885 141.875 C 90.677 143.357, 90.359 143.694, 91.267 145.702 C 91.814 146.912, 94.228 148.827, 96.631 149.957 C 99.034 151.086, 101.014 152.570, 101.030 153.255 C 101.047 153.940, 101.544 153.669, 102.134 152.654 C 103.515 150.277, 102.316 139.951, 100.678 140.125 C 100.030 140.194, 97.423 140.981, 94.885 141.875 M 72 143.405 C 72 144.260, 77.261 152.340, 78.316 153.106 C 78.776 153.439, 79.402 155.577, 79.707 157.856 C 80.013 160.135, 80.767 161.966, 81.382 161.924 C 83.197 161.800, 89.611 159.159, 88.298 159.076 C 85.737 158.914, 79.969 151.660, 79.357 147.831 C 79.020 145.724, 78.239 143.994, 77.622 143.986 C 77.005 143.979, 75.487 143.701, 74.250 143.370 C 73.013 143.038, 72 143.054, 72 143.405 M 200 144.668 C 187.263 145.570, 184.906 146.143, 181.445 149.182 C 177.350 152.778, 177.076 155.348, 180.546 157.622 C 183.308 159.432, 189.569 159.239, 210.399 156.705 C 221.091 155.403, 222.806 154.347, 221.656 149.767 C 221.213 148, 219.790 146.733, 216.989 145.612 C 213.165 144.082, 210.423 143.930, 200 144.668 M 125.016 184.057 C 123.099 185.126, 120.956 186, 120.252 186 C 119.548 186, 118.079 186.450, 116.986 187 C 115.894 187.550, 114.106 188.450, 113.014 189 C 111.921 189.550, 110.280 190, 109.366 190 C 108.453 190, 105.184 190.851, 102.103 191.890 C 99.021 192.930, 92.450 195.014, 87.500 196.523 C 82.550 198.032, 75.723 200.332, 72.329 201.633 C 68.936 202.935, 65.313 204, 64.279 204 C 63.246 204, 61.860 204.540, 61.200 205.200 C 57.945 208.455, 61.863 217, 66.610 217 C 67.965 217, 75.245 214.968, 82.787 212.485 C 90.329 210.002, 97.662 207.594, 99.083 207.135 L 101.666 206.300 101.610 215.400 C 101.552 224.749, 102.875 234.923, 106.138 250.239 C 107.991 258.938, 108.679 273.013, 107.250 272.985 C 103.067 272.904, 90.717 266.173, 83.930 260.274 C 80.722 257.486, 76.801 255, 75.611 255 C 74.513 255, 70 260.156, 70 261.411 C 70 263.661, 73.965 267.926, 83.205 275.616 C 100.510 290.019, 112.241 293.264, 120.046 285.805 L 123.229 282.764 122.747 270.132 C 122.482 263.184, 121.542 254.575, 120.659 251 C 117.425 237.910, 113.956 216.315, 113.978 209.408 L 114 202.316 121.119 199.523 C 133.348 194.725, 137.622 189.191, 132.961 184.189 C 130.506 181.554, 129.535 181.538, 125.016 184.057 M 196.477 220.394 C 192.820 225.976, 193.735 234.155, 198.675 240.025 C 200.751 242.493, 201.926 243, 205.566 243 C 209.162 243, 210.254 242.541, 211.619 240.459 C 212.952 238.424, 213.061 237.428, 212.163 235.459 C 211.547 234.107, 210.604 233, 210.067 233 C 209.530 233, 208.785 231.313, 208.412 229.250 C 206.651 219.523, 200.189 214.729, 196.477 220.394 M 140.594 223.161 C 139.399 224.557, 138.578 227.477, 138.275 231.411 C 137.872 236.632, 138.144 237.999, 140.181 241 C 145.353 248.620, 161.014 253.432, 164.617 248.507 C 167.162 245.030, 165.922 242.704, 160 239.843 C 154.427 237.150, 149 231.301, 149 227.986 C 149 225.856, 145.281 221, 143.650 221 C 142.987 221, 141.612 221.972, 140.594 223.161 M 173.074 231.411 C 167.896 237.650, 174.203 250, 182.568 250 C 186.665 250, 189.318 247.117, 188.440 243.618 C 188.017 241.933, 187.100 241, 185.867 241 C 184.557 241, 183.768 240.092, 183.377 238.134 C 182.668 234.591, 178.551 230, 176.082 230 C 175.072 230, 173.718 230.635, 173.074 231.411" stroke="none" fill="black" fill-rule="evenodd"/>
</svg>