<svg xmlns="http://www.w3.org/2000/svg" width="300" height="300" viewBox="0 0 300 300" version="1.1">
	<path d="M 141.477 9.393 C 140.010 10.466, 139.571 12.030, 139.571 16.195 C 139.571 22.555, 142.925 30.216, 148.624 36.874 C 151.306 40.007, 151.973 41.399, 151.062 41.962 C 150.372 42.388, 136.707 43.068, 120.694 43.474 L 91.580 44.210 89.502 41.605 C 86.049 37.275, 80 38.555, 80 43.617 C 80 44.836, 79.515 45.995, 78.922 46.193 C 78.329 46.390, 77.766 48.099, 77.672 49.990 C 77.536 52.708, 77.918 53.508, 79.500 53.811 C 80.600 54.022, 81.883 54.556, 82.350 54.997 C 82.818 55.439, 83.733 63.510, 84.383 72.934 C 86.729 106.929, 83.798 138.184, 73.921 184.500 C 72.866 189.450, 71.306 196.875, 70.455 201 C 69.604 205.125, 68.077 212.100, 67.061 216.500 C 66.044 220.900, 64.241 229.225, 63.052 235 C 60.284 248.452, 57.308 258.288, 54.235 264.144 C 51.406 269.534, 51.876 272.680, 55.654 273.628 C 63.946 275.709, 70.601 260.460, 79.493 219 C 80.377 214.875, 81.967 207.675, 83.025 203 C 92.376 161.680, 95.561 139.443, 96.562 108.500 C 97.151 90.271, 95.954 60.408, 94.488 56.750 C 93.828 55.106, 95.713 54.997, 125.643 54.953 C 160.739 54.901, 192.694 53.737, 203.500 52.116 C 217.517 50.013, 230.450 49.050, 231.435 50.035 C 232.911 51.511, 236.673 51.184, 238.429 49.429 C 240.657 47.200, 240.384 42.657, 237.888 40.405 C 236.020 38.721, 234.251 38.514, 222.638 38.618 C 215.412 38.683, 204.550 39.496, 198.500 40.426 C 191.513 41.499, 183.309 42.003, 176.012 41.808 C 165.709 41.532, 164.487 41.307, 164.165 39.625 C 163.967 38.594, 161.826 34.490, 159.407 30.506 C 156.988 26.522, 153.819 20.616, 152.363 17.381 C 148.157 8.032, 145.752 6.267, 141.477 9.393 M 193.832 63.750 C 191.830 66.969, 191.514 68.727, 191.596 76.168 L 191.693 84.835 188.126 85.504 C 182.488 86.562, 175.747 89.061, 172.695 91.226 C 170.469 92.804, 169.952 93.864, 170.195 96.358 C 170.499 99.485, 170.531 99.501, 176.889 99.801 C 180.403 99.967, 185.241 99.684, 187.639 99.173 L 192 98.242 191.930 118.871 C 191.891 130.217, 191.473 140.400, 191 141.500 C 190.359 142.992, 190.123 143.095, 190.070 141.903 C 190.032 141.025, 189.100 139.268, 188 138 C 186.900 136.732, 186 135.414, 186 135.071 C 186 130.005, 183.522 117.129, 182.284 115.761 C 179.040 112.177, 173.713 114.309, 172.351 119.737 C 171.546 122.947, 173.601 134.043, 176.060 139.754 C 178.080 144.447, 181.654 146.513, 186.187 145.610 C 188.520 145.146, 188.916 145.429, 189.187 147.756 C 189.617 151.437, 193.867 153.784, 197.682 152.446 C 202.497 150.758, 203.854 144.220, 204.636 118.955 L 205.308 97.224 209.140 96.076 C 215.014 94.316, 218.450 90.930, 217.640 87.700 C 216.642 83.726, 213.973 82.745, 208.964 84.513 C 206.645 85.331, 204.580 86, 204.374 86 C 204.168 86, 204 83.689, 204 80.865 C 204 74.689, 202.037 62.989, 200.709 61.250 C 198.955 58.952, 196.190 59.958, 193.832 63.750 M 130.880 68.007 C 126.702 70.448, 125.514 74.163, 125 86.392 L 124.500 98.284 119.102 99.971 C 110.003 102.815, 106.374 108.231, 110.681 112.538 C 112.370 114.227, 118.087 114.210, 122.250 112.503 C 123.885 111.833, 124 113.207, 124 133.373 C 124 150.698, 123.689 155.738, 122.423 158.901 C 119.484 166.245, 124.533 170.105, 130.372 164.978 C 134.809 161.082, 136.062 153.885, 136.723 128.500 L 137.244 108.500 139.872 106.286 C 141.317 105.068, 142.881 104.056, 143.346 104.036 C 145.145 103.959, 150.098 99.711, 151.462 97.074 C 153.303 93.513, 152.495 90.547, 149.286 89.084 C 147.260 88.162, 146.410 88.214, 145.120 89.342 C 144.229 90.121, 142.037 91.500, 140.250 92.405 L 137 94.051 137 82.097 C 137 72.563, 136.682 69.825, 135.429 68.571 C 133.625 66.768, 133.111 66.704, 130.880 68.007 M 217.796 110.750 C 211.393 118.153, 208.478 135.129, 212.646 140.744 C 215.690 144.843, 218.829 146.162, 224.205 145.598 C 231.521 144.831, 239 139.487, 239 135.026 C 239 130.096, 235.130 128.641, 229.636 131.506 C 223.516 134.698, 222.450 132.762, 223.485 120.337 C 223.988 114.305, 223.842 111.515, 222.970 110.464 C 221.358 108.521, 219.642 108.616, 217.796 110.750 M 147 117.702 C 146.175 117.948, 144.375 119.560, 143 121.284 C 140.932 123.878, 140.442 125.722, 140.165 131.960 C 139.845 139.155, 139.959 139.620, 142.665 142.114 C 145.987 145.177, 150.889 147, 155.801 147 C 158.703 147, 160.225 146.080, 164.670 141.635 C 169.282 137.022, 169.914 135.941, 169.171 133.933 C 167.665 129.861, 165.761 129.459, 159.680 131.927 C 156.617 133.170, 153.636 133.893, 153.056 133.534 C 151.416 132.521, 151.766 126.304, 153.500 125.638 C 155.298 124.948, 155.404 122.114, 153.714 119.896 C 152.319 118.063, 149.204 117.045, 147 117.702 M 111.691 119.484 C 110.783 120.148, 109.141 122.673, 108.042 125.095 C 105.333 131.066, 105.163 146.823, 107.752 151.989 C 109.821 156.120, 113.717 157.842, 117.750 156.409 C 120.210 155.534, 120.467 155.012, 120.188 151.466 C 120.017 149.285, 119.670 142.100, 119.418 135.500 C 119.166 128.900, 118.463 122.525, 117.856 121.334 C 116.496 118.665, 113.883 117.881, 111.691 119.484 M 172.500 165.446 C 167.550 166.125, 159.450 168.074, 154.500 169.776 C 126.814 179.300, 124 180.642, 124 184.323 C 124 189.133, 127.577 190.064, 136.412 187.555 C 147.357 184.445, 153.398 183.065, 153.893 183.559 C 154.177 183.844, 153.825 185.522, 153.110 187.288 C 152.395 189.055, 151.378 192.361, 150.849 194.636 C 149.721 199.485, 148.315 199.998, 136.125 200.004 C 130.288 200.007, 127.738 200.472, 125.250 201.989 C 121.399 204.337, 120.951 207.747, 124.118 210.595 C 125.947 212.240, 127.655 212.475, 136.618 212.315 C 146.687 212.135, 147 212.195, 146.985 214.315 C 146.960 217.889, 145.805 218.662, 139.500 219.332 C 136.200 219.682, 130.133 221.005, 126.017 222.271 C 120.215 224.057, 118.194 225.182, 117.017 227.279 C 115.857 229.346, 115.764 230.397, 116.620 231.741 C 117.810 233.609, 123.714 233.704, 139.084 232.103 L 145.667 231.418 146.782 242.959 C 148.608 261.856, 153.654 272.814, 163.937 280.213 C 172.916 286.674, 175.416 287.094, 207 287.456 C 237.906 287.809, 241.219 287.367, 244.441 282.450 C 246.723 278.966, 246.379 273.986, 243.617 270.534 C 241.470 267.851, 240.996 267.681, 238.649 268.750 C 237.223 269.400, 235.792 270.980, 235.470 272.262 L 234.886 274.591 207.607 274.493 L 180.328 274.395 174.764 271.673 C 168.359 268.539, 164.557 264.067, 162.026 256.690 C 160.022 250.849, 157.376 232.291, 158.401 231.266 C 158.768 230.899, 166.590 231.321, 175.784 232.203 C 199.422 234.473, 209 232.712, 209 226.098 C 209 221.392, 206.587 220.944, 172.750 219.363 L 159 218.720 159 215.483 C 159 211.127, 160.296 210.313, 168.500 209.519 C 178.106 208.590, 192.770 205.256, 197 203.040 C 200.050 201.442, 200.500 200.726, 200.500 197.462 C 200.500 192.176, 198.420 191.107, 192.298 193.248 C 188.634 194.528, 169.996 196.970, 163.683 196.997 C 162.702 197.001, 163.334 194.663, 166.691 185.868 L 169.223 179.236 176.362 178.560 C 185.843 177.662, 190.315 176.415, 192.431 174.076 C 194.756 171.507, 193.697 168.396, 189.661 165.935 C 186.091 163.758, 185.033 163.728, 172.500 165.446" stroke="none" fill="black" fill-rule="evenodd"/>
</svg>