<svg xmlns="http://www.w3.org/2000/svg" width="300" height="300" viewBox="0 0 300 300" version="1.1">
	<path d="M 156.032 9.466 C 152.605 13.114, 153.561 21.470, 158.478 30.826 C 163.248 39.904, 165.172 41.698, 168.504 40.180 C 171.599 38.770, 171.714 36.057, 169.019 28.057 C 167.930 24.823, 166.745 19.549, 166.386 16.338 C 165.365 7.189, 160.934 4.248, 156.032 9.466 M 220.500 35.649 C 218.850 35.840, 212.775 36.659, 207 37.469 C 185.685 40.455, 157.598 43.792, 131 46.498 C 122.475 47.365, 110.543 48.733, 104.484 49.537 C 98.426 50.342, 92.103 51, 90.434 51 C 88.765 51, 86.860 51.540, 86.200 52.200 C 84.291 54.109, 84.805 57.750, 87.223 59.443 C 89.999 61.388, 92.532 61.402, 107.500 59.553 C 114.100 58.737, 126.925 57.358, 136 56.487 C 166.091 53.601, 195.236 50.013, 209.500 47.441 C 213.900 46.648, 219.075 45.973, 221 45.943 C 229.793 45.803, 234.811 41.321, 230.888 37.110 C 228.978 35.060, 227.431 34.842, 220.500 35.649 M 82.039 62.453 C 81.170 63.500, 81.147 64.849, 81.950 67.682 C 82.544 69.782, 83.299 81.625, 83.627 94 C 84.656 132.768, 81.743 173.576, 75.383 209.500 C 74.604 213.900, 73.487 220.200, 72.900 223.500 C 69.579 242.187, 66.304 253.527, 63.021 257.700 C 60.588 260.793, 60.541 261.398, 62.571 263.429 C 64.954 265.812, 67.896 265.323, 70.969 262.033 C 76.393 256.227, 78.035 250.754, 85.454 213.750 C 90.044 190.853, 92.541 164.261, 93.927 123.500 C 94.958 93.155, 94.438 83.364, 91.244 73 C 88.413 63.817, 84.566 59.408, 82.039 62.453 M 145.736 69.250 C 143.033 71.303, 142 75.632, 142 84.909 L 142 93.687 133.250 95.474 C 128.438 96.457, 122.700 97.622, 120.500 98.065 C 118.300 98.507, 114.700 99.342, 112.500 99.919 C 110.300 100.495, 107.263 101.208, 105.750 101.503 C 102.355 102.164, 101.973 105.973, 105 109 C 107.355 111.355, 110.025 111.504, 116.072 109.620 C 119.954 108.410, 128.636 106.440, 138.621 104.503 L 141.742 103.898 142.860 111.416 C 143.475 115.551, 144.095 119.420, 144.239 120.014 C 144.383 120.608, 138.440 123.123, 131.034 125.604 C 123.628 128.084, 116.991 130.593, 116.284 131.179 C 115.578 131.765, 115 133.531, 115 135.103 C 115 139.962, 117.329 139.840, 145.500 133.512 C 160.818 130.071, 175.680 128, 185.050 128 C 204.688 128, 214.629 123.499, 208.081 117.573 C 206.549 116.187, 205.083 115.959, 200.831 116.445 C 197.899 116.780, 189.875 117.229, 183 117.443 C 176.125 117.656, 166.832 118.155, 162.348 118.551 L 154.196 119.271 153.483 111.658 C 153.090 107.470, 152.998 103.447, 153.278 102.718 C 153.770 101.436, 162.155 99, 166.076 99 C 167.758 99, 168 99.745, 168 104.918 C 168 112.671, 168.596 114, 172.072 114 C 175.833 114, 177.323 111.235, 177.981 103.041 L 178.500 96.581 189.289 94.383 C 195.224 93.173, 200.761 91.922, 201.594 91.602 C 202.427 91.283, 206.122 90.550, 209.804 89.974 C 213.487 89.398, 217.244 88.702, 218.153 88.427 C 221.784 87.328, 216.842 100.186, 210.947 107.177 C 206.654 112.269, 206.031 114.932, 208.750 116.579 C 215.706 120.794, 230.884 101.349, 231.316 87.668 C 231.482 82.407, 231.225 81.600, 228.694 79.418 C 225.162 76.374, 222.973 76.393, 208.354 79.600 C 201.834 81.031, 194.475 82.582, 192 83.048 C 189.525 83.514, 185.928 84.369, 184.007 84.948 C 182.085 85.527, 180.398 86, 180.257 86 C 180.115 86, 180 82.940, 180 79.200 C 180 71.935, 179.026 70, 175.368 70 C 172.045 70, 169.350 74.619, 168.366 82 L 167.500 88.500 163.500 89.128 C 161.300 89.474, 157.974 90.106, 156.109 90.532 L 152.718 91.306 153.418 82.363 C 154.059 74.160, 153.941 73.194, 151.986 70.709 C 149.630 67.714, 148.199 67.380, 145.736 69.250 M 168.732 138.195 C 165.289 142.833, 161.184 151.998, 160.425 156.743 C 159.630 161.715, 162.225 171.241, 165.581 175.672 C 166.902 177.417, 170.575 180.117, 173.742 181.672 C 181.388 185.427, 192.316 185.574, 201.781 182.049 C 205.235 180.762, 208.299 179.325, 208.590 178.855 C 208.880 178.385, 209.983 178, 211.040 178 C 213.256 178, 214.549 174.304, 213.494 170.982 C 212.892 169.084, 212.240 168.872, 208.154 169.247 C 205.594 169.482, 200.590 170.473, 197.033 171.450 C 186.805 174.260, 176.728 172.087, 174.194 166.526 C 173.332 164.634, 173.724 164.112, 177.532 162.093 C 183.607 158.869, 192.724 150.065, 193.579 146.595 C 195.133 140.286, 190.307 138.280, 185.082 143.064 C 180.585 147.182, 174.104 151.437, 173.401 150.734 C 173.094 150.427, 173.644 147.632, 174.625 144.522 C 175.937 140.360, 176.127 138.424, 175.346 137.184 C 173.575 134.372, 171.314 134.718, 168.732 138.195 M 120.691 145.945 C 117.884 150.697, 114.287 161.095, 113.541 166.614 C 112.614 173.470, 114.387 179.587, 118.490 183.690 C 121.534 186.734, 122.305 187, 128.077 187 C 133.332 187, 135.668 186.364, 142.427 183.092 C 155.469 176.778, 158.360 173.503, 154.395 169.537 C 152.710 167.853, 151.301 168.030, 145 170.713 C 135.465 174.774, 131.494 176, 127.870 176 C 124.758 176, 123.564 173.579, 124.172 168.500 C 124.459 166.102, 125.626 165.259, 133.500 161.765 C 159.275 150.326, 159.845 149.948, 157.869 145.612 C 156.621 142.873, 154.633 142.393, 150.797 143.906 C 149.534 144.404, 145.415 145.767, 141.644 146.934 C 137.873 148.101, 132.951 149.943, 130.706 151.028 C 128.461 152.113, 126.520 153, 126.393 153 C 126.265 153, 126.605 151.394, 127.146 149.432 C 128.892 143.111, 123.944 140.439, 120.691 145.945 M 151.294 188.678 C 150.378 190.780, 149.442 195.695, 149.213 199.599 L 148.797 206.698 139.430 206.599 C 131.090 206.511, 129.826 206.737, 127.898 208.662 L 125.732 210.823 128.167 213.258 L 130.602 215.693 124.551 218.047 C 116.406 221.217, 114.089 222.797, 113.367 225.674 C 112.580 228.809, 115.253 230.925, 120.053 230.968 C 122.007 230.986, 128.420 229.253, 134.303 227.117 C 140.186 224.981, 145 223.604, 145 224.055 C 145 224.507, 143.762 226.233, 142.250 227.890 C 140.738 229.548, 138.601 232.613, 137.503 234.702 C 133.459 242.394, 121.373 259.596, 117.168 263.644 C 114.025 266.670, 112.928 268.457, 113.168 270.157 C 113.454 272.174, 114.141 272.542, 118.108 272.799 C 122.368 273.075, 123.047 272.772, 127.108 268.773 C 133.467 262.510, 142.287 250.535, 146.261 242.765 L 149.706 236.031 150.347 244.265 C 150.700 248.794, 150.991 257.802, 150.994 264.281 C 150.999 273.699, 150.707 276.175, 149.538 276.624 C 147.147 277.541, 146.634 280.939, 148.565 283.072 C 151.646 286.477, 156.178 285.394, 158.787 280.629 C 160.256 277.946, 160.571 273.369, 161 248.532 L 161.500 219.564 166.500 218.269 C 183.769 213.794, 190 210.733, 190 206.726 C 190 203.101, 186.841 201.783, 181.546 203.199 C 176.881 204.447, 174.782 203.818, 176.817 201.783 C 179.428 199.172, 176.816 193, 173.100 193 C 170.601 193, 168.749 195.995, 169.360 199.050 C 169.686 200.679, 169.441 203.133, 168.816 204.505 C 167.897 206.521, 166.957 207, 163.919 207 L 160.159 207 159.551 200.250 C 158.446 187.991, 157.741 185.535, 155.228 185.178 C 153.423 184.921, 152.618 185.638, 151.294 188.678 M 165.750 229.574 C 163.989 231.358, 165.282 233.918, 169.250 236.504 C 171.588 238.027, 176.481 241.463, 180.124 244.138 C 185.935 248.405, 193.869 252.538, 212.500 261.001 C 221.575 265.123, 231.431 268.200, 236.041 268.351 C 241.222 268.521, 246 266.001, 246 263.099 C 246 260.388, 244.303 259.415, 236.500 257.655 C 232.650 256.787, 227.700 255.214, 225.500 254.160 C 223.300 253.106, 218.125 250.803, 214 249.041 C 209.875 247.279, 199.170 242.229, 190.211 237.819 C 174.933 230.297, 167.507 227.794, 165.750 229.574" stroke="none" fill="black" fill-rule="evenodd"/>
</svg>