<svg xmlns="http://www.w3.org/2000/svg" width="300" height="300" viewBox="0 0 300 300" version="1.1">
	<path d="M 100.549 13.310 C 98.228 18.054, 95.756 28.893, 93.327 44.978 L 92.500 50.456 86 52.209 C 82.425 53.173, 75.675 54.611, 71 55.404 C 60.497 57.185, 59.585 57.538, 58.042 60.422 C 56.345 63.593, 57.041 66.196, 60.009 67.776 C 63.314 69.535, 79.045 68.528, 86.806 66.060 L 92.500 64.250 93.162 68.875 C 93.527 71.419, 93.864 81.487, 93.912 91.250 C 94 109, 94 109, 92 107 C 90.900 105.900, 89.377 105, 88.615 105 C 87.853 105, 86.447 103.805, 85.490 102.345 C 84.533 100.884, 82.592 98.693, 81.175 97.474 L 78.600 95.259 80.300 89.145 C 82.529 81.127, 82.445 77.835, 79.927 74.635 C 78.411 72.708, 76.938 72, 74.441 72 C 71.531 72, 70.825 72.482, 69.662 75.267 C 68.911 77.063, 67.981 80.642, 67.594 83.219 C 66.497 90.535, 54.881 115.945, 50.190 121.288 C 49.265 122.342, 48.596 125.010, 48.560 127.788 C 48.501 132.424, 48.554 132.505, 51.877 132.823 C 55.886 133.206, 60.232 129.519, 65.225 121.500 C 66.937 118.750, 69.519 114.650, 70.963 112.389 L 73.589 108.278 77.544 111.625 C 79.720 113.465, 82.997 115.260, 84.827 115.611 C 88.816 116.379, 92.946 114.720, 93.141 112.271 C 93.218 111.297, 93.578 112.966, 93.940 115.981 C 94.563 121.158, 94.388 121.779, 90.800 127.182 C 88.710 130.329, 87 133.154, 87 133.461 C 87 133.767, 84.559 137.802, 81.575 142.427 C 76.121 150.882, 66.820 160.795, 46.650 179.652 C 37.203 188.484, 35.891 190.100, 36.501 192.148 C 37.448 195.326, 39.957 197.133, 42.448 196.430 C 47.138 195.106, 70.270 176.695, 79.557 166.893 C 82.889 163.377, 87.097 158.327, 88.909 155.672 L 92.204 150.843 94.563 153.059 C 96.391 154.777, 97.690 155.150, 100.342 154.719 C 102.390 154.387, 104.859 154.733, 106.495 155.582 C 107.998 156.361, 113.564 158.206, 118.864 159.680 C 126.683 161.856, 130.715 162.375, 140.247 162.431 L 151.994 162.500 151.997 167.125 C 151.999 169.669, 152.249 173.044, 152.554 174.625 C 153.014 177.015, 152.607 177.829, 150.138 179.452 C 148.218 180.713, 147.008 182.482, 146.716 184.452 C 146.079 188.754, 146.809 190, 149.969 190 C 152.575 190, 152.761 190.309, 153.392 195.679 C 153.759 198.802, 153.544 210.055, 152.913 220.686 C 151.659 241.847, 151.868 243, 156.967 243 C 161.882 243, 162.793 240.700, 164.460 224.075 C 165.307 215.630, 166 203.625, 166 197.398 L 166 186.077 169.750 185.067 C 174.706 183.731, 182.069 181.420, 184.233 180.520 C 185.788 179.873, 185.856 180.144, 184.901 183.150 C 184.315 184.992, 183.485 187.400, 183.058 188.500 C 181.448 192.642, 178.984 204.644, 178.992 208.300 C 179.015 219, 187.345 223.750, 197.780 219.014 C 202.265 216.978, 212.150 209.748, 215.405 206.122 C 217.801 203.453, 218.691 203.451, 219.535 206.111 C 219.904 207.271, 221.786 209.971, 223.719 212.111 C 228.404 217.297, 233.055 217.454, 235.755 212.518 C 236.638 210.903, 236.200 209.394, 233.385 204.360 C 231.419 200.845, 229.286 195.021, 228.434 190.842 C 226.987 183.748, 224.629 180, 221.612 180 C 218.870 180, 215.981 183.268, 215.375 187.055 C 215.028 189.225, 214.381 191, 213.938 191 C 213.494 191, 209.839 193.602, 205.816 196.782 C 201.792 199.963, 197.016 203.609, 195.202 204.885 L 191.904 207.205 192.545 201.852 C 192.897 198.909, 194.232 192.900, 195.511 188.500 C 196.790 184.100, 198.092 179.323, 198.404 177.884 C 198.866 175.751, 199.850 175.046, 203.735 174.063 C 206.356 173.400, 211.425 172.002, 215 170.955 C 224.840 168.075, 231.506 166.829, 235.183 167.182 L 238.500 167.500 238.500 202.500 L 238.500 237.500 235.750 240.205 C 234.238 241.692, 233 243.851, 233 245.002 C 233 248.087, 237.710 252, 241.424 252 C 245.851 252, 248.550 249.738, 250.667 244.252 C 252.326 239.951, 252.500 235.984, 252.500 202.500 L 252.500 165.500 249.778 160.870 C 247.768 157.451, 245.963 155.802, 242.878 154.568 C 238.903 152.977, 238.183 152.999, 228.100 155.011 C 222.270 156.175, 214.708 157.773, 211.294 158.563 C 207.881 159.353, 204.673 160, 204.165 160 C 203.657 160, 204.386 154.596, 205.785 147.991 C 208.017 137.451, 208.160 135.667, 206.954 133.413 C 205.187 130.112, 202.669 128.794, 199.602 129.564 C 197.537 130.082, 197.061 130.965, 196.493 135.338 C 195.358 144.066, 190.815 163.436, 189.626 164.618 C 188.260 165.975, 170.697 172, 168.108 172 C 165.995 172, 165.039 168.006, 164.996 159 C 164.965 152.500, 162.961 146.117, 160.523 144.753 C 157.809 143.234, 154.358 145.386, 153.024 149.428 C 152.073 152.310, 151.529 152.818, 150.174 152.094 C 149.253 151.601, 142.875 150.185, 136 148.948 C 129.125 147.710, 120.125 145.962, 116 145.062 L 108.500 143.426 108 126.649 C 107.504 110.008, 107.519 109.855, 109.858 107.686 C 111.155 106.484, 114.241 102.676, 116.715 99.224 L 121.213 92.948 125.580 95.389 C 127.981 96.731, 131.262 98.118, 132.870 98.471 C 134.477 98.824, 136.584 99.988, 137.551 101.057 C 140.890 104.746, 146 102.639, 146 97.573 C 146 93.086, 136.247 87, 129.055 87 C 124.578 87, 124.357 86.564, 126.411 81.784 C 128.427 77.090, 132.006 63.596, 131.967 60.836 C 131.916 57.263, 128.658 54, 125.141 54 C 121.488 54, 117 59.167, 117 63.373 C 117 66.954, 111.476 83.569, 109.001 87.430 L 107.034 90.500 107.017 74.466 L 107 58.432 113.981 55.716 C 117.820 54.222, 121.533 52.996, 122.231 52.990 C 124.876 52.970, 133.888 48.078, 134.956 46.083 C 136.288 43.594, 135.012 40.612, 131.903 38.948 C 129.840 37.844, 121.725 39.703, 111.625 43.592 C 109.494 44.412, 107.652 44.952, 107.533 44.792 C 107.413 44.631, 107.708 36.913, 108.189 27.641 C 109.105 9.983, 108.778 8, 104.951 8 C 103.765 8, 102.257 9.819, 100.549 13.310 M 196.655 23.829 C 194.186 26.557, 194.642 30.517, 197.850 34.215 C 199.417 36.022, 201.028 38.845, 201.429 40.490 C 203.187 47.695, 211.022 46.140, 212.595 38.274 C 213.370 34.400, 211.590 28.854, 208.325 24.975 C 205.311 21.392, 199.386 20.810, 196.655 23.829 M 228.500 44.918 C 218.402 48.580, 205.187 51.668, 196.500 52.396 C 192.650 52.718, 186.575 53.821, 183 54.847 C 179.425 55.872, 173.800 57.048, 170.501 57.459 C 164.616 58.192, 159.716 60.033, 158.527 61.956 C 158.197 62.490, 158.843 63.843, 159.964 64.964 C 161.741 66.741, 163.274 67, 172 67 L 182 67 179.938 69.062 L 177.876 71.124 179.938 74.619 C 181.072 76.542, 182 78.582, 182 79.153 C 182 79.724, 182.942 81.514, 184.093 83.130 L 186.185 86.069 183.706 89.284 C 180.180 93.859, 177.025 96.828, 173 99.362 C 168.546 102.165, 167.645 106.534, 171.239 107.901 C 176.894 110.051, 186.536 105.899, 192.046 98.942 C 193.763 96.774, 195.721 95, 196.397 95 C 197.073 95, 198.919 96.350, 200.500 98 C 202.258 99.835, 204.389 101, 205.987 101 C 211.956 101, 212.660 95.461, 207.543 88.760 C 204.205 84.388, 204.149 84.175, 205.935 82.559 C 207.524 81.121, 209.351 77.702, 216.345 63.088 C 217.177 61.349, 219.403 60.035, 224.306 58.384 C 236.691 54.216, 240.259 50.857, 237.870 45.615 C 236.479 42.561, 235.250 42.470, 228.500 44.918 M 191.748 65.474 C 184.572 66.581, 180.419 68, 184.356 68 C 185.285 68, 187.976 69.781, 190.337 71.957 L 194.630 75.914 197.815 70.658 C 201.058 65.306, 201.587 63.891, 200.250 64.139 C 199.838 64.216, 196.012 64.816, 191.748 65.474 M 224 78.842 C 221.853 81.324, 219 90.153, 219 94.316 C 219 98.185, 217.481 99.668, 209 104.079 C 197.646 109.985, 190.057 111.946, 175.786 112.665 C 166.172 113.149, 162.698 112.995, 161.536 112.030 C 159.712 110.516, 159.557 105.210, 161.081 96.455 C 161.981 91.287, 161.886 89.432, 160.517 85.397 C 157.978 77.919, 156.280 76.612, 152.600 79.303 C 148.476 82.319, 145.419 109.280, 148.394 116.400 C 150.010 120.268, 155.330 124.647, 160.147 126.074 C 166.302 127.898, 184.680 127.245, 192.976 124.908 C 203.997 121.804, 205.575 121.110, 213.773 115.758 L 221.232 110.889 220.763 114.695 C 220.505 116.788, 220.677 119.540, 221.146 120.810 C 221.860 122.749, 222.596 123.071, 225.723 122.810 C 229.193 122.521, 229.577 122.157, 231.301 117.500 C 232.976 112.979, 233.074 110.823, 232.327 95 L 231.500 77.500 228.500 77.304 C 226.697 77.186, 224.901 77.800, 224 78.842 M 91.282 169.515 C 89.425 170.815, 81.017 186.516, 80.991 188.730 C 80.986 189.153, 77.668 194.425, 73.618 200.445 C 66.719 210.698, 66.040 211.393, 62.877 211.445 C 60.017 211.492, 59.454 211.891, 59.202 214.057 C 58.936 216.346, 60.421 217.604, 73.360 226.046 C 89.880 236.825, 89.203 234.845, 80.392 246.636 C 75.160 253.637, 69.752 259, 67.923 259 C 66.569 259, 66.796 265.396, 68.200 266.800 C 70.463 269.063, 74.704 268.092, 79.660 264.174 C 84.892 260.039, 93.588 250.408, 96.635 245.373 L 98.528 242.246 120.014 252.873 C 141.049 263.277, 143.837 264.558, 153 268.027 C 178.250 277.586, 192.342 281.367, 211 283.589 C 232.151 286.107, 243.486 284.980, 247.099 279.998 C 250.205 275.713, 250.421 272.601, 247.820 269.577 C 245.090 266.404, 243.209 266.789, 240.797 271.016 C 239.240 273.743, 238.637 273.998, 233.797 273.980 C 225.154 273.948, 204.148 271.162, 196.289 269.006 C 192.268 267.903, 188.155 267, 187.150 267 C 183.322 267, 156.993 258.321, 147 253.765 C 137.041 249.225, 118.681 239.932, 117 238.581 C 116.175 237.918, 113.585 236.546, 111.244 235.533 C 108.904 234.520, 106.519 233.125, 105.944 232.433 C 105.182 231.514, 106.905 227.169, 112.328 216.337 C 122.088 196.843, 123.380 193.001, 121.871 187.964 C 119.935 181.501, 112.655 179.394, 102.659 182.402 C 97.671 183.903, 97.075 183.341, 99.588 179.505 C 101.592 176.448, 100.673 171.585, 97.698 169.501 C 95.010 167.618, 93.987 167.620, 91.282 169.515 M 97.129 197.379 C 89.240 200.977, 87.056 202.511, 83.324 207.076 C 80.885 210.059, 78.008 213.253, 76.929 214.174 C 75.032 215.791, 75.209 215.970, 82.234 219.533 C 86.230 221.560, 90.082 223.690, 90.792 224.267 C 91.565 224.893, 92.440 224.950, 92.967 224.408 C 94.853 222.466, 107.228 199.142, 108.436 195.250 C 109.407 192.123, 108.126 192.364, 97.129 197.379" stroke="none" fill="black" fill-rule="evenodd"/>
</svg>