<svg xmlns="http://www.w3.org/2000/svg" width="300" height="300" viewBox="0 0 300 300" version="1.1">
	<path d="M 120.895 8.661 C 120.012 8.898, 118.809 10.083, 118.221 11.295 C 115.981 15.917, 113 27.514, 113 31.603 C 113 39.629, 112.170 40.500, 102.324 42.807 C 97.471 43.945, 91.271 45.132, 88.547 45.446 C 81.224 46.291, 77.453 47.963, 75.530 51.218 C 73.133 55.276, 74.184 58.576, 78.307 59.936 C 80.946 60.807, 83.219 60.638, 89.557 59.098 C 93.926 58.037, 99.525 56.873, 102 56.511 C 104.475 56.150, 107.287 55.631, 108.250 55.360 C 109.871 54.902, 110 56.225, 110 73.373 L 110 91.881 107.250 90.447 C 105.737 89.658, 103.600 88.994, 102.500 88.971 C 101.400 88.948, 99.375 88.286, 98 87.500 C 96.625 86.714, 94.193 86.055, 92.595 86.035 C 89.899 86.003, 89.803 85.874, 91.257 84.250 C 92.120 83.287, 94.439 80.092, 96.412 77.150 C 99.295 72.850, 100 70.850, 100 66.971 C 100 61.864, 98.245 59, 95.117 59 C 93.096 59, 89.012 62.517, 88.975 64.289 C 88.961 64.955, 86.489 68.425, 83.481 72 C 80.473 75.575, 75.197 82.041, 71.756 86.368 C 68.315 90.696, 62.513 97.946, 58.862 102.479 C 55.211 107.012, 51.923 111.667, 51.556 112.823 C 50.423 116.393, 52.598 119, 56.708 119 C 59.886 119, 61.175 118.145, 66.922 112.223 C 70.540 108.496, 75.308 103.252, 77.519 100.570 C 81.016 96.327, 81.794 95.837, 83.519 96.793 C 86.953 98.698, 102.380 101.123, 106.686 100.434 L 110.748 99.785 111.484 115.492 L 112.220 131.200 107.860 135.695 C 103.435 140.257, 92.913 148, 91.138 148 C 90.604 148, 90.017 148.383, 89.833 148.850 C 89.650 149.318, 85.675 152.463, 81 155.840 C 76.325 159.218, 71.220 162.997, 69.655 164.240 C 64.177 168.592, 51.550 175.862, 48.465 176.441 C 42.241 177.608, 39.102 182.996, 42.750 186.252 C 44.975 188.238, 47.363 188.565, 53.044 187.662 C 60.215 186.521, 76.779 177.226, 88 168.045 C 90.475 166.020, 98.100 160.366, 104.945 155.481 C 111.790 150.597, 119.050 144.890, 121.078 142.800 C 123.106 140.710, 124.983 139, 125.247 139 C 125.512 139, 127.252 140.340, 129.114 141.978 C 134.262 146.505, 142.648 150.629, 151.510 152.990 C 166.569 157.003, 173.503 159.260, 176.735 161.201 C 180.624 163.538, 183.727 162.847, 185.057 159.349 C 186.379 155.874, 186.302 155.512, 183.545 152.236 C 180.458 148.568, 169.889 143.306, 162.969 141.994 C 148.776 139.302, 131.062 132.136, 126.536 127.255 C 124.138 124.669, 124.001 123.921, 124.016 113.510 L 124.032 102.500 129.441 96.579 L 134.850 90.658 143.175 92.842 C 147.754 94.044, 152.218 95.021, 153.095 95.014 C 153.972 95.006, 155.505 95.900, 156.500 97 C 159.004 99.766, 162.457 99.506, 164.927 96.365 C 167.833 92.671, 167.526 90.669, 163.513 87.146 C 159.172 83.334, 153.219 81.671, 145.829 82.206 L 140.136 82.618 142.026 79.963 C 143.066 78.504, 145.960 73.110, 148.458 67.977 C 152.193 60.303, 153 57.652, 153 53.054 C 153 48.073, 152.710 47.287, 150.343 45.851 C 147.690 44.241, 147.689 44.237, 149.832 43.090 C 154.735 40.466, 155.991 33.112, 152.133 29.620 C 150.335 27.993, 149.350 28.306, 143.744 32.292 C 141.459 33.916, 126.343 37.707, 125.545 36.856 C 125.361 36.660, 125.594 30.672, 126.062 23.550 C 127.056 8.413, 126.612 7.132, 120.895 8.661 M 196.913 34.282 C 194.485 36.146, 193.256 38.954, 188.367 53.795 C 185.885 61.333, 183.212 68.497, 182.427 69.715 C 181.642 70.933, 181 72.424, 181 73.028 C 181 73.632, 179.687 76.910, 178.081 80.313 C 168.810 99.968, 168.173 101.713, 169.383 104.153 C 171.847 109.122, 177.562 107.201, 181.047 100.233 C 181.799 98.730, 182.941 96.825, 183.585 96 C 184.229 95.175, 186.669 90.805, 189.006 86.290 L 193.255 78.080 196.750 79.540 C 201.253 81.421, 214.124 81.419, 220 79.536 C 235.544 74.555, 244.840 69.534, 247.497 64.685 L 249.494 61.040 246.865 58.411 L 244.236 55.782 237.868 58.519 C 234.366 60.024, 230.149 61.842, 228.498 62.557 C 224.981 64.082, 199.086 68.419, 198.284 67.618 C 197.984 67.317, 198.630 64.693, 199.721 61.786 C 204.646 48.650, 205.373 46.192, 205.760 41.367 C 206.119 36.887, 205.878 36.028, 203.863 34.617 C 201.138 32.708, 199.092 32.609, 196.913 34.282 M 132.500 49.403 L 124.500 51.500 123.874 58.500 C 122.933 69.033, 122.891 85.185, 123.807 84.619 C 124.805 84.003, 131.539 72.566, 135.654 64.500 C 138.788 58.357, 141.500 49.879, 140.859 48.229 C 140.661 47.720, 136.917 48.246, 132.500 49.403 M 227.500 112.084 C 215.054 115.135, 201.888 117.974, 197.612 118.529 C 194.924 118.878, 191.211 119.885, 189.362 120.767 C 186.419 122.171, 186 122.843, 186 126.162 C 186 129.074, 186.564 130.323, 188.431 131.547 C 191.010 133.236, 194.607 132.705, 219.475 126.959 C 223.861 125.945, 227.601 125.268, 227.786 125.453 C 227.972 125.638, 226.814 127.300, 225.214 129.145 C 214.781 141.178, 200.458 169.522, 194.968 189 C 193.960 192.575, 192.435 197.975, 191.580 201 C 190.724 204.025, 190.021 210.325, 190.017 215 C 190.011 222.112, 190.386 224.121, 192.313 227.304 C 196.203 233.730, 199.103 234.986, 210.068 234.993 C 215.510 234.997, 221.764 234.375, 224.568 233.551 C 227.281 232.754, 232.650 231.451, 236.500 230.656 C 255.210 226.793, 263.879 222.314, 265.553 215.646 C 266.336 212.523, 263.598 202.496, 261.211 199.750 C 260.375 198.787, 258.420 198, 256.868 198 C 252.917 198, 250.574 201.790, 251.279 207.043 C 251.764 210.658, 251.546 211.183, 249.024 212.488 C 247.488 213.282, 240.892 215.073, 234.366 216.468 C 227.840 217.863, 219.350 219.678, 215.500 220.501 C 207.447 222.224, 204.212 221.693, 203.415 218.519 C 202.658 215.501, 206.332 195.779, 208.920 188.969 C 210.064 185.961, 210.999 182.974, 210.999 182.330 C 211 180.994, 220.743 160.520, 224.244 154.500 C 227.837 148.320, 237.603 133.983, 241.497 129.172 C 244.435 125.542, 245 124.055, 245 119.945 C 245 115.815, 244.605 114.787, 242.486 113.399 C 239.377 111.362, 232.802 110.785, 227.500 112.084 M 109 157.772 C 106.279 158.639, 103.319 162.885, 99.955 170.747 C 95.431 181.321, 87.419 193.108, 77.390 203.946 C 68.184 213.893, 66.885 217.245, 71.548 219.018 C 73.387 219.717, 75.078 219.576, 77.629 218.510 C 81.137 217.045, 96.379 202.529, 101.059 196.197 C 103.155 193.361, 104.348 192.773, 109.500 192.032 C 112.800 191.557, 117.188 190.450, 119.250 189.571 C 121.313 188.692, 123 188.346, 123 188.802 C 123 189.922, 111.009 216.194, 109.822 217.674 C 109.115 218.557, 107.839 218.376, 104.690 216.946 C 101.850 215.657, 98.204 215.037, 93.372 215.022 C 85.608 214.998, 83.596 216.127, 84.173 220.186 C 84.446 222.102, 85.302 222.596, 89.346 223.172 C 94.361 223.886, 101.663 227.957, 102.679 230.607 C 104.362 234.991, 85.815 263.920, 76.348 271.678 C 70.377 276.571, 69.431 278.482, 71.452 281.567 C 73.964 285.401, 77.550 284.694, 85.363 278.826 C 92.294 273.621, 102.296 261.348, 108.982 249.846 C 110.692 246.906, 112.632 243.600, 113.295 242.500 C 113.958 241.400, 114.572 240.353, 114.660 240.173 C 114.749 239.993, 119.249 242.711, 124.660 246.213 C 138.197 254.974, 145.659 258.948, 158.500 264.237 C 182.404 274.083, 196.880 278.188, 215.842 280.497 C 232.276 282.498, 238.517 282.393, 246.323 279.982 C 251.992 278.231, 253.319 277.334, 256.355 273.198 C 261.674 265.952, 262.496 258.886, 258.153 257.750 C 255.896 257.160, 253 258.623, 253 260.354 C 253 262.771, 246.277 268.150, 242.076 269.094 C 236.792 270.282, 214.112 267.957, 201.500 264.936 C 190.973 262.414, 173.982 257.210, 172.517 256.060 C 171.958 255.620, 169.700 254.684, 167.500 253.979 C 161.956 252.201, 146.735 244.782, 139.361 240.263 C 133.472 236.652, 121.940 229.158, 121.094 228.389 C 120.651 227.988, 122.445 223.603, 127.781 212.043 C 136.716 192.686, 139.448 182.573, 136.984 177.970 C 135.162 174.566, 129.337 173.601, 121.984 175.486 C 118.418 176.399, 114.503 177.789, 113.285 178.574 C 110.088 180.633, 109.692 180.352, 111.412 177.250 C 114.038 172.515, 116.001 166.861, 115.968 164.128 C 115.916 159.840, 112.446 156.675, 109 157.772" stroke="none" fill="black" fill-rule="evenodd"/>
</svg>