<svg xmlns="http://www.w3.org/2000/svg" width="300" height="300" viewBox="0 0 300 300" version="1.1">
	<path d="M 89.500 30.261 C 80.904 37.712, 63.865 57.762, 60.034 64.933 C 58.876 67.100, 58.979 67.565, 60.978 69.183 C 62.212 70.182, 63.793 71, 64.491 71 C 66.201 71, 67.626 85.744, 69.359 121.391 C 69.450 123.258, 70.454 124.994, 72.193 126.294 C 74.728 128.188, 75.032 128.209, 77.396 126.660 C 80.821 124.416, 81.401 120.359, 80.716 103.437 L 80.140 89.239 83.820 88.630 C 85.844 88.296, 89.127 88.017, 91.115 88.011 C 95.269 87.998, 100 84.797, 100 81.999 C 100 78.476, 97.094 76.759, 92.339 77.472 C 89.953 77.830, 85.975 77.819, 83.500 77.448 L 79 76.773 79 72.354 C 79 69.924, 78.314 66.294, 77.476 64.287 L 75.951 60.639 85.726 50.778 C 91.101 45.354, 96.973 39.992, 98.774 38.862 C 100.575 37.732, 102.724 35.500, 103.550 33.903 C 104.890 31.311, 104.885 30.678, 103.500 28 C 101.017 23.198, 96.876 23.867, 89.500 30.261 M 210.450 30.602 C 206.160 33.428, 201.961 40.974, 197.986 53 C 196.804 56.575, 194.299 62.410, 192.419 65.967 C 190.538 69.524, 189 72.942, 189 73.562 C 189 75.323, 192.440 78, 194.701 78 C 197.090 78, 204.006 70.840, 205.808 66.500 C 206.909 63.849, 208.533 62.946, 219.777 58.733 C 226.775 56.111, 232.838 53.974, 233.250 53.983 C 234.769 54.017, 233.905 56.715, 230.037 64.018 C 227.857 68.133, 224.476 74.537, 222.524 78.250 C 220.572 81.963, 218.712 85, 218.392 85 C 218.071 85, 216.509 84.075, 214.921 82.944 C 209.651 79.191, 198 80.493, 198 84.835 C 198 87.030, 199.888 89, 201.992 89 C 202.867 89, 205.468 90.921, 207.772 93.268 L 211.961 97.536 208.230 103.106 C 203.107 110.756, 195.607 118.474, 188.750 123.152 C 183.599 126.666, 183 127.438, 183 130.562 C 183 142.236, 205.323 130.924, 217.523 113.069 L 222.304 106.072 226.278 109.286 C 231.834 113.780, 239.862 119.206, 246.694 123.087 C 260.758 131.076, 269.496 137.463, 269.775 139.956 C 270.295 144.603, 275.622 145.469, 279.545 141.545 C 285.651 135.440, 280.819 129.387, 259.448 116.370 C 252.196 111.953, 237.165 101.984, 234.569 99.870 C 233.981 99.391, 232.478 98.212, 231.228 97.250 L 228.956 95.500 238.173 77.171 C 247.117 59.385, 247.391 58.635, 247.445 51.835 C 247.496 45.290, 247.306 44.661, 244.560 42.299 C 241.966 40.067, 241.025 39.843, 236.560 40.395 C 232.289 40.923, 223.817 43.526, 216.750 46.482 C 214.378 47.474, 214.546 45.847, 217.157 42.528 C 219.926 39.008, 220.066 31.253, 217.396 29.300 C 215.050 27.585, 215.024 27.589, 210.450 30.602 M 142.718 36.092 C 136.814 37.482, 133.086 39.809, 132.403 42.531 C 131.107 47.695, 136.321 49.779, 146.500 48.167 C 150.829 47.482, 152.705 47.535, 153.235 48.358 C 153.639 48.986, 153.976 54.462, 153.985 60.526 L 154 71.553 150.250 71.197 C 147.918 70.975, 143.097 71.971, 137.500 73.830 C 132.550 75.474, 126.826 77.133, 124.781 77.515 C 120.396 78.335, 116 82.344, 116 85.521 C 116 88.535, 119.995 91, 124.879 91 C 129.683 91, 143.959 85.733, 149.654 81.861 L 153.808 79.036 153.322 87.268 C 153.055 91.796, 152.198 97.197, 151.418 99.270 C 149.460 104.476, 149.620 105.705, 152.500 107.592 C 154.819 109.112, 155.184 109.109, 157.548 107.561 C 161.918 104.697, 163.635 100.530, 165.106 89.223 C 166.920 75.273, 166.962 47.805, 165.178 42.766 C 163.126 36.972, 159.863 34.981, 152.615 35.100 C 149.252 35.156, 144.798 35.602, 142.718 36.092 M 138.601 100.163 C 132.606 103.644, 109.347 110.015, 95.760 111.898 C 91.503 112.488, 87.116 113.535, 86.010 114.226 C 83.426 115.840, 83.450 119.031, 86.073 122.365 C 88 124.815, 88.700 125, 96.061 125 C 114.303 125, 149 111.674, 149 104.667 C 149 100.023, 143.183 97.503, 138.601 100.163 M 147.181 132.497 C 145.138 135.095, 143.447 141.554, 140.374 158.500 C 137.706 173.213, 137.729 209.275, 140.413 220.500 C 144.936 239.412, 153.353 247.702, 174.406 253.978 C 188.188 258.087, 200.639 259.236, 225.775 258.720 C 255.457 258.109, 265.992 256.320, 280.604 249.407 C 285.386 247.145, 293 240.006, 293 237.785 C 293 235.964, 289.691 232, 288.171 232 C 287.291 232, 283.181 233.727, 279.036 235.839 C 266.759 242.093, 250.923 244.921, 224 245.670 C 208.488 246.101, 203.274 245.848, 191.719 244.102 C 175.606 241.668, 169.480 239.844, 163.156 235.597 C 154.070 229.494, 149.879 214.899, 149.922 189.500 C 149.941 177.996, 151.963 157.975, 153.653 152.553 C 155.162 147.711, 156.597 131.997, 155.619 131.019 C 153.710 129.110, 149.228 129.895, 147.181 132.497 M 57 141 C 54.644 143.356, 54.611 144.844, 56.581 160 C 57.553 167.484, 58.263 184.596, 58.614 209 C 59.285 255.731, 60.251 261.018, 68.398 262.547 C 73.680 263.538, 76.839 261.602, 79.481 255.755 C 82.927 248.129, 83.716 241.448, 81.464 238.961 C 79.168 236.423, 77.180 236.482, 74.314 239.174 L 72 241.349 71.991 232.924 C 71.987 228.291, 71.688 222.025, 71.327 219 C 70.770 214.330, 70.885 213.675, 72.086 214.660 C 74.410 216.567, 80.952 213.654, 85.494 208.690 C 92.912 200.584, 92.481 199.760, 92.656 222.396 C 92.918 256.570, 97.865 268.754, 110.002 265.118 C 118.336 262.620, 124.257 247.112, 118.811 242.039 C 117.608 240.918, 116.344 240, 116.003 240 C 114.304 240, 111.462 243.144, 110.453 246.138 C 109.831 247.987, 108.912 249.379, 108.411 249.231 C 106.669 248.716, 105.935 243.401, 105.345 227 C 104.852 213.324, 104.977 210.714, 106.075 211.750 C 107.947 213.516, 112.590 213.301, 115.785 211.300 C 120.850 208.128, 133.174 196.672, 134.077 194.297 C 135.310 191.054, 133.270 188, 129.872 188 C 128.339 188, 124.544 189.901, 120.862 192.512 C 117.363 194.994, 112.925 197.807, 111 198.762 C 109.075 199.718, 107.169 200.950, 106.765 201.500 C 106.361 202.050, 106.028 200.025, 106.025 197 L 106.019 191.500 116.760 187.074 C 129.214 181.941, 131 180.674, 131 176.967 C 131 172.288, 128.938 171.496, 120.268 172.844 C 116.078 173.495, 111.310 174.696, 109.672 175.514 C 108.033 176.331, 106.547 177, 106.369 177 C 106.192 177, 105.923 169.012, 105.773 159.250 L 105.500 141.500 103.108 141.500 C 98.123 141.500, 94.054 152.010, 94.009 165 L 93.986 171.500 89.410 171.709 C 85.004 171.910, 74.719 175.158, 72.404 177.080 C 71.600 177.747, 70.961 175.173, 70.142 167.969 C 69.514 162.447, 69 156.736, 69 155.280 C 69 153.823, 68.280 150.066, 67.401 146.931 C 66.220 142.723, 65.160 140.938, 63.353 140.115 C 60.013 138.593, 59.309 138.691, 57 141 M 202.750 152.392 C 200.600 154.024, 200.481 157.324, 202.511 159.009 C 204.602 160.745, 209.715 163.661, 214.640 165.929 C 216.917 166.977, 219.081 168.322, 219.449 168.917 C 220.501 170.619, 224.524 170.184, 226.345 168.171 C 229.071 165.160, 228.363 161.760, 224.156 157.652 C 218.366 151.999, 206.960 149.196, 202.750 152.392 M 201.557 176.223 C 196.043 184.094, 206.974 195.597, 223.137 198.932 C 230.018 200.352, 233.847 199.531, 235.045 196.382 C 236.538 192.455, 233.758 188.104, 229.710 188.032 C 227.290 187.989, 220.075 184.297, 217 181.530 C 212.953 177.886, 206.669 174, 204.825 174 C 203.883 174, 202.413 175, 201.557 176.223 M 83.620 186.535 C 78.737 188.991, 73.899 191, 72.870 191 C 71.233 191, 71 191.819, 71 197.584 L 71 204.168 74.846 201.122 C 76.962 199.446, 79.306 197.336, 80.056 196.433 C 80.806 195.529, 83.968 193.059, 87.084 190.943 C 90.864 188.376, 92.910 186.249, 93.236 184.548 C 93.503 183.147, 93.448 182.016, 93.111 182.035 C 92.775 182.054, 88.504 184.079, 83.620 186.535" stroke="none" fill="black" fill-rule="evenodd"/>
</svg>