<svg xmlns="http://www.w3.org/2000/svg" width="300" height="300" viewBox="0 0 300 300" version="1.1">
	<path d="M 108.655 27.976 C 105.533 30.164, 99.496 34.779, 95.239 38.234 C 90.983 41.688, 85.843 45.748, 83.818 47.256 C 79.455 50.505, 78.231 53.465, 80.277 55.822 C 81.876 57.664, 82.733 69.045, 83.852 103.332 C 84.442 121.386, 84.674 123.290, 86.441 124.582 C 87.509 125.362, 89.127 126, 90.036 126 C 91.887 126, 95 122.972, 95 121.171 C 95 120.527, 95.956 120.956, 97.125 122.125 C 98.907 123.907, 100.026 124.157, 104.073 123.678 C 106.727 123.363, 111.553 121.789, 114.798 120.179 C 119.051 118.069, 121.165 117.513, 122.369 118.187 C 125.971 120.202, 131.686 116.363, 135.302 109.500 C 137.763 104.828, 137.943 98.932, 136.350 75.205 C 135.250 58.826, 134.327 56.100, 128.904 53.227 C 125.115 51.220, 108.484 53.713, 97.685 57.907 C 93.893 59.379, 94 59.445, 94 55.649 C 94 52.497, 94.635 51.879, 104.750 45.197 C 122.771 33.291, 125.203 30.486, 121.608 25.750 C 119.406 22.850, 114.857 23.632, 108.655 27.976 M 210.870 34.248 C 208.854 34.744, 204.848 37.274, 201.862 39.935 C 197.265 44.033, 191.233 48.351, 171.442 61.713 C 169.639 62.929, 167.917 64.325, 167.615 64.813 C 167.314 65.302, 166.814 81.631, 166.505 101.101 C 166.196 120.570, 165.511 145.050, 164.981 155.500 C 163.619 182.402, 163.712 203.312, 165.200 204.800 C 165.860 205.460, 167.667 206, 169.216 206 C 171.450 206, 172.377 205.276, 173.701 202.500 C 175.158 199.445, 175.834 199, 179.018 199 C 184.530 199, 201.860 195.761, 220 191.341 C 231.790 188.468, 231.998 188.634, 232.006 200.941 C 232.021 224.632, 225.136 259.690, 219.723 263.482 C 216.905 265.455, 211.496 265.409, 205.140 263.356 C 199.166 261.427, 197 262.428, 197 267.121 C 197 269.467, 197.874 270.543, 201.750 272.970 C 214.302 280.827, 227.578 278.628, 233.115 267.774 C 239.680 254.906, 243.972 231.850, 244.242 208 C 244.459 188.929, 243.741 185.806, 237.941 180.566 C 233.178 176.262, 231.188 176.135, 218.650 179.336 C 199.918 184.117, 178.413 188.201, 176.750 187.292 C 176.338 187.066, 176 182.683, 176 177.552 L 176 168.222 182.250 166.659 C 185.688 165.799, 193.675 163.862, 200 162.354 C 206.325 160.847, 212.287 158.956, 213.250 158.152 C 215.668 156.132, 215.467 152.320, 212.869 150.930 C 210.229 149.517, 199.096 150.436, 186.571 153.100 C 181.659 154.145, 177.497 155, 177.321 155 C 176.729 155, 176.993 134.286, 177.625 131.125 L 178.250 128 189.375 127.965 C 205.591 127.914, 216.909 125.006, 218.661 120.442 C 218.965 119.649, 219.982 119, 220.920 119 C 223.191 119, 227.459 114.364, 229.291 109.906 C 230.103 107.930, 231.078 103.430, 231.457 99.906 C 231.836 96.383, 232.833 90.659, 233.672 87.187 C 236.964 73.571, 232.488 68.949, 216.101 69.044 C 211.920 69.068, 205.125 69.517, 201 70.041 C 188.045 71.687, 175.998 72.341, 176.032 71.398 C 176.050 70.904, 180.957 67.843, 186.937 64.595 C 197.361 58.933, 201.347 56.172, 211.441 47.622 C 213.959 45.489, 217.474 43.446, 219.253 43.082 C 223.028 42.310, 223.974 39.733, 221.491 36.990 C 219.007 34.246, 215.039 33.221, 210.870 34.248 M 107 67.607 C 102.325 68.904, 97.713 69.790, 96.750 69.576 C 95.243 69.241, 95 69.976, 95 74.870 L 95 80.553 102.250 79.822 C 106.237 79.419, 111.603 78.790, 114.174 78.423 C 118.380 77.824, 119.121 78.030, 121.569 80.478 L 124.290 83.199 123.645 79.974 C 123.290 78.201, 123 74.106, 123 70.875 L 123 65 119.250 65.125 C 117.188 65.193, 111.675 66.310, 107 67.607 M 192.624 83.068 C 176.035 84.256, 176.627 83.945, 177.278 91.132 C 177.579 94.446, 178.045 97.379, 178.315 97.648 C 178.585 97.918, 180.537 97.677, 182.653 97.114 C 187.505 95.821, 197.834 93.621, 209.750 91.341 C 218.576 89.653, 219 89.453, 219 86.986 C 219 85.564, 219.540 83.860, 220.200 83.200 C 221.588 81.812, 210.886 81.761, 192.624 83.068 M 123.117 86.215 C 122.974 88.308, 119.966 90.042, 116.825 89.842 C 115.546 89.760, 112.700 90.177, 110.500 90.767 C 108.300 91.357, 104.138 92.144, 101.250 92.514 C 97.522 92.992, 96 93.627, 96 94.703 C 96 96.437, 97.657 96.289, 110.684 93.391 C 118.689 91.611, 118.915 91.613, 120.982 93.483 C 123.928 96.150, 123.269 99.926, 119.500 101.971 C 114.357 104.762, 104.453 107.253, 100.134 106.841 L 96 106.447 96 110.707 L 96 114.968 99.250 113.548 C 105.489 110.822, 118.043 108.545, 120.021 109.781 C 122.492 111.324, 123.770 109.610, 125.177 102.862 C 126.076 98.548, 125.995 96.229, 124.764 91 C 123.923 87.425, 123.181 85.272, 123.117 86.215 M 209 103.495 C 189.938 107.777, 182.233 109.367, 180.250 109.429 C 178.294 109.491, 178 110.036, 178 113.598 L 178 117.696 183.250 116.909 C 186.137 116.476, 194.726 115.572, 202.335 114.901 C 217.680 113.547, 217.294 113.774, 218.719 105.250 C 219.209 102.318, 219.029 102.013, 216.881 102.130 C 215.571 102.202, 212.025 102.816, 209 103.495 M 120 128.473 C 115.875 129.185, 108.225 130.313, 103 130.980 C 92.139 132.367, 88.351 133.295, 81.939 136.141 C 75.927 138.809, 74.201 141.457, 76.682 144.209 C 78.277 145.978, 79.235 146.140, 84.500 145.530 C 87.800 145.147, 93.313 144.511, 96.750 144.115 L 103 143.396 103 146.040 C 103 148.242, 102.355 148.877, 99.134 149.842 C 97.008 150.479, 94.460 151, 93.472 151 C 90.047 151, 80.834 154.425, 78.540 156.551 L 76.234 158.687 71.044 147.906 C 65.349 136.074, 64.270 134.750, 60.325 134.750 C 56.871 134.750, 54.713 137.668, 55.435 141.362 C 56.182 145.183, 66.636 165.986, 69.048 168.451 C 70.601 170.038, 71.474 170.220, 73.728 169.431 C 75.293 168.883, 76.625 167.598, 76.786 166.480 C 77.032 164.776, 77.728 164.542, 81.786 164.803 C 84.379 164.969, 89.875 164.451, 94 163.652 C 98.125 162.852, 101.696 162.387, 101.936 162.618 C 102.176 162.850, 101.940 164.267, 101.413 165.768 C 100.571 168.162, 99.766 168.583, 94.876 169.194 C 87.382 170.130, 77.601 174.837, 77.189 177.706 C 76.717 180.994, 80.946 183.326, 86.231 182.693 C 96.791 181.428, 105.624 180.094, 107.014 179.555 C 107.846 179.232, 112.747 178.337, 117.904 177.567 C 127.146 176.186, 128.953 175.248, 128.985 171.816 C 128.995 170.735, 129.970 170.020, 131.709 169.816 C 134.911 169.442, 137.898 165.459, 144.402 152.888 C 153.367 135.561, 151.808 130.613, 136.566 128.013 C 129.555 126.816, 129.615 126.814, 120 128.473 M 118.500 140.892 C 114.800 141.454, 114.388 141.918, 114.850 145 C 115.069 146.463, 120.076 146.209, 123.206 144.576 C 127.627 142.269, 130.671 144.067, 132.229 149.905 C 132.435 150.678, 133.541 148.765, 134.686 145.655 L 136.769 140 129.635 140.142 C 125.711 140.220, 120.700 140.557, 118.500 140.892 M 129.663 153.774 C 128.719 154.723, 124.965 156.402, 121.322 157.503 C 115.210 159.352, 114.599 159.796, 113.403 163.249 L 112.108 166.992 118.836 166.889 L 125.564 166.787 128.779 159.724 C 130.547 155.839, 131.856 152.523, 131.688 152.354 C 131.519 152.186, 130.608 152.824, 129.663 153.774 M 122 190.067 C 117.325 191.093, 109.450 192.452, 104.500 193.087 C 99.550 193.721, 95.050 194.598, 94.500 195.034 C 93.950 195.470, 86.750 197.496, 78.500 199.536 C 60.112 204.083, 57.767 205.153, 58.189 208.807 C 58.460 211.156, 59.111 211.618, 63.290 212.425 C 68.117 213.357, 79.712 212.285, 87 210.233 C 88.925 209.691, 91.150 209.079, 91.944 208.874 C 92.872 208.634, 93.635 209.573, 94.076 211.500 C 95.193 216.375, 95.086 228.497, 93.876 234.201 C 92.714 239.677, 88.810 248.382, 87.019 249.488 C 85.344 250.524, 85.861 253.564, 88.050 255.545 C 90.047 257.353, 90.190 257.353, 93.553 255.542 C 98.233 253.021, 101.413 248.588, 104.040 240.922 C 106.774 232.945, 107.727 218.824, 106.040 211.287 C 105.370 208.294, 104.974 205.707, 105.161 205.539 C 105.347 205.371, 106.936 204.926, 108.690 204.550 L 111.881 203.867 111.526 237.184 C 111.331 255.508, 110.645 274.698, 110.002 279.829 C 108.942 288.287, 108.995 289.338, 110.572 291.079 C 112.893 293.644, 114.632 293.500, 117.400 290.513 C 119.284 288.480, 120.006 285.788, 121.352 275.763 C 124.920 249.199, 125.331 207.931, 122.061 204.661 C 120.365 202.965, 120.822 202, 123.322 202 C 126.537 202, 135.133 199.042, 137.250 197.207 C 139.738 195.051, 139.418 192.474, 136.365 190.073 C 133.272 187.640, 133.052 187.639, 122 190.067 M 201.923 214.077 C 200.218 215.782, 199.942 216.889, 200.487 219.844 C 200.858 221.855, 201.953 224.400, 202.919 225.500 C 203.886 226.600, 205.715 229.234, 206.983 231.353 C 211.005 238.070, 217.976 240.894, 221.345 237.171 C 223.680 234.591, 223.494 233.882, 219 228.237 C 216.800 225.474, 215 222.871, 215 222.451 C 215 220.794, 209.732 214.913, 206.965 213.482 C 204.230 212.068, 203.892 212.108, 201.923 214.077 M 189.975 219.565 C 188.051 224.627, 189.504 229.900, 194.437 235.750 C 197.414 239.281, 200.940 239.982, 203.033 237.460 C 204.085 236.193, 203.897 234.644, 201.974 228.710 C 200.689 224.745, 198.741 220.488, 197.645 219.250 C 194.898 216.150, 191.216 216.301, 189.975 219.565 M 167.571 220.571 C 164.200 223.943, 167.074 235.837, 172.114 239.367 C 174.847 241.281, 180.085 241.515, 181.800 239.800 C 183.775 237.825, 183.183 234.166, 180.617 232.485 C 179.307 231.626, 177.962 229.562, 177.629 227.897 C 177.028 224.891, 172.075 219, 170.148 219 C 169.595 219, 168.436 219.707, 167.571 220.571 M 144.073 222.635 C 138.216 230.080, 146.934 249, 156.222 249 C 161.754 249, 162.038 244.919, 157.022 237.500 C 153.857 232.820, 152 227.811, 152 223.958 C 152 219.363, 147.268 218.573, 144.073 222.635" stroke="none" fill="black" fill-rule="evenodd"/>
</svg>