<svg xmlns="http://www.w3.org/2000/svg" width="300" height="300" viewBox="0 0 300 300" version="1.1">
	<path d="M 174.193 9.294 C 171.021 12.671, 169.826 17.590, 170.562 24.250 L 171.196 30 162.005 30 C 152.716 30, 135.848 31.220, 119.679 33.061 C 114.828 33.613, 104.253 34.335, 96.179 34.665 C 80.867 35.291, 78 36.146, 78 40.084 C 78 44.396, 80.289 45, 96.630 45 C 105.148 45, 116.253 44.561, 121.308 44.024 C 147.443 41.247, 164.236 39.908, 164.833 40.553 C 165.200 40.949, 164.929 41.477, 164.232 41.726 C 163.535 41.975, 162.410 42.708, 161.732 43.356 C 158.863 46.097, 144.406 56.486, 138.209 60.260 C 124.803 68.424, 113.233 73.250, 105.788 73.783 C 100.382 74.170, 98.707 74.678, 97.906 76.175 C 94.152 83.190, 107.401 87.361, 118.903 82.784 C 120.331 82.216, 122.400 81.393, 123.500 80.955 C 139.744 74.493, 163.306 59.041, 169.556 50.750 C 171.111 48.688, 172.688 47, 173.061 47 C 174.139 47, 174.977 53.815, 174.989 62.679 C 175.002 72.511, 173.728 74.530, 168.078 73.632 C 164.028 72.988, 162.807 73.537, 161.109 76.760 C 160.076 78.722, 160.254 79.331, 162.459 81.375 C 163.857 82.670, 165 83.958, 165 84.237 C 165 84.517, 162.863 84.989, 160.250 85.286 C 157.637 85.583, 152.350 86.554, 148.500 87.444 C 144.650 88.334, 138.839 89.519, 135.587 90.079 C 128.762 91.253, 124.279 94.039, 123.367 97.674 C 122.033 102.988, 127.574 103.904, 141.911 100.741 C 154.977 97.859, 163.512 96.294, 169.750 95.638 L 174 95.190 174 101.154 C 174 105.066, 173.639 106.895, 172.950 106.469 C 172.372 106.112, 170.425 106.519, 168.623 107.375 C 166.821 108.230, 160.206 109.625, 153.923 110.475 C 131.805 113.468, 129.062 114.077, 125.960 116.687 C 122.705 119.426, 122.182 122.076, 124.516 124.013 C 125.970 125.220, 137.957 124.965, 148 123.513 C 149.925 123.234, 148.350 123.915, 144.500 125.025 C 130.035 129.197, 129.983 129.221, 129.330 131.822 C 127.857 137.689, 134.105 140.103, 144.166 137.554 C 155.139 134.773, 168.051 129.772, 169.043 127.919 C 170.331 125.513, 169.292 123.227, 166.131 121.510 C 163.864 120.278, 163.777 120.074, 165.500 120.036 C 166.600 120.012, 168.973 119.094, 170.774 117.996 C 172.575 116.898, 174.262 116, 174.524 116 C 175.254 116, 174.892 150.175, 174.133 152.883 C 173.539 155.001, 173.320 155.090, 172.156 153.688 C 170.051 151.151, 160.580 149.696, 151.047 150.445 C 142.687 151.101, 135.059 152.895, 124 156.806 C 120.975 157.875, 118.427 158.694, 118.337 158.625 C 118.247 158.556, 118.565 156.475, 119.043 154 C 119.522 151.525, 119.932 137.238, 119.956 122.250 C 119.998 96.302, 119.904 94.904, 118 93 C 115.517 90.517, 113.789 90.470, 111.655 92.829 C 110.222 94.413, 109.994 97.659, 109.956 117.079 C 109.932 129.410, 109.480 142.875, 108.951 147 C 106.658 164.899, 106.667 164.525, 108.451 166.308 C 110.787 168.644, 112.662 168.429, 115.604 165.487 C 117.847 163.244, 118.279 163.136, 119.630 164.487 C 121.914 166.771, 131.182 166.376, 142.806 163.500 C 150.004 161.719, 155.639 161, 162.396 161 C 168.361 161, 172.141 160.581, 172.579 159.872 C 173.056 159.100, 173.565 159.258, 174.188 160.372 C 175.270 162.305, 178.990 162.507, 181.166 160.750 C 182.017 160.063, 183.565 157.475, 184.607 155 C 186.342 150.875, 186.478 148.053, 186.235 121.129 C 185.948 89.360, 185.689 87.777, 180.298 84.892 L 177.935 83.627 180.308 81.564 C 185.026 77.461, 186 74.636, 186 65.055 C 186 60.097, 185.269 52.413, 184.375 47.978 C 183.482 43.544, 182.991 39.676, 183.284 39.383 C 183.577 39.090, 189.966 38.665, 197.483 38.438 C 205 38.211, 211.566 37.768, 212.075 37.454 C 213.966 36.285, 212.960 32.114, 210.278 30.004 C 207.688 27.967, 206.902 27.897, 194.150 28.573 L 180.745 29.283 181.122 18.392 L 181.500 7.500 178.967 7.205 C 177.319 7.012, 175.652 7.742, 174.193 9.294 M 210.035 134.934 C 209.466 135.998, 209 142.964, 209 150.414 C 209 166.366, 207.671 171.169, 202.639 173.408 C 200.913 174.176, 193.875 175.357, 187 176.031 C 174.141 177.293, 166.485 179.657, 162.564 183.579 C 161.524 184.619, 159.735 185.361, 158.587 185.228 C 153.445 184.633, 153.525 184.033, 153.160 226.002 C 152.793 268.183, 152.772 268, 158.066 268 C 163.376 268, 164 265.621, 164 245.357 L 164 227.159 167.217 226.452 C 168.987 226.064, 171.124 225.387, 171.967 224.948 C 172.810 224.510, 178.366 222.510, 184.314 220.506 C 190.262 218.501, 198.136 215.578, 201.811 214.010 C 205.486 212.442, 208.558 211.236, 208.638 211.330 C 208.717 211.423, 209.324 217.881, 209.985 225.680 C 210.926 236.774, 210.923 243.486, 209.968 256.526 C 208.778 272.790, 208.797 273.242, 210.783 275.228 C 213.916 278.361, 217.355 276.963, 220.011 271.478 C 222.064 267.237, 222.213 265.433, 222.352 243.224 C 222.561 209.705, 220.432 199.922, 212.607 198.454 C 209.944 197.955, 207.742 198.443, 203.309 200.517 C 194.021 204.862, 186.241 207.896, 175 211.559 C 169.225 213.441, 164.387 214.985, 164.250 214.990 C 164.113 214.996, 164 209.883, 164 203.630 L 164 192.260 168.250 191.192 C 170.588 190.604, 173.625 189.857, 175 189.531 C 176.375 189.206, 182.450 188.520, 188.500 188.008 C 206.253 186.505, 211.744 184.007, 216 175.499 C 218.313 170.875, 218.523 169.264, 218.811 154 C 219.105 138.392, 219.008 137.378, 217.022 135.250 C 214.444 132.488, 211.417 132.351, 210.035 134.934 M 88.740 143.085 C 85.971 144.698, 83.808 150.720, 85.199 152.946 C 86.065 154.334, 86.017 156.807, 84.998 163.139 C 81.610 184.200, 82.674 191.840, 89.557 195.901 C 96.065 199.741, 104.736 198.637, 123.369 191.596 C 127.147 190.168, 130.380 189, 130.553 189 C 130.726 189, 131.010 193.501, 131.184 199.002 L 131.500 209.004 128.500 209.022 C 123.348 209.052, 110.953 211.595, 99.500 214.973 C 93.450 216.757, 87.090 218.624, 85.366 219.123 C 77.528 221.391, 74.550 227.349, 79.600 230.658 C 81.896 232.162, 82.745 232.208, 86.850 231.055 C 96.357 228.384, 95.893 228.270, 95.369 233.149 C 94.447 241.734, 92.383 247.908, 85.788 261.802 C 80.543 272.851, 80.337 275.545, 84.654 276.628 C 88.482 277.589, 91.992 274.351, 96.238 265.944 C 102.640 253.267, 105.971 242.714, 106.668 232.897 C 107.180 225.680, 107.602 223.997, 108.900 223.986 C 110.805 223.968, 127.745 219.662, 130.250 218.557 C 131.843 217.855, 132 218.580, 131.995 226.643 C 131.992 231.514, 132.521 244.658, 133.170 255.851 C 134.297 275.282, 134.450 276.248, 136.549 277.204 C 138.053 277.890, 139.393 277.860, 140.793 277.111 C 143.952 275.420, 144.378 267.196, 143.640 222.180 C 142.858 174.475, 143.189 176.085, 134.309 176.781 C 131.114 177.032, 124 178.790, 118.500 180.687 C 104.057 185.670, 97.952 187.045, 95.676 185.826 C 94.028 184.944, 93.848 183.959, 94.279 178.157 C 94.551 174.496, 95.510 167.285, 96.410 162.132 C 98.308 151.266, 97.771 146.752, 94.251 143.982 C 91.379 141.724, 91.145 141.685, 88.740 143.085" stroke="none" fill="black" fill-rule="evenodd"/>
</svg>