<svg xmlns="http://www.w3.org/2000/svg" width="300" height="300" viewBox="0 0 300 300" version="1.1">
	<path d="M 161.462 9.279 C 158.657 11.692, 157.122 17.066, 157.044 24.750 L 157 29 153.136 29 C 151.012 29, 146.849 29.471, 143.886 30.047 C 140.924 30.623, 134.900 31.512, 130.500 32.022 C 121.845 33.025, 119 34.896, 119 39.585 C 119 43.547, 123.688 45.258, 131.249 44.056 C 142.739 42.229, 151.865 41, 153.943 41 C 156.323 41, 156.664 43.796, 154.902 48.851 C 154.070 51.237, 153.206 52, 151.334 52 C 149.975 52, 144.057 52.640, 138.182 53.422 C 132.307 54.203, 121.200 55.598, 113.500 56.520 C 98.127 58.360, 94.379 59.306, 88.689 62.777 C 85.574 64.678, 84.934 65.596, 85.189 67.801 C 85.485 70.373, 85.759 70.498, 91 70.464 C 94.025 70.444, 101.900 69.649, 108.500 68.696 C 125.751 66.206, 146.381 64.045, 146.984 64.665 C 147.764 65.469, 139.218 72.921, 126.544 82.488 C 111.103 94.144, 109.572 96.726, 114.923 102.077 C 117.630 104.784, 118.388 104.998, 125.173 104.968 C 138.694 104.910, 175.736 98.423, 184.370 94.602 L 190.240 92.004 193.655 95.002 C 197.463 98.346, 200.085 98.772, 202.429 96.429 C 204.156 94.701, 204.544 90.455, 203.059 89.536 C 201.811 88.765, 198.292 81.224, 197.539 77.707 C 196.466 72.699, 190.154 72.799, 188.059 77.858 C 186.466 81.703, 184.582 82.407, 170.500 84.416 C 163.900 85.357, 155.225 86.774, 151.222 87.564 C 147.218 88.354, 142.590 89, 140.937 89 C 138.096 89, 138.411 88.581, 146.653 81.395 C 151.450 77.212, 157.054 71.681, 159.107 69.103 L 162.839 64.416 191.669 62.604 C 222.386 60.672, 224 60.314, 224 55.416 C 224 54.166, 223.223 52.366, 222.274 51.416 C 220.693 49.835, 218.344 49.744, 194.406 50.325 C 180.029 50.675, 167.539 51.240, 166.650 51.581 C 165.279 52.107, 165.171 51.770, 165.940 49.350 C 166.438 47.783, 167.125 44.816, 167.467 42.758 C 168.163 38.560, 168.308 38.496, 179.495 37.445 C 188.948 36.557, 196.846 33.535, 198.061 30.340 C 199.406 26.803, 199.243 25.587, 197.095 23.110 C 195.662 21.457, 194.549 21.075, 192.595 21.565 C 191.168 21.924, 190 22.530, 190 22.913 C 190 23.297, 186.512 24.189, 182.250 24.896 C 177.988 25.604, 173.272 26.421, 171.772 26.712 L 169.044 27.241 169.671 19.114 C 170.210 12.125, 170.045 10.707, 168.494 8.993 C 166.166 6.421, 164.716 6.480, 161.462 9.279 M 196 112.918 C 181.261 115.986, 173.471 116.858, 124 120.976 C 117.125 121.548, 109.882 122.013, 107.905 122.008 C 104.824 122.001, 97.315 124.063, 91.938 126.393 C 90.876 126.853, 89.944 126.263, 89.028 124.552 C 86.359 119.564, 80.786 120.089, 79.001 125.496 C 78.026 128.452, 78.229 129.721, 80.554 135.198 C 85.789 147.532, 86.898 151.321, 85.848 153.283 C 85.124 154.637, 85.310 155.825, 86.542 157.704 C 88.186 160.213, 88.408 160.257, 95.863 159.552 C 107.444 158.458, 122.465 157.333, 122.776 157.537 C 122.928 157.637, 122.755 162.620, 122.392 168.610 L 121.731 179.500 112.116 179.500 C 100.514 179.500, 85.176 181.782, 82.701 183.876 C 81.464 184.923, 80.996 186.485, 81.201 188.883 C 81.575 193.244, 83.750 193.946, 93.500 192.856 C 97.350 192.426, 105.338 191.768, 111.250 191.395 L 122 190.717 122 213.812 L 122 236.907 119.133 235.262 C 116.085 233.512, 115.545 233.575, 98.856 237.629 C 91.903 239.318, 87.774 239.374, 86.200 237.800 C 85.472 237.072, 85 233.533, 85 228.800 L 85 221 91.951 221 C 99.588 221, 107.161 219.703, 113.839 217.253 C 119.178 215.293, 120.873 211.981, 118.438 208.265 C 117.067 206.173, 116.343 205.909, 113.661 206.521 C 111.923 206.919, 105.213 207.440, 98.750 207.681 L 87 208.118 87 203.993 C 87 201.725, 86.534 198.998, 85.965 197.934 C 84.920 195.982, 81.504 195.392, 79.313 196.786 C 77.691 197.817, 76 202.519, 76 205.998 C 76 208.092, 75.394 209.058, 73.754 209.578 C 68.917 211.113, 67.640 215.753, 71.250 218.677 C 73.307 220.343, 73.503 221.360, 73.537 230.500 C 73.569 239.093, 73.892 241.015, 75.831 244.157 C 78.210 248.012, 82.191 250.408, 88 251.481 C 92.279 252.271, 107.170 249.166, 115.678 245.709 L 121.741 243.245 122.344 249.014 C 123.207 257.276, 126.710 265.903, 130.903 270.097 C 139.429 278.622, 152.746 280.594, 191.726 279.105 C 212.827 278.299, 220.145 277.656, 226.262 276.070 C 235.753 273.609, 237.198 272.867, 238.979 269.539 C 240.275 267.118, 240.180 266.726, 237.706 264.251 C 235.144 261.689, 234.855 261.631, 230.766 262.856 C 220.184 266.026, 209.136 266.964, 180.500 267.125 C 149.104 267.301, 144.521 266.710, 139.293 261.812 C 133.441 256.330, 133.539 257.413, 133.519 198 C 133.498 139.044, 133.359 137.396, 128.199 135.045 C 124.298 133.267, 122 136.032, 122 142.504 L 122 147.697 108.455 147.599 C 95.437 147.504, 94.928 147.422, 95.399 145.500 C 95.668 144.400, 95.046 141.030, 94.017 138.011 C 92.987 134.992, 92.255 132.412, 92.389 132.278 C 92.523 132.144, 94.175 132.477, 96.060 133.017 C 100.587 134.316, 110.413 134.266, 117.114 132.910 C 120.076 132.311, 128.966 131.524, 136.869 131.160 L 151.238 130.500 150.629 150 C 150.293 160.725, 149.902 184.617, 149.759 203.094 C 149.477 239.665, 149.583 240.420, 154.914 239.801 C 158.615 239.370, 159.876 234.735, 159.944 221.311 L 160 210.123 164.750 209.452 C 167.363 209.083, 173.946 207.481, 179.380 205.891 C 184.814 204.301, 189.491 203, 189.773 203 C 190.054 203, 190.005 205.677, 189.663 208.949 C 189.001 215.284, 190.257 218, 193.849 218 C 199.745 218, 202.872 209.953, 203.175 194 C 203.400 182.107, 202.076 176.695, 198.098 173.251 C 195.097 170.654, 191.874 170.446, 184.654 172.383 C 181.819 173.144, 175.900 174.579, 171.500 175.572 C 167.100 176.565, 163.072 177.743, 162.550 178.189 C 160.421 180.007, 160 178.574, 160 169.500 L 160 160 164.562 160 C 167.072 160, 176.844 158.104, 186.280 155.786 L 203.435 151.573 211.467 145.448 C 240.396 123.389, 231.867 105.453, 196 112.918 M 197.500 124.560 C 185.792 127.166, 173.422 129.013, 167.719 129.007 C 163.962 129.002, 161.801 129.438, 161.549 130.250 C 161.335 130.938, 160.938 135.271, 160.666 139.879 L 160.171 148.258 165.336 147.569 C 168.176 147.189, 172.975 146.504, 176 146.046 C 179.025 145.588, 185.325 144.635, 190 143.929 C 198.466 142.651, 198.522 142.623, 204 136.933 C 211.267 129.384, 214.942 124.714, 214.358 123.770 C 213.642 122.611, 204.282 123.050, 197.500 124.560 M 185.500 184.045 C 171.626 187.935, 163.281 188.881, 161.200 186.800 C 160.267 185.867, 160 186.964, 160 191.737 L 160 197.874 163.750 197.319 C 165.813 197.014, 170.812 195.902, 174.861 194.847 C 182.828 192.773, 188.014 192.273, 189.843 193.403 C 190.631 193.890, 190.996 193.062, 190.986 190.809 C 190.970 186.892, 190.025 182.958, 189.133 183.102 C 188.785 183.158, 187.150 183.583, 185.500 184.045 M 179 215.578 C 176.525 216.866, 172.319 218.498, 169.653 219.206 C 164.105 220.680, 162.243 223.044, 163.851 226.573 C 165.003 229.101, 170.271 230.651, 174.288 229.643 C 175.554 229.325, 179.382 227.260, 182.795 225.054 C 187.988 221.698, 189 220.584, 189 218.222 C 189 215.050, 187.368 212.941, 185.050 213.119 C 184.197 213.185, 181.475 214.291, 179 215.578" stroke="none" fill="black" fill-rule="evenodd"/>
</svg>