<svg xmlns="http://www.w3.org/2000/svg" width="300" height="300" viewBox="0 0 300 300" version="1.1">
	<path d="M 224.500 10.883 C 219.340 14.110, 217.381 16.583, 212.981 25.422 L 208.712 34 199.106 34.100 C 193.823 34.155, 185.148 34.493, 179.829 34.850 C 171.472 35.412, 169.807 35.830, 167.579 37.924 C 164.541 40.780, 164.289 43.900, 166.841 47.052 C 168.994 49.710, 173.039 49.991, 190.317 48.679 L 201.134 47.857 197.567 54.579 C 195.605 58.276, 194 62.428, 194 63.806 C 194 66.214, 193.926 66.243, 192.074 64.567 C 189.334 62.088, 187.001 62.918, 183.817 67.505 C 180.212 72.698, 179.018 77.020, 178.982 85 C 178.966 88.575, 177.836 98.700, 176.472 107.500 C 172.295 134.443, 170.058 185.426, 172.521 197.549 C 172.886 199.347, 171.808 199.951, 163.719 202.482 C 158.648 204.068, 154.050 205.510, 153.500 205.687 C 152.861 205.893, 152.440 199.064, 152.333 186.754 C 152.224 174.232, 151.437 161.656, 150.083 150.787 C 148.937 141.596, 148 131.612, 148 128.603 C 148 121.783, 146.820 118.583, 143.504 116.410 C 140.033 114.136, 136.561 115.722, 134.569 120.490 C 133.268 123.603, 133.256 125.449, 134.475 135.274 C 136.643 152.735, 138.025 178.521, 138.012 201.259 L 138 222.018 134.551 219.759 C 132.653 218.517, 128.491 214.033, 125.301 209.795 C 122.110 205.558, 118.584 201.596, 117.464 200.991 C 115.553 199.959, 115.478 199.354, 116.239 191.195 C 116.685 186.413, 116.835 181.315, 116.573 179.866 C 116.141 177.476, 116.506 177.118, 120.524 175.993 C 122.959 175.311, 126.640 173.294, 128.703 171.511 C 131.875 168.769, 132.455 167.649, 132.455 164.260 C 132.455 159.429, 130.665 156.995, 127.128 157.015 C 124.095 157.033, 122.583 157.880, 121.801 160 C 121.005 162.155, 103.876 167.354, 87.500 170.412 C 69.119 173.844, 64.981 173.750, 69.496 170.004 C 70.318 169.321, 73.356 164.318, 76.246 158.887 C 79.135 153.455, 81.984 149.008, 82.576 149.005 C 83.977 148.998, 88 153.290, 88 154.791 C 88 156.913, 92.386 158.779, 96.497 158.407 C 100.774 158.020, 103.392 155.643, 102.658 152.815 C 102.418 151.888, 102.872 150.200, 103.667 149.065 C 106.553 144.945, 116 147.467, 116 152.357 C 116 157.398, 121.558 158.649, 124.927 154.365 C 126.123 152.845, 127 150.257, 127 148.247 C 127 143.351, 120.959 137.337, 115.100 136.400 C 112.559 135.994, 111.088 135.285, 111.389 134.613 C 114.795 126.998, 117.341 119.878, 117.752 116.816 C 118.391 112.051, 115.985 108, 112.517 108 C 109.826 108, 105.632 111.959, 104.097 115.947 C 102.253 120.739, 98.213 131.492, 96.469 136.250 C 94.945 140.409, 93 142.600, 93 140.157 C 93 139.694, 91.425 138.467, 89.500 137.430 C 87.575 136.393, 86 135.408, 86 135.240 C 86 135.073, 86.675 133.320, 87.500 131.346 C 90.837 123.360, 88.546 114.992, 83.028 115.007 C 79.561 115.016, 76.831 119.343, 72.938 130.997 C 69.834 140.291, 62.324 157.540, 58.788 163.500 C 57.037 166.450, 57.007 166.191, 57.004 147.872 C 56.999 124.125, 55.325 119.113, 47.372 119.032 C 42.327 118.980, 41.419 120.985, 42.810 129.100 C 44.597 139.521, 44.247 160.393, 41.955 180.001 C 39.622 199.959, 38.323 214.444, 37.374 231.061 C 36.334 249.280, 39.402 255.648, 51.092 259.530 C 55.465 260.983, 58.915 261.161, 73.873 260.705 C 90.443 260.199, 92.459 259.917, 107.500 255.992 C 116.300 253.696, 125.438 251.327, 127.808 250.727 C 131.405 249.816, 132.586 249.915, 134.974 251.325 C 137.132 252.600, 138.456 252.777, 140.375 252.047 C 144.916 250.321, 149.471 238.875, 150.514 226.566 C 151.437 215.683, 151.680 215, 154.625 215 C 156.047 215, 159.751 214.345, 162.856 213.545 C 165.960 212.745, 174.800 211.389, 182.500 210.531 C 190.200 209.674, 197.567 208.732, 198.871 208.437 C 202.614 207.591, 201.909 209.331, 188.966 232.888 C 185.835 238.585, 179.009 248.685, 173.303 256.062 C 168.532 262.230, 167.921 265.352, 171.147 267.079 C 175.048 269.166, 180.119 266.677, 187.134 259.233 C 199.834 245.755, 208.965 230.818, 216.010 212 C 216.731 210.075, 217.586 208.189, 217.910 207.808 C 218.235 207.428, 225.925 205.951, 235 204.525 C 253.616 201.602, 261.358 199.798, 267.710 196.904 C 275.975 193.139, 278.225 188.425, 273.750 184.248 C 270.020 180.767, 266.671 180.474, 263.560 183.357 C 261.089 185.647, 246.742 190.102, 245.612 188.930 C 245.384 188.693, 245.869 185.125, 246.689 181 C 247.931 174.753, 248.083 166.235, 247.604 130 C 247.287 106.075, 247.400 83.592, 247.855 80.038 C 248.805 72.624, 247.870 68.520, 244.279 64.341 C 241.958 61.640, 241.435 61.503, 233.669 61.554 C 229.176 61.583, 221.110 62.524, 215.744 63.644 L 205.989 65.681 209.132 60.091 C 210.860 57.016, 213.295 53.279, 214.542 51.787 C 215.789 50.295, 216.996 48.512, 217.225 47.824 C 217.515 46.955, 221.727 46.367, 231.071 45.894 C 244.081 45.234, 254.409 43.457, 258.755 41.131 C 261.571 39.624, 262.442 36.482, 261.006 33.013 C 259.559 29.521, 256.943 28.791, 249.923 29.922 C 240.019 31.518, 227 32.285, 227 31.273 C 227 29.986, 234.505 18.424, 235.900 17.562 C 237.787 16.395, 237.114 12.193, 234.777 10.557 C 231.814 8.481, 228.155 8.598, 224.500 10.883 M 84.364 16.568 C 82.549 19.338, 82.371 24.470, 83.919 29.411 C 85.326 33.905, 86.819 48.391, 87.596 65.090 C 88.201 78.114, 88.097 79.749, 86.624 80.314 C 84.200 81.244, 72 82.378, 72 81.673 C 72 81.341, 72.777 78.917, 73.726 76.285 C 74.962 72.861, 75.442 68.513, 75.414 61 C 75.364 47.642, 73.758 44.049, 67.823 44.015 C 66.086 44.005, 64.391 44.959, 62.999 46.729 C 60.981 49.294, 60.893 50.152, 61.540 60.988 C 62.108 70.503, 61.943 73.200, 60.598 76.420 C 59.701 78.566, 59.211 81.090, 59.509 82.027 C 59.966 83.470, 58.733 83.975, 51.513 85.300 C 40.393 87.342, 34.779 91.654, 36.705 96.673 C 38.228 100.642, 44.825 100.852, 65.333 97.582 C 73.675 96.252, 85.225 94.650, 91 94.021 C 96.775 93.393, 109.150 92.010, 118.500 90.949 C 127.850 89.887, 138.903 89.014, 143.061 89.009 C 149.281 89.002, 151.011 88.638, 152.811 86.961 C 155.564 84.397, 155.598 81.598, 152.911 78.911 C 150.886 76.886, 150.071 76.833, 126.048 77.161 L 101.272 77.500 100.636 67.094 C 100.286 61.371, 100 54.284, 100 51.344 L 100 46 110.343 46 C 120.552 46, 129.967 43.932, 133.641 40.883 C 135.724 39.154, 135.261 35.593, 132.630 33.123 C 130.097 30.743, 128.603 30.733, 113.500 32.998 C 110.200 33.492, 105.638 34.142, 103.363 34.442 L 99.225 34.988 98.517 30.244 C 96.569 17.187, 88.847 9.725, 84.364 16.568 M 223 77.037 C 218.325 78.045, 209.719 79.185, 203.876 79.569 L 193.252 80.269 192.667 86.384 C 192.345 89.748, 191.600 97.174, 191.010 102.886 C 190.421 108.598, 190.154 113.487, 190.417 113.750 C 190.680 114.013, 192.476 113.251, 194.408 112.057 C 196.774 110.594, 200.630 109.604, 206.211 109.026 C 210.770 108.554, 217.123 107.184, 220.329 105.982 C 223.535 104.780, 227.194 103.995, 228.460 104.237 C 230.740 104.673, 230.767 104.557, 231.441 91.589 C 231.815 84.390, 232.349 77.713, 232.628 76.750 C 232.907 75.787, 232.767 75.046, 232.317 75.102 C 231.868 75.158, 227.675 76.028, 223 77.037 M 227.425 118.558 C 224.313 120.738, 207.202 124.963, 201.500 124.959 C 198.750 124.958, 194.645 124.114, 192.377 123.084 L 188.254 121.211 187.595 126.356 C 187.233 129.185, 186.501 142.300, 185.967 155.500 C 185.434 168.700, 184.591 183.325, 184.094 188 C 183.596 192.675, 183.259 196.546, 183.345 196.602 C 183.508 196.710, 189.832 196.032, 212.032 193.527 C 219.474 192.687, 226.036 192, 226.614 192 C 227.275 192, 227.497 189.978, 227.213 186.549 C 226.781 181.344, 226.879 181.069, 229.380 180.441 L 232 179.783 232 156.042 C 232 132.385, 231.249 116.953, 230.103 117.052 C 229.771 117.081, 228.566 117.759, 227.425 118.558 M 217 128.100 C 205.096 129.914, 193.291 134.992, 192.361 138.699 C 191.594 141.753, 193.251 143.489, 198.199 144.817 C 202.311 145.922, 205.613 145.368, 219 141.331 C 229 138.315, 230 137.648, 230 134 C 230 129.428, 224.542 126.951, 217 128.100 M 214 156.652 C 212.625 156.861, 208.403 157.744, 204.618 158.614 C 198.878 159.934, 197.332 159.980, 195.303 158.894 C 190.967 156.574, 187.304 160.478, 188.390 166.263 C 188.954 169.270, 189.797 170.207, 193.591 172.044 C 198.539 174.439, 201.662 174.318, 212 171.330 C 225.421 167.450, 229 165.360, 229 161.402 C 229 156.989, 223.419 155.222, 214 156.652 M 104.500 180.528 C 103.950 180.732, 100.912 181.628, 97.750 182.520 C 93.690 183.665, 91.996 184.635, 91.987 185.821 C 91.969 188.125, 88.402 199.323, 86.536 202.931 C 85.077 205.752, 85.149 206.106, 88.154 210.941 C 89.884 213.724, 91.412 216, 91.551 216 C 92.280 216, 96.017 208.389, 99.407 200 C 101.518 194.775, 104.544 188.137, 106.131 185.250 C 108.633 180.698, 108.783 180.010, 107.259 180.079 C 106.291 180.122, 105.050 180.324, 104.500 180.528 M 71.063 187.167 C 69.173 187.710, 64.784 188.007, 61.311 187.827 C 57.838 187.647, 54.997 187.744, 54.998 188.042 C 54.999 188.339, 54.353 193.739, 53.562 200.042 C 51.520 216.308, 50.602 238.914, 51.852 242.152 C 52.659 244.241, 53.789 244.960, 57.188 245.545 C 67.742 247.362, 84.759 245.661, 104.500 240.818 C 108.900 239.738, 114.706 238.436, 117.402 237.925 C 120.098 237.413, 125.334 236.092, 129.037 234.989 C 134.416 233.387, 135.856 232.533, 136.200 230.742 C 136.604 228.637, 136.339 228.521, 131.860 228.843 C 127.170 229.181, 126.987 229.082, 120.795 222.809 C 117.333 219.300, 113.652 215.156, 112.615 213.598 L 110.730 210.766 106.917 216.763 C 104.820 220.061, 100.832 225.092, 98.055 227.943 C 93.738 232.376, 92.538 233.082, 89.776 232.814 C 87.655 232.608, 86.175 231.751, 85.466 230.320 C 84.872 229.121, 83.623 227.096, 82.690 225.820 C 81.757 224.544, 80.381 222.633, 79.631 221.573 C 78.341 219.750, 78.104 219.883, 75.192 224.073 C 69.503 232.258, 67.812 234.055, 63.937 236.032 C 58.988 238.557, 57.703 238.509, 54.404 235.671 C 50.868 232.629, 51.607 228.982, 56.173 226.943 C 59.909 225.275, 68.598 211.743, 72.437 201.613 C 73.712 198.251, 75.899 193.363, 77.298 190.750 L 79.842 186 77.171 186.090 C 75.702 186.140, 72.953 186.624, 71.063 187.167 M 227.797 207.692 C 224.338 208.579, 224.589 211.995, 228.399 215.897 C 230.380 217.925, 232 220.253, 232 221.070 C 232 223.778, 238.771 236.740, 242.230 240.652 C 244.101 242.768, 249.149 249.127, 253.447 254.782 C 262.705 266.960, 272.402 276.170, 277.692 277.808 C 281.012 278.836, 281.821 278.745, 284 277.100 C 287.982 274.095, 286.948 271.314, 278.757 263 C 274.693 258.875, 268.833 252.068, 265.736 247.873 C 262.638 243.678, 259.493 239.628, 258.748 238.873 C 256.130 236.221, 245.470 222.094, 242.660 217.554 C 238.407 210.681, 232.200 206.562, 227.797 207.692" stroke="none" fill="black" fill-rule="evenodd"/>
</svg>