<svg xmlns="http://www.w3.org/2000/svg" width="300" height="300" viewBox="0 0 300 300" version="1.1">
	<path d="M 75.278 120.250 C 72.007 124.477, 73.283 128.474, 78.242 129.535 C 80.034 129.918, 83.454 130.887, 85.843 131.687 C 89.750 132.996, 90.367 132.978, 91.993 131.506 C 94.261 129.454, 94.922 127.022, 93.936 124.356 C 92.518 120.522, 77.606 117.241, 75.278 120.250 M 83.093 156.388 C 82.233 157.424, 82.223 159.009, 83.053 162.638 C 84.344 168.280, 83.550 179.190, 81.407 185.265 C 80.604 187.540, 78.503 192.244, 76.739 195.717 C 73.249 202.587, 73.556 205.182, 77.935 205.830 C 81.343 206.335, 83.912 203.346, 88.532 193.500 C 93.900 182.061, 95.654 173.443, 93.909 167.083 C 91.296 157.562, 86.255 152.578, 83.093 156.388" stroke="none" fill="black" fill-rule="evenodd"/>
</svg>