<svg xmlns="http://www.w3.org/2000/svg" width="300" height="300" viewBox="0 0 300 300" version="1.1">
	<path d="M 91.250 125.496 C 90.563 126.277, 90 127.694, 90 128.646 C 90 131.230, 93.997 136.568, 97.454 138.602 C 99.129 139.588, 101.339 141.455, 102.365 142.751 C 105.237 146.381, 108.423 145.420, 108.807 140.810 C 109.111 137.156, 106.765 131, 105.069 131 C 104.585 131, 102.304 129.425, 100 127.500 C 95.514 123.752, 93.243 123.232, 91.250 125.496 M 92.263 178.769 C 89.303 182.384, 89.426 184.703, 92.864 190.125 C 97.915 198.090, 104.610 201.465, 106.894 197.199 C 107.896 195.326, 105.299 187.921, 103.181 186.612 C 102.616 186.263, 101.844 184.520, 101.466 182.739 C 100.651 178.907, 98.322 175.992, 96.095 176.019 C 95.218 176.030, 93.494 177.267, 92.263 178.769" stroke="none" fill="black" fill-rule="evenodd"/>
</svg>