<svg xmlns="http://www.w3.org/2000/svg" width="300" height="300" viewBox="0 0 300 300" version="1.1">
	<path d="M 47.162 130.599 C 44.249 132.640, 44.665 136.082, 48.019 137.685 C 54.161 140.618, 91.523 144.560, 102 143.380 C 107.861 142.720, 111 140.810, 111 137.904 C 111 135.152, 109.375 134.672, 99.062 134.374 C 82.998 133.910, 56.630 131.287, 51.428 129.636 C 50.280 129.272, 48.476 129.679, 47.162 130.599 M 71.500 159.509 C 65.008 160.327, 59.418 161.710, 55.566 163.453 C 52.303 164.929, 48.772 165.912, 47.720 165.637 C 43.015 164.407, 41.200 168.626, 45.223 171.443 C 48.038 173.415, 54.277 173.433, 60.591 171.487 C 72.291 167.881, 104.068 167.348, 113.294 170.604 C 118.904 172.583, 122.736 172.409, 123.455 170.141 C 124.436 167.049, 123.158 165.444, 117.879 163.139 C 106.306 158.085, 91.810 156.951, 71.500 159.509" stroke="none" fill="black" fill-rule="evenodd"/>
</svg>