<svg xmlns="http://www.w3.org/2000/svg" width="300" height="300" viewBox="0 0 300 300" version="1.1">
	<path d="M 92.957 183.162 C 89.559 184.320, 86.628 189.380, 87.452 192.665 C 88.027 194.955, 88.434 195.141, 91.575 194.552 C 94.880 193.932, 95.141 194.092, 96.633 197.663 C 98.827 202.916, 98.088 212.161, 94.979 218.354 C 92.202 223.885, 88.366 227.470, 82.873 229.667 C 78.876 231.267, 77.443 233.670, 78.500 237 C 80.045 241.867, 91.956 237.625, 99.616 229.480 C 105.669 223.042, 108.155 217.006, 108.765 207.261 C 109.391 197.252, 107.729 192.047, 102.242 186.838 C 97.773 182.596, 96.312 182.018, 92.957 183.162" stroke="none" fill="black" fill-rule="evenodd"/>
</svg>