<svg xmlns="http://www.w3.org/2000/svg" width="300" height="300" viewBox="0 0 300 300" version="1.1">
	<path d="M 86.694 37.853 C 82.445 39.529, 75.586 47.754, 71.853 55.647 C 66.836 66.256, 66.803 70.034, 71.648 78.698 L 75.296 85.221 73.536 90.860 C 72.568 93.962, 71.436 96.950, 71.020 97.500 C 70.056 98.776, 67.324 107.582, 66.678 111.497 C 66.363 113.405, 67.103 116.676, 68.715 120.497 C 71.430 126.935, 71.313 130.099, 67.864 143.500 C 66.081 150.425, 66.243 163.020, 68.234 172.254 C 69.761 179.338, 69.773 180.720, 68.376 188.254 C 64.751 207.795, 64.939 215.818, 69.239 225.210 C 72.154 231.575, 77.614 237.614, 81.290 238.537 C 87.187 240.017, 94.823 232.938, 94.952 225.872 C 95.060 219.952, 89.464 219.706, 86.697 225.510 C 84.773 229.544, 83.814 229.790, 81.152 226.933 C 75.550 220.920, 73.514 206.785, 76.480 194.500 C 78.361 186.708, 78.387 172.658, 76.529 167.500 C 74.688 162.391, 74.610 152.622, 76.364 146.928 C 80.887 132.251, 81.144 124.960, 77.402 117.569 L 74.804 112.437 78.508 102.546 C 83.610 88.926, 83.621 83.592, 78.570 74.559 C 76.052 70.056, 75.006 67.114, 75.385 65.602 C 76.739 60.208, 81.576 51.424, 85.173 47.827 C 88.655 44.345, 89.450 43.994, 92.538 44.573 C 95.483 45.126, 95.998 44.945, 95.985 43.361 C 95.965 40.935, 94.998 39.561, 92.316 38.150 C 89.873 36.864, 89.280 36.833, 86.694 37.853" stroke="none" fill="black" fill-rule="evenodd"/>
</svg>