<svg xmlns="http://www.w3.org/2000/svg" width="300" height="300" viewBox="0 0 300 300" version="1.1">
	<path d="M 222.441 40.225 C 219.449 42.579, 219.367 44.117, 222.103 46.595 C 223.938 48.258, 226.153 48.543, 239.504 48.838 C 256.194 49.206, 259 48.581, 259 44.490 C 259 40.156, 254.581 38.858, 238.821 38.565 C 226.355 38.333, 224.623 38.508, 222.441 40.225 M 43.250 41.468 C 40.778 43.276, 40.337 45.937, 42.200 47.800 C 42.871 48.471, 46.065 48.996, 49.450 48.990 C 52.778 48.985, 59.781 49.511, 65.013 50.158 C 77 51.642, 80 51.020, 80 47.052 C 80 44.370, 79.549 44.011, 74.250 42.468 C 71.088 41.547, 63.325 40.575, 57 40.308 C 47.378 39.902, 45.133 40.091, 43.250 41.468 M 133.667 41.667 C 132.275 43.059, 133.082 47.764, 135.012 49.511 C 136.798 51.128, 139.201 51.349, 156.473 51.489 C 176.140 51.648, 177 51.505, 177 48.071 C 177 46.072, 173.043 43.220, 168.807 42.167 C 163.864 40.938, 134.809 40.524, 133.667 41.667" stroke="none" fill="black" fill-rule="evenodd"/>
</svg>