<svg xmlns="http://www.w3.org/2000/svg" width="300" height="300" viewBox="0 0 300 300" version="1.1">
	<path d="M 150.322 68.696 C 149.124 68.929, 146.355 71.061, 144.169 73.432 C 139.338 78.673, 138.406 82.725, 137.510 102.376 C 136.800 117.949, 135.575 122.364, 129.012 133 C 124.450 140.394, 124.106 143.445, 127.098 150 C 129.339 154.910, 132 170.331, 132 178.413 C 132 184.229, 135.210 204.702, 137.465 213.267 C 140.735 225.688, 146.259 232.916, 154.095 235.025 C 158.293 236.156, 161.003 235.736, 164.750 233.373 C 169.112 230.622, 166.735 224.275, 161.807 225.512 C 156.710 226.792, 150.791 221.624, 148.620 214 C 145.257 202.188, 144.670 198.584, 141.452 170 C 140.336 160.085, 139.057 153.603, 137.407 149.500 C 136.080 146.200, 134.996 143.137, 134.997 142.693 C 134.999 142.250, 137.069 137.691, 139.598 132.563 C 143.306 125.043, 144.383 121.621, 145.165 114.870 C 145.698 110.266, 145.874 104.025, 145.555 101 C 145.236 97.975, 145.402 92.125, 145.925 88 C 146.739 81.579, 147.300 80.122, 149.823 77.867 C 151.944 75.972, 153.504 75.374, 155.385 75.733 C 157.632 76.163, 158 75.887, 158 73.772 C 158 71.331, 155.192 67.874, 153.421 68.136 C 152.915 68.211, 151.520 68.463, 150.322 68.696" stroke="none" fill="black" fill-rule="evenodd"/>
</svg>