<svg xmlns="http://www.w3.org/2000/svg" width="300" height="300" viewBox="0 0 300 300" version="1.1">
	<path d="M 178.500 93.168 C 174.514 95.470, 171.418 100.452, 167.186 111.370 C 159.582 130.987, 157.807 139.316, 157.266 157.907 C 156.876 171.284, 157.104 175.531, 158.497 180.907 C 163.866 201.621, 169.317 211.438, 183.084 225.192 C 192.358 234.457, 195.827 236.060, 197.965 232.066 C 198.534 231.002, 199 229.879, 199 229.570 C 199 229.261, 196.148 225.901, 192.662 222.102 C 175.437 203.333, 167 182.481, 167 158.685 C 167 146.583, 168.749 136.584, 173.592 121 C 177.643 107.962, 181.043 101.393, 184.575 99.784 C 186.993 98.682, 187.638 96.550, 186.225 94.329 C 185.082 92.532, 180.732 91.878, 178.500 93.168" stroke="none" fill="black" fill-rule="evenodd"/>
</svg>