<svg xmlns="http://www.w3.org/2000/svg" width="300" height="300" viewBox="0 0 300 300" version="1.1">
	<path d="M 169.138 134.220 C 162.187 141.491, 148.804 155.227, 139.398 164.745 L 122.297 182.051 104.898 171.458 C 95.329 165.632, 86.610 160.333, 85.523 159.683 C 71.875 151.520, 61.507 143.922, 52.659 135.599 C 47.545 130.789, 45.364 129.735, 43.067 130.964 C 39.283 132.989, 40.649 135.867, 49.250 143.982 C 59.393 153.552, 67.259 159.767, 75.203 164.488 C 76.970 165.538, 89.398 173.373, 93.463 176 C 94.740 176.825, 98.196 178.967, 101.142 180.759 C 104.089 182.552, 109.043 185.851, 112.151 188.091 C 115.608 190.583, 119.340 192.370, 121.766 192.695 C 125.530 193.200, 126.126 192.878, 133.615 186.273 C 156.255 166.308, 188 130.752, 188 125.359 C 188 122.871, 186.149 121, 183.688 121 C 182.538 121, 176.734 126.274, 169.138 134.220" stroke="none" fill="black" fill-rule="evenodd"/>
</svg>