<svg xmlns="http://www.w3.org/2000/svg" width="300" height="300" viewBox="0 0 300 300" version="1.1">
	<path d="M 73 124 C 71.900 125.100, 71 126.605, 71 127.345 C 71 129.282, 74.091 131.762, 77 132.159 C 79.144 132.451, 79.522 133.050, 79.652 136.367 C 79.935 143.524, 85.681 145.223, 87.916 138.810 C 91.234 129.292, 87.524 122, 79.364 122 C 76.333 122, 74.389 122.611, 73 124 M 71.208 172.373 C 68.453 173.728, 67.305 177.458, 69.011 179.513 C 69.690 180.331, 71.882 181, 73.882 181 C 76.472 181, 77.889 181.593, 78.807 183.062 C 80.655 186.022, 85.100 185.307, 86.783 181.779 C 87.881 179.479, 87.836 178.583, 86.493 175.986 C 84.057 171.275, 76.886 169.580, 71.208 172.373" stroke="none" fill="black" fill-rule="evenodd"/>
</svg>