<svg xmlns="http://www.w3.org/2000/svg" width="300" height="300" viewBox="0 0 300 300" version="1.1">
	<path d="M 98.500 91.097 C 93.899 92.503, 91.530 96.538, 91.514 103 C 91.501 108.041, 91.699 108.528, 93.887 108.837 C 96.548 109.214, 97.962 107.631, 97.985 104.250 C 97.993 103.013, 98.957 101.043, 100.127 99.873 C 101.935 98.065, 103.022 97.834, 107.377 98.328 C 115.871 99.293, 119.932 100.932, 124.065 105.065 C 127.430 108.430, 127.995 109.616, 127.968 113.250 C 127.951 115.588, 127.388 118.206, 126.718 119.070 C 126.048 119.933, 121.900 122.798, 117.500 125.436 C 107.733 131.292, 104.375 134.334, 102.967 138.600 C 101.396 143.360, 103.086 148.385, 109.174 157.053 C 112.026 161.115, 115.130 166.477, 116.072 168.969 C 117.530 172.823, 118.240 173.546, 120.826 173.808 C 124.916 174.223, 126.097 171.901, 124.941 165.713 C 123.926 160.279, 123.155 158.658, 117.848 150.805 C 111.699 141.705, 112.057 140.883, 126.707 130.477 C 135.396 124.305, 138.276 117.547, 135.961 108.765 C 134.688 103.935, 128.566 97.018, 122.994 94.114 C 116.047 90.493, 104.950 89.126, 98.500 91.097 M 108.238 205.993 C 103.329 210.566, 107.191 218.135, 115.077 219.396 C 120.781 220.308, 124.500 218.383, 124.500 214.518 C 124.500 211.808, 124.127 211.493, 120 210.714 C 116.885 210.127, 114.727 208.949, 112.988 206.887 L 110.476 203.908 108.238 205.993" stroke="none" fill="black" fill-rule="evenodd"/>
</svg>