<svg xmlns="http://www.w3.org/2000/svg" width="300" height="300" viewBox="0 0 300 300" version="1.1">
	<path d="M 99.331 129.749 C 86.464 130.620, 92.028 139, 105.474 139 C 110.136 139, 111.357 139.396, 113.187 141.500 C 115.921 144.644, 117.524 144.657, 119.560 141.549 C 122.549 136.986, 118.863 131.629, 111.995 130.556 C 109.523 130.170, 106.825 129.752, 106 129.627 C 105.175 129.501, 102.174 129.557, 99.331 129.749 M 118 181.979 C 116.958 182.638, 116.557 184.391, 116.685 187.714 C 116.932 194.084, 114.474 205.247, 111.373 211.834 C 109.992 214.767, 106.427 219.816, 103.451 223.053 C 97.906 229.085, 97.360 231.345, 101.159 232.551 C 103.768 233.378, 109.715 229.405, 114.370 223.724 C 122.075 214.322, 128.250 195.410, 125.953 188.255 C 123.928 181.948, 121.313 179.884, 118 181.979" stroke="none" fill="black" fill-rule="evenodd"/>
</svg>