<svg xmlns="http://www.w3.org/2000/svg" width="300" height="300" viewBox="0 0 300 300" version="1.1">
	<path d="M 174.500 60.682 C 168.044 61.095, 154.973 63.012, 148.500 64.496 C 145.200 65.252, 137.550 66.835, 131.500 68.014 C 113.027 71.615, 104.715 74.087, 102.250 76.714 C 99.598 79.540, 99.422 81.279, 101.571 83.429 C 103.638 85.495, 106.453 85.411, 113.802 83.063 C 117.137 81.998, 122.483 80.601, 125.683 79.958 C 137.804 77.525, 140.653 76.984, 146 76.101 C 149.025 75.602, 152.738 74.876, 154.250 74.488 L 157 73.783 157.008 82.142 C 157.013 86.739, 157.448 94.325, 157.975 99 C 158.502 103.675, 159.407 113.800, 159.987 121.500 C 160.566 129.200, 161.472 140.450, 161.999 146.500 C 164.591 176.251, 165.091 182.756, 166.018 198.849 L 167.018 216.198 164.602 218.098 C 161.700 220.381, 162.104 223.150, 165.758 226.024 C 169.258 228.777, 173.565 228.593, 175.523 225.606 C 178.023 221.790, 178.351 216.880, 177.119 201.713 C 175.856 186.166, 174.625 169.621, 173.011 146.500 C 171.610 126.420, 170.199 112.464, 168.410 101 C 167.595 95.775, 166.475 88.575, 165.921 85 C 165.367 81.425, 164.726 77.296, 164.497 75.824 C 164.108 73.331, 164.421 73.075, 169.089 72.074 C 171.844 71.483, 178.637 71, 184.183 71 C 199.286 71, 206.644 68, 204.319 62.789 C 203.378 60.681, 202.733 60.571, 190.915 60.500 C 184.087 60.459, 176.700 60.541, 174.500 60.682" stroke="none" fill="black" fill-rule="evenodd"/>
</svg>