<svg xmlns="http://www.w3.org/2000/svg" width="300" height="300" viewBox="0 0 300 300" version="1.1">
	<path d="M 59.036 47.456 C 57.449 49.368, 58.377 50.704, 61.816 51.460 C 65.566 52.283, 77.375 63.078, 80.662 68.685 L 83.304 73.194 81.524 78.841 C 78.977 86.922, 76.029 101.793, 76.013 106.639 C 75.996 112.008, 78.207 114.523, 84.500 116.291 C 91.443 118.243, 91.582 120.754, 85.397 132.543 L 80.698 141.500 80.673 152.500 C 80.658 158.635, 81.259 165.933, 82.030 169 C 83.905 176.459, 83.705 196.653, 81.674 205 C 78.681 217.296, 78.305 218.512, 76.254 222.500 C 75.123 224.700, 71.678 228.899, 68.599 231.830 C 62.831 237.321, 62.137 238.737, 64.200 240.800 C 67.593 244.193, 77.647 239.330, 82.717 231.843 C 86.696 225.966, 88.385 221.351, 91.081 208.987 C 93.752 196.733, 94.172 177.910, 91.972 169 C 91.225 165.975, 90.590 159, 90.562 153.500 C 90.510 143.516, 90.517 143.485, 95.255 134.107 C 99.913 124.887, 100.937 120.083, 99.435 114.500 C 98.743 111.929, 93.233 108.322, 88.699 107.471 L 85.164 106.808 85.672 101.154 C 85.951 98.044, 87.237 90.967, 88.528 85.426 C 90.495 76.991, 90.700 74.656, 89.791 71.073 C 88.472 65.876, 80.454 56.852, 71.443 50.422 C 65.050 45.860, 61.137 44.925, 59.036 47.456" stroke="none" fill="black" fill-rule="evenodd"/>
</svg>