<svg xmlns="http://www.w3.org/2000/svg" width="300" height="300" viewBox="0 0 300 300" version="1.1">
	<path d="M 104.250 128.010 C 99.718 129.875, 101.977 136.691, 107.704 138.435 C 109.629 139.021, 109.769 139.413, 108.807 141.523 C 107.974 143.351, 108.015 144.314, 108.975 145.470 C 112.576 149.809, 120 144.265, 120 137.237 C 120 133.406, 119.671 132.893, 115.750 130.611 C 110.504 127.557, 107.178 126.805, 104.250 128.010 M 102.557 173.223 C 100.325 176.408, 100.557 182.557, 103 185 C 105.784 187.784, 114.981 187.861, 116.696 185.115 C 118.546 182.154, 117.131 179.222, 112.917 177.280 C 110.753 176.284, 109.040 174.777, 109.026 173.857 C 109.002 172.350, 107.088 171, 104.975 171 C 104.501 171, 103.413 172, 102.557 173.223" stroke="none" fill="black" fill-rule="evenodd"/>
</svg>