<svg xmlns="http://www.w3.org/2000/svg" width="300" height="300" viewBox="0 0 300 300" version="1.1">
	<path d="M 151.315 148.007 C 148.634 149.087, 148.149 149.984, 143.474 162.500 C 141.420 168, 137.548 177.163, 134.870 182.863 C 132.191 188.562, 130 193.716, 130 194.315 C 130 194.915, 125.162 190.601, 119.250 184.729 C 113.338 178.857, 107.038 172.850, 105.250 171.381 C 103.463 169.912, 102 168.131, 102 167.422 C 102 166.714, 101.022 165.824, 99.826 165.445 C 97.033 164.558, 95 167.190, 95 171.691 C 95 174.632, 96.663 176.636, 109.986 189.750 L 124.972 204.500 121.925 211.500 C 117.702 221.202, 117.361 222.038, 116 226 C 114.705 229.770, 114.563 230.136, 110.481 240.171 L 107.767 246.841 105.444 244.171 C 100.545 238.539, 97.018 246.194, 100.955 253.912 C 104.605 261.067, 109.065 262.385, 113.335 257.569 C 114.937 255.762, 120 245.795, 120 244.449 C 120 243.813, 126.310 227.327, 129.645 219.250 C 131.064 215.813, 132.512 213.024, 132.863 213.053 C 133.213 213.082, 137.325 217.614, 142 223.125 C 146.675 228.636, 155.335 237.866, 161.245 243.636 C 170.956 253.118, 172.303 254.097, 175.245 253.814 C 180.735 253.285, 180.141 250.024, 173.318 243.230 C 170.118 240.044, 165.250 234.758, 162.500 231.484 C 154.352 221.783, 149.977 216.884, 143.149 209.820 L 136.693 203.141 138.977 197.820 C 140.234 194.894, 142.543 189.697, 144.110 186.271 C 145.676 182.845, 148.820 175.294, 151.096 169.491 C 154.646 160.442, 155.410 159.179, 156.466 160.622 C 158.387 163.249, 160 161.320, 160 156.396 C 160 152.965, 159.422 151.331, 157.545 149.455 C 154.871 146.780, 154.548 146.705, 151.315 148.007" stroke="none" fill="black" fill-rule="evenodd"/>
</svg>